0
SECTION
2
HEADER
9
$ACADVER
1
AC1021
9
$LASTSAVEDBY
1
@tarikjabiri/dxf
9
$HANDSEED
5
44
9
$INSUNITS
70
0
9
$CLAYER
8
0
9
$VIEWCTR
10
242.5
20
368.5
0
ENDSEC
0
SECTION
2
CLASSES
0
ENDSEC
0
SECTION
2
TABLES
0
TABLE
2
VPORT
5
1
330
0
100
AcDbSymbolTable
70
1
0
VPORT
5
19
330
1
100
AcDbSymbolTableRecord
100
AcDbViewportTableRecord
2
*Active
70
0
10
0
20
0
11
1
21
1
12
242.5
22
368.5
13
0
23
0
14
10
24
10
15
10
25
10
16
0
26
0
36
1
17
0
27
0
37
0
40
937
41
2
42
50
43
0
44
0
50
0
51
0
71
0
72
100
73
1
74
3
75
0
76
1
77
0
78
0
281
0
65
1
110
0
120
0
130
0
111
1
121
0
131
0
112
0
122
1
132
0
79
0
146
0
348
10020
60
7
61
5
292
1
282
1
141
0
142
0
63
250
421
3358443
0
ENDTAB
0
TABLE
2
LTYPE
5
2
330
0
100
AcDbSymbolTable
70
3
0
LTYPE
5
12
330
2
100
AcDbSymbolTableRecord
100
AcDbLinetypeTableRecord
2
ByBlock
70
0
3

72
65
73
0
40
0
0
LTYPE
5
13
330
2
100
AcDbSymbolTableRecord
100
AcDbLinetypeTableRecord
2
ByLayer
70
0
3

72
65
73
0
40
0
0
LTYPE
5
14
330
2
100
AcDbSymbolTableRecord
100
AcDbLinetypeTableRecord
2
Continuous
70
0
3
Solid line
72
65
73
0
40
0
0
ENDTAB
0
TABLE
2
LAYER
5
3
330
0
100
AcDbSymbolTable
70
1
0
LAYER
5
15
330
3
100
AcDbSymbolTableRecord
100
AcDbLayerTableRecord
2
0
70
0
62
7
6
Continuous
370
0
390
0
0
ENDTAB
0
TABLE
2
STYLE
5
4
330
0
100
AcDbSymbolTable
70
1
0
STYLE
5
16
330
4
100
AcDbSymbolTableRecord
100
AcDbTextStyleTableRecord
2
Standard
70
0
40
0
41
1
50
0
71
0
42
1
3
txt
4

0
ENDTAB
0
TABLE
2
VIEW
5
5
330
0
100
AcDbSymbolTable
70
0
0
ENDTAB
0
TABLE
2
UCS
5
6
330
0
100
AcDbSymbolTable
70
0
0
ENDTAB
0
TABLE
2
APPID
5
7
330
0
100
AcDbSymbolTable
70
1
0
APPID
5
17
330
7
100
AcDbSymbolTableRecord
100
AcDbRegAppTableRecord
2
ACAD
70
0
0
ENDTAB
0
TABLE
2
DIMSTYLE
5
8
330
0
100
AcDbSymbolTable
70
1
100
AcDbDimStyleTable
0
DIMSTYLE
105
18
330
8
100
AcDbSymbolTableRecord
100
AcDbDimStyleTableRecord
2
Standard
70
0
340
16
0
ENDTAB
0
TABLE
2
BLOCK_RECORD
5
9
330
0
100
AcDbSymbolTable
70
2
0
BLOCK_RECORD
5
C
330
9
100
AcDbSymbolTableRecord
100
AcDbBlockTableRecord
2
*Model_Space
70
0
280
1
281
0
0
BLOCK_RECORD
5
F
330
9
100
AcDbSymbolTableRecord
100
AcDbBlockTableRecord
2
*Paper_Space
70
0
280
1
281
0
0
ENDTAB
0
ENDSEC
0
SECTION
2
BLOCKS
0
BLOCK
5
D
330
C
100
AcDbEntity
8
0
100
AcDbBlockBegin
2
*Model_Space
70
0
10
0
20
0
30
0
3
*Model_Space
1

0
ENDBLK
5
E
100
AcDbEntity
8
0
100
AcDbBlockEnd
0
BLOCK
5
10
330
F
100
AcDbEntity
8
0
100
AcDbBlockBegin
2
*Paper_Space
70
0
10
0
20
0
30
0
3
*Paper_Space
1

0
ENDBLK
5
11
100
AcDbEntity
8
0
100
AcDbBlockEnd
0
ENDSEC
0
SECTION
2
ENTITIES
0
TEXT
5
1A
330
C
100
AcDbEntity
420
0
8
0
100
AcDbText
10
40
20
737
30
0
40
20
1
Background Image + CSS Transform Demo
7
STANDARD
100
AcDbText
0
TEXT
5
1B
330
C
100
AcDbEntity
420
5592405
8
0
100
AcDbText
10
40
20
696
30
0
40
16
1
SVG background-image with CSS rotation
7
STANDARD
100
AcDbText
0
LWPOLYLINE
5
1C
330
C
100
AcDbEntity
420
5025616
8
0
100
AcDbPolyline
90
5
70
0
43
0
38
0
39
0
10
45
20
684
10
145
20
684
10
145
20
584
10
45
20
584
10
45
20
684
0
HATCH
5
1D
330
C
100
AcDbEntity
420
16777215
8
0
100
AcDbHatch
10
0
20
0
30
0
210
0
220
0
230
1
2
SOLID
70
1
71
0
91
1
92
7
72
0
73
1
93
32
10
125
20
634
10
124.42355841209691
20
628.1472903395162
10
122.7163859753386
20
622.5194970290473
10
119.94408836907635
20
617.3328930094119
10
116.21320343559643
20
612.7867965644036
10
111.66710699058807
20
609.0559116309237
10
106.4805029709527
20
606.2836140246613
10
100.85270966048385
20
604.5764415879031
10
95
20
604
10
89.14729033951616
20
604.5764415879031
10
83.5194970290473
20
606.2836140246613
10
78.33289300941195
20
609.0559116309237
10
73.78679656440357
20
612.7867965644036
10
70.05591163092365
20
617.3328930094119
10
67.2836140246614
20
622.5194970290473
10
65.57644158790309
20
628.1472903395161
10
65
20
634
10
65.57644158790309
20
639.8527096604839
10
67.28361402466139
20
645.4805029709527
10
70.05591163092363
20
650.6671069905881
10
73.78679656440357
20
655.2132034355964
10
78.33289300941193
20
658.9440883690763
10
83.51949702904729
20
661.7163859753387
10
89.14729033951613
20
663.4235584120969
10
95
20
664
10
100.85270966048384
20
663.4235584120969
10
106.4805029709527
20
661.7163859753387
10
111.66710699058805
20
658.9440883690763
10
116.21320343559643
20
655.2132034355964
10
119.94408836907635
20
650.6671069905881
10
122.7163859753386
20
645.4805029709528
10
124.42355841209691
20
639.8527096604839
97
0
75
1
76
1
47
1
98
0
0
LWPOLYLINE
5
1E
330
C
100
AcDbEntity
420
16777215
8
0
100
AcDbPolyline
90
33
70
0
43
0
38
0
39
0
10
125
20
634
10
124.42355841209691
20
628.1472903395162
10
122.7163859753386
20
622.5194970290473
10
119.94408836907635
20
617.3328930094119
10
116.21320343559643
20
612.7867965644036
10
111.66710699058807
20
609.0559116309237
10
106.4805029709527
20
606.2836140246613
10
100.85270966048385
20
604.5764415879031
10
95
20
604
10
89.14729033951616
20
604.5764415879031
10
83.5194970290473
20
606.2836140246613
10
78.33289300941195
20
609.0559116309237
10
73.78679656440357
20
612.7867965644036
10
70.05591163092365
20
617.3328930094119
10
67.2836140246614
20
622.5194970290473
10
65.57644158790309
20
628.1472903395161
10
65
20
634
10
65.57644158790309
20
639.8527096604839
10
67.28361402466139
20
645.4805029709527
10
70.05591163092363
20
650.6671069905881
10
73.78679656440357
20
655.2132034355964
10
78.33289300941193
20
658.9440883690763
10
83.51949702904729
20
661.7163859753387
10
89.14729033951613
20
663.4235584120969
10
95
20
664
10
100.85270966048384
20
663.4235584120969
10
106.4805029709527
20
661.7163859753387
10
111.66710699058805
20
658.9440883690763
10
116.21320343559643
20
655.2132034355964
10
119.94408836907635
20
650.6671069905881
10
122.7163859753386
20
645.4805029709528
10
124.42355841209691
20
639.8527096604839
10
125
20
634
0
TEXT
5
1F
330
C
100
AcDbEntity
420
8947848
8
0
100
AcDbText
10
40
20
566
30
0
40
12
1
No rotation (reference)
7
STANDARD
100
AcDbText
0
LWPOLYLINE
5
20
330
C
100
AcDbEntity
420
5025616
8
0
100
AcDbPolyline
90
5
70
0
43
0
38
0
39
0
10
241
20
704.7107
10
311.7107
20
634
10
240.99999999999997
20
563.2893
10
170.2893
20
634
10
241
20
704.7107
0
HATCH
5
21
330
C
100
AcDbEntity
420
16777215
8
0
100
AcDbHatch
10
0
20
0
30
0
210
0
220
0
230
1
2
SOLID
70
1
71
0
91
1
92
7
72
0
73
1
93
32
10
262.21321
20
612.78679
10
257.66711214820685
20
609.0559039120017
10
252.4805065235823
20
606.2836054478548
10
246.8527114715987
20
604.5764324828137
10
240.99999999999997
20
603.9999907165314
10
235.14728852840125
20
604.5764324828137
10
229.51949347641772
20
606.2836054478548
10
224.33288785179315
20
609.0559039120017
10
219.78679
20
612.78679
10
216.0559039120016
20
617.3328878517932
10
213.28360544785482
20
622.5194934764177
10
211.57643248281377
20
628.1472885284013
10
210.9999907165314
20
634
10
211.57643248281374
20
639.8527114715987
10
213.28360544785477
20
645.4805065235823
10
216.05590391200164
20
650.6671121482068
10
219.78678999999997
20
655.21321
10
224.33288785179315
20
658.9440960879983
10
229.51949347641767
20
661.7163945521452
10
235.14728852840125
20
663.4235675171863
10
241
20
664.0000092834686
10
246.85271147159875
20
663.4235675171863
10
252.48050652358225
20
661.7163945521452
10
257.66711214820685
20
658.9440960879983
10
262.21321
20
655.21321
10
265.9440960879984
20
650.6671121482068
10
268.71639455214523
20
645.4805065235823
10
270.4235675171862
20
639.8527114715987
10
271.00000928346856
20
634
10
270.4235675171862
20
628.1472885284013
10
268.7163945521452
20
622.5194934764177
10
265.9440960879984
20
617.3328878517932
97
0
75
1
76
1
47
1
98
0
0
LWPOLYLINE
5
22
330
C
100
AcDbEntity
420
16777215
8
0
100
AcDbPolyline
90
33
70
0
43
0
38
0
39
0
10
262.21321
20
612.78679
10
257.66711214820685
20
609.0559039120017
10
252.4805065235823
20
606.2836054478548
10
246.8527114715987
20
604.5764324828137
10
240.99999999999997
20
603.9999907165314
10
235.14728852840125
20
604.5764324828137
10
229.51949347641772
20
606.2836054478548
10
224.33288785179315
20
609.0559039120017
10
219.78679
20
612.78679
10
216.0559039120016
20
617.3328878517932
10
213.28360544785482
20
622.5194934764177
10
211.57643248281377
20
628.1472885284013
10
210.9999907165314
20
634
10
211.57643248281374
20
639.8527114715987
10
213.28360544785477
20
645.4805065235823
10
216.05590391200164
20
650.6671121482068
10
219.78678999999997
20
655.21321
10
224.33288785179315
20
658.9440960879983
10
229.51949347641767
20
661.7163945521452
10
235.14728852840125
20
663.4235675171863
10
241
20
664.0000092834686
10
246.85271147159875
20
663.4235675171863
10
252.48050652358225
20
661.7163945521452
10
257.66711214820685
20
658.9440960879983
10
262.21321
20
655.21321
10
265.9440960879984
20
650.6671121482068
10
268.71639455214523
20
645.4805065235823
10
270.4235675171862
20
639.8527114715987
10
271.00000928346856
20
634
10
270.4235675171862
20
628.1472885284013
10
268.7163945521452
20
622.5194934764177
10
265.9440960879984
20
617.3328878517932
10
262.21321
20
612.78679
0
TEXT
5
23
330
C
100
AcDbEntity
420
8947848
8
0
100
AcDbText
10
208
20
566
30
0
40
12
1
rotate(45deg)
7
STANDARD
100
AcDbText
0
LWPOLYLINE
5
24
330
C
100
AcDbEntity
420
5025616
8
0
100
AcDbPolyline
90
5
70
0
43
0
38
0
39
0
10
431
20
684
10
431
20
584
10
331
20
584
10
331
20
684
10
431
20
684
0
HATCH
5
25
330
C
100
AcDbEntity
420
16777215
8
0
100
AcDbHatch
10
0
20
0
30
0
210
0
220
0
230
1
2
SOLID
70
1
71
0
91
1
92
7
72
0
73
1
93
32
10
381
20
604
10
375.14729033951613
20
604.5764415879031
10
369.51949702904733
20
606.2836140246613
10
364.3328930094119
20
609.0559116309237
10
359.7867965644036
20
612.7867965644036
10
356.0559116309237
20
617.3328930094119
10
353.2836140246614
20
622.5194970290473
10
351.5764415879031
20
628.1472903395161
10
351
20
634
10
351.5764415879031
20
639.8527096604838
10
353.2836140246614
20
645.4805029709527
10
356.0559116309236
20
650.6671069905881
10
359.7867965644036
20
655.2132034355964
10
364.3328930094119
20
658.9440883690763
10
369.51949702904733
20
661.7163859753387
10
375.14729033951613
20
663.4235584120969
10
381
20
664
10
386.85270966048387
20
663.4235584120969
10
392.48050297095267
20
661.7163859753387
10
397.6671069905881
20
658.9440883690763
10
402.2132034355964
20
655.2132034355964
10
405.9440883690763
20
650.6671069905881
10
408.7163859753386
20
645.4805029709528
10
410.4235584120969
20
639.8527096604839
10
411
20
634
10
410.4235584120969
20
628.1472903395162
10
408.7163859753386
20
622.5194970290473
10
405.9440883690764
20
617.3328930094119
10
402.2132034355964
20
612.7867965644036
10
397.6671069905881
20
609.0559116309237
10
392.4805029709527
20
606.2836140246613
10
386.85270966048387
20
604.5764415879031
97
0
75
1
76
1
47
1
98
0
0
LWPOLYLINE
5
26
330
C
100
AcDbEntity
420
16777215
8
0
100
AcDbPolyline
90
33
70
0
43
0
38
0
39
0
10
381
20
604
10
375.14729033951613
20
604.5764415879031
10
369.51949702904733
20
606.2836140246613
10
364.3328930094119
20
609.0559116309237
10
359.7867965644036
20
612.7867965644036
10
356.0559116309237
20
617.3328930094119
10
353.2836140246614
20
622.5194970290473
10
351.5764415879031
20
628.1472903395161
10
351
20
634
10
351.5764415879031
20
639.8527096604838
10
353.2836140246614
20
645.4805029709527
10
356.0559116309236
20
650.6671069905881
10
359.7867965644036
20
655.2132034355964
10
364.3328930094119
20
658.9440883690763
10
369.51949702904733
20
661.7163859753387
10
375.14729033951613
20
663.4235584120969
10
381
20
664
10
386.85270966048387
20
663.4235584120969
10
392.48050297095267
20
661.7163859753387
10
397.6671069905881
20
658.9440883690763
10
402.2132034355964
20
655.2132034355964
10
405.9440883690763
20
650.6671069905881
10
408.7163859753386
20
645.4805029709528
10
410.4235584120969
20
639.8527096604839
10
411
20
634
10
410.4235584120969
20
628.1472903395162
10
408.7163859753386
20
622.5194970290473
10
405.9440883690764
20
617.3328930094119
10
402.2132034355964
20
612.7867965644036
10
397.6671069905881
20
609.0559116309237
10
392.4805029709527
20
606.2836140246613
10
386.85270966048387
20
604.5764415879031
10
381
20
604
0
TEXT
5
27
330
C
100
AcDbEntity
420
8947848
8
0
100
AcDbText
10
348
20
566
30
0
40
12
1
rotate(90deg)
7
STANDARD
100
AcDbText
0
LWPOLYLINE
5
28
330
C
100
AcDbEntity
420
5025616
8
0
100
AcDbPolyline
90
5
70
0
43
0
38
0
39
0
10
571
20
584
10
471
20
584
10
471
20
684
10
571
20
684
10
571
20
584
0
HATCH
5
29
330
C
100
AcDbEntity
420
16777215
8
0
100
AcDbHatch
10
0
20
0
30
0
210
0
220
0
230
1
2
SOLID
70
1
71
0
91
1
92
7
72
0
73
1
93
32
10
491
20
634
10
491.5764415879031
20
639.8527096604838
10
493.2836140246614
20
645.4805029709527
10
496.0559116309237
20
650.6671069905881
10
499.7867965644036
20
655.2132034355964
10
504.3328930094119
20
658.9440883690763
10
509.51949702904733
20
661.7163859753387
10
515.1472903395162
20
663.4235584120969
10
521
20
664
10
526.8527096604838
20
663.4235584120969
10
532.4805029709527
20
661.7163859753387
10
537.6671069905881
20
658.9440883690763
10
542.2132034355964
20
655.2132034355964
10
545.9440883690763
20
650.6671069905881
10
548.7163859753387
20
645.4805029709527
10
550.4235584120969
20
639.8527096604839
10
551
20
634
10
550.4235584120969
20
628.1472903395161
10
548.7163859753387
20
622.5194970290473
10
545.9440883690763
20
617.3328930094119
10
542.2132034355964
20
612.7867965644036
10
537.6671069905881
20
609.0559116309237
10
532.4805029709527
20
606.2836140246613
10
526.8527096604838
20
604.5764415879031
10
521
20
604
10
515.1472903395162
20
604.5764415879031
10
509.51949702904733
20
606.2836140246613
10
504.3328930094119
20
609.0559116309237
10
499.7867965644036
20
612.7867965644036
10
496.0559116309237
20
617.3328930094119
10
493.2836140246614
20
622.5194970290472
10
491.5764415879031
20
628.1472903395161
97
0
75
1
76
1
47
1
98
0
0
LWPOLYLINE
5
2A
330
C
100
AcDbEntity
420
16777215
8
0
100
AcDbPolyline
90
33
70
0
43
0
38
0
39
0
10
491
20
634
10
491.5764415879031
20
639.8527096604838
10
493.2836140246614
20
645.4805029709527
10
496.0559116309237
20
650.6671069905881
10
499.7867965644036
20
655.2132034355964
10
504.3328930094119
20
658.9440883690763
10
509.51949702904733
20
661.7163859753387
10
515.1472903395162
20
663.4235584120969
10
521
20
664
10
526.8527096604838
20
663.4235584120969
10
532.4805029709527
20
661.7163859753387
10
537.6671069905881
20
658.9440883690763
10
542.2132034355964
20
655.2132034355964
10
545.9440883690763
20
650.6671069905881
10
548.7163859753387
20
645.4805029709527
10
550.4235584120969
20
639.8527096604839
10
551
20
634
10
550.4235584120969
20
628.1472903395161
10
548.7163859753387
20
622.5194970290473
10
545.9440883690763
20
617.3328930094119
10
542.2132034355964
20
612.7867965644036
10
537.6671069905881
20
609.0559116309237
10
532.4805029709527
20
606.2836140246613
10
526.8527096604838
20
604.5764415879031
10
521
20
604
10
515.1472903395162
20
604.5764415879031
10
509.51949702904733
20
606.2836140246613
10
504.3328930094119
20
609.0559116309237
10
499.7867965644036
20
612.7867965644036
10
496.0559116309237
20
617.3328930094119
10
493.2836140246614
20
622.5194970290472
10
491.5764415879031
20
628.1472903395161
10
491
20
634
0
TEXT
5
2B
330
C
100
AcDbEntity
420
8947848
8
0
100
AcDbText
10
485
20
566
30
0
40
12
1
rotate(180deg)
7
STANDARD
100
AcDbText
0
TEXT
5
2C
330
C
100
AcDbEntity
420
5592405
8
0
100
AcDbText
10
40
20
518
30
0
40
16
1
Various SVG shapes rotated
7
STANDARD
100
AcDbText
0
LWPOLYLINE
5
2D
330
C
100
AcDbEntity
420
2201331
8
0
100
AcDbPolyline
90
5
70
0
43
0
38
0
39
0
10
68.0385
20
520.6410000000001
10
171.9615
20
460.641
10
131.9615
20
391.35900000000004
10
28.0385
20
451.35900000000004
10
68.0385
20
520.6410000000001
0
TEXT
5
2E
330
C
100
AcDbEntity
420
0
8
0
100
AcDbText
10
80.208575390625
20
458.18898750000005
30
0
40
14.722424999999987
1
Hello
7
STANDARD
100
AcDbText
0
TEXT
5
2F
330
C
100
AcDbEntity
420
8947848
8
0
100
AcDbText
10
54
20
398
30
0
40
12
1
Rect+text at 30deg
7
STANDARD
100
AcDbText
0
HATCH
5
30
330
C
100
AcDbEntity
420
16750592
8
0
100
AcDbHatch
10
0
20
0
30
0
210
0
220
0
230
1
2
SOLID
70
1
71
0
91
1
92
7
72
0
73
1
93
5
10
218.18018500000002
20
487.819815
10
274.748745
20
494.890885
10
303.033025
20
445.393395
10
260.606605
20
402.966975
10
211.109115
20
431.251255
97
0
75
1
76
1
47
1
98
0
0
LWPOLYLINE
5
31
330
C
100
AcDbEntity
420
15094016
8
0
100
AcDbPolyline
90
6
70
0
43
0
38
0
39
0
10
218.18018500000002
20
487.819815
10
274.748745
20
494.890885
10
303.033025
20
445.393395
10
260.606605
20
402.966975
10
211.109115
20
431.251255
10
218.18018500000002
20
487.819815
0
TEXT
5
32
330
C
100
AcDbEntity
420
8947848
8
0
100
AcDbText
10
202
20
388
30
0
40
12
1
Pentagon at -45deg
7
STANDARD
100
AcDbText
0
HATCH
5
33
330
C
100
AcDbEntity
420
10233776
8
0
100
AcDbHatch
10
0
20
0
30
0
210
0
220
0
230
1
2
SOLID
70
1
71
0
91
1
92
7
72
0
73
1
93
32
10
412.5
20
417.02887499999997
10
407.8438414059722
20
415.339065214044
10
402.50195399365447
20
415.21183234899746
10
396.6796235005372
20
416.6520658925109
10
390.6005988222703
20
419.6044184771995
10
384.4984934680832
20
423.9554328489321
10
378.6078079246373
20
429.53790196547993
10
373.1549179338327
20
436.13729466937883
10
368.34937499999995
20
443.5
10
364.3758534431069
20
451.3430733205404
10
361.38705346820825
20
459.36510972173784
10
359.4978329822011
20
467.25782684350423
10
358.7807936688756
20
474.7179119931367
10
359.26349094692273
20
481.45867828199897
10
360.9273750306466
20
487.2210818418753
10
363.7085037878268
20
491.7836767355527
10
367.5
20
494.971125
10
372.1561585940277
20
496.66093478595593
10
377.4980460063455
20
496.7881676510025
10
383.3203764994627
20
495.34793410748904
10
389.39940117772966
20
492.39558152280046
10
395.50150653191673
20
488.04456715106784
10
401.39219207536263
20
482.46209803452
10
406.84508206616727
20
475.8627053306211
10
411.650625
20
468.5
10
415.62414655689304
20
460.65692667945956
10
418.6129465317917
20
452.6348902782621
10
420.50216701779885
20
444.7421731564957
10
421.2192063311243
20
437.28208800686326
10
420.73650905307727
20
430.541321718001
10
419.07262496935334
20
424.7789181581247
10
416.2914962121731
20
420.2163232644473
97
0
75
1
76
1
47
1
98
0
0
LWPOLYLINE
5
34
330
C
100
AcDbEntity
420
10233776
8
0
100
AcDbPolyline
90
33
70
0
43
0
38
0
39
0
10
412.5
20
417.02887499999997
10
407.8438414059722
20
415.339065214044
10
402.50195399365447
20
415.21183234899746
10
396.6796235005372
20
416.6520658925109
10
390.6005988222703
20
419.6044184771995
10
384.4984934680832
20
423.9554328489321
10
378.6078079246373
20
429.53790196547993
10
373.1549179338327
20
436.13729466937883
10
368.34937499999995
20
443.5
10
364.3758534431069
20
451.3430733205404
10
361.38705346820825
20
459.36510972173784
10
359.4978329822011
20
467.25782684350423
10
358.7807936688756
20
474.7179119931367
10
359.26349094692273
20
481.45867828199897
10
360.9273750306466
20
487.2210818418753
10
363.7085037878268
20
491.7836767355527
10
367.5
20
494.971125
10
372.1561585940277
20
496.66093478595593
10
377.4980460063455
20
496.7881676510025
10
383.3203764994627
20
495.34793410748904
10
389.39940117772966
20
492.39558152280046
10
395.50150653191673
20
488.04456715106784
10
401.39219207536263
20
482.46209803452
10
406.84508206616727
20
475.8627053306211
10
411.650625
20
468.5
10
415.62414655689304
20
460.65692667945956
10
418.6129465317917
20
452.6348902782621
10
420.50216701779885
20
444.7421731564957
10
421.2192063311243
20
437.28208800686326
10
420.73650905307727
20
430.541321718001
10
419.07262496935334
20
424.7789181581247
10
416.2914962121731
20
420.2163232644473
10
412.5
20
417.02887499999997
0
TEXT
5
35
330
C
100
AcDbEntity
420
8947848
8
0
100
AcDbText
10
351
20
388
30
0
40
12
1
Ellipse at 60deg
7
STANDARD
100
AcDbText
0
TEXT
5
36
330
C
100
AcDbEntity
420
5592405
8
0
100
AcDbText
10
40
20
340
30
0
40
16
1
Combined transforms (scale + rotate)
7
STANDARD
100
AcDbText
0
LWPOLYLINE
5
37
330
C
100
AcDbEntity
420
16007990
8
0
100
AcDbPolyline
90
5
70
0
43
0
38
0
39
0
10
56.57355999999999
20
361.48476
10
172.48476
20
330.42644
10
141.42643999999999
20
214.51524000000006
10
25.515239999999995
20
245.57356000000004
10
56.57355999999999
20
361.48476
0
LWPOLYLINE
5
38
330
C
100
AcDbEntity
420
16777215
8
0
100
AcDbPolyline
90
5
70
0
43
0
38
0
39
0
10
77.78678
20
324.74238
10
135.74238
20
309.21322
10
120.21321999999999
20
251.25761999999997
10
62.25761999999999
20
266.78678
10
77.78678
20
324.74238
0
TEXT
5
39
330
C
100
AcDbEntity
420
8947848
8
0
100
AcDbText
10
40
20
230
30
0
40
12
1
scale(1.5) rotate(15deg)
7
STANDARD
100
AcDbText
0
LWPOLYLINE
5
3A
330
C
100
AcDbEntity
420
38536
8
0
100
AcDbPolyline
90
5
70
0
43
0
38
0
39
0
10
229.355612
20
339.26851999999997
10
311.862812
20
311.90691999999996
10
304.64438800000005
20
236.73147999999992
10
222.137188
20
264.09308
10
229.355612
20
339.26851999999997
0
HATCH
5
3B
330
C
100
AcDbEntity
420
11722715
8
0
100
AcDbHatch
10
0
20
0
30
0
210
0
220
0
230
1
2
SOLID
70
1
71
0
91
1
92
7
72
0
73
1
93
32
10
292.7835
20
279.44949999999994
10
291.8480008202114
20
275.0306702107546
10
289.9576069038215
20
271.110244492026
10
287.184965028892
20
267.8388826055848
10
283.63662626776096
20
265.3423011541262
10
279.4489512890874
20
263.7164423627305
10
274.7828700938265
20
263.02378707295907
10
269.81769756554365
20
263.29095363915224
10
264.74424250000004
20
264.50767500000006
10
259.75747493013796
20
266.62719323595013
10
255.0490335370559
20
269.56805644983444
10
250.79986108296552
20
273.2172489175987
10
247.17325088231425
20
277.4345342191973
10
244.30857153128662
20
282.0578444455707
10
242.31591105081196
20
286.90950837750154
10
241.271846265658
20
291.80307929093027
10
241.2165
20
296.5505
10
242.15199917978862
20
300.96932978924536
10
244.04239309617853
20
304.889755507974
10
246.81503497110805
20
308.1611173944151
10
250.36337373223907
20
310.6576988458738
10
254.55104871091265
20
312.2835576372695
10
259.21712990617357
20
312.9762129270409
10
264.18230243445635
20
312.7090463608477
10
269.2557575
20
311.492325
10
274.24252506986204
20
309.37280676404987
10
278.95096646294417
20
306.43194355016544
10
283.2001389170345
20
302.78275108240126
10
286.8267491176858
20
298.56546578080264
10
289.6914284687134
20
293.94215555442923
10
291.6840889491881
20
289.09049162249846
10
292.72815373434196
20
284.1969207090697
97
0
75
1
76
1
47
1
98
0
0
LWPOLYLINE
5
3C
330
C
100
AcDbEntity
420
11722715
8
0
100
AcDbPolyline
90
33
70
0
43
0
38
0
39
0
10
292.7835
20
279.44949999999994
10
291.8480008202114
20
275.0306702107546
10
289.9576069038215
20
271.110244492026
10
287.184965028892
20
267.8388826055848
10
283.63662626776096
20
265.3423011541262
10
279.4489512890874
20
263.7164423627305
10
274.7828700938265
20
263.02378707295907
10
269.81769756554365
20
263.29095363915224
10
264.74424250000004
20
264.50767500000006
10
259.75747493013796
20
266.62719323595013
10
255.0490335370559
20
269.56805644983444
10
250.79986108296552
20
273.2172489175987
10
247.17325088231425
20
277.4345342191973
10
244.30857153128662
20
282.0578444455707
10
242.31591105081196
20
286.90950837750154
10
241.271846265658
20
291.80307929093027
10
241.2165
20
296.5505
10
242.15199917978862
20
300.96932978924536
10
244.04239309617853
20
304.889755507974
10
246.81503497110805
20
308.1611173944151
10
250.36337373223907
20
310.6576988458738
10
254.55104871091265
20
312.2835576372695
10
259.21712990617357
20
312.9762129270409
10
264.18230243445635
20
312.7090463608477
10
269.2557575
20
311.492325
10
274.24252506986204
20
309.37280676404987
10
278.95096646294417
20
306.43194355016544
10
283.2001389170345
20
302.78275108240126
10
286.8267491176858
20
298.56546578080264
10
289.6914284687134
20
293.94215555442923
10
291.6840889491881
20
289.09049162249846
10
292.72815373434196
20
284.1969207090697
10
292.7835
20
279.44949999999994
0
TEXT
5
3D
330
C
100
AcDbEntity
420
8947848
8
0
100
AcDbText
10
197
20
230
30
0
40
12
1
skewX(15deg) rotate(20deg)
7
STANDARD
100
AcDbText
0
TEXT
5
3E
330
C
100
AcDbEntity
420
5592405
8
0
100
AcDbText
10
40
20
182
30
0
40
16
1
Raster background-image with rotation (for comparison)
7
STANDARD
100
AcDbText
0
IMAGE
5
40
330
C
100
AcDbEntity
8
0
100
AcDbRasterImage
90
0
10
80
20
186.56856000000005
30
0
11
0.7071069999999999
21
0.7071070000000005
31
0
12
-0.7071070000000005
22
0.7071069999999999
32
0
13
80
23
80
340
3F
70
3
280
1
281
50
282
50
283
0
360
41
71
1
91
2
14
-0.5
24
-0.5
14
79.5
24
79.5
290
1
0
TEXT
5
43
330
C
100
AcDbEntity
420
8947848
8
0
100
AcDbText
10
41
20
72
30
0
40
12
1
Raster at 45deg
7
STANDARD
100
AcDbText
0
ENDSEC
0
SECTION
2
OBJECTS
0
DICTIONARY
5
A
330
0
100
AcDbDictionary
281
1
3
ACAD_GROUP
350
B
3
ACAD_IMAGE_DICT
350
42
0
DICTIONARY
5
B
330
A
100
AcDbDictionary
281
0
0
IMAGEDEF
5
3F
330
42
102
{ACAD_REACTORS
330
42
330
41
102
}
100
AcDbRasterImageDef
1
images/image1.png
10
80
20
80
11
1
21
1
280
1
281
0
0
IMAGEDEF_REACTOR
5
41
330
0
100
AcDbRasterImageDefReactor
90
2
330
40
0
DICTIONARY
5
42
330
A
100
AcDbDictionary
281
0
3
image1
350
3F
0
ENDSEC
0
EOF