0
SECTION
2
HEADER
9
$ACADVER
1
AC1021
9
$LASTSAVEDBY
1
@tarikjabiri/dxf
9
$HANDSEED
5
46
9
$INSUNITS
70
0
9
$CLAYER
8
0
9
$VIEWCTR
10
222.28334045410156
20
339
0
ENDSEC
0
SECTION
2
CLASSES
0
ENDSEC
0
SECTION
2
TABLES
0
TABLE
2
VPORT
5
1
330
0
100
AcDbSymbolTable
70
1
0
VPORT
5
19
330
1
100
AcDbSymbolTableRecord
100
AcDbViewportTableRecord
2
*Active
70
0
10
0
20
0
11
1
21
1
12
222.28334045410156
22
339
13
0
23
0
14
10
24
10
15
10
25
10
16
0
26
0
36
1
17
0
27
0
37
0
40
878
41
2
42
50
43
0
44
0
50
0
51
0
71
0
72
100
73
1
74
3
75
0
76
1
77
0
78
0
281
0
65
1
110
0
120
0
130
0
111
1
121
0
131
0
112
0
122
1
132
0
79
0
146
0
348
10020
60
7
61
5
292
1
282
1
141
0
142
0
63
250
421
3358443
0
ENDTAB
0
TABLE
2
LTYPE
5
2
330
0
100
AcDbSymbolTable
70
3
0
LTYPE
5
12
330
2
100
AcDbSymbolTableRecord
100
AcDbLinetypeTableRecord
2
ByBlock
70
0
3

72
65
73
0
40
0
0
LTYPE
5
13
330
2
100
AcDbSymbolTableRecord
100
AcDbLinetypeTableRecord
2
ByLayer
70
0
3

72
65
73
0
40
0
0
LTYPE
5
14
330
2
100
AcDbSymbolTableRecord
100
AcDbLinetypeTableRecord
2
Continuous
70
0
3
Solid line
72
65
73
0
40
0
0
ENDTAB
0
TABLE
2
LAYER
5
3
330
0
100
AcDbSymbolTable
70
1
0
LAYER
5
15
330
3
100
AcDbSymbolTableRecord
100
AcDbLayerTableRecord
2
0
70
0
62
7
6
Continuous
370
0
390
0
0
ENDTAB
0
TABLE
2
STYLE
5
4
330
0
100
AcDbSymbolTable
70
2
0
STYLE
5
16
330
4
100
AcDbSymbolTableRecord
100
AcDbTextStyleTableRecord
2
Standard
70
0
40
0
41
1
50
0
71
0
42
1
3
txt
4

0
STYLE
5
1B
330
4
100
AcDbSymbolTableRecord
100
AcDbTextStyleTableRecord
2
Arial
70
0
40
0
41
1
50
0
71
0
42
1
3
Arial.ttf
4

0
ENDTAB
0
TABLE
2
VIEW
5
5
330
0
100
AcDbSymbolTable
70
0
0
ENDTAB
0
TABLE
2
UCS
5
6
330
0
100
AcDbSymbolTable
70
0
0
ENDTAB
0
TABLE
2
APPID
5
7
330
0
100
AcDbSymbolTable
70
1
0
APPID
5
17
330
7
100
AcDbSymbolTableRecord
100
AcDbRegAppTableRecord
2
ACAD
70
0
0
ENDTAB
0
TABLE
2
DIMSTYLE
5
8
330
0
100
AcDbSymbolTable
70
1
100
AcDbDimStyleTable
0
DIMSTYLE
105
18
330
8
100
AcDbSymbolTableRecord
100
AcDbDimStyleTableRecord
2
Standard
70
0
340
16
0
ENDTAB
0
TABLE
2
BLOCK_RECORD
5
9
330
0
100
AcDbSymbolTable
70
2
0
BLOCK_RECORD
5
C
330
9
100
AcDbSymbolTableRecord
100
AcDbBlockTableRecord
2
*Model_Space
70
0
280
1
281
0
0
BLOCK_RECORD
5
F
330
9
100
AcDbSymbolTableRecord
100
AcDbBlockTableRecord
2
*Paper_Space
70
0
280
1
281
0
0
ENDTAB
0
ENDSEC
0
SECTION
2
BLOCKS
0
BLOCK
5
D
330
C
100
AcDbEntity
8
0
100
AcDbBlockBegin
2
*Model_Space
70
0
10
0
20
0
30
0
3
*Model_Space
1

0
ENDBLK
5
E
100
AcDbEntity
8
0
100
AcDbBlockEnd
0
BLOCK
5
10
330
F
100
AcDbEntity
8
0
100
AcDbBlockBegin
2
*Paper_Space
70
0
10
0
20
0
30
0
3
*Paper_Space
1

0
ENDBLK
5
11
100
AcDbEntity
8
0
100
AcDbBlockEnd
0
ENDSEC
0
SECTION
2
ENTITIES
0
TEXT
5
1A
330
C
100
AcDbEntity
420
0
8
0
100
AcDbText
10
0
20
678
30
0
40
18
1
Background Image + CSS Transform Demo
7
Arial
100
AcDbText
0
TEXT
5
1C
330
C
100
AcDbEntity
420
5592405
8
0
100
AcDbText
10
0
20
636
30
0
40
14
1
SVG background-image with CSS rotation
7
Arial
100
AcDbText
0
LWPOLYLINE
5
1D
330
C
100
AcDbEntity
420
5025616
8
0
100
AcDbPolyline
90
5
70
0
43
0
38
0
39
0
10
5.3166656494140625
20
619
10
105.31666564941406
20
619
10
105.31666564941406
20
519
10
5.3166656494140625
20
519
10
5.3166656494140625
20
619
0
HATCH
5
1E
330
C
100
AcDbEntity
420
16777215
8
0
100
AcDbHatch
10
0
20
0
30
0
210
0
220
0
230
1
2
SOLID
70
1
71
0
91
1
92
7
72
0
73
1
93
32
10
85.31666564941406
20
569
10
84.74022406151097
20
563.1472903395162
10
83.03305162475266
20
557.5194970290473
10
80.26075401849042
20
552.3328930094119
10
76.52986908501049
20
547.7867965644036
10
71.98377264000213
20
544.0559116309237
10
66.79716862036676
20
541.2836140246613
10
61.169375309897916
20
539.5764415879031
10
55.31666564941406
20
539
10
49.46395598893022
20
539.5764415879031
10
43.83616267846136
20
541.2836140246613
10
38.64955865882601
20
544.0559116309237
10
34.103462213817636
20
547.7867965644036
10
30.37257728033771
20
552.3328930094119
10
27.600279674075466
20
557.5194970290473
10
25.893107237317153
20
563.1472903395161
10
25.316665649414062
20
569
10
25.893107237317153
20
574.8527096604839
10
27.600279674075452
20
580.4805029709527
10
30.372577280337694
20
585.6671069905881
10
34.103462213817636
20
590.2132034355964
10
38.649558658825995
20
593.9440883690763
10
43.83616267846135
20
596.7163859753387
10
49.463955988930195
20
598.4235584120969
10
55.31666564941406
20
599
10
61.1693753098979
20
598.4235584120969
10
66.79716862036676
20
596.7163859753387
10
71.98377264000212
20
593.9440883690763
10
76.52986908501049
20
590.2132034355964
10
80.26075401849042
20
585.6671069905881
10
83.03305162475266
20
580.4805029709528
10
84.74022406151097
20
574.8527096604839
97
0
75
1
76
1
47
1
98
0
0
LWPOLYLINE
5
1F
330
C
100
AcDbEntity
420
16777215
8
0
100
AcDbPolyline
90
33
70
0
43
0
38
0
39
0
10
85.31666564941406
20
569
10
84.74022406151097
20
563.1472903395162
10
83.03305162475266
20
557.5194970290473
10
80.26075401849042
20
552.3328930094119
10
76.52986908501049
20
547.7867965644036
10
71.98377264000213
20
544.0559116309237
10
66.79716862036676
20
541.2836140246613
10
61.169375309897916
20
539.5764415879031
10
55.31666564941406
20
539
10
49.46395598893022
20
539.5764415879031
10
43.83616267846136
20
541.2836140246613
10
38.64955865882601
20
544.0559116309237
10
34.103462213817636
20
547.7867965644036
10
30.37257728033771
20
552.3328930094119
10
27.600279674075466
20
557.5194970290473
10
25.893107237317153
20
563.1472903395161
10
25.316665649414062
20
569
10
25.893107237317153
20
574.8527096604839
10
27.600279674075452
20
580.4805029709527
10
30.372577280337694
20
585.6671069905881
10
34.103462213817636
20
590.2132034355964
10
38.649558658825995
20
593.9440883690763
10
43.83616267846135
20
596.7163859753387
10
49.463955988930195
20
598.4235584120969
10
55.31666564941406
20
599
10
61.1693753098979
20
598.4235584120969
10
66.79716862036676
20
596.7163859753387
10
71.98377264000212
20
593.9440883690763
10
76.52986908501049
20
590.2132034355964
10
80.26075401849042
20
585.6671069905881
10
83.03305162475266
20
580.4805029709528
10
84.74022406151097
20
574.8527096604839
10
85.31666564941406
20
569
0
TEXT
5
20
330
C
100
AcDbEntity
420
8947848
8
0
100
AcDbText
10
0
20
503.75
30
0
40
11
1
No rotation (reference)
7
Arial
100
AcDbText
0
LWPOLYLINE
5
21
330
C
100
AcDbEntity
420
5025616
8
0
100
AcDbPolyline
90
5
70
0
43
0
38
0
39
0
10
200.64999389648438
20
639.7106781005859
10
271.36065673828125
20
569
10
200.6499786376953
20
498.28932189941406
10
129.93931579589844
20
569
10
200.64999389648438
20
639.7106781005859
0
HATCH
5
22
330
C
100
AcDbEntity
420
16777215
8
0
100
AcDbHatch
10
0
20
0
30
0
210
0
220
0
230
1
2
SOLID
70
1
71
0
91
1
92
7
72
0
73
1
93
32
10
221.8631851196289
20
547.7867965698242
10
217.31708876374023
20
544.0559116372976
10
212.13048500592407
20
541.2836140317438
10
206.5026921199123
20
539.5764415954218
10
200.64998303021187
20
539.0000000076659
10
194.79727406490287
20
539.5764415954218
10
189.16948154728507
20
541.2836140317438
10
183.98287838770815
20
544.0559116372976
10
179.43678283691406
20
547.7867965698242
10
175.70589879744014
20
552.3328930136709
10
172.93360205061938
20
557.5194970319809
10
171.2264304057103
20
563.1472903410117
10
170.64998951163378
20
569
10
171.22643166867744
20
574.8527096589883
10
172.9336045280185
20
580.4805029680191
10
175.7059023940662
20
585.6671069863291
10
179.4367874145508
20
590.2132034301758
10
183.98288377043946
20
593.9440883627024
10
189.16948752825562
20
596.7163859682562
10
194.79728041426733
20
598.4235584045782
10
200.64998950396782
20
598.9999999923341
10
206.50269846927685
20
598.4235584045782
10
212.1304909868946
20
596.7163859682562
10
217.3170941464715
20
593.9440883627024
10
221.86318969726562
20
590.2132034301758
10
225.59407373673952
20
585.6671069863291
10
228.36637048356033
20
580.480502968019
10
230.0735421284694
20
574.8527096589883
10
230.64998302254594
20
569
10
230.07354086550225
20
563.1472903410117
10
228.36636800616122
20
557.519497031981
10
225.5940701401135
20
552.3328930136709
97
0
75
1
76
1
47
1
98
0
0
LWPOLYLINE
5
23
330
C
100
AcDbEntity
420
16777215
8
0
100
AcDbPolyline
90
33
70
0
43
0
38
0
39
0
10
221.8631851196289
20
547.7867965698242
10
217.31708876374023
20
544.0559116372976
10
212.13048500592407
20
541.2836140317438
10
206.5026921199123
20
539.5764415954218
10
200.64998303021187
20
539.0000000076659
10
194.79727406490287
20
539.5764415954218
10
189.16948154728507
20
541.2836140317438
10
183.98287838770815
20
544.0559116372976
10
179.43678283691406
20
547.7867965698242
10
175.70589879744014
20
552.3328930136709
10
172.93360205061938
20
557.5194970319809
10
171.2264304057103
20
563.1472903410117
10
170.64998951163378
20
569
10
171.22643166867744
20
574.8527096589883
10
172.9336045280185
20
580.4805029680191
10
175.7059023940662
20
585.6671069863291
10
179.4367874145508
20
590.2132034301758
10
183.98288377043946
20
593.9440883627024
10
189.16948752825562
20
596.7163859682562
10
194.79728041426733
20
598.4235584045782
10
200.64998950396782
20
598.9999999923341
10
206.50269846927685
20
598.4235584045782
10
212.1304909868946
20
596.7163859682562
10
217.3170941464715
20
593.9440883627024
10
221.86318969726562
20
590.2132034301758
10
225.59407373673952
20
585.6671069863291
10
228.36637048356033
20
580.480502968019
10
230.0735421284694
20
574.8527096589883
10
230.64998302254594
20
569
10
230.07354086550225
20
563.1472903410117
10
228.36636800616122
20
557.519497031981
10
225.5940701401135
20
552.3328930136709
10
221.8631851196289
20
547.7867965698242
0
TEXT
5
24
330
C
100
AcDbEntity
420
8947848
8
0
100
AcDbText
10
167.63333129882812
20
503.75
30
0
40
11
1
rotate(45deg)
7
Arial
100
AcDbText
0
LWPOLYLINE
5
25
330
C
100
AcDbEntity
420
5025616
8
0
100
AcDbPolyline
90
5
70
0
43
0
38
0
39
0
10
390.6499938964844
20
619
10
390.6499938964844
20
519
10
290.6499938964844
20
519
10
290.6499938964844
20
619
10
390.6499938964844
20
619
0
HATCH
5
26
330
C
100
AcDbEntity
420
16777215
8
0
100
AcDbHatch
10
0
20
0
30
0
210
0
220
0
230
1
2
SOLID
70
1
71
0
91
1
92
7
72
0
73
1
93
32
10
340.6499938964844
20
539
10
334.7972842360005
20
539.5764415879031
10
329.1694909255317
20
541.2836140246613
10
323.9828869058963
20
544.0559116309237
10
319.43679046088795
20
547.7867965644036
10
315.70590552740805
20
552.3328930094119
10
312.9336079211458
20
557.5194970290473
10
311.2264354843875
20
563.1472903395161
10
310.6499938964844
20
569
10
311.2264354843875
20
574.8527096604838
10
312.9336079211458
20
580.4805029709527
10
315.70590552740805
20
585.6671069905881
10
319.43679046088795
20
590.2132034355964
10
323.9828869058963
20
593.9440883690763
10
329.1694909255317
20
596.7163859753387
10
334.7972842360005
20
598.4235584120969
10
340.6499938964844
20
599
10
346.50270355696824
20
598.4235584120969
10
352.13049686743705
20
596.7163859753387
10
357.31710088707246
20
593.9440883690763
10
361.8631973320808
20
590.2132034355964
10
365.5940822655607
20
585.6671069905881
10
368.36637987182297
20
580.4805029709528
10
370.07355230858127
20
574.8527096604839
10
370.6499938964844
20
569
10
370.07355230858127
20
563.1472903395162
10
368.36637987182297
20
557.5194970290473
10
365.59408226556076
20
552.3328930094119
10
361.8631973320808
20
547.7867965644036
10
357.31710088707246
20
544.0559116309237
10
352.1304968674371
20
541.2836140246613
10
346.50270355696824
20
539.5764415879031
97
0
75
1
76
1
47
1
98
0
0
LWPOLYLINE
5
27
330
C
100
AcDbEntity
420
16777215
8
0
100
AcDbPolyline
90
33
70
0
43
0
38
0
39
0
10
340.6499938964844
20
539
10
334.7972842360005
20
539.5764415879031
10
329.1694909255317
20
541.2836140246613
10
323.9828869058963
20
544.0559116309237
10
319.43679046088795
20
547.7867965644036
10
315.70590552740805
20
552.3328930094119
10
312.9336079211458
20
557.5194970290473
10
311.2264354843875
20
563.1472903395161
10
310.6499938964844
20
569
10
311.2264354843875
20
574.8527096604838
10
312.9336079211458
20
580.4805029709527
10
315.70590552740805
20
585.6671069905881
10
319.43679046088795
20
590.2132034355964
10
323.9828869058963
20
593.9440883690763
10
329.1694909255317
20
596.7163859753387
10
334.7972842360005
20
598.4235584120969
10
340.6499938964844
20
599
10
346.50270355696824
20
598.4235584120969
10
352.13049686743705
20
596.7163859753387
10
357.31710088707246
20
593.9440883690763
10
361.8631973320808
20
590.2132034355964
10
365.5940822655607
20
585.6671069905881
10
368.36637987182297
20
580.4805029709528
10
370.07355230858127
20
574.8527096604839
10
370.6499938964844
20
569
10
370.07355230858127
20
563.1472903395162
10
368.36637987182297
20
557.5194970290473
10
365.59408226556076
20
552.3328930094119
10
361.8631973320808
20
547.7867965644036
10
357.31710088707246
20
544.0559116309237
10
352.1304968674371
20
541.2836140246613
10
346.50270355696824
20
539.5764415879031
10
340.6499938964844
20
539
0
TEXT
5
28
330
C
100
AcDbEntity
420
8947848
8
0
100
AcDbText
10
307.6333312988281
20
503.75
30
0
40
11
1
rotate(90deg)
7
Arial
100
AcDbText
0
LWPOLYLINE
5
29
330
C
100
AcDbEntity
420
5025616
8
0
100
AcDbPolyline
90
5
70
0
43
0
38
0
39
0
10
530.6500244140625
20
519
10
430.6500244140625
20
519
10
430.6500244140625
20
619
10
530.6500244140625
20
619
10
530.6500244140625
20
519
0
HATCH
5
2A
330
C
100
AcDbEntity
420
16777215
8
0
100
AcDbHatch
10
0
20
0
30
0
210
0
220
0
230
1
2
SOLID
70
1
71
0
91
1
92
7
72
0
73
1
93
32
10
450.6500244140625
20
569
10
451.2264660019656
20
574.8527096604838
10
452.9336384387239
20
580.4805029709527
10
455.7059360449862
20
585.6671069905881
10
459.4368209784661
20
590.2132034355964
10
463.9829174234744
20
593.9440883690763
10
469.16952144310983
20
596.7163859753387
10
474.7973147535787
20
598.4235584120969
10
480.6500244140625
20
599
10
486.5027340745463
20
598.4235584120969
10
492.13052738501517
20
596.7163859753387
10
497.3171314046506
20
593.9440883690763
10
501.86322784965887
20
590.2132034355964
10
505.5941127831388
20
585.6671069905881
10
508.36641038940115
20
580.4805029709527
10
510.0735828261594
20
574.8527096604839
10
510.6500244140625
20
569
10
510.0735828261594
20
563.1472903395161
10
508.36641038940115
20
557.5194970290473
10
505.5941127831388
20
552.3328930094119
10
501.86322784965887
20
547.7867965644036
10
497.3171314046506
20
544.0559116309237
10
492.13052738501517
20
541.2836140246613
10
486.5027340745463
20
539.5764415879031
10
480.6500244140625
20
539
10
474.7973147535787
20
539.5764415879031
10
469.16952144310983
20
541.2836140246613
10
463.9829174234744
20
544.0559116309237
10
459.4368209784661
20
547.7867965644036
10
455.7059360449862
20
552.3328930094119
10
452.9336384387239
20
557.5194970290472
10
451.2264660019656
20
563.1472903395161
97
0
75
1
76
1
47
1
98
0
0
LWPOLYLINE
5
2B
330
C
100
AcDbEntity
420
16777215
8
0
100
AcDbPolyline
90
33
70
0
43
0
38
0
39
0
10
450.6500244140625
20
569
10
451.2264660019656
20
574.8527096604838
10
452.9336384387239
20
580.4805029709527
10
455.7059360449862
20
585.6671069905881
10
459.4368209784661
20
590.2132034355964
10
463.9829174234744
20
593.9440883690763
10
469.16952144310983
20
596.7163859753387
10
474.7973147535787
20
598.4235584120969
10
480.6500244140625
20
599
10
486.5027340745463
20
598.4235584120969
10
492.13052738501517
20
596.7163859753387
10
497.3171314046506
20
593.9440883690763
10
501.86322784965887
20
590.2132034355964
10
505.5941127831388
20
585.6671069905881
10
508.36641038940115
20
580.4805029709527
10
510.0735828261594
20
574.8527096604839
10
510.6500244140625
20
569
10
510.0735828261594
20
563.1472903395161
10
508.36641038940115
20
557.5194970290473
10
505.5941127831388
20
552.3328930094119
10
501.86322784965887
20
547.7867965644036
10
497.3171314046506
20
544.0559116309237
10
492.13052738501517
20
541.2836140246613
10
486.5027340745463
20
539.5764415879031
10
480.6500244140625
20
539
10
474.7973147535787
20
539.5764415879031
10
469.16952144310983
20
541.2836140246613
10
463.9829174234744
20
544.0559116309237
10
459.4368209784661
20
547.7867965644036
10
455.7059360449862
20
552.3328930094119
10
452.9336384387239
20
557.5194970290472
10
451.2264660019656
20
563.1472903395161
10
450.6500244140625
20
569
0
TEXT
5
2C
330
C
100
AcDbEntity
420
8947848
8
0
100
AcDbText
10
444.5666809082031
20
503.75
30
0
40
11
1
rotate(180deg)
7
Arial
100
AcDbText
0
TEXT
5
2D
330
C
100
AcDbEntity
420
5592405
8
0
100
AcDbText
10
0
20
456
30
0
40
14
1
Various SVG shapes rotated
7
Arial
100
AcDbText
0
HATCH
5
2E
330
C
100
AcDbEntity
420
2201331
8
0
100
AcDbHatch
10
0
20
0
30
0
210
0
220
0
230
1
2
SOLID
70
1
71
0
91
1
92
7
72
0
73
1
93
20
10
23.03847398855145
20
444.9807682957746
10
25.767240316430563
20
448.4571291587136
10
28.953538251998268
20
450.2259583147895
10
32.59736779525456
20
450.28725576400245
10
36.698728946199445
20
448.64102150635233
10
123.30126342440603
20
398.6410219506789
10
126.77762444434221
20
395.91225601393614
10
128.54645359457237
20
392.7259584258712
10
128.60775087509654
20
389.082129186484
10
126.96151628591473
20
384.9807682957746
10
96.96151838205402
20
333.0192622218035
10
94.23275205417491
20
329.5429013588645
10
91.0464541186072
20
327.7740722027886
10
87.4026245753509
20
327.7127747535757
10
83.30126342440603
20
329.3590090112258
10
-3.3012710538005567
20
379.3590085668992
10
-6.777632073736732
20
382.087774503642
10
-8.546461223966908
20
385.2740720917069
10
-8.607758504491084
20
388.91790133109413
10
-6.961523915309261
20
393.0192622218035
97
0
75
1
76
1
47
1
98
0
0
LWPOLYLINE
5
2F
330
C
100
AcDbEntity
420
2201331
8
0
100
AcDbPolyline
90
21
70
0
43
0
38
0
39
0
10
23.03847398855145
20
444.9807682957746
10
25.767240316430563
20
448.4571291587136
10
28.953538251998268
20
450.2259583147895
10
32.59736779525456
20
450.28725576400245
10
36.698728946199445
20
448.64102150635233
10
123.30126342440603
20
398.6410219506789
10
126.77762444434221
20
395.91225601393614
10
128.54645359457237
20
392.7259584258712
10
128.60775087509654
20
389.082129186484
10
126.96151628591473
20
384.9807682957746
10
96.96151838205402
20
333.0192622218035
10
94.23275205417491
20
329.5429013588645
10
91.0464541186072
20
327.7740722027886
10
87.4026245753509
20
327.7127747535757
10
83.30126342440603
20
329.3590090112258
10
-3.3012710538005567
20
379.3590085668992
10
-6.777632073736732
20
382.087774503642
10
-8.546461223966908
20
385.2740720917069
10
-8.607758504491084
20
388.91790133109413
10
-6.961523915309261
20
393.0192622218035
10
23.03847398855145
20
444.9807682957746
0
TEXT
5
30
330
C
100
AcDbEntity
420
16777215
8
0
100
AcDbText
10
42.466685038612646
20
395.0814257036248
30
0
40
16
1
Hello
50
-30.00000146982048
7
Arial
100
AcDbText
0
TEXT
5
31
330
C
100
AcDbEntity
420
8947848
8
0
100
AcDbText
10
13.700000762939453
20
333.75
30
0
40
11
1
Rect+text at 30deg
7
Arial
100
AcDbText
0
HATCH
5
32
330
C
100
AcDbEntity
420
16750592
8
0
100
AcDbHatch
10
0
20
0
30
0
210
0
220
0
230
1
2
SOLID
70
1
71
0
91
1
92
7
72
0
73
1
93
5
10
178.18019485473633
20
420.81981201171874
10
234.74873733520508
20
427.89088134765626
10
263.03300857543945
20
378.3933959960938
10
220.6066017150879
20
335.96697998046875
10
171.10912704467773
20
364.2512573242188
97
0
75
1
76
1
47
1
98
0
0
LWPOLYLINE
5
33
330
C
100
AcDbEntity
420
15094016
8
0
100
AcDbPolyline
90
6
70
0
43
0
38
0
39
0
10
178.18019485473633
20
420.81981201171874
10
234.74873733520508
20
427.89088134765626
10
263.03300857543945
20
378.3933959960938
10
220.6066017150879
20
335.96697998046875
10
171.10912704467773
20
364.2512573242188
10
178.18019485473633
20
420.81981201171874
0
TEXT
5
34
330
C
100
AcDbEntity
420
8947848
8
0
100
AcDbText
10
161.6999969482422
20
323.75
30
0
40
11
1
Pentagon at -45deg
7
Arial
100
AcDbText
0
HATCH
5
35
330
C
100
AcDbEntity
420
10233776
8
0
100
AcDbHatch
10
0
20
0
30
0
210
0
220
0
230
1
2
SOLID
70
1
71
0
91
1
92
7
72
0
73
1
93
32
10
372.5
20
350.028857421875
10
367.84383950079337
20
348.3390479736778
10
362.50195025651163
20
348.21181610892756
10
356.6796180750467
20
349.65205127683413
10
350.6005919169307
20
352.60440604758816
10
344.4984853482628
20
356.95542308304914
10
338.6077989023763
20
362.53789523862275
10
333.15490835585143
20
369.13729124005675
10
328.349365234375
20
376.5
10
324.37584386512566
20
384.3430767498625
10
321.38704444594725
20
392.3651164485951
10
319.4978248623807
20
400.25783660938725
10
318.780786763536
20
407.7179244227481
10
319.2634855214322
20
414.4586928976758
10
320.92737129350377
20
420.22109808194523
10
323.70850188264797
20
424.78369397591905
10
327.5
20
427.971142578125
10
332.15616049920663
20
429.6609520263222
10
337.49804974348837
20
429.78818389107244
10
343.3203819249533
20
428.34794872316587
10
349.3994080830693
20
425.39559395241184
10
355.5015146517372
20
421.04457691695086
10
361.3922010976237
20
415.46210476137725
10
366.84509164414857
20
408.86270875994325
10
371.650634765625
20
401.5
10
375.62415613487434
20
393.6569232501375
10
378.61295555405275
20
385.6348835514049
10
380.5021751376193
20
377.74216339061275
10
381.219213236464
20
370.2820755772519
10
380.7365144785678
20
363.5413071023242
10
379.0726287064963
20
357.77890191805477
10
376.2914981173521
20
353.21630602408106
97
0
75
1
76
1
47
1
98
0
0
LWPOLYLINE
5
36
330
C
100
AcDbEntity
420
10233776
8
0
100
AcDbPolyline
90
33
70
0
43
0
38
0
39
0
10
372.5
20
350.028857421875
10
367.84383950079337
20
348.3390479736778
10
362.50195025651163
20
348.21181610892756
10
356.6796180750467
20
349.65205127683413
10
350.6005919169307
20
352.60440604758816
10
344.4984853482628
20
356.95542308304914
10
338.6077989023763
20
362.53789523862275
10
333.15490835585143
20
369.13729124005675
10
328.349365234375
20
376.5
10
324.37584386512566
20
384.3430767498625
10
321.38704444594725
20
392.3651164485951
10
319.4978248623807
20
400.25783660938725
10
318.780786763536
20
407.7179244227481
10
319.2634855214322
20
414.4586928976758
10
320.92737129350377
20
420.22109808194523
10
323.70850188264797
20
424.78369397591905
10
327.5
20
427.971142578125
10
332.15616049920663
20
429.6609520263222
10
337.49804974348837
20
429.78818389107244
10
343.3203819249533
20
428.34794872316587
10
349.3994080830693
20
425.39559395241184
10
355.5015146517372
20
421.04457691695086
10
361.3922010976237
20
415.46210476137725
10
366.84509164414857
20
408.86270875994325
10
371.650634765625
20
401.5
10
375.62415613487434
20
393.6569232501375
10
378.61295555405275
20
385.6348835514049
10
380.5021751376193
20
377.74216339061275
10
381.219213236464
20
370.2820755772519
10
380.7365144785678
20
363.5413071023242
10
379.0726287064963
20
357.77890191805477
10
376.2914981173521
20
353.21630602408106
10
372.5
20
350.028857421875
0
TEXT
5
37
330
C
100
AcDbEntity
420
8947848
8
0
100
AcDbText
10
310.8666687011719
20
323.75
30
0
40
11
1
Ellipse at 60deg
7
Arial
100
AcDbText
0
TEXT
5
38
330
C
100
AcDbEntity
420
5592405
8
0
100
AcDbText
10
0
20
276
30
0
40
14
1
Combined transforms (scale + rotate)
7
Arial
100
AcDbText
0
LWPOLYLINE
5
39
330
C
100
AcDbEntity
420
16007990
8
0
100
AcDbPolyline
90
5
70
0
43
0
38
0
39
0
10
16.256927490234375
20
292.48468017578125
10
132.16802978515625
20
261.4263916015625
10
101.10974502563477
20
145.51531982421875
10
-14.80135726928711
20
176.5736083984375
10
16.256927490234375
20
292.48468017578125
0
LWPOLYLINE
5
3A
330
C
100
AcDbEntity
420
16777215
8
0
100
AcDbPolyline
90
5
70
0
43
0
38
0
39
0
10
37.47013187408447
20
255.74234008789062
10
95.42568302154541
20
240.21319580078125
10
79.89654064178467
20
182.25765991210938
10
21.94098949432373
20
197.78680419921875
10
37.47013187408447
20
255.74234008789062
0
TEXT
5
3B
330
C
100
AcDbEntity
420
8947848
8
0
100
AcDbText
10
0
20
163.75
30
0
40
11
1
scale(1.5) rotate(15deg)
7
Arial
100
AcDbText
0
LWPOLYLINE
5
3C
330
C
100
AcDbEntity
420
38536
8
0
100
AcDbPolyline
90
5
70
0
43
0
38
0
39
0
10
189.43907165527344
20
270.26849365234375
10
271.9460144042969
20
242.90689086914062
10
264.72760009765625
20
167.73147583007812
10
182.2206573486328
20
195.09307861328125
10
189.43907165527344
20
270.26849365234375
0
HATCH
5
3D
330
C
100
AcDbEntity
420
11722715
8
0
100
AcDbHatch
10
0
20
0
30
0
210
0
220
0
230
1
2
SOLID
70
1
71
0
91
1
92
7
72
0
73
1
93
32
10
252.86675548553467
20
210.44948387145996
10
251.93125844139792
20
206.03065562068832
10
250.04086966796638
20
202.1102314147347
10
247.2682357456606
20
198.83887095723492
10
243.719907441204
20
196.34229079597026
10
239.53224502141114
20
194.71643310644026
10
234.8661780046068
20
194.02377868786175
10
229.9010207294861
20
194.2909458610958
10
224.82758140563965
20
195.5076675415039
10
219.8408294610653
20
197.62718579725356
10
215.1324029763904
20
200.56804873041574
10
210.88324414090502
20
204.21724062772398
10
207.256645745701
20
208.4345250910551
10
204.39197593328635
20
213.05783424356378
10
202.39932235802678
20
217.90949690730042
10
201.35526157932654
20
222.8030664069418
10
201.29991626739502
20
227.5504856109619
10
202.23541331153174
20
231.96931386173355
10
204.12580208496337
20
235.88973806768712
10
206.89843600726908
20
239.16109852518701
10
210.44676431172573
20
241.65767868645156
10
214.63442673151846
20
243.2835363759816
10
219.30049374832288
20
243.97619079456013
10
224.26565102344358
20
243.70902362132614
10
229.33909034729004
20
242.49230194091797
10
234.32584229186438
20
240.37278368516837
10
239.0342687765393
20
237.43192075200614
10
243.2834276120247
20
233.7827288546979
10
246.91002600722868
20
229.56544439136673
10
249.77469581964328
20
224.94213523885816
10
251.7673493949029
20
220.09047257512145
10
252.81141017360318
20
215.19690307548
97
0
75
1
76
1
47
1
98
0
0
LWPOLYLINE
5
3E
330
C
100
AcDbEntity
420
11722715
8
0
100
AcDbPolyline
90
33
70
0
43
0
38
0
39
0
10
252.86675548553467
20
210.44948387145996
10
251.93125844139792
20
206.03065562068832
10
250.04086966796638
20
202.1102314147347
10
247.2682357456606
20
198.83887095723492
10
243.719907441204
20
196.34229079597026
10
239.53224502141114
20
194.71643310644026
10
234.8661780046068
20
194.02377868786175
10
229.9010207294861
20
194.2909458610958
10
224.82758140563965
20
195.5076675415039
10
219.8408294610653
20
197.62718579725356
10
215.1324029763904
20
200.56804873041574
10
210.88324414090502
20
204.21724062772398
10
207.256645745701
20
208.4345250910551
10
204.39197593328635
20
213.05783424356378
10
202.39932235802678
20
217.90949690730042
10
201.35526157932654
20
222.8030664069418
10
201.29991626739502
20
227.5504856109619
10
202.23541331153174
20
231.96931386173355
10
204.12580208496337
20
235.88973806768712
10
206.89843600726908
20
239.16109852518701
10
210.44676431172573
20
241.65767868645156
10
214.63442673151846
20
243.2835363759816
10
219.30049374832288
20
243.97619079456013
10
224.26565102344358
20
243.70902362132614
10
229.33909034729004
20
242.49230194091797
10
234.32584229186438
20
240.37278368516837
10
239.0342687765393
20
237.43192075200614
10
243.2834276120247
20
233.7827288546979
10
246.91002600722868
20
229.56544439136673
10
249.77469581964328
20
224.94213523885816
10
251.7673493949029
20
220.09047257512145
10
252.81141017360318
20
215.19690307548
10
252.86675548553467
20
210.44948387145996
0
TEXT
5
3F
330
C
100
AcDbEntity
420
8947848
8
0
100
AcDbText
10
157.38333129882812
20
163.75
30
0
40
11
1
skewX(15deg) rotate(20deg)
7
Arial
100
AcDbText
0
TEXT
5
40
330
C
100
AcDbEntity
420
5592405
8
0
100
AcDbText
10
0
20
116
30
0
40
14
1
Raster background-image with rotation (for comparison)
7
Arial
100
AcDbText
0
IMAGE
5
42
330
C
100
AcDbEntity
8
0
100
AcDbRasterImage
90
0
10
40
20
115.56854248046875
30
0
11
0.7071067810058594
21
0.7071067810058593
31
0
12
-0.7071067810058593
22
0.7071067810058594
32
0
13
80
23
80
340
41
70
3
280
1
281
50
282
50
283
0
360
43
71
1
91
2
14
-0.5
24
-0.5
14
79.5
24
79.5
290
1
0
TEXT
5
45
330
C
100
AcDbEntity
420
8947848
8
0
100
AcDbText
10
0.8666648864746094
20
3.75
30
0
40
11
1
Raster at 45deg
7
Arial
100
AcDbText
0
ENDSEC
0
SECTION
2
OBJECTS
0
DICTIONARY
5
A
330
0
100
AcDbDictionary
281
1
3
ACAD_GROUP
350
B
3
ACAD_IMAGE_DICT
350
44
0
DICTIONARY
5
B
330
A
100
AcDbDictionary
281
0
0
IMAGEDEF
5
41
330
44
102
{ACAD_REACTORS
330
44
330
43
102
}
100
AcDbRasterImageDef
1
images/image1.png
10
80
20
80
11
1
21
1
280
1
281
0
0
IMAGEDEF_REACTOR
5
43
330
0
100
AcDbRasterImageDefReactor
90
2
330
42
0
DICTIONARY
5
44
330
A
100
AcDbDictionary
281
0
3
image1
350
41
0
ENDSEC
0
EOF