0
SECTION
2
HEADER
9
$ACADVER
1
AC1021
9
$LASTSAVEDBY
1
@tarikjabiri/dxf
9
$HANDSEED
5
45
9
$INSUNITS
70
0
9
$CLAYER
8
0
9
$VIEWCTR
10
222.5
20
332.5
0
ENDSEC
0
SECTION
2
CLASSES
0
ENDSEC
0
SECTION
2
TABLES
0
TABLE
2
VPORT
5
1
330
0
100
AcDbSymbolTable
70
1
0
VPORT
5
19
330
1
100
AcDbSymbolTableRecord
100
AcDbViewportTableRecord
2
*Active
70
0
10
0
20
0
11
1
21
1
12
222.5
22
332.5
13
0
23
0
14
10
24
10
15
10
25
10
16
0
26
0
36
1
17
0
27
0
37
0
40
865
41
2
42
50
43
0
44
0
50
0
51
0
71
0
72
100
73
1
74
3
75
0
76
1
77
0
78
0
281
0
65
1
110
0
120
0
130
0
111
1
121
0
131
0
112
0
122
1
132
0
79
0
146
0
348
10020
60
7
61
5
292
1
282
1
141
0
142
0
63
250
421
3358443
0
ENDTAB
0
TABLE
2
LTYPE
5
2
330
0
100
AcDbSymbolTable
70
3
0
LTYPE
5
12
330
2
100
AcDbSymbolTableRecord
100
AcDbLinetypeTableRecord
2
ByBlock
70
0
3

72
65
73
0
40
0
0
LTYPE
5
13
330
2
100
AcDbSymbolTableRecord
100
AcDbLinetypeTableRecord
2
ByLayer
70
0
3

72
65
73
0
40
0
0
LTYPE
5
14
330
2
100
AcDbSymbolTableRecord
100
AcDbLinetypeTableRecord
2
Continuous
70
0
3
Solid line
72
65
73
0
40
0
0
ENDTAB
0
TABLE
2
LAYER
5
3
330
0
100
AcDbSymbolTable
70
1
0
LAYER
5
15
330
3
100
AcDbSymbolTableRecord
100
AcDbLayerTableRecord
2
0
70
0
62
7
6
Continuous
370
0
390
0
0
ENDTAB
0
TABLE
2
STYLE
5
4
330
0
100
AcDbSymbolTable
70
2
0
STYLE
5
16
330
4
100
AcDbSymbolTableRecord
100
AcDbTextStyleTableRecord
2
Standard
70
0
40
0
41
1
50
0
71
0
42
1
3
txt
4

0
STYLE
5
1B
330
4
100
AcDbSymbolTableRecord
100
AcDbTextStyleTableRecord
2
Arial
70
0
40
0
41
1
50
0
71
0
42
1
3
Arial.ttf
4

0
ENDTAB
0
TABLE
2
VIEW
5
5
330
0
100
AcDbSymbolTable
70
0
0
ENDTAB
0
TABLE
2
UCS
5
6
330
0
100
AcDbSymbolTable
70
0
0
ENDTAB
0
TABLE
2
APPID
5
7
330
0
100
AcDbSymbolTable
70
1
0
APPID
5
17
330
7
100
AcDbSymbolTableRecord
100
AcDbRegAppTableRecord
2
ACAD
70
0
0
ENDTAB
0
TABLE
2
DIMSTYLE
5
8
330
0
100
AcDbSymbolTable
70
1
100
AcDbDimStyleTable
0
DIMSTYLE
105
18
330
8
100
AcDbSymbolTableRecord
100
AcDbDimStyleTableRecord
2
Standard
70
0
340
16
0
ENDTAB
0
TABLE
2
BLOCK_RECORD
5
9
330
0
100
AcDbSymbolTable
70
2
0
BLOCK_RECORD
5
C
330
9
100
AcDbSymbolTableRecord
100
AcDbBlockTableRecord
2
*Model_Space
70
0
280
1
281
0
0
BLOCK_RECORD
5
F
330
9
100
AcDbSymbolTableRecord
100
AcDbBlockTableRecord
2
*Paper_Space
70
0
280
1
281
0
0
ENDTAB
0
ENDSEC
0
SECTION
2
BLOCKS
0
BLOCK
5
D
330
C
100
AcDbEntity
8
0
100
AcDbBlockBegin
2
*Model_Space
70
0
10
0
20
0
30
0
3
*Model_Space
1

0
ENDBLK
5
E
100
AcDbEntity
8
0
100
AcDbBlockEnd
0
BLOCK
5
10
330
F
100
AcDbEntity
8
0
100
AcDbBlockBegin
2
*Paper_Space
70
0
10
0
20
0
30
0
3
*Paper_Space
1

0
ENDBLK
5
11
100
AcDbEntity
8
0
100
AcDbBlockEnd
0
ENDSEC
0
SECTION
2
ENTITIES
0
TEXT
5
1A
330
C
100
AcDbEntity
420
0
8
0
100
AcDbText
10
0
20
665
30
0
40
20
1
Background Image + CSS Transform Demo
7
Arial
100
AcDbText
0
TEXT
5
1C
330
C
100
AcDbEntity
420
5592405
8
0
100
AcDbText
10
0
20
624
30
0
40
16
1
SVG background-image with CSS rotation
7
Arial
100
AcDbText
0
LWPOLYLINE
5
1D
330
C
100
AcDbEntity
420
5025616
8
0
100
AcDbPolyline
90
5
70
0
43
0
38
0
39
0
10
5
20
612
10
105
20
612
10
105
20
512
10
5
20
512
10
5
20
612
0
HATCH
5
1E
330
C
100
AcDbEntity
420
16777215
8
0
100
AcDbHatch
10
0
20
0
30
0
210
0
220
0
230
1
2
SOLID
70
1
71
0
91
1
92
7
72
0
73
1
93
32
10
85
20
562
10
84.42355841209691
20
556.1472903395162
10
82.7163859753386
20
550.5194970290473
10
79.94408836907635
20
545.3328930094119
10
76.21320343559643
20
540.7867965644036
10
71.66710699058807
20
537.0559116309237
10
66.4805029709527
20
534.2836140246613
10
60.85270966048385
20
532.5764415879031
10
55
20
532
10
49.14729033951616
20
532.5764415879031
10
43.5194970290473
20
534.2836140246613
10
38.33289300941195
20
537.0559116309237
10
33.78679656440357
20
540.7867965644036
10
30.055911630923646
20
545.3328930094119
10
27.283614024661404
20
550.5194970290473
10
25.57644158790309
20
556.1472903395161
10
25
20
562
10
25.57644158790309
20
567.8527096604839
10
27.28361402466139
20
573.4805029709527
10
30.05591163092363
20
578.6671069905881
10
33.78679656440357
20
583.2132034355964
10
38.33289300941193
20
586.9440883690763
10
43.51949702904729
20
589.7163859753387
10
49.14729033951613
20
591.4235584120969
10
55
20
592
10
60.85270966048384
20
591.4235584120969
10
66.4805029709527
20
589.7163859753387
10
71.66710699058805
20
586.9440883690763
10
76.21320343559643
20
583.2132034355964
10
79.94408836907635
20
578.6671069905881
10
82.7163859753386
20
573.4805029709528
10
84.42355841209691
20
567.8527096604839
97
0
75
1
76
1
47
1
98
0
0
LWPOLYLINE
5
1F
330
C
100
AcDbEntity
420
16777215
8
0
100
AcDbPolyline
90
33
70
0
43
0
38
0
39
0
10
85
20
562
10
84.42355841209691
20
556.1472903395162
10
82.7163859753386
20
550.5194970290473
10
79.94408836907635
20
545.3328930094119
10
76.21320343559643
20
540.7867965644036
10
71.66710699058807
20
537.0559116309237
10
66.4805029709527
20
534.2836140246613
10
60.85270966048385
20
532.5764415879031
10
55
20
532
10
49.14729033951616
20
532.5764415879031
10
43.5194970290473
20
534.2836140246613
10
38.33289300941195
20
537.0559116309237
10
33.78679656440357
20
540.7867965644036
10
30.055911630923646
20
545.3328930094119
10
27.283614024661404
20
550.5194970290473
10
25.57644158790309
20
556.1472903395161
10
25
20
562
10
25.57644158790309
20
567.8527096604839
10
27.28361402466139
20
573.4805029709527
10
30.05591163092363
20
578.6671069905881
10
33.78679656440357
20
583.2132034355964
10
38.33289300941193
20
586.9440883690763
10
43.51949702904729
20
589.7163859753387
10
49.14729033951613
20
591.4235584120969
10
55
20
592
10
60.85270966048384
20
591.4235584120969
10
66.4805029709527
20
589.7163859753387
10
71.66710699058805
20
586.9440883690763
10
76.21320343559643
20
583.2132034355964
10
79.94408836907635
20
578.6671069905881
10
82.7163859753386
20
573.4805029709528
10
84.42355841209691
20
567.8527096604839
10
85
20
562
0
TEXT
5
20
330
C
100
AcDbEntity
420
8947848
8
0
100
AcDbText
10
0
20
494
30
0
40
12
1
No rotation (reference)
7
Arial
100
AcDbText
0
LWPOLYLINE
5
21
330
C
100
AcDbEntity
420
5025616
8
0
100
AcDbPolyline
90
5
70
0
43
0
38
0
39
0
10
201
20
632.7107
10
271.7107
20
562
10
200.99999999999997
20
491.2893
10
130.2893
20
562
10
201
20
632.7107
0
HATCH
5
22
330
C
100
AcDbEntity
420
16777215
8
0
100
AcDbHatch
10
0
20
0
30
0
210
0
220
0
230
1
2
SOLID
70
1
71
0
91
1
92
7
72
0
73
1
93
32
10
222.21321
20
540.78679
10
217.66711214820685
20
537.0559039120017
10
212.4805065235823
20
534.2836054478548
10
206.8527114715987
20
532.5764324828137
10
200.99999999999997
20
531.9999907165314
10
195.14728852840125
20
532.5764324828137
10
189.51949347641772
20
534.2836054478548
10
184.33288785179315
20
537.0559039120017
10
179.78679
20
540.78679
10
176.0559039120016
20
545.3328878517932
10
173.28360544785482
20
550.5194934764177
10
171.57643248281377
20
556.1472885284013
10
170.9999907165314
20
562
10
171.57643248281374
20
567.8527114715987
10
173.28360544785477
20
573.4805065235823
10
176.05590391200164
20
578.6671121482068
10
179.78678999999997
20
583.21321
10
184.33288785179315
20
586.9440960879983
10
189.51949347641767
20
589.7163945521452
10
195.14728852840125
20
591.4235675171863
10
201
20
592.0000092834686
10
206.85271147159875
20
591.4235675171863
10
212.48050652358225
20
589.7163945521452
10
217.66711214820685
20
586.9440960879983
10
222.21321
20
583.21321
10
225.9440960879984
20
578.6671121482068
10
228.71639455214523
20
573.4805065235823
10
230.4235675171862
20
567.8527114715987
10
231.00000928346856
20
562
10
230.4235675171862
20
556.1472885284013
10
228.71639455214518
20
550.5194934764177
10
225.9440960879984
20
545.3328878517932
97
0
75
1
76
1
47
1
98
0
0
LWPOLYLINE
5
23
330
C
100
AcDbEntity
420
16777215
8
0
100
AcDbPolyline
90
33
70
0
43
0
38
0
39
0
10
222.21321
20
540.78679
10
217.66711214820685
20
537.0559039120017
10
212.4805065235823
20
534.2836054478548
10
206.8527114715987
20
532.5764324828137
10
200.99999999999997
20
531.9999907165314
10
195.14728852840125
20
532.5764324828137
10
189.51949347641772
20
534.2836054478548
10
184.33288785179315
20
537.0559039120017
10
179.78679
20
540.78679
10
176.0559039120016
20
545.3328878517932
10
173.28360544785482
20
550.5194934764177
10
171.57643248281377
20
556.1472885284013
10
170.9999907165314
20
562
10
171.57643248281374
20
567.8527114715987
10
173.28360544785477
20
573.4805065235823
10
176.05590391200164
20
578.6671121482068
10
179.78678999999997
20
583.21321
10
184.33288785179315
20
586.9440960879983
10
189.51949347641767
20
589.7163945521452
10
195.14728852840125
20
591.4235675171863
10
201
20
592.0000092834686
10
206.85271147159875
20
591.4235675171863
10
212.48050652358225
20
589.7163945521452
10
217.66711214820685
20
586.9440960879983
10
222.21321
20
583.21321
10
225.9440960879984
20
578.6671121482068
10
228.71639455214523
20
573.4805065235823
10
230.4235675171862
20
567.8527114715987
10
231.00000928346856
20
562
10
230.4235675171862
20
556.1472885284013
10
228.71639455214518
20
550.5194934764177
10
225.9440960879984
20
545.3328878517932
10
222.21321
20
540.78679
0
TEXT
5
24
330
C
100
AcDbEntity
420
8947848
8
0
100
AcDbText
10
168
20
494
30
0
40
12
1
rotate(45deg)
7
Arial
100
AcDbText
0
LWPOLYLINE
5
25
330
C
100
AcDbEntity
420
5025616
8
0
100
AcDbPolyline
90
5
70
0
43
0
38
0
39
0
10
391
20
612
10
391
20
512
10
291
20
512
10
291
20
612
10
391
20
612
0
HATCH
5
26
330
C
100
AcDbEntity
420
16777215
8
0
100
AcDbHatch
10
0
20
0
30
0
210
0
220
0
230
1
2
SOLID
70
1
71
0
91
1
92
7
72
0
73
1
93
32
10
341
20
532
10
335.14729033951613
20
532.5764415879031
10
329.51949702904733
20
534.2836140246613
10
324.3328930094119
20
537.0559116309237
10
319.7867965644036
20
540.7867965644036
10
316.0559116309237
20
545.3328930094119
10
313.2836140246614
20
550.5194970290473
10
311.5764415879031
20
556.1472903395161
10
311
20
562
10
311.5764415879031
20
567.8527096604838
10
313.2836140246614
20
573.4805029709527
10
316.0559116309236
20
578.6671069905881
10
319.7867965644036
20
583.2132034355964
10
324.3328930094119
20
586.9440883690763
10
329.51949702904733
20
589.7163859753387
10
335.14729033951613
20
591.4235584120969
10
341
20
592
10
346.85270966048387
20
591.4235584120969
10
352.48050297095267
20
589.7163859753387
10
357.6671069905881
20
586.9440883690763
10
362.2132034355964
20
583.2132034355964
10
365.9440883690763
20
578.6671069905881
10
368.7163859753386
20
573.4805029709528
10
370.4235584120969
20
567.8527096604839
10
371
20
562
10
370.4235584120969
20
556.1472903395162
10
368.7163859753386
20
550.5194970290473
10
365.9440883690764
20
545.3328930094119
10
362.2132034355964
20
540.7867965644036
10
357.6671069905881
20
537.0559116309237
10
352.4805029709527
20
534.2836140246613
10
346.85270966048387
20
532.5764415879031
97
0
75
1
76
1
47
1
98
0
0
LWPOLYLINE
5
27
330
C
100
AcDbEntity
420
16777215
8
0
100
AcDbPolyline
90
33
70
0
43
0
38
0
39
0
10
341
20
532
10
335.14729033951613
20
532.5764415879031
10
329.51949702904733
20
534.2836140246613
10
324.3328930094119
20
537.0559116309237
10
319.7867965644036
20
540.7867965644036
10
316.0559116309237
20
545.3328930094119
10
313.2836140246614
20
550.5194970290473
10
311.5764415879031
20
556.1472903395161
10
311
20
562
10
311.5764415879031
20
567.8527096604838
10
313.2836140246614
20
573.4805029709527
10
316.0559116309236
20
578.6671069905881
10
319.7867965644036
20
583.2132034355964
10
324.3328930094119
20
586.9440883690763
10
329.51949702904733
20
589.7163859753387
10
335.14729033951613
20
591.4235584120969
10
341
20
592
10
346.85270966048387
20
591.4235584120969
10
352.48050297095267
20
589.7163859753387
10
357.6671069905881
20
586.9440883690763
10
362.2132034355964
20
583.2132034355964
10
365.9440883690763
20
578.6671069905881
10
368.7163859753386
20
573.4805029709528
10
370.4235584120969
20
567.8527096604839
10
371
20
562
10
370.4235584120969
20
556.1472903395162
10
368.7163859753386
20
550.5194970290473
10
365.9440883690764
20
545.3328930094119
10
362.2132034355964
20
540.7867965644036
10
357.6671069905881
20
537.0559116309237
10
352.4805029709527
20
534.2836140246613
10
346.85270966048387
20
532.5764415879031
10
341
20
532
0
TEXT
5
28
330
C
100
AcDbEntity
420
8947848
8
0
100
AcDbText
10
308
20
494
30
0
40
12
1
rotate(90deg)
7
Arial
100
AcDbText
0
LWPOLYLINE
5
29
330
C
100
AcDbEntity
420
5025616
8
0
100
AcDbPolyline
90
5
70
0
43
0
38
0
39
0
10
531
20
512
10
431
20
512
10
431
20
612
10
531
20
612
10
531
20
512
0
HATCH
5
2A
330
C
100
AcDbEntity
420
16777215
8
0
100
AcDbHatch
10
0
20
0
30
0
210
0
220
0
230
1
2
SOLID
70
1
71
0
91
1
92
7
72
0
73
1
93
32
10
451
20
562
10
451.5764415879031
20
567.8527096604838
10
453.2836140246614
20
573.4805029709527
10
456.0559116309237
20
578.6671069905881
10
459.7867965644036
20
583.2132034355964
10
464.3328930094119
20
586.9440883690763
10
469.51949702904733
20
589.7163859753387
10
475.1472903395162
20
591.4235584120969
10
481
20
592
10
486.8527096604838
20
591.4235584120969
10
492.48050297095267
20
589.7163859753387
10
497.6671069905881
20
586.9440883690763
10
502.21320343559637
20
583.2132034355964
10
505.9440883690763
20
578.6671069905881
10
508.71638597533865
20
573.4805029709527
10
510.4235584120969
20
567.8527096604839
10
511
20
562
10
510.4235584120969
20
556.1472903395161
10
508.71638597533865
20
550.5194970290473
10
505.9440883690763
20
545.3328930094119
10
502.21320343559637
20
540.7867965644036
10
497.6671069905881
20
537.0559116309237
10
492.48050297095267
20
534.2836140246613
10
486.8527096604838
20
532.5764415879031
10
481
20
532
10
475.1472903395162
20
532.5764415879031
10
469.51949702904733
20
534.2836140246613
10
464.3328930094119
20
537.0559116309237
10
459.7867965644036
20
540.7867965644036
10
456.0559116309237
20
545.3328930094119
10
453.2836140246614
20
550.5194970290472
10
451.5764415879031
20
556.1472903395161
97
0
75
1
76
1
47
1
98
0
0
LWPOLYLINE
5
2B
330
C
100
AcDbEntity
420
16777215
8
0
100
AcDbPolyline
90
33
70
0
43
0
38
0
39
0
10
451
20
562
10
451.5764415879031
20
567.8527096604838
10
453.2836140246614
20
573.4805029709527
10
456.0559116309237
20
578.6671069905881
10
459.7867965644036
20
583.2132034355964
10
464.3328930094119
20
586.9440883690763
10
469.51949702904733
20
589.7163859753387
10
475.1472903395162
20
591.4235584120969
10
481
20
592
10
486.8527096604838
20
591.4235584120969
10
492.48050297095267
20
589.7163859753387
10
497.6671069905881
20
586.9440883690763
10
502.21320343559637
20
583.2132034355964
10
505.9440883690763
20
578.6671069905881
10
508.71638597533865
20
573.4805029709527
10
510.4235584120969
20
567.8527096604839
10
511
20
562
10
510.4235584120969
20
556.1472903395161
10
508.71638597533865
20
550.5194970290473
10
505.9440883690763
20
545.3328930094119
10
502.21320343559637
20
540.7867965644036
10
497.6671069905881
20
537.0559116309237
10
492.48050297095267
20
534.2836140246613
10
486.8527096604838
20
532.5764415879031
10
481
20
532
10
475.1472903395162
20
532.5764415879031
10
469.51949702904733
20
534.2836140246613
10
464.3328930094119
20
537.0559116309237
10
459.7867965644036
20
540.7867965644036
10
456.0559116309237
20
545.3328930094119
10
453.2836140246614
20
550.5194970290472
10
451.5764415879031
20
556.1472903395161
10
451
20
562
0
TEXT
5
2C
330
C
100
AcDbEntity
420
8947848
8
0
100
AcDbText
10
445
20
494
30
0
40
12
1
rotate(180deg)
7
Arial
100
AcDbText
0
TEXT
5
2D
330
C
100
AcDbEntity
420
5592405
8
0
100
AcDbText
10
0
20
446
30
0
40
16
1
Various SVG shapes rotated
7
Arial
100
AcDbText
0
LWPOLYLINE
5
2E
330
C
100
AcDbEntity
420
2201331
8
0
100
AcDbPolyline
90
5
70
0
43
0
38
0
39
0
10
28.0385
20
448.641
10
131.9615
20
388.641
10
91.9615
20
319.35900000000004
10
-11.961500000000001
20
379.35900000000004
10
28.0385
20
448.641
0
TEXT
5
2F
330
C
100
AcDbEntity
420
0
8
0
100
AcDbText
10
40.208575390625
20
386.18898750000005
30
0
40
16.99999405531145
1
Hello
50
-30.000011567576145
7
Arial
100
AcDbText
0
TEXT
5
30
330
C
100
AcDbEntity
420
8947848
8
0
100
AcDbText
10
14
20
326
30
0
40
12
1
Rect+text at 30deg
7
Arial
100
AcDbText
0
HATCH
5
31
330
C
100
AcDbEntity
420
16750592
8
0
100
AcDbHatch
10
0
20
0
30
0
210
0
220
0
230
1
2
SOLID
70
1
71
0
91
1
92
7
72
0
73
1
93
5
10
178.18018500000002
20
415.819815
10
234.74874499999999
20
422.890885
10
263.033025
20
373.393395
10
220.606605
20
330.966975
10
171.109115
20
359.251255
97
0
75
1
76
1
47
1
98
0
0
LWPOLYLINE
5
32
330
C
100
AcDbEntity
420
15094016
8
0
100
AcDbPolyline
90
6
70
0
43
0
38
0
39
0
10
178.18018500000002
20
415.819815
10
234.74874499999999
20
422.890885
10
263.033025
20
373.393395
10
220.606605
20
330.966975
10
171.109115
20
359.251255
10
178.18018500000002
20
415.819815
0
TEXT
5
33
330
C
100
AcDbEntity
420
8947848
8
0
100
AcDbText
10
162
20
316
30
0
40
12
1
Pentagon at -45deg
7
Arial
100
AcDbText
0
HATCH
5
34
330
C
100
AcDbEntity
420
10233776
8
0
100
AcDbHatch
10
0
20
0
30
0
210
0
220
0
230
1
2
SOLID
70
1
71
0
91
1
92
7
72
0
73
1
93
32
10
372.5
20
345.02887499999997
10
367.8438414059722
20
343.339065214044
10
362.50195399365447
20
343.21183234899746
10
356.6796235005372
20
344.6520658925109
10
350.6005988222703
20
347.6044184771995
10
344.4984934680832
20
351.9554328489321
10
338.6078079246373
20
357.53790196547993
10
333.1549179338327
20
364.13729466937883
10
328.34937499999995
20
371.5
10
324.3758534431069
20
379.3430733205404
10
321.38705346820825
20
387.36510972173784
10
319.4978329822011
20
395.25782684350423
10
318.7807936688756
20
402.7179119931367
10
319.26349094692273
20
409.45867828199897
10
320.9273750306466
20
415.2210818418753
10
323.7085037878268
20
419.7836767355527
10
327.5
20
422.971125
10
332.1561585940277
20
424.66093478595593
10
337.4980460063455
20
424.7881676510025
10
343.3203764994627
20
423.34793410748904
10
349.39940117772966
20
420.39558152280046
10
355.50150653191673
20
416.04456715106784
10
361.39219207536263
20
410.46209803452
10
366.84508206616727
20
403.8627053306211
10
371.650625
20
396.5
10
375.62414655689304
20
388.65692667945956
10
378.6129465317917
20
380.6348902782621
10
380.50216701779885
20
372.7421731564957
10
381.2192063311243
20
365.28208800686326
10
380.73650905307727
20
358.541321718001
10
379.07262496935334
20
352.7789181581247
10
376.2914962121731
20
348.2163232644473
97
0
75
1
76
1
47
1
98
0
0
LWPOLYLINE
5
35
330
C
100
AcDbEntity
420
10233776
8
0
100
AcDbPolyline
90
33
70
0
43
0
38
0
39
0
10
372.5
20
345.02887499999997
10
367.8438414059722
20
343.339065214044
10
362.50195399365447
20
343.21183234899746
10
356.6796235005372
20
344.6520658925109
10
350.6005988222703
20
347.6044184771995
10
344.4984934680832
20
351.9554328489321
10
338.6078079246373
20
357.53790196547993
10
333.1549179338327
20
364.13729466937883
10
328.34937499999995
20
371.5
10
324.3758534431069
20
379.3430733205404
10
321.38705346820825
20
387.36510972173784
10
319.4978329822011
20
395.25782684350423
10
318.7807936688756
20
402.7179119931367
10
319.26349094692273
20
409.45867828199897
10
320.9273750306466
20
415.2210818418753
10
323.7085037878268
20
419.7836767355527
10
327.5
20
422.971125
10
332.1561585940277
20
424.66093478595593
10
337.4980460063455
20
424.7881676510025
10
343.3203764994627
20
423.34793410748904
10
349.39940117772966
20
420.39558152280046
10
355.50150653191673
20
416.04456715106784
10
361.39219207536263
20
410.46209803452
10
366.84508206616727
20
403.8627053306211
10
371.650625
20
396.5
10
375.62414655689304
20
388.65692667945956
10
378.6129465317917
20
380.6348902782621
10
380.50216701779885
20
372.7421731564957
10
381.2192063311243
20
365.28208800686326
10
380.73650905307727
20
358.541321718001
10
379.07262496935334
20
352.7789181581247
10
376.2914962121731
20
348.2163232644473
10
372.5
20
345.02887499999997
0
TEXT
5
36
330
C
100
AcDbEntity
420
8947848
8
0
100
AcDbText
10
311
20
316
30
0
40
12
1
Ellipse at 60deg
7
Arial
100
AcDbText
0
TEXT
5
37
330
C
100
AcDbEntity
420
5592405
8
0
100
AcDbText
10
0
20
268
30
0
40
16
1
Combined transforms (scale + rotate)
7
Arial
100
AcDbText
0
LWPOLYLINE
5
38
330
C
100
AcDbEntity
420
16007990
8
0
100
AcDbPolyline
90
5
70
0
43
0
38
0
39
0
10
16.573559999999993
20
289.48476
10
132.48476
20
258.42644
10
101.42643999999999
20
142.51524000000006
10
-14.484760000000005
20
173.57356000000004
10
16.573559999999993
20
289.48476
0
LWPOLYLINE
5
39
330
C
100
AcDbEntity
420
16777215
8
0
100
AcDbPolyline
90
5
70
0
43
0
38
0
39
0
10
37.78677999999999
20
252.74238000000003
10
95.74238
20
237.21321999999998
10
80.21321999999999
20
179.25761999999997
10
22.25761999999999
20
194.78678000000002
10
37.78677999999999
20
252.74238000000003
0
TEXT
5
3A
330
C
100
AcDbEntity
420
8947848
8
0
100
AcDbText
10
0
20
158
30
0
40
12
1
scale(1.5) rotate(15deg)
7
Arial
100
AcDbText
0
LWPOLYLINE
5
3B
330
C
100
AcDbEntity
420
38536
8
0
100
AcDbPolyline
90
5
70
0
43
0
38
0
39
0
10
189.355612
20
267.26851999999997
10
271.862812
20
239.90691999999996
10
264.64438800000005
20
164.73147999999992
10
182.137188
20
192.09308
10
189.355612
20
267.26851999999997
0
HATCH
5
3C
330
C
100
AcDbEntity
420
11722715
8
0
100
AcDbHatch
10
0
20
0
30
0
210
0
220
0
230
1
2
SOLID
70
1
71
0
91
1
92
7
72
0
73
1
93
32
10
252.7835
20
207.44949999999994
10
251.84800082021138
20
203.03067021075458
10
249.9576069038215
20
199.11024449202603
10
247.184965028892
20
195.83888260558479
10
243.63662626776096
20
193.34230115412618
10
239.4489512890874
20
191.7164423627305
10
234.7828700938265
20
191.02378707295907
10
229.81769756554365
20
191.29095363915224
10
224.74424250000004
20
192.50767500000006
10
219.75747493013796
20
194.62719323595013
10
215.0490335370559
20
197.56805644983444
10
210.79986108296552
20
201.21724891759868
10
207.17325088231425
20
205.4345342191973
10
204.30857153128662
20
210.0578444455707
10
202.31591105081196
20
214.90950837750154
10
201.271846265658
20
219.80307929093027
10
201.2165
20
224.5505
10
202.15199917978862
20
228.96932978924536
10
204.04239309617853
20
232.88975550797397
10
206.81503497110805
20
236.1611173944151
10
210.36337373223907
20
238.65769884587382
10
214.55104871091265
20
240.2835576372695
10
219.21712990617357
20
240.97621292704088
10
224.18230243445635
20
240.7090463608477
10
229.25575750000002
20
239.492325
10
234.24252506986204
20
237.37280676404987
10
238.95096646294417
20
234.43194355016544
10
243.2001389170345
20
230.78275108240126
10
246.82674911768578
20
226.56546578080264
10
249.6914284687134
20
221.94215555442923
10
251.6840889491881
20
217.09049162249846
10
252.72815373434196
20
212.19692070906967
97
0
75
1
76
1
47
1
98
0
0
LWPOLYLINE
5
3D
330
C
100
AcDbEntity
420
11722715
8
0
100
AcDbPolyline
90
33
70
0
43
0
38
0
39
0
10
252.7835
20
207.44949999999994
10
251.84800082021138
20
203.03067021075458
10
249.9576069038215
20
199.11024449202603
10
247.184965028892
20
195.83888260558479
10
243.63662626776096
20
193.34230115412618
10
239.4489512890874
20
191.7164423627305
10
234.7828700938265
20
191.02378707295907
10
229.81769756554365
20
191.29095363915224
10
224.74424250000004
20
192.50767500000006
10
219.75747493013796
20
194.62719323595013
10
215.0490335370559
20
197.56805644983444
10
210.79986108296552
20
201.21724891759868
10
207.17325088231425
20
205.4345342191973
10
204.30857153128662
20
210.0578444455707
10
202.31591105081196
20
214.90950837750154
10
201.271846265658
20
219.80307929093027
10
201.2165
20
224.5505
10
202.15199917978862
20
228.96932978924536
10
204.04239309617853
20
232.88975550797397
10
206.81503497110805
20
236.1611173944151
10
210.36337373223907
20
238.65769884587382
10
214.55104871091265
20
240.2835576372695
10
219.21712990617357
20
240.97621292704088
10
224.18230243445635
20
240.7090463608477
10
229.25575750000002
20
239.492325
10
234.24252506986204
20
237.37280676404987
10
238.95096646294417
20
234.43194355016544
10
243.2001389170345
20
230.78275108240126
10
246.82674911768578
20
226.56546578080264
10
249.6914284687134
20
221.94215555442923
10
251.6840889491881
20
217.09049162249846
10
252.72815373434196
20
212.19692070906967
10
252.7835
20
207.44949999999994
0
TEXT
5
3E
330
C
100
AcDbEntity
420
8947848
8
0
100
AcDbText
10
157
20
158
30
0
40
12
1
skewX(15deg) rotate(20deg)
7
Arial
100
AcDbText
0
TEXT
5
3F
330
C
100
AcDbEntity
420
5592405
8
0
100
AcDbText
10
0
20
110
30
0
40
16
1
Raster background-image with rotation (for comparison)
7
Arial
100
AcDbText
0
IMAGE
5
41
330
C
100
AcDbEntity
8
0
100
AcDbRasterImage
90
0
10
40
20
114.56856000000005
30
0
11
0.7071069999999999
21
0.7071070000000005
31
0
12
-0.7071070000000005
22
0.7071069999999999
32
0
13
80
23
80
340
40
70
3
280
1
281
50
282
50
283
0
360
42
71
1
91
2
14
-0.5
24
-0.5
14
79.5
24
79.5
290
1
0
TEXT
5
44
330
C
100
AcDbEntity
420
8947848
8
0
100
AcDbText
10
1
20
0
30
0
40
12
1
Raster at 45deg
7
Arial
100
AcDbText
0
ENDSEC
0
SECTION
2
OBJECTS
0
DICTIONARY
5
A
330
0
100
AcDbDictionary
281
1
3
ACAD_GROUP
350
B
3
ACAD_IMAGE_DICT
350
43
0
DICTIONARY
5
B
330
A
100
AcDbDictionary
281
0
0
IMAGEDEF
5
40
330
43
102
{ACAD_REACTORS
330
43
330
42
102
}
100
AcDbRasterImageDef
1
images/image1.png
10
80
20
80
11
1
21
1
280
1
281
0
0
IMAGEDEF_REACTOR
5
42
330
0
100
AcDbRasterImageDefReactor
90
2
330
41
0
DICTIONARY
5
43
330
A
100
AcDbDictionary
281
0
3
image1
350
40
0
ENDSEC
0
EOF