  0
SECTION
  2
HEADER
  9
$ANGBASE
 50
0.0
  9
$ANGDIR
 70
1
  9
$AUNITS
 70
0
  9
$AUPREC
 70
0
  9
$ATTMODE
 70
1
  9
$DWGCODEPAGE
  3
ANSI_1252
  9
$TDCREATE
 40
2461146.9540068982169032
  9
$CECOLOR
 62
256
  9
$CELTSCALE
 40
1.0
  9
$CELWEIGHT
370
-1
  9
$CLAYER
  8
0
  9
$CELTYPE
  6
ByLayer
  9
$CMLJUST
 70
0
  9
$CMLSCALE
 40
20.0
  9
$CMLSTYLE
  2
Standard
  9
$DIMSTYLE
  2
Standard
  9
$LWDISPLAY
290
0
  9
$EXTNAMES
290
1
  9
$HANDSEED
  5
55
  9
$INSUNITS
 70
0
  9
$LUNITS
 70
2
  9
$LUPREC
 70
4
  9
$LTSCALE
 40
1.0
  9
$MIRRTEXT
 70
0
  9
$INSBASE
 10
0.0
 20
0.0
 30
0.0
  9
$SPLINESEGS
 70
8
  9
$PSLTSCALE
 70
1
  9
$PDMODE
 70
0
  9
$PDSIZE
 40
0.0
  9
$PLINEGEN
 70
0
  9
$TEXTSIZE
 40
0.2
  9
$TEXTSTYLE
  7
Standard
  9
$TDINDWG
 40
0.0
  9
$TDUCREATE
 40
2461146.9540068982169032
  9
$TDUUPDATE
 40
2461146.9540068982169032
  9
$TDUPDATE
 40
2461146.9540068982169032
  9
$ACADVER
  1
AC1018
  0
ENDSEC
  0
SECTION
  2
CLASSES
  0
CLASS
  1
ACDBDICTIONARYWDFLT
  2
AcDbDictionaryWithDefault
  3
ObjectDBX Classes
 90
32768
 91
0
280
0
281
0
  0
CLASS
  1
ACDBPLACEHOLDER
  2
AcDbPlaceHolder
  3
ObjectDBX Classes
 90
0
 91
0
280
0
281
0
  0
CLASS
  1
LAYOUT
  2
AcDbLayout
  3
ObjectDBX Classes
 90
0
 91
0
280
0
281
0
  0
CLASS
  1
DICTIONARYVAR
  2
AcDbDictionaryVar
  3
ObjectDBX Classes
 90
0
 91
0
280
0
281
0
  0
CLASS
  1
TABLESTYLE
  2
AcDbTableStyle
  3
ObjectDBX Classes
 90
4095
 91
0
280
0
281
0
  0
CLASS
  1
MATERIAL
  2
AcDbMaterial
  3
ObjectDBX Classes
 90
1153
 91
0
280
0
281
0
  0
CLASS
  1
VISUALSTYLE
  2
AcDbVisualStyle
  3
ObjectDBX Classes
 90
4095
 91
0
280
0
281
0
  0
CLASS
  1
SCALE
  2
AcDbScale
  3
ObjectDBX Classes
 90
1153
 91
0
280
0
281
0
  0
CLASS
  1
MLEADERSTYLE
  2
AcDbMLeaderStyle
  3
ObjectDBX Classes
 90
4095
 91
0
280
0
281
0
  0
CLASS
  1
CELLSTYLEMAP
  2
AcDbCellStyleMap
  3
ObjectDBX Classes
 90
1152
 91
0
280
0
281
0
  0
CLASS
  1
EXACXREFPANELOBJECT
  2
ExAcXREFPanelObject
  3
ObjectDBX Classes
 90
1025
 91
0
280
0
281
0
  0
CLASS
  1
NPOCOLLECTION
  2
AcDbImpNonPersistentObjectsCollection
  3
ObjectDBX Classes
 90
1153
 91
0
280
0
281
0
  0
CLASS
  1
LAYER_INDEX
  2
AcDbLayerIndex
  3
ObjectDBX Classes
 90
0
 91
0
280
0
281
0
  0
CLASS
  1
SPATIAL_INDEX
  2
AcDbSpatialIndex
  3
ObjectDBX Classes
 90
0
 91
0
280
0
281
0
  0
CLASS
  1
IDBUFFER
  2
AcDbIdBuffer
  3
ObjectDBX Classes
 90
32768
 91
0
280
0
281
0
  0
CLASS
  1
ACDBSECTIONVIEWSTYLE
  2
AcDbSectionViewStyle
  3
ObjectDBX Classes
 90
1025
 91
0
280
0
281
0
  0
CLASS
  1
ACDBDETAILVIEWSTYLE
  2
AcDbDetailViewStyle
  3
ObjectDBX Classes
 90
1025
 91
0
280
0
281
0
  0
CLASS
  1
MESH
  2
AcDbSubDMesh
  3
ObjectDBX Classes
 90
0
 91
0
280
0
281
1
  0
CLASS
  1
SORTENTSTABLE
  2
AcDbSortentsTable
  3
ObjectDBX Classes
 90
0
 91
0
280
0
281
0
  0
CLASS
  1
ACDB_TEXTOBJECTCONTEXTDATA_CLASS
  2
AcDbTextObjectContextData
  3
ObjectDBX Classes
 90
1153
 91
0
280
0
281
0
  0
CLASS
  1
WIPEOUT
  2
AcDbWipeout
  3
WipeOut
 90
32895
 91
0
280
0
281
1
  0
CLASS
  1
WIPEOUTVARIABLES
  2
AcDbWipeoutVariables
  3
WipeOut
 90
32768
 91
0
280
0
281
0
  0
CLASS
  1
DIMASSOC
  2
AcDbDimAssoc
  3
AcDbDimAssoc
 90
0
 91
0
280
0
281
0
  0
CLASS
  1
ACAD_TABLE
  2
AcDbTable
  3
ObjectDBX Classes
 90
1025
 91
0
280
0
281
1
  0
CLASS
  1
TABLECONTENT
  2
AcDbTableContent
  3
ObjectDBX Classes
 90
1152
 91
0
280
0
281
0
  0
CLASS
  1
TABLEGEOMETRY
  2
AcDbTableGeometry
  3
ObjectDBX Classes
 90
1152
 91
0
280
0
281
0
  0
CLASS
  1
IMAGE
  2
AcDbRasterImage
  3
ISM
 90
32895
 91
0
280
0
281
1
  0
CLASS
  1
IMAGEDEF
  2
AcDbRasterImageDef
  3
ISM
 90
0
 91
0
280
0
281
0
  0
CLASS
  1
IMAGEDEF_REACTOR
  2
AcDbRasterImageDefReactor
  3
ISM
 90
1
 91
0
280
0
281
0
  0
CLASS
  1
DBCOLOR
  2
AcDbColor
  3
ObjectDBX Classes
 90
0
 91
0
280
0
281
0
  0
CLASS
  1
GEODATA
  2
AcDbGeoData
  3
ObjectDBX Classes
 90
4095
 91
0
280
0
281
0
  0
CLASS
  1
MULTILEADER
  2
AcDbMLeader
  3
ObjectDBX Classes
 90
1025
 91
0
280
0
281
0
  0
CLASS
  1
PDFUNDERLAY
  2
AcDbPdfReference
  3
ObjectDBX Classes
 90
4095
 91
0
280
0
281
1
  0
CLASS
  1
PDFDEFINITION
  2
AcDbPdfDefinition
  3
ObjectDBX Classes
 90
1153
 91
0
280
0
281
0
  0
CLASS
  1
RASTERVARIABLES
  2
AcDbRasterVariables
  3
ISM
 90
0
 91
0
280
0
281
0
  0
CLASS
  1
SPATIAL_FILTER
  2
AcDbSpatialFilter
  3
ObjectDBX Classes
 90
0
 91
0
280
0
281
0
  0
CLASS
  1
ACDB_MLEADEROBJECTCONTEXTDATA_CLASS
  2
AcDbMLeaderObjectContextData
  3
ObjectDBX Classes
 90
1025
 91
0
280
0
281
0
  0
CLASS
  1
PLOTSETTINGS
  2
AcDbPlotSettings
  3
ObjectDBX Classes
 90
0
 91
0
280
0
281
0
  0
CLASS
  1
FIELD
  2
AcDbField
  3
ObjectDBX Classes
 90
1152
 91
0
280
0
281
0
  0
CLASS
  1
FIELDLIST
  2
AcDbFieldList
  3
ObjectDBX Classes
 90
1152
 91
0
280
0
281
0
  0
CLASS
  1
ACDB_MTEXTATTRIBUTEOBJECTCONTEXTDATA_CLASS
  2
AcDbMTextAttributeObjectContextData
  3
ObjectDBX Classes
 90
1153
 91
0
280
0
281
0
  0
CLASS
  1
ACDB_BLKREFOBJECTCONTEXTDATA_CLASS
  2
AcDbBlkRefObjectContextData
  3
ObjectDBX Classes
 90
1153
 91
0
280
0
281
0
  0
ENDSEC
  0
SECTION
  2
TABLES
  0
TABLE
  2
VPORT
  5
18
330
0
100
AcDbSymbolTable
 70
1
  0
VPORT
  5
26
330
18
100
AcDbSymbolTableRecord
100
AcDbViewportTableRecord
  2
*Active
 70
0
 10
0.0
 20
0.0
 11
1.0
 21
1.0
 12
0.0
 22
0.0
 13
0.0
 23
0.0
 14
0.5
 24
0.5
 15
10.0
 25
10.0
 16
0.0
 26
0.0
 36
1.0
 17
0.0
 27
0.0
 37
0.0
 40
10.0
 41
1.0
 75
0
 76
1
  0
ENDTAB
  0
TABLE
  2
LTYPE
  5
14
330
0
100
AcDbSymbolTable
 70
3
  0
LTYPE
  5
19
330
14
100
AcDbSymbolTableRecord
100
AcDbLinetypeTableRecord
  2
ByLayer
 70
0
 72
0
 73
0
 40
0.0
  0
LTYPE
  5
1A
330
14
100
AcDbSymbolTableRecord
100
AcDbLinetypeTableRecord
  2
ByBlock
 70
0
 72
0
 73
0
 40
0.0
  0
LTYPE
  5
1B
330
14
100
AcDbSymbolTableRecord
100
AcDbLinetypeTableRecord
  2
Continuous
 70
0
 72
0
 73
0
 40
0.0
  0
ENDTAB
  0
TABLE
  2
LAYER
  5
13
330
0
100
AcDbSymbolTable
 70
1
  0
LAYER
  5
1C
330
13
100
AcDbSymbolTableRecord
100
AcDbLayerTableRecord
  2
0
 70
0
 62
7
  6
Continuous
290
1
370
-3
390
0
  0
ENDTAB
  0
TABLE
  2
STYLE
  5
15
330
0
100
AcDbSymbolTable
 70
1
  0
STYLE
  5
23
330
15
100
AcDbSymbolTableRecord
100
AcDbTextStyleTableRecord
  2
Standard
 70
0
 40
0.0
 41
1.0
 42
0.0
 50
0.0
 71
0
  0
ENDTAB
  0
TABLE
  2
VIEW
  5
17
330
0
100
AcDbSymbolTable
 70
0
  0
ENDTAB
  0
TABLE
  2
UCS
  5
16
330
0
100
AcDbSymbolTable
 70
0
  0
ENDTAB
  0
TABLE
  2
APPID
  5
10
330
0
100
AcDbSymbolTable
 70
1
  0
APPID
  5
25
330
10
100
AcDbSymbolTableRecord
100
AcDbRegAppTableRecord
  2
ACAD
 70
0
  0
ENDTAB
  0
TABLE
  2
DIMSTYLE
  5
12
330
0
100
AcDbSymbolTable
 70
1
100
AcDbDimStyleTable
  0
DIMSTYLE
105
24
330
12
100
AcDbSymbolTableRecord
100
AcDbDimStyleTableRecord
  2
Standard
 70
0
  3
<>
  4
[]
 40
1.0
 41
0.18
 42
0.625
 43
3.75
 44
1.25
 45
0.0
 46
0.0
 47
0.0
 48
0.0
 49
1.0
 50
45.0
 70
0
 90
0
140
0.18
141
0.09
142
0.0
143
25.3999999999999986
144
1.0
145
0.0
146
1.0
147
0.625
148
0.0
 71
0
 72
0
 73
0
 74
0
 75
0
 76
0
 77
1
 78
8
 79
0
170
0
171
3
172
0
173
1
174
0
175
0
176
0
177
0
178
0
179
0
271
2
272
2
273
2
274
3
275
0
276
0
277
2
278
46
279
0
280
0
281
0
282
0
283
0
284
8
285
0
286
0
287
0
288
0
289
3
290
0
340
0
371
-2
372
-2
  0
ENDTAB
  0
TABLE
  2
BLOCK_RECORD
  5
11
330
0
100
AcDbSymbolTable
 70
2
  0
BLOCK_RECORD
  5
1D
330
11
100
AcDbSymbolTableRecord
100
AcDbBlockTableRecord
  2
*Model_Space
 70
0
340
0
 70
0
280
0
281
1
  0
BLOCK_RECORD
  5
20
330
11
100
AcDbSymbolTableRecord
100
AcDbBlockTableRecord
  2
*Paper_Space
 70
0
340
0
 70
0
280
0
281
1
  0
ENDTAB
  0
ENDSEC
  0
SECTION
  2
BLOCKS
  0
BLOCK
  5
1E
330
1D
100
AcDbEntity
  8
0
  6
ByLayer
 62
256
 48
1.0
 60
0
 67
0
370
-1
100
AcDbBlockBegin
  2
*Model_Space
 70
0
 10
0.0
 20
0.0
 30
0.0
  3
*Model_Space
  0
ENDBLK
  5
1F
330
1D
100
AcDbEntity
  8
0
100
AcDbBlockEnd
  0
BLOCK
  5
21
330
20
100
AcDbEntity
  8
0
  6
ByLayer
 62
256
 48
1.0
 60
0
 67
1
370
-1
100
AcDbBlockBegin
  2
*Paper_Space
 70
0
 10
0.0
 20
0.0
 30
0.0
  3
*Paper_Space
  0
ENDBLK
  5
22
330
20
100
AcDbEntity
  8
0
100
AcDbBlockEnd
  0
ENDSEC
  0
SECTION
  2
ENTITIES
  0
TEXT
  5
27
330
1D
100
AcDbEntity
  8
0
  6
ByLayer
420
0
 48
1.0
 60
0
 67
0
370
-1
100
AcDbText
 39
0.0
 10
0.0
 20
670.5
 30
0.0
 40
18.0
  1
Background Image + CSS Transform Demo
 50
0.0
 41
1.0
 51
0.0
  7
Standard
 71
0
 72
0
 11
0.0
 21
0.0
 31
0.0
210
0.0
220
0.0
230
1.0
100
AcDbText
 73
0
  0
TEXT
  5
28
330
1D
100
AcDbEntity
  8
0
  6
ByLayer
420
5592405
 48
1.0
 60
0
 67
0
370
-1
100
AcDbText
 39
0.0
 10
0.0
 20
628.5
 30
0.0
 40
14.0
  1
SVG background-image with CSS rotation
 50
0.0
 41
1.0
 51
0.0
  7
Standard
 71
0
 72
0
 11
0.0
 21
0.0
 31
0.0
210
0.0
220
0.0
230
1.0
100
AcDbText
 73
0
  0
HATCH
  5
29
330
1D
100
AcDbEntity
  8
0
  6
ByLayer
420
5025616
 48
1.0
 60
0
 67
0
370
-1
100
AcDbHatch
 30
0.0
210
0.0
220
0.0
230
1.0
  2
SOLID
 70
1
 71
0
 91
1
 92
2
 72
0
 73
1
 93
4
 10
5.0
 20
612.0
 10
105.0
 20
612.0
 10
105.0
 20
512.0
 10
5.0
 20
512.0
 97
0
 75
0
 76
1
 47
0.0
 98
0
  0
LWPOLYLINE
  5
2A
330
1D
100
AcDbEntity
  8
0
  6
ByLayer
420
5025616
 48
1.0
 60
0
 67
0
370
-1
100
AcDbPolyline
 90
4
 70
1
 43
0.0
 38
0.0
 39
0.0
210
0.0
220
0.0
230
1.0
 10
5.0
 20
612.0
 40
0.0
 41
0.0
 42
0.0
 10
105.0
 20
612.0
 40
0.0
 41
0.0
 42
0.0
 10
105.0
 20
512.0
 40
0.0
 41
0.0
 42
0.0
 10
5.0
 20
512.0
 40
0.0
 41
0.0
 42
0.0
  0
HATCH
  5
2B
330
1D
100
AcDbEntity
  8
0
  6
ByLayer
420
16777215
 48
1.0
 60
0
 67
0
370
-1
100
AcDbHatch
 30
0.0
210
0.0
220
0.0
230
1.0
  2
SOLID
 70
1
 71
0
 91
1
 92
2
 72
0
 73
1
 93
32
 10
85.0
 20
562.0
 10
84.4235584120969094
 20
556.1472903395161893
 10
82.7163859753385964
 20
550.5194970290473293
 10
79.9440883690763542
 20
545.3328930094119187
 10
76.2132034355964265
 20
540.7867965644036303
 10
71.6671069905880671
 20
537.0559116309236742
 10
66.4805029709526991
 20
534.2836140246613468
 10
60.8527096604838533
 20
532.5764415879031048
 10
55.0
 20
532.0
 10
49.1472903395161609
 20
532.5764415879031048
 10
43.5194970290473009
 20
534.2836140246613468
 10
38.3328930094119471
 20
537.0559116309236742
 10
33.7867965644035735
 20
540.7867965644036303
 10
30.0559116309236458
 20
545.3328930094119187
 10
27.2836140246614036
 20
550.5194970290473293
 10
25.5764415879030906
 20
556.1472903395160756
 10
25.0
 20
562.0
 10
25.5764415879030906
 20
567.8527096604839244
 10
27.2836140246613894
 20
573.4805029709526707
 10
30.0559116309236316
 20
578.6671069905880813
 10
33.7867965644035735
 20
583.2132034355963697
 10
38.3328930094119329
 20
586.9440883690763258
 10
43.5194970290472867
 20
589.7163859753386532
 10
49.1472903395161325
 20
591.4235584120968952
 10
55.0
 20
592.0
 10
60.8527096604838391
 20
591.4235584120968952
 10
66.4805029709526991
 20
589.7163859753386532
 10
71.6671069905880529
 20
586.9440883690763258
 10
76.2132034355964265
 20
583.2132034355963697
 10
79.9440883690763542
 20
578.6671069905880813
 10
82.7163859753385964
 20
573.4805029709527844
 10
84.4235584120969094
 20
567.8527096604839244
 97
0
 75
0
 76
1
 47
0.0
 98
0
  0
LWPOLYLINE
  5
2C
330
1D
100
AcDbEntity
  8
0
  6
ByLayer
420
16777215
 48
1.0
 60
0
 67
0
370
-1
100
AcDbPolyline
 90
32
 70
1
 43
0.0
 38
0.0
 39
0.0
210
0.0
220
0.0
230
1.0
 10
85.0
 20
562.0
 40
0.0
 41
0.0
 42
0.0
 10
84.4235584120969094
 20
556.1472903395161893
 40
0.0
 41
0.0
 42
0.0
 10
82.7163859753385964
 20
550.5194970290473293
 40
0.0
 41
0.0
 42
0.0
 10
79.9440883690763542
 20
545.3328930094119187
 40
0.0
 41
0.0
 42
0.0
 10
76.2132034355964265
 20
540.7867965644036303
 40
0.0
 41
0.0
 42
0.0
 10
71.6671069905880671
 20
537.0559116309236742
 40
0.0
 41
0.0
 42
0.0
 10
66.4805029709526991
 20
534.2836140246613468
 40
0.0
 41
0.0
 42
0.0
 10
60.8527096604838533
 20
532.5764415879031048
 40
0.0
 41
0.0
 42
0.0
 10
55.0
 20
532.0
 40
0.0
 41
0.0
 42
0.0
 10
49.1472903395161609
 20
532.5764415879031048
 40
0.0
 41
0.0
 42
0.0
 10
43.5194970290473009
 20
534.2836140246613468
 40
0.0
 41
0.0
 42
0.0
 10
38.3328930094119471
 20
537.0559116309236742
 40
0.0
 41
0.0
 42
0.0
 10
33.7867965644035735
 20
540.7867965644036303
 40
0.0
 41
0.0
 42
0.0
 10
30.0559116309236458
 20
545.3328930094119187
 40
0.0
 41
0.0
 42
0.0
 10
27.2836140246614036
 20
550.5194970290473293
 40
0.0
 41
0.0
 42
0.0
 10
25.5764415879030906
 20
556.1472903395160756
 40
0.0
 41
0.0
 42
0.0
 10
25.0
 20
562.0
 40
0.0
 41
0.0
 42
0.0
 10
25.5764415879030906
 20
567.8527096604839244
 40
0.0
 41
0.0
 42
0.0
 10
27.2836140246613894
 20
573.4805029709526707
 40
0.0
 41
0.0
 42
0.0
 10
30.0559116309236316
 20
578.6671069905880813
 40
0.0
 41
0.0
 42
0.0
 10
33.7867965644035735
 20
583.2132034355963697
 40
0.0
 41
0.0
 42
0.0
 10
38.3328930094119329
 20
586.9440883690763258
 40
0.0
 41
0.0
 42
0.0
 10
43.5194970290472867
 20
589.7163859753386532
 40
0.0
 41
0.0
 42
0.0
 10
49.1472903395161325
 20
591.4235584120968952
 40
0.0
 41
0.0
 42
0.0
 10
55.0
 20
592.0
 40
0.0
 41
0.0
 42
0.0
 10
60.8527096604838391
 20
591.4235584120968952
 40
0.0
 41
0.0
 42
0.0
 10
66.4805029709526991
 20
589.7163859753386532
 40
0.0
 41
0.0
 42
0.0
 10
71.6671069905880529
 20
586.9440883690763258
 40
0.0
 41
0.0
 42
0.0
 10
76.2132034355964265
 20
583.2132034355963697
 40
0.0
 41
0.0
 42
0.0
 10
79.9440883690763542
 20
578.6671069905880813
 40
0.0
 41
0.0
 42
0.0
 10
82.7163859753385964
 20
573.4805029709527844
 40
0.0
 41
0.0
 42
0.0
 10
84.4235584120969094
 20
567.8527096604839244
 40
0.0
 41
0.0
 42
0.0
  0
TEXT
  5
2D
330
1D
100
AcDbEntity
  8
0
  6
ByLayer
420
8947848
 48
1.0
 60
0
 67
0
370
-1
100
AcDbText
 39
0.0
 10
-0.0000375000017812
 20
497.25
 30
0.0
 40
11.0
  1
No rotation (reference)
 50
0.0
 41
1.0
 51
0.0
  7
Standard
 71
0
 72
0
 11
0.0
 21
0.0
 31
0.0
210
0.0
220
0.0
230
1.0
100
AcDbText
 73
0
  0
HATCH
  5
2E
330
1D
100
AcDbEntity
  8
0
  6
ByLayer
420
5025616
 48
1.0
 60
0
 67
0
370
-1
100
AcDbHatch
 30
0.0
210
0.0
220
0.0
230
1.0
  2
SOLID
 70
1
 71
0
 91
1
 92
2
 72
0
 73
1
 93
4
 10
201.0
 20
632.7106999999999744
 10
271.7106999999999744
 20
562.0
 10
200.9999999999999716
 20
491.2893000000000256
 10
130.2892999999999972
 20
562.0
 97
0
 75
0
 76
1
 47
0.0
 98
0
  0
LWPOLYLINE
  5
2F
330
1D
100
AcDbEntity
  8
0
  6
ByLayer
420
5025616
 48
1.0
 60
0
 67
0
370
-1
100
AcDbPolyline
 90
4
 70
1
 43
0.0
 38
0.0
 39
0.0
210
0.0
220
0.0
230
1.0
 10
201.0
 20
632.7106999999999744
 40
0.0
 41
0.0
 42
0.0
 10
271.7106999999999744
 20
562.0
 40
0.0
 41
0.0
 42
0.0
 10
200.9999999999999716
 20
491.2893000000000256
 40
0.0
 41
0.0
 42
0.0
 10
130.2892999999999972
 20
562.0
 40
0.0
 41
0.0
 42
0.0
  0
HATCH
  5
30
330
1D
100
AcDbEntity
  8
0
  6
ByLayer
420
16777215
 48
1.0
 60
0
 67
0
370
-1
100
AcDbHatch
 30
0.0
210
0.0
220
0.0
230
1.0
  2
SOLID
 70
1
 71
0
 91
1
 92
2
 72
0
 73
1
 93
32
 10
222.2132100000000037
 20
540.7867899999999963
 10
217.6671121482068543
 20
537.0559039120016678
 10
212.4805065235823065
 20
534.2836054478548249
 10
206.8527114715986954
 20
532.5764324828137433
 10
200.9999999999999716
 20
531.9999907165314426
 10
195.1472885284012477
 20
532.5764324828137433
 10
189.5194934764177219
 20
534.2836054478548249
 10
184.3328878517931457
 20
537.0559039120016678
 10
179.7867899999999963
 20
540.7867899999999963
 10
176.0559039120016109
 20
545.3328878517932026
 10
173.2836054478548249
 20
550.5194934764176651
 10
171.5764324828137717
 20
556.1472885284013046
 10
170.9999907165314141
 20
562.0
 10
171.5764324828137433
 20
567.8527114715986954
 10
173.283605447854768
 20
573.4805065235823349
 10
176.0559039120016394
 20
578.6671121482067974
 10
179.7867899999999679
 20
583.2132100000000037
 10
184.3328878517931457
 20
586.9440960879983322
 10
189.5194934764176651
 20
589.7163945521451751
 10
195.1472885284012477
 20
591.4235675171862567
 10
201.0
 20
592.0000092834685574
 10
206.8527114715987523
 20
591.4235675171862567
 10
212.4805065235822497
 20
589.7163945521451751
 10
217.6671121482068543
 20
586.9440960879983322
 10
222.2132100000000037
 20
583.2132100000000037
 10
225.9440960879983891
 20
578.6671121482067974
 10
228.716394552145232
 20
573.4805065235823349
 10
230.4235675171861999
 20
567.8527114715986954
 10
231.0000092834685574
 20
562.0
 10
230.4235675171861999
 20
556.1472885284013046
 10
228.7163945521451751
 20
550.5194934764176651
 10
225.9440960879983891
 20
545.3328878517932026
 97
0
 75
0
 76
1
 47
0.0
 98
0
  0
LWPOLYLINE
  5
31
330
1D
100
AcDbEntity
  8
0
  6
ByLayer
420
16777215
 48
1.0
 60
0
 67
0
370
-1
100
AcDbPolyline
 90
32
 70
1
 43
0.0
 38
0.0
 39
0.0
210
0.0
220
0.0
230
1.0
 10
222.2132100000000037
 20
540.7867899999999963
 40
0.0
 41
0.0
 42
0.0
 10
217.6671121482068543
 20
537.0559039120016678
 40
0.0
 41
0.0
 42
0.0
 10
212.4805065235823065
 20
534.2836054478548249
 40
0.0
 41
0.0
 42
0.0
 10
206.8527114715986954
 20
532.5764324828137433
 40
0.0
 41
0.0
 42
0.0
 10
200.9999999999999716
 20
531.9999907165314426
 40
0.0
 41
0.0
 42
0.0
 10
195.1472885284012477
 20
532.5764324828137433
 40
0.0
 41
0.0
 42
0.0
 10
189.5194934764177219
 20
534.2836054478548249
 40
0.0
 41
0.0
 42
0.0
 10
184.3328878517931457
 20
537.0559039120016678
 40
0.0
 41
0.0
 42
0.0
 10
179.7867899999999963
 20
540.7867899999999963
 40
0.0
 41
0.0
 42
0.0
 10
176.0559039120016109
 20
545.3328878517932026
 40
0.0
 41
0.0
 42
0.0
 10
173.2836054478548249
 20
550.5194934764176651
 40
0.0
 41
0.0
 42
0.0
 10
171.5764324828137717
 20
556.1472885284013046
 40
0.0
 41
0.0
 42
0.0
 10
170.9999907165314141
 20
562.0
 40
0.0
 41
0.0
 42
0.0
 10
171.5764324828137433
 20
567.8527114715986954
 40
0.0
 41
0.0
 42
0.0
 10
173.283605447854768
 20
573.4805065235823349
 40
0.0
 41
0.0
 42
0.0
 10
176.0559039120016394
 20
578.6671121482067974
 40
0.0
 41
0.0
 42
0.0
 10
179.7867899999999679
 20
583.2132100000000037
 40
0.0
 41
0.0
 42
0.0
 10
184.3328878517931457
 20
586.9440960879983322
 40
0.0
 41
0.0
 42
0.0
 10
189.5194934764176651
 20
589.7163945521451751
 40
0.0
 41
0.0
 42
0.0
 10
195.1472885284012477
 20
591.4235675171862567
 40
0.0
 41
0.0
 42
0.0
 10
201.0
 20
592.0000092834685574
 40
0.0
 41
0.0
 42
0.0
 10
206.8527114715987523
 20
591.4235675171862567
 40
0.0
 41
0.0
 42
0.0
 10
212.4805065235822497
 20
589.7163945521451751
 40
0.0
 41
0.0
 42
0.0
 10
217.6671121482068543
 20
586.9440960879983322
 40
0.0
 41
0.0
 42
0.0
 10
222.2132100000000037
 20
583.2132100000000037
 40
0.0
 41
0.0
 42
0.0
 10
225.9440960879983891
 20
578.6671121482067974
 40
0.0
 41
0.0
 42
0.0
 10
228.716394552145232
 20
573.4805065235823349
 40
0.0
 41
0.0
 42
0.0
 10
230.4235675171861999
 20
567.8527114715986954
 40
0.0
 41
0.0
 42
0.0
 10
231.0000092834685574
 20
562.0
 40
0.0
 41
0.0
 42
0.0
 10
230.4235675171861999
 20
556.1472885284013046
 40
0.0
 41
0.0
 42
0.0
 10
228.7163945521451751
 20
550.5194934764176651
 40
0.0
 41
0.0
 42
0.0
 10
225.9440960879983891
 20
545.3328878517932026
 40
0.0
 41
0.0
 42
0.0
  0
TEXT
  5
32
330
1D
100
AcDbEntity
  8
0
  6
ByLayer
420
8947848
 48
1.0
 60
0
 67
0
370
-1
100
AcDbText
 39
0.0
 10
167.9999624999982188
 20
497.25
 30
0.0
 40
11.0
  1
rotate(45deg)
 50
0.0
 41
1.0
 51
0.0
  7
Standard
 71
0
 72
0
 11
0.0
 21
0.0
 31
0.0
210
0.0
220
0.0
230
1.0
100
AcDbText
 73
0
  0
HATCH
  5
33
330
1D
100
AcDbEntity
  8
0
  6
ByLayer
420
5025616
 48
1.0
 60
0
 67
0
370
-1
100
AcDbHatch
 30
0.0
210
0.0
220
0.0
230
1.0
  2
SOLID
 70
1
 71
0
 91
1
 92
2
 72
0
 73
1
 93
4
 10
391.0
 20
612.0
 10
391.0
 20
512.0
 10
291.0
 20
512.0
 10
291.0
 20
612.0
 97
0
 75
0
 76
1
 47
0.0
 98
0
  0
LWPOLYLINE
  5
34
330
1D
100
AcDbEntity
  8
0
  6
ByLayer
420
5025616
 48
1.0
 60
0
 67
0
370
-1
100
AcDbPolyline
 90
4
 70
1
 43
0.0
 38
0.0
 39
0.0
210
0.0
220
0.0
230
1.0
 10
391.0
 20
612.0
 40
0.0
 41
0.0
 42
0.0
 10
391.0
 20
512.0
 40
0.0
 41
0.0
 42
0.0
 10
291.0
 20
512.0
 40
0.0
 41
0.0
 42
0.0
 10
291.0
 20
612.0
 40
0.0
 41
0.0
 42
0.0
  0
HATCH
  5
35
330
1D
100
AcDbEntity
  8
0
  6
ByLayer
420
16777215
 48
1.0
 60
0
 67
0
370
-1
100
AcDbHatch
 30
0.0
210
0.0
220
0.0
230
1.0
  2
SOLID
 70
1
 71
0
 91
1
 92
2
 72
0
 73
1
 93
32
 10
341.0
 20
532.0
 10
335.1472903395161325
 20
532.5764415879031048
 10
329.5194970290473293
 20
534.2836140246613468
 10
324.3328930094119187
 20
537.0559116309236742
 10
319.7867965644035735
 20
540.7867965644036303
 10
316.0559116309236742
 20
545.3328930094119187
 10
313.2836140246614036
 20
550.5194970290473293
 10
311.5764415879031048
 20
556.1472903395160756
 10
311.0
 20
562.0
 10
311.5764415879031048
 20
567.8527096604838107
 10
313.2836140246614036
 20
573.4805029709526707
 10
316.0559116309236174
 20
578.6671069905880813
 10
319.7867965644035735
 20
583.2132034355963697
 10
324.3328930094119187
 20
586.9440883690763258
 10
329.5194970290473293
 20
589.7163859753386532
 10
335.1472903395161325
 20
591.4235584120968952
 10
341.0
 20
592.0
 10
346.8527096604838675
 20
591.4235584120968952
 10
352.4805029709526707
 20
589.7163859753386532
 10
357.6671069905880813
 20
586.9440883690763258
 10
362.2132034355964265
 20
583.2132034355963697
 10
365.9440883690763258
 20
578.6671069905880813
 10
368.7163859753385964
 20
573.4805029709527844
 10
370.4235584120968952
 20
567.8527096604839244
 10
371.0
 20
562.0
 10
370.4235584120968952
 20
556.1472903395161893
 10
368.7163859753385964
 20
550.5194970290473293
 10
365.9440883690763826
 20
545.3328930094119187
 10
362.2132034355964265
 20
540.7867965644036303
 10
357.6671069905880813
 20
537.0559116309236742
 10
352.4805029709527275
 20
534.2836140246613468
 10
346.8527096604838675
 20
532.5764415879031048
 97
0
 75
0
 76
1
 47
0.0
 98
0
  0
LWPOLYLINE
  5
36
330
1D
100
AcDbEntity
  8
0
  6
ByLayer
420
16777215
 48
1.0
 60
0
 67
0
370
-1
100
AcDbPolyline
 90
32
 70
1
 43
0.0
 38
0.0
 39
0.0
210
0.0
220
0.0
230
1.0
 10
341.0
 20
532.0
 40
0.0
 41
0.0
 42
0.0
 10
335.1472903395161325
 20
532.5764415879031048
 40
0.0
 41
0.0
 42
0.0
 10
329.5194970290473293
 20
534.2836140246613468
 40
0.0
 41
0.0
 42
0.0
 10
324.3328930094119187
 20
537.0559116309236742
 40
0.0
 41
0.0
 42
0.0
 10
319.7867965644035735
 20
540.7867965644036303
 40
0.0
 41
0.0
 42
0.0
 10
316.0559116309236742
 20
545.3328930094119187
 40
0.0
 41
0.0
 42
0.0
 10
313.2836140246614036
 20
550.5194970290473293
 40
0.0
 41
0.0
 42
0.0
 10
311.5764415879031048
 20
556.1472903395160756
 40
0.0
 41
0.0
 42
0.0
 10
311.0
 20
562.0
 40
0.0
 41
0.0
 42
0.0
 10
311.5764415879031048
 20
567.8527096604838107
 40
0.0
 41
0.0
 42
0.0
 10
313.2836140246614036
 20
573.4805029709526707
 40
0.0
 41
0.0
 42
0.0
 10
316.0559116309236174
 20
578.6671069905880813
 40
0.0
 41
0.0
 42
0.0
 10
319.7867965644035735
 20
583.2132034355963697
 40
0.0
 41
0.0
 42
0.0
 10
324.3328930094119187
 20
586.9440883690763258
 40
0.0
 41
0.0
 42
0.0
 10
329.5194970290473293
 20
589.7163859753386532
 40
0.0
 41
0.0
 42
0.0
 10
335.1472903395161325
 20
591.4235584120968952
 40
0.0
 41
0.0
 42
0.0
 10
341.0
 20
592.0
 40
0.0
 41
0.0
 42
0.0
 10
346.8527096604838675
 20
591.4235584120968952
 40
0.0
 41
0.0
 42
0.0
 10
352.4805029709526707
 20
589.7163859753386532
 40
0.0
 41
0.0
 42
0.0
 10
357.6671069905880813
 20
586.9440883690763258
 40
0.0
 41
0.0
 42
0.0
 10
362.2132034355964265
 20
583.2132034355963697
 40
0.0
 41
0.0
 42
0.0
 10
365.9440883690763258
 20
578.6671069905880813
 40
0.0
 41
0.0
 42
0.0
 10
368.7163859753385964
 20
573.4805029709527844
 40
0.0
 41
0.0
 42
0.0
 10
370.4235584120968952
 20
567.8527096604839244
 40
0.0
 41
0.0
 42
0.0
 10
371.0
 20
562.0
 40
0.0
 41
0.0
 42
0.0
 10
370.4235584120968952
 20
556.1472903395161893
 40
0.0
 41
0.0
 42
0.0
 10
368.7163859753385964
 20
550.5194970290473293
 40
0.0
 41
0.0
 42
0.0
 10
365.9440883690763826
 20
545.3328930094119187
 40
0.0
 41
0.0
 42
0.0
 10
362.2132034355964265
 20
540.7867965644036303
 40
0.0
 41
0.0
 42
0.0
 10
357.6671069905880813
 20
537.0559116309236742
 40
0.0
 41
0.0
 42
0.0
 10
352.4805029709527275
 20
534.2836140246613468
 40
0.0
 41
0.0
 42
0.0
 10
346.8527096604838675
 20
532.5764415879031048
 40
0.0
 41
0.0
 42
0.0
  0
TEXT
  5
37
330
1D
100
AcDbEntity
  8
0
  6
ByLayer
420
8947848
 48
1.0
 60
0
 67
0
370
-1
100
AcDbText
 39
0.0
 10
307.9999624999982188
 20
497.25
 30
0.0
 40
11.0
  1
rotate(90deg)
 50
0.0
 41
1.0
 51
0.0
  7
Standard
 71
0
 72
0
 11
0.0
 21
0.0
 31
0.0
210
0.0
220
0.0
230
1.0
100
AcDbText
 73
0
  0
HATCH
  5
38
330
1D
100
AcDbEntity
  8
0
  6
ByLayer
420
5025616
 48
1.0
 60
0
 67
0
370
-1
100
AcDbHatch
 30
0.0
210
0.0
220
0.0
230
1.0
  2
SOLID
 70
1
 71
0
 91
1
 92
2
 72
0
 73
1
 93
4
 10
531.0
 20
512.0
 10
431.0
 20
512.0
 10
431.0
 20
612.0
 10
531.0
 20
612.0
 97
0
 75
0
 76
1
 47
0.0
 98
0
  0
LWPOLYLINE
  5
39
330
1D
100
AcDbEntity
  8
0
  6
ByLayer
420
5025616
 48
1.0
 60
0
 67
0
370
-1
100
AcDbPolyline
 90
4
 70
1
 43
0.0
 38
0.0
 39
0.0
210
0.0
220
0.0
230
1.0
 10
531.0
 20
512.0
 40
0.0
 41
0.0
 42
0.0
 10
431.0
 20
512.0
 40
0.0
 41
0.0
 42
0.0
 10
431.0
 20
612.0
 40
0.0
 41
0.0
 42
0.0
 10
531.0
 20
612.0
 40
0.0
 41
0.0
 42
0.0
  0
HATCH
  5
3A
330
1D
100
AcDbEntity
  8
0
  6
ByLayer
420
16777215
 48
1.0
 60
0
 67
0
370
-1
100
AcDbHatch
 30
0.0
210
0.0
220
0.0
230
1.0
  2
SOLID
 70
1
 71
0
 91
1
 92
2
 72
0
 73
1
 93
32
 10
451.0
 20
562.0
 10
451.5764415879031048
 20
567.8527096604838107
 10
453.2836140246614036
 20
573.4805029709526707
 10
456.0559116309236742
 20
578.6671069905880813
 10
459.7867965644035735
 20
583.2132034355963697
 10
464.3328930094119187
 20
586.9440883690763258
 10
469.5194970290473293
 20
589.7163859753386532
 10
475.1472903395161893
 20
591.4235584120968952
 10
481.0
 20
592.0
 10
486.8527096604838107
 20
591.4235584120968952
 10
492.4805029709526707
 20
589.7163859753386532
 10
497.6671069905880813
 20
586.9440883690763258
 10
502.2132034355963697
 20
583.2132034355963697
 10
505.9440883690763258
 20
578.6671069905880813
 10
508.7163859753386532
 20
573.4805029709526707
 10
510.4235584120968952
 20
567.8527096604839244
 10
511.0
 20
562.0
 10
510.4235584120968952
 20
556.1472903395160756
 10
508.7163859753386532
 20
550.5194970290473293
 10
505.9440883690763258
 20
545.3328930094119187
 10
502.2132034355963697
 20
540.7867965644036303
 10
497.6671069905880813
 20
537.0559116309236742
 10
492.4805029709526707
 20
534.2836140246613468
 10
486.8527096604838107
 20
532.5764415879031048
 10
481.0
 20
532.0
 10
475.1472903395161893
 20
532.5764415879031048
 10
469.5194970290473293
 20
534.2836140246613468
 10
464.3328930094119187
 20
537.0559116309236742
 10
459.7867965644035735
 20
540.7867965644036303
 10
456.0559116309236742
 20
545.3328930094119187
 10
453.2836140246614036
 20
550.5194970290472156
 10
451.5764415879031048
 20
556.1472903395160756
 97
0
 75
0
 76
1
 47
0.0
 98
0
  0
LWPOLYLINE
  5
3B
330
1D
100
AcDbEntity
  8
0
  6
ByLayer
420
16777215
 48
1.0
 60
0
 67
0
370
-1
100
AcDbPolyline
 90
32
 70
1
 43
0.0
 38
0.0
 39
0.0
210
0.0
220
0.0
230
1.0
 10
451.0
 20
562.0
 40
0.0
 41
0.0
 42
0.0
 10
451.5764415879031048
 20
567.8527096604838107
 40
0.0
 41
0.0
 42
0.0
 10
453.2836140246614036
 20
573.4805029709526707
 40
0.0
 41
0.0
 42
0.0
 10
456.0559116309236742
 20
578.6671069905880813
 40
0.0
 41
0.0
 42
0.0
 10
459.7867965644035735
 20
583.2132034355963697
 40
0.0
 41
0.0
 42
0.0
 10
464.3328930094119187
 20
586.9440883690763258
 40
0.0
 41
0.0
 42
0.0
 10
469.5194970290473293
 20
589.7163859753386532
 40
0.0
 41
0.0
 42
0.0
 10
475.1472903395161893
 20
591.4235584120968952
 40
0.0
 41
0.0
 42
0.0
 10
481.0
 20
592.0
 40
0.0
 41
0.0
 42
0.0
 10
486.8527096604838107
 20
591.4235584120968952
 40
0.0
 41
0.0
 42
0.0
 10
492.4805029709526707
 20
589.7163859753386532
 40
0.0
 41
0.0
 42
0.0
 10
497.6671069905880813
 20
586.9440883690763258
 40
0.0
 41
0.0
 42
0.0
 10
502.2132034355963697
 20
583.2132034355963697
 40
0.0
 41
0.0
 42
0.0
 10
505.9440883690763258
 20
578.6671069905880813
 40
0.0
 41
0.0
 42
0.0
 10
508.7163859753386532
 20
573.4805029709526707
 40
0.0
 41
0.0
 42
0.0
 10
510.4235584120968952
 20
567.8527096604839244
 40
0.0
 41
0.0
 42
0.0
 10
511.0
 20
562.0
 40
0.0
 41
0.0
 42
0.0
 10
510.4235584120968952
 20
556.1472903395160756
 40
0.0
 41
0.0
 42
0.0
 10
508.7163859753386532
 20
550.5194970290473293
 40
0.0
 41
0.0
 42
0.0
 10
505.9440883690763258
 20
545.3328930094119187
 40
0.0
 41
0.0
 42
0.0
 10
502.2132034355963697
 20
540.7867965644036303
 40
0.0
 41
0.0
 42
0.0
 10
497.6671069905880813
 20
537.0559116309236742
 40
0.0
 41
0.0
 42
0.0
 10
492.4805029709526707
 20
534.2836140246613468
 40
0.0
 41
0.0
 42
0.0
 10
486.8527096604838107
 20
532.5764415879031048
 40
0.0
 41
0.0
 42
0.0
 10
481.0
 20
532.0
 40
0.0
 41
0.0
 42
0.0
 10
475.1472903395161893
 20
532.5764415879031048
 40
0.0
 41
0.0
 42
0.0
 10
469.5194970290473293
 20
534.2836140246613468
 40
0.0
 41
0.0
 42
0.0
 10
464.3328930094119187
 20
537.0559116309236742
 40
0.0
 41
0.0
 42
0.0
 10
459.7867965644035735
 20
540.7867965644036303
 40
0.0
 41
0.0
 42
0.0
 10
456.0559116309236742
 20
545.3328930094119187
 40
0.0
 41
0.0
 42
0.0
 10
453.2836140246614036
 20
550.5194970290472156
 40
0.0
 41
0.0
 42
0.0
 10
451.5764415879031048
 20
556.1472903395160756
 40
0.0
 41
0.0
 42
0.0
  0
TEXT
  5
3C
330
1D
100
AcDbEntity
  8
0
  6
ByLayer
420
8947848
 48
1.0
 60
0
 67
0
370
-1
100
AcDbText
 39
0.0
 10
444.9999624999982188
 20
497.25
 30
0.0
 40
11.0
  1
rotate(180deg)
 50
0.0
 41
1.0
 51
0.0
  7
Standard
 71
0
 72
0
 11
0.0
 21
0.0
 31
0.0
210
0.0
220
0.0
230
1.0
100
AcDbText
 73
0
  0
TEXT
  5
3D
330
1D
100
AcDbEntity
  8
0
  6
ByLayer
420
5592405
 48
1.0
 60
0
 67
0
370
-1
100
AcDbText
 39
0.0
 10
0.0
 20
450.5
 30
0.0
 40
14.0
  1
Various SVG shapes rotated
 50
0.0
 41
1.0
 51
0.0
  7
Standard
 71
0
 72
0
 11
0.0
 21
0.0
 31
0.0
210
0.0
220
0.0
230
1.0
100
AcDbText
 73
0
  0
HATCH
  5
3E
330
1D
100
AcDbEntity
  8
0
  6
ByLayer
420
2201331
 48
1.0
 60
0
 67
0
370
-1
100
AcDbHatch
 30
0.0
210
0.0
220
0.0
230
1.0
  2
SOLID
 70
1
 71
0
 91
1
 92
2
 72
0
 73
1
 93
20
 10
23.038498251561581
 20
439.9807469716172363
 10
25.7672648307773109
 20
443.4571075622573062
 10
28.9535628199860824
 20
445.2259363057947326
 10
32.5973922191879026
 20
445.2872332022294586
 10
36.698753028382761
 20
443.640998251561598
 10
123.3012469716172461
 20
393.6410017484384412
 10
126.7776075622573018
 20
390.9122351692226971
 10
128.5464363057947139
 20
387.7259371800139434
 10
128.6077332022294684
 20
384.0821077808120663
 10
126.9614982515615793
 20
379.9807469716172363
 10
96.9615017484384225
 20
328.0192530283828205
 10
94.2327351692226927
 20
324.5428924377428075
 10
91.0464371800139247
 20
322.7740636942053243
 10
87.4026077808121045
 20
322.7127667977705983
 10
83.3012469716172461
 20
324.3590017484384589
 10
-3.3012469716172408
 20
374.3589982515616157
 10
-6.7776075622572964
 20
377.0877648307773597
 10
-8.5464363057947068
 20
380.2740628199861135
 10
-8.6077332022294684
 20
383.9178922191879337
 10
-6.9614982515615829
 20
388.0192530283828205
 97
0
 75
0
 76
1
 47
0.0
 98
0
  0
LWPOLYLINE
  5
3F
330
1D
100
AcDbEntity
  8
0
  6
ByLayer
420
2201331
 48
1.0
 60
0
 67
0
370
-1
100
AcDbPolyline
 90
20
 70
1
 43
0.0
 38
0.0
 39
0.0
210
0.0
220
0.0
230
1.0
 10
23.038498251561581
 20
439.9807469716172363
 40
0.0
 41
0.0
 42
0.0
 10
25.7672648307773109
 20
443.4571075622573062
 40
0.0
 41
0.0
 42
0.0
 10
28.9535628199860824
 20
445.2259363057947326
 40
0.0
 41
0.0
 42
0.0
 10
32.5973922191879026
 20
445.2872332022294586
 40
0.0
 41
0.0
 42
0.0
 10
36.698753028382761
 20
443.640998251561598
 40
0.0
 41
0.0
 42
0.0
 10
123.3012469716172461
 20
393.6410017484384412
 40
0.0
 41
0.0
 42
0.0
 10
126.7776075622573018
 20
390.9122351692226971
 40
0.0
 41
0.0
 42
0.0
 10
128.5464363057947139
 20
387.7259371800139434
 40
0.0
 41
0.0
 42
0.0
 10
128.6077332022294684
 20
384.0821077808120663
 40
0.0
 41
0.0
 42
0.0
 10
126.9614982515615793
 20
379.9807469716172363
 40
0.0
 41
0.0
 42
0.0
 10
96.9615017484384225
 20
328.0192530283828205
 40
0.0
 41
0.0
 42
0.0
 10
94.2327351692226927
 20
324.5428924377428075
 40
0.0
 41
0.0
 42
0.0
 10
91.0464371800139247
 20
322.7740636942053243
 40
0.0
 41
0.0
 42
0.0
 10
87.4026077808121045
 20
322.7127667977705983
 40
0.0
 41
0.0
 42
0.0
 10
83.3012469716172461
 20
324.3590017484384589
 40
0.0
 41
0.0
 42
0.0
 10
-3.3012469716172408
 20
374.3589982515616157
 40
0.0
 41
0.0
 42
0.0
 10
-6.7776075622572964
 20
377.0877648307773597
 40
0.0
 41
0.0
 42
0.0
 10
-8.5464363057947068
 20
380.2740628199861135
 40
0.0
 41
0.0
 42
0.0
 10
-8.6077332022294684
 20
383.9178922191879337
 40
0.0
 41
0.0
 42
0.0
 10
-6.9614982515615829
 20
388.0192530283828205
 40
0.0
 41
0.0
 42
0.0
  0
TEXT
  5
40
330
1D
100
AcDbEntity
  8
0
  6
ByLayer
420
16777215
 48
1.0
 60
0
 67
0
370
-1
100
AcDbText
 39
0.0
 10
42.4585746912496305
 20
390.0860987886469502
 30
0.0
 40
16.0
  1
Hello
 50
-1718.8740481657619057
 41
1.0
 51
0.0
  7
Standard
 71
0
 72
0
 11
0.0
 21
0.0
 31
0.0
210
0.0
220
0.0
230
1.0
100
AcDbText
 73
0
  0
TEXT
  5
41
330
1D
100
AcDbEntity
  8
0
  6
ByLayer
420
8947848
 48
1.0
 60
0
 67
0
370
-1
100
AcDbText
 39
0.0
 10
13.9999750000006316
 20
329.25
 30
0.0
 40
11.0
  1
Rect+text at 30deg
 50
0.0
 41
1.0
 51
0.0
  7
Standard
 71
0
 72
0
 11
0.0
 21
0.0
 31
0.0
210
0.0
220
0.0
230
1.0
100
AcDbText
 73
0
  0
HATCH
  5
42
330
1D
100
AcDbEntity
  8
0
  6
ByLayer
420
16750592
 48
1.0
 60
0
 67
0
370
-1
100
AcDbHatch
 30
0.0
210
0.0
220
0.0
230
1.0
  2
SOLID
 70
1
 71
0
 91
1
 92
2
 72
0
 73
1
 93
5
 10
178.1801850000000229
 20
415.8198150000000055
 10
234.7487449999999853
 20
422.8908850000000257
 10
263.0330250000000092
 20
373.3933949999999982
 10
220.6066050000000018
 20
330.9669749999999908
 10
171.1091150000000027
 20
359.2512550000000147
 97
0
 75
0
 76
1
 47
0.0
 98
0
  0
LWPOLYLINE
  5
43
330
1D
100
AcDbEntity
  8
0
  6
ByLayer
420
15094016
 48
1.0
 60
0
 67
0
370
-1
100
AcDbPolyline
 90
5
 70
1
 43
0.0
 38
0.0
 39
0.0
210
0.0
220
0.0
230
1.0
 10
178.1801850000000229
 20
415.8198150000000055
 40
0.0
 41
0.0
 42
0.0
 10
234.7487449999999853
 20
422.8908850000000257
 40
0.0
 41
0.0
 42
0.0
 10
263.0330250000000092
 20
373.3933949999999982
 40
0.0
 41
0.0
 42
0.0
 10
220.6066050000000018
 20
330.9669749999999908
 40
0.0
 41
0.0
 42
0.0
 10
171.1091150000000027
 20
359.2512550000000147
 40
0.0
 41
0.0
 42
0.0
  0
TEXT
  5
44
330
1D
100
AcDbEntity
  8
0
  6
ByLayer
420
8947848
 48
1.0
 60
0
 67
0
370
-1
100
AcDbText
 39
0.0
 10
161.9999875000003158
 20
319.25
 30
0.0
 40
11.0
  1
Pentagon at -45deg
 50
0.0
 41
1.0
 51
0.0
  7
Standard
 71
0
 72
0
 11
0.0
 21
0.0
 31
0.0
210
0.0
220
0.0
230
1.0
100
AcDbText
 73
0
  0
HATCH
  5
45
330
1D
100
AcDbEntity
  8
0
  6
ByLayer
420
10233776
 48
1.0
 60
0
 67
0
370
-1
100
AcDbHatch
 30
0.0
210
0.0
220
0.0
230
1.0
  2
SOLID
 70
1
 71
0
 91
1
 92
2
 72
0
 73
1
 93
32
 10
372.5
 20
345.0288749999999709
 10
367.8438414059722277
 20
343.3390652140440125
 10
362.5019539936544675
 20
343.2118323489974614
 10
356.6796235005372182
 20
344.6520658925109046
 10
350.6005988222702854
 20
347.6044184771994878
 10
344.4984934680832112
 20
351.9554328489321051
 10
338.6078079246373136
 20
357.5379019654799322
 10
333.154917933832678
 20
364.1372946693788322
 10
328.3493749999999523
 20
371.5
 10
324.3758534431069052
 20
379.343073320540384
 10
321.3870534682082507
 20
387.3651097217378378
 10
319.4978329822010892
 20
395.2578268435042332
 10
318.7807936688756172
 20
402.7179119931366813
 10
319.2634909469227296
 20
409.4586782819989708
 10
320.9273750306466013
 20
415.2210818418752751
 10
323.7085037878268281
 20
419.7836767355527172
 10
327.5
 20
422.9711249999999723
 10
332.1561585940277155
 20
424.6609347859559307
 10
337.4980460063454757
 20
424.7881676510024818
 10
343.320376499462725
 20
423.3479341074890385
 10
349.3994011777296578
 20
420.3955815228004553
 10
355.501506531916732
 20
416.044567151067838
 10
361.3921920753626296
 20
410.462098034520011
 10
366.8450820661672651
 20
403.862705330621111
 10
371.6506249999999909
 20
396.5
 10
375.624146556893038
 20
388.6569266794595592
 10
378.6129465317916925
 20
380.6348902782621053
 10
380.502167017798854
 20
372.7421731564957099
 10
381.219206331124326
 20
365.2820880068632619
 10
380.7365090530772704
 20
358.5413217180009724
 10
379.0726249693533418
 20
352.7789181581247249
 10
376.2914962121731151
 20
348.2163232644472828
 97
0
 75
0
 76
1
 47
0.0
 98
0
  0
LWPOLYLINE
  5
46
330
1D
100
AcDbEntity
  8
0
  6
ByLayer
420
10233776
 48
1.0
 60
0
 67
0
370
-1
100
AcDbPolyline
 90
32
 70
1
 43
0.0
 38
0.0
 39
0.0
210
0.0
220
0.0
230
1.0
 10
372.5
 20
345.0288749999999709
 40
0.0
 41
0.0
 42
0.0
 10
367.8438414059722277
 20
343.3390652140440125
 40
0.0
 41
0.0
 42
0.0
 10
362.5019539936544675
 20
343.2118323489974614
 40
0.0
 41
0.0
 42
0.0
 10
356.6796235005372182
 20
344.6520658925109046
 40
0.0
 41
0.0
 42
0.0
 10
350.6005988222702854
 20
347.6044184771994878
 40
0.0
 41
0.0
 42
0.0
 10
344.4984934680832112
 20
351.9554328489321051
 40
0.0
 41
0.0
 42
0.0
 10
338.6078079246373136
 20
357.5379019654799322
 40
0.0
 41
0.0
 42
0.0
 10
333.154917933832678
 20
364.1372946693788322
 40
0.0
 41
0.0
 42
0.0
 10
328.3493749999999523
 20
371.5
 40
0.0
 41
0.0
 42
0.0
 10
324.3758534431069052
 20
379.343073320540384
 40
0.0
 41
0.0
 42
0.0
 10
321.3870534682082507
 20
387.3651097217378378
 40
0.0
 41
0.0
 42
0.0
 10
319.4978329822010892
 20
395.2578268435042332
 40
0.0
 41
0.0
 42
0.0
 10
318.7807936688756172
 20
402.7179119931366813
 40
0.0
 41
0.0
 42
0.0
 10
319.2634909469227296
 20
409.4586782819989708
 40
0.0
 41
0.0
 42
0.0
 10
320.9273750306466013
 20
415.2210818418752751
 40
0.0
 41
0.0
 42
0.0
 10
323.7085037878268281
 20
419.7836767355527172
 40
0.0
 41
0.0
 42
0.0
 10
327.5
 20
422.9711249999999723
 40
0.0
 41
0.0
 42
0.0
 10
332.1561585940277155
 20
424.6609347859559307
 40
0.0
 41
0.0
 42
0.0
 10
337.4980460063454757
 20
424.7881676510024818
 40
0.0
 41
0.0
 42
0.0
 10
343.320376499462725
 20
423.3479341074890385
 40
0.0
 41
0.0
 42
0.0
 10
349.3994011777296578
 20
420.3955815228004553
 40
0.0
 41
0.0
 42
0.0
 10
355.501506531916732
 20
416.044567151067838
 40
0.0
 41
0.0
 42
0.0
 10
361.3921920753626296
 20
410.462098034520011
 40
0.0
 41
0.0
 42
0.0
 10
366.8450820661672651
 20
403.862705330621111
 40
0.0
 41
0.0
 42
0.0
 10
371.6506249999999909
 20
396.5
 40
0.0
 41
0.0
 42
0.0
 10
375.624146556893038
 20
388.6569266794595592
 40
0.0
 41
0.0
 42
0.0
 10
378.6129465317916925
 20
380.6348902782621053
 40
0.0
 41
0.0
 42
0.0
 10
380.502167017798854
 20
372.7421731564957099
 40
0.0
 41
0.0
 42
0.0
 10
381.219206331124326
 20
365.2820880068632619
 40
0.0
 41
0.0
 42
0.0
 10
380.7365090530772704
 20
358.5413217180009724
 40
0.0
 41
0.0
 42
0.0
 10
379.0726249693533418
 20
352.7789181581247249
 40
0.0
 41
0.0
 42
0.0
 10
376.2914962121731151
 20
348.2163232644472828
 40
0.0
 41
0.0
 42
0.0
  0
TEXT
  5
47
330
1D
100
AcDbEntity
  8
0
  6
ByLayer
420
8947848
 48
1.0
 60
0
 67
0
370
-1
100
AcDbText
 39
0.0
 10
310.9999750000006316
 20
319.25
 30
0.0
 40
11.0
  1
Ellipse at 60deg
 50
0.0
 41
1.0
 51
0.0
  7
Standard
 71
0
 72
0
 11
0.0
 21
0.0
 31
0.0
210
0.0
220
0.0
230
1.0
100
AcDbText
 73
0
  0
TEXT
  5
48
330
1D
100
AcDbEntity
  8
0
  6
ByLayer
420
5592405
 48
1.0
 60
0
 67
0
370
-1
100
AcDbText
 39
0.0
 10
0.0
 20
272.5
 30
0.0
 40
14.0
  1
Combined transforms (scale + rotate)
 50
0.0
 41
1.0
 51
0.0
  7
Standard
 71
0
 72
0
 11
0.0
 21
0.0
 31
0.0
210
0.0
220
0.0
230
1.0
100
AcDbText
 73
0
  0
HATCH
  5
49
330
1D
100
AcDbEntity
  8
0
  6
ByLayer
420
16007990
 48
1.0
 60
0
 67
0
370
-1
100
AcDbHatch
 30
0.0
210
0.0
220
0.0
230
1.0
  2
SOLID
 70
1
 71
0
 91
1
 92
2
 72
0
 73
1
 93
4
 10
16.5735599999999934
 20
289.4847599999999943
 10
132.4847599999999943
 20
258.4264400000000137
 10
101.4264399999999853
 20
142.5152400000000625
 10
-14.484760000000005
 20
173.5735600000000431
 97
0
 75
0
 76
1
 47
0.0
 98
0
  0
LWPOLYLINE
  5
4A
330
1D
100
AcDbEntity
  8
0
  6
ByLayer
420
16007990
 48
1.0
 60
0
 67
0
370
-1
100
AcDbPolyline
 90
4
 70
1
 43
0.0
 38
0.0
 39
0.0
210
0.0
220
0.0
230
1.0
 10
16.5735599999999934
 20
289.4847599999999943
 40
0.0
 41
0.0
 42
0.0
 10
132.4847599999999943
 20
258.4264400000000137
 40
0.0
 41
0.0
 42
0.0
 10
101.4264399999999853
 20
142.5152400000000625
 40
0.0
 41
0.0
 42
0.0
 10
-14.484760000000005
 20
173.5735600000000431
 40
0.0
 41
0.0
 42
0.0
  0
HATCH
  5
4B
330
1D
100
AcDbEntity
  8
0
  6
ByLayer
420
16777215
 48
1.0
 60
0
 67
0
370
-1
100
AcDbHatch
 30
0.0
210
0.0
220
0.0
230
1.0
  2
SOLID
 70
1
 71
0
 91
1
 92
2
 72
0
 73
1
 93
4
 10
37.7867799999999932
 20
252.7423800000000256
 10
95.7423799999999972
 20
237.2132199999999784
 10
80.2132199999999926
 20
179.2576199999999744
 10
22.2576199999999886
 20
194.7867800000000216
 97
0
 75
0
 76
1
 47
0.0
 98
0
  0
LWPOLYLINE
  5
4C
330
1D
100
AcDbEntity
  8
0
  6
ByLayer
420
16777215
 48
1.0
 60
0
 67
0
370
-1
100
AcDbPolyline
 90
4
 70
1
 43
0.0
 38
0.0
 39
0.0
210
0.0
220
0.0
230
1.0
 10
37.7867799999999932
 20
252.7423800000000256
 40
0.0
 41
0.0
 42
0.0
 10
95.7423799999999972
 20
237.2132199999999784
 40
0.0
 41
0.0
 42
0.0
 10
80.2132199999999926
 20
179.2576199999999744
 40
0.0
 41
0.0
 42
0.0
 10
22.2576199999999886
 20
194.7867800000000216
 40
0.0
 41
0.0
 42
0.0
  0
TEXT
  5
4D
330
1D
100
AcDbEntity
  8
0
  6
ByLayer
420
8947848
 48
1.0
 60
0
 67
0
370
-1
100
AcDbText
 39
0.0
 10
-0.0000249999993684
 20
161.25
 30
0.0
 40
11.0
  1
scale(1.5) rotate(15deg)
 50
0.0
 41
1.0
 51
0.0
  7
Standard
 71
0
 72
0
 11
0.0
 21
0.0
 31
0.0
210
0.0
220
0.0
230
1.0
100
AcDbText
 73
0
  0
HATCH
  5
4E
330
1D
100
AcDbEntity
  8
0
  6
ByLayer
420
38536
 48
1.0
 60
0
 67
0
370
-1
100
AcDbHatch
 30
0.0
210
0.0
220
0.0
230
1.0
  2
SOLID
 70
1
 71
0
 91
1
 92
2
 72
0
 73
1
 93
4
 10
189.3556120000000078
 20
267.2685199999999668
 10
271.8628120000000195
 20
239.9069199999999569
 10
264.644388000000049
 20
164.7314799999999195
 10
182.137188000000009
 20
192.0930799999999863
 97
0
 75
0
 76
1
 47
0.0
 98
0
  0
LWPOLYLINE
  5
4F
330
1D
100
AcDbEntity
  8
0
  6
ByLayer
420
38536
 48
1.0
 60
0
 67
0
370
-1
100
AcDbPolyline
 90
4
 70
1
 43
0.0
 38
0.0
 39
0.0
210
0.0
220
0.0
230
1.0
 10
189.3556120000000078
 20
267.2685199999999668
 40
0.0
 41
0.0
 42
0.0
 10
271.8628120000000195
 20
239.9069199999999569
 40
0.0
 41
0.0
 42
0.0
 10
264.644388000000049
 20
164.7314799999999195
 40
0.0
 41
0.0
 42
0.0
 10
182.137188000000009
 20
192.0930799999999863
 40
0.0
 41
0.0
 42
0.0
  0
HATCH
  5
50
330
1D
100
AcDbEntity
  8
0
  6
ByLayer
420
11722715
 48
1.0
 60
0
 67
0
370
-1
100
AcDbHatch
 30
0.0
210
0.0
220
0.0
230
1.0
  2
SOLID
 70
1
 71
0
 91
1
 92
2
 72
0
 73
1
 93
32
 10
252.7835000000000036
 20
207.4494999999999436
 10
251.8480008202113822
 20
203.0306702107545789
 10
249.9576069038214996
 20
199.1102444920260268
 10
247.1849650288920088
 20
195.8388826055847858
 10
243.6366262677609598
 20
193.3423011541261758
 10
239.4489512890874039
 20
191.7164423627305041
 10
234.7828700938264888
 20
191.0237870729590668
 10
229.8176975655436536
 20
191.2909536391522352
 10
224.7442425000000412
 20
192.5076750000000629
 10
219.7574749301379597
 20
194.6271932359501307
 10
215.049033537055891
 20
197.5680564498344438
 10
210.7998610829655206
 20
201.2172489175986811
 10
207.1732508823142496
 20
205.4345342191973032
 10
204.3085715312866171
 20
210.0578444455707086
 10
202.3159110508119625
 20
214.9095083775015382
 10
201.271846265658013
 20
219.8030792909302704
 10
201.2164999999999964
 20
224.5504999999999995
 10
202.1519991797886178
 20
228.9693297892453643
 10
204.0423930961785288
 20
232.8897555079739732
 10
206.815034971108048
 20
236.1611173944151005
 10
210.3633737322390687
 20
238.6576988458738242
 10
214.551048710912653
 20
240.2835576372694959
 10
219.2171299061735681
 20
240.9762129270408764
 10
224.1823024344563464
 20
240.709046360847708
 10
229.2557575000000156
 20
239.4923249999999939
 10
234.2425250698620403
 20
237.3728067640498693
 10
238.9509664629441659
 20
234.4319435501654425
 10
243.2001389170345078
 20
230.782751082401262
 10
246.8267491176857789
 20
226.56546578080264
 10
249.6914284687134113
 20
221.9421555544292346
 10
251.6840889491880944
 20
217.0904916224984618
 10
252.7281537343419586
 20
212.1969207090696727
 97
0
 75
0
 76
1
 47
0.0
 98
0
  0
LWPOLYLINE
  5
51
330
1D
100
AcDbEntity
  8
0
  6
ByLayer
420
11722715
 48
1.0
 60
0
 67
0
370
-1
100
AcDbPolyline
 90
32
 70
1
 43
0.0
 38
0.0
 39
0.0
210
0.0
220
0.0
230
1.0
 10
252.7835000000000036
 20
207.4494999999999436
 40
0.0
 41
0.0
 42
0.0
 10
251.8480008202113822
 20
203.0306702107545789
 40
0.0
 41
0.0
 42
0.0
 10
249.9576069038214996
 20
199.1102444920260268
 40
0.0
 41
0.0
 42
0.0
 10
247.1849650288920088
 20
195.8388826055847858
 40
0.0
 41
0.0
 42
0.0
 10
243.6366262677609598
 20
193.3423011541261758
 40
0.0
 41
0.0
 42
0.0
 10
239.4489512890874039
 20
191.7164423627305041
 40
0.0
 41
0.0
 42
0.0
 10
234.7828700938264888
 20
191.0237870729590668
 40
0.0
 41
0.0
 42
0.0
 10
229.8176975655436536
 20
191.2909536391522352
 40
0.0
 41
0.0
 42
0.0
 10
224.7442425000000412
 20
192.5076750000000629
 40
0.0
 41
0.0
 42
0.0
 10
219.7574749301379597
 20
194.6271932359501307
 40
0.0
 41
0.0
 42
0.0
 10
215.049033537055891
 20
197.5680564498344438
 40
0.0
 41
0.0
 42
0.0
 10
210.7998610829655206
 20
201.2172489175986811
 40
0.0
 41
0.0
 42
0.0
 10
207.1732508823142496
 20
205.4345342191973032
 40
0.0
 41
0.0
 42
0.0
 10
204.3085715312866171
 20
210.0578444455707086
 40
0.0
 41
0.0
 42
0.0
 10
202.3159110508119625
 20
214.9095083775015382
 40
0.0
 41
0.0
 42
0.0
 10
201.271846265658013
 20
219.8030792909302704
 40
0.0
 41
0.0
 42
0.0
 10
201.2164999999999964
 20
224.5504999999999995
 40
0.0
 41
0.0
 42
0.0
 10
202.1519991797886178
 20
228.9693297892453643
 40
0.0
 41
0.0
 42
0.0
 10
204.0423930961785288
 20
232.8897555079739732
 40
0.0
 41
0.0
 42
0.0
 10
206.815034971108048
 20
236.1611173944151005
 40
0.0
 41
0.0
 42
0.0
 10
210.3633737322390687
 20
238.6576988458738242
 40
0.0
 41
0.0
 42
0.0
 10
214.551048710912653
 20
240.2835576372694959
 40
0.0
 41
0.0
 42
0.0
 10
219.2171299061735681
 20
240.9762129270408764
 40
0.0
 41
0.0
 42
0.0
 10
224.1823024344563464
 20
240.709046360847708
 40
0.0
 41
0.0
 42
0.0
 10
229.2557575000000156
 20
239.4923249999999939
 40
0.0
 41
0.0
 42
0.0
 10
234.2425250698620403
 20
237.3728067640498693
 40
0.0
 41
0.0
 42
0.0
 10
238.9509664629441659
 20
234.4319435501654425
 40
0.0
 41
0.0
 42
0.0
 10
243.2001389170345078
 20
230.782751082401262
 40
0.0
 41
0.0
 42
0.0
 10
246.8267491176857789
 20
226.56546578080264
 40
0.0
 41
0.0
 42
0.0
 10
249.6914284687134113
 20
221.9421555544292346
 40
0.0
 41
0.0
 42
0.0
 10
251.6840889491880944
 20
217.0904916224984618
 40
0.0
 41
0.0
 42
0.0
 10
252.7281537343419586
 20
212.1969207090696727
 40
0.0
 41
0.0
 42
0.0
  0
TEXT
  5
52
330
1D
100
AcDbEntity
  8
0
  6
ByLayer
420
8947848
 48
1.0
 60
0
 67
0
370
-1
100
AcDbText
 39
0.0
 10
156.9999624999982188
 20
161.25
 30
0.0
 40
11.0
  1
skewX(15deg) rotate(20deg)
 50
0.0
 41
1.0
 51
0.0
  7
Standard
 71
0
 72
0
 11
0.0
 21
0.0
 31
0.0
210
0.0
220
0.0
230
1.0
100
AcDbText
 73
0
  0
TEXT
  5
53
330
1D
100
AcDbEntity
  8
0
  6
ByLayer
420
5592405
 48
1.0
 60
0
 67
0
370
-1
100
AcDbText
 39
0.0
 10
0.0
 20
114.5
 30
0.0
 40
14.0
  1
Raster background-image with rotation (for comparison)
 50
0.0
 41
1.0
 51
0.0
  7
Standard
 71
0
 72
0
 11
0.0
 21
0.0
 31
0.0
210
0.0
220
0.0
230
1.0
100
AcDbText
 73
0
  0
TEXT
  5
54
330
1D
100
AcDbEntity
  8
0
  6
ByLayer
420
8947848
 48
1.0
 60
0
 67
0
370
-1
100
AcDbText
 39
0.0
 10
0.9999750000006316
 20
3.25
 30
0.0
 40
11.0
  1
Raster at 45deg
 50
0.0
 41
1.0
 51
0.0
  7
Standard
 71
0
 72
0
 11
0.0
 21
0.0
 31
0.0
210
0.0
220
0.0
230
1.0
100
AcDbText
 73
0
  0
ENDSEC
  0
SECTION
  2
OBJECTS
  0
DICTIONARY
  5
1
330
0
100
AcDbDictionary
280
0
281
0
  3
ACAD_COLOR
350
2
  3
ACAD_GROUP
350
3
  3
ACAD_LAYOUT
350
4
  3
ACAD_MATERIAL
350
5
  3
ACAD_SORTENTS
350
6
  3
ACAD_MLEADERSTYLE
350
7
  3
ACAD_MLINESTYLE
350
8
  3
ACAD_TABLESTYLE
350
9
  3
ACAD_PLOTSETTINGS
350
A
  3
AcDbVariableDictionary
350
B
  3
ACAD_SCALELIST
350
C
  3
ACAD_VISUALSTYLE
350
D
  3
ACAD_FIELDLIST
350
E
  3
ACAD_IMAGE_DICT
350
F
  0
DICTIONARY
  5
2
330
1
100
AcDbDictionary
280
0
281
0
  0
DICTIONARY
  5
3
330
1
100
AcDbDictionary
280
0
281
0
  0
DICTIONARY
  5
4
330
1
100
AcDbDictionary
280
0
281
0
  0
DICTIONARY
  5
5
330
1
100
AcDbDictionary
280
0
281
0
  0
DICTIONARY
  5
6
330
1
100
AcDbDictionary
280
0
281
0
  0
DICTIONARY
  5
7
330
1
100
AcDbDictionary
280
0
281
0
  0
DICTIONARY
  5
8
330
1
100
AcDbDictionary
280
0
281
0
  0
DICTIONARY
  5
9
330
1
100
AcDbDictionary
280
0
281
0
  0
DICTIONARY
  5
A
330
1
100
AcDbDictionary
280
0
281
0
  0
DICTIONARY
  5
B
330
1
100
AcDbDictionary
280
0
281
0
  0
DICTIONARY
  5
C
330
1
100
AcDbDictionary
280
0
281
0
  0
DICTIONARY
  5
D
330
1
100
AcDbDictionary
280
0
281
0
  0
DICTIONARY
  5
E
330
1
100
AcDbDictionary
280
0
281
0
  0
DICTIONARY
  5
F
330
1
100
AcDbDictionary
280
0
281
0
  0
ENDSEC
  0
EOF
