0
SECTION
2
HEADER
9
$ACADVER
1
AC1021
9
$LASTSAVEDBY
1
@tarikjabiri/dxf
9
$HANDSEED
5
2D
9
$INSUNITS
70
0
9
$CLAYER
8
0
9
$VIEWCTR
10
590
20
555
0
ENDSEC
0
SECTION
2
CLASSES
0
ENDSEC
0
SECTION
2
TABLES
0
TABLE
2
VPORT
5
1
330
0
100
AcDbSymbolTable
70
1
0
VPORT
5
19
330
1
100
AcDbSymbolTableRecord
100
AcDbViewportTableRecord
2
*Active
70
0
10
0
20
0
11
1
21
1
12
590
22
555
13
0
23
0
14
10
24
10
15
10
25
10
16
0
26
0
36
1
17
0
27
0
37
0
40
450
41
2
42
50
43
0
44
0
50
0
51
0
71
0
72
100
73
1
74
3
75
0
76
1
77
0
78
0
281
0
65
1
110
0
120
0
130
0
111
1
121
0
131
0
112
0
122
1
132
0
79
0
146
0
348
10020
60
7
61
5
292
1
282
1
141
0
142
0
63
250
421
3358443
0
ENDTAB
0
TABLE
2
LTYPE
5
2
330
0
100
AcDbSymbolTable
70
3
0
LTYPE
5
12
330
2
100
AcDbSymbolTableRecord
100
AcDbLinetypeTableRecord
2
ByBlock
70
0
3

72
65
73
0
40
0
0
LTYPE
5
13
330
2
100
AcDbSymbolTableRecord
100
AcDbLinetypeTableRecord
2
ByLayer
70
0
3

72
65
73
0
40
0
0
LTYPE
5
14
330
2
100
AcDbSymbolTableRecord
100
AcDbLinetypeTableRecord
2
Continuous
70
0
3
Solid line
72
65
73
0
40
0
0
ENDTAB
0
TABLE
2
LAYER
5
3
330
0
100
AcDbSymbolTable
70
1
0
LAYER
5
15
330
3
100
AcDbSymbolTableRecord
100
AcDbLayerTableRecord
2
0
70
0
62
7
6
Continuous
370
0
390
0
0
ENDTAB
0
TABLE
2
STYLE
5
4
330
0
100
AcDbSymbolTable
70
1
0
STYLE
5
16
330
4
100
AcDbSymbolTableRecord
100
AcDbTextStyleTableRecord
2
Standard
70
0
40
0
41
1
50
0
71
0
42
1
3
txt
4

0
ENDTAB
0
TABLE
2
VIEW
5
5
330
0
100
AcDbSymbolTable
70
0
0
ENDTAB
0
TABLE
2
UCS
5
6
330
0
100
AcDbSymbolTable
70
0
0
ENDTAB
0
TABLE
2
APPID
5
7
330
0
100
AcDbSymbolTable
70
1
0
APPID
5
17
330
7
100
AcDbSymbolTableRecord
100
AcDbRegAppTableRecord
2
ACAD
70
0
0
ENDTAB
0
TABLE
2
DIMSTYLE
5
8
330
0
100
AcDbSymbolTable
70
1
100
AcDbDimStyleTable
0
DIMSTYLE
105
18
330
8
100
AcDbSymbolTableRecord
100
AcDbDimStyleTableRecord
2
Standard
70
0
340
16
0
ENDTAB
0
TABLE
2
BLOCK_RECORD
5
9
330
0
100
AcDbSymbolTable
70
2
0
BLOCK_RECORD
5
C
330
9
100
AcDbSymbolTableRecord
100
AcDbBlockTableRecord
2
*Model_Space
70
0
280
1
281
0
0
BLOCK_RECORD
5
F
330
9
100
AcDbSymbolTableRecord
100
AcDbBlockTableRecord
2
*Paper_Space
70
0
280
1
281
0
0
ENDTAB
0
ENDSEC
0
SECTION
2
BLOCKS
0
BLOCK
5
D
330
C
100
AcDbEntity
8
0
100
AcDbBlockBegin
2
*Model_Space
70
0
10
0
20
0
30
0
3
*Model_Space
1

0
ENDBLK
5
E
100
AcDbEntity
8
0
100
AcDbBlockEnd
0
BLOCK
5
10
330
F
100
AcDbEntity
8
0
100
AcDbBlockBegin
2
*Paper_Space
70
0
10
0
20
0
30
0
3
*Paper_Space
1

0
ENDBLK
5
11
100
AcDbEntity
8
0
100
AcDbBlockEnd
0
ENDSEC
0
SECTION
2
ENTITIES
0
LWPOLYLINE
5
1A
330
C
100
AcDbEntity
420
#000000
8
0
100
AcDbPolyline
90
5
70
0
43
0
38
0
39
0
10
20
20
700
10
1260
20
700
10
1260
20
385
10
20
20
385
10
20
20
700
0
LWPOLYLINE
5
1B
330
C
100
AcDbEntity
420
#000000
8
0
100
AcDbPolyline
90
5
70
0
43
0
38
0
39
0
10
20
20
700
10
1260
20
700
10
1260
20
679
10
20
20
679
10
20
20
700
0
TEXT
5
1C
330
C
100
AcDbEntity
420
#000000
8
0
100
AcDbText
10
20
20
680
30
0
40
20
1
Borders & Border Radius
7
STANDARD
100
AcDbText
0
LWPOLYLINE
5
1D
330
C
100
AcDbEntity
420
#333333
8
0
100
AcDbPolyline
90
5
70
0
43
0
38
0
39
0
10
30
20
596
10
230
20
596
10
230
20
516
10
30
20
516
10
30
20
596
0
TEXT
5
1E
330
C
100
AcDbEntity
420
#ffe0b2
8
0
100
AcDbText
10
43
20
566
30
0
40
17
1
Solid border
7
STANDARD
100
AcDbText
0
LWPOLYLINE
5
1F
330
C
100
AcDbEntity
420
#1565c0
8
0
100
AcDbPolyline
90
5
70
0
43
0
38
0
39
0
10
254
20
595
10
454
20
595
10
454
20
515
10
254
20
515
10
254
20
595
0
TEXT
5
20
330
C
100
AcDbEntity
420
#bbdefb
8
0
100
AcDbText
10
266.453125
20
566
30
0
40
17
1
Dashed border
7
STANDARD
100
AcDbText
0
LWPOLYLINE
5
21
330
C
100
AcDbEntity
420
#c62828
8
0
100
AcDbPolyline
90
5
70
0
43
0
38
0
39
0
10
479
20
595
10
679
20
595
10
679
20
515
10
479
20
515
10
479
20
595
0
TEXT
5
22
330
C
100
AcDbEntity
420
#ffcdd2
8
0
100
AcDbText
10
490.90625
20
566
30
0
40
17
1
Dotted border
7
STANDARD
100
AcDbText
0
LWPOLYLINE
5
23
330
C
100
AcDbEntity
420
#ff0000
8
0
100
AcDbPolyline
90
5
70
0
43
0
38
0
39
0
10
703
20
597
10
903
20
597
10
903
20
517
10
703
20
517
10
703
20
597
0
TEXT
5
24
330
C
100
AcDbEntity
420
#e8f5e9
8
0
100
AcDbText
10
714.359375
20
566
30
0
40
17
1
Mixed borders
7
STANDARD
100
AcDbText
0
LWPOLYLINE
5
25
330
C
100
AcDbEntity
420
#6a1b9a
8
0
100
AcDbPolyline
90
5
70
0
43
0
38
0
39
0
10
928
20
595
10
1128
20
595
10
1128
20
515
10
928
20
515
10
928
20
595
0
TEXT
5
26
330
C
100
AcDbEntity
420
#e1bee7
8
0
100
AcDbText
10
939.8125
20
566
30
0
40
17
1
Rounded corners
7
STANDARD
100
AcDbText
0
LWPOLYLINE
5
27
330
C
100
AcDbEntity
420
#000000
8
0
100
AcDbPolyline
90
5
70
0
43
0
38
0
39
0
10
1152
20
659
10
1232
20
659
10
1232
20
579
10
1152
20
579
10
1152
20
659
0
LWPOLYLINE
5
28
330
C
100
AcDbEntity
420
#ffffff
8
0
100
AcDbPolyline
90
5
70
0
43
0
38
0
39
0
10
30
20
458
10
230
20
458
10
230
20
418
10
30
20
418
10
30
20
458
0
TEXT
5
29
330
C
100
AcDbEntity
420
#26a69a
8
0
100
AcDbText
10
98.46875
20
430
30
0
40
16
1
Pill Shape
7
STANDARD
100
AcDbText
0
LWPOLYLINE
5
2A
330
C
100
AcDbEntity
420
#ff6f00
8
0
100
AcDbPolyline
90
5
70
0
43
0
38
0
39
0
10
254
20
495
10
404
20
495
10
404
20
395
10
254
20
395
10
254
20
495
0
TEXT
5
2B
330
C
100
AcDbEntity
420
#fff8e1
8
0
100
AcDbText
10
284.453125
20
448
30
0
40
17
1
Thick border + padding
7
STANDARD
100
AcDbText
0
TEXT
5
2C
330
C
100
AcDbEntity
420
#fff8e1
8
0
100
AcDbText
10
284.453125
20
430
30
0
40
17
1
Thick border + padding
7
STANDARD
100
AcDbText
0
ENDSEC
0
SECTION
2
OBJECTS
0
DICTIONARY
5
A
330
0
100
AcDbDictionary
281
1
3
ACAD_GROUP
350
B
0
DICTIONARY
5
B
330
A
100
AcDbDictionary
281
0
0
ENDSEC
0
EOF