<?xml version="1.0" encoding="UTF-8"?>
<svg xmlns="http://www.w3.org/2000/svg" xmlns:xlink="http://www.w3.org/1999/xlink" width="1240" height="315" viewBox="0 0 1240 315">
<text x="0" y="1" fill="rgb(0, 0, 0)" dominant-baseline="text-before-edge" font-weight="700" font-size="18px" font-family="Arial, sans-serif">Borders &amp; Border Radius</text>
<g><rect x="10" y="104" width="200" height="80" rx="0" ry="0" fill="rgb(255, 224, 178)"/><rect x="10" y="104" width="200" height="80" rx="0" ry="0" fill="none" stroke="rgb(51, 51, 51)" stroke-width="3"/></g>
<text x="23" y="117.5" fill="rgb(0, 0, 0)" dominant-baseline="text-before-edge" font-size="16px" font-family="Arial, sans-serif">Solid border</text>
<g><rect x="234" y="105" width="200" height="80" rx="0" ry="0" fill="rgb(187, 222, 251)"/><rect x="234" y="105" width="200" height="80" rx="0" ry="0" fill="none" stroke="rgb(21, 101, 192)" stroke-width="2"/></g>
<text x="246.45" y="117.5" fill="rgb(0, 0, 0)" dominant-baseline="text-before-edge" font-size="16px" font-family="Arial, sans-serif">Dashed border</text>
<g><rect x="459" y="105" width="200" height="80" rx="0" ry="0" fill="rgb(255, 205, 210)"/><rect x="459" y="105" width="200" height="80" rx="0" ry="0" fill="none" stroke="rgb(198, 40, 40)" stroke-width="2"/></g>
<text x="470.91" y="117.5" fill="rgb(0, 0, 0)" dominant-baseline="text-before-edge" font-size="16px" font-family="Arial, sans-serif">Dotted border</text>
<rect x="683" y="103" width="200" height="80" rx="0" ry="0" fill="rgb(232, 245, 233)"/>
<line x1="683" y1="103" x2="883" y2="103" stroke="rgb(255, 0, 0)" stroke-width="4"/>
<line x1="883" y1="103" x2="883" y2="183" stroke="rgb(0, 128, 0)" stroke-width="2" stroke-dasharray="6 6"/>
<line x1="883" y1="184" x2="683" y2="184" stroke="rgb(0, 0, 255)" stroke-width="1"/>
<line x1="883" y1="182" x2="683" y2="182" stroke="rgb(0, 0, 255)" stroke-width="1"/>
<line x1="683" y1="183" x2="683" y2="103" stroke="rgb(255, 165, 0)" stroke-width="1"/>
<text x="694.36" y="117.5" fill="rgb(0, 0, 0)" dominant-baseline="text-before-edge" font-size="16px" font-family="Arial, sans-serif">Mixed borders</text>
<g><rect x="908" y="105" width="200" height="80" rx="15" ry="15" fill="rgb(225, 190, 231)"/><rect x="908" y="105" width="200" height="80" rx="15" ry="15" fill="none" stroke="rgb(106, 27, 154)" stroke-width="2"/></g>
<text x="919.81" y="117.5" fill="rgb(0, 0, 0)" dominant-baseline="text-before-edge" font-size="16px" font-family="Arial, sans-serif">Rounded corners</text>
<rect x="1132" y="41" width="80" height="80" rx="40" ry="40" fill="rgb(239, 83, 80)"/>
<rect x="10" y="242" width="200" height="40" rx="20" ry="20" fill="rgb(38, 166, 154)"/>
<text x="78.47" y="255" fill="rgb(255, 255, 255)" dominant-baseline="text-before-edge" font-size="14px" font-family="Arial, sans-serif">Pill Shape</text>
<g><rect x="234" y="205" width="150" height="100" rx="0" ry="0" fill="rgb(255, 248, 225)"/><rect x="234" y="205" width="150" height="100" rx="0" ry="0" fill="none" stroke="rgb(255, 111, 0)" stroke-width="10"/></g>
<text x="264.45" y="235.5" fill="rgb(0, 0, 0)" dominant-baseline="text-before-edge" font-size="16px" font-family="Arial, sans-serif">Thick border</text>
<text x="264.45" y="253.5" fill="rgb(0, 0, 0)" dominant-baseline="text-before-edge" font-size="16px" font-family="Arial, sans-serif">+ padding</text>
</svg>