0
SECTION
2
HEADER
9
$ACADVER
1
AC1021
9
$LASTSAVEDBY
1
@tarikjabiri/dxf
9
$HANDSEED
5
2B
9
$INSUNITS
70
0
9
$CLAYER
8
0
9
$VIEWCTR
10
556
20
170
0
ENDSEC
0
SECTION
2
CLASSES
0
ENDSEC
0
SECTION
2
TABLES
0
TABLE
2
VPORT
5
1
330
0
100
AcDbSymbolTable
70
1
0
VPORT
5
19
330
1
100
AcDbSymbolTableRecord
100
AcDbViewportTableRecord
2
*Active
70
0
10
0
20
0
11
1
21
1
12
556
22
170
13
0
23
0
14
10
24
10
15
10
25
10
16
0
26
0
36
1
17
0
27
0
37
0
40
450
41
2
42
50
43
0
44
0
50
0
51
0
71
0
72
100
73
1
74
3
75
0
76
1
77
0
78
0
281
0
65
1
110
0
120
0
130
0
111
1
121
0
131
0
112
0
122
1
132
0
79
0
146
0
348
10020
60
7
61
5
292
1
282
1
141
0
142
0
63
250
421
3358443
0
ENDTAB
0
TABLE
2
LTYPE
5
2
330
0
100
AcDbSymbolTable
70
3
0
LTYPE
5
12
330
2
100
AcDbSymbolTableRecord
100
AcDbLinetypeTableRecord
2
ByBlock
70
0
3

72
65
73
0
40
0
0
LTYPE
5
13
330
2
100
AcDbSymbolTableRecord
100
AcDbLinetypeTableRecord
2
ByLayer
70
0
3

72
65
73
0
40
0
0
LTYPE
5
14
330
2
100
AcDbSymbolTableRecord
100
AcDbLinetypeTableRecord
2
Continuous
70
0
3
Solid line
72
65
73
0
40
0
0
ENDTAB
0
TABLE
2
LAYER
5
3
330
0
100
AcDbSymbolTable
70
1
0
LAYER
5
15
330
3
100
AcDbSymbolTableRecord
100
AcDbLayerTableRecord
2
0
70
0
62
7
6
Continuous
370
0
390
0
0
ENDTAB
0
TABLE
2
STYLE
5
4
330
0
100
AcDbSymbolTable
70
1
0
STYLE
5
16
330
4
100
AcDbSymbolTableRecord
100
AcDbTextStyleTableRecord
2
Standard
70
0
40
0
41
1
50
0
71
0
42
1
3
txt
4

0
ENDTAB
0
TABLE
2
VIEW
5
5
330
0
100
AcDbSymbolTable
70
0
0
ENDTAB
0
TABLE
2
UCS
5
6
330
0
100
AcDbSymbolTable
70
0
0
ENDTAB
0
TABLE
2
APPID
5
7
330
0
100
AcDbSymbolTable
70
1
0
APPID
5
17
330
7
100
AcDbSymbolTableRecord
100
AcDbRegAppTableRecord
2
ACAD
70
0
0
ENDTAB
0
TABLE
2
DIMSTYLE
5
8
330
0
100
AcDbSymbolTable
70
1
100
AcDbDimStyleTable
0
DIMSTYLE
105
18
330
8
100
AcDbSymbolTableRecord
100
AcDbDimStyleTableRecord
2
Standard
70
0
340
16
0
ENDTAB
0
TABLE
2
BLOCK_RECORD
5
9
330
0
100
AcDbSymbolTable
70
2
0
BLOCK_RECORD
5
C
330
9
100
AcDbSymbolTableRecord
100
AcDbBlockTableRecord
2
*Model_Space
70
0
280
1
281
0
0
BLOCK_RECORD
5
F
330
9
100
AcDbSymbolTableRecord
100
AcDbBlockTableRecord
2
*Paper_Space
70
0
280
1
281
0
0
ENDTAB
0
ENDSEC
0
SECTION
2
BLOCKS
0
BLOCK
5
D
330
C
100
AcDbEntity
8
0
100
AcDbBlockBegin
2
*Model_Space
70
0
10
0
20
0
30
0
3
*Model_Space
1

0
ENDBLK
5
E
100
AcDbEntity
8
0
100
AcDbBlockEnd
0
BLOCK
5
10
330
F
100
AcDbEntity
8
0
100
AcDbBlockBegin
2
*Paper_Space
70
0
10
0
20
0
30
0
3
*Paper_Space
1

0
ENDBLK
5
11
100
AcDbEntity
8
0
100
AcDbBlockEnd
0
ENDSEC
0
SECTION
2
ENTITIES
0
TEXT
5
1A
330
C
100
AcDbEntity
420
0
8
0
100
AcDbText
10
0
20
295
30
0
40
20
1
Borders & Border Radius
7
STANDARD
100
AcDbText
0
LWPOLYLINE
5
1B
330
C
100
AcDbEntity
420
3355443
8
0
100
AcDbPolyline
90
5
70
0
43
0
38
0
39
0
10
10
20
211
10
210
20
211
10
210
20
131
10
10
20
131
10
10
20
211
0
TEXT
5
1C
330
C
100
AcDbEntity
420
0
8
0
100
AcDbText
10
23
20
181
30
0
40
17
1
Solid border
7
STANDARD
100
AcDbText
0
LWPOLYLINE
5
1D
330
C
100
AcDbEntity
420
1402304
8
0
100
AcDbPolyline
90
5
70
0
43
0
38
0
39
0
10
234
20
210
10
434
20
210
10
434
20
130
10
234
20
130
10
234
20
210
0
TEXT
5
1E
330
C
100
AcDbEntity
420
0
8
0
100
AcDbText
10
246
20
181
30
0
40
17
1
Dashed border
7
STANDARD
100
AcDbText
0
LWPOLYLINE
5
1F
330
C
100
AcDbEntity
420
12986408
8
0
100
AcDbPolyline
90
5
70
0
43
0
38
0
39
0
10
459
20
210
10
659
20
210
10
659
20
130
10
459
20
130
10
459
20
210
0
TEXT
5
20
330
C
100
AcDbEntity
420
0
8
0
100
AcDbText
10
471
20
181
30
0
40
17
1
Dotted border
7
STANDARD
100
AcDbText
0
LWPOLYLINE
5
21
330
C
100
AcDbEntity
420
16711680
8
0
100
AcDbPolyline
90
5
70
0
43
0
38
0
39
0
10
683
20
212
10
883
20
212
10
883
20
132
10
683
20
132
10
683
20
212
0
TEXT
5
22
330
C
100
AcDbEntity
420
0
8
0
100
AcDbText
10
694
20
181
30
0
40
17
1
Mixed borders
7
STANDARD
100
AcDbText
0
LWPOLYLINE
5
23
330
C
100
AcDbEntity
420
6953882
8
0
100
AcDbPolyline
90
42
70
0
43
0
38
0
39
0
10
923
20
210
10
1093
20
210
10
1093
20
210
10
1095.926354830242
20
209.71177920604845
10
1098.7402514854764
20
208.8581929876693
10
1101.333553495294
20
207.47204418453816
10
1103.6066017177982
20
205.6066017177982
10
1105.4720441845382
20
203.33355349529404
10
1106.8581929876693
20
200.74025148547634
10
1107.7117792060485
20
197.9263548302419
10
1108
20
195
10
1108
20
145
10
1108
20
145
10
1107.7117792060485
20
142.07364516975807
10
1106.8581929876693
20
139.25974851452366
10
1105.4720441845382
20
136.66644650470596
10
1103.6066017177982
20
134.3933982822018
10
1101.333553495294
20
132.5279558154618
10
1098.7402514854764
20
131.1418070123307
10
1095.926354830242
20
130.28822079395155
10
1093
20
130
10
923
20
130
10
923
20
130
10
920.073645169758
20
130.28822079395155
10
917.2597485145236
20
131.1418070123307
10
914.666446504706
20
132.5279558154618
10
912.3933982822018
20
134.3933982822018
10
910.5279558154618
20
136.66644650470596
10
909.1418070123307
20
139.25974851452366
10
908.2882207939515
20
142.07364516975807
10
908
20
145
10
908
20
195
10
908
20
195
10
908.2882207939515
20
197.9263548302419
10
909.1418070123307
20
200.74025148547634
10
910.5279558154618
20
203.33355349529404
10
912.3933982822018
20
205.6066017177982
10
914.666446504706
20
207.47204418453816
10
917.2597485145236
20
208.8581929876693
10
920.073645169758
20
209.71177920604845
10
923
20
210
10
923
20
210
0
TEXT
5
24
330
C
100
AcDbEntity
420
0
8
0
100
AcDbText
10
920
20
181
30
0
40
17
1
Rounded corners
7
STANDARD
100
AcDbText
0
LWPOLYLINE
5
25
330
C
100
AcDbEntity
420
0
8
0
100
AcDbPolyline
90
42
70
0
43
0
38
0
39
0
10
1172
20
274
10
1172
20
274
10
1172
20
274
10
1179.8036128806452
20
273.23141121612923
10
1187.3073372946035
20
270.9551813004515
10
1194.222809320784
20
267.2587844921018
10
1200.284271247462
20
262.2842712474619
10
1205.2587844921018
20
256.2228093207841
10
1208.9551813004514
20
249.3073372946036
10
1211.2314112161291
20
241.80361288064512
10
1212
20
234
10
1212
20
234
10
1212
20
234
10
1211.2314112161291
20
226.19638711935488
10
1208.9551813004514
20
218.6926627053964
10
1205.2587844921018
20
211.77719067921592
10
1200.284271247462
20
205.7157287525381
10
1194.222809320784
20
200.74121550789818
10
1187.3073372946035
20
197.04481869954853
10
1179.8036128806452
20
194.76858878387077
10
1172
20
194
10
1172
20
194
10
1172
20
194
10
1164.1963871193548
20
194.76858878387077
10
1156.6926627053965
20
197.04481869954853
10
1149.777190679216
20
200.74121550789818
10
1143.715728752538
20
205.7157287525381
10
1138.7412155078982
20
211.77719067921592
10
1135.0448186995486
20
218.6926627053964
10
1132.7685887838709
20
226.19638711935485
10
1132
20
234
10
1132
20
234
10
1132
20
234
10
1132.7685887838709
20
241.80361288064512
10
1135.0448186995486
20
249.3073372946036
10
1138.7412155078982
20
256.2228093207841
10
1143.715728752538
20
262.2842712474619
10
1149.777190679216
20
267.2587844921018
10
1156.6926627053963
20
270.95518130045144
10
1164.1963871193548
20
273.23141121612923
10
1172
20
274
10
1172
20
274
0
LWPOLYLINE
5
26
330
C
100
AcDbEntity
420
16777215
8
0
100
AcDbPolyline
90
42
70
0
43
0
38
0
39
0
10
30
20
73
10
190
20
73
10
190
20
73
10
193.90180644032256
20
72.61570560806462
10
197.6536686473018
20
71.47759065022575
10
201.11140466039205
20
69.62939224605091
10
204.14213562373095
20
67.14213562373095
10
206.6293922460509
20
64.11140466039205
10
208.47759065022575
20
60.6536686473018
10
209.61570560806462
20
56.90180644032256
10
210
20
53
10
210
20
53
10
210
20
53
10
209.61570560806462
20
49.09819355967744
10
208.47759065022575
20
45.3463313526982
10
206.6293922460509
20
41.888595339607946
10
204.14213562373095
20
38.85786437626905
10
201.11140466039205
20
36.370607753949116
10
197.6536686473018
20
34.52240934977425
10
193.90180644032256
20
33.384294391935384
10
190
20
33
10
30
20
33
10
30
20
33
10
26.098193559677437
20
33.384294391935384
10
22.346331352698208
20
34.52240934977425
10
18.88859533960796
20
36.370607753949116
10
15.85786437626905
20
38.85786437626905
10
13.370607753949095
20
41.888595339607946
10
11.522409349774264
20
45.3463313526982
10
10.384294391935391
20
49.09819355967744
10
10
20
53
10
10
20
53
10
10
20
53
10
10.384294391935391
20
56.90180644032256
10
11.522409349774264
20
60.6536686473018
10
13.370607753949091
20
64.11140466039205
10
15.857864376269045
20
67.14213562373095
10
18.888595339607956
20
69.62939224605091
10
22.346331352698193
20
71.47759065022572
10
26.098193559677426
20
72.61570560806462
10
29.999999999999996
20
73
10
30
20
73
0
TEXT
5
27
330
C
100
AcDbEntity
420
16777215
8
0
100
AcDbText
10
78
20
45
30
0
40
16
1
Pill Shape
7
STANDARD
100
AcDbText
0
LWPOLYLINE
5
28
330
C
100
AcDbEntity
420
16740096
8
0
100
AcDbPolyline
90
5
70
0
43
0
38
0
39
0
10
234
20
110
10
384
20
110
10
384
20
10
10
234
20
10
10
234
20
110
0
TEXT
5
29
330
C
100
AcDbEntity
420
0
8
0
100
AcDbText
10
264
20
62.5
30
0
40
17.5
1
Thick border
7
STANDARD
100
AcDbText
0
TEXT
5
2A
330
C
100
AcDbEntity
420
0
8
0
100
AcDbText
10
264
20
45
30
0
40
17.5
1
+ padding
7
STANDARD
100
AcDbText
0
ENDSEC
0
SECTION
2
OBJECTS
0
DICTIONARY
5
A
330
0
100
AcDbDictionary
281
1
3
ACAD_GROUP
350
B
0
DICTIONARY
5
B
330
A
100
AcDbDictionary
281
0
0
ENDSEC
0
EOF