0
SECTION
2
HEADER
9
$ACADVER
1
AC1021
9
$LASTSAVEDBY
1
@tarikjabiri/dxf
9
$HANDSEED
5
8C
9
$INSUNITS
70
0
9
$CLAYER
8
0
9
$VIEWCTR
10
590.5
20
651.125
0
ENDSEC
0
SECTION
2
CLASSES
0
ENDSEC
0
SECTION
2
TABLES
0
TABLE
2
VPORT
5
1
330
0
100
AcDbSymbolTable
70
1
0
VPORT
5
19
330
1
100
AcDbSymbolTableRecord
100
AcDbViewportTableRecord
2
*Active
70
0
10
0
20
0
11
1
21
1
12
590.5
22
651.125
13
0
23
0
14
10
24
10
15
10
25
10
16
0
26
0
36
1
17
0
27
0
37
0
40
1377.75
41
2
42
50
43
0
44
0
50
0
51
0
71
0
72
100
73
1
74
3
75
0
76
1
77
0
78
0
281
0
65
1
110
0
120
0
130
0
111
1
121
0
131
0
112
0
122
1
132
0
79
0
146
0
348
10020
60
7
61
5
292
1
282
1
141
0
142
0
63
250
421
3358443
0
ENDTAB
0
TABLE
2
LTYPE
5
2
330
0
100
AcDbSymbolTable
70
3
0
LTYPE
5
12
330
2
100
AcDbSymbolTableRecord
100
AcDbLinetypeTableRecord
2
ByBlock
70
0
3

72
65
73
0
40
0
0
LTYPE
5
13
330
2
100
AcDbSymbolTableRecord
100
AcDbLinetypeTableRecord
2
ByLayer
70
0
3

72
65
73
0
40
0
0
LTYPE
5
14
330
2
100
AcDbSymbolTableRecord
100
AcDbLinetypeTableRecord
2
Continuous
70
0
3
Solid line
72
65
73
0
40
0
0
ENDTAB
0
TABLE
2
LAYER
5
3
330
0
100
AcDbSymbolTable
70
1
0
LAYER
5
15
330
3
100
AcDbSymbolTableRecord
100
AcDbLayerTableRecord
2
0
70
0
62
7
6
Continuous
370
0
390
0
0
ENDTAB
0
TABLE
2
STYLE
5
4
330
0
100
AcDbSymbolTable
70
2
0
STYLE
5
16
330
4
100
AcDbSymbolTableRecord
100
AcDbTextStyleTableRecord
2
Standard
70
0
40
0
41
1
50
0
71
0
42
1
3
txt
4

0
STYLE
5
1B
330
4
100
AcDbSymbolTableRecord
100
AcDbTextStyleTableRecord
2
Arial
70
0
40
0
41
1
50
0
71
0
42
1
3
Arial.ttf
4

0
ENDTAB
0
TABLE
2
VIEW
5
5
330
0
100
AcDbSymbolTable
70
0
0
ENDTAB
0
TABLE
2
UCS
5
6
330
0
100
AcDbSymbolTable
70
0
0
ENDTAB
0
TABLE
2
APPID
5
7
330
0
100
AcDbSymbolTable
70
1
0
APPID
5
17
330
7
100
AcDbSymbolTableRecord
100
AcDbRegAppTableRecord
2
ACAD
70
0
0
ENDTAB
0
TABLE
2
DIMSTYLE
5
8
330
0
100
AcDbSymbolTable
70
1
100
AcDbDimStyleTable
0
DIMSTYLE
105
18
330
8
100
AcDbSymbolTableRecord
100
AcDbDimStyleTableRecord
2
Standard
70
0
340
16
0
ENDTAB
0
TABLE
2
BLOCK_RECORD
5
9
330
0
100
AcDbSymbolTable
70
2
0
BLOCK_RECORD
5
C
330
9
100
AcDbSymbolTableRecord
100
AcDbBlockTableRecord
2
*Model_Space
70
0
280
1
281
0
0
BLOCK_RECORD
5
F
330
9
100
AcDbSymbolTableRecord
100
AcDbBlockTableRecord
2
*Paper_Space
70
0
280
1
281
0
0
ENDTAB
0
ENDSEC
0
SECTION
2
BLOCKS
0
BLOCK
5
D
330
C
100
AcDbEntity
8
0
100
AcDbBlockBegin
2
*Model_Space
70
0
10
0
20
0
30
0
3
*Model_Space
1

0
ENDBLK
5
E
100
AcDbEntity
8
0
100
AcDbBlockEnd
0
BLOCK
5
10
330
F
100
AcDbEntity
8
0
100
AcDbBlockBegin
2
*Paper_Space
70
0
10
0
20
0
30
0
3
*Paper_Space
1

0
ENDBLK
5
11
100
AcDbEntity
8
0
100
AcDbBlockEnd
0
ENDSEC
0
SECTION
2
ENTITIES
0
TEXT
5
1A
330
C
100
AcDbEntity
420
2042167
8
0
100
AcDbText
10
24
20
1240
30
0
40
22
1
CSS Color Spaces & Functions
7
Arial
100
AcDbText
0
TEXT
5
1C
330
C
100
AcDbEntity
420
2042167
8
0
100
AcDbText
10
24
20
1213.4999949932098
30
0
40
14
1
Exercises all predefined color() profiles, plus hsl(), hwb(), lab(), lch(), oklab(), oklch().
7
Arial
100
AcDbText
0
TEXT
5
1D
330
C
100
AcDbEntity
420
2042167
8
0
100
AcDbText
10
24
20
1174.25
30
0
40
17
1
color() — Predefined RGB Profiles
7
Arial
100
AcDbText
0
LWPOLYLINE
5
1E
330
C
100
AcDbEntity
420
0
8
0
100
AcDbPolyline
90
42
70
0
43
0
38
0
39
0
10
38
20
1160
10
204
20
1160
10
204
20
1160
10
206.7312645082258
20
1159.7309939256452
10
209.35756805311127
20
1158.934313455158
10
211.77798326227443
20
1157.6405745722357
10
213.89949493661166
20
1155.8994949366117
10
215.64057457223564
20
1153.7779832622743
10
216.93431345515802
20
1151.3575680531112
10
217.73099392564524
20
1148.7312645082259
10
218
20
1146
10
218
20
1074
10
218
20
1074
10
217.73099392564524
20
1071.2687354917741
10
216.93431345515802
20
1068.6424319468888
10
215.64057457223564
20
1066.2220167377257
10
213.89949493661166
20
1064.1005050633883
10
211.77798326227443
20
1062.3594254277643
10
209.35756805311127
20
1061.065686544842
10
206.7312645082258
20
1060.2690060743548
10
204
20
1060
10
38
20
1060
10
38
20
1060
10
35.26873549177421
20
1060.2690060743548
10
32.64243194688874
20
1061.065686544842
10
30.222016737725575
20
1062.3594254277643
10
28.100505063388336
20
1064.1005050633883
10
26.359425427764364
20
1066.2220167377257
10
25.065686544841988
20
1068.6424319468888
10
24.269006074354774
20
1071.2687354917741
10
24
20
1074
10
24
20
1146
10
24
20
1146
10
24.269006074354774
20
1148.7312645082259
10
25.065686544841984
20
1151.3575680531112
10
26.359425427764364
20
1153.7779832622743
10
28.100505063388333
20
1155.8994949366117
10
30.222016737725568
20
1157.6405745722357
10
32.642431946888735
20
1158.934313455158
10
35.2687354917742
20
1159.7309939256452
10
38
20
1160
10
38
20
1160
0
TEXT
5
1F
330
C
100
AcDbEntity
420
16777215
8
0
100
AcDbText
10
37.99997500000063
20
1137.25
30
0
40
11
1
SRGB
7
Arial
100
AcDbText
0
TEXT
5
20
330
C
100
AcDbEntity
420
16777215
8
0
100
AcDbText
10
37.99997500000063
20
1078.25
30
0
40
13
1
color(srgb 1 0.3 0.2)
7
Arial
100
AcDbText
0
LWPOLYLINE
5
21
330
C
100
AcDbEntity
420
0
8
0
100
AcDbPolyline
90
42
70
0
43
0
38
0
39
0
10
246
20
1160
10
412
20
1160
10
412
20
1160
10
414.7312645082258
20
1159.7309939256452
10
417.35756805311127
20
1158.934313455158
10
419.77798326227446
20
1157.6405745722357
10
421.8994949366117
20
1155.8994949366117
10
423.6405745722356
20
1153.7779832622743
10
424.934313455158
20
1151.3575680531112
10
425.73099392564524
20
1148.7312645082259
10
426
20
1146
10
426
20
1074
10
426
20
1074
10
425.73099392564524
20
1071.2687354917741
10
424.934313455158
20
1068.6424319468888
10
423.6405745722356
20
1066.2220167377257
10
421.8994949366117
20
1064.1005050633883
10
419.77798326227446
20
1062.3594254277643
10
417.35756805311127
20
1061.065686544842
10
414.7312645082258
20
1060.2690060743548
10
412
20
1060
10
246
20
1060
10
246
20
1060
10
243.2687354917742
20
1060.2690060743548
10
240.64243194688873
20
1061.065686544842
10
238.22201673772557
20
1062.3594254277643
10
236.10050506338834
20
1064.1005050633883
10
234.35942542776436
20
1066.2220167377257
10
233.06568654484198
20
1068.6424319468888
10
232.26900607435476
20
1071.2687354917741
10
232
20
1074
10
232
20
1146
10
232
20
1146
10
232.26900607435476
20
1148.7312645082259
10
233.06568654484198
20
1151.3575680531112
10
234.35942542776436
20
1153.7779832622743
10
236.10050506338834
20
1155.8994949366117
10
238.22201673772557
20
1157.6405745722357
10
240.64243194688873
20
1158.934313455158
10
243.2687354917742
20
1159.7309939256452
10
246
20
1160
10
246
20
1160
0
TEXT
5
22
330
C
100
AcDbEntity
420
16777215
8
0
100
AcDbText
10
245.99996249999822
20
1137.25
30
0
40
11
1
SRGB-LINEAR
7
Arial
100
AcDbText
0
TEXT
5
23
330
C
100
AcDbEntity
420
16777215
8
0
100
AcDbText
10
245.99996249999998
20
1093.25
30
0
40
13
1
color(srgb-linear 1 0.1
7
Arial
100
AcDbText
0
TEXT
5
24
330
C
100
AcDbEntity
420
16777215
8
0
100
AcDbText
10
245.99996249999998
20
1078.25
30
0
40
13
1
0.05)
7
Arial
100
AcDbText
0
LWPOLYLINE
5
25
330
C
100
AcDbEntity
420
0
8
0
100
AcDbPolyline
90
42
70
0
43
0
38
0
39
0
10
453
20
1160
10
619
20
1160
10
619
20
1160
10
621.7312645082258
20
1159.7309939256452
10
624.3575680531112
20
1158.934313455158
10
626.7779832622745
20
1157.6405745722357
10
628.8994949366116
20
1155.8994949366117
10
630.6405745722357
20
1153.7779832622743
10
631.934313455158
20
1151.3575680531112
10
632.7309939256452
20
1148.7312645082259
10
633
20
1146
10
633
20
1074
10
633
20
1074
10
632.7309939256452
20
1071.2687354917741
10
631.934313455158
20
1068.6424319468888
10
630.6405745722357
20
1066.2220167377257
10
628.8994949366116
20
1064.1005050633883
10
626.7779832622745
20
1062.3594254277643
10
624.3575680531112
20
1061.065686544842
10
621.7312645082258
20
1060.2690060743548
10
619
20
1060
10
453
20
1060
10
453
20
1060
10
450.2687354917742
20
1060.2690060743548
10
447.64243194688873
20
1061.065686544842
10
445.2220167377256
20
1062.3594254277643
10
443.1005050633883
20
1064.1005050633883
10
441.35942542776434
20
1066.2220167377257
10
440.065686544842
20
1068.6424319468888
10
439.26900607435476
20
1071.2687354917741
10
439
20
1074
10
439
20
1146
10
439
20
1146
10
439.26900607435476
20
1148.7312645082259
10
440.065686544842
20
1151.3575680531112
10
441.35942542776434
20
1153.7779832622743
10
443.1005050633883
20
1155.8994949366117
10
445.2220167377256
20
1157.6405745722357
10
447.64243194688873
20
1158.934313455158
10
450.2687354917742
20
1159.7309939256452
10
453
20
1160
10
453
20
1160
0
TEXT
5
26
330
C
100
AcDbEntity
420
16777215
8
0
100
AcDbText
10
452.9999624999982
20
1137.25
30
0
40
11
1
DISPLAY-P3
7
Arial
100
AcDbText
0
TEXT
5
27
330
C
100
AcDbEntity
420
16777215
8
0
100
AcDbText
10
452.9999625
20
1093.25
30
0
40
13
1
color(display-p3 0.95 0.3
7
Arial
100
AcDbText
0
TEXT
5
28
330
C
100
AcDbEntity
420
16777215
8
0
100
AcDbText
10
452.9999625
20
1078.25
30
0
40
13
1
0.2)
7
Arial
100
AcDbText
0
LWPOLYLINE
5
29
330
C
100
AcDbEntity
420
0
8
0
100
AcDbPolyline
90
42
70
0
43
0
38
0
39
0
10
661
20
1160
10
827
20
1160
10
827
20
1160
10
829.7312645082258
20
1159.7309939256452
10
832.3575680531112
20
1158.934313455158
10
834.7779832622745
20
1157.6405745722357
10
836.8994949366116
20
1155.8994949366117
10
838.6405745722357
20
1153.7779832622743
10
839.934313455158
20
1151.3575680531112
10
840.7309939256452
20
1148.7312645082259
10
841
20
1146
10
841
20
1074
10
841
20
1074
10
840.7309939256452
20
1071.2687354917741
10
839.934313455158
20
1068.6424319468888
10
838.6405745722357
20
1066.2220167377257
10
836.8994949366116
20
1064.1005050633883
10
834.7779832622745
20
1062.3594254277643
10
832.3575680531112
20
1061.065686544842
10
829.7312645082258
20
1060.2690060743548
10
827
20
1060
10
661
20
1060
10
661
20
1060
10
658.2687354917742
20
1060.2690060743548
10
655.6424319468888
20
1061.065686544842
10
653.2220167377255
20
1062.3594254277643
10
651.1005050633884
20
1064.1005050633883
10
649.3594254277643
20
1066.2220167377257
10
648.065686544842
20
1068.6424319468888
10
647.2690060743548
20
1071.2687354917741
10
647
20
1074
10
647
20
1146
10
647
20
1146
10
647.2690060743548
20
1148.7312645082259
10
648.065686544842
20
1151.3575680531112
10
649.3594254277643
20
1153.7779832622743
10
651.1005050633884
20
1155.8994949366117
10
653.2220167377255
20
1157.6405745722357
10
655.6424319468888
20
1158.934313455158
10
658.2687354917742
20
1159.7309939256452
10
661
20
1160
10
661
20
1160
0
TEXT
5
2A
330
C
100
AcDbEntity
420
16777215
8
0
100
AcDbText
10
660.9999750000006
20
1137.25
30
0
40
11
1
A98-RGB
7
Arial
100
AcDbText
0
TEXT
5
2B
330
C
100
AcDbEntity
420
16777215
8
0
100
AcDbText
10
660.999975
20
1093.25
30
0
40
13
1
color(a98-rgb 0.85 0.2
7
Arial
100
AcDbText
0
TEXT
5
2C
330
C
100
AcDbEntity
420
16777215
8
0
100
AcDbText
10
660.999975
20
1078.25
30
0
40
13
1
0.15)
7
Arial
100
AcDbText
0
LWPOLYLINE
5
2D
330
C
100
AcDbEntity
420
0
8
0
100
AcDbPolyline
90
42
70
0
43
0
38
0
39
0
10
869
20
1160
10
1035
20
1160
10
1035
20
1160
10
1037.7312645082259
20
1159.7309939256452
10
1040.3575680531112
20
1158.934313455158
10
1042.7779832622743
20
1157.6405745722357
10
1044.8994949366117
20
1155.8994949366117
10
1046.6405745722357
20
1153.7779832622743
10
1047.934313455158
20
1151.3575680531112
10
1048.7309939256452
20
1148.7312645082259
10
1049
20
1146
10
1049
20
1074
10
1049
20
1074
10
1048.7309939256452
20
1071.2687354917741
10
1047.934313455158
20
1068.6424319468888
10
1046.6405745722357
20
1066.2220167377257
10
1044.8994949366117
20
1064.1005050633883
10
1042.7779832622743
20
1062.3594254277643
10
1040.3575680531112
20
1061.065686544842
10
1037.7312645082259
20
1060.2690060743548
10
1035
20
1060
10
869
20
1060
10
869
20
1060
10
866.2687354917742
20
1060.2690060743548
10
863.6424319468888
20
1061.065686544842
10
861.2220167377255
20
1062.3594254277643
10
859.1005050633884
20
1064.1005050633883
10
857.3594254277643
20
1066.2220167377257
10
856.065686544842
20
1068.6424319468888
10
855.2690060743548
20
1071.2687354917741
10
855
20
1074
10
855
20
1146
10
855
20
1146
10
855.2690060743548
20
1148.7312645082259
10
856.065686544842
20
1151.3575680531112
10
857.3594254277643
20
1153.7779832622743
10
859.1005050633884
20
1155.8994949366117
10
861.2220167377255
20
1157.6405745722357
10
863.6424319468888
20
1158.934313455158
10
866.2687354917742
20
1159.7309939256452
10
869
20
1160
10
869
20
1160
0
TEXT
5
2E
330
C
100
AcDbEntity
420
16777215
8
0
100
AcDbText
10
868.9999624999982
20
1137.25
30
0
40
11
1
PROPHOTO-RGB
7
Arial
100
AcDbText
0
TEXT
5
2F
330
C
100
AcDbEntity
420
16777215
8
0
100
AcDbText
10
868.9999625
20
1093.25
30
0
40
13
1
color(prophoto-rgb 0.7 0.2
7
Arial
100
AcDbText
0
TEXT
5
30
330
C
100
AcDbEntity
420
16777215
8
0
100
AcDbText
10
868.9999625
20
1078.25
30
0
40
13
1
0.1)
7
Arial
100
AcDbText
0
LWPOLYLINE
5
31
330
C
100
AcDbEntity
420
0
8
0
100
AcDbPolyline
90
42
70
0
43
0
38
0
39
0
10
1076
20
1160
10
1242
20
1160
10
1242
20
1160
10
1244.7312645082259
20
1159.7309939256452
10
1247.3575680531112
20
1158.934313455158
10
1249.7779832622743
20
1157.6405745722357
10
1251.8994949366117
20
1155.8994949366117
10
1253.6405745722357
20
1153.7779832622743
10
1254.934313455158
20
1151.3575680531112
10
1255.7309939256452
20
1148.7312645082259
10
1256
20
1146
10
1256
20
1074
10
1256
20
1074
10
1255.7309939256452
20
1071.2687354917741
10
1254.934313455158
20
1068.6424319468888
10
1253.6405745722357
20
1066.2220167377257
10
1251.8994949366117
20
1064.1005050633883
10
1249.7779832622743
20
1062.3594254277643
10
1247.3575680531112
20
1061.065686544842
10
1244.7312645082259
20
1060.2690060743548
10
1242
20
1060
10
1076
20
1060
10
1076
20
1060
10
1073.2687354917741
20
1060.2690060743548
10
1070.6424319468888
20
1061.065686544842
10
1068.2220167377257
20
1062.3594254277643
10
1066.1005050633883
20
1064.1005050633883
10
1064.3594254277643
20
1066.2220167377257
10
1063.065686544842
20
1068.6424319468888
10
1062.2690060743548
20
1071.2687354917741
10
1062
20
1074
10
1062
20
1146
10
1062
20
1146
10
1062.2690060743548
20
1148.7312645082259
10
1063.065686544842
20
1151.3575680531112
10
1064.3594254277643
20
1153.7779832622743
10
1066.1005050633883
20
1155.8994949366117
10
1068.2220167377257
20
1157.6405745722357
10
1070.6424319468888
20
1158.934313455158
10
1073.2687354917741
20
1159.7309939256452
10
1076
20
1160
10
1076
20
1160
0
TEXT
5
32
330
C
100
AcDbEntity
420
16777215
8
0
100
AcDbText
10
1075.9999624999982
20
1137.25
30
0
40
11
1
REC2020
7
Arial
100
AcDbText
0
TEXT
5
33
330
C
100
AcDbEntity
420
16777215
8
0
100
AcDbText
10
1075.9999625
20
1093.25
30
0
40
13
1
color(rec2020 0.85 0.2
7
Arial
100
AcDbText
0
TEXT
5
34
330
C
100
AcDbEntity
420
16777215
8
0
100
AcDbText
10
1075.9999625
20
1078.25
30
0
40
13
1
0.15)
7
Arial
100
AcDbText
0
TEXT
5
35
330
C
100
AcDbEntity
420
2042167
8
0
100
AcDbText
10
24
20
1026.25
30
0
40
17
1
color() — XYZ Profiles
7
Arial
100
AcDbText
0
LWPOLYLINE
5
36
330
C
100
AcDbEntity
420
0
8
0
100
AcDbPolyline
90
42
70
0
43
0
38
0
39
0
10
38
20
1012
10
411
20
1012
10
411
20
1012
10
413.7312645082258
20
1011.7309939256452
10
416.35756805311127
20
1010.934313455158
10
418.77798326227446
20
1009.6405745722357
10
420.8994949366117
20
1007.8994949366117
10
422.6405745722356
20
1005.7779832622743
10
423.934313455158
20
1003.3575680531112
10
424.73099392564524
20
1000.7312645082259
10
425
20
998
10
425
20
926
10
425
20
926
10
424.73099392564524
20
923.2687354917741
10
423.934313455158
20
920.6424319468888
10
422.6405745722356
20
918.2220167377257
10
420.8994949366117
20
916.1005050633883
10
418.77798326227446
20
914.3594254277643
10
416.35756805311127
20
913.065686544842
10
413.7312645082258
20
912.2690060743548
10
411
20
912
10
38
20
912
10
38
20
912
10
35.26873549177421
20
912.2690060743548
10
32.64243194688874
20
913.065686544842
10
30.222016737725575
20
914.3594254277643
10
28.100505063388336
20
916.1005050633883
10
26.359425427764364
20
918.2220167377257
10
25.065686544841988
20
920.6424319468888
10
24.269006074354774
20
923.2687354917741
10
24
20
926
10
24
20
998
10
24
20
998
10
24.269006074354774
20
1000.7312645082259
10
25.065686544841984
20
1003.3575680531112
10
26.359425427764364
20
1005.7779832622743
10
28.100505063388333
20
1007.8994949366117
10
30.222016737725568
20
1009.6405745722357
10
32.642431946888735
20
1010.934313455158
10
35.2687354917742
20
1011.7309939256452
10
38
20
1012
10
38
20
1012
0
TEXT
5
37
330
C
100
AcDbEntity
420
16777215
8
0
100
AcDbText
10
37.99993749999703
20
989.25
30
0
40
11
1
XYZ-D65
7
Arial
100
AcDbText
0
TEXT
5
38
330
C
100
AcDbEntity
420
16777215
8
0
100
AcDbText
10
37.99993749999703
20
930.25
30
0
40
13
1
color(xyz-d65 0.41 0.21 0.02)
7
Arial
100
AcDbText
0
LWPOLYLINE
5
39
330
C
100
AcDbEntity
420
0
8
0
100
AcDbPolyline
90
42
70
0
43
0
38
0
39
0
10
453
20
1012
10
826
20
1012
10
826
20
1012
10
828.7312645082258
20
1011.7309939256452
10
831.3575680531112
20
1010.934313455158
10
833.7779832622745
20
1009.6405745722357
10
835.8994949366116
20
1007.8994949366117
10
837.6405745722357
20
1005.7779832622743
10
838.934313455158
20
1003.3575680531112
10
839.7309939256452
20
1000.7312645082259
10
840
20
998
10
840
20
926
10
840
20
926
10
839.7309939256452
20
923.2687354917741
10
838.934313455158
20
920.6424319468888
10
837.6405745722357
20
918.2220167377257
10
835.8994949366116
20
916.1005050633883
10
833.7779832622745
20
914.3594254277643
10
831.3575680531112
20
913.065686544842
10
828.7312645082258
20
912.2690060743548
10
826
20
912
10
453
20
912
10
453
20
912
10
450.2687354917742
20
912.2690060743548
10
447.64243194688873
20
913.065686544842
10
445.2220167377256
20
914.3594254277643
10
443.1005050633883
20
916.1005050633883
10
441.35942542776434
20
918.2220167377257
10
440.065686544842
20
920.6424319468888
10
439.26900607435476
20
923.2687354917741
10
439
20
926
10
439
20
998
10
439
20
998
10
439.26900607435476
20
1000.7312645082259
10
440.065686544842
20
1003.3575680531112
10
441.35942542776434
20
1005.7779832622743
10
443.1005050633883
20
1007.8994949366117
10
445.2220167377256
20
1009.6405745722357
10
447.64243194688873
20
1010.934313455158
10
450.2687354917742
20
1011.7309939256452
10
453
20
1012
10
453
20
1012
0
TEXT
5
3A
330
C
100
AcDbEntity
420
16777215
8
0
100
AcDbText
10
452.99993749999703
20
989.25
30
0
40
11
1
XYZ-D50
7
Arial
100
AcDbText
0
TEXT
5
3B
330
C
100
AcDbEntity
420
16777215
8
0
100
AcDbText
10
452.99993749999703
20
930.25
30
0
40
13
1
color(xyz-d50 0.44 0.22 0.01)
7
Arial
100
AcDbText
0
LWPOLYLINE
5
3C
330
C
100
AcDbEntity
420
0
8
0
100
AcDbPolyline
90
42
70
0
43
0
38
0
39
0
10
869
20
1012
10
1242
20
1012
10
1242
20
1012
10
1244.7312645082259
20
1011.7309939256452
10
1247.3575680531112
20
1010.934313455158
10
1249.7779832622743
20
1009.6405745722357
10
1251.8994949366117
20
1007.8994949366117
10
1253.6405745722357
20
1005.7779832622743
10
1254.934313455158
20
1003.3575680531112
10
1255.7309939256452
20
1000.7312645082259
10
1256
20
998
10
1256
20
926
10
1256
20
926
10
1255.7309939256452
20
923.2687354917741
10
1254.934313455158
20
920.6424319468888
10
1253.6405745722357
20
918.2220167377257
10
1251.8994949366117
20
916.1005050633883
10
1249.7779832622743
20
914.3594254277643
10
1247.3575680531112
20
913.065686544842
10
1244.7312645082259
20
912.2690060743548
10
1242
20
912
10
869
20
912
10
869
20
912
10
866.2687354917742
20
912.2690060743548
10
863.6424319468888
20
913.065686544842
10
861.2220167377255
20
914.3594254277643
10
859.1005050633884
20
916.1005050633883
10
857.3594254277643
20
918.2220167377257
10
856.065686544842
20
920.6424319468888
10
855.2690060743548
20
923.2687354917741
10
855
20
926
10
855
20
998
10
855
20
998
10
855.2690060743548
20
1000.7312645082259
10
856.065686544842
20
1003.3575680531112
10
857.3594254277643
20
1005.7779832622743
10
859.1005050633884
20
1007.8994949366117
10
861.2220167377255
20
1009.6405745722357
10
863.6424319468888
20
1010.934313455158
10
866.2687354917742
20
1011.7309939256452
10
869
20
1012
10
869
20
1012
0
TEXT
5
3D
330
C
100
AcDbEntity
420
16777215
8
0
100
AcDbText
10
869.0001250000059
20
989.25
30
0
40
11
1
XYZ (ALIAS FOR XYZ-D65)
7
Arial
100
AcDbText
0
TEXT
5
3E
330
C
100
AcDbEntity
420
16777215
8
0
100
AcDbText
10
869.0001250000059
20
930.25
30
0
40
13
1
color(xyz 0.15 0.25 0.4)
7
Arial
100
AcDbText
0
TEXT
5
3F
330
C
100
AcDbEntity
420
2042167
8
0
100
AcDbText
10
24
20
878.25
30
0
40
17
1
color() with Alpha
7
Arial
100
AcDbText
0
LWPOLYLINE
5
40
330
C
100
AcDbEntity
420
0
8
0
100
AcDbPolyline
90
42
70
0
43
0
38
0
39
0
10
54
20
864
10
104
20
864
10
104
20
864
10
109.85270966048385
20
863.4235584120969
10
115.4805029709527
20
861.7163859753387
10
120.66710699058807
20
858.9440883690763
10
125.21320343559643
20
855.2132034355964
10
128.94408836907635
20
850.6671069905881
10
131.7163859753386
20
845.4805029709527
10
133.42355841209692
20
839.8527096604839
10
134
20
834
10
134
20
834
10
134
20
834
10
133.42355841209692
20
828.1472903395161
10
131.7163859753386
20
822.5194970290473
10
128.94408836907635
20
817.3328930094119
10
125.21320343559643
20
812.7867965644036
10
120.66710699058807
20
809.0559116309237
10
115.4805029709527
20
806.2836140246613
10
109.85270966048385
20
804.5764415879031
10
104
20
804
10
54
20
804
10
54
20
804
10
48.147290339516154
20
804.5764415879031
10
42.51949702904731
20
806.2836140246613
10
37.33289300941194
20
809.0559116309237
10
32.78679656440357
20
812.7867965644036
10
29.05591163092364
20
817.3328930094119
10
26.283614024661397
20
822.5194970290473
10
24.576441587903087
20
828.1472903395161
10
24
20
834
10
24
20
834
10
24
20
834
10
24.576441587903087
20
839.8527096604839
10
26.283614024661393
20
845.4805029709527
10
29.055911630923635
20
850.6671069905881
10
32.78679656440357
20
855.2132034355964
10
37.33289300941193
20
858.9440883690763
10
42.51949702904729
20
861.7163859753387
10
48.14729033951614
20
863.4235584120969
10
53.99999999999999
20
864
10
54
20
864
0
TEXT
5
41
330
C
100
AcDbEntity
420
16777215
8
0
100
AcDbText
10
58.8125
20
829.25
30
0
40
11
1
p3 α=0.7
7
Arial
100
AcDbText
0
LWPOLYLINE
5
42
330
C
100
AcDbEntity
420
0
8
0
100
AcDbPolyline
90
42
70
0
43
0
38
0
39
0
10
176
20
864
10
226
20
864
10
226
20
864
10
231.85270966048384
20
863.4235584120969
10
237.4805029709527
20
861.7163859753387
10
242.66710699058808
20
858.9440883690763
10
247.21320343559643
20
855.2132034355964
10
250.94408836907635
20
850.6671069905881
10
253.7163859753386
20
845.4805029709527
10
255.42355841209692
20
839.8527096604839
10
256
20
834
10
256
20
834
10
256
20
834
10
255.42355841209692
20
828.1472903395161
10
253.7163859753386
20
822.5194970290473
10
250.94408836907635
20
817.3328930094119
10
247.21320343559643
20
812.7867965644036
10
242.66710699058808
20
809.0559116309237
10
237.4805029709527
20
806.2836140246613
10
231.85270966048384
20
804.5764415879031
10
226
20
804
10
176
20
804
10
176
20
804
10
170.14729033951616
20
804.5764415879031
10
164.5194970290473
20
806.2836140246613
10
159.33289300941195
20
809.0559116309237
10
154.78679656440357
20
812.7867965644036
10
151.05591163092365
20
817.3328930094119
10
148.2836140246614
20
822.5194970290473
10
146.57644158790308
20
828.1472903395161
10
146
20
834
10
146
20
834
10
146
20
834
10
146.57644158790308
20
839.8527096604839
10
148.2836140246614
20
845.4805029709527
10
151.05591163092365
20
850.6671069905881
10
154.78679656440357
20
855.2132034355964
10
159.33289300941192
20
858.9440883690763
10
164.5194970290473
20
861.7163859753387
10
170.14729033951613
20
863.4235584120969
10
176
20
864
10
176
20
864
0
TEXT
5
43
330
C
100
AcDbEntity
420
16777215
8
0
100
AcDbText
10
178.046875
20
829.25
30
0
40
11
1
a98 α=0.5
7
Arial
100
AcDbText
0
LWPOLYLINE
5
44
330
C
100
AcDbEntity
420
0
8
0
100
AcDbPolyline
90
42
70
0
43
0
38
0
39
0
10
298
20
864
10
348
20
864
10
348
20
864
10
353.85270966048387
20
863.4235584120969
10
359.48050297095267
20
861.7163859753387
10
364.6671069905881
20
858.9440883690763
10
369.2132034355964
20
855.2132034355964
10
372.9440883690764
20
850.6671069905881
10
375.7163859753386
20
845.4805029709527
10
377.4235584120969
20
839.8527096604839
10
378
20
834
10
378
20
834
10
378
20
834
10
377.4235584120969
20
828.1472903395161
10
375.7163859753386
20
822.5194970290473
10
372.9440883690764
20
817.3328930094119
10
369.2132034355964
20
812.7867965644036
10
364.6671069905881
20
809.0559116309237
10
359.48050297095267
20
806.2836140246613
10
353.85270966048387
20
804.5764415879031
10
348
20
804
10
298
20
804
10
298
20
804
10
292.14729033951613
20
804.5764415879031
10
286.51949702904733
20
806.2836140246613
10
281.3328930094119
20
809.0559116309237
10
276.7867965644036
20
812.7867965644036
10
273.0559116309236
20
817.3328930094119
10
270.2836140246614
20
822.5194970290473
10
268.5764415879031
20
828.1472903395161
10
268
20
834
10
268
20
834
10
268
20
834
10
268.5764415879031
20
839.8527096604839
10
270.2836140246614
20
845.4805029709527
10
273.0559116309236
20
850.6671069905881
10
276.7867965644036
20
855.2132034355964
10
281.3328930094119
20
858.9440883690763
10
286.5194970290473
20
861.7163859753387
10
292.14729033951613
20
863.4235584120969
10
298
20
864
10
298
20
864
0
TEXT
5
45
330
C
100
AcDbEntity
420
16777215
8
0
100
AcDbText
10
296.984375
20
829.25
30
0
40
11
1
2020 α=0.8
7
Arial
100
AcDbText
0
LWPOLYLINE
5
46
330
C
100
AcDbEntity
420
0
8
0
100
AcDbPolyline
90
42
70
0
43
0
38
0
39
0
10
420
20
864
10
470
20
864
10
470
20
864
10
475.85270966048387
20
863.4235584120969
10
481.48050297095267
20
861.7163859753387
10
486.6671069905881
20
858.9440883690763
10
491.2132034355964
20
855.2132034355964
10
494.9440883690764
20
850.6671069905881
10
497.7163859753386
20
845.4805029709527
10
499.4235584120969
20
839.8527096604839
10
500
20
834
10
500
20
834
10
500
20
834
10
499.4235584120969
20
828.1472903395161
10
497.7163859753386
20
822.5194970290473
10
494.9440883690764
20
817.3328930094119
10
491.2132034355964
20
812.7867965644036
10
486.6671069905881
20
809.0559116309237
10
481.48050297095267
20
806.2836140246613
10
475.85270966048387
20
804.5764415879031
10
470
20
804
10
420
20
804
10
420
20
804
10
414.14729033951613
20
804.5764415879031
10
408.51949702904733
20
806.2836140246613
10
403.3328930094119
20
809.0559116309237
10
398.7867965644036
20
812.7867965644036
10
395.0559116309236
20
817.3328930094119
10
392.2836140246614
20
822.5194970290473
10
390.5764415879031
20
828.1472903395161
10
390
20
834
10
390
20
834
10
390
20
834
10
390.5764415879031
20
839.8527096604839
10
392.2836140246614
20
845.4805029709527
10
395.0559116309236
20
850.6671069905881
10
398.7867965644036
20
855.2132034355964
10
403.3328930094119
20
858.9440883690763
10
408.5194970290473
20
861.7163859753387
10
414.14729033951613
20
863.4235584120969
10
420
20
864
10
420
20
864
0
TEXT
5
47
330
C
100
AcDbEntity
420
16777215
8
0
100
AcDbText
10
419.3125
20
829.25
30
0
40
11
1
srgb α=0.6
7
Arial
100
AcDbText
0
TEXT
5
48
330
C
100
AcDbEntity
420
2042167
8
0
100
AcDbText
10
24
20
772.25
30
0
40
17
1
color() with Percentage Values
7
Arial
100
AcDbText
0
LWPOLYLINE
5
49
330
C
100
AcDbEntity
420
0
8
0
100
AcDbPolyline
90
42
70
0
43
0
38
0
39
0
10
54
20
758
10
104
20
758
10
104
20
758
10
109.85270966048385
20
757.4235584120969
10
115.4805029709527
20
755.7163859753387
10
120.66710699058807
20
752.9440883690763
10
125.21320343559643
20
749.2132034355964
10
128.94408836907635
20
744.6671069905881
10
131.7163859753386
20
739.4805029709527
10
133.42355841209692
20
733.8527096604838
10
134
20
728
10
134
20
728
10
134
20
728
10
133.42355841209692
20
722.1472903395162
10
131.7163859753386
20
716.5194970290473
10
128.94408836907635
20
711.3328930094119
10
125.21320343559643
20
706.7867965644036
10
120.66710699058807
20
703.0559116309237
10
115.4805029709527
20
700.2836140246613
10
109.85270966048385
20
698.5764415879031
10
104
20
698
10
54
20
698
10
54
20
698
10
48.147290339516154
20
698.5764415879031
10
42.51949702904731
20
700.2836140246613
10
37.33289300941194
20
703.0559116309237
10
32.78679656440357
20
706.7867965644036
10
29.05591163092364
20
711.3328930094119
10
26.283614024661397
20
716.5194970290473
10
24.576441587903087
20
722.1472903395162
10
24
20
728
10
24
20
728
10
24
20
728
10
24.576441587903087
20
733.8527096604838
10
26.283614024661393
20
739.4805029709527
10
29.055911630923635
20
744.6671069905881
10
32.78679656440357
20
749.2132034355964
10
37.33289300941193
20
752.9440883690763
10
42.51949702904729
20
755.7163859753387
10
48.14729033951614
20
757.4235584120969
10
53.99999999999999
20
758
10
54
20
758
0
TEXT
5
4A
330
C
100
AcDbEntity
420
16777215
8
0
100
AcDbText
10
68.15625
20
723.25
30
0
40
11
1
p3 %
7
Arial
100
AcDbText
0
LWPOLYLINE
5
4B
330
C
100
AcDbEntity
420
0
8
0
100
AcDbPolyline
90
42
70
0
43
0
38
0
39
0
10
176
20
758
10
226
20
758
10
226
20
758
10
231.85270966048384
20
757.4235584120969
10
237.4805029709527
20
755.7163859753387
10
242.66710699058808
20
752.9440883690763
10
247.21320343559643
20
749.2132034355964
10
250.94408836907635
20
744.6671069905881
10
253.7163859753386
20
739.4805029709527
10
255.42355841209692
20
733.8527096604838
10
256
20
728
10
256
20
728
10
256
20
728
10
255.42355841209692
20
722.1472903395162
10
253.7163859753386
20
716.5194970290473
10
250.94408836907635
20
711.3328930094119
10
247.21320343559643
20
706.7867965644036
10
242.66710699058808
20
703.0559116309237
10
237.4805029709527
20
700.2836140246613
10
231.85270966048384
20
698.5764415879031
10
226
20
698
10
176
20
698
10
176
20
698
10
170.14729033951616
20
698.5764415879031
10
164.5194970290473
20
700.2836140246613
10
159.33289300941195
20
703.0559116309237
10
154.78679656440357
20
706.7867965644036
10
151.05591163092365
20
711.3328930094119
10
148.2836140246614
20
716.5194970290473
10
146.57644158790308
20
722.1472903395162
10
146
20
728
10
146
20
728
10
146
20
728
10
146.57644158790308
20
733.8527096604838
10
148.2836140246614
20
739.4805029709527
10
151.05591163092365
20
744.6671069905881
10
154.78679656440357
20
749.2132034355964
10
159.33289300941192
20
752.9440883690763
10
164.5194970290473
20
755.7163859753387
10
170.14729033951613
20
757.4235584120969
10
176
20
758
10
176
20
758
0
TEXT
5
4C
330
C
100
AcDbEntity
420
16777215
8
0
100
AcDbText
10
184.65625
20
723.25
30
0
40
11
1
srgb %
7
Arial
100
AcDbText
0
TEXT
5
4D
330
C
100
AcDbEntity
420
2042167
8
0
100
AcDbText
10
24
20
666.25
30
0
40
17
1
lab() & lch()
7
Arial
100
AcDbText
0
LWPOLYLINE
5
4E
330
C
100
AcDbEntity
420
0
8
0
100
AcDbPolyline
90
42
70
0
43
0
38
0
39
0
10
38
20
652
10
308
20
652
10
308
20
652
10
310.7312645082258
20
651.7309939256452
10
313.35756805311127
20
650.934313455158
10
315.77798326227446
20
649.6405745722357
10
317.8994949366117
20
647.8994949366116
10
319.6405745722356
20
645.7779832622745
10
320.934313455158
20
643.3575680531112
10
321.73099392564524
20
640.7312645082258
10
322
20
638
10
322
20
566
10
322
20
566
10
321.73099392564524
20
563.2687354917742
10
320.934313455158
20
560.6424319468888
10
319.6405745722356
20
558.2220167377255
10
317.8994949366117
20
556.1005050633884
10
315.77798326227446
20
554.3594254277643
10
313.35756805311127
20
553.065686544842
10
310.7312645082258
20
552.2690060743548
10
308
20
552
10
38
20
552
10
38
20
552
10
35.26873549177421
20
552.2690060743548
10
32.64243194688874
20
553.065686544842
10
30.222016737725575
20
554.3594254277643
10
28.100505063388336
20
556.1005050633884
10
26.359425427764364
20
558.2220167377255
10
25.065686544841988
20
560.6424319468888
10
24.269006074354774
20
563.2687354917742
10
24
20
566
10
24
20
638
10
24
20
638
10
24.269006074354774
20
640.7312645082258
10
25.065686544841984
20
643.3575680531112
10
26.359425427764364
20
645.7779832622745
10
28.100505063388333
20
647.8994949366116
10
30.222016737725568
20
649.6405745722357
10
32.642431946888735
20
650.934313455158
10
35.2687354917742
20
651.7309939256452
10
38
20
652
10
38
20
652
0
TEXT
5
4F
330
C
100
AcDbEntity
420
16777215
8
0
100
AcDbText
10
38
20
629.25
30
0
40
11
1
LAB()
7
Arial
100
AcDbText
0
TEXT
5
50
330
C
100
AcDbEntity
420
16777215
8
0
100
AcDbText
10
38
20
570.25
30
0
40
13
1
lab(54% 81 70)
7
Arial
100
AcDbText
0
LWPOLYLINE
5
51
330
C
100
AcDbEntity
420
0
8
0
100
AcDbPolyline
90
42
70
0
43
0
38
0
39
0
10
350
20
652
10
620
20
652
10
620
20
652
10
622.7312645082258
20
651.7309939256452
10
625.3575680531112
20
650.934313455158
10
627.7779832622745
20
649.6405745722357
10
629.8994949366116
20
647.8994949366116
10
631.6405745722357
20
645.7779832622745
10
632.934313455158
20
643.3575680531112
10
633.7309939256452
20
640.7312645082258
10
634
20
638
10
634
20
566
10
634
20
566
10
633.7309939256452
20
563.2687354917742
10
632.934313455158
20
560.6424319468888
10
631.6405745722357
20
558.2220167377255
10
629.8994949366116
20
556.1005050633884
10
627.7779832622745
20
554.3594254277643
10
625.3575680531112
20
553.065686544842
10
622.7312645082258
20
552.2690060743548
10
620
20
552
10
350
20
552
10
350
20
552
10
347.2687354917742
20
552.2690060743548
10
344.64243194688873
20
553.065686544842
10
342.2220167377256
20
554.3594254277643
10
340.1005050633883
20
556.1005050633884
10
338.35942542776434
20
558.2220167377255
10
337.065686544842
20
560.6424319468888
10
336.26900607435476
20
563.2687354917742
10
336
20
566
10
336
20
638
10
336
20
638
10
336.26900607435476
20
640.7312645082258
10
337.065686544842
20
643.3575680531112
10
338.35942542776434
20
645.7779832622745
10
340.1005050633883
20
647.8994949366116
10
342.2220167377256
20
649.6405745722357
10
344.64243194688873
20
650.934313455158
10
347.2687354917742
20
651.7309939256452
10
350
20
652
10
350
20
652
0
TEXT
5
52
330
C
100
AcDbEntity
420
16777215
8
0
100
AcDbText
10
350
20
629.25
30
0
40
11
1
LCH()
7
Arial
100
AcDbText
0
TEXT
5
53
330
C
100
AcDbEntity
420
16777215
8
0
100
AcDbText
10
350
20
570.25
30
0
40
13
1
lch(54% 107 41)
7
Arial
100
AcDbText
0
LWPOLYLINE
5
54
330
C
100
AcDbEntity
420
0
8
0
100
AcDbPolyline
90
42
70
0
43
0
38
0
39
0
10
661
20
652
10
931
20
652
10
931
20
652
10
933.7312645082258
20
651.7309939256452
10
936.3575680531112
20
650.934313455158
10
938.7779832622745
20
649.6405745722357
10
940.8994949366116
20
647.8994949366116
10
942.6405745722357
20
645.7779832622745
10
943.934313455158
20
643.3575680531112
10
944.7309939256452
20
640.7312645082258
10
945
20
638
10
945
20
566
10
945
20
566
10
944.7309939256452
20
563.2687354917742
10
943.934313455158
20
560.6424319468888
10
942.6405745722357
20
558.2220167377255
10
940.8994949366116
20
556.1005050633884
10
938.7779832622745
20
554.3594254277643
10
936.3575680531112
20
553.065686544842
10
933.7312645082258
20
552.2690060743548
10
931
20
552
10
661
20
552
10
661
20
552
10
658.2687354917742
20
552.2690060743548
10
655.6424319468888
20
553.065686544842
10
653.2220167377255
20
554.3594254277643
10
651.1005050633884
20
556.1005050633884
10
649.3594254277643
20
558.2220167377255
10
648.065686544842
20
560.6424319468888
10
647.2690060743548
20
563.2687354917742
10
647
20
566
10
647
20
638
10
647
20
638
10
647.2690060743548
20
640.7312645082258
10
648.065686544842
20
643.3575680531112
10
649.3594254277643
20
645.7779832622745
10
651.1005050633884
20
647.8994949366116
10
653.2220167377255
20
649.6405745722357
10
655.6424319468888
20
650.934313455158
10
658.2687354917742
20
651.7309939256452
10
661
20
652
10
661
20
652
0
TEXT
5
55
330
C
100
AcDbEntity
420
1118481
8
0
100
AcDbText
10
661
20
629.25
30
0
40
11
1
LAB() GREEN-YELLOW
7
Arial
100
AcDbText
0
TEXT
5
56
330
C
100
AcDbEntity
420
1118481
8
0
100
AcDbText
10
661
20
570.25
30
0
40
13
1
lab(75% -40 60)
7
Arial
100
AcDbText
0
LWPOLYLINE
5
57
330
C
100
AcDbEntity
420
0
8
0
100
AcDbPolyline
90
42
70
0
43
0
38
0
39
0
10
973
20
652
10
1243
20
652
10
1243
20
652
10
1245.7312645082259
20
651.7309939256452
10
1248.3575680531112
20
650.934313455158
10
1250.7779832622743
20
649.6405745722357
10
1252.8994949366117
20
647.8994949366116
10
1254.6405745722357
20
645.7779832622745
10
1255.934313455158
20
643.3575680531112
10
1256.7309939256452
20
640.7312645082258
10
1257
20
638
10
1257
20
566
10
1257
20
566
10
1256.7309939256452
20
563.2687354917742
10
1255.934313455158
20
560.6424319468888
10
1254.6405745722357
20
558.2220167377255
10
1252.8994949366117
20
556.1005050633884
10
1250.7779832622743
20
554.3594254277643
10
1248.3575680531112
20
553.065686544842
10
1245.7312645082259
20
552.2690060743548
10
1243
20
552
10
973
20
552
10
973
20
552
10
970.2687354917742
20
552.2690060743548
10
967.6424319468888
20
553.065686544842
10
965.2220167377255
20
554.3594254277643
10
963.1005050633884
20
556.1005050633884
10
961.3594254277643
20
558.2220167377255
10
960.065686544842
20
560.6424319468888
10
959.2690060743548
20
563.2687354917742
10
959
20
566
10
959
20
638
10
959
20
638
10
959.2690060743548
20
640.7312645082258
10
960.065686544842
20
643.3575680531112
10
961.3594254277643
20
645.7779832622745
10
963.1005050633884
20
647.8994949366116
10
965.2220167377255
20
649.6405745722357
10
967.6424319468888
20
650.934313455158
10
970.2687354917742
20
651.7309939256452
10
973
20
652
10
973
20
652
0
TEXT
5
58
330
C
100
AcDbEntity
420
16777215
8
0
100
AcDbText
10
973
20
629.25
30
0
40
11
1
LCH() VIOLET
7
Arial
100
AcDbText
0
TEXT
5
59
330
C
100
AcDbEntity
420
16777215
8
0
100
AcDbText
10
973
20
570.25
30
0
40
13
1
lch(65% 80 290)
7
Arial
100
AcDbText
0
TEXT
5
5A
330
C
100
AcDbEntity
420
2042167
8
0
100
AcDbText
10
24
20
518.25
30
0
40
17
1
oklab() & oklch()
7
Arial
100
AcDbText
0
LWPOLYLINE
5
5B
330
C
100
AcDbEntity
420
0
8
0
100
AcDbPolyline
90
42
70
0
43
0
38
0
39
0
10
38
20
504
10
308
20
504
10
308
20
504
10
310.7312645082258
20
503.7309939256452
10
313.35756805311127
20
502.93431345515796
10
315.77798326227446
20
501.64057457223566
10
317.8994949366117
20
499.89949493661163
10
319.6405745722356
20
497.77798326227446
10
320.934313455158
20
495.3575680531112
10
321.73099392564524
20
492.73126450822576
10
322
20
490
10
322
20
418
10
322
20
418
10
321.73099392564524
20
415.26873549177424
10
320.934313455158
20
412.6424319468888
10
319.6405745722356
20
410.22201673772554
10
317.8994949366117
20
408.10050506338837
10
315.77798326227446
20
406.35942542776434
10
313.35756805311127
20
405.06568654484204
10
310.7312645082258
20
404.2690060743548
10
308
20
404
10
38
20
404
10
38
20
404
10
35.26873549177421
20
404.2690060743548
10
32.64243194688874
20
405.06568654484204
10
30.222016737725575
20
406.35942542776434
10
28.100505063388336
20
408.10050506338837
10
26.359425427764364
20
410.22201673772554
10
25.065686544841988
20
412.6424319468888
10
24.269006074354774
20
415.26873549177424
10
24
20
418
10
24
20
490
10
24
20
490
10
24.269006074354774
20
492.73126450822576
10
25.065686544841984
20
495.3575680531112
10
26.359425427764364
20
497.77798326227446
10
28.100505063388333
20
499.89949493661163
10
30.222016737725568
20
501.64057457223566
10
32.642431946888735
20
502.93431345515796
10
35.2687354917742
20
503.7309939256452
10
38
20
504
10
38
20
504
0
TEXT
5
5C
330
C
100
AcDbEntity
420
16777215
8
0
100
AcDbText
10
38
20
481.25
30
0
40
11
1
OKLAB()
7
Arial
100
AcDbText
0
TEXT
5
5D
330
C
100
AcDbEntity
420
16777215
8
0
100
AcDbText
10
38
20
422.25
30
0
40
13
1
oklab(0.63 0.22 0.13)
7
Arial
100
AcDbText
0
LWPOLYLINE
5
5E
330
C
100
AcDbEntity
420
0
8
0
100
AcDbPolyline
90
42
70
0
43
0
38
0
39
0
10
350
20
504
10
620
20
504
10
620
20
504
10
622.7312645082258
20
503.7309939256452
10
625.3575680531112
20
502.93431345515796
10
627.7779832622745
20
501.64057457223566
10
629.8994949366116
20
499.89949493661163
10
631.6405745722357
20
497.77798326227446
10
632.934313455158
20
495.3575680531112
10
633.7309939256452
20
492.73126450822576
10
634
20
490
10
634
20
418
10
634
20
418
10
633.7309939256452
20
415.26873549177424
10
632.934313455158
20
412.6424319468888
10
631.6405745722357
20
410.22201673772554
10
629.8994949366116
20
408.10050506338837
10
627.7779832622745
20
406.35942542776434
10
625.3575680531112
20
405.06568654484204
10
622.7312645082258
20
404.2690060743548
10
620
20
404
10
350
20
404
10
350
20
404
10
347.2687354917742
20
404.2690060743548
10
344.64243194688873
20
405.06568654484204
10
342.2220167377256
20
406.35942542776434
10
340.1005050633883
20
408.10050506338837
10
338.35942542776434
20
410.22201673772554
10
337.065686544842
20
412.6424319468888
10
336.26900607435476
20
415.26873549177424
10
336
20
418
10
336
20
490
10
336
20
490
10
336.26900607435476
20
492.73126450822576
10
337.065686544842
20
495.3575680531112
10
338.35942542776434
20
497.77798326227446
10
340.1005050633883
20
499.89949493661163
10
342.2220167377256
20
501.64057457223566
10
344.64243194688873
20
502.93431345515796
10
347.2687354917742
20
503.7309939256452
10
350
20
504
10
350
20
504
0
TEXT
5
5F
330
C
100
AcDbEntity
420
16777215
8
0
100
AcDbText
10
350
20
481.25
30
0
40
11
1
OKLCH()
7
Arial
100
AcDbText
0
TEXT
5
60
330
C
100
AcDbEntity
420
16777215
8
0
100
AcDbText
10
350
20
422.25
30
0
40
13
1
oklch(0.63 0.26 29)
7
Arial
100
AcDbText
0
LWPOLYLINE
5
61
330
C
100
AcDbEntity
420
0
8
0
100
AcDbPolyline
90
42
70
0
43
0
38
0
39
0
10
661
20
504
10
931
20
504
10
931
20
504
10
933.7312645082258
20
503.7309939256452
10
936.3575680531112
20
502.93431345515796
10
938.7779832622745
20
501.64057457223566
10
940.8994949366116
20
499.89949493661163
10
942.6405745722357
20
497.77798326227446
10
943.934313455158
20
495.3575680531112
10
944.7309939256452
20
492.73126450822576
10
945
20
490
10
945
20
418
10
945
20
418
10
944.7309939256452
20
415.26873549177424
10
943.934313455158
20
412.6424319468888
10
942.6405745722357
20
410.22201673772554
10
940.8994949366116
20
408.10050506338837
10
938.7779832622745
20
406.35942542776434
10
936.3575680531112
20
405.06568654484204
10
933.7312645082258
20
404.2690060743548
10
931
20
404
10
661
20
404
10
661
20
404
10
658.2687354917742
20
404.2690060743548
10
655.6424319468888
20
405.06568654484204
10
653.2220167377255
20
406.35942542776434
10
651.1005050633884
20
408.10050506338837
10
649.3594254277643
20
410.22201673772554
10
648.065686544842
20
412.6424319468888
10
647.2690060743548
20
415.26873549177424
10
647
20
418
10
647
20
490
10
647
20
490
10
647.2690060743548
20
492.73126450822576
10
648.065686544842
20
495.3575680531112
10
649.3594254277643
20
497.77798326227446
10
651.1005050633884
20
499.89949493661163
10
653.2220167377255
20
501.64057457223566
10
655.6424319468888
20
502.93431345515796
10
658.2687354917742
20
503.7309939256452
10
661
20
504
10
661
20
504
0
TEXT
5
62
330
C
100
AcDbEntity
420
1118481
8
0
100
AcDbText
10
661
20
481.25
30
0
40
11
1
OKLAB() LIME
7
Arial
100
AcDbText
0
TEXT
5
63
330
C
100
AcDbEntity
420
1118481
8
0
100
AcDbText
10
661
20
422.25
30
0
40
13
1
oklab(0.80 -0.10 0.10)
7
Arial
100
AcDbText
0
LWPOLYLINE
5
64
330
C
100
AcDbEntity
420
0
8
0
100
AcDbPolyline
90
42
70
0
43
0
38
0
39
0
10
973
20
504
10
1243
20
504
10
1243
20
504
10
1245.7312645082259
20
503.7309939256452
10
1248.3575680531112
20
502.93431345515796
10
1250.7779832622743
20
501.64057457223566
10
1252.8994949366117
20
499.89949493661163
10
1254.6405745722357
20
497.77798326227446
10
1255.934313455158
20
495.3575680531112
10
1256.7309939256452
20
492.73126450822576
10
1257
20
490
10
1257
20
418
10
1257
20
418
10
1256.7309939256452
20
415.26873549177424
10
1255.934313455158
20
412.6424319468888
10
1254.6405745722357
20
410.22201673772554
10
1252.8994949366117
20
408.10050506338837
10
1250.7779832622743
20
406.35942542776434
10
1248.3575680531112
20
405.06568654484204
10
1245.7312645082259
20
404.2690060743548
10
1243
20
404
10
973
20
404
10
973
20
404
10
970.2687354917742
20
404.2690060743548
10
967.6424319468888
20
405.06568654484204
10
965.2220167377255
20
406.35942542776434
10
963.1005050633884
20
408.10050506338837
10
961.3594254277643
20
410.22201673772554
10
960.065686544842
20
412.6424319468888
10
959.2690060743548
20
415.26873549177424
10
959
20
418
10
959
20
490
10
959
20
490
10
959.2690060743548
20
492.73126450822576
10
960.065686544842
20
495.3575680531112
10
961.3594254277643
20
497.77798326227446
10
963.1005050633884
20
499.89949493661163
10
965.2220167377255
20
501.64057457223566
10
967.6424319468888
20
502.93431345515796
10
970.2687354917742
20
503.7309939256452
10
973
20
504
10
973
20
504
0
TEXT
5
65
330
C
100
AcDbEntity
420
16777215
8
0
100
AcDbText
10
973
20
481.25
30
0
40
11
1
OKLCH() PURPLE
7
Arial
100
AcDbText
0
TEXT
5
66
330
C
100
AcDbEntity
420
16777215
8
0
100
AcDbText
10
973
20
422.25
30
0
40
13
1
oklch(0.55 0.20 270)
7
Arial
100
AcDbText
0
TEXT
5
67
330
C
100
AcDbEntity
420
2042167
8
0
100
AcDbText
10
24
20
370.25
30
0
40
17
1
hsl() & hsla()
7
Arial
100
AcDbText
0
LWPOLYLINE
5
68
330
C
100
AcDbEntity
420
0
8
0
100
AcDbPolyline
90
42
70
0
43
0
38
0
39
0
10
54
20
356
10
104
20
356
10
104
20
356
10
109.85270966048385
20
355.4235584120969
10
115.4805029709527
20
353.71638597533865
10
120.66710699058807
20
350.9440883690763
10
125.21320343559643
20
347.21320343559637
10
128.94408836907635
20
342.6671069905881
10
131.7163859753386
20
337.48050297095267
10
133.42355841209692
20
331.8527096604838
10
134
20
326
10
134
20
326
10
134
20
326
10
133.42355841209692
20
320.1472903395162
10
131.7163859753386
20
314.51949702904733
10
128.94408836907635
20
309.3328930094119
10
125.21320343559643
20
304.78679656440363
10
120.66710699058807
20
301.0559116309237
10
115.4805029709527
20
298.28361402466135
10
109.85270966048385
20
296.5764415879031
10
104
20
296
10
54
20
296
10
54
20
296
10
48.147290339516154
20
296.5764415879031
10
42.51949702904731
20
298.28361402466135
10
37.33289300941194
20
301.0559116309237
10
32.78679656440357
20
304.78679656440363
10
29.05591163092364
20
309.3328930094119
10
26.283614024661397
20
314.51949702904733
10
24.576441587903087
20
320.1472903395162
10
24
20
326
10
24
20
326
10
24
20
326
10
24.576441587903087
20
331.8527096604838
10
26.283614024661393
20
337.48050297095267
10
29.055911630923635
20
342.6671069905881
10
32.78679656440357
20
347.21320343559637
10
37.33289300941193
20
350.9440883690763
10
42.51949702904729
20
353.71638597533865
10
48.14729033951614
20
355.4235584120969
10
53.99999999999999
20
356
10
54
20
356
0
TEXT
5
69
330
C
100
AcDbEntity
420
16777215
8
0
100
AcDbText
10
72.4375
20
321.25
30
0
40
11
1
red
7
Arial
100
AcDbText
0
LWPOLYLINE
5
6A
330
C
100
AcDbEntity
420
0
8
0
100
AcDbPolyline
90
42
70
0
43
0
38
0
39
0
10
176
20
356
10
226
20
356
10
226
20
356
10
231.85270966048384
20
355.4235584120969
10
237.4805029709527
20
353.71638597533865
10
242.66710699058808
20
350.9440883690763
10
247.21320343559643
20
347.21320343559637
10
250.94408836907635
20
342.6671069905881
10
253.7163859753386
20
337.48050297095267
10
255.42355841209692
20
331.8527096604838
10
256
20
326
10
256
20
326
10
256
20
326
10
255.42355841209692
20
320.1472903395162
10
253.7163859753386
20
314.51949702904733
10
250.94408836907635
20
309.3328930094119
10
247.21320343559643
20
304.78679656440363
10
242.66710699058808
20
301.0559116309237
10
237.4805029709527
20
298.28361402466135
10
231.85270966048384
20
296.5764415879031
10
226
20
296
10
176
20
296
10
176
20
296
10
170.14729033951616
20
296.5764415879031
10
164.5194970290473
20
298.28361402466135
10
159.33289300941195
20
301.0559116309237
10
154.78679656440357
20
304.78679656440363
10
151.05591163092365
20
309.3328930094119
10
148.2836140246614
20
314.51949702904733
10
146.57644158790308
20
320.1472903395162
10
146
20
326
10
146
20
326
10
146
20
326
10
146.57644158790308
20
331.8527096604838
10
148.2836140246614
20
337.48050297095267
10
151.05591163092365
20
342.6671069905881
10
154.78679656440357
20
347.21320343559637
10
159.33289300941192
20
350.9440883690763
10
164.5194970290473
20
353.71638597533865
10
170.14729033951613
20
355.4235584120969
10
176
20
356
10
176
20
356
0
TEXT
5
6B
330
C
100
AcDbEntity
420
16777215
8
0
100
AcDbText
10
188.015625
20
321.25
30
0
40
11
1
green
7
Arial
100
AcDbText
0
LWPOLYLINE
5
6C
330
C
100
AcDbEntity
420
0
8
0
100
AcDbPolyline
90
42
70
0
43
0
38
0
39
0
10
298
20
356
10
348
20
356
10
348
20
356
10
353.85270966048387
20
355.4235584120969
10
359.48050297095267
20
353.71638597533865
10
364.6671069905881
20
350.9440883690763
10
369.2132034355964
20
347.21320343559637
10
372.9440883690764
20
342.6671069905881
10
375.7163859753386
20
337.48050297095267
10
377.4235584120969
20
331.8527096604838
10
378
20
326
10
378
20
326
10
378
20
326
10
377.4235584120969
20
320.1472903395162
10
375.7163859753386
20
314.51949702904733
10
372.9440883690764
20
309.3328930094119
10
369.2132034355964
20
304.78679656440363
10
364.6671069905881
20
301.0559116309237
10
359.48050297095267
20
298.28361402466135
10
353.85270966048387
20
296.5764415879031
10
348
20
296
10
298
20
296
10
298
20
296
10
292.14729033951613
20
296.5764415879031
10
286.51949702904733
20
298.28361402466135
10
281.3328930094119
20
301.0559116309237
10
276.7867965644036
20
304.78679656440363
10
273.0559116309236
20
309.3328930094119
10
270.2836140246614
20
314.51949702904733
10
268.5764415879031
20
320.1472903395162
10
268
20
326
10
268
20
326
10
268
20
326
10
268.5764415879031
20
331.8527096604838
10
270.2836140246614
20
337.48050297095267
10
273.0559116309236
20
342.6671069905881
10
276.7867965644036
20
347.21320343559637
10
281.3328930094119
20
350.9440883690763
10
286.5194970290473
20
353.71638597533865
10
292.14729033951613
20
355.4235584120969
10
298
20
356
10
298
20
356
0
TEXT
5
6D
330
C
100
AcDbEntity
420
16777215
8
0
100
AcDbText
10
313.6875
20
321.25
30
0
40
11
1
blue
7
Arial
100
AcDbText
0
LWPOLYLINE
5
6E
330
C
100
AcDbEntity
420
0
8
0
100
AcDbPolyline
90
42
70
0
43
0
38
0
39
0
10
420
20
356
10
470
20
356
10
470
20
356
10
475.85270966048387
20
355.4235584120969
10
481.48050297095267
20
353.71638597533865
10
486.6671069905881
20
350.9440883690763
10
491.2132034355964
20
347.21320343559637
10
494.9440883690764
20
342.6671069905881
10
497.7163859753386
20
337.48050297095267
10
499.4235584120969
20
331.8527096604838
10
500
20
326
10
500
20
326
10
500
20
326
10
499.4235584120969
20
320.1472903395162
10
497.7163859753386
20
314.51949702904733
10
494.9440883690764
20
309.3328930094119
10
491.2132034355964
20
304.78679656440363
10
486.6671069905881
20
301.0559116309237
10
481.48050297095267
20
298.28361402466135
10
475.85270966048387
20
296.5764415879031
10
470
20
296
10
420
20
296
10
420
20
296
10
414.14729033951613
20
296.5764415879031
10
408.51949702904733
20
298.28361402466135
10
403.3328930094119
20
301.0559116309237
10
398.7867965644036
20
304.78679656440363
10
395.0559116309236
20
309.3328930094119
10
392.2836140246614
20
314.51949702904733
10
390.5764415879031
20
320.1472903395162
10
390
20
326
10
390
20
326
10
390
20
326
10
390.5764415879031
20
331.8527096604838
10
392.2836140246614
20
337.48050297095267
10
395.0559116309236
20
342.6671069905881
10
398.7867965644036
20
347.21320343559637
10
403.3328930094119
20
350.9440883690763
10
408.5194970290473
20
353.71638597533865
10
414.14729033951613
20
355.4235584120969
10
420
20
356
10
420
20
356
0
TEXT
5
6F
330
C
100
AcDbEntity
420
1118481
8
0
100
AcDbText
10
430.1875
20
321.25
30
0
40
11
1
yellow
7
Arial
100
AcDbText
0
LWPOLYLINE
5
70
330
C
100
AcDbEntity
420
0
8
0
100
AcDbPolyline
90
42
70
0
43
0
38
0
39
0
10
542
20
356
10
592
20
356
10
592
20
356
10
597.8527096604838
20
355.4235584120969
10
603.4805029709527
20
353.71638597533865
10
608.6671069905881
20
350.9440883690763
10
613.2132034355964
20
347.21320343559637
10
616.9440883690763
20
342.6671069905881
10
619.7163859753387
20
337.48050297095267
10
621.4235584120969
20
331.8527096604838
10
622
20
326
10
622
20
326
10
622
20
326
10
621.4235584120969
20
320.1472903395162
10
619.7163859753387
20
314.51949702904733
10
616.9440883690763
20
309.3328930094119
10
613.2132034355964
20
304.78679656440363
10
608.6671069905881
20
301.0559116309237
10
603.4805029709527
20
298.28361402466135
10
597.8527096604838
20
296.5764415879031
10
592
20
296
10
542
20
296
10
542
20
296
10
536.1472903395162
20
296.5764415879031
10
530.5194970290473
20
298.28361402466135
10
525.3328930094119
20
301.0559116309237
10
520.7867965644036
20
304.78679656440363
10
517.0559116309237
20
309.3328930094119
10
514.2836140246613
20
314.51949702904733
10
512.5764415879031
20
320.1472903395162
10
512
20
326
10
512
20
326
10
512
20
326
10
512.5764415879031
20
331.8527096604838
10
514.2836140246613
20
337.48050297095267
10
517.0559116309237
20
342.6671069905881
10
520.7867965644035
20
347.21320343559637
10
525.3328930094119
20
350.9440883690763
10
530.5194970290473
20
353.71638597533865
10
536.1472903395162
20
355.4235584120969
10
542
20
356
10
542
20
356
0
TEXT
5
71
330
C
100
AcDbEntity
420
16777215
8
0
100
AcDbText
10
541.46875
20
321.25
30
0
40
11
1
magenta α
7
Arial
100
AcDbText
0
LWPOLYLINE
5
72
330
C
100
AcDbEntity
420
0
8
0
100
AcDbPolyline
90
42
70
0
43
0
38
0
39
0
10
664
20
356
10
714
20
356
10
714
20
356
10
719.8527096604838
20
355.4235584120969
10
725.4805029709527
20
353.71638597533865
10
730.6671069905881
20
350.9440883690763
10
735.2132034355964
20
347.21320343559637
10
738.9440883690763
20
342.6671069905881
10
741.7163859753387
20
337.48050297095267
10
743.4235584120969
20
331.8527096604838
10
744
20
326
10
744
20
326
10
744
20
326
10
743.4235584120969
20
320.1472903395162
10
741.7163859753387
20
314.51949702904733
10
738.9440883690763
20
309.3328930094119
10
735.2132034355964
20
304.78679656440363
10
730.6671069905881
20
301.0559116309237
10
725.4805029709527
20
298.28361402466135
10
719.8527096604838
20
296.5764415879031
10
714
20
296
10
664
20
296
10
664
20
296
10
658.1472903395162
20
296.5764415879031
10
652.5194970290473
20
298.28361402466135
10
647.3328930094119
20
301.0559116309237
10
642.7867965644036
20
304.78679656440363
10
639.0559116309237
20
309.3328930094119
10
636.2836140246613
20
314.51949702904733
10
634.5764415879031
20
320.1472903395162
10
634
20
326
10
634
20
326
10
634
20
326
10
634.5764415879031
20
331.8527096604838
10
636.2836140246613
20
337.48050297095267
10
639.0559116309237
20
342.6671069905881
10
642.7867965644035
20
347.21320343559637
10
647.3328930094119
20
350.9440883690763
10
652.5194970290473
20
353.71638597533865
10
658.1472903395162
20
355.4235584120969
10
664
20
356
10
664
20
356
0
TEXT
5
73
330
C
100
AcDbEntity
420
16777215
8
0
100
AcDbText
10
676.609375
20
321.25
30
0
40
11
1
teal α
7
Arial
100
AcDbText
0
TEXT
5
74
330
C
100
AcDbEntity
420
2042167
8
0
100
AcDbText
10
24
20
264.25
30
0
40
17
1
hwb()
7
Arial
100
AcDbText
0
LWPOLYLINE
5
75
330
C
100
AcDbEntity
420
0
8
0
100
AcDbPolyline
90
42
70
0
43
0
38
0
39
0
10
54
20
250
10
104
20
250
10
104
20
250
10
109.85270966048385
20
249.423558412097
10
115.4805029709527
20
247.71638597533865
10
120.66710699058807
20
244.94408836907633
10
125.21320343559643
20
241.21320343559637
10
128.94408836907635
20
236.66710699058808
10
131.7163859753386
20
231.48050297095278
10
133.42355841209692
20
225.85270966048392
10
134
20
220
10
134
20
220
10
134
20
220
10
133.42355841209692
20
214.14729033951608
10
131.7163859753386
20
208.51949702904722
10
128.94408836907635
20
203.33289300941192
10
125.21320343559643
20
198.78679656440363
10
120.66710699058807
20
195.05591163092367
10
115.4805029709527
20
192.28361402466135
10
109.85270966048385
20
190.576441587903
10
104
20
190
10
54
20
190
10
54
20
190
10
48.147290339516154
20
190.576441587903
10
42.51949702904731
20
192.28361402466135
10
37.33289300941194
20
195.05591163092367
10
32.78679656440357
20
198.78679656440363
10
29.05591163092364
20
203.33289300941192
10
26.283614024661397
20
208.51949702904722
10
24.576441587903087
20
214.14729033951608
10
24
20
220
10
24
20
220
10
24
20
220
10
24.576441587903087
20
225.85270966048392
10
26.283614024661393
20
231.48050297095278
10
29.055911630923635
20
236.66710699058808
10
32.78679656440357
20
241.21320343559637
10
37.33289300941193
20
244.94408836907633
10
42.51949702904729
20
247.71638597533865
10
48.14729033951614
20
249.423558412097
10
53.99999999999999
20
250
10
54
20
250
0
TEXT
5
76
330
C
100
AcDbEntity
420
16777215
8
0
100
AcDbText
10
58.984375
20
215.25
30
0
40
11
1
pure red
7
Arial
100
AcDbText
0
LWPOLYLINE
5
77
330
C
100
AcDbEntity
420
0
8
0
100
AcDbPolyline
90
42
70
0
43
0
38
0
39
0
10
176
20
250
10
226
20
250
10
226
20
250
10
231.85270966048384
20
249.423558412097
10
237.4805029709527
20
247.71638597533865
10
242.66710699058808
20
244.94408836907633
10
247.21320343559643
20
241.21320343559637
10
250.94408836907635
20
236.66710699058808
10
253.7163859753386
20
231.48050297095278
10
255.42355841209692
20
225.85270966048392
10
256
20
220
10
256
20
220
10
256
20
220
10
255.42355841209692
20
214.14729033951608
10
253.7163859753386
20
208.51949702904722
10
250.94408836907635
20
203.33289300941192
10
247.21320343559643
20
198.78679656440363
10
242.66710699058808
20
195.05591163092367
10
237.4805029709527
20
192.28361402466135
10
231.85270966048384
20
190.576441587903
10
226
20
190
10
176
20
190
10
176
20
190
10
170.14729033951616
20
190.576441587903
10
164.5194970290473
20
192.28361402466135
10
159.33289300941195
20
195.05591163092367
10
154.78679656440357
20
198.78679656440363
10
151.05591163092365
20
203.33289300941192
10
148.2836140246614
20
208.51949702904722
10
146.57644158790308
20
214.14729033951608
10
146
20
220
10
146
20
220
10
146
20
220
10
146.57644158790308
20
225.85270966048392
10
148.2836140246614
20
231.48050297095278
10
151.05591163092365
20
236.66710699058808
10
154.78679656440357
20
241.21320343559637
10
159.33289300941192
20
244.94408836907633
10
164.5194970290473
20
247.71638597533865
10
170.14729033951613
20
249.423558412097
10
176
20
250
10
176
20
250
0
TEXT
5
78
330
C
100
AcDbEntity
420
16777215
8
0
100
AcDbText
10
188.015625
20
215.25
30
0
40
11
1
green
7
Arial
100
AcDbText
0
LWPOLYLINE
5
79
330
C
100
AcDbEntity
420
0
8
0
100
AcDbPolyline
90
42
70
0
43
0
38
0
39
0
10
298
20
250
10
348
20
250
10
348
20
250
10
353.85270966048387
20
249.423558412097
10
359.48050297095267
20
247.71638597533865
10
364.6671069905881
20
244.94408836907633
10
369.2132034355964
20
241.21320343559637
10
372.9440883690764
20
236.66710699058808
10
375.7163859753386
20
231.48050297095278
10
377.4235584120969
20
225.85270966048392
10
378
20
220
10
378
20
220
10
378
20
220
10
377.4235584120969
20
214.14729033951608
10
375.7163859753386
20
208.51949702904722
10
372.9440883690764
20
203.33289300941192
10
369.2132034355964
20
198.78679656440363
10
364.6671069905881
20
195.05591163092367
10
359.48050297095267
20
192.28361402466135
10
353.85270966048387
20
190.576441587903
10
348
20
190
10
298
20
190
10
298
20
190
10
292.14729033951613
20
190.576441587903
10
286.51949702904733
20
192.28361402466135
10
281.3328930094119
20
195.05591163092367
10
276.7867965644036
20
198.78679656440363
10
273.0559116309236
20
203.33289300941192
10
270.2836140246614
20
208.51949702904722
10
268.5764415879031
20
214.14729033951608
10
268
20
220
10
268
20
220
10
268
20
220
10
268.5764415879031
20
225.85270966048392
10
270.2836140246614
20
231.48050297095278
10
273.0559116309236
20
236.66710699058808
10
276.7867965644036
20
241.21320343559637
10
281.3328930094119
20
244.94408836907633
10
286.5194970290473
20
247.71638597533865
10
292.14729033951613
20
249.423558412097
10
298
20
250
10
298
20
250
0
TEXT
5
7A
330
C
100
AcDbEntity
420
16777215
8
0
100
AcDbText
10
313.6875
20
215.25
30
0
40
11
1
blue
7
Arial
100
AcDbText
0
LWPOLYLINE
5
7B
330
C
100
AcDbEntity
420
0
8
0
100
AcDbPolyline
90
42
70
0
43
0
38
0
39
0
10
420
20
250
10
470
20
250
10
470
20
250
10
475.85270966048387
20
249.423558412097
10
481.48050297095267
20
247.71638597533865
10
486.6671069905881
20
244.94408836907633
10
491.2132034355964
20
241.21320343559637
10
494.9440883690764
20
236.66710699058808
10
497.7163859753386
20
231.48050297095278
10
499.4235584120969
20
225.85270966048392
10
500
20
220
10
500
20
220
10
500
20
220
10
499.4235584120969
20
214.14729033951608
10
497.7163859753386
20
208.51949702904722
10
494.9440883690764
20
203.33289300941192
10
491.2132034355964
20
198.78679656440363
10
486.6671069905881
20
195.05591163092367
10
481.48050297095267
20
192.28361402466135
10
475.85270966048387
20
190.576441587903
10
470
20
190
10
420
20
190
10
420
20
190
10
414.14729033951613
20
190.576441587903
10
408.51949702904733
20
192.28361402466135
10
403.3328930094119
20
195.05591163092367
10
398.7867965644036
20
198.78679656440363
10
395.0559116309236
20
203.33289300941192
10
392.2836140246614
20
208.51949702904722
10
390.5764415879031
20
214.14729033951608
10
390
20
220
10
390
20
220
10
390
20
220
10
390.5764415879031
20
225.85270966048392
10
392.2836140246614
20
231.48050297095278
10
395.0559116309236
20
236.66710699058808
10
398.7867965644036
20
241.21320343559637
10
403.3328930094119
20
244.94408836907633
10
408.5194970290473
20
247.71638597533865
10
414.14729033951613
20
249.423558412097
10
420
20
250
10
420
20
250
0
TEXT
5
7C
330
C
100
AcDbEntity
420
1118481
8
0
100
AcDbText
10
412.15625
20
215.25
30
0
40
11
1
muted yellow
7
Arial
100
AcDbText
0
LWPOLYLINE
5
7D
330
C
100
AcDbEntity
420
0
8
0
100
AcDbPolyline
90
42
70
0
43
0
38
0
39
0
10
542
20
250
10
592
20
250
10
592
20
250
10
597.8527096604838
20
249.423558412097
10
603.4805029709527
20
247.71638597533865
10
608.6671069905881
20
244.94408836907633
10
613.2132034355964
20
241.21320343559637
10
616.9440883690763
20
236.66710699058808
10
619.7163859753387
20
231.48050297095278
10
621.4235584120969
20
225.85270966048392
10
622
20
220
10
622
20
220
10
622
20
220
10
621.4235584120969
20
214.14729033951608
10
619.7163859753387
20
208.51949702904722
10
616.9440883690763
20
203.33289300941192
10
613.2132034355964
20
198.78679656440363
10
608.6671069905881
20
195.05591163092367
10
603.4805029709527
20
192.28361402466135
10
597.8527096604838
20
190.576441587903
10
592
20
190
10
542
20
190
10
542
20
190
10
536.1472903395162
20
190.576441587903
10
530.5194970290473
20
192.28361402466135
10
525.3328930094119
20
195.05591163092367
10
520.7867965644036
20
198.78679656440363
10
517.0559116309237
20
203.33289300941192
10
514.2836140246613
20
208.51949702904722
10
512.5764415879031
20
214.14729033951608
10
512
20
220
10
512
20
220
10
512
20
220
10
512.5764415879031
20
225.85270966048392
10
514.2836140246613
20
231.48050297095278
10
517.0559116309237
20
236.66710699058808
10
520.7867965644035
20
241.21320343559637
10
525.3328930094119
20
244.94408836907633
10
530.5194970290473
20
247.71638597533865
10
536.1472903395162
20
249.423558412097
10
542
20
250
10
542
20
250
0
TEXT
5
7E
330
C
100
AcDbEntity
420
16777215
8
0
100
AcDbText
10
538.40625
20
215.25
30
0
40
11
1
dark cyan α
7
Arial
100
AcDbText
0
TEXT
5
7F
330
C
100
AcDbEntity
420
2042167
8
0
100
AcDbText
10
24
20
158.25
30
0
40
17
1
Mixed Usage
7
Arial
100
AcDbText
0
LWPOLYLINE
5
80
330
C
100
AcDbEntity
420
16449608
8
0
100
AcDbPolyline
90
42
70
0
43
0
38
0
39
0
10
38
20
144
10
308
20
144
10
308
20
144
10
310.7312645082258
20
143.73099392564518
10
313.35756805311127
20
142.93431345515796
10
315.77798326227446
20
141.64057457223566
10
317.8994949366117
20
139.89949493661175
10
319.6405745722356
20
137.77798326227435
10
320.934313455158
20
135.3575680531112
10
321.73099392564524
20
132.73126450822588
10
322
20
130
10
322
20
58
10
322
20
58
10
321.73099392564524
20
55.26873549177412
10
320.934313455158
20
52.64243194688879
10
319.6405745722356
20
50.22201673772565
10
317.8994949366117
20
48.100505063388255
10
315.77798326227446
20
46.359425427764336
10
313.35756805311127
20
45.06568654484204
10
310.7312645082258
20
44.26900607435482
10
308
20
44
10
38
20
44
10
38
20
44
10
35.26873549177421
20
44.26900607435482
10
32.64243194688874
20
45.06568654484204
10
30.222016737725575
20
46.359425427764336
10
28.100505063388336
20
48.100505063388255
10
26.359425427764364
20
50.22201673772565
10
25.065686544841988
20
52.64243194688879
10
24.269006074354774
20
55.26873549177412
10
24
20
58
10
24
20
130
10
24
20
130
10
24.269006074354774
20
132.73126450822588
10
25.065686544841984
20
135.3575680531112
10
26.359425427764364
20
137.77798326227435
10
28.100505063388333
20
139.89949493661175
10
30.222016737725568
20
141.64057457223566
10
32.642431946888735
20
142.93431345515796
10
35.2687354917742
20
143.73099392564518
10
38
20
144
10
38
20
144
0
TEXT
5
81
330
C
100
AcDbEntity
420
11010081
8
0
100
AcDbText
10
40
20
119.25
30
0
40
11
1
P3 BORDER & TEXT
7
Arial
100
AcDbText
0
TEXT
5
82
330
C
100
AcDbEntity
420
11010081
8
0
100
AcDbText
10
40
20
64.25
30
0
40
13
1
display-p3 on border color and text color
7
Arial
100
AcDbText
0
LWPOLYLINE
5
83
330
C
100
AcDbEntity
420
11024170
8
0
100
AcDbPolyline
90
42
70
0
43
0
38
0
39
0
10
350
20
144
10
620
20
144
10
620
20
144
10
622.7312645082258
20
143.73099392564518
10
625.3575680531112
20
142.93431345515796
10
627.7779832622745
20
141.64057457223566
10
629.8994949366116
20
139.89949493661175
10
631.6405745722357
20
137.77798326227435
10
632.934313455158
20
135.3575680531112
10
633.7309939256452
20
132.73126450822588
10
634
20
130
10
634
20
58
10
634
20
58
10
633.7309939256452
20
55.26873549177412
10
632.934313455158
20
52.64243194688879
10
631.6405745722357
20
50.22201673772565
10
629.8994949366116
20
48.100505063388255
10
627.7779832622745
20
46.359425427764336
10
625.3575680531112
20
45.06568654484204
10
622.7312645082258
20
44.26900607435482
10
620
20
44
10
350
20
44
10
350
20
44
10
347.2687354917742
20
44.26900607435482
10
344.64243194688873
20
45.06568654484204
10
342.2220167377256
20
46.359425427764336
10
340.1005050633883
20
48.100505063388255
10
338.35942542776434
20
50.22201673772565
10
337.065686544842
20
52.64243194688879
10
336.26900607435476
20
55.26873549177412
10
336
20
58
10
336
20
130
10
336
20
130
10
336.26900607435476
20
132.73126450822588
10
337.065686544842
20
135.3575680531112
10
338.35942542776434
20
137.77798326227435
10
340.1005050633883
20
139.89949493661175
10
342.2220167377256
20
141.64057457223566
10
344.64243194688873
20
142.93431345515796
10
347.2687354917742
20
143.73099392564518
10
350
20
144
10
350
20
144
0
TEXT
5
84
330
C
100
AcDbEntity
420
5575179
8
0
100
AcDbText
10
351
20
120.25
30
0
40
11
1
OKLCH EVERYWHERE
7
Arial
100
AcDbText
0
TEXT
5
85
330
C
100
AcDbEntity
420
5575179
8
0
100
AcDbText
10
351
20
63.25
30
0
40
13
1
bg + border + text all oklch
7
Arial
100
AcDbText
0
LWPOLYLINE
5
86
330
C
100
AcDbEntity
420
13098609
8
0
100
AcDbPolyline
90
42
70
0
43
0
38
0
39
0
10
661
20
144
10
931
20
144
10
931
20
144
10
933.7312645082258
20
143.73099392564518
10
936.3575680531112
20
142.93431345515796
10
938.7779832622745
20
141.64057457223566
10
940.8994949366116
20
139.89949493661175
10
942.6405745722357
20
137.77798326227435
10
943.934313455158
20
135.3575680531112
10
944.7309939256452
20
132.73126450822588
10
945
20
130
10
945
20
58
10
945
20
58
10
944.7309939256452
20
55.26873549177412
10
943.934313455158
20
52.64243194688879
10
942.6405745722357
20
50.22201673772565
10
940.8994949366116
20
48.100505063388255
10
938.7779832622745
20
46.359425427764336
10
936.3575680531112
20
45.06568654484204
10
933.7312645082258
20
44.26900607435482
10
931
20
44
10
661
20
44
10
661
20
44
10
658.2687354917742
20
44.26900607435482
10
655.6424319468888
20
45.06568654484204
10
653.2220167377255
20
46.359425427764336
10
651.1005050633884
20
48.100505063388255
10
649.3594254277643
20
50.22201673772565
10
648.065686544842
20
52.64243194688879
10
647.2690060743548
20
55.26873549177412
10
647
20
58
10
647
20
130
10
647
20
130
10
647.2690060743548
20
132.73126450822588
10
648.065686544842
20
135.3575680531112
10
649.3594254277643
20
137.77798326227435
10
651.1005050633884
20
139.89949493661175
10
653.2220167377255
20
141.64057457223566
10
655.6424319468888
20
142.93431345515796
10
658.2687354917742
20
143.73099392564518
10
661
20
144
10
661
20
144
0
TEXT
5
87
330
C
100
AcDbEntity
420
16777139
8
0
100
AcDbText
10
662
20
120.25
30
0
40
11
1
MIXED FUNCTIONS
7
Arial
100
AcDbText
0
TEXT
5
88
330
C
100
AcDbEntity
420
16777139
8
0
100
AcDbText
10
662
20
63.25
30
0
40
13
1
hwb bg + hsl text + lab border
7
Arial
100
AcDbText
0
LWPOLYLINE
5
89
330
C
100
AcDbEntity
420
0
8
0
100
AcDbPolyline
90
42
70
0
43
0
38
0
39
0
10
973
20
144
10
1243
20
144
10
1243
20
144
10
1245.7312645082259
20
143.73099392564518
10
1248.3575680531112
20
142.93431345515796
10
1250.7779832622743
20
141.64057457223566
10
1252.8994949366117
20
139.89949493661175
10
1254.6405745722357
20
137.77798326227435
10
1255.934313455158
20
135.3575680531112
10
1256.7309939256452
20
132.73126450822588
10
1257
20
130
10
1257
20
58
10
1257
20
58
10
1256.7309939256452
20
55.26873549177412
10
1255.934313455158
20
52.64243194688879
10
1254.6405745722357
20
50.22201673772565
10
1252.8994949366117
20
48.100505063388255
10
1250.7779832622743
20
46.359425427764336
10
1248.3575680531112
20
45.06568654484204
10
1245.7312645082259
20
44.26900607435482
10
1243
20
44
10
973
20
44
10
973
20
44
10
970.2687354917742
20
44.26900607435482
10
967.6424319468888
20
45.06568654484204
10
965.2220167377255
20
46.359425427764336
10
963.1005050633884
20
48.100505063388255
10
961.3594254277643
20
50.22201673772565
10
960.065686544842
20
52.64243194688879
10
959.2690060743548
20
55.26873549177412
10
959
20
58
10
959
20
130
10
959
20
130
10
959.2690060743548
20
132.73126450822588
10
960.065686544842
20
135.3575680531112
10
961.3594254277643
20
137.77798326227435
10
963.1005050633884
20
139.89949493661175
10
965.2220167377255
20
141.64057457223566
10
967.6424319468888
20
142.93431345515796
10
970.2687354917742
20
143.73099392564518
10
973
20
144
10
973
20
144
0
TEXT
5
8A
330
C
100
AcDbEntity
420
16119002
8
0
100
AcDbText
10
973
20
121.25
30
0
40
11
1
WIDE-GAMUT TRIO
7
Arial
100
AcDbText
0
TEXT
5
8B
330
C
100
AcDbEntity
420
16119002
8
0
100
AcDbText
10
973
20
62.25
30
0
40
13
1
prophoto bg + rec2020 text + a98 shadow
7
Arial
100
AcDbText
0
ENDSEC
0
SECTION
2
OBJECTS
0
DICTIONARY
5
A
330
0
100
AcDbDictionary
281
1
3
ACAD_GROUP
350
B
0
DICTIONARY
5
B
330
A
100
AcDbDictionary
281
0
0
ENDSEC
0
EOF