0
SECTION
2
HEADER
9
$ACADVER
1
AC1021
9
$LASTSAVEDBY
1
@tarikjabiri/dxf
9
$HANDSEED
5
46
9
$INSUNITS
70
0
9
$CLAYER
8
0
9
$VIEWCTR
10
591
20
487.5
0
ENDSEC
0
SECTION
2
CLASSES
0
ENDSEC
0
SECTION
2
TABLES
0
TABLE
2
VPORT
5
1
330
0
100
AcDbSymbolTable
70
1
0
VPORT
5
19
330
1
100
AcDbSymbolTableRecord
100
AcDbViewportTableRecord
2
*Active
70
0
10
0
20
0
11
1
21
1
12
591
22
487.5
13
0
23
0
14
10
24
10
15
10
25
10
16
0
26
0
36
1
17
0
27
0
37
0
40
855
41
2
42
50
43
0
44
0
50
0
51
0
71
0
72
100
73
1
74
3
75
0
76
1
77
0
78
0
281
0
65
1
110
0
120
0
130
0
111
1
121
0
131
0
112
0
122
1
132
0
79
0
146
0
348
10020
60
7
61
5
292
1
282
1
141
0
142
0
63
250
421
3358443
0
ENDTAB
0
TABLE
2
LTYPE
5
2
330
0
100
AcDbSymbolTable
70
3
0
LTYPE
5
12
330
2
100
AcDbSymbolTableRecord
100
AcDbLinetypeTableRecord
2
ByBlock
70
0
3

72
65
73
0
40
0
0
LTYPE
5
13
330
2
100
AcDbSymbolTableRecord
100
AcDbLinetypeTableRecord
2
ByLayer
70
0
3

72
65
73
0
40
0
0
LTYPE
5
14
330
2
100
AcDbSymbolTableRecord
100
AcDbLinetypeTableRecord
2
Continuous
70
0
3
Solid line
72
65
73
0
40
0
0
ENDTAB
0
TABLE
2
LAYER
5
3
330
0
100
AcDbSymbolTable
70
1
0
LAYER
5
15
330
3
100
AcDbSymbolTableRecord
100
AcDbLayerTableRecord
2
0
70
0
62
7
6
Continuous
370
0
390
0
0
ENDTAB
0
TABLE
2
STYLE
5
4
330
0
100
AcDbSymbolTable
70
1
0
STYLE
5
16
330
4
100
AcDbSymbolTableRecord
100
AcDbTextStyleTableRecord
2
Standard
70
0
40
0
41
1
50
0
71
0
42
1
3
txt
4

0
ENDTAB
0
TABLE
2
VIEW
5
5
330
0
100
AcDbSymbolTable
70
0
0
ENDTAB
0
TABLE
2
UCS
5
6
330
0
100
AcDbSymbolTable
70
0
0
ENDTAB
0
TABLE
2
APPID
5
7
330
0
100
AcDbSymbolTable
70
1
0
APPID
5
17
330
7
100
AcDbSymbolTableRecord
100
AcDbRegAppTableRecord
2
ACAD
70
0
0
ENDTAB
0
TABLE
2
DIMSTYLE
5
8
330
0
100
AcDbSymbolTable
70
1
100
AcDbDimStyleTable
0
DIMSTYLE
105
18
330
8
100
AcDbSymbolTableRecord
100
AcDbDimStyleTableRecord
2
Standard
70
0
340
16
0
ENDTAB
0
TABLE
2
BLOCK_RECORD
5
9
330
0
100
AcDbSymbolTable
70
2
0
BLOCK_RECORD
5
C
330
9
100
AcDbSymbolTableRecord
100
AcDbBlockTableRecord
2
*Model_Space
70
0
280
1
281
0
0
BLOCK_RECORD
5
F
330
9
100
AcDbSymbolTableRecord
100
AcDbBlockTableRecord
2
*Paper_Space
70
0
280
1
281
0
0
ENDTAB
0
ENDSEC
0
SECTION
2
BLOCKS
0
BLOCK
5
D
330
C
100
AcDbEntity
8
0
100
AcDbBlockBegin
2
*Model_Space
70
0
10
0
20
0
30
0
3
*Model_Space
1

0
ENDBLK
5
E
100
AcDbEntity
8
0
100
AcDbBlockEnd
0
BLOCK
5
10
330
F
100
AcDbEntity
8
0
100
AcDbBlockBegin
2
*Paper_Space
70
0
10
0
20
0
30
0
3
*Paper_Space
1

0
ENDBLK
5
11
100
AcDbEntity
8
0
100
AcDbBlockEnd
0
ENDSEC
0
SECTION
2
ENTITIES
0
LWPOLYLINE
5
1A
330
C
100
AcDbEntity
420
14737632
8
0
100
AcDbPolyline
90
42
70
0
43
0
38
0
39
0
10
32
20
852
10
328
20
852
10
328
20
852
10
330.34108386419354
20
851.7694233648388
10
332.59220118838107
20
851.0865543901355
10
334.66684279623524
20
849.9776353476306
10
336.4852813742386
20
848.4852813742385
10
337.97763534763055
20
846.6668427962352
10
339.08655439013546
20
844.5922011883811
10
339.76942336483876
20
842.3410838641935
10
340
20
840
10
340
20
638
10
340
20
638
10
339.76942336483876
20
635.6589161358065
10
339.08655439013546
20
633.4077988116189
10
337.97763534763055
20
631.3331572037648
10
336.4852813742386
20
629.5147186257614
10
334.66684279623524
20
628.0223646523694
10
332.59220118838107
20
626.9134456098645
10
330.34108386419354
20
626.2305766351612
10
328
20
626
10
32
20
626
10
32
20
626
10
29.65891613580646
20
626.2305766351612
10
27.407798811618925
20
626.9134456098645
10
25.333157203764777
20
628.0223646523694
10
23.514718625761432
20
629.5147186257614
10
22.022364652369454
20
631.3331572037648
10
20.91344560986456
20
633.4077988116189
10
20.230576635161235
20
635.6589161358065
10
20
20
638
10
20
20
840
10
20
20
840
10
20.230576635161235
20
842.3410838641936
10
20.91344560986456
20
844.5922011883811
10
22.022364652369454
20
846.6668427962352
10
23.51471862576143
20
848.4852813742385
10
25.333157203764774
20
849.9776353476306
10
27.407798811618918
20
851.0865543901355
10
29.658916135806457
20
851.7694233648388
10
31.999999999999996
20
852
10
32
20
852
0
LWPOLYLINE
5
1B
330
C
100
AcDbEntity
420
16777215
8
0
100
AcDbPolyline
90
5
70
0
43
0
38
0
39
0
10
21
20
851
10
339
20
851
10
339
20
798
10
21
20
798
10
21
20
851
0
TEXT
5
1C
330
C
100
AcDbEntity
420
16777215
8
0
100
AcDbText
10
41
20
815
30
0
40
20
1
Feature Overview
7
STANDARD
100
AcDbText
0
TEXT
5
1D
330
C
100
AcDbEntity
420
5592405
8
0
100
AcDbText
10
41
20
763
30
0
40
16
1
This card combines gradients, borders, border-radius, box-shadow, and typography in a realistic component layout.
7
STANDARD
100
AcDbText
0
TEXT
5
1E
330
C
100
AcDbEntity
420
5592405
8
0
100
AcDbText
10
41
20
740.609375
30
0
40
16
1
This card combines gradients, borders, border-radius, box-shadow, and typography in a realistic component layout.
7
STANDARD
100
AcDbText
0
TEXT
5
1F
330
C
100
AcDbEntity
420
5592405
8
0
100
AcDbText
10
41
20
718.21875
30
0
40
16
1
This card combines gradients, borders, border-radius, box-shadow, and typography in a realistic component layout.
7
STANDARD
100
AcDbText
0
LWPOLYLINE
5
20
330
C
100
AcDbEntity
420
14737632
8
0
100
AcDbPolyline
90
5
70
0
43
0
38
0
39
0
10
21
20
687
10
339
20
687
10
339
20
627
10
21
20
627
10
21
20
687
0
LWPOLYLINE
5
21
330
C
100
AcDbEntity
420
16777215
8
0
100
AcDbPolyline
90
42
70
0
43
0
38
0
39
0
10
47
20
674
10
110
20
674
10
110
20
674
10
111.17054193209677
20
673.8847116824194
10
112.29610059419053
20
673.5432771950677
10
113.33342139811761
20
672.9888176738152
10
114.24264068711929
20
672.2426406871193
10
114.98881767381528
20
671.3334213981176
10
115.54327719506772
20
670.2961005941905
10
115.88471168241938
20
669.1705419320967
10
116
20
668
10
116
20
645
10
116
20
645
10
115.88471168241938
20
643.8294580679033
10
115.54327719506772
20
642.7038994058095
10
114.98881767381528
20
641.6665786018824
10
114.24264068711929
20
640.7573593128807
10
113.33342139811761
20
640.0111823261848
10
112.29610059419053
20
639.4567228049323
10
111.17054193209677
20
639.1152883175806
10
110
20
639
10
47
20
639
10
47
20
639
10
45.82945806790323
20
639.1152883175806
10
44.70389940580946
20
639.4567228049323
10
43.666578601882385
20
640.0111823261848
10
42.757359312880716
20
640.7573593128807
10
42.01118232618473
20
641.6665786018824
10
41.456722804932284
20
642.7038994058095
10
41.11528831758062
20
643.8294580679033
10
41
20
645
10
41
20
668
10
41
20
668
10
41.11528831758062
20
669.1705419320967
10
41.45672280493228
20
670.2961005941905
10
42.01118232618472
20
671.3334213981176
10
42.757359312880716
20
672.2426406871193
10
43.666578601882385
20
672.9888176738152
10
44.70389940580946
20
673.5432771950677
10
45.829458067903225
20
673.8847116824194
10
47
20
674
10
47
20
674
0
TEXT
5
22
330
C
100
AcDbEntity
420
16777215
8
0
100
AcDbText
10
57
20
648.828125
30
0
40
15
1
Accept
7
STANDARD
100
AcDbText
0
LWPOLYLINE
5
23
330
C
100
AcDbEntity
420
2001125
8
0
100
AcDbPolyline
90
42
70
0
43
0
38
0
39
0
10
132
20
674
10
199
20
674
10
199
20
674
10
200.17054193209677
20
673.8847116824194
10
201.29610059419053
20
673.5432771950677
10
202.33342139811762
20
672.9888176738152
10
203.2426406871193
20
672.2426406871193
10
203.98881767381528
20
671.3334213981176
10
204.54327719506773
20
670.2961005941905
10
204.88471168241938
20
669.1705419320967
10
205
20
668
10
205
20
645
10
205
20
645
10
204.88471168241938
20
643.8294580679033
10
204.54327719506773
20
642.7038994058095
10
203.98881767381528
20
641.6665786018824
10
203.2426406871193
20
640.7573593128807
10
202.33342139811762
20
640.0111823261848
10
201.29610059419053
20
639.4567228049323
10
200.17054193209677
20
639.1152883175806
10
199
20
639
10
132
20
639
10
132
20
639
10
130.82945806790323
20
639.1152883175806
10
129.70389940580947
20
639.4567228049323
10
128.66657860188238
20
640.0111823261848
10
127.75735931288071
20
640.7573593128807
10
127.01118232618472
20
641.6665786018824
10
126.45672280493228
20
642.7038994058095
10
126.11528831758062
20
643.8294580679033
10
126
20
645
10
126
20
668
10
126
20
668
10
126.11528831758062
20
669.1705419320967
10
126.45672280493228
20
670.2961005941905
10
127.01118232618472
20
671.3334213981176
10
127.75735931288071
20
672.2426406871193
10
128.66657860188238
20
672.9888176738152
10
129.70389940580947
20
673.5432771950677
10
130.82945806790323
20
673.8847116824194
10
132
20
674
10
132
20
674
0
TEXT
5
24
330
C
100
AcDbEntity
420
2001125
8
0
100
AcDbText
10
144.359375
20
648.828125
30
0
40
15
1
Cancel
7
STANDARD
100
AcDbText
0
LWPOLYLINE
5
25
330
C
100
AcDbEntity
420
14737632
8
0
100
AcDbPolyline
90
42
70
0
43
0
38
0
39
0
10
30
20
606
10
199
20
606
10
199
20
606
10
200.95090322016128
20
605.8078528040323
10
202.8268343236509
20
605.2387953251128
10
204.55570233019603
20
604.3146961230254
10
206.07106781186548
20
603.0710678118655
10
207.31469612302544
20
601.555702330196
10
208.23879532511287
20
599.8268343236509
10
208.8078528040323
20
597.9509032201613
10
209
20
596
10
209
20
524
10
209
20
524
10
208.8078528040323
20
522.0490967798387
10
208.23879532511287
20
520.1731656763491
10
207.31469612302544
20
518.444297669804
10
206.07106781186548
20
516.9289321881345
10
204.55570233019603
20
515.6853038769746
10
202.8268343236509
20
514.7612046748872
10
200.95090322016128
20
514.1921471959677
10
199
20
514
10
30
20
514
10
30
20
514
10
28.049096779838717
20
514.1921471959677
10
26.173165676349104
20
514.7612046748872
10
24.44429766980398
20
515.6853038769746
10
22.928932188134524
20
516.9289321881345
10
21.685303876974547
20
518.444297669804
10
20.761204674887132
20
520.1731656763491
10
20.192147195967696
20
522.0490967798387
10
20
20
524
10
20
20
596
10
20
20
596
10
20.192147195967696
20
597.9509032201613
10
20.761204674887132
20
599.8268343236509
10
21.685303876974544
20
601.555702330196
10
22.928932188134524
20
603.0710678118655
10
24.44429766980398
20
604.3146961230254
10
26.173165676349097
20
605.2387953251128
10
28.049096779838713
20
605.8078528040323
10
29.999999999999996
20
606
10
30
20
606
0
TEXT
5
26
330
C
100
AcDbEntity
420
1713022
8
0
100
AcDbText
10
72.640625
20
548.828125
30
0
40
40
1
1,284
7
STANDARD
100
AcDbText
0
TEXT
5
27
330
C
100
AcDbEntity
420
8947848
8
0
100
AcDbText
10
91.484375
20
530.828125
30
0
40
14
1
USERS
7
STANDARD
100
AcDbText
0
LWPOLYLINE
5
28
330
C
100
AcDbEntity
420
14737632
8
0
100
AcDbPolyline
90
42
70
0
43
0
38
0
39
0
10
235
20
606
10
404
20
606
10
404
20
606
10
405.9509032201613
20
605.8078528040323
10
407.82683432365087
20
605.2387953251128
10
409.555702330196
20
604.3146961230254
10
411.0710678118655
20
603.0710678118655
10
412.31469612302544
20
601.555702330196
10
413.23879532511285
20
599.8268343236509
10
413.8078528040323
20
597.9509032201613
10
414
20
596
10
414
20
524
10
414
20
524
10
413.8078528040323
20
522.0490967798387
10
413.23879532511285
20
520.1731656763491
10
412.31469612302544
20
518.444297669804
10
411.0710678118655
20
516.9289321881345
10
409.555702330196
20
515.6853038769746
10
407.82683432365087
20
514.7612046748872
10
405.9509032201613
20
514.1921471959677
10
404
20
514
10
235
20
514
10
235
20
514
10
233.04909677983872
20
514.1921471959677
10
231.1731656763491
20
514.7612046748872
10
229.44429766980397
20
515.6853038769746
10
227.92893218813452
20
516.9289321881345
10
226.68530387697456
20
518.444297669804
10
225.76120467488713
20
520.1731656763491
10
225.1921471959677
20
522.0490967798387
10
225
20
524
10
225
20
596
10
225
20
596
10
225.1921471959677
20
597.9509032201613
10
225.76120467488713
20
599.8268343236509
10
226.68530387697456
20
601.555702330196
10
227.92893218813452
20
603.0710678118655
10
229.44429766980397
20
604.3146961230254
10
231.1731656763491
20
605.2387953251128
10
233.04909677983872
20
605.8078528040323
10
235
20
606
10
235
20
606
0
TEXT
5
29
330
C
100
AcDbEntity
420
1713022
8
0
100
AcDbText
10
282.640625
20
548.828125
30
0
40
40
1
$34k
7
STANDARD
100
AcDbText
0
TEXT
5
2A
330
C
100
AcDbEntity
420
8947848
8
0
100
AcDbText
10
287.484375
20
530.828125
30
0
40
14
1
REVENUE
7
STANDARD
100
AcDbText
0
LWPOLYLINE
5
2B
330
C
100
AcDbEntity
420
14737632
8
0
100
AcDbPolyline
90
42
70
0
43
0
38
0
39
0
10
441
20
606
10
610
20
606
10
610
20
606
10
611.9509032201613
20
605.8078528040323
10
613.8268343236509
20
605.2387953251128
10
615.555702330196
20
604.3146961230254
10
617.0710678118655
20
603.0710678118655
10
618.3146961230254
20
601.555702330196
10
619.2387953251128
20
599.8268343236509
10
619.8078528040323
20
597.9509032201613
10
620
20
596
10
620
20
524
10
620
20
524
10
619.8078528040323
20
522.0490967798387
10
619.2387953251128
20
520.1731656763491
10
618.3146961230254
20
518.444297669804
10
617.0710678118655
20
516.9289321881345
10
615.555702330196
20
515.6853038769746
10
613.8268343236509
20
514.7612046748872
10
611.9509032201613
20
514.1921471959677
10
610
20
514
10
441
20
514
10
441
20
514
10
439.0490967798387
20
514.1921471959677
10
437.17316567634913
20
514.7612046748872
10
435.444297669804
20
515.6853038769746
10
433.9289321881345
20
516.9289321881345
10
432.68530387697456
20
518.444297669804
10
431.76120467488715
20
520.1731656763491
10
431.1921471959677
20
522.0490967798387
10
431
20
524
10
431
20
596
10
431
20
596
10
431.1921471959677
20
597.9509032201613
10
431.76120467488715
20
599.8268343236509
10
432.68530387697456
20
601.555702330196
10
433.9289321881345
20
603.0710678118655
10
435.444297669804
20
604.3146961230254
10
437.1731656763491
20
605.2387953251128
10
439.0490967798387
20
605.8078528040323
10
441
20
606
10
441
20
606
0
TEXT
5
2C
330
C
100
AcDbEntity
420
1713022
8
0
100
AcDbText
10
478.640625
20
548.828125
30
0
40
40
1
98.6%
7
STANDARD
100
AcDbText
0
TEXT
5
2D
330
C
100
AcDbEntity
420
8947848
8
0
100
AcDbText
10
499.640625
20
530.828125
30
0
40
14
1
UPTIME
7
STANDARD
100
AcDbText
0
LWPOLYLINE
5
2E
330
C
100
AcDbEntity
420
14737632
8
0
100
AcDbPolyline
90
42
70
0
43
0
38
0
39
0
10
28
20
494
10
1252
20
494
10
1252
20
494
10
1253.5607225761291
20
493.84628224322586
10
1255.0614674589208
20
493.3910362600903
10
1256.4445618641569
20
492.6517568984204
10
1257.6568542494924
20
491.65685424949237
10
1258.6517568984204
20
490.4445618641568
10
1259.3910362600902
20
489.06146745892073
10
1259.846282243226
20
487.560722576129
10
1260
20
486
10
1260
20
344
10
1260
20
344
10
1259.846282243226
20
342.439277423871
10
1259.3910362600902
20
340.9385325410793
10
1258.6517568984204
20
339.55543813584313
10
1257.6568542494924
20
338.3431457505076
10
1256.4445618641569
20
337.34824310157967
10
1255.0614674589208
20
336.60896373990965
10
1253.5607225761291
20
336.1537177567742
10
1252
20
336
10
28
20
336
10
28
20
336
10
26.439277423870976
20
336.1537177567742
10
24.938532541079283
20
336.60896373990965
10
23.555438135843183
20
337.34824310157967
10
22.34314575050762
20
338.3431457505076
10
21.348243101579637
20
339.55543813584313
10
20.608963739909704
20
340.9385325410793
10
20.153717756774157
20
342.439277423871
10
20
20
344
10
20
20
486
10
20
20
486
10
20.153717756774157
20
487.560722576129
10
20.608963739909704
20
489.06146745892073
10
21.348243101579637
20
490.4445618641568
10
22.343145750507617
20
491.65685424949237
10
23.555438135843183
20
492.6517568984204
10
24.938532541079276
20
493.3910362600903
10
26.43927742387097
20
493.84628224322586
10
28
20
494
10
28
20
494
0
LWPOLYLINE
5
2F
330
C
100
AcDbEntity
420
4367861
8
0
100
AcDbPolyline
90
5
70
0
43
0
38
0
39
0
10
47
20
396.828125
10
77
20
396.828125
10
77
20
356.828125
10
47
20
356.828125
10
47
20
396.828125
0
LWPOLYLINE
5
30
330
C
100
AcDbEntity
420
4367861
8
0
100
AcDbPolyline
90
5
70
0
43
0
38
0
39
0
10
87
20
426.828125
10
117
20
426.828125
10
117
20
356.828125
10
87
20
356.828125
10
87
20
426.828125
0
LWPOLYLINE
5
31
330
C
100
AcDbEntity
420
4367861
8
0
100
AcDbPolyline
90
5
70
0
43
0
38
0
39
0
10
127
20
446.828125
10
157
20
446.828125
10
157
20
356.828125
10
127
20
356.828125
10
127
20
446.828125
0
LWPOLYLINE
5
32
330
C
100
AcDbEntity
420
4367861
8
0
100
AcDbPolyline
90
5
70
0
43
0
38
0
39
0
10
167
20
416.828125
10
197
20
416.828125
10
197
20
356.828125
10
167
20
356.828125
10
167
20
416.828125
0
LWPOLYLINE
5
33
330
C
100
AcDbEntity
420
4367861
8
0
100
AcDbPolyline
90
5
70
0
43
0
38
0
39
0
10
207
20
456.828125
10
237
20
456.828125
10
237
20
356.828125
10
207
20
356.828125
10
207
20
456.828125
0
LWPOLYLINE
5
34
330
C
100
AcDbEntity
420
4367861
8
0
100
AcDbPolyline
90
5
70
0
43
0
38
0
39
0
10
247
20
431.828125
10
277
20
431.828125
10
277
20
356.828125
10
247
20
356.828125
10
247
20
431.828125
0
LWPOLYLINE
5
35
330
C
100
AcDbEntity
420
4367861
8
0
100
AcDbPolyline
90
5
70
0
43
0
38
0
39
0
10
287
20
466.828125
10
317
20
466.828125
10
317
20
356.828125
10
287
20
356.828125
10
287
20
466.828125
0
LWPOLYLINE
5
36
330
C
100
AcDbEntity
420
15022389
8
0
100
AcDbPolyline
90
7
70
0
43
0
38
0
39
0
10
62
20
406.828125
10
102
20
436.828125
10
142
20
456.828125
10
182
20
426.828125
10
222
20
466.828125
10
262
20
441.828125
10
302
20
471.828125
0
TEXT
5
37
330
C
100
AcDbEntity
420
0
8
0
100
AcDbText
10
147.5390625
20
356.828125
30
0
40
11
1
Monthly Data
7
STANDARD
100
AcDbText
0
LWPOLYLINE
5
38
330
C
100
AcDbEntity
420
16777215
8
0
100
AcDbPolyline
90
42
70
0
43
0
38
0
39
0
10
33
20
316
10
71
20
316
10
71
20
316
10
73.53617418620966
20
315.75020864524197
10
75.97488462074617
20
315.0104339226467
10
78.22241302925482
20
313.80910495993305
10
80.19238815542512
20
312.1923881554251
10
81.80910495993308
20
310.2224130292549
10
83.01043392264673
20
307.97488462074614
10
83.750208645242
20
305.5361741862097
10
84
20
303
10
84
20
303
10
84
20
303
10
83.750208645242
20
300.4638258137903
10
83.01043392264673
20
298.02511537925386
10
81.80910495993308
20
295.7775869707451
10
80.19238815542512
20
293.8076118445749
10
78.22241302925482
20
292.19089504006695
10
75.97488462074617
20
290.9895660773533
10
73.53617418620966
20
290.24979135475803
10
71
20
290
10
33
20
290
10
33
20
290
10
30.463825813790333
20
290.24979135475803
10
28.025115379253833
20
290.9895660773533
10
25.777586970745176
20
292.19089504006695
10
23.807611844574883
20
293.8076118445749
10
22.190895040066913
20
295.7775869707451
10
20.989566077353274
20
298.02511537925386
10
20.249791354758003
20
300.4638258137903
10
20
20
303
10
20
20
303
10
20
20
303
10
20.249791354758003
20
305.5361741862097
10
20.98956607735327
20
307.97488462074614
10
22.19089504006691
20
310.2224130292549
10
23.80761184457488
20
312.1923881554251
10
25.777586970745173
20
313.80910495993305
10
28.025115379253826
20
315.0104339226467
10
30.46382581379033
20
315.75020864524197
10
33
20
316
10
33
20
316
0
TEXT
5
39
330
C
100
AcDbEntity
420
16777215
8
0
100
AcDbText
10
34
20
295.828125
30
0
40
14
1
Active
7
STANDARD
100
AcDbText
0
LWPOLYLINE
5
3A
330
C
100
AcDbEntity
420
16777215
8
0
100
AcDbPolyline
90
5
70
0
43
0
38
0
39
0
10
95.37124250533294
20
314.01059335247805
10
170.26849250533294
20
317.9357933524781
10
171.62922850533295
20
291.97141335247807
10
96.73197850533295
20
288.04621335247805
10
95.37124250533294
20
314.01059335247805
0
TEXT
5
3B
330
C
100
AcDbEntity
420
16777215
8
0
100
AcDbText
10
109.69734191894531
20
294.59881591796875
30
0
40
16.4586181640625
1
Pending
7
STANDARD
100
AcDbText
0
LWPOLYLINE
5
3C
330
C
100
AcDbEntity
420
16777215
8
0
100
AcDbPolyline
90
42
70
0
43
0
38
0
39
0
10
193.86562004089356
20
317.29999999999995
10
241.16562004089354
20
317.29999999999995
10
241.16562004089354
20
317.29999999999995
10
243.95541164572418
20
317.0252295097662
10
246.63799312371432
20
316.21147731491146
10
249.11027437307385
20
314.89001545592646
10
251.2772470118612
20
313.1116269709677
10
253.05563549681995
20
310.94465433218033
10
254.37709735580495
20
308.4723730828208
10
255.19084955065975
20
305.7897916048306
10
255.46562004089355
20
303
10
255.46562004089355
20
303
10
255.46562004089355
20
303
10
255.19084955065975
20
300.2102083951694
10
254.37709735580495
20
297.5276269171792
10
253.05563549681995
20
295.05534566781967
10
251.2772470118612
20
292.8883730290323
10
249.11027437307385
20
291.10998454407354
10
246.63799312371432
20
289.78852268508854
10
243.95541164572418
20
288.9747704902338
10
241.16562004089354
20
288.70000000000005
10
193.86562004089356
20
288.69999999999993
10
193.86562004089356
20
288.70000000000005
10
191.07582843606292
20
288.9747704902338
10
188.39324695807278
20
289.78852268508854
10
185.92096570871325
20
291.10998454407354
10
183.7539930699259
20
292.8883730290323
10
181.97560458496716
20
295.05534566781967
10
180.65414272598215
20
297.5276269171792
10
179.84039053112735
20
300.2102083951694
10
179.56562004089355
20
303
10
179.56562004089355
20
303
10
179.56562004089355
20
303
10
179.84039053112735
20
305.7897916048306
10
180.65414272598215
20
308.4723730828208
10
181.97560458496716
20
310.94465433218033
10
183.7539930699259
20
313.1116269709677
10
185.92096570871325
20
314.89001545592646
10
188.39324695807275
20
316.21147731491146
10
191.07582843606292
20
317.0252295097662
10
193.86562004089356
20
317.29999999999995
10
193.86562004089356
20
317.29999999999995
0
TEXT
5
3D
330
C
100
AcDbEntity
420
16777215
8
0
100
AcDbText
10
195.3406219482422
20
295.12811279296875
30
0
40
15.4000244140625
1
Critical
7
STANDARD
100
AcDbText
0
LWPOLYLINE
5
3E
330
C
100
AcDbEntity
420
16777215
8
0
100
AcDbPolyline
90
5
70
0
43
0
38
0
39
0
10
265.1373531
20
316
10
315.1373531
20
316
10
312.86264689999996
20
290
10
262.86264689999996
20
290
10
265.1373531
20
316
0
TEXT
5
3F
330
C
100
AcDbEntity
420
16777215
8
0
100
AcDbText
10
277.4500732421875
20
295.828125
30
0
40
14
1
Info
7
STANDARD
100
AcDbText
0
LWPOLYLINE
5
40
330
C
100
AcDbEntity
420
8280002
8
0
100
AcDbPolyline
90
42
70
0
43
0
38
0
39
0
10
30
20
270
10
1250
20
270
10
1250
20
270
10
1251.9509032201613
20
269.80785280403234
10
1253.826834323651
20
269.23879532511285
10
1255.555702330196
20
268.31469612302544
10
1257.0710678118655
20
267.0710678118654
10
1258.3146961230254
20
265.555702330196
10
1259.238795325113
20
263.8268343236509
10
1259.8078528040323
20
261.9509032201613
10
1260
20
260
10
1260
20
230
10
1260
20
230
10
1259.8078528040323
20
228.0490967798387
10
1259.238795325113
20
226.17316567634907
10
1258.3146961230254
20
224.44429766980397
10
1257.0710678118655
20
222.92893218813458
10
1255.555702330196
20
221.68530387697456
10
1253.826834323651
20
220.76120467488715
10
1251.9509032201613
20
220.19214719596766
10
1250
20
220
10
30
20
220
10
30
20
220
10
28.049096779838717
20
220.19214719596766
10
26.173165676349104
20
220.76120467488715
10
24.44429766980398
20
221.68530387697456
10
22.928932188134524
20
222.92893218813447
10
21.685303876974547
20
224.44429766980397
10
20.761204674887132
20
226.17316567634907
10
20.192147195967696
20
228.0490967798387
10
20
20
230
10
20
20
260
10
20
20
260
10
20.192147195967696
20
261.9509032201613
10
20.761204674887132
20
263.8268343236509
10
21.685303876974544
20
265.555702330196
10
22.928932188134524
20
267.0710678118654
10
24.44429766980398
20
268.31469612302544
10
26.173165676349097
20
269.23879532511285
10
28.049096779838713
20
269.80785280403234
10
29.999999999999996
20
270
10
30
20
270
0
TEXT
5
41
330
C
100
AcDbEntity
420
4532128
8
0
100
AcDbText
10
22
20
250.828125
30
0
40
17
1
Shadow DOM Widget
7
STANDARD
100
AcDbText
0
TEXT
5
42
330
C
100
AcDbEntity
420
6174129
8
0
100
AcDbText
10
22
20
224.828125
30
0
40
15
1
This widget lives inside a declarative shadow root with its own scoped styles, gradients, and borders.
7
STANDARD
100
AcDbText
0
LWPOLYLINE
5
43
330
C
100
AcDbEntity
420
0
8
0
100
AcDbPolyline
90
42
70
0
43
0
38
0
39
0
10
70
20
200
10
70
20
200
10
70
20
200
10
79.75451610080641
20
199.03926402016157
10
89.1341716182545
20
196.19397662556435
10
97.77851165098011
20
191.5734806151272
10
105.35533905932738
20
185.35533905932732
10
111.57348061512727
20
177.77851165098014
10
116.19397662556435
20
169.13417161825453
10
119.03926402016153
20
159.75451610080643
10
120
20
150
10
120
20
150
10
120
20
150
10
119.03926402016153
20
140.24548389919357
10
116.19397662556435
20
130.86582838174547
10
111.57348061512727
20
122.22148834901986
10
105.35533905932738
20
114.64466094067268
10
97.77851165098011
20
108.42651938487279
10
89.1341716182545
20
103.80602337443565
10
79.75451610080641
20
100.96073597983843
10
70
20
100
10
70
20
100
10
70
20
100
10
60.24548389919359
20
100.96073597983843
10
50.865828381745516
20
103.80602337443565
10
42.22148834901991
20
108.42651938487279
10
34.64466094067263
20
114.64466094067257
10
28.426519384872734
20
122.22148834901986
10
23.80602337443566
20
130.86582838174547
10
20.960735979838475
20
140.24548389919357
10
20
20
150
10
20
20
150
10
20
20
150
10
20.960735979838475
20
159.75451610080643
10
23.80602337443566
20
169.13417161825453
10
28.426519384872726
20
177.77851165098014
10
34.644660940672615
20
185.35533905932732
10
42.22148834901989
20
191.5734806151272
10
50.86582838174549
20
196.19397662556435
10
60.245483899193566
20
199.03926402016157
10
69.99999999999999
20
200
10
70
20
200
0
LWPOLYLINE
5
44
330
C
100
AcDbEntity
420
0
8
0
100
AcDbPolyline
90
42
70
0
43
0
38
0
39
0
10
110
20
180
10
110
20
180
10
110
20
180
10
119.75451610080641
20
179.03926402016157
10
129.1341716182545
20
176.19397662556435
10
137.7785116509801
20
171.5734806151272
10
145.35533905932738
20
165.35533905932732
10
151.57348061512727
20
157.77851165098014
10
156.19397662556435
20
149.13417161825453
10
159.0392640201615
20
139.75451610080643
10
160
20
130
10
160
20
130
10
160
20
130
10
159.0392640201615
20
120.24548389919357
10
156.19397662556435
20
110.86582838174547
10
151.57348061512727
20
102.22148834901986
10
145.35533905932738
20
94.64466094067268
10
137.7785116509801
20
88.42651938487279
10
129.1341716182545
20
83.80602337443565
10
119.75451610080641
20
80.96073597983843
10
110
20
80
10
110
20
80
10
110
20
80
10
100.24548389919359
20
80.96073597983843
10
90.86582838174552
20
83.80602337443565
10
82.2214883490199
20
88.42651938487279
10
74.64466094067262
20
94.64466094067257
10
68.42651938487273
20
102.22148834901986
10
63.80602337443566
20
110.86582838174547
10
60.960735979838475
20
120.24548389919357
10
60
20
130
10
60
20
130
10
60
20
130
10
60.960735979838475
20
139.75451610080643
10
63.80602337443566
20
149.13417161825453
10
68.42651938487273
20
157.77851165098014
10
74.64466094067262
20
165.35533905932732
10
82.22148834901989
20
171.5734806151272
10
90.86582838174549
20
176.19397662556435
10
100.24548389919357
20
179.03926402016157
10
109.99999999999999
20
180
10
110
20
180
0
LWPOLYLINE
5
45
330
C
100
AcDbEntity
420
0
8
0
100
AcDbPolyline
90
42
70
0
43
0
38
0
39
0
10
150
20
160
10
150
20
160
10
150
20
160
10
159.75451610080643
20
159.03926402016157
10
169.1341716182545
20
156.19397662556435
10
177.7785116509801
20
151.5734806151272
10
185.35533905932738
20
145.35533905932732
10
191.57348061512727
20
137.77851165098014
10
196.19397662556435
20
129.13417161825453
10
199.0392640201615
20
119.75451610080643
10
200
20
110
10
200
20
110
10
200
20
110
10
199.0392640201615
20
100.24548389919357
10
196.19397662556435
20
90.86582838174547
10
191.57348061512727
20
82.22148834901986
10
185.35533905932738
20
74.64466094067268
10
177.7785116509801
20
68.42651938487279
10
169.1341716182545
20
63.806023374435654
10
159.75451610080643
20
60.96073597983843
10
150
20
60
10
150
20
60
10
150
20
60
10
140.2454838991936
20
60.96073597983843
10
130.8658283817455
20
63.806023374435654
10
122.2214883490199
20
68.42651938487279
10
114.64466094067262
20
74.64466094067257
10
108.42651938487273
20
82.22148834901986
10
103.80602337443565
20
90.86582838174547
10
100.96073597983847
20
100.24548389919357
10
100
20
110
10
100
20
110
10
100
20
110
10
100.96073597983847
20
119.75451610080643
10
103.80602337443565
20
129.13417161825453
10
108.42651938487273
20
137.77851165098014
10
114.64466094067262
20
145.35533905932732
10
122.22148834901989
20
151.5734806151272
10
130.86582838174547
20
156.19397662556435
10
140.24548389919357
20
159.03926402016157
10
150
20
160
10
150
20
160
0
ENDSEC
0
SECTION
2
OBJECTS
0
DICTIONARY
5
A
330
0
100
AcDbDictionary
281
1
3
ACAD_GROUP
350
B
0
DICTIONARY
5
B
330
A
100
AcDbDictionary
281
0
0
ENDSEC
0
EOF