0
SECTION
2
HEADER
9
$ACADVER
1
AC1021
9
$LASTSAVEDBY
1
@tarikjabiri/dxf
9
$HANDSEED
5
47
9
$INSUNITS
70
0
9
$CLAYER
8
0
9
$VIEWCTR
10
570
20
390.25
0
ENDSEC
0
SECTION
2
CLASSES
0
ENDSEC
0
SECTION
2
TABLES
0
TABLE
2
VPORT
5
1
330
0
100
AcDbSymbolTable
70
1
0
VPORT
5
19
330
1
100
AcDbSymbolTableRecord
100
AcDbViewportTableRecord
2
*Active
70
0
10
0
20
0
11
1
21
1
12
570
22
390.25
13
0
23
0
14
10
24
10
15
10
25
10
16
0
26
0
36
1
17
0
27
0
37
0
40
980.5
41
2
42
50
43
0
44
0
50
0
51
0
71
0
72
100
73
1
74
3
75
0
76
1
77
0
78
0
281
0
65
1
110
0
120
0
130
0
111
1
121
0
131
0
112
0
122
1
132
0
79
0
146
0
348
10020
60
7
61
5
292
1
282
1
141
0
142
0
63
250
421
3358443
0
ENDTAB
0
TABLE
2
LTYPE
5
2
330
0
100
AcDbSymbolTable
70
3
0
LTYPE
5
12
330
2
100
AcDbSymbolTableRecord
100
AcDbLinetypeTableRecord
2
ByBlock
70
0
3

72
65
73
0
40
0
0
LTYPE
5
13
330
2
100
AcDbSymbolTableRecord
100
AcDbLinetypeTableRecord
2
ByLayer
70
0
3

72
65
73
0
40
0
0
LTYPE
5
14
330
2
100
AcDbSymbolTableRecord
100
AcDbLinetypeTableRecord
2
Continuous
70
0
3
Solid line
72
65
73
0
40
0
0
ENDTAB
0
TABLE
2
LAYER
5
3
330
0
100
AcDbSymbolTable
70
1
0
LAYER
5
15
330
3
100
AcDbSymbolTableRecord
100
AcDbLayerTableRecord
2
0
70
0
62
7
6
Continuous
370
0
390
0
0
ENDTAB
0
TABLE
2
STYLE
5
4
330
0
100
AcDbSymbolTable
70
2
0
STYLE
5
16
330
4
100
AcDbSymbolTableRecord
100
AcDbTextStyleTableRecord
2
Standard
70
0
40
0
41
1
50
0
71
0
42
1
3
txt
4

0
STYLE
5
1D
330
4
100
AcDbSymbolTableRecord
100
AcDbTextStyleTableRecord
2
Arial
70
0
40
0
41
1
50
0
71
0
42
1
3
Arial.ttf
4

0
ENDTAB
0
TABLE
2
VIEW
5
5
330
0
100
AcDbSymbolTable
70
0
0
ENDTAB
0
TABLE
2
UCS
5
6
330
0
100
AcDbSymbolTable
70
0
0
ENDTAB
0
TABLE
2
APPID
5
7
330
0
100
AcDbSymbolTable
70
1
0
APPID
5
17
330
7
100
AcDbSymbolTableRecord
100
AcDbRegAppTableRecord
2
ACAD
70
0
0
ENDTAB
0
TABLE
2
DIMSTYLE
5
8
330
0
100
AcDbSymbolTable
70
1
100
AcDbDimStyleTable
0
DIMSTYLE
105
18
330
8
100
AcDbSymbolTableRecord
100
AcDbDimStyleTableRecord
2
Standard
70
0
340
16
0
ENDTAB
0
TABLE
2
BLOCK_RECORD
5
9
330
0
100
AcDbSymbolTable
70
2
0
BLOCK_RECORD
5
C
330
9
100
AcDbSymbolTableRecord
100
AcDbBlockTableRecord
2
*Model_Space
70
0
280
1
281
0
0
BLOCK_RECORD
5
F
330
9
100
AcDbSymbolTableRecord
100
AcDbBlockTableRecord
2
*Paper_Space
70
0
280
1
281
0
0
ENDTAB
0
ENDSEC
0
SECTION
2
BLOCKS
0
BLOCK
5
D
330
C
100
AcDbEntity
8
0
100
AcDbBlockBegin
2
*Model_Space
70
0
10
0
20
0
30
0
3
*Model_Space
1

0
ENDBLK
5
E
100
AcDbEntity
8
0
100
AcDbBlockEnd
0
BLOCK
5
10
330
F
100
AcDbEntity
8
0
100
AcDbBlockBegin
2
*Paper_Space
70
0
10
0
20
0
30
0
3
*Paper_Space
1

0
ENDBLK
5
11
100
AcDbEntity
8
0
100
AcDbBlockEnd
0
ENDSEC
0
SECTION
2
ENTITIES
0
LWPOLYLINE
5
1A
330
C
100
AcDbEntity
420
14737632
8
0
100
AcDbPolyline
90
42
70
0
43
0
38
0
39
0
10
12
20
812
10
308
20
812
10
308
20
812
10
310.34108386419354
20
811.7694233648388
10
312.59220118838107
20
811.0865543901355
10
314.66684279623524
20
809.9776353476306
10
316.4852813742386
20
808.4852813742385
10
317.97763534763055
20
806.6668427962352
10
319.08655439013546
20
804.5922011883811
10
319.76942336483876
20
802.3410838641936
10
320
20
800
10
320
20
598
10
320
20
598
10
319.76942336483876
20
595.6589161358065
10
319.08655439013546
20
593.4077988116189
10
317.97763534763055
20
591.3331572037648
10
316.4852813742386
20
589.5147186257614
10
314.66684279623524
20
588.0223646523694
10
312.59220118838107
20
586.9134456098645
10
310.34108386419354
20
586.2305766351612
10
308
20
586
10
12
20
586
10
12
20
586
10
9.65891613580646
20
586.2305766351612
10
7.407798811618923
20
586.9134456098645
10
5.3331572037647765
20
588.0223646523694
10
3.5147186257614305
20
589.5147186257614
10
2.022364652369456
20
591.3331572037648
10
0.91344560986456
20
593.4077988116189
10
0.23057663516123483
20
595.6589161358065
10
0
20
598
10
0
20
800
10
0
20
800
10
0.23057663516123483
20
802.3410838641936
10
0.9134456098645583
20
804.5922011883811
10
2.022364652369454
20
806.6668427962352
10
3.5147186257614287
20
808.4852813742385
10
5.333157203764774
20
809.9776353476306
10
7.407798811618916
20
811.0865543901355
10
9.658916135806455
20
811.7694233648388
10
11.999999999999998
20
812
10
12
20
812
0
LWPOLYLINE
5
1B
330
C
100
AcDbEntity
420
16777215
8
0
100
AcDbPolyline
90
5
70
0
43
0
38
0
39
0
10
1
20
811
10
319
20
811
10
319
20
758
10
1
20
758
10
1
20
811
0
TEXT
5
1C
330
C
100
AcDbEntity
420
16777215
8
0
100
AcDbText
10
21
20
780.5
30
0
40
18
1
Feature Overview
7
Arial
100
AcDbText
0
TEXT
5
1E
330
C
100
AcDbEntity
420
5592405
8
0
100
AcDbText
10
21
20
705
30
0
40
14
1
This card combines gradients, borders, border-radius, box-shadow, and typography in a realistic component layout.
7
Arial
100
AcDbText
0
LWPOLYLINE
5
1F
330
C
100
AcDbEntity
420
14737632
8
0
100
AcDbPolyline
90
5
70
0
43
0
38
0
39
0
10
1
20
647
10
319
20
647
10
319
20
587
10
1
20
587
10
1
20
647
0
LWPOLYLINE
5
20
330
C
100
AcDbEntity
420
16777215
8
0
100
AcDbPolyline
90
42
70
0
43
0
38
0
39
0
10
27
20
634
10
90
20
634
10
90
20
634
10
91.17054193209677
20
633.8847116824194
10
92.29610059419053
20
633.5432771950677
10
93.33342139811761
20
632.9888176738152
10
94.24264068711929
20
632.2426406871193
10
94.98881767381528
20
631.3334213981176
10
95.54327719506772
20
630.2961005941905
10
95.88471168241938
20
629.1705419320967
10
96
20
628
10
96
20
605
10
96
20
605
10
95.88471168241938
20
603.8294580679033
10
95.54327719506772
20
602.7038994058095
10
94.98881767381528
20
601.6665786018824
10
94.24264068711929
20
600.7573593128807
10
93.33342139811761
20
600.0111823261848
10
92.29610059419053
20
599.4567228049323
10
91.17054193209677
20
599.1152883175806
10
90
20
599
10
27
20
599
10
27
20
599
10
25.829458067903232
20
599.1152883175806
10
24.703899405809462
20
599.4567228049323
10
23.66657860188239
20
600.0111823261848
10
22.757359312880716
20
600.7573593128807
10
22.011182326184727
20
601.6665786018824
10
21.45672280493228
20
602.7038994058095
10
21.115288317580617
20
603.8294580679033
10
21
20
605
10
21
20
628
10
21
20
628
10
21.115288317580617
20
629.1705419320967
10
21.45672280493228
20
630.2961005941905
10
22.011182326184727
20
631.3334213981176
10
22.757359312880716
20
632.2426406871193
10
23.666578601882385
20
632.9888176738152
10
24.70389940580946
20
633.5432771950677
10
25.82945806790323
20
633.8847116824194
10
27
20
634
10
27
20
634
0
TEXT
5
21
330
C
100
AcDbEntity
420
16777215
8
0
100
AcDbText
10
37
20
613.25
30
0
40
13
1
Accept
7
Arial
100
AcDbText
0
LWPOLYLINE
5
22
330
C
100
AcDbEntity
420
2001125
8
0
100
AcDbPolyline
90
42
70
0
43
0
38
0
39
0
10
112
20
634
10
179
20
634
10
179
20
634
10
180.17054193209677
20
633.8847116824194
10
181.29610059419053
20
633.5432771950677
10
182.33342139811762
20
632.9888176738152
10
183.2426406871193
20
632.2426406871193
10
183.98881767381528
20
631.3334213981176
10
184.54327719506773
20
630.2961005941905
10
184.88471168241938
20
629.1705419320967
10
185
20
628
10
185
20
605
10
185
20
605
10
184.88471168241938
20
603.8294580679033
10
184.54327719506773
20
602.7038994058095
10
183.98881767381528
20
601.6665786018824
10
183.2426406871193
20
600.7573593128807
10
182.33342139811762
20
600.0111823261848
10
181.29610059419053
20
599.4567228049323
10
180.17054193209677
20
599.1152883175806
10
179
20
599
10
112
20
599
10
112
20
599
10
110.82945806790323
20
599.1152883175806
10
109.70389940580947
20
599.4567228049323
10
108.66657860188239
20
600.0111823261848
10
107.75735931288071
20
600.7573593128807
10
107.01118232618472
20
601.6665786018824
10
106.45672280493228
20
602.7038994058095
10
106.11528831758062
20
603.8294580679033
10
106
20
605
10
106
20
628
10
106
20
628
10
106.11528831758062
20
629.1705419320967
10
106.45672280493228
20
630.2961005941905
10
107.01118232618472
20
631.3334213981176
10
107.75735931288071
20
632.2426406871193
10
108.66657860188239
20
632.9888176738152
10
109.70389940580945
20
633.5432771950677
10
110.82945806790323
20
633.8847116824194
10
112
20
634
10
112
20
634
0
TEXT
5
23
330
C
100
AcDbEntity
420
2001125
8
0
100
AcDbText
10
124
20
613.25
30
0
40
13
1
Cancel
7
Arial
100
AcDbText
0
LWPOLYLINE
5
24
330
C
100
AcDbEntity
420
14737632
8
0
100
AcDbPolyline
90
42
70
0
43
0
38
0
39
0
10
10
20
566
10
179
20
566
10
179
20
566
10
180.95090322016128
20
565.8078528040323
10
182.8268343236509
20
565.2387953251128
10
184.55570233019603
20
564.3146961230254
10
186.07106781186548
20
563.0710678118655
10
187.31469612302544
20
561.555702330196
10
188.23879532511287
20
559.8268343236509
10
188.8078528040323
20
557.9509032201613
10
189
20
556
10
189
20
484
10
189
20
484
10
188.8078528040323
20
482.0490967798387
10
188.23879532511287
20
480.17316567634913
10
187.31469612302544
20
478.444297669804
10
186.07106781186548
20
476.9289321881345
10
184.55570233019603
20
475.68530387697456
10
182.8268343236509
20
474.76120467488715
10
180.95090322016128
20
474.1921471959677
10
179
20
474
10
10
20
474
10
10
20
474
10
8.049096779838719
20
474.1921471959677
10
6.173165676349103
20
474.76120467488715
10
4.44429766980398
20
475.68530387697456
10
2.9289321881345254
20
476.9289321881345
10
1.6853038769745474
20
478.444297669804
10
0.7612046748871322
20
480.17316567634913
10
0.1921471959676957
20
482.0490967798387
10
0
20
484
10
0
20
556
10
0
20
556
10
0.1921471959676957
20
557.9509032201613
10
0.7612046748871322
20
559.8268343236509
10
1.6853038769745456
20
561.555702330196
10
2.9289321881345227
20
563.0710678118655
10
4.444297669803978
20
564.3146961230254
10
6.173165676349097
20
565.2387953251128
10
8.049096779838713
20
565.8078528040323
10
9.999999999999998
20
566
10
10
20
566
0
TEXT
5
25
330
C
100
AcDbEntity
420
1713022
8
0
100
AcDbText
10
53
20
522
30
0
40
28
1
1,284
7
Arial
100
AcDbText
0
TEXT
5
26
330
C
100
AcDbEntity
420
8947848
8
0
100
AcDbText
10
71
20
495
30
0
40
12
1
USERS
7
Arial
100
AcDbText
0
LWPOLYLINE
5
27
330
C
100
AcDbEntity
420
14737632
8
0
100
AcDbPolyline
90
42
70
0
43
0
38
0
39
0
10
215
20
566
10
384
20
566
10
384
20
566
10
385.9509032201613
20
565.8078528040323
10
387.82683432365087
20
565.2387953251128
10
389.555702330196
20
564.3146961230254
10
391.0710678118655
20
563.0710678118655
10
392.31469612302544
20
561.555702330196
10
393.23879532511285
20
559.8268343236509
10
393.8078528040323
20
557.9509032201613
10
394
20
556
10
394
20
484
10
394
20
484
10
393.8078528040323
20
482.0490967798387
10
393.23879532511285
20
480.17316567634913
10
392.31469612302544
20
478.444297669804
10
391.0710678118655
20
476.9289321881345
10
389.555702330196
20
475.68530387697456
10
387.82683432365087
20
474.76120467488715
10
385.9509032201613
20
474.1921471959677
10
384
20
474
10
215
20
474
10
215
20
474
10
213.04909677983872
20
474.1921471959677
10
211.1731656763491
20
474.76120467488715
10
209.44429766980397
20
475.68530387697456
10
207.92893218813452
20
476.9289321881345
10
206.68530387697456
20
478.444297669804
10
205.76120467488713
20
480.17316567634913
10
205.1921471959677
20
482.0490967798387
10
205
20
484
10
205
20
556
10
205
20
556
10
205.1921471959677
20
557.9509032201613
10
205.76120467488713
20
559.8268343236509
10
206.68530387697456
20
561.555702330196
10
207.92893218813452
20
563.0710678118655
10
209.44429766980397
20
564.3146961230254
10
211.1731656763491
20
565.2387953251128
10
213.04909677983872
20
565.8078528040323
10
215
20
566
10
215
20
566
0
TEXT
5
28
330
C
100
AcDbEntity
420
1713022
8
0
100
AcDbText
10
263
20
522
30
0
40
28
1
$34k
7
Arial
100
AcDbText
0
TEXT
5
29
330
C
100
AcDbEntity
420
8947848
8
0
100
AcDbText
10
267
20
495
30
0
40
12
1
REVENUE
7
Arial
100
AcDbText
0
LWPOLYLINE
5
2A
330
C
100
AcDbEntity
420
14737632
8
0
100
AcDbPolyline
90
42
70
0
43
0
38
0
39
0
10
421
20
566
10
590
20
566
10
590
20
566
10
591.9509032201613
20
565.8078528040323
10
593.8268343236509
20
565.2387953251128
10
595.555702330196
20
564.3146961230254
10
597.0710678118655
20
563.0710678118655
10
598.3146961230254
20
561.555702330196
10
599.2387953251128
20
559.8268343236509
10
599.8078528040323
20
557.9509032201613
10
600
20
556
10
600
20
484
10
600
20
484
10
599.8078528040323
20
482.0490967798387
10
599.2387953251128
20
480.17316567634913
10
598.3146961230254
20
478.444297669804
10
597.0710678118655
20
476.9289321881345
10
595.555702330196
20
475.68530387697456
10
593.8268343236509
20
474.76120467488715
10
591.9509032201613
20
474.1921471959677
10
590
20
474
10
421
20
474
10
421
20
474
10
419.0490967798387
20
474.1921471959677
10
417.17316567634913
20
474.76120467488715
10
415.444297669804
20
475.68530387697456
10
413.9289321881345
20
476.9289321881345
10
412.68530387697456
20
478.444297669804
10
411.76120467488715
20
480.17316567634913
10
411.1921471959677
20
482.0490967798387
10
411
20
484
10
411
20
556
10
411
20
556
10
411.1921471959677
20
557.9509032201613
10
411.76120467488715
20
559.8268343236509
10
412.68530387697456
20
561.555702330196
10
413.9289321881345
20
563.0710678118655
10
415.444297669804
20
564.3146961230254
10
417.1731656763491
20
565.2387953251128
10
419.0490967798387
20
565.8078528040323
10
421
20
566
10
421
20
566
0
TEXT
5
2B
330
C
100
AcDbEntity
420
1713022
8
0
100
AcDbText
10
459
20
522
30
0
40
28
1
98.6%
7
Arial
100
AcDbText
0
TEXT
5
2C
330
C
100
AcDbEntity
420
8947848
8
0
100
AcDbText
10
480
20
495
30
0
40
12
1
UPTIME
7
Arial
100
AcDbText
0
LWPOLYLINE
5
2D
330
C
100
AcDbEntity
420
14737632
8
0
100
AcDbPolyline
90
42
70
0
43
0
38
0
39
0
10
8
20
454
10
1232
20
454
10
1232
20
454
10
1233.5607225761291
20
453.84628224322586
10
1235.0614674589208
20
453.3910362600903
10
1236.4445618641569
20
452.6517568984204
10
1237.6568542494924
20
451.65685424949237
10
1238.6517568984204
20
450.4445618641568
10
1239.3910362600902
20
449.06146745892073
10
1239.846282243226
20
447.560722576129
10
1240
20
446
10
1240
20
304
10
1240
20
304
10
1239.846282243226
20
302.439277423871
10
1239.3910362600902
20
300.93853254107927
10
1238.6517568984204
20
299.55543813584313
10
1237.6568542494924
20
298.3431457505076
10
1236.4445618641569
20
297.34824310157967
10
1235.0614674589208
20
296.60896373990965
10
1233.5607225761291
20
296.1537177567742
10
1232
20
296
10
8
20
296
10
8
20
296
10
6.4392774238709745
20
296.1537177567742
10
4.938532541079282
20
296.60896373990965
10
3.5554381358431844
20
297.34824310157967
10
2.3431457505076203
20
298.3431457505076
10
1.3482431015796372
20
299.55543813584313
10
0.6089637399097061
20
300.93853254107927
10
0.15371775677415656
20
302.439277423871
10
0
20
304
10
0
20
446
10
0
20
446
10
0.15371775677415656
20
447.560722576129
10
0.6089637399097052
20
449.06146745892073
10
1.3482431015796363
20
450.4445618641568
10
2.3431457505076185
20
451.65685424949237
10
3.5554381358431826
20
452.6517568984204
10
4.938532541079278
20
453.3910362600903
10
6.439277423870971
20
453.84628224322586
10
7.999999999999998
20
454
10
8
20
454
0
LWPOLYLINE
5
2E
330
C
100
AcDbEntity
420
4367861
8
0
100
AcDbPolyline
90
42
70
0
43
0
38
0
39
0
10
31
20
356
10
55
20
356
10
55
20
356
10
55.585270966048384
20
355.9423558412097
10
56.14805029709527
20
355.77163859753387
10
56.666710699058804
20
355.4944088369076
10
57.121320343559645
20
355.12132034355966
10
57.49440883690764
20
354.6667106990588
10
57.77163859753386
20
354.14805029709527
10
57.94235584120969
20
353.58527096604837
10
58
20
353
10
58
20
319
10
58
20
319
10
57.94235584120969
20
318.41472903395163
10
57.77163859753386
20
317.85194970290473
10
57.49440883690764
20
317.3332893009412
10
57.121320343559645
20
316.87867965644034
10
56.666710699058804
20
316.5055911630924
10
56.14805029709527
20
316.22836140246613
10
55.585270966048384
20
316.0576441587903
10
55
20
316
10
31
20
316
10
31
20
316
10
30.414729033951616
20
316.0576441587903
10
29.85194970290473
20
316.22836140246613
10
29.333289300941193
20
316.5055911630924
10
28.878679656440358
20
316.87867965644034
10
28.505591163092365
20
317.3332893009412
10
28.228361402466142
20
317.85194970290473
10
28.05764415879031
20
318.41472903395163
10
28
20
319
10
28
20
353
10
28
20
353
10
28.05764415879031
20
353.58527096604837
10
28.22836140246614
20
354.14805029709527
10
28.50559116309236
20
354.6667106990588
10
28.878679656440358
20
355.12132034355966
10
29.333289300941193
20
355.4944088369076
10
29.85194970290473
20
355.77163859753387
10
30.414729033951613
20
355.9423558412097
10
31
20
356
10
31
20
356
0
LWPOLYLINE
5
2F
330
C
100
AcDbEntity
420
4367861
8
0
100
AcDbPolyline
90
42
70
0
43
0
38
0
39
0
10
71
20
386
10
95
20
386
10
95
20
386
10
95.58527096604838
20
385.9423558412097
10
96.14805029709527
20
385.77163859753387
10
96.66671069905881
20
385.4944088369076
10
97.12132034355965
20
385.12132034355966
10
97.49440883690764
20
384.6667106990588
10
97.77163859753387
20
384.14805029709527
10
97.94235584120969
20
383.58527096604837
10
98
20
383
10
98
20
319
10
98
20
319
10
97.94235584120969
20
318.41472903395163
10
97.77163859753387
20
317.85194970290473
10
97.49440883690764
20
317.3332893009412
10
97.12132034355965
20
316.87867965644034
10
96.66671069905881
20
316.5055911630924
10
96.14805029709527
20
316.22836140246613
10
95.58527096604838
20
316.0576441587903
10
95
20
316
10
71
20
316
10
71
20
316
10
70.41472903395162
20
316.0576441587903
10
69.85194970290473
20
316.22836140246613
10
69.33328930094119
20
316.5055911630924
10
68.87867965644035
20
316.87867965644034
10
68.50559116309236
20
317.3332893009412
10
68.22836140246613
20
317.85194970290473
10
68.05764415879031
20
318.41472903395163
10
68
20
319
10
68
20
383
10
68
20
383
10
68.05764415879031
20
383.58527096604837
10
68.22836140246613
20
384.14805029709527
10
68.50559116309236
20
384.6667106990588
10
68.87867965644035
20
385.12132034355966
10
69.33328930094119
20
385.4944088369076
10
69.85194970290473
20
385.77163859753387
10
70.41472903395162
20
385.9423558412097
10
71
20
386
10
71
20
386
0
LWPOLYLINE
5
30
330
C
100
AcDbEntity
420
4367861
8
0
100
AcDbPolyline
90
42
70
0
43
0
38
0
39
0
10
111
20
406
10
135
20
406
10
135
20
406
10
135.5852709660484
20
405.9423558412097
10
136.14805029709527
20
405.77163859753387
10
136.6667106990588
20
405.4944088369076
10
137.12132034355963
20
405.12132034355966
10
137.49440883690764
20
404.6667106990588
10
137.77163859753387
20
404.14805029709527
10
137.9423558412097
20
403.58527096604837
10
138
20
403
10
138
20
319
10
138
20
319
10
137.9423558412097
20
318.41472903395163
10
137.77163859753387
20
317.85194970290473
10
137.49440883690764
20
317.3332893009412
10
137.12132034355963
20
316.87867965644034
10
136.6667106990588
20
316.5055911630924
10
136.14805029709527
20
316.22836140246613
10
135.5852709660484
20
316.0576441587903
10
135
20
316
10
111
20
316
10
111
20
316
10
110.41472903395162
20
316.0576441587903
10
109.85194970290473
20
316.22836140246613
10
109.33328930094119
20
316.5055911630924
10
108.87867965644035
20
316.87867965644034
10
108.50559116309236
20
317.3332893009412
10
108.22836140246613
20
317.85194970290473
10
108.05764415879031
20
318.41472903395163
10
108
20
319
10
108
20
403
10
108
20
403
10
108.05764415879031
20
403.58527096604837
10
108.22836140246613
20
404.14805029709527
10
108.50559116309236
20
404.6667106990588
10
108.87867965644035
20
405.12132034355966
10
109.33328930094119
20
405.4944088369076
10
109.85194970290473
20
405.77163859753387
10
110.41472903395162
20
405.9423558412097
10
111
20
406
10
111
20
406
0
LWPOLYLINE
5
31
330
C
100
AcDbEntity
420
4367861
8
0
100
AcDbPolyline
90
42
70
0
43
0
38
0
39
0
10
151
20
376
10
175
20
376
10
175
20
376
10
175.5852709660484
20
375.9423558412097
10
176.14805029709527
20
375.77163859753387
10
176.6667106990588
20
375.4944088369076
10
177.12132034355963
20
375.12132034355966
10
177.49440883690764
20
374.6667106990588
10
177.77163859753387
20
374.14805029709527
10
177.9423558412097
20
373.58527096604837
10
178
20
373
10
178
20
319
10
178
20
319
10
177.9423558412097
20
318.41472903395163
10
177.77163859753387
20
317.85194970290473
10
177.49440883690764
20
317.3332893009412
10
177.12132034355963
20
316.87867965644034
10
176.6667106990588
20
316.5055911630924
10
176.14805029709527
20
316.22836140246613
10
175.5852709660484
20
316.0576441587903
10
175
20
316
10
151
20
316
10
151
20
316
10
150.4147290339516
20
316.0576441587903
10
149.85194970290473
20
316.22836140246613
10
149.3332893009412
20
316.5055911630924
10
148.87867965644037
20
316.87867965644034
10
148.50559116309236
20
317.3332893009412
10
148.22836140246613
20
317.85194970290473
10
148.0576441587903
20
318.41472903395163
10
148
20
319
10
148
20
373
10
148
20
373
10
148.0576441587903
20
373.58527096604837
10
148.22836140246613
20
374.14805029709527
10
148.50559116309236
20
374.6667106990588
10
148.87867965644037
20
375.12132034355966
10
149.3332893009412
20
375.4944088369076
10
149.85194970290473
20
375.77163859753387
10
150.4147290339516
20
375.9423558412097
10
151
20
376
10
151
20
376
0
LWPOLYLINE
5
32
330
C
100
AcDbEntity
420
4367861
8
0
100
AcDbPolyline
90
42
70
0
43
0
38
0
39
0
10
191
20
416
10
215
20
416
10
215
20
416
10
215.5852709660484
20
415.9423558412097
10
216.14805029709527
20
415.77163859753387
10
216.6667106990588
20
415.4944088369076
10
217.12132034355963
20
415.12132034355966
10
217.49440883690764
20
414.6667106990588
10
217.77163859753387
20
414.14805029709527
10
217.9423558412097
20
413.58527096604837
10
218
20
413
10
218
20
319
10
218
20
319
10
217.9423558412097
20
318.41472903395163
10
217.77163859753387
20
317.85194970290473
10
217.49440883690764
20
317.3332893009412
10
217.12132034355963
20
316.87867965644034
10
216.6667106990588
20
316.5055911630924
10
216.14805029709527
20
316.22836140246613
10
215.5852709660484
20
316.0576441587903
10
215
20
316
10
191
20
316
10
191
20
316
10
190.4147290339516
20
316.0576441587903
10
189.85194970290473
20
316.22836140246613
10
189.3332893009412
20
316.5055911630924
10
188.87867965644037
20
316.87867965644034
10
188.50559116309236
20
317.3332893009412
10
188.22836140246613
20
317.85194970290473
10
188.0576441587903
20
318.41472903395163
10
188
20
319
10
188
20
413
10
188
20
413
10
188.0576441587903
20
413.58527096604837
10
188.22836140246613
20
414.14805029709527
10
188.50559116309236
20
414.6667106990588
10
188.87867965644037
20
415.12132034355966
10
189.3332893009412
20
415.4944088369076
10
189.85194970290473
20
415.77163859753387
10
190.4147290339516
20
415.9423558412097
10
191
20
416
10
191
20
416
0
LWPOLYLINE
5
33
330
C
100
AcDbEntity
420
4367861
8
0
100
AcDbPolyline
90
42
70
0
43
0
38
0
39
0
10
231
20
391
10
255
20
391
10
255
20
391
10
255.5852709660484
20
390.9423558412097
10
256.14805029709527
20
390.77163859753387
10
256.6667106990588
20
390.4944088369076
10
257.12132034355966
20
390.12132034355966
10
257.4944088369076
20
389.6667106990588
10
257.77163859753387
20
389.14805029709527
10
257.9423558412097
20
388.58527096604837
10
258
20
388
10
258
20
319
10
258
20
319
10
257.9423558412097
20
318.41472903395163
10
257.77163859753387
20
317.85194970290473
10
257.4944088369076
20
317.3332893009412
10
257.12132034355966
20
316.87867965644034
10
256.6667106990588
20
316.5055911630924
10
256.14805029709527
20
316.22836140246613
10
255.5852709660484
20
316.0576441587903
10
255
20
316
10
231
20
316
10
231
20
316
10
230.4147290339516
20
316.0576441587903
10
229.85194970290473
20
316.22836140246613
10
229.3332893009412
20
316.5055911630924
10
228.87867965644037
20
316.87867965644034
10
228.50559116309236
20
317.3332893009412
10
228.22836140246613
20
317.85194970290473
10
228.0576441587903
20
318.41472903395163
10
228
20
319
10
228
20
388
10
228
20
388
10
228.0576441587903
20
388.58527096604837
10
228.22836140246613
20
389.14805029709527
10
228.50559116309236
20
389.6667106990588
10
228.87867965644037
20
390.12132034355966
10
229.3332893009412
20
390.4944088369076
10
229.85194970290473
20
390.77163859753387
10
230.4147290339516
20
390.9423558412097
10
231
20
391
10
231
20
391
0
LWPOLYLINE
5
34
330
C
100
AcDbEntity
420
4367861
8
0
100
AcDbPolyline
90
42
70
0
43
0
38
0
39
0
10
271
20
426
10
295
20
426
10
295
20
426
10
295.58527096604837
20
425.9423558412097
10
296.14805029709527
20
425.77163859753387
10
296.6667106990588
20
425.4944088369076
10
297.12132034355966
20
425.12132034355966
10
297.4944088369076
20
424.6667106990588
10
297.77163859753387
20
424.14805029709527
10
297.9423558412097
20
423.58527096604837
10
298
20
423
10
298
20
319
10
298
20
319
10
297.9423558412097
20
318.41472903395163
10
297.77163859753387
20
317.85194970290473
10
297.4944088369076
20
317.3332893009412
10
297.12132034355966
20
316.87867965644034
10
296.6667106990588
20
316.5055911630924
10
296.14805029709527
20
316.22836140246613
10
295.58527096604837
20
316.0576441587903
10
295
20
316
10
271
20
316
10
271
20
316
10
270.41472903395163
20
316.0576441587903
10
269.85194970290473
20
316.22836140246613
10
269.3332893009412
20
316.5055911630924
10
268.87867965644034
20
316.87867965644034
10
268.5055911630924
20
317.3332893009412
10
268.22836140246613
20
317.85194970290473
10
268.0576441587903
20
318.41472903395163
10
268
20
319
10
268
20
423
10
268
20
423
10
268.0576441587903
20
423.58527096604837
10
268.22836140246613
20
424.14805029709527
10
268.5055911630924
20
424.6667106990588
10
268.87867965644034
20
425.12132034355966
10
269.3332893009412
20
425.4944088369076
10
269.85194970290473
20
425.77163859753387
10
270.41472903395163
20
425.9423558412097
10
271
20
426
10
271
20
426
0
LWPOLYLINE
5
35
330
C
100
AcDbEntity
420
15022389
8
0
100
AcDbPolyline
90
7
70
0
43
0
38
0
39
0
10
43
20
366
10
83
20
396
10
123
20
416
10
163
20
386
10
203
20
426
10
243
20
401
10
283
20
431
0
TEXT
5
36
330
C
100
AcDbEntity
420
8947848
8
0
100
AcDbText
10
128.5390625
20
319
30
0
40
10
1
Monthly Data
7
Arial
100
AcDbText
0
LWPOLYLINE
5
37
330
C
100
AcDbEntity
420
16777215
8
0
100
AcDbPolyline
90
42
70
0
43
0
38
0
39
0
10
13
20
276
10
51
20
276
10
51
20
276
10
53.53617418620967
20
275.75020864524197
10
55.97488462074617
20
275.0104339226467
10
58.22241302925483
20
273.80910495993305
10
60.19238815542512
20
272.1923881554251
10
61.80910495993309
20
270.2224130292549
10
63.010433922646726
20
267.97488462074614
10
63.750208645242
20
265.5361741862097
10
64
20
263
10
64
20
263
10
64
20
263
10
63.750208645242
20
260.4638258137903
10
63.010433922646726
20
258.02511537925386
10
61.80910495993309
20
255.77758697074512
10
60.19238815542512
20
253.80761184457492
10
58.22241302925483
20
252.19089504006695
10
55.97488462074617
20
250.9895660773533
10
53.53617418620967
20
250.24979135475803
10
51
20
250
10
13
20
250
10
13
20
250
10
10.463825813790333
20
250.24979135475803
10
8.025115379253833
20
250.9895660773533
10
5.777586970745174
20
252.19089504006695
10
3.8076118445748826
20
253.80761184457492
10
2.190895040066911
20
255.77758697074512
10
0.9895660773532722
20
258.02511537925386
10
0.2497913547580044
20
260.4638258137903
10
0
20
263
10
0
20
263
10
0
20
263
10
0.2497913547580044
20
265.5361741862097
10
0.9895660773532704
20
267.97488462074614
10
2.190895040066909
20
270.2224130292549
10
3.8076118445748808
20
272.1923881554251
10
5.777586970745172
20
273.80910495993305
10
8.025115379253826
20
275.0104339226467
10
10.463825813790328
20
275.75020864524197
10
12.999999999999998
20
276
10
13
20
276
0
TEXT
5
38
330
C
100
AcDbEntity
420
16777215
8
0
100
AcDbText
10
14
20
260
30
0
40
12
1
Active
7
Arial
100
AcDbText
0
HATCH
5
39
330
C
100
AcDbEntity
420
16485376
8
0
100
AcDbHatch
10
0
20
0
30
0
210
0
220
0
230
1
2
SOLID
70
1
71
0
91
1
92
7
72
0
73
1
93
20
10
76.05161050533295
20
261.0284033524781
10
76.56533638033295
20
266.7506344774781
10
78.78688200533294
20
270.9351378524781
10
82.71624738033296
20
273.5819134774781
10
88.35343250533295
20
274.6909613524781
10
137.28630250533294
20
277.255425352478
10
143.00853363033295
20
276.74169947747805
10
147.19303700533294
20
274.52015385247796
10
149.83981263033297
20
270.5907884774781
10
150.94886050533296
20
264.953603352478
10
150.94886050533296
20
264.953603352478
10
150.43513463033295
20
259.231372227478
10
148.21358900533295
20
255.04686885247804
10
144.28422363033295
20
252.400093227478
10
138.64703850533294
20
251.29104535247802
10
89.71416850533295
20
248.7265813524781
10
83.99193738033296
20
249.24030722747818
10
79.80743400533294
20
251.46185285247805
10
77.16065838033295
20
255.39121822747813
10
76.05161050533295
20
261.0284033524781
97
0
75
1
76
1
47
1
98
0
0
LWPOLYLINE
5
3A
330
C
100
AcDbEntity
420
16777215
8
0
100
AcDbPolyline
90
21
70
0
43
0
38
0
39
0
10
76.05161050533295
20
261.0284033524781
10
76.56533638033295
20
266.7506344774781
10
78.78688200533294
20
270.9351378524781
10
82.71624738033296
20
273.5819134774781
10
88.35343250533295
20
274.6909613524781
10
137.28630250533294
20
277.255425352478
10
143.00853363033295
20
276.74169947747805
10
147.19303700533294
20
274.52015385247796
10
149.83981263033297
20
270.5907884774781
10
150.94886050533296
20
264.953603352478
10
150.94886050533296
20
264.953603352478
10
150.43513463033295
20
259.231372227478
10
148.21358900533295
20
255.04686885247804
10
144.28422363033295
20
252.400093227478
10
138.64703850533294
20
251.29104535247802
10
89.71416850533295
20
248.7265813524781
10
83.99193738033296
20
249.24030722747818
10
79.80743400533294
20
251.46185285247805
10
77.16065838033295
20
255.39121822747813
10
76.05161050533295
20
261.0284033524781
10
76.05161050533295
20
261.0284033524781
0
TEXT
5
3B
330
C
100
AcDbEntity
420
16777215
8
0
100
AcDbText
10
90.18943843202628
20
258.76521875125206
30
0
40
12
1
Pending
50
3.000001108559612
7
Arial
100
AcDbText
0
LWPOLYLINE
5
3C
330
C
100
AcDbEntity
420
16777215
8
0
100
AcDbPolyline
90
42
70
0
43
0
38
0
39
0
10
173.86562004089356
20
277.29999999999995
10
221.16562004089354
20
277.29999999999995
10
221.16562004089354
20
277.29999999999995
10
223.95541164572418
20
277.0252295097662
10
226.63799312371432
20
276.21147731491146
10
229.11027437307385
20
274.89001545592646
10
231.2772470118612
20
273.1116269709677
10
233.05563549681995
20
270.94465433218033
10
234.37709735580495
20
268.4723730828208
10
235.19084955065975
20
265.7897916048306
10
235.46562004089355
20
263
10
235.46562004089355
20
263
10
235.46562004089355
20
263
10
235.19084955065975
20
260.2102083951694
10
234.37709735580495
20
257.5276269171792
10
233.05563549681995
20
255.05534566781967
10
231.2772470118612
20
252.88837302903232
10
229.11027437307385
20
251.10998454407354
10
226.63799312371432
20
249.78852268508854
10
223.95541164572418
20
248.97477049023382
10
221.16562004089354
20
248.70000000000005
10
173.86562004089356
20
248.69999999999993
10
173.86562004089356
20
248.70000000000005
10
171.07582843606292
20
248.97477049023382
10
168.39324695807278
20
249.78852268508854
10
165.92096570871325
20
251.10998454407354
10
163.7539930699259
20
252.88837302903232
10
161.97560458496716
20
255.05534566781967
10
160.65414272598215
20
257.5276269171792
10
159.84039053112735
20
260.2102083951694
10
159.56562004089355
20
263
10
159.56562004089355
20
263
10
159.56562004089355
20
263
10
159.84039053112735
20
265.7897916048306
10
160.65414272598215
20
268.4723730828208
10
161.97560458496716
20
270.94465433218033
10
163.7539930699259
20
273.1116269709677
10
165.92096570871325
20
274.89001545592646
10
168.39324695807275
20
276.21147731491146
10
171.07582843606292
20
277.0252295097662
10
173.86562004089356
20
277.29999999999995
10
173.86562004089356
20
277.29999999999995
0
TEXT
5
3D
330
C
100
AcDbEntity
420
16777215
8
0
100
AcDbText
10
174.96562004089355
20
260
30
0
40
12
1
Critical
7
Arial
100
AcDbText
0
HATCH
5
3E
330
C
100
AcDbEntity
420
2001125
8
0
100
AcDbHatch
10
0
20
0
30
0
210
0
220
0
230
1
2
SOLID
70
1
71
0
91
1
92
7
72
0
73
1
93
20
10
243.99999999999997
20
263
10
245.3131956018368
20
268.6875
10
248.11542930734737
20
272.75
10
252.4067011165316
20
275.1875
10
258.1870110293895
20
276
10
282.08769517061046
20
276
10
287.72583594596836
20
275.1875
10
291.5906003426526
20
272.75
10
293.6819883606631
20
268.6875
10
294
20
263
10
294
20
263
10
292.68680439816313
20
257.3125
10
289.8845706926526
20
253.25
10
285.5932988834683
20
250.8125
10
279.8129889706104
20
250
10
255.9123048293895
20
250
10
250.2741640540316
20
250.8125
10
246.40939965734736
20
253.25
10
244.31801163933682
20
257.3125
10
243.99999999999997
20
263
97
0
75
1
76
1
47
1
98
0
0
LWPOLYLINE
5
3F
330
C
100
AcDbEntity
420
16777215
8
0
100
AcDbPolyline
90
21
70
0
43
0
38
0
39
0
10
243.99999999999997
20
263
10
245.3131956018368
20
268.6875
10
248.11542930734737
20
272.75
10
252.4067011165316
20
275.1875
10
258.1870110293895
20
276
10
282.08769517061046
20
276
10
287.72583594596836
20
275.1875
10
291.5906003426526
20
272.75
10
293.6819883606631
20
268.6875
10
294
20
263
10
294
20
263
10
292.68680439816313
20
257.3125
10
289.8845706926526
20
253.25
10
285.5932988834683
20
250.8125
10
279.8129889706104
20
250
10
255.9123048293895
20
250
10
250.2741640540316
20
250.8125
10
246.40939965734736
20
253.25
10
244.31801163933682
20
257.3125
10
243.99999999999997
20
263
10
243.99999999999997
20
263
0
TEXT
5
40
330
C
100
AcDbEntity
420
16777215
8
0
100
AcDbText
10
257.73853266357924
20
260.0114159151891
30
0
40
12
1
Info
7
Arial
100
AcDbText
0
LWPOLYLINE
5
41
330
C
100
AcDbEntity
420
8280002
8
0
100
AcDbPolyline
90
42
70
0
43
0
38
0
39
0
10
10
20
230
10
1230
20
230
10
1230
20
230
10
1231.9509032201613
20
229.80785280403234
10
1233.826834323651
20
229.23879532511285
10
1235.555702330196
20
228.31469612302544
10
1237.0710678118655
20
227.07106781186542
10
1238.3146961230254
20
225.55570233019603
10
1239.238795325113
20
223.82683432365093
10
1239.8078528040323
20
221.9509032201613
10
1240
20
220
10
1240
20
190
10
1240
20
190
10
1239.8078528040323
20
188.0490967798387
10
1239.238795325113
20
186.17316567634907
10
1238.3146961230254
20
184.44429766980397
10
1237.0710678118655
20
182.92893218813458
10
1235.555702330196
20
181.68530387697456
10
1233.826834323651
20
180.76120467488715
10
1231.9509032201613
20
180.19214719596766
10
1230
20
180
10
10
20
180
10
10
20
180
10
8.049096779838719
20
180.19214719596766
10
6.173165676349103
20
180.76120467488715
10
4.44429766980398
20
181.68530387697456
10
2.9289321881345254
20
182.92893218813447
10
1.6853038769745474
20
184.44429766980397
10
0.7612046748871322
20
186.17316567634907
10
0.1921471959676957
20
188.0490967798387
10
0
20
190
10
0
20
220
10
0
20
220
10
0.1921471959676957
20
221.9509032201613
10
0.7612046748871322
20
223.82683432365093
10
1.6853038769745456
20
225.55570233019603
10
2.9289321881345227
20
227.07106781186542
10
4.444297669803978
20
228.31469612302544
10
6.173165676349097
20
229.23879532511285
10
8.049096779838713
20
229.80785280403234
10
9.999999999999998
20
230
10
10
20
230
0
TEXT
5
42
330
C
100
AcDbEntity
420
4532128
8
0
100
AcDbText
10
2
20
215.5
30
0
40
16
1
Shadow DOM Widget
7
Arial
100
AcDbText
0
TEXT
5
43
330
C
100
AcDbEntity
420
6174129
8
0
100
AcDbText
10
2
20
189.25
30
0
40
13
1
This widget lives inside a declarative shadow root with its own scoped styles, gradients, and borders.
7
Arial
100
AcDbText
0
LWPOLYLINE
5
44
330
C
100
AcDbEntity
420
0
8
0
100
AcDbPolyline
90
42
70
0
43
0
38
0
39
0
10
50
20
160
10
50
20
160
10
50
20
160
10
59.75451610080641
20
159.03926402016157
10
69.1341716182545
20
156.19397662556435
10
77.77851165098011
20
151.5734806151272
10
85.35533905932738
20
145.35533905932732
10
91.57348061512727
20
137.77851165098014
10
96.19397662556435
20
129.13417161825453
10
99.03926402016153
20
119.75451610080643
10
100
20
110
10
100
20
110
10
100
20
110
10
99.03926402016153
20
100.24548389919357
10
96.19397662556435
20
90.86582838174547
10
91.57348061512727
20
82.22148834901986
10
85.35533905932738
20
74.64466094067268
10
77.77851165098011
20
68.42651938487279
10
69.1341716182545
20
63.806023374435654
10
59.75451610080641
20
60.96073597983843
10
50
20
60
10
50
20
60
10
50
20
60
10
40.24548389919359
20
60.96073597983843
10
30.865828381745512
20
63.806023374435654
10
22.221488349019904
20
68.42651938487279
10
14.64466094067263
20
74.64466094067257
10
8.426519384872734
20
82.22148834901986
10
3.806023374435661
20
90.86582838174547
10
0.9607359798384749
20
100.24548389919357
10
0
20
110
10
0
20
110
10
0
20
110
10
0.9607359798384749
20
119.75451610080643
10
3.806023374435661
20
129.13417161825453
10
8.426519384872726
20
137.77851165098014
10
14.644660940672615
20
145.35533905932732
10
22.221488349019893
20
151.5734806151272
10
30.865828381745484
20
156.19397662556435
10
40.245483899193566
20
159.03926402016157
10
49.99999999999999
20
160
10
50
20
160
0
LWPOLYLINE
5
45
330
C
100
AcDbEntity
420
0
8
0
100
AcDbPolyline
90
42
70
0
43
0
38
0
39
0
10
90
20
140
10
90
20
140
10
90
20
140
10
99.75451610080641
20
139.03926402016157
10
109.1341716182545
20
136.19397662556435
10
117.77851165098011
20
131.5734806151272
10
125.35533905932738
20
125.35533905932732
10
131.57348061512727
20
117.77851165098014
10
136.19397662556435
20
109.13417161825453
10
139.0392640201615
20
99.75451610080643
10
140
20
90
10
140
20
90
10
140
20
90
10
139.0392640201615
20
80.24548389919357
10
136.19397662556435
20
70.86582838174547
10
131.57348061512727
20
62.221488349019864
10
125.35533905932738
20
54.64466094067268
10
117.77851165098011
20
48.42651938487279
10
109.1341716182545
20
43.806023374435654
10
99.75451610080641
20
40.96073597983843
10
90
20
40
10
90
20
40
10
90
20
40
10
80.24548389919359
20
40.96073597983843
10
70.86582838174552
20
43.806023374435654
10
62.22148834901991
20
48.42651938487279
10
54.64466094067263
20
54.644660940672566
10
48.426519384872734
20
62.221488349019864
10
43.80602337443566
20
70.86582838174547
10
40.960735979838475
20
80.24548389919357
10
40
20
90
10
40
20
90
10
40
20
90
10
40.960735979838475
20
99.75451610080643
10
43.80602337443566
20
109.13417161825453
10
48.42651938487273
20
117.77851165098014
10
54.644660940672615
20
125.35533905932732
10
62.22148834901989
20
131.5734806151272
10
70.86582838174549
20
136.19397662556435
10
80.24548389919357
20
139.03926402016157
10
89.99999999999999
20
140
10
90
20
140
0
LWPOLYLINE
5
46
330
C
100
AcDbEntity
420
0
8
0
100
AcDbPolyline
90
42
70
0
43
0
38
0
39
0
10
130
20
120
10
130
20
120
10
130
20
120
10
139.75451610080643
20
119.03926402016157
10
149.1341716182545
20
116.19397662556435
10
157.7785116509801
20
111.57348061512721
10
165.35533905932738
20
105.35533905932732
10
171.57348061512727
20
97.77851165098014
10
176.19397662556435
20
89.13417161825453
10
179.0392640201615
20
79.75451610080643
10
180
20
70
10
180
20
70
10
180
20
70
10
179.0392640201615
20
60.24548389919357
10
176.19397662556435
20
50.86582838174547
10
171.57348061512727
20
42.221488349019864
10
165.35533905932738
20
34.64466094067268
10
157.7785116509801
20
28.42651938487279
10
149.1341716182545
20
23.806023374435654
10
139.75451610080643
20
20.960735979838432
10
130
20
20
10
130
20
20
10
130
20
20
10
120.24548389919359
20
20.960735979838432
10
110.86582838174552
20
23.806023374435654
10
102.2214883490199
20
28.42651938487279
10
94.64466094067262
20
34.644660940672566
10
88.42651938487273
20
42.221488349019864
10
83.80602337443565
20
50.86582838174547
10
80.96073597983847
20
60.24548389919357
10
80
20
70
10
80
20
70
10
80
20
70
10
80.96073597983847
20
79.75451610080643
10
83.80602337443565
20
89.13417161825453
10
88.42651938487273
20
97.77851165098014
10
94.64466094067262
20
105.35533905932732
10
102.22148834901989
20
111.57348061512721
10
110.86582838174549
20
116.19397662556435
10
120.24548389919357
20
119.03926402016157
10
130
20
120
10
130
20
120
0
ENDSEC
0
SECTION
2
OBJECTS
0
DICTIONARY
5
A
330
0
100
AcDbDictionary
281
1
3
ACAD_GROUP
350
B
0
DICTIONARY
5
B
330
A
100
AcDbDictionary
281
0
0
ENDSEC
0
EOF