0
SECTION
2
HEADER
9
$ACADVER
1
AC1021
9
$LASTSAVEDBY
1
@tarikjabiri/dxf
9
$HANDSEED
5
54
9
$INSUNITS
70
0
9
$CLAYER
8
0
9
$VIEWCTR
10
591
20
477.5
0
ENDSEC
0
SECTION
2
CLASSES
0
ENDSEC
0
SECTION
2
TABLES
0
TABLE
2
VPORT
5
1
330
0
100
AcDbSymbolTable
70
1
0
VPORT
5
19
330
1
100
AcDbSymbolTableRecord
100
AcDbViewportTableRecord
2
*Active
70
0
10
0
20
0
11
1
21
1
12
591
22
477.5
13
0
23
0
14
10
24
10
15
10
25
10
16
0
26
0
36
1
17
0
27
0
37
0
40
875
41
2
42
50
43
0
44
0
50
0
51
0
71
0
72
100
73
1
74
3
75
0
76
1
77
0
78
0
281
0
65
1
110
0
120
0
130
0
111
1
121
0
131
0
112
0
122
1
132
0
79
0
146
0
348
10020
60
7
61
5
292
1
282
1
141
0
142
0
63
250
421
3358443
0
ENDTAB
0
TABLE
2
LTYPE
5
2
330
0
100
AcDbSymbolTable
70
3
0
LTYPE
5
12
330
2
100
AcDbSymbolTableRecord
100
AcDbLinetypeTableRecord
2
ByBlock
70
0
3

72
65
73
0
40
0
0
LTYPE
5
13
330
2
100
AcDbSymbolTableRecord
100
AcDbLinetypeTableRecord
2
ByLayer
70
0
3

72
65
73
0
40
0
0
LTYPE
5
14
330
2
100
AcDbSymbolTableRecord
100
AcDbLinetypeTableRecord
2
Continuous
70
0
3
Solid line
72
65
73
0
40
0
0
ENDTAB
0
TABLE
2
LAYER
5
3
330
0
100
AcDbSymbolTable
70
1
0
LAYER
5
15
330
3
100
AcDbSymbolTableRecord
100
AcDbLayerTableRecord
2
0
70
0
62
7
6
Continuous
370
0
390
0
0
ENDTAB
0
TABLE
2
STYLE
5
4
330
0
100
AcDbSymbolTable
70
1
0
STYLE
5
16
330
4
100
AcDbSymbolTableRecord
100
AcDbTextStyleTableRecord
2
Standard
70
0
40
0
41
1
50
0
71
0
42
1
3
txt
4

0
ENDTAB
0
TABLE
2
VIEW
5
5
330
0
100
AcDbSymbolTable
70
0
0
ENDTAB
0
TABLE
2
UCS
5
6
330
0
100
AcDbSymbolTable
70
0
0
ENDTAB
0
TABLE
2
APPID
5
7
330
0
100
AcDbSymbolTable
70
1
0
APPID
5
17
330
7
100
AcDbSymbolTableRecord
100
AcDbRegAppTableRecord
2
ACAD
70
0
0
ENDTAB
0
TABLE
2
DIMSTYLE
5
8
330
0
100
AcDbSymbolTable
70
1
100
AcDbDimStyleTable
0
DIMSTYLE
105
18
330
8
100
AcDbSymbolTableRecord
100
AcDbDimStyleTableRecord
2
Standard
70
0
340
16
0
ENDTAB
0
TABLE
2
BLOCK_RECORD
5
9
330
0
100
AcDbSymbolTable
70
2
0
BLOCK_RECORD
5
C
330
9
100
AcDbSymbolTableRecord
100
AcDbBlockTableRecord
2
*Model_Space
70
0
280
1
281
0
0
BLOCK_RECORD
5
F
330
9
100
AcDbSymbolTableRecord
100
AcDbBlockTableRecord
2
*Paper_Space
70
0
280
1
281
0
0
ENDTAB
0
ENDSEC
0
SECTION
2
BLOCKS
0
BLOCK
5
D
330
C
100
AcDbEntity
8
0
100
AcDbBlockBegin
2
*Model_Space
70
0
10
0
20
0
30
0
3
*Model_Space
1

0
ENDBLK
5
E
100
AcDbEntity
8
0
100
AcDbBlockEnd
0
BLOCK
5
10
330
F
100
AcDbEntity
8
0
100
AcDbBlockBegin
2
*Paper_Space
70
0
10
0
20
0
30
0
3
*Paper_Space
1

0
ENDBLK
5
11
100
AcDbEntity
8
0
100
AcDbBlockEnd
0
ENDSEC
0
SECTION
2
ENTITIES
0
LWPOLYLINE
5
1A
330
C
100
AcDbEntity
420
#000000
8
0
100
AcDbPolyline
90
5
70
0
43
0
38
0
39
0
10
20
20
852
10
1260
20
852
10
1260
20
40
10
20
20
40
10
20
20
852
0
LWPOLYLINE
5
1B
330
C
100
AcDbEntity
420
#e0e0e0
8
0
100
AcDbPolyline
90
5
70
0
43
0
38
0
39
0
10
20
20
852
10
340
20
852
10
340
20
626
10
20
20
626
10
20
20
852
0
LWPOLYLINE
5
1C
330
C
100
AcDbEntity
420
#ffffff
8
0
100
AcDbPolyline
90
5
70
0
43
0
38
0
39
0
10
21
20
851
10
339
20
851
10
339
20
798
10
21
20
798
10
21
20
851
0
TEXT
5
1D
330
C
100
AcDbEntity
420
#000000
8
0
100
AcDbText
10
41
20
815
30
0
40
20
1
Feature Overview
7
STANDARD
100
AcDbText
0
LWPOLYLINE
5
1E
330
C
100
AcDbEntity
420
#000000
8
0
100
AcDbPolyline
90
5
70
0
43
0
38
0
39
0
10
21
20
798
10
339
20
798
10
339
20
687
10
21
20
687
10
21
20
798
0
LWPOLYLINE
5
1F
330
C
100
AcDbEntity
420
#555555
8
0
100
AcDbPolyline
90
5
70
0
43
0
38
0
39
0
10
41
20
782
10
319
20
782
10
319
20
715
10
41
20
715
10
41
20
782
0
TEXT
5
20
330
C
100
AcDbEntity
420
#000000
8
0
100
AcDbText
10
41
20
763
30
0
40
16
1
This card combines gradients, borders, border-radius, box-shadow, and typography in a realistic component layout.
7
STANDARD
100
AcDbText
0
TEXT
5
21
330
C
100
AcDbEntity
420
#000000
8
0
100
AcDbText
10
41
20
740.609375
30
0
40
16
1
This card combines gradients, borders, border-radius, box-shadow, and typography in a realistic component layout.
7
STANDARD
100
AcDbText
0
TEXT
5
22
330
C
100
AcDbEntity
420
#000000
8
0
100
AcDbText
10
41
20
718.21875
30
0
40
16
1
This card combines gradients, borders, border-radius, box-shadow, and typography in a realistic component layout.
7
STANDARD
100
AcDbText
0
LWPOLYLINE
5
23
330
C
100
AcDbEntity
420
#e0e0e0
8
0
100
AcDbPolyline
90
5
70
0
43
0
38
0
39
0
10
21
20
687
10
339
20
687
10
339
20
627
10
21
20
627
10
21
20
687
0
LWPOLYLINE
5
24
330
C
100
AcDbEntity
420
#ffffff
8
0
100
AcDbPolyline
90
5
70
0
43
0
38
0
39
0
10
41
20
674
10
116
20
674
10
116
20
639
10
41
20
639
10
41
20
674
0
TEXT
5
25
330
C
100
AcDbEntity
420
#1e88e5
8
0
100
AcDbText
10
57
20
648.828125
30
0
40
15
1
Accept
7
STANDARD
100
AcDbText
0
LWPOLYLINE
5
26
330
C
100
AcDbEntity
420
#1e88e5
8
0
100
AcDbPolyline
90
5
70
0
43
0
38
0
39
0
10
126
20
674
10
205
20
674
10
205
20
639
10
126
20
639
10
126
20
674
0
TEXT
5
27
330
C
100
AcDbEntity
420
#000000
8
0
100
AcDbText
10
144.359375
20
648.828125
30
0
40
15
1
Cancel
7
STANDARD
100
AcDbText
0
LWPOLYLINE
5
28
330
C
100
AcDbEntity
420
#000000
8
0
100
AcDbPolyline
90
5
70
0
43
0
38
0
39
0
10
20
20
606
10
620
20
606
10
620
20
514
10
20
20
514
10
20
20
606
0
LWPOLYLINE
5
29
330
C
100
AcDbEntity
420
#e0e0e0
8
0
100
AcDbPolyline
90
5
70
0
43
0
38
0
39
0
10
20
20
606
10
209
20
606
10
209
20
514
10
20
20
514
10
20
20
606
0
LWPOLYLINE
5
2A
330
C
100
AcDbEntity
420
#1a237e
8
0
100
AcDbPolyline
90
5
70
0
43
0
38
0
39
0
10
37
20
589
10
192
20
589
10
192
20
549
10
37
20
549
10
37
20
589
0
TEXT
5
2B
330
C
100
AcDbEntity
420
#000000
8
0
100
AcDbText
10
72.640625
20
548.828125
30
0
40
40
1
1,284
7
STANDARD
100
AcDbText
0
LWPOLYLINE
5
2C
330
C
100
AcDbEntity
420
#888888
8
0
100
AcDbPolyline
90
5
70
0
43
0
38
0
39
0
10
37
20
545
10
192
20
545
10
192
20
531
10
37
20
531
10
37
20
545
0
TEXT
5
2D
330
C
100
AcDbEntity
420
#000000
8
0
100
AcDbText
10
91.484375
20
530.828125
30
0
40
14
1
Users
7
STANDARD
100
AcDbText
0
LWPOLYLINE
5
2E
330
C
100
AcDbEntity
420
#e0e0e0
8
0
100
AcDbPolyline
90
5
70
0
43
0
38
0
39
0
10
225
20
606
10
414
20
606
10
414
20
514
10
225
20
514
10
225
20
606
0
LWPOLYLINE
5
2F
330
C
100
AcDbEntity
420
#1a237e
8
0
100
AcDbPolyline
90
5
70
0
43
0
38
0
39
0
10
242
20
589
10
397
20
589
10
397
20
549
10
242
20
549
10
242
20
589
0
TEXT
5
30
330
C
100
AcDbEntity
420
#000000
8
0
100
AcDbText
10
282.640625
20
548.828125
30
0
40
40
1
$34k
7
STANDARD
100
AcDbText
0
LWPOLYLINE
5
31
330
C
100
AcDbEntity
420
#888888
8
0
100
AcDbPolyline
90
5
70
0
43
0
38
0
39
0
10
242
20
545
10
397
20
545
10
397
20
531
10
242
20
531
10
242
20
545
0
TEXT
5
32
330
C
100
AcDbEntity
420
#000000
8
0
100
AcDbText
10
287.484375
20
530.828125
30
0
40
14
1
Revenue
7
STANDARD
100
AcDbText
0
LWPOLYLINE
5
33
330
C
100
AcDbEntity
420
#e0e0e0
8
0
100
AcDbPolyline
90
5
70
0
43
0
38
0
39
0
10
431
20
606
10
620
20
606
10
620
20
514
10
431
20
514
10
431
20
606
0
LWPOLYLINE
5
34
330
C
100
AcDbEntity
420
#1a237e
8
0
100
AcDbPolyline
90
5
70
0
43
0
38
0
39
0
10
448
20
589
10
603
20
589
10
603
20
549
10
448
20
549
10
448
20
589
0
TEXT
5
35
330
C
100
AcDbEntity
420
#000000
8
0
100
AcDbText
10
478.640625
20
548.828125
30
0
40
40
1
98.6%
7
STANDARD
100
AcDbText
0
LWPOLYLINE
5
36
330
C
100
AcDbEntity
420
#888888
8
0
100
AcDbPolyline
90
5
70
0
43
0
38
0
39
0
10
448
20
545
10
603
20
545
10
603
20
531
10
448
20
531
10
448
20
545
0
TEXT
5
37
330
C
100
AcDbEntity
420
#000000
8
0
100
AcDbText
10
499.640625
20
530.828125
30
0
40
14
1
Uptime
7
STANDARD
100
AcDbText
0
LWPOLYLINE
5
38
330
C
100
AcDbEntity
420
#e0e0e0
8
0
100
AcDbPolyline
90
5
70
0
43
0
38
0
39
0
10
20
20
494
10
1260
20
494
10
1260
20
336
10
20
20
336
10
20
20
494
0
LWPOLYLINE
5
39
330
C
100
AcDbEntity
8
0
100
AcDbPolyline
90
5
70
0
43
0
38
0
39
0
10
10
20
812
10
40
20
812
10
40
20
772
10
10
20
772
10
10
20
812
0
LWPOLYLINE
5
3A
330
C
100
AcDbEntity
8
0
100
AcDbPolyline
90
5
70
0
43
0
38
0
39
0
10
50
20
842
10
80
20
842
10
80
20
772
10
50
20
772
10
50
20
842
0
LWPOLYLINE
5
3B
330
C
100
AcDbEntity
8
0
100
AcDbPolyline
90
5
70
0
43
0
38
0
39
0
10
90
20
862
10
120
20
862
10
120
20
772
10
90
20
772
10
90
20
862
0
LWPOLYLINE
5
3C
330
C
100
AcDbEntity
8
0
100
AcDbPolyline
90
5
70
0
43
0
38
0
39
0
10
130
20
832
10
160
20
832
10
160
20
772
10
130
20
772
10
130
20
832
0
LWPOLYLINE
5
3D
330
C
100
AcDbEntity
8
0
100
AcDbPolyline
90
5
70
0
43
0
38
0
39
0
10
170
20
872
10
200
20
872
10
200
20
772
10
170
20
772
10
170
20
872
0
LWPOLYLINE
5
3E
330
C
100
AcDbEntity
8
0
100
AcDbPolyline
90
5
70
0
43
0
38
0
39
0
10
210
20
847
10
240
20
847
10
240
20
772
10
210
20
772
10
210
20
847
0
LWPOLYLINE
5
3F
330
C
100
AcDbEntity
8
0
100
AcDbPolyline
90
5
70
0
43
0
38
0
39
0
10
250
20
882
10
280
20
882
10
280
20
772
10
250
20
772
10
250
20
882
0
LWPOLYLINE
5
40
330
C
100
AcDbEntity
420
#e53935
8
0
100
AcDbPolyline
90
7
70
0
43
0
38
0
39
0
10
25
20
822
10
65
20
852
10
105
20
872
10
145
20
842
10
185
20
882
10
225
20
857
10
265
20
887
0
TEXT
5
41
330
C
100
AcDbEntity
420
#888888
8
0
100
AcDbText
10
110.5390625
20
772
30
0
40
11
1
Monthly Data
7
STANDARD
100
AcDbText
0
LWPOLYLINE
5
42
330
C
100
AcDbEntity
420
#000000
8
0
100
AcDbPolyline
90
5
70
0
43
0
38
0
39
0
10
20
20
316
10
1260
20
316
10
1260
20
290
10
20
20
290
10
20
20
316
0
LWPOLYLINE
5
43
330
C
100
AcDbEntity
420
#ffffff
8
0
100
AcDbPolyline
90
5
70
0
43
0
38
0
39
0
10
20
20
316
10
84
20
316
10
84
20
290
10
20
20
290
10
20
20
316
0
TEXT
5
44
330
C
100
AcDbEntity
420
#43a047
8
0
100
AcDbText
10
34
20
295.828125
30
0
40
14
1
Active
7
STANDARD
100
AcDbText
0
LWPOLYLINE
5
45
330
C
100
AcDbEntity
420
#ffffff
8
0
100
AcDbPolyline
90
5
70
0
43
0
38
0
39
0
10
95.37124250533294
20
314.01059335247805
10
170.26849250533294
20
317.9357933524781
10
171.62922850533295
20
291.97141335247807
10
96.73197850533295
20
288.04621335247805
10
95.37124250533294
20
314.01059335247805
0
TEXT
5
46
330
C
100
AcDbEntity
420
#fb8c00
8
0
100
AcDbText
10
109.69734191894531
20
294.59881591796875
30
0
40
16.4586181640625
1
Pending
7
STANDARD
100
AcDbText
0
LWPOLYLINE
5
47
330
C
100
AcDbEntity
420
#ffffff
8
0
100
AcDbPolyline
90
5
70
0
43
0
38
0
39
0
10
179.56562004089355
20
317.29999999999995
10
255.46562004089355
20
317.29999999999995
10
255.46562004089355
20
288.69999999999993
10
179.56562004089355
20
288.69999999999993
10
179.56562004089355
20
317.29999999999995
0
TEXT
5
48
330
C
100
AcDbEntity
420
#e53935
8
0
100
AcDbText
10
195.3406219482422
20
295.12811279296875
30
0
40
15.4000244140625
1
Critical
7
STANDARD
100
AcDbText
0
LWPOLYLINE
5
49
330
C
100
AcDbEntity
420
#ffffff
8
0
100
AcDbPolyline
90
5
70
0
43
0
38
0
39
0
10
265.1373531
20
316
10
315.1373531
20
316
10
312.86264689999996
20
290
10
262.86264689999996
20
290
10
265.1373531
20
316
0
TEXT
5
4A
330
C
100
AcDbEntity
420
#1e88e5
8
0
100
AcDbText
10
277.4500732421875
20
295.828125
30
0
40
14
1
Info
7
STANDARD
100
AcDbText
0
LWPOLYLINE
5
4B
330
C
100
AcDbEntity
420
#7e57c2
8
0
100
AcDbPolyline
90
5
70
0
43
0
38
0
39
0
10
20
20
270
10
1260
20
270
10
1260
20
220
10
20
20
220
10
20
20
270
0
LWPOLYLINE
5
4C
330
C
100
AcDbEntity
420
#4527a0
8
0
100
AcDbPolyline
90
5
70
0
43
0
38
0
39
0
10
22
20
268
10
1258
20
268
10
1258
20
250
10
22
20
250
10
22
20
268
0
TEXT
5
4D
330
C
100
AcDbEntity
420
#000000
8
0
100
AcDbText
10
22
20
250.828125
30
0
40
17
1
Shadow DOM Widget
7
STANDARD
100
AcDbText
0
LWPOLYLINE
5
4E
330
C
100
AcDbEntity
420
#5e35b1
8
0
100
AcDbPolyline
90
5
70
0
43
0
38
0
39
0
10
22
20
242
10
1258
20
242
10
1258
20
222
10
22
20
222
10
22
20
242
0
TEXT
5
4F
330
C
100
AcDbEntity
420
#000000
8
0
100
AcDbText
10
22
20
224.828125
30
0
40
15
1
This widget lives inside a declarative shadow root with its own scoped styles, gradients, and borders.
7
STANDARD
100
AcDbText
0
LWPOLYLINE
5
50
330
C
100
AcDbEntity
420
#000000
8
0
100
AcDbPolyline
90
5
70
0
43
0
38
0
39
0
10
20
20
200
10
220
20
200
10
220
20
40
10
20
20
40
10
20
20
200
0
LWPOLYLINE
5
51
330
C
100
AcDbEntity
420
#000000
8
0
100
AcDbPolyline
90
5
70
0
43
0
38
0
39
0
10
20
20
200
10
120
20
200
10
120
20
100
10
20
20
100
10
20
20
200
0
LWPOLYLINE
5
52
330
C
100
AcDbEntity
420
#000000
8
0
100
AcDbPolyline
90
5
70
0
43
0
38
0
39
0
10
60
20
180
10
160
20
180
10
160
20
80
10
60
20
80
10
60
20
180
0
LWPOLYLINE
5
53
330
C
100
AcDbEntity
420
#000000
8
0
100
AcDbPolyline
90
5
70
0
43
0
38
0
39
0
10
100
20
160
10
200
20
160
10
200
20
60
10
100
20
60
10
100
20
160
0
ENDSEC
0
SECTION
2
OBJECTS
0
DICTIONARY
5
A
330
0
100
AcDbDictionary
281
1
3
ACAD_GROUP
350
B
0
DICTIONARY
5
B
330
A
100
AcDbDictionary
281
0
0
ENDSEC
0
EOF