  0
SECTION
  2
HEADER
  0
ENDSEC
  0
SECTION
  2
CLASSES
  0
CLASS
  1
ACDBDICTIONARYWDFLT
  2
AcDbDictionaryWithDefault
  3
ObjectDBX Classes
 90
32768
280
0
281
0
  0
CLASS
  1
ACDBPLACEHOLDER
  2
AcDbPlaceHolder
  3
ObjectDBX Classes
 90
0
280
0
281
0
  0
CLASS
  1
LAYOUT
  2
AcDbLayout
  3
ObjectDBX Classes
 90
0
280
0
281
0
  0
CLASS
  1
DICTIONARYVAR
  2
AcDbDictionaryVar
  3
ObjectDBX Classes
 90
0
280
0
281
0
  0
CLASS
  1
TABLESTYLE
  2
AcDbTableStyle
  3
ObjectDBX Classes
 90
4095
280
0
281
0
  0
CLASS
  1
MATERIAL
  2
AcDbMaterial
  3
ObjectDBX Classes
 90
1153
280
0
281
0
  0
CLASS
  1
VISUALSTYLE
  2
AcDbVisualStyle
  3
ObjectDBX Classes
 90
4095
280
0
281
0
  0
CLASS
  1
SCALE
  2
AcDbScale
  3
ObjectDBX Classes
 90
1153
280
0
281
0
  0
CLASS
  1
MLEADERSTYLE
  2
AcDbMLeaderStyle
  3
ObjectDBX Classes
 90
4095
280
0
281
0
  0
CLASS
  1
CELLSTYLEMAP
  2
AcDbCellStyleMap
  3
ObjectDBX Classes
 90
1152
280
0
281
0
  0
CLASS
  1
EXACXREFPANELOBJECT
  2
ExAcXREFPanelObject
  3
ObjectDBX Classes
 90
1025
280
0
281
0
  0
CLASS
  1
NPOCOLLECTION
  2
AcDbImpNonPersistentObjectsCollection
  3
ObjectDBX Classes
 90
1153
280
0
281
0
  0
CLASS
  1
LAYER_INDEX
  2
AcDbLayerIndex
  3
ObjectDBX Classes
 90
0
280
0
281
0
  0
CLASS
  1
SPATIAL_INDEX
  2
AcDbSpatialIndex
  3
ObjectDBX Classes
 90
0
280
0
281
0
  0
CLASS
  1
IDBUFFER
  2
AcDbIdBuffer
  3
ObjectDBX Classes
 90
32768
280
0
281
0
  0
CLASS
  1
ACDBSECTIONVIEWSTYLE
  2
AcDbSectionViewStyle
  3
ObjectDBX Classes
 90
1025
280
0
281
0
  0
CLASS
  1
ACDBDETAILVIEWSTYLE
  2
AcDbDetailViewStyle
  3
ObjectDBX Classes
 90
1025
280
0
281
0
  0
CLASS
  1
MESH
  2
AcDbSubDMesh
  3
ObjectDBX Classes
 90
0
280
0
281
1
  0
CLASS
  1
SORTENTSTABLE
  2
AcDbSortentsTable
  3
ObjectDBX Classes
 90
0
280
0
281
0
  0
CLASS
  1
ACDB_TEXTOBJECTCONTEXTDATA_CLASS
  2
AcDbTextObjectContextData
  3
ObjectDBX Classes
 90
1153
280
0
281
0
  0
CLASS
  1
WIPEOUT
  2
AcDbWipeout
  3
WipeOut
 90
32895
280
0
281
1
  0
CLASS
  1
WIPEOUTVARIABLES
  2
AcDbWipeoutVariables
  3
WipeOut
 90
32768
280
0
281
0
  0
CLASS
  1
DIMASSOC
  2
AcDbDimAssoc
  3
AcDbDimAssoc
 90
0
280
0
281
0
  0
CLASS
  1
ACAD_TABLE
  2
AcDbTable
  3
ObjectDBX Classes
 90
1025
280
0
281
1
  0
CLASS
  1
TABLECONTENT
  2
AcDbTableContent
  3
ObjectDBX Classes
 90
1152
280
0
281
0
  0
CLASS
  1
TABLEGEOMETRY
  2
AcDbTableGeometry
  3
ObjectDBX Classes
 90
1152
280
0
281
0
  0
CLASS
  1
IMAGE
  2
AcDbRasterImage
  3
ISM
 90
32895
280
0
281
1
  0
CLASS
  1
IMAGEDEF
  2
AcDbRasterImageDef
  3
ISM
 90
0
280
0
281
0
  0
CLASS
  1
IMAGEDEF_REACTOR
  2
AcDbRasterImageDefReactor
  3
ISM
 90
1
280
0
281
0
  0
CLASS
  1
DBCOLOR
  2
AcDbColor
  3
ObjectDBX Classes
 90
0
280
0
281
0
  0
CLASS
  1
GEODATA
  2
AcDbGeoData
  3
ObjectDBX Classes
 90
4095
280
0
281
0
  0
CLASS
  1
MULTILEADER
  2
AcDbMLeader
  3
ObjectDBX Classes
 90
1025
280
0
281
0
  0
CLASS
  1
PDFUNDERLAY
  2
AcDbPdfReference
  3
ObjectDBX Classes
 90
4095
280
0
281
1
  0
CLASS
  1
PDFDEFINITION
  2
AcDbPdfDefinition
  3
ObjectDBX Classes
 90
1153
280
0
281
0
  0
CLASS
  1
RASTERVARIABLES
  2
AcDbRasterVariables
  3
ISM
 90
0
280
0
281
0
  0
CLASS
  1
SPATIAL_FILTER
  2
AcDbSpatialFilter
  3
ObjectDBX Classes
 90
0
280
0
281
0
  0
CLASS
  1
ACDB_MLEADEROBJECTCONTEXTDATA_CLASS
  2
AcDbMLeaderObjectContextData
  3
ObjectDBX Classes
 90
1025
280
0
281
0
  0
CLASS
  1
PLOTSETTINGS
  2
AcDbPlotSettings
  3
ObjectDBX Classes
 90
0
280
0
281
0
  0
CLASS
  1
FIELD
  2
AcDbField
  3
ObjectDBX Classes
 90
1152
280
0
281
0
  0
CLASS
  1
FIELDLIST
  2
AcDbFieldList
  3
ObjectDBX Classes
 90
1152
280
0
281
0
  0
CLASS
  1
ACDB_MTEXTATTRIBUTEOBJECTCONTEXTDATA_CLASS
  2
AcDbMTextAttributeObjectContextData
  3
ObjectDBX Classes
 90
1153
280
0
281
0
  0
CLASS
  1
ACDB_BLKREFOBJECTCONTEXTDATA_CLASS
  2
AcDbBlkRefObjectContextData
  3
ObjectDBX Classes
 90
1153
280
0
281
0
  0
ENDSEC
  0
SECTION
  2
TABLES
  0
TABLE
  2
VPORT
  5
A
330
0
100
AcDbSymbolTable
 70
1
  0
VPORT
  5
18
330
A
100
AcDbSymbolTableRecord
100
AcDbViewportTableRecord
  2
*Active
 70
0
 10
0.0
 20
0.0
 11
1.0
 21
1.0
 12
0.0
 22
0.0
 13
0.0
 23
0.0
 14
0.5
 24
0.5
 15
10.0
 25
10.0
 16
0.0
 26
0.0
 36
1.0
 17
0.0
 27
0.0
 37
0.0
 40
10.0
 41
1.0
 75
0
 76
1
  0
ENDTAB
  0
TABLE
  2
LTYPE
  5
6
330
0
100
AcDbSymbolTable
 70
3
  0
LTYPE
  5
B
330
6
100
AcDbSymbolTableRecord
100
AcDbLinetypeTableRecord
  2
ByLayer
 70
0
 72
0
 73
0
 40
0.0
  0
LTYPE
  5
C
330
6
100
AcDbSymbolTableRecord
100
AcDbLinetypeTableRecord
  2
ByBlock
 70
0
 72
0
 73
0
 40
0.0
  0
LTYPE
  5
D
330
6
100
AcDbSymbolTableRecord
100
AcDbLinetypeTableRecord
  2
Continuous
 70
0
 72
0
 73
0
 40
0.0
  0
ENDTAB
  0
TABLE
  2
LAYER
  5
5
330
0
100
AcDbSymbolTable
 70
1
  0
LAYER
  5
E
330
5
100
AcDbSymbolTableRecord
100
AcDbLayerTableRecord
  2
0
 70
0
 62
7
  6
Continuous
290
1
370
-3
390
0
  0
ENDTAB
  0
TABLE
  2
STYLE
  5
7
330
0
100
AcDbSymbolTable
 70
1
  0
STYLE
  5
15
330
7
100
AcDbSymbolTableRecord
100
AcDbTextStyleTableRecord
  2
Standard
 70
0
 40
0.0
 41
1.0
 42
0.0
 50
0.0
 71
0
  0
ENDTAB
  0
TABLE
  2
VIEW
  5
9
330
0
100
AcDbSymbolTable
 70
0
  0
ENDTAB
  0
TABLE
  2
UCS
  5
8
330
0
100
AcDbSymbolTable
 70
0
  0
ENDTAB
  0
TABLE
  2
APPID
  5
2
330
0
100
AcDbSymbolTable
 70
1
  0
APPID
  5
17
330
2
100
AcDbSymbolTableRecord
100
AcDbRegAppTableRecord
  2
ACAD
 70
0
  0
ENDTAB
  0
TABLE
  2
DIMSTYLE
  5
4
330
0
100
AcDbSymbolTable
 70
1
100
AcDbDimStyleTable
  0
DIMSTYLE
105
16
330
4
100
AcDbSymbolTableRecord
100
AcDbDimStyleTableRecord
  2
Standard
 70
0
  3
<>
  4
[]
 40
1.0
 41
0.18
 42
0.625
 43
3.75
 44
1.25
 45
0.0
 46
0.0
 47
0.0
 48
0.0
 49
1.0
 50
0.7853981633974483
 70
0
 90
0
140
0.18
141
0.09
142
0.0
143
25.3999999999999986
144
1.0
145
0.0
146
1.0
147
0.625
148
0.0
 71
0
 72
0
 73
0
 74
0
 75
0
 76
0
 77
1
 78
8
 79
0
170
0
171
3
172
0
173
1
174
0
175
0
176
0
177
0
178
0
179
0
271
2
272
2
273
2
274
3
275
0
276
0
277
2
278
46
279
0
280
0
281
0
282
0
283
0
284
8
285
0
286
0
287
0
288
0
289
3
290
0
340
0
371
-2
372
-2
  0
ENDTAB
  0
TABLE
  2
BLOCK_RECORD
  5
3
330
0
100
AcDbSymbolTable
 70
2
  0
BLOCK_RECORD
  5
F
330
3
100
AcDbSymbolTableRecord
100
AcDbBlockTableRecord
  2
*Model_Space
 70
0
 70
0
280
0
281
1
  0
BLOCK_RECORD
  5
12
330
3
100
AcDbSymbolTableRecord
100
AcDbBlockTableRecord
  2
*Paper_Space
 70
0
 70
0
280
0
281
1
  0
ENDTAB
  0
ENDSEC
  0
SECTION
  2
BLOCKS
  0
BLOCK
  5
10
330
F
100
AcDbEntity
  8
0
  6
ByLayer
 62
256
 48
1.0
 60
0
370
-1
100
AcDbBlockBegin
  2
*Model_Space
 70
0
 10
0.0
 20
0.0
 30
0.0
  3
*Model_Space
  0
ENDBLK
  5
11
330
F
100
AcDbEntity
  8
0
100
AcDbBlockEnd
  0
BLOCK
  5
13
330
12
100
AcDbEntity
  8
0
  6
ByLayer
 62
256
 48
1.0
 60
0
370
-1
100
AcDbBlockBegin
  2
*Paper_Space
 70
0
 10
0.0
 20
0.0
 30
0.0
  3
*Paper_Space
  0
ENDBLK
  5
14
330
12
100
AcDbEntity
  8
0
100
AcDbBlockEnd
  0
ENDSEC
  0
SECTION
  2
ENTITIES
  0
HATCH
  5
19
330
F
100
AcDbEntity
  8
0
  6
ByLayer
420
16777215
 48
1.0
 60
0
370
-1
100
AcDbHatch
 30
0.0
210
0.0
220
0.0
230
1.0
  2
SOLID
 70
1
 71
0
 91
1
 92
2
 72
0
 73
1
 93
41
 10
12.0
 20
812.0
 10
308.0
 20
812.0
 10
308.0
 20
812.0
 10
310.3410838641935356
 20
811.7694233648387581
 10
312.5922011883810683
 20
811.0865543901354613
 10
314.6668427962352439
 20
809.977635347630553
 10
316.485281374238582
 20
808.4852813742385251
 10
317.977635347630553
 20
806.6668427962351871
 10
319.0865543901354613
 20
804.5922011883810683
 10
319.7694233648387581
 20
802.3410838641935925
 10
320.0
 20
800.0
 10
320.0
 20
598.0
 10
320.0
 20
598.0
 10
319.7694233648387581
 20
595.6589161358065212
 10
319.0865543901354613
 20
593.4077988116189317
 10
317.977635347630553
 20
591.3331572037648129
 10
316.485281374238582
 20
589.5147186257613612
 10
314.6668427962352439
 20
588.022364652369447
 10
312.5922011883810683
 20
586.9134456098645387
 10
310.3410838641935356
 20
586.2305766351612419
 10
308.0
 20
586.0
 10
12.0
 20
586.0
 10
12.0
 20
586.0
 10
9.6589161358064608
 20
586.2305766351612419
 10
7.4077988116189228
 20
586.9134456098645387
 10
5.3331572037647765
 20
588.022364652369447
 10
3.5147186257614305
 20
589.5147186257613612
 10
2.0223646523694558
 20
591.3331572037648129
 10
0.91344560986456
 20
593.4077988116189317
 10
0.2305766351612348
 20
595.6589161358065212
 10
0.0
 20
598.0
 10
0.0
 20
800.0
 10
0.0
 20
800.0
 10
0.2305766351612348
 20
802.3410838641935925
 10
0.9134456098645583
 20
804.5922011883810683
 10
2.0223646523694541
 20
806.6668427962351871
 10
3.5147186257614287
 20
808.4852813742385251
 10
5.3331572037647739
 20
809.977635347630553
 10
7.4077988116189157
 20
811.0865543901354613
 10
9.6589161358064555
 20
811.7694233648387581
 10
11.9999999999999982
 20
812.0
 97
0
 75
0
 76
1
 47
0.0
 98
0
  0
LWPOLYLINE
  5
1A
330
F
100
AcDbEntity
  8
0
  6
ByLayer
420
14737632
 48
1.0
 60
0
370
-1
100
AcDbPolyline
 90
41
 70
1
 43
0.0
 38
0.0
 39
0.0
210
0.0
220
0.0
230
1.0
 10
12.0
 20
812.0
 40
0.0
 41
0.0
 42
0.0
 10
308.0
 20
812.0
 40
0.0
 41
0.0
 42
0.0
 10
308.0
 20
812.0
 40
0.0
 41
0.0
 42
0.0
 10
310.3410838641935356
 20
811.7694233648387581
 40
0.0
 41
0.0
 42
0.0
 10
312.5922011883810683
 20
811.0865543901354613
 40
0.0
 41
0.0
 42
0.0
 10
314.6668427962352439
 20
809.977635347630553
 40
0.0
 41
0.0
 42
0.0
 10
316.485281374238582
 20
808.4852813742385251
 40
0.0
 41
0.0
 42
0.0
 10
317.977635347630553
 20
806.6668427962351871
 40
0.0
 41
0.0
 42
0.0
 10
319.0865543901354613
 20
804.5922011883810683
 40
0.0
 41
0.0
 42
0.0
 10
319.7694233648387581
 20
802.3410838641935925
 40
0.0
 41
0.0
 42
0.0
 10
320.0
 20
800.0
 40
0.0
 41
0.0
 42
0.0
 10
320.0
 20
598.0
 40
0.0
 41
0.0
 42
0.0
 10
320.0
 20
598.0
 40
0.0
 41
0.0
 42
0.0
 10
319.7694233648387581
 20
595.6589161358065212
 40
0.0
 41
0.0
 42
0.0
 10
319.0865543901354613
 20
593.4077988116189317
 40
0.0
 41
0.0
 42
0.0
 10
317.977635347630553
 20
591.3331572037648129
 40
0.0
 41
0.0
 42
0.0
 10
316.485281374238582
 20
589.5147186257613612
 40
0.0
 41
0.0
 42
0.0
 10
314.6668427962352439
 20
588.022364652369447
 40
0.0
 41
0.0
 42
0.0
 10
312.5922011883810683
 20
586.9134456098645387
 40
0.0
 41
0.0
 42
0.0
 10
310.3410838641935356
 20
586.2305766351612419
 40
0.0
 41
0.0
 42
0.0
 10
308.0
 20
586.0
 40
0.0
 41
0.0
 42
0.0
 10
12.0
 20
586.0
 40
0.0
 41
0.0
 42
0.0
 10
12.0
 20
586.0
 40
0.0
 41
0.0
 42
0.0
 10
9.6589161358064608
 20
586.2305766351612419
 40
0.0
 41
0.0
 42
0.0
 10
7.4077988116189228
 20
586.9134456098645387
 40
0.0
 41
0.0
 42
0.0
 10
5.3331572037647765
 20
588.022364652369447
 40
0.0
 41
0.0
 42
0.0
 10
3.5147186257614305
 20
589.5147186257613612
 40
0.0
 41
0.0
 42
0.0
 10
2.0223646523694558
 20
591.3331572037648129
 40
0.0
 41
0.0
 42
0.0
 10
0.91344560986456
 20
593.4077988116189317
 40
0.0
 41
0.0
 42
0.0
 10
0.2305766351612348
 20
595.6589161358065212
 40
0.0
 41
0.0
 42
0.0
 10
0.0
 20
598.0
 40
0.0
 41
0.0
 42
0.0
 10
0.0
 20
800.0
 40
0.0
 41
0.0
 42
0.0
 10
0.0
 20
800.0
 40
0.0
 41
0.0
 42
0.0
 10
0.2305766351612348
 20
802.3410838641935925
 40
0.0
 41
0.0
 42
0.0
 10
0.9134456098645583
 20
804.5922011883810683
 40
0.0
 41
0.0
 42
0.0
 10
2.0223646523694541
 20
806.6668427962351871
 40
0.0
 41
0.0
 42
0.0
 10
3.5147186257614287
 20
808.4852813742385251
 40
0.0
 41
0.0
 42
0.0
 10
5.3331572037647739
 20
809.977635347630553
 40
0.0
 41
0.0
 42
0.0
 10
7.4077988116189157
 20
811.0865543901354613
 40
0.0
 41
0.0
 42
0.0
 10
9.6589161358064555
 20
811.7694233648387581
 40
0.0
 41
0.0
 42
0.0
 10
11.9999999999999982
 20
812.0
 40
0.0
 41
0.0
 42
0.0
  0
HATCH
  5
1B
330
F
100
AcDbEntity
  8
0
  6
ByLayer
420
1713022
 48
1.0
 60
0
370
-1
100
AcDbHatch
 30
0.0
210
0.0
220
0.0
230
1.0
  2
SOLID
 70
1
 71
0
 91
1
 92
2
 72
0
 73
1
 93
4
 10
1.0
 20
811.0
 10
319.0
 20
811.0
 10
319.0
 20
758.0
 10
1.0
 20
758.0
 97
0
 75
0
 76
1
 47
0.0
 98
0
  0
LWPOLYLINE
  5
1C
330
F
100
AcDbEntity
  8
0
  6
ByLayer
420
1713022
 48
1.0
 60
0
370
-1
100
AcDbPolyline
 90
4
 70
1
 43
0.0
 38
0.0
 39
0.0
210
0.0
220
0.0
230
1.0
 10
1.0
 20
811.0
 40
0.0
 41
0.0
 42
0.0
 10
319.0
 20
811.0
 40
0.0
 41
0.0
 42
0.0
 10
319.0
 20
758.0
 40
0.0
 41
0.0
 42
0.0
 10
1.0
 20
758.0
 40
0.0
 41
0.0
 42
0.0
  0
TEXT
  5
1D
330
F
100
AcDbEntity
  8
0
  6
ByLayer
420
16777215
 48
1.0
 60
0
370
-1
100
AcDbText
 39
0.0
 10
21.0
 20
780.5
 30
0.0
 40
18.0
  1
Feature Overview
 50
0.0
 41
1.0
 51
0.0
  7
Standard
 71
0
 72
0
 11
0.0
 21
0.0
 31
0.0
210
0.0
220
0.0
230
1.0
100
AcDbText
 73
0
  0
TEXT
  5
1E
330
F
100
AcDbEntity
  8
0
  6
ByLayer
420
5592405
 48
1.0
 60
0
370
-1
100
AcDbText
 39
0.0
 10
21.0
 20
705.0
 30
0.0
 40
14.0
  1
This card combines gradients, borders, border-radius, box-shadow, and typography in a realistic component layout.
 50
0.0
 41
1.0
 51
0.0
  7
Standard
 71
0
 72
0
 11
0.0
 21
0.0
 31
0.0
210
0.0
220
0.0
230
1.0
100
AcDbText
 73
0
  0
HATCH
  5
1F
330
F
100
AcDbEntity
  8
0
  6
ByLayer
420
16119285
 48
1.0
 60
0
370
-1
100
AcDbHatch
 30
0.0
210
0.0
220
0.0
230
1.0
  2
SOLID
 70
1
 71
0
 91
1
 92
2
 72
0
 73
1
 93
4
 10
1.0
 20
647.0
 10
319.0
 20
647.0
 10
319.0
 20
587.0
 10
1.0
 20
587.0
 97
0
 75
0
 76
1
 47
0.0
 98
0
  0
LWPOLYLINE
  5
20
330
F
100
AcDbEntity
  8
0
  6
ByLayer
420
16119285
 48
1.0
 60
0
370
-1
100
AcDbPolyline
 90
4
 70
1
 43
0.0
 38
0.0
 39
0.0
210
0.0
220
0.0
230
1.0
 10
1.0
 20
647.0
 40
0.0
 41
0.0
 42
0.0
 10
319.0
 20
647.0
 40
0.0
 41
0.0
 42
0.0
 10
319.0
 20
587.0
 40
0.0
 41
0.0
 42
0.0
 10
1.0
 20
587.0
 40
0.0
 41
0.0
 42
0.0
  0
HATCH
  5
21
330
F
100
AcDbEntity
  8
0
  6
ByLayer
420
2001125
 48
1.0
 60
0
370
-1
100
AcDbHatch
 30
0.0
210
0.0
220
0.0
230
1.0
  2
SOLID
 70
1
 71
0
 91
1
 92
2
 72
0
 73
1
 93
41
 10
27.0
 20
634.0
 10
90.0
 20
634.0
 10
90.0
 20
634.0
 10
91.1705419320967678
 20
633.884711682419379
 10
92.2961005941905341
 20
633.5432771950677306
 10
93.3334213981176077
 20
632.9888176738152197
 10
94.242640687119291
 20
632.2426406871193194
 10
94.9888176738152765
 20
631.3334213981175935
 10
95.5432771950677164
 20
630.2961005941905341
 10
95.884711682419379
 20
629.1705419320967394
 10
96.0
 20
628.0
 10
96.0
 20
605.0
 10
96.0
 20
605.0
 10
95.884711682419379
 20
603.8294580679032606
 10
95.5432771950677164
 20
602.7038994058094659
 10
94.9888176738152765
 20
601.6665786018824065
 10
94.242640687119291
 20
600.7573593128806806
 10
93.3334213981176077
 20
600.0111823261847803
 10
92.2961005941905341
 20
599.4567228049322694
 10
91.1705419320967678
 20
599.115288317580621
 10
90.0
 20
599.0
 10
27.0
 20
599.0
 10
27.0
 20
599.0
 10
25.8294580679032322
 20
599.115288317580621
 10
24.7038994058094623
 20
599.4567228049322694
 10
23.6665786018823887
 20
600.0111823261847803
 10
22.7573593128807161
 20
600.7573593128806806
 10
22.011182326184727
 20
601.6665786018824065
 10
21.45672280493228
 20
602.7038994058094659
 10
21.1152883175806174
 20
603.8294580679032606
 10
21.0
 20
605.0
 10
21.0
 20
628.0
 10
21.0
 20
628.0
 10
21.1152883175806174
 20
629.1705419320967394
 10
21.45672280493228
 20
630.2961005941905341
 10
22.011182326184727
 20
631.3334213981175935
 10
22.7573593128807161
 20
632.2426406871193194
 10
23.6665786018823852
 20
632.9888176738152197
 10
24.7038994058094588
 20
633.5432771950677306
 10
25.8294580679032286
 20
633.884711682419379
 10
27.0
 20
634.0
 97
0
 75
0
 76
1
 47
0.0
 98
0
  0
LWPOLYLINE
  5
22
330
F
100
AcDbEntity
  8
0
  6
ByLayer
420
2001125
 48
1.0
 60
0
370
-1
100
AcDbPolyline
 90
41
 70
1
 43
0.0
 38
0.0
 39
0.0
210
0.0
220
0.0
230
1.0
 10
27.0
 20
634.0
 40
0.0
 41
0.0
 42
0.0
 10
90.0
 20
634.0
 40
0.0
 41
0.0
 42
0.0
 10
90.0
 20
634.0
 40
0.0
 41
0.0
 42
0.0
 10
91.1705419320967678
 20
633.884711682419379
 40
0.0
 41
0.0
 42
0.0
 10
92.2961005941905341
 20
633.5432771950677306
 40
0.0
 41
0.0
 42
0.0
 10
93.3334213981176077
 20
632.9888176738152197
 40
0.0
 41
0.0
 42
0.0
 10
94.242640687119291
 20
632.2426406871193194
 40
0.0
 41
0.0
 42
0.0
 10
94.9888176738152765
 20
631.3334213981175935
 40
0.0
 41
0.0
 42
0.0
 10
95.5432771950677164
 20
630.2961005941905341
 40
0.0
 41
0.0
 42
0.0
 10
95.884711682419379
 20
629.1705419320967394
 40
0.0
 41
0.0
 42
0.0
 10
96.0
 20
628.0
 40
0.0
 41
0.0
 42
0.0
 10
96.0
 20
605.0
 40
0.0
 41
0.0
 42
0.0
 10
96.0
 20
605.0
 40
0.0
 41
0.0
 42
0.0
 10
95.884711682419379
 20
603.8294580679032606
 40
0.0
 41
0.0
 42
0.0
 10
95.5432771950677164
 20
602.7038994058094659
 40
0.0
 41
0.0
 42
0.0
 10
94.9888176738152765
 20
601.6665786018824065
 40
0.0
 41
0.0
 42
0.0
 10
94.242640687119291
 20
600.7573593128806806
 40
0.0
 41
0.0
 42
0.0
 10
93.3334213981176077
 20
600.0111823261847803
 40
0.0
 41
0.0
 42
0.0
 10
92.2961005941905341
 20
599.4567228049322694
 40
0.0
 41
0.0
 42
0.0
 10
91.1705419320967678
 20
599.115288317580621
 40
0.0
 41
0.0
 42
0.0
 10
90.0
 20
599.0
 40
0.0
 41
0.0
 42
0.0
 10
27.0
 20
599.0
 40
0.0
 41
0.0
 42
0.0
 10
27.0
 20
599.0
 40
0.0
 41
0.0
 42
0.0
 10
25.8294580679032322
 20
599.115288317580621
 40
0.0
 41
0.0
 42
0.0
 10
24.7038994058094623
 20
599.4567228049322694
 40
0.0
 41
0.0
 42
0.0
 10
23.6665786018823887
 20
600.0111823261847803
 40
0.0
 41
0.0
 42
0.0
 10
22.7573593128807161
 20
600.7573593128806806
 40
0.0
 41
0.0
 42
0.0
 10
22.011182326184727
 20
601.6665786018824065
 40
0.0
 41
0.0
 42
0.0
 10
21.45672280493228
 20
602.7038994058094659
 40
0.0
 41
0.0
 42
0.0
 10
21.1152883175806174
 20
603.8294580679032606
 40
0.0
 41
0.0
 42
0.0
 10
21.0
 20
605.0
 40
0.0
 41
0.0
 42
0.0
 10
21.0
 20
628.0
 40
0.0
 41
0.0
 42
0.0
 10
21.0
 20
628.0
 40
0.0
 41
0.0
 42
0.0
 10
21.1152883175806174
 20
629.1705419320967394
 40
0.0
 41
0.0
 42
0.0
 10
21.45672280493228
 20
630.2961005941905341
 40
0.0
 41
0.0
 42
0.0
 10
22.011182326184727
 20
631.3334213981175935
 40
0.0
 41
0.0
 42
0.0
 10
22.7573593128807161
 20
632.2426406871193194
 40
0.0
 41
0.0
 42
0.0
 10
23.6665786018823852
 20
632.9888176738152197
 40
0.0
 41
0.0
 42
0.0
 10
24.7038994058094588
 20
633.5432771950677306
 40
0.0
 41
0.0
 42
0.0
 10
25.8294580679032286
 20
633.884711682419379
 40
0.0
 41
0.0
 42
0.0
 10
27.0
 20
634.0
 40
0.0
 41
0.0
 42
0.0
  0
TEXT
  5
23
330
F
100
AcDbEntity
  8
0
  6
ByLayer
420
16777215
 48
1.0
 60
0
370
-1
100
AcDbText
 39
0.0
 10
37.0
 20
613.25
 30
0.0
 40
13.0
  1
Accept
 50
0.0
 41
1.0
 51
0.0
  7
Standard
 71
0
 72
0
 11
0.0
 21
0.0
 31
0.0
210
0.0
220
0.0
230
1.0
100
AcDbText
 73
0
  0
LWPOLYLINE
  5
24
330
F
100
AcDbEntity
  8
0
  6
ByLayer
420
2001125
 48
1.0
 60
0
370
-1
100
AcDbPolyline
 90
41
 70
1
 43
0.0
 38
0.0
 39
0.0
210
0.0
220
0.0
230
1.0
 10
112.0
 20
634.0
 40
0.0
 41
0.0
 42
0.0
 10
179.0
 20
634.0
 40
0.0
 41
0.0
 42
0.0
 10
179.0
 20
634.0
 40
0.0
 41
0.0
 42
0.0
 10
180.1705419320967678
 20
633.884711682419379
 40
0.0
 41
0.0
 42
0.0
 10
181.2961005941905341
 20
633.5432771950677306
 40
0.0
 41
0.0
 42
0.0
 10
182.3334213981176219
 20
632.9888176738152197
 40
0.0
 41
0.0
 42
0.0
 10
183.242640687119291
 20
632.2426406871193194
 40
0.0
 41
0.0
 42
0.0
 10
183.9888176738152765
 20
631.3334213981175935
 40
0.0
 41
0.0
 42
0.0
 10
184.5432771950677306
 20
630.2961005941905341
 40
0.0
 41
0.0
 42
0.0
 10
184.884711682419379
 20
629.1705419320967394
 40
0.0
 41
0.0
 42
0.0
 10
185.0
 20
628.0
 40
0.0
 41
0.0
 42
0.0
 10
185.0
 20
605.0
 40
0.0
 41
0.0
 42
0.0
 10
185.0
 20
605.0
 40
0.0
 41
0.0
 42
0.0
 10
184.884711682419379
 20
603.8294580679032606
 40
0.0
 41
0.0
 42
0.0
 10
184.5432771950677306
 20
602.7038994058094659
 40
0.0
 41
0.0
 42
0.0
 10
183.9888176738152765
 20
601.6665786018824065
 40
0.0
 41
0.0
 42
0.0
 10
183.242640687119291
 20
600.7573593128806806
 40
0.0
 41
0.0
 42
0.0
 10
182.3334213981176219
 20
600.0111823261847803
 40
0.0
 41
0.0
 42
0.0
 10
181.2961005941905341
 20
599.4567228049322694
 40
0.0
 41
0.0
 42
0.0
 10
180.1705419320967678
 20
599.115288317580621
 40
0.0
 41
0.0
 42
0.0
 10
179.0
 20
599.0
 40
0.0
 41
0.0
 42
0.0
 10
112.0
 20
599.0
 40
0.0
 41
0.0
 42
0.0
 10
112.0
 20
599.0
 40
0.0
 41
0.0
 42
0.0
 10
110.8294580679032322
 20
599.115288317580621
 40
0.0
 41
0.0
 42
0.0
 10
109.7038994058094659
 20
599.4567228049322694
 40
0.0
 41
0.0
 42
0.0
 10
108.6665786018823923
 20
600.0111823261847803
 40
0.0
 41
0.0
 42
0.0
 10
107.757359312880709
 20
600.7573593128806806
 40
0.0
 41
0.0
 42
0.0
 10
107.0111823261847235
 20
601.6665786018824065
 40
0.0
 41
0.0
 42
0.0
 10
106.4567228049322836
 20
602.7038994058094659
 40
0.0
 41
0.0
 42
0.0
 10
106.115288317580621
 20
603.8294580679032606
 40
0.0
 41
0.0
 42
0.0
 10
106.0
 20
605.0
 40
0.0
 41
0.0
 42
0.0
 10
106.0
 20
628.0
 40
0.0
 41
0.0
 42
0.0
 10
106.0
 20
628.0
 40
0.0
 41
0.0
 42
0.0
 10
106.115288317580621
 20
629.1705419320967394
 40
0.0
 41
0.0
 42
0.0
 10
106.4567228049322836
 20
630.2961005941905341
 40
0.0
 41
0.0
 42
0.0
 10
107.0111823261847235
 20
631.3334213981175935
 40
0.0
 41
0.0
 42
0.0
 10
107.757359312880709
 20
632.2426406871193194
 40
0.0
 41
0.0
 42
0.0
 10
108.6665786018823923
 20
632.9888176738152197
 40
0.0
 41
0.0
 42
0.0
 10
109.7038994058094517
 20
633.5432771950677306
 40
0.0
 41
0.0
 42
0.0
 10
110.8294580679032322
 20
633.884711682419379
 40
0.0
 41
0.0
 42
0.0
 10
112.0
 20
634.0
 40
0.0
 41
0.0
 42
0.0
  0
TEXT
  5
25
330
F
100
AcDbEntity
  8
0
  6
ByLayer
420
2001125
 48
1.0
 60
0
370
-1
100
AcDbText
 39
0.0
 10
124.0
 20
613.25
 30
0.0
 40
13.0
  1
Cancel
 50
0.0
 41
1.0
 51
0.0
  7
Standard
 71
0
 72
0
 11
0.0
 21
0.0
 31
0.0
210
0.0
220
0.0
230
1.0
100
AcDbText
 73
0
  0
HATCH
  5
26
330
F
100
AcDbEntity
  8
0
  6
ByLayer
420
16777215
 48
1.0
 60
0
370
-1
100
AcDbHatch
 30
0.0
210
0.0
220
0.0
230
1.0
  2
SOLID
 70
1
 71
0
 91
1
 92
2
 72
0
 73
1
 93
41
 10
10.0
 20
566.0
 10
179.0
 20
566.0
 10
179.0
 20
566.0
 10
180.9509032201612797
 20
565.8078528040323363
 10
182.8268343236508997
 20
565.2387953251128465
 10
184.5557023301960271
 20
564.3146961230254419
 10
186.0710678118654755
 20
563.0710678118655323
 10
187.3146961230254419
 20
561.5557023301960271
 10
188.2387953251128749
 20
559.8268343236509281
 10
188.8078528040323079
 20
557.9509032201613081
 10
189.0
 20
556.0
 10
189.0
 20
484.0
 10
189.0
 20
484.0
 10
188.8078528040323079
 20
482.0490967798386919
 10
188.2387953251128749
 20
480.1731656763491287
 10
187.3146961230254419
 20
478.4442976698039729
 10
186.0710678118654755
 20
476.9289321881345245
 10
184.5557023301960271
 20
475.6853038769745581
 10
182.8268343236508997
 20
474.7612046748871535
 10
180.9509032201612797
 20
474.1921471959677206
 10
179.0
 20
474.0
 10
10.0
 20
474.0
 10
10.0
 20
474.0
 10
8.0490967798387185
 20
474.1921471959677206
 10
6.173165676349103
 20
474.7612046748871535
 10
4.44429766980398
 20
475.6853038769745581
 10
2.9289321881345254
 20
476.9289321881345245
 10
1.6853038769745474
 20
478.4442976698039729
 10
0.7612046748871322
 20
480.1731656763491287
 10
0.1921471959676957
 20
482.0490967798386919
 10
0.0
 20
484.0
 10
0.0
 20
556.0
 10
0.0
 20
556.0
 10
0.1921471959676957
 20
557.9509032201613081
 10
0.7612046748871322
 20
559.8268343236509281
 10
1.6853038769745456
 20
561.5557023301960271
 10
2.9289321881345227
 20
563.0710678118655323
 10
4.4442976698039782
 20
564.3146961230254419
 10
6.1731656763490967
 20
565.2387953251128465
 10
8.0490967798387132
 20
565.8078528040323363
 10
9.9999999999999982
 20
566.0
 97
0
 75
0
 76
1
 47
0.0
 98
0
  0
LWPOLYLINE
  5
27
330
F
100
AcDbEntity
  8
0
  6
ByLayer
420
14737632
 48
1.0
 60
0
370
-1
100
AcDbPolyline
 90
41
 70
1
 43
0.0
 38
0.0
 39
0.0
210
0.0
220
0.0
230
1.0
 10
10.0
 20
566.0
 40
0.0
 41
0.0
 42
0.0
 10
179.0
 20
566.0
 40
0.0
 41
0.0
 42
0.0
 10
179.0
 20
566.0
 40
0.0
 41
0.0
 42
0.0
 10
180.9509032201612797
 20
565.8078528040323363
 40
0.0
 41
0.0
 42
0.0
 10
182.8268343236508997
 20
565.2387953251128465
 40
0.0
 41
0.0
 42
0.0
 10
184.5557023301960271
 20
564.3146961230254419
 40
0.0
 41
0.0
 42
0.0
 10
186.0710678118654755
 20
563.0710678118655323
 40
0.0
 41
0.0
 42
0.0
 10
187.3146961230254419
 20
561.5557023301960271
 40
0.0
 41
0.0
 42
0.0
 10
188.2387953251128749
 20
559.8268343236509281
 40
0.0
 41
0.0
 42
0.0
 10
188.8078528040323079
 20
557.9509032201613081
 40
0.0
 41
0.0
 42
0.0
 10
189.0
 20
556.0
 40
0.0
 41
0.0
 42
0.0
 10
189.0
 20
484.0
 40
0.0
 41
0.0
 42
0.0
 10
189.0
 20
484.0
 40
0.0
 41
0.0
 42
0.0
 10
188.8078528040323079
 20
482.0490967798386919
 40
0.0
 41
0.0
 42
0.0
 10
188.2387953251128749
 20
480.1731656763491287
 40
0.0
 41
0.0
 42
0.0
 10
187.3146961230254419
 20
478.4442976698039729
 40
0.0
 41
0.0
 42
0.0
 10
186.0710678118654755
 20
476.9289321881345245
 40
0.0
 41
0.0
 42
0.0
 10
184.5557023301960271
 20
475.6853038769745581
 40
0.0
 41
0.0
 42
0.0
 10
182.8268343236508997
 20
474.7612046748871535
 40
0.0
 41
0.0
 42
0.0
 10
180.9509032201612797
 20
474.1921471959677206
 40
0.0
 41
0.0
 42
0.0
 10
179.0
 20
474.0
 40
0.0
 41
0.0
 42
0.0
 10
10.0
 20
474.0
 40
0.0
 41
0.0
 42
0.0
 10
10.0
 20
474.0
 40
0.0
 41
0.0
 42
0.0
 10
8.0490967798387185
 20
474.1921471959677206
 40
0.0
 41
0.0
 42
0.0
 10
6.173165676349103
 20
474.7612046748871535
 40
0.0
 41
0.0
 42
0.0
 10
4.44429766980398
 20
475.6853038769745581
 40
0.0
 41
0.0
 42
0.0
 10
2.9289321881345254
 20
476.9289321881345245
 40
0.0
 41
0.0
 42
0.0
 10
1.6853038769745474
 20
478.4442976698039729
 40
0.0
 41
0.0
 42
0.0
 10
0.7612046748871322
 20
480.1731656763491287
 40
0.0
 41
0.0
 42
0.0
 10
0.1921471959676957
 20
482.0490967798386919
 40
0.0
 41
0.0
 42
0.0
 10
0.0
 20
484.0
 40
0.0
 41
0.0
 42
0.0
 10
0.0
 20
556.0
 40
0.0
 41
0.0
 42
0.0
 10
0.0
 20
556.0
 40
0.0
 41
0.0
 42
0.0
 10
0.1921471959676957
 20
557.9509032201613081
 40
0.0
 41
0.0
 42
0.0
 10
0.7612046748871322
 20
559.8268343236509281
 40
0.0
 41
0.0
 42
0.0
 10
1.6853038769745456
 20
561.5557023301960271
 40
0.0
 41
0.0
 42
0.0
 10
2.9289321881345227
 20
563.0710678118655323
 40
0.0
 41
0.0
 42
0.0
 10
4.4442976698039782
 20
564.3146961230254419
 40
0.0
 41
0.0
 42
0.0
 10
6.1731656763490967
 20
565.2387953251128465
 40
0.0
 41
0.0
 42
0.0
 10
8.0490967798387132
 20
565.8078528040323363
 40
0.0
 41
0.0
 42
0.0
 10
9.9999999999999982
 20
566.0
 40
0.0
 41
0.0
 42
0.0
  0
TEXT
  5
28
330
F
100
AcDbEntity
  8
0
  6
ByLayer
420
1713022
 48
1.0
 60
0
370
-1
100
AcDbText
 39
0.0
 10
53.0
 20
522.0
 30
0.0
 40
28.0
  1
1,284
 50
0.0
 41
1.0
 51
0.0
  7
Standard
 71
0
 72
0
 11
0.0
 21
0.0
 31
0.0
210
0.0
220
0.0
230
1.0
100
AcDbText
 73
0
  0
TEXT
  5
29
330
F
100
AcDbEntity
  8
0
  6
ByLayer
420
8947848
 48
1.0
 60
0
370
-1
100
AcDbText
 39
0.0
 10
71.0
 20
495.0
 30
0.0
 40
12.0
  1
USERS
 50
0.0
 41
1.0
 51
0.0
  7
Standard
 71
0
 72
0
 11
0.0
 21
0.0
 31
0.0
210
0.0
220
0.0
230
1.0
100
AcDbText
 73
0
  0
HATCH
  5
2A
330
F
100
AcDbEntity
  8
0
  6
ByLayer
420
16777215
 48
1.0
 60
0
370
-1
100
AcDbHatch
 30
0.0
210
0.0
220
0.0
230
1.0
  2
SOLID
 70
1
 71
0
 91
1
 92
2
 72
0
 73
1
 93
41
 10
215.0
 20
566.0
 10
384.0
 20
566.0
 10
384.0
 20
566.0
 10
385.9509032201613081
 20
565.8078528040323363
 10
387.8268343236508713
 20
565.2387953251128465
 10
389.5557023301960271
 20
564.3146961230254419
 10
391.0710678118654755
 20
563.0710678118655323
 10
392.3146961230254419
 20
561.5557023301960271
 10
393.2387953251128465
 20
559.8268343236509281
 10
393.8078528040322794
 20
557.9509032201613081
 10
394.0
 20
556.0
 10
394.0
 20
484.0
 10
394.0
 20
484.0
 10
393.8078528040322794
 20
482.0490967798386919
 10
393.2387953251128465
 20
480.1731656763491287
 10
392.3146961230254419
 20
478.4442976698039729
 10
391.0710678118654755
 20
476.9289321881345245
 10
389.5557023301960271
 20
475.6853038769745581
 10
387.8268343236508713
 20
474.7612046748871535
 10
385.9509032201613081
 20
474.1921471959677206
 10
384.0
 20
474.0
 10
215.0
 20
474.0
 10
215.0
 20
474.0
 10
213.0490967798387203
 20
474.1921471959677206
 10
211.1731656763491003
 20
474.7612046748871535
 10
209.4442976698039729
 20
475.6853038769745581
 10
207.9289321881345245
 20
476.9289321881345245
 10
206.6853038769745581
 20
478.4442976698039729
 10
205.7612046748871251
 20
480.1731656763491287
 10
205.1921471959676921
 20
482.0490967798386919
 10
205.0
 20
484.0
 10
205.0
 20
556.0
 10
205.0
 20
556.0
 10
205.1921471959676921
 20
557.9509032201613081
 10
205.7612046748871251
 20
559.8268343236509281
 10
206.6853038769745581
 20
561.5557023301960271
 10
207.9289321881345245
 20
563.0710678118655323
 10
209.4442976698039729
 20
564.3146961230254419
 10
211.1731656763491003
 20
565.2387953251128465
 10
213.0490967798387203
 20
565.8078528040323363
 10
215.0
 20
566.0
 97
0
 75
0
 76
1
 47
0.0
 98
0
  0
LWPOLYLINE
  5
2B
330
F
100
AcDbEntity
  8
0
  6
ByLayer
420
14737632
 48
1.0
 60
0
370
-1
100
AcDbPolyline
 90
41
 70
1
 43
0.0
 38
0.0
 39
0.0
210
0.0
220
0.0
230
1.0
 10
215.0
 20
566.0
 40
0.0
 41
0.0
 42
0.0
 10
384.0
 20
566.0
 40
0.0
 41
0.0
 42
0.0
 10
384.0
 20
566.0
 40
0.0
 41
0.0
 42
0.0
 10
385.9509032201613081
 20
565.8078528040323363
 40
0.0
 41
0.0
 42
0.0
 10
387.8268343236508713
 20
565.2387953251128465
 40
0.0
 41
0.0
 42
0.0
 10
389.5557023301960271
 20
564.3146961230254419
 40
0.0
 41
0.0
 42
0.0
 10
391.0710678118654755
 20
563.0710678118655323
 40
0.0
 41
0.0
 42
0.0
 10
392.3146961230254419
 20
561.5557023301960271
 40
0.0
 41
0.0
 42
0.0
 10
393.2387953251128465
 20
559.8268343236509281
 40
0.0
 41
0.0
 42
0.0
 10
393.8078528040322794
 20
557.9509032201613081
 40
0.0
 41
0.0
 42
0.0
 10
394.0
 20
556.0
 40
0.0
 41
0.0
 42
0.0
 10
394.0
 20
484.0
 40
0.0
 41
0.0
 42
0.0
 10
394.0
 20
484.0
 40
0.0
 41
0.0
 42
0.0
 10
393.8078528040322794
 20
482.0490967798386919
 40
0.0
 41
0.0
 42
0.0
 10
393.2387953251128465
 20
480.1731656763491287
 40
0.0
 41
0.0
 42
0.0
 10
392.3146961230254419
 20
478.4442976698039729
 40
0.0
 41
0.0
 42
0.0
 10
391.0710678118654755
 20
476.9289321881345245
 40
0.0
 41
0.0
 42
0.0
 10
389.5557023301960271
 20
475.6853038769745581
 40
0.0
 41
0.0
 42
0.0
 10
387.8268343236508713
 20
474.7612046748871535
 40
0.0
 41
0.0
 42
0.0
 10
385.9509032201613081
 20
474.1921471959677206
 40
0.0
 41
0.0
 42
0.0
 10
384.0
 20
474.0
 40
0.0
 41
0.0
 42
0.0
 10
215.0
 20
474.0
 40
0.0
 41
0.0
 42
0.0
 10
215.0
 20
474.0
 40
0.0
 41
0.0
 42
0.0
 10
213.0490967798387203
 20
474.1921471959677206
 40
0.0
 41
0.0
 42
0.0
 10
211.1731656763491003
 20
474.7612046748871535
 40
0.0
 41
0.0
 42
0.0
 10
209.4442976698039729
 20
475.6853038769745581
 40
0.0
 41
0.0
 42
0.0
 10
207.9289321881345245
 20
476.9289321881345245
 40
0.0
 41
0.0
 42
0.0
 10
206.6853038769745581
 20
478.4442976698039729
 40
0.0
 41
0.0
 42
0.0
 10
205.7612046748871251
 20
480.1731656763491287
 40
0.0
 41
0.0
 42
0.0
 10
205.1921471959676921
 20
482.0490967798386919
 40
0.0
 41
0.0
 42
0.0
 10
205.0
 20
484.0
 40
0.0
 41
0.0
 42
0.0
 10
205.0
 20
556.0
 40
0.0
 41
0.0
 42
0.0
 10
205.0
 20
556.0
 40
0.0
 41
0.0
 42
0.0
 10
205.1921471959676921
 20
557.9509032201613081
 40
0.0
 41
0.0
 42
0.0
 10
205.7612046748871251
 20
559.8268343236509281
 40
0.0
 41
0.0
 42
0.0
 10
206.6853038769745581
 20
561.5557023301960271
 40
0.0
 41
0.0
 42
0.0
 10
207.9289321881345245
 20
563.0710678118655323
 40
0.0
 41
0.0
 42
0.0
 10
209.4442976698039729
 20
564.3146961230254419
 40
0.0
 41
0.0
 42
0.0
 10
211.1731656763491003
 20
565.2387953251128465
 40
0.0
 41
0.0
 42
0.0
 10
213.0490967798387203
 20
565.8078528040323363
 40
0.0
 41
0.0
 42
0.0
 10
215.0
 20
566.0
 40
0.0
 41
0.0
 42
0.0
  0
TEXT
  5
2C
330
F
100
AcDbEntity
  8
0
  6
ByLayer
420
1713022
 48
1.0
 60
0
370
-1
100
AcDbText
 39
0.0
 10
263.0
 20
522.0
 30
0.0
 40
28.0
  1
$34k
 50
0.0
 41
1.0
 51
0.0
  7
Standard
 71
0
 72
0
 11
0.0
 21
0.0
 31
0.0
210
0.0
220
0.0
230
1.0
100
AcDbText
 73
0
  0
TEXT
  5
2D
330
F
100
AcDbEntity
  8
0
  6
ByLayer
420
8947848
 48
1.0
 60
0
370
-1
100
AcDbText
 39
0.0
 10
267.0
 20
495.0
 30
0.0
 40
12.0
  1
REVENUE
 50
0.0
 41
1.0
 51
0.0
  7
Standard
 71
0
 72
0
 11
0.0
 21
0.0
 31
0.0
210
0.0
220
0.0
230
1.0
100
AcDbText
 73
0
  0
HATCH
  5
2E
330
F
100
AcDbEntity
  8
0
  6
ByLayer
420
16777215
 48
1.0
 60
0
370
-1
100
AcDbHatch
 30
0.0
210
0.0
220
0.0
230
1.0
  2
SOLID
 70
1
 71
0
 91
1
 92
2
 72
0
 73
1
 93
41
 10
421.0
 20
566.0
 10
590.0
 20
566.0
 10
590.0
 20
566.0
 10
591.9509032201613081
 20
565.8078528040323363
 10
593.8268343236509281
 20
565.2387953251128465
 10
595.5557023301960271
 20
564.3146961230254419
 10
597.0710678118655323
 20
563.0710678118655323
 10
598.3146961230254419
 20
561.5557023301960271
 10
599.2387953251128465
 20
559.8268343236509281
 10
599.8078528040323363
 20
557.9509032201613081
 10
600.0
 20
556.0
 10
600.0
 20
484.0
 10
600.0
 20
484.0
 10
599.8078528040323363
 20
482.0490967798386919
 10
599.2387953251128465
 20
480.1731656763491287
 10
598.3146961230254419
 20
478.4442976698039729
 10
597.0710678118655323
 20
476.9289321881345245
 10
595.5557023301960271
 20
475.6853038769745581
 10
593.8268343236509281
 20
474.7612046748871535
 10
591.9509032201613081
 20
474.1921471959677206
 10
590.0
 20
474.0
 10
421.0
 20
474.0
 10
421.0
 20
474.0
 10
419.0490967798386919
 20
474.1921471959677206
 10
417.1731656763491287
 20
474.7612046748871535
 10
415.4442976698039729
 20
475.6853038769745581
 10
413.9289321881345245
 20
476.9289321881345245
 10
412.6853038769745581
 20
478.4442976698039729
 10
411.7612046748871535
 20
480.1731656763491287
 10
411.1921471959677206
 20
482.0490967798386919
 10
411.0
 20
484.0
 10
411.0
 20
556.0
 10
411.0
 20
556.0
 10
411.1921471959677206
 20
557.9509032201613081
 10
411.7612046748871535
 20
559.8268343236509281
 10
412.6853038769745581
 20
561.5557023301960271
 10
413.9289321881345245
 20
563.0710678118655323
 10
415.4442976698039729
 20
564.3146961230254419
 10
417.1731656763490719
 20
565.2387953251128465
 10
419.0490967798386919
 20
565.8078528040323363
 10
421.0
 20
566.0
 97
0
 75
0
 76
1
 47
0.0
 98
0
  0
LWPOLYLINE
  5
2F
330
F
100
AcDbEntity
  8
0
  6
ByLayer
420
14737632
 48
1.0
 60
0
370
-1
100
AcDbPolyline
 90
41
 70
1
 43
0.0
 38
0.0
 39
0.0
210
0.0
220
0.0
230
1.0
 10
421.0
 20
566.0
 40
0.0
 41
0.0
 42
0.0
 10
590.0
 20
566.0
 40
0.0
 41
0.0
 42
0.0
 10
590.0
 20
566.0
 40
0.0
 41
0.0
 42
0.0
 10
591.9509032201613081
 20
565.8078528040323363
 40
0.0
 41
0.0
 42
0.0
 10
593.8268343236509281
 20
565.2387953251128465
 40
0.0
 41
0.0
 42
0.0
 10
595.5557023301960271
 20
564.3146961230254419
 40
0.0
 41
0.0
 42
0.0
 10
597.0710678118655323
 20
563.0710678118655323
 40
0.0
 41
0.0
 42
0.0
 10
598.3146961230254419
 20
561.5557023301960271
 40
0.0
 41
0.0
 42
0.0
 10
599.2387953251128465
 20
559.8268343236509281
 40
0.0
 41
0.0
 42
0.0
 10
599.8078528040323363
 20
557.9509032201613081
 40
0.0
 41
0.0
 42
0.0
 10
600.0
 20
556.0
 40
0.0
 41
0.0
 42
0.0
 10
600.0
 20
484.0
 40
0.0
 41
0.0
 42
0.0
 10
600.0
 20
484.0
 40
0.0
 41
0.0
 42
0.0
 10
599.8078528040323363
 20
482.0490967798386919
 40
0.0
 41
0.0
 42
0.0
 10
599.2387953251128465
 20
480.1731656763491287
 40
0.0
 41
0.0
 42
0.0
 10
598.3146961230254419
 20
478.4442976698039729
 40
0.0
 41
0.0
 42
0.0
 10
597.0710678118655323
 20
476.9289321881345245
 40
0.0
 41
0.0
 42
0.0
 10
595.5557023301960271
 20
475.6853038769745581
 40
0.0
 41
0.0
 42
0.0
 10
593.8268343236509281
 20
474.7612046748871535
 40
0.0
 41
0.0
 42
0.0
 10
591.9509032201613081
 20
474.1921471959677206
 40
0.0
 41
0.0
 42
0.0
 10
590.0
 20
474.0
 40
0.0
 41
0.0
 42
0.0
 10
421.0
 20
474.0
 40
0.0
 41
0.0
 42
0.0
 10
421.0
 20
474.0
 40
0.0
 41
0.0
 42
0.0
 10
419.0490967798386919
 20
474.1921471959677206
 40
0.0
 41
0.0
 42
0.0
 10
417.1731656763491287
 20
474.7612046748871535
 40
0.0
 41
0.0
 42
0.0
 10
415.4442976698039729
 20
475.6853038769745581
 40
0.0
 41
0.0
 42
0.0
 10
413.9289321881345245
 20
476.9289321881345245
 40
0.0
 41
0.0
 42
0.0
 10
412.6853038769745581
 20
478.4442976698039729
 40
0.0
 41
0.0
 42
0.0
 10
411.7612046748871535
 20
480.1731656763491287
 40
0.0
 41
0.0
 42
0.0
 10
411.1921471959677206
 20
482.0490967798386919
 40
0.0
 41
0.0
 42
0.0
 10
411.0
 20
484.0
 40
0.0
 41
0.0
 42
0.0
 10
411.0
 20
556.0
 40
0.0
 41
0.0
 42
0.0
 10
411.0
 20
556.0
 40
0.0
 41
0.0
 42
0.0
 10
411.1921471959677206
 20
557.9509032201613081
 40
0.0
 41
0.0
 42
0.0
 10
411.7612046748871535
 20
559.8268343236509281
 40
0.0
 41
0.0
 42
0.0
 10
412.6853038769745581
 20
561.5557023301960271
 40
0.0
 41
0.0
 42
0.0
 10
413.9289321881345245
 20
563.0710678118655323
 40
0.0
 41
0.0
 42
0.0
 10
415.4442976698039729
 20
564.3146961230254419
 40
0.0
 41
0.0
 42
0.0
 10
417.1731656763490719
 20
565.2387953251128465
 40
0.0
 41
0.0
 42
0.0
 10
419.0490967798386919
 20
565.8078528040323363
 40
0.0
 41
0.0
 42
0.0
 10
421.0
 20
566.0
 40
0.0
 41
0.0
 42
0.0
  0
TEXT
  5
30
330
F
100
AcDbEntity
  8
0
  6
ByLayer
420
1713022
 48
1.0
 60
0
370
-1
100
AcDbText
 39
0.0
 10
459.0
 20
522.0
 30
0.0
 40
28.0
  1
98.6%
 50
0.0
 41
1.0
 51
0.0
  7
Standard
 71
0
 72
0
 11
0.0
 21
0.0
 31
0.0
210
0.0
220
0.0
230
1.0
100
AcDbText
 73
0
  0
TEXT
  5
31
330
F
100
AcDbEntity
  8
0
  6
ByLayer
420
8947848
 48
1.0
 60
0
370
-1
100
AcDbText
 39
0.0
 10
480.0
 20
495.0
 30
0.0
 40
12.0
  1
UPTIME
 50
0.0
 41
1.0
 51
0.0
  7
Standard
 71
0
 72
0
 11
0.0
 21
0.0
 31
0.0
210
0.0
220
0.0
230
1.0
100
AcDbText
 73
0
  0
HATCH
  5
32
330
F
100
AcDbEntity
  8
0
  6
ByLayer
420
16777215
 48
1.0
 60
0
370
-1
100
AcDbHatch
 30
0.0
210
0.0
220
0.0
230
1.0
  2
SOLID
 70
1
 71
0
 91
1
 92
2
 72
0
 73
1
 93
41
 10
8.0
 20
454.0
 10
1232.0
 20
454.0
 10
1232.0
 20
454.0
 10
1233.5607225761291375
 20
453.8462822432258577
 10
1235.061467458920788
 20
453.3910362600902886
 10
1236.4445618641568672
 20
452.6517568984203876
 10
1237.6568542494924259
 20
451.656854249492369
 10
1238.6517568984204445
 20
450.4445618641568103
 10
1239.3910362600902317
 20
449.0614674589207311
 10
1239.8462822432259145
 20
447.5607225761290238
 10
1240.0
 20
446.0
 10
1240.0
 20
304.0
 10
1240.0
 20
304.0
 10
1239.8462822432259145
 20
302.4392774238709762
 10
1239.3910362600902317
 20
300.9385325410792689
 10
1238.6517568984204445
 20
299.5554381358431328
 10
1237.6568542494924259
 20
298.3431457505075741
 10
1236.4445618641568672
 20
297.3482431015796692
 10
1235.061467458920788
 20
296.6089637399096546
 10
1233.5607225761291375
 20
296.1537177567741992
 10
1232.0
 20
296.0
 10
8.0
 20
296.0
 10
8.0
 20
296.0
 10
6.4392774238709745
 20
296.1537177567741992
 10
4.9385325410792822
 20
296.6089637399096546
 10
3.5554381358431844
 20
297.3482431015796692
 10
2.3431457505076203
 20
298.3431457505075741
 10
1.3482431015796372
 20
299.5554381358431328
 10
0.6089637399097061
 20
300.9385325410792689
 10
0.1537177567741566
 20
302.4392774238709762
 10
0.0
 20
304.0
 10
0.0
 20
446.0
 10
0.0
 20
446.0
 10
0.1537177567741566
 20
447.5607225761290238
 10
0.6089637399097052
 20
449.0614674589207311
 10
1.3482431015796363
 20
450.4445618641568103
 10
2.3431457505076185
 20
451.656854249492369
 10
3.5554381358431826
 20
452.6517568984203876
 10
4.9385325410792777
 20
453.3910362600902886
 10
6.4392774238709709
 20
453.8462822432258577
 10
7.9999999999999982
 20
454.0
 97
0
 75
0
 76
1
 47
0.0
 98
0
  0
LWPOLYLINE
  5
33
330
F
100
AcDbEntity
  8
0
  6
ByLayer
420
14737632
 48
1.0
 60
0
370
-1
100
AcDbPolyline
 90
41
 70
1
 43
0.0
 38
0.0
 39
0.0
210
0.0
220
0.0
230
1.0
 10
8.0
 20
454.0
 40
0.0
 41
0.0
 42
0.0
 10
1232.0
 20
454.0
 40
0.0
 41
0.0
 42
0.0
 10
1232.0
 20
454.0
 40
0.0
 41
0.0
 42
0.0
 10
1233.5607225761291375
 20
453.8462822432258577
 40
0.0
 41
0.0
 42
0.0
 10
1235.061467458920788
 20
453.3910362600902886
 40
0.0
 41
0.0
 42
0.0
 10
1236.4445618641568672
 20
452.6517568984203876
 40
0.0
 41
0.0
 42
0.0
 10
1237.6568542494924259
 20
451.656854249492369
 40
0.0
 41
0.0
 42
0.0
 10
1238.6517568984204445
 20
450.4445618641568103
 40
0.0
 41
0.0
 42
0.0
 10
1239.3910362600902317
 20
449.0614674589207311
 40
0.0
 41
0.0
 42
0.0
 10
1239.8462822432259145
 20
447.5607225761290238
 40
0.0
 41
0.0
 42
0.0
 10
1240.0
 20
446.0
 40
0.0
 41
0.0
 42
0.0
 10
1240.0
 20
304.0
 40
0.0
 41
0.0
 42
0.0
 10
1240.0
 20
304.0
 40
0.0
 41
0.0
 42
0.0
 10
1239.8462822432259145
 20
302.4392774238709762
 40
0.0
 41
0.0
 42
0.0
 10
1239.3910362600902317
 20
300.9385325410792689
 40
0.0
 41
0.0
 42
0.0
 10
1238.6517568984204445
 20
299.5554381358431328
 40
0.0
 41
0.0
 42
0.0
 10
1237.6568542494924259
 20
298.3431457505075741
 40
0.0
 41
0.0
 42
0.0
 10
1236.4445618641568672
 20
297.3482431015796692
 40
0.0
 41
0.0
 42
0.0
 10
1235.061467458920788
 20
296.6089637399096546
 40
0.0
 41
0.0
 42
0.0
 10
1233.5607225761291375
 20
296.1537177567741992
 40
0.0
 41
0.0
 42
0.0
 10
1232.0
 20
296.0
 40
0.0
 41
0.0
 42
0.0
 10
8.0
 20
296.0
 40
0.0
 41
0.0
 42
0.0
 10
8.0
 20
296.0
 40
0.0
 41
0.0
 42
0.0
 10
6.4392774238709745
 20
296.1537177567741992
 40
0.0
 41
0.0
 42
0.0
 10
4.9385325410792822
 20
296.6089637399096546
 40
0.0
 41
0.0
 42
0.0
 10
3.5554381358431844
 20
297.3482431015796692
 40
0.0
 41
0.0
 42
0.0
 10
2.3431457505076203
 20
298.3431457505075741
 40
0.0
 41
0.0
 42
0.0
 10
1.3482431015796372
 20
299.5554381358431328
 40
0.0
 41
0.0
 42
0.0
 10
0.6089637399097061
 20
300.9385325410792689
 40
0.0
 41
0.0
 42
0.0
 10
0.1537177567741566
 20
302.4392774238709762
 40
0.0
 41
0.0
 42
0.0
 10
0.0
 20
304.0
 40
0.0
 41
0.0
 42
0.0
 10
0.0
 20
446.0
 40
0.0
 41
0.0
 42
0.0
 10
0.0
 20
446.0
 40
0.0
 41
0.0
 42
0.0
 10
0.1537177567741566
 20
447.5607225761290238
 40
0.0
 41
0.0
 42
0.0
 10
0.6089637399097052
 20
449.0614674589207311
 40
0.0
 41
0.0
 42
0.0
 10
1.3482431015796363
 20
450.4445618641568103
 40
0.0
 41
0.0
 42
0.0
 10
2.3431457505076185
 20
451.656854249492369
 40
0.0
 41
0.0
 42
0.0
 10
3.5554381358431826
 20
452.6517568984203876
 40
0.0
 41
0.0
 42
0.0
 10
4.9385325410792777
 20
453.3910362600902886
 40
0.0
 41
0.0
 42
0.0
 10
6.4392774238709709
 20
453.8462822432258577
 40
0.0
 41
0.0
 42
0.0
 10
7.9999999999999982
 20
454.0
 40
0.0
 41
0.0
 42
0.0
  0
HATCH
  5
34
330
F
100
AcDbEntity
  8
0
  6
ByLayer
420
4367861
 48
1.0
 60
0
370
-1
100
AcDbHatch
 30
0.0
210
0.0
220
0.0
230
1.0
  2
SOLID
 70
1
 71
0
 91
1
 92
2
 72
0
 73
1
 93
41
 10
31.0
 20
356.0
 10
55.0
 20
356.0
 10
55.0
 20
356.0
 10
55.5852709660483839
 20
355.9423558412096895
 10
56.1480502970952671
 20
355.7716385975338653
 10
56.6667106990588039
 20
355.4944088369076098
 10
57.1213203435596455
 20
355.1213203435596597
 10
57.4944088369076383
 20
354.6667106990587968
 10
57.7716385975338582
 20
354.1480502970952671
 10
57.9423558412096895
 20
353.5852709660483697
 10
58.0
 20
353.0
 10
58.0
 20
319.0
 10
58.0
 20
319.0
 10
57.9423558412096895
 20
318.4147290339516303
 10
57.7716385975338582
 20
317.8519497029047329
 10
57.4944088369076383
 20
317.3332893009412032
 10
57.1213203435596455
 20
316.8786796564403403
 10
56.6667106990588039
 20
316.5055911630923902
 10
56.1480502970952671
 20
316.2283614024661347
 10
55.5852709660483839
 20
316.0576441587903105
 10
55.0
 20
316.0
 10
31.0
 20
316.0
 10
31.0
 20
316.0
 10
30.4147290339516161
 20
316.0576441587903105
 10
29.8519497029047294
 20
316.2283614024661347
 10
29.3332893009411926
 20
316.5055911630923902
 10
28.8786796564403581
 20
316.8786796564403403
 10
28.5055911630923653
 20
317.3332893009412032
 10
28.2283614024661418
 20
317.8519497029047329
 10
28.0576441587903105
 20
318.4147290339516303
 10
28.0
 20
319.0
 10
28.0
 20
353.0
 10
28.0
 20
353.0
 10
28.0576441587903105
 20
353.5852709660483697
 10
28.2283614024661382
 20
354.1480502970952671
 10
28.5055911630923617
 20
354.6667106990587968
 10
28.8786796564403581
 20
355.1213203435596597
 10
29.3332893009411926
 20
355.4944088369076098
 10
29.8519497029047294
 20
355.7716385975338653
 10
30.4147290339516125
 20
355.9423558412096895
 10
31.0
 20
356.0
 97
0
 75
0
 76
1
 47
0.0
 98
0
  0
LWPOLYLINE
  5
35
330
F
100
AcDbEntity
  8
0
  6
ByLayer
420
4367861
 48
1.0
 60
0
370
-1
100
AcDbPolyline
 90
41
 70
1
 43
0.0
 38
0.0
 39
0.0
210
0.0
220
0.0
230
1.0
 10
31.0
 20
356.0
 40
0.0
 41
0.0
 42
0.0
 10
55.0
 20
356.0
 40
0.0
 41
0.0
 42
0.0
 10
55.0
 20
356.0
 40
0.0
 41
0.0
 42
0.0
 10
55.5852709660483839
 20
355.9423558412096895
 40
0.0
 41
0.0
 42
0.0
 10
56.1480502970952671
 20
355.7716385975338653
 40
0.0
 41
0.0
 42
0.0
 10
56.6667106990588039
 20
355.4944088369076098
 40
0.0
 41
0.0
 42
0.0
 10
57.1213203435596455
 20
355.1213203435596597
 40
0.0
 41
0.0
 42
0.0
 10
57.4944088369076383
 20
354.6667106990587968
 40
0.0
 41
0.0
 42
0.0
 10
57.7716385975338582
 20
354.1480502970952671
 40
0.0
 41
0.0
 42
0.0
 10
57.9423558412096895
 20
353.5852709660483697
 40
0.0
 41
0.0
 42
0.0
 10
58.0
 20
353.0
 40
0.0
 41
0.0
 42
0.0
 10
58.0
 20
319.0
 40
0.0
 41
0.0
 42
0.0
 10
58.0
 20
319.0
 40
0.0
 41
0.0
 42
0.0
 10
57.9423558412096895
 20
318.4147290339516303
 40
0.0
 41
0.0
 42
0.0
 10
57.7716385975338582
 20
317.8519497029047329
 40
0.0
 41
0.0
 42
0.0
 10
57.4944088369076383
 20
317.3332893009412032
 40
0.0
 41
0.0
 42
0.0
 10
57.1213203435596455
 20
316.8786796564403403
 40
0.0
 41
0.0
 42
0.0
 10
56.6667106990588039
 20
316.5055911630923902
 40
0.0
 41
0.0
 42
0.0
 10
56.1480502970952671
 20
316.2283614024661347
 40
0.0
 41
0.0
 42
0.0
 10
55.5852709660483839
 20
316.0576441587903105
 40
0.0
 41
0.0
 42
0.0
 10
55.0
 20
316.0
 40
0.0
 41
0.0
 42
0.0
 10
31.0
 20
316.0
 40
0.0
 41
0.0
 42
0.0
 10
31.0
 20
316.0
 40
0.0
 41
0.0
 42
0.0
 10
30.4147290339516161
 20
316.0576441587903105
 40
0.0
 41
0.0
 42
0.0
 10
29.8519497029047294
 20
316.2283614024661347
 40
0.0
 41
0.0
 42
0.0
 10
29.3332893009411926
 20
316.5055911630923902
 40
0.0
 41
0.0
 42
0.0
 10
28.8786796564403581
 20
316.8786796564403403
 40
0.0
 41
0.0
 42
0.0
 10
28.5055911630923653
 20
317.3332893009412032
 40
0.0
 41
0.0
 42
0.0
 10
28.2283614024661418
 20
317.8519497029047329
 40
0.0
 41
0.0
 42
0.0
 10
28.0576441587903105
 20
318.4147290339516303
 40
0.0
 41
0.0
 42
0.0
 10
28.0
 20
319.0
 40
0.0
 41
0.0
 42
0.0
 10
28.0
 20
353.0
 40
0.0
 41
0.0
 42
0.0
 10
28.0
 20
353.0
 40
0.0
 41
0.0
 42
0.0
 10
28.0576441587903105
 20
353.5852709660483697
 40
0.0
 41
0.0
 42
0.0
 10
28.2283614024661382
 20
354.1480502970952671
 40
0.0
 41
0.0
 42
0.0
 10
28.5055911630923617
 20
354.6667106990587968
 40
0.0
 41
0.0
 42
0.0
 10
28.8786796564403581
 20
355.1213203435596597
 40
0.0
 41
0.0
 42
0.0
 10
29.3332893009411926
 20
355.4944088369076098
 40
0.0
 41
0.0
 42
0.0
 10
29.8519497029047294
 20
355.7716385975338653
 40
0.0
 41
0.0
 42
0.0
 10
30.4147290339516125
 20
355.9423558412096895
 40
0.0
 41
0.0
 42
0.0
 10
31.0
 20
356.0
 40
0.0
 41
0.0
 42
0.0
  0
HATCH
  5
36
330
F
100
AcDbEntity
  8
0
  6
ByLayer
420
4367861
 48
1.0
 60
0
370
-1
100
AcDbHatch
 30
0.0
210
0.0
220
0.0
230
1.0
  2
SOLID
 70
1
 71
0
 91
1
 92
2
 72
0
 73
1
 93
41
 10
71.0
 20
386.0
 10
95.0
 20
386.0
 10
95.0
 20
386.0
 10
95.5852709660483839
 20
385.9423558412096895
 10
96.1480502970952671
 20
385.7716385975338653
 10
96.666710699058811
 20
385.4944088369076098
 10
97.1213203435596455
 20
385.1213203435596597
 10
97.4944088369076383
 20
384.6667106990587968
 10
97.7716385975338653
 20
384.1480502970952671
 10
97.9423558412096895
 20
383.5852709660483697
 10
98.0
 20
383.0
 10
98.0
 20
319.0
 10
98.0
 20
319.0
 10
97.9423558412096895
 20
318.4147290339516303
 10
97.7716385975338653
 20
317.8519497029047329
 10
97.4944088369076383
 20
317.3332893009412032
 10
97.1213203435596455
 20
316.8786796564403403
 10
96.666710699058811
 20
316.5055911630923902
 10
96.1480502970952671
 20
316.2283614024661347
 10
95.5852709660483839
 20
316.0576441587903105
 10
95.0
 20
316.0
 10
71.0
 20
316.0
 10
71.0
 20
316.0
 10
70.4147290339516161
 20
316.0576441587903105
 10
69.8519497029047329
 20
316.2283614024661347
 10
69.333289300941189
 20
316.5055911630923902
 10
68.8786796564403545
 20
316.8786796564403403
 10
68.5055911630923617
 20
317.3332893009412032
 10
68.2283614024661347
 20
317.8519497029047329
 10
68.0576441587903105
 20
318.4147290339516303
 10
68.0
 20
319.0
 10
68.0
 20
383.0
 10
68.0
 20
383.0
 10
68.0576441587903105
 20
383.5852709660483697
 10
68.2283614024661347
 20
384.1480502970952671
 10
68.5055911630923617
 20
384.6667106990587968
 10
68.8786796564403545
 20
385.1213203435596597
 10
69.333289300941189
 20
385.4944088369076098
 10
69.8519497029047329
 20
385.7716385975338653
 10
70.4147290339516161
 20
385.9423558412096895
 10
71.0
 20
386.0
 97
0
 75
0
 76
1
 47
0.0
 98
0
  0
LWPOLYLINE
  5
37
330
F
100
AcDbEntity
  8
0
  6
ByLayer
420
4367861
 48
1.0
 60
0
370
-1
100
AcDbPolyline
 90
41
 70
1
 43
0.0
 38
0.0
 39
0.0
210
0.0
220
0.0
230
1.0
 10
71.0
 20
386.0
 40
0.0
 41
0.0
 42
0.0
 10
95.0
 20
386.0
 40
0.0
 41
0.0
 42
0.0
 10
95.0
 20
386.0
 40
0.0
 41
0.0
 42
0.0
 10
95.5852709660483839
 20
385.9423558412096895
 40
0.0
 41
0.0
 42
0.0
 10
96.1480502970952671
 20
385.7716385975338653
 40
0.0
 41
0.0
 42
0.0
 10
96.666710699058811
 20
385.4944088369076098
 40
0.0
 41
0.0
 42
0.0
 10
97.1213203435596455
 20
385.1213203435596597
 40
0.0
 41
0.0
 42
0.0
 10
97.4944088369076383
 20
384.6667106990587968
 40
0.0
 41
0.0
 42
0.0
 10
97.7716385975338653
 20
384.1480502970952671
 40
0.0
 41
0.0
 42
0.0
 10
97.9423558412096895
 20
383.5852709660483697
 40
0.0
 41
0.0
 42
0.0
 10
98.0
 20
383.0
 40
0.0
 41
0.0
 42
0.0
 10
98.0
 20
319.0
 40
0.0
 41
0.0
 42
0.0
 10
98.0
 20
319.0
 40
0.0
 41
0.0
 42
0.0
 10
97.9423558412096895
 20
318.4147290339516303
 40
0.0
 41
0.0
 42
0.0
 10
97.7716385975338653
 20
317.8519497029047329
 40
0.0
 41
0.0
 42
0.0
 10
97.4944088369076383
 20
317.3332893009412032
 40
0.0
 41
0.0
 42
0.0
 10
97.1213203435596455
 20
316.8786796564403403
 40
0.0
 41
0.0
 42
0.0
 10
96.666710699058811
 20
316.5055911630923902
 40
0.0
 41
0.0
 42
0.0
 10
96.1480502970952671
 20
316.2283614024661347
 40
0.0
 41
0.0
 42
0.0
 10
95.5852709660483839
 20
316.0576441587903105
 40
0.0
 41
0.0
 42
0.0
 10
95.0
 20
316.0
 40
0.0
 41
0.0
 42
0.0
 10
71.0
 20
316.0
 40
0.0
 41
0.0
 42
0.0
 10
71.0
 20
316.0
 40
0.0
 41
0.0
 42
0.0
 10
70.4147290339516161
 20
316.0576441587903105
 40
0.0
 41
0.0
 42
0.0
 10
69.8519497029047329
 20
316.2283614024661347
 40
0.0
 41
0.0
 42
0.0
 10
69.333289300941189
 20
316.5055911630923902
 40
0.0
 41
0.0
 42
0.0
 10
68.8786796564403545
 20
316.8786796564403403
 40
0.0
 41
0.0
 42
0.0
 10
68.5055911630923617
 20
317.3332893009412032
 40
0.0
 41
0.0
 42
0.0
 10
68.2283614024661347
 20
317.8519497029047329
 40
0.0
 41
0.0
 42
0.0
 10
68.0576441587903105
 20
318.4147290339516303
 40
0.0
 41
0.0
 42
0.0
 10
68.0
 20
319.0
 40
0.0
 41
0.0
 42
0.0
 10
68.0
 20
383.0
 40
0.0
 41
0.0
 42
0.0
 10
68.0
 20
383.0
 40
0.0
 41
0.0
 42
0.0
 10
68.0576441587903105
 20
383.5852709660483697
 40
0.0
 41
0.0
 42
0.0
 10
68.2283614024661347
 20
384.1480502970952671
 40
0.0
 41
0.0
 42
0.0
 10
68.5055911630923617
 20
384.6667106990587968
 40
0.0
 41
0.0
 42
0.0
 10
68.8786796564403545
 20
385.1213203435596597
 40
0.0
 41
0.0
 42
0.0
 10
69.333289300941189
 20
385.4944088369076098
 40
0.0
 41
0.0
 42
0.0
 10
69.8519497029047329
 20
385.7716385975338653
 40
0.0
 41
0.0
 42
0.0
 10
70.4147290339516161
 20
385.9423558412096895
 40
0.0
 41
0.0
 42
0.0
 10
71.0
 20
386.0
 40
0.0
 41
0.0
 42
0.0
  0
HATCH
  5
38
330
F
100
AcDbEntity
  8
0
  6
ByLayer
420
4367861
 48
1.0
 60
0
370
-1
100
AcDbHatch
 30
0.0
210
0.0
220
0.0
230
1.0
  2
SOLID
 70
1
 71
0
 91
1
 92
2
 72
0
 73
1
 93
41
 10
111.0
 20
406.0
 10
135.0
 20
406.0
 10
135.0
 20
406.0
 10
135.5852709660483981
 20
405.9423558412096895
 10
136.1480502970952671
 20
405.7716385975338653
 10
136.6667106990587968
 20
405.4944088369076098
 10
137.1213203435596313
 20
405.1213203435596597
 10
137.4944088369076383
 20
404.6667106990587968
 10
137.7716385975338653
 20
404.1480502970952671
 10
137.9423558412096895
 20
403.5852709660483697
 10
138.0
 20
403.0
 10
138.0
 20
319.0
 10
138.0
 20
319.0
 10
137.9423558412096895
 20
318.4147290339516303
 10
137.7716385975338653
 20
317.8519497029047329
 10
137.4944088369076383
 20
317.3332893009412032
 10
137.1213203435596313
 20
316.8786796564403403
 10
136.6667106990587968
 20
316.5055911630923902
 10
136.1480502970952671
 20
316.2283614024661347
 10
135.5852709660483981
 20
316.0576441587903105
 10
135.0
 20
316.0
 10
111.0
 20
316.0
 10
111.0
 20
316.0
 10
110.4147290339516161
 20
316.0576441587903105
 10
109.8519497029047329
 20
316.2283614024661347
 10
109.333289300941189
 20
316.5055911630923902
 10
108.8786796564403545
 20
316.8786796564403403
 10
108.5055911630923617
 20
317.3332893009412032
 10
108.2283614024661347
 20
317.8519497029047329
 10
108.0576441587903105
 20
318.4147290339516303
 10
108.0
 20
319.0
 10
108.0
 20
403.0
 10
108.0
 20
403.0
 10
108.0576441587903105
 20
403.5852709660483697
 10
108.2283614024661347
 20
404.1480502970952671
 10
108.5055911630923617
 20
404.6667106990587968
 10
108.8786796564403545
 20
405.1213203435596597
 10
109.333289300941189
 20
405.4944088369076098
 10
109.8519497029047329
 20
405.7716385975338653
 10
110.4147290339516161
 20
405.9423558412096895
 10
111.0
 20
406.0
 97
0
 75
0
 76
1
 47
0.0
 98
0
  0
LWPOLYLINE
  5
39
330
F
100
AcDbEntity
  8
0
  6
ByLayer
420
4367861
 48
1.0
 60
0
370
-1
100
AcDbPolyline
 90
41
 70
1
 43
0.0
 38
0.0
 39
0.0
210
0.0
220
0.0
230
1.0
 10
111.0
 20
406.0
 40
0.0
 41
0.0
 42
0.0
 10
135.0
 20
406.0
 40
0.0
 41
0.0
 42
0.0
 10
135.0
 20
406.0
 40
0.0
 41
0.0
 42
0.0
 10
135.5852709660483981
 20
405.9423558412096895
 40
0.0
 41
0.0
 42
0.0
 10
136.1480502970952671
 20
405.7716385975338653
 40
0.0
 41
0.0
 42
0.0
 10
136.6667106990587968
 20
405.4944088369076098
 40
0.0
 41
0.0
 42
0.0
 10
137.1213203435596313
 20
405.1213203435596597
 40
0.0
 41
0.0
 42
0.0
 10
137.4944088369076383
 20
404.6667106990587968
 40
0.0
 41
0.0
 42
0.0
 10
137.7716385975338653
 20
404.1480502970952671
 40
0.0
 41
0.0
 42
0.0
 10
137.9423558412096895
 20
403.5852709660483697
 40
0.0
 41
0.0
 42
0.0
 10
138.0
 20
403.0
 40
0.0
 41
0.0
 42
0.0
 10
138.0
 20
319.0
 40
0.0
 41
0.0
 42
0.0
 10
138.0
 20
319.0
 40
0.0
 41
0.0
 42
0.0
 10
137.9423558412096895
 20
318.4147290339516303
 40
0.0
 41
0.0
 42
0.0
 10
137.7716385975338653
 20
317.8519497029047329
 40
0.0
 41
0.0
 42
0.0
 10
137.4944088369076383
 20
317.3332893009412032
 40
0.0
 41
0.0
 42
0.0
 10
137.1213203435596313
 20
316.8786796564403403
 40
0.0
 41
0.0
 42
0.0
 10
136.6667106990587968
 20
316.5055911630923902
 40
0.0
 41
0.0
 42
0.0
 10
136.1480502970952671
 20
316.2283614024661347
 40
0.0
 41
0.0
 42
0.0
 10
135.5852709660483981
 20
316.0576441587903105
 40
0.0
 41
0.0
 42
0.0
 10
135.0
 20
316.0
 40
0.0
 41
0.0
 42
0.0
 10
111.0
 20
316.0
 40
0.0
 41
0.0
 42
0.0
 10
111.0
 20
316.0
 40
0.0
 41
0.0
 42
0.0
 10
110.4147290339516161
 20
316.0576441587903105
 40
0.0
 41
0.0
 42
0.0
 10
109.8519497029047329
 20
316.2283614024661347
 40
0.0
 41
0.0
 42
0.0
 10
109.333289300941189
 20
316.5055911630923902
 40
0.0
 41
0.0
 42
0.0
 10
108.8786796564403545
 20
316.8786796564403403
 40
0.0
 41
0.0
 42
0.0
 10
108.5055911630923617
 20
317.3332893009412032
 40
0.0
 41
0.0
 42
0.0
 10
108.2283614024661347
 20
317.8519497029047329
 40
0.0
 41
0.0
 42
0.0
 10
108.0576441587903105
 20
318.4147290339516303
 40
0.0
 41
0.0
 42
0.0
 10
108.0
 20
319.0
 40
0.0
 41
0.0
 42
0.0
 10
108.0
 20
403.0
 40
0.0
 41
0.0
 42
0.0
 10
108.0
 20
403.0
 40
0.0
 41
0.0
 42
0.0
 10
108.0576441587903105
 20
403.5852709660483697
 40
0.0
 41
0.0
 42
0.0
 10
108.2283614024661347
 20
404.1480502970952671
 40
0.0
 41
0.0
 42
0.0
 10
108.5055911630923617
 20
404.6667106990587968
 40
0.0
 41
0.0
 42
0.0
 10
108.8786796564403545
 20
405.1213203435596597
 40
0.0
 41
0.0
 42
0.0
 10
109.333289300941189
 20
405.4944088369076098
 40
0.0
 41
0.0
 42
0.0
 10
109.8519497029047329
 20
405.7716385975338653
 40
0.0
 41
0.0
 42
0.0
 10
110.4147290339516161
 20
405.9423558412096895
 40
0.0
 41
0.0
 42
0.0
 10
111.0
 20
406.0
 40
0.0
 41
0.0
 42
0.0
  0
HATCH
  5
3A
330
F
100
AcDbEntity
  8
0
  6
ByLayer
420
4367861
 48
1.0
 60
0
370
-1
100
AcDbHatch
 30
0.0
210
0.0
220
0.0
230
1.0
  2
SOLID
 70
1
 71
0
 91
1
 92
2
 72
0
 73
1
 93
41
 10
151.0
 20
376.0
 10
175.0
 20
376.0
 10
175.0
 20
376.0
 10
175.5852709660483981
 20
375.9423558412096895
 10
176.1480502970952671
 20
375.7716385975338653
 10
176.6667106990587968
 20
375.4944088369076098
 10
177.1213203435596313
 20
375.1213203435596597
 10
177.4944088369076383
 20
374.6667106990587968
 10
177.7716385975338653
 20
374.1480502970952671
 10
177.9423558412096895
 20
373.5852709660483697
 10
178.0
 20
373.0
 10
178.0
 20
319.0
 10
178.0
 20
319.0
 10
177.9423558412096895
 20
318.4147290339516303
 10
177.7716385975338653
 20
317.8519497029047329
 10
177.4944088369076383
 20
317.3332893009412032
 10
177.1213203435596313
 20
316.8786796564403403
 10
176.6667106990587968
 20
316.5055911630923902
 10
176.1480502970952671
 20
316.2283614024661347
 10
175.5852709660483981
 20
316.0576441587903105
 10
175.0
 20
316.0
 10
151.0
 20
316.0
 10
151.0
 20
316.0
 10
150.4147290339516019
 20
316.0576441587903105
 10
149.8519497029047329
 20
316.2283614024661347
 10
149.3332893009412032
 20
316.5055911630923902
 10
148.8786796564403687
 20
316.8786796564403403
 10
148.5055911630923617
 20
317.3332893009412032
 10
148.2283614024661347
 20
317.8519497029047329
 10
148.0576441587903105
 20
318.4147290339516303
 10
148.0
 20
319.0
 10
148.0
 20
373.0
 10
148.0
 20
373.0
 10
148.0576441587903105
 20
373.5852709660483697
 10
148.2283614024661347
 20
374.1480502970952671
 10
148.5055911630923617
 20
374.6667106990587968
 10
148.8786796564403687
 20
375.1213203435596597
 10
149.3332893009412032
 20
375.4944088369076098
 10
149.8519497029047329
 20
375.7716385975338653
 10
150.4147290339516019
 20
375.9423558412096895
 10
151.0
 20
376.0
 97
0
 75
0
 76
1
 47
0.0
 98
0
  0
LWPOLYLINE
  5
3B
330
F
100
AcDbEntity
  8
0
  6
ByLayer
420
4367861
 48
1.0
 60
0
370
-1
100
AcDbPolyline
 90
41
 70
1
 43
0.0
 38
0.0
 39
0.0
210
0.0
220
0.0
230
1.0
 10
151.0
 20
376.0
 40
0.0
 41
0.0
 42
0.0
 10
175.0
 20
376.0
 40
0.0
 41
0.0
 42
0.0
 10
175.0
 20
376.0
 40
0.0
 41
0.0
 42
0.0
 10
175.5852709660483981
 20
375.9423558412096895
 40
0.0
 41
0.0
 42
0.0
 10
176.1480502970952671
 20
375.7716385975338653
 40
0.0
 41
0.0
 42
0.0
 10
176.6667106990587968
 20
375.4944088369076098
 40
0.0
 41
0.0
 42
0.0
 10
177.1213203435596313
 20
375.1213203435596597
 40
0.0
 41
0.0
 42
0.0
 10
177.4944088369076383
 20
374.6667106990587968
 40
0.0
 41
0.0
 42
0.0
 10
177.7716385975338653
 20
374.1480502970952671
 40
0.0
 41
0.0
 42
0.0
 10
177.9423558412096895
 20
373.5852709660483697
 40
0.0
 41
0.0
 42
0.0
 10
178.0
 20
373.0
 40
0.0
 41
0.0
 42
0.0
 10
178.0
 20
319.0
 40
0.0
 41
0.0
 42
0.0
 10
178.0
 20
319.0
 40
0.0
 41
0.0
 42
0.0
 10
177.9423558412096895
 20
318.4147290339516303
 40
0.0
 41
0.0
 42
0.0
 10
177.7716385975338653
 20
317.8519497029047329
 40
0.0
 41
0.0
 42
0.0
 10
177.4944088369076383
 20
317.3332893009412032
 40
0.0
 41
0.0
 42
0.0
 10
177.1213203435596313
 20
316.8786796564403403
 40
0.0
 41
0.0
 42
0.0
 10
176.6667106990587968
 20
316.5055911630923902
 40
0.0
 41
0.0
 42
0.0
 10
176.1480502970952671
 20
316.2283614024661347
 40
0.0
 41
0.0
 42
0.0
 10
175.5852709660483981
 20
316.0576441587903105
 40
0.0
 41
0.0
 42
0.0
 10
175.0
 20
316.0
 40
0.0
 41
0.0
 42
0.0
 10
151.0
 20
316.0
 40
0.0
 41
0.0
 42
0.0
 10
151.0
 20
316.0
 40
0.0
 41
0.0
 42
0.0
 10
150.4147290339516019
 20
316.0576441587903105
 40
0.0
 41
0.0
 42
0.0
 10
149.8519497029047329
 20
316.2283614024661347
 40
0.0
 41
0.0
 42
0.0
 10
149.3332893009412032
 20
316.5055911630923902
 40
0.0
 41
0.0
 42
0.0
 10
148.8786796564403687
 20
316.8786796564403403
 40
0.0
 41
0.0
 42
0.0
 10
148.5055911630923617
 20
317.3332893009412032
 40
0.0
 41
0.0
 42
0.0
 10
148.2283614024661347
 20
317.8519497029047329
 40
0.0
 41
0.0
 42
0.0
 10
148.0576441587903105
 20
318.4147290339516303
 40
0.0
 41
0.0
 42
0.0
 10
148.0
 20
319.0
 40
0.0
 41
0.0
 42
0.0
 10
148.0
 20
373.0
 40
0.0
 41
0.0
 42
0.0
 10
148.0
 20
373.0
 40
0.0
 41
0.0
 42
0.0
 10
148.0576441587903105
 20
373.5852709660483697
 40
0.0
 41
0.0
 42
0.0
 10
148.2283614024661347
 20
374.1480502970952671
 40
0.0
 41
0.0
 42
0.0
 10
148.5055911630923617
 20
374.6667106990587968
 40
0.0
 41
0.0
 42
0.0
 10
148.8786796564403687
 20
375.1213203435596597
 40
0.0
 41
0.0
 42
0.0
 10
149.3332893009412032
 20
375.4944088369076098
 40
0.0
 41
0.0
 42
0.0
 10
149.8519497029047329
 20
375.7716385975338653
 40
0.0
 41
0.0
 42
0.0
 10
150.4147290339516019
 20
375.9423558412096895
 40
0.0
 41
0.0
 42
0.0
 10
151.0
 20
376.0
 40
0.0
 41
0.0
 42
0.0
  0
HATCH
  5
3C
330
F
100
AcDbEntity
  8
0
  6
ByLayer
420
4367861
 48
1.0
 60
0
370
-1
100
AcDbHatch
 30
0.0
210
0.0
220
0.0
230
1.0
  2
SOLID
 70
1
 71
0
 91
1
 92
2
 72
0
 73
1
 93
41
 10
191.0
 20
416.0
 10
215.0
 20
416.0
 10
215.0
 20
416.0
 10
215.5852709660483981
 20
415.9423558412096895
 10
216.1480502970952671
 20
415.7716385975338653
 10
216.6667106990587968
 20
415.4944088369076098
 10
217.1213203435596313
 20
415.1213203435596597
 10
217.4944088369076383
 20
414.6667106990587968
 10
217.7716385975338653
 20
414.1480502970952671
 10
217.9423558412096895
 20
413.5852709660483697
 10
218.0
 20
413.0
 10
218.0
 20
319.0
 10
218.0
 20
319.0
 10
217.9423558412096895
 20
318.4147290339516303
 10
217.7716385975338653
 20
317.8519497029047329
 10
217.4944088369076383
 20
317.3332893009412032
 10
217.1213203435596313
 20
316.8786796564403403
 10
216.6667106990587968
 20
316.5055911630923902
 10
216.1480502970952671
 20
316.2283614024661347
 10
215.5852709660483981
 20
316.0576441587903105
 10
215.0
 20
316.0
 10
191.0
 20
316.0
 10
191.0
 20
316.0
 10
190.4147290339516019
 20
316.0576441587903105
 10
189.8519497029047329
 20
316.2283614024661347
 10
189.3332893009412032
 20
316.5055911630923902
 10
188.8786796564403687
 20
316.8786796564403403
 10
188.5055911630923617
 20
317.3332893009412032
 10
188.2283614024661347
 20
317.8519497029047329
 10
188.0576441587903105
 20
318.4147290339516303
 10
188.0
 20
319.0
 10
188.0
 20
413.0
 10
188.0
 20
413.0
 10
188.0576441587903105
 20
413.5852709660483697
 10
188.2283614024661347
 20
414.1480502970952671
 10
188.5055911630923617
 20
414.6667106990587968
 10
188.8786796564403687
 20
415.1213203435596597
 10
189.3332893009412032
 20
415.4944088369076098
 10
189.8519497029047329
 20
415.7716385975338653
 10
190.4147290339516019
 20
415.9423558412096895
 10
191.0
 20
416.0
 97
0
 75
0
 76
1
 47
0.0
 98
0
  0
LWPOLYLINE
  5
3D
330
F
100
AcDbEntity
  8
0
  6
ByLayer
420
4367861
 48
1.0
 60
0
370
-1
100
AcDbPolyline
 90
41
 70
1
 43
0.0
 38
0.0
 39
0.0
210
0.0
220
0.0
230
1.0
 10
191.0
 20
416.0
 40
0.0
 41
0.0
 42
0.0
 10
215.0
 20
416.0
 40
0.0
 41
0.0
 42
0.0
 10
215.0
 20
416.0
 40
0.0
 41
0.0
 42
0.0
 10
215.5852709660483981
 20
415.9423558412096895
 40
0.0
 41
0.0
 42
0.0
 10
216.1480502970952671
 20
415.7716385975338653
 40
0.0
 41
0.0
 42
0.0
 10
216.6667106990587968
 20
415.4944088369076098
 40
0.0
 41
0.0
 42
0.0
 10
217.1213203435596313
 20
415.1213203435596597
 40
0.0
 41
0.0
 42
0.0
 10
217.4944088369076383
 20
414.6667106990587968
 40
0.0
 41
0.0
 42
0.0
 10
217.7716385975338653
 20
414.1480502970952671
 40
0.0
 41
0.0
 42
0.0
 10
217.9423558412096895
 20
413.5852709660483697
 40
0.0
 41
0.0
 42
0.0
 10
218.0
 20
413.0
 40
0.0
 41
0.0
 42
0.0
 10
218.0
 20
319.0
 40
0.0
 41
0.0
 42
0.0
 10
218.0
 20
319.0
 40
0.0
 41
0.0
 42
0.0
 10
217.9423558412096895
 20
318.4147290339516303
 40
0.0
 41
0.0
 42
0.0
 10
217.7716385975338653
 20
317.8519497029047329
 40
0.0
 41
0.0
 42
0.0
 10
217.4944088369076383
 20
317.3332893009412032
 40
0.0
 41
0.0
 42
0.0
 10
217.1213203435596313
 20
316.8786796564403403
 40
0.0
 41
0.0
 42
0.0
 10
216.6667106990587968
 20
316.5055911630923902
 40
0.0
 41
0.0
 42
0.0
 10
216.1480502970952671
 20
316.2283614024661347
 40
0.0
 41
0.0
 42
0.0
 10
215.5852709660483981
 20
316.0576441587903105
 40
0.0
 41
0.0
 42
0.0
 10
215.0
 20
316.0
 40
0.0
 41
0.0
 42
0.0
 10
191.0
 20
316.0
 40
0.0
 41
0.0
 42
0.0
 10
191.0
 20
316.0
 40
0.0
 41
0.0
 42
0.0
 10
190.4147290339516019
 20
316.0576441587903105
 40
0.0
 41
0.0
 42
0.0
 10
189.8519497029047329
 20
316.2283614024661347
 40
0.0
 41
0.0
 42
0.0
 10
189.3332893009412032
 20
316.5055911630923902
 40
0.0
 41
0.0
 42
0.0
 10
188.8786796564403687
 20
316.8786796564403403
 40
0.0
 41
0.0
 42
0.0
 10
188.5055911630923617
 20
317.3332893009412032
 40
0.0
 41
0.0
 42
0.0
 10
188.2283614024661347
 20
317.8519497029047329
 40
0.0
 41
0.0
 42
0.0
 10
188.0576441587903105
 20
318.4147290339516303
 40
0.0
 41
0.0
 42
0.0
 10
188.0
 20
319.0
 40
0.0
 41
0.0
 42
0.0
 10
188.0
 20
413.0
 40
0.0
 41
0.0
 42
0.0
 10
188.0
 20
413.0
 40
0.0
 41
0.0
 42
0.0
 10
188.0576441587903105
 20
413.5852709660483697
 40
0.0
 41
0.0
 42
0.0
 10
188.2283614024661347
 20
414.1480502970952671
 40
0.0
 41
0.0
 42
0.0
 10
188.5055911630923617
 20
414.6667106990587968
 40
0.0
 41
0.0
 42
0.0
 10
188.8786796564403687
 20
415.1213203435596597
 40
0.0
 41
0.0
 42
0.0
 10
189.3332893009412032
 20
415.4944088369076098
 40
0.0
 41
0.0
 42
0.0
 10
189.8519497029047329
 20
415.7716385975338653
 40
0.0
 41
0.0
 42
0.0
 10
190.4147290339516019
 20
415.9423558412096895
 40
0.0
 41
0.0
 42
0.0
 10
191.0
 20
416.0
 40
0.0
 41
0.0
 42
0.0
  0
HATCH
  5
3E
330
F
100
AcDbEntity
  8
0
  6
ByLayer
420
4367861
 48
1.0
 60
0
370
-1
100
AcDbHatch
 30
0.0
210
0.0
220
0.0
230
1.0
  2
SOLID
 70
1
 71
0
 91
1
 92
2
 72
0
 73
1
 93
41
 10
231.0
 20
391.0
 10
255.0
 20
391.0
 10
255.0
 20
391.0
 10
255.5852709660483981
 20
390.9423558412096895
 10
256.1480502970952671
 20
390.7716385975338653
 10
256.6667106990587968
 20
390.4944088369076098
 10
257.1213203435596597
 20
390.1213203435596597
 10
257.4944088369076098
 20
389.6667106990587968
 10
257.7716385975338653
 20
389.1480502970952671
 10
257.9423558412096895
 20
388.5852709660483697
 10
258.0
 20
388.0
 10
258.0
 20
319.0
 10
258.0
 20
319.0
 10
257.9423558412096895
 20
318.4147290339516303
 10
257.7716385975338653
 20
317.8519497029047329
 10
257.4944088369076098
 20
317.3332893009412032
 10
257.1213203435596597
 20
316.8786796564403403
 10
256.6667106990587968
 20
316.5055911630923902
 10
256.1480502970952671
 20
316.2283614024661347
 10
255.5852709660483981
 20
316.0576441587903105
 10
255.0
 20
316.0
 10
231.0
 20
316.0
 10
231.0
 20
316.0
 10
230.4147290339516019
 20
316.0576441587903105
 10
229.8519497029047329
 20
316.2283614024661347
 10
229.3332893009412032
 20
316.5055911630923902
 10
228.8786796564403687
 20
316.8786796564403403
 10
228.5055911630923617
 20
317.3332893009412032
 10
228.2283614024661347
 20
317.8519497029047329
 10
228.0576441587903105
 20
318.4147290339516303
 10
228.0
 20
319.0
 10
228.0
 20
388.0
 10
228.0
 20
388.0
 10
228.0576441587903105
 20
388.5852709660483697
 10
228.2283614024661347
 20
389.1480502970952671
 10
228.5055911630923617
 20
389.6667106990587968
 10
228.8786796564403687
 20
390.1213203435596597
 10
229.3332893009412032
 20
390.4944088369076098
 10
229.8519497029047329
 20
390.7716385975338653
 10
230.4147290339516019
 20
390.9423558412096895
 10
231.0
 20
391.0
 97
0
 75
0
 76
1
 47
0.0
 98
0
  0
LWPOLYLINE
  5
3F
330
F
100
AcDbEntity
  8
0
  6
ByLayer
420
4367861
 48
1.0
 60
0
370
-1
100
AcDbPolyline
 90
41
 70
1
 43
0.0
 38
0.0
 39
0.0
210
0.0
220
0.0
230
1.0
 10
231.0
 20
391.0
 40
0.0
 41
0.0
 42
0.0
 10
255.0
 20
391.0
 40
0.0
 41
0.0
 42
0.0
 10
255.0
 20
391.0
 40
0.0
 41
0.0
 42
0.0
 10
255.5852709660483981
 20
390.9423558412096895
 40
0.0
 41
0.0
 42
0.0
 10
256.1480502970952671
 20
390.7716385975338653
 40
0.0
 41
0.0
 42
0.0
 10
256.6667106990587968
 20
390.4944088369076098
 40
0.0
 41
0.0
 42
0.0
 10
257.1213203435596597
 20
390.1213203435596597
 40
0.0
 41
0.0
 42
0.0
 10
257.4944088369076098
 20
389.6667106990587968
 40
0.0
 41
0.0
 42
0.0
 10
257.7716385975338653
 20
389.1480502970952671
 40
0.0
 41
0.0
 42
0.0
 10
257.9423558412096895
 20
388.5852709660483697
 40
0.0
 41
0.0
 42
0.0
 10
258.0
 20
388.0
 40
0.0
 41
0.0
 42
0.0
 10
258.0
 20
319.0
 40
0.0
 41
0.0
 42
0.0
 10
258.0
 20
319.0
 40
0.0
 41
0.0
 42
0.0
 10
257.9423558412096895
 20
318.4147290339516303
 40
0.0
 41
0.0
 42
0.0
 10
257.7716385975338653
 20
317.8519497029047329
 40
0.0
 41
0.0
 42
0.0
 10
257.4944088369076098
 20
317.3332893009412032
 40
0.0
 41
0.0
 42
0.0
 10
257.1213203435596597
 20
316.8786796564403403
 40
0.0
 41
0.0
 42
0.0
 10
256.6667106990587968
 20
316.5055911630923902
 40
0.0
 41
0.0
 42
0.0
 10
256.1480502970952671
 20
316.2283614024661347
 40
0.0
 41
0.0
 42
0.0
 10
255.5852709660483981
 20
316.0576441587903105
 40
0.0
 41
0.0
 42
0.0
 10
255.0
 20
316.0
 40
0.0
 41
0.0
 42
0.0
 10
231.0
 20
316.0
 40
0.0
 41
0.0
 42
0.0
 10
231.0
 20
316.0
 40
0.0
 41
0.0
 42
0.0
 10
230.4147290339516019
 20
316.0576441587903105
 40
0.0
 41
0.0
 42
0.0
 10
229.8519497029047329
 20
316.2283614024661347
 40
0.0
 41
0.0
 42
0.0
 10
229.3332893009412032
 20
316.5055911630923902
 40
0.0
 41
0.0
 42
0.0
 10
228.8786796564403687
 20
316.8786796564403403
 40
0.0
 41
0.0
 42
0.0
 10
228.5055911630923617
 20
317.3332893009412032
 40
0.0
 41
0.0
 42
0.0
 10
228.2283614024661347
 20
317.8519497029047329
 40
0.0
 41
0.0
 42
0.0
 10
228.0576441587903105
 20
318.4147290339516303
 40
0.0
 41
0.0
 42
0.0
 10
228.0
 20
319.0
 40
0.0
 41
0.0
 42
0.0
 10
228.0
 20
388.0
 40
0.0
 41
0.0
 42
0.0
 10
228.0
 20
388.0
 40
0.0
 41
0.0
 42
0.0
 10
228.0576441587903105
 20
388.5852709660483697
 40
0.0
 41
0.0
 42
0.0
 10
228.2283614024661347
 20
389.1480502970952671
 40
0.0
 41
0.0
 42
0.0
 10
228.5055911630923617
 20
389.6667106990587968
 40
0.0
 41
0.0
 42
0.0
 10
228.8786796564403687
 20
390.1213203435596597
 40
0.0
 41
0.0
 42
0.0
 10
229.3332893009412032
 20
390.4944088369076098
 40
0.0
 41
0.0
 42
0.0
 10
229.8519497029047329
 20
390.7716385975338653
 40
0.0
 41
0.0
 42
0.0
 10
230.4147290339516019
 20
390.9423558412096895
 40
0.0
 41
0.0
 42
0.0
 10
231.0
 20
391.0
 40
0.0
 41
0.0
 42
0.0
  0
HATCH
  5
40
330
F
100
AcDbEntity
  8
0
  6
ByLayer
420
4367861
 48
1.0
 60
0
370
-1
100
AcDbHatch
 30
0.0
210
0.0
220
0.0
230
1.0
  2
SOLID
 70
1
 71
0
 91
1
 92
2
 72
0
 73
1
 93
41
 10
271.0
 20
426.0
 10
295.0
 20
426.0
 10
295.0
 20
426.0
 10
295.5852709660483697
 20
425.9423558412096895
 10
296.1480502970952671
 20
425.7716385975338653
 10
296.6667106990587968
 20
425.4944088369076098
 10
297.1213203435596597
 20
425.1213203435596597
 10
297.4944088369076098
 20
424.6667106990587968
 10
297.7716385975338653
 20
424.1480502970952671
 10
297.9423558412096895
 20
423.5852709660483697
 10
298.0
 20
423.0
 10
298.0
 20
319.0
 10
298.0
 20
319.0
 10
297.9423558412096895
 20
318.4147290339516303
 10
297.7716385975338653
 20
317.8519497029047329
 10
297.4944088369076098
 20
317.3332893009412032
 10
297.1213203435596597
 20
316.8786796564403403
 10
296.6667106990587968
 20
316.5055911630923902
 10
296.1480502970952671
 20
316.2283614024661347
 10
295.5852709660483697
 20
316.0576441587903105
 10
295.0
 20
316.0
 10
271.0
 20
316.0
 10
271.0
 20
316.0
 10
270.4147290339516303
 20
316.0576441587903105
 10
269.8519497029047329
 20
316.2283614024661347
 10
269.3332893009412032
 20
316.5055911630923902
 10
268.8786796564403403
 20
316.8786796564403403
 10
268.5055911630923902
 20
317.3332893009412032
 10
268.2283614024661347
 20
317.8519497029047329
 10
268.0576441587903105
 20
318.4147290339516303
 10
268.0
 20
319.0
 10
268.0
 20
423.0
 10
268.0
 20
423.0
 10
268.0576441587903105
 20
423.5852709660483697
 10
268.2283614024661347
 20
424.1480502970952671
 10
268.5055911630923902
 20
424.6667106990587968
 10
268.8786796564403403
 20
425.1213203435596597
 10
269.3332893009412032
 20
425.4944088369076098
 10
269.8519497029047329
 20
425.7716385975338653
 10
270.4147290339516303
 20
425.9423558412096895
 10
271.0
 20
426.0
 97
0
 75
0
 76
1
 47
0.0
 98
0
  0
LWPOLYLINE
  5
41
330
F
100
AcDbEntity
  8
0
  6
ByLayer
420
4367861
 48
1.0
 60
0
370
-1
100
AcDbPolyline
 90
41
 70
1
 43
0.0
 38
0.0
 39
0.0
210
0.0
220
0.0
230
1.0
 10
271.0
 20
426.0
 40
0.0
 41
0.0
 42
0.0
 10
295.0
 20
426.0
 40
0.0
 41
0.0
 42
0.0
 10
295.0
 20
426.0
 40
0.0
 41
0.0
 42
0.0
 10
295.5852709660483697
 20
425.9423558412096895
 40
0.0
 41
0.0
 42
0.0
 10
296.1480502970952671
 20
425.7716385975338653
 40
0.0
 41
0.0
 42
0.0
 10
296.6667106990587968
 20
425.4944088369076098
 40
0.0
 41
0.0
 42
0.0
 10
297.1213203435596597
 20
425.1213203435596597
 40
0.0
 41
0.0
 42
0.0
 10
297.4944088369076098
 20
424.6667106990587968
 40
0.0
 41
0.0
 42
0.0
 10
297.7716385975338653
 20
424.1480502970952671
 40
0.0
 41
0.0
 42
0.0
 10
297.9423558412096895
 20
423.5852709660483697
 40
0.0
 41
0.0
 42
0.0
 10
298.0
 20
423.0
 40
0.0
 41
0.0
 42
0.0
 10
298.0
 20
319.0
 40
0.0
 41
0.0
 42
0.0
 10
298.0
 20
319.0
 40
0.0
 41
0.0
 42
0.0
 10
297.9423558412096895
 20
318.4147290339516303
 40
0.0
 41
0.0
 42
0.0
 10
297.7716385975338653
 20
317.8519497029047329
 40
0.0
 41
0.0
 42
0.0
 10
297.4944088369076098
 20
317.3332893009412032
 40
0.0
 41
0.0
 42
0.0
 10
297.1213203435596597
 20
316.8786796564403403
 40
0.0
 41
0.0
 42
0.0
 10
296.6667106990587968
 20
316.5055911630923902
 40
0.0
 41
0.0
 42
0.0
 10
296.1480502970952671
 20
316.2283614024661347
 40
0.0
 41
0.0
 42
0.0
 10
295.5852709660483697
 20
316.0576441587903105
 40
0.0
 41
0.0
 42
0.0
 10
295.0
 20
316.0
 40
0.0
 41
0.0
 42
0.0
 10
271.0
 20
316.0
 40
0.0
 41
0.0
 42
0.0
 10
271.0
 20
316.0
 40
0.0
 41
0.0
 42
0.0
 10
270.4147290339516303
 20
316.0576441587903105
 40
0.0
 41
0.0
 42
0.0
 10
269.8519497029047329
 20
316.2283614024661347
 40
0.0
 41
0.0
 42
0.0
 10
269.3332893009412032
 20
316.5055911630923902
 40
0.0
 41
0.0
 42
0.0
 10
268.8786796564403403
 20
316.8786796564403403
 40
0.0
 41
0.0
 42
0.0
 10
268.5055911630923902
 20
317.3332893009412032
 40
0.0
 41
0.0
 42
0.0
 10
268.2283614024661347
 20
317.8519497029047329
 40
0.0
 41
0.0
 42
0.0
 10
268.0576441587903105
 20
318.4147290339516303
 40
0.0
 41
0.0
 42
0.0
 10
268.0
 20
319.0
 40
0.0
 41
0.0
 42
0.0
 10
268.0
 20
423.0
 40
0.0
 41
0.0
 42
0.0
 10
268.0
 20
423.0
 40
0.0
 41
0.0
 42
0.0
 10
268.0576441587903105
 20
423.5852709660483697
 40
0.0
 41
0.0
 42
0.0
 10
268.2283614024661347
 20
424.1480502970952671
 40
0.0
 41
0.0
 42
0.0
 10
268.5055911630923902
 20
424.6667106990587968
 40
0.0
 41
0.0
 42
0.0
 10
268.8786796564403403
 20
425.1213203435596597
 40
0.0
 41
0.0
 42
0.0
 10
269.3332893009412032
 20
425.4944088369076098
 40
0.0
 41
0.0
 42
0.0
 10
269.8519497029047329
 20
425.7716385975338653
 40
0.0
 41
0.0
 42
0.0
 10
270.4147290339516303
 20
425.9423558412096895
 40
0.0
 41
0.0
 42
0.0
 10
271.0
 20
426.0
 40
0.0
 41
0.0
 42
0.0
  0
LWPOLYLINE
  5
42
330
F
100
AcDbEntity
  8
0
  6
ByLayer
420
15022389
 48
1.0
 60
0
370
-1
100
AcDbPolyline
 90
7
 70
0
 43
0.0
 38
0.0
 39
0.0
210
0.0
220
0.0
230
1.0
 10
43.0
 20
366.0
 40
0.0
 41
0.0
 42
0.0
 10
83.0
 20
396.0
 40
0.0
 41
0.0
 42
0.0
 10
123.0
 20
416.0
 40
0.0
 41
0.0
 42
0.0
 10
163.0
 20
386.0
 40
0.0
 41
0.0
 42
0.0
 10
203.0
 20
426.0
 40
0.0
 41
0.0
 42
0.0
 10
243.0
 20
401.0
 40
0.0
 41
0.0
 42
0.0
 10
283.0
 20
431.0
 40
0.0
 41
0.0
 42
0.0
  0
TEXT
  5
43
330
F
100
AcDbEntity
  8
0
  6
ByLayer
420
8947848
 48
1.0
 60
0
370
-1
100
AcDbText
 39
0.0
 10
128.5390625
 20
319.0
 30
0.0
 40
10.0
  1
Monthly Data
 50
0.0
 41
1.0
 51
0.0
  7
Standard
 71
0
 72
0
 11
0.0
 21
0.0
 31
0.0
210
0.0
220
0.0
230
1.0
100
AcDbText
 73
0
  0
HATCH
  5
44
330
F
100
AcDbEntity
  8
0
  6
ByLayer
420
4431943
 48
1.0
 60
0
370
-1
100
AcDbHatch
 30
0.0
210
0.0
220
0.0
230
1.0
  2
SOLID
 70
1
 71
0
 91
1
 92
2
 72
0
 73
1
 93
41
 10
13.0
 20
276.0
 10
51.0
 20
276.0
 10
51.0
 20
276.0
 10
53.5361741862096707
 20
275.750208645241969
 10
55.9748846207461668
 20
275.0104339226467118
 10
58.222413029254831
 20
273.8091049599330518
 10
60.192388155425121
 20
272.1923881554250784
 10
61.8091049599330873
 20
270.2224130292548807
 10
63.010433922646726
 20
267.9748846207461384
 10
63.7502086452419974
 20
265.5361741862096778
 10
64.0
 20
263.0
 10
64.0
 20
263.0
 10
64.0
 20
263.0
 10
63.7502086452419974
 20
260.4638258137903222
 10
63.010433922646726
 20
258.0251153792538616
 10
61.8091049599330873
 20
255.7775869707451193
 10
60.192388155425121
 20
253.8076118445749216
 10
58.222413029254831
 20
252.1908950400669482
 10
55.9748846207461668
 20
250.9895660773532882
 10
53.5361741862096707
 20
250.249791354758031
 10
51.0
 20
250.0
 10
13.0
 20
250.0
 10
13.0
 20
250.0
 10
10.4638258137903328
 20
250.249791354758031
 10
8.0251153792538332
 20
250.9895660773532882
 10
5.7775869707451744
 20
252.1908950400669482
 10
3.8076118445748826
 20
253.8076118445749216
 10
2.1908950400669109
 20
255.7775869707451193
 10
0.9895660773532722
 20
258.0251153792538616
 10
0.2497913547580044
 20
260.4638258137903222
 10
0.0
 20
263.0
 10
0.0
 20
263.0
 10
0.0
 20
263.0
 10
0.2497913547580044
 20
265.5361741862096778
 10
0.9895660773532704
 20
267.9748846207461384
 10
2.1908950400669092
 20
270.2224130292548807
 10
3.8076118445748808
 20
272.1923881554250784
 10
5.7775869707451717
 20
273.8091049599330518
 10
8.0251153792538261
 20
275.0104339226467118
 10
10.4638258137903275
 20
275.750208645241969
 10
12.9999999999999982
 20
276.0
 97
0
 75
0
 76
1
 47
0.0
 98
0
  0
LWPOLYLINE
  5
45
330
F
100
AcDbEntity
  8
0
  6
ByLayer
420
4431943
 48
1.0
 60
0
370
-1
100
AcDbPolyline
 90
41
 70
1
 43
0.0
 38
0.0
 39
0.0
210
0.0
220
0.0
230
1.0
 10
13.0
 20
276.0
 40
0.0
 41
0.0
 42
0.0
 10
51.0
 20
276.0
 40
0.0
 41
0.0
 42
0.0
 10
51.0
 20
276.0
 40
0.0
 41
0.0
 42
0.0
 10
53.5361741862096707
 20
275.750208645241969
 40
0.0
 41
0.0
 42
0.0
 10
55.9748846207461668
 20
275.0104339226467118
 40
0.0
 41
0.0
 42
0.0
 10
58.222413029254831
 20
273.8091049599330518
 40
0.0
 41
0.0
 42
0.0
 10
60.192388155425121
 20
272.1923881554250784
 40
0.0
 41
0.0
 42
0.0
 10
61.8091049599330873
 20
270.2224130292548807
 40
0.0
 41
0.0
 42
0.0
 10
63.010433922646726
 20
267.9748846207461384
 40
0.0
 41
0.0
 42
0.0
 10
63.7502086452419974
 20
265.5361741862096778
 40
0.0
 41
0.0
 42
0.0
 10
64.0
 20
263.0
 40
0.0
 41
0.0
 42
0.0
 10
64.0
 20
263.0
 40
0.0
 41
0.0
 42
0.0
 10
64.0
 20
263.0
 40
0.0
 41
0.0
 42
0.0
 10
63.7502086452419974
 20
260.4638258137903222
 40
0.0
 41
0.0
 42
0.0
 10
63.010433922646726
 20
258.0251153792538616
 40
0.0
 41
0.0
 42
0.0
 10
61.8091049599330873
 20
255.7775869707451193
 40
0.0
 41
0.0
 42
0.0
 10
60.192388155425121
 20
253.8076118445749216
 40
0.0
 41
0.0
 42
0.0
 10
58.222413029254831
 20
252.1908950400669482
 40
0.0
 41
0.0
 42
0.0
 10
55.9748846207461668
 20
250.9895660773532882
 40
0.0
 41
0.0
 42
0.0
 10
53.5361741862096707
 20
250.249791354758031
 40
0.0
 41
0.0
 42
0.0
 10
51.0
 20
250.0
 40
0.0
 41
0.0
 42
0.0
 10
13.0
 20
250.0
 40
0.0
 41
0.0
 42
0.0
 10
13.0
 20
250.0
 40
0.0
 41
0.0
 42
0.0
 10
10.4638258137903328
 20
250.249791354758031
 40
0.0
 41
0.0
 42
0.0
 10
8.0251153792538332
 20
250.9895660773532882
 40
0.0
 41
0.0
 42
0.0
 10
5.7775869707451744
 20
252.1908950400669482
 40
0.0
 41
0.0
 42
0.0
 10
3.8076118445748826
 20
253.8076118445749216
 40
0.0
 41
0.0
 42
0.0
 10
2.1908950400669109
 20
255.7775869707451193
 40
0.0
 41
0.0
 42
0.0
 10
0.9895660773532722
 20
258.0251153792538616
 40
0.0
 41
0.0
 42
0.0
 10
0.2497913547580044
 20
260.4638258137903222
 40
0.0
 41
0.0
 42
0.0
 10
0.0
 20
263.0
 40
0.0
 41
0.0
 42
0.0
 10
0.0
 20
263.0
 40
0.0
 41
0.0
 42
0.0
 10
0.0
 20
263.0
 40
0.0
 41
0.0
 42
0.0
 10
0.2497913547580044
 20
265.5361741862096778
 40
0.0
 41
0.0
 42
0.0
 10
0.9895660773532704
 20
267.9748846207461384
 40
0.0
 41
0.0
 42
0.0
 10
2.1908950400669092
 20
270.2224130292548807
 40
0.0
 41
0.0
 42
0.0
 10
3.8076118445748808
 20
272.1923881554250784
 40
0.0
 41
0.0
 42
0.0
 10
5.7775869707451717
 20
273.8091049599330518
 40
0.0
 41
0.0
 42
0.0
 10
8.0251153792538261
 20
275.0104339226467118
 40
0.0
 41
0.0
 42
0.0
 10
10.4638258137903275
 20
275.750208645241969
 40
0.0
 41
0.0
 42
0.0
 10
12.9999999999999982
 20
276.0
 40
0.0
 41
0.0
 42
0.0
  0
TEXT
  5
46
330
F
100
AcDbEntity
  8
0
  6
ByLayer
420
16777215
 48
1.0
 60
0
370
-1
100
AcDbText
 39
0.0
 10
14.0
 20
260.0
 30
0.0
 40
12.0
  1
Active
 50
0.0
 41
1.0
 51
0.0
  7
Standard
 71
0
 72
0
 11
0.0
 21
0.0
 31
0.0
210
0.0
220
0.0
230
1.0
100
AcDbText
 73
0
  0
HATCH
  5
47
330
F
100
AcDbEntity
  8
0
  6
ByLayer
420
16485376
 48
1.0
 60
0
370
-1
100
AcDbHatch
 30
0.0
210
0.0
220
0.0
230
1.0
  2
SOLID
 70
1
 71
0
 91
1
 92
2
 72
0
 73
1
 93
20
 10
76.0516105053329454
 20
261.028403352478108
 10
76.5653363803329512
 20
266.7506344774781155
 10
78.7868820053329415
 20
270.9351378524780785
 10
82.716247380332959
 20
273.5819134774781105
 10
88.3534325053329468
 20
274.690961352478098
 10
137.2863025053329409
 20
277.2554253524780279
 10
143.0085336303329484
 20
276.7416994774780505
 10
147.1930370053329398
 20
274.5201538524779608
 10
149.8398126303329718
 20
270.5907884774780996
 10
150.9488605053329593
 20
264.9536033524780123
 10
150.9488605053329593
 20
264.9536033524780123
 10
150.4351346303329535
 20
259.2313722274780048
 10
148.213589005332949
 20
255.0468688524780418
 10
144.2842236303329457
 20
252.4000932274780098
 10
138.6470385053329437
 20
251.2910453524780223
 10
89.7141685053329496
 20
248.7265813524780924
 10
83.9919373803329563
 20
249.2403072274781834
 10
79.8074340053329365
 20
251.4618528524780459
 10
77.1606583803329471
 20
255.3912182274781344
 10
76.0516105053329454
 20
261.028403352478108
 97
0
 75
0
 76
1
 47
0.0
 98
0
  0
LWPOLYLINE
  5
48
330
F
100
AcDbEntity
  8
0
  6
ByLayer
420
16485376
 48
1.0
 60
0
370
-1
100
AcDbPolyline
 90
20
 70
1
 43
0.0
 38
0.0
 39
0.0
210
0.0
220
0.0
230
1.0
 10
76.0516105053329454
 20
261.028403352478108
 40
0.0
 41
0.0
 42
0.0
 10
76.5653363803329512
 20
266.7506344774781155
 40
0.0
 41
0.0
 42
0.0
 10
78.7868820053329415
 20
270.9351378524780785
 40
0.0
 41
0.0
 42
0.0
 10
82.716247380332959
 20
273.5819134774781105
 40
0.0
 41
0.0
 42
0.0
 10
88.3534325053329468
 20
274.690961352478098
 40
0.0
 41
0.0
 42
0.0
 10
137.2863025053329409
 20
277.2554253524780279
 40
0.0
 41
0.0
 42
0.0
 10
143.0085336303329484
 20
276.7416994774780505
 40
0.0
 41
0.0
 42
0.0
 10
147.1930370053329398
 20
274.5201538524779608
 40
0.0
 41
0.0
 42
0.0
 10
149.8398126303329718
 20
270.5907884774780996
 40
0.0
 41
0.0
 42
0.0
 10
150.9488605053329593
 20
264.9536033524780123
 40
0.0
 41
0.0
 42
0.0
 10
150.9488605053329593
 20
264.9536033524780123
 40
0.0
 41
0.0
 42
0.0
 10
150.4351346303329535
 20
259.2313722274780048
 40
0.0
 41
0.0
 42
0.0
 10
148.213589005332949
 20
255.0468688524780418
 40
0.0
 41
0.0
 42
0.0
 10
144.2842236303329457
 20
252.4000932274780098
 40
0.0
 41
0.0
 42
0.0
 10
138.6470385053329437
 20
251.2910453524780223
 40
0.0
 41
0.0
 42
0.0
 10
89.7141685053329496
 20
248.7265813524780924
 40
0.0
 41
0.0
 42
0.0
 10
83.9919373803329563
 20
249.2403072274781834
 40
0.0
 41
0.0
 42
0.0
 10
79.8074340053329365
 20
251.4618528524780459
 40
0.0
 41
0.0
 42
0.0
 10
77.1606583803329471
 20
255.3912182274781344
 40
0.0
 41
0.0
 42
0.0
 10
76.0516105053329454
 20
261.028403352478108
 40
0.0
 41
0.0
 42
0.0
  0
TEXT
  5
49
330
F
100
AcDbEntity
  8
0
  6
ByLayer
420
16777215
 48
1.0
 60
0
370
-1
100
AcDbText
 39
0.0
 10
90.1894384320262787
 20
258.7652187512520641
 30
0.0
 40
12.0
  1
Pending
 50
3.0000011085596121
 41
1.0
 51
0.0
  7
Standard
 71
0
 72
0
 11
0.0
 21
0.0
 31
0.0
210
0.0
220
0.0
230
1.0
100
AcDbText
 73
0
  0
HATCH
  5
4A
330
F
100
AcDbEntity
  8
0
  6
ByLayer
420
15022389
 48
1.0
 60
0
370
-1
100
AcDbHatch
 30
0.0
210
0.0
220
0.0
230
1.0
  2
SOLID
 70
1
 71
0
 91
1
 92
2
 72
0
 73
1
 93
41
 10
173.8656200408935604
 20
277.2999999999999545
 10
221.1656200408935433
 20
277.2999999999999545
 10
221.1656200408935433
 20
277.2999999999999545
 10
223.9554116457241832
 20
277.0252295097661772
 10
226.6379931237143239
 20
276.2114773149114626
 10
229.1102743730738496
 20
274.8900154559264593
 10
231.277247011861192
 20
273.1116269709676772
 10
233.0556354968199457
 20
270.9446543321803347
 10
234.3770973558049491
 20
268.472373082820809
 10
235.190849550659749
 20
265.7897916048306115
 10
235.4656200408935547
 20
263.0
 10
235.4656200408935547
 20
263.0
 10
235.4656200408935547
 20
263.0
 10
235.190849550659749
 20
260.2102083951693885
 10
234.3770973558049491
 20
257.527626917179191
 10
233.0556354968199457
 20
255.0553456678196653
 10
231.277247011861192
 20
252.8883730290323228
 10
229.1102743730738496
 20
251.1099845440735407
 10
226.6379931237143239
 20
249.7885226850885374
 10
223.9554116457241832
 20
248.9747704902338228
 10
221.1656200408935433
 20
248.7000000000000455
 10
173.8656200408935604
 20
248.6999999999999318
 10
173.8656200408935604
 20
248.7000000000000455
 10
171.0758284360629204
 20
248.9747704902338228
 10
168.3932469580727798
 20
249.7885226850885374
 10
165.9209657087132541
 20
251.1099845440735407
 10
163.7539930699259116
 20
252.8883730290323228
 10
161.975604584967158
 20
255.0553456678196653
 10
160.6541427259821546
 20
257.527626917179191
 10
159.8403905311273547
 20
260.2102083951693885
 10
159.565620040893549
 20
263.0
 10
159.565620040893549
 20
263.0
 10
159.565620040893549
 20
263.0
 10
159.8403905311273547
 20
265.7897916048306115
 10
160.6541427259821546
 20
268.472373082820809
 10
161.975604584967158
 20
270.9446543321803347
 10
163.7539930699259116
 20
273.1116269709676772
 10
165.9209657087132541
 20
274.8900154559264593
 10
168.3932469580727513
 20
276.2114773149114626
 10
171.0758284360629204
 20
277.0252295097661772
 10
173.8656200408935604
 20
277.2999999999999545
 97
0
 75
0
 76
1
 47
0.0
 98
0
  0
LWPOLYLINE
  5
4B
330
F
100
AcDbEntity
  8
0
  6
ByLayer
420
15022389
 48
1.0
 60
0
370
-1
100
AcDbPolyline
 90
41
 70
1
 43
0.0
 38
0.0
 39
0.0
210
0.0
220
0.0
230
1.0
 10
173.8656200408935604
 20
277.2999999999999545
 40
0.0
 41
0.0
 42
0.0
 10
221.1656200408935433
 20
277.2999999999999545
 40
0.0
 41
0.0
 42
0.0
 10
221.1656200408935433
 20
277.2999999999999545
 40
0.0
 41
0.0
 42
0.0
 10
223.9554116457241832
 20
277.0252295097661772
 40
0.0
 41
0.0
 42
0.0
 10
226.6379931237143239
 20
276.2114773149114626
 40
0.0
 41
0.0
 42
0.0
 10
229.1102743730738496
 20
274.8900154559264593
 40
0.0
 41
0.0
 42
0.0
 10
231.277247011861192
 20
273.1116269709676772
 40
0.0
 41
0.0
 42
0.0
 10
233.0556354968199457
 20
270.9446543321803347
 40
0.0
 41
0.0
 42
0.0
 10
234.3770973558049491
 20
268.472373082820809
 40
0.0
 41
0.0
 42
0.0
 10
235.190849550659749
 20
265.7897916048306115
 40
0.0
 41
0.0
 42
0.0
 10
235.4656200408935547
 20
263.0
 40
0.0
 41
0.0
 42
0.0
 10
235.4656200408935547
 20
263.0
 40
0.0
 41
0.0
 42
0.0
 10
235.4656200408935547
 20
263.0
 40
0.0
 41
0.0
 42
0.0
 10
235.190849550659749
 20
260.2102083951693885
 40
0.0
 41
0.0
 42
0.0
 10
234.3770973558049491
 20
257.527626917179191
 40
0.0
 41
0.0
 42
0.0
 10
233.0556354968199457
 20
255.0553456678196653
 40
0.0
 41
0.0
 42
0.0
 10
231.277247011861192
 20
252.8883730290323228
 40
0.0
 41
0.0
 42
0.0
 10
229.1102743730738496
 20
251.1099845440735407
 40
0.0
 41
0.0
 42
0.0
 10
226.6379931237143239
 20
249.7885226850885374
 40
0.0
 41
0.0
 42
0.0
 10
223.9554116457241832
 20
248.9747704902338228
 40
0.0
 41
0.0
 42
0.0
 10
221.1656200408935433
 20
248.7000000000000455
 40
0.0
 41
0.0
 42
0.0
 10
173.8656200408935604
 20
248.6999999999999318
 40
0.0
 41
0.0
 42
0.0
 10
173.8656200408935604
 20
248.7000000000000455
 40
0.0
 41
0.0
 42
0.0
 10
171.0758284360629204
 20
248.9747704902338228
 40
0.0
 41
0.0
 42
0.0
 10
168.3932469580727798
 20
249.7885226850885374
 40
0.0
 41
0.0
 42
0.0
 10
165.9209657087132541
 20
251.1099845440735407
 40
0.0
 41
0.0
 42
0.0
 10
163.7539930699259116
 20
252.8883730290323228
 40
0.0
 41
0.0
 42
0.0
 10
161.975604584967158
 20
255.0553456678196653
 40
0.0
 41
0.0
 42
0.0
 10
160.6541427259821546
 20
257.527626917179191
 40
0.0
 41
0.0
 42
0.0
 10
159.8403905311273547
 20
260.2102083951693885
 40
0.0
 41
0.0
 42
0.0
 10
159.565620040893549
 20
263.0
 40
0.0
 41
0.0
 42
0.0
 10
159.565620040893549
 20
263.0
 40
0.0
 41
0.0
 42
0.0
 10
159.565620040893549
 20
263.0
 40
0.0
 41
0.0
 42
0.0
 10
159.8403905311273547
 20
265.7897916048306115
 40
0.0
 41
0.0
 42
0.0
 10
160.6541427259821546
 20
268.472373082820809
 40
0.0
 41
0.0
 42
0.0
 10
161.975604584967158
 20
270.9446543321803347
 40
0.0
 41
0.0
 42
0.0
 10
163.7539930699259116
 20
273.1116269709676772
 40
0.0
 41
0.0
 42
0.0
 10
165.9209657087132541
 20
274.8900154559264593
 40
0.0
 41
0.0
 42
0.0
 10
168.3932469580727513
 20
276.2114773149114626
 40
0.0
 41
0.0
 42
0.0
 10
171.0758284360629204
 20
277.0252295097661772
 40
0.0
 41
0.0
 42
0.0
 10
173.8656200408935604
 20
277.2999999999999545
 40
0.0
 41
0.0
 42
0.0
  0
TEXT
  5
4C
330
F
100
AcDbEntity
  8
0
  6
ByLayer
420
16777215
 48
1.0
 60
0
370
-1
100
AcDbText
 39
0.0
 10
174.9656200408935547
 20
260.0
 30
0.0
 40
12.0
  1
Critical
 50
0.0
 41
1.0
 51
0.0
  7
Standard
 71
0
 72
0
 11
0.0
 21
0.0
 31
0.0
210
0.0
220
0.0
230
1.0
100
AcDbText
 73
0
  0
HATCH
  5
4D
330
F
100
AcDbEntity
  8
0
  6
ByLayer
420
2001125
 48
1.0
 60
0
370
-1
100
AcDbHatch
 30
0.0
210
0.0
220
0.0
230
1.0
  2
SOLID
 70
1
 71
0
 91
1
 92
2
 72
0
 73
1
 93
20
 10
243.9999999999999716
 20
263.0
 10
245.3131956018368101
 20
268.6875
 10
248.1154293073473696
 20
272.75
 10
252.4067011165315932
 20
275.1875
 10
258.1870110293895095
 20
276.0
 10
282.0876951706104592
 20
276.0
 10
287.7258359459683561
 20
275.1875
 10
291.5906003426525785
 20
272.75
 10
293.6819883606631265
 20
268.6875
 10
294.0
 20
263.0
 10
294.0
 20
263.0
 10
292.6868043981631331
 20
257.3125
 10
289.8845706926525736
 20
253.25
 10
285.5932988834683215
 20
250.8125
 10
279.8129889706103768
 20
250.0
 10
255.9123048293895124
 20
250.0
 10
250.2741640540315871
 20
250.8125
 10
246.4093996573473646
 20
253.25
 10
244.3180116393368166
 20
257.3125
 10
243.9999999999999716
 20
263.0
 97
0
 75
0
 76
1
 47
0.0
 98
0
  0
LWPOLYLINE
  5
4E
330
F
100
AcDbEntity
  8
0
  6
ByLayer
420
2001125
 48
1.0
 60
0
370
-1
100
AcDbPolyline
 90
20
 70
1
 43
0.0
 38
0.0
 39
0.0
210
0.0
220
0.0
230
1.0
 10
243.9999999999999716
 20
263.0
 40
0.0
 41
0.0
 42
0.0
 10
245.3131956018368101
 20
268.6875
 40
0.0
 41
0.0
 42
0.0
 10
248.1154293073473696
 20
272.75
 40
0.0
 41
0.0
 42
0.0
 10
252.4067011165315932
 20
275.1875
 40
0.0
 41
0.0
 42
0.0
 10
258.1870110293895095
 20
276.0
 40
0.0
 41
0.0
 42
0.0
 10
282.0876951706104592
 20
276.0
 40
0.0
 41
0.0
 42
0.0
 10
287.7258359459683561
 20
275.1875
 40
0.0
 41
0.0
 42
0.0
 10
291.5906003426525785
 20
272.75
 40
0.0
 41
0.0
 42
0.0
 10
293.6819883606631265
 20
268.6875
 40
0.0
 41
0.0
 42
0.0
 10
294.0
 20
263.0
 40
0.0
 41
0.0
 42
0.0
 10
294.0
 20
263.0
 40
0.0
 41
0.0
 42
0.0
 10
292.6868043981631331
 20
257.3125
 40
0.0
 41
0.0
 42
0.0
 10
289.8845706926525736
 20
253.25
 40
0.0
 41
0.0
 42
0.0
 10
285.5932988834683215
 20
250.8125
 40
0.0
 41
0.0
 42
0.0
 10
279.8129889706103768
 20
250.0
 40
0.0
 41
0.0
 42
0.0
 10
255.9123048293895124
 20
250.0
 40
0.0
 41
0.0
 42
0.0
 10
250.2741640540315871
 20
250.8125
 40
0.0
 41
0.0
 42
0.0
 10
246.4093996573473646
 20
253.25
 40
0.0
 41
0.0
 42
0.0
 10
244.3180116393368166
 20
257.3125
 40
0.0
 41
0.0
 42
0.0
 10
243.9999999999999716
 20
263.0
 40
0.0
 41
0.0
 42
0.0
  0
TEXT
  5
4F
330
F
100
AcDbEntity
  8
0
  6
ByLayer
420
16777215
 48
1.0
 60
0
370
-1
100
AcDbText
 39
0.0
 10
257.7385326635792353
 20
260.0114159151891045
 30
0.0
 40
12.0
  1
Info
 50
0.0
 41
1.0
 51
0.0
  7
Standard
 71
0
 72
0
 11
0.0
 21
0.0
 31
0.0
210
0.0
220
0.0
230
1.0
100
AcDbText
 73
0
  0
HATCH
  5
50
330
F
100
AcDbEntity
  8
0
  6
ByLayer
420
15591414
 48
1.0
 60
0
370
-1
100
AcDbHatch
 30
0.0
210
0.0
220
0.0
230
1.0
  2
SOLID
 70
1
 71
0
 91
1
 92
2
 72
0
 73
1
 93
41
 10
10.0
 20
230.0
 10
1230.0
 20
230.0
 10
1230.0
 20
230.0
 10
1231.9509032201613081
 20
229.8078528040323363
 10
1233.8268343236509281
 20
229.2387953251128465
 10
1235.5557023301960271
 20
228.3146961230254419
 10
1237.0710678118655323
 20
227.0710678118654187
 10
1238.3146961230254419
 20
225.5557023301960271
 10
1239.2387953251129602
 20
223.8268343236509281
 10
1239.8078528040323363
 20
221.9509032201613081
 10
1240.0
 20
220.0
 10
1240.0
 20
190.0
 10
1240.0
 20
190.0
 10
1239.8078528040323363
 20
188.0490967798386919
 10
1239.2387953251129602
 20
186.1731656763490719
 10
1238.3146961230254419
 20
184.4442976698039729
 10
1237.0710678118655323
 20
182.9289321881345813
 10
1235.5557023301960271
 20
181.6853038769745581
 10
1233.8268343236509281
 20
180.7612046748871535
 10
1231.9509032201613081
 20
180.1921471959676637
 10
1230.0
 20
180.0
 10
10.0
 20
180.0
 10
10.0
 20
180.0
 10
8.0490967798387185
 20
180.1921471959676637
 10
6.173165676349103
 20
180.7612046748871535
 10
4.44429766980398
 20
181.6853038769745581
 10
2.9289321881345254
 20
182.9289321881344677
 10
1.6853038769745474
 20
184.4442976698039729
 10
0.7612046748871322
 20
186.1731656763490719
 10
0.1921471959676957
 20
188.0490967798386919
 10
0.0
 20
190.0
 10
0.0
 20
220.0
 10
0.0
 20
220.0
 10
0.1921471959676957
 20
221.9509032201613081
 10
0.7612046748871322
 20
223.8268343236509281
 10
1.6853038769745456
 20
225.5557023301960271
 10
2.9289321881345227
 20
227.0710678118654187
 10
4.4442976698039782
 20
228.3146961230254419
 10
6.1731656763490967
 20
229.2387953251128465
 10
8.0490967798387132
 20
229.8078528040323363
 10
9.9999999999999982
 20
230.0
 97
0
 75
0
 76
1
 47
0.0
 98
0
  0
LWPOLYLINE
  5
51
330
F
100
AcDbEntity
  8
0
  6
ByLayer
420
8280002
 48
1.0
 60
0
370
-1
100
AcDbPolyline
 90
41
 70
1
 43
0.0
 38
0.0
 39
0.0
210
0.0
220
0.0
230
1.0
 10
10.0
 20
230.0
 40
0.0
 41
0.0
 42
0.0
 10
1230.0
 20
230.0
 40
0.0
 41
0.0
 42
0.0
 10
1230.0
 20
230.0
 40
0.0
 41
0.0
 42
0.0
 10
1231.9509032201613081
 20
229.8078528040323363
 40
0.0
 41
0.0
 42
0.0
 10
1233.8268343236509281
 20
229.2387953251128465
 40
0.0
 41
0.0
 42
0.0
 10
1235.5557023301960271
 20
228.3146961230254419
 40
0.0
 41
0.0
 42
0.0
 10
1237.0710678118655323
 20
227.0710678118654187
 40
0.0
 41
0.0
 42
0.0
 10
1238.3146961230254419
 20
225.5557023301960271
 40
0.0
 41
0.0
 42
0.0
 10
1239.2387953251129602
 20
223.8268343236509281
 40
0.0
 41
0.0
 42
0.0
 10
1239.8078528040323363
 20
221.9509032201613081
 40
0.0
 41
0.0
 42
0.0
 10
1240.0
 20
220.0
 40
0.0
 41
0.0
 42
0.0
 10
1240.0
 20
190.0
 40
0.0
 41
0.0
 42
0.0
 10
1240.0
 20
190.0
 40
0.0
 41
0.0
 42
0.0
 10
1239.8078528040323363
 20
188.0490967798386919
 40
0.0
 41
0.0
 42
0.0
 10
1239.2387953251129602
 20
186.1731656763490719
 40
0.0
 41
0.0
 42
0.0
 10
1238.3146961230254419
 20
184.4442976698039729
 40
0.0
 41
0.0
 42
0.0
 10
1237.0710678118655323
 20
182.9289321881345813
 40
0.0
 41
0.0
 42
0.0
 10
1235.5557023301960271
 20
181.6853038769745581
 40
0.0
 41
0.0
 42
0.0
 10
1233.8268343236509281
 20
180.7612046748871535
 40
0.0
 41
0.0
 42
0.0
 10
1231.9509032201613081
 20
180.1921471959676637
 40
0.0
 41
0.0
 42
0.0
 10
1230.0
 20
180.0
 40
0.0
 41
0.0
 42
0.0
 10
10.0
 20
180.0
 40
0.0
 41
0.0
 42
0.0
 10
10.0
 20
180.0
 40
0.0
 41
0.0
 42
0.0
 10
8.0490967798387185
 20
180.1921471959676637
 40
0.0
 41
0.0
 42
0.0
 10
6.173165676349103
 20
180.7612046748871535
 40
0.0
 41
0.0
 42
0.0
 10
4.44429766980398
 20
181.6853038769745581
 40
0.0
 41
0.0
 42
0.0
 10
2.9289321881345254
 20
182.9289321881344677
 40
0.0
 41
0.0
 42
0.0
 10
1.6853038769745474
 20
184.4442976698039729
 40
0.0
 41
0.0
 42
0.0
 10
0.7612046748871322
 20
186.1731656763490719
 40
0.0
 41
0.0
 42
0.0
 10
0.1921471959676957
 20
188.0490967798386919
 40
0.0
 41
0.0
 42
0.0
 10
0.0
 20
190.0
 40
0.0
 41
0.0
 42
0.0
 10
0.0
 20
220.0
 40
0.0
 41
0.0
 42
0.0
 10
0.0
 20
220.0
 40
0.0
 41
0.0
 42
0.0
 10
0.1921471959676957
 20
221.9509032201613081
 40
0.0
 41
0.0
 42
0.0
 10
0.7612046748871322
 20
223.8268343236509281
 40
0.0
 41
0.0
 42
0.0
 10
1.6853038769745456
 20
225.5557023301960271
 40
0.0
 41
0.0
 42
0.0
 10
2.9289321881345227
 20
227.0710678118654187
 40
0.0
 41
0.0
 42
0.0
 10
4.4442976698039782
 20
228.3146961230254419
 40
0.0
 41
0.0
 42
0.0
 10
6.1731656763490967
 20
229.2387953251128465
 40
0.0
 41
0.0
 42
0.0
 10
8.0490967798387132
 20
229.8078528040323363
 40
0.0
 41
0.0
 42
0.0
 10
9.9999999999999982
 20
230.0
 40
0.0
 41
0.0
 42
0.0
  0
TEXT
  5
52
330
F
100
AcDbEntity
  8
0
  6
ByLayer
420
4532128
 48
1.0
 60
0
370
-1
100
AcDbText
 39
0.0
 10
2.0
 20
215.5
 30
0.0
 40
16.0
  1
Shadow DOM Widget
 50
0.0
 41
1.0
 51
0.0
  7
Standard
 71
0
 72
0
 11
0.0
 21
0.0
 31
0.0
210
0.0
220
0.0
230
1.0
100
AcDbText
 73
0
  0
TEXT
  5
53
330
F
100
AcDbEntity
  8
0
  6
ByLayer
420
6174129
 48
1.0
 60
0
370
-1
100
AcDbText
 39
0.0
 10
2.0
 20
189.25
 30
0.0
 40
13.0
  1
This widget lives inside a declarative shadow root with its own scoped styles, gradients, and borders.
 50
0.0
 41
1.0
 51
0.0
  7
Standard
 71
0
 72
0
 11
0.0
 21
0.0
 31
0.0
210
0.0
220
0.0
230
1.0
100
AcDbText
 73
0
  0
HATCH
  5
54
330
F
100
AcDbEntity
  8
0
  6
ByLayer
420
16007990
 48
1.0
 60
0
370
-1
100
AcDbHatch
 30
0.0
210
0.0
220
0.0
230
1.0
  2
SOLID
 70
1
 71
0
 91
1
 92
2
 72
0
 73
1
 93
41
 10
50.0
 20
160.0
 10
50.0
 20
160.0
 10
50.0
 20
160.0
 10
59.7545161008064127
 20
159.0392640201615677
 10
69.1341716182544985
 20
156.1939766255643463
 10
77.7785116509801071
 20
151.5734806151272096
 10
85.3553390593273775
 20
145.3553390593273207
 10
91.5734806151272664
 20
137.7785116509801355
 10
96.1939766255643463
 20
129.1341716182545269
 10
99.0392640201615251
 20
119.7545161008064269
 10
100.0
 20
110.0
 10
100.0
 20
110.0
 10
100.0
 20
110.0
 10
99.0392640201615251
 20
100.2454838991935731
 10
96.1939766255643463
 20
90.8658283817454731
 10
91.5734806151272664
 20
82.2214883490198645
 10
85.3553390593273775
 20
74.6446609406726793
 10
77.7785116509801071
 20
68.4265193848727904
 10
69.1341716182544985
 20
63.8060233744356537
 10
59.7545161008064127
 20
60.9607359798384323
 10
50.0
 20
60.0
 10
50.0
 20
60.0
 10
50.0
 20
60.0
 10
40.2454838991935873
 20
60.9607359798384323
 10
30.8658283817455121
 20
63.8060233744356537
 10
22.2214883490199036
 20
68.4265193848727904
 10
14.6446609406726296
 20
74.6446609406725656
 10
8.4265193848727336
 20
82.2214883490198645
 10
3.8060233744356609
 20
90.8658283817454731
 10
0.9607359798384749
 20
100.2454838991935731
 10
0.0
 20
110.0
 10
0.0
 20
110.0
 10
0.0
 20
110.0
 10
0.9607359798384749
 20
119.7545161008064269
 10
3.8060233744356609
 20
129.1341716182545269
 10
8.4265193848727264
 20
137.7785116509801355
 10
14.6446609406726154
 20
145.3553390593273207
 10
22.2214883490198929
 20
151.5734806151272096
 10
30.8658283817454837
 20
156.1939766255643463
 10
40.2454838991935659
 20
159.0392640201615677
 10
49.9999999999999929
 20
160.0
 97
0
 75
0
 76
1
 47
0.0
 98
0
  0
LWPOLYLINE
  5
55
330
F
100
AcDbEntity
  8
0
  6
ByLayer
420
16007990
 48
1.0
 60
0
370
-1
100
AcDbPolyline
 90
41
 70
1
 43
0.0
 38
0.0
 39
0.0
210
0.0
220
0.0
230
1.0
 10
50.0
 20
160.0
 40
0.0
 41
0.0
 42
0.0
 10
50.0
 20
160.0
 40
0.0
 41
0.0
 42
0.0
 10
50.0
 20
160.0
 40
0.0
 41
0.0
 42
0.0
 10
59.7545161008064127
 20
159.0392640201615677
 40
0.0
 41
0.0
 42
0.0
 10
69.1341716182544985
 20
156.1939766255643463
 40
0.0
 41
0.0
 42
0.0
 10
77.7785116509801071
 20
151.5734806151272096
 40
0.0
 41
0.0
 42
0.0
 10
85.3553390593273775
 20
145.3553390593273207
 40
0.0
 41
0.0
 42
0.0
 10
91.5734806151272664
 20
137.7785116509801355
 40
0.0
 41
0.0
 42
0.0
 10
96.1939766255643463
 20
129.1341716182545269
 40
0.0
 41
0.0
 42
0.0
 10
99.0392640201615251
 20
119.7545161008064269
 40
0.0
 41
0.0
 42
0.0
 10
100.0
 20
110.0
 40
0.0
 41
0.0
 42
0.0
 10
100.0
 20
110.0
 40
0.0
 41
0.0
 42
0.0
 10
100.0
 20
110.0
 40
0.0
 41
0.0
 42
0.0
 10
99.0392640201615251
 20
100.2454838991935731
 40
0.0
 41
0.0
 42
0.0
 10
96.1939766255643463
 20
90.8658283817454731
 40
0.0
 41
0.0
 42
0.0
 10
91.5734806151272664
 20
82.2214883490198645
 40
0.0
 41
0.0
 42
0.0
 10
85.3553390593273775
 20
74.6446609406726793
 40
0.0
 41
0.0
 42
0.0
 10
77.7785116509801071
 20
68.4265193848727904
 40
0.0
 41
0.0
 42
0.0
 10
69.1341716182544985
 20
63.8060233744356537
 40
0.0
 41
0.0
 42
0.0
 10
59.7545161008064127
 20
60.9607359798384323
 40
0.0
 41
0.0
 42
0.0
 10
50.0
 20
60.0
 40
0.0
 41
0.0
 42
0.0
 10
50.0
 20
60.0
 40
0.0
 41
0.0
 42
0.0
 10
50.0
 20
60.0
 40
0.0
 41
0.0
 42
0.0
 10
40.2454838991935873
 20
60.9607359798384323
 40
0.0
 41
0.0
 42
0.0
 10
30.8658283817455121
 20
63.8060233744356537
 40
0.0
 41
0.0
 42
0.0
 10
22.2214883490199036
 20
68.4265193848727904
 40
0.0
 41
0.0
 42
0.0
 10
14.6446609406726296
 20
74.6446609406725656
 40
0.0
 41
0.0
 42
0.0
 10
8.4265193848727336
 20
82.2214883490198645
 40
0.0
 41
0.0
 42
0.0
 10
3.8060233744356609
 20
90.8658283817454731
 40
0.0
 41
0.0
 42
0.0
 10
0.9607359798384749
 20
100.2454838991935731
 40
0.0
 41
0.0
 42
0.0
 10
0.0
 20
110.0
 40
0.0
 41
0.0
 42
0.0
 10
0.0
 20
110.0
 40
0.0
 41
0.0
 42
0.0
 10
0.0
 20
110.0
 40
0.0
 41
0.0
 42
0.0
 10
0.9607359798384749
 20
119.7545161008064269
 40
0.0
 41
0.0
 42
0.0
 10
3.8060233744356609
 20
129.1341716182545269
 40
0.0
 41
0.0
 42
0.0
 10
8.4265193848727264
 20
137.7785116509801355
 40
0.0
 41
0.0
 42
0.0
 10
14.6446609406726154
 20
145.3553390593273207
 40
0.0
 41
0.0
 42
0.0
 10
22.2214883490198929
 20
151.5734806151272096
 40
0.0
 41
0.0
 42
0.0
 10
30.8658283817454837
 20
156.1939766255643463
 40
0.0
 41
0.0
 42
0.0
 10
40.2454838991935659
 20
159.0392640201615677
 40
0.0
 41
0.0
 42
0.0
 10
49.9999999999999929
 20
160.0
 40
0.0
 41
0.0
 42
0.0
  0
HATCH
  5
56
330
F
100
AcDbEntity
  8
0
  6
ByLayer
420
5025616
 48
1.0
 60
0
370
-1
100
AcDbHatch
 30
0.0
210
0.0
220
0.0
230
1.0
  2
SOLID
 70
1
 71
0
 91
1
 92
2
 72
0
 73
1
 93
41
 10
90.0
 20
140.0
 10
90.0
 20
140.0
 10
90.0
 20
140.0
 10
99.7545161008064127
 20
139.0392640201615677
 10
109.1341716182544985
 20
136.1939766255643463
 10
117.7785116509801071
 20
131.5734806151272096
 10
125.3553390593273775
 20
125.3553390593273207
 10
131.5734806151272664
 20
117.7785116509801355
 10
136.1939766255643463
 20
109.1341716182545269
 10
139.0392640201615109
 20
99.7545161008064269
 10
140.0
 20
90.0
 10
140.0
 20
90.0
 10
140.0
 20
90.0
 10
139.0392640201615109
 20
80.2454838991935731
 10
136.1939766255643463
 20
70.8658283817454731
 10
131.5734806151272664
 20
62.2214883490198645
 10
125.3553390593273775
 20
54.6446609406726793
 10
117.7785116509801071
 20
48.4265193848727904
 10
109.1341716182544985
 20
43.8060233744356537
 10
99.7545161008064127
 20
40.9607359798384323
 10
90.0
 20
40.0
 10
90.0
 20
40.0
 10
90.0
 20
40.0
 10
80.2454838991935873
 20
40.9607359798384323
 10
70.8658283817455157
 20
43.8060233744356537
 10
62.2214883490199071
 20
48.4265193848727904
 10
54.6446609406726296
 20
54.6446609406725656
 10
48.4265193848727336
 20
62.2214883490198645
 10
43.8060233744356609
 20
70.8658283817454731
 10
40.9607359798384749
 20
80.2454838991935731
 10
40.0
 20
90.0
 10
40.0
 20
90.0
 10
40.0
 20
90.0
 10
40.9607359798384749
 20
99.7545161008064269
 10
43.8060233744356609
 20
109.1341716182545269
 10
48.4265193848727264
 20
117.7785116509801355
 10
54.6446609406726154
 20
125.3553390593273207
 10
62.2214883490198929
 20
131.5734806151272096
 10
70.8658283817454873
 20
136.1939766255643463
 10
80.2454838991935731
 20
139.0392640201615677
 10
89.9999999999999858
 20
140.0
 97
0
 75
0
 76
1
 47
0.0
 98
0
  0
LWPOLYLINE
  5
57
330
F
100
AcDbEntity
  8
0
  6
ByLayer
420
5025616
 48
1.0
 60
0
370
-1
100
AcDbPolyline
 90
41
 70
1
 43
0.0
 38
0.0
 39
0.0
210
0.0
220
0.0
230
1.0
 10
90.0
 20
140.0
 40
0.0
 41
0.0
 42
0.0
 10
90.0
 20
140.0
 40
0.0
 41
0.0
 42
0.0
 10
90.0
 20
140.0
 40
0.0
 41
0.0
 42
0.0
 10
99.7545161008064127
 20
139.0392640201615677
 40
0.0
 41
0.0
 42
0.0
 10
109.1341716182544985
 20
136.1939766255643463
 40
0.0
 41
0.0
 42
0.0
 10
117.7785116509801071
 20
131.5734806151272096
 40
0.0
 41
0.0
 42
0.0
 10
125.3553390593273775
 20
125.3553390593273207
 40
0.0
 41
0.0
 42
0.0
 10
131.5734806151272664
 20
117.7785116509801355
 40
0.0
 41
0.0
 42
0.0
 10
136.1939766255643463
 20
109.1341716182545269
 40
0.0
 41
0.0
 42
0.0
 10
139.0392640201615109
 20
99.7545161008064269
 40
0.0
 41
0.0
 42
0.0
 10
140.0
 20
90.0
 40
0.0
 41
0.0
 42
0.0
 10
140.0
 20
90.0
 40
0.0
 41
0.0
 42
0.0
 10
140.0
 20
90.0
 40
0.0
 41
0.0
 42
0.0
 10
139.0392640201615109
 20
80.2454838991935731
 40
0.0
 41
0.0
 42
0.0
 10
136.1939766255643463
 20
70.8658283817454731
 40
0.0
 41
0.0
 42
0.0
 10
131.5734806151272664
 20
62.2214883490198645
 40
0.0
 41
0.0
 42
0.0
 10
125.3553390593273775
 20
54.6446609406726793
 40
0.0
 41
0.0
 42
0.0
 10
117.7785116509801071
 20
48.4265193848727904
 40
0.0
 41
0.0
 42
0.0
 10
109.1341716182544985
 20
43.8060233744356537
 40
0.0
 41
0.0
 42
0.0
 10
99.7545161008064127
 20
40.9607359798384323
 40
0.0
 41
0.0
 42
0.0
 10
90.0
 20
40.0
 40
0.0
 41
0.0
 42
0.0
 10
90.0
 20
40.0
 40
0.0
 41
0.0
 42
0.0
 10
90.0
 20
40.0
 40
0.0
 41
0.0
 42
0.0
 10
80.2454838991935873
 20
40.9607359798384323
 40
0.0
 41
0.0
 42
0.0
 10
70.8658283817455157
 20
43.8060233744356537
 40
0.0
 41
0.0
 42
0.0
 10
62.2214883490199071
 20
48.4265193848727904
 40
0.0
 41
0.0
 42
0.0
 10
54.6446609406726296
 20
54.6446609406725656
 40
0.0
 41
0.0
 42
0.0
 10
48.4265193848727336
 20
62.2214883490198645
 40
0.0
 41
0.0
 42
0.0
 10
43.8060233744356609
 20
70.8658283817454731
 40
0.0
 41
0.0
 42
0.0
 10
40.9607359798384749
 20
80.2454838991935731
 40
0.0
 41
0.0
 42
0.0
 10
40.0
 20
90.0
 40
0.0
 41
0.0
 42
0.0
 10
40.0
 20
90.0
 40
0.0
 41
0.0
 42
0.0
 10
40.0
 20
90.0
 40
0.0
 41
0.0
 42
0.0
 10
40.9607359798384749
 20
99.7545161008064269
 40
0.0
 41
0.0
 42
0.0
 10
43.8060233744356609
 20
109.1341716182545269
 40
0.0
 41
0.0
 42
0.0
 10
48.4265193848727264
 20
117.7785116509801355
 40
0.0
 41
0.0
 42
0.0
 10
54.6446609406726154
 20
125.3553390593273207
 40
0.0
 41
0.0
 42
0.0
 10
62.2214883490198929
 20
131.5734806151272096
 40
0.0
 41
0.0
 42
0.0
 10
70.8658283817454873
 20
136.1939766255643463
 40
0.0
 41
0.0
 42
0.0
 10
80.2454838991935731
 20
139.0392640201615677
 40
0.0
 41
0.0
 42
0.0
 10
89.9999999999999858
 20
140.0
 40
0.0
 41
0.0
 42
0.0
  0
HATCH
  5
58
330
F
100
AcDbEntity
  8
0
  6
ByLayer
420
2201331
 48
1.0
 60
0
370
-1
100
AcDbHatch
 30
0.0
210
0.0
220
0.0
230
1.0
  2
SOLID
 70
1
 71
0
 91
1
 92
2
 72
0
 73
1
 93
41
 10
130.0
 20
120.0
 10
130.0
 20
120.0
 10
130.0
 20
120.0
 10
139.7545161008064269
 20
119.0392640201615677
 10
149.1341716182544985
 20
116.1939766255643463
 10
157.7785116509801071
 20
111.5734806151272096
 10
165.3553390593273775
 20
105.3553390593273207
 10
171.5734806151272664
 20
97.7785116509801355
 10
176.1939766255643463
 20
89.1341716182545269
 10
179.0392640201615109
 20
79.7545161008064269
 10
180.0
 20
70.0
 10
180.0
 20
70.0
 10
180.0
 20
70.0
 10
179.0392640201615109
 20
60.2454838991935731
 10
176.1939766255643463
 20
50.8658283817454731
 10
171.5734806151272664
 20
42.2214883490198645
 10
165.3553390593273775
 20
34.6446609406726793
 10
157.7785116509801071
 20
28.4265193848727904
 10
149.1341716182544985
 20
23.8060233744356537
 10
139.7545161008064269
 20
20.9607359798384323
 10
130.0
 20
20.0
 10
130.0
 20
20.0
 10
130.0
 20
20.0
 10
120.2454838991935873
 20
20.9607359798384323
 10
110.8658283817455157
 20
23.8060233744356537
 10
102.2214883490199071
 20
28.4265193848727904
 10
94.6446609406726225
 20
34.6446609406725656
 10
88.4265193848727336
 20
42.2214883490198645
 10
83.8060233744356537
 20
50.8658283817454731
 10
80.9607359798384749
 20
60.2454838991935731
 10
80.0
 20
70.0
 10
80.0
 20
70.0
 10
80.0
 20
70.0
 10
80.9607359798384749
 20
79.7545161008064269
 10
83.8060233744356537
 20
89.1341716182545269
 10
88.4265193848727336
 20
97.7785116509801355
 10
94.6446609406726225
 20
105.3553390593273207
 10
102.2214883490198929
 20
111.5734806151272096
 10
110.8658283817454873
 20
116.1939766255643463
 10
120.2454838991935731
 20
119.0392640201615677
 10
130.0
 20
120.0
 97
0
 75
0
 76
1
 47
0.0
 98
0
  0
LWPOLYLINE
  5
59
330
F
100
AcDbEntity
  8
0
  6
ByLayer
420
2201331
 48
1.0
 60
0
370
-1
100
AcDbPolyline
 90
41
 70
1
 43
0.0
 38
0.0
 39
0.0
210
0.0
220
0.0
230
1.0
 10
130.0
 20
120.0
 40
0.0
 41
0.0
 42
0.0
 10
130.0
 20
120.0
 40
0.0
 41
0.0
 42
0.0
 10
130.0
 20
120.0
 40
0.0
 41
0.0
 42
0.0
 10
139.7545161008064269
 20
119.0392640201615677
 40
0.0
 41
0.0
 42
0.0
 10
149.1341716182544985
 20
116.1939766255643463
 40
0.0
 41
0.0
 42
0.0
 10
157.7785116509801071
 20
111.5734806151272096
 40
0.0
 41
0.0
 42
0.0
 10
165.3553390593273775
 20
105.3553390593273207
 40
0.0
 41
0.0
 42
0.0
 10
171.5734806151272664
 20
97.7785116509801355
 40
0.0
 41
0.0
 42
0.0
 10
176.1939766255643463
 20
89.1341716182545269
 40
0.0
 41
0.0
 42
0.0
 10
179.0392640201615109
 20
79.7545161008064269
 40
0.0
 41
0.0
 42
0.0
 10
180.0
 20
70.0
 40
0.0
 41
0.0
 42
0.0
 10
180.0
 20
70.0
 40
0.0
 41
0.0
 42
0.0
 10
180.0
 20
70.0
 40
0.0
 41
0.0
 42
0.0
 10
179.0392640201615109
 20
60.2454838991935731
 40
0.0
 41
0.0
 42
0.0
 10
176.1939766255643463
 20
50.8658283817454731
 40
0.0
 41
0.0
 42
0.0
 10
171.5734806151272664
 20
42.2214883490198645
 40
0.0
 41
0.0
 42
0.0
 10
165.3553390593273775
 20
34.6446609406726793
 40
0.0
 41
0.0
 42
0.0
 10
157.7785116509801071
 20
28.4265193848727904
 40
0.0
 41
0.0
 42
0.0
 10
149.1341716182544985
 20
23.8060233744356537
 40
0.0
 41
0.0
 42
0.0
 10
139.7545161008064269
 20
20.9607359798384323
 40
0.0
 41
0.0
 42
0.0
 10
130.0
 20
20.0
 40
0.0
 41
0.0
 42
0.0
 10
130.0
 20
20.0
 40
0.0
 41
0.0
 42
0.0
 10
130.0
 20
20.0
 40
0.0
 41
0.0
 42
0.0
 10
120.2454838991935873
 20
20.9607359798384323
 40
0.0
 41
0.0
 42
0.0
 10
110.8658283817455157
 20
23.8060233744356537
 40
0.0
 41
0.0
 42
0.0
 10
102.2214883490199071
 20
28.4265193848727904
 40
0.0
 41
0.0
 42
0.0
 10
94.6446609406726225
 20
34.6446609406725656
 40
0.0
 41
0.0
 42
0.0
 10
88.4265193848727336
 20
42.2214883490198645
 40
0.0
 41
0.0
 42
0.0
 10
83.8060233744356537
 20
50.8658283817454731
 40
0.0
 41
0.0
 42
0.0
 10
80.9607359798384749
 20
60.2454838991935731
 40
0.0
 41
0.0
 42
0.0
 10
80.0
 20
70.0
 40
0.0
 41
0.0
 42
0.0
 10
80.0
 20
70.0
 40
0.0
 41
0.0
 42
0.0
 10
80.0
 20
70.0
 40
0.0
 41
0.0
 42
0.0
 10
80.9607359798384749
 20
79.7545161008064269
 40
0.0
 41
0.0
 42
0.0
 10
83.8060233744356537
 20
89.1341716182545269
 40
0.0
 41
0.0
 42
0.0
 10
88.4265193848727336
 20
97.7785116509801355
 40
0.0
 41
0.0
 42
0.0
 10
94.6446609406726225
 20
105.3553390593273207
 40
0.0
 41
0.0
 42
0.0
 10
102.2214883490198929
 20
111.5734806151272096
 40
0.0
 41
0.0
 42
0.0
 10
110.8658283817454873
 20
116.1939766255643463
 40
0.0
 41
0.0
 42
0.0
 10
120.2454838991935731
 20
119.0392640201615677
 40
0.0
 41
0.0
 42
0.0
 10
130.0
 20
120.0
 40
0.0
 41
0.0
 42
0.0
  0
ENDSEC
  0
SECTION
  2
OBJECTS
  0
DICTIONARY
  5
1
330
0
100
AcDbDictionary
280
0
281
0
  3
ACAD_COLOR
350
0
  3
ACAD_GROUP
350
0
  3
ACAD_LAYOUT
350
0
  3
ACAD_MATERIAL
350
0
  3
ACAD_SORTENTS
350
0
  3
ACAD_MLEADERSTYLE
350
0
  3
ACAD_MLINESTYLE
350
0
  3
ACAD_TABLESTYLE
350
0
  3
ACAD_PLOTSETTINGS
350
0
  3
AcDbVariableDictionary
350
0
  3
ACAD_SCALELIST
350
0
  3
ACAD_VISUALSTYLE
350
0
  3
ACAD_FIELDLIST
350
0
  3
ACAD_IMAGE_DICT
350
0
  0
DICTIONARY
  5
0
330
1
100
AcDbDictionary
280
0
281
0
  0
DICTIONARY
  5
0
330
1
100
AcDbDictionary
280
0
281
0
  0
DICTIONARY
  5
0
330
1
100
AcDbDictionary
280
0
281
0
  0
DICTIONARY
  5
0
330
1
100
AcDbDictionary
280
0
281
0
  0
DICTIONARY
  5
0
330
1
100
AcDbDictionary
280
0
281
0
  0
DICTIONARY
  5
0
330
1
100
AcDbDictionary
280
0
281
0
  0
DICTIONARY
  5
0
330
1
100
AcDbDictionary
280
0
281
0
  0
DICTIONARY
  5
0
330
1
100
AcDbDictionary
280
0
281
0
  0
DICTIONARY
  5
0
330
1
100
AcDbDictionary
280
0
281
0
  0
DICTIONARY
  5
0
330
1
100
AcDbDictionary
280
0
281
0
  0
DICTIONARY
  5
0
330
1
100
AcDbDictionary
280
0
281
0
  0
DICTIONARY
  5
0
330
1
100
AcDbDictionary
280
0
281
0
  0
DICTIONARY
  5
0
330
1
100
AcDbDictionary
280
0
281
0
  0
DICTIONARY
  5
0
330
1
100
AcDbDictionary
280
0
281
0
  0
ENDSEC
  0
EOF
