0
SECTION
2
HEADER
9
$ACADVER
1
AC1021
9
$LASTSAVEDBY
1
@tarikjabiri/dxf
9
$HANDSEED
5
46
9
$INSUNITS
70
0
9
$CLAYER
8
0
9
$VIEWCTR
10
571
20
449.1499938964844
0
ENDSEC
0
SECTION
2
CLASSES
0
ENDSEC
0
SECTION
2
TABLES
0
TABLE
2
VPORT
5
1
330
0
100
AcDbSymbolTable
70
1
0
VPORT
5
19
330
1
100
AcDbSymbolTableRecord
100
AcDbViewportTableRecord
2
*Active
70
0
10
0
20
0
11
1
21
1
12
571
22
449.1499938964844
13
0
23
0
14
10
24
10
15
10
25
10
16
0
26
0
36
1
17
0
27
0
37
0
40
856.7000122070312
41
2
42
50
43
0
44
0
50
0
51
0
71
0
72
100
73
1
74
3
75
0
76
1
77
0
78
0
281
0
65
1
110
0
120
0
130
0
111
1
121
0
131
0
112
0
122
1
132
0
79
0
146
0
348
10020
60
7
61
5
292
1
282
1
141
0
142
0
63
250
421
3358443
0
ENDTAB
0
TABLE
2
LTYPE
5
2
330
0
100
AcDbSymbolTable
70
3
0
LTYPE
5
12
330
2
100
AcDbSymbolTableRecord
100
AcDbLinetypeTableRecord
2
ByBlock
70
0
3

72
65
73
0
40
0
0
LTYPE
5
13
330
2
100
AcDbSymbolTableRecord
100
AcDbLinetypeTableRecord
2
ByLayer
70
0
3

72
65
73
0
40
0
0
LTYPE
5
14
330
2
100
AcDbSymbolTableRecord
100
AcDbLinetypeTableRecord
2
Continuous
70
0
3
Solid line
72
65
73
0
40
0
0
ENDTAB
0
TABLE
2
LAYER
5
3
330
0
100
AcDbSymbolTable
70
1
0
LAYER
5
15
330
3
100
AcDbSymbolTableRecord
100
AcDbLayerTableRecord
2
0
70
0
62
7
6
Continuous
370
0
390
0
0
ENDTAB
0
TABLE
2
STYLE
5
4
330
0
100
AcDbSymbolTable
70
1
0
STYLE
5
16
330
4
100
AcDbSymbolTableRecord
100
AcDbTextStyleTableRecord
2
Standard
70
0
40
0
41
1
50
0
71
0
42
1
3
txt
4

0
ENDTAB
0
TABLE
2
VIEW
5
5
330
0
100
AcDbSymbolTable
70
0
0
ENDTAB
0
TABLE
2
UCS
5
6
330
0
100
AcDbSymbolTable
70
0
0
ENDTAB
0
TABLE
2
APPID
5
7
330
0
100
AcDbSymbolTable
70
1
0
APPID
5
17
330
7
100
AcDbSymbolTableRecord
100
AcDbRegAppTableRecord
2
ACAD
70
0
0
ENDTAB
0
TABLE
2
DIMSTYLE
5
8
330
0
100
AcDbSymbolTable
70
1
100
AcDbDimStyleTable
0
DIMSTYLE
105
18
330
8
100
AcDbSymbolTableRecord
100
AcDbDimStyleTableRecord
2
Standard
70
0
340
16
0
ENDTAB
0
TABLE
2
BLOCK_RECORD
5
9
330
0
100
AcDbSymbolTable
70
2
0
BLOCK_RECORD
5
C
330
9
100
AcDbSymbolTableRecord
100
AcDbBlockTableRecord
2
*Model_Space
70
0
280
1
281
0
0
BLOCK_RECORD
5
F
330
9
100
AcDbSymbolTableRecord
100
AcDbBlockTableRecord
2
*Paper_Space
70
0
280
1
281
0
0
ENDTAB
0
ENDSEC
0
SECTION
2
BLOCKS
0
BLOCK
5
D
330
C
100
AcDbEntity
8
0
100
AcDbBlockBegin
2
*Model_Space
70
0
10
0
20
0
30
0
3
*Model_Space
1

0
ENDBLK
5
E
100
AcDbEntity
8
0
100
AcDbBlockEnd
0
BLOCK
5
10
330
F
100
AcDbEntity
8
0
100
AcDbBlockBegin
2
*Paper_Space
70
0
10
0
20
0
30
0
3
*Paper_Space
1

0
ENDBLK
5
11
100
AcDbEntity
8
0
100
AcDbBlockEnd
0
ENDSEC
0
SECTION
2
ENTITIES
0
LWPOLYLINE
5
1A
330
C
100
AcDbEntity
420
14737632
8
0
100
AcDbPolyline
90
42
70
0
43
0
38
0
39
0
10
12
20
815
10
308
20
815
10
308
20
815
10
310.34108386419354
20
814.7694233648388
10
312.59220118838107
20
814.0865543901355
10
314.66684279623524
20
812.9776353476306
10
316.4852813742386
20
811.4852813742385
10
317.97763534763055
20
809.6668427962352
10
319.08655439013546
20
807.5922011883811
10
319.76942336483876
20
805.3410838641936
10
320
20
803
10
320
20
599.7999877929688
10
320
20
599.7999877929688
10
319.76942336483876
20
597.4589039287753
10
319.08655439013546
20
595.2077866045877
10
317.97763534763055
20
593.1331449967336
10
316.4852813742386
20
591.3147064187301
10
314.66684279623524
20
589.8223524453382
10
312.59220118838107
20
588.7134334028333
10
310.34108386419354
20
588.03056442813
10
308
20
587.7999877929688
10
12
20
587.7999877929688
10
12
20
587.7999877929688
10
9.65891613580646
20
588.03056442813
10
7.407798811618923
20
588.7134334028333
10
5.3331572037647765
20
589.8223524453382
10
3.5147186257614305
20
591.3147064187301
10
2.022364652369456
20
593.1331449967336
10
0.91344560986456
20
595.2077866045877
10
0.23057663516123483
20
597.4589039287753
10
0
20
599.7999877929688
10
0
20
803
10
0
20
803
10
0.23057663516123483
20
805.3410838641936
10
0.9134456098645583
20
807.5922011883811
10
2.022364652369454
20
809.6668427962352
10
3.5147186257614287
20
811.4852813742385
10
5.333157203764774
20
812.9776353476306
10
7.407798811618916
20
814.0865543901355
10
9.658916135806455
20
814.7694233648388
10
11.999999999999998
20
815
10
12
20
815
0
LWPOLYLINE
5
1B
330
C
100
AcDbEntity
420
16777215
8
0
100
AcDbPolyline
90
5
70
0
43
0
38
0
39
0
10
1
20
814
10
319
20
814
10
319
20
761
10
1
20
761
10
1
20
814
0
TEXT
5
1C
330
C
100
AcDbEntity
420
16777215
8
0
100
AcDbText
10
21
20
777.5
30
0
40
20
1
Feature Overview
7
STANDARD
100
AcDbText
0
TEXT
5
1D
330
C
100
AcDbEntity
420
5592405
8
0
100
AcDbText
10
21
20
736.4666697184244
30
0
40
5.333333333333329
1
This card combines gradients, borders,
7
STANDARD
100
AcDbText
0
TEXT
5
1E
330
C
100
AcDbEntity
420
5592405
8
0
100
AcDbText
10
21
20
731.1333363850912
30
0
40
5.333333333333343
1
border-radius, box-shadow, and typography
7
STANDARD
100
AcDbText
0
TEXT
5
1F
330
C
100
AcDbEntity
420
5592405
8
0
100
AcDbText
10
21
20
725.8000030517578
30
0
40
5.333333333333329
1
in a realistic component layout.
7
STANDARD
100
AcDbText
0
LWPOLYLINE
5
20
330
C
100
AcDbEntity
420
14737632
8
0
100
AcDbPolyline
90
5
70
0
43
0
38
0
39
0
10
1
20
649.8000030517578
10
319
20
649.8000030517578
10
319
20
588.7999877929688
10
1
20
588.7999877929688
10
1
20
649.8000030517578
0
LWPOLYLINE
5
21
330
C
100
AcDbEntity
420
16777215
8
0
100
AcDbPolyline
90
42
70
0
43
0
38
0
39
0
10
27
20
636.8000030517578
10
90.9000015258789
20
636.8000030517578
10
90.9000015258789
20
636.8000030517578
10
92.07054345797567
20
636.6847147341772
10
93.19610212006944
20
636.3432802468255
10
94.23342292399651
20
635.788820725573
10
95.1426422129982
20
635.0426437388771
10
95.88881919969418
20
634.1334244498754
10
96.44327872094662
20
633.0961036459483
10
96.78471320829829
20
631.9705449838546
10
96.9000015258789
20
630.8000030517578
10
96.9000015258789
20
606.8000030517578
10
96.9000015258789
20
606.8000030517578
10
96.78471320829829
20
605.6294611196611
10
96.44327872094662
20
604.5039024575673
10
95.88881919969418
20
603.4665816536402
10
95.1426422129982
20
602.5573623646385
10
94.23342292399651
20
601.8111853779426
10
93.19610212006944
20
601.2567258566901
10
92.07054345797567
20
600.9152913693384
10
90.9000015258789
20
600.8000030517578
10
27
20
600.8000030517578
10
27
20
600.8000030517578
10
25.829458067903232
20
600.9152913693384
10
24.703899405809462
20
601.2567258566901
10
23.66657860188239
20
601.8111853779426
10
22.757359312880716
20
602.5573623646385
10
22.011182326184727
20
603.4665816536402
10
21.45672280493228
20
604.5039024575673
10
21.115288317580617
20
605.6294611196611
10
21
20
606.8000030517578
10
21
20
630.8000030517578
10
21
20
630.8000030517578
10
21.115288317580617
20
631.9705449838546
10
21.45672280493228
20
633.0961036459483
10
22.011182326184727
20
634.1334244498754
10
22.757359312880716
20
635.0426437388771
10
23.666578601882385
20
635.788820725573
10
24.70389940580946
20
636.3432802468255
10
25.82945806790323
20
636.6847147341772
10
27
20
636.8000030517578
10
27
20
636.8000030517578
0
TEXT
5
22
330
C
100
AcDbEntity
420
16777215
8
0
100
AcDbText
10
37
20
610.8000030517578
30
0
40
16
1
Accept
7
STANDARD
100
AcDbText
0
LWPOLYLINE
5
23
330
C
100
AcDbEntity
420
2001125
8
0
100
AcDbPolyline
90
42
70
0
43
0
38
0
39
0
10
112.9000015258789
20
636.8000030517578
10
180.1666717529297
20
636.8000030517578
10
180.1666717529297
20
636.8000030517578
10
181.33721368502646
20
636.6847147341772
10
182.46277234712022
20
636.3432802468255
10
183.5000931510473
20
635.788820725573
10
184.40931244004898
20
635.0426437388771
10
185.15548942674496
20
634.1334244498754
10
185.70994894799742
20
633.0961036459483
10
186.05138343534907
20
631.9705449838546
10
186.1666717529297
20
630.8000030517578
10
186.1666717529297
20
606.8000030517578
10
186.1666717529297
20
606.8000030517578
10
186.05138343534907
20
605.6294611196611
10
185.70994894799742
20
604.5039024575673
10
185.15548942674496
20
603.4665816536402
10
184.40931244004898
20
602.5573623646385
10
183.5000931510473
20
601.8111853779426
10
182.46277234712022
20
601.2567258566901
10
181.33721368502646
20
600.9152913693384
10
180.1666717529297
20
600.8000030517578
10
112.9000015258789
20
600.8000030517578
10
112.9000015258789
20
600.8000030517578
10
111.72945959378214
20
600.9152913693384
10
110.60390093168837
20
601.2567258566901
10
109.5665801277613
20
601.8111853779426
10
108.65736083875962
20
602.5573623646385
10
107.91118385206363
20
603.4665816536402
10
107.35672433081119
20
604.5039024575673
10
107.01528984345953
20
605.6294611196611
10
106.9000015258789
20
606.8000030517578
10
106.9000015258789
20
630.8000030517578
10
106.9000015258789
20
630.8000030517578
10
107.01528984345953
20
631.9705449838546
10
107.35672433081119
20
633.0961036459483
10
107.91118385206363
20
634.1334244498754
10
108.65736083875962
20
635.0426437388771
10
109.5665801277613
20
635.788820725573
10
110.60390093168836
20
636.3432802468255
10
111.72945959378214
20
636.6847147341772
10
112.9000015258789
20
636.8000030517578
10
112.9000015258789
20
636.8000030517578
0
TEXT
5
24
330
C
100
AcDbEntity
420
2001125
8
0
100
AcDbText
10
124.89999389648438
20
610.8000030517578
30
0
40
16
1
Cancel
7
STANDARD
100
AcDbText
0
LWPOLYLINE
5
25
330
C
100
AcDbEntity
420
14737632
8
0
100
AcDbPolyline
90
42
70
0
43
0
38
0
39
0
10
10
20
567.7999877929688
10
179.3333282470703
20
567.7999877929688
10
179.3333282470703
20
567.7999877929688
10
181.2842314672316
20
567.6078405970011
10
183.1601625707212
20
567.0387831180816
10
184.88903057726634
20
566.1146839159942
10
186.4043960589358
20
564.8710556048343
10
187.64802437009575
20
563.3556901231648
10
188.5721235721832
20
561.6268221166197
10
189.14118105110262
20
559.7508910131301
10
189.3333282470703
20
557.7999877929688
10
189.3333282470703
20
484.79998779296875
10
189.3333282470703
20
484.79998779296875
10
189.14118105110262
20
482.84908457280744
10
188.5721235721832
20
480.9731534693179
10
187.64802437009575
20
479.2442854627727
10
186.4043960589358
20
477.7289199811033
10
184.88903057726634
20
476.4852916699433
10
183.1601625707212
20
475.5611924678559
10
181.2842314672316
20
474.99213498893647
10
179.3333282470703
20
474.79998779296875
10
10
20
474.79998779296875
10
10
20
474.79998779296875
10
8.049096779838719
20
474.99213498893647
10
6.173165676349103
20
475.5611924678559
10
4.44429766980398
20
476.4852916699433
10
2.9289321881345254
20
477.7289199811033
10
1.6853038769745474
20
479.2442854627727
10
0.7612046748871322
20
480.9731534693179
10
0.1921471959676957
20
482.84908457280744
10
0
20
484.79998779296875
10
0
20
557.7999877929688
10
0
20
557.7999877929688
10
0.1921471959676957
20
559.7508910131301
10
0.7612046748871322
20
561.6268221166197
10
1.6853038769745456
20
563.3556901231648
10
2.9289321881345227
20
564.8710556048343
10
4.444297669803978
20
566.1146839159942
10
6.173165676349097
20
567.0387831180816
10
8.049096779838713
20
567.6078405970011
10
9.999999999999998
20
567.7999877929688
10
10
20
567.7999877929688
0
TEXT
5
26
330
C
100
AcDbEntity
420
1713022
8
0
100
AcDbText
10
52.633331298828125
20
510.79998779296875
30
0
40
40
1
1,284
7
STANDARD
100
AcDbText
0
TEXT
5
27
330
C
100
AcDbEntity
420
8947848
8
0
100
AcDbText
10
71.5
20
492.29998779296875
30
0
40
14
1
USERS
7
STANDARD
100
AcDbText
0
LWPOLYLINE
5
28
330
C
100
AcDbEntity
420
14737632
8
0
100
AcDbPolyline
90
42
70
0
43
0
38
0
39
0
10
215.3333282470703
20
567.7999877929688
10
384.6666564941406
20
567.7999877929688
10
384.6666564941406
20
567.7999877929688
10
386.61755971430193
20
567.6078405970011
10
388.4934908177915
20
567.0387831180816
10
390.22235882433665
20
566.1146839159942
10
391.7377243060061
20
564.8710556048343
10
392.98135261716607
20
563.3556901231648
10
393.90545181925347
20
561.6268221166197
10
394.4745092981729
20
559.7508910131301
10
394.6666564941406
20
557.7999877929688
10
394.6666564941406
20
484.79998779296875
10
394.6666564941406
20
484.79998779296875
10
394.4745092981729
20
482.84908457280744
10
393.90545181925347
20
480.9731534693179
10
392.98135261716607
20
479.2442854627727
10
391.7377243060061
20
477.7289199811033
10
390.22235882433665
20
476.4852916699433
10
388.4934908177915
20
475.5611924678559
10
386.61755971430193
20
474.99213498893647
10
384.6666564941406
20
474.79998779296875
10
215.3333282470703
20
474.79998779296875
10
215.3333282470703
20
474.79998779296875
10
213.38242502690903
20
474.99213498893647
10
211.5064939234194
20
475.5611924678559
10
209.77762591687429
20
476.4852916699433
10
208.26226043520484
20
477.7289199811033
10
207.01863212404487
20
479.2442854627727
10
206.09453292195744
20
480.9731534693179
10
205.525475443038
20
482.84908457280744
10
205.3333282470703
20
484.79998779296875
10
205.3333282470703
20
557.7999877929688
10
205.3333282470703
20
557.7999877929688
10
205.525475443038
20
559.7508910131301
10
206.09453292195744
20
561.6268221166197
10
207.01863212404487
20
563.3556901231648
10
208.26226043520484
20
564.8710556048343
10
209.77762591687429
20
566.1146839159942
10
211.5064939234194
20
567.0387831180816
10
213.38242502690903
20
567.6078405970011
10
215.3333282470703
20
567.7999877929688
10
215.3333282470703
20
567.7999877929688
0
TEXT
5
29
330
C
100
AcDbEntity
420
1713022
8
0
100
AcDbText
10
262.6333312988281
20
510.79998779296875
30
0
40
40
1
$34k
7
STANDARD
100
AcDbText
0
TEXT
5
2A
330
C
100
AcDbEntity
420
8947848
8
0
100
AcDbText
10
267.5
20
492.29998779296875
30
0
40
14
1
REVENUE
7
STANDARD
100
AcDbText
0
LWPOLYLINE
5
2B
330
C
100
AcDbEntity
420
14737632
8
0
100
AcDbPolyline
90
42
70
0
43
0
38
0
39
0
10
420.6666564941406
20
567.7999877929688
10
590
20
567.7999877929688
10
590
20
567.7999877929688
10
591.9509032201613
20
567.6078405970011
10
593.8268343236509
20
567.0387831180816
10
595.555702330196
20
566.1146839159942
10
597.0710678118655
20
564.8710556048343
10
598.3146961230254
20
563.3556901231648
10
599.2387953251128
20
561.6268221166197
10
599.8078528040323
20
559.7508910131301
10
600
20
557.7999877929688
10
600
20
484.79998779296875
10
600
20
484.79998779296875
10
599.8078528040323
20
482.84908457280744
10
599.2387953251128
20
480.9731534693179
10
598.3146961230254
20
479.2442854627727
10
597.0710678118655
20
477.7289199811033
10
595.555702330196
20
476.4852916699433
10
593.8268343236509
20
475.5611924678559
10
591.9509032201613
20
474.99213498893647
10
590
20
474.79998779296875
10
420.6666564941406
20
474.79998779296875
10
420.6666564941406
20
474.79998779296875
10
418.7157532739793
20
474.99213498893647
10
416.83982217048975
20
475.5611924678559
10
415.1109541639446
20
476.4852916699433
10
413.59558868227515
20
477.7289199811033
10
412.3519603711152
20
479.2442854627727
10
411.4278611690278
20
480.9731534693179
10
410.85880369010835
20
482.84908457280744
10
410.6666564941406
20
484.79998779296875
10
410.6666564941406
20
557.7999877929688
10
410.6666564941406
20
557.7999877929688
10
410.85880369010835
20
559.7508910131301
10
411.4278611690278
20
561.6268221166197
10
412.3519603711152
20
563.3556901231648
10
413.59558868227515
20
564.8710556048343
10
415.1109541639446
20
566.1146839159942
10
416.8398221704897
20
567.0387831180816
10
418.7157532739793
20
567.6078405970011
10
420.6666564941406
20
567.7999877929688
10
420.6666564941406
20
567.7999877929688
0
TEXT
5
2C
330
C
100
AcDbEntity
420
1713022
8
0
100
AcDbText
10
458.6499938964844
20
510.79998779296875
30
0
40
40
1
98.6%
7
STANDARD
100
AcDbText
0
TEXT
5
2D
330
C
100
AcDbEntity
420
8947848
8
0
100
AcDbText
10
479.6666564941406
20
492.29998779296875
30
0
40
14
1
UPTIME
7
STANDARD
100
AcDbText
0
LWPOLYLINE
5
2E
330
C
100
AcDbEntity
420
14737632
8
0
100
AcDbPolyline
90
42
70
0
43
0
38
0
39
0
10
8
20
454.79998779296875
10
1232
20
454.79998779296875
10
1232
20
454.79998779296875
10
1233.5607225761291
20
454.6462700361946
10
1235.0614674589208
20
454.19102405305904
10
1236.4445618641569
20
453.45174469138914
10
1237.6568542494924
20
452.4568420424611
10
1238.6517568984204
20
451.24454965712556
10
1239.3910362600902
20
449.8614552518895
10
1239.846282243226
20
448.3607103690978
10
1240
20
446.79998779296875
10
1240
20
305.29998779296875
10
1240
20
305.29998779296875
10
1239.846282243226
20
303.7392652168397
10
1239.3910362600902
20
302.2385203340481
10
1238.6517568984204
20
300.8554259288119
10
1237.6568542494924
20
299.6431335434763
10
1236.4445618641569
20
298.6482308945484
10
1235.0614674589208
20
297.9089515328784
10
1233.5607225761291
20
297.45370554974295
10
1232
20
297.29998779296875
10
8
20
297.29998779296875
10
8
20
297.29998779296875
10
6.4392774238709745
20
297.45370554974295
10
4.938532541079282
20
297.9089515328784
10
3.5554381358431844
20
298.6482308945484
10
2.3431457505076203
20
299.6431335434763
10
1.3482431015796372
20
300.8554259288119
10
0.6089637399097061
20
302.2385203340481
10
0.15371775677415656
20
303.7392652168397
10
0
20
305.29998779296875
10
0
20
446.79998779296875
10
0
20
446.79998779296875
10
0.15371775677415656
20
448.3607103690978
10
0.6089637399097052
20
449.8614552518895
10
1.3482431015796363
20
451.24454965712556
10
2.3431457505076185
20
452.4568420424611
10
3.5554381358431826
20
453.45174469138914
10
4.938532541079278
20
454.19102405305904
10
6.439277423870971
20
454.6462700361946
10
7.999999999999998
20
454.79998779296875
10
8
20
454.79998779296875
0
LWPOLYLINE
5
2F
330
C
100
AcDbEntity
420
4367861
8
0
100
AcDbPolyline
90
5
70
0
43
0
38
0
39
0
10
27
20
357.79998779296875
10
57
20
357.79998779296875
10
57
20
317.79998779296875
10
27
20
317.79998779296875
10
27
20
357.79998779296875
0
LWPOLYLINE
5
30
330
C
100
AcDbEntity
420
4367861
8
0
100
AcDbPolyline
90
5
70
0
43
0
38
0
39
0
10
67
20
387.79998779296875
10
97
20
387.79998779296875
10
97
20
317.79998779296875
10
67
20
317.79998779296875
10
67
20
387.79998779296875
0
LWPOLYLINE
5
31
330
C
100
AcDbEntity
420
4367861
8
0
100
AcDbPolyline
90
5
70
0
43
0
38
0
39
0
10
107
20
407.79998779296875
10
137
20
407.79998779296875
10
137
20
317.79998779296875
10
107
20
317.79998779296875
10
107
20
407.79998779296875
0
LWPOLYLINE
5
32
330
C
100
AcDbEntity
420
4367861
8
0
100
AcDbPolyline
90
5
70
0
43
0
38
0
39
0
10
147
20
377.79998779296875
10
177
20
377.79998779296875
10
177
20
317.79998779296875
10
147
20
317.79998779296875
10
147
20
377.79998779296875
0
LWPOLYLINE
5
33
330
C
100
AcDbEntity
420
4367861
8
0
100
AcDbPolyline
90
5
70
0
43
0
38
0
39
0
10
187
20
417.79998779296875
10
217
20
417.79998779296875
10
217
20
317.79998779296875
10
187
20
317.79998779296875
10
187
20
417.79998779296875
0
LWPOLYLINE
5
34
330
C
100
AcDbEntity
420
4367861
8
0
100
AcDbPolyline
90
5
70
0
43
0
38
0
39
0
10
227
20
392.79998779296875
10
257
20
392.79998779296875
10
257
20
317.79998779296875
10
227
20
317.79998779296875
10
227
20
392.79998779296875
0
LWPOLYLINE
5
35
330
C
100
AcDbEntity
420
4367861
8
0
100
AcDbPolyline
90
5
70
0
43
0
38
0
39
0
10
267
20
427.79998779296875
10
297
20
427.79998779296875
10
297
20
317.79998779296875
10
267
20
317.79998779296875
10
267
20
427.79998779296875
0
LWPOLYLINE
5
36
330
C
100
AcDbEntity
420
15022389
8
0
100
AcDbPolyline
90
7
70
0
43
0
38
0
39
0
10
42
20
367.79998779296875
10
82
20
397.79998779296875
10
122
20
417.79998779296875
10
162
20
387.79998779296875
10
202
20
427.79998779296875
10
242
20
402.79998779296875
10
282
20
432.79998779296875
0
TEXT
5
37
330
C
100
AcDbEntity
420
0
8
0
100
AcDbText
10
127.5250015258789
20
317.79998779296875
30
0
40
11
1
Monthly Data
7
STANDARD
100
AcDbText
0
LWPOLYLINE
5
38
330
C
100
AcDbEntity
420
16777215
8
0
100
AcDbPolyline
90
42
70
0
43
0
38
0
39
0
10
13.5
20
277.29998779296875
10
50.5
20
277.29998779296875
10
50.5
20
277.29998779296875
10
53.133719347217735
20
277.0405890784124
10
55.666226336928716
20
276.27236148187114
10
58.00019814576463
20
275.02482755905316
10
60.04594154601839
20
273.34592933898716
10
61.72483976608436
20
271.3001859387334
10
62.97237368890237
20
268.9662141298975
10
63.74060128544361
20
266.43370714018647
10
64
20
263.79998779296875
10
64
20
263.79998779296875
10
64
20
263.79998779296875
10
63.74060128544361
20
261.16626844575103
10
62.97237368890237
20
258.63376145604
10
61.72483976608436
20
256.2997896472041
10
60.04594154601839
20
254.25404624695034
10
58.00019814576463
20
252.57514802688434
10
55.666226336928716
20
251.32761410406636
10
53.133719347217735
20
250.55938650752512
10
50.5
20
250.29998779296875
10
13.5
20
250.29998779296875
10
13.5
20
250.29998779296875
10
10.866280652782269
20
250.55938650752512
10
8.333773663071288
20
251.32761410406636
10
5.999801854235374
20
252.57514802688434
10
3.9540584539816095
20
254.25404624695034
10
2.2751602339156385
20
256.2997896472041
10
1.0276263110976291
20
258.63376145604
10
0.2593987145563901
20
261.16626844575103
10
0
20
263.79998779296875
10
0
20
263.79998779296875
10
0
20
263.79998779296875
10
0.2593987145563901
20
266.43370714018647
10
1.0276263110976274
20
268.9662141298975
10
2.2751602339156367
20
271.3001859387334
10
3.954058453981606
20
273.34592933898716
10
5.99980185423537
20
275.02482755905316
10
8.33377366307128
20
276.27236148187114
10
10.866280652782264
20
277.0405890784124
10
13.499999999999998
20
277.29998779296875
10
13.5
20
277.29998779296875
0
TEXT
5
39
330
C
100
AcDbEntity
420
16777215
8
0
100
AcDbText
10
14
20
256.79998779296875
30
0
40
14
1
Active
7
STANDARD
100
AcDbText
0
LWPOLYLINE
5
3A
330
C
100
AcDbEntity
420
16777215
8
0
100
AcDbPolyline
90
5
70
0
43
0
38
0
39
0
10
75.34508514404297
20
275.3101806640625
10
150.57518005371094
20
279.2528076171875
10
151.98825073242188
20
252.289794921875
10
76.7581558227539
20
248.34716796875
10
75.34508514404297
20
275.3101806640625
0
TEXT
5
3B
330
C
100
AcDbEntity
420
16777215
8
0
100
AcDbText
10
90.39878845214844
20
255.5709228515625
30
0
40
13.9808349609375
1
Pending
7
STANDARD
100
AcDbText
0
LWPOLYLINE
5
3C
330
C
100
AcDbEntity
420
16777215
8
0
100
AcDbPolyline
90
42
70
0
43
0
38
0
39
0
10
174.75
20
278.64996337890625
10
220.58331298828125
20
278.64996337890625
10
220.58331298828125
20
278.64996337890625
10
223.48040546095757
20
278.3646246756168
10
226.26616429461714
20
277.5195739720964
10
228.83353433955395
20
276.14728609297117
10
231.08385300473876
20
274.30049729184816
10
232.93064180586182
20
272.0501786266633
10
234.30292968498702
20
269.48280858172654
10
235.1479803885075
20
266.697049748067
10
235.43331909179688
20
263.7999572753906
10
235.43331909179688
20
263.7999572753906
10
235.43331909179688
20
263.7999572753906
10
235.1479803885075
20
260.90286480271425
10
234.30292968498702
20
258.1171059690547
10
232.93064180586182
20
255.54973592411795
10
231.08385300473876
20
253.2994172589331
10
228.83353433955395
20
251.45262845781008
10
226.26616429461714
20
250.08034057868485
10
223.48040546095757
20
249.23528987516443
10
220.58331298828125
20
248.949951171875
10
174.75
20
248.949951171875
10
174.75
20
248.949951171875
10
171.85290752732368
20
249.23528987516443
10
169.0671486936641
20
250.08034057868485
10
166.4997786487273
20
251.45262845781008
10
164.2494599835425
20
253.2994172589331
10
162.40267118241943
20
255.54973592411795
10
161.03038330329423
20
258.1171059690547
10
160.18533259977374
20
260.90286480271425
10
159.89999389648438
20
263.7999572753906
10
159.89999389648438
20
263.7999572753906
10
159.89999389648438
20
263.7999572753906
10
160.18533259977374
20
266.697049748067
10
161.03038330329423
20
269.48280858172654
10
162.40267118241943
20
272.0501786266633
10
164.24945998354247
20
274.30049729184816
10
166.4997786487273
20
276.14728609297117
10
169.0671486936641
20
277.5195739720964
10
171.85290752732365
20
278.3646246756168
10
174.75
20
278.64996337890625
10
174.75
20
278.64996337890625
0
TEXT
5
3D
330
C
100
AcDbEntity
420
16777215
8
0
100
AcDbText
10
175.29998779296875
20
256.0999755859375
30
0
40
15.4000244140625
1
Critical
7
STANDARD
100
AcDbText
0
LWPOLYLINE
5
3E
330
C
100
AcDbEntity
420
16777215
8
0
100
AcDbPolyline
90
5
70
0
43
0
38
0
39
0
10
245.18109130859375
20
277.29998779296875
10
295.18109130859375
20
277.29998779296875
10
292.81890869140625
20
250.29998779296875
10
242.81890869140625
20
250.29998779296875
10
245.18109130859375
20
277.29998779296875
0
TEXT
5
3F
330
C
100
AcDbEntity
420
16777215
8
0
100
AcDbText
10
257.3875732421875
20
256.79998779296875
30
0
40
14
1
Info
7
STANDARD
100
AcDbText
0
LWPOLYLINE
5
40
330
C
100
AcDbEntity
420
8280002
8
0
100
AcDbPolyline
90
42
70
0
43
0
38
0
39
0
10
10
20
230.29998779296875
10
1230
20
230.29998779296875
10
1230
20
230.29998779296875
10
1231.9509032201613
20
230.1078405970011
10
1233.826834323651
20
229.5387831180816
10
1235.555702330196
20
228.6146839159942
10
1237.0710678118655
20
227.37105560483417
10
1238.3146961230254
20
225.85569012316478
10
1239.238795325113
20
224.12682211661968
10
1239.8078528040323
20
222.25089101313006
10
1240
20
220.29998779296875
10
1240
20
190.79998779296875
10
1240
20
190.79998779296875
10
1239.8078528040323
20
188.84908457280744
10
1239.238795325113
20
186.97315346931782
10
1238.3146961230254
20
185.24428546277272
10
1237.0710678118655
20
183.72891998110333
10
1235.555702330196
20
182.4852916699433
10
1233.826834323651
20
181.5611924678559
10
1231.9509032201613
20
180.9921349889364
10
1230
20
180.79998779296875
10
10
20
180.79998779296875
10
10
20
180.79998779296875
10
8.049096779838719
20
180.9921349889364
10
6.173165676349103
20
181.5611924678559
10
4.44429766980398
20
182.4852916699433
10
2.9289321881345254
20
183.72891998110322
10
1.6853038769745474
20
185.24428546277272
10
0.7612046748871322
20
186.97315346931782
10
0.1921471959676957
20
188.84908457280744
10
0
20
190.79998779296875
10
0
20
220.29998779296875
10
0
20
220.29998779296875
10
0.1921471959676957
20
222.25089101313006
10
0.7612046748871322
20
224.12682211661968
10
1.6853038769745456
20
225.85569012316478
10
2.9289321881345227
20
227.37105560483417
10
4.444297669803978
20
228.6146839159942
10
6.173165676349097
20
229.5387831180816
10
8.049096779838713
20
230.1078405970011
10
9.999999999999998
20
230.29998779296875
10
10
20
230.29998779296875
0
TEXT
5
41
330
C
100
AcDbEntity
420
4532128
8
0
100
AcDbText
10
2
20
210.79998779296875
30
0
40
17
1
Shadow DOM Widget
7
STANDARD
100
AcDbText
0
TEXT
5
42
330
C
100
AcDbEntity
420
6174129
8
0
100
AcDbText
10
2
20
185.04998779296875
30
0
40
15
1
This widget lives inside a declarative shadow root with its own scoped styles, gradients, and borders.
7
STANDARD
100
AcDbText
0
LWPOLYLINE
5
43
330
C
100
AcDbEntity
420
0
8
0
100
AcDbPolyline
90
42
70
0
43
0
38
0
39
0
10
50
20
160.79998779296875
10
50
20
160.79998779296875
10
50
20
160.79998779296875
10
59.75451610080641
20
159.83925181313032
10
69.1341716182545
20
156.9939644185331
10
77.77851165098011
20
152.37346840809596
10
85.35533905932738
20
146.15532685229607
10
91.57348061512727
20
138.57849944394889
10
96.19397662556435
20
129.93415941122328
10
99.03926402016153
20
120.55450389377518
10
100
20
110.79998779296875
10
100
20
110.79998779296875
10
100
20
110.79998779296875
10
99.03926402016153
20
101.04547169216232
10
96.19397662556435
20
91.66581617471422
10
91.57348061512727
20
83.02147614198861
10
85.35533905932738
20
75.44464873364143
10
77.77851165098011
20
69.22650717784154
10
69.1341716182545
20
64.6060111674044
10
59.75451610080641
20
61.76072377280718
10
50
20
60.79998779296875
10
50
20
60.79998779296875
10
50
20
60.79998779296875
10
40.24548389919359
20
61.76072377280718
10
30.865828381745512
20
64.6060111674044
10
22.221488349019904
20
69.22650717784154
10
14.64466094067263
20
75.44464873364132
10
8.426519384872734
20
83.02147614198861
10
3.806023374435661
20
91.66581617471422
10
0.9607359798384749
20
101.04547169216232
10
0
20
110.79998779296875
10
0
20
110.79998779296875
10
0
20
110.79998779296875
10
0.9607359798384749
20
120.55450389377518
10
3.806023374435661
20
129.93415941122328
10
8.426519384872726
20
138.57849944394889
10
14.644660940672615
20
146.15532685229607
10
22.221488349019893
20
152.37346840809596
10
30.865828381745484
20
156.9939644185331
10
40.245483899193566
20
159.83925181313032
10
49.99999999999999
20
160.79998779296875
10
50
20
160.79998779296875
0
LWPOLYLINE
5
44
330
C
100
AcDbEntity
420
0
8
0
100
AcDbPolyline
90
42
70
0
43
0
38
0
39
0
10
90
20
140.79998779296875
10
90
20
140.79998779296875
10
90
20
140.79998779296875
10
99.75451610080641
20
139.83925181313032
10
109.1341716182545
20
136.9939644185331
10
117.77851165098011
20
132.37346840809596
10
125.35533905932738
20
126.15532685229607
10
131.57348061512727
20
118.57849944394889
10
136.19397662556435
20
109.93415941122328
10
139.0392640201615
20
100.55450389377518
10
140
20
90.79998779296875
10
140
20
90.79998779296875
10
140
20
90.79998779296875
10
139.0392640201615
20
81.04547169216232
10
136.19397662556435
20
71.66581617471422
10
131.57348061512727
20
63.021476141988614
10
125.35533905932738
20
55.44464873364143
10
117.77851165098011
20
49.22650717784154
10
109.1341716182545
20
44.606011167404404
10
99.75451610080641
20
41.76072377280718
10
90
20
40.79998779296875
10
90
20
40.79998779296875
10
90
20
40.79998779296875
10
80.24548389919359
20
41.76072377280718
10
70.86582838174552
20
44.606011167404404
10
62.22148834901991
20
49.22650717784154
10
54.64466094067263
20
55.444648733641316
10
48.426519384872734
20
63.021476141988614
10
43.80602337443566
20
71.66581617471422
10
40.960735979838475
20
81.04547169216232
10
40
20
90.79998779296875
10
40
20
90.79998779296875
10
40
20
90.79998779296875
10
40.960735979838475
20
100.55450389377518
10
43.80602337443566
20
109.93415941122328
10
48.42651938487273
20
118.57849944394889
10
54.644660940672615
20
126.15532685229607
10
62.22148834901989
20
132.37346840809596
10
70.86582838174549
20
136.9939644185331
10
80.24548389919357
20
139.83925181313032
10
89.99999999999999
20
140.79998779296875
10
90
20
140.79998779296875
0
LWPOLYLINE
5
45
330
C
100
AcDbEntity
420
0
8
0
100
AcDbPolyline
90
42
70
0
43
0
38
0
39
0
10
130
20
120.79998779296875
10
130
20
120.79998779296875
10
130
20
120.79998779296875
10
139.75451610080643
20
119.83925181313032
10
149.1341716182545
20
116.9939644185331
10
157.7785116509801
20
112.37346840809596
10
165.35533905932738
20
106.15532685229607
10
171.57348061512727
20
98.57849944394889
10
176.19397662556435
20
89.93415941122328
10
179.0392640201615
20
80.55450389377518
10
180
20
70.79998779296875
10
180
20
70.79998779296875
10
180
20
70.79998779296875
10
179.0392640201615
20
61.04547169216232
10
176.19397662556435
20
51.66581617471422
10
171.57348061512727
20
43.021476141988614
10
165.35533905932738
20
35.44464873364143
10
157.7785116509801
20
29.22650717784154
10
149.1341716182545
20
24.606011167404404
10
139.75451610080643
20
21.760723772807182
10
130
20
20.79998779296875
10
130
20
20.79998779296875
10
130
20
20.79998779296875
10
120.24548389919359
20
21.760723772807182
10
110.86582838174552
20
24.606011167404404
10
102.2214883490199
20
29.22650717784154
10
94.64466094067262
20
35.444648733641316
10
88.42651938487273
20
43.021476141988614
10
83.80602337443565
20
51.66581617471422
10
80.96073597983847
20
61.04547169216232
10
80
20
70.79998779296875
10
80
20
70.79998779296875
10
80
20
70.79998779296875
10
80.96073597983847
20
80.55450389377518
10
83.80602337443565
20
89.93415941122328
10
88.42651938487273
20
98.57849944394889
10
94.64466094067262
20
106.15532685229607
10
102.22148834901989
20
112.37346840809596
10
110.86582838174549
20
116.9939644185331
10
120.24548389919357
20
119.83925181313032
10
130
20
120.79998779296875
10
130
20
120.79998779296875
0
ENDSEC
0
SECTION
2
OBJECTS
0
DICTIONARY
5
A
330
0
100
AcDbDictionary
281
1
3
ACAD_GROUP
350
B
0
DICTIONARY
5
B
330
A
100
AcDbDictionary
281
0
0
ENDSEC
0
EOF