  0
SECTION
  2
HEADER
  9
$ANGBASE
 50
0.0
  9
$ANGDIR
 70
1
  9
$AUNITS
 70
0
  9
$AUPREC
 70
0
  9
$ATTMODE
 70
1
  9
$DWGCODEPAGE
  3
ANSI_1252
  9
$TDCREATE
 40
2461147.3337897686287761
  9
$CECOLOR
 62
256
  9
$CELTSCALE
 40
1.0
  9
$CELWEIGHT
370
-1
  9
$CLAYER
  8
0
  9
$CELTYPE
  6
ByLayer
  9
$CMLJUST
 70
0
  9
$CMLSCALE
 40
20.0
  9
$CMLSTYLE
  2
Standard
  9
$DIMSTYLE
  2
Standard
  9
$LWDISPLAY
290
0
  9
$EXTNAMES
290
1
  9
$HANDSEED
  5
59
  9
$INSUNITS
 70
0
  9
$LUNITS
 70
2
  9
$LUPREC
 70
4
  9
$LTSCALE
 40
1.0
  9
$MIRRTEXT
 70
0
  9
$INSBASE
 10
0.0
 20
0.0
 30
0.0
  9
$SPLINESEGS
 70
8
  9
$PSLTSCALE
 70
1
  9
$PDMODE
 70
0
  9
$PDSIZE
 40
0.0
  9
$PLINEGEN
 70
0
  9
$TEXTSIZE
 40
0.2
  9
$TEXTSTYLE
  7
Standard
  9
$TDINDWG
 40
0.0
  9
$TDUCREATE
 40
2461147.3337897686287761
  9
$TDUUPDATE
 40
2461147.3337897686287761
  9
$TDUPDATE
 40
2461147.3337897686287761
  9
$ACADVER
  1
AC1018
  0
ENDSEC
  0
SECTION
  2
CLASSES
  0
CLASS
  1
ACDBDICTIONARYWDFLT
  2
AcDbDictionaryWithDefault
  3
ObjectDBX Classes
 90
32768
 91
0
280
0
281
0
  0
CLASS
  1
ACDBPLACEHOLDER
  2
AcDbPlaceHolder
  3
ObjectDBX Classes
 90
0
 91
0
280
0
281
0
  0
CLASS
  1
LAYOUT
  2
AcDbLayout
  3
ObjectDBX Classes
 90
0
 91
0
280
0
281
0
  0
CLASS
  1
DICTIONARYVAR
  2
AcDbDictionaryVar
  3
ObjectDBX Classes
 90
0
 91
0
280
0
281
0
  0
CLASS
  1
TABLESTYLE
  2
AcDbTableStyle
  3
ObjectDBX Classes
 90
4095
 91
0
280
0
281
0
  0
CLASS
  1
MATERIAL
  2
AcDbMaterial
  3
ObjectDBX Classes
 90
1153
 91
0
280
0
281
0
  0
CLASS
  1
VISUALSTYLE
  2
AcDbVisualStyle
  3
ObjectDBX Classes
 90
4095
 91
0
280
0
281
0
  0
CLASS
  1
SCALE
  2
AcDbScale
  3
ObjectDBX Classes
 90
1153
 91
0
280
0
281
0
  0
CLASS
  1
MLEADERSTYLE
  2
AcDbMLeaderStyle
  3
ObjectDBX Classes
 90
4095
 91
0
280
0
281
0
  0
CLASS
  1
CELLSTYLEMAP
  2
AcDbCellStyleMap
  3
ObjectDBX Classes
 90
1152
 91
0
280
0
281
0
  0
CLASS
  1
EXACXREFPANELOBJECT
  2
ExAcXREFPanelObject
  3
ObjectDBX Classes
 90
1025
 91
0
280
0
281
0
  0
CLASS
  1
NPOCOLLECTION
  2
AcDbImpNonPersistentObjectsCollection
  3
ObjectDBX Classes
 90
1153
 91
0
280
0
281
0
  0
CLASS
  1
LAYER_INDEX
  2
AcDbLayerIndex
  3
ObjectDBX Classes
 90
0
 91
0
280
0
281
0
  0
CLASS
  1
SPATIAL_INDEX
  2
AcDbSpatialIndex
  3
ObjectDBX Classes
 90
0
 91
0
280
0
281
0
  0
CLASS
  1
IDBUFFER
  2
AcDbIdBuffer
  3
ObjectDBX Classes
 90
32768
 91
0
280
0
281
0
  0
CLASS
  1
ACDBSECTIONVIEWSTYLE
  2
AcDbSectionViewStyle
  3
ObjectDBX Classes
 90
1025
 91
0
280
0
281
0
  0
CLASS
  1
ACDBDETAILVIEWSTYLE
  2
AcDbDetailViewStyle
  3
ObjectDBX Classes
 90
1025
 91
0
280
0
281
0
  0
CLASS
  1
MESH
  2
AcDbSubDMesh
  3
ObjectDBX Classes
 90
0
 91
0
280
0
281
1
  0
CLASS
  1
SORTENTSTABLE
  2
AcDbSortentsTable
  3
ObjectDBX Classes
 90
0
 91
0
280
0
281
0
  0
CLASS
  1
ACDB_TEXTOBJECTCONTEXTDATA_CLASS
  2
AcDbTextObjectContextData
  3
ObjectDBX Classes
 90
1153
 91
0
280
0
281
0
  0
CLASS
  1
WIPEOUT
  2
AcDbWipeout
  3
WipeOut
 90
32895
 91
0
280
0
281
1
  0
CLASS
  1
WIPEOUTVARIABLES
  2
AcDbWipeoutVariables
  3
WipeOut
 90
32768
 91
0
280
0
281
0
  0
CLASS
  1
DIMASSOC
  2
AcDbDimAssoc
  3
AcDbDimAssoc
 90
0
 91
0
280
0
281
0
  0
CLASS
  1
ACAD_TABLE
  2
AcDbTable
  3
ObjectDBX Classes
 90
1025
 91
0
280
0
281
1
  0
CLASS
  1
TABLECONTENT
  2
AcDbTableContent
  3
ObjectDBX Classes
 90
1152
 91
0
280
0
281
0
  0
CLASS
  1
TABLEGEOMETRY
  2
AcDbTableGeometry
  3
ObjectDBX Classes
 90
1152
 91
0
280
0
281
0
  0
CLASS
  1
IMAGE
  2
AcDbRasterImage
  3
ISM
 90
32895
 91
0
280
0
281
1
  0
CLASS
  1
IMAGEDEF
  2
AcDbRasterImageDef
  3
ISM
 90
0
 91
0
280
0
281
0
  0
CLASS
  1
IMAGEDEF_REACTOR
  2
AcDbRasterImageDefReactor
  3
ISM
 90
1
 91
0
280
0
281
0
  0
CLASS
  1
DBCOLOR
  2
AcDbColor
  3
ObjectDBX Classes
 90
0
 91
0
280
0
281
0
  0
CLASS
  1
GEODATA
  2
AcDbGeoData
  3
ObjectDBX Classes
 90
4095
 91
0
280
0
281
0
  0
CLASS
  1
MULTILEADER
  2
AcDbMLeader
  3
ObjectDBX Classes
 90
1025
 91
0
280
0
281
0
  0
CLASS
  1
PDFUNDERLAY
  2
AcDbPdfReference
  3
ObjectDBX Classes
 90
4095
 91
0
280
0
281
1
  0
CLASS
  1
PDFDEFINITION
  2
AcDbPdfDefinition
  3
ObjectDBX Classes
 90
1153
 91
0
280
0
281
0
  0
CLASS
  1
RASTERVARIABLES
  2
AcDbRasterVariables
  3
ISM
 90
0
 91
0
280
0
281
0
  0
CLASS
  1
SPATIAL_FILTER
  2
AcDbSpatialFilter
  3
ObjectDBX Classes
 90
0
 91
0
280
0
281
0
  0
CLASS
  1
ACDB_MLEADEROBJECTCONTEXTDATA_CLASS
  2
AcDbMLeaderObjectContextData
  3
ObjectDBX Classes
 90
1025
 91
0
280
0
281
0
  0
CLASS
  1
PLOTSETTINGS
  2
AcDbPlotSettings
  3
ObjectDBX Classes
 90
0
 91
0
280
0
281
0
  0
CLASS
  1
FIELD
  2
AcDbField
  3
ObjectDBX Classes
 90
1152
 91
0
280
0
281
0
  0
CLASS
  1
FIELDLIST
  2
AcDbFieldList
  3
ObjectDBX Classes
 90
1152
 91
0
280
0
281
0
  0
CLASS
  1
ACDB_MTEXTATTRIBUTEOBJECTCONTEXTDATA_CLASS
  2
AcDbMTextAttributeObjectContextData
  3
ObjectDBX Classes
 90
1153
 91
0
280
0
281
0
  0
CLASS
  1
ACDB_BLKREFOBJECTCONTEXTDATA_CLASS
  2
AcDbBlkRefObjectContextData
  3
ObjectDBX Classes
 90
1153
 91
0
280
0
281
0
  0
ENDSEC
  0
SECTION
  2
TABLES
  0
TABLE
  2
VPORT
  5
18
330
0
100
AcDbSymbolTable
 70
1
  0
VPORT
  5
26
330
18
100
AcDbSymbolTableRecord
100
AcDbViewportTableRecord
  2
*Active
 70
0
 10
0.0
 20
0.0
 11
1.0
 21
1.0
 12
0.0
 22
0.0
 13
0.0
 23
0.0
 14
0.5
 24
0.5
 15
10.0
 25
10.0
 16
0.0
 26
0.0
 36
1.0
 17
0.0
 27
0.0
 37
0.0
 40
10.0
 41
1.0
 75
0
 76
1
  0
ENDTAB
  0
TABLE
  2
LTYPE
  5
14
330
0
100
AcDbSymbolTable
 70
3
  0
LTYPE
  5
19
330
14
100
AcDbSymbolTableRecord
100
AcDbLinetypeTableRecord
  2
ByLayer
 70
0
 72
0
 73
0
 40
0.0
  0
LTYPE
  5
1A
330
14
100
AcDbSymbolTableRecord
100
AcDbLinetypeTableRecord
  2
ByBlock
 70
0
 72
0
 73
0
 40
0.0
  0
LTYPE
  5
1B
330
14
100
AcDbSymbolTableRecord
100
AcDbLinetypeTableRecord
  2
Continuous
 70
0
 72
0
 73
0
 40
0.0
  0
ENDTAB
  0
TABLE
  2
LAYER
  5
13
330
0
100
AcDbSymbolTable
 70
1
  0
LAYER
  5
1C
330
13
100
AcDbSymbolTableRecord
100
AcDbLayerTableRecord
  2
0
 70
0
 62
7
  6
Continuous
290
1
370
-3
390
0
  0
ENDTAB
  0
TABLE
  2
STYLE
  5
15
330
0
100
AcDbSymbolTable
 70
1
  0
STYLE
  5
23
330
15
100
AcDbSymbolTableRecord
100
AcDbTextStyleTableRecord
  2
Standard
 70
0
 40
0.0
 41
1.0
 42
0.0
 50
0.0
 71
0
  0
ENDTAB
  0
TABLE
  2
VIEW
  5
17
330
0
100
AcDbSymbolTable
 70
0
  0
ENDTAB
  0
TABLE
  2
UCS
  5
16
330
0
100
AcDbSymbolTable
 70
0
  0
ENDTAB
  0
TABLE
  2
APPID
  5
10
330
0
100
AcDbSymbolTable
 70
1
  0
APPID
  5
25
330
10
100
AcDbSymbolTableRecord
100
AcDbRegAppTableRecord
  2
ACAD
 70
0
  0
ENDTAB
  0
TABLE
  2
DIMSTYLE
  5
12
330
0
100
AcDbSymbolTable
 70
1
100
AcDbDimStyleTable
  0
DIMSTYLE
105
24
330
12
100
AcDbSymbolTableRecord
100
AcDbDimStyleTableRecord
  2
Standard
 70
0
  3
<>
  4
[]
 40
1.0
 41
0.18
 42
0.625
 43
3.75
 44
1.25
 45
0.0
 46
0.0
 47
0.0
 48
0.0
 49
1.0
 50
45.0
 70
0
 90
0
140
0.18
141
0.09
142
0.0
143
25.3999999999999986
144
1.0
145
0.0
146
1.0
147
0.625
148
0.0
 71
0
 72
0
 73
0
 74
0
 75
0
 76
0
 77
1
 78
8
 79
0
170
0
171
3
172
0
173
1
174
0
175
0
176
0
177
0
178
0
179
0
271
2
272
2
273
2
274
3
275
0
276
0
277
2
278
46
279
0
280
0
281
0
282
0
283
0
284
8
285
0
286
0
287
0
288
0
289
3
290
0
340
0
371
-2
372
-2
  0
ENDTAB
  0
TABLE
  2
BLOCK_RECORD
  5
11
330
0
100
AcDbSymbolTable
 70
2
  0
BLOCK_RECORD
  5
1D
330
11
100
AcDbSymbolTableRecord
100
AcDbBlockTableRecord
  2
*Model_Space
 70
0
340
0
 70
0
280
0
281
1
  0
BLOCK_RECORD
  5
20
330
11
100
AcDbSymbolTableRecord
100
AcDbBlockTableRecord
  2
*Paper_Space
 70
0
340
0
 70
0
280
0
281
1
  0
ENDTAB
  0
ENDSEC
  0
SECTION
  2
BLOCKS
  0
BLOCK
  5
1E
330
1D
100
AcDbEntity
  8
0
  6
ByLayer
 62
256
 48
1.0
 60
0
 67
0
370
-1
100
AcDbBlockBegin
  2
*Model_Space
 70
0
 10
0.0
 20
0.0
 30
0.0
  3
*Model_Space
  0
ENDBLK
  5
1F
330
1D
100
AcDbEntity
  8
0
100
AcDbBlockEnd
  0
BLOCK
  5
21
330
20
100
AcDbEntity
  8
0
  6
ByLayer
 62
256
 48
1.0
 60
0
 67
1
370
-1
100
AcDbBlockBegin
  2
*Paper_Space
 70
0
 10
0.0
 20
0.0
 30
0.0
  3
*Paper_Space
  0
ENDBLK
  5
22
330
20
100
AcDbEntity
  8
0
100
AcDbBlockEnd
  0
ENDSEC
  0
SECTION
  2
ENTITIES
  0
HATCH
  5
27
330
1D
100
AcDbEntity
  8
0
  6
ByLayer
420
4359668
 48
1.0
 60
0
 67
0
370
-1
100
AcDbHatch
 30
0.0
210
0.0
220
0.0
230
1.0
  2
SOLID
 70
1
 71
0
 91
1
 92
2
 72
0
 73
1
 93
41
 10
50.0
 20
520.0
 10
190.0
 20
520.0
 10
190.0
 20
520.0
 10
195.8527096604838391
 20
519.4235584120968952
 10
201.4805029709526991
 20
517.7163859753386532
 10
206.6671069905880813
 20
514.9440883690763258
 10
211.2132034355964265
 20
511.2132034355964265
 10
214.9440883690763542
 20
506.6671069905880813
 10
217.7163859753385964
 20
501.4805029709526707
 10
219.4235584120969236
 20
495.8527096604838675
 10
220.0
 20
490.0
 10
220.0
 20
410.0
 10
220.0
 20
410.0
 10
219.4235584120969236
 20
404.1472903395161893
 10
217.7163859753385964
 20
398.5194970290473293
 10
214.9440883690763542
 20
393.3328930094119187
 10
211.2132034355964265
 20
388.7867965644035735
 10
206.6671069905880813
 20
385.0559116309236742
 10
201.4805029709526991
 20
382.2836140246614036
 10
195.8527096604838391
 20
380.5764415879031048
 10
190.0
 20
380.0
 10
50.0
 20
380.0
 10
50.0
 20
380.0
 10
44.1472903395161538
 20
380.5764415879031048
 10
38.519497029047308
 20
382.2836140246614036
 10
33.33289300941194
 20
385.0559116309236742
 10
28.786796564403577
 20
388.7867965644035735
 10
25.0559116309236387
 20
393.3328930094119187
 10
22.2836140246613965
 20
398.5194970290473293
 10
20.5764415879030871
 20
404.1472903395161325
 10
20.0
 20
410.0
 10
20.0
 20
490.0
 10
20.0
 20
490.0
 10
20.5764415879030871
 20
495.8527096604838675
 10
22.283614024661393
 20
501.4805029709526707
 10
25.0559116309236352
 20
506.6671069905880813
 10
28.7867965644035699
 20
511.2132034355964265
 10
33.3328930094119329
 20
514.9440883690763258
 10
38.5194970290472867
 20
517.7163859753386532
 10
44.1472903395161396
 20
519.4235584120968952
 10
49.9999999999999929
 20
520.0
 97
0
 75
0
 76
1
 47
0.0
 98
0
  0
LWPOLYLINE
  5
28
330
1D
100
AcDbEntity
  8
0
  6
ByLayer
420
4359668
 48
1.0
 60
0
 67
0
370
-1
100
AcDbPolyline
 90
41
 70
1
 43
0.0
 38
0.0
 39
0.0
210
0.0
220
0.0
230
1.0
 10
50.0
 20
520.0
 40
0.0
 41
0.0
 42
0.0
 10
190.0
 20
520.0
 40
0.0
 41
0.0
 42
0.0
 10
190.0
 20
520.0
 40
0.0
 41
0.0
 42
0.0
 10
195.8527096604838391
 20
519.4235584120968952
 40
0.0
 41
0.0
 42
0.0
 10
201.4805029709526991
 20
517.7163859753386532
 40
0.0
 41
0.0
 42
0.0
 10
206.6671069905880813
 20
514.9440883690763258
 40
0.0
 41
0.0
 42
0.0
 10
211.2132034355964265
 20
511.2132034355964265
 40
0.0
 41
0.0
 42
0.0
 10
214.9440883690763542
 20
506.6671069905880813
 40
0.0
 41
0.0
 42
0.0
 10
217.7163859753385964
 20
501.4805029709526707
 40
0.0
 41
0.0
 42
0.0
 10
219.4235584120969236
 20
495.8527096604838675
 40
0.0
 41
0.0
 42
0.0
 10
220.0
 20
490.0
 40
0.0
 41
0.0
 42
0.0
 10
220.0
 20
410.0
 40
0.0
 41
0.0
 42
0.0
 10
220.0
 20
410.0
 40
0.0
 41
0.0
 42
0.0
 10
219.4235584120969236
 20
404.1472903395161893
 40
0.0
 41
0.0
 42
0.0
 10
217.7163859753385964
 20
398.5194970290473293
 40
0.0
 41
0.0
 42
0.0
 10
214.9440883690763542
 20
393.3328930094119187
 40
0.0
 41
0.0
 42
0.0
 10
211.2132034355964265
 20
388.7867965644035735
 40
0.0
 41
0.0
 42
0.0
 10
206.6671069905880813
 20
385.0559116309236742
 40
0.0
 41
0.0
 42
0.0
 10
201.4805029709526991
 20
382.2836140246614036
 40
0.0
 41
0.0
 42
0.0
 10
195.8527096604838391
 20
380.5764415879031048
 40
0.0
 41
0.0
 42
0.0
 10
190.0
 20
380.0
 40
0.0
 41
0.0
 42
0.0
 10
50.0
 20
380.0
 40
0.0
 41
0.0
 42
0.0
 10
50.0
 20
380.0
 40
0.0
 41
0.0
 42
0.0
 10
44.1472903395161538
 20
380.5764415879031048
 40
0.0
 41
0.0
 42
0.0
 10
38.519497029047308
 20
382.2836140246614036
 40
0.0
 41
0.0
 42
0.0
 10
33.33289300941194
 20
385.0559116309236742
 40
0.0
 41
0.0
 42
0.0
 10
28.786796564403577
 20
388.7867965644035735
 40
0.0
 41
0.0
 42
0.0
 10
25.0559116309236387
 20
393.3328930094119187
 40
0.0
 41
0.0
 42
0.0
 10
22.2836140246613965
 20
398.5194970290473293
 40
0.0
 41
0.0
 42
0.0
 10
20.5764415879030871
 20
404.1472903395161325
 40
0.0
 41
0.0
 42
0.0
 10
20.0
 20
410.0
 40
0.0
 41
0.0
 42
0.0
 10
20.0
 20
490.0
 40
0.0
 41
0.0
 42
0.0
 10
20.0
 20
490.0
 40
0.0
 41
0.0
 42
0.0
 10
20.5764415879030871
 20
495.8527096604838675
 40
0.0
 41
0.0
 42
0.0
 10
22.283614024661393
 20
501.4805029709526707
 40
0.0
 41
0.0
 42
0.0
 10
25.0559116309236352
 20
506.6671069905880813
 40
0.0
 41
0.0
 42
0.0
 10
28.7867965644035699
 20
511.2132034355964265
 40
0.0
 41
0.0
 42
0.0
 10
33.3328930094119329
 20
514.9440883690763258
 40
0.0
 41
0.0
 42
0.0
 10
38.5194970290472867
 20
517.7163859753386532
 40
0.0
 41
0.0
 42
0.0
 10
44.1472903395161396
 20
519.4235584120968952
 40
0.0
 41
0.0
 42
0.0
 10
49.9999999999999929
 20
520.0
 40
0.0
 41
0.0
 42
0.0
  0
TEXT
  5
29
330
1D
100
AcDbEntity
  8
0
  6
ByLayer
420
16777215
 48
1.0
 60
0
 67
0
370
-1
100
AcDbText
 39
0.0
 10
99.359375
 20
454.5
 30
0.0
 40
14.0
  1
Round
 50
0.0
 41
1.0
 51
0.0
  7
Standard
 71
0
 72
0
 11
0.0
 21
0.0
 31
0.0
210
0.0
220
0.0
230
1.0
100
AcDbText
 73
0
  0
TEXT
  5
2A
330
1D
100
AcDbEntity
  8
0
  6
ByLayer
420
16777215
 48
1.0
 60
0
 67
0
370
-1
100
AcDbText
 39
0.0
 10
94.3125
 20
438.5
 30
0.0
 40
14.0
  1
(default)
 50
0.0
 41
1.0
 51
0.0
  7
Standard
 71
0
 72
0
 11
0.0
 21
0.0
 31
0.0
210
0.0
220
0.0
230
1.0
100
AcDbText
 73
0
  0
HATCH
  5
2B
330
1D
100
AcDbEntity
  8
0
  6
ByLayer
420
15352629
 48
1.0
 60
0
 67
0
370
-1
100
AcDbHatch
 30
0.0
210
0.0
220
0.0
230
1.0
  2
SOLID
 70
1
 71
0
 91
1
 92
2
 72
0
 73
1
 93
36
 10
250.0
 20
490.0
 10
255.8527096604838391
 20
490.5764415879031048
 10
261.4805029709526707
 20
492.2836140246614036
 10
266.6671069905880813
 20
495.0559116309236742
 10
271.2132034355964265
 20
498.7867965644035735
 10
274.9440883690763826
 20
503.3328930094119187
 10
277.7163859753385964
 20
508.5194970290473293
 10
279.4235584120968952
 20
514.1472903395161893
 10
280.0
 20
520.0
 10
420.0
 20
520.0
 10
420.5764415879031048
 20
514.1472903395161893
 10
422.2836140246614036
 20
508.5194970290473293
 10
425.0559116309236174
 20
503.3328930094119187
 10
428.7867965644035735
 20
498.7867965644035735
 10
433.3328930094119187
 20
495.0559116309236742
 10
438.5194970290473293
 20
492.2836140246614036
 10
444.1472903395161325
 20
490.5764415879031048
 10
450.0
 20
490.0
 10
450.0
 20
410.0
 10
444.1472903395161325
 20
409.4235584120968952
 10
438.5194970290473293
 20
407.7163859753385964
 10
433.3328930094119187
 20
404.9440883690763258
 10
428.7867965644035735
 20
401.2132034355964265
 10
425.0559116309236174
 20
396.6671069905880813
 10
422.2836140246614036
 20
391.4805029709526707
 10
420.5764415879031048
 20
385.8527096604838107
 10
420.0
 20
380.0
 10
280.0
 20
380.0
 10
279.4235584120968952
 20
385.8527096604838107
 10
277.7163859753385964
 20
391.4805029709526707
 10
274.9440883690763826
 20
396.6671069905880813
 10
271.2132034355964265
 20
401.2132034355964265
 10
266.6671069905880813
 20
404.9440883690763258
 10
261.4805029709526707
 20
407.7163859753385964
 10
255.8527096604838391
 20
409.4235584120968952
 10
250.0
 20
410.0
 97
0
 75
0
 76
1
 47
0.0
 98
0
  0
LWPOLYLINE
  5
2C
330
1D
100
AcDbEntity
  8
0
  6
ByLayer
420
15352629
 48
1.0
 60
0
 67
0
370
-1
100
AcDbPolyline
 90
36
 70
1
 43
0.0
 38
0.0
 39
0.0
210
0.0
220
0.0
230
1.0
 10
250.0
 20
490.0
 40
0.0
 41
0.0
 42
0.0
 10
255.8527096604838391
 20
490.5764415879031048
 40
0.0
 41
0.0
 42
0.0
 10
261.4805029709526707
 20
492.2836140246614036
 40
0.0
 41
0.0
 42
0.0
 10
266.6671069905880813
 20
495.0559116309236742
 40
0.0
 41
0.0
 42
0.0
 10
271.2132034355964265
 20
498.7867965644035735
 40
0.0
 41
0.0
 42
0.0
 10
274.9440883690763826
 20
503.3328930094119187
 40
0.0
 41
0.0
 42
0.0
 10
277.7163859753385964
 20
508.5194970290473293
 40
0.0
 41
0.0
 42
0.0
 10
279.4235584120968952
 20
514.1472903395161893
 40
0.0
 41
0.0
 42
0.0
 10
280.0
 20
520.0
 40
0.0
 41
0.0
 42
0.0
 10
420.0
 20
520.0
 40
0.0
 41
0.0
 42
0.0
 10
420.5764415879031048
 20
514.1472903395161893
 40
0.0
 41
0.0
 42
0.0
 10
422.2836140246614036
 20
508.5194970290473293
 40
0.0
 41
0.0
 42
0.0
 10
425.0559116309236174
 20
503.3328930094119187
 40
0.0
 41
0.0
 42
0.0
 10
428.7867965644035735
 20
498.7867965644035735
 40
0.0
 41
0.0
 42
0.0
 10
433.3328930094119187
 20
495.0559116309236742
 40
0.0
 41
0.0
 42
0.0
 10
438.5194970290473293
 20
492.2836140246614036
 40
0.0
 41
0.0
 42
0.0
 10
444.1472903395161325
 20
490.5764415879031048
 40
0.0
 41
0.0
 42
0.0
 10
450.0
 20
490.0
 40
0.0
 41
0.0
 42
0.0
 10
450.0
 20
410.0
 40
0.0
 41
0.0
 42
0.0
 10
444.1472903395161325
 20
409.4235584120968952
 40
0.0
 41
0.0
 42
0.0
 10
438.5194970290473293
 20
407.7163859753385964
 40
0.0
 41
0.0
 42
0.0
 10
433.3328930094119187
 20
404.9440883690763258
 40
0.0
 41
0.0
 42
0.0
 10
428.7867965644035735
 20
401.2132034355964265
 40
0.0
 41
0.0
 42
0.0
 10
425.0559116309236174
 20
396.6671069905880813
 40
0.0
 41
0.0
 42
0.0
 10
422.2836140246614036
 20
391.4805029709526707
 40
0.0
 41
0.0
 42
0.0
 10
420.5764415879031048
 20
385.8527096604838107
 40
0.0
 41
0.0
 42
0.0
 10
420.0
 20
380.0
 40
0.0
 41
0.0
 42
0.0
 10
280.0
 20
380.0
 40
0.0
 41
0.0
 42
0.0
 10
279.4235584120968952
 20
385.8527096604838107
 40
0.0
 41
0.0
 42
0.0
 10
277.7163859753385964
 20
391.4805029709526707
 40
0.0
 41
0.0
 42
0.0
 10
274.9440883690763826
 20
396.6671069905880813
 40
0.0
 41
0.0
 42
0.0
 10
271.2132034355964265
 20
401.2132034355964265
 40
0.0
 41
0.0
 42
0.0
 10
266.6671069905880813
 20
404.9440883690763258
 40
0.0
 41
0.0
 42
0.0
 10
261.4805029709526707
 20
407.7163859753385964
 40
0.0
 41
0.0
 42
0.0
 10
255.8527096604838391
 20
409.4235584120968952
 40
0.0
 41
0.0
 42
0.0
 10
250.0
 20
410.0
 40
0.0
 41
0.0
 42
0.0
  0
TEXT
  5
2D
330
1D
100
AcDbEntity
  8
0
  6
ByLayer
420
16777215
 48
1.0
 60
0
 67
0
370
-1
100
AcDbText
 39
0.0
 10
330.140625
 20
454.5
 30
0.0
 40
14.0
  1
Scoop
 50
0.0
 41
1.0
 51
0.0
  7
Standard
 71
0
 72
0
 11
0.0
 21
0.0
 31
0.0
210
0.0
220
0.0
230
1.0
100
AcDbText
 73
0
  0
TEXT
  5
2E
330
1D
100
AcDbEntity
  8
0
  6
ByLayer
420
16777215
 48
1.0
 60
0
 67
0
370
-1
100
AcDbText
 39
0.0
 10
319.265625
 20
438.5
 30
0.0
 40
14.0
  1
(concave)
 50
0.0
 41
1.0
 51
0.0
  7
Standard
 71
0
 72
0
 11
0.0
 21
0.0
 31
0.0
210
0.0
220
0.0
230
1.0
100
AcDbText
 73
0
  0
HATCH
  5
2F
330
1D
100
AcDbEntity
  8
0
  6
ByLayer
420
16497669
 48
1.0
 60
0
 67
0
370
-1
100
AcDbHatch
 30
0.0
210
0.0
220
0.0
230
1.0
  2
SOLID
 70
1
 71
0
 91
1
 92
2
 72
0
 73
1
 93
36
 10
480.0
 20
490.0
 10
483.75
 20
493.75
 10
487.5
 20
497.5
 10
491.25
 20
501.25
 10
495.0
 20
505.0
 10
498.75
 20
508.75
 10
502.5
 20
512.5
 10
506.25
 20
516.25
 10
510.0
 20
520.0
 10
650.0
 20
520.0
 10
653.75
 20
516.25
 10
657.5
 20
512.5
 10
661.25
 20
508.75
 10
665.0
 20
505.0
 10
668.75
 20
501.25
 10
672.5
 20
497.5
 10
676.25
 20
493.75
 10
680.0
 20
490.0
 10
680.0
 20
410.0
 10
676.25
 20
406.25
 10
672.5
 20
402.5
 10
668.75
 20
398.75
 10
665.0
 20
395.0
 10
661.25
 20
391.25
 10
657.5
 20
387.5
 10
653.75
 20
383.75
 10
650.0
 20
380.0
 10
510.0
 20
380.0
 10
506.25
 20
383.75
 10
502.5
 20
387.5
 10
498.75
 20
391.25
 10
495.0
 20
395.0
 10
491.25
 20
398.75
 10
487.5
 20
402.5
 10
483.75
 20
406.25
 10
480.0
 20
410.0
 97
0
 75
0
 76
1
 47
0.0
 98
0
  0
LWPOLYLINE
  5
30
330
1D
100
AcDbEntity
  8
0
  6
ByLayer
420
16497669
 48
1.0
 60
0
 67
0
370
-1
100
AcDbPolyline
 90
36
 70
1
 43
0.0
 38
0.0
 39
0.0
210
0.0
220
0.0
230
1.0
 10
480.0
 20
490.0
 40
0.0
 41
0.0
 42
0.0
 10
483.75
 20
493.75
 40
0.0
 41
0.0
 42
0.0
 10
487.5
 20
497.5
 40
0.0
 41
0.0
 42
0.0
 10
491.25
 20
501.25
 40
0.0
 41
0.0
 42
0.0
 10
495.0
 20
505.0
 40
0.0
 41
0.0
 42
0.0
 10
498.75
 20
508.75
 40
0.0
 41
0.0
 42
0.0
 10
502.5
 20
512.5
 40
0.0
 41
0.0
 42
0.0
 10
506.25
 20
516.25
 40
0.0
 41
0.0
 42
0.0
 10
510.0
 20
520.0
 40
0.0
 41
0.0
 42
0.0
 10
650.0
 20
520.0
 40
0.0
 41
0.0
 42
0.0
 10
653.75
 20
516.25
 40
0.0
 41
0.0
 42
0.0
 10
657.5
 20
512.5
 40
0.0
 41
0.0
 42
0.0
 10
661.25
 20
508.75
 40
0.0
 41
0.0
 42
0.0
 10
665.0
 20
505.0
 40
0.0
 41
0.0
 42
0.0
 10
668.75
 20
501.25
 40
0.0
 41
0.0
 42
0.0
 10
672.5
 20
497.5
 40
0.0
 41
0.0
 42
0.0
 10
676.25
 20
493.75
 40
0.0
 41
0.0
 42
0.0
 10
680.0
 20
490.0
 40
0.0
 41
0.0
 42
0.0
 10
680.0
 20
410.0
 40
0.0
 41
0.0
 42
0.0
 10
676.25
 20
406.25
 40
0.0
 41
0.0
 42
0.0
 10
672.5
 20
402.5
 40
0.0
 41
0.0
 42
0.0
 10
668.75
 20
398.75
 40
0.0
 41
0.0
 42
0.0
 10
665.0
 20
395.0
 40
0.0
 41
0.0
 42
0.0
 10
661.25
 20
391.25
 40
0.0
 41
0.0
 42
0.0
 10
657.5
 20
387.5
 40
0.0
 41
0.0
 42
0.0
 10
653.75
 20
383.75
 40
0.0
 41
0.0
 42
0.0
 10
650.0
 20
380.0
 40
0.0
 41
0.0
 42
0.0
 10
510.0
 20
380.0
 40
0.0
 41
0.0
 42
0.0
 10
506.25
 20
383.75
 40
0.0
 41
0.0
 42
0.0
 10
502.5
 20
387.5
 40
0.0
 41
0.0
 42
0.0
 10
498.75
 20
391.25
 40
0.0
 41
0.0
 42
0.0
 10
495.0
 20
395.0
 40
0.0
 41
0.0
 42
0.0
 10
491.25
 20
398.75
 40
0.0
 41
0.0
 42
0.0
 10
487.5
 20
402.5
 40
0.0
 41
0.0
 42
0.0
 10
483.75
 20
406.25
 40
0.0
 41
0.0
 42
0.0
 10
480.0
 20
410.0
 40
0.0
 41
0.0
 42
0.0
  0
TEXT
  5
31
330
1D
100
AcDbEntity
  8
0
  6
ByLayer
420
3355443
 48
1.0
 60
0
 67
0
370
-1
100
AcDbText
 39
0.0
 10
562.46875
 20
454.5
 30
0.0
 40
14.0
  1
Bevel
 50
0.0
 41
1.0
 51
0.0
  7
Standard
 71
0
 72
0
 11
0.0
 21
0.0
 31
0.0
210
0.0
220
0.0
230
1.0
100
AcDbText
 73
0
  0
TEXT
  5
32
330
1D
100
AcDbEntity
  8
0
  6
ByLayer
420
3355443
 48
1.0
 60
0
 67
0
370
-1
100
AcDbText
 39
0.0
 10
548.859375
 20
438.5
 30
0.0
 40
14.0
  1
(diagonal)
 50
0.0
 41
1.0
 51
0.0
  7
Standard
 71
0
 72
0
 11
0.0
 21
0.0
 31
0.0
210
0.0
220
0.0
230
1.0
100
AcDbText
 73
0
  0
HATCH
  5
33
330
1D
100
AcDbEntity
  8
0
  6
ByLayer
420
3450963
 48
1.0
 60
0
 67
0
370
-1
100
AcDbHatch
 30
0.0
210
0.0
220
0.0
230
1.0
  2
SOLID
 70
1
 71
0
 91
1
 92
2
 72
0
 73
1
 93
12
 10
710.0
 20
490.0
 10
740.0
 20
490.0
 10
740.0
 20
520.0
 10
880.0
 20
520.0
 10
880.0
 20
490.0
 10
910.0
 20
490.0
 10
910.0
 20
410.0
 10
880.0
 20
410.0
 10
880.0
 20
380.0
 10
740.0
 20
380.0
 10
740.0
 20
410.0
 10
710.0
 20
410.0
 97
0
 75
0
 76
1
 47
0.0
 98
0
  0
LWPOLYLINE
  5
34
330
1D
100
AcDbEntity
  8
0
  6
ByLayer
420
3450963
 48
1.0
 60
0
 67
0
370
-1
100
AcDbPolyline
 90
12
 70
1
 43
0.0
 38
0.0
 39
0.0
210
0.0
220
0.0
230
1.0
 10
710.0
 20
490.0
 40
0.0
 41
0.0
 42
0.0
 10
740.0
 20
490.0
 40
0.0
 41
0.0
 42
0.0
 10
740.0
 20
520.0
 40
0.0
 41
0.0
 42
0.0
 10
880.0
 20
520.0
 40
0.0
 41
0.0
 42
0.0
 10
880.0
 20
490.0
 40
0.0
 41
0.0
 42
0.0
 10
910.0
 20
490.0
 40
0.0
 41
0.0
 42
0.0
 10
910.0
 20
410.0
 40
0.0
 41
0.0
 42
0.0
 10
880.0
 20
410.0
 40
0.0
 41
0.0
 42
0.0
 10
880.0
 20
380.0
 40
0.0
 41
0.0
 42
0.0
 10
740.0
 20
380.0
 40
0.0
 41
0.0
 42
0.0
 10
740.0
 20
410.0
 40
0.0
 41
0.0
 42
0.0
 10
710.0
 20
410.0
 40
0.0
 41
0.0
 42
0.0
  0
TEXT
  5
35
330
1D
100
AcDbEntity
  8
0
  6
ByLayer
420
16777215
 48
1.0
 60
0
 67
0
370
-1
100
AcDbText
 39
0.0
 10
791.703125
 20
454.5
 30
0.0
 40
14.0
  1
Notch
 50
0.0
 41
1.0
 51
0.0
  7
Standard
 71
0
 72
0
 11
0.0
 21
0.0
 31
0.0
210
0.0
220
0.0
230
1.0
100
AcDbText
 73
0
  0
TEXT
  5
36
330
1D
100
AcDbEntity
  8
0
  6
ByLayer
420
16777215
 48
1.0
 60
0
 67
0
370
-1
100
AcDbText
 39
0.0
 10
778.09375
 20
438.5
 30
0.0
 40
14.0
  1
(inward V)
 50
0.0
 41
1.0
 51
0.0
  7
Standard
 71
0
 72
0
 11
0.0
 21
0.0
 31
0.0
210
0.0
220
0.0
230
1.0
100
AcDbText
 73
0
  0
HATCH
  5
37
330
1D
100
AcDbEntity
  8
0
  6
ByLayer
420
10233776
 48
1.0
 60
0
 67
0
370
-1
100
AcDbHatch
 30
0.0
210
0.0
220
0.0
230
1.0
  2
SOLID
 70
1
 71
0
 91
1
 92
2
 72
0
 73
1
 93
12
 10
940.0
 20
490.0
 10
940.0
 20
520.0
 10
970.0
 20
520.0
 10
1110.0
 20
520.0
 10
1140.0
 20
520.0
 10
1140.0
 20
490.0
 10
1140.0
 20
410.0
 10
1140.0
 20
380.0
 10
1110.0
 20
380.0
 10
970.0
 20
380.0
 10
940.0
 20
380.0
 10
940.0
 20
410.0
 97
0
 75
0
 76
1
 47
0.0
 98
0
  0
LWPOLYLINE
  5
38
330
1D
100
AcDbEntity
  8
0
  6
ByLayer
420
10233776
 48
1.0
 60
0
 67
0
370
-1
100
AcDbPolyline
 90
12
 70
1
 43
0.0
 38
0.0
 39
0.0
210
0.0
220
0.0
230
1.0
 10
940.0
 20
490.0
 40
0.0
 41
0.0
 42
0.0
 10
940.0
 20
520.0
 40
0.0
 41
0.0
 42
0.0
 10
970.0
 20
520.0
 40
0.0
 41
0.0
 42
0.0
 10
1110.0
 20
520.0
 40
0.0
 41
0.0
 42
0.0
 10
1140.0
 20
520.0
 40
0.0
 41
0.0
 42
0.0
 10
1140.0
 20
490.0
 40
0.0
 41
0.0
 42
0.0
 10
1140.0
 20
410.0
 40
0.0
 41
0.0
 42
0.0
 10
1140.0
 20
380.0
 40
0.0
 41
0.0
 42
0.0
 10
1110.0
 20
380.0
 40
0.0
 41
0.0
 42
0.0
 10
970.0
 20
380.0
 40
0.0
 41
0.0
 42
0.0
 10
940.0
 20
380.0
 40
0.0
 41
0.0
 42
0.0
 10
940.0
 20
410.0
 40
0.0
 41
0.0
 42
0.0
  0
TEXT
  5
39
330
1D
100
AcDbEntity
  8
0
  6
ByLayer
420
16777215
 48
1.0
 60
0
 67
0
370
-1
100
AcDbText
 39
0.0
 10
1017.40625
 20
454.5
 30
0.0
 40
14.0
  1
Square
 50
0.0
 41
1.0
 51
0.0
  7
Standard
 71
0
 72
0
 11
0.0
 21
0.0
 31
0.0
210
0.0
220
0.0
230
1.0
100
AcDbText
 73
0
  0
TEXT
  5
3A
330
1D
100
AcDbEntity
  8
0
  6
ByLayer
420
16777215
 48
1.0
 60
0
 67
0
370
-1
100
AcDbText
 39
0.0
 10
996.03125
 20
438.5
 30
0.0
 40
14.0
  1
(sharp corner)
 50
0.0
 41
1.0
 51
0.0
  7
Standard
 71
0
 72
0
 11
0.0
 21
0.0
 31
0.0
210
0.0
220
0.0
230
1.0
100
AcDbText
 73
0
  0
HATCH
  5
3B
330
1D
100
AcDbEntity
  8
0
  6
ByLayer
420
16740096
 48
1.0
 60
0
 67
0
370
-1
100
AcDbHatch
 30
0.0
210
0.0
220
0.0
230
1.0
  2
SOLID
 70
1
 71
0
 91
1
 92
2
 72
0
 73
1
 93
36
 10
20.0
 20
310.0
 10
20.3861583705244698
 20
327.6676120408448014
 10
21.5525390692953742
 20
334.74456489381339
 10
23.5260177704151374
 20
339.8146335350841127
 10
26.3641433898514137
 20
343.6358566101486076
 10
30.1853664649158624
 20
346.4739822295848626
 10
35.2554351061865745
 20
348.4474609307046649
 10
42.3323879591551702
 20
349.6138416294755302
 10
59.9999996869956149
 20
350.0
 10
180.0
 20
350.0
 10
197.6676120408448298
 20
349.6138416294755302
 10
204.7445648938134184
 20
348.4474609307046649
 10
209.8146335350841412
 20
346.4739822295848626
 10
213.6358566101485792
 20
343.6358566101486076
 10
216.4739822295848626
 20
339.8146335350841127
 10
218.4474609307046364
 20
334.74456489381339
 10
219.6138416294755302
 20
327.6676120408448014
 10
220.0
 20
310.0000003130044206
 10
220.0
 20
250.0
 10
219.6138416294755302
 20
232.3323879591551986
 10
218.4474609307046364
 20
225.2554351061865532
 10
216.4739822295848626
 20
220.1853664649158873
 10
213.6358566101485792
 20
216.3641433898513924
 10
209.8146335350841412
 20
213.5260177704151374
 10
204.7445648938134184
 20
211.552539069295392
 10
197.6676120408448298
 20
210.3861583705244698
 10
180.0000003130043922
 20
210.0
 10
60.0
 20
210.0
 10
42.3323879591551702
 20
210.3861583705244698
 10
35.2554351061865816
 20
211.552539069295392
 10
30.1853664649158659
 20
213.5260177704151374
 10
26.3641433898514208
 20
216.3641433898513924
 10
23.5260177704151374
 20
220.1853664649158873
 10
21.5525390692953742
 20
225.2554351061865532
 10
20.3861583705244698
 20
232.3323879591551417
 10
20.0
 20
249.9999996869956362
 97
0
 75
0
 76
1
 47
0.0
 98
0
  0
LWPOLYLINE
  5
3C
330
1D
100
AcDbEntity
  8
0
  6
ByLayer
420
16740096
 48
1.0
 60
0
 67
0
370
-1
100
AcDbPolyline
 90
36
 70
1
 43
0.0
 38
0.0
 39
0.0
210
0.0
220
0.0
230
1.0
 10
20.0
 20
310.0
 40
0.0
 41
0.0
 42
0.0
 10
20.3861583705244698
 20
327.6676120408448014
 40
0.0
 41
0.0
 42
0.0
 10
21.5525390692953742
 20
334.74456489381339
 40
0.0
 41
0.0
 42
0.0
 10
23.5260177704151374
 20
339.8146335350841127
 40
0.0
 41
0.0
 42
0.0
 10
26.3641433898514137
 20
343.6358566101486076
 40
0.0
 41
0.0
 42
0.0
 10
30.1853664649158624
 20
346.4739822295848626
 40
0.0
 41
0.0
 42
0.0
 10
35.2554351061865745
 20
348.4474609307046649
 40
0.0
 41
0.0
 42
0.0
 10
42.3323879591551702
 20
349.6138416294755302
 40
0.0
 41
0.0
 42
0.0
 10
59.9999996869956149
 20
350.0
 40
0.0
 41
0.0
 42
0.0
 10
180.0
 20
350.0
 40
0.0
 41
0.0
 42
0.0
 10
197.6676120408448298
 20
349.6138416294755302
 40
0.0
 41
0.0
 42
0.0
 10
204.7445648938134184
 20
348.4474609307046649
 40
0.0
 41
0.0
 42
0.0
 10
209.8146335350841412
 20
346.4739822295848626
 40
0.0
 41
0.0
 42
0.0
 10
213.6358566101485792
 20
343.6358566101486076
 40
0.0
 41
0.0
 42
0.0
 10
216.4739822295848626
 20
339.8146335350841127
 40
0.0
 41
0.0
 42
0.0
 10
218.4474609307046364
 20
334.74456489381339
 40
0.0
 41
0.0
 42
0.0
 10
219.6138416294755302
 20
327.6676120408448014
 40
0.0
 41
0.0
 42
0.0
 10
220.0
 20
310.0000003130044206
 40
0.0
 41
0.0
 42
0.0
 10
220.0
 20
250.0
 40
0.0
 41
0.0
 42
0.0
 10
219.6138416294755302
 20
232.3323879591551986
 40
0.0
 41
0.0
 42
0.0
 10
218.4474609307046364
 20
225.2554351061865532
 40
0.0
 41
0.0
 42
0.0
 10
216.4739822295848626
 20
220.1853664649158873
 40
0.0
 41
0.0
 42
0.0
 10
213.6358566101485792
 20
216.3641433898513924
 40
0.0
 41
0.0
 42
0.0
 10
209.8146335350841412
 20
213.5260177704151374
 40
0.0
 41
0.0
 42
0.0
 10
204.7445648938134184
 20
211.552539069295392
 40
0.0
 41
0.0
 42
0.0
 10
197.6676120408448298
 20
210.3861583705244698
 40
0.0
 41
0.0
 42
0.0
 10
180.0000003130043922
 20
210.0
 40
0.0
 41
0.0
 42
0.0
 10
60.0
 20
210.0
 40
0.0
 41
0.0
 42
0.0
 10
42.3323879591551702
 20
210.3861583705244698
 40
0.0
 41
0.0
 42
0.0
 10
35.2554351061865816
 20
211.552539069295392
 40
0.0
 41
0.0
 42
0.0
 10
30.1853664649158659
 20
213.5260177704151374
 40
0.0
 41
0.0
 42
0.0
 10
26.3641433898514208
 20
216.3641433898513924
 40
0.0
 41
0.0
 42
0.0
 10
23.5260177704151374
 20
220.1853664649158873
 40
0.0
 41
0.0
 42
0.0
 10
21.5525390692953742
 20
225.2554351061865532
 40
0.0
 41
0.0
 42
0.0
 10
20.3861583705244698
 20
232.3323879591551417
 40
0.0
 41
0.0
 42
0.0
 10
20.0
 20
249.9999996869956362
 40
0.0
 41
0.0
 42
0.0
  0
TEXT
  5
3D
330
1D
100
AcDbEntity
  8
0
  6
ByLayer
420
16777215
 48
1.0
 60
0
 67
0
370
-1
100
AcDbText
 39
0.0
 10
94.6875
 20
284.5
 30
0.0
 40
14.0
  1
Squircle
 50
0.0
 41
1.0
 51
0.0
  7
Standard
 71
0
 72
0
 11
0.0
 21
0.0
 31
0.0
210
0.0
220
0.0
230
1.0
100
AcDbText
 73
0
  0
TEXT
  5
3E
330
1D
100
AcDbEntity
  8
0
  6
ByLayer
420
16777215
 48
1.0
 60
0
 67
0
370
-1
100
AcDbText
 39
0.0
 10
92.375
 20
268.5
 30
0.0
 40
14.0
  1
(smooth)
 50
0.0
 41
1.0
 51
0.0
  7
Standard
 71
0
 72
0
 11
0.0
 21
0.0
 31
0.0
210
0.0
220
0.0
230
1.0
100
AcDbText
 73
0
  0
HATCH
  5
3F
330
1D
100
AcDbEntity
  8
0
  6
ByLayer
420
48340
 48
1.0
 60
0
 67
0
370
-1
100
AcDbHatch
 30
0.0
210
0.0
220
0.0
230
1.0
  2
SOLID
 70
1
 71
0
 91
1
 92
2
 72
0
 73
1
 93
36
 10
250.0
 20
315.0
 10
251.3321081810524902
 20
316.3321081810524902
 10
255.1256313292354321
 20
320.1256313292354321
 10
260.8030399336109326
 20
325.8030399336109326
 10
267.5
 20
332.5
 10
274.1969600663890674
 20
339.1969600663890674
 10
279.8743686707645679
 20
344.8743686707645679
 10
283.6678918189475098
 20
348.6678918189475098
 10
285.0
 20
350.0
 10
415.0
 20
350.0
 10
416.3321081810524902
 20
348.6678918189475098
 10
420.1256313292354321
 20
344.8743686707645679
 10
425.8030399336109326
 20
339.1969600663890674
 10
432.5
 20
332.5
 10
439.1969600663890674
 20
325.8030399336109326
 10
444.8743686707645679
 20
320.1256313292354321
 10
448.6678918189475098
 20
316.3321081810524902
 10
450.0
 20
315.0
 10
450.0
 20
245.0
 10
448.6678918189475098
 20
243.6678918189475098
 10
444.8743686707645679
 20
239.8743686707645679
 10
439.1969600663890674
 20
234.1969600663890674
 10
432.5
 20
227.5
 10
425.8030399336109326
 20
220.8030399336109326
 10
420.1256313292354321
 20
215.1256313292354321
 10
416.3321081810524902
 20
211.3321081810524902
 10
415.0
 20
210.0
 10
285.0
 20
210.0
 10
283.6678918189475098
 20
211.3321081810524902
 10
279.8743686707645679
 20
215.1256313292354321
 10
274.1969600663890674
 20
220.8030399336109326
 10
267.5
 20
227.5
 10
260.8030399336109326
 20
234.1969600663890674
 10
255.1256313292354321
 20
239.8743686707645679
 10
251.3321081810524902
 20
243.6678918189475098
 10
250.0
 20
245.0
 97
0
 75
0
 76
1
 47
0.0
 98
0
  0
LWPOLYLINE
  5
40
330
1D
100
AcDbEntity
  8
0
  6
ByLayer
420
48340
 48
1.0
 60
0
 67
0
370
-1
100
AcDbPolyline
 90
36
 70
1
 43
0.0
 38
0.0
 39
0.0
210
0.0
220
0.0
230
1.0
 10
250.0
 20
315.0
 40
0.0
 41
0.0
 42
0.0
 10
251.3321081810524902
 20
316.3321081810524902
 40
0.0
 41
0.0
 42
0.0
 10
255.1256313292354321
 20
320.1256313292354321
 40
0.0
 41
0.0
 42
0.0
 10
260.8030399336109326
 20
325.8030399336109326
 40
0.0
 41
0.0
 42
0.0
 10
267.5
 20
332.5
 40
0.0
 41
0.0
 42
0.0
 10
274.1969600663890674
 20
339.1969600663890674
 40
0.0
 41
0.0
 42
0.0
 10
279.8743686707645679
 20
344.8743686707645679
 40
0.0
 41
0.0
 42
0.0
 10
283.6678918189475098
 20
348.6678918189475098
 40
0.0
 41
0.0
 42
0.0
 10
285.0
 20
350.0
 40
0.0
 41
0.0
 42
0.0
 10
415.0
 20
350.0
 40
0.0
 41
0.0
 42
0.0
 10
416.3321081810524902
 20
348.6678918189475098
 40
0.0
 41
0.0
 42
0.0
 10
420.1256313292354321
 20
344.8743686707645679
 40
0.0
 41
0.0
 42
0.0
 10
425.8030399336109326
 20
339.1969600663890674
 40
0.0
 41
0.0
 42
0.0
 10
432.5
 20
332.5
 40
0.0
 41
0.0
 42
0.0
 10
439.1969600663890674
 20
325.8030399336109326
 40
0.0
 41
0.0
 42
0.0
 10
444.8743686707645679
 20
320.1256313292354321
 40
0.0
 41
0.0
 42
0.0
 10
448.6678918189475098
 20
316.3321081810524902
 40
0.0
 41
0.0
 42
0.0
 10
450.0
 20
315.0
 40
0.0
 41
0.0
 42
0.0
 10
450.0
 20
245.0
 40
0.0
 41
0.0
 42
0.0
 10
448.6678918189475098
 20
243.6678918189475098
 40
0.0
 41
0.0
 42
0.0
 10
444.8743686707645679
 20
239.8743686707645679
 40
0.0
 41
0.0
 42
0.0
 10
439.1969600663890674
 20
234.1969600663890674
 40
0.0
 41
0.0
 42
0.0
 10
432.5
 20
227.5
 40
0.0
 41
0.0
 42
0.0
 10
425.8030399336109326
 20
220.8030399336109326
 40
0.0
 41
0.0
 42
0.0
 10
420.1256313292354321
 20
215.1256313292354321
 40
0.0
 41
0.0
 42
0.0
 10
416.3321081810524902
 20
211.3321081810524902
 40
0.0
 41
0.0
 42
0.0
 10
415.0
 20
210.0
 40
0.0
 41
0.0
 42
0.0
 10
285.0
 20
210.0
 40
0.0
 41
0.0
 42
0.0
 10
283.6678918189475098
 20
211.3321081810524902
 40
0.0
 41
0.0
 42
0.0
 10
279.8743686707645679
 20
215.1256313292354321
 40
0.0
 41
0.0
 42
0.0
 10
274.1969600663890674
 20
220.8030399336109326
 40
0.0
 41
0.0
 42
0.0
 10
267.5
 20
227.5
 40
0.0
 41
0.0
 42
0.0
 10
260.8030399336109326
 20
234.1969600663890674
 40
0.0
 41
0.0
 42
0.0
 10
255.1256313292354321
 20
239.8743686707645679
 40
0.0
 41
0.0
 42
0.0
 10
251.3321081810524902
 20
243.6678918189475098
 40
0.0
 41
0.0
 42
0.0
 10
250.0
 20
245.0
 40
0.0
 41
0.0
 42
0.0
  0
TEXT
  5
41
330
1D
100
AcDbEntity
  8
0
  6
ByLayer
420
16777215
 48
1.0
 60
0
 67
0
370
-1
100
AcDbText
 39
0.0
 10
298.25
 20
276.5
 30
0.0
 40
14.0
  1
superellipse(0.5)
 50
0.0
 41
1.0
 51
0.0
  7
Standard
 71
0
 72
0
 11
0.0
 21
0.0
 31
0.0
210
0.0
220
0.0
230
1.0
100
AcDbText
 73
0
  0
HATCH
  5
42
330
1D
100
AcDbEntity
  8
0
  6
ByLayer
420
6323595
 48
1.0
 60
0
 67
0
370
-1
100
AcDbHatch
 30
0.0
210
0.0
220
0.0
230
1.0
  2
SOLID
 70
1
 71
0
 91
1
 92
2
 72
0
 73
1
 93
30
 10
480.0
 20
310.0
 10
487.8036128806451188
 20
310.7685887838707686
 10
495.3073372946035988
 20
313.0448186995485003
 10
502.2228093207841084
 20
316.7412155078981755
 10
508.284271247461902
 20
321.715728752538098
 10
513.2587844921017677
 20
327.7771906792158916
 10
516.9551813004514997
 20
334.6926627053964012
 10
519.2314112161292314
 20
342.1963871193548812
 10
520.0
 20
350.0
 10
640.0
 20
350.0
 10
647.8036128806451188
 20
349.2314112161292314
 10
655.3073372946035988
 20
346.9551813004514997
 10
662.2228093207841084
 20
343.2587844921017677
 10
668.284271247461902
 20
338.284271247461902
 10
673.2587844921017677
 20
332.2228093207841084
 10
676.9551813004514997
 20
325.3073372946035988
 10
679.2314112161292314
 20
317.8036128806451188
 10
680.0
 20
310.0
 10
680.0
 20
250.0
 10
675.0
 20
245.0
 10
670.0
 20
240.0
 10
665.0
 20
235.0
 10
660.0
 20
230.0
 10
655.0
 20
225.0
 10
650.0
 20
220.0
 10
645.0
 20
215.0
 10
640.0
 20
210.0
 10
520.0
 20
210.0
 10
520.0
 20
250.0
 10
480.0
 20
250.0
 97
0
 75
0
 76
1
 47
0.0
 98
0
  0
LWPOLYLINE
  5
43
330
1D
100
AcDbEntity
  8
0
  6
ByLayer
420
6323595
 48
1.0
 60
0
 67
0
370
-1
100
AcDbPolyline
 90
30
 70
1
 43
0.0
 38
0.0
 39
0.0
210
0.0
220
0.0
230
1.0
 10
480.0
 20
310.0
 40
0.0
 41
0.0
 42
0.0
 10
487.8036128806451188
 20
310.7685887838707686
 40
0.0
 41
0.0
 42
0.0
 10
495.3073372946035988
 20
313.0448186995485003
 40
0.0
 41
0.0
 42
0.0
 10
502.2228093207841084
 20
316.7412155078981755
 40
0.0
 41
0.0
 42
0.0
 10
508.284271247461902
 20
321.715728752538098
 40
0.0
 41
0.0
 42
0.0
 10
513.2587844921017677
 20
327.7771906792158916
 40
0.0
 41
0.0
 42
0.0
 10
516.9551813004514997
 20
334.6926627053964012
 40
0.0
 41
0.0
 42
0.0
 10
519.2314112161292314
 20
342.1963871193548812
 40
0.0
 41
0.0
 42
0.0
 10
520.0
 20
350.0
 40
0.0
 41
0.0
 42
0.0
 10
640.0
 20
350.0
 40
0.0
 41
0.0
 42
0.0
 10
647.8036128806451188
 20
349.2314112161292314
 40
0.0
 41
0.0
 42
0.0
 10
655.3073372946035988
 20
346.9551813004514997
 40
0.0
 41
0.0
 42
0.0
 10
662.2228093207841084
 20
343.2587844921017677
 40
0.0
 41
0.0
 42
0.0
 10
668.284271247461902
 20
338.284271247461902
 40
0.0
 41
0.0
 42
0.0
 10
673.2587844921017677
 20
332.2228093207841084
 40
0.0
 41
0.0
 42
0.0
 10
676.9551813004514997
 20
325.3073372946035988
 40
0.0
 41
0.0
 42
0.0
 10
679.2314112161292314
 20
317.8036128806451188
 40
0.0
 41
0.0
 42
0.0
 10
680.0
 20
310.0
 40
0.0
 41
0.0
 42
0.0
 10
680.0
 20
250.0
 40
0.0
 41
0.0
 42
0.0
 10
675.0
 20
245.0
 40
0.0
 41
0.0
 42
0.0
 10
670.0
 20
240.0
 40
0.0
 41
0.0
 42
0.0
 10
665.0
 20
235.0
 40
0.0
 41
0.0
 42
0.0
 10
660.0
 20
230.0
 40
0.0
 41
0.0
 42
0.0
 10
655.0
 20
225.0
 40
0.0
 41
0.0
 42
0.0
 10
650.0
 20
220.0
 40
0.0
 41
0.0
 42
0.0
 10
645.0
 20
215.0
 40
0.0
 41
0.0
 42
0.0
 10
640.0
 20
210.0
 40
0.0
 41
0.0
 42
0.0
 10
520.0
 20
210.0
 40
0.0
 41
0.0
 42
0.0
 10
520.0
 20
250.0
 40
0.0
 41
0.0
 42
0.0
 10
480.0
 20
250.0
 40
0.0
 41
0.0
 42
0.0
  0
TEXT
  5
44
330
1D
100
AcDbEntity
  8
0
  6
ByLayer
420
16777215
 48
1.0
 60
0
 67
0
370
-1
100
AcDbText
 39
0.0
 10
561.3125
 20
292.5
 30
0.0
 40
14.0
  1
Mixed
 50
0.0
 41
1.0
 51
0.0
  7
Standard
 71
0
 72
0
 11
0.0
 21
0.0
 31
0.0
210
0.0
220
0.0
230
1.0
100
AcDbText
 73
0
  0
TEXT
  5
45
330
1D
100
AcDbEntity
  8
0
  6
ByLayer
420
16777215
 48
1.0
 60
0
 67
0
370
-1
100
AcDbText
 39
0.0
 10
520.203125
 20
276.5
 30
0.0
 40
14.0
  1
TL:scoop TR:round
 50
0.0
 41
1.0
 51
0.0
  7
Standard
 71
0
 72
0
 11
0.0
 21
0.0
 31
0.0
210
0.0
220
0.0
230
1.0
100
AcDbText
 73
0
  0
TEXT
  5
46
330
1D
100
AcDbEntity
  8
0
  6
ByLayer
420
16777215
 48
1.0
 60
0
 67
0
370
-1
100
AcDbText
 39
0.0
 10
522.015625
 20
260.5
 30
0.0
 40
14.0
  1
BR:bevel BL:notch
 50
0.0
 41
1.0
 51
0.0
  7
Standard
 71
0
 72
0
 11
0.0
 21
0.0
 31
0.0
210
0.0
220
0.0
230
1.0
100
AcDbText
 73
0
  0
HATCH
  5
47
330
1D
100
AcDbEntity
  8
0
  6
ByLayer
420
15277667
 48
1.0
 60
0
 67
0
370
-1
100
AcDbHatch
 30
0.0
210
0.0
220
0.0
230
1.0
  2
SOLID
 70
1
 71
0
 91
1
 92
2
 72
0
 73
1
 93
36
 10
710.0
 20
300.0
 10
719.7545161008064269
 20
300.9607359798384891
 10
729.1341716182545269
 20
303.8060233744356537
 10
737.7785116509801355
 20
308.4265193848727336
 10
745.3553390593273207
 20
314.6446609406726225
 10
751.5734806151272096
 20
322.2214883490198645
 10
756.1939766255643463
 20
330.8658283817454731
 10
759.0392640201615677
 20
340.2454838991935731
 10
760.0
 20
350.0
 10
880.0
 20
350.0
 10
880.9607359798384323
 20
340.2454838991935731
 10
883.8060233744356537
 20
330.8658283817454731
 10
888.4265193848727904
 20
322.2214883490198645
 10
894.6446609406725656
 20
314.6446609406726225
 10
902.2214883490198645
 20
308.4265193848727336
 10
910.8658283817454731
 20
303.8060233744356537
 10
920.2454838991935731
 20
300.9607359798384891
 10
930.0
 20
300.0
 10
930.0
 20
240.0
 10
920.2454838991935731
 20
239.0392640201615109
 10
910.8658283817454731
 20
236.1939766255643463
 10
902.2214883490198645
 20
231.5734806151272664
 10
894.6446609406726793
 20
225.3553390593273775
 10
888.4265193848727904
 20
217.7785116509801355
 10
883.8060233744356537
 20
209.1341716182544701
 10
880.9607359798384323
 20
199.7545161008064269
 10
880.0
 20
190.0
 10
760.0
 20
190.0
 10
759.0392640201615677
 20
199.7545161008064269
 10
756.1939766255643463
 20
209.1341716182544701
 10
751.5734806151272096
 20
217.7785116509801355
 10
745.3553390593274344
 20
225.3553390593273775
 10
737.7785116509801355
 20
231.5734806151272664
 10
729.1341716182545269
 20
236.1939766255643463
 10
719.7545161008064269
 20
239.0392640201615109
 10
710.0
 20
240.0
 97
0
 75
0
 76
1
 47
0.0
 98
0
  0
LWPOLYLINE
  5
48
330
1D
100
AcDbEntity
  8
0
  6
ByLayer
420
15277667
 48
1.0
 60
0
 67
0
370
-1
100
AcDbPolyline
 90
36
 70
1
 43
0.0
 38
0.0
 39
0.0
210
0.0
220
0.0
230
1.0
 10
710.0
 20
300.0
 40
0.0
 41
0.0
 42
0.0
 10
719.7545161008064269
 20
300.9607359798384891
 40
0.0
 41
0.0
 42
0.0
 10
729.1341716182545269
 20
303.8060233744356537
 40
0.0
 41
0.0
 42
0.0
 10
737.7785116509801355
 20
308.4265193848727336
 40
0.0
 41
0.0
 42
0.0
 10
745.3553390593273207
 20
314.6446609406726225
 40
0.0
 41
0.0
 42
0.0
 10
751.5734806151272096
 20
322.2214883490198645
 40
0.0
 41
0.0
 42
0.0
 10
756.1939766255643463
 20
330.8658283817454731
 40
0.0
 41
0.0
 42
0.0
 10
759.0392640201615677
 20
340.2454838991935731
 40
0.0
 41
0.0
 42
0.0
 10
760.0
 20
350.0
 40
0.0
 41
0.0
 42
0.0
 10
880.0
 20
350.0
 40
0.0
 41
0.0
 42
0.0
 10
880.9607359798384323
 20
340.2454838991935731
 40
0.0
 41
0.0
 42
0.0
 10
883.8060233744356537
 20
330.8658283817454731
 40
0.0
 41
0.0
 42
0.0
 10
888.4265193848727904
 20
322.2214883490198645
 40
0.0
 41
0.0
 42
0.0
 10
894.6446609406725656
 20
314.6446609406726225
 40
0.0
 41
0.0
 42
0.0
 10
902.2214883490198645
 20
308.4265193848727336
 40
0.0
 41
0.0
 42
0.0
 10
910.8658283817454731
 20
303.8060233744356537
 40
0.0
 41
0.0
 42
0.0
 10
920.2454838991935731
 20
300.9607359798384891
 40
0.0
 41
0.0
 42
0.0
 10
930.0
 20
300.0
 40
0.0
 41
0.0
 42
0.0
 10
930.0
 20
240.0
 40
0.0
 41
0.0
 42
0.0
 10
920.2454838991935731
 20
239.0392640201615109
 40
0.0
 41
0.0
 42
0.0
 10
910.8658283817454731
 20
236.1939766255643463
 40
0.0
 41
0.0
 42
0.0
 10
902.2214883490198645
 20
231.5734806151272664
 40
0.0
 41
0.0
 42
0.0
 10
894.6446609406726793
 20
225.3553390593273775
 40
0.0
 41
0.0
 42
0.0
 10
888.4265193848727904
 20
217.7785116509801355
 40
0.0
 41
0.0
 42
0.0
 10
883.8060233744356537
 20
209.1341716182544701
 40
0.0
 41
0.0
 42
0.0
 10
880.9607359798384323
 20
199.7545161008064269
 40
0.0
 41
0.0
 42
0.0
 10
880.0
 20
190.0
 40
0.0
 41
0.0
 42
0.0
 10
760.0
 20
190.0
 40
0.0
 41
0.0
 42
0.0
 10
759.0392640201615677
 20
199.7545161008064269
 40
0.0
 41
0.0
 42
0.0
 10
756.1939766255643463
 20
209.1341716182544701
 40
0.0
 41
0.0
 42
0.0
 10
751.5734806151272096
 20
217.7785116509801355
 40
0.0
 41
0.0
 42
0.0
 10
745.3553390593274344
 20
225.3553390593273775
 40
0.0
 41
0.0
 42
0.0
 10
737.7785116509801355
 20
231.5734806151272664
 40
0.0
 41
0.0
 42
0.0
 10
729.1341716182545269
 20
236.1939766255643463
 40
0.0
 41
0.0
 42
0.0
 10
719.7545161008064269
 20
239.0392640201615109
 40
0.0
 41
0.0
 42
0.0
 10
710.0
 20
240.0
 40
0.0
 41
0.0
 42
0.0
  0
TEXT
  5
49
330
1D
100
AcDbEntity
  8
0
  6
ByLayer
420
16777215
 48
1.0
 60
0
 67
0
370
-1
100
AcDbText
 39
0.0
 10
780.28125
 20
274.5
 30
0.0
 40
14.0
  1
Large Scoop
 50
0.0
 41
1.0
 51
0.0
  7
Standard
 71
0
 72
0
 11
0.0
 21
0.0
 31
0.0
210
0.0
220
0.0
230
1.0
100
AcDbText
 73
0
  0
TEXT
  5
4A
330
1D
100
AcDbEntity
  8
0
  6
ByLayer
420
16777215
 48
1.0
 60
0
 67
0
370
-1
100
AcDbText
 39
0.0
 10
779.140625
 20
258.5
 30
0.0
 40
14.0
  1
(50px radius)
 50
0.0
 41
1.0
 51
0.0
  7
Standard
 71
0
 72
0
 11
0.0
 21
0.0
 31
0.0
210
0.0
220
0.0
230
1.0
100
AcDbText
 73
0
  0
HATCH
  5
4B
330
1D
100
AcDbEntity
  8
0
  6
ByLayer
420
15984117
 48
1.0
 60
0
 67
0
370
-1
100
AcDbHatch
 30
0.0
210
0.0
220
0.0
230
1.0
  2
SOLID
 70
1
 71
0
 91
1
 92
2
 72
0
 73
1
 93
36
 10
960.0
 20
320.0
 10
960.2896187778933381
 20
333.2507090306336295
 10
961.1644043019715582
 20
338.5584236703600709
 10
962.6445133278114099
 20
342.3609751513131414
 10
964.7731075423885159
 20
345.2268924576114273
 10
967.6390248486868586
 20
347.3554866721886469
 10
971.4415763296399291
 20
348.8355956980284418
 10
976.7492909693663705
 20
349.7103812221066619
 10
989.9999997652466845
 20
350.0
 10
1136.0
 20
350.0
 10
1149.2507090306335158
 20
349.7103812221066619
 10
1154.5584236703600709
 20
348.8355956980284418
 10
1158.3609751513131414
 20
347.3554866721886469
 10
1161.2268924576114841
 20
345.2268924576114273
 10
1163.3554866721885901
 20
342.3609751513131414
 10
1164.8355956980285555
 20
338.5584236703600709
 10
1165.7103812221066619
 20
333.2507090306336295
 10
1166.0
 20
320.0000002347533155
 10
1166.0
 20
234.0
 10
1165.7103812221066619
 20
220.7492909693663705
 10
1164.8355956980285555
 20
215.4415763296399291
 10
1163.3554866721885901
 20
211.6390248486869154
 10
1161.2268924576114841
 20
208.7731075423885727
 10
1158.3609751513131414
 20
206.6445133278113531
 10
1154.5584236703600709
 20
205.1644043019715582
 10
1149.2507090306335158
 20
204.2896187778933381
 10
1136.0000002347533155
 20
204.0
 10
990.0
 20
204.0
 10
976.7492909693663705
 20
204.2896187778933381
 10
971.4415763296399291
 20
205.1644043019715582
 10
967.6390248486868586
 20
206.6445133278113531
 10
964.7731075423885159
 20
208.7731075423885727
 10
962.6445133278114099
 20
211.6390248486869154
 10
961.1644043019715582
 20
215.4415763296399291
 10
960.2896187778933381
 20
220.7492909693663705
 10
960.0
 20
233.9999997652466845
 97
0
 75
0
 76
1
 47
0.0
 98
0
  0
LWPOLYLINE
  5
4C
330
1D
100
AcDbEntity
  8
0
  6
ByLayer
420
10233776
 48
1.0
 60
0
 67
0
370
-1
100
AcDbPolyline
 90
36
 70
1
 43
0.0
 38
0.0
 39
0.0
210
0.0
220
0.0
230
1.0
 10
960.0
 20
320.0
 40
0.0
 41
0.0
 42
0.0
 10
960.2896187778933381
 20
333.2507090306336295
 40
0.0
 41
0.0
 42
0.0
 10
961.1644043019715582
 20
338.5584236703600709
 40
0.0
 41
0.0
 42
0.0
 10
962.6445133278114099
 20
342.3609751513131414
 40
0.0
 41
0.0
 42
0.0
 10
964.7731075423885159
 20
345.2268924576114273
 40
0.0
 41
0.0
 42
0.0
 10
967.6390248486868586
 20
347.3554866721886469
 40
0.0
 41
0.0
 42
0.0
 10
971.4415763296399291
 20
348.8355956980284418
 40
0.0
 41
0.0
 42
0.0
 10
976.7492909693663705
 20
349.7103812221066619
 40
0.0
 41
0.0
 42
0.0
 10
989.9999997652466845
 20
350.0
 40
0.0
 41
0.0
 42
0.0
 10
1136.0
 20
350.0
 40
0.0
 41
0.0
 42
0.0
 10
1149.2507090306335158
 20
349.7103812221066619
 40
0.0
 41
0.0
 42
0.0
 10
1154.5584236703600709
 20
348.8355956980284418
 40
0.0
 41
0.0
 42
0.0
 10
1158.3609751513131414
 20
347.3554866721886469
 40
0.0
 41
0.0
 42
0.0
 10
1161.2268924576114841
 20
345.2268924576114273
 40
0.0
 41
0.0
 42
0.0
 10
1163.3554866721885901
 20
342.3609751513131414
 40
0.0
 41
0.0
 42
0.0
 10
1164.8355956980285555
 20
338.5584236703600709
 40
0.0
 41
0.0
 42
0.0
 10
1165.7103812221066619
 20
333.2507090306336295
 40
0.0
 41
0.0
 42
0.0
 10
1166.0
 20
320.0000002347533155
 40
0.0
 41
0.0
 42
0.0
 10
1166.0
 20
234.0
 40
0.0
 41
0.0
 42
0.0
 10
1165.7103812221066619
 20
220.7492909693663705
 40
0.0
 41
0.0
 42
0.0
 10
1164.8355956980285555
 20
215.4415763296399291
 40
0.0
 41
0.0
 42
0.0
 10
1163.3554866721885901
 20
211.6390248486869154
 40
0.0
 41
0.0
 42
0.0
 10
1161.2268924576114841
 20
208.7731075423885727
 40
0.0
 41
0.0
 42
0.0
 10
1158.3609751513131414
 20
206.6445133278113531
 40
0.0
 41
0.0
 42
0.0
 10
1154.5584236703600709
 20
205.1644043019715582
 40
0.0
 41
0.0
 42
0.0
 10
1149.2507090306335158
 20
204.2896187778933381
 40
0.0
 41
0.0
 42
0.0
 10
1136.0000002347533155
 20
204.0
 40
0.0
 41
0.0
 42
0.0
 10
990.0
 20
204.0
 40
0.0
 41
0.0
 42
0.0
 10
976.7492909693663705
 20
204.2896187778933381
 40
0.0
 41
0.0
 42
0.0
 10
971.4415763296399291
 20
205.1644043019715582
 40
0.0
 41
0.0
 42
0.0
 10
967.6390248486868586
 20
206.6445133278113531
 40
0.0
 41
0.0
 42
0.0
 10
964.7731075423885159
 20
208.7731075423885727
 40
0.0
 41
0.0
 42
0.0
 10
962.6445133278114099
 20
211.6390248486869154
 40
0.0
 41
0.0
 42
0.0
 10
961.1644043019715582
 20
215.4415763296399291
 40
0.0
 41
0.0
 42
0.0
 10
960.2896187778933381
 20
220.7492909693663705
 40
0.0
 41
0.0
 42
0.0
 10
960.0
 20
233.9999997652466845
 40
0.0
 41
0.0
 42
0.0
  0
TEXT
  5
4D
330
1D
100
AcDbEntity
  8
0
  6
ByLayer
420
10233776
 48
1.0
 60
0
 67
0
370
-1
100
AcDbText
 39
0.0
 10
1040.703125
 20
278.5
 30
0.0
 40
14.0
  1
Squircle
 50
0.0
 41
1.0
 51
0.0
  7
Standard
 71
0
 72
0
 11
0.0
 21
0.0
 31
0.0
210
0.0
220
0.0
230
1.0
100
AcDbText
 73
0
  0
TEXT
  5
4E
330
1D
100
AcDbEntity
  8
0
  6
ByLayer
420
10233776
 48
1.0
 60
0
 67
0
370
-1
100
AcDbText
 39
0.0
 10
1038.953125
 20
262.5
 30
0.0
 40
14.0
  1
+ Border
 50
0.0
 41
1.0
 51
0.0
  7
Standard
 71
0
 72
0
 11
0.0
 21
0.0
 31
0.0
210
0.0
220
0.0
230
1.0
100
AcDbText
 73
0
  0
HATCH
  5
4F
330
1D
100
AcDbEntity
  8
0
  6
ByLayer
420
16777215
 48
1.0
 60
0
 67
0
370
-1
100
AcDbHatch
 30
0.0
210
0.0
220
0.0
230
1.0
  2
SOLID
 70
1
 71
0
 91
1
 92
2
 72
0
 73
1
 93
36
 10
20.0
 20
135.0
 10
23.125
 20
138.125
 10
26.25
 20
141.25
 10
29.375
 20
144.375
 10
32.5
 20
147.5
 10
35.625
 20
150.625
 10
38.75
 20
153.75
 10
41.875
 20
156.875
 10
45.0
 20
160.0
 10
195.0
 20
160.0
 10
198.125
 20
156.875
 10
201.25
 20
153.75
 10
204.375
 20
150.625
 10
207.5
 20
147.5
 10
210.625
 20
144.375
 10
213.75
 20
141.25
 10
216.875
 20
138.125
 10
220.0
 20
135.0
 10
220.0
 20
45.0
 10
216.875
 20
41.875
 10
213.75
 20
38.75
 10
210.625
 20
35.625
 10
207.5
 20
32.5
 10
204.375
 20
29.375
 10
201.25
 20
26.25
 10
198.125
 20
23.125
 10
195.0
 20
20.0
 10
45.0
 20
20.0
 10
41.875
 20
23.125
 10
38.75
 20
26.25
 10
35.625
 20
29.375
 10
32.5
 20
32.5
 10
29.375
 20
35.625
 10
26.25
 20
38.75
 10
23.125
 20
41.875
 10
20.0
 20
45.0
 97
0
 75
0
 76
1
 47
0.0
 98
0
  0
LWPOLYLINE
  5
50
330
1D
100
AcDbEntity
  8
0
  6
ByLayer
420
16777215
 48
1.0
 60
0
 67
0
370
-1
100
AcDbPolyline
 90
36
 70
1
 43
0.0
 38
0.0
 39
0.0
210
0.0
220
0.0
230
1.0
 10
20.0
 20
135.0
 40
0.0
 41
0.0
 42
0.0
 10
23.125
 20
138.125
 40
0.0
 41
0.0
 42
0.0
 10
26.25
 20
141.25
 40
0.0
 41
0.0
 42
0.0
 10
29.375
 20
144.375
 40
0.0
 41
0.0
 42
0.0
 10
32.5
 20
147.5
 40
0.0
 41
0.0
 42
0.0
 10
35.625
 20
150.625
 40
0.0
 41
0.0
 42
0.0
 10
38.75
 20
153.75
 40
0.0
 41
0.0
 42
0.0
 10
41.875
 20
156.875
 40
0.0
 41
0.0
 42
0.0
 10
45.0
 20
160.0
 40
0.0
 41
0.0
 42
0.0
 10
195.0
 20
160.0
 40
0.0
 41
0.0
 42
0.0
 10
198.125
 20
156.875
 40
0.0
 41
0.0
 42
0.0
 10
201.25
 20
153.75
 40
0.0
 41
0.0
 42
0.0
 10
204.375
 20
150.625
 40
0.0
 41
0.0
 42
0.0
 10
207.5
 20
147.5
 40
0.0
 41
0.0
 42
0.0
 10
210.625
 20
144.375
 40
0.0
 41
0.0
 42
0.0
 10
213.75
 20
141.25
 40
0.0
 41
0.0
 42
0.0
 10
216.875
 20
138.125
 40
0.0
 41
0.0
 42
0.0
 10
220.0
 20
135.0
 40
0.0
 41
0.0
 42
0.0
 10
220.0
 20
45.0
 40
0.0
 41
0.0
 42
0.0
 10
216.875
 20
41.875
 40
0.0
 41
0.0
 42
0.0
 10
213.75
 20
38.75
 40
0.0
 41
0.0
 42
0.0
 10
210.625
 20
35.625
 40
0.0
 41
0.0
 42
0.0
 10
207.5
 20
32.5
 40
0.0
 41
0.0
 42
0.0
 10
204.375
 20
29.375
 40
0.0
 41
0.0
 42
0.0
 10
201.25
 20
26.25
 40
0.0
 41
0.0
 42
0.0
 10
198.125
 20
23.125
 40
0.0
 41
0.0
 42
0.0
 10
195.0
 20
20.0
 40
0.0
 41
0.0
 42
0.0
 10
45.0
 20
20.0
 40
0.0
 41
0.0
 42
0.0
 10
41.875
 20
23.125
 40
0.0
 41
0.0
 42
0.0
 10
38.75
 20
26.25
 40
0.0
 41
0.0
 42
0.0
 10
35.625
 20
29.375
 40
0.0
 41
0.0
 42
0.0
 10
32.5
 20
32.5
 40
0.0
 41
0.0
 42
0.0
 10
29.375
 20
35.625
 40
0.0
 41
0.0
 42
0.0
 10
26.25
 20
38.75
 40
0.0
 41
0.0
 42
0.0
 10
23.125
 20
41.875
 40
0.0
 41
0.0
 42
0.0
 10
20.0
 20
45.0
 40
0.0
 41
0.0
 42
0.0
  0
TEXT
  5
51
330
1D
100
AcDbEntity
  8
0
  6
ByLayer
420
3355443
 48
1.0
 60
0
 67
0
370
-1
100
AcDbText
 39
0.0
 10
102.46875
 20
94.5
 30
0.0
 40
14.0
  1
Bevel
 50
0.0
 41
1.0
 51
0.0
  7
Standard
 71
0
 72
0
 11
0.0
 21
0.0
 31
0.0
210
0.0
220
0.0
230
1.0
100
AcDbText
 73
0
  0
TEXT
  5
52
330
1D
100
AcDbEntity
  8
0
  6
ByLayer
420
3355443
 48
1.0
 60
0
 67
0
370
-1
100
AcDbText
 39
0.0
 10
88.65625
 20
78.5
 30
0.0
 40
14.0
  1
+ Shadow
 50
0.0
 41
1.0
 51
0.0
  7
Standard
 71
0
 72
0
 11
0.0
 21
0.0
 31
0.0
210
0.0
220
0.0
230
1.0
100
AcDbText
 73
0
  0
HATCH
  5
53
330
1D
100
AcDbEntity
  8
0
  6
ByLayer
420
7951688
 48
1.0
 60
0
 67
0
370
-1
100
AcDbHatch
 30
0.0
210
0.0
220
0.0
230
1.0
  2
SOLID
 70
1
 71
0
 91
1
 92
2
 72
0
 73
1
 93
36
 10
250.0
 20
130.0
 10
263.2507090306336295
 20
130.2896187778933381
 10
268.5584236703600709
 20
131.1644043019715582
 10
272.3609751513130846
 20
132.6445133278113531
 10
275.2268924576114273
 20
134.7731075423885727
 10
277.3554866721886469
 20
137.6390248486869154
 10
278.8355956980284418
 20
141.4415763296399291
 10
279.7103812221066619
 20
146.7492909693663705
 10
280.0
 20
159.9999997652466845
 10
420.0
 20
160.0
 10
420.2896187778933381
 20
146.7492909693663705
 10
421.1644043019715582
 20
141.4415763296399291
 10
422.6445133278113531
 20
137.6390248486869154
 10
424.7731075423885727
 20
134.7731075423885727
 10
427.6390248486869154
 20
132.6445133278113531
 10
431.4415763296399291
 20
131.1644043019715582
 10
436.7492909693663705
 20
130.2896187778933381
 10
449.9999997652466845
 20
130.0
 10
450.0
 20
50.0
 10
436.7492909693663705
 20
49.7103812221066619
 10
431.4415763296399291
 20
48.8355956980284418
 10
427.6390248486869154
 20
47.3554866721886469
 10
424.7731075423885727
 20
45.2268924576114273
 10
422.6445133278113531
 20
42.3609751513130846
 10
421.1644043019715582
 20
38.5584236703600709
 10
420.2896187778933381
 20
33.2507090306336295
 10
420.0
 20
20.0000002347533155
 10
280.0
 20
20.0
 10
279.7103812221066619
 20
33.2507090306336295
 10
278.8355956980284418
 20
38.5584236703600709
 10
277.3554866721886469
 20
42.3609751513130846
 10
275.2268924576114273
 20
45.2268924576114273
 10
272.3609751513130846
 20
47.3554866721886469
 10
268.5584236703600709
 20
48.8355956980284418
 10
263.2507090306336295
 20
49.7103812221066619
 10
250.000000234753287
 20
50.0
 97
0
 75
0
 76
1
 47
0.0
 98
0
  0
LWPOLYLINE
  5
54
330
1D
100
AcDbEntity
  8
0
  6
ByLayer
420
7951688
 48
1.0
 60
0
 67
0
370
-1
100
AcDbPolyline
 90
36
 70
1
 43
0.0
 38
0.0
 39
0.0
210
0.0
220
0.0
230
1.0
 10
250.0
 20
130.0
 40
0.0
 41
0.0
 42
0.0
 10
263.2507090306336295
 20
130.2896187778933381
 40
0.0
 41
0.0
 42
0.0
 10
268.5584236703600709
 20
131.1644043019715582
 40
0.0
 41
0.0
 42
0.0
 10
272.3609751513130846
 20
132.6445133278113531
 40
0.0
 41
0.0
 42
0.0
 10
275.2268924576114273
 20
134.7731075423885727
 40
0.0
 41
0.0
 42
0.0
 10
277.3554866721886469
 20
137.6390248486869154
 40
0.0
 41
0.0
 42
0.0
 10
278.8355956980284418
 20
141.4415763296399291
 40
0.0
 41
0.0
 42
0.0
 10
279.7103812221066619
 20
146.7492909693663705
 40
0.0
 41
0.0
 42
0.0
 10
280.0
 20
159.9999997652466845
 40
0.0
 41
0.0
 42
0.0
 10
420.0
 20
160.0
 40
0.0
 41
0.0
 42
0.0
 10
420.2896187778933381
 20
146.7492909693663705
 40
0.0
 41
0.0
 42
0.0
 10
421.1644043019715582
 20
141.4415763296399291
 40
0.0
 41
0.0
 42
0.0
 10
422.6445133278113531
 20
137.6390248486869154
 40
0.0
 41
0.0
 42
0.0
 10
424.7731075423885727
 20
134.7731075423885727
 40
0.0
 41
0.0
 42
0.0
 10
427.6390248486869154
 20
132.6445133278113531
 40
0.0
 41
0.0
 42
0.0
 10
431.4415763296399291
 20
131.1644043019715582
 40
0.0
 41
0.0
 42
0.0
 10
436.7492909693663705
 20
130.2896187778933381
 40
0.0
 41
0.0
 42
0.0
 10
449.9999997652466845
 20
130.0
 40
0.0
 41
0.0
 42
0.0
 10
450.0
 20
50.0
 40
0.0
 41
0.0
 42
0.0
 10
436.7492909693663705
 20
49.7103812221066619
 40
0.0
 41
0.0
 42
0.0
 10
431.4415763296399291
 20
48.8355956980284418
 40
0.0
 41
0.0
 42
0.0
 10
427.6390248486869154
 20
47.3554866721886469
 40
0.0
 41
0.0
 42
0.0
 10
424.7731075423885727
 20
45.2268924576114273
 40
0.0
 41
0.0
 42
0.0
 10
422.6445133278113531
 20
42.3609751513130846
 40
0.0
 41
0.0
 42
0.0
 10
421.1644043019715582
 20
38.5584236703600709
 40
0.0
 41
0.0
 42
0.0
 10
420.2896187778933381
 20
33.2507090306336295
 40
0.0
 41
0.0
 42
0.0
 10
420.0
 20
20.0000002347533155
 40
0.0
 41
0.0
 42
0.0
 10
280.0
 20
20.0
 40
0.0
 41
0.0
 42
0.0
 10
279.7103812221066619
 20
33.2507090306336295
 40
0.0
 41
0.0
 42
0.0
 10
278.8355956980284418
 20
38.5584236703600709
 40
0.0
 41
0.0
 42
0.0
 10
277.3554866721886469
 20
42.3609751513130846
 40
0.0
 41
0.0
 42
0.0
 10
275.2268924576114273
 20
45.2268924576114273
 40
0.0
 41
0.0
 42
0.0
 10
272.3609751513130846
 20
47.3554866721886469
 40
0.0
 41
0.0
 42
0.0
 10
268.5584236703600709
 20
48.8355956980284418
 40
0.0
 41
0.0
 42
0.0
 10
263.2507090306336295
 20
49.7103812221066619
 40
0.0
 41
0.0
 42
0.0
 10
250.000000234753287
 20
50.0
 40
0.0
 41
0.0
 42
0.0
  0
TEXT
  5
55
330
1D
100
AcDbEntity
  8
0
  6
ByLayer
420
16777215
 48
1.0
 60
0
 67
0
370
-1
100
AcDbText
 39
0.0
 10
301.75
 20
86.5
 30
0.0
 40
14.0
  1
superellipse(-2)
 50
0.0
 41
1.0
 51
0.0
  7
Standard
 71
0
 72
0
 11
0.0
 21
0.0
 31
0.0
210
0.0
220
0.0
230
1.0
100
AcDbText
 73
0
  0
HATCH
  5
56
330
1D
100
AcDbEntity
  8
0
  6
ByLayer
420
4149685
 48
1.0
 60
0
 67
0
370
-1
100
AcDbHatch
 30
0.0
210
0.0
220
0.0
230
1.0
  2
SOLID
 70
1
 71
0
 91
1
 92
2
 72
0
 73
1
 93
36
 10
480.0
 20
130.0
 10
480.1161847657177191
 20
151.6355729114511632
 10
480.4713002503809776
 20
154.756496659831555
 10
481.0871747680001249
 20
156.6728270179374363
 10
482.0090102538957808
 20
157.9909897461042192
 10
483.3271729820625637
 20
158.9128252319998751
 10
485.243503340168445
 20
159.5286997496190224
 10
488.3644270885488368
 20
159.8838152342822809
 10
509.9828399943726822
 20
160.0
 10
650.0
 20
160.0
 10
671.6355729114511632
 20
159.8838152342822809
 10
674.756496659831555
 20
159.5286997496190224
 10
676.6728270179373794
 20
158.9128252319998751
 10
677.9909897461042192
 20
157.9909897461042192
 10
678.9128252319998182
 20
156.6728270179374363
 10
679.5286997496190224
 20
154.756496659831555
 10
679.8838152342823378
 20
151.6355729114511632
 10
680.0
 20
130.0171600056273178
 10
680.0
 20
50.0
 10
679.8838152342823378
 20
28.3644270885488368
 10
679.5286997496190224
 20
25.243503340168445
 10
678.9128252319998182
 20
23.3271729820626206
 10
677.9909897461042192
 20
22.0090102538957808
 10
676.6728270179373794
 20
21.0871747680001818
 10
674.756496659831555
 20
20.4713002503809776
 10
671.6355729114511632
 20
20.1161847657176622
 10
650.0171600056272609
 20
20.0
 10
510.0
 20
20.0
 10
488.3644270885488368
 20
20.1161847657176622
 10
485.243503340168445
 20
20.4713002503809776
 10
483.3271729820625637
 20
21.0871747680001818
 10
482.0090102538957808
 20
22.0090102538957808
 10
481.0871747680001249
 20
23.3271729820626206
 10
480.4713002503809776
 20
25.243503340168445
 10
480.1161847657177191
 20
28.3644270885488368
 10
480.0
 20
49.9828399943726822
 97
0
 75
0
 76
1
 47
0.0
 98
0
  0
LWPOLYLINE
  5
57
330
1D
100
AcDbEntity
  8
0
  6
ByLayer
420
4149685
 48
1.0
 60
0
 67
0
370
-1
100
AcDbPolyline
 90
36
 70
1
 43
0.0
 38
0.0
 39
0.0
210
0.0
220
0.0
230
1.0
 10
480.0
 20
130.0
 40
0.0
 41
0.0
 42
0.0
 10
480.1161847657177191
 20
151.6355729114511632
 40
0.0
 41
0.0
 42
0.0
 10
480.4713002503809776
 20
154.756496659831555
 40
0.0
 41
0.0
 42
0.0
 10
481.0871747680001249
 20
156.6728270179374363
 40
0.0
 41
0.0
 42
0.0
 10
482.0090102538957808
 20
157.9909897461042192
 40
0.0
 41
0.0
 42
0.0
 10
483.3271729820625637
 20
158.9128252319998751
 40
0.0
 41
0.0
 42
0.0
 10
485.243503340168445
 20
159.5286997496190224
 40
0.0
 41
0.0
 42
0.0
 10
488.3644270885488368
 20
159.8838152342822809
 40
0.0
 41
0.0
 42
0.0
 10
509.9828399943726822
 20
160.0
 40
0.0
 41
0.0
 42
0.0
 10
650.0
 20
160.0
 40
0.0
 41
0.0
 42
0.0
 10
671.6355729114511632
 20
159.8838152342822809
 40
0.0
 41
0.0
 42
0.0
 10
674.756496659831555
 20
159.5286997496190224
 40
0.0
 41
0.0
 42
0.0
 10
676.6728270179373794
 20
158.9128252319998751
 40
0.0
 41
0.0
 42
0.0
 10
677.9909897461042192
 20
157.9909897461042192
 40
0.0
 41
0.0
 42
0.0
 10
678.9128252319998182
 20
156.6728270179374363
 40
0.0
 41
0.0
 42
0.0
 10
679.5286997496190224
 20
154.756496659831555
 40
0.0
 41
0.0
 42
0.0
 10
679.8838152342823378
 20
151.6355729114511632
 40
0.0
 41
0.0
 42
0.0
 10
680.0
 20
130.0171600056273178
 40
0.0
 41
0.0
 42
0.0
 10
680.0
 20
50.0
 40
0.0
 41
0.0
 42
0.0
 10
679.8838152342823378
 20
28.3644270885488368
 40
0.0
 41
0.0
 42
0.0
 10
679.5286997496190224
 20
25.243503340168445
 40
0.0
 41
0.0
 42
0.0
 10
678.9128252319998182
 20
23.3271729820626206
 40
0.0
 41
0.0
 42
0.0
 10
677.9909897461042192
 20
22.0090102538957808
 40
0.0
 41
0.0
 42
0.0
 10
676.6728270179373794
 20
21.0871747680001818
 40
0.0
 41
0.0
 42
0.0
 10
674.756496659831555
 20
20.4713002503809776
 40
0.0
 41
0.0
 42
0.0
 10
671.6355729114511632
 20
20.1161847657176622
 40
0.0
 41
0.0
 42
0.0
 10
650.0171600056272609
 20
20.0
 40
0.0
 41
0.0
 42
0.0
 10
510.0
 20
20.0
 40
0.0
 41
0.0
 42
0.0
 10
488.3644270885488368
 20
20.1161847657176622
 40
0.0
 41
0.0
 42
0.0
 10
485.243503340168445
 20
20.4713002503809776
 40
0.0
 41
0.0
 42
0.0
 10
483.3271729820625637
 20
21.0871747680001818
 40
0.0
 41
0.0
 42
0.0
 10
482.0090102538957808
 20
22.0090102538957808
 40
0.0
 41
0.0
 42
0.0
 10
481.0871747680001249
 20
23.3271729820626206
 40
0.0
 41
0.0
 42
0.0
 10
480.4713002503809776
 20
25.243503340168445
 40
0.0
 41
0.0
 42
0.0
 10
480.1161847657177191
 20
28.3644270885488368
 40
0.0
 41
0.0
 42
0.0
 10
480.0
 20
49.9828399943726822
 40
0.0
 41
0.0
 42
0.0
  0
TEXT
  5
58
330
1D
100
AcDbEntity
  8
0
  6
ByLayer
420
16777215
 48
1.0
 60
0
 67
0
370
-1
100
AcDbText
 39
0.0
 10
534.078125
 20
86.5
 30
0.0
 40
14.0
  1
superellipse(5)
 50
0.0
 41
1.0
 51
0.0
  7
Standard
 71
0
 72
0
 11
0.0
 21
0.0
 31
0.0
210
0.0
220
0.0
230
1.0
100
AcDbText
 73
0
  0
ENDSEC
  0
SECTION
  2
OBJECTS
  0
DICTIONARY
  5
1
330
0
100
AcDbDictionary
280
0
281
0
  3
ACAD_COLOR
350
2
  3
ACAD_GROUP
350
3
  3
ACAD_LAYOUT
350
4
  3
ACAD_MATERIAL
350
5
  3
ACAD_SORTENTS
350
6
  3
ACAD_MLEADERSTYLE
350
7
  3
ACAD_MLINESTYLE
350
8
  3
ACAD_TABLESTYLE
350
9
  3
ACAD_PLOTSETTINGS
350
A
  3
AcDbVariableDictionary
350
B
  3
ACAD_SCALELIST
350
C
  3
ACAD_VISUALSTYLE
350
D
  3
ACAD_FIELDLIST
350
E
  3
ACAD_IMAGE_DICT
350
F
  0
DICTIONARY
  5
2
330
1
100
AcDbDictionary
280
0
281
0
  0
DICTIONARY
  5
3
330
1
100
AcDbDictionary
280
0
281
0
  0
DICTIONARY
  5
4
330
1
100
AcDbDictionary
280
0
281
0
  0
DICTIONARY
  5
5
330
1
100
AcDbDictionary
280
0
281
0
  0
DICTIONARY
  5
6
330
1
100
AcDbDictionary
280
0
281
0
  0
DICTIONARY
  5
7
330
1
100
AcDbDictionary
280
0
281
0
  0
DICTIONARY
  5
8
330
1
100
AcDbDictionary
280
0
281
0
  0
DICTIONARY
  5
9
330
1
100
AcDbDictionary
280
0
281
0
  0
DICTIONARY
  5
A
330
1
100
AcDbDictionary
280
0
281
0
  0
DICTIONARY
  5
B
330
1
100
AcDbDictionary
280
0
281
0
  0
DICTIONARY
  5
C
330
1
100
AcDbDictionary
280
0
281
0
  0
DICTIONARY
  5
D
330
1
100
AcDbDictionary
280
0
281
0
  0
DICTIONARY
  5
E
330
1
100
AcDbDictionary
280
0
281
0
  0
DICTIONARY
  5
F
330
1
100
AcDbDictionary
280
0
281
0
  0
ENDSEC
  0
EOF
