0
SECTION
2
HEADER
9
$ACADVER
1
AC1021
9
$LASTSAVEDBY
1
@tarikjabiri/dxf
9
$HANDSEED
5
4B
9
$INSUNITS
70
0
9
$CLAYER
8
0
9
$VIEWCTR
10
533
20
227.25
0
ENDSEC
0
SECTION
2
CLASSES
0
ENDSEC
0
SECTION
2
TABLES
0
TABLE
2
VPORT
5
1
330
0
100
AcDbSymbolTable
70
1
0
VPORT
5
19
330
1
100
AcDbSymbolTableRecord
100
AcDbViewportTableRecord
2
*Active
70
0
10
0
20
0
11
1
21
1
12
533
22
227.25
13
0
23
0
14
10
24
10
15
10
25
10
16
0
26
0
36
1
17
0
27
0
37
0
40
654.5
41
2
42
50
43
0
44
0
50
0
51
0
71
0
72
100
73
1
74
3
75
0
76
1
77
0
78
0
281
0
65
1
110
0
120
0
130
0
111
1
121
0
131
0
112
0
122
1
132
0
79
0
146
0
348
10020
60
7
61
5
292
1
282
1
141
0
142
0
63
250
421
3358443
0
ENDTAB
0
TABLE
2
LTYPE
5
2
330
0
100
AcDbSymbolTable
70
3
0
LTYPE
5
12
330
2
100
AcDbSymbolTableRecord
100
AcDbLinetypeTableRecord
2
ByBlock
70
0
3

72
65
73
0
40
0
0
LTYPE
5
13
330
2
100
AcDbSymbolTableRecord
100
AcDbLinetypeTableRecord
2
ByLayer
70
0
3

72
65
73
0
40
0
0
LTYPE
5
14
330
2
100
AcDbSymbolTableRecord
100
AcDbLinetypeTableRecord
2
Continuous
70
0
3
Solid line
72
65
73
0
40
0
0
ENDTAB
0
TABLE
2
LAYER
5
3
330
0
100
AcDbSymbolTable
70
1
0
LAYER
5
15
330
3
100
AcDbSymbolTableRecord
100
AcDbLayerTableRecord
2
0
70
0
62
7
6
Continuous
370
0
390
0
0
ENDTAB
0
TABLE
2
STYLE
5
4
330
0
100
AcDbSymbolTable
70
1
0
STYLE
5
16
330
4
100
AcDbSymbolTableRecord
100
AcDbTextStyleTableRecord
2
Standard
70
0
40
0
41
1
50
0
71
0
42
1
3
txt
4

0
ENDTAB
0
TABLE
2
VIEW
5
5
330
0
100
AcDbSymbolTable
70
0
0
ENDTAB
0
TABLE
2
UCS
5
6
330
0
100
AcDbSymbolTable
70
0
0
ENDTAB
0
TABLE
2
APPID
5
7
330
0
100
AcDbSymbolTable
70
1
0
APPID
5
17
330
7
100
AcDbSymbolTableRecord
100
AcDbRegAppTableRecord
2
ACAD
70
0
0
ENDTAB
0
TABLE
2
DIMSTYLE
5
8
330
0
100
AcDbSymbolTable
70
1
100
AcDbDimStyleTable
0
DIMSTYLE
105
18
330
8
100
AcDbSymbolTableRecord
100
AcDbDimStyleTableRecord
2
Standard
70
0
340
16
0
ENDTAB
0
TABLE
2
BLOCK_RECORD
5
9
330
0
100
AcDbSymbolTable
70
2
0
BLOCK_RECORD
5
C
330
9
100
AcDbSymbolTableRecord
100
AcDbBlockTableRecord
2
*Model_Space
70
0
280
1
281
0
0
BLOCK_RECORD
5
F
330
9
100
AcDbSymbolTableRecord
100
AcDbBlockTableRecord
2
*Paper_Space
70
0
280
1
281
0
0
ENDTAB
0
ENDSEC
0
SECTION
2
BLOCKS
0
BLOCK
5
D
330
C
100
AcDbEntity
8
0
100
AcDbBlockBegin
2
*Model_Space
70
0
10
0
20
0
30
0
3
*Model_Space
1

0
ENDBLK
5
E
100
AcDbEntity
8
0
100
AcDbBlockEnd
0
BLOCK
5
10
330
F
100
AcDbEntity
8
0
100
AcDbBlockBegin
2
*Paper_Space
70
0
10
0
20
0
30
0
3
*Paper_Space
1

0
ENDBLK
5
11
100
AcDbEntity
8
0
100
AcDbBlockEnd
0
ENDSEC
0
SECTION
2
ENTITIES
0
LWPOLYLINE
5
1A
330
C
100
AcDbEntity
420
4359668
8
0
100
AcDbPolyline
90
42
70
0
43
0
38
0
39
0
10
50
20
520
10
190
20
520
10
190
20
520
10
195.85270966048384
20
519.4235584120969
10
201.4805029709527
20
517.7163859753387
10
206.66710699058808
20
514.9440883690763
10
211.21320343559643
20
511.2132034355964
10
214.94408836907635
20
506.6671069905881
10
217.7163859753386
20
501.48050297095267
10
219.42355841209692
20
495.85270966048387
10
220
20
490
10
220
20
410
10
220
20
410
10
219.42355841209692
20
404.1472903395162
10
217.7163859753386
20
398.51949702904733
10
214.94408836907635
20
393.3328930094119
10
211.21320343559643
20
388.7867965644036
10
206.66710699058808
20
385.0559116309237
10
201.4805029709527
20
382.2836140246614
10
195.85270966048384
20
380.5764415879031
10
190
20
380
10
50
20
380
10
50
20
380
10
44.147290339516154
20
380.5764415879031
10
38.51949702904731
20
382.2836140246614
10
33.33289300941194
20
385.0559116309237
10
28.786796564403577
20
388.7867965644036
10
25.05591163092364
20
393.3328930094119
10
22.283614024661397
20
398.51949702904733
10
20.576441587903087
20
404.14729033951613
10
20
20
410
10
20
20
490
10
20
20
490
10
20.576441587903087
20
495.85270966048387
10
22.283614024661393
20
501.48050297095267
10
25.055911630923635
20
506.6671069905881
10
28.78679656440357
20
511.2132034355964
10
33.33289300941193
20
514.9440883690763
10
38.51949702904729
20
517.7163859753387
10
44.14729033951614
20
519.4235584120969
10
49.99999999999999
20
520
10
50
20
520
0
TEXT
5
1B
330
C
100
AcDbEntity
420
16777215
8
0
100
AcDbText
10
99.359375
20
454.5
30
0
40
14
1
Round
7
STANDARD
100
AcDbText
0
TEXT
5
1C
330
C
100
AcDbEntity
420
16777215
8
0
100
AcDbText
10
94.3125
20
438.5
30
0
40
14
1
(default)
7
STANDARD
100
AcDbText
0
HATCH
5
1D
330
C
100
AcDbEntity
420
15352629
8
0
100
AcDbHatch
10
0
20
0
30
0
210
0
220
0
230
1
2
SOLID
70
1
71
0
91
1
92
7
72
0
73
1
93
36
10
250
20
490
10
255.85270966048384
20
490.5764415879031
10
261.48050297095267
20
492.2836140246614
10
266.6671069905881
20
495.0559116309237
10
271.2132034355964
20
498.7867965644036
10
274.9440883690764
20
503.3328930094119
10
277.7163859753386
20
508.51949702904733
10
279.4235584120969
20
514.1472903395162
10
280
20
520
10
420
20
520
10
420.5764415879031
20
514.1472903395162
10
422.2836140246614
20
508.51949702904733
10
425.0559116309236
20
503.3328930094119
10
428.7867965644036
20
498.7867965644036
10
433.3328930094119
20
495.0559116309237
10
438.51949702904733
20
492.2836140246614
10
444.14729033951613
20
490.5764415879031
10
450
20
490
10
450
20
410
10
444.14729033951613
20
409.4235584120969
10
438.51949702904733
20
407.7163859753386
10
433.3328930094119
20
404.9440883690763
10
428.7867965644036
20
401.2132034355964
10
425.0559116309236
20
396.6671069905881
10
422.2836140246614
20
391.48050297095267
10
420.5764415879031
20
385.8527096604838
10
420
20
380
10
280
20
380
10
279.4235584120969
20
385.8527096604838
10
277.7163859753386
20
391.48050297095267
10
274.9440883690764
20
396.6671069905881
10
271.2132034355964
20
401.2132034355964
10
266.6671069905881
20
404.9440883690763
10
261.48050297095267
20
407.7163859753386
10
255.85270966048384
20
409.4235584120969
10
250
20
410
97
0
75
1
76
1
47
1
98
0
0
LWPOLYLINE
5
1E
330
C
100
AcDbEntity
420
15352629
8
0
100
AcDbPolyline
90
37
70
0
43
0
38
0
39
0
10
250
20
490
10
255.85270966048384
20
490.5764415879031
10
261.48050297095267
20
492.2836140246614
10
266.6671069905881
20
495.0559116309237
10
271.2132034355964
20
498.7867965644036
10
274.9440883690764
20
503.3328930094119
10
277.7163859753386
20
508.51949702904733
10
279.4235584120969
20
514.1472903395162
10
280
20
520
10
420
20
520
10
420.5764415879031
20
514.1472903395162
10
422.2836140246614
20
508.51949702904733
10
425.0559116309236
20
503.3328930094119
10
428.7867965644036
20
498.7867965644036
10
433.3328930094119
20
495.0559116309237
10
438.51949702904733
20
492.2836140246614
10
444.14729033951613
20
490.5764415879031
10
450
20
490
10
450
20
410
10
444.14729033951613
20
409.4235584120969
10
438.51949702904733
20
407.7163859753386
10
433.3328930094119
20
404.9440883690763
10
428.7867965644036
20
401.2132034355964
10
425.0559116309236
20
396.6671069905881
10
422.2836140246614
20
391.48050297095267
10
420.5764415879031
20
385.8527096604838
10
420
20
380
10
280
20
380
10
279.4235584120969
20
385.8527096604838
10
277.7163859753386
20
391.48050297095267
10
274.9440883690764
20
396.6671069905881
10
271.2132034355964
20
401.2132034355964
10
266.6671069905881
20
404.9440883690763
10
261.48050297095267
20
407.7163859753386
10
255.85270966048384
20
409.4235584120969
10
250
20
410
10
250
20
490
0
TEXT
5
1F
330
C
100
AcDbEntity
420
16777215
8
0
100
AcDbText
10
330.140625
20
454.5
30
0
40
14
1
Scoop
7
STANDARD
100
AcDbText
0
TEXT
5
20
330
C
100
AcDbEntity
420
16777215
8
0
100
AcDbText
10
319.265625
20
438.5
30
0
40
14
1
(concave)
7
STANDARD
100
AcDbText
0
HATCH
5
21
330
C
100
AcDbEntity
420
16497669
8
0
100
AcDbHatch
10
0
20
0
30
0
210
0
220
0
230
1
2
SOLID
70
1
71
0
91
1
92
7
72
0
73
1
93
36
10
480
20
490
10
483.75
20
493.75
10
487.5
20
497.5
10
491.25
20
501.25
10
495
20
505
10
498.75
20
508.75
10
502.5
20
512.5
10
506.25
20
516.25
10
510
20
520
10
650
20
520
10
653.75
20
516.25
10
657.5
20
512.5
10
661.25
20
508.75
10
665
20
505
10
668.75
20
501.25
10
672.5
20
497.5
10
676.25
20
493.75
10
680
20
490
10
680
20
410
10
676.25
20
406.25
10
672.5
20
402.5
10
668.75
20
398.75
10
665
20
395
10
661.25
20
391.25
10
657.5
20
387.5
10
653.75
20
383.75
10
650
20
380
10
510
20
380
10
506.25
20
383.75
10
502.5
20
387.5
10
498.75
20
391.25
10
495
20
395
10
491.25
20
398.75
10
487.5
20
402.5
10
483.75
20
406.25
10
480
20
410
97
0
75
1
76
1
47
1
98
0
0
LWPOLYLINE
5
22
330
C
100
AcDbEntity
420
16497669
8
0
100
AcDbPolyline
90
37
70
0
43
0
38
0
39
0
10
480
20
490
10
483.75
20
493.75
10
487.5
20
497.5
10
491.25
20
501.25
10
495
20
505
10
498.75
20
508.75
10
502.5
20
512.5
10
506.25
20
516.25
10
510
20
520
10
650
20
520
10
653.75
20
516.25
10
657.5
20
512.5
10
661.25
20
508.75
10
665
20
505
10
668.75
20
501.25
10
672.5
20
497.5
10
676.25
20
493.75
10
680
20
490
10
680
20
410
10
676.25
20
406.25
10
672.5
20
402.5
10
668.75
20
398.75
10
665
20
395
10
661.25
20
391.25
10
657.5
20
387.5
10
653.75
20
383.75
10
650
20
380
10
510
20
380
10
506.25
20
383.75
10
502.5
20
387.5
10
498.75
20
391.25
10
495
20
395
10
491.25
20
398.75
10
487.5
20
402.5
10
483.75
20
406.25
10
480
20
410
10
480
20
490
0
TEXT
5
23
330
C
100
AcDbEntity
420
3355443
8
0
100
AcDbText
10
562.46875
20
454.5
30
0
40
14
1
Bevel
7
STANDARD
100
AcDbText
0
TEXT
5
24
330
C
100
AcDbEntity
420
3355443
8
0
100
AcDbText
10
548.859375
20
438.5
30
0
40
14
1
(diagonal)
7
STANDARD
100
AcDbText
0
HATCH
5
25
330
C
100
AcDbEntity
420
3450963
8
0
100
AcDbHatch
10
0
20
0
30
0
210
0
220
0
230
1
2
SOLID
70
1
71
0
91
1
92
7
72
0
73
1
93
12
10
710
20
490
10
740
20
490
10
740
20
520
10
880
20
520
10
880
20
490
10
910
20
490
10
910
20
410
10
880
20
410
10
880
20
380
10
740
20
380
10
740
20
410
10
710
20
410
97
0
75
1
76
1
47
1
98
0
0
LWPOLYLINE
5
26
330
C
100
AcDbEntity
420
3450963
8
0
100
AcDbPolyline
90
13
70
0
43
0
38
0
39
0
10
710
20
490
10
740
20
490
10
740
20
520
10
880
20
520
10
880
20
490
10
910
20
490
10
910
20
410
10
880
20
410
10
880
20
380
10
740
20
380
10
740
20
410
10
710
20
410
10
710
20
490
0
TEXT
5
27
330
C
100
AcDbEntity
420
16777215
8
0
100
AcDbText
10
791.703125
20
454.5
30
0
40
14
1
Notch
7
STANDARD
100
AcDbText
0
TEXT
5
28
330
C
100
AcDbEntity
420
16777215
8
0
100
AcDbText
10
778.09375
20
438.5
30
0
40
14
1
(inward V)
7
STANDARD
100
AcDbText
0
HATCH
5
29
330
C
100
AcDbEntity
420
10233776
8
0
100
AcDbHatch
10
0
20
0
30
0
210
0
220
0
230
1
2
SOLID
70
1
71
0
91
1
92
7
72
0
73
1
93
12
10
940
20
490
10
940
20
520
10
970
20
520
10
1110
20
520
10
1140
20
520
10
1140
20
490
10
1140
20
410
10
1140
20
380
10
1110
20
380
10
970
20
380
10
940
20
380
10
940
20
410
97
0
75
1
76
1
47
1
98
0
0
LWPOLYLINE
5
2A
330
C
100
AcDbEntity
420
10233776
8
0
100
AcDbPolyline
90
13
70
0
43
0
38
0
39
0
10
940
20
490
10
940
20
520
10
970
20
520
10
1110
20
520
10
1140
20
520
10
1140
20
490
10
1140
20
410
10
1140
20
380
10
1110
20
380
10
970
20
380
10
940
20
380
10
940
20
410
10
940
20
490
0
TEXT
5
2B
330
C
100
AcDbEntity
420
16777215
8
0
100
AcDbText
10
1017.40625
20
454.5
30
0
40
14
1
Square
7
STANDARD
100
AcDbText
0
TEXT
5
2C
330
C
100
AcDbEntity
420
16777215
8
0
100
AcDbText
10
996.03125
20
438.5
30
0
40
14
1
(sharp corner)
7
STANDARD
100
AcDbText
0
HATCH
5
2D
330
C
100
AcDbEntity
420
16740096
8
0
100
AcDbHatch
10
0
20
0
30
0
210
0
220
0
230
1
2
SOLID
70
1
71
0
91
1
92
7
72
0
73
1
93
36
10
20
20
310
10
20.38615837052447
20
327.6676120408448
10
21.552539069295374
20
334.7445648938134
10
23.526017770415137
20
339.8146335350841
10
26.364143389851414
20
343.6358566101486
10
30.185366464915862
20
346.47398222958486
10
35.255435106186575
20
348.44746093070466
10
42.33238795915517
20
349.61384162947553
10
59.999999686995615
20
350
10
180
20
350
10
197.66761204084483
20
349.61384162947553
10
204.74456489381342
20
348.44746093070466
10
209.81463353508414
20
346.47398222958486
10
213.63585661014858
20
343.6358566101486
10
216.47398222958486
20
339.8146335350841
10
218.44746093070464
20
334.7445648938134
10
219.61384162947553
20
327.6676120408448
10
220
20
310.0000003130044
10
220
20
250
10
219.61384162947553
20
232.3323879591552
10
218.44746093070464
20
225.25543510618655
10
216.47398222958486
20
220.1853664649159
10
213.63585661014858
20
216.3641433898514
10
209.81463353508414
20
213.52601777041514
10
204.74456489381342
20
211.5525390692954
10
197.66761204084483
20
210.38615837052447
10
180.0000003130044
20
210
10
60
20
210
10
42.33238795915517
20
210.38615837052447
10
35.25543510618658
20
211.5525390692954
10
30.185366464915866
20
213.52601777041514
10
26.36414338985142
20
216.3641433898514
10
23.526017770415137
20
220.1853664649159
10
21.552539069295374
20
225.25543510618655
10
20.38615837052447
20
232.33238795915514
10
20
20
249.99999968699564
97
0
75
1
76
1
47
1
98
0
0
LWPOLYLINE
5
2E
330
C
100
AcDbEntity
420
16740096
8
0
100
AcDbPolyline
90
37
70
0
43
0
38
0
39
0
10
20
20
310
10
20.38615837052447
20
327.6676120408448
10
21.552539069295374
20
334.7445648938134
10
23.526017770415137
20
339.8146335350841
10
26.364143389851414
20
343.6358566101486
10
30.185366464915862
20
346.47398222958486
10
35.255435106186575
20
348.44746093070466
10
42.33238795915517
20
349.61384162947553
10
59.999999686995615
20
350
10
180
20
350
10
197.66761204084483
20
349.61384162947553
10
204.74456489381342
20
348.44746093070466
10
209.81463353508414
20
346.47398222958486
10
213.63585661014858
20
343.6358566101486
10
216.47398222958486
20
339.8146335350841
10
218.44746093070464
20
334.7445648938134
10
219.61384162947553
20
327.6676120408448
10
220
20
310.0000003130044
10
220
20
250
10
219.61384162947553
20
232.3323879591552
10
218.44746093070464
20
225.25543510618655
10
216.47398222958486
20
220.1853664649159
10
213.63585661014858
20
216.3641433898514
10
209.81463353508414
20
213.52601777041514
10
204.74456489381342
20
211.5525390692954
10
197.66761204084483
20
210.38615837052447
10
180.0000003130044
20
210
10
60
20
210
10
42.33238795915517
20
210.38615837052447
10
35.25543510618658
20
211.5525390692954
10
30.185366464915866
20
213.52601777041514
10
26.36414338985142
20
216.3641433898514
10
23.526017770415137
20
220.1853664649159
10
21.552539069295374
20
225.25543510618655
10
20.38615837052447
20
232.33238795915514
10
20
20
249.99999968699564
10
20
20
310
0
TEXT
5
2F
330
C
100
AcDbEntity
420
16777215
8
0
100
AcDbText
10
94.6875
20
284.5
30
0
40
14
1
Squircle
7
STANDARD
100
AcDbText
0
TEXT
5
30
330
C
100
AcDbEntity
420
16777215
8
0
100
AcDbText
10
92.375
20
268.5
30
0
40
14
1
(smooth)
7
STANDARD
100
AcDbText
0
HATCH
5
31
330
C
100
AcDbEntity
420
48340
8
0
100
AcDbHatch
10
0
20
0
30
0
210
0
220
0
230
1
2
SOLID
70
1
71
0
91
1
92
7
72
0
73
1
93
36
10
250
20
315
10
251.3321081810525
20
316.3321081810525
10
255.12563132923543
20
320.12563132923543
10
260.80303993361093
20
325.80303993361093
10
267.5
20
332.5
10
274.19696006638907
20
339.19696006638907
10
279.87436867076457
20
344.87436867076457
10
283.6678918189475
20
348.6678918189475
10
285
20
350
10
415
20
350
10
416.3321081810525
20
348.6678918189475
10
420.12563132923543
20
344.87436867076457
10
425.80303993361093
20
339.19696006638907
10
432.5
20
332.5
10
439.19696006638907
20
325.80303993361093
10
444.87436867076457
20
320.12563132923543
10
448.6678918189475
20
316.3321081810525
10
450
20
315
10
450
20
245
10
448.6678918189475
20
243.6678918189475
10
444.87436867076457
20
239.87436867076457
10
439.19696006638907
20
234.19696006638907
10
432.5
20
227.5
10
425.80303993361093
20
220.80303993361093
10
420.12563132923543
20
215.12563132923543
10
416.3321081810525
20
211.3321081810525
10
415
20
210
10
285
20
210
10
283.6678918189475
20
211.3321081810525
10
279.87436867076457
20
215.12563132923543
10
274.19696006638907
20
220.80303993361093
10
267.5
20
227.5
10
260.80303993361093
20
234.19696006638907
10
255.12563132923543
20
239.87436867076457
10
251.3321081810525
20
243.6678918189475
10
250
20
245
97
0
75
1
76
1
47
1
98
0
0
LWPOLYLINE
5
32
330
C
100
AcDbEntity
420
48340
8
0
100
AcDbPolyline
90
37
70
0
43
0
38
0
39
0
10
250
20
315
10
251.3321081810525
20
316.3321081810525
10
255.12563132923543
20
320.12563132923543
10
260.80303993361093
20
325.80303993361093
10
267.5
20
332.5
10
274.19696006638907
20
339.19696006638907
10
279.87436867076457
20
344.87436867076457
10
283.6678918189475
20
348.6678918189475
10
285
20
350
10
415
20
350
10
416.3321081810525
20
348.6678918189475
10
420.12563132923543
20
344.87436867076457
10
425.80303993361093
20
339.19696006638907
10
432.5
20
332.5
10
439.19696006638907
20
325.80303993361093
10
444.87436867076457
20
320.12563132923543
10
448.6678918189475
20
316.3321081810525
10
450
20
315
10
450
20
245
10
448.6678918189475
20
243.6678918189475
10
444.87436867076457
20
239.87436867076457
10
439.19696006638907
20
234.19696006638907
10
432.5
20
227.5
10
425.80303993361093
20
220.80303993361093
10
420.12563132923543
20
215.12563132923543
10
416.3321081810525
20
211.3321081810525
10
415
20
210
10
285
20
210
10
283.6678918189475
20
211.3321081810525
10
279.87436867076457
20
215.12563132923543
10
274.19696006638907
20
220.80303993361093
10
267.5
20
227.5
10
260.80303993361093
20
234.19696006638907
10
255.12563132923543
20
239.87436867076457
10
251.3321081810525
20
243.6678918189475
10
250
20
245
10
250
20
315
0
TEXT
5
33
330
C
100
AcDbEntity
420
16777215
8
0
100
AcDbText
10
298.25
20
276.5
30
0
40
14
1
superellipse(0.5)
7
STANDARD
100
AcDbText
0
HATCH
5
34
330
C
100
AcDbEntity
420
6323595
8
0
100
AcDbHatch
10
0
20
0
30
0
210
0
220
0
230
1
2
SOLID
70
1
71
0
91
1
92
7
72
0
73
1
93
30
10
480
20
310
10
487.8036128806451
20
310.76858878387077
10
495.3073372946036
20
313.0448186995485
10
502.2228093207841
20
316.7412155078982
10
508.2842712474619
20
321.7157287525381
10
513.2587844921018
20
327.7771906792159
10
516.9551813004515
20
334.6926627053964
10
519.2314112161292
20
342.1963871193549
10
520
20
350
10
640
20
350
10
647.8036128806451
20
349.23141121612923
10
655.3073372946036
20
346.9551813004515
10
662.2228093207841
20
343.25878449210177
10
668.2842712474619
20
338.2842712474619
10
673.2587844921018
20
332.2228093207841
10
676.9551813004515
20
325.3073372946036
10
679.2314112161292
20
317.8036128806451
10
680
20
310
10
680
20
250
10
675
20
245
10
670
20
240
10
665
20
235
10
660
20
230
10
655
20
225
10
650
20
220
10
645
20
215
10
640
20
210
10
520
20
210
10
520
20
250
10
480
20
250
97
0
75
1
76
1
47
1
98
0
0
LWPOLYLINE
5
35
330
C
100
AcDbEntity
420
6323595
8
0
100
AcDbPolyline
90
31
70
0
43
0
38
0
39
0
10
480
20
310
10
487.8036128806451
20
310.76858878387077
10
495.3073372946036
20
313.0448186995485
10
502.2228093207841
20
316.7412155078982
10
508.2842712474619
20
321.7157287525381
10
513.2587844921018
20
327.7771906792159
10
516.9551813004515
20
334.6926627053964
10
519.2314112161292
20
342.1963871193549
10
520
20
350
10
640
20
350
10
647.8036128806451
20
349.23141121612923
10
655.3073372946036
20
346.9551813004515
10
662.2228093207841
20
343.25878449210177
10
668.2842712474619
20
338.2842712474619
10
673.2587844921018
20
332.2228093207841
10
676.9551813004515
20
325.3073372946036
10
679.2314112161292
20
317.8036128806451
10
680
20
310
10
680
20
250
10
675
20
245
10
670
20
240
10
665
20
235
10
660
20
230
10
655
20
225
10
650
20
220
10
645
20
215
10
640
20
210
10
520
20
210
10
520
20
250
10
480
20
250
10
480
20
310
0
TEXT
5
36
330
C
100
AcDbEntity
420
16777215
8
0
100
AcDbText
10
561.3125
20
292.5
30
0
40
14
1
Mixed
7
STANDARD
100
AcDbText
0
TEXT
5
37
330
C
100
AcDbEntity
420
16777215
8
0
100
AcDbText
10
520.203125
20
276.5
30
0
40
14
1
TL:scoop TR:round
7
STANDARD
100
AcDbText
0
TEXT
5
38
330
C
100
AcDbEntity
420
16777215
8
0
100
AcDbText
10
522.015625
20
260.5
30
0
40
14
1
BR:bevel BL:notch
7
STANDARD
100
AcDbText
0
HATCH
5
39
330
C
100
AcDbEntity
420
15277667
8
0
100
AcDbHatch
10
0
20
0
30
0
210
0
220
0
230
1
2
SOLID
70
1
71
0
91
1
92
7
72
0
73
1
93
36
10
710
20
300
10
719.7545161008064
20
300.9607359798385
10
729.1341716182545
20
303.80602337443565
10
737.7785116509801
20
308.42651938487273
10
745.3553390593273
20
314.6446609406726
10
751.5734806151272
20
322.22148834901986
10
756.1939766255643
20
330.8658283817455
10
759.0392640201616
20
340.2454838991936
10
760
20
350
10
880
20
350
10
880.9607359798384
20
340.2454838991936
10
883.8060233744357
20
330.8658283817455
10
888.4265193848728
20
322.22148834901986
10
894.6446609406726
20
314.6446609406726
10
902.2214883490199
20
308.42651938487273
10
910.8658283817455
20
303.80602337443565
10
920.2454838991936
20
300.9607359798385
10
930
20
300
10
930
20
240
10
920.2454838991936
20
239.0392640201615
10
910.8658283817455
20
236.19397662556435
10
902.2214883490199
20
231.57348061512727
10
894.6446609406727
20
225.35533905932738
10
888.4265193848728
20
217.77851165098014
10
883.8060233744357
20
209.13417161825447
10
880.9607359798384
20
199.75451610080643
10
880
20
190
10
760
20
190
10
759.0392640201616
20
199.75451610080643
10
756.1939766255643
20
209.13417161825447
10
751.5734806151272
20
217.77851165098014
10
745.3553390593274
20
225.35533905932738
10
737.7785116509801
20
231.57348061512727
10
729.1341716182545
20
236.19397662556435
10
719.7545161008064
20
239.0392640201615
10
710
20
240
97
0
75
1
76
1
47
1
98
0
0
LWPOLYLINE
5
3A
330
C
100
AcDbEntity
420
15277667
8
0
100
AcDbPolyline
90
37
70
0
43
0
38
0
39
0
10
710
20
300
10
719.7545161008064
20
300.9607359798385
10
729.1341716182545
20
303.80602337443565
10
737.7785116509801
20
308.42651938487273
10
745.3553390593273
20
314.6446609406726
10
751.5734806151272
20
322.22148834901986
10
756.1939766255643
20
330.8658283817455
10
759.0392640201616
20
340.2454838991936
10
760
20
350
10
880
20
350
10
880.9607359798384
20
340.2454838991936
10
883.8060233744357
20
330.8658283817455
10
888.4265193848728
20
322.22148834901986
10
894.6446609406726
20
314.6446609406726
10
902.2214883490199
20
308.42651938487273
10
910.8658283817455
20
303.80602337443565
10
920.2454838991936
20
300.9607359798385
10
930
20
300
10
930
20
240
10
920.2454838991936
20
239.0392640201615
10
910.8658283817455
20
236.19397662556435
10
902.2214883490199
20
231.57348061512727
10
894.6446609406727
20
225.35533905932738
10
888.4265193848728
20
217.77851165098014
10
883.8060233744357
20
209.13417161825447
10
880.9607359798384
20
199.75451610080643
10
880
20
190
10
760
20
190
10
759.0392640201616
20
199.75451610080643
10
756.1939766255643
20
209.13417161825447
10
751.5734806151272
20
217.77851165098014
10
745.3553390593274
20
225.35533905932738
10
737.7785116509801
20
231.57348061512727
10
729.1341716182545
20
236.19397662556435
10
719.7545161008064
20
239.0392640201615
10
710
20
240
10
710
20
300
0
TEXT
5
3B
330
C
100
AcDbEntity
420
16777215
8
0
100
AcDbText
10
780.28125
20
274.5
30
0
40
14
1
Large Scoop
7
STANDARD
100
AcDbText
0
TEXT
5
3C
330
C
100
AcDbEntity
420
16777215
8
0
100
AcDbText
10
779.140625
20
258.5
30
0
40
14
1
(50px radius)
7
STANDARD
100
AcDbText
0
HATCH
5
3D
330
C
100
AcDbEntity
420
15984117
8
0
100
AcDbHatch
10
0
20
0
30
0
210
0
220
0
230
1
2
SOLID
70
1
71
0
91
1
92
7
72
0
73
1
93
36
10
960
20
320
10
960.2896187778933
20
333.25070903063363
10
961.1644043019716
20
338.55842367036007
10
962.6445133278114
20
342.36097515131314
10
964.7731075423885
20
345.2268924576114
10
967.6390248486869
20
347.35548667218865
10
971.4415763296399
20
348.83559569802844
10
976.7492909693664
20
349.71038122210666
10
989.9999997652467
20
350
10
1136
20
350
10
1149.2507090306335
20
349.71038122210666
10
1154.55842367036
20
348.83559569802844
10
1158.3609751513131
20
347.35548667218865
10
1161.2268924576115
20
345.2268924576114
10
1163.3554866721886
20
342.36097515131314
10
1164.8355956980286
20
338.55842367036007
10
1165.7103812221067
20
333.25070903063363
10
1166
20
320.0000002347533
10
1166
20
234
10
1165.7103812221067
20
220.74929096936637
10
1164.8355956980286
20
215.44157632963993
10
1163.3554866721886
20
211.63902484868692
10
1161.2268924576115
20
208.77310754238857
10
1158.3609751513131
20
206.64451332781135
10
1154.55842367036
20
205.16440430197156
10
1149.2507090306335
20
204.28961877789334
10
1136.0000002347533
20
204
10
990
20
204
10
976.7492909693664
20
204.28961877789334
10
971.4415763296399
20
205.16440430197156
10
967.6390248486869
20
206.64451332781135
10
964.7731075423885
20
208.77310754238857
10
962.6445133278114
20
211.63902484868692
10
961.1644043019716
20
215.44157632963993
10
960.2896187778933
20
220.74929096936637
10
960
20
233.99999976524668
97
0
75
1
76
1
47
1
98
0
0
LWPOLYLINE
5
3E
330
C
100
AcDbEntity
420
10233776
8
0
100
AcDbPolyline
90
37
70
0
43
0
38
0
39
0
10
960
20
320
10
960.2896187778933
20
333.25070903063363
10
961.1644043019716
20
338.55842367036007
10
962.6445133278114
20
342.36097515131314
10
964.7731075423885
20
345.2268924576114
10
967.6390248486869
20
347.35548667218865
10
971.4415763296399
20
348.83559569802844
10
976.7492909693664
20
349.71038122210666
10
989.9999997652467
20
350
10
1136
20
350
10
1149.2507090306335
20
349.71038122210666
10
1154.55842367036
20
348.83559569802844
10
1158.3609751513131
20
347.35548667218865
10
1161.2268924576115
20
345.2268924576114
10
1163.3554866721886
20
342.36097515131314
10
1164.8355956980286
20
338.55842367036007
10
1165.7103812221067
20
333.25070903063363
10
1166
20
320.0000002347533
10
1166
20
234
10
1165.7103812221067
20
220.74929096936637
10
1164.8355956980286
20
215.44157632963993
10
1163.3554866721886
20
211.63902484868692
10
1161.2268924576115
20
208.77310754238857
10
1158.3609751513131
20
206.64451332781135
10
1154.55842367036
20
205.16440430197156
10
1149.2507090306335
20
204.28961877789334
10
1136.0000002347533
20
204
10
990
20
204
10
976.7492909693664
20
204.28961877789334
10
971.4415763296399
20
205.16440430197156
10
967.6390248486869
20
206.64451332781135
10
964.7731075423885
20
208.77310754238857
10
962.6445133278114
20
211.63902484868692
10
961.1644043019716
20
215.44157632963993
10
960.2896187778933
20
220.74929096936637
10
960
20
233.99999976524668
10
960
20
320
0
TEXT
5
3F
330
C
100
AcDbEntity
420
10233776
8
0
100
AcDbText
10
1037.703125
20
281.5
30
0
40
14
1
Squircle
7
STANDARD
100
AcDbText
0
TEXT
5
40
330
C
100
AcDbEntity
420
10233776
8
0
100
AcDbText
10
1035.953125
20
265.5
30
0
40
14
1
+ Border
7
STANDARD
100
AcDbText
0
HATCH
5
41
330
C
100
AcDbEntity
420
16777215
8
0
100
AcDbHatch
10
0
20
0
30
0
210
0
220
0
230
1
2
SOLID
70
1
71
0
91
1
92
7
72
0
73
1
93
36
10
20
20
135
10
23.125
20
138.125
10
26.25
20
141.25
10
29.375
20
144.375
10
32.5
20
147.5
10
35.625
20
150.625
10
38.75
20
153.75
10
41.875
20
156.875
10
45
20
160
10
195
20
160
10
198.125
20
156.875
10
201.25
20
153.75
10
204.375
20
150.625
10
207.5
20
147.5
10
210.625
20
144.375
10
213.75
20
141.25
10
216.875
20
138.125
10
220
20
135
10
220
20
45
10
216.875
20
41.875
10
213.75
20
38.75
10
210.625
20
35.625
10
207.5
20
32.5
10
204.375
20
29.375
10
201.25
20
26.25
10
198.125
20
23.125
10
195
20
20
10
45
20
20
10
41.875
20
23.125
10
38.75
20
26.25
10
35.625
20
29.375
10
32.5
20
32.5
10
29.375
20
35.625
10
26.25
20
38.75
10
23.125
20
41.875
10
20
20
45
97
0
75
1
76
1
47
1
98
0
0
LWPOLYLINE
5
42
330
C
100
AcDbEntity
420
16777215
8
0
100
AcDbPolyline
90
37
70
0
43
0
38
0
39
0
10
20
20
135
10
23.125
20
138.125
10
26.25
20
141.25
10
29.375
20
144.375
10
32.5
20
147.5
10
35.625
20
150.625
10
38.75
20
153.75
10
41.875
20
156.875
10
45
20
160
10
195
20
160
10
198.125
20
156.875
10
201.25
20
153.75
10
204.375
20
150.625
10
207.5
20
147.5
10
210.625
20
144.375
10
213.75
20
141.25
10
216.875
20
138.125
10
220
20
135
10
220
20
45
10
216.875
20
41.875
10
213.75
20
38.75
10
210.625
20
35.625
10
207.5
20
32.5
10
204.375
20
29.375
10
201.25
20
26.25
10
198.125
20
23.125
10
195
20
20
10
45
20
20
10
41.875
20
23.125
10
38.75
20
26.25
10
35.625
20
29.375
10
32.5
20
32.5
10
29.375
20
35.625
10
26.25
20
38.75
10
23.125
20
41.875
10
20
20
45
10
20
20
135
0
TEXT
5
43
330
C
100
AcDbEntity
420
3355443
8
0
100
AcDbText
10
102.46875
20
94.5
30
0
40
14
1
Bevel
7
STANDARD
100
AcDbText
0
TEXT
5
44
330
C
100
AcDbEntity
420
3355443
8
0
100
AcDbText
10
88.65625
20
78.5
30
0
40
14
1
+ Shadow
7
STANDARD
100
AcDbText
0
HATCH
5
45
330
C
100
AcDbEntity
420
7951688
8
0
100
AcDbHatch
10
0
20
0
30
0
210
0
220
0
230
1
2
SOLID
70
1
71
0
91
1
92
7
72
0
73
1
93
36
10
250
20
130
10
263.25070903063363
20
130.28961877789334
10
268.55842367036007
20
131.16440430197156
10
272.3609751513131
20
132.64451332781135
10
275.2268924576114
20
134.77310754238857
10
277.35548667218865
20
137.63902484868692
10
278.83559569802844
20
141.44157632963993
10
279.71038122210666
20
146.74929096936637
10
280
20
159.99999976524668
10
420
20
160
10
420.28961877789334
20
146.74929096936637
10
421.16440430197156
20
141.44157632963993
10
422.64451332781135
20
137.63902484868692
10
424.7731075423886
20
134.77310754238857
10
427.6390248486869
20
132.64451332781135
10
431.44157632963993
20
131.16440430197156
10
436.74929096936637
20
130.28961877789334
10
449.9999997652467
20
130
10
450
20
50
10
436.74929096936637
20
49.71038122210666
10
431.44157632963993
20
48.83559569802844
10
427.6390248486869
20
47.35548667218865
10
424.7731075423886
20
45.22689245761143
10
422.64451332781135
20
42.360975151313085
10
421.16440430197156
20
38.55842367036007
10
420.28961877789334
20
33.25070903063363
10
420
20
20.000000234753315
10
280
20
20
10
279.71038122210666
20
33.25070903063363
10
278.83559569802844
20
38.55842367036007
10
277.35548667218865
20
42.360975151313085
10
275.2268924576114
20
45.22689245761143
10
272.3609751513131
20
47.35548667218865
10
268.55842367036007
20
48.83559569802844
10
263.25070903063363
20
49.71038122210666
10
250.0000002347533
20
50
97
0
75
1
76
1
47
1
98
0
0
LWPOLYLINE
5
46
330
C
100
AcDbEntity
420
7951688
8
0
100
AcDbPolyline
90
37
70
0
43
0
38
0
39
0
10
250
20
130
10
263.25070903063363
20
130.28961877789334
10
268.55842367036007
20
131.16440430197156
10
272.3609751513131
20
132.64451332781135
10
275.2268924576114
20
134.77310754238857
10
277.35548667218865
20
137.63902484868692
10
278.83559569802844
20
141.44157632963993
10
279.71038122210666
20
146.74929096936637
10
280
20
159.99999976524668
10
420
20
160
10
420.28961877789334
20
146.74929096936637
10
421.16440430197156
20
141.44157632963993
10
422.64451332781135
20
137.63902484868692
10
424.7731075423886
20
134.77310754238857
10
427.6390248486869
20
132.64451332781135
10
431.44157632963993
20
131.16440430197156
10
436.74929096936637
20
130.28961877789334
10
449.9999997652467
20
130
10
450
20
50
10
436.74929096936637
20
49.71038122210666
10
431.44157632963993
20
48.83559569802844
10
427.6390248486869
20
47.35548667218865
10
424.7731075423886
20
45.22689245761143
10
422.64451332781135
20
42.360975151313085
10
421.16440430197156
20
38.55842367036007
10
420.28961877789334
20
33.25070903063363
10
420
20
20.000000234753315
10
280
20
20
10
279.71038122210666
20
33.25070903063363
10
278.83559569802844
20
38.55842367036007
10
277.35548667218865
20
42.360975151313085
10
275.2268924576114
20
45.22689245761143
10
272.3609751513131
20
47.35548667218865
10
268.55842367036007
20
48.83559569802844
10
263.25070903063363
20
49.71038122210666
10
250.0000002347533
20
50
10
250
20
130
0
TEXT
5
47
330
C
100
AcDbEntity
420
16777215
8
0
100
AcDbText
10
301.75
20
86.5
30
0
40
14
1
superellipse(-2)
7
STANDARD
100
AcDbText
0
HATCH
5
48
330
C
100
AcDbEntity
420
4149685
8
0
100
AcDbHatch
10
0
20
0
30
0
210
0
220
0
230
1
2
SOLID
70
1
71
0
91
1
92
7
72
0
73
1
93
36
10
480
20
130
10
480.1161847657177
20
151.63557291145116
10
480.471300250381
20
154.75649665983156
10
481.0871747680001
20
156.67282701793744
10
482.0090102538958
20
157.99098974610422
10
483.32717298206256
20
158.91282523199988
10
485.24350334016844
20
159.52869974961902
10
488.36442708854884
20
159.88381523428228
10
509.9828399943727
20
160
10
650
20
160
10
671.6355729114512
20
159.88381523428228
10
674.7564966598316
20
159.52869974961902
10
676.6728270179374
20
158.91282523199988
10
677.9909897461042
20
157.99098974610422
10
678.9128252319998
20
156.67282701793744
10
679.528699749619
20
154.75649665983156
10
679.8838152342823
20
151.63557291145116
10
680
20
130.01716000562732
10
680
20
50
10
679.8838152342823
20
28.364427088548837
10
679.528699749619
20
25.243503340168445
10
678.9128252319998
20
23.32717298206262
10
677.9909897461042
20
22.00901025389578
10
676.6728270179374
20
21.08717476800018
10
674.7564966598316
20
20.471300250380978
10
671.6355729114512
20
20.116184765717662
10
650.0171600056273
20
20
10
510
20
20
10
488.36442708854884
20
20.116184765717662
10
485.24350334016844
20
20.471300250380978
10
483.32717298206256
20
21.08717476800018
10
482.0090102538958
20
22.00901025389578
10
481.0871747680001
20
23.32717298206262
10
480.471300250381
20
25.243503340168445
10
480.1161847657177
20
28.364427088548837
10
480
20
49.98283999437268
97
0
75
1
76
1
47
1
98
0
0
LWPOLYLINE
5
49
330
C
100
AcDbEntity
420
4149685
8
0
100
AcDbPolyline
90
37
70
0
43
0
38
0
39
0
10
480
20
130
10
480.1161847657177
20
151.63557291145116
10
480.471300250381
20
154.75649665983156
10
481.0871747680001
20
156.67282701793744
10
482.0090102538958
20
157.99098974610422
10
483.32717298206256
20
158.91282523199988
10
485.24350334016844
20
159.52869974961902
10
488.36442708854884
20
159.88381523428228
10
509.9828399943727
20
160
10
650
20
160
10
671.6355729114512
20
159.88381523428228
10
674.7564966598316
20
159.52869974961902
10
676.6728270179374
20
158.91282523199988
10
677.9909897461042
20
157.99098974610422
10
678.9128252319998
20
156.67282701793744
10
679.528699749619
20
154.75649665983156
10
679.8838152342823
20
151.63557291145116
10
680
20
130.01716000562732
10
680
20
50
10
679.8838152342823
20
28.364427088548837
10
679.528699749619
20
25.243503340168445
10
678.9128252319998
20
23.32717298206262
10
677.9909897461042
20
22.00901025389578
10
676.6728270179374
20
21.08717476800018
10
674.7564966598316
20
20.471300250380978
10
671.6355729114512
20
20.116184765717662
10
650.0171600056273
20
20
10
510
20
20
10
488.36442708854884
20
20.116184765717662
10
485.24350334016844
20
20.471300250380978
10
483.32717298206256
20
21.08717476800018
10
482.0090102538958
20
22.00901025389578
10
481.0871747680001
20
23.32717298206262
10
480.471300250381
20
25.243503340168445
10
480.1161847657177
20
28.364427088548837
10
480
20
49.98283999437268
10
480
20
130
0
TEXT
5
4A
330
C
100
AcDbEntity
420
16777215
8
0
100
AcDbText
10
534.078125
20
86.5
30
0
40
14
1
superellipse(5)
7
STANDARD
100
AcDbText
0
ENDSEC
0
SECTION
2
OBJECTS
0
DICTIONARY
5
A
330
0
100
AcDbDictionary
281
1
3
ACAD_GROUP
350
B
0
DICTIONARY
5
B
330
A
100
AcDbDictionary
281
0
0
ENDSEC
0
EOF