  0
SECTION
  2
HEADER
  0
ENDSEC
  0
SECTION
  2
CLASSES
  0
CLASS
  1
ACDBDICTIONARYWDFLT
  2
AcDbDictionaryWithDefault
  3
ObjectDBX Classes
 90
32768
280
0
281
0
  0
CLASS
  1
ACDBPLACEHOLDER
  2
AcDbPlaceHolder
  3
ObjectDBX Classes
 90
0
280
0
281
0
  0
CLASS
  1
LAYOUT
  2
AcDbLayout
  3
ObjectDBX Classes
 90
0
280
0
281
0
  0
CLASS
  1
DICTIONARYVAR
  2
AcDbDictionaryVar
  3
ObjectDBX Classes
 90
0
280
0
281
0
  0
CLASS
  1
TABLESTYLE
  2
AcDbTableStyle
  3
ObjectDBX Classes
 90
4095
280
0
281
0
  0
CLASS
  1
MATERIAL
  2
AcDbMaterial
  3
ObjectDBX Classes
 90
1153
280
0
281
0
  0
CLASS
  1
VISUALSTYLE
  2
AcDbVisualStyle
  3
ObjectDBX Classes
 90
4095
280
0
281
0
  0
CLASS
  1
SCALE
  2
AcDbScale
  3
ObjectDBX Classes
 90
1153
280
0
281
0
  0
CLASS
  1
MLEADERSTYLE
  2
AcDbMLeaderStyle
  3
ObjectDBX Classes
 90
4095
280
0
281
0
  0
CLASS
  1
CELLSTYLEMAP
  2
AcDbCellStyleMap
  3
ObjectDBX Classes
 90
1152
280
0
281
0
  0
CLASS
  1
EXACXREFPANELOBJECT
  2
ExAcXREFPanelObject
  3
ObjectDBX Classes
 90
1025
280
0
281
0
  0
CLASS
  1
NPOCOLLECTION
  2
AcDbImpNonPersistentObjectsCollection
  3
ObjectDBX Classes
 90
1153
280
0
281
0
  0
CLASS
  1
LAYER_INDEX
  2
AcDbLayerIndex
  3
ObjectDBX Classes
 90
0
280
0
281
0
  0
CLASS
  1
SPATIAL_INDEX
  2
AcDbSpatialIndex
  3
ObjectDBX Classes
 90
0
280
0
281
0
  0
CLASS
  1
IDBUFFER
  2
AcDbIdBuffer
  3
ObjectDBX Classes
 90
32768
280
0
281
0
  0
CLASS
  1
ACDBSECTIONVIEWSTYLE
  2
AcDbSectionViewStyle
  3
ObjectDBX Classes
 90
1025
280
0
281
0
  0
CLASS
  1
ACDBDETAILVIEWSTYLE
  2
AcDbDetailViewStyle
  3
ObjectDBX Classes
 90
1025
280
0
281
0
  0
CLASS
  1
MESH
  2
AcDbSubDMesh
  3
ObjectDBX Classes
 90
0
280
0
281
1
  0
CLASS
  1
SORTENTSTABLE
  2
AcDbSortentsTable
  3
ObjectDBX Classes
 90
0
280
0
281
0
  0
CLASS
  1
ACDB_TEXTOBJECTCONTEXTDATA_CLASS
  2
AcDbTextObjectContextData
  3
ObjectDBX Classes
 90
1153
280
0
281
0
  0
CLASS
  1
WIPEOUT
  2
AcDbWipeout
  3
WipeOut
 90
32895
280
0
281
1
  0
CLASS
  1
WIPEOUTVARIABLES
  2
AcDbWipeoutVariables
  3
WipeOut
 90
32768
280
0
281
0
  0
CLASS
  1
DIMASSOC
  2
AcDbDimAssoc
  3
AcDbDimAssoc
 90
0
280
0
281
0
  0
CLASS
  1
ACAD_TABLE
  2
AcDbTable
  3
ObjectDBX Classes
 90
1025
280
0
281
1
  0
CLASS
  1
TABLECONTENT
  2
AcDbTableContent
  3
ObjectDBX Classes
 90
1152
280
0
281
0
  0
CLASS
  1
TABLEGEOMETRY
  2
AcDbTableGeometry
  3
ObjectDBX Classes
 90
1152
280
0
281
0
  0
CLASS
  1
IMAGE
  2
AcDbRasterImage
  3
ISM
 90
32895
280
0
281
1
  0
CLASS
  1
IMAGEDEF
  2
AcDbRasterImageDef
  3
ISM
 90
0
280
0
281
0
  0
CLASS
  1
IMAGEDEF_REACTOR
  2
AcDbRasterImageDefReactor
  3
ISM
 90
1
280
0
281
0
  0
CLASS
  1
DBCOLOR
  2
AcDbColor
  3
ObjectDBX Classes
 90
0
280
0
281
0
  0
CLASS
  1
GEODATA
  2
AcDbGeoData
  3
ObjectDBX Classes
 90
4095
280
0
281
0
  0
CLASS
  1
MULTILEADER
  2
AcDbMLeader
  3
ObjectDBX Classes
 90
1025
280
0
281
0
  0
CLASS
  1
PDFUNDERLAY
  2
AcDbPdfReference
  3
ObjectDBX Classes
 90
4095
280
0
281
1
  0
CLASS
  1
PDFDEFINITION
  2
AcDbPdfDefinition
  3
ObjectDBX Classes
 90
1153
280
0
281
0
  0
CLASS
  1
RASTERVARIABLES
  2
AcDbRasterVariables
  3
ISM
 90
0
280
0
281
0
  0
CLASS
  1
SPATIAL_FILTER
  2
AcDbSpatialFilter
  3
ObjectDBX Classes
 90
0
280
0
281
0
  0
CLASS
  1
ACDB_MLEADEROBJECTCONTEXTDATA_CLASS
  2
AcDbMLeaderObjectContextData
  3
ObjectDBX Classes
 90
1025
280
0
281
0
  0
CLASS
  1
PLOTSETTINGS
  2
AcDbPlotSettings
  3
ObjectDBX Classes
 90
0
280
0
281
0
  0
CLASS
  1
FIELD
  2
AcDbField
  3
ObjectDBX Classes
 90
1152
280
0
281
0
  0
CLASS
  1
FIELDLIST
  2
AcDbFieldList
  3
ObjectDBX Classes
 90
1152
280
0
281
0
  0
CLASS
  1
ACDB_MTEXTATTRIBUTEOBJECTCONTEXTDATA_CLASS
  2
AcDbMTextAttributeObjectContextData
  3
ObjectDBX Classes
 90
1153
280
0
281
0
  0
CLASS
  1
ACDB_BLKREFOBJECTCONTEXTDATA_CLASS
  2
AcDbBlkRefObjectContextData
  3
ObjectDBX Classes
 90
1153
280
0
281
0
  0
ENDSEC
  0
SECTION
  2
TABLES
  0
TABLE
  2
VPORT
  5
A
330
0
100
AcDbSymbolTable
 70
1
  0
VPORT
  5
18
330
A
100
AcDbSymbolTableRecord
100
AcDbViewportTableRecord
  2
*Active
 70
0
 10
0.0
 20
0.0
 11
1.0
 21
1.0
 12
0.0
 22
0.0
 13
0.0
 23
0.0
 14
0.5
 24
0.5
 15
10.0
 25
10.0
 16
0.0
 26
0.0
 36
1.0
 17
0.0
 27
0.0
 37
0.0
 40
10.0
 41
1.0
 75
0
 76
1
  0
ENDTAB
  0
TABLE
  2
LTYPE
  5
6
330
0
100
AcDbSymbolTable
 70
3
  0
LTYPE
  5
B
330
6
100
AcDbSymbolTableRecord
100
AcDbLinetypeTableRecord
  2
ByLayer
 70
0
 72
0
 73
0
 40
0.0
  0
LTYPE
  5
C
330
6
100
AcDbSymbolTableRecord
100
AcDbLinetypeTableRecord
  2
ByBlock
 70
0
 72
0
 73
0
 40
0.0
  0
LTYPE
  5
D
330
6
100
AcDbSymbolTableRecord
100
AcDbLinetypeTableRecord
  2
Continuous
 70
0
 72
0
 73
0
 40
0.0
  0
ENDTAB
  0
TABLE
  2
LAYER
  5
5
330
0
100
AcDbSymbolTable
 70
1
  0
LAYER
  5
E
330
5
100
AcDbSymbolTableRecord
100
AcDbLayerTableRecord
  2
0
 70
0
 62
7
  6
Continuous
290
1
370
-3
390
0
  0
ENDTAB
  0
TABLE
  2
STYLE
  5
7
330
0
100
AcDbSymbolTable
 70
1
  0
STYLE
  5
15
330
7
100
AcDbSymbolTableRecord
100
AcDbTextStyleTableRecord
  2
Standard
 70
0
 40
0.0
 41
1.0
 42
0.0
 50
0.0
 71
0
  0
ENDTAB
  0
TABLE
  2
VIEW
  5
9
330
0
100
AcDbSymbolTable
 70
0
  0
ENDTAB
  0
TABLE
  2
UCS
  5
8
330
0
100
AcDbSymbolTable
 70
0
  0
ENDTAB
  0
TABLE
  2
APPID
  5
2
330
0
100
AcDbSymbolTable
 70
1
  0
APPID
  5
17
330
2
100
AcDbSymbolTableRecord
100
AcDbRegAppTableRecord
  2
ACAD
 70
0
  0
ENDTAB
  0
TABLE
  2
DIMSTYLE
  5
4
330
0
100
AcDbSymbolTable
 70
1
100
AcDbDimStyleTable
  0
DIMSTYLE
105
16
330
4
100
AcDbSymbolTableRecord
100
AcDbDimStyleTableRecord
  2
Standard
 70
0
  3
<>
  4
[]
 40
1.0
 41
0.18
 42
0.625
 43
3.75
 44
1.25
 45
0.0
 46
0.0
 47
0.0
 48
0.0
 49
1.0
 50
0.7853981633974483
 70
0
 90
0
140
0.18
141
0.09
142
0.0
143
25.3999999999999986
144
1.0
145
0.0
146
1.0
147
0.625
148
0.0
 71
0
 72
0
 73
0
 74
0
 75
0
 76
0
 77
1
 78
8
 79
0
170
0
171
3
172
0
173
1
174
0
175
0
176
0
177
0
178
0
179
0
271
2
272
2
273
2
274
3
275
0
276
0
277
2
278
46
279
0
280
0
281
0
282
0
283
0
284
8
285
0
286
0
287
0
288
0
289
3
290
0
340
0
371
-2
372
-2
  0
ENDTAB
  0
TABLE
  2
BLOCK_RECORD
  5
3
330
0
100
AcDbSymbolTable
 70
2
  0
BLOCK_RECORD
  5
F
330
3
100
AcDbSymbolTableRecord
100
AcDbBlockTableRecord
  2
*Model_Space
 70
0
 70
0
280
0
281
1
  0
BLOCK_RECORD
  5
12
330
3
100
AcDbSymbolTableRecord
100
AcDbBlockTableRecord
  2
*Paper_Space
 70
0
 70
0
280
0
281
1
  0
ENDTAB
  0
ENDSEC
  0
SECTION
  2
BLOCKS
  0
BLOCK
  5
10
330
F
100
AcDbEntity
  8
0
  6
ByLayer
 62
256
 48
1.0
 60
0
370
-1
100
AcDbBlockBegin
  2
*Model_Space
 70
0
 10
0.0
 20
0.0
 30
0.0
  3
*Model_Space
  0
ENDBLK
  5
11
330
F
100
AcDbEntity
  8
0
100
AcDbBlockEnd
  0
BLOCK
  5
13
330
12
100
AcDbEntity
  8
0
  6
ByLayer
 62
256
 48
1.0
 60
0
370
-1
100
AcDbBlockBegin
  2
*Paper_Space
 70
0
 10
0.0
 20
0.0
 30
0.0
  3
*Paper_Space
  0
ENDBLK
  5
14
330
12
100
AcDbEntity
  8
0
100
AcDbBlockEnd
  0
ENDSEC
  0
SECTION
  2
ENTITIES
  0
TEXT
  5
19
330
F
100
AcDbEntity
  8
0
  6
ByLayer
420
9375783
 48
1.0
 60
0
370
-1
100
AcDbText
 39
0.0
 10
55.9998124999999902
 20
1513.0
 30
0.0
 40
70.0
  1
CSS
 50
0.0
 41
1.0
 51
0.0
  7
Standard
 71
0
 72
0
 11
0.0
 21
0.0
 31
0.0
210
0.0
220
0.0
230
1.0
100
AcDbText
 73
0
  0
TEXT
  5
1A
330
F
100
AcDbEntity
  8
0
  6
ByLayer
420
9375783
 48
1.0
 60
0
370
-1
100
AcDbText
 39
0.0
 10
55.9998124999999902
 20
1446.5
 30
0.0
 40
70.0
  1
PROPERTY
 50
0.0
 41
1.0
 51
0.0
  7
Standard
 71
0
 72
0
 11
0.0
 21
0.0
 31
0.0
210
0.0
220
0.0
230
1.0
100
AcDbText
 73
0
  0
TEXT
  5
1B
330
F
100
AcDbEntity
  8
0
  6
ByLayer
420
9375783
 48
1.0
 60
0
370
-1
100
AcDbText
 39
0.0
 10
55.9998124999999902
 20
1380.0
 30
0.0
 40
70.0
  1
SUPPORT
 50
0.0
 41
1.0
 51
0.0
  7
Standard
 71
0
 72
0
 11
0.0
 21
0.0
 31
0.0
210
0.0
220
0.0
230
1.0
100
AcDbText
 73
0
  0
TEXT
  5
1C
330
F
100
AcDbEntity
  8
0
  6
ByLayer
420
1454671
 48
1.0
 60
0
370
-1
100
AcDbText
 39
0.0
 10
56.0
 20
1322.5
 30
0.0
 40
22.0
  1
A focused demo for visual and text properties,
 50
0.0
 41
1.0
 51
0.0
  7
Standard
 71
0
 72
0
 11
0.0
 21
0.0
 31
0.0
210
0.0
220
0.0
230
1.0
100
AcDbText
 73
0
  0
TEXT
  5
1D
330
F
100
AcDbEntity
  8
0
  6
ByLayer
420
1454671
 48
1.0
 60
0
370
-1
100
AcDbText
 39
0.0
 10
56.0
 20
1288.40625
 30
0.0
 40
22.0
  1
including transformed boxes, mixed compositing,
 50
0.0
 41
1.0
 51
0.0
  7
Standard
 71
0
 72
0
 11
0.0
 21
0.0
 31
0.0
210
0.0
220
0.0
230
1.0
100
AcDbText
 73
0
  0
TEXT
  5
1E
330
F
100
AcDbEntity
  8
0
  6
ByLayer
420
1454671
 48
1.0
 60
0
370
-1
100
AcDbText
 39
0.0
 10
56.0
 20
1254.3125
 30
0.0
 40
22.0
  1
masking, ellipsis, vertical writing, and whitespace-
 50
0.0
 41
1.0
 51
0.0
  7
Standard
 71
0
 72
0
 11
0.0
 21
0.0
 31
0.0
210
0.0
220
0.0
230
1.0
100
AcDbText
 73
0
  0
TEXT
  5
1F
330
F
100
AcDbEntity
  8
0
  6
ByLayer
420
1454671
 48
1.0
 60
0
370
-1
100
AcDbText
 39
0.0
 10
56.0
 20
1220.21875
 30
0.0
 40
22.0
  1
sensitive text.
 50
0.0
 41
1.0
 51
0.0
  7
Standard
 71
0
 72
0
 11
0.0
 21
0.0
 31
0.0
210
0.0
220
0.0
230
1.0
100
AcDbText
 73
0
  0
HATCH
  5
20
330
F
100
AcDbEntity
  8
0
  6
ByLayer
420
16777215
 48
1.0
 60
0
370
-1
100
AcDbHatch
 30
0.0
210
0.0
220
0.0
230
1.0
  2
SOLID
 70
1
 71
0
 91
1
 92
2
 72
0
 73
1
 93
41
 10
904.0
 20
1563.0
 10
973.0
 20
1563.0
 10
973.0
 20
1563.0
 10
976.7067161183064172
 20
1562.634920327661348
 10
980.2709852149366725
 20
1561.5537111177145562
 10
983.5558344273724742
 20
1559.7979226337483851
 10
986.4350288425443978
 20
1557.4350288425443978
 10
988.7979226337483851
 20
1554.5558344273724742
 10
990.5537111177144425
 20
1551.2709852149366725
 10
991.634920327661348
 20
1547.7067161183065309
 10
992.0
 20
1544.0
 10
992.0
 20
1544.0
 10
992.0
 20
1544.0
 10
991.634920327661348
 20
1540.2932838816934691
 10
990.5537111177144425
 20
1536.7290147850633275
 10
988.7979226337483851
 20
1533.4441655726275258
 10
986.4350288425443978
 20
1530.5649711574556022
 10
983.5558344273724742
 20
1528.2020773662516149
 10
980.2709852149366725
 20
1526.4462888822854438
 10
976.7067161183064172
 20
1525.365079672338652
 10
973.0
 20
1525.0
 10
904.0
 20
1525.0
 10
904.0
 20
1525.0
 10
900.2932838816935828
 20
1525.365079672338652
 10
896.7290147850633275
 20
1526.4462888822854438
 10
893.4441655726275258
 20
1528.2020773662516149
 10
890.5649711574556022
 20
1530.5649711574556022
 10
888.2020773662516149
 20
1533.4441655726275258
 10
886.4462888822855575
 20
1536.7290147850633275
 10
885.365079672338652
 20
1540.2932838816934691
 10
885.0
 20
1544.0
 10
885.0
 20
1544.0
 10
885.0
 20
1544.0
 10
885.365079672338652
 20
1547.7067161183065309
 10
886.4462888822855575
 20
1551.2709852149366725
 10
888.2020773662516149
 20
1554.5558344273724742
 10
890.5649711574556022
 20
1557.4350288425443978
 10
893.4441655726275258
 20
1559.7979226337483851
 10
896.7290147850633275
 20
1561.5537111177145562
 10
900.2932838816935828
 20
1562.634920327661348
 10
904.0
 20
1563.0
 97
0
 75
0
 76
1
 47
0.0
 98
0
  0
LWPOLYLINE
  5
21
330
F
100
AcDbEntity
  8
0
  6
ByLayer
420
16777215
 48
1.0
 60
0
370
-1
100
AcDbPolyline
 90
41
 70
1
 43
0.0
 38
0.0
 39
0.0
210
0.0
220
0.0
230
1.0
 10
904.0
 20
1563.0
 40
0.0
 41
0.0
 42
0.0
 10
973.0
 20
1563.0
 40
0.0
 41
0.0
 42
0.0
 10
973.0
 20
1563.0
 40
0.0
 41
0.0
 42
0.0
 10
976.7067161183064172
 20
1562.634920327661348
 40
0.0
 41
0.0
 42
0.0
 10
980.2709852149366725
 20
1561.5537111177145562
 40
0.0
 41
0.0
 42
0.0
 10
983.5558344273724742
 20
1559.7979226337483851
 40
0.0
 41
0.0
 42
0.0
 10
986.4350288425443978
 20
1557.4350288425443978
 40
0.0
 41
0.0
 42
0.0
 10
988.7979226337483851
 20
1554.5558344273724742
 40
0.0
 41
0.0
 42
0.0
 10
990.5537111177144425
 20
1551.2709852149366725
 40
0.0
 41
0.0
 42
0.0
 10
991.634920327661348
 20
1547.7067161183065309
 40
0.0
 41
0.0
 42
0.0
 10
992.0
 20
1544.0
 40
0.0
 41
0.0
 42
0.0
 10
992.0
 20
1544.0
 40
0.0
 41
0.0
 42
0.0
 10
992.0
 20
1544.0
 40
0.0
 41
0.0
 42
0.0
 10
991.634920327661348
 20
1540.2932838816934691
 40
0.0
 41
0.0
 42
0.0
 10
990.5537111177144425
 20
1536.7290147850633275
 40
0.0
 41
0.0
 42
0.0
 10
988.7979226337483851
 20
1533.4441655726275258
 40
0.0
 41
0.0
 42
0.0
 10
986.4350288425443978
 20
1530.5649711574556022
 40
0.0
 41
0.0
 42
0.0
 10
983.5558344273724742
 20
1528.2020773662516149
 40
0.0
 41
0.0
 42
0.0
 10
980.2709852149366725
 20
1526.4462888822854438
 40
0.0
 41
0.0
 42
0.0
 10
976.7067161183064172
 20
1525.365079672338652
 40
0.0
 41
0.0
 42
0.0
 10
973.0
 20
1525.0
 40
0.0
 41
0.0
 42
0.0
 10
904.0
 20
1525.0
 40
0.0
 41
0.0
 42
0.0
 10
904.0
 20
1525.0
 40
0.0
 41
0.0
 42
0.0
 10
900.2932838816935828
 20
1525.365079672338652
 40
0.0
 41
0.0
 42
0.0
 10
896.7290147850633275
 20
1526.4462888822854438
 40
0.0
 41
0.0
 42
0.0
 10
893.4441655726275258
 20
1528.2020773662516149
 40
0.0
 41
0.0
 42
0.0
 10
890.5649711574556022
 20
1530.5649711574556022
 40
0.0
 41
0.0
 42
0.0
 10
888.2020773662516149
 20
1533.4441655726275258
 40
0.0
 41
0.0
 42
0.0
 10
886.4462888822855575
 20
1536.7290147850633275
 40
0.0
 41
0.0
 42
0.0
 10
885.365079672338652
 20
1540.2932838816934691
 40
0.0
 41
0.0
 42
0.0
 10
885.0
 20
1544.0
 40
0.0
 41
0.0
 42
0.0
 10
885.0
 20
1544.0
 40
0.0
 41
0.0
 42
0.0
 10
885.0
 20
1544.0
 40
0.0
 41
0.0
 42
0.0
 10
885.365079672338652
 20
1547.7067161183065309
 40
0.0
 41
0.0
 42
0.0
 10
886.4462888822855575
 20
1551.2709852149366725
 40
0.0
 41
0.0
 42
0.0
 10
888.2020773662516149
 20
1554.5558344273724742
 40
0.0
 41
0.0
 42
0.0
 10
890.5649711574556022
 20
1557.4350288425443978
 40
0.0
 41
0.0
 42
0.0
 10
893.4441655726275258
 20
1559.7979226337483851
 40
0.0
 41
0.0
 42
0.0
 10
896.7290147850633275
 20
1561.5537111177145562
 40
0.0
 41
0.0
 42
0.0
 10
900.2932838816935828
 20
1562.634920327661348
 40
0.0
 41
0.0
 42
0.0
 10
904.0
 20
1563.0
 40
0.0
 41
0.0
 42
0.0
  0
TEXT
  5
22
330
F
100
AcDbEntity
  8
0
  6
ByLayer
420
1454671
 48
1.0
 60
0
370
-1
100
AcDbText
 39
0.0
 10
902.9999504089355469
 20
1541.0
 30
0.0
 40
14.0
  1
OUTLINE
 50
0.0
 41
1.0
 51
0.0
  7
Standard
 71
0
 72
0
 11
0.0
 21
0.0
 31
0.0
210
0.0
220
0.0
230
1.0
100
AcDbText
 73
0
  0
HATCH
  5
23
330
F
100
AcDbEntity
  8
0
  6
ByLayer
420
16777215
 48
1.0
 60
0
370
-1
100
AcDbHatch
 30
0.0
210
0.0
220
0.0
230
1.0
  2
SOLID
 70
1
 71
0
 91
1
 92
2
 72
0
 73
1
 93
41
 10
1023.0
 20
1563.0
 10
1074.0
 20
1563.0
 10
1074.0
 20
1563.0
 10
1077.7067161183065309
 20
1562.634920327661348
 10
1081.2709852149366725
 20
1561.5537111177145562
 10
1084.5558344273724742
 20
1559.7979226337483851
 10
1087.4350288425443978
 20
1557.4350288425443978
 10
1089.7979226337483851
 20
1554.5558344273724742
 10
1091.5537111177145562
 20
1551.2709852149366725
 10
1092.634920327661348
 20
1547.7067161183065309
 10
1093.0
 20
1544.0
 10
1093.0
 20
1544.0
 10
1093.0
 20
1544.0
 10
1092.634920327661348
 20
1540.2932838816934691
 10
1091.5537111177145562
 20
1536.7290147850633275
 10
1089.7979226337483851
 20
1533.4441655726275258
 10
1087.4350288425443978
 20
1530.5649711574556022
 10
1084.5558344273724742
 20
1528.2020773662516149
 10
1081.2709852149366725
 20
1526.4462888822854438
 10
1077.7067161183065309
 20
1525.365079672338652
 10
1074.0
 20
1525.0
 10
1023.0
 20
1525.0
 10
1023.0
 20
1525.0
 10
1019.2932838816935828
 20
1525.365079672338652
 10
1015.7290147850633275
 20
1526.4462888822854438
 10
1012.4441655726275258
 20
1528.2020773662516149
 10
1009.5649711574556022
 20
1530.5649711574556022
 10
1007.2020773662516149
 20
1533.4441655726275258
 10
1005.4462888822855575
 20
1536.7290147850633275
 10
1004.365079672338652
 20
1540.2932838816934691
 10
1004.0
 20
1544.0
 10
1004.0
 20
1544.0
 10
1004.0
 20
1544.0
 10
1004.365079672338652
 20
1547.7067161183065309
 10
1005.4462888822855575
 20
1551.2709852149366725
 10
1007.2020773662516149
 20
1554.5558344273724742
 10
1009.5649711574556022
 20
1557.4350288425443978
 10
1012.4441655726275258
 20
1559.7979226337483851
 10
1015.7290147850633275
 20
1561.5537111177145562
 10
1019.2932838816935828
 20
1562.634920327661348
 10
1023.0
 20
1563.0
 97
0
 75
0
 76
1
 47
0.0
 98
0
  0
LWPOLYLINE
  5
24
330
F
100
AcDbEntity
  8
0
  6
ByLayer
420
16777215
 48
1.0
 60
0
370
-1
100
AcDbPolyline
 90
41
 70
1
 43
0.0
 38
0.0
 39
0.0
210
0.0
220
0.0
230
1.0
 10
1023.0
 20
1563.0
 40
0.0
 41
0.0
 42
0.0
 10
1074.0
 20
1563.0
 40
0.0
 41
0.0
 42
0.0
 10
1074.0
 20
1563.0
 40
0.0
 41
0.0
 42
0.0
 10
1077.7067161183065309
 20
1562.634920327661348
 40
0.0
 41
0.0
 42
0.0
 10
1081.2709852149366725
 20
1561.5537111177145562
 40
0.0
 41
0.0
 42
0.0
 10
1084.5558344273724742
 20
1559.7979226337483851
 40
0.0
 41
0.0
 42
0.0
 10
1087.4350288425443978
 20
1557.4350288425443978
 40
0.0
 41
0.0
 42
0.0
 10
1089.7979226337483851
 20
1554.5558344273724742
 40
0.0
 41
0.0
 42
0.0
 10
1091.5537111177145562
 20
1551.2709852149366725
 40
0.0
 41
0.0
 42
0.0
 10
1092.634920327661348
 20
1547.7067161183065309
 40
0.0
 41
0.0
 42
0.0
 10
1093.0
 20
1544.0
 40
0.0
 41
0.0
 42
0.0
 10
1093.0
 20
1544.0
 40
0.0
 41
0.0
 42
0.0
 10
1093.0
 20
1544.0
 40
0.0
 41
0.0
 42
0.0
 10
1092.634920327661348
 20
1540.2932838816934691
 40
0.0
 41
0.0
 42
0.0
 10
1091.5537111177145562
 20
1536.7290147850633275
 40
0.0
 41
0.0
 42
0.0
 10
1089.7979226337483851
 20
1533.4441655726275258
 40
0.0
 41
0.0
 42
0.0
 10
1087.4350288425443978
 20
1530.5649711574556022
 40
0.0
 41
0.0
 42
0.0
 10
1084.5558344273724742
 20
1528.2020773662516149
 40
0.0
 41
0.0
 42
0.0
 10
1081.2709852149366725
 20
1526.4462888822854438
 40
0.0
 41
0.0
 42
0.0
 10
1077.7067161183065309
 20
1525.365079672338652
 40
0.0
 41
0.0
 42
0.0
 10
1074.0
 20
1525.0
 40
0.0
 41
0.0
 42
0.0
 10
1023.0
 20
1525.0
 40
0.0
 41
0.0
 42
0.0
 10
1023.0
 20
1525.0
 40
0.0
 41
0.0
 42
0.0
 10
1019.2932838816935828
 20
1525.365079672338652
 40
0.0
 41
0.0
 42
0.0
 10
1015.7290147850633275
 20
1526.4462888822854438
 40
0.0
 41
0.0
 42
0.0
 10
1012.4441655726275258
 20
1528.2020773662516149
 40
0.0
 41
0.0
 42
0.0
 10
1009.5649711574556022
 20
1530.5649711574556022
 40
0.0
 41
0.0
 42
0.0
 10
1007.2020773662516149
 20
1533.4441655726275258
 40
0.0
 41
0.0
 42
0.0
 10
1005.4462888822855575
 20
1536.7290147850633275
 40
0.0
 41
0.0
 42
0.0
 10
1004.365079672338652
 20
1540.2932838816934691
 40
0.0
 41
0.0
 42
0.0
 10
1004.0
 20
1544.0
 40
0.0
 41
0.0
 42
0.0
 10
1004.0
 20
1544.0
 40
0.0
 41
0.0
 42
0.0
 10
1004.0
 20
1544.0
 40
0.0
 41
0.0
 42
0.0
 10
1004.365079672338652
 20
1547.7067161183065309
 40
0.0
 41
0.0
 42
0.0
 10
1005.4462888822855575
 20
1551.2709852149366725
 40
0.0
 41
0.0
 42
0.0
 10
1007.2020773662516149
 20
1554.5558344273724742
 40
0.0
 41
0.0
 42
0.0
 10
1009.5649711574556022
 20
1557.4350288425443978
 40
0.0
 41
0.0
 42
0.0
 10
1012.4441655726275258
 20
1559.7979226337483851
 40
0.0
 41
0.0
 42
0.0
 10
1015.7290147850633275
 20
1561.5537111177145562
 40
0.0
 41
0.0
 42
0.0
 10
1019.2932838816935828
 20
1562.634920327661348
 40
0.0
 41
0.0
 42
0.0
 10
1023.0
 20
1563.0
 40
0.0
 41
0.0
 42
0.0
  0
TEXT
  5
25
330
F
100
AcDbEntity
  8
0
  6
ByLayer
420
1454671
 48
1.0
 60
0
370
-1
100
AcDbText
 39
0.0
 10
1022.0000381469726563
 20
1541.0
 30
0.0
 40
14.0
  1
FILTER
 50
0.0
 41
1.0
 51
0.0
  7
Standard
 71
0
 72
0
 11
0.0
 21
0.0
 31
0.0
210
0.0
220
0.0
230
1.0
100
AcDbText
 73
0
  0
HATCH
  5
26
330
F
100
AcDbEntity
  8
0
  6
ByLayer
420
16777215
 48
1.0
 60
0
370
-1
100
AcDbHatch
 30
0.0
210
0.0
220
0.0
230
1.0
  2
SOLID
 70
1
 71
0
 91
1
 92
2
 72
0
 73
1
 93
41
 10
1123.0
 20
1563.0
 10
1270.0
 20
1563.0
 10
1270.0
 20
1563.0
 10
1273.7067161183065309
 20
1562.634920327661348
 10
1277.2709852149366725
 20
1561.5537111177145562
 10
1280.5558344273724742
 20
1559.7979226337483851
 10
1283.4350288425443978
 20
1557.4350288425443978
 10
1285.7979226337483851
 20
1554.5558344273724742
 10
1287.5537111177145562
 20
1551.2709852149366725
 10
1288.634920327661348
 20
1547.7067161183065309
 10
1289.0
 20
1544.0
 10
1289.0
 20
1544.0
 10
1289.0
 20
1544.0
 10
1288.634920327661348
 20
1540.2932838816934691
 10
1287.5537111177145562
 20
1536.7290147850633275
 10
1285.7979226337483851
 20
1533.4441655726275258
 10
1283.4350288425443978
 20
1530.5649711574556022
 10
1280.5558344273724742
 20
1528.2020773662516149
 10
1277.2709852149366725
 20
1526.4462888822854438
 10
1273.7067161183065309
 20
1525.365079672338652
 10
1270.0
 20
1525.0
 10
1123.0
 20
1525.0
 10
1123.0
 20
1525.0
 10
1119.2932838816934691
 20
1525.365079672338652
 10
1115.7290147850633275
 20
1526.4462888822854438
 10
1112.4441655726275258
 20
1528.2020773662516149
 10
1109.5649711574556022
 20
1530.5649711574556022
 10
1107.2020773662516149
 20
1533.4441655726275258
 10
1105.4462888822854438
 20
1536.7290147850633275
 10
1104.365079672338652
 20
1540.2932838816934691
 10
1104.0
 20
1544.0
 10
1104.0
 20
1544.0
 10
1104.0
 20
1544.0
 10
1104.365079672338652
 20
1547.7067161183065309
 10
1105.4462888822854438
 20
1551.2709852149366725
 10
1107.2020773662516149
 20
1554.5558344273724742
 10
1109.5649711574556022
 20
1557.4350288425443978
 10
1112.4441655726275258
 20
1559.7979226337483851
 10
1115.7290147850633275
 20
1561.5537111177145562
 10
1119.2932838816934691
 20
1562.634920327661348
 10
1123.0
 20
1563.0
 97
0
 75
0
 76
1
 47
0.0
 98
0
  0
LWPOLYLINE
  5
27
330
F
100
AcDbEntity
  8
0
  6
ByLayer
420
16777215
 48
1.0
 60
0
370
-1
100
AcDbPolyline
 90
41
 70
1
 43
0.0
 38
0.0
 39
0.0
210
0.0
220
0.0
230
1.0
 10
1123.0
 20
1563.0
 40
0.0
 41
0.0
 42
0.0
 10
1270.0
 20
1563.0
 40
0.0
 41
0.0
 42
0.0
 10
1270.0
 20
1563.0
 40
0.0
 41
0.0
 42
0.0
 10
1273.7067161183065309
 20
1562.634920327661348
 40
0.0
 41
0.0
 42
0.0
 10
1277.2709852149366725
 20
1561.5537111177145562
 40
0.0
 41
0.0
 42
0.0
 10
1280.5558344273724742
 20
1559.7979226337483851
 40
0.0
 41
0.0
 42
0.0
 10
1283.4350288425443978
 20
1557.4350288425443978
 40
0.0
 41
0.0
 42
0.0
 10
1285.7979226337483851
 20
1554.5558344273724742
 40
0.0
 41
0.0
 42
0.0
 10
1287.5537111177145562
 20
1551.2709852149366725
 40
0.0
 41
0.0
 42
0.0
 10
1288.634920327661348
 20
1547.7067161183065309
 40
0.0
 41
0.0
 42
0.0
 10
1289.0
 20
1544.0
 40
0.0
 41
0.0
 42
0.0
 10
1289.0
 20
1544.0
 40
0.0
 41
0.0
 42
0.0
 10
1289.0
 20
1544.0
 40
0.0
 41
0.0
 42
0.0
 10
1288.634920327661348
 20
1540.2932838816934691
 40
0.0
 41
0.0
 42
0.0
 10
1287.5537111177145562
 20
1536.7290147850633275
 40
0.0
 41
0.0
 42
0.0
 10
1285.7979226337483851
 20
1533.4441655726275258
 40
0.0
 41
0.0
 42
0.0
 10
1283.4350288425443978
 20
1530.5649711574556022
 40
0.0
 41
0.0
 42
0.0
 10
1280.5558344273724742
 20
1528.2020773662516149
 40
0.0
 41
0.0
 42
0.0
 10
1277.2709852149366725
 20
1526.4462888822854438
 40
0.0
 41
0.0
 42
0.0
 10
1273.7067161183065309
 20
1525.365079672338652
 40
0.0
 41
0.0
 42
0.0
 10
1270.0
 20
1525.0
 40
0.0
 41
0.0
 42
0.0
 10
1123.0
 20
1525.0
 40
0.0
 41
0.0
 42
0.0
 10
1123.0
 20
1525.0
 40
0.0
 41
0.0
 42
0.0
 10
1119.2932838816934691
 20
1525.365079672338652
 40
0.0
 41
0.0
 42
0.0
 10
1115.7290147850633275
 20
1526.4462888822854438
 40
0.0
 41
0.0
 42
0.0
 10
1112.4441655726275258
 20
1528.2020773662516149
 40
0.0
 41
0.0
 42
0.0
 10
1109.5649711574556022
 20
1530.5649711574556022
 40
0.0
 41
0.0
 42
0.0
 10
1107.2020773662516149
 20
1533.4441655726275258
 40
0.0
 41
0.0
 42
0.0
 10
1105.4462888822854438
 20
1536.7290147850633275
 40
0.0
 41
0.0
 42
0.0
 10
1104.365079672338652
 20
1540.2932838816934691
 40
0.0
 41
0.0
 42
0.0
 10
1104.0
 20
1544.0
 40
0.0
 41
0.0
 42
0.0
 10
1104.0
 20
1544.0
 40
0.0
 41
0.0
 42
0.0
 10
1104.0
 20
1544.0
 40
0.0
 41
0.0
 42
0.0
 10
1104.365079672338652
 20
1547.7067161183065309
 40
0.0
 41
0.0
 42
0.0
 10
1105.4462888822854438
 20
1551.2709852149366725
 40
0.0
 41
0.0
 42
0.0
 10
1107.2020773662516149
 20
1554.5558344273724742
 40
0.0
 41
0.0
 42
0.0
 10
1109.5649711574556022
 20
1557.4350288425443978
 40
0.0
 41
0.0
 42
0.0
 10
1112.4441655726275258
 20
1559.7979226337483851
 40
0.0
 41
0.0
 42
0.0
 10
1115.7290147850633275
 20
1561.5537111177145562
 40
0.0
 41
0.0
 42
0.0
 10
1119.2932838816934691
 20
1562.634920327661348
 40
0.0
 41
0.0
 42
0.0
 10
1123.0
 20
1563.0
 40
0.0
 41
0.0
 42
0.0
  0
TEXT
  5
28
330
F
100
AcDbEntity
  8
0
  6
ByLayer
420
1454671
 48
1.0
 60
0
370
-1
100
AcDbText
 39
0.0
 10
1122.0000133514404297
 20
1541.0
 30
0.0
 40
14.0
  1
MIX-BLEND-MODE
 50
0.0
 41
1.0
 51
0.0
  7
Standard
 71
0
 72
0
 11
0.0
 21
0.0
 31
0.0
210
0.0
220
0.0
230
1.0
100
AcDbText
 73
0
  0
HATCH
  5
29
330
F
100
AcDbEntity
  8
0
  6
ByLayer
420
16777215
 48
1.0
 60
0
370
-1
100
AcDbHatch
 30
0.0
210
0.0
220
0.0
230
1.0
  2
SOLID
 70
1
 71
0
 91
1
 92
2
 72
0
 73
1
 93
41
 10
1320.0
 20
1563.0
 10
1365.0
 20
1563.0
 10
1365.0
 20
1563.0
 10
1368.7067161183065309
 20
1562.634920327661348
 10
1372.2709852149366725
 20
1561.5537111177145562
 10
1375.5558344273724742
 20
1559.7979226337483851
 10
1378.4350288425443978
 20
1557.4350288425443978
 10
1380.7979226337483851
 20
1554.5558344273724742
 10
1382.5537111177145562
 20
1551.2709852149366725
 10
1383.634920327661348
 20
1547.7067161183065309
 10
1384.0
 20
1544.0
 10
1384.0
 20
1544.0
 10
1384.0
 20
1544.0
 10
1383.634920327661348
 20
1540.2932838816934691
 10
1382.5537111177145562
 20
1536.7290147850633275
 10
1380.7979226337483851
 20
1533.4441655726275258
 10
1378.4350288425443978
 20
1530.5649711574556022
 10
1375.5558344273724742
 20
1528.2020773662516149
 10
1372.2709852149366725
 20
1526.4462888822854438
 10
1368.7067161183065309
 20
1525.365079672338652
 10
1365.0
 20
1525.0
 10
1320.0
 20
1525.0
 10
1320.0
 20
1525.0
 10
1316.2932838816934691
 20
1525.365079672338652
 10
1312.7290147850633275
 20
1526.4462888822854438
 10
1309.4441655726275258
 20
1528.2020773662516149
 10
1306.5649711574556022
 20
1530.5649711574556022
 10
1304.2020773662516149
 20
1533.4441655726275258
 10
1302.4462888822854438
 20
1536.7290147850633275
 10
1301.365079672338652
 20
1540.2932838816934691
 10
1301.0
 20
1544.0
 10
1301.0
 20
1544.0
 10
1301.0
 20
1544.0
 10
1301.365079672338652
 20
1547.7067161183065309
 10
1302.4462888822854438
 20
1551.2709852149366725
 10
1304.2020773662516149
 20
1554.5558344273724742
 10
1306.5649711574556022
 20
1557.4350288425443978
 10
1309.4441655726275258
 20
1559.7979226337483851
 10
1312.7290147850633275
 20
1561.5537111177145562
 10
1316.2932838816934691
 20
1562.634920327661348
 10
1320.0
 20
1563.0
 97
0
 75
0
 76
1
 47
0.0
 98
0
  0
LWPOLYLINE
  5
2A
330
F
100
AcDbEntity
  8
0
  6
ByLayer
420
16777215
 48
1.0
 60
0
370
-1
100
AcDbPolyline
 90
41
 70
1
 43
0.0
 38
0.0
 39
0.0
210
0.0
220
0.0
230
1.0
 10
1320.0
 20
1563.0
 40
0.0
 41
0.0
 42
0.0
 10
1365.0
 20
1563.0
 40
0.0
 41
0.0
 42
0.0
 10
1365.0
 20
1563.0
 40
0.0
 41
0.0
 42
0.0
 10
1368.7067161183065309
 20
1562.634920327661348
 40
0.0
 41
0.0
 42
0.0
 10
1372.2709852149366725
 20
1561.5537111177145562
 40
0.0
 41
0.0
 42
0.0
 10
1375.5558344273724742
 20
1559.7979226337483851
 40
0.0
 41
0.0
 42
0.0
 10
1378.4350288425443978
 20
1557.4350288425443978
 40
0.0
 41
0.0
 42
0.0
 10
1380.7979226337483851
 20
1554.5558344273724742
 40
0.0
 41
0.0
 42
0.0
 10
1382.5537111177145562
 20
1551.2709852149366725
 40
0.0
 41
0.0
 42
0.0
 10
1383.634920327661348
 20
1547.7067161183065309
 40
0.0
 41
0.0
 42
0.0
 10
1384.0
 20
1544.0
 40
0.0
 41
0.0
 42
0.0
 10
1384.0
 20
1544.0
 40
0.0
 41
0.0
 42
0.0
 10
1384.0
 20
1544.0
 40
0.0
 41
0.0
 42
0.0
 10
1383.634920327661348
 20
1540.2932838816934691
 40
0.0
 41
0.0
 42
0.0
 10
1382.5537111177145562
 20
1536.7290147850633275
 40
0.0
 41
0.0
 42
0.0
 10
1380.7979226337483851
 20
1533.4441655726275258
 40
0.0
 41
0.0
 42
0.0
 10
1378.4350288425443978
 20
1530.5649711574556022
 40
0.0
 41
0.0
 42
0.0
 10
1375.5558344273724742
 20
1528.2020773662516149
 40
0.0
 41
0.0
 42
0.0
 10
1372.2709852149366725
 20
1526.4462888822854438
 40
0.0
 41
0.0
 42
0.0
 10
1368.7067161183065309
 20
1525.365079672338652
 40
0.0
 41
0.0
 42
0.0
 10
1365.0
 20
1525.0
 40
0.0
 41
0.0
 42
0.0
 10
1320.0
 20
1525.0
 40
0.0
 41
0.0
 42
0.0
 10
1320.0
 20
1525.0
 40
0.0
 41
0.0
 42
0.0
 10
1316.2932838816934691
 20
1525.365079672338652
 40
0.0
 41
0.0
 42
0.0
 10
1312.7290147850633275
 20
1526.4462888822854438
 40
0.0
 41
0.0
 42
0.0
 10
1309.4441655726275258
 20
1528.2020773662516149
 40
0.0
 41
0.0
 42
0.0
 10
1306.5649711574556022
 20
1530.5649711574556022
 40
0.0
 41
0.0
 42
0.0
 10
1304.2020773662516149
 20
1533.4441655726275258
 40
0.0
 41
0.0
 42
0.0
 10
1302.4462888822854438
 20
1536.7290147850633275
 40
0.0
 41
0.0
 42
0.0
 10
1301.365079672338652
 20
1540.2932838816934691
 40
0.0
 41
0.0
 42
0.0
 10
1301.0
 20
1544.0
 40
0.0
 41
0.0
 42
0.0
 10
1301.0
 20
1544.0
 40
0.0
 41
0.0
 42
0.0
 10
1301.0
 20
1544.0
 40
0.0
 41
0.0
 42
0.0
 10
1301.365079672338652
 20
1547.7067161183065309
 40
0.0
 41
0.0
 42
0.0
 10
1302.4462888822854438
 20
1551.2709852149366725
 40
0.0
 41
0.0
 42
0.0
 10
1304.2020773662516149
 20
1554.5558344273724742
 40
0.0
 41
0.0
 42
0.0
 10
1306.5649711574556022
 20
1557.4350288425443978
 40
0.0
 41
0.0
 42
0.0
 10
1309.4441655726275258
 20
1559.7979226337483851
 40
0.0
 41
0.0
 42
0.0
 10
1312.7290147850633275
 20
1561.5537111177145562
 40
0.0
 41
0.0
 42
0.0
 10
1316.2932838816934691
 20
1562.634920327661348
 40
0.0
 41
0.0
 42
0.0
 10
1320.0
 20
1563.0
 40
0.0
 41
0.0
 42
0.0
  0
TEXT
  5
2B
330
F
100
AcDbEntity
  8
0
  6
ByLayer
420
1454671
 48
1.0
 60
0
370
-1
100
AcDbText
 39
0.0
 10
1318.9999752044677734
 20
1541.0
 30
0.0
 40
14.0
  1
MASK
 50
0.0
 41
1.0
 51
0.0
  7
Standard
 71
0
 72
0
 11
0.0
 21
0.0
 31
0.0
210
0.0
220
0.0
230
1.0
100
AcDbText
 73
0
  0
HATCH
  5
2C
330
F
100
AcDbEntity
  8
0
  6
ByLayer
420
16777215
 48
1.0
 60
0
370
-1
100
AcDbHatch
 30
0.0
210
0.0
220
0.0
230
1.0
  2
SOLID
 70
1
 71
0
 91
1
 92
2
 72
0
 73
1
 93
41
 10
1054.0
 20
1513.0
 10
1181.0
 20
1513.0
 10
1181.0
 20
1513.0
 10
1184.7067161183065309
 20
1512.634920327661348
 10
1188.2709852149366725
 20
1511.5537111177145562
 10
1191.5558344273724742
 20
1509.7979226337483851
 10
1194.4350288425443978
 20
1507.4350288425443978
 10
1196.7979226337483851
 20
1504.5558344273724742
 10
1198.5537111177145562
 20
1501.2709852149366725
 10
1199.634920327661348
 20
1497.7067161183065309
 10
1200.0
 20
1494.0
 10
1200.0
 20
1494.0
 10
1200.0
 20
1494.0
 10
1199.634920327661348
 20
1490.2932838816934691
 10
1198.5537111177145562
 20
1486.7290147850633275
 10
1196.7979226337483851
 20
1483.4441655726275258
 10
1194.4350288425443978
 20
1480.5649711574556022
 10
1191.5558344273724742
 20
1478.2020773662516149
 10
1188.2709852149366725
 20
1476.4462888822854438
 10
1184.7067161183065309
 20
1475.365079672338652
 10
1181.0
 20
1475.0
 10
1054.0
 20
1475.0
 10
1054.0
 20
1475.0
 10
1050.2932838816934691
 20
1475.365079672338652
 10
1046.7290147850633275
 20
1476.4462888822854438
 10
1043.4441655726275258
 20
1478.2020773662516149
 10
1040.5649711574556022
 20
1480.5649711574556022
 10
1038.2020773662516149
 20
1483.4441655726275258
 10
1036.4462888822854438
 20
1486.7290147850633275
 10
1035.365079672338652
 20
1490.2932838816934691
 10
1035.0
 20
1494.0
 10
1035.0
 20
1494.0
 10
1035.0
 20
1494.0
 10
1035.365079672338652
 20
1497.7067161183065309
 10
1036.4462888822854438
 20
1501.2709852149366725
 10
1038.2020773662516149
 20
1504.5558344273724742
 10
1040.5649711574556022
 20
1507.4350288425443978
 10
1043.4441655726275258
 20
1509.7979226337483851
 10
1046.7290147850633275
 20
1511.5537111177145562
 10
1050.2932838816934691
 20
1512.634920327661348
 10
1054.0
 20
1513.0
 97
0
 75
0
 76
1
 47
0.0
 98
0
  0
LWPOLYLINE
  5
2D
330
F
100
AcDbEntity
  8
0
  6
ByLayer
420
16777215
 48
1.0
 60
0
370
-1
100
AcDbPolyline
 90
41
 70
1
 43
0.0
 38
0.0
 39
0.0
210
0.0
220
0.0
230
1.0
 10
1054.0
 20
1513.0
 40
0.0
 41
0.0
 42
0.0
 10
1181.0
 20
1513.0
 40
0.0
 41
0.0
 42
0.0
 10
1181.0
 20
1513.0
 40
0.0
 41
0.0
 42
0.0
 10
1184.7067161183065309
 20
1512.634920327661348
 40
0.0
 41
0.0
 42
0.0
 10
1188.2709852149366725
 20
1511.5537111177145562
 40
0.0
 41
0.0
 42
0.0
 10
1191.5558344273724742
 20
1509.7979226337483851
 40
0.0
 41
0.0
 42
0.0
 10
1194.4350288425443978
 20
1507.4350288425443978
 40
0.0
 41
0.0
 42
0.0
 10
1196.7979226337483851
 20
1504.5558344273724742
 40
0.0
 41
0.0
 42
0.0
 10
1198.5537111177145562
 20
1501.2709852149366725
 40
0.0
 41
0.0
 42
0.0
 10
1199.634920327661348
 20
1497.7067161183065309
 40
0.0
 41
0.0
 42
0.0
 10
1200.0
 20
1494.0
 40
0.0
 41
0.0
 42
0.0
 10
1200.0
 20
1494.0
 40
0.0
 41
0.0
 42
0.0
 10
1200.0
 20
1494.0
 40
0.0
 41
0.0
 42
0.0
 10
1199.634920327661348
 20
1490.2932838816934691
 40
0.0
 41
0.0
 42
0.0
 10
1198.5537111177145562
 20
1486.7290147850633275
 40
0.0
 41
0.0
 42
0.0
 10
1196.7979226337483851
 20
1483.4441655726275258
 40
0.0
 41
0.0
 42
0.0
 10
1194.4350288425443978
 20
1480.5649711574556022
 40
0.0
 41
0.0
 42
0.0
 10
1191.5558344273724742
 20
1478.2020773662516149
 40
0.0
 41
0.0
 42
0.0
 10
1188.2709852149366725
 20
1476.4462888822854438
 40
0.0
 41
0.0
 42
0.0
 10
1184.7067161183065309
 20
1475.365079672338652
 40
0.0
 41
0.0
 42
0.0
 10
1181.0
 20
1475.0
 40
0.0
 41
0.0
 42
0.0
 10
1054.0
 20
1475.0
 40
0.0
 41
0.0
 42
0.0
 10
1054.0
 20
1475.0
 40
0.0
 41
0.0
 42
0.0
 10
1050.2932838816934691
 20
1475.365079672338652
 40
0.0
 41
0.0
 42
0.0
 10
1046.7290147850633275
 20
1476.4462888822854438
 40
0.0
 41
0.0
 42
0.0
 10
1043.4441655726275258
 20
1478.2020773662516149
 40
0.0
 41
0.0
 42
0.0
 10
1040.5649711574556022
 20
1480.5649711574556022
 40
0.0
 41
0.0
 42
0.0
 10
1038.2020773662516149
 20
1483.4441655726275258
 40
0.0
 41
0.0
 42
0.0
 10
1036.4462888822854438
 20
1486.7290147850633275
 40
0.0
 41
0.0
 42
0.0
 10
1035.365079672338652
 20
1490.2932838816934691
 40
0.0
 41
0.0
 42
0.0
 10
1035.0
 20
1494.0
 40
0.0
 41
0.0
 42
0.0
 10
1035.0
 20
1494.0
 40
0.0
 41
0.0
 42
0.0
 10
1035.0
 20
1494.0
 40
0.0
 41
0.0
 42
0.0
 10
1035.365079672338652
 20
1497.7067161183065309
 40
0.0
 41
0.0
 42
0.0
 10
1036.4462888822854438
 20
1501.2709852149366725
 40
0.0
 41
0.0
 42
0.0
 10
1038.2020773662516149
 20
1504.5558344273724742
 40
0.0
 41
0.0
 42
0.0
 10
1040.5649711574556022
 20
1507.4350288425443978
 40
0.0
 41
0.0
 42
0.0
 10
1043.4441655726275258
 20
1509.7979226337483851
 40
0.0
 41
0.0
 42
0.0
 10
1046.7290147850633275
 20
1511.5537111177145562
 40
0.0
 41
0.0
 42
0.0
 10
1050.2932838816934691
 20
1512.634920327661348
 40
0.0
 41
0.0
 42
0.0
 10
1054.0
 20
1513.0
 40
0.0
 41
0.0
 42
0.0
  0
TEXT
  5
2E
330
F
100
AcDbEntity
  8
0
  6
ByLayer
420
1454671
 48
1.0
 60
0
370
-1
100
AcDbText
 39
0.0
 10
1052.9999752044677734
 20
1491.0
 30
0.0
 40
14.0
  1
WRITING-MODE
 50
0.0
 41
1.0
 51
0.0
  7
Standard
 71
0
 72
0
 11
0.0
 21
0.0
 31
0.0
210
0.0
220
0.0
230
1.0
100
AcDbText
 73
0
  0
HATCH
  5
2F
330
F
100
AcDbEntity
  8
0
  6
ByLayer
420
16777215
 48
1.0
 60
0
370
-1
100
AcDbHatch
 30
0.0
210
0.0
220
0.0
230
1.0
  2
SOLID
 70
1
 71
0
 91
1
 92
2
 72
0
 73
1
 93
41
 10
1231.0
 20
1513.0
 10
1365.0
 20
1513.0
 10
1365.0
 20
1513.0
 10
1368.7067161183065309
 20
1512.634920327661348
 10
1372.2709852149366725
 20
1511.5537111177145562
 10
1375.5558344273724742
 20
1509.7979226337483851
 10
1378.4350288425443978
 20
1507.4350288425443978
 10
1380.7979226337483851
 20
1504.5558344273724742
 10
1382.5537111177145562
 20
1501.2709852149366725
 10
1383.634920327661348
 20
1497.7067161183065309
 10
1384.0
 20
1494.0
 10
1384.0
 20
1494.0
 10
1384.0
 20
1494.0
 10
1383.634920327661348
 20
1490.2932838816934691
 10
1382.5537111177145562
 20
1486.7290147850633275
 10
1380.7979226337483851
 20
1483.4441655726275258
 10
1378.4350288425443978
 20
1480.5649711574556022
 10
1375.5558344273724742
 20
1478.2020773662516149
 10
1372.2709852149366725
 20
1476.4462888822854438
 10
1368.7067161183065309
 20
1475.365079672338652
 10
1365.0
 20
1475.0
 10
1231.0
 20
1475.0
 10
1231.0
 20
1475.0
 10
1227.2932838816934691
 20
1475.365079672338652
 10
1223.7290147850633275
 20
1476.4462888822854438
 10
1220.4441655726275258
 20
1478.2020773662516149
 10
1217.5649711574556022
 20
1480.5649711574556022
 10
1215.2020773662516149
 20
1483.4441655726275258
 10
1213.4462888822854438
 20
1486.7290147850633275
 10
1212.365079672338652
 20
1490.2932838816934691
 10
1212.0
 20
1494.0
 10
1212.0
 20
1494.0
 10
1212.0
 20
1494.0
 10
1212.365079672338652
 20
1497.7067161183065309
 10
1213.4462888822854438
 20
1501.2709852149366725
 10
1215.2020773662516149
 20
1504.5558344273724742
 10
1217.5649711574556022
 20
1507.4350288425443978
 10
1220.4441655726275258
 20
1509.7979226337483851
 10
1223.7290147850633275
 20
1511.5537111177145562
 10
1227.2932838816934691
 20
1512.634920327661348
 10
1231.0
 20
1513.0
 97
0
 75
0
 76
1
 47
0.0
 98
0
  0
LWPOLYLINE
  5
30
330
F
100
AcDbEntity
  8
0
  6
ByLayer
420
16777215
 48
1.0
 60
0
370
-1
100
AcDbPolyline
 90
41
 70
1
 43
0.0
 38
0.0
 39
0.0
210
0.0
220
0.0
230
1.0
 10
1231.0
 20
1513.0
 40
0.0
 41
0.0
 42
0.0
 10
1365.0
 20
1513.0
 40
0.0
 41
0.0
 42
0.0
 10
1365.0
 20
1513.0
 40
0.0
 41
0.0
 42
0.0
 10
1368.7067161183065309
 20
1512.634920327661348
 40
0.0
 41
0.0
 42
0.0
 10
1372.2709852149366725
 20
1511.5537111177145562
 40
0.0
 41
0.0
 42
0.0
 10
1375.5558344273724742
 20
1509.7979226337483851
 40
0.0
 41
0.0
 42
0.0
 10
1378.4350288425443978
 20
1507.4350288425443978
 40
0.0
 41
0.0
 42
0.0
 10
1380.7979226337483851
 20
1504.5558344273724742
 40
0.0
 41
0.0
 42
0.0
 10
1382.5537111177145562
 20
1501.2709852149366725
 40
0.0
 41
0.0
 42
0.0
 10
1383.634920327661348
 20
1497.7067161183065309
 40
0.0
 41
0.0
 42
0.0
 10
1384.0
 20
1494.0
 40
0.0
 41
0.0
 42
0.0
 10
1384.0
 20
1494.0
 40
0.0
 41
0.0
 42
0.0
 10
1384.0
 20
1494.0
 40
0.0
 41
0.0
 42
0.0
 10
1383.634920327661348
 20
1490.2932838816934691
 40
0.0
 41
0.0
 42
0.0
 10
1382.5537111177145562
 20
1486.7290147850633275
 40
0.0
 41
0.0
 42
0.0
 10
1380.7979226337483851
 20
1483.4441655726275258
 40
0.0
 41
0.0
 42
0.0
 10
1378.4350288425443978
 20
1480.5649711574556022
 40
0.0
 41
0.0
 42
0.0
 10
1375.5558344273724742
 20
1478.2020773662516149
 40
0.0
 41
0.0
 42
0.0
 10
1372.2709852149366725
 20
1476.4462888822854438
 40
0.0
 41
0.0
 42
0.0
 10
1368.7067161183065309
 20
1475.365079672338652
 40
0.0
 41
0.0
 42
0.0
 10
1365.0
 20
1475.0
 40
0.0
 41
0.0
 42
0.0
 10
1231.0
 20
1475.0
 40
0.0
 41
0.0
 42
0.0
 10
1231.0
 20
1475.0
 40
0.0
 41
0.0
 42
0.0
 10
1227.2932838816934691
 20
1475.365079672338652
 40
0.0
 41
0.0
 42
0.0
 10
1223.7290147850633275
 20
1476.4462888822854438
 40
0.0
 41
0.0
 42
0.0
 10
1220.4441655726275258
 20
1478.2020773662516149
 40
0.0
 41
0.0
 42
0.0
 10
1217.5649711574556022
 20
1480.5649711574556022
 40
0.0
 41
0.0
 42
0.0
 10
1215.2020773662516149
 20
1483.4441655726275258
 40
0.0
 41
0.0
 42
0.0
 10
1213.4462888822854438
 20
1486.7290147850633275
 40
0.0
 41
0.0
 42
0.0
 10
1212.365079672338652
 20
1490.2932838816934691
 40
0.0
 41
0.0
 42
0.0
 10
1212.0
 20
1494.0
 40
0.0
 41
0.0
 42
0.0
 10
1212.0
 20
1494.0
 40
0.0
 41
0.0
 42
0.0
 10
1212.0
 20
1494.0
 40
0.0
 41
0.0
 42
0.0
 10
1212.365079672338652
 20
1497.7067161183065309
 40
0.0
 41
0.0
 42
0.0
 10
1213.4462888822854438
 20
1501.2709852149366725
 40
0.0
 41
0.0
 42
0.0
 10
1215.2020773662516149
 20
1504.5558344273724742
 40
0.0
 41
0.0
 42
0.0
 10
1217.5649711574556022
 20
1507.4350288425443978
 40
0.0
 41
0.0
 42
0.0
 10
1220.4441655726275258
 20
1509.7979226337483851
 40
0.0
 41
0.0
 42
0.0
 10
1223.7290147850633275
 20
1511.5537111177145562
 40
0.0
 41
0.0
 42
0.0
 10
1227.2932838816934691
 20
1512.634920327661348
 40
0.0
 41
0.0
 42
0.0
 10
1231.0
 20
1513.0
 40
0.0
 41
0.0
 42
0.0
  0
TEXT
  5
31
330
F
100
AcDbEntity
  8
0
  6
ByLayer
420
1454671
 48
1.0
 60
0
370
-1
100
AcDbText
 39
0.0
 10
1229.9999618530273438
 20
1491.0
 30
0.0
 40
14.0
  1
TEXT-OVERFLOW
 50
0.0
 41
1.0
 51
0.0
  7
Standard
 71
0
 72
0
 11
0.0
 21
0.0
 31
0.0
210
0.0
220
0.0
230
1.0
100
AcDbText
 73
0
  0
HATCH
  5
32
330
F
100
AcDbEntity
  8
0
  6
ByLayer
420
16775400
 48
1.0
 60
0
370
-1
100
AcDbHatch
 30
0.0
210
0.0
220
0.0
230
1.0
  2
SOLID
 70
1
 71
0
 91
1
 92
2
 72
0
 73
1
 93
41
 10
84.0
 20
1165.0
 10
1356.0
 20
1165.0
 10
1356.0
 20
1165.0
 10
1361.4625290164515263
 20
1164.4619878512903597
 10
1366.7151361062224169
 20
1162.8686269103159248
 10
1371.5559665245489214
 20
1160.2811491444713283
 10
1375.7989898732232632
 20
1156.7989898732232632
 10
1379.2811491444713283
 20
1152.5559665245489214
 10
1381.8686269103159248
 20
1147.7151361062224169
 10
1383.4619878512903597
 20
1142.4625290164515263
 10
1384.0
 20
1137.0
 10
1384.0
 20
724.0
 10
1384.0
 20
724.0
 10
1383.4619878512903597
 20
718.53747098354836
 10
1381.8686269103159248
 20
713.2848638937774695
 10
1379.2811491444713283
 20
708.4440334754511923
 10
1375.7989898732232632
 20
704.2010101267766231
 10
1371.5559665245489214
 20
700.7188508555287854
 10
1366.7151361062224169
 20
698.1313730896839616
 10
1361.4625290164515263
 20
696.5380121487095266
 10
1356.0
 20
696.0
 10
84.0
 20
696.0
 10
84.0
 20
696.0
 10
78.5374709835484168
 20
696.5380121487095266
 10
73.2848638937774837
 20
698.1313730896839616
 10
68.4440334754511497
 20
700.7188508555286717
 10
64.20101012677668
 20
704.2010101267766231
 10
60.7188508555287285
 20
708.4440334754511923
 10
58.1313730896839758
 20
713.2848638937774695
 10
56.5380121487095479
 20
718.53747098354836
 10
56.0
 20
724.0
 10
56.0
 20
1137.0
 10
56.0
 20
1137.0
 10
56.5380121487095479
 20
1142.4625290164515263
 10
58.1313730896839687
 20
1147.7151361062224169
 10
60.7188508555287285
 20
1152.5559665245489214
 10
64.2010101267766657
 20
1156.7989898732232632
 10
68.4440334754511355
 20
1160.2811491444713283
 10
73.2848638937774695
 20
1162.8686269103159248
 10
78.5374709835484026
 20
1164.4619878512903597
 10
84.0
 20
1165.0
 97
0
 75
0
 76
1
 47
0.0
 98
0
  0
LWPOLYLINE
  5
33
330
F
100
AcDbEntity
  8
0
  6
ByLayer
420
16775400
 48
1.0
 60
0
370
-1
100
AcDbPolyline
 90
41
 70
1
 43
0.0
 38
0.0
 39
0.0
210
0.0
220
0.0
230
1.0
 10
84.0
 20
1165.0
 40
0.0
 41
0.0
 42
0.0
 10
1356.0
 20
1165.0
 40
0.0
 41
0.0
 42
0.0
 10
1356.0
 20
1165.0
 40
0.0
 41
0.0
 42
0.0
 10
1361.4625290164515263
 20
1164.4619878512903597
 40
0.0
 41
0.0
 42
0.0
 10
1366.7151361062224169
 20
1162.8686269103159248
 40
0.0
 41
0.0
 42
0.0
 10
1371.5559665245489214
 20
1160.2811491444713283
 40
0.0
 41
0.0
 42
0.0
 10
1375.7989898732232632
 20
1156.7989898732232632
 40
0.0
 41
0.0
 42
0.0
 10
1379.2811491444713283
 20
1152.5559665245489214
 40
0.0
 41
0.0
 42
0.0
 10
1381.8686269103159248
 20
1147.7151361062224169
 40
0.0
 41
0.0
 42
0.0
 10
1383.4619878512903597
 20
1142.4625290164515263
 40
0.0
 41
0.0
 42
0.0
 10
1384.0
 20
1137.0
 40
0.0
 41
0.0
 42
0.0
 10
1384.0
 20
724.0
 40
0.0
 41
0.0
 42
0.0
 10
1384.0
 20
724.0
 40
0.0
 41
0.0
 42
0.0
 10
1383.4619878512903597
 20
718.53747098354836
 40
0.0
 41
0.0
 42
0.0
 10
1381.8686269103159248
 20
713.2848638937774695
 40
0.0
 41
0.0
 42
0.0
 10
1379.2811491444713283
 20
708.4440334754511923
 40
0.0
 41
0.0
 42
0.0
 10
1375.7989898732232632
 20
704.2010101267766231
 40
0.0
 41
0.0
 42
0.0
 10
1371.5559665245489214
 20
700.7188508555287854
 40
0.0
 41
0.0
 42
0.0
 10
1366.7151361062224169
 20
698.1313730896839616
 40
0.0
 41
0.0
 42
0.0
 10
1361.4625290164515263
 20
696.5380121487095266
 40
0.0
 41
0.0
 42
0.0
 10
1356.0
 20
696.0
 40
0.0
 41
0.0
 42
0.0
 10
84.0
 20
696.0
 40
0.0
 41
0.0
 42
0.0
 10
84.0
 20
696.0
 40
0.0
 41
0.0
 42
0.0
 10
78.5374709835484168
 20
696.5380121487095266
 40
0.0
 41
0.0
 42
0.0
 10
73.2848638937774837
 20
698.1313730896839616
 40
0.0
 41
0.0
 42
0.0
 10
68.4440334754511497
 20
700.7188508555286717
 40
0.0
 41
0.0
 42
0.0
 10
64.20101012677668
 20
704.2010101267766231
 40
0.0
 41
0.0
 42
0.0
 10
60.7188508555287285
 20
708.4440334754511923
 40
0.0
 41
0.0
 42
0.0
 10
58.1313730896839758
 20
713.2848638937774695
 40
0.0
 41
0.0
 42
0.0
 10
56.5380121487095479
 20
718.53747098354836
 40
0.0
 41
0.0
 42
0.0
 10
56.0
 20
724.0
 40
0.0
 41
0.0
 42
0.0
 10
56.0
 20
1137.0
 40
0.0
 41
0.0
 42
0.0
 10
56.0
 20
1137.0
 40
0.0
 41
0.0
 42
0.0
 10
56.5380121487095479
 20
1142.4625290164515263
 40
0.0
 41
0.0
 42
0.0
 10
58.1313730896839687
 20
1147.7151361062224169
 40
0.0
 41
0.0
 42
0.0
 10
60.7188508555287285
 20
1152.5559665245489214
 40
0.0
 41
0.0
 42
0.0
 10
64.2010101267766657
 20
1156.7989898732232632
 40
0.0
 41
0.0
 42
0.0
 10
68.4440334754511355
 20
1160.2811491444713283
 40
0.0
 41
0.0
 42
0.0
 10
73.2848638937774695
 20
1162.8686269103159248
 40
0.0
 41
0.0
 42
0.0
 10
78.5374709835484026
 20
1164.4619878512903597
 40
0.0
 41
0.0
 42
0.0
 10
84.0
 20
1165.0
 40
0.0
 41
0.0
 42
0.0
  0
TEXT
  5
34
330
F
100
AcDbEntity
  8
0
  6
ByLayer
420
1454671
 48
1.0
 60
0
370
-1
100
AcDbText
 39
0.0
 10
84.0
 20
1113.0
 30
0.0
 40
30.0
  1
VISUAL PROPERTIES
 50
0.0
 41
1.0
 51
0.0
  7
Standard
 71
0
 72
0
 11
0.0
 21
0.0
 31
0.0
210
0.0
220
0.0
230
1.0
100
AcDbText
 73
0
  0
HATCH
  5
35
330
F
100
AcDbEntity
  8
0
  6
ByLayer
420
2062988
 48
1.0
 60
0
370
-1
100
AcDbHatch
 30
0.0
210
0.0
220
0.0
230
1.0
  2
SOLID
 70
1
 71
0
 91
1
 92
2
 72
0
 73
1
 93
41
 10
108.0
 20
1084.0
 10
1332.0
 20
1084.0
 10
1332.0
 20
1084.0
 10
1336.682167728387185
 20
1083.5388467296775161
 10
1341.1844023767621366
 20
1082.1731087802709226
 10
1345.3336855924703741
 20
1079.9552706952611061
 10
1348.9705627484770503
 20
1076.9705627484772776
 10
1351.9552706952611061
 20
1073.3336855924703741
 10
1354.1731087802709226
 20
1069.1844023767621366
 10
1355.5388467296775161
 20
1064.6821677283869576
 10
1356.0
 20
1060.0
 10
1356.0
 20
748.0
 10
1356.0
 20
748.0
 10
1355.5388467296775161
 20
743.3178322716129287
 10
1354.1731087802709226
 20
738.8155976232378634
 10
1351.9552706952611061
 20
734.6663144075295122
 10
1348.9705627484770503
 20
731.029437251522836
 10
1345.3336855924703741
 20
728.0447293047388939
 10
1341.1844023767621366
 20
725.8268912197290774
 10
1336.682167728387185
 20
724.4611532703224839
 10
1332.0
 20
724.0
 10
108.0
 20
724.0
 10
108.0
 20
724.0
 10
103.3178322716129287
 20
724.4611532703224839
 10
98.8155976232378492
 20
725.8268912197290774
 10
94.6663144075295548
 20
728.0447293047388939
 10
91.0294372515228645
 20
731.029437251522836
 10
88.0447293047389081
 20
734.6663144075295122
 10
85.8268912197291201
 20
738.8155976232378634
 10
84.4611532703224697
 20
743.3178322716129287
 10
84.0
 20
748.0
 10
84.0
 20
1060.0
 10
84.0
 20
1060.0
 10
84.4611532703224697
 20
1064.6821677283869576
 10
85.8268912197291201
 20
1069.1844023767621366
 10
88.0447293047389081
 20
1073.3336855924703741
 10
91.0294372515228645
 20
1076.9705627484772776
 10
94.6663144075295406
 20
1079.9552706952611061
 10
98.815597623237835
 20
1082.1731087802709226
 10
103.3178322716129145
 20
1083.5388467296775161
 10
108.0
 20
1084.0
 97
0
 75
0
 76
1
 47
0.0
 98
0
  0
LWPOLYLINE
  5
36
330
F
100
AcDbEntity
  8
0
  6
ByLayer
420
2062988
 48
1.0
 60
0
370
-1
100
AcDbPolyline
 90
41
 70
1
 43
0.0
 38
0.0
 39
0.0
210
0.0
220
0.0
230
1.0
 10
108.0
 20
1084.0
 40
0.0
 41
0.0
 42
0.0
 10
1332.0
 20
1084.0
 40
0.0
 41
0.0
 42
0.0
 10
1332.0
 20
1084.0
 40
0.0
 41
0.0
 42
0.0
 10
1336.682167728387185
 20
1083.5388467296775161
 40
0.0
 41
0.0
 42
0.0
 10
1341.1844023767621366
 20
1082.1731087802709226
 40
0.0
 41
0.0
 42
0.0
 10
1345.3336855924703741
 20
1079.9552706952611061
 40
0.0
 41
0.0
 42
0.0
 10
1348.9705627484770503
 20
1076.9705627484772776
 40
0.0
 41
0.0
 42
0.0
 10
1351.9552706952611061
 20
1073.3336855924703741
 40
0.0
 41
0.0
 42
0.0
 10
1354.1731087802709226
 20
1069.1844023767621366
 40
0.0
 41
0.0
 42
0.0
 10
1355.5388467296775161
 20
1064.6821677283869576
 40
0.0
 41
0.0
 42
0.0
 10
1356.0
 20
1060.0
 40
0.0
 41
0.0
 42
0.0
 10
1356.0
 20
748.0
 40
0.0
 41
0.0
 42
0.0
 10
1356.0
 20
748.0
 40
0.0
 41
0.0
 42
0.0
 10
1355.5388467296775161
 20
743.3178322716129287
 40
0.0
 41
0.0
 42
0.0
 10
1354.1731087802709226
 20
738.8155976232378634
 40
0.0
 41
0.0
 42
0.0
 10
1351.9552706952611061
 20
734.6663144075295122
 40
0.0
 41
0.0
 42
0.0
 10
1348.9705627484770503
 20
731.029437251522836
 40
0.0
 41
0.0
 42
0.0
 10
1345.3336855924703741
 20
728.0447293047388939
 40
0.0
 41
0.0
 42
0.0
 10
1341.1844023767621366
 20
725.8268912197290774
 40
0.0
 41
0.0
 42
0.0
 10
1336.682167728387185
 20
724.4611532703224839
 40
0.0
 41
0.0
 42
0.0
 10
1332.0
 20
724.0
 40
0.0
 41
0.0
 42
0.0
 10
108.0
 20
724.0
 40
0.0
 41
0.0
 42
0.0
 10
108.0
 20
724.0
 40
0.0
 41
0.0
 42
0.0
 10
103.3178322716129287
 20
724.4611532703224839
 40
0.0
 41
0.0
 42
0.0
 10
98.8155976232378492
 20
725.8268912197290774
 40
0.0
 41
0.0
 42
0.0
 10
94.6663144075295548
 20
728.0447293047388939
 40
0.0
 41
0.0
 42
0.0
 10
91.0294372515228645
 20
731.029437251522836
 40
0.0
 41
0.0
 42
0.0
 10
88.0447293047389081
 20
734.6663144075295122
 40
0.0
 41
0.0
 42
0.0
 10
85.8268912197291201
 20
738.8155976232378634
 40
0.0
 41
0.0
 42
0.0
 10
84.4611532703224697
 20
743.3178322716129287
 40
0.0
 41
0.0
 42
0.0
 10
84.0
 20
748.0
 40
0.0
 41
0.0
 42
0.0
 10
84.0
 20
1060.0
 40
0.0
 41
0.0
 42
0.0
 10
84.0
 20
1060.0
 40
0.0
 41
0.0
 42
0.0
 10
84.4611532703224697
 20
1064.6821677283869576
 40
0.0
 41
0.0
 42
0.0
 10
85.8268912197291201
 20
1069.1844023767621366
 40
0.0
 41
0.0
 42
0.0
 10
88.0447293047389081
 20
1073.3336855924703741
 40
0.0
 41
0.0
 42
0.0
 10
91.0294372515228645
 20
1076.9705627484772776
 40
0.0
 41
0.0
 42
0.0
 10
94.6663144075295406
 20
1079.9552706952611061
 40
0.0
 41
0.0
 42
0.0
 10
98.815597623237835
 20
1082.1731087802709226
 40
0.0
 41
0.0
 42
0.0
 10
103.3178322716129145
 20
1083.5388467296775161
 40
0.0
 41
0.0
 42
0.0
 10
108.0
 20
1084.0
 40
0.0
 41
0.0
 42
0.0
  0
HATCH
  5
37
330
F
100
AcDbEntity
  8
0
  6
ByLayer
420
16763450
 48
1.0
 60
0
370
-1
100
AcDbHatch
 30
0.0
210
0.0
220
0.0
230
1.0
  2
SOLID
 70
1
 71
0
 91
1
 92
2
 72
0
 73
1
 93
20
 10
129.0228153616364182
 20
1000.017056799140164
 10
131.1833027832379912
 20
1012.5031472195177003
 10
136.6875804096790716
 20
1021.9784752797907004
 10
145.5356482409597447
 20
1028.4430409799588233
 10
157.7275062770799536
 20
1031.8968443200224101
 10
359.7421737229200289
 20
1060.2881356799775858
 10
371.8118836792447723
 20
1060.2440711199337784
 10
380.2935072711391058
 20
1056.2150331197794912
 10
385.1870444986029725
 20
1048.2010216795149518
 10
386.4924953616363723
 20
1036.2020367991401599
 10
382.6350490383636043
 20
925.7390832008597954
 10
380.4745616167620028
 20
913.2529927804821455
 10
374.9702839903209224
 20
903.777664720209259
 10
366.1222161590402493
 20
897.3130990200410224
 10
353.9303581229200404
 20
893.8592956799774356
 10
151.9156906770799651
 20
865.4680043200224873
 10
139.8459807207552217
 20
865.5120688800664084
 10
131.3643571288608882
 20
869.5411068802204682
 10
126.4708199013970074
 20
877.5551183204850076
 10
125.1653690383635791
 20
889.5541032008597995
 97
0
 75
0
 76
1
 47
0.0
 98
0
  0
LWPOLYLINE
  5
38
330
F
100
AcDbEntity
  8
0
  6
ByLayer
420
16763450
 48
1.0
 60
0
370
-1
100
AcDbPolyline
 90
20
 70
1
 43
0.0
 38
0.0
 39
0.0
210
0.0
220
0.0
230
1.0
 10
129.0228153616364182
 20
1000.017056799140164
 40
0.0
 41
0.0
 42
0.0
 10
131.1833027832379912
 20
1012.5031472195177003
 40
0.0
 41
0.0
 42
0.0
 10
136.6875804096790716
 20
1021.9784752797907004
 40
0.0
 41
0.0
 42
0.0
 10
145.5356482409597447
 20
1028.4430409799588233
 40
0.0
 41
0.0
 42
0.0
 10
157.7275062770799536
 20
1031.8968443200224101
 40
0.0
 41
0.0
 42
0.0
 10
359.7421737229200289
 20
1060.2881356799775858
 40
0.0
 41
0.0
 42
0.0
 10
371.8118836792447723
 20
1060.2440711199337784
 40
0.0
 41
0.0
 42
0.0
 10
380.2935072711391058
 20
1056.2150331197794912
 40
0.0
 41
0.0
 42
0.0
 10
385.1870444986029725
 20
1048.2010216795149518
 40
0.0
 41
0.0
 42
0.0
 10
386.4924953616363723
 20
1036.2020367991401599
 40
0.0
 41
0.0
 42
0.0
 10
382.6350490383636043
 20
925.7390832008597954
 40
0.0
 41
0.0
 42
0.0
 10
380.4745616167620028
 20
913.2529927804821455
 40
0.0
 41
0.0
 42
0.0
 10
374.9702839903209224
 20
903.777664720209259
 40
0.0
 41
0.0
 42
0.0
 10
366.1222161590402493
 20
897.3130990200410224
 40
0.0
 41
0.0
 42
0.0
 10
353.9303581229200404
 20
893.8592956799774356
 40
0.0
 41
0.0
 42
0.0
 10
151.9156906770799651
 20
865.4680043200224873
 40
0.0
 41
0.0
 42
0.0
 10
139.8459807207552217
 20
865.5120688800664084
 40
0.0
 41
0.0
 42
0.0
 10
131.3643571288608882
 20
869.5411068802204682
 40
0.0
 41
0.0
 42
0.0
 10
126.4708199013970074
 20
877.5551183204850076
 40
0.0
 41
0.0
 42
0.0
 10
125.1653690383635791
 20
889.5541032008597995
 40
0.0
 41
0.0
 42
0.0
  0
TEXT
  5
39
330
F
100
AcDbEntity
  8
0
  6
ByLayer
420
16777215
 48
1.0
 60
0
370
-1
100
AcDbText
 39
0.0
 10
25.9697916030476605
 20
990.2608665178669298
 30
0.0
 40
28.0
  1
OUTLINE +
 50
7.9999948198565569
 41
1.0
 51
0.0
  7
Standard
 71
0
 72
0
 11
0.0
 21
0.0
 31
0.0
210
0.0
220
0.0
230
1.0
100
AcDbText
 73
0
  0
TEXT
  5
3A
330
F
100
AcDbEntity
  8
0
  6
ByLayer
420
16777215
 48
1.0
 60
0
370
-1
100
AcDbText
 39
0.0
 10
24.9775293271254775
 20
961.8462655027635719
 30
0.0
 40
28.0
  1
FILTER
 50
7.9999948198565249
 41
1.0
 51
0.0
  7
Standard
 71
0
 72
0
 11
0.0
 21
0.0
 31
0.0
210
0.0
220
0.0
230
1.0
100
AcDbText
 73
0
  0
HATCH
  5
3B
330
F
100
AcDbEntity
  8
0
  6
ByLayer
420
1149618
 48
1.0
 60
0
370
-1
100
AcDbHatch
 30
0.0
210
0.0
220
0.0
230
1.0
  2
SOLID
 70
1
 71
0
 91
1
 92
2
 72
0
 73
1
 93
20
 10
474.4403588751311531
 20
970.1065482852951618
 10
475.1160425994303296
 20
982.462455840174357
 10
479.5834526474589552
 20
991.6367267901065361
 10
487.8425890192171437
 20
997.6293611350922674
 10
499.8934517147047814
 20
1000.44035887513121
 10
683.1933482852952011
 20
1016.4770091248688004
 10
695.5492558401742826
 20
1015.8013254005696808
 10
704.7235267901065754
 20
1011.3339153525409984
 10
710.7161611350923067
 20
1003.0747789807828667
 10
713.5271588751312493
 20
991.0239162852951722
 10
721.7197961248688216
 20
897.381569714704824
 10
721.044112400569702
 20
885.0256621598257425
 10
716.5767023525410195
 20
875.8513912098933361
 10
708.3175659807827742
 20
869.8587568649077184
 10
696.2667032852951934
 20
867.0477591248687759
 10
512.9668067147048305
 20
851.0111088751311854
 10
500.6108991598257489
 20
851.6867925994304187
 10
491.4366282098934562
 20
856.1542026474589875
 10
485.4439938649077817
 20
864.4133390192171191
 10
482.6329961248688392
 20
876.4642017147048136
 97
0
 75
0
 76
1
 47
0.0
 98
0
  0
LWPOLYLINE
  5
3C
330
F
100
AcDbEntity
  8
0
  6
ByLayer
420
1149618
 48
1.0
 60
0
370
-1
100
AcDbPolyline
 90
20
 70
1
 43
0.0
 38
0.0
 39
0.0
210
0.0
220
0.0
230
1.0
 10
474.4403588751311531
 20
970.1065482852951618
 40
0.0
 41
0.0
 42
0.0
 10
475.1160425994303296
 20
982.462455840174357
 40
0.0
 41
0.0
 42
0.0
 10
479.5834526474589552
 20
991.6367267901065361
 40
0.0
 41
0.0
 42
0.0
 10
487.8425890192171437
 20
997.6293611350922674
 40
0.0
 41
0.0
 42
0.0
 10
499.8934517147047814
 20
1000.44035887513121
 40
0.0
 41
0.0
 42
0.0
 10
683.1933482852952011
 20
1016.4770091248688004
 40
0.0
 41
0.0
 42
0.0
 10
695.5492558401742826
 20
1015.8013254005696808
 40
0.0
 41
0.0
 42
0.0
 10
704.7235267901065754
 20
1011.3339153525409984
 40
0.0
 41
0.0
 42
0.0
 10
710.7161611350923067
 20
1003.0747789807828667
 40
0.0
 41
0.0
 42
0.0
 10
713.5271588751312493
 20
991.0239162852951722
 40
0.0
 41
0.0
 42
0.0
 10
721.7197961248688216
 20
897.381569714704824
 40
0.0
 41
0.0
 42
0.0
 10
721.044112400569702
 20
885.0256621598257425
 40
0.0
 41
0.0
 42
0.0
 10
716.5767023525410195
 20
875.8513912098933361
 40
0.0
 41
0.0
 42
0.0
 10
708.3175659807827742
 20
869.8587568649077184
 40
0.0
 41
0.0
 42
0.0
 10
696.2667032852951934
 20
867.0477591248687759
 40
0.0
 41
0.0
 42
0.0
 10
512.9668067147048305
 20
851.0111088751311854
 40
0.0
 41
0.0
 42
0.0
 10
500.6108991598257489
 20
851.6867925994304187
 40
0.0
 41
0.0
 42
0.0
 10
491.4366282098934562
 20
856.1542026474589875
 40
0.0
 41
0.0
 42
0.0
 10
485.4439938649077817
 20
864.4133390192171191
 40
0.0
 41
0.0
 42
0.0
 10
482.6329961248688392
 20
876.4642017147048136
 40
0.0
 41
0.0
 42
0.0
  0
TEXT
  5
3D
330
F
100
AcDbEntity
  8
0
  6
ByLayer
420
16777215
 48
1.0
 60
0
370
-1
100
AcDbText
 39
0.0
 10
377.7597993132434908
 20
973.6939662472487953
 30
0.0
 40
28.0
  1
BASE
 50
4.9999960524349047
 41
1.0
 51
0.0
  7
Standard
 71
0
 72
0
 11
0.0
 21
0.0
 31
0.0
210
0.0
220
0.0
230
1.0
100
AcDbText
 73
0
  0
TEXT
  5
3E
330
F
100
AcDbEntity
  8
0
  6
ByLayer
420
16777215
 48
1.0
 60
0
370
-1
100
AcDbText
 39
0.0
 10
380.2001671277560604
 20
945.8004630184435655
 30
0.0
 40
28.0
  1
LAYER
 50
4.9999960524349047
 41
1.0
 51
0.0
  7
Standard
 71
0
 72
0
 11
0.0
 21
0.0
 31
0.0
210
0.0
220
0.0
230
1.0
100
AcDbText
 73
0
  0
HATCH
  5
3F
330
F
100
AcDbEntity
  8
0
  6
ByLayer
420
12653087
 48
1.0
 60
0
370
-1
100
AcDbHatch
 30
0.0
210
0.0
220
0.0
230
1.0
  2
SOLID
 70
1
 71
0
 91
1
 92
2
 72
0
 73
1
 93
20
 10
565.13785703264125
 20
940.4253818564070571
 10
569.0139785214820449
 20
952.428202984221798
 10
575.7802000206454522
 20
960.862048224073078
 10
585.4365215301318131
 20
965.7269175759607833
 10
597.9829430499407863
 20
967.0228110398851413
 10
794.3195569500592228
 20
960.1665639601148996
 10
806.2582105989484944
 20
958.0156301560900829
 10
814.0912284956750682
 20
952.5400177041304914
 10
817.8186106402395126
 20
943.7397266042362389
 10
817.4403570326412591
 20
931.614756856407098
 10
799.3809629673587551
 20
829.194713143592935
 10
795.5048414785180739
 20
817.1918920157780803
 10
788.7386199793545529
 20
808.7580467759270277
 10
779.0822984698681921
 20
803.8931774240390951
 10
766.5358769500592189
 20
802.5972839601148507
 10
570.1992630499407824
 20
809.4535310398852062
 10
558.2606094010516244
 20
811.6044648439100229
 10
550.427591504324937
 20
817.0800772958696143
 10
546.7002093597606063
 20
825.8803683957638668
 10
547.078462967358746
 20
838.0053381435930078
 97
0
 75
0
 76
1
 47
0.0
 98
0
  0
LWPOLYLINE
  5
40
330
F
100
AcDbEntity
  8
0
  6
ByLayer
420
12653087
 48
1.0
 60
0
370
-1
100
AcDbPolyline
 90
20
 70
1
 43
0.0
 38
0.0
 39
0.0
210
0.0
220
0.0
230
1.0
 10
565.13785703264125
 20
940.4253818564070571
 40
0.0
 41
0.0
 42
0.0
 10
569.0139785214820449
 20
952.428202984221798
 40
0.0
 41
0.0
 42
0.0
 10
575.7802000206454522
 20
960.862048224073078
 40
0.0
 41
0.0
 42
0.0
 10
585.4365215301318131
 20
965.7269175759607833
 40
0.0
 41
0.0
 42
0.0
 10
597.9829430499407863
 20
967.0228110398851413
 40
0.0
 41
0.0
 42
0.0
 10
794.3195569500592228
 20
960.1665639601148996
 40
0.0
 41
0.0
 42
0.0
 10
806.2582105989484944
 20
958.0156301560900829
 40
0.0
 41
0.0
 42
0.0
 10
814.0912284956750682
 20
952.5400177041304914
 40
0.0
 41
0.0
 42
0.0
 10
817.8186106402395126
 20
943.7397266042362389
 40
0.0
 41
0.0
 42
0.0
 10
817.4403570326412591
 20
931.614756856407098
 40
0.0
 41
0.0
 42
0.0
 10
799.3809629673587551
 20
829.194713143592935
 40
0.0
 41
0.0
 42
0.0
 10
795.5048414785180739
 20
817.1918920157780803
 40
0.0
 41
0.0
 42
0.0
 10
788.7386199793545529
 20
808.7580467759270277
 40
0.0
 41
0.0
 42
0.0
 10
779.0822984698681921
 20
803.8931774240390951
 40
0.0
 41
0.0
 42
0.0
 10
766.5358769500592189
 20
802.5972839601148507
 40
0.0
 41
0.0
 42
0.0
 10
570.1992630499407824
 20
809.4535310398852062
 40
0.0
 41
0.0
 42
0.0
 10
558.2606094010516244
 20
811.6044648439100229
 40
0.0
 41
0.0
 42
0.0
 10
550.427591504324937
 20
817.0800772958696143
 40
0.0
 41
0.0
 42
0.0
 10
546.7002093597606063
 20
825.8803683957638668
 40
0.0
 41
0.0
 42
0.0
 10
547.078462967358746
 20
838.0053381435930078
 40
0.0
 41
0.0
 42
0.0
  0
TEXT
  5
41
330
F
100
AcDbEntity
  8
0
  6
ByLayer
420
16777215
 48
1.0
 60
0
370
-1
100
AcDbText
 39
0.0
 10
457.3299771676349224
 20
923.38181517045291
 30
0.0
 40
28.0
  1
BLEND
 50
-2.0000062499575701
 41
1.0
 51
0.0
  7
Standard
 71
0
 72
0
 11
0.0
 21
0.0
 31
0.0
210
0.0
220
0.0
230
1.0
100
AcDbText
 73
0
  0
HATCH
  5
42
330
F
100
AcDbEntity
  8
0
  6
ByLayer
420
16777215
 48
1.0
 60
0
370
-1
100
AcDbHatch
 30
0.0
210
0.0
220
0.0
230
1.0
  2
SOLID
 70
1
 71
0
 91
1
 92
2
 72
0
 73
1
 93
20
 10
923.5113360737898347
 20
1002.0042644753308423
 10
925.4620823756303025
 20
1014.0391279763484818
 10
930.8256573549413133
 20
1022.1479829547322424
 10
939.6020610117229808
 20
1026.330829410482238
 10
951.7912933459754186
 20
1026.5876673435984685
 10
1184.047046654024598
 20
998.0703226564015722
 10
1196.1751959975008504
 20
994.8276936489339732
 10
1204.7683506819535069
 20
988.5121392829331626
 10
1209.826510707383477
 20
979.1236595583986855
 10
1211.3496760737898512
 20
966.662254475330883
 10
1208.641818926210135
 20
811.5281255246691217
 10
1206.6910726243697809
 20
799.4932620236513685
 10
1201.3274976450586564
 20
791.3844070452676078
 10
1192.551093988276989
 20
787.2015605895176122
 10
1180.3618616540245512
 20
786.9447226564014954
 10
948.1061083459753718
 20
815.4620673435983917
 10
935.9779590024993468
 20
818.704696351065877
 10
927.3848043180463492
 20
825.0202507170668014
 10
922.3266442926166064
 20
834.4087304416012785
 10
920.8034789262101185
 20
846.870135524669081
 97
0
 75
0
 76
1
 47
0.0
 98
0
  0
LWPOLYLINE
  5
43
330
F
100
AcDbEntity
  8
0
  6
ByLayer
420
16777215
 48
1.0
 60
0
370
-1
100
AcDbPolyline
 90
20
 70
1
 43
0.0
 38
0.0
 39
0.0
210
0.0
220
0.0
230
1.0
 10
923.5113360737898347
 20
1002.0042644753308423
 40
0.0
 41
0.0
 42
0.0
 10
925.4620823756303025
 20
1014.0391279763484818
 40
0.0
 41
0.0
 42
0.0
 10
930.8256573549413133
 20
1022.1479829547322424
 40
0.0
 41
0.0
 42
0.0
 10
939.6020610117229808
 20
1026.330829410482238
 40
0.0
 41
0.0
 42
0.0
 10
951.7912933459754186
 20
1026.5876673435984685
 40
0.0
 41
0.0
 42
0.0
 10
1184.047046654024598
 20
998.0703226564015722
 40
0.0
 41
0.0
 42
0.0
 10
1196.1751959975008504
 20
994.8276936489339732
 40
0.0
 41
0.0
 42
0.0
 10
1204.7683506819535069
 20
988.5121392829331626
 40
0.0
 41
0.0
 42
0.0
 10
1209.826510707383477
 20
979.1236595583986855
 40
0.0
 41
0.0
 42
0.0
 10
1211.3496760737898512
 20
966.662254475330883
 40
0.0
 41
0.0
 42
0.0
 10
1208.641818926210135
 20
811.5281255246691217
 40
0.0
 41
0.0
 42
0.0
 10
1206.6910726243697809
 20
799.4932620236513685
 40
0.0
 41
0.0
 42
0.0
 10
1201.3274976450586564
 20
791.3844070452676078
 40
0.0
 41
0.0
 42
0.0
 10
1192.551093988276989
 20
787.2015605895176122
 40
0.0
 41
0.0
 42
0.0
 10
1180.3618616540245512
 20
786.9447226564014954
 40
0.0
 41
0.0
 42
0.0
 10
948.1061083459753718
 20
815.4620673435983917
 40
0.0
 41
0.0
 42
0.0
 10
935.9779590024993468
 20
818.704696351065877
 40
0.0
 41
0.0
 42
0.0
 10
927.3848043180463492
 20
825.0202507170668014
 40
0.0
 41
0.0
 42
0.0
 10
922.3266442926166064
 20
834.4087304416012785
 40
0.0
 41
0.0
 42
0.0
 10
920.8034789262101185
 20
846.870135524669081
 40
0.0
 41
0.0
 42
0.0
  0
TEXT
  5
44
330
F
100
AcDbEntity
  8
0
  6
ByLayer
420
16777215
 48
1.0
 60
0
370
-1
100
AcDbText
 39
0.0
 10
945.0512806005966695
 20
855.2093443368098633
 30
0.0
 40
28.0
  1
MASKED
 50
-6.9999815298408299
 41
1.0
 51
0.0
  7
Standard
 71
0
 72
0
 11
0.0
 21
0.0
 31
0.0
210
0.0
220
0.0
230
1.0
100
AcDbText
 73
0
  0
HATCH
  5
45
330
F
100
AcDbEntity
  8
0
  6
ByLayer
420
16775400
 48
1.0
 60
0
370
-1
100
AcDbHatch
 30
0.0
210
0.0
220
0.0
230
1.0
  2
SOLID
 70
1
 71
0
 91
1
 92
2
 72
0
 73
1
 93
41
 10
84.0
 20
662.0
 10
1356.0
 20
662.0
 10
1356.0
 20
662.0
 10
1361.4625290164515263
 20
661.4619878512904734
 10
1366.7151361062224169
 20
659.8686269103160384
 10
1371.5559665245489214
 20
657.2811491444712146
 10
1375.7989898732232632
 20
653.7989898732233769
 10
1379.2811491444713283
 20
649.5559665245488077
 10
1381.8686269103159248
 20
644.7151361062225305
 10
1383.4619878512903597
 20
639.46252901645164
 10
1384.0
 20
634.0
 10
1384.0
 20
117.0
 10
1384.0
 20
117.0
 10
1383.4619878512903597
 20
111.5374709835484737
 10
1381.8686269103159248
 20
106.2848638937775831
 10
1379.2811491444713283
 20
101.4440334754510786
 10
1375.7989898732232632
 20
97.2010101267767368
 10
1371.5559665245489214
 20
93.7188508555286717
 10
1366.7151361062224169
 20
91.1313730896840752
 10
1361.4625290164515263
 20
89.5380121487096403
 10
1356.0
 20
89.0
 10
84.0
 20
89.0
 10
84.0
 20
89.0
 10
78.5374709835484168
 20
89.5380121487096403
 10
73.2848638937774837
 20
91.1313730896840752
 10
68.4440334754511497
 20
93.7188508555286717
 10
64.20101012677668
 20
97.2010101267767368
 10
60.7188508555287285
 20
101.4440334754510786
 10
58.1313730896839758
 20
106.2848638937775831
 10
56.5380121487095479
 20
111.5374709835484737
 10
56.0
 20
117.0
 10
56.0
 20
634.0
 10
56.0
 20
634.0
 10
56.5380121487095479
 20
639.46252901645164
 10
58.1313730896839687
 20
644.7151361062225305
 10
60.7188508555287285
 20
649.5559665245488077
 10
64.2010101267766657
 20
653.7989898732233769
 10
68.4440334754511355
 20
657.2811491444712146
 10
73.2848638937774695
 20
659.8686269103160384
 10
78.5374709835484026
 20
661.4619878512904734
 10
84.0
 20
662.0
 97
0
 75
0
 76
1
 47
0.0
 98
0
  0
LWPOLYLINE
  5
46
330
F
100
AcDbEntity
  8
0
  6
ByLayer
420
16775400
 48
1.0
 60
0
370
-1
100
AcDbPolyline
 90
41
 70
1
 43
0.0
 38
0.0
 39
0.0
210
0.0
220
0.0
230
1.0
 10
84.0
 20
662.0
 40
0.0
 41
0.0
 42
0.0
 10
1356.0
 20
662.0
 40
0.0
 41
0.0
 42
0.0
 10
1356.0
 20
662.0
 40
0.0
 41
0.0
 42
0.0
 10
1361.4625290164515263
 20
661.4619878512904734
 40
0.0
 41
0.0
 42
0.0
 10
1366.7151361062224169
 20
659.8686269103160384
 40
0.0
 41
0.0
 42
0.0
 10
1371.5559665245489214
 20
657.2811491444712146
 40
0.0
 41
0.0
 42
0.0
 10
1375.7989898732232632
 20
653.7989898732233769
 40
0.0
 41
0.0
 42
0.0
 10
1379.2811491444713283
 20
649.5559665245488077
 40
0.0
 41
0.0
 42
0.0
 10
1381.8686269103159248
 20
644.7151361062225305
 40
0.0
 41
0.0
 42
0.0
 10
1383.4619878512903597
 20
639.46252901645164
 40
0.0
 41
0.0
 42
0.0
 10
1384.0
 20
634.0
 40
0.0
 41
0.0
 42
0.0
 10
1384.0
 20
117.0
 40
0.0
 41
0.0
 42
0.0
 10
1384.0
 20
117.0
 40
0.0
 41
0.0
 42
0.0
 10
1383.4619878512903597
 20
111.5374709835484737
 40
0.0
 41
0.0
 42
0.0
 10
1381.8686269103159248
 20
106.2848638937775831
 40
0.0
 41
0.0
 42
0.0
 10
1379.2811491444713283
 20
101.4440334754510786
 40
0.0
 41
0.0
 42
0.0
 10
1375.7989898732232632
 20
97.2010101267767368
 40
0.0
 41
0.0
 42
0.0
 10
1371.5559665245489214
 20
93.7188508555286717
 40
0.0
 41
0.0
 42
0.0
 10
1366.7151361062224169
 20
91.1313730896840752
 40
0.0
 41
0.0
 42
0.0
 10
1361.4625290164515263
 20
89.5380121487096403
 40
0.0
 41
0.0
 42
0.0
 10
1356.0
 20
89.0
 40
0.0
 41
0.0
 42
0.0
 10
84.0
 20
89.0
 40
0.0
 41
0.0
 42
0.0
 10
84.0
 20
89.0
 40
0.0
 41
0.0
 42
0.0
 10
78.5374709835484168
 20
89.5380121487096403
 40
0.0
 41
0.0
 42
0.0
 10
73.2848638937774837
 20
91.1313730896840752
 40
0.0
 41
0.0
 42
0.0
 10
68.4440334754511497
 20
93.7188508555286717
 40
0.0
 41
0.0
 42
0.0
 10
64.20101012677668
 20
97.2010101267767368
 40
0.0
 41
0.0
 42
0.0
 10
60.7188508555287285
 20
101.4440334754510786
 40
0.0
 41
0.0
 42
0.0
 10
58.1313730896839758
 20
106.2848638937775831
 40
0.0
 41
0.0
 42
0.0
 10
56.5380121487095479
 20
111.5374709835484737
 40
0.0
 41
0.0
 42
0.0
 10
56.0
 20
117.0
 40
0.0
 41
0.0
 42
0.0
 10
56.0
 20
634.0
 40
0.0
 41
0.0
 42
0.0
 10
56.0
 20
634.0
 40
0.0
 41
0.0
 42
0.0
 10
56.5380121487095479
 20
639.46252901645164
 40
0.0
 41
0.0
 42
0.0
 10
58.1313730896839687
 20
644.7151361062225305
 40
0.0
 41
0.0
 42
0.0
 10
60.7188508555287285
 20
649.5559665245488077
 40
0.0
 41
0.0
 42
0.0
 10
64.2010101267766657
 20
653.7989898732233769
 40
0.0
 41
0.0
 42
0.0
 10
68.4440334754511355
 20
657.2811491444712146
 40
0.0
 41
0.0
 42
0.0
 10
73.2848638937774695
 20
659.8686269103160384
 40
0.0
 41
0.0
 42
0.0
 10
78.5374709835484026
 20
661.4619878512904734
 40
0.0
 41
0.0
 42
0.0
 10
84.0
 20
662.0
 40
0.0
 41
0.0
 42
0.0
  0
TEXT
  5
47
330
F
100
AcDbEntity
  8
0
  6
ByLayer
420
1454671
 48
1.0
 60
0
370
-1
100
AcDbText
 39
0.0
 10
84.0
 20
610.0
 30
0.0
 40
30.0
  1
TEXT PROPERTIES
 50
0.0
 41
1.0
 51
0.0
  7
Standard
 71
0
 72
0
 11
0.0
 21
0.0
 31
0.0
210
0.0
220
0.0
230
1.0
100
AcDbText
 73
0
  0
HATCH
  5
48
330
F
100
AcDbEntity
  8
0
  6
ByLayer
420
16777215
 48
1.0
 60
0
370
-1
100
AcDbHatch
 30
0.0
210
0.0
220
0.0
230
1.0
  2
SOLID
 70
1
 71
0
 91
1
 92
2
 72
0
 73
1
 93
41
 10
108.0
 20
581.0
 10
775.0
 20
581.0
 10
775.0
 20
581.0
 10
779.6821677283870713
 20
580.5388467296775161
 10
784.1844023767621366
 20
579.1731087802709226
 10
788.3336855924704878
 20
576.9552706952611061
 10
791.970562748477164
 20
573.9705627484770503
 10
794.9552706952611061
 20
570.3336855924703741
 10
797.1731087802709226
 20
566.1844023767621366
 10
798.5388467296775161
 20
561.682167728387185
 10
799.0
 20
557.0
 10
799.0
 20
349.0
 10
799.0
 20
349.0
 10
798.5388467296775161
 20
344.317832271612815
 10
797.1731087802709226
 20
339.8155976232378634
 10
794.9552706952611061
 20
335.6663144075296259
 10
791.970562748477164
 20
332.0294372515229497
 10
788.3336855924704878
 20
329.0447293047388939
 10
784.1844023767621366
 20
326.8268912197290774
 10
779.6821677283870713
 20
325.4611532703224839
 10
775.0
 20
325.0
 10
108.0
 20
325.0
 10
108.0
 20
325.0
 10
103.3178322716129287
 20
325.4611532703224839
 10
98.8155976232378492
 20
326.8268912197290774
 10
94.6663144075295548
 20
329.0447293047388939
 10
91.0294372515228645
 20
332.0294372515229497
 10
88.0447293047389081
 20
335.6663144075296259
 10
85.8268912197291201
 20
339.8155976232378634
 10
84.4611532703224697
 20
344.317832271612815
 10
84.0
 20
349.0
 10
84.0
 20
557.0
 10
84.0
 20
557.0
 10
84.4611532703224697
 20
561.682167728387185
 10
85.8268912197291201
 20
566.1844023767621366
 10
88.0447293047389081
 20
570.3336855924703741
 10
91.0294372515228645
 20
573.9705627484770503
 10
94.6663144075295406
 20
576.9552706952611061
 10
98.815597623237835
 20
579.1731087802709226
 10
103.3178322716129145
 20
580.5388467296775161
 10
108.0
 20
581.0
 97
0
 75
0
 76
1
 47
0.0
 98
0
  0
LWPOLYLINE
  5
49
330
F
100
AcDbEntity
  8
0
  6
ByLayer
420
16777215
 48
1.0
 60
0
370
-1
100
AcDbPolyline
 90
41
 70
1
 43
0.0
 38
0.0
 39
0.0
210
0.0
220
0.0
230
1.0
 10
108.0
 20
581.0
 40
0.0
 41
0.0
 42
0.0
 10
775.0
 20
581.0
 40
0.0
 41
0.0
 42
0.0
 10
775.0
 20
581.0
 40
0.0
 41
0.0
 42
0.0
 10
779.6821677283870713
 20
580.5388467296775161
 40
0.0
 41
0.0
 42
0.0
 10
784.1844023767621366
 20
579.1731087802709226
 40
0.0
 41
0.0
 42
0.0
 10
788.3336855924704878
 20
576.9552706952611061
 40
0.0
 41
0.0
 42
0.0
 10
791.970562748477164
 20
573.9705627484770503
 40
0.0
 41
0.0
 42
0.0
 10
794.9552706952611061
 20
570.3336855924703741
 40
0.0
 41
0.0
 42
0.0
 10
797.1731087802709226
 20
566.1844023767621366
 40
0.0
 41
0.0
 42
0.0
 10
798.5388467296775161
 20
561.682167728387185
 40
0.0
 41
0.0
 42
0.0
 10
799.0
 20
557.0
 40
0.0
 41
0.0
 42
0.0
 10
799.0
 20
349.0
 40
0.0
 41
0.0
 42
0.0
 10
799.0
 20
349.0
 40
0.0
 41
0.0
 42
0.0
 10
798.5388467296775161
 20
344.317832271612815
 40
0.0
 41
0.0
 42
0.0
 10
797.1731087802709226
 20
339.8155976232378634
 40
0.0
 41
0.0
 42
0.0
 10
794.9552706952611061
 20
335.6663144075296259
 40
0.0
 41
0.0
 42
0.0
 10
791.970562748477164
 20
332.0294372515229497
 40
0.0
 41
0.0
 42
0.0
 10
788.3336855924704878
 20
329.0447293047388939
 40
0.0
 41
0.0
 42
0.0
 10
784.1844023767621366
 20
326.8268912197290774
 40
0.0
 41
0.0
 42
0.0
 10
779.6821677283870713
 20
325.4611532703224839
 40
0.0
 41
0.0
 42
0.0
 10
775.0
 20
325.0
 40
0.0
 41
0.0
 42
0.0
 10
108.0
 20
325.0
 40
0.0
 41
0.0
 42
0.0
 10
108.0
 20
325.0
 40
0.0
 41
0.0
 42
0.0
 10
103.3178322716129287
 20
325.4611532703224839
 40
0.0
 41
0.0
 42
0.0
 10
98.8155976232378492
 20
326.8268912197290774
 40
0.0
 41
0.0
 42
0.0
 10
94.6663144075295548
 20
329.0447293047388939
 40
0.0
 41
0.0
 42
0.0
 10
91.0294372515228645
 20
332.0294372515229497
 40
0.0
 41
0.0
 42
0.0
 10
88.0447293047389081
 20
335.6663144075296259
 40
0.0
 41
0.0
 42
0.0
 10
85.8268912197291201
 20
339.8155976232378634
 40
0.0
 41
0.0
 42
0.0
 10
84.4611532703224697
 20
344.317832271612815
 40
0.0
 41
0.0
 42
0.0
 10
84.0
 20
349.0
 40
0.0
 41
0.0
 42
0.0
 10
84.0
 20
557.0
 40
0.0
 41
0.0
 42
0.0
 10
84.0
 20
557.0
 40
0.0
 41
0.0
 42
0.0
 10
84.4611532703224697
 20
561.682167728387185
 40
0.0
 41
0.0
 42
0.0
 10
85.8268912197291201
 20
566.1844023767621366
 40
0.0
 41
0.0
 42
0.0
 10
88.0447293047389081
 20
570.3336855924703741
 40
0.0
 41
0.0
 42
0.0
 10
91.0294372515228645
 20
573.9705627484770503
 40
0.0
 41
0.0
 42
0.0
 10
94.6663144075295406
 20
576.9552706952611061
 40
0.0
 41
0.0
 42
0.0
 10
98.815597623237835
 20
579.1731087802709226
 40
0.0
 41
0.0
 42
0.0
 10
103.3178322716129145
 20
580.5388467296775161
 40
0.0
 41
0.0
 42
0.0
 10
108.0
 20
581.0
 40
0.0
 41
0.0
 42
0.0
  0
TEXT
  5
4A
330
F
100
AcDbEntity
  8
0
  6
ByLayer
420
1454671
 48
1.0
 60
0
370
-1
100
AcDbText
 39
0.0
 10
107.9995624999864958
 20
547.0
 30
0.0
 40
14.0
  1
TYPOGRAPHY STACK
 50
0.0
 41
1.0
 51
0.0
  7
Standard
 71
0
 72
0
 11
0.0
 21
0.0
 31
0.0
210
0.0
220
0.0
230
1.0
100
AcDbText
 73
0
  0
TEXT
  5
4B
330
F
100
AcDbEntity
  8
0
  6
ByLayer
420
6953805
 48
1.0
 60
0
370
-1
100
AcDbText
 39
0.0
 10
-39.8409828003188125
 20
562.3055350689248826
 30
0.0
 40
30.0
  1
MUSEUM COPY
 50
3.0000011085596192
 41
1.0
 51
0.0
  7
Standard
 71
0
 72
0
 11
0.0
 21
0.0
 31
0.0
210
0.0
220
0.0
230
1.0
100
AcDbText
 73
0
  0
TEXT
  5
4C
330
F
100
AcDbEntity
  8
0
  6
ByLayer
420
6953805
 48
1.0
 60
0
370
-1
100
AcDbText
 39
0.0
 10
-101.3458298201959877
 20
513.0191131921455963
 30
0.0
 40
30.0
  1
LEANS INTO RHYTHM 
 50
3.0000011085596263
 41
1.0
 51
0.0
  7
Standard
 71
0
 72
0
 11
0.0
 21
0.0
 31
0.0
210
0.0
220
0.0
230
1.0
100
AcDbText
 73
0
  0
TEXT
  5
4D
330
F
100
AcDbEntity
  8
0
  6
ByLayer
420
6953805
 48
1.0
 60
0
370
-1
100
AcDbText
 39
0.0
 10
318.0785415655128077
 20
535.0002223216263246
 30
0.0
 40
30.0
  1
AND SPACING
 50
3.0000011085595921
 41
1.0
 51
0.0
  7
Standard
 71
0
 72
0
 11
0.0
 21
0.0
 31
0.0
210
0.0
220
0.0
230
1.0
100
AcDbText
 73
0
  0
TEXT
  5
4E
330
F
100
AcDbEntity
  8
0
  6
ByLayer
420
8344889
 48
1.0
 60
0
370
-1
100
AcDbText
 39
0.0
 10
-46.9924511009018104
 20
380.5204824084084976
 30
0.0
 40
22.0
  1
This sentence intentionally…
 50
-4.0000017015624163
 41
1.0
 51
0.0
  7
Standard
 71
0
 72
0
 11
0.0
 21
0.0
 31
0.0
210
0.0
220
0.0
230
1.0
100
AcDbText
 73
0
  0
HATCH
  5
4F
330
F
100
AcDbEntity
  8
0
  6
ByLayer
420
16777215
 48
1.0
 60
0
370
-1
100
AcDbHatch
 30
0.0
210
0.0
220
0.0
230
1.0
  2
SOLID
 70
1
 71
0
 91
1
 92
2
 72
0
 73
1
 93
41
 10
851.0
 20
581.0
 10
1332.0
 20
581.0
 10
1332.0
 20
581.0
 10
1336.682167728387185
 20
580.5388467296775161
 10
1341.1844023767621366
 20
579.1731087802709226
 10
1345.3336855924703741
 20
576.9552706952611061
 10
1348.9705627484770503
 20
573.9705627484770503
 10
1351.9552706952611061
 20
570.3336855924703741
 10
1354.1731087802709226
 20
566.1844023767621366
 10
1355.5388467296775161
 20
561.682167728387185
 10
1356.0
 20
557.0
 10
1356.0
 20
141.0
 10
1356.0
 20
141.0
 10
1355.5388467296775161
 20
136.317832271612815
 10
1354.1731087802709226
 20
131.8155976232378634
 10
1351.9552706952611061
 20
127.6663144075296259
 10
1348.9705627484770503
 20
124.0294372515229497
 10
1345.3336855924703741
 20
121.0447293047388939
 10
1341.1844023767621366
 20
118.8268912197290774
 10
1336.682167728387185
 20
117.4611532703224839
 10
1332.0
 20
117.0
 10
851.0
 20
117.0
 10
851.0
 20
117.0
 10
846.3178322716129287
 20
117.4611532703224839
 10
841.8155976232378634
 20
118.8268912197290774
 10
837.6663144075295122
 20
121.0447293047388939
 10
834.029437251522836
 20
124.0294372515229497
 10
831.0447293047388939
 20
127.6663144075296259
 10
828.8268912197290774
 20
131.8155976232378634
 10
827.4611532703224839
 20
136.317832271612815
 10
827.0
 20
141.0
 10
827.0
 20
557.0
 10
827.0
 20
557.0
 10
827.4611532703224839
 20
561.682167728387185
 10
828.8268912197290774
 20
566.1844023767621366
 10
831.0447293047388939
 20
570.3336855924703741
 10
834.029437251522836
 20
573.9705627484770503
 10
837.6663144075295122
 20
576.9552706952611061
 10
841.8155976232378634
 20
579.1731087802709226
 10
846.3178322716129287
 20
580.5388467296775161
 10
851.0
 20
581.0
 97
0
 75
0
 76
1
 47
0.0
 98
0
  0
LWPOLYLINE
  5
50
330
F
100
AcDbEntity
  8
0
  6
ByLayer
420
16777215
 48
1.0
 60
0
370
-1
100
AcDbPolyline
 90
41
 70
1
 43
0.0
 38
0.0
 39
0.0
210
0.0
220
0.0
230
1.0
 10
851.0
 20
581.0
 40
0.0
 41
0.0
 42
0.0
 10
1332.0
 20
581.0
 40
0.0
 41
0.0
 42
0.0
 10
1332.0
 20
581.0
 40
0.0
 41
0.0
 42
0.0
 10
1336.682167728387185
 20
580.5388467296775161
 40
0.0
 41
0.0
 42
0.0
 10
1341.1844023767621366
 20
579.1731087802709226
 40
0.0
 41
0.0
 42
0.0
 10
1345.3336855924703741
 20
576.9552706952611061
 40
0.0
 41
0.0
 42
0.0
 10
1348.9705627484770503
 20
573.9705627484770503
 40
0.0
 41
0.0
 42
0.0
 10
1351.9552706952611061
 20
570.3336855924703741
 40
0.0
 41
0.0
 42
0.0
 10
1354.1731087802709226
 20
566.1844023767621366
 40
0.0
 41
0.0
 42
0.0
 10
1355.5388467296775161
 20
561.682167728387185
 40
0.0
 41
0.0
 42
0.0
 10
1356.0
 20
557.0
 40
0.0
 41
0.0
 42
0.0
 10
1356.0
 20
141.0
 40
0.0
 41
0.0
 42
0.0
 10
1356.0
 20
141.0
 40
0.0
 41
0.0
 42
0.0
 10
1355.5388467296775161
 20
136.317832271612815
 40
0.0
 41
0.0
 42
0.0
 10
1354.1731087802709226
 20
131.8155976232378634
 40
0.0
 41
0.0
 42
0.0
 10
1351.9552706952611061
 20
127.6663144075296259
 40
0.0
 41
0.0
 42
0.0
 10
1348.9705627484770503
 20
124.0294372515229497
 40
0.0
 41
0.0
 42
0.0
 10
1345.3336855924703741
 20
121.0447293047388939
 40
0.0
 41
0.0
 42
0.0
 10
1341.1844023767621366
 20
118.8268912197290774
 40
0.0
 41
0.0
 42
0.0
 10
1336.682167728387185
 20
117.4611532703224839
 40
0.0
 41
0.0
 42
0.0
 10
1332.0
 20
117.0
 40
0.0
 41
0.0
 42
0.0
 10
851.0
 20
117.0
 40
0.0
 41
0.0
 42
0.0
 10
851.0
 20
117.0
 40
0.0
 41
0.0
 42
0.0
 10
846.3178322716129287
 20
117.4611532703224839
 40
0.0
 41
0.0
 42
0.0
 10
841.8155976232378634
 20
118.8268912197290774
 40
0.0
 41
0.0
 42
0.0
 10
837.6663144075295122
 20
121.0447293047388939
 40
0.0
 41
0.0
 42
0.0
 10
834.029437251522836
 20
124.0294372515229497
 40
0.0
 41
0.0
 42
0.0
 10
831.0447293047388939
 20
127.6663144075296259
 40
0.0
 41
0.0
 42
0.0
 10
828.8268912197290774
 20
131.8155976232378634
 40
0.0
 41
0.0
 42
0.0
 10
827.4611532703224839
 20
136.317832271612815
 40
0.0
 41
0.0
 42
0.0
 10
827.0
 20
141.0
 40
0.0
 41
0.0
 42
0.0
 10
827.0
 20
557.0
 40
0.0
 41
0.0
 42
0.0
 10
827.0
 20
557.0
 40
0.0
 41
0.0
 42
0.0
 10
827.4611532703224839
 20
561.682167728387185
 40
0.0
 41
0.0
 42
0.0
 10
828.8268912197290774
 20
566.1844023767621366
 40
0.0
 41
0.0
 42
0.0
 10
831.0447293047388939
 20
570.3336855924703741
 40
0.0
 41
0.0
 42
0.0
 10
834.029437251522836
 20
573.9705627484770503
 40
0.0
 41
0.0
 42
0.0
 10
837.6663144075295122
 20
576.9552706952611061
 40
0.0
 41
0.0
 42
0.0
 10
841.8155976232378634
 20
579.1731087802709226
 40
0.0
 41
0.0
 42
0.0
 10
846.3178322716129287
 20
580.5388467296775161
 40
0.0
 41
0.0
 42
0.0
 10
851.0
 20
581.0
 40
0.0
 41
0.0
 42
0.0
  0
TEXT
  5
51
330
F
100
AcDbEntity
  8
0
  6
ByLayer
420
1454671
 48
1.0
 60
0
370
-1
100
AcDbText
 39
0.0
 10
851.0004375000135042
 20
547.0
 30
0.0
 40
14.0
  1
WRAPPING AND DIRECTION
 50
0.0
 41
1.0
 51
0.0
  7
Standard
 71
0
 72
0
 11
0.0
 21
0.0
 31
0.0
210
0.0
220
0.0
230
1.0
100
AcDbText
 73
0
  0
TEXT
  5
52
330
F
100
AcDbEntity
  8
0
  6
ByLayer
420
2508371
 48
1.0
 60
0
370
-1
100
AcDbText
 39
0.0
 10
702.3924900156665672
 20
573.4934101533365265
 30
0.0
 40
22.0
  1
WrapThisAbsurdlyLongToken
 50
-1.9999998429261663
 41
1.0
 51
0.0
  7
Standard
 71
0
 72
0
 11
0.0
 21
0.0
 31
0.0
210
0.0
220
0.0
230
1.0
100
AcDbText
 73
0
  0
TEXT
  5
53
330
F
100
AcDbEntity
  8
0
  6
ByLayer
420
2508371
 48
1.0
 60
0
370
-1
100
AcDbText
 39
0.0
 10
701.2795128764827268
 20
541.6222248296353428
 30
0.0
 40
22.0
  1
WithoutAnyMercyBecauseWo
 50
-1.9999998429261427
 41
1.0
 51
0.0
  7
Standard
 71
0
 72
0
 11
0.0
 21
0.0
 31
0.0
210
0.0
220
0.0
230
1.0
100
AcDbText
 73
0
  0
TEXT
  5
54
330
F
100
AcDbEntity
  8
0
  6
ByLayer
420
2508371
 48
1.0
 60
0
370
-1
100
AcDbText
 39
0.0
 10
700.1665354096621741
 20
509.7510488882251138
 30
0.0
 40
22.0
  1
rdBreakAndOverflowWrapSh
 50
-1.9999998429261463
 41
1.0
 51
0.0
  7
Standard
 71
0
 72
0
 11
0.0
 21
0.0
 31
0.0
210
0.0
220
0.0
230
1.0
100
AcDbText
 73
0
  0
TEXT
  5
55
330
F
100
AcDbEntity
  8
0
  6
ByLayer
420
2508371
 48
1.0
 60
0
370
-1
100
AcDbText
 39
0.0
 10
699.0535589057238894
 20
477.8798453734696068
 30
0.0
 40
22.0
  1
ouldStillPreserveTheLayout.
 50
-1.9999998429261479
 41
1.0
 51
0.0
  7
Standard
 71
0
 72
0
 11
0.0
 21
0.0
 31
0.0
210
0.0
220
0.0
230
1.0
100
AcDbText
 73
0
  0
HATCH
  5
56
330
F
100
AcDbEntity
  8
0
  6
ByLayer
420
1149618
 48
1.0
 60
0
370
-1
100
AcDbHatch
 30
0.0
210
0.0
220
0.0
230
1.0
  2
SOLID
 70
1
 71
0
 91
1
 92
2
 72
0
 73
1
 93
20
 10
849.1184961046756143
 20
373.09860499592628
 10
851.0604912466345695
 20
380.8128713167507158
 10
855.0049727771873904
 20
386.0542752751505304
 10
860.951940696333736
 20
388.8228168711252692
 10
868.9013950040738337
 20
389.1184961046756143
 10
972.331684995926139
 20
378.2475838953243965
 10
980.0459513167506884
 20
376.305588753365555
 10
985.2873552751503894
 20
372.3611072228127341
 10
988.0558968711254693
 20
366.4141393036663885
 10
988.351576104675587
 20
358.4646849959262909
 10
965.9825838953244102
 20
145.6369750040737472
 10
964.040588753365455
 20
137.9227086832493114
 10
960.0961072228126341
 20
132.6813047248497242
 10
954.1491393036662885
 20
129.9127631288745306
 10
946.1996849959261908
 20
129.6170838953244129
 10
842.7693950040738855
 20
140.4879961046756307
 10
835.0551286832493361
 20
142.4299912466346996
 10
829.8137247248495214
 20
146.3744727771872931
 10
827.0451831288746689
 20
152.3214406963338661
 10
826.7495038953244375
 20
160.2708950040737363
 97
0
 75
0
 76
1
 47
0.0
 98
0
  0
LWPOLYLINE
  5
57
330
F
100
AcDbEntity
  8
0
  6
ByLayer
420
1149618
 48
1.0
 60
0
370
-1
100
AcDbPolyline
 90
20
 70
1
 43
0.0
 38
0.0
 39
0.0
210
0.0
220
0.0
230
1.0
 10
849.1184961046756143
 20
373.09860499592628
 40
0.0
 41
0.0
 42
0.0
 10
851.0604912466345695
 20
380.8128713167507158
 40
0.0
 41
0.0
 42
0.0
 10
855.0049727771873904
 20
386.0542752751505304
 40
0.0
 41
0.0
 42
0.0
 10
860.951940696333736
 20
388.8228168711252692
 40
0.0
 41
0.0
 42
0.0
 10
868.9013950040738337
 20
389.1184961046756143
 40
0.0
 41
0.0
 42
0.0
 10
972.331684995926139
 20
378.2475838953243965
 40
0.0
 41
0.0
 42
0.0
 10
980.0459513167506884
 20
376.305588753365555
 40
0.0
 41
0.0
 42
0.0
 10
985.2873552751503894
 20
372.3611072228127341
 40
0.0
 41
0.0
 42
0.0
 10
988.0558968711254693
 20
366.4141393036663885
 40
0.0
 41
0.0
 42
0.0
 10
988.351576104675587
 20
358.4646849959262909
 40
0.0
 41
0.0
 42
0.0
 10
965.9825838953244102
 20
145.6369750040737472
 40
0.0
 41
0.0
 42
0.0
 10
964.040588753365455
 20
137.9227086832493114
 40
0.0
 41
0.0
 42
0.0
 10
960.0961072228126341
 20
132.6813047248497242
 40
0.0
 41
0.0
 42
0.0
 10
954.1491393036662885
 20
129.9127631288745306
 40
0.0
 41
0.0
 42
0.0
 10
946.1996849959261908
 20
129.6170838953244129
 40
0.0
 41
0.0
 42
0.0
 10
842.7693950040738855
 20
140.4879961046756307
 40
0.0
 41
0.0
 42
0.0
 10
835.0551286832493361
 20
142.4299912466346996
 40
0.0
 41
0.0
 42
0.0
 10
829.8137247248495214
 20
146.3744727771872931
 40
0.0
 41
0.0
 42
0.0
 10
827.0451831288746689
 20
152.3214406963338661
 40
0.0
 41
0.0
 42
0.0
 10
826.7495038953244375
 20
160.2708950040737363
 40
0.0
 41
0.0
 42
0.0
  0
TEXT
  5
58
330
F
100
AcDbEntity
  8
0
  6
ByLayer
420
1454671
 48
1.0
 60
0
370
-1
100
AcDbText
 39
0.0
 10
889.1069088888719989
 20
380.4589616812706936
 30
0.0
 40
26.0
  1
RTL FLOW
 50
-5.9999729754834759
 41
1.0
 51
0.0
  7
Standard
 71
0
 72
0
 11
0.0
 21
0.0
 31
0.0
210
0.0
220
0.0
230
1.0
100
AcDbText
 73
0
  0
TEXT
  5
59
330
F
100
AcDbEntity
  8
0
  6
ByLayer
420
4014171
 48
1.0
 60
0
370
-1
100
AcDbText
 39
0.0
 10
1011.0004374999999754
 20
304.5000500000001011
 30
0.0
 40
18.0
  1
white-space: pre-wrap
 50
0.0
 41
1.0
 51
0.0
  7
Standard
 71
0
 72
0
 11
0.0
 21
0.0
 31
0.0
210
0.0
220
0.0
230
1.0
100
AcDbText
 73
0
  0
TEXT
  5
5A
330
F
100
AcDbEntity
  8
0
  6
ByLayer
420
4014171
 48
1.0
 60
0
370
-1
100
AcDbText
 39
0.0
 10
1011.0004374999999754
 20
276.6094250000001011
 30
0.0
 40
18.0
  1
keeps   deliberate gaps
 50
0.0
 41
1.0
 51
0.0
  7
Standard
 71
0
 72
0
 11
0.0
 21
0.0
 31
0.0
210
0.0
220
0.0
230
1.0
100
AcDbText
 73
0
  0
TEXT
  5
5B
330
F
100
AcDbEntity
  8
0
  6
ByLayer
420
4014171
 48
1.0
 60
0
370
-1
100
AcDbText
 39
0.0
 10
1011.0004374999999754
 20
248.7188000000001011
 30
0.0
 40
18.0
  1
and carries line breaks 
 50
0.0
 41
1.0
 51
0.0
  7
Standard
 71
0
 72
0
 11
0.0
 21
0.0
 31
0.0
210
0.0
220
0.0
230
1.0
100
AcDbText
 73
0
  0
TEXT
  5
5C
330
F
100
AcDbEntity
  8
0
  6
ByLayer
420
4014171
 48
1.0
 60
0
370
-1
100
AcDbText
 39
0.0
 10
1259.4535624999998618
 20
248.7188000000001011
 30
0.0
 40
18.0
  1
forward.
 50
0.0
 41
1.0
 51
0.0
  7
Standard
 71
0
 72
0
 11
0.0
 21
0.0
 31
0.0
210
0.0
220
0.0
230
1.0
100
AcDbText
 73
0
  0
ENDSEC
  0
SECTION
  2
OBJECTS
  0
DICTIONARY
  5
1
330
0
100
AcDbDictionary
280
0
281
0
  3
ACAD_COLOR
350
0
  3
ACAD_GROUP
350
0
  3
ACAD_LAYOUT
350
0
  3
ACAD_MATERIAL
350
0
  3
ACAD_SORTENTS
350
0
  3
ACAD_MLEADERSTYLE
350
0
  3
ACAD_MLINESTYLE
350
0
  3
ACAD_TABLESTYLE
350
0
  3
ACAD_PLOTSETTINGS
350
0
  3
AcDbVariableDictionary
350
0
  3
ACAD_SCALELIST
350
0
  3
ACAD_VISUALSTYLE
350
0
  3
ACAD_FIELDLIST
350
0
  3
ACAD_IMAGE_DICT
350
0
  0
DICTIONARY
  5
0
330
1
100
AcDbDictionary
280
0
281
0
  0
DICTIONARY
  5
0
330
1
100
AcDbDictionary
280
0
281
0
  0
DICTIONARY
  5
0
330
1
100
AcDbDictionary
280
0
281
0
  0
DICTIONARY
  5
0
330
1
100
AcDbDictionary
280
0
281
0
  0
DICTIONARY
  5
0
330
1
100
AcDbDictionary
280
0
281
0
  0
DICTIONARY
  5
0
330
1
100
AcDbDictionary
280
0
281
0
  0
DICTIONARY
  5
0
330
1
100
AcDbDictionary
280
0
281
0
  0
DICTIONARY
  5
0
330
1
100
AcDbDictionary
280
0
281
0
  0
DICTIONARY
  5
0
330
1
100
AcDbDictionary
280
0
281
0
  0
DICTIONARY
  5
0
330
1
100
AcDbDictionary
280
0
281
0
  0
DICTIONARY
  5
0
330
1
100
AcDbDictionary
280
0
281
0
  0
DICTIONARY
  5
0
330
1
100
AcDbDictionary
280
0
281
0
  0
DICTIONARY
  5
0
330
1
100
AcDbDictionary
280
0
281
0
  0
DICTIONARY
  5
0
330
1
100
AcDbDictionary
280
0
281
0
  0
ENDSEC
  0
EOF
