  0
SECTION
  2
HEADER
  0
ENDSEC
  0
SECTION
  2
CLASSES
  0
CLASS
  1
ACDBDICTIONARYWDFLT
  2
AcDbDictionaryWithDefault
  3
ObjectDBX Classes
 90
32768
280
0
281
0
  0
CLASS
  1
ACDBPLACEHOLDER
  2
AcDbPlaceHolder
  3
ObjectDBX Classes
 90
0
280
0
281
0
  0
CLASS
  1
LAYOUT
  2
AcDbLayout
  3
ObjectDBX Classes
 90
0
280
0
281
0
  0
CLASS
  1
DICTIONARYVAR
  2
AcDbDictionaryVar
  3
ObjectDBX Classes
 90
0
280
0
281
0
  0
CLASS
  1
TABLESTYLE
  2
AcDbTableStyle
  3
ObjectDBX Classes
 90
4095
280
0
281
0
  0
CLASS
  1
MATERIAL
  2
AcDbMaterial
  3
ObjectDBX Classes
 90
1153
280
0
281
0
  0
CLASS
  1
VISUALSTYLE
  2
AcDbVisualStyle
  3
ObjectDBX Classes
 90
4095
280
0
281
0
  0
CLASS
  1
SCALE
  2
AcDbScale
  3
ObjectDBX Classes
 90
1153
280
0
281
0
  0
CLASS
  1
MLEADERSTYLE
  2
AcDbMLeaderStyle
  3
ObjectDBX Classes
 90
4095
280
0
281
0
  0
CLASS
  1
CELLSTYLEMAP
  2
AcDbCellStyleMap
  3
ObjectDBX Classes
 90
1152
280
0
281
0
  0
CLASS
  1
EXACXREFPANELOBJECT
  2
ExAcXREFPanelObject
  3
ObjectDBX Classes
 90
1025
280
0
281
0
  0
CLASS
  1
NPOCOLLECTION
  2
AcDbImpNonPersistentObjectsCollection
  3
ObjectDBX Classes
 90
1153
280
0
281
0
  0
CLASS
  1
LAYER_INDEX
  2
AcDbLayerIndex
  3
ObjectDBX Classes
 90
0
280
0
281
0
  0
CLASS
  1
SPATIAL_INDEX
  2
AcDbSpatialIndex
  3
ObjectDBX Classes
 90
0
280
0
281
0
  0
CLASS
  1
IDBUFFER
  2
AcDbIdBuffer
  3
ObjectDBX Classes
 90
32768
280
0
281
0
  0
CLASS
  1
ACDBSECTIONVIEWSTYLE
  2
AcDbSectionViewStyle
  3
ObjectDBX Classes
 90
1025
280
0
281
0
  0
CLASS
  1
ACDBDETAILVIEWSTYLE
  2
AcDbDetailViewStyle
  3
ObjectDBX Classes
 90
1025
280
0
281
0
  0
CLASS
  1
MESH
  2
AcDbSubDMesh
  3
ObjectDBX Classes
 90
0
280
0
281
1
  0
CLASS
  1
SORTENTSTABLE
  2
AcDbSortentsTable
  3
ObjectDBX Classes
 90
0
280
0
281
0
  0
CLASS
  1
ACDB_TEXTOBJECTCONTEXTDATA_CLASS
  2
AcDbTextObjectContextData
  3
ObjectDBX Classes
 90
1153
280
0
281
0
  0
CLASS
  1
WIPEOUT
  2
AcDbWipeout
  3
WipeOut
 90
32895
280
0
281
1
  0
CLASS
  1
WIPEOUTVARIABLES
  2
AcDbWipeoutVariables
  3
WipeOut
 90
32768
280
0
281
0
  0
CLASS
  1
DIMASSOC
  2
AcDbDimAssoc
  3
AcDbDimAssoc
 90
0
280
0
281
0
  0
CLASS
  1
ACAD_TABLE
  2
AcDbTable
  3
ObjectDBX Classes
 90
1025
280
0
281
1
  0
CLASS
  1
TABLECONTENT
  2
AcDbTableContent
  3
ObjectDBX Classes
 90
1152
280
0
281
0
  0
CLASS
  1
TABLEGEOMETRY
  2
AcDbTableGeometry
  3
ObjectDBX Classes
 90
1152
280
0
281
0
  0
CLASS
  1
IMAGE
  2
AcDbRasterImage
  3
ISM
 90
32895
280
0
281
1
  0
CLASS
  1
IMAGEDEF
  2
AcDbRasterImageDef
  3
ISM
 90
0
280
0
281
0
  0
CLASS
  1
IMAGEDEF_REACTOR
  2
AcDbRasterImageDefReactor
  3
ISM
 90
1
280
0
281
0
  0
CLASS
  1
DBCOLOR
  2
AcDbColor
  3
ObjectDBX Classes
 90
0
280
0
281
0
  0
CLASS
  1
GEODATA
  2
AcDbGeoData
  3
ObjectDBX Classes
 90
4095
280
0
281
0
  0
CLASS
  1
MULTILEADER
  2
AcDbMLeader
  3
ObjectDBX Classes
 90
1025
280
0
281
0
  0
CLASS
  1
PDFUNDERLAY
  2
AcDbPdfReference
  3
ObjectDBX Classes
 90
4095
280
0
281
1
  0
CLASS
  1
PDFDEFINITION
  2
AcDbPdfDefinition
  3
ObjectDBX Classes
 90
1153
280
0
281
0
  0
CLASS
  1
RASTERVARIABLES
  2
AcDbRasterVariables
  3
ISM
 90
0
280
0
281
0
  0
CLASS
  1
SPATIAL_FILTER
  2
AcDbSpatialFilter
  3
ObjectDBX Classes
 90
0
280
0
281
0
  0
CLASS
  1
ACDB_MLEADEROBJECTCONTEXTDATA_CLASS
  2
AcDbMLeaderObjectContextData
  3
ObjectDBX Classes
 90
1025
280
0
281
0
  0
CLASS
  1
PLOTSETTINGS
  2
AcDbPlotSettings
  3
ObjectDBX Classes
 90
0
280
0
281
0
  0
CLASS
  1
FIELD
  2
AcDbField
  3
ObjectDBX Classes
 90
1152
280
0
281
0
  0
CLASS
  1
FIELDLIST
  2
AcDbFieldList
  3
ObjectDBX Classes
 90
1152
280
0
281
0
  0
CLASS
  1
ACDB_MTEXTATTRIBUTEOBJECTCONTEXTDATA_CLASS
  2
AcDbMTextAttributeObjectContextData
  3
ObjectDBX Classes
 90
1153
280
0
281
0
  0
CLASS
  1
ACDB_BLKREFOBJECTCONTEXTDATA_CLASS
  2
AcDbBlkRefObjectContextData
  3
ObjectDBX Classes
 90
1153
280
0
281
0
  0
ENDSEC
  0
SECTION
  2
TABLES
  0
TABLE
  2
VPORT
  5
A
330
0
100
AcDbSymbolTable
 70
1
  0
VPORT
  5
18
330
A
100
AcDbSymbolTableRecord
100
AcDbViewportTableRecord
  2
*Active
 70
0
 10
0.0
 20
0.0
 11
1.0
 21
1.0
 12
0.0
 22
0.0
 13
0.0
 23
0.0
 14
0.5
 24
0.5
 15
10.0
 25
10.0
 16
0.0
 26
0.0
 36
1.0
 17
0.0
 27
0.0
 37
0.0
 40
10.0
 41
1.0
 75
0
 76
1
  0
ENDTAB
  0
TABLE
  2
LTYPE
  5
6
330
0
100
AcDbSymbolTable
 70
3
  0
LTYPE
  5
B
330
6
100
AcDbSymbolTableRecord
100
AcDbLinetypeTableRecord
  2
ByLayer
 70
0
 72
0
 73
0
 40
0.0
  0
LTYPE
  5
C
330
6
100
AcDbSymbolTableRecord
100
AcDbLinetypeTableRecord
  2
ByBlock
 70
0
 72
0
 73
0
 40
0.0
  0
LTYPE
  5
D
330
6
100
AcDbSymbolTableRecord
100
AcDbLinetypeTableRecord
  2
Continuous
 70
0
 72
0
 73
0
 40
0.0
  0
ENDTAB
  0
TABLE
  2
LAYER
  5
5
330
0
100
AcDbSymbolTable
 70
1
  0
LAYER
  5
E
330
5
100
AcDbSymbolTableRecord
100
AcDbLayerTableRecord
  2
0
 70
0
 62
7
  6
Continuous
290
1
370
-3
390
0
  0
ENDTAB
  0
TABLE
  2
STYLE
  5
7
330
0
100
AcDbSymbolTable
 70
1
  0
STYLE
  5
15
330
7
100
AcDbSymbolTableRecord
100
AcDbTextStyleTableRecord
  2
Standard
 70
0
 40
0.0
 41
1.0
 42
0.0
 50
0.0
 71
0
  0
ENDTAB
  0
TABLE
  2
VIEW
  5
9
330
0
100
AcDbSymbolTable
 70
0
  0
ENDTAB
  0
TABLE
  2
UCS
  5
8
330
0
100
AcDbSymbolTable
 70
0
  0
ENDTAB
  0
TABLE
  2
APPID
  5
2
330
0
100
AcDbSymbolTable
 70
1
  0
APPID
  5
17
330
2
100
AcDbSymbolTableRecord
100
AcDbRegAppTableRecord
  2
ACAD
 70
0
  0
ENDTAB
  0
TABLE
  2
DIMSTYLE
  5
4
330
0
100
AcDbSymbolTable
 70
1
100
AcDbDimStyleTable
  0
DIMSTYLE
105
16
330
4
100
AcDbSymbolTableRecord
100
AcDbDimStyleTableRecord
  2
Standard
 70
0
  3
<>
  4
[]
 40
1.0
 41
0.18
 42
0.625
 43
3.75
 44
1.25
 45
0.0
 46
0.0
 47
0.0
 48
0.0
 49
1.0
 50
0.7853981633974483
 70
0
 90
0
140
0.18
141
0.09
142
0.0
143
25.3999999999999986
144
1.0
145
0.0
146
1.0
147
0.625
148
0.0
 71
0
 72
0
 73
0
 74
0
 75
0
 76
0
 77
1
 78
8
 79
0
170
0
171
3
172
0
173
1
174
0
175
0
176
0
177
0
178
0
179
0
271
2
272
2
273
2
274
3
275
0
276
0
277
2
278
46
279
0
280
0
281
0
282
0
283
0
284
8
285
0
286
0
287
0
288
0
289
3
290
0
340
0
371
-2
372
-2
  0
ENDTAB
  0
TABLE
  2
BLOCK_RECORD
  5
3
330
0
100
AcDbSymbolTable
 70
2
  0
BLOCK_RECORD
  5
F
330
3
100
AcDbSymbolTableRecord
100
AcDbBlockTableRecord
  2
*Model_Space
 70
0
 70
0
280
0
281
1
  0
BLOCK_RECORD
  5
12
330
3
100
AcDbSymbolTableRecord
100
AcDbBlockTableRecord
  2
*Paper_Space
 70
0
 70
0
280
0
281
1
  0
ENDTAB
  0
ENDSEC
  0
SECTION
  2
BLOCKS
  0
BLOCK
  5
10
330
F
100
AcDbEntity
  8
0
  6
ByLayer
 62
256
 48
1.0
 60
0
370
-1
100
AcDbBlockBegin
  2
*Model_Space
 70
0
 10
0.0
 20
0.0
 30
0.0
  3
*Model_Space
  0
ENDBLK
  5
11
330
F
100
AcDbEntity
  8
0
100
AcDbBlockEnd
  0
BLOCK
  5
13
330
12
100
AcDbEntity
  8
0
  6
ByLayer
 62
256
 48
1.0
 60
0
370
-1
100
AcDbBlockBegin
  2
*Paper_Space
 70
0
 10
0.0
 20
0.0
 30
0.0
  3
*Paper_Space
  0
ENDBLK
  5
14
330
12
100
AcDbEntity
  8
0
100
AcDbBlockEnd
  0
ENDSEC
  0
SECTION
  2
ENTITIES
  0
TEXT
  5
19
330
F
100
AcDbEntity
  8
0
  6
ByLayer
420
9375783
 48
1.0
 60
0
370
-1
100
AcDbText
 39
0.0
 10
55.9998124999999902
 20
1513.0
 30
0.0
 40
70.0
  1
CSS
 50
0.0
 41
1.0
 51
0.0
  7
Standard
 71
0
 72
0
 11
0.0
 21
0.0
 31
0.0
210
0.0
220
0.0
230
1.0
100
AcDbText
 73
0
  0
TEXT
  5
1A
330
F
100
AcDbEntity
  8
0
  6
ByLayer
420
9375783
 48
1.0
 60
0
370
-1
100
AcDbText
 39
0.0
 10
55.9998124999999902
 20
1446.5
 30
0.0
 40
70.0
  1
PROPERTY
 50
0.0
 41
1.0
 51
0.0
  7
Standard
 71
0
 72
0
 11
0.0
 21
0.0
 31
0.0
210
0.0
220
0.0
230
1.0
100
AcDbText
 73
0
  0
TEXT
  5
1B
330
F
100
AcDbEntity
  8
0
  6
ByLayer
420
9375783
 48
1.0
 60
0
370
-1
100
AcDbText
 39
0.0
 10
55.9998124999999902
 20
1380.0
 30
0.0
 40
70.0
  1
SUPPORT
 50
0.0
 41
1.0
 51
0.0
  7
Standard
 71
0
 72
0
 11
0.0
 21
0.0
 31
0.0
210
0.0
220
0.0
230
1.0
100
AcDbText
 73
0
  0
TEXT
  5
1C
330
F
100
AcDbEntity
  8
0
  6
ByLayer
 62
256
 48
1.0
 60
0
370
-1
100
AcDbText
 39
0.0
 10
56.0
 20
1322.5
 30
0.0
 40
22.0
  1
A focused demo for visual and text properties,
 50
0.0
 41
1.0
 51
0.0
  7
Standard
 71
0
 72
0
 11
0.0
 21
0.0
 31
0.0
210
0.0
220
0.0
230
1.0
100
AcDbText
 73
0
  0
TEXT
  5
1D
330
F
100
AcDbEntity
  8
0
  6
ByLayer
 62
256
 48
1.0
 60
0
370
-1
100
AcDbText
 39
0.0
 10
56.0
 20
1288.40625
 30
0.0
 40
22.0
  1
including transformed boxes, mixed compositing,
 50
0.0
 41
1.0
 51
0.0
  7
Standard
 71
0
 72
0
 11
0.0
 21
0.0
 31
0.0
210
0.0
220
0.0
230
1.0
100
AcDbText
 73
0
  0
TEXT
  5
1E
330
F
100
AcDbEntity
  8
0
  6
ByLayer
 62
256
 48
1.0
 60
0
370
-1
100
AcDbText
 39
0.0
 10
56.0
 20
1254.3125
 30
0.0
 40
22.0
  1
masking, ellipsis, vertical writing, and whitespace-
 50
0.0
 41
1.0
 51
0.0
  7
Standard
 71
0
 72
0
 11
0.0
 21
0.0
 31
0.0
210
0.0
220
0.0
230
1.0
100
AcDbText
 73
0
  0
TEXT
  5
1F
330
F
100
AcDbEntity
  8
0
  6
ByLayer
 62
256
 48
1.0
 60
0
370
-1
100
AcDbText
 39
0.0
 10
56.0
 20
1220.21875
 30
0.0
 40
22.0
  1
sensitive text.
 50
0.0
 41
1.0
 51
0.0
  7
Standard
 71
0
 72
0
 11
0.0
 21
0.0
 31
0.0
210
0.0
220
0.0
230
1.0
100
AcDbText
 73
0
  0
TEXT
  5
20
330
F
100
AcDbEntity
  8
0
  6
ByLayer
420
1454671
 48
1.0
 60
0
370
-1
100
AcDbText
 39
0.0
 10
902.9999504089355469
 20
1541.0
 30
0.0
 40
14.0
  1
OUTLINE
 50
0.0
 41
1.0
 51
0.0
  7
Standard
 71
0
 72
0
 11
0.0
 21
0.0
 31
0.0
210
0.0
220
0.0
230
1.0
100
AcDbText
 73
0
  0
TEXT
  5
21
330
F
100
AcDbEntity
  8
0
  6
ByLayer
420
1454671
 48
1.0
 60
0
370
-1
100
AcDbText
 39
0.0
 10
1022.0000381469726563
 20
1541.0
 30
0.0
 40
14.0
  1
FILTER
 50
0.0
 41
1.0
 51
0.0
  7
Standard
 71
0
 72
0
 11
0.0
 21
0.0
 31
0.0
210
0.0
220
0.0
230
1.0
100
AcDbText
 73
0
  0
TEXT
  5
22
330
F
100
AcDbEntity
  8
0
  6
ByLayer
420
1454671
 48
1.0
 60
0
370
-1
100
AcDbText
 39
0.0
 10
1122.0000133514404297
 20
1541.0
 30
0.0
 40
14.0
  1
MIX-BLEND-MODE
 50
0.0
 41
1.0
 51
0.0
  7
Standard
 71
0
 72
0
 11
0.0
 21
0.0
 31
0.0
210
0.0
220
0.0
230
1.0
100
AcDbText
 73
0
  0
TEXT
  5
23
330
F
100
AcDbEntity
  8
0
  6
ByLayer
420
1454671
 48
1.0
 60
0
370
-1
100
AcDbText
 39
0.0
 10
1318.9999752044677734
 20
1541.0
 30
0.0
 40
14.0
  1
MASK
 50
0.0
 41
1.0
 51
0.0
  7
Standard
 71
0
 72
0
 11
0.0
 21
0.0
 31
0.0
210
0.0
220
0.0
230
1.0
100
AcDbText
 73
0
  0
TEXT
  5
24
330
F
100
AcDbEntity
  8
0
  6
ByLayer
420
1454671
 48
1.0
 60
0
370
-1
100
AcDbText
 39
0.0
 10
1052.9999752044677734
 20
1491.0
 30
0.0
 40
14.0
  1
WRITING-MODE
 50
0.0
 41
1.0
 51
0.0
  7
Standard
 71
0
 72
0
 11
0.0
 21
0.0
 31
0.0
210
0.0
220
0.0
230
1.0
100
AcDbText
 73
0
  0
TEXT
  5
25
330
F
100
AcDbEntity
  8
0
  6
ByLayer
420
1454671
 48
1.0
 60
0
370
-1
100
AcDbText
 39
0.0
 10
1229.9999618530273438
 20
1491.0
 30
0.0
 40
14.0
  1
TEXT-OVERFLOW
 50
0.0
 41
1.0
 51
0.0
  7
Standard
 71
0
 72
0
 11
0.0
 21
0.0
 31
0.0
210
0.0
220
0.0
230
1.0
100
AcDbText
 73
0
  0
TEXT
  5
26
330
F
100
AcDbEntity
  8
0
  6
ByLayer
420
1454671
 48
1.0
 60
0
370
-1
100
AcDbText
 39
0.0
 10
84.0
 20
1113.0
 30
0.0
 40
30.0
  1
VISUAL PROPERTIES
 50
0.0
 41
1.0
 51
0.0
  7
Standard
 71
0
 72
0
 11
0.0
 21
0.0
 31
0.0
210
0.0
220
0.0
230
1.0
100
AcDbText
 73
0
  0
HATCH
  5
27
330
F
100
AcDbEntity
  8
0
  6
ByLayer
420
16763450
 48
1.0
 60
0
370
-1
100
AcDbHatch
 30
0.0
210
0.0
220
0.0
230
1.0
  2
SOLID
 70
1
 71
0
 91
1
 92
2
 72
0
 73
1
 93
20
 10
129.0228153616364182
 20
1000.017056799140164
 10
131.1833027832379912
 20
1012.5031472195177003
 10
136.6875804096790716
 20
1021.9784752797907004
 10
145.5356482409597447
 20
1028.4430409799588233
 10
157.7275062770799536
 20
1031.8968443200224101
 10
359.7421737229200289
 20
1060.2881356799775858
 10
371.8118836792447723
 20
1060.2440711199337784
 10
380.2935072711391058
 20
1056.2150331197794912
 10
385.1870444986029725
 20
1048.2010216795149518
 10
386.4924953616363723
 20
1036.2020367991401599
 10
382.6350490383636043
 20
925.7390832008597954
 10
380.4745616167620028
 20
913.2529927804821455
 10
374.9702839903209224
 20
903.777664720209259
 10
366.1222161590402493
 20
897.3130990200410224
 10
353.9303581229200404
 20
893.8592956799774356
 10
151.9156906770799651
 20
865.4680043200224873
 10
139.8459807207552217
 20
865.5120688800664084
 10
131.3643571288608882
 20
869.5411068802204682
 10
126.4708199013970074
 20
877.5551183204850076
 10
125.1653690383635791
 20
889.5541032008597995
 97
0
 75
0
 76
1
 47
0.0
 98
0
  0
LWPOLYLINE
  5
28
330
F
100
AcDbEntity
  8
0
  6
ByLayer
420
16763450
 48
1.0
 60
0
370
-1
100
AcDbPolyline
 90
20
 70
1
 43
0.0
 38
0.0
 39
0.0
210
0.0
220
0.0
230
1.0
 10
129.0228153616364182
 20
1000.017056799140164
 40
0.0
 41
0.0
 42
0.0
 10
131.1833027832379912
 20
1012.5031472195177003
 40
0.0
 41
0.0
 42
0.0
 10
136.6875804096790716
 20
1021.9784752797907004
 40
0.0
 41
0.0
 42
0.0
 10
145.5356482409597447
 20
1028.4430409799588233
 40
0.0
 41
0.0
 42
0.0
 10
157.7275062770799536
 20
1031.8968443200224101
 40
0.0
 41
0.0
 42
0.0
 10
359.7421737229200289
 20
1060.2881356799775858
 40
0.0
 41
0.0
 42
0.0
 10
371.8118836792447723
 20
1060.2440711199337784
 40
0.0
 41
0.0
 42
0.0
 10
380.2935072711391058
 20
1056.2150331197794912
 40
0.0
 41
0.0
 42
0.0
 10
385.1870444986029725
 20
1048.2010216795149518
 40
0.0
 41
0.0
 42
0.0
 10
386.4924953616363723
 20
1036.2020367991401599
 40
0.0
 41
0.0
 42
0.0
 10
382.6350490383636043
 20
925.7390832008597954
 40
0.0
 41
0.0
 42
0.0
 10
380.4745616167620028
 20
913.2529927804821455
 40
0.0
 41
0.0
 42
0.0
 10
374.9702839903209224
 20
903.777664720209259
 40
0.0
 41
0.0
 42
0.0
 10
366.1222161590402493
 20
897.3130990200410224
 40
0.0
 41
0.0
 42
0.0
 10
353.9303581229200404
 20
893.8592956799774356
 40
0.0
 41
0.0
 42
0.0
 10
151.9156906770799651
 20
865.4680043200224873
 40
0.0
 41
0.0
 42
0.0
 10
139.8459807207552217
 20
865.5120688800664084
 40
0.0
 41
0.0
 42
0.0
 10
131.3643571288608882
 20
869.5411068802204682
 40
0.0
 41
0.0
 42
0.0
 10
126.4708199013970074
 20
877.5551183204850076
 40
0.0
 41
0.0
 42
0.0
 10
125.1653690383635791
 20
889.5541032008597995
 40
0.0
 41
0.0
 42
0.0
  0
TEXT
  5
29
330
F
100
AcDbEntity
  8
0
  6
ByLayer
420
16777215
 48
1.0
 60
0
370
-1
100
AcDbText
 39
0.0
 10
25.9697916030476605
 20
990.2608665178669298
 30
0.0
 40
28.0
  1
OUTLINE +
 50
7.9999948198565569
 41
1.0
 51
0.0
  7
Standard
 71
0
 72
0
 11
0.0
 21
0.0
 31
0.0
210
0.0
220
0.0
230
1.0
100
AcDbText
 73
0
  0
TEXT
  5
2A
330
F
100
AcDbEntity
  8
0
  6
ByLayer
420
16777215
 48
1.0
 60
0
370
-1
100
AcDbText
 39
0.0
 10
24.9775293271254775
 20
961.8462655027635719
 30
0.0
 40
28.0
  1
FILTER
 50
7.9999948198565249
 41
1.0
 51
0.0
  7
Standard
 71
0
 72
0
 11
0.0
 21
0.0
 31
0.0
210
0.0
220
0.0
230
1.0
100
AcDbText
 73
0
  0
HATCH
  5
2B
330
F
100
AcDbEntity
  8
0
  6
ByLayer
420
1149618
 48
1.0
 60
0
370
-1
100
AcDbHatch
 30
0.0
210
0.0
220
0.0
230
1.0
  2
SOLID
 70
1
 71
0
 91
1
 92
2
 72
0
 73
1
 93
20
 10
474.4403588751311531
 20
970.1065482852951618
 10
475.1160425994303296
 20
982.462455840174357
 10
479.5834526474589552
 20
991.6367267901065361
 10
487.8425890192171437
 20
997.6293611350922674
 10
499.8934517147047814
 20
1000.44035887513121
 10
683.1933482852952011
 20
1016.4770091248688004
 10
695.5492558401742826
 20
1015.8013254005696808
 10
704.7235267901065754
 20
1011.3339153525409984
 10
710.7161611350923067
 20
1003.0747789807828667
 10
713.5271588751312493
 20
991.0239162852951722
 10
721.7197961248688216
 20
897.381569714704824
 10
721.044112400569702
 20
885.0256621598257425
 10
716.5767023525410195
 20
875.8513912098933361
 10
708.3175659807827742
 20
869.8587568649077184
 10
696.2667032852951934
 20
867.0477591248687759
 10
512.9668067147048305
 20
851.0111088751311854
 10
500.6108991598257489
 20
851.6867925994304187
 10
491.4366282098934562
 20
856.1542026474589875
 10
485.4439938649077817
 20
864.4133390192171191
 10
482.6329961248688392
 20
876.4642017147048136
 97
0
 75
0
 76
1
 47
0.0
 98
0
  0
LWPOLYLINE
  5
2C
330
F
100
AcDbEntity
  8
0
  6
ByLayer
420
1149618
 48
1.0
 60
0
370
-1
100
AcDbPolyline
 90
20
 70
1
 43
0.0
 38
0.0
 39
0.0
210
0.0
220
0.0
230
1.0
 10
474.4403588751311531
 20
970.1065482852951618
 40
0.0
 41
0.0
 42
0.0
 10
475.1160425994303296
 20
982.462455840174357
 40
0.0
 41
0.0
 42
0.0
 10
479.5834526474589552
 20
991.6367267901065361
 40
0.0
 41
0.0
 42
0.0
 10
487.8425890192171437
 20
997.6293611350922674
 40
0.0
 41
0.0
 42
0.0
 10
499.8934517147047814
 20
1000.44035887513121
 40
0.0
 41
0.0
 42
0.0
 10
683.1933482852952011
 20
1016.4770091248688004
 40
0.0
 41
0.0
 42
0.0
 10
695.5492558401742826
 20
1015.8013254005696808
 40
0.0
 41
0.0
 42
0.0
 10
704.7235267901065754
 20
1011.3339153525409984
 40
0.0
 41
0.0
 42
0.0
 10
710.7161611350923067
 20
1003.0747789807828667
 40
0.0
 41
0.0
 42
0.0
 10
713.5271588751312493
 20
991.0239162852951722
 40
0.0
 41
0.0
 42
0.0
 10
721.7197961248688216
 20
897.381569714704824
 40
0.0
 41
0.0
 42
0.0
 10
721.044112400569702
 20
885.0256621598257425
 40
0.0
 41
0.0
 42
0.0
 10
716.5767023525410195
 20
875.8513912098933361
 40
0.0
 41
0.0
 42
0.0
 10
708.3175659807827742
 20
869.8587568649077184
 40
0.0
 41
0.0
 42
0.0
 10
696.2667032852951934
 20
867.0477591248687759
 40
0.0
 41
0.0
 42
0.0
 10
512.9668067147048305
 20
851.0111088751311854
 40
0.0
 41
0.0
 42
0.0
 10
500.6108991598257489
 20
851.6867925994304187
 40
0.0
 41
0.0
 42
0.0
 10
491.4366282098934562
 20
856.1542026474589875
 40
0.0
 41
0.0
 42
0.0
 10
485.4439938649077817
 20
864.4133390192171191
 40
0.0
 41
0.0
 42
0.0
 10
482.6329961248688392
 20
876.4642017147048136
 40
0.0
 41
0.0
 42
0.0
  0
TEXT
  5
2D
330
F
100
AcDbEntity
  8
0
  6
ByLayer
420
16777215
 48
1.0
 60
0
370
-1
100
AcDbText
 39
0.0
 10
377.7597993132434908
 20
973.6939662472487953
 30
0.0
 40
28.0
  1
BASE
 50
4.9999960524349047
 41
1.0
 51
0.0
  7
Standard
 71
0
 72
0
 11
0.0
 21
0.0
 31
0.0
210
0.0
220
0.0
230
1.0
100
AcDbText
 73
0
  0
TEXT
  5
2E
330
F
100
AcDbEntity
  8
0
  6
ByLayer
420
16777215
 48
1.0
 60
0
370
-1
100
AcDbText
 39
0.0
 10
380.2001671277560604
 20
945.8004630184435655
 30
0.0
 40
28.0
  1
LAYER
 50
4.9999960524349047
 41
1.0
 51
0.0
  7
Standard
 71
0
 72
0
 11
0.0
 21
0.0
 31
0.0
210
0.0
220
0.0
230
1.0
100
AcDbText
 73
0
  0
TEXT
  5
2F
330
F
100
AcDbEntity
  8
0
  6
ByLayer
420
16777215
 48
1.0
 60
0
370
-1
100
AcDbText
 39
0.0
 10
457.3299771676349224
 20
923.38181517045291
 30
0.0
 40
28.0
  1
BLEND
 50
-2.0000062499575701
 41
1.0
 51
0.0
  7
Standard
 71
0
 72
0
 11
0.0
 21
0.0
 31
0.0
210
0.0
220
0.0
230
1.0
100
AcDbText
 73
0
  0
TEXT
  5
30
330
F
100
AcDbEntity
  8
0
  6
ByLayer
420
16777215
 48
1.0
 60
0
370
-1
100
AcDbText
 39
0.0
 10
945.0512806005966695
 20
855.2093443368098633
 30
0.0
 40
28.0
  1
MASKED
 50
-6.9999815298408299
 41
1.0
 51
0.0
  7
Standard
 71
0
 72
0
 11
0.0
 21
0.0
 31
0.0
210
0.0
220
0.0
230
1.0
100
AcDbText
 73
0
  0
TEXT
  5
31
330
F
100
AcDbEntity
  8
0
  6
ByLayer
420
1454671
 48
1.0
 60
0
370
-1
100
AcDbText
 39
0.0
 10
84.0
 20
610.0
 30
0.0
 40
30.0
  1
TEXT PROPERTIES
 50
0.0
 41
1.0
 51
0.0
  7
Standard
 71
0
 72
0
 11
0.0
 21
0.0
 31
0.0
210
0.0
220
0.0
230
1.0
100
AcDbText
 73
0
  0
TEXT
  5
32
330
F
100
AcDbEntity
  8
0
  6
ByLayer
 62
256
 48
1.0
 60
0
370
-1
100
AcDbText
 39
0.0
 10
107.9995624999864958
 20
547.0
 30
0.0
 40
14.0
  1
TYPOGRAPHY STACK
 50
0.0
 41
1.0
 51
0.0
  7
Standard
 71
0
 72
0
 11
0.0
 21
0.0
 31
0.0
210
0.0
220
0.0
230
1.0
100
AcDbText
 73
0
  0
TEXT
  5
33
330
F
100
AcDbEntity
  8
0
  6
ByLayer
420
6953805
 48
1.0
 60
0
370
-1
100
AcDbText
 39
0.0
 10
-39.8409828003188125
 20
562.3055350689248826
 30
0.0
 40
30.0
  1
MUSEUM COPY
 50
3.0000011085596192
 41
1.0
 51
0.0
  7
Standard
 71
0
 72
0
 11
0.0
 21
0.0
 31
0.0
210
0.0
220
0.0
230
1.0
100
AcDbText
 73
0
  0
TEXT
  5
34
330
F
100
AcDbEntity
  8
0
  6
ByLayer
420
6953805
 48
1.0
 60
0
370
-1
100
AcDbText
 39
0.0
 10
-101.3458298201959877
 20
513.0191131921455963
 30
0.0
 40
30.0
  1
LEANS INTO RHYTHM 
 50
3.0000011085596263
 41
1.0
 51
0.0
  7
Standard
 71
0
 72
0
 11
0.0
 21
0.0
 31
0.0
210
0.0
220
0.0
230
1.0
100
AcDbText
 73
0
  0
TEXT
  5
35
330
F
100
AcDbEntity
  8
0
  6
ByLayer
420
6953805
 48
1.0
 60
0
370
-1
100
AcDbText
 39
0.0
 10
318.0785415655128077
 20
535.0002223216263246
 30
0.0
 40
30.0
  1
AND SPACING
 50
3.0000011085595921
 41
1.0
 51
0.0
  7
Standard
 71
0
 72
0
 11
0.0
 21
0.0
 31
0.0
210
0.0
220
0.0
230
1.0
100
AcDbText
 73
0
  0
TEXT
  5
36
330
F
100
AcDbEntity
  8
0
  6
ByLayer
420
8344889
 48
1.0
 60
0
370
-1
100
AcDbText
 39
0.0
 10
-46.9924511009018104
 20
380.5204824084084976
 30
0.0
 40
22.0
  1
This sentence intentionally…
 50
-4.0000017015624163
 41
1.0
 51
0.0
  7
Standard
 71
0
 72
0
 11
0.0
 21
0.0
 31
0.0
210
0.0
220
0.0
230
1.0
100
AcDbText
 73
0
  0
TEXT
  5
37
330
F
100
AcDbEntity
  8
0
  6
ByLayer
 62
256
 48
1.0
 60
0
370
-1
100
AcDbText
 39
0.0
 10
851.0004375000135042
 20
547.0
 30
0.0
 40
14.0
  1
WRAPPING AND DIRECTION
 50
0.0
 41
1.0
 51
0.0
  7
Standard
 71
0
 72
0
 11
0.0
 21
0.0
 31
0.0
210
0.0
220
0.0
230
1.0
100
AcDbText
 73
0
  0
TEXT
  5
38
330
F
100
AcDbEntity
  8
0
  6
ByLayer
420
2508371
 48
1.0
 60
0
370
-1
100
AcDbText
 39
0.0
 10
702.3924900156665672
 20
573.4934101533365265
 30
0.0
 40
22.0
  1
WrapThisAbsurdlyLongToken
 50
-1.9999998429261663
 41
1.0
 51
0.0
  7
Standard
 71
0
 72
0
 11
0.0
 21
0.0
 31
0.0
210
0.0
220
0.0
230
1.0
100
AcDbText
 73
0
  0
TEXT
  5
39
330
F
100
AcDbEntity
  8
0
  6
ByLayer
420
2508371
 48
1.0
 60
0
370
-1
100
AcDbText
 39
0.0
 10
701.2795128764827268
 20
541.6222248296353428
 30
0.0
 40
22.0
  1
WithoutAnyMercyBecauseWo
 50
-1.9999998429261427
 41
1.0
 51
0.0
  7
Standard
 71
0
 72
0
 11
0.0
 21
0.0
 31
0.0
210
0.0
220
0.0
230
1.0
100
AcDbText
 73
0
  0
TEXT
  5
3A
330
F
100
AcDbEntity
  8
0
  6
ByLayer
420
2508371
 48
1.0
 60
0
370
-1
100
AcDbText
 39
0.0
 10
700.1665354096621741
 20
509.7510488882251138
 30
0.0
 40
22.0
  1
rdBreakAndOverflowWrapSh
 50
-1.9999998429261463
 41
1.0
 51
0.0
  7
Standard
 71
0
 72
0
 11
0.0
 21
0.0
 31
0.0
210
0.0
220
0.0
230
1.0
100
AcDbText
 73
0
  0
TEXT
  5
3B
330
F
100
AcDbEntity
  8
0
  6
ByLayer
420
2508371
 48
1.0
 60
0
370
-1
100
AcDbText
 39
0.0
 10
699.0535589057238894
 20
477.8798453734696068
 30
0.0
 40
22.0
  1
ouldStillPreserveTheLayout.
 50
-1.9999998429261479
 41
1.0
 51
0.0
  7
Standard
 71
0
 72
0
 11
0.0
 21
0.0
 31
0.0
210
0.0
220
0.0
230
1.0
100
AcDbText
 73
0
  0
TEXT
  5
3C
330
F
100
AcDbEntity
  8
0
  6
ByLayer
420
1454671
 48
1.0
 60
0
370
-1
100
AcDbText
 39
0.0
 10
889.1069088888719989
 20
380.4589616812706936
 30
0.0
 40
26.0
  1
RTL FLOW
 50
-5.9999729754834759
 41
1.0
 51
0.0
  7
Standard
 71
0
 72
0
 11
0.0
 21
0.0
 31
0.0
210
0.0
220
0.0
230
1.0
100
AcDbText
 73
0
  0
TEXT
  5
3D
330
F
100
AcDbEntity
  8
0
  6
ByLayer
420
4014171
 48
1.0
 60
0
370
-1
100
AcDbText
 39
0.0
 10
1011.0004374999999754
 20
304.5000500000001011
 30
0.0
 40
18.0
  1
white-space: pre-wrap
 50
0.0
 41
1.0
 51
0.0
  7
Standard
 71
0
 72
0
 11
0.0
 21
0.0
 31
0.0
210
0.0
220
0.0
230
1.0
100
AcDbText
 73
0
  0
TEXT
  5
3E
330
F
100
AcDbEntity
  8
0
  6
ByLayer
420
4014171
 48
1.0
 60
0
370
-1
100
AcDbText
 39
0.0
 10
1011.0004374999999754
 20
276.6094250000001011
 30
0.0
 40
18.0
  1
keeps   deliberate gaps
 50
0.0
 41
1.0
 51
0.0
  7
Standard
 71
0
 72
0
 11
0.0
 21
0.0
 31
0.0
210
0.0
220
0.0
230
1.0
100
AcDbText
 73
0
  0
TEXT
  5
3F
330
F
100
AcDbEntity
  8
0
  6
ByLayer
420
4014171
 48
1.0
 60
0
370
-1
100
AcDbText
 39
0.0
 10
1011.0004374999999754
 20
248.7188000000001011
 30
0.0
 40
18.0
  1
and carries line breaks 
 50
0.0
 41
1.0
 51
0.0
  7
Standard
 71
0
 72
0
 11
0.0
 21
0.0
 31
0.0
210
0.0
220
0.0
230
1.0
100
AcDbText
 73
0
  0
TEXT
  5
40
330
F
100
AcDbEntity
  8
0
  6
ByLayer
420
4014171
 48
1.0
 60
0
370
-1
100
AcDbText
 39
0.0
 10
1259.4535624999998618
 20
248.7188000000001011
 30
0.0
 40
18.0
  1
forward.
 50
0.0
 41
1.0
 51
0.0
  7
Standard
 71
0
 72
0
 11
0.0
 21
0.0
 31
0.0
210
0.0
220
0.0
230
1.0
100
AcDbText
 73
0
  0
ENDSEC
  0
SECTION
  2
OBJECTS
  0
DICTIONARY
  5
1
330
0
100
AcDbDictionary
280
0
281
0
  3
ACAD_COLOR
350
0
  3
ACAD_GROUP
350
0
  3
ACAD_LAYOUT
350
0
  3
ACAD_MATERIAL
350
0
  3
ACAD_SORTENTS
350
0
  3
ACAD_MLEADERSTYLE
350
0
  3
ACAD_MLINESTYLE
350
0
  3
ACAD_TABLESTYLE
350
0
  3
ACAD_PLOTSETTINGS
350
0
  3
AcDbVariableDictionary
350
0
  3
ACAD_SCALELIST
350
0
  3
ACAD_VISUALSTYLE
350
0
  3
ACAD_FIELDLIST
350
0
  3
ACAD_IMAGE_DICT
350
0
  0
DICTIONARY
  5
0
330
1
100
AcDbDictionary
280
0
281
0
  0
DICTIONARY
  5
0
330
1
100
AcDbDictionary
280
0
281
0
  0
DICTIONARY
  5
0
330
1
100
AcDbDictionary
280
0
281
0
  0
DICTIONARY
  5
0
330
1
100
AcDbDictionary
280
0
281
0
  0
DICTIONARY
  5
0
330
1
100
AcDbDictionary
280
0
281
0
  0
DICTIONARY
  5
0
330
1
100
AcDbDictionary
280
0
281
0
  0
DICTIONARY
  5
0
330
1
100
AcDbDictionary
280
0
281
0
  0
DICTIONARY
  5
0
330
1
100
AcDbDictionary
280
0
281
0
  0
DICTIONARY
  5
0
330
1
100
AcDbDictionary
280
0
281
0
  0
DICTIONARY
  5
0
330
1
100
AcDbDictionary
280
0
281
0
  0
DICTIONARY
  5
0
330
1
100
AcDbDictionary
280
0
281
0
  0
DICTIONARY
  5
0
330
1
100
AcDbDictionary
280
0
281
0
  0
DICTIONARY
  5
0
330
1
100
AcDbDictionary
280
0
281
0
  0
DICTIONARY
  5
0
330
1
100
AcDbDictionary
280
0
281
0
  0
ENDSEC
  0
EOF
