0
SECTION
2
HEADER
9
$ACADVER
1
AC1021
9
$LASTSAVEDBY
1
@tarikjabiri/dxf
9
$HANDSEED
5
37
9
$INSUNITS
70
0
9
$CLAYER
8
0
9
$VIEWCTR
10
659.5
20
770.5
0
ENDSEC
0
SECTION
2
CLASSES
0
ENDSEC
0
SECTION
2
TABLES
0
TABLE
2
VPORT
5
1
330
0
100
AcDbSymbolTable
70
1
0
VPORT
5
19
330
1
100
AcDbSymbolTableRecord
100
AcDbViewportTableRecord
2
*Active
70
0
10
0
20
0
11
1
21
1
12
659.5
22
770.5
13
0
23
0
14
10
24
10
15
10
25
10
16
0
26
0
36
1
17
0
27
0
37
0
40
1741
41
2
42
50
43
0
44
0
50
0
51
0
71
0
72
100
73
1
74
3
75
0
76
1
77
0
78
0
281
0
65
1
110
0
120
0
130
0
111
1
121
0
131
0
112
0
122
1
132
0
79
0
146
0
348
10020
60
7
61
5
292
1
282
1
141
0
142
0
63
250
421
3358443
0
ENDTAB
0
TABLE
2
LTYPE
5
2
330
0
100
AcDbSymbolTable
70
3
0
LTYPE
5
12
330
2
100
AcDbSymbolTableRecord
100
AcDbLinetypeTableRecord
2
ByBlock
70
0
3

72
65
73
0
40
0
0
LTYPE
5
13
330
2
100
AcDbSymbolTableRecord
100
AcDbLinetypeTableRecord
2
ByLayer
70
0
3

72
65
73
0
40
0
0
LTYPE
5
14
330
2
100
AcDbSymbolTableRecord
100
AcDbLinetypeTableRecord
2
Continuous
70
0
3
Solid line
72
65
73
0
40
0
0
ENDTAB
0
TABLE
2
LAYER
5
3
330
0
100
AcDbSymbolTable
70
1
0
LAYER
5
15
330
3
100
AcDbSymbolTableRecord
100
AcDbLayerTableRecord
2
0
70
0
62
7
6
Continuous
370
0
390
0
0
ENDTAB
0
TABLE
2
STYLE
5
4
330
0
100
AcDbSymbolTable
70
5
0
STYLE
5
16
330
4
100
AcDbSymbolTableRecord
100
AcDbTextStyleTableRecord
2
Standard
70
0
40
0
41
1
50
0
71
0
42
1
3
txt
4

0
STYLE
5
1B
330
4
100
AcDbSymbolTableRecord
100
AcDbTextStyleTableRecord
2
Georgia
70
0
40
0
41
1
50
0
71
0
42
1
3
Georgia.ttf
4

0
STYLE
5
1D
330
4
100
AcDbSymbolTableRecord
100
AcDbTextStyleTableRecord
2
Aptos
70
0
40
0
41
1
50
0
71
0
42
1
3
Aptos.ttf
4

0
STYLE
5
1F
330
4
100
AcDbSymbolTableRecord
100
AcDbTextStyleTableRecord
2
Segoe UI
70
0
40
0
41
1
50
0
71
0
42
1
3
Segoe UI.ttf
4

0
STYLE
5
36
330
4
100
AcDbSymbolTableRecord
100
AcDbTextStyleTableRecord
2
Courier New
70
0
40
0
41
1
50
0
71
0
42
1
3
Courier New.ttf
4

0
ENDTAB
0
TABLE
2
VIEW
5
5
330
0
100
AcDbSymbolTable
70
0
0
ENDTAB
0
TABLE
2
UCS
5
6
330
0
100
AcDbSymbolTable
70
0
0
ENDTAB
0
TABLE
2
APPID
5
7
330
0
100
AcDbSymbolTable
70
1
0
APPID
5
17
330
7
100
AcDbSymbolTableRecord
100
AcDbRegAppTableRecord
2
ACAD
70
0
0
ENDTAB
0
TABLE
2
DIMSTYLE
5
8
330
0
100
AcDbSymbolTable
70
1
100
AcDbDimStyleTable
0
DIMSTYLE
105
18
330
8
100
AcDbSymbolTableRecord
100
AcDbDimStyleTableRecord
2
Standard
70
0
340
16
0
ENDTAB
0
TABLE
2
BLOCK_RECORD
5
9
330
0
100
AcDbSymbolTable
70
2
0
BLOCK_RECORD
5
C
330
9
100
AcDbSymbolTableRecord
100
AcDbBlockTableRecord
2
*Model_Space
70
0
280
1
281
0
0
BLOCK_RECORD
5
F
330
9
100
AcDbSymbolTableRecord
100
AcDbBlockTableRecord
2
*Paper_Space
70
0
280
1
281
0
0
ENDTAB
0
ENDSEC
0
SECTION
2
BLOCKS
0
BLOCK
5
D
330
C
100
AcDbEntity
8
0
100
AcDbBlockBegin
2
*Model_Space
70
0
10
0
20
0
30
0
3
*Model_Space
1

0
ENDBLK
5
E
100
AcDbEntity
8
0
100
AcDbBlockEnd
0
BLOCK
5
10
330
F
100
AcDbEntity
8
0
100
AcDbBlockBegin
2
*Paper_Space
70
0
10
0
20
0
30
0
3
*Paper_Space
1

0
ENDBLK
5
11
100
AcDbEntity
8
0
100
AcDbBlockEnd
0
ENDSEC
0
SECTION
2
ENTITIES
0
TEXT
5
1A
330
C
100
AcDbEntity
420
9375783
8
0
100
AcDbText
10
56
20
1446.5
30
0
40
70
1
CSS PROPERTY SUPPORT
7
Georgia
100
AcDbText
0
TEXT
5
1C
330
C
100
AcDbEntity
8
0
100
AcDbText
10
56
20
1271.5
30
0
40
22
1
A focused demo for visual and text properties, including transformed boxes, mixed compositing, masking, ellipsis, vertical writing, and whitespace-sensitive text.
7
Aptos
100
AcDbText
0
TEXT
5
1E
330
C
100
AcDbEntity
420
1454671
8
0
100
AcDbText
10
903
20
1541
30
0
40
14
1
OUTLINE
7
Segoe UI
100
AcDbText
0
TEXT
5
20
330
C
100
AcDbEntity
420
1454671
8
0
100
AcDbText
10
1022
20
1541
30
0
40
14
1
FILTER
7
Segoe UI
100
AcDbText
0
TEXT
5
21
330
C
100
AcDbEntity
420
1454671
8
0
100
AcDbText
10
1122
20
1541
30
0
40
14
1
MIX-BLEND-MODE
7
Segoe UI
100
AcDbText
0
TEXT
5
22
330
C
100
AcDbEntity
420
1454671
8
0
100
AcDbText
10
1319
20
1541
30
0
40
14
1
MASK
7
Segoe UI
100
AcDbText
0
TEXT
5
23
330
C
100
AcDbEntity
420
1454671
8
0
100
AcDbText
10
1053
20
1491
30
0
40
14
1
WRITING-MODE
7
Segoe UI
100
AcDbText
0
TEXT
5
24
330
C
100
AcDbEntity
420
1454671
8
0
100
AcDbText
10
1230
20
1491
30
0
40
14
1
TEXT-OVERFLOW
7
Segoe UI
100
AcDbText
0
TEXT
5
25
330
C
100
AcDbEntity
420
1454671
8
0
100
AcDbText
10
84
20
1113
30
0
40
30
1
VISUAL PROPERTIES
7
Georgia
100
AcDbText
0
HATCH
5
26
330
C
100
AcDbEntity
420
16763450
8
0
100
AcDbHatch
10
0
20
0
30
0
210
0
220
0
230
1
2
SOLID
70
1
71
0
91
1
92
7
72
0
73
1
93
20
10
129.02281536163642
20
1000.0170567991402
10
131.183302783238
20
1012.5031472195177
10
136.68758040967907
20
1021.9784752797907
10
145.53564824095974
20
1028.4430409799588
10
157.72750627707995
20
1031.8968443200224
10
359.74217372292003
20
1060.2881356799776
10
371.8118836792448
20
1060.2440711199338
10
380.2935072711391
20
1056.2150331197795
10
385.187044498603
20
1048.201021679515
10
386.4924953616364
20
1036.2020367991402
10
382.6350490383636
20
925.7390832008598
10
380.474561616762
20
913.2529927804821
10
374.9702839903209
20
903.7776647202093
10
366.12221615904025
20
897.313099020041
10
353.93035812292004
20
893.8592956799774
10
151.91569067707997
20
865.4680043200225
10
139.84598072075522
20
865.5120688800664
10
131.3643571288609
20
869.5411068802205
10
126.47081990139701
20
877.555118320485
10
125.16536903836358
20
889.5541032008598
97
0
75
1
76
1
47
1
98
0
0
LWPOLYLINE
5
27
330
C
100
AcDbEntity
420
16763450
8
0
100
AcDbPolyline
90
21
70
0
43
0
38
0
39
0
10
129.02281536163642
20
1000.0170567991402
10
131.183302783238
20
1012.5031472195177
10
136.68758040967907
20
1021.9784752797907
10
145.53564824095974
20
1028.4430409799588
10
157.72750627707995
20
1031.8968443200224
10
359.74217372292003
20
1060.2881356799776
10
371.8118836792448
20
1060.2440711199338
10
380.2935072711391
20
1056.2150331197795
10
385.187044498603
20
1048.201021679515
10
386.4924953616364
20
1036.2020367991402
10
382.6350490383636
20
925.7390832008598
10
380.474561616762
20
913.2529927804821
10
374.9702839903209
20
903.7776647202093
10
366.12221615904025
20
897.313099020041
10
353.93035812292004
20
893.8592956799774
10
151.91569067707997
20
865.4680043200225
10
139.84598072075522
20
865.5120688800664
10
131.3643571288609
20
869.5411068802205
10
126.47081990139701
20
877.555118320485
10
125.16536903836358
20
889.5541032008598
10
129.02281536163642
20
1000.0170567991402
0
TEXT
5
28
330
C
100
AcDbEntity
420
16777215
8
0
100
AcDbText
10
149.5530910404091
20
910.6856961997851
30
0
40
28
1
OUTLINE + FILTER
50
7.999994819856553
7
Georgia
100
AcDbText
0
HATCH
5
29
330
C
100
AcDbEntity
420
1149618
8
0
100
AcDbHatch
10
0
20
0
30
0
210
0
220
0
230
1
2
SOLID
70
1
71
0
91
1
92
7
72
0
73
1
93
20
10
474.44035887513115
20
970.1065482852952
10
475.11604259943033
20
982.4624558401744
10
479.58345264745896
20
991.6367267901065
10
487.84258901921714
20
997.6293611350923
10
499.8934517147048
20
1000.4403588751312
10
683.1933482852952
20
1016.4770091248688
10
695.5492558401743
20
1015.8013254005697
10
704.7235267901066
20
1011.333915352541
10
710.7161611350923
20
1003.0747789807829
10
713.5271588751312
20
991.0239162852952
10
721.7197961248688
20
897.3815697147048
10
721.0441124005697
20
885.0256621598257
10
716.576702352541
20
875.8513912098933
10
708.3175659807828
20
869.8587568649077
10
696.2667032852952
20
867.0477591248688
10
512.9668067147048
20
851.0111088751312
10
500.61089915982575
20
851.6867925994304
10
491.43662820989346
20
856.154202647459
10
485.4439938649078
20
864.4133390192171
10
482.63299612486884
20
876.4642017147048
97
0
75
1
76
1
47
1
98
0
0
LWPOLYLINE
5
2A
330
C
100
AcDbEntity
420
1149618
8
0
100
AcDbPolyline
90
21
70
0
43
0
38
0
39
0
10
474.44035887513115
20
970.1065482852952
10
475.11604259943033
20
982.4624558401744
10
479.58345264745896
20
991.6367267901065
10
487.84258901921714
20
997.6293611350923
10
499.8934517147048
20
1000.4403588751312
10
683.1933482852952
20
1016.4770091248688
10
695.5492558401743
20
1015.8013254005697
10
704.7235267901066
20
1011.333915352541
10
710.7161611350923
20
1003.0747789807829
10
713.5271588751312
20
991.0239162852952
10
721.7197961248688
20
897.3815697147048
10
721.0441124005697
20
885.0256621598257
10
716.576702352541
20
875.8513912098933
10
708.3175659807828
20
869.8587568649077
10
696.2667032852952
20
867.0477591248688
10
512.9668067147048
20
851.0111088751312
10
500.61089915982575
20
851.6867925994304
10
491.43662820989346
20
856.154202647459
10
485.4439938649078
20
864.4133390192171
10
482.63299612486884
20
876.4642017147048
10
474.44035887513115
20
970.1065482852952
0
TEXT
5
2B
330
C
100
AcDbEntity
420
16777215
8
0
100
AcDbText
10
505.0600283187828
20
895.4912638713238
30
0
40
28
1
BASE LAYER
50
4.999996052434933
7
Georgia
100
AcDbText
0
TEXT
5
2C
330
C
100
AcDbEntity
420
16777215
8
0
100
AcDbText
10
571.8204482581604
20
840.1139494641019
30
0
40
28
1
BLEND
50
-2.000006249957567
7
Georgia
100
AcDbText
0
TEXT
5
2D
330
C
100
AcDbEntity
420
16777215
8
0
100
AcDbText
10
944.6805960184474
20
847.1542901188327
30
0
40
28
1
MASKED
50
-6.999981529840823
7
Georgia
100
AcDbText
0
TEXT
5
2E
330
C
100
AcDbEntity
420
1454671
8
0
100
AcDbText
10
84
20
610
30
0
40
30
1
TEXT PROPERTIES
7
Georgia
100
AcDbText
0
TEXT
5
2F
330
C
100
AcDbEntity
8
0
100
AcDbText
10
108
20
547
30
0
40
14
1
TYPOGRAPHY STACK
7
Segoe UI
100
AcDbText
0
TEXT
5
30
330
C
100
AcDbEntity
420
6953805
8
0
100
AcDbText
10
175.88985581673333
20
458.45362749693527
30
0
40
30
1
MUSEUM COPY
LEANS INTO RHYTHM AND SPACING
50
3.0000011085596294
7
Georgia
100
AcDbText
0
TEXT
5
31
330
C
100
AcDbEntity
420
8344889
8
0
100
AcDbText
10
106.70950473146692
20
356.54506573496474
30
0
40
22
1
This sentence intentionally…
50
-4.000001701562411
7
Segoe UI
100
AcDbText
0
TEXT
5
32
330
C
100
AcDbEntity
8
0
100
AcDbText
10
851
20
547
30
0
40
14
1
WRAPPING AND DIRECTION
7
Segoe UI
100
AcDbText
0
TEXT
5
33
330
C
100
AcDbEntity
420
2508371
8
0
100
AcDbText
10
848.190590283205
20
450.5490254508686
30
0
40
22
1
WrapThisAbsurdlyLongTokenWithoutAnyMercyBecauseWordBreakAndOverflowWrapShouldStillPreserveTheLayout.
50
-1.9999998429261383
7
Segoe UI
100
AcDbText
0
TEXT
5
34
330
C
100
AcDbEntity
420
1454671
8
0
100
AcDbText
10
945.6052020377996
20
248.32954435963984
30
0
40
26
1
RTL FLOW
50
-5.999972975483563
7
Segoe UI
100
AcDbText
0
TEXT
5
35
330
C
100
AcDbEntity
420
4014171
8
0
100
AcDbText
10
1011
20
262.5
30
0
40
18
1
white-space: pre-wrap
keeps   deliberate gaps
and carries line breaks forward.
7
Courier New
100
AcDbText
0
ENDSEC
0
SECTION
2
OBJECTS
0
DICTIONARY
5
A
330
0
100
AcDbDictionary
281
1
3
ACAD_GROUP
350
B
0
DICTIONARY
5
B
330
A
100
AcDbDictionary
281
0
0
ENDSEC
0
EOF