0
SECTION
2
HEADER
9
$ACADVER
1
AC1021
9
$LASTSAVEDBY
1
@tarikjabiri/dxf
9
$HANDSEED
5
57
9
$INSUNITS
70
0
9
$CLAYER
8
0
9
$VIEWCTR
10
659.546875
20
770.5
0
ENDSEC
0
SECTION
2
CLASSES
0
ENDSEC
0
SECTION
2
TABLES
0
TABLE
2
VPORT
5
1
330
0
100
AcDbSymbolTable
70
1
0
VPORT
5
19
330
1
100
AcDbSymbolTableRecord
100
AcDbViewportTableRecord
2
*Active
70
0
10
0
20
0
11
1
21
1
12
659.546875
22
770.5
13
0
23
0
14
10
24
10
15
10
25
10
16
0
26
0
36
1
17
0
27
0
37
0
40
1741
41
2
42
50
43
0
44
0
50
0
51
0
71
0
72
100
73
1
74
3
75
0
76
1
77
0
78
0
281
0
65
1
110
0
120
0
130
0
111
1
121
0
131
0
112
0
122
1
132
0
79
0
146
0
348
10020
60
7
61
5
292
1
282
1
141
0
142
0
63
250
421
3358443
0
ENDTAB
0
TABLE
2
LTYPE
5
2
330
0
100
AcDbSymbolTable
70
3
0
LTYPE
5
12
330
2
100
AcDbSymbolTableRecord
100
AcDbLinetypeTableRecord
2
ByBlock
70
0
3

72
65
73
0
40
0
0
LTYPE
5
13
330
2
100
AcDbSymbolTableRecord
100
AcDbLinetypeTableRecord
2
ByLayer
70
0
3

72
65
73
0
40
0
0
LTYPE
5
14
330
2
100
AcDbSymbolTableRecord
100
AcDbLinetypeTableRecord
2
Continuous
70
0
3
Solid line
72
65
73
0
40
0
0
ENDTAB
0
TABLE
2
LAYER
5
3
330
0
100
AcDbSymbolTable
70
1
0
LAYER
5
15
330
3
100
AcDbSymbolTableRecord
100
AcDbLayerTableRecord
2
0
70
0
62
7
6
Continuous
370
0
390
0
0
ENDTAB
0
TABLE
2
STYLE
5
4
330
0
100
AcDbSymbolTable
70
5
0
STYLE
5
16
330
4
100
AcDbSymbolTableRecord
100
AcDbTextStyleTableRecord
2
Standard
70
0
40
0
41
1
50
0
71
0
42
1
3
txt
4

0
STYLE
5
1B
330
4
100
AcDbSymbolTableRecord
100
AcDbTextStyleTableRecord
2
Georgia
70
0
40
0
41
1
50
0
71
0
42
1
3
Georgia.ttf
4

0
STYLE
5
1F
330
4
100
AcDbSymbolTableRecord
100
AcDbTextStyleTableRecord
2
Aptos
70
0
40
0
41
1
50
0
71
0
42
1
3
Aptos.ttf
4

0
STYLE
5
25
330
4
100
AcDbSymbolTableRecord
100
AcDbTextStyleTableRecord
2
Segoe UI
70
0
40
0
41
1
50
0
71
0
42
1
3
Segoe UI.ttf
4

0
STYLE
5
53
330
4
100
AcDbSymbolTableRecord
100
AcDbTextStyleTableRecord
2
Courier New
70
0
40
0
41
1
50
0
71
0
42
1
3
Courier New.ttf
4

0
ENDTAB
0
TABLE
2
VIEW
5
5
330
0
100
AcDbSymbolTable
70
0
0
ENDTAB
0
TABLE
2
UCS
5
6
330
0
100
AcDbSymbolTable
70
0
0
ENDTAB
0
TABLE
2
APPID
5
7
330
0
100
AcDbSymbolTable
70
1
0
APPID
5
17
330
7
100
AcDbSymbolTableRecord
100
AcDbRegAppTableRecord
2
ACAD
70
0
0
ENDTAB
0
TABLE
2
DIMSTYLE
5
8
330
0
100
AcDbSymbolTable
70
1
100
AcDbDimStyleTable
0
DIMSTYLE
105
18
330
8
100
AcDbSymbolTableRecord
100
AcDbDimStyleTableRecord
2
Standard
70
0
340
16
0
ENDTAB
0
TABLE
2
BLOCK_RECORD
5
9
330
0
100
AcDbSymbolTable
70
2
0
BLOCK_RECORD
5
C
330
9
100
AcDbSymbolTableRecord
100
AcDbBlockTableRecord
2
*Model_Space
70
0
280
1
281
0
0
BLOCK_RECORD
5
F
330
9
100
AcDbSymbolTableRecord
100
AcDbBlockTableRecord
2
*Paper_Space
70
0
280
1
281
0
0
ENDTAB
0
ENDSEC
0
SECTION
2
BLOCKS
0
BLOCK
5
D
330
C
100
AcDbEntity
8
0
100
AcDbBlockBegin
2
*Model_Space
70
0
10
0
20
0
30
0
3
*Model_Space
1

0
ENDBLK
5
E
100
AcDbEntity
8
0
100
AcDbBlockEnd
0
BLOCK
5
10
330
F
100
AcDbEntity
8
0
100
AcDbBlockBegin
2
*Paper_Space
70
0
10
0
20
0
30
0
3
*Paper_Space
1

0
ENDBLK
5
11
100
AcDbEntity
8
0
100
AcDbBlockEnd
0
ENDSEC
0
SECTION
2
ENTITIES
0
TEXT
5
1A
330
C
100
AcDbEntity
420
9375783
8
0
100
AcDbText
10
56
20
1513
30
0
40
70
1
CSS
7
Georgia
100
AcDbText
0
TEXT
5
1C
330
C
100
AcDbEntity
420
9375783
8
0
100
AcDbText
10
56
20
1446.5
30
0
40
70
1
PROPERTY
7
Georgia
100
AcDbText
0
TEXT
5
1D
330
C
100
AcDbEntity
420
9375783
8
0
100
AcDbText
10
56
20
1380
30
0
40
70
1
SUPPORT
7
Georgia
100
AcDbText
0
TEXT
5
1E
330
C
100
AcDbEntity
420
1454671
8
0
100
AcDbText
10
56
20
1323
30
0
40
22
1
A focused demo for visual and text properties,
7
Aptos
100
AcDbText
0
TEXT
5
20
330
C
100
AcDbEntity
420
1454671
8
0
100
AcDbText
10
56
20
1288.90625
30
0
40
22
1
including transformed boxes, mixed compositing,
7
Aptos
100
AcDbText
0
TEXT
5
21
330
C
100
AcDbEntity
420
1454671
8
0
100
AcDbText
10
56
20
1254.8125
30
0
40
22
1
masking, ellipsis, vertical writing, and whitespace-
7
Aptos
100
AcDbText
0
TEXT
5
22
330
C
100
AcDbEntity
420
1454671
8
0
100
AcDbText
10
56
20
1220.71875
30
0
40
22
1
sensitive text.
7
Aptos
100
AcDbText
0
LWPOLYLINE
5
23
330
C
100
AcDbEntity
420
16777215
8
0
100
AcDbPolyline
90
42
70
0
43
0
38
0
39
0
10
904
20
1563
10
973
20
1563
10
973
20
1563
10
976.7067161183064
20
1562.6349203276613
10
980.2709852149367
20
1561.5537111177146
10
983.5558344273725
20
1559.7979226337484
10
986.4350288425444
20
1557.4350288425444
10
988.7979226337484
20
1554.5558344273725
10
990.5537111177144
20
1551.2709852149367
10
991.6349203276613
20
1547.7067161183065
10
992
20
1544
10
992
20
1544
10
992
20
1544
10
991.6349203276613
20
1540.2932838816935
10
990.5537111177144
20
1536.7290147850633
10
988.7979226337484
20
1533.4441655726275
10
986.4350288425444
20
1530.5649711574556
10
983.5558344273725
20
1528.2020773662516
10
980.2709852149367
20
1526.4462888822854
10
976.7067161183064
20
1525.3650796723387
10
973
20
1525
10
904
20
1525
10
904
20
1525
10
900.2932838816936
20
1525.3650796723387
10
896.7290147850633
20
1526.4462888822854
10
893.4441655726275
20
1528.2020773662516
10
890.5649711574556
20
1530.5649711574556
10
888.2020773662516
20
1533.4441655726275
10
886.4462888822856
20
1536.7290147850633
10
885.3650796723387
20
1540.2932838816935
10
885
20
1544
10
885
20
1544
10
885
20
1544
10
885.3650796723387
20
1547.7067161183065
10
886.4462888822856
20
1551.2709852149367
10
888.2020773662516
20
1554.5558344273725
10
890.5649711574556
20
1557.4350288425444
10
893.4441655726275
20
1559.7979226337484
10
896.7290147850633
20
1561.5537111177146
10
900.2932838816936
20
1562.6349203276613
10
904
20
1563
10
904
20
1563
0
TEXT
5
24
330
C
100
AcDbEntity
420
1454671
8
0
100
AcDbText
10
902.84375
20
1541
30
0
40
14
1
OUTLINE
7
Segoe UI
100
AcDbText
0
LWPOLYLINE
5
26
330
C
100
AcDbEntity
420
16777215
8
0
100
AcDbPolyline
90
42
70
0
43
0
38
0
39
0
10
1023
20
1563
10
1074
20
1563
10
1074
20
1563
10
1077.7067161183065
20
1562.6349203276613
10
1081.2709852149367
20
1561.5537111177146
10
1084.5558344273725
20
1559.7979226337484
10
1087.4350288425444
20
1557.4350288425444
10
1089.7979226337484
20
1554.5558344273725
10
1091.5537111177146
20
1551.2709852149367
10
1092.6349203276613
20
1547.7067161183065
10
1093
20
1544
10
1093
20
1544
10
1093
20
1544
10
1092.6349203276613
20
1540.2932838816935
10
1091.5537111177146
20
1536.7290147850633
10
1089.7979226337484
20
1533.4441655726275
10
1087.4350288425444
20
1530.5649711574556
10
1084.5558344273725
20
1528.2020773662516
10
1081.2709852149367
20
1526.4462888822854
10
1077.7067161183065
20
1525.3650796723387
10
1074
20
1525
10
1023
20
1525
10
1023
20
1525
10
1019.2932838816936
20
1525.3650796723387
10
1015.7290147850633
20
1526.4462888822854
10
1012.4441655726275
20
1528.2020773662516
10
1009.5649711574556
20
1530.5649711574556
10
1007.2020773662516
20
1533.4441655726275
10
1005.4462888822856
20
1536.7290147850633
10
1004.3650796723387
20
1540.2932838816935
10
1004
20
1544
10
1004
20
1544
10
1004
20
1544
10
1004.3650796723387
20
1547.7067161183065
10
1005.4462888822856
20
1551.2709852149367
10
1007.2020773662516
20
1554.5558344273725
10
1009.5649711574556
20
1557.4350288425444
10
1012.4441655726275
20
1559.7979226337484
10
1015.7290147850633
20
1561.5537111177146
10
1019.2932838816936
20
1562.6349203276613
10
1023
20
1563
10
1023
20
1563
0
TEXT
5
27
330
C
100
AcDbEntity
420
1454671
8
0
100
AcDbText
10
1021.65625
20
1541
30
0
40
14
1
FILTER
7
Segoe UI
100
AcDbText
0
LWPOLYLINE
5
28
330
C
100
AcDbEntity
420
16777215
8
0
100
AcDbPolyline
90
42
70
0
43
0
38
0
39
0
10
1123
20
1563
10
1270
20
1563
10
1270
20
1563
10
1273.7067161183065
20
1562.6349203276613
10
1277.2709852149367
20
1561.5537111177146
10
1280.5558344273725
20
1559.7979226337484
10
1283.4350288425444
20
1557.4350288425444
10
1285.7979226337484
20
1554.5558344273725
10
1287.5537111177146
20
1551.2709852149367
10
1288.6349203276613
20
1547.7067161183065
10
1289
20
1544
10
1289
20
1544
10
1289
20
1544
10
1288.6349203276613
20
1540.2932838816935
10
1287.5537111177146
20
1536.7290147850633
10
1285.7979226337484
20
1533.4441655726275
10
1283.4350288425444
20
1530.5649711574556
10
1280.5558344273725
20
1528.2020773662516
10
1277.2709852149367
20
1526.4462888822854
10
1273.7067161183065
20
1525.3650796723387
10
1270
20
1525
10
1123
20
1525
10
1123
20
1525
10
1119.2932838816935
20
1525.3650796723387
10
1115.7290147850633
20
1526.4462888822854
10
1112.4441655726275
20
1528.2020773662516
10
1109.5649711574556
20
1530.5649711574556
10
1107.2020773662516
20
1533.4441655726275
10
1105.4462888822854
20
1536.7290147850633
10
1104.3650796723387
20
1540.2932838816935
10
1104
20
1544
10
1104
20
1544
10
1104
20
1544
10
1104.3650796723387
20
1547.7067161183065
10
1105.4462888822854
20
1551.2709852149367
10
1107.2020773662516
20
1554.5558344273725
10
1109.5649711574556
20
1557.4350288425444
10
1112.4441655726275
20
1559.7979226337484
10
1115.7290147850633
20
1561.5537111177146
10
1119.2932838816935
20
1562.6349203276613
10
1123
20
1563
10
1123
20
1563
0
TEXT
5
29
330
C
100
AcDbEntity
420
1454671
8
0
100
AcDbText
10
1122.484375
20
1541
30
0
40
14
1
MIX-BLEND-MODE
7
Segoe UI
100
AcDbText
0
LWPOLYLINE
5
2A
330
C
100
AcDbEntity
420
16777215
8
0
100
AcDbPolyline
90
42
70
0
43
0
38
0
39
0
10
1320
20
1563
10
1365
20
1563
10
1365
20
1563
10
1368.7067161183065
20
1562.6349203276613
10
1372.2709852149367
20
1561.5537111177146
10
1375.5558344273725
20
1559.7979226337484
10
1378.4350288425444
20
1557.4350288425444
10
1380.7979226337484
20
1554.5558344273725
10
1382.5537111177146
20
1551.2709852149367
10
1383.6349203276613
20
1547.7067161183065
10
1384
20
1544
10
1384
20
1544
10
1384
20
1544
10
1383.6349203276613
20
1540.2932838816935
10
1382.5537111177146
20
1536.7290147850633
10
1380.7979226337484
20
1533.4441655726275
10
1378.4350288425444
20
1530.5649711574556
10
1375.5558344273725
20
1528.2020773662516
10
1372.2709852149367
20
1526.4462888822854
10
1368.7067161183065
20
1525.3650796723387
10
1365
20
1525
10
1320
20
1525
10
1320
20
1525
10
1316.2932838816935
20
1525.3650796723387
10
1312.7290147850633
20
1526.4462888822854
10
1309.4441655726275
20
1528.2020773662516
10
1306.5649711574556
20
1530.5649711574556
10
1304.2020773662516
20
1533.4441655726275
10
1302.4462888822854
20
1536.7290147850633
10
1301.3650796723387
20
1540.2932838816935
10
1301
20
1544
10
1301
20
1544
10
1301
20
1544
10
1301.3650796723387
20
1547.7067161183065
10
1302.4462888822854
20
1551.2709852149367
10
1304.2020773662516
20
1554.5558344273725
10
1306.5649711574556
20
1557.4350288425444
10
1309.4441655726275
20
1559.7979226337484
10
1312.7290147850633
20
1561.5537111177146
10
1316.2932838816935
20
1562.6349203276613
10
1320
20
1563
10
1320
20
1563
0
TEXT
5
2B
330
C
100
AcDbEntity
420
1454671
8
0
100
AcDbText
10
1319.09375
20
1541
30
0
40
14
1
MASK
7
Segoe UI
100
AcDbText
0
LWPOLYLINE
5
2C
330
C
100
AcDbEntity
420
16777215
8
0
100
AcDbPolyline
90
42
70
0
43
0
38
0
39
0
10
1054
20
1513
10
1181
20
1513
10
1181
20
1513
10
1184.7067161183065
20
1512.6349203276613
10
1188.2709852149367
20
1511.5537111177146
10
1191.5558344273725
20
1509.7979226337484
10
1194.4350288425444
20
1507.4350288425444
10
1196.7979226337484
20
1504.5558344273725
10
1198.5537111177146
20
1501.2709852149367
10
1199.6349203276613
20
1497.7067161183065
10
1200
20
1494
10
1200
20
1494
10
1200
20
1494
10
1199.6349203276613
20
1490.2932838816935
10
1198.5537111177146
20
1486.7290147850633
10
1196.7979226337484
20
1483.4441655726275
10
1194.4350288425444
20
1480.5649711574556
10
1191.5558344273725
20
1478.2020773662516
10
1188.2709852149367
20
1476.4462888822854
10
1184.7067161183065
20
1475.3650796723387
10
1181
20
1475
10
1054
20
1475
10
1054
20
1475
10
1050.2932838816935
20
1475.3650796723387
10
1046.7290147850633
20
1476.4462888822854
10
1043.4441655726275
20
1478.2020773662516
10
1040.5649711574556
20
1480.5649711574556
10
1038.2020773662516
20
1483.4441655726275
10
1036.4462888822854
20
1486.7290147850633
10
1035.3650796723387
20
1490.2932838816935
10
1035
20
1494
10
1035
20
1494
10
1035
20
1494
10
1035.3650796723387
20
1497.7067161183065
10
1036.4462888822854
20
1501.2709852149367
10
1038.2020773662516
20
1504.5558344273725
10
1040.5649711574556
20
1507.4350288425444
10
1043.4441655726275
20
1509.7979226337484
10
1046.7290147850633
20
1511.5537111177146
10
1050.2932838816935
20
1512.6349203276613
10
1054
20
1513
10
1054
20
1513
0
TEXT
5
2D
330
C
100
AcDbEntity
420
1454671
8
0
100
AcDbText
10
1052.671875
20
1491
30
0
40
14
1
WRITING-MODE
7
Segoe UI
100
AcDbText
0
LWPOLYLINE
5
2E
330
C
100
AcDbEntity
420
16777215
8
0
100
AcDbPolyline
90
42
70
0
43
0
38
0
39
0
10
1231
20
1513
10
1365
20
1513
10
1365
20
1513
10
1368.7067161183065
20
1512.6349203276613
10
1372.2709852149367
20
1511.5537111177146
10
1375.5558344273725
20
1509.7979226337484
10
1378.4350288425444
20
1507.4350288425444
10
1380.7979226337484
20
1504.5558344273725
10
1382.5537111177146
20
1501.2709852149367
10
1383.6349203276613
20
1497.7067161183065
10
1384
20
1494
10
1384
20
1494
10
1384
20
1494
10
1383.6349203276613
20
1490.2932838816935
10
1382.5537111177146
20
1486.7290147850633
10
1380.7979226337484
20
1483.4441655726275
10
1378.4350288425444
20
1480.5649711574556
10
1375.5558344273725
20
1478.2020773662516
10
1372.2709852149367
20
1476.4462888822854
10
1368.7067161183065
20
1475.3650796723387
10
1365
20
1475
10
1231
20
1475
10
1231
20
1475
10
1227.2932838816935
20
1475.3650796723387
10
1223.7290147850633
20
1476.4462888822854
10
1220.4441655726275
20
1478.2020773662516
10
1217.5649711574556
20
1480.5649711574556
10
1215.2020773662516
20
1483.4441655726275
10
1213.4462888822854
20
1486.7290147850633
10
1212.3650796723387
20
1490.2932838816935
10
1212
20
1494
10
1212
20
1494
10
1212
20
1494
10
1212.3650796723387
20
1497.7067161183065
10
1213.4462888822854
20
1501.2709852149367
10
1215.2020773662516
20
1504.5558344273725
10
1217.5649711574556
20
1507.4350288425444
10
1220.4441655726275
20
1509.7979226337484
10
1223.7290147850633
20
1511.5537111177146
10
1227.2932838816935
20
1512.6349203276613
10
1231
20
1513
10
1231
20
1513
0
TEXT
5
2F
330
C
100
AcDbEntity
420
1454671
8
0
100
AcDbText
10
1229.578125
20
1491
30
0
40
14
1
TEXT-OVERFLOW
7
Segoe UI
100
AcDbText
0
LWPOLYLINE
5
30
330
C
100
AcDbEntity
420
16775400
8
0
100
AcDbPolyline
90
42
70
0
43
0
38
0
39
0
10
84
20
1165
10
1356
20
1165
10
1356
20
1165
10
1361.4625290164515
20
1164.4619878512904
10
1366.7151361062224
20
1162.868626910316
10
1371.555966524549
20
1160.2811491444713
10
1375.7989898732233
20
1156.7989898732233
10
1379.2811491444713
20
1152.555966524549
10
1381.868626910316
20
1147.7151361062224
10
1383.4619878512904
20
1142.4625290164515
10
1384
20
1137
10
1384
20
724
10
1384
20
724
10
1383.4619878512904
20
718.5374709835484
10
1381.868626910316
20
713.2848638937775
10
1379.2811491444713
20
708.4440334754512
10
1375.7989898732233
20
704.2010101267766
10
1371.555966524549
20
700.7188508555288
10
1366.7151361062224
20
698.131373089684
10
1361.4625290164515
20
696.5380121487095
10
1356
20
696
10
84
20
696
10
84
20
696
10
78.53747098354842
20
696.5380121487095
10
73.28486389377748
20
698.131373089684
10
68.44403347545115
20
700.7188508555287
10
64.20101012677668
20
704.2010101267766
10
60.71885085552873
20
708.4440334754512
10
58.131373089683976
20
713.2848638937775
10
56.53801214870955
20
718.5374709835484
10
56
20
724
10
56
20
1137
10
56
20
1137
10
56.53801214870955
20
1142.4625290164515
10
58.13137308968397
20
1147.7151361062224
10
60.71885085552873
20
1152.555966524549
10
64.20101012677667
20
1156.7989898732233
10
68.44403347545114
20
1160.2811491444713
10
73.28486389377747
20
1162.868626910316
10
78.5374709835484
20
1164.4619878512904
10
84
20
1165
10
84
20
1165
0
TEXT
5
31
330
C
100
AcDbEntity
420
1454671
8
0
100
AcDbText
10
84
20
1113.125
30
0
40
30
1
VISUAL PROPERTIES
7
Georgia
100
AcDbText
0
LWPOLYLINE
5
32
330
C
100
AcDbEntity
420
2062988
8
0
100
AcDbPolyline
90
42
70
0
43
0
38
0
39
0
10
108
20
1084
10
1332
20
1084
10
1332
20
1084
10
1336.6821677283872
20
1083.5388467296775
10
1341.1844023767621
20
1082.173108780271
10
1345.3336855924704
20
1079.955270695261
10
1348.970562748477
20
1076.9705627484773
10
1351.955270695261
20
1073.3336855924704
10
1354.173108780271
20
1069.1844023767621
10
1355.5388467296775
20
1064.682167728387
10
1356
20
1060
10
1356
20
748
10
1356
20
748
10
1355.5388467296775
20
743.3178322716129
10
1354.173108780271
20
738.8155976232379
10
1351.955270695261
20
734.6663144075295
10
1348.970562748477
20
731.0294372515228
10
1345.3336855924704
20
728.0447293047389
10
1341.1844023767621
20
725.8268912197291
10
1336.6821677283872
20
724.4611532703225
10
1332
20
724
10
108
20
724
10
108
20
724
10
103.31783227161293
20
724.4611532703225
10
98.81559762323785
20
725.8268912197291
10
94.66631440752955
20
728.0447293047389
10
91.02943725152286
20
731.0294372515228
10
88.04472930473891
20
734.6663144075295
10
85.82689121972912
20
738.8155976232379
10
84.46115327032247
20
743.3178322716129
10
84
20
748
10
84
20
1060
10
84
20
1060
10
84.46115327032247
20
1064.682167728387
10
85.82689121972912
20
1069.1844023767621
10
88.04472930473891
20
1073.3336855924704
10
91.02943725152286
20
1076.9705627484773
10
94.66631440752954
20
1079.955270695261
10
98.81559762323784
20
1082.173108780271
10
103.31783227161291
20
1083.5388467296775
10
108
20
1084
10
108
20
1084
0
HATCH
5
33
330
C
100
AcDbEntity
420
16763450
8
0
100
AcDbHatch
10
0
20
0
30
0
210
0
220
0
230
1
2
SOLID
70
1
71
0
91
1
92
7
72
0
73
1
93
20
10
129.02281536163642
20
1000.0170567991402
10
131.183302783238
20
1012.5031472195177
10
136.68758040967907
20
1021.9784752797907
10
145.53564824095974
20
1028.4430409799588
10
157.72750627707995
20
1031.8968443200224
10
359.74217372292003
20
1060.2881356799776
10
371.8118836792448
20
1060.2440711199338
10
380.2935072711391
20
1056.2150331197795
10
385.187044498603
20
1048.201021679515
10
386.4924953616364
20
1036.2020367991402
10
382.6350490383636
20
925.7390832008598
10
380.474561616762
20
913.2529927804821
10
374.9702839903209
20
903.7776647202093
10
366.12221615904025
20
897.313099020041
10
353.93035812292004
20
893.8592956799774
10
151.91569067707997
20
865.4680043200225
10
139.84598072075522
20
865.5120688800664
10
131.3643571288609
20
869.5411068802205
10
126.47081990139701
20
877.555118320485
10
125.16536903836358
20
889.5541032008598
97
0
75
1
76
1
47
1
98
0
0
LWPOLYLINE
5
34
330
C
100
AcDbEntity
420
16763450
8
0
100
AcDbPolyline
90
21
70
0
43
0
38
0
39
0
10
129.02281536163642
20
1000.0170567991402
10
131.183302783238
20
1012.5031472195177
10
136.68758040967907
20
1021.9784752797907
10
145.53564824095974
20
1028.4430409799588
10
157.72750627707995
20
1031.8968443200224
10
359.74217372292003
20
1060.2881356799776
10
371.8118836792448
20
1060.2440711199338
10
380.2935072711391
20
1056.2150331197795
10
385.187044498603
20
1048.201021679515
10
386.4924953616364
20
1036.2020367991402
10
382.6350490383636
20
925.7390832008598
10
380.474561616762
20
913.2529927804821
10
374.9702839903209
20
903.7776647202093
10
366.12221615904025
20
897.313099020041
10
353.93035812292004
20
893.8592956799774
10
151.91569067707997
20
865.4680043200225
10
139.84598072075522
20
865.5120688800664
10
131.3643571288609
20
869.5411068802205
10
126.47081990139701
20
877.555118320485
10
125.16536903836358
20
889.5541032008598
10
129.02281536163642
20
1000.0170567991402
0
TEXT
5
35
330
C
100
AcDbEntity
420
16777215
8
0
100
AcDbText
10
151.79872380304766
20
925.1389365178669
30
0
40
28
1
OUTLINE +
50
7.999994819856557
7
Georgia
100
AcDbText
0
TEXT
5
36
330
C
100
AcDbEntity
420
16777215
8
0
100
AcDbText
10
150.8064615271255
20
896.7243355027636
30
0
40
28
1
FILTER
50
7.999994819856521
7
Georgia
100
AcDbText
0
HATCH
5
37
330
C
100
AcDbEntity
420
1149618
8
0
100
AcDbHatch
10
0
20
0
30
0
210
0
220
0
230
1
2
SOLID
70
1
71
0
91
1
92
7
72
0
73
1
93
20
10
474.44035887513115
20
970.1065482852952
10
475.11604259943033
20
982.4624558401744
10
479.58345264745896
20
991.6367267901065
10
487.84258901921714
20
997.6293611350923
10
499.8934517147048
20
1000.4403588751312
10
683.1933482852952
20
1016.4770091248688
10
695.5492558401743
20
1015.8013254005697
10
704.7235267901066
20
1011.333915352541
10
710.7161611350923
20
1003.0747789807829
10
713.5271588751312
20
991.0239162852952
10
721.7197961248688
20
897.3815697147048
10
721.0441124005697
20
885.0256621598257
10
716.576702352541
20
875.8513912098933
10
708.3175659807828
20
869.8587568649077
10
696.2667032852952
20
867.0477591248688
10
512.9668067147048
20
851.0111088751312
10
500.61089915982575
20
851.6867925994304
10
491.43662820989346
20
856.154202647459
10
485.4439938649078
20
864.4133390192171
10
482.63299612486884
20
876.4642017147048
97
0
75
1
76
1
47
1
98
0
0
LWPOLYLINE
5
38
330
C
100
AcDbEntity
420
1149618
8
0
100
AcDbPolyline
90
21
70
0
43
0
38
0
39
0
10
474.44035887513115
20
970.1065482852952
10
475.11604259943033
20
982.4624558401744
10
479.58345264745896
20
991.6367267901065
10
487.84258901921714
20
997.6293611350923
10
499.8934517147048
20
1000.4403588751312
10
683.1933482852952
20
1016.4770091248688
10
695.5492558401743
20
1015.8013254005697
10
704.7235267901066
20
1011.333915352541
10
710.7161611350923
20
1003.0747789807829
10
713.5271588751312
20
991.0239162852952
10
721.7197961248688
20
897.3815697147048
10
721.0441124005697
20
885.0256621598257
10
716.576702352541
20
875.8513912098933
10
708.3175659807828
20
869.8587568649077
10
696.2667032852952
20
867.0477591248688
10
512.9668067147048
20
851.0111088751312
10
500.61089915982575
20
851.6867925994304
10
491.43662820989346
20
856.154202647459
10
485.4439938649078
20
864.4133390192171
10
482.63299612486884
20
876.4642017147048
10
474.44035887513115
20
970.1065482852952
0
TEXT
5
39
330
C
100
AcDbEntity
420
16777215
8
0
100
AcDbText
10
503.8398768132435
20
909.4380252472488
30
0
40
28
1
BASE
50
4.999996052434908
7
Georgia
100
AcDbText
0
TEXT
5
3A
330
C
100
AcDbEntity
420
16777215
8
0
100
AcDbText
10
506.2802446277561
20
881.5445220184436
30
0
40
28
1
LAYER
50
4.999996052434911
7
Georgia
100
AcDbText
0
HATCH
5
3B
330
C
100
AcDbEntity
420
12653087
8
0
100
AcDbHatch
10
0
20
0
30
0
210
0
220
0
230
1
2
SOLID
70
1
71
0
91
1
92
7
72
0
73
1
93
20
10
565.1378570326413
20
940.4253818564071
10
569.013978521482
20
952.4282029842218
10
575.7802000206455
20
960.8620482240731
10
585.4365215301318
20
965.7269175759608
10
597.9829430499408
20
967.0228110398851
10
794.3195569500592
20
960.1665639601149
10
806.2582105989485
20
958.0156301560901
10
814.0912284956751
20
952.5400177041305
10
817.8186106402395
20
943.7397266042362
10
817.4403570326413
20
931.6147568564071
10
799.3809629673588
20
829.1947131435929
10
795.5048414785181
20
817.1918920157781
10
788.7386199793546
20
808.758046775927
10
779.0822984698682
20
803.8931774240391
10
766.5358769500592
20
802.5972839601149
10
570.1992630499408
20
809.4535310398852
10
558.2606094010516
20
811.60446484391
10
550.4275915043249
20
817.0800772958696
10
546.7002093597606
20
825.8803683957639
10
547.0784629673587
20
838.005338143593
97
0
75
1
76
1
47
1
98
0
0
LWPOLYLINE
5
3C
330
C
100
AcDbEntity
420
12653087
8
0
100
AcDbPolyline
90
21
70
0
43
0
38
0
39
0
10
565.1378570326413
20
940.4253818564071
10
569.013978521482
20
952.4282029842218
10
575.7802000206455
20
960.8620482240731
10
585.4365215301318
20
965.7269175759608
10
597.9829430499408
20
967.0228110398851
10
794.3195569500592
20
960.1665639601149
10
806.2582105989485
20
958.0156301560901
10
814.0912284956751
20
952.5400177041305
10
817.8186106402395
20
943.7397266042362
10
817.4403570326413
20
931.6147568564071
10
799.3809629673588
20
829.1947131435929
10
795.5048414785181
20
817.1918920157781
10
788.7386199793546
20
808.758046775927
10
779.0822984698682
20
803.8931774240391
10
766.5358769500592
20
802.5972839601149
10
570.1992630499408
20
809.4535310398852
10
558.2606094010516
20
811.60446484391
10
550.4275915043249
20
817.0800772958696
10
546.7002093597606
20
825.8803683957639
10
547.0784629673587
20
838.005338143593
10
565.1378570326413
20
940.4253818564071
0
TEXT
5
3D
330
C
100
AcDbEntity
420
16777215
8
0
100
AcDbText
10
569.5893845803051
20
840.1918589809281
30
0
40
28
1
BLEND
50
-2.0000062499575697
7
Georgia
100
AcDbText
0
HATCH
5
3E
330
C
100
AcDbEntity
420
16777215
8
0
100
AcDbHatch
10
0
20
0
30
0
210
0
220
0
230
1
2
SOLID
70
1
71
0
91
1
92
7
72
0
73
1
93
20
10
923.5113360737898
20
1002.0042644753308
10
925.4620823756303
20
1014.0391279763485
10
930.8256573549413
20
1022.1479829547322
10
939.602061011723
20
1026.3308294104822
10
951.7912933459754
20
1026.5876673435985
10
1184.0470466540246
20
998.0703226564016
10
1196.1751959975009
20
994.827693648934
10
1204.7683506819535
20
988.5121392829332
10
1209.8265107073835
20
979.1236595583987
10
1211.3496760737899
20
966.6622544753309
10
1208.6418189262101
20
811.5281255246691
10
1206.6910726243698
20
799.4932620236514
10
1201.3274976450587
20
791.3844070452676
10
1192.551093988277
20
787.2015605895176
10
1180.3618616540246
20
786.9447226564015
10
948.1061083459754
20
815.4620673435984
10
935.9779590024993
20
818.7046963510659
10
927.3848043180463
20
825.0202507170668
10
922.3266442926166
20
834.4087304416013
10
920.8034789262101
20
846.8701355246691
97
0
75
1
76
1
47
1
98
0
0
LWPOLYLINE
5
3F
330
C
100
AcDbEntity
420
16777215
8
0
100
AcDbPolyline
90
21
70
0
43
0
38
0
39
0
10
923.5113360737898
20
1002.0042644753308
10
925.4620823756303
20
1014.0391279763485
10
930.8256573549413
20
1022.1479829547322
10
939.602061011723
20
1026.3308294104822
10
951.7912933459754
20
1026.5876673435985
10
1184.0470466540246
20
998.0703226564016
10
1196.1751959975009
20
994.827693648934
10
1204.7683506819535
20
988.5121392829332
10
1209.8265107073835
20
979.1236595583987
10
1211.3496760737899
20
966.6622544753309
10
1208.6418189262101
20
811.5281255246691
10
1206.6910726243698
20
799.4932620236514
10
1201.3274976450587
20
791.3844070452676
10
1192.551093988277
20
787.2015605895176
10
1180.3618616540246
20
786.9447226564015
10
948.1061083459754
20
815.4620673435984
10
935.9779590024993
20
818.7046963510659
10
927.3848043180463
20
825.0202507170668
10
922.3266442926166
20
834.4087304416013
10
920.8034789262101
20
846.8701355246691
10
923.5113360737898
20
1002.0042644753308
0
TEXT
5
40
330
C
100
AcDbEntity
420
16777215
8
0
100
AcDbText
10
944.841952655373
20
855.2350465081515
30
0
40
28
1
MASKED
50
-6.999981529840824
7
Georgia
100
AcDbText
0
LWPOLYLINE
5
41
330
C
100
AcDbEntity
420
16775400
8
0
100
AcDbPolyline
90
42
70
0
43
0
38
0
39
0
10
84
20
662
10
1356
20
662
10
1356
20
662
10
1361.4625290164515
20
661.4619878512905
10
1366.7151361062224
20
659.868626910316
10
1371.555966524549
20
657.2811491444712
10
1375.7989898732233
20
653.7989898732234
10
1379.2811491444713
20
649.5559665245488
10
1381.868626910316
20
644.7151361062225
10
1383.4619878512904
20
639.4625290164516
10
1384
20
634
10
1384
20
117
10
1384
20
117
10
1383.4619878512904
20
111.53747098354847
10
1381.868626910316
20
106.28486389377758
10
1379.2811491444713
20
101.44403347545108
10
1375.7989898732233
20
97.20101012677674
10
1371.555966524549
20
93.71885085552867
10
1366.7151361062224
20
91.13137308968408
10
1361.4625290164515
20
89.53801214870964
10
1356
20
89
10
84
20
89
10
84
20
89
10
78.53747098354842
20
89.53801214870964
10
73.28486389377748
20
91.13137308968408
10
68.44403347545115
20
93.71885085552867
10
64.20101012677668
20
97.20101012677674
10
60.71885085552873
20
101.44403347545108
10
58.131373089683976
20
106.28486389377758
10
56.53801214870955
20
111.53747098354847
10
56
20
117
10
56
20
634
10
56
20
634
10
56.53801214870955
20
639.4625290164516
10
58.13137308968397
20
644.7151361062225
10
60.71885085552873
20
649.5559665245488
10
64.20101012677667
20
653.7989898732234
10
68.44403347545114
20
657.2811491444712
10
73.28486389377747
20
659.868626910316
10
78.5374709835484
20
661.4619878512905
10
84
20
662
10
84
20
662
0
TEXT
5
42
330
C
100
AcDbEntity
420
1454671
8
0
100
AcDbText
10
84
20
610.125
30
0
40
30
1
TEXT PROPERTIES
7
Georgia
100
AcDbText
0
LWPOLYLINE
5
43
330
C
100
AcDbEntity
420
16777215
8
0
100
AcDbPolyline
90
42
70
0
43
0
38
0
39
0
10
108
20
581
10
775
20
581
10
775
20
581
10
779.6821677283871
20
580.5388467296775
10
784.1844023767621
20
579.1731087802709
10
788.3336855924705
20
576.9552706952611
10
791.9705627484772
20
573.970562748477
10
794.9552706952611
20
570.3336855924704
10
797.1731087802709
20
566.1844023767621
10
798.5388467296775
20
561.6821677283872
10
799
20
557
10
799
20
349
10
799
20
349
10
798.5388467296775
20
344.3178322716128
10
797.1731087802709
20
339.81559762323786
10
794.9552706952611
20
335.6663144075296
10
791.9705627484772
20
332.02943725152295
10
788.3336855924705
20
329.0447293047389
10
784.1844023767621
20
326.8268912197291
10
779.6821677283871
20
325.4611532703225
10
775
20
325
10
108
20
325
10
108
20
325
10
103.31783227161293
20
325.4611532703225
10
98.81559762323785
20
326.8268912197291
10
94.66631440752955
20
329.0447293047389
10
91.02943725152286
20
332.02943725152295
10
88.04472930473891
20
335.6663144075296
10
85.82689121972912
20
339.81559762323786
10
84.46115327032247
20
344.3178322716128
10
84
20
349
10
84
20
557
10
84
20
557
10
84.46115327032247
20
561.6821677283872
10
85.82689121972912
20
566.1844023767621
10
88.04472930473891
20
570.3336855924704
10
91.02943725152286
20
573.970562748477
10
94.66631440752954
20
576.9552706952611
10
98.81559762323784
20
579.1731087802709
10
103.31783227161291
20
580.5388467296775
10
108
20
581
10
108
20
581
0
TEXT
5
44
330
C
100
AcDbEntity
420
1454671
8
0
100
AcDbText
10
108
20
547.125
30
0
40
14
1
TYPOGRAPHY STACK
7
Segoe UI
100
AcDbText
0
TEXT
5
45
330
C
100
AcDbEntity
420
6953805
8
0
100
AcDbText
10
173.4825011996812
20
504.3906250689249
30
0
40
30
1
MUSEUM COPY
50
3.000001108559619
7
Georgia
100
AcDbText
0
TEXT
5
46
330
C
100
AcDbEntity
420
6953805
8
0
100
AcDbText
10
111.97765417980398
20
455.10420319214563
30
0
40
30
1
LEANS INTO RHYTHM 
50
3.0000011085596263
7
Georgia
100
AcDbText
0
TEXT
5
47
330
C
100
AcDbEntity
420
6953805
8
0
100
AcDbText
10
531.4020255655128
20
477.08531232162636
30
0
40
30
1
AND SPACING
50
3.000001108559582
7
Georgia
100
AcDbText
0
TEXT
5
48
330
C
100
AcDbEntity
420
8344889
8
0
100
AcDbText
10
106.7231343990982
20
356.7398929084086
30
0
40
22
1
This sentence intentionally…
50
-4.000001701562389
7
Segoe UI
100
AcDbText
0
LWPOLYLINE
5
49
330
C
100
AcDbEntity
420
16777215
8
0
100
AcDbPolyline
90
42
70
0
43
0
38
0
39
0
10
851
20
581
10
1332
20
581
10
1332
20
581
10
1336.6821677283872
20
580.5388467296775
10
1341.1844023767621
20
579.1731087802709
10
1345.3336855924704
20
576.9552706952611
10
1348.970562748477
20
573.970562748477
10
1351.955270695261
20
570.3336855924704
10
1354.173108780271
20
566.1844023767621
10
1355.5388467296775
20
561.6821677283872
10
1356
20
557
10
1356
20
141
10
1356
20
141
10
1355.5388467296775
20
136.31783227161282
10
1354.173108780271
20
131.81559762323786
10
1351.955270695261
20
127.66631440752963
10
1348.970562748477
20
124.02943725152295
10
1345.3336855924704
20
121.0447293047389
10
1341.1844023767621
20
118.82689121972908
10
1336.6821677283872
20
117.46115327032248
10
1332
20
117
10
851
20
117
10
851
20
117
10
846.3178322716129
20
117.46115327032248
10
841.8155976232379
20
118.82689121972908
10
837.6663144075295
20
121.0447293047389
10
834.0294372515228
20
124.02943725152295
10
831.0447293047389
20
127.66631440752963
10
828.8268912197291
20
131.81559762323786
10
827.4611532703225
20
136.31783227161282
10
827
20
141
10
827
20
557
10
827
20
557
10
827.4611532703225
20
561.6821677283872
10
828.8268912197291
20
566.1844023767621
10
831.0447293047389
20
570.3336855924704
10
834.0294372515228
20
573.970562748477
10
837.6663144075295
20
576.9552706952611
10
841.8155976232379
20
579.1731087802709
10
846.3178322716129
20
580.5388467296775
10
851
20
581
10
851
20
581
0
TEXT
5
4A
330
C
100
AcDbEntity
420
1454671
8
0
100
AcDbText
10
851.296875
20
547.125
30
0
40
14
1
WRAPPING AND DIRECTION
7
Segoe UI
100
AcDbText
0
TEXT
5
4B
330
C
100
AcDbEntity
420
2508371
8
0
100
AcDbText
10
849.8581750156666
20
498.30111515333647
30
0
40
22
1
WrapThisAbsurdlyLongToken
50
-1.9999998429261654
7
Segoe UI
100
AcDbText
0
TEXT
5
4C
330
C
100
AcDbEntity
420
2508371
8
0
100
AcDbText
10
848.7451978764827
20
466.4299298296353
30
0
40
22
1
WithoutAnyMercyBecauseWo
50
-1.9999998429261419
7
Segoe UI
100
AcDbText
0
TEXT
5
4D
330
C
100
AcDbEntity
420
2508371
8
0
100
AcDbText
10
847.6322204096622
20
434.55875388822506
30
0
40
22
1
rdBreakAndOverflowWrapSh
50
-1.9999998429261454
7
Segoe UI
100
AcDbText
0
TEXT
5
4E
330
C
100
AcDbEntity
420
2508371
8
0
100
AcDbText
10
846.5192439057239
20
402.68755037346955
30
0
40
22
1
ouldStillPreserveTheLayout.
50
-1.9999998429261472
7
Segoe UI
100
AcDbText
0
HATCH
5
4F
330
C
100
AcDbEntity
420
1149618
8
0
100
AcDbHatch
10
0
20
0
30
0
210
0
220
0
230
1
2
SOLID
70
1
71
0
91
1
92
7
72
0
73
1
93
20
10
849.1184961046756
20
373.0986049959263
10
851.0604912466346
20
380.8128713167507
10
855.0049727771874
20
386.05427527515053
10
860.9519406963337
20
388.82281687112527
10
868.9013950040738
20
389.1184961046756
10
972.3316849959261
20
378.2475838953244
10
980.0459513167507
20
376.30558875336556
10
985.2873552751504
20
372.36110722281273
10
988.0558968711255
20
366.4141393036664
10
988.3515761046756
20
358.4646849959263
10
965.9825838953244
20
145.63697500407375
10
964.0405887533655
20
137.9227086832493
10
960.0961072228126
20
132.68130472484972
10
954.1491393036663
20
129.91276312887453
10
946.1996849959262
20
129.6170838953244
10
842.7693950040739
20
140.48799610467563
10
835.0551286832493
20
142.4299912466347
10
829.8137247248495
20
146.3744727771873
10
827.0451831288747
20
152.32144069633387
10
826.7495038953244
20
160.27089500407374
97
0
75
1
76
1
47
1
98
0
0
LWPOLYLINE
5
50
330
C
100
AcDbEntity
420
1149618
8
0
100
AcDbPolyline
90
21
70
0
43
0
38
0
39
0
10
849.1184961046756
20
373.0986049959263
10
851.0604912466346
20
380.8128713167507
10
855.0049727771874
20
386.05427527515053
10
860.9519406963337
20
388.82281687112527
10
868.9013950040738
20
389.1184961046756
10
972.3316849959261
20
378.2475838953244
10
980.0459513167507
20
376.30558875336556
10
985.2873552751504
20
372.36110722281273
10
988.0558968711255
20
366.4141393036664
10
988.3515761046756
20
358.4646849959263
10
965.9825838953244
20
145.63697500407375
10
964.0405887533655
20
137.9227086832493
10
960.0961072228126
20
132.68130472484972
10
954.1491393036663
20
129.91276312887453
10
946.1996849959262
20
129.6170838953244
10
842.7693950040739
20
140.48799610467563
10
835.0551286832493
20
142.4299912466347
10
829.8137247248495
20
146.3744727771873
10
827.0451831288747
20
152.32144069633387
10
826.7495038953244
20
160.27089500407374
10
849.1184961046756
20
373.0986049959263
0
TEXT
5
51
330
C
100
AcDbEntity
420
1454671
8
0
100
AcDbText
10
964.6360651379206
20
324.1619506597424
30
0
40
26
1
RTL FLOW
50
-95.99997297548352
7
Segoe UI
100
AcDbText
0
TEXT
5
52
330
C
100
AcDbEntity
420
4014171
8
0
100
AcDbText
10
1011.296875
20
304.84375
30
0
40
18
1
white-space: pre-wrap
7
Courier New
100
AcDbText
0
TEXT
5
54
330
C
100
AcDbEntity
420
4014171
8
0
100
AcDbText
10
1011.296875
20
276.953125
30
0
40
18
1
keeps   deliberate gaps
7
Courier New
100
AcDbText
0
TEXT
5
55
330
C
100
AcDbEntity
420
4014171
8
0
100
AcDbText
10
1011.296875
20
249.0625
30
0
40
18
1
and carries line breaks 
7
Courier New
100
AcDbText
0
TEXT
5
56
330
C
100
AcDbEntity
420
4014171
8
0
100
AcDbText
10
1259.75
20
249.0625
30
0
40
18
1
forward.
7
Courier New
100
AcDbText
0
ENDSEC
0
SECTION
2
OBJECTS
0
DICTIONARY
5
A
330
0
100
AcDbDictionary
281
1
3
ACAD_GROUP
350
B
0
DICTIONARY
5
B
330
A
100
AcDbDictionary
281
0
0
ENDSEC
0
EOF