  0
SECTION
  2
HEADER
  9
$ANGBASE
 50
0.0
  9
$ANGDIR
 70
1
  9
$AUNITS
 70
0
  9
$AUPREC
 70
0
  9
$ATTMODE
 70
1
  9
$DWGCODEPAGE
  3
ANSI_1252
  9
$TDCREATE
 40
2451545.0416666665114462
  9
$CECOLOR
 62
256
  9
$CELTSCALE
 40
1.0
  9
$CELWEIGHT
370
-1
  9
$CLAYER
  8
0
  9
$CELTYPE
  6
ByLayer
  9
$CMLJUST
 70
0
  9
$CMLSCALE
 40
20.0
  9
$CMLSTYLE
  2
Standard
  9
$DIMSTYLE
  2
Standard
  9
$LWDISPLAY
290
0
  9
$EXTNAMES
290
1
  9
$HANDSEED
  5
8E
  9
$INSUNITS
 70
0
  9
$LUNITS
 70
2
  9
$LUPREC
 70
4
  9
$LTSCALE
 40
1.0
  9
$MIRRTEXT
 70
0
  9
$INSBASE
 10
0.0
 20
0.0
 30
0.0
  9
$SPLINESEGS
 70
8
  9
$PSLTSCALE
 70
1
  9
$PDMODE
 70
0
  9
$PDSIZE
 40
0.0
  9
$PLINEGEN
 70
0
  9
$TEXTSIZE
 40
0.2
  9
$TEXTSTYLE
  7
Standard
  9
$TDINDWG
 40
0.0
  9
$TDUCREATE
 40
2451545.0416666665114462
  9
$TDUUPDATE
 40
2451545.0416666665114462
  9
$TDUPDATE
 40
2451545.0416666665114462
  9
$ACADVER
  1
AC1018
  0
ENDSEC
  0
SECTION
  2
CLASSES
  0
CLASS
  1
ACDBDICTIONARYWDFLT
  2
AcDbDictionaryWithDefault
  3
ObjectDBX Classes
 90
32768
 91
0
280
0
281
0
  0
CLASS
  1
ACDBPLACEHOLDER
  2
AcDbPlaceHolder
  3
ObjectDBX Classes
 90
0
 91
0
280
0
281
0
  0
CLASS
  1
LAYOUT
  2
AcDbLayout
  3
ObjectDBX Classes
 90
0
 91
0
280
0
281
0
  0
CLASS
  1
DICTIONARYVAR
  2
AcDbDictionaryVar
  3
ObjectDBX Classes
 90
0
 91
0
280
0
281
0
  0
CLASS
  1
TABLESTYLE
  2
AcDbTableStyle
  3
ObjectDBX Classes
 90
4095
 91
0
280
0
281
0
  0
CLASS
  1
MATERIAL
  2
AcDbMaterial
  3
ObjectDBX Classes
 90
1153
 91
0
280
0
281
0
  0
CLASS
  1
VISUALSTYLE
  2
AcDbVisualStyle
  3
ObjectDBX Classes
 90
4095
 91
0
280
0
281
0
  0
CLASS
  1
SCALE
  2
AcDbScale
  3
ObjectDBX Classes
 90
1153
 91
0
280
0
281
0
  0
CLASS
  1
MLEADERSTYLE
  2
AcDbMLeaderStyle
  3
ObjectDBX Classes
 90
4095
 91
0
280
0
281
0
  0
CLASS
  1
CELLSTYLEMAP
  2
AcDbCellStyleMap
  3
ObjectDBX Classes
 90
1152
 91
0
280
0
281
0
  0
CLASS
  1
EXACXREFPANELOBJECT
  2
ExAcXREFPanelObject
  3
ObjectDBX Classes
 90
1025
 91
0
280
0
281
0
  0
CLASS
  1
NPOCOLLECTION
  2
AcDbImpNonPersistentObjectsCollection
  3
ObjectDBX Classes
 90
1153
 91
0
280
0
281
0
  0
CLASS
  1
LAYER_INDEX
  2
AcDbLayerIndex
  3
ObjectDBX Classes
 90
0
 91
0
280
0
281
0
  0
CLASS
  1
SPATIAL_INDEX
  2
AcDbSpatialIndex
  3
ObjectDBX Classes
 90
0
 91
0
280
0
281
0
  0
CLASS
  1
IDBUFFER
  2
AcDbIdBuffer
  3
ObjectDBX Classes
 90
32768
 91
0
280
0
281
0
  0
CLASS
  1
ACDBSECTIONVIEWSTYLE
  2
AcDbSectionViewStyle
  3
ObjectDBX Classes
 90
1025
 91
0
280
0
281
0
  0
CLASS
  1
ACDBDETAILVIEWSTYLE
  2
AcDbDetailViewStyle
  3
ObjectDBX Classes
 90
1025
 91
0
280
0
281
0
  0
CLASS
  1
MESH
  2
AcDbSubDMesh
  3
ObjectDBX Classes
 90
0
 91
0
280
0
281
1
  0
CLASS
  1
SORTENTSTABLE
  2
AcDbSortentsTable
  3
ObjectDBX Classes
 90
0
 91
0
280
0
281
0
  0
CLASS
  1
ACDB_TEXTOBJECTCONTEXTDATA_CLASS
  2
AcDbTextObjectContextData
  3
ObjectDBX Classes
 90
1153
 91
0
280
0
281
0
  0
CLASS
  1
WIPEOUT
  2
AcDbWipeout
  3
WipeOut
 90
32895
 91
0
280
0
281
1
  0
CLASS
  1
WIPEOUTVARIABLES
  2
AcDbWipeoutVariables
  3
WipeOut
 90
32768
 91
0
280
0
281
0
  0
CLASS
  1
DIMASSOC
  2
AcDbDimAssoc
  3
AcDbDimAssoc
 90
0
 91
0
280
0
281
0
  0
CLASS
  1
ACAD_TABLE
  2
AcDbTable
  3
ObjectDBX Classes
 90
1025
 91
0
280
0
281
1
  0
CLASS
  1
TABLECONTENT
  2
AcDbTableContent
  3
ObjectDBX Classes
 90
1152
 91
0
280
0
281
0
  0
CLASS
  1
TABLEGEOMETRY
  2
AcDbTableGeometry
  3
ObjectDBX Classes
 90
1152
 91
0
280
0
281
0
  0
CLASS
  1
IMAGE
  2
AcDbRasterImage
  3
ISM
 90
32895
 91
0
280
0
281
1
  0
CLASS
  1
IMAGEDEF
  2
AcDbRasterImageDef
  3
ISM
 90
0
 91
0
280
0
281
0
  0
CLASS
  1
IMAGEDEF_REACTOR
  2
AcDbRasterImageDefReactor
  3
ISM
 90
1
 91
0
280
0
281
0
  0
CLASS
  1
DBCOLOR
  2
AcDbColor
  3
ObjectDBX Classes
 90
0
 91
0
280
0
281
0
  0
CLASS
  1
GEODATA
  2
AcDbGeoData
  3
ObjectDBX Classes
 90
4095
 91
0
280
0
281
0
  0
CLASS
  1
MULTILEADER
  2
AcDbMLeader
  3
ObjectDBX Classes
 90
1025
 91
0
280
0
281
0
  0
CLASS
  1
PDFUNDERLAY
  2
AcDbPdfReference
  3
ObjectDBX Classes
 90
4095
 91
0
280
0
281
1
  0
CLASS
  1
PDFDEFINITION
  2
AcDbPdfDefinition
  3
ObjectDBX Classes
 90
1153
 91
0
280
0
281
0
  0
CLASS
  1
RASTERVARIABLES
  2
AcDbRasterVariables
  3
ISM
 90
0
 91
0
280
0
281
0
  0
CLASS
  1
SPATIAL_FILTER
  2
AcDbSpatialFilter
  3
ObjectDBX Classes
 90
0
 91
0
280
0
281
0
  0
CLASS
  1
ACDB_MLEADEROBJECTCONTEXTDATA_CLASS
  2
AcDbMLeaderObjectContextData
  3
ObjectDBX Classes
 90
1025
 91
0
280
0
281
0
  0
CLASS
  1
PLOTSETTINGS
  2
AcDbPlotSettings
  3
ObjectDBX Classes
 90
0
 91
0
280
0
281
0
  0
CLASS
  1
FIELD
  2
AcDbField
  3
ObjectDBX Classes
 90
1152
 91
0
280
0
281
0
  0
CLASS
  1
FIELDLIST
  2
AcDbFieldList
  3
ObjectDBX Classes
 90
1152
 91
0
280
0
281
0
  0
CLASS
  1
ACDB_MTEXTATTRIBUTEOBJECTCONTEXTDATA_CLASS
  2
AcDbMTextAttributeObjectContextData
  3
ObjectDBX Classes
 90
1153
 91
0
280
0
281
0
  0
CLASS
  1
ACDB_BLKREFOBJECTCONTEXTDATA_CLASS
  2
AcDbBlkRefObjectContextData
  3
ObjectDBX Classes
 90
1153
 91
0
280
0
281
0
  0
ENDSEC
  0
SECTION
  2
TABLES
  0
TABLE
  2
VPORT
  5
18
330
0
100
AcDbSymbolTable
 70
1
  0
VPORT
  5
26
330
18
100
AcDbSymbolTableRecord
100
AcDbViewportTableRecord
  2
*Active
 70
0
 10
0.0
 20
0.0
 11
1.0
 21
1.0
 12
0.0
 22
0.0
 13
0.0
 23
0.0
 14
0.5
 24
0.5
 15
10.0
 25
10.0
 16
0.0
 26
0.0
 36
1.0
 17
0.0
 27
0.0
 37
0.0
 40
10.0
 41
1.0
 75
0
 76
1
  0
ENDTAB
  0
TABLE
  2
LTYPE
  5
14
330
0
100
AcDbSymbolTable
 70
3
  0
LTYPE
  5
19
330
14
100
AcDbSymbolTableRecord
100
AcDbLinetypeTableRecord
  2
ByLayer
 70
0
 72
0
 73
0
 40
0.0
  0
LTYPE
  5
1A
330
14
100
AcDbSymbolTableRecord
100
AcDbLinetypeTableRecord
  2
ByBlock
 70
0
 72
0
 73
0
 40
0.0
  0
LTYPE
  5
1B
330
14
100
AcDbSymbolTableRecord
100
AcDbLinetypeTableRecord
  2
Continuous
 70
0
 72
0
 73
0
 40
0.0
  0
ENDTAB
  0
TABLE
  2
LAYER
  5
13
330
0
100
AcDbSymbolTable
 70
1
  0
LAYER
  5
1C
330
13
100
AcDbSymbolTableRecord
100
AcDbLayerTableRecord
  2
0
 70
0
 62
7
  6
Continuous
290
1
370
-3
390
0
  0
ENDTAB
  0
TABLE
  2
STYLE
  5
15
330
0
100
AcDbSymbolTable
 70
1
  0
STYLE
  5
23
330
15
100
AcDbSymbolTableRecord
100
AcDbTextStyleTableRecord
  2
Standard
 70
0
 40
0.0
 41
1.0
 42
0.0
 50
0.0
 71
0
  0
ENDTAB
  0
TABLE
  2
VIEW
  5
17
330
0
100
AcDbSymbolTable
 70
0
  0
ENDTAB
  0
TABLE
  2
UCS
  5
16
330
0
100
AcDbSymbolTable
 70
0
  0
ENDTAB
  0
TABLE
  2
APPID
  5
10
330
0
100
AcDbSymbolTable
 70
1
  0
APPID
  5
25
330
10
100
AcDbSymbolTableRecord
100
AcDbRegAppTableRecord
  2
ACAD
 70
0
  0
ENDTAB
  0
TABLE
  2
DIMSTYLE
  5
12
330
0
100
AcDbSymbolTable
 70
1
100
AcDbDimStyleTable
  0
DIMSTYLE
105
24
330
12
100
AcDbSymbolTableRecord
100
AcDbDimStyleTableRecord
  2
Standard
 70
0
  3
<>
  4
[]
 40
1.0
 41
0.18
 42
0.625
 43
3.75
 44
1.25
 45
0.0
 46
0.0
 47
0.0
 48
0.0
 49
1.0
 50
45.0
 70
0
 90
0
140
0.18
141
0.09
142
0.0
143
25.3999999999999986
144
1.0
145
0.0
146
1.0
147
0.625
148
0.0
 71
0
 72
0
 73
0
 74
0
 75
0
 76
0
 77
1
 78
8
 79
0
170
0
171
3
172
0
173
1
174
0
175
0
176
0
177
0
178
0
179
0
271
2
272
2
273
2
274
3
275
0
276
0
277
2
278
46
279
0
280
0
281
0
282
0
283
0
284
8
285
0
286
0
287
0
288
0
289
3
290
0
340
0
371
-2
372
-2
  0
ENDTAB
  0
TABLE
  2
BLOCK_RECORD
  5
11
330
0
100
AcDbSymbolTable
 70
2
  0
BLOCK_RECORD
  5
1D
330
11
100
AcDbSymbolTableRecord
100
AcDbBlockTableRecord
  2
*Model_Space
 70
0
340
0
 70
0
280
0
281
1
  0
BLOCK_RECORD
  5
20
330
11
100
AcDbSymbolTableRecord
100
AcDbBlockTableRecord
  2
*Paper_Space
 70
0
340
0
 70
0
280
0
281
1
  0
ENDTAB
  0
ENDSEC
  0
SECTION
  2
BLOCKS
  0
BLOCK
  5
1E
330
1D
100
AcDbEntity
  8
0
  6
ByLayer
 62
256
 48
1.0
 60
0
 67
0
370
-1
100
AcDbBlockBegin
  2
*Model_Space
 70
0
 10
0.0
 20
0.0
 30
0.0
  3
*Model_Space
  0
ENDBLK
  5
1F
330
1D
100
AcDbEntity
  8
0
100
AcDbBlockEnd
  0
BLOCK
  5
21
330
20
100
AcDbEntity
  8
0
  6
ByLayer
 62
256
 48
1.0
 60
0
 67
1
370
-1
100
AcDbBlockBegin
  2
*Paper_Space
 70
0
 10
0.0
 20
0.0
 30
0.0
  3
*Paper_Space
  0
ENDBLK
  5
22
330
20
100
AcDbEntity
  8
0
100
AcDbBlockEnd
  0
ENDSEC
  0
SECTION
  2
ENTITIES
  0
TEXT
  5
27
330
1D
100
AcDbEntity
  8
0
  6
ByLayer
420
1910582
 48
1.0
 60
0
 67
0
370
-1
100
AcDbText
 39
0.0
 10
0.0
 20
1020.5
 30
0.0
 40
28.0
  1
Native Form Controls
 50
0.0
 41
1.0
 51
0.0
  7
Standard
 71
0
 72
0
 11
0.0
 21
0.0
 31
0.0
210
0.0
220
0.0
230
1.0
100
AcDbText
 73
0
  0
HATCH
  5
28
330
1D
100
AcDbEntity
  8
0
  6
ByLayer
420
16777215
 48
1.0
 60
0
 67
0
370
-1
100
AcDbHatch
 30
0.0
210
0.0
220
0.0
230
1.0
  2
SOLID
 70
1
 71
0
 91
1
 92
2
 72
0
 73
1
 93
41
 10
14.0
 20
991.0
 10
417.0
 20
991.0
 10
417.0
 20
991.0
 10
419.73126450822582
 20
990.7309939256451798
 10
422.3575680531112653
 20
989.9343134551579624
 10
424.7779832622744607
 20
988.6405745722356642
 10
426.8994949366116884
 20
986.8994949366116316
 10
428.6405745722356073
 20
984.7779832622744607
 10
429.9343134551580192
 20
982.3575680531112084
 10
430.7309939256452367
 20
979.7312645082257632
 10
431.0
 20
977.0
 10
431.0
 20
678.0
 10
431.0
 20
678.0
 10
430.7309939256452367
 20
675.2687354917741231
 10
429.9343134551580192
 20
672.6424319468887916
 10
428.6405745722356073
 20
670.222016737725653
 10
426.8994949366116884
 20
668.1005050633882547
 10
424.7779832622744607
 20
666.3594254277643358
 10
422.3575680531112653
 20
665.0656865448420376
 10
419.73126450822582
 20
664.2690060743548202
 10
417.0
 20
664.0
 10
14.0
 20
664.0
 10
14.0
 20
664.0
 10
11.2687354917742049
 20
664.2690060743548202
 10
8.6424319468887436
 20
665.0656865448420376
 10
6.2220167377255731
 20
666.3594254277643358
 10
4.1005050633883364
 20
668.1005050633882547
 10
2.3594254277643643
 20
670.222016737725653
 10
1.0656865448419861
 20
672.6424319468887916
 10
0.269006074354774
 20
675.2687354917741231
 10
0.0
 20
678.0
 10
0.0
 20
977.0
 10
0.0
 20
977.0
 10
0.269006074354774
 20
979.7312645082257632
 10
1.0656865448419843
 20
982.3575680531112084
 10
2.3594254277643643
 20
984.7779832622744607
 10
4.1005050633883329
 20
986.8994949366116316
 10
6.2220167377255695
 20
988.6405745722356642
 10
8.6424319468887347
 20
989.9343134551579624
 10
11.2687354917741978
 20
990.7309939256451798
 10
13.9999999999999982
 20
991.0
 97
0
 75
0
 76
1
 47
0.0
 98
0
  0
LWPOLYLINE
  5
29
330
1D
100
AcDbEntity
  8
0
  6
ByLayer
420
14147306
 48
1.0
 60
0
 67
0
370
-1
100
AcDbPolyline
 90
41
 70
1
 43
0.0
 38
0.0
 39
0.0
210
0.0
220
0.0
230
1.0
 10
14.0
 20
991.0
 40
0.0
 41
0.0
 42
0.0
 10
417.0
 20
991.0
 40
0.0
 41
0.0
 42
0.0
 10
417.0
 20
991.0
 40
0.0
 41
0.0
 42
0.0
 10
419.73126450822582
 20
990.7309939256451798
 40
0.0
 41
0.0
 42
0.0
 10
422.3575680531112653
 20
989.9343134551579624
 40
0.0
 41
0.0
 42
0.0
 10
424.7779832622744607
 20
988.6405745722356642
 40
0.0
 41
0.0
 42
0.0
 10
426.8994949366116884
 20
986.8994949366116316
 40
0.0
 41
0.0
 42
0.0
 10
428.6405745722356073
 20
984.7779832622744607
 40
0.0
 41
0.0
 42
0.0
 10
429.9343134551580192
 20
982.3575680531112084
 40
0.0
 41
0.0
 42
0.0
 10
430.7309939256452367
 20
979.7312645082257632
 40
0.0
 41
0.0
 42
0.0
 10
431.0
 20
977.0
 40
0.0
 41
0.0
 42
0.0
 10
431.0
 20
678.0
 40
0.0
 41
0.0
 42
0.0
 10
431.0
 20
678.0
 40
0.0
 41
0.0
 42
0.0
 10
430.7309939256452367
 20
675.2687354917741231
 40
0.0
 41
0.0
 42
0.0
 10
429.9343134551580192
 20
672.6424319468887916
 40
0.0
 41
0.0
 42
0.0
 10
428.6405745722356073
 20
670.222016737725653
 40
0.0
 41
0.0
 42
0.0
 10
426.8994949366116884
 20
668.1005050633882547
 40
0.0
 41
0.0
 42
0.0
 10
424.7779832622744607
 20
666.3594254277643358
 40
0.0
 41
0.0
 42
0.0
 10
422.3575680531112653
 20
665.0656865448420376
 40
0.0
 41
0.0
 42
0.0
 10
419.73126450822582
 20
664.2690060743548202
 40
0.0
 41
0.0
 42
0.0
 10
417.0
 20
664.0
 40
0.0
 41
0.0
 42
0.0
 10
14.0
 20
664.0
 40
0.0
 41
0.0
 42
0.0
 10
14.0
 20
664.0
 40
0.0
 41
0.0
 42
0.0
 10
11.2687354917742049
 20
664.2690060743548202
 40
0.0
 41
0.0
 42
0.0
 10
8.6424319468887436
 20
665.0656865448420376
 40
0.0
 41
0.0
 42
0.0
 10
6.2220167377255731
 20
666.3594254277643358
 40
0.0
 41
0.0
 42
0.0
 10
4.1005050633883364
 20
668.1005050633882547
 40
0.0
 41
0.0
 42
0.0
 10
2.3594254277643643
 20
670.222016737725653
 40
0.0
 41
0.0
 42
0.0
 10
1.0656865448419861
 20
672.6424319468887916
 40
0.0
 41
0.0
 42
0.0
 10
0.269006074354774
 20
675.2687354917741231
 40
0.0
 41
0.0
 42
0.0
 10
0.0
 20
678.0
 40
0.0
 41
0.0
 42
0.0
 10
0.0
 20
977.0
 40
0.0
 41
0.0
 42
0.0
 10
0.0
 20
977.0
 40
0.0
 41
0.0
 42
0.0
 10
0.269006074354774
 20
979.7312645082257632
 40
0.0
 41
0.0
 42
0.0
 10
1.0656865448419843
 20
982.3575680531112084
 40
0.0
 41
0.0
 42
0.0
 10
2.3594254277643643
 20
984.7779832622744607
 40
0.0
 41
0.0
 42
0.0
 10
4.1005050633883329
 20
986.8994949366116316
 40
0.0
 41
0.0
 42
0.0
 10
6.2220167377255695
 20
988.6405745722356642
 40
0.0
 41
0.0
 42
0.0
 10
8.6424319468887347
 20
989.9343134551579624
 40
0.0
 41
0.0
 42
0.0
 10
11.2687354917741978
 20
990.7309939256451798
 40
0.0
 41
0.0
 42
0.0
 10
13.9999999999999982
 20
991.0
 40
0.0
 41
0.0
 42
0.0
  0
TEXT
  5
2A
330
1D
100
AcDbEntity
  8
0
  6
ByLayer
420
1910582
 48
1.0
 60
0
 67
0
370
-1
100
AcDbText
 39
0.0
 10
19.0
 20
959.5
 30
0.0
 40
16.0
  1
Value Fields
 50
0.0
 41
1.0
 51
0.0
  7
Standard
 71
0
 72
0
 11
0.0
 21
0.0
 31
0.0
210
0.0
220
0.0
230
1.0
100
AcDbText
 73
0
  0
TEXT
  5
2B
330
1D
100
AcDbEntity
  8
0
  6
ByLayer
420
4938352
 48
1.0
 60
0
 67
0
370
-1
100
AcDbText
 39
0.0
 10
19.0
 20
930.0
 30
0.0
 40
12.0
  1
TEXT INPUT
 50
0.0
 41
1.0
 51
0.0
  7
Standard
 71
0
 72
0
 11
0.0
 21
0.0
 31
0.0
210
0.0
220
0.0
230
1.0
100
AcDbText
 73
0
  0
HATCH
  5
2C
330
1D
100
AcDbEntity
  8
0
  6
ByLayer
420
16777215
 48
1.0
 60
0
 67
0
370
-1
100
AcDbHatch
 30
0.0
210
0.0
220
0.0
230
1.0
  2
SOLID
 70
1
 71
0
 91
1
 92
2
 72
0
 73
1
 93
41
 10
27.0
 20
920.0
 10
404.0
 20
920.0
 10
404.0
 20
920.0
 10
405.5607225761290238
 20
919.8462822432258008
 10
407.0614674589207311
 20
919.3910362600902317
 10
408.4445618641568103
 20
918.6517568984203308
 10
409.656854249492369
 20
917.6568542494924259
 10
410.6517568984203876
 20
916.4445618641568672
 10
411.3910362600902886
 20
915.0614674589206743
 10
411.8462822432258577
 20
913.5607225761290238
 10
412.0
 20
912.0
 10
412.0
 20
888.0
 10
412.0
 20
888.0
 10
411.8462822432258577
 20
886.4392774238709762
 10
411.3910362600902886
 20
884.938532541079212
 10
410.6517568984203876
 20
883.5554381358431328
 10
409.656854249492369
 20
882.3431457505075741
 10
408.4445618641568103
 20
881.3482431015796692
 10
407.0614674589207311
 20
880.6089637399097683
 10
405.5607225761290238
 20
880.1537177567740855
 10
404.0
 20
880.0
 10
27.0
 20
880.0
 10
27.0
 20
880.0
 10
25.4392774238709762
 20
880.1537177567740855
 10
23.9385325410792831
 20
880.6089637399097683
 10
22.5554381358431826
 20
881.3482431015796692
 10
21.3431457505076203
 20
882.3431457505075741
 10
20.3482431015796372
 20
883.5554381358431328
 10
19.6089637399097043
 20
884.938532541079212
 10
19.1537177567741566
 20
886.4392774238709762
 10
19.0
 20
888.0
 10
19.0
 20
912.0
 10
19.0
 20
912.0
 10
19.1537177567741566
 20
913.5607225761290238
 10
19.6089637399097043
 20
915.0614674589206743
 10
20.3482431015796372
 20
916.4445618641568672
 10
21.3431457505076168
 20
917.6568542494924259
 10
22.5554381358431826
 20
918.6517568984203308
 10
23.938532541079276
 20
919.3910362600902317
 10
25.4392774238709691
 20
919.8462822432258008
 10
27.0
 20
920.0
 97
0
 75
0
 76
1
 47
0.0
 98
0
  0
LWPOLYLINE
  5
2D
330
1D
100
AcDbEntity
  8
0
  6
ByLayer
420
9741240
 48
1.0
 60
0
 67
0
370
-1
100
AcDbPolyline
 90
41
 70
1
 43
0.0
 38
0.0
 39
0.0
210
0.0
220
0.0
230
1.0
 10
27.0
 20
920.0
 40
0.0
 41
0.0
 42
0.0
 10
404.0
 20
920.0
 40
0.0
 41
0.0
 42
0.0
 10
404.0
 20
920.0
 40
0.0
 41
0.0
 42
0.0
 10
405.5607225761290238
 20
919.8462822432258008
 40
0.0
 41
0.0
 42
0.0
 10
407.0614674589207311
 20
919.3910362600902317
 40
0.0
 41
0.0
 42
0.0
 10
408.4445618641568103
 20
918.6517568984203308
 40
0.0
 41
0.0
 42
0.0
 10
409.656854249492369
 20
917.6568542494924259
 40
0.0
 41
0.0
 42
0.0
 10
410.6517568984203876
 20
916.4445618641568672
 40
0.0
 41
0.0
 42
0.0
 10
411.3910362600902886
 20
915.0614674589206743
 40
0.0
 41
0.0
 42
0.0
 10
411.8462822432258577
 20
913.5607225761290238
 40
0.0
 41
0.0
 42
0.0
 10
412.0
 20
912.0
 40
0.0
 41
0.0
 42
0.0
 10
412.0
 20
888.0
 40
0.0
 41
0.0
 42
0.0
 10
412.0
 20
888.0
 40
0.0
 41
0.0
 42
0.0
 10
411.8462822432258577
 20
886.4392774238709762
 40
0.0
 41
0.0
 42
0.0
 10
411.3910362600902886
 20
884.938532541079212
 40
0.0
 41
0.0
 42
0.0
 10
410.6517568984203876
 20
883.5554381358431328
 40
0.0
 41
0.0
 42
0.0
 10
409.656854249492369
 20
882.3431457505075741
 40
0.0
 41
0.0
 42
0.0
 10
408.4445618641568103
 20
881.3482431015796692
 40
0.0
 41
0.0
 42
0.0
 10
407.0614674589207311
 20
880.6089637399097683
 40
0.0
 41
0.0
 42
0.0
 10
405.5607225761290238
 20
880.1537177567740855
 40
0.0
 41
0.0
 42
0.0
 10
404.0
 20
880.0
 40
0.0
 41
0.0
 42
0.0
 10
27.0
 20
880.0
 40
0.0
 41
0.0
 42
0.0
 10
27.0
 20
880.0
 40
0.0
 41
0.0
 42
0.0
 10
25.4392774238709762
 20
880.1537177567740855
 40
0.0
 41
0.0
 42
0.0
 10
23.9385325410792831
 20
880.6089637399097683
 40
0.0
 41
0.0
 42
0.0
 10
22.5554381358431826
 20
881.3482431015796692
 40
0.0
 41
0.0
 42
0.0
 10
21.3431457505076203
 20
882.3431457505075741
 40
0.0
 41
0.0
 42
0.0
 10
20.3482431015796372
 20
883.5554381358431328
 40
0.0
 41
0.0
 42
0.0
 10
19.6089637399097043
 20
884.938532541079212
 40
0.0
 41
0.0
 42
0.0
 10
19.1537177567741566
 20
886.4392774238709762
 40
0.0
 41
0.0
 42
0.0
 10
19.0
 20
888.0
 40
0.0
 41
0.0
 42
0.0
 10
19.0
 20
912.0
 40
0.0
 41
0.0
 42
0.0
 10
19.0
 20
912.0
 40
0.0
 41
0.0
 42
0.0
 10
19.1537177567741566
 20
913.5607225761290238
 40
0.0
 41
0.0
 42
0.0
 10
19.6089637399097043
 20
915.0614674589206743
 40
0.0
 41
0.0
 42
0.0
 10
20.3482431015796372
 20
916.4445618641568672
 40
0.0
 41
0.0
 42
0.0
 10
21.3431457505076168
 20
917.6568542494924259
 40
0.0
 41
0.0
 42
0.0
 10
22.5554381358431826
 20
918.6517568984203308
 40
0.0
 41
0.0
 42
0.0
 10
23.938532541079276
 20
919.3910362600902317
 40
0.0
 41
0.0
 42
0.0
 10
25.4392774238709691
 20
919.8462822432258008
 40
0.0
 41
0.0
 42
0.0
 10
27.0
 20
920.0
 40
0.0
 41
0.0
 42
0.0
  0
TEXT
  5
2E
330
1D
100
AcDbEntity
  8
0
  6
ByLayer
420
1120295
 48
1.0
 60
0
 67
0
370
-1
100
AcDbText
 39
0.0
 10
31.0
 20
896.0
 30
0.0
 40
16.0
  1
Alice Johnson
 50
0.0
 41
1.0
 51
0.0
  7
Standard
 71
0
 72
0
 11
0.0
 21
0.0
 31
0.0
210
0.0
220
0.0
230
1.0
100
AcDbText
 73
0
  0
TEXT
  5
2F
330
1D
100
AcDbEntity
  8
0
  6
ByLayer
420
4938352
 48
1.0
 60
0
 67
0
370
-1
100
AcDbText
 39
0.0
 10
19.0
 20
856.0
 30
0.0
 40
12.0
  1
TEXTAREA
 50
0.0
 41
1.0
 51
0.0
  7
Standard
 71
0
 72
0
 11
0.0
 21
0.0
 31
0.0
210
0.0
220
0.0
230
1.0
100
AcDbText
 73
0
  0
HATCH
  5
30
330
1D
100
AcDbEntity
  8
0
  6
ByLayer
420
16777215
 48
1.0
 60
0
 67
0
370
-1
100
AcDbHatch
 30
0.0
210
0.0
220
0.0
230
1.0
  2
SOLID
 70
1
 71
0
 91
1
 92
2
 72
0
 73
1
 93
41
 10
27.0
 20
846.0
 10
404.0
 20
846.0
 10
404.0
 20
846.0
 10
405.5607225761290238
 20
845.8462822432259145
 10
407.0614674589207311
 20
845.3910362600902317
 10
408.4445618641568103
 20
844.6517568984203308
 10
409.656854249492369
 20
843.6568542494924259
 10
410.6517568984203876
 20
842.4445618641568672
 10
411.3910362600902886
 20
841.061467458920788
 10
411.8462822432258577
 20
839.5607225761290238
 10
412.0
 20
838.0
 10
412.0
 20
766.0
 10
412.0
 20
766.0
 10
411.8462822432258577
 20
764.4392774238709762
 10
411.3910362600902886
 20
762.938532541079212
 10
410.6517568984203876
 20
761.5554381358431328
 10
409.656854249492369
 20
760.3431457505075741
 10
408.4445618641568103
 20
759.3482431015795555
 10
407.0614674589207311
 20
758.6089637399097683
 10
405.5607225761290238
 20
758.1537177567740855
 10
404.0
 20
758.0
 10
27.0
 20
758.0
 10
27.0
 20
758.0
 10
25.4392774238709762
 20
758.1537177567740855
 10
23.9385325410792831
 20
758.6089637399097683
 10
22.5554381358431826
 20
759.3482431015795555
 10
21.3431457505076203
 20
760.3431457505075741
 10
20.3482431015796372
 20
761.5554381358431328
 10
19.6089637399097043
 20
762.938532541079212
 10
19.1537177567741566
 20
764.4392774238709762
 10
19.0
 20
766.0
 10
19.0
 20
838.0
 10
19.0
 20
838.0
 10
19.1537177567741566
 20
839.5607225761290238
 10
19.6089637399097043
 20
841.061467458920788
 10
20.3482431015796372
 20
842.4445618641568672
 10
21.3431457505076168
 20
843.6568542494924259
 10
22.5554381358431826
 20
844.6517568984203308
 10
23.938532541079276
 20
845.3910362600902317
 10
25.4392774238709691
 20
845.8462822432258008
 10
27.0
 20
846.0
 97
0
 75
0
 76
1
 47
0.0
 98
0
  0
LWPOLYLINE
  5
31
330
1D
100
AcDbEntity
  8
0
  6
ByLayer
420
9741240
 48
1.0
 60
0
 67
0
370
-1
100
AcDbPolyline
 90
41
 70
1
 43
0.0
 38
0.0
 39
0.0
210
0.0
220
0.0
230
1.0
 10
27.0
 20
846.0
 40
0.0
 41
0.0
 42
0.0
 10
404.0
 20
846.0
 40
0.0
 41
0.0
 42
0.0
 10
404.0
 20
846.0
 40
0.0
 41
0.0
 42
0.0
 10
405.5607225761290238
 20
845.8462822432259145
 40
0.0
 41
0.0
 42
0.0
 10
407.0614674589207311
 20
845.3910362600902317
 40
0.0
 41
0.0
 42
0.0
 10
408.4445618641568103
 20
844.6517568984203308
 40
0.0
 41
0.0
 42
0.0
 10
409.656854249492369
 20
843.6568542494924259
 40
0.0
 41
0.0
 42
0.0
 10
410.6517568984203876
 20
842.4445618641568672
 40
0.0
 41
0.0
 42
0.0
 10
411.3910362600902886
 20
841.061467458920788
 40
0.0
 41
0.0
 42
0.0
 10
411.8462822432258577
 20
839.5607225761290238
 40
0.0
 41
0.0
 42
0.0
 10
412.0
 20
838.0
 40
0.0
 41
0.0
 42
0.0
 10
412.0
 20
766.0
 40
0.0
 41
0.0
 42
0.0
 10
412.0
 20
766.0
 40
0.0
 41
0.0
 42
0.0
 10
411.8462822432258577
 20
764.4392774238709762
 40
0.0
 41
0.0
 42
0.0
 10
411.3910362600902886
 20
762.938532541079212
 40
0.0
 41
0.0
 42
0.0
 10
410.6517568984203876
 20
761.5554381358431328
 40
0.0
 41
0.0
 42
0.0
 10
409.656854249492369
 20
760.3431457505075741
 40
0.0
 41
0.0
 42
0.0
 10
408.4445618641568103
 20
759.3482431015795555
 40
0.0
 41
0.0
 42
0.0
 10
407.0614674589207311
 20
758.6089637399097683
 40
0.0
 41
0.0
 42
0.0
 10
405.5607225761290238
 20
758.1537177567740855
 40
0.0
 41
0.0
 42
0.0
 10
404.0
 20
758.0
 40
0.0
 41
0.0
 42
0.0
 10
27.0
 20
758.0
 40
0.0
 41
0.0
 42
0.0
 10
27.0
 20
758.0
 40
0.0
 41
0.0
 42
0.0
 10
25.4392774238709762
 20
758.1537177567740855
 40
0.0
 41
0.0
 42
0.0
 10
23.9385325410792831
 20
758.6089637399097683
 40
0.0
 41
0.0
 42
0.0
 10
22.5554381358431826
 20
759.3482431015795555
 40
0.0
 41
0.0
 42
0.0
 10
21.3431457505076203
 20
760.3431457505075741
 40
0.0
 41
0.0
 42
0.0
 10
20.3482431015796372
 20
761.5554381358431328
 40
0.0
 41
0.0
 42
0.0
 10
19.6089637399097043
 20
762.938532541079212
 40
0.0
 41
0.0
 42
0.0
 10
19.1537177567741566
 20
764.4392774238709762
 40
0.0
 41
0.0
 42
0.0
 10
19.0
 20
766.0
 40
0.0
 41
0.0
 42
0.0
 10
19.0
 20
838.0
 40
0.0
 41
0.0
 42
0.0
 10
19.0
 20
838.0
 40
0.0
 41
0.0
 42
0.0
 10
19.1537177567741566
 20
839.5607225761290238
 40
0.0
 41
0.0
 42
0.0
 10
19.6089637399097043
 20
841.061467458920788
 40
0.0
 41
0.0
 42
0.0
 10
20.3482431015796372
 20
842.4445618641568672
 40
0.0
 41
0.0
 42
0.0
 10
21.3431457505076168
 20
843.6568542494924259
 40
0.0
 41
0.0
 42
0.0
 10
22.5554381358431826
 20
844.6517568984203308
 40
0.0
 41
0.0
 42
0.0
 10
23.938532541079276
 20
845.3910362600902317
 40
0.0
 41
0.0
 42
0.0
 10
25.4392774238709691
 20
845.8462822432258008
 40
0.0
 41
0.0
 42
0.0
 10
27.0
 20
846.0
 40
0.0
 41
0.0
 42
0.0
  0
TEXT
  5
32
330
1D
100
AcDbEntity
  8
0
  6
ByLayer
420
1120295
 48
1.0
 60
0
 67
0
370
-1
100
AcDbText
 39
0.0
 10
31.0
 20
822.3999999999999773
 30
0.0
 40
16.0
  1
First line
 50
0.0
 41
1.0
 51
0.0
  7
Standard
 71
0
 72
0
 11
0.0
 21
0.0
 31
0.0
210
0.0
220
0.0
230
1.0
100
AcDbText
 73
0
  0
TEXT
  5
33
330
1D
100
AcDbEntity
  8
0
  6
ByLayer
420
1120295
 48
1.0
 60
0
 67
0
370
-1
100
AcDbText
 39
0.0
 10
31.0
 20
803.2000000000000455
 30
0.0
 40
16.0
  1
Second line
 50
0.0
 41
1.0
 51
0.0
  7
Standard
 71
0
 72
0
 11
0.0
 21
0.0
 31
0.0
210
0.0
220
0.0
230
1.0
100
AcDbText
 73
0
  0
TEXT
  5
34
330
1D
100
AcDbEntity
  8
0
  6
ByLayer
420
1120295
 48
1.0
 60
0
 67
0
370
-1
100
AcDbText
 39
0.0
 10
31.0
 20
784.0
 30
0.0
 40
16.0
  1
Third line
 50
0.0
 41
1.0
 51
0.0
  7
Standard
 71
0
 72
0
 11
0.0
 21
0.0
 31
0.0
210
0.0
220
0.0
230
1.0
100
AcDbText
 73
0
  0
TEXT
  5
35
330
1D
100
AcDbEntity
  8
0
  6
ByLayer
420
4938352
 48
1.0
 60
0
 67
0
370
-1
100
AcDbText
 39
0.0
 10
19.0
 20
734.0
 30
0.0
 40
12.0
  1
SELECT
 50
0.0
 41
1.0
 51
0.0
  7
Standard
 71
0
 72
0
 11
0.0
 21
0.0
 31
0.0
210
0.0
220
0.0
230
1.0
100
AcDbText
 73
0
  0
HATCH
  5
36
330
1D
100
AcDbEntity
  8
0
  6
ByLayer
420
16777215
 48
1.0
 60
0
 67
0
370
-1
100
AcDbHatch
 30
0.0
210
0.0
220
0.0
230
1.0
  2
SOLID
 70
1
 71
0
 91
1
 92
2
 72
0
 73
1
 93
41
 10
27.0
 20
724.0
 10
404.0
 20
724.0
 10
404.0
 20
724.0
 10
405.5607225761290238
 20
723.8462822432259145
 10
407.0614674589207311
 20
723.3910362600902317
 10
408.4445618641568103
 20
722.6517568984204445
 10
409.656854249492369
 20
721.6568542494924259
 10
410.6517568984203876
 20
720.4445618641568672
 10
411.3910362600902886
 20
719.061467458920788
 10
411.8462822432258577
 20
717.5607225761290238
 10
412.0
 20
716.0
 10
412.0
 20
691.0
 10
412.0
 20
691.0
 10
411.8462822432258577
 20
689.4392774238709762
 10
411.3910362600902886
 20
687.938532541079212
 10
410.6517568984203876
 20
686.5554381358431328
 10
409.656854249492369
 20
685.3431457505075741
 10
408.4445618641568103
 20
684.3482431015795555
 10
407.0614674589207311
 20
683.6089637399097683
 10
405.5607225761290238
 20
683.1537177567740855
 10
404.0
 20
683.0
 10
27.0
 20
683.0
 10
27.0
 20
683.0
 10
25.4392774238709762
 20
683.1537177567740855
 10
23.9385325410792831
 20
683.6089637399097683
 10
22.5554381358431826
 20
684.3482431015795555
 10
21.3431457505076203
 20
685.3431457505075741
 10
20.3482431015796372
 20
686.5554381358431328
 10
19.6089637399097043
 20
687.938532541079212
 10
19.1537177567741566
 20
689.4392774238709762
 10
19.0
 20
691.0
 10
19.0
 20
716.0
 10
19.0
 20
716.0
 10
19.1537177567741566
 20
717.5607225761290238
 10
19.6089637399097043
 20
719.061467458920788
 10
20.3482431015796372
 20
720.4445618641568672
 10
21.3431457505076168
 20
721.6568542494924259
 10
22.5554381358431826
 20
722.6517568984204445
 10
23.938532541079276
 20
723.3910362600902317
 10
25.4392774238709691
 20
723.8462822432259145
 10
27.0
 20
724.0
 97
0
 75
0
 76
1
 47
0.0
 98
0
  0
LWPOLYLINE
  5
37
330
1D
100
AcDbEntity
  8
0
  6
ByLayer
420
9741240
 48
1.0
 60
0
 67
0
370
-1
100
AcDbPolyline
 90
41
 70
1
 43
0.0
 38
0.0
 39
0.0
210
0.0
220
0.0
230
1.0
 10
27.0
 20
724.0
 40
0.0
 41
0.0
 42
0.0
 10
404.0
 20
724.0
 40
0.0
 41
0.0
 42
0.0
 10
404.0
 20
724.0
 40
0.0
 41
0.0
 42
0.0
 10
405.5607225761290238
 20
723.8462822432259145
 40
0.0
 41
0.0
 42
0.0
 10
407.0614674589207311
 20
723.3910362600902317
 40
0.0
 41
0.0
 42
0.0
 10
408.4445618641568103
 20
722.6517568984204445
 40
0.0
 41
0.0
 42
0.0
 10
409.656854249492369
 20
721.6568542494924259
 40
0.0
 41
0.0
 42
0.0
 10
410.6517568984203876
 20
720.4445618641568672
 40
0.0
 41
0.0
 42
0.0
 10
411.3910362600902886
 20
719.061467458920788
 40
0.0
 41
0.0
 42
0.0
 10
411.8462822432258577
 20
717.5607225761290238
 40
0.0
 41
0.0
 42
0.0
 10
412.0
 20
716.0
 40
0.0
 41
0.0
 42
0.0
 10
412.0
 20
691.0
 40
0.0
 41
0.0
 42
0.0
 10
412.0
 20
691.0
 40
0.0
 41
0.0
 42
0.0
 10
411.8462822432258577
 20
689.4392774238709762
 40
0.0
 41
0.0
 42
0.0
 10
411.3910362600902886
 20
687.938532541079212
 40
0.0
 41
0.0
 42
0.0
 10
410.6517568984203876
 20
686.5554381358431328
 40
0.0
 41
0.0
 42
0.0
 10
409.656854249492369
 20
685.3431457505075741
 40
0.0
 41
0.0
 42
0.0
 10
408.4445618641568103
 20
684.3482431015795555
 40
0.0
 41
0.0
 42
0.0
 10
407.0614674589207311
 20
683.6089637399097683
 40
0.0
 41
0.0
 42
0.0
 10
405.5607225761290238
 20
683.1537177567740855
 40
0.0
 41
0.0
 42
0.0
 10
404.0
 20
683.0
 40
0.0
 41
0.0
 42
0.0
 10
27.0
 20
683.0
 40
0.0
 41
0.0
 42
0.0
 10
27.0
 20
683.0
 40
0.0
 41
0.0
 42
0.0
 10
25.4392774238709762
 20
683.1537177567740855
 40
0.0
 41
0.0
 42
0.0
 10
23.9385325410792831
 20
683.6089637399097683
 40
0.0
 41
0.0
 42
0.0
 10
22.5554381358431826
 20
684.3482431015795555
 40
0.0
 41
0.0
 42
0.0
 10
21.3431457505076203
 20
685.3431457505075741
 40
0.0
 41
0.0
 42
0.0
 10
20.3482431015796372
 20
686.5554381358431328
 40
0.0
 41
0.0
 42
0.0
 10
19.6089637399097043
 20
687.938532541079212
 40
0.0
 41
0.0
 42
0.0
 10
19.1537177567741566
 20
689.4392774238709762
 40
0.0
 41
0.0
 42
0.0
 10
19.0
 20
691.0
 40
0.0
 41
0.0
 42
0.0
 10
19.0
 20
716.0
 40
0.0
 41
0.0
 42
0.0
 10
19.0
 20
716.0
 40
0.0
 41
0.0
 42
0.0
 10
19.1537177567741566
 20
717.5607225761290238
 40
0.0
 41
0.0
 42
0.0
 10
19.6089637399097043
 20
719.061467458920788
 40
0.0
 41
0.0
 42
0.0
 10
20.3482431015796372
 20
720.4445618641568672
 40
0.0
 41
0.0
 42
0.0
 10
21.3431457505076168
 20
721.6568542494924259
 40
0.0
 41
0.0
 42
0.0
 10
22.5554381358431826
 20
722.6517568984204445
 40
0.0
 41
0.0
 42
0.0
 10
23.938532541079276
 20
723.3910362600902317
 40
0.0
 41
0.0
 42
0.0
 10
25.4392774238709691
 20
723.8462822432259145
 40
0.0
 41
0.0
 42
0.0
 10
27.0
 20
724.0
 40
0.0
 41
0.0
 42
0.0
  0
TEXT
  5
38
330
1D
100
AcDbEntity
  8
0
  6
ByLayer
420
1120295
 48
1.0
 60
0
 67
0
370
-1
100
AcDbText
 39
0.0
 10
31.0
 20
699.5
 30
0.0
 40
16.0
  1
Normal
 50
0.0
 41
1.0
 51
0.0
  7
Standard
 71
0
 72
0
 11
0.0
 21
0.0
 31
0.0
210
0.0
220
0.0
230
1.0
100
AcDbText
 73
0
  0
LWPOLYLINE
  5
39
330
1D
100
AcDbEntity
  8
0
  6
ByLayer
420
5263440
 48
1.0
 60
0
 67
0
370
-1
100
AcDbPolyline
 90
3
 70
0
 43
0.0
 38
0.0
 39
0.0
210
0.0
220
0.0
230
1.0
 10
399.0
 20
705.2599999999999909
 40
0.0
 41
0.0
 42
0.0
 10
403.0
 20
701.7400000000000091
 40
0.0
 41
0.0
 42
0.0
 10
407.0
 20
705.2599999999999909
 40
0.0
 41
0.0
 42
0.0
  0
HATCH
  5
3A
330
1D
100
AcDbEntity
  8
0
  6
ByLayer
420
16777215
 48
1.0
 60
0
 67
0
370
-1
100
AcDbHatch
 30
0.0
210
0.0
220
0.0
230
1.0
  2
SOLID
 70
1
 71
0
 91
1
 92
2
 72
0
 73
1
 93
41
 10
463.0
 20
991.0
 10
866.0
 20
991.0
 10
866.0
 20
991.0
 10
868.7312645082257632
 20
990.7309939256451798
 10
871.3575680531112084
 20
989.9343134551579624
 10
873.7779832622744607
 20
988.6405745722356642
 10
875.8994949366116316
 20
986.8994949366116316
 10
877.6405745722356642
 20
984.7779832622744607
 10
878.9343134551579624
 20
982.3575680531112084
 10
879.7309939256451798
 20
979.7312645082257632
 10
880.0
 20
977.0
 10
880.0
 20
678.0
 10
880.0
 20
678.0
 10
879.7309939256451798
 20
675.2687354917741231
 10
878.9343134551579624
 20
672.6424319468887916
 10
877.6405745722356642
 20
670.222016737725653
 10
875.8994949366116316
 20
668.1005050633882547
 10
873.7779832622744607
 20
666.3594254277643358
 10
871.3575680531112084
 20
665.0656865448420376
 10
868.7312645082257632
 20
664.2690060743548202
 10
866.0
 20
664.0
 10
463.0
 20
664.0
 10
463.0
 20
664.0
 10
460.26873549177418
 20
664.2690060743548202
 10
457.6424319468887347
 20
665.0656865448420376
 10
455.2220167377255962
 20
666.3594254277643358
 10
453.1005050633883116
 20
668.1005050633882547
 10
451.3594254277643358
 20
670.222016737725653
 10
450.0656865448419808
 20
672.6424319468887916
 10
449.2690060743547633
 20
675.2687354917741231
 10
449.0
 20
678.0
 10
449.0
 20
977.0
 10
449.0
 20
977.0
 10
449.2690060743547633
 20
979.7312645082257632
 10
450.0656865448419808
 20
982.3575680531112084
 10
451.3594254277643358
 20
984.7779832622744607
 10
453.1005050633883116
 20
986.8994949366116316
 10
455.2220167377255962
 20
988.6405745722356642
 10
457.6424319468887347
 20
989.9343134551579624
 10
460.26873549177418
 20
990.7309939256451798
 10
463.0
 20
991.0
 97
0
 75
0
 76
1
 47
0.0
 98
0
  0
LWPOLYLINE
  5
3B
330
1D
100
AcDbEntity
  8
0
  6
ByLayer
420
14147306
 48
1.0
 60
0
 67
0
370
-1
100
AcDbPolyline
 90
41
 70
1
 43
0.0
 38
0.0
 39
0.0
210
0.0
220
0.0
230
1.0
 10
463.0
 20
991.0
 40
0.0
 41
0.0
 42
0.0
 10
866.0
 20
991.0
 40
0.0
 41
0.0
 42
0.0
 10
866.0
 20
991.0
 40
0.0
 41
0.0
 42
0.0
 10
868.7312645082257632
 20
990.7309939256451798
 40
0.0
 41
0.0
 42
0.0
 10
871.3575680531112084
 20
989.9343134551579624
 40
0.0
 41
0.0
 42
0.0
 10
873.7779832622744607
 20
988.6405745722356642
 40
0.0
 41
0.0
 42
0.0
 10
875.8994949366116316
 20
986.8994949366116316
 40
0.0
 41
0.0
 42
0.0
 10
877.6405745722356642
 20
984.7779832622744607
 40
0.0
 41
0.0
 42
0.0
 10
878.9343134551579624
 20
982.3575680531112084
 40
0.0
 41
0.0
 42
0.0
 10
879.7309939256451798
 20
979.7312645082257632
 40
0.0
 41
0.0
 42
0.0
 10
880.0
 20
977.0
 40
0.0
 41
0.0
 42
0.0
 10
880.0
 20
678.0
 40
0.0
 41
0.0
 42
0.0
 10
880.0
 20
678.0
 40
0.0
 41
0.0
 42
0.0
 10
879.7309939256451798
 20
675.2687354917741231
 40
0.0
 41
0.0
 42
0.0
 10
878.9343134551579624
 20
672.6424319468887916
 40
0.0
 41
0.0
 42
0.0
 10
877.6405745722356642
 20
670.222016737725653
 40
0.0
 41
0.0
 42
0.0
 10
875.8994949366116316
 20
668.1005050633882547
 40
0.0
 41
0.0
 42
0.0
 10
873.7779832622744607
 20
666.3594254277643358
 40
0.0
 41
0.0
 42
0.0
 10
871.3575680531112084
 20
665.0656865448420376
 40
0.0
 41
0.0
 42
0.0
 10
868.7312645082257632
 20
664.2690060743548202
 40
0.0
 41
0.0
 42
0.0
 10
866.0
 20
664.0
 40
0.0
 41
0.0
 42
0.0
 10
463.0
 20
664.0
 40
0.0
 41
0.0
 42
0.0
 10
463.0
 20
664.0
 40
0.0
 41
0.0
 42
0.0
 10
460.26873549177418
 20
664.2690060743548202
 40
0.0
 41
0.0
 42
0.0
 10
457.6424319468887347
 20
665.0656865448420376
 40
0.0
 41
0.0
 42
0.0
 10
455.2220167377255962
 20
666.3594254277643358
 40
0.0
 41
0.0
 42
0.0
 10
453.1005050633883116
 20
668.1005050633882547
 40
0.0
 41
0.0
 42
0.0
 10
451.3594254277643358
 20
670.222016737725653
 40
0.0
 41
0.0
 42
0.0
 10
450.0656865448419808
 20
672.6424319468887916
 40
0.0
 41
0.0
 42
0.0
 10
449.2690060743547633
 20
675.2687354917741231
 40
0.0
 41
0.0
 42
0.0
 10
449.0
 20
678.0
 40
0.0
 41
0.0
 42
0.0
 10
449.0
 20
977.0
 40
0.0
 41
0.0
 42
0.0
 10
449.0
 20
977.0
 40
0.0
 41
0.0
 42
0.0
 10
449.2690060743547633
 20
979.7312645082257632
 40
0.0
 41
0.0
 42
0.0
 10
450.0656865448419808
 20
982.3575680531112084
 40
0.0
 41
0.0
 42
0.0
 10
451.3594254277643358
 20
984.7779832622744607
 40
0.0
 41
0.0
 42
0.0
 10
453.1005050633883116
 20
986.8994949366116316
 40
0.0
 41
0.0
 42
0.0
 10
455.2220167377255962
 20
988.6405745722356642
 40
0.0
 41
0.0
 42
0.0
 10
457.6424319468887347
 20
989.9343134551579624
 40
0.0
 41
0.0
 42
0.0
 10
460.26873549177418
 20
990.7309939256451798
 40
0.0
 41
0.0
 42
0.0
 10
463.0
 20
991.0
 40
0.0
 41
0.0
 42
0.0
  0
TEXT
  5
3C
330
1D
100
AcDbEntity
  8
0
  6
ByLayer
420
1910582
 48
1.0
 60
0
 67
0
370
-1
100
AcDbText
 39
0.0
 10
468.0
 20
959.5
 30
0.0
 40
16.0
  1
State Fields
 50
0.0
 41
1.0
 51
0.0
  7
Standard
 71
0
 72
0
 11
0.0
 21
0.0
 31
0.0
210
0.0
220
0.0
230
1.0
100
AcDbText
 73
0
  0
HATCH
  5
3D
330
1D
100
AcDbEntity
  8
0
  6
ByLayer
420
1008382
 48
1.0
 60
0
 67
0
370
-1
100
AcDbHatch
 30
0.0
210
0.0
220
0.0
230
1.0
  2
SOLID
 70
1
 71
0
 91
1
 92
2
 72
0
 73
1
 93
41
 10
474.0
 20
937.0
 10
488.0
 20
937.0
 10
488.0
 20
937.0
 10
488.3901806440322844
 20
936.9615705608064218
 10
488.765366864730197
 20
936.8477590650226148
 10
489.1111404660392168
 20
936.6629392246051111
 10
489.4142135623731065
 20
936.4142135623731065
 10
489.6629392246051111
 20
936.1111404660391599
 10
489.8477590650225579
 20
935.7653668647301402
 10
489.9615705608064786
 20
935.3901806440322844
 10
490.0
 20
935.0
 10
490.0
 20
921.0
 10
490.0
 20
921.0
 10
489.9615705608064786
 20
920.6098193559677156
 10
489.8477590650225579
 20
920.2346331352698598
 10
489.6629392246051111
 20
919.8888595339608401
 10
489.4142135623731065
 20
919.5857864376268935
 10
489.1111404660392168
 20
919.3370607753948889
 10
488.765366864730197
 20
919.1522409349773852
 10
488.3901806440322844
 20
919.0384294391935782
 10
488.0
 20
919.0
 10
474.0
 20
919.0
 10
474.0
 20
919.0
 10
473.6098193559677156
 20
919.0384294391935782
 10
473.234633135269803
 20
919.1522409349773852
 10
472.8888595339607832
 20
919.3370607753948889
 10
472.5857864376268935
 20
919.5857864376268935
 10
472.3370607753948889
 20
919.8888595339608401
 10
472.1522409349774421
 20
920.2346331352698598
 10
472.0384294391935214
 20
920.6098193559677156
 10
472.0
 20
921.0
 10
472.0
 20
935.0
 10
472.0
 20
935.0
 10
472.0384294391935214
 20
935.3901806440322844
 10
472.1522409349774421
 20
935.7653668647301402
 10
472.3370607753948889
 20
936.1111404660391599
 10
472.5857864376268935
 20
936.4142135623731065
 10
472.8888595339607832
 20
936.6629392246051111
 10
473.234633135269803
 20
936.8477590650226148
 10
473.6098193559677156
 20
936.9615705608064218
 10
474.0
 20
937.0
 97
0
 75
0
 76
1
 47
0.0
 98
0
  0
LWPOLYLINE
  5
3E
330
1D
100
AcDbEntity
  8
0
  6
ByLayer
420
1008382
 48
1.0
 60
0
 67
0
370
-1
100
AcDbPolyline
 90
41
 70
1
 43
0.0
 38
0.0
 39
0.0
210
0.0
220
0.0
230
1.0
 10
474.0
 20
937.0
 40
0.0
 41
0.0
 42
0.0
 10
488.0
 20
937.0
 40
0.0
 41
0.0
 42
0.0
 10
488.0
 20
937.0
 40
0.0
 41
0.0
 42
0.0
 10
488.3901806440322844
 20
936.9615705608064218
 40
0.0
 41
0.0
 42
0.0
 10
488.765366864730197
 20
936.8477590650226148
 40
0.0
 41
0.0
 42
0.0
 10
489.1111404660392168
 20
936.6629392246051111
 40
0.0
 41
0.0
 42
0.0
 10
489.4142135623731065
 20
936.4142135623731065
 40
0.0
 41
0.0
 42
0.0
 10
489.6629392246051111
 20
936.1111404660391599
 40
0.0
 41
0.0
 42
0.0
 10
489.8477590650225579
 20
935.7653668647301402
 40
0.0
 41
0.0
 42
0.0
 10
489.9615705608064786
 20
935.3901806440322844
 40
0.0
 41
0.0
 42
0.0
 10
490.0
 20
935.0
 40
0.0
 41
0.0
 42
0.0
 10
490.0
 20
921.0
 40
0.0
 41
0.0
 42
0.0
 10
490.0
 20
921.0
 40
0.0
 41
0.0
 42
0.0
 10
489.9615705608064786
 20
920.6098193559677156
 40
0.0
 41
0.0
 42
0.0
 10
489.8477590650225579
 20
920.2346331352698598
 40
0.0
 41
0.0
 42
0.0
 10
489.6629392246051111
 20
919.8888595339608401
 40
0.0
 41
0.0
 42
0.0
 10
489.4142135623731065
 20
919.5857864376268935
 40
0.0
 41
0.0
 42
0.0
 10
489.1111404660392168
 20
919.3370607753948889
 40
0.0
 41
0.0
 42
0.0
 10
488.765366864730197
 20
919.1522409349773852
 40
0.0
 41
0.0
 42
0.0
 10
488.3901806440322844
 20
919.0384294391935782
 40
0.0
 41
0.0
 42
0.0
 10
488.0
 20
919.0
 40
0.0
 41
0.0
 42
0.0
 10
474.0
 20
919.0
 40
0.0
 41
0.0
 42
0.0
 10
474.0
 20
919.0
 40
0.0
 41
0.0
 42
0.0
 10
473.6098193559677156
 20
919.0384294391935782
 40
0.0
 41
0.0
 42
0.0
 10
473.234633135269803
 20
919.1522409349773852
 40
0.0
 41
0.0
 42
0.0
 10
472.8888595339607832
 20
919.3370607753948889
 40
0.0
 41
0.0
 42
0.0
 10
472.5857864376268935
 20
919.5857864376268935
 40
0.0
 41
0.0
 42
0.0
 10
472.3370607753948889
 20
919.8888595339608401
 40
0.0
 41
0.0
 42
0.0
 10
472.1522409349774421
 20
920.2346331352698598
 40
0.0
 41
0.0
 42
0.0
 10
472.0384294391935214
 20
920.6098193559677156
 40
0.0
 41
0.0
 42
0.0
 10
472.0
 20
921.0
 40
0.0
 41
0.0
 42
0.0
 10
472.0
 20
935.0
 40
0.0
 41
0.0
 42
0.0
 10
472.0
 20
935.0
 40
0.0
 41
0.0
 42
0.0
 10
472.0384294391935214
 20
935.3901806440322844
 40
0.0
 41
0.0
 42
0.0
 10
472.1522409349774421
 20
935.7653668647301402
 40
0.0
 41
0.0
 42
0.0
 10
472.3370607753948889
 20
936.1111404660391599
 40
0.0
 41
0.0
 42
0.0
 10
472.5857864376268935
 20
936.4142135623731065
 40
0.0
 41
0.0
 42
0.0
 10
472.8888595339607832
 20
936.6629392246051111
 40
0.0
 41
0.0
 42
0.0
 10
473.234633135269803
 20
936.8477590650226148
 40
0.0
 41
0.0
 42
0.0
 10
473.6098193559677156
 20
936.9615705608064218
 40
0.0
 41
0.0
 42
0.0
 10
474.0
 20
937.0
 40
0.0
 41
0.0
 42
0.0
  0
LWPOLYLINE
  5
3F
330
1D
100
AcDbEntity
  8
0
  6
ByLayer
420
16777215
 48
1.0
 60
0
 67
0
370
-1
100
AcDbPolyline
 90
3
 70
0
 43
0.0
 38
0.0
 39
0.0
210
0.0
220
0.0
230
1.0
 10
475.9599999999999795
 20
927.2799999999999727
 40
0.0
 41
0.0
 42
0.0
 10
479.5600000000000023
 20
923.6800000000000637
 40
0.0
 41
0.0
 42
0.0
 10
486.0400000000000205
 20
931.6000000000000227
 40
0.0
 41
0.0
 42
0.0
  0
TEXT
  5
40
330
1D
100
AcDbEntity
  8
0
  6
ByLayer
420
4938352
 48
1.0
 60
0
 67
0
370
-1
100
AcDbText
 39
0.0
 10
503.0
 20
925.0
 30
0.0
 40
12.0
  1
CHECKED CHECKBOX
 50
0.0
 41
1.0
 51
0.0
  7
Standard
 71
0
 72
0
 11
0.0
 21
0.0
 31
0.0
210
0.0
220
0.0
230
1.0
100
AcDbText
 73
0
  0
HATCH
  5
41
330
1D
100
AcDbEntity
  8
0
  6
ByLayer
420
1008382
 48
1.0
 60
0
 67
0
370
-1
100
AcDbHatch
 30
0.0
210
0.0
220
0.0
230
1.0
  2
SOLID
 70
1
 71
0
 91
1
 92
2
 72
0
 73
1
 93
41
 10
474.0
 20
901.0
 10
488.0
 20
901.0
 10
488.0
 20
901.0
 10
488.3901806440322844
 20
900.9615705608064218
 10
488.765366864730197
 20
900.8477590650226148
 10
489.1111404660392168
 20
900.6629392246051111
 10
489.4142135623731065
 20
900.4142135623731065
 10
489.6629392246051111
 20
900.1111404660391599
 10
489.8477590650225579
 20
899.7653668647301402
 10
489.9615705608064786
 20
899.3901806440322844
 10
490.0
 20
899.0
 10
490.0
 20
885.0
 10
490.0
 20
885.0
 10
489.9615705608064786
 20
884.6098193559677156
 10
489.8477590650225579
 20
884.2346331352698598
 10
489.6629392246051111
 20
883.8888595339608401
 10
489.4142135623731065
 20
883.5857864376268935
 10
489.1111404660392168
 20
883.3370607753948889
 10
488.765366864730197
 20
883.1522409349773852
 10
488.3901806440322844
 20
883.0384294391935782
 10
488.0
 20
883.0
 10
474.0
 20
883.0
 10
474.0
 20
883.0
 10
473.6098193559677156
 20
883.0384294391935782
 10
473.234633135269803
 20
883.1522409349773852
 10
472.8888595339607832
 20
883.3370607753948889
 10
472.5857864376268935
 20
883.5857864376268935
 10
472.3370607753948889
 20
883.8888595339608401
 10
472.1522409349774421
 20
884.2346331352698598
 10
472.0384294391935214
 20
884.6098193559677156
 10
472.0
 20
885.0
 10
472.0
 20
899.0
 10
472.0
 20
899.0
 10
472.0384294391935214
 20
899.3901806440322844
 10
472.1522409349774421
 20
899.7653668647301402
 10
472.3370607753948889
 20
900.1111404660391599
 10
472.5857864376268935
 20
900.4142135623731065
 10
472.8888595339607832
 20
900.6629392246051111
 10
473.234633135269803
 20
900.8477590650226148
 10
473.6098193559677156
 20
900.9615705608064218
 10
474.0
 20
901.0
 97
0
 75
0
 76
1
 47
0.0
 98
0
  0
LWPOLYLINE
  5
42
330
1D
100
AcDbEntity
  8
0
  6
ByLayer
420
1008382
 48
1.0
 60
0
 67
0
370
-1
100
AcDbPolyline
 90
41
 70
1
 43
0.0
 38
0.0
 39
0.0
210
0.0
220
0.0
230
1.0
 10
474.0
 20
901.0
 40
0.0
 41
0.0
 42
0.0
 10
488.0
 20
901.0
 40
0.0
 41
0.0
 42
0.0
 10
488.0
 20
901.0
 40
0.0
 41
0.0
 42
0.0
 10
488.3901806440322844
 20
900.9615705608064218
 40
0.0
 41
0.0
 42
0.0
 10
488.765366864730197
 20
900.8477590650226148
 40
0.0
 41
0.0
 42
0.0
 10
489.1111404660392168
 20
900.6629392246051111
 40
0.0
 41
0.0
 42
0.0
 10
489.4142135623731065
 20
900.4142135623731065
 40
0.0
 41
0.0
 42
0.0
 10
489.6629392246051111
 20
900.1111404660391599
 40
0.0
 41
0.0
 42
0.0
 10
489.8477590650225579
 20
899.7653668647301402
 40
0.0
 41
0.0
 42
0.0
 10
489.9615705608064786
 20
899.3901806440322844
 40
0.0
 41
0.0
 42
0.0
 10
490.0
 20
899.0
 40
0.0
 41
0.0
 42
0.0
 10
490.0
 20
885.0
 40
0.0
 41
0.0
 42
0.0
 10
490.0
 20
885.0
 40
0.0
 41
0.0
 42
0.0
 10
489.9615705608064786
 20
884.6098193559677156
 40
0.0
 41
0.0
 42
0.0
 10
489.8477590650225579
 20
884.2346331352698598
 40
0.0
 41
0.0
 42
0.0
 10
489.6629392246051111
 20
883.8888595339608401
 40
0.0
 41
0.0
 42
0.0
 10
489.4142135623731065
 20
883.5857864376268935
 40
0.0
 41
0.0
 42
0.0
 10
489.1111404660392168
 20
883.3370607753948889
 40
0.0
 41
0.0
 42
0.0
 10
488.765366864730197
 20
883.1522409349773852
 40
0.0
 41
0.0
 42
0.0
 10
488.3901806440322844
 20
883.0384294391935782
 40
0.0
 41
0.0
 42
0.0
 10
488.0
 20
883.0
 40
0.0
 41
0.0
 42
0.0
 10
474.0
 20
883.0
 40
0.0
 41
0.0
 42
0.0
 10
474.0
 20
883.0
 40
0.0
 41
0.0
 42
0.0
 10
473.6098193559677156
 20
883.0384294391935782
 40
0.0
 41
0.0
 42
0.0
 10
473.234633135269803
 20
883.1522409349773852
 40
0.0
 41
0.0
 42
0.0
 10
472.8888595339607832
 20
883.3370607753948889
 40
0.0
 41
0.0
 42
0.0
 10
472.5857864376268935
 20
883.5857864376268935
 40
0.0
 41
0.0
 42
0.0
 10
472.3370607753948889
 20
883.8888595339608401
 40
0.0
 41
0.0
 42
0.0
 10
472.1522409349774421
 20
884.2346331352698598
 40
0.0
 41
0.0
 42
0.0
 10
472.0384294391935214
 20
884.6098193559677156
 40
0.0
 41
0.0
 42
0.0
 10
472.0
 20
885.0
 40
0.0
 41
0.0
 42
0.0
 10
472.0
 20
899.0
 40
0.0
 41
0.0
 42
0.0
 10
472.0
 20
899.0
 40
0.0
 41
0.0
 42
0.0
 10
472.0384294391935214
 20
899.3901806440322844
 40
0.0
 41
0.0
 42
0.0
 10
472.1522409349774421
 20
899.7653668647301402
 40
0.0
 41
0.0
 42
0.0
 10
472.3370607753948889
 20
900.1111404660391599
 40
0.0
 41
0.0
 42
0.0
 10
472.5857864376268935
 20
900.4142135623731065
 40
0.0
 41
0.0
 42
0.0
 10
472.8888595339607832
 20
900.6629392246051111
 40
0.0
 41
0.0
 42
0.0
 10
473.234633135269803
 20
900.8477590650226148
 40
0.0
 41
0.0
 42
0.0
 10
473.6098193559677156
 20
900.9615705608064218
 40
0.0
 41
0.0
 42
0.0
 10
474.0
 20
901.0
 40
0.0
 41
0.0
 42
0.0
  0
HATCH
  5
43
330
1D
100
AcDbEntity
  8
0
  6
ByLayer
420
16777215
 48
1.0
 60
0
 67
0
370
-1
100
AcDbHatch
 30
0.0
210
0.0
220
0.0
230
1.0
  2
SOLID
 70
1
 71
0
 91
1
 92
2
 72
0
 73
1
 93
4
 10
475.6000000000000227
 20
893.2599999999999909
 10
486.3999999999999773
 20
893.2599999999999909
 10
486.3999999999999773
 20
890.7400000000000091
 10
475.6000000000000227
 20
890.7400000000000091
 97
0
 75
0
 76
1
 47
0.0
 98
0
  0
LWPOLYLINE
  5
44
330
1D
100
AcDbEntity
  8
0
  6
ByLayer
420
16777215
 48
1.0
 60
0
 67
0
370
-1
100
AcDbPolyline
 90
4
 70
1
 43
0.0
 38
0.0
 39
0.0
210
0.0
220
0.0
230
1.0
 10
475.6000000000000227
 20
893.2599999999999909
 40
0.0
 41
0.0
 42
0.0
 10
486.3999999999999773
 20
893.2599999999999909
 40
0.0
 41
0.0
 42
0.0
 10
486.3999999999999773
 20
890.7400000000000091
 40
0.0
 41
0.0
 42
0.0
 10
475.6000000000000227
 20
890.7400000000000091
 40
0.0
 41
0.0
 42
0.0
  0
TEXT
  5
45
330
1D
100
AcDbEntity
  8
0
  6
ByLayer
420
4938352
 48
1.0
 60
0
 67
0
370
-1
100
AcDbText
 39
0.0
 10
503.0
 20
889.0
 30
0.0
 40
12.0
  1
INDETERMINATE CHECKBOX
 50
0.0
 41
1.0
 51
0.0
  7
Standard
 71
0
 72
0
 11
0.0
 21
0.0
 31
0.0
210
0.0
220
0.0
230
1.0
100
AcDbText
 73
0
  0
HATCH
  5
46
330
1D
100
AcDbEntity
  8
0
  6
ByLayer
420
16777215
 48
1.0
 60
0
 67
0
370
-1
100
AcDbHatch
 30
0.0
210
0.0
220
0.0
230
1.0
  2
SOLID
 70
1
 71
0
 91
1
 92
2
 72
0
 73
1
 93
28
 10
491.0
 20
856.0
 10
490.7743512096363929
 20
853.9973115943931816
 10
490.1087198111217731
 20
852.0950463479420023
 10
489.0364833422122501
 20
850.3885917832714085
 10
487.6114082167285915
 20
848.9635166577877499
 10
485.9049536520579977
 20
847.8912801888782269
 10
484.0026884056068184
 20
847.2256487903636071
 10
482.0
 20
847.0
 10
479.9973115943931816
 20
847.2256487903636071
 10
478.0950463479420023
 20
847.8912801888782269
 10
476.3885917832714085
 20
848.9635166577877499
 10
474.9635166577877499
 20
850.3885917832714085
 10
473.8912801888782269
 20
852.0950463479420023
 10
473.2256487903636071
 20
853.9973115943931816
 10
473.0
 20
856.0
 10
473.2256487903636071
 20
858.0026884056068184
 10
473.8912801888782269
 20
859.9049536520579977
 10
474.9635166577877499
 20
861.6114082167285915
 10
476.3885917832714085
 20
863.0364833422122501
 10
478.0950463479420023
 20
864.1087198111217731
 10
479.9973115943931816
 20
864.7743512096363929
 10
482.0
 20
865.0
 10
484.0026884056068184
 20
864.7743512096363929
 10
485.9049536520579977
 20
864.1087198111217731
 10
487.6114082167285915
 20
863.0364833422122501
 10
489.0364833422122501
 20
861.6114082167285915
 10
490.1087198111217731
 20
859.9049536520579977
 10
490.7743512096363929
 20
858.0026884056068184
 97
0
 75
0
 76
1
 47
0.0
 98
0
  0
LWPOLYLINE
  5
47
330
1D
100
AcDbEntity
  8
0
  6
ByLayer
420
1008382
 48
1.0
 60
0
 67
0
370
-1
100
AcDbPolyline
 90
28
 70
1
 43
0.0
 38
0.0
 39
0.0
210
0.0
220
0.0
230
1.0
 10
491.0
 20
856.0
 40
0.0
 41
0.0
 42
0.0
 10
490.7743512096363929
 20
853.9973115943931816
 40
0.0
 41
0.0
 42
0.0
 10
490.1087198111217731
 20
852.0950463479420023
 40
0.0
 41
0.0
 42
0.0
 10
489.0364833422122501
 20
850.3885917832714085
 40
0.0
 41
0.0
 42
0.0
 10
487.6114082167285915
 20
848.9635166577877499
 40
0.0
 41
0.0
 42
0.0
 10
485.9049536520579977
 20
847.8912801888782269
 40
0.0
 41
0.0
 42
0.0
 10
484.0026884056068184
 20
847.2256487903636071
 40
0.0
 41
0.0
 42
0.0
 10
482.0
 20
847.0
 40
0.0
 41
0.0
 42
0.0
 10
479.9973115943931816
 20
847.2256487903636071
 40
0.0
 41
0.0
 42
0.0
 10
478.0950463479420023
 20
847.8912801888782269
 40
0.0
 41
0.0
 42
0.0
 10
476.3885917832714085
 20
848.9635166577877499
 40
0.0
 41
0.0
 42
0.0
 10
474.9635166577877499
 20
850.3885917832714085
 40
0.0
 41
0.0
 42
0.0
 10
473.8912801888782269
 20
852.0950463479420023
 40
0.0
 41
0.0
 42
0.0
 10
473.2256487903636071
 20
853.9973115943931816
 40
0.0
 41
0.0
 42
0.0
 10
473.0
 20
856.0
 40
0.0
 41
0.0
 42
0.0
 10
473.2256487903636071
 20
858.0026884056068184
 40
0.0
 41
0.0
 42
0.0
 10
473.8912801888782269
 20
859.9049536520579977
 40
0.0
 41
0.0
 42
0.0
 10
474.9635166577877499
 20
861.6114082167285915
 40
0.0
 41
0.0
 42
0.0
 10
476.3885917832714085
 20
863.0364833422122501
 40
0.0
 41
0.0
 42
0.0
 10
478.0950463479420023
 20
864.1087198111217731
 40
0.0
 41
0.0
 42
0.0
 10
479.9973115943931816
 20
864.7743512096363929
 40
0.0
 41
0.0
 42
0.0
 10
482.0
 20
865.0
 40
0.0
 41
0.0
 42
0.0
 10
484.0026884056068184
 20
864.7743512096363929
 40
0.0
 41
0.0
 42
0.0
 10
485.9049536520579977
 20
864.1087198111217731
 40
0.0
 41
0.0
 42
0.0
 10
487.6114082167285915
 20
863.0364833422122501
 40
0.0
 41
0.0
 42
0.0
 10
489.0364833422122501
 20
861.6114082167285915
 40
0.0
 41
0.0
 42
0.0
 10
490.1087198111217731
 20
859.9049536520579977
 40
0.0
 41
0.0
 42
0.0
 10
490.7743512096363929
 20
858.0026884056068184
 40
0.0
 41
0.0
 42
0.0
  0
HATCH
  5
48
330
1D
100
AcDbEntity
  8
0
  6
ByLayer
420
1008382
 48
1.0
 60
0
 67
0
370
-1
100
AcDbHatch
 30
0.0
210
0.0
220
0.0
230
1.0
  2
SOLID
 70
1
 71
0
 91
1
 92
2
 72
0
 73
1
 93
24
 10
485.7799999999999727
 20
856.0
 10
485.6511996233726904
 20
855.0216640095125058
 10
485.273576026305193
 20
854.1100000000000136
 10
484.6728636328851394
 20
853.3271363671149174
 10
483.8899999999999864
 20
852.7264239736948639
 10
482.978335990487551
 20
852.3488003766273096
 10
482.0
 20
852.2200000000000273
 10
481.021664009512449
 20
852.3488003766273096
 10
480.1100000000000136
 20
852.7264239736948639
 10
479.3271363671148606
 20
853.3271363671149174
 10
478.726423973694807
 20
854.1100000000000136
 10
478.3488003766273096
 20
855.0216640095125058
 10
478.2200000000000273
 20
856.0
 10
478.3488003766273096
 20
856.9783359904874942
 10
478.726423973694807
 20
857.8899999999999864
 10
479.3271363671148606
 20
858.6728636328850826
 10
480.1100000000000136
 20
859.2735760263051361
 10
481.021664009512449
 20
859.6511996233726904
 10
482.0
 20
859.7799999999999727
 10
482.978335990487551
 20
859.6511996233726904
 10
483.8899999999999864
 20
859.2735760263051361
 10
484.6728636328851394
 20
858.6728636328850826
 10
485.273576026305193
 20
857.8899999999999864
 10
485.6511996233726904
 20
856.9783359904874942
 97
0
 75
0
 76
1
 47
0.0
 98
0
  0
LWPOLYLINE
  5
49
330
1D
100
AcDbEntity
  8
0
  6
ByLayer
420
1008382
 48
1.0
 60
0
 67
0
370
-1
100
AcDbPolyline
 90
24
 70
1
 43
0.0
 38
0.0
 39
0.0
210
0.0
220
0.0
230
1.0
 10
485.7799999999999727
 20
856.0
 40
0.0
 41
0.0
 42
0.0
 10
485.6511996233726904
 20
855.0216640095125058
 40
0.0
 41
0.0
 42
0.0
 10
485.273576026305193
 20
854.1100000000000136
 40
0.0
 41
0.0
 42
0.0
 10
484.6728636328851394
 20
853.3271363671149174
 40
0.0
 41
0.0
 42
0.0
 10
483.8899999999999864
 20
852.7264239736948639
 40
0.0
 41
0.0
 42
0.0
 10
482.978335990487551
 20
852.3488003766273096
 40
0.0
 41
0.0
 42
0.0
 10
482.0
 20
852.2200000000000273
 40
0.0
 41
0.0
 42
0.0
 10
481.021664009512449
 20
852.3488003766273096
 40
0.0
 41
0.0
 42
0.0
 10
480.1100000000000136
 20
852.7264239736948639
 40
0.0
 41
0.0
 42
0.0
 10
479.3271363671148606
 20
853.3271363671149174
 40
0.0
 41
0.0
 42
0.0
 10
478.726423973694807
 20
854.1100000000000136
 40
0.0
 41
0.0
 42
0.0
 10
478.3488003766273096
 20
855.0216640095125058
 40
0.0
 41
0.0
 42
0.0
 10
478.2200000000000273
 20
856.0
 40
0.0
 41
0.0
 42
0.0
 10
478.3488003766273096
 20
856.9783359904874942
 40
0.0
 41
0.0
 42
0.0
 10
478.726423973694807
 20
857.8899999999999864
 40
0.0
 41
0.0
 42
0.0
 10
479.3271363671148606
 20
858.6728636328850826
 40
0.0
 41
0.0
 42
0.0
 10
480.1100000000000136
 20
859.2735760263051361
 40
0.0
 41
0.0
 42
0.0
 10
481.021664009512449
 20
859.6511996233726904
 40
0.0
 41
0.0
 42
0.0
 10
482.0
 20
859.7799999999999727
 40
0.0
 41
0.0
 42
0.0
 10
482.978335990487551
 20
859.6511996233726904
 40
0.0
 41
0.0
 42
0.0
 10
483.8899999999999864
 20
859.2735760263051361
 40
0.0
 41
0.0
 42
0.0
 10
484.6728636328851394
 20
858.6728636328850826
 40
0.0
 41
0.0
 42
0.0
 10
485.273576026305193
 20
857.8899999999999864
 40
0.0
 41
0.0
 42
0.0
 10
485.6511996233726904
 20
856.9783359904874942
 40
0.0
 41
0.0
 42
0.0
  0
TEXT
  5
4A
330
1D
100
AcDbEntity
  8
0
  6
ByLayer
420
4938352
 48
1.0
 60
0
 67
0
370
-1
100
AcDbText
 39
0.0
 10
504.0
 20
854.5
 30
0.0
 40
12.0
  1
SELECTED RADIO BUTTON
 50
0.0
 41
1.0
 51
0.0
  7
Standard
 71
0
 72
0
 11
0.0
 21
0.0
 31
0.0
210
0.0
220
0.0
230
1.0
100
AcDbText
 73
0
  0
TEXT
  5
4B
330
1D
100
AcDbEntity
  8
0
  6
ByLayer
420
4938352
 48
1.0
 60
0
 67
0
370
-1
100
AcDbText
 39
0.0
 10
468.0
 20
825.0
 30
0.0
 40
12.0
  1
PROGRESS
 50
0.0
 41
1.0
 51
0.0
  7
Standard
 71
0
 72
0
 11
0.0
 21
0.0
 31
0.0
210
0.0
220
0.0
230
1.0
100
AcDbText
 73
0
  0
HATCH
  5
4C
330
1D
100
AcDbEntity
  8
0
  6
ByLayer
420
15263976
 48
1.0
 60
0
 67
0
370
-1
100
AcDbHatch
 30
0.0
210
0.0
220
0.0
230
1.0
  2
SOLID
 70
1
 71
0
 91
1
 92
2
 72
0
 73
1
 93
41
 10
477.0
 20
815.0
 10
852.0
 20
815.0
 10
852.0
 20
815.0
 10
853.7558128981451091
 20
814.8270675236290117
 10
855.4441508912858581
 20
814.314915792601596
 10
857.0001320971764471
 20
813.4832265107229432
 10
858.3639610306789791
 20
812.3639610306788654
 10
859.4832265107229432
 20
811.0001320971764471
 10
860.314915792601596
 20
809.4441508912857444
 10
860.8270675236291254
 20
807.7558128981452228
 10
861.0
 20
806.0
 10
861.0
 20
806.0
 10
861.0
 20
806.0
 10
860.8270675236291254
 20
804.2441871018547772
 10
860.314915792601596
 20
802.5558491087142556
 10
859.4832265107229432
 20
800.9998679028235529
 10
858.3639610306789791
 20
799.6360389693211346
 10
857.0001320971764471
 20
798.5167734892770568
 10
855.4441508912858581
 20
797.685084207398404
 10
853.7558128981451091
 20
797.1729324763709883
 10
852.0
 20
797.0
 10
477.0
 20
797.0
 10
477.0
 20
797.0
 10
475.2441871018548341
 20
797.1729324763709883
 10
473.5558491087141988
 20
797.685084207398404
 10
471.9998679028236097
 20
798.5167734892770568
 10
470.6360389693210777
 20
799.6360389693211346
 10
469.5167734892771136
 20
800.9998679028235529
 10
468.685084207398404
 20
802.5558491087142556
 10
468.1729324763709315
 20
804.2441871018547772
 10
468.0
 20
806.0
 10
468.0
 20
806.0
 10
468.0
 20
806.0
 10
468.1729324763709315
 20
807.7558128981452228
 10
468.685084207398404
 20
809.4441508912857444
 10
469.5167734892771136
 20
811.0001320971764471
 10
470.6360389693210777
 20
812.3639610306788654
 10
471.9998679028235529
 20
813.4832265107229432
 10
473.5558491087141988
 20
814.314915792601596
 10
475.2441871018548341
 20
814.8270675236290117
 10
477.0
 20
815.0
 97
0
 75
0
 76
1
 47
0.0
 98
0
  0
LWPOLYLINE
  5
4D
330
1D
100
AcDbEntity
  8
0
  6
ByLayer
420
1910582
 48
1.0
 60
0
 67
0
370
-1
100
AcDbPolyline
 90
41
 70
1
 43
0.0
 38
0.0
 39
0.0
210
0.0
220
0.0
230
1.0
 10
477.0
 20
815.0
 40
0.0
 41
0.0
 42
0.0
 10
852.0
 20
815.0
 40
0.0
 41
0.0
 42
0.0
 10
852.0
 20
815.0
 40
0.0
 41
0.0
 42
0.0
 10
853.7558128981451091
 20
814.8270675236290117
 40
0.0
 41
0.0
 42
0.0
 10
855.4441508912858581
 20
814.314915792601596
 40
0.0
 41
0.0
 42
0.0
 10
857.0001320971764471
 20
813.4832265107229432
 40
0.0
 41
0.0
 42
0.0
 10
858.3639610306789791
 20
812.3639610306788654
 40
0.0
 41
0.0
 42
0.0
 10
859.4832265107229432
 20
811.0001320971764471
 40
0.0
 41
0.0
 42
0.0
 10
860.314915792601596
 20
809.4441508912857444
 40
0.0
 41
0.0
 42
0.0
 10
860.8270675236291254
 20
807.7558128981452228
 40
0.0
 41
0.0
 42
0.0
 10
861.0
 20
806.0
 40
0.0
 41
0.0
 42
0.0
 10
861.0
 20
806.0
 40
0.0
 41
0.0
 42
0.0
 10
861.0
 20
806.0
 40
0.0
 41
0.0
 42
0.0
 10
860.8270675236291254
 20
804.2441871018547772
 40
0.0
 41
0.0
 42
0.0
 10
860.314915792601596
 20
802.5558491087142556
 40
0.0
 41
0.0
 42
0.0
 10
859.4832265107229432
 20
800.9998679028235529
 40
0.0
 41
0.0
 42
0.0
 10
858.3639610306789791
 20
799.6360389693211346
 40
0.0
 41
0.0
 42
0.0
 10
857.0001320971764471
 20
798.5167734892770568
 40
0.0
 41
0.0
 42
0.0
 10
855.4441508912858581
 20
797.685084207398404
 40
0.0
 41
0.0
 42
0.0
 10
853.7558128981451091
 20
797.1729324763709883
 40
0.0
 41
0.0
 42
0.0
 10
852.0
 20
797.0
 40
0.0
 41
0.0
 42
0.0
 10
477.0
 20
797.0
 40
0.0
 41
0.0
 42
0.0
 10
477.0
 20
797.0
 40
0.0
 41
0.0
 42
0.0
 10
475.2441871018548341
 20
797.1729324763709883
 40
0.0
 41
0.0
 42
0.0
 10
473.5558491087141988
 20
797.685084207398404
 40
0.0
 41
0.0
 42
0.0
 10
471.9998679028236097
 20
798.5167734892770568
 40
0.0
 41
0.0
 42
0.0
 10
470.6360389693210777
 20
799.6360389693211346
 40
0.0
 41
0.0
 42
0.0
 10
469.5167734892771136
 20
800.9998679028235529
 40
0.0
 41
0.0
 42
0.0
 10
468.685084207398404
 20
802.5558491087142556
 40
0.0
 41
0.0
 42
0.0
 10
468.1729324763709315
 20
804.2441871018547772
 40
0.0
 41
0.0
 42
0.0
 10
468.0
 20
806.0
 40
0.0
 41
0.0
 42
0.0
 10
468.0
 20
806.0
 40
0.0
 41
0.0
 42
0.0
 10
468.0
 20
806.0
 40
0.0
 41
0.0
 42
0.0
 10
468.1729324763709315
 20
807.7558128981452228
 40
0.0
 41
0.0
 42
0.0
 10
468.685084207398404
 20
809.4441508912857444
 40
0.0
 41
0.0
 42
0.0
 10
469.5167734892771136
 20
811.0001320971764471
 40
0.0
 41
0.0
 42
0.0
 10
470.6360389693210777
 20
812.3639610306788654
 40
0.0
 41
0.0
 42
0.0
 10
471.9998679028235529
 20
813.4832265107229432
 40
0.0
 41
0.0
 42
0.0
 10
473.5558491087141988
 20
814.314915792601596
 40
0.0
 41
0.0
 42
0.0
 10
475.2441871018548341
 20
814.8270675236290117
 40
0.0
 41
0.0
 42
0.0
 10
477.0
 20
815.0
 40
0.0
 41
0.0
 42
0.0
  0
HATCH
  5
4E
330
1D
100
AcDbEntity
  8
0
  6
ByLayer
420
1008382
 48
1.0
 60
0
 67
0
370
-1
100
AcDbHatch
 30
0.0
210
0.0
220
0.0
230
1.0
  2
SOLID
 70
1
 71
0
 91
1
 92
2
 72
0
 73
1
 93
41
 10
477.0
 20
814.0
 10
742.5199999999999818
 20
814.0
 10
742.5199999999999818
 20
814.0
 10
744.0807225761290056
 20
813.8462822432259145
 10
745.5814674589206561
 20
813.3910362600902317
 10
746.964561864156849
 20
812.6517568984203308
 10
748.1768542494924077
 20
811.6568542494924259
 10
749.1717568984203126
 20
810.4445618641568672
 10
749.9110362600903272
 20
809.061467458920788
 10
750.3662822432257826
 20
807.5607225761290238
 10
750.5199999999999818
 20
806.0
 10
750.5199999999999818
 20
806.0
 10
750.5199999999999818
 20
806.0
 10
750.3662822432257826
 20
804.4392774238709762
 10
749.9110362600903272
 20
802.938532541079212
 10
749.1717568984203126
 20
801.5554381358431328
 10
748.1768542494924077
 20
800.3431457505075741
 10
746.964561864156849
 20
799.3482431015796692
 10
745.5814674589206561
 20
798.6089637399097683
 10
744.0807225761290056
 20
798.1537177567740855
 10
742.5199999999999818
 20
798.0
 10
477.0
 20
798.0
 10
477.0
 20
798.0
 10
475.4392774238709762
 20
798.1537177567740855
 10
473.9385325410792689
 20
798.6089637399097683
 10
472.5554381358431897
 20
799.3482431015796692
 10
471.343145750507631
 20
800.3431457505075741
 10
470.3482431015796124
 20
801.5554381358431328
 10
469.6089637399097114
 20
802.938532541079212
 10
469.1537177567741423
 20
804.4392774238709762
 10
469.0
 20
806.0
 10
469.0
 20
806.0
 10
469.0
 20
806.0
 10
469.1537177567741423
 20
807.5607225761290238
 10
469.6089637399097114
 20
809.061467458920788
 10
470.3482431015796124
 20
810.4445618641568672
 10
471.343145750507631
 20
811.6568542494924259
 10
472.5554381358431897
 20
812.6517568984203308
 10
473.9385325410792689
 20
813.3910362600902317
 10
475.4392774238709762
 20
813.8462822432258008
 10
477.0
 20
814.0
 97
0
 75
0
 76
1
 47
0.0
 98
0
  0
LWPOLYLINE
  5
4F
330
1D
100
AcDbEntity
  8
0
  6
ByLayer
420
1008382
 48
1.0
 60
0
 67
0
370
-1
100
AcDbPolyline
 90
41
 70
1
 43
0.0
 38
0.0
 39
0.0
210
0.0
220
0.0
230
1.0
 10
477.0
 20
814.0
 40
0.0
 41
0.0
 42
0.0
 10
742.5199999999999818
 20
814.0
 40
0.0
 41
0.0
 42
0.0
 10
742.5199999999999818
 20
814.0
 40
0.0
 41
0.0
 42
0.0
 10
744.0807225761290056
 20
813.8462822432259145
 40
0.0
 41
0.0
 42
0.0
 10
745.5814674589206561
 20
813.3910362600902317
 40
0.0
 41
0.0
 42
0.0
 10
746.964561864156849
 20
812.6517568984203308
 40
0.0
 41
0.0
 42
0.0
 10
748.1768542494924077
 20
811.6568542494924259
 40
0.0
 41
0.0
 42
0.0
 10
749.1717568984203126
 20
810.4445618641568672
 40
0.0
 41
0.0
 42
0.0
 10
749.9110362600903272
 20
809.061467458920788
 40
0.0
 41
0.0
 42
0.0
 10
750.3662822432257826
 20
807.5607225761290238
 40
0.0
 41
0.0
 42
0.0
 10
750.5199999999999818
 20
806.0
 40
0.0
 41
0.0
 42
0.0
 10
750.5199999999999818
 20
806.0
 40
0.0
 41
0.0
 42
0.0
 10
750.5199999999999818
 20
806.0
 40
0.0
 41
0.0
 42
0.0
 10
750.3662822432257826
 20
804.4392774238709762
 40
0.0
 41
0.0
 42
0.0
 10
749.9110362600903272
 20
802.938532541079212
 40
0.0
 41
0.0
 42
0.0
 10
749.1717568984203126
 20
801.5554381358431328
 40
0.0
 41
0.0
 42
0.0
 10
748.1768542494924077
 20
800.3431457505075741
 40
0.0
 41
0.0
 42
0.0
 10
746.964561864156849
 20
799.3482431015796692
 40
0.0
 41
0.0
 42
0.0
 10
745.5814674589206561
 20
798.6089637399097683
 40
0.0
 41
0.0
 42
0.0
 10
744.0807225761290056
 20
798.1537177567740855
 40
0.0
 41
0.0
 42
0.0
 10
742.5199999999999818
 20
798.0
 40
0.0
 41
0.0
 42
0.0
 10
477.0
 20
798.0
 40
0.0
 41
0.0
 42
0.0
 10
477.0
 20
798.0
 40
0.0
 41
0.0
 42
0.0
 10
475.4392774238709762
 20
798.1537177567740855
 40
0.0
 41
0.0
 42
0.0
 10
473.9385325410792689
 20
798.6089637399097683
 40
0.0
 41
0.0
 42
0.0
 10
472.5554381358431897
 20
799.3482431015796692
 40
0.0
 41
0.0
 42
0.0
 10
471.343145750507631
 20
800.3431457505075741
 40
0.0
 41
0.0
 42
0.0
 10
470.3482431015796124
 20
801.5554381358431328
 40
0.0
 41
0.0
 42
0.0
 10
469.6089637399097114
 20
802.938532541079212
 40
0.0
 41
0.0
 42
0.0
 10
469.1537177567741423
 20
804.4392774238709762
 40
0.0
 41
0.0
 42
0.0
 10
469.0
 20
806.0
 40
0.0
 41
0.0
 42
0.0
 10
469.0
 20
806.0
 40
0.0
 41
0.0
 42
0.0
 10
469.0
 20
806.0
 40
0.0
 41
0.0
 42
0.0
 10
469.1537177567741423
 20
807.5607225761290238
 40
0.0
 41
0.0
 42
0.0
 10
469.6089637399097114
 20
809.061467458920788
 40
0.0
 41
0.0
 42
0.0
 10
470.3482431015796124
 20
810.4445618641568672
 40
0.0
 41
0.0
 42
0.0
 10
471.343145750507631
 20
811.6568542494924259
 40
0.0
 41
0.0
 42
0.0
 10
472.5554381358431897
 20
812.6517568984203308
 40
0.0
 41
0.0
 42
0.0
 10
473.9385325410792689
 20
813.3910362600902317
 40
0.0
 41
0.0
 42
0.0
 10
475.4392774238709762
 20
813.8462822432258008
 40
0.0
 41
0.0
 42
0.0
 10
477.0
 20
814.0
 40
0.0
 41
0.0
 42
0.0
  0
TEXT
  5
50
330
1D
100
AcDbEntity
  8
0
  6
ByLayer
420
1910582
 48
1.0
 60
0
 67
0
370
-1
100
AcDbText
 39
0.0
 10
648.48828125
 20
802.0
 30
0.0
 40
16.0
  1
72%
 50
0.0
 41
1.0
 51
0.0
  7
Standard
 71
0
 72
0
 11
0.0
 21
0.0
 31
0.0
210
0.0
220
0.0
230
1.0
100
AcDbText
 73
0
  0
TEXT
  5
51
330
1D
100
AcDbEntity
  8
0
  6
ByLayer
420
4938352
 48
1.0
 60
0
 67
0
370
-1
100
AcDbText
 39
0.0
 10
468.0
 20
773.0
 30
0.0
 40
12.0
  1
METER
 50
0.0
 41
1.0
 51
0.0
  7
Standard
 71
0
 72
0
 11
0.0
 21
0.0
 31
0.0
210
0.0
220
0.0
230
1.0
100
AcDbText
 73
0
  0
HATCH
  5
52
330
1D
100
AcDbEntity
  8
0
  6
ByLayer
420
15263976
 48
1.0
 60
0
 67
0
370
-1
100
AcDbHatch
 30
0.0
210
0.0
220
0.0
230
1.0
  2
SOLID
 70
1
 71
0
 91
1
 92
2
 72
0
 73
1
 93
41
 10
478.0
 20
763.0
 10
851.0
 20
763.0
 10
851.0
 20
763.0
 10
852.9509032201613081
 20
762.8078528040323363
 10
854.8268343236509281
 20
762.2387953251128465
 10
856.5557023301960271
 20
761.3146961230254419
 10
858.0710678118655323
 20
760.0710678118655323
 10
859.3146961230254419
 20
758.5557023301960271
 10
860.2387953251128465
 20
756.8268343236509281
 10
860.8078528040323363
 20
754.9509032201613081
 10
861.0
 20
753.0
 10
861.0
 20
753.0
 10
861.0
 20
753.0
 10
860.8078528040323363
 20
751.0490967798386919
 10
860.2387953251128465
 20
749.1731656763490719
 10
859.3146961230254419
 20
747.4442976698039729
 10
858.0710678118655323
 20
745.9289321881344677
 10
856.5557023301960271
 20
744.6853038769745581
 10
854.8268343236509281
 20
743.7612046748871535
 10
852.9509032201613081
 20
743.1921471959676637
 10
851.0
 20
743.0
 10
478.0
 20
743.0
 10
478.0
 20
743.0
 10
476.0490967798386919
 20
743.1921471959676637
 10
474.1731656763491287
 20
743.7612046748871535
 10
472.4442976698039729
 20
744.6853038769745581
 10
470.9289321881345245
 20
745.9289321881344677
 10
469.6853038769745581
 20
747.4442976698039729
 10
468.7612046748871535
 20
749.1731656763490719
 10
468.1921471959677206
 20
751.0490967798386919
 10
468.0
 20
753.0
 10
468.0
 20
753.0
 10
468.0
 20
753.0
 10
468.1921471959677206
 20
754.9509032201613081
 10
468.7612046748871535
 20
756.8268343236509281
 10
469.6853038769745581
 20
758.5557023301960271
 10
470.9289321881345245
 20
760.0710678118655323
 10
472.4442976698039729
 20
761.3146961230254419
 10
474.1731656763490719
 20
762.2387953251128465
 10
476.0490967798386919
 20
762.8078528040323363
 10
478.0
 20
763.0
 97
0
 75
0
 76
1
 47
0.0
 98
0
  0
LWPOLYLINE
  5
53
330
1D
100
AcDbEntity
  8
0
  6
ByLayer
420
1910582
 48
1.0
 60
0
 67
0
370
-1
100
AcDbPolyline
 90
41
 70
1
 43
0.0
 38
0.0
 39
0.0
210
0.0
220
0.0
230
1.0
 10
478.0
 20
763.0
 40
0.0
 41
0.0
 42
0.0
 10
851.0
 20
763.0
 40
0.0
 41
0.0
 42
0.0
 10
851.0
 20
763.0
 40
0.0
 41
0.0
 42
0.0
 10
852.9509032201613081
 20
762.8078528040323363
 40
0.0
 41
0.0
 42
0.0
 10
854.8268343236509281
 20
762.2387953251128465
 40
0.0
 41
0.0
 42
0.0
 10
856.5557023301960271
 20
761.3146961230254419
 40
0.0
 41
0.0
 42
0.0
 10
858.0710678118655323
 20
760.0710678118655323
 40
0.0
 41
0.0
 42
0.0
 10
859.3146961230254419
 20
758.5557023301960271
 40
0.0
 41
0.0
 42
0.0
 10
860.2387953251128465
 20
756.8268343236509281
 40
0.0
 41
0.0
 42
0.0
 10
860.8078528040323363
 20
754.9509032201613081
 40
0.0
 41
0.0
 42
0.0
 10
861.0
 20
753.0
 40
0.0
 41
0.0
 42
0.0
 10
861.0
 20
753.0
 40
0.0
 41
0.0
 42
0.0
 10
861.0
 20
753.0
 40
0.0
 41
0.0
 42
0.0
 10
860.8078528040323363
 20
751.0490967798386919
 40
0.0
 41
0.0
 42
0.0
 10
860.2387953251128465
 20
749.1731656763490719
 40
0.0
 41
0.0
 42
0.0
 10
859.3146961230254419
 20
747.4442976698039729
 40
0.0
 41
0.0
 42
0.0
 10
858.0710678118655323
 20
745.9289321881344677
 40
0.0
 41
0.0
 42
0.0
 10
856.5557023301960271
 20
744.6853038769745581
 40
0.0
 41
0.0
 42
0.0
 10
854.8268343236509281
 20
743.7612046748871535
 40
0.0
 41
0.0
 42
0.0
 10
852.9509032201613081
 20
743.1921471959676637
 40
0.0
 41
0.0
 42
0.0
 10
851.0
 20
743.0
 40
0.0
 41
0.0
 42
0.0
 10
478.0
 20
743.0
 40
0.0
 41
0.0
 42
0.0
 10
478.0
 20
743.0
 40
0.0
 41
0.0
 42
0.0
 10
476.0490967798386919
 20
743.1921471959676637
 40
0.0
 41
0.0
 42
0.0
 10
474.1731656763491287
 20
743.7612046748871535
 40
0.0
 41
0.0
 42
0.0
 10
472.4442976698039729
 20
744.6853038769745581
 40
0.0
 41
0.0
 42
0.0
 10
470.9289321881345245
 20
745.9289321881344677
 40
0.0
 41
0.0
 42
0.0
 10
469.6853038769745581
 20
747.4442976698039729
 40
0.0
 41
0.0
 42
0.0
 10
468.7612046748871535
 20
749.1731656763490719
 40
0.0
 41
0.0
 42
0.0
 10
468.1921471959677206
 20
751.0490967798386919
 40
0.0
 41
0.0
 42
0.0
 10
468.0
 20
753.0
 40
0.0
 41
0.0
 42
0.0
 10
468.0
 20
753.0
 40
0.0
 41
0.0
 42
0.0
 10
468.0
 20
753.0
 40
0.0
 41
0.0
 42
0.0
 10
468.1921471959677206
 20
754.9509032201613081
 40
0.0
 41
0.0
 42
0.0
 10
468.7612046748871535
 20
756.8268343236509281
 40
0.0
 41
0.0
 42
0.0
 10
469.6853038769745581
 20
758.5557023301960271
 40
0.0
 41
0.0
 42
0.0
 10
470.9289321881345245
 20
760.0710678118655323
 40
0.0
 41
0.0
 42
0.0
 10
472.4442976698039729
 20
761.3146961230254419
 40
0.0
 41
0.0
 42
0.0
 10
474.1731656763490719
 20
762.2387953251128465
 40
0.0
 41
0.0
 42
0.0
 10
476.0490967798386919
 20
762.8078528040323363
 40
0.0
 41
0.0
 42
0.0
 10
478.0
 20
763.0
 40
0.0
 41
0.0
 42
0.0
  0
HATCH
  5
54
330
1D
100
AcDbEntity
  8
0
  6
ByLayer
420
3706428
 48
1.0
 60
0
 67
0
370
-1
100
AcDbHatch
 30
0.0
210
0.0
220
0.0
230
1.0
  2
SOLID
 70
1
 71
0
 91
1
 92
2
 72
0
 73
1
 93
41
 10
478.0
 20
762.0
 10
702.4199999999999591
 20
762.0
 10
702.4199999999999591
 20
762.0
 10
704.1758128981450682
 20
761.8270675236290117
 10
705.8641508912858171
 20
761.314915792601596
 10
707.4201320971764062
 20
760.4832265107229432
 10
708.7839610306789382
 20
759.3639610306788654
 10
709.9032265107229023
 20
758.0001320971764471
 10
710.734915792601555
 20
756.4441508912857444
 10
711.2470675236290845
 20
754.7558128981452228
 10
711.4199999999999591
 20
753.0
 10
711.4199999999999591
 20
753.0
 10
711.4199999999999591
 20
753.0
 10
711.2470675236290845
 20
751.2441871018547772
 10
710.734915792601555
 20
749.5558491087142556
 10
709.9032265107229023
 20
747.9998679028235529
 10
708.7839610306789382
 20
746.6360389693211346
 10
707.4201320971764062
 20
745.5167734892770568
 10
705.8641508912858171
 20
744.685084207398404
 10
704.1758128981450682
 20
744.1729324763709883
 10
702.4199999999999591
 20
744.0
 10
478.0
 20
744.0
 10
478.0
 20
744.0
 10
476.2441871018548341
 20
744.1729324763709883
 10
474.5558491087141988
 20
744.685084207398404
 10
472.9998679028236097
 20
745.5167734892770568
 10
471.6360389693210777
 20
746.6360389693211346
 10
470.5167734892771136
 20
747.9998679028235529
 10
469.685084207398404
 20
749.5558491087142556
 10
469.1729324763709315
 20
751.2441871018547772
 10
469.0
 20
753.0
 10
469.0
 20
753.0
 10
469.0
 20
753.0
 10
469.1729324763709315
 20
754.7558128981452228
 10
469.685084207398404
 20
756.4441508912857444
 10
470.5167734892771136
 20
758.0001320971764471
 10
471.6360389693210777
 20
759.3639610306788654
 10
472.9998679028235529
 20
760.4832265107229432
 10
474.5558491087141988
 20
761.314915792601596
 10
476.2441871018548341
 20
761.8270675236290117
 10
478.0
 20
762.0
 97
0
 75
0
 76
1
 47
0.0
 98
0
  0
LWPOLYLINE
  5
55
330
1D
100
AcDbEntity
  8
0
  6
ByLayer
420
3706428
 48
1.0
 60
0
 67
0
370
-1
100
AcDbPolyline
 90
41
 70
1
 43
0.0
 38
0.0
 39
0.0
210
0.0
220
0.0
230
1.0
 10
478.0
 20
762.0
 40
0.0
 41
0.0
 42
0.0
 10
702.4199999999999591
 20
762.0
 40
0.0
 41
0.0
 42
0.0
 10
702.4199999999999591
 20
762.0
 40
0.0
 41
0.0
 42
0.0
 10
704.1758128981450682
 20
761.8270675236290117
 40
0.0
 41
0.0
 42
0.0
 10
705.8641508912858171
 20
761.314915792601596
 40
0.0
 41
0.0
 42
0.0
 10
707.4201320971764062
 20
760.4832265107229432
 40
0.0
 41
0.0
 42
0.0
 10
708.7839610306789382
 20
759.3639610306788654
 40
0.0
 41
0.0
 42
0.0
 10
709.9032265107229023
 20
758.0001320971764471
 40
0.0
 41
0.0
 42
0.0
 10
710.734915792601555
 20
756.4441508912857444
 40
0.0
 41
0.0
 42
0.0
 10
711.2470675236290845
 20
754.7558128981452228
 40
0.0
 41
0.0
 42
0.0
 10
711.4199999999999591
 20
753.0
 40
0.0
 41
0.0
 42
0.0
 10
711.4199999999999591
 20
753.0
 40
0.0
 41
0.0
 42
0.0
 10
711.4199999999999591
 20
753.0
 40
0.0
 41
0.0
 42
0.0
 10
711.2470675236290845
 20
751.2441871018547772
 40
0.0
 41
0.0
 42
0.0
 10
710.734915792601555
 20
749.5558491087142556
 40
0.0
 41
0.0
 42
0.0
 10
709.9032265107229023
 20
747.9998679028235529
 40
0.0
 41
0.0
 42
0.0
 10
708.7839610306789382
 20
746.6360389693211346
 40
0.0
 41
0.0
 42
0.0
 10
707.4201320971764062
 20
745.5167734892770568
 40
0.0
 41
0.0
 42
0.0
 10
705.8641508912858171
 20
744.685084207398404
 40
0.0
 41
0.0
 42
0.0
 10
704.1758128981450682
 20
744.1729324763709883
 40
0.0
 41
0.0
 42
0.0
 10
702.4199999999999591
 20
744.0
 40
0.0
 41
0.0
 42
0.0
 10
478.0
 20
744.0
 40
0.0
 41
0.0
 42
0.0
 10
478.0
 20
744.0
 40
0.0
 41
0.0
 42
0.0
 10
476.2441871018548341
 20
744.1729324763709883
 40
0.0
 41
0.0
 42
0.0
 10
474.5558491087141988
 20
744.685084207398404
 40
0.0
 41
0.0
 42
0.0
 10
472.9998679028236097
 20
745.5167734892770568
 40
0.0
 41
0.0
 42
0.0
 10
471.6360389693210777
 20
746.6360389693211346
 40
0.0
 41
0.0
 42
0.0
 10
470.5167734892771136
 20
747.9998679028235529
 40
0.0
 41
0.0
 42
0.0
 10
469.685084207398404
 20
749.5558491087142556
 40
0.0
 41
0.0
 42
0.0
 10
469.1729324763709315
 20
751.2441871018547772
 40
0.0
 41
0.0
 42
0.0
 10
469.0
 20
753.0
 40
0.0
 41
0.0
 42
0.0
 10
469.0
 20
753.0
 40
0.0
 41
0.0
 42
0.0
 10
469.0
 20
753.0
 40
0.0
 41
0.0
 42
0.0
 10
469.1729324763709315
 20
754.7558128981452228
 40
0.0
 41
0.0
 42
0.0
 10
469.685084207398404
 20
756.4441508912857444
 40
0.0
 41
0.0
 42
0.0
 10
470.5167734892771136
 20
758.0001320971764471
 40
0.0
 41
0.0
 42
0.0
 10
471.6360389693210777
 20
759.3639610306788654
 40
0.0
 41
0.0
 42
0.0
 10
472.9998679028235529
 20
760.4832265107229432
 40
0.0
 41
0.0
 42
0.0
 10
474.5558491087141988
 20
761.314915792601596
 40
0.0
 41
0.0
 42
0.0
 10
476.2441871018548341
 20
761.8270675236290117
 40
0.0
 41
0.0
 42
0.0
 10
478.0
 20
762.0
 40
0.0
 41
0.0
 42
0.0
  0
HATCH
  5
56
330
1D
100
AcDbEntity
  8
0
  6
ByLayer
420
16777215
 48
1.0
 60
0
 67
0
370
-1
100
AcDbHatch
 30
0.0
210
0.0
220
0.0
230
1.0
  2
SOLID
 70
1
 71
0
 91
1
 92
2
 72
0
 73
1
 93
41
 10
14.0
 20
646.0
 10
417.0
 20
646.0
 10
417.0
 20
646.0
 10
419.73126450822582
 20
645.7309939256451798
 10
422.3575680531112653
 20
644.9343134551579624
 10
424.7779832622744607
 20
643.6405745722356642
 10
426.8994949366116884
 20
641.8994949366117453
 10
428.6405745722356073
 20
639.777983262274347
 10
429.9343134551580192
 20
637.3575680531112084
 10
430.7309939256452367
 20
634.7312645082258769
 10
431.0
 20
632.0
 10
431.0
 20
14.0
 10
431.0
 20
14.0
 10
430.7309939256452367
 20
11.2687354917741231
 10
429.9343134551580192
 20
8.6424319468887916
 10
428.6405745722356073
 20
6.222016737725653
 10
426.8994949366116884
 20
4.1005050633882547
 10
424.7779832622744607
 20
2.3594254277643358
 10
422.3575680531112653
 20
1.0656865448420376
 10
419.73126450822582
 20
0.2690060743548202
 10
417.0
 20
0.0
 10
14.0
 20
0.0
 10
14.0
 20
0.0
 10
11.2687354917742049
 20
0.2690060743548202
 10
8.6424319468887436
 20
1.0656865448420376
 10
6.2220167377255731
 20
2.3594254277643358
 10
4.1005050633883364
 20
4.1005050633882547
 10
2.3594254277643643
 20
6.222016737725653
 10
1.0656865448419861
 20
8.6424319468887916
 10
0.269006074354774
 20
11.2687354917741231
 10
0.0
 20
14.0
 10
0.0
 20
632.0
 10
0.0
 20
632.0
 10
0.269006074354774
 20
634.7312645082258769
 10
1.0656865448419843
 20
637.3575680531112084
 10
2.3594254277643643
 20
639.777983262274347
 10
4.1005050633883329
 20
641.8994949366117453
 10
6.2220167377255695
 20
643.6405745722356642
 10
8.6424319468887347
 20
644.9343134551579624
 10
11.2687354917741978
 20
645.7309939256451798
 10
13.9999999999999982
 20
646.0
 97
0
 75
0
 76
1
 47
0.0
 98
0
  0
LWPOLYLINE
  5
57
330
1D
100
AcDbEntity
  8
0
  6
ByLayer
420
14147306
 48
1.0
 60
0
 67
0
370
-1
100
AcDbPolyline
 90
41
 70
1
 43
0.0
 38
0.0
 39
0.0
210
0.0
220
0.0
230
1.0
 10
14.0
 20
646.0
 40
0.0
 41
0.0
 42
0.0
 10
417.0
 20
646.0
 40
0.0
 41
0.0
 42
0.0
 10
417.0
 20
646.0
 40
0.0
 41
0.0
 42
0.0
 10
419.73126450822582
 20
645.7309939256451798
 40
0.0
 41
0.0
 42
0.0
 10
422.3575680531112653
 20
644.9343134551579624
 40
0.0
 41
0.0
 42
0.0
 10
424.7779832622744607
 20
643.6405745722356642
 40
0.0
 41
0.0
 42
0.0
 10
426.8994949366116884
 20
641.8994949366117453
 40
0.0
 41
0.0
 42
0.0
 10
428.6405745722356073
 20
639.777983262274347
 40
0.0
 41
0.0
 42
0.0
 10
429.9343134551580192
 20
637.3575680531112084
 40
0.0
 41
0.0
 42
0.0
 10
430.7309939256452367
 20
634.7312645082258769
 40
0.0
 41
0.0
 42
0.0
 10
431.0
 20
632.0
 40
0.0
 41
0.0
 42
0.0
 10
431.0
 20
14.0
 40
0.0
 41
0.0
 42
0.0
 10
431.0
 20
14.0
 40
0.0
 41
0.0
 42
0.0
 10
430.7309939256452367
 20
11.2687354917741231
 40
0.0
 41
0.0
 42
0.0
 10
429.9343134551580192
 20
8.6424319468887916
 40
0.0
 41
0.0
 42
0.0
 10
428.6405745722356073
 20
6.222016737725653
 40
0.0
 41
0.0
 42
0.0
 10
426.8994949366116884
 20
4.1005050633882547
 40
0.0
 41
0.0
 42
0.0
 10
424.7779832622744607
 20
2.3594254277643358
 40
0.0
 41
0.0
 42
0.0
 10
422.3575680531112653
 20
1.0656865448420376
 40
0.0
 41
0.0
 42
0.0
 10
419.73126450822582
 20
0.2690060743548202
 40
0.0
 41
0.0
 42
0.0
 10
417.0
 20
0.0
 40
0.0
 41
0.0
 42
0.0
 10
14.0
 20
0.0
 40
0.0
 41
0.0
 42
0.0
 10
14.0
 20
0.0
 40
0.0
 41
0.0
 42
0.0
 10
11.2687354917742049
 20
0.2690060743548202
 40
0.0
 41
0.0
 42
0.0
 10
8.6424319468887436
 20
1.0656865448420376
 40
0.0
 41
0.0
 42
0.0
 10
6.2220167377255731
 20
2.3594254277643358
 40
0.0
 41
0.0
 42
0.0
 10
4.1005050633883364
 20
4.1005050633882547
 40
0.0
 41
0.0
 42
0.0
 10
2.3594254277643643
 20
6.222016737725653
 40
0.0
 41
0.0
 42
0.0
 10
1.0656865448419861
 20
8.6424319468887916
 40
0.0
 41
0.0
 42
0.0
 10
0.269006074354774
 20
11.2687354917741231
 40
0.0
 41
0.0
 42
0.0
 10
0.0
 20
14.0
 40
0.0
 41
0.0
 42
0.0
 10
0.0
 20
632.0
 40
0.0
 41
0.0
 42
0.0
 10
0.0
 20
632.0
 40
0.0
 41
0.0
 42
0.0
 10
0.269006074354774
 20
634.7312645082258769
 40
0.0
 41
0.0
 42
0.0
 10
1.0656865448419843
 20
637.3575680531112084
 40
0.0
 41
0.0
 42
0.0
 10
2.3594254277643643
 20
639.777983262274347
 40
0.0
 41
0.0
 42
0.0
 10
4.1005050633883329
 20
641.8994949366117453
 40
0.0
 41
0.0
 42
0.0
 10
6.2220167377255695
 20
643.6405745722356642
 40
0.0
 41
0.0
 42
0.0
 10
8.6424319468887347
 20
644.9343134551579624
 40
0.0
 41
0.0
 42
0.0
 10
11.2687354917741978
 20
645.7309939256451798
 40
0.0
 41
0.0
 42
0.0
 10
13.9999999999999982
 20
646.0
 40
0.0
 41
0.0
 42
0.0
  0
TEXT
  5
58
330
1D
100
AcDbEntity
  8
0
  6
ByLayer
420
1910582
 48
1.0
 60
0
 67
0
370
-1
100
AcDbText
 39
0.0
 10
19.0
 20
614.5
 30
0.0
 40
16.0
  1
Date & Time
 50
0.0
 41
1.0
 51
0.0
  7
Standard
 71
0
 72
0
 11
0.0
 21
0.0
 31
0.0
210
0.0
220
0.0
230
1.0
100
AcDbText
 73
0
  0
TEXT
  5
59
330
1D
100
AcDbEntity
  8
0
  6
ByLayer
420
4938352
 48
1.0
 60
0
 67
0
370
-1
100
AcDbText
 39
0.0
 10
19.0
 20
585.0
 30
0.0
 40
12.0
  1
DATE
 50
0.0
 41
1.0
 51
0.0
  7
Standard
 71
0
 72
0
 11
0.0
 21
0.0
 31
0.0
210
0.0
220
0.0
230
1.0
100
AcDbText
 73
0
  0
HATCH
  5
5A
330
1D
100
AcDbEntity
  8
0
  6
ByLayer
420
16777215
 48
1.0
 60
0
 67
0
370
-1
100
AcDbHatch
 30
0.0
210
0.0
220
0.0
230
1.0
  2
SOLID
 70
1
 71
0
 91
1
 92
2
 72
0
 73
1
 93
41
 10
27.0
 20
575.0
 10
404.0
 20
575.0
 10
404.0
 20
575.0
 10
405.5607225761290238
 20
574.8462822432259145
 10
407.0614674589207311
 20
574.3910362600902317
 10
408.4445618641568103
 20
573.6517568984204445
 10
409.656854249492369
 20
572.6568542494924259
 10
410.6517568984203876
 20
571.4445618641568672
 10
411.3910362600902886
 20
570.061467458920788
 10
411.8462822432258577
 20
568.5607225761290238
 10
412.0
 20
567.0
 10
412.0
 20
541.0
 10
412.0
 20
541.0
 10
411.8462822432258577
 20
539.4392774238709762
 10
411.3910362600902886
 20
537.938532541079212
 10
410.6517568984203876
 20
536.5554381358431328
 10
409.656854249492369
 20
535.3431457505075741
 10
408.4445618641568103
 20
534.3482431015795555
 10
407.0614674589207311
 20
533.6089637399097683
 10
405.5607225761290238
 20
533.1537177567740855
 10
404.0
 20
533.0
 10
27.0
 20
533.0
 10
27.0
 20
533.0
 10
25.4392774238709762
 20
533.1537177567740855
 10
23.9385325410792831
 20
533.6089637399097683
 10
22.5554381358431826
 20
534.3482431015795555
 10
21.3431457505076203
 20
535.3431457505075741
 10
20.3482431015796372
 20
536.5554381358431328
 10
19.6089637399097043
 20
537.938532541079212
 10
19.1537177567741566
 20
539.4392774238709762
 10
19.0
 20
541.0
 10
19.0
 20
567.0
 10
19.0
 20
567.0
 10
19.1537177567741566
 20
568.5607225761290238
 10
19.6089637399097043
 20
570.061467458920788
 10
20.3482431015796372
 20
571.4445618641568672
 10
21.3431457505076168
 20
572.6568542494924259
 10
22.5554381358431826
 20
573.6517568984204445
 10
23.938532541079276
 20
574.3910362600902317
 10
25.4392774238709691
 20
574.8462822432259145
 10
27.0
 20
575.0
 97
0
 75
0
 76
1
 47
0.0
 98
0
  0
LWPOLYLINE
  5
5B
330
1D
100
AcDbEntity
  8
0
  6
ByLayer
420
9741240
 48
1.0
 60
0
 67
0
370
-1
100
AcDbPolyline
 90
41
 70
1
 43
0.0
 38
0.0
 39
0.0
210
0.0
220
0.0
230
1.0
 10
27.0
 20
575.0
 40
0.0
 41
0.0
 42
0.0
 10
404.0
 20
575.0
 40
0.0
 41
0.0
 42
0.0
 10
404.0
 20
575.0
 40
0.0
 41
0.0
 42
0.0
 10
405.5607225761290238
 20
574.8462822432259145
 40
0.0
 41
0.0
 42
0.0
 10
407.0614674589207311
 20
574.3910362600902317
 40
0.0
 41
0.0
 42
0.0
 10
408.4445618641568103
 20
573.6517568984204445
 40
0.0
 41
0.0
 42
0.0
 10
409.656854249492369
 20
572.6568542494924259
 40
0.0
 41
0.0
 42
0.0
 10
410.6517568984203876
 20
571.4445618641568672
 40
0.0
 41
0.0
 42
0.0
 10
411.3910362600902886
 20
570.061467458920788
 40
0.0
 41
0.0
 42
0.0
 10
411.8462822432258577
 20
568.5607225761290238
 40
0.0
 41
0.0
 42
0.0
 10
412.0
 20
567.0
 40
0.0
 41
0.0
 42
0.0
 10
412.0
 20
541.0
 40
0.0
 41
0.0
 42
0.0
 10
412.0
 20
541.0
 40
0.0
 41
0.0
 42
0.0
 10
411.8462822432258577
 20
539.4392774238709762
 40
0.0
 41
0.0
 42
0.0
 10
411.3910362600902886
 20
537.938532541079212
 40
0.0
 41
0.0
 42
0.0
 10
410.6517568984203876
 20
536.5554381358431328
 40
0.0
 41
0.0
 42
0.0
 10
409.656854249492369
 20
535.3431457505075741
 40
0.0
 41
0.0
 42
0.0
 10
408.4445618641568103
 20
534.3482431015795555
 40
0.0
 41
0.0
 42
0.0
 10
407.0614674589207311
 20
533.6089637399097683
 40
0.0
 41
0.0
 42
0.0
 10
405.5607225761290238
 20
533.1537177567740855
 40
0.0
 41
0.0
 42
0.0
 10
404.0
 20
533.0
 40
0.0
 41
0.0
 42
0.0
 10
27.0
 20
533.0
 40
0.0
 41
0.0
 42
0.0
 10
27.0
 20
533.0
 40
0.0
 41
0.0
 42
0.0
 10
25.4392774238709762
 20
533.1537177567740855
 40
0.0
 41
0.0
 42
0.0
 10
23.9385325410792831
 20
533.6089637399097683
 40
0.0
 41
0.0
 42
0.0
 10
22.5554381358431826
 20
534.3482431015795555
 40
0.0
 41
0.0
 42
0.0
 10
21.3431457505076203
 20
535.3431457505075741
 40
0.0
 41
0.0
 42
0.0
 10
20.3482431015796372
 20
536.5554381358431328
 40
0.0
 41
0.0
 42
0.0
 10
19.6089637399097043
 20
537.938532541079212
 40
0.0
 41
0.0
 42
0.0
 10
19.1537177567741566
 20
539.4392774238709762
 40
0.0
 41
0.0
 42
0.0
 10
19.0
 20
541.0
 40
0.0
 41
0.0
 42
0.0
 10
19.0
 20
567.0
 40
0.0
 41
0.0
 42
0.0
 10
19.0
 20
567.0
 40
0.0
 41
0.0
 42
0.0
 10
19.1537177567741566
 20
568.5607225761290238
 40
0.0
 41
0.0
 42
0.0
 10
19.6089637399097043
 20
570.061467458920788
 40
0.0
 41
0.0
 42
0.0
 10
20.3482431015796372
 20
571.4445618641568672
 40
0.0
 41
0.0
 42
0.0
 10
21.3431457505076168
 20
572.6568542494924259
 40
0.0
 41
0.0
 42
0.0
 10
22.5554381358431826
 20
573.6517568984204445
 40
0.0
 41
0.0
 42
0.0
 10
23.938532541079276
 20
574.3910362600902317
 40
0.0
 41
0.0
 42
0.0
 10
25.4392774238709691
 20
574.8462822432259145
 40
0.0
 41
0.0
 42
0.0
 10
27.0
 20
575.0
 40
0.0
 41
0.0
 42
0.0
  0
TEXT
  5
5C
330
1D
100
AcDbEntity
  8
0
  6
ByLayer
420
1120295
 48
1.0
 60
0
 67
0
370
-1
100
AcDbText
 39
0.0
 10
31.0
 20
550.0
 30
0.0
 40
16.0
  1
2026-04-13
 50
0.0
 41
1.0
 51
0.0
  7
Standard
 71
0
 72
0
 11
0.0
 21
0.0
 31
0.0
210
0.0
220
0.0
230
1.0
100
AcDbText
 73
0
  0
TEXT
  5
5D
330
1D
100
AcDbEntity
  8
0
  6
ByLayer
420
4938352
 48
1.0
 60
0
 67
0
370
-1
100
AcDbText
 39
0.0
 10
19.0
 20
509.0
 30
0.0
 40
12.0
  1
TIME
 50
0.0
 41
1.0
 51
0.0
  7
Standard
 71
0
 72
0
 11
0.0
 21
0.0
 31
0.0
210
0.0
220
0.0
230
1.0
100
AcDbText
 73
0
  0
HATCH
  5
5E
330
1D
100
AcDbEntity
  8
0
  6
ByLayer
420
16777215
 48
1.0
 60
0
 67
0
370
-1
100
AcDbHatch
 30
0.0
210
0.0
220
0.0
230
1.0
  2
SOLID
 70
1
 71
0
 91
1
 92
2
 72
0
 73
1
 93
41
 10
27.0
 20
499.0
 10
404.0
 20
499.0
 10
404.0
 20
499.0
 10
405.5607225761290238
 20
498.8462822432258008
 10
407.0614674589207311
 20
498.3910362600903454
 10
408.4445618641568103
 20
497.6517568984203308
 10
409.656854249492369
 20
496.6568542494924259
 10
410.6517568984203876
 20
495.4445618641568672
 10
411.3910362600902886
 20
494.0614674589206743
 10
411.8462822432258577
 20
492.5607225761290238
 10
412.0
 20
491.0
 10
412.0
 20
462.0
 10
412.0
 20
462.0
 10
411.8462822432258577
 20
460.4392774238709762
 10
411.3910362600902886
 20
458.9385325410793257
 10
410.6517568984203876
 20
457.5554381358431328
 10
409.656854249492369
 20
456.3431457505075741
 10
408.4445618641568103
 20
455.3482431015796692
 10
407.0614674589207311
 20
454.6089637399096546
 10
405.5607225761290238
 20
454.1537177567741992
 10
404.0
 20
454.0
 10
27.0
 20
454.0
 10
27.0
 20
454.0
 10
25.4392774238709762
 20
454.1537177567741992
 10
23.9385325410792831
 20
454.6089637399096546
 10
22.5554381358431826
 20
455.3482431015796692
 10
21.3431457505076203
 20
456.3431457505075741
 10
20.3482431015796372
 20
457.5554381358431328
 10
19.6089637399097043
 20
458.9385325410793257
 10
19.1537177567741566
 20
460.4392774238709762
 10
19.0
 20
462.0
 10
19.0
 20
491.0
 10
19.0
 20
491.0
 10
19.1537177567741566
 20
492.5607225761290238
 10
19.6089637399097043
 20
494.0614674589206743
 10
20.3482431015796372
 20
495.4445618641568672
 10
21.3431457505076168
 20
496.6568542494924259
 10
22.5554381358431826
 20
497.6517568984203308
 10
23.938532541079276
 20
498.3910362600903454
 10
25.4392774238709691
 20
498.8462822432258008
 10
27.0
 20
499.0
 97
0
 75
0
 76
1
 47
0.0
 98
0
  0
LWPOLYLINE
  5
5F
330
1D
100
AcDbEntity
  8
0
  6
ByLayer
420
9741240
 48
1.0
 60
0
 67
0
370
-1
100
AcDbPolyline
 90
41
 70
1
 43
0.0
 38
0.0
 39
0.0
210
0.0
220
0.0
230
1.0
 10
27.0
 20
499.0
 40
0.0
 41
0.0
 42
0.0
 10
404.0
 20
499.0
 40
0.0
 41
0.0
 42
0.0
 10
404.0
 20
499.0
 40
0.0
 41
0.0
 42
0.0
 10
405.5607225761290238
 20
498.8462822432258008
 40
0.0
 41
0.0
 42
0.0
 10
407.0614674589207311
 20
498.3910362600903454
 40
0.0
 41
0.0
 42
0.0
 10
408.4445618641568103
 20
497.6517568984203308
 40
0.0
 41
0.0
 42
0.0
 10
409.656854249492369
 20
496.6568542494924259
 40
0.0
 41
0.0
 42
0.0
 10
410.6517568984203876
 20
495.4445618641568672
 40
0.0
 41
0.0
 42
0.0
 10
411.3910362600902886
 20
494.0614674589206743
 40
0.0
 41
0.0
 42
0.0
 10
411.8462822432258577
 20
492.5607225761290238
 40
0.0
 41
0.0
 42
0.0
 10
412.0
 20
491.0
 40
0.0
 41
0.0
 42
0.0
 10
412.0
 20
462.0
 40
0.0
 41
0.0
 42
0.0
 10
412.0
 20
462.0
 40
0.0
 41
0.0
 42
0.0
 10
411.8462822432258577
 20
460.4392774238709762
 40
0.0
 41
0.0
 42
0.0
 10
411.3910362600902886
 20
458.9385325410793257
 40
0.0
 41
0.0
 42
0.0
 10
410.6517568984203876
 20
457.5554381358431328
 40
0.0
 41
0.0
 42
0.0
 10
409.656854249492369
 20
456.3431457505075741
 40
0.0
 41
0.0
 42
0.0
 10
408.4445618641568103
 20
455.3482431015796692
 40
0.0
 41
0.0
 42
0.0
 10
407.0614674589207311
 20
454.6089637399096546
 40
0.0
 41
0.0
 42
0.0
 10
405.5607225761290238
 20
454.1537177567741992
 40
0.0
 41
0.0
 42
0.0
 10
404.0
 20
454.0
 40
0.0
 41
0.0
 42
0.0
 10
27.0
 20
454.0
 40
0.0
 41
0.0
 42
0.0
 10
27.0
 20
454.0
 40
0.0
 41
0.0
 42
0.0
 10
25.4392774238709762
 20
454.1537177567741992
 40
0.0
 41
0.0
 42
0.0
 10
23.9385325410792831
 20
454.6089637399096546
 40
0.0
 41
0.0
 42
0.0
 10
22.5554381358431826
 20
455.3482431015796692
 40
0.0
 41
0.0
 42
0.0
 10
21.3431457505076203
 20
456.3431457505075741
 40
0.0
 41
0.0
 42
0.0
 10
20.3482431015796372
 20
457.5554381358431328
 40
0.0
 41
0.0
 42
0.0
 10
19.6089637399097043
 20
458.9385325410793257
 40
0.0
 41
0.0
 42
0.0
 10
19.1537177567741566
 20
460.4392774238709762
 40
0.0
 41
0.0
 42
0.0
 10
19.0
 20
462.0
 40
0.0
 41
0.0
 42
0.0
 10
19.0
 20
491.0
 40
0.0
 41
0.0
 42
0.0
 10
19.0
 20
491.0
 40
0.0
 41
0.0
 42
0.0
 10
19.1537177567741566
 20
492.5607225761290238
 40
0.0
 41
0.0
 42
0.0
 10
19.6089637399097043
 20
494.0614674589206743
 40
0.0
 41
0.0
 42
0.0
 10
20.3482431015796372
 20
495.4445618641568672
 40
0.0
 41
0.0
 42
0.0
 10
21.3431457505076168
 20
496.6568542494924259
 40
0.0
 41
0.0
 42
0.0
 10
22.5554381358431826
 20
497.6517568984203308
 40
0.0
 41
0.0
 42
0.0
 10
23.938532541079276
 20
498.3910362600903454
 40
0.0
 41
0.0
 42
0.0
 10
25.4392774238709691
 20
498.8462822432258008
 40
0.0
 41
0.0
 42
0.0
 10
27.0
 20
499.0
 40
0.0
 41
0.0
 42
0.0
  0
TEXT
  5
60
330
1D
100
AcDbEntity
  8
0
  6
ByLayer
420
1120295
 48
1.0
 60
0
 67
0
370
-1
100
AcDbText
 39
0.0
 10
31.0
 20
472.5
 30
0.0
 40
16.0
  1
14:35
 50
0.0
 41
1.0
 51
0.0
  7
Standard
 71
0
 72
0
 11
0.0
 21
0.0
 31
0.0
210
0.0
220
0.0
230
1.0
100
AcDbText
 73
0
  0
TEXT
  5
61
330
1D
100
AcDbEntity
  8
0
  6
ByLayer
420
4938352
 48
1.0
 60
0
 67
0
370
-1
100
AcDbText
 39
0.0
 10
19.0
 20
430.203125
 30
0.0
 40
12.0
  1
DATETIME
 50
0.0
 41
1.0
 51
0.0
  7
Standard
 71
0
 72
0
 11
0.0
 21
0.0
 31
0.0
210
0.0
220
0.0
230
1.0
100
AcDbText
 73
0
  0
HATCH
  5
62
330
1D
100
AcDbEntity
  8
0
  6
ByLayer
420
16777215
 48
1.0
 60
0
 67
0
370
-1
100
AcDbHatch
 30
0.0
210
0.0
220
0.0
230
1.0
  2
SOLID
 70
1
 71
0
 91
1
 92
2
 72
0
 73
1
 93
41
 10
27.0
 20
420.0
 10
404.0
 20
420.0
 10
404.0
 20
420.0
 10
405.5607225761290238
 20
419.8462822432258008
 10
407.0614674589207311
 20
419.3910362600903454
 10
408.4445618641568103
 20
418.6517568984203308
 10
409.656854249492369
 20
417.6568542494924259
 10
410.6517568984203876
 20
416.4445618641568672
 10
411.3910362600902886
 20
415.0614674589206743
 10
411.8462822432258577
 20
413.5607225761290238
 10
412.0
 20
412.0
 10
412.0
 20
386.0
 10
412.0
 20
386.0
 10
411.8462822432258577
 20
384.4392774238709762
 10
411.3910362600902886
 20
382.9385325410793257
 10
410.6517568984203876
 20
381.5554381358431328
 10
409.656854249492369
 20
380.3431457505075741
 10
408.4445618641568103
 20
379.3482431015796692
 10
407.0614674589207311
 20
378.6089637399096546
 10
405.5607225761290238
 20
378.1537177567741992
 10
404.0
 20
378.0
 10
27.0
 20
378.0
 10
27.0
 20
378.0
 10
25.4392774238709762
 20
378.1537177567741992
 10
23.9385325410792831
 20
378.6089637399096546
 10
22.5554381358431826
 20
379.3482431015796692
 10
21.3431457505076203
 20
380.3431457505075741
 10
20.3482431015796372
 20
381.5554381358431328
 10
19.6089637399097043
 20
382.9385325410793257
 10
19.1537177567741566
 20
384.4392774238709762
 10
19.0
 20
386.0
 10
19.0
 20
412.0
 10
19.0
 20
412.0
 10
19.1537177567741566
 20
413.5607225761290238
 10
19.6089637399097043
 20
415.0614674589206743
 10
20.3482431015796372
 20
416.4445618641568672
 10
21.3431457505076168
 20
417.6568542494924259
 10
22.5554381358431826
 20
418.6517568984203308
 10
23.938532541079276
 20
419.3910362600903454
 10
25.4392774238709691
 20
419.8462822432258008
 10
27.0
 20
420.0
 97
0
 75
0
 76
1
 47
0.0
 98
0
  0
LWPOLYLINE
  5
63
330
1D
100
AcDbEntity
  8
0
  6
ByLayer
420
9741240
 48
1.0
 60
0
 67
0
370
-1
100
AcDbPolyline
 90
41
 70
1
 43
0.0
 38
0.0
 39
0.0
210
0.0
220
0.0
230
1.0
 10
27.0
 20
420.0
 40
0.0
 41
0.0
 42
0.0
 10
404.0
 20
420.0
 40
0.0
 41
0.0
 42
0.0
 10
404.0
 20
420.0
 40
0.0
 41
0.0
 42
0.0
 10
405.5607225761290238
 20
419.8462822432258008
 40
0.0
 41
0.0
 42
0.0
 10
407.0614674589207311
 20
419.3910362600903454
 40
0.0
 41
0.0
 42
0.0
 10
408.4445618641568103
 20
418.6517568984203308
 40
0.0
 41
0.0
 42
0.0
 10
409.656854249492369
 20
417.6568542494924259
 40
0.0
 41
0.0
 42
0.0
 10
410.6517568984203876
 20
416.4445618641568672
 40
0.0
 41
0.0
 42
0.0
 10
411.3910362600902886
 20
415.0614674589206743
 40
0.0
 41
0.0
 42
0.0
 10
411.8462822432258577
 20
413.5607225761290238
 40
0.0
 41
0.0
 42
0.0
 10
412.0
 20
412.0
 40
0.0
 41
0.0
 42
0.0
 10
412.0
 20
386.0
 40
0.0
 41
0.0
 42
0.0
 10
412.0
 20
386.0
 40
0.0
 41
0.0
 42
0.0
 10
411.8462822432258577
 20
384.4392774238709762
 40
0.0
 41
0.0
 42
0.0
 10
411.3910362600902886
 20
382.9385325410793257
 40
0.0
 41
0.0
 42
0.0
 10
410.6517568984203876
 20
381.5554381358431328
 40
0.0
 41
0.0
 42
0.0
 10
409.656854249492369
 20
380.3431457505075741
 40
0.0
 41
0.0
 42
0.0
 10
408.4445618641568103
 20
379.3482431015796692
 40
0.0
 41
0.0
 42
0.0
 10
407.0614674589207311
 20
378.6089637399096546
 40
0.0
 41
0.0
 42
0.0
 10
405.5607225761290238
 20
378.1537177567741992
 40
0.0
 41
0.0
 42
0.0
 10
404.0
 20
378.0
 40
0.0
 41
0.0
 42
0.0
 10
27.0
 20
378.0
 40
0.0
 41
0.0
 42
0.0
 10
27.0
 20
378.0
 40
0.0
 41
0.0
 42
0.0
 10
25.4392774238709762
 20
378.1537177567741992
 40
0.0
 41
0.0
 42
0.0
 10
23.9385325410792831
 20
378.6089637399096546
 40
0.0
 41
0.0
 42
0.0
 10
22.5554381358431826
 20
379.3482431015796692
 40
0.0
 41
0.0
 42
0.0
 10
21.3431457505076203
 20
380.3431457505075741
 40
0.0
 41
0.0
 42
0.0
 10
20.3482431015796372
 20
381.5554381358431328
 40
0.0
 41
0.0
 42
0.0
 10
19.6089637399097043
 20
382.9385325410793257
 40
0.0
 41
0.0
 42
0.0
 10
19.1537177567741566
 20
384.4392774238709762
 40
0.0
 41
0.0
 42
0.0
 10
19.0
 20
386.0
 40
0.0
 41
0.0
 42
0.0
 10
19.0
 20
412.0
 40
0.0
 41
0.0
 42
0.0
 10
19.0
 20
412.0
 40
0.0
 41
0.0
 42
0.0
 10
19.1537177567741566
 20
413.5607225761290238
 40
0.0
 41
0.0
 42
0.0
 10
19.6089637399097043
 20
415.0614674589206743
 40
0.0
 41
0.0
 42
0.0
 10
20.3482431015796372
 20
416.4445618641568672
 40
0.0
 41
0.0
 42
0.0
 10
21.3431457505076168
 20
417.6568542494924259
 40
0.0
 41
0.0
 42
0.0
 10
22.5554381358431826
 20
418.6517568984203308
 40
0.0
 41
0.0
 42
0.0
 10
23.938532541079276
 20
419.3910362600903454
 40
0.0
 41
0.0
 42
0.0
 10
25.4392774238709691
 20
419.8462822432258008
 40
0.0
 41
0.0
 42
0.0
 10
27.0
 20
420.0
 40
0.0
 41
0.0
 42
0.0
  0
TEXT
  5
64
330
1D
100
AcDbEntity
  8
0
  6
ByLayer
420
1120295
 48
1.0
 60
0
 67
0
370
-1
100
AcDbText
 39
0.0
 10
31.0
 20
395.0
 30
0.0
 40
16.0
  1
2026-04-13 14:35
 50
0.0
 41
1.0
 51
0.0
  7
Standard
 71
0
 72
0
 11
0.0
 21
0.0
 31
0.0
210
0.0
220
0.0
230
1.0
100
AcDbText
 73
0
  0
HATCH
  5
65
330
1D
100
AcDbEntity
  8
0
  6
ByLayer
420
16777215
 48
1.0
 60
0
 67
0
370
-1
100
AcDbHatch
 30
0.0
210
0.0
220
0.0
230
1.0
  2
SOLID
 70
1
 71
0
 91
1
 92
2
 72
0
 73
1
 93
41
 10
463.0
 20
646.0
 10
866.0
 20
646.0
 10
866.0
 20
646.0
 10
868.7312645082257632
 20
645.7309939256451798
 10
871.3575680531112084
 20
644.9343134551579624
 10
873.7779832622744607
 20
643.6405745722356642
 10
875.8994949366116316
 20
641.8994949366117453
 10
877.6405745722356642
 20
639.777983262274347
 10
878.9343134551579624
 20
637.3575680531112084
 10
879.7309939256451798
 20
634.7312645082258769
 10
880.0
 20
632.0
 10
880.0
 20
14.0
 10
880.0
 20
14.0
 10
879.7309939256451798
 20
11.2687354917741231
 10
878.9343134551579624
 20
8.6424319468887916
 10
877.6405745722356642
 20
6.222016737725653
 10
875.8994949366116316
 20
4.1005050633882547
 10
873.7779832622744607
 20
2.3594254277643358
 10
871.3575680531112084
 20
1.0656865448420376
 10
868.7312645082257632
 20
0.2690060743548202
 10
866.0
 20
0.0
 10
463.0
 20
0.0
 10
463.0
 20
0.0
 10
460.26873549177418
 20
0.2690060743548202
 10
457.6424319468887347
 20
1.0656865448420376
 10
455.2220167377255962
 20
2.3594254277643358
 10
453.1005050633883116
 20
4.1005050633882547
 10
451.3594254277643358
 20
6.222016737725653
 10
450.0656865448419808
 20
8.6424319468887916
 10
449.2690060743547633
 20
11.2687354917741231
 10
449.0
 20
14.0
 10
449.0
 20
632.0
 10
449.0
 20
632.0
 10
449.2690060743547633
 20
634.7312645082258769
 10
450.0656865448419808
 20
637.3575680531112084
 10
451.3594254277643358
 20
639.777983262274347
 10
453.1005050633883116
 20
641.8994949366117453
 10
455.2220167377255962
 20
643.6405745722356642
 10
457.6424319468887347
 20
644.9343134551579624
 10
460.26873549177418
 20
645.7309939256451798
 10
463.0
 20
646.0
 97
0
 75
0
 76
1
 47
0.0
 98
0
  0
LWPOLYLINE
  5
66
330
1D
100
AcDbEntity
  8
0
  6
ByLayer
420
14147306
 48
1.0
 60
0
 67
0
370
-1
100
AcDbPolyline
 90
41
 70
1
 43
0.0
 38
0.0
 39
0.0
210
0.0
220
0.0
230
1.0
 10
463.0
 20
646.0
 40
0.0
 41
0.0
 42
0.0
 10
866.0
 20
646.0
 40
0.0
 41
0.0
 42
0.0
 10
866.0
 20
646.0
 40
0.0
 41
0.0
 42
0.0
 10
868.7312645082257632
 20
645.7309939256451798
 40
0.0
 41
0.0
 42
0.0
 10
871.3575680531112084
 20
644.9343134551579624
 40
0.0
 41
0.0
 42
0.0
 10
873.7779832622744607
 20
643.6405745722356642
 40
0.0
 41
0.0
 42
0.0
 10
875.8994949366116316
 20
641.8994949366117453
 40
0.0
 41
0.0
 42
0.0
 10
877.6405745722356642
 20
639.777983262274347
 40
0.0
 41
0.0
 42
0.0
 10
878.9343134551579624
 20
637.3575680531112084
 40
0.0
 41
0.0
 42
0.0
 10
879.7309939256451798
 20
634.7312645082258769
 40
0.0
 41
0.0
 42
0.0
 10
880.0
 20
632.0
 40
0.0
 41
0.0
 42
0.0
 10
880.0
 20
14.0
 40
0.0
 41
0.0
 42
0.0
 10
880.0
 20
14.0
 40
0.0
 41
0.0
 42
0.0
 10
879.7309939256451798
 20
11.2687354917741231
 40
0.0
 41
0.0
 42
0.0
 10
878.9343134551579624
 20
8.6424319468887916
 40
0.0
 41
0.0
 42
0.0
 10
877.6405745722356642
 20
6.222016737725653
 40
0.0
 41
0.0
 42
0.0
 10
875.8994949366116316
 20
4.1005050633882547
 40
0.0
 41
0.0
 42
0.0
 10
873.7779832622744607
 20
2.3594254277643358
 40
0.0
 41
0.0
 42
0.0
 10
871.3575680531112084
 20
1.0656865448420376
 40
0.0
 41
0.0
 42
0.0
 10
868.7312645082257632
 20
0.2690060743548202
 40
0.0
 41
0.0
 42
0.0
 10
866.0
 20
0.0
 40
0.0
 41
0.0
 42
0.0
 10
463.0
 20
0.0
 40
0.0
 41
0.0
 42
0.0
 10
463.0
 20
0.0
 40
0.0
 41
0.0
 42
0.0
 10
460.26873549177418
 20
0.2690060743548202
 40
0.0
 41
0.0
 42
0.0
 10
457.6424319468887347
 20
1.0656865448420376
 40
0.0
 41
0.0
 42
0.0
 10
455.2220167377255962
 20
2.3594254277643358
 40
0.0
 41
0.0
 42
0.0
 10
453.1005050633883116
 20
4.1005050633882547
 40
0.0
 41
0.0
 42
0.0
 10
451.3594254277643358
 20
6.222016737725653
 40
0.0
 41
0.0
 42
0.0
 10
450.0656865448419808
 20
8.6424319468887916
 40
0.0
 41
0.0
 42
0.0
 10
449.2690060743547633
 20
11.2687354917741231
 40
0.0
 41
0.0
 42
0.0
 10
449.0
 20
14.0
 40
0.0
 41
0.0
 42
0.0
 10
449.0
 20
632.0
 40
0.0
 41
0.0
 42
0.0
 10
449.0
 20
632.0
 40
0.0
 41
0.0
 42
0.0
 10
449.2690060743547633
 20
634.7312645082258769
 40
0.0
 41
0.0
 42
0.0
 10
450.0656865448419808
 20
637.3575680531112084
 40
0.0
 41
0.0
 42
0.0
 10
451.3594254277643358
 20
639.777983262274347
 40
0.0
 41
0.0
 42
0.0
 10
453.1005050633883116
 20
641.8994949366117453
 40
0.0
 41
0.0
 42
0.0
 10
455.2220167377255962
 20
643.6405745722356642
 40
0.0
 41
0.0
 42
0.0
 10
457.6424319468887347
 20
644.9343134551579624
 40
0.0
 41
0.0
 42
0.0
 10
460.26873549177418
 20
645.7309939256451798
 40
0.0
 41
0.0
 42
0.0
 10
463.0
 20
646.0
 40
0.0
 41
0.0
 42
0.0
  0
TEXT
  5
67
330
1D
100
AcDbEntity
  8
0
  6
ByLayer
420
1910582
 48
1.0
 60
0
 67
0
370
-1
100
AcDbText
 39
0.0
 10
468.0
 20
614.5
 30
0.0
 40
16.0
  1
Additional Inputs
 50
0.0
 41
1.0
 51
0.0
  7
Standard
 71
0
 72
0
 11
0.0
 21
0.0
 31
0.0
210
0.0
220
0.0
230
1.0
100
AcDbText
 73
0
  0
TEXT
  5
68
330
1D
100
AcDbEntity
  8
0
  6
ByLayer
420
4938352
 48
1.0
 60
0
 67
0
370
-1
100
AcDbText
 39
0.0
 10
468.0
 20
585.0
 30
0.0
 40
12.0
  1
MONTH
 50
0.0
 41
1.0
 51
0.0
  7
Standard
 71
0
 72
0
 11
0.0
 21
0.0
 31
0.0
210
0.0
220
0.0
230
1.0
100
AcDbText
 73
0
  0
HATCH
  5
69
330
1D
100
AcDbEntity
  8
0
  6
ByLayer
420
16777215
 48
1.0
 60
0
 67
0
370
-1
100
AcDbHatch
 30
0.0
210
0.0
220
0.0
230
1.0
  2
SOLID
 70
1
 71
0
 91
1
 92
2
 72
0
 73
1
 93
41
 10
476.0
 20
575.0
 10
853.0
 20
575.0
 10
853.0
 20
575.0
 10
854.5607225761290238
 20
574.8462822432259145
 10
856.0614674589206743
 20
574.3910362600902317
 10
857.4445618641568672
 20
573.6517568984204445
 10
858.6568542494924259
 20
572.6568542494924259
 10
859.6517568984203308
 20
571.4445618641568672
 10
860.3910362600903454
 20
570.061467458920788
 10
860.8462822432258008
 20
568.5607225761290238
 10
861.0
 20
567.0
 10
861.0
 20
541.0
 10
861.0
 20
541.0
 10
860.8462822432258008
 20
539.4392774238709762
 10
860.3910362600903454
 20
537.938532541079212
 10
859.6517568984203308
 20
536.5554381358431328
 10
858.6568542494924259
 20
535.3431457505075741
 10
857.4445618641568672
 20
534.3482431015795555
 10
856.0614674589206743
 20
533.6089637399097683
 10
854.5607225761290238
 20
533.1537177567740855
 10
853.0
 20
533.0
 10
476.0
 20
533.0
 10
476.0
 20
533.0
 10
474.4392774238709762
 20
533.1537177567740855
 10
472.9385325410792689
 20
533.6089637399097683
 10
471.5554381358431897
 20
534.3482431015795555
 10
470.343145750507631
 20
535.3431457505075741
 10
469.3482431015796124
 20
536.5554381358431328
 10
468.6089637399097114
 20
537.938532541079212
 10
468.1537177567741423
 20
539.4392774238709762
 10
468.0
 20
541.0
 10
468.0
 20
567.0
 10
468.0
 20
567.0
 10
468.1537177567741423
 20
568.5607225761290238
 10
468.6089637399097114
 20
570.061467458920788
 10
469.3482431015796124
 20
571.4445618641568672
 10
470.343145750507631
 20
572.6568542494924259
 10
471.5554381358431897
 20
573.6517568984204445
 10
472.9385325410792689
 20
574.3910362600902317
 10
474.4392774238709762
 20
574.8462822432259145
 10
476.0
 20
575.0
 97
0
 75
0
 76
1
 47
0.0
 98
0
  0
LWPOLYLINE
  5
6A
330
1D
100
AcDbEntity
  8
0
  6
ByLayer
420
9741240
 48
1.0
 60
0
 67
0
370
-1
100
AcDbPolyline
 90
41
 70
1
 43
0.0
 38
0.0
 39
0.0
210
0.0
220
0.0
230
1.0
 10
476.0
 20
575.0
 40
0.0
 41
0.0
 42
0.0
 10
853.0
 20
575.0
 40
0.0
 41
0.0
 42
0.0
 10
853.0
 20
575.0
 40
0.0
 41
0.0
 42
0.0
 10
854.5607225761290238
 20
574.8462822432259145
 40
0.0
 41
0.0
 42
0.0
 10
856.0614674589206743
 20
574.3910362600902317
 40
0.0
 41
0.0
 42
0.0
 10
857.4445618641568672
 20
573.6517568984204445
 40
0.0
 41
0.0
 42
0.0
 10
858.6568542494924259
 20
572.6568542494924259
 40
0.0
 41
0.0
 42
0.0
 10
859.6517568984203308
 20
571.4445618641568672
 40
0.0
 41
0.0
 42
0.0
 10
860.3910362600903454
 20
570.061467458920788
 40
0.0
 41
0.0
 42
0.0
 10
860.8462822432258008
 20
568.5607225761290238
 40
0.0
 41
0.0
 42
0.0
 10
861.0
 20
567.0
 40
0.0
 41
0.0
 42
0.0
 10
861.0
 20
541.0
 40
0.0
 41
0.0
 42
0.0
 10
861.0
 20
541.0
 40
0.0
 41
0.0
 42
0.0
 10
860.8462822432258008
 20
539.4392774238709762
 40
0.0
 41
0.0
 42
0.0
 10
860.3910362600903454
 20
537.938532541079212
 40
0.0
 41
0.0
 42
0.0
 10
859.6517568984203308
 20
536.5554381358431328
 40
0.0
 41
0.0
 42
0.0
 10
858.6568542494924259
 20
535.3431457505075741
 40
0.0
 41
0.0
 42
0.0
 10
857.4445618641568672
 20
534.3482431015795555
 40
0.0
 41
0.0
 42
0.0
 10
856.0614674589206743
 20
533.6089637399097683
 40
0.0
 41
0.0
 42
0.0
 10
854.5607225761290238
 20
533.1537177567740855
 40
0.0
 41
0.0
 42
0.0
 10
853.0
 20
533.0
 40
0.0
 41
0.0
 42
0.0
 10
476.0
 20
533.0
 40
0.0
 41
0.0
 42
0.0
 10
476.0
 20
533.0
 40
0.0
 41
0.0
 42
0.0
 10
474.4392774238709762
 20
533.1537177567740855
 40
0.0
 41
0.0
 42
0.0
 10
472.9385325410792689
 20
533.6089637399097683
 40
0.0
 41
0.0
 42
0.0
 10
471.5554381358431897
 20
534.3482431015795555
 40
0.0
 41
0.0
 42
0.0
 10
470.343145750507631
 20
535.3431457505075741
 40
0.0
 41
0.0
 42
0.0
 10
469.3482431015796124
 20
536.5554381358431328
 40
0.0
 41
0.0
 42
0.0
 10
468.6089637399097114
 20
537.938532541079212
 40
0.0
 41
0.0
 42
0.0
 10
468.1537177567741423
 20
539.4392774238709762
 40
0.0
 41
0.0
 42
0.0
 10
468.0
 20
541.0
 40
0.0
 41
0.0
 42
0.0
 10
468.0
 20
567.0
 40
0.0
 41
0.0
 42
0.0
 10
468.0
 20
567.0
 40
0.0
 41
0.0
 42
0.0
 10
468.1537177567741423
 20
568.5607225761290238
 40
0.0
 41
0.0
 42
0.0
 10
468.6089637399097114
 20
570.061467458920788
 40
0.0
 41
0.0
 42
0.0
 10
469.3482431015796124
 20
571.4445618641568672
 40
0.0
 41
0.0
 42
0.0
 10
470.343145750507631
 20
572.6568542494924259
 40
0.0
 41
0.0
 42
0.0
 10
471.5554381358431897
 20
573.6517568984204445
 40
0.0
 41
0.0
 42
0.0
 10
472.9385325410792689
 20
574.3910362600902317
 40
0.0
 41
0.0
 42
0.0
 10
474.4392774238709762
 20
574.8462822432259145
 40
0.0
 41
0.0
 42
0.0
 10
476.0
 20
575.0
 40
0.0
 41
0.0
 42
0.0
  0
TEXT
  5
6B
330
1D
100
AcDbEntity
  8
0
  6
ByLayer
420
1120295
 48
1.0
 60
0
 67
0
370
-1
100
AcDbText
 39
0.0
 10
480.0
 20
550.0
 30
0.0
 40
16.0
  1
2026-04
 50
0.0
 41
1.0
 51
0.0
  7
Standard
 71
0
 72
0
 11
0.0
 21
0.0
 31
0.0
210
0.0
220
0.0
230
1.0
100
AcDbText
 73
0
  0
TEXT
  5
6C
330
1D
100
AcDbEntity
  8
0
  6
ByLayer
420
4938352
 48
1.0
 60
0
 67
0
370
-1
100
AcDbText
 39
0.0
 10
468.0
 20
509.0
 30
0.0
 40
12.0
  1
WEEK
 50
0.0
 41
1.0
 51
0.0
  7
Standard
 71
0
 72
0
 11
0.0
 21
0.0
 31
0.0
210
0.0
220
0.0
230
1.0
100
AcDbText
 73
0
  0
HATCH
  5
6D
330
1D
100
AcDbEntity
  8
0
  6
ByLayer
420
16777215
 48
1.0
 60
0
 67
0
370
-1
100
AcDbHatch
 30
0.0
210
0.0
220
0.0
230
1.0
  2
SOLID
 70
1
 71
0
 91
1
 92
2
 72
0
 73
1
 93
41
 10
476.0
 20
499.0
 10
853.0
 20
499.0
 10
853.0
 20
499.0
 10
854.5607225761290238
 20
498.8462822432258008
 10
856.0614674589206743
 20
498.3910362600903454
 10
857.4445618641568672
 20
497.6517568984203308
 10
858.6568542494924259
 20
496.6568542494924259
 10
859.6517568984203308
 20
495.4445618641568672
 10
860.3910362600903454
 20
494.0614674589206743
 10
860.8462822432258008
 20
492.5607225761290238
 10
861.0
 20
491.0
 10
861.0
 20
465.0
 10
861.0
 20
465.0
 10
860.8462822432258008
 20
463.4392774238709762
 10
860.3910362600903454
 20
461.9385325410793257
 10
859.6517568984203308
 20
460.5554381358431328
 10
858.6568542494924259
 20
459.3431457505075741
 10
857.4445618641568672
 20
458.3482431015796692
 10
856.0614674589206743
 20
457.6089637399096546
 10
854.5607225761290238
 20
457.1537177567741992
 10
853.0
 20
457.0
 10
476.0
 20
457.0
 10
476.0
 20
457.0
 10
474.4392774238709762
 20
457.1537177567741992
 10
472.9385325410792689
 20
457.6089637399096546
 10
471.5554381358431897
 20
458.3482431015796692
 10
470.343145750507631
 20
459.3431457505075741
 10
469.3482431015796124
 20
460.5554381358431328
 10
468.6089637399097114
 20
461.9385325410793257
 10
468.1537177567741423
 20
463.4392774238709762
 10
468.0
 20
465.0
 10
468.0
 20
491.0
 10
468.0
 20
491.0
 10
468.1537177567741423
 20
492.5607225761290238
 10
468.6089637399097114
 20
494.0614674589206743
 10
469.3482431015796124
 20
495.4445618641568672
 10
470.343145750507631
 20
496.6568542494924259
 10
471.5554381358431897
 20
497.6517568984203308
 10
472.9385325410792689
 20
498.3910362600903454
 10
474.4392774238709762
 20
498.8462822432258008
 10
476.0
 20
499.0
 97
0
 75
0
 76
1
 47
0.0
 98
0
  0
LWPOLYLINE
  5
6E
330
1D
100
AcDbEntity
  8
0
  6
ByLayer
420
9741240
 48
1.0
 60
0
 67
0
370
-1
100
AcDbPolyline
 90
41
 70
1
 43
0.0
 38
0.0
 39
0.0
210
0.0
220
0.0
230
1.0
 10
476.0
 20
499.0
 40
0.0
 41
0.0
 42
0.0
 10
853.0
 20
499.0
 40
0.0
 41
0.0
 42
0.0
 10
853.0
 20
499.0
 40
0.0
 41
0.0
 42
0.0
 10
854.5607225761290238
 20
498.8462822432258008
 40
0.0
 41
0.0
 42
0.0
 10
856.0614674589206743
 20
498.3910362600903454
 40
0.0
 41
0.0
 42
0.0
 10
857.4445618641568672
 20
497.6517568984203308
 40
0.0
 41
0.0
 42
0.0
 10
858.6568542494924259
 20
496.6568542494924259
 40
0.0
 41
0.0
 42
0.0
 10
859.6517568984203308
 20
495.4445618641568672
 40
0.0
 41
0.0
 42
0.0
 10
860.3910362600903454
 20
494.0614674589206743
 40
0.0
 41
0.0
 42
0.0
 10
860.8462822432258008
 20
492.5607225761290238
 40
0.0
 41
0.0
 42
0.0
 10
861.0
 20
491.0
 40
0.0
 41
0.0
 42
0.0
 10
861.0
 20
465.0
 40
0.0
 41
0.0
 42
0.0
 10
861.0
 20
465.0
 40
0.0
 41
0.0
 42
0.0
 10
860.8462822432258008
 20
463.4392774238709762
 40
0.0
 41
0.0
 42
0.0
 10
860.3910362600903454
 20
461.9385325410793257
 40
0.0
 41
0.0
 42
0.0
 10
859.6517568984203308
 20
460.5554381358431328
 40
0.0
 41
0.0
 42
0.0
 10
858.6568542494924259
 20
459.3431457505075741
 40
0.0
 41
0.0
 42
0.0
 10
857.4445618641568672
 20
458.3482431015796692
 40
0.0
 41
0.0
 42
0.0
 10
856.0614674589206743
 20
457.6089637399096546
 40
0.0
 41
0.0
 42
0.0
 10
854.5607225761290238
 20
457.1537177567741992
 40
0.0
 41
0.0
 42
0.0
 10
853.0
 20
457.0
 40
0.0
 41
0.0
 42
0.0
 10
476.0
 20
457.0
 40
0.0
 41
0.0
 42
0.0
 10
476.0
 20
457.0
 40
0.0
 41
0.0
 42
0.0
 10
474.4392774238709762
 20
457.1537177567741992
 40
0.0
 41
0.0
 42
0.0
 10
472.9385325410792689
 20
457.6089637399096546
 40
0.0
 41
0.0
 42
0.0
 10
471.5554381358431897
 20
458.3482431015796692
 40
0.0
 41
0.0
 42
0.0
 10
470.343145750507631
 20
459.3431457505075741
 40
0.0
 41
0.0
 42
0.0
 10
469.3482431015796124
 20
460.5554381358431328
 40
0.0
 41
0.0
 42
0.0
 10
468.6089637399097114
 20
461.9385325410793257
 40
0.0
 41
0.0
 42
0.0
 10
468.1537177567741423
 20
463.4392774238709762
 40
0.0
 41
0.0
 42
0.0
 10
468.0
 20
465.0
 40
0.0
 41
0.0
 42
0.0
 10
468.0
 20
491.0
 40
0.0
 41
0.0
 42
0.0
 10
468.0
 20
491.0
 40
0.0
 41
0.0
 42
0.0
 10
468.1537177567741423
 20
492.5607225761290238
 40
0.0
 41
0.0
 42
0.0
 10
468.6089637399097114
 20
494.0614674589206743
 40
0.0
 41
0.0
 42
0.0
 10
469.3482431015796124
 20
495.4445618641568672
 40
0.0
 41
0.0
 42
0.0
 10
470.343145750507631
 20
496.6568542494924259
 40
0.0
 41
0.0
 42
0.0
 10
471.5554381358431897
 20
497.6517568984203308
 40
0.0
 41
0.0
 42
0.0
 10
472.9385325410792689
 20
498.3910362600903454
 40
0.0
 41
0.0
 42
0.0
 10
474.4392774238709762
 20
498.8462822432258008
 40
0.0
 41
0.0
 42
0.0
 10
476.0
 20
499.0
 40
0.0
 41
0.0
 42
0.0
  0
TEXT
  5
6F
330
1D
100
AcDbEntity
  8
0
  6
ByLayer
420
1120295
 48
1.0
 60
0
 67
0
370
-1
100
AcDbText
 39
0.0
 10
480.0
 20
474.0
 30
0.0
 40
16.0
  1
2026-W16
 50
0.0
 41
1.0
 51
0.0
  7
Standard
 71
0
 72
0
 11
0.0
 21
0.0
 31
0.0
210
0.0
220
0.0
230
1.0
100
AcDbText
 73
0
  0
TEXT
  5
70
330
1D
100
AcDbEntity
  8
0
  6
ByLayer
420
4938352
 48
1.0
 60
0
 67
0
370
-1
100
AcDbText
 39
0.0
 10
468.0
 20
433.0
 30
0.0
 40
12.0
  1
NUMBER
 50
0.0
 41
1.0
 51
0.0
  7
Standard
 71
0
 72
0
 11
0.0
 21
0.0
 31
0.0
210
0.0
220
0.0
230
1.0
100
AcDbText
 73
0
  0
HATCH
  5
71
330
1D
100
AcDbEntity
  8
0
  6
ByLayer
420
16777215
 48
1.0
 60
0
 67
0
370
-1
100
AcDbHatch
 30
0.0
210
0.0
220
0.0
230
1.0
  2
SOLID
 70
1
 71
0
 91
1
 92
2
 72
0
 73
1
 93
41
 10
476.0
 20
423.0
 10
853.0
 20
423.0
 10
853.0
 20
423.0
 10
854.5607225761290238
 20
422.8462822432258008
 10
856.0614674589206743
 20
422.3910362600903454
 10
857.4445618641568672
 20
421.6517568984203308
 10
858.6568542494924259
 20
420.6568542494924259
 10
859.6517568984203308
 20
419.4445618641568672
 10
860.3910362600903454
 20
418.0614674589206743
 10
860.8462822432258008
 20
416.5607225761290238
 10
861.0
 20
415.0
 10
861.0
 20
391.0
 10
861.0
 20
391.0
 10
860.8462822432258008
 20
389.4392774238709762
 10
860.3910362600903454
 20
387.9385325410793257
 10
859.6517568984203308
 20
386.5554381358431328
 10
858.6568542494924259
 20
385.3431457505075741
 10
857.4445618641568672
 20
384.3482431015796692
 10
856.0614674589206743
 20
383.6089637399096546
 10
854.5607225761290238
 20
383.1537177567741992
 10
853.0
 20
383.0
 10
476.0
 20
383.0
 10
476.0
 20
383.0
 10
474.4392774238709762
 20
383.1537177567741992
 10
472.9385325410792689
 20
383.6089637399096546
 10
471.5554381358431897
 20
384.3482431015796692
 10
470.343145750507631
 20
385.3431457505075741
 10
469.3482431015796124
 20
386.5554381358431328
 10
468.6089637399097114
 20
387.9385325410793257
 10
468.1537177567741423
 20
389.4392774238709762
 10
468.0
 20
391.0
 10
468.0
 20
415.0
 10
468.0
 20
415.0
 10
468.1537177567741423
 20
416.5607225761290238
 10
468.6089637399097114
 20
418.0614674589206743
 10
469.3482431015796124
 20
419.4445618641568672
 10
470.343145750507631
 20
420.6568542494924259
 10
471.5554381358431897
 20
421.6517568984203308
 10
472.9385325410792689
 20
422.3910362600903454
 10
474.4392774238709762
 20
422.8462822432258008
 10
476.0
 20
423.0
 97
0
 75
0
 76
1
 47
0.0
 98
0
  0
LWPOLYLINE
  5
72
330
1D
100
AcDbEntity
  8
0
  6
ByLayer
420
9741240
 48
1.0
 60
0
 67
0
370
-1
100
AcDbPolyline
 90
41
 70
1
 43
0.0
 38
0.0
 39
0.0
210
0.0
220
0.0
230
1.0
 10
476.0
 20
423.0
 40
0.0
 41
0.0
 42
0.0
 10
853.0
 20
423.0
 40
0.0
 41
0.0
 42
0.0
 10
853.0
 20
423.0
 40
0.0
 41
0.0
 42
0.0
 10
854.5607225761290238
 20
422.8462822432258008
 40
0.0
 41
0.0
 42
0.0
 10
856.0614674589206743
 20
422.3910362600903454
 40
0.0
 41
0.0
 42
0.0
 10
857.4445618641568672
 20
421.6517568984203308
 40
0.0
 41
0.0
 42
0.0
 10
858.6568542494924259
 20
420.6568542494924259
 40
0.0
 41
0.0
 42
0.0
 10
859.6517568984203308
 20
419.4445618641568672
 40
0.0
 41
0.0
 42
0.0
 10
860.3910362600903454
 20
418.0614674589206743
 40
0.0
 41
0.0
 42
0.0
 10
860.8462822432258008
 20
416.5607225761290238
 40
0.0
 41
0.0
 42
0.0
 10
861.0
 20
415.0
 40
0.0
 41
0.0
 42
0.0
 10
861.0
 20
391.0
 40
0.0
 41
0.0
 42
0.0
 10
861.0
 20
391.0
 40
0.0
 41
0.0
 42
0.0
 10
860.8462822432258008
 20
389.4392774238709762
 40
0.0
 41
0.0
 42
0.0
 10
860.3910362600903454
 20
387.9385325410793257
 40
0.0
 41
0.0
 42
0.0
 10
859.6517568984203308
 20
386.5554381358431328
 40
0.0
 41
0.0
 42
0.0
 10
858.6568542494924259
 20
385.3431457505075741
 40
0.0
 41
0.0
 42
0.0
 10
857.4445618641568672
 20
384.3482431015796692
 40
0.0
 41
0.0
 42
0.0
 10
856.0614674589206743
 20
383.6089637399096546
 40
0.0
 41
0.0
 42
0.0
 10
854.5607225761290238
 20
383.1537177567741992
 40
0.0
 41
0.0
 42
0.0
 10
853.0
 20
383.0
 40
0.0
 41
0.0
 42
0.0
 10
476.0
 20
383.0
 40
0.0
 41
0.0
 42
0.0
 10
476.0
 20
383.0
 40
0.0
 41
0.0
 42
0.0
 10
474.4392774238709762
 20
383.1537177567741992
 40
0.0
 41
0.0
 42
0.0
 10
472.9385325410792689
 20
383.6089637399096546
 40
0.0
 41
0.0
 42
0.0
 10
471.5554381358431897
 20
384.3482431015796692
 40
0.0
 41
0.0
 42
0.0
 10
470.343145750507631
 20
385.3431457505075741
 40
0.0
 41
0.0
 42
0.0
 10
469.3482431015796124
 20
386.5554381358431328
 40
0.0
 41
0.0
 42
0.0
 10
468.6089637399097114
 20
387.9385325410793257
 40
0.0
 41
0.0
 42
0.0
 10
468.1537177567741423
 20
389.4392774238709762
 40
0.0
 41
0.0
 42
0.0
 10
468.0
 20
391.0
 40
0.0
 41
0.0
 42
0.0
 10
468.0
 20
415.0
 40
0.0
 41
0.0
 42
0.0
 10
468.0
 20
415.0
 40
0.0
 41
0.0
 42
0.0
 10
468.1537177567741423
 20
416.5607225761290238
 40
0.0
 41
0.0
 42
0.0
 10
468.6089637399097114
 20
418.0614674589206743
 40
0.0
 41
0.0
 42
0.0
 10
469.3482431015796124
 20
419.4445618641568672
 40
0.0
 41
0.0
 42
0.0
 10
470.343145750507631
 20
420.6568542494924259
 40
0.0
 41
0.0
 42
0.0
 10
471.5554381358431897
 20
421.6517568984203308
 40
0.0
 41
0.0
 42
0.0
 10
472.9385325410792689
 20
422.3910362600903454
 40
0.0
 41
0.0
 42
0.0
 10
474.4392774238709762
 20
422.8462822432258008
 40
0.0
 41
0.0
 42
0.0
 10
476.0
 20
423.0
 40
0.0
 41
0.0
 42
0.0
  0
TEXT
  5
73
330
1D
100
AcDbEntity
  8
0
  6
ByLayer
420
1120295
 48
1.0
 60
0
 67
0
370
-1
100
AcDbText
 39
0.0
 10
480.0
 20
399.0
 30
0.0
 40
16.0
  1
42
 50
0.0
 41
1.0
 51
0.0
  7
Standard
 71
0
 72
0
 11
0.0
 21
0.0
 31
0.0
210
0.0
220
0.0
230
1.0
100
AcDbText
 73
0
  0
TEXT
  5
74
330
1D
100
AcDbEntity
  8
0
  6
ByLayer
420
4938352
 48
1.0
 60
0
 67
0
370
-1
100
AcDbText
 39
0.0
 10
468.0
 20
359.0
 30
0.0
 40
12.0
  1
COLOR
 50
0.0
 41
1.0
 51
0.0
  7
Standard
 71
0
 72
0
 11
0.0
 21
0.0
 31
0.0
210
0.0
220
0.0
230
1.0
100
AcDbText
 73
0
  0
HATCH
  5
75
330
1D
100
AcDbEntity
  8
0
  6
ByLayer
420
16777215
 48
1.0
 60
0
 67
0
370
-1
100
AcDbHatch
 30
0.0
210
0.0
220
0.0
230
1.0
  2
SOLID
 70
1
 71
0
 91
1
 92
2
 72
0
 73
1
 93
41
 10
476.0
 20
349.0
 10
853.0
 20
349.0
 10
853.0
 20
349.0
 10
854.5607225761290238
 20
348.8462822432258008
 10
856.0614674589206743
 20
348.3910362600903454
 10
857.4445618641568672
 20
347.6517568984203308
 10
858.6568542494924259
 20
346.6568542494924259
 10
859.6517568984203308
 20
345.4445618641568672
 10
860.3910362600903454
 20
344.0614674589206743
 10
860.8462822432258008
 20
342.5607225761290238
 10
861.0
 20
341.0
 10
861.0
 20
319.0
 10
861.0
 20
319.0
 10
860.8462822432258008
 20
317.4392774238709762
 10
860.3910362600903454
 20
315.9385325410793257
 10
859.6517568984203308
 20
314.5554381358431328
 10
858.6568542494924259
 20
313.3431457505075741
 10
857.4445618641568672
 20
312.3482431015796692
 10
856.0614674589206743
 20
311.6089637399096546
 10
854.5607225761290238
 20
311.1537177567741992
 10
853.0
 20
311.0
 10
476.0
 20
311.0
 10
476.0
 20
311.0
 10
474.4392774238709762
 20
311.1537177567741992
 10
472.9385325410792689
 20
311.6089637399096546
 10
471.5554381358431897
 20
312.3482431015796692
 10
470.343145750507631
 20
313.3431457505075741
 10
469.3482431015796124
 20
314.5554381358431328
 10
468.6089637399097114
 20
315.9385325410793257
 10
468.1537177567741423
 20
317.4392774238709762
 10
468.0
 20
319.0
 10
468.0
 20
341.0
 10
468.0
 20
341.0
 10
468.1537177567741423
 20
342.5607225761290238
 10
468.6089637399097114
 20
344.0614674589206743
 10
469.3482431015796124
 20
345.4445618641568672
 10
470.343145750507631
 20
346.6568542494924259
 10
471.5554381358431897
 20
347.6517568984203308
 10
472.9385325410792689
 20
348.3910362600903454
 10
474.4392774238709762
 20
348.8462822432258008
 10
476.0
 20
349.0
 97
0
 75
0
 76
1
 47
0.0
 98
0
  0
LWPOLYLINE
  5
76
330
1D
100
AcDbEntity
  8
0
  6
ByLayer
420
9741240
 48
1.0
 60
0
 67
0
370
-1
100
AcDbPolyline
 90
41
 70
1
 43
0.0
 38
0.0
 39
0.0
210
0.0
220
0.0
230
1.0
 10
476.0
 20
349.0
 40
0.0
 41
0.0
 42
0.0
 10
853.0
 20
349.0
 40
0.0
 41
0.0
 42
0.0
 10
853.0
 20
349.0
 40
0.0
 41
0.0
 42
0.0
 10
854.5607225761290238
 20
348.8462822432258008
 40
0.0
 41
0.0
 42
0.0
 10
856.0614674589206743
 20
348.3910362600903454
 40
0.0
 41
0.0
 42
0.0
 10
857.4445618641568672
 20
347.6517568984203308
 40
0.0
 41
0.0
 42
0.0
 10
858.6568542494924259
 20
346.6568542494924259
 40
0.0
 41
0.0
 42
0.0
 10
859.6517568984203308
 20
345.4445618641568672
 40
0.0
 41
0.0
 42
0.0
 10
860.3910362600903454
 20
344.0614674589206743
 40
0.0
 41
0.0
 42
0.0
 10
860.8462822432258008
 20
342.5607225761290238
 40
0.0
 41
0.0
 42
0.0
 10
861.0
 20
341.0
 40
0.0
 41
0.0
 42
0.0
 10
861.0
 20
319.0
 40
0.0
 41
0.0
 42
0.0
 10
861.0
 20
319.0
 40
0.0
 41
0.0
 42
0.0
 10
860.8462822432258008
 20
317.4392774238709762
 40
0.0
 41
0.0
 42
0.0
 10
860.3910362600903454
 20
315.9385325410793257
 40
0.0
 41
0.0
 42
0.0
 10
859.6517568984203308
 20
314.5554381358431328
 40
0.0
 41
0.0
 42
0.0
 10
858.6568542494924259
 20
313.3431457505075741
 40
0.0
 41
0.0
 42
0.0
 10
857.4445618641568672
 20
312.3482431015796692
 40
0.0
 41
0.0
 42
0.0
 10
856.0614674589206743
 20
311.6089637399096546
 40
0.0
 41
0.0
 42
0.0
 10
854.5607225761290238
 20
311.1537177567741992
 40
0.0
 41
0.0
 42
0.0
 10
853.0
 20
311.0
 40
0.0
 41
0.0
 42
0.0
 10
476.0
 20
311.0
 40
0.0
 41
0.0
 42
0.0
 10
476.0
 20
311.0
 40
0.0
 41
0.0
 42
0.0
 10
474.4392774238709762
 20
311.1537177567741992
 40
0.0
 41
0.0
 42
0.0
 10
472.9385325410792689
 20
311.6089637399096546
 40
0.0
 41
0.0
 42
0.0
 10
471.5554381358431897
 20
312.3482431015796692
 40
0.0
 41
0.0
 42
0.0
 10
470.343145750507631
 20
313.3431457505075741
 40
0.0
 41
0.0
 42
0.0
 10
469.3482431015796124
 20
314.5554381358431328
 40
0.0
 41
0.0
 42
0.0
 10
468.6089637399097114
 20
315.9385325410793257
 40
0.0
 41
0.0
 42
0.0
 10
468.1537177567741423
 20
317.4392774238709762
 40
0.0
 41
0.0
 42
0.0
 10
468.0
 20
319.0
 40
0.0
 41
0.0
 42
0.0
 10
468.0
 20
341.0
 40
0.0
 41
0.0
 42
0.0
 10
468.0
 20
341.0
 40
0.0
 41
0.0
 42
0.0
 10
468.1537177567741423
 20
342.5607225761290238
 40
0.0
 41
0.0
 42
0.0
 10
468.6089637399097114
 20
344.0614674589206743
 40
0.0
 41
0.0
 42
0.0
 10
469.3482431015796124
 20
345.4445618641568672
 40
0.0
 41
0.0
 42
0.0
 10
470.343145750507631
 20
346.6568542494924259
 40
0.0
 41
0.0
 42
0.0
 10
471.5554381358431897
 20
347.6517568984203308
 40
0.0
 41
0.0
 42
0.0
 10
472.9385325410792689
 20
348.3910362600903454
 40
0.0
 41
0.0
 42
0.0
 10
474.4392774238709762
 20
348.8462822432258008
 40
0.0
 41
0.0
 42
0.0
 10
476.0
 20
349.0
 40
0.0
 41
0.0
 42
0.0
  0
HATCH
  5
77
330
1D
100
AcDbEntity
  8
0
  6
ByLayer
420
1008382
 48
1.0
 60
0
 67
0
370
-1
100
AcDbHatch
 30
0.0
210
0.0
220
0.0
230
1.0
  2
SOLID
 70
1
 71
0
 91
1
 92
2
 72
0
 73
1
 93
41
 10
479.8000000000000114
 20
345.2000000000000455
 10
849.2000000000000455
 20
345.2000000000000455
 10
849.2000000000000455
 20
345.2000000000000455
 10
850.7607225761290692
 20
345.0462822432258463
 10
852.2614674589207198
 20
344.5910362600903909
 10
853.6445618641569126
 20
343.8517568984203763
 10
854.8568542494924714
 20
342.8568542494924714
 10
855.8517568984203763
 20
341.6445618641569126
 10
856.5910362600903909
 20
340.2614674589207198
 10
857.0462822432258463
 20
338.7607225761290692
 10
857.2000000000000455
 20
337.2000000000000455
 10
857.2000000000000455
 20
322.7999999999999545
 10
857.2000000000000455
 20
322.7999999999999545
 10
857.0462822432258463
 20
321.2392774238709308
 10
856.5910362600903909
 20
319.7385325410792802
 10
855.8517568984203763
 20
318.3554381358430874
 10
854.8568542494924714
 20
317.1431457505075286
 10
853.6445618641569126
 20
316.1482431015796237
 10
852.2614674589207198
 20
315.4089637399096091
 10
850.7607225761290692
 20
314.9537177567741537
 10
849.2000000000000455
 20
314.7999999999999545
 10
479.8000000000000114
 20
314.7999999999999545
 10
479.8000000000000114
 20
314.7999999999999545
 10
478.2392774238709876
 20
314.9537177567741537
 10
476.7385325410792802
 20
315.4089637399096091
 10
475.3554381358432011
 20
316.1482431015796237
 10
474.1431457505076423
 20
317.1431457505075286
 10
473.1482431015796237
 20
318.3554381358430874
 10
472.4089637399097228
 20
319.7385325410792802
 10
471.9537177567741537
 20
321.2392774238709308
 10
471.8000000000000114
 20
322.7999999999999545
 10
471.8000000000000114
 20
337.2000000000000455
 10
471.8000000000000114
 20
337.2000000000000455
 10
471.9537177567741537
 20
338.7607225761290692
 10
472.4089637399097228
 20
340.2614674589207198
 10
473.1482431015796237
 20
341.6445618641569126
 10
474.1431457505076423
 20
342.8568542494924714
 10
475.3554381358432011
 20
343.8517568984203763
 10
476.7385325410792802
 20
344.5910362600903909
 10
478.2392774238709876
 20
345.0462822432258463
 10
479.8000000000000114
 20
345.2000000000000455
 97
0
 75
0
 76
1
 47
0.0
 98
0
  0
LWPOLYLINE
  5
78
330
1D
100
AcDbEntity
  8
0
  6
ByLayer
420
9741240
 48
1.0
 60
0
 67
0
370
-1
100
AcDbPolyline
 90
41
 70
1
 43
0.0
 38
0.0
 39
0.0
210
0.0
220
0.0
230
1.0
 10
479.8000000000000114
 20
345.2000000000000455
 40
0.0
 41
0.0
 42
0.0
 10
849.2000000000000455
 20
345.2000000000000455
 40
0.0
 41
0.0
 42
0.0
 10
849.2000000000000455
 20
345.2000000000000455
 40
0.0
 41
0.0
 42
0.0
 10
850.7607225761290692
 20
345.0462822432258463
 40
0.0
 41
0.0
 42
0.0
 10
852.2614674589207198
 20
344.5910362600903909
 40
0.0
 41
0.0
 42
0.0
 10
853.6445618641569126
 20
343.8517568984203763
 40
0.0
 41
0.0
 42
0.0
 10
854.8568542494924714
 20
342.8568542494924714
 40
0.0
 41
0.0
 42
0.0
 10
855.8517568984203763
 20
341.6445618641569126
 40
0.0
 41
0.0
 42
0.0
 10
856.5910362600903909
 20
340.2614674589207198
 40
0.0
 41
0.0
 42
0.0
 10
857.0462822432258463
 20
338.7607225761290692
 40
0.0
 41
0.0
 42
0.0
 10
857.2000000000000455
 20
337.2000000000000455
 40
0.0
 41
0.0
 42
0.0
 10
857.2000000000000455
 20
322.7999999999999545
 40
0.0
 41
0.0
 42
0.0
 10
857.2000000000000455
 20
322.7999999999999545
 40
0.0
 41
0.0
 42
0.0
 10
857.0462822432258463
 20
321.2392774238709308
 40
0.0
 41
0.0
 42
0.0
 10
856.5910362600903909
 20
319.7385325410792802
 40
0.0
 41
0.0
 42
0.0
 10
855.8517568984203763
 20
318.3554381358430874
 40
0.0
 41
0.0
 42
0.0
 10
854.8568542494924714
 20
317.1431457505075286
 40
0.0
 41
0.0
 42
0.0
 10
853.6445618641569126
 20
316.1482431015796237
 40
0.0
 41
0.0
 42
0.0
 10
852.2614674589207198
 20
315.4089637399096091
 40
0.0
 41
0.0
 42
0.0
 10
850.7607225761290692
 20
314.9537177567741537
 40
0.0
 41
0.0
 42
0.0
 10
849.2000000000000455
 20
314.7999999999999545
 40
0.0
 41
0.0
 42
0.0
 10
479.8000000000000114
 20
314.7999999999999545
 40
0.0
 41
0.0
 42
0.0
 10
479.8000000000000114
 20
314.7999999999999545
 40
0.0
 41
0.0
 42
0.0
 10
478.2392774238709876
 20
314.9537177567741537
 40
0.0
 41
0.0
 42
0.0
 10
476.7385325410792802
 20
315.4089637399096091
 40
0.0
 41
0.0
 42
0.0
 10
475.3554381358432011
 20
316.1482431015796237
 40
0.0
 41
0.0
 42
0.0
 10
474.1431457505076423
 20
317.1431457505075286
 40
0.0
 41
0.0
 42
0.0
 10
473.1482431015796237
 20
318.3554381358430874
 40
0.0
 41
0.0
 42
0.0
 10
472.4089637399097228
 20
319.7385325410792802
 40
0.0
 41
0.0
 42
0.0
 10
471.9537177567741537
 20
321.2392774238709308
 40
0.0
 41
0.0
 42
0.0
 10
471.8000000000000114
 20
322.7999999999999545
 40
0.0
 41
0.0
 42
0.0
 10
471.8000000000000114
 20
337.2000000000000455
 40
0.0
 41
0.0
 42
0.0
 10
471.8000000000000114
 20
337.2000000000000455
 40
0.0
 41
0.0
 42
0.0
 10
471.9537177567741537
 20
338.7607225761290692
 40
0.0
 41
0.0
 42
0.0
 10
472.4089637399097228
 20
340.2614674589207198
 40
0.0
 41
0.0
 42
0.0
 10
473.1482431015796237
 20
341.6445618641569126
 40
0.0
 41
0.0
 42
0.0
 10
474.1431457505076423
 20
342.8568542494924714
 40
0.0
 41
0.0
 42
0.0
 10
475.3554381358432011
 20
343.8517568984203763
 40
0.0
 41
0.0
 42
0.0
 10
476.7385325410792802
 20
344.5910362600903909
 40
0.0
 41
0.0
 42
0.0
 10
478.2392774238709876
 20
345.0462822432258463
 40
0.0
 41
0.0
 42
0.0
 10
479.8000000000000114
 20
345.2000000000000455
 40
0.0
 41
0.0
 42
0.0
  0
TEXT
  5
79
330
1D
100
AcDbEntity
  8
0
  6
ByLayer
420
4938352
 48
1.0
 60
0
 67
0
370
-1
100
AcDbText
 39
0.0
 10
468.0
 20
287.0
 30
0.0
 40
12.0
  1
RANGE
 50
0.0
 41
1.0
 51
0.0
  7
Standard
 71
0
 72
0
 11
0.0
 21
0.0
 31
0.0
210
0.0
220
0.0
230
1.0
100
AcDbText
 73
0
  0
HATCH
  5
7A
330
1D
100
AcDbEntity
  8
0
  6
ByLayer
420
15263976
 48
1.0
 60
0
 67
0
370
-1
100
AcDbHatch
 30
0.0
210
0.0
220
0.0
230
1.0
  2
SOLID
 70
1
 71
0
 91
1
 92
2
 72
0
 73
1
 93
41
 10
477.6000000000000227
 20
269.0
 10
855.4000000000000909
 20
269.0
 10
855.4000000000000909
 20
269.0
 10
855.7901806440323753
 20
268.9615705608064218
 10
856.1653668647302311
 20
268.8477590650226148
 10
856.5111404660392509
 20
268.6629392246051111
 10
856.8142135623731974
 20
268.4142135623731065
 10
857.0629392246052021
 20
268.1111404660391599
 10
857.2477590650227057
 20
267.7653668647301402
 10
857.3615705608065127
 20
267.3901806440322844
 10
857.4000000000000909
 20
267.0
 10
857.4000000000000909
 20
267.0
 10
857.4000000000000909
 20
267.0
 10
857.3615705608065127
 20
266.6098193559677156
 10
857.2477590650227057
 20
266.2346331352698598
 10
857.0629392246052021
 20
265.8888595339608401
 10
856.8142135623731974
 20
265.5857864376268935
 10
856.5111404660392509
 20
265.3370607753948889
 10
856.1653668647302311
 20
265.1522409349773852
 10
855.7901806440323753
 20
265.0384294391935782
 10
855.4000000000000909
 20
265.0
 10
477.6000000000000227
 20
265.0
 10
477.6000000000000227
 20
265.0
 10
477.2098193559677384
 20
265.0384294391935782
 10
476.8346331352698257
 20
265.1522409349773852
 10
476.4888595339608059
 20
265.3370607753948889
 10
476.1857864376269163
 20
265.5857864376268935
 10
475.9370607753949116
 20
265.8888595339608401
 10
475.7522409349774648
 20
266.2346331352698598
 10
475.6384294391935441
 20
266.6098193559677156
 10
475.6000000000000227
 20
267.0
 10
475.6000000000000227
 20
267.0
 10
475.6000000000000227
 20
267.0
 10
475.6384294391935441
 20
267.3901806440322844
 10
475.7522409349774648
 20
267.7653668647301402
 10
475.9370607753949116
 20
268.1111404660391599
 10
476.1857864376269163
 20
268.4142135623731065
 10
476.4888595339608059
 20
268.6629392246051111
 10
476.8346331352698257
 20
268.8477590650226148
 10
477.2098193559677384
 20
268.9615705608064218
 10
477.6000000000000227
 20
269.0
 97
0
 75
0
 76
1
 47
0.0
 98
0
  0
LWPOLYLINE
  5
7B
330
1D
100
AcDbEntity
  8
0
  6
ByLayer
420
15263976
 48
1.0
 60
0
 67
0
370
-1
100
AcDbPolyline
 90
41
 70
1
 43
0.0
 38
0.0
 39
0.0
210
0.0
220
0.0
230
1.0
 10
477.6000000000000227
 20
269.0
 40
0.0
 41
0.0
 42
0.0
 10
855.4000000000000909
 20
269.0
 40
0.0
 41
0.0
 42
0.0
 10
855.4000000000000909
 20
269.0
 40
0.0
 41
0.0
 42
0.0
 10
855.7901806440323753
 20
268.9615705608064218
 40
0.0
 41
0.0
 42
0.0
 10
856.1653668647302311
 20
268.8477590650226148
 40
0.0
 41
0.0
 42
0.0
 10
856.5111404660392509
 20
268.6629392246051111
 40
0.0
 41
0.0
 42
0.0
 10
856.8142135623731974
 20
268.4142135623731065
 40
0.0
 41
0.0
 42
0.0
 10
857.0629392246052021
 20
268.1111404660391599
 40
0.0
 41
0.0
 42
0.0
 10
857.2477590650227057
 20
267.7653668647301402
 40
0.0
 41
0.0
 42
0.0
 10
857.3615705608065127
 20
267.3901806440322844
 40
0.0
 41
0.0
 42
0.0
 10
857.4000000000000909
 20
267.0
 40
0.0
 41
0.0
 42
0.0
 10
857.4000000000000909
 20
267.0
 40
0.0
 41
0.0
 42
0.0
 10
857.4000000000000909
 20
267.0
 40
0.0
 41
0.0
 42
0.0
 10
857.3615705608065127
 20
266.6098193559677156
 40
0.0
 41
0.0
 42
0.0
 10
857.2477590650227057
 20
266.2346331352698598
 40
0.0
 41
0.0
 42
0.0
 10
857.0629392246052021
 20
265.8888595339608401
 40
0.0
 41
0.0
 42
0.0
 10
856.8142135623731974
 20
265.5857864376268935
 40
0.0
 41
0.0
 42
0.0
 10
856.5111404660392509
 20
265.3370607753948889
 40
0.0
 41
0.0
 42
0.0
 10
856.1653668647302311
 20
265.1522409349773852
 40
0.0
 41
0.0
 42
0.0
 10
855.7901806440323753
 20
265.0384294391935782
 40
0.0
 41
0.0
 42
0.0
 10
855.4000000000000909
 20
265.0
 40
0.0
 41
0.0
 42
0.0
 10
477.6000000000000227
 20
265.0
 40
0.0
 41
0.0
 42
0.0
 10
477.6000000000000227
 20
265.0
 40
0.0
 41
0.0
 42
0.0
 10
477.2098193559677384
 20
265.0384294391935782
 40
0.0
 41
0.0
 42
0.0
 10
476.8346331352698257
 20
265.1522409349773852
 40
0.0
 41
0.0
 42
0.0
 10
476.4888595339608059
 20
265.3370607753948889
 40
0.0
 41
0.0
 42
0.0
 10
476.1857864376269163
 20
265.5857864376268935
 40
0.0
 41
0.0
 42
0.0
 10
475.9370607753949116
 20
265.8888595339608401
 40
0.0
 41
0.0
 42
0.0
 10
475.7522409349774648
 20
266.2346331352698598
 40
0.0
 41
0.0
 42
0.0
 10
475.6384294391935441
 20
266.6098193559677156
 40
0.0
 41
0.0
 42
0.0
 10
475.6000000000000227
 20
267.0
 40
0.0
 41
0.0
 42
0.0
 10
475.6000000000000227
 20
267.0
 40
0.0
 41
0.0
 42
0.0
 10
475.6000000000000227
 20
267.0
 40
0.0
 41
0.0
 42
0.0
 10
475.6384294391935441
 20
267.3901806440322844
 40
0.0
 41
0.0
 42
0.0
 10
475.7522409349774648
 20
267.7653668647301402
 40
0.0
 41
0.0
 42
0.0
 10
475.9370607753949116
 20
268.1111404660391599
 40
0.0
 41
0.0
 42
0.0
 10
476.1857864376269163
 20
268.4142135623731065
 40
0.0
 41
0.0
 42
0.0
 10
476.4888595339608059
 20
268.6629392246051111
 40
0.0
 41
0.0
 42
0.0
 10
476.8346331352698257
 20
268.8477590650226148
 40
0.0
 41
0.0
 42
0.0
 10
477.2098193559677384
 20
268.9615705608064218
 40
0.0
 41
0.0
 42
0.0
 10
477.6000000000000227
 20
269.0
 40
0.0
 41
0.0
 42
0.0
  0
HATCH
  5
7C
330
1D
100
AcDbEntity
  8
0
  6
ByLayer
420
1008382
 48
1.0
 60
0
 67
0
370
-1
100
AcDbHatch
 30
0.0
210
0.0
220
0.0
230
1.0
  2
SOLID
 70
1
 71
0
 91
1
 92
2
 72
0
 73
1
 93
41
 10
477.6000000000000227
 20
269.0
 10
733.2240000000000464
 20
269.0
 10
733.2240000000000464
 20
269.0
 10
733.6141806440323307
 20
268.9615705608064218
 10
733.9893668647301865
 20
268.8477590650226148
 10
734.3351404660392063
 20
268.6629392246051111
 10
734.6382135623731529
 20
268.4142135623731065
 10
734.8869392246051575
 20
268.1111404660391599
 10
735.0717590650226612
 20
267.7653668647301402
 10
735.1855705608064682
 20
267.3901806440322844
 10
735.2240000000000464
 20
267.0
 10
735.2240000000000464
 20
267.0
 10
735.2240000000000464
 20
267.0
 10
735.1855705608064682
 20
266.6098193559677156
 10
735.0717590650226612
 20
266.2346331352698598
 10
734.8869392246051575
 20
265.8888595339608401
 10
734.6382135623731529
 20
265.5857864376268935
 10
734.3351404660392063
 20
265.3370607753948889
 10
733.9893668647301865
 20
265.1522409349773852
 10
733.6141806440323307
 20
265.0384294391935782
 10
733.2240000000000464
 20
265.0
 10
477.6000000000000227
 20
265.0
 10
477.6000000000000227
 20
265.0
 10
477.2098193559677384
 20
265.0384294391935782
 10
476.8346331352698257
 20
265.1522409349773852
 10
476.4888595339608059
 20
265.3370607753948889
 10
476.1857864376269163
 20
265.5857864376268935
 10
475.9370607753949116
 20
265.8888595339608401
 10
475.7522409349774648
 20
266.2346331352698598
 10
475.6384294391935441
 20
266.6098193559677156
 10
475.6000000000000227
 20
267.0
 10
475.6000000000000227
 20
267.0
 10
475.6000000000000227
 20
267.0
 10
475.6384294391935441
 20
267.3901806440322844
 10
475.7522409349774648
 20
267.7653668647301402
 10
475.9370607753949116
 20
268.1111404660391599
 10
476.1857864376269163
 20
268.4142135623731065
 10
476.4888595339608059
 20
268.6629392246051111
 10
476.8346331352698257
 20
268.8477590650226148
 10
477.2098193559677384
 20
268.9615705608064218
 10
477.6000000000000227
 20
269.0
 97
0
 75
0
 76
1
 47
0.0
 98
0
  0
LWPOLYLINE
  5
7D
330
1D
100
AcDbEntity
  8
0
  6
ByLayer
420
1008382
 48
1.0
 60
0
 67
0
370
-1
100
AcDbPolyline
 90
41
 70
1
 43
0.0
 38
0.0
 39
0.0
210
0.0
220
0.0
230
1.0
 10
477.6000000000000227
 20
269.0
 40
0.0
 41
0.0
 42
0.0
 10
733.2240000000000464
 20
269.0
 40
0.0
 41
0.0
 42
0.0
 10
733.2240000000000464
 20
269.0
 40
0.0
 41
0.0
 42
0.0
 10
733.6141806440323307
 20
268.9615705608064218
 40
0.0
 41
0.0
 42
0.0
 10
733.9893668647301865
 20
268.8477590650226148
 40
0.0
 41
0.0
 42
0.0
 10
734.3351404660392063
 20
268.6629392246051111
 40
0.0
 41
0.0
 42
0.0
 10
734.6382135623731529
 20
268.4142135623731065
 40
0.0
 41
0.0
 42
0.0
 10
734.8869392246051575
 20
268.1111404660391599
 40
0.0
 41
0.0
 42
0.0
 10
735.0717590650226612
 20
267.7653668647301402
 40
0.0
 41
0.0
 42
0.0
 10
735.1855705608064682
 20
267.3901806440322844
 40
0.0
 41
0.0
 42
0.0
 10
735.2240000000000464
 20
267.0
 40
0.0
 41
0.0
 42
0.0
 10
735.2240000000000464
 20
267.0
 40
0.0
 41
0.0
 42
0.0
 10
735.2240000000000464
 20
267.0
 40
0.0
 41
0.0
 42
0.0
 10
735.1855705608064682
 20
266.6098193559677156
 40
0.0
 41
0.0
 42
0.0
 10
735.0717590650226612
 20
266.2346331352698598
 40
0.0
 41
0.0
 42
0.0
 10
734.8869392246051575
 20
265.8888595339608401
 40
0.0
 41
0.0
 42
0.0
 10
734.6382135623731529
 20
265.5857864376268935
 40
0.0
 41
0.0
 42
0.0
 10
734.3351404660392063
 20
265.3370607753948889
 40
0.0
 41
0.0
 42
0.0
 10
733.9893668647301865
 20
265.1522409349773852
 40
0.0
 41
0.0
 42
0.0
 10
733.6141806440323307
 20
265.0384294391935782
 40
0.0
 41
0.0
 42
0.0
 10
733.2240000000000464
 20
265.0
 40
0.0
 41
0.0
 42
0.0
 10
477.6000000000000227
 20
265.0
 40
0.0
 41
0.0
 42
0.0
 10
477.6000000000000227
 20
265.0
 40
0.0
 41
0.0
 42
0.0
 10
477.2098193559677384
 20
265.0384294391935782
 40
0.0
 41
0.0
 42
0.0
 10
476.8346331352698257
 20
265.1522409349773852
 40
0.0
 41
0.0
 42
0.0
 10
476.4888595339608059
 20
265.3370607753948889
 40
0.0
 41
0.0
 42
0.0
 10
476.1857864376269163
 20
265.5857864376268935
 40
0.0
 41
0.0
 42
0.0
 10
475.9370607753949116
 20
265.8888595339608401
 40
0.0
 41
0.0
 42
0.0
 10
475.7522409349774648
 20
266.2346331352698598
 40
0.0
 41
0.0
 42
0.0
 10
475.6384294391935441
 20
266.6098193559677156
 40
0.0
 41
0.0
 42
0.0
 10
475.6000000000000227
 20
267.0
 40
0.0
 41
0.0
 42
0.0
 10
475.6000000000000227
 20
267.0
 40
0.0
 41
0.0
 42
0.0
 10
475.6000000000000227
 20
267.0
 40
0.0
 41
0.0
 42
0.0
 10
475.6384294391935441
 20
267.3901806440322844
 40
0.0
 41
0.0
 42
0.0
 10
475.7522409349774648
 20
267.7653668647301402
 40
0.0
 41
0.0
 42
0.0
 10
475.9370607753949116
 20
268.1111404660391599
 40
0.0
 41
0.0
 42
0.0
 10
476.1857864376269163
 20
268.4142135623731065
 40
0.0
 41
0.0
 42
0.0
 10
476.4888595339608059
 20
268.6629392246051111
 40
0.0
 41
0.0
 42
0.0
 10
476.8346331352698257
 20
268.8477590650226148
 40
0.0
 41
0.0
 42
0.0
 10
477.2098193559677384
 20
268.9615705608064218
 40
0.0
 41
0.0
 42
0.0
 10
477.6000000000000227
 20
269.0
 40
0.0
 41
0.0
 42
0.0
  0
HATCH
  5
7E
330
1D
100
AcDbEntity
  8
0
  6
ByLayer
420
1008382
 48
1.0
 60
0
 67
0
370
-1
100
AcDbHatch
 30
0.0
210
0.0
220
0.0
230
1.0
  2
SOLID
 70
1
 71
0
 91
1
 92
2
 72
0
 73
1
 93
24
 10
740.8240000000000691
 20
267.0
 10
740.6331846272188386
 20
265.5506133474258377
 10
740.0737422611928196
 20
264.2000000000000455
 10
739.1837979746446763
 20
263.0402020253553701
 10
738.0240000000001146
 20
262.1502577388071131
 10
736.6733866525742087
 20
261.5908153727812078
 10
735.2240000000000464
 20
261.3999999999999773
 10
733.7746133474258841
 20
261.5908153727812078
 10
732.4239999999999782
 20
262.1502577388071131
 10
731.2642020253554165
 20
263.0402020253553701
 10
730.3742577388072732
 20
264.2000000000000455
 10
729.8148153727812542
 20
265.5506133474258377
 10
729.6240000000000236
 20
267.0
 10
729.8148153727812542
 20
268.4493866525741623
 10
730.3742577388072732
 20
269.7999999999999545
 10
731.2642020253554165
 20
270.9597979746446299
 10
732.4239999999999782
 20
271.8497422611928869
 10
733.7746133474258841
 20
272.4091846272187922
 10
735.2240000000000464
 20
272.6000000000000227
 10
736.6733866525742087
 20
272.4091846272187922
 10
738.0240000000001146
 20
271.8497422611928869
 10
739.1837979746446763
 20
270.9597979746446299
 10
740.0737422611928196
 20
269.7999999999999545
 10
740.6331846272188386
 20
268.4493866525741623
 97
0
 75
0
 76
1
 47
0.0
 98
0
  0
LWPOLYLINE
  5
7F
330
1D
100
AcDbEntity
  8
0
  6
ByLayer
420
16777215
 48
1.0
 60
0
 67
0
370
-1
100
AcDbPolyline
 90
24
 70
1
 43
0.0
 38
0.0
 39
0.0
210
0.0
220
0.0
230
1.0
 10
740.8240000000000691
 20
267.0
 40
0.0
 41
0.0
 42
0.0
 10
740.6331846272188386
 20
265.5506133474258377
 40
0.0
 41
0.0
 42
0.0
 10
740.0737422611928196
 20
264.2000000000000455
 40
0.0
 41
0.0
 42
0.0
 10
739.1837979746446763
 20
263.0402020253553701
 40
0.0
 41
0.0
 42
0.0
 10
738.0240000000001146
 20
262.1502577388071131
 40
0.0
 41
0.0
 42
0.0
 10
736.6733866525742087
 20
261.5908153727812078
 40
0.0
 41
0.0
 42
0.0
 10
735.2240000000000464
 20
261.3999999999999773
 40
0.0
 41
0.0
 42
0.0
 10
733.7746133474258841
 20
261.5908153727812078
 40
0.0
 41
0.0
 42
0.0
 10
732.4239999999999782
 20
262.1502577388071131
 40
0.0
 41
0.0
 42
0.0
 10
731.2642020253554165
 20
263.0402020253553701
 40
0.0
 41
0.0
 42
0.0
 10
730.3742577388072732
 20
264.2000000000000455
 40
0.0
 41
0.0
 42
0.0
 10
729.8148153727812542
 20
265.5506133474258377
 40
0.0
 41
0.0
 42
0.0
 10
729.6240000000000236
 20
267.0
 40
0.0
 41
0.0
 42
0.0
 10
729.8148153727812542
 20
268.4493866525741623
 40
0.0
 41
0.0
 42
0.0
 10
730.3742577388072732
 20
269.7999999999999545
 40
0.0
 41
0.0
 42
0.0
 10
731.2642020253554165
 20
270.9597979746446299
 40
0.0
 41
0.0
 42
0.0
 10
732.4239999999999782
 20
271.8497422611928869
 40
0.0
 41
0.0
 42
0.0
 10
733.7746133474258841
 20
272.4091846272187922
 40
0.0
 41
0.0
 42
0.0
 10
735.2240000000000464
 20
272.6000000000000227
 40
0.0
 41
0.0
 42
0.0
 10
736.6733866525742087
 20
272.4091846272187922
 40
0.0
 41
0.0
 42
0.0
 10
738.0240000000001146
 20
271.8497422611928869
 40
0.0
 41
0.0
 42
0.0
 10
739.1837979746446763
 20
270.9597979746446299
 40
0.0
 41
0.0
 42
0.0
 10
740.0737422611928196
 20
269.7999999999999545
 40
0.0
 41
0.0
 42
0.0
 10
740.6331846272188386
 20
268.4493866525741623
 40
0.0
 41
0.0
 42
0.0
  0
TEXT
  5
80
330
1D
100
AcDbEntity
  8
0
  6
ByLayer
420
4938352
 48
1.0
 60
0
 67
0
370
-1
100
AcDbText
 39
0.0
 10
468.0
 20
233.0
 30
0.0
 40
12.0
  1
VERTICAL RANGE
 50
0.0
 41
1.0
 51
0.0
  7
Standard
 71
0
 72
0
 11
0.0
 21
0.0
 31
0.0
210
0.0
220
0.0
230
1.0
100
AcDbText
 73
0
  0
HATCH
  5
81
330
1D
100
AcDbEntity
  8
0
  6
ByLayer
420
15263976
 48
1.0
 60
0
 67
0
370
-1
100
AcDbHatch
 30
0.0
210
0.0
220
0.0
230
1.0
  2
SOLID
 70
1
 71
0
 91
1
 92
2
 72
0
 73
1
 93
41
 10
666.5
 20
211.0
 10
666.5
 20
211.0
 10
666.5
 20
211.0
 10
667.4754516100806541
 20
210.9039264020161681
 10
668.4134171618254641
 20
210.6193976625564801
 10
669.2778511650980136
 20
210.157348061512721
 10
670.0355339059327662
 20
209.5355339059327662
 10
670.657348061512721
 20
208.7778511650980136
 10
671.1193976625564801
 20
207.9134171618254641
 10
671.4039264020161681
 20
206.9754516100806541
 10
671.5
 20
206.0
 10
671.5
 20
116.0
 10
671.5
 20
116.0
 10
671.4039264020161681
 20
115.0245483899193459
 10
671.1193976625564801
 20
114.0865828381745359
 10
670.657348061512721
 20
113.2221488349019864
 10
670.0355339059327662
 20
112.4644660940672338
 10
669.2778511650980136
 20
111.842651938487279
 10
668.4134171618254641
 20
111.3806023374435199
 10
667.4754516100806541
 20
111.0960735979838319
 10
666.5
 20
111.0
 10
666.5
 20
111.0
 10
666.5
 20
111.0
 10
665.5245483899193459
 20
111.0960735979838319
 10
664.5865828381745359
 20
111.3806023374435199
 10
663.7221488349019864
 20
111.842651938487279
 10
662.9644660940672338
 20
112.4644660940672338
 10
662.342651938487279
 20
113.2221488349019864
 10
661.8806023374435199
 20
114.0865828381745359
 10
661.5960735979838319
 20
115.0245483899193459
 10
661.5
 20
116.0
 10
661.5
 20
206.0
 10
661.5
 20
206.0
 10
661.5960735979838319
 20
206.9754516100806541
 10
661.8806023374435199
 20
207.9134171618254641
 10
662.342651938487279
 20
208.7778511650980136
 10
662.9644660940672338
 20
209.5355339059327662
 10
663.7221488349019864
 20
210.157348061512721
 10
664.5865828381745359
 20
210.6193976625564801
 10
665.5245483899193459
 20
210.9039264020161681
 10
666.5
 20
211.0
 97
0
 75
0
 76
1
 47
0.0
 98
0
  0
LWPOLYLINE
  5
82
330
1D
100
AcDbEntity
  8
0
  6
ByLayer
420
15263976
 48
1.0
 60
0
 67
0
370
-1
100
AcDbPolyline
 90
41
 70
1
 43
0.0
 38
0.0
 39
0.0
210
0.0
220
0.0
230
1.0
 10
666.5
 20
211.0
 40
0.0
 41
0.0
 42
0.0
 10
666.5
 20
211.0
 40
0.0
 41
0.0
 42
0.0
 10
666.5
 20
211.0
 40
0.0
 41
0.0
 42
0.0
 10
667.4754516100806541
 20
210.9039264020161681
 40
0.0
 41
0.0
 42
0.0
 10
668.4134171618254641
 20
210.6193976625564801
 40
0.0
 41
0.0
 42
0.0
 10
669.2778511650980136
 20
210.157348061512721
 40
0.0
 41
0.0
 42
0.0
 10
670.0355339059327662
 20
209.5355339059327662
 40
0.0
 41
0.0
 42
0.0
 10
670.657348061512721
 20
208.7778511650980136
 40
0.0
 41
0.0
 42
0.0
 10
671.1193976625564801
 20
207.9134171618254641
 40
0.0
 41
0.0
 42
0.0
 10
671.4039264020161681
 20
206.9754516100806541
 40
0.0
 41
0.0
 42
0.0
 10
671.5
 20
206.0
 40
0.0
 41
0.0
 42
0.0
 10
671.5
 20
116.0
 40
0.0
 41
0.0
 42
0.0
 10
671.5
 20
116.0
 40
0.0
 41
0.0
 42
0.0
 10
671.4039264020161681
 20
115.0245483899193459
 40
0.0
 41
0.0
 42
0.0
 10
671.1193976625564801
 20
114.0865828381745359
 40
0.0
 41
0.0
 42
0.0
 10
670.657348061512721
 20
113.2221488349019864
 40
0.0
 41
0.0
 42
0.0
 10
670.0355339059327662
 20
112.4644660940672338
 40
0.0
 41
0.0
 42
0.0
 10
669.2778511650980136
 20
111.842651938487279
 40
0.0
 41
0.0
 42
0.0
 10
668.4134171618254641
 20
111.3806023374435199
 40
0.0
 41
0.0
 42
0.0
 10
667.4754516100806541
 20
111.0960735979838319
 40
0.0
 41
0.0
 42
0.0
 10
666.5
 20
111.0
 40
0.0
 41
0.0
 42
0.0
 10
666.5
 20
111.0
 40
0.0
 41
0.0
 42
0.0
 10
666.5
 20
111.0
 40
0.0
 41
0.0
 42
0.0
 10
665.5245483899193459
 20
111.0960735979838319
 40
0.0
 41
0.0
 42
0.0
 10
664.5865828381745359
 20
111.3806023374435199
 40
0.0
 41
0.0
 42
0.0
 10
663.7221488349019864
 20
111.842651938487279
 40
0.0
 41
0.0
 42
0.0
 10
662.9644660940672338
 20
112.4644660940672338
 40
0.0
 41
0.0
 42
0.0
 10
662.342651938487279
 20
113.2221488349019864
 40
0.0
 41
0.0
 42
0.0
 10
661.8806023374435199
 20
114.0865828381745359
 40
0.0
 41
0.0
 42
0.0
 10
661.5960735979838319
 20
115.0245483899193459
 40
0.0
 41
0.0
 42
0.0
 10
661.5
 20
116.0
 40
0.0
 41
0.0
 42
0.0
 10
661.5
 20
206.0
 40
0.0
 41
0.0
 42
0.0
 10
661.5
 20
206.0
 40
0.0
 41
0.0
 42
0.0
 10
661.5960735979838319
 20
206.9754516100806541
 40
0.0
 41
0.0
 42
0.0
 10
661.8806023374435199
 20
207.9134171618254641
 40
0.0
 41
0.0
 42
0.0
 10
662.342651938487279
 20
208.7778511650980136
 40
0.0
 41
0.0
 42
0.0
 10
662.9644660940672338
 20
209.5355339059327662
 40
0.0
 41
0.0
 42
0.0
 10
663.7221488349019864
 20
210.157348061512721
 40
0.0
 41
0.0
 42
0.0
 10
664.5865828381745359
 20
210.6193976625564801
 40
0.0
 41
0.0
 42
0.0
 10
665.5245483899193459
 20
210.9039264020161681
 40
0.0
 41
0.0
 42
0.0
 10
666.5
 20
211.0
 40
0.0
 41
0.0
 42
0.0
  0
HATCH
  5
83
330
1D
100
AcDbEntity
  8
0
  6
ByLayer
420
1008382
 48
1.0
 60
0
 67
0
370
-1
100
AcDbHatch
 30
0.0
210
0.0
220
0.0
230
1.0
  2
SOLID
 70
1
 71
0
 91
1
 92
2
 72
0
 73
1
 93
41
 10
666.5
 20
211.0
 10
666.5
 20
211.0
 10
666.5
 20
211.0
 10
667.4754516100806541
 20
210.9039264020161681
 10
668.4134171618254641
 20
210.6193976625564801
 10
669.2778511650980136
 20
210.157348061512721
 10
670.0355339059327662
 20
209.5355339059327662
 10
670.657348061512721
 20
208.7778511650980136
 10
671.1193976625564801
 20
207.9134171618254641
 10
671.4039264020161681
 20
206.9754516100806541
 10
671.5
 20
206.0
 10
671.5
 20
146.0
 10
671.5
 20
146.0
 10
671.4039264020161681
 20
145.0245483899193459
 10
671.1193976625564801
 20
144.0865828381745359
 10
670.657348061512721
 20
143.2221488349019864
 10
670.0355339059327662
 20
142.4644660940672338
 10
669.2778511650980136
 20
141.842651938487279
 10
668.4134171618254641
 20
141.3806023374435199
 10
667.4754516100806541
 20
141.0960735979838319
 10
666.5
 20
141.0
 10
666.5
 20
141.0
 10
666.5
 20
141.0
 10
665.5245483899193459
 20
141.0960735979838319
 10
664.5865828381745359
 20
141.3806023374435199
 10
663.7221488349019864
 20
141.842651938487279
 10
662.9644660940672338
 20
142.4644660940672338
 10
662.342651938487279
 20
143.2221488349019864
 10
661.8806023374435199
 20
144.0865828381745359
 10
661.5960735979838319
 20
145.0245483899193459
 10
661.5
 20
146.0
 10
661.5
 20
206.0
 10
661.5
 20
206.0
 10
661.5960735979838319
 20
206.9754516100806541
 10
661.8806023374435199
 20
207.9134171618254641
 10
662.342651938487279
 20
208.7778511650980136
 10
662.9644660940672338
 20
209.5355339059327662
 10
663.7221488349019864
 20
210.157348061512721
 10
664.5865828381745359
 20
210.6193976625564801
 10
665.5245483899193459
 20
210.9039264020161681
 10
666.5
 20
211.0
 97
0
 75
0
 76
1
 47
0.0
 98
0
  0
LWPOLYLINE
  5
84
330
1D
100
AcDbEntity
  8
0
  6
ByLayer
420
1008382
 48
1.0
 60
0
 67
0
370
-1
100
AcDbPolyline
 90
41
 70
1
 43
0.0
 38
0.0
 39
0.0
210
0.0
220
0.0
230
1.0
 10
666.5
 20
211.0
 40
0.0
 41
0.0
 42
0.0
 10
666.5
 20
211.0
 40
0.0
 41
0.0
 42
0.0
 10
666.5
 20
211.0
 40
0.0
 41
0.0
 42
0.0
 10
667.4754516100806541
 20
210.9039264020161681
 40
0.0
 41
0.0
 42
0.0
 10
668.4134171618254641
 20
210.6193976625564801
 40
0.0
 41
0.0
 42
0.0
 10
669.2778511650980136
 20
210.157348061512721
 40
0.0
 41
0.0
 42
0.0
 10
670.0355339059327662
 20
209.5355339059327662
 40
0.0
 41
0.0
 42
0.0
 10
670.657348061512721
 20
208.7778511650980136
 40
0.0
 41
0.0
 42
0.0
 10
671.1193976625564801
 20
207.9134171618254641
 40
0.0
 41
0.0
 42
0.0
 10
671.4039264020161681
 20
206.9754516100806541
 40
0.0
 41
0.0
 42
0.0
 10
671.5
 20
206.0
 40
0.0
 41
0.0
 42
0.0
 10
671.5
 20
146.0
 40
0.0
 41
0.0
 42
0.0
 10
671.5
 20
146.0
 40
0.0
 41
0.0
 42
0.0
 10
671.4039264020161681
 20
145.0245483899193459
 40
0.0
 41
0.0
 42
0.0
 10
671.1193976625564801
 20
144.0865828381745359
 40
0.0
 41
0.0
 42
0.0
 10
670.657348061512721
 20
143.2221488349019864
 40
0.0
 41
0.0
 42
0.0
 10
670.0355339059327662
 20
142.4644660940672338
 40
0.0
 41
0.0
 42
0.0
 10
669.2778511650980136
 20
141.842651938487279
 40
0.0
 41
0.0
 42
0.0
 10
668.4134171618254641
 20
141.3806023374435199
 40
0.0
 41
0.0
 42
0.0
 10
667.4754516100806541
 20
141.0960735979838319
 40
0.0
 41
0.0
 42
0.0
 10
666.5
 20
141.0
 40
0.0
 41
0.0
 42
0.0
 10
666.5
 20
141.0
 40
0.0
 41
0.0
 42
0.0
 10
666.5
 20
141.0
 40
0.0
 41
0.0
 42
0.0
 10
665.5245483899193459
 20
141.0960735979838319
 40
0.0
 41
0.0
 42
0.0
 10
664.5865828381745359
 20
141.3806023374435199
 40
0.0
 41
0.0
 42
0.0
 10
663.7221488349019864
 20
141.842651938487279
 40
0.0
 41
0.0
 42
0.0
 10
662.9644660940672338
 20
142.4644660940672338
 40
0.0
 41
0.0
 42
0.0
 10
662.342651938487279
 20
143.2221488349019864
 40
0.0
 41
0.0
 42
0.0
 10
661.8806023374435199
 20
144.0865828381745359
 40
0.0
 41
0.0
 42
0.0
 10
661.5960735979838319
 20
145.0245483899193459
 40
0.0
 41
0.0
 42
0.0
 10
661.5
 20
146.0
 40
0.0
 41
0.0
 42
0.0
 10
661.5
 20
206.0
 40
0.0
 41
0.0
 42
0.0
 10
661.5
 20
206.0
 40
0.0
 41
0.0
 42
0.0
 10
661.5960735979838319
 20
206.9754516100806541
 40
0.0
 41
0.0
 42
0.0
 10
661.8806023374435199
 20
207.9134171618254641
 40
0.0
 41
0.0
 42
0.0
 10
662.342651938487279
 20
208.7778511650980136
 40
0.0
 41
0.0
 42
0.0
 10
662.9644660940672338
 20
209.5355339059327662
 40
0.0
 41
0.0
 42
0.0
 10
663.7221488349019864
 20
210.157348061512721
 40
0.0
 41
0.0
 42
0.0
 10
664.5865828381745359
 20
210.6193976625564801
 40
0.0
 41
0.0
 42
0.0
 10
665.5245483899193459
 20
210.9039264020161681
 40
0.0
 41
0.0
 42
0.0
 10
666.5
 20
211.0
 40
0.0
 41
0.0
 42
0.0
  0
HATCH
  5
85
330
1D
100
AcDbEntity
  8
0
  6
ByLayer
420
1008382
 48
1.0
 60
0
 67
0
370
-1
100
AcDbHatch
 30
0.0
210
0.0
220
0.0
230
1.0
  2
SOLID
 70
1
 71
0
 91
1
 92
2
 72
0
 73
1
 93
24
 10
676.5
 20
141.0
 10
676.1592582628907167
 20
138.4118095489748157
 10
675.1602540378444246
 20
136.0
 10
673.5710678118655323
 20
133.9289321881344677
 10
671.5
 20
132.3397459621555754
 10
669.0881904510251843
 20
131.3407417371092833
 10
666.5
 20
131.0
 10
663.9118095489748157
 20
131.3407417371092833
 10
661.5
 20
132.3397459621555754
 10
659.4289321881344677
 20
133.9289321881344677
 10
657.8397459621555754
 20
136.0
 10
656.8407417371092833
 20
138.4118095489748157
 10
656.5
 20
141.0
 10
656.8407417371092833
 20
143.5881904510251843
 10
657.8397459621555754
 20
146.0
 10
659.4289321881344677
 20
148.0710678118655323
 10
661.5
 20
149.6602540378444246
 10
663.9118095489748157
 20
150.6592582628907167
 10
666.5
 20
151.0
 10
669.0881904510251843
 20
150.6592582628907167
 10
671.5
 20
149.6602540378444246
 10
673.5710678118655323
 20
148.0710678118655323
 10
675.1602540378444246
 20
146.0
 10
676.1592582628907167
 20
143.5881904510251843
 97
0
 75
0
 76
1
 47
0.0
 98
0
  0
LWPOLYLINE
  5
86
330
1D
100
AcDbEntity
  8
0
  6
ByLayer
420
16777215
 48
1.0
 60
0
 67
0
370
-1
100
AcDbPolyline
 90
24
 70
1
 43
0.0
 38
0.0
 39
0.0
210
0.0
220
0.0
230
1.0
 10
676.5
 20
141.0
 40
0.0
 41
0.0
 42
0.0
 10
676.1592582628907167
 20
138.4118095489748157
 40
0.0
 41
0.0
 42
0.0
 10
675.1602540378444246
 20
136.0
 40
0.0
 41
0.0
 42
0.0
 10
673.5710678118655323
 20
133.9289321881344677
 40
0.0
 41
0.0
 42
0.0
 10
671.5
 20
132.3397459621555754
 40
0.0
 41
0.0
 42
0.0
 10
669.0881904510251843
 20
131.3407417371092833
 40
0.0
 41
0.0
 42
0.0
 10
666.5
 20
131.0
 40
0.0
 41
0.0
 42
0.0
 10
663.9118095489748157
 20
131.3407417371092833
 40
0.0
 41
0.0
 42
0.0
 10
661.5
 20
132.3397459621555754
 40
0.0
 41
0.0
 42
0.0
 10
659.4289321881344677
 20
133.9289321881344677
 40
0.0
 41
0.0
 42
0.0
 10
657.8397459621555754
 20
136.0
 40
0.0
 41
0.0
 42
0.0
 10
656.8407417371092833
 20
138.4118095489748157
 40
0.0
 41
0.0
 42
0.0
 10
656.5
 20
141.0
 40
0.0
 41
0.0
 42
0.0
 10
656.8407417371092833
 20
143.5881904510251843
 40
0.0
 41
0.0
 42
0.0
 10
657.8397459621555754
 20
146.0
 40
0.0
 41
0.0
 42
0.0
 10
659.4289321881344677
 20
148.0710678118655323
 40
0.0
 41
0.0
 42
0.0
 10
661.5
 20
149.6602540378444246
 40
0.0
 41
0.0
 42
0.0
 10
663.9118095489748157
 20
150.6592582628907167
 40
0.0
 41
0.0
 42
0.0
 10
666.5
 20
151.0
 40
0.0
 41
0.0
 42
0.0
 10
669.0881904510251843
 20
150.6592582628907167
 40
0.0
 41
0.0
 42
0.0
 10
671.5
 20
149.6602540378444246
 40
0.0
 41
0.0
 42
0.0
 10
673.5710678118655323
 20
148.0710678118655323
 40
0.0
 41
0.0
 42
0.0
 10
675.1602540378444246
 20
146.0
 40
0.0
 41
0.0
 42
0.0
 10
676.1592582628907167
 20
143.5881904510251843
 40
0.0
 41
0.0
 42
0.0
  0
TEXT
  5
87
330
1D
100
AcDbEntity
  8
0
  6
ByLayer
420
4938352
 48
1.0
 60
0
 67
0
370
-1
100
AcDbText
 39
0.0
 10
468.0
 20
75.0
 30
0.0
 40
12.0
  1
FILE
 50
0.0
 41
1.0
 51
0.0
  7
Standard
 71
0
 72
0
 11
0.0
 21
0.0
 31
0.0
210
0.0
220
0.0
230
1.0
100
AcDbText
 73
0
  0
HATCH
  5
88
330
1D
100
AcDbEntity
  8
0
  6
ByLayer
420
16777215
 48
1.0
 60
0
 67
0
370
-1
100
AcDbHatch
 30
0.0
210
0.0
220
0.0
230
1.0
  2
SOLID
 70
1
 71
0
 91
1
 92
2
 72
0
 73
1
 93
41
 10
476.0
 20
65.0
 10
853.0
 20
65.0
 10
853.0
 20
65.0
 10
854.5607225761290238
 20
64.8462822432258008
 10
856.0614674589206743
 20
64.3910362600903454
 10
857.4445618641568672
 20
63.6517568984203308
 10
858.6568542494924259
 20
62.6568542494924259
 10
859.6517568984203308
 20
61.4445618641568672
 10
860.3910362600903454
 20
60.0614674589206743
 10
860.8462822432258008
 20
58.5607225761290238
 10
861.0
 20
57.0
 10
861.0
 20
27.0
 10
861.0
 20
27.0
 10
860.8462822432258008
 20
25.4392774238709762
 10
860.3910362600903454
 20
23.9385325410793257
 10
859.6517568984203308
 20
22.5554381358431328
 10
858.6568542494924259
 20
21.3431457505075741
 10
857.4445618641568672
 20
20.3482431015796692
 10
856.0614674589206743
 20
19.6089637399096546
 10
854.5607225761290238
 20
19.1537177567741992
 10
853.0
 20
19.0
 10
476.0
 20
19.0
 10
476.0
 20
19.0
 10
474.4392774238709762
 20
19.1537177567741992
 10
472.9385325410792689
 20
19.6089637399096546
 10
471.5554381358431897
 20
20.3482431015796692
 10
470.343145750507631
 20
21.3431457505075741
 10
469.3482431015796124
 20
22.5554381358431328
 10
468.6089637399097114
 20
23.9385325410793257
 10
468.1537177567741423
 20
25.4392774238709762
 10
468.0
 20
27.0
 10
468.0
 20
57.0
 10
468.0
 20
57.0
 10
468.1537177567741423
 20
58.5607225761290238
 10
468.6089637399097114
 20
60.0614674589206743
 10
469.3482431015796124
 20
61.4445618641568672
 10
470.343145750507631
 20
62.6568542494924259
 10
471.5554381358431897
 20
63.6517568984203308
 10
472.9385325410792689
 20
64.3910362600903454
 10
474.4392774238709762
 20
64.8462822432258008
 10
476.0
 20
65.0
 97
0
 75
0
 76
1
 47
0.0
 98
0
  0
LWPOLYLINE
  5
89
330
1D
100
AcDbEntity
  8
0
  6
ByLayer
420
9741240
 48
1.0
 60
0
 67
0
370
-1
100
AcDbPolyline
 90
41
 70
1
 43
0.0
 38
0.0
 39
0.0
210
0.0
220
0.0
230
1.0
 10
476.0
 20
65.0
 40
0.0
 41
0.0
 42
0.0
 10
853.0
 20
65.0
 40
0.0
 41
0.0
 42
0.0
 10
853.0
 20
65.0
 40
0.0
 41
0.0
 42
0.0
 10
854.5607225761290238
 20
64.8462822432258008
 40
0.0
 41
0.0
 42
0.0
 10
856.0614674589206743
 20
64.3910362600903454
 40
0.0
 41
0.0
 42
0.0
 10
857.4445618641568672
 20
63.6517568984203308
 40
0.0
 41
0.0
 42
0.0
 10
858.6568542494924259
 20
62.6568542494924259
 40
0.0
 41
0.0
 42
0.0
 10
859.6517568984203308
 20
61.4445618641568672
 40
0.0
 41
0.0
 42
0.0
 10
860.3910362600903454
 20
60.0614674589206743
 40
0.0
 41
0.0
 42
0.0
 10
860.8462822432258008
 20
58.5607225761290238
 40
0.0
 41
0.0
 42
0.0
 10
861.0
 20
57.0
 40
0.0
 41
0.0
 42
0.0
 10
861.0
 20
27.0
 40
0.0
 41
0.0
 42
0.0
 10
861.0
 20
27.0
 40
0.0
 41
0.0
 42
0.0
 10
860.8462822432258008
 20
25.4392774238709762
 40
0.0
 41
0.0
 42
0.0
 10
860.3910362600903454
 20
23.9385325410793257
 40
0.0
 41
0.0
 42
0.0
 10
859.6517568984203308
 20
22.5554381358431328
 40
0.0
 41
0.0
 42
0.0
 10
858.6568542494924259
 20
21.3431457505075741
 40
0.0
 41
0.0
 42
0.0
 10
857.4445618641568672
 20
20.3482431015796692
 40
0.0
 41
0.0
 42
0.0
 10
856.0614674589206743
 20
19.6089637399096546
 40
0.0
 41
0.0
 42
0.0
 10
854.5607225761290238
 20
19.1537177567741992
 40
0.0
 41
0.0
 42
0.0
 10
853.0
 20
19.0
 40
0.0
 41
0.0
 42
0.0
 10
476.0
 20
19.0
 40
0.0
 41
0.0
 42
0.0
 10
476.0
 20
19.0
 40
0.0
 41
0.0
 42
0.0
 10
474.4392774238709762
 20
19.1537177567741992
 40
0.0
 41
0.0
 42
0.0
 10
472.9385325410792689
 20
19.6089637399096546
 40
0.0
 41
0.0
 42
0.0
 10
471.5554381358431897
 20
20.3482431015796692
 40
0.0
 41
0.0
 42
0.0
 10
470.343145750507631
 20
21.3431457505075741
 40
0.0
 41
0.0
 42
0.0
 10
469.3482431015796124
 20
22.5554381358431328
 40
0.0
 41
0.0
 42
0.0
 10
468.6089637399097114
 20
23.9385325410793257
 40
0.0
 41
0.0
 42
0.0
 10
468.1537177567741423
 20
25.4392774238709762
 40
0.0
 41
0.0
 42
0.0
 10
468.0
 20
27.0
 40
0.0
 41
0.0
 42
0.0
 10
468.0
 20
57.0
 40
0.0
 41
0.0
 42
0.0
 10
468.0
 20
57.0
 40
0.0
 41
0.0
 42
0.0
 10
468.1537177567741423
 20
58.5607225761290238
 40
0.0
 41
0.0
 42
0.0
 10
468.6089637399097114
 20
60.0614674589206743
 40
0.0
 41
0.0
 42
0.0
 10
469.3482431015796124
 20
61.4445618641568672
 40
0.0
 41
0.0
 42
0.0
 10
470.343145750507631
 20
62.6568542494924259
 40
0.0
 41
0.0
 42
0.0
 10
471.5554381358431897
 20
63.6517568984203308
 40
0.0
 41
0.0
 42
0.0
 10
472.9385325410792689
 20
64.3910362600903454
 40
0.0
 41
0.0
 42
0.0
 10
474.4392774238709762
 20
64.8462822432258008
 40
0.0
 41
0.0
 42
0.0
 10
476.0
 20
65.0
 40
0.0
 41
0.0
 42
0.0
  0
HATCH
  5
8A
330
1D
100
AcDbEntity
  8
0
  6
ByLayer
420
15724527
 48
1.0
 60
0
 67
0
370
-1
100
AcDbHatch
 30
0.0
210
0.0
220
0.0
230
1.0
  2
SOLID
 70
1
 71
0
 91
1
 92
2
 72
0
 73
1
 93
4
 10
469.0
 20
64.0
 10
601.9400000000000546
 20
64.0
 10
601.9400000000000546
 20
20.0
 10
469.0
 20
20.0
 97
0
 75
0
 76
1
 47
0.0
 98
0
  0
LWPOLYLINE
  5
8B
330
1D
100
AcDbEntity
  8
0
  6
ByLayer
420
9741240
 48
1.0
 60
0
 67
0
370
-1
100
AcDbPolyline
 90
4
 70
1
 43
0.0
 38
0.0
 39
0.0
210
0.0
220
0.0
230
1.0
 10
469.0
 20
64.0
 40
0.0
 41
0.0
 42
0.0
 10
601.9400000000000546
 20
64.0
 40
0.0
 41
0.0
 42
0.0
 10
601.9400000000000546
 20
20.0
 40
0.0
 41
0.0
 42
0.0
 10
469.0
 20
20.0
 40
0.0
 41
0.0
 42
0.0
  0
TEXT
  5
8C
330
1D
100
AcDbEntity
  8
0
  6
ByLayer
420
1120295
 48
1.0
 60
0
 67
0
370
-1
100
AcDbText
 39
0.0
 10
492.7825000000000273
 20
38.0
 30
0.0
 40
16.0
  1
Choose File
 50
0.0
 41
1.0
 51
0.0
  7
Standard
 71
0
 72
0
 11
0.0
 21
0.0
 31
0.0
210
0.0
220
0.0
230
1.0
100
AcDbText
 73
0
  0
TEXT
  5
8D
330
1D
100
AcDbEntity
  8
0
  6
ByLayer
420
6449528
 48
1.0
 60
0
 67
0
370
-1
100
AcDbText
 39
0.0
 10
613.9400000000000546
 20
38.0
 30
0.0
 40
16.0
  1
No file selected
 50
0.0
 41
1.0
 51
0.0
  7
Standard
 71
0
 72
0
 11
0.0
 21
0.0
 31
0.0
210
0.0
220
0.0
230
1.0
100
AcDbText
 73
0
  0
ENDSEC
  0
SECTION
  2
OBJECTS
  0
DICTIONARY
  5
1
330
0
100
AcDbDictionary
280
0
281
0
  3
ACAD_COLOR
350
2
  3
ACAD_GROUP
350
3
  3
ACAD_LAYOUT
350
4
  3
ACAD_MATERIAL
350
5
  3
ACAD_SORTENTS
350
6
  3
ACAD_MLEADERSTYLE
350
7
  3
ACAD_MLINESTYLE
350
8
  3
ACAD_TABLESTYLE
350
9
  3
ACAD_PLOTSETTINGS
350
A
  3
AcDbVariableDictionary
350
B
  3
ACAD_SCALELIST
350
C
  3
ACAD_VISUALSTYLE
350
D
  3
ACAD_FIELDLIST
350
E
  3
ACAD_IMAGE_DICT
350
F
  0
DICTIONARY
  5
2
330
1
100
AcDbDictionary
280
0
281
0
  0
DICTIONARY
  5
3
330
1
100
AcDbDictionary
280
0
281
0
  0
DICTIONARY
  5
4
330
1
100
AcDbDictionary
280
0
281
0
  0
DICTIONARY
  5
5
330
1
100
AcDbDictionary
280
0
281
0
  0
DICTIONARY
  5
6
330
1
100
AcDbDictionary
280
0
281
0
  0
DICTIONARY
  5
7
330
1
100
AcDbDictionary
280
0
281
0
  0
DICTIONARY
  5
8
330
1
100
AcDbDictionary
280
0
281
0
  0
DICTIONARY
  5
9
330
1
100
AcDbDictionary
280
0
281
0
  0
DICTIONARY
  5
A
330
1
100
AcDbDictionary
280
0
281
0
  0
DICTIONARY
  5
B
330
1
100
AcDbDictionary
280
0
281
0
  0
DICTIONARY
  5
C
330
1
100
AcDbDictionary
280
0
281
0
  0
DICTIONARY
  5
D
330
1
100
AcDbDictionary
280
0
281
0
  0
DICTIONARY
  5
E
330
1
100
AcDbDictionary
280
0
281
0
  0
DICTIONARY
  5
F
330
1
100
AcDbDictionary
280
0
281
0
  0
ENDSEC
  0
EOF
