0
SECTION
2
HEADER
9
$ACADVER
1
AC1021
9
$LASTSAVEDBY
1
@tarikjabiri/dxf
9
$HANDSEED
5
53
9
$INSUNITS
70
0
9
$CLAYER
8
0
9
$VIEWCTR
10
390
20
329.5
0
ENDSEC
0
SECTION
2
CLASSES
0
ENDSEC
0
SECTION
2
TABLES
0
TABLE
2
VPORT
5
1
330
0
100
AcDbSymbolTable
70
1
0
VPORT
5
19
330
1
100
AcDbSymbolTableRecord
100
AcDbViewportTableRecord
2
*Active
70
0
10
0
20
0
11
1
21
1
12
390
22
329.5
13
0
23
0
14
10
24
10
15
10
25
10
16
0
26
0
36
1
17
0
27
0
37
0
40
859
41
2
42
50
43
0
44
0
50
0
51
0
71
0
72
100
73
1
74
3
75
0
76
1
77
0
78
0
281
0
65
1
110
0
120
0
130
0
111
1
121
0
131
0
112
0
122
1
132
0
79
0
146
0
348
10020
60
7
61
5
292
1
282
1
141
0
142
0
63
250
421
3358443
0
ENDTAB
0
TABLE
2
LTYPE
5
2
330
0
100
AcDbSymbolTable
70
3
0
LTYPE
5
12
330
2
100
AcDbSymbolTableRecord
100
AcDbLinetypeTableRecord
2
ByBlock
70
0
3

72
65
73
0
40
0
0
LTYPE
5
13
330
2
100
AcDbSymbolTableRecord
100
AcDbLinetypeTableRecord
2
ByLayer
70
0
3

72
65
73
0
40
0
0
LTYPE
5
14
330
2
100
AcDbSymbolTableRecord
100
AcDbLinetypeTableRecord
2
Continuous
70
0
3
Solid line
72
65
73
0
40
0
0
ENDTAB
0
TABLE
2
LAYER
5
3
330
0
100
AcDbSymbolTable
70
1
0
LAYER
5
15
330
3
100
AcDbSymbolTableRecord
100
AcDbLayerTableRecord
2
0
70
0
62
7
6
Continuous
370
0
390
0
0
ENDTAB
0
TABLE
2
STYLE
5
4
330
0
100
AcDbSymbolTable
70
2
0
STYLE
5
16
330
4
100
AcDbSymbolTableRecord
100
AcDbTextStyleTableRecord
2
Standard
70
0
40
0
41
1
50
0
71
0
42
1
3
txt
4

0
STYLE
5
1B
330
4
100
AcDbSymbolTableRecord
100
AcDbTextStyleTableRecord
2
Arial
70
0
40
0
41
1
50
0
71
0
42
1
3
Arial.ttf
4

0
ENDTAB
0
TABLE
2
VIEW
5
5
330
0
100
AcDbSymbolTable
70
0
0
ENDTAB
0
TABLE
2
UCS
5
6
330
0
100
AcDbSymbolTable
70
0
0
ENDTAB
0
TABLE
2
APPID
5
7
330
0
100
AcDbSymbolTable
70
1
0
APPID
5
17
330
7
100
AcDbSymbolTableRecord
100
AcDbRegAppTableRecord
2
ACAD
70
0
0
ENDTAB
0
TABLE
2
DIMSTYLE
5
8
330
0
100
AcDbSymbolTable
70
1
100
AcDbDimStyleTable
0
DIMSTYLE
105
18
330
8
100
AcDbSymbolTableRecord
100
AcDbDimStyleTableRecord
2
Standard
70
0
340
16
0
ENDTAB
0
TABLE
2
BLOCK_RECORD
5
9
330
0
100
AcDbSymbolTable
70
2
0
BLOCK_RECORD
5
C
330
9
100
AcDbSymbolTableRecord
100
AcDbBlockTableRecord
2
*Model_Space
70
0
280
1
281
0
0
BLOCK_RECORD
5
F
330
9
100
AcDbSymbolTableRecord
100
AcDbBlockTableRecord
2
*Paper_Space
70
0
280
1
281
0
0
ENDTAB
0
ENDSEC
0
SECTION
2
BLOCKS
0
BLOCK
5
D
330
C
100
AcDbEntity
8
0
100
AcDbBlockBegin
2
*Model_Space
70
0
10
0
20
0
30
0
3
*Model_Space
1

0
ENDBLK
5
E
100
AcDbEntity
8
0
100
AcDbBlockEnd
0
BLOCK
5
10
330
F
100
AcDbEntity
8
0
100
AcDbBlockBegin
2
*Paper_Space
70
0
10
0
20
0
30
0
3
*Paper_Space
1

0
ENDBLK
5
11
100
AcDbEntity
8
0
100
AcDbBlockEnd
0
ENDSEC
0
SECTION
2
ENTITIES
0
TEXT
5
1A
330
C
100
AcDbEntity
420
1910582
8
0
100
AcDbText
10
0
20
659
30
0
40
28
1
Native Form Controls
7
Arial
100
AcDbText
0
LWPOLYLINE
5
1C
330
C
100
AcDbEntity
420
14147306
8
0
100
AcDbPolyline
90
42
70
0
43
0
38
0
39
0
10
14
20
630
10
417
20
630
10
417
20
630
10
419.7312645082258
20
629.7309939256452
10
422.35756805311127
20
628.934313455158
10
424.77798326227446
20
627.6405745722357
10
426.8994949366117
20
625.8994949366116
10
428.6405745722356
20
623.7779832622745
10
429.934313455158
20
621.3575680531112
10
430.73099392564524
20
618.7312645082258
10
431
20
616
10
431
20
313
10
431
20
313
10
430.73099392564524
20
310.2687354917742
10
429.934313455158
20
307.64243194688873
10
428.6405745722356
20
305.2220167377256
10
426.8994949366117
20
303.1005050633883
10
424.77798326227446
20
301.3594254277644
10
422.35756805311127
20
300.065686544842
10
419.7312645082258
20
299.26900607435476
10
417
20
299
10
14
20
299
10
14
20
299
10
11.268735491774205
20
299.26900607435476
10
8.642431946888744
20
300.065686544842
10
6.222016737725573
20
301.35942542776434
10
4.100505063388336
20
303.1005050633883
10
2.3594254277643643
20
305.2220167377256
10
1.065686544841986
20
307.64243194688873
10
0.26900607435477397
20
310.2687354917742
10
0
20
313
10
0
20
616
10
0
20
616
10
0.26900607435477397
20
618.7312645082258
10
1.0656865448419843
20
621.3575680531112
10
2.3594254277643643
20
623.7779832622745
10
4.100505063388333
20
625.8994949366116
10
6.2220167377255695
20
627.6405745722357
10
8.642431946888735
20
628.934313455158
10
11.268735491774198
20
629.7309939256452
10
13.999999999999998
20
630
10
14
20
630
0
TEXT
5
1D
330
C
100
AcDbEntity
420
1910582
8
0
100
AcDbText
10
19
20
598
30
0
40
16
1
Value Fields
7
Arial
100
AcDbText
0
TEXT
5
1E
330
C
100
AcDbEntity
420
4938352
8
0
100
AcDbText
10
19
20
568.5
30
0
40
12
1
TEXT INPUT
7
Arial
100
AcDbText
0
LWPOLYLINE
5
1F
330
C
100
AcDbEntity
420
9741240
8
0
100
AcDbPolyline
90
42
70
0
43
0
38
0
39
0
10
27
20
558
10
404
20
558
10
404
20
558
10
405.560722576129
20
557.8462822432258
10
407.06146745892073
20
557.3910362600902
10
408.4445618641568
20
556.6517568984203
10
409.65685424949237
20
555.6568542494924
10
410.6517568984204
20
554.4445618641569
10
411.3910362600903
20
553.0614674589208
10
411.84628224322586
20
551.560722576129
10
412
20
550
10
412
20
526
10
412
20
526
10
411.84628224322586
20
524.439277423871
10
411.3910362600903
20
522.9385325410792
10
410.6517568984204
20
521.5554381358431
10
409.65685424949237
20
520.3431457505076
10
408.4445618641568
20
519.3482431015797
10
407.06146745892073
20
518.6089637399098
10
405.560722576129
20
518.1537177567741
10
404
20
518
10
27
20
518
10
27
20
518
10
25.439277423870976
20
518.1537177567741
10
23.938532541079283
20
518.6089637399098
10
22.555438135843183
20
519.3482431015797
10
21.34314575050762
20
520.3431457505076
10
20.348243101579637
20
521.5554381358431
10
19.608963739909704
20
522.9385325410792
10
19.153717756774157
20
524.439277423871
10
19
20
526
10
19
20
550
10
19
20
550
10
19.153717756774157
20
551.560722576129
10
19.608963739909704
20
553.0614674589208
10
20.348243101579637
20
554.4445618641569
10
21.343145750507617
20
555.6568542494924
10
22.555438135843183
20
556.6517568984203
10
23.938532541079276
20
557.3910362600902
10
25.43927742387097
20
557.8462822432258
10
27
20
558
10
27
20
558
0
TEXT
5
20
330
C
100
AcDbEntity
420
1120295
8
0
100
AcDbText
10
31
20
534
30
0
40
16
1
Alice Johnson
7
Arial
100
AcDbText
0
TEXT
5
21
330
C
100
AcDbEntity
420
4938352
8
0
100
AcDbText
10
19
20
493.5
30
0
40
12
1
TEXTAREA
7
Arial
100
AcDbText
0
LWPOLYLINE
5
22
330
C
100
AcDbEntity
420
9741240
8
0
100
AcDbPolyline
90
42
70
0
43
0
38
0
39
0
10
27
20
482
10
404
20
482
10
404
20
482
10
405.560722576129
20
481.84628224322586
10
407.06146745892073
20
481.3910362600903
10
408.4445618641568
20
480.65175689842033
10
409.65685424949237
20
479.65685424949237
10
410.6517568984204
20
478.4445618641568
10
411.3910362600903
20
477.06146745892073
10
411.84628224322586
20
475.560722576129
10
412
20
474
10
412
20
402
10
412
20
402
10
411.84628224322586
20
400.439277423871
10
411.3910362600903
20
398.93853254107927
10
410.6517568984204
20
397.5554381358432
10
409.65685424949237
20
396.34314575050763
10
408.4445618641568
20
395.3482431015796
10
407.06146745892073
20
394.6089637399097
10
405.560722576129
20
394.15371775677414
10
404
20
394
10
27
20
394
10
27
20
394
10
25.439277423870976
20
394.15371775677414
10
23.938532541079283
20
394.6089637399097
10
22.555438135843183
20
395.3482431015796
10
21.34314575050762
20
396.34314575050763
10
20.348243101579637
20
397.5554381358432
10
19.608963739909704
20
398.93853254107927
10
19.153717756774157
20
400.439277423871
10
19
20
402
10
19
20
474
10
19
20
474
10
19.153717756774157
20
475.560722576129
10
19.608963739909704
20
477.06146745892073
10
20.348243101579637
20
478.4445618641568
10
21.343145750507617
20
479.65685424949237
10
22.555438135843183
20
480.65175689842033
10
23.938532541079276
20
481.3910362600903
10
25.43927742387097
20
481.8462822432258
10
27
20
482
10
27
20
482
0
TEXT
5
23
330
C
100
AcDbEntity
420
1120295
8
0
100
AcDbText
10
31
20
458.4
30
0
40
16
1
First line
7
Arial
100
AcDbText
0
TEXT
5
24
330
C
100
AcDbEntity
420
1120295
8
0
100
AcDbText
10
31
20
439.20000000000005
30
0
40
16
1
Second line
7
Arial
100
AcDbText
0
TEXT
5
25
330
C
100
AcDbEntity
420
1120295
8
0
100
AcDbText
10
31
20
420
30
0
40
16
1
Third line
7
Arial
100
AcDbText
0
TEXT
5
26
330
C
100
AcDbEntity
420
4938352
8
0
100
AcDbText
10
19
20
368.5
30
0
40
12
1
SELECT
7
Arial
100
AcDbText
0
LWPOLYLINE
5
27
330
C
100
AcDbEntity
420
9741240
8
0
100
AcDbPolyline
90
42
70
0
43
0
38
0
39
0
10
27
20
358
10
404
20
358
10
404
20
358
10
405.560722576129
20
357.84628224322586
10
407.06146745892073
20
357.3910362600903
10
408.4445618641568
20
356.6517568984204
10
409.65685424949237
20
355.65685424949237
10
410.6517568984204
20
354.4445618641568
10
411.3910362600903
20
353.06146745892073
10
411.84628224322586
20
351.560722576129
10
412
20
350
10
412
20
326
10
412
20
326
10
411.84628224322586
20
324.439277423871
10
411.3910362600903
20
322.93853254107927
10
410.6517568984204
20
321.5554381358432
10
409.65685424949237
20
320.34314575050763
10
408.4445618641568
20
319.3482431015796
10
407.06146745892073
20
318.6089637399097
10
405.560722576129
20
318.15371775677414
10
404
20
318
10
27
20
318
10
27
20
318
10
25.439277423870976
20
318.15371775677414
10
23.938532541079283
20
318.6089637399097
10
22.555438135843183
20
319.3482431015796
10
21.34314575050762
20
320.34314575050763
10
20.348243101579637
20
321.5554381358432
10
19.608963739909704
20
322.93853254107927
10
19.153717756774157
20
324.439277423871
10
19
20
326
10
19
20
350
10
19
20
350
10
19.153717756774157
20
351.560722576129
10
19.608963739909704
20
353.06146745892073
10
20.348243101579637
20
354.4445618641568
10
21.343145750507617
20
355.65685424949237
10
22.555438135843183
20
356.6517568984204
10
23.938532541079276
20
357.3910362600903
10
25.43927742387097
20
357.84628224322586
10
27
20
358
10
27
20
358
0
LWPOLYLINE
5
28
330
C
100
AcDbEntity
420
16119285
8
0
100
AcDbPolyline
90
5
70
0
43
0
38
0
39
0
10
372
20
358
10
412
20
358
10
412
20
318
10
372
20
318
10
372
20
358
0
LWPOLYLINE
5
29
330
C
100
AcDbEntity
420
9741240
8
0
100
AcDbPolyline
90
2
70
0
43
0
38
0
39
0
10
372
20
357
10
372
20
319
0
TEXT
5
2A
330
C
100
AcDbEntity
420
1120295
8
0
100
AcDbText
10
31
20
334
30
0
40
16
1
Normal
7
Arial
100
AcDbText
0
LWPOLYLINE
5
2B
330
C
100
AcDbEntity
420
5263440
8
0
100
AcDbPolyline
90
3
70
0
43
0
38
0
39
0
10
384
20
341.2
10
392
20
334.8
10
400
20
341.2
0
LWPOLYLINE
5
2C
330
C
100
AcDbEntity
420
14147306
8
0
100
AcDbPolyline
90
42
70
0
43
0
38
0
39
0
10
463
20
630
10
866
20
630
10
866
20
630
10
868.7312645082258
20
629.7309939256452
10
871.3575680531112
20
628.934313455158
10
873.7779832622745
20
627.6405745722357
10
875.8994949366116
20
625.8994949366116
10
877.6405745722357
20
623.7779832622745
10
878.934313455158
20
621.3575680531112
10
879.7309939256452
20
618.7312645082258
10
880
20
616
10
880
20
313
10
880
20
313
10
879.7309939256452
20
310.2687354917742
10
878.934313455158
20
307.64243194688873
10
877.6405745722357
20
305.2220167377256
10
875.8994949366116
20
303.1005050633883
10
873.7779832622745
20
301.3594254277644
10
871.3575680531112
20
300.065686544842
10
868.7312645082258
20
299.26900607435476
10
866
20
299
10
463
20
299
10
463
20
299
10
460.2687354917742
20
299.26900607435476
10
457.64243194688873
20
300.065686544842
10
455.2220167377256
20
301.35942542776434
10
453.1005050633883
20
303.1005050633883
10
451.35942542776434
20
305.2220167377256
10
450.065686544842
20
307.64243194688873
10
449.26900607435476
20
310.2687354917742
10
449
20
313
10
449
20
616
10
449
20
616
10
449.26900607435476
20
618.7312645082258
10
450.065686544842
20
621.3575680531112
10
451.35942542776434
20
623.7779832622745
10
453.1005050633883
20
625.8994949366116
10
455.2220167377256
20
627.6405745722357
10
457.64243194688873
20
628.934313455158
10
460.2687354917742
20
629.7309939256452
10
463
20
630
10
463
20
630
0
TEXT
5
2D
330
C
100
AcDbEntity
420
1910582
8
0
100
AcDbText
10
468
20
598
30
0
40
16
1
State Fields
7
Arial
100
AcDbText
0
LWPOLYLINE
5
2E
330
C
100
AcDbEntity
420
1008382
8
0
100
AcDbPolyline
90
42
70
0
43
0
38
0
39
0
10
480
20
576
10
482
20
576
10
482
20
576
10
483.560722576129
20
575.8462822432258
10
485.06146745892073
20
575.3910362600902
10
486.4445618641568
20
574.6517568984203
10
487.65685424949237
20
573.6568542494924
10
488.6517568984204
20
572.4445618641569
10
489.3910362600903
20
571.0614674589207
10
489.84628224322586
20
569.560722576129
10
490
20
568
10
490
20
566
10
490
20
566
10
489.84628224322586
20
564.439277423871
10
489.3910362600903
20
562.9385325410793
10
488.6517568984204
20
561.5554381358431
10
487.65685424949237
20
560.3431457505076
10
486.4445618641568
20
559.3482431015797
10
485.06146745892073
20
558.6089637399098
10
483.560722576129
20
558.1537177567742
10
482
20
558
10
480
20
558
10
480
20
558
10
478.439277423871
20
558.1537177567742
10
476.93853254107927
20
558.6089637399098
10
475.5554381358432
20
559.3482431015797
10
474.34314575050763
20
560.3431457505076
10
473.3482431015796
20
561.5554381358431
10
472.6089637399097
20
562.9385325410793
10
472.15371775677414
20
564.439277423871
10
472
20
566
10
472
20
568
10
472
20
568
10
472.15371775677414
20
569.560722576129
10
472.6089637399097
20
571.0614674589207
10
473.3482431015796
20
572.4445618641569
10
474.34314575050763
20
573.6568542494924
10
475.5554381358432
20
574.6517568984203
10
476.93853254107927
20
575.3910362600902
10
478.439277423871
20
575.8462822432258
10
480
20
576
10
480
20
576
0
LWPOLYLINE
5
2F
330
C
100
AcDbEntity
420
16777215
8
0
100
AcDbPolyline
90
3
70
0
43
0
38
0
39
0
10
475.96
20
566.28
10
479.56
20
562.6800000000001
10
486.04
20
570.6
0
TEXT
5
30
330
C
100
AcDbEntity
420
4938352
8
0
100
AcDbText
10
503
20
564
30
0
40
12
1
CHECKED CHECKBOX
7
Arial
100
AcDbText
0
LWPOLYLINE
5
31
330
C
100
AcDbEntity
420
1008382
8
0
100
AcDbPolyline
90
42
70
0
43
0
38
0
39
0
10
480
20
540
10
482
20
540
10
482
20
540
10
483.560722576129
20
539.8462822432259
10
485.06146745892073
20
539.3910362600902
10
486.4445618641568
20
538.6517568984203
10
487.65685424949237
20
537.6568542494924
10
488.6517568984204
20
536.4445618641569
10
489.3910362600903
20
535.0614674589208
10
489.84628224322586
20
533.560722576129
10
490
20
532
10
490
20
530
10
490
20
530
10
489.84628224322586
20
528.439277423871
10
489.3910362600903
20
526.9385325410792
10
488.6517568984204
20
525.5554381358431
10
487.65685424949237
20
524.3431457505076
10
486.4445618641568
20
523.3482431015797
10
485.06146745892073
20
522.6089637399098
10
483.560722576129
20
522.1537177567741
10
482
20
522
10
480
20
522
10
480
20
522
10
478.439277423871
20
522.1537177567741
10
476.93853254107927
20
522.6089637399098
10
475.5554381358432
20
523.3482431015797
10
474.34314575050763
20
524.3431457505076
10
473.3482431015796
20
525.5554381358431
10
472.6089637399097
20
526.9385325410792
10
472.15371775677414
20
528.439277423871
10
472
20
530
10
472
20
532
10
472
20
532
10
472.15371775677414
20
533.560722576129
10
472.6089637399097
20
535.0614674589208
10
473.3482431015796
20
536.4445618641569
10
474.34314575050763
20
537.6568542494924
10
475.5554381358432
20
538.6517568984203
10
476.93853254107927
20
539.3910362600902
10
478.439277423871
20
539.8462822432258
10
480
20
540
10
480
20
540
0
LWPOLYLINE
5
32
330
C
100
AcDbEntity
420
16777215
8
0
100
AcDbPolyline
90
5
70
0
43
0
38
0
39
0
10
475.6
20
532.26
10
486.4
20
532.26
10
486.4
20
529.74
10
475.6
20
529.74
10
475.6
20
532.26
0
TEXT
5
33
330
C
100
AcDbEntity
420
4938352
8
0
100
AcDbText
10
503
20
528
30
0
40
12
1
INDETERMINATE CHECKBOX
7
Arial
100
AcDbText
0
HATCH
5
34
330
C
100
AcDbEntity
420
16777215
8
0
100
AcDbHatch
10
0
20
0
30
0
210
0
220
0
230
1
2
SOLID
70
1
71
0
91
1
92
7
72
0
73
1
93
28
10
491
20
495
10
490.7743512096364
20
492.9973115943932
10
490.1087198111218
20
491.095046347942
10
489.03648334221225
20
489.3885917832714
10
487.6114082167286
20
487.96351665778775
10
485.904953652058
20
486.8912801888782
10
484.0026884056068
20
486.2256487903636
10
482
20
486
10
479.9973115943932
20
486.2256487903636
10
478.095046347942
20
486.8912801888782
10
476.3885917832714
20
487.96351665778775
10
474.96351665778775
20
489.3885917832714
10
473.8912801888782
20
491.095046347942
10
473.2256487903636
20
492.9973115943932
10
473
20
495
10
473.2256487903636
20
497.0026884056068
10
473.8912801888782
20
498.904953652058
10
474.96351665778775
20
500.6114082167286
10
476.3885917832714
20
502.03648334221225
10
478.095046347942
20
503.1087198111218
10
479.9973115943932
20
503.7743512096364
10
482
20
504
10
484.0026884056068
20
503.7743512096364
10
485.904953652058
20
503.1087198111218
10
487.6114082167286
20
502.03648334221225
10
489.03648334221225
20
500.6114082167286
10
490.1087198111218
20
498.904953652058
10
490.7743512096364
20
497.0026884056068
97
0
75
1
76
1
47
1
98
0
0
LWPOLYLINE
5
35
330
C
100
AcDbEntity
420
1008382
8
0
100
AcDbPolyline
90
29
70
0
43
0
38
0
39
0
10
491
20
495
10
490.7743512096364
20
492.9973115943932
10
490.1087198111218
20
491.095046347942
10
489.03648334221225
20
489.3885917832714
10
487.6114082167286
20
487.96351665778775
10
485.904953652058
20
486.8912801888782
10
484.0026884056068
20
486.2256487903636
10
482
20
486
10
479.9973115943932
20
486.2256487903636
10
478.095046347942
20
486.8912801888782
10
476.3885917832714
20
487.96351665778775
10
474.96351665778775
20
489.3885917832714
10
473.8912801888782
20
491.095046347942
10
473.2256487903636
20
492.9973115943932
10
473
20
495
10
473.2256487903636
20
497.0026884056068
10
473.8912801888782
20
498.904953652058
10
474.96351665778775
20
500.6114082167286
10
476.3885917832714
20
502.03648334221225
10
478.095046347942
20
503.1087198111218
10
479.9973115943932
20
503.7743512096364
10
482
20
504
10
484.0026884056068
20
503.7743512096364
10
485.904953652058
20
503.1087198111218
10
487.6114082167286
20
502.03648334221225
10
489.03648334221225
20
500.6114082167286
10
490.1087198111218
20
498.904953652058
10
490.7743512096364
20
497.0026884056068
10
491
20
495
0
HATCH
5
36
330
C
100
AcDbEntity
420
1008382
8
0
100
AcDbHatch
10
0
20
0
30
0
210
0
220
0
230
1
2
SOLID
70
1
71
0
91
1
92
7
72
0
73
1
93
24
10
485.78
20
495
10
485.6511996233727
20
494.0216640095125
10
485.2735760263052
20
493.11
10
484.67286363288514
20
492.32713636711486
10
483.89
20
491.7264239736948
10
482.97833599048755
20
491.3488003766273
10
482
20
491.22
10
481.02166400951245
20
491.3488003766273
10
480.11
20
491.7264239736948
10
479.32713636711486
20
492.32713636711486
10
478.7264239736948
20
493.11
10
478.3488003766273
20
494.0216640095125
10
478.22
20
495
10
478.3488003766273
20
495.9783359904875
10
478.7264239736948
20
496.89
10
479.32713636711486
20
497.67286363288514
10
480.11
20
498.27357602630514
10
481.02166400951245
20
498.6511996233727
10
482
20
498.78
10
482.97833599048755
20
498.6511996233727
10
483.89
20
498.27357602630514
10
484.67286363288514
20
497.67286363288514
10
485.2735760263052
20
496.89
10
485.6511996233727
20
495.9783359904875
97
0
75
1
76
1
47
1
98
0
0
LWPOLYLINE
5
37
330
C
100
AcDbEntity
420
1008382
8
0
100
AcDbPolyline
90
25
70
0
43
0
38
0
39
0
10
485.78
20
495
10
485.6511996233727
20
494.0216640095125
10
485.2735760263052
20
493.11
10
484.67286363288514
20
492.32713636711486
10
483.89
20
491.7264239736948
10
482.97833599048755
20
491.3488003766273
10
482
20
491.22
10
481.02166400951245
20
491.3488003766273
10
480.11
20
491.7264239736948
10
479.32713636711486
20
492.32713636711486
10
478.7264239736948
20
493.11
10
478.3488003766273
20
494.0216640095125
10
478.22
20
495
10
478.3488003766273
20
495.9783359904875
10
478.7264239736948
20
496.89
10
479.32713636711486
20
497.67286363288514
10
480.11
20
498.27357602630514
10
481.02166400951245
20
498.6511996233727
10
482
20
498.78
10
482.97833599048755
20
498.6511996233727
10
483.89
20
498.27357602630514
10
484.67286363288514
20
497.67286363288514
10
485.2735760263052
20
496.89
10
485.6511996233727
20
495.9783359904875
10
485.78
20
495
0
TEXT
5
38
330
C
100
AcDbEntity
420
4938352
8
0
100
AcDbText
10
504
20
493.5
30
0
40
12
1
SELECTED RADIO BUTTON
7
Arial
100
AcDbText
0
TEXT
5
39
330
C
100
AcDbEntity
420
4938352
8
0
100
AcDbText
10
468
20
463.5
30
0
40
12
1
PROGRESS
7
Arial
100
AcDbText
0
LWPOLYLINE
5
3A
330
C
100
AcDbEntity
420
9408413
8
0
100
AcDbPolyline
90
42
70
0
43
0
38
0
39
0
10
477
20
453
10
852
20
453
10
852
20
453
10
853.7558128981451
20
452.82706752362907
10
855.4441508912859
20
452.3149157926016
10
857.0001320971764
20
451.48322651072294
10
858.363961030679
20
450.3639610306789
10
859.483226510723
20
449.00013209717645
10
860.3149157926016
20
447.4441508912858
10
860.8270675236291
20
445.75581289814517
10
861
20
444
10
861
20
444
10
861
20
444
10
860.8270675236291
20
442.24418710185483
10
860.3149157926016
20
440.5558491087142
10
859.483226510723
20
438.99986790282355
10
858.363961030679
20
437.6360389693211
10
857.0001320971764
20
436.51677348927706
10
855.4441508912859
20
435.6850842073984
10
853.7558128981451
20
435.17293247637093
10
852
20
435
10
477
20
435
10
477
20
435
10
475.24418710185483
20
435.17293247637093
10
473.5558491087142
20
435.6850842073984
10
471.9998679028236
20
436.51677348927706
10
470.6360389693211
20
437.6360389693211
10
469.5167734892771
20
438.99986790282355
10
468.6850842073984
20
440.5558491087142
10
468.17293247637093
20
442.24418710185483
10
468
20
444
10
468
20
444
10
468
20
444
10
468.17293247637093
20
445.75581289814517
10
468.6850842073984
20
447.4441508912858
10
469.5167734892771
20
449.00013209717645
10
470.6360389693211
20
450.3639610306789
10
471.99986790282355
20
451.48322651072294
10
473.5558491087142
20
452.3149157926016
10
475.24418710185483
20
452.82706752362907
10
477
20
453
10
477
20
453
0
LWPOLYLINE
5
3B
330
C
100
AcDbEntity
420
1008382
8
0
100
AcDbPolyline
90
42
70
0
43
0
38
0
39
0
10
477
20
452
10
742.52
20
452
10
742.52
20
452
10
744.080722576129
20
451.84628224322586
10
745.5814674589207
20
451.3910362600903
10
746.9645618641568
20
450.65175689842033
10
748.1768542494924
20
449.65685424949237
10
749.1717568984203
20
448.4445618641568
10
749.9110362600903
20
447.06146745892073
10
750.3662822432258
20
445.560722576129
10
750.52
20
444
10
750.52
20
444
10
750.52
20
444
10
750.3662822432258
20
442.439277423871
10
749.9110362600903
20
440.93853254107927
10
749.1717568984203
20
439.5554381358432
10
748.1768542494924
20
438.34314575050763
10
746.9645618641568
20
437.34824310157967
10
745.5814674589207
20
436.6089637399097
10
744.080722576129
20
436.15371775677414
10
742.52
20
436
10
477
20
436
10
477
20
436
10
475.439277423871
20
436.15371775677414
10
473.93853254107927
20
436.6089637399097
10
472.5554381358432
20
437.34824310157967
10
471.34314575050763
20
438.34314575050763
10
470.3482431015796
20
439.5554381358432
10
469.6089637399097
20
440.93853254107927
10
469.15371775677414
20
442.439277423871
10
469
20
444
10
469
20
444
10
469
20
444
10
469.15371775677414
20
445.560722576129
10
469.6089637399097
20
447.06146745892073
10
470.3482431015796
20
448.4445618641568
10
471.34314575050763
20
449.65685424949237
10
472.5554381358432
20
450.65175689842033
10
473.93853254107927
20
451.3910362600903
10
475.439277423871
20
451.8462822432258
10
477
20
452
10
477
20
452
0
TEXT
5
3C
330
C
100
AcDbEntity
420
1910582
8
0
100
AcDbText
10
648.4833335876465
20
440
30
0
40
16
1
72%
7
Arial
100
AcDbText
0
LWPOLYLINE
5
3D
330
C
100
AcDbEntity
420
14147306
8
0
100
AcDbPolyline
90
42
70
0
43
0
38
0
39
0
10
14
20
281
10
417
20
281
10
417
20
281
10
419.7312645082258
20
280.73099392564524
10
422.35756805311127
20
279.934313455158
10
424.77798326227446
20
278.6405745722356
10
426.8994949366117
20
276.8994949366117
10
428.6405745722356
20
274.7779832622744
10
429.934313455158
20
272.35756805311127
10
430.73099392564524
20
269.7312645082258
10
431
20
267
10
431
20
14
10
431
20
14
10
430.73099392564524
20
11.268735491774237
10
429.934313455158
20
8.642431946888792
10
428.6405745722356
20
6.222016737725539
10
426.8994949366117
20
4.100505063388368
10
424.77798326227446
20
2.359425427764336
10
422.35756805311127
20
1.0656865448420376
10
419.7312645082258
20
0.26900607435482016
10
417
20
0
10
14
20
0
10
14
20
0
10
11.268735491774205
20
0.26900607435482016
10
8.642431946888744
20
1.0656865448420376
10
6.222016737725573
20
2.359425427764336
10
4.100505063388336
20
4.100505063388368
10
2.3594254277643643
20
6.222016737725539
10
1.065686544841986
20
8.642431946888792
10
0.26900607435477397
20
11.268735491774237
10
0
20
14
10
0
20
267
10
0
20
267
10
0.26900607435477397
20
269.7312645082258
10
1.0656865448419843
20
272.35756805311127
10
2.3594254277643643
20
274.7779832622744
10
4.100505063388333
20
276.8994949366117
10
6.2220167377255695
20
278.6405745722356
10
8.642431946888735
20
279.934313455158
10
11.268735491774198
20
280.73099392564524
10
13.999999999999998
20
281
10
14
20
281
0
TEXT
5
3E
330
C
100
AcDbEntity
420
1910582
8
0
100
AcDbText
10
19
20
249
30
0
40
16
1
Date & Time
7
Arial
100
AcDbText
0
TEXT
5
3F
330
C
100
AcDbEntity
420
4938352
8
0
100
AcDbText
10
19
20
219.5
30
0
40
12
1
DATE
7
Arial
100
AcDbText
0
LWPOLYLINE
5
40
330
C
100
AcDbEntity
420
9741240
8
0
100
AcDbPolyline
90
42
70
0
43
0
38
0
39
0
10
27
20
209
10
404
20
209
10
404
20
209
10
405.560722576129
20
208.84628224322586
10
407.06146745892073
20
208.3910362600903
10
408.4445618641568
20
207.6517568984204
10
409.65685424949237
20
206.65685424949237
10
410.6517568984204
20
205.4445618641568
10
411.3910362600903
20
204.06146745892073
10
411.84628224322586
20
202.56072257612902
10
412
20
201
10
412
20
177
10
412
20
177
10
411.84628224322586
20
175.43927742387098
10
411.3910362600903
20
173.93853254107927
10
410.6517568984204
20
172.5554381358432
10
409.65685424949237
20
171.34314575050763
10
408.4445618641568
20
170.3482431015796
10
407.06146745892073
20
169.60896373990965
10
405.560722576129
20
169.1537177567742
10
404
20
169
10
27
20
169
10
27
20
169
10
25.439277423870976
20
169.1537177567742
10
23.938532541079283
20
169.60896373990965
10
22.555438135843183
20
170.3482431015796
10
21.34314575050762
20
171.34314575050763
10
20.348243101579637
20
172.5554381358432
10
19.608963739909704
20
173.93853254107927
10
19.153717756774157
20
175.43927742387098
10
19
20
177
10
19
20
201
10
19
20
201
10
19.153717756774157
20
202.56072257612902
10
19.608963739909704
20
204.06146745892073
10
20.348243101579637
20
205.4445618641568
10
21.343145750507617
20
206.65685424949237
10
22.555438135843183
20
207.6517568984204
10
23.938532541079276
20
208.3910362600903
10
25.43927742387097
20
208.84628224322586
10
27
20
209
10
27
20
209
0
TEXT
5
41
330
C
100
AcDbEntity
420
1120295
8
0
100
AcDbText
10
31
20
185
30
0
40
16
1
2026-04-13
7
Arial
100
AcDbText
0
TEXT
5
42
330
C
100
AcDbEntity
420
4938352
8
0
100
AcDbText
10
19
20
144.5
30
0
40
12
1
TIME
7
Arial
100
AcDbText
0
LWPOLYLINE
5
43
330
C
100
AcDbEntity
420
9741240
8
0
100
AcDbPolyline
90
42
70
0
43
0
38
0
39
0
10
27
20
134
10
404
20
134
10
404
20
134
10
405.560722576129
20
133.8462822432258
10
407.06146745892073
20
133.39103626009035
10
408.4445618641568
20
132.65175689842033
10
409.65685424949237
20
131.65685424949243
10
410.6517568984204
20
130.44456186415687
10
411.3910362600903
20
129.06146745892067
10
411.84628224322586
20
127.56072257612902
10
412
20
126
10
412
20
102
10
412
20
102
10
411.84628224322586
20
100.43927742387098
10
411.3910362600903
20
98.93853254107933
10
410.6517568984204
20
97.55543813584313
10
409.65685424949237
20
96.34314575050757
10
408.4445618641568
20
95.34824310157967
10
407.06146745892073
20
94.60896373990965
10
405.560722576129
20
94.1537177567742
10
404
20
94
10
27
20
94
10
27
20
94
10
25.439277423870976
20
94.1537177567742
10
23.938532541079283
20
94.60896373990965
10
22.555438135843183
20
95.34824310157967
10
21.34314575050762
20
96.34314575050757
10
20.348243101579637
20
97.55543813584313
10
19.608963739909704
20
98.93853254107933
10
19.153717756774157
20
100.43927742387098
10
19
20
102
10
19
20
126
10
19
20
126
10
19.153717756774157
20
127.56072257612902
10
19.608963739909704
20
129.06146745892067
10
20.348243101579637
20
130.44456186415687
10
21.343145750507617
20
131.65685424949243
10
22.555438135843183
20
132.65175689842033
10
23.938532541079276
20
133.39103626009035
10
25.43927742387097
20
133.8462822432258
10
27
20
134
10
27
20
134
0
TEXT
5
44
330
C
100
AcDbEntity
420
1120295
8
0
100
AcDbText
10
31
20
110
30
0
40
16
1
14:35
7
Arial
100
AcDbText
0
TEXT
5
45
330
C
100
AcDbEntity
420
4938352
8
0
100
AcDbText
10
19
20
69.5
30
0
40
12
1
DATETIME
7
Arial
100
AcDbText
0
LWPOLYLINE
5
46
330
C
100
AcDbEntity
420
9741240
8
0
100
AcDbPolyline
90
42
70
0
43
0
38
0
39
0
10
27
20
59
10
404
20
59
10
404
20
59
10
405.560722576129
20
58.8462822432258
10
407.06146745892073
20
58.391036260090345
10
408.4445618641568
20
57.65175689842033
10
409.65685424949237
20
56.656854249492426
10
410.6517568984204
20
55.44456186415687
10
411.3910362600903
20
54.061467458920674
10
411.84628224322586
20
52.560722576129024
10
412
20
51
10
412
20
27
10
412
20
27
10
411.84628224322586
20
25.439277423870976
10
411.3910362600903
20
23.938532541079326
10
410.6517568984204
20
22.555438135843133
10
409.65685424949237
20
21.343145750507574
10
408.4445618641568
20
20.34824310157967
10
407.06146745892073
20
19.608963739909655
10
405.560722576129
20
19.1537177567742
10
404
20
19
10
27
20
19
10
27
20
19
10
25.439277423870976
20
19.1537177567742
10
23.938532541079283
20
19.608963739909655
10
22.555438135843183
20
20.34824310157967
10
21.34314575050762
20
21.343145750507574
10
20.348243101579637
20
22.555438135843133
10
19.608963739909704
20
23.938532541079326
10
19.153717756774157
20
25.439277423870976
10
19
20
27
10
19
20
51
10
19
20
51
10
19.153717756774157
20
52.560722576129024
10
19.608963739909704
20
54.061467458920674
10
20.348243101579637
20
55.44456186415687
10
21.343145750507617
20
56.656854249492426
10
22.555438135843183
20
57.65175689842033
10
23.938532541079276
20
58.391036260090345
10
25.43927742387097
20
58.8462822432258
10
27
20
59
10
27
20
59
0
TEXT
5
47
330
C
100
AcDbEntity
420
1120295
8
0
100
AcDbText
10
31
20
35
30
0
40
16
1
2026-04-13 14:35
7
Arial
100
AcDbText
0
LWPOLYLINE
5
48
330
C
100
AcDbEntity
420
14147306
8
0
100
AcDbPolyline
90
42
70
0
43
0
38
0
39
0
10
463
20
281
10
866
20
281
10
866
20
281
10
868.7312645082258
20
280.73099392564524
10
871.3575680531112
20
279.934313455158
10
873.7779832622745
20
278.6405745722356
10
875.8994949366116
20
276.8994949366117
10
877.6405745722357
20
274.7779832622744
10
878.934313455158
20
272.35756805311127
10
879.7309939256452
20
269.7312645082258
10
880
20
267
10
880
20
14
10
880
20
14
10
879.7309939256452
20
11.268735491774237
10
878.934313455158
20
8.642431946888792
10
877.6405745722357
20
6.222016737725539
10
875.8994949366116
20
4.100505063388368
10
873.7779832622745
20
2.359425427764336
10
871.3575680531112
20
1.0656865448420376
10
868.7312645082258
20
0.26900607435482016
10
866
20
0
10
463
20
0
10
463
20
0
10
460.2687354917742
20
0.26900607435482016
10
457.64243194688873
20
1.0656865448420376
10
455.2220167377256
20
2.359425427764336
10
453.1005050633883
20
4.100505063388368
10
451.35942542776434
20
6.222016737725539
10
450.065686544842
20
8.642431946888792
10
449.26900607435476
20
11.268735491774237
10
449
20
14
10
449
20
267
10
449
20
267
10
449.26900607435476
20
269.7312645082258
10
450.065686544842
20
272.35756805311127
10
451.35942542776434
20
274.7779832622744
10
453.1005050633883
20
276.8994949366117
10
455.2220167377256
20
278.6405745722356
10
457.64243194688873
20
279.934313455158
10
460.2687354917742
20
280.73099392564524
10
463
20
281
10
463
20
281
0
TEXT
5
49
330
C
100
AcDbEntity
420
1910582
8
0
100
AcDbText
10
468
20
249
30
0
40
16
1
Additional Inputs
7
Arial
100
AcDbText
0
TEXT
5
4A
330
C
100
AcDbEntity
420
4938352
8
0
100
AcDbText
10
468
20
219.5
30
0
40
12
1
MONTH
7
Arial
100
AcDbText
0
LWPOLYLINE
5
4B
330
C
100
AcDbEntity
420
9741240
8
0
100
AcDbPolyline
90
42
70
0
43
0
38
0
39
0
10
476
20
209
10
853
20
209
10
853
20
209
10
854.560722576129
20
208.84628224322586
10
856.0614674589207
20
208.3910362600903
10
857.4445618641569
20
207.6517568984204
10
858.6568542494924
20
206.65685424949237
10
859.6517568984203
20
205.4445618641568
10
860.3910362600903
20
204.06146745892073
10
860.8462822432258
20
202.56072257612902
10
861
20
201
10
861
20
177
10
861
20
177
10
860.8462822432258
20
175.43927742387098
10
860.3910362600903
20
173.93853254107927
10
859.6517568984203
20
172.5554381358432
10
858.6568542494924
20
171.34314575050763
10
857.4445618641569
20
170.3482431015796
10
856.0614674589207
20
169.60896373990965
10
854.560722576129
20
169.1537177567742
10
853
20
169
10
476
20
169
10
476
20
169
10
474.439277423871
20
169.1537177567742
10
472.93853254107927
20
169.60896373990965
10
471.5554381358432
20
170.3482431015796
10
470.34314575050763
20
171.34314575050763
10
469.3482431015796
20
172.5554381358432
10
468.6089637399097
20
173.93853254107927
10
468.15371775677414
20
175.43927742387098
10
468
20
177
10
468
20
201
10
468
20
201
10
468.15371775677414
20
202.56072257612902
10
468.6089637399097
20
204.06146745892073
10
469.3482431015796
20
205.4445618641568
10
470.34314575050763
20
206.65685424949237
10
471.5554381358432
20
207.6517568984204
10
472.93853254107927
20
208.3910362600903
10
474.439277423871
20
208.84628224322586
10
476
20
209
10
476
20
209
0
TEXT
5
4C
330
C
100
AcDbEntity
420
1120295
8
0
100
AcDbText
10
480
20
185
30
0
40
16
1
2026-04
7
Arial
100
AcDbText
0
TEXT
5
4D
330
C
100
AcDbEntity
420
4938352
8
0
100
AcDbText
10
468
20
144.5
30
0
40
12
1
WEEK
7
Arial
100
AcDbText
0
LWPOLYLINE
5
4E
330
C
100
AcDbEntity
420
9741240
8
0
100
AcDbPolyline
90
42
70
0
43
0
38
0
39
0
10
476
20
134
10
853
20
134
10
853
20
134
10
854.560722576129
20
133.8462822432258
10
856.0614674589207
20
133.39103626009035
10
857.4445618641569
20
132.65175689842033
10
858.6568542494924
20
131.65685424949243
10
859.6517568984203
20
130.44456186415687
10
860.3910362600903
20
129.06146745892067
10
860.8462822432258
20
127.56072257612902
10
861
20
126
10
861
20
102
10
861
20
102
10
860.8462822432258
20
100.43927742387098
10
860.3910362600903
20
98.93853254107933
10
859.6517568984203
20
97.55543813584313
10
858.6568542494924
20
96.34314575050757
10
857.4445618641569
20
95.34824310157967
10
856.0614674589207
20
94.60896373990965
10
854.560722576129
20
94.1537177567742
10
853
20
94
10
476
20
94
10
476
20
94
10
474.439277423871
20
94.1537177567742
10
472.93853254107927
20
94.60896373990965
10
471.5554381358432
20
95.34824310157967
10
470.34314575050763
20
96.34314575050757
10
469.3482431015796
20
97.55543813584313
10
468.6089637399097
20
98.93853254107933
10
468.15371775677414
20
100.43927742387098
10
468
20
102
10
468
20
126
10
468
20
126
10
468.15371775677414
20
127.56072257612902
10
468.6089637399097
20
129.06146745892067
10
469.3482431015796
20
130.44456186415687
10
470.34314575050763
20
131.65685424949243
10
471.5554381358432
20
132.65175689842033
10
472.93853254107927
20
133.39103626009035
10
474.439277423871
20
133.8462822432258
10
476
20
134
10
476
20
134
0
TEXT
5
4F
330
C
100
AcDbEntity
420
1120295
8
0
100
AcDbText
10
480
20
110
30
0
40
16
1
2026-W16
7
Arial
100
AcDbText
0
TEXT
5
50
330
C
100
AcDbEntity
420
4938352
8
0
100
AcDbText
10
468
20
69.5
30
0
40
12
1
NUMBER
7
Arial
100
AcDbText
0
LWPOLYLINE
5
51
330
C
100
AcDbEntity
420
9741240
8
0
100
AcDbPolyline
90
42
70
0
43
0
38
0
39
0
10
476
20
59
10
853
20
59
10
853
20
59
10
854.560722576129
20
58.8462822432258
10
856.0614674589207
20
58.391036260090345
10
857.4445618641569
20
57.65175689842033
10
858.6568542494924
20
56.656854249492426
10
859.6517568984203
20
55.44456186415687
10
860.3910362600903
20
54.061467458920674
10
860.8462822432258
20
52.560722576129024
10
861
20
51
10
861
20
27
10
861
20
27
10
860.8462822432258
20
25.439277423870976
10
860.3910362600903
20
23.938532541079326
10
859.6517568984203
20
22.555438135843133
10
858.6568542494924
20
21.343145750507574
10
857.4445618641569
20
20.34824310157967
10
856.0614674589207
20
19.608963739909655
10
854.560722576129
20
19.1537177567742
10
853
20
19
10
476
20
19
10
476
20
19
10
474.439277423871
20
19.1537177567742
10
472.93853254107927
20
19.608963739909655
10
471.5554381358432
20
20.34824310157967
10
470.34314575050763
20
21.343145750507574
10
469.3482431015796
20
22.555438135843133
10
468.6089637399097
20
23.938532541079326
10
468.15371775677414
20
25.439277423870976
10
468
20
27
10
468
20
51
10
468
20
51
10
468.15371775677414
20
52.560722576129024
10
468.6089637399097
20
54.061467458920674
10
469.3482431015796
20
55.44456186415687
10
470.34314575050763
20
56.656854249492426
10
471.5554381358432
20
57.65175689842033
10
472.93853254107927
20
58.391036260090345
10
474.439277423871
20
58.8462822432258
10
476
20
59
10
476
20
59
0
TEXT
5
52
330
C
100
AcDbEntity
420
1120295
8
0
100
AcDbText
10
480
20
35
30
0
40
16
1
42
7
Arial
100
AcDbText
0
ENDSEC
0
SECTION
2
OBJECTS
0
DICTIONARY
5
A
330
0
100
AcDbDictionary
281
1
3
ACAD_GROUP
350
B
0
DICTIONARY
5
B
330
A
100
AcDbDictionary
281
0
0
ENDSEC
0
EOF