  0
SECTION
  2
HEADER
  9
$ANGBASE
 50
0.0
  9
$ANGDIR
 70
1
  9
$AUNITS
 70
0
  9
$AUPREC
 70
0
  9
$ATTMODE
 70
1
  9
$DWGCODEPAGE
  3
ANSI_1252
  9
$TDCREATE
 40
2461147.0190093289129436
  9
$CECOLOR
 62
256
  9
$CELTSCALE
 40
1.0
  9
$CELWEIGHT
370
-1
  9
$CLAYER
  8
0
  9
$CELTYPE
  6
ByLayer
  9
$CMLJUST
 70
0
  9
$CMLSCALE
 40
20.0
  9
$CMLSTYLE
  2
Standard
  9
$DIMSTYLE
  2
Standard
  9
$LWDISPLAY
290
0
  9
$EXTNAMES
290
1
  9
$HANDSEED
  5
6F
  9
$INSUNITS
 70
0
  9
$LUNITS
 70
2
  9
$LUPREC
 70
4
  9
$LTSCALE
 40
1.0
  9
$MIRRTEXT
 70
0
  9
$INSBASE
 10
0.0
 20
0.0
 30
0.0
  9
$SPLINESEGS
 70
8
  9
$PSLTSCALE
 70
1
  9
$PDMODE
 70
0
  9
$PDSIZE
 40
0.0
  9
$PLINEGEN
 70
0
  9
$TEXTSIZE
 40
0.2
  9
$TEXTSTYLE
  7
Standard
  9
$TDINDWG
 40
0.0
  9
$TDUCREATE
 40
2461147.0190093289129436
  9
$TDUUPDATE
 40
2461147.0190093289129436
  9
$TDUPDATE
 40
2461147.0190093289129436
  9
$ACADVER
  1
AC1018
  0
ENDSEC
  0
SECTION
  2
CLASSES
  0
CLASS
  1
ACDBDICTIONARYWDFLT
  2
AcDbDictionaryWithDefault
  3
ObjectDBX Classes
 90
32768
 91
0
280
0
281
0
  0
CLASS
  1
ACDBPLACEHOLDER
  2
AcDbPlaceHolder
  3
ObjectDBX Classes
 90
0
 91
0
280
0
281
0
  0
CLASS
  1
LAYOUT
  2
AcDbLayout
  3
ObjectDBX Classes
 90
0
 91
0
280
0
281
0
  0
CLASS
  1
DICTIONARYVAR
  2
AcDbDictionaryVar
  3
ObjectDBX Classes
 90
0
 91
0
280
0
281
0
  0
CLASS
  1
TABLESTYLE
  2
AcDbTableStyle
  3
ObjectDBX Classes
 90
4095
 91
0
280
0
281
0
  0
CLASS
  1
MATERIAL
  2
AcDbMaterial
  3
ObjectDBX Classes
 90
1153
 91
0
280
0
281
0
  0
CLASS
  1
VISUALSTYLE
  2
AcDbVisualStyle
  3
ObjectDBX Classes
 90
4095
 91
0
280
0
281
0
  0
CLASS
  1
SCALE
  2
AcDbScale
  3
ObjectDBX Classes
 90
1153
 91
0
280
0
281
0
  0
CLASS
  1
MLEADERSTYLE
  2
AcDbMLeaderStyle
  3
ObjectDBX Classes
 90
4095
 91
0
280
0
281
0
  0
CLASS
  1
CELLSTYLEMAP
  2
AcDbCellStyleMap
  3
ObjectDBX Classes
 90
1152
 91
0
280
0
281
0
  0
CLASS
  1
EXACXREFPANELOBJECT
  2
ExAcXREFPanelObject
  3
ObjectDBX Classes
 90
1025
 91
0
280
0
281
0
  0
CLASS
  1
NPOCOLLECTION
  2
AcDbImpNonPersistentObjectsCollection
  3
ObjectDBX Classes
 90
1153
 91
0
280
0
281
0
  0
CLASS
  1
LAYER_INDEX
  2
AcDbLayerIndex
  3
ObjectDBX Classes
 90
0
 91
0
280
0
281
0
  0
CLASS
  1
SPATIAL_INDEX
  2
AcDbSpatialIndex
  3
ObjectDBX Classes
 90
0
 91
0
280
0
281
0
  0
CLASS
  1
IDBUFFER
  2
AcDbIdBuffer
  3
ObjectDBX Classes
 90
32768
 91
0
280
0
281
0
  0
CLASS
  1
ACDBSECTIONVIEWSTYLE
  2
AcDbSectionViewStyle
  3
ObjectDBX Classes
 90
1025
 91
0
280
0
281
0
  0
CLASS
  1
ACDBDETAILVIEWSTYLE
  2
AcDbDetailViewStyle
  3
ObjectDBX Classes
 90
1025
 91
0
280
0
281
0
  0
CLASS
  1
MESH
  2
AcDbSubDMesh
  3
ObjectDBX Classes
 90
0
 91
0
280
0
281
1
  0
CLASS
  1
SORTENTSTABLE
  2
AcDbSortentsTable
  3
ObjectDBX Classes
 90
0
 91
0
280
0
281
0
  0
CLASS
  1
ACDB_TEXTOBJECTCONTEXTDATA_CLASS
  2
AcDbTextObjectContextData
  3
ObjectDBX Classes
 90
1153
 91
0
280
0
281
0
  0
CLASS
  1
WIPEOUT
  2
AcDbWipeout
  3
WipeOut
 90
32895
 91
0
280
0
281
1
  0
CLASS
  1
WIPEOUTVARIABLES
  2
AcDbWipeoutVariables
  3
WipeOut
 90
32768
 91
0
280
0
281
0
  0
CLASS
  1
DIMASSOC
  2
AcDbDimAssoc
  3
AcDbDimAssoc
 90
0
 91
0
280
0
281
0
  0
CLASS
  1
ACAD_TABLE
  2
AcDbTable
  3
ObjectDBX Classes
 90
1025
 91
0
280
0
281
1
  0
CLASS
  1
TABLECONTENT
  2
AcDbTableContent
  3
ObjectDBX Classes
 90
1152
 91
0
280
0
281
0
  0
CLASS
  1
TABLEGEOMETRY
  2
AcDbTableGeometry
  3
ObjectDBX Classes
 90
1152
 91
0
280
0
281
0
  0
CLASS
  1
IMAGE
  2
AcDbRasterImage
  3
ISM
 90
32895
 91
0
280
0
281
1
  0
CLASS
  1
IMAGEDEF
  2
AcDbRasterImageDef
  3
ISM
 90
0
 91
0
280
0
281
0
  0
CLASS
  1
IMAGEDEF_REACTOR
  2
AcDbRasterImageDefReactor
  3
ISM
 90
1
 91
0
280
0
281
0
  0
CLASS
  1
DBCOLOR
  2
AcDbColor
  3
ObjectDBX Classes
 90
0
 91
0
280
0
281
0
  0
CLASS
  1
GEODATA
  2
AcDbGeoData
  3
ObjectDBX Classes
 90
4095
 91
0
280
0
281
0
  0
CLASS
  1
MULTILEADER
  2
AcDbMLeader
  3
ObjectDBX Classes
 90
1025
 91
0
280
0
281
0
  0
CLASS
  1
PDFUNDERLAY
  2
AcDbPdfReference
  3
ObjectDBX Classes
 90
4095
 91
0
280
0
281
1
  0
CLASS
  1
PDFDEFINITION
  2
AcDbPdfDefinition
  3
ObjectDBX Classes
 90
1153
 91
0
280
0
281
0
  0
CLASS
  1
RASTERVARIABLES
  2
AcDbRasterVariables
  3
ISM
 90
0
 91
0
280
0
281
0
  0
CLASS
  1
SPATIAL_FILTER
  2
AcDbSpatialFilter
  3
ObjectDBX Classes
 90
0
 91
0
280
0
281
0
  0
CLASS
  1
ACDB_MLEADEROBJECTCONTEXTDATA_CLASS
  2
AcDbMLeaderObjectContextData
  3
ObjectDBX Classes
 90
1025
 91
0
280
0
281
0
  0
CLASS
  1
PLOTSETTINGS
  2
AcDbPlotSettings
  3
ObjectDBX Classes
 90
0
 91
0
280
0
281
0
  0
CLASS
  1
FIELD
  2
AcDbField
  3
ObjectDBX Classes
 90
1152
 91
0
280
0
281
0
  0
CLASS
  1
FIELDLIST
  2
AcDbFieldList
  3
ObjectDBX Classes
 90
1152
 91
0
280
0
281
0
  0
CLASS
  1
ACDB_MTEXTATTRIBUTEOBJECTCONTEXTDATA_CLASS
  2
AcDbMTextAttributeObjectContextData
  3
ObjectDBX Classes
 90
1153
 91
0
280
0
281
0
  0
CLASS
  1
ACDB_BLKREFOBJECTCONTEXTDATA_CLASS
  2
AcDbBlkRefObjectContextData
  3
ObjectDBX Classes
 90
1153
 91
0
280
0
281
0
  0
ENDSEC
  0
SECTION
  2
TABLES
  0
TABLE
  2
VPORT
  5
18
330
0
100
AcDbSymbolTable
 70
1
  0
VPORT
  5
26
330
18
100
AcDbSymbolTableRecord
100
AcDbViewportTableRecord
  2
*Active
 70
0
 10
0.0
 20
0.0
 11
1.0
 21
1.0
 12
0.0
 22
0.0
 13
0.0
 23
0.0
 14
0.5
 24
0.5
 15
10.0
 25
10.0
 16
0.0
 26
0.0
 36
1.0
 17
0.0
 27
0.0
 37
0.0
 40
10.0
 41
1.0
 75
0
 76
1
  0
ENDTAB
  0
TABLE
  2
LTYPE
  5
14
330
0
100
AcDbSymbolTable
 70
3
  0
LTYPE
  5
19
330
14
100
AcDbSymbolTableRecord
100
AcDbLinetypeTableRecord
  2
ByLayer
 70
0
 72
0
 73
0
 40
0.0
  0
LTYPE
  5
1A
330
14
100
AcDbSymbolTableRecord
100
AcDbLinetypeTableRecord
  2
ByBlock
 70
0
 72
0
 73
0
 40
0.0
  0
LTYPE
  5
1B
330
14
100
AcDbSymbolTableRecord
100
AcDbLinetypeTableRecord
  2
Continuous
 70
0
 72
0
 73
0
 40
0.0
  0
ENDTAB
  0
TABLE
  2
LAYER
  5
13
330
0
100
AcDbSymbolTable
 70
1
  0
LAYER
  5
1C
330
13
100
AcDbSymbolTableRecord
100
AcDbLayerTableRecord
  2
0
 70
0
 62
7
  6
Continuous
290
1
370
-3
390
0
  0
ENDTAB
  0
TABLE
  2
STYLE
  5
15
330
0
100
AcDbSymbolTable
 70
1
  0
STYLE
  5
23
330
15
100
AcDbSymbolTableRecord
100
AcDbTextStyleTableRecord
  2
Standard
 70
0
 40
0.0
 41
1.0
 42
0.0
 50
0.0
 71
0
  0
ENDTAB
  0
TABLE
  2
VIEW
  5
17
330
0
100
AcDbSymbolTable
 70
0
  0
ENDTAB
  0
TABLE
  2
UCS
  5
16
330
0
100
AcDbSymbolTable
 70
0
  0
ENDTAB
  0
TABLE
  2
APPID
  5
10
330
0
100
AcDbSymbolTable
 70
1
  0
APPID
  5
25
330
10
100
AcDbSymbolTableRecord
100
AcDbRegAppTableRecord
  2
ACAD
 70
0
  0
ENDTAB
  0
TABLE
  2
DIMSTYLE
  5
12
330
0
100
AcDbSymbolTable
 70
1
100
AcDbDimStyleTable
  0
DIMSTYLE
105
24
330
12
100
AcDbSymbolTableRecord
100
AcDbDimStyleTableRecord
  2
Standard
 70
0
  3
<>
  4
[]
 40
1.0
 41
0.18
 42
0.625
 43
3.75
 44
1.25
 45
0.0
 46
0.0
 47
0.0
 48
0.0
 49
1.0
 50
45.0
 70
0
 90
0
140
0.18
141
0.09
142
0.0
143
25.3999999999999986
144
1.0
145
0.0
146
1.0
147
0.625
148
0.0
 71
0
 72
0
 73
0
 74
0
 75
0
 76
0
 77
1
 78
8
 79
0
170
0
171
3
172
0
173
1
174
0
175
0
176
0
177
0
178
0
179
0
271
2
272
2
273
2
274
3
275
0
276
0
277
2
278
46
279
0
280
0
281
0
282
0
283
0
284
8
285
0
286
0
287
0
288
0
289
3
290
0
340
0
371
-2
372
-2
  0
ENDTAB
  0
TABLE
  2
BLOCK_RECORD
  5
11
330
0
100
AcDbSymbolTable
 70
2
  0
BLOCK_RECORD
  5
1D
330
11
100
AcDbSymbolTableRecord
100
AcDbBlockTableRecord
  2
*Model_Space
 70
0
340
0
 70
0
280
0
281
1
  0
BLOCK_RECORD
  5
20
330
11
100
AcDbSymbolTableRecord
100
AcDbBlockTableRecord
  2
*Paper_Space
 70
0
340
0
 70
0
280
0
281
1
  0
ENDTAB
  0
ENDSEC
  0
SECTION
  2
BLOCKS
  0
BLOCK
  5
1E
330
1D
100
AcDbEntity
  8
0
  6
ByLayer
 62
256
 48
1.0
 60
0
 67
0
370
-1
100
AcDbBlockBegin
  2
*Model_Space
 70
0
 10
0.0
 20
0.0
 30
0.0
  3
*Model_Space
  0
ENDBLK
  5
1F
330
1D
100
AcDbEntity
  8
0
100
AcDbBlockEnd
  0
BLOCK
  5
21
330
20
100
AcDbEntity
  8
0
  6
ByLayer
 62
256
 48
1.0
 60
0
 67
1
370
-1
100
AcDbBlockBegin
  2
*Paper_Space
 70
0
 10
0.0
 20
0.0
 30
0.0
  3
*Paper_Space
  0
ENDBLK
  5
22
330
20
100
AcDbEntity
  8
0
100
AcDbBlockEnd
  0
ENDSEC
  0
SECTION
  2
ENTITIES
  0
TEXT
  5
27
330
1D
100
AcDbEntity
  8
0
  6
ByLayer
420
1910582
 48
1.0
 60
0
 67
0
370
-1
100
AcDbText
 39
0.0
 10
0.0
 20
661.5
 30
0.0
 40
28.0
  1
Native Form Controls
 50
0.0
 41
1.0
 51
0.0
  7
Standard
 71
0
 72
0
 11
0.0
 21
0.0
 31
0.0
210
0.0
220
0.0
230
1.0
100
AcDbText
 73
0
  0
HATCH
  5
28
330
1D
100
AcDbEntity
  8
0
  6
ByLayer
420
16777215
 48
1.0
 60
0
 67
0
370
-1
100
AcDbHatch
 30
0.0
210
0.0
220
0.0
230
1.0
  2
SOLID
 70
1
 71
0
 91
1
 92
2
 72
0
 73
1
 93
41
 10
14.0
 20
632.0
 10
417.0
 20
632.0
 10
417.0
 20
632.0
 10
419.73126450822582
 20
631.7309939256451798
 10
422.3575680531112653
 20
630.9343134551579624
 10
424.7779832622744607
 20
629.6405745722356642
 10
426.8994949366116884
 20
627.8994949366116316
 10
428.6405745722356073
 20
625.7779832622744607
 10
429.9343134551580192
 20
623.3575680531112084
 10
430.7309939256452367
 20
620.7312645082257632
 10
431.0
 20
618.0
 10
431.0
 20
319.0
 10
431.0
 20
319.0
 10
430.7309939256452367
 20
316.26873549177418
 10
429.9343134551580192
 20
313.6424319468887347
 10
428.6405745722356073
 20
311.2220167377255962
 10
426.8994949366116884
 20
309.1005050633883116
 10
424.7779832622744607
 20
307.3594254277643927
 10
422.3575680531112653
 20
306.0656865448419808
 10
419.73126450822582
 20
305.2690060743547633
 10
417.0
 20
305.0
 10
14.0
 20
305.0
 10
14.0
 20
305.0
 10
11.2687354917742049
 20
305.2690060743547633
 10
8.6424319468887436
 20
306.0656865448419808
 10
6.2220167377255731
 20
307.3594254277643358
 10
4.1005050633883364
 20
309.1005050633883116
 10
2.3594254277643643
 20
311.2220167377255962
 10
1.0656865448419861
 20
313.6424319468887347
 10
0.269006074354774
 20
316.26873549177418
 10
0.0
 20
319.0
 10
0.0
 20
618.0
 10
0.0
 20
618.0
 10
0.269006074354774
 20
620.7312645082257632
 10
1.0656865448419843
 20
623.3575680531112084
 10
2.3594254277643643
 20
625.7779832622744607
 10
4.1005050633883329
 20
627.8994949366116316
 10
6.2220167377255695
 20
629.6405745722356642
 10
8.6424319468887347
 20
630.9343134551579624
 10
11.2687354917741978
 20
631.7309939256451798
 10
13.9999999999999982
 20
632.0
 97
0
 75
0
 76
1
 47
0.0
 98
0
  0
LWPOLYLINE
  5
29
330
1D
100
AcDbEntity
  8
0
  6
ByLayer
420
14147306
 48
1.0
 60
0
 67
0
370
-1
100
AcDbPolyline
 90
41
 70
1
 43
0.0
 38
0.0
 39
0.0
210
0.0
220
0.0
230
1.0
 10
14.0
 20
632.0
 40
0.0
 41
0.0
 42
0.0
 10
417.0
 20
632.0
 40
0.0
 41
0.0
 42
0.0
 10
417.0
 20
632.0
 40
0.0
 41
0.0
 42
0.0
 10
419.73126450822582
 20
631.7309939256451798
 40
0.0
 41
0.0
 42
0.0
 10
422.3575680531112653
 20
630.9343134551579624
 40
0.0
 41
0.0
 42
0.0
 10
424.7779832622744607
 20
629.6405745722356642
 40
0.0
 41
0.0
 42
0.0
 10
426.8994949366116884
 20
627.8994949366116316
 40
0.0
 41
0.0
 42
0.0
 10
428.6405745722356073
 20
625.7779832622744607
 40
0.0
 41
0.0
 42
0.0
 10
429.9343134551580192
 20
623.3575680531112084
 40
0.0
 41
0.0
 42
0.0
 10
430.7309939256452367
 20
620.7312645082257632
 40
0.0
 41
0.0
 42
0.0
 10
431.0
 20
618.0
 40
0.0
 41
0.0
 42
0.0
 10
431.0
 20
319.0
 40
0.0
 41
0.0
 42
0.0
 10
431.0
 20
319.0
 40
0.0
 41
0.0
 42
0.0
 10
430.7309939256452367
 20
316.26873549177418
 40
0.0
 41
0.0
 42
0.0
 10
429.9343134551580192
 20
313.6424319468887347
 40
0.0
 41
0.0
 42
0.0
 10
428.6405745722356073
 20
311.2220167377255962
 40
0.0
 41
0.0
 42
0.0
 10
426.8994949366116884
 20
309.1005050633883116
 40
0.0
 41
0.0
 42
0.0
 10
424.7779832622744607
 20
307.3594254277643927
 40
0.0
 41
0.0
 42
0.0
 10
422.3575680531112653
 20
306.0656865448419808
 40
0.0
 41
0.0
 42
0.0
 10
419.73126450822582
 20
305.2690060743547633
 40
0.0
 41
0.0
 42
0.0
 10
417.0
 20
305.0
 40
0.0
 41
0.0
 42
0.0
 10
14.0
 20
305.0
 40
0.0
 41
0.0
 42
0.0
 10
14.0
 20
305.0
 40
0.0
 41
0.0
 42
0.0
 10
11.2687354917742049
 20
305.2690060743547633
 40
0.0
 41
0.0
 42
0.0
 10
8.6424319468887436
 20
306.0656865448419808
 40
0.0
 41
0.0
 42
0.0
 10
6.2220167377255731
 20
307.3594254277643358
 40
0.0
 41
0.0
 42
0.0
 10
4.1005050633883364
 20
309.1005050633883116
 40
0.0
 41
0.0
 42
0.0
 10
2.3594254277643643
 20
311.2220167377255962
 40
0.0
 41
0.0
 42
0.0
 10
1.0656865448419861
 20
313.6424319468887347
 40
0.0
 41
0.0
 42
0.0
 10
0.269006074354774
 20
316.26873549177418
 40
0.0
 41
0.0
 42
0.0
 10
0.0
 20
319.0
 40
0.0
 41
0.0
 42
0.0
 10
0.0
 20
618.0
 40
0.0
 41
0.0
 42
0.0
 10
0.0
 20
618.0
 40
0.0
 41
0.0
 42
0.0
 10
0.269006074354774
 20
620.7312645082257632
 40
0.0
 41
0.0
 42
0.0
 10
1.0656865448419843
 20
623.3575680531112084
 40
0.0
 41
0.0
 42
0.0
 10
2.3594254277643643
 20
625.7779832622744607
 40
0.0
 41
0.0
 42
0.0
 10
4.1005050633883329
 20
627.8994949366116316
 40
0.0
 41
0.0
 42
0.0
 10
6.2220167377255695
 20
629.6405745722356642
 40
0.0
 41
0.0
 42
0.0
 10
8.6424319468887347
 20
630.9343134551579624
 40
0.0
 41
0.0
 42
0.0
 10
11.2687354917741978
 20
631.7309939256451798
 40
0.0
 41
0.0
 42
0.0
 10
13.9999999999999982
 20
632.0
 40
0.0
 41
0.0
 42
0.0
  0
TEXT
  5
2A
330
1D
100
AcDbEntity
  8
0
  6
ByLayer
420
1910582
 48
1.0
 60
0
 67
0
370
-1
100
AcDbText
 39
0.0
 10
19.0
 20
600.5
 30
0.0
 40
16.0
  1
Value Fields
 50
0.0
 41
1.0
 51
0.0
  7
Standard
 71
0
 72
0
 11
0.0
 21
0.0
 31
0.0
210
0.0
220
0.0
230
1.0
100
AcDbText
 73
0
  0
TEXT
  5
2B
330
1D
100
AcDbEntity
  8
0
  6
ByLayer
420
4938352
 48
1.0
 60
0
 67
0
370
-1
100
AcDbText
 39
0.0
 10
19.0
 20
571.0
 30
0.0
 40
12.0
  1
TEXT INPUT
 50
0.0
 41
1.0
 51
0.0
  7
Standard
 71
0
 72
0
 11
0.0
 21
0.0
 31
0.0
210
0.0
220
0.0
230
1.0
100
AcDbText
 73
0
  0
HATCH
  5
2C
330
1D
100
AcDbEntity
  8
0
  6
ByLayer
420
16777215
 48
1.0
 60
0
 67
0
370
-1
100
AcDbHatch
 30
0.0
210
0.0
220
0.0
230
1.0
  2
SOLID
 70
1
 71
0
 91
1
 92
2
 72
0
 73
1
 93
41
 10
27.0
 20
561.0
 10
404.0
 20
561.0
 10
404.0
 20
561.0
 10
405.5607225761290238
 20
560.8462822432258008
 10
407.0614674589207311
 20
560.3910362600902317
 10
408.4445618641568103
 20
559.6517568984203308
 10
409.656854249492369
 20
558.6568542494924259
 10
410.6517568984203876
 20
557.4445618641568672
 10
411.3910362600902886
 20
556.0614674589206743
 10
411.8462822432258577
 20
554.5607225761290238
 10
412.0
 20
553.0
 10
412.0
 20
529.0
 10
412.0
 20
529.0
 10
411.8462822432258577
 20
527.4392774238709762
 10
411.3910362600902886
 20
525.938532541079212
 10
410.6517568984203876
 20
524.5554381358431328
 10
409.656854249492369
 20
523.3431457505075741
 10
408.4445618641568103
 20
522.3482431015796692
 10
407.0614674589207311
 20
521.6089637399097683
 10
405.5607225761290238
 20
521.1537177567740855
 10
404.0
 20
521.0
 10
27.0
 20
521.0
 10
27.0
 20
521.0
 10
25.4392774238709762
 20
521.1537177567740855
 10
23.9385325410792831
 20
521.6089637399097683
 10
22.5554381358431826
 20
522.3482431015796692
 10
21.3431457505076203
 20
523.3431457505075741
 10
20.3482431015796372
 20
524.5554381358431328
 10
19.6089637399097043
 20
525.938532541079212
 10
19.1537177567741566
 20
527.4392774238709762
 10
19.0
 20
529.0
 10
19.0
 20
553.0
 10
19.0
 20
553.0
 10
19.1537177567741566
 20
554.5607225761290238
 10
19.6089637399097043
 20
556.0614674589206743
 10
20.3482431015796372
 20
557.4445618641568672
 10
21.3431457505076168
 20
558.6568542494924259
 10
22.5554381358431826
 20
559.6517568984203308
 10
23.938532541079276
 20
560.3910362600902317
 10
25.4392774238709691
 20
560.8462822432258008
 10
27.0
 20
561.0
 97
0
 75
0
 76
1
 47
0.0
 98
0
  0
LWPOLYLINE
  5
2D
330
1D
100
AcDbEntity
  8
0
  6
ByLayer
420
9741240
 48
1.0
 60
0
 67
0
370
-1
100
AcDbPolyline
 90
41
 70
1
 43
0.0
 38
0.0
 39
0.0
210
0.0
220
0.0
230
1.0
 10
27.0
 20
561.0
 40
0.0
 41
0.0
 42
0.0
 10
404.0
 20
561.0
 40
0.0
 41
0.0
 42
0.0
 10
404.0
 20
561.0
 40
0.0
 41
0.0
 42
0.0
 10
405.5607225761290238
 20
560.8462822432258008
 40
0.0
 41
0.0
 42
0.0
 10
407.0614674589207311
 20
560.3910362600902317
 40
0.0
 41
0.0
 42
0.0
 10
408.4445618641568103
 20
559.6517568984203308
 40
0.0
 41
0.0
 42
0.0
 10
409.656854249492369
 20
558.6568542494924259
 40
0.0
 41
0.0
 42
0.0
 10
410.6517568984203876
 20
557.4445618641568672
 40
0.0
 41
0.0
 42
0.0
 10
411.3910362600902886
 20
556.0614674589206743
 40
0.0
 41
0.0
 42
0.0
 10
411.8462822432258577
 20
554.5607225761290238
 40
0.0
 41
0.0
 42
0.0
 10
412.0
 20
553.0
 40
0.0
 41
0.0
 42
0.0
 10
412.0
 20
529.0
 40
0.0
 41
0.0
 42
0.0
 10
412.0
 20
529.0
 40
0.0
 41
0.0
 42
0.0
 10
411.8462822432258577
 20
527.4392774238709762
 40
0.0
 41
0.0
 42
0.0
 10
411.3910362600902886
 20
525.938532541079212
 40
0.0
 41
0.0
 42
0.0
 10
410.6517568984203876
 20
524.5554381358431328
 40
0.0
 41
0.0
 42
0.0
 10
409.656854249492369
 20
523.3431457505075741
 40
0.0
 41
0.0
 42
0.0
 10
408.4445618641568103
 20
522.3482431015796692
 40
0.0
 41
0.0
 42
0.0
 10
407.0614674589207311
 20
521.6089637399097683
 40
0.0
 41
0.0
 42
0.0
 10
405.5607225761290238
 20
521.1537177567740855
 40
0.0
 41
0.0
 42
0.0
 10
404.0
 20
521.0
 40
0.0
 41
0.0
 42
0.0
 10
27.0
 20
521.0
 40
0.0
 41
0.0
 42
0.0
 10
27.0
 20
521.0
 40
0.0
 41
0.0
 42
0.0
 10
25.4392774238709762
 20
521.1537177567740855
 40
0.0
 41
0.0
 42
0.0
 10
23.9385325410792831
 20
521.6089637399097683
 40
0.0
 41
0.0
 42
0.0
 10
22.5554381358431826
 20
522.3482431015796692
 40
0.0
 41
0.0
 42
0.0
 10
21.3431457505076203
 20
523.3431457505075741
 40
0.0
 41
0.0
 42
0.0
 10
20.3482431015796372
 20
524.5554381358431328
 40
0.0
 41
0.0
 42
0.0
 10
19.6089637399097043
 20
525.938532541079212
 40
0.0
 41
0.0
 42
0.0
 10
19.1537177567741566
 20
527.4392774238709762
 40
0.0
 41
0.0
 42
0.0
 10
19.0
 20
529.0
 40
0.0
 41
0.0
 42
0.0
 10
19.0
 20
553.0
 40
0.0
 41
0.0
 42
0.0
 10
19.0
 20
553.0
 40
0.0
 41
0.0
 42
0.0
 10
19.1537177567741566
 20
554.5607225761290238
 40
0.0
 41
0.0
 42
0.0
 10
19.6089637399097043
 20
556.0614674589206743
 40
0.0
 41
0.0
 42
0.0
 10
20.3482431015796372
 20
557.4445618641568672
 40
0.0
 41
0.0
 42
0.0
 10
21.3431457505076168
 20
558.6568542494924259
 40
0.0
 41
0.0
 42
0.0
 10
22.5554381358431826
 20
559.6517568984203308
 40
0.0
 41
0.0
 42
0.0
 10
23.938532541079276
 20
560.3910362600902317
 40
0.0
 41
0.0
 42
0.0
 10
25.4392774238709691
 20
560.8462822432258008
 40
0.0
 41
0.0
 42
0.0
 10
27.0
 20
561.0
 40
0.0
 41
0.0
 42
0.0
  0
TEXT
  5
2E
330
1D
100
AcDbEntity
  8
0
  6
ByLayer
420
1120295
 48
1.0
 60
0
 67
0
370
-1
100
AcDbText
 39
0.0
 10
31.0
 20
537.0
 30
0.0
 40
16.0
  1
Alice Johnson
 50
0.0
 41
1.0
 51
0.0
  7
Standard
 71
0
 72
0
 11
0.0
 21
0.0
 31
0.0
210
0.0
220
0.0
230
1.0
100
AcDbText
 73
0
  0
TEXT
  5
2F
330
1D
100
AcDbEntity
  8
0
  6
ByLayer
420
4938352
 48
1.0
 60
0
 67
0
370
-1
100
AcDbText
 39
0.0
 10
19.0
 20
497.0
 30
0.0
 40
12.0
  1
TEXTAREA
 50
0.0
 41
1.0
 51
0.0
  7
Standard
 71
0
 72
0
 11
0.0
 21
0.0
 31
0.0
210
0.0
220
0.0
230
1.0
100
AcDbText
 73
0
  0
HATCH
  5
30
330
1D
100
AcDbEntity
  8
0
  6
ByLayer
420
16777215
 48
1.0
 60
0
 67
0
370
-1
100
AcDbHatch
 30
0.0
210
0.0
220
0.0
230
1.0
  2
SOLID
 70
1
 71
0
 91
1
 92
2
 72
0
 73
1
 93
41
 10
27.0
 20
487.0
 10
404.0
 20
487.0
 10
404.0
 20
487.0
 10
405.5607225761290238
 20
486.8462822432258577
 10
407.0614674589207311
 20
486.3910362600902886
 10
408.4445618641568103
 20
485.6517568984203308
 10
409.656854249492369
 20
484.656854249492369
 10
410.6517568984203876
 20
483.4445618641568103
 10
411.3910362600902886
 20
482.0614674589207311
 10
411.8462822432258577
 20
480.5607225761290238
 10
412.0
 20
479.0
 10
412.0
 20
407.0
 10
412.0
 20
407.0
 10
411.8462822432258577
 20
405.4392774238709762
 10
411.3910362600902886
 20
403.9385325410792689
 10
410.6517568984203876
 20
402.5554381358431897
 10
409.656854249492369
 20
401.343145750507631
 10
408.4445618641568103
 20
400.3482431015796124
 10
407.0614674589207311
 20
399.6089637399097114
 10
405.5607225761290238
 20
399.1537177567741423
 10
404.0
 20
399.0
 10
27.0
 20
399.0
 10
27.0
 20
399.0
 10
25.4392774238709762
 20
399.1537177567741423
 10
23.9385325410792831
 20
399.6089637399097114
 10
22.5554381358431826
 20
400.3482431015796124
 10
21.3431457505076203
 20
401.343145750507631
 10
20.3482431015796372
 20
402.5554381358431897
 10
19.6089637399097043
 20
403.9385325410792689
 10
19.1537177567741566
 20
405.4392774238709762
 10
19.0
 20
407.0
 10
19.0
 20
479.0
 10
19.0
 20
479.0
 10
19.1537177567741566
 20
480.5607225761290238
 10
19.6089637399097043
 20
482.0614674589207311
 10
20.3482431015796372
 20
483.4445618641568103
 10
21.3431457505076168
 20
484.656854249492369
 10
22.5554381358431826
 20
485.6517568984203308
 10
23.938532541079276
 20
486.3910362600902886
 10
25.4392774238709691
 20
486.8462822432258008
 10
27.0
 20
487.0
 97
0
 75
0
 76
1
 47
0.0
 98
0
  0
LWPOLYLINE
  5
31
330
1D
100
AcDbEntity
  8
0
  6
ByLayer
420
9741240
 48
1.0
 60
0
 67
0
370
-1
100
AcDbPolyline
 90
41
 70
1
 43
0.0
 38
0.0
 39
0.0
210
0.0
220
0.0
230
1.0
 10
27.0
 20
487.0
 40
0.0
 41
0.0
 42
0.0
 10
404.0
 20
487.0
 40
0.0
 41
0.0
 42
0.0
 10
404.0
 20
487.0
 40
0.0
 41
0.0
 42
0.0
 10
405.5607225761290238
 20
486.8462822432258577
 40
0.0
 41
0.0
 42
0.0
 10
407.0614674589207311
 20
486.3910362600902886
 40
0.0
 41
0.0
 42
0.0
 10
408.4445618641568103
 20
485.6517568984203308
 40
0.0
 41
0.0
 42
0.0
 10
409.656854249492369
 20
484.656854249492369
 40
0.0
 41
0.0
 42
0.0
 10
410.6517568984203876
 20
483.4445618641568103
 40
0.0
 41
0.0
 42
0.0
 10
411.3910362600902886
 20
482.0614674589207311
 40
0.0
 41
0.0
 42
0.0
 10
411.8462822432258577
 20
480.5607225761290238
 40
0.0
 41
0.0
 42
0.0
 10
412.0
 20
479.0
 40
0.0
 41
0.0
 42
0.0
 10
412.0
 20
407.0
 40
0.0
 41
0.0
 42
0.0
 10
412.0
 20
407.0
 40
0.0
 41
0.0
 42
0.0
 10
411.8462822432258577
 20
405.4392774238709762
 40
0.0
 41
0.0
 42
0.0
 10
411.3910362600902886
 20
403.9385325410792689
 40
0.0
 41
0.0
 42
0.0
 10
410.6517568984203876
 20
402.5554381358431897
 40
0.0
 41
0.0
 42
0.0
 10
409.656854249492369
 20
401.343145750507631
 40
0.0
 41
0.0
 42
0.0
 10
408.4445618641568103
 20
400.3482431015796124
 40
0.0
 41
0.0
 42
0.0
 10
407.0614674589207311
 20
399.6089637399097114
 40
0.0
 41
0.0
 42
0.0
 10
405.5607225761290238
 20
399.1537177567741423
 40
0.0
 41
0.0
 42
0.0
 10
404.0
 20
399.0
 40
0.0
 41
0.0
 42
0.0
 10
27.0
 20
399.0
 40
0.0
 41
0.0
 42
0.0
 10
27.0
 20
399.0
 40
0.0
 41
0.0
 42
0.0
 10
25.4392774238709762
 20
399.1537177567741423
 40
0.0
 41
0.0
 42
0.0
 10
23.9385325410792831
 20
399.6089637399097114
 40
0.0
 41
0.0
 42
0.0
 10
22.5554381358431826
 20
400.3482431015796124
 40
0.0
 41
0.0
 42
0.0
 10
21.3431457505076203
 20
401.343145750507631
 40
0.0
 41
0.0
 42
0.0
 10
20.3482431015796372
 20
402.5554381358431897
 40
0.0
 41
0.0
 42
0.0
 10
19.6089637399097043
 20
403.9385325410792689
 40
0.0
 41
0.0
 42
0.0
 10
19.1537177567741566
 20
405.4392774238709762
 40
0.0
 41
0.0
 42
0.0
 10
19.0
 20
407.0
 40
0.0
 41
0.0
 42
0.0
 10
19.0
 20
479.0
 40
0.0
 41
0.0
 42
0.0
 10
19.0
 20
479.0
 40
0.0
 41
0.0
 42
0.0
 10
19.1537177567741566
 20
480.5607225761290238
 40
0.0
 41
0.0
 42
0.0
 10
19.6089637399097043
 20
482.0614674589207311
 40
0.0
 41
0.0
 42
0.0
 10
20.3482431015796372
 20
483.4445618641568103
 40
0.0
 41
0.0
 42
0.0
 10
21.3431457505076168
 20
484.656854249492369
 40
0.0
 41
0.0
 42
0.0
 10
22.5554381358431826
 20
485.6517568984203308
 40
0.0
 41
0.0
 42
0.0
 10
23.938532541079276
 20
486.3910362600902886
 40
0.0
 41
0.0
 42
0.0
 10
25.4392774238709691
 20
486.8462822432258008
 40
0.0
 41
0.0
 42
0.0
 10
27.0
 20
487.0
 40
0.0
 41
0.0
 42
0.0
  0
TEXT
  5
32
330
1D
100
AcDbEntity
  8
0
  6
ByLayer
420
1120295
 48
1.0
 60
0
 67
0
370
-1
100
AcDbText
 39
0.0
 10
31.0
 20
463.3999999999999773
 30
0.0
 40
16.0
  1
First line
 50
0.0
 41
1.0
 51
0.0
  7
Standard
 71
0
 72
0
 11
0.0
 21
0.0
 31
0.0
210
0.0
220
0.0
230
1.0
100
AcDbText
 73
0
  0
TEXT
  5
33
330
1D
100
AcDbEntity
  8
0
  6
ByLayer
420
1120295
 48
1.0
 60
0
 67
0
370
-1
100
AcDbText
 39
0.0
 10
31.0
 20
444.2000000000000455
 30
0.0
 40
16.0
  1
Second line
 50
0.0
 41
1.0
 51
0.0
  7
Standard
 71
0
 72
0
 11
0.0
 21
0.0
 31
0.0
210
0.0
220
0.0
230
1.0
100
AcDbText
 73
0
  0
TEXT
  5
34
330
1D
100
AcDbEntity
  8
0
  6
ByLayer
420
1120295
 48
1.0
 60
0
 67
0
370
-1
100
AcDbText
 39
0.0
 10
31.0
 20
425.0
 30
0.0
 40
16.0
  1
Third line
 50
0.0
 41
1.0
 51
0.0
  7
Standard
 71
0
 72
0
 11
0.0
 21
0.0
 31
0.0
210
0.0
220
0.0
230
1.0
100
AcDbText
 73
0
  0
TEXT
  5
35
330
1D
100
AcDbEntity
  8
0
  6
ByLayer
420
4938352
 48
1.0
 60
0
 67
0
370
-1
100
AcDbText
 39
0.0
 10
19.0
 20
375.0
 30
0.0
 40
12.0
  1
SELECT
 50
0.0
 41
1.0
 51
0.0
  7
Standard
 71
0
 72
0
 11
0.0
 21
0.0
 31
0.0
210
0.0
220
0.0
230
1.0
100
AcDbText
 73
0
  0
HATCH
  5
36
330
1D
100
AcDbEntity
  8
0
  6
ByLayer
420
16777215
 48
1.0
 60
0
 67
0
370
-1
100
AcDbHatch
 30
0.0
210
0.0
220
0.0
230
1.0
  2
SOLID
 70
1
 71
0
 91
1
 92
2
 72
0
 73
1
 93
41
 10
27.0
 20
365.0
 10
404.0
 20
365.0
 10
404.0
 20
365.0
 10
405.5607225761290238
 20
364.8462822432258577
 10
407.0614674589207311
 20
364.3910362600902886
 10
408.4445618641568103
 20
363.6517568984203876
 10
409.656854249492369
 20
362.656854249492369
 10
410.6517568984203876
 20
361.4445618641568103
 10
411.3910362600902886
 20
360.0614674589207311
 10
411.8462822432258577
 20
358.5607225761290238
 10
412.0
 20
357.0
 10
412.0
 20
332.0
 10
412.0
 20
332.0
 10
411.8462822432258577
 20
330.4392774238709762
 10
411.3910362600902886
 20
328.9385325410792689
 10
410.6517568984203876
 20
327.5554381358431897
 10
409.656854249492369
 20
326.343145750507631
 10
408.4445618641568103
 20
325.3482431015796124
 10
407.0614674589207311
 20
324.6089637399097114
 10
405.5607225761290238
 20
324.1537177567741423
 10
404.0
 20
324.0
 10
27.0
 20
324.0
 10
27.0
 20
324.0
 10
25.4392774238709762
 20
324.1537177567741423
 10
23.9385325410792831
 20
324.6089637399097114
 10
22.5554381358431826
 20
325.3482431015796124
 10
21.3431457505076203
 20
326.343145750507631
 10
20.3482431015796372
 20
327.5554381358431897
 10
19.6089637399097043
 20
328.9385325410792689
 10
19.1537177567741566
 20
330.4392774238709762
 10
19.0
 20
332.0
 10
19.0
 20
357.0
 10
19.0
 20
357.0
 10
19.1537177567741566
 20
358.5607225761290238
 10
19.6089637399097043
 20
360.0614674589207311
 10
20.3482431015796372
 20
361.4445618641568103
 10
21.3431457505076168
 20
362.656854249492369
 10
22.5554381358431826
 20
363.6517568984203876
 10
23.938532541079276
 20
364.3910362600902886
 10
25.4392774238709691
 20
364.8462822432258577
 10
27.0
 20
365.0
 97
0
 75
0
 76
1
 47
0.0
 98
0
  0
LWPOLYLINE
  5
37
330
1D
100
AcDbEntity
  8
0
  6
ByLayer
420
9741240
 48
1.0
 60
0
 67
0
370
-1
100
AcDbPolyline
 90
41
 70
1
 43
0.0
 38
0.0
 39
0.0
210
0.0
220
0.0
230
1.0
 10
27.0
 20
365.0
 40
0.0
 41
0.0
 42
0.0
 10
404.0
 20
365.0
 40
0.0
 41
0.0
 42
0.0
 10
404.0
 20
365.0
 40
0.0
 41
0.0
 42
0.0
 10
405.5607225761290238
 20
364.8462822432258577
 40
0.0
 41
0.0
 42
0.0
 10
407.0614674589207311
 20
364.3910362600902886
 40
0.0
 41
0.0
 42
0.0
 10
408.4445618641568103
 20
363.6517568984203876
 40
0.0
 41
0.0
 42
0.0
 10
409.656854249492369
 20
362.656854249492369
 40
0.0
 41
0.0
 42
0.0
 10
410.6517568984203876
 20
361.4445618641568103
 40
0.0
 41
0.0
 42
0.0
 10
411.3910362600902886
 20
360.0614674589207311
 40
0.0
 41
0.0
 42
0.0
 10
411.8462822432258577
 20
358.5607225761290238
 40
0.0
 41
0.0
 42
0.0
 10
412.0
 20
357.0
 40
0.0
 41
0.0
 42
0.0
 10
412.0
 20
332.0
 40
0.0
 41
0.0
 42
0.0
 10
412.0
 20
332.0
 40
0.0
 41
0.0
 42
0.0
 10
411.8462822432258577
 20
330.4392774238709762
 40
0.0
 41
0.0
 42
0.0
 10
411.3910362600902886
 20
328.9385325410792689
 40
0.0
 41
0.0
 42
0.0
 10
410.6517568984203876
 20
327.5554381358431897
 40
0.0
 41
0.0
 42
0.0
 10
409.656854249492369
 20
326.343145750507631
 40
0.0
 41
0.0
 42
0.0
 10
408.4445618641568103
 20
325.3482431015796124
 40
0.0
 41
0.0
 42
0.0
 10
407.0614674589207311
 20
324.6089637399097114
 40
0.0
 41
0.0
 42
0.0
 10
405.5607225761290238
 20
324.1537177567741423
 40
0.0
 41
0.0
 42
0.0
 10
404.0
 20
324.0
 40
0.0
 41
0.0
 42
0.0
 10
27.0
 20
324.0
 40
0.0
 41
0.0
 42
0.0
 10
27.0
 20
324.0
 40
0.0
 41
0.0
 42
0.0
 10
25.4392774238709762
 20
324.1537177567741423
 40
0.0
 41
0.0
 42
0.0
 10
23.9385325410792831
 20
324.6089637399097114
 40
0.0
 41
0.0
 42
0.0
 10
22.5554381358431826
 20
325.3482431015796124
 40
0.0
 41
0.0
 42
0.0
 10
21.3431457505076203
 20
326.343145750507631
 40
0.0
 41
0.0
 42
0.0
 10
20.3482431015796372
 20
327.5554381358431897
 40
0.0
 41
0.0
 42
0.0
 10
19.6089637399097043
 20
328.9385325410792689
 40
0.0
 41
0.0
 42
0.0
 10
19.1537177567741566
 20
330.4392774238709762
 40
0.0
 41
0.0
 42
0.0
 10
19.0
 20
332.0
 40
0.0
 41
0.0
 42
0.0
 10
19.0
 20
357.0
 40
0.0
 41
0.0
 42
0.0
 10
19.0
 20
357.0
 40
0.0
 41
0.0
 42
0.0
 10
19.1537177567741566
 20
358.5607225761290238
 40
0.0
 41
0.0
 42
0.0
 10
19.6089637399097043
 20
360.0614674589207311
 40
0.0
 41
0.0
 42
0.0
 10
20.3482431015796372
 20
361.4445618641568103
 40
0.0
 41
0.0
 42
0.0
 10
21.3431457505076168
 20
362.656854249492369
 40
0.0
 41
0.0
 42
0.0
 10
22.5554381358431826
 20
363.6517568984203876
 40
0.0
 41
0.0
 42
0.0
 10
23.938532541079276
 20
364.3910362600902886
 40
0.0
 41
0.0
 42
0.0
 10
25.4392774238709691
 20
364.8462822432258577
 40
0.0
 41
0.0
 42
0.0
 10
27.0
 20
365.0
 40
0.0
 41
0.0
 42
0.0
  0
TEXT
  5
38
330
1D
100
AcDbEntity
  8
0
  6
ByLayer
420
1120295
 48
1.0
 60
0
 67
0
370
-1
100
AcDbText
 39
0.0
 10
31.0
 20
340.5
 30
0.0
 40
16.0
  1
Normal
 50
0.0
 41
1.0
 51
0.0
  7
Standard
 71
0
 72
0
 11
0.0
 21
0.0
 31
0.0
210
0.0
220
0.0
230
1.0
100
AcDbText
 73
0
  0
LWPOLYLINE
  5
39
330
1D
100
AcDbEntity
  8
0
  6
ByLayer
420
5263440
 48
1.0
 60
0
 67
0
370
-1
100
AcDbPolyline
 90
3
 70
0
 43
0.0
 38
0.0
 39
0.0
210
0.0
220
0.0
230
1.0
 10
399.0
 20
346.2599999999999909
 40
0.0
 41
0.0
 42
0.0
 10
403.0
 20
342.7400000000000091
 40
0.0
 41
0.0
 42
0.0
 10
407.0
 20
346.2599999999999909
 40
0.0
 41
0.0
 42
0.0
  0
HATCH
  5
3A
330
1D
100
AcDbEntity
  8
0
  6
ByLayer
420
16777215
 48
1.0
 60
0
 67
0
370
-1
100
AcDbHatch
 30
0.0
210
0.0
220
0.0
230
1.0
  2
SOLID
 70
1
 71
0
 91
1
 92
2
 72
0
 73
1
 93
41
 10
463.0
 20
632.0
 10
866.0
 20
632.0
 10
866.0
 20
632.0
 10
868.7312645082257632
 20
631.7309939256451798
 10
871.3575680531112084
 20
630.9343134551579624
 10
873.7779832622744607
 20
629.6405745722356642
 10
875.8994949366116316
 20
627.8994949366116316
 10
877.6405745722356642
 20
625.7779832622744607
 10
878.9343134551579624
 20
623.3575680531112084
 10
879.7309939256451798
 20
620.7312645082257632
 10
880.0
 20
618.0
 10
880.0
 20
319.0
 10
880.0
 20
319.0
 10
879.7309939256451798
 20
316.26873549177418
 10
878.9343134551579624
 20
313.6424319468887347
 10
877.6405745722356642
 20
311.2220167377255962
 10
875.8994949366116316
 20
309.1005050633883116
 10
873.7779832622744607
 20
307.3594254277643927
 10
871.3575680531112084
 20
306.0656865448419808
 10
868.7312645082257632
 20
305.2690060743547633
 10
866.0
 20
305.0
 10
463.0
 20
305.0
 10
463.0
 20
305.0
 10
460.26873549177418
 20
305.2690060743547633
 10
457.6424319468887347
 20
306.0656865448419808
 10
455.2220167377255962
 20
307.3594254277643358
 10
453.1005050633883116
 20
309.1005050633883116
 10
451.3594254277643358
 20
311.2220167377255962
 10
450.0656865448419808
 20
313.6424319468887347
 10
449.2690060743547633
 20
316.26873549177418
 10
449.0
 20
319.0
 10
449.0
 20
618.0
 10
449.0
 20
618.0
 10
449.2690060743547633
 20
620.7312645082257632
 10
450.0656865448419808
 20
623.3575680531112084
 10
451.3594254277643358
 20
625.7779832622744607
 10
453.1005050633883116
 20
627.8994949366116316
 10
455.2220167377255962
 20
629.6405745722356642
 10
457.6424319468887347
 20
630.9343134551579624
 10
460.26873549177418
 20
631.7309939256451798
 10
463.0
 20
632.0
 97
0
 75
0
 76
1
 47
0.0
 98
0
  0
LWPOLYLINE
  5
3B
330
1D
100
AcDbEntity
  8
0
  6
ByLayer
420
14147306
 48
1.0
 60
0
 67
0
370
-1
100
AcDbPolyline
 90
41
 70
1
 43
0.0
 38
0.0
 39
0.0
210
0.0
220
0.0
230
1.0
 10
463.0
 20
632.0
 40
0.0
 41
0.0
 42
0.0
 10
866.0
 20
632.0
 40
0.0
 41
0.0
 42
0.0
 10
866.0
 20
632.0
 40
0.0
 41
0.0
 42
0.0
 10
868.7312645082257632
 20
631.7309939256451798
 40
0.0
 41
0.0
 42
0.0
 10
871.3575680531112084
 20
630.9343134551579624
 40
0.0
 41
0.0
 42
0.0
 10
873.7779832622744607
 20
629.6405745722356642
 40
0.0
 41
0.0
 42
0.0
 10
875.8994949366116316
 20
627.8994949366116316
 40
0.0
 41
0.0
 42
0.0
 10
877.6405745722356642
 20
625.7779832622744607
 40
0.0
 41
0.0
 42
0.0
 10
878.9343134551579624
 20
623.3575680531112084
 40
0.0
 41
0.0
 42
0.0
 10
879.7309939256451798
 20
620.7312645082257632
 40
0.0
 41
0.0
 42
0.0
 10
880.0
 20
618.0
 40
0.0
 41
0.0
 42
0.0
 10
880.0
 20
319.0
 40
0.0
 41
0.0
 42
0.0
 10
880.0
 20
319.0
 40
0.0
 41
0.0
 42
0.0
 10
879.7309939256451798
 20
316.26873549177418
 40
0.0
 41
0.0
 42
0.0
 10
878.9343134551579624
 20
313.6424319468887347
 40
0.0
 41
0.0
 42
0.0
 10
877.6405745722356642
 20
311.2220167377255962
 40
0.0
 41
0.0
 42
0.0
 10
875.8994949366116316
 20
309.1005050633883116
 40
0.0
 41
0.0
 42
0.0
 10
873.7779832622744607
 20
307.3594254277643927
 40
0.0
 41
0.0
 42
0.0
 10
871.3575680531112084
 20
306.0656865448419808
 40
0.0
 41
0.0
 42
0.0
 10
868.7312645082257632
 20
305.2690060743547633
 40
0.0
 41
0.0
 42
0.0
 10
866.0
 20
305.0
 40
0.0
 41
0.0
 42
0.0
 10
463.0
 20
305.0
 40
0.0
 41
0.0
 42
0.0
 10
463.0
 20
305.0
 40
0.0
 41
0.0
 42
0.0
 10
460.26873549177418
 20
305.2690060743547633
 40
0.0
 41
0.0
 42
0.0
 10
457.6424319468887347
 20
306.0656865448419808
 40
0.0
 41
0.0
 42
0.0
 10
455.2220167377255962
 20
307.3594254277643358
 40
0.0
 41
0.0
 42
0.0
 10
453.1005050633883116
 20
309.1005050633883116
 40
0.0
 41
0.0
 42
0.0
 10
451.3594254277643358
 20
311.2220167377255962
 40
0.0
 41
0.0
 42
0.0
 10
450.0656865448419808
 20
313.6424319468887347
 40
0.0
 41
0.0
 42
0.0
 10
449.2690060743547633
 20
316.26873549177418
 40
0.0
 41
0.0
 42
0.0
 10
449.0
 20
319.0
 40
0.0
 41
0.0
 42
0.0
 10
449.0
 20
618.0
 40
0.0
 41
0.0
 42
0.0
 10
449.0
 20
618.0
 40
0.0
 41
0.0
 42
0.0
 10
449.2690060743547633
 20
620.7312645082257632
 40
0.0
 41
0.0
 42
0.0
 10
450.0656865448419808
 20
623.3575680531112084
 40
0.0
 41
0.0
 42
0.0
 10
451.3594254277643358
 20
625.7779832622744607
 40
0.0
 41
0.0
 42
0.0
 10
453.1005050633883116
 20
627.8994949366116316
 40
0.0
 41
0.0
 42
0.0
 10
455.2220167377255962
 20
629.6405745722356642
 40
0.0
 41
0.0
 42
0.0
 10
457.6424319468887347
 20
630.9343134551579624
 40
0.0
 41
0.0
 42
0.0
 10
460.26873549177418
 20
631.7309939256451798
 40
0.0
 41
0.0
 42
0.0
 10
463.0
 20
632.0
 40
0.0
 41
0.0
 42
0.0
  0
TEXT
  5
3C
330
1D
100
AcDbEntity
  8
0
  6
ByLayer
420
1910582
 48
1.0
 60
0
 67
0
370
-1
100
AcDbText
 39
0.0
 10
468.0
 20
600.5
 30
0.0
 40
16.0
  1
State Fields
 50
0.0
 41
1.0
 51
0.0
  7
Standard
 71
0
 72
0
 11
0.0
 21
0.0
 31
0.0
210
0.0
220
0.0
230
1.0
100
AcDbText
 73
0
  0
HATCH
  5
3D
330
1D
100
AcDbEntity
  8
0
  6
ByLayer
420
1008382
 48
1.0
 60
0
 67
0
370
-1
100
AcDbHatch
 30
0.0
210
0.0
220
0.0
230
1.0
  2
SOLID
 70
1
 71
0
 91
1
 92
2
 72
0
 73
1
 93
41
 10
474.0
 20
578.0
 10
488.0
 20
578.0
 10
488.0
 20
578.0
 10
488.3901806440322844
 20
577.9615705608064218
 10
488.765366864730197
 20
577.8477590650226148
 10
489.1111404660392168
 20
577.6629392246051111
 10
489.4142135623731065
 20
577.4142135623731065
 10
489.6629392246051111
 20
577.1111404660391599
 10
489.8477590650225579
 20
576.7653668647301402
 10
489.9615705608064786
 20
576.3901806440322844
 10
490.0
 20
576.0
 10
490.0
 20
562.0
 10
490.0
 20
562.0
 10
489.9615705608064786
 20
561.6098193559677156
 10
489.8477590650225579
 20
561.2346331352698598
 10
489.6629392246051111
 20
560.8888595339608401
 10
489.4142135623731065
 20
560.5857864376268935
 10
489.1111404660392168
 20
560.3370607753948889
 10
488.765366864730197
 20
560.1522409349773852
 10
488.3901806440322844
 20
560.0384294391935782
 10
488.0
 20
560.0
 10
474.0
 20
560.0
 10
474.0
 20
560.0
 10
473.6098193559677156
 20
560.0384294391935782
 10
473.234633135269803
 20
560.1522409349773852
 10
472.8888595339607832
 20
560.3370607753948889
 10
472.5857864376268935
 20
560.5857864376268935
 10
472.3370607753948889
 20
560.8888595339608401
 10
472.1522409349774421
 20
561.2346331352698598
 10
472.0384294391935214
 20
561.6098193559677156
 10
472.0
 20
562.0
 10
472.0
 20
576.0
 10
472.0
 20
576.0
 10
472.0384294391935214
 20
576.3901806440322844
 10
472.1522409349774421
 20
576.7653668647301402
 10
472.3370607753948889
 20
577.1111404660391599
 10
472.5857864376268935
 20
577.4142135623731065
 10
472.8888595339607832
 20
577.6629392246051111
 10
473.234633135269803
 20
577.8477590650226148
 10
473.6098193559677156
 20
577.9615705608064218
 10
474.0
 20
578.0
 97
0
 75
0
 76
1
 47
0.0
 98
0
  0
LWPOLYLINE
  5
3E
330
1D
100
AcDbEntity
  8
0
  6
ByLayer
420
1008382
 48
1.0
 60
0
 67
0
370
-1
100
AcDbPolyline
 90
41
 70
1
 43
0.0
 38
0.0
 39
0.0
210
0.0
220
0.0
230
1.0
 10
474.0
 20
578.0
 40
0.0
 41
0.0
 42
0.0
 10
488.0
 20
578.0
 40
0.0
 41
0.0
 42
0.0
 10
488.0
 20
578.0
 40
0.0
 41
0.0
 42
0.0
 10
488.3901806440322844
 20
577.9615705608064218
 40
0.0
 41
0.0
 42
0.0
 10
488.765366864730197
 20
577.8477590650226148
 40
0.0
 41
0.0
 42
0.0
 10
489.1111404660392168
 20
577.6629392246051111
 40
0.0
 41
0.0
 42
0.0
 10
489.4142135623731065
 20
577.4142135623731065
 40
0.0
 41
0.0
 42
0.0
 10
489.6629392246051111
 20
577.1111404660391599
 40
0.0
 41
0.0
 42
0.0
 10
489.8477590650225579
 20
576.7653668647301402
 40
0.0
 41
0.0
 42
0.0
 10
489.9615705608064786
 20
576.3901806440322844
 40
0.0
 41
0.0
 42
0.0
 10
490.0
 20
576.0
 40
0.0
 41
0.0
 42
0.0
 10
490.0
 20
562.0
 40
0.0
 41
0.0
 42
0.0
 10
490.0
 20
562.0
 40
0.0
 41
0.0
 42
0.0
 10
489.9615705608064786
 20
561.6098193559677156
 40
0.0
 41
0.0
 42
0.0
 10
489.8477590650225579
 20
561.2346331352698598
 40
0.0
 41
0.0
 42
0.0
 10
489.6629392246051111
 20
560.8888595339608401
 40
0.0
 41
0.0
 42
0.0
 10
489.4142135623731065
 20
560.5857864376268935
 40
0.0
 41
0.0
 42
0.0
 10
489.1111404660392168
 20
560.3370607753948889
 40
0.0
 41
0.0
 42
0.0
 10
488.765366864730197
 20
560.1522409349773852
 40
0.0
 41
0.0
 42
0.0
 10
488.3901806440322844
 20
560.0384294391935782
 40
0.0
 41
0.0
 42
0.0
 10
488.0
 20
560.0
 40
0.0
 41
0.0
 42
0.0
 10
474.0
 20
560.0
 40
0.0
 41
0.0
 42
0.0
 10
474.0
 20
560.0
 40
0.0
 41
0.0
 42
0.0
 10
473.6098193559677156
 20
560.0384294391935782
 40
0.0
 41
0.0
 42
0.0
 10
473.234633135269803
 20
560.1522409349773852
 40
0.0
 41
0.0
 42
0.0
 10
472.8888595339607832
 20
560.3370607753948889
 40
0.0
 41
0.0
 42
0.0
 10
472.5857864376268935
 20
560.5857864376268935
 40
0.0
 41
0.0
 42
0.0
 10
472.3370607753948889
 20
560.8888595339608401
 40
0.0
 41
0.0
 42
0.0
 10
472.1522409349774421
 20
561.2346331352698598
 40
0.0
 41
0.0
 42
0.0
 10
472.0384294391935214
 20
561.6098193559677156
 40
0.0
 41
0.0
 42
0.0
 10
472.0
 20
562.0
 40
0.0
 41
0.0
 42
0.0
 10
472.0
 20
576.0
 40
0.0
 41
0.0
 42
0.0
 10
472.0
 20
576.0
 40
0.0
 41
0.0
 42
0.0
 10
472.0384294391935214
 20
576.3901806440322844
 40
0.0
 41
0.0
 42
0.0
 10
472.1522409349774421
 20
576.7653668647301402
 40
0.0
 41
0.0
 42
0.0
 10
472.3370607753948889
 20
577.1111404660391599
 40
0.0
 41
0.0
 42
0.0
 10
472.5857864376268935
 20
577.4142135623731065
 40
0.0
 41
0.0
 42
0.0
 10
472.8888595339607832
 20
577.6629392246051111
 40
0.0
 41
0.0
 42
0.0
 10
473.234633135269803
 20
577.8477590650226148
 40
0.0
 41
0.0
 42
0.0
 10
473.6098193559677156
 20
577.9615705608064218
 40
0.0
 41
0.0
 42
0.0
 10
474.0
 20
578.0
 40
0.0
 41
0.0
 42
0.0
  0
LWPOLYLINE
  5
3F
330
1D
100
AcDbEntity
  8
0
  6
ByLayer
420
16777215
 48
1.0
 60
0
 67
0
370
-1
100
AcDbPolyline
 90
3
 70
0
 43
0.0
 38
0.0
 39
0.0
210
0.0
220
0.0
230
1.0
 10
475.9599999999999795
 20
568.2799999999999727
 40
0.0
 41
0.0
 42
0.0
 10
479.5600000000000023
 20
564.6800000000000637
 40
0.0
 41
0.0
 42
0.0
 10
486.0400000000000205
 20
572.6000000000000227
 40
0.0
 41
0.0
 42
0.0
  0
TEXT
  5
40
330
1D
100
AcDbEntity
  8
0
  6
ByLayer
420
4938352
 48
1.0
 60
0
 67
0
370
-1
100
AcDbText
 39
0.0
 10
503.0000124999996842
 20
566.0
 30
0.0
 40
12.0
  1
CHECKED CHECKBOX
 50
0.0
 41
1.0
 51
0.0
  7
Standard
 71
0
 72
0
 11
0.0
 21
0.0
 31
0.0
210
0.0
220
0.0
230
1.0
100
AcDbText
 73
0
  0
HATCH
  5
41
330
1D
100
AcDbEntity
  8
0
  6
ByLayer
420
1008382
 48
1.0
 60
0
 67
0
370
-1
100
AcDbHatch
 30
0.0
210
0.0
220
0.0
230
1.0
  2
SOLID
 70
1
 71
0
 91
1
 92
2
 72
0
 73
1
 93
41
 10
474.0
 20
542.0
 10
488.0
 20
542.0
 10
488.0
 20
542.0
 10
488.3901806440322844
 20
541.9615705608064218
 10
488.765366864730197
 20
541.8477590650226148
 10
489.1111404660392168
 20
541.6629392246051111
 10
489.4142135623731065
 20
541.4142135623731065
 10
489.6629392246051111
 20
541.1111404660391599
 10
489.8477590650225579
 20
540.7653668647301402
 10
489.9615705608064786
 20
540.3901806440322844
 10
490.0
 20
540.0
 10
490.0
 20
526.0
 10
490.0
 20
526.0
 10
489.9615705608064786
 20
525.6098193559677156
 10
489.8477590650225579
 20
525.2346331352698598
 10
489.6629392246051111
 20
524.8888595339608401
 10
489.4142135623731065
 20
524.5857864376268935
 10
489.1111404660392168
 20
524.3370607753948889
 10
488.765366864730197
 20
524.1522409349773852
 10
488.3901806440322844
 20
524.0384294391935782
 10
488.0
 20
524.0
 10
474.0
 20
524.0
 10
474.0
 20
524.0
 10
473.6098193559677156
 20
524.0384294391935782
 10
473.234633135269803
 20
524.1522409349773852
 10
472.8888595339607832
 20
524.3370607753948889
 10
472.5857864376268935
 20
524.5857864376268935
 10
472.3370607753948889
 20
524.8888595339608401
 10
472.1522409349774421
 20
525.2346331352698598
 10
472.0384294391935214
 20
525.6098193559677156
 10
472.0
 20
526.0
 10
472.0
 20
540.0
 10
472.0
 20
540.0
 10
472.0384294391935214
 20
540.3901806440322844
 10
472.1522409349774421
 20
540.7653668647301402
 10
472.3370607753948889
 20
541.1111404660391599
 10
472.5857864376268935
 20
541.4142135623731065
 10
472.8888595339607832
 20
541.6629392246051111
 10
473.234633135269803
 20
541.8477590650226148
 10
473.6098193559677156
 20
541.9615705608064218
 10
474.0
 20
542.0
 97
0
 75
0
 76
1
 47
0.0
 98
0
  0
LWPOLYLINE
  5
42
330
1D
100
AcDbEntity
  8
0
  6
ByLayer
420
1008382
 48
1.0
 60
0
 67
0
370
-1
100
AcDbPolyline
 90
41
 70
1
 43
0.0
 38
0.0
 39
0.0
210
0.0
220
0.0
230
1.0
 10
474.0
 20
542.0
 40
0.0
 41
0.0
 42
0.0
 10
488.0
 20
542.0
 40
0.0
 41
0.0
 42
0.0
 10
488.0
 20
542.0
 40
0.0
 41
0.0
 42
0.0
 10
488.3901806440322844
 20
541.9615705608064218
 40
0.0
 41
0.0
 42
0.0
 10
488.765366864730197
 20
541.8477590650226148
 40
0.0
 41
0.0
 42
0.0
 10
489.1111404660392168
 20
541.6629392246051111
 40
0.0
 41
0.0
 42
0.0
 10
489.4142135623731065
 20
541.4142135623731065
 40
0.0
 41
0.0
 42
0.0
 10
489.6629392246051111
 20
541.1111404660391599
 40
0.0
 41
0.0
 42
0.0
 10
489.8477590650225579
 20
540.7653668647301402
 40
0.0
 41
0.0
 42
0.0
 10
489.9615705608064786
 20
540.3901806440322844
 40
0.0
 41
0.0
 42
0.0
 10
490.0
 20
540.0
 40
0.0
 41
0.0
 42
0.0
 10
490.0
 20
526.0
 40
0.0
 41
0.0
 42
0.0
 10
490.0
 20
526.0
 40
0.0
 41
0.0
 42
0.0
 10
489.9615705608064786
 20
525.6098193559677156
 40
0.0
 41
0.0
 42
0.0
 10
489.8477590650225579
 20
525.2346331352698598
 40
0.0
 41
0.0
 42
0.0
 10
489.6629392246051111
 20
524.8888595339608401
 40
0.0
 41
0.0
 42
0.0
 10
489.4142135623731065
 20
524.5857864376268935
 40
0.0
 41
0.0
 42
0.0
 10
489.1111404660392168
 20
524.3370607753948889
 40
0.0
 41
0.0
 42
0.0
 10
488.765366864730197
 20
524.1522409349773852
 40
0.0
 41
0.0
 42
0.0
 10
488.3901806440322844
 20
524.0384294391935782
 40
0.0
 41
0.0
 42
0.0
 10
488.0
 20
524.0
 40
0.0
 41
0.0
 42
0.0
 10
474.0
 20
524.0
 40
0.0
 41
0.0
 42
0.0
 10
474.0
 20
524.0
 40
0.0
 41
0.0
 42
0.0
 10
473.6098193559677156
 20
524.0384294391935782
 40
0.0
 41
0.0
 42
0.0
 10
473.234633135269803
 20
524.1522409349773852
 40
0.0
 41
0.0
 42
0.0
 10
472.8888595339607832
 20
524.3370607753948889
 40
0.0
 41
0.0
 42
0.0
 10
472.5857864376268935
 20
524.5857864376268935
 40
0.0
 41
0.0
 42
0.0
 10
472.3370607753948889
 20
524.8888595339608401
 40
0.0
 41
0.0
 42
0.0
 10
472.1522409349774421
 20
525.2346331352698598
 40
0.0
 41
0.0
 42
0.0
 10
472.0384294391935214
 20
525.6098193559677156
 40
0.0
 41
0.0
 42
0.0
 10
472.0
 20
526.0
 40
0.0
 41
0.0
 42
0.0
 10
472.0
 20
540.0
 40
0.0
 41
0.0
 42
0.0
 10
472.0
 20
540.0
 40
0.0
 41
0.0
 42
0.0
 10
472.0384294391935214
 20
540.3901806440322844
 40
0.0
 41
0.0
 42
0.0
 10
472.1522409349774421
 20
540.7653668647301402
 40
0.0
 41
0.0
 42
0.0
 10
472.3370607753948889
 20
541.1111404660391599
 40
0.0
 41
0.0
 42
0.0
 10
472.5857864376268935
 20
541.4142135623731065
 40
0.0
 41
0.0
 42
0.0
 10
472.8888595339607832
 20
541.6629392246051111
 40
0.0
 41
0.0
 42
0.0
 10
473.234633135269803
 20
541.8477590650226148
 40
0.0
 41
0.0
 42
0.0
 10
473.6098193559677156
 20
541.9615705608064218
 40
0.0
 41
0.0
 42
0.0
 10
474.0
 20
542.0
 40
0.0
 41
0.0
 42
0.0
  0
HATCH
  5
43
330
1D
100
AcDbEntity
  8
0
  6
ByLayer
420
16777215
 48
1.0
 60
0
 67
0
370
-1
100
AcDbHatch
 30
0.0
210
0.0
220
0.0
230
1.0
  2
SOLID
 70
1
 71
0
 91
1
 92
2
 72
0
 73
1
 93
4
 10
475.6000000000000227
 20
534.2599999999999909
 10
486.3999999999999773
 20
534.2599999999999909
 10
486.3999999999999773
 20
531.7400000000000091
 10
475.6000000000000227
 20
531.7400000000000091
 97
0
 75
0
 76
1
 47
0.0
 98
0
  0
LWPOLYLINE
  5
44
330
1D
100
AcDbEntity
  8
0
  6
ByLayer
420
16777215
 48
1.0
 60
0
 67
0
370
-1
100
AcDbPolyline
 90
4
 70
1
 43
0.0
 38
0.0
 39
0.0
210
0.0
220
0.0
230
1.0
 10
475.6000000000000227
 20
534.2599999999999909
 40
0.0
 41
0.0
 42
0.0
 10
486.3999999999999773
 20
534.2599999999999909
 40
0.0
 41
0.0
 42
0.0
 10
486.3999999999999773
 20
531.7400000000000091
 40
0.0
 41
0.0
 42
0.0
 10
475.6000000000000227
 20
531.7400000000000091
 40
0.0
 41
0.0
 42
0.0
  0
TEXT
  5
45
330
1D
100
AcDbEntity
  8
0
  6
ByLayer
420
4938352
 48
1.0
 60
0
 67
0
370
-1
100
AcDbText
 39
0.0
 10
503.0000375000017812
 20
530.0
 30
0.0
 40
12.0
  1
INDETERMINATE CHECKBOX
 50
0.0
 41
1.0
 51
0.0
  7
Standard
 71
0
 72
0
 11
0.0
 21
0.0
 31
0.0
210
0.0
220
0.0
230
1.0
100
AcDbText
 73
0
  0
HATCH
  5
46
330
1D
100
AcDbEntity
  8
0
  6
ByLayer
420
16777215
 48
1.0
 60
0
 67
0
370
-1
100
AcDbHatch
 30
0.0
210
0.0
220
0.0
230
1.0
  2
SOLID
 70
1
 71
0
 91
1
 92
2
 72
0
 73
1
 93
28
 10
491.0
 20
497.0
 10
490.7743512096363929
 20
494.9973115943931816
 10
490.1087198111217731
 20
493.0950463479420023
 10
489.0364833422122501
 20
491.3885917832714085
 10
487.6114082167285915
 20
489.9635166577877499
 10
485.9049536520579977
 20
488.8912801888782269
 10
484.0026884056068184
 20
488.2256487903636071
 10
482.0
 20
488.0
 10
479.9973115943931816
 20
488.2256487903636071
 10
478.0950463479420023
 20
488.8912801888782269
 10
476.3885917832714085
 20
489.9635166577877499
 10
474.9635166577877499
 20
491.3885917832714085
 10
473.8912801888782269
 20
493.0950463479420023
 10
473.2256487903636071
 20
494.9973115943931816
 10
473.0
 20
497.0
 10
473.2256487903636071
 20
499.0026884056068184
 10
473.8912801888782269
 20
500.9049536520579977
 10
474.9635166577877499
 20
502.6114082167285915
 10
476.3885917832714085
 20
504.0364833422122501
 10
478.0950463479420023
 20
505.1087198111217731
 10
479.9973115943931816
 20
505.7743512096363929
 10
482.0
 20
506.0
 10
484.0026884056068184
 20
505.7743512096363929
 10
485.9049536520579977
 20
505.1087198111217731
 10
487.6114082167285915
 20
504.0364833422122501
 10
489.0364833422122501
 20
502.6114082167285915
 10
490.1087198111217731
 20
500.9049536520579977
 10
490.7743512096363929
 20
499.0026884056068184
 97
0
 75
0
 76
1
 47
0.0
 98
0
  0
LWPOLYLINE
  5
47
330
1D
100
AcDbEntity
  8
0
  6
ByLayer
420
1008382
 48
1.0
 60
0
 67
0
370
-1
100
AcDbPolyline
 90
28
 70
1
 43
0.0
 38
0.0
 39
0.0
210
0.0
220
0.0
230
1.0
 10
491.0
 20
497.0
 40
0.0
 41
0.0
 42
0.0
 10
490.7743512096363929
 20
494.9973115943931816
 40
0.0
 41
0.0
 42
0.0
 10
490.1087198111217731
 20
493.0950463479420023
 40
0.0
 41
0.0
 42
0.0
 10
489.0364833422122501
 20
491.3885917832714085
 40
0.0
 41
0.0
 42
0.0
 10
487.6114082167285915
 20
489.9635166577877499
 40
0.0
 41
0.0
 42
0.0
 10
485.9049536520579977
 20
488.8912801888782269
 40
0.0
 41
0.0
 42
0.0
 10
484.0026884056068184
 20
488.2256487903636071
 40
0.0
 41
0.0
 42
0.0
 10
482.0
 20
488.0
 40
0.0
 41
0.0
 42
0.0
 10
479.9973115943931816
 20
488.2256487903636071
 40
0.0
 41
0.0
 42
0.0
 10
478.0950463479420023
 20
488.8912801888782269
 40
0.0
 41
0.0
 42
0.0
 10
476.3885917832714085
 20
489.9635166577877499
 40
0.0
 41
0.0
 42
0.0
 10
474.9635166577877499
 20
491.3885917832714085
 40
0.0
 41
0.0
 42
0.0
 10
473.8912801888782269
 20
493.0950463479420023
 40
0.0
 41
0.0
 42
0.0
 10
473.2256487903636071
 20
494.9973115943931816
 40
0.0
 41
0.0
 42
0.0
 10
473.0
 20
497.0
 40
0.0
 41
0.0
 42
0.0
 10
473.2256487903636071
 20
499.0026884056068184
 40
0.0
 41
0.0
 42
0.0
 10
473.8912801888782269
 20
500.9049536520579977
 40
0.0
 41
0.0
 42
0.0
 10
474.9635166577877499
 20
502.6114082167285915
 40
0.0
 41
0.0
 42
0.0
 10
476.3885917832714085
 20
504.0364833422122501
 40
0.0
 41
0.0
 42
0.0
 10
478.0950463479420023
 20
505.1087198111217731
 40
0.0
 41
0.0
 42
0.0
 10
479.9973115943931816
 20
505.7743512096363929
 40
0.0
 41
0.0
 42
0.0
 10
482.0
 20
506.0
 40
0.0
 41
0.0
 42
0.0
 10
484.0026884056068184
 20
505.7743512096363929
 40
0.0
 41
0.0
 42
0.0
 10
485.9049536520579977
 20
505.1087198111217731
 40
0.0
 41
0.0
 42
0.0
 10
487.6114082167285915
 20
504.0364833422122501
 40
0.0
 41
0.0
 42
0.0
 10
489.0364833422122501
 20
502.6114082167285915
 40
0.0
 41
0.0
 42
0.0
 10
490.1087198111217731
 20
500.9049536520579977
 40
0.0
 41
0.0
 42
0.0
 10
490.7743512096363929
 20
499.0026884056068184
 40
0.0
 41
0.0
 42
0.0
  0
HATCH
  5
48
330
1D
100
AcDbEntity
  8
0
  6
ByLayer
420
1008382
 48
1.0
 60
0
 67
0
370
-1
100
AcDbHatch
 30
0.0
210
0.0
220
0.0
230
1.0
  2
SOLID
 70
1
 71
0
 91
1
 92
2
 72
0
 73
1
 93
24
 10
485.7799999999999727
 20
497.0
 10
485.6511996233726904
 20
496.0216640095125058
 10
485.273576026305193
 20
495.1100000000000136
 10
484.6728636328851394
 20
494.3271363671148606
 10
483.8899999999999864
 20
493.726423973694807
 10
482.978335990487551
 20
493.3488003766273096
 10
482.0
 20
493.2200000000000273
 10
481.021664009512449
 20
493.3488003766273096
 10
480.1100000000000136
 20
493.726423973694807
 10
479.3271363671148606
 20
494.3271363671148606
 10
478.726423973694807
 20
495.1100000000000136
 10
478.3488003766273096
 20
496.0216640095125058
 10
478.2200000000000273
 20
497.0
 10
478.3488003766273096
 20
497.9783359904874942
 10
478.726423973694807
 20
498.8899999999999864
 10
479.3271363671148606
 20
499.6728636328851394
 10
480.1100000000000136
 20
500.2735760263051361
 10
481.021664009512449
 20
500.6511996233726904
 10
482.0
 20
500.7799999999999727
 10
482.978335990487551
 20
500.6511996233726904
 10
483.8899999999999864
 20
500.2735760263051361
 10
484.6728636328851394
 20
499.6728636328851394
 10
485.273576026305193
 20
498.8899999999999864
 10
485.6511996233726904
 20
497.9783359904874942
 97
0
 75
0
 76
1
 47
0.0
 98
0
  0
LWPOLYLINE
  5
49
330
1D
100
AcDbEntity
  8
0
  6
ByLayer
420
1008382
 48
1.0
 60
0
 67
0
370
-1
100
AcDbPolyline
 90
24
 70
1
 43
0.0
 38
0.0
 39
0.0
210
0.0
220
0.0
230
1.0
 10
485.7799999999999727
 20
497.0
 40
0.0
 41
0.0
 42
0.0
 10
485.6511996233726904
 20
496.0216640095125058
 40
0.0
 41
0.0
 42
0.0
 10
485.273576026305193
 20
495.1100000000000136
 40
0.0
 41
0.0
 42
0.0
 10
484.6728636328851394
 20
494.3271363671148606
 40
0.0
 41
0.0
 42
0.0
 10
483.8899999999999864
 20
493.726423973694807
 40
0.0
 41
0.0
 42
0.0
 10
482.978335990487551
 20
493.3488003766273096
 40
0.0
 41
0.0
 42
0.0
 10
482.0
 20
493.2200000000000273
 40
0.0
 41
0.0
 42
0.0
 10
481.021664009512449
 20
493.3488003766273096
 40
0.0
 41
0.0
 42
0.0
 10
480.1100000000000136
 20
493.726423973694807
 40
0.0
 41
0.0
 42
0.0
 10
479.3271363671148606
 20
494.3271363671148606
 40
0.0
 41
0.0
 42
0.0
 10
478.726423973694807
 20
495.1100000000000136
 40
0.0
 41
0.0
 42
0.0
 10
478.3488003766273096
 20
496.0216640095125058
 40
0.0
 41
0.0
 42
0.0
 10
478.2200000000000273
 20
497.0
 40
0.0
 41
0.0
 42
0.0
 10
478.3488003766273096
 20
497.9783359904874942
 40
0.0
 41
0.0
 42
0.0
 10
478.726423973694807
 20
498.8899999999999864
 40
0.0
 41
0.0
 42
0.0
 10
479.3271363671148606
 20
499.6728636328851394
 40
0.0
 41
0.0
 42
0.0
 10
480.1100000000000136
 20
500.2735760263051361
 40
0.0
 41
0.0
 42
0.0
 10
481.021664009512449
 20
500.6511996233726904
 40
0.0
 41
0.0
 42
0.0
 10
482.0
 20
500.7799999999999727
 40
0.0
 41
0.0
 42
0.0
 10
482.978335990487551
 20
500.6511996233726904
 40
0.0
 41
0.0
 42
0.0
 10
483.8899999999999864
 20
500.2735760263051361
 40
0.0
 41
0.0
 42
0.0
 10
484.6728636328851394
 20
499.6728636328851394
 40
0.0
 41
0.0
 42
0.0
 10
485.273576026305193
 20
498.8899999999999864
 40
0.0
 41
0.0
 42
0.0
 10
485.6511996233726904
 20
497.9783359904874942
 40
0.0
 41
0.0
 42
0.0
  0
TEXT
  5
4A
330
1D
100
AcDbEntity
  8
0
  6
ByLayer
420
4938352
 48
1.0
 60
0
 67
0
370
-1
100
AcDbText
 39
0.0
 10
504.0000499999987369
 20
495.0
 30
0.0
 40
12.0
  1
SELECTED RADIO BUTTON
 50
0.0
 41
1.0
 51
0.0
  7
Standard
 71
0
 72
0
 11
0.0
 21
0.0
 31
0.0
210
0.0
220
0.0
230
1.0
100
AcDbText
 73
0
  0
TEXT
  5
4B
330
1D
100
AcDbEntity
  8
0
  6
ByLayer
420
4938352
 48
1.0
 60
0
 67
0
370
-1
100
AcDbText
 39
0.0
 10
468.0
 20
466.0
 30
0.0
 40
12.0
  1
PROGRESS
 50
0.0
 41
1.0
 51
0.0
  7
Standard
 71
0
 72
0
 11
0.0
 21
0.0
 31
0.0
210
0.0
220
0.0
230
1.0
100
AcDbText
 73
0
  0
HATCH
  5
4C
330
1D
100
AcDbEntity
  8
0
  6
ByLayer
420
15263976
 48
1.0
 60
0
 67
0
370
-1
100
AcDbHatch
 30
0.0
210
0.0
220
0.0
230
1.0
  2
SOLID
 70
1
 71
0
 91
1
 92
2
 72
0
 73
1
 93
41
 10
477.0
 20
456.0
 10
852.0
 20
456.0
 10
852.0
 20
456.0
 10
853.7558128981451091
 20
455.8270675236290685
 10
855.4441508912858581
 20
455.314915792601596
 10
857.0001320971764471
 20
454.4832265107229432
 10
858.3639610306789791
 20
453.3639610306789223
 10
859.4832265107229432
 20
452.0001320971764471
 10
860.314915792601596
 20
450.4441508912858012
 10
860.8270675236291254
 20
448.7558128981451659
 10
861.0
 20
447.0
 10
861.0
 20
447.0
 10
861.0
 20
447.0
 10
860.8270675236291254
 20
445.2441871018548341
 10
860.314915792601596
 20
443.5558491087141988
 10
859.4832265107229432
 20
441.9998679028235529
 10
858.3639610306789791
 20
440.6360389693210777
 10
857.0001320971764471
 20
439.5167734892770568
 10
855.4441508912858581
 20
438.685084207398404
 10
853.7558128981451091
 20
438.1729324763709315
 10
852.0
 20
438.0
 10
477.0
 20
438.0
 10
477.0
 20
438.0
 10
475.2441871018548341
 20
438.1729324763709315
 10
473.5558491087141988
 20
438.685084207398404
 10
471.9998679028236097
 20
439.5167734892770568
 10
470.6360389693210777
 20
440.6360389693210777
 10
469.5167734892771136
 20
441.9998679028235529
 10
468.685084207398404
 20
443.5558491087141988
 10
468.1729324763709315
 20
445.2441871018548341
 10
468.0
 20
447.0
 10
468.0
 20
447.0
 10
468.0
 20
447.0
 10
468.1729324763709315
 20
448.7558128981451659
 10
468.685084207398404
 20
450.4441508912858012
 10
469.5167734892771136
 20
452.0001320971764471
 10
470.6360389693210777
 20
453.3639610306789223
 10
471.9998679028235529
 20
454.4832265107229432
 10
473.5558491087141988
 20
455.314915792601596
 10
475.2441871018548341
 20
455.8270675236290685
 10
477.0
 20
456.0
 97
0
 75
0
 76
1
 47
0.0
 98
0
  0
LWPOLYLINE
  5
4D
330
1D
100
AcDbEntity
  8
0
  6
ByLayer
420
1910582
 48
1.0
 60
0
 67
0
370
-1
100
AcDbPolyline
 90
41
 70
1
 43
0.0
 38
0.0
 39
0.0
210
0.0
220
0.0
230
1.0
 10
477.0
 20
456.0
 40
0.0
 41
0.0
 42
0.0
 10
852.0
 20
456.0
 40
0.0
 41
0.0
 42
0.0
 10
852.0
 20
456.0
 40
0.0
 41
0.0
 42
0.0
 10
853.7558128981451091
 20
455.8270675236290685
 40
0.0
 41
0.0
 42
0.0
 10
855.4441508912858581
 20
455.314915792601596
 40
0.0
 41
0.0
 42
0.0
 10
857.0001320971764471
 20
454.4832265107229432
 40
0.0
 41
0.0
 42
0.0
 10
858.3639610306789791
 20
453.3639610306789223
 40
0.0
 41
0.0
 42
0.0
 10
859.4832265107229432
 20
452.0001320971764471
 40
0.0
 41
0.0
 42
0.0
 10
860.314915792601596
 20
450.4441508912858012
 40
0.0
 41
0.0
 42
0.0
 10
860.8270675236291254
 20
448.7558128981451659
 40
0.0
 41
0.0
 42
0.0
 10
861.0
 20
447.0
 40
0.0
 41
0.0
 42
0.0
 10
861.0
 20
447.0
 40
0.0
 41
0.0
 42
0.0
 10
861.0
 20
447.0
 40
0.0
 41
0.0
 42
0.0
 10
860.8270675236291254
 20
445.2441871018548341
 40
0.0
 41
0.0
 42
0.0
 10
860.314915792601596
 20
443.5558491087141988
 40
0.0
 41
0.0
 42
0.0
 10
859.4832265107229432
 20
441.9998679028235529
 40
0.0
 41
0.0
 42
0.0
 10
858.3639610306789791
 20
440.6360389693210777
 40
0.0
 41
0.0
 42
0.0
 10
857.0001320971764471
 20
439.5167734892770568
 40
0.0
 41
0.0
 42
0.0
 10
855.4441508912858581
 20
438.685084207398404
 40
0.0
 41
0.0
 42
0.0
 10
853.7558128981451091
 20
438.1729324763709315
 40
0.0
 41
0.0
 42
0.0
 10
852.0
 20
438.0
 40
0.0
 41
0.0
 42
0.0
 10
477.0
 20
438.0
 40
0.0
 41
0.0
 42
0.0
 10
477.0
 20
438.0
 40
0.0
 41
0.0
 42
0.0
 10
475.2441871018548341
 20
438.1729324763709315
 40
0.0
 41
0.0
 42
0.0
 10
473.5558491087141988
 20
438.685084207398404
 40
0.0
 41
0.0
 42
0.0
 10
471.9998679028236097
 20
439.5167734892770568
 40
0.0
 41
0.0
 42
0.0
 10
470.6360389693210777
 20
440.6360389693210777
 40
0.0
 41
0.0
 42
0.0
 10
469.5167734892771136
 20
441.9998679028235529
 40
0.0
 41
0.0
 42
0.0
 10
468.685084207398404
 20
443.5558491087141988
 40
0.0
 41
0.0
 42
0.0
 10
468.1729324763709315
 20
445.2441871018548341
 40
0.0
 41
0.0
 42
0.0
 10
468.0
 20
447.0
 40
0.0
 41
0.0
 42
0.0
 10
468.0
 20
447.0
 40
0.0
 41
0.0
 42
0.0
 10
468.0
 20
447.0
 40
0.0
 41
0.0
 42
0.0
 10
468.1729324763709315
 20
448.7558128981451659
 40
0.0
 41
0.0
 42
0.0
 10
468.685084207398404
 20
450.4441508912858012
 40
0.0
 41
0.0
 42
0.0
 10
469.5167734892771136
 20
452.0001320971764471
 40
0.0
 41
0.0
 42
0.0
 10
470.6360389693210777
 20
453.3639610306789223
 40
0.0
 41
0.0
 42
0.0
 10
471.9998679028235529
 20
454.4832265107229432
 40
0.0
 41
0.0
 42
0.0
 10
473.5558491087141988
 20
455.314915792601596
 40
0.0
 41
0.0
 42
0.0
 10
475.2441871018548341
 20
455.8270675236290685
 40
0.0
 41
0.0
 42
0.0
 10
477.0
 20
456.0
 40
0.0
 41
0.0
 42
0.0
  0
HATCH
  5
4E
330
1D
100
AcDbEntity
  8
0
  6
ByLayer
420
1008382
 48
1.0
 60
0
 67
0
370
-1
100
AcDbHatch
 30
0.0
210
0.0
220
0.0
230
1.0
  2
SOLID
 70
1
 71
0
 91
1
 92
2
 72
0
 73
1
 93
41
 10
477.0
 20
455.0
 10
742.5199999999999818
 20
455.0
 10
742.5199999999999818
 20
455.0
 10
744.0807225761290056
 20
454.8462822432258577
 10
745.5814674589206561
 20
454.3910362600902886
 10
746.964561864156849
 20
453.6517568984203308
 10
748.1768542494924077
 20
452.656854249492369
 10
749.1717568984203126
 20
451.4445618641568103
 10
749.9110362600903272
 20
450.0614674589207311
 10
750.3662822432257826
 20
448.5607225761290238
 10
750.5199999999999818
 20
447.0
 10
750.5199999999999818
 20
447.0
 10
750.5199999999999818
 20
447.0
 10
750.3662822432257826
 20
445.4392774238709762
 10
749.9110362600903272
 20
443.9385325410792689
 10
749.1717568984203126
 20
442.5554381358431897
 10
748.1768542494924077
 20
441.343145750507631
 10
746.964561864156849
 20
440.3482431015796692
 10
745.5814674589206561
 20
439.6089637399097114
 10
744.0807225761290056
 20
439.1537177567741423
 10
742.5199999999999818
 20
439.0
 10
477.0
 20
439.0
 10
477.0
 20
439.0
 10
475.4392774238709762
 20
439.1537177567741423
 10
473.9385325410792689
 20
439.6089637399097114
 10
472.5554381358431897
 20
440.3482431015796692
 10
471.343145750507631
 20
441.343145750507631
 10
470.3482431015796124
 20
442.5554381358431897
 10
469.6089637399097114
 20
443.9385325410792689
 10
469.1537177567741423
 20
445.4392774238709762
 10
469.0
 20
447.0
 10
469.0
 20
447.0
 10
469.0
 20
447.0
 10
469.1537177567741423
 20
448.5607225761290238
 10
469.6089637399097114
 20
450.0614674589207311
 10
470.3482431015796124
 20
451.4445618641568103
 10
471.343145750507631
 20
452.656854249492369
 10
472.5554381358431897
 20
453.6517568984203308
 10
473.9385325410792689
 20
454.3910362600902886
 10
475.4392774238709762
 20
454.8462822432258008
 10
477.0
 20
455.0
 97
0
 75
0
 76
1
 47
0.0
 98
0
  0
LWPOLYLINE
  5
4F
330
1D
100
AcDbEntity
  8
0
  6
ByLayer
420
1008382
 48
1.0
 60
0
 67
0
370
-1
100
AcDbPolyline
 90
41
 70
1
 43
0.0
 38
0.0
 39
0.0
210
0.0
220
0.0
230
1.0
 10
477.0
 20
455.0
 40
0.0
 41
0.0
 42
0.0
 10
742.5199999999999818
 20
455.0
 40
0.0
 41
0.0
 42
0.0
 10
742.5199999999999818
 20
455.0
 40
0.0
 41
0.0
 42
0.0
 10
744.0807225761290056
 20
454.8462822432258577
 40
0.0
 41
0.0
 42
0.0
 10
745.5814674589206561
 20
454.3910362600902886
 40
0.0
 41
0.0
 42
0.0
 10
746.964561864156849
 20
453.6517568984203308
 40
0.0
 41
0.0
 42
0.0
 10
748.1768542494924077
 20
452.656854249492369
 40
0.0
 41
0.0
 42
0.0
 10
749.1717568984203126
 20
451.4445618641568103
 40
0.0
 41
0.0
 42
0.0
 10
749.9110362600903272
 20
450.0614674589207311
 40
0.0
 41
0.0
 42
0.0
 10
750.3662822432257826
 20
448.5607225761290238
 40
0.0
 41
0.0
 42
0.0
 10
750.5199999999999818
 20
447.0
 40
0.0
 41
0.0
 42
0.0
 10
750.5199999999999818
 20
447.0
 40
0.0
 41
0.0
 42
0.0
 10
750.5199999999999818
 20
447.0
 40
0.0
 41
0.0
 42
0.0
 10
750.3662822432257826
 20
445.4392774238709762
 40
0.0
 41
0.0
 42
0.0
 10
749.9110362600903272
 20
443.9385325410792689
 40
0.0
 41
0.0
 42
0.0
 10
749.1717568984203126
 20
442.5554381358431897
 40
0.0
 41
0.0
 42
0.0
 10
748.1768542494924077
 20
441.343145750507631
 40
0.0
 41
0.0
 42
0.0
 10
746.964561864156849
 20
440.3482431015796692
 40
0.0
 41
0.0
 42
0.0
 10
745.5814674589206561
 20
439.6089637399097114
 40
0.0
 41
0.0
 42
0.0
 10
744.0807225761290056
 20
439.1537177567741423
 40
0.0
 41
0.0
 42
0.0
 10
742.5199999999999818
 20
439.0
 40
0.0
 41
0.0
 42
0.0
 10
477.0
 20
439.0
 40
0.0
 41
0.0
 42
0.0
 10
477.0
 20
439.0
 40
0.0
 41
0.0
 42
0.0
 10
475.4392774238709762
 20
439.1537177567741423
 40
0.0
 41
0.0
 42
0.0
 10
473.9385325410792689
 20
439.6089637399097114
 40
0.0
 41
0.0
 42
0.0
 10
472.5554381358431897
 20
440.3482431015796692
 40
0.0
 41
0.0
 42
0.0
 10
471.343145750507631
 20
441.343145750507631
 40
0.0
 41
0.0
 42
0.0
 10
470.3482431015796124
 20
442.5554381358431897
 40
0.0
 41
0.0
 42
0.0
 10
469.6089637399097114
 20
443.9385325410792689
 40
0.0
 41
0.0
 42
0.0
 10
469.1537177567741423
 20
445.4392774238709762
 40
0.0
 41
0.0
 42
0.0
 10
469.0
 20
447.0
 40
0.0
 41
0.0
 42
0.0
 10
469.0
 20
447.0
 40
0.0
 41
0.0
 42
0.0
 10
469.0
 20
447.0
 40
0.0
 41
0.0
 42
0.0
 10
469.1537177567741423
 20
448.5607225761290238
 40
0.0
 41
0.0
 42
0.0
 10
469.6089637399097114
 20
450.0614674589207311
 40
0.0
 41
0.0
 42
0.0
 10
470.3482431015796124
 20
451.4445618641568103
 40
0.0
 41
0.0
 42
0.0
 10
471.343145750507631
 20
452.656854249492369
 40
0.0
 41
0.0
 42
0.0
 10
472.5554381358431897
 20
453.6517568984203308
 40
0.0
 41
0.0
 42
0.0
 10
473.9385325410792689
 20
454.3910362600902886
 40
0.0
 41
0.0
 42
0.0
 10
475.4392774238709762
 20
454.8462822432258008
 40
0.0
 41
0.0
 42
0.0
 10
477.0
 20
455.0
 40
0.0
 41
0.0
 42
0.0
  0
TEXT
  5
50
330
1D
100
AcDbEntity
  8
0
  6
ByLayer
420
1910582
 48
1.0
 60
0
 67
0
370
-1
100
AcDbText
 39
0.0
 10
648.48828125
 20
443.0
 30
0.0
 40
16.0
  1
72%
 50
0.0
 41
1.0
 51
0.0
  7
Standard
 71
0
 72
0
 11
0.0
 21
0.0
 31
0.0
210
0.0
220
0.0
230
1.0
100
AcDbText
 73
0
  0
HATCH
  5
51
330
1D
100
AcDbEntity
  8
0
  6
ByLayer
420
16777215
 48
1.0
 60
0
 67
0
370
-1
100
AcDbHatch
 30
0.0
210
0.0
220
0.0
230
1.0
  2
SOLID
 70
1
 71
0
 91
1
 92
2
 72
0
 73
1
 93
41
 10
14.0
 20
287.0
 10
417.0
 20
287.0
 10
417.0
 20
287.0
 10
419.73126450822582
 20
286.7309939256452367
 10
422.3575680531112653
 20
285.9343134551580192
 10
424.7779832622744607
 20
284.6405745722356073
 10
426.8994949366116884
 20
282.8994949366116884
 10
428.6405745722356073
 20
280.7779832622744038
 10
429.9343134551580192
 20
278.3575680531112653
 10
430.7309939256452367
 20
275.73126450822582
 10
431.0
 20
273.0
 10
431.0
 20
14.0
 10
431.0
 20
14.0
 10
430.7309939256452367
 20
11.2687354917742368
 10
429.9343134551580192
 20
8.6424319468887916
 10
428.6405745722356073
 20
6.2220167377255393
 10
426.8994949366116884
 20
4.1005050633883684
 10
424.7779832622744607
 20
2.3594254277643358
 10
422.3575680531112653
 20
1.0656865448420376
 10
419.73126450822582
 20
0.2690060743548202
 10
417.0
 20
0.0
 10
14.0
 20
0.0
 10
14.0
 20
0.0
 10
11.2687354917742049
 20
0.2690060743548202
 10
8.6424319468887436
 20
1.0656865448420376
 10
6.2220167377255731
 20
2.3594254277643358
 10
4.1005050633883364
 20
4.1005050633883684
 10
2.3594254277643643
 20
6.2220167377255393
 10
1.0656865448419861
 20
8.6424319468887916
 10
0.269006074354774
 20
11.2687354917742368
 10
0.0
 20
14.0
 10
0.0
 20
273.0
 10
0.0
 20
273.0
 10
0.269006074354774
 20
275.73126450822582
 10
1.0656865448419843
 20
278.3575680531112653
 10
2.3594254277643643
 20
280.7779832622744038
 10
4.1005050633883329
 20
282.8994949366116884
 10
6.2220167377255695
 20
284.6405745722356073
 10
8.6424319468887347
 20
285.9343134551580192
 10
11.2687354917741978
 20
286.7309939256452367
 10
13.9999999999999982
 20
287.0
 97
0
 75
0
 76
1
 47
0.0
 98
0
  0
LWPOLYLINE
  5
52
330
1D
100
AcDbEntity
  8
0
  6
ByLayer
420
14147306
 48
1.0
 60
0
 67
0
370
-1
100
AcDbPolyline
 90
41
 70
1
 43
0.0
 38
0.0
 39
0.0
210
0.0
220
0.0
230
1.0
 10
14.0
 20
287.0
 40
0.0
 41
0.0
 42
0.0
 10
417.0
 20
287.0
 40
0.0
 41
0.0
 42
0.0
 10
417.0
 20
287.0
 40
0.0
 41
0.0
 42
0.0
 10
419.73126450822582
 20
286.7309939256452367
 40
0.0
 41
0.0
 42
0.0
 10
422.3575680531112653
 20
285.9343134551580192
 40
0.0
 41
0.0
 42
0.0
 10
424.7779832622744607
 20
284.6405745722356073
 40
0.0
 41
0.0
 42
0.0
 10
426.8994949366116884
 20
282.8994949366116884
 40
0.0
 41
0.0
 42
0.0
 10
428.6405745722356073
 20
280.7779832622744038
 40
0.0
 41
0.0
 42
0.0
 10
429.9343134551580192
 20
278.3575680531112653
 40
0.0
 41
0.0
 42
0.0
 10
430.7309939256452367
 20
275.73126450822582
 40
0.0
 41
0.0
 42
0.0
 10
431.0
 20
273.0
 40
0.0
 41
0.0
 42
0.0
 10
431.0
 20
14.0
 40
0.0
 41
0.0
 42
0.0
 10
431.0
 20
14.0
 40
0.0
 41
0.0
 42
0.0
 10
430.7309939256452367
 20
11.2687354917742368
 40
0.0
 41
0.0
 42
0.0
 10
429.9343134551580192
 20
8.6424319468887916
 40
0.0
 41
0.0
 42
0.0
 10
428.6405745722356073
 20
6.2220167377255393
 40
0.0
 41
0.0
 42
0.0
 10
426.8994949366116884
 20
4.1005050633883684
 40
0.0
 41
0.0
 42
0.0
 10
424.7779832622744607
 20
2.3594254277643358
 40
0.0
 41
0.0
 42
0.0
 10
422.3575680531112653
 20
1.0656865448420376
 40
0.0
 41
0.0
 42
0.0
 10
419.73126450822582
 20
0.2690060743548202
 40
0.0
 41
0.0
 42
0.0
 10
417.0
 20
0.0
 40
0.0
 41
0.0
 42
0.0
 10
14.0
 20
0.0
 40
0.0
 41
0.0
 42
0.0
 10
14.0
 20
0.0
 40
0.0
 41
0.0
 42
0.0
 10
11.2687354917742049
 20
0.2690060743548202
 40
0.0
 41
0.0
 42
0.0
 10
8.6424319468887436
 20
1.0656865448420376
 40
0.0
 41
0.0
 42
0.0
 10
6.2220167377255731
 20
2.3594254277643358
 40
0.0
 41
0.0
 42
0.0
 10
4.1005050633883364
 20
4.1005050633883684
 40
0.0
 41
0.0
 42
0.0
 10
2.3594254277643643
 20
6.2220167377255393
 40
0.0
 41
0.0
 42
0.0
 10
1.0656865448419861
 20
8.6424319468887916
 40
0.0
 41
0.0
 42
0.0
 10
0.269006074354774
 20
11.2687354917742368
 40
0.0
 41
0.0
 42
0.0
 10
0.0
 20
14.0
 40
0.0
 41
0.0
 42
0.0
 10
0.0
 20
273.0
 40
0.0
 41
0.0
 42
0.0
 10
0.0
 20
273.0
 40
0.0
 41
0.0
 42
0.0
 10
0.269006074354774
 20
275.73126450822582
 40
0.0
 41
0.0
 42
0.0
 10
1.0656865448419843
 20
278.3575680531112653
 40
0.0
 41
0.0
 42
0.0
 10
2.3594254277643643
 20
280.7779832622744038
 40
0.0
 41
0.0
 42
0.0
 10
4.1005050633883329
 20
282.8994949366116884
 40
0.0
 41
0.0
 42
0.0
 10
6.2220167377255695
 20
284.6405745722356073
 40
0.0
 41
0.0
 42
0.0
 10
8.6424319468887347
 20
285.9343134551580192
 40
0.0
 41
0.0
 42
0.0
 10
11.2687354917741978
 20
286.7309939256452367
 40
0.0
 41
0.0
 42
0.0
 10
13.9999999999999982
 20
287.0
 40
0.0
 41
0.0
 42
0.0
  0
TEXT
  5
53
330
1D
100
AcDbEntity
  8
0
  6
ByLayer
420
1910582
 48
1.0
 60
0
 67
0
370
-1
100
AcDbText
 39
0.0
 10
19.0
 20
255.5
 30
0.0
 40
16.0
  1
Date & Time
 50
0.0
 41
1.0
 51
0.0
  7
Standard
 71
0
 72
0
 11
0.0
 21
0.0
 31
0.0
210
0.0
220
0.0
230
1.0
100
AcDbText
 73
0
  0
TEXT
  5
54
330
1D
100
AcDbEntity
  8
0
  6
ByLayer
420
4938352
 48
1.0
 60
0
 67
0
370
-1
100
AcDbText
 39
0.0
 10
19.0
 20
226.0
 30
0.0
 40
12.0
  1
DATE
 50
0.0
 41
1.0
 51
0.0
  7
Standard
 71
0
 72
0
 11
0.0
 21
0.0
 31
0.0
210
0.0
220
0.0
230
1.0
100
AcDbText
 73
0
  0
HATCH
  5
55
330
1D
100
AcDbEntity
  8
0
  6
ByLayer
420
16777215
 48
1.0
 60
0
 67
0
370
-1
100
AcDbHatch
 30
0.0
210
0.0
220
0.0
230
1.0
  2
SOLID
 70
1
 71
0
 91
1
 92
2
 72
0
 73
1
 93
41
 10
27.0
 20
216.0
 10
404.0
 20
216.0
 10
404.0
 20
216.0
 10
405.5607225761290238
 20
215.8462822432258577
 10
407.0614674589207311
 20
215.3910362600902886
 10
408.4445618641568103
 20
214.6517568984203876
 10
409.656854249492369
 20
213.656854249492369
 10
410.6517568984203876
 20
212.4445618641568103
 10
411.3910362600902886
 20
211.0614674589207311
 10
411.8462822432258577
 20
209.5607225761290238
 10
412.0
 20
208.0
 10
412.0
 20
182.0
 10
412.0
 20
182.0
 10
411.8462822432258577
 20
180.4392774238709762
 10
411.3910362600902886
 20
178.9385325410792689
 10
410.6517568984203876
 20
177.5554381358431897
 10
409.656854249492369
 20
176.343145750507631
 10
408.4445618641568103
 20
175.3482431015796124
 10
407.0614674589207311
 20
174.6089637399097114
 10
405.5607225761290238
 20
174.1537177567741423
 10
404.0
 20
174.0
 10
27.0
 20
174.0
 10
27.0
 20
174.0
 10
25.4392774238709762
 20
174.1537177567741423
 10
23.9385325410792831
 20
174.6089637399097114
 10
22.5554381358431826
 20
175.3482431015796124
 10
21.3431457505076203
 20
176.343145750507631
 10
20.3482431015796372
 20
177.5554381358431897
 10
19.6089637399097043
 20
178.9385325410792689
 10
19.1537177567741566
 20
180.4392774238709762
 10
19.0
 20
182.0
 10
19.0
 20
208.0
 10
19.0
 20
208.0
 10
19.1537177567741566
 20
209.5607225761290238
 10
19.6089637399097043
 20
211.0614674589207311
 10
20.3482431015796372
 20
212.4445618641568103
 10
21.3431457505076168
 20
213.656854249492369
 10
22.5554381358431826
 20
214.6517568984203876
 10
23.938532541079276
 20
215.3910362600902886
 10
25.4392774238709691
 20
215.8462822432258577
 10
27.0
 20
216.0
 97
0
 75
0
 76
1
 47
0.0
 98
0
  0
LWPOLYLINE
  5
56
330
1D
100
AcDbEntity
  8
0
  6
ByLayer
420
9741240
 48
1.0
 60
0
 67
0
370
-1
100
AcDbPolyline
 90
41
 70
1
 43
0.0
 38
0.0
 39
0.0
210
0.0
220
0.0
230
1.0
 10
27.0
 20
216.0
 40
0.0
 41
0.0
 42
0.0
 10
404.0
 20
216.0
 40
0.0
 41
0.0
 42
0.0
 10
404.0
 20
216.0
 40
0.0
 41
0.0
 42
0.0
 10
405.5607225761290238
 20
215.8462822432258577
 40
0.0
 41
0.0
 42
0.0
 10
407.0614674589207311
 20
215.3910362600902886
 40
0.0
 41
0.0
 42
0.0
 10
408.4445618641568103
 20
214.6517568984203876
 40
0.0
 41
0.0
 42
0.0
 10
409.656854249492369
 20
213.656854249492369
 40
0.0
 41
0.0
 42
0.0
 10
410.6517568984203876
 20
212.4445618641568103
 40
0.0
 41
0.0
 42
0.0
 10
411.3910362600902886
 20
211.0614674589207311
 40
0.0
 41
0.0
 42
0.0
 10
411.8462822432258577
 20
209.5607225761290238
 40
0.0
 41
0.0
 42
0.0
 10
412.0
 20
208.0
 40
0.0
 41
0.0
 42
0.0
 10
412.0
 20
182.0
 40
0.0
 41
0.0
 42
0.0
 10
412.0
 20
182.0
 40
0.0
 41
0.0
 42
0.0
 10
411.8462822432258577
 20
180.4392774238709762
 40
0.0
 41
0.0
 42
0.0
 10
411.3910362600902886
 20
178.9385325410792689
 40
0.0
 41
0.0
 42
0.0
 10
410.6517568984203876
 20
177.5554381358431897
 40
0.0
 41
0.0
 42
0.0
 10
409.656854249492369
 20
176.343145750507631
 40
0.0
 41
0.0
 42
0.0
 10
408.4445618641568103
 20
175.3482431015796124
 40
0.0
 41
0.0
 42
0.0
 10
407.0614674589207311
 20
174.6089637399097114
 40
0.0
 41
0.0
 42
0.0
 10
405.5607225761290238
 20
174.1537177567741423
 40
0.0
 41
0.0
 42
0.0
 10
404.0
 20
174.0
 40
0.0
 41
0.0
 42
0.0
 10
27.0
 20
174.0
 40
0.0
 41
0.0
 42
0.0
 10
27.0
 20
174.0
 40
0.0
 41
0.0
 42
0.0
 10
25.4392774238709762
 20
174.1537177567741423
 40
0.0
 41
0.0
 42
0.0
 10
23.9385325410792831
 20
174.6089637399097114
 40
0.0
 41
0.0
 42
0.0
 10
22.5554381358431826
 20
175.3482431015796124
 40
0.0
 41
0.0
 42
0.0
 10
21.3431457505076203
 20
176.343145750507631
 40
0.0
 41
0.0
 42
0.0
 10
20.3482431015796372
 20
177.5554381358431897
 40
0.0
 41
0.0
 42
0.0
 10
19.6089637399097043
 20
178.9385325410792689
 40
0.0
 41
0.0
 42
0.0
 10
19.1537177567741566
 20
180.4392774238709762
 40
0.0
 41
0.0
 42
0.0
 10
19.0
 20
182.0
 40
0.0
 41
0.0
 42
0.0
 10
19.0
 20
208.0
 40
0.0
 41
0.0
 42
0.0
 10
19.0
 20
208.0
 40
0.0
 41
0.0
 42
0.0
 10
19.1537177567741566
 20
209.5607225761290238
 40
0.0
 41
0.0
 42
0.0
 10
19.6089637399097043
 20
211.0614674589207311
 40
0.0
 41
0.0
 42
0.0
 10
20.3482431015796372
 20
212.4445618641568103
 40
0.0
 41
0.0
 42
0.0
 10
21.3431457505076168
 20
213.656854249492369
 40
0.0
 41
0.0
 42
0.0
 10
22.5554381358431826
 20
214.6517568984203876
 40
0.0
 41
0.0
 42
0.0
 10
23.938532541079276
 20
215.3910362600902886
 40
0.0
 41
0.0
 42
0.0
 10
25.4392774238709691
 20
215.8462822432258577
 40
0.0
 41
0.0
 42
0.0
 10
27.0
 20
216.0
 40
0.0
 41
0.0
 42
0.0
  0
TEXT
  5
57
330
1D
100
AcDbEntity
  8
0
  6
ByLayer
420
1120295
 48
1.0
 60
0
 67
0
370
-1
100
AcDbText
 39
0.0
 10
31.0
 20
191.0
 30
0.0
 40
16.0
  1
2026-04-13
 50
0.0
 41
1.0
 51
0.0
  7
Standard
 71
0
 72
0
 11
0.0
 21
0.0
 31
0.0
210
0.0
220
0.0
230
1.0
100
AcDbText
 73
0
  0
TEXT
  5
58
330
1D
100
AcDbEntity
  8
0
  6
ByLayer
420
4938352
 48
1.0
 60
0
 67
0
370
-1
100
AcDbText
 39
0.0
 10
19.0
 20
150.0
 30
0.0
 40
12.0
  1
TIME
 50
0.0
 41
1.0
 51
0.0
  7
Standard
 71
0
 72
0
 11
0.0
 21
0.0
 31
0.0
210
0.0
220
0.0
230
1.0
100
AcDbText
 73
0
  0
HATCH
  5
59
330
1D
100
AcDbEntity
  8
0
  6
ByLayer
420
16777215
 48
1.0
 60
0
 67
0
370
-1
100
AcDbHatch
 30
0.0
210
0.0
220
0.0
230
1.0
  2
SOLID
 70
1
 71
0
 91
1
 92
2
 72
0
 73
1
 93
41
 10
27.0
 20
140.0
 10
404.0
 20
140.0
 10
404.0
 20
140.0
 10
405.5607225761290238
 20
139.8462822432258008
 10
407.0614674589207311
 20
139.3910362600903454
 10
408.4445618641568103
 20
138.6517568984203308
 10
409.656854249492369
 20
137.6568542494924259
 10
410.6517568984203876
 20
136.4445618641568672
 10
411.3910362600902886
 20
135.0614674589206743
 10
411.8462822432258577
 20
133.5607225761290238
 10
412.0
 20
132.0
 10
412.0
 20
103.0
 10
412.0
 20
103.0
 10
411.8462822432258577
 20
101.4392774238709762
 10
411.3910362600902886
 20
99.9385325410793257
 10
410.6517568984203876
 20
98.5554381358431328
 10
409.656854249492369
 20
97.3431457505075741
 10
408.4445618641568103
 20
96.3482431015796692
 10
407.0614674589207311
 20
95.6089637399096546
 10
405.5607225761290238
 20
95.1537177567741992
 10
404.0
 20
95.0
 10
27.0
 20
95.0
 10
27.0
 20
95.0
 10
25.4392774238709762
 20
95.1537177567741992
 10
23.9385325410792831
 20
95.6089637399096546
 10
22.5554381358431826
 20
96.3482431015796692
 10
21.3431457505076203
 20
97.3431457505075741
 10
20.3482431015796372
 20
98.5554381358431328
 10
19.6089637399097043
 20
99.9385325410793257
 10
19.1537177567741566
 20
101.4392774238709762
 10
19.0
 20
103.0
 10
19.0
 20
132.0
 10
19.0
 20
132.0
 10
19.1537177567741566
 20
133.5607225761290238
 10
19.6089637399097043
 20
135.0614674589206743
 10
20.3482431015796372
 20
136.4445618641568672
 10
21.3431457505076168
 20
137.6568542494924259
 10
22.5554381358431826
 20
138.6517568984203308
 10
23.938532541079276
 20
139.3910362600903454
 10
25.4392774238709691
 20
139.8462822432258008
 10
27.0
 20
140.0
 97
0
 75
0
 76
1
 47
0.0
 98
0
  0
LWPOLYLINE
  5
5A
330
1D
100
AcDbEntity
  8
0
  6
ByLayer
420
9741240
 48
1.0
 60
0
 67
0
370
-1
100
AcDbPolyline
 90
41
 70
1
 43
0.0
 38
0.0
 39
0.0
210
0.0
220
0.0
230
1.0
 10
27.0
 20
140.0
 40
0.0
 41
0.0
 42
0.0
 10
404.0
 20
140.0
 40
0.0
 41
0.0
 42
0.0
 10
404.0
 20
140.0
 40
0.0
 41
0.0
 42
0.0
 10
405.5607225761290238
 20
139.8462822432258008
 40
0.0
 41
0.0
 42
0.0
 10
407.0614674589207311
 20
139.3910362600903454
 40
0.0
 41
0.0
 42
0.0
 10
408.4445618641568103
 20
138.6517568984203308
 40
0.0
 41
0.0
 42
0.0
 10
409.656854249492369
 20
137.6568542494924259
 40
0.0
 41
0.0
 42
0.0
 10
410.6517568984203876
 20
136.4445618641568672
 40
0.0
 41
0.0
 42
0.0
 10
411.3910362600902886
 20
135.0614674589206743
 40
0.0
 41
0.0
 42
0.0
 10
411.8462822432258577
 20
133.5607225761290238
 40
0.0
 41
0.0
 42
0.0
 10
412.0
 20
132.0
 40
0.0
 41
0.0
 42
0.0
 10
412.0
 20
103.0
 40
0.0
 41
0.0
 42
0.0
 10
412.0
 20
103.0
 40
0.0
 41
0.0
 42
0.0
 10
411.8462822432258577
 20
101.4392774238709762
 40
0.0
 41
0.0
 42
0.0
 10
411.3910362600902886
 20
99.9385325410793257
 40
0.0
 41
0.0
 42
0.0
 10
410.6517568984203876
 20
98.5554381358431328
 40
0.0
 41
0.0
 42
0.0
 10
409.656854249492369
 20
97.3431457505075741
 40
0.0
 41
0.0
 42
0.0
 10
408.4445618641568103
 20
96.3482431015796692
 40
0.0
 41
0.0
 42
0.0
 10
407.0614674589207311
 20
95.6089637399096546
 40
0.0
 41
0.0
 42
0.0
 10
405.5607225761290238
 20
95.1537177567741992
 40
0.0
 41
0.0
 42
0.0
 10
404.0
 20
95.0
 40
0.0
 41
0.0
 42
0.0
 10
27.0
 20
95.0
 40
0.0
 41
0.0
 42
0.0
 10
27.0
 20
95.0
 40
0.0
 41
0.0
 42
0.0
 10
25.4392774238709762
 20
95.1537177567741992
 40
0.0
 41
0.0
 42
0.0
 10
23.9385325410792831
 20
95.6089637399096546
 40
0.0
 41
0.0
 42
0.0
 10
22.5554381358431826
 20
96.3482431015796692
 40
0.0
 41
0.0
 42
0.0
 10
21.3431457505076203
 20
97.3431457505075741
 40
0.0
 41
0.0
 42
0.0
 10
20.3482431015796372
 20
98.5554381358431328
 40
0.0
 41
0.0
 42
0.0
 10
19.6089637399097043
 20
99.9385325410793257
 40
0.0
 41
0.0
 42
0.0
 10
19.1537177567741566
 20
101.4392774238709762
 40
0.0
 41
0.0
 42
0.0
 10
19.0
 20
103.0
 40
0.0
 41
0.0
 42
0.0
 10
19.0
 20
132.0
 40
0.0
 41
0.0
 42
0.0
 10
19.0
 20
132.0
 40
0.0
 41
0.0
 42
0.0
 10
19.1537177567741566
 20
133.5607225761290238
 40
0.0
 41
0.0
 42
0.0
 10
19.6089637399097043
 20
135.0614674589206743
 40
0.0
 41
0.0
 42
0.0
 10
20.3482431015796372
 20
136.4445618641568672
 40
0.0
 41
0.0
 42
0.0
 10
21.3431457505076168
 20
137.6568542494924259
 40
0.0
 41
0.0
 42
0.0
 10
22.5554381358431826
 20
138.6517568984203308
 40
0.0
 41
0.0
 42
0.0
 10
23.938532541079276
 20
139.3910362600903454
 40
0.0
 41
0.0
 42
0.0
 10
25.4392774238709691
 20
139.8462822432258008
 40
0.0
 41
0.0
 42
0.0
 10
27.0
 20
140.0
 40
0.0
 41
0.0
 42
0.0
  0
TEXT
  5
5B
330
1D
100
AcDbEntity
  8
0
  6
ByLayer
420
1120295
 48
1.0
 60
0
 67
0
370
-1
100
AcDbText
 39
0.0
 10
31.0
 20
113.5
 30
0.0
 40
16.0
  1
14:35
 50
0.0
 41
1.0
 51
0.0
  7
Standard
 71
0
 72
0
 11
0.0
 21
0.0
 31
0.0
210
0.0
220
0.0
230
1.0
100
AcDbText
 73
0
  0
TEXT
  5
5C
330
1D
100
AcDbEntity
  8
0
  6
ByLayer
420
4938352
 48
1.0
 60
0
 67
0
370
-1
100
AcDbText
 39
0.0
 10
19.0
 20
71.0
 30
0.0
 40
12.0
  1
DATETIME
 50
0.0
 41
1.0
 51
0.0
  7
Standard
 71
0
 72
0
 11
0.0
 21
0.0
 31
0.0
210
0.0
220
0.0
230
1.0
100
AcDbText
 73
0
  0
HATCH
  5
5D
330
1D
100
AcDbEntity
  8
0
  6
ByLayer
420
16777215
 48
1.0
 60
0
 67
0
370
-1
100
AcDbHatch
 30
0.0
210
0.0
220
0.0
230
1.0
  2
SOLID
 70
1
 71
0
 91
1
 92
2
 72
0
 73
1
 93
41
 10
27.0
 20
61.0
 10
404.0
 20
61.0
 10
404.0
 20
61.0
 10
405.5607225761290238
 20
60.8462822432258008
 10
407.0614674589207311
 20
60.3910362600903454
 10
408.4445618641568103
 20
59.6517568984203308
 10
409.656854249492369
 20
58.6568542494924259
 10
410.6517568984203876
 20
57.4445618641568672
 10
411.3910362600902886
 20
56.0614674589206743
 10
411.8462822432258577
 20
54.5607225761290238
 10
412.0
 20
53.0
 10
412.0
 20
27.0
 10
412.0
 20
27.0
 10
411.8462822432258577
 20
25.4392774238709762
 10
411.3910362600902886
 20
23.9385325410793257
 10
410.6517568984203876
 20
22.5554381358431328
 10
409.656854249492369
 20
21.3431457505075741
 10
408.4445618641568103
 20
20.3482431015796692
 10
407.0614674589207311
 20
19.6089637399096546
 10
405.5607225761290238
 20
19.1537177567741992
 10
404.0
 20
19.0
 10
27.0
 20
19.0
 10
27.0
 20
19.0
 10
25.4392774238709762
 20
19.1537177567741992
 10
23.9385325410792831
 20
19.6089637399096546
 10
22.5554381358431826
 20
20.3482431015796692
 10
21.3431457505076203
 20
21.3431457505075741
 10
20.3482431015796372
 20
22.5554381358431328
 10
19.6089637399097043
 20
23.9385325410793257
 10
19.1537177567741566
 20
25.4392774238709762
 10
19.0
 20
27.0
 10
19.0
 20
53.0
 10
19.0
 20
53.0
 10
19.1537177567741566
 20
54.5607225761290238
 10
19.6089637399097043
 20
56.0614674589206743
 10
20.3482431015796372
 20
57.4445618641568672
 10
21.3431457505076168
 20
58.6568542494924259
 10
22.5554381358431826
 20
59.6517568984203308
 10
23.938532541079276
 20
60.3910362600903454
 10
25.4392774238709691
 20
60.8462822432258008
 10
27.0
 20
61.0
 97
0
 75
0
 76
1
 47
0.0
 98
0
  0
LWPOLYLINE
  5
5E
330
1D
100
AcDbEntity
  8
0
  6
ByLayer
420
9741240
 48
1.0
 60
0
 67
0
370
-1
100
AcDbPolyline
 90
41
 70
1
 43
0.0
 38
0.0
 39
0.0
210
0.0
220
0.0
230
1.0
 10
27.0
 20
61.0
 40
0.0
 41
0.0
 42
0.0
 10
404.0
 20
61.0
 40
0.0
 41
0.0
 42
0.0
 10
404.0
 20
61.0
 40
0.0
 41
0.0
 42
0.0
 10
405.5607225761290238
 20
60.8462822432258008
 40
0.0
 41
0.0
 42
0.0
 10
407.0614674589207311
 20
60.3910362600903454
 40
0.0
 41
0.0
 42
0.0
 10
408.4445618641568103
 20
59.6517568984203308
 40
0.0
 41
0.0
 42
0.0
 10
409.656854249492369
 20
58.6568542494924259
 40
0.0
 41
0.0
 42
0.0
 10
410.6517568984203876
 20
57.4445618641568672
 40
0.0
 41
0.0
 42
0.0
 10
411.3910362600902886
 20
56.0614674589206743
 40
0.0
 41
0.0
 42
0.0
 10
411.8462822432258577
 20
54.5607225761290238
 40
0.0
 41
0.0
 42
0.0
 10
412.0
 20
53.0
 40
0.0
 41
0.0
 42
0.0
 10
412.0
 20
27.0
 40
0.0
 41
0.0
 42
0.0
 10
412.0
 20
27.0
 40
0.0
 41
0.0
 42
0.0
 10
411.8462822432258577
 20
25.4392774238709762
 40
0.0
 41
0.0
 42
0.0
 10
411.3910362600902886
 20
23.9385325410793257
 40
0.0
 41
0.0
 42
0.0
 10
410.6517568984203876
 20
22.5554381358431328
 40
0.0
 41
0.0
 42
0.0
 10
409.656854249492369
 20
21.3431457505075741
 40
0.0
 41
0.0
 42
0.0
 10
408.4445618641568103
 20
20.3482431015796692
 40
0.0
 41
0.0
 42
0.0
 10
407.0614674589207311
 20
19.6089637399096546
 40
0.0
 41
0.0
 42
0.0
 10
405.5607225761290238
 20
19.1537177567741992
 40
0.0
 41
0.0
 42
0.0
 10
404.0
 20
19.0
 40
0.0
 41
0.0
 42
0.0
 10
27.0
 20
19.0
 40
0.0
 41
0.0
 42
0.0
 10
27.0
 20
19.0
 40
0.0
 41
0.0
 42
0.0
 10
25.4392774238709762
 20
19.1537177567741992
 40
0.0
 41
0.0
 42
0.0
 10
23.9385325410792831
 20
19.6089637399096546
 40
0.0
 41
0.0
 42
0.0
 10
22.5554381358431826
 20
20.3482431015796692
 40
0.0
 41
0.0
 42
0.0
 10
21.3431457505076203
 20
21.3431457505075741
 40
0.0
 41
0.0
 42
0.0
 10
20.3482431015796372
 20
22.5554381358431328
 40
0.0
 41
0.0
 42
0.0
 10
19.6089637399097043
 20
23.9385325410793257
 40
0.0
 41
0.0
 42
0.0
 10
19.1537177567741566
 20
25.4392774238709762
 40
0.0
 41
0.0
 42
0.0
 10
19.0
 20
27.0
 40
0.0
 41
0.0
 42
0.0
 10
19.0
 20
53.0
 40
0.0
 41
0.0
 42
0.0
 10
19.0
 20
53.0
 40
0.0
 41
0.0
 42
0.0
 10
19.1537177567741566
 20
54.5607225761290238
 40
0.0
 41
0.0
 42
0.0
 10
19.6089637399097043
 20
56.0614674589206743
 40
0.0
 41
0.0
 42
0.0
 10
20.3482431015796372
 20
57.4445618641568672
 40
0.0
 41
0.0
 42
0.0
 10
21.3431457505076168
 20
58.6568542494924259
 40
0.0
 41
0.0
 42
0.0
 10
22.5554381358431826
 20
59.6517568984203308
 40
0.0
 41
0.0
 42
0.0
 10
23.938532541079276
 20
60.3910362600903454
 40
0.0
 41
0.0
 42
0.0
 10
25.4392774238709691
 20
60.8462822432258008
 40
0.0
 41
0.0
 42
0.0
 10
27.0
 20
61.0
 40
0.0
 41
0.0
 42
0.0
  0
TEXT
  5
5F
330
1D
100
AcDbEntity
  8
0
  6
ByLayer
420
1120295
 48
1.0
 60
0
 67
0
370
-1
100
AcDbText
 39
0.0
 10
31.0
 20
36.0
 30
0.0
 40
16.0
  1
2026-04-13 14:35
 50
0.0
 41
1.0
 51
0.0
  7
Standard
 71
0
 72
0
 11
0.0
 21
0.0
 31
0.0
210
0.0
220
0.0
230
1.0
100
AcDbText
 73
0
  0
HATCH
  5
60
330
1D
100
AcDbEntity
  8
0
  6
ByLayer
420
16777215
 48
1.0
 60
0
 67
0
370
-1
100
AcDbHatch
 30
0.0
210
0.0
220
0.0
230
1.0
  2
SOLID
 70
1
 71
0
 91
1
 92
2
 72
0
 73
1
 93
41
 10
463.0
 20
287.0
 10
866.0
 20
287.0
 10
866.0
 20
287.0
 10
868.7312645082257632
 20
286.7309939256452367
 10
871.3575680531112084
 20
285.9343134551580192
 10
873.7779832622744607
 20
284.6405745722356073
 10
875.8994949366116316
 20
282.8994949366116884
 10
877.6405745722356642
 20
280.7779832622744038
 10
878.9343134551579624
 20
278.3575680531112653
 10
879.7309939256451798
 20
275.73126450822582
 10
880.0
 20
273.0
 10
880.0
 20
14.0
 10
880.0
 20
14.0
 10
879.7309939256451798
 20
11.2687354917742368
 10
878.9343134551579624
 20
8.6424319468887916
 10
877.6405745722356642
 20
6.2220167377255393
 10
875.8994949366116316
 20
4.1005050633883684
 10
873.7779832622744607
 20
2.3594254277643358
 10
871.3575680531112084
 20
1.0656865448420376
 10
868.7312645082257632
 20
0.2690060743548202
 10
866.0
 20
0.0
 10
463.0
 20
0.0
 10
463.0
 20
0.0
 10
460.26873549177418
 20
0.2690060743548202
 10
457.6424319468887347
 20
1.0656865448420376
 10
455.2220167377255962
 20
2.3594254277643358
 10
453.1005050633883116
 20
4.1005050633883684
 10
451.3594254277643358
 20
6.2220167377255393
 10
450.0656865448419808
 20
8.6424319468887916
 10
449.2690060743547633
 20
11.2687354917742368
 10
449.0
 20
14.0
 10
449.0
 20
273.0
 10
449.0
 20
273.0
 10
449.2690060743547633
 20
275.73126450822582
 10
450.0656865448419808
 20
278.3575680531112653
 10
451.3594254277643358
 20
280.7779832622744038
 10
453.1005050633883116
 20
282.8994949366116884
 10
455.2220167377255962
 20
284.6405745722356073
 10
457.6424319468887347
 20
285.9343134551580192
 10
460.26873549177418
 20
286.7309939256452367
 10
463.0
 20
287.0
 97
0
 75
0
 76
1
 47
0.0
 98
0
  0
LWPOLYLINE
  5
61
330
1D
100
AcDbEntity
  8
0
  6
ByLayer
420
14147306
 48
1.0
 60
0
 67
0
370
-1
100
AcDbPolyline
 90
41
 70
1
 43
0.0
 38
0.0
 39
0.0
210
0.0
220
0.0
230
1.0
 10
463.0
 20
287.0
 40
0.0
 41
0.0
 42
0.0
 10
866.0
 20
287.0
 40
0.0
 41
0.0
 42
0.0
 10
866.0
 20
287.0
 40
0.0
 41
0.0
 42
0.0
 10
868.7312645082257632
 20
286.7309939256452367
 40
0.0
 41
0.0
 42
0.0
 10
871.3575680531112084
 20
285.9343134551580192
 40
0.0
 41
0.0
 42
0.0
 10
873.7779832622744607
 20
284.6405745722356073
 40
0.0
 41
0.0
 42
0.0
 10
875.8994949366116316
 20
282.8994949366116884
 40
0.0
 41
0.0
 42
0.0
 10
877.6405745722356642
 20
280.7779832622744038
 40
0.0
 41
0.0
 42
0.0
 10
878.9343134551579624
 20
278.3575680531112653
 40
0.0
 41
0.0
 42
0.0
 10
879.7309939256451798
 20
275.73126450822582
 40
0.0
 41
0.0
 42
0.0
 10
880.0
 20
273.0
 40
0.0
 41
0.0
 42
0.0
 10
880.0
 20
14.0
 40
0.0
 41
0.0
 42
0.0
 10
880.0
 20
14.0
 40
0.0
 41
0.0
 42
0.0
 10
879.7309939256451798
 20
11.2687354917742368
 40
0.0
 41
0.0
 42
0.0
 10
878.9343134551579624
 20
8.6424319468887916
 40
0.0
 41
0.0
 42
0.0
 10
877.6405745722356642
 20
6.2220167377255393
 40
0.0
 41
0.0
 42
0.0
 10
875.8994949366116316
 20
4.1005050633883684
 40
0.0
 41
0.0
 42
0.0
 10
873.7779832622744607
 20
2.3594254277643358
 40
0.0
 41
0.0
 42
0.0
 10
871.3575680531112084
 20
1.0656865448420376
 40
0.0
 41
0.0
 42
0.0
 10
868.7312645082257632
 20
0.2690060743548202
 40
0.0
 41
0.0
 42
0.0
 10
866.0
 20
0.0
 40
0.0
 41
0.0
 42
0.0
 10
463.0
 20
0.0
 40
0.0
 41
0.0
 42
0.0
 10
463.0
 20
0.0
 40
0.0
 41
0.0
 42
0.0
 10
460.26873549177418
 20
0.2690060743548202
 40
0.0
 41
0.0
 42
0.0
 10
457.6424319468887347
 20
1.0656865448420376
 40
0.0
 41
0.0
 42
0.0
 10
455.2220167377255962
 20
2.3594254277643358
 40
0.0
 41
0.0
 42
0.0
 10
453.1005050633883116
 20
4.1005050633883684
 40
0.0
 41
0.0
 42
0.0
 10
451.3594254277643358
 20
6.2220167377255393
 40
0.0
 41
0.0
 42
0.0
 10
450.0656865448419808
 20
8.6424319468887916
 40
0.0
 41
0.0
 42
0.0
 10
449.2690060743547633
 20
11.2687354917742368
 40
0.0
 41
0.0
 42
0.0
 10
449.0
 20
14.0
 40
0.0
 41
0.0
 42
0.0
 10
449.0
 20
273.0
 40
0.0
 41
0.0
 42
0.0
 10
449.0
 20
273.0
 40
0.0
 41
0.0
 42
0.0
 10
449.2690060743547633
 20
275.73126450822582
 40
0.0
 41
0.0
 42
0.0
 10
450.0656865448419808
 20
278.3575680531112653
 40
0.0
 41
0.0
 42
0.0
 10
451.3594254277643358
 20
280.7779832622744038
 40
0.0
 41
0.0
 42
0.0
 10
453.1005050633883116
 20
282.8994949366116884
 40
0.0
 41
0.0
 42
0.0
 10
455.2220167377255962
 20
284.6405745722356073
 40
0.0
 41
0.0
 42
0.0
 10
457.6424319468887347
 20
285.9343134551580192
 40
0.0
 41
0.0
 42
0.0
 10
460.26873549177418
 20
286.7309939256452367
 40
0.0
 41
0.0
 42
0.0
 10
463.0
 20
287.0
 40
0.0
 41
0.0
 42
0.0
  0
TEXT
  5
62
330
1D
100
AcDbEntity
  8
0
  6
ByLayer
420
1910582
 48
1.0
 60
0
 67
0
370
-1
100
AcDbText
 39
0.0
 10
468.0
 20
255.5
 30
0.0
 40
16.0
  1
Additional Inputs
 50
0.0
 41
1.0
 51
0.0
  7
Standard
 71
0
 72
0
 11
0.0
 21
0.0
 31
0.0
210
0.0
220
0.0
230
1.0
100
AcDbText
 73
0
  0
TEXT
  5
63
330
1D
100
AcDbEntity
  8
0
  6
ByLayer
420
4938352
 48
1.0
 60
0
 67
0
370
-1
100
AcDbText
 39
0.0
 10
468.0
 20
226.0
 30
0.0
 40
12.0
  1
MONTH
 50
0.0
 41
1.0
 51
0.0
  7
Standard
 71
0
 72
0
 11
0.0
 21
0.0
 31
0.0
210
0.0
220
0.0
230
1.0
100
AcDbText
 73
0
  0
HATCH
  5
64
330
1D
100
AcDbEntity
  8
0
  6
ByLayer
420
16777215
 48
1.0
 60
0
 67
0
370
-1
100
AcDbHatch
 30
0.0
210
0.0
220
0.0
230
1.0
  2
SOLID
 70
1
 71
0
 91
1
 92
2
 72
0
 73
1
 93
41
 10
476.0
 20
216.0
 10
853.0
 20
216.0
 10
853.0
 20
216.0
 10
854.5607225761290238
 20
215.8462822432258577
 10
856.0614674589206743
 20
215.3910362600902886
 10
857.4445618641568672
 20
214.6517568984203876
 10
858.6568542494924259
 20
213.656854249492369
 10
859.6517568984203308
 20
212.4445618641568103
 10
860.3910362600903454
 20
211.0614674589207311
 10
860.8462822432258008
 20
209.5607225761290238
 10
861.0
 20
208.0
 10
861.0
 20
182.0
 10
861.0
 20
182.0
 10
860.8462822432258008
 20
180.4392774238709762
 10
860.3910362600903454
 20
178.9385325410792689
 10
859.6517568984203308
 20
177.5554381358431897
 10
858.6568542494924259
 20
176.343145750507631
 10
857.4445618641568672
 20
175.3482431015796124
 10
856.0614674589206743
 20
174.6089637399097114
 10
854.5607225761290238
 20
174.1537177567741423
 10
853.0
 20
174.0
 10
476.0
 20
174.0
 10
476.0
 20
174.0
 10
474.4392774238709762
 20
174.1537177567741423
 10
472.9385325410792689
 20
174.6089637399097114
 10
471.5554381358431897
 20
175.3482431015796124
 10
470.343145750507631
 20
176.343145750507631
 10
469.3482431015796124
 20
177.5554381358431897
 10
468.6089637399097114
 20
178.9385325410792689
 10
468.1537177567741423
 20
180.4392774238709762
 10
468.0
 20
182.0
 10
468.0
 20
208.0
 10
468.0
 20
208.0
 10
468.1537177567741423
 20
209.5607225761290238
 10
468.6089637399097114
 20
211.0614674589207311
 10
469.3482431015796124
 20
212.4445618641568103
 10
470.343145750507631
 20
213.656854249492369
 10
471.5554381358431897
 20
214.6517568984203876
 10
472.9385325410792689
 20
215.3910362600902886
 10
474.4392774238709762
 20
215.8462822432258577
 10
476.0
 20
216.0
 97
0
 75
0
 76
1
 47
0.0
 98
0
  0
LWPOLYLINE
  5
65
330
1D
100
AcDbEntity
  8
0
  6
ByLayer
420
9741240
 48
1.0
 60
0
 67
0
370
-1
100
AcDbPolyline
 90
41
 70
1
 43
0.0
 38
0.0
 39
0.0
210
0.0
220
0.0
230
1.0
 10
476.0
 20
216.0
 40
0.0
 41
0.0
 42
0.0
 10
853.0
 20
216.0
 40
0.0
 41
0.0
 42
0.0
 10
853.0
 20
216.0
 40
0.0
 41
0.0
 42
0.0
 10
854.5607225761290238
 20
215.8462822432258577
 40
0.0
 41
0.0
 42
0.0
 10
856.0614674589206743
 20
215.3910362600902886
 40
0.0
 41
0.0
 42
0.0
 10
857.4445618641568672
 20
214.6517568984203876
 40
0.0
 41
0.0
 42
0.0
 10
858.6568542494924259
 20
213.656854249492369
 40
0.0
 41
0.0
 42
0.0
 10
859.6517568984203308
 20
212.4445618641568103
 40
0.0
 41
0.0
 42
0.0
 10
860.3910362600903454
 20
211.0614674589207311
 40
0.0
 41
0.0
 42
0.0
 10
860.8462822432258008
 20
209.5607225761290238
 40
0.0
 41
0.0
 42
0.0
 10
861.0
 20
208.0
 40
0.0
 41
0.0
 42
0.0
 10
861.0
 20
182.0
 40
0.0
 41
0.0
 42
0.0
 10
861.0
 20
182.0
 40
0.0
 41
0.0
 42
0.0
 10
860.8462822432258008
 20
180.4392774238709762
 40
0.0
 41
0.0
 42
0.0
 10
860.3910362600903454
 20
178.9385325410792689
 40
0.0
 41
0.0
 42
0.0
 10
859.6517568984203308
 20
177.5554381358431897
 40
0.0
 41
0.0
 42
0.0
 10
858.6568542494924259
 20
176.343145750507631
 40
0.0
 41
0.0
 42
0.0
 10
857.4445618641568672
 20
175.3482431015796124
 40
0.0
 41
0.0
 42
0.0
 10
856.0614674589206743
 20
174.6089637399097114
 40
0.0
 41
0.0
 42
0.0
 10
854.5607225761290238
 20
174.1537177567741423
 40
0.0
 41
0.0
 42
0.0
 10
853.0
 20
174.0
 40
0.0
 41
0.0
 42
0.0
 10
476.0
 20
174.0
 40
0.0
 41
0.0
 42
0.0
 10
476.0
 20
174.0
 40
0.0
 41
0.0
 42
0.0
 10
474.4392774238709762
 20
174.1537177567741423
 40
0.0
 41
0.0
 42
0.0
 10
472.9385325410792689
 20
174.6089637399097114
 40
0.0
 41
0.0
 42
0.0
 10
471.5554381358431897
 20
175.3482431015796124
 40
0.0
 41
0.0
 42
0.0
 10
470.343145750507631
 20
176.343145750507631
 40
0.0
 41
0.0
 42
0.0
 10
469.3482431015796124
 20
177.5554381358431897
 40
0.0
 41
0.0
 42
0.0
 10
468.6089637399097114
 20
178.9385325410792689
 40
0.0
 41
0.0
 42
0.0
 10
468.1537177567741423
 20
180.4392774238709762
 40
0.0
 41
0.0
 42
0.0
 10
468.0
 20
182.0
 40
0.0
 41
0.0
 42
0.0
 10
468.0
 20
208.0
 40
0.0
 41
0.0
 42
0.0
 10
468.0
 20
208.0
 40
0.0
 41
0.0
 42
0.0
 10
468.1537177567741423
 20
209.5607225761290238
 40
0.0
 41
0.0
 42
0.0
 10
468.6089637399097114
 20
211.0614674589207311
 40
0.0
 41
0.0
 42
0.0
 10
469.3482431015796124
 20
212.4445618641568103
 40
0.0
 41
0.0
 42
0.0
 10
470.343145750507631
 20
213.656854249492369
 40
0.0
 41
0.0
 42
0.0
 10
471.5554381358431897
 20
214.6517568984203876
 40
0.0
 41
0.0
 42
0.0
 10
472.9385325410792689
 20
215.3910362600902886
 40
0.0
 41
0.0
 42
0.0
 10
474.4392774238709762
 20
215.8462822432258577
 40
0.0
 41
0.0
 42
0.0
 10
476.0
 20
216.0
 40
0.0
 41
0.0
 42
0.0
  0
TEXT
  5
66
330
1D
100
AcDbEntity
  8
0
  6
ByLayer
420
1120295
 48
1.0
 60
0
 67
0
370
-1
100
AcDbText
 39
0.0
 10
480.0
 20
191.0
 30
0.0
 40
16.0
  1
2026-04
 50
0.0
 41
1.0
 51
0.0
  7
Standard
 71
0
 72
0
 11
0.0
 21
0.0
 31
0.0
210
0.0
220
0.0
230
1.0
100
AcDbText
 73
0
  0
TEXT
  5
67
330
1D
100
AcDbEntity
  8
0
  6
ByLayer
420
4938352
 48
1.0
 60
0
 67
0
370
-1
100
AcDbText
 39
0.0
 10
468.0
 20
150.0
 30
0.0
 40
12.0
  1
WEEK
 50
0.0
 41
1.0
 51
0.0
  7
Standard
 71
0
 72
0
 11
0.0
 21
0.0
 31
0.0
210
0.0
220
0.0
230
1.0
100
AcDbText
 73
0
  0
HATCH
  5
68
330
1D
100
AcDbEntity
  8
0
  6
ByLayer
420
16777215
 48
1.0
 60
0
 67
0
370
-1
100
AcDbHatch
 30
0.0
210
0.0
220
0.0
230
1.0
  2
SOLID
 70
1
 71
0
 91
1
 92
2
 72
0
 73
1
 93
41
 10
476.0
 20
140.0
 10
853.0
 20
140.0
 10
853.0
 20
140.0
 10
854.5607225761290238
 20
139.8462822432258008
 10
856.0614674589206743
 20
139.3910362600903454
 10
857.4445618641568672
 20
138.6517568984203308
 10
858.6568542494924259
 20
137.6568542494924259
 10
859.6517568984203308
 20
136.4445618641568672
 10
860.3910362600903454
 20
135.0614674589206743
 10
860.8462822432258008
 20
133.5607225761290238
 10
861.0
 20
132.0
 10
861.0
 20
106.0
 10
861.0
 20
106.0
 10
860.8462822432258008
 20
104.4392774238709762
 10
860.3910362600903454
 20
102.9385325410793257
 10
859.6517568984203308
 20
101.5554381358431328
 10
858.6568542494924259
 20
100.3431457505075741
 10
857.4445618641568672
 20
99.3482431015796692
 10
856.0614674589206743
 20
98.6089637399096546
 10
854.5607225761290238
 20
98.1537177567741992
 10
853.0
 20
98.0
 10
476.0
 20
98.0
 10
476.0
 20
98.0
 10
474.4392774238709762
 20
98.1537177567741992
 10
472.9385325410792689
 20
98.6089637399096546
 10
471.5554381358431897
 20
99.3482431015796692
 10
470.343145750507631
 20
100.3431457505075741
 10
469.3482431015796124
 20
101.5554381358431328
 10
468.6089637399097114
 20
102.9385325410793257
 10
468.1537177567741423
 20
104.4392774238709762
 10
468.0
 20
106.0
 10
468.0
 20
132.0
 10
468.0
 20
132.0
 10
468.1537177567741423
 20
133.5607225761290238
 10
468.6089637399097114
 20
135.0614674589206743
 10
469.3482431015796124
 20
136.4445618641568672
 10
470.343145750507631
 20
137.6568542494924259
 10
471.5554381358431897
 20
138.6517568984203308
 10
472.9385325410792689
 20
139.3910362600903454
 10
474.4392774238709762
 20
139.8462822432258008
 10
476.0
 20
140.0
 97
0
 75
0
 76
1
 47
0.0
 98
0
  0
LWPOLYLINE
  5
69
330
1D
100
AcDbEntity
  8
0
  6
ByLayer
420
9741240
 48
1.0
 60
0
 67
0
370
-1
100
AcDbPolyline
 90
41
 70
1
 43
0.0
 38
0.0
 39
0.0
210
0.0
220
0.0
230
1.0
 10
476.0
 20
140.0
 40
0.0
 41
0.0
 42
0.0
 10
853.0
 20
140.0
 40
0.0
 41
0.0
 42
0.0
 10
853.0
 20
140.0
 40
0.0
 41
0.0
 42
0.0
 10
854.5607225761290238
 20
139.8462822432258008
 40
0.0
 41
0.0
 42
0.0
 10
856.0614674589206743
 20
139.3910362600903454
 40
0.0
 41
0.0
 42
0.0
 10
857.4445618641568672
 20
138.6517568984203308
 40
0.0
 41
0.0
 42
0.0
 10
858.6568542494924259
 20
137.6568542494924259
 40
0.0
 41
0.0
 42
0.0
 10
859.6517568984203308
 20
136.4445618641568672
 40
0.0
 41
0.0
 42
0.0
 10
860.3910362600903454
 20
135.0614674589206743
 40
0.0
 41
0.0
 42
0.0
 10
860.8462822432258008
 20
133.5607225761290238
 40
0.0
 41
0.0
 42
0.0
 10
861.0
 20
132.0
 40
0.0
 41
0.0
 42
0.0
 10
861.0
 20
106.0
 40
0.0
 41
0.0
 42
0.0
 10
861.0
 20
106.0
 40
0.0
 41
0.0
 42
0.0
 10
860.8462822432258008
 20
104.4392774238709762
 40
0.0
 41
0.0
 42
0.0
 10
860.3910362600903454
 20
102.9385325410793257
 40
0.0
 41
0.0
 42
0.0
 10
859.6517568984203308
 20
101.5554381358431328
 40
0.0
 41
0.0
 42
0.0
 10
858.6568542494924259
 20
100.3431457505075741
 40
0.0
 41
0.0
 42
0.0
 10
857.4445618641568672
 20
99.3482431015796692
 40
0.0
 41
0.0
 42
0.0
 10
856.0614674589206743
 20
98.6089637399096546
 40
0.0
 41
0.0
 42
0.0
 10
854.5607225761290238
 20
98.1537177567741992
 40
0.0
 41
0.0
 42
0.0
 10
853.0
 20
98.0
 40
0.0
 41
0.0
 42
0.0
 10
476.0
 20
98.0
 40
0.0
 41
0.0
 42
0.0
 10
476.0
 20
98.0
 40
0.0
 41
0.0
 42
0.0
 10
474.4392774238709762
 20
98.1537177567741992
 40
0.0
 41
0.0
 42
0.0
 10
472.9385325410792689
 20
98.6089637399096546
 40
0.0
 41
0.0
 42
0.0
 10
471.5554381358431897
 20
99.3482431015796692
 40
0.0
 41
0.0
 42
0.0
 10
470.343145750507631
 20
100.3431457505075741
 40
0.0
 41
0.0
 42
0.0
 10
469.3482431015796124
 20
101.5554381358431328
 40
0.0
 41
0.0
 42
0.0
 10
468.6089637399097114
 20
102.9385325410793257
 40
0.0
 41
0.0
 42
0.0
 10
468.1537177567741423
 20
104.4392774238709762
 40
0.0
 41
0.0
 42
0.0
 10
468.0
 20
106.0
 40
0.0
 41
0.0
 42
0.0
 10
468.0
 20
132.0
 40
0.0
 41
0.0
 42
0.0
 10
468.0
 20
132.0
 40
0.0
 41
0.0
 42
0.0
 10
468.1537177567741423
 20
133.5607225761290238
 40
0.0
 41
0.0
 42
0.0
 10
468.6089637399097114
 20
135.0614674589206743
 40
0.0
 41
0.0
 42
0.0
 10
469.3482431015796124
 20
136.4445618641568672
 40
0.0
 41
0.0
 42
0.0
 10
470.343145750507631
 20
137.6568542494924259
 40
0.0
 41
0.0
 42
0.0
 10
471.5554381358431897
 20
138.6517568984203308
 40
0.0
 41
0.0
 42
0.0
 10
472.9385325410792689
 20
139.3910362600903454
 40
0.0
 41
0.0
 42
0.0
 10
474.4392774238709762
 20
139.8462822432258008
 40
0.0
 41
0.0
 42
0.0
 10
476.0
 20
140.0
 40
0.0
 41
0.0
 42
0.0
  0
TEXT
  5
6A
330
1D
100
AcDbEntity
  8
0
  6
ByLayer
420
1120295
 48
1.0
 60
0
 67
0
370
-1
100
AcDbText
 39
0.0
 10
480.0
 20
115.0
 30
0.0
 40
16.0
  1
2026-W16
 50
0.0
 41
1.0
 51
0.0
  7
Standard
 71
0
 72
0
 11
0.0
 21
0.0
 31
0.0
210
0.0
220
0.0
230
1.0
100
AcDbText
 73
0
  0
TEXT
  5
6B
330
1D
100
AcDbEntity
  8
0
  6
ByLayer
420
4938352
 48
1.0
 60
0
 67
0
370
-1
100
AcDbText
 39
0.0
 10
468.0
 20
74.0
 30
0.0
 40
12.0
  1
NUMBER
 50
0.0
 41
1.0
 51
0.0
  7
Standard
 71
0
 72
0
 11
0.0
 21
0.0
 31
0.0
210
0.0
220
0.0
230
1.0
100
AcDbText
 73
0
  0
HATCH
  5
6C
330
1D
100
AcDbEntity
  8
0
  6
ByLayer
420
16777215
 48
1.0
 60
0
 67
0
370
-1
100
AcDbHatch
 30
0.0
210
0.0
220
0.0
230
1.0
  2
SOLID
 70
1
 71
0
 91
1
 92
2
 72
0
 73
1
 93
41
 10
476.0
 20
64.0
 10
853.0
 20
64.0
 10
853.0
 20
64.0
 10
854.5607225761290238
 20
63.8462822432258008
 10
856.0614674589206743
 20
63.3910362600903454
 10
857.4445618641568672
 20
62.6517568984203308
 10
858.6568542494924259
 20
61.6568542494924259
 10
859.6517568984203308
 20
60.4445618641568672
 10
860.3910362600903454
 20
59.0614674589206743
 10
860.8462822432258008
 20
57.5607225761290238
 10
861.0
 20
56.0
 10
861.0
 20
32.0
 10
861.0
 20
32.0
 10
860.8462822432258008
 20
30.4392774238709762
 10
860.3910362600903454
 20
28.9385325410793257
 10
859.6517568984203308
 20
27.5554381358431328
 10
858.6568542494924259
 20
26.3431457505075741
 10
857.4445618641568672
 20
25.3482431015796692
 10
856.0614674589206743
 20
24.6089637399096546
 10
854.5607225761290238
 20
24.1537177567741992
 10
853.0
 20
24.0
 10
476.0
 20
24.0
 10
476.0
 20
24.0
 10
474.4392774238709762
 20
24.1537177567741992
 10
472.9385325410792689
 20
24.6089637399096546
 10
471.5554381358431897
 20
25.3482431015796692
 10
470.343145750507631
 20
26.3431457505075741
 10
469.3482431015796124
 20
27.5554381358431328
 10
468.6089637399097114
 20
28.9385325410793257
 10
468.1537177567741423
 20
30.4392774238709762
 10
468.0
 20
32.0
 10
468.0
 20
56.0
 10
468.0
 20
56.0
 10
468.1537177567741423
 20
57.5607225761290238
 10
468.6089637399097114
 20
59.0614674589206743
 10
469.3482431015796124
 20
60.4445618641568672
 10
470.343145750507631
 20
61.6568542494924259
 10
471.5554381358431897
 20
62.6517568984203308
 10
472.9385325410792689
 20
63.3910362600903454
 10
474.4392774238709762
 20
63.8462822432258008
 10
476.0
 20
64.0
 97
0
 75
0
 76
1
 47
0.0
 98
0
  0
LWPOLYLINE
  5
6D
330
1D
100
AcDbEntity
  8
0
  6
ByLayer
420
9741240
 48
1.0
 60
0
 67
0
370
-1
100
AcDbPolyline
 90
41
 70
1
 43
0.0
 38
0.0
 39
0.0
210
0.0
220
0.0
230
1.0
 10
476.0
 20
64.0
 40
0.0
 41
0.0
 42
0.0
 10
853.0
 20
64.0
 40
0.0
 41
0.0
 42
0.0
 10
853.0
 20
64.0
 40
0.0
 41
0.0
 42
0.0
 10
854.5607225761290238
 20
63.8462822432258008
 40
0.0
 41
0.0
 42
0.0
 10
856.0614674589206743
 20
63.3910362600903454
 40
0.0
 41
0.0
 42
0.0
 10
857.4445618641568672
 20
62.6517568984203308
 40
0.0
 41
0.0
 42
0.0
 10
858.6568542494924259
 20
61.6568542494924259
 40
0.0
 41
0.0
 42
0.0
 10
859.6517568984203308
 20
60.4445618641568672
 40
0.0
 41
0.0
 42
0.0
 10
860.3910362600903454
 20
59.0614674589206743
 40
0.0
 41
0.0
 42
0.0
 10
860.8462822432258008
 20
57.5607225761290238
 40
0.0
 41
0.0
 42
0.0
 10
861.0
 20
56.0
 40
0.0
 41
0.0
 42
0.0
 10
861.0
 20
32.0
 40
0.0
 41
0.0
 42
0.0
 10
861.0
 20
32.0
 40
0.0
 41
0.0
 42
0.0
 10
860.8462822432258008
 20
30.4392774238709762
 40
0.0
 41
0.0
 42
0.0
 10
860.3910362600903454
 20
28.9385325410793257
 40
0.0
 41
0.0
 42
0.0
 10
859.6517568984203308
 20
27.5554381358431328
 40
0.0
 41
0.0
 42
0.0
 10
858.6568542494924259
 20
26.3431457505075741
 40
0.0
 41
0.0
 42
0.0
 10
857.4445618641568672
 20
25.3482431015796692
 40
0.0
 41
0.0
 42
0.0
 10
856.0614674589206743
 20
24.6089637399096546
 40
0.0
 41
0.0
 42
0.0
 10
854.5607225761290238
 20
24.1537177567741992
 40
0.0
 41
0.0
 42
0.0
 10
853.0
 20
24.0
 40
0.0
 41
0.0
 42
0.0
 10
476.0
 20
24.0
 40
0.0
 41
0.0
 42
0.0
 10
476.0
 20
24.0
 40
0.0
 41
0.0
 42
0.0
 10
474.4392774238709762
 20
24.1537177567741992
 40
0.0
 41
0.0
 42
0.0
 10
472.9385325410792689
 20
24.6089637399096546
 40
0.0
 41
0.0
 42
0.0
 10
471.5554381358431897
 20
25.3482431015796692
 40
0.0
 41
0.0
 42
0.0
 10
470.343145750507631
 20
26.3431457505075741
 40
0.0
 41
0.0
 42
0.0
 10
469.3482431015796124
 20
27.5554381358431328
 40
0.0
 41
0.0
 42
0.0
 10
468.6089637399097114
 20
28.9385325410793257
 40
0.0
 41
0.0
 42
0.0
 10
468.1537177567741423
 20
30.4392774238709762
 40
0.0
 41
0.0
 42
0.0
 10
468.0
 20
32.0
 40
0.0
 41
0.0
 42
0.0
 10
468.0
 20
56.0
 40
0.0
 41
0.0
 42
0.0
 10
468.0
 20
56.0
 40
0.0
 41
0.0
 42
0.0
 10
468.1537177567741423
 20
57.5607225761290238
 40
0.0
 41
0.0
 42
0.0
 10
468.6089637399097114
 20
59.0614674589206743
 40
0.0
 41
0.0
 42
0.0
 10
469.3482431015796124
 20
60.4445618641568672
 40
0.0
 41
0.0
 42
0.0
 10
470.343145750507631
 20
61.6568542494924259
 40
0.0
 41
0.0
 42
0.0
 10
471.5554381358431897
 20
62.6517568984203308
 40
0.0
 41
0.0
 42
0.0
 10
472.9385325410792689
 20
63.3910362600903454
 40
0.0
 41
0.0
 42
0.0
 10
474.4392774238709762
 20
63.8462822432258008
 40
0.0
 41
0.0
 42
0.0
 10
476.0
 20
64.0
 40
0.0
 41
0.0
 42
0.0
  0
TEXT
  5
6E
330
1D
100
AcDbEntity
  8
0
  6
ByLayer
420
1120295
 48
1.0
 60
0
 67
0
370
-1
100
AcDbText
 39
0.0
 10
480.0
 20
40.0
 30
0.0
 40
16.0
  1
42
 50
0.0
 41
1.0
 51
0.0
  7
Standard
 71
0
 72
0
 11
0.0
 21
0.0
 31
0.0
210
0.0
220
0.0
230
1.0
100
AcDbText
 73
0
  0
ENDSEC
  0
SECTION
  2
OBJECTS
  0
DICTIONARY
  5
1
330
0
100
AcDbDictionary
280
0
281
0
  3
ACAD_COLOR
350
2
  3
ACAD_GROUP
350
3
  3
ACAD_LAYOUT
350
4
  3
ACAD_MATERIAL
350
5
  3
ACAD_SORTENTS
350
6
  3
ACAD_MLEADERSTYLE
350
7
  3
ACAD_MLINESTYLE
350
8
  3
ACAD_TABLESTYLE
350
9
  3
ACAD_PLOTSETTINGS
350
A
  3
AcDbVariableDictionary
350
B
  3
ACAD_SCALELIST
350
C
  3
ACAD_VISUALSTYLE
350
D
  3
ACAD_FIELDLIST
350
E
  3
ACAD_IMAGE_DICT
350
F
  0
DICTIONARY
  5
2
330
1
100
AcDbDictionary
280
0
281
0
  0
DICTIONARY
  5
3
330
1
100
AcDbDictionary
280
0
281
0
  0
DICTIONARY
  5
4
330
1
100
AcDbDictionary
280
0
281
0
  0
DICTIONARY
  5
5
330
1
100
AcDbDictionary
280
0
281
0
  0
DICTIONARY
  5
6
330
1
100
AcDbDictionary
280
0
281
0
  0
DICTIONARY
  5
7
330
1
100
AcDbDictionary
280
0
281
0
  0
DICTIONARY
  5
8
330
1
100
AcDbDictionary
280
0
281
0
  0
DICTIONARY
  5
9
330
1
100
AcDbDictionary
280
0
281
0
  0
DICTIONARY
  5
A
330
1
100
AcDbDictionary
280
0
281
0
  0
DICTIONARY
  5
B
330
1
100
AcDbDictionary
280
0
281
0
  0
DICTIONARY
  5
C
330
1
100
AcDbDictionary
280
0
281
0
  0
DICTIONARY
  5
D
330
1
100
AcDbDictionary
280
0
281
0
  0
DICTIONARY
  5
E
330
1
100
AcDbDictionary
280
0
281
0
  0
DICTIONARY
  5
F
330
1
100
AcDbDictionary
280
0
281
0
  0
ENDSEC
  0
EOF
