  0
SECTION
  2
HEADER
  9
$ANGBASE
 50
0.0
  9
$ANGDIR
 70
1
  9
$AUNITS
 70
0
  9
$AUPREC
 70
0
  9
$ATTMODE
 70
1
  9
$DWGCODEPAGE
  3
ANSI_1252
  9
$TDCREATE
 40
2461146.9541473612189293
  9
$CECOLOR
 62
256
  9
$CELTSCALE
 40
1.0
  9
$CELWEIGHT
370
-1
  9
$CLAYER
  8
0
  9
$CELTYPE
  6
ByLayer
  9
$CMLJUST
 70
0
  9
$CMLSCALE
 40
20.0
  9
$CMLSTYLE
  2
Standard
  9
$DIMSTYLE
  2
Standard
  9
$LWDISPLAY
290
0
  9
$EXTNAMES
290
1
  9
$HANDSEED
  5
3E
  9
$INSUNITS
 70
0
  9
$LUNITS
 70
2
  9
$LUPREC
 70
4
  9
$LTSCALE
 40
1.0
  9
$MIRRTEXT
 70
0
  9
$INSBASE
 10
0.0
 20
0.0
 30
0.0
  9
$SPLINESEGS
 70
8
  9
$PSLTSCALE
 70
1
  9
$PDMODE
 70
0
  9
$PDSIZE
 40
0.0
  9
$PLINEGEN
 70
0
  9
$TEXTSIZE
 40
0.2
  9
$TEXTSTYLE
  7
Standard
  9
$TDINDWG
 40
0.0
  9
$TDUCREATE
 40
2461146.9541473612189293
  9
$TDUUPDATE
 40
2461146.9541473612189293
  9
$TDUPDATE
 40
2461146.9541473612189293
  9
$ACADVER
  1
AC1018
  0
ENDSEC
  0
SECTION
  2
CLASSES
  0
CLASS
  1
ACDBDICTIONARYWDFLT
  2
AcDbDictionaryWithDefault
  3
ObjectDBX Classes
 90
32768
 91
0
280
0
281
0
  0
CLASS
  1
ACDBPLACEHOLDER
  2
AcDbPlaceHolder
  3
ObjectDBX Classes
 90
0
 91
0
280
0
281
0
  0
CLASS
  1
LAYOUT
  2
AcDbLayout
  3
ObjectDBX Classes
 90
0
 91
0
280
0
281
0
  0
CLASS
  1
DICTIONARYVAR
  2
AcDbDictionaryVar
  3
ObjectDBX Classes
 90
0
 91
0
280
0
281
0
  0
CLASS
  1
TABLESTYLE
  2
AcDbTableStyle
  3
ObjectDBX Classes
 90
4095
 91
0
280
0
281
0
  0
CLASS
  1
MATERIAL
  2
AcDbMaterial
  3
ObjectDBX Classes
 90
1153
 91
0
280
0
281
0
  0
CLASS
  1
VISUALSTYLE
  2
AcDbVisualStyle
  3
ObjectDBX Classes
 90
4095
 91
0
280
0
281
0
  0
CLASS
  1
SCALE
  2
AcDbScale
  3
ObjectDBX Classes
 90
1153
 91
0
280
0
281
0
  0
CLASS
  1
MLEADERSTYLE
  2
AcDbMLeaderStyle
  3
ObjectDBX Classes
 90
4095
 91
0
280
0
281
0
  0
CLASS
  1
CELLSTYLEMAP
  2
AcDbCellStyleMap
  3
ObjectDBX Classes
 90
1152
 91
0
280
0
281
0
  0
CLASS
  1
EXACXREFPANELOBJECT
  2
ExAcXREFPanelObject
  3
ObjectDBX Classes
 90
1025
 91
0
280
0
281
0
  0
CLASS
  1
NPOCOLLECTION
  2
AcDbImpNonPersistentObjectsCollection
  3
ObjectDBX Classes
 90
1153
 91
0
280
0
281
0
  0
CLASS
  1
LAYER_INDEX
  2
AcDbLayerIndex
  3
ObjectDBX Classes
 90
0
 91
0
280
0
281
0
  0
CLASS
  1
SPATIAL_INDEX
  2
AcDbSpatialIndex
  3
ObjectDBX Classes
 90
0
 91
0
280
0
281
0
  0
CLASS
  1
IDBUFFER
  2
AcDbIdBuffer
  3
ObjectDBX Classes
 90
32768
 91
0
280
0
281
0
  0
CLASS
  1
ACDBSECTIONVIEWSTYLE
  2
AcDbSectionViewStyle
  3
ObjectDBX Classes
 90
1025
 91
0
280
0
281
0
  0
CLASS
  1
ACDBDETAILVIEWSTYLE
  2
AcDbDetailViewStyle
  3
ObjectDBX Classes
 90
1025
 91
0
280
0
281
0
  0
CLASS
  1
MESH
  2
AcDbSubDMesh
  3
ObjectDBX Classes
 90
0
 91
0
280
0
281
1
  0
CLASS
  1
SORTENTSTABLE
  2
AcDbSortentsTable
  3
ObjectDBX Classes
 90
0
 91
0
280
0
281
0
  0
CLASS
  1
ACDB_TEXTOBJECTCONTEXTDATA_CLASS
  2
AcDbTextObjectContextData
  3
ObjectDBX Classes
 90
1153
 91
0
280
0
281
0
  0
CLASS
  1
WIPEOUT
  2
AcDbWipeout
  3
WipeOut
 90
32895
 91
0
280
0
281
1
  0
CLASS
  1
WIPEOUTVARIABLES
  2
AcDbWipeoutVariables
  3
WipeOut
 90
32768
 91
0
280
0
281
0
  0
CLASS
  1
DIMASSOC
  2
AcDbDimAssoc
  3
AcDbDimAssoc
 90
0
 91
0
280
0
281
0
  0
CLASS
  1
ACAD_TABLE
  2
AcDbTable
  3
ObjectDBX Classes
 90
1025
 91
0
280
0
281
1
  0
CLASS
  1
TABLECONTENT
  2
AcDbTableContent
  3
ObjectDBX Classes
 90
1152
 91
0
280
0
281
0
  0
CLASS
  1
TABLEGEOMETRY
  2
AcDbTableGeometry
  3
ObjectDBX Classes
 90
1152
 91
0
280
0
281
0
  0
CLASS
  1
IMAGE
  2
AcDbRasterImage
  3
ISM
 90
32895
 91
0
280
0
281
1
  0
CLASS
  1
IMAGEDEF
  2
AcDbRasterImageDef
  3
ISM
 90
0
 91
0
280
0
281
0
  0
CLASS
  1
IMAGEDEF_REACTOR
  2
AcDbRasterImageDefReactor
  3
ISM
 90
1
 91
0
280
0
281
0
  0
CLASS
  1
DBCOLOR
  2
AcDbColor
  3
ObjectDBX Classes
 90
0
 91
0
280
0
281
0
  0
CLASS
  1
GEODATA
  2
AcDbGeoData
  3
ObjectDBX Classes
 90
4095
 91
0
280
0
281
0
  0
CLASS
  1
MULTILEADER
  2
AcDbMLeader
  3
ObjectDBX Classes
 90
1025
 91
0
280
0
281
0
  0
CLASS
  1
PDFUNDERLAY
  2
AcDbPdfReference
  3
ObjectDBX Classes
 90
4095
 91
0
280
0
281
1
  0
CLASS
  1
PDFDEFINITION
  2
AcDbPdfDefinition
  3
ObjectDBX Classes
 90
1153
 91
0
280
0
281
0
  0
CLASS
  1
RASTERVARIABLES
  2
AcDbRasterVariables
  3
ISM
 90
0
 91
0
280
0
281
0
  0
CLASS
  1
SPATIAL_FILTER
  2
AcDbSpatialFilter
  3
ObjectDBX Classes
 90
0
 91
0
280
0
281
0
  0
CLASS
  1
ACDB_MLEADEROBJECTCONTEXTDATA_CLASS
  2
AcDbMLeaderObjectContextData
  3
ObjectDBX Classes
 90
1025
 91
0
280
0
281
0
  0
CLASS
  1
PLOTSETTINGS
  2
AcDbPlotSettings
  3
ObjectDBX Classes
 90
0
 91
0
280
0
281
0
  0
CLASS
  1
FIELD
  2
AcDbField
  3
ObjectDBX Classes
 90
1152
 91
0
280
0
281
0
  0
CLASS
  1
FIELDLIST
  2
AcDbFieldList
  3
ObjectDBX Classes
 90
1152
 91
0
280
0
281
0
  0
CLASS
  1
ACDB_MTEXTATTRIBUTEOBJECTCONTEXTDATA_CLASS
  2
AcDbMTextAttributeObjectContextData
  3
ObjectDBX Classes
 90
1153
 91
0
280
0
281
0
  0
CLASS
  1
ACDB_BLKREFOBJECTCONTEXTDATA_CLASS
  2
AcDbBlkRefObjectContextData
  3
ObjectDBX Classes
 90
1153
 91
0
280
0
281
0
  0
ENDSEC
  0
SECTION
  2
TABLES
  0
TABLE
  2
VPORT
  5
18
330
0
100
AcDbSymbolTable
 70
1
  0
VPORT
  5
26
330
18
100
AcDbSymbolTableRecord
100
AcDbViewportTableRecord
  2
*Active
 70
0
 10
0.0
 20
0.0
 11
1.0
 21
1.0
 12
0.0
 22
0.0
 13
0.0
 23
0.0
 14
0.5
 24
0.5
 15
10.0
 25
10.0
 16
0.0
 26
0.0
 36
1.0
 17
0.0
 27
0.0
 37
0.0
 40
10.0
 41
1.0
 75
0
 76
1
  0
ENDTAB
  0
TABLE
  2
LTYPE
  5
14
330
0
100
AcDbSymbolTable
 70
3
  0
LTYPE
  5
19
330
14
100
AcDbSymbolTableRecord
100
AcDbLinetypeTableRecord
  2
ByLayer
 70
0
 72
0
 73
0
 40
0.0
  0
LTYPE
  5
1A
330
14
100
AcDbSymbolTableRecord
100
AcDbLinetypeTableRecord
  2
ByBlock
 70
0
 72
0
 73
0
 40
0.0
  0
LTYPE
  5
1B
330
14
100
AcDbSymbolTableRecord
100
AcDbLinetypeTableRecord
  2
Continuous
 70
0
 72
0
 73
0
 40
0.0
  0
ENDTAB
  0
TABLE
  2
LAYER
  5
13
330
0
100
AcDbSymbolTable
 70
1
  0
LAYER
  5
1C
330
13
100
AcDbSymbolTableRecord
100
AcDbLayerTableRecord
  2
0
 70
0
 62
7
  6
Continuous
290
1
370
-3
390
0
  0
ENDTAB
  0
TABLE
  2
STYLE
  5
15
330
0
100
AcDbSymbolTable
 70
1
  0
STYLE
  5
23
330
15
100
AcDbSymbolTableRecord
100
AcDbTextStyleTableRecord
  2
Standard
 70
0
 40
0.0
 41
1.0
 42
0.0
 50
0.0
 71
0
  0
ENDTAB
  0
TABLE
  2
VIEW
  5
17
330
0
100
AcDbSymbolTable
 70
0
  0
ENDTAB
  0
TABLE
  2
UCS
  5
16
330
0
100
AcDbSymbolTable
 70
0
  0
ENDTAB
  0
TABLE
  2
APPID
  5
10
330
0
100
AcDbSymbolTable
 70
1
  0
APPID
  5
25
330
10
100
AcDbSymbolTableRecord
100
AcDbRegAppTableRecord
  2
ACAD
 70
0
  0
ENDTAB
  0
TABLE
  2
DIMSTYLE
  5
12
330
0
100
AcDbSymbolTable
 70
1
100
AcDbDimStyleTable
  0
DIMSTYLE
105
24
330
12
100
AcDbSymbolTableRecord
100
AcDbDimStyleTableRecord
  2
Standard
 70
0
  3
<>
  4
[]
 40
1.0
 41
0.18
 42
0.625
 43
3.75
 44
1.25
 45
0.0
 46
0.0
 47
0.0
 48
0.0
 49
1.0
 50
45.0
 70
0
 90
0
140
0.18
141
0.09
142
0.0
143
25.3999999999999986
144
1.0
145
0.0
146
1.0
147
0.625
148
0.0
 71
0
 72
0
 73
0
 74
0
 75
0
 76
0
 77
1
 78
8
 79
0
170
0
171
3
172
0
173
1
174
0
175
0
176
0
177
0
178
0
179
0
271
2
272
2
273
2
274
3
275
0
276
0
277
2
278
46
279
0
280
0
281
0
282
0
283
0
284
8
285
0
286
0
287
0
288
0
289
3
290
0
340
0
371
-2
372
-2
  0
ENDTAB
  0
TABLE
  2
BLOCK_RECORD
  5
11
330
0
100
AcDbSymbolTable
 70
2
  0
BLOCK_RECORD
  5
1D
330
11
100
AcDbSymbolTableRecord
100
AcDbBlockTableRecord
  2
*Model_Space
 70
0
340
0
 70
0
280
0
281
1
  0
BLOCK_RECORD
  5
20
330
11
100
AcDbSymbolTableRecord
100
AcDbBlockTableRecord
  2
*Paper_Space
 70
0
340
0
 70
0
280
0
281
1
  0
ENDTAB
  0
ENDSEC
  0
SECTION
  2
BLOCKS
  0
BLOCK
  5
1E
330
1D
100
AcDbEntity
  8
0
  6
ByLayer
 62
256
 48
1.0
 60
0
 67
0
370
-1
100
AcDbBlockBegin
  2
*Model_Space
 70
0
 10
0.0
 20
0.0
 30
0.0
  3
*Model_Space
  0
ENDBLK
  5
1F
330
1D
100
AcDbEntity
  8
0
100
AcDbBlockEnd
  0
BLOCK
  5
21
330
20
100
AcDbEntity
  8
0
  6
ByLayer
 62
256
 48
1.0
 60
0
 67
1
370
-1
100
AcDbBlockBegin
  2
*Paper_Space
 70
0
 10
0.0
 20
0.0
 30
0.0
  3
*Paper_Space
  0
ENDBLK
  5
22
330
20
100
AcDbEntity
  8
0
100
AcDbBlockEnd
  0
ENDSEC
  0
SECTION
  2
ENTITIES
  0
HATCH
  5
27
330
1D
100
AcDbEntity
  8
0
  6
ByLayer
420
15790320
 48
1.0
 60
0
 67
0
370
-1
100
AcDbHatch
 30
0.0
210
0.0
220
0.0
230
1.0
  2
SOLID
 70
1
 71
0
 91
1
 92
2
 72
0
 73
1
 93
4
 10
62.0
 20
645.0
 10
262.0
 20
645.0
 10
262.0
 20
592.0
 10
62.0
 20
592.0
 97
0
 75
0
 76
1
 47
0.0
 98
0
  0
LWPOLYLINE
  5
28
330
1D
100
AcDbEntity
  8
0
  6
ByLayer
420
0
 48
1.0
 60
0
 67
0
370
-1
100
AcDbPolyline
 90
4
 70
1
 43
0.0
 38
0.0
 39
0.0
210
0.0
220
0.0
230
1.0
 10
62.0
 20
645.0
 40
0.0
 41
0.0
 42
0.0
 10
262.0
 20
645.0
 40
0.0
 41
0.0
 42
0.0
 10
262.0
 20
592.0
 40
0.0
 41
0.0
 42
0.0
 10
62.0
 20
592.0
 40
0.0
 41
0.0
 42
0.0
  0
TEXT
  5
29
330
1D
100
AcDbEntity
  8
0
  6
ByLayer
420
0
 48
1.0
 60
0
 67
0
370
-1
100
AcDbText
 39
0.0
 10
144.71875
 20
613.1666749999999411
 30
0.0
 40
13.3332999999999995
  1
Button
 50
0.0
 41
1.0
 51
0.0
  7
Standard
 71
0
 72
0
 11
0.0
 21
0.0
 31
0.0
210
0.0
220
0.0
230
1.0
100
AcDbText
 73
0
  0
HATCH
  5
2A
330
1D
100
AcDbEntity
  8
0
  6
ByLayer
420
16777215
 48
1.0
 60
0
 67
0
370
-1
100
AcDbHatch
 30
0.0
210
0.0
220
0.0
230
1.0
  2
SOLID
 70
1
 71
0
 91
1
 92
2
 72
0
 73
1
 93
41
 10
64.0
 20
592.0
 10
260.0
 20
592.0
 10
260.0
 20
592.0
 10
260.3901806440322844
 20
591.9615705608064218
 10
260.765366864730197
 20
591.8477590650226148
 10
261.1111404660392168
 20
591.6629392246051111
 10
261.4142135623731065
 20
591.4142135623731065
 10
261.6629392246051111
 20
591.1111404660391599
 10
261.8477590650225579
 20
590.7653668647301402
 10
261.9615705608064786
 20
590.3901806440322844
 10
262.0
 20
590.0
 10
262.0
 20
506.0
 10
262.0
 20
506.0
 10
261.9615705608064786
 20
505.6098193559677156
 10
261.8477590650225579
 20
505.2346331352698598
 10
261.6629392246051111
 20
504.8888595339607832
 10
261.4142135623731065
 20
504.5857864376268935
 10
261.1111404660392168
 20
504.3370607753948889
 10
260.765366864730197
 20
504.1522409349773852
 10
260.3901806440322844
 20
504.0384294391935782
 10
260.0
 20
504.0
 10
64.0
 20
504.0
 10
64.0
 20
504.0
 10
63.6098193559677441
 20
504.0384294391935782
 10
63.2346331352698172
 20
504.1522409349773852
 10
62.8888595339607974
 20
504.3370607753948889
 10
62.5857864376269077
 20
504.5857864376268935
 10
62.3370607753949102
 20
504.8888595339607832
 10
62.1522409349774279
 20
505.2346331352698598
 10
62.0384294391935356
 20
505.6098193559677156
 10
62.0
 20
506.0
 10
62.0
 20
590.0
 10
62.0
 20
590.0
 10
62.0384294391935356
 20
590.3901806440322844
 10
62.1522409349774279
 20
590.7653668647301402
 10
62.3370607753949102
 20
591.1111404660391599
 10
62.5857864376269077
 20
591.4142135623731065
 10
62.8888595339607974
 20
591.6629392246051111
 10
63.2346331352698172
 20
591.8477590650226148
 10
63.6098193559677441
 20
591.9615705608064218
 10
64.0
 20
592.0
 97
0
 75
0
 76
1
 47
0.0
 98
0
  0
LWPOLYLINE
  5
2B
330
1D
100
AcDbEntity
  8
0
  6
ByLayer
420
7763574
 48
1.0
 60
0
 67
0
370
-1
100
AcDbPolyline
 90
41
 70
1
 43
0.0
 38
0.0
 39
0.0
210
0.0
220
0.0
230
1.0
 10
64.0
 20
592.0
 40
0.0
 41
0.0
 42
0.0
 10
260.0
 20
592.0
 40
0.0
 41
0.0
 42
0.0
 10
260.0
 20
592.0
 40
0.0
 41
0.0
 42
0.0
 10
260.3901806440322844
 20
591.9615705608064218
 40
0.0
 41
0.0
 42
0.0
 10
260.765366864730197
 20
591.8477590650226148
 40
0.0
 41
0.0
 42
0.0
 10
261.1111404660392168
 20
591.6629392246051111
 40
0.0
 41
0.0
 42
0.0
 10
261.4142135623731065
 20
591.4142135623731065
 40
0.0
 41
0.0
 42
0.0
 10
261.6629392246051111
 20
591.1111404660391599
 40
0.0
 41
0.0
 42
0.0
 10
261.8477590650225579
 20
590.7653668647301402
 40
0.0
 41
0.0
 42
0.0
 10
261.9615705608064786
 20
590.3901806440322844
 40
0.0
 41
0.0
 42
0.0
 10
262.0
 20
590.0
 40
0.0
 41
0.0
 42
0.0
 10
262.0
 20
506.0
 40
0.0
 41
0.0
 42
0.0
 10
262.0
 20
506.0
 40
0.0
 41
0.0
 42
0.0
 10
261.9615705608064786
 20
505.6098193559677156
 40
0.0
 41
0.0
 42
0.0
 10
261.8477590650225579
 20
505.2346331352698598
 40
0.0
 41
0.0
 42
0.0
 10
261.6629392246051111
 20
504.8888595339607832
 40
0.0
 41
0.0
 42
0.0
 10
261.4142135623731065
 20
504.5857864376268935
 40
0.0
 41
0.0
 42
0.0
 10
261.1111404660392168
 20
504.3370607753948889
 40
0.0
 41
0.0
 42
0.0
 10
260.765366864730197
 20
504.1522409349773852
 40
0.0
 41
0.0
 42
0.0
 10
260.3901806440322844
 20
504.0384294391935782
 40
0.0
 41
0.0
 42
0.0
 10
260.0
 20
504.0
 40
0.0
 41
0.0
 42
0.0
 10
64.0
 20
504.0
 40
0.0
 41
0.0
 42
0.0
 10
64.0
 20
504.0
 40
0.0
 41
0.0
 42
0.0
 10
63.6098193559677441
 20
504.0384294391935782
 40
0.0
 41
0.0
 42
0.0
 10
63.2346331352698172
 20
504.1522409349773852
 40
0.0
 41
0.0
 42
0.0
 10
62.8888595339607974
 20
504.3370607753948889
 40
0.0
 41
0.0
 42
0.0
 10
62.5857864376269077
 20
504.5857864376268935
 40
0.0
 41
0.0
 42
0.0
 10
62.3370607753949102
 20
504.8888595339607832
 40
0.0
 41
0.0
 42
0.0
 10
62.1522409349774279
 20
505.2346331352698598
 40
0.0
 41
0.0
 42
0.0
 10
62.0384294391935356
 20
505.6098193559677156
 40
0.0
 41
0.0
 42
0.0
 10
62.0
 20
506.0
 40
0.0
 41
0.0
 42
0.0
 10
62.0
 20
590.0
 40
0.0
 41
0.0
 42
0.0
 10
62.0
 20
590.0
 40
0.0
 41
0.0
 42
0.0
 10
62.0384294391935356
 20
590.3901806440322844
 40
0.0
 41
0.0
 42
0.0
 10
62.1522409349774279
 20
590.7653668647301402
 40
0.0
 41
0.0
 42
0.0
 10
62.3370607753949102
 20
591.1111404660391599
 40
0.0
 41
0.0
 42
0.0
 10
62.5857864376269077
 20
591.4142135623731065
 40
0.0
 41
0.0
 42
0.0
 10
62.8888595339607974
 20
591.6629392246051111
 40
0.0
 41
0.0
 42
0.0
 10
63.2346331352698172
 20
591.8477590650226148
 40
0.0
 41
0.0
 42
0.0
 10
63.6098193559677441
 20
591.9615705608064218
 40
0.0
 41
0.0
 42
0.0
 10
64.0
 20
592.0
 40
0.0
 41
0.0
 42
0.0
  0
LWPOLYLINE
  5
2C
330
1D
100
AcDbEntity
  8
0
  6
ByLayer
420
5263440
 48
1.0
 60
0
 67
0
370
-1
100
AcDbPolyline
 90
3
 70
0
 43
0.0
 38
0.0
 39
0.0
210
0.0
220
0.0
230
1.0
 10
246.3333424999999863
 20
549.6133293000000322
 40
0.0
 41
0.0
 42
0.0
 10
250.0
 20
546.3866706999999678
 40
0.0
 41
0.0
 42
0.0
 10
253.6666575000000137
 20
549.6133293000000322
 40
0.0
 41
0.0
 42
0.0
  0
HATCH
  5
2D
330
1D
100
AcDbEntity
  8
0
  6
ByLayer
420
16777215
 48
1.0
 60
0
 67
0
370
-1
100
AcDbHatch
 30
0.0
210
0.0
220
0.0
230
1.0
  2
SOLID
 70
1
 71
0
 91
1
 92
2
 72
0
 73
1
 93
41
 10
64.0
 20
504.0
 10
254.0
 20
504.0
 10
254.0
 20
504.0
 10
254.3901806440322559
 20
503.9615705608064218
 10
254.7653668647301686
 20
503.8477590650226148
 10
255.1111404660392168
 20
503.6629392246051111
 10
255.4142135623731065
 20
503.4142135623731065
 10
255.6629392246050827
 20
503.1111404660392168
 10
255.8477590650225864
 20
502.7653668647301402
 10
255.9615705608064502
 20
502.3901806440322844
 10
256.0
 20
502.0
 10
256.0
 20
331.0
 10
256.0
 20
331.0
 10
255.9615705608064502
 20
330.6098193559677156
 10
255.8477590650225864
 20
330.234633135269803
 10
255.6629392246050827
 20
329.8888595339607832
 10
255.4142135623731065
 20
329.5857864376268935
 10
255.1111404660392168
 20
329.3370607753948889
 10
254.7653668647301686
 20
329.1522409349774421
 10
254.3901806440322559
 20
329.0384294391935214
 10
254.0
 20
329.0
 10
64.0
 20
329.0
 10
64.0
 20
329.0
 10
63.6098193559677441
 20
329.0384294391935214
 10
63.2346331352698172
 20
329.1522409349774421
 10
62.8888595339607974
 20
329.3370607753948889
 10
62.5857864376269077
 20
329.5857864376268935
 10
62.3370607753949102
 20
329.8888595339607832
 10
62.1522409349774279
 20
330.234633135269803
 10
62.0384294391935356
 20
330.6098193559677156
 10
62.0
 20
331.0
 10
62.0
 20
502.0
 10
62.0
 20
502.0
 10
62.0384294391935356
 20
502.3901806440322844
 10
62.1522409349774279
 20
502.7653668647301402
 10
62.3370607753949102
 20
503.1111404660392168
 10
62.5857864376269077
 20
503.4142135623731065
 10
62.8888595339607974
 20
503.6629392246051111
 10
63.2346331352698172
 20
503.8477590650226148
 10
63.6098193559677441
 20
503.9615705608064218
 10
64.0
 20
504.0
 97
0
 75
0
 76
1
 47
0.0
 98
0
  0
LWPOLYLINE
  5
2E
330
1D
100
AcDbEntity
  8
0
  6
ByLayer
420
7763574
 48
1.0
 60
0
 67
0
370
-1
100
AcDbPolyline
 90
41
 70
1
 43
0.0
 38
0.0
 39
0.0
210
0.0
220
0.0
230
1.0
 10
64.0
 20
504.0
 40
0.0
 41
0.0
 42
0.0
 10
254.0
 20
504.0
 40
0.0
 41
0.0
 42
0.0
 10
254.0
 20
504.0
 40
0.0
 41
0.0
 42
0.0
 10
254.3901806440322559
 20
503.9615705608064218
 40
0.0
 41
0.0
 42
0.0
 10
254.7653668647301686
 20
503.8477590650226148
 40
0.0
 41
0.0
 42
0.0
 10
255.1111404660392168
 20
503.6629392246051111
 40
0.0
 41
0.0
 42
0.0
 10
255.4142135623731065
 20
503.4142135623731065
 40
0.0
 41
0.0
 42
0.0
 10
255.6629392246050827
 20
503.1111404660392168
 40
0.0
 41
0.0
 42
0.0
 10
255.8477590650225864
 20
502.7653668647301402
 40
0.0
 41
0.0
 42
0.0
 10
255.9615705608064502
 20
502.3901806440322844
 40
0.0
 41
0.0
 42
0.0
 10
256.0
 20
502.0
 40
0.0
 41
0.0
 42
0.0
 10
256.0
 20
331.0
 40
0.0
 41
0.0
 42
0.0
 10
256.0
 20
331.0
 40
0.0
 41
0.0
 42
0.0
 10
255.9615705608064502
 20
330.6098193559677156
 40
0.0
 41
0.0
 42
0.0
 10
255.8477590650225864
 20
330.234633135269803
 40
0.0
 41
0.0
 42
0.0
 10
255.6629392246050827
 20
329.8888595339607832
 40
0.0
 41
0.0
 42
0.0
 10
255.4142135623731065
 20
329.5857864376268935
 40
0.0
 41
0.0
 42
0.0
 10
255.1111404660392168
 20
329.3370607753948889
 40
0.0
 41
0.0
 42
0.0
 10
254.7653668647301686
 20
329.1522409349774421
 40
0.0
 41
0.0
 42
0.0
 10
254.3901806440322559
 20
329.0384294391935214
 40
0.0
 41
0.0
 42
0.0
 10
254.0
 20
329.0
 40
0.0
 41
0.0
 42
0.0
 10
64.0
 20
329.0
 40
0.0
 41
0.0
 42
0.0
 10
64.0
 20
329.0
 40
0.0
 41
0.0
 42
0.0
 10
63.6098193559677441
 20
329.0384294391935214
 40
0.0
 41
0.0
 42
0.0
 10
63.2346331352698172
 20
329.1522409349774421
 40
0.0
 41
0.0
 42
0.0
 10
62.8888595339607974
 20
329.3370607753948889
 40
0.0
 41
0.0
 42
0.0
 10
62.5857864376269077
 20
329.5857864376268935
 40
0.0
 41
0.0
 42
0.0
 10
62.3370607753949102
 20
329.8888595339607832
 40
0.0
 41
0.0
 42
0.0
 10
62.1522409349774279
 20
330.234633135269803
 40
0.0
 41
0.0
 42
0.0
 10
62.0384294391935356
 20
330.6098193559677156
 40
0.0
 41
0.0
 42
0.0
 10
62.0
 20
331.0
 40
0.0
 41
0.0
 42
0.0
 10
62.0
 20
502.0
 40
0.0
 41
0.0
 42
0.0
 10
62.0
 20
502.0
 40
0.0
 41
0.0
 42
0.0
 10
62.0384294391935356
 20
502.3901806440322844
 40
0.0
 41
0.0
 42
0.0
 10
62.1522409349774279
 20
502.7653668647301402
 40
0.0
 41
0.0
 42
0.0
 10
62.3370607753949102
 20
503.1111404660392168
 40
0.0
 41
0.0
 42
0.0
 10
62.5857864376269077
 20
503.4142135623731065
 40
0.0
 41
0.0
 42
0.0
 10
62.8888595339607974
 20
503.6629392246051111
 40
0.0
 41
0.0
 42
0.0
 10
63.2346331352698172
 20
503.8477590650226148
 40
0.0
 41
0.0
 42
0.0
 10
63.6098193559677441
 20
503.9615705608064218
 40
0.0
 41
0.0
 42
0.0
 10
64.0
 20
504.0
 40
0.0
 41
0.0
 42
0.0
  0
TEXT
  5
2F
330
1D
100
AcDbEntity
  8
0
  6
ByLayer
420
0
 48
1.0
 60
0
 67
0
370
-1
100
AcDbText
 39
0.0
 10
68.0
 20
488.6666950000000043
 30
0.0
 40
13.3332999999999995
  1
dewweefee
 50
0.0
 41
1.0
 51
0.0
  7
Standard
 71
0
 72
0
 11
0.0
 21
0.0
 31
0.0
210
0.0
220
0.0
230
1.0
100
AcDbText
 73
0
  0
HATCH
  5
30
330
1D
100
AcDbEntity
  8
0
  6
ByLayer
420
30932
 48
1.0
 60
0
 67
0
370
-1
100
AcDbHatch
 30
0.0
210
0.0
220
0.0
230
1.0
  2
SOLID
 70
1
 71
0
 91
1
 92
2
 72
0
 73
1
 93
41
 10
120.0
 20
279.0
 10
175.0
 20
279.0
 10
175.0
 20
279.0
 10
175.3901806440322559
 20
278.9615705608064786
 10
175.7653668647301686
 20
278.8477590650225579
 10
176.1111404660392168
 20
278.6629392246051111
 10
176.4142135623731065
 20
278.4142135623731065
 10
176.6629392246050827
 20
278.1111404660392168
 10
176.8477590650225864
 20
277.765366864730197
 10
176.9615705608064502
 20
277.3901806440322844
 10
177.0
 20
277.0
 10
177.0
 20
222.0
 10
177.0
 20
222.0
 10
176.9615705608064502
 20
221.6098193559677156
 10
176.8477590650225864
 20
221.234633135269803
 10
176.6629392246050827
 20
220.8888595339607832
 10
176.4142135623731065
 20
220.5857864376268935
 10
176.1111404660392168
 20
220.3370607753948889
 10
175.7653668647301686
 20
220.1522409349774421
 10
175.3901806440322559
 20
220.0384294391935214
 10
175.0
 20
220.0
 10
120.0
 20
220.0
 10
120.0
 20
220.0
 10
119.6098193559677441
 20
220.0384294391935214
 10
119.2346331352698172
 20
220.1522409349774421
 10
118.8888595339607974
 20
220.3370607753948889
 10
118.5857864376269077
 20
220.5857864376268935
 10
118.3370607753949031
 20
220.8888595339607832
 10
118.1522409349774279
 20
221.234633135269803
 10
118.0384294391935356
 20
221.6098193559677156
 10
118.0
 20
222.0
 10
118.0
 20
277.0
 10
118.0
 20
277.0
 10
118.0384294391935356
 20
277.3901806440322844
 10
118.1522409349774279
 20
277.765366864730197
 10
118.3370607753949031
 20
278.1111404660392168
 10
118.5857864376269077
 20
278.4142135623731065
 10
118.8888595339607974
 20
278.6629392246051111
 10
119.2346331352698172
 20
278.8477590650225579
 10
119.6098193559677441
 20
278.9615705608064786
 10
120.0
 20
279.0
 97
0
 75
0
 76
1
 47
0.0
 98
0
  0
LWPOLYLINE
  5
31
330
1D
100
AcDbEntity
  8
0
  6
ByLayer
420
30932
 48
1.0
 60
0
 67
0
370
-1
100
AcDbPolyline
 90
41
 70
1
 43
0.0
 38
0.0
 39
0.0
210
0.0
220
0.0
230
1.0
 10
120.0
 20
279.0
 40
0.0
 41
0.0
 42
0.0
 10
175.0
 20
279.0
 40
0.0
 41
0.0
 42
0.0
 10
175.0
 20
279.0
 40
0.0
 41
0.0
 42
0.0
 10
175.3901806440322559
 20
278.9615705608064786
 40
0.0
 41
0.0
 42
0.0
 10
175.7653668647301686
 20
278.8477590650225579
 40
0.0
 41
0.0
 42
0.0
 10
176.1111404660392168
 20
278.6629392246051111
 40
0.0
 41
0.0
 42
0.0
 10
176.4142135623731065
 20
278.4142135623731065
 40
0.0
 41
0.0
 42
0.0
 10
176.6629392246050827
 20
278.1111404660392168
 40
0.0
 41
0.0
 42
0.0
 10
176.8477590650225864
 20
277.765366864730197
 40
0.0
 41
0.0
 42
0.0
 10
176.9615705608064502
 20
277.3901806440322844
 40
0.0
 41
0.0
 42
0.0
 10
177.0
 20
277.0
 40
0.0
 41
0.0
 42
0.0
 10
177.0
 20
222.0
 40
0.0
 41
0.0
 42
0.0
 10
177.0
 20
222.0
 40
0.0
 41
0.0
 42
0.0
 10
176.9615705608064502
 20
221.6098193559677156
 40
0.0
 41
0.0
 42
0.0
 10
176.8477590650225864
 20
221.234633135269803
 40
0.0
 41
0.0
 42
0.0
 10
176.6629392246050827
 20
220.8888595339607832
 40
0.0
 41
0.0
 42
0.0
 10
176.4142135623731065
 20
220.5857864376268935
 40
0.0
 41
0.0
 42
0.0
 10
176.1111404660392168
 20
220.3370607753948889
 40
0.0
 41
0.0
 42
0.0
 10
175.7653668647301686
 20
220.1522409349774421
 40
0.0
 41
0.0
 42
0.0
 10
175.3901806440322559
 20
220.0384294391935214
 40
0.0
 41
0.0
 42
0.0
 10
175.0
 20
220.0
 40
0.0
 41
0.0
 42
0.0
 10
120.0
 20
220.0
 40
0.0
 41
0.0
 42
0.0
 10
120.0
 20
220.0
 40
0.0
 41
0.0
 42
0.0
 10
119.6098193559677441
 20
220.0384294391935214
 40
0.0
 41
0.0
 42
0.0
 10
119.2346331352698172
 20
220.1522409349774421
 40
0.0
 41
0.0
 42
0.0
 10
118.8888595339607974
 20
220.3370607753948889
 40
0.0
 41
0.0
 42
0.0
 10
118.5857864376269077
 20
220.5857864376268935
 40
0.0
 41
0.0
 42
0.0
 10
118.3370607753949031
 20
220.8888595339607832
 40
0.0
 41
0.0
 42
0.0
 10
118.1522409349774279
 20
221.234633135269803
 40
0.0
 41
0.0
 42
0.0
 10
118.0384294391935356
 20
221.6098193559677156
 40
0.0
 41
0.0
 42
0.0
 10
118.0
 20
222.0
 40
0.0
 41
0.0
 42
0.0
 10
118.0
 20
277.0
 40
0.0
 41
0.0
 42
0.0
 10
118.0
 20
277.0
 40
0.0
 41
0.0
 42
0.0
 10
118.0384294391935356
 20
277.3901806440322844
 40
0.0
 41
0.0
 42
0.0
 10
118.1522409349774279
 20
277.765366864730197
 40
0.0
 41
0.0
 42
0.0
 10
118.3370607753949031
 20
278.1111404660392168
 40
0.0
 41
0.0
 42
0.0
 10
118.5857864376269077
 20
278.4142135623731065
 40
0.0
 41
0.0
 42
0.0
 10
118.8888595339607974
 20
278.6629392246051111
 40
0.0
 41
0.0
 42
0.0
 10
119.2346331352698172
 20
278.8477590650225579
 40
0.0
 41
0.0
 42
0.0
 10
119.6098193559677441
 20
278.9615705608064786
 40
0.0
 41
0.0
 42
0.0
 10
120.0
 20
279.0
 40
0.0
 41
0.0
 42
0.0
  0
LWPOLYLINE
  5
32
330
1D
100
AcDbEntity
  8
0
  6
ByLayer
420
16777215
 48
1.0
 60
0
 67
0
370
-1
100
AcDbPolyline
 90
3
 70
0
 43
0.0
 38
0.0
 39
0.0
210
0.0
220
0.0
230
1.0
 10
130.9799999999999898
 20
247.1399999999999864
 40
0.0
 41
0.0
 42
0.0
 10
142.7800000000000011
 20
235.3400000000000318
 40
0.0
 41
0.0
 42
0.0
 10
164.0200000000000102
 20
261.3000000000000114
 40
0.0
 41
0.0
 42
0.0
  0
HATCH
  5
33
330
1D
100
AcDbEntity
  8
0
  6
ByLayer
420
16777215
 48
1.0
 60
0
 67
0
370
-1
100
AcDbHatch
 30
0.0
210
0.0
220
0.0
230
1.0
  2
SOLID
 70
1
 71
0
 91
1
 92
2
 72
0
 73
1
 93
41
 10
64.0
 20
323.0
 10
224.0
 20
323.0
 10
224.0
 20
323.0
 10
224.3901806440322559
 20
322.9615705608064786
 10
224.7653668647301686
 20
322.8477590650225579
 10
225.1111404660392168
 20
322.6629392246051111
 10
225.4142135623731065
 20
322.4142135623731065
 10
225.6629392246050827
 20
322.1111404660392168
 10
225.8477590650225864
 20
321.765366864730197
 10
225.9615705608064502
 20
321.3901806440322844
 10
226.0
 20
321.0
 10
226.0
 20
304.0
 10
226.0
 20
304.0
 10
225.9615705608064502
 20
303.6098193559677156
 10
225.8477590650225864
 20
303.234633135269803
 10
225.6629392246050827
 20
302.8888595339607832
 10
225.4142135623731065
 20
302.5857864376268935
 10
225.1111404660392168
 20
302.3370607753948889
 10
224.7653668647301686
 20
302.1522409349774421
 10
224.3901806440322559
 20
302.0384294391935214
 10
224.0
 20
302.0
 10
64.0
 20
302.0
 10
64.0
 20
302.0
 10
63.6098193559677441
 20
302.0384294391935214
 10
63.2346331352698172
 20
302.1522409349774421
 10
62.8888595339607974
 20
302.3370607753948889
 10
62.5857864376269077
 20
302.5857864376268935
 10
62.3370607753949102
 20
302.8888595339607832
 10
62.1522409349774279
 20
303.234633135269803
 10
62.0384294391935356
 20
303.6098193559677156
 10
62.0
 20
304.0
 10
62.0
 20
321.0
 10
62.0
 20
321.0
 10
62.0384294391935356
 20
321.3901806440322844
 10
62.1522409349774279
 20
321.765366864730197
 10
62.3370607753949102
 20
322.1111404660392168
 10
62.5857864376269077
 20
322.4142135623731065
 10
62.8888595339607974
 20
322.6629392246051111
 10
63.2346331352698172
 20
322.8477590650225579
 10
63.6098193559677441
 20
322.9615705608064786
 10
64.0
 20
323.0
 97
0
 75
0
 76
1
 47
0.0
 98
0
  0
LWPOLYLINE
  5
34
330
1D
100
AcDbEntity
  8
0
  6
ByLayer
420
7763574
 48
1.0
 60
0
 67
0
370
-1
100
AcDbPolyline
 90
41
 70
1
 43
0.0
 38
0.0
 39
0.0
210
0.0
220
0.0
230
1.0
 10
64.0
 20
323.0
 40
0.0
 41
0.0
 42
0.0
 10
224.0
 20
323.0
 40
0.0
 41
0.0
 42
0.0
 10
224.0
 20
323.0
 40
0.0
 41
0.0
 42
0.0
 10
224.3901806440322559
 20
322.9615705608064786
 40
0.0
 41
0.0
 42
0.0
 10
224.7653668647301686
 20
322.8477590650225579
 40
0.0
 41
0.0
 42
0.0
 10
225.1111404660392168
 20
322.6629392246051111
 40
0.0
 41
0.0
 42
0.0
 10
225.4142135623731065
 20
322.4142135623731065
 40
0.0
 41
0.0
 42
0.0
 10
225.6629392246050827
 20
322.1111404660392168
 40
0.0
 41
0.0
 42
0.0
 10
225.8477590650225864
 20
321.765366864730197
 40
0.0
 41
0.0
 42
0.0
 10
225.9615705608064502
 20
321.3901806440322844
 40
0.0
 41
0.0
 42
0.0
 10
226.0
 20
321.0
 40
0.0
 41
0.0
 42
0.0
 10
226.0
 20
304.0
 40
0.0
 41
0.0
 42
0.0
 10
226.0
 20
304.0
 40
0.0
 41
0.0
 42
0.0
 10
225.9615705608064502
 20
303.6098193559677156
 40
0.0
 41
0.0
 42
0.0
 10
225.8477590650225864
 20
303.234633135269803
 40
0.0
 41
0.0
 42
0.0
 10
225.6629392246050827
 20
302.8888595339607832
 40
0.0
 41
0.0
 42
0.0
 10
225.4142135623731065
 20
302.5857864376268935
 40
0.0
 41
0.0
 42
0.0
 10
225.1111404660392168
 20
302.3370607753948889
 40
0.0
 41
0.0
 42
0.0
 10
224.7653668647301686
 20
302.1522409349774421
 40
0.0
 41
0.0
 42
0.0
 10
224.3901806440322559
 20
302.0384294391935214
 40
0.0
 41
0.0
 42
0.0
 10
224.0
 20
302.0
 40
0.0
 41
0.0
 42
0.0
 10
64.0
 20
302.0
 40
0.0
 41
0.0
 42
0.0
 10
64.0
 20
302.0
 40
0.0
 41
0.0
 42
0.0
 10
63.6098193559677441
 20
302.0384294391935214
 40
0.0
 41
0.0
 42
0.0
 10
63.2346331352698172
 20
302.1522409349774421
 40
0.0
 41
0.0
 42
0.0
 10
62.8888595339607974
 20
302.3370607753948889
 40
0.0
 41
0.0
 42
0.0
 10
62.5857864376269077
 20
302.5857864376268935
 40
0.0
 41
0.0
 42
0.0
 10
62.3370607753949102
 20
302.8888595339607832
 40
0.0
 41
0.0
 42
0.0
 10
62.1522409349774279
 20
303.234633135269803
 40
0.0
 41
0.0
 42
0.0
 10
62.0384294391935356
 20
303.6098193559677156
 40
0.0
 41
0.0
 42
0.0
 10
62.0
 20
304.0
 40
0.0
 41
0.0
 42
0.0
 10
62.0
 20
321.0
 40
0.0
 41
0.0
 42
0.0
 10
62.0
 20
321.0
 40
0.0
 41
0.0
 42
0.0
 10
62.0384294391935356
 20
321.3901806440322844
 40
0.0
 41
0.0
 42
0.0
 10
62.1522409349774279
 20
321.765366864730197
 40
0.0
 41
0.0
 42
0.0
 10
62.3370607753949102
 20
322.1111404660392168
 40
0.0
 41
0.0
 42
0.0
 10
62.5857864376269077
 20
322.4142135623731065
 40
0.0
 41
0.0
 42
0.0
 10
62.8888595339607974
 20
322.6629392246051111
 40
0.0
 41
0.0
 42
0.0
 10
63.2346331352698172
 20
322.8477590650225579
 40
0.0
 41
0.0
 42
0.0
 10
63.6098193559677441
 20
322.9615705608064786
 40
0.0
 41
0.0
 42
0.0
 10
64.0
 20
323.0
 40
0.0
 41
0.0
 42
0.0
  0
HATCH
  5
35
330
1D
100
AcDbEntity
  8
0
  6
ByLayer
420
16777215
 48
1.0
 60
0
 67
0
370
-1
100
AcDbHatch
 30
0.0
210
0.0
220
0.0
230
1.0
  2
SOLID
 70
1
 71
0
 91
1
 92
2
 72
0
 73
1
 93
41
 10
406.0
 20
658.0
 10
579.0
 20
658.0
 10
579.0
 20
658.0
 10
579.3901806440322844
 20
657.9615705608064218
 10
579.7653668647301402
 20
657.8477590650226148
 10
580.1111404660391599
 20
657.6629392246051111
 10
580.4142135623731065
 20
657.4142135623731065
 10
580.6629392246051111
 20
657.1111404660391599
 10
580.8477590650226148
 20
656.7653668647301402
 10
580.9615705608064218
 20
656.3901806440322844
 10
581.0
 20
656.0
 10
581.0
 20
639.0
 10
581.0
 20
639.0
 10
580.9615705608064218
 20
638.6098193559677156
 10
580.8477590650226148
 20
638.2346331352698598
 10
580.6629392246051111
 20
637.8888595339608401
 10
580.4142135623731065
 20
637.5857864376268935
 10
580.1111404660391599
 20
637.3370607753948889
 10
579.7653668647301402
 20
637.1522409349773852
 10
579.3901806440322844
 20
637.0384294391935782
 10
579.0
 20
637.0
 10
406.0
 20
637.0
 10
406.0
 20
637.0
 10
405.6098193559677156
 20
637.0384294391935782
 10
405.234633135269803
 20
637.1522409349773852
 10
404.8888595339607832
 20
637.3370607753948889
 10
404.5857864376268935
 20
637.5857864376268935
 10
404.3370607753948889
 20
637.8888595339608401
 10
404.1522409349774421
 20
638.2346331352698598
 10
404.0384294391935214
 20
638.6098193559677156
 10
404.0
 20
639.0
 10
404.0
 20
656.0
 10
404.0
 20
656.0
 10
404.0384294391935214
 20
656.3901806440322844
 10
404.1522409349774421
 20
656.7653668647301402
 10
404.3370607753948889
 20
657.1111404660391599
 10
404.5857864376268935
 20
657.4142135623731065
 10
404.8888595339607832
 20
657.6629392246051111
 10
405.234633135269803
 20
657.8477590650226148
 10
405.6098193559677156
 20
657.9615705608064218
 10
406.0
 20
658.0
 97
0
 75
0
 76
1
 47
0.0
 98
0
  0
LWPOLYLINE
  5
36
330
1D
100
AcDbEntity
  8
0
  6
ByLayer
420
7763574
 48
1.0
 60
0
 67
0
370
-1
100
AcDbPolyline
 90
41
 70
1
 43
0.0
 38
0.0
 39
0.0
210
0.0
220
0.0
230
1.0
 10
406.0
 20
658.0
 40
0.0
 41
0.0
 42
0.0
 10
579.0
 20
658.0
 40
0.0
 41
0.0
 42
0.0
 10
579.0
 20
658.0
 40
0.0
 41
0.0
 42
0.0
 10
579.3901806440322844
 20
657.9615705608064218
 40
0.0
 41
0.0
 42
0.0
 10
579.7653668647301402
 20
657.8477590650226148
 40
0.0
 41
0.0
 42
0.0
 10
580.1111404660391599
 20
657.6629392246051111
 40
0.0
 41
0.0
 42
0.0
 10
580.4142135623731065
 20
657.4142135623731065
 40
0.0
 41
0.0
 42
0.0
 10
580.6629392246051111
 20
657.1111404660391599
 40
0.0
 41
0.0
 42
0.0
 10
580.8477590650226148
 20
656.7653668647301402
 40
0.0
 41
0.0
 42
0.0
 10
580.9615705608064218
 20
656.3901806440322844
 40
0.0
 41
0.0
 42
0.0
 10
581.0
 20
656.0
 40
0.0
 41
0.0
 42
0.0
 10
581.0
 20
639.0
 40
0.0
 41
0.0
 42
0.0
 10
581.0
 20
639.0
 40
0.0
 41
0.0
 42
0.0
 10
580.9615705608064218
 20
638.6098193559677156
 40
0.0
 41
0.0
 42
0.0
 10
580.8477590650226148
 20
638.2346331352698598
 40
0.0
 41
0.0
 42
0.0
 10
580.6629392246051111
 20
637.8888595339608401
 40
0.0
 41
0.0
 42
0.0
 10
580.4142135623731065
 20
637.5857864376268935
 40
0.0
 41
0.0
 42
0.0
 10
580.1111404660391599
 20
637.3370607753948889
 40
0.0
 41
0.0
 42
0.0
 10
579.7653668647301402
 20
637.1522409349773852
 40
0.0
 41
0.0
 42
0.0
 10
579.3901806440322844
 20
637.0384294391935782
 40
0.0
 41
0.0
 42
0.0
 10
579.0
 20
637.0
 40
0.0
 41
0.0
 42
0.0
 10
406.0
 20
637.0
 40
0.0
 41
0.0
 42
0.0
 10
406.0
 20
637.0
 40
0.0
 41
0.0
 42
0.0
 10
405.6098193559677156
 20
637.0384294391935782
 40
0.0
 41
0.0
 42
0.0
 10
405.234633135269803
 20
637.1522409349773852
 40
0.0
 41
0.0
 42
0.0
 10
404.8888595339607832
 20
637.3370607753948889
 40
0.0
 41
0.0
 42
0.0
 10
404.5857864376268935
 20
637.5857864376268935
 40
0.0
 41
0.0
 42
0.0
 10
404.3370607753948889
 20
637.8888595339608401
 40
0.0
 41
0.0
 42
0.0
 10
404.1522409349774421
 20
638.2346331352698598
 40
0.0
 41
0.0
 42
0.0
 10
404.0384294391935214
 20
638.6098193559677156
 40
0.0
 41
0.0
 42
0.0
 10
404.0
 20
639.0
 40
0.0
 41
0.0
 42
0.0
 10
404.0
 20
656.0
 40
0.0
 41
0.0
 42
0.0
 10
404.0
 20
656.0
 40
0.0
 41
0.0
 42
0.0
 10
404.0384294391935214
 20
656.3901806440322844
 40
0.0
 41
0.0
 42
0.0
 10
404.1522409349774421
 20
656.7653668647301402
 40
0.0
 41
0.0
 42
0.0
 10
404.3370607753948889
 20
657.1111404660391599
 40
0.0
 41
0.0
 42
0.0
 10
404.5857864376268935
 20
657.4142135623731065
 40
0.0
 41
0.0
 42
0.0
 10
404.8888595339607832
 20
657.6629392246051111
 40
0.0
 41
0.0
 42
0.0
 10
405.234633135269803
 20
657.8477590650226148
 40
0.0
 41
0.0
 42
0.0
 10
405.6098193559677156
 20
657.9615705608064218
 40
0.0
 41
0.0
 42
0.0
 10
406.0
 20
658.0
 40
0.0
 41
0.0
 42
0.0
  0
TEXT
  5
37
330
1D
100
AcDbEntity
  8
0
  6
ByLayer
420
0
 48
1.0
 60
0
 67
0
370
-1
100
AcDbText
 39
0.0
 10
410.0
 20
644.25
 30
0.0
 40
13.0
  1
mnnmnmnm
 50
0.0
 41
1.0
 51
0.0
  7
Standard
 71
0
 72
0
 11
0.0
 21
0.0
 31
0.0
210
0.0
220
0.0
230
1.0
100
AcDbText
 73
0
  0
HATCH
  5
38
330
1D
100
AcDbEntity
  8
0
  6
ByLayer
420
12721951
 48
1.0
 60
0
 67
0
370
-1
100
AcDbHatch
 30
0.0
210
0.0
220
0.0
230
1.0
  2
SOLID
 70
1
 71
0
 91
1
 92
2
 72
0
 73
1
 93
4
 10
404.0
 20
622.0
 10
733.0
 20
622.0
 10
733.0
 20
393.0
 10
404.0
 20
393.0
 97
0
 75
0
 76
1
 47
0.0
 98
0
  0
LWPOLYLINE
  5
39
330
1D
100
AcDbEntity
  8
0
  6
ByLayer
420
0
 48
1.0
 60
0
 67
0
370
-1
100
AcDbPolyline
 90
4
 70
1
 43
0.0
 38
0.0
 39
0.0
210
0.0
220
0.0
230
1.0
 10
404.0
 20
622.0
 40
0.0
 41
0.0
 42
0.0
 10
733.0
 20
622.0
 40
0.0
 41
0.0
 42
0.0
 10
733.0
 20
393.0
 40
0.0
 41
0.0
 42
0.0
 10
404.0
 20
393.0
 40
0.0
 41
0.0
 42
0.0
  0
TEXT
  5
3A
330
1D
100
AcDbEntity
  8
0
  6
ByLayer
420
0
 48
1.0
 60
0
 67
0
370
-1
100
AcDbText
 39
0.0
 10
405.0
 20
610.25
 30
0.0
 40
13.0
  1
    dsfd.  fsdfd
 50
0.0
 41
1.0
 51
0.0
  7
Standard
 71
0
 72
0
 11
0.0
 21
0.0
 31
0.0
210
0.0
220
0.0
230
1.0
100
AcDbText
 73
0
  0
TEXT
  5
3B
330
1D
100
AcDbEntity
  8
0
  6
ByLayer
420
0
 48
1.0
 60
0
 67
0
370
-1
100
AcDbText
 39
0.0
 10
405.0
 20
595.25
 30
0.0
 40
13.0
  1
    dsfdfs.  dfddsf
 50
0.0
 41
1.0
 51
0.0
  7
Standard
 71
0
 72
0
 11
0.0
 21
0.0
 31
0.0
210
0.0
220
0.0
230
1.0
100
AcDbText
 73
0
  0
TEXT
  5
3C
330
1D
100
AcDbEntity
  8
0
  6
ByLayer
420
0
 48
1.0
 60
0
 67
0
370
-1
100
AcDbText
 39
0.0
 10
405.0
 20
580.25
 30
0.0
 40
13.0
  1
    sdf
 50
0.0
 41
1.0
 51
0.0
  7
Standard
 71
0
 72
0
 11
0.0
 21
0.0
 31
0.0
210
0.0
220
0.0
230
1.0
100
AcDbText
 73
0
  0
TEXT
  5
3D
330
1D
100
AcDbEntity
  8
0
  6
ByLayer
420
0
 48
1.0
 60
0
 67
0
370
-1
100
AcDbText
 39
0.0
 10
405.0
 20
565.25
 30
0.0
 40
13.0
  1
    dsfdfsdfddsfdfssddfs
 50
0.0
 41
1.0
 51
0.0
  7
Standard
 71
0
 72
0
 11
0.0
 21
0.0
 31
0.0
210
0.0
220
0.0
230
1.0
100
AcDbText
 73
0
  0
ENDSEC
  0
SECTION
  2
OBJECTS
  0
DICTIONARY
  5
1
330
0
100
AcDbDictionary
280
0
281
0
  3
ACAD_COLOR
350
2
  3
ACAD_GROUP
350
3
  3
ACAD_LAYOUT
350
4
  3
ACAD_MATERIAL
350
5
  3
ACAD_SORTENTS
350
6
  3
ACAD_MLEADERSTYLE
350
7
  3
ACAD_MLINESTYLE
350
8
  3
ACAD_TABLESTYLE
350
9
  3
ACAD_PLOTSETTINGS
350
A
  3
AcDbVariableDictionary
350
B
  3
ACAD_SCALELIST
350
C
  3
ACAD_VISUALSTYLE
350
D
  3
ACAD_FIELDLIST
350
E
  3
ACAD_IMAGE_DICT
350
F
  0
DICTIONARY
  5
2
330
1
100
AcDbDictionary
280
0
281
0
  0
DICTIONARY
  5
3
330
1
100
AcDbDictionary
280
0
281
0
  0
DICTIONARY
  5
4
330
1
100
AcDbDictionary
280
0
281
0
  0
DICTIONARY
  5
5
330
1
100
AcDbDictionary
280
0
281
0
  0
DICTIONARY
  5
6
330
1
100
AcDbDictionary
280
0
281
0
  0
DICTIONARY
  5
7
330
1
100
AcDbDictionary
280
0
281
0
  0
DICTIONARY
  5
8
330
1
100
AcDbDictionary
280
0
281
0
  0
DICTIONARY
  5
9
330
1
100
AcDbDictionary
280
0
281
0
  0
DICTIONARY
  5
A
330
1
100
AcDbDictionary
280
0
281
0
  0
DICTIONARY
  5
B
330
1
100
AcDbDictionary
280
0
281
0
  0
DICTIONARY
  5
C
330
1
100
AcDbDictionary
280
0
281
0
  0
DICTIONARY
  5
D
330
1
100
AcDbDictionary
280
0
281
0
  0
DICTIONARY
  5
E
330
1
100
AcDbDictionary
280
0
281
0
  0
DICTIONARY
  5
F
330
1
100
AcDbDictionary
280
0
281
0
  0
ENDSEC
  0
EOF
