0
SECTION
2
HEADER
9
$ACADVER
1
AC1021
9
$LASTSAVEDBY
1
@tarikjabiri/dxf
9
$HANDSEED
5
66
9
$INSUNITS
70
0
9
$CLAYER
8
0
9
$VIEWCTR
10
390
20
510.25
0
ENDSEC
0
SECTION
2
CLASSES
0
ENDSEC
0
SECTION
2
TABLES
0
TABLE
2
VPORT
5
1
330
0
100
AcDbSymbolTable
70
1
0
VPORT
5
19
330
1
100
AcDbSymbolTableRecord
100
AcDbViewportTableRecord
2
*Active
70
0
10
0
20
0
11
1
21
1
12
390
22
510.25
13
0
23
0
14
10
24
10
15
10
25
10
16
0
26
0
36
1
17
0
27
0
37
0
40
1220.5
41
2
42
50
43
0
44
0
50
0
51
0
71
0
72
100
73
1
74
3
75
0
76
1
77
0
78
0
281
0
65
1
110
0
120
0
130
0
111
1
121
0
131
0
112
0
122
1
132
0
79
0
146
0
348
10020
60
7
61
5
292
1
282
1
141
0
142
0
63
250
421
3358443
0
ENDTAB
0
TABLE
2
LTYPE
5
2
330
0
100
AcDbSymbolTable
70
3
0
LTYPE
5
12
330
2
100
AcDbSymbolTableRecord
100
AcDbLinetypeTableRecord
2
ByBlock
70
0
3

72
65
73
0
40
0
0
LTYPE
5
13
330
2
100
AcDbSymbolTableRecord
100
AcDbLinetypeTableRecord
2
ByLayer
70
0
3

72
65
73
0
40
0
0
LTYPE
5
14
330
2
100
AcDbSymbolTableRecord
100
AcDbLinetypeTableRecord
2
Continuous
70
0
3
Solid line
72
65
73
0
40
0
0
ENDTAB
0
TABLE
2
LAYER
5
3
330
0
100
AcDbSymbolTable
70
1
0
LAYER
5
15
330
3
100
AcDbSymbolTableRecord
100
AcDbLayerTableRecord
2
0
70
0
62
7
6
Continuous
370
0
390
0
0
ENDTAB
0
TABLE
2
STYLE
5
4
330
0
100
AcDbSymbolTable
70
2
0
STYLE
5
16
330
4
100
AcDbSymbolTableRecord
100
AcDbTextStyleTableRecord
2
Standard
70
0
40
0
41
1
50
0
71
0
42
1
3
txt
4

0
STYLE
5
1B
330
4
100
AcDbSymbolTableRecord
100
AcDbTextStyleTableRecord
2
Arial
70
0
40
0
41
1
50
0
71
0
42
1
3
Arial.ttf
4

0
ENDTAB
0
TABLE
2
VIEW
5
5
330
0
100
AcDbSymbolTable
70
0
0
ENDTAB
0
TABLE
2
UCS
5
6
330
0
100
AcDbSymbolTable
70
0
0
ENDTAB
0
TABLE
2
APPID
5
7
330
0
100
AcDbSymbolTable
70
1
0
APPID
5
17
330
7
100
AcDbSymbolTableRecord
100
AcDbRegAppTableRecord
2
ACAD
70
0
0
ENDTAB
0
TABLE
2
DIMSTYLE
5
8
330
0
100
AcDbSymbolTable
70
1
100
AcDbDimStyleTable
0
DIMSTYLE
105
18
330
8
100
AcDbSymbolTableRecord
100
AcDbDimStyleTableRecord
2
Standard
70
0
340
16
0
ENDTAB
0
TABLE
2
BLOCK_RECORD
5
9
330
0
100
AcDbSymbolTable
70
2
0
BLOCK_RECORD
5
C
330
9
100
AcDbSymbolTableRecord
100
AcDbBlockTableRecord
2
*Model_Space
70
0
280
1
281
0
0
BLOCK_RECORD
5
F
330
9
100
AcDbSymbolTableRecord
100
AcDbBlockTableRecord
2
*Paper_Space
70
0
280
1
281
0
0
ENDTAB
0
ENDSEC
0
SECTION
2
BLOCKS
0
BLOCK
5
D
330
C
100
AcDbEntity
8
0
100
AcDbBlockBegin
2
*Model_Space
70
0
10
0
20
0
30
0
3
*Model_Space
1

0
ENDBLK
5
E
100
AcDbEntity
8
0
100
AcDbBlockEnd
0
BLOCK
5
10
330
F
100
AcDbEntity
8
0
100
AcDbBlockBegin
2
*Paper_Space
70
0
10
0
20
0
30
0
3
*Paper_Space
1

0
ENDBLK
5
11
100
AcDbEntity
8
0
100
AcDbBlockEnd
0
ENDSEC
0
SECTION
2
ENTITIES
0
TEXT
5
1A
330
C
100
AcDbEntity
420
1910582
8
0
100
AcDbText
10
0
20
1020.5
30
0
40
28
1
Native Form Controls
7
Arial
100
AcDbText
0
LWPOLYLINE
5
1C
330
C
100
AcDbEntity
420
14147306
8
0
100
AcDbPolyline
90
42
70
0
43
0
38
0
39
0
10
14
20
991
10
417
20
991
10
417
20
991
10
419.7312645082258
20
990.7309939256452
10
422.35756805311127
20
989.934313455158
10
424.77798326227446
20
988.6405745722357
10
426.8994949366117
20
986.8994949366116
10
428.6405745722356
20
984.7779832622745
10
429.934313455158
20
982.3575680531112
10
430.73099392564524
20
979.7312645082258
10
431
20
977
10
431
20
678
10
431
20
678
10
430.73099392564524
20
675.2687354917741
10
429.934313455158
20
672.6424319468888
10
428.6405745722356
20
670.2220167377257
10
426.8994949366117
20
668.1005050633883
10
424.77798326227446
20
666.3594254277643
10
422.35756805311127
20
665.065686544842
10
419.7312645082258
20
664.2690060743548
10
417
20
664
10
14
20
664
10
14
20
664
10
11.268735491774205
20
664.2690060743548
10
8.642431946888744
20
665.065686544842
10
6.222016737725573
20
666.3594254277643
10
4.100505063388336
20
668.1005050633883
10
2.3594254277643643
20
670.2220167377257
10
1.065686544841986
20
672.6424319468888
10
0.26900607435477397
20
675.2687354917741
10
0
20
678
10
0
20
977
10
0
20
977
10
0.26900607435477397
20
979.7312645082258
10
1.0656865448419843
20
982.3575680531112
10
2.3594254277643643
20
984.7779832622745
10
4.100505063388333
20
986.8994949366116
10
6.2220167377255695
20
988.6405745722357
10
8.642431946888735
20
989.934313455158
10
11.268735491774198
20
990.7309939256452
10
13.999999999999998
20
991
10
14
20
991
0
TEXT
5
1D
330
C
100
AcDbEntity
420
1910582
8
0
100
AcDbText
10
19
20
959.5
30
0
40
16
1
Value Fields
7
Arial
100
AcDbText
0
TEXT
5
1E
330
C
100
AcDbEntity
420
4938352
8
0
100
AcDbText
10
19
20
930
30
0
40
12
1
TEXT INPUT
7
Arial
100
AcDbText
0
LWPOLYLINE
5
1F
330
C
100
AcDbEntity
420
9741240
8
0
100
AcDbPolyline
90
42
70
0
43
0
38
0
39
0
10
27
20
920
10
404
20
920
10
404
20
920
10
405.560722576129
20
919.8462822432258
10
407.06146745892073
20
919.3910362600902
10
408.4445618641568
20
918.6517568984203
10
409.65685424949237
20
917.6568542494924
10
410.6517568984204
20
916.4445618641569
10
411.3910362600903
20
915.0614674589207
10
411.84628224322586
20
913.560722576129
10
412
20
912
10
412
20
888
10
412
20
888
10
411.84628224322586
20
886.439277423871
10
411.3910362600903
20
884.9385325410792
10
410.6517568984204
20
883.5554381358431
10
409.65685424949237
20
882.3431457505076
10
408.4445618641568
20
881.3482431015797
10
407.06146745892073
20
880.6089637399098
10
405.560722576129
20
880.1537177567741
10
404
20
880
10
27
20
880
10
27
20
880
10
25.439277423870976
20
880.1537177567741
10
23.938532541079283
20
880.6089637399098
10
22.555438135843183
20
881.3482431015797
10
21.34314575050762
20
882.3431457505076
10
20.348243101579637
20
883.5554381358431
10
19.608963739909704
20
884.9385325410792
10
19.153717756774157
20
886.439277423871
10
19
20
888
10
19
20
912
10
19
20
912
10
19.153717756774157
20
913.560722576129
10
19.608963739909704
20
915.0614674589207
10
20.348243101579637
20
916.4445618641569
10
21.343145750507617
20
917.6568542494924
10
22.555438135843183
20
918.6517568984203
10
23.938532541079276
20
919.3910362600902
10
25.43927742387097
20
919.8462822432258
10
27
20
920
10
27
20
920
0
TEXT
5
20
330
C
100
AcDbEntity
420
1120295
8
0
100
AcDbText
10
31
20
896
30
0
40
16
1
Alice Johnson
7
Arial
100
AcDbText
0
TEXT
5
21
330
C
100
AcDbEntity
420
4938352
8
0
100
AcDbText
10
19
20
856
30
0
40
12
1
TEXTAREA
7
Arial
100
AcDbText
0
LWPOLYLINE
5
22
330
C
100
AcDbEntity
420
9741240
8
0
100
AcDbPolyline
90
42
70
0
43
0
38
0
39
0
10
27
20
846
10
404
20
846
10
404
20
846
10
405.560722576129
20
845.8462822432259
10
407.06146745892073
20
845.3910362600902
10
408.4445618641568
20
844.6517568984203
10
409.65685424949237
20
843.6568542494924
10
410.6517568984204
20
842.4445618641569
10
411.3910362600903
20
841.0614674589208
10
411.84628224322586
20
839.560722576129
10
412
20
838
10
412
20
766
10
412
20
766
10
411.84628224322586
20
764.439277423871
10
411.3910362600903
20
762.9385325410792
10
410.6517568984204
20
761.5554381358431
10
409.65685424949237
20
760.3431457505076
10
408.4445618641568
20
759.3482431015796
10
407.06146745892073
20
758.6089637399098
10
405.560722576129
20
758.1537177567741
10
404
20
758
10
27
20
758
10
27
20
758
10
25.439277423870976
20
758.1537177567741
10
23.938532541079283
20
758.6089637399098
10
22.555438135843183
20
759.3482431015796
10
21.34314575050762
20
760.3431457505076
10
20.348243101579637
20
761.5554381358431
10
19.608963739909704
20
762.9385325410792
10
19.153717756774157
20
764.439277423871
10
19
20
766
10
19
20
838
10
19
20
838
10
19.153717756774157
20
839.560722576129
10
19.608963739909704
20
841.0614674589208
10
20.348243101579637
20
842.4445618641569
10
21.343145750507617
20
843.6568542494924
10
22.555438135843183
20
844.6517568984203
10
23.938532541079276
20
845.3910362600902
10
25.43927742387097
20
845.8462822432258
10
27
20
846
10
27
20
846
0
TEXT
5
23
330
C
100
AcDbEntity
420
1120295
8
0
100
AcDbText
10
31
20
822.4
30
0
40
16
1
First line
7
Arial
100
AcDbText
0
TEXT
5
24
330
C
100
AcDbEntity
420
1120295
8
0
100
AcDbText
10
31
20
803.2
30
0
40
16
1
Second line
7
Arial
100
AcDbText
0
TEXT
5
25
330
C
100
AcDbEntity
420
1120295
8
0
100
AcDbText
10
31
20
784
30
0
40
16
1
Third line
7
Arial
100
AcDbText
0
TEXT
5
26
330
C
100
AcDbEntity
420
4938352
8
0
100
AcDbText
10
19
20
734
30
0
40
12
1
SELECT
7
Arial
100
AcDbText
0
LWPOLYLINE
5
27
330
C
100
AcDbEntity
420
9741240
8
0
100
AcDbPolyline
90
42
70
0
43
0
38
0
39
0
10
27
20
724
10
404
20
724
10
404
20
724
10
405.560722576129
20
723.8462822432259
10
407.06146745892073
20
723.3910362600902
10
408.4445618641568
20
722.6517568984204
10
409.65685424949237
20
721.6568542494924
10
410.6517568984204
20
720.4445618641569
10
411.3910362600903
20
719.0614674589208
10
411.84628224322586
20
717.560722576129
10
412
20
716
10
412
20
691
10
412
20
691
10
411.84628224322586
20
689.439277423871
10
411.3910362600903
20
687.9385325410792
10
410.6517568984204
20
686.5554381358431
10
409.65685424949237
20
685.3431457505076
10
408.4445618641568
20
684.3482431015796
10
407.06146745892073
20
683.6089637399098
10
405.560722576129
20
683.1537177567741
10
404
20
683
10
27
20
683
10
27
20
683
10
25.439277423870976
20
683.1537177567741
10
23.938532541079283
20
683.6089637399098
10
22.555438135843183
20
684.3482431015796
10
21.34314575050762
20
685.3431457505076
10
20.348243101579637
20
686.5554381358431
10
19.608963739909704
20
687.9385325410792
10
19.153717756774157
20
689.439277423871
10
19
20
691
10
19
20
716
10
19
20
716
10
19.153717756774157
20
717.560722576129
10
19.608963739909704
20
719.0614674589208
10
20.348243101579637
20
720.4445618641569
10
21.343145750507617
20
721.6568542494924
10
22.555438135843183
20
722.6517568984204
10
23.938532541079276
20
723.3910362600902
10
25.43927742387097
20
723.8462822432259
10
27
20
724
10
27
20
724
0
TEXT
5
28
330
C
100
AcDbEntity
420
1120295
8
0
100
AcDbText
10
31
20
699.5
30
0
40
16
1
Normal
7
Arial
100
AcDbText
0
LWPOLYLINE
5
29
330
C
100
AcDbEntity
420
5263440
8
0
100
AcDbPolyline
90
3
70
0
43
0
38
0
39
0
10
399
20
705.26
10
403
20
701.74
10
407
20
705.26
0
LWPOLYLINE
5
2A
330
C
100
AcDbEntity
420
14147306
8
0
100
AcDbPolyline
90
42
70
0
43
0
38
0
39
0
10
463
20
991
10
866
20
991
10
866
20
991
10
868.7312645082258
20
990.7309939256452
10
871.3575680531112
20
989.934313455158
10
873.7779832622745
20
988.6405745722357
10
875.8994949366116
20
986.8994949366116
10
877.6405745722357
20
984.7779832622745
10
878.934313455158
20
982.3575680531112
10
879.7309939256452
20
979.7312645082258
10
880
20
977
10
880
20
678
10
880
20
678
10
879.7309939256452
20
675.2687354917741
10
878.934313455158
20
672.6424319468888
10
877.6405745722357
20
670.2220167377257
10
875.8994949366116
20
668.1005050633883
10
873.7779832622745
20
666.3594254277643
10
871.3575680531112
20
665.065686544842
10
868.7312645082258
20
664.2690060743548
10
866
20
664
10
463
20
664
10
463
20
664
10
460.2687354917742
20
664.2690060743548
10
457.64243194688873
20
665.065686544842
10
455.2220167377256
20
666.3594254277643
10
453.1005050633883
20
668.1005050633883
10
451.35942542776434
20
670.2220167377257
10
450.065686544842
20
672.6424319468888
10
449.26900607435476
20
675.2687354917741
10
449
20
678
10
449
20
977
10
449
20
977
10
449.26900607435476
20
979.7312645082258
10
450.065686544842
20
982.3575680531112
10
451.35942542776434
20
984.7779832622745
10
453.1005050633883
20
986.8994949366116
10
455.2220167377256
20
988.6405745722357
10
457.64243194688873
20
989.934313455158
10
460.2687354917742
20
990.7309939256452
10
463
20
991
10
463
20
991
0
TEXT
5
2B
330
C
100
AcDbEntity
420
1910582
8
0
100
AcDbText
10
468
20
959.5
30
0
40
16
1
State Fields
7
Arial
100
AcDbText
0
LWPOLYLINE
5
2C
330
C
100
AcDbEntity
420
1008382
8
0
100
AcDbPolyline
90
42
70
0
43
0
38
0
39
0
10
474
20
937
10
488
20
937
10
488
20
937
10
488.3901806440323
20
936.9615705608064
10
488.7653668647302
20
936.8477590650226
10
489.1111404660392
20
936.6629392246051
10
489.4142135623731
20
936.4142135623731
10
489.6629392246051
20
936.1111404660392
10
489.84775906502256
20
935.7653668647301
10
489.9615705608065
20
935.3901806440323
10
490
20
935
10
490
20
921
10
490
20
921
10
489.9615705608065
20
920.6098193559677
10
489.84775906502256
20
920.2346331352699
10
489.6629392246051
20
919.8888595339608
10
489.4142135623731
20
919.5857864376269
10
489.1111404660392
20
919.3370607753949
10
488.7653668647302
20
919.1522409349774
10
488.3901806440323
20
919.0384294391936
10
488
20
919
10
474
20
919
10
474
20
919
10
473.6098193559677
20
919.0384294391936
10
473.2346331352698
20
919.1522409349774
10
472.8888595339608
20
919.3370607753949
10
472.5857864376269
20
919.5857864376269
10
472.3370607753949
20
919.8888595339608
10
472.15224093497744
20
920.2346331352699
10
472.0384294391935
20
920.6098193559677
10
472
20
921
10
472
20
935
10
472
20
935
10
472.0384294391935
20
935.3901806440323
10
472.15224093497744
20
935.7653668647301
10
472.3370607753949
20
936.1111404660392
10
472.5857864376269
20
936.4142135623731
10
472.8888595339608
20
936.6629392246051
10
473.2346331352698
20
936.8477590650226
10
473.6098193559677
20
936.9615705608064
10
474
20
937
10
474
20
937
0
LWPOLYLINE
5
2D
330
C
100
AcDbEntity
420
16777215
8
0
100
AcDbPolyline
90
3
70
0
43
0
38
0
39
0
10
475.96
20
927.28
10
479.56
20
923.6800000000001
10
486.04
20
931.6
0
TEXT
5
2E
330
C
100
AcDbEntity
420
4938352
8
0
100
AcDbText
10
503
20
925
30
0
40
12
1
CHECKED CHECKBOX
7
Arial
100
AcDbText
0
LWPOLYLINE
5
2F
330
C
100
AcDbEntity
420
1008382
8
0
100
AcDbPolyline
90
42
70
0
43
0
38
0
39
0
10
474
20
901
10
488
20
901
10
488
20
901
10
488.3901806440323
20
900.9615705608064
10
488.7653668647302
20
900.8477590650226
10
489.1111404660392
20
900.6629392246051
10
489.4142135623731
20
900.4142135623731
10
489.6629392246051
20
900.1111404660392
10
489.84775906502256
20
899.7653668647301
10
489.9615705608065
20
899.3901806440323
10
490
20
899
10
490
20
885
10
490
20
885
10
489.9615705608065
20
884.6098193559677
10
489.84775906502256
20
884.2346331352699
10
489.6629392246051
20
883.8888595339608
10
489.4142135623731
20
883.5857864376269
10
489.1111404660392
20
883.3370607753949
10
488.7653668647302
20
883.1522409349774
10
488.3901806440323
20
883.0384294391936
10
488
20
883
10
474
20
883
10
474
20
883
10
473.6098193559677
20
883.0384294391936
10
473.2346331352698
20
883.1522409349774
10
472.8888595339608
20
883.3370607753949
10
472.5857864376269
20
883.5857864376269
10
472.3370607753949
20
883.8888595339608
10
472.15224093497744
20
884.2346331352699
10
472.0384294391935
20
884.6098193559677
10
472
20
885
10
472
20
899
10
472
20
899
10
472.0384294391935
20
899.3901806440323
10
472.15224093497744
20
899.7653668647301
10
472.3370607753949
20
900.1111404660392
10
472.5857864376269
20
900.4142135623731
10
472.8888595339608
20
900.6629392246051
10
473.2346331352698
20
900.8477590650226
10
473.6098193559677
20
900.9615705608064
10
474
20
901
10
474
20
901
0
LWPOLYLINE
5
30
330
C
100
AcDbEntity
420
16777215
8
0
100
AcDbPolyline
90
5
70
0
43
0
38
0
39
0
10
475.6
20
893.26
10
486.4
20
893.26
10
486.4
20
890.74
10
475.6
20
890.74
10
475.6
20
893.26
0
TEXT
5
31
330
C
100
AcDbEntity
420
4938352
8
0
100
AcDbText
10
503
20
889
30
0
40
12
1
INDETERMINATE CHECKBOX
7
Arial
100
AcDbText
0
HATCH
5
32
330
C
100
AcDbEntity
420
16777215
8
0
100
AcDbHatch
10
0
20
0
30
0
210
0
220
0
230
1
2
SOLID
70
1
71
0
91
1
92
7
72
0
73
1
93
28
10
491
20
856
10
490.7743512096364
20
853.9973115943932
10
490.1087198111218
20
852.095046347942
10
489.03648334221225
20
850.3885917832714
10
487.6114082167286
20
848.9635166577877
10
485.904953652058
20
847.8912801888782
10
484.0026884056068
20
847.2256487903636
10
482
20
847
10
479.9973115943932
20
847.2256487903636
10
478.095046347942
20
847.8912801888782
10
476.3885917832714
20
848.9635166577877
10
474.96351665778775
20
850.3885917832714
10
473.8912801888782
20
852.095046347942
10
473.2256487903636
20
853.9973115943932
10
473
20
856
10
473.2256487903636
20
858.0026884056068
10
473.8912801888782
20
859.904953652058
10
474.96351665778775
20
861.6114082167286
10
476.3885917832714
20
863.0364833422123
10
478.095046347942
20
864.1087198111218
10
479.9973115943932
20
864.7743512096364
10
482
20
865
10
484.0026884056068
20
864.7743512096364
10
485.904953652058
20
864.1087198111218
10
487.6114082167286
20
863.0364833422123
10
489.03648334221225
20
861.6114082167286
10
490.1087198111218
20
859.904953652058
10
490.7743512096364
20
858.0026884056068
97
0
75
1
76
1
47
1
98
0
0
LWPOLYLINE
5
33
330
C
100
AcDbEntity
420
1008382
8
0
100
AcDbPolyline
90
29
70
0
43
0
38
0
39
0
10
491
20
856
10
490.7743512096364
20
853.9973115943932
10
490.1087198111218
20
852.095046347942
10
489.03648334221225
20
850.3885917832714
10
487.6114082167286
20
848.9635166577877
10
485.904953652058
20
847.8912801888782
10
484.0026884056068
20
847.2256487903636
10
482
20
847
10
479.9973115943932
20
847.2256487903636
10
478.095046347942
20
847.8912801888782
10
476.3885917832714
20
848.9635166577877
10
474.96351665778775
20
850.3885917832714
10
473.8912801888782
20
852.095046347942
10
473.2256487903636
20
853.9973115943932
10
473
20
856
10
473.2256487903636
20
858.0026884056068
10
473.8912801888782
20
859.904953652058
10
474.96351665778775
20
861.6114082167286
10
476.3885917832714
20
863.0364833422123
10
478.095046347942
20
864.1087198111218
10
479.9973115943932
20
864.7743512096364
10
482
20
865
10
484.0026884056068
20
864.7743512096364
10
485.904953652058
20
864.1087198111218
10
487.6114082167286
20
863.0364833422123
10
489.03648334221225
20
861.6114082167286
10
490.1087198111218
20
859.904953652058
10
490.7743512096364
20
858.0026884056068
10
491
20
856
0
HATCH
5
34
330
C
100
AcDbEntity
420
1008382
8
0
100
AcDbHatch
10
0
20
0
30
0
210
0
220
0
230
1
2
SOLID
70
1
71
0
91
1
92
7
72
0
73
1
93
24
10
485.78
20
856
10
485.6511996233727
20
855.0216640095125
10
485.2735760263052
20
854.11
10
484.67286363288514
20
853.3271363671149
10
483.89
20
852.7264239736949
10
482.97833599048755
20
852.3488003766273
10
482
20
852.22
10
481.02166400951245
20
852.3488003766273
10
480.11
20
852.7264239736949
10
479.32713636711486
20
853.3271363671149
10
478.7264239736948
20
854.11
10
478.3488003766273
20
855.0216640095125
10
478.22
20
856
10
478.3488003766273
20
856.9783359904875
10
478.7264239736948
20
857.89
10
479.32713636711486
20
858.6728636328851
10
480.11
20
859.2735760263051
10
481.02166400951245
20
859.6511996233727
10
482
20
859.78
10
482.97833599048755
20
859.6511996233727
10
483.89
20
859.2735760263051
10
484.67286363288514
20
858.6728636328851
10
485.2735760263052
20
857.89
10
485.6511996233727
20
856.9783359904875
97
0
75
1
76
1
47
1
98
0
0
LWPOLYLINE
5
35
330
C
100
AcDbEntity
420
1008382
8
0
100
AcDbPolyline
90
25
70
0
43
0
38
0
39
0
10
485.78
20
856
10
485.6511996233727
20
855.0216640095125
10
485.2735760263052
20
854.11
10
484.67286363288514
20
853.3271363671149
10
483.89
20
852.7264239736949
10
482.97833599048755
20
852.3488003766273
10
482
20
852.22
10
481.02166400951245
20
852.3488003766273
10
480.11
20
852.7264239736949
10
479.32713636711486
20
853.3271363671149
10
478.7264239736948
20
854.11
10
478.3488003766273
20
855.0216640095125
10
478.22
20
856
10
478.3488003766273
20
856.9783359904875
10
478.7264239736948
20
857.89
10
479.32713636711486
20
858.6728636328851
10
480.11
20
859.2735760263051
10
481.02166400951245
20
859.6511996233727
10
482
20
859.78
10
482.97833599048755
20
859.6511996233727
10
483.89
20
859.2735760263051
10
484.67286363288514
20
858.6728636328851
10
485.2735760263052
20
857.89
10
485.6511996233727
20
856.9783359904875
10
485.78
20
856
0
TEXT
5
36
330
C
100
AcDbEntity
420
4938352
8
0
100
AcDbText
10
504
20
854.5
30
0
40
12
1
SELECTED RADIO BUTTON
7
Arial
100
AcDbText
0
TEXT
5
37
330
C
100
AcDbEntity
420
4938352
8
0
100
AcDbText
10
468
20
825
30
0
40
12
1
PROGRESS
7
Arial
100
AcDbText
0
LWPOLYLINE
5
38
330
C
100
AcDbEntity
420
1910582
8
0
100
AcDbPolyline
90
42
70
0
43
0
38
0
39
0
10
477
20
815
10
852
20
815
10
852
20
815
10
853.7558128981451
20
814.827067523629
10
855.4441508912859
20
814.3149157926016
10
857.0001320971764
20
813.483226510723
10
858.363961030679
20
812.3639610306789
10
859.483226510723
20
811.0001320971764
10
860.3149157926016
20
809.4441508912857
10
860.8270675236291
20
807.7558128981452
10
861
20
806
10
861
20
806
10
861
20
806
10
860.8270675236291
20
804.2441871018548
10
860.3149157926016
20
802.5558491087143
10
859.483226510723
20
800.9998679028236
10
858.363961030679
20
799.6360389693211
10
857.0001320971764
20
798.516773489277
10
855.4441508912859
20
797.6850842073984
10
853.7558128981451
20
797.172932476371
10
852
20
797
10
477
20
797
10
477
20
797
10
475.24418710185483
20
797.172932476371
10
473.5558491087142
20
797.6850842073984
10
471.9998679028236
20
798.516773489277
10
470.6360389693211
20
799.6360389693211
10
469.5167734892771
20
800.9998679028236
10
468.6850842073984
20
802.5558491087143
10
468.17293247637093
20
804.2441871018548
10
468
20
806
10
468
20
806
10
468
20
806
10
468.17293247637093
20
807.7558128981452
10
468.6850842073984
20
809.4441508912857
10
469.5167734892771
20
811.0001320971764
10
470.6360389693211
20
812.3639610306789
10
471.99986790282355
20
813.483226510723
10
473.5558491087142
20
814.3149157926016
10
475.24418710185483
20
814.827067523629
10
477
20
815
10
477
20
815
0
LWPOLYLINE
5
39
330
C
100
AcDbEntity
420
1008382
8
0
100
AcDbPolyline
90
42
70
0
43
0
38
0
39
0
10
477
20
814
10
742.52
20
814
10
742.52
20
814
10
744.080722576129
20
813.8462822432259
10
745.5814674589207
20
813.3910362600902
10
746.9645618641568
20
812.6517568984203
10
748.1768542494924
20
811.6568542494924
10
749.1717568984203
20
810.4445618641569
10
749.9110362600903
20
809.0614674589208
10
750.3662822432258
20
807.560722576129
10
750.52
20
806
10
750.52
20
806
10
750.52
20
806
10
750.3662822432258
20
804.439277423871
10
749.9110362600903
20
802.9385325410792
10
749.1717568984203
20
801.5554381358431
10
748.1768542494924
20
800.3431457505076
10
746.9645618641568
20
799.3482431015797
10
745.5814674589207
20
798.6089637399098
10
744.080722576129
20
798.1537177567741
10
742.52
20
798
10
477
20
798
10
477
20
798
10
475.439277423871
20
798.1537177567741
10
473.93853254107927
20
798.6089637399098
10
472.5554381358432
20
799.3482431015797
10
471.34314575050763
20
800.3431457505076
10
470.3482431015796
20
801.5554381358431
10
469.6089637399097
20
802.9385325410792
10
469.15371775677414
20
804.439277423871
10
469
20
806
10
469
20
806
10
469
20
806
10
469.15371775677414
20
807.560722576129
10
469.6089637399097
20
809.0614674589208
10
470.3482431015796
20
810.4445618641569
10
471.34314575050763
20
811.6568542494924
10
472.5554381358432
20
812.6517568984203
10
473.93853254107927
20
813.3910362600902
10
475.439277423871
20
813.8462822432258
10
477
20
814
10
477
20
814
0
TEXT
5
3A
330
C
100
AcDbEntity
420
1910582
8
0
100
AcDbText
10
648.48828125
20
802
30
0
40
16
1
72%
7
Arial
100
AcDbText
0
TEXT
5
3B
330
C
100
AcDbEntity
420
4938352
8
0
100
AcDbText
10
468
20
773
30
0
40
12
1
METER
7
Arial
100
AcDbText
0
LWPOLYLINE
5
3C
330
C
100
AcDbEntity
420
1910582
8
0
100
AcDbPolyline
90
42
70
0
43
0
38
0
39
0
10
478
20
763
10
851
20
763
10
851
20
763
10
852.9509032201613
20
762.8078528040323
10
854.8268343236509
20
762.2387953251128
10
856.555702330196
20
761.3146961230254
10
858.0710678118655
20
760.0710678118655
10
859.3146961230254
20
758.555702330196
10
860.2387953251128
20
756.8268343236509
10
860.8078528040323
20
754.9509032201613
10
861
20
753
10
861
20
753
10
861
20
753
10
860.8078528040323
20
751.0490967798387
10
860.2387953251128
20
749.1731656763491
10
859.3146961230254
20
747.444297669804
10
858.0710678118655
20
745.9289321881345
10
856.555702330196
20
744.6853038769746
10
854.8268343236509
20
743.7612046748872
10
852.9509032201613
20
743.1921471959677
10
851
20
743
10
478
20
743
10
478
20
743
10
476.0490967798387
20
743.1921471959677
10
474.17316567634913
20
743.7612046748872
10
472.444297669804
20
744.6853038769746
10
470.9289321881345
20
745.9289321881345
10
469.68530387697456
20
747.444297669804
10
468.76120467488715
20
749.1731656763491
10
468.1921471959677
20
751.0490967798387
10
468
20
753
10
468
20
753
10
468
20
753
10
468.1921471959677
20
754.9509032201613
10
468.76120467488715
20
756.8268343236509
10
469.68530387697456
20
758.555702330196
10
470.9289321881345
20
760.0710678118655
10
472.444297669804
20
761.3146961230254
10
474.1731656763491
20
762.2387953251128
10
476.0490967798387
20
762.8078528040323
10
478
20
763
10
478
20
763
0
LWPOLYLINE
5
3D
330
C
100
AcDbEntity
420
3706428
8
0
100
AcDbPolyline
90
42
70
0
43
0
38
0
39
0
10
478
20
762
10
702.42
20
762
10
702.42
20
762
10
704.1758128981451
20
761.827067523629
10
705.8641508912858
20
761.3149157926016
10
707.4201320971764
20
760.483226510723
10
708.7839610306789
20
759.3639610306789
10
709.9032265107229
20
758.0001320971764
10
710.7349157926016
20
756.4441508912857
10
711.2470675236291
20
754.7558128981452
10
711.42
20
753
10
711.42
20
753
10
711.42
20
753
10
711.2470675236291
20
751.2441871018548
10
710.7349157926016
20
749.5558491087143
10
709.9032265107229
20
747.9998679028236
10
708.7839610306789
20
746.6360389693211
10
707.4201320971764
20
745.516773489277
10
705.8641508912858
20
744.6850842073984
10
704.1758128981451
20
744.172932476371
10
702.42
20
744
10
478
20
744
10
478
20
744
10
476.24418710185483
20
744.172932476371
10
474.5558491087142
20
744.6850842073984
10
472.9998679028236
20
745.516773489277
10
471.6360389693211
20
746.6360389693211
10
470.5167734892771
20
747.9998679028236
10
469.6850842073984
20
749.5558491087143
10
469.17293247637093
20
751.2441871018548
10
469
20
753
10
469
20
753
10
469
20
753
10
469.17293247637093
20
754.7558128981452
10
469.6850842073984
20
756.4441508912857
10
470.5167734892771
20
758.0001320971764
10
471.6360389693211
20
759.3639610306789
10
472.99986790282355
20
760.483226510723
10
474.5558491087142
20
761.3149157926016
10
476.24418710185483
20
761.827067523629
10
478
20
762
10
478
20
762
0
LWPOLYLINE
5
3E
330
C
100
AcDbEntity
420
14147306
8
0
100
AcDbPolyline
90
42
70
0
43
0
38
0
39
0
10
14
20
646
10
417
20
646
10
417
20
646
10
419.7312645082258
20
645.7309939256452
10
422.35756805311127
20
644.934313455158
10
424.77798326227446
20
643.6405745722357
10
426.8994949366117
20
641.8994949366117
10
428.6405745722356
20
639.7779832622743
10
429.934313455158
20
637.3575680531112
10
430.73099392564524
20
634.7312645082259
10
431
20
632
10
431
20
14
10
431
20
14
10
430.73099392564524
20
11.268735491774123
10
429.934313455158
20
8.642431946888792
10
428.6405745722356
20
6.222016737725653
10
426.8994949366117
20
4.100505063388255
10
424.77798326227446
20
2.359425427764336
10
422.35756805311127
20
1.0656865448420376
10
419.7312645082258
20
0.26900607435482016
10
417
20
0
10
14
20
0
10
14
20
0
10
11.268735491774205
20
0.26900607435482016
10
8.642431946888744
20
1.0656865448420376
10
6.222016737725573
20
2.359425427764336
10
4.100505063388336
20
4.100505063388255
10
2.3594254277643643
20
6.222016737725653
10
1.065686544841986
20
8.642431946888792
10
0.26900607435477397
20
11.268735491774123
10
0
20
14
10
0
20
632
10
0
20
632
10
0.26900607435477397
20
634.7312645082259
10
1.0656865448419843
20
637.3575680531112
10
2.3594254277643643
20
639.7779832622743
10
4.100505063388333
20
641.8994949366117
10
6.2220167377255695
20
643.6405745722357
10
8.642431946888735
20
644.934313455158
10
11.268735491774198
20
645.7309939256452
10
13.999999999999998
20
646
10
14
20
646
0
TEXT
5
3F
330
C
100
AcDbEntity
420
1910582
8
0
100
AcDbText
10
19
20
614.5
30
0
40
16
1
Date & Time
7
Arial
100
AcDbText
0
TEXT
5
40
330
C
100
AcDbEntity
420
4938352
8
0
100
AcDbText
10
19
20
585
30
0
40
12
1
DATE
7
Arial
100
AcDbText
0
LWPOLYLINE
5
41
330
C
100
AcDbEntity
420
9741240
8
0
100
AcDbPolyline
90
42
70
0
43
0
38
0
39
0
10
27
20
575
10
404
20
575
10
404
20
575
10
405.560722576129
20
574.8462822432259
10
407.06146745892073
20
574.3910362600902
10
408.4445618641568
20
573.6517568984204
10
409.65685424949237
20
572.6568542494924
10
410.6517568984204
20
571.4445618641569
10
411.3910362600903
20
570.0614674589208
10
411.84628224322586
20
568.560722576129
10
412
20
567
10
412
20
541
10
412
20
541
10
411.84628224322586
20
539.439277423871
10
411.3910362600903
20
537.9385325410792
10
410.6517568984204
20
536.5554381358431
10
409.65685424949237
20
535.3431457505076
10
408.4445618641568
20
534.3482431015796
10
407.06146745892073
20
533.6089637399098
10
405.560722576129
20
533.1537177567741
10
404
20
533
10
27
20
533
10
27
20
533
10
25.439277423870976
20
533.1537177567741
10
23.938532541079283
20
533.6089637399098
10
22.555438135843183
20
534.3482431015796
10
21.34314575050762
20
535.3431457505076
10
20.348243101579637
20
536.5554381358431
10
19.608963739909704
20
537.9385325410792
10
19.153717756774157
20
539.439277423871
10
19
20
541
10
19
20
567
10
19
20
567
10
19.153717756774157
20
568.560722576129
10
19.608963739909704
20
570.0614674589208
10
20.348243101579637
20
571.4445618641569
10
21.343145750507617
20
572.6568542494924
10
22.555438135843183
20
573.6517568984204
10
23.938532541079276
20
574.3910362600902
10
25.43927742387097
20
574.8462822432259
10
27
20
575
10
27
20
575
0
TEXT
5
42
330
C
100
AcDbEntity
420
1120295
8
0
100
AcDbText
10
31
20
550
30
0
40
16
1
2026-04-13
7
Arial
100
AcDbText
0
TEXT
5
43
330
C
100
AcDbEntity
420
4938352
8
0
100
AcDbText
10
19
20
509
30
0
40
12
1
TIME
7
Arial
100
AcDbText
0
LWPOLYLINE
5
44
330
C
100
AcDbEntity
420
9741240
8
0
100
AcDbPolyline
90
42
70
0
43
0
38
0
39
0
10
27
20
499
10
404
20
499
10
404
20
499
10
405.560722576129
20
498.8462822432258
10
407.06146745892073
20
498.39103626009035
10
408.4445618641568
20
497.65175689842033
10
409.65685424949237
20
496.6568542494924
10
410.6517568984204
20
495.44456186415687
10
411.3910362600903
20
494.0614674589207
10
411.84628224322586
20
492.560722576129
10
412
20
491
10
412
20
462
10
412
20
462
10
411.84628224322586
20
460.439277423871
10
411.3910362600903
20
458.9385325410793
10
410.6517568984204
20
457.55543813584313
10
409.65685424949237
20
456.3431457505076
10
408.4445618641568
20
455.34824310157967
10
407.06146745892073
20
454.60896373990965
10
405.560722576129
20
454.1537177567742
10
404
20
454
10
27
20
454
10
27
20
454
10
25.439277423870976
20
454.1537177567742
10
23.938532541079283
20
454.60896373990965
10
22.555438135843183
20
455.34824310157967
10
21.34314575050762
20
456.3431457505076
10
20.348243101579637
20
457.55543813584313
10
19.608963739909704
20
458.9385325410793
10
19.153717756774157
20
460.439277423871
10
19
20
462
10
19
20
491
10
19
20
491
10
19.153717756774157
20
492.560722576129
10
19.608963739909704
20
494.0614674589207
10
20.348243101579637
20
495.44456186415687
10
21.343145750507617
20
496.6568542494924
10
22.555438135843183
20
497.65175689842033
10
23.938532541079276
20
498.39103626009035
10
25.43927742387097
20
498.8462822432258
10
27
20
499
10
27
20
499
0
TEXT
5
45
330
C
100
AcDbEntity
420
1120295
8
0
100
AcDbText
10
31
20
472.5
30
0
40
16
1
14:35
7
Arial
100
AcDbText
0
TEXT
5
46
330
C
100
AcDbEntity
420
4938352
8
0
100
AcDbText
10
19
20
430.203125
30
0
40
12
1
DATETIME
7
Arial
100
AcDbText
0
LWPOLYLINE
5
47
330
C
100
AcDbEntity
420
9741240
8
0
100
AcDbPolyline
90
42
70
0
43
0
38
0
39
0
10
27
20
420
10
404
20
420
10
404
20
420
10
405.560722576129
20
419.8462822432258
10
407.06146745892073
20
419.39103626009035
10
408.4445618641568
20
418.65175689842033
10
409.65685424949237
20
417.6568542494924
10
410.6517568984204
20
416.44456186415687
10
411.3910362600903
20
415.0614674589207
10
411.84628224322586
20
413.560722576129
10
412
20
412
10
412
20
386
10
412
20
386
10
411.84628224322586
20
384.439277423871
10
411.3910362600903
20
382.9385325410793
10
410.6517568984204
20
381.55543813584313
10
409.65685424949237
20
380.3431457505076
10
408.4445618641568
20
379.34824310157967
10
407.06146745892073
20
378.60896373990965
10
405.560722576129
20
378.1537177567742
10
404
20
378
10
27
20
378
10
27
20
378
10
25.439277423870976
20
378.1537177567742
10
23.938532541079283
20
378.60896373990965
10
22.555438135843183
20
379.34824310157967
10
21.34314575050762
20
380.3431457505076
10
20.348243101579637
20
381.55543813584313
10
19.608963739909704
20
382.9385325410793
10
19.153717756774157
20
384.439277423871
10
19
20
386
10
19
20
412
10
19
20
412
10
19.153717756774157
20
413.560722576129
10
19.608963739909704
20
415.0614674589207
10
20.348243101579637
20
416.44456186415687
10
21.343145750507617
20
417.6568542494924
10
22.555438135843183
20
418.65175689842033
10
23.938532541079276
20
419.39103626009035
10
25.43927742387097
20
419.8462822432258
10
27
20
420
10
27
20
420
0
TEXT
5
48
330
C
100
AcDbEntity
420
1120295
8
0
100
AcDbText
10
31
20
395
30
0
40
16
1
2026-04-13 14:35
7
Arial
100
AcDbText
0
LWPOLYLINE
5
49
330
C
100
AcDbEntity
420
14147306
8
0
100
AcDbPolyline
90
42
70
0
43
0
38
0
39
0
10
463
20
646
10
866
20
646
10
866
20
646
10
868.7312645082258
20
645.7309939256452
10
871.3575680531112
20
644.934313455158
10
873.7779832622745
20
643.6405745722357
10
875.8994949366116
20
641.8994949366117
10
877.6405745722357
20
639.7779832622743
10
878.934313455158
20
637.3575680531112
10
879.7309939256452
20
634.7312645082259
10
880
20
632
10
880
20
14
10
880
20
14
10
879.7309939256452
20
11.268735491774123
10
878.934313455158
20
8.642431946888792
10
877.6405745722357
20
6.222016737725653
10
875.8994949366116
20
4.100505063388255
10
873.7779832622745
20
2.359425427764336
10
871.3575680531112
20
1.0656865448420376
10
868.7312645082258
20
0.26900607435482016
10
866
20
0
10
463
20
0
10
463
20
0
10
460.2687354917742
20
0.26900607435482016
10
457.64243194688873
20
1.0656865448420376
10
455.2220167377256
20
2.359425427764336
10
453.1005050633883
20
4.100505063388255
10
451.35942542776434
20
6.222016737725653
10
450.065686544842
20
8.642431946888792
10
449.26900607435476
20
11.268735491774123
10
449
20
14
10
449
20
632
10
449
20
632
10
449.26900607435476
20
634.7312645082259
10
450.065686544842
20
637.3575680531112
10
451.35942542776434
20
639.7779832622743
10
453.1005050633883
20
641.8994949366117
10
455.2220167377256
20
643.6405745722357
10
457.64243194688873
20
644.934313455158
10
460.2687354917742
20
645.7309939256452
10
463
20
646
10
463
20
646
0
TEXT
5
4A
330
C
100
AcDbEntity
420
1910582
8
0
100
AcDbText
10
468
20
614.5
30
0
40
16
1
Additional Inputs
7
Arial
100
AcDbText
0
TEXT
5
4B
330
C
100
AcDbEntity
420
4938352
8
0
100
AcDbText
10
468
20
585
30
0
40
12
1
MONTH
7
Arial
100
AcDbText
0
LWPOLYLINE
5
4C
330
C
100
AcDbEntity
420
9741240
8
0
100
AcDbPolyline
90
42
70
0
43
0
38
0
39
0
10
476
20
575
10
853
20
575
10
853
20
575
10
854.560722576129
20
574.8462822432259
10
856.0614674589207
20
574.3910362600902
10
857.4445618641569
20
573.6517568984204
10
858.6568542494924
20
572.6568542494924
10
859.6517568984203
20
571.4445618641569
10
860.3910362600903
20
570.0614674589208
10
860.8462822432258
20
568.560722576129
10
861
20
567
10
861
20
541
10
861
20
541
10
860.8462822432258
20
539.439277423871
10
860.3910362600903
20
537.9385325410792
10
859.6517568984203
20
536.5554381358431
10
858.6568542494924
20
535.3431457505076
10
857.4445618641569
20
534.3482431015796
10
856.0614674589207
20
533.6089637399098
10
854.560722576129
20
533.1537177567741
10
853
20
533
10
476
20
533
10
476
20
533
10
474.439277423871
20
533.1537177567741
10
472.93853254107927
20
533.6089637399098
10
471.5554381358432
20
534.3482431015796
10
470.34314575050763
20
535.3431457505076
10
469.3482431015796
20
536.5554381358431
10
468.6089637399097
20
537.9385325410792
10
468.15371775677414
20
539.439277423871
10
468
20
541
10
468
20
567
10
468
20
567
10
468.15371775677414
20
568.560722576129
10
468.6089637399097
20
570.0614674589208
10
469.3482431015796
20
571.4445618641569
10
470.34314575050763
20
572.6568542494924
10
471.5554381358432
20
573.6517568984204
10
472.93853254107927
20
574.3910362600902
10
474.439277423871
20
574.8462822432259
10
476
20
575
10
476
20
575
0
TEXT
5
4D
330
C
100
AcDbEntity
420
1120295
8
0
100
AcDbText
10
480
20
550
30
0
40
16
1
2026-04
7
Arial
100
AcDbText
0
TEXT
5
4E
330
C
100
AcDbEntity
420
4938352
8
0
100
AcDbText
10
468
20
509
30
0
40
12
1
WEEK
7
Arial
100
AcDbText
0
LWPOLYLINE
5
4F
330
C
100
AcDbEntity
420
9741240
8
0
100
AcDbPolyline
90
42
70
0
43
0
38
0
39
0
10
476
20
499
10
853
20
499
10
853
20
499
10
854.560722576129
20
498.8462822432258
10
856.0614674589207
20
498.39103626009035
10
857.4445618641569
20
497.65175689842033
10
858.6568542494924
20
496.6568542494924
10
859.6517568984203
20
495.44456186415687
10
860.3910362600903
20
494.0614674589207
10
860.8462822432258
20
492.560722576129
10
861
20
491
10
861
20
465
10
861
20
465
10
860.8462822432258
20
463.439277423871
10
860.3910362600903
20
461.9385325410793
10
859.6517568984203
20
460.55543813584313
10
858.6568542494924
20
459.3431457505076
10
857.4445618641569
20
458.34824310157967
10
856.0614674589207
20
457.60896373990965
10
854.560722576129
20
457.1537177567742
10
853
20
457
10
476
20
457
10
476
20
457
10
474.439277423871
20
457.1537177567742
10
472.93853254107927
20
457.60896373990965
10
471.5554381358432
20
458.34824310157967
10
470.34314575050763
20
459.3431457505076
10
469.3482431015796
20
460.55543813584313
10
468.6089637399097
20
461.9385325410793
10
468.15371775677414
20
463.439277423871
10
468
20
465
10
468
20
491
10
468
20
491
10
468.15371775677414
20
492.560722576129
10
468.6089637399097
20
494.0614674589207
10
469.3482431015796
20
495.44456186415687
10
470.34314575050763
20
496.6568542494924
10
471.5554381358432
20
497.65175689842033
10
472.93853254107927
20
498.39103626009035
10
474.439277423871
20
498.8462822432258
10
476
20
499
10
476
20
499
0
TEXT
5
50
330
C
100
AcDbEntity
420
1120295
8
0
100
AcDbText
10
480
20
474
30
0
40
16
1
2026-W16
7
Arial
100
AcDbText
0
TEXT
5
51
330
C
100
AcDbEntity
420
4938352
8
0
100
AcDbText
10
468
20
433
30
0
40
12
1
NUMBER
7
Arial
100
AcDbText
0
LWPOLYLINE
5
52
330
C
100
AcDbEntity
420
9741240
8
0
100
AcDbPolyline
90
42
70
0
43
0
38
0
39
0
10
476
20
423
10
853
20
423
10
853
20
423
10
854.560722576129
20
422.8462822432258
10
856.0614674589207
20
422.39103626009035
10
857.4445618641569
20
421.65175689842033
10
858.6568542494924
20
420.6568542494924
10
859.6517568984203
20
419.44456186415687
10
860.3910362600903
20
418.0614674589207
10
860.8462822432258
20
416.560722576129
10
861
20
415
10
861
20
391
10
861
20
391
10
860.8462822432258
20
389.439277423871
10
860.3910362600903
20
387.9385325410793
10
859.6517568984203
20
386.55543813584313
10
858.6568542494924
20
385.3431457505076
10
857.4445618641569
20
384.34824310157967
10
856.0614674589207
20
383.60896373990965
10
854.560722576129
20
383.1537177567742
10
853
20
383
10
476
20
383
10
476
20
383
10
474.439277423871
20
383.1537177567742
10
472.93853254107927
20
383.60896373990965
10
471.5554381358432
20
384.34824310157967
10
470.34314575050763
20
385.3431457505076
10
469.3482431015796
20
386.55543813584313
10
468.6089637399097
20
387.9385325410793
10
468.15371775677414
20
389.439277423871
10
468
20
391
10
468
20
415
10
468
20
415
10
468.15371775677414
20
416.560722576129
10
468.6089637399097
20
418.0614674589207
10
469.3482431015796
20
419.44456186415687
10
470.34314575050763
20
420.6568542494924
10
471.5554381358432
20
421.65175689842033
10
472.93853254107927
20
422.39103626009035
10
474.439277423871
20
422.8462822432258
10
476
20
423
10
476
20
423
0
TEXT
5
53
330
C
100
AcDbEntity
420
1120295
8
0
100
AcDbText
10
480
20
399
30
0
40
16
1
42
7
Arial
100
AcDbText
0
TEXT
5
54
330
C
100
AcDbEntity
420
4938352
8
0
100
AcDbText
10
468
20
359
30
0
40
12
1
COLOR
7
Arial
100
AcDbText
0
LWPOLYLINE
5
55
330
C
100
AcDbEntity
420
9741240
8
0
100
AcDbPolyline
90
42
70
0
43
0
38
0
39
0
10
476
20
349
10
853
20
349
10
853
20
349
10
854.560722576129
20
348.8462822432258
10
856.0614674589207
20
348.39103626009035
10
857.4445618641569
20
347.65175689842033
10
858.6568542494924
20
346.6568542494924
10
859.6517568984203
20
345.44456186415687
10
860.3910362600903
20
344.0614674589207
10
860.8462822432258
20
342.560722576129
10
861
20
341
10
861
20
319
10
861
20
319
10
860.8462822432258
20
317.439277423871
10
860.3910362600903
20
315.9385325410793
10
859.6517568984203
20
314.55543813584313
10
858.6568542494924
20
313.3431457505076
10
857.4445618641569
20
312.34824310157967
10
856.0614674589207
20
311.60896373990965
10
854.560722576129
20
311.1537177567742
10
853
20
311
10
476
20
311
10
476
20
311
10
474.439277423871
20
311.1537177567742
10
472.93853254107927
20
311.60896373990965
10
471.5554381358432
20
312.34824310157967
10
470.34314575050763
20
313.3431457505076
10
469.3482431015796
20
314.55543813584313
10
468.6089637399097
20
315.9385325410793
10
468.15371775677414
20
317.439277423871
10
468
20
319
10
468
20
341
10
468
20
341
10
468.15371775677414
20
342.560722576129
10
468.6089637399097
20
344.0614674589207
10
469.3482431015796
20
345.44456186415687
10
470.34314575050763
20
346.6568542494924
10
471.5554381358432
20
347.65175689842033
10
472.93853254107927
20
348.39103626009035
10
474.439277423871
20
348.8462822432258
10
476
20
349
10
476
20
349
0
LWPOLYLINE
5
56
330
C
100
AcDbEntity
420
9741240
8
0
100
AcDbPolyline
90
42
70
0
43
0
38
0
39
0
10
479.8
20
345.20000000000005
10
849.2
20
345.20000000000005
10
849.2
20
345.20000000000005
10
850.7607225761291
20
345.04628224322585
10
852.2614674589207
20
344.5910362600904
10
853.6445618641569
20
343.8517568984204
10
854.8568542494925
20
342.85685424949247
10
855.8517568984204
20
341.6445618641569
10
856.5910362600904
20
340.2614674589207
10
857.0462822432258
20
338.76072257612907
10
857.2
20
337.20000000000005
10
857.2
20
322.79999999999995
10
857.2
20
322.79999999999995
10
857.0462822432258
20
321.23927742387093
10
856.5910362600904
20
319.7385325410793
10
855.8517568984204
20
318.3554381358431
10
854.8568542494925
20
317.14314575050753
10
853.6445618641569
20
316.1482431015796
10
852.2614674589207
20
315.4089637399096
10
850.7607225761291
20
314.95371775677415
10
849.2
20
314.79999999999995
10
479.8
20
314.79999999999995
10
479.8
20
314.79999999999995
10
478.239277423871
20
314.95371775677415
10
476.7385325410793
20
315.4089637399096
10
475.3554381358432
20
316.1482431015796
10
474.14314575050764
20
317.14314575050753
10
473.1482431015796
20
318.3554381358431
10
472.4089637399097
20
319.7385325410793
10
471.95371775677415
20
321.23927742387093
10
471.8
20
322.79999999999995
10
471.8
20
337.20000000000005
10
471.8
20
337.20000000000005
10
471.95371775677415
20
338.76072257612907
10
472.4089637399097
20
340.2614674589207
10
473.1482431015796
20
341.6445618641569
10
474.14314575050764
20
342.85685424949247
10
475.3554381358432
20
343.8517568984204
10
476.7385325410793
20
344.5910362600904
10
478.239277423871
20
345.04628224322585
10
479.8
20
345.20000000000005
10
479.8
20
345.20000000000005
0
TEXT
5
57
330
C
100
AcDbEntity
420
4938352
8
0
100
AcDbText
10
468
20
287
30
0
40
12
1
RANGE
7
Arial
100
AcDbText
0
LWPOLYLINE
5
58
330
C
100
AcDbEntity
420
15263976
8
0
100
AcDbPolyline
90
42
70
0
43
0
38
0
39
0
10
477.6
20
269
10
855.4000000000001
20
269
10
855.4000000000001
20
269
10
855.7901806440324
20
268.9615705608064
10
856.1653668647302
20
268.8477590650226
10
856.5111404660393
20
268.6629392246051
10
856.8142135623732
20
268.4142135623731
10
857.0629392246052
20
268.11114046603916
10
857.2477590650227
20
267.76536686473014
10
857.3615705608065
20
267.3901806440323
10
857.4000000000001
20
267
10
857.4000000000001
20
267
10
857.4000000000001
20
267
10
857.3615705608065
20
266.6098193559677
10
857.2477590650227
20
266.23463313526986
10
857.0629392246052
20
265.88885953396084
10
856.8142135623732
20
265.5857864376269
10
856.5111404660393
20
265.3370607753949
10
856.1653668647302
20
265.1522409349774
10
855.7901806440324
20
265.0384294391936
10
855.4000000000001
20
265
10
477.6
20
265
10
477.6
20
265
10
477.20981935596774
20
265.0384294391936
10
476.8346331352698
20
265.1522409349774
10
476.4888595339608
20
265.3370607753949
10
476.1857864376269
20
265.5857864376269
10
475.9370607753949
20
265.88885953396084
10
475.75224093497746
20
266.23463313526986
10
475.63842943919354
20
266.6098193559677
10
475.6
20
267
10
475.6
20
267
10
475.6
20
267
10
475.63842943919354
20
267.3901806440323
10
475.75224093497746
20
267.76536686473014
10
475.9370607753949
20
268.11114046603916
10
476.1857864376269
20
268.4142135623731
10
476.4888595339608
20
268.6629392246051
10
476.8346331352698
20
268.8477590650226
10
477.20981935596774
20
268.9615705608064
10
477.6
20
269
10
477.6
20
269
0
LWPOLYLINE
5
59
330
C
100
AcDbEntity
420
1008382
8
0
100
AcDbPolyline
90
42
70
0
43
0
38
0
39
0
10
477.6
20
269
10
733.224
20
269
10
733.224
20
269
10
733.6141806440323
20
268.9615705608064
10
733.9893668647302
20
268.8477590650226
10
734.3351404660392
20
268.6629392246051
10
734.6382135623732
20
268.4142135623731
10
734.8869392246052
20
268.11114046603916
10
735.0717590650227
20
267.76536686473014
10
735.1855705608065
20
267.3901806440323
10
735.224
20
267
10
735.224
20
267
10
735.224
20
267
10
735.1855705608065
20
266.6098193559677
10
735.0717590650227
20
266.23463313526986
10
734.8869392246052
20
265.88885953396084
10
734.6382135623732
20
265.5857864376269
10
734.3351404660392
20
265.3370607753949
10
733.9893668647302
20
265.1522409349774
10
733.6141806440323
20
265.0384294391936
10
733.224
20
265
10
477.6
20
265
10
477.6
20
265
10
477.20981935596774
20
265.0384294391936
10
476.8346331352698
20
265.1522409349774
10
476.4888595339608
20
265.3370607753949
10
476.1857864376269
20
265.5857864376269
10
475.9370607753949
20
265.88885953396084
10
475.75224093497746
20
266.23463313526986
10
475.63842943919354
20
266.6098193559677
10
475.6
20
267
10
475.6
20
267
10
475.6
20
267
10
475.63842943919354
20
267.3901806440323
10
475.75224093497746
20
267.76536686473014
10
475.9370607753949
20
268.11114046603916
10
476.1857864376269
20
268.4142135623731
10
476.4888595339608
20
268.6629392246051
10
476.8346331352698
20
268.8477590650226
10
477.20981935596774
20
268.9615705608064
10
477.6
20
269
10
477.6
20
269
0
HATCH
5
5A
330
C
100
AcDbEntity
420
1008382
8
0
100
AcDbHatch
10
0
20
0
30
0
210
0
220
0
230
1
2
SOLID
70
1
71
0
91
1
92
7
72
0
73
1
93
24
10
740.8240000000001
20
267
10
740.6331846272188
20
265.55061334742584
10
740.0737422611928
20
264.20000000000005
10
739.1837979746447
20
263.04020202535537
10
738.0240000000001
20
262.1502577388071
10
736.6733866525742
20
261.5908153727812
10
735.224
20
261.4
10
733.7746133474259
20
261.5908153727812
10
732.424
20
262.1502577388071
10
731.2642020253554
20
263.04020202535537
10
730.3742577388073
20
264.20000000000005
10
729.8148153727813
20
265.55061334742584
10
729.624
20
267
10
729.8148153727813
20
268.44938665257416
10
730.3742577388073
20
269.79999999999995
10
731.2642020253554
20
270.95979797464463
10
732.424
20
271.8497422611929
10
733.7746133474259
20
272.4091846272188
10
735.224
20
272.6
10
736.6733866525742
20
272.4091846272188
10
738.0240000000001
20
271.8497422611929
10
739.1837979746447
20
270.95979797464463
10
740.0737422611928
20
269.79999999999995
10
740.6331846272188
20
268.44938665257416
97
0
75
1
76
1
47
1
98
0
0
LWPOLYLINE
5
5B
330
C
100
AcDbEntity
420
16777215
8
0
100
AcDbPolyline
90
25
70
0
43
0
38
0
39
0
10
740.8240000000001
20
267
10
740.6331846272188
20
265.55061334742584
10
740.0737422611928
20
264.20000000000005
10
739.1837979746447
20
263.04020202535537
10
738.0240000000001
20
262.1502577388071
10
736.6733866525742
20
261.5908153727812
10
735.224
20
261.4
10
733.7746133474259
20
261.5908153727812
10
732.424
20
262.1502577388071
10
731.2642020253554
20
263.04020202535537
10
730.3742577388073
20
264.20000000000005
10
729.8148153727813
20
265.55061334742584
10
729.624
20
267
10
729.8148153727813
20
268.44938665257416
10
730.3742577388073
20
269.79999999999995
10
731.2642020253554
20
270.95979797464463
10
732.424
20
271.8497422611929
10
733.7746133474259
20
272.4091846272188
10
735.224
20
272.6
10
736.6733866525742
20
272.4091846272188
10
738.0240000000001
20
271.8497422611929
10
739.1837979746447
20
270.95979797464463
10
740.0737422611928
20
269.79999999999995
10
740.6331846272188
20
268.44938665257416
10
740.8240000000001
20
267
0
TEXT
5
5C
330
C
100
AcDbEntity
420
4938352
8
0
100
AcDbText
10
468
20
233
30
0
40
12
1
VERTICAL RANGE
7
Arial
100
AcDbText
0
LWPOLYLINE
5
5D
330
C
100
AcDbEntity
420
15263976
8
0
100
AcDbPolyline
90
42
70
0
43
0
38
0
39
0
10
666.5
20
211
10
666.5
20
211
10
666.5
20
211
10
667.4754516100807
20
210.90392640201617
10
668.4134171618255
20
210.61939766255648
10
669.277851165098
20
210.15734806151272
10
670.0355339059328
20
209.53553390593277
10
670.6573480615127
20
208.777851165098
10
671.1193976625565
20
207.91341716182546
10
671.4039264020162
20
206.97545161008065
10
671.5
20
206
10
671.5
20
116
10
671.5
20
116
10
671.4039264020162
20
115.02454838991935
10
671.1193976625565
20
114.08658283817454
10
670.6573480615127
20
113.22214883490199
10
670.0355339059328
20
112.46446609406723
10
669.277851165098
20
111.84265193848728
10
668.4134171618255
20
111.38060233744352
10
667.4754516100807
20
111.09607359798383
10
666.5
20
111
10
666.5
20
111
10
666.5
20
111
10
665.5245483899193
20
111.09607359798383
10
664.5865828381745
20
111.38060233744352
10
663.722148834902
20
111.84265193848728
10
662.9644660940672
20
112.46446609406723
10
662.3426519384873
20
113.22214883490199
10
661.8806023374435
20
114.08658283817454
10
661.5960735979838
20
115.02454838991935
10
661.5
20
116
10
661.5
20
206
10
661.5
20
206
10
661.5960735979838
20
206.97545161008065
10
661.8806023374435
20
207.91341716182546
10
662.3426519384873
20
208.777851165098
10
662.9644660940672
20
209.53553390593277
10
663.722148834902
20
210.15734806151272
10
664.5865828381745
20
210.61939766255648
10
665.5245483899193
20
210.90392640201617
10
666.5
20
211
10
666.5
20
211
0
LWPOLYLINE
5
5E
330
C
100
AcDbEntity
420
1008382
8
0
100
AcDbPolyline
90
42
70
0
43
0
38
0
39
0
10
666.5
20
211
10
666.5
20
211
10
666.5
20
211
10
667.4754516100807
20
210.90392640201617
10
668.4134171618255
20
210.61939766255648
10
669.277851165098
20
210.15734806151272
10
670.0355339059328
20
209.53553390593277
10
670.6573480615127
20
208.777851165098
10
671.1193976625565
20
207.91341716182546
10
671.4039264020162
20
206.97545161008065
10
671.5
20
206
10
671.5
20
146
10
671.5
20
146
10
671.4039264020162
20
145.02454838991935
10
671.1193976625565
20
144.08658283817454
10
670.6573480615127
20
143.222148834902
10
670.0355339059328
20
142.46446609406723
10
669.277851165098
20
141.84265193848728
10
668.4134171618255
20
141.38060233744352
10
667.4754516100807
20
141.09607359798383
10
666.5
20
141
10
666.5
20
141
10
666.5
20
141
10
665.5245483899193
20
141.09607359798383
10
664.5865828381745
20
141.38060233744352
10
663.722148834902
20
141.84265193848728
10
662.9644660940672
20
142.46446609406723
10
662.3426519384873
20
143.222148834902
10
661.8806023374435
20
144.08658283817454
10
661.5960735979838
20
145.02454838991935
10
661.5
20
146
10
661.5
20
206
10
661.5
20
206
10
661.5960735979838
20
206.97545161008065
10
661.8806023374435
20
207.91341716182546
10
662.3426519384873
20
208.777851165098
10
662.9644660940672
20
209.53553390593277
10
663.722148834902
20
210.15734806151272
10
664.5865828381745
20
210.61939766255648
10
665.5245483899193
20
210.90392640201617
10
666.5
20
211
10
666.5
20
211
0
HATCH
5
5F
330
C
100
AcDbEntity
420
1008382
8
0
100
AcDbHatch
10
0
20
0
30
0
210
0
220
0
230
1
2
SOLID
70
1
71
0
91
1
92
7
72
0
73
1
93
24
10
676.5
20
141
10
676.1592582628907
20
138.41180954897482
10
675.1602540378444
20
136
10
673.5710678118655
20
133.92893218813447
10
671.5
20
132.33974596215558
10
669.0881904510252
20
131.34074173710928
10
666.5
20
131
10
663.9118095489748
20
131.34074173710928
10
661.5
20
132.33974596215558
10
659.4289321881345
20
133.92893218813447
10
657.8397459621556
20
136
10
656.8407417371093
20
138.41180954897482
10
656.5
20
141
10
656.8407417371093
20
143.58819045102518
10
657.8397459621556
20
146
10
659.4289321881345
20
148.07106781186553
10
661.5
20
149.66025403784442
10
663.9118095489748
20
150.65925826289072
10
666.5
20
151
10
669.0881904510252
20
150.65925826289072
10
671.5
20
149.66025403784442
10
673.5710678118655
20
148.07106781186553
10
675.1602540378444
20
146
10
676.1592582628907
20
143.58819045102518
97
0
75
1
76
1
47
1
98
0
0
LWPOLYLINE
5
60
330
C
100
AcDbEntity
420
16777215
8
0
100
AcDbPolyline
90
25
70
0
43
0
38
0
39
0
10
676.5
20
141
10
676.1592582628907
20
138.41180954897482
10
675.1602540378444
20
136
10
673.5710678118655
20
133.92893218813447
10
671.5
20
132.33974596215558
10
669.0881904510252
20
131.34074173710928
10
666.5
20
131
10
663.9118095489748
20
131.34074173710928
10
661.5
20
132.33974596215558
10
659.4289321881345
20
133.92893218813447
10
657.8397459621556
20
136
10
656.8407417371093
20
138.41180954897482
10
656.5
20
141
10
656.8407417371093
20
143.58819045102518
10
657.8397459621556
20
146
10
659.4289321881345
20
148.07106781186553
10
661.5
20
149.66025403784442
10
663.9118095489748
20
150.65925826289072
10
666.5
20
151
10
669.0881904510252
20
150.65925826289072
10
671.5
20
149.66025403784442
10
673.5710678118655
20
148.07106781186553
10
675.1602540378444
20
146
10
676.1592582628907
20
143.58819045102518
10
676.5
20
141
0
TEXT
5
61
330
C
100
AcDbEntity
420
4938352
8
0
100
AcDbText
10
468
20
75
30
0
40
12
1
FILE
7
Arial
100
AcDbText
0
LWPOLYLINE
5
62
330
C
100
AcDbEntity
420
9741240
8
0
100
AcDbPolyline
90
42
70
0
43
0
38
0
39
0
10
476
20
65
10
853
20
65
10
853
20
65
10
854.560722576129
20
64.8462822432258
10
856.0614674589207
20
64.39103626009035
10
857.4445618641569
20
63.65175689842033
10
858.6568542494924
20
62.656854249492426
10
859.6517568984203
20
61.44456186415687
10
860.3910362600903
20
60.061467458920674
10
860.8462822432258
20
58.560722576129024
10
861
20
57
10
861
20
27
10
861
20
27
10
860.8462822432258
20
25.439277423870976
10
860.3910362600903
20
23.938532541079326
10
859.6517568984203
20
22.555438135843133
10
858.6568542494924
20
21.343145750507574
10
857.4445618641569
20
20.34824310157967
10
856.0614674589207
20
19.608963739909655
10
854.560722576129
20
19.1537177567742
10
853
20
19
10
476
20
19
10
476
20
19
10
474.439277423871
20
19.1537177567742
10
472.93853254107927
20
19.608963739909655
10
471.5554381358432
20
20.34824310157967
10
470.34314575050763
20
21.343145750507574
10
469.3482431015796
20
22.555438135843133
10
468.6089637399097
20
23.938532541079326
10
468.15371775677414
20
25.439277423870976
10
468
20
27
10
468
20
57
10
468
20
57
10
468.15371775677414
20
58.560722576129024
10
468.6089637399097
20
60.061467458920674
10
469.3482431015796
20
61.44456186415687
10
470.34314575050763
20
62.656854249492426
10
471.5554381358432
20
63.65175689842033
10
472.93853254107927
20
64.39103626009035
10
474.439277423871
20
64.8462822432258
10
476
20
65
10
476
20
65
0
LWPOLYLINE
5
63
330
C
100
AcDbEntity
420
9741240
8
0
100
AcDbPolyline
90
5
70
0
43
0
38
0
39
0
10
469
20
64
10
601.94
20
64
10
601.94
20
20
10
469
20
20
10
469
20
64
0
TEXT
5
64
330
C
100
AcDbEntity
420
1120295
8
0
100
AcDbText
10
492.7825
20
38
30
0
40
16
1
Choose File
7
Arial
100
AcDbText
0
TEXT
5
65
330
C
100
AcDbEntity
420
6449528
8
0
100
AcDbText
10
613.94
20
38
30
0
40
16
1
No file selected
7
Arial
100
AcDbText
0
ENDSEC
0
SECTION
2
OBJECTS
0
DICTIONARY
5
A
330
0
100
AcDbDictionary
281
1
3
ACAD_GROUP
350
B
0
DICTIONARY
5
B
330
A
100
AcDbDictionary
281
0
0
ENDSEC
0
EOF