0
SECTION
2
HEADER
9
$ACADVER
1
AC1021
9
$LASTSAVEDBY
1
@tarikjabiri/dxf
9
$HANDSEED
5
2B
9
$INSUNITS
70
0
9
$CLAYER
8
0
9
$VIEWCTR
10
350.5
20
261.83333749999997
0
ENDSEC
0
SECTION
2
CLASSES
0
ENDSEC
0
SECTION
2
TABLES
0
TABLE
2
VPORT
5
1
330
0
100
AcDbSymbolTable
70
1
0
VPORT
5
19
330
1
100
AcDbSymbolTableRecord
100
AcDbViewportTableRecord
2
*Active
70
0
10
0
20
0
11
1
21
1
12
350.5
22
261.83333749999997
13
0
23
0
14
10
24
10
15
10
25
10
16
0
26
0
36
1
17
0
27
0
37
0
40
523.6666749999999
41
2
42
50
43
0
44
0
50
0
51
0
71
0
72
100
73
1
74
3
75
0
76
1
77
0
78
0
281
0
65
1
110
0
120
0
130
0
111
1
121
0
131
0
112
0
122
1
132
0
79
0
146
0
348
10020
60
7
61
5
292
1
282
1
141
0
142
0
63
250
421
3358443
0
ENDTAB
0
TABLE
2
LTYPE
5
2
330
0
100
AcDbSymbolTable
70
3
0
LTYPE
5
12
330
2
100
AcDbSymbolTableRecord
100
AcDbLinetypeTableRecord
2
ByBlock
70
0
3

72
65
73
0
40
0
0
LTYPE
5
13
330
2
100
AcDbSymbolTableRecord
100
AcDbLinetypeTableRecord
2
ByLayer
70
0
3

72
65
73
0
40
0
0
LTYPE
5
14
330
2
100
AcDbSymbolTableRecord
100
AcDbLinetypeTableRecord
2
Continuous
70
0
3
Solid line
72
65
73
0
40
0
0
ENDTAB
0
TABLE
2
LAYER
5
3
330
0
100
AcDbSymbolTable
70
1
0
LAYER
5
15
330
3
100
AcDbSymbolTableRecord
100
AcDbLayerTableRecord
2
0
70
0
62
7
6
Continuous
370
0
390
0
0
ENDTAB
0
TABLE
2
STYLE
5
4
330
0
100
AcDbSymbolTable
70
2
0
STYLE
5
16
330
4
100
AcDbSymbolTableRecord
100
AcDbTextStyleTableRecord
2
Standard
70
0
40
0
41
1
50
0
71
0
42
1
3
txt
4

0
STYLE
5
1C
330
4
100
AcDbSymbolTableRecord
100
AcDbTextStyleTableRecord
2
MS Shell Dlg \32
70
0
40
0
41
1
50
0
71
0
42
1
3
MS Shell Dlg \32.ttf
4

0
ENDTAB
0
TABLE
2
VIEW
5
5
330
0
100
AcDbSymbolTable
70
0
0
ENDTAB
0
TABLE
2
UCS
5
6
330
0
100
AcDbSymbolTable
70
0
0
ENDTAB
0
TABLE
2
APPID
5
7
330
0
100
AcDbSymbolTable
70
1
0
APPID
5
17
330
7
100
AcDbSymbolTableRecord
100
AcDbRegAppTableRecord
2
ACAD
70
0
0
ENDTAB
0
TABLE
2
DIMSTYLE
5
8
330
0
100
AcDbSymbolTable
70
1
100
AcDbDimStyleTable
0
DIMSTYLE
105
18
330
8
100
AcDbSymbolTableRecord
100
AcDbDimStyleTableRecord
2
Standard
70
0
340
16
0
ENDTAB
0
TABLE
2
BLOCK_RECORD
5
9
330
0
100
AcDbSymbolTable
70
2
0
BLOCK_RECORD
5
C
330
9
100
AcDbSymbolTableRecord
100
AcDbBlockTableRecord
2
*Model_Space
70
0
280
1
281
0
0
BLOCK_RECORD
5
F
330
9
100
AcDbSymbolTableRecord
100
AcDbBlockTableRecord
2
*Paper_Space
70
0
280
1
281
0
0
ENDTAB
0
ENDSEC
0
SECTION
2
BLOCKS
0
BLOCK
5
D
330
C
100
AcDbEntity
8
0
100
AcDbBlockBegin
2
*Model_Space
70
0
10
0
20
0
30
0
3
*Model_Space
1

0
ENDBLK
5
E
100
AcDbEntity
8
0
100
AcDbBlockEnd
0
BLOCK
5
10
330
F
100
AcDbEntity
8
0
100
AcDbBlockBegin
2
*Paper_Space
70
0
10
0
20
0
30
0
3
*Paper_Space
1

0
ENDBLK
5
11
100
AcDbEntity
8
0
100
AcDbBlockEnd
0
ENDSEC
0
SECTION
2
ENTITIES
0
LWPOLYLINE
5
1A
330
C
100
AcDbEntity
420
9408413
8
0
100
AcDbPolyline
90
5
70
0
43
0
38
0
39
0
10
62
20
425
10
262
20
425
10
262
20
372
10
62
20
372
10
62
20
425
0
TEXT
5
1B
330
C
100
AcDbEntity
420
0
8
0
100
AcDbText
10
142.5833282470703
20
395.166675
30
0
40
13.3333
1
Button
7
MS Shell Dlg \32
100
AcDbText
0
LWPOLYLINE
5
1D
330
C
100
AcDbEntity
420
9408413
8
0
100
AcDbPolyline
90
42
70
0
43
0
38
0
39
0
10
66
20
372
10
258
20
372
10
258
20
372
10
258.7803612880645
20
371.92314112161296
10
259.53073372946034
20
371.6955181300451
10
260.22228093207843
20
371.32587844921017
10
260.8284271247462
20
370.8284271247462
10
261.32587844921017
20
370.22228093207843
10
261.6955181300452
20
369.5307337294604
10
261.9231411216129
20
368.7803612880645
10
262
20
368
10
262
20
288
10
262
20
288
10
261.9231411216129
20
287.2196387119355
10
261.6955181300452
20
286.4692662705396
10
261.32587844921017
20
285.77771906792157
10
260.8284271247462
20
285.1715728752538
10
260.22228093207843
20
284.6741215507898
10
259.53073372946034
20
284.3044818699549
10
258.7803612880645
20
284.07685887838704
10
258
20
284
10
66
20
284
10
66
20
284
10
65.21963871193549
20
284.07685887838704
10
64.46926627053963
20
284.3044818699549
10
63.777719067921595
20
284.6741215507898
10
63.17157287525381
20
285.1715728752538
10
62.67412155078982
20
285.77771906792157
10
62.304481869954856
20
286.4692662705396
10
62.07685887838708
20
287.2196387119355
10
62
20
288
10
62
20
368
10
62
20
368
10
62.07685887838708
20
368.7803612880645
10
62.304481869954856
20
369.5307337294604
10
62.67412155078982
20
370.22228093207843
10
63.17157287525381
20
370.8284271247462
10
63.777719067921595
20
371.32587844921017
10
64.46926627053963
20
371.6955181300451
10
65.21963871193549
20
371.9231411216129
10
66
20
372
10
66
20
372
0
LWPOLYLINE
5
1E
330
C
100
AcDbEntity
420
5263440
8
0
100
AcDbPolyline
90
3
70
0
43
0
38
0
39
0
10
246.3333425
20
329.61332930000003
10
250
20
326.38667069999997
10
253.6666575
20
329.61332930000003
0
LWPOLYLINE
5
1F
330
C
100
AcDbEntity
420
9408413
8
0
100
AcDbPolyline
90
42
70
0
43
0
38
0
39
0
10
66
20
283
10
252
20
283
10
252
20
283
10
252.7803612880645
20
282.92314112161296
10
253.53073372946037
20
282.6955181300451
10
254.2222809320784
20
282.3258784492102
10
254.82842712474618
20
281.8284271247462
10
255.3258784492102
20
281.22228093207843
10
255.69551813004514
20
280.5307337294604
10
255.92314112161293
20
279.7803612880645
10
256
20
279
10
256
20
112
10
256
20
112
10
255.92314112161293
20
111.21963871193549
10
255.69551813004514
20
110.46926627053966
10
255.3258784492102
20
109.77771906792157
10
254.82842712474618
20
109.17157287525379
10
254.2222809320784
20
108.67412155078983
10
253.53073372946037
20
108.30448186995483
10
252.7803612880645
20
108.0768588783871
10
252
20
108
10
66
20
108
10
66
20
108
10
65.21963871193549
20
108.0768588783871
10
64.46926627053963
20
108.30448186995483
10
63.777719067921595
20
108.67412155078983
10
63.17157287525381
20
109.17157287525379
10
62.67412155078982
20
109.77771906792157
10
62.304481869954856
20
110.46926627053966
10
62.07685887838708
20
111.21963871193549
10
62
20
112
10
62
20
279
10
62
20
279
10
62.07685887838708
20
279.7803612880645
10
62.304481869954856
20
280.5307337294604
10
62.67412155078982
20
281.22228093207843
10
63.17157287525381
20
281.8284271247462
10
63.777719067921595
20
282.3258784492102
10
64.46926627053963
20
282.6955181300451
10
65.21963871193549
20
282.92314112161296
10
66
20
283
10
66
20
283
0
TEXT
5
20
330
C
100
AcDbEntity
420
0
8
0
100
AcDbText
10
68
20
267.95
30
0
40
13
1
dewweefee
7
STANDARD
100
AcDbText
0
LWPOLYLINE
5
21
330
C
100
AcDbEntity
420
0
8
0
100
AcDbPolyline
90
42
70
0
43
0
38
0
39
0
10
121
20
59
10
174
20
59
10
174
20
59
10
174.5852709660484
20
58.94235584120969
10
175.14805029709527
20
58.771638597533865
10
175.6667106990588
20
58.49440883690761
10
176.12132034355963
20
58.12132034355966
10
176.49440883690764
20
57.6667106990588
10
176.77163859753387
20
57.14805029709527
10
176.9423558412097
20
56.58527096604837
10
177
20
56
10
177
20
3
10
177
20
3
10
176.9423558412097
20
2.4147290339516303
10
176.77163859753387
20
1.851949702904733
10
176.49440883690764
20
1.3332893009412032
10
176.12132034355963
20
0.8786796564403403
10
175.6667106990588
20
0.5055911630923902
10
175.14805029709527
20
0.22836140246613468
10
174.5852709660484
20
0.057644158790310485
10
174
20
0
10
121
20
0
10
121
20
0
10
120.41472903395162
20
0.057644158790310485
10
119.85194970290473
20
0.22836140246613468
10
119.33328930094119
20
0.5055911630923902
10
118.87867965644035
20
0.8786796564403403
10
118.50559116309236
20
1.3332893009412032
10
118.22836140246613
20
1.851949702904733
10
118.05764415879031
20
2.4147290339516303
10
118
20
3
10
118
20
56
10
118
20
56
10
118.05764415879031
20
56.58527096604837
10
118.22836140246613
20
57.14805029709527
10
118.50559116309236
20
57.6667106990588
10
118.87867965644035
20
58.12132034355966
10
119.33328930094119
20
58.49440883690761
10
119.85194970290473
20
58.771638597533865
10
120.41472903395162
20
58.94235584120969
10
121
20
59
10
121
20
59
0
LWPOLYLINE
5
22
330
C
100
AcDbEntity
420
16777215
8
0
100
AcDbPolyline
90
3
70
0
43
0
38
0
39
0
10
130.98
20
27.139999999999986
10
142.78
20
15.340000000000032
10
164.02
20
41.30000000000001
0
LWPOLYLINE
5
23
330
C
100
AcDbEntity
420
9408413
8
0
100
AcDbPolyline
90
42
70
0
43
0
38
0
39
0
10
66
20
103
10
269
20
103
10
269
20
103
10
269.7803612880645
20
102.9231411216129
10
270.53073372946034
20
102.69551813004517
10
271.22228093207843
20
102.32587844921017
10
271.8284271247462
20
101.82842712474621
10
272.32587844921017
20
101.22228093207843
10
272.6955181300452
20
100.53073372946034
10
272.9231411216129
20
99.78036128806451
10
273
20
99
10
273
20
86
10
273
20
86
10
272.9231411216129
20
85.21963871193549
10
272.6955181300452
20
84.46926627053966
10
272.32587844921017
20
83.77771906792157
10
271.8284271247462
20
83.17157287525379
10
271.22228093207843
20
82.67412155078983
10
270.53073372946034
20
82.30448186995483
10
269.7803612880645
20
82.0768588783871
10
269
20
82
10
66
20
82
10
66
20
82
10
65.21963871193549
20
82.0768588783871
10
64.46926627053963
20
82.30448186995483
10
63.777719067921595
20
82.67412155078983
10
63.17157287525381
20
83.17157287525379
10
62.67412155078982
20
83.77771906792157
10
62.304481869954856
20
84.46926627053966
10
62.07685887838708
20
85.21963871193549
10
62
20
86
10
62
20
99
10
62
20
99
10
62.07685887838708
20
99.78036128806451
10
62.304481869954856
20
100.53073372946034
10
62.67412155078982
20
101.22228093207843
10
63.17157287525381
20
101.82842712474621
10
63.777719067921595
20
102.32587844921017
10
64.46926627053963
20
102.69551813004517
10
65.21963871193549
20
102.9231411216129
10
66
20
103
10
66
20
103
0
LWPOLYLINE
5
24
330
C
100
AcDbEntity
420
9408413
8
0
100
AcDbPolyline
90
42
70
0
43
0
38
0
39
0
10
408
20
438
10
564.6666870117188
20
438
10
564.6666870117188
20
438
10
565.4470482997833
20
437.9231411216129
10
566.1974207411791
20
437.6955181300451
10
566.8889679437972
20
437.32587844921017
10
567.495114136465
20
436.8284271247462
10
567.992565460929
20
436.22228093207843
10
568.3622051417639
20
435.53073372946034
10
568.5898281333317
20
434.7803612880645
10
568.6666870117188
20
434
10
568.6666870117188
20
420
10
568.6666870117188
20
420
10
568.5898281333317
20
419.2196387119355
10
568.3622051417639
20
418.4692662705396
10
567.992565460929
20
417.77771906792157
10
567.495114136465
20
417.1715728752538
10
566.8889679437972
20
416.67412155078983
10
566.1974207411791
20
416.3044818699549
10
565.4470482997833
20
416.07685887838704
10
564.6666870117188
20
416
10
408
20
416
10
408
20
416
10
407.2196387119355
20
416.07685887838704
10
406.46926627053966
20
416.3044818699549
10
405.77771906792157
20
416.67412155078983
10
405.1715728752538
20
417.1715728752538
10
404.67412155078983
20
417.77771906792157
10
404.3044818699548
20
418.4692662705396
10
404.0768588783871
20
419.2196387119355
10
404
20
420
10
404
20
434
10
404
20
434
10
404.0768588783871
20
434.7803612880645
10
404.3044818699548
20
435.53073372946034
10
404.67412155078983
20
436.22228093207843
10
405.1715728752538
20
436.8284271247462
10
405.77771906792157
20
437.32587844921017
10
406.46926627053966
20
437.6955181300451
10
407.2196387119355
20
437.9231411216129
10
408
20
438
10
408
20
438
0
TEXT
5
25
330
C
100
AcDbEntity
420
0
8
0
100
AcDbText
10
409.98787952769885
20
423.666675
30
0
40
13.3333
1
mnnmnmnm
7
MS Shell Dlg \32
100
AcDbText
0
LWPOLYLINE
5
26
330
C
100
AcDbEntity
420
0
8
0
100
AcDbPolyline
90
5
70
0
43
0
38
0
39
0
10
404
20
402
10
733
20
402
10
733
20
173
10
404
20
173
10
404
20
402
0
TEXT
5
27
330
C
100
AcDbEntity
420
0
8
0
100
AcDbText
10
405
20
390.25
30
0
40
13
1
    dsfd.  fsdfd
7
STANDARD
100
AcDbText
0
TEXT
5
28
330
C
100
AcDbEntity
420
0
8
0
100
AcDbText
10
405
20
375.25
30
0
40
13
1
    dsfdfs.  dfddsf
7
STANDARD
100
AcDbText
0
TEXT
5
29
330
C
100
AcDbEntity
420
0
8
0
100
AcDbText
10
405
20
360.25
30
0
40
13
1
    sdf
7
STANDARD
100
AcDbText
0
TEXT
5
2A
330
C
100
AcDbEntity
420
0
8
0
100
AcDbText
10
405
20
345.25
30
0
40
13
1
    dsfdfsdfddsfdfssddfs
7
STANDARD
100
AcDbText
0
ENDSEC
0
SECTION
2
OBJECTS
0
DICTIONARY
5
A
330
0
100
AcDbDictionary
281
1
3
ACAD_GROUP
350
B
0
DICTIONARY
5
B
330
A
100
AcDbDictionary
281
0
0
ENDSEC
0
EOF