<?xml version="1.0" encoding="UTF-8"?>
<svg xmlns="http://www.w3.org/2000/svg" xmlns:xlink="http://www.w3.org/1999/xlink" width="1280" height="720" viewBox="0 0 1280 720">
<defs>
<clipPath id="clip1" clipPathUnits="userSpaceOnUse"><rect x="68" y="204" width="182" height="16"/></clipPath>
<clipPath id="clip2" clipPathUnits="userSpaceOnUse"><rect x="410" y="50" width="165" height="13"/></clipPath>
</defs>
<g><rect x="62" y="59" width="200" height="53" rx="0" ry="0" fill="rgb(240, 240, 240)"/><rect x="62" y="59" width="200" height="53" rx="0" ry="0" fill="none" stroke="rgb(0, 0, 0)" stroke-width="2"/></g>
<text x="142.72" y="78.83" fill="rgb(0, 0, 0)" dominant-baseline="text-before-edge" font-size="13.33px" font-family="Arial">Button</text>
<g><rect x="62" y="112" width="200" height="88" rx="2" ry="2" fill="rgb(255, 255, 255)"/><rect x="62" y="112" width="200" height="88" rx="2" ry="2" fill="none" stroke="rgb(118, 118, 118)" stroke-width="1"/></g>
<path d="M246.33,154.39 L250,157.61 L253.67,154.39" fill="none" stroke="rgb(80, 80, 80)" stroke-width="1.47"/>
<g><rect x="62" y="200" width="194" height="175" rx="2" ry="2" fill="rgb(255, 255, 255)"/><rect x="62" y="200" width="194" height="175" rx="2" ry="2" fill="none" stroke="rgb(118, 118, 118)" stroke-width="1"/></g>
<g clip-path="url(#clip1)"><text x="68" y="205.33" fill="rgb(0, 0, 0)" dominant-baseline="text-before-edge" font-size="13.33px" font-family="monospace" xml:space="preserve">dewweefee</text></g>
<g><rect x="118" y="425" width="59" height="59" rx="2" ry="2" fill="rgb(0, 120, 212)"/><rect x="118" y="425" width="59" height="59" rx="2" ry="2" fill="none" stroke="rgb(0, 120, 212)" stroke-width="1.5"/></g>
<path d="M130.98,456.86 L142.78,468.66 L164.02,442.7" fill="none" stroke="rgb(255, 255, 255)" stroke-width="8.26"/>
<g><rect x="62" y="381" width="164" height="21" rx="2" ry="2" fill="rgb(255, 255, 255)"/><rect x="62" y="381" width="164" height="21" rx="2" ry="2" fill="none" stroke="rgb(118, 118, 118)" stroke-width="2"/></g>
<path d="M207,387 L216,387 L216,396 L207,396 L207,387" fill="none" stroke="rgb(0, 0, 0)" stroke-width="1"/>
<path d="M207,389.7 L216,389.7" fill="none" stroke="rgb(0, 0, 0)" stroke-width="1"/>
<path d="M208.98,386.55 L208.98,388.26" fill="none" stroke="rgb(0, 0, 0)" stroke-width="1"/>
<path d="M214.02,386.55 L214.02,388.26" fill="none" stroke="rgb(0, 0, 0)" stroke-width="1"/>
<g><rect x="404" y="46" width="177" height="21" rx="2" ry="2" fill="rgb(255, 255, 255)"/><rect x="404" y="46" width="177" height="21" rx="2" ry="2" fill="none" stroke="rgb(118, 118, 118)" stroke-width="2"/></g>
<g clip-path="url(#clip2)"><text x="410" y="50" fill="rgb(0, 0, 0)" dominant-baseline="text-before-edge" font-size="13px" font-family="Arial">mnnmnmnm</text></g>
<g><rect x="404" y="82" width="329" height="229" rx="0" ry="0" fill="rgba(194, 31, 31, 0.52)"/><rect x="404" y="82" width="329" height="229" rx="0" ry="0" fill="none" stroke="rgb(0, 0, 0)" stroke-width="1"/></g>
<text x="405" y="84" fill="rgb(0, 0, 0)" dominant-baseline="text-before-edge" font-size="13px" font-family="monospace" xml:space="preserve">    dsfd.  fsdfd</text>
<text x="405" y="99" fill="rgb(0, 0, 0)" dominant-baseline="text-before-edge" font-size="13px" font-family="monospace" xml:space="preserve">    dsfdfs.  dfddsf</text>
<text x="405" y="114" fill="rgb(0, 0, 0)" dominant-baseline="text-before-edge" font-size="13px" font-family="monospace" xml:space="preserve">    sdf</text>
<text x="405" y="129" fill="rgb(0, 0, 0)" dominant-baseline="text-before-edge" font-size="13px" font-family="monospace" xml:space="preserve">    dsfdfsdfddsfdfssddfs</text>
</svg>