0
SECTION
2
HEADER
9
$ACADVER
1
AC1021
9
$LASTSAVEDBY
1
@tarikjabiri/dxf
9
$HANDSEED
5
51
9
$INSUNITS
70
0
9
$CLAYER
8
0
9
$VIEWCTR
10
390
20
330.75
0
ENDSEC
0
SECTION
2
CLASSES
0
ENDSEC
0
SECTION
2
TABLES
0
TABLE
2
VPORT
5
1
330
0
100
AcDbSymbolTable
70
1
0
VPORT
5
19
330
1
100
AcDbSymbolTableRecord
100
AcDbViewportTableRecord
2
*Active
70
0
10
0
20
0
11
1
21
1
12
390
22
330.75
13
0
23
0
14
10
24
10
15
10
25
10
16
0
26
0
36
1
17
0
27
0
37
0
40
861.5
41
2
42
50
43
0
44
0
50
0
51
0
71
0
72
100
73
1
74
3
75
0
76
1
77
0
78
0
281
0
65
1
110
0
120
0
130
0
111
1
121
0
131
0
112
0
122
1
132
0
79
0
146
0
348
10020
60
7
61
5
292
1
282
1
141
0
142
0
63
250
421
3358443
0
ENDTAB
0
TABLE
2
LTYPE
5
2
330
0
100
AcDbSymbolTable
70
3
0
LTYPE
5
12
330
2
100
AcDbSymbolTableRecord
100
AcDbLinetypeTableRecord
2
ByBlock
70
0
3

72
65
73
0
40
0
0
LTYPE
5
13
330
2
100
AcDbSymbolTableRecord
100
AcDbLinetypeTableRecord
2
ByLayer
70
0
3

72
65
73
0
40
0
0
LTYPE
5
14
330
2
100
AcDbSymbolTableRecord
100
AcDbLinetypeTableRecord
2
Continuous
70
0
3
Solid line
72
65
73
0
40
0
0
ENDTAB
0
TABLE
2
LAYER
5
3
330
0
100
AcDbSymbolTable
70
1
0
LAYER
5
15
330
3
100
AcDbSymbolTableRecord
100
AcDbLayerTableRecord
2
0
70
0
62
7
6
Continuous
370
0
390
0
0
ENDTAB
0
TABLE
2
STYLE
5
4
330
0
100
AcDbSymbolTable
70
2
0
STYLE
5
16
330
4
100
AcDbSymbolTableRecord
100
AcDbTextStyleTableRecord
2
Standard
70
0
40
0
41
1
50
0
71
0
42
1
3
txt
4

0
STYLE
5
1B
330
4
100
AcDbSymbolTableRecord
100
AcDbTextStyleTableRecord
2
Arial
70
0
40
0
41
1
50
0
71
0
42
1
3
Arial.ttf
4

0
ENDTAB
0
TABLE
2
VIEW
5
5
330
0
100
AcDbSymbolTable
70
0
0
ENDTAB
0
TABLE
2
UCS
5
6
330
0
100
AcDbSymbolTable
70
0
0
ENDTAB
0
TABLE
2
APPID
5
7
330
0
100
AcDbSymbolTable
70
1
0
APPID
5
17
330
7
100
AcDbSymbolTableRecord
100
AcDbRegAppTableRecord
2
ACAD
70
0
0
ENDTAB
0
TABLE
2
DIMSTYLE
5
8
330
0
100
AcDbSymbolTable
70
1
100
AcDbDimStyleTable
0
DIMSTYLE
105
18
330
8
100
AcDbSymbolTableRecord
100
AcDbDimStyleTableRecord
2
Standard
70
0
340
16
0
ENDTAB
0
TABLE
2
BLOCK_RECORD
5
9
330
0
100
AcDbSymbolTable
70
2
0
BLOCK_RECORD
5
C
330
9
100
AcDbSymbolTableRecord
100
AcDbBlockTableRecord
2
*Model_Space
70
0
280
1
281
0
0
BLOCK_RECORD
5
F
330
9
100
AcDbSymbolTableRecord
100
AcDbBlockTableRecord
2
*Paper_Space
70
0
280
1
281
0
0
ENDTAB
0
ENDSEC
0
SECTION
2
BLOCKS
0
BLOCK
5
D
330
C
100
AcDbEntity
8
0
100
AcDbBlockBegin
2
*Model_Space
70
0
10
0
20
0
30
0
3
*Model_Space
1

0
ENDBLK
5
E
100
AcDbEntity
8
0
100
AcDbBlockEnd
0
BLOCK
5
10
330
F
100
AcDbEntity
8
0
100
AcDbBlockBegin
2
*Paper_Space
70
0
10
0
20
0
30
0
3
*Paper_Space
1

0
ENDBLK
5
11
100
AcDbEntity
8
0
100
AcDbBlockEnd
0
ENDSEC
0
SECTION
2
ENTITIES
0
TEXT
5
1A
330
C
100
AcDbEntity
420
1910582
8
0
100
AcDbText
10
0
20
661.5
30
0
40
28
1
Native Form Controls
7
Arial
100
AcDbText
0
LWPOLYLINE
5
1C
330
C
100
AcDbEntity
420
14147306
8
0
100
AcDbPolyline
90
42
70
0
43
0
38
0
39
0
10
14
20
632
10
417
20
632
10
417
20
632
10
419.7312645082258
20
631.7309939256452
10
422.35756805311127
20
630.934313455158
10
424.77798326227446
20
629.6405745722357
10
426.8994949366117
20
627.8994949366116
10
428.6405745722356
20
625.7779832622745
10
429.934313455158
20
623.3575680531112
10
430.73099392564524
20
620.7312645082258
10
431
20
618
10
431
20
319
10
431
20
319
10
430.73099392564524
20
316.2687354917742
10
429.934313455158
20
313.64243194688873
10
428.6405745722356
20
311.2220167377256
10
426.8994949366117
20
309.1005050633883
10
424.77798326227446
20
307.3594254277644
10
422.35756805311127
20
306.065686544842
10
419.7312645082258
20
305.26900607435476
10
417
20
305
10
14
20
305
10
14
20
305
10
11.268735491774205
20
305.26900607435476
10
8.642431946888744
20
306.065686544842
10
6.222016737725573
20
307.35942542776434
10
4.100505063388336
20
309.1005050633883
10
2.3594254277643643
20
311.2220167377256
10
1.065686544841986
20
313.64243194688873
10
0.26900607435477397
20
316.2687354917742
10
0
20
319
10
0
20
618
10
0
20
618
10
0.26900607435477397
20
620.7312645082258
10
1.0656865448419843
20
623.3575680531112
10
2.3594254277643643
20
625.7779832622745
10
4.100505063388333
20
627.8994949366116
10
6.2220167377255695
20
629.6405745722357
10
8.642431946888735
20
630.934313455158
10
11.268735491774198
20
631.7309939256452
10
13.999999999999998
20
632
10
14
20
632
0
TEXT
5
1D
330
C
100
AcDbEntity
420
1910582
8
0
100
AcDbText
10
19
20
600.5
30
0
40
16
1
Value Fields
7
Arial
100
AcDbText
0
TEXT
5
1E
330
C
100
AcDbEntity
420
4938352
8
0
100
AcDbText
10
19
20
571
30
0
40
12
1
TEXT INPUT
7
Arial
100
AcDbText
0
LWPOLYLINE
5
1F
330
C
100
AcDbEntity
420
9741240
8
0
100
AcDbPolyline
90
42
70
0
43
0
38
0
39
0
10
27
20
561
10
404
20
561
10
404
20
561
10
405.560722576129
20
560.8462822432258
10
407.06146745892073
20
560.3910362600902
10
408.4445618641568
20
559.6517568984203
10
409.65685424949237
20
558.6568542494924
10
410.6517568984204
20
557.4445618641569
10
411.3910362600903
20
556.0614674589207
10
411.84628224322586
20
554.560722576129
10
412
20
553
10
412
20
529
10
412
20
529
10
411.84628224322586
20
527.439277423871
10
411.3910362600903
20
525.9385325410792
10
410.6517568984204
20
524.5554381358431
10
409.65685424949237
20
523.3431457505076
10
408.4445618641568
20
522.3482431015797
10
407.06146745892073
20
521.6089637399098
10
405.560722576129
20
521.1537177567741
10
404
20
521
10
27
20
521
10
27
20
521
10
25.439277423870976
20
521.1537177567741
10
23.938532541079283
20
521.6089637399098
10
22.555438135843183
20
522.3482431015797
10
21.34314575050762
20
523.3431457505076
10
20.348243101579637
20
524.5554381358431
10
19.608963739909704
20
525.9385325410792
10
19.153717756774157
20
527.439277423871
10
19
20
529
10
19
20
553
10
19
20
553
10
19.153717756774157
20
554.560722576129
10
19.608963739909704
20
556.0614674589207
10
20.348243101579637
20
557.4445618641569
10
21.343145750507617
20
558.6568542494924
10
22.555438135843183
20
559.6517568984203
10
23.938532541079276
20
560.3910362600902
10
25.43927742387097
20
560.8462822432258
10
27
20
561
10
27
20
561
0
TEXT
5
20
330
C
100
AcDbEntity
420
1120295
8
0
100
AcDbText
10
31
20
537
30
0
40
16
1
Alice Johnson
7
Arial
100
AcDbText
0
TEXT
5
21
330
C
100
AcDbEntity
420
4938352
8
0
100
AcDbText
10
19
20
497
30
0
40
12
1
TEXTAREA
7
Arial
100
AcDbText
0
LWPOLYLINE
5
22
330
C
100
AcDbEntity
420
9741240
8
0
100
AcDbPolyline
90
42
70
0
43
0
38
0
39
0
10
27
20
487
10
404
20
487
10
404
20
487
10
405.560722576129
20
486.84628224322586
10
407.06146745892073
20
486.3910362600903
10
408.4445618641568
20
485.65175689842033
10
409.65685424949237
20
484.65685424949237
10
410.6517568984204
20
483.4445618641568
10
411.3910362600903
20
482.06146745892073
10
411.84628224322586
20
480.560722576129
10
412
20
479
10
412
20
407
10
412
20
407
10
411.84628224322586
20
405.439277423871
10
411.3910362600903
20
403.93853254107927
10
410.6517568984204
20
402.5554381358432
10
409.65685424949237
20
401.34314575050763
10
408.4445618641568
20
400.3482431015796
10
407.06146745892073
20
399.6089637399097
10
405.560722576129
20
399.15371775677414
10
404
20
399
10
27
20
399
10
27
20
399
10
25.439277423870976
20
399.15371775677414
10
23.938532541079283
20
399.6089637399097
10
22.555438135843183
20
400.3482431015796
10
21.34314575050762
20
401.34314575050763
10
20.348243101579637
20
402.5554381358432
10
19.608963739909704
20
403.93853254107927
10
19.153717756774157
20
405.439277423871
10
19
20
407
10
19
20
479
10
19
20
479
10
19.153717756774157
20
480.560722576129
10
19.608963739909704
20
482.06146745892073
10
20.348243101579637
20
483.4445618641568
10
21.343145750507617
20
484.65685424949237
10
22.555438135843183
20
485.65175689842033
10
23.938532541079276
20
486.3910362600903
10
25.43927742387097
20
486.8462822432258
10
27
20
487
10
27
20
487
0
TEXT
5
23
330
C
100
AcDbEntity
420
1120295
8
0
100
AcDbText
10
31
20
463.4
30
0
40
16
1
First line
7
Arial
100
AcDbText
0
TEXT
5
24
330
C
100
AcDbEntity
420
1120295
8
0
100
AcDbText
10
31
20
444.20000000000005
30
0
40
16
1
Second line
7
Arial
100
AcDbText
0
TEXT
5
25
330
C
100
AcDbEntity
420
1120295
8
0
100
AcDbText
10
31
20
425
30
0
40
16
1
Third line
7
Arial
100
AcDbText
0
TEXT
5
26
330
C
100
AcDbEntity
420
4938352
8
0
100
AcDbText
10
19
20
375
30
0
40
12
1
SELECT
7
Arial
100
AcDbText
0
LWPOLYLINE
5
27
330
C
100
AcDbEntity
420
9741240
8
0
100
AcDbPolyline
90
42
70
0
43
0
38
0
39
0
10
27
20
365
10
404
20
365
10
404
20
365
10
405.560722576129
20
364.84628224322586
10
407.06146745892073
20
364.3910362600903
10
408.4445618641568
20
363.6517568984204
10
409.65685424949237
20
362.65685424949237
10
410.6517568984204
20
361.4445618641568
10
411.3910362600903
20
360.06146745892073
10
411.84628224322586
20
358.560722576129
10
412
20
357
10
412
20
332
10
412
20
332
10
411.84628224322586
20
330.439277423871
10
411.3910362600903
20
328.93853254107927
10
410.6517568984204
20
327.5554381358432
10
409.65685424949237
20
326.34314575050763
10
408.4445618641568
20
325.3482431015796
10
407.06146745892073
20
324.6089637399097
10
405.560722576129
20
324.15371775677414
10
404
20
324
10
27
20
324
10
27
20
324
10
25.439277423870976
20
324.15371775677414
10
23.938532541079283
20
324.6089637399097
10
22.555438135843183
20
325.3482431015796
10
21.34314575050762
20
326.34314575050763
10
20.348243101579637
20
327.5554381358432
10
19.608963739909704
20
328.93853254107927
10
19.153717756774157
20
330.439277423871
10
19
20
332
10
19
20
357
10
19
20
357
10
19.153717756774157
20
358.560722576129
10
19.608963739909704
20
360.06146745892073
10
20.348243101579637
20
361.4445618641568
10
21.343145750507617
20
362.65685424949237
10
22.555438135843183
20
363.6517568984204
10
23.938532541079276
20
364.3910362600903
10
25.43927742387097
20
364.84628224322586
10
27
20
365
10
27
20
365
0
TEXT
5
28
330
C
100
AcDbEntity
420
1120295
8
0
100
AcDbText
10
31
20
340.5
30
0
40
16
1
Normal
7
Arial
100
AcDbText
0
LWPOLYLINE
5
29
330
C
100
AcDbEntity
420
5263440
8
0
100
AcDbPolyline
90
3
70
0
43
0
38
0
39
0
10
399
20
346.26
10
403
20
342.74
10
407
20
346.26
0
LWPOLYLINE
5
2A
330
C
100
AcDbEntity
420
14147306
8
0
100
AcDbPolyline
90
42
70
0
43
0
38
0
39
0
10
463
20
632
10
866
20
632
10
866
20
632
10
868.7312645082258
20
631.7309939256452
10
871.3575680531112
20
630.934313455158
10
873.7779832622745
20
629.6405745722357
10
875.8994949366116
20
627.8994949366116
10
877.6405745722357
20
625.7779832622745
10
878.934313455158
20
623.3575680531112
10
879.7309939256452
20
620.7312645082258
10
880
20
618
10
880
20
319
10
880
20
319
10
879.7309939256452
20
316.2687354917742
10
878.934313455158
20
313.64243194688873
10
877.6405745722357
20
311.2220167377256
10
875.8994949366116
20
309.1005050633883
10
873.7779832622745
20
307.3594254277644
10
871.3575680531112
20
306.065686544842
10
868.7312645082258
20
305.26900607435476
10
866
20
305
10
463
20
305
10
463
20
305
10
460.2687354917742
20
305.26900607435476
10
457.64243194688873
20
306.065686544842
10
455.2220167377256
20
307.35942542776434
10
453.1005050633883
20
309.1005050633883
10
451.35942542776434
20
311.2220167377256
10
450.065686544842
20
313.64243194688873
10
449.26900607435476
20
316.2687354917742
10
449
20
319
10
449
20
618
10
449
20
618
10
449.26900607435476
20
620.7312645082258
10
450.065686544842
20
623.3575680531112
10
451.35942542776434
20
625.7779832622745
10
453.1005050633883
20
627.8994949366116
10
455.2220167377256
20
629.6405745722357
10
457.64243194688873
20
630.934313455158
10
460.2687354917742
20
631.7309939256452
10
463
20
632
10
463
20
632
0
TEXT
5
2B
330
C
100
AcDbEntity
420
1910582
8
0
100
AcDbText
10
468
20
600.5
30
0
40
16
1
State Fields
7
Arial
100
AcDbText
0
LWPOLYLINE
5
2C
330
C
100
AcDbEntity
420
1008382
8
0
100
AcDbPolyline
90
42
70
0
43
0
38
0
39
0
10
474
20
578
10
488
20
578
10
488
20
578
10
488.3901806440323
20
577.9615705608064
10
488.7653668647302
20
577.8477590650226
10
489.1111404660392
20
577.6629392246051
10
489.4142135623731
20
577.4142135623731
10
489.6629392246051
20
577.1111404660392
10
489.84775906502256
20
576.7653668647301
10
489.9615705608065
20
576.3901806440323
10
490
20
576
10
490
20
562
10
490
20
562
10
489.9615705608065
20
561.6098193559677
10
489.84775906502256
20
561.2346331352699
10
489.6629392246051
20
560.8888595339608
10
489.4142135623731
20
560.5857864376269
10
489.1111404660392
20
560.3370607753949
10
488.7653668647302
20
560.1522409349774
10
488.3901806440323
20
560.0384294391936
10
488
20
560
10
474
20
560
10
474
20
560
10
473.6098193559677
20
560.0384294391936
10
473.2346331352698
20
560.1522409349774
10
472.8888595339608
20
560.3370607753949
10
472.5857864376269
20
560.5857864376269
10
472.3370607753949
20
560.8888595339608
10
472.15224093497744
20
561.2346331352699
10
472.0384294391935
20
561.6098193559677
10
472
20
562
10
472
20
576
10
472
20
576
10
472.0384294391935
20
576.3901806440323
10
472.15224093497744
20
576.7653668647301
10
472.3370607753949
20
577.1111404660392
10
472.5857864376269
20
577.4142135623731
10
472.8888595339608
20
577.6629392246051
10
473.2346331352698
20
577.8477590650226
10
473.6098193559677
20
577.9615705608064
10
474
20
578
10
474
20
578
0
LWPOLYLINE
5
2D
330
C
100
AcDbEntity
420
16777215
8
0
100
AcDbPolyline
90
3
70
0
43
0
38
0
39
0
10
475.96
20
568.28
10
479.56
20
564.6800000000001
10
486.04
20
572.6
0
TEXT
5
2E
330
C
100
AcDbEntity
420
4938352
8
0
100
AcDbText
10
503
20
566
30
0
40
12
1
CHECKED CHECKBOX
7
Arial
100
AcDbText
0
LWPOLYLINE
5
2F
330
C
100
AcDbEntity
420
1008382
8
0
100
AcDbPolyline
90
42
70
0
43
0
38
0
39
0
10
474
20
542
10
488
20
542
10
488
20
542
10
488.3901806440323
20
541.9615705608064
10
488.7653668647302
20
541.8477590650226
10
489.1111404660392
20
541.6629392246051
10
489.4142135623731
20
541.4142135623731
10
489.6629392246051
20
541.1111404660392
10
489.84775906502256
20
540.7653668647301
10
489.9615705608065
20
540.3901806440323
10
490
20
540
10
490
20
526
10
490
20
526
10
489.9615705608065
20
525.6098193559677
10
489.84775906502256
20
525.2346331352699
10
489.6629392246051
20
524.8888595339608
10
489.4142135623731
20
524.5857864376269
10
489.1111404660392
20
524.3370607753949
10
488.7653668647302
20
524.1522409349774
10
488.3901806440323
20
524.0384294391936
10
488
20
524
10
474
20
524
10
474
20
524
10
473.6098193559677
20
524.0384294391936
10
473.2346331352698
20
524.1522409349774
10
472.8888595339608
20
524.3370607753949
10
472.5857864376269
20
524.5857864376269
10
472.3370607753949
20
524.8888595339608
10
472.15224093497744
20
525.2346331352699
10
472.0384294391935
20
525.6098193559677
10
472
20
526
10
472
20
540
10
472
20
540
10
472.0384294391935
20
540.3901806440323
10
472.15224093497744
20
540.7653668647301
10
472.3370607753949
20
541.1111404660392
10
472.5857864376269
20
541.4142135623731
10
472.8888595339608
20
541.6629392246051
10
473.2346331352698
20
541.8477590650226
10
473.6098193559677
20
541.9615705608064
10
474
20
542
10
474
20
542
0
LWPOLYLINE
5
30
330
C
100
AcDbEntity
420
16777215
8
0
100
AcDbPolyline
90
5
70
0
43
0
38
0
39
0
10
475.6
20
534.26
10
486.4
20
534.26
10
486.4
20
531.74
10
475.6
20
531.74
10
475.6
20
534.26
0
TEXT
5
31
330
C
100
AcDbEntity
420
4938352
8
0
100
AcDbText
10
503
20
530
30
0
40
12
1
INDETERMINATE CHECKBOX
7
Arial
100
AcDbText
0
HATCH
5
32
330
C
100
AcDbEntity
420
16777215
8
0
100
AcDbHatch
10
0
20
0
30
0
210
0
220
0
230
1
2
SOLID
70
1
71
0
91
1
92
7
72
0
73
1
93
28
10
491
20
497
10
490.7743512096364
20
494.9973115943932
10
490.1087198111218
20
493.095046347942
10
489.03648334221225
20
491.3885917832714
10
487.6114082167286
20
489.96351665778775
10
485.904953652058
20
488.8912801888782
10
484.0026884056068
20
488.2256487903636
10
482
20
488
10
479.9973115943932
20
488.2256487903636
10
478.095046347942
20
488.8912801888782
10
476.3885917832714
20
489.96351665778775
10
474.96351665778775
20
491.3885917832714
10
473.8912801888782
20
493.095046347942
10
473.2256487903636
20
494.9973115943932
10
473
20
497
10
473.2256487903636
20
499.0026884056068
10
473.8912801888782
20
500.904953652058
10
474.96351665778775
20
502.6114082167286
10
476.3885917832714
20
504.03648334221225
10
478.095046347942
20
505.1087198111218
10
479.9973115943932
20
505.7743512096364
10
482
20
506
10
484.0026884056068
20
505.7743512096364
10
485.904953652058
20
505.1087198111218
10
487.6114082167286
20
504.03648334221225
10
489.03648334221225
20
502.6114082167286
10
490.1087198111218
20
500.904953652058
10
490.7743512096364
20
499.0026884056068
97
0
75
1
76
1
47
1
98
0
0
LWPOLYLINE
5
33
330
C
100
AcDbEntity
420
1008382
8
0
100
AcDbPolyline
90
29
70
0
43
0
38
0
39
0
10
491
20
497
10
490.7743512096364
20
494.9973115943932
10
490.1087198111218
20
493.095046347942
10
489.03648334221225
20
491.3885917832714
10
487.6114082167286
20
489.96351665778775
10
485.904953652058
20
488.8912801888782
10
484.0026884056068
20
488.2256487903636
10
482
20
488
10
479.9973115943932
20
488.2256487903636
10
478.095046347942
20
488.8912801888782
10
476.3885917832714
20
489.96351665778775
10
474.96351665778775
20
491.3885917832714
10
473.8912801888782
20
493.095046347942
10
473.2256487903636
20
494.9973115943932
10
473
20
497
10
473.2256487903636
20
499.0026884056068
10
473.8912801888782
20
500.904953652058
10
474.96351665778775
20
502.6114082167286
10
476.3885917832714
20
504.03648334221225
10
478.095046347942
20
505.1087198111218
10
479.9973115943932
20
505.7743512096364
10
482
20
506
10
484.0026884056068
20
505.7743512096364
10
485.904953652058
20
505.1087198111218
10
487.6114082167286
20
504.03648334221225
10
489.03648334221225
20
502.6114082167286
10
490.1087198111218
20
500.904953652058
10
490.7743512096364
20
499.0026884056068
10
491
20
497
0
HATCH
5
34
330
C
100
AcDbEntity
420
1008382
8
0
100
AcDbHatch
10
0
20
0
30
0
210
0
220
0
230
1
2
SOLID
70
1
71
0
91
1
92
7
72
0
73
1
93
24
10
485.78
20
497
10
485.6511996233727
20
496.0216640095125
10
485.2735760263052
20
495.11
10
484.67286363288514
20
494.32713636711486
10
483.89
20
493.7264239736948
10
482.97833599048755
20
493.3488003766273
10
482
20
493.22
10
481.02166400951245
20
493.3488003766273
10
480.11
20
493.7264239736948
10
479.32713636711486
20
494.32713636711486
10
478.7264239736948
20
495.11
10
478.3488003766273
20
496.0216640095125
10
478.22
20
497
10
478.3488003766273
20
497.9783359904875
10
478.7264239736948
20
498.89
10
479.32713636711486
20
499.67286363288514
10
480.11
20
500.27357602630514
10
481.02166400951245
20
500.6511996233727
10
482
20
500.78
10
482.97833599048755
20
500.6511996233727
10
483.89
20
500.27357602630514
10
484.67286363288514
20
499.67286363288514
10
485.2735760263052
20
498.89
10
485.6511996233727
20
497.9783359904875
97
0
75
1
76
1
47
1
98
0
0
LWPOLYLINE
5
35
330
C
100
AcDbEntity
420
1008382
8
0
100
AcDbPolyline
90
25
70
0
43
0
38
0
39
0
10
485.78
20
497
10
485.6511996233727
20
496.0216640095125
10
485.2735760263052
20
495.11
10
484.67286363288514
20
494.32713636711486
10
483.89
20
493.7264239736948
10
482.97833599048755
20
493.3488003766273
10
482
20
493.22
10
481.02166400951245
20
493.3488003766273
10
480.11
20
493.7264239736948
10
479.32713636711486
20
494.32713636711486
10
478.7264239736948
20
495.11
10
478.3488003766273
20
496.0216640095125
10
478.22
20
497
10
478.3488003766273
20
497.9783359904875
10
478.7264239736948
20
498.89
10
479.32713636711486
20
499.67286363288514
10
480.11
20
500.27357602630514
10
481.02166400951245
20
500.6511996233727
10
482
20
500.78
10
482.97833599048755
20
500.6511996233727
10
483.89
20
500.27357602630514
10
484.67286363288514
20
499.67286363288514
10
485.2735760263052
20
498.89
10
485.6511996233727
20
497.9783359904875
10
485.78
20
497
0
TEXT
5
36
330
C
100
AcDbEntity
420
4938352
8
0
100
AcDbText
10
504
20
495
30
0
40
12
1
SELECTED RADIO BUTTON
7
Arial
100
AcDbText
0
TEXT
5
37
330
C
100
AcDbEntity
420
4938352
8
0
100
AcDbText
10
468
20
466
30
0
40
12
1
PROGRESS
7
Arial
100
AcDbText
0
LWPOLYLINE
5
38
330
C
100
AcDbEntity
420
1910582
8
0
100
AcDbPolyline
90
42
70
0
43
0
38
0
39
0
10
477
20
456
10
852
20
456
10
852
20
456
10
853.7558128981451
20
455.82706752362907
10
855.4441508912859
20
455.3149157926016
10
857.0001320971764
20
454.48322651072294
10
858.363961030679
20
453.3639610306789
10
859.483226510723
20
452.00013209717645
10
860.3149157926016
20
450.4441508912858
10
860.8270675236291
20
448.75581289814517
10
861
20
447
10
861
20
447
10
861
20
447
10
860.8270675236291
20
445.24418710185483
10
860.3149157926016
20
443.5558491087142
10
859.483226510723
20
441.99986790282355
10
858.363961030679
20
440.6360389693211
10
857.0001320971764
20
439.51677348927706
10
855.4441508912859
20
438.6850842073984
10
853.7558128981451
20
438.17293247637093
10
852
20
438
10
477
20
438
10
477
20
438
10
475.24418710185483
20
438.17293247637093
10
473.5558491087142
20
438.6850842073984
10
471.9998679028236
20
439.51677348927706
10
470.6360389693211
20
440.6360389693211
10
469.5167734892771
20
441.99986790282355
10
468.6850842073984
20
443.5558491087142
10
468.17293247637093
20
445.24418710185483
10
468
20
447
10
468
20
447
10
468
20
447
10
468.17293247637093
20
448.75581289814517
10
468.6850842073984
20
450.4441508912858
10
469.5167734892771
20
452.00013209717645
10
470.6360389693211
20
453.3639610306789
10
471.99986790282355
20
454.48322651072294
10
473.5558491087142
20
455.3149157926016
10
475.24418710185483
20
455.82706752362907
10
477
20
456
10
477
20
456
0
LWPOLYLINE
5
39
330
C
100
AcDbEntity
420
1008382
8
0
100
AcDbPolyline
90
42
70
0
43
0
38
0
39
0
10
477
20
455
10
742.52
20
455
10
742.52
20
455
10
744.080722576129
20
454.84628224322586
10
745.5814674589207
20
454.3910362600903
10
746.9645618641568
20
453.65175689842033
10
748.1768542494924
20
452.65685424949237
10
749.1717568984203
20
451.4445618641568
10
749.9110362600903
20
450.06146745892073
10
750.3662822432258
20
448.560722576129
10
750.52
20
447
10
750.52
20
447
10
750.52
20
447
10
750.3662822432258
20
445.439277423871
10
749.9110362600903
20
443.93853254107927
10
749.1717568984203
20
442.5554381358432
10
748.1768542494924
20
441.34314575050763
10
746.9645618641568
20
440.34824310157967
10
745.5814674589207
20
439.6089637399097
10
744.080722576129
20
439.15371775677414
10
742.52
20
439
10
477
20
439
10
477
20
439
10
475.439277423871
20
439.15371775677414
10
473.93853254107927
20
439.6089637399097
10
472.5554381358432
20
440.34824310157967
10
471.34314575050763
20
441.34314575050763
10
470.3482431015796
20
442.5554381358432
10
469.6089637399097
20
443.93853254107927
10
469.15371775677414
20
445.439277423871
10
469
20
447
10
469
20
447
10
469
20
447
10
469.15371775677414
20
448.560722576129
10
469.6089637399097
20
450.06146745892073
10
470.3482431015796
20
451.4445618641568
10
471.34314575050763
20
452.65685424949237
10
472.5554381358432
20
453.65175689842033
10
473.93853254107927
20
454.3910362600903
10
475.439277423871
20
454.8462822432258
10
477
20
455
10
477
20
455
0
TEXT
5
3A
330
C
100
AcDbEntity
420
1910582
8
0
100
AcDbText
10
648.48828125
20
443
30
0
40
16
1
72%
7
Arial
100
AcDbText
0
LWPOLYLINE
5
3B
330
C
100
AcDbEntity
420
14147306
8
0
100
AcDbPolyline
90
42
70
0
43
0
38
0
39
0
10
14
20
287
10
417
20
287
10
417
20
287
10
419.7312645082258
20
286.73099392564524
10
422.35756805311127
20
285.934313455158
10
424.77798326227446
20
284.6405745722356
10
426.8994949366117
20
282.8994949366117
10
428.6405745722356
20
280.7779832622744
10
429.934313455158
20
278.35756805311127
10
430.73099392564524
20
275.7312645082258
10
431
20
273
10
431
20
14
10
431
20
14
10
430.73099392564524
20
11.268735491774237
10
429.934313455158
20
8.642431946888792
10
428.6405745722356
20
6.222016737725539
10
426.8994949366117
20
4.100505063388368
10
424.77798326227446
20
2.359425427764336
10
422.35756805311127
20
1.0656865448420376
10
419.7312645082258
20
0.26900607435482016
10
417
20
0
10
14
20
0
10
14
20
0
10
11.268735491774205
20
0.26900607435482016
10
8.642431946888744
20
1.0656865448420376
10
6.222016737725573
20
2.359425427764336
10
4.100505063388336
20
4.100505063388368
10
2.3594254277643643
20
6.222016737725539
10
1.065686544841986
20
8.642431946888792
10
0.26900607435477397
20
11.268735491774237
10
0
20
14
10
0
20
273
10
0
20
273
10
0.26900607435477397
20
275.7312645082258
10
1.0656865448419843
20
278.35756805311127
10
2.3594254277643643
20
280.7779832622744
10
4.100505063388333
20
282.8994949366117
10
6.2220167377255695
20
284.6405745722356
10
8.642431946888735
20
285.934313455158
10
11.268735491774198
20
286.73099392564524
10
13.999999999999998
20
287
10
14
20
287
0
TEXT
5
3C
330
C
100
AcDbEntity
420
1910582
8
0
100
AcDbText
10
19
20
255.5
30
0
40
16
1
Date & Time
7
Arial
100
AcDbText
0
TEXT
5
3D
330
C
100
AcDbEntity
420
4938352
8
0
100
AcDbText
10
19
20
226
30
0
40
12
1
DATE
7
Arial
100
AcDbText
0
LWPOLYLINE
5
3E
330
C
100
AcDbEntity
420
9741240
8
0
100
AcDbPolyline
90
42
70
0
43
0
38
0
39
0
10
27
20
216
10
404
20
216
10
404
20
216
10
405.560722576129
20
215.84628224322586
10
407.06146745892073
20
215.3910362600903
10
408.4445618641568
20
214.6517568984204
10
409.65685424949237
20
213.65685424949237
10
410.6517568984204
20
212.4445618641568
10
411.3910362600903
20
211.06146745892073
10
411.84628224322586
20
209.56072257612902
10
412
20
208
10
412
20
182
10
412
20
182
10
411.84628224322586
20
180.43927742387098
10
411.3910362600903
20
178.93853254107927
10
410.6517568984204
20
177.5554381358432
10
409.65685424949237
20
176.34314575050763
10
408.4445618641568
20
175.3482431015796
10
407.06146745892073
20
174.6089637399097
10
405.560722576129
20
174.15371775677414
10
404
20
174
10
27
20
174
10
27
20
174
10
25.439277423870976
20
174.15371775677414
10
23.938532541079283
20
174.6089637399097
10
22.555438135843183
20
175.3482431015796
10
21.34314575050762
20
176.34314575050763
10
20.348243101579637
20
177.5554381358432
10
19.608963739909704
20
178.93853254107927
10
19.153717756774157
20
180.43927742387098
10
19
20
182
10
19
20
208
10
19
20
208
10
19.153717756774157
20
209.56072257612902
10
19.608963739909704
20
211.06146745892073
10
20.348243101579637
20
212.4445618641568
10
21.343145750507617
20
213.65685424949237
10
22.555438135843183
20
214.6517568984204
10
23.938532541079276
20
215.3910362600903
10
25.43927742387097
20
215.84628224322586
10
27
20
216
10
27
20
216
0
TEXT
5
3F
330
C
100
AcDbEntity
420
1120295
8
0
100
AcDbText
10
31
20
191
30
0
40
16
1
2026-04-13
7
Arial
100
AcDbText
0
TEXT
5
40
330
C
100
AcDbEntity
420
4938352
8
0
100
AcDbText
10
19
20
150
30
0
40
12
1
TIME
7
Arial
100
AcDbText
0
LWPOLYLINE
5
41
330
C
100
AcDbEntity
420
9741240
8
0
100
AcDbPolyline
90
42
70
0
43
0
38
0
39
0
10
27
20
140
10
404
20
140
10
404
20
140
10
405.560722576129
20
139.8462822432258
10
407.06146745892073
20
139.39103626009035
10
408.4445618641568
20
138.65175689842033
10
409.65685424949237
20
137.65685424949243
10
410.6517568984204
20
136.44456186415687
10
411.3910362600903
20
135.06146745892067
10
411.84628224322586
20
133.56072257612902
10
412
20
132
10
412
20
103
10
412
20
103
10
411.84628224322586
20
101.43927742387098
10
411.3910362600903
20
99.93853254107933
10
410.6517568984204
20
98.55543813584313
10
409.65685424949237
20
97.34314575050757
10
408.4445618641568
20
96.34824310157967
10
407.06146745892073
20
95.60896373990965
10
405.560722576129
20
95.1537177567742
10
404
20
95
10
27
20
95
10
27
20
95
10
25.439277423870976
20
95.1537177567742
10
23.938532541079283
20
95.60896373990965
10
22.555438135843183
20
96.34824310157967
10
21.34314575050762
20
97.34314575050757
10
20.348243101579637
20
98.55543813584313
10
19.608963739909704
20
99.93853254107933
10
19.153717756774157
20
101.43927742387098
10
19
20
103
10
19
20
132
10
19
20
132
10
19.153717756774157
20
133.56072257612902
10
19.608963739909704
20
135.06146745892067
10
20.348243101579637
20
136.44456186415687
10
21.343145750507617
20
137.65685424949243
10
22.555438135843183
20
138.65175689842033
10
23.938532541079276
20
139.39103626009035
10
25.43927742387097
20
139.8462822432258
10
27
20
140
10
27
20
140
0
TEXT
5
42
330
C
100
AcDbEntity
420
1120295
8
0
100
AcDbText
10
31
20
113.5
30
0
40
16
1
14:35
7
Arial
100
AcDbText
0
TEXT
5
43
330
C
100
AcDbEntity
420
4938352
8
0
100
AcDbText
10
19
20
71
30
0
40
12
1
DATETIME
7
Arial
100
AcDbText
0
LWPOLYLINE
5
44
330
C
100
AcDbEntity
420
9741240
8
0
100
AcDbPolyline
90
42
70
0
43
0
38
0
39
0
10
27
20
61
10
404
20
61
10
404
20
61
10
405.560722576129
20
60.8462822432258
10
407.06146745892073
20
60.391036260090345
10
408.4445618641568
20
59.65175689842033
10
409.65685424949237
20
58.656854249492426
10
410.6517568984204
20
57.44456186415687
10
411.3910362600903
20
56.061467458920674
10
411.84628224322586
20
54.560722576129024
10
412
20
53
10
412
20
27
10
412
20
27
10
411.84628224322586
20
25.439277423870976
10
411.3910362600903
20
23.938532541079326
10
410.6517568984204
20
22.555438135843133
10
409.65685424949237
20
21.343145750507574
10
408.4445618641568
20
20.34824310157967
10
407.06146745892073
20
19.608963739909655
10
405.560722576129
20
19.1537177567742
10
404
20
19
10
27
20
19
10
27
20
19
10
25.439277423870976
20
19.1537177567742
10
23.938532541079283
20
19.608963739909655
10
22.555438135843183
20
20.34824310157967
10
21.34314575050762
20
21.343145750507574
10
20.348243101579637
20
22.555438135843133
10
19.608963739909704
20
23.938532541079326
10
19.153717756774157
20
25.439277423870976
10
19
20
27
10
19
20
53
10
19
20
53
10
19.153717756774157
20
54.560722576129024
10
19.608963739909704
20
56.061467458920674
10
20.348243101579637
20
57.44456186415687
10
21.343145750507617
20
58.656854249492426
10
22.555438135843183
20
59.65175689842033
10
23.938532541079276
20
60.391036260090345
10
25.43927742387097
20
60.8462822432258
10
27
20
61
10
27
20
61
0
TEXT
5
45
330
C
100
AcDbEntity
420
1120295
8
0
100
AcDbText
10
31
20
36
30
0
40
16
1
2026-04-13 14:35
7
Arial
100
AcDbText
0
LWPOLYLINE
5
46
330
C
100
AcDbEntity
420
14147306
8
0
100
AcDbPolyline
90
42
70
0
43
0
38
0
39
0
10
463
20
287
10
866
20
287
10
866
20
287
10
868.7312645082258
20
286.73099392564524
10
871.3575680531112
20
285.934313455158
10
873.7779832622745
20
284.6405745722356
10
875.8994949366116
20
282.8994949366117
10
877.6405745722357
20
280.7779832622744
10
878.934313455158
20
278.35756805311127
10
879.7309939256452
20
275.7312645082258
10
880
20
273
10
880
20
14
10
880
20
14
10
879.7309939256452
20
11.268735491774237
10
878.934313455158
20
8.642431946888792
10
877.6405745722357
20
6.222016737725539
10
875.8994949366116
20
4.100505063388368
10
873.7779832622745
20
2.359425427764336
10
871.3575680531112
20
1.0656865448420376
10
868.7312645082258
20
0.26900607435482016
10
866
20
0
10
463
20
0
10
463
20
0
10
460.2687354917742
20
0.26900607435482016
10
457.64243194688873
20
1.0656865448420376
10
455.2220167377256
20
2.359425427764336
10
453.1005050633883
20
4.100505063388368
10
451.35942542776434
20
6.222016737725539
10
450.065686544842
20
8.642431946888792
10
449.26900607435476
20
11.268735491774237
10
449
20
14
10
449
20
273
10
449
20
273
10
449.26900607435476
20
275.7312645082258
10
450.065686544842
20
278.35756805311127
10
451.35942542776434
20
280.7779832622744
10
453.1005050633883
20
282.8994949366117
10
455.2220167377256
20
284.6405745722356
10
457.64243194688873
20
285.934313455158
10
460.2687354917742
20
286.73099392564524
10
463
20
287
10
463
20
287
0
TEXT
5
47
330
C
100
AcDbEntity
420
1910582
8
0
100
AcDbText
10
468
20
255.5
30
0
40
16
1
Additional Inputs
7
Arial
100
AcDbText
0
TEXT
5
48
330
C
100
AcDbEntity
420
4938352
8
0
100
AcDbText
10
468
20
226
30
0
40
12
1
MONTH
7
Arial
100
AcDbText
0
LWPOLYLINE
5
49
330
C
100
AcDbEntity
420
9741240
8
0
100
AcDbPolyline
90
42
70
0
43
0
38
0
39
0
10
476
20
216
10
853
20
216
10
853
20
216
10
854.560722576129
20
215.84628224322586
10
856.0614674589207
20
215.3910362600903
10
857.4445618641569
20
214.6517568984204
10
858.6568542494924
20
213.65685424949237
10
859.6517568984203
20
212.4445618641568
10
860.3910362600903
20
211.06146745892073
10
860.8462822432258
20
209.56072257612902
10
861
20
208
10
861
20
182
10
861
20
182
10
860.8462822432258
20
180.43927742387098
10
860.3910362600903
20
178.93853254107927
10
859.6517568984203
20
177.5554381358432
10
858.6568542494924
20
176.34314575050763
10
857.4445618641569
20
175.3482431015796
10
856.0614674589207
20
174.6089637399097
10
854.560722576129
20
174.15371775677414
10
853
20
174
10
476
20
174
10
476
20
174
10
474.439277423871
20
174.15371775677414
10
472.93853254107927
20
174.6089637399097
10
471.5554381358432
20
175.3482431015796
10
470.34314575050763
20
176.34314575050763
10
469.3482431015796
20
177.5554381358432
10
468.6089637399097
20
178.93853254107927
10
468.15371775677414
20
180.43927742387098
10
468
20
182
10
468
20
208
10
468
20
208
10
468.15371775677414
20
209.56072257612902
10
468.6089637399097
20
211.06146745892073
10
469.3482431015796
20
212.4445618641568
10
470.34314575050763
20
213.65685424949237
10
471.5554381358432
20
214.6517568984204
10
472.93853254107927
20
215.3910362600903
10
474.439277423871
20
215.84628224322586
10
476
20
216
10
476
20
216
0
TEXT
5
4A
330
C
100
AcDbEntity
420
1120295
8
0
100
AcDbText
10
480
20
191
30
0
40
16
1
2026-04
7
Arial
100
AcDbText
0
TEXT
5
4B
330
C
100
AcDbEntity
420
4938352
8
0
100
AcDbText
10
468
20
150
30
0
40
12
1
WEEK
7
Arial
100
AcDbText
0
LWPOLYLINE
5
4C
330
C
100
AcDbEntity
420
9741240
8
0
100
AcDbPolyline
90
42
70
0
43
0
38
0
39
0
10
476
20
140
10
853
20
140
10
853
20
140
10
854.560722576129
20
139.8462822432258
10
856.0614674589207
20
139.39103626009035
10
857.4445618641569
20
138.65175689842033
10
858.6568542494924
20
137.65685424949243
10
859.6517568984203
20
136.44456186415687
10
860.3910362600903
20
135.06146745892067
10
860.8462822432258
20
133.56072257612902
10
861
20
132
10
861
20
106
10
861
20
106
10
860.8462822432258
20
104.43927742387098
10
860.3910362600903
20
102.93853254107933
10
859.6517568984203
20
101.55543813584313
10
858.6568542494924
20
100.34314575050757
10
857.4445618641569
20
99.34824310157967
10
856.0614674589207
20
98.60896373990965
10
854.560722576129
20
98.1537177567742
10
853
20
98
10
476
20
98
10
476
20
98
10
474.439277423871
20
98.1537177567742
10
472.93853254107927
20
98.60896373990965
10
471.5554381358432
20
99.34824310157967
10
470.34314575050763
20
100.34314575050757
10
469.3482431015796
20
101.55543813584313
10
468.6089637399097
20
102.93853254107933
10
468.15371775677414
20
104.43927742387098
10
468
20
106
10
468
20
132
10
468
20
132
10
468.15371775677414
20
133.56072257612902
10
468.6089637399097
20
135.06146745892067
10
469.3482431015796
20
136.44456186415687
10
470.34314575050763
20
137.65685424949243
10
471.5554381358432
20
138.65175689842033
10
472.93853254107927
20
139.39103626009035
10
474.439277423871
20
139.8462822432258
10
476
20
140
10
476
20
140
0
TEXT
5
4D
330
C
100
AcDbEntity
420
1120295
8
0
100
AcDbText
10
480
20
115
30
0
40
16
1
2026-W16
7
Arial
100
AcDbText
0
TEXT
5
4E
330
C
100
AcDbEntity
420
4938352
8
0
100
AcDbText
10
468
20
74
30
0
40
12
1
NUMBER
7
Arial
100
AcDbText
0
LWPOLYLINE
5
4F
330
C
100
AcDbEntity
420
9741240
8
0
100
AcDbPolyline
90
42
70
0
43
0
38
0
39
0
10
476
20
64
10
853
20
64
10
853
20
64
10
854.560722576129
20
63.8462822432258
10
856.0614674589207
20
63.391036260090345
10
857.4445618641569
20
62.65175689842033
10
858.6568542494924
20
61.656854249492426
10
859.6517568984203
20
60.44456186415687
10
860.3910362600903
20
59.061467458920674
10
860.8462822432258
20
57.560722576129024
10
861
20
56
10
861
20
32
10
861
20
32
10
860.8462822432258
20
30.439277423870976
10
860.3910362600903
20
28.938532541079326
10
859.6517568984203
20
27.555438135843133
10
858.6568542494924
20
26.343145750507574
10
857.4445618641569
20
25.34824310157967
10
856.0614674589207
20
24.608963739909655
10
854.560722576129
20
24.1537177567742
10
853
20
24
10
476
20
24
10
476
20
24
10
474.439277423871
20
24.1537177567742
10
472.93853254107927
20
24.608963739909655
10
471.5554381358432
20
25.34824310157967
10
470.34314575050763
20
26.343145750507574
10
469.3482431015796
20
27.555438135843133
10
468.6089637399097
20
28.938532541079326
10
468.15371775677414
20
30.439277423870976
10
468
20
32
10
468
20
56
10
468
20
56
10
468.15371775677414
20
57.560722576129024
10
468.6089637399097
20
59.061467458920674
10
469.3482431015796
20
60.44456186415687
10
470.34314575050763
20
61.656854249492426
10
471.5554381358432
20
62.65175689842033
10
472.93853254107927
20
63.391036260090345
10
474.439277423871
20
63.8462822432258
10
476
20
64
10
476
20
64
0
TEXT
5
50
330
C
100
AcDbEntity
420
1120295
8
0
100
AcDbText
10
480
20
40
30
0
40
16
1
42
7
Arial
100
AcDbText
0
ENDSEC
0
SECTION
2
OBJECTS
0
DICTIONARY
5
A
330
0
100
AcDbDictionary
281
1
3
ACAD_GROUP
350
B
0
DICTIONARY
5
B
330
A
100
AcDbDictionary
281
0
0
ENDSEC
0
EOF