  0
SECTION
  2
HEADER
  9
$ANGBASE
 50
0.0
  9
$ANGDIR
 70
1
  9
$AUNITS
 70
0
  9
$AUPREC
 70
0
  9
$ATTMODE
 70
1
  9
$DWGCODEPAGE
  3
ANSI_1252
  9
$TDCREATE
 40
2451545.0416666665114462
  9
$CECOLOR
 62
256
  9
$CELTSCALE
 40
1.0
  9
$CELWEIGHT
370
-1
  9
$CLAYER
  8
0
  9
$CELTYPE
  6
ByLayer
  9
$CMLJUST
 70
0
  9
$CMLSCALE
 40
20.0
  9
$CMLSTYLE
  2
Standard
  9
$DIMSTYLE
  2
Standard
  9
$LWDISPLAY
290
0
  9
$EXTNAMES
290
1
  9
$HANDSEED
  5
44
  9
$INSUNITS
 70
0
  9
$LUNITS
 70
2
  9
$LUPREC
 70
4
  9
$LTSCALE
 40
1.0
  9
$MIRRTEXT
 70
0
  9
$INSBASE
 10
0.0
 20
0.0
 30
0.0
  9
$SPLINESEGS
 70
8
  9
$PSLTSCALE
 70
1
  9
$PDMODE
 70
0
  9
$PDSIZE
 40
0.0
  9
$PLINEGEN
 70
0
  9
$TEXTSIZE
 40
0.2
  9
$TEXTSTYLE
  7
Standard
  9
$TDINDWG
 40
0.0
  9
$TDUCREATE
 40
2451545.0416666665114462
  9
$TDUUPDATE
 40
2451545.0416666665114462
  9
$TDUPDATE
 40
2451545.0416666665114462
  9
$ACADVER
  1
AC1018
  0
ENDSEC
  0
SECTION
  2
CLASSES
  0
CLASS
  1
ACDBDICTIONARYWDFLT
  2
AcDbDictionaryWithDefault
  3
ObjectDBX Classes
 90
32768
 91
0
280
0
281
0
  0
CLASS
  1
ACDBPLACEHOLDER
  2
AcDbPlaceHolder
  3
ObjectDBX Classes
 90
0
 91
0
280
0
281
0
  0
CLASS
  1
LAYOUT
  2
AcDbLayout
  3
ObjectDBX Classes
 90
0
 91
0
280
0
281
0
  0
CLASS
  1
DICTIONARYVAR
  2
AcDbDictionaryVar
  3
ObjectDBX Classes
 90
0
 91
0
280
0
281
0
  0
CLASS
  1
TABLESTYLE
  2
AcDbTableStyle
  3
ObjectDBX Classes
 90
4095
 91
0
280
0
281
0
  0
CLASS
  1
MATERIAL
  2
AcDbMaterial
  3
ObjectDBX Classes
 90
1153
 91
0
280
0
281
0
  0
CLASS
  1
VISUALSTYLE
  2
AcDbVisualStyle
  3
ObjectDBX Classes
 90
4095
 91
0
280
0
281
0
  0
CLASS
  1
SCALE
  2
AcDbScale
  3
ObjectDBX Classes
 90
1153
 91
0
280
0
281
0
  0
CLASS
  1
MLEADERSTYLE
  2
AcDbMLeaderStyle
  3
ObjectDBX Classes
 90
4095
 91
0
280
0
281
0
  0
CLASS
  1
CELLSTYLEMAP
  2
AcDbCellStyleMap
  3
ObjectDBX Classes
 90
1152
 91
0
280
0
281
0
  0
CLASS
  1
EXACXREFPANELOBJECT
  2
ExAcXREFPanelObject
  3
ObjectDBX Classes
 90
1025
 91
0
280
0
281
0
  0
CLASS
  1
NPOCOLLECTION
  2
AcDbImpNonPersistentObjectsCollection
  3
ObjectDBX Classes
 90
1153
 91
0
280
0
281
0
  0
CLASS
  1
LAYER_INDEX
  2
AcDbLayerIndex
  3
ObjectDBX Classes
 90
0
 91
0
280
0
281
0
  0
CLASS
  1
SPATIAL_INDEX
  2
AcDbSpatialIndex
  3
ObjectDBX Classes
 90
0
 91
0
280
0
281
0
  0
CLASS
  1
IDBUFFER
  2
AcDbIdBuffer
  3
ObjectDBX Classes
 90
32768
 91
0
280
0
281
0
  0
CLASS
  1
ACDBSECTIONVIEWSTYLE
  2
AcDbSectionViewStyle
  3
ObjectDBX Classes
 90
1025
 91
0
280
0
281
0
  0
CLASS
  1
ACDBDETAILVIEWSTYLE
  2
AcDbDetailViewStyle
  3
ObjectDBX Classes
 90
1025
 91
0
280
0
281
0
  0
CLASS
  1
MESH
  2
AcDbSubDMesh
  3
ObjectDBX Classes
 90
0
 91
0
280
0
281
1
  0
CLASS
  1
SORTENTSTABLE
  2
AcDbSortentsTable
  3
ObjectDBX Classes
 90
0
 91
0
280
0
281
0
  0
CLASS
  1
ACDB_TEXTOBJECTCONTEXTDATA_CLASS
  2
AcDbTextObjectContextData
  3
ObjectDBX Classes
 90
1153
 91
0
280
0
281
0
  0
CLASS
  1
WIPEOUT
  2
AcDbWipeout
  3
WipeOut
 90
32895
 91
0
280
0
281
1
  0
CLASS
  1
WIPEOUTVARIABLES
  2
AcDbWipeoutVariables
  3
WipeOut
 90
32768
 91
0
280
0
281
0
  0
CLASS
  1
DIMASSOC
  2
AcDbDimAssoc
  3
AcDbDimAssoc
 90
0
 91
0
280
0
281
0
  0
CLASS
  1
ACAD_TABLE
  2
AcDbTable
  3
ObjectDBX Classes
 90
1025
 91
0
280
0
281
1
  0
CLASS
  1
TABLECONTENT
  2
AcDbTableContent
  3
ObjectDBX Classes
 90
1152
 91
0
280
0
281
0
  0
CLASS
  1
TABLEGEOMETRY
  2
AcDbTableGeometry
  3
ObjectDBX Classes
 90
1152
 91
0
280
0
281
0
  0
CLASS
  1
IMAGE
  2
AcDbRasterImage
  3
ISM
 90
32895
 91
0
280
0
281
1
  0
CLASS
  1
IMAGEDEF
  2
AcDbRasterImageDef
  3
ISM
 90
0
 91
0
280
0
281
0
  0
CLASS
  1
IMAGEDEF_REACTOR
  2
AcDbRasterImageDefReactor
  3
ISM
 90
1
 91
0
280
0
281
0
  0
CLASS
  1
DBCOLOR
  2
AcDbColor
  3
ObjectDBX Classes
 90
0
 91
0
280
0
281
0
  0
CLASS
  1
GEODATA
  2
AcDbGeoData
  3
ObjectDBX Classes
 90
4095
 91
0
280
0
281
0
  0
CLASS
  1
MULTILEADER
  2
AcDbMLeader
  3
ObjectDBX Classes
 90
1025
 91
0
280
0
281
0
  0
CLASS
  1
PDFUNDERLAY
  2
AcDbPdfReference
  3
ObjectDBX Classes
 90
4095
 91
0
280
0
281
1
  0
CLASS
  1
PDFDEFINITION
  2
AcDbPdfDefinition
  3
ObjectDBX Classes
 90
1153
 91
0
280
0
281
0
  0
CLASS
  1
RASTERVARIABLES
  2
AcDbRasterVariables
  3
ISM
 90
0
 91
0
280
0
281
0
  0
CLASS
  1
SPATIAL_FILTER
  2
AcDbSpatialFilter
  3
ObjectDBX Classes
 90
0
 91
0
280
0
281
0
  0
CLASS
  1
ACDB_MLEADEROBJECTCONTEXTDATA_CLASS
  2
AcDbMLeaderObjectContextData
  3
ObjectDBX Classes
 90
1025
 91
0
280
0
281
0
  0
CLASS
  1
PLOTSETTINGS
  2
AcDbPlotSettings
  3
ObjectDBX Classes
 90
0
 91
0
280
0
281
0
  0
CLASS
  1
FIELD
  2
AcDbField
  3
ObjectDBX Classes
 90
1152
 91
0
280
0
281
0
  0
CLASS
  1
FIELDLIST
  2
AcDbFieldList
  3
ObjectDBX Classes
 90
1152
 91
0
280
0
281
0
  0
CLASS
  1
ACDB_MTEXTATTRIBUTEOBJECTCONTEXTDATA_CLASS
  2
AcDbMTextAttributeObjectContextData
  3
ObjectDBX Classes
 90
1153
 91
0
280
0
281
0
  0
CLASS
  1
ACDB_BLKREFOBJECTCONTEXTDATA_CLASS
  2
AcDbBlkRefObjectContextData
  3
ObjectDBX Classes
 90
1153
 91
0
280
0
281
0
  0
ENDSEC
  0
SECTION
  2
TABLES
  0
TABLE
  2
VPORT
  5
18
330
0
100
AcDbSymbolTable
 70
1
  0
VPORT
  5
26
330
18
100
AcDbSymbolTableRecord
100
AcDbViewportTableRecord
  2
*Active
 70
0
 10
0.0
 20
0.0
 11
1.0
 21
1.0
 12
0.0
 22
0.0
 13
0.0
 23
0.0
 14
0.5
 24
0.5
 15
10.0
 25
10.0
 16
0.0
 26
0.0
 36
1.0
 17
0.0
 27
0.0
 37
0.0
 40
10.0
 41
1.0
 75
0
 76
1
  0
ENDTAB
  0
TABLE
  2
LTYPE
  5
14
330
0
100
AcDbSymbolTable
 70
3
  0
LTYPE
  5
19
330
14
100
AcDbSymbolTableRecord
100
AcDbLinetypeTableRecord
  2
ByLayer
 70
0
 72
0
 73
0
 40
0.0
  0
LTYPE
  5
1A
330
14
100
AcDbSymbolTableRecord
100
AcDbLinetypeTableRecord
  2
ByBlock
 70
0
 72
0
 73
0
 40
0.0
  0
LTYPE
  5
1B
330
14
100
AcDbSymbolTableRecord
100
AcDbLinetypeTableRecord
  2
Continuous
 70
0
 72
0
 73
0
 40
0.0
  0
ENDTAB
  0
TABLE
  2
LAYER
  5
13
330
0
100
AcDbSymbolTable
 70
1
  0
LAYER
  5
1C
330
13
100
AcDbSymbolTableRecord
100
AcDbLayerTableRecord
  2
0
 70
0
 62
7
  6
Continuous
290
1
370
-3
390
0
  0
ENDTAB
  0
TABLE
  2
STYLE
  5
15
330
0
100
AcDbSymbolTable
 70
1
  0
STYLE
  5
23
330
15
100
AcDbSymbolTableRecord
100
AcDbTextStyleTableRecord
  2
Standard
 70
0
 40
0.0
 41
1.0
 42
0.0
 50
0.0
 71
0
  0
ENDTAB
  0
TABLE
  2
VIEW
  5
17
330
0
100
AcDbSymbolTable
 70
0
  0
ENDTAB
  0
TABLE
  2
UCS
  5
16
330
0
100
AcDbSymbolTable
 70
0
  0
ENDTAB
  0
TABLE
  2
APPID
  5
10
330
0
100
AcDbSymbolTable
 70
1
  0
APPID
  5
25
330
10
100
AcDbSymbolTableRecord
100
AcDbRegAppTableRecord
  2
ACAD
 70
0
  0
ENDTAB
  0
TABLE
  2
DIMSTYLE
  5
12
330
0
100
AcDbSymbolTable
 70
1
100
AcDbDimStyleTable
  0
DIMSTYLE
105
24
330
12
100
AcDbSymbolTableRecord
100
AcDbDimStyleTableRecord
  2
Standard
 70
0
  3
<>
  4
[]
 40
1.0
 41
0.18
 42
0.625
 43
3.75
 44
1.25
 45
0.0
 46
0.0
 47
0.0
 48
0.0
 49
1.0
 50
45.0
 70
0
 90
0
140
0.18
141
0.09
142
0.0
143
25.3999999999999986
144
1.0
145
0.0
146
1.0
147
0.625
148
0.0
 71
0
 72
0
 73
0
 74
0
 75
0
 76
0
 77
1
 78
8
 79
0
170
0
171
3
172
0
173
1
174
0
175
0
176
0
177
0
178
0
179
0
271
2
272
2
273
2
274
3
275
0
276
0
277
2
278
46
279
0
280
0
281
0
282
0
283
0
284
8
285
0
286
0
287
0
288
0
289
3
290
0
340
0
371
-2
372
-2
  0
ENDTAB
  0
TABLE
  2
BLOCK_RECORD
  5
11
330
0
100
AcDbSymbolTable
 70
2
  0
BLOCK_RECORD
  5
1D
330
11
100
AcDbSymbolTableRecord
100
AcDbBlockTableRecord
  2
*Model_Space
 70
0
340
0
 70
0
280
0
281
1
  0
BLOCK_RECORD
  5
20
330
11
100
AcDbSymbolTableRecord
100
AcDbBlockTableRecord
  2
*Paper_Space
 70
0
340
0
 70
0
280
0
281
1
  0
ENDTAB
  0
ENDSEC
  0
SECTION
  2
BLOCKS
  0
BLOCK
  5
1E
330
1D
100
AcDbEntity
  8
0
  6
ByLayer
 62
256
 48
1.0
 60
0
 67
0
370
-1
100
AcDbBlockBegin
  2
*Model_Space
 70
0
 10
0.0
 20
0.0
 30
0.0
  3
*Model_Space
  0
ENDBLK
  5
1F
330
1D
100
AcDbEntity
  8
0
100
AcDbBlockEnd
  0
BLOCK
  5
21
330
20
100
AcDbEntity
  8
0
  6
ByLayer
 62
256
 48
1.0
 60
0
 67
1
370
-1
100
AcDbBlockBegin
  2
*Paper_Space
 70
0
 10
0.0
 20
0.0
 30
0.0
  3
*Paper_Space
  0
ENDBLK
  5
22
330
20
100
AcDbEntity
  8
0
100
AcDbBlockEnd
  0
ENDSEC
  0
SECTION
  2
ENTITIES
  0
HATCH
  5
27
330
1D
100
AcDbEntity
  8
0
  6
ByLayer
420
8316671
 48
1.0
 60
0
 67
0
370
-1
100
AcDbHatch
 30
0.0
210
0.0
220
0.0
230
1.0
  2
SOLID
 70
1
 71
0
 91
1
 92
2
 72
0
 73
1
 93
4
 10
0.0
 20
720.0
 10
1280.0
 20
720.0
 10
1280.0
 20
0.0
 10
0.0
 20
0.0
 97
0
 75
0
 76
1
 47
0.0
 98
0
  0
LWPOLYLINE
  5
28
330
1D
100
AcDbEntity
  8
0
  6
ByLayer
420
8316671
 48
1.0
 60
0
 67
0
370
-1
100
AcDbPolyline
 90
4
 70
1
 43
0.0
 38
0.0
 39
0.0
210
0.0
220
0.0
230
1.0
 10
0.0
 20
720.0
 40
0.0
 41
0.0
 42
0.0
 10
1280.0
 20
720.0
 40
0.0
 41
0.0
 42
0.0
 10
1280.0
 20
0.0
 40
0.0
 41
0.0
 42
0.0
 10
0.0
 20
0.0
 40
0.0
 41
0.0
 42
0.0
  0
HATCH
  5
29
330
1D
100
AcDbEntity
  8
0
  6
ByLayer
420
725552
 48
1.0
 60
0
 67
0
370
-1
100
AcDbHatch
 30
0.0
210
0.0
220
0.0
230
1.0
  2
SOLID
 70
1
 71
0
 91
1
 92
2
 72
0
 73
1
 93
41
 10
186.0
 20
637.0
 10
1094.0
 20
637.0
 10
1094.0
 20
637.0
 10
1101.0232515925806638
 20
636.3082700945162742
 10
1107.7766035651432048
 20
634.2596631704063839
 10
1114.0005283887057885
 20
630.9329060428916591
 10
1119.4558441227156891
 20
626.4558441227156891
 10
1123.9329060428915454
 20
621.0005283887056748
 10
1127.2596631704063839
 20
614.7766035651432048
 10
1129.3082700945162742
 20
608.0232515925806638
 10
1130.0
 20
601.0
 10
1130.0
 20
120.0
 10
1130.0
 20
120.0
 10
1129.3082700945162742
 20
112.9767484074193362
 10
1127.2596631704063839
 20
106.2233964348567952
 10
1123.9329060428915454
 20
99.9994716112943252
 10
1119.4558441227156891
 20
94.5441558772843109
 10
1114.0005283887057885
 20
90.0670939571083409
 10
1107.7766035651432048
 20
86.7403368295937298
 10
1101.0232515925806638
 20
84.6917299054837258
 10
1094.0
 20
84.0
 10
186.0
 20
84.0
 10
186.0
 20
84.0
 10
178.9767484074193931
 20
84.6917299054837258
 10
172.2233964348567667
 20
86.7403368295937298
 10
165.9994716112943252
 20
90.0670939571083409
 10
160.5441558772842825
 20
94.5441558772843109
 10
156.0670939571083693
 20
99.9994716112943252
 10
152.740336829593673
 20
106.2233964348567952
 10
150.6917299054836974
 20
112.9767484074193362
 10
150.0
 20
120.0
 10
150.0
 20
601.0
 10
150.0
 20
601.0
 10
150.6917299054836974
 20
608.0232515925806638
 10
152.740336829593673
 20
614.7766035651432048
 10
156.0670939571083693
 20
621.0005283887056748
 10
160.5441558772842825
 20
626.4558441227156891
 10
165.9994716112943252
 20
630.9329060428916591
 10
172.2233964348567383
 20
634.2596631704062702
 10
178.9767484074193646
 20
636.3082700945162742
 10
186.0
 20
637.0
 97
0
 75
0
 76
1
 47
0.0
 98
0
  0
LWPOLYLINE
  5
2A
330
1D
100
AcDbEntity
  8
0
  6
ByLayer
420
10993151
 48
1.0
 60
0
 67
0
370
-1
100
AcDbPolyline
 90
41
 70
1
 43
0.0
 38
0.0
 39
0.0
210
0.0
220
0.0
230
1.0
 10
186.0
 20
637.0
 40
0.0
 41
0.0
 42
0.0
 10
1094.0
 20
637.0
 40
0.0
 41
0.0
 42
0.0
 10
1094.0
 20
637.0
 40
0.0
 41
0.0
 42
0.0
 10
1101.0232515925806638
 20
636.3082700945162742
 40
0.0
 41
0.0
 42
0.0
 10
1107.7766035651432048
 20
634.2596631704063839
 40
0.0
 41
0.0
 42
0.0
 10
1114.0005283887057885
 20
630.9329060428916591
 40
0.0
 41
0.0
 42
0.0
 10
1119.4558441227156891
 20
626.4558441227156891
 40
0.0
 41
0.0
 42
0.0
 10
1123.9329060428915454
 20
621.0005283887056748
 40
0.0
 41
0.0
 42
0.0
 10
1127.2596631704063839
 20
614.7766035651432048
 40
0.0
 41
0.0
 42
0.0
 10
1129.3082700945162742
 20
608.0232515925806638
 40
0.0
 41
0.0
 42
0.0
 10
1130.0
 20
601.0
 40
0.0
 41
0.0
 42
0.0
 10
1130.0
 20
120.0
 40
0.0
 41
0.0
 42
0.0
 10
1130.0
 20
120.0
 40
0.0
 41
0.0
 42
0.0
 10
1129.3082700945162742
 20
112.9767484074193362
 40
0.0
 41
0.0
 42
0.0
 10
1127.2596631704063839
 20
106.2233964348567952
 40
0.0
 41
0.0
 42
0.0
 10
1123.9329060428915454
 20
99.9994716112943252
 40
0.0
 41
0.0
 42
0.0
 10
1119.4558441227156891
 20
94.5441558772843109
 40
0.0
 41
0.0
 42
0.0
 10
1114.0005283887057885
 20
90.0670939571083409
 40
0.0
 41
0.0
 42
0.0
 10
1107.7766035651432048
 20
86.7403368295937298
 40
0.0
 41
0.0
 42
0.0
 10
1101.0232515925806638
 20
84.6917299054837258
 40
0.0
 41
0.0
 42
0.0
 10
1094.0
 20
84.0
 40
0.0
 41
0.0
 42
0.0
 10
186.0
 20
84.0
 40
0.0
 41
0.0
 42
0.0
 10
186.0
 20
84.0
 40
0.0
 41
0.0
 42
0.0
 10
178.9767484074193931
 20
84.6917299054837258
 40
0.0
 41
0.0
 42
0.0
 10
172.2233964348567667
 20
86.7403368295937298
 40
0.0
 41
0.0
 42
0.0
 10
165.9994716112943252
 20
90.0670939571083409
 40
0.0
 41
0.0
 42
0.0
 10
160.5441558772842825
 20
94.5441558772843109
 40
0.0
 41
0.0
 42
0.0
 10
156.0670939571083693
 20
99.9994716112943252
 40
0.0
 41
0.0
 42
0.0
 10
152.740336829593673
 20
106.2233964348567952
 40
0.0
 41
0.0
 42
0.0
 10
150.6917299054836974
 20
112.9767484074193362
 40
0.0
 41
0.0
 42
0.0
 10
150.0
 20
120.0
 40
0.0
 41
0.0
 42
0.0
 10
150.0
 20
601.0
 40
0.0
 41
0.0
 42
0.0
 10
150.0
 20
601.0
 40
0.0
 41
0.0
 42
0.0
 10
150.6917299054836974
 20
608.0232515925806638
 40
0.0
 41
0.0
 42
0.0
 10
152.740336829593673
 20
614.7766035651432048
 40
0.0
 41
0.0
 42
0.0
 10
156.0670939571083693
 20
621.0005283887056748
 40
0.0
 41
0.0
 42
0.0
 10
160.5441558772842825
 20
626.4558441227156891
 40
0.0
 41
0.0
 42
0.0
 10
165.9994716112943252
 20
630.9329060428916591
 40
0.0
 41
0.0
 42
0.0
 10
172.2233964348567383
 20
634.2596631704062702
 40
0.0
 41
0.0
 42
0.0
 10
178.9767484074193646
 20
636.3082700945162742
 40
0.0
 41
0.0
 42
0.0
 10
186.0
 20
637.0
 40
0.0
 41
0.0
 42
0.0
  0
HATCH
  5
2B
330
1D
100
AcDbEntity
  8
0
  6
ByLayer
420
8316671
 48
1.0
 60
0
 67
0
370
-1
100
AcDbHatch
 30
0.0
210
0.0
220
0.0
230
1.0
  2
SOLID
 70
1
 71
0
 91
1
 92
2
 72
0
 73
1
 93
41
 10
201.0
 20
756.0
 10
201.0
 20
756.0
 10
201.0
 20
756.0
 10
226.361741862096693
 20
753.5020864524199169
 10
250.7488462074616677
 20
746.104339226467232
 10
273.2241302925482955
 20
734.0910495993308587
 10
292.9238815542511816
 20
717.9238815542511247
 10
309.0910495993308587
 20
698.2241302925482387
 10
321.1043392264672889
 20
675.7488462074617246
 10
328.5020864524199737
 20
651.3617418620966646
 10
331.0
 20
626.0
 10
331.0
 20
626.0
 10
331.0
 20
626.0
 10
328.5020864524199737
 20
600.6382581379033354
 10
321.1043392264672889
 20
576.2511537925383891
 10
309.0910495993308587
 20
553.7758697074516476
 10
292.9238815542511816
 20
534.0761184457487616
 10
273.2241302925482955
 20
517.9089504006691413
 10
250.7488462074616677
 20
505.8956607735327111
 10
226.361741862096693
 20
498.4979135475800263
 10
201.0
 20
496.0
 10
201.0
 20
496.0
 10
201.0
 20
496.0
 10
175.6382581379033354
 20
498.4979135475800263
 10
151.2511537925383323
 20
505.8956607735327111
 10
128.7758697074517613
 20
517.9089504006690277
 10
109.0761184457488326
 20
534.0761184457487616
 10
92.9089504006690987
 20
553.7758697074516476
 10
80.8956607735327253
 20
576.2511537925382754
 10
73.4979135475800405
 20
600.6382581379032217
 10
71.0
 20
626.0
 10
71.0
 20
626.0
 10
71.0
 20
626.0
 10
73.4979135475800405
 20
651.3617418620966646
 10
80.8956607735327111
 20
675.7488462074616109
 10
92.9089504006690845
 20
698.2241302925482387
 10
109.0761184457488042
 20
717.9238815542511247
 10
128.7758697074517045
 20
734.0910495993308587
 10
151.251153792538247
 20
746.104339226467232
 10
175.6382581379032786
 20
753.5020864524199169
 10
200.9999999999999716
 20
756.0
 97
0
 75
0
 76
1
 47
0.0
 98
0
  0
LWPOLYLINE
  5
2C
330
1D
100
AcDbEntity
  8
0
  6
ByLayer
420
8316671
 48
1.0
 60
0
 67
0
370
-1
100
AcDbPolyline
 90
41
 70
1
 43
0.0
 38
0.0
 39
0.0
210
0.0
220
0.0
230
1.0
 10
201.0
 20
756.0
 40
0.0
 41
0.0
 42
0.0
 10
201.0
 20
756.0
 40
0.0
 41
0.0
 42
0.0
 10
201.0
 20
756.0
 40
0.0
 41
0.0
 42
0.0
 10
226.361741862096693
 20
753.5020864524199169
 40
0.0
 41
0.0
 42
0.0
 10
250.7488462074616677
 20
746.104339226467232
 40
0.0
 41
0.0
 42
0.0
 10
273.2241302925482955
 20
734.0910495993308587
 40
0.0
 41
0.0
 42
0.0
 10
292.9238815542511816
 20
717.9238815542511247
 40
0.0
 41
0.0
 42
0.0
 10
309.0910495993308587
 20
698.2241302925482387
 40
0.0
 41
0.0
 42
0.0
 10
321.1043392264672889
 20
675.7488462074617246
 40
0.0
 41
0.0
 42
0.0
 10
328.5020864524199737
 20
651.3617418620966646
 40
0.0
 41
0.0
 42
0.0
 10
331.0
 20
626.0
 40
0.0
 41
0.0
 42
0.0
 10
331.0
 20
626.0
 40
0.0
 41
0.0
 42
0.0
 10
331.0
 20
626.0
 40
0.0
 41
0.0
 42
0.0
 10
328.5020864524199737
 20
600.6382581379033354
 40
0.0
 41
0.0
 42
0.0
 10
321.1043392264672889
 20
576.2511537925383891
 40
0.0
 41
0.0
 42
0.0
 10
309.0910495993308587
 20
553.7758697074516476
 40
0.0
 41
0.0
 42
0.0
 10
292.9238815542511816
 20
534.0761184457487616
 40
0.0
 41
0.0
 42
0.0
 10
273.2241302925482955
 20
517.9089504006691413
 40
0.0
 41
0.0
 42
0.0
 10
250.7488462074616677
 20
505.8956607735327111
 40
0.0
 41
0.0
 42
0.0
 10
226.361741862096693
 20
498.4979135475800263
 40
0.0
 41
0.0
 42
0.0
 10
201.0
 20
496.0
 40
0.0
 41
0.0
 42
0.0
 10
201.0
 20
496.0
 40
0.0
 41
0.0
 42
0.0
 10
201.0
 20
496.0
 40
0.0
 41
0.0
 42
0.0
 10
175.6382581379033354
 20
498.4979135475800263
 40
0.0
 41
0.0
 42
0.0
 10
151.2511537925383323
 20
505.8956607735327111
 40
0.0
 41
0.0
 42
0.0
 10
128.7758697074517613
 20
517.9089504006690277
 40
0.0
 41
0.0
 42
0.0
 10
109.0761184457488326
 20
534.0761184457487616
 40
0.0
 41
0.0
 42
0.0
 10
92.9089504006690987
 20
553.7758697074516476
 40
0.0
 41
0.0
 42
0.0
 10
80.8956607735327253
 20
576.2511537925382754
 40
0.0
 41
0.0
 42
0.0
 10
73.4979135475800405
 20
600.6382581379032217
 40
0.0
 41
0.0
 42
0.0
 10
71.0
 20
626.0
 40
0.0
 41
0.0
 42
0.0
 10
71.0
 20
626.0
 40
0.0
 41
0.0
 42
0.0
 10
71.0
 20
626.0
 40
0.0
 41
0.0
 42
0.0
 10
73.4979135475800405
 20
651.3617418620966646
 40
0.0
 41
0.0
 42
0.0
 10
80.8956607735327111
 20
675.7488462074616109
 40
0.0
 41
0.0
 42
0.0
 10
92.9089504006690845
 20
698.2241302925482387
 40
0.0
 41
0.0
 42
0.0
 10
109.0761184457488042
 20
717.9238815542511247
 40
0.0
 41
0.0
 42
0.0
 10
128.7758697074517045
 20
734.0910495993308587
 40
0.0
 41
0.0
 42
0.0
 10
151.251153792538247
 20
746.104339226467232
 40
0.0
 41
0.0
 42
0.0
 10
175.6382581379032786
 20
753.5020864524199169
 40
0.0
 41
0.0
 42
0.0
 10
200.9999999999999716
 20
756.0
 40
0.0
 41
0.0
 42
0.0
  0
HATCH
  5
2D
330
1D
100
AcDbEntity
  8
0
  6
ByLayer
420
7110143
 48
1.0
 60
0
 67
0
370
-1
100
AcDbHatch
 30
0.0
210
0.0
220
0.0
230
1.0
  2
SOLID
 70
1
 71
0
 91
1
 92
2
 72
0
 73
1
 93
41
 10
1049.0
 20
295.0
 10
1049.0
 20
295.0
 10
1049.0
 20
295.0
 10
1080.2144515225804753
 20
291.9256448645168689
 10
1110.2293491784143953
 20
282.8207252018058853
 10
1137.8912372831364337
 20
268.0351379684072413
 10
1162.1370849898476081
 20
248.1370849898476081
 10
1182.0351379684072981
 20
223.89123728313632
 10
1196.8207252018059989
 20
196.2293491784143953
 10
1205.9256448645169257
 20
166.2144515225804753
 10
1209.0
 20
135.0
 10
1209.0
 20
135.0
 10
1209.0
 20
135.0
 10
1205.9256448645169257
 20
103.7855484774195247
 10
1196.8207252018059989
 20
73.7706508215856047
 10
1182.0351379684072981
 20
46.10876271686368
 10
1162.1370849898476081
 20
21.8629150101523919
 10
1137.8912372831364337
 20
1.9648620315927019
 10
1110.2293491784143953
 20
-12.8207252018058853
 10
1080.2144515225804753
 20
-21.9256448645169257
 10
1049.0
 20
-25.0
 10
1049.0
 20
-25.0
 10
1049.0
 20
-25.0
 10
1017.7855484774195247
 20
-21.9256448645169257
 10
987.7706508215856047
 20
-12.8207252018058853
 10
960.10876271686368
 20
1.9648620315927019
 10
935.8629150101523919
 20
21.8629150101523919
 10
915.9648620315927019
 20
46.10876271686368
 10
901.1792747981941147
 20
73.7706508215856047
 10
892.0743551354830743
 20
103.785548477419411
 10
889.0
 20
135.0
 10
889.0
 20
135.0
 10
889.0
 20
135.0
 10
892.0743551354830743
 20
166.214451522580589
 10
901.1792747981941147
 20
196.2293491784143953
 10
915.9648620315927019
 20
223.89123728313632
 10
935.8629150101523919
 20
248.1370849898476081
 10
960.10876271686368
 20
268.0351379684072413
 10
987.7706508215856047
 20
282.8207252018058284
 10
1017.785548477419411
 20
291.925644864516812
 10
1049.0
 20
295.0
 97
0
 75
0
 76
1
 47
0.0
 98
0
  0
LWPOLYLINE
  5
2E
330
1D
100
AcDbEntity
  8
0
  6
ByLayer
420
7110143
 48
1.0
 60
0
 67
0
370
-1
100
AcDbPolyline
 90
41
 70
1
 43
0.0
 38
0.0
 39
0.0
210
0.0
220
0.0
230
1.0
 10
1049.0
 20
295.0
 40
0.0
 41
0.0
 42
0.0
 10
1049.0
 20
295.0
 40
0.0
 41
0.0
 42
0.0
 10
1049.0
 20
295.0
 40
0.0
 41
0.0
 42
0.0
 10
1080.2144515225804753
 20
291.9256448645168689
 40
0.0
 41
0.0
 42
0.0
 10
1110.2293491784143953
 20
282.8207252018058853
 40
0.0
 41
0.0
 42
0.0
 10
1137.8912372831364337
 20
268.0351379684072413
 40
0.0
 41
0.0
 42
0.0
 10
1162.1370849898476081
 20
248.1370849898476081
 40
0.0
 41
0.0
 42
0.0
 10
1182.0351379684072981
 20
223.89123728313632
 40
0.0
 41
0.0
 42
0.0
 10
1196.8207252018059989
 20
196.2293491784143953
 40
0.0
 41
0.0
 42
0.0
 10
1205.9256448645169257
 20
166.2144515225804753
 40
0.0
 41
0.0
 42
0.0
 10
1209.0
 20
135.0
 40
0.0
 41
0.0
 42
0.0
 10
1209.0
 20
135.0
 40
0.0
 41
0.0
 42
0.0
 10
1209.0
 20
135.0
 40
0.0
 41
0.0
 42
0.0
 10
1205.9256448645169257
 20
103.7855484774195247
 40
0.0
 41
0.0
 42
0.0
 10
1196.8207252018059989
 20
73.7706508215856047
 40
0.0
 41
0.0
 42
0.0
 10
1182.0351379684072981
 20
46.10876271686368
 40
0.0
 41
0.0
 42
0.0
 10
1162.1370849898476081
 20
21.8629150101523919
 40
0.0
 41
0.0
 42
0.0
 10
1137.8912372831364337
 20
1.9648620315927019
 40
0.0
 41
0.0
 42
0.0
 10
1110.2293491784143953
 20
-12.8207252018058853
 40
0.0
 41
0.0
 42
0.0
 10
1080.2144515225804753
 20
-21.9256448645169257
 40
0.0
 41
0.0
 42
0.0
 10
1049.0
 20
-25.0
 40
0.0
 41
0.0
 42
0.0
 10
1049.0
 20
-25.0
 40
0.0
 41
0.0
 42
0.0
 10
1049.0
 20
-25.0
 40
0.0
 41
0.0
 42
0.0
 10
1017.7855484774195247
 20
-21.9256448645169257
 40
0.0
 41
0.0
 42
0.0
 10
987.7706508215856047
 20
-12.8207252018058853
 40
0.0
 41
0.0
 42
0.0
 10
960.10876271686368
 20
1.9648620315927019
 40
0.0
 41
0.0
 42
0.0
 10
935.8629150101523919
 20
21.8629150101523919
 40
0.0
 41
0.0
 42
0.0
 10
915.9648620315927019
 20
46.10876271686368
 40
0.0
 41
0.0
 42
0.0
 10
901.1792747981941147
 20
73.7706508215856047
 40
0.0
 41
0.0
 42
0.0
 10
892.0743551354830743
 20
103.785548477419411
 40
0.0
 41
0.0
 42
0.0
 10
889.0
 20
135.0
 40
0.0
 41
0.0
 42
0.0
 10
889.0
 20
135.0
 40
0.0
 41
0.0
 42
0.0
 10
889.0
 20
135.0
 40
0.0
 41
0.0
 42
0.0
 10
892.0743551354830743
 20
166.214451522580589
 40
0.0
 41
0.0
 42
0.0
 10
901.1792747981941147
 20
196.2293491784143953
 40
0.0
 41
0.0
 42
0.0
 10
915.9648620315927019
 20
223.89123728313632
 40
0.0
 41
0.0
 42
0.0
 10
935.8629150101523919
 20
248.1370849898476081
 40
0.0
 41
0.0
 42
0.0
 10
960.10876271686368
 20
268.0351379684072413
 40
0.0
 41
0.0
 42
0.0
 10
987.7706508215856047
 20
282.8207252018058284
 40
0.0
 41
0.0
 42
0.0
 10
1017.785548477419411
 20
291.925644864516812
 40
0.0
 41
0.0
 42
0.0
 10
1049.0
 20
295.0
 40
0.0
 41
0.0
 42
0.0
  0
TEXT
  5
2F
330
1D
100
AcDbEntity
  8
0
  6
ByLayer
420
8316671
 48
1.0
 60
0
 67
0
370
-1
100
AcDbText
 39
0.0
 10
207.0
 20
567.5625
 30
0.0
 40
12.0
  1
GITHUB-STYLE GLOW
 50
0.0
 41
1.0
 51
0.0
  7
Standard
 71
0
 72
0
 11
0.0
 21
0.0
 31
0.0
210
0.0
220
0.0
230
1.0
100
AcDbText
 73
0
  0
TEXT
  5
30
330
1D
100
AcDbEntity
  8
0
  6
ByLayer
420
16054271
 48
1.0
 60
0
 67
0
370
-1
100
AcDbText
 39
0.0
 10
207.0
 20
508.875
 30
0.0
 40
52.0
  1
Blur a duplicated
 50
0.0
 41
1.0
 51
0.0
  7
Standard
 71
0
 72
0
 11
0.0
 21
0.0
 31
0.0
210
0.0
220
0.0
230
1.0
100
AcDbText
 73
0
  0
TEXT
  5
31
330
1D
100
AcDbEntity
  8
0
  6
ByLayer
420
16054271
 48
1.0
 60
0
 67
0
370
-1
100
AcDbText
 39
0.0
 10
207.0
 20
458.96875
 30
0.0
 40
52.0
  1
internal image,
 50
0.0
 41
1.0
 51
0.0
  7
Standard
 71
0
 72
0
 11
0.0
 21
0.0
 31
0.0
210
0.0
220
0.0
230
1.0
100
AcDbText
 73
0
  0
TEXT
  5
32
330
1D
100
AcDbEntity
  8
0
  6
ByLayer
420
16054271
 48
1.0
 60
0
 67
0
370
-1
100
AcDbText
 39
0.0
 10
207.0
 20
409.0625
 30
0.0
 40
52.0
  1
not a colored
 50
0.0
 41
1.0
 51
0.0
  7
Standard
 71
0
 72
0
 11
0.0
 21
0.0
 31
0.0
210
0.0
220
0.0
230
1.0
100
AcDbText
 73
0
  0
TEXT
  5
33
330
1D
100
AcDbEntity
  8
0
  6
ByLayer
420
16054271
 48
1.0
 60
0
 67
0
370
-1
100
AcDbText
 39
0.0
 10
207.0
 20
359.15625
 30
0.0
 40
52.0
  1
rectangle.
 50
0.0
 41
1.0
 51
0.0
  7
Standard
 71
0
 72
0
 11
0.0
 21
0.0
 31
0.0
210
0.0
220
0.0
230
1.0
100
AcDbText
 73
0
  0
TEXT
  5
34
330
1D
100
AcDbEntity
  8
0
  6
ByLayer
420
14937087
 48
1.0
 60
0
 67
0
370
-1
100
AcDbText
 39
0.0
 10
207.0
 20
313.5
 30
0.0
 40
17.0
  1
This page isolates the glow treatment
 50
0.0
 41
1.0
 51
0.0
  7
Standard
 71
0
 72
0
 11
0.0
 21
0.0
 31
0.0
210
0.0
220
0.0
230
1.0
100
AcDbText
 73
0
  0
TEXT
  5
35
330
1D
100
AcDbEntity
  8
0
  6
ByLayer
420
14937087
 48
1.0
 60
0
 67
0
370
-1
100
AcDbText
 39
0.0
 10
207.0
 20
286.3125
 30
0.0
 40
17.0
  1
from the live GitHub export: the same
 50
0.0
 41
1.0
 51
0.0
  7
Standard
 71
0
 72
0
 11
0.0
 21
0.0
 31
0.0
210
0.0
220
0.0
230
1.0
100
AcDbText
 73
0
  0
TEXT
  5
36
330
1D
100
AcDbEntity
  8
0
  6
ByLayer
420
14937087
 48
1.0
 60
0
 67
0
370
-1
100
AcDbText
 39
0.0
 10
207.0
 20
259.125
 30
0.0
 40
17.0
  1
embedded image is rendered once
 50
0.0
 41
1.0
 51
0.0
  7
Standard
 71
0
 72
0
 11
0.0
 21
0.0
 31
0.0
210
0.0
220
0.0
230
1.0
100
AcDbText
 73
0
  0
TEXT
  5
37
330
1D
100
AcDbEntity
  8
0
  6
ByLayer
420
14937087
 48
1.0
 60
0
 67
0
370
-1
100
AcDbText
 39
0.0
 10
207.0
 20
231.9375
 30
0.0
 40
17.0
  1
sharply and once as a blurred, blended
 50
0.0
 41
1.0
 51
0.0
  7
Standard
 71
0
 72
0
 11
0.0
 21
0.0
 31
0.0
210
0.0
220
0.0
230
1.0
100
AcDbText
 73
0
  0
TEXT
  5
38
330
1D
100
AcDbEntity
  8
0
  6
ByLayer
420
14937087
 48
1.0
 60
0
 67
0
370
-1
100
AcDbText
 39
0.0
 10
207.0
 20
204.75
 30
0.0
 40
17.0
  1
halo so PNG, SVG, PDF, and HTML output
 50
0.0
 41
1.0
 51
0.0
  7
Standard
 71
0
 72
0
 11
0.0
 21
0.0
 31
0.0
210
0.0
220
0.0
230
1.0
100
AcDbText
 73
0
  0
TEXT
  5
39
330
1D
100
AcDbEntity
  8
0
  6
ByLayer
420
14937087
 48
1.0
 60
0
 67
0
370
-1
100
AcDbText
 39
0.0
 10
207.0
 20
177.5625
 30
0.0
 40
17.0
  1
can be compared without the rest of the
 50
0.0
 41
1.0
 51
0.0
  7
Standard
 71
0
 72
0
 11
0.0
 21
0.0
 31
0.0
210
0.0
220
0.0
230
1.0
100
AcDbText
 73
0
  0
TEXT
  5
3A
330
1D
100
AcDbEntity
  8
0
  6
ByLayer
420
14937087
 48
1.0
 60
0
 67
0
370
-1
100
AcDbText
 39
0.0
 10
207.0
 20
150.375
 30
0.0
 40
17.0
  1
site.
 50
0.0
 41
1.0
 51
0.0
  7
Standard
 71
0
 72
0
 11
0.0
 21
0.0
 31
0.0
210
0.0
220
0.0
230
1.0
100
AcDbText
 73
0
  0
HATCH
  5
3B
330
1D
100
AcDbEntity
  8
0
  6
ByLayer
420
8316671
 48
1.0
 60
0
 67
0
370
-1
100
AcDbHatch
 30
0.0
210
0.0
220
0.0
230
1.0
  2
SOLID
 70
1
 71
0
 91
1
 92
2
 72
0
 73
1
 93
41
 10
752.0
 20
522.0
 10
752.0
 20
522.0
 10
752.0
 20
522.0
 10
766.6317741512095836
 20
520.5588960302422947
 10
780.7012574273817336
 20
516.2909649383465194
 10
793.6677674764702033
 20
509.3602209226909281
 10
805.0330085889910379
 20
500.0330085889910379
 10
814.3602209226909281
 20
488.6677674764701464
 10
821.2909649383465194
 20
475.7012574273817336
 10
825.5588960302422947
 20
461.6317741512096404
 10
827.0
 20
447.0
 10
827.0
 20
447.0
 10
827.0
 20
447.0
 10
825.5588960302422947
 20
432.3682258487903596
 10
821.2909649383465194
 20
418.2987425726182664
 10
814.3602209226909281
 20
405.3322325235298536
 10
805.0330085889910379
 20
393.9669914110089621
 10
793.6677674764702033
 20
384.6397790773091288
 10
780.7012574273817336
 20
377.7090350616534806
 10
766.6317741512095836
 20
373.4411039697577053
 10
752.0
 20
372.0
 10
752.0
 20
372.0
 10
752.0
 20
372.0
 10
737.3682258487904164
 20
373.4411039697577053
 10
723.2987425726182664
 20
377.7090350616534806
 10
710.3322325235299104
 20
384.6397790773090719
 10
698.9669914110089621
 20
393.9669914110089621
 10
689.6397790773090719
 20
405.3322325235298536
 10
682.7090350616534806
 20
418.2987425726182664
 10
678.4411039697577053
 20
432.3682258487903596
 10
677.0
 20
447.0
 10
677.0
 20
447.0
 10
677.0
 20
447.0
 10
678.4411039697577053
 20
461.6317741512096404
 10
682.7090350616534806
 20
475.7012574273817336
 10
689.6397790773090719
 20
488.6677674764701464
 10
698.9669914110089621
 20
500.0330085889910379
 10
710.3322325235297967
 20
509.3602209226909281
 10
723.2987425726182664
 20
516.2909649383465194
 10
737.3682258487903027
 20
520.5588960302422947
 10
752.0
 20
522.0
 97
0
 75
0
 76
1
 47
0.0
 98
0
  0
LWPOLYLINE
  5
3C
330
1D
100
AcDbEntity
  8
0
  6
ByLayer
420
8316671
 48
1.0
 60
0
 67
0
370
-1
100
AcDbPolyline
 90
41
 70
1
 43
0.0
 38
0.0
 39
0.0
210
0.0
220
0.0
230
1.0
 10
752.0
 20
522.0
 40
0.0
 41
0.0
 42
0.0
 10
752.0
 20
522.0
 40
0.0
 41
0.0
 42
0.0
 10
752.0
 20
522.0
 40
0.0
 41
0.0
 42
0.0
 10
766.6317741512095836
 20
520.5588960302422947
 40
0.0
 41
0.0
 42
0.0
 10
780.7012574273817336
 20
516.2909649383465194
 40
0.0
 41
0.0
 42
0.0
 10
793.6677674764702033
 20
509.3602209226909281
 40
0.0
 41
0.0
 42
0.0
 10
805.0330085889910379
 20
500.0330085889910379
 40
0.0
 41
0.0
 42
0.0
 10
814.3602209226909281
 20
488.6677674764701464
 40
0.0
 41
0.0
 42
0.0
 10
821.2909649383465194
 20
475.7012574273817336
 40
0.0
 41
0.0
 42
0.0
 10
825.5588960302422947
 20
461.6317741512096404
 40
0.0
 41
0.0
 42
0.0
 10
827.0
 20
447.0
 40
0.0
 41
0.0
 42
0.0
 10
827.0
 20
447.0
 40
0.0
 41
0.0
 42
0.0
 10
827.0
 20
447.0
 40
0.0
 41
0.0
 42
0.0
 10
825.5588960302422947
 20
432.3682258487903596
 40
0.0
 41
0.0
 42
0.0
 10
821.2909649383465194
 20
418.2987425726182664
 40
0.0
 41
0.0
 42
0.0
 10
814.3602209226909281
 20
405.3322325235298536
 40
0.0
 41
0.0
 42
0.0
 10
805.0330085889910379
 20
393.9669914110089621
 40
0.0
 41
0.0
 42
0.0
 10
793.6677674764702033
 20
384.6397790773091288
 40
0.0
 41
0.0
 42
0.0
 10
780.7012574273817336
 20
377.7090350616534806
 40
0.0
 41
0.0
 42
0.0
 10
766.6317741512095836
 20
373.4411039697577053
 40
0.0
 41
0.0
 42
0.0
 10
752.0
 20
372.0
 40
0.0
 41
0.0
 42
0.0
 10
752.0
 20
372.0
 40
0.0
 41
0.0
 42
0.0
 10
752.0
 20
372.0
 40
0.0
 41
0.0
 42
0.0
 10
737.3682258487904164
 20
373.4411039697577053
 40
0.0
 41
0.0
 42
0.0
 10
723.2987425726182664
 20
377.7090350616534806
 40
0.0
 41
0.0
 42
0.0
 10
710.3322325235299104
 20
384.6397790773090719
 40
0.0
 41
0.0
 42
0.0
 10
698.9669914110089621
 20
393.9669914110089621
 40
0.0
 41
0.0
 42
0.0
 10
689.6397790773090719
 20
405.3322325235298536
 40
0.0
 41
0.0
 42
0.0
 10
682.7090350616534806
 20
418.2987425726182664
 40
0.0
 41
0.0
 42
0.0
 10
678.4411039697577053
 20
432.3682258487903596
 40
0.0
 41
0.0
 42
0.0
 10
677.0
 20
447.0
 40
0.0
 41
0.0
 42
0.0
 10
677.0
 20
447.0
 40
0.0
 41
0.0
 42
0.0
 10
677.0
 20
447.0
 40
0.0
 41
0.0
 42
0.0
 10
678.4411039697577053
 20
461.6317741512096404
 40
0.0
 41
0.0
 42
0.0
 10
682.7090350616534806
 20
475.7012574273817336
 40
0.0
 41
0.0
 42
0.0
 10
689.6397790773090719
 20
488.6677674764701464
 40
0.0
 41
0.0
 42
0.0
 10
698.9669914110089621
 20
500.0330085889910379
 40
0.0
 41
0.0
 42
0.0
 10
710.3322325235297967
 20
509.3602209226909281
 40
0.0
 41
0.0
 42
0.0
 10
723.2987425726182664
 20
516.2909649383465194
 40
0.0
 41
0.0
 42
0.0
 10
737.3682258487903027
 20
520.5588960302422947
 40
0.0
 41
0.0
 42
0.0
 10
752.0
 20
522.0
 40
0.0
 41
0.0
 42
0.0
  0
HATCH
  5
3D
330
1D
100
AcDbEntity
  8
0
  6
ByLayer
420
7110143
 48
1.0
 60
0
 67
0
370
-1
100
AcDbHatch
 30
0.0
210
0.0
220
0.0
230
1.0
  2
SOLID
 70
1
 71
0
 91
1
 92
2
 72
0
 73
1
 93
41
 10
979.0
 20
372.0
 10
979.0
 20
372.0
 10
979.0
 20
372.0
 10
996.5581289814515458
 20
370.2706752362907423
 10
1013.4415089128581258
 20
365.1491579260157891
 10
1029.001320971764244
 20
356.832265107229091
 10
1042.6396103067893364
 20
345.6396103067892795
 10
1053.8322651072289773
 20
332.0013209717641871
 10
1062.1491579260157323
 20
316.4415089128580689
 10
1067.2706752362907991
 20
299.5581289814515458
 10
1069.0
 20
282.0
 10
1069.0
 20
282.0
 10
1069.0
 20
282.0
 10
1067.2706752362907991
 20
264.4418710185484542
 10
1062.1491579260157323
 20
247.5584910871419311
 10
1053.8322651072289773
 20
231.9986790282358129
 10
1042.6396103067893364
 20
218.3603896932107205
 10
1029.001320971764244
 20
207.167734892770909
 10
1013.4415089128581258
 20
198.850842073984154
 10
996.5581289814515458
 20
193.7293247637092009
 10
979.0
 20
192.0
 10
979.0
 20
192.0
 10
979.0
 20
192.0
 10
961.4418710185484542
 20
193.7293247637092009
 10
944.5584910871418742
 20
198.850842073984154
 10
928.9986790282358697
 20
207.167734892770909
 10
915.3603896932107773
 20
218.3603896932107205
 10
904.167734892770909
 20
231.9986790282358129
 10
895.850842073984154
 20
247.5584910871419311
 10
890.7293247637092009
 20
264.4418710185484542
 10
889.0
 20
282.0
 10
889.0
 20
282.0
 10
889.0
 20
282.0
 10
890.7293247637092009
 20
299.5581289814515458
 10
895.850842073984154
 20
316.4415089128580689
 10
904.167734892770909
 20
332.0013209717641871
 10
915.3603896932106636
 20
345.6396103067892795
 10
928.998679028235756
 20
356.832265107229091
 10
944.5584910871418742
 20
365.1491579260157891
 10
961.4418710185484542
 20
370.2706752362907423
 10
979.0
 20
372.0
 97
0
 75
0
 76
1
 47
0.0
 98
0
  0
LWPOLYLINE
  5
3E
330
1D
100
AcDbEntity
  8
0
  6
ByLayer
420
7110143
 48
1.0
 60
0
 67
0
370
-1
100
AcDbPolyline
 90
41
 70
1
 43
0.0
 38
0.0
 39
0.0
210
0.0
220
0.0
230
1.0
 10
979.0
 20
372.0
 40
0.0
 41
0.0
 42
0.0
 10
979.0
 20
372.0
 40
0.0
 41
0.0
 42
0.0
 10
979.0
 20
372.0
 40
0.0
 41
0.0
 42
0.0
 10
996.5581289814515458
 20
370.2706752362907423
 40
0.0
 41
0.0
 42
0.0
 10
1013.4415089128581258
 20
365.1491579260157891
 40
0.0
 41
0.0
 42
0.0
 10
1029.001320971764244
 20
356.832265107229091
 40
0.0
 41
0.0
 42
0.0
 10
1042.6396103067893364
 20
345.6396103067892795
 40
0.0
 41
0.0
 42
0.0
 10
1053.8322651072289773
 20
332.0013209717641871
 40
0.0
 41
0.0
 42
0.0
 10
1062.1491579260157323
 20
316.4415089128580689
 40
0.0
 41
0.0
 42
0.0
 10
1067.2706752362907991
 20
299.5581289814515458
 40
0.0
 41
0.0
 42
0.0
 10
1069.0
 20
282.0
 40
0.0
 41
0.0
 42
0.0
 10
1069.0
 20
282.0
 40
0.0
 41
0.0
 42
0.0
 10
1069.0
 20
282.0
 40
0.0
 41
0.0
 42
0.0
 10
1067.2706752362907991
 20
264.4418710185484542
 40
0.0
 41
0.0
 42
0.0
 10
1062.1491579260157323
 20
247.5584910871419311
 40
0.0
 41
0.0
 42
0.0
 10
1053.8322651072289773
 20
231.9986790282358129
 40
0.0
 41
0.0
 42
0.0
 10
1042.6396103067893364
 20
218.3603896932107205
 40
0.0
 41
0.0
 42
0.0
 10
1029.001320971764244
 20
207.167734892770909
 40
0.0
 41
0.0
 42
0.0
 10
1013.4415089128581258
 20
198.850842073984154
 40
0.0
 41
0.0
 42
0.0
 10
996.5581289814515458
 20
193.7293247637092009
 40
0.0
 41
0.0
 42
0.0
 10
979.0
 20
192.0
 40
0.0
 41
0.0
 42
0.0
 10
979.0
 20
192.0
 40
0.0
 41
0.0
 42
0.0
 10
979.0
 20
192.0
 40
0.0
 41
0.0
 42
0.0
 10
961.4418710185484542
 20
193.7293247637092009
 40
0.0
 41
0.0
 42
0.0
 10
944.5584910871418742
 20
198.850842073984154
 40
0.0
 41
0.0
 42
0.0
 10
928.9986790282358697
 20
207.167734892770909
 40
0.0
 41
0.0
 42
0.0
 10
915.3603896932107773
 20
218.3603896932107205
 40
0.0
 41
0.0
 42
0.0
 10
904.167734892770909
 20
231.9986790282358129
 40
0.0
 41
0.0
 42
0.0
 10
895.850842073984154
 20
247.5584910871419311
 40
0.0
 41
0.0
 42
0.0
 10
890.7293247637092009
 20
264.4418710185484542
 40
0.0
 41
0.0
 42
0.0
 10
889.0
 20
282.0
 40
0.0
 41
0.0
 42
0.0
 10
889.0
 20
282.0
 40
0.0
 41
0.0
 42
0.0
 10
889.0
 20
282.0
 40
0.0
 41
0.0
 42
0.0
 10
890.7293247637092009
 20
299.5581289814515458
 40
0.0
 41
0.0
 42
0.0
 10
895.850842073984154
 20
316.4415089128580689
 40
0.0
 41
0.0
 42
0.0
 10
904.167734892770909
 20
332.0013209717641871
 40
0.0
 41
0.0
 42
0.0
 10
915.3603896932106636
 20
345.6396103067892795
 40
0.0
 41
0.0
 42
0.0
 10
928.998679028235756
 20
356.832265107229091
 40
0.0
 41
0.0
 42
0.0
 10
944.5584910871418742
 20
365.1491579260157891
 40
0.0
 41
0.0
 42
0.0
 10
961.4418710185484542
 20
370.2706752362907423
 40
0.0
 41
0.0
 42
0.0
 10
979.0
 20
372.0
 40
0.0
 41
0.0
 42
0.0
  0
HATCH
  5
3F
330
1D
100
AcDbEntity
  8
0
  6
ByLayer
420
330012
 48
1.0
 60
0
 67
0
370
-1
100
AcDbHatch
 30
0.0
210
0.0
220
0.0
230
1.0
  2
SOLID
 70
1
 71
0
 91
1
 92
2
 72
0
 73
1
 93
41
 10
673.0
 20
522.0
 10
1043.0
 20
522.0
 10
1043.0
 20
522.0
 10
1048.8527096604839244
 20
521.4235584120968952
 10
1054.4805029709527844
 20
519.7163859753386532
 10
1059.6671069905880813
 20
516.9440883690763258
 10
1064.2132034355963697
 20
513.2132034355963697
 10
1067.9440883690763258
 20
508.6671069905880813
 10
1070.7163859753386532
 20
503.4805029709526707
 10
1072.4235584120970088
 20
497.8527096604838107
 10
1073.0
 20
492.0
 10
1073.0
 20
210.0
 10
1073.0
 20
210.0
 10
1072.4235584120970088
 20
204.1472903395161893
 10
1070.7163859753386532
 20
198.5194970290473293
 10
1067.9440883690763258
 20
193.3328930094119187
 10
1064.2132034355963697
 20
188.7867965644036303
 10
1059.6671069905880813
 20
185.0559116309236742
 10
1054.4805029709527844
 20
182.2836140246613468
 10
1048.8527096604839244
 20
180.5764415879031048
 10
1043.0
 20
180.0
 10
673.0
 20
180.0
 10
673.0
 20
180.0
 10
667.1472903395161893
 20
180.5764415879031048
 10
661.5194970290473293
 20
182.2836140246613468
 10
656.3328930094119187
 20
185.0559116309236742
 10
651.7867965644036303
 20
188.7867965644036303
 10
648.0559116309236742
 20
193.3328930094119187
 10
645.2836140246613468
 20
198.5194970290473293
 10
643.5764415879031048
 20
204.1472903395161893
 10
643.0
 20
210.0
 10
643.0
 20
492.0
 10
643.0
 20
492.0
 10
643.5764415879031048
 20
497.8527096604838107
 10
645.2836140246613468
 20
503.4805029709526707
 10
648.0559116309236742
 20
508.6671069905880813
 10
651.7867965644035166
 20
513.2132034355963697
 10
656.3328930094119187
 20
516.9440883690763258
 10
661.5194970290473293
 20
519.7163859753386532
 10
667.1472903395161893
 20
521.4235584120968952
 10
673.0
 20
522.0
 97
0
 75
0
 76
1
 47
0.0
 98
0
  0
LWPOLYLINE
  5
40
330
1D
100
AcDbEntity
  8
0
  6
ByLayer
420
16777215
 48
1.0
 60
0
 67
0
370
-1
100
AcDbPolyline
 90
41
 70
1
 43
0.0
 38
0.0
 39
0.0
210
0.0
220
0.0
230
1.0
 10
673.0
 20
522.0
 40
0.0
 41
0.0
 42
0.0
 10
1043.0
 20
522.0
 40
0.0
 41
0.0
 42
0.0
 10
1043.0
 20
522.0
 40
0.0
 41
0.0
 42
0.0
 10
1048.8527096604839244
 20
521.4235584120968952
 40
0.0
 41
0.0
 42
0.0
 10
1054.4805029709527844
 20
519.7163859753386532
 40
0.0
 41
0.0
 42
0.0
 10
1059.6671069905880813
 20
516.9440883690763258
 40
0.0
 41
0.0
 42
0.0
 10
1064.2132034355963697
 20
513.2132034355963697
 40
0.0
 41
0.0
 42
0.0
 10
1067.9440883690763258
 20
508.6671069905880813
 40
0.0
 41
0.0
 42
0.0
 10
1070.7163859753386532
 20
503.4805029709526707
 40
0.0
 41
0.0
 42
0.0
 10
1072.4235584120970088
 20
497.8527096604838107
 40
0.0
 41
0.0
 42
0.0
 10
1073.0
 20
492.0
 40
0.0
 41
0.0
 42
0.0
 10
1073.0
 20
210.0
 40
0.0
 41
0.0
 42
0.0
 10
1073.0
 20
210.0
 40
0.0
 41
0.0
 42
0.0
 10
1072.4235584120970088
 20
204.1472903395161893
 40
0.0
 41
0.0
 42
0.0
 10
1070.7163859753386532
 20
198.5194970290473293
 40
0.0
 41
0.0
 42
0.0
 10
1067.9440883690763258
 20
193.3328930094119187
 40
0.0
 41
0.0
 42
0.0
 10
1064.2132034355963697
 20
188.7867965644036303
 40
0.0
 41
0.0
 42
0.0
 10
1059.6671069905880813
 20
185.0559116309236742
 40
0.0
 41
0.0
 42
0.0
 10
1054.4805029709527844
 20
182.2836140246613468
 40
0.0
 41
0.0
 42
0.0
 10
1048.8527096604839244
 20
180.5764415879031048
 40
0.0
 41
0.0
 42
0.0
 10
1043.0
 20
180.0
 40
0.0
 41
0.0
 42
0.0
 10
673.0
 20
180.0
 40
0.0
 41
0.0
 42
0.0
 10
673.0
 20
180.0
 40
0.0
 41
0.0
 42
0.0
 10
667.1472903395161893
 20
180.5764415879031048
 40
0.0
 41
0.0
 42
0.0
 10
661.5194970290473293
 20
182.2836140246613468
 40
0.0
 41
0.0
 42
0.0
 10
656.3328930094119187
 20
185.0559116309236742
 40
0.0
 41
0.0
 42
0.0
 10
651.7867965644036303
 20
188.7867965644036303
 40
0.0
 41
0.0
 42
0.0
 10
648.0559116309236742
 20
193.3328930094119187
 40
0.0
 41
0.0
 42
0.0
 10
645.2836140246613468
 20
198.5194970290473293
 40
0.0
 41
0.0
 42
0.0
 10
643.5764415879031048
 20
204.1472903395161893
 40
0.0
 41
0.0
 42
0.0
 10
643.0
 20
210.0
 40
0.0
 41
0.0
 42
0.0
 10
643.0
 20
492.0
 40
0.0
 41
0.0
 42
0.0
 10
643.0
 20
492.0
 40
0.0
 41
0.0
 42
0.0
 10
643.5764415879031048
 20
497.8527096604838107
 40
0.0
 41
0.0
 42
0.0
 10
645.2836140246613468
 20
503.4805029709526707
 40
0.0
 41
0.0
 42
0.0
 10
648.0559116309236742
 20
508.6671069905880813
 40
0.0
 41
0.0
 42
0.0
 10
651.7867965644035166
 20
513.2132034355963697
 40
0.0
 41
0.0
 42
0.0
 10
656.3328930094119187
 20
516.9440883690763258
 40
0.0
 41
0.0
 42
0.0
 10
661.5194970290473293
 20
519.7163859753386532
 40
0.0
 41
0.0
 42
0.0
 10
667.1472903395161893
 20
521.4235584120968952
 40
0.0
 41
0.0
 42
0.0
 10
673.0
 20
522.0
 40
0.0
 41
0.0
 42
0.0
  0
TEXT
  5
41
330
1D
100
AcDbEntity
  8
0
  6
ByLayer
420
14937087
 48
1.0
 60
0
 67
0
370
-1
100
AcDbText
 39
0.0
 10
680.0
 20
254.75
 30
0.0
 40
13.0
  1
Same image twice: one crisp foreground
 50
0.0
 41
1.0
 51
0.0
  7
Standard
 71
0
 72
0
 11
0.0
 21
0.0
 31
0.0
210
0.0
220
0.0
230
1.0
100
AcDbText
 73
0
  0
TEXT
  5
42
330
1D
100
AcDbEntity
  8
0
  6
ByLayer
420
14937087
 48
1.0
 60
0
 67
0
370
-1
100
AcDbText
 39
0.0
 10
680.0
 20
235.25
 30
0.0
 40
13.0
  1
copy, one enlarged copy with blur and
 50
0.0
 41
1.0
 51
0.0
  7
Standard
 71
0
 72
0
 11
0.0
 21
0.0
 31
0.0
210
0.0
220
0.0
230
1.0
100
AcDbText
 73
0
  0
TEXT
  5
43
330
1D
100
AcDbEntity
  8
0
  6
ByLayer
420
14937087
 48
1.0
 60
0
 67
0
370
-1
100
AcDbText
 39
0.0
 10
680.0
 20
215.75
 30
0.0
 40
13.0
  1
screen blending.
 50
0.0
 41
1.0
 51
0.0
  7
Standard
 71
0
 72
0
 11
0.0
 21
0.0
 31
0.0
210
0.0
220
0.0
230
1.0
100
AcDbText
 73
0
  0
ENDSEC
  0
SECTION
  2
OBJECTS
  0
DICTIONARY
  5
1
330
0
100
AcDbDictionary
280
0
281
0
  3
ACAD_COLOR
350
2
  3
ACAD_GROUP
350
3
  3
ACAD_LAYOUT
350
4
  3
ACAD_MATERIAL
350
5
  3
ACAD_SORTENTS
350
6
  3
ACAD_MLEADERSTYLE
350
7
  3
ACAD_MLINESTYLE
350
8
  3
ACAD_TABLESTYLE
350
9
  3
ACAD_PLOTSETTINGS
350
A
  3
AcDbVariableDictionary
350
B
  3
ACAD_SCALELIST
350
C
  3
ACAD_VISUALSTYLE
350
D
  3
ACAD_FIELDLIST
350
E
  3
ACAD_IMAGE_DICT
350
F
  0
DICTIONARY
  5
2
330
1
100
AcDbDictionary
280
0
281
0
  0
DICTIONARY
  5
3
330
1
100
AcDbDictionary
280
0
281
0
  0
DICTIONARY
  5
4
330
1
100
AcDbDictionary
280
0
281
0
  0
DICTIONARY
  5
5
330
1
100
AcDbDictionary
280
0
281
0
  0
DICTIONARY
  5
6
330
1
100
AcDbDictionary
280
0
281
0
  0
DICTIONARY
  5
7
330
1
100
AcDbDictionary
280
0
281
0
  0
DICTIONARY
  5
8
330
1
100
AcDbDictionary
280
0
281
0
  0
DICTIONARY
  5
9
330
1
100
AcDbDictionary
280
0
281
0
  0
DICTIONARY
  5
A
330
1
100
AcDbDictionary
280
0
281
0
  0
DICTIONARY
  5
B
330
1
100
AcDbDictionary
280
0
281
0
  0
DICTIONARY
  5
C
330
1
100
AcDbDictionary
280
0
281
0
  0
DICTIONARY
  5
D
330
1
100
AcDbDictionary
280
0
281
0
  0
DICTIONARY
  5
E
330
1
100
AcDbDictionary
280
0
281
0
  0
DICTIONARY
  5
F
330
1
100
AcDbDictionary
280
0
281
0
  0
ENDSEC
  0
EOF
