0
SECTION
2
HEADER
9
$ACADVER
1
AC1021
9
$LASTSAVEDBY
1
@tarikjabiri/dxf
9
$HANDSEED
5
39
9
$INSUNITS
70
0
9
$CLAYER
8
0
9
$VIEWCTR
10
640
20
446.59233739399724
0
ENDSEC
0
SECTION
2
CLASSES
0
ENDSEC
0
SECTION
2
TABLES
0
TABLE
2
VPORT
5
1
330
0
100
AcDbSymbolTable
70
1
0
VPORT
5
19
330
1
100
AcDbSymbolTableRecord
100
AcDbViewportTableRecord
2
*Active
70
0
10
0
20
0
11
1
21
1
12
640
22
446.59233739399724
13
0
23
0
14
10
24
10
15
10
25
10
16
0
26
0
36
1
17
0
27
0
37
0
40
943.1846747879945
41
2
42
50
43
0
44
0
50
0
51
0
71
0
72
100
73
1
74
3
75
0
76
1
77
0
78
0
281
0
65
1
110
0
120
0
130
0
111
1
121
0
131
0
112
0
122
1
132
0
79
0
146
0
348
10020
60
7
61
5
292
1
282
1
141
0
142
0
63
250
421
3358443
0
ENDTAB
0
TABLE
2
LTYPE
5
2
330
0
100
AcDbSymbolTable
70
3
0
LTYPE
5
12
330
2
100
AcDbSymbolTableRecord
100
AcDbLinetypeTableRecord
2
ByBlock
70
0
3

72
65
73
0
40
0
0
LTYPE
5
13
330
2
100
AcDbSymbolTableRecord
100
AcDbLinetypeTableRecord
2
ByLayer
70
0
3

72
65
73
0
40
0
0
LTYPE
5
14
330
2
100
AcDbSymbolTableRecord
100
AcDbLinetypeTableRecord
2
Continuous
70
0
3
Solid line
72
65
73
0
40
0
0
ENDTAB
0
TABLE
2
LAYER
5
3
330
0
100
AcDbSymbolTable
70
1
0
LAYER
5
15
330
3
100
AcDbSymbolTableRecord
100
AcDbLayerTableRecord
2
0
70
0
62
7
6
Continuous
370
0
390
0
0
ENDTAB
0
TABLE
2
STYLE
5
4
330
0
100
AcDbSymbolTable
70
2
0
STYLE
5
16
330
4
100
AcDbSymbolTableRecord
100
AcDbTextStyleTableRecord
2
Standard
70
0
40
0
41
1
50
0
71
0
42
1
3
txt
4

0
STYLE
5
1F
330
4
100
AcDbSymbolTableRecord
100
AcDbTextStyleTableRecord
2
Segoe UI
70
0
40
0
41
1
50
0
71
0
42
1
3
Segoe UI.ttf
4

0
ENDTAB
0
TABLE
2
VIEW
5
5
330
0
100
AcDbSymbolTable
70
0
0
ENDTAB
0
TABLE
2
UCS
5
6
330
0
100
AcDbSymbolTable
70
0
0
ENDTAB
0
TABLE
2
APPID
5
7
330
0
100
AcDbSymbolTable
70
1
0
APPID
5
17
330
7
100
AcDbSymbolTableRecord
100
AcDbRegAppTableRecord
2
ACAD
70
0
0
ENDTAB
0
TABLE
2
DIMSTYLE
5
8
330
0
100
AcDbSymbolTable
70
1
100
AcDbDimStyleTable
0
DIMSTYLE
105
18
330
8
100
AcDbSymbolTableRecord
100
AcDbDimStyleTableRecord
2
Standard
70
0
340
16
0
ENDTAB
0
TABLE
2
BLOCK_RECORD
5
9
330
0
100
AcDbSymbolTable
70
2
0
BLOCK_RECORD
5
C
330
9
100
AcDbSymbolTableRecord
100
AcDbBlockTableRecord
2
*Model_Space
70
0
280
1
281
0
0
BLOCK_RECORD
5
F
330
9
100
AcDbSymbolTableRecord
100
AcDbBlockTableRecord
2
*Paper_Space
70
0
280
1
281
0
0
ENDTAB
0
ENDSEC
0
SECTION
2
BLOCKS
0
BLOCK
5
D
330
C
100
AcDbEntity
8
0
100
AcDbBlockBegin
2
*Model_Space
70
0
10
0
20
0
30
0
3
*Model_Space
1

0
ENDBLK
5
E
100
AcDbEntity
8
0
100
AcDbBlockEnd
0
BLOCK
5
10
330
F
100
AcDbEntity
8
0
100
AcDbBlockBegin
2
*Paper_Space
70
0
10
0
20
0
30
0
3
*Paper_Space
1

0
ENDBLK
5
11
100
AcDbEntity
8
0
100
AcDbBlockEnd
0
ENDSEC
0
SECTION
2
ENTITIES
0
LWPOLYLINE
5
1A
330
C
100
AcDbEntity
420
8316671
8
0
100
AcDbPolyline
90
5
70
0
43
0
38
0
39
0
10
0
20
720
10
1280
20
720
10
1280
20
0
10
0
20
0
10
0
20
720
0
LWPOLYLINE
5
1B
330
C
100
AcDbEntity
420
10993151
8
0
100
AcDbPolyline
90
42
70
0
43
0
38
0
39
0
10
186
20
637
10
1094
20
637
10
1094
20
637
10
1101.0232515925807
20
636.3082700945163
10
1107.7766035651432
20
634.2596631704064
10
1114.0005283887058
20
630.9329060428917
10
1119.4558441227157
20
626.4558441227157
10
1123.9329060428915
20
621.0005283887057
10
1127.2596631704064
20
614.7766035651432
10
1129.3082700945163
20
608.0232515925807
10
1130
20
601
10
1130
20
120
10
1130
20
120
10
1129.3082700945163
20
112.97674840741934
10
1127.2596631704064
20
106.2233964348568
10
1123.9329060428915
20
99.99947161129433
10
1119.4558441227157
20
94.54415587728431
10
1114.0005283887058
20
90.06709395710834
10
1107.7766035651432
20
86.74033682959373
10
1101.0232515925807
20
84.69172990548373
10
1094
20
84
10
186
20
84
10
186
20
84
10
178.9767484074194
20
84.69172990548373
10
172.22339643485677
20
86.74033682959373
10
165.99947161129433
20
90.06709395710834
10
160.54415587728428
20
94.54415587728431
10
156.06709395710837
20
99.99947161129433
10
152.74033682959367
20
106.2233964348568
10
150.6917299054837
20
112.97674840741934
10
150
20
120
10
150
20
601
10
150
20
601
10
150.6917299054837
20
608.0232515925807
10
152.74033682959367
20
614.7766035651432
10
156.06709395710837
20
621.0005283887057
10
160.54415587728428
20
626.4558441227157
10
165.99947161129433
20
630.9329060428917
10
172.22339643485674
20
634.2596631704063
10
178.97674840741936
20
636.3082700945163
10
186
20
637
10
186
20
637
0
LWPOLYLINE
5
1C
330
C
100
AcDbEntity
420
8316671
8
0
100
AcDbPolyline
90
42
70
0
43
0
38
0
39
0
10
201
20
756
10
201
20
756
10
201
20
756
10
226.3617418620967
20
753.5020864524199
10
250.74884620746167
20
746.1043392264672
10
273.2241302925483
20
734.0910495993309
10
292.9238815542512
20
717.9238815542511
10
309.09104959933086
20
698.2241302925482
10
321.1043392264673
20
675.7488462074617
10
328.50208645242
20
651.3617418620967
10
331
20
626
10
331
20
626
10
331
20
626
10
328.50208645242
20
600.6382581379033
10
321.1043392264673
20
576.2511537925384
10
309.09104959933086
20
553.7758697074516
10
292.9238815542512
20
534.0761184457488
10
273.2241302925483
20
517.9089504006691
10
250.74884620746167
20
505.8956607735327
10
226.3617418620967
20
498.49791354758
10
201
20
496
10
201
20
496
10
201
20
496
10
175.63825813790334
20
498.49791354758
10
151.25115379253833
20
505.8956607735327
10
128.77586970745176
20
517.908950400669
10
109.07611844574883
20
534.0761184457488
10
92.9089504006691
20
553.7758697074516
10
80.89566077353273
20
576.2511537925383
10
73.49791354758004
20
600.6382581379032
10
71
20
626
10
71
20
626
10
71
20
626
10
73.49791354758004
20
651.3617418620967
10
80.89566077353271
20
675.7488462074616
10
92.90895040066908
20
698.2241302925482
10
109.0761184457488
20
717.9238815542511
10
128.7758697074517
20
734.0910495993309
10
151.25115379253825
20
746.1043392264672
10
175.63825813790328
20
753.5020864524199
10
200.99999999999997
20
756
10
201
20
756
0
LWPOLYLINE
5
1D
330
C
100
AcDbEntity
420
7110143
8
0
100
AcDbPolyline
90
42
70
0
43
0
38
0
39
0
10
1049
20
295
10
1049
20
295
10
1049
20
295
10
1080.2144515225805
20
291.92564486451687
10
1110.2293491784144
20
282.8207252018059
10
1137.8912372831364
20
268.03513796840724
10
1162.1370849898476
20
248.1370849898476
10
1182.0351379684073
20
223.89123728313632
10
1196.820725201806
20
196.2293491784144
10
1205.925644864517
20
166.21445152258048
10
1209
20
135
10
1209
20
135
10
1209
20
135
10
1205.925644864517
20
103.78554847741952
10
1196.820725201806
20
73.7706508215856
10
1182.0351379684073
20
46.10876271686368
10
1162.1370849898476
20
21.862915010152392
10
1137.8912372831364
20
1.964862031592702
10
1110.2293491784144
20
-12.820725201805885
10
1080.2144515225805
20
-21.925644864516926
10
1049
20
-25
10
1049
20
-25
10
1049
20
-25
10
1017.7855484774195
20
-21.925644864516926
10
987.7706508215856
20
-12.820725201805885
10
960.1087627168637
20
1.964862031592702
10
935.8629150101524
20
21.862915010152392
10
915.9648620315927
20
46.10876271686368
10
901.1792747981941
20
73.7706508215856
10
892.0743551354831
20
103.78554847741941
10
889
20
135
10
889
20
135
10
889
20
135
10
892.0743551354831
20
166.2144515225806
10
901.1792747981941
20
196.2293491784144
10
915.9648620315927
20
223.89123728313632
10
935.8629150101524
20
248.1370849898476
10
960.1087627168637
20
268.03513796840724
10
987.7706508215856
20
282.8207252018058
10
1017.7855484774194
20
291.9256448645168
10
1049
20
295
10
1049
20
295
0
TEXT
5
1E
330
C
100
AcDbEntity
420
8316671
8
0
100
AcDbText
10
207
20
567.5625
30
0
40
12
1
GITHUB-STYLE GLOW
7
Segoe UI
100
AcDbText
0
TEXT
5
20
330
C
100
AcDbEntity
420
16054271
8
0
100
AcDbText
10
207
20
508.875
30
0
40
52
1
Blur a duplicated
7
Segoe UI
100
AcDbText
0
TEXT
5
21
330
C
100
AcDbEntity
420
16054271
8
0
100
AcDbText
10
207
20
458.96875
30
0
40
52
1
internal image,
7
Segoe UI
100
AcDbText
0
TEXT
5
22
330
C
100
AcDbEntity
420
16054271
8
0
100
AcDbText
10
207
20
409.0625
30
0
40
52
1
not a colored
7
Segoe UI
100
AcDbText
0
TEXT
5
23
330
C
100
AcDbEntity
420
16054271
8
0
100
AcDbText
10
207
20
359.15625
30
0
40
52
1
rectangle.
7
Segoe UI
100
AcDbText
0
TEXT
5
24
330
C
100
AcDbEntity
420
14937087
8
0
100
AcDbText
10
207
20
313.5
30
0
40
17
1
This page isolates the glow treatment
7
Segoe UI
100
AcDbText
0
TEXT
5
25
330
C
100
AcDbEntity
420
14937087
8
0
100
AcDbText
10
207
20
286.3125
30
0
40
17
1
from the live GitHub export: the same
7
Segoe UI
100
AcDbText
0
TEXT
5
26
330
C
100
AcDbEntity
420
14937087
8
0
100
AcDbText
10
207
20
259.125
30
0
40
17
1
embedded image is rendered once
7
Segoe UI
100
AcDbText
0
TEXT
5
27
330
C
100
AcDbEntity
420
14937087
8
0
100
AcDbText
10
207
20
231.9375
30
0
40
17
1
sharply and once as a blurred, blended
7
Segoe UI
100
AcDbText
0
TEXT
5
28
330
C
100
AcDbEntity
420
14937087
8
0
100
AcDbText
10
207
20
204.75
30
0
40
17
1
halo so PNG, SVG, PDF, and HTML output
7
Segoe UI
100
AcDbText
0
TEXT
5
29
330
C
100
AcDbEntity
420
14937087
8
0
100
AcDbText
10
207
20
177.5625
30
0
40
17
1
can be compared without the rest of the
7
Segoe UI
100
AcDbText
0
TEXT
5
2A
330
C
100
AcDbEntity
420
14937087
8
0
100
AcDbText
10
207
20
150.375
30
0
40
17
1
site.
7
Segoe UI
100
AcDbText
0
LWPOLYLINE
5
2B
330
C
100
AcDbEntity
420
8316671
8
0
100
AcDbPolyline
90
42
70
0
43
0
38
0
39
0
10
752
20
522
10
752
20
522
10
752
20
522
10
766.6317741512096
20
520.5588960302423
10
780.7012574273817
20
516.2909649383465
10
793.6677674764702
20
509.3602209226909
10
805.033008588991
20
500.03300858899104
10
814.3602209226909
20
488.66776747647015
10
821.2909649383465
20
475.70125742738173
10
825.5588960302423
20
461.63177415120964
10
827
20
447
10
827
20
447
10
827
20
447
10
825.5588960302423
20
432.36822584879036
10
821.2909649383465
20
418.29874257261827
10
814.3602209226909
20
405.33223252352985
10
805.033008588991
20
393.96699141100896
10
793.6677674764702
20
384.63977907730913
10
780.7012574273817
20
377.7090350616535
10
766.6317741512096
20
373.4411039697577
10
752
20
372
10
752
20
372
10
752
20
372
10
737.3682258487904
20
373.4411039697577
10
723.2987425726183
20
377.7090350616535
10
710.3322325235299
20
384.6397790773091
10
698.966991411009
20
393.96699141100896
10
689.6397790773091
20
405.33223252352985
10
682.7090350616535
20
418.29874257261827
10
678.4411039697577
20
432.36822584879036
10
677
20
447
10
677
20
447
10
677
20
447
10
678.4411039697577
20
461.63177415120964
10
682.7090350616535
20
475.70125742738173
10
689.6397790773091
20
488.66776747647015
10
698.966991411009
20
500.03300858899104
10
710.3322325235298
20
509.3602209226909
10
723.2987425726183
20
516.2909649383465
10
737.3682258487903
20
520.5588960302423
10
752
20
522
10
752
20
522
0
LWPOLYLINE
5
2C
330
C
100
AcDbEntity
420
7110143
8
0
100
AcDbPolyline
90
42
70
0
43
0
38
0
39
0
10
979
20
372
10
979
20
372
10
979
20
372
10
996.5581289814515
20
370.27067523629074
10
1013.4415089128581
20
365.1491579260158
10
1029.0013209717642
20
356.8322651072291
10
1042.6396103067893
20
345.6396103067893
10
1053.832265107229
20
332.0013209717642
10
1062.1491579260157
20
316.44150891285807
10
1067.2706752362908
20
299.55812898145155
10
1069
20
282
10
1069
20
282
10
1069
20
282
10
1067.2706752362908
20
264.44187101854845
10
1062.1491579260157
20
247.55849108714193
10
1053.832265107229
20
231.9986790282358
10
1042.6396103067893
20
218.36038969321072
10
1029.0013209717642
20
207.1677348927709
10
1013.4415089128581
20
198.85084207398415
10
996.5581289814515
20
193.7293247637092
10
979
20
192
10
979
20
192
10
979
20
192
10
961.4418710185485
20
193.7293247637092
10
944.5584910871419
20
198.85084207398415
10
928.9986790282359
20
207.1677348927709
10
915.3603896932108
20
218.36038969321072
10
904.1677348927709
20
231.9986790282358
10
895.8508420739842
20
247.55849108714193
10
890.7293247637092
20
264.44187101854845
10
889
20
282
10
889
20
282
10
889
20
282
10
890.7293247637092
20
299.55812898145155
10
895.8508420739842
20
316.44150891285807
10
904.1677348927709
20
332.0013209717642
10
915.3603896932107
20
345.6396103067893
10
928.9986790282358
20
356.8322651072291
10
944.5584910871419
20
365.1491579260158
10
961.4418710185485
20
370.27067523629074
10
979
20
372
10
979
20
372
0
LWPOLYLINE
5
2D
330
C
100
AcDbEntity
420
16777215
8
0
100
AcDbPolyline
90
42
70
0
43
0
38
0
39
0
10
673
20
522
10
1043
20
522
10
1043
20
522
10
1048.852709660484
20
521.4235584120969
10
1054.4805029709528
20
519.7163859753387
10
1059.667106990588
20
516.9440883690763
10
1064.2132034355964
20
513.2132034355964
10
1067.9440883690763
20
508.6671069905881
10
1070.7163859753387
20
503.48050297095267
10
1072.423558412097
20
497.8527096604838
10
1073
20
492
10
1073
20
210
10
1073
20
210
10
1072.423558412097
20
204.1472903395162
10
1070.7163859753387
20
198.51949702904733
10
1067.9440883690763
20
193.33289300941192
10
1064.2132034355964
20
188.78679656440363
10
1059.667106990588
20
185.05591163092367
10
1054.4805029709528
20
182.28361402466135
10
1048.852709660484
20
180.5764415879031
10
1043
20
180
10
673
20
180
10
673
20
180
10
667.1472903395162
20
180.5764415879031
10
661.5194970290473
20
182.28361402466135
10
656.3328930094119
20
185.05591163092367
10
651.7867965644036
20
188.78679656440363
10
648.0559116309237
20
193.33289300941192
10
645.2836140246613
20
198.51949702904733
10
643.5764415879031
20
204.1472903395162
10
643
20
210
10
643
20
492
10
643
20
492
10
643.5764415879031
20
497.8527096604838
10
645.2836140246613
20
503.48050297095267
10
648.0559116309237
20
508.6671069905881
10
651.7867965644035
20
513.2132034355964
10
656.3328930094119
20
516.9440883690763
10
661.5194970290473
20
519.7163859753387
10
667.1472903395162
20
521.4235584120969
10
673
20
522
10
673
20
522
0
IMAGE
5
2F
330
C
100
AcDbEntity
8
0
100
AcDbRasterImage
90
0
10
689.2
20
505.8
30
0
11
0.9986301369863014
21
0
31
0
12
0
22
0.9986301369863014
32
0
13
292
23
292
340
2E
70
3
280
1
281
50
282
50
283
0
360
30
71
1
91
2
14
-0.5
24
-0.5
14
291.5
24
291.5
290
1
0
IMAGE
5
33
330
C
100
AcDbEntity
8
0
100
AcDbRasterImage
90
0
10
720
20
475
30
0
11
1
21
0
31
0
12
0
22
1
32
0
13
270
23
270
340
32
70
3
280
1
281
50
282
50
283
0
360
34
71
1
91
2
14
-0.5
24
-0.5
14
269.5
24
269.5
290
1
0
TEXT
5
36
330
C
100
AcDbEntity
420
14937087
8
0
100
AcDbText
10
680
20
254.75
30
0
40
13
1
Same image twice: one crisp foreground
7
Segoe UI
100
AcDbText
0
TEXT
5
37
330
C
100
AcDbEntity
420
14937087
8
0
100
AcDbText
10
680
20
235.25
30
0
40
13
1
copy, one enlarged copy with blur and
7
Segoe UI
100
AcDbText
0
TEXT
5
38
330
C
100
AcDbEntity
420
14937087
8
0
100
AcDbText
10
680
20
215.75
30
0
40
13
1
screen blending.
7
Segoe UI
100
AcDbText
0
ENDSEC
0
SECTION
2
OBJECTS
0
DICTIONARY
5
A
330
0
100
AcDbDictionary
281
1
3
ACAD_GROUP
350
B
3
ACAD_IMAGE_DICT
350
31
3
ACAD_IMAGE_DICT
350
35
0
DICTIONARY
5
B
330
A
100
AcDbDictionary
281
0
0
IMAGEDEF
5
2E
330
31
102
{ACAD_REACTORS
330
31
330
30
102
}
100
AcDbRasterImageDef
1
github-glow-dxf-assets/image1.jpg
10
292
20
292
11
1
21
1
280
1
281
0
0
IMAGEDEF_REACTOR
5
30
330
0
100
AcDbRasterImageDefReactor
90
2
330
2F
0
DICTIONARY
5
31
330
A
100
AcDbDictionary
281
0
3
image1
350
2E
0
IMAGEDEF
5
32
330
35
102
{ACAD_REACTORS
330
35
330
34
102
}
100
AcDbRasterImageDef
1
github-glow-dxf-assets/image2.jpg
10
270
20
270
11
1
21
1
280
1
281
0
0
IMAGEDEF_REACTOR
5
34
330
0
100
AcDbRasterImageDefReactor
90
2
330
33
0
DICTIONARY
5
35
330
A
100
AcDbDictionary
281
0
3
image2
350
32
0
ENDSEC
0
EOF