0
SECTION
2
HEADER
9
$ACADVER
1
AC1021
9
$LASTSAVEDBY
1
@tarikjabiri/dxf
9
$HANDSEED
5
28
9
$INSUNITS
70
0
9
$CLAYER
8
0
9
$VIEWCTR
10
574
20
498
0
ENDSEC
0
SECTION
2
CLASSES
0
ENDSEC
0
SECTION
2
TABLES
0
TABLE
2
VPORT
5
1
330
0
100
AcDbSymbolTable
70
1
0
VPORT
5
19
330
1
100
AcDbSymbolTableRecord
100
AcDbViewportTableRecord
2
*Active
70
0
10
0
20
0
11
1
21
1
12
574
22
498
13
0
23
0
14
10
24
10
15
10
25
10
16
0
26
0
36
1
17
0
27
0
37
0
40
564
41
2
42
50
43
0
44
0
50
0
51
0
71
0
72
100
73
1
74
3
75
0
76
1
77
0
78
0
281
0
65
1
110
0
120
0
130
0
111
1
121
0
131
0
112
0
122
1
132
0
79
0
146
0
348
10020
60
7
61
5
292
1
282
1
141
0
142
0
63
250
421
3358443
0
ENDTAB
0
TABLE
2
LTYPE
5
2
330
0
100
AcDbSymbolTable
70
3
0
LTYPE
5
12
330
2
100
AcDbSymbolTableRecord
100
AcDbLinetypeTableRecord
2
ByBlock
70
0
3

72
65
73
0
40
0
0
LTYPE
5
13
330
2
100
AcDbSymbolTableRecord
100
AcDbLinetypeTableRecord
2
ByLayer
70
0
3

72
65
73
0
40
0
0
LTYPE
5
14
330
2
100
AcDbSymbolTableRecord
100
AcDbLinetypeTableRecord
2
Continuous
70
0
3
Solid line
72
65
73
0
40
0
0
ENDTAB
0
TABLE
2
LAYER
5
3
330
0
100
AcDbSymbolTable
70
1
0
LAYER
5
15
330
3
100
AcDbSymbolTableRecord
100
AcDbLayerTableRecord
2
0
70
0
62
7
6
Continuous
370
0
390
0
0
ENDTAB
0
TABLE
2
STYLE
5
4
330
0
100
AcDbSymbolTable
70
1
0
STYLE
5
16
330
4
100
AcDbSymbolTableRecord
100
AcDbTextStyleTableRecord
2
Standard
70
0
40
0
41
1
50
0
71
0
42
1
3
txt
4

0
ENDTAB
0
TABLE
2
VIEW
5
5
330
0
100
AcDbSymbolTable
70
0
0
ENDTAB
0
TABLE
2
UCS
5
6
330
0
100
AcDbSymbolTable
70
0
0
ENDTAB
0
TABLE
2
APPID
5
7
330
0
100
AcDbSymbolTable
70
1
0
APPID
5
17
330
7
100
AcDbSymbolTableRecord
100
AcDbRegAppTableRecord
2
ACAD
70
0
0
ENDTAB
0
TABLE
2
DIMSTYLE
5
8
330
0
100
AcDbSymbolTable
70
1
100
AcDbDimStyleTable
0
DIMSTYLE
105
18
330
8
100
AcDbSymbolTableRecord
100
AcDbDimStyleTableRecord
2
Standard
70
0
340
16
0
ENDTAB
0
TABLE
2
BLOCK_RECORD
5
9
330
0
100
AcDbSymbolTable
70
2
0
BLOCK_RECORD
5
C
330
9
100
AcDbSymbolTableRecord
100
AcDbBlockTableRecord
2
*Model_Space
70
0
280
1
281
0
0
BLOCK_RECORD
5
F
330
9
100
AcDbSymbolTableRecord
100
AcDbBlockTableRecord
2
*Paper_Space
70
0
280
1
281
0
0
ENDTAB
0
ENDSEC
0
SECTION
2
BLOCKS
0
BLOCK
5
D
330
C
100
AcDbEntity
8
0
100
AcDbBlockBegin
2
*Model_Space
70
0
10
0
20
0
30
0
3
*Model_Space
1

0
ENDBLK
5
E
100
AcDbEntity
8
0
100
AcDbBlockEnd
0
BLOCK
5
10
330
F
100
AcDbEntity
8
0
100
AcDbBlockBegin
2
*Paper_Space
70
0
10
0
20
0
30
0
3
*Paper_Space
1

0
ENDBLK
5
11
100
AcDbEntity
8
0
100
AcDbBlockEnd
0
ENDSEC
0
SECTION
2
ENTITIES
0
TEXT
5
1A
330
C
100
AcDbEntity
420
0
8
0
100
AcDbText
10
20
20
680
30
0
40
20
1
Gradients
7
STANDARD
100
AcDbText
0
LWPOLYLINE
5
1B
330
C
100
AcDbEntity
420
16777215
8
0
100
AcDbPolyline
90
42
70
0
43
0
38
0
39
0
10
38
20
523
10
272
20
523
10
272
20
523
10
273.560722576129
20
522.8462822432259
10
275.06146745892073
20
522.3910362600902
10
276.4445618641568
20
521.6517568984203
10
277.65685424949237
20
520.6568542494924
10
278.6517568984204
20
519.4445618641569
10
279.3910362600903
20
518.0614674589208
10
279.84628224322586
20
516.560722576129
10
280
20
515
10
280
20
451
10
280
20
451
10
279.84628224322586
20
449.439277423871
10
279.3910362600903
20
447.93853254107927
10
278.6517568984204
20
446.5554381358432
10
277.65685424949237
20
445.34314575050763
10
276.4445618641568
20
444.3482431015796
10
275.06146745892073
20
443.6089637399097
10
273.560722576129
20
443.15371775677414
10
272
20
443
10
38
20
443
10
38
20
443
10
36.439277423870976
20
443.15371775677414
10
34.93853254107928
20
443.6089637399097
10
33.55543813584318
20
444.3482431015796
10
32.34314575050762
20
445.34314575050763
10
31.348243101579637
20
446.5554381358432
10
30.608963739909704
20
447.93853254107927
10
30.153717756774157
20
449.439277423871
10
30
20
451
10
30
20
515
10
30
20
515
10
30.153717756774157
20
516.560722576129
10
30.608963739909704
20
518.0614674589208
10
31.348243101579637
20
519.4445618641569
10
32.34314575050762
20
520.6568542494924
10
33.55543813584318
20
521.6517568984203
10
34.938532541079276
20
522.3910362600902
10
36.43927742387097
20
522.8462822432258
10
38
20
523
10
38
20
523
0
TEXT
5
1C
330
C
100
AcDbEntity
420
16777215
8
0
100
AcDbText
10
40
20
496
30
0
40
17
1
Linear gradient
7
STANDARD
100
AcDbText
0
LWPOLYLINE
5
1D
330
C
100
AcDbEntity
420
0
8
0
100
AcDbPolyline
90
42
70
0
43
0
38
0
39
0
10
354
20
659
10
404
20
659
10
404
20
659
10
413.7545161008064
20
658.0392640201616
10
423.13417161825447
20
655.1939766255643
10
431.77851165098014
20
650.5734806151272
10
439.3553390593274
20
644.3553390593274
10
445.57348061512727
20
636.7785116509801
10
450.19397662556435
20
628.1341716182545
10
453.0392640201615
20
618.7545161008064
10
454
20
609
10
454
20
559
10
454
20
559
10
453.0392640201615
20
549.2454838991936
10
450.19397662556435
20
539.8658283817455
10
445.57348061512727
20
531.2214883490199
10
439.3553390593274
20
523.6446609406726
10
431.77851165098014
20
517.4265193848728
10
423.13417161825447
20
512.8060233744357
10
413.7545161008064
20
509.9607359798385
10
404
20
509
10
354
20
509
10
354
20
509
10
344.2454838991936
20
509.9607359798385
10
334.86582838174553
20
512.8060233744357
10
326.2214883490199
20
517.4265193848728
10
318.6446609406726
20
523.6446609406726
10
312.42651938487273
20
531.2214883490199
10
307.80602337443565
20
539.8658283817455
10
304.9607359798385
20
549.2454838991936
10
304
20
559
10
304
20
609
10
304
20
609
10
304.9607359798385
20
618.7545161008064
10
307.80602337443565
20
628.1341716182545
10
312.42651938487273
20
636.7785116509801
10
318.6446609406726
20
644.3553390593274
10
326.22148834901986
20
650.5734806151272
10
334.8658283817455
20
655.1939766255643
10
344.2454838991936
20
658.0392640201616
10
354
20
659
10
354
20
659
0
LWPOLYLINE
5
1E
330
C
100
AcDbEntity
420
0
8
0
100
AcDbPolyline
90
42
70
0
43
0
38
0
39
0
10
529
20
659
10
579
20
659
10
579
20
659
10
588.7545161008064
20
658.0392640201616
10
598.1341716182545
20
655.1939766255643
10
606.7785116509801
20
650.5734806151272
10
614.3553390593274
20
644.3553390593274
10
620.5734806151272
20
636.7785116509801
10
625.1939766255643
20
628.1341716182545
10
628.0392640201616
20
618.7545161008064
10
629
20
609
10
629
20
559
10
629
20
559
10
628.0392640201616
20
549.2454838991936
10
625.1939766255643
20
539.8658283817455
10
620.5734806151272
20
531.2214883490199
10
614.3553390593274
20
523.6446609406726
10
606.7785116509801
20
517.4265193848728
10
598.1341716182545
20
512.8060233744357
10
588.7545161008064
20
509.9607359798385
10
579
20
509
10
529
20
509
10
529
20
509
10
519.2454838991936
20
509.9607359798385
10
509.86582838174553
20
512.8060233744357
10
501.2214883490199
20
517.4265193848728
10
493.6446609406726
20
523.6446609406726
10
487.42651938487273
20
531.2214883490199
10
482.80602337443565
20
539.8658283817455
10
479.9607359798385
20
549.2454838991936
10
479
20
559
10
479
20
609
10
479
20
609
10
479.9607359798385
20
618.7545161008064
10
482.80602337443565
20
628.1341716182545
10
487.42651938487273
20
636.7785116509801
10
493.6446609406726
20
644.3553390593274
10
501.22148834901986
20
650.5734806151272
10
509.8658283817455
20
655.1939766255643
10
519.2454838991936
20
658.0392640201616
10
529
20
659
10
529
20
659
0
LWPOLYLINE
5
1F
330
C
100
AcDbEntity
420
16777215
8
0
100
AcDbPolyline
90
5
70
0
43
0
38
0
39
0
10
653
20
523
10
903
20
523
10
903
20
443
10
653
20
443
10
653
20
523
0
TEXT
5
20
330
C
100
AcDbEntity
420
16777215
8
0
100
AcDbText
10
663
20
496
30
0
40
17
1
Repeating stripes
7
STANDARD
100
AcDbText
0
LWPOLYLINE
5
21
330
C
100
AcDbEntity
420
13421772
8
0
100
AcDbPolyline
90
5
70
0
43
0
38
0
39
0
10
928
20
524
10
1228
20
524
10
1228
20
424
10
928
20
424
10
928
20
524
0
TEXT
5
22
330
C
100
AcDbEntity
420
0
8
0
100
AcDbText
10
940
20
495
30
0
40
17
1
Multiple backgrounds
7
STANDARD
100
AcDbText
0
TEXT
5
23
330
C
100
AcDbEntity
420
0
8
0
100
AcDbText
10
20
20
374
30
0
40
20
1
Box Shadows
7
STANDARD
100
AcDbText
0
LWPOLYLINE
5
24
330
C
100
AcDbEntity
420
0
8
0
100
AcDbPolyline
90
42
70
0
43
0
38
0
39
0
10
48
20
343
10
232
20
343
10
232
20
343
10
233.56072257612902
20
342.84628224322586
10
235.06146745892073
20
342.3910362600903
10
236.4445618641568
20
341.6517568984204
10
237.65685424949237
20
340.65685424949237
10
238.65175689842036
20
339.4445618641568
10
239.3910362600903
20
338.06146745892073
10
239.84628224322586
20
336.560722576129
10
240
20
335
10
240
20
271
10
240
20
271
10
239.84628224322586
20
269.439277423871
10
239.3910362600903
20
267.93853254107927
10
238.65175689842036
20
266.5554381358432
10
237.65685424949237
20
265.34314575050763
10
236.4445618641568
20
264.3482431015796
10
235.06146745892073
20
263.6089637399097
10
233.56072257612902
20
263.15371775677414
10
232
20
263
10
48
20
263
10
48
20
263
10
46.439277423870976
20
263.15371775677414
10
44.93853254107928
20
263.6089637399097
10
43.55543813584318
20
264.3482431015796
10
42.34314575050762
20
265.34314575050763
10
41.34824310157964
20
266.5554381358432
10
40.608963739909704
20
267.93853254107927
10
40.15371775677416
20
269.439277423871
10
40
20
271
10
40
20
335
10
40
20
335
10
40.15371775677416
20
336.560722576129
10
40.608963739909704
20
338.06146745892073
10
41.348243101579634
20
339.4445618641568
10
42.34314575050762
20
340.65685424949237
10
43.55543813584318
20
341.6517568984204
10
44.938532541079276
20
342.3910362600903
10
46.43927742387097
20
342.84628224322586
10
48
20
343
10
48
20
343
0
TEXT
5
25
330
C
100
AcDbEntity
420
0
8
0
100
AcDbText
10
50
20
316
30
0
40
17
1
Drop shadow
7
STANDARD
100
AcDbText
0
LWPOLYLINE
5
26
330
C
100
AcDbEntity
420
0
8
0
100
AcDbPolyline
90
42
70
0
43
0
38
0
39
0
10
292
20
343
10
476
20
343
10
476
20
343
10
477.560722576129
20
342.84628224322586
10
479.06146745892073
20
342.3910362600903
10
480.4445618641568
20
341.6517568984204
10
481.65685424949237
20
340.65685424949237
10
482.6517568984204
20
339.4445618641568
10
483.3910362600903
20
338.06146745892073
10
483.84628224322586
20
336.560722576129
10
484
20
335
10
484
20
271
10
484
20
271
10
483.84628224322586
20
269.439277423871
10
483.3910362600903
20
267.93853254107927
10
482.6517568984204
20
266.5554381358432
10
481.65685424949237
20
265.34314575050763
10
480.4445618641568
20
264.3482431015796
10
479.06146745892073
20
263.6089637399097
10
477.560722576129
20
263.15371775677414
10
476
20
263
10
292
20
263
10
292
20
263
10
290.439277423871
20
263.15371775677414
10
288.93853254107927
20
263.6089637399097
10
287.5554381358432
20
264.3482431015796
10
286.34314575050763
20
265.34314575050763
10
285.3482431015796
20
266.5554381358432
10
284.6089637399097
20
267.93853254107927
10
284.15371775677414
20
269.439277423871
10
284
20
271
10
284
20
335
10
284
20
335
10
284.15371775677414
20
336.560722576129
10
284.6089637399097
20
338.06146745892073
10
285.3482431015796
20
339.4445618641568
10
286.34314575050763
20
340.65685424949237
10
287.5554381358432
20
341.6517568984204
10
288.93853254107927
20
342.3910362600903
10
290.439277423871
20
342.84628224322586
10
292
20
343
10
292
20
343
0
TEXT
5
27
330
C
100
AcDbEntity
420
0
8
0
100
AcDbText
10
294
20
316
30
0
40
17
1
Inset shadow
7
STANDARD
100
AcDbText
0
ENDSEC
0
SECTION
2
OBJECTS
0
DICTIONARY
5
A
330
0
100
AcDbDictionary
281
1
3
ACAD_GROUP
350
B
0
DICTIONARY
5
B
330
A
100
AcDbDictionary
281
0
0
ENDSEC
0
EOF