0
SECTION
2
HEADER
9
$ACADVER
1
AC1021
9
$LASTSAVEDBY
1
@tarikjabiri/dxf
9
$HANDSEED
5
2F
9
$INSUNITS
70
0
9
$CLAYER
8
0
9
$VIEWCTR
10
491
20
372.25
0
ENDSEC
0
SECTION
2
CLASSES
0
ENDSEC
0
SECTION
2
TABLES
0
TABLE
2
VPORT
5
1
330
0
100
AcDbSymbolTable
70
1
0
VPORT
5
19
330
1
100
AcDbSymbolTableRecord
100
AcDbViewportTableRecord
2
*Active
70
0
10
0
20
0
11
1
21
1
12
491
22
372.25
13
0
23
0
14
10
24
10
15
10
25
10
16
0
26
0
36
1
17
0
27
0
37
0
40
944.5
41
2
42
50
43
0
44
0
50
0
51
0
71
0
72
100
73
1
74
3
75
0
76
1
77
0
78
0
281
0
65
1
110
0
120
0
130
0
111
1
121
0
131
0
112
0
122
1
132
0
79
0
146
0
348
10020
60
7
61
5
292
1
282
1
141
0
142
0
63
250
421
3358443
0
ENDTAB
0
TABLE
2
LTYPE
5
2
330
0
100
AcDbSymbolTable
70
3
0
LTYPE
5
12
330
2
100
AcDbSymbolTableRecord
100
AcDbLinetypeTableRecord
2
ByBlock
70
0
3

72
65
73
0
40
0
0
LTYPE
5
13
330
2
100
AcDbSymbolTableRecord
100
AcDbLinetypeTableRecord
2
ByLayer
70
0
3

72
65
73
0
40
0
0
LTYPE
5
14
330
2
100
AcDbSymbolTableRecord
100
AcDbLinetypeTableRecord
2
Continuous
70
0
3
Solid line
72
65
73
0
40
0
0
ENDTAB
0
TABLE
2
LAYER
5
3
330
0
100
AcDbSymbolTable
70
1
0
LAYER
5
15
330
3
100
AcDbSymbolTableRecord
100
AcDbLayerTableRecord
2
0
70
0
62
7
6
Continuous
370
0
390
0
0
ENDTAB
0
TABLE
2
STYLE
5
4
330
0
100
AcDbSymbolTable
70
2
0
STYLE
5
16
330
4
100
AcDbSymbolTableRecord
100
AcDbTextStyleTableRecord
2
Standard
70
0
40
0
41
1
50
0
71
0
42
1
3
txt
4

0
STYLE
5
1B
330
4
100
AcDbSymbolTableRecord
100
AcDbTextStyleTableRecord
2
Arial
70
0
40
0
41
1
50
0
71
0
42
1
3
Arial.ttf
4

0
ENDTAB
0
TABLE
2
VIEW
5
5
330
0
100
AcDbSymbolTable
70
0
0
ENDTAB
0
TABLE
2
UCS
5
6
330
0
100
AcDbSymbolTable
70
0
0
ENDTAB
0
TABLE
2
APPID
5
7
330
0
100
AcDbSymbolTable
70
1
0
APPID
5
17
330
7
100
AcDbSymbolTableRecord
100
AcDbRegAppTableRecord
2
ACAD
70
0
0
ENDTAB
0
TABLE
2
DIMSTYLE
5
8
330
0
100
AcDbSymbolTable
70
1
100
AcDbDimStyleTable
0
DIMSTYLE
105
18
330
8
100
AcDbSymbolTableRecord
100
AcDbDimStyleTableRecord
2
Standard
70
0
340
16
0
ENDTAB
0
TABLE
2
BLOCK_RECORD
5
9
330
0
100
AcDbSymbolTable
70
2
0
BLOCK_RECORD
5
C
330
9
100
AcDbSymbolTableRecord
100
AcDbBlockTableRecord
2
*Model_Space
70
0
280
1
281
0
0
BLOCK_RECORD
5
F
330
9
100
AcDbSymbolTableRecord
100
AcDbBlockTableRecord
2
*Paper_Space
70
0
280
1
281
0
0
ENDTAB
0
ENDSEC
0
SECTION
2
BLOCKS
0
BLOCK
5
D
330
C
100
AcDbEntity
8
0
100
AcDbBlockBegin
2
*Model_Space
70
0
10
0
20
0
30
0
3
*Model_Space
1

0
ENDBLK
5
E
100
AcDbEntity
8
0
100
AcDbBlockEnd
0
BLOCK
5
10
330
F
100
AcDbEntity
8
0
100
AcDbBlockBegin
2
*Paper_Space
70
0
10
0
20
0
30
0
3
*Paper_Space
1

0
ENDBLK
5
11
100
AcDbEntity
8
0
100
AcDbBlockEnd
0
ENDSEC
0
SECTION
2
ENTITIES
0
TEXT
5
1A
330
C
100
AcDbEntity
420
0
8
0
100
AcDbText
10
0
20
744.5
30
0
40
18
1
Gradients
7
Arial
100
AcDbText
0
LWPOLYLINE
5
1C
330
C
100
AcDbEntity
420
6717162
8
0
100
AcDbPolyline
90
42
70
0
43
0
38
0
39
0
10
18
20
552
10
252
20
552
10
252
20
552
10
253.56072257612902
20
551.8462822432259
10
255.06146745892073
20
551.3910362600902
10
256.4445618641568
20
550.6517568984203
10
257.65685424949237
20
549.6568542494924
10
258.6517568984204
20
548.4445618641569
10
259.3910362600903
20
547.0614674589208
10
259.84628224322586
20
545.560722576129
10
260
20
544
10
260
20
480
10
260
20
480
10
259.84628224322586
20
478.439277423871
10
259.3910362600903
20
476.93853254107927
10
258.6517568984204
20
475.5554381358432
10
257.65685424949237
20
474.34314575050763
10
256.4445618641568
20
473.3482431015796
10
255.06146745892073
20
472.6089637399097
10
253.56072257612902
20
472.15371775677414
10
252
20
472
10
18
20
472
10
18
20
472
10
16.439277423870976
20
472.15371775677414
10
14.938532541079283
20
472.6089637399097
10
13.555438135843184
20
473.3482431015796
10
12.34314575050762
20
474.34314575050763
10
11.348243101579637
20
475.5554381358432
10
10.608963739909706
20
476.93853254107927
10
10.153717756774157
20
478.439277423871
10
10
20
480
10
10
20
544
10
10
20
544
10
10.153717756774157
20
545.560722576129
10
10.608963739909704
20
547.0614674589208
10
11.348243101579637
20
548.4445618641569
10
12.343145750507619
20
549.6568542494924
10
13.555438135843183
20
550.6517568984203
10
14.938532541079278
20
551.3910362600902
10
16.43927742387097
20
551.8462822432258
10
18
20
552
10
18
20
552
0
TEXT
5
1D
330
C
100
AcDbEntity
420
16777215
8
0
100
AcDbText
10
20
20
529.5
30
0
40
16
1
Linear gradient
7
Arial
100
AcDbText
0
LWPOLYLINE
5
1E
330
C
100
AcDbEntity
420
16751262
8
0
100
AcDbPolyline
90
42
70
0
43
0
38
0
39
0
10
359
20
688
10
359
20
688
10
359
20
688
10
373.63177415120964
20
686.5588960302423
10
387.70125742738173
20
682.2909649383465
10
400.6677674764702
20
675.3602209226909
10
412.03300858899104
20
666.033008588991
10
421.36022092269087
20
654.6677674764702
10
428.2909649383465
20
641.7012574273817
10
432.5588960302423
20
627.6317741512096
10
434
20
613
10
434
20
613
10
434
20
613
10
432.5588960302423
20
598.3682258487904
10
428.2909649383465
20
584.2987425726183
10
421.36022092269087
20
571.3322325235299
10
412.03300858899104
20
559.966991411009
10
400.6677674764702
20
550.6397790773091
10
387.70125742738173
20
543.7090350616535
10
373.63177415120964
20
539.4411039697577
10
359
20
538
10
359
20
538
10
359
20
538
10
344.36822584879036
20
539.4411039697577
10
330.29874257261827
20
543.7090350616535
10
317.33223252352985
20
550.6397790773091
10
305.96699141100896
20
559.966991411009
10
296.6397790773091
20
571.3322325235299
10
289.7090350616535
20
584.2987425726183
10
285.4411039697577
20
598.3682258487904
10
284
20
613
10
284
20
613
10
284
20
613
10
285.4411039697577
20
627.6317741512096
10
289.7090350616535
20
641.7012574273817
10
296.6397790773091
20
654.6677674764701
10
305.9669914110089
20
666.033008588991
10
317.33223252352985
20
675.3602209226909
10
330.2987425726182
20
682.2909649383465
10
344.36822584879036
20
686.5588960302423
10
359
20
688
10
359
20
688
0
LWPOLYLINE
5
1F
330
C
100
AcDbEntity
420
16711680
8
0
100
AcDbPolyline
90
42
70
0
43
0
38
0
39
0
10
534
20
688
10
534
20
688
10
534
20
688
10
548.6317741512096
20
686.5588960302423
10
562.7012574273817
20
682.2909649383465
10
575.6677674764702
20
675.3602209226909
10
587.033008588991
20
666.033008588991
10
596.3602209226909
20
654.6677674764702
10
603.2909649383465
20
641.7012574273817
10
607.5588960302423
20
627.6317741512096
10
609
20
613
10
609
20
613
10
609
20
613
10
607.5588960302423
20
598.3682258487904
10
603.2909649383465
20
584.2987425726183
10
596.3602209226909
20
571.3322325235299
10
587.033008588991
20
559.966991411009
10
575.6677674764702
20
550.6397790773091
10
562.7012574273817
20
543.7090350616535
10
548.6317741512096
20
539.4411039697577
10
534
20
538
10
534
20
538
10
534
20
538
10
519.3682258487904
20
539.4411039697577
10
505.29874257261827
20
543.7090350616535
10
492.33223252352985
20
550.6397790773091
10
480.96699141100896
20
559.966991411009
10
471.6397790773091
20
571.3322325235299
10
464.7090350616535
20
584.2987425726183
10
460.4411039697577
20
598.3682258487904
10
459
20
613
10
459
20
613
10
459
20
613
10
460.4411039697577
20
627.6317741512096
10
464.7090350616535
20
641.7012574273817
10
471.6397790773091
20
654.6677674764701
10
480.9669914110089
20
666.033008588991
10
492.33223252352985
20
675.3602209226909
10
505.2987425726182
20
682.2909649383465
10
519.3682258487903
20
686.5588960302423
10
534
20
688
10
534
20
688
0
HATCH
5
20
330
C
100
AcDbEntity
420
16739179
8
0
100
AcDbHatch
10
0
20
0
30
0
210
0
220
0
230
1
2
SOLID
70
1
71
0
91
1
92
7
72
0
73
1
93
20
10
641.060292274305
20
516.3406160482172
10
641.084377776283
20
526.9471904192662
10
644.4967865565219
20
535.0004795806306
10
651.2975186150219
20
540.5004835323102
10
661.4865739517828
20
543.447202274305
10
831.8126660482172
20
567.384957725695
10
842.4192404192663
20
567.360872223717
10
850.4725295806306
20
563.9484634434781
10
855.9725335323102
20
557.1477313849781
10
858.919252274305
20
546.9586760482172
10
868.939707725695
20
475.65938395178284
10
868.915622223717
20
465.0528095807338
10
865.5032134434781
20
456.9995204193695
10
858.7024813849781
20
451.4995164676899
10
848.5134260482172
20
448.55279772569503
10
678.1873339517828
20
424.61504227430504
10
667.5807595807337
20
424.63912777628303
10
659.5274704193694
20
428.051536556522
10
654.0274664676898
20
434.8522686150219
10
651.080747725695
20
445.04132395178283
97
0
75
1
76
1
47
1
98
0
0
LWPOLYLINE
5
21
330
C
100
AcDbEntity
420
16739179
8
0
100
AcDbPolyline
90
21
70
0
43
0
38
0
39
0
10
641.060292274305
20
516.3406160482172
10
641.084377776283
20
526.9471904192662
10
644.4967865565219
20
535.0004795806306
10
651.2975186150219
20
540.5004835323102
10
661.4865739517828
20
543.447202274305
10
831.8126660482172
20
567.384957725695
10
842.4192404192663
20
567.360872223717
10
850.4725295806306
20
563.9484634434781
10
855.9725335323102
20
557.1477313849781
10
858.919252274305
20
546.9586760482172
10
868.939707725695
20
475.65938395178284
10
868.915622223717
20
465.0528095807338
10
865.5032134434781
20
456.9995204193695
10
858.7024813849781
20
451.4995164676899
10
848.5134260482172
20
448.55279772569503
10
678.1873339517828
20
424.61504227430504
10
667.5807595807337
20
424.63912777628303
10
659.5274704193694
20
428.051536556522
10
654.0274664676898
20
434.8522686150219
10
651.080747725695
20
445.04132395178283
10
641.060292274305
20
516.3406160482172
0
TEXT
5
22
330
C
100
AcDbEntity
420
1058114
8
0
100
AcDbText
10
655.271949233806
20
515.8133789933896
30
0
40
16
1
Offset conic
50
7.999994819856547
7
Arial
100
AcDbText
0
LWPOLYLINE
5
23
330
C
100
AcDbEntity
420
1002613
8
0
100
AcDbPolyline
90
42
70
0
43
0
38
0
39
0
10
992
20
718
10
992
20
718
10
992
20
718
10
1009.5581289814515
20
716.2706752362908
10
1026.4415089128581
20
711.1491579260158
10
1042.0013209717642
20
702.8322651072291
10
1055.6396103067893
20
691.6396103067893
10
1066.832265107229
20
678.0013209717642
10
1075.1491579260157
20
662.4415089128581
10
1080.2706752362908
20
645.5581289814515
10
1082
20
628
10
1082
20
628
10
1082
20
628
10
1080.2706752362908
20
610.4418710185485
10
1075.1491579260157
20
593.5584910871419
10
1066.832265107229
20
577.9986790282358
10
1055.6396103067893
20
564.3603896932107
10
1042.0013209717642
20
553.1677348927709
10
1026.4415089128581
20
544.8508420739843
10
1009.5581289814515
20
539.7293247637092
10
992
20
538
10
992
20
538
10
992
20
538
10
974.4418710185485
20
539.7293247637092
10
957.5584910871419
20
544.8508420739843
10
941.9986790282359
20
553.1677348927709
10
928.3603896932108
20
564.3603896932107
10
917.1677348927709
20
577.9986790282358
10
908.8508420739842
20
593.5584910871419
10
903.7293247637092
20
610.4418710185485
10
902
20
628
10
902
20
628
10
902
20
628
10
903.7293247637092
20
645.5581289814515
10
908.8508420739842
20
662.4415089128581
10
917.1677348927709
20
678.0013209717641
10
928.3603896932107
20
691.6396103067893
10
941.9986790282358
20
702.8322651072291
10
957.5584910871419
20
711.1491579260157
10
974.4418710185485
20
716.2706752362907
10
992
20
718
10
992
20
718
0
LWPOLYLINE
5
24
330
C
100
AcDbEntity
420
1193307
8
0
100
AcDbPolyline
90
42
70
0
43
0
38
0
39
0
10
85
20
416
10
85
20
416
10
85
20
416
10
99.63177415120963
20
414.5588960302423
10
113.70125742738173
20
410.2909649383465
10
126.66776747647017
20
403.36022092269087
10
138.03300858899107
20
394.03300858899104
10
147.3602209226909
20
382.66776747647015
10
154.29096493834652
20
369.70125742738173
10
158.5588960302423
20
355.63177415120964
10
160
20
341
10
160
20
341
10
160
20
341
10
158.5588960302423
20
326.36822584879036
10
154.29096493834652
20
312.29874257261827
10
147.3602209226909
20
299.33223252352985
10
138.03300858899107
20
287.96699141100896
10
126.66776747647017
20
278.63977907730913
10
113.70125742738173
20
271.7090350616535
10
99.63177415120963
20
267.4411039697577
10
85
20
266
10
85
20
266
10
85
20
266
10
70.36822584879039
20
267.4411039697577
10
56.298742572618266
20
271.7090350616535
10
43.33223252352985
20
278.6397790773091
10
31.96699141100894
20
287.96699141100896
10
22.6397790773091
20
299.33223252352985
10
15.709035061653495
20
312.29874257261827
10
11.44110396975772
20
326.36822584879036
10
10
20
341
10
10
20
341
10
10
20
341
10
11.44110396975772
20
355.63177415120964
10
15.70903506165348
20
369.70125742738173
10
22.639779077309093
20
382.66776747647015
10
31.966991411008927
20
394.03300858899104
10
43.33223252352984
20
403.36022092269087
10
56.298742572618224
20
410.2909649383465
10
70.36822584879035
20
414.5588960302423
10
84.99999999999999
20
416
10
85
20
416
0
LWPOLYLINE
5
25
330
C
100
AcDbEntity
420
735572
8
0
100
AcDbPolyline
90
42
70
0
43
0
38
0
39
0
10
259
20
416
10
259
20
416
10
259
20
416
10
273.63177415120964
20
414.5588960302423
10
287.70125742738173
20
410.2909649383465
10
300.6677674764702
20
403.36022092269087
10
312.03300858899104
20
394.03300858899104
10
321.36022092269087
20
382.66776747647015
10
328.2909649383465
20
369.70125742738173
10
332.5588960302423
20
355.63177415120964
10
334
20
341
10
334
20
341
10
334
20
341
10
332.5588960302423
20
326.36822584879036
10
328.2909649383465
20
312.29874257261827
10
321.36022092269087
20
299.33223252352985
10
312.03300858899104
20
287.96699141100896
10
300.6677674764702
20
278.63977907730913
10
287.70125742738173
20
271.7090350616535
10
273.63177415120964
20
267.4411039697577
10
259
20
266
10
259
20
266
10
259
20
266
10
244.3682258487904
20
267.4411039697577
10
230.29874257261827
20
271.7090350616535
10
217.33223252352985
20
278.6397790773091
10
205.96699141100893
20
287.96699141100896
10
196.6397790773091
20
299.33223252352985
10
189.70903506165348
20
312.29874257261827
10
185.4411039697577
20
326.36822584879036
10
184
20
341
10
184
20
341
10
184
20
341
10
185.4411039697577
20
355.63177415120964
10
189.70903506165348
20
369.70125742738173
10
196.6397790773091
20
382.66776747647015
10
205.96699141100893
20
394.03300858899104
10
217.33223252352985
20
403.36022092269087
10
230.2987425726182
20
410.2909649383465
10
244.36822584879036
20
414.5588960302423
10
259
20
416
10
259
20
416
0
LWPOLYLINE
5
26
330
C
100
AcDbEntity
420
6319548
8
0
100
AcDbPolyline
90
5
70
0
43
0
38
0
39
0
10
359
20
280
10
609
20
280
10
609
20
200
10
359
20
200
10
359
20
280
0
TEXT
5
27
330
C
100
AcDbEntity
420
16777215
8
0
100
AcDbText
10
368.90625
20
257.5
30
0
40
16
1
Repeating stripes
7
Arial
100
AcDbText
0
LWPOLYLINE
5
28
330
C
100
AcDbEntity
420
13421772
8
0
100
AcDbPolyline
90
5
70
0
43
0
38
0
39
0
10
633
20
281
10
933
20
281
10
933
20
181
10
633
20
181
10
633
20
281
0
TEXT
5
29
330
C
100
AcDbEntity
420
0
8
0
100
AcDbText
10
644.359375
20
257.5
30
0
40
16
1
Multiple backgrounds
7
Arial
100
AcDbText
0
TEXT
5
2A
330
C
100
AcDbEntity
420
0
8
0
100
AcDbText
10
0
20
136.5
30
0
40
18
1
Box Shadows
7
Arial
100
AcDbText
0
LWPOLYLINE
5
2B
330
C
100
AcDbEntity
420
16777215
8
0
100
AcDbPolyline
90
42
70
0
43
0
38
0
39
0
10
28
20
100
10
212
20
100
10
212
20
100
10
213.56072257612902
20
99.8462822432258
10
215.06146745892073
20
99.39103626009035
10
216.4445618641568
20
98.65175689842033
10
217.65685424949237
20
97.65685424949243
10
218.65175689842036
20
96.44456186415687
10
219.3910362600903
20
95.06146745892067
10
219.84628224322586
20
93.56072257612902
10
220
20
92
10
220
20
28
10
220
20
28
10
219.84628224322586
20
26.439277423870976
10
219.3910362600903
20
24.938532541079326
10
218.65175689842036
20
23.555438135843133
10
217.65685424949237
20
22.343145750507574
10
216.4445618641568
20
21.34824310157967
10
215.06146745892073
20
20.608963739909655
10
213.56072257612902
20
20.1537177567742
10
212
20
20
10
28
20
20
10
28
20
20
10
26.439277423870976
20
20.1537177567742
10
24.938532541079283
20
20.608963739909655
10
23.555438135843183
20
21.34824310157967
10
22.34314575050762
20
22.343145750507574
10
21.348243101579637
20
23.555438135843133
10
20.608963739909704
20
24.938532541079326
10
20.153717756774157
20
26.439277423870976
10
20
20
28
10
20
20
92
10
20
20
92
10
20.153717756774157
20
93.56072257612902
10
20.608963739909704
20
95.06146745892067
10
21.348243101579637
20
96.44456186415687
10
22.343145750507617
20
97.65685424949243
10
23.555438135843183
20
98.65175689842033
10
24.938532541079276
20
99.39103626009035
10
26.43927742387097
20
99.8462822432258
10
28
20
100
10
28
20
100
0
TEXT
5
2C
330
C
100
AcDbEntity
420
0
8
0
100
AcDbText
10
30
20
77.5
30
0
40
16
1
Drop shadow
7
Arial
100
AcDbText
0
LWPOLYLINE
5
2D
330
C
100
AcDbEntity
420
15527921
8
0
100
AcDbPolyline
90
42
70
0
43
0
38
0
39
0
10
272
20
100
10
456
20
100
10
456
20
100
10
457.560722576129
20
99.8462822432258
10
459.06146745892073
20
99.39103626009035
10
460.4445618641568
20
98.65175689842033
10
461.65685424949237
20
97.65685424949243
10
462.6517568984204
20
96.44456186415687
10
463.3910362600903
20
95.06146745892067
10
463.84628224322586
20
93.56072257612902
10
464
20
92
10
464
20
28
10
464
20
28
10
463.84628224322586
20
26.439277423870976
10
463.3910362600903
20
24.938532541079326
10
462.6517568984204
20
23.555438135843133
10
461.65685424949237
20
22.343145750507574
10
460.4445618641568
20
21.34824310157967
10
459.06146745892073
20
20.608963739909655
10
457.560722576129
20
20.1537177567742
10
456
20
20
10
272
20
20
10
272
20
20
10
270.439277423871
20
20.1537177567742
10
268.93853254107927
20
20.608963739909655
10
267.5554381358432
20
21.34824310157967
10
266.34314575050763
20
22.343145750507574
10
265.3482431015796
20
23.555438135843133
10
264.6089637399097
20
24.938532541079326
10
264.15371775677414
20
26.439277423870976
10
264
20
28
10
264
20
92
10
264
20
92
10
264.15371775677414
20
93.56072257612902
10
264.6089637399097
20
95.06146745892067
10
265.3482431015796
20
96.44456186415687
10
266.34314575050763
20
97.65685424949243
10
267.5554381358432
20
98.65175689842033
10
268.93853254107927
20
99.39103626009035
10
270.439277423871
20
99.8462822432258
10
272
20
100
10
272
20
100
0
TEXT
5
2E
330
C
100
AcDbEntity
420
0
8
0
100
AcDbText
10
274.453125
20
77.5
30
0
40
16
1
Inset shadow
7
Arial
100
AcDbText
0
ENDSEC
0
SECTION
2
OBJECTS
0
DICTIONARY
5
A
330
0
100
AcDbDictionary
281
1
3
ACAD_GROUP
350
B
0
DICTIONARY
5
B
330
A
100
AcDbDictionary
281
0
0
ENDSEC
0
EOF