0
SECTION
2
HEADER
9
$ACADVER
1
AC1021
9
$LASTSAVEDBY
1
@tarikjabiri/dxf
9
$HANDSEED
5
28
9
$INSUNITS
70
0
9
$CLAYER
8
0
9
$VIEWCTR
10
553.9000244140625
20
254.75
0
ENDSEC
0
SECTION
2
CLASSES
0
ENDSEC
0
SECTION
2
TABLES
0
TABLE
2
VPORT
5
1
330
0
100
AcDbSymbolTable
70
1
0
VPORT
5
19
330
1
100
AcDbSymbolTableRecord
100
AcDbViewportTableRecord
2
*Active
70
0
10
0
20
0
11
1
21
1
12
553.9000244140625
22
254.75
13
0
23
0
14
10
24
10
15
10
25
10
16
0
26
0
36
1
17
0
27
0
37
0
40
563.5
41
2
42
50
43
0
44
0
50
0
51
0
71
0
72
100
73
1
74
3
75
0
76
1
77
0
78
0
281
0
65
1
110
0
120
0
130
0
111
1
121
0
131
0
112
0
122
1
132
0
79
0
146
0
348
10020
60
7
61
5
292
1
282
1
141
0
142
0
63
250
421
3358443
0
ENDTAB
0
TABLE
2
LTYPE
5
2
330
0
100
AcDbSymbolTable
70
3
0
LTYPE
5
12
330
2
100
AcDbSymbolTableRecord
100
AcDbLinetypeTableRecord
2
ByBlock
70
0
3

72
65
73
0
40
0
0
LTYPE
5
13
330
2
100
AcDbSymbolTableRecord
100
AcDbLinetypeTableRecord
2
ByLayer
70
0
3

72
65
73
0
40
0
0
LTYPE
5
14
330
2
100
AcDbSymbolTableRecord
100
AcDbLinetypeTableRecord
2
Continuous
70
0
3
Solid line
72
65
73
0
40
0
0
ENDTAB
0
TABLE
2
LAYER
5
3
330
0
100
AcDbSymbolTable
70
1
0
LAYER
5
15
330
3
100
AcDbSymbolTableRecord
100
AcDbLayerTableRecord
2
0
70
0
62
7
6
Continuous
370
0
390
0
0
ENDTAB
0
TABLE
2
STYLE
5
4
330
0
100
AcDbSymbolTable
70
1
0
STYLE
5
16
330
4
100
AcDbSymbolTableRecord
100
AcDbTextStyleTableRecord
2
Standard
70
0
40
0
41
1
50
0
71
0
42
1
3
txt
4

0
ENDTAB
0
TABLE
2
VIEW
5
5
330
0
100
AcDbSymbolTable
70
0
0
ENDTAB
0
TABLE
2
UCS
5
6
330
0
100
AcDbSymbolTable
70
0
0
ENDTAB
0
TABLE
2
APPID
5
7
330
0
100
AcDbSymbolTable
70
1
0
APPID
5
17
330
7
100
AcDbSymbolTableRecord
100
AcDbRegAppTableRecord
2
ACAD
70
0
0
ENDTAB
0
TABLE
2
DIMSTYLE
5
8
330
0
100
AcDbSymbolTable
70
1
100
AcDbDimStyleTable
0
DIMSTYLE
105
18
330
8
100
AcDbSymbolTableRecord
100
AcDbDimStyleTableRecord
2
Standard
70
0
340
16
0
ENDTAB
0
TABLE
2
BLOCK_RECORD
5
9
330
0
100
AcDbSymbolTable
70
2
0
BLOCK_RECORD
5
C
330
9
100
AcDbSymbolTableRecord
100
AcDbBlockTableRecord
2
*Model_Space
70
0
280
1
281
0
0
BLOCK_RECORD
5
F
330
9
100
AcDbSymbolTableRecord
100
AcDbBlockTableRecord
2
*Paper_Space
70
0
280
1
281
0
0
ENDTAB
0
ENDSEC
0
SECTION
2
BLOCKS
0
BLOCK
5
D
330
C
100
AcDbEntity
8
0
100
AcDbBlockBegin
2
*Model_Space
70
0
10
0
20
0
30
0
3
*Model_Space
1

0
ENDBLK
5
E
100
AcDbEntity
8
0
100
AcDbBlockEnd
0
BLOCK
5
10
330
F
100
AcDbEntity
8
0
100
AcDbBlockBegin
2
*Paper_Space
70
0
10
0
20
0
30
0
3
*Paper_Space
1

0
ENDBLK
5
11
100
AcDbEntity
8
0
100
AcDbBlockEnd
0
ENDSEC
0
SECTION
2
ENTITIES
0
TEXT
5
1A
330
C
100
AcDbEntity
420
0
8
0
100
AcDbText
10
0
20
436.5
30
0
40
20
1
Gradients
7
STANDARD
100
AcDbText
0
LWPOLYLINE
5
1B
330
C
100
AcDbEntity
420
16777215
8
0
100
AcDbPolyline
90
42
70
0
43
0
38
0
39
0
10
18
20
280.5
10
252
20
280.5
10
252
20
280.5
10
253.56072257612902
20
280.34628224322586
10
255.06146745892073
20
279.8910362600903
10
256.4445618641568
20
279.15175689842033
10
257.65685424949237
20
278.15685424949237
10
258.6517568984204
20
276.9445618641568
10
259.3910362600903
20
275.56146745892073
10
259.84628224322586
20
274.060722576129
10
260
20
272.5
10
260
20
208.5
10
260
20
208.5
10
259.84628224322586
20
206.93927742387098
10
259.3910362600903
20
205.43853254107927
10
258.6517568984204
20
204.0554381358432
10
257.65685424949237
20
202.84314575050763
10
256.4445618641568
20
201.84824310157964
10
255.06146745892073
20
201.1089637399097
10
253.56072257612902
20
200.65371775677414
10
252
20
200.5
10
18
20
200.5
10
18
20
200.5
10
16.439277423870976
20
200.65371775677414
10
14.938532541079283
20
201.1089637399097
10
13.555438135843184
20
201.84824310157964
10
12.34314575050762
20
202.84314575050763
10
11.348243101579637
20
204.0554381358432
10
10.608963739909706
20
205.43853254107927
10
10.153717756774157
20
206.93927742387098
10
10
20
208.5
10
10
20
272.5
10
10
20
272.5
10
10.153717756774157
20
274.060722576129
10
10.608963739909704
20
275.56146745892073
10
11.348243101579637
20
276.9445618641568
10
12.343145750507619
20
278.15685424949237
10
13.555438135843183
20
279.15175689842033
10
14.938532541079278
20
279.8910362600903
10
16.43927742387097
20
280.3462822432258
10
18
20
280.5
10
18
20
280.5
0
TEXT
5
1C
330
C
100
AcDbEntity
420
16777215
8
0
100
AcDbText
10
20
20
253
30
0
40
17
1
Linear gradient
7
STANDARD
100
AcDbText
0
LWPOLYLINE
5
1D
330
C
100
AcDbEntity
420
0
8
0
100
AcDbPolyline
90
42
70
0
43
0
38
0
39
0
10
334.45001220703125
20
416
10
384.45001220703125
20
416
10
384.45001220703125
20
416
10
394.2045283078377
20
415.0392640201615
10
403.5841838252857
20
412.19397662556435
10
412.2285238580114
20
407.57348061512727
10
419.8053512663586
20
401.3553390593274
10
426.0234928221585
20
393.77851165098014
10
430.6439888325956
20
385.13417161825447
10
433.48927622719276
20
375.7545161008064
10
434.45001220703125
20
366
10
434.45001220703125
20
316
10
434.45001220703125
20
316
10
433.48927622719276
20
306.2454838991936
10
430.6439888325956
20
296.8658283817455
10
426.0234928221585
20
288.22148834901986
10
419.8053512663586
20
280.6446609406726
10
412.2285238580114
20
274.42651938487273
10
403.5841838252857
20
269.80602337443565
10
394.2045283078377
20
266.9607359798385
10
384.45001220703125
20
266
10
334.45001220703125
20
266
10
334.45001220703125
20
266
10
324.6954961062248
20
266.9607359798385
10
315.3158405887768
20
269.80602337443565
10
306.67150055605117
20
274.42651938487273
10
299.0946731477039
20
280.6446609406726
10
292.876531591904
20
288.22148834901986
10
288.2560355814669
20
296.8658283817455
10
285.41074818686974
20
306.2454838991936
10
284.45001220703125
20
316
10
284.45001220703125
20
366
10
284.45001220703125
20
366
10
285.41074818686974
20
375.7545161008064
10
288.2560355814669
20
385.13417161825447
10
292.876531591904
20
393.7785116509801
10
299.0946731477039
20
401.3553390593274
10
306.6715005560511
20
407.57348061512727
10
315.3158405887767
20
412.19397662556435
10
324.6954961062248
20
415.0392640201615
10
334.45001220703125
20
416
10
334.45001220703125
20
416
0
LWPOLYLINE
5
1E
330
C
100
AcDbEntity
420
0
8
0
100
AcDbPolyline
90
42
70
0
43
0
38
0
39
0
10
508.8999938964844
20
416
10
558.9000244140625
20
416
10
558.9000244140625
20
416
10
568.6545405148689
20
415.0392640201615
10
578.034196032317
20
412.19397662556435
10
586.6785360650426
20
407.57348061512727
10
594.2553634733899
20
401.3553390593274
10
600.4735050291897
20
393.77851165098014
10
605.0940010396268
20
385.13417161825447
10
607.9392884342241
20
375.7545161008064
10
608.9000244140625
20
366
10
608.9000244140625
20
316
10
608.9000244140625
20
316
10
607.9392884342241
20
306.2454838991936
10
605.0940010396268
20
296.8658283817455
10
600.4735050291897
20
288.22148834901986
10
594.2553634733899
20
280.6446609406726
10
586.6785360650426
20
274.42651938487273
10
578.034196032317
20
269.80602337443565
10
568.6545405148689
20
266.9607359798385
10
558.9000244140625
20
266
10
508.8999938964844
20
266
10
508.8999938964844
20
266
10
499.14547779567795
20
266.9607359798385
10
489.7658222782299
20
269.80602337443565
10
481.1214822455043
20
274.42651938487273
10
473.544654837157
20
280.6446609406726
10
467.3265132813571
20
288.22148834901986
10
462.70601727092003
20
296.8658283817455
10
459.86072987632286
20
306.2454838991936
10
458.8999938964844
20
316
10
458.8999938964844
20
366
10
458.8999938964844
20
366
10
459.86072987632286
20
375.7545161008064
10
462.70601727092003
20
385.13417161825447
10
467.3265132813571
20
393.7785116509801
10
473.544654837157
20
401.3553390593274
10
481.12148224550424
20
407.57348061512727
10
489.76582227822985
20
412.19397662556435
10
499.14547779567795
20
415.0392640201615
10
508.8999938964844
20
416
10
508.8999938964844
20
416
0
LWPOLYLINE
5
1F
330
C
100
AcDbEntity
420
16777215
8
0
100
AcDbPolyline
90
5
70
0
43
0
38
0
39
0
10
633.3499755859375
20
280.5
10
883.3499755859375
20
280.5
10
883.3499755859375
20
200.5
10
633.3499755859375
20
200.5
10
633.3499755859375
20
280.5
0
TEXT
5
20
330
C
100
AcDbEntity
420
16777215
8
0
100
AcDbText
10
643.3499755859375
20
253
30
0
40
17
1
Repeating stripes
7
STANDARD
100
AcDbText
0
LWPOLYLINE
5
21
330
C
100
AcDbEntity
420
13421772
8
0
100
AcDbPolyline
90
5
70
0
43
0
38
0
39
0
10
907.7999877929688
20
281.5
10
1207.800048828125
20
281.5
10
1207.800048828125
20
181.5
10
907.7999877929688
20
181.5
10
907.7999877929688
20
281.5
0
TEXT
5
22
330
C
100
AcDbEntity
420
0
8
0
100
AcDbText
10
918.7999877929688
20
253
30
0
40
17
1
Multiple backgrounds
7
STANDARD
100
AcDbText
0
TEXT
5
23
330
C
100
AcDbEntity
420
0
8
0
100
AcDbText
10
0
20
131
30
0
40
20
1
Box Shadows
7
STANDARD
100
AcDbText
0
LWPOLYLINE
5
24
330
C
100
AcDbEntity
420
0
8
0
100
AcDbPolyline
90
42
70
0
43
0
38
0
39
0
10
28
20
100.5
10
212
20
100.5
10
212
20
100.5
10
213.56072257612902
20
100.34628224322586
10
215.06146745892073
20
99.89103626009029
10
216.4445618641568
20
99.15175689842039
10
217.65685424949237
20
98.15685424949237
10
218.65175689842036
20
96.94456186415681
10
219.3910362600903
20
95.56146745892073
10
219.84628224322586
20
94.06072257612902
10
220
20
92.5
10
220
20
28.5
10
220
20
28.5
10
219.84628224322586
20
26.939277423870976
10
219.3910362600903
20
25.43853254107927
10
218.65175689842036
20
24.05543813584319
10
217.65685424949237
20
22.84314575050763
10
216.4445618641568
20
21.848243101579612
10
215.06146745892073
20
21.10896373990971
10
213.56072257612902
20
20.653717756774142
10
212
20
20.5
10
28
20
20.5
10
28
20
20.5
10
26.439277423870976
20
20.653717756774142
10
24.938532541079283
20
21.10896373990971
10
23.555438135843183
20
21.848243101579612
10
22.34314575050762
20
22.84314575050763
10
21.348243101579637
20
24.05543813584319
10
20.608963739909704
20
25.43853254107927
10
20.153717756774157
20
26.939277423870976
10
20
20
28.5
10
20
20
92.5
10
20
20
92.5
10
20.153717756774157
20
94.06072257612902
10
20.608963739909704
20
95.56146745892073
10
21.348243101579637
20
96.94456186415681
10
22.343145750507617
20
98.15685424949237
10
23.555438135843183
20
99.15175689842039
10
24.938532541079276
20
99.89103626009029
10
26.43927742387097
20
100.34628224322586
10
28
20
100.5
10
28
20
100.5
0
TEXT
5
25
330
C
100
AcDbEntity
420
0
8
0
100
AcDbText
10
30
20
73
30
0
40
17
1
Drop shadow
7
STANDARD
100
AcDbText
0
LWPOLYLINE
5
26
330
C
100
AcDbEntity
420
0
8
0
100
AcDbPolyline
90
42
70
0
43
0
38
0
39
0
10
272.45001220703125
20
100.5
10
456.45001220703125
20
100.5
10
456.45001220703125
20
100.5
10
458.0107347831603
20
100.34628224322586
10
459.511479665952
20
99.89103626009029
10
460.89457407118806
20
99.15175689842039
10
462.1068664565236
20
98.15685424949237
10
463.10176910545164
20
96.94456186415681
10
463.84104846712154
20
95.56146745892073
10
464.2962944502571
20
94.06072257612902
10
464.45001220703125
20
92.5
10
464.45001220703125
20
28.5
10
464.45001220703125
20
28.5
10
464.2962944502571
20
26.939277423870976
10
463.84104846712154
20
25.43853254107927
10
463.10176910545164
20
24.05543813584319
10
462.1068664565236
20
22.84314575050763
10
460.89457407118806
20
21.848243101579612
10
459.511479665952
20
21.10896373990971
10
458.0107347831603
20
20.653717756774142
10
456.45001220703125
20
20.5
10
272.45001220703125
20
20.5
10
272.45001220703125
20
20.5
10
270.8892896309022
20
20.653717756774142
10
269.3885447481105
20
21.10896373990971
10
268.00545034287444
20
21.848243101579612
10
266.7931579575389
20
22.84314575050763
10
265.79825530861086
20
24.05543813584319
10
265.05897594694096
20
25.43853254107927
10
264.6037299638054
20
26.939277423870976
10
264.45001220703125
20
28.5
10
264.45001220703125
20
92.5
10
264.45001220703125
20
92.5
10
264.6037299638054
20
94.06072257612902
10
265.05897594694096
20
95.56146745892073
10
265.79825530861086
20
96.94456186415681
10
266.7931579575389
20
98.15685424949237
10
268.00545034287444
20
99.15175689842039
10
269.3885447481105
20
99.89103626009029
10
270.8892896309022
20
100.34628224322586
10
272.45001220703125
20
100.5
10
272.45001220703125
20
100.5
0
TEXT
5
27
330
C
100
AcDbEntity
420
0
8
0
100
AcDbText
10
274.45001220703125
20
73
30
0
40
17
1
Inset shadow
7
STANDARD
100
AcDbText
0
ENDSEC
0
SECTION
2
OBJECTS
0
DICTIONARY
5
A
330
0
100
AcDbDictionary
281
1
3
ACAD_GROUP
350
B
0
DICTIONARY
5
B
330
A
100
AcDbDictionary
281
0
0
ENDSEC
0
EOF