0
SECTION
2
HEADER
9
$ACADVER
1
AC1021
9
$LASTSAVEDBY
1
@tarikjabiri/dxf
9
$HANDSEED
5
29
9
$INSUNITS
70
0
9
$CLAYER
8
0
9
$VIEWCTR
10
554
20
260
0
ENDSEC
0
SECTION
2
CLASSES
0
ENDSEC
0
SECTION
2
TABLES
0
TABLE
2
VPORT
5
1
330
0
100
AcDbSymbolTable
70
1
0
VPORT
5
19
330
1
100
AcDbSymbolTableRecord
100
AcDbViewportTableRecord
2
*Active
70
0
10
0
20
0
11
1
21
1
12
554
22
260
13
0
23
0
14
10
24
10
15
10
25
10
16
0
26
0
36
1
17
0
27
0
37
0
40
565
41
2
42
50
43
0
44
0
50
0
51
0
71
0
72
100
73
1
74
3
75
0
76
1
77
0
78
0
281
0
65
1
110
0
120
0
130
0
111
1
121
0
131
0
112
0
122
1
132
0
79
0
146
0
348
10020
60
7
61
5
292
1
282
1
141
0
142
0
63
250
421
3358443
0
ENDTAB
0
TABLE
2
LTYPE
5
2
330
0
100
AcDbSymbolTable
70
3
0
LTYPE
5
12
330
2
100
AcDbSymbolTableRecord
100
AcDbLinetypeTableRecord
2
ByBlock
70
0
3

72
65
73
0
40
0
0
LTYPE
5
13
330
2
100
AcDbSymbolTableRecord
100
AcDbLinetypeTableRecord
2
ByLayer
70
0
3

72
65
73
0
40
0
0
LTYPE
5
14
330
2
100
AcDbSymbolTableRecord
100
AcDbLinetypeTableRecord
2
Continuous
70
0
3
Solid line
72
65
73
0
40
0
0
ENDTAB
0
TABLE
2
LAYER
5
3
330
0
100
AcDbSymbolTable
70
1
0
LAYER
5
15
330
3
100
AcDbSymbolTableRecord
100
AcDbLayerTableRecord
2
0
70
0
62
7
6
Continuous
370
0
390
0
0
ENDTAB
0
TABLE
2
STYLE
5
4
330
0
100
AcDbSymbolTable
70
2
0
STYLE
5
16
330
4
100
AcDbSymbolTableRecord
100
AcDbTextStyleTableRecord
2
Standard
70
0
40
0
41
1
50
0
71
0
42
1
3
txt
4

0
STYLE
5
1B
330
4
100
AcDbSymbolTableRecord
100
AcDbTextStyleTableRecord
2
Arial
70
0
40
0
41
1
50
0
71
0
42
1
3
Arial.ttf
4

0
ENDTAB
0
TABLE
2
VIEW
5
5
330
0
100
AcDbSymbolTable
70
0
0
ENDTAB
0
TABLE
2
UCS
5
6
330
0
100
AcDbSymbolTable
70
0
0
ENDTAB
0
TABLE
2
APPID
5
7
330
0
100
AcDbSymbolTable
70
1
0
APPID
5
17
330
7
100
AcDbSymbolTableRecord
100
AcDbRegAppTableRecord
2
ACAD
70
0
0
ENDTAB
0
TABLE
2
DIMSTYLE
5
8
330
0
100
AcDbSymbolTable
70
1
100
AcDbDimStyleTable
0
DIMSTYLE
105
18
330
8
100
AcDbSymbolTableRecord
100
AcDbDimStyleTableRecord
2
Standard
70
0
340
16
0
ENDTAB
0
TABLE
2
BLOCK_RECORD
5
9
330
0
100
AcDbSymbolTable
70
2
0
BLOCK_RECORD
5
C
330
9
100
AcDbSymbolTableRecord
100
AcDbBlockTableRecord
2
*Model_Space
70
0
280
1
281
0
0
BLOCK_RECORD
5
F
330
9
100
AcDbSymbolTableRecord
100
AcDbBlockTableRecord
2
*Paper_Space
70
0
280
1
281
0
0
ENDTAB
0
ENDSEC
0
SECTION
2
BLOCKS
0
BLOCK
5
D
330
C
100
AcDbEntity
8
0
100
AcDbBlockBegin
2
*Model_Space
70
0
10
0
20
0
30
0
3
*Model_Space
1

0
ENDBLK
5
E
100
AcDbEntity
8
0
100
AcDbBlockEnd
0
BLOCK
5
10
330
F
100
AcDbEntity
8
0
100
AcDbBlockBegin
2
*Paper_Space
70
0
10
0
20
0
30
0
3
*Paper_Space
1

0
ENDBLK
5
11
100
AcDbEntity
8
0
100
AcDbBlockEnd
0
ENDSEC
0
SECTION
2
ENTITIES
0
TEXT
5
1A
330
C
100
AcDbEntity
420
0
8
0
100
AcDbText
10
0
20
442.5
30
0
40
18
1
Gradients
7
Arial
100
AcDbText
0
LWPOLYLINE
5
1C
330
C
100
AcDbEntity
420
6717162
8
0
100
AcDbPolyline
90
42
70
0
43
0
38
0
39
0
10
18
20
280
10
252
20
280
10
252
20
280
10
253.56072257612902
20
279.84628224322586
10
255.06146745892073
20
279.3910362600903
10
256.4445618641568
20
278.65175689842033
10
257.65685424949237
20
277.65685424949237
10
258.6517568984204
20
276.4445618641568
10
259.3910362600903
20
275.06146745892073
10
259.84628224322586
20
273.560722576129
10
260
20
272
10
260
20
208
10
260
20
208
10
259.84628224322586
20
206.43927742387098
10
259.3910362600903
20
204.93853254107927
10
258.6517568984204
20
203.5554381358432
10
257.65685424949237
20
202.34314575050763
10
256.4445618641568
20
201.34824310157964
10
255.06146745892073
20
200.6089637399097
10
253.56072257612902
20
200.15371775677414
10
252
20
200
10
18
20
200
10
18
20
200
10
16.439277423870976
20
200.15371775677414
10
14.938532541079283
20
200.6089637399097
10
13.555438135843184
20
201.34824310157964
10
12.34314575050762
20
202.34314575050763
10
11.348243101579637
20
203.5554381358432
10
10.608963739909706
20
204.93853254107927
10
10.153717756774157
20
206.43927742387098
10
10
20
208
10
10
20
272
10
10
20
272
10
10.153717756774157
20
273.560722576129
10
10.608963739909704
20
275.06146745892073
10
11.348243101579637
20
276.4445618641568
10
12.343145750507619
20
277.65685424949237
10
13.555438135843183
20
278.65175689842033
10
14.938532541079278
20
279.3910362600903
10
16.43927742387097
20
279.8462822432258
10
18
20
280
10
18
20
280
0
TEXT
5
1D
330
C
100
AcDbEntity
420
16777215
8
0
100
AcDbText
10
20
20
257.5
30
0
40
16
1
Linear gradient
7
Arial
100
AcDbText
0
LWPOLYLINE
5
1E
330
C
100
AcDbEntity
420
16751262
8
0
100
AcDbPolyline
90
42
70
0
43
0
38
0
39
0
10
359
20
416
10
359
20
416
10
359
20
416
10
373.63177415120964
20
414.5588960302423
10
387.70125742738173
20
410.2909649383465
10
400.6677674764702
20
403.36022092269087
10
412.03300858899104
20
394.03300858899104
10
421.36022092269087
20
382.66776747647015
10
428.2909649383465
20
369.70125742738173
10
432.5588960302423
20
355.6317741512096
10
434
20
341
10
434
20
341
10
434
20
341
10
432.5588960302423
20
326.3682258487904
10
428.2909649383465
20
312.29874257261827
10
421.36022092269087
20
299.33223252352985
10
412.03300858899104
20
287.96699141100896
10
400.6677674764702
20
278.6397790773091
10
387.70125742738173
20
271.7090350616535
10
373.63177415120964
20
267.4411039697577
10
359
20
266
10
359
20
266
10
359
20
266
10
344.36822584879036
20
267.4411039697577
10
330.29874257261827
20
271.7090350616535
10
317.33223252352985
20
278.6397790773091
10
305.96699141100896
20
287.96699141100896
10
296.6397790773091
20
299.33223252352985
10
289.7090350616535
20
312.29874257261827
10
285.4411039697577
20
326.36822584879036
10
284
20
341
10
284
20
341
10
284
20
341
10
285.4411039697577
20
355.63177415120964
10
289.7090350616535
20
369.70125742738173
10
296.6397790773091
20
382.66776747647015
10
305.9669914110089
20
394.03300858899104
10
317.33223252352985
20
403.36022092269087
10
330.2987425726182
20
410.2909649383465
10
344.36822584879036
20
414.5588960302423
10
359
20
416
10
359
20
416
0
LWPOLYLINE
5
1F
330
C
100
AcDbEntity
420
16711680
8
0
100
AcDbPolyline
90
42
70
0
43
0
38
0
39
0
10
534
20
416
10
534
20
416
10
534
20
416
10
548.6317741512096
20
414.5588960302423
10
562.7012574273817
20
410.2909649383465
10
575.6677674764702
20
403.36022092269087
10
587.033008588991
20
394.03300858899104
10
596.3602209226909
20
382.66776747647015
10
603.2909649383465
20
369.70125742738173
10
607.5588960302423
20
355.6317741512096
10
609
20
341
10
609
20
341
10
609
20
341
10
607.5588960302423
20
326.3682258487904
10
603.2909649383465
20
312.29874257261827
10
596.3602209226909
20
299.33223252352985
10
587.033008588991
20
287.96699141100896
10
575.6677674764702
20
278.6397790773091
10
562.7012574273817
20
271.7090350616535
10
548.6317741512096
20
267.4411039697577
10
534
20
266
10
534
20
266
10
534
20
266
10
519.3682258487904
20
267.4411039697577
10
505.29874257261827
20
271.7090350616535
10
492.33223252352985
20
278.6397790773091
10
480.96699141100896
20
287.96699141100896
10
471.6397790773091
20
299.33223252352985
10
464.7090350616535
20
312.29874257261827
10
460.4411039697577
20
326.36822584879036
10
459
20
341
10
459
20
341
10
459
20
341
10
460.4411039697577
20
355.63177415120964
10
464.7090350616535
20
369.70125742738173
10
471.6397790773091
20
382.66776747647015
10
480.9669914110089
20
394.03300858899104
10
492.33223252352985
20
403.36022092269087
10
505.2987425726182
20
410.2909649383465
10
519.3682258487903
20
414.5588960302423
10
534
20
416
10
534
20
416
0
LWPOLYLINE
5
20
330
C
100
AcDbEntity
420
6319548
8
0
100
AcDbPolyline
90
5
70
0
43
0
38
0
39
0
10
633
20
280
10
883
20
280
10
883
20
200
10
633
20
200
10
633
20
280
0
TEXT
5
21
330
C
100
AcDbEntity
420
16777215
8
0
100
AcDbText
10
643
20
257.5
30
0
40
16
1
Repeating stripes
7
Arial
100
AcDbText
0
LWPOLYLINE
5
22
330
C
100
AcDbEntity
420
13421772
8
0
100
AcDbPolyline
90
5
70
0
43
0
38
0
39
0
10
908
20
281
10
1208
20
281
10
1208
20
181
10
908
20
181
10
908
20
281
0
TEXT
5
23
330
C
100
AcDbEntity
420
0
8
0
100
AcDbText
10
920
20
256.5
30
0
40
16
1
Multiple backgrounds
7
Arial
100
AcDbText
0
TEXT
5
24
330
C
100
AcDbEntity
420
0
8
0
100
AcDbText
10
0
20
136.5
30
0
40
18
1
Box Shadows
7
Arial
100
AcDbText
0
LWPOLYLINE
5
25
330
C
100
AcDbEntity
420
16777215
8
0
100
AcDbPolyline
90
42
70
0
43
0
38
0
39
0
10
28
20
100
10
212
20
100
10
212
20
100
10
213.56072257612902
20
99.84628224322586
10
215.06146745892073
20
99.39103626009029
10
216.4445618641568
20
98.65175689842039
10
217.65685424949237
20
97.65685424949237
10
218.65175689842036
20
96.44456186415681
10
219.3910362600903
20
95.06146745892073
10
219.84628224322586
20
93.56072257612902
10
220
20
92
10
220
20
28
10
220
20
28
10
219.84628224322586
20
26.439277423870976
10
219.3910362600903
20
24.93853254107927
10
218.65175689842036
20
23.55543813584319
10
217.65685424949237
20
22.34314575050763
10
216.4445618641568
20
21.348243101579612
10
215.06146745892073
20
20.60896373990971
10
213.56072257612902
20
20.153717756774142
10
212
20
20
10
28
20
20
10
28
20
20
10
26.439277423870976
20
20.153717756774142
10
24.938532541079283
20
20.60896373990971
10
23.555438135843183
20
21.348243101579612
10
22.34314575050762
20
22.34314575050763
10
21.348243101579637
20
23.55543813584319
10
20.608963739909704
20
24.93853254107927
10
20.153717756774157
20
26.439277423870976
10
20
20
28
10
20
20
92
10
20
20
92
10
20.153717756774157
20
93.56072257612902
10
20.608963739909704
20
95.06146745892073
10
21.348243101579637
20
96.44456186415681
10
22.343145750507617
20
97.65685424949237
10
23.555438135843183
20
98.65175689842039
10
24.938532541079276
20
99.39103626009029
10
26.43927742387097
20
99.84628224322586
10
28
20
100
10
28
20
100
0
TEXT
5
26
330
C
100
AcDbEntity
420
0
8
0
100
AcDbText
10
30
20
77.5
30
0
40
16
1
Drop shadow
7
Arial
100
AcDbText
0
LWPOLYLINE
5
27
330
C
100
AcDbEntity
420
15527921
8
0
100
AcDbPolyline
90
42
70
0
43
0
38
0
39
0
10
272
20
100
10
456
20
100
10
456
20
100
10
457.560722576129
20
99.84628224322586
10
459.06146745892073
20
99.39103626009029
10
460.4445618641568
20
98.65175689842039
10
461.65685424949237
20
97.65685424949237
10
462.6517568984204
20
96.44456186415681
10
463.3910362600903
20
95.06146745892073
10
463.84628224322586
20
93.56072257612902
10
464
20
92
10
464
20
28
10
464
20
28
10
463.84628224322586
20
26.439277423870976
10
463.3910362600903
20
24.93853254107927
10
462.6517568984204
20
23.55543813584319
10
461.65685424949237
20
22.34314575050763
10
460.4445618641568
20
21.348243101579612
10
459.06146745892073
20
20.60896373990971
10
457.560722576129
20
20.153717756774142
10
456
20
20
10
272
20
20
10
272
20
20
10
270.439277423871
20
20.153717756774142
10
268.93853254107927
20
20.60896373990971
10
267.5554381358432
20
21.348243101579612
10
266.34314575050763
20
22.34314575050763
10
265.3482431015796
20
23.55543813584319
10
264.6089637399097
20
24.93853254107927
10
264.15371775677414
20
26.439277423870976
10
264
20
28
10
264
20
92
10
264
20
92
10
264.15371775677414
20
93.56072257612902
10
264.6089637399097
20
95.06146745892073
10
265.3482431015796
20
96.44456186415681
10
266.34314575050763
20
97.65685424949237
10
267.5554381358432
20
98.65175689842039
10
268.93853254107927
20
99.39103626009029
10
270.439277423871
20
99.84628224322586
10
272
20
100
10
272
20
100
0
TEXT
5
28
330
C
100
AcDbEntity
420
0
8
0
100
AcDbText
10
274
20
77.5
30
0
40
16
1
Inset shadow
7
Arial
100
AcDbText
0
ENDSEC
0
SECTION
2
OBJECTS
0
DICTIONARY
5
A
330
0
100
AcDbDictionary
281
1
3
ACAD_GROUP
350
B
0
DICTIONARY
5
B
330
A
100
AcDbDictionary
281
0
0
ENDSEC
0
EOF