  0
SECTION
  2
HEADER
  9
$ANGBASE
 50
0.0
  9
$ANGDIR
 70
1
  9
$AUNITS
 70
0
  9
$AUPREC
 70
0
  9
$ATTMODE
 70
1
  9
$DWGCODEPAGE
  3
ANSI_1252
  9
$TDCREATE
 40
2451545.0416666665114462
  9
$CECOLOR
 62
256
  9
$CELTSCALE
 40
1.0
  9
$CELWEIGHT
370
-1
  9
$CLAYER
  8
0
  9
$CELTYPE
  6
ByLayer
  9
$CMLJUST
 70
0
  9
$CMLSCALE
 40
20.0
  9
$CMLSTYLE
  2
Standard
  9
$DIMSTYLE
  2
Standard
  9
$LWDISPLAY
290
0
  9
$EXTNAMES
290
1
  9
$HANDSEED
  5
59
  9
$INSUNITS
 70
0
  9
$LUNITS
 70
2
  9
$LUPREC
 70
4
  9
$LTSCALE
 40
1.0
  9
$MIRRTEXT
 70
0
  9
$INSBASE
 10
0.0
 20
0.0
 30
0.0
  9
$SPLINESEGS
 70
8
  9
$PSLTSCALE
 70
1
  9
$PDMODE
 70
0
  9
$PDSIZE
 40
0.0
  9
$PLINEGEN
 70
0
  9
$TEXTSIZE
 40
0.2
  9
$TEXTSTYLE
  7
Standard
  9
$TDINDWG
 40
0.0
  9
$TDUCREATE
 40
2451545.0416666665114462
  9
$TDUUPDATE
 40
2451545.0416666665114462
  9
$TDUPDATE
 40
2451545.0416666665114462
  9
$ACADVER
  1
AC1018
  0
ENDSEC
  0
SECTION
  2
CLASSES
  0
CLASS
  1
ACDBDICTIONARYWDFLT
  2
AcDbDictionaryWithDefault
  3
ObjectDBX Classes
 90
32768
 91
0
280
0
281
0
  0
CLASS
  1
ACDBPLACEHOLDER
  2
AcDbPlaceHolder
  3
ObjectDBX Classes
 90
0
 91
0
280
0
281
0
  0
CLASS
  1
LAYOUT
  2
AcDbLayout
  3
ObjectDBX Classes
 90
0
 91
0
280
0
281
0
  0
CLASS
  1
DICTIONARYVAR
  2
AcDbDictionaryVar
  3
ObjectDBX Classes
 90
0
 91
0
280
0
281
0
  0
CLASS
  1
TABLESTYLE
  2
AcDbTableStyle
  3
ObjectDBX Classes
 90
4095
 91
0
280
0
281
0
  0
CLASS
  1
MATERIAL
  2
AcDbMaterial
  3
ObjectDBX Classes
 90
1153
 91
0
280
0
281
0
  0
CLASS
  1
VISUALSTYLE
  2
AcDbVisualStyle
  3
ObjectDBX Classes
 90
4095
 91
0
280
0
281
0
  0
CLASS
  1
SCALE
  2
AcDbScale
  3
ObjectDBX Classes
 90
1153
 91
0
280
0
281
0
  0
CLASS
  1
MLEADERSTYLE
  2
AcDbMLeaderStyle
  3
ObjectDBX Classes
 90
4095
 91
0
280
0
281
0
  0
CLASS
  1
CELLSTYLEMAP
  2
AcDbCellStyleMap
  3
ObjectDBX Classes
 90
1152
 91
0
280
0
281
0
  0
CLASS
  1
EXACXREFPANELOBJECT
  2
ExAcXREFPanelObject
  3
ObjectDBX Classes
 90
1025
 91
0
280
0
281
0
  0
CLASS
  1
NPOCOLLECTION
  2
AcDbImpNonPersistentObjectsCollection
  3
ObjectDBX Classes
 90
1153
 91
0
280
0
281
0
  0
CLASS
  1
LAYER_INDEX
  2
AcDbLayerIndex
  3
ObjectDBX Classes
 90
0
 91
0
280
0
281
0
  0
CLASS
  1
SPATIAL_INDEX
  2
AcDbSpatialIndex
  3
ObjectDBX Classes
 90
0
 91
0
280
0
281
0
  0
CLASS
  1
IDBUFFER
  2
AcDbIdBuffer
  3
ObjectDBX Classes
 90
32768
 91
0
280
0
281
0
  0
CLASS
  1
ACDBSECTIONVIEWSTYLE
  2
AcDbSectionViewStyle
  3
ObjectDBX Classes
 90
1025
 91
0
280
0
281
0
  0
CLASS
  1
ACDBDETAILVIEWSTYLE
  2
AcDbDetailViewStyle
  3
ObjectDBX Classes
 90
1025
 91
0
280
0
281
0
  0
CLASS
  1
MESH
  2
AcDbSubDMesh
  3
ObjectDBX Classes
 90
0
 91
0
280
0
281
1
  0
CLASS
  1
SORTENTSTABLE
  2
AcDbSortentsTable
  3
ObjectDBX Classes
 90
0
 91
0
280
0
281
0
  0
CLASS
  1
ACDB_TEXTOBJECTCONTEXTDATA_CLASS
  2
AcDbTextObjectContextData
  3
ObjectDBX Classes
 90
1153
 91
0
280
0
281
0
  0
CLASS
  1
WIPEOUT
  2
AcDbWipeout
  3
WipeOut
 90
32895
 91
0
280
0
281
1
  0
CLASS
  1
WIPEOUTVARIABLES
  2
AcDbWipeoutVariables
  3
WipeOut
 90
32768
 91
0
280
0
281
0
  0
CLASS
  1
DIMASSOC
  2
AcDbDimAssoc
  3
AcDbDimAssoc
 90
0
 91
0
280
0
281
0
  0
CLASS
  1
ACAD_TABLE
  2
AcDbTable
  3
ObjectDBX Classes
 90
1025
 91
0
280
0
281
1
  0
CLASS
  1
TABLECONTENT
  2
AcDbTableContent
  3
ObjectDBX Classes
 90
1152
 91
0
280
0
281
0
  0
CLASS
  1
TABLEGEOMETRY
  2
AcDbTableGeometry
  3
ObjectDBX Classes
 90
1152
 91
0
280
0
281
0
  0
CLASS
  1
IMAGE
  2
AcDbRasterImage
  3
ISM
 90
32895
 91
0
280
0
281
1
  0
CLASS
  1
IMAGEDEF
  2
AcDbRasterImageDef
  3
ISM
 90
0
 91
0
280
0
281
0
  0
CLASS
  1
IMAGEDEF_REACTOR
  2
AcDbRasterImageDefReactor
  3
ISM
 90
1
 91
0
280
0
281
0
  0
CLASS
  1
DBCOLOR
  2
AcDbColor
  3
ObjectDBX Classes
 90
0
 91
0
280
0
281
0
  0
CLASS
  1
GEODATA
  2
AcDbGeoData
  3
ObjectDBX Classes
 90
4095
 91
0
280
0
281
0
  0
CLASS
  1
MULTILEADER
  2
AcDbMLeader
  3
ObjectDBX Classes
 90
1025
 91
0
280
0
281
0
  0
CLASS
  1
PDFUNDERLAY
  2
AcDbPdfReference
  3
ObjectDBX Classes
 90
4095
 91
0
280
0
281
1
  0
CLASS
  1
PDFDEFINITION
  2
AcDbPdfDefinition
  3
ObjectDBX Classes
 90
1153
 91
0
280
0
281
0
  0
CLASS
  1
RASTERVARIABLES
  2
AcDbRasterVariables
  3
ISM
 90
0
 91
0
280
0
281
0
  0
CLASS
  1
SPATIAL_FILTER
  2
AcDbSpatialFilter
  3
ObjectDBX Classes
 90
0
 91
0
280
0
281
0
  0
CLASS
  1
ACDB_MLEADEROBJECTCONTEXTDATA_CLASS
  2
AcDbMLeaderObjectContextData
  3
ObjectDBX Classes
 90
1025
 91
0
280
0
281
0
  0
CLASS
  1
PLOTSETTINGS
  2
AcDbPlotSettings
  3
ObjectDBX Classes
 90
0
 91
0
280
0
281
0
  0
CLASS
  1
FIELD
  2
AcDbField
  3
ObjectDBX Classes
 90
1152
 91
0
280
0
281
0
  0
CLASS
  1
FIELDLIST
  2
AcDbFieldList
  3
ObjectDBX Classes
 90
1152
 91
0
280
0
281
0
  0
CLASS
  1
ACDB_MTEXTATTRIBUTEOBJECTCONTEXTDATA_CLASS
  2
AcDbMTextAttributeObjectContextData
  3
ObjectDBX Classes
 90
1153
 91
0
280
0
281
0
  0
CLASS
  1
ACDB_BLKREFOBJECTCONTEXTDATA_CLASS
  2
AcDbBlkRefObjectContextData
  3
ObjectDBX Classes
 90
1153
 91
0
280
0
281
0
  0
ENDSEC
  0
SECTION
  2
TABLES
  0
TABLE
  2
VPORT
  5
18
330
0
100
AcDbSymbolTable
 70
1
  0
VPORT
  5
26
330
18
100
AcDbSymbolTableRecord
100
AcDbViewportTableRecord
  2
*Active
 70
0
 10
0.0
 20
0.0
 11
1.0
 21
1.0
 12
0.0
 22
0.0
 13
0.0
 23
0.0
 14
0.5
 24
0.5
 15
10.0
 25
10.0
 16
0.0
 26
0.0
 36
1.0
 17
0.0
 27
0.0
 37
0.0
 40
10.0
 41
1.0
 75
0
 76
1
  0
ENDTAB
  0
TABLE
  2
LTYPE
  5
14
330
0
100
AcDbSymbolTable
 70
3
  0
LTYPE
  5
19
330
14
100
AcDbSymbolTableRecord
100
AcDbLinetypeTableRecord
  2
ByLayer
 70
0
 72
0
 73
0
 40
0.0
  0
LTYPE
  5
1A
330
14
100
AcDbSymbolTableRecord
100
AcDbLinetypeTableRecord
  2
ByBlock
 70
0
 72
0
 73
0
 40
0.0
  0
LTYPE
  5
1B
330
14
100
AcDbSymbolTableRecord
100
AcDbLinetypeTableRecord
  2
Continuous
 70
0
 72
0
 73
0
 40
0.0
  0
ENDTAB
  0
TABLE
  2
LAYER
  5
13
330
0
100
AcDbSymbolTable
 70
1
  0
LAYER
  5
1C
330
13
100
AcDbSymbolTableRecord
100
AcDbLayerTableRecord
  2
0
 70
0
 62
7
  6
Continuous
290
1
370
-3
390
0
  0
ENDTAB
  0
TABLE
  2
STYLE
  5
15
330
0
100
AcDbSymbolTable
 70
1
  0
STYLE
  5
23
330
15
100
AcDbSymbolTableRecord
100
AcDbTextStyleTableRecord
  2
Standard
 70
0
 40
0.0
 41
1.0
 42
0.0
 50
0.0
 71
0
  0
ENDTAB
  0
TABLE
  2
VIEW
  5
17
330
0
100
AcDbSymbolTable
 70
0
  0
ENDTAB
  0
TABLE
  2
UCS
  5
16
330
0
100
AcDbSymbolTable
 70
0
  0
ENDTAB
  0
TABLE
  2
APPID
  5
10
330
0
100
AcDbSymbolTable
 70
1
  0
APPID
  5
25
330
10
100
AcDbSymbolTableRecord
100
AcDbRegAppTableRecord
  2
ACAD
 70
0
  0
ENDTAB
  0
TABLE
  2
DIMSTYLE
  5
12
330
0
100
AcDbSymbolTable
 70
1
100
AcDbDimStyleTable
  0
DIMSTYLE
105
24
330
12
100
AcDbSymbolTableRecord
100
AcDbDimStyleTableRecord
  2
Standard
 70
0
  3
<>
  4
[]
 40
1.0
 41
0.18
 42
0.625
 43
3.75
 44
1.25
 45
0.0
 46
0.0
 47
0.0
 48
0.0
 49
1.0
 50
45.0
 70
0
 90
0
140
0.18
141
0.09
142
0.0
143
25.3999999999999986
144
1.0
145
0.0
146
1.0
147
0.625
148
0.0
 71
0
 72
0
 73
0
 74
0
 75
0
 76
0
 77
1
 78
8
 79
0
170
0
171
3
172
0
173
1
174
0
175
0
176
0
177
0
178
0
179
0
271
2
272
2
273
2
274
3
275
0
276
0
277
2
278
46
279
0
280
0
281
0
282
0
283
0
284
8
285
0
286
0
287
0
288
0
289
3
290
0
340
0
371
-2
372
-2
  0
ENDTAB
  0
TABLE
  2
BLOCK_RECORD
  5
11
330
0
100
AcDbSymbolTable
 70
2
  0
BLOCK_RECORD
  5
1D
330
11
100
AcDbSymbolTableRecord
100
AcDbBlockTableRecord
  2
*Model_Space
 70
0
340
0
 70
0
280
0
281
1
  0
BLOCK_RECORD
  5
20
330
11
100
AcDbSymbolTableRecord
100
AcDbBlockTableRecord
  2
*Paper_Space
 70
0
340
0
 70
0
280
0
281
1
  0
ENDTAB
  0
ENDSEC
  0
SECTION
  2
BLOCKS
  0
BLOCK
  5
1E
330
1D
100
AcDbEntity
  8
0
  6
ByLayer
 62
256
 48
1.0
 60
0
 67
0
370
-1
100
AcDbBlockBegin
  2
*Model_Space
 70
0
 10
0.0
 20
0.0
 30
0.0
  3
*Model_Space
  0
ENDBLK
  5
1F
330
1D
100
AcDbEntity
  8
0
100
AcDbBlockEnd
  0
BLOCK
  5
21
330
20
100
AcDbEntity
  8
0
  6
ByLayer
 62
256
 48
1.0
 60
0
 67
1
370
-1
100
AcDbBlockBegin
  2
*Paper_Space
 70
0
 10
0.0
 20
0.0
 30
0.0
  3
*Paper_Space
  0
ENDBLK
  5
22
330
20
100
AcDbEntity
  8
0
100
AcDbBlockEnd
  0
ENDSEC
  0
SECTION
  2
ENTITIES
  0
HATCH
  5
27
330
1D
100
AcDbEntity
  8
0
  6
ByLayer
420
16777215
 48
1.0
 60
0
 67
0
370
-1
100
AcDbHatch
 30
0.0
210
0.0
220
0.0
230
1.0
  2
SOLID
 70
1
 71
0
 91
1
 92
2
 72
0
 73
1
 93
41
 10
72.0
 20
961.0
 10
1148.0
 20
961.0
 10
1148.0
 20
961.0
 10
1153.8527096604839244
 20
960.4235584120968952
 10
1159.4805029709527844
 20
958.7163859753386532
 10
1164.6671069905880813
 20
955.9440883690763258
 10
1169.2132034355963697
 20
952.2132034355963697
 10
1172.9440883690763258
 20
947.6671069905880813
 10
1175.7163859753386532
 20
942.4805029709526707
 10
1177.4235584120970088
 20
936.8527096604838107
 10
1178.0
 20
931.0
 10
1178.0
 20
681.0
 10
1178.0
 20
681.0
 10
1177.4235584120970088
 20
675.1472903395160756
 10
1175.7163859753386532
 20
669.5194970290473293
 10
1172.9440883690763258
 20
664.3328930094119187
 10
1169.2132034355963697
 20
659.7867965644036303
 10
1164.6671069905880813
 20
656.0559116309236742
 10
1159.4805029709527844
 20
653.2836140246613468
 10
1153.8527096604839244
 20
651.5764415879031048
 10
1148.0
 20
651.0
 10
72.0
 20
651.0
 10
72.0
 20
651.0
 10
66.1472903395161609
 20
651.5764415879031048
 10
60.519497029047308
 20
653.2836140246613468
 10
55.33289300941194
 20
656.0559116309236742
 10
50.7867965644035735
 20
659.7867965644036303
 10
47.0559116309236387
 20
664.3328930094119187
 10
44.2836140246613965
 20
669.5194970290473293
 10
42.5764415879030906
 20
675.1472903395160756
 10
42.0
 20
681.0
 10
42.0
 20
931.0
 10
42.0
 20
931.0
 10
42.5764415879030906
 20
936.8527096604838107
 10
44.2836140246613894
 20
942.4805029709526707
 10
47.0559116309236316
 20
947.6671069905880813
 10
50.7867965644035735
 20
952.2132034355963697
 10
55.3328930094119329
 20
955.9440883690763258
 10
60.5194970290472867
 20
958.7163859753386532
 10
66.1472903395161467
 20
960.4235584120968952
 10
72.0
 20
961.0
 97
0
 75
0
 76
1
 47
0.0
 98
0
  0
LWPOLYLINE
  5
28
330
1D
100
AcDbEntity
  8
0
  6
ByLayer
420
1450302
 48
1.0
 60
0
 67
0
370
-1
100
AcDbPolyline
 90
41
 70
1
 43
0.0
 38
0.0
 39
0.0
210
0.0
220
0.0
230
1.0
 10
72.0
 20
961.0
 40
0.0
 41
0.0
 42
0.0
 10
1148.0
 20
961.0
 40
0.0
 41
0.0
 42
0.0
 10
1148.0
 20
961.0
 40
0.0
 41
0.0
 42
0.0
 10
1153.8527096604839244
 20
960.4235584120968952
 40
0.0
 41
0.0
 42
0.0
 10
1159.4805029709527844
 20
958.7163859753386532
 40
0.0
 41
0.0
 42
0.0
 10
1164.6671069905880813
 20
955.9440883690763258
 40
0.0
 41
0.0
 42
0.0
 10
1169.2132034355963697
 20
952.2132034355963697
 40
0.0
 41
0.0
 42
0.0
 10
1172.9440883690763258
 20
947.6671069905880813
 40
0.0
 41
0.0
 42
0.0
 10
1175.7163859753386532
 20
942.4805029709526707
 40
0.0
 41
0.0
 42
0.0
 10
1177.4235584120970088
 20
936.8527096604838107
 40
0.0
 41
0.0
 42
0.0
 10
1178.0
 20
931.0
 40
0.0
 41
0.0
 42
0.0
 10
1178.0
 20
681.0
 40
0.0
 41
0.0
 42
0.0
 10
1178.0
 20
681.0
 40
0.0
 41
0.0
 42
0.0
 10
1177.4235584120970088
 20
675.1472903395160756
 40
0.0
 41
0.0
 42
0.0
 10
1175.7163859753386532
 20
669.5194970290473293
 40
0.0
 41
0.0
 42
0.0
 10
1172.9440883690763258
 20
664.3328930094119187
 40
0.0
 41
0.0
 42
0.0
 10
1169.2132034355963697
 20
659.7867965644036303
 40
0.0
 41
0.0
 42
0.0
 10
1164.6671069905880813
 20
656.0559116309236742
 40
0.0
 41
0.0
 42
0.0
 10
1159.4805029709527844
 20
653.2836140246613468
 40
0.0
 41
0.0
 42
0.0
 10
1153.8527096604839244
 20
651.5764415879031048
 40
0.0
 41
0.0
 42
0.0
 10
1148.0
 20
651.0
 40
0.0
 41
0.0
 42
0.0
 10
72.0
 20
651.0
 40
0.0
 41
0.0
 42
0.0
 10
72.0
 20
651.0
 40
0.0
 41
0.0
 42
0.0
 10
66.1472903395161609
 20
651.5764415879031048
 40
0.0
 41
0.0
 42
0.0
 10
60.519497029047308
 20
653.2836140246613468
 40
0.0
 41
0.0
 42
0.0
 10
55.33289300941194
 20
656.0559116309236742
 40
0.0
 41
0.0
 42
0.0
 10
50.7867965644035735
 20
659.7867965644036303
 40
0.0
 41
0.0
 42
0.0
 10
47.0559116309236387
 20
664.3328930094119187
 40
0.0
 41
0.0
 42
0.0
 10
44.2836140246613965
 20
669.5194970290473293
 40
0.0
 41
0.0
 42
0.0
 10
42.5764415879030906
 20
675.1472903395160756
 40
0.0
 41
0.0
 42
0.0
 10
42.0
 20
681.0
 40
0.0
 41
0.0
 42
0.0
 10
42.0
 20
931.0
 40
0.0
 41
0.0
 42
0.0
 10
42.0
 20
931.0
 40
0.0
 41
0.0
 42
0.0
 10
42.5764415879030906
 20
936.8527096604838107
 40
0.0
 41
0.0
 42
0.0
 10
44.2836140246613894
 20
942.4805029709526707
 40
0.0
 41
0.0
 42
0.0
 10
47.0559116309236316
 20
947.6671069905880813
 40
0.0
 41
0.0
 42
0.0
 10
50.7867965644035735
 20
952.2132034355963697
 40
0.0
 41
0.0
 42
0.0
 10
55.3328930094119329
 20
955.9440883690763258
 40
0.0
 41
0.0
 42
0.0
 10
60.5194970290472867
 20
958.7163859753386532
 40
0.0
 41
0.0
 42
0.0
 10
66.1472903395161467
 20
960.4235584120968952
 40
0.0
 41
0.0
 42
0.0
 10
72.0
 20
961.0
 40
0.0
 41
0.0
 42
0.0
  0
HATCH
  5
29
330
1D
100
AcDbEntity
  8
0
  6
ByLayer
420
16242628
 48
1.0
 60
0
 67
0
370
-1
100
AcDbHatch
 30
0.0
210
0.0
220
0.0
230
1.0
  2
SOLID
 70
1
 71
0
 91
1
 92
2
 72
0
 73
1
 93
41
 10
89.5
 20
932.0
 10
231.5
 20
932.0
 10
231.5
 20
932.0
 10
234.3288096692338627
 20
931.7213865658468421
 10
237.0489097692938003
 20
930.8962532214136445
 10
239.5557683787842223
 20
929.5563093783869135
 10
241.7530483272049366
 20
927.7530483272049651
 10
243.5563093783869135
 20
925.5557683787842507
 10
244.8962532214136445
 20
923.0489097692938003
 10
245.7213865658468421
 20
920.3288096692338058
 10
246.0
 20
917.5
 10
246.0
 20
917.5
 10
246.0
 20
917.5
 10
245.7213865658468421
 20
914.6711903307661942
 10
244.8962532214136445
 20
911.9510902307061997
 10
243.5563093783869135
 20
909.4442316212157493
 10
241.7530483272049366
 20
907.2469516727950349
 10
239.5557683787842223
 20
905.4436906216130865
 10
237.0489097692938003
 20
904.1037467785863555
 10
234.3288096692338627
 20
903.2786134341531579
 10
231.5
 20
903.0
 10
89.5
 20
903.0
 10
89.5
 20
903.0
 10
86.6711903307661373
 20
903.2786134341531579
 10
83.9510902307061997
 20
904.1037467785863555
 10
81.4442316212157777
 20
905.4436906216130865
 10
79.2469516727950634
 20
907.2469516727950349
 10
77.4436906216130865
 20
909.4442316212157493
 10
76.1037467785863413
 20
911.9510902307061997
 10
75.2786134341531579
 20
914.6711903307661942
 10
75.0
 20
917.5
 10
75.0
 20
917.5
 10
75.0
 20
917.5
 10
75.2786134341531579
 20
920.3288096692338058
 10
76.1037467785863413
 20
923.0489097692938003
 10
77.4436906216130865
 20
925.5557683787842507
 10
79.2469516727950634
 20
927.7530483272049651
 10
81.4442316212157635
 20
929.5563093783869135
 10
83.9510902307061855
 20
930.8962532214136445
 10
86.6711903307661373
 20
931.7213865658468421
 10
89.5
 20
932.0
 97
0
 75
0
 76
1
 47
0.0
 98
0
  0
LWPOLYLINE
  5
2A
330
1D
100
AcDbEntity
  8
0
  6
ByLayer
420
16242628
 48
1.0
 60
0
 67
0
370
-1
100
AcDbPolyline
 90
41
 70
1
 43
0.0
 38
0.0
 39
0.0
210
0.0
220
0.0
230
1.0
 10
89.5
 20
932.0
 40
0.0
 41
0.0
 42
0.0
 10
231.5
 20
932.0
 40
0.0
 41
0.0
 42
0.0
 10
231.5
 20
932.0
 40
0.0
 41
0.0
 42
0.0
 10
234.3288096692338627
 20
931.7213865658468421
 40
0.0
 41
0.0
 42
0.0
 10
237.0489097692938003
 20
930.8962532214136445
 40
0.0
 41
0.0
 42
0.0
 10
239.5557683787842223
 20
929.5563093783869135
 40
0.0
 41
0.0
 42
0.0
 10
241.7530483272049366
 20
927.7530483272049651
 40
0.0
 41
0.0
 42
0.0
 10
243.5563093783869135
 20
925.5557683787842507
 40
0.0
 41
0.0
 42
0.0
 10
244.8962532214136445
 20
923.0489097692938003
 40
0.0
 41
0.0
 42
0.0
 10
245.7213865658468421
 20
920.3288096692338058
 40
0.0
 41
0.0
 42
0.0
 10
246.0
 20
917.5
 40
0.0
 41
0.0
 42
0.0
 10
246.0
 20
917.5
 40
0.0
 41
0.0
 42
0.0
 10
246.0
 20
917.5
 40
0.0
 41
0.0
 42
0.0
 10
245.7213865658468421
 20
914.6711903307661942
 40
0.0
 41
0.0
 42
0.0
 10
244.8962532214136445
 20
911.9510902307061997
 40
0.0
 41
0.0
 42
0.0
 10
243.5563093783869135
 20
909.4442316212157493
 40
0.0
 41
0.0
 42
0.0
 10
241.7530483272049366
 20
907.2469516727950349
 40
0.0
 41
0.0
 42
0.0
 10
239.5557683787842223
 20
905.4436906216130865
 40
0.0
 41
0.0
 42
0.0
 10
237.0489097692938003
 20
904.1037467785863555
 40
0.0
 41
0.0
 42
0.0
 10
234.3288096692338627
 20
903.2786134341531579
 40
0.0
 41
0.0
 42
0.0
 10
231.5
 20
903.0
 40
0.0
 41
0.0
 42
0.0
 10
89.5
 20
903.0
 40
0.0
 41
0.0
 42
0.0
 10
89.5
 20
903.0
 40
0.0
 41
0.0
 42
0.0
 10
86.6711903307661373
 20
903.2786134341531579
 40
0.0
 41
0.0
 42
0.0
 10
83.9510902307061997
 20
904.1037467785863555
 40
0.0
 41
0.0
 42
0.0
 10
81.4442316212157777
 20
905.4436906216130865
 40
0.0
 41
0.0
 42
0.0
 10
79.2469516727950634
 20
907.2469516727950349
 40
0.0
 41
0.0
 42
0.0
 10
77.4436906216130865
 20
909.4442316212157493
 40
0.0
 41
0.0
 42
0.0
 10
76.1037467785863413
 20
911.9510902307061997
 40
0.0
 41
0.0
 42
0.0
 10
75.2786134341531579
 20
914.6711903307661942
 40
0.0
 41
0.0
 42
0.0
 10
75.0
 20
917.5
 40
0.0
 41
0.0
 42
0.0
 10
75.0
 20
917.5
 40
0.0
 41
0.0
 42
0.0
 10
75.0
 20
917.5
 40
0.0
 41
0.0
 42
0.0
 10
75.2786134341531579
 20
920.3288096692338058
 40
0.0
 41
0.0
 42
0.0
 10
76.1037467785863413
 20
923.0489097692938003
 40
0.0
 41
0.0
 42
0.0
 10
77.4436906216130865
 20
925.5557683787842507
 40
0.0
 41
0.0
 42
0.0
 10
79.2469516727950634
 20
927.7530483272049651
 40
0.0
 41
0.0
 42
0.0
 10
81.4442316212157635
 20
929.5563093783869135
 40
0.0
 41
0.0
 42
0.0
 10
83.9510902307061855
 20
930.8962532214136445
 40
0.0
 41
0.0
 42
0.0
 10
86.6711903307661373
 20
931.7213865658468421
 40
0.0
 41
0.0
 42
0.0
 10
89.5
 20
932.0
 40
0.0
 41
0.0
 42
0.0
  0
TEXT
  5
2B
330
1D
100
AcDbEntity
  8
0
  6
ByLayer
420
12082232
 48
1.0
 60
0
 67
0
370
-1
100
AcDbText
 39
0.0
 10
87.0
 20
914.25
 30
0.0
 40
13.0
  1
IFRAME WALKING
 50
0.0
 41
1.0
 51
0.0
  7
Standard
 71
0
 72
0
 11
0.0
 21
0.0
 31
0.0
210
0.0
220
0.0
230
1.0
100
AcDbText
 73
0
  0
TEXT
  5
2C
330
1D
100
AcDbEntity
  8
0
  6
ByLayer
420
1450302
 48
1.0
 60
0
 67
0
370
-1
100
AcDbText
 39
0.0
 10
75.0
 20
852.5
 30
0.0
 40
52.0
  1
Embedded documents can now join the
 50
0.0
 41
1.0
 51
0.0
  7
Standard
 71
0
 72
0
 11
0.0
 21
0.0
 31
0.0
210
0.0
220
0.0
230
1.0
100
AcDbText
 73
0
  0
TEXT
  5
2D
330
1D
100
AcDbEntity
  8
0
  6
ByLayer
420
1450302
 48
1.0
 60
0
 67
0
370
-1
100
AcDbText
 39
0.0
 10
75.0
 20
800.5
 30
0.0
 40
52.0
  1
export.
 50
0.0
 41
1.0
 51
0.0
  7
Standard
 71
0
 72
0
 11
0.0
 21
0.0
 31
0.0
210
0.0
220
0.0
230
1.0
100
AcDbText
 73
0
  0
TEXT
  5
2E
330
1D
100
AcDbEntity
  8
0
  6
ByLayer
420
1450302
 48
1.0
 60
0
 67
0
370
-1
100
AcDbText
 39
0.0
 10
75.0
 20
754.75
 30
0.0
 40
21.0
  1
This demo mixes a same-origin iframe that loads another demo file with a rotated
 50
0.0
 41
1.0
 51
0.0
  7
Standard
 71
0
 72
0
 11
0.0
 21
0.0
 31
0.0
210
0.0
220
0.0
230
1.0
100
AcDbText
 73
0
  0
TEXT
  5
2F
330
1D
100
AcDbEntity
  8
0
  6
ByLayer
420
1450302
 48
1.0
 60
0
 67
0
370
-1
100
AcDbText
 39
0.0
 10
75.0
 20
723.25
 30
0.0
 40
21.0
  1
iframe rendered from srcdoc content. Enable
 50
0.0
 41
1.0
 51
0.0
  7
Standard
 71
0
 72
0
 11
0.0
 21
0.0
 31
0.0
210
0.0
220
0.0
230
1.0
100
AcDbText
 73
0
  0
TEXT
  5
30
330
1D
100
AcDbEntity
  8
0
  6
ByLayer
420
1450302
 48
1.0
 60
0
 67
0
370
-1
100
AcDbText
 39
0.0
 10
632.6875
 20
723.25
 30
0.0
 40
21.0
  1
to traverse those
 50
0.0
 41
1.0
 51
0.0
  7
Standard
 71
0
 72
0
 11
0.0
 21
0.0
 31
0.0
210
0.0
220
0.0
230
1.0
100
AcDbText
 73
0
  0
TEXT
  5
31
330
1D
100
AcDbEntity
  8
0
  6
ByLayer
420
1450302
 48
1.0
 60
0
 67
0
370
-1
100
AcDbText
 39
0.0
 10
75.0
 20
691.75
 30
0.0
 40
21.0
  1
nested documents and keep them in the same paint-order pipeline.
 50
0.0
 41
1.0
 51
0.0
  7
Standard
 71
0
 72
0
 11
0.0
 21
0.0
 31
0.0
210
0.0
220
0.0
230
1.0
100
AcDbText
 73
0
  0
TEXT
  5
32
330
1D
100
AcDbEntity
  8
0
  6
ByLayer
420
1450302
 48
1.0
 60
0
 67
0
370
-1
100
AcDbText
 39
0.0
 10
496.390625
 20
723.25
 30
0.0
 40
21.0
  1
walkIframes
 50
0.0
 41
1.0
 51
0.0
  7
Standard
 71
0
 72
0
 11
0.0
 21
0.0
 31
0.0
210
0.0
220
0.0
230
1.0
100
AcDbText
 73
0
  0
HATCH
  5
33
330
1D
100
AcDbEntity
  8
0
  6
ByLayer
420
16777215
 48
1.0
 60
0
 67
0
370
-1
100
AcDbHatch
 30
0.0
210
0.0
220
0.0
230
1.0
  2
SOLID
 70
1
 71
0
 91
1
 92
2
 72
0
 73
1
 93
41
 10
70.0
 20
623.0
 10
647.0
 20
623.0
 10
647.0
 20
623.0
 10
652.46252901645164
 20
622.4619878512904734
 10
657.7151361062225305
 20
620.8686269103160384
 10
662.5559665245489214
 20
618.2811491444713283
 10
666.7989898732233769
 20
614.7989898732232632
 10
670.2811491444712146
 20
610.5559665245489214
 10
672.8686269103160384
 20
605.7151361062225305
 10
674.4619878512904734
 20
600.4625290164515263
 10
675.0
 20
595.0
 10
675.0
 20
69.0
 10
675.0
 20
69.0
 10
674.4619878512904734
 20
63.53747098354836
 10
672.8686269103160384
 20
58.2848638937774695
 10
670.2811491444712146
 20
53.4440334754511923
 10
666.7989898732233769
 20
49.2010101267766231
 10
662.5559665245489214
 20
45.7188508555287854
 10
657.7151361062225305
 20
43.1313730896839616
 10
652.46252901645164
 20
41.5380121487095266
 10
647.0
 20
41.0
 10
70.0
 20
41.0
 10
70.0
 20
41.0
 10
64.5374709835484168
 20
41.5380121487095266
 10
59.2848638937774837
 20
43.1313730896839616
 10
54.4440334754511497
 20
45.7188508555286717
 10
50.2010101267766728
 20
49.2010101267766231
 10
46.7188508555287285
 20
53.4440334754511923
 10
44.1313730896839758
 20
58.2848638937774695
 10
42.5380121487095479
 20
63.53747098354836
 10
42.0
 20
69.0
 10
42.0
 20
595.0
 10
42.0
 20
595.0
 10
42.5380121487095479
 20
600.4625290164515263
 10
44.1313730896839687
 20
605.7151361062225305
 10
46.7188508555287285
 20
610.5559665245489214
 10
50.2010101267766657
 20
614.7989898732232632
 10
54.4440334754511355
 20
618.2811491444713283
 10
59.2848638937774695
 20
620.8686269103160384
 10
64.5374709835484026
 20
622.4619878512904734
 10
70.0
 20
623.0
 97
0
 75
0
 76
1
 47
0.0
 98
0
  0
LWPOLYLINE
  5
34
330
1D
100
AcDbEntity
  8
0
  6
ByLayer
420
1450302
 48
1.0
 60
0
 67
0
370
-1
100
AcDbPolyline
 90
41
 70
1
 43
0.0
 38
0.0
 39
0.0
210
0.0
220
0.0
230
1.0
 10
70.0
 20
623.0
 40
0.0
 41
0.0
 42
0.0
 10
647.0
 20
623.0
 40
0.0
 41
0.0
 42
0.0
 10
647.0
 20
623.0
 40
0.0
 41
0.0
 42
0.0
 10
652.46252901645164
 20
622.4619878512904734
 40
0.0
 41
0.0
 42
0.0
 10
657.7151361062225305
 20
620.8686269103160384
 40
0.0
 41
0.0
 42
0.0
 10
662.5559665245489214
 20
618.2811491444713283
 40
0.0
 41
0.0
 42
0.0
 10
666.7989898732233769
 20
614.7989898732232632
 40
0.0
 41
0.0
 42
0.0
 10
670.2811491444712146
 20
610.5559665245489214
 40
0.0
 41
0.0
 42
0.0
 10
672.8686269103160384
 20
605.7151361062225305
 40
0.0
 41
0.0
 42
0.0
 10
674.4619878512904734
 20
600.4625290164515263
 40
0.0
 41
0.0
 42
0.0
 10
675.0
 20
595.0
 40
0.0
 41
0.0
 42
0.0
 10
675.0
 20
69.0
 40
0.0
 41
0.0
 42
0.0
 10
675.0
 20
69.0
 40
0.0
 41
0.0
 42
0.0
 10
674.4619878512904734
 20
63.53747098354836
 40
0.0
 41
0.0
 42
0.0
 10
672.8686269103160384
 20
58.2848638937774695
 40
0.0
 41
0.0
 42
0.0
 10
670.2811491444712146
 20
53.4440334754511923
 40
0.0
 41
0.0
 42
0.0
 10
666.7989898732233769
 20
49.2010101267766231
 40
0.0
 41
0.0
 42
0.0
 10
662.5559665245489214
 20
45.7188508555287854
 40
0.0
 41
0.0
 42
0.0
 10
657.7151361062225305
 20
43.1313730896839616
 40
0.0
 41
0.0
 42
0.0
 10
652.46252901645164
 20
41.5380121487095266
 40
0.0
 41
0.0
 42
0.0
 10
647.0
 20
41.0
 40
0.0
 41
0.0
 42
0.0
 10
70.0
 20
41.0
 40
0.0
 41
0.0
 42
0.0
 10
70.0
 20
41.0
 40
0.0
 41
0.0
 42
0.0
 10
64.5374709835484168
 20
41.5380121487095266
 40
0.0
 41
0.0
 42
0.0
 10
59.2848638937774837
 20
43.1313730896839616
 40
0.0
 41
0.0
 42
0.0
 10
54.4440334754511497
 20
45.7188508555286717
 40
0.0
 41
0.0
 42
0.0
 10
50.2010101267766728
 20
49.2010101267766231
 40
0.0
 41
0.0
 42
0.0
 10
46.7188508555287285
 20
53.4440334754511923
 40
0.0
 41
0.0
 42
0.0
 10
44.1313730896839758
 20
58.2848638937774695
 40
0.0
 41
0.0
 42
0.0
 10
42.5380121487095479
 20
63.53747098354836
 40
0.0
 41
0.0
 42
0.0
 10
42.0
 20
69.0
 40
0.0
 41
0.0
 42
0.0
 10
42.0
 20
595.0
 40
0.0
 41
0.0
 42
0.0
 10
42.0
 20
595.0
 40
0.0
 41
0.0
 42
0.0
 10
42.5380121487095479
 20
600.4625290164515263
 40
0.0
 41
0.0
 42
0.0
 10
44.1313730896839687
 20
605.7151361062225305
 40
0.0
 41
0.0
 42
0.0
 10
46.7188508555287285
 20
610.5559665245489214
 40
0.0
 41
0.0
 42
0.0
 10
50.2010101267766657
 20
614.7989898732232632
 40
0.0
 41
0.0
 42
0.0
 10
54.4440334754511355
 20
618.2811491444713283
 40
0.0
 41
0.0
 42
0.0
 10
59.2848638937774695
 20
620.8686269103160384
 40
0.0
 41
0.0
 42
0.0
 10
64.5374709835484026
 20
622.4619878512904734
 40
0.0
 41
0.0
 42
0.0
 10
70.0
 20
623.0
 40
0.0
 41
0.0
 42
0.0
  0
TEXT
  5
35
330
1D
100
AcDbEntity
  8
0
  6
ByLayer
420
1450302
 48
1.0
 60
0
 67
0
370
-1
100
AcDbText
 39
0.0
 10
67.0
 20
574.5
 30
0.0
 40
30.0
  1
Embedded existing demo
 50
0.0
 41
1.0
 51
0.0
  7
Standard
 71
0
 72
0
 11
0.0
 21
0.0
 31
0.0
210
0.0
220
0.0
230
1.0
100
AcDbText
 73
0
  0
TEXT
  5
36
330
1D
100
AcDbEntity
  8
0
  6
ByLayer
420
1450302
 48
1.0
 60
0
 67
0
370
-1
100
AcDbText
 39
0.0
 10
67.0
 20
538.25
 30
0.0
 40
17.0
  1
The left frame points at
 50
0.0
 41
1.0
 51
0.0
  7
Standard
 71
0
 72
0
 11
0.0
 21
0.0
 31
0.0
210
0.0
220
0.0
230
1.0
100
AcDbText
 73
0
  0
TEXT
  5
37
330
1D
100
AcDbEntity
  8
0
  6
ByLayer
420
1450302
 48
1.0
 60
0
 67
0
370
-1
100
AcDbText
 39
0.0
 10
326.671875
 20
538.25
 30
0.0
 40
17.0
  1
, so this page exercises same-origin iframe
 50
0.0
 41
1.0
 51
0.0
  7
Standard
 71
0
 72
0
 11
0.0
 21
0.0
 31
0.0
210
0.0
220
0.0
230
1.0
100
AcDbText
 73
0
  0
TEXT
  5
38
330
1D
100
AcDbEntity
  8
0
  6
ByLayer
420
1450302
 48
1.0
 60
0
 67
0
370
-1
100
AcDbText
 39
0.0
 10
67.0
 20
511.90625
 30
0.0
 40
17.0
  1
walking across a nested file load instead of only inline markup.
 50
0.0
 41
1.0
 51
0.0
  7
Standard
 71
0
 72
0
 11
0.0
 21
0.0
 31
0.0
210
0.0
220
0.0
230
1.0
100
AcDbText
 73
0
  0
TEXT
  5
39
330
1D
100
AcDbEntity
  8
0
  6
ByLayer
420
1450302
 48
1.0
 60
0
 67
0
370
-1
100
AcDbText
 39
0.0
 10
246.421875
 20
538.25
 30
0.0
 40
17.0
  1
text.html
 50
0.0
 41
1.0
 51
0.0
  7
Standard
 71
0
 72
0
 11
0.0
 21
0.0
 31
0.0
210
0.0
220
0.0
230
1.0
100
AcDbText
 73
0
  0
HATCH
  5
3A
330
1D
100
AcDbEntity
  8
0
  6
ByLayer
420
16777215
 48
1.0
 60
0
 67
0
370
-1
100
AcDbHatch
 30
0.0
210
0.0
220
0.0
230
1.0
  2
SOLID
 70
1
 71
0
 91
1
 92
2
 72
0
 73
1
 93
41
 10
91.0
 20
487.0
 10
626.0
 20
487.0
 10
626.0
 20
487.0
 10
630.6821677283870713
 20
486.5388467296775161
 10
635.1844023767621366
 20
485.1731087802709226
 10
639.3336855924704878
 20
482.9552706952611061
 10
642.970562748477164
 20
479.970562748477164
 10
645.9552706952611061
 20
476.3336855924704878
 10
648.1731087802709226
 20
472.1844023767621366
 10
649.5388467296775161
 20
467.6821677283870713
 10
650.0
 20
463.0
 10
650.0
 20
91.0
 10
650.0
 20
91.0
 10
649.5388467296775161
 20
86.3178322716129287
 10
648.1731087802709226
 20
81.8155976232378634
 10
645.9552706952611061
 20
77.6663144075295122
 10
642.970562748477164
 20
74.029437251522836
 10
639.3336855924704878
 20
71.0447293047388939
 10
635.1844023767621366
 20
68.8268912197290774
 10
630.6821677283870713
 20
67.4611532703224839
 10
626.0
 20
67.0
 10
91.0
 20
67.0
 10
91.0
 20
67.0
 10
86.3178322716129287
 20
67.4611532703224839
 10
81.8155976232378492
 20
68.8268912197290774
 10
77.6663144075295548
 20
71.0447293047388939
 10
74.0294372515228645
 20
74.029437251522836
 10
71.0447293047389081
 20
77.6663144075295122
 10
68.8268912197291201
 20
81.8155976232378634
 10
67.4611532703224697
 20
86.3178322716129287
 10
67.0
 20
91.0
 10
67.0
 20
463.0
 10
67.0
 20
463.0
 10
67.4611532703224697
 20
467.6821677283870713
 10
68.8268912197291201
 20
472.1844023767621366
 10
71.0447293047389081
 20
476.3336855924704878
 10
74.0294372515228645
 20
479.970562748477164
 10
77.6663144075295406
 20
482.9552706952611061
 10
81.815597623237835
 20
485.1731087802709226
 10
86.3178322716129145
 20
486.5388467296775161
 10
91.0
 20
487.0
 97
0
 75
0
 76
1
 47
0.0
 98
0
  0
LWPOLYLINE
  5
3B
330
1D
100
AcDbEntity
  8
0
  6
ByLayer
420
1189439
 48
1.0
 60
0
 67
0
370
-1
100
AcDbPolyline
 90
41
 70
1
 43
0.0
 38
0.0
 39
0.0
210
0.0
220
0.0
230
1.0
 10
91.0
 20
487.0
 40
0.0
 41
0.0
 42
0.0
 10
626.0
 20
487.0
 40
0.0
 41
0.0
 42
0.0
 10
626.0
 20
487.0
 40
0.0
 41
0.0
 42
0.0
 10
630.6821677283870713
 20
486.5388467296775161
 40
0.0
 41
0.0
 42
0.0
 10
635.1844023767621366
 20
485.1731087802709226
 40
0.0
 41
0.0
 42
0.0
 10
639.3336855924704878
 20
482.9552706952611061
 40
0.0
 41
0.0
 42
0.0
 10
642.970562748477164
 20
479.970562748477164
 40
0.0
 41
0.0
 42
0.0
 10
645.9552706952611061
 20
476.3336855924704878
 40
0.0
 41
0.0
 42
0.0
 10
648.1731087802709226
 20
472.1844023767621366
 40
0.0
 41
0.0
 42
0.0
 10
649.5388467296775161
 20
467.6821677283870713
 40
0.0
 41
0.0
 42
0.0
 10
650.0
 20
463.0
 40
0.0
 41
0.0
 42
0.0
 10
650.0
 20
91.0
 40
0.0
 41
0.0
 42
0.0
 10
650.0
 20
91.0
 40
0.0
 41
0.0
 42
0.0
 10
649.5388467296775161
 20
86.3178322716129287
 40
0.0
 41
0.0
 42
0.0
 10
648.1731087802709226
 20
81.8155976232378634
 40
0.0
 41
0.0
 42
0.0
 10
645.9552706952611061
 20
77.6663144075295122
 40
0.0
 41
0.0
 42
0.0
 10
642.970562748477164
 20
74.029437251522836
 40
0.0
 41
0.0
 42
0.0
 10
639.3336855924704878
 20
71.0447293047388939
 40
0.0
 41
0.0
 42
0.0
 10
635.1844023767621366
 20
68.8268912197290774
 40
0.0
 41
0.0
 42
0.0
 10
630.6821677283870713
 20
67.4611532703224839
 40
0.0
 41
0.0
 42
0.0
 10
626.0
 20
67.0
 40
0.0
 41
0.0
 42
0.0
 10
91.0
 20
67.0
 40
0.0
 41
0.0
 42
0.0
 10
91.0
 20
67.0
 40
0.0
 41
0.0
 42
0.0
 10
86.3178322716129287
 20
67.4611532703224839
 40
0.0
 41
0.0
 42
0.0
 10
81.8155976232378492
 20
68.8268912197290774
 40
0.0
 41
0.0
 42
0.0
 10
77.6663144075295548
 20
71.0447293047388939
 40
0.0
 41
0.0
 42
0.0
 10
74.0294372515228645
 20
74.029437251522836
 40
0.0
 41
0.0
 42
0.0
 10
71.0447293047389081
 20
77.6663144075295122
 40
0.0
 41
0.0
 42
0.0
 10
68.8268912197291201
 20
81.8155976232378634
 40
0.0
 41
0.0
 42
0.0
 10
67.4611532703224697
 20
86.3178322716129287
 40
0.0
 41
0.0
 42
0.0
 10
67.0
 20
91.0
 40
0.0
 41
0.0
 42
0.0
 10
67.0
 20
463.0
 40
0.0
 41
0.0
 42
0.0
 10
67.0
 20
463.0
 40
0.0
 41
0.0
 42
0.0
 10
67.4611532703224697
 20
467.6821677283870713
 40
0.0
 41
0.0
 42
0.0
 10
68.8268912197291201
 20
472.1844023767621366
 40
0.0
 41
0.0
 42
0.0
 10
71.0447293047389081
 20
476.3336855924704878
 40
0.0
 41
0.0
 42
0.0
 10
74.0294372515228645
 20
479.970562748477164
 40
0.0
 41
0.0
 42
0.0
 10
77.6663144075295406
 20
482.9552706952611061
 40
0.0
 41
0.0
 42
0.0
 10
81.815597623237835
 20
485.1731087802709226
 40
0.0
 41
0.0
 42
0.0
 10
86.3178322716129145
 20
486.5388467296775161
 40
0.0
 41
0.0
 42
0.0
 10
91.0
 20
487.0
 40
0.0
 41
0.0
 42
0.0
  0
TEXT
  5
3C
330
1D
100
AcDbEntity
  8
0
  6
ByLayer
420
0
 48
1.0
 60
0
 67
0
370
-1
100
AcDbText
 39
0.0
 10
85.0
 20
456.5
 30
0.0
 40
16.0
  1
Alte Not-Halt Mobile Panel Steckplatz
 50
0.0
 41
1.0
 51
0.0
  7
Standard
 71
0
 72
0
 11
0.0
 21
0.0
 31
0.0
210
0.0
220
0.0
230
1.0
100
AcDbText
 73
0
  0
TEXT
  5
3D
330
1D
100
AcDbEntity
  8
0
  6
ByLayer
420
0
 48
1.0
 60
0
 67
0
370
-1
100
AcDbText
 39
0.0
 10
85.0
 20
420.5
 30
0.0
 40
16.0
  1
und Fördererstich AE11/AE12.
 50
0.0
 41
1.0
 51
0.0
  7
Standard
 71
0
 72
0
 11
0.0
 21
0.0
 31
0.0
210
0.0
220
0.0
230
1.0
100
AcDbText
 73
0
  0
TEXT
  5
3E
330
1D
100
AcDbEntity
  8
0
  6
ByLayer
420
0
 48
1.0
 60
0
 67
0
370
-1
100
AcDbText
 39
0.0
 10
85.0
 20
384.5
 30
0.0
 40
16.0
  1
Am Pnoz gebrückt. Im Programm nur noch für
 50
0.0
 41
1.0
 51
0.0
  7
Standard
 71
0
 72
0
 11
0.0
 21
0.0
 31
0.0
210
0.0
220
0.0
230
1.0
100
AcDbText
 73
0
  0
TEXT
  5
3F
330
1D
100
AcDbEntity
  8
0
  6
ByLayer
420
0
 48
1.0
 60
0
 67
0
370
-1
100
AcDbText
 39
0.0
 10
85.0
 20
348.5
 30
0.0
 40
16.0
  1
Diagnose, falls sie mal ausgelöst werden!
 50
0.0
 41
1.0
 51
0.0
  7
Standard
 71
0
 72
0
 11
0.0
 21
0.0
 31
0.0
210
0.0
220
0.0
230
1.0
100
AcDbText
 73
0
  0
HATCH
  5
40
330
1D
100
AcDbEntity
  8
0
  6
ByLayer
420
16777215
 48
1.0
 60
0
 67
0
370
-1
100
AcDbHatch
 30
0.0
210
0.0
220
0.0
230
1.0
  2
SOLID
 70
1
 71
0
 91
1
 92
2
 72
0
 73
1
 93
41
 10
731.0
 20
623.0
 10
1150.0
 20
623.0
 10
1150.0
 20
623.0
 10
1155.4625290164515263
 20
622.4619878512904734
 10
1160.7151361062224169
 20
620.8686269103160384
 10
1165.5559665245489214
 20
618.2811491444713283
 10
1169.7989898732232632
 20
614.7989898732232632
 10
1173.2811491444713283
 20
610.5559665245489214
 10
1175.8686269103159248
 20
605.7151361062225305
 10
1177.4619878512903597
 20
600.4625290164515263
 10
1178.0
 20
595.0
 10
1178.0
 20
163.0
 10
1178.0
 20
163.0
 10
1177.4619878512903597
 20
157.53747098354836
 10
1175.8686269103159248
 20
152.2848638937774695
 10
1173.2811491444713283
 20
147.4440334754511923
 10
1169.7989898732232632
 20
143.2010101267766231
 10
1165.5559665245489214
 20
139.7188508555287854
 10
1160.7151361062224169
 20
137.1313730896839616
 10
1155.4625290164515263
 20
135.5380121487095266
 10
1150.0
 20
135.0
 10
731.0
 20
135.0
 10
731.0
 20
135.0
 10
725.53747098354836
 20
135.5380121487095266
 10
720.2848638937774695
 20
137.1313730896839616
 10
715.4440334754511923
 20
139.7188508555286717
 10
711.2010101267766231
 20
143.2010101267766231
 10
707.7188508555286717
 20
147.4440334754511923
 10
705.1313730896839616
 20
152.2848638937774695
 10
703.5380121487095266
 20
157.53747098354836
 10
703.0
 20
163.0
 10
703.0
 20
595.0
 10
703.0
 20
595.0
 10
703.5380121487095266
 20
600.4625290164515263
 10
705.1313730896839616
 20
605.7151361062225305
 10
707.7188508555286717
 20
610.5559665245489214
 10
711.2010101267766231
 20
614.7989898732232632
 10
715.4440334754511923
 20
618.2811491444713283
 10
720.2848638937774695
 20
620.8686269103160384
 10
725.53747098354836
 20
622.4619878512904734
 10
731.0
 20
623.0
 97
0
 75
0
 76
1
 47
0.0
 98
0
  0
LWPOLYLINE
  5
41
330
1D
100
AcDbEntity
  8
0
  6
ByLayer
420
1450302
 48
1.0
 60
0
 67
0
370
-1
100
AcDbPolyline
 90
41
 70
1
 43
0.0
 38
0.0
 39
0.0
210
0.0
220
0.0
230
1.0
 10
731.0
 20
623.0
 40
0.0
 41
0.0
 42
0.0
 10
1150.0
 20
623.0
 40
0.0
 41
0.0
 42
0.0
 10
1150.0
 20
623.0
 40
0.0
 41
0.0
 42
0.0
 10
1155.4625290164515263
 20
622.4619878512904734
 40
0.0
 41
0.0
 42
0.0
 10
1160.7151361062224169
 20
620.8686269103160384
 40
0.0
 41
0.0
 42
0.0
 10
1165.5559665245489214
 20
618.2811491444713283
 40
0.0
 41
0.0
 42
0.0
 10
1169.7989898732232632
 20
614.7989898732232632
 40
0.0
 41
0.0
 42
0.0
 10
1173.2811491444713283
 20
610.5559665245489214
 40
0.0
 41
0.0
 42
0.0
 10
1175.8686269103159248
 20
605.7151361062225305
 40
0.0
 41
0.0
 42
0.0
 10
1177.4619878512903597
 20
600.4625290164515263
 40
0.0
 41
0.0
 42
0.0
 10
1178.0
 20
595.0
 40
0.0
 41
0.0
 42
0.0
 10
1178.0
 20
163.0
 40
0.0
 41
0.0
 42
0.0
 10
1178.0
 20
163.0
 40
0.0
 41
0.0
 42
0.0
 10
1177.4619878512903597
 20
157.53747098354836
 40
0.0
 41
0.0
 42
0.0
 10
1175.8686269103159248
 20
152.2848638937774695
 40
0.0
 41
0.0
 42
0.0
 10
1173.2811491444713283
 20
147.4440334754511923
 40
0.0
 41
0.0
 42
0.0
 10
1169.7989898732232632
 20
143.2010101267766231
 40
0.0
 41
0.0
 42
0.0
 10
1165.5559665245489214
 20
139.7188508555287854
 40
0.0
 41
0.0
 42
0.0
 10
1160.7151361062224169
 20
137.1313730896839616
 40
0.0
 41
0.0
 42
0.0
 10
1155.4625290164515263
 20
135.5380121487095266
 40
0.0
 41
0.0
 42
0.0
 10
1150.0
 20
135.0
 40
0.0
 41
0.0
 42
0.0
 10
731.0
 20
135.0
 40
0.0
 41
0.0
 42
0.0
 10
731.0
 20
135.0
 40
0.0
 41
0.0
 42
0.0
 10
725.53747098354836
 20
135.5380121487095266
 40
0.0
 41
0.0
 42
0.0
 10
720.2848638937774695
 20
137.1313730896839616
 40
0.0
 41
0.0
 42
0.0
 10
715.4440334754511923
 20
139.7188508555286717
 40
0.0
 41
0.0
 42
0.0
 10
711.2010101267766231
 20
143.2010101267766231
 40
0.0
 41
0.0
 42
0.0
 10
707.7188508555286717
 20
147.4440334754511923
 40
0.0
 41
0.0
 42
0.0
 10
705.1313730896839616
 20
152.2848638937774695
 40
0.0
 41
0.0
 42
0.0
 10
703.5380121487095266
 20
157.53747098354836
 40
0.0
 41
0.0
 42
0.0
 10
703.0
 20
163.0
 40
0.0
 41
0.0
 42
0.0
 10
703.0
 20
595.0
 40
0.0
 41
0.0
 42
0.0
 10
703.0
 20
595.0
 40
0.0
 41
0.0
 42
0.0
 10
703.5380121487095266
 20
600.4625290164515263
 40
0.0
 41
0.0
 42
0.0
 10
705.1313730896839616
 20
605.7151361062225305
 40
0.0
 41
0.0
 42
0.0
 10
707.7188508555286717
 20
610.5559665245489214
 40
0.0
 41
0.0
 42
0.0
 10
711.2010101267766231
 20
614.7989898732232632
 40
0.0
 41
0.0
 42
0.0
 10
715.4440334754511923
 20
618.2811491444713283
 40
0.0
 41
0.0
 42
0.0
 10
720.2848638937774695
 20
620.8686269103160384
 40
0.0
 41
0.0
 42
0.0
 10
725.53747098354836
 20
622.4619878512904734
 40
0.0
 41
0.0
 42
0.0
 10
731.0
 20
623.0
 40
0.0
 41
0.0
 42
0.0
  0
TEXT
  5
42
330
1D
100
AcDbEntity
  8
0
  6
ByLayer
420
1450302
 48
1.0
 60
0
 67
0
370
-1
100
AcDbText
 39
0.0
 10
728.140625
 20
574.5
 30
0.0
 40
30.0
  1
Transformed iframe
 50
0.0
 41
1.0
 51
0.0
  7
Standard
 71
0
 72
0
 11
0.0
 21
0.0
 31
0.0
210
0.0
220
0.0
230
1.0
100
AcDbText
 73
0
  0
TEXT
  5
43
330
1D
100
AcDbEntity
  8
0
  6
ByLayer
420
1450302
 48
1.0
 60
0
 67
0
370
-1
100
AcDbText
 39
0.0
 10
728.140625
 20
538.25
 30
0.0
 40
17.0
  1
The right frame is rotated slightly so iframe descendants
 50
0.0
 41
1.0
 51
0.0
  7
Standard
 71
0
 72
0
 11
0.0
 21
0.0
 31
0.0
210
0.0
220
0.0
230
1.0
100
AcDbText
 73
0
  0
TEXT
  5
44
330
1D
100
AcDbEntity
  8
0
  6
ByLayer
420
1450302
 48
1.0
 60
0
 67
0
370
-1
100
AcDbText
 39
0.0
 10
728.140625
 20
511.90625
 30
0.0
 40
17.0
  1
have to inherit the iframe viewport transform instead of
 50
0.0
 41
1.0
 51
0.0
  7
Standard
 71
0
 72
0
 11
0.0
 21
0.0
 31
0.0
210
0.0
220
0.0
230
1.0
100
AcDbText
 73
0
  0
TEXT
  5
45
330
1D
100
AcDbEntity
  8
0
  6
ByLayer
420
1450302
 48
1.0
 60
0
 67
0
370
-1
100
AcDbText
 39
0.0
 10
728.140625
 20
485.5625
 30
0.0
 40
17.0
  1
using plain viewport-relative coordinates.
 50
0.0
 41
1.0
 51
0.0
  7
Standard
 71
0
 72
0
 11
0.0
 21
0.0
 31
0.0
210
0.0
220
0.0
230
1.0
100
AcDbText
 73
0
  0
HATCH
  5
46
330
1D
100
AcDbEntity
  8
0
  6
ByLayer
420
15266296
 48
1.0
 60
0
 67
0
370
-1
100
AcDbHatch
 30
0.0
210
0.0
220
0.0
230
1.0
  2
SOLID
 70
1
 71
0
 91
1
 92
2
 72
0
 73
1
 93
41
 10
754.0
 20
460.0
 10
1127.0
 20
460.0
 10
1127.0
 20
460.0
 10
1132.0723483724193557
 20
459.5004172904839379
 10
1136.9497692414922767
 20
458.0208678452934237
 10
1141.4448260585097614
 20
455.6182099198662172
 10
1145.3847763108501567
 20
452.3847763108502704
 10
1148.6182099198661035
 20
448.4448260585096477
 10
1151.0208678452934237
 20
443.9497692414922767
 10
1152.5004172904839379
 20
439.0723483724193557
 10
1153.0
 20
434.0
 10
1153.0
 20
186.0
 10
1153.0
 20
186.0
 10
1152.5004172904839379
 20
180.9276516275806443
 10
1151.0208678452934237
 20
176.0502307585077233
 10
1148.6182099198661035
 20
171.5551739414903523
 10
1145.3847763108501567
 20
167.6152236891497296
 10
1141.4448260585097614
 20
164.3817900801337828
 10
1136.9497692414922767
 20
161.9791321547065763
 10
1132.0723483724193557
 20
160.4995827095160621
 10
1127.0
 20
160.0
 10
754.0
 20
160.0
 10
754.0
 20
160.0
 10
748.9276516275806443
 20
160.4995827095160621
 10
744.0502307585077233
 20
161.9791321547065763
 10
739.5551739414903523
 20
164.3817900801337828
 10
735.6152236891497296
 20
167.6152236891497296
 10
732.3817900801337828
 20
171.5551739414903523
 10
729.9791321547065763
 20
176.0502307585076096
 10
728.4995827095160621
 20
180.9276516275806443
 10
728.0
 20
186.0
 10
728.0
 20
434.0
 10
728.0
 20
434.0
 10
728.4995827095160621
 20
439.0723483724193557
 10
729.9791321547065763
 20
443.9497692414922767
 10
732.3817900801337828
 20
448.4448260585096477
 10
735.6152236891497296
 20
452.3847763108502704
 10
739.5551739414903523
 20
455.6182099198662172
 10
744.0502307585076096
 20
458.0208678452934237
 10
748.9276516275806443
 20
459.5004172904839379
 10
754.0
 20
460.0
 97
0
 75
0
 76
1
 47
0.0
 98
0
  0
LWPOLYLINE
  5
47
330
1D
100
AcDbEntity
  8
0
  6
ByLayer
420
15266296
 48
1.0
 60
0
 67
0
370
-1
100
AcDbPolyline
 90
41
 70
1
 43
0.0
 38
0.0
 39
0.0
210
0.0
220
0.0
230
1.0
 10
754.0
 20
460.0
 40
0.0
 41
0.0
 42
0.0
 10
1127.0
 20
460.0
 40
0.0
 41
0.0
 42
0.0
 10
1127.0
 20
460.0
 40
0.0
 41
0.0
 42
0.0
 10
1132.0723483724193557
 20
459.5004172904839379
 40
0.0
 41
0.0
 42
0.0
 10
1136.9497692414922767
 20
458.0208678452934237
 40
0.0
 41
0.0
 42
0.0
 10
1141.4448260585097614
 20
455.6182099198662172
 40
0.0
 41
0.0
 42
0.0
 10
1145.3847763108501567
 20
452.3847763108502704
 40
0.0
 41
0.0
 42
0.0
 10
1148.6182099198661035
 20
448.4448260585096477
 40
0.0
 41
0.0
 42
0.0
 10
1151.0208678452934237
 20
443.9497692414922767
 40
0.0
 41
0.0
 42
0.0
 10
1152.5004172904839379
 20
439.0723483724193557
 40
0.0
 41
0.0
 42
0.0
 10
1153.0
 20
434.0
 40
0.0
 41
0.0
 42
0.0
 10
1153.0
 20
186.0
 40
0.0
 41
0.0
 42
0.0
 10
1153.0
 20
186.0
 40
0.0
 41
0.0
 42
0.0
 10
1152.5004172904839379
 20
180.9276516275806443
 40
0.0
 41
0.0
 42
0.0
 10
1151.0208678452934237
 20
176.0502307585077233
 40
0.0
 41
0.0
 42
0.0
 10
1148.6182099198661035
 20
171.5551739414903523
 40
0.0
 41
0.0
 42
0.0
 10
1145.3847763108501567
 20
167.6152236891497296
 40
0.0
 41
0.0
 42
0.0
 10
1141.4448260585097614
 20
164.3817900801337828
 40
0.0
 41
0.0
 42
0.0
 10
1136.9497692414922767
 20
161.9791321547065763
 40
0.0
 41
0.0
 42
0.0
 10
1132.0723483724193557
 20
160.4995827095160621
 40
0.0
 41
0.0
 42
0.0
 10
1127.0
 20
160.0
 40
0.0
 41
0.0
 42
0.0
 10
754.0
 20
160.0
 40
0.0
 41
0.0
 42
0.0
 10
754.0
 20
160.0
 40
0.0
 41
0.0
 42
0.0
 10
748.9276516275806443
 20
160.4995827095160621
 40
0.0
 41
0.0
 42
0.0
 10
744.0502307585077233
 20
161.9791321547065763
 40
0.0
 41
0.0
 42
0.0
 10
739.5551739414903523
 20
164.3817900801337828
 40
0.0
 41
0.0
 42
0.0
 10
735.6152236891497296
 20
167.6152236891497296
 40
0.0
 41
0.0
 42
0.0
 10
732.3817900801337828
 20
171.5551739414903523
 40
0.0
 41
0.0
 42
0.0
 10
729.9791321547065763
 20
176.0502307585076096
 40
0.0
 41
0.0
 42
0.0
 10
728.4995827095160621
 20
180.9276516275806443
 40
0.0
 41
0.0
 42
0.0
 10
728.0
 20
186.0
 40
0.0
 41
0.0
 42
0.0
 10
728.0
 20
434.0
 40
0.0
 41
0.0
 42
0.0
 10
728.0
 20
434.0
 40
0.0
 41
0.0
 42
0.0
 10
728.4995827095160621
 20
439.0723483724193557
 40
0.0
 41
0.0
 42
0.0
 10
729.9791321547065763
 20
443.9497692414922767
 40
0.0
 41
0.0
 42
0.0
 10
732.3817900801337828
 20
448.4448260585096477
 40
0.0
 41
0.0
 42
0.0
 10
735.6152236891497296
 20
452.3847763108502704
 40
0.0
 41
0.0
 42
0.0
 10
739.5551739414903523
 20
455.6182099198662172
 40
0.0
 41
0.0
 42
0.0
 10
744.0502307585076096
 20
458.0208678452934237
 40
0.0
 41
0.0
 42
0.0
 10
748.9276516275806443
 20
459.5004172904839379
 40
0.0
 41
0.0
 42
0.0
 10
754.0
 20
460.0
 40
0.0
 41
0.0
 42
0.0
  0
HATCH
  5
48
330
1D
100
AcDbEntity
  8
0
  6
ByLayer
420
16777215
 48
1.0
 60
0
 67
0
370
-1
100
AcDbHatch
 30
0.0
210
0.0
220
0.0
230
1.0
  2
SOLID
 70
1
 71
0
 91
1
 92
2
 72
0
 73
1
 93
20
 10
745.0263559675232727
 20
391.008427572509845
 10
745.2355463209499931
 20
401.6129661950070613
 10
748.7879833487533006
 20
409.6054746350082496
 10
755.6836670509334226
 20
414.9859528925137511
 10
765.9225974274901318
 20
417.7544009675232246
 10
1048.9966825725100534
 20
452.5115490324767507
 10
1059.601221195007156
 20
452.302358679050144
 10
1067.593729635008458
 20
448.7499216512467228
 10
1072.9742078925137321
 20
441.8542379490666008
 10
1075.7426559675232056
 20
431.6153075725098915
 10
1094.9736440324768409
 20
274.9915724274900413
 10
1094.764453679050348
 20
264.387033804992825
 10
1091.2120166512468131
 20
256.3945253649916367
 10
1084.3163329490666911
 20
251.0140471074862489
 10
1074.0774025725099818
 20
248.2455990324766617
 10
791.0033174274901739
 20
213.4884509675232493
 10
780.3987788049930714
 20
213.697641320949856
 10
772.4062703649917694
 20
217.2500783487532772
 10
767.0257921074863816
 20
224.1457620509333992
 10
764.2573440324767944
 20
234.3846924274901085
 97
0
 75
0
 76
1
 47
0.0
 98
0
  0
LWPOLYLINE
  5
49
330
1D
100
AcDbEntity
  8
0
  6
ByLayer
420
1189439
 48
1.0
 60
0
 67
0
370
-1
100
AcDbPolyline
 90
20
 70
1
 43
0.0
 38
0.0
 39
0.0
210
0.0
220
0.0
230
1.0
 10
745.0263559675232727
 20
391.008427572509845
 40
0.0
 41
0.0
 42
0.0
 10
745.2355463209499931
 20
401.6129661950070613
 40
0.0
 41
0.0
 42
0.0
 10
748.7879833487533006
 20
409.6054746350082496
 40
0.0
 41
0.0
 42
0.0
 10
755.6836670509334226
 20
414.9859528925137511
 40
0.0
 41
0.0
 42
0.0
 10
765.9225974274901318
 20
417.7544009675232246
 40
0.0
 41
0.0
 42
0.0
 10
1048.9966825725100534
 20
452.5115490324767507
 40
0.0
 41
0.0
 42
0.0
 10
1059.601221195007156
 20
452.302358679050144
 40
0.0
 41
0.0
 42
0.0
 10
1067.593729635008458
 20
448.7499216512467228
 40
0.0
 41
0.0
 42
0.0
 10
1072.9742078925137321
 20
441.8542379490666008
 40
0.0
 41
0.0
 42
0.0
 10
1075.7426559675232056
 20
431.6153075725098915
 40
0.0
 41
0.0
 42
0.0
 10
1094.9736440324768409
 20
274.9915724274900413
 40
0.0
 41
0.0
 42
0.0
 10
1094.764453679050348
 20
264.387033804992825
 40
0.0
 41
0.0
 42
0.0
 10
1091.2120166512468131
 20
256.3945253649916367
 40
0.0
 41
0.0
 42
0.0
 10
1084.3163329490666911
 20
251.0140471074862489
 40
0.0
 41
0.0
 42
0.0
 10
1074.0774025725099818
 20
248.2455990324766617
 40
0.0
 41
0.0
 42
0.0
 10
791.0033174274901739
 20
213.4884509675232493
 40
0.0
 41
0.0
 42
0.0
 10
780.3987788049930714
 20
213.697641320949856
 40
0.0
 41
0.0
 42
0.0
 10
772.4062703649917694
 20
217.2500783487532772
 40
0.0
 41
0.0
 42
0.0
 10
767.0257921074863816
 20
224.1457620509333992
 40
0.0
 41
0.0
 42
0.0
 10
764.2573440324767944
 20
234.3846924274901085
 40
0.0
 41
0.0
 42
0.0
  0
HATCH
  5
4A
330
1D
100
AcDbEntity
  8
0
  6
ByLayer
420
16775408
 48
1.0
 60
0
 67
0
370
-1
100
AcDbHatch
 30
0.0
210
0.0
220
0.0
230
1.0
  2
SOLID
 70
1
 71
0
 91
1
 92
2
 72
0
 73
1
 93
4
 10
753.0227600000000621
 20
406.2969049999999243
 10
1064.2851599999999053
 20
444.5151449999999613
 10
1105.0413299999997889
 20
112.5829762500000015
 10
793.7789299999999457
 20
74.3647362499998508
 97
0
 75
0
 76
1
 47
0.0
 98
0
  0
LWPOLYLINE
  5
4B
330
1D
100
AcDbEntity
  8
0
  6
ByLayer
420
16775408
 48
1.0
 60
0
 67
0
370
-1
100
AcDbPolyline
 90
4
 70
1
 43
0.0
 38
0.0
 39
0.0
210
0.0
220
0.0
230
1.0
 10
753.0227600000000621
 20
406.2969049999999243
 40
0.0
 41
0.0
 42
0.0
 10
1064.2851599999999053
 20
444.5151449999999613
 40
0.0
 41
0.0
 42
0.0
 10
1105.0413299999997889
 20
112.5829762500000015
 40
0.0
 41
0.0
 42
0.0
 10
793.7789299999999457
 20
74.3647362499998508
 40
0.0
 41
0.0
 42
0.0
  0
HATCH
  5
4C
330
1D
100
AcDbEntity
  8
0
  6
ByLayer
420
2372170
 48
1.0
 60
0
 67
0
370
-1
100
AcDbHatch
 30
0.0
210
0.0
220
0.0
230
1.0
  2
SOLID
 70
1
 71
0
 91
1
 92
2
 72
0
 73
1
 93
20
 10
775.9401880000000347
 20
380.4773899999999003
 10
776.0341493124999488
 20
385.2405941874999371
 10
777.6297852500000545
 20
388.8305617500000153
 10
780.7270958125000107
 20
391.2472926874999075
 10
785.3260810000000447
 20
392.4907869999999548
 10
866.9412708437499759
 20
402.5118782499998815
 10
871.7044750312500128
 20
402.4179169374999674
 10
875.2944425937499773
 20
400.8222809999999754
 10
877.7111735312500969
 20
397.7249704374999055
 10
878.9546678437500304
 20
393.1259852499999852
 10
878.9546678437500304
 20
393.1259852499999852
 10
878.8607065312500026
 20
388.3627810624999483
 10
877.2650705937500106
 20
384.7728134999999838
 10
874.1677600312500545
 20
382.3560825624999779
 10
869.5687748437500204
 20
381.1125882499999307
 10
787.9535850000000892
 20
371.0914969999998902
 10
783.1903808125000523
 20
371.1854583124998044
 10
779.6004132500000878
 20
372.7810942499999101
 10
777.1836823125000819
 20
375.8784048124998662
 10
775.9401880000000347
 20
380.4773899999999003
 97
0
 75
0
 76
1
 47
0.0
 98
0
  0
LWPOLYLINE
  5
4D
330
1D
100
AcDbEntity
  8
0
  6
ByLayer
420
2372170
 48
1.0
 60
0
 67
0
370
-1
100
AcDbPolyline
 90
20
 70
1
 43
0.0
 38
0.0
 39
0.0
210
0.0
220
0.0
230
1.0
 10
775.9401880000000347
 20
380.4773899999999003
 40
0.0
 41
0.0
 42
0.0
 10
776.0341493124999488
 20
385.2405941874999371
 40
0.0
 41
0.0
 42
0.0
 10
777.6297852500000545
 20
388.8305617500000153
 40
0.0
 41
0.0
 42
0.0
 10
780.7270958125000107
 20
391.2472926874999075
 40
0.0
 41
0.0
 42
0.0
 10
785.3260810000000447
 20
392.4907869999999548
 40
0.0
 41
0.0
 42
0.0
 10
866.9412708437499759
 20
402.5118782499998815
 40
0.0
 41
0.0
 42
0.0
 10
871.7044750312500128
 20
402.4179169374999674
 40
0.0
 41
0.0
 42
0.0
 10
875.2944425937499773
 20
400.8222809999999754
 40
0.0
 41
0.0
 42
0.0
 10
877.7111735312500969
 20
397.7249704374999055
 40
0.0
 41
0.0
 42
0.0
 10
878.9546678437500304
 20
393.1259852499999852
 40
0.0
 41
0.0
 42
0.0
 10
878.9546678437500304
 20
393.1259852499999852
 40
0.0
 41
0.0
 42
0.0
 10
878.8607065312500026
 20
388.3627810624999483
 40
0.0
 41
0.0
 42
0.0
 10
877.2650705937500106
 20
384.7728134999999838
 40
0.0
 41
0.0
 42
0.0
 10
874.1677600312500545
 20
382.3560825624999779
 40
0.0
 41
0.0
 42
0.0
 10
869.5687748437500204
 20
381.1125882499999307
 40
0.0
 41
0.0
 42
0.0
 10
787.9535850000000892
 20
371.0914969999998902
 40
0.0
 41
0.0
 42
0.0
 10
783.1903808125000523
 20
371.1854583124998044
 40
0.0
 41
0.0
 42
0.0
 10
779.6004132500000878
 20
372.7810942499999101
 40
0.0
 41
0.0
 42
0.0
 10
777.1836823125000819
 20
375.8784048124998662
 40
0.0
 41
0.0
 42
0.0
 10
775.9401880000000347
 20
380.4773899999999003
 40
0.0
 41
0.0
 42
0.0
  0
TEXT
  5
4E
330
1D
100
AcDbEntity
  8
0
  6
ByLayer
420
16774891
 48
1.0
 60
0
 67
0
370
-1
100
AcDbText
 39
0.0
 10
786.0022788921120309
 20
378.9422081072666515
 30
0.0
 40
11.0
  1
NESTED VIEW
 50
7.0000041509841235
 41
1.0
 51
0.0
  7
Standard
 71
0
 72
0
 11
0.0
 21
0.0
 31
0.0
210
0.0
220
0.0
230
1.0
100
AcDbText
 73
0
  0
TEXT
  5
4F
330
1D
100
AcDbEntity
  8
0
  6
ByLayer
420
2372170
 48
1.0
 60
0
 67
0
370
-1
100
AcDbText
 39
0.0
 10
781.451121907194306
 20
335.594462000315275
 30
0.0
 40
28.0
  1
Viewport Card
 50
7.0000041509840827
 41
1.0
 51
0.0
  7
Standard
 71
0
 72
0
 11
0.0
 21
0.0
 31
0.0
210
0.0
220
0.0
230
1.0
100
AcDbText
 73
0
  0
TEXT
  5
50
330
1D
100
AcDbEntity
  8
0
  6
ByLayer
420
2372170
 48
1.0
 60
0
 67
0
370
-1
100
AcDbText
 39
0.0
 10
784.9365863074255003
 20
307.2076494644545619
 30
0.0
 40
15.0
  1
This inline frame stays fully inside its
 50
7.0000041509840933
 41
1.0
 51
0.0
  7
Standard
 71
0
 72
0
 11
0.0
 21
0.0
 31
0.0
210
0.0
220
0.0
230
1.0
100
AcDbText
 73
0
  0
TEXT
  5
51
330
1D
100
AcDbEntity
  8
0
  6
ByLayer
420
2372170
 48
1.0
 60
0
 67
0
370
-1
100
AcDbText
 39
0.0
 10
787.5342323074255546
 20
286.0515332144545937
 30
0.0
 40
15.0
  1
viewport so the transform math is visible
 50
7.000004150984104
 41
1.0
 51
0.0
  7
Standard
 71
0
 72
0
 11
0.0
 21
0.0
 31
0.0
210
0.0
220
0.0
230
1.0
100
AcDbText
 73
0
  0
TEXT
  5
52
330
1D
100
AcDbEntity
  8
0
  6
ByLayer
420
2372170
 48
1.0
 60
0
 67
0
370
-1
100
AcDbText
 39
0.0
 10
790.1318783074254952
 20
264.8954169644546255
 30
0.0
 40
15.0
  1
without depending on overflow clipping.
 50
7.0000041509840827
 41
1.0
 51
0.0
  7
Standard
 71
0
 72
0
 11
0.0
 21
0.0
 31
0.0
210
0.0
220
0.0
230
1.0
100
AcDbText
 73
0
  0
HATCH
  5
53
330
1D
100
AcDbEntity
  8
0
  6
ByLayer
420
16777215
 48
1.0
 60
0
 67
0
370
-1
100
AcDbHatch
 30
0.0
210
0.0
220
0.0
230
1.0
  2
SOLID
 70
1
 71
0
 91
1
 92
2
 72
0
 73
1
 93
20
 10
795.1230394756423721
 20
224.2456956793823792
 10
795.2799322407123555
 20
232.1990996462551493
 10
797.9442600115651203
 20
238.1934809762562963
 10
803.1160227882000981
 20
242.2288396693852519
 10
810.7952205706176301
 20
244.3051757256423571
 10
905.4046894293823016
 20
255.9217647743575981
 10
913.3580933962551853
 20
255.764872009287501
 10
919.352474726256105
 20
253.1005442384349635
 10
923.3878334193850606
 20
247.928781461799872
 10
925.4641694756422794
 20
240.2495836793823401
 10
930.8702945243575186
 20
196.2202548206175834
 10
930.7134017592874216
 20
188.2668508537446996
 10
928.0490739884348841
 20
182.2724695237436663
 10
922.8773112117999062
 20
178.2371108306147107
 10
915.1981134293822606
 20
176.1607747743576056
 10
820.5886445706175891
 20
164.5441857256423646
 10
812.6352406037448191
 20
164.7010784907124616
 10
806.6408592737438994
 20
167.3654062615649991
 10
802.6055005806147165
 20
172.5371690382000907
 10
800.5291645243576113
 20
180.2163668206176226
 97
0
 75
0
 76
1
 47
0.0
 98
0
  0
LWPOLYLINE
  5
54
330
1D
100
AcDbEntity
  8
0
  6
ByLayer
420
2372170
 48
1.0
 60
0
 67
0
370
-1
100
AcDbPolyline
 90
20
 70
1
 43
0.0
 38
0.0
 39
0.0
210
0.0
220
0.0
230
1.0
 10
795.1230394756423721
 20
224.2456956793823792
 40
0.0
 41
0.0
 42
0.0
 10
795.2799322407123555
 20
232.1990996462551493
 40
0.0
 41
0.0
 42
0.0
 10
797.9442600115651203
 20
238.1934809762562963
 40
0.0
 41
0.0
 42
0.0
 10
803.1160227882000981
 20
242.2288396693852519
 40
0.0
 41
0.0
 42
0.0
 10
810.7952205706176301
 20
244.3051757256423571
 40
0.0
 41
0.0
 42
0.0
 10
905.4046894293823016
 20
255.9217647743575981
 40
0.0
 41
0.0
 42
0.0
 10
913.3580933962551853
 20
255.764872009287501
 40
0.0
 41
0.0
 42
0.0
 10
919.352474726256105
 20
253.1005442384349635
 40
0.0
 41
0.0
 42
0.0
 10
923.3878334193850606
 20
247.928781461799872
 40
0.0
 41
0.0
 42
0.0
 10
925.4641694756422794
 20
240.2495836793823401
 40
0.0
 41
0.0
 42
0.0
 10
930.8702945243575186
 20
196.2202548206175834
 40
0.0
 41
0.0
 42
0.0
 10
930.7134017592874216
 20
188.2668508537446996
 40
0.0
 41
0.0
 42
0.0
 10
928.0490739884348841
 20
182.2724695237436663
 40
0.0
 41
0.0
 42
0.0
 10
922.8773112117999062
 20
178.2371108306147107
 40
0.0
 41
0.0
 42
0.0
 10
915.1981134293822606
 20
176.1607747743576056
 40
0.0
 41
0.0
 42
0.0
 10
820.5886445706175891
 20
164.5441857256423646
 40
0.0
 41
0.0
 42
0.0
 10
812.6352406037448191
 20
164.7010784907124616
 40
0.0
 41
0.0
 42
0.0
 10
806.6408592737438994
 20
167.3654062615649991
 40
0.0
 41
0.0
 42
0.0
 10
802.6055005806147165
 20
172.5371690382000907
 40
0.0
 41
0.0
 42
0.0
 10
800.5291645243576113
 20
180.2163668206176226
 40
0.0
 41
0.0
 42
0.0
  0
TEXT
  5
55
330
1D
100
AcDbEntity
  8
0
  6
ByLayer
420
2372170
 48
1.0
 60
0
 67
0
370
-1
100
AcDbText
 39
0.0
 10
811.654843491880797
 20
210.2259218931274063
 30
0.0
 40
24.0
  1
42%
 50
7.0000041509839708
 41
1.0
 51
0.0
  7
Standard
 71
0
 72
0
 11
0.0
 21
0.0
 31
0.0
210
0.0
220
0.0
230
1.0
100
AcDbText
 73
0
  0
HATCH
  5
56
330
1D
100
AcDbEntity
  8
0
  6
ByLayer
420
16777215
 48
1.0
 60
0
 67
0
370
-1
100
AcDbHatch
 30
0.0
210
0.0
220
0.0
230
1.0
  2
SOLID
 70
1
 71
0
 91
1
 92
2
 72
0
 73
1
 93
20
 10
937.1365094756422423
 20
241.682767679382323
 10
937.2934022407122256
 20
249.636171646255093
 10
939.9577300115649905
 20
255.6305529762561264
 10
945.1294927881998547
 20
259.6659116693851956
 10
952.8086905706175003
 20
261.7422477256423008
 10
1047.4181594293822855
 20
273.3588367743575418
 10
1055.3715633962551692
 20
273.2019440092875584
 10
1061.3659447262562026
 20
270.5376162384347936
 10
1065.4013034193851581
 20
265.3658534617998157
 10
1067.4776394756422633
 20
257.6866556793822838
 10
1072.8837645243575025
 20
213.6573268206175271
 10
1072.7268717592876328
 20
205.7039228537446434
 10
1070.0625439884347543
 20
199.7095415237437237
 10
1064.8907812117997764
 20
195.6741828306146544
 10
1057.2115834293822445
 20
193.5978467743575493
 10
962.6021145706174593
 20
181.9812577256423083
 10
954.6487106037446893
 20
182.1381504907125191
 10
948.6543292737437696
 20
184.8024782615648292
 10
944.6189705806145867
 20
189.9742410382000344
 10
942.5426345243574815
 20
197.6534388206175663
 97
0
 75
0
 76
1
 47
0.0
 98
0
  0
LWPOLYLINE
  5
57
330
1D
100
AcDbEntity
  8
0
  6
ByLayer
420
2372170
 48
1.0
 60
0
 67
0
370
-1
100
AcDbPolyline
 90
20
 70
1
 43
0.0
 38
0.0
 39
0.0
210
0.0
220
0.0
230
1.0
 10
937.1365094756422423
 20
241.682767679382323
 40
0.0
 41
0.0
 42
0.0
 10
937.2934022407122256
 20
249.636171646255093
 40
0.0
 41
0.0
 42
0.0
 10
939.9577300115649905
 20
255.6305529762561264
 40
0.0
 41
0.0
 42
0.0
 10
945.1294927881998547
 20
259.6659116693851956
 40
0.0
 41
0.0
 42
0.0
 10
952.8086905706175003
 20
261.7422477256423008
 40
0.0
 41
0.0
 42
0.0
 10
1047.4181594293822855
 20
273.3588367743575418
 40
0.0
 41
0.0
 42
0.0
 10
1055.3715633962551692
 20
273.2019440092875584
 40
0.0
 41
0.0
 42
0.0
 10
1061.3659447262562026
 20
270.5376162384347936
 40
0.0
 41
0.0
 42
0.0
 10
1065.4013034193851581
 20
265.3658534617998157
 40
0.0
 41
0.0
 42
0.0
 10
1067.4776394756422633
 20
257.6866556793822838
 40
0.0
 41
0.0
 42
0.0
 10
1072.8837645243575025
 20
213.6573268206175271
 40
0.0
 41
0.0
 42
0.0
 10
1072.7268717592876328
 20
205.7039228537446434
 40
0.0
 41
0.0
 42
0.0
 10
1070.0625439884347543
 20
199.7095415237437237
 40
0.0
 41
0.0
 42
0.0
 10
1064.8907812117997764
 20
195.6741828306146544
 40
0.0
 41
0.0
 42
0.0
 10
1057.2115834293822445
 20
193.5978467743575493
 40
0.0
 41
0.0
 42
0.0
 10
962.6021145706174593
 20
181.9812577256423083
 40
0.0
 41
0.0
 42
0.0
 10
954.6487106037446893
 20
182.1381504907125191
 40
0.0
 41
0.0
 42
0.0
 10
948.6543292737437696
 20
184.8024782615648292
 40
0.0
 41
0.0
 42
0.0
 10
944.6189705806145867
 20
189.9742410382000344
 40
0.0
 41
0.0
 42
0.0
 10
942.5426345243574815
 20
197.6534388206175663
 40
0.0
 41
0.0
 42
0.0
  0
TEXT
  5
58
330
1D
100
AcDbEntity
  8
0
  6
ByLayer
420
2372170
 48
1.0
 60
0
 67
0
370
-1
100
AcDbText
 39
0.0
 10
953.6683134918806672
 20
227.6629938931274637
 30
0.0
 40
24.0
  1
2x
 50
7.0000041509841449
 41
1.0
 51
0.0
  7
Standard
 71
0
 72
0
 11
0.0
 21
0.0
 31
0.0
210
0.0
220
0.0
230
1.0
100
AcDbText
 73
0
  0
ENDSEC
  0
SECTION
  2
OBJECTS
  0
DICTIONARY
  5
1
330
0
100
AcDbDictionary
280
0
281
0
  3
ACAD_COLOR
350
2
  3
ACAD_GROUP
350
3
  3
ACAD_LAYOUT
350
4
  3
ACAD_MATERIAL
350
5
  3
ACAD_SORTENTS
350
6
  3
ACAD_MLEADERSTYLE
350
7
  3
ACAD_MLINESTYLE
350
8
  3
ACAD_TABLESTYLE
350
9
  3
ACAD_PLOTSETTINGS
350
A
  3
AcDbVariableDictionary
350
B
  3
ACAD_SCALELIST
350
C
  3
ACAD_VISUALSTYLE
350
D
  3
ACAD_FIELDLIST
350
E
  3
ACAD_IMAGE_DICT
350
F
  0
DICTIONARY
  5
2
330
1
100
AcDbDictionary
280
0
281
0
  0
DICTIONARY
  5
3
330
1
100
AcDbDictionary
280
0
281
0
  0
DICTIONARY
  5
4
330
1
100
AcDbDictionary
280
0
281
0
  0
DICTIONARY
  5
5
330
1
100
AcDbDictionary
280
0
281
0
  0
DICTIONARY
  5
6
330
1
100
AcDbDictionary
280
0
281
0
  0
DICTIONARY
  5
7
330
1
100
AcDbDictionary
280
0
281
0
  0
DICTIONARY
  5
8
330
1
100
AcDbDictionary
280
0
281
0
  0
DICTIONARY
  5
9
330
1
100
AcDbDictionary
280
0
281
0
  0
DICTIONARY
  5
A
330
1
100
AcDbDictionary
280
0
281
0
  0
DICTIONARY
  5
B
330
1
100
AcDbDictionary
280
0
281
0
  0
DICTIONARY
  5
C
330
1
100
AcDbDictionary
280
0
281
0
  0
DICTIONARY
  5
D
330
1
100
AcDbDictionary
280
0
281
0
  0
DICTIONARY
  5
E
330
1
100
AcDbDictionary
280
0
281
0
  0
DICTIONARY
  5
F
330
1
100
AcDbDictionary
280
0
281
0
  0
ENDSEC
  0
EOF
