0
SECTION
2
HEADER
9
$ACADVER
1
AC1021
9
$LASTSAVEDBY
1
@tarikjabiri/dxf
9
$HANDSEED
5
6C
9
$INSUNITS
70
0
9
$CLAYER
8
0
9
$VIEWCTR
10
590
20
612
0
ENDSEC
0
SECTION
2
CLASSES
0
ENDSEC
0
SECTION
2
TABLES
0
TABLE
2
VPORT
5
1
330
0
100
AcDbSymbolTable
70
1
0
VPORT
5
19
330
1
100
AcDbSymbolTableRecord
100
AcDbViewportTableRecord
2
*Active
70
0
10
0
20
0
11
1
21
1
12
590
22
612
13
0
23
0
14
10
24
10
15
10
25
10
16
0
26
0
36
1
17
0
27
0
37
0
40
1326
41
2
42
50
43
0
44
0
50
0
51
0
71
0
72
100
73
1
74
3
75
0
76
1
77
0
78
0
281
0
65
1
110
0
120
0
130
0
111
1
121
0
131
0
112
0
122
1
132
0
79
0
146
0
348
10020
60
7
61
5
292
1
282
1
141
0
142
0
63
250
421
3358443
0
ENDTAB
0
TABLE
2
LTYPE
5
2
330
0
100
AcDbSymbolTable
70
3
0
LTYPE
5
12
330
2
100
AcDbSymbolTableRecord
100
AcDbLinetypeTableRecord
2
ByBlock
70
0
3

72
65
73
0
40
0
0
LTYPE
5
13
330
2
100
AcDbSymbolTableRecord
100
AcDbLinetypeTableRecord
2
ByLayer
70
0
3

72
65
73
0
40
0
0
LTYPE
5
14
330
2
100
AcDbSymbolTableRecord
100
AcDbLinetypeTableRecord
2
Continuous
70
0
3
Solid line
72
65
73
0
40
0
0
ENDTAB
0
TABLE
2
LAYER
5
3
330
0
100
AcDbSymbolTable
70
1
0
LAYER
5
15
330
3
100
AcDbSymbolTableRecord
100
AcDbLayerTableRecord
2
0
70
0
62
7
6
Continuous
370
0
390
0
0
ENDTAB
0
TABLE
2
STYLE
5
4
330
0
100
AcDbSymbolTable
70
1
0
STYLE
5
16
330
4
100
AcDbSymbolTableRecord
100
AcDbTextStyleTableRecord
2
Standard
70
0
40
0
41
1
50
0
71
0
42
1
3
txt
4

0
ENDTAB
0
TABLE
2
VIEW
5
5
330
0
100
AcDbSymbolTable
70
0
0
ENDTAB
0
TABLE
2
UCS
5
6
330
0
100
AcDbSymbolTable
70
0
0
ENDTAB
0
TABLE
2
APPID
5
7
330
0
100
AcDbSymbolTable
70
1
0
APPID
5
17
330
7
100
AcDbSymbolTableRecord
100
AcDbRegAppTableRecord
2
ACAD
70
0
0
ENDTAB
0
TABLE
2
DIMSTYLE
5
8
330
0
100
AcDbSymbolTable
70
1
100
AcDbDimStyleTable
0
DIMSTYLE
105
18
330
8
100
AcDbSymbolTableRecord
100
AcDbDimStyleTableRecord
2
Standard
70
0
340
16
0
ENDTAB
0
TABLE
2
BLOCK_RECORD
5
9
330
0
100
AcDbSymbolTable
70
2
0
BLOCK_RECORD
5
C
330
9
100
AcDbSymbolTableRecord
100
AcDbBlockTableRecord
2
*Model_Space
70
0
280
1
281
0
0
BLOCK_RECORD
5
F
330
9
100
AcDbSymbolTableRecord
100
AcDbBlockTableRecord
2
*Paper_Space
70
0
280
1
281
0
0
ENDTAB
0
ENDSEC
0
SECTION
2
BLOCKS
0
BLOCK
5
D
330
C
100
AcDbEntity
8
0
100
AcDbBlockBegin
2
*Model_Space
70
0
10
0
20
0
30
0
3
*Model_Space
1

0
ENDBLK
5
E
100
AcDbEntity
8
0
100
AcDbBlockEnd
0
BLOCK
5
10
330
F
100
AcDbEntity
8
0
100
AcDbBlockBegin
2
*Paper_Space
70
0
10
0
20
0
30
0
3
*Paper_Space
1

0
ENDBLK
5
11
100
AcDbEntity
8
0
100
AcDbBlockEnd
0
ENDSEC
0
SECTION
2
ENTITIES
0
LWPOLYLINE
5
1A
330
C
100
AcDbEntity
420
#000000
8
0
100
AcDbPolyline
90
5
70
0
43
0
38
0
39
0
10
20
20
1195
10
1260
20
1195
10
1260
20
30
10
20
20
30
10
20
20
1195
0
LWPOLYLINE
5
1B
330
C
100
AcDbEntity
420
#000000
8
0
100
AcDbPolyline
90
5
70
0
43
0
38
0
39
0
10
20
20
1195
10
1260
20
1195
10
1260
20
1174
10
20
20
1174
10
20
20
1195
0
TEXT
5
1C
330
C
100
AcDbEntity
420
#000000
8
0
100
AcDbText
10
20
20
1175
30
0
40
20
1
Flexbox Row
7
STANDARD
100
AcDbText
0
LWPOLYLINE
5
1D
330
C
100
AcDbEntity
420
#000000
8
0
100
AcDbPolyline
90
5
70
0
43
0
38
0
39
0
10
20
20
1164
10
420
20
1164
10
420
20
1124
10
20
20
1124
10
20
20
1164
0
LWPOLYLINE
5
1E
330
C
100
AcDbEntity
420
#ffffff
8
0
100
AcDbPolyline
90
5
70
0
43
0
38
0
39
0
10
20
20
1164
10
121
20
1164
10
121
20
1124
10
20
20
1124
10
20
20
1164
0
TEXT
5
1F
330
C
100
AcDbEntity
420
#e53935
8
0
100
AcDbText
10
62.703125
20
1136
30
0
40
16
1
1x
7
STANDARD
100
AcDbText
0
LWPOLYLINE
5
20
330
C
100
AcDbEntity
420
#ffffff
8
0
100
AcDbPolyline
90
5
70
0
43
0
38
0
39
0
10
131
20
1164
10
309
20
1164
10
309
20
1124
10
131
20
1124
10
131
20
1164
0
TEXT
5
21
330
C
100
AcDbEntity
420
#1e88e5
8
0
100
AcDbText
10
212.203125
20
1136
30
0
40
16
1
2x
7
STANDARD
100
AcDbText
0
LWPOLYLINE
5
22
330
C
100
AcDbEntity
420
#ffffff
8
0
100
AcDbPolyline
90
5
70
0
43
0
38
0
39
0
10
319
20
1164
10
420
20
1164
10
420
20
1124
10
319
20
1124
10
319
20
1164
0
TEXT
5
23
330
C
100
AcDbEntity
420
#43a047
8
0
100
AcDbText
10
361.703125
20
1136
30
0
40
16
1
1x
7
STANDARD
100
AcDbText
0
LWPOLYLINE
5
24
330
C
100
AcDbEntity
420
#000000
8
0
100
AcDbPolyline
90
5
70
0
43
0
38
0
39
0
10
20
20
1109
10
1260
20
1109
10
1260
20
1088
10
20
20
1088
10
20
20
1109
0
TEXT
5
25
330
C
100
AcDbEntity
420
#000000
8
0
100
AcDbText
10
20
20
1089
30
0
40
20
1
Flexbox Column
7
STANDARD
100
AcDbText
0
LWPOLYLINE
5
26
330
C
100
AcDbEntity
420
#000000
8
0
100
AcDbPolyline
90
5
70
0
43
0
38
0
39
0
10
20
20
1078
10
220
20
1078
10
220
20
960
10
20
20
960
10
20
20
1078
0
LWPOLYLINE
5
27
330
C
100
AcDbEntity
420
#ffffff
8
0
100
AcDbPolyline
90
5
70
0
43
0
38
0
39
0
10
20
20
1078
10
220
20
1078
10
220
20
1044
10
20
20
1044
10
20
20
1078
0
TEXT
5
28
330
C
100
AcDbEntity
420
#e91e63
8
0
100
AcDbText
10
102.984375
20
1054
30
0
40
14
1
Item A
7
STANDARD
100
AcDbText
0
LWPOLYLINE
5
29
330
C
100
AcDbEntity
420
#ffffff
8
0
100
AcDbPolyline
90
5
70
0
43
0
38
0
39
0
10
20
20
1036
10
220
20
1036
10
220
20
1002
10
20
20
1002
10
20
20
1036
0
TEXT
5
2A
330
C
100
AcDbEntity
420
#9c27b0
8
0
100
AcDbText
10
102.65625
20
1012
30
0
40
14
1
Item B
7
STANDARD
100
AcDbText
0
LWPOLYLINE
5
2B
330
C
100
AcDbEntity
420
#ffffff
8
0
100
AcDbPolyline
90
5
70
0
43
0
38
0
39
0
10
20
20
994
10
220
20
994
10
220
20
960
10
20
20
960
10
20
20
994
0
TEXT
5
2C
330
C
100
AcDbEntity
420
#673ab7
8
0
100
AcDbText
10
102.328125
20
970
30
0
40
14
1
Item C
7
STANDARD
100
AcDbText
0
LWPOLYLINE
5
2D
330
C
100
AcDbEntity
420
#000000
8
0
100
AcDbPolyline
90
5
70
0
43
0
38
0
39
0
10
20
20
945
10
1260
20
945
10
1260
20
924
10
20
20
924
10
20
20
945
0
TEXT
5
2E
330
C
100
AcDbEntity
420
#000000
8
0
100
AcDbText
10
20
20
925
30
0
40
20
1
Flexbox Wrap
7
STANDARD
100
AcDbText
0
LWPOLYLINE
5
2F
330
C
100
AcDbEntity
420
#000000
8
0
100
AcDbPolyline
90
5
70
0
43
0
38
0
39
0
10
20
20
914
10
320
20
914
10
320
20
748
10
20
20
748
10
20
20
914
0
LWPOLYLINE
5
30
330
C
100
AcDbEntity
420
#ffffff
8
0
100
AcDbPolyline
90
5
70
0
43
0
38
0
39
0
10
20
20
914
10
100
20
914
10
100
20
864
10
20
20
864
10
20
20
914
0
TEXT
5
31
330
C
100
AcDbEntity
420
#f44336
8
0
100
AcDbText
10
56.9375
20
883
30
0
40
12
1
1
7
STANDARD
100
AcDbText
0
LWPOLYLINE
5
32
330
C
100
AcDbEntity
420
#ffffff
8
0
100
AcDbPolyline
90
5
70
0
43
0
38
0
39
0
10
108
20
914
10
188
20
914
10
188
20
864
10
108
20
864
10
108
20
914
0
TEXT
5
33
330
C
100
AcDbEntity
420
#e91e63
8
0
100
AcDbText
10
144.9375
20
883
30
0
40
12
1
2
7
STANDARD
100
AcDbText
0
LWPOLYLINE
5
34
330
C
100
AcDbEntity
420
#ffffff
8
0
100
AcDbPolyline
90
5
70
0
43
0
38
0
39
0
10
196
20
914
10
276
20
914
10
276
20
864
10
196
20
864
10
196
20
914
0
TEXT
5
35
330
C
100
AcDbEntity
420
#9c27b0
8
0
100
AcDbText
10
232.9375
20
883
30
0
40
12
1
3
7
STANDARD
100
AcDbText
0
LWPOLYLINE
5
36
330
C
100
AcDbEntity
420
#ffffff
8
0
100
AcDbPolyline
90
5
70
0
43
0
38
0
39
0
10
20
20
856
10
100
20
856
10
100
20
806
10
20
20
806
10
20
20
856
0
TEXT
5
37
330
C
100
AcDbEntity
420
#673ab7
8
0
100
AcDbText
10
56.9375
20
825
30
0
40
12
1
4
7
STANDARD
100
AcDbText
0
LWPOLYLINE
5
38
330
C
100
AcDbEntity
420
#ffffff
8
0
100
AcDbPolyline
90
5
70
0
43
0
38
0
39
0
10
108
20
856
10
188
20
856
10
188
20
806
10
108
20
806
10
108
20
856
0
TEXT
5
39
330
C
100
AcDbEntity
420
#3f51b5
8
0
100
AcDbText
10
144.9375
20
825
30
0
40
12
1
5
7
STANDARD
100
AcDbText
0
LWPOLYLINE
5
3A
330
C
100
AcDbEntity
420
#ffffff
8
0
100
AcDbPolyline
90
5
70
0
43
0
38
0
39
0
10
196
20
856
10
276
20
856
10
276
20
806
10
196
20
806
10
196
20
856
0
TEXT
5
3B
330
C
100
AcDbEntity
420
#2196f3
8
0
100
AcDbText
10
232.9375
20
825
30
0
40
12
1
6
7
STANDARD
100
AcDbText
0
LWPOLYLINE
5
3C
330
C
100
AcDbEntity
420
#ffffff
8
0
100
AcDbPolyline
90
5
70
0
43
0
38
0
39
0
10
20
20
798
10
100
20
798
10
100
20
748
10
20
20
748
10
20
20
798
0
TEXT
5
3D
330
C
100
AcDbEntity
420
#009688
8
0
100
AcDbText
10
56.9375
20
767
30
0
40
12
1
7
7
STANDARD
100
AcDbText
0
LWPOLYLINE
5
3E
330
C
100
AcDbEntity
420
#000000
8
0
100
AcDbPolyline
90
5
70
0
43
0
38
0
39
0
10
20
20
733
10
1260
20
733
10
1260
20
712
10
20
20
712
10
20
20
733
0
TEXT
5
3F
330
C
100
AcDbEntity
420
#000000
8
0
100
AcDbText
10
20
20
713
30
0
40
20
1
Centered Content
7
STANDARD
100
AcDbText
0
LWPOLYLINE
5
40
330
C
100
AcDbEntity
420
#000000
8
0
100
AcDbPolyline
90
5
70
0
43
0
38
0
39
0
10
20
20
702
10
270
20
702
10
270
20
602
10
20
20
602
10
20
20
702
0
LWPOLYLINE
5
41
330
C
100
AcDbEntity
420
#000000
8
0
100
AcDbPolyline
90
5
70
0
43
0
38
0
39
0
10
92
20
670
10
197
20
670
10
197
20
634
10
92
20
634
10
92
20
670
0
TEXT
5
42
330
C
100
AcDbEntity
420
#ffab40
8
0
100
AcDbText
10
112.3125
20
644
30
0
40
16
1
Centered!
7
STANDARD
100
AcDbText
0
LWPOLYLINE
5
43
330
C
100
AcDbEntity
420
#000000
8
0
100
AcDbPolyline
90
5
70
0
43
0
38
0
39
0
10
20
20
587
10
1260
20
587
10
1260
20
566
10
20
20
566
10
20
20
587
0
TEXT
5
44
330
C
100
AcDbEntity
420
#000000
8
0
100
AcDbText
10
20
20
567
30
0
40
20
1
Grid Basic
7
STANDARD
100
AcDbText
0
LWPOLYLINE
5
45
330
C
100
AcDbEntity
420
#000000
8
0
100
AcDbPolyline
90
5
70
0
43
0
38
0
39
0
10
20
20
556
10
370
20
556
10
370
20
428
10
20
20
428
10
20
20
556
0
LWPOLYLINE
5
46
330
C
100
AcDbEntity
420
#ffffff
8
0
100
AcDbPolyline
90
5
70
0
43
0
38
0
39
0
10
20
20
556
10
131
20
556
10
131
20
496
10
20
20
496
10
20
20
556
0
TEXT
5
47
330
C
100
AcDbEntity
420
#f44336
8
0
100
AcDbText
10
72.3125
20
519
30
0
40
14
1
1
7
STANDARD
100
AcDbText
0
LWPOLYLINE
5
48
330
C
100
AcDbEntity
420
#ffffff
8
0
100
AcDbPolyline
90
5
70
0
43
0
38
0
39
0
10
139
20
556
10
250
20
556
10
250
20
496
10
139
20
496
10
139
20
556
0
TEXT
5
49
330
C
100
AcDbEntity
420
#e91e63
8
0
100
AcDbText
10
191.640625
20
519
30
0
40
14
1
2
7
STANDARD
100
AcDbText
0
LWPOLYLINE
5
4A
330
C
100
AcDbEntity
420
#ffffff
8
0
100
AcDbPolyline
90
5
70
0
43
0
38
0
39
0
10
259
20
556
10
370
20
556
10
370
20
496
10
259
20
496
10
259
20
556
0
TEXT
5
4B
330
C
100
AcDbEntity
420
#9c27b0
8
0
100
AcDbText
10
310.984375
20
519
30
0
40
14
1
3
7
STANDARD
100
AcDbText
0
LWPOLYLINE
5
4C
330
C
100
AcDbEntity
420
#ffffff
8
0
100
AcDbPolyline
90
5
70
0
43
0
38
0
39
0
10
20
20
488
10
131
20
488
10
131
20
428
10
20
20
428
10
20
20
488
0
TEXT
5
4D
330
C
100
AcDbEntity
420
#673ab7
8
0
100
AcDbText
10
72.3125
20
451
30
0
40
14
1
4
7
STANDARD
100
AcDbText
0
LWPOLYLINE
5
4E
330
C
100
AcDbEntity
420
#ffffff
8
0
100
AcDbPolyline
90
5
70
0
43
0
38
0
39
0
10
139
20
488
10
250
20
488
10
250
20
428
10
139
20
428
10
139
20
488
0
TEXT
5
4F
330
C
100
AcDbEntity
420
#3f51b5
8
0
100
AcDbText
10
191.640625
20
451
30
0
40
14
1
5
7
STANDARD
100
AcDbText
0
LWPOLYLINE
5
50
330
C
100
AcDbEntity
420
#ffffff
8
0
100
AcDbPolyline
90
5
70
0
43
0
38
0
39
0
10
259
20
488
10
370
20
488
10
370
20
428
10
259
20
428
10
259
20
488
0
TEXT
5
51
330
C
100
AcDbEntity
420
#2196f3
8
0
100
AcDbText
10
310.984375
20
451
30
0
40
14
1
6
7
STANDARD
100
AcDbText
0
LWPOLYLINE
5
52
330
C
100
AcDbEntity
420
#000000
8
0
100
AcDbPolyline
90
5
70
0
43
0
38
0
39
0
10
20
20
413
10
1260
20
413
10
1260
20
392
10
20
20
392
10
20
20
413
0
TEXT
5
53
330
C
100
AcDbEntity
420
#000000
8
0
100
AcDbText
10
20
20
393
30
0
40
20
1
Grid Named Areas (Holy Grail Layout)
7
STANDARD
100
AcDbText
0
LWPOLYLINE
5
54
330
C
100
AcDbEntity
420
#000000
8
0
100
AcDbPolyline
90
5
70
0
43
0
38
0
39
0
10
20
20
382
10
420
20
382
10
420
20
182
10
20
20
182
10
20
20
382
0
LWPOLYLINE
5
55
330
C
100
AcDbEntity
420
#ffffff
8
0
100
AcDbPolyline
90
5
70
0
43
0
38
0
39
0
10
20
20
382
10
420
20
382
10
420
20
342
10
20
20
342
10
20
20
382
0
TEXT
5
56
330
C
100
AcDbEntity
420
#5c6bc0
8
0
100
AcDbText
10
199.65625
20
355
30
0
40
14
1
Header
7
STANDARD
100
AcDbText
0
LWPOLYLINE
5
57
330
C
100
AcDbEntity
420
#ffffff
8
0
100
AcDbPolyline
90
5
70
0
43
0
38
0
39
0
10
20
20
336
10
120
20
336
10
120
20
228
10
20
20
228
10
20
20
336
0
TEXT
5
58
330
C
100
AcDbEntity
420
#26a69a
8
0
100
AcDbText
10
57.328125
20
275
30
0
40
14
1
Side
7
STANDARD
100
AcDbText
0
LWPOLYLINE
5
59
330
C
100
AcDbEntity
420
#ffffff
8
0
100
AcDbPolyline
90
5
70
0
43
0
38
0
39
0
10
126
20
336
10
334
20
336
10
334
20
228
10
126
20
228
10
126
20
336
0
TEXT
5
5A
330
C
100
AcDbEntity
420
#ef5350
8
0
100
AcDbText
10
192
20
275
30
0
40
14
1
Main Content
7
STANDARD
100
AcDbText
0
LWPOLYLINE
5
5B
330
C
100
AcDbEntity
420
#ffffff
8
0
100
AcDbPolyline
90
5
70
0
43
0
38
0
39
0
10
340
20
336
10
420
20
336
10
420
20
228
10
340
20
228
10
340
20
336
0
TEXT
5
5C
330
C
100
AcDbEntity
420
#ff7043
8
0
100
AcDbText
10
363.65625
20
275
30
0
40
14
1
Aside
7
STANDARD
100
AcDbText
0
LWPOLYLINE
5
5D
330
C
100
AcDbEntity
420
#ffffff
8
0
100
AcDbPolyline
90
5
70
0
43
0
38
0
39
0
10
20
20
222
10
420
20
222
10
420
20
182
10
20
20
182
10
20
20
222
0
TEXT
5
5E
330
C
100
AcDbEntity
420
#78909c
8
0
100
AcDbText
10
201.328125
20
195
30
0
40
14
1
Footer
7
STANDARD
100
AcDbText
0
LWPOLYLINE
5
5F
330
C
100
AcDbEntity
420
#000000
8
0
100
AcDbPolyline
90
5
70
0
43
0
38
0
39
0
10
20
20
167
10
1260
20
167
10
1260
20
146
10
20
20
146
10
20
20
167
0
TEXT
5
60
330
C
100
AcDbEntity
420
#000000
8
0
100
AcDbText
10
20
20
147
30
0
40
20
1
Grid Auto-fill
7
STANDARD
100
AcDbText
0
LWPOLYLINE
5
61
330
C
100
AcDbEntity
420
#000000
8
0
100
AcDbPolyline
90
5
70
0
43
0
38
0
39
0
10
20
20
136
10
370
20
136
10
370
20
30
10
20
20
30
10
20
20
136
0
LWPOLYLINE
5
62
330
C
100
AcDbEntity
420
#ffffff
8
0
100
AcDbPolyline
90
5
70
0
43
0
38
0
39
0
10
20
20
136
10
103
20
136
10
103
20
86
10
20
20
86
10
20
20
136
0
TEXT
5
63
330
C
100
AcDbEntity
420
#00bcd4
8
0
100
AcDbText
10
57.828125
20
105
30
0
40
12
1
A
7
STANDARD
100
AcDbText
0
LWPOLYLINE
5
64
330
C
100
AcDbEntity
420
#ffffff
8
0
100
AcDbPolyline
90
5
70
0
43
0
38
0
39
0
10
109
20
136
10
192
20
136
10
192
20
86
10
109
20
86
10
109
20
136
0
TEXT
5
65
330
C
100
AcDbEntity
420
#009688
8
0
100
AcDbText
10
146.828125
20
105
30
0
40
12
1
B
7
STANDARD
100
AcDbText
0
LWPOLYLINE
5
66
330
C
100
AcDbEntity
420
#ffffff
8
0
100
AcDbPolyline
90
5
70
0
43
0
38
0
39
0
10
198
20
136
10
281
20
136
10
281
20
86
10
198
20
86
10
198
20
136
0
TEXT
5
67
330
C
100
AcDbEntity
420
#4caf50
8
0
100
AcDbText
10
235.515625
20
105
30
0
40
12
1
C
7
STANDARD
100
AcDbText
0
LWPOLYLINE
5
68
330
C
100
AcDbEntity
420
#ffffff
8
0
100
AcDbPolyline
90
5
70
0
43
0
38
0
39
0
10
287
20
136
10
370
20
136
10
370
20
86
10
287
20
86
10
287
20
136
0
TEXT
5
69
330
C
100
AcDbEntity
420
#8bc34a
8
0
100
AcDbText
10
324.515625
20
105
30
0
40
12
1
D
7
STANDARD
100
AcDbText
0
LWPOLYLINE
5
6A
330
C
100
AcDbEntity
420
#ffffff
8
0
100
AcDbPolyline
90
5
70
0
43
0
38
0
39
0
10
20
20
80
10
103
20
80
10
103
20
30
10
20
20
30
10
20
20
80
0
TEXT
5
6B
330
C
100
AcDbEntity
420
#cddc39
8
0
100
AcDbText
10
57.828125
20
49
30
0
40
12
1
E
7
STANDARD
100
AcDbText
0
ENDSEC
0
SECTION
2
OBJECTS
0
DICTIONARY
5
A
330
0
100
AcDbDictionary
281
1
3
ACAD_GROUP
350
B
0
DICTIONARY
5
B
330
A
100
AcDbDictionary
281
0
0
ENDSEC
0
EOF