<?xml version="1.0" encoding="UTF-8"?>
<svg xmlns="http://www.w3.org/2000/svg" xmlns:xlink="http://www.w3.org/1999/xlink" width="1240" height="1165" viewBox="0 0 1240 1165">
<text x="0" y="1" fill="rgb(0, 0, 0)" dominant-baseline="text-before-edge" font-weight="700" font-size="18px" font-family="Arial, sans-serif">Flexbox Row</text>
<rect x="0" y="31" width="101" height="40" rx="6" ry="6" fill="rgb(229, 57, 53)"/>
<text x="42.7" y="44" fill="rgb(255, 255, 255)" dominant-baseline="text-before-edge" font-weight="700" font-size="14px" font-family="Arial, sans-serif">1x</text>
<rect x="111" y="31" width="178" height="40" rx="6" ry="6" fill="rgb(30, 136, 229)"/>
<text x="192.2" y="44" fill="rgb(255, 255, 255)" dominant-baseline="text-before-edge" font-weight="700" font-size="14px" font-family="Arial, sans-serif">2x</text>
<rect x="299" y="31" width="101" height="40" rx="6" ry="6" fill="rgb(67, 160, 71)"/>
<text x="341.7" y="44" fill="rgb(255, 255, 255)" dominant-baseline="text-before-edge" font-weight="700" font-size="14px" font-family="Arial, sans-serif">1x</text>
<text x="0" y="87" fill="rgb(0, 0, 0)" dominant-baseline="text-before-edge" font-weight="700" font-size="18px" font-family="Arial, sans-serif">Flexbox Column</text>
<rect x="0" y="117" width="200" height="34" rx="4" ry="4" fill="rgb(233, 30, 99)"/>
<text x="82.98" y="128" fill="rgb(255, 255, 255)" dominant-baseline="text-before-edge" font-size="12px" font-family="Arial, sans-serif">Item A</text>
<rect x="0" y="159" width="200" height="34" rx="4" ry="4" fill="rgb(156, 39, 176)"/>
<text x="82.66" y="170" fill="rgb(255, 255, 255)" dominant-baseline="text-before-edge" font-size="12px" font-family="Arial, sans-serif">Item B</text>
<rect x="0" y="201" width="200" height="34" rx="4" ry="4" fill="rgb(103, 58, 183)"/>
<text x="82.33" y="212" fill="rgb(255, 255, 255)" dominant-baseline="text-before-edge" font-size="12px" font-family="Arial, sans-serif">Item C</text>
<text x="0" y="251" fill="rgb(0, 0, 0)" dominant-baseline="text-before-edge" font-weight="700" font-size="18px" font-family="Arial, sans-serif">Flexbox Wrap</text>
<rect x="0" y="281" width="80" height="50" rx="4" ry="4" fill="rgb(244, 67, 54)"/>
<text x="36.94" y="300.5" fill="rgb(255, 255, 255)" dominant-baseline="text-before-edge" font-size="11px" font-family="Arial, sans-serif">1</text>
<rect x="88" y="281" width="80" height="50" rx="4" ry="4" fill="rgb(233, 30, 99)"/>
<text x="124.94" y="300.5" fill="rgb(255, 255, 255)" dominant-baseline="text-before-edge" font-size="11px" font-family="Arial, sans-serif">2</text>
<rect x="176" y="281" width="80" height="50" rx="4" ry="4" fill="rgb(156, 39, 176)"/>
<text x="212.94" y="300.5" fill="rgb(255, 255, 255)" dominant-baseline="text-before-edge" font-size="11px" font-family="Arial, sans-serif">3</text>
<rect x="0" y="339" width="80" height="50" rx="4" ry="4" fill="rgb(103, 58, 183)"/>
<text x="36.94" y="358.5" fill="rgb(255, 255, 255)" dominant-baseline="text-before-edge" font-size="11px" font-family="Arial, sans-serif">4</text>
<rect x="88" y="339" width="80" height="50" rx="4" ry="4" fill="rgb(63, 81, 181)"/>
<text x="124.94" y="358.5" fill="rgb(255, 255, 255)" dominant-baseline="text-before-edge" font-size="11px" font-family="Arial, sans-serif">5</text>
<rect x="176" y="339" width="80" height="50" rx="4" ry="4" fill="rgb(33, 150, 243)"/>
<text x="212.94" y="358.5" fill="rgb(255, 255, 255)" dominant-baseline="text-before-edge" font-size="11px" font-family="Arial, sans-serif">6</text>
<rect x="0" y="397" width="80" height="50" rx="4" ry="4" fill="rgb(0, 150, 136)"/>
<text x="36.94" y="416.5" fill="rgb(255, 255, 255)" dominant-baseline="text-before-edge" font-size="11px" font-family="Arial, sans-serif">7</text>
<text x="0" y="463" fill="rgb(0, 0, 0)" dominant-baseline="text-before-edge" font-weight="700" font-size="18px" font-family="Arial, sans-serif">Centered Content</text>
<rect x="0" y="493" width="250" height="100" rx="8" ry="8" fill="rgb(38, 50, 56)"/>
<rect x="72" y="525" width="105" height="36" rx="18" ry="18" fill="rgb(255, 171, 64)"/>
<text x="92.31" y="536" fill="rgb(0, 0, 0)" dominant-baseline="text-before-edge" font-weight="700" font-size="14px" font-family="Arial, sans-serif">Centered!</text>
<text x="0" y="609" fill="rgb(0, 0, 0)" dominant-baseline="text-before-edge" font-weight="700" font-size="18px" font-family="Arial, sans-serif">Grid Basic</text>
<rect x="0" y="639" width="111" height="60" rx="4" ry="4" fill="rgb(244, 67, 54)"/>
<text x="52.31" y="663" fill="rgb(255, 255, 255)" dominant-baseline="text-before-edge" font-weight="700" font-size="12px" font-family="Arial, sans-serif">1</text>
<rect x="119" y="639" width="111" height="60" rx="4" ry="4" fill="rgb(233, 30, 99)"/>
<text x="171.64" y="663" fill="rgb(255, 255, 255)" dominant-baseline="text-before-edge" font-weight="700" font-size="12px" font-family="Arial, sans-serif">2</text>
<rect x="239" y="639" width="111" height="60" rx="4" ry="4" fill="rgb(156, 39, 176)"/>
<text x="290.98" y="663" fill="rgb(255, 255, 255)" dominant-baseline="text-before-edge" font-weight="700" font-size="12px" font-family="Arial, sans-serif">3</text>
<rect x="0" y="707" width="111" height="60" rx="4" ry="4" fill="rgb(103, 58, 183)"/>
<text x="52.31" y="731" fill="rgb(255, 255, 255)" dominant-baseline="text-before-edge" font-weight="700" font-size="12px" font-family="Arial, sans-serif">4</text>
<rect x="119" y="707" width="111" height="60" rx="4" ry="4" fill="rgb(63, 81, 181)"/>
<text x="171.64" y="731" fill="rgb(255, 255, 255)" dominant-baseline="text-before-edge" font-weight="700" font-size="12px" font-family="Arial, sans-serif">5</text>
<rect x="239" y="707" width="111" height="60" rx="4" ry="4" fill="rgb(33, 150, 243)"/>
<text x="290.98" y="731" fill="rgb(255, 255, 255)" dominant-baseline="text-before-edge" font-weight="700" font-size="12px" font-family="Arial, sans-serif">6</text>
<text x="0" y="783" fill="rgb(0, 0, 0)" dominant-baseline="text-before-edge" font-weight="700" font-size="18px" font-family="Arial, sans-serif">Grid Named Areas (Holy Grail Layout)</text>
<rect x="0" y="813" width="400" height="40" rx="4" ry="4" fill="rgb(92, 107, 192)"/>
<text x="179.66" y="827" fill="rgb(255, 255, 255)" dominant-baseline="text-before-edge" font-weight="700" font-size="12px" font-family="Arial, sans-serif">Header</text>
<rect x="0" y="859" width="100" height="108" rx="4" ry="4" fill="rgb(38, 166, 154)"/>
<text x="37.33" y="907" fill="rgb(255, 255, 255)" dominant-baseline="text-before-edge" font-weight="700" font-size="12px" font-family="Arial, sans-serif">Side</text>
<rect x="106" y="859" width="208" height="108" rx="4" ry="4" fill="rgb(239, 83, 80)"/>
<text x="172" y="907" fill="rgb(255, 255, 255)" dominant-baseline="text-before-edge" font-weight="700" font-size="12px" font-family="Arial, sans-serif">Main Content</text>
<rect x="320" y="859" width="80" height="108" rx="4" ry="4" fill="rgb(255, 112, 67)"/>
<text x="343.66" y="907" fill="rgb(255, 255, 255)" dominant-baseline="text-before-edge" font-weight="700" font-size="12px" font-family="Arial, sans-serif">Aside</text>
<rect x="0" y="973" width="400" height="40" rx="4" ry="4" fill="rgb(120, 144, 156)"/>
<text x="181.33" y="987" fill="rgb(255, 255, 255)" dominant-baseline="text-before-edge" font-weight="700" font-size="12px" font-family="Arial, sans-serif">Footer</text>
<text x="0" y="1029" fill="rgb(0, 0, 0)" dominant-baseline="text-before-edge" font-weight="700" font-size="18px" font-family="Arial, sans-serif">Grid Auto-fill</text>
<rect x="0" y="1059" width="83" height="50" rx="4" ry="4" fill="rgb(0, 188, 212)"/>
<text x="37.83" y="1078.5" fill="rgb(255, 255, 255)" dominant-baseline="text-before-edge" font-size="11px" font-family="Arial, sans-serif">A</text>
<rect x="89" y="1059" width="83" height="50" rx="4" ry="4" fill="rgb(0, 150, 136)"/>
<text x="126.83" y="1078.5" fill="rgb(255, 255, 255)" dominant-baseline="text-before-edge" font-size="11px" font-family="Arial, sans-serif">B</text>
<rect x="178" y="1059" width="83" height="50" rx="4" ry="4" fill="rgb(76, 175, 80)"/>
<text x="215.52" y="1078.5" fill="rgb(255, 255, 255)" dominant-baseline="text-before-edge" font-size="11px" font-family="Arial, sans-serif">C</text>
<rect x="267" y="1059" width="83" height="50" rx="4" ry="4" fill="rgb(139, 195, 74)"/>
<text x="304.52" y="1078.5" fill="rgb(255, 255, 255)" dominant-baseline="text-before-edge" font-size="11px" font-family="Arial, sans-serif">D</text>
<rect x="0" y="1115" width="83" height="50" rx="4" ry="4" fill="rgb(205, 220, 57)"/>
<text x="37.83" y="1134.5" fill="rgb(255, 255, 255)" dominant-baseline="text-before-edge" font-size="11px" font-family="Arial, sans-serif">E</text>
</svg>