0
SECTION
2
HEADER
9
$ACADVER
1
AC1021
9
$LASTSAVEDBY
1
@tarikjabiri/dxf
9
$HANDSEED
5
5E
9
$INSUNITS
70
0
9
$CLAYER
8
0
9
$VIEWCTR
10
191.828125
20
612
0
ENDSEC
0
SECTION
2
CLASSES
0
ENDSEC
0
SECTION
2
TABLES
0
TABLE
2
VPORT
5
1
330
0
100
AcDbSymbolTable
70
1
0
VPORT
5
19
330
1
100
AcDbSymbolTableRecord
100
AcDbViewportTableRecord
2
*Active
70
0
10
0
20
0
11
1
21
1
12
191.828125
22
612
13
0
23
0
14
10
24
10
15
10
25
10
16
0
26
0
36
1
17
0
27
0
37
0
40
1326
41
2
42
50
43
0
44
0
50
0
51
0
71
0
72
100
73
1
74
3
75
0
76
1
77
0
78
0
281
0
65
1
110
0
120
0
130
0
111
1
121
0
131
0
112
0
122
1
132
0
79
0
146
0
348
10020
60
7
61
5
292
1
282
1
141
0
142
0
63
250
421
3358443
0
ENDTAB
0
TABLE
2
LTYPE
5
2
330
0
100
AcDbSymbolTable
70
3
0
LTYPE
5
12
330
2
100
AcDbSymbolTableRecord
100
AcDbLinetypeTableRecord
2
ByBlock
70
0
3

72
65
73
0
40
0
0
LTYPE
5
13
330
2
100
AcDbSymbolTableRecord
100
AcDbLinetypeTableRecord
2
ByLayer
70
0
3

72
65
73
0
40
0
0
LTYPE
5
14
330
2
100
AcDbSymbolTableRecord
100
AcDbLinetypeTableRecord
2
Continuous
70
0
3
Solid line
72
65
73
0
40
0
0
ENDTAB
0
TABLE
2
LAYER
5
3
330
0
100
AcDbSymbolTable
70
1
0
LAYER
5
15
330
3
100
AcDbSymbolTableRecord
100
AcDbLayerTableRecord
2
0
70
0
62
7
6
Continuous
370
0
390
0
0
ENDTAB
0
TABLE
2
STYLE
5
4
330
0
100
AcDbSymbolTable
70
1
0
STYLE
5
16
330
4
100
AcDbSymbolTableRecord
100
AcDbTextStyleTableRecord
2
Standard
70
0
40
0
41
1
50
0
71
0
42
1
3
txt
4

0
ENDTAB
0
TABLE
2
VIEW
5
5
330
0
100
AcDbSymbolTable
70
0
0
ENDTAB
0
TABLE
2
UCS
5
6
330
0
100
AcDbSymbolTable
70
0
0
ENDTAB
0
TABLE
2
APPID
5
7
330
0
100
AcDbSymbolTable
70
1
0
APPID
5
17
330
7
100
AcDbSymbolTableRecord
100
AcDbRegAppTableRecord
2
ACAD
70
0
0
ENDTAB
0
TABLE
2
DIMSTYLE
5
8
330
0
100
AcDbSymbolTable
70
1
100
AcDbDimStyleTable
0
DIMSTYLE
105
18
330
8
100
AcDbSymbolTableRecord
100
AcDbDimStyleTableRecord
2
Standard
70
0
340
16
0
ENDTAB
0
TABLE
2
BLOCK_RECORD
5
9
330
0
100
AcDbSymbolTable
70
2
0
BLOCK_RECORD
5
C
330
9
100
AcDbSymbolTableRecord
100
AcDbBlockTableRecord
2
*Model_Space
70
0
280
1
281
0
0
BLOCK_RECORD
5
F
330
9
100
AcDbSymbolTableRecord
100
AcDbBlockTableRecord
2
*Paper_Space
70
0
280
1
281
0
0
ENDTAB
0
ENDSEC
0
SECTION
2
BLOCKS
0
BLOCK
5
D
330
C
100
AcDbEntity
8
0
100
AcDbBlockBegin
2
*Model_Space
70
0
10
0
20
0
30
0
3
*Model_Space
1

0
ENDBLK
5
E
100
AcDbEntity
8
0
100
AcDbBlockEnd
0
BLOCK
5
10
330
F
100
AcDbEntity
8
0
100
AcDbBlockBegin
2
*Paper_Space
70
0
10
0
20
0
30
0
3
*Paper_Space
1

0
ENDBLK
5
11
100
AcDbEntity
8
0
100
AcDbBlockEnd
0
ENDSEC
0
SECTION
2
ENTITIES
0
TEXT
5
1A
330
C
100
AcDbEntity
420
#000000
8
0
100
AcDbText
10
20
20
1175
30
0
40
20
1
Flexbox Row
7
STANDARD
100
AcDbText
0
LWPOLYLINE
5
1B
330
C
100
AcDbEntity
420
#ffffff
8
0
100
AcDbPolyline
90
42
70
0
43
0
38
0
39
0
10
26
20
1164
10
115
20
1164
10
115
20
1164
10
116.17054193209677
20
1163.8847116824195
10
117.29610059419053
20
1163.5432771950677
10
118.33342139811761
20
1162.9888176738152
10
119.24264068711929
20
1162.2426406871193
10
119.98881767381528
20
1161.3334213981177
10
120.54327719506772
20
1160.2961005941906
10
120.88471168241938
20
1159.1705419320967
10
121
20
1158
10
121
20
1130
10
121
20
1130
10
120.88471168241938
20
1128.8294580679033
10
120.54327719506772
20
1127.7038994058094
10
119.98881767381528
20
1126.6665786018823
10
119.24264068711929
20
1125.7573593128807
10
118.33342139811761
20
1125.0111823261848
10
117.29610059419053
20
1124.4567228049323
10
116.17054193209677
20
1124.1152883175805
10
115
20
1124
10
26
20
1124
10
26
20
1124
10
24.829458067903232
20
1124.1152883175805
10
23.703899405809462
20
1124.4567228049323
10
22.66657860188239
20
1125.0111823261848
10
21.757359312880716
20
1125.7573593128807
10
21.011182326184727
20
1126.6665786018823
10
20.45672280493228
20
1127.7038994058094
10
20.115288317580617
20
1128.8294580679033
10
20
20
1130
10
20
20
1158
10
20
20
1158
10
20.115288317580617
20
1159.1705419320967
10
20.45672280493228
20
1160.2961005941906
10
21.011182326184727
20
1161.3334213981177
10
21.757359312880716
20
1162.2426406871193
10
22.666578601882385
20
1162.9888176738152
10
23.70389940580946
20
1163.5432771950677
10
24.82945806790323
20
1163.8847116824195
10
26
20
1164
10
26
20
1164
0
TEXT
5
1C
330
C
100
AcDbEntity
420
#ffffff
8
0
100
AcDbText
10
62.703125
20
1136
30
0
40
16
1
1x
7
STANDARD
100
AcDbText
0
LWPOLYLINE
5
1D
330
C
100
AcDbEntity
420
#ffffff
8
0
100
AcDbPolyline
90
42
70
0
43
0
38
0
39
0
10
137
20
1164
10
303
20
1164
10
303
20
1164
10
304.1705419320968
20
1163.8847116824195
10
305.29610059419053
20
1163.5432771950677
10
306.3334213981176
20
1162.9888176738152
10
307.24264068711926
20
1162.2426406871193
10
307.9888176738153
20
1161.3334213981177
10
308.54327719506773
20
1160.2961005941906
10
308.8847116824194
20
1159.1705419320967
10
309
20
1158
10
309
20
1130
10
309
20
1130
10
308.8847116824194
20
1128.8294580679033
10
308.54327719506773
20
1127.7038994058094
10
307.9888176738153
20
1126.6665786018823
10
307.24264068711926
20
1125.7573593128807
10
306.3334213981176
20
1125.0111823261848
10
305.29610059419053
20
1124.4567228049323
10
304.1705419320968
20
1124.1152883175805
10
303
20
1124
10
137
20
1124
10
137
20
1124
10
135.82945806790323
20
1124.1152883175805
10
134.70389940580947
20
1124.4567228049323
10
133.66657860188238
20
1125.0111823261848
10
132.7573593128807
20
1125.7573593128807
10
132.01118232618472
20
1126.6665786018823
10
131.45672280493227
20
1127.7038994058094
10
131.11528831758062
20
1128.8294580679033
10
131
20
1130
10
131
20
1158
10
131
20
1158
10
131.11528831758062
20
1159.1705419320967
10
131.45672280493227
20
1160.2961005941906
10
132.01118232618472
20
1161.3334213981177
10
132.7573593128807
20
1162.2426406871193
10
133.66657860188238
20
1162.9888176738152
10
134.70389940580947
20
1163.5432771950677
10
135.82945806790323
20
1163.8847116824195
10
137
20
1164
10
137
20
1164
0
TEXT
5
1E
330
C
100
AcDbEntity
420
#ffffff
8
0
100
AcDbText
10
212.203125
20
1136
30
0
40
16
1
2x
7
STANDARD
100
AcDbText
0
LWPOLYLINE
5
1F
330
C
100
AcDbEntity
420
#ffffff
8
0
100
AcDbPolyline
90
42
70
0
43
0
38
0
39
0
10
325
20
1164
10
414
20
1164
10
414
20
1164
10
415.1705419320968
20
1163.8847116824195
10
416.29610059419053
20
1163.5432771950677
10
417.3334213981176
20
1162.9888176738152
10
418.24264068711926
20
1162.2426406871193
10
418.9888176738153
20
1161.3334213981177
10
419.54327719506773
20
1160.2961005941906
10
419.8847116824194
20
1159.1705419320967
10
420
20
1158
10
420
20
1130
10
420
20
1130
10
419.8847116824194
20
1128.8294580679033
10
419.54327719506773
20
1127.7038994058094
10
418.9888176738153
20
1126.6665786018823
10
418.24264068711926
20
1125.7573593128807
10
417.3334213981176
20
1125.0111823261848
10
416.29610059419053
20
1124.4567228049323
10
415.1705419320968
20
1124.1152883175805
10
414
20
1124
10
325
20
1124
10
325
20
1124
10
323.8294580679032
20
1124.1152883175805
10
322.70389940580947
20
1124.4567228049323
10
321.6665786018824
20
1125.0111823261848
10
320.75735931288074
20
1125.7573593128807
10
320.0111823261847
20
1126.6665786018823
10
319.45672280493227
20
1127.7038994058094
10
319.1152883175806
20
1128.8294580679033
10
319
20
1130
10
319
20
1158
10
319
20
1158
10
319.1152883175806
20
1159.1705419320967
10
319.45672280493227
20
1160.2961005941906
10
320.0111823261847
20
1161.3334213981177
10
320.75735931288074
20
1162.2426406871193
10
321.6665786018824
20
1162.9888176738152
10
322.70389940580947
20
1163.5432771950677
10
323.8294580679032
20
1163.8847116824195
10
325
20
1164
10
325
20
1164
0
TEXT
5
20
330
C
100
AcDbEntity
420
#ffffff
8
0
100
AcDbText
10
361.703125
20
1136
30
0
40
16
1
1x
7
STANDARD
100
AcDbText
0
TEXT
5
21
330
C
100
AcDbEntity
420
#000000
8
0
100
AcDbText
10
20
20
1089
30
0
40
20
1
Flexbox Column
7
STANDARD
100
AcDbText
0
LWPOLYLINE
5
22
330
C
100
AcDbEntity
420
#ffffff
8
0
100
AcDbPolyline
90
42
70
0
43
0
38
0
39
0
10
24
20
1078
10
216
20
1078
10
216
20
1078
10
216.7803612880645
20
1077.9231411216128
10
217.53073372946037
20
1077.6955181300452
10
218.2222809320784
20
1077.3258784492102
10
218.82842712474618
20
1076.8284271247462
10
219.3258784492102
20
1076.2222809320783
10
219.69551813004514
20
1075.5307337294603
10
219.92314112161293
20
1074.7803612880646
10
220
20
1074
10
220
20
1048
10
220
20
1048
10
219.92314112161293
20
1047.2196387119354
10
219.69551813004514
20
1046.4692662705397
10
219.3258784492102
20
1045.7777190679217
10
218.82842712474618
20
1045.1715728752538
10
218.2222809320784
20
1044.6741215507898
10
217.53073372946037
20
1044.3044818699548
10
216.7803612880645
20
1044.0768588783872
10
216
20
1044
10
24
20
1044
10
24
20
1044
10
23.219638711935488
20
1044.0768588783872
10
22.46926627053964
20
1044.3044818699548
10
21.77771906792159
20
1044.6741215507898
10
21.17157287525381
20
1045.1715728752538
10
20.67412155078982
20
1045.7777190679217
10
20.304481869954852
20
1046.4692662705397
10
20.07685887838708
20
1047.2196387119354
10
20
20
1048
10
20
20
1074
10
20
20
1074
10
20.07685887838708
20
1074.7803612880646
10
20.304481869954852
20
1075.5307337294603
10
20.674121550789817
20
1076.2222809320783
10
21.17157287525381
20
1076.8284271247462
10
21.77771906792159
20
1077.3258784492102
10
22.469266270539638
20
1077.6955181300452
10
23.219638711935485
20
1077.9231411216128
10
24
20
1078
10
24
20
1078
0
TEXT
5
23
330
C
100
AcDbEntity
420
#ffffff
8
0
100
AcDbText
10
102.984375
20
1054
30
0
40
14
1
Item A
7
STANDARD
100
AcDbText
0
LWPOLYLINE
5
24
330
C
100
AcDbEntity
420
#ffffff
8
0
100
AcDbPolyline
90
42
70
0
43
0
38
0
39
0
10
24
20
1036
10
216
20
1036
10
216
20
1036
10
216.7803612880645
20
1035.9231411216128
10
217.53073372946037
20
1035.6955181300452
10
218.2222809320784
20
1035.3258784492102
10
218.82842712474618
20
1034.8284271247462
10
219.3258784492102
20
1034.2222809320783
10
219.69551813004514
20
1033.5307337294603
10
219.92314112161293
20
1032.7803612880646
10
220
20
1032
10
220
20
1006
10
220
20
1006
10
219.92314112161293
20
1005.2196387119354
10
219.69551813004514
20
1004.4692662705396
10
219.3258784492102
20
1003.7777190679216
10
218.82842712474618
20
1003.1715728752538
10
218.2222809320784
20
1002.6741215507898
10
217.53073372946037
20
1002.3044818699549
10
216.7803612880645
20
1002.076858878387
10
216
20
1002
10
24
20
1002
10
24
20
1002
10
23.219638711935488
20
1002.076858878387
10
22.46926627053964
20
1002.3044818699549
10
21.77771906792159
20
1002.6741215507898
10
21.17157287525381
20
1003.1715728752538
10
20.67412155078982
20
1003.7777190679216
10
20.304481869954852
20
1004.4692662705396
10
20.07685887838708
20
1005.2196387119354
10
20
20
1006
10
20
20
1032
10
20
20
1032
10
20.07685887838708
20
1032.7803612880646
10
20.304481869954852
20
1033.5307337294603
10
20.674121550789817
20
1034.2222809320783
10
21.17157287525381
20
1034.8284271247462
10
21.77771906792159
20
1035.3258784492102
10
22.469266270539638
20
1035.6955181300452
10
23.219638711935485
20
1035.9231411216128
10
24
20
1036
10
24
20
1036
0
TEXT
5
25
330
C
100
AcDbEntity
420
#ffffff
8
0
100
AcDbText
10
102.65625
20
1012
30
0
40
14
1
Item B
7
STANDARD
100
AcDbText
0
LWPOLYLINE
5
26
330
C
100
AcDbEntity
420
#ffffff
8
0
100
AcDbPolyline
90
42
70
0
43
0
38
0
39
0
10
24
20
994
10
216
20
994
10
216
20
994
10
216.7803612880645
20
993.923141121613
10
217.53073372946037
20
993.6955181300451
10
218.2222809320784
20
993.3258784492102
10
218.82842712474618
20
992.8284271247462
10
219.3258784492102
20
992.2222809320784
10
219.69551813004514
20
991.5307337294604
10
219.92314112161293
20
990.7803612880646
10
220
20
990
10
220
20
964
10
220
20
964
10
219.92314112161293
20
963.2196387119354
10
219.69551813004514
20
962.4692662705397
10
219.3258784492102
20
961.7777190679216
10
218.82842712474618
20
961.1715728752538
10
218.2222809320784
20
960.6741215507898
10
217.53073372946037
20
960.3044818699548
10
216.7803612880645
20
960.0768588783872
10
216
20
960
10
24
20
960
10
24
20
960
10
23.219638711935488
20
960.0768588783872
10
22.46926627053964
20
960.3044818699548
10
21.77771906792159
20
960.6741215507898
10
21.17157287525381
20
961.1715728752538
10
20.67412155078982
20
961.7777190679216
10
20.304481869954852
20
962.4692662705397
10
20.07685887838708
20
963.2196387119354
10
20
20
964
10
20
20
990
10
20
20
990
10
20.07685887838708
20
990.7803612880646
10
20.304481869954852
20
991.5307337294604
10
20.674121550789817
20
992.2222809320784
10
21.17157287525381
20
992.8284271247462
10
21.77771906792159
20
993.3258784492102
10
22.469266270539638
20
993.6955181300451
10
23.219638711935485
20
993.923141121613
10
24
20
994
10
24
20
994
0
TEXT
5
27
330
C
100
AcDbEntity
420
#ffffff
8
0
100
AcDbText
10
102.328125
20
970
30
0
40
14
1
Item C
7
STANDARD
100
AcDbText
0
TEXT
5
28
330
C
100
AcDbEntity
420
#000000
8
0
100
AcDbText
10
20
20
925
30
0
40
20
1
Flexbox Wrap
7
STANDARD
100
AcDbText
0
LWPOLYLINE
5
29
330
C
100
AcDbEntity
420
#ffffff
8
0
100
AcDbPolyline
90
42
70
0
43
0
38
0
39
0
10
24
20
914
10
96
20
914
10
96
20
914
10
96.78036128806451
20
913.9231411216128
10
97.53073372946037
20
913.6955181300452
10
98.2222809320784
20
913.3258784492102
10
98.82842712474618
20
912.8284271247462
10
99.32587844921018
20
912.2222809320784
10
99.69551813004514
20
911.5307337294603
10
99.92314112161293
20
910.7803612880646
10
100
20
910
10
100
20
868
10
100
20
868
10
99.92314112161293
20
867.2196387119354
10
99.69551813004514
20
866.4692662705397
10
99.32587844921018
20
865.7777190679216
10
98.82842712474618
20
865.1715728752538
10
98.2222809320784
20
864.6741215507898
10
97.53073372946037
20
864.3044818699548
10
96.78036128806451
20
864.0768588783872
10
96
20
864
10
24
20
864
10
24
20
864
10
23.219638711935488
20
864.0768588783872
10
22.46926627053964
20
864.3044818699548
10
21.77771906792159
20
864.6741215507898
10
21.17157287525381
20
865.1715728752538
10
20.67412155078982
20
865.7777190679216
10
20.304481869954852
20
866.4692662705397
10
20.07685887838708
20
867.2196387119354
10
20
20
868
10
20
20
910
10
20
20
910
10
20.07685887838708
20
910.7803612880646
10
20.304481869954852
20
911.5307337294603
10
20.674121550789817
20
912.2222809320784
10
21.17157287525381
20
912.8284271247462
10
21.77771906792159
20
913.3258784492102
10
22.469266270539638
20
913.6955181300452
10
23.219638711935485
20
913.9231411216128
10
24
20
914
10
24
20
914
0
TEXT
5
2A
330
C
100
AcDbEntity
420
#ffffff
8
0
100
AcDbText
10
56.9375
20
883
30
0
40
12
1
1
7
STANDARD
100
AcDbText
0
LWPOLYLINE
5
2B
330
C
100
AcDbEntity
420
#ffffff
8
0
100
AcDbPolyline
90
42
70
0
43
0
38
0
39
0
10
112
20
914
10
184
20
914
10
184
20
914
10
184.7803612880645
20
913.9231411216128
10
185.53073372946037
20
913.6955181300452
10
186.2222809320784
20
913.3258784492102
10
186.82842712474618
20
912.8284271247462
10
187.3258784492102
20
912.2222809320784
10
187.69551813004514
20
911.5307337294603
10
187.92314112161293
20
910.7803612880646
10
188
20
910
10
188
20
868
10
188
20
868
10
187.92314112161293
20
867.2196387119354
10
187.69551813004514
20
866.4692662705397
10
187.3258784492102
20
865.7777190679216
10
186.82842712474618
20
865.1715728752538
10
186.2222809320784
20
864.6741215507898
10
185.53073372946037
20
864.3044818699548
10
184.7803612880645
20
864.0768588783872
10
184
20
864
10
112
20
864
10
112
20
864
10
111.21963871193549
20
864.0768588783872
10
110.46926627053963
20
864.3044818699548
10
109.7777190679216
20
864.6741215507898
10
109.17157287525382
20
865.1715728752538
10
108.67412155078982
20
865.7777190679216
10
108.30448186995486
20
866.4692662705397
10
108.07685887838707
20
867.2196387119354
10
108
20
868
10
108
20
910
10
108
20
910
10
108.07685887838707
20
910.7803612880646
10
108.30448186995486
20
911.5307337294603
10
108.67412155078982
20
912.2222809320784
10
109.17157287525382
20
912.8284271247462
10
109.7777190679216
20
913.3258784492102
10
110.46926627053963
20
913.6955181300452
10
111.21963871193549
20
913.9231411216128
10
112
20
914
10
112
20
914
0
TEXT
5
2C
330
C
100
AcDbEntity
420
#ffffff
8
0
100
AcDbText
10
144.9375
20
883
30
0
40
12
1
2
7
STANDARD
100
AcDbText
0
LWPOLYLINE
5
2D
330
C
100
AcDbEntity
420
#ffffff
8
0
100
AcDbPolyline
90
42
70
0
43
0
38
0
39
0
10
200
20
914
10
272
20
914
10
272
20
914
10
272.7803612880645
20
913.9231411216128
10
273.53073372946034
20
913.6955181300452
10
274.22228093207843
20
913.3258784492102
10
274.8284271247462
20
912.8284271247462
10
275.32587844921017
20
912.2222809320784
10
275.6955181300452
20
911.5307337294603
10
275.9231411216129
20
910.7803612880646
10
276
20
910
10
276
20
868
10
276
20
868
10
275.9231411216129
20
867.2196387119354
10
275.6955181300452
20
866.4692662705397
10
275.32587844921017
20
865.7777190679216
10
274.8284271247462
20
865.1715728752538
10
274.22228093207843
20
864.6741215507898
10
273.53073372946034
20
864.3044818699548
10
272.7803612880645
20
864.0768588783872
10
272
20
864
10
200
20
864
10
200
20
864
10
199.2196387119355
20
864.0768588783872
10
198.46926627053963
20
864.3044818699548
10
197.7777190679216
20
864.6741215507898
10
197.17157287525382
20
865.1715728752538
10
196.6741215507898
20
865.7777190679216
10
196.30448186995486
20
866.4692662705397
10
196.07685887838707
20
867.2196387119354
10
196
20
868
10
196
20
910
10
196
20
910
10
196.07685887838707
20
910.7803612880646
10
196.30448186995486
20
911.5307337294603
10
196.6741215507898
20
912.2222809320784
10
197.17157287525382
20
912.8284271247462
10
197.7777190679216
20
913.3258784492102
10
198.46926627053963
20
913.6955181300452
10
199.2196387119355
20
913.9231411216128
10
200
20
914
10
200
20
914
0
TEXT
5
2E
330
C
100
AcDbEntity
420
#ffffff
8
0
100
AcDbText
10
232.9375
20
883
30
0
40
12
1
3
7
STANDARD
100
AcDbText
0
LWPOLYLINE
5
2F
330
C
100
AcDbEntity
420
#ffffff
8
0
100
AcDbPolyline
90
42
70
0
43
0
38
0
39
0
10
24
20
856
10
96
20
856
10
96
20
856
10
96.78036128806451
20
855.9231411216128
10
97.53073372946037
20
855.6955181300452
10
98.2222809320784
20
855.3258784492102
10
98.82842712474618
20
854.8284271247462
10
99.32587844921018
20
854.2222809320784
10
99.69551813004514
20
853.5307337294603
10
99.92314112161293
20
852.7803612880646
10
100
20
852
10
100
20
810
10
100
20
810
10
99.92314112161293
20
809.2196387119354
10
99.69551813004514
20
808.4692662705397
10
99.32587844921018
20
807.7777190679216
10
98.82842712474618
20
807.1715728752538
10
98.2222809320784
20
806.6741215507898
10
97.53073372946037
20
806.3044818699548
10
96.78036128806451
20
806.0768588783872
10
96
20
806
10
24
20
806
10
24
20
806
10
23.219638711935488
20
806.0768588783872
10
22.46926627053964
20
806.3044818699548
10
21.77771906792159
20
806.6741215507898
10
21.17157287525381
20
807.1715728752538
10
20.67412155078982
20
807.7777190679216
10
20.304481869954852
20
808.4692662705397
10
20.07685887838708
20
809.2196387119354
10
20
20
810
10
20
20
852
10
20
20
852
10
20.07685887838708
20
852.7803612880646
10
20.304481869954852
20
853.5307337294603
10
20.674121550789817
20
854.2222809320784
10
21.17157287525381
20
854.8284271247462
10
21.77771906792159
20
855.3258784492102
10
22.469266270539638
20
855.6955181300452
10
23.219638711935485
20
855.9231411216128
10
24
20
856
10
24
20
856
0
TEXT
5
30
330
C
100
AcDbEntity
420
#ffffff
8
0
100
AcDbText
10
56.9375
20
825
30
0
40
12
1
4
7
STANDARD
100
AcDbText
0
LWPOLYLINE
5
31
330
C
100
AcDbEntity
420
#ffffff
8
0
100
AcDbPolyline
90
42
70
0
43
0
38
0
39
0
10
112
20
856
10
184
20
856
10
184
20
856
10
184.7803612880645
20
855.9231411216128
10
185.53073372946037
20
855.6955181300452
10
186.2222809320784
20
855.3258784492102
10
186.82842712474618
20
854.8284271247462
10
187.3258784492102
20
854.2222809320784
10
187.69551813004514
20
853.5307337294603
10
187.92314112161293
20
852.7803612880646
10
188
20
852
10
188
20
810
10
188
20
810
10
187.92314112161293
20
809.2196387119354
10
187.69551813004514
20
808.4692662705397
10
187.3258784492102
20
807.7777190679216
10
186.82842712474618
20
807.1715728752538
10
186.2222809320784
20
806.6741215507898
10
185.53073372946037
20
806.3044818699548
10
184.7803612880645
20
806.0768588783872
10
184
20
806
10
112
20
806
10
112
20
806
10
111.21963871193549
20
806.0768588783872
10
110.46926627053963
20
806.3044818699548
10
109.7777190679216
20
806.6741215507898
10
109.17157287525382
20
807.1715728752538
10
108.67412155078982
20
807.7777190679216
10
108.30448186995486
20
808.4692662705397
10
108.07685887838707
20
809.2196387119354
10
108
20
810
10
108
20
852
10
108
20
852
10
108.07685887838707
20
852.7803612880646
10
108.30448186995486
20
853.5307337294603
10
108.67412155078982
20
854.2222809320784
10
109.17157287525382
20
854.8284271247462
10
109.7777190679216
20
855.3258784492102
10
110.46926627053963
20
855.6955181300452
10
111.21963871193549
20
855.9231411216128
10
112
20
856
10
112
20
856
0
TEXT
5
32
330
C
100
AcDbEntity
420
#ffffff
8
0
100
AcDbText
10
144.9375
20
825
30
0
40
12
1
5
7
STANDARD
100
AcDbText
0
LWPOLYLINE
5
33
330
C
100
AcDbEntity
420
#ffffff
8
0
100
AcDbPolyline
90
42
70
0
43
0
38
0
39
0
10
200
20
856
10
272
20
856
10
272
20
856
10
272.7803612880645
20
855.9231411216128
10
273.53073372946034
20
855.6955181300452
10
274.22228093207843
20
855.3258784492102
10
274.8284271247462
20
854.8284271247462
10
275.32587844921017
20
854.2222809320784
10
275.6955181300452
20
853.5307337294603
10
275.9231411216129
20
852.7803612880646
10
276
20
852
10
276
20
810
10
276
20
810
10
275.9231411216129
20
809.2196387119354
10
275.6955181300452
20
808.4692662705397
10
275.32587844921017
20
807.7777190679216
10
274.8284271247462
20
807.1715728752538
10
274.22228093207843
20
806.6741215507898
10
273.53073372946034
20
806.3044818699548
10
272.7803612880645
20
806.0768588783872
10
272
20
806
10
200
20
806
10
200
20
806
10
199.2196387119355
20
806.0768588783872
10
198.46926627053963
20
806.3044818699548
10
197.7777190679216
20
806.6741215507898
10
197.17157287525382
20
807.1715728752538
10
196.6741215507898
20
807.7777190679216
10
196.30448186995486
20
808.4692662705397
10
196.07685887838707
20
809.2196387119354
10
196
20
810
10
196
20
852
10
196
20
852
10
196.07685887838707
20
852.7803612880646
10
196.30448186995486
20
853.5307337294603
10
196.6741215507898
20
854.2222809320784
10
197.17157287525382
20
854.8284271247462
10
197.7777190679216
20
855.3258784492102
10
198.46926627053963
20
855.6955181300452
10
199.2196387119355
20
855.9231411216128
10
200
20
856
10
200
20
856
0
TEXT
5
34
330
C
100
AcDbEntity
420
#ffffff
8
0
100
AcDbText
10
232.9375
20
825
30
0
40
12
1
6
7
STANDARD
100
AcDbText
0
LWPOLYLINE
5
35
330
C
100
AcDbEntity
420
#ffffff
8
0
100
AcDbPolyline
90
42
70
0
43
0
38
0
39
0
10
24
20
798
10
96
20
798
10
96
20
798
10
96.78036128806451
20
797.9231411216128
10
97.53073372946037
20
797.6955181300452
10
98.2222809320784
20
797.3258784492102
10
98.82842712474618
20
796.8284271247462
10
99.32587844921018
20
796.2222809320784
10
99.69551813004514
20
795.5307337294603
10
99.92314112161293
20
794.7803612880646
10
100
20
794
10
100
20
752
10
100
20
752
10
99.92314112161293
20
751.2196387119354
10
99.69551813004514
20
750.4692662705397
10
99.32587844921018
20
749.7777190679216
10
98.82842712474618
20
749.1715728752538
10
98.2222809320784
20
748.6741215507898
10
97.53073372946037
20
748.3044818699548
10
96.78036128806451
20
748.0768588783872
10
96
20
748
10
24
20
748
10
24
20
748
10
23.219638711935488
20
748.0768588783872
10
22.46926627053964
20
748.3044818699548
10
21.77771906792159
20
748.6741215507898
10
21.17157287525381
20
749.1715728752538
10
20.67412155078982
20
749.7777190679216
10
20.304481869954852
20
750.4692662705397
10
20.07685887838708
20
751.2196387119354
10
20
20
752
10
20
20
794
10
20
20
794
10
20.07685887838708
20
794.7803612880646
10
20.304481869954852
20
795.5307337294603
10
20.674121550789817
20
796.2222809320784
10
21.17157287525381
20
796.8284271247462
10
21.77771906792159
20
797.3258784492102
10
22.469266270539638
20
797.6955181300452
10
23.219638711935485
20
797.9231411216128
10
24
20
798
10
24
20
798
0
TEXT
5
36
330
C
100
AcDbEntity
420
#ffffff
8
0
100
AcDbText
10
56.9375
20
767
30
0
40
12
1
7
7
STANDARD
100
AcDbText
0
TEXT
5
37
330
C
100
AcDbEntity
420
#000000
8
0
100
AcDbText
10
20
20
713
30
0
40
20
1
Centered Content
7
STANDARD
100
AcDbText
0
LWPOLYLINE
5
38
330
C
100
AcDbEntity
420
#000000
8
0
100
AcDbPolyline
90
42
70
0
43
0
38
0
39
0
10
28
20
702
10
262
20
702
10
262
20
702
10
263.560722576129
20
701.8462822432258
10
265.06146745892073
20
701.3910362600903
10
266.4445618641568
20
700.6517568984203
10
267.65685424949237
20
699.6568542494924
10
268.6517568984204
20
698.4445618641569
10
269.3910362600903
20
697.0614674589207
10
269.84628224322586
20
695.560722576129
10
270
20
694
10
270
20
610
10
270
20
610
10
269.84628224322586
20
608.439277423871
10
269.3910362600903
20
606.9385325410793
10
268.6517568984204
20
605.5554381358431
10
267.65685424949237
20
604.3431457505076
10
266.4445618641568
20
603.3482431015797
10
265.06146745892073
20
602.6089637399097
10
263.560722576129
20
602.1537177567742
10
262
20
602
10
28
20
602
10
28
20
602
10
26.439277423870976
20
602.1537177567742
10
24.938532541079283
20
602.6089637399097
10
23.555438135843183
20
603.3482431015797
10
22.34314575050762
20
604.3431457505076
10
21.348243101579637
20
605.5554381358431
10
20.608963739909704
20
606.9385325410793
10
20.153717756774157
20
608.439277423871
10
20
20
610
10
20
20
694
10
20
20
694
10
20.153717756774157
20
695.560722576129
10
20.608963739909704
20
697.0614674589207
10
21.348243101579637
20
698.4445618641569
10
22.343145750507617
20
699.6568542494924
10
23.555438135843183
20
700.6517568984203
10
24.938532541079276
20
701.3910362600903
10
26.43927742387097
20
701.8462822432258
10
28
20
702
10
28
20
702
0
LWPOLYLINE
5
39
330
C
100
AcDbEntity
420
#000000
8
0
100
AcDbPolyline
90
42
70
0
43
0
38
0
39
0
10
110
20
670
10
179
20
670
10
179
20
670
10
182.5116257962903
20
669.6541350472581
10
185.8883017825716
20
668.6298315852032
10
189.00026419435284
20
666.9664530214458
10
191.72792206135784
20
664.7279220613578
10
193.9664530214458
20
662.0002641943529
10
195.62983158520316
20
658.8883017825716
10
196.65413504725814
20
655.5116257962903
10
197
20
652
10
197
20
652
10
197
20
652
10
196.65413504725814
20
648.4883742037097
10
195.62983158520316
20
645.1116982174284
10
193.9664530214458
20
641.9997358056471
10
191.72792206135784
20
639.2720779386422
10
189.00026419435284
20
637.0335469785542
10
185.8883017825716
20
635.3701684147968
10
182.5116257962903
20
634.3458649527419
10
179
20
634
10
110
20
634
10
110
20
634
10
106.4883742037097
20
634.3458649527419
10
103.11169821742838
20
635.3701684147968
10
99.99973580564716
20
637.0335469785542
10
97.27207793864214
20
639.2720779386422
10
95.03354697855418
20
641.9997358056471
10
93.37016841479684
20
645.1116982174284
10
92.34586495274185
20
648.4883742037097
10
92
20
652
10
92
20
652
10
92
20
652
10
92.34586495274185
20
655.5116257962903
10
93.37016841479684
20
658.8883017825716
10
95.03354697855418
20
662.0002641943528
10
97.27207793864214
20
664.7279220613578
10
99.99973580564716
20
666.9664530214458
10
103.11169821742837
20
668.6298315852032
10
106.48837420370968
20
669.6541350472581
10
110
20
670
10
110
20
670
0
TEXT
5
3A
330
C
100
AcDbEntity
420
#000000
8
0
100
AcDbText
10
112.3125
20
644
30
0
40
16
1
Centered!
7
STANDARD
100
AcDbText
0
TEXT
5
3B
330
C
100
AcDbEntity
420
#000000
8
0
100
AcDbText
10
20
20
567
30
0
40
20
1
Grid Basic
7
STANDARD
100
AcDbText
0
LWPOLYLINE
5
3C
330
C
100
AcDbEntity
420
#ffffff
8
0
100
AcDbPolyline
90
42
70
0
43
0
38
0
39
0
10
24
20
556
10
127
20
556
10
127
20
556
10
127.78036128806451
20
555.923141121613
10
128.53073372946037
20
555.6955181300451
10
129.2222809320784
20
555.3258784492102
10
129.82842712474618
20
554.8284271247462
10
130.3258784492102
20
554.2222809320784
10
130.69551813004514
20
553.5307337294604
10
130.92314112161293
20
552.7803612880646
10
131
20
552
10
131
20
500
10
131
20
500
10
130.92314112161293
20
499.21963871193543
10
130.69551813004514
20
498.4692662705396
10
130.3258784492102
20
497.77771906792157
10
129.82842712474618
20
497.1715728752538
10
129.2222809320784
20
496.6741215507898
10
128.53073372946037
20
496.3044818699549
10
127.78036128806451
20
496.07685887838704
10
127
20
496
10
24
20
496
10
24
20
496
10
23.219638711935488
20
496.07685887838704
10
22.46926627053964
20
496.3044818699549
10
21.77771906792159
20
496.6741215507898
10
21.17157287525381
20
497.1715728752538
10
20.67412155078982
20
497.77771906792157
10
20.304481869954852
20
498.4692662705396
10
20.07685887838708
20
499.21963871193543
10
20
20
500
10
20
20
552
10
20
20
552
10
20.07685887838708
20
552.7803612880646
10
20.304481869954852
20
553.5307337294604
10
20.674121550789817
20
554.2222809320784
10
21.17157287525381
20
554.8284271247462
10
21.77771906792159
20
555.3258784492102
10
22.469266270539638
20
555.6955181300451
10
23.219638711935485
20
555.923141121613
10
24
20
556
10
24
20
556
0
TEXT
5
3D
330
C
100
AcDbEntity
420
#ffffff
8
0
100
AcDbText
10
72.3125
20
519
30
0
40
14
1
1
7
STANDARD
100
AcDbText
0
LWPOLYLINE
5
3E
330
C
100
AcDbEntity
420
#ffffff
8
0
100
AcDbPolyline
90
42
70
0
43
0
38
0
39
0
10
143
20
556
10
246
20
556
10
246
20
556
10
246.7803612880645
20
555.923141121613
10
247.53073372946037
20
555.6955181300451
10
248.2222809320784
20
555.3258784492102
10
248.82842712474618
20
554.8284271247462
10
249.3258784492102
20
554.2222809320784
10
249.69551813004514
20
553.5307337294604
10
249.92314112161293
20
552.7803612880646
10
250
20
552
10
250
20
500
10
250
20
500
10
249.92314112161293
20
499.21963871193543
10
249.69551813004514
20
498.4692662705396
10
249.3258784492102
20
497.77771906792157
10
248.82842712474618
20
497.1715728752538
10
248.2222809320784
20
496.6741215507898
10
247.53073372946037
20
496.3044818699549
10
246.7803612880645
20
496.07685887838704
10
246
20
496
10
143
20
496
10
143
20
496
10
142.2196387119355
20
496.07685887838704
10
141.46926627053963
20
496.3044818699549
10
140.7777190679216
20
496.6741215507898
10
140.17157287525382
20
497.1715728752538
10
139.6741215507898
20
497.77771906792157
10
139.30448186995486
20
498.4692662705396
10
139.07685887838707
20
499.21963871193543
10
139
20
500
10
139
20
552
10
139
20
552
10
139.07685887838707
20
552.7803612880646
10
139.30448186995486
20
553.5307337294604
10
139.6741215507898
20
554.2222809320784
10
140.17157287525382
20
554.8284271247462
10
140.7777190679216
20
555.3258784492102
10
141.46926627053963
20
555.6955181300451
10
142.2196387119355
20
555.923141121613
10
143
20
556
10
143
20
556
0
TEXT
5
3F
330
C
100
AcDbEntity
420
#ffffff
8
0
100
AcDbText
10
191.640625
20
519
30
0
40
14
1
2
7
STANDARD
100
AcDbText
0
LWPOLYLINE
5
40
330
C
100
AcDbEntity
420
#ffffff
8
0
100
AcDbPolyline
90
42
70
0
43
0
38
0
39
0
10
263
20
556
10
366
20
556
10
366
20
556
10
366.7803612880645
20
555.923141121613
10
367.53073372946034
20
555.6955181300451
10
368.22228093207843
20
555.3258784492102
10
368.8284271247462
20
554.8284271247462
10
369.32587844921017
20
554.2222809320784
10
369.6955181300452
20
553.5307337294604
10
369.9231411216129
20
552.7803612880646
10
370
20
552
10
370
20
500
10
370
20
500
10
369.9231411216129
20
499.21963871193543
10
369.6955181300452
20
498.4692662705396
10
369.32587844921017
20
497.77771906792157
10
368.8284271247462
20
497.1715728752538
10
368.22228093207843
20
496.6741215507898
10
367.53073372946034
20
496.3044818699549
10
366.7803612880645
20
496.07685887838704
10
366
20
496
10
263
20
496
10
263
20
496
10
262.2196387119355
20
496.07685887838704
10
261.46926627053966
20
496.3044818699549
10
260.77771906792157
20
496.6741215507898
10
260.1715728752538
20
497.1715728752538
10
259.67412155078983
20
497.77771906792157
10
259.3044818699548
20
498.4692662705396
10
259.0768588783871
20
499.21963871193543
10
259
20
500
10
259
20
552
10
259
20
552
10
259.0768588783871
20
552.7803612880646
10
259.3044818699548
20
553.5307337294604
10
259.67412155078983
20
554.2222809320784
10
260.1715728752538
20
554.8284271247462
10
260.77771906792157
20
555.3258784492102
10
261.46926627053966
20
555.6955181300451
10
262.2196387119355
20
555.923141121613
10
263
20
556
10
263
20
556
0
TEXT
5
41
330
C
100
AcDbEntity
420
#ffffff
8
0
100
AcDbText
10
310.984375
20
519
30
0
40
14
1
3
7
STANDARD
100
AcDbText
0
LWPOLYLINE
5
42
330
C
100
AcDbEntity
420
#ffffff
8
0
100
AcDbPolyline
90
42
70
0
43
0
38
0
39
0
10
24
20
488
10
127
20
488
10
127
20
488
10
127.78036128806451
20
487.92314112161296
10
128.53073372946037
20
487.6955181300451
10
129.2222809320784
20
487.3258784492102
10
129.82842712474618
20
486.8284271247462
10
130.3258784492102
20
486.22228093207843
10
130.69551813004514
20
485.5307337294604
10
130.92314112161293
20
484.78036128806457
10
131
20
484
10
131
20
432
10
131
20
432
10
130.92314112161293
20
431.21963871193543
10
130.69551813004514
20
430.4692662705396
10
130.3258784492102
20
429.77771906792157
10
129.82842712474618
20
429.1715728752538
10
129.2222809320784
20
428.6741215507898
10
128.53073372946037
20
428.3044818699549
10
127.78036128806451
20
428.07685887838704
10
127
20
428
10
24
20
428
10
24
20
428
10
23.219638711935488
20
428.07685887838704
10
22.46926627053964
20
428.3044818699549
10
21.77771906792159
20
428.6741215507898
10
21.17157287525381
20
429.1715728752538
10
20.67412155078982
20
429.77771906792157
10
20.304481869954852
20
430.4692662705396
10
20.07685887838708
20
431.21963871193543
10
20
20
432
10
20
20
484
10
20
20
484
10
20.07685887838708
20
484.78036128806457
10
20.304481869954852
20
485.5307337294604
10
20.674121550789817
20
486.22228093207843
10
21.17157287525381
20
486.8284271247462
10
21.77771906792159
20
487.3258784492102
10
22.469266270539638
20
487.6955181300451
10
23.219638711935485
20
487.92314112161296
10
24
20
488
10
24
20
488
0
TEXT
5
43
330
C
100
AcDbEntity
420
#ffffff
8
0
100
AcDbText
10
72.3125
20
451
30
0
40
14
1
4
7
STANDARD
100
AcDbText
0
LWPOLYLINE
5
44
330
C
100
AcDbEntity
420
#ffffff
8
0
100
AcDbPolyline
90
42
70
0
43
0
38
0
39
0
10
143
20
488
10
246
20
488
10
246
20
488
10
246.7803612880645
20
487.92314112161296
10
247.53073372946037
20
487.6955181300451
10
248.2222809320784
20
487.3258784492102
10
248.82842712474618
20
486.8284271247462
10
249.3258784492102
20
486.22228093207843
10
249.69551813004514
20
485.5307337294604
10
249.92314112161293
20
484.78036128806457
10
250
20
484
10
250
20
432
10
250
20
432
10
249.92314112161293
20
431.21963871193543
10
249.69551813004514
20
430.4692662705396
10
249.3258784492102
20
429.77771906792157
10
248.82842712474618
20
429.1715728752538
10
248.2222809320784
20
428.6741215507898
10
247.53073372946037
20
428.3044818699549
10
246.7803612880645
20
428.07685887838704
10
246
20
428
10
143
20
428
10
143
20
428
10
142.2196387119355
20
428.07685887838704
10
141.46926627053963
20
428.3044818699549
10
140.7777190679216
20
428.6741215507898
10
140.17157287525382
20
429.1715728752538
10
139.6741215507898
20
429.77771906792157
10
139.30448186995486
20
430.4692662705396
10
139.07685887838707
20
431.21963871193543
10
139
20
432
10
139
20
484
10
139
20
484
10
139.07685887838707
20
484.78036128806457
10
139.30448186995486
20
485.5307337294604
10
139.6741215507898
20
486.22228093207843
10
140.17157287525382
20
486.8284271247462
10
140.7777190679216
20
487.3258784492102
10
141.46926627053963
20
487.6955181300451
10
142.2196387119355
20
487.92314112161296
10
143
20
488
10
143
20
488
0
TEXT
5
45
330
C
100
AcDbEntity
420
#ffffff
8
0
100
AcDbText
10
191.640625
20
451
30
0
40
14
1
5
7
STANDARD
100
AcDbText
0
LWPOLYLINE
5
46
330
C
100
AcDbEntity
420
#ffffff
8
0
100
AcDbPolyline
90
42
70
0
43
0
38
0
39
0
10
263
20
488
10
366
20
488
10
366
20
488
10
366.7803612880645
20
487.92314112161296
10
367.53073372946034
20
487.6955181300451
10
368.22228093207843
20
487.3258784492102
10
368.8284271247462
20
486.8284271247462
10
369.32587844921017
20
486.22228093207843
10
369.6955181300452
20
485.5307337294604
10
369.9231411216129
20
484.78036128806457
10
370
20
484
10
370
20
432
10
370
20
432
10
369.9231411216129
20
431.21963871193543
10
369.6955181300452
20
430.4692662705396
10
369.32587844921017
20
429.77771906792157
10
368.8284271247462
20
429.1715728752538
10
368.22228093207843
20
428.6741215507898
10
367.53073372946034
20
428.3044818699549
10
366.7803612880645
20
428.07685887838704
10
366
20
428
10
263
20
428
10
263
20
428
10
262.2196387119355
20
428.07685887838704
10
261.46926627053966
20
428.3044818699549
10
260.77771906792157
20
428.6741215507898
10
260.1715728752538
20
429.1715728752538
10
259.67412155078983
20
429.77771906792157
10
259.3044818699548
20
430.4692662705396
10
259.0768588783871
20
431.21963871193543
10
259
20
432
10
259
20
484
10
259
20
484
10
259.0768588783871
20
484.78036128806457
10
259.3044818699548
20
485.5307337294604
10
259.67412155078983
20
486.22228093207843
10
260.1715728752538
20
486.8284271247462
10
260.77771906792157
20
487.3258784492102
10
261.46926627053966
20
487.6955181300451
10
262.2196387119355
20
487.92314112161296
10
263
20
488
10
263
20
488
0
TEXT
5
47
330
C
100
AcDbEntity
420
#ffffff
8
0
100
AcDbText
10
310.984375
20
451
30
0
40
14
1
6
7
STANDARD
100
AcDbText
0
TEXT
5
48
330
C
100
AcDbEntity
420
#000000
8
0
100
AcDbText
10
20
20
393
30
0
40
20
1
Grid Named Areas (Holy Grail Layout)
7
STANDARD
100
AcDbText
0
LWPOLYLINE
5
49
330
C
100
AcDbEntity
420
#ffffff
8
0
100
AcDbPolyline
90
42
70
0
43
0
38
0
39
0
10
24
20
382
10
416
20
382
10
416
20
382
10
416.7803612880645
20
381.92314112161296
10
417.53073372946034
20
381.6955181300451
10
418.22228093207843
20
381.3258784492102
10
418.8284271247462
20
380.8284271247462
10
419.32587844921017
20
380.22228093207843
10
419.6955181300452
20
379.5307337294604
10
419.9231411216129
20
378.78036128806457
10
420
20
378
10
420
20
346
10
420
20
346
10
419.9231411216129
20
345.21963871193543
10
419.6955181300452
20
344.4692662705396
10
419.32587844921017
20
343.77771906792157
10
418.8284271247462
20
343.1715728752538
10
418.22228093207843
20
342.6741215507898
10
417.53073372946034
20
342.3044818699549
10
416.7803612880645
20
342.07685887838704
10
416
20
342
10
24
20
342
10
24
20
342
10
23.219638711935488
20
342.07685887838704
10
22.46926627053964
20
342.3044818699549
10
21.77771906792159
20
342.6741215507898
10
21.17157287525381
20
343.1715728752538
10
20.67412155078982
20
343.77771906792157
10
20.304481869954852
20
344.4692662705396
10
20.07685887838708
20
345.21963871193543
10
20
20
346
10
20
20
378
10
20
20
378
10
20.07685887838708
20
378.78036128806457
10
20.304481869954852
20
379.5307337294604
10
20.674121550789817
20
380.22228093207843
10
21.17157287525381
20
380.8284271247462
10
21.77771906792159
20
381.3258784492102
10
22.469266270539638
20
381.6955181300451
10
23.219638711935485
20
381.92314112161296
10
24
20
382
10
24
20
382
0
TEXT
5
4A
330
C
100
AcDbEntity
420
#ffffff
8
0
100
AcDbText
10
199.65625
20
355
30
0
40
14
1
Header
7
STANDARD
100
AcDbText
0
LWPOLYLINE
5
4B
330
C
100
AcDbEntity
420
#ffffff
8
0
100
AcDbPolyline
90
42
70
0
43
0
38
0
39
0
10
24
20
336
10
116
20
336
10
116
20
336
10
116.78036128806451
20
335.92314112161296
10
117.53073372946037
20
335.6955181300451
10
118.2222809320784
20
335.3258784492102
10
118.82842712474618
20
334.8284271247462
10
119.32587844921018
20
334.22228093207843
10
119.69551813004514
20
333.5307337294604
10
119.92314112161293
20
332.78036128806457
10
120
20
332
10
120
20
232
10
120
20
232
10
119.92314112161293
20
231.21963871193543
10
119.69551813004514
20
230.4692662705396
10
119.32587844921018
20
229.77771906792157
10
118.82842712474618
20
229.1715728752538
10
118.2222809320784
20
228.67412155078978
10
117.53073372946037
20
228.30448186995488
10
116.78036128806451
20
228.07685887838704
10
116
20
228
10
24
20
228
10
24
20
228
10
23.219638711935488
20
228.07685887838704
10
22.46926627053964
20
228.30448186995488
10
21.77771906792159
20
228.67412155078978
10
21.17157287525381
20
229.1715728752538
10
20.67412155078982
20
229.77771906792157
10
20.304481869954852
20
230.4692662705396
10
20.07685887838708
20
231.21963871193543
10
20
20
232
10
20
20
332
10
20
20
332
10
20.07685887838708
20
332.78036128806457
10
20.304481869954852
20
333.5307337294604
10
20.674121550789817
20
334.22228093207843
10
21.17157287525381
20
334.8284271247462
10
21.77771906792159
20
335.3258784492102
10
22.469266270539638
20
335.6955181300451
10
23.219638711935485
20
335.92314112161296
10
24
20
336
10
24
20
336
0
TEXT
5
4C
330
C
100
AcDbEntity
420
#ffffff
8
0
100
AcDbText
10
57.328125
20
275
30
0
40
14
1
Side
7
STANDARD
100
AcDbText
0
LWPOLYLINE
5
4D
330
C
100
AcDbEntity
420
#ffffff
8
0
100
AcDbPolyline
90
42
70
0
43
0
38
0
39
0
10
130
20
336
10
330
20
336
10
330
20
336
10
330.7803612880645
20
335.92314112161296
10
331.53073372946034
20
335.6955181300451
10
332.22228093207843
20
335.3258784492102
10
332.8284271247462
20
334.8284271247462
10
333.32587844921017
20
334.22228093207843
10
333.6955181300452
20
333.5307337294604
10
333.9231411216129
20
332.78036128806457
10
334
20
332
10
334
20
232
10
334
20
232
10
333.9231411216129
20
231.21963871193543
10
333.6955181300452
20
230.4692662705396
10
333.32587844921017
20
229.77771906792157
10
332.8284271247462
20
229.1715728752538
10
332.22228093207843
20
228.67412155078978
10
331.53073372946034
20
228.30448186995488
10
330.7803612880645
20
228.07685887838704
10
330
20
228
10
130
20
228
10
130
20
228
10
129.2196387119355
20
228.07685887838704
10
128.46926627053963
20
228.30448186995488
10
127.7777190679216
20
228.67412155078978
10
127.17157287525382
20
229.1715728752538
10
126.67412155078982
20
229.77771906792157
10
126.30448186995486
20
230.4692662705396
10
126.07685887838707
20
231.21963871193543
10
126
20
232
10
126
20
332
10
126
20
332
10
126.07685887838707
20
332.78036128806457
10
126.30448186995486
20
333.5307337294604
10
126.67412155078982
20
334.22228093207843
10
127.17157287525382
20
334.8284271247462
10
127.7777190679216
20
335.3258784492102
10
128.46926627053963
20
335.6955181300451
10
129.2196387119355
20
335.92314112161296
10
130
20
336
10
130
20
336
0
TEXT
5
4E
330
C
100
AcDbEntity
420
#ffffff
8
0
100
AcDbText
10
192
20
275
30
0
40
14
1
Main Content
7
STANDARD
100
AcDbText
0
LWPOLYLINE
5
4F
330
C
100
AcDbEntity
420
#ffffff
8
0
100
AcDbPolyline
90
42
70
0
43
0
38
0
39
0
10
344
20
336
10
416
20
336
10
416
20
336
10
416.7803612880645
20
335.92314112161296
10
417.53073372946034
20
335.6955181300451
10
418.22228093207843
20
335.3258784492102
10
418.8284271247462
20
334.8284271247462
10
419.32587844921017
20
334.22228093207843
10
419.6955181300452
20
333.5307337294604
10
419.9231411216129
20
332.78036128806457
10
420
20
332
10
420
20
232
10
420
20
232
10
419.9231411216129
20
231.21963871193543
10
419.6955181300452
20
230.4692662705396
10
419.32587844921017
20
229.77771906792157
10
418.8284271247462
20
229.1715728752538
10
418.22228093207843
20
228.67412155078978
10
417.53073372946034
20
228.30448186995488
10
416.7803612880645
20
228.07685887838704
10
416
20
228
10
344
20
228
10
344
20
228
10
343.2196387119355
20
228.07685887838704
10
342.46926627053966
20
228.30448186995488
10
341.77771906792157
20
228.67412155078978
10
341.1715728752538
20
229.1715728752538
10
340.67412155078983
20
229.77771906792157
10
340.3044818699548
20
230.4692662705396
10
340.0768588783871
20
231.21963871193543
10
340
20
232
10
340
20
332
10
340
20
332
10
340.0768588783871
20
332.78036128806457
10
340.3044818699548
20
333.5307337294604
10
340.67412155078983
20
334.22228093207843
10
341.1715728752538
20
334.8284271247462
10
341.77771906792157
20
335.3258784492102
10
342.46926627053966
20
335.6955181300451
10
343.2196387119355
20
335.92314112161296
10
344
20
336
10
344
20
336
0
TEXT
5
50
330
C
100
AcDbEntity
420
#ffffff
8
0
100
AcDbText
10
363.65625
20
275
30
0
40
14
1
Aside
7
STANDARD
100
AcDbText
0
LWPOLYLINE
5
51
330
C
100
AcDbEntity
420
#ffffff
8
0
100
AcDbPolyline
90
42
70
0
43
0
38
0
39
0
10
24
20
222
10
416
20
222
10
416
20
222
10
416.7803612880645
20
221.92314112161296
10
417.53073372946034
20
221.69551813004512
10
418.22228093207843
20
221.32587844921022
10
418.8284271247462
20
220.8284271247462
10
419.32587844921017
20
220.22228093207843
10
419.6955181300452
20
219.5307337294604
10
419.9231411216129
20
218.78036128806457
10
420
20
218
10
420
20
186
10
420
20
186
10
419.9231411216129
20
185.21963871193543
10
419.6955181300452
20
184.46926627053972
10
419.32587844921017
20
183.77771906792168
10
418.8284271247462
20
183.1715728752538
10
418.22228093207843
20
182.67412155078978
10
417.53073372946034
20
182.30448186995477
10
416.7803612880645
20
182.07685887838716
10
416
20
182
10
24
20
182
10
24
20
182
10
23.219638711935488
20
182.07685887838716
10
22.46926627053964
20
182.30448186995477
10
21.77771906792159
20
182.67412155078978
10
21.17157287525381
20
183.1715728752538
10
20.67412155078982
20
183.77771906792168
10
20.304481869954852
20
184.46926627053972
10
20.07685887838708
20
185.21963871193543
10
20
20
186
10
20
20
218
10
20
20
218
10
20.07685887838708
20
218.78036128806457
10
20.304481869954852
20
219.5307337294604
10
20.674121550789817
20
220.22228093207843
10
21.17157287525381
20
220.8284271247462
10
21.77771906792159
20
221.32587844921022
10
22.469266270539638
20
221.69551813004512
10
23.219638711935485
20
221.92314112161296
10
24
20
222
10
24
20
222
0
TEXT
5
52
330
C
100
AcDbEntity
420
#ffffff
8
0
100
AcDbText
10
201.328125
20
195
30
0
40
14
1
Footer
7
STANDARD
100
AcDbText
0
TEXT
5
53
330
C
100
AcDbEntity
420
#000000
8
0
100
AcDbText
10
20
20
147
30
0
40
20
1
Grid Auto-fill
7
STANDARD
100
AcDbText
0
LWPOLYLINE
5
54
330
C
100
AcDbEntity
420
#ffffff
8
0
100
AcDbPolyline
90
42
70
0
43
0
38
0
39
0
10
24
20
136
10
99
20
136
10
99
20
136
10
99.78036128806451
20
135.92314112161284
10
100.53073372946037
20
135.69551813004523
10
101.2222809320784
20
135.32587844921022
10
101.82842712474618
20
134.8284271247462
10
102.32587844921018
20
134.22228093207832
10
102.69551813004514
20
133.53073372946028
10
102.92314112161293
20
132.78036128806457
10
103
20
132
10
103
20
90
10
103
20
90
10
102.92314112161293
20
89.21963871193543
10
102.69551813004514
20
88.46926627053972
10
102.32587844921018
20
87.77771906792168
10
101.82842712474618
20
87.17157287525379
10
101.2222809320784
20
86.67412155078978
10
100.53073372946037
20
86.30448186995477
10
99.78036128806451
20
86.07685887838716
10
99
20
86
10
24
20
86
10
24
20
86
10
23.219638711935488
20
86.07685887838716
10
22.46926627053964
20
86.30448186995477
10
21.77771906792159
20
86.67412155078978
10
21.17157287525381
20
87.17157287525379
10
20.67412155078982
20
87.77771906792168
10
20.304481869954852
20
88.46926627053972
10
20.07685887838708
20
89.21963871193543
10
20
20
90
10
20
20
132
10
20
20
132
10
20.07685887838708
20
132.78036128806457
10
20.304481869954852
20
133.53073372946028
10
20.674121550789817
20
134.22228093207832
10
21.17157287525381
20
134.8284271247462
10
21.77771906792159
20
135.32587844921022
10
22.469266270539638
20
135.69551813004523
10
23.219638711935485
20
135.92314112161284
10
24
20
136
10
24
20
136
0
TEXT
5
55
330
C
100
AcDbEntity
420
#ffffff
8
0
100
AcDbText
10
57.828125
20
105
30
0
40
12
1
A
7
STANDARD
100
AcDbText
0
LWPOLYLINE
5
56
330
C
100
AcDbEntity
420
#ffffff
8
0
100
AcDbPolyline
90
42
70
0
43
0
38
0
39
0
10
113
20
136
10
188
20
136
10
188
20
136
10
188.7803612880645
20
135.92314112161284
10
189.53073372946037
20
135.69551813004523
10
190.2222809320784
20
135.32587844921022
10
190.82842712474618
20
134.8284271247462
10
191.3258784492102
20
134.22228093207832
10
191.69551813004514
20
133.53073372946028
10
191.92314112161293
20
132.78036128806457
10
192
20
132
10
192
20
90
10
192
20
90
10
191.92314112161293
20
89.21963871193543
10
191.69551813004514
20
88.46926627053972
10
191.3258784492102
20
87.77771906792168
10
190.82842712474618
20
87.17157287525379
10
190.2222809320784
20
86.67412155078978
10
189.53073372946037
20
86.30448186995477
10
188.7803612880645
20
86.07685887838716
10
188
20
86
10
113
20
86
10
113
20
86
10
112.21963871193549
20
86.07685887838716
10
111.46926627053963
20
86.30448186995477
10
110.7777190679216
20
86.67412155078978
10
110.17157287525382
20
87.17157287525379
10
109.67412155078982
20
87.77771906792168
10
109.30448186995486
20
88.46926627053972
10
109.07685887838707
20
89.21963871193543
10
109
20
90
10
109
20
132
10
109
20
132
10
109.07685887838707
20
132.78036128806457
10
109.30448186995486
20
133.53073372946028
10
109.67412155078982
20
134.22228093207832
10
110.17157287525382
20
134.8284271247462
10
110.7777190679216
20
135.32587844921022
10
111.46926627053963
20
135.69551813004523
10
112.21963871193549
20
135.92314112161284
10
113
20
136
10
113
20
136
0
TEXT
5
57
330
C
100
AcDbEntity
420
#ffffff
8
0
100
AcDbText
10
146.828125
20
105
30
0
40
12
1
B
7
STANDARD
100
AcDbText
0
LWPOLYLINE
5
58
330
C
100
AcDbEntity
420
#ffffff
8
0
100
AcDbPolyline
90
42
70
0
43
0
38
0
39
0
10
202
20
136
10
277
20
136
10
277
20
136
10
277.7803612880645
20
135.92314112161284
10
278.53073372946034
20
135.69551813004523
10
279.22228093207843
20
135.32587844921022
10
279.8284271247462
20
134.8284271247462
10
280.32587844921017
20
134.22228093207832
10
280.6955181300452
20
133.53073372946028
10
280.9231411216129
20
132.78036128806457
10
281
20
132
10
281
20
90
10
281
20
90
10
280.9231411216129
20
89.21963871193543
10
280.6955181300452
20
88.46926627053972
10
280.32587844921017
20
87.77771906792168
10
279.8284271247462
20
87.17157287525379
10
279.22228093207843
20
86.67412155078978
10
278.53073372946034
20
86.30448186995477
10
277.7803612880645
20
86.07685887838716
10
277
20
86
10
202
20
86
10
202
20
86
10
201.2196387119355
20
86.07685887838716
10
200.46926627053963
20
86.30448186995477
10
199.7777190679216
20
86.67412155078978
10
199.17157287525382
20
87.17157287525379
10
198.6741215507898
20
87.77771906792168
10
198.30448186995486
20
88.46926627053972
10
198.07685887838707
20
89.21963871193543
10
198
20
90
10
198
20
132
10
198
20
132
10
198.07685887838707
20
132.78036128806457
10
198.30448186995486
20
133.53073372946028
10
198.6741215507898
20
134.22228093207832
10
199.17157287525382
20
134.8284271247462
10
199.7777190679216
20
135.32587844921022
10
200.46926627053963
20
135.69551813004523
10
201.2196387119355
20
135.92314112161284
10
202
20
136
10
202
20
136
0
TEXT
5
59
330
C
100
AcDbEntity
420
#ffffff
8
0
100
AcDbText
10
235.515625
20
105
30
0
40
12
1
C
7
STANDARD
100
AcDbText
0
LWPOLYLINE
5
5A
330
C
100
AcDbEntity
420
#ffffff
8
0
100
AcDbPolyline
90
42
70
0
43
0
38
0
39
0
10
291
20
136
10
366
20
136
10
366
20
136
10
366.7803612880645
20
135.92314112161284
10
367.53073372946034
20
135.69551813004523
10
368.22228093207843
20
135.32587844921022
10
368.8284271247462
20
134.8284271247462
10
369.32587844921017
20
134.22228093207832
10
369.6955181300452
20
133.53073372946028
10
369.9231411216129
20
132.78036128806457
10
370
20
132
10
370
20
90
10
370
20
90
10
369.9231411216129
20
89.21963871193543
10
369.6955181300452
20
88.46926627053972
10
369.32587844921017
20
87.77771906792168
10
368.8284271247462
20
87.17157287525379
10
368.22228093207843
20
86.67412155078978
10
367.53073372946034
20
86.30448186995477
10
366.7803612880645
20
86.07685887838716
10
366
20
86
10
291
20
86
10
291
20
86
10
290.2196387119355
20
86.07685887838716
10
289.46926627053966
20
86.30448186995477
10
288.77771906792157
20
86.67412155078978
10
288.1715728752538
20
87.17157287525379
10
287.67412155078983
20
87.77771906792168
10
287.3044818699548
20
88.46926627053972
10
287.0768588783871
20
89.21963871193543
10
287
20
90
10
287
20
132
10
287
20
132
10
287.0768588783871
20
132.78036128806457
10
287.3044818699548
20
133.53073372946028
10
287.67412155078983
20
134.22228093207832
10
288.1715728752538
20
134.8284271247462
10
288.77771906792157
20
135.32587844921022
10
289.46926627053966
20
135.69551813004523
10
290.2196387119355
20
135.92314112161284
10
291
20
136
10
291
20
136
0
TEXT
5
5B
330
C
100
AcDbEntity
420
#ffffff
8
0
100
AcDbText
10
324.515625
20
105
30
0
40
12
1
D
7
STANDARD
100
AcDbText
0
LWPOLYLINE
5
5C
330
C
100
AcDbEntity
420
#ffffff
8
0
100
AcDbPolyline
90
42
70
0
43
0
38
0
39
0
10
24
20
80
10
99
20
80
10
99
20
80
10
99.78036128806451
20
79.92314112161284
10
100.53073372946037
20
79.69551813004523
10
101.2222809320784
20
79.32587844921022
10
101.82842712474618
20
78.82842712474621
10
102.32587844921018
20
78.22228093207832
10
102.69551813004514
20
77.53073372946028
10
102.92314112161293
20
76.78036128806457
10
103
20
76
10
103
20
34
10
103
20
34
10
102.92314112161293
20
33.21963871193543
10
102.69551813004514
20
32.46926627053972
10
102.32587844921018
20
31.77771906792168
10
101.82842712474618
20
31.171572875253787
10
101.2222809320784
20
30.674121550789778
10
100.53073372946037
20
30.30448186995477
10
99.78036128806451
20
30.076858878387156
10
99
20
30
10
24
20
30
10
24
20
30
10
23.219638711935488
20
30.076858878387156
10
22.46926627053964
20
30.30448186995477
10
21.77771906792159
20
30.674121550789778
10
21.17157287525381
20
31.171572875253787
10
20.67412155078982
20
31.77771906792168
10
20.304481869954852
20
32.46926627053972
10
20.07685887838708
20
33.21963871193543
10
20
20
34
10
20
20
76
10
20
20
76
10
20.07685887838708
20
76.78036128806457
10
20.304481869954852
20
77.53073372946028
10
20.674121550789817
20
78.22228093207832
10
21.17157287525381
20
78.82842712474621
10
21.77771906792159
20
79.32587844921022
10
22.469266270539638
20
79.69551813004523
10
23.219638711935485
20
79.92314112161284
10
24
20
80
10
24
20
80
0
TEXT
5
5D
330
C
100
AcDbEntity
420
#ffffff
8
0
100
AcDbText
10
57.828125
20
49
30
0
40
12
1
E
7
STANDARD
100
AcDbText
0
ENDSEC
0
SECTION
2
OBJECTS
0
DICTIONARY
5
A
330
0
100
AcDbDictionary
281
1
3
ACAD_GROUP
350
B
0
DICTIONARY
5
B
330
A
100
AcDbDictionary
281
0
0
ENDSEC
0
EOF