<?xml version="1.0" encoding="UTF-8"?>
<svg xmlns="http://www.w3.org/2000/svg" xmlns:xlink="http://www.w3.org/1999/xlink" width="1240" height="1169" viewBox="0 0 1240 1169">
<path d="M0,0 L1240,0 L1240,1169 L0,1169 Z" fill="none"/>
<path d="M0,0 L1240,0 L1240,21 L0,21 Z" fill="none"/>
<text x="0" y="1.5" fill="rgb(0, 0, 0)" dominant-baseline="text-before-edge" font-weight="700" font-size="18px" font-family="Arial">Flexbox Row</text>
<path d="M0,31 L400,31 L400,72 L0,72 Z" fill="none"/>
<rect x="0" y="31" width="101" height="41" rx="6" ry="6" fill="rgb(229, 57, 53)"/>
<text x="42.72" y="44.5" fill="rgb(255, 255, 255)" dominant-baseline="text-before-edge" font-weight="700" font-size="14px" font-family="Arial">1x</text>
<rect x="111" y="31" width="178" height="41" rx="6" ry="6" fill="rgb(30, 136, 229)"/>
<text x="192.22" y="44.5" fill="rgb(255, 255, 255)" dominant-baseline="text-before-edge" font-weight="700" font-size="14px" font-family="Arial">2x</text>
<rect x="299" y="31" width="101" height="41" rx="6" ry="6" fill="rgb(67, 160, 71)"/>
<text x="341.72" y="44.5" fill="rgb(255, 255, 255)" dominant-baseline="text-before-edge" font-weight="700" font-size="14px" font-family="Arial">1x</text>
<path d="M0,87 L1240,87 L1240,108 L0,108 Z" fill="none"/>
<text x="0" y="88.5" fill="rgb(0, 0, 0)" dominant-baseline="text-before-edge" font-weight="700" font-size="18px" font-family="Arial">Flexbox Column</text>
<path d="M0,118 L200,118 L200,239 L0,239 Z" fill="none"/>
<rect x="0" y="118" width="200" height="35" rx="4" ry="4" fill="rgb(233, 30, 99)"/>
<text x="82.67" y="129.5" fill="rgb(255, 255, 255)" dominant-baseline="text-before-edge" font-size="12px" font-family="Arial">Item A</text>
<rect x="0" y="161" width="200" height="35" rx="4" ry="4" fill="rgb(156, 39, 176)"/>
<text x="82.67" y="172.5" fill="rgb(255, 255, 255)" dominant-baseline="text-before-edge" font-size="12px" font-family="Arial">Item B</text>
<rect x="0" y="204" width="200" height="35" rx="4" ry="4" fill="rgb(103, 58, 183)"/>
<text x="82.33" y="215.5" fill="rgb(255, 255, 255)" dominant-baseline="text-before-edge" font-size="12px" font-family="Arial">Item C</text>
<path d="M0,254 L1240,254 L1240,275 L0,275 Z" fill="none"/>
<text x="0" y="255.5" fill="rgb(0, 0, 0)" dominant-baseline="text-before-edge" font-weight="700" font-size="18px" font-family="Arial">Flexbox Wrap</text>
<path d="M0,285 L300,285 L300,451 L0,451 Z" fill="none"/>
<rect x="0" y="285" width="80" height="50" rx="4" ry="4" fill="rgb(244, 67, 54)"/>
<text x="36.93" y="304.5" fill="rgb(255, 255, 255)" dominant-baseline="text-before-edge" font-size="11px" font-family="Arial">1</text>
<rect x="88" y="285" width="80" height="50" rx="4" ry="4" fill="rgb(233, 30, 99)"/>
<text x="124.93" y="304.5" fill="rgb(255, 255, 255)" dominant-baseline="text-before-edge" font-size="11px" font-family="Arial">2</text>
<rect x="176" y="285" width="80" height="50" rx="4" ry="4" fill="rgb(156, 39, 176)"/>
<text x="212.93" y="304.5" fill="rgb(255, 255, 255)" dominant-baseline="text-before-edge" font-size="11px" font-family="Arial">3</text>
<rect x="0" y="343" width="80" height="50" rx="4" ry="4" fill="rgb(103, 58, 183)"/>
<text x="36.93" y="362.5" fill="rgb(255, 255, 255)" dominant-baseline="text-before-edge" font-size="11px" font-family="Arial">4</text>
<rect x="88" y="343" width="80" height="50" rx="4" ry="4" fill="rgb(63, 81, 181)"/>
<text x="124.93" y="362.5" fill="rgb(255, 255, 255)" dominant-baseline="text-before-edge" font-size="11px" font-family="Arial">5</text>
<rect x="176" y="343" width="80" height="50" rx="4" ry="4" fill="rgb(33, 150, 243)"/>
<text x="212.93" y="362.5" fill="rgb(255, 255, 255)" dominant-baseline="text-before-edge" font-size="11px" font-family="Arial">6</text>
<rect x="0" y="401" width="80" height="50" rx="4" ry="4" fill="rgb(0, 150, 136)"/>
<text x="36.93" y="420.5" fill="rgb(255, 255, 255)" dominant-baseline="text-before-edge" font-size="11px" font-family="Arial">7</text>
<path d="M0,466 L1240,466 L1240,487 L0,487 Z" fill="none"/>
<text x="0" y="467.5" fill="rgb(0, 0, 0)" dominant-baseline="text-before-edge" font-weight="700" font-size="18px" font-family="Arial">Centered Content</text>
<rect x="0" y="497" width="250" height="100" rx="8" ry="8" fill="rgb(38, 50, 56)"/>
<rect x="72.32" y="528.5" width="105.35" height="37" rx="18.5" ry="18.5" fill="rgb(255, 171, 64)"/>
<text x="92.32" y="540" fill="rgb(0, 0, 0)" dominant-baseline="text-before-edge" font-weight="700" font-size="14px" font-family="Arial">Centered!</text>
<path d="M0,612 L1240,612 L1240,633 L0,633 Z" fill="none"/>
<text x="0" y="613.5" fill="rgb(0, 0, 0)" dominant-baseline="text-before-edge" font-weight="700" font-size="18px" font-family="Arial">Grid Basic</text>
<path d="M0,643 L350,643 L350,771 L0,771 Z" fill="none"/>
<rect x="0" y="643" width="111.33" height="60" rx="4" ry="4" fill="rgb(244, 67, 54)"/>
<text x="52.33" y="667" fill="rgb(255, 255, 255)" dominant-baseline="text-before-edge" font-weight="700" font-size="12px" font-family="Arial">1</text>
<rect x="119.33" y="643" width="111.33" height="60" rx="4" ry="4" fill="rgb(233, 30, 99)"/>
<text x="171.67" y="667" fill="rgb(255, 255, 255)" dominant-baseline="text-before-edge" font-weight="700" font-size="12px" font-family="Arial">2</text>
<rect x="238.67" y="643" width="111.33" height="60" rx="4" ry="4" fill="rgb(156, 39, 176)"/>
<text x="291" y="667" fill="rgb(255, 255, 255)" dominant-baseline="text-before-edge" font-weight="700" font-size="12px" font-family="Arial">3</text>
<rect x="0" y="711" width="111.33" height="60" rx="4" ry="4" fill="rgb(103, 58, 183)"/>
<text x="52.33" y="735" fill="rgb(255, 255, 255)" dominant-baseline="text-before-edge" font-weight="700" font-size="12px" font-family="Arial">4</text>
<rect x="119.33" y="711" width="111.33" height="60" rx="4" ry="4" fill="rgb(63, 81, 181)"/>
<text x="171.67" y="735" fill="rgb(255, 255, 255)" dominant-baseline="text-before-edge" font-weight="700" font-size="12px" font-family="Arial">5</text>
<rect x="238.67" y="711" width="111.33" height="60" rx="4" ry="4" fill="rgb(33, 150, 243)"/>
<text x="291" y="735" fill="rgb(255, 255, 255)" dominant-baseline="text-before-edge" font-weight="700" font-size="12px" font-family="Arial">6</text>
<path d="M0,786 L1240,786 L1240,807 L0,807 Z" fill="none"/>
<text x="0" y="787.5" fill="rgb(0, 0, 0)" dominant-baseline="text-before-edge" font-weight="700" font-size="18px" font-family="Arial">Grid Named Areas (Holy Grail Layout)</text>
<path d="M0,817 L400,817 L400,1017 L0,1017 Z" fill="none"/>
<rect x="0" y="817" width="400" height="40" rx="4" ry="4" fill="rgb(92, 107, 192)"/>
<text x="179.67" y="831" fill="rgb(255, 255, 255)" dominant-baseline="text-before-edge" font-weight="700" font-size="12px" font-family="Arial">Header</text>
<rect x="0" y="863" width="100" height="108" rx="4" ry="4" fill="rgb(38, 166, 154)"/>
<text x="37.33" y="911" fill="rgb(255, 255, 255)" dominant-baseline="text-before-edge" font-weight="700" font-size="12px" font-family="Arial">Side</text>
<rect x="106" y="863" width="208" height="108" rx="4" ry="4" fill="rgb(239, 83, 80)"/>
<text x="172" y="911" fill="rgb(255, 255, 255)" dominant-baseline="text-before-edge" font-weight="700" font-size="12px" font-family="Arial">Main Content</text>
<rect x="320" y="863" width="80" height="108" rx="4" ry="4" fill="rgb(255, 112, 67)"/>
<text x="343.67" y="911" fill="rgb(255, 255, 255)" dominant-baseline="text-before-edge" font-weight="700" font-size="12px" font-family="Arial">Aside</text>
<rect x="0" y="977" width="400" height="40" rx="4" ry="4" fill="rgb(120, 144, 156)"/>
<text x="181.33" y="991" fill="rgb(255, 255, 255)" dominant-baseline="text-before-edge" font-weight="700" font-size="12px" font-family="Arial">Footer</text>
<path d="M0,1032 L1240,1032 L1240,1053 L0,1053 Z" fill="none"/>
<text x="0" y="1033.5" fill="rgb(0, 0, 0)" dominant-baseline="text-before-edge" font-weight="700" font-size="18px" font-family="Arial">Grid Auto-fill</text>
<path d="M0,1063 L350,1063 L350,1169 L0,1169 Z" fill="none"/>
<rect x="0" y="1063" width="83" height="50" rx="4" ry="4" fill="rgb(0, 188, 212)"/>
<text x="37.83" y="1082.5" fill="rgb(255, 255, 255)" dominant-baseline="text-before-edge" font-size="11px" font-family="Arial">A</text>
<rect x="89" y="1063" width="83" height="50" rx="4" ry="4" fill="rgb(0, 150, 136)"/>
<text x="126.83" y="1082.5" fill="rgb(255, 255, 255)" dominant-baseline="text-before-edge" font-size="11px" font-family="Arial">B</text>
<rect x="178" y="1063" width="83" height="50" rx="4" ry="4" fill="rgb(76, 175, 80)"/>
<text x="215.52" y="1082.5" fill="rgb(255, 255, 255)" dominant-baseline="text-before-edge" font-size="11px" font-family="Arial">C</text>
<rect x="267" y="1063" width="83" height="50" rx="4" ry="4" fill="rgb(139, 195, 74)"/>
<text x="304.52" y="1082.5" fill="rgb(255, 255, 255)" dominant-baseline="text-before-edge" font-size="11px" font-family="Arial">D</text>
<rect x="0" y="1119" width="83" height="50" rx="4" ry="4" fill="rgb(205, 220, 57)"/>
<text x="37.83" y="1138.5" fill="rgb(255, 255, 255)" dominant-baseline="text-before-edge" font-size="11px" font-family="Arial">E</text>
</svg>