0
SECTION
2
HEADER
9
$ACADVER
1
AC1021
9
$LASTSAVEDBY
1
@tarikjabiri/dxf
9
$HANDSEED
5
42
9
$INSUNITS
70
0
9
$CLAYER
8
0
9
$VIEWCTR
10
590.5
20
336.1796875
0
ENDSEC
0
SECTION
2
CLASSES
0
ENDSEC
0
SECTION
2
TABLES
0
TABLE
2
VPORT
5
1
330
0
100
AcDbSymbolTable
70
1
0
VPORT
5
19
330
1
100
AcDbSymbolTableRecord
100
AcDbViewportTableRecord
2
*Active
70
0
10
0
20
0
11
1
21
1
12
590.5
22
336.1796875
13
0
23
0
14
10
24
10
15
10
25
10
16
0
26
0
36
1
17
0
27
0
37
0
40
764.640625
41
2
42
50
43
0
44
0
50
0
51
0
71
0
72
100
73
1
74
3
75
0
76
1
77
0
78
0
281
0
65
1
110
0
120
0
130
0
111
1
121
0
131
0
112
0
122
1
132
0
79
0
146
0
348
10020
60
7
61
5
292
1
282
1
141
0
142
0
63
250
421
3358443
0
ENDTAB
0
TABLE
2
LTYPE
5
2
330
0
100
AcDbSymbolTable
70
3
0
LTYPE
5
12
330
2
100
AcDbSymbolTableRecord
100
AcDbLinetypeTableRecord
2
ByBlock
70
0
3

72
65
73
0
40
0
0
LTYPE
5
13
330
2
100
AcDbSymbolTableRecord
100
AcDbLinetypeTableRecord
2
ByLayer
70
0
3

72
65
73
0
40
0
0
LTYPE
5
14
330
2
100
AcDbSymbolTableRecord
100
AcDbLinetypeTableRecord
2
Continuous
70
0
3
Solid line
72
65
73
0
40
0
0
ENDTAB
0
TABLE
2
LAYER
5
3
330
0
100
AcDbSymbolTable
70
1
0
LAYER
5
15
330
3
100
AcDbSymbolTableRecord
100
AcDbLayerTableRecord
2
0
70
0
62
7
6
Continuous
370
0
390
0
0
ENDTAB
0
TABLE
2
STYLE
5
4
330
0
100
AcDbSymbolTable
70
3
0
STYLE
5
16
330
4
100
AcDbSymbolTableRecord
100
AcDbTextStyleTableRecord
2
Standard
70
0
40
0
41
1
50
0
71
0
42
1
3
txt
4

0
STYLE
5
1B
330
4
100
AcDbSymbolTableRecord
100
AcDbTextStyleTableRecord
2
Arial
70
0
40
0
41
1
50
0
71
0
42
1
3
Arial.ttf
4

0
STYLE
5
26
330
4
100
AcDbSymbolTableRecord
100
AcDbTextStyleTableRecord
2
Consolas
70
0
40
0
41
1
50
0
71
0
42
1
3
Consolas.ttf
4

0
ENDTAB
0
TABLE
2
VIEW
5
5
330
0
100
AcDbSymbolTable
70
0
0
ENDTAB
0
TABLE
2
UCS
5
6
330
0
100
AcDbSymbolTable
70
0
0
ENDTAB
0
TABLE
2
APPID
5
7
330
0
100
AcDbSymbolTable
70
1
0
APPID
5
17
330
7
100
AcDbSymbolTableRecord
100
AcDbRegAppTableRecord
2
ACAD
70
0
0
ENDTAB
0
TABLE
2
DIMSTYLE
5
8
330
0
100
AcDbSymbolTable
70
1
100
AcDbDimStyleTable
0
DIMSTYLE
105
18
330
8
100
AcDbSymbolTableRecord
100
AcDbDimStyleTableRecord
2
Standard
70
0
340
16
0
ENDTAB
0
TABLE
2
BLOCK_RECORD
5
9
330
0
100
AcDbSymbolTable
70
2
0
BLOCK_RECORD
5
C
330
9
100
AcDbSymbolTableRecord
100
AcDbBlockTableRecord
2
*Model_Space
70
0
280
1
281
0
0
BLOCK_RECORD
5
F
330
9
100
AcDbSymbolTableRecord
100
AcDbBlockTableRecord
2
*Paper_Space
70
0
280
1
281
0
0
ENDTAB
0
ENDSEC
0
SECTION
2
BLOCKS
0
BLOCK
5
D
330
C
100
AcDbEntity
8
0
100
AcDbBlockBegin
2
*Model_Space
70
0
10
0
20
0
30
0
3
*Model_Space
1

0
ENDBLK
5
E
100
AcDbEntity
8
0
100
AcDbBlockEnd
0
BLOCK
5
10
330
F
100
AcDbEntity
8
0
100
AcDbBlockBegin
2
*Paper_Space
70
0
10
0
20
0
30
0
3
*Paper_Space
1

0
ENDBLK
5
11
100
AcDbEntity
8
0
100
AcDbBlockEnd
0
ENDSEC
0
SECTION
2
ENTITIES
0
TEXT
5
1A
330
C
100
AcDbEntity
420
16317180
8
0
100
AcDbText
10
28
20
618.5
30
0
40
24
1
Line Clamp Values
7
Arial
100
AcDbText
0
TEXT
5
1C
330
C
100
AcDbEntity
420
14870768
8
0
100
AcDbText
10
28
20
585.5
30
0
40
16
1
These cards cover the legacy `-webkit-line-clamp` flow, the modern unprefixed `line-clamp` property, the `no-ellipsis` modifier, and
7
Arial
100
AcDbText
0
TEXT
5
1D
330
C
100
AcDbEntity
420
14870768
8
0
100
AcDbText
10
28
20
559.90625
30
0
40
16
1
an unclamped control. Browsers that do not support the modern values will simply render those cards without truncation.
7
Arial
100
AcDbText
0
LWPOLYLINE
5
1E
330
C
100
AcDbEntity
420
9741240
8
0
100
AcDbPolyline
90
42
70
0
43
0
38
0
39
0
10
46
20
529
10
303
20
529
10
303
20
529
10
306.51162579629033
20
528.6541350472581
10
309.8883017825716
20
527.6298315852032
10
313.00026419435284
20
525.9664530214458
10
315.72792206135784
20
523.7279220613578
10
317.96645302144583
20
521.0002641943529
10
319.62983158520314
20
517.8883017825716
10
320.65413504725814
20
514.5116257962903
10
321
20
511
10
321
20
306
10
321
20
306
10
320.65413504725814
20
302.48837420370967
10
319.62983158520314
20
299.1116982174284
10
317.96645302144583
20
295.99973580564716
10
315.72792206135784
20
293.27207793864216
10
313.00026419435284
20
291.03354697855417
10
309.8883017825716
20
289.37016841479686
10
306.51162579629033
20
288.34586495274186
10
303
20
288
10
46
20
288
10
46
20
288
10
42.48837420370969
20
288.34586495274186
10
39.11169821742838
20
289.37016841479686
10
35.99973580564716
20
291.03354697855417
10
33.27207793864214
20
293.27207793864216
10
31.033546978554185
20
295.99973580564716
10
29.37016841479684
20
299.1116982174284
10
28.345864952741852
20
302.48837420370967
10
28
20
306
10
28
20
511
10
28
20
511
10
28.345864952741852
20
514.5116257962903
10
29.370168414796836
20
517.8883017825716
10
31.03354697855418
20
521.0002641943529
10
33.27207793864214
20
523.7279220613578
10
35.99973580564716
20
525.9664530214458
10
39.111698217428376
20
527.6298315852032
10
42.48837420370968
20
528.6541350472581
10
46
20
529
10
46
20
529
0
TEXT
5
1F
330
C
100
AcDbEntity
420
9684477
8
0
100
AcDbText
10
47
20
499.0625
30
0
40
13
1
LEGACY ONE-LINE CLAMP
7
Arial
100
AcDbText
0
TEXT
5
20
330
C
100
AcDbEntity
420
14870768
8
0
100
AcDbText
10
47
20
467.3125
30
0
40
16
1
A single-line clamp should still
7
Arial
100
AcDbText
0
TEXT
5
21
330
C
100
AcDbEntity
420
14870768
8
0
100
AcDbText
10
47
20
442.515625
30
0
40
16
1
append an ellipsis when the copy
7
Arial
100
AcDbText
0
TEXT
5
22
330
C
100
AcDbEntity
420
14870768
8
0
100
AcDbText
10
47
20
417.71875
30
0
40
16
1
runs far beyond the width of the
7
Arial
100
AcDbText
0
TEXT
5
23
330
C
100
AcDbEntity
420
14870768
8
0
100
AcDbText
10
47
20
392.921875
30
0
40
16
1
card and the browser clips the extra
7
Arial
100
AcDbText
0
TEXT
5
24
330
C
100
AcDbEntity
420
14870768
8
0
100
AcDbText
10
47
20
368.125
30
0
40
16
1
content.
7
Arial
100
AcDbText
0
TEXT
5
25
330
C
100
AcDbEntity
420
12573694
8
0
100
AcDbText
10
47
20
437.015625
30
0
40
12
1
display:-webkit-box
7
Consolas
100
AcDbText
0
TEXT
5
27
330
C
100
AcDbEntity
420
12573694
8
0
100
AcDbText
10
47
20
419.625
30
0
40
12
1
-webkit-line-clamp: 1
7
Consolas
100
AcDbText
0
LWPOLYLINE
5
28
330
C
100
AcDbEntity
420
9741240
8
0
100
AcDbPolyline
90
42
70
0
43
0
38
0
39
0
10
357
20
529
10
614
20
529
10
614
20
529
10
617.5116257962903
20
528.6541350472581
10
620.8883017825716
20
527.6298315852032
10
624.0002641943529
20
525.9664530214458
10
626.7279220613578
20
523.7279220613578
10
628.9664530214458
20
521.0002641943529
10
630.6298315852032
20
517.8883017825716
10
631.6541350472581
20
514.5116257962903
10
632
20
511
10
632
20
306
10
632
20
306
10
631.6541350472581
20
302.48837420370967
10
630.6298315852032
20
299.1116982174284
10
628.9664530214458
20
295.99973580564716
10
626.7279220613578
20
293.27207793864216
10
624.0002641943529
20
291.03354697855417
10
620.8883017825716
20
289.37016841479686
10
617.5116257962903
20
288.34586495274186
10
614
20
288
10
357
20
288
10
357
20
288
10
353.48837420370967
20
288.34586495274186
10
350.1116982174284
20
289.37016841479686
10
346.99973580564716
20
291.03354697855417
10
344.27207793864216
20
293.27207793864216
10
342.03354697855417
20
295.99973580564716
10
340.37016841479686
20
299.1116982174284
10
339.34586495274186
20
302.48837420370967
10
339
20
306
10
339
20
511
10
339
20
511
10
339.34586495274186
20
514.5116257962903
10
340.3701684147968
20
517.8883017825716
10
342.03354697855417
20
521.0002641943529
10
344.27207793864216
20
523.7279220613578
10
346.99973580564716
20
525.9664530214458
10
350.1116982174284
20
527.6298315852032
10
353.48837420370967
20
528.6541350472581
10
357
20
529
10
357
20
529
0
TEXT
5
29
330
C
100
AcDbEntity
420
9684477
8
0
100
AcDbText
10
357.5
20
499.0625
30
0
40
13
1
LEGACY TWO-LINE CLAMP
7
Arial
100
AcDbText
0
TEXT
5
2A
330
C
100
AcDbEntity
420
14870768
8
0
100
AcDbText
10
357.5
20
467.3125
30
0
40
16
1
This two-line example mirrors the
7
Arial
100
AcDbText
0
TEXT
5
2B
330
C
100
AcDbEntity
420
14870768
8
0
100
AcDbText
10
357.5
20
442.515625
30
0
40
16
1
pattern used by feed cards, sear…
7
Arial
100
AcDbText
0
TEXT
5
2C
330
C
100
AcDbEntity
420
12573694
8
0
100
AcDbText
10
357.5
20
412.21875
30
0
40
12
1
-webkit-line-clamp: 2
7
Consolas
100
AcDbText
0
TEXT
5
2D
330
C
100
AcDbEntity
420
12573694
8
0
100
AcDbText
10
357.5
20
394.828125
30
0
40
12
1
No explicit 
7
Arial
100
AcDbText
0
TEXT
5
2E
330
C
100
AcDbEntity
420
12573694
8
0
100
AcDbText
10
416.1875
20
394.828125
30
0
40
12
1
text-overflow
7
Consolas
100
AcDbText
0
TEXT
5
2F
330
C
100
AcDbEntity
420
12573694
8
0
100
AcDbText
10
501.96875
20
394.828125
30
0
40
12
1
 declaration.
7
Arial
100
AcDbText
0
LWPOLYLINE
5
30
330
C
100
AcDbEntity
420
9741240
8
0
100
AcDbPolyline
90
42
70
0
43
0
38
0
39
0
10
667
20
529
10
924
20
529
10
924
20
529
10
927.5116257962903
20
528.6541350472581
10
930.8883017825716
20
527.6298315852032
10
934.0002641943529
20
525.9664530214458
10
936.7279220613578
20
523.7279220613578
10
938.9664530214458
20
521.0002641943529
10
940.6298315852032
20
517.8883017825716
10
941.6541350472581
20
514.5116257962903
10
942
20
511
10
942
20
306
10
942
20
306
10
941.6541350472581
20
302.48837420370967
10
940.6298315852032
20
299.1116982174284
10
938.9664530214458
20
295.99973580564716
10
936.7279220613578
20
293.27207793864216
10
934.0002641943529
20
291.03354697855417
10
930.8883017825716
20
289.37016841479686
10
927.5116257962903
20
288.34586495274186
10
924
20
288
10
667
20
288
10
667
20
288
10
663.4883742037097
20
288.34586495274186
10
660.1116982174284
20
289.37016841479686
10
656.9997358056472
20
291.03354697855417
10
654.2720779386422
20
293.27207793864216
10
652.0335469785542
20
295.99973580564716
10
650.3701684147968
20
299.1116982174284
10
649.3458649527419
20
302.48837420370967
10
649
20
306
10
649
20
511
10
649
20
511
10
649.3458649527419
20
514.5116257962903
10
650.3701684147968
20
517.8883017825716
10
652.0335469785542
20
521.0002641943529
10
654.2720779386422
20
523.7279220613578
10
656.9997358056471
20
525.9664530214458
10
660.1116982174284
20
527.6298315852032
10
663.4883742037097
20
528.6541350472581
10
667
20
529
10
667
20
529
0
TEXT
5
31
330
C
100
AcDbEntity
420
9684477
8
0
100
AcDbText
10
668
20
499.0625
30
0
40
13
1
LEGACY THREE-LINE CLAMP
7
Arial
100
AcDbText
0
TEXT
5
32
330
C
100
AcDbEntity
420
14870768
8
0
100
AcDbText
10
668
20
467.3125
30
0
40
16
1
Longer editorial text often wants
7
Arial
100
AcDbText
0
TEXT
5
33
330
C
100
AcDbEntity
420
14870768
8
0
100
AcDbText
10
668
20
442.515625
30
0
40
16
1
one more line of headroom before
7
Arial
100
AcDbText
0
TEXT
5
34
330
C
100
AcDbEntity
420
14870768
8
0
100
AcDbText
10
668
20
417.71875
30
0
40
16
1
the truncation kicks in, especially…
7
Arial
100
AcDbText
0
TEXT
5
35
330
C
100
AcDbEntity
420
12573694
8
0
100
AcDbText
10
668
20
387.421875
30
0
40
12
1
-webkit-line-clamp: 3
7
Consolas
100
AcDbText
0
LWPOLYLINE
5
36
330
C
100
AcDbEntity
420
9741240
8
0
100
AcDbPolyline
90
42
70
0
43
0
38
0
39
0
10
978
20
529
10
1235
20
529
10
1235
20
529
10
1238.5116257962902
20
528.6541350472581
10
1241.8883017825717
20
527.6298315852032
10
1245.000264194353
20
525.9664530214458
10
1247.727922061358
20
523.7279220613578
10
1249.966453021446
20
521.0002641943529
10
1251.6298315852032
20
517.8883017825716
10
1252.6541350472583
20
514.5116257962903
10
1253
20
511
10
1253
20
306
10
1253
20
306
10
1252.6541350472583
20
302.48837420370967
10
1251.6298315852032
20
299.1116982174284
10
1249.966453021446
20
295.99973580564716
10
1247.727922061358
20
293.27207793864216
10
1245.000264194353
20
291.03354697855417
10
1241.8883017825717
20
289.37016841479686
10
1238.5116257962902
20
288.34586495274186
10
1235
20
288
10
978
20
288
10
978
20
288
10
974.4883742037097
20
288.34586495274186
10
971.1116982174284
20
289.37016841479686
10
967.9997358056472
20
291.03354697855417
10
965.2720779386422
20
293.27207793864216
10
963.0335469785542
20
295.99973580564716
10
961.3701684147968
20
299.1116982174284
10
960.3458649527419
20
302.48837420370967
10
960
20
306
10
960
20
511
10
960
20
511
10
960.3458649527419
20
514.5116257962903
10
961.3701684147968
20
517.8883017825716
10
963.0335469785542
20
521.0002641943529
10
965.2720779386422
20
523.7279220613578
10
967.9997358056471
20
525.9664530214458
10
971.1116982174284
20
527.6298315852032
10
974.4883742037097
20
528.6541350472581
10
978
20
529
10
978
20
529
0
TEXT
5
37
330
C
100
AcDbEntity
420
9684477
8
0
100
AcDbText
10
978.5
20
499.0625
30
0
40
13
1
MODERN TWO-LINE CLAMP
7
Arial
100
AcDbText
0
TEXT
5
38
330
C
100
AcDbEntity
420
14870768
8
0
100
AcDbText
10
978.5
20
467.3125
30
0
40
16
1
The modern shorthand expresses t
7
Arial
100
AcDbText
0
TEXT
5
39
330
C
100
AcDbEntity
420
12573694
8
0
100
AcDbText
10
978.5
20
313.03125
30
0
40
12
1
line-clamp: 2
7
Consolas
100
AcDbText
0
LWPOLYLINE
5
3A
330
C
100
AcDbEntity
420
9741240
8
0
100
AcDbPolyline
90
42
70
0
43
0
38
0
39
0
10
46
20
270
10
303
20
270
10
303
20
270
10
306.51162579629033
20
269.65413504725814
10
309.8883017825716
20
268.62983158520314
10
313.00026419435284
20
266.96645302144583
10
315.72792206135784
20
264.72792206135784
10
317.96645302144583
20
262.00026419435284
10
319.62983158520314
20
258.8883017825716
10
320.65413504725814
20
255.51162579629033
10
321
20
252
10
321
20
47
10
321
20
47
10
320.65413504725814
20
43.48837420370967
10
319.62983158520314
20
40.1116982174284
10
317.96645302144583
20
36.999735805647106
10
315.72792206135784
20
34.272077938642155
10
313.00026419435284
20
32.03354697855423
10
309.8883017825716
20
30.370168414796808
10
306.51162579629033
20
29.345864952741863
10
303
20
29
10
46
20
29
10
46
20
29
10
42.48837420370969
20
29.345864952741863
10
39.11169821742838
20
30.370168414796808
10
35.99973580564716
20
32.03354697855423
10
33.27207793864214
20
34.272077938642155
10
31.033546978554185
20
36.999735805647106
10
29.37016841479684
20
40.1116982174284
10
28.345864952741852
20
43.48837420370967
10
28
20
47
10
28
20
252
10
28
20
252
10
28.345864952741852
20
255.51162579629033
10
29.370168414796836
20
258.8883017825716
10
31.03354697855418
20
262.00026419435284
10
33.27207793864214
20
264.72792206135784
10
35.99973580564716
20
266.96645302144583
10
39.111698217428376
20
268.62983158520314
10
42.48837420370968
20
269.65413504725814
10
46
20
270
10
46
20
270
0
TEXT
5
3B
330
C
100
AcDbEntity
420
9684477
8
0
100
AcDbText
10
47
20
239.890625
30
0
40
13
1
MODERN NO-ELLIPSIS
7
Arial
100
AcDbText
0
TEXT
5
3C
330
C
100
AcDbEntity
420
14870768
8
0
100
AcDbText
10
47
20
208.140625
30
0
40
16
1
Some components need the visible
7
Arial
100
AcDbText
0
TEXT
5
3D
330
C
100
AcDbEntity
420
12573694
8
0
100
AcDbText
10
47
20
53.859375
30
0
40
12
1
line-clamp: 2 no-ellipsis
7
Consolas
100
AcDbText
0
LWPOLYLINE
5
3E
330
C
100
AcDbEntity
420
9741240
8
0
100
AcDbPolyline
90
42
70
0
43
0
38
0
39
0
10
357
20
270
10
614
20
270
10
614
20
270
10
617.5116257962903
20
269.65413504725814
10
620.8883017825716
20
268.62983158520314
10
624.0002641943529
20
266.96645302144583
10
626.7279220613578
20
264.72792206135784
10
628.9664530214458
20
262.00026419435284
10
630.6298315852032
20
258.8883017825716
10
631.6541350472581
20
255.51162579629033
10
632
20
252
10
632
20
47
10
632
20
47
10
631.6541350472581
20
43.48837420370967
10
630.6298315852032
20
40.1116982174284
10
628.9664530214458
20
36.999735805647106
10
626.7279220613578
20
34.272077938642155
10
624.0002641943529
20
32.03354697855423
10
620.8883017825716
20
30.370168414796808
10
617.5116257962903
20
29.345864952741863
10
614
20
29
10
357
20
29
10
357
20
29
10
353.48837420370967
20
29.345864952741863
10
350.1116982174284
20
30.370168414796808
10
346.99973580564716
20
32.03354697855423
10
344.27207793864216
20
34.272077938642155
10
342.03354697855417
20
36.999735805647106
10
340.37016841479686
20
40.1116982174284
10
339.34586495274186
20
43.48837420370967
10
339
20
47
10
339
20
252
10
339
20
252
10
339.34586495274186
20
255.51162579629033
10
340.3701684147968
20
258.8883017825716
10
342.03354697855417
20
262.00026419435284
10
344.27207793864216
20
264.72792206135784
10
346.99973580564716
20
266.96645302144583
10
350.1116982174284
20
268.62983158520314
10
353.48837420370967
20
269.65413504725814
10
357
20
270
10
357
20
270
0
TEXT
5
3F
330
C
100
AcDbEntity
420
9684477
8
0
100
AcDbText
10
357.5
20
239.890625
30
0
40
13
1
UNCLAMPED CONTROL
7
Arial
100
AcDbText
0
TEXT
5
40
330
C
100
AcDbEntity
420
14870768
8
0
100
AcDbText
10
357.5
20
208.140625
30
0
40
16
1
This card uses the same copy as th
7
Arial
100
AcDbText
0
TEXT
5
41
330
C
100
AcDbEntity
420
12573694
8
0
100
AcDbText
10
357.5
20
53.859375
30
0
40
12
1
line-clamp: none
7
Consolas
100
AcDbText
0
ENDSEC
0
SECTION
2
OBJECTS
0
DICTIONARY
5
A
330
0
100
AcDbDictionary
281
1
3
ACAD_GROUP
350
B
0
DICTIONARY
5
B
330
A
100
AcDbDictionary
281
0
0
ENDSEC
0
EOF