  0
SECTION
  2
HEADER
  9
$ANGBASE
 50
0.0
  9
$ANGDIR
 70
1
  9
$AUNITS
 70
0
  9
$AUPREC
 70
0
  9
$ATTMODE
 70
1
  9
$DWGCODEPAGE
  3
ANSI_1252
  9
$TDCREATE
 40
2451545.0416666665114462
  9
$CECOLOR
 62
256
  9
$CELTSCALE
 40
1.0
  9
$CELWEIGHT
370
-1
  9
$CLAYER
  8
0
  9
$CELTYPE
  6
ByLayer
  9
$CMLJUST
 70
0
  9
$CMLSCALE
 40
20.0
  9
$CMLSTYLE
  2
Standard
  9
$DIMSTYLE
  2
Standard
  9
$LWDISPLAY
290
0
  9
$EXTNAMES
290
1
  9
$HANDSEED
  5
53
  9
$INSUNITS
 70
0
  9
$LUNITS
 70
2
  9
$LUPREC
 70
4
  9
$LTSCALE
 40
1.0
  9
$MIRRTEXT
 70
0
  9
$INSBASE
 10
0.0
 20
0.0
 30
0.0
  9
$SPLINESEGS
 70
8
  9
$PSLTSCALE
 70
1
  9
$PDMODE
 70
0
  9
$PDSIZE
 40
0.0
  9
$PLINEGEN
 70
0
  9
$TEXTSIZE
 40
0.2
  9
$TEXTSTYLE
  7
Standard
  9
$TDINDWG
 40
0.0
  9
$TDUCREATE
 40
2451545.0416666665114462
  9
$TDUUPDATE
 40
2451545.0416666665114462
  9
$TDUPDATE
 40
2451545.0416666665114462
  9
$ACADVER
  1
AC1018
  0
ENDSEC
  0
SECTION
  2
CLASSES
  0
CLASS
  1
ACDBDICTIONARYWDFLT
  2
AcDbDictionaryWithDefault
  3
ObjectDBX Classes
 90
32768
 91
0
280
0
281
0
  0
CLASS
  1
ACDBPLACEHOLDER
  2
AcDbPlaceHolder
  3
ObjectDBX Classes
 90
0
 91
0
280
0
281
0
  0
CLASS
  1
LAYOUT
  2
AcDbLayout
  3
ObjectDBX Classes
 90
0
 91
0
280
0
281
0
  0
CLASS
  1
DICTIONARYVAR
  2
AcDbDictionaryVar
  3
ObjectDBX Classes
 90
0
 91
0
280
0
281
0
  0
CLASS
  1
TABLESTYLE
  2
AcDbTableStyle
  3
ObjectDBX Classes
 90
4095
 91
0
280
0
281
0
  0
CLASS
  1
MATERIAL
  2
AcDbMaterial
  3
ObjectDBX Classes
 90
1153
 91
0
280
0
281
0
  0
CLASS
  1
VISUALSTYLE
  2
AcDbVisualStyle
  3
ObjectDBX Classes
 90
4095
 91
0
280
0
281
0
  0
CLASS
  1
SCALE
  2
AcDbScale
  3
ObjectDBX Classes
 90
1153
 91
0
280
0
281
0
  0
CLASS
  1
MLEADERSTYLE
  2
AcDbMLeaderStyle
  3
ObjectDBX Classes
 90
4095
 91
0
280
0
281
0
  0
CLASS
  1
CELLSTYLEMAP
  2
AcDbCellStyleMap
  3
ObjectDBX Classes
 90
1152
 91
0
280
0
281
0
  0
CLASS
  1
EXACXREFPANELOBJECT
  2
ExAcXREFPanelObject
  3
ObjectDBX Classes
 90
1025
 91
0
280
0
281
0
  0
CLASS
  1
NPOCOLLECTION
  2
AcDbImpNonPersistentObjectsCollection
  3
ObjectDBX Classes
 90
1153
 91
0
280
0
281
0
  0
CLASS
  1
LAYER_INDEX
  2
AcDbLayerIndex
  3
ObjectDBX Classes
 90
0
 91
0
280
0
281
0
  0
CLASS
  1
SPATIAL_INDEX
  2
AcDbSpatialIndex
  3
ObjectDBX Classes
 90
0
 91
0
280
0
281
0
  0
CLASS
  1
IDBUFFER
  2
AcDbIdBuffer
  3
ObjectDBX Classes
 90
32768
 91
0
280
0
281
0
  0
CLASS
  1
ACDBSECTIONVIEWSTYLE
  2
AcDbSectionViewStyle
  3
ObjectDBX Classes
 90
1025
 91
0
280
0
281
0
  0
CLASS
  1
ACDBDETAILVIEWSTYLE
  2
AcDbDetailViewStyle
  3
ObjectDBX Classes
 90
1025
 91
0
280
0
281
0
  0
CLASS
  1
MESH
  2
AcDbSubDMesh
  3
ObjectDBX Classes
 90
0
 91
0
280
0
281
1
  0
CLASS
  1
SORTENTSTABLE
  2
AcDbSortentsTable
  3
ObjectDBX Classes
 90
0
 91
0
280
0
281
0
  0
CLASS
  1
ACDB_TEXTOBJECTCONTEXTDATA_CLASS
  2
AcDbTextObjectContextData
  3
ObjectDBX Classes
 90
1153
 91
0
280
0
281
0
  0
CLASS
  1
WIPEOUT
  2
AcDbWipeout
  3
WipeOut
 90
32895
 91
0
280
0
281
1
  0
CLASS
  1
WIPEOUTVARIABLES
  2
AcDbWipeoutVariables
  3
WipeOut
 90
32768
 91
0
280
0
281
0
  0
CLASS
  1
DIMASSOC
  2
AcDbDimAssoc
  3
AcDbDimAssoc
 90
0
 91
0
280
0
281
0
  0
CLASS
  1
ACAD_TABLE
  2
AcDbTable
  3
ObjectDBX Classes
 90
1025
 91
0
280
0
281
1
  0
CLASS
  1
TABLECONTENT
  2
AcDbTableContent
  3
ObjectDBX Classes
 90
1152
 91
0
280
0
281
0
  0
CLASS
  1
TABLEGEOMETRY
  2
AcDbTableGeometry
  3
ObjectDBX Classes
 90
1152
 91
0
280
0
281
0
  0
CLASS
  1
IMAGE
  2
AcDbRasterImage
  3
ISM
 90
32895
 91
0
280
0
281
1
  0
CLASS
  1
IMAGEDEF
  2
AcDbRasterImageDef
  3
ISM
 90
0
 91
0
280
0
281
0
  0
CLASS
  1
IMAGEDEF_REACTOR
  2
AcDbRasterImageDefReactor
  3
ISM
 90
1
 91
0
280
0
281
0
  0
CLASS
  1
DBCOLOR
  2
AcDbColor
  3
ObjectDBX Classes
 90
0
 91
0
280
0
281
0
  0
CLASS
  1
GEODATA
  2
AcDbGeoData
  3
ObjectDBX Classes
 90
4095
 91
0
280
0
281
0
  0
CLASS
  1
MULTILEADER
  2
AcDbMLeader
  3
ObjectDBX Classes
 90
1025
 91
0
280
0
281
0
  0
CLASS
  1
PDFUNDERLAY
  2
AcDbPdfReference
  3
ObjectDBX Classes
 90
4095
 91
0
280
0
281
1
  0
CLASS
  1
PDFDEFINITION
  2
AcDbPdfDefinition
  3
ObjectDBX Classes
 90
1153
 91
0
280
0
281
0
  0
CLASS
  1
RASTERVARIABLES
  2
AcDbRasterVariables
  3
ISM
 90
0
 91
0
280
0
281
0
  0
CLASS
  1
SPATIAL_FILTER
  2
AcDbSpatialFilter
  3
ObjectDBX Classes
 90
0
 91
0
280
0
281
0
  0
CLASS
  1
ACDB_MLEADEROBJECTCONTEXTDATA_CLASS
  2
AcDbMLeaderObjectContextData
  3
ObjectDBX Classes
 90
1025
 91
0
280
0
281
0
  0
CLASS
  1
PLOTSETTINGS
  2
AcDbPlotSettings
  3
ObjectDBX Classes
 90
0
 91
0
280
0
281
0
  0
CLASS
  1
FIELD
  2
AcDbField
  3
ObjectDBX Classes
 90
1152
 91
0
280
0
281
0
  0
CLASS
  1
FIELDLIST
  2
AcDbFieldList
  3
ObjectDBX Classes
 90
1152
 91
0
280
0
281
0
  0
CLASS
  1
ACDB_MTEXTATTRIBUTEOBJECTCONTEXTDATA_CLASS
  2
AcDbMTextAttributeObjectContextData
  3
ObjectDBX Classes
 90
1153
 91
0
280
0
281
0
  0
CLASS
  1
ACDB_BLKREFOBJECTCONTEXTDATA_CLASS
  2
AcDbBlkRefObjectContextData
  3
ObjectDBX Classes
 90
1153
 91
0
280
0
281
0
  0
ENDSEC
  0
SECTION
  2
TABLES
  0
TABLE
  2
VPORT
  5
18
330
0
100
AcDbSymbolTable
 70
1
  0
VPORT
  5
26
330
18
100
AcDbSymbolTableRecord
100
AcDbViewportTableRecord
  2
*Active
 70
0
 10
0.0
 20
0.0
 11
1.0
 21
1.0
 12
0.0
 22
0.0
 13
0.0
 23
0.0
 14
0.5
 24
0.5
 15
10.0
 25
10.0
 16
0.0
 26
0.0
 36
1.0
 17
0.0
 27
0.0
 37
0.0
 40
10.0
 41
1.0
 75
0
 76
1
  0
ENDTAB
  0
TABLE
  2
LTYPE
  5
14
330
0
100
AcDbSymbolTable
 70
3
  0
LTYPE
  5
19
330
14
100
AcDbSymbolTableRecord
100
AcDbLinetypeTableRecord
  2
ByLayer
 70
0
 72
0
 73
0
 40
0.0
  0
LTYPE
  5
1A
330
14
100
AcDbSymbolTableRecord
100
AcDbLinetypeTableRecord
  2
ByBlock
 70
0
 72
0
 73
0
 40
0.0
  0
LTYPE
  5
1B
330
14
100
AcDbSymbolTableRecord
100
AcDbLinetypeTableRecord
  2
Continuous
 70
0
 72
0
 73
0
 40
0.0
  0
ENDTAB
  0
TABLE
  2
LAYER
  5
13
330
0
100
AcDbSymbolTable
 70
1
  0
LAYER
  5
1C
330
13
100
AcDbSymbolTableRecord
100
AcDbLayerTableRecord
  2
0
 70
0
 62
7
  6
Continuous
290
1
370
-3
390
0
  0
ENDTAB
  0
TABLE
  2
STYLE
  5
15
330
0
100
AcDbSymbolTable
 70
1
  0
STYLE
  5
23
330
15
100
AcDbSymbolTableRecord
100
AcDbTextStyleTableRecord
  2
Standard
 70
0
 40
0.0
 41
1.0
 42
0.0
 50
0.0
 71
0
  0
ENDTAB
  0
TABLE
  2
VIEW
  5
17
330
0
100
AcDbSymbolTable
 70
0
  0
ENDTAB
  0
TABLE
  2
UCS
  5
16
330
0
100
AcDbSymbolTable
 70
0
  0
ENDTAB
  0
TABLE
  2
APPID
  5
10
330
0
100
AcDbSymbolTable
 70
1
  0
APPID
  5
25
330
10
100
AcDbSymbolTableRecord
100
AcDbRegAppTableRecord
  2
ACAD
 70
0
  0
ENDTAB
  0
TABLE
  2
DIMSTYLE
  5
12
330
0
100
AcDbSymbolTable
 70
1
100
AcDbDimStyleTable
  0
DIMSTYLE
105
24
330
12
100
AcDbSymbolTableRecord
100
AcDbDimStyleTableRecord
  2
Standard
 70
0
  3
<>
  4
[]
 40
1.0
 41
0.18
 42
0.625
 43
3.75
 44
1.25
 45
0.0
 46
0.0
 47
0.0
 48
0.0
 49
1.0
 50
45.0
 70
0
 90
0
140
0.18
141
0.09
142
0.0
143
25.3999999999999986
144
1.0
145
0.0
146
1.0
147
0.625
148
0.0
 71
0
 72
0
 73
0
 74
0
 75
0
 76
0
 77
1
 78
8
 79
0
170
0
171
3
172
0
173
1
174
0
175
0
176
0
177
0
178
0
179
0
271
2
272
2
273
2
274
3
275
0
276
0
277
2
278
46
279
0
280
0
281
0
282
0
283
0
284
8
285
0
286
0
287
0
288
0
289
3
290
0
340
0
371
-2
372
-2
  0
ENDTAB
  0
TABLE
  2
BLOCK_RECORD
  5
11
330
0
100
AcDbSymbolTable
 70
2
  0
BLOCK_RECORD
  5
1D
330
11
100
AcDbSymbolTableRecord
100
AcDbBlockTableRecord
  2
*Model_Space
 70
0
340
0
 70
0
280
0
281
1
  0
BLOCK_RECORD
  5
20
330
11
100
AcDbSymbolTableRecord
100
AcDbBlockTableRecord
  2
*Paper_Space
 70
0
340
0
 70
0
280
0
281
1
  0
ENDTAB
  0
ENDSEC
  0
SECTION
  2
BLOCKS
  0
BLOCK
  5
1E
330
1D
100
AcDbEntity
  8
0
  6
ByLayer
 62
256
 48
1.0
 60
0
 67
0
370
-1
100
AcDbBlockBegin
  2
*Model_Space
 70
0
 10
0.0
 20
0.0
 30
0.0
  3
*Model_Space
  0
ENDBLK
  5
1F
330
1D
100
AcDbEntity
  8
0
100
AcDbBlockEnd
  0
BLOCK
  5
21
330
20
100
AcDbEntity
  8
0
  6
ByLayer
 62
256
 48
1.0
 60
0
 67
1
370
-1
100
AcDbBlockBegin
  2
*Paper_Space
 70
0
 10
0.0
 20
0.0
 30
0.0
  3
*Paper_Space
  0
ENDBLK
  5
22
330
20
100
AcDbEntity
  8
0
100
AcDbBlockEnd
  0
ENDSEC
  0
SECTION
  2
ENTITIES
  0
TEXT
  5
27
330
1D
100
AcDbEntity
  8
0
  6
ByLayer
420
16317180
 48
1.0
 60
0
 67
0
370
-1
100
AcDbText
 39
0.0
 10
28.0
 20
618.5
 30
0.0
 40
24.0
  1
Line Clamp Values
 50
0.0
 41
1.0
 51
0.0
  7
Standard
 71
0
 72
0
 11
0.0
 21
0.0
 31
0.0
210
0.0
220
0.0
230
1.0
100
AcDbText
 73
0
  0
TEXT
  5
28
330
1D
100
AcDbEntity
  8
0
  6
ByLayer
420
14870768
 48
1.0
 60
0
 67
0
370
-1
100
AcDbText
 39
0.0
 10
28.0
 20
585.5
 30
0.0
 40
16.0
  1
These cards cover the legacy `-webkit-line-clamp` flow, the modern unprefixed `line-clamp` property, the `no-ellipsis` modifier, and
 50
0.0
 41
1.0
 51
0.0
  7
Standard
 71
0
 72
0
 11
0.0
 21
0.0
 31
0.0
210
0.0
220
0.0
230
1.0
100
AcDbText
 73
0
  0
TEXT
  5
29
330
1D
100
AcDbEntity
  8
0
  6
ByLayer
420
14870768
 48
1.0
 60
0
 67
0
370
-1
100
AcDbText
 39
0.0
 10
28.0
 20
559.90625
 30
0.0
 40
16.0
  1
an unclamped control. Browsers that do not support the modern values will simply render those cards without truncation.
 50
0.0
 41
1.0
 51
0.0
  7
Standard
 71
0
 72
0
 11
0.0
 21
0.0
 31
0.0
210
0.0
220
0.0
230
1.0
100
AcDbText
 73
0
  0
HATCH
  5
2A
330
1D
100
AcDbEntity
  8
0
  6
ByLayer
420
988970
 48
1.0
 60
0
 67
0
370
-1
100
AcDbHatch
 30
0.0
210
0.0
220
0.0
230
1.0
  2
SOLID
 70
1
 71
0
 91
1
 92
2
 72
0
 73
1
 93
41
 10
46.0
 20
529.0
 10
303.0
 20
529.0
 10
303.0
 20
529.0
 10
306.5116257962903319
 20
528.6541350472581371
 10
309.8883017825716024
 20
527.6298315852031919
 10
313.0002641943528374
 20
525.9664530214457727
 10
315.7279220613578445
 20
523.7279220613578445
 10
317.9664530214458296
 20
521.0002641943528943
 10
319.6298315852031351
 20
517.8883017825716024
 10
320.6541350472581371
 20
514.5116257962903319
 10
321.0
 20
511.0
 10
321.0
 20
306.0
 10
321.0
 20
306.0
 10
320.6541350472581371
 20
302.4883742037096681
 10
319.6298315852031351
 20
299.1116982174283976
 10
317.9664530214458296
 20
295.9997358056471626
 10
315.7279220613578445
 20
293.2720779386421555
 10
313.0002641943528374
 20
291.0335469785541704
 10
309.8883017825716024
 20
289.3701684147968649
 10
306.5116257962903319
 20
288.3458649527418629
 10
303.0
 20
288.0
 10
46.0
 20
288.0
 10
46.0
 20
288.0
 10
42.4883742037096894
 20
288.3458649527418629
 10
39.1116982174283834
 20
289.3701684147968649
 10
35.9997358056471626
 20
291.0335469785541704
 10
33.2720779386421412
 20
293.2720779386421555
 10
31.0335469785541846
 20
295.9997358056471626
 10
29.37016841479684
 20
299.1116982174283976
 10
28.3458649527418522
 20
302.4883742037096681
 10
28.0
 20
306.0
 10
28.0
 20
511.0
 10
28.0
 20
511.0
 10
28.3458649527418522
 20
514.5116257962903319
 10
29.3701684147968365
 20
517.8883017825716024
 10
31.0335469785541811
 20
521.0002641943528943
 10
33.2720779386421412
 20
523.7279220613578445
 10
35.9997358056471626
 20
525.9664530214457727
 10
39.1116982174283763
 20
527.6298315852031919
 10
42.4883742037096823
 20
528.6541350472581371
 10
46.0
 20
529.0
 97
0
 75
0
 76
1
 47
0.0
 98
0
  0
LWPOLYLINE
  5
2B
330
1D
100
AcDbEntity
  8
0
  6
ByLayer
420
9741240
 48
1.0
 60
0
 67
0
370
-1
100
AcDbPolyline
 90
41
 70
1
 43
0.0
 38
0.0
 39
0.0
210
0.0
220
0.0
230
1.0
 10
46.0
 20
529.0
 40
0.0
 41
0.0
 42
0.0
 10
303.0
 20
529.0
 40
0.0
 41
0.0
 42
0.0
 10
303.0
 20
529.0
 40
0.0
 41
0.0
 42
0.0
 10
306.5116257962903319
 20
528.6541350472581371
 40
0.0
 41
0.0
 42
0.0
 10
309.8883017825716024
 20
527.6298315852031919
 40
0.0
 41
0.0
 42
0.0
 10
313.0002641943528374
 20
525.9664530214457727
 40
0.0
 41
0.0
 42
0.0
 10
315.7279220613578445
 20
523.7279220613578445
 40
0.0
 41
0.0
 42
0.0
 10
317.9664530214458296
 20
521.0002641943528943
 40
0.0
 41
0.0
 42
0.0
 10
319.6298315852031351
 20
517.8883017825716024
 40
0.0
 41
0.0
 42
0.0
 10
320.6541350472581371
 20
514.5116257962903319
 40
0.0
 41
0.0
 42
0.0
 10
321.0
 20
511.0
 40
0.0
 41
0.0
 42
0.0
 10
321.0
 20
306.0
 40
0.0
 41
0.0
 42
0.0
 10
321.0
 20
306.0
 40
0.0
 41
0.0
 42
0.0
 10
320.6541350472581371
 20
302.4883742037096681
 40
0.0
 41
0.0
 42
0.0
 10
319.6298315852031351
 20
299.1116982174283976
 40
0.0
 41
0.0
 42
0.0
 10
317.9664530214458296
 20
295.9997358056471626
 40
0.0
 41
0.0
 42
0.0
 10
315.7279220613578445
 20
293.2720779386421555
 40
0.0
 41
0.0
 42
0.0
 10
313.0002641943528374
 20
291.0335469785541704
 40
0.0
 41
0.0
 42
0.0
 10
309.8883017825716024
 20
289.3701684147968649
 40
0.0
 41
0.0
 42
0.0
 10
306.5116257962903319
 20
288.3458649527418629
 40
0.0
 41
0.0
 42
0.0
 10
303.0
 20
288.0
 40
0.0
 41
0.0
 42
0.0
 10
46.0
 20
288.0
 40
0.0
 41
0.0
 42
0.0
 10
46.0
 20
288.0
 40
0.0
 41
0.0
 42
0.0
 10
42.4883742037096894
 20
288.3458649527418629
 40
0.0
 41
0.0
 42
0.0
 10
39.1116982174283834
 20
289.3701684147968649
 40
0.0
 41
0.0
 42
0.0
 10
35.9997358056471626
 20
291.0335469785541704
 40
0.0
 41
0.0
 42
0.0
 10
33.2720779386421412
 20
293.2720779386421555
 40
0.0
 41
0.0
 42
0.0
 10
31.0335469785541846
 20
295.9997358056471626
 40
0.0
 41
0.0
 42
0.0
 10
29.37016841479684
 20
299.1116982174283976
 40
0.0
 41
0.0
 42
0.0
 10
28.3458649527418522
 20
302.4883742037096681
 40
0.0
 41
0.0
 42
0.0
 10
28.0
 20
306.0
 40
0.0
 41
0.0
 42
0.0
 10
28.0
 20
511.0
 40
0.0
 41
0.0
 42
0.0
 10
28.0
 20
511.0
 40
0.0
 41
0.0
 42
0.0
 10
28.3458649527418522
 20
514.5116257962903319
 40
0.0
 41
0.0
 42
0.0
 10
29.3701684147968365
 20
517.8883017825716024
 40
0.0
 41
0.0
 42
0.0
 10
31.0335469785541811
 20
521.0002641943528943
 40
0.0
 41
0.0
 42
0.0
 10
33.2720779386421412
 20
523.7279220613578445
 40
0.0
 41
0.0
 42
0.0
 10
35.9997358056471626
 20
525.9664530214457727
 40
0.0
 41
0.0
 42
0.0
 10
39.1116982174283763
 20
527.6298315852031919
 40
0.0
 41
0.0
 42
0.0
 10
42.4883742037096823
 20
528.6541350472581371
 40
0.0
 41
0.0
 42
0.0
 10
46.0
 20
529.0
 40
0.0
 41
0.0
 42
0.0
  0
TEXT
  5
2C
330
1D
100
AcDbEntity
  8
0
  6
ByLayer
420
9684477
 48
1.0
 60
0
 67
0
370
-1
100
AcDbText
 39
0.0
 10
47.0
 20
499.0625
 30
0.0
 40
13.0
  1
LEGACY ONE-LINE CLAMP
 50
0.0
 41
1.0
 51
0.0
  7
Standard
 71
0
 72
0
 11
0.0
 21
0.0
 31
0.0
210
0.0
220
0.0
230
1.0
100
AcDbText
 73
0
  0
TEXT
  5
2D
330
1D
100
AcDbEntity
  8
0
  6
ByLayer
420
14870768
 48
1.0
 60
0
 67
0
370
-1
100
AcDbText
 39
0.0
 10
47.0
 20
467.3125
 30
0.0
 40
16.0
  1
A single-line clamp should still
 50
0.0
 41
1.0
 51
0.0
  7
Standard
 71
0
 72
0
 11
0.0
 21
0.0
 31
0.0
210
0.0
220
0.0
230
1.0
100
AcDbText
 73
0
  0
TEXT
  5
2E
330
1D
100
AcDbEntity
  8
0
  6
ByLayer
420
14870768
 48
1.0
 60
0
 67
0
370
-1
100
AcDbText
 39
0.0
 10
47.0
 20
442.515625
 30
0.0
 40
16.0
  1
append an ellipsis when the copy
 50
0.0
 41
1.0
 51
0.0
  7
Standard
 71
0
 72
0
 11
0.0
 21
0.0
 31
0.0
210
0.0
220
0.0
230
1.0
100
AcDbText
 73
0
  0
TEXT
  5
2F
330
1D
100
AcDbEntity
  8
0
  6
ByLayer
420
14870768
 48
1.0
 60
0
 67
0
370
-1
100
AcDbText
 39
0.0
 10
47.0
 20
417.71875
 30
0.0
 40
16.0
  1
runs far beyond the width of the
 50
0.0
 41
1.0
 51
0.0
  7
Standard
 71
0
 72
0
 11
0.0
 21
0.0
 31
0.0
210
0.0
220
0.0
230
1.0
100
AcDbText
 73
0
  0
TEXT
  5
30
330
1D
100
AcDbEntity
  8
0
  6
ByLayer
420
14870768
 48
1.0
 60
0
 67
0
370
-1
100
AcDbText
 39
0.0
 10
47.0
 20
392.921875
 30
0.0
 40
16.0
  1
card and the browser clips the extra
 50
0.0
 41
1.0
 51
0.0
  7
Standard
 71
0
 72
0
 11
0.0
 21
0.0
 31
0.0
210
0.0
220
0.0
230
1.0
100
AcDbText
 73
0
  0
TEXT
  5
31
330
1D
100
AcDbEntity
  8
0
  6
ByLayer
420
14870768
 48
1.0
 60
0
 67
0
370
-1
100
AcDbText
 39
0.0
 10
47.0
 20
368.125
 30
0.0
 40
16.0
  1
content.
 50
0.0
 41
1.0
 51
0.0
  7
Standard
 71
0
 72
0
 11
0.0
 21
0.0
 31
0.0
210
0.0
220
0.0
230
1.0
100
AcDbText
 73
0
  0
TEXT
  5
32
330
1D
100
AcDbEntity
  8
0
  6
ByLayer
420
12573694
 48
1.0
 60
0
 67
0
370
-1
100
AcDbText
 39
0.0
 10
47.0
 20
437.015625
 30
0.0
 40
12.0
  1
display:-webkit-box
 50
0.0
 41
1.0
 51
0.0
  7
Standard
 71
0
 72
0
 11
0.0
 21
0.0
 31
0.0
210
0.0
220
0.0
230
1.0
100
AcDbText
 73
0
  0
TEXT
  5
33
330
1D
100
AcDbEntity
  8
0
  6
ByLayer
420
12573694
 48
1.0
 60
0
 67
0
370
-1
100
AcDbText
 39
0.0
 10
47.0
 20
419.625
 30
0.0
 40
12.0
  1
-webkit-line-clamp: 1
 50
0.0
 41
1.0
 51
0.0
  7
Standard
 71
0
 72
0
 11
0.0
 21
0.0
 31
0.0
210
0.0
220
0.0
230
1.0
100
AcDbText
 73
0
  0
HATCH
  5
34
330
1D
100
AcDbEntity
  8
0
  6
ByLayer
420
988970
 48
1.0
 60
0
 67
0
370
-1
100
AcDbHatch
 30
0.0
210
0.0
220
0.0
230
1.0
  2
SOLID
 70
1
 71
0
 91
1
 92
2
 72
0
 73
1
 93
41
 10
357.0
 20
529.0
 10
614.0
 20
529.0
 10
614.0
 20
529.0
 10
617.5116257962903319
 20
528.6541350472581371
 10
620.8883017825716024
 20
527.6298315852031919
 10
624.0002641943528943
 20
525.9664530214457727
 10
626.7279220613578445
 20
523.7279220613578445
 10
628.9664530214457727
 20
521.0002641943528943
 10
630.6298315852031919
 20
517.8883017825716024
 10
631.6541350472581371
 20
514.5116257962903319
 10
632.0
 20
511.0
 10
632.0
 20
306.0
 10
632.0
 20
306.0
 10
631.6541350472581371
 20
302.4883742037096681
 10
630.6298315852031919
 20
299.1116982174283976
 10
628.9664530214457727
 20
295.9997358056471626
 10
626.7279220613578445
 20
293.2720779386421555
 10
624.0002641943528943
 20
291.0335469785541704
 10
620.8883017825716024
 20
289.3701684147968649
 10
617.5116257962903319
 20
288.3458649527418629
 10
614.0
 20
288.0
 10
357.0
 20
288.0
 10
357.0
 20
288.0
 10
353.4883742037096681
 20
288.3458649527418629
 10
350.1116982174283976
 20
289.3701684147968649
 10
346.9997358056471626
 20
291.0335469785541704
 10
344.2720779386421555
 20
293.2720779386421555
 10
342.0335469785541704
 20
295.9997358056471626
 10
340.3701684147968649
 20
299.1116982174283976
 10
339.3458649527418629
 20
302.4883742037096681
 10
339.0
 20
306.0
 10
339.0
 20
511.0
 10
339.0
 20
511.0
 10
339.3458649527418629
 20
514.5116257962903319
 10
340.3701684147968081
 20
517.8883017825716024
 10
342.0335469785541704
 20
521.0002641943528943
 10
344.2720779386421555
 20
523.7279220613578445
 10
346.9997358056471626
 20
525.9664530214457727
 10
350.1116982174283976
 20
527.6298315852031919
 10
353.4883742037096681
 20
528.6541350472581371
 10
357.0
 20
529.0
 97
0
 75
0
 76
1
 47
0.0
 98
0
  0
LWPOLYLINE
  5
35
330
1D
100
AcDbEntity
  8
0
  6
ByLayer
420
9741240
 48
1.0
 60
0
 67
0
370
-1
100
AcDbPolyline
 90
41
 70
1
 43
0.0
 38
0.0
 39
0.0
210
0.0
220
0.0
230
1.0
 10
357.0
 20
529.0
 40
0.0
 41
0.0
 42
0.0
 10
614.0
 20
529.0
 40
0.0
 41
0.0
 42
0.0
 10
614.0
 20
529.0
 40
0.0
 41
0.0
 42
0.0
 10
617.5116257962903319
 20
528.6541350472581371
 40
0.0
 41
0.0
 42
0.0
 10
620.8883017825716024
 20
527.6298315852031919
 40
0.0
 41
0.0
 42
0.0
 10
624.0002641943528943
 20
525.9664530214457727
 40
0.0
 41
0.0
 42
0.0
 10
626.7279220613578445
 20
523.7279220613578445
 40
0.0
 41
0.0
 42
0.0
 10
628.9664530214457727
 20
521.0002641943528943
 40
0.0
 41
0.0
 42
0.0
 10
630.6298315852031919
 20
517.8883017825716024
 40
0.0
 41
0.0
 42
0.0
 10
631.6541350472581371
 20
514.5116257962903319
 40
0.0
 41
0.0
 42
0.0
 10
632.0
 20
511.0
 40
0.0
 41
0.0
 42
0.0
 10
632.0
 20
306.0
 40
0.0
 41
0.0
 42
0.0
 10
632.0
 20
306.0
 40
0.0
 41
0.0
 42
0.0
 10
631.6541350472581371
 20
302.4883742037096681
 40
0.0
 41
0.0
 42
0.0
 10
630.6298315852031919
 20
299.1116982174283976
 40
0.0
 41
0.0
 42
0.0
 10
628.9664530214457727
 20
295.9997358056471626
 40
0.0
 41
0.0
 42
0.0
 10
626.7279220613578445
 20
293.2720779386421555
 40
0.0
 41
0.0
 42
0.0
 10
624.0002641943528943
 20
291.0335469785541704
 40
0.0
 41
0.0
 42
0.0
 10
620.8883017825716024
 20
289.3701684147968649
 40
0.0
 41
0.0
 42
0.0
 10
617.5116257962903319
 20
288.3458649527418629
 40
0.0
 41
0.0
 42
0.0
 10
614.0
 20
288.0
 40
0.0
 41
0.0
 42
0.0
 10
357.0
 20
288.0
 40
0.0
 41
0.0
 42
0.0
 10
357.0
 20
288.0
 40
0.0
 41
0.0
 42
0.0
 10
353.4883742037096681
 20
288.3458649527418629
 40
0.0
 41
0.0
 42
0.0
 10
350.1116982174283976
 20
289.3701684147968649
 40
0.0
 41
0.0
 42
0.0
 10
346.9997358056471626
 20
291.0335469785541704
 40
0.0
 41
0.0
 42
0.0
 10
344.2720779386421555
 20
293.2720779386421555
 40
0.0
 41
0.0
 42
0.0
 10
342.0335469785541704
 20
295.9997358056471626
 40
0.0
 41
0.0
 42
0.0
 10
340.3701684147968649
 20
299.1116982174283976
 40
0.0
 41
0.0
 42
0.0
 10
339.3458649527418629
 20
302.4883742037096681
 40
0.0
 41
0.0
 42
0.0
 10
339.0
 20
306.0
 40
0.0
 41
0.0
 42
0.0
 10
339.0
 20
511.0
 40
0.0
 41
0.0
 42
0.0
 10
339.0
 20
511.0
 40
0.0
 41
0.0
 42
0.0
 10
339.3458649527418629
 20
514.5116257962903319
 40
0.0
 41
0.0
 42
0.0
 10
340.3701684147968081
 20
517.8883017825716024
 40
0.0
 41
0.0
 42
0.0
 10
342.0335469785541704
 20
521.0002641943528943
 40
0.0
 41
0.0
 42
0.0
 10
344.2720779386421555
 20
523.7279220613578445
 40
0.0
 41
0.0
 42
0.0
 10
346.9997358056471626
 20
525.9664530214457727
 40
0.0
 41
0.0
 42
0.0
 10
350.1116982174283976
 20
527.6298315852031919
 40
0.0
 41
0.0
 42
0.0
 10
353.4883742037096681
 20
528.6541350472581371
 40
0.0
 41
0.0
 42
0.0
 10
357.0
 20
529.0
 40
0.0
 41
0.0
 42
0.0
  0
TEXT
  5
36
330
1D
100
AcDbEntity
  8
0
  6
ByLayer
420
9684477
 48
1.0
 60
0
 67
0
370
-1
100
AcDbText
 39
0.0
 10
357.5
 20
499.0625
 30
0.0
 40
13.0
  1
LEGACY TWO-LINE CLAMP
 50
0.0
 41
1.0
 51
0.0
  7
Standard
 71
0
 72
0
 11
0.0
 21
0.0
 31
0.0
210
0.0
220
0.0
230
1.0
100
AcDbText
 73
0
  0
TEXT
  5
37
330
1D
100
AcDbEntity
  8
0
  6
ByLayer
420
14870768
 48
1.0
 60
0
 67
0
370
-1
100
AcDbText
 39
0.0
 10
357.5
 20
467.3125
 30
0.0
 40
16.0
  1
This two-line example mirrors the
 50
0.0
 41
1.0
 51
0.0
  7
Standard
 71
0
 72
0
 11
0.0
 21
0.0
 31
0.0
210
0.0
220
0.0
230
1.0
100
AcDbText
 73
0
  0
TEXT
  5
38
330
1D
100
AcDbEntity
  8
0
  6
ByLayer
420
14870768
 48
1.0
 60
0
 67
0
370
-1
100
AcDbText
 39
0.0
 10
357.5
 20
442.515625
 30
0.0
 40
16.0
  1
pattern used by feed cards, searģ
 50
0.0
 41
1.0
 51
0.0
  7
Standard
 71
0
 72
0
 11
0.0
 21
0.0
 31
0.0
210
0.0
220
0.0
230
1.0
100
AcDbText
 73
0
  0
TEXT
  5
39
330
1D
100
AcDbEntity
  8
0
  6
ByLayer
420
12573694
 48
1.0
 60
0
 67
0
370
-1
100
AcDbText
 39
0.0
 10
357.5
 20
412.21875
 30
0.0
 40
12.0
  1
-webkit-line-clamp: 2
 50
0.0
 41
1.0
 51
0.0
  7
Standard
 71
0
 72
0
 11
0.0
 21
0.0
 31
0.0
210
0.0
220
0.0
230
1.0
100
AcDbText
 73
0
  0
TEXT
  5
3A
330
1D
100
AcDbEntity
  8
0
  6
ByLayer
420
12573694
 48
1.0
 60
0
 67
0
370
-1
100
AcDbText
 39
0.0
 10
357.5
 20
394.828125
 30
0.0
 40
12.0
  1
No explicit 
 50
0.0
 41
1.0
 51
0.0
  7
Standard
 71
0
 72
0
 11
0.0
 21
0.0
 31
0.0
210
0.0
220
0.0
230
1.0
100
AcDbText
 73
0
  0
TEXT
  5
3B
330
1D
100
AcDbEntity
  8
0
  6
ByLayer
420
12573694
 48
1.0
 60
0
 67
0
370
-1
100
AcDbText
 39
0.0
 10
416.1875
 20
394.828125
 30
0.0
 40
12.0
  1
text-overflow
 50
0.0
 41
1.0
 51
0.0
  7
Standard
 71
0
 72
0
 11
0.0
 21
0.0
 31
0.0
210
0.0
220
0.0
230
1.0
100
AcDbText
 73
0
  0
TEXT
  5
3C
330
1D
100
AcDbEntity
  8
0
  6
ByLayer
420
12573694
 48
1.0
 60
0
 67
0
370
-1
100
AcDbText
 39
0.0
 10
501.96875
 20
394.828125
 30
0.0
 40
12.0
  1
 declaration.
 50
0.0
 41
1.0
 51
0.0
  7
Standard
 71
0
 72
0
 11
0.0
 21
0.0
 31
0.0
210
0.0
220
0.0
230
1.0
100
AcDbText
 73
0
  0
HATCH
  5
3D
330
1D
100
AcDbEntity
  8
0
  6
ByLayer
420
988970
 48
1.0
 60
0
 67
0
370
-1
100
AcDbHatch
 30
0.0
210
0.0
220
0.0
230
1.0
  2
SOLID
 70
1
 71
0
 91
1
 92
2
 72
0
 73
1
 93
41
 10
667.0
 20
529.0
 10
924.0
 20
529.0
 10
924.0
 20
529.0
 10
927.5116257962903319
 20
528.6541350472581371
 10
930.8883017825716024
 20
527.6298315852031919
 10
934.0002641943528943
 20
525.9664530214457727
 10
936.7279220613578445
 20
523.7279220613578445
 10
938.9664530214457727
 20
521.0002641943528943
 10
940.6298315852031919
 20
517.8883017825716024
 10
941.6541350472581371
 20
514.5116257962903319
 10
942.0
 20
511.0
 10
942.0
 20
306.0
 10
942.0
 20
306.0
 10
941.6541350472581371
 20
302.4883742037096681
 10
940.6298315852031919
 20
299.1116982174283976
 10
938.9664530214457727
 20
295.9997358056471626
 10
936.7279220613578445
 20
293.2720779386421555
 10
934.0002641943528943
 20
291.0335469785541704
 10
930.8883017825716024
 20
289.3701684147968649
 10
927.5116257962903319
 20
288.3458649527418629
 10
924.0
 20
288.0
 10
667.0
 20
288.0
 10
667.0
 20
288.0
 10
663.4883742037096681
 20
288.3458649527418629
 10
660.1116982174283976
 20
289.3701684147968649
 10
656.9997358056472194
 20
291.0335469785541704
 10
654.2720779386421555
 20
293.2720779386421555
 10
652.0335469785542273
 20
295.9997358056471626
 10
650.3701684147968081
 20
299.1116982174283976
 10
649.3458649527418629
 20
302.4883742037096681
 10
649.0
 20
306.0
 10
649.0
 20
511.0
 10
649.0
 20
511.0
 10
649.3458649527418629
 20
514.5116257962903319
 10
650.3701684147968081
 20
517.8883017825716024
 10
652.0335469785542273
 20
521.0002641943528943
 10
654.2720779386421555
 20
523.7279220613578445
 10
656.9997358056471057
 20
525.9664530214457727
 10
660.1116982174283976
 20
527.6298315852031919
 10
663.4883742037096681
 20
528.6541350472581371
 10
667.0
 20
529.0
 97
0
 75
0
 76
1
 47
0.0
 98
0
  0
LWPOLYLINE
  5
3E
330
1D
100
AcDbEntity
  8
0
  6
ByLayer
420
9741240
 48
1.0
 60
0
 67
0
370
-1
100
AcDbPolyline
 90
41
 70
1
 43
0.0
 38
0.0
 39
0.0
210
0.0
220
0.0
230
1.0
 10
667.0
 20
529.0
 40
0.0
 41
0.0
 42
0.0
 10
924.0
 20
529.0
 40
0.0
 41
0.0
 42
0.0
 10
924.0
 20
529.0
 40
0.0
 41
0.0
 42
0.0
 10
927.5116257962903319
 20
528.6541350472581371
 40
0.0
 41
0.0
 42
0.0
 10
930.8883017825716024
 20
527.6298315852031919
 40
0.0
 41
0.0
 42
0.0
 10
934.0002641943528943
 20
525.9664530214457727
 40
0.0
 41
0.0
 42
0.0
 10
936.7279220613578445
 20
523.7279220613578445
 40
0.0
 41
0.0
 42
0.0
 10
938.9664530214457727
 20
521.0002641943528943
 40
0.0
 41
0.0
 42
0.0
 10
940.6298315852031919
 20
517.8883017825716024
 40
0.0
 41
0.0
 42
0.0
 10
941.6541350472581371
 20
514.5116257962903319
 40
0.0
 41
0.0
 42
0.0
 10
942.0
 20
511.0
 40
0.0
 41
0.0
 42
0.0
 10
942.0
 20
306.0
 40
0.0
 41
0.0
 42
0.0
 10
942.0
 20
306.0
 40
0.0
 41
0.0
 42
0.0
 10
941.6541350472581371
 20
302.4883742037096681
 40
0.0
 41
0.0
 42
0.0
 10
940.6298315852031919
 20
299.1116982174283976
 40
0.0
 41
0.0
 42
0.0
 10
938.9664530214457727
 20
295.9997358056471626
 40
0.0
 41
0.0
 42
0.0
 10
936.7279220613578445
 20
293.2720779386421555
 40
0.0
 41
0.0
 42
0.0
 10
934.0002641943528943
 20
291.0335469785541704
 40
0.0
 41
0.0
 42
0.0
 10
930.8883017825716024
 20
289.3701684147968649
 40
0.0
 41
0.0
 42
0.0
 10
927.5116257962903319
 20
288.3458649527418629
 40
0.0
 41
0.0
 42
0.0
 10
924.0
 20
288.0
 40
0.0
 41
0.0
 42
0.0
 10
667.0
 20
288.0
 40
0.0
 41
0.0
 42
0.0
 10
667.0
 20
288.0
 40
0.0
 41
0.0
 42
0.0
 10
663.4883742037096681
 20
288.3458649527418629
 40
0.0
 41
0.0
 42
0.0
 10
660.1116982174283976
 20
289.3701684147968649
 40
0.0
 41
0.0
 42
0.0
 10
656.9997358056472194
 20
291.0335469785541704
 40
0.0
 41
0.0
 42
0.0
 10
654.2720779386421555
 20
293.2720779386421555
 40
0.0
 41
0.0
 42
0.0
 10
652.0335469785542273
 20
295.9997358056471626
 40
0.0
 41
0.0
 42
0.0
 10
650.3701684147968081
 20
299.1116982174283976
 40
0.0
 41
0.0
 42
0.0
 10
649.3458649527418629
 20
302.4883742037096681
 40
0.0
 41
0.0
 42
0.0
 10
649.0
 20
306.0
 40
0.0
 41
0.0
 42
0.0
 10
649.0
 20
511.0
 40
0.0
 41
0.0
 42
0.0
 10
649.0
 20
511.0
 40
0.0
 41
0.0
 42
0.0
 10
649.3458649527418629
 20
514.5116257962903319
 40
0.0
 41
0.0
 42
0.0
 10
650.3701684147968081
 20
517.8883017825716024
 40
0.0
 41
0.0
 42
0.0
 10
652.0335469785542273
 20
521.0002641943528943
 40
0.0
 41
0.0
 42
0.0
 10
654.2720779386421555
 20
523.7279220613578445
 40
0.0
 41
0.0
 42
0.0
 10
656.9997358056471057
 20
525.9664530214457727
 40
0.0
 41
0.0
 42
0.0
 10
660.1116982174283976
 20
527.6298315852031919
 40
0.0
 41
0.0
 42
0.0
 10
663.4883742037096681
 20
528.6541350472581371
 40
0.0
 41
0.0
 42
0.0
 10
667.0
 20
529.0
 40
0.0
 41
0.0
 42
0.0
  0
TEXT
  5
3F
330
1D
100
AcDbEntity
  8
0
  6
ByLayer
420
9684477
 48
1.0
 60
0
 67
0
370
-1
100
AcDbText
 39
0.0
 10
668.0
 20
499.0625
 30
0.0
 40
13.0
  1
LEGACY THREE-LINE CLAMP
 50
0.0
 41
1.0
 51
0.0
  7
Standard
 71
0
 72
0
 11
0.0
 21
0.0
 31
0.0
210
0.0
220
0.0
230
1.0
100
AcDbText
 73
0
  0
TEXT
  5
40
330
1D
100
AcDbEntity
  8
0
  6
ByLayer
420
14870768
 48
1.0
 60
0
 67
0
370
-1
100
AcDbText
 39
0.0
 10
668.0
 20
467.3125
 30
0.0
 40
16.0
  1
Longer editorial text often wants
 50
0.0
 41
1.0
 51
0.0
  7
Standard
 71
0
 72
0
 11
0.0
 21
0.0
 31
0.0
210
0.0
220
0.0
230
1.0
100
AcDbText
 73
0
  0
TEXT
  5
41
330
1D
100
AcDbEntity
  8
0
  6
ByLayer
420
14870768
 48
1.0
 60
0
 67
0
370
-1
100
AcDbText
 39
0.0
 10
668.0
 20
442.515625
 30
0.0
 40
16.0
  1
one more line of headroom before
 50
0.0
 41
1.0
 51
0.0
  7
Standard
 71
0
 72
0
 11
0.0
 21
0.0
 31
0.0
210
0.0
220
0.0
230
1.0
100
AcDbText
 73
0
  0
TEXT
  5
42
330
1D
100
AcDbEntity
  8
0
  6
ByLayer
420
14870768
 48
1.0
 60
0
 67
0
370
-1
100
AcDbText
 39
0.0
 10
668.0
 20
417.71875
 30
0.0
 40
16.0
  1
the truncation kicks in, especiallyģ
 50
0.0
 41
1.0
 51
0.0
  7
Standard
 71
0
 72
0
 11
0.0
 21
0.0
 31
0.0
210
0.0
220
0.0
230
1.0
100
AcDbText
 73
0
  0
TEXT
  5
43
330
1D
100
AcDbEntity
  8
0
  6
ByLayer
420
12573694
 48
1.0
 60
0
 67
0
370
-1
100
AcDbText
 39
0.0
 10
668.0
 20
387.421875
 30
0.0
 40
12.0
  1
-webkit-line-clamp: 3
 50
0.0
 41
1.0
 51
0.0
  7
Standard
 71
0
 72
0
 11
0.0
 21
0.0
 31
0.0
210
0.0
220
0.0
230
1.0
100
AcDbText
 73
0
  0
HATCH
  5
44
330
1D
100
AcDbEntity
  8
0
  6
ByLayer
420
988970
 48
1.0
 60
0
 67
0
370
-1
100
AcDbHatch
 30
0.0
210
0.0
220
0.0
230
1.0
  2
SOLID
 70
1
 71
0
 91
1
 92
2
 72
0
 73
1
 93
41
 10
978.0
 20
529.0
 10
1235.0
 20
529.0
 10
1235.0
 20
529.0
 10
1238.5116257962902182
 20
528.6541350472581371
 10
1241.8883017825717161
 20
527.6298315852031919
 10
1245.0002641943528943
 20
525.9664530214457727
 10
1247.7279220613579582
 20
523.7279220613578445
 10
1249.9664530214458864
 20
521.0002641943528943
 10
1251.6298315852031919
 20
517.8883017825716024
 10
1252.6541350472582508
 20
514.5116257962903319
 10
1253.0
 20
511.0
 10
1253.0
 20
306.0
 10
1253.0
 20
306.0
 10
1252.6541350472582508
 20
302.4883742037096681
 10
1251.6298315852031919
 20
299.1116982174283976
 10
1249.9664530214458864
 20
295.9997358056471626
 10
1247.7279220613579582
 20
293.2720779386421555
 10
1245.0002641943528943
 20
291.0335469785541704
 10
1241.8883017825717161
 20
289.3701684147968649
 10
1238.5116257962902182
 20
288.3458649527418629
 10
1235.0
 20
288.0
 10
978.0
 20
288.0
 10
978.0
 20
288.0
 10
974.4883742037096681
 20
288.3458649527418629
 10
971.1116982174283976
 20
289.3701684147968649
 10
967.9997358056472194
 20
291.0335469785541704
 10
965.2720779386421555
 20
293.2720779386421555
 10
963.0335469785542273
 20
295.9997358056471626
 10
961.3701684147968081
 20
299.1116982174283976
 10
960.3458649527418629
 20
302.4883742037096681
 10
960.0
 20
306.0
 10
960.0
 20
511.0
 10
960.0
 20
511.0
 10
960.3458649527418629
 20
514.5116257962903319
 10
961.3701684147968081
 20
517.8883017825716024
 10
963.0335469785542273
 20
521.0002641943528943
 10
965.2720779386421555
 20
523.7279220613578445
 10
967.9997358056471057
 20
525.9664530214457727
 10
971.1116982174283976
 20
527.6298315852031919
 10
974.4883742037096681
 20
528.6541350472581371
 10
978.0
 20
529.0
 97
0
 75
0
 76
1
 47
0.0
 98
0
  0
LWPOLYLINE
  5
45
330
1D
100
AcDbEntity
  8
0
  6
ByLayer
420
9741240
 48
1.0
 60
0
 67
0
370
-1
100
AcDbPolyline
 90
41
 70
1
 43
0.0
 38
0.0
 39
0.0
210
0.0
220
0.0
230
1.0
 10
978.0
 20
529.0
 40
0.0
 41
0.0
 42
0.0
 10
1235.0
 20
529.0
 40
0.0
 41
0.0
 42
0.0
 10
1235.0
 20
529.0
 40
0.0
 41
0.0
 42
0.0
 10
1238.5116257962902182
 20
528.6541350472581371
 40
0.0
 41
0.0
 42
0.0
 10
1241.8883017825717161
 20
527.6298315852031919
 40
0.0
 41
0.0
 42
0.0
 10
1245.0002641943528943
 20
525.9664530214457727
 40
0.0
 41
0.0
 42
0.0
 10
1247.7279220613579582
 20
523.7279220613578445
 40
0.0
 41
0.0
 42
0.0
 10
1249.9664530214458864
 20
521.0002641943528943
 40
0.0
 41
0.0
 42
0.0
 10
1251.6298315852031919
 20
517.8883017825716024
 40
0.0
 41
0.0
 42
0.0
 10
1252.6541350472582508
 20
514.5116257962903319
 40
0.0
 41
0.0
 42
0.0
 10
1253.0
 20
511.0
 40
0.0
 41
0.0
 42
0.0
 10
1253.0
 20
306.0
 40
0.0
 41
0.0
 42
0.0
 10
1253.0
 20
306.0
 40
0.0
 41
0.0
 42
0.0
 10
1252.6541350472582508
 20
302.4883742037096681
 40
0.0
 41
0.0
 42
0.0
 10
1251.6298315852031919
 20
299.1116982174283976
 40
0.0
 41
0.0
 42
0.0
 10
1249.9664530214458864
 20
295.9997358056471626
 40
0.0
 41
0.0
 42
0.0
 10
1247.7279220613579582
 20
293.2720779386421555
 40
0.0
 41
0.0
 42
0.0
 10
1245.0002641943528943
 20
291.0335469785541704
 40
0.0
 41
0.0
 42
0.0
 10
1241.8883017825717161
 20
289.3701684147968649
 40
0.0
 41
0.0
 42
0.0
 10
1238.5116257962902182
 20
288.3458649527418629
 40
0.0
 41
0.0
 42
0.0
 10
1235.0
 20
288.0
 40
0.0
 41
0.0
 42
0.0
 10
978.0
 20
288.0
 40
0.0
 41
0.0
 42
0.0
 10
978.0
 20
288.0
 40
0.0
 41
0.0
 42
0.0
 10
974.4883742037096681
 20
288.3458649527418629
 40
0.0
 41
0.0
 42
0.0
 10
971.1116982174283976
 20
289.3701684147968649
 40
0.0
 41
0.0
 42
0.0
 10
967.9997358056472194
 20
291.0335469785541704
 40
0.0
 41
0.0
 42
0.0
 10
965.2720779386421555
 20
293.2720779386421555
 40
0.0
 41
0.0
 42
0.0
 10
963.0335469785542273
 20
295.9997358056471626
 40
0.0
 41
0.0
 42
0.0
 10
961.3701684147968081
 20
299.1116982174283976
 40
0.0
 41
0.0
 42
0.0
 10
960.3458649527418629
 20
302.4883742037096681
 40
0.0
 41
0.0
 42
0.0
 10
960.0
 20
306.0
 40
0.0
 41
0.0
 42
0.0
 10
960.0
 20
511.0
 40
0.0
 41
0.0
 42
0.0
 10
960.0
 20
511.0
 40
0.0
 41
0.0
 42
0.0
 10
960.3458649527418629
 20
514.5116257962903319
 40
0.0
 41
0.0
 42
0.0
 10
961.3701684147968081
 20
517.8883017825716024
 40
0.0
 41
0.0
 42
0.0
 10
963.0335469785542273
 20
521.0002641943528943
 40
0.0
 41
0.0
 42
0.0
 10
965.2720779386421555
 20
523.7279220613578445
 40
0.0
 41
0.0
 42
0.0
 10
967.9997358056471057
 20
525.9664530214457727
 40
0.0
 41
0.0
 42
0.0
 10
971.1116982174283976
 20
527.6298315852031919
 40
0.0
 41
0.0
 42
0.0
 10
974.4883742037096681
 20
528.6541350472581371
 40
0.0
 41
0.0
 42
0.0
 10
978.0
 20
529.0
 40
0.0
 41
0.0
 42
0.0
  0
TEXT
  5
46
330
1D
100
AcDbEntity
  8
0
  6
ByLayer
420
9684477
 48
1.0
 60
0
 67
0
370
-1
100
AcDbText
 39
0.0
 10
978.5
 20
499.0625
 30
0.0
 40
13.0
  1
MODERN TWO-LINE CLAMP
 50
0.0
 41
1.0
 51
0.0
  7
Standard
 71
0
 72
0
 11
0.0
 21
0.0
 31
0.0
210
0.0
220
0.0
230
1.0
100
AcDbText
 73
0
  0
TEXT
  5
47
330
1D
100
AcDbEntity
  8
0
  6
ByLayer
420
14870768
 48
1.0
 60
0
 67
0
370
-1
100
AcDbText
 39
0.0
 10
978.5
 20
467.3125
 30
0.0
 40
16.0
  1
The modern shorthand expresses t
 50
0.0
 41
1.0
 51
0.0
  7
Standard
 71
0
 72
0
 11
0.0
 21
0.0
 31
0.0
210
0.0
220
0.0
230
1.0
100
AcDbText
 73
0
  0
TEXT
  5
48
330
1D
100
AcDbEntity
  8
0
  6
ByLayer
420
12573694
 48
1.0
 60
0
 67
0
370
-1
100
AcDbText
 39
0.0
 10
978.5
 20
313.03125
 30
0.0
 40
12.0
  1
line-clamp: 2
 50
0.0
 41
1.0
 51
0.0
  7
Standard
 71
0
 72
0
 11
0.0
 21
0.0
 31
0.0
210
0.0
220
0.0
230
1.0
100
AcDbText
 73
0
  0
HATCH
  5
49
330
1D
100
AcDbEntity
  8
0
  6
ByLayer
420
988970
 48
1.0
 60
0
 67
0
370
-1
100
AcDbHatch
 30
0.0
210
0.0
220
0.0
230
1.0
  2
SOLID
 70
1
 71
0
 91
1
 92
2
 72
0
 73
1
 93
41
 10
46.0
 20
270.0
 10
303.0
 20
270.0
 10
303.0
 20
270.0
 10
306.5116257962903319
 20
269.6541350472581371
 10
309.8883017825716024
 20
268.6298315852031351
 10
313.0002641943528374
 20
266.9664530214458296
 10
315.7279220613578445
 20
264.7279220613578445
 10
317.9664530214458296
 20
262.0002641943528374
 10
319.6298315852031351
 20
258.8883017825716024
 10
320.6541350472581371
 20
255.5116257962903319
 10
321.0
 20
252.0
 10
321.0
 20
47.0
 10
321.0
 20
47.0
 10
320.6541350472581371
 20
43.4883742037096681
 10
319.6298315852031351
 20
40.1116982174283976
 10
317.9664530214458296
 20
36.9997358056471057
 10
315.7279220613578445
 20
34.2720779386421555
 10
313.0002641943528374
 20
32.0335469785542273
 10
309.8883017825716024
 20
30.3701684147968081
 10
306.5116257962903319
 20
29.3458649527418629
 10
303.0
 20
29.0
 10
46.0
 20
29.0
 10
46.0
 20
29.0
 10
42.4883742037096894
 20
29.3458649527418629
 10
39.1116982174283834
 20
30.3701684147968081
 10
35.9997358056471626
 20
32.0335469785542273
 10
33.2720779386421412
 20
34.2720779386421555
 10
31.0335469785541846
 20
36.9997358056471057
 10
29.37016841479684
 20
40.1116982174283976
 10
28.3458649527418522
 20
43.4883742037096681
 10
28.0
 20
47.0
 10
28.0
 20
252.0
 10
28.0
 20
252.0
 10
28.3458649527418522
 20
255.5116257962903319
 10
29.3701684147968365
 20
258.8883017825716024
 10
31.0335469785541811
 20
262.0002641943528374
 10
33.2720779386421412
 20
264.7279220613578445
 10
35.9997358056471626
 20
266.9664530214458296
 10
39.1116982174283763
 20
268.6298315852031351
 10
42.4883742037096823
 20
269.6541350472581371
 10
46.0
 20
270.0
 97
0
 75
0
 76
1
 47
0.0
 98
0
  0
LWPOLYLINE
  5
4A
330
1D
100
AcDbEntity
  8
0
  6
ByLayer
420
9741240
 48
1.0
 60
0
 67
0
370
-1
100
AcDbPolyline
 90
41
 70
1
 43
0.0
 38
0.0
 39
0.0
210
0.0
220
0.0
230
1.0
 10
46.0
 20
270.0
 40
0.0
 41
0.0
 42
0.0
 10
303.0
 20
270.0
 40
0.0
 41
0.0
 42
0.0
 10
303.0
 20
270.0
 40
0.0
 41
0.0
 42
0.0
 10
306.5116257962903319
 20
269.6541350472581371
 40
0.0
 41
0.0
 42
0.0
 10
309.8883017825716024
 20
268.6298315852031351
 40
0.0
 41
0.0
 42
0.0
 10
313.0002641943528374
 20
266.9664530214458296
 40
0.0
 41
0.0
 42
0.0
 10
315.7279220613578445
 20
264.7279220613578445
 40
0.0
 41
0.0
 42
0.0
 10
317.9664530214458296
 20
262.0002641943528374
 40
0.0
 41
0.0
 42
0.0
 10
319.6298315852031351
 20
258.8883017825716024
 40
0.0
 41
0.0
 42
0.0
 10
320.6541350472581371
 20
255.5116257962903319
 40
0.0
 41
0.0
 42
0.0
 10
321.0
 20
252.0
 40
0.0
 41
0.0
 42
0.0
 10
321.0
 20
47.0
 40
0.0
 41
0.0
 42
0.0
 10
321.0
 20
47.0
 40
0.0
 41
0.0
 42
0.0
 10
320.6541350472581371
 20
43.4883742037096681
 40
0.0
 41
0.0
 42
0.0
 10
319.6298315852031351
 20
40.1116982174283976
 40
0.0
 41
0.0
 42
0.0
 10
317.9664530214458296
 20
36.9997358056471057
 40
0.0
 41
0.0
 42
0.0
 10
315.7279220613578445
 20
34.2720779386421555
 40
0.0
 41
0.0
 42
0.0
 10
313.0002641943528374
 20
32.0335469785542273
 40
0.0
 41
0.0
 42
0.0
 10
309.8883017825716024
 20
30.3701684147968081
 40
0.0
 41
0.0
 42
0.0
 10
306.5116257962903319
 20
29.3458649527418629
 40
0.0
 41
0.0
 42
0.0
 10
303.0
 20
29.0
 40
0.0
 41
0.0
 42
0.0
 10
46.0
 20
29.0
 40
0.0
 41
0.0
 42
0.0
 10
46.0
 20
29.0
 40
0.0
 41
0.0
 42
0.0
 10
42.4883742037096894
 20
29.3458649527418629
 40
0.0
 41
0.0
 42
0.0
 10
39.1116982174283834
 20
30.3701684147968081
 40
0.0
 41
0.0
 42
0.0
 10
35.9997358056471626
 20
32.0335469785542273
 40
0.0
 41
0.0
 42
0.0
 10
33.2720779386421412
 20
34.2720779386421555
 40
0.0
 41
0.0
 42
0.0
 10
31.0335469785541846
 20
36.9997358056471057
 40
0.0
 41
0.0
 42
0.0
 10
29.37016841479684
 20
40.1116982174283976
 40
0.0
 41
0.0
 42
0.0
 10
28.3458649527418522
 20
43.4883742037096681
 40
0.0
 41
0.0
 42
0.0
 10
28.0
 20
47.0
 40
0.0
 41
0.0
 42
0.0
 10
28.0
 20
252.0
 40
0.0
 41
0.0
 42
0.0
 10
28.0
 20
252.0
 40
0.0
 41
0.0
 42
0.0
 10
28.3458649527418522
 20
255.5116257962903319
 40
0.0
 41
0.0
 42
0.0
 10
29.3701684147968365
 20
258.8883017825716024
 40
0.0
 41
0.0
 42
0.0
 10
31.0335469785541811
 20
262.0002641943528374
 40
0.0
 41
0.0
 42
0.0
 10
33.2720779386421412
 20
264.7279220613578445
 40
0.0
 41
0.0
 42
0.0
 10
35.9997358056471626
 20
266.9664530214458296
 40
0.0
 41
0.0
 42
0.0
 10
39.1116982174283763
 20
268.6298315852031351
 40
0.0
 41
0.0
 42
0.0
 10
42.4883742037096823
 20
269.6541350472581371
 40
0.0
 41
0.0
 42
0.0
 10
46.0
 20
270.0
 40
0.0
 41
0.0
 42
0.0
  0
TEXT
  5
4B
330
1D
100
AcDbEntity
  8
0
  6
ByLayer
420
9684477
 48
1.0
 60
0
 67
0
370
-1
100
AcDbText
 39
0.0
 10
47.0
 20
239.890625
 30
0.0
 40
13.0
  1
MODERN NO-ELLIPSIS
 50
0.0
 41
1.0
 51
0.0
  7
Standard
 71
0
 72
0
 11
0.0
 21
0.0
 31
0.0
210
0.0
220
0.0
230
1.0
100
AcDbText
 73
0
  0
TEXT
  5
4C
330
1D
100
AcDbEntity
  8
0
  6
ByLayer
420
14870768
 48
1.0
 60
0
 67
0
370
-1
100
AcDbText
 39
0.0
 10
47.0
 20
208.140625
 30
0.0
 40
16.0
  1
Some components need the visible
 50
0.0
 41
1.0
 51
0.0
  7
Standard
 71
0
 72
0
 11
0.0
 21
0.0
 31
0.0
210
0.0
220
0.0
230
1.0
100
AcDbText
 73
0
  0
TEXT
  5
4D
330
1D
100
AcDbEntity
  8
0
  6
ByLayer
420
12573694
 48
1.0
 60
0
 67
0
370
-1
100
AcDbText
 39
0.0
 10
47.0
 20
53.859375
 30
0.0
 40
12.0
  1
line-clamp: 2 no-ellipsis
 50
0.0
 41
1.0
 51
0.0
  7
Standard
 71
0
 72
0
 11
0.0
 21
0.0
 31
0.0
210
0.0
220
0.0
230
1.0
100
AcDbText
 73
0
  0
HATCH
  5
4E
330
1D
100
AcDbEntity
  8
0
  6
ByLayer
420
988970
 48
1.0
 60
0
 67
0
370
-1
100
AcDbHatch
 30
0.0
210
0.0
220
0.0
230
1.0
  2
SOLID
 70
1
 71
0
 91
1
 92
2
 72
0
 73
1
 93
41
 10
357.0
 20
270.0
 10
614.0
 20
270.0
 10
614.0
 20
270.0
 10
617.5116257962903319
 20
269.6541350472581371
 10
620.8883017825716024
 20
268.6298315852031351
 10
624.0002641943528943
 20
266.9664530214458296
 10
626.7279220613578445
 20
264.7279220613578445
 10
628.9664530214457727
 20
262.0002641943528374
 10
630.6298315852031919
 20
258.8883017825716024
 10
631.6541350472581371
 20
255.5116257962903319
 10
632.0
 20
252.0
 10
632.0
 20
47.0
 10
632.0
 20
47.0
 10
631.6541350472581371
 20
43.4883742037096681
 10
630.6298315852031919
 20
40.1116982174283976
 10
628.9664530214457727
 20
36.9997358056471057
 10
626.7279220613578445
 20
34.2720779386421555
 10
624.0002641943528943
 20
32.0335469785542273
 10
620.8883017825716024
 20
30.3701684147968081
 10
617.5116257962903319
 20
29.3458649527418629
 10
614.0
 20
29.0
 10
357.0
 20
29.0
 10
357.0
 20
29.0
 10
353.4883742037096681
 20
29.3458649527418629
 10
350.1116982174283976
 20
30.3701684147968081
 10
346.9997358056471626
 20
32.0335469785542273
 10
344.2720779386421555
 20
34.2720779386421555
 10
342.0335469785541704
 20
36.9997358056471057
 10
340.3701684147968649
 20
40.1116982174283976
 10
339.3458649527418629
 20
43.4883742037096681
 10
339.0
 20
47.0
 10
339.0
 20
252.0
 10
339.0
 20
252.0
 10
339.3458649527418629
 20
255.5116257962903319
 10
340.3701684147968081
 20
258.8883017825716024
 10
342.0335469785541704
 20
262.0002641943528374
 10
344.2720779386421555
 20
264.7279220613578445
 10
346.9997358056471626
 20
266.9664530214458296
 10
350.1116982174283976
 20
268.6298315852031351
 10
353.4883742037096681
 20
269.6541350472581371
 10
357.0
 20
270.0
 97
0
 75
0
 76
1
 47
0.0
 98
0
  0
LWPOLYLINE
  5
4F
330
1D
100
AcDbEntity
  8
0
  6
ByLayer
420
9741240
 48
1.0
 60
0
 67
0
370
-1
100
AcDbPolyline
 90
41
 70
1
 43
0.0
 38
0.0
 39
0.0
210
0.0
220
0.0
230
1.0
 10
357.0
 20
270.0
 40
0.0
 41
0.0
 42
0.0
 10
614.0
 20
270.0
 40
0.0
 41
0.0
 42
0.0
 10
614.0
 20
270.0
 40
0.0
 41
0.0
 42
0.0
 10
617.5116257962903319
 20
269.6541350472581371
 40
0.0
 41
0.0
 42
0.0
 10
620.8883017825716024
 20
268.6298315852031351
 40
0.0
 41
0.0
 42
0.0
 10
624.0002641943528943
 20
266.9664530214458296
 40
0.0
 41
0.0
 42
0.0
 10
626.7279220613578445
 20
264.7279220613578445
 40
0.0
 41
0.0
 42
0.0
 10
628.9664530214457727
 20
262.0002641943528374
 40
0.0
 41
0.0
 42
0.0
 10
630.6298315852031919
 20
258.8883017825716024
 40
0.0
 41
0.0
 42
0.0
 10
631.6541350472581371
 20
255.5116257962903319
 40
0.0
 41
0.0
 42
0.0
 10
632.0
 20
252.0
 40
0.0
 41
0.0
 42
0.0
 10
632.0
 20
47.0
 40
0.0
 41
0.0
 42
0.0
 10
632.0
 20
47.0
 40
0.0
 41
0.0
 42
0.0
 10
631.6541350472581371
 20
43.4883742037096681
 40
0.0
 41
0.0
 42
0.0
 10
630.6298315852031919
 20
40.1116982174283976
 40
0.0
 41
0.0
 42
0.0
 10
628.9664530214457727
 20
36.9997358056471057
 40
0.0
 41
0.0
 42
0.0
 10
626.7279220613578445
 20
34.2720779386421555
 40
0.0
 41
0.0
 42
0.0
 10
624.0002641943528943
 20
32.0335469785542273
 40
0.0
 41
0.0
 42
0.0
 10
620.8883017825716024
 20
30.3701684147968081
 40
0.0
 41
0.0
 42
0.0
 10
617.5116257962903319
 20
29.3458649527418629
 40
0.0
 41
0.0
 42
0.0
 10
614.0
 20
29.0
 40
0.0
 41
0.0
 42
0.0
 10
357.0
 20
29.0
 40
0.0
 41
0.0
 42
0.0
 10
357.0
 20
29.0
 40
0.0
 41
0.0
 42
0.0
 10
353.4883742037096681
 20
29.3458649527418629
 40
0.0
 41
0.0
 42
0.0
 10
350.1116982174283976
 20
30.3701684147968081
 40
0.0
 41
0.0
 42
0.0
 10
346.9997358056471626
 20
32.0335469785542273
 40
0.0
 41
0.0
 42
0.0
 10
344.2720779386421555
 20
34.2720779386421555
 40
0.0
 41
0.0
 42
0.0
 10
342.0335469785541704
 20
36.9997358056471057
 40
0.0
 41
0.0
 42
0.0
 10
340.3701684147968649
 20
40.1116982174283976
 40
0.0
 41
0.0
 42
0.0
 10
339.3458649527418629
 20
43.4883742037096681
 40
0.0
 41
0.0
 42
0.0
 10
339.0
 20
47.0
 40
0.0
 41
0.0
 42
0.0
 10
339.0
 20
252.0
 40
0.0
 41
0.0
 42
0.0
 10
339.0
 20
252.0
 40
0.0
 41
0.0
 42
0.0
 10
339.3458649527418629
 20
255.5116257962903319
 40
0.0
 41
0.0
 42
0.0
 10
340.3701684147968081
 20
258.8883017825716024
 40
0.0
 41
0.0
 42
0.0
 10
342.0335469785541704
 20
262.0002641943528374
 40
0.0
 41
0.0
 42
0.0
 10
344.2720779386421555
 20
264.7279220613578445
 40
0.0
 41
0.0
 42
0.0
 10
346.9997358056471626
 20
266.9664530214458296
 40
0.0
 41
0.0
 42
0.0
 10
350.1116982174283976
 20
268.6298315852031351
 40
0.0
 41
0.0
 42
0.0
 10
353.4883742037096681
 20
269.6541350472581371
 40
0.0
 41
0.0
 42
0.0
 10
357.0
 20
270.0
 40
0.0
 41
0.0
 42
0.0
  0
TEXT
  5
50
330
1D
100
AcDbEntity
  8
0
  6
ByLayer
420
9684477
 48
1.0
 60
0
 67
0
370
-1
100
AcDbText
 39
0.0
 10
357.5
 20
239.890625
 30
0.0
 40
13.0
  1
UNCLAMPED CONTROL
 50
0.0
 41
1.0
 51
0.0
  7
Standard
 71
0
 72
0
 11
0.0
 21
0.0
 31
0.0
210
0.0
220
0.0
230
1.0
100
AcDbText
 73
0
  0
TEXT
  5
51
330
1D
100
AcDbEntity
  8
0
  6
ByLayer
420
14870768
 48
1.0
 60
0
 67
0
370
-1
100
AcDbText
 39
0.0
 10
357.5
 20
208.140625
 30
0.0
 40
16.0
  1
This card uses the same copy as th
 50
0.0
 41
1.0
 51
0.0
  7
Standard
 71
0
 72
0
 11
0.0
 21
0.0
 31
0.0
210
0.0
220
0.0
230
1.0
100
AcDbText
 73
0
  0
TEXT
  5
52
330
1D
100
AcDbEntity
  8
0
  6
ByLayer
420
12573694
 48
1.0
 60
0
 67
0
370
-1
100
AcDbText
 39
0.0
 10
357.5
 20
53.859375
 30
0.0
 40
12.0
  1
line-clamp: none
 50
0.0
 41
1.0
 51
0.0
  7
Standard
 71
0
 72
0
 11
0.0
 21
0.0
 31
0.0
210
0.0
220
0.0
230
1.0
100
AcDbText
 73
0
  0
ENDSEC
  0
SECTION
  2
OBJECTS
  0
DICTIONARY
  5
1
330
0
100
AcDbDictionary
280
0
281
0
  3
ACAD_COLOR
350
2
  3
ACAD_GROUP
350
3
  3
ACAD_LAYOUT
350
4
  3
ACAD_MATERIAL
350
5
  3
ACAD_SORTENTS
350
6
  3
ACAD_MLEADERSTYLE
350
7
  3
ACAD_MLINESTYLE
350
8
  3
ACAD_TABLESTYLE
350
9
  3
ACAD_PLOTSETTINGS
350
A
  3
AcDbVariableDictionary
350
B
  3
ACAD_SCALELIST
350
C
  3
ACAD_VISUALSTYLE
350
D
  3
ACAD_FIELDLIST
350
E
  3
ACAD_IMAGE_DICT
350
F
  0
DICTIONARY
  5
2
330
1
100
AcDbDictionary
280
0
281
0
  0
DICTIONARY
  5
3
330
1
100
AcDbDictionary
280
0
281
0
  0
DICTIONARY
  5
4
330
1
100
AcDbDictionary
280
0
281
0
  0
DICTIONARY
  5
5
330
1
100
AcDbDictionary
280
0
281
0
  0
DICTIONARY
  5
6
330
1
100
AcDbDictionary
280
0
281
0
  0
DICTIONARY
  5
7
330
1
100
AcDbDictionary
280
0
281
0
  0
DICTIONARY
  5
8
330
1
100
AcDbDictionary
280
0
281
0
  0
DICTIONARY
  5
9
330
1
100
AcDbDictionary
280
0
281
0
  0
DICTIONARY
  5
A
330
1
100
AcDbDictionary
280
0
281
0
  0
DICTIONARY
  5
B
330
1
100
AcDbDictionary
280
0
281
0
  0
DICTIONARY
  5
C
330
1
100
AcDbDictionary
280
0
281
0
  0
DICTIONARY
  5
D
330
1
100
AcDbDictionary
280
0
281
0
  0
DICTIONARY
  5
E
330
1
100
AcDbDictionary
280
0
281
0
  0
DICTIONARY
  5
F
330
1
100
AcDbDictionary
280
0
281
0
  0
ENDSEC
  0
EOF
