0
SECTION
2
HEADER
9
$ACADVER
1
AC1021
9
$LASTSAVEDBY
1
@tarikjabiri/dxf
9
$HANDSEED
5
92
9
$INSUNITS
70
0
9
$CLAYER
8
0
9
$VIEWCTR
10
590
20
1024.25012
0
ENDSEC
0
SECTION
2
CLASSES
0
ENDSEC
0
SECTION
2
TABLES
0
TABLE
2
VPORT
5
1
330
0
100
AcDbSymbolTable
70
1
0
VPORT
5
19
330
1
100
AcDbSymbolTableRecord
100
AcDbViewportTableRecord
2
*Active
70
0
10
0
20
0
11
1
21
1
12
590
22
1024.25012
13
0
23
0
14
10
24
10
15
10
25
10
16
0
26
0
36
1
17
0
27
0
37
0
40
2241.49976
41
2
42
50
43
0
44
0
50
0
51
0
71
0
72
100
73
1
74
3
75
0
76
1
77
0
78
0
281
0
65
1
110
0
120
0
130
0
111
1
121
0
131
0
112
0
122
1
132
0
79
0
146
0
348
10020
60
7
61
5
292
1
282
1
141
0
142
0
63
250
421
3358443
0
ENDTAB
0
TABLE
2
LTYPE
5
2
330
0
100
AcDbSymbolTable
70
3
0
LTYPE
5
12
330
2
100
AcDbSymbolTableRecord
100
AcDbLinetypeTableRecord
2
ByBlock
70
0
3

72
65
73
0
40
0
0
LTYPE
5
13
330
2
100
AcDbSymbolTableRecord
100
AcDbLinetypeTableRecord
2
ByLayer
70
0
3

72
65
73
0
40
0
0
LTYPE
5
14
330
2
100
AcDbSymbolTableRecord
100
AcDbLinetypeTableRecord
2
Continuous
70
0
3
Solid line
72
65
73
0
40
0
0
ENDTAB
0
TABLE
2
LAYER
5
3
330
0
100
AcDbSymbolTable
70
1
0
LAYER
5
15
330
3
100
AcDbSymbolTableRecord
100
AcDbLayerTableRecord
2
0
70
0
62
7
6
Continuous
370
0
390
0
0
ENDTAB
0
TABLE
2
STYLE
5
4
330
0
100
AcDbSymbolTable
70
3
0
STYLE
5
16
330
4
100
AcDbSymbolTableRecord
100
AcDbTextStyleTableRecord
2
Standard
70
0
40
0
41
1
50
0
71
0
42
1
3
txt
4

0
STYLE
5
1B
330
4
100
AcDbSymbolTableRecord
100
AcDbTextStyleTableRecord
2
Times New Roman
70
0
40
0
41
1
50
0
71
0
42
1
3
Times New Roman.ttf
4

0
STYLE
5
22
330
4
100
AcDbSymbolTableRecord
100
AcDbTextStyleTableRecord
2
math
70
0
40
0
41
1
50
0
71
0
42
1
3
math.ttf
4

0
ENDTAB
0
TABLE
2
VIEW
5
5
330
0
100
AcDbSymbolTable
70
0
0
ENDTAB
0
TABLE
2
UCS
5
6
330
0
100
AcDbSymbolTable
70
0
0
ENDTAB
0
TABLE
2
APPID
5
7
330
0
100
AcDbSymbolTable
70
1
0
APPID
5
17
330
7
100
AcDbSymbolTableRecord
100
AcDbRegAppTableRecord
2
ACAD
70
0
0
ENDTAB
0
TABLE
2
DIMSTYLE
5
8
330
0
100
AcDbSymbolTable
70
1
100
AcDbDimStyleTable
0
DIMSTYLE
105
18
330
8
100
AcDbSymbolTableRecord
100
AcDbDimStyleTableRecord
2
Standard
70
0
340
16
0
ENDTAB
0
TABLE
2
BLOCK_RECORD
5
9
330
0
100
AcDbSymbolTable
70
2
0
BLOCK_RECORD
5
C
330
9
100
AcDbSymbolTableRecord
100
AcDbBlockTableRecord
2
*Model_Space
70
0
280
1
281
0
0
BLOCK_RECORD
5
F
330
9
100
AcDbSymbolTableRecord
100
AcDbBlockTableRecord
2
*Paper_Space
70
0
280
1
281
0
0
ENDTAB
0
ENDSEC
0
SECTION
2
BLOCKS
0
BLOCK
5
D
330
C
100
AcDbEntity
8
0
100
AcDbBlockBegin
2
*Model_Space
70
0
10
0
20
0
30
0
3
*Model_Space
1

0
ENDBLK
5
E
100
AcDbEntity
8
0
100
AcDbBlockEnd
0
BLOCK
5
10
330
F
100
AcDbEntity
8
0
100
AcDbBlockBegin
2
*Paper_Space
70
0
10
0
20
0
30
0
3
*Paper_Space
1

0
ENDBLK
5
11
100
AcDbEntity
8
0
100
AcDbBlockEnd
0
ENDSEC
0
SECTION
2
ENTITIES
0
TEXT
5
1A
330
C
100
AcDbEntity
420
3355443
8
0
100
AcDbText
10
28
20
2045
30
0
40
30
1
MathML Examples
7
Times New Roman
100
AcDbText
0
LWPOLYLINE
5
1C
330
C
100
AcDbEntity
420
12303291
8
0
100
AcDbPolyline
90
5
70
0
43
0
38
0
39
0
10
28
20
2010
10
1252
20
2010
10
1252
20
1928
10
28
20
1928
10
28
20
2010
0
TEXT
5
1D
330
C
100
AcDbEntity
420
5592405
8
0
100
AcDbText
10
41
20
1980.5
30
0
40
16
1
Simple Fraction
7
Times New Roman
100
AcDbText
0
LWPOLYLINE
5
1E
330
C
100
AcDbEntity
420
2236962
8
0
100
AcDbPolyline
90
2
70
0
43
0
38
0
39
0
10
41
20
1954.015625
10
50.8125
20
1954.015625
0
LWPOLYLINE
5
1F
330
C
100
AcDbEntity
420
2236962
8
0
100
AcDbPolyline
90
2
70
0
43
0
38
0
39
0
10
72.984375
20
1954.015625
10
82.796875
20
1954.015625
0
LWPOLYLINE
5
20
330
C
100
AcDbEntity
420
2236962
8
0
100
AcDbPolyline
90
2
70
0
43
0
38
0
39
0
10
107.4375
20
1954.015625
10
117.25
20
1954.015625
0
TEXT
5
21
330
C
100
AcDbEntity
420
2236962
8
0
100
AcDbText
10
85
20
1823.095
30
0
40
15.62
1
1
7
math
100
AcDbText
0
TEXT
5
23
330
C
100
AcDbEntity
420
2236962
8
0
100
AcDbText
10
85
20
1780.9075
30
0
40
15.62
1
2
7
math
100
AcDbText
0
TEXT
5
24
330
C
100
AcDbEntity
420
2236962
8
0
100
AcDbText
10
114.921875
20
1809
30
0
40
22
1
+
7
math
100
AcDbText
0
TEXT
5
25
330
C
100
AcDbEntity
420
2236962
8
0
100
AcDbText
10
148.984375
20
1823.095
30
0
40
15.62
1
3
7
math
100
AcDbText
0
TEXT
5
26
330
C
100
AcDbEntity
420
2236962
8
0
100
AcDbText
10
148.984375
20
1780.9075
30
0
40
15.62
1
4
7
math
100
AcDbText
0
TEXT
5
27
330
C
100
AcDbEntity
420
2236962
8
0
100
AcDbText
10
178.90625
20
1809
30
0
40
22
1
=
7
math
100
AcDbText
0
TEXT
5
28
330
C
100
AcDbEntity
420
2236962
8
0
100
AcDbText
10
217.4375
20
1823.095
30
0
40
15.62
1
5
7
math
100
AcDbText
0
TEXT
5
29
330
C
100
AcDbEntity
420
2236962
8
0
100
AcDbText
10
217.4375
20
1780.9075
30
0
40
15.62
1
4
7
math
100
AcDbText
0
LWPOLYLINE
5
2A
330
C
100
AcDbEntity
420
12303291
8
0
100
AcDbPolyline
90
5
70
0
43
0
38
0
39
0
10
28
20
1900
10
1252
20
1900
10
1252
20
1812
10
28
20
1812
10
28
20
1900
0
TEXT
5
2B
330
C
100
AcDbEntity
420
5592405
8
0
100
AcDbText
10
41
20
1870.5
30
0
40
16
1
Quadratic Formula
7
Times New Roman
100
AcDbText
0
LWPOLYLINE
5
2C
330
C
100
AcDbEntity
420
2236962
8
0
100
AcDbPolyline
90
2
70
0
43
0
38
0
39
0
10
77.359375
20
1837.359375
10
178.671875
20
1837.359375
0
LWPOLYLINE
5
2D
330
C
100
AcDbEntity
420
2236962
8
0
100
AcDbPolyline
90
2
70
0
43
0
38
0
39
0
10
120.40625
20
1856.921875
10
177.671875
20
1856.921875
0
LWPOLYLINE
5
2E
330
C
100
AcDbEntity
420
2236962
8
0
100
AcDbPolyline
90
3
70
0
43
0
38
0
39
0
10
113.128125
20
1847.0390625
10
115.26875
20
1838.953125
10
120.40625
20
1856.921875
0
TEXT
5
2F
330
C
100
AcDbEntity
420
2236962
8
0
100
AcDbText
10
83
20
1587.53125
30
0
40
22
1
x
7
math
100
AcDbText
0
TEXT
5
30
330
C
100
AcDbEntity
420
2236962
8
0
100
AcDbText
10
118.828125
20
1588.03125
30
0
40
22
1
=
7
math
100
AcDbText
0
TEXT
5
31
330
C
100
AcDbEntity
420
2236962
8
0
100
AcDbText
10
166.796875
20
1595.12625
30
0
40
15.62
1
−
7
math
100
AcDbText
0
TEXT
5
32
330
C
100
AcDbEntity
420
2236962
8
0
100
AcDbText
10
175.171875
20
1594.62625
30
0
40
15.62
1
b
7
math
100
AcDbText
0
TEXT
5
33
330
C
100
AcDbEntity
420
2236962
8
0
100
AcDbText
10
202.609375
20
1595.12625
30
0
40
15.62
1
±
7
math
100
AcDbText
0
TEXT
5
34
330
C
100
AcDbEntity
420
2236962
8
0
100
AcDbText
10
241.40625
20
1588.62625
30
0
40
15.62
1
b
7
math
100
AcDbText
0
TEXT
5
35
330
C
100
AcDbEntity
420
2236962
8
0
100
AcDbText
10
259.40625
20
1601.7743249999999
30
0
40
11.0902
1
2
7
math
100
AcDbText
0
TEXT
5
36
330
C
100
AcDbEntity
420
2236962
8
0
100
AcDbText
10
285.390625
20
1585.12625
30
0
40
15.62
1
−
7
math
100
AcDbText
0
TEXT
5
37
330
C
100
AcDbEntity
420
2236962
8
0
100
AcDbText
10
308.859375
20
1585.12625
30
0
40
15.62
1
4
7
math
100
AcDbText
0
TEXT
5
38
330
C
100
AcDbEntity
420
2236962
8
0
100
AcDbText
10
324.671875
20
1584.62625
30
0
40
15.62
1
a
7
math
100
AcDbText
0
TEXT
5
39
330
C
100
AcDbEntity
420
2236962
8
0
100
AcDbText
10
342.671875
20
1584.62625
30
0
40
15.62
1
c
7
math
100
AcDbText
0
TEXT
5
3A
330
C
100
AcDbEntity
420
2236962
8
0
100
AcDbText
10
240.609375
20
1540.93875
30
0
40
15.62
1
2
7
math
100
AcDbText
0
TEXT
5
3B
330
C
100
AcDbEntity
420
2236962
8
0
100
AcDbText
10
255.421875
20
1540.43875
30
0
40
15.62
1
a
7
math
100
AcDbText
0
LWPOLYLINE
5
3C
330
C
100
AcDbEntity
420
12303291
8
0
100
AcDbPolyline
90
5
70
0
43
0
38
0
39
0
10
28
20
1779
10
1252
20
1779
10
1252
20
1691
10
28
20
1691
10
28
20
1779
0
TEXT
5
3D
330
C
100
AcDbEntity
420
5592405
8
0
100
AcDbText
10
41
20
1749.5
30
0
40
16
1
Summation
7
Times New Roman
100
AcDbText
0
LWPOLYLINE
5
3E
330
C
100
AcDbEntity
420
2236962
8
0
100
AcDbPolyline
90
2
70
0
43
0
38
0
39
0
10
141.9375
20
1718.578125
10
246.9375
20
1718.578125
0
TEXT
5
3F
330
C
100
AcDbEntity
420
2236962
8
0
100
AcDbText
10
110.515625
20
1332.21875
30
0
40
22
1
∑
7
math
100
AcDbText
0
TEXT
5
40
330
C
100
AcDbEntity
420
2236962
8
0
100
AcDbText
10
121.34375
20
1322.595
30
0
40
15.62
1
i
7
math
100
AcDbText
0
TEXT
5
41
330
C
100
AcDbEntity
420
2236962
8
0
100
AcDbText
10
140.78125
20
1323.095
30
0
40
15.62
1
=
7
math
100
AcDbText
0
TEXT
5
42
330
C
100
AcDbEntity
420
2236962
8
0
100
AcDbText
10
167.03125
20
1323.095
30
0
40
15.62
1
1
7
math
100
AcDbText
0
TEXT
5
43
330
C
100
AcDbEntity
420
2236962
8
0
100
AcDbText
10
121.34375
20
1360.595
30
0
40
15.62
1
n
7
math
100
AcDbText
0
TEXT
5
44
330
C
100
AcDbEntity
420
2236962
8
0
100
AcDbText
10
198.5
20
1336.90625
30
0
40
22
1
i
7
math
100
AcDbText
0
TEXT
5
45
330
C
100
AcDbEntity
420
2236962
8
0
100
AcDbText
10
211.484375
20
1361.095
30
0
40
15.62
1
2
7
math
100
AcDbText
0
TEXT
5
46
330
C
100
AcDbEntity
420
2236962
8
0
100
AcDbText
10
247.40625
20
1337.40625
30
0
40
22
1
=
7
math
100
AcDbText
0
TEXT
5
47
330
C
100
AcDbEntity
420
2236962
8
0
100
AcDbText
10
286.9375
20
1353.00125
30
0
40
15.62
1
n
7
math
100
AcDbText
0
TEXT
5
48
330
C
100
AcDbEntity
420
2236962
8
0
100
AcDbText
10
313.375
20
1353.50125
30
0
40
15.62
1
(
7
math
100
AcDbText
0
TEXT
5
49
330
C
100
AcDbEntity
420
2236962
8
0
100
AcDbText
10
315.140625
20
1353.00125
30
0
40
15.62
1
n
7
math
100
AcDbText
0
TEXT
5
4A
330
C
100
AcDbEntity
420
2236962
8
0
100
AcDbText
10
342.578125
20
1353.50125
30
0
40
15.62
1
+
7
math
100
AcDbText
0
TEXT
5
4B
330
C
100
AcDbEntity
420
2236962
8
0
100
AcDbText
10
365.046875
20
1353.50125
30
0
40
15.62
1
1
7
math
100
AcDbText
0
TEXT
5
4C
330
C
100
AcDbEntity
420
2236962
8
0
100
AcDbText
10
389.296875
20
1353.50125
30
0
40
15.62
1
)
7
math
100
AcDbText
0
TEXT
5
4D
330
C
100
AcDbEntity
420
2236962
8
0
100
AcDbText
10
400.5
20
1353.50125
30
0
40
15.62
1
(
7
math
100
AcDbText
0
TEXT
5
4E
330
C
100
AcDbEntity
420
2236962
8
0
100
AcDbText
10
401.265625
20
1353.50125
30
0
40
15.62
1
2
7
math
100
AcDbText
0
TEXT
5
4F
330
C
100
AcDbEntity
420
2236962
8
0
100
AcDbText
10
417.078125
20
1353.00125
30
0
40
15.62
1
n
7
math
100
AcDbText
0
TEXT
5
50
330
C
100
AcDbEntity
420
2236962
8
0
100
AcDbText
10
444.515625
20
1353.50125
30
0
40
15.62
1
+
7
math
100
AcDbText
0
TEXT
5
51
330
C
100
AcDbEntity
420
2236962
8
0
100
AcDbText
10
466.984375
20
1353.50125
30
0
40
15.62
1
1
7
math
100
AcDbText
0
TEXT
5
52
330
C
100
AcDbEntity
420
2236962
8
0
100
AcDbText
10
491.234375
20
1353.50125
30
0
40
15.62
1
)
7
math
100
AcDbText
0
TEXT
5
53
330
C
100
AcDbEntity
420
2236962
8
0
100
AcDbText
10
382.5625
20
1309.31375
30
0
40
15.62
1
6
7
math
100
AcDbText
0
LWPOLYLINE
5
54
330
C
100
AcDbEntity
420
12303291
8
0
100
AcDbPolyline
90
5
70
0
43
0
38
0
39
0
10
28
20
1663
10
1252
20
1663
10
1252
20
1533
10
28
20
1533
10
28
20
1663
0
TEXT
5
55
330
C
100
AcDbEntity
420
5592405
8
0
100
AcDbText
10
41
20
1633.5
30
0
40
16
1
Matrix
7
Times New Roman
100
AcDbText
0
TEXT
5
56
330
C
100
AcDbEntity
420
2236962
8
0
100
AcDbText
10
95.109375
20
1079.375
30
0
40
22
1
[
7
math
100
AcDbText
0
TEXT
5
57
330
C
100
AcDbEntity
420
2236962
8
0
100
AcDbText
10
115.125
20
1113.59375
30
0
40
22
1
1
7
math
100
AcDbText
0
TEXT
5
58
330
C
100
AcDbEntity
420
2236962
8
0
100
AcDbText
10
172.71875
20
1113.59375
30
0
40
22
1
0
7
math
100
AcDbText
0
TEXT
5
59
330
C
100
AcDbEntity
420
2236962
8
0
100
AcDbText
10
229.3125
20
1113.59375
30
0
40
22
1
0
7
math
100
AcDbText
0
TEXT
5
5A
330
C
100
AcDbEntity
420
2236962
8
0
100
AcDbText
10
115.125
20
1041.78125
30
0
40
22
1
0
7
math
100
AcDbText
0
TEXT
5
5B
330
C
100
AcDbEntity
420
2236962
8
0
100
AcDbText
10
172.71875
20
1041.78125
30
0
40
22
1
1
7
math
100
AcDbText
0
TEXT
5
5C
330
C
100
AcDbEntity
420
2236962
8
0
100
AcDbText
10
229.3125
20
1041.78125
30
0
40
22
1
0
7
math
100
AcDbText
0
TEXT
5
5D
330
C
100
AcDbEntity
420
2236962
8
0
100
AcDbText
10
115.125
20
969.96875
30
0
40
22
1
0
7
math
100
AcDbText
0
TEXT
5
5E
330
C
100
AcDbEntity
420
2236962
8
0
100
AcDbText
10
172.71875
20
969.96875
30
0
40
22
1
0
7
math
100
AcDbText
0
TEXT
5
5F
330
C
100
AcDbEntity
420
2236962
8
0
100
AcDbText
10
229.3125
20
969.96875
30
0
40
22
1
1
7
math
100
AcDbText
0
TEXT
5
60
330
C
100
AcDbEntity
420
2236962
8
0
100
AcDbText
10
281.21875
20
1045.875
30
0
40
22
1
]
7
math
100
AcDbText
0
LWPOLYLINE
5
61
330
C
100
AcDbEntity
420
12303291
8
0
100
AcDbPolyline
90
5
70
0
43
0
38
0
39
0
10
28
20
1484
10
1252
20
1484
10
1252
20
1399
10
28
20
1399
10
28
20
1484
0
TEXT
5
62
330
C
100
AcDbEntity
420
5592405
8
0
100
AcDbText
10
41
20
1454.5
30
0
40
16
1
Integral
7
Times New Roman
100
AcDbText
0
TEXT
5
63
330
C
100
AcDbEntity
420
2236962
8
0
100
AcDbText
10
95.109375
20
761.40625
30
0
40
22
1
∫
7
math
100
AcDbText
0
TEXT
5
64
330
C
100
AcDbEntity
420
2236962
8
0
100
AcDbText
10
102.6875
20
733.095
30
0
40
15.62
1
0
7
math
100
AcDbText
0
TEXT
5
65
330
C
100
AcDbEntity
420
2236962
8
0
100
AcDbText
10
102.6875
20
771.095
30
0
40
15.62
1
∞
7
math
100
AcDbText
0
TEXT
5
66
330
C
100
AcDbEntity
420
2236962
8
0
100
AcDbText
10
139.484375
20
746.90625
30
0
40
22
1
e
7
math
100
AcDbText
0
TEXT
5
67
330
C
100
AcDbEntity
420
2236962
8
0
100
AcDbText
10
170.84375
20
771.095
30
0
40
15.62
1
−
7
math
100
AcDbText
0
TEXT
5
68
330
C
100
AcDbEntity
420
2236962
8
0
100
AcDbText
10
179.21875
20
770.595
30
0
40
15.62
1
x
7
math
100
AcDbText
0
TEXT
5
69
330
C
100
AcDbEntity
420
2236962
8
0
100
AcDbText
10
205.21875
20
746.90625
30
0
40
22
1
d
7
math
100
AcDbText
0
TEXT
5
6A
330
C
100
AcDbEntity
420
2236962
8
0
100
AcDbText
10
230.984375
20
746.90625
30
0
40
22
1
x
7
math
100
AcDbText
0
TEXT
5
6B
330
C
100
AcDbEntity
420
2236962
8
0
100
AcDbText
10
266.8125
20
747.40625
30
0
40
22
1
=
7
math
100
AcDbText
0
TEXT
5
6C
330
C
100
AcDbEntity
420
2236962
8
0
100
AcDbText
10
303.34375
20
747.40625
30
0
40
22
1
1
7
math
100
AcDbText
0
LWPOLYLINE
5
6D
330
C
100
AcDbEntity
420
12303291
8
0
100
AcDbPolyline
90
5
70
0
43
0
38
0
39
0
10
28
20
1369
10
1252
20
1369
10
1252
20
1286
10
28
20
1286
10
28
20
1369
0
TEXT
5
6E
330
C
100
AcDbEntity
420
5592405
8
0
100
AcDbText
10
41
20
1339.5
30
0
40
16
1
Superscript & Subscript
7
Times New Roman
100
AcDbText
0
TEXT
5
6F
330
C
100
AcDbEntity
420
2236962
8
0
100
AcDbText
10
83
20
522.90625
30
0
40
22
1
a
7
math
100
AcDbText
0
TEXT
5
70
330
C
100
AcDbEntity
420
2236962
8
0
100
AcDbText
10
107.265625
20
541.095
30
0
40
15.62
1
2
7
math
100
AcDbText
0
TEXT
5
71
330
C
100
AcDbEntity
420
2236962
8
0
100
AcDbText
10
143.1875
20
517.40625
30
0
40
22
1
+
7
math
100
AcDbText
0
TEXT
5
72
330
C
100
AcDbEntity
420
2236962
8
0
100
AcDbText
10
175.25
20
516.90625
30
0
40
22
1
b
7
math
100
AcDbText
0
TEXT
5
73
330
C
100
AcDbEntity
420
2236962
8
0
100
AcDbText
10
199.109375
20
541.095
30
0
40
15.62
1
2
7
math
100
AcDbText
0
TEXT
5
74
330
C
100
AcDbEntity
420
2236962
8
0
100
AcDbText
10
235.03125
20
517.40625
30
0
40
22
1
=
7
math
100
AcDbText
0
TEXT
5
75
330
C
100
AcDbEntity
420
2236962
8
0
100
AcDbText
10
272.5625
20
516.90625
30
0
40
22
1
c
7
math
100
AcDbText
0
TEXT
5
76
330
C
100
AcDbEntity
420
2236962
8
0
100
AcDbText
10
292.6875
20
541.095
30
0
40
15.62
1
2
7
math
100
AcDbText
0
TEXT
5
77
330
C
100
AcDbEntity
420
2236962
8
0
100
AcDbText
10
406.5
20
516.90625
30
0
40
22
1
H
7
math
100
AcDbText
0
TEXT
5
78
330
C
100
AcDbEntity
420
2236962
8
0
100
AcDbText
10
438.53125
20
487.095
30
0
40
15.62
1
2
7
math
100
AcDbText
0
TEXT
5
79
330
C
100
AcDbEntity
420
2236962
8
0
100
AcDbText
10
461.34375
20
516.90625
30
0
40
22
1
O
7
math
100
AcDbText
0
LWPOLYLINE
5
7A
330
C
100
AcDbEntity
420
12303291
8
0
100
AcDbPolyline
90
5
70
0
43
0
38
0
39
0
10
28
20
1253
10
1252
20
1253
10
1252
20
1166
10
28
20
1166
10
28
20
1253
0
TEXT
5
7B
330
C
100
AcDbEntity
420
5592405
8
0
100
AcDbText
10
41
20
1223.5
30
0
40
16
1
Square Root
7
Times New Roman
100
AcDbText
0
LWPOLYLINE
5
7C
330
C
100
AcDbEntity
420
2236962
8
0
100
AcDbPolyline
90
2
70
0
43
0
38
0
39
0
10
53.0625
20
1210.328125
10
122.984375
20
1210.328125
0
LWPOLYLINE
5
7D
330
C
100
AcDbEntity
420
2236962
8
0
100
AcDbPolyline
90
3
70
0
43
0
38
0
39
0
10
42.809375
20
1196.27734375
10
45.825
20
1184.78125
10
53.0625
20
1210.328125
0
TEXT
5
7E
330
C
100
AcDbEntity
420
2236962
8
0
100
AcDbText
10
107.0625
20
284.453125
30
0
40
22
1
a
7
math
100
AcDbText
0
TEXT
5
7F
330
C
100
AcDbEntity
420
2236962
8
0
100
AcDbText
10
131.328125
20
302.641875
30
0
40
15.62
1
2
7
math
100
AcDbText
0
TEXT
5
80
330
C
100
AcDbEntity
420
2236962
8
0
100
AcDbText
10
167.25
20
278.953125
30
0
40
22
1
+
7
math
100
AcDbText
0
TEXT
5
81
330
C
100
AcDbEntity
420
2236962
8
0
100
AcDbText
10
199.3125
20
278.453125
30
0
40
22
1
b
7
math
100
AcDbText
0
TEXT
5
82
330
C
100
AcDbEntity
420
2236962
8
0
100
AcDbText
10
223.171875
20
302.641875
30
0
40
15.62
1
2
7
math
100
AcDbText
0
TEXT
5
83
330
C
100
AcDbEntity
420
2236962
8
0
100
AcDbText
10
259.09375
20
278.953125
30
0
40
22
1
=
7
math
100
AcDbText
0
TEXT
5
84
330
C
100
AcDbEntity
420
2236962
8
0
100
AcDbText
10
296.625
20
278.453125
30
0
40
22
1
c
7
math
100
AcDbText
0
LWPOLYLINE
5
85
330
C
100
AcDbEntity
420
12303291
8
0
100
AcDbPolyline
90
5
70
0
43
0
38
0
39
0
10
28
20
1143
10
1252
20
1143
10
1252
20
1048
10
28
20
1048
10
28
20
1143
0
TEXT
5
86
330
C
100
AcDbEntity
420
5592405
8
0
100
AcDbText
10
41
20
1113.5
30
0
40
16
1
Nested Fractions
7
Times New Roman
100
AcDbText
0
LWPOLYLINE
5
87
330
C
100
AcDbEntity
420
2236962
8
0
100
AcDbPolyline
90
2
70
0
43
0
38
0
39
0
10
41
20
1086.6875
10
91.34375
20
1086.6875
0
LWPOLYLINE
5
88
330
C
100
AcDbEntity
420
2236962
8
0
100
AcDbPolyline
90
2
70
0
43
0
38
0
39
0
10
65.71875
20
1075.96875
10
90.34375
20
1075.96875
0
LWPOLYLINE
5
89
330
C
100
AcDbEntity
420
2236962
8
0
100
AcDbPolyline
90
2
70
0
43
0
38
0
39
0
10
83.40625
20
1068.046875
10
89.34375
20
1068.046875
0
TEXT
5
8A
330
C
100
AcDbEntity
420
2236962
8
0
100
AcDbText
10
125.265625
20
89.09500000000003
30
0
40
15.62
1
1
7
math
100
AcDbText
0
TEXT
5
8B
330
C
100
AcDbEntity
420
2236962
8
0
100
AcDbText
10
85
20
46.9074999999998
30
0
40
15.62
1
1
7
math
100
AcDbText
0
TEXT
5
8C
330
C
100
AcDbEntity
420
2236962
8
0
100
AcDbText
10
109.25
20
46.9074999999998
30
0
40
15.62
1
+
7
math
100
AcDbText
0
TEXT
5
8D
330
C
100
AcDbEntity
420
2236962
8
0
100
AcDbText
10
151.25
20
51.03995000000009
30
0
40
11.0902
1
1
7
math
100
AcDbText
0
TEXT
5
8E
330
C
100
AcDbEntity
420
2236962
8
0
100
AcDbText
10
134.71875
20
21.789949999999862
30
0
40
11.0902
1
2
7
math
100
AcDbText
0
TEXT
5
8F
330
C
100
AcDbEntity
420
2236962
8
0
100
AcDbText
10
151.3125
20
21.789949999999862
30
0
40
11.0902
1
+
7
math
100
AcDbText
0
TEXT
5
90
330
C
100
AcDbEntity
420
2236962
8
0
100
AcDbText
10
169.40625
20
24.09398999999985
30
0
40
7.87404
1
1
7
math
100
AcDbText
0
TEXT
5
91
330
C
100
AcDbEntity
420
2236962
8
0
100
AcDbText
10
169.40625
20
3.500239999999849
30
0
40
7.87404
1
3
7
math
100
AcDbText
0
ENDSEC
0
SECTION
2
OBJECTS
0
DICTIONARY
5
A
330
0
100
AcDbDictionary
281
1
3
ACAD_GROUP
350
B
0
DICTIONARY
5
B
330
A
100
AcDbDictionary
281
0
0
ENDSEC
0
EOF