0
SECTION
2
HEADER
9
$ACADVER
1
AC1021
9
$LASTSAVEDBY
1
@tarikjabiri/dxf
9
$HANDSEED
5
92
9
$INSUNITS
70
0
9
$CLAYER
8
0
9
$VIEWCTR
10
590
20
471.50012000000004
0
ENDSEC
0
SECTION
2
CLASSES
0
ENDSEC
0
SECTION
2
TABLES
0
TABLE
2
VPORT
5
1
330
0
100
AcDbSymbolTable
70
1
0
VPORT
5
19
330
1
100
AcDbSymbolTableRecord
100
AcDbViewportTableRecord
2
*Active
70
0
10
0
20
0
11
1
21
1
12
590
22
471.50012000000004
13
0
23
0
14
10
24
10
15
10
25
10
16
0
26
0
36
1
17
0
27
0
37
0
40
1064.9997600000002
41
2
42
50
43
0
44
0
50
0
51
0
71
0
72
100
73
1
74
3
75
0
76
1
77
0
78
0
281
0
65
1
110
0
120
0
130
0
111
1
121
0
131
0
112
0
122
1
132
0
79
0
146
0
348
10020
60
7
61
5
292
1
282
1
141
0
142
0
63
250
421
3358443
0
ENDTAB
0
TABLE
2
LTYPE
5
2
330
0
100
AcDbSymbolTable
70
3
0
LTYPE
5
12
330
2
100
AcDbSymbolTableRecord
100
AcDbLinetypeTableRecord
2
ByBlock
70
0
3

72
65
73
0
40
0
0
LTYPE
5
13
330
2
100
AcDbSymbolTableRecord
100
AcDbLinetypeTableRecord
2
ByLayer
70
0
3

72
65
73
0
40
0
0
LTYPE
5
14
330
2
100
AcDbSymbolTableRecord
100
AcDbLinetypeTableRecord
2
Continuous
70
0
3
Solid line
72
65
73
0
40
0
0
ENDTAB
0
TABLE
2
LAYER
5
3
330
0
100
AcDbSymbolTable
70
1
0
LAYER
5
15
330
3
100
AcDbSymbolTableRecord
100
AcDbLayerTableRecord
2
0
70
0
62
7
6
Continuous
370
0
390
0
0
ENDTAB
0
TABLE
2
STYLE
5
4
330
0
100
AcDbSymbolTable
70
3
0
STYLE
5
16
330
4
100
AcDbSymbolTableRecord
100
AcDbTextStyleTableRecord
2
Standard
70
0
40
0
41
1
50
0
71
0
42
1
3
txt
4

0
STYLE
5
1B
330
4
100
AcDbSymbolTableRecord
100
AcDbTextStyleTableRecord
2
Times New Roman
70
0
40
0
41
1
50
0
71
0
42
1
3
Times New Roman.ttf
4

0
STYLE
5
22
330
4
100
AcDbSymbolTableRecord
100
AcDbTextStyleTableRecord
2
math
70
0
40
0
41
1
50
0
71
0
42
1
3
math.ttf
4

0
ENDTAB
0
TABLE
2
VIEW
5
5
330
0
100
AcDbSymbolTable
70
0
0
ENDTAB
0
TABLE
2
UCS
5
6
330
0
100
AcDbSymbolTable
70
0
0
ENDTAB
0
TABLE
2
APPID
5
7
330
0
100
AcDbSymbolTable
70
1
0
APPID
5
17
330
7
100
AcDbSymbolTableRecord
100
AcDbRegAppTableRecord
2
ACAD
70
0
0
ENDTAB
0
TABLE
2
DIMSTYLE
5
8
330
0
100
AcDbSymbolTable
70
1
100
AcDbDimStyleTable
0
DIMSTYLE
105
18
330
8
100
AcDbSymbolTableRecord
100
AcDbDimStyleTableRecord
2
Standard
70
0
340
16
0
ENDTAB
0
TABLE
2
BLOCK_RECORD
5
9
330
0
100
AcDbSymbolTable
70
2
0
BLOCK_RECORD
5
C
330
9
100
AcDbSymbolTableRecord
100
AcDbBlockTableRecord
2
*Model_Space
70
0
280
1
281
0
0
BLOCK_RECORD
5
F
330
9
100
AcDbSymbolTableRecord
100
AcDbBlockTableRecord
2
*Paper_Space
70
0
280
1
281
0
0
ENDTAB
0
ENDSEC
0
SECTION
2
BLOCKS
0
BLOCK
5
D
330
C
100
AcDbEntity
8
0
100
AcDbBlockBegin
2
*Model_Space
70
0
10
0
20
0
30
0
3
*Model_Space
1

0
ENDBLK
5
E
100
AcDbEntity
8
0
100
AcDbBlockEnd
0
BLOCK
5
10
330
F
100
AcDbEntity
8
0
100
AcDbBlockBegin
2
*Paper_Space
70
0
10
0
20
0
30
0
3
*Paper_Space
1

0
ENDBLK
5
11
100
AcDbEntity
8
0
100
AcDbBlockEnd
0
ENDSEC
0
SECTION
2
ENTITIES
0
TEXT
5
1A
330
C
100
AcDbEntity
420
3355443
8
0
100
AcDbText
10
28
20
904
30
0
40
30
1
MathML Examples
7
Times New Roman
100
AcDbText
0
LWPOLYLINE
5
1C
330
C
100
AcDbEntity
420
12303291
8
0
100
AcDbPolyline
90
5
70
0
43
0
38
0
39
0
10
28
20
869
10
1252
20
869
10
1252
20
787
10
28
20
787
10
28
20
869
0
TEXT
5
1D
330
C
100
AcDbEntity
420
5592405
8
0
100
AcDbText
10
41
20
839.5
30
0
40
16
1
Simple Fraction
7
Times New Roman
100
AcDbText
0
LWPOLYLINE
5
1E
330
C
100
AcDbEntity
420
2236962
8
0
100
AcDbPolyline
90
2
70
0
43
0
38
0
39
0
10
41
20
813.015625
10
50.8125
20
813.015625
0
LWPOLYLINE
5
1F
330
C
100
AcDbEntity
420
2236962
8
0
100
AcDbPolyline
90
2
70
0
43
0
38
0
39
0
10
72.984375
20
813.015625
10
82.796875
20
813.015625
0
LWPOLYLINE
5
20
330
C
100
AcDbEntity
420
2236962
8
0
100
AcDbPolyline
90
2
70
0
43
0
38
0
39
0
10
107.4375
20
813.015625
10
117.25
20
813.015625
0
TEXT
5
21
330
C
100
AcDbEntity
420
2236962
8
0
100
AcDbText
10
43
20
815.095
30
0
40
15.62
1
1
7
math
100
AcDbText
0
TEXT
5
23
330
C
100
AcDbEntity
420
2236962
8
0
100
AcDbText
10
43
20
800.9075
30
0
40
15.62
1
2
7
math
100
AcDbText
0
TEXT
5
24
330
C
100
AcDbEntity
420
2236962
8
0
100
AcDbText
10
56.68750249999994
20
809
30
0
40
22
1
+
7
math
100
AcDbText
0
TEXT
5
25
330
C
100
AcDbEntity
420
2236962
8
0
100
AcDbText
10
74.984375
20
815.095
30
0
40
15.62
1
3
7
math
100
AcDbText
0
TEXT
5
26
330
C
100
AcDbEntity
420
2236962
8
0
100
AcDbText
10
74.984375
20
800.9075
30
0
40
15.62
1
4
7
math
100
AcDbText
0
TEXT
5
27
330
C
100
AcDbEntity
420
2236962
8
0
100
AcDbText
10
89.90625249999994
20
809
30
0
40
22
1
=
7
math
100
AcDbText
0
TEXT
5
28
330
C
100
AcDbEntity
420
2236962
8
0
100
AcDbText
10
109.4375
20
815.095
30
0
40
15.62
1
5
7
math
100
AcDbText
0
TEXT
5
29
330
C
100
AcDbEntity
420
2236962
8
0
100
AcDbText
10
109.4375
20
800.9075
30
0
40
15.62
1
4
7
math
100
AcDbText
0
LWPOLYLINE
5
2A
330
C
100
AcDbEntity
420
12303291
8
0
100
AcDbPolyline
90
5
70
0
43
0
38
0
39
0
10
28
20
772
10
1252
20
772
10
1252
20
684
10
28
20
684
10
28
20
772
0
TEXT
5
2B
330
C
100
AcDbEntity
420
5592405
8
0
100
AcDbText
10
41
20
742.5
30
0
40
16
1
Quadratic Formula
7
Times New Roman
100
AcDbText
0
LWPOLYLINE
5
2C
330
C
100
AcDbEntity
420
2236962
8
0
100
AcDbPolyline
90
2
70
0
43
0
38
0
39
0
10
77.359375
20
709.859375
10
178.671875
20
709.859375
0
LWPOLYLINE
5
2D
330
C
100
AcDbEntity
420
2236962
8
0
100
AcDbPolyline
90
2
70
0
43
0
38
0
39
0
10
120.40625
20
729.421875
10
177.671875
20
729.421875
0
LWPOLYLINE
5
2E
330
C
100
AcDbEntity
420
2236962
8
0
100
AcDbPolyline
90
3
70
0
43
0
38
0
39
0
10
113.128125
20
719.5390625
10
115.26875
20
711.453125
10
120.40625
20
729.421875
0
TEXT
5
2F
330
C
100
AcDbEntity
420
2236962
8
0
100
AcDbText
10
42.000004999999874
20
705.53125
30
0
40
22
1
x
7
math
100
AcDbText
0
TEXT
5
30
330
C
100
AcDbEntity
420
2236962
8
0
100
AcDbText
10
59.82812749999994
20
705.53125
30
0
40
22
1
=
7
math
100
AcDbText
0
TEXT
5
31
330
C
100
AcDbEntity
420
2236962
8
0
100
AcDbText
10
79.359375
20
711.62625
30
0
40
15.62
1
−
7
math
100
AcDbText
0
TEXT
5
32
330
C
100
AcDbEntity
420
2236962
8
0
100
AcDbText
10
88.171875
20
711.62625
30
0
40
15.62
1
b
7
math
100
AcDbText
0
TEXT
5
33
330
C
100
AcDbEntity
420
2236962
8
0
100
AcDbText
10
100.71874750000006
20
711.62625
30
0
40
15.62
1
±
7
math
100
AcDbText
0
TEXT
5
34
330
C
100
AcDbEntity
420
2236962
8
0
100
AcDbText
10
121.40625
20
711.62625
30
0
40
15.62
1
b
7
math
100
AcDbText
0
TEXT
5
35
330
C
100
AcDbEntity
420
2236962
8
0
100
AcDbText
10
130.40625249999994
20
718.774325
30
0
40
11.0902
1
2
7
math
100
AcDbText
0
TEXT
5
36
330
C
100
AcDbEntity
420
2236962
8
0
100
AcDbText
10
142.5
20
711.62625
30
0
40
15.62
1
−
7
math
100
AcDbText
0
TEXT
5
37
330
C
100
AcDbEntity
420
2236962
8
0
100
AcDbText
10
154.859375
20
711.62625
30
0
40
15.62
1
4
7
math
100
AcDbText
0
TEXT
5
38
330
C
100
AcDbEntity
420
2236962
8
0
100
AcDbText
10
162.671875
20
711.62625
30
0
40
15.62
1
a
7
math
100
AcDbText
0
TEXT
5
39
330
C
100
AcDbEntity
420
2236962
8
0
100
AcDbText
10
171.671875
20
711.62625
30
0
40
15.62
1
c
7
math
100
AcDbText
0
TEXT
5
3A
330
C
100
AcDbEntity
420
2236962
8
0
100
AcDbText
10
120.609375
20
697.43875
30
0
40
15.62
1
2
7
math
100
AcDbText
0
TEXT
5
3B
330
C
100
AcDbEntity
420
2236962
8
0
100
AcDbText
10
128.421875
20
697.43875
30
0
40
15.62
1
a
7
math
100
AcDbText
0
LWPOLYLINE
5
3C
330
C
100
AcDbEntity
420
12303291
8
0
100
AcDbPolyline
90
5
70
0
43
0
38
0
39
0
10
28
20
669
10
1252
20
669
10
1252
20
581
10
28
20
581
10
28
20
669
0
TEXT
5
3D
330
C
100
AcDbEntity
420
5592405
8
0
100
AcDbText
10
41
20
639.5
30
0
40
16
1
Summation
7
Times New Roman
100
AcDbText
0
LWPOLYLINE
5
3E
330
C
100
AcDbEntity
420
2236962
8
0
100
AcDbPolyline
90
2
70
0
43
0
38
0
39
0
10
141.9375
20
609.078125
10
246.9375
20
609.078125
0
TEXT
5
3F
330
C
100
AcDbEntity
420
2236962
8
0
100
AcDbText
10
45.65625
20
604.90625
30
0
40
22
1
∑
7
math
100
AcDbText
0
TEXT
5
40
330
C
100
AcDbEntity
420
2236962
8
0
100
AcDbText
10
61.34375
20
594.595
30
0
40
15.62
1
i
7
math
100
AcDbText
0
TEXT
5
41
330
C
100
AcDbEntity
420
2236962
8
0
100
AcDbText
10
70.78125
20
594.595
30
0
40
15.62
1
=
7
math
100
AcDbText
0
TEXT
5
42
330
C
100
AcDbEntity
420
2236962
8
0
100
AcDbText
10
84.03125
20
594.595
30
0
40
15.62
1
1
7
math
100
AcDbText
0
TEXT
5
43
330
C
100
AcDbEntity
420
2236962
8
0
100
AcDbText
10
61.34375
20
615.595
30
0
40
15.62
1
n
7
math
100
AcDbText
0
TEXT
5
44
330
C
100
AcDbEntity
420
2236962
8
0
100
AcDbText
10
99.50000249999994
20
604.90625
30
0
40
22
1
i
7
math
100
AcDbText
0
TEXT
5
45
330
C
100
AcDbEntity
420
2236962
8
0
100
AcDbText
10
106.484375
20
615.595
30
0
40
15.62
1
2
7
math
100
AcDbText
0
TEXT
5
46
330
C
100
AcDbEntity
420
2236962
8
0
100
AcDbText
10
124.40625249999994
20
604.90625
30
0
40
22
1
=
7
math
100
AcDbText
0
TEXT
5
47
330
C
100
AcDbEntity
420
2236962
8
0
100
AcDbText
10
143.9375
20
614.516875
30
0
40
15.62
1
n
7
math
100
AcDbText
0
TEXT
5
48
330
C
100
AcDbEntity
420
2236962
8
0
100
AcDbText
10
152.9375
20
611.00125
30
0
40
15.62
1
(
7
math
100
AcDbText
0
TEXT
5
49
330
C
100
AcDbEntity
420
2236962
8
0
100
AcDbText
10
158.125
20
614.516875
30
0
40
15.62
1
n
7
math
100
AcDbText
0
TEXT
5
4A
330
C
100
AcDbEntity
420
2236962
8
0
100
AcDbText
10
170.671875
20
614.516875
30
0
40
15.62
1
+
7
math
100
AcDbText
0
TEXT
5
4B
330
C
100
AcDbEntity
420
2236962
8
0
100
AcDbText
10
183.03125
20
614.516875
30
0
40
15.62
1
1
7
math
100
AcDbText
0
TEXT
5
4C
330
C
100
AcDbEntity
420
2236962
8
0
100
AcDbText
10
190.84375
20
611.00125
30
0
40
15.62
1
)
7
math
100
AcDbText
0
TEXT
5
4D
330
C
100
AcDbEntity
420
2236962
8
0
100
AcDbText
10
196.03125
20
611.00125
30
0
40
15.62
1
(
7
math
100
AcDbText
0
TEXT
5
4E
330
C
100
AcDbEntity
420
2236962
8
0
100
AcDbText
10
201.21875
20
614.516875
30
0
40
15.62
1
2
7
math
100
AcDbText
0
TEXT
5
4F
330
C
100
AcDbEntity
420
2236962
8
0
100
AcDbText
10
209.03125
20
614.516875
30
0
40
15.62
1
n
7
math
100
AcDbText
0
TEXT
5
50
330
C
100
AcDbEntity
420
2236962
8
0
100
AcDbText
10
221.578125
20
614.516875
30
0
40
15.62
1
+
7
math
100
AcDbText
0
TEXT
5
51
330
C
100
AcDbEntity
420
2236962
8
0
100
AcDbText
10
233.9375
20
614.516875
30
0
40
15.62
1
1
7
math
100
AcDbText
0
TEXT
5
52
330
C
100
AcDbEntity
420
2236962
8
0
100
AcDbText
10
241.75
20
611.00125
30
0
40
15.62
1
)
7
math
100
AcDbText
0
TEXT
5
53
330
C
100
AcDbEntity
420
2236962
8
0
100
AcDbText
10
191.53125
20
596.81375
30
0
40
15.62
1
6
7
math
100
AcDbText
0
LWPOLYLINE
5
54
330
C
100
AcDbEntity
420
12303291
8
0
100
AcDbPolyline
90
5
70
0
43
0
38
0
39
0
10
28
20
566
10
1252
20
566
10
1252
20
436
10
28
20
436
10
28
20
566
0
TEXT
5
55
330
C
100
AcDbEntity
420
5592405
8
0
100
AcDbText
10
41
20
536.5
30
0
40
16
1
Matrix
7
Times New Roman
100
AcDbText
0
TEXT
5
56
330
C
100
AcDbEntity
420
2236962
8
0
100
AcDbText
10
42
20
476.78125
30
0
40
22
1
[
7
math
100
AcDbText
0
TEXT
5
57
330
C
100
AcDbEntity
420
2236962
8
0
100
AcDbText
10
58.109375
20
504.09375
30
0
40
22
1
1
7
math
100
AcDbText
0
TEXT
5
58
330
C
100
AcDbEntity
420
2236962
8
0
100
AcDbText
10
86.703125
20
504.09375
30
0
40
22
1
0
7
math
100
AcDbText
0
TEXT
5
59
330
C
100
AcDbEntity
420
2236962
8
0
100
AcDbText
10
115.296875
20
504.09375
30
0
40
22
1
0
7
math
100
AcDbText
0
TEXT
5
5A
330
C
100
AcDbEntity
420
2236962
8
0
100
AcDbText
10
58.109375
20
479.28125
30
0
40
22
1
0
7
math
100
AcDbText
0
TEXT
5
5B
330
C
100
AcDbEntity
420
2236962
8
0
100
AcDbText
10
86.703125
20
479.28125
30
0
40
22
1
1
7
math
100
AcDbText
0
TEXT
5
5C
330
C
100
AcDbEntity
420
2236962
8
0
100
AcDbText
10
115.296875
20
479.28125
30
0
40
22
1
0
7
math
100
AcDbText
0
TEXT
5
5D
330
C
100
AcDbEntity
420
2236962
8
0
100
AcDbText
10
58.109375
20
454.46875
30
0
40
22
1
0
7
math
100
AcDbText
0
TEXT
5
5E
330
C
100
AcDbEntity
420
2236962
8
0
100
AcDbText
10
86.703125
20
454.46875
30
0
40
22
1
0
7
math
100
AcDbText
0
TEXT
5
5F
330
C
100
AcDbEntity
420
2236962
8
0
100
AcDbText
10
115.296875
20
454.46875
30
0
40
22
1
1
7
math
100
AcDbText
0
TEXT
5
60
330
C
100
AcDbEntity
420
2236962
8
0
100
AcDbText
10
135.09375
20
476.78125
30
0
40
22
1
]
7
math
100
AcDbText
0
LWPOLYLINE
5
61
330
C
100
AcDbEntity
420
12303291
8
0
100
AcDbPolyline
90
5
70
0
43
0
38
0
39
0
10
28
20
421
10
1252
20
421
10
1252
20
336
10
28
20
336
10
28
20
421
0
TEXT
5
62
330
C
100
AcDbEntity
420
5592405
8
0
100
AcDbText
10
41
20
391.5
30
0
40
16
1
Integral
7
Times New Roman
100
AcDbText
0
TEXT
5
63
330
C
100
AcDbEntity
420
2236962
8
0
100
AcDbText
10
45.656245000000126
20
356.90625
30
0
40
22
1
∫
7
math
100
AcDbText
0
TEXT
5
64
330
C
100
AcDbEntity
420
2236962
8
0
100
AcDbText
10
51.6875
20
349.595
30
0
40
15.62
1
0
7
math
100
AcDbText
0
TEXT
5
65
330
C
100
AcDbEntity
420
2236962
8
0
100
AcDbText
10
51.68749750000006
20
371.595
30
0
40
15.62
1
∞
7
math
100
AcDbText
0
TEXT
5
66
330
C
100
AcDbEntity
420
2236962
8
0
100
AcDbText
10
70.48437749999994
20
356.90625
30
0
40
22
1
e
7
math
100
AcDbText
0
TEXT
5
67
330
C
100
AcDbEntity
420
2236962
8
0
100
AcDbText
10
81.40625
20
366.329375
30
0
40
15.62
1
−
7
math
100
AcDbText
0
TEXT
5
68
330
C
100
AcDbEntity
420
2236962
8
0
100
AcDbText
10
90.21875
20
366.329375
30
0
40
15.62
1
x
7
math
100
AcDbText
0
TEXT
5
69
330
C
100
AcDbEntity
420
2236962
8
0
100
AcDbText
10
103.21874750000006
20
356.90625
30
0
40
22
1
d
7
math
100
AcDbText
0
TEXT
5
6A
330
C
100
AcDbEntity
420
2236962
8
0
100
AcDbText
10
115.98437999999987
20
356.90625
30
0
40
22
1
x
7
math
100
AcDbText
0
TEXT
5
6B
330
C
100
AcDbEntity
420
2236962
8
0
100
AcDbText
10
133.81250249999994
20
356.90625
30
0
40
22
1
=
7
math
100
AcDbText
0
TEXT
5
6C
330
C
100
AcDbEntity
420
2236962
8
0
100
AcDbText
10
152.34375
20
356.90625
30
0
40
22
1
1
7
math
100
AcDbText
0
LWPOLYLINE
5
6D
330
C
100
AcDbEntity
420
12303291
8
0
100
AcDbPolyline
90
5
70
0
43
0
38
0
39
0
10
28
20
321
10
1252
20
321
10
1252
20
238
10
28
20
238
10
28
20
321
0
TEXT
5
6E
330
C
100
AcDbEntity
420
5592405
8
0
100
AcDbText
10
41
20
291.5
30
0
40
16
1
Superscript & Subscript
7
Times New Roman
100
AcDbText
0
TEXT
5
6F
330
C
100
AcDbEntity
420
2236962
8
0
100
AcDbText
10
41.99999750000006
20
256.90625
30
0
40
22
1
a
7
math
100
AcDbText
0
TEXT
5
70
330
C
100
AcDbEntity
420
2236962
8
0
100
AcDbText
10
54.265625
20
266.329375
30
0
40
15.62
1
2
7
math
100
AcDbText
0
TEXT
5
71
330
C
100
AcDbEntity
420
2236962
8
0
100
AcDbText
10
70.95312749999994
20
256.90625
30
0
40
22
1
+
7
math
100
AcDbText
0
TEXT
5
72
330
C
100
AcDbEntity
420
2236962
8
0
100
AcDbText
10
88.25000249999994
20
256.90625
30
0
40
22
1
b
7
math
100
AcDbText
0
TEXT
5
73
330
C
100
AcDbEntity
420
2236962
8
0
100
AcDbText
10
100.109375
20
267.595
30
0
40
15.62
1
2
7
math
100
AcDbText
0
TEXT
5
74
330
C
100
AcDbEntity
420
2236962
8
0
100
AcDbText
10
118.03125249999994
20
256.90625
30
0
40
22
1
=
7
math
100
AcDbText
0
TEXT
5
75
330
C
100
AcDbEntity
420
2236962
8
0
100
AcDbText
10
136.5625
20
256.90625
30
0
40
22
1
c
7
math
100
AcDbText
0
TEXT
5
76
330
C
100
AcDbEntity
420
2236962
8
0
100
AcDbText
10
146.6875
20
266.329375
30
0
40
15.62
1
2
7
math
100
AcDbText
0
TEXT
5
77
330
C
100
AcDbEntity
420
2236962
8
0
100
AcDbText
10
203.49999500000013
20
256.90625
30
0
40
22
1
H
7
math
100
AcDbText
0
TEXT
5
78
330
C
100
AcDbEntity
420
2236962
8
0
100
AcDbText
10
219.53125
20
251.59500000000003
30
0
40
15.62
1
2
7
math
100
AcDbText
0
TEXT
5
79
330
C
100
AcDbEntity
420
2236962
8
0
100
AcDbText
10
231.34374750000006
20
256.90625
30
0
40
22
1
O
7
math
100
AcDbText
0
LWPOLYLINE
5
7A
330
C
100
AcDbEntity
420
12303291
8
0
100
AcDbPolyline
90
5
70
0
43
0
38
0
39
0
10
28
20
223
10
1252
20
223
10
1252
20
136
10
28
20
136
10
28
20
223
0
TEXT
5
7B
330
C
100
AcDbEntity
420
5592405
8
0
100
AcDbText
10
41
20
193.5
30
0
40
16
1
Square Root
7
Times New Roman
100
AcDbText
0
LWPOLYLINE
5
7C
330
C
100
AcDbEntity
420
2236962
8
0
100
AcDbPolyline
90
2
70
0
43
0
38
0
39
0
10
53.0625
20
179.734375
10
122.984375
20
179.734375
0
LWPOLYLINE
5
7D
330
C
100
AcDbEntity
420
2236962
8
0
100
AcDbPolyline
90
3
70
0
43
0
38
0
39
0
10
42.809375
20
165.68359375
10
45.825
20
154.1875
10
53.0625
20
179.734375
0
TEXT
5
7E
330
C
100
AcDbEntity
420
2236962
8
0
100
AcDbText
10
54.06249750000006
20
155.453125
30
0
40
22
1
a
7
math
100
AcDbText
0
TEXT
5
7F
330
C
100
AcDbEntity
420
2236962
8
0
100
AcDbText
10
66.328125
20
164.87625000000003
30
0
40
15.62
1
2
7
math
100
AcDbText
0
TEXT
5
80
330
C
100
AcDbEntity
420
2236962
8
0
100
AcDbText
10
83.01562749999994
20
155.453125
30
0
40
22
1
+
7
math
100
AcDbText
0
TEXT
5
81
330
C
100
AcDbEntity
420
2236962
8
0
100
AcDbText
10
100.31250249999994
20
155.453125
30
0
40
22
1
b
7
math
100
AcDbText
0
TEXT
5
82
330
C
100
AcDbEntity
420
2236962
8
0
100
AcDbText
10
112.171875
20
166.14187500000003
30
0
40
15.62
1
2
7
math
100
AcDbText
0
TEXT
5
83
330
C
100
AcDbEntity
420
2236962
8
0
100
AcDbText
10
130.09375249999994
20
155.453125
30
0
40
22
1
=
7
math
100
AcDbText
0
TEXT
5
84
330
C
100
AcDbEntity
420
2236962
8
0
100
AcDbText
10
148.625
20
155.453125
30
0
40
22
1
c
7
math
100
AcDbText
0
LWPOLYLINE
5
85
330
C
100
AcDbEntity
420
12303291
8
0
100
AcDbPolyline
90
5
70
0
43
0
38
0
39
0
10
28
20
121
10
1252
20
121
10
1252
20
26
10
28
20
26
10
28
20
121
0
TEXT
5
86
330
C
100
AcDbEntity
420
5592405
8
0
100
AcDbText
10
41
20
91.5
30
0
40
16
1
Nested Fractions
7
Times New Roman
100
AcDbText
0
LWPOLYLINE
5
87
330
C
100
AcDbEntity
420
2236962
8
0
100
AcDbPolyline
90
2
70
0
43
0
38
0
39
0
10
41
20
65.09375
10
91.34375
20
65.09375
0
LWPOLYLINE
5
88
330
C
100
AcDbEntity
420
2236962
8
0
100
AcDbPolyline
90
2
70
0
43
0
38
0
39
0
10
65.71875
20
54.375
10
90.34375
20
54.375
0
LWPOLYLINE
5
89
330
C
100
AcDbEntity
420
2236962
8
0
100
AcDbPolyline
90
2
70
0
43
0
38
0
39
0
10
83.40625
20
46.453125
10
89.34375
20
46.453125
0
TEXT
5
8A
330
C
100
AcDbEntity
420
2236962
8
0
100
AcDbText
10
63.265625
20
67.09500000000003
30
0
40
15.62
1
1
7
math
100
AcDbText
0
TEXT
5
8B
330
C
100
AcDbEntity
420
2236962
8
0
100
AcDbText
10
43
20
51.29812500000003
30
0
40
15.62
1
1
7
math
100
AcDbText
0
TEXT
5
8C
330
C
100
AcDbEntity
420
2236962
8
0
100
AcDbText
10
54.359375
20
51.29812500000003
30
0
40
15.62
1
+
7
math
100
AcDbText
0
TEXT
5
8D
330
C
100
AcDbEntity
420
2236962
8
0
100
AcDbText
10
76.25000249999994
20
55.539949999999976
30
0
40
11.0902
1
1
7
math
100
AcDbText
0
TEXT
5
8E
330
C
100
AcDbEntity
420
2236962
8
0
100
AcDbText
10
67.71875249999994
20
44.024324999999976
30
0
40
11.0902
1
2
7
math
100
AcDbText
0
TEXT
5
8F
330
C
100
AcDbEntity
420
2236962
8
0
100
AcDbText
10
75.70312250000006
20
44.024324999999976
30
0
40
11.0902
1
+
7
math
100
AcDbText
0
TEXT
5
90
330
C
100
AcDbEntity
420
2236962
8
0
100
AcDbText
10
85.40625
20
46.59398999999996
30
0
40
7.87404
1
1
7
math
100
AcDbText
0
TEXT
5
91
330
C
100
AcDbEntity
420
2236962
8
0
100
AcDbText
10
85.40625
20
39.00023999999996
30
0
40
7.87404
1
3
7
math
100
AcDbText
0
ENDSEC
0
SECTION
2
OBJECTS
0
DICTIONARY
5
A
330
0
100
AcDbDictionary
281
1
3
ACAD_GROUP
350
B
0
DICTIONARY
5
B
330
A
100
AcDbDictionary
281
0
0
ENDSEC
0
EOF