  0
SECTION
  2
HEADER
  9
$ANGBASE
 50
0.0
  9
$ANGDIR
 70
1
  9
$AUNITS
 70
0
  9
$AUPREC
 70
0
  9
$ATTMODE
 70
1
  9
$DWGCODEPAGE
  3
ANSI_1252
  9
$TDCREATE
 40
2451545.0416666665114462
  9
$CECOLOR
 62
256
  9
$CELTSCALE
 40
1.0
  9
$CELWEIGHT
370
-1
  9
$CLAYER
  8
0
  9
$CELTYPE
  6
ByLayer
  9
$CMLJUST
 70
0
  9
$CMLSCALE
 40
20.0
  9
$CMLSTYLE
  2
Standard
  9
$DIMSTYLE
  2
Standard
  9
$LWDISPLAY
290
0
  9
$EXTNAMES
290
1
  9
$HANDSEED
  5
A5
  9
$INSUNITS
 70
0
  9
$LUNITS
 70
2
  9
$LUPREC
 70
4
  9
$LTSCALE
 40
1.0
  9
$MIRRTEXT
 70
0
  9
$INSBASE
 10
0.0
 20
0.0
 30
0.0
  9
$SPLINESEGS
 70
8
  9
$PSLTSCALE
 70
1
  9
$PDMODE
 70
0
  9
$PDSIZE
 40
0.0
  9
$PLINEGEN
 70
0
  9
$TEXTSIZE
 40
0.2
  9
$TEXTSTYLE
  7
Standard
  9
$TDINDWG
 40
0.0
  9
$TDUCREATE
 40
2451545.0416666665114462
  9
$TDUUPDATE
 40
2451545.0416666665114462
  9
$TDUPDATE
 40
2451545.0416666665114462
  9
$ACADVER
  1
AC1018
  0
ENDSEC
  0
SECTION
  2
CLASSES
  0
CLASS
  1
ACDBDICTIONARYWDFLT
  2
AcDbDictionaryWithDefault
  3
ObjectDBX Classes
 90
32768
 91
0
280
0
281
0
  0
CLASS
  1
ACDBPLACEHOLDER
  2
AcDbPlaceHolder
  3
ObjectDBX Classes
 90
0
 91
0
280
0
281
0
  0
CLASS
  1
LAYOUT
  2
AcDbLayout
  3
ObjectDBX Classes
 90
0
 91
0
280
0
281
0
  0
CLASS
  1
DICTIONARYVAR
  2
AcDbDictionaryVar
  3
ObjectDBX Classes
 90
0
 91
0
280
0
281
0
  0
CLASS
  1
TABLESTYLE
  2
AcDbTableStyle
  3
ObjectDBX Classes
 90
4095
 91
0
280
0
281
0
  0
CLASS
  1
MATERIAL
  2
AcDbMaterial
  3
ObjectDBX Classes
 90
1153
 91
0
280
0
281
0
  0
CLASS
  1
VISUALSTYLE
  2
AcDbVisualStyle
  3
ObjectDBX Classes
 90
4095
 91
0
280
0
281
0
  0
CLASS
  1
SCALE
  2
AcDbScale
  3
ObjectDBX Classes
 90
1153
 91
0
280
0
281
0
  0
CLASS
  1
MLEADERSTYLE
  2
AcDbMLeaderStyle
  3
ObjectDBX Classes
 90
4095
 91
0
280
0
281
0
  0
CLASS
  1
CELLSTYLEMAP
  2
AcDbCellStyleMap
  3
ObjectDBX Classes
 90
1152
 91
0
280
0
281
0
  0
CLASS
  1
EXACXREFPANELOBJECT
  2
ExAcXREFPanelObject
  3
ObjectDBX Classes
 90
1025
 91
0
280
0
281
0
  0
CLASS
  1
NPOCOLLECTION
  2
AcDbImpNonPersistentObjectsCollection
  3
ObjectDBX Classes
 90
1153
 91
0
280
0
281
0
  0
CLASS
  1
LAYER_INDEX
  2
AcDbLayerIndex
  3
ObjectDBX Classes
 90
0
 91
0
280
0
281
0
  0
CLASS
  1
SPATIAL_INDEX
  2
AcDbSpatialIndex
  3
ObjectDBX Classes
 90
0
 91
0
280
0
281
0
  0
CLASS
  1
IDBUFFER
  2
AcDbIdBuffer
  3
ObjectDBX Classes
 90
32768
 91
0
280
0
281
0
  0
CLASS
  1
ACDBSECTIONVIEWSTYLE
  2
AcDbSectionViewStyle
  3
ObjectDBX Classes
 90
1025
 91
0
280
0
281
0
  0
CLASS
  1
ACDBDETAILVIEWSTYLE
  2
AcDbDetailViewStyle
  3
ObjectDBX Classes
 90
1025
 91
0
280
0
281
0
  0
CLASS
  1
MESH
  2
AcDbSubDMesh
  3
ObjectDBX Classes
 90
0
 91
0
280
0
281
1
  0
CLASS
  1
SORTENTSTABLE
  2
AcDbSortentsTable
  3
ObjectDBX Classes
 90
0
 91
0
280
0
281
0
  0
CLASS
  1
ACDB_TEXTOBJECTCONTEXTDATA_CLASS
  2
AcDbTextObjectContextData
  3
ObjectDBX Classes
 90
1153
 91
0
280
0
281
0
  0
CLASS
  1
WIPEOUT
  2
AcDbWipeout
  3
WipeOut
 90
32895
 91
0
280
0
281
1
  0
CLASS
  1
WIPEOUTVARIABLES
  2
AcDbWipeoutVariables
  3
WipeOut
 90
32768
 91
0
280
0
281
0
  0
CLASS
  1
DIMASSOC
  2
AcDbDimAssoc
  3
AcDbDimAssoc
 90
0
 91
0
280
0
281
0
  0
CLASS
  1
ACAD_TABLE
  2
AcDbTable
  3
ObjectDBX Classes
 90
1025
 91
0
280
0
281
1
  0
CLASS
  1
TABLECONTENT
  2
AcDbTableContent
  3
ObjectDBX Classes
 90
1152
 91
0
280
0
281
0
  0
CLASS
  1
TABLEGEOMETRY
  2
AcDbTableGeometry
  3
ObjectDBX Classes
 90
1152
 91
0
280
0
281
0
  0
CLASS
  1
IMAGE
  2
AcDbRasterImage
  3
ISM
 90
32895
 91
0
280
0
281
1
  0
CLASS
  1
IMAGEDEF
  2
AcDbRasterImageDef
  3
ISM
 90
0
 91
0
280
0
281
0
  0
CLASS
  1
IMAGEDEF_REACTOR
  2
AcDbRasterImageDefReactor
  3
ISM
 90
1
 91
0
280
0
281
0
  0
CLASS
  1
DBCOLOR
  2
AcDbColor
  3
ObjectDBX Classes
 90
0
 91
0
280
0
281
0
  0
CLASS
  1
GEODATA
  2
AcDbGeoData
  3
ObjectDBX Classes
 90
4095
 91
0
280
0
281
0
  0
CLASS
  1
MULTILEADER
  2
AcDbMLeader
  3
ObjectDBX Classes
 90
1025
 91
0
280
0
281
0
  0
CLASS
  1
PDFUNDERLAY
  2
AcDbPdfReference
  3
ObjectDBX Classes
 90
4095
 91
0
280
0
281
1
  0
CLASS
  1
PDFDEFINITION
  2
AcDbPdfDefinition
  3
ObjectDBX Classes
 90
1153
 91
0
280
0
281
0
  0
CLASS
  1
RASTERVARIABLES
  2
AcDbRasterVariables
  3
ISM
 90
0
 91
0
280
0
281
0
  0
CLASS
  1
SPATIAL_FILTER
  2
AcDbSpatialFilter
  3
ObjectDBX Classes
 90
0
 91
0
280
0
281
0
  0
CLASS
  1
ACDB_MLEADEROBJECTCONTEXTDATA_CLASS
  2
AcDbMLeaderObjectContextData
  3
ObjectDBX Classes
 90
1025
 91
0
280
0
281
0
  0
CLASS
  1
PLOTSETTINGS
  2
AcDbPlotSettings
  3
ObjectDBX Classes
 90
0
 91
0
280
0
281
0
  0
CLASS
  1
FIELD
  2
AcDbField
  3
ObjectDBX Classes
 90
1152
 91
0
280
0
281
0
  0
CLASS
  1
FIELDLIST
  2
AcDbFieldList
  3
ObjectDBX Classes
 90
1152
 91
0
280
0
281
0
  0
CLASS
  1
ACDB_MTEXTATTRIBUTEOBJECTCONTEXTDATA_CLASS
  2
AcDbMTextAttributeObjectContextData
  3
ObjectDBX Classes
 90
1153
 91
0
280
0
281
0
  0
CLASS
  1
ACDB_BLKREFOBJECTCONTEXTDATA_CLASS
  2
AcDbBlkRefObjectContextData
  3
ObjectDBX Classes
 90
1153
 91
0
280
0
281
0
  0
ENDSEC
  0
SECTION
  2
TABLES
  0
TABLE
  2
VPORT
  5
18
330
0
100
AcDbSymbolTable
 70
1
  0
VPORT
  5
26
330
18
100
AcDbSymbolTableRecord
100
AcDbViewportTableRecord
  2
*Active
 70
0
 10
0.0
 20
0.0
 11
1.0
 21
1.0
 12
0.0
 22
0.0
 13
0.0
 23
0.0
 14
0.5
 24
0.5
 15
10.0
 25
10.0
 16
0.0
 26
0.0
 36
1.0
 17
0.0
 27
0.0
 37
0.0
 40
10.0
 41
1.0
 75
0
 76
1
  0
ENDTAB
  0
TABLE
  2
LTYPE
  5
14
330
0
100
AcDbSymbolTable
 70
3
  0
LTYPE
  5
19
330
14
100
AcDbSymbolTableRecord
100
AcDbLinetypeTableRecord
  2
ByLayer
 70
0
 72
0
 73
0
 40
0.0
  0
LTYPE
  5
1A
330
14
100
AcDbSymbolTableRecord
100
AcDbLinetypeTableRecord
  2
ByBlock
 70
0
 72
0
 73
0
 40
0.0
  0
LTYPE
  5
1B
330
14
100
AcDbSymbolTableRecord
100
AcDbLinetypeTableRecord
  2
Continuous
 70
0
 72
0
 73
0
 40
0.0
  0
ENDTAB
  0
TABLE
  2
LAYER
  5
13
330
0
100
AcDbSymbolTable
 70
1
  0
LAYER
  5
1C
330
13
100
AcDbSymbolTableRecord
100
AcDbLayerTableRecord
  2
0
 70
0
 62
7
  6
Continuous
290
1
370
-3
390
0
  0
ENDTAB
  0
TABLE
  2
STYLE
  5
15
330
0
100
AcDbSymbolTable
 70
1
  0
STYLE
  5
23
330
15
100
AcDbSymbolTableRecord
100
AcDbTextStyleTableRecord
  2
Standard
 70
0
 40
0.0
 41
1.0
 42
0.0
 50
0.0
 71
0
  0
ENDTAB
  0
TABLE
  2
VIEW
  5
17
330
0
100
AcDbSymbolTable
 70
0
  0
ENDTAB
  0
TABLE
  2
UCS
  5
16
330
0
100
AcDbSymbolTable
 70
0
  0
ENDTAB
  0
TABLE
  2
APPID
  5
10
330
0
100
AcDbSymbolTable
 70
1
  0
APPID
  5
25
330
10
100
AcDbSymbolTableRecord
100
AcDbRegAppTableRecord
  2
ACAD
 70
0
  0
ENDTAB
  0
TABLE
  2
DIMSTYLE
  5
12
330
0
100
AcDbSymbolTable
 70
1
100
AcDbDimStyleTable
  0
DIMSTYLE
105
24
330
12
100
AcDbSymbolTableRecord
100
AcDbDimStyleTableRecord
  2
Standard
 70
0
  3
<>
  4
[]
 40
1.0
 41
0.18
 42
0.625
 43
3.75
 44
1.25
 45
0.0
 46
0.0
 47
0.0
 48
0.0
 49
1.0
 50
45.0
 70
0
 90
0
140
0.18
141
0.09
142
0.0
143
25.3999999999999986
144
1.0
145
0.0
146
1.0
147
0.625
148
0.0
 71
0
 72
0
 73
0
 74
0
 75
0
 76
0
 77
1
 78
8
 79
0
170
0
171
3
172
0
173
1
174
0
175
0
176
0
177
0
178
0
179
0
271
2
272
2
273
2
274
3
275
0
276
0
277
2
278
46
279
0
280
0
281
0
282
0
283
0
284
8
285
0
286
0
287
0
288
0
289
3
290
0
340
0
371
-2
372
-2
  0
ENDTAB
  0
TABLE
  2
BLOCK_RECORD
  5
11
330
0
100
AcDbSymbolTable
 70
2
  0
BLOCK_RECORD
  5
1D
330
11
100
AcDbSymbolTableRecord
100
AcDbBlockTableRecord
  2
*Model_Space
 70
0
340
0
 70
0
280
0
281
1
  0
BLOCK_RECORD
  5
20
330
11
100
AcDbSymbolTableRecord
100
AcDbBlockTableRecord
  2
*Paper_Space
 70
0
340
0
 70
0
280
0
281
1
  0
ENDTAB
  0
ENDSEC
  0
SECTION
  2
BLOCKS
  0
BLOCK
  5
1E
330
1D
100
AcDbEntity
  8
0
  6
ByLayer
 62
256
 48
1.0
 60
0
 67
0
370
-1
100
AcDbBlockBegin
  2
*Model_Space
 70
0
 10
0.0
 20
0.0
 30
0.0
  3
*Model_Space
  0
ENDBLK
  5
1F
330
1D
100
AcDbEntity
  8
0
100
AcDbBlockEnd
  0
BLOCK
  5
21
330
20
100
AcDbEntity
  8
0
  6
ByLayer
 62
256
 48
1.0
 60
0
 67
1
370
-1
100
AcDbBlockBegin
  2
*Paper_Space
 70
0
 10
0.0
 20
0.0
 30
0.0
  3
*Paper_Space
  0
ENDBLK
  5
22
330
20
100
AcDbEntity
  8
0
100
AcDbBlockEnd
  0
ENDSEC
  0
SECTION
  2
ENTITIES
  0
TEXT
  5
27
330
1D
100
AcDbEntity
  8
0
  6
ByLayer
420
3355443
 48
1.0
 60
0
 67
0
370
-1
100
AcDbText
 39
0.0
 10
28.0
 20
904.0
 30
0.0
 40
30.0
  1
MathML Examples
 50
0.0
 41
1.0
 51
0.0
  7
Standard
 71
0
 72
0
 11
0.0
 21
0.0
 31
0.0
210
0.0
220
0.0
230
1.0
100
AcDbText
 73
0
  0
HATCH
  5
28
330
1D
100
AcDbEntity
  8
0
  6
ByLayer
420
16448250
 48
1.0
 60
0
 67
0
370
-1
100
AcDbHatch
 30
0.0
210
0.0
220
0.0
230
1.0
  2
SOLID
 70
1
 71
0
 91
1
 92
2
 72
0
 73
1
 93
4
 10
28.0
 20
869.0
 10
1252.0
 20
869.0
 10
1252.0
 20
787.0
 10
28.0
 20
787.0
 97
0
 75
0
 76
1
 47
0.0
 98
0
  0
LWPOLYLINE
  5
29
330
1D
100
AcDbEntity
  8
0
  6
ByLayer
420
12303291
 48
1.0
 60
0
 67
0
370
-1
100
AcDbPolyline
 90
4
 70
1
 43
0.0
 38
0.0
 39
0.0
210
0.0
220
0.0
230
1.0
 10
28.0
 20
869.0
 40
0.0
 41
0.0
 42
0.0
 10
1252.0
 20
869.0
 40
0.0
 41
0.0
 42
0.0
 10
1252.0
 20
787.0
 40
0.0
 41
0.0
 42
0.0
 10
28.0
 20
787.0
 40
0.0
 41
0.0
 42
0.0
  0
TEXT
  5
2A
330
1D
100
AcDbEntity
  8
0
  6
ByLayer
420
5592405
 48
1.0
 60
0
 67
0
370
-1
100
AcDbText
 39
0.0
 10
41.0
 20
839.609375
 30
0.0
 40
16.0
  1
Simple Fraction
 50
0.0
 41
1.0
 51
0.0
  7
Standard
 71
0
 72
0
 11
0.0
 21
0.0
 31
0.0
210
0.0
220
0.0
230
1.0
100
AcDbText
 73
0
  0
LWPOLYLINE
  5
2B
330
1D
100
AcDbEntity
  8
0
  6
ByLayer
420
2236962
 48
1.0
 60
0
 67
0
370
-1
100
AcDbPolyline
 90
2
 70
0
 43
0.0
 38
0.0
 39
0.0
210
0.0
220
0.0
230
1.0
 10
41.0
 20
813.015625
 40
0.0
 41
0.0
 42
0.0
 10
50.8125
 20
813.015625
 40
0.0
 41
0.0
 42
0.0
  0
LWPOLYLINE
  5
2C
330
1D
100
AcDbEntity
  8
0
  6
ByLayer
420
2236962
 48
1.0
 60
0
 67
0
370
-1
100
AcDbPolyline
 90
2
 70
0
 43
0.0
 38
0.0
 39
0.0
210
0.0
220
0.0
230
1.0
 10
72.984375
 20
813.015625
 40
0.0
 41
0.0
 42
0.0
 10
82.796875
 20
813.015625
 40
0.0
 41
0.0
 42
0.0
  0
LWPOLYLINE
  5
2D
330
1D
100
AcDbEntity
  8
0
  6
ByLayer
420
2236962
 48
1.0
 60
0
 67
0
370
-1
100
AcDbPolyline
 90
2
 70
0
 43
0.0
 38
0.0
 39
0.0
210
0.0
220
0.0
230
1.0
 10
107.4375
 20
813.015625
 40
0.0
 41
0.0
 42
0.0
 10
117.25
 20
813.015625
 40
0.0
 41
0.0
 42
0.0
  0
TEXT
  5
2E
330
1D
100
AcDbEntity
  8
0
  6
ByLayer
420
2236962
 48
1.0
 60
0
 67
0
370
-1
100
AcDbText
 39
0.0
 10
42.0
 20
816.2043750000000273
 30
0.0
 40
15.6199999999999992
  1
1
 50
0.0
 41
1.0
 51
0.0
  7
Standard
 71
0
 72
0
 11
0.0
 21
0.0
 31
0.0
210
0.0
220
0.0
230
1.0
100
AcDbText
 73
0
  0
TEXT
  5
2F
330
1D
100
AcDbEntity
  8
0
  6
ByLayer
420
2236962
 48
1.0
 60
0
 67
0
370
-1
100
AcDbText
 39
0.0
 10
42.0
 20
802.0168750000000273
 30
0.0
 40
15.6199999999999992
  1
2
 50
0.0
 41
1.0
 51
0.0
  7
Standard
 71
0
 72
0
 11
0.0
 21
0.0
 31
0.0
210
0.0
220
0.0
230
1.0
100
AcDbText
 73
0
  0
TEXT
  5
30
330
1D
100
AcDbEntity
  8
0
  6
ByLayer
420
2236962
 48
1.0
 60
0
 67
0
370
-1
100
AcDbText
 39
0.0
 10
55.6875
 20
810.109375
 30
0.0
 40
22.0
  1
+
 50
0.0
 41
1.0
 51
0.0
  7
Standard
 71
0
 72
0
 11
0.0
 21
0.0
 31
0.0
210
0.0
220
0.0
230
1.0
100
AcDbText
 73
0
  0
TEXT
  5
31
330
1D
100
AcDbEntity
  8
0
  6
ByLayer
420
2236962
 48
1.0
 60
0
 67
0
370
-1
100
AcDbText
 39
0.0
 10
73.984375
 20
816.2043750000000273
 30
0.0
 40
15.6199999999999992
  1
3
 50
0.0
 41
1.0
 51
0.0
  7
Standard
 71
0
 72
0
 11
0.0
 21
0.0
 31
0.0
210
0.0
220
0.0
230
1.0
100
AcDbText
 73
0
  0
TEXT
  5
32
330
1D
100
AcDbEntity
  8
0
  6
ByLayer
420
2236962
 48
1.0
 60
0
 67
0
370
-1
100
AcDbText
 39
0.0
 10
73.984375
 20
802.0168750000000273
 30
0.0
 40
15.6199999999999992
  1
4
 50
0.0
 41
1.0
 51
0.0
  7
Standard
 71
0
 72
0
 11
0.0
 21
0.0
 31
0.0
210
0.0
220
0.0
230
1.0
100
AcDbText
 73
0
  0
TEXT
  5
33
330
1D
100
AcDbEntity
  8
0
  6
ByLayer
420
2236962
 48
1.0
 60
0
 67
0
370
-1
100
AcDbText
 39
0.0
 10
88.90625
 20
810.109375
 30
0.0
 40
22.0
  1
=
 50
0.0
 41
1.0
 51
0.0
  7
Standard
 71
0
 72
0
 11
0.0
 21
0.0
 31
0.0
210
0.0
220
0.0
230
1.0
100
AcDbText
 73
0
  0
TEXT
  5
34
330
1D
100
AcDbEntity
  8
0
  6
ByLayer
420
2236962
 48
1.0
 60
0
 67
0
370
-1
100
AcDbText
 39
0.0
 10
108.4375
 20
816.2043750000000273
 30
0.0
 40
15.6199999999999992
  1
5
 50
0.0
 41
1.0
 51
0.0
  7
Standard
 71
0
 72
0
 11
0.0
 21
0.0
 31
0.0
210
0.0
220
0.0
230
1.0
100
AcDbText
 73
0
  0
TEXT
  5
35
330
1D
100
AcDbEntity
  8
0
  6
ByLayer
420
2236962
 48
1.0
 60
0
 67
0
370
-1
100
AcDbText
 39
0.0
 10
108.4375
 20
802.0168750000000273
 30
0.0
 40
15.6199999999999992
  1
4
 50
0.0
 41
1.0
 51
0.0
  7
Standard
 71
0
 72
0
 11
0.0
 21
0.0
 31
0.0
210
0.0
220
0.0
230
1.0
100
AcDbText
 73
0
  0
HATCH
  5
36
330
1D
100
AcDbEntity
  8
0
  6
ByLayer
420
16448250
 48
1.0
 60
0
 67
0
370
-1
100
AcDbHatch
 30
0.0
210
0.0
220
0.0
230
1.0
  2
SOLID
 70
1
 71
0
 91
1
 92
2
 72
0
 73
1
 93
4
 10
28.0
 20
772.0
 10
1252.0
 20
772.0
 10
1252.0
 20
684.0
 10
28.0
 20
684.0
 97
0
 75
0
 76
1
 47
0.0
 98
0
  0
LWPOLYLINE
  5
37
330
1D
100
AcDbEntity
  8
0
  6
ByLayer
420
12303291
 48
1.0
 60
0
 67
0
370
-1
100
AcDbPolyline
 90
4
 70
1
 43
0.0
 38
0.0
 39
0.0
210
0.0
220
0.0
230
1.0
 10
28.0
 20
772.0
 40
0.0
 41
0.0
 42
0.0
 10
1252.0
 20
772.0
 40
0.0
 41
0.0
 42
0.0
 10
1252.0
 20
684.0
 40
0.0
 41
0.0
 42
0.0
 10
28.0
 20
684.0
 40
0.0
 41
0.0
 42
0.0
  0
TEXT
  5
38
330
1D
100
AcDbEntity
  8
0
  6
ByLayer
420
5592405
 48
1.0
 60
0
 67
0
370
-1
100
AcDbText
 39
0.0
 10
41.0
 20
742.921875
 30
0.0
 40
16.0
  1
Quadratic Formula
 50
0.0
 41
1.0
 51
0.0
  7
Standard
 71
0
 72
0
 11
0.0
 21
0.0
 31
0.0
210
0.0
220
0.0
230
1.0
100
AcDbText
 73
0
  0
LWPOLYLINE
  5
39
330
1D
100
AcDbEntity
  8
0
  6
ByLayer
420
2236962
 48
1.0
 60
0
 67
0
370
-1
100
AcDbPolyline
 90
2
 70
0
 43
0.0
 38
0.0
 39
0.0
210
0.0
220
0.0
230
1.0
 10
77.359375
 20
709.859375
 40
0.0
 41
0.0
 42
0.0
 10
178.671875
 20
709.859375
 40
0.0
 41
0.0
 42
0.0
  0
LWPOLYLINE
  5
3A
330
1D
100
AcDbEntity
  8
0
  6
ByLayer
420
2236962
 48
1.0
 60
0
 67
0
370
-1
100
AcDbPolyline
 90
2
 70
0
 43
0.0
 38
0.0
 39
0.0
210
0.0
220
0.0
230
1.0
 10
120.40625
 20
729.421875
 40
0.0
 41
0.0
 42
0.0
 10
177.671875
 20
729.421875
 40
0.0
 41
0.0
 42
0.0
  0
LWPOLYLINE
  5
3B
330
1D
100
AcDbEntity
  8
0
  6
ByLayer
420
2236962
 48
1.0
 60
0
 67
0
370
-1
100
AcDbPolyline
 90
3
 70
0
 43
0.0
 38
0.0
 39
0.0
210
0.0
220
0.0
230
1.0
 10
113.1281249999999972
 20
719.5390625
 40
0.0
 41
0.0
 42
0.0
 10
115.2687499999999972
 20
711.453125
 40
0.0
 41
0.0
 42
0.0
 10
120.40625
 20
729.421875
 40
0.0
 41
0.0
 42
0.0
  0
TEXT
  5
3C
330
1D
100
AcDbEntity
  8
0
  6
ByLayer
420
2236962
 48
1.0
 60
0
 67
0
370
-1
100
AcDbText
 39
0.0
 10
41.0
 20
706.953125
 30
0.0
 40
22.0
  1
x
 50
0.0
 41
1.0
 51
0.0
  7
Standard
 71
0
 72
0
 11
0.0
 21
0.0
 31
0.0
210
0.0
220
0.0
230
1.0
100
AcDbText
 73
0
  0
TEXT
  5
3D
330
1D
100
AcDbEntity
  8
0
  6
ByLayer
420
2236962
 48
1.0
 60
0
 67
0
370
-1
100
AcDbText
 39
0.0
 10
58.828125
 20
706.953125
 30
0.0
 40
22.0
  1
=
 50
0.0
 41
1.0
 51
0.0
  7
Standard
 71
0
 72
0
 11
0.0
 21
0.0
 31
0.0
210
0.0
220
0.0
230
1.0
100
AcDbText
 73
0
  0
TEXT
  5
3E
330
1D
100
AcDbEntity
  8
0
  6
ByLayer
420
2236962
 48
1.0
 60
0
 67
0
370
-1
100
AcDbText
 39
0.0
 10
78.359375
 20
713.0481250000000273
 30
0.0
 40
15.6199999999999992
  1
?
 50
0.0
 41
1.0
 51
0.0
  7
Standard
 71
0
 72
0
 11
0.0
 21
0.0
 31
0.0
210
0.0
220
0.0
230
1.0
100
AcDbText
 73
0
  0
TEXT
  5
3F
330
1D
100
AcDbEntity
  8
0
  6
ByLayer
420
2236962
 48
1.0
 60
0
 67
0
370
-1
100
AcDbText
 39
0.0
 10
87.171875
 20
713.0481250000000273
 30
0.0
 40
15.6199999999999992
  1
b
 50
0.0
 41
1.0
 51
0.0
  7
Standard
 71
0
 72
0
 11
0.0
 21
0.0
 31
0.0
210
0.0
220
0.0
230
1.0
100
AcDbText
 73
0
  0
TEXT
  5
40
330
1D
100
AcDbEntity
  8
0
  6
ByLayer
420
2236962
 48
1.0
 60
0
 67
0
370
-1
100
AcDbText
 39
0.0
 10
99.71875
 20
713.0481250000000273
 30
0.0
 40
15.6199999999999992
  1
±
 50
0.0
 41
1.0
 51
0.0
  7
Standard
 71
0
 72
0
 11
0.0
 21
0.0
 31
0.0
210
0.0
220
0.0
230
1.0
100
AcDbText
 73
0
  0
TEXT
  5
41
330
1D
100
AcDbEntity
  8
0
  6
ByLayer
420
2236962
 48
1.0
 60
0
 67
0
370
-1
100
AcDbText
 39
0.0
 10
120.40625
 20
713.0481250000000273
 30
0.0
 40
15.6199999999999992
  1
b
 50
0.0
 41
1.0
 51
0.0
  7
Standard
 71
0
 72
0
 11
0.0
 21
0.0
 31
0.0
210
0.0
220
0.0
230
1.0
100
AcDbText
 73
0
  0
TEXT
  5
42
330
1D
100
AcDbEntity
  8
0
  6
ByLayer
420
2236962
 48
1.0
 60
0
 67
0
370
-1
100
AcDbText
 39
0.0
 10
129.40625
 20
720.1961999999999762
 30
0.0
 40
11.0901999999999994
  1
2
 50
0.0
 41
1.0
 51
0.0
  7
Standard
 71
0
 72
0
 11
0.0
 21
0.0
 31
0.0
210
0.0
220
0.0
230
1.0
100
AcDbText
 73
0
  0
TEXT
  5
43
330
1D
100
AcDbEntity
  8
0
  6
ByLayer
420
2236962
 48
1.0
 60
0
 67
0
370
-1
100
AcDbText
 39
0.0
 10
141.5
 20
713.0481250000000273
 30
0.0
 40
15.6199999999999992
  1
?
 50
0.0
 41
1.0
 51
0.0
  7
Standard
 71
0
 72
0
 11
0.0
 21
0.0
 31
0.0
210
0.0
220
0.0
230
1.0
100
AcDbText
 73
0
  0
TEXT
  5
44
330
1D
100
AcDbEntity
  8
0
  6
ByLayer
420
2236962
 48
1.0
 60
0
 67
0
370
-1
100
AcDbText
 39
0.0
 10
153.859375
 20
713.0481250000000273
 30
0.0
 40
15.6199999999999992
  1
4
 50
0.0
 41
1.0
 51
0.0
  7
Standard
 71
0
 72
0
 11
0.0
 21
0.0
 31
0.0
210
0.0
220
0.0
230
1.0
100
AcDbText
 73
0
  0
TEXT
  5
45
330
1D
100
AcDbEntity
  8
0
  6
ByLayer
420
2236962
 48
1.0
 60
0
 67
0
370
-1
100
AcDbText
 39
0.0
 10
161.671875
 20
713.0481250000000273
 30
0.0
 40
15.6199999999999992
  1
a
 50
0.0
 41
1.0
 51
0.0
  7
Standard
 71
0
 72
0
 11
0.0
 21
0.0
 31
0.0
210
0.0
220
0.0
230
1.0
100
AcDbText
 73
0
  0
TEXT
  5
46
330
1D
100
AcDbEntity
  8
0
  6
ByLayer
420
2236962
 48
1.0
 60
0
 67
0
370
-1
100
AcDbText
 39
0.0
 10
170.671875
 20
713.0481250000000273
 30
0.0
 40
15.6199999999999992
  1
c
 50
0.0
 41
1.0
 51
0.0
  7
Standard
 71
0
 72
0
 11
0.0
 21
0.0
 31
0.0
210
0.0
220
0.0
230
1.0
100
AcDbText
 73
0
  0
TEXT
  5
47
330
1D
100
AcDbEntity
  8
0
  6
ByLayer
420
2236962
 48
1.0
 60
0
 67
0
370
-1
100
AcDbText
 39
0.0
 10
119.609375
 20
698.8606250000000273
 30
0.0
 40
15.6199999999999992
  1
2
 50
0.0
 41
1.0
 51
0.0
  7
Standard
 71
0
 72
0
 11
0.0
 21
0.0
 31
0.0
210
0.0
220
0.0
230
1.0
100
AcDbText
 73
0
  0
TEXT
  5
48
330
1D
100
AcDbEntity
  8
0
  6
ByLayer
420
2236962
 48
1.0
 60
0
 67
0
370
-1
100
AcDbText
 39
0.0
 10
127.421875
 20
698.8606250000000273
 30
0.0
 40
15.6199999999999992
  1
a
 50
0.0
 41
1.0
 51
0.0
  7
Standard
 71
0
 72
0
 11
0.0
 21
0.0
 31
0.0
210
0.0
220
0.0
230
1.0
100
AcDbText
 73
0
  0
HATCH
  5
49
330
1D
100
AcDbEntity
  8
0
  6
ByLayer
420
16448250
 48
1.0
 60
0
 67
0
370
-1
100
AcDbHatch
 30
0.0
210
0.0
220
0.0
230
1.0
  2
SOLID
 70
1
 71
0
 91
1
 92
2
 72
0
 73
1
 93
4
 10
28.0
 20
669.0
 10
1252.0
 20
669.0
 10
1252.0
 20
581.0
 10
28.0
 20
581.0
 97
0
 75
0
 76
1
 47
0.0
 98
0
  0
LWPOLYLINE
  5
4A
330
1D
100
AcDbEntity
  8
0
  6
ByLayer
420
12303291
 48
1.0
 60
0
 67
0
370
-1
100
AcDbPolyline
 90
4
 70
1
 43
0.0
 38
0.0
 39
0.0
210
0.0
220
0.0
230
1.0
 10
28.0
 20
669.0
 40
0.0
 41
0.0
 42
0.0
 10
1252.0
 20
669.0
 40
0.0
 41
0.0
 42
0.0
 10
1252.0
 20
581.0
 40
0.0
 41
0.0
 42
0.0
 10
28.0
 20
581.0
 40
0.0
 41
0.0
 42
0.0
  0
TEXT
  5
4B
330
1D
100
AcDbEntity
  8
0
  6
ByLayer
420
5592405
 48
1.0
 60
0
 67
0
370
-1
100
AcDbText
 39
0.0
 10
41.0
 20
639.765625
 30
0.0
 40
16.0
  1
Summation
 50
0.0
 41
1.0
 51
0.0
  7
Standard
 71
0
 72
0
 11
0.0
 21
0.0
 31
0.0
210
0.0
220
0.0
230
1.0
100
AcDbText
 73
0
  0
LWPOLYLINE
  5
4C
330
1D
100
AcDbEntity
  8
0
  6
ByLayer
420
2236962
 48
1.0
 60
0
 67
0
370
-1
100
AcDbPolyline
 90
2
 70
0
 43
0.0
 38
0.0
 39
0.0
210
0.0
220
0.0
230
1.0
 10
141.9375
 20
609.078125
 40
0.0
 41
0.0
 42
0.0
 10
246.9375
 20
609.078125
 40
0.0
 41
0.0
 42
0.0
  0
TEXT
  5
4D
330
1D
100
AcDbEntity
  8
0
  6
ByLayer
420
2236962
 48
1.0
 60
0
 67
0
370
-1
100
AcDbText
 39
0.0
 10
44.65625
 20
606.171875
 30
0.0
 40
22.0
  1
?
 50
0.0
 41
1.0
 51
0.0
  7
Standard
 71
0
 72
0
 11
0.0
 21
0.0
 31
0.0
210
0.0
220
0.0
230
1.0
100
AcDbText
 73
0
  0
TEXT
  5
4E
330
1D
100
AcDbEntity
  8
0
  6
ByLayer
420
2236962
 48
1.0
 60
0
 67
0
370
-1
100
AcDbText
 39
0.0
 10
60.34375
 20
595.8606250000000273
 30
0.0
 40
15.6199999999999992
  1
i
 50
0.0
 41
1.0
 51
0.0
  7
Standard
 71
0
 72
0
 11
0.0
 21
0.0
 31
0.0
210
0.0
220
0.0
230
1.0
100
AcDbText
 73
0
  0
TEXT
  5
4F
330
1D
100
AcDbEntity
  8
0
  6
ByLayer
420
2236962
 48
1.0
 60
0
 67
0
370
-1
100
AcDbText
 39
0.0
 10
69.78125
 20
595.8606250000000273
 30
0.0
 40
15.6199999999999992
  1
=
 50
0.0
 41
1.0
 51
0.0
  7
Standard
 71
0
 72
0
 11
0.0
 21
0.0
 31
0.0
210
0.0
220
0.0
230
1.0
100
AcDbText
 73
0
  0
TEXT
  5
50
330
1D
100
AcDbEntity
  8
0
  6
ByLayer
420
2236962
 48
1.0
 60
0
 67
0
370
-1
100
AcDbText
 39
0.0
 10
83.03125
 20
595.8606250000000273
 30
0.0
 40
15.6199999999999992
  1
1
 50
0.0
 41
1.0
 51
0.0
  7
Standard
 71
0
 72
0
 11
0.0
 21
0.0
 31
0.0
210
0.0
220
0.0
230
1.0
100
AcDbText
 73
0
  0
TEXT
  5
51
330
1D
100
AcDbEntity
  8
0
  6
ByLayer
420
2236962
 48
1.0
 60
0
 67
0
370
-1
100
AcDbText
 39
0.0
 10
60.34375
 20
616.8606250000000273
 30
0.0
 40
15.6199999999999992
  1
n
 50
0.0
 41
1.0
 51
0.0
  7
Standard
 71
0
 72
0
 11
0.0
 21
0.0
 31
0.0
210
0.0
220
0.0
230
1.0
100
AcDbText
 73
0
  0
TEXT
  5
52
330
1D
100
AcDbEntity
  8
0
  6
ByLayer
420
2236962
 48
1.0
 60
0
 67
0
370
-1
100
AcDbText
 39
0.0
 10
98.5
 20
606.171875
 30
0.0
 40
22.0
  1
i
 50
0.0
 41
1.0
 51
0.0
  7
Standard
 71
0
 72
0
 11
0.0
 21
0.0
 31
0.0
210
0.0
220
0.0
230
1.0
100
AcDbText
 73
0
  0
TEXT
  5
53
330
1D
100
AcDbEntity
  8
0
  6
ByLayer
420
2236962
 48
1.0
 60
0
 67
0
370
-1
100
AcDbText
 39
0.0
 10
105.484375
 20
616.8606250000000273
 30
0.0
 40
15.6199999999999992
  1
2
 50
0.0
 41
1.0
 51
0.0
  7
Standard
 71
0
 72
0
 11
0.0
 21
0.0
 31
0.0
210
0.0
220
0.0
230
1.0
100
AcDbText
 73
0
  0
TEXT
  5
54
330
1D
100
AcDbEntity
  8
0
  6
ByLayer
420
2236962
 48
1.0
 60
0
 67
0
370
-1
100
AcDbText
 39
0.0
 10
123.40625
 20
606.171875
 30
0.0
 40
22.0
  1
=
 50
0.0
 41
1.0
 51
0.0
  7
Standard
 71
0
 72
0
 11
0.0
 21
0.0
 31
0.0
210
0.0
220
0.0
230
1.0
100
AcDbText
 73
0
  0
TEXT
  5
55
330
1D
100
AcDbEntity
  8
0
  6
ByLayer
420
2236962
 48
1.0
 60
0
 67
0
370
-1
100
AcDbText
 39
0.0
 10
142.9375
 20
615.7825000000000273
 30
0.0
 40
15.6199999999999992
  1
n
 50
0.0
 41
1.0
 51
0.0
  7
Standard
 71
0
 72
0
 11
0.0
 21
0.0
 31
0.0
210
0.0
220
0.0
230
1.0
100
AcDbText
 73
0
  0
TEXT
  5
56
330
1D
100
AcDbEntity
  8
0
  6
ByLayer
420
2236962
 48
1.0
 60
0
 67
0
370
-1
100
AcDbText
 39
0.0
 10
151.9375
 20
612.2668750000000273
 30
0.0
 40
15.6199999999999992
  1
(
 50
0.0
 41
1.0
 51
0.0
  7
Standard
 71
0
 72
0
 11
0.0
 21
0.0
 31
0.0
210
0.0
220
0.0
230
1.0
100
AcDbText
 73
0
  0
TEXT
  5
57
330
1D
100
AcDbEntity
  8
0
  6
ByLayer
420
2236962
 48
1.0
 60
0
 67
0
370
-1
100
AcDbText
 39
0.0
 10
157.125
 20
615.7825000000000273
 30
0.0
 40
15.6199999999999992
  1
n
 50
0.0
 41
1.0
 51
0.0
  7
Standard
 71
0
 72
0
 11
0.0
 21
0.0
 31
0.0
210
0.0
220
0.0
230
1.0
100
AcDbText
 73
0
  0
TEXT
  5
58
330
1D
100
AcDbEntity
  8
0
  6
ByLayer
420
2236962
 48
1.0
 60
0
 67
0
370
-1
100
AcDbText
 39
0.0
 10
169.671875
 20
615.7825000000000273
 30
0.0
 40
15.6199999999999992
  1
+
 50
0.0
 41
1.0
 51
0.0
  7
Standard
 71
0
 72
0
 11
0.0
 21
0.0
 31
0.0
210
0.0
220
0.0
230
1.0
100
AcDbText
 73
0
  0
TEXT
  5
59
330
1D
100
AcDbEntity
  8
0
  6
ByLayer
420
2236962
 48
1.0
 60
0
 67
0
370
-1
100
AcDbText
 39
0.0
 10
182.03125
 20
615.7825000000000273
 30
0.0
 40
15.6199999999999992
  1
1
 50
0.0
 41
1.0
 51
0.0
  7
Standard
 71
0
 72
0
 11
0.0
 21
0.0
 31
0.0
210
0.0
220
0.0
230
1.0
100
AcDbText
 73
0
  0
TEXT
  5
5A
330
1D
100
AcDbEntity
  8
0
  6
ByLayer
420
2236962
 48
1.0
 60
0
 67
0
370
-1
100
AcDbText
 39
0.0
 10
189.84375
 20
612.2668750000000273
 30
0.0
 40
15.6199999999999992
  1
)
 50
0.0
 41
1.0
 51
0.0
  7
Standard
 71
0
 72
0
 11
0.0
 21
0.0
 31
0.0
210
0.0
220
0.0
230
1.0
100
AcDbText
 73
0
  0
TEXT
  5
5B
330
1D
100
AcDbEntity
  8
0
  6
ByLayer
420
2236962
 48
1.0
 60
0
 67
0
370
-1
100
AcDbText
 39
0.0
 10
195.03125
 20
612.2668750000000273
 30
0.0
 40
15.6199999999999992
  1
(
 50
0.0
 41
1.0
 51
0.0
  7
Standard
 71
0
 72
0
 11
0.0
 21
0.0
 31
0.0
210
0.0
220
0.0
230
1.0
100
AcDbText
 73
0
  0
TEXT
  5
5C
330
1D
100
AcDbEntity
  8
0
  6
ByLayer
420
2236962
 48
1.0
 60
0
 67
0
370
-1
100
AcDbText
 39
0.0
 10
200.21875
 20
615.7825000000000273
 30
0.0
 40
15.6199999999999992
  1
2
 50
0.0
 41
1.0
 51
0.0
  7
Standard
 71
0
 72
0
 11
0.0
 21
0.0
 31
0.0
210
0.0
220
0.0
230
1.0
100
AcDbText
 73
0
  0
TEXT
  5
5D
330
1D
100
AcDbEntity
  8
0
  6
ByLayer
420
2236962
 48
1.0
 60
0
 67
0
370
-1
100
AcDbText
 39
0.0
 10
208.03125
 20
615.7825000000000273
 30
0.0
 40
15.6199999999999992
  1
n
 50
0.0
 41
1.0
 51
0.0
  7
Standard
 71
0
 72
0
 11
0.0
 21
0.0
 31
0.0
210
0.0
220
0.0
230
1.0
100
AcDbText
 73
0
  0
TEXT
  5
5E
330
1D
100
AcDbEntity
  8
0
  6
ByLayer
420
2236962
 48
1.0
 60
0
 67
0
370
-1
100
AcDbText
 39
0.0
 10
220.578125
 20
615.7825000000000273
 30
0.0
 40
15.6199999999999992
  1
+
 50
0.0
 41
1.0
 51
0.0
  7
Standard
 71
0
 72
0
 11
0.0
 21
0.0
 31
0.0
210
0.0
220
0.0
230
1.0
100
AcDbText
 73
0
  0
TEXT
  5
5F
330
1D
100
AcDbEntity
  8
0
  6
ByLayer
420
2236962
 48
1.0
 60
0
 67
0
370
-1
100
AcDbText
 39
0.0
 10
232.9375
 20
615.7825000000000273
 30
0.0
 40
15.6199999999999992
  1
1
 50
0.0
 41
1.0
 51
0.0
  7
Standard
 71
0
 72
0
 11
0.0
 21
0.0
 31
0.0
210
0.0
220
0.0
230
1.0
100
AcDbText
 73
0
  0
TEXT
  5
60
330
1D
100
AcDbEntity
  8
0
  6
ByLayer
420
2236962
 48
1.0
 60
0
 67
0
370
-1
100
AcDbText
 39
0.0
 10
240.75
 20
612.2668750000000273
 30
0.0
 40
15.6199999999999992
  1
)
 50
0.0
 41
1.0
 51
0.0
  7
Standard
 71
0
 72
0
 11
0.0
 21
0.0
 31
0.0
210
0.0
220
0.0
230
1.0
100
AcDbText
 73
0
  0
TEXT
  5
61
330
1D
100
AcDbEntity
  8
0
  6
ByLayer
420
2236962
 48
1.0
 60
0
 67
0
370
-1
100
AcDbText
 39
0.0
 10
190.53125
 20
598.0793750000000273
 30
0.0
 40
15.6199999999999992
  1
6
 50
0.0
 41
1.0
 51
0.0
  7
Standard
 71
0
 72
0
 11
0.0
 21
0.0
 31
0.0
210
0.0
220
0.0
230
1.0
100
AcDbText
 73
0
  0
HATCH
  5
62
330
1D
100
AcDbEntity
  8
0
  6
ByLayer
420
16448250
 48
1.0
 60
0
 67
0
370
-1
100
AcDbHatch
 30
0.0
210
0.0
220
0.0
230
1.0
  2
SOLID
 70
1
 71
0
 91
1
 92
2
 72
0
 73
1
 93
4
 10
28.0
 20
566.0
 10
1252.0
 20
566.0
 10
1252.0
 20
436.0
 10
28.0
 20
436.0
 97
0
 75
0
 76
1
 47
0.0
 98
0
  0
LWPOLYLINE
  5
63
330
1D
100
AcDbEntity
  8
0
  6
ByLayer
420
12303291
 48
1.0
 60
0
 67
0
370
-1
100
AcDbPolyline
 90
4
 70
1
 43
0.0
 38
0.0
 39
0.0
210
0.0
220
0.0
230
1.0
 10
28.0
 20
566.0
 40
0.0
 41
0.0
 42
0.0
 10
1252.0
 20
566.0
 40
0.0
 41
0.0
 42
0.0
 10
1252.0
 20
436.0
 40
0.0
 41
0.0
 42
0.0
 10
28.0
 20
436.0
 40
0.0
 41
0.0
 42
0.0
  0
TEXT
  5
64
330
1D
100
AcDbEntity
  8
0
  6
ByLayer
420
5592405
 48
1.0
 60
0
 67
0
370
-1
100
AcDbText
 39
0.0
 10
41.0
 20
536.765625
 30
0.0
 40
16.0
  1
Matrix
 50
0.0
 41
1.0
 51
0.0
  7
Standard
 71
0
 72
0
 11
0.0
 21
0.0
 31
0.0
210
0.0
220
0.0
230
1.0
100
AcDbText
 73
0
  0
TEXT
  5
65
330
1D
100
AcDbEntity
  8
0
  6
ByLayer
420
2236962
 48
1.0
 60
0
 67
0
370
-1
100
AcDbText
 39
0.0
 10
41.0
 20
478.046875
 30
0.0
 40
22.0
  1
[
 50
0.0
 41
1.0
 51
0.0
  7
Standard
 71
0
 72
0
 11
0.0
 21
0.0
 31
0.0
210
0.0
220
0.0
230
1.0
100
AcDbText
 73
0
  0
TEXT
  5
66
330
1D
100
AcDbEntity
  8
0
  6
ByLayer
420
2236962
 48
1.0
 60
0
 67
0
370
-1
100
AcDbText
 39
0.0
 10
57.109375
 20
505.359375
 30
0.0
 40
22.0
  1
1
 50
0.0
 41
1.0
 51
0.0
  7
Standard
 71
0
 72
0
 11
0.0
 21
0.0
 31
0.0
210
0.0
220
0.0
230
1.0
100
AcDbText
 73
0
  0
TEXT
  5
67
330
1D
100
AcDbEntity
  8
0
  6
ByLayer
420
2236962
 48
1.0
 60
0
 67
0
370
-1
100
AcDbText
 39
0.0
 10
85.703125
 20
505.359375
 30
0.0
 40
22.0
  1
0
 50
0.0
 41
1.0
 51
0.0
  7
Standard
 71
0
 72
0
 11
0.0
 21
0.0
 31
0.0
210
0.0
220
0.0
230
1.0
100
AcDbText
 73
0
  0
TEXT
  5
68
330
1D
100
AcDbEntity
  8
0
  6
ByLayer
420
2236962
 48
1.0
 60
0
 67
0
370
-1
100
AcDbText
 39
0.0
 10
114.296875
 20
505.359375
 30
0.0
 40
22.0
  1
0
 50
0.0
 41
1.0
 51
0.0
  7
Standard
 71
0
 72
0
 11
0.0
 21
0.0
 31
0.0
210
0.0
220
0.0
230
1.0
100
AcDbText
 73
0
  0
TEXT
  5
69
330
1D
100
AcDbEntity
  8
0
  6
ByLayer
420
2236962
 48
1.0
 60
0
 67
0
370
-1
100
AcDbText
 39
0.0
 10
57.109375
 20
480.546875
 30
0.0
 40
22.0
  1
0
 50
0.0
 41
1.0
 51
0.0
  7
Standard
 71
0
 72
0
 11
0.0
 21
0.0
 31
0.0
210
0.0
220
0.0
230
1.0
100
AcDbText
 73
0
  0
TEXT
  5
6A
330
1D
100
AcDbEntity
  8
0
  6
ByLayer
420
2236962
 48
1.0
 60
0
 67
0
370
-1
100
AcDbText
 39
0.0
 10
85.703125
 20
480.546875
 30
0.0
 40
22.0
  1
1
 50
0.0
 41
1.0
 51
0.0
  7
Standard
 71
0
 72
0
 11
0.0
 21
0.0
 31
0.0
210
0.0
220
0.0
230
1.0
100
AcDbText
 73
0
  0
TEXT
  5
6B
330
1D
100
AcDbEntity
  8
0
  6
ByLayer
420
2236962
 48
1.0
 60
0
 67
0
370
-1
100
AcDbText
 39
0.0
 10
114.296875
 20
480.546875
 30
0.0
 40
22.0
  1
0
 50
0.0
 41
1.0
 51
0.0
  7
Standard
 71
0
 72
0
 11
0.0
 21
0.0
 31
0.0
210
0.0
220
0.0
230
1.0
100
AcDbText
 73
0
  0
TEXT
  5
6C
330
1D
100
AcDbEntity
  8
0
  6
ByLayer
420
2236962
 48
1.0
 60
0
 67
0
370
-1
100
AcDbText
 39
0.0
 10
57.109375
 20
455.734375
 30
0.0
 40
22.0
  1
0
 50
0.0
 41
1.0
 51
0.0
  7
Standard
 71
0
 72
0
 11
0.0
 21
0.0
 31
0.0
210
0.0
220
0.0
230
1.0
100
AcDbText
 73
0
  0
TEXT
  5
6D
330
1D
100
AcDbEntity
  8
0
  6
ByLayer
420
2236962
 48
1.0
 60
0
 67
0
370
-1
100
AcDbText
 39
0.0
 10
85.703125
 20
455.734375
 30
0.0
 40
22.0
  1
0
 50
0.0
 41
1.0
 51
0.0
  7
Standard
 71
0
 72
0
 11
0.0
 21
0.0
 31
0.0
210
0.0
220
0.0
230
1.0
100
AcDbText
 73
0
  0
TEXT
  5
6E
330
1D
100
AcDbEntity
  8
0
  6
ByLayer
420
2236962
 48
1.0
 60
0
 67
0
370
-1
100
AcDbText
 39
0.0
 10
114.296875
 20
455.734375
 30
0.0
 40
22.0
  1
1
 50
0.0
 41
1.0
 51
0.0
  7
Standard
 71
0
 72
0
 11
0.0
 21
0.0
 31
0.0
210
0.0
220
0.0
230
1.0
100
AcDbText
 73
0
  0
TEXT
  5
6F
330
1D
100
AcDbEntity
  8
0
  6
ByLayer
420
2236962
 48
1.0
 60
0
 67
0
370
-1
100
AcDbText
 39
0.0
 10
134.09375
 20
478.046875
 30
0.0
 40
22.0
  1
]
 50
0.0
 41
1.0
 51
0.0
  7
Standard
 71
0
 72
0
 11
0.0
 21
0.0
 31
0.0
210
0.0
220
0.0
230
1.0
100
AcDbText
 73
0
  0
HATCH
  5
70
330
1D
100
AcDbEntity
  8
0
  6
ByLayer
420
16448250
 48
1.0
 60
0
 67
0
370
-1
100
AcDbHatch
 30
0.0
210
0.0
220
0.0
230
1.0
  2
SOLID
 70
1
 71
0
 91
1
 92
2
 72
0
 73
1
 93
4
 10
28.0
 20
421.0
 10
1252.0
 20
421.0
 10
1252.0
 20
336.0
 10
28.0
 20
336.0
 97
0
 75
0
 76
1
 47
0.0
 98
0
  0
LWPOLYLINE
  5
71
330
1D
100
AcDbEntity
  8
0
  6
ByLayer
420
12303291
 48
1.0
 60
0
 67
0
370
-1
100
AcDbPolyline
 90
4
 70
1
 43
0.0
 38
0.0
 39
0.0
210
0.0
220
0.0
230
1.0
 10
28.0
 20
421.0
 40
0.0
 41
0.0
 42
0.0
 10
1252.0
 20
421.0
 40
0.0
 41
0.0
 42
0.0
 10
1252.0
 20
336.0
 40
0.0
 41
0.0
 42
0.0
 10
28.0
 20
336.0
 40
0.0
 41
0.0
 42
0.0
  0
TEXT
  5
72
330
1D
100
AcDbEntity
  8
0
  6
ByLayer
420
5592405
 48
1.0
 60
0
 67
0
370
-1
100
AcDbText
 39
0.0
 10
41.0
 20
391.328125
 30
0.0
 40
16.0
  1
Integral
 50
0.0
 41
1.0
 51
0.0
  7
Standard
 71
0
 72
0
 11
0.0
 21
0.0
 31
0.0
210
0.0
220
0.0
230
1.0
100
AcDbText
 73
0
  0
TEXT
  5
73
330
1D
100
AcDbEntity
  8
0
  6
ByLayer
420
2236962
 48
1.0
 60
0
 67
0
370
-1
100
AcDbText
 39
0.0
 10
44.65625
 20
357.734375
 30
0.0
 40
22.0
  1
?
 50
0.0
 41
1.0
 51
0.0
  7
Standard
 71
0
 72
0
 11
0.0
 21
0.0
 31
0.0
210
0.0
220
0.0
230
1.0
100
AcDbText
 73
0
  0
TEXT
  5
74
330
1D
100
AcDbEntity
  8
0
  6
ByLayer
420
2236962
 48
1.0
 60
0
 67
0
370
-1
100
AcDbText
 39
0.0
 10
50.6875
 20
350.4231250000000273
 30
0.0
 40
15.6199999999999992
  1
0
 50
0.0
 41
1.0
 51
0.0
  7
Standard
 71
0
 72
0
 11
0.0
 21
0.0
 31
0.0
210
0.0
220
0.0
230
1.0
100
AcDbText
 73
0
  0
TEXT
  5
75
330
1D
100
AcDbEntity
  8
0
  6
ByLayer
420
2236962
 48
1.0
 60
0
 67
0
370
-1
100
AcDbText
 39
0.0
 10
50.6875
 20
372.4231250000000273
 30
0.0
 40
15.6199999999999992
  1
?
 50
0.0
 41
1.0
 51
0.0
  7
Standard
 71
0
 72
0
 11
0.0
 21
0.0
 31
0.0
210
0.0
220
0.0
230
1.0
100
AcDbText
 73
0
  0
TEXT
  5
76
330
1D
100
AcDbEntity
  8
0
  6
ByLayer
420
2236962
 48
1.0
 60
0
 67
0
370
-1
100
AcDbText
 39
0.0
 10
69.484375
 20
357.734375
 30
0.0
 40
22.0
  1
e
 50
0.0
 41
1.0
 51
0.0
  7
Standard
 71
0
 72
0
 11
0.0
 21
0.0
 31
0.0
210
0.0
220
0.0
230
1.0
100
AcDbText
 73
0
  0
TEXT
  5
77
330
1D
100
AcDbEntity
  8
0
  6
ByLayer
420
2236962
 48
1.0
 60
0
 67
0
370
-1
100
AcDbText
 39
0.0
 10
80.40625
 20
367.1575000000000273
 30
0.0
 40
15.6199999999999992
  1
?
 50
0.0
 41
1.0
 51
0.0
  7
Standard
 71
0
 72
0
 11
0.0
 21
0.0
 31
0.0
210
0.0
220
0.0
230
1.0
100
AcDbText
 73
0
  0
TEXT
  5
78
330
1D
100
AcDbEntity
  8
0
  6
ByLayer
420
2236962
 48
1.0
 60
0
 67
0
370
-1
100
AcDbText
 39
0.0
 10
89.21875
 20
367.1575000000000273
 30
0.0
 40
15.6199999999999992
  1
x
 50
0.0
 41
1.0
 51
0.0
  7
Standard
 71
0
 72
0
 11
0.0
 21
0.0
 31
0.0
210
0.0
220
0.0
230
1.0
100
AcDbText
 73
0
  0
TEXT
  5
79
330
1D
100
AcDbEntity
  8
0
  6
ByLayer
420
2236962
 48
1.0
 60
0
 67
0
370
-1
100
AcDbText
 39
0.0
 10
102.21875
 20
357.734375
 30
0.0
 40
22.0
  1
d
 50
0.0
 41
1.0
 51
0.0
  7
Standard
 71
0
 72
0
 11
0.0
 21
0.0
 31
0.0
210
0.0
220
0.0
230
1.0
100
AcDbText
 73
0
  0
TEXT
  5
7A
330
1D
100
AcDbEntity
  8
0
  6
ByLayer
420
2236962
 48
1.0
 60
0
 67
0
370
-1
100
AcDbText
 39
0.0
 10
114.984375
 20
357.734375
 30
0.0
 40
22.0
  1
x
 50
0.0
 41
1.0
 51
0.0
  7
Standard
 71
0
 72
0
 11
0.0
 21
0.0
 31
0.0
210
0.0
220
0.0
230
1.0
100
AcDbText
 73
0
  0
TEXT
  5
7B
330
1D
100
AcDbEntity
  8
0
  6
ByLayer
420
2236962
 48
1.0
 60
0
 67
0
370
-1
100
AcDbText
 39
0.0
 10
132.8125
 20
357.734375
 30
0.0
 40
22.0
  1
=
 50
0.0
 41
1.0
 51
0.0
  7
Standard
 71
0
 72
0
 11
0.0
 21
0.0
 31
0.0
210
0.0
220
0.0
230
1.0
100
AcDbText
 73
0
  0
TEXT
  5
7C
330
1D
100
AcDbEntity
  8
0
  6
ByLayer
420
2236962
 48
1.0
 60
0
 67
0
370
-1
100
AcDbText
 39
0.0
 10
151.34375
 20
357.734375
 30
0.0
 40
22.0
  1
1
 50
0.0
 41
1.0
 51
0.0
  7
Standard
 71
0
 72
0
 11
0.0
 21
0.0
 31
0.0
210
0.0
220
0.0
230
1.0
100
AcDbText
 73
0
  0
HATCH
  5
7D
330
1D
100
AcDbEntity
  8
0
  6
ByLayer
420
16448250
 48
1.0
 60
0
 67
0
370
-1
100
AcDbHatch
 30
0.0
210
0.0
220
0.0
230
1.0
  2
SOLID
 70
1
 71
0
 91
1
 92
2
 72
0
 73
1
 93
4
 10
28.0
 20
321.0
 10
1252.0
 20
321.0
 10
1252.0
 20
238.0
 10
28.0
 20
238.0
 97
0
 75
0
 76
1
 47
0.0
 98
0
  0
LWPOLYLINE
  5
7E
330
1D
100
AcDbEntity
  8
0
  6
ByLayer
420
12303291
 48
1.0
 60
0
 67
0
370
-1
100
AcDbPolyline
 90
4
 70
1
 43
0.0
 38
0.0
 39
0.0
210
0.0
220
0.0
230
1.0
 10
28.0
 20
321.0
 40
0.0
 41
0.0
 42
0.0
 10
1252.0
 20
321.0
 40
0.0
 41
0.0
 42
0.0
 10
1252.0
 20
238.0
 40
0.0
 41
0.0
 42
0.0
 10
28.0
 20
238.0
 40
0.0
 41
0.0
 42
0.0
  0
TEXT
  5
7F
330
1D
100
AcDbEntity
  8
0
  6
ByLayer
420
5592405
 48
1.0
 60
0
 67
0
370
-1
100
AcDbText
 39
0.0
 10
41.0
 20
291.328125
 30
0.0
 40
16.0
  1
Superscript & Subscript
 50
0.0
 41
1.0
 51
0.0
  7
Standard
 71
0
 72
0
 11
0.0
 21
0.0
 31
0.0
210
0.0
220
0.0
230
1.0
100
AcDbText
 73
0
  0
TEXT
  5
80
330
1D
100
AcDbEntity
  8
0
  6
ByLayer
420
2236962
 48
1.0
 60
0
 67
0
370
-1
100
AcDbText
 39
0.0
 10
41.0
 20
257.734375
 30
0.0
 40
22.0
  1
a
 50
0.0
 41
1.0
 51
0.0
  7
Standard
 71
0
 72
0
 11
0.0
 21
0.0
 31
0.0
210
0.0
220
0.0
230
1.0
100
AcDbText
 73
0
  0
TEXT
  5
81
330
1D
100
AcDbEntity
  8
0
  6
ByLayer
420
2236962
 48
1.0
 60
0
 67
0
370
-1
100
AcDbText
 39
0.0
 10
53.265625
 20
267.1575000000000273
 30
0.0
 40
15.6199999999999992
  1
2
 50
0.0
 41
1.0
 51
0.0
  7
Standard
 71
0
 72
0
 11
0.0
 21
0.0
 31
0.0
210
0.0
220
0.0
230
1.0
100
AcDbText
 73
0
  0
TEXT
  5
82
330
1D
100
AcDbEntity
  8
0
  6
ByLayer
420
2236962
 48
1.0
 60
0
 67
0
370
-1
100
AcDbText
 39
0.0
 10
69.953125
 20
257.734375
 30
0.0
 40
22.0
  1
+
 50
0.0
 41
1.0
 51
0.0
  7
Standard
 71
0
 72
0
 11
0.0
 21
0.0
 31
0.0
210
0.0
220
0.0
230
1.0
100
AcDbText
 73
0
  0
TEXT
  5
83
330
1D
100
AcDbEntity
  8
0
  6
ByLayer
420
2236962
 48
1.0
 60
0
 67
0
370
-1
100
AcDbText
 39
0.0
 10
87.25
 20
257.734375
 30
0.0
 40
22.0
  1
b
 50
0.0
 41
1.0
 51
0.0
  7
Standard
 71
0
 72
0
 11
0.0
 21
0.0
 31
0.0
210
0.0
220
0.0
230
1.0
100
AcDbText
 73
0
  0
TEXT
  5
84
330
1D
100
AcDbEntity
  8
0
  6
ByLayer
420
2236962
 48
1.0
 60
0
 67
0
370
-1
100
AcDbText
 39
0.0
 10
99.109375
 20
268.4231250000000273
 30
0.0
 40
15.6199999999999992
  1
2
 50
0.0
 41
1.0
 51
0.0
  7
Standard
 71
0
 72
0
 11
0.0
 21
0.0
 31
0.0
210
0.0
220
0.0
230
1.0
100
AcDbText
 73
0
  0
TEXT
  5
85
330
1D
100
AcDbEntity
  8
0
  6
ByLayer
420
2236962
 48
1.0
 60
0
 67
0
370
-1
100
AcDbText
 39
0.0
 10
117.03125
 20
257.734375
 30
0.0
 40
22.0
  1
=
 50
0.0
 41
1.0
 51
0.0
  7
Standard
 71
0
 72
0
 11
0.0
 21
0.0
 31
0.0
210
0.0
220
0.0
230
1.0
100
AcDbText
 73
0
  0
TEXT
  5
86
330
1D
100
AcDbEntity
  8
0
  6
ByLayer
420
2236962
 48
1.0
 60
0
 67
0
370
-1
100
AcDbText
 39
0.0
 10
135.5625
 20
257.734375
 30
0.0
 40
22.0
  1
c
 50
0.0
 41
1.0
 51
0.0
  7
Standard
 71
0
 72
0
 11
0.0
 21
0.0
 31
0.0
210
0.0
220
0.0
230
1.0
100
AcDbText
 73
0
  0
TEXT
  5
87
330
1D
100
AcDbEntity
  8
0
  6
ByLayer
420
2236962
 48
1.0
 60
0
 67
0
370
-1
100
AcDbText
 39
0.0
 10
145.6875
 20
267.1575000000000273
 30
0.0
 40
15.6199999999999992
  1
2
 50
0.0
 41
1.0
 51
0.0
  7
Standard
 71
0
 72
0
 11
0.0
 21
0.0
 31
0.0
210
0.0
220
0.0
230
1.0
100
AcDbText
 73
0
  0
TEXT
  5
88
330
1D
100
AcDbEntity
  8
0
  6
ByLayer
420
2236962
 48
1.0
 60
0
 67
0
370
-1
100
AcDbText
 39
0.0
 10
202.5
 20
257.734375
 30
0.0
 40
22.0
  1
H
 50
0.0
 41
1.0
 51
0.0
  7
Standard
 71
0
 72
0
 11
0.0
 21
0.0
 31
0.0
210
0.0
220
0.0
230
1.0
100
AcDbText
 73
0
  0
TEXT
  5
89
330
1D
100
AcDbEntity
  8
0
  6
ByLayer
420
2236962
 48
1.0
 60
0
 67
0
370
-1
100
AcDbText
 39
0.0
 10
218.53125
 20
252.4231250000000273
 30
0.0
 40
15.6199999999999992
  1
2
 50
0.0
 41
1.0
 51
0.0
  7
Standard
 71
0
 72
0
 11
0.0
 21
0.0
 31
0.0
210
0.0
220
0.0
230
1.0
100
AcDbText
 73
0
  0
TEXT
  5
8A
330
1D
100
AcDbEntity
  8
0
  6
ByLayer
420
2236962
 48
1.0
 60
0
 67
0
370
-1
100
AcDbText
 39
0.0
 10
230.34375
 20
257.734375
 30
0.0
 40
22.0
  1
O
 50
0.0
 41
1.0
 51
0.0
  7
Standard
 71
0
 72
0
 11
0.0
 21
0.0
 31
0.0
210
0.0
220
0.0
230
1.0
100
AcDbText
 73
0
  0
HATCH
  5
8B
330
1D
100
AcDbEntity
  8
0
  6
ByLayer
420
16448250
 48
1.0
 60
0
 67
0
370
-1
100
AcDbHatch
 30
0.0
210
0.0
220
0.0
230
1.0
  2
SOLID
 70
1
 71
0
 91
1
 92
2
 72
0
 73
1
 93
4
 10
28.0
 20
223.0
 10
1252.0
 20
223.0
 10
1252.0
 20
136.0
 10
28.0
 20
136.0
 97
0
 75
0
 76
1
 47
0.0
 98
0
  0
LWPOLYLINE
  5
8C
330
1D
100
AcDbEntity
  8
0
  6
ByLayer
420
12303291
 48
1.0
 60
0
 67
0
370
-1
100
AcDbPolyline
 90
4
 70
1
 43
0.0
 38
0.0
 39
0.0
210
0.0
220
0.0
230
1.0
 10
28.0
 20
223.0
 40
0.0
 41
0.0
 42
0.0
 10
1252.0
 20
223.0
 40
0.0
 41
0.0
 42
0.0
 10
1252.0
 20
136.0
 40
0.0
 41
0.0
 42
0.0
 10
28.0
 20
136.0
 40
0.0
 41
0.0
 42
0.0
  0
TEXT
  5
8D
330
1D
100
AcDbEntity
  8
0
  6
ByLayer
420
5592405
 48
1.0
 60
0
 67
0
370
-1
100
AcDbText
 39
0.0
 10
41.0
 20
193.234375
 30
0.0
 40
16.0
  1
Square Root
 50
0.0
 41
1.0
 51
0.0
  7
Standard
 71
0
 72
0
 11
0.0
 21
0.0
 31
0.0
210
0.0
220
0.0
230
1.0
100
AcDbText
 73
0
  0
LWPOLYLINE
  5
8E
330
1D
100
AcDbEntity
  8
0
  6
ByLayer
420
2236962
 48
1.0
 60
0
 67
0
370
-1
100
AcDbPolyline
 90
2
 70
0
 43
0.0
 38
0.0
 39
0.0
210
0.0
220
0.0
230
1.0
 10
53.0625
 20
179.734375
 40
0.0
 41
0.0
 42
0.0
 10
122.984375
 20
179.734375
 40
0.0
 41
0.0
 42
0.0
  0
LWPOLYLINE
  5
8F
330
1D
100
AcDbEntity
  8
0
  6
ByLayer
420
2236962
 48
1.0
 60
0
 67
0
370
-1
100
AcDbPolyline
 90
3
 70
0
 43
0.0
 38
0.0
 39
0.0
210
0.0
220
0.0
230
1.0
 10
42.8093750000000028
 20
165.68359375
 40
0.0
 41
0.0
 42
0.0
 10
45.8250000000000028
 20
154.1875
 40
0.0
 41
0.0
 42
0.0
 10
53.0625
 20
179.734375
 40
0.0
 41
0.0
 42
0.0
  0
TEXT
  5
90
330
1D
100
AcDbEntity
  8
0
  6
ByLayer
420
2236962
 48
1.0
 60
0
 67
0
370
-1
100
AcDbText
 39
0.0
 10
53.0625
 20
156.1875
 30
0.0
 40
22.0
  1
a
 50
0.0
 41
1.0
 51
0.0
  7
Standard
 71
0
 72
0
 11
0.0
 21
0.0
 31
0.0
210
0.0
220
0.0
230
1.0
100
AcDbText
 73
0
  0
TEXT
  5
91
330
1D
100
AcDbEntity
  8
0
  6
ByLayer
420
2236962
 48
1.0
 60
0
 67
0
370
-1
100
AcDbText
 39
0.0
 10
65.328125
 20
165.6106250000000273
 30
0.0
 40
15.6199999999999992
  1
2
 50
0.0
 41
1.0
 51
0.0
  7
Standard
 71
0
 72
0
 11
0.0
 21
0.0
 31
0.0
210
0.0
220
0.0
230
1.0
100
AcDbText
 73
0
  0
TEXT
  5
92
330
1D
100
AcDbEntity
  8
0
  6
ByLayer
420
2236962
 48
1.0
 60
0
 67
0
370
-1
100
AcDbText
 39
0.0
 10
82.015625
 20
156.1875
 30
0.0
 40
22.0
  1
+
 50
0.0
 41
1.0
 51
0.0
  7
Standard
 71
0
 72
0
 11
0.0
 21
0.0
 31
0.0
210
0.0
220
0.0
230
1.0
100
AcDbText
 73
0
  0
TEXT
  5
93
330
1D
100
AcDbEntity
  8
0
  6
ByLayer
420
2236962
 48
1.0
 60
0
 67
0
370
-1
100
AcDbText
 39
0.0
 10
99.3125
 20
156.1875
 30
0.0
 40
22.0
  1
b
 50
0.0
 41
1.0
 51
0.0
  7
Standard
 71
0
 72
0
 11
0.0
 21
0.0
 31
0.0
210
0.0
220
0.0
230
1.0
100
AcDbText
 73
0
  0
TEXT
  5
94
330
1D
100
AcDbEntity
  8
0
  6
ByLayer
420
2236962
 48
1.0
 60
0
 67
0
370
-1
100
AcDbText
 39
0.0
 10
111.171875
 20
166.8762500000000273
 30
0.0
 40
15.6199999999999992
  1
2
 50
0.0
 41
1.0
 51
0.0
  7
Standard
 71
0
 72
0
 11
0.0
 21
0.0
 31
0.0
210
0.0
220
0.0
230
1.0
100
AcDbText
 73
0
  0
TEXT
  5
95
330
1D
100
AcDbEntity
  8
0
  6
ByLayer
420
2236962
 48
1.0
 60
0
 67
0
370
-1
100
AcDbText
 39
0.0
 10
129.09375
 20
156.1875
 30
0.0
 40
22.0
  1
=
 50
0.0
 41
1.0
 51
0.0
  7
Standard
 71
0
 72
0
 11
0.0
 21
0.0
 31
0.0
210
0.0
220
0.0
230
1.0
100
AcDbText
 73
0
  0
TEXT
  5
96
330
1D
100
AcDbEntity
  8
0
  6
ByLayer
420
2236962
 48
1.0
 60
0
 67
0
370
-1
100
AcDbText
 39
0.0
 10
147.625
 20
156.1875
 30
0.0
 40
22.0
  1
c
 50
0.0
 41
1.0
 51
0.0
  7
Standard
 71
0
 72
0
 11
0.0
 21
0.0
 31
0.0
210
0.0
220
0.0
230
1.0
100
AcDbText
 73
0
  0
HATCH
  5
97
330
1D
100
AcDbEntity
  8
0
  6
ByLayer
420
16448250
 48
1.0
 60
0
 67
0
370
-1
100
AcDbHatch
 30
0.0
210
0.0
220
0.0
230
1.0
  2
SOLID
 70
1
 71
0
 91
1
 92
2
 72
0
 73
1
 93
4
 10
28.0
 20
121.0
 10
1252.0
 20
121.0
 10
1252.0
 20
26.0
 10
28.0
 20
26.0
 97
0
 75
0
 76
1
 47
0.0
 98
0
  0
LWPOLYLINE
  5
98
330
1D
100
AcDbEntity
  8
0
  6
ByLayer
420
12303291
 48
1.0
 60
0
 67
0
370
-1
100
AcDbPolyline
 90
4
 70
1
 43
0.0
 38
0.0
 39
0.0
210
0.0
220
0.0
230
1.0
 10
28.0
 20
121.0
 40
0.0
 41
0.0
 42
0.0
 10
1252.0
 20
121.0
 40
0.0
 41
0.0
 42
0.0
 10
1252.0
 20
26.0
 40
0.0
 41
0.0
 42
0.0
 10
28.0
 20
26.0
 40
0.0
 41
0.0
 42
0.0
  0
TEXT
  5
99
330
1D
100
AcDbEntity
  8
0
  6
ByLayer
420
5592405
 48
1.0
 60
0
 67
0
370
-1
100
AcDbText
 39
0.0
 10
41.0
 20
91.6875
 30
0.0
 40
16.0
  1
Nested Fractions
 50
0.0
 41
1.0
 51
0.0
  7
Standard
 71
0
 72
0
 11
0.0
 21
0.0
 31
0.0
210
0.0
220
0.0
230
1.0
100
AcDbText
 73
0
  0
LWPOLYLINE
  5
9A
330
1D
100
AcDbEntity
  8
0
  6
ByLayer
420
2236962
 48
1.0
 60
0
 67
0
370
-1
100
AcDbPolyline
 90
2
 70
0
 43
0.0
 38
0.0
 39
0.0
210
0.0
220
0.0
230
1.0
 10
41.0
 20
65.09375
 40
0.0
 41
0.0
 42
0.0
 10
91.34375
 20
65.09375
 40
0.0
 41
0.0
 42
0.0
  0
LWPOLYLINE
  5
9B
330
1D
100
AcDbEntity
  8
0
  6
ByLayer
420
2236962
 48
1.0
 60
0
 67
0
370
-1
100
AcDbPolyline
 90
2
 70
0
 43
0.0
 38
0.0
 39
0.0
210
0.0
220
0.0
230
1.0
 10
65.71875
 20
54.375
 40
0.0
 41
0.0
 42
0.0
 10
90.34375
 20
54.375
 40
0.0
 41
0.0
 42
0.0
  0
LWPOLYLINE
  5
9C
330
1D
100
AcDbEntity
  8
0
  6
ByLayer
420
2236962
 48
1.0
 60
0
 67
0
370
-1
100
AcDbPolyline
 90
2
 70
0
 43
0.0
 38
0.0
 39
0.0
210
0.0
220
0.0
230
1.0
 10
83.40625
 20
46.453125
 40
0.0
 41
0.0
 42
0.0
 10
89.34375
 20
46.453125
 40
0.0
 41
0.0
 42
0.0
  0
TEXT
  5
9D
330
1D
100
AcDbEntity
  8
0
  6
ByLayer
420
2236962
 48
1.0
 60
0
 67
0
370
-1
100
AcDbText
 39
0.0
 10
62.265625
 20
68.2825000000000273
 30
0.0
 40
15.6199999999999992
  1
1
 50
0.0
 41
1.0
 51
0.0
  7
Standard
 71
0
 72
0
 11
0.0
 21
0.0
 31
0.0
210
0.0
220
0.0
230
1.0
100
AcDbText
 73
0
  0
TEXT
  5
9E
330
1D
100
AcDbEntity
  8
0
  6
ByLayer
420
2236962
 48
1.0
 60
0
 67
0
370
-1
100
AcDbText
 39
0.0
 10
42.0
 20
52.4856250000000273
 30
0.0
 40
15.6199999999999992
  1
1
 50
0.0
 41
1.0
 51
0.0
  7
Standard
 71
0
 72
0
 11
0.0
 21
0.0
 31
0.0
210
0.0
220
0.0
230
1.0
100
AcDbText
 73
0
  0
TEXT
  5
9F
330
1D
100
AcDbEntity
  8
0
  6
ByLayer
420
2236962
 48
1.0
 60
0
 67
0
370
-1
100
AcDbText
 39
0.0
 10
53.359375
 20
52.4856250000000273
 30
0.0
 40
15.6199999999999992
  1
+
 50
0.0
 41
1.0
 51
0.0
  7
Standard
 71
0
 72
0
 11
0.0
 21
0.0
 31
0.0
210
0.0
220
0.0
230
1.0
100
AcDbText
 73
0
  0
TEXT
  5
A0
330
1D
100
AcDbEntity
  8
0
  6
ByLayer
420
2236962
 48
1.0
 60
0
 67
0
370
-1
100
AcDbText
 39
0.0
 10
75.25
 20
56.7274499999999762
 30
0.0
 40
11.0901999999999994
  1
1
 50
0.0
 41
1.0
 51
0.0
  7
Standard
 71
0
 72
0
 11
0.0
 21
0.0
 31
0.0
210
0.0
220
0.0
230
1.0
100
AcDbText
 73
0
  0
TEXT
  5
A1
330
1D
100
AcDbEntity
  8
0
  6
ByLayer
420
2236962
 48
1.0
 60
0
 67
0
370
-1
100
AcDbText
 39
0.0
 10
66.71875
 20
45.2118249999999762
 30
0.0
 40
11.0901999999999994
  1
2
 50
0.0
 41
1.0
 51
0.0
  7
Standard
 71
0
 72
0
 11
0.0
 21
0.0
 31
0.0
210
0.0
220
0.0
230
1.0
100
AcDbText
 73
0
  0
TEXT
  5
A2
330
1D
100
AcDbEntity
  8
0
  6
ByLayer
420
2236962
 48
1.0
 60
0
 67
0
370
-1
100
AcDbText
 39
0.0
 10
74.703125
 20
45.2118249999999762
 30
0.0
 40
11.0901999999999994
  1
+
 50
0.0
 41
1.0
 51
0.0
  7
Standard
 71
0
 72
0
 11
0.0
 21
0.0
 31
0.0
210
0.0
220
0.0
230
1.0
100
AcDbText
 73
0
  0
TEXT
  5
A3
330
1D
100
AcDbEntity
  8
0
  6
ByLayer
420
2236962
 48
1.0
 60
0
 67
0
370
-1
100
AcDbText
 39
0.0
 10
84.40625
 20
47.7814899999999625
 30
0.0
 40
7.8740399999999999
  1
1
 50
0.0
 41
1.0
 51
0.0
  7
Standard
 71
0
 72
0
 11
0.0
 21
0.0
 31
0.0
210
0.0
220
0.0
230
1.0
100
AcDbText
 73
0
  0
TEXT
  5
A4
330
1D
100
AcDbEntity
  8
0
  6
ByLayer
420
2236962
 48
1.0
 60
0
 67
0
370
-1
100
AcDbText
 39
0.0
 10
84.40625
 20
40.1877399999999625
 30
0.0
 40
7.8740399999999999
  1
3
 50
0.0
 41
1.0
 51
0.0
  7
Standard
 71
0
 72
0
 11
0.0
 21
0.0
 31
0.0
210
0.0
220
0.0
230
1.0
100
AcDbText
 73
0
  0
ENDSEC
  0
SECTION
  2
OBJECTS
  0
DICTIONARY
  5
1
330
0
100
AcDbDictionary
280
0
281
0
  3
ACAD_COLOR
350
2
  3
ACAD_GROUP
350
3
  3
ACAD_LAYOUT
350
4
  3
ACAD_MATERIAL
350
5
  3
ACAD_SORTENTS
350
6
  3
ACAD_MLEADERSTYLE
350
7
  3
ACAD_MLINESTYLE
350
8
  3
ACAD_TABLESTYLE
350
9
  3
ACAD_PLOTSETTINGS
350
A
  3
AcDbVariableDictionary
350
B
  3
ACAD_SCALELIST
350
C
  3
ACAD_VISUALSTYLE
350
D
  3
ACAD_FIELDLIST
350
E
  3
ACAD_IMAGE_DICT
350
F
  0
DICTIONARY
  5
2
330
1
100
AcDbDictionary
280
0
281
0
  0
DICTIONARY
  5
3
330
1
100
AcDbDictionary
280
0
281
0
  0
DICTIONARY
  5
4
330
1
100
AcDbDictionary
280
0
281
0
  0
DICTIONARY
  5
5
330
1
100
AcDbDictionary
280
0
281
0
  0
DICTIONARY
  5
6
330
1
100
AcDbDictionary
280
0
281
0
  0
DICTIONARY
  5
7
330
1
100
AcDbDictionary
280
0
281
0
  0
DICTIONARY
  5
8
330
1
100
AcDbDictionary
280
0
281
0
  0
DICTIONARY
  5
9
330
1
100
AcDbDictionary
280
0
281
0
  0
DICTIONARY
  5
A
330
1
100
AcDbDictionary
280
0
281
0
  0
DICTIONARY
  5
B
330
1
100
AcDbDictionary
280
0
281
0
  0
DICTIONARY
  5
C
330
1
100
AcDbDictionary
280
0
281
0
  0
DICTIONARY
  5
D
330
1
100
AcDbDictionary
280
0
281
0
  0
DICTIONARY
  5
E
330
1
100
AcDbDictionary
280
0
281
0
  0
DICTIONARY
  5
F
330
1
100
AcDbDictionary
280
0
281
0
  0
ENDSEC
  0
EOF
