0
SECTION
2
HEADER
9
$ACADVER
1
AC1021
9
$LASTSAVEDBY
1
@tarikjabiri/dxf
9
$HANDSEED
5
8F
9
$INSUNITS
70
0
9
$CLAYER
8
0
9
$VIEWCTR
10
582
20
523.5750122070312
0
ENDSEC
0
SECTION
2
CLASSES
0
ENDSEC
0
SECTION
2
TABLES
0
TABLE
2
VPORT
5
1
330
0
100
AcDbSymbolTable
70
1
0
VPORT
5
19
330
1
100
AcDbSymbolTableRecord
100
AcDbViewportTableRecord
2
*Active
70
0
10
0
20
0
11
1
21
1
12
582
22
523.5750122070312
13
0
23
0
14
10
24
10
15
10
25
10
16
0
26
0
36
1
17
0
27
0
37
0
40
1150.8499755859375
41
2
42
50
43
0
44
0
50
0
51
0
71
0
72
100
73
1
74
3
75
0
76
1
77
0
78
0
281
0
65
1
110
0
120
0
130
0
111
1
121
0
131
0
112
0
122
1
132
0
79
0
146
0
348
10020
60
7
61
5
292
1
282
1
141
0
142
0
63
250
421
3358443
0
ENDTAB
0
TABLE
2
LTYPE
5
2
330
0
100
AcDbSymbolTable
70
3
0
LTYPE
5
12
330
2
100
AcDbSymbolTableRecord
100
AcDbLinetypeTableRecord
2
ByBlock
70
0
3

72
65
73
0
40
0
0
LTYPE
5
13
330
2
100
AcDbSymbolTableRecord
100
AcDbLinetypeTableRecord
2
ByLayer
70
0
3

72
65
73
0
40
0
0
LTYPE
5
14
330
2
100
AcDbSymbolTableRecord
100
AcDbLinetypeTableRecord
2
Continuous
70
0
3
Solid line
72
65
73
0
40
0
0
ENDTAB
0
TABLE
2
LAYER
5
3
330
0
100
AcDbSymbolTable
70
1
0
LAYER
5
15
330
3
100
AcDbSymbolTableRecord
100
AcDbLayerTableRecord
2
0
70
0
62
7
6
Continuous
370
0
390
0
0
ENDTAB
0
TABLE
2
STYLE
5
4
330
0
100
AcDbSymbolTable
70
2
0
STYLE
5
16
330
4
100
AcDbSymbolTableRecord
100
AcDbTextStyleTableRecord
2
Standard
70
0
40
0
41
1
50
0
71
0
42
1
3
txt
4

0
STYLE
5
1B
330
4
100
AcDbSymbolTableRecord
100
AcDbTextStyleTableRecord
2
Times New Roman
70
0
40
0
41
1
50
0
71
0
42
1
3
Times New Roman.ttf
4

0
ENDTAB
0
TABLE
2
VIEW
5
5
330
0
100
AcDbSymbolTable
70
0
0
ENDTAB
0
TABLE
2
UCS
5
6
330
0
100
AcDbSymbolTable
70
0
0
ENDTAB
0
TABLE
2
APPID
5
7
330
0
100
AcDbSymbolTable
70
1
0
APPID
5
17
330
7
100
AcDbSymbolTableRecord
100
AcDbRegAppTableRecord
2
ACAD
70
0
0
ENDTAB
0
TABLE
2
DIMSTYLE
5
8
330
0
100
AcDbSymbolTable
70
1
100
AcDbDimStyleTable
0
DIMSTYLE
105
18
330
8
100
AcDbSymbolTableRecord
100
AcDbDimStyleTableRecord
2
Standard
70
0
340
16
0
ENDTAB
0
TABLE
2
BLOCK_RECORD
5
9
330
0
100
AcDbSymbolTable
70
2
0
BLOCK_RECORD
5
C
330
9
100
AcDbSymbolTableRecord
100
AcDbBlockTableRecord
2
*Model_Space
70
0
280
1
281
0
0
BLOCK_RECORD
5
F
330
9
100
AcDbSymbolTableRecord
100
AcDbBlockTableRecord
2
*Paper_Space
70
0
280
1
281
0
0
ENDTAB
0
ENDSEC
0
SECTION
2
BLOCKS
0
BLOCK
5
D
330
C
100
AcDbEntity
8
0
100
AcDbBlockBegin
2
*Model_Space
70
0
10
0
20
0
30
0
3
*Model_Space
1

0
ENDBLK
5
E
100
AcDbEntity
8
0
100
AcDbBlockEnd
0
BLOCK
5
10
330
F
100
AcDbEntity
8
0
100
AcDbBlockBegin
2
*Paper_Space
70
0
10
0
20
0
30
0
3
*Paper_Space
1

0
ENDBLK
5
11
100
AcDbEntity
8
0
100
AcDbBlockEnd
0
ENDSEC
0
SECTION
2
ENTITIES
0
TEXT
5
1A
330
C
100
AcDbEntity
420
3355443
8
0
100
AcDbText
10
20
20
999
30
0
40
33
1
MathML Examples
7
Times New Roman
100
AcDbText
0
LWPOLYLINE
5
1C
330
C
100
AcDbEntity
420
12303291
8
0
100
AcDbPolyline
90
5
70
0
43
0
38
0
39
0
10
20
20
973.0999984741211
10
1244
20
973.0999984741211
10
1244
20
877.1499938964844
10
20
20
877.1499938964844
10
20
20
973.0999984741211
0
TEXT
5
1D
330
C
100
AcDbEntity
420
5592405
8
0
100
AcDbText
10
33
20
938.5999984741211
30
0
40
17
1
Simple Fraction
7
Times New Roman
100
AcDbText
0
LWPOLYLINE
5
1E
330
C
100
AcDbEntity
420
2236962
8
0
100
AcDbPolyline
90
2
70
0
43
0
38
0
39
0
10
33
20
910.125
10
44.30000305175781
20
910.125
0
LWPOLYLINE
5
1F
330
C
100
AcDbEntity
420
2236962
8
0
100
AcDbPolyline
90
2
70
0
43
0
38
0
39
0
10
70.5
20
910.125
10
81.80000305175781
20
910.125
0
LWPOLYLINE
5
20
330
C
100
AcDbEntity
420
2236962
8
0
100
AcDbPolyline
90
2
70
0
43
0
38
0
39
0
10
110.46665954589844
20
910.125
10
121.76666259765625
20
910.125
0
TEXT
5
21
330
C
100
AcDbEntity
420
2236962
8
0
100
AcDbText
10
34.20000076293945
20
914.1000061035156
30
0
40
16
1
1
7
STANDARD
100
AcDbText
0
TEXT
5
22
330
C
100
AcDbEntity
420
2236962
8
0
100
AcDbText
10
34.20000076293945
20
890.1499938964844
30
0
40
16
1
2
7
STANDARD
100
AcDbText
0
TEXT
5
23
330
C
100
AcDbEntity
420
2236962
8
0
100
AcDbText
10
50.41666793823242
20
900.2166595458984
30
0
40
22
1
+
7
STANDARD
100
AcDbText
0
TEXT
5
24
330
C
100
AcDbEntity
420
2236962
8
0
100
AcDbText
10
71.69999694824219
20
914.1000061035156
30
0
40
16
1
3
7
STANDARD
100
AcDbText
0
TEXT
5
25
330
C
100
AcDbEntity
420
2236962
8
0
100
AcDbText
10
71.69999694824219
20
890.1499938964844
30
0
40
16
1
4
7
STANDARD
100
AcDbText
0
TEXT
5
26
330
C
100
AcDbEntity
420
2236962
8
0
100
AcDbText
10
87.91666412353516
20
900.2166595458984
30
0
40
22
1
=
7
STANDARD
100
AcDbText
0
TEXT
5
27
330
C
100
AcDbEntity
420
2236962
8
0
100
AcDbText
10
111.66666412353516
20
914.1000061035156
30
0
40
16
1
5
7
STANDARD
100
AcDbText
0
TEXT
5
28
330
C
100
AcDbEntity
420
2236962
8
0
100
AcDbText
10
111.66666412353516
20
890.1499938964844
30
0
40
16
1
4
7
STANDARD
100
AcDbText
0
LWPOLYLINE
5
29
330
C
100
AcDbEntity
420
12303291
8
0
100
AcDbPolyline
90
5
70
0
43
0
38
0
39
0
10
20
20
862.1499938964844
10
1244
20
862.1499938964844
10
1244
20
759.0166625976562
10
20
20
759.0166625976562
10
20
20
862.1499938964844
0
TEXT
5
2A
330
C
100
AcDbEntity
420
5592405
8
0
100
AcDbText
10
33
20
827.6499938964844
30
0
40
17
1
Quadratic Formula
7
Times New Roman
100
AcDbText
0
LWPOLYLINE
5
2B
330
C
100
AcDbEntity
420
2236962
8
0
100
AcDbPolyline
90
2
70
0
43
0
38
0
39
0
10
73.38333129882812
20
791.9916610717773
10
185.85000610351562
20
791.9916610717773
0
LWPOLYLINE
5
2C
330
C
100
AcDbEntity
420
2236962
8
0
100
AcDbPolyline
90
2
70
0
43
0
38
0
39
0
10
123.18333435058594
20
819.1499938964844
10
184.85000610351562
20
819.1499938964844
0
TEXT
5
2D
330
C
100
AcDbEntity
420
2236962
8
0
100
AcDbText
10
33
20
782.0833435058594
30
0
40
22
1
x
7
STANDARD
100
AcDbText
0
TEXT
5
2E
330
C
100
AcDbEntity
420
2236962
8
0
100
AcDbText
10
50.83333206176758
20
782.0833435058594
30
0
40
22
1
=
7
STANDARD
100
AcDbText
0
TEXT
5
2F
330
C
100
AcDbEntity
420
2236962
8
0
100
AcDbText
10
76.61666870117188
20
795.9666748046875
30
0
40
15.999984741210938
1
−
7
STANDARD
100
AcDbText
0
TEXT
5
30
330
C
100
AcDbEntity
420
2236962
8
0
100
AcDbText
10
86.06666564941406
20
795.9666748046875
30
0
40
15.999984741210938
1
b
7
STANDARD
100
AcDbText
0
TEXT
5
31
330
C
100
AcDbEntity
420
2236962
8
0
100
AcDbText
10
97.91666412353516
20
795.9666748046875
30
0
40
15.999984741210938
1
±
7
STANDARD
100
AcDbText
0
TEXT
5
32
330
C
100
AcDbEntity
420
2236962
8
0
100
AcDbText
10
123.18333435058594
20
795.4500122070312
30
0
40
15.999984741210938
1
b
7
STANDARD
100
AcDbText
0
TEXT
5
33
330
C
100
AcDbEntity
420
2236962
8
0
100
AcDbText
10
133.8000030517578
20
803.1333312988281
30
0
40
13
1
2
7
STANDARD
100
AcDbText
0
TEXT
5
34
330
C
100
AcDbEntity
420
2236962
8
0
100
AcDbText
10
143.88333129882812
20
795.9666748046875
30
0
40
15.999984741210938
1
−
7
STANDARD
100
AcDbText
0
TEXT
5
35
330
C
100
AcDbEntity
420
2236962
8
0
100
AcDbText
10
156.89999389648438
20
795.9666748046875
30
0
40
15.999984741210938
1
4
7
STANDARD
100
AcDbText
0
TEXT
5
36
330
C
100
AcDbEntity
420
2236962
8
0
100
AcDbText
10
166.1999969482422
20
795.9666748046875
30
0
40
15.999984741210938
1
a
7
STANDARD
100
AcDbText
0
TEXT
5
37
330
C
100
AcDbEntity
420
2236962
8
0
100
AcDbText
10
178.9166717529297
20
795.9666748046875
30
0
40
15.999984741210938
1
c
7
STANDARD
100
AcDbText
0
TEXT
5
38
330
C
100
AcDbEntity
420
2236962
8
0
100
AcDbText
10
120.14999389648438
20
772.0166625976562
30
0
40
16
1
2
7
STANDARD
100
AcDbText
0
TEXT
5
39
330
C
100
AcDbEntity
420
2236962
8
0
100
AcDbText
10
130.3333282470703
20
772.0166625976562
30
0
40
16
1
a
7
STANDARD
100
AcDbText
0
LWPOLYLINE
5
3A
330
C
100
AcDbEntity
420
12303291
8
0
100
AcDbPolyline
90
5
70
0
43
0
38
0
39
0
10
20
20
744.0166625976562
10
1244
20
744.0166625976562
10
1244
20
647.2666625976562
10
20
20
647.2666625976562
10
20
20
744.0166625976562
0
TEXT
5
3B
330
C
100
AcDbEntity
420
5592405
8
0
100
AcDbText
10
33
20
709.5166625976562
30
0
40
17
1
Summation
7
Times New Roman
100
AcDbText
0
LWPOLYLINE
5
3C
330
C
100
AcDbEntity
420
2236962
8
0
100
AcDbPolyline
90
2
70
0
43
0
38
0
39
0
10
134.25
20
680.283332824707
10
252.61666870117188
20
680.283332824707
0
TEXT
5
3D
330
C
100
AcDbEntity
420
2236962
8
0
100
AcDbText
10
47.016666412353516
20
663.2666625976562
30
0
40
22
1
∑
7
STANDARD
100
AcDbText
0
TEXT
5
3E
330
C
100
AcDbEntity
420
2236962
8
0
100
AcDbText
10
52.25
20
663.2666625976562
30
0
40
16
1
i
7
STANDARD
100
AcDbText
0
TEXT
5
3F
330
C
100
AcDbEntity
420
2236962
8
0
100
AcDbText
10
60.116668701171875
20
663.2666625976562
30
0
40
16
1
=
7
STANDARD
100
AcDbText
0
TEXT
5
40
330
C
100
AcDbEntity
420
2236962
8
0
100
AcDbText
10
74.3499984741211
20
663.2666625976562
30
0
40
16
1
1
7
STANDARD
100
AcDbText
0
TEXT
5
41
330
C
100
AcDbEntity
420
2236962
8
0
100
AcDbText
10
53.25
20
681.7833251953125
30
0
40
16
1
n
7
STANDARD
100
AcDbText
0
TEXT
5
42
330
C
100
AcDbEntity
420
2236962
8
0
100
AcDbText
10
88.31666564941406
20
670.3333435058594
30
0
40
22
1
i
7
STANDARD
100
AcDbText
0
TEXT
5
43
330
C
100
AcDbEntity
420
2236962
8
0
100
AcDbText
10
96.28333282470703
20
680.8833312988281
30
0
40
16
1
2
7
STANDARD
100
AcDbText
0
TEXT
5
44
330
C
100
AcDbEntity
420
2236962
8
0
100
AcDbText
10
111.69999694824219
20
670.3333435058594
30
0
40
22
1
=
7
STANDARD
100
AcDbText
0
TEXT
5
45
330
C
100
AcDbEntity
420
2236962
8
0
100
AcDbText
10
135.25
20
684.2999877929688
30
0
40
16
1
n
7
STANDARD
100
AcDbText
0
TEXT
5
46
330
C
100
AcDbEntity
420
2236962
8
0
100
AcDbText
10
147.9166717529297
20
684.2999877929688
30
0
40
16
1
(
7
STANDARD
100
AcDbText
0
TEXT
5
47
330
C
100
AcDbEntity
420
2236962
8
0
100
AcDbText
10
152.35000610351562
20
684.2999877929688
30
0
40
16
1
n
7
STANDARD
100
AcDbText
0
TEXT
5
48
330
C
100
AcDbEntity
420
2236962
8
0
100
AcDbText
10
165.01666259765625
20
684.2999877929688
30
0
40
16
1
+
7
STANDARD
100
AcDbText
0
TEXT
5
49
330
C
100
AcDbEntity
420
2236962
8
0
100
AcDbText
10
178.03334045410156
20
684.2999877929688
30
0
40
16
1
1
7
STANDARD
100
AcDbText
0
TEXT
5
4A
330
C
100
AcDbEntity
420
2236962
8
0
100
AcDbText
10
189.56666564941406
20
684.2999877929688
30
0
40
16
1
)
7
STANDARD
100
AcDbText
0
TEXT
5
4B
330
C
100
AcDbEntity
420
2236962
8
0
100
AcDbText
10
196.23333740234375
20
684.2999877929688
30
0
40
16
1
(
7
STANDARD
100
AcDbText
0
TEXT
5
4C
330
C
100
AcDbEntity
420
2236962
8
0
100
AcDbText
10
200.6666717529297
20
684.2999877929688
30
0
40
16
1
2
7
STANDARD
100
AcDbText
0
TEXT
5
4D
330
C
100
AcDbEntity
420
2236962
8
0
100
AcDbText
10
209.96665954589844
20
684.2999877929688
30
0
40
16
1
n
7
STANDARD
100
AcDbText
0
TEXT
5
4E
330
C
100
AcDbEntity
420
2236962
8
0
100
AcDbText
10
222.63333129882812
20
684.2999877929688
30
0
40
16
1
+
7
STANDARD
100
AcDbText
0
TEXT
5
4F
330
C
100
AcDbEntity
420
2236962
8
0
100
AcDbText
10
235.64999389648438
20
684.2999877929688
30
0
40
16
1
1
7
STANDARD
100
AcDbText
0
TEXT
5
50
330
C
100
AcDbEntity
420
2236962
8
0
100
AcDbText
10
247.18333435058594
20
684.2999877929688
30
0
40
16
1
)
7
STANDARD
100
AcDbText
0
TEXT
5
51
330
C
100
AcDbEntity
420
2236962
8
0
100
AcDbText
10
188.98333740234375
20
660.2666625976562
30
0
40
16
1
6
7
STANDARD
100
AcDbText
0
LWPOLYLINE
5
52
330
C
100
AcDbEntity
420
12303291
8
0
100
AcDbPolyline
90
5
70
0
43
0
38
0
39
0
10
20
20
632.2666625976562
10
1244
20
632.2666625976562
10
1244
20
477.73333740234375
10
20
20
477.73333740234375
10
20
20
632.2666625976562
0
TEXT
5
53
330
C
100
AcDbEntity
420
5592405
8
0
100
AcDbText
10
33
20
597.7666625976562
30
0
40
17
1
Matrix
7
Times New Roman
100
AcDbText
0
TEXT
5
54
330
C
100
AcDbEntity
420
2236962
8
0
100
AcDbText
10
39.11666488647461
20
527.7166748046875
30
0
40
22
1
[
7
STANDARD
100
AcDbText
0
TEXT
5
55
330
C
100
AcDbEntity
420
2236962
8
0
100
AcDbText
10
42.266666412353516
20
565.2666625976562
30
0
40
22
1
1
7
STANDARD
100
AcDbText
0
TEXT
5
56
330
C
100
AcDbEntity
420
2236962
8
0
100
AcDbText
10
72.05000305175781
20
565.2666625976562
30
0
40
22
1
0
7
STANDARD
100
AcDbText
0
TEXT
5
57
330
C
100
AcDbEntity
420
2236962
8
0
100
AcDbText
10
101.83333587646484
20
565.2666625976562
30
0
40
22
1
0
7
STANDARD
100
AcDbText
0
TEXT
5
58
330
C
100
AcDbEntity
420
2236962
8
0
100
AcDbText
10
42.266666412353516
20
529
30
0
40
22
1
0
7
STANDARD
100
AcDbText
0
TEXT
5
59
330
C
100
AcDbEntity
420
2236962
8
0
100
AcDbText
10
72.05000305175781
20
529
30
0
40
22
1
1
7
STANDARD
100
AcDbText
0
TEXT
5
5A
330
C
100
AcDbEntity
420
2236962
8
0
100
AcDbText
10
101.83333587646484
20
529
30
0
40
22
1
0
7
STANDARD
100
AcDbText
0
TEXT
5
5B
330
C
100
AcDbEntity
420
2236962
8
0
100
AcDbText
10
42.266666412353516
20
492.73333740234375
30
0
40
22
1
0
7
STANDARD
100
AcDbText
0
TEXT
5
5C
330
C
100
AcDbEntity
420
2236962
8
0
100
AcDbText
10
72.05000305175781
20
492.73333740234375
30
0
40
22
1
0
7
STANDARD
100
AcDbText
0
TEXT
5
5D
330
C
100
AcDbEntity
420
2236962
8
0
100
AcDbText
10
101.83333587646484
20
492.73333740234375
30
0
40
22
1
1
7
STANDARD
100
AcDbText
0
TEXT
5
5E
330
C
100
AcDbEntity
420
2236962
8
0
100
AcDbText
10
120.13333129882812
20
527.7166748046875
30
0
40
22
1
]
7
STANDARD
100
AcDbText
0
LWPOLYLINE
5
5F
330
C
100
AcDbEntity
420
12303291
8
0
100
AcDbPolyline
90
5
70
0
43
0
38
0
39
0
10
20
20
462.73333740234375
10
1244
20
462.73333740234375
10
1244
20
368.4000244140625
10
20
20
368.4000244140625
10
20
20
462.73333740234375
0
TEXT
5
60
330
C
100
AcDbEntity
420
5592405
8
0
100
AcDbText
10
33
20
428.23333740234375
30
0
40
17
1
Integral
7
Times New Roman
100
AcDbText
0
TEXT
5
61
330
C
100
AcDbEntity
420
2236962
8
0
100
AcDbText
10
39.11666488647461
20
388.36663818359375
30
0
40
22
1
∫
7
STANDARD
100
AcDbText
0
TEXT
5
62
330
C
100
AcDbEntity
420
2236962
8
0
100
AcDbText
10
49.56666564941406
20
381.4000244140625
30
0
40
16
1
0
7
STANDARD
100
AcDbText
0
TEXT
5
63
330
C
100
AcDbEntity
420
2236962
8
0
100
AcDbText
10
50.56666564941406
20
403.73333740234375
30
0
40
16
1
∞
7
STANDARD
100
AcDbText
0
TEXT
5
64
330
C
100
AcDbEntity
420
2236962
8
0
100
AcDbText
10
69.08333587646484
20
388.36663818359375
30
0
40
22
1
e
7
STANDARD
100
AcDbText
0
TEXT
5
65
330
C
100
AcDbEntity
420
2236962
8
0
100
AcDbText
10
83.23332977294922
20
397.41668701171875
30
0
40
16
1
−
7
STANDARD
100
AcDbText
0
TEXT
5
66
330
C
100
AcDbEntity
420
2236962
8
0
100
AcDbText
10
92.68333435058594
20
397.41668701171875
30
0
40
16
1
x
7
STANDARD
100
AcDbText
0
TEXT
5
67
330
C
100
AcDbEntity
420
2236962
8
0
100
AcDbText
10
105.8499984741211
20
388.36663818359375
30
0
40
22
1
d
7
STANDARD
100
AcDbText
0
TEXT
5
68
330
C
100
AcDbEntity
420
2236962
8
0
100
AcDbText
10
118.5999984741211
20
388.36663818359375
30
0
40
22
1
x
7
STANDARD
100
AcDbText
0
TEXT
5
69
330
C
100
AcDbEntity
420
2236962
8
0
100
AcDbText
10
132.76666259765625
20
388.36663818359375
30
0
40
22
1
=
7
STANDARD
100
AcDbText
0
TEXT
5
6A
330
C
100
AcDbEntity
420
2236962
8
0
100
AcDbText
10
155.31666564941406
20
388.36663818359375
30
0
40
22
1
1
7
STANDARD
100
AcDbText
0
LWPOLYLINE
5
6B
330
C
100
AcDbEntity
420
12303291
8
0
100
AcDbPolyline
90
5
70
0
43
0
38
0
39
0
10
20
20
353.4000244140625
10
1244
20
353.4000244140625
10
1244
20
266.48333740234375
10
20
20
266.48333740234375
10
20
20
353.4000244140625
0
TEXT
5
6C
330
C
100
AcDbEntity
420
5592405
8
0
100
AcDbText
10
33
20
318.9000244140625
30
0
40
17
1
Superscript & Subscript
7
Times New Roman
100
AcDbText
0
TEXT
5
6D
330
C
100
AcDbEntity
420
2236962
8
0
100
AcDbText
10
33
20
282.9666748046875
30
0
40
22
1
a
7
STANDARD
100
AcDbText
0
TEXT
5
6E
330
C
100
AcDbEntity
420
2236962
8
0
100
AcDbText
10
46.25
20
292.01666259765625
30
0
40
16
1
2
7
STANDARD
100
AcDbText
0
TEXT
5
6F
330
C
100
AcDbEntity
420
2236962
8
0
100
AcDbText
10
61.666664123535156
20
282.9666748046875
30
0
40
22
1
+
7
STANDARD
100
AcDbText
0
TEXT
5
70
330
C
100
AcDbEntity
420
2236962
8
0
100
AcDbText
10
81.75
20
282.95001220703125
30
0
40
22
1
b
7
STANDARD
100
AcDbText
0
TEXT
5
71
330
C
100
AcDbEntity
420
2236962
8
0
100
AcDbText
10
94.61666870117188
20
294.4000244140625
30
0
40
16
1
2
7
STANDARD
100
AcDbText
0
TEXT
5
72
330
C
100
AcDbEntity
420
2236962
8
0
100
AcDbText
10
110.03333282470703
20
282.9666748046875
30
0
40
22
1
=
7
STANDARD
100
AcDbText
0
TEXT
5
73
330
C
100
AcDbEntity
420
2236962
8
0
100
AcDbText
10
132.5833282470703
20
282.9666748046875
30
0
40
22
1
c
7
STANDARD
100
AcDbText
0
TEXT
5
74
330
C
100
AcDbEntity
420
2236962
8
0
100
AcDbText
10
143.6999969482422
20
292.01666259765625
30
0
40
16
1
2
7
STANDARD
100
AcDbText
0
TEXT
5
75
330
C
100
AcDbEntity
420
2236962
8
0
100
AcDbText
10
198
20
282.9666748046875
30
0
40
22
1
H
7
STANDARD
100
AcDbText
0
TEXT
5
76
330
C
100
AcDbEntity
420
2236962
8
0
100
AcDbText
10
214.01666259765625
20
279.48333740234375
30
0
40
16
1
2
7
STANDARD
100
AcDbText
0
TEXT
5
77
330
C
100
AcDbEntity
420
2236962
8
0
100
AcDbText
10
227.98333740234375
20
282.9666748046875
30
0
40
22
1
O
7
STANDARD
100
AcDbText
0
LWPOLYLINE
5
78
330
C
100
AcDbEntity
420
12303291
8
0
100
AcDbPolyline
90
5
70
0
43
0
38
0
39
0
10
20
20
251.48333740234375
10
1244
20
251.48333740234375
10
1244
20
163.01666259765625
10
20
20
163.01666259765625
10
20
20
251.48333740234375
0
TEXT
5
79
330
C
100
AcDbEntity
420
5592405
8
0
100
AcDbText
10
33
20
216.98333740234375
30
0
40
17
1
Square Root
7
Times New Roman
100
AcDbText
0
LWPOLYLINE
5
7A
330
C
100
AcDbEntity
420
2236962
8
0
100
AcDbPolyline
90
2
70
0
43
0
38
0
39
0
10
49.33332824707031
20
208.48333740234375
10
120.25
20
208.48333740234375
0
TEXT
5
7B
330
C
100
AcDbEntity
420
2236962
8
0
100
AcDbText
10
49.33333206176758
20
178.01666259765625
30
0
40
22
1
a
7
STANDARD
100
AcDbText
0
TEXT
5
7C
330
C
100
AcDbEntity
420
2236962
8
0
100
AcDbText
10
62.583335876464844
20
185.61663818359375
30
0
40
16
1
2
7
STANDARD
100
AcDbText
0
TEXT
5
7D
330
C
100
AcDbEntity
420
2236962
8
0
100
AcDbText
10
78
20
178.01666259765625
30
0
40
22
1
+
7
STANDARD
100
AcDbText
0
TEXT
5
7E
330
C
100
AcDbEntity
420
2236962
8
0
100
AcDbText
10
98.08333587646484
20
178
30
0
40
22
1
b
7
STANDARD
100
AcDbText
0
TEXT
5
7F
330
C
100
AcDbEntity
420
2236962
8
0
100
AcDbText
10
110.94999694824219
20
188.76666259765625
30
0
40
16
1
2
7
STANDARD
100
AcDbText
0
TEXT
5
80
330
C
100
AcDbEntity
420
2236962
8
0
100
AcDbText
10
126.36666870117188
20
178.01666259765625
30
0
40
22
1
=
7
STANDARD
100
AcDbText
0
TEXT
5
81
330
C
100
AcDbEntity
420
2236962
8
0
100
AcDbText
10
148.9166717529297
20
178.01666259765625
30
0
40
22
1
c
7
STANDARD
100
AcDbText
0
LWPOLYLINE
5
82
330
C
100
AcDbEntity
420
12303291
8
0
100
AcDbPolyline
90
5
70
0
43
0
38
0
39
0
10
20
20
148.01666259765625
10
1244
20
148.01666259765625
10
1244
20
35.1500244140625
10
20
20
35.1500244140625
10
20
20
148.01666259765625
0
TEXT
5
83
330
C
100
AcDbEntity
420
5592405
8
0
100
AcDbText
10
33
20
113.51666259765625
30
0
40
17
1
Nested Fractions
7
Times New Roman
100
AcDbText
0
LWPOLYLINE
5
84
330
C
100
AcDbEntity
420
2236962
8
0
100
AcDbPolyline
90
2
70
0
43
0
38
0
39
0
10
33
20
88.17498779296875
10
90.55000305175781
20
88.17498779296875
0
LWPOLYLINE
5
85
330
C
100
AcDbEntity
420
2236962
8
0
100
AcDbPolyline
90
2
70
0
43
0
38
0
39
0
10
58.55000305175781
20
73.42498779296875
10
89.55000305175781
20
73.42498779296875
0
LWPOLYLINE
5
86
330
C
100
AcDbEntity
420
2236962
8
0
100
AcDbPolyline
90
2
70
0
43
0
38
0
39
0
10
80.19999694824219
20
60.333343505859375
10
88.55000305175781
20
60.333343505859375
0
TEXT
5
87
330
C
100
AcDbEntity
420
2236962
8
0
100
AcDbText
10
57.31666564941406
20
89.01666259765625
30
0
40
16
1
1
7
STANDARD
100
AcDbText
0
TEXT
5
88
330
C
100
AcDbEntity
420
2236962
8
0
100
AcDbText
10
34
20
63.91668701171875
30
0
40
16
1
1
7
STANDARD
100
AcDbText
0
TEXT
5
89
330
C
100
AcDbEntity
420
2236962
8
0
100
AcDbText
10
45.53333282470703
20
63.91668701171875
30
0
40
16
1
+
7
STANDARD
100
AcDbText
0
TEXT
5
8A
330
C
100
AcDbEntity
420
2236962
8
0
100
AcDbText
10
70.38333129882812
20
73.3499755859375
30
0
40
13
1
1
7
STANDARD
100
AcDbText
0
TEXT
5
8B
330
C
100
AcDbEntity
420
2236962
8
0
100
AcDbText
10
59.55000305175781
20
53.7833251953125
30
0
40
13
1
2
7
STANDARD
100
AcDbText
0
TEXT
5
8C
330
C
100
AcDbEntity
420
2236962
8
0
100
AcDbText
10
69.23332977294922
20
53.7833251953125
30
0
40
13
1
+
7
STANDARD
100
AcDbText
0
TEXT
5
8D
330
C
100
AcDbEntity
420
2236962
8
0
100
AcDbText
10
81.41666412353516
20
61.73333740234375
30
0
40
10
1
1
7
STANDARD
100
AcDbText
0
TEXT
5
8E
330
C
100
AcDbEntity
420
2236962
8
0
100
AcDbText
10
81.41666412353516
20
48.1500244140625
30
0
40
10
1
3
7
STANDARD
100
AcDbText
0
ENDSEC
0
SECTION
2
OBJECTS
0
DICTIONARY
5
A
330
0
100
AcDbDictionary
281
1
3
ACAD_GROUP
350
B
0
DICTIONARY
5
B
330
A
100
AcDbDictionary
281
0
0
ENDSEC
0
EOF