  0
SECTION
  2
HEADER
  0
ENDSEC
  0
SECTION
  2
CLASSES
  0
CLASS
  1
ACDBDICTIONARYWDFLT
  2
AcDbDictionaryWithDefault
  3
ObjectDBX Classes
 90
32768
280
0
281
0
  0
CLASS
  1
ACDBPLACEHOLDER
  2
AcDbPlaceHolder
  3
ObjectDBX Classes
 90
0
280
0
281
0
  0
CLASS
  1
LAYOUT
  2
AcDbLayout
  3
ObjectDBX Classes
 90
0
280
0
281
0
  0
CLASS
  1
DICTIONARYVAR
  2
AcDbDictionaryVar
  3
ObjectDBX Classes
 90
0
280
0
281
0
  0
CLASS
  1
TABLESTYLE
  2
AcDbTableStyle
  3
ObjectDBX Classes
 90
4095
280
0
281
0
  0
CLASS
  1
MATERIAL
  2
AcDbMaterial
  3
ObjectDBX Classes
 90
1153
280
0
281
0
  0
CLASS
  1
VISUALSTYLE
  2
AcDbVisualStyle
  3
ObjectDBX Classes
 90
4095
280
0
281
0
  0
CLASS
  1
SCALE
  2
AcDbScale
  3
ObjectDBX Classes
 90
1153
280
0
281
0
  0
CLASS
  1
MLEADERSTYLE
  2
AcDbMLeaderStyle
  3
ObjectDBX Classes
 90
4095
280
0
281
0
  0
CLASS
  1
CELLSTYLEMAP
  2
AcDbCellStyleMap
  3
ObjectDBX Classes
 90
1152
280
0
281
0
  0
CLASS
  1
EXACXREFPANELOBJECT
  2
ExAcXREFPanelObject
  3
ObjectDBX Classes
 90
1025
280
0
281
0
  0
CLASS
  1
NPOCOLLECTION
  2
AcDbImpNonPersistentObjectsCollection
  3
ObjectDBX Classes
 90
1153
280
0
281
0
  0
CLASS
  1
LAYER_INDEX
  2
AcDbLayerIndex
  3
ObjectDBX Classes
 90
0
280
0
281
0
  0
CLASS
  1
SPATIAL_INDEX
  2
AcDbSpatialIndex
  3
ObjectDBX Classes
 90
0
280
0
281
0
  0
CLASS
  1
IDBUFFER
  2
AcDbIdBuffer
  3
ObjectDBX Classes
 90
32768
280
0
281
0
  0
CLASS
  1
ACDBSECTIONVIEWSTYLE
  2
AcDbSectionViewStyle
  3
ObjectDBX Classes
 90
1025
280
0
281
0
  0
CLASS
  1
ACDBDETAILVIEWSTYLE
  2
AcDbDetailViewStyle
  3
ObjectDBX Classes
 90
1025
280
0
281
0
  0
CLASS
  1
MESH
  2
AcDbSubDMesh
  3
ObjectDBX Classes
 90
0
280
0
281
1
  0
CLASS
  1
SORTENTSTABLE
  2
AcDbSortentsTable
  3
ObjectDBX Classes
 90
0
280
0
281
0
  0
CLASS
  1
ACDB_TEXTOBJECTCONTEXTDATA_CLASS
  2
AcDbTextObjectContextData
  3
ObjectDBX Classes
 90
1153
280
0
281
0
  0
CLASS
  1
WIPEOUT
  2
AcDbWipeout
  3
WipeOut
 90
32895
280
0
281
1
  0
CLASS
  1
WIPEOUTVARIABLES
  2
AcDbWipeoutVariables
  3
WipeOut
 90
32768
280
0
281
0
  0
CLASS
  1
DIMASSOC
  2
AcDbDimAssoc
  3
AcDbDimAssoc
 90
0
280
0
281
0
  0
CLASS
  1
ACAD_TABLE
  2
AcDbTable
  3
ObjectDBX Classes
 90
1025
280
0
281
1
  0
CLASS
  1
TABLECONTENT
  2
AcDbTableContent
  3
ObjectDBX Classes
 90
1152
280
0
281
0
  0
CLASS
  1
TABLEGEOMETRY
  2
AcDbTableGeometry
  3
ObjectDBX Classes
 90
1152
280
0
281
0
  0
CLASS
  1
IMAGE
  2
AcDbRasterImage
  3
ISM
 90
32895
280
0
281
1
  0
CLASS
  1
IMAGEDEF
  2
AcDbRasterImageDef
  3
ISM
 90
0
280
0
281
0
  0
CLASS
  1
IMAGEDEF_REACTOR
  2
AcDbRasterImageDefReactor
  3
ISM
 90
1
280
0
281
0
  0
CLASS
  1
DBCOLOR
  2
AcDbColor
  3
ObjectDBX Classes
 90
0
280
0
281
0
  0
CLASS
  1
GEODATA
  2
AcDbGeoData
  3
ObjectDBX Classes
 90
4095
280
0
281
0
  0
CLASS
  1
MULTILEADER
  2
AcDbMLeader
  3
ObjectDBX Classes
 90
1025
280
0
281
0
  0
CLASS
  1
PDFUNDERLAY
  2
AcDbPdfReference
  3
ObjectDBX Classes
 90
4095
280
0
281
1
  0
CLASS
  1
PDFDEFINITION
  2
AcDbPdfDefinition
  3
ObjectDBX Classes
 90
1153
280
0
281
0
  0
CLASS
  1
RASTERVARIABLES
  2
AcDbRasterVariables
  3
ISM
 90
0
280
0
281
0
  0
CLASS
  1
SPATIAL_FILTER
  2
AcDbSpatialFilter
  3
ObjectDBX Classes
 90
0
280
0
281
0
  0
CLASS
  1
ACDB_MLEADEROBJECTCONTEXTDATA_CLASS
  2
AcDbMLeaderObjectContextData
  3
ObjectDBX Classes
 90
1025
280
0
281
0
  0
CLASS
  1
PLOTSETTINGS
  2
AcDbPlotSettings
  3
ObjectDBX Classes
 90
0
280
0
281
0
  0
CLASS
  1
FIELD
  2
AcDbField
  3
ObjectDBX Classes
 90
1152
280
0
281
0
  0
CLASS
  1
FIELDLIST
  2
AcDbFieldList
  3
ObjectDBX Classes
 90
1152
280
0
281
0
  0
CLASS
  1
ACDB_MTEXTATTRIBUTEOBJECTCONTEXTDATA_CLASS
  2
AcDbMTextAttributeObjectContextData
  3
ObjectDBX Classes
 90
1153
280
0
281
0
  0
CLASS
  1
ACDB_BLKREFOBJECTCONTEXTDATA_CLASS
  2
AcDbBlkRefObjectContextData
  3
ObjectDBX Classes
 90
1153
280
0
281
0
  0
ENDSEC
  0
SECTION
  2
TABLES
  0
TABLE
  2
VPORT
  5
A
330
0
100
AcDbSymbolTable
 70
1
  0
VPORT
  5
18
330
A
100
AcDbSymbolTableRecord
100
AcDbViewportTableRecord
  2
*Active
 70
0
 10
0.0
 20
0.0
 11
1.0
 21
1.0
 12
0.0
 22
0.0
 13
0.0
 23
0.0
 14
0.5
 24
0.5
 15
10.0
 25
10.0
 16
0.0
 26
0.0
 36
1.0
 17
0.0
 27
0.0
 37
0.0
 40
10.0
 41
1.0
 75
0
 76
1
  0
ENDTAB
  0
TABLE
  2
LTYPE
  5
6
330
0
100
AcDbSymbolTable
 70
3
  0
LTYPE
  5
B
330
6
100
AcDbSymbolTableRecord
100
AcDbLinetypeTableRecord
  2
ByLayer
 70
0
 72
0
 73
0
 40
0.0
  0
LTYPE
  5
C
330
6
100
AcDbSymbolTableRecord
100
AcDbLinetypeTableRecord
  2
ByBlock
 70
0
 72
0
 73
0
 40
0.0
  0
LTYPE
  5
D
330
6
100
AcDbSymbolTableRecord
100
AcDbLinetypeTableRecord
  2
Continuous
 70
0
 72
0
 73
0
 40
0.0
  0
ENDTAB
  0
TABLE
  2
LAYER
  5
5
330
0
100
AcDbSymbolTable
 70
1
  0
LAYER
  5
E
330
5
100
AcDbSymbolTableRecord
100
AcDbLayerTableRecord
  2
0
 70
0
 62
7
  6
Continuous
290
1
370
-3
390
0
  0
ENDTAB
  0
TABLE
  2
STYLE
  5
7
330
0
100
AcDbSymbolTable
 70
1
  0
STYLE
  5
15
330
7
100
AcDbSymbolTableRecord
100
AcDbTextStyleTableRecord
  2
Standard
 70
0
 40
0.0
 41
1.0
 42
0.0
 50
0.0
 71
0
  0
ENDTAB
  0
TABLE
  2
VIEW
  5
9
330
0
100
AcDbSymbolTable
 70
0
  0
ENDTAB
  0
TABLE
  2
UCS
  5
8
330
0
100
AcDbSymbolTable
 70
0
  0
ENDTAB
  0
TABLE
  2
APPID
  5
2
330
0
100
AcDbSymbolTable
 70
1
  0
APPID
  5
17
330
2
100
AcDbSymbolTableRecord
100
AcDbRegAppTableRecord
  2
ACAD
 70
0
  0
ENDTAB
  0
TABLE
  2
DIMSTYLE
  5
4
330
0
100
AcDbSymbolTable
 70
1
100
AcDbDimStyleTable
  0
DIMSTYLE
105
16
330
4
100
AcDbSymbolTableRecord
100
AcDbDimStyleTableRecord
  2
Standard
 70
0
  3
<>
  4
[]
 40
1.0
 41
0.18
 42
0.625
 43
3.75
 44
1.25
 45
0.0
 46
0.0
 47
0.0
 48
0.0
 49
1.0
 50
0.7853981633974483
 70
0
 90
0
140
0.18
141
0.09
142
0.0
143
25.3999999999999986
144
1.0
145
0.0
146
1.0
147
0.625
148
0.0
 71
0
 72
0
 73
0
 74
0
 75
0
 76
0
 77
1
 78
8
 79
0
170
0
171
3
172
0
173
1
174
0
175
0
176
0
177
0
178
0
179
0
271
2
272
2
273
2
274
3
275
0
276
0
277
2
278
46
279
0
280
0
281
0
282
0
283
0
284
8
285
0
286
0
287
0
288
0
289
3
290
0
340
0
371
-2
372
-2
  0
ENDTAB
  0
TABLE
  2
BLOCK_RECORD
  5
3
330
0
100
AcDbSymbolTable
 70
2
  0
BLOCK_RECORD
  5
F
330
3
100
AcDbSymbolTableRecord
100
AcDbBlockTableRecord
  2
*Model_Space
 70
0
 70
0
280
0
281
1
  0
BLOCK_RECORD
  5
12
330
3
100
AcDbSymbolTableRecord
100
AcDbBlockTableRecord
  2
*Paper_Space
 70
0
 70
0
280
0
281
1
  0
ENDTAB
  0
ENDSEC
  0
SECTION
  2
BLOCKS
  0
BLOCK
  5
10
330
F
100
AcDbEntity
  8
0
  6
ByLayer
 62
256
 48
1.0
 60
0
370
-1
100
AcDbBlockBegin
  2
*Model_Space
 70
0
 10
0.0
 20
0.0
 30
0.0
  3
*Model_Space
  0
ENDBLK
  5
11
330
F
100
AcDbEntity
  8
0
100
AcDbBlockEnd
  0
BLOCK
  5
13
330
12
100
AcDbEntity
  8
0
  6
ByLayer
 62
256
 48
1.0
 60
0
370
-1
100
AcDbBlockBegin
  2
*Paper_Space
 70
0
 10
0.0
 20
0.0
 30
0.0
  3
*Paper_Space
  0
ENDBLK
  5
14
330
12
100
AcDbEntity
  8
0
100
AcDbBlockEnd
  0
ENDSEC
  0
SECTION
  2
ENTITIES
  0
TEXT
  5
19
330
F
100
AcDbEntity
  8
0
  6
ByLayer
420
3355443
 48
1.0
 60
0
370
-1
100
AcDbText
 39
0.0
 10
28.0
 20
2045.0
 30
0.0
 40
30.0
  1
MathML Examples
 50
0.0
 41
1.0
 51
0.0
  7
Standard
 71
0
 72
0
 11
0.0
 21
0.0
 31
0.0
210
0.0
220
0.0
230
1.0
100
AcDbText
 73
0
  0
HATCH
  5
1A
330
F
100
AcDbEntity
  8
0
  6
ByLayer
420
16448250
 48
1.0
 60
0
370
-1
100
AcDbHatch
 30
0.0
210
0.0
220
0.0
230
1.0
  2
SOLID
 70
1
 71
0
 91
1
 92
2
 72
0
 73
1
 93
4
 10
28.0
 20
2010.0
 10
1252.0
 20
2010.0
 10
1252.0
 20
1928.0
 10
28.0
 20
1928.0
 97
0
 75
0
 76
1
 47
0.0
 98
0
  0
LWPOLYLINE
  5
1B
330
F
100
AcDbEntity
  8
0
  6
ByLayer
420
12303291
 48
1.0
 60
0
370
-1
100
AcDbPolyline
 90
4
 70
1
 43
0.0
 38
0.0
 39
0.0
210
0.0
220
0.0
230
1.0
 10
28.0
 20
2010.0
 40
0.0
 41
0.0
 42
0.0
 10
1252.0
 20
2010.0
 40
0.0
 41
0.0
 42
0.0
 10
1252.0
 20
1928.0
 40
0.0
 41
0.0
 42
0.0
 10
28.0
 20
1928.0
 40
0.0
 41
0.0
 42
0.0
  0
TEXT
  5
1C
330
F
100
AcDbEntity
  8
0
  6
ByLayer
420
5592405
 48
1.0
 60
0
370
-1
100
AcDbText
 39
0.0
 10
41.0
 20
1980.5
 30
0.0
 40
16.0
  1
Simple Fraction
 50
0.0
 41
1.0
 51
0.0
  7
Standard
 71
0
 72
0
 11
0.0
 21
0.0
 31
0.0
210
0.0
220
0.0
230
1.0
100
AcDbText
 73
0
  0
LWPOLYLINE
  5
1D
330
F
100
AcDbEntity
  8
0
  6
ByLayer
420
2236962
 48
1.0
 60
0
370
-1
100
AcDbPolyline
 90
2
 70
0
 43
0.0
 38
0.0
 39
0.0
210
0.0
220
0.0
230
1.0
 10
41.0
 20
1954.015625
 40
0.0
 41
0.0
 42
0.0
 10
50.8125
 20
1954.015625
 40
0.0
 41
0.0
 42
0.0
  0
LWPOLYLINE
  5
1E
330
F
100
AcDbEntity
  8
0
  6
ByLayer
420
2236962
 48
1.0
 60
0
370
-1
100
AcDbPolyline
 90
2
 70
0
 43
0.0
 38
0.0
 39
0.0
210
0.0
220
0.0
230
1.0
 10
72.984375
 20
1954.015625
 40
0.0
 41
0.0
 42
0.0
 10
82.796875
 20
1954.015625
 40
0.0
 41
0.0
 42
0.0
  0
LWPOLYLINE
  5
1F
330
F
100
AcDbEntity
  8
0
  6
ByLayer
420
2236962
 48
1.0
 60
0
370
-1
100
AcDbPolyline
 90
2
 70
0
 43
0.0
 38
0.0
 39
0.0
210
0.0
220
0.0
230
1.0
 10
107.4375
 20
1954.015625
 40
0.0
 41
0.0
 42
0.0
 10
117.25
 20
1954.015625
 40
0.0
 41
0.0
 42
0.0
  0
TEXT
  5
20
330
F
100
AcDbEntity
  8
0
  6
ByLayer
420
2236962
 48
1.0
 60
0
370
-1
100
AcDbText
 39
0.0
 10
85.0
 20
1823.0950000000000273
 30
0.0
 40
15.6199999999999992
  1
1
 50
0.0
 41
1.0
 51
0.0
  7
Standard
 71
0
 72
0
 11
0.0
 21
0.0
 31
0.0
210
0.0
220
0.0
230
1.0
100
AcDbText
 73
0
  0
TEXT
  5
21
330
F
100
AcDbEntity
  8
0
  6
ByLayer
420
2236962
 48
1.0
 60
0
370
-1
100
AcDbText
 39
0.0
 10
85.0
 20
1780.9075000000000273
 30
0.0
 40
15.6199999999999992
  1
2
 50
0.0
 41
1.0
 51
0.0
  7
Standard
 71
0
 72
0
 11
0.0
 21
0.0
 31
0.0
210
0.0
220
0.0
230
1.0
100
AcDbText
 73
0
  0
TEXT
  5
22
330
F
100
AcDbEntity
  8
0
  6
ByLayer
420
2236962
 48
1.0
 60
0
370
-1
100
AcDbText
 39
0.0
 10
114.921875
 20
1809.0
 30
0.0
 40
22.0
  1
+
 50
0.0
 41
1.0
 51
0.0
  7
Standard
 71
0
 72
0
 11
0.0
 21
0.0
 31
0.0
210
0.0
220
0.0
230
1.0
100
AcDbText
 73
0
  0
TEXT
  5
23
330
F
100
AcDbEntity
  8
0
  6
ByLayer
420
2236962
 48
1.0
 60
0
370
-1
100
AcDbText
 39
0.0
 10
148.984375
 20
1823.0950000000000273
 30
0.0
 40
15.6199999999999992
  1
3
 50
0.0
 41
1.0
 51
0.0
  7
Standard
 71
0
 72
0
 11
0.0
 21
0.0
 31
0.0
210
0.0
220
0.0
230
1.0
100
AcDbText
 73
0
  0
TEXT
  5
24
330
F
100
AcDbEntity
  8
0
  6
ByLayer
420
2236962
 48
1.0
 60
0
370
-1
100
AcDbText
 39
0.0
 10
148.984375
 20
1780.9075000000000273
 30
0.0
 40
15.6199999999999992
  1
4
 50
0.0
 41
1.0
 51
0.0
  7
Standard
 71
0
 72
0
 11
0.0
 21
0.0
 31
0.0
210
0.0
220
0.0
230
1.0
100
AcDbText
 73
0
  0
TEXT
  5
25
330
F
100
AcDbEntity
  8
0
  6
ByLayer
420
2236962
 48
1.0
 60
0
370
-1
100
AcDbText
 39
0.0
 10
178.90625
 20
1809.0
 30
0.0
 40
22.0
  1
=
 50
0.0
 41
1.0
 51
0.0
  7
Standard
 71
0
 72
0
 11
0.0
 21
0.0
 31
0.0
210
0.0
220
0.0
230
1.0
100
AcDbText
 73
0
  0
TEXT
  5
26
330
F
100
AcDbEntity
  8
0
  6
ByLayer
420
2236962
 48
1.0
 60
0
370
-1
100
AcDbText
 39
0.0
 10
217.4375
 20
1823.0950000000000273
 30
0.0
 40
15.6199999999999992
  1
5
 50
0.0
 41
1.0
 51
0.0
  7
Standard
 71
0
 72
0
 11
0.0
 21
0.0
 31
0.0
210
0.0
220
0.0
230
1.0
100
AcDbText
 73
0
  0
TEXT
  5
27
330
F
100
AcDbEntity
  8
0
  6
ByLayer
420
2236962
 48
1.0
 60
0
370
-1
100
AcDbText
 39
0.0
 10
217.4375
 20
1780.9075000000000273
 30
0.0
 40
15.6199999999999992
  1
4
 50
0.0
 41
1.0
 51
0.0
  7
Standard
 71
0
 72
0
 11
0.0
 21
0.0
 31
0.0
210
0.0
220
0.0
230
1.0
100
AcDbText
 73
0
  0
HATCH
  5
28
330
F
100
AcDbEntity
  8
0
  6
ByLayer
420
16448250
 48
1.0
 60
0
370
-1
100
AcDbHatch
 30
0.0
210
0.0
220
0.0
230
1.0
  2
SOLID
 70
1
 71
0
 91
1
 92
2
 72
0
 73
1
 93
4
 10
28.0
 20
1900.0
 10
1252.0
 20
1900.0
 10
1252.0
 20
1812.0
 10
28.0
 20
1812.0
 97
0
 75
0
 76
1
 47
0.0
 98
0
  0
LWPOLYLINE
  5
29
330
F
100
AcDbEntity
  8
0
  6
ByLayer
420
12303291
 48
1.0
 60
0
370
-1
100
AcDbPolyline
 90
4
 70
1
 43
0.0
 38
0.0
 39
0.0
210
0.0
220
0.0
230
1.0
 10
28.0
 20
1900.0
 40
0.0
 41
0.0
 42
0.0
 10
1252.0
 20
1900.0
 40
0.0
 41
0.0
 42
0.0
 10
1252.0
 20
1812.0
 40
0.0
 41
0.0
 42
0.0
 10
28.0
 20
1812.0
 40
0.0
 41
0.0
 42
0.0
  0
TEXT
  5
2A
330
F
100
AcDbEntity
  8
0
  6
ByLayer
420
5592405
 48
1.0
 60
0
370
-1
100
AcDbText
 39
0.0
 10
41.0
 20
1870.5
 30
0.0
 40
16.0
  1
Quadratic Formula
 50
0.0
 41
1.0
 51
0.0
  7
Standard
 71
0
 72
0
 11
0.0
 21
0.0
 31
0.0
210
0.0
220
0.0
230
1.0
100
AcDbText
 73
0
  0
LWPOLYLINE
  5
2B
330
F
100
AcDbEntity
  8
0
  6
ByLayer
420
2236962
 48
1.0
 60
0
370
-1
100
AcDbPolyline
 90
2
 70
0
 43
0.0
 38
0.0
 39
0.0
210
0.0
220
0.0
230
1.0
 10
77.359375
 20
1837.359375
 40
0.0
 41
0.0
 42
0.0
 10
178.671875
 20
1837.359375
 40
0.0
 41
0.0
 42
0.0
  0
LWPOLYLINE
  5
2C
330
F
100
AcDbEntity
  8
0
  6
ByLayer
420
2236962
 48
1.0
 60
0
370
-1
100
AcDbPolyline
 90
2
 70
0
 43
0.0
 38
0.0
 39
0.0
210
0.0
220
0.0
230
1.0
 10
120.40625
 20
1856.921875
 40
0.0
 41
0.0
 42
0.0
 10
177.671875
 20
1856.921875
 40
0.0
 41
0.0
 42
0.0
  0
LWPOLYLINE
  5
2D
330
F
100
AcDbEntity
  8
0
  6
ByLayer
420
2236962
 48
1.0
 60
0
370
-1
100
AcDbPolyline
 90
3
 70
0
 43
0.0
 38
0.0
 39
0.0
210
0.0
220
0.0
230
1.0
 10
113.1281249999999972
 20
1847.0390625
 40
0.0
 41
0.0
 42
0.0
 10
115.2687499999999972
 20
1838.953125
 40
0.0
 41
0.0
 42
0.0
 10
120.40625
 20
1856.921875
 40
0.0
 41
0.0
 42
0.0
  0
TEXT
  5
2E
330
F
100
AcDbEntity
  8
0
  6
ByLayer
420
2236962
 48
1.0
 60
0
370
-1
100
AcDbText
 39
0.0
 10
83.0
 20
1587.53125
 30
0.0
 40
22.0
  1
x
 50
0.0
 41
1.0
 51
0.0
  7
Standard
 71
0
 72
0
 11
0.0
 21
0.0
 31
0.0
210
0.0
220
0.0
230
1.0
100
AcDbText
 73
0
  0
TEXT
  5
2F
330
F
100
AcDbEntity
  8
0
  6
ByLayer
420
2236962
 48
1.0
 60
0
370
-1
100
AcDbText
 39
0.0
 10
118.828125
 20
1588.03125
 30
0.0
 40
22.0
  1
=
 50
0.0
 41
1.0
 51
0.0
  7
Standard
 71
0
 72
0
 11
0.0
 21
0.0
 31
0.0
210
0.0
220
0.0
230
1.0
100
AcDbText
 73
0
  0
TEXT
  5
30
330
F
100
AcDbEntity
  8
0
  6
ByLayer
420
2236962
 48
1.0
 60
0
370
-1
100
AcDbText
 39
0.0
 10
166.796875
 20
1595.1262500000000273
 30
0.0
 40
15.6199999999999992
  1
−
 50
0.0
 41
1.0
 51
0.0
  7
Standard
 71
0
 72
0
 11
0.0
 21
0.0
 31
0.0
210
0.0
220
0.0
230
1.0
100
AcDbText
 73
0
  0
TEXT
  5
31
330
F
100
AcDbEntity
  8
0
  6
ByLayer
420
2236962
 48
1.0
 60
0
370
-1
100
AcDbText
 39
0.0
 10
175.171875
 20
1594.6262500000000273
 30
0.0
 40
15.6199999999999992
  1
b
 50
0.0
 41
1.0
 51
0.0
  7
Standard
 71
0
 72
0
 11
0.0
 21
0.0
 31
0.0
210
0.0
220
0.0
230
1.0
100
AcDbText
 73
0
  0
TEXT
  5
32
330
F
100
AcDbEntity
  8
0
  6
ByLayer
420
2236962
 48
1.0
 60
0
370
-1
100
AcDbText
 39
0.0
 10
202.609375
 20
1595.1262500000000273
 30
0.0
 40
15.6199999999999992
  1
±
 50
0.0
 41
1.0
 51
0.0
  7
Standard
 71
0
 72
0
 11
0.0
 21
0.0
 31
0.0
210
0.0
220
0.0
230
1.0
100
AcDbText
 73
0
  0
TEXT
  5
33
330
F
100
AcDbEntity
  8
0
  6
ByLayer
420
2236962
 48
1.0
 60
0
370
-1
100
AcDbText
 39
0.0
 10
241.40625
 20
1588.6262500000000273
 30
0.0
 40
15.6199999999999992
  1
b
 50
0.0
 41
1.0
 51
0.0
  7
Standard
 71
0
 72
0
 11
0.0
 21
0.0
 31
0.0
210
0.0
220
0.0
230
1.0
100
AcDbText
 73
0
  0
TEXT
  5
34
330
F
100
AcDbEntity
  8
0
  6
ByLayer
420
2236962
 48
1.0
 60
0
370
-1
100
AcDbText
 39
0.0
 10
259.40625
 20
1601.7743249999998625
 30
0.0
 40
11.0901999999999994
  1
2
 50
0.0
 41
1.0
 51
0.0
  7
Standard
 71
0
 72
0
 11
0.0
 21
0.0
 31
0.0
210
0.0
220
0.0
230
1.0
100
AcDbText
 73
0
  0
TEXT
  5
35
330
F
100
AcDbEntity
  8
0
  6
ByLayer
420
2236962
 48
1.0
 60
0
370
-1
100
AcDbText
 39
0.0
 10
285.390625
 20
1585.1262500000000273
 30
0.0
 40
15.6199999999999992
  1
−
 50
0.0
 41
1.0
 51
0.0
  7
Standard
 71
0
 72
0
 11
0.0
 21
0.0
 31
0.0
210
0.0
220
0.0
230
1.0
100
AcDbText
 73
0
  0
TEXT
  5
36
330
F
100
AcDbEntity
  8
0
  6
ByLayer
420
2236962
 48
1.0
 60
0
370
-1
100
AcDbText
 39
0.0
 10
308.859375
 20
1585.1262500000000273
 30
0.0
 40
15.6199999999999992
  1
4
 50
0.0
 41
1.0
 51
0.0
  7
Standard
 71
0
 72
0
 11
0.0
 21
0.0
 31
0.0
210
0.0
220
0.0
230
1.0
100
AcDbText
 73
0
  0
TEXT
  5
37
330
F
100
AcDbEntity
  8
0
  6
ByLayer
420
2236962
 48
1.0
 60
0
370
-1
100
AcDbText
 39
0.0
 10
324.671875
 20
1584.6262500000000273
 30
0.0
 40
15.6199999999999992
  1
a
 50
0.0
 41
1.0
 51
0.0
  7
Standard
 71
0
 72
0
 11
0.0
 21
0.0
 31
0.0
210
0.0
220
0.0
230
1.0
100
AcDbText
 73
0
  0
TEXT
  5
38
330
F
100
AcDbEntity
  8
0
  6
ByLayer
420
2236962
 48
1.0
 60
0
370
-1
100
AcDbText
 39
0.0
 10
342.671875
 20
1584.6262500000000273
 30
0.0
 40
15.6199999999999992
  1
c
 50
0.0
 41
1.0
 51
0.0
  7
Standard
 71
0
 72
0
 11
0.0
 21
0.0
 31
0.0
210
0.0
220
0.0
230
1.0
100
AcDbText
 73
0
  0
TEXT
  5
39
330
F
100
AcDbEntity
  8
0
  6
ByLayer
420
2236962
 48
1.0
 60
0
370
-1
100
AcDbText
 39
0.0
 10
240.609375
 20
1540.9387500000000273
 30
0.0
 40
15.6199999999999992
  1
2
 50
0.0
 41
1.0
 51
0.0
  7
Standard
 71
0
 72
0
 11
0.0
 21
0.0
 31
0.0
210
0.0
220
0.0
230
1.0
100
AcDbText
 73
0
  0
TEXT
  5
3A
330
F
100
AcDbEntity
  8
0
  6
ByLayer
420
2236962
 48
1.0
 60
0
370
-1
100
AcDbText
 39
0.0
 10
255.421875
 20
1540.4387500000000273
 30
0.0
 40
15.6199999999999992
  1
a
 50
0.0
 41
1.0
 51
0.0
  7
Standard
 71
0
 72
0
 11
0.0
 21
0.0
 31
0.0
210
0.0
220
0.0
230
1.0
100
AcDbText
 73
0
  0
HATCH
  5
3B
330
F
100
AcDbEntity
  8
0
  6
ByLayer
420
16448250
 48
1.0
 60
0
370
-1
100
AcDbHatch
 30
0.0
210
0.0
220
0.0
230
1.0
  2
SOLID
 70
1
 71
0
 91
1
 92
2
 72
0
 73
1
 93
4
 10
28.0
 20
1779.0
 10
1252.0
 20
1779.0
 10
1252.0
 20
1691.0
 10
28.0
 20
1691.0
 97
0
 75
0
 76
1
 47
0.0
 98
0
  0
LWPOLYLINE
  5
3C
330
F
100
AcDbEntity
  8
0
  6
ByLayer
420
12303291
 48
1.0
 60
0
370
-1
100
AcDbPolyline
 90
4
 70
1
 43
0.0
 38
0.0
 39
0.0
210
0.0
220
0.0
230
1.0
 10
28.0
 20
1779.0
 40
0.0
 41
0.0
 42
0.0
 10
1252.0
 20
1779.0
 40
0.0
 41
0.0
 42
0.0
 10
1252.0
 20
1691.0
 40
0.0
 41
0.0
 42
0.0
 10
28.0
 20
1691.0
 40
0.0
 41
0.0
 42
0.0
  0
TEXT
  5
3D
330
F
100
AcDbEntity
  8
0
  6
ByLayer
420
5592405
 48
1.0
 60
0
370
-1
100
AcDbText
 39
0.0
 10
41.0
 20
1749.5
 30
0.0
 40
16.0
  1
Summation
 50
0.0
 41
1.0
 51
0.0
  7
Standard
 71
0
 72
0
 11
0.0
 21
0.0
 31
0.0
210
0.0
220
0.0
230
1.0
100
AcDbText
 73
0
  0
LWPOLYLINE
  5
3E
330
F
100
AcDbEntity
  8
0
  6
ByLayer
420
2236962
 48
1.0
 60
0
370
-1
100
AcDbPolyline
 90
2
 70
0
 43
0.0
 38
0.0
 39
0.0
210
0.0
220
0.0
230
1.0
 10
141.9375
 20
1718.578125
 40
0.0
 41
0.0
 42
0.0
 10
246.9375
 20
1718.578125
 40
0.0
 41
0.0
 42
0.0
  0
TEXT
  5
3F
330
F
100
AcDbEntity
  8
0
  6
ByLayer
420
2236962
 48
1.0
 60
0
370
-1
100
AcDbText
 39
0.0
 10
110.515625
 20
1332.21875
 30
0.0
 40
22.0
  1
∑
 50
0.0
 41
1.0
 51
0.0
  7
Standard
 71
0
 72
0
 11
0.0
 21
0.0
 31
0.0
210
0.0
220
0.0
230
1.0
100
AcDbText
 73
0
  0
TEXT
  5
40
330
F
100
AcDbEntity
  8
0
  6
ByLayer
420
2236962
 48
1.0
 60
0
370
-1
100
AcDbText
 39
0.0
 10
121.34375
 20
1322.5950000000000273
 30
0.0
 40
15.6199999999999992
  1
i
 50
0.0
 41
1.0
 51
0.0
  7
Standard
 71
0
 72
0
 11
0.0
 21
0.0
 31
0.0
210
0.0
220
0.0
230
1.0
100
AcDbText
 73
0
  0
TEXT
  5
41
330
F
100
AcDbEntity
  8
0
  6
ByLayer
420
2236962
 48
1.0
 60
0
370
-1
100
AcDbText
 39
0.0
 10
140.78125
 20
1323.0950000000000273
 30
0.0
 40
15.6199999999999992
  1
=
 50
0.0
 41
1.0
 51
0.0
  7
Standard
 71
0
 72
0
 11
0.0
 21
0.0
 31
0.0
210
0.0
220
0.0
230
1.0
100
AcDbText
 73
0
  0
TEXT
  5
42
330
F
100
AcDbEntity
  8
0
  6
ByLayer
420
2236962
 48
1.0
 60
0
370
-1
100
AcDbText
 39
0.0
 10
167.03125
 20
1323.0950000000000273
 30
0.0
 40
15.6199999999999992
  1
1
 50
0.0
 41
1.0
 51
0.0
  7
Standard
 71
0
 72
0
 11
0.0
 21
0.0
 31
0.0
210
0.0
220
0.0
230
1.0
100
AcDbText
 73
0
  0
TEXT
  5
43
330
F
100
AcDbEntity
  8
0
  6
ByLayer
420
2236962
 48
1.0
 60
0
370
-1
100
AcDbText
 39
0.0
 10
121.34375
 20
1360.5950000000000273
 30
0.0
 40
15.6199999999999992
  1
n
 50
0.0
 41
1.0
 51
0.0
  7
Standard
 71
0
 72
0
 11
0.0
 21
0.0
 31
0.0
210
0.0
220
0.0
230
1.0
100
AcDbText
 73
0
  0
TEXT
  5
44
330
F
100
AcDbEntity
  8
0
  6
ByLayer
420
2236962
 48
1.0
 60
0
370
-1
100
AcDbText
 39
0.0
 10
198.5
 20
1336.90625
 30
0.0
 40
22.0
  1
i
 50
0.0
 41
1.0
 51
0.0
  7
Standard
 71
0
 72
0
 11
0.0
 21
0.0
 31
0.0
210
0.0
220
0.0
230
1.0
100
AcDbText
 73
0
  0
TEXT
  5
45
330
F
100
AcDbEntity
  8
0
  6
ByLayer
420
2236962
 48
1.0
 60
0
370
-1
100
AcDbText
 39
0.0
 10
211.484375
 20
1361.0950000000000273
 30
0.0
 40
15.6199999999999992
  1
2
 50
0.0
 41
1.0
 51
0.0
  7
Standard
 71
0
 72
0
 11
0.0
 21
0.0
 31
0.0
210
0.0
220
0.0
230
1.0
100
AcDbText
 73
0
  0
TEXT
  5
46
330
F
100
AcDbEntity
  8
0
  6
ByLayer
420
2236962
 48
1.0
 60
0
370
-1
100
AcDbText
 39
0.0
 10
247.40625
 20
1337.40625
 30
0.0
 40
22.0
  1
=
 50
0.0
 41
1.0
 51
0.0
  7
Standard
 71
0
 72
0
 11
0.0
 21
0.0
 31
0.0
210
0.0
220
0.0
230
1.0
100
AcDbText
 73
0
  0
TEXT
  5
47
330
F
100
AcDbEntity
  8
0
  6
ByLayer
420
2236962
 48
1.0
 60
0
370
-1
100
AcDbText
 39
0.0
 10
286.9375
 20
1353.0012500000000273
 30
0.0
 40
15.6199999999999992
  1
n
 50
0.0
 41
1.0
 51
0.0
  7
Standard
 71
0
 72
0
 11
0.0
 21
0.0
 31
0.0
210
0.0
220
0.0
230
1.0
100
AcDbText
 73
0
  0
TEXT
  5
48
330
F
100
AcDbEntity
  8
0
  6
ByLayer
420
2236962
 48
1.0
 60
0
370
-1
100
AcDbText
 39
0.0
 10
313.375
 20
1353.5012500000000273
 30
0.0
 40
15.6199999999999992
  1
(
 50
0.0
 41
1.0
 51
0.0
  7
Standard
 71
0
 72
0
 11
0.0
 21
0.0
 31
0.0
210
0.0
220
0.0
230
1.0
100
AcDbText
 73
0
  0
TEXT
  5
49
330
F
100
AcDbEntity
  8
0
  6
ByLayer
420
2236962
 48
1.0
 60
0
370
-1
100
AcDbText
 39
0.0
 10
315.140625
 20
1353.0012500000000273
 30
0.0
 40
15.6199999999999992
  1
n
 50
0.0
 41
1.0
 51
0.0
  7
Standard
 71
0
 72
0
 11
0.0
 21
0.0
 31
0.0
210
0.0
220
0.0
230
1.0
100
AcDbText
 73
0
  0
TEXT
  5
4A
330
F
100
AcDbEntity
  8
0
  6
ByLayer
420
2236962
 48
1.0
 60
0
370
-1
100
AcDbText
 39
0.0
 10
342.578125
 20
1353.5012500000000273
 30
0.0
 40
15.6199999999999992
  1
+
 50
0.0
 41
1.0
 51
0.0
  7
Standard
 71
0
 72
0
 11
0.0
 21
0.0
 31
0.0
210
0.0
220
0.0
230
1.0
100
AcDbText
 73
0
  0
TEXT
  5
4B
330
F
100
AcDbEntity
  8
0
  6
ByLayer
420
2236962
 48
1.0
 60
0
370
-1
100
AcDbText
 39
0.0
 10
365.046875
 20
1353.5012500000000273
 30
0.0
 40
15.6199999999999992
  1
1
 50
0.0
 41
1.0
 51
0.0
  7
Standard
 71
0
 72
0
 11
0.0
 21
0.0
 31
0.0
210
0.0
220
0.0
230
1.0
100
AcDbText
 73
0
  0
TEXT
  5
4C
330
F
100
AcDbEntity
  8
0
  6
ByLayer
420
2236962
 48
1.0
 60
0
370
-1
100
AcDbText
 39
0.0
 10
389.296875
 20
1353.5012500000000273
 30
0.0
 40
15.6199999999999992
  1
)
 50
0.0
 41
1.0
 51
0.0
  7
Standard
 71
0
 72
0
 11
0.0
 21
0.0
 31
0.0
210
0.0
220
0.0
230
1.0
100
AcDbText
 73
0
  0
TEXT
  5
4D
330
F
100
AcDbEntity
  8
0
  6
ByLayer
420
2236962
 48
1.0
 60
0
370
-1
100
AcDbText
 39
0.0
 10
400.5
 20
1353.5012500000000273
 30
0.0
 40
15.6199999999999992
  1
(
 50
0.0
 41
1.0
 51
0.0
  7
Standard
 71
0
 72
0
 11
0.0
 21
0.0
 31
0.0
210
0.0
220
0.0
230
1.0
100
AcDbText
 73
0
  0
TEXT
  5
4E
330
F
100
AcDbEntity
  8
0
  6
ByLayer
420
2236962
 48
1.0
 60
0
370
-1
100
AcDbText
 39
0.0
 10
401.265625
 20
1353.5012500000000273
 30
0.0
 40
15.6199999999999992
  1
2
 50
0.0
 41
1.0
 51
0.0
  7
Standard
 71
0
 72
0
 11
0.0
 21
0.0
 31
0.0
210
0.0
220
0.0
230
1.0
100
AcDbText
 73
0
  0
TEXT
  5
4F
330
F
100
AcDbEntity
  8
0
  6
ByLayer
420
2236962
 48
1.0
 60
0
370
-1
100
AcDbText
 39
0.0
 10
417.078125
 20
1353.0012500000000273
 30
0.0
 40
15.6199999999999992
  1
n
 50
0.0
 41
1.0
 51
0.0
  7
Standard
 71
0
 72
0
 11
0.0
 21
0.0
 31
0.0
210
0.0
220
0.0
230
1.0
100
AcDbText
 73
0
  0
TEXT
  5
50
330
F
100
AcDbEntity
  8
0
  6
ByLayer
420
2236962
 48
1.0
 60
0
370
-1
100
AcDbText
 39
0.0
 10
444.515625
 20
1353.5012500000000273
 30
0.0
 40
15.6199999999999992
  1
+
 50
0.0
 41
1.0
 51
0.0
  7
Standard
 71
0
 72
0
 11
0.0
 21
0.0
 31
0.0
210
0.0
220
0.0
230
1.0
100
AcDbText
 73
0
  0
TEXT
  5
51
330
F
100
AcDbEntity
  8
0
  6
ByLayer
420
2236962
 48
1.0
 60
0
370
-1
100
AcDbText
 39
0.0
 10
466.984375
 20
1353.5012500000000273
 30
0.0
 40
15.6199999999999992
  1
1
 50
0.0
 41
1.0
 51
0.0
  7
Standard
 71
0
 72
0
 11
0.0
 21
0.0
 31
0.0
210
0.0
220
0.0
230
1.0
100
AcDbText
 73
0
  0
TEXT
  5
52
330
F
100
AcDbEntity
  8
0
  6
ByLayer
420
2236962
 48
1.0
 60
0
370
-1
100
AcDbText
 39
0.0
 10
491.234375
 20
1353.5012500000000273
 30
0.0
 40
15.6199999999999992
  1
)
 50
0.0
 41
1.0
 51
0.0
  7
Standard
 71
0
 72
0
 11
0.0
 21
0.0
 31
0.0
210
0.0
220
0.0
230
1.0
100
AcDbText
 73
0
  0
TEXT
  5
53
330
F
100
AcDbEntity
  8
0
  6
ByLayer
420
2236962
 48
1.0
 60
0
370
-1
100
AcDbText
 39
0.0
 10
382.5625
 20
1309.3137500000000273
 30
0.0
 40
15.6199999999999992
  1
6
 50
0.0
 41
1.0
 51
0.0
  7
Standard
 71
0
 72
0
 11
0.0
 21
0.0
 31
0.0
210
0.0
220
0.0
230
1.0
100
AcDbText
 73
0
  0
HATCH
  5
54
330
F
100
AcDbEntity
  8
0
  6
ByLayer
420
16448250
 48
1.0
 60
0
370
-1
100
AcDbHatch
 30
0.0
210
0.0
220
0.0
230
1.0
  2
SOLID
 70
1
 71
0
 91
1
 92
2
 72
0
 73
1
 93
4
 10
28.0
 20
1663.0
 10
1252.0
 20
1663.0
 10
1252.0
 20
1533.0
 10
28.0
 20
1533.0
 97
0
 75
0
 76
1
 47
0.0
 98
0
  0
LWPOLYLINE
  5
55
330
F
100
AcDbEntity
  8
0
  6
ByLayer
420
12303291
 48
1.0
 60
0
370
-1
100
AcDbPolyline
 90
4
 70
1
 43
0.0
 38
0.0
 39
0.0
210
0.0
220
0.0
230
1.0
 10
28.0
 20
1663.0
 40
0.0
 41
0.0
 42
0.0
 10
1252.0
 20
1663.0
 40
0.0
 41
0.0
 42
0.0
 10
1252.0
 20
1533.0
 40
0.0
 41
0.0
 42
0.0
 10
28.0
 20
1533.0
 40
0.0
 41
0.0
 42
0.0
  0
TEXT
  5
56
330
F
100
AcDbEntity
  8
0
  6
ByLayer
420
5592405
 48
1.0
 60
0
370
-1
100
AcDbText
 39
0.0
 10
41.0
 20
1633.5
 30
0.0
 40
16.0
  1
Matrix
 50
0.0
 41
1.0
 51
0.0
  7
Standard
 71
0
 72
0
 11
0.0
 21
0.0
 31
0.0
210
0.0
220
0.0
230
1.0
100
AcDbText
 73
0
  0
TEXT
  5
57
330
F
100
AcDbEntity
  8
0
  6
ByLayer
420
2236962
 48
1.0
 60
0
370
-1
100
AcDbText
 39
0.0
 10
95.109375
 20
1079.375
 30
0.0
 40
22.0
  1
[
 50
0.0
 41
1.0
 51
0.0
  7
Standard
 71
0
 72
0
 11
0.0
 21
0.0
 31
0.0
210
0.0
220
0.0
230
1.0
100
AcDbText
 73
0
  0
TEXT
  5
58
330
F
100
AcDbEntity
  8
0
  6
ByLayer
420
2236962
 48
1.0
 60
0
370
-1
100
AcDbText
 39
0.0
 10
115.125
 20
1113.59375
 30
0.0
 40
22.0
  1
1
 50
0.0
 41
1.0
 51
0.0
  7
Standard
 71
0
 72
0
 11
0.0
 21
0.0
 31
0.0
210
0.0
220
0.0
230
1.0
100
AcDbText
 73
0
  0
TEXT
  5
59
330
F
100
AcDbEntity
  8
0
  6
ByLayer
420
2236962
 48
1.0
 60
0
370
-1
100
AcDbText
 39
0.0
 10
172.71875
 20
1113.59375
 30
0.0
 40
22.0
  1
0
 50
0.0
 41
1.0
 51
0.0
  7
Standard
 71
0
 72
0
 11
0.0
 21
0.0
 31
0.0
210
0.0
220
0.0
230
1.0
100
AcDbText
 73
0
  0
TEXT
  5
5A
330
F
100
AcDbEntity
  8
0
  6
ByLayer
420
2236962
 48
1.0
 60
0
370
-1
100
AcDbText
 39
0.0
 10
229.3125
 20
1113.59375
 30
0.0
 40
22.0
  1
0
 50
0.0
 41
1.0
 51
0.0
  7
Standard
 71
0
 72
0
 11
0.0
 21
0.0
 31
0.0
210
0.0
220
0.0
230
1.0
100
AcDbText
 73
0
  0
TEXT
  5
5B
330
F
100
AcDbEntity
  8
0
  6
ByLayer
420
2236962
 48
1.0
 60
0
370
-1
100
AcDbText
 39
0.0
 10
115.125
 20
1041.78125
 30
0.0
 40
22.0
  1
0
 50
0.0
 41
1.0
 51
0.0
  7
Standard
 71
0
 72
0
 11
0.0
 21
0.0
 31
0.0
210
0.0
220
0.0
230
1.0
100
AcDbText
 73
0
  0
TEXT
  5
5C
330
F
100
AcDbEntity
  8
0
  6
ByLayer
420
2236962
 48
1.0
 60
0
370
-1
100
AcDbText
 39
0.0
 10
172.71875
 20
1041.78125
 30
0.0
 40
22.0
  1
1
 50
0.0
 41
1.0
 51
0.0
  7
Standard
 71
0
 72
0
 11
0.0
 21
0.0
 31
0.0
210
0.0
220
0.0
230
1.0
100
AcDbText
 73
0
  0
TEXT
  5
5D
330
F
100
AcDbEntity
  8
0
  6
ByLayer
420
2236962
 48
1.0
 60
0
370
-1
100
AcDbText
 39
0.0
 10
229.3125
 20
1041.78125
 30
0.0
 40
22.0
  1
0
 50
0.0
 41
1.0
 51
0.0
  7
Standard
 71
0
 72
0
 11
0.0
 21
0.0
 31
0.0
210
0.0
220
0.0
230
1.0
100
AcDbText
 73
0
  0
TEXT
  5
5E
330
F
100
AcDbEntity
  8
0
  6
ByLayer
420
2236962
 48
1.0
 60
0
370
-1
100
AcDbText
 39
0.0
 10
115.125
 20
969.96875
 30
0.0
 40
22.0
  1
0
 50
0.0
 41
1.0
 51
0.0
  7
Standard
 71
0
 72
0
 11
0.0
 21
0.0
 31
0.0
210
0.0
220
0.0
230
1.0
100
AcDbText
 73
0
  0
TEXT
  5
5F
330
F
100
AcDbEntity
  8
0
  6
ByLayer
420
2236962
 48
1.0
 60
0
370
-1
100
AcDbText
 39
0.0
 10
172.71875
 20
969.96875
 30
0.0
 40
22.0
  1
0
 50
0.0
 41
1.0
 51
0.0
  7
Standard
 71
0
 72
0
 11
0.0
 21
0.0
 31
0.0
210
0.0
220
0.0
230
1.0
100
AcDbText
 73
0
  0
TEXT
  5
60
330
F
100
AcDbEntity
  8
0
  6
ByLayer
420
2236962
 48
1.0
 60
0
370
-1
100
AcDbText
 39
0.0
 10
229.3125
 20
969.96875
 30
0.0
 40
22.0
  1
1
 50
0.0
 41
1.0
 51
0.0
  7
Standard
 71
0
 72
0
 11
0.0
 21
0.0
 31
0.0
210
0.0
220
0.0
230
1.0
100
AcDbText
 73
0
  0
TEXT
  5
61
330
F
100
AcDbEntity
  8
0
  6
ByLayer
420
2236962
 48
1.0
 60
0
370
-1
100
AcDbText
 39
0.0
 10
281.21875
 20
1045.875
 30
0.0
 40
22.0
  1
]
 50
0.0
 41
1.0
 51
0.0
  7
Standard
 71
0
 72
0
 11
0.0
 21
0.0
 31
0.0
210
0.0
220
0.0
230
1.0
100
AcDbText
 73
0
  0
HATCH
  5
62
330
F
100
AcDbEntity
  8
0
  6
ByLayer
420
16448250
 48
1.0
 60
0
370
-1
100
AcDbHatch
 30
0.0
210
0.0
220
0.0
230
1.0
  2
SOLID
 70
1
 71
0
 91
1
 92
2
 72
0
 73
1
 93
4
 10
28.0
 20
1484.0
 10
1252.0
 20
1484.0
 10
1252.0
 20
1399.0
 10
28.0
 20
1399.0
 97
0
 75
0
 76
1
 47
0.0
 98
0
  0
LWPOLYLINE
  5
63
330
F
100
AcDbEntity
  8
0
  6
ByLayer
420
12303291
 48
1.0
 60
0
370
-1
100
AcDbPolyline
 90
4
 70
1
 43
0.0
 38
0.0
 39
0.0
210
0.0
220
0.0
230
1.0
 10
28.0
 20
1484.0
 40
0.0
 41
0.0
 42
0.0
 10
1252.0
 20
1484.0
 40
0.0
 41
0.0
 42
0.0
 10
1252.0
 20
1399.0
 40
0.0
 41
0.0
 42
0.0
 10
28.0
 20
1399.0
 40
0.0
 41
0.0
 42
0.0
  0
TEXT
  5
64
330
F
100
AcDbEntity
  8
0
  6
ByLayer
420
5592405
 48
1.0
 60
0
370
-1
100
AcDbText
 39
0.0
 10
41.0
 20
1454.5
 30
0.0
 40
16.0
  1
Integral
 50
0.0
 41
1.0
 51
0.0
  7
Standard
 71
0
 72
0
 11
0.0
 21
0.0
 31
0.0
210
0.0
220
0.0
230
1.0
100
AcDbText
 73
0
  0
TEXT
  5
65
330
F
100
AcDbEntity
  8
0
  6
ByLayer
420
2236962
 48
1.0
 60
0
370
-1
100
AcDbText
 39
0.0
 10
95.109375
 20
761.40625
 30
0.0
 40
22.0
  1
∫
 50
0.0
 41
1.0
 51
0.0
  7
Standard
 71
0
 72
0
 11
0.0
 21
0.0
 31
0.0
210
0.0
220
0.0
230
1.0
100
AcDbText
 73
0
  0
TEXT
  5
66
330
F
100
AcDbEntity
  8
0
  6
ByLayer
420
2236962
 48
1.0
 60
0
370
-1
100
AcDbText
 39
0.0
 10
102.6875
 20
733.0950000000000273
 30
0.0
 40
15.6199999999999992
  1
0
 50
0.0
 41
1.0
 51
0.0
  7
Standard
 71
0
 72
0
 11
0.0
 21
0.0
 31
0.0
210
0.0
220
0.0
230
1.0
100
AcDbText
 73
0
  0
TEXT
  5
67
330
F
100
AcDbEntity
  8
0
  6
ByLayer
420
2236962
 48
1.0
 60
0
370
-1
100
AcDbText
 39
0.0
 10
102.6875
 20
771.0950000000000273
 30
0.0
 40
15.6199999999999992
  1
∞
 50
0.0
 41
1.0
 51
0.0
  7
Standard
 71
0
 72
0
 11
0.0
 21
0.0
 31
0.0
210
0.0
220
0.0
230
1.0
100
AcDbText
 73
0
  0
TEXT
  5
68
330
F
100
AcDbEntity
  8
0
  6
ByLayer
420
2236962
 48
1.0
 60
0
370
-1
100
AcDbText
 39
0.0
 10
139.484375
 20
746.90625
 30
0.0
 40
22.0
  1
e
 50
0.0
 41
1.0
 51
0.0
  7
Standard
 71
0
 72
0
 11
0.0
 21
0.0
 31
0.0
210
0.0
220
0.0
230
1.0
100
AcDbText
 73
0
  0
TEXT
  5
69
330
F
100
AcDbEntity
  8
0
  6
ByLayer
420
2236962
 48
1.0
 60
0
370
-1
100
AcDbText
 39
0.0
 10
170.84375
 20
771.0950000000000273
 30
0.0
 40
15.6199999999999992
  1
−
 50
0.0
 41
1.0
 51
0.0
  7
Standard
 71
0
 72
0
 11
0.0
 21
0.0
 31
0.0
210
0.0
220
0.0
230
1.0
100
AcDbText
 73
0
  0
TEXT
  5
6A
330
F
100
AcDbEntity
  8
0
  6
ByLayer
420
2236962
 48
1.0
 60
0
370
-1
100
AcDbText
 39
0.0
 10
179.21875
 20
770.5950000000000273
 30
0.0
 40
15.6199999999999992
  1
x
 50
0.0
 41
1.0
 51
0.0
  7
Standard
 71
0
 72
0
 11
0.0
 21
0.0
 31
0.0
210
0.0
220
0.0
230
1.0
100
AcDbText
 73
0
  0
TEXT
  5
6B
330
F
100
AcDbEntity
  8
0
  6
ByLayer
420
2236962
 48
1.0
 60
0
370
-1
100
AcDbText
 39
0.0
 10
205.21875
 20
746.90625
 30
0.0
 40
22.0
  1
d
 50
0.0
 41
1.0
 51
0.0
  7
Standard
 71
0
 72
0
 11
0.0
 21
0.0
 31
0.0
210
0.0
220
0.0
230
1.0
100
AcDbText
 73
0
  0
TEXT
  5
6C
330
F
100
AcDbEntity
  8
0
  6
ByLayer
420
2236962
 48
1.0
 60
0
370
-1
100
AcDbText
 39
0.0
 10
230.984375
 20
746.90625
 30
0.0
 40
22.0
  1
x
 50
0.0
 41
1.0
 51
0.0
  7
Standard
 71
0
 72
0
 11
0.0
 21
0.0
 31
0.0
210
0.0
220
0.0
230
1.0
100
AcDbText
 73
0
  0
TEXT
  5
6D
330
F
100
AcDbEntity
  8
0
  6
ByLayer
420
2236962
 48
1.0
 60
0
370
-1
100
AcDbText
 39
0.0
 10
266.8125
 20
747.40625
 30
0.0
 40
22.0
  1
=
 50
0.0
 41
1.0
 51
0.0
  7
Standard
 71
0
 72
0
 11
0.0
 21
0.0
 31
0.0
210
0.0
220
0.0
230
1.0
100
AcDbText
 73
0
  0
TEXT
  5
6E
330
F
100
AcDbEntity
  8
0
  6
ByLayer
420
2236962
 48
1.0
 60
0
370
-1
100
AcDbText
 39
0.0
 10
303.34375
 20
747.40625
 30
0.0
 40
22.0
  1
1
 50
0.0
 41
1.0
 51
0.0
  7
Standard
 71
0
 72
0
 11
0.0
 21
0.0
 31
0.0
210
0.0
220
0.0
230
1.0
100
AcDbText
 73
0
  0
HATCH
  5
6F
330
F
100
AcDbEntity
  8
0
  6
ByLayer
420
16448250
 48
1.0
 60
0
370
-1
100
AcDbHatch
 30
0.0
210
0.0
220
0.0
230
1.0
  2
SOLID
 70
1
 71
0
 91
1
 92
2
 72
0
 73
1
 93
4
 10
28.0
 20
1369.0
 10
1252.0
 20
1369.0
 10
1252.0
 20
1286.0
 10
28.0
 20
1286.0
 97
0
 75
0
 76
1
 47
0.0
 98
0
  0
LWPOLYLINE
  5
70
330
F
100
AcDbEntity
  8
0
  6
ByLayer
420
12303291
 48
1.0
 60
0
370
-1
100
AcDbPolyline
 90
4
 70
1
 43
0.0
 38
0.0
 39
0.0
210
0.0
220
0.0
230
1.0
 10
28.0
 20
1369.0
 40
0.0
 41
0.0
 42
0.0
 10
1252.0
 20
1369.0
 40
0.0
 41
0.0
 42
0.0
 10
1252.0
 20
1286.0
 40
0.0
 41
0.0
 42
0.0
 10
28.0
 20
1286.0
 40
0.0
 41
0.0
 42
0.0
  0
TEXT
  5
71
330
F
100
AcDbEntity
  8
0
  6
ByLayer
420
5592405
 48
1.0
 60
0
370
-1
100
AcDbText
 39
0.0
 10
41.0
 20
1339.5
 30
0.0
 40
16.0
  1
Superscript & Subscript
 50
0.0
 41
1.0
 51
0.0
  7
Standard
 71
0
 72
0
 11
0.0
 21
0.0
 31
0.0
210
0.0
220
0.0
230
1.0
100
AcDbText
 73
0
  0
TEXT
  5
72
330
F
100
AcDbEntity
  8
0
  6
ByLayer
420
2236962
 48
1.0
 60
0
370
-1
100
AcDbText
 39
0.0
 10
83.0
 20
522.90625
 30
0.0
 40
22.0
  1
a
 50
0.0
 41
1.0
 51
0.0
  7
Standard
 71
0
 72
0
 11
0.0
 21
0.0
 31
0.0
210
0.0
220
0.0
230
1.0
100
AcDbText
 73
0
  0
TEXT
  5
73
330
F
100
AcDbEntity
  8
0
  6
ByLayer
420
2236962
 48
1.0
 60
0
370
-1
100
AcDbText
 39
0.0
 10
107.265625
 20
541.0950000000000273
 30
0.0
 40
15.6199999999999992
  1
2
 50
0.0
 41
1.0
 51
0.0
  7
Standard
 71
0
 72
0
 11
0.0
 21
0.0
 31
0.0
210
0.0
220
0.0
230
1.0
100
AcDbText
 73
0
  0
TEXT
  5
74
330
F
100
AcDbEntity
  8
0
  6
ByLayer
420
2236962
 48
1.0
 60
0
370
-1
100
AcDbText
 39
0.0
 10
143.1875
 20
517.40625
 30
0.0
 40
22.0
  1
+
 50
0.0
 41
1.0
 51
0.0
  7
Standard
 71
0
 72
0
 11
0.0
 21
0.0
 31
0.0
210
0.0
220
0.0
230
1.0
100
AcDbText
 73
0
  0
TEXT
  5
75
330
F
100
AcDbEntity
  8
0
  6
ByLayer
420
2236962
 48
1.0
 60
0
370
-1
100
AcDbText
 39
0.0
 10
175.25
 20
516.90625
 30
0.0
 40
22.0
  1
b
 50
0.0
 41
1.0
 51
0.0
  7
Standard
 71
0
 72
0
 11
0.0
 21
0.0
 31
0.0
210
0.0
220
0.0
230
1.0
100
AcDbText
 73
0
  0
TEXT
  5
76
330
F
100
AcDbEntity
  8
0
  6
ByLayer
420
2236962
 48
1.0
 60
0
370
-1
100
AcDbText
 39
0.0
 10
199.109375
 20
541.0950000000000273
 30
0.0
 40
15.6199999999999992
  1
2
 50
0.0
 41
1.0
 51
0.0
  7
Standard
 71
0
 72
0
 11
0.0
 21
0.0
 31
0.0
210
0.0
220
0.0
230
1.0
100
AcDbText
 73
0
  0
TEXT
  5
77
330
F
100
AcDbEntity
  8
0
  6
ByLayer
420
2236962
 48
1.0
 60
0
370
-1
100
AcDbText
 39
0.0
 10
235.03125
 20
517.40625
 30
0.0
 40
22.0
  1
=
 50
0.0
 41
1.0
 51
0.0
  7
Standard
 71
0
 72
0
 11
0.0
 21
0.0
 31
0.0
210
0.0
220
0.0
230
1.0
100
AcDbText
 73
0
  0
TEXT
  5
78
330
F
100
AcDbEntity
  8
0
  6
ByLayer
420
2236962
 48
1.0
 60
0
370
-1
100
AcDbText
 39
0.0
 10
272.5625
 20
516.90625
 30
0.0
 40
22.0
  1
c
 50
0.0
 41
1.0
 51
0.0
  7
Standard
 71
0
 72
0
 11
0.0
 21
0.0
 31
0.0
210
0.0
220
0.0
230
1.0
100
AcDbText
 73
0
  0
TEXT
  5
79
330
F
100
AcDbEntity
  8
0
  6
ByLayer
420
2236962
 48
1.0
 60
0
370
-1
100
AcDbText
 39
0.0
 10
292.6875
 20
541.0950000000000273
 30
0.0
 40
15.6199999999999992
  1
2
 50
0.0
 41
1.0
 51
0.0
  7
Standard
 71
0
 72
0
 11
0.0
 21
0.0
 31
0.0
210
0.0
220
0.0
230
1.0
100
AcDbText
 73
0
  0
TEXT
  5
7A
330
F
100
AcDbEntity
  8
0
  6
ByLayer
420
2236962
 48
1.0
 60
0
370
-1
100
AcDbText
 39
0.0
 10
406.5
 20
516.90625
 30
0.0
 40
22.0
  1
H
 50
0.0
 41
1.0
 51
0.0
  7
Standard
 71
0
 72
0
 11
0.0
 21
0.0
 31
0.0
210
0.0
220
0.0
230
1.0
100
AcDbText
 73
0
  0
TEXT
  5
7B
330
F
100
AcDbEntity
  8
0
  6
ByLayer
420
2236962
 48
1.0
 60
0
370
-1
100
AcDbText
 39
0.0
 10
438.53125
 20
487.0950000000000273
 30
0.0
 40
15.6199999999999992
  1
2
 50
0.0
 41
1.0
 51
0.0
  7
Standard
 71
0
 72
0
 11
0.0
 21
0.0
 31
0.0
210
0.0
220
0.0
230
1.0
100
AcDbText
 73
0
  0
TEXT
  5
7C
330
F
100
AcDbEntity
  8
0
  6
ByLayer
420
2236962
 48
1.0
 60
0
370
-1
100
AcDbText
 39
0.0
 10
461.34375
 20
516.90625
 30
0.0
 40
22.0
  1
O
 50
0.0
 41
1.0
 51
0.0
  7
Standard
 71
0
 72
0
 11
0.0
 21
0.0
 31
0.0
210
0.0
220
0.0
230
1.0
100
AcDbText
 73
0
  0
HATCH
  5
7D
330
F
100
AcDbEntity
  8
0
  6
ByLayer
420
16448250
 48
1.0
 60
0
370
-1
100
AcDbHatch
 30
0.0
210
0.0
220
0.0
230
1.0
  2
SOLID
 70
1
 71
0
 91
1
 92
2
 72
0
 73
1
 93
4
 10
28.0
 20
1253.0
 10
1252.0
 20
1253.0
 10
1252.0
 20
1166.0
 10
28.0
 20
1166.0
 97
0
 75
0
 76
1
 47
0.0
 98
0
  0
LWPOLYLINE
  5
7E
330
F
100
AcDbEntity
  8
0
  6
ByLayer
420
12303291
 48
1.0
 60
0
370
-1
100
AcDbPolyline
 90
4
 70
1
 43
0.0
 38
0.0
 39
0.0
210
0.0
220
0.0
230
1.0
 10
28.0
 20
1253.0
 40
0.0
 41
0.0
 42
0.0
 10
1252.0
 20
1253.0
 40
0.0
 41
0.0
 42
0.0
 10
1252.0
 20
1166.0
 40
0.0
 41
0.0
 42
0.0
 10
28.0
 20
1166.0
 40
0.0
 41
0.0
 42
0.0
  0
TEXT
  5
7F
330
F
100
AcDbEntity
  8
0
  6
ByLayer
420
5592405
 48
1.0
 60
0
370
-1
100
AcDbText
 39
0.0
 10
41.0
 20
1223.5
 30
0.0
 40
16.0
  1
Square Root
 50
0.0
 41
1.0
 51
0.0
  7
Standard
 71
0
 72
0
 11
0.0
 21
0.0
 31
0.0
210
0.0
220
0.0
230
1.0
100
AcDbText
 73
0
  0
LWPOLYLINE
  5
80
330
F
100
AcDbEntity
  8
0
  6
ByLayer
420
2236962
 48
1.0
 60
0
370
-1
100
AcDbPolyline
 90
2
 70
0
 43
0.0
 38
0.0
 39
0.0
210
0.0
220
0.0
230
1.0
 10
53.0625
 20
1210.328125
 40
0.0
 41
0.0
 42
0.0
 10
122.984375
 20
1210.328125
 40
0.0
 41
0.0
 42
0.0
  0
LWPOLYLINE
  5
81
330
F
100
AcDbEntity
  8
0
  6
ByLayer
420
2236962
 48
1.0
 60
0
370
-1
100
AcDbPolyline
 90
3
 70
0
 43
0.0
 38
0.0
 39
0.0
210
0.0
220
0.0
230
1.0
 10
42.8093750000000028
 20
1196.27734375
 40
0.0
 41
0.0
 42
0.0
 10
45.8250000000000028
 20
1184.78125
 40
0.0
 41
0.0
 42
0.0
 10
53.0625
 20
1210.328125
 40
0.0
 41
0.0
 42
0.0
  0
TEXT
  5
82
330
F
100
AcDbEntity
  8
0
  6
ByLayer
420
2236962
 48
1.0
 60
0
370
-1
100
AcDbText
 39
0.0
 10
107.0625
 20
284.453125
 30
0.0
 40
22.0
  1
a
 50
0.0
 41
1.0
 51
0.0
  7
Standard
 71
0
 72
0
 11
0.0
 21
0.0
 31
0.0
210
0.0
220
0.0
230
1.0
100
AcDbText
 73
0
  0
TEXT
  5
83
330
F
100
AcDbEntity
  8
0
  6
ByLayer
420
2236962
 48
1.0
 60
0
370
-1
100
AcDbText
 39
0.0
 10
131.328125
 20
302.6418750000000273
 30
0.0
 40
15.6199999999999992
  1
2
 50
0.0
 41
1.0
 51
0.0
  7
Standard
 71
0
 72
0
 11
0.0
 21
0.0
 31
0.0
210
0.0
220
0.0
230
1.0
100
AcDbText
 73
0
  0
TEXT
  5
84
330
F
100
AcDbEntity
  8
0
  6
ByLayer
420
2236962
 48
1.0
 60
0
370
-1
100
AcDbText
 39
0.0
 10
167.25
 20
278.953125
 30
0.0
 40
22.0
  1
+
 50
0.0
 41
1.0
 51
0.0
  7
Standard
 71
0
 72
0
 11
0.0
 21
0.0
 31
0.0
210
0.0
220
0.0
230
1.0
100
AcDbText
 73
0
  0
TEXT
  5
85
330
F
100
AcDbEntity
  8
0
  6
ByLayer
420
2236962
 48
1.0
 60
0
370
-1
100
AcDbText
 39
0.0
 10
199.3125
 20
278.453125
 30
0.0
 40
22.0
  1
b
 50
0.0
 41
1.0
 51
0.0
  7
Standard
 71
0
 72
0
 11
0.0
 21
0.0
 31
0.0
210
0.0
220
0.0
230
1.0
100
AcDbText
 73
0
  0
TEXT
  5
86
330
F
100
AcDbEntity
  8
0
  6
ByLayer
420
2236962
 48
1.0
 60
0
370
-1
100
AcDbText
 39
0.0
 10
223.171875
 20
302.6418750000000273
 30
0.0
 40
15.6199999999999992
  1
2
 50
0.0
 41
1.0
 51
0.0
  7
Standard
 71
0
 72
0
 11
0.0
 21
0.0
 31
0.0
210
0.0
220
0.0
230
1.0
100
AcDbText
 73
0
  0
TEXT
  5
87
330
F
100
AcDbEntity
  8
0
  6
ByLayer
420
2236962
 48
1.0
 60
0
370
-1
100
AcDbText
 39
0.0
 10
259.09375
 20
278.953125
 30
0.0
 40
22.0
  1
=
 50
0.0
 41
1.0
 51
0.0
  7
Standard
 71
0
 72
0
 11
0.0
 21
0.0
 31
0.0
210
0.0
220
0.0
230
1.0
100
AcDbText
 73
0
  0
TEXT
  5
88
330
F
100
AcDbEntity
  8
0
  6
ByLayer
420
2236962
 48
1.0
 60
0
370
-1
100
AcDbText
 39
0.0
 10
296.625
 20
278.453125
 30
0.0
 40
22.0
  1
c
 50
0.0
 41
1.0
 51
0.0
  7
Standard
 71
0
 72
0
 11
0.0
 21
0.0
 31
0.0
210
0.0
220
0.0
230
1.0
100
AcDbText
 73
0
  0
HATCH
  5
89
330
F
100
AcDbEntity
  8
0
  6
ByLayer
420
16448250
 48
1.0
 60
0
370
-1
100
AcDbHatch
 30
0.0
210
0.0
220
0.0
230
1.0
  2
SOLID
 70
1
 71
0
 91
1
 92
2
 72
0
 73
1
 93
4
 10
28.0
 20
1143.0
 10
1252.0
 20
1143.0
 10
1252.0
 20
1048.0
 10
28.0
 20
1048.0
 97
0
 75
0
 76
1
 47
0.0
 98
0
  0
LWPOLYLINE
  5
8A
330
F
100
AcDbEntity
  8
0
  6
ByLayer
420
12303291
 48
1.0
 60
0
370
-1
100
AcDbPolyline
 90
4
 70
1
 43
0.0
 38
0.0
 39
0.0
210
0.0
220
0.0
230
1.0
 10
28.0
 20
1143.0
 40
0.0
 41
0.0
 42
0.0
 10
1252.0
 20
1143.0
 40
0.0
 41
0.0
 42
0.0
 10
1252.0
 20
1048.0
 40
0.0
 41
0.0
 42
0.0
 10
28.0
 20
1048.0
 40
0.0
 41
0.0
 42
0.0
  0
TEXT
  5
8B
330
F
100
AcDbEntity
  8
0
  6
ByLayer
420
5592405
 48
1.0
 60
0
370
-1
100
AcDbText
 39
0.0
 10
41.0
 20
1113.5
 30
0.0
 40
16.0
  1
Nested Fractions
 50
0.0
 41
1.0
 51
0.0
  7
Standard
 71
0
 72
0
 11
0.0
 21
0.0
 31
0.0
210
0.0
220
0.0
230
1.0
100
AcDbText
 73
0
  0
LWPOLYLINE
  5
8C
330
F
100
AcDbEntity
  8
0
  6
ByLayer
420
2236962
 48
1.0
 60
0
370
-1
100
AcDbPolyline
 90
2
 70
0
 43
0.0
 38
0.0
 39
0.0
210
0.0
220
0.0
230
1.0
 10
41.0
 20
1086.6875
 40
0.0
 41
0.0
 42
0.0
 10
91.34375
 20
1086.6875
 40
0.0
 41
0.0
 42
0.0
  0
LWPOLYLINE
  5
8D
330
F
100
AcDbEntity
  8
0
  6
ByLayer
420
2236962
 48
1.0
 60
0
370
-1
100
AcDbPolyline
 90
2
 70
0
 43
0.0
 38
0.0
 39
0.0
210
0.0
220
0.0
230
1.0
 10
65.71875
 20
1075.96875
 40
0.0
 41
0.0
 42
0.0
 10
90.34375
 20
1075.96875
 40
0.0
 41
0.0
 42
0.0
  0
LWPOLYLINE
  5
8E
330
F
100
AcDbEntity
  8
0
  6
ByLayer
420
2236962
 48
1.0
 60
0
370
-1
100
AcDbPolyline
 90
2
 70
0
 43
0.0
 38
0.0
 39
0.0
210
0.0
220
0.0
230
1.0
 10
83.40625
 20
1068.046875
 40
0.0
 41
0.0
 42
0.0
 10
89.34375
 20
1068.046875
 40
0.0
 41
0.0
 42
0.0
  0
TEXT
  5
8F
330
F
100
AcDbEntity
  8
0
  6
ByLayer
420
2236962
 48
1.0
 60
0
370
-1
100
AcDbText
 39
0.0
 10
125.265625
 20
89.0950000000000273
 30
0.0
 40
15.6199999999999992
  1
1
 50
0.0
 41
1.0
 51
0.0
  7
Standard
 71
0
 72
0
 11
0.0
 21
0.0
 31
0.0
210
0.0
220
0.0
230
1.0
100
AcDbText
 73
0
  0
TEXT
  5
90
330
F
100
AcDbEntity
  8
0
  6
ByLayer
420
2236962
 48
1.0
 60
0
370
-1
100
AcDbText
 39
0.0
 10
85.0
 20
46.9074999999997999
 30
0.0
 40
15.6199999999999992
  1
1
 50
0.0
 41
1.0
 51
0.0
  7
Standard
 71
0
 72
0
 11
0.0
 21
0.0
 31
0.0
210
0.0
220
0.0
230
1.0
100
AcDbText
 73
0
  0
TEXT
  5
91
330
F
100
AcDbEntity
  8
0
  6
ByLayer
420
2236962
 48
1.0
 60
0
370
-1
100
AcDbText
 39
0.0
 10
109.25
 20
46.9074999999997999
 30
0.0
 40
15.6199999999999992
  1
+
 50
0.0
 41
1.0
 51
0.0
  7
Standard
 71
0
 72
0
 11
0.0
 21
0.0
 31
0.0
210
0.0
220
0.0
230
1.0
100
AcDbText
 73
0
  0
TEXT
  5
92
330
F
100
AcDbEntity
  8
0
  6
ByLayer
420
2236962
 48
1.0
 60
0
370
-1
100
AcDbText
 39
0.0
 10
151.25
 20
51.0399500000000899
 30
0.0
 40
11.0901999999999994
  1
1
 50
0.0
 41
1.0
 51
0.0
  7
Standard
 71
0
 72
0
 11
0.0
 21
0.0
 31
0.0
210
0.0
220
0.0
230
1.0
100
AcDbText
 73
0
  0
TEXT
  5
93
330
F
100
AcDbEntity
  8
0
  6
ByLayer
420
2236962
 48
1.0
 60
0
370
-1
100
AcDbText
 39
0.0
 10
134.71875
 20
21.7899499999998625
 30
0.0
 40
11.0901999999999994
  1
2
 50
0.0
 41
1.0
 51
0.0
  7
Standard
 71
0
 72
0
 11
0.0
 21
0.0
 31
0.0
210
0.0
220
0.0
230
1.0
100
AcDbText
 73
0
  0
TEXT
  5
94
330
F
100
AcDbEntity
  8
0
  6
ByLayer
420
2236962
 48
1.0
 60
0
370
-1
100
AcDbText
 39
0.0
 10
151.3125
 20
21.7899499999998625
 30
0.0
 40
11.0901999999999994
  1
+
 50
0.0
 41
1.0
 51
0.0
  7
Standard
 71
0
 72
0
 11
0.0
 21
0.0
 31
0.0
210
0.0
220
0.0
230
1.0
100
AcDbText
 73
0
  0
TEXT
  5
95
330
F
100
AcDbEntity
  8
0
  6
ByLayer
420
2236962
 48
1.0
 60
0
370
-1
100
AcDbText
 39
0.0
 10
169.40625
 20
24.0939899999998488
 30
0.0
 40
7.8740399999999999
  1
1
 50
0.0
 41
1.0
 51
0.0
  7
Standard
 71
0
 72
0
 11
0.0
 21
0.0
 31
0.0
210
0.0
220
0.0
230
1.0
100
AcDbText
 73
0
  0
TEXT
  5
96
330
F
100
AcDbEntity
  8
0
  6
ByLayer
420
2236962
 48
1.0
 60
0
370
-1
100
AcDbText
 39
0.0
 10
169.40625
 20
3.5002399999998488
 30
0.0
 40
7.8740399999999999
  1
3
 50
0.0
 41
1.0
 51
0.0
  7
Standard
 71
0
 72
0
 11
0.0
 21
0.0
 31
0.0
210
0.0
220
0.0
230
1.0
100
AcDbText
 73
0
  0
ENDSEC
  0
SECTION
  2
OBJECTS
  0
DICTIONARY
  5
1
330
0
100
AcDbDictionary
280
0
281
0
  3
ACAD_COLOR
350
0
  3
ACAD_GROUP
350
0
  3
ACAD_LAYOUT
350
0
  3
ACAD_MATERIAL
350
0
  3
ACAD_SORTENTS
350
0
  3
ACAD_MLEADERSTYLE
350
0
  3
ACAD_MLINESTYLE
350
0
  3
ACAD_TABLESTYLE
350
0
  3
ACAD_PLOTSETTINGS
350
0
  3
AcDbVariableDictionary
350
0
  3
ACAD_SCALELIST
350
0
  3
ACAD_VISUALSTYLE
350
0
  3
ACAD_FIELDLIST
350
0
  3
ACAD_IMAGE_DICT
350
0
  0
DICTIONARY
  5
0
330
1
100
AcDbDictionary
280
0
281
0
  0
DICTIONARY
  5
0
330
1
100
AcDbDictionary
280
0
281
0
  0
DICTIONARY
  5
0
330
1
100
AcDbDictionary
280
0
281
0
  0
DICTIONARY
  5
0
330
1
100
AcDbDictionary
280
0
281
0
  0
DICTIONARY
  5
0
330
1
100
AcDbDictionary
280
0
281
0
  0
DICTIONARY
  5
0
330
1
100
AcDbDictionary
280
0
281
0
  0
DICTIONARY
  5
0
330
1
100
AcDbDictionary
280
0
281
0
  0
DICTIONARY
  5
0
330
1
100
AcDbDictionary
280
0
281
0
  0
DICTIONARY
  5
0
330
1
100
AcDbDictionary
280
0
281
0
  0
DICTIONARY
  5
0
330
1
100
AcDbDictionary
280
0
281
0
  0
DICTIONARY
  5
0
330
1
100
AcDbDictionary
280
0
281
0
  0
DICTIONARY
  5
0
330
1
100
AcDbDictionary
280
0
281
0
  0
DICTIONARY
  5
0
330
1
100
AcDbDictionary
280
0
281
0
  0
DICTIONARY
  5
0
330
1
100
AcDbDictionary
280
0
281
0
  0
ENDSEC
  0
EOF
