  0
SECTION
  2
HEADER
  9
$ANGBASE
 50
0.0
  9
$ANGDIR
 70
1
  9
$AUNITS
 70
0
  9
$AUPREC
 70
0
  9
$ATTMODE
 70
1
  9
$DWGCODEPAGE
  3
ANSI_1252
  9
$TDCREATE
 40
2461146.9542832407169044
  9
$CECOLOR
 62
256
  9
$CELTSCALE
 40
1.0
  9
$CELWEIGHT
370
-1
  9
$CLAYER
  8
0
  9
$CELTYPE
  6
ByLayer
  9
$CMLJUST
 70
0
  9
$CMLSCALE
 40
20.0
  9
$CMLSTYLE
  2
Standard
  9
$DIMSTYLE
  2
Standard
  9
$LWDISPLAY
290
0
  9
$EXTNAMES
290
1
  9
$HANDSEED
  5
46
  9
$INSUNITS
 70
0
  9
$LUNITS
 70
2
  9
$LUPREC
 70
4
  9
$LTSCALE
 40
1.0
  9
$MIRRTEXT
 70
0
  9
$INSBASE
 10
0.0
 20
0.0
 30
0.0
  9
$SPLINESEGS
 70
8
  9
$PSLTSCALE
 70
1
  9
$PDMODE
 70
0
  9
$PDSIZE
 40
0.0
  9
$PLINEGEN
 70
0
  9
$TEXTSIZE
 40
0.2
  9
$TEXTSTYLE
  7
Standard
  9
$TDINDWG
 40
0.0
  9
$TDUCREATE
 40
2461146.9542832407169044
  9
$TDUUPDATE
 40
2461146.9542832407169044
  9
$TDUPDATE
 40
2461146.9542832407169044
  9
$ACADVER
  1
AC1018
  0
ENDSEC
  0
SECTION
  2
CLASSES
  0
CLASS
  1
ACDBDICTIONARYWDFLT
  2
AcDbDictionaryWithDefault
  3
ObjectDBX Classes
 90
32768
 91
0
280
0
281
0
  0
CLASS
  1
ACDBPLACEHOLDER
  2
AcDbPlaceHolder
  3
ObjectDBX Classes
 90
0
 91
0
280
0
281
0
  0
CLASS
  1
LAYOUT
  2
AcDbLayout
  3
ObjectDBX Classes
 90
0
 91
0
280
0
281
0
  0
CLASS
  1
DICTIONARYVAR
  2
AcDbDictionaryVar
  3
ObjectDBX Classes
 90
0
 91
0
280
0
281
0
  0
CLASS
  1
TABLESTYLE
  2
AcDbTableStyle
  3
ObjectDBX Classes
 90
4095
 91
0
280
0
281
0
  0
CLASS
  1
MATERIAL
  2
AcDbMaterial
  3
ObjectDBX Classes
 90
1153
 91
0
280
0
281
0
  0
CLASS
  1
VISUALSTYLE
  2
AcDbVisualStyle
  3
ObjectDBX Classes
 90
4095
 91
0
280
0
281
0
  0
CLASS
  1
SCALE
  2
AcDbScale
  3
ObjectDBX Classes
 90
1153
 91
0
280
0
281
0
  0
CLASS
  1
MLEADERSTYLE
  2
AcDbMLeaderStyle
  3
ObjectDBX Classes
 90
4095
 91
0
280
0
281
0
  0
CLASS
  1
CELLSTYLEMAP
  2
AcDbCellStyleMap
  3
ObjectDBX Classes
 90
1152
 91
0
280
0
281
0
  0
CLASS
  1
EXACXREFPANELOBJECT
  2
ExAcXREFPanelObject
  3
ObjectDBX Classes
 90
1025
 91
0
280
0
281
0
  0
CLASS
  1
NPOCOLLECTION
  2
AcDbImpNonPersistentObjectsCollection
  3
ObjectDBX Classes
 90
1153
 91
0
280
0
281
0
  0
CLASS
  1
LAYER_INDEX
  2
AcDbLayerIndex
  3
ObjectDBX Classes
 90
0
 91
0
280
0
281
0
  0
CLASS
  1
SPATIAL_INDEX
  2
AcDbSpatialIndex
  3
ObjectDBX Classes
 90
0
 91
0
280
0
281
0
  0
CLASS
  1
IDBUFFER
  2
AcDbIdBuffer
  3
ObjectDBX Classes
 90
32768
 91
0
280
0
281
0
  0
CLASS
  1
ACDBSECTIONVIEWSTYLE
  2
AcDbSectionViewStyle
  3
ObjectDBX Classes
 90
1025
 91
0
280
0
281
0
  0
CLASS
  1
ACDBDETAILVIEWSTYLE
  2
AcDbDetailViewStyle
  3
ObjectDBX Classes
 90
1025
 91
0
280
0
281
0
  0
CLASS
  1
MESH
  2
AcDbSubDMesh
  3
ObjectDBX Classes
 90
0
 91
0
280
0
281
1
  0
CLASS
  1
SORTENTSTABLE
  2
AcDbSortentsTable
  3
ObjectDBX Classes
 90
0
 91
0
280
0
281
0
  0
CLASS
  1
ACDB_TEXTOBJECTCONTEXTDATA_CLASS
  2
AcDbTextObjectContextData
  3
ObjectDBX Classes
 90
1153
 91
0
280
0
281
0
  0
CLASS
  1
WIPEOUT
  2
AcDbWipeout
  3
WipeOut
 90
32895
 91
0
280
0
281
1
  0
CLASS
  1
WIPEOUTVARIABLES
  2
AcDbWipeoutVariables
  3
WipeOut
 90
32768
 91
0
280
0
281
0
  0
CLASS
  1
DIMASSOC
  2
AcDbDimAssoc
  3
AcDbDimAssoc
 90
0
 91
0
280
0
281
0
  0
CLASS
  1
ACAD_TABLE
  2
AcDbTable
  3
ObjectDBX Classes
 90
1025
 91
0
280
0
281
1
  0
CLASS
  1
TABLECONTENT
  2
AcDbTableContent
  3
ObjectDBX Classes
 90
1152
 91
0
280
0
281
0
  0
CLASS
  1
TABLEGEOMETRY
  2
AcDbTableGeometry
  3
ObjectDBX Classes
 90
1152
 91
0
280
0
281
0
  0
CLASS
  1
IMAGE
  2
AcDbRasterImage
  3
ISM
 90
32895
 91
0
280
0
281
1
  0
CLASS
  1
IMAGEDEF
  2
AcDbRasterImageDef
  3
ISM
 90
0
 91
0
280
0
281
0
  0
CLASS
  1
IMAGEDEF_REACTOR
  2
AcDbRasterImageDefReactor
  3
ISM
 90
1
 91
0
280
0
281
0
  0
CLASS
  1
DBCOLOR
  2
AcDbColor
  3
ObjectDBX Classes
 90
0
 91
0
280
0
281
0
  0
CLASS
  1
GEODATA
  2
AcDbGeoData
  3
ObjectDBX Classes
 90
4095
 91
0
280
0
281
0
  0
CLASS
  1
MULTILEADER
  2
AcDbMLeader
  3
ObjectDBX Classes
 90
1025
 91
0
280
0
281
0
  0
CLASS
  1
PDFUNDERLAY
  2
AcDbPdfReference
  3
ObjectDBX Classes
 90
4095
 91
0
280
0
281
1
  0
CLASS
  1
PDFDEFINITION
  2
AcDbPdfDefinition
  3
ObjectDBX Classes
 90
1153
 91
0
280
0
281
0
  0
CLASS
  1
RASTERVARIABLES
  2
AcDbRasterVariables
  3
ISM
 90
0
 91
0
280
0
281
0
  0
CLASS
  1
SPATIAL_FILTER
  2
AcDbSpatialFilter
  3
ObjectDBX Classes
 90
0
 91
0
280
0
281
0
  0
CLASS
  1
ACDB_MLEADEROBJECTCONTEXTDATA_CLASS
  2
AcDbMLeaderObjectContextData
  3
ObjectDBX Classes
 90
1025
 91
0
280
0
281
0
  0
CLASS
  1
PLOTSETTINGS
  2
AcDbPlotSettings
  3
ObjectDBX Classes
 90
0
 91
0
280
0
281
0
  0
CLASS
  1
FIELD
  2
AcDbField
  3
ObjectDBX Classes
 90
1152
 91
0
280
0
281
0
  0
CLASS
  1
FIELDLIST
  2
AcDbFieldList
  3
ObjectDBX Classes
 90
1152
 91
0
280
0
281
0
  0
CLASS
  1
ACDB_MTEXTATTRIBUTEOBJECTCONTEXTDATA_CLASS
  2
AcDbMTextAttributeObjectContextData
  3
ObjectDBX Classes
 90
1153
 91
0
280
0
281
0
  0
CLASS
  1
ACDB_BLKREFOBJECTCONTEXTDATA_CLASS
  2
AcDbBlkRefObjectContextData
  3
ObjectDBX Classes
 90
1153
 91
0
280
0
281
0
  0
ENDSEC
  0
SECTION
  2
TABLES
  0
TABLE
  2
VPORT
  5
18
330
0
100
AcDbSymbolTable
 70
1
  0
VPORT
  5
26
330
18
100
AcDbSymbolTableRecord
100
AcDbViewportTableRecord
  2
*Active
 70
0
 10
0.0
 20
0.0
 11
1.0
 21
1.0
 12
0.0
 22
0.0
 13
0.0
 23
0.0
 14
0.5
 24
0.5
 15
10.0
 25
10.0
 16
0.0
 26
0.0
 36
1.0
 17
0.0
 27
0.0
 37
0.0
 40
10.0
 41
1.0
 75
0
 76
1
  0
ENDTAB
  0
TABLE
  2
LTYPE
  5
14
330
0
100
AcDbSymbolTable
 70
3
  0
LTYPE
  5
19
330
14
100
AcDbSymbolTableRecord
100
AcDbLinetypeTableRecord
  2
ByLayer
 70
0
 72
0
 73
0
 40
0.0
  0
LTYPE
  5
1A
330
14
100
AcDbSymbolTableRecord
100
AcDbLinetypeTableRecord
  2
ByBlock
 70
0
 72
0
 73
0
 40
0.0
  0
LTYPE
  5
1B
330
14
100
AcDbSymbolTableRecord
100
AcDbLinetypeTableRecord
  2
Continuous
 70
0
 72
0
 73
0
 40
0.0
  0
ENDTAB
  0
TABLE
  2
LAYER
  5
13
330
0
100
AcDbSymbolTable
 70
1
  0
LAYER
  5
1C
330
13
100
AcDbSymbolTableRecord
100
AcDbLayerTableRecord
  2
0
 70
0
 62
7
  6
Continuous
290
1
370
-3
390
0
  0
ENDTAB
  0
TABLE
  2
STYLE
  5
15
330
0
100
AcDbSymbolTable
 70
1
  0
STYLE
  5
23
330
15
100
AcDbSymbolTableRecord
100
AcDbTextStyleTableRecord
  2
Standard
 70
0
 40
0.0
 41
1.0
 42
0.0
 50
0.0
 71
0
  0
ENDTAB
  0
TABLE
  2
VIEW
  5
17
330
0
100
AcDbSymbolTable
 70
0
  0
ENDTAB
  0
TABLE
  2
UCS
  5
16
330
0
100
AcDbSymbolTable
 70
0
  0
ENDTAB
  0
TABLE
  2
APPID
  5
10
330
0
100
AcDbSymbolTable
 70
1
  0
APPID
  5
25
330
10
100
AcDbSymbolTableRecord
100
AcDbRegAppTableRecord
  2
ACAD
 70
0
  0
ENDTAB
  0
TABLE
  2
DIMSTYLE
  5
12
330
0
100
AcDbSymbolTable
 70
1
100
AcDbDimStyleTable
  0
DIMSTYLE
105
24
330
12
100
AcDbSymbolTableRecord
100
AcDbDimStyleTableRecord
  2
Standard
 70
0
  3
<>
  4
[]
 40
1.0
 41
0.18
 42
0.625
 43
3.75
 44
1.25
 45
0.0
 46
0.0
 47
0.0
 48
0.0
 49
1.0
 50
45.0
 70
0
 90
0
140
0.18
141
0.09
142
0.0
143
25.3999999999999986
144
1.0
145
0.0
146
1.0
147
0.625
148
0.0
 71
0
 72
0
 73
0
 74
0
 75
0
 76
0
 77
1
 78
8
 79
0
170
0
171
3
172
0
173
1
174
0
175
0
176
0
177
0
178
0
179
0
271
2
272
2
273
2
274
3
275
0
276
0
277
2
278
46
279
0
280
0
281
0
282
0
283
0
284
8
285
0
286
0
287
0
288
0
289
3
290
0
340
0
371
-2
372
-2
  0
ENDTAB
  0
TABLE
  2
BLOCK_RECORD
  5
11
330
0
100
AcDbSymbolTable
 70
2
  0
BLOCK_RECORD
  5
1D
330
11
100
AcDbSymbolTableRecord
100
AcDbBlockTableRecord
  2
*Model_Space
 70
0
340
0
 70
0
280
0
281
1
  0
BLOCK_RECORD
  5
20
330
11
100
AcDbSymbolTableRecord
100
AcDbBlockTableRecord
  2
*Paper_Space
 70
0
340
0
 70
0
280
0
281
1
  0
ENDTAB
  0
ENDSEC
  0
SECTION
  2
BLOCKS
  0
BLOCK
  5
1E
330
1D
100
AcDbEntity
  8
0
  6
ByLayer
 62
256
 48
1.0
 60
0
 67
0
370
-1
100
AcDbBlockBegin
  2
*Model_Space
 70
0
 10
0.0
 20
0.0
 30
0.0
  3
*Model_Space
  0
ENDBLK
  5
1F
330
1D
100
AcDbEntity
  8
0
100
AcDbBlockEnd
  0
BLOCK
  5
21
330
20
100
AcDbEntity
  8
0
  6
ByLayer
 62
256
 48
1.0
 60
0
 67
1
370
-1
100
AcDbBlockBegin
  2
*Paper_Space
 70
0
 10
0.0
 20
0.0
 30
0.0
  3
*Paper_Space
  0
ENDBLK
  5
22
330
20
100
AcDbEntity
  8
0
100
AcDbBlockEnd
  0
ENDSEC
  0
SECTION
  2
ENTITIES
  0
TEXT
  5
27
330
1D
100
AcDbEntity
  8
0
  6
ByLayer
420
2042167
 48
1.0
 60
0
 67
0
370
-1
100
AcDbText
 39
0.0
 10
24.0
 20
292.0
 30
0.0
 40
22.0
  1
Modern CSS Color Functions
 50
0.0
 41
1.0
 51
0.0
  7
Standard
 71
0
 72
0
 11
0.0
 21
0.0
 31
0.0
210
0.0
220
0.0
230
1.0
100
AcDbText
 73
0
  0
TEXT
  5
28
330
1D
100
AcDbEntity
  8
0
  6
ByLayer
420
2042167
 48
1.0
 60
0
 67
0
370
-1
100
AcDbText
 39
0.0
 10
24.0
 20
259.5000125169754028
 30
0.0
 40
16.0
  1
These tiles exercise color(), lab(), lch(), oklab(), and oklch() across fills, borders, and text.
 50
0.0
 41
1.0
 51
0.0
  7
Standard
 71
0
 72
0
 11
0.0
 21
0.0
 31
0.0
210
0.0
220
0.0
230
1.0
100
AcDbText
 73
0
  0
HATCH
  5
29
330
1D
100
AcDbEntity
  8
0
  6
ByLayer
420
16732733
 48
1.0
 60
0
 67
0
370
-1
100
AcDbHatch
 30
0.0
210
0.0
220
0.0
230
1.0
  2
SOLID
 70
1
 71
0
 91
1
 92
2
 72
0
 73
1
 93
41
 10
40.0
 20
234.0
 10
242.0
 20
234.0
 10
242.0
 20
234.0
 10
245.1214451522580475
 20
233.6925644864516869
 10
248.1229349178414338
 20
232.7820725201805772
 10
250.8891237283136491
 20
231.3035137968407184
 10
253.3137084989847665
 20
229.3137084989847665
 10
255.3035137968407184
 20
226.8891237283136206
 10
256.7820725201805772
 20
224.1229349178414338
 10
257.6925644864517153
 20
221.1214451522580475
 10
258.0
 20
218.0
 10
258.0
 20
130.0
 10
258.0
 20
130.0
 10
257.6925644864517153
 20
126.8785548477419525
 10
256.7820725201805772
 20
123.8770650821585662
 10
255.3035137968407184
 20
121.1108762716863794
 10
253.3137084989847665
 20
118.6862915010152335
 10
250.8891237283136491
 20
116.6964862031592816
 10
248.1229349178414338
 20
115.2179274798194228
 10
245.1214451522580475
 20
114.3074355135483131
 10
242.0
 20
114.0
 10
40.0
 20
114.0
 10
40.0
 20
114.0
 10
36.8785548477419525
 20
114.3074355135483131
 10
33.8770650821585662
 20
115.2179274798194228
 10
31.1108762716863687
 20
116.6964862031592816
 10
28.6862915010152406
 20
118.6862915010152335
 10
26.6964862031592745
 20
121.1108762716863794
 10
25.2179274798194122
 20
123.8770650821585662
 10
24.3074355135483131
 20
126.8785548477419525
 10
24.0
 20
130.0
 10
24.0
 20
218.0
 10
24.0
 20
218.0
 10
24.3074355135483131
 20
221.1214451522580475
 10
25.2179274798194086
 20
224.1229349178414338
 10
26.6964862031592745
 20
226.8891237283136206
 10
28.6862915010152371
 20
229.3137084989847665
 10
31.1108762716863652
 20
231.3035137968407184
 10
33.8770650821585519
 20
232.7820725201805772
 10
36.8785548477419383
 20
233.6925644864516869
 10
40.0
 20
234.0
 97
0
 75
0
 76
1
 47
0.0
 98
0
  0
LWPOLYLINE
  5
2A
330
1D
100
AcDbEntity
  8
0
  6
ByLayer
420
2500134
 48
1.0
 60
0
 67
0
370
-1
100
AcDbPolyline
 90
41
 70
1
 43
0.0
 38
0.0
 39
0.0
210
0.0
220
0.0
230
1.0
 10
40.0
 20
234.0
 40
0.0
 41
0.0
 42
0.0
 10
242.0
 20
234.0
 40
0.0
 41
0.0
 42
0.0
 10
242.0
 20
234.0
 40
0.0
 41
0.0
 42
0.0
 10
245.1214451522580475
 20
233.6925644864516869
 40
0.0
 41
0.0
 42
0.0
 10
248.1229349178414338
 20
232.7820725201805772
 40
0.0
 41
0.0
 42
0.0
 10
250.8891237283136491
 20
231.3035137968407184
 40
0.0
 41
0.0
 42
0.0
 10
253.3137084989847665
 20
229.3137084989847665
 40
0.0
 41
0.0
 42
0.0
 10
255.3035137968407184
 20
226.8891237283136206
 40
0.0
 41
0.0
 42
0.0
 10
256.7820725201805772
 20
224.1229349178414338
 40
0.0
 41
0.0
 42
0.0
 10
257.6925644864517153
 20
221.1214451522580475
 40
0.0
 41
0.0
 42
0.0
 10
258.0
 20
218.0
 40
0.0
 41
0.0
 42
0.0
 10
258.0
 20
130.0
 40
0.0
 41
0.0
 42
0.0
 10
258.0
 20
130.0
 40
0.0
 41
0.0
 42
0.0
 10
257.6925644864517153
 20
126.8785548477419525
 40
0.0
 41
0.0
 42
0.0
 10
256.7820725201805772
 20
123.8770650821585662
 40
0.0
 41
0.0
 42
0.0
 10
255.3035137968407184
 20
121.1108762716863794
 40
0.0
 41
0.0
 42
0.0
 10
253.3137084989847665
 20
118.6862915010152335
 40
0.0
 41
0.0
 42
0.0
 10
250.8891237283136491
 20
116.6964862031592816
 40
0.0
 41
0.0
 42
0.0
 10
248.1229349178414338
 20
115.2179274798194228
 40
0.0
 41
0.0
 42
0.0
 10
245.1214451522580475
 20
114.3074355135483131
 40
0.0
 41
0.0
 42
0.0
 10
242.0
 20
114.0
 40
0.0
 41
0.0
 42
0.0
 10
40.0
 20
114.0
 40
0.0
 41
0.0
 42
0.0
 10
40.0
 20
114.0
 40
0.0
 41
0.0
 42
0.0
 10
36.8785548477419525
 20
114.3074355135483131
 40
0.0
 41
0.0
 42
0.0
 10
33.8770650821585662
 20
115.2179274798194228
 40
0.0
 41
0.0
 42
0.0
 10
31.1108762716863687
 20
116.6964862031592816
 40
0.0
 41
0.0
 42
0.0
 10
28.6862915010152406
 20
118.6862915010152335
 40
0.0
 41
0.0
 42
0.0
 10
26.6964862031592745
 20
121.1108762716863794
 40
0.0
 41
0.0
 42
0.0
 10
25.2179274798194122
 20
123.8770650821585662
 40
0.0
 41
0.0
 42
0.0
 10
24.3074355135483131
 20
126.8785548477419525
 40
0.0
 41
0.0
 42
0.0
 10
24.0
 20
130.0
 40
0.0
 41
0.0
 42
0.0
 10
24.0
 20
218.0
 40
0.0
 41
0.0
 42
0.0
 10
24.0
 20
218.0
 40
0.0
 41
0.0
 42
0.0
 10
24.3074355135483131
 20
221.1214451522580475
 40
0.0
 41
0.0
 42
0.0
 10
25.2179274798194086
 20
224.1229349178414338
 40
0.0
 41
0.0
 42
0.0
 10
26.6964862031592745
 20
226.8891237283136206
 40
0.0
 41
0.0
 42
0.0
 10
28.6862915010152371
 20
229.3137084989847665
 40
0.0
 41
0.0
 42
0.0
 10
31.1108762716863652
 20
231.3035137968407184
 40
0.0
 41
0.0
 42
0.0
 10
33.8770650821585519
 20
232.7820725201805772
 40
0.0
 41
0.0
 42
0.0
 10
36.8785548477419383
 20
233.6925644864516869
 40
0.0
 41
0.0
 42
0.0
 10
40.0
 20
234.0
 40
0.0
 41
0.0
 42
0.0
  0
TEXT
  5
2B
330
1D
100
AcDbEntity
  8
0
  6
ByLayer
420
16777215
 48
1.0
 60
0
 67
0
370
-1
100
AcDbText
 39
0.0
 10
41.0000249999993684
 20
207.0
 30
0.0
 40
12.0
  1
COLOR(SRGB)
 50
0.0
 41
1.0
 51
0.0
  7
Standard
 71
0
 72
0
 11
0.0
 21
0.0
 31
0.0
210
0.0
220
0.0
230
1.0
100
AcDbText
 73
0
  0
TEXT
  5
2C
330
1D
100
AcDbEntity
  8
0
  6
ByLayer
420
16777215
 48
1.0
 60
0
 67
0
370
-1
100
AcDbText
 39
0.0
 10
41.0000249999993684
 20
135.75
 30
0.0
 40
15.0
  1
Accent surface
 50
0.0
 41
1.0
 51
0.0
  7
Standard
 71
0
 72
0
 11
0.0
 21
0.0
 31
0.0
210
0.0
220
0.0
230
1.0
100
AcDbText
 73
0
  0
HATCH
  5
2D
330
1D
100
AcDbEntity
  8
0
  6
ByLayer
420
16711680
 48
1.0
 60
0
 67
0
370
-1
100
AcDbHatch
 30
0.0
210
0.0
220
0.0
230
1.0
  2
SOLID
 70
1
 71
0
 91
1
 92
2
 72
0
 73
1
 93
41
 10
290.0
 20
234.0
 10
492.0
 20
234.0
 10
492.0
 20
234.0
 10
495.1214451522580475
 20
233.6925644864516869
 10
498.1229349178414623
 20
232.7820725201805772
 10
500.8891237283136206
 20
231.3035137968407184
 10
503.3137084989847381
 20
229.3137084989847665
 10
505.3035137968407184
 20
226.8891237283136206
 10
506.7820725201805772
 20
224.1229349178414338
 10
507.6925644864517153
 20
221.1214451522580475
 10
508.0
 20
218.0
 10
508.0
 20
130.0
 10
508.0
 20
130.0
 10
507.6925644864517153
 20
126.8785548477419525
 10
506.7820725201805772
 20
123.8770650821585662
 10
505.3035137968407184
 20
121.1108762716863794
 10
503.3137084989847381
 20
118.6862915010152335
 10
500.8891237283136206
 20
116.6964862031592816
 10
498.1229349178414623
 20
115.2179274798194228
 10
495.1214451522580475
 20
114.3074355135483131
 10
492.0
 20
114.0
 10
290.0
 20
114.0
 10
290.0
 20
114.0
 10
286.8785548477419525
 20
114.3074355135483131
 10
283.8770650821585377
 20
115.2179274798194228
 10
281.1108762716863794
 20
116.6964862031592816
 10
278.6862915010152619
 20
118.6862915010152335
 10
276.6964862031592816
 20
121.1108762716863794
 10
275.2179274798194228
 20
123.8770650821585662
 10
274.3074355135482847
 20
126.8785548477419525
 10
274.0
 20
130.0
 10
274.0
 20
218.0
 10
274.0
 20
218.0
 10
274.3074355135482847
 20
221.1214451522580475
 10
275.2179274798194228
 20
224.1229349178414338
 10
276.6964862031592816
 20
226.8891237283136206
 10
278.6862915010152619
 20
229.3137084989847665
 10
281.1108762716863794
 20
231.3035137968407184
 10
283.8770650821585377
 20
232.7820725201805772
 10
286.8785548477419525
 20
233.6925644864516869
 10
290.0
 20
234.0
 97
0
 75
0
 76
1
 47
0.0
 98
0
  0
LWPOLYLINE
  5
2E
330
1D
100
AcDbEntity
  8
0
  6
ByLayer
420
2500134
 48
1.0
 60
0
 67
0
370
-1
100
AcDbPolyline
 90
41
 70
1
 43
0.0
 38
0.0
 39
0.0
210
0.0
220
0.0
230
1.0
 10
290.0
 20
234.0
 40
0.0
 41
0.0
 42
0.0
 10
492.0
 20
234.0
 40
0.0
 41
0.0
 42
0.0
 10
492.0
 20
234.0
 40
0.0
 41
0.0
 42
0.0
 10
495.1214451522580475
 20
233.6925644864516869
 40
0.0
 41
0.0
 42
0.0
 10
498.1229349178414623
 20
232.7820725201805772
 40
0.0
 41
0.0
 42
0.0
 10
500.8891237283136206
 20
231.3035137968407184
 40
0.0
 41
0.0
 42
0.0
 10
503.3137084989847381
 20
229.3137084989847665
 40
0.0
 41
0.0
 42
0.0
 10
505.3035137968407184
 20
226.8891237283136206
 40
0.0
 41
0.0
 42
0.0
 10
506.7820725201805772
 20
224.1229349178414338
 40
0.0
 41
0.0
 42
0.0
 10
507.6925644864517153
 20
221.1214451522580475
 40
0.0
 41
0.0
 42
0.0
 10
508.0
 20
218.0
 40
0.0
 41
0.0
 42
0.0
 10
508.0
 20
130.0
 40
0.0
 41
0.0
 42
0.0
 10
508.0
 20
130.0
 40
0.0
 41
0.0
 42
0.0
 10
507.6925644864517153
 20
126.8785548477419525
 40
0.0
 41
0.0
 42
0.0
 10
506.7820725201805772
 20
123.8770650821585662
 40
0.0
 41
0.0
 42
0.0
 10
505.3035137968407184
 20
121.1108762716863794
 40
0.0
 41
0.0
 42
0.0
 10
503.3137084989847381
 20
118.6862915010152335
 40
0.0
 41
0.0
 42
0.0
 10
500.8891237283136206
 20
116.6964862031592816
 40
0.0
 41
0.0
 42
0.0
 10
498.1229349178414623
 20
115.2179274798194228
 40
0.0
 41
0.0
 42
0.0
 10
495.1214451522580475
 20
114.3074355135483131
 40
0.0
 41
0.0
 42
0.0
 10
492.0
 20
114.0
 40
0.0
 41
0.0
 42
0.0
 10
290.0
 20
114.0
 40
0.0
 41
0.0
 42
0.0
 10
290.0
 20
114.0
 40
0.0
 41
0.0
 42
0.0
 10
286.8785548477419525
 20
114.3074355135483131
 40
0.0
 41
0.0
 42
0.0
 10
283.8770650821585377
 20
115.2179274798194228
 40
0.0
 41
0.0
 42
0.0
 10
281.1108762716863794
 20
116.6964862031592816
 40
0.0
 41
0.0
 42
0.0
 10
278.6862915010152619
 20
118.6862915010152335
 40
0.0
 41
0.0
 42
0.0
 10
276.6964862031592816
 20
121.1108762716863794
 40
0.0
 41
0.0
 42
0.0
 10
275.2179274798194228
 20
123.8770650821585662
 40
0.0
 41
0.0
 42
0.0
 10
274.3074355135482847
 20
126.8785548477419525
 40
0.0
 41
0.0
 42
0.0
 10
274.0
 20
130.0
 40
0.0
 41
0.0
 42
0.0
 10
274.0
 20
218.0
 40
0.0
 41
0.0
 42
0.0
 10
274.0
 20
218.0
 40
0.0
 41
0.0
 42
0.0
 10
274.3074355135482847
 20
221.1214451522580475
 40
0.0
 41
0.0
 42
0.0
 10
275.2179274798194228
 20
224.1229349178414338
 40
0.0
 41
0.0
 42
0.0
 10
276.6964862031592816
 20
226.8891237283136206
 40
0.0
 41
0.0
 42
0.0
 10
278.6862915010152619
 20
229.3137084989847665
 40
0.0
 41
0.0
 42
0.0
 10
281.1108762716863794
 20
231.3035137968407184
 40
0.0
 41
0.0
 42
0.0
 10
283.8770650821585377
 20
232.7820725201805772
 40
0.0
 41
0.0
 42
0.0
 10
286.8785548477419525
 20
233.6925644864516869
 40
0.0
 41
0.0
 42
0.0
 10
290.0
 20
234.0
 40
0.0
 41
0.0
 42
0.0
  0
TEXT
  5
2F
330
1D
100
AcDbEntity
  8
0
  6
ByLayer
420
16777215
 48
1.0
 60
0
 67
0
370
-1
100
AcDbText
 39
0.0
 10
291.0000249999993684
 20
207.0
 30
0.0
 40
12.0
  1
LAB()
 50
0.0
 41
1.0
 51
0.0
  7
Standard
 71
0
 72
0
 11
0.0
 21
0.0
 31
0.0
210
0.0
220
0.0
230
1.0
100
AcDbText
 73
0
  0
TEXT
  5
30
330
1D
100
AcDbEntity
  8
0
  6
ByLayer
420
16777215
 48
1.0
 60
0
 67
0
370
-1
100
AcDbText
 39
0.0
 10
291.0000249999993684
 20
135.75
 30
0.0
 40
15.0
  1
Perceptual red
 50
0.0
 41
1.0
 51
0.0
  7
Standard
 71
0
 72
0
 11
0.0
 21
0.0
 31
0.0
210
0.0
220
0.0
230
1.0
100
AcDbText
 73
0
  0
HATCH
  5
31
330
1D
100
AcDbEntity
  8
0
  6
ByLayer
420
16711680
 48
1.0
 60
0
 67
0
370
-1
100
AcDbHatch
 30
0.0
210
0.0
220
0.0
230
1.0
  2
SOLID
 70
1
 71
0
 91
1
 92
2
 72
0
 73
1
 93
41
 10
539.0
 20
234.0
 10
741.0
 20
234.0
 10
741.0
 20
234.0
 10
744.1214451522580475
 20
233.6925644864516869
 10
747.1229349178414623
 20
232.7820725201805772
 10
749.8891237283136206
 20
231.3035137968407184
 10
752.3137084989847381
 20
229.3137084989847665
 10
754.3035137968407753
 20
226.8891237283136206
 10
755.7820725201805772
 20
224.1229349178414338
 10
756.6925644864517153
 20
221.1214451522580475
 10
757.0
 20
218.0
 10
757.0
 20
130.0
 10
757.0
 20
130.0
 10
756.6925644864517153
 20
126.8785548477419525
 10
755.7820725201805772
 20
123.8770650821585662
 10
754.3035137968407753
 20
121.1108762716863794
 10
752.3137084989847381
 20
118.6862915010152335
 10
749.8891237283136206
 20
116.6964862031592816
 10
747.1229349178414623
 20
115.2179274798194228
 10
744.1214451522580475
 20
114.3074355135483131
 10
741.0
 20
114.0
 10
539.0
 20
114.0
 10
539.0
 20
114.0
 10
535.8785548477419525
 20
114.3074355135483131
 10
532.8770650821585377
 20
115.2179274798194228
 10
530.1108762716863794
 20
116.6964862031592816
 10
527.6862915010152619
 20
118.6862915010152335
 10
525.6964862031592247
 20
121.1108762716863794
 10
524.2179274798194228
 20
123.8770650821585662
 10
523.3074355135482847
 20
126.8785548477419525
 10
523.0
 20
130.0
 10
523.0
 20
218.0
 10
523.0
 20
218.0
 10
523.3074355135482847
 20
221.1214451522580475
 10
524.2179274798194228
 20
224.1229349178414338
 10
525.6964862031592247
 20
226.8891237283136206
 10
527.6862915010152619
 20
229.3137084989847665
 10
530.1108762716863794
 20
231.3035137968407184
 10
532.8770650821585377
 20
232.7820725201805772
 10
535.8785548477419525
 20
233.6925644864516869
 10
539.0
 20
234.0
 97
0
 75
0
 76
1
 47
0.0
 98
0
  0
LWPOLYLINE
  5
32
330
1D
100
AcDbEntity
  8
0
  6
ByLayer
420
2500134
 48
1.0
 60
0
 67
0
370
-1
100
AcDbPolyline
 90
41
 70
1
 43
0.0
 38
0.0
 39
0.0
210
0.0
220
0.0
230
1.0
 10
539.0
 20
234.0
 40
0.0
 41
0.0
 42
0.0
 10
741.0
 20
234.0
 40
0.0
 41
0.0
 42
0.0
 10
741.0
 20
234.0
 40
0.0
 41
0.0
 42
0.0
 10
744.1214451522580475
 20
233.6925644864516869
 40
0.0
 41
0.0
 42
0.0
 10
747.1229349178414623
 20
232.7820725201805772
 40
0.0
 41
0.0
 42
0.0
 10
749.8891237283136206
 20
231.3035137968407184
 40
0.0
 41
0.0
 42
0.0
 10
752.3137084989847381
 20
229.3137084989847665
 40
0.0
 41
0.0
 42
0.0
 10
754.3035137968407753
 20
226.8891237283136206
 40
0.0
 41
0.0
 42
0.0
 10
755.7820725201805772
 20
224.1229349178414338
 40
0.0
 41
0.0
 42
0.0
 10
756.6925644864517153
 20
221.1214451522580475
 40
0.0
 41
0.0
 42
0.0
 10
757.0
 20
218.0
 40
0.0
 41
0.0
 42
0.0
 10
757.0
 20
130.0
 40
0.0
 41
0.0
 42
0.0
 10
757.0
 20
130.0
 40
0.0
 41
0.0
 42
0.0
 10
756.6925644864517153
 20
126.8785548477419525
 40
0.0
 41
0.0
 42
0.0
 10
755.7820725201805772
 20
123.8770650821585662
 40
0.0
 41
0.0
 42
0.0
 10
754.3035137968407753
 20
121.1108762716863794
 40
0.0
 41
0.0
 42
0.0
 10
752.3137084989847381
 20
118.6862915010152335
 40
0.0
 41
0.0
 42
0.0
 10
749.8891237283136206
 20
116.6964862031592816
 40
0.0
 41
0.0
 42
0.0
 10
747.1229349178414623
 20
115.2179274798194228
 40
0.0
 41
0.0
 42
0.0
 10
744.1214451522580475
 20
114.3074355135483131
 40
0.0
 41
0.0
 42
0.0
 10
741.0
 20
114.0
 40
0.0
 41
0.0
 42
0.0
 10
539.0
 20
114.0
 40
0.0
 41
0.0
 42
0.0
 10
539.0
 20
114.0
 40
0.0
 41
0.0
 42
0.0
 10
535.8785548477419525
 20
114.3074355135483131
 40
0.0
 41
0.0
 42
0.0
 10
532.8770650821585377
 20
115.2179274798194228
 40
0.0
 41
0.0
 42
0.0
 10
530.1108762716863794
 20
116.6964862031592816
 40
0.0
 41
0.0
 42
0.0
 10
527.6862915010152619
 20
118.6862915010152335
 40
0.0
 41
0.0
 42
0.0
 10
525.6964862031592247
 20
121.1108762716863794
 40
0.0
 41
0.0
 42
0.0
 10
524.2179274798194228
 20
123.8770650821585662
 40
0.0
 41
0.0
 42
0.0
 10
523.3074355135482847
 20
126.8785548477419525
 40
0.0
 41
0.0
 42
0.0
 10
523.0
 20
130.0
 40
0.0
 41
0.0
 42
0.0
 10
523.0
 20
218.0
 40
0.0
 41
0.0
 42
0.0
 10
523.0
 20
218.0
 40
0.0
 41
0.0
 42
0.0
 10
523.3074355135482847
 20
221.1214451522580475
 40
0.0
 41
0.0
 42
0.0
 10
524.2179274798194228
 20
224.1229349178414338
 40
0.0
 41
0.0
 42
0.0
 10
525.6964862031592247
 20
226.8891237283136206
 40
0.0
 41
0.0
 42
0.0
 10
527.6862915010152619
 20
229.3137084989847665
 40
0.0
 41
0.0
 42
0.0
 10
530.1108762716863794
 20
231.3035137968407184
 40
0.0
 41
0.0
 42
0.0
 10
532.8770650821585377
 20
232.7820725201805772
 40
0.0
 41
0.0
 42
0.0
 10
535.8785548477419525
 20
233.6925644864516869
 40
0.0
 41
0.0
 42
0.0
 10
539.0
 20
234.0
 40
0.0
 41
0.0
 42
0.0
  0
TEXT
  5
33
330
1D
100
AcDbEntity
  8
0
  6
ByLayer
420
16777215
 48
1.0
 60
0
 67
0
370
-1
100
AcDbText
 39
0.0
 10
540.0000124999996842
 20
207.0
 30
0.0
 40
12.0
  1
LCH()
 50
0.0
 41
1.0
 51
0.0
  7
Standard
 71
0
 72
0
 11
0.0
 21
0.0
 31
0.0
210
0.0
220
0.0
230
1.0
100
AcDbText
 73
0
  0
TEXT
  5
34
330
1D
100
AcDbEntity
  8
0
  6
ByLayer
420
16777215
 48
1.0
 60
0
 67
0
370
-1
100
AcDbText
 39
0.0
 10
540.0000124999996842
 20
135.75
 30
0.0
 40
15.0
  1
Polar lightness
 50
0.0
 41
1.0
 51
0.0
  7
Standard
 71
0
 72
0
 11
0.0
 21
0.0
 31
0.0
210
0.0
220
0.0
230
1.0
100
AcDbText
 73
0
  0
HATCH
  5
35
330
1D
100
AcDbEntity
  8
0
  6
ByLayer
420
16711680
 48
1.0
 60
0
 67
0
370
-1
100
AcDbHatch
 30
0.0
210
0.0
220
0.0
230
1.0
  2
SOLID
 70
1
 71
0
 91
1
 92
2
 72
0
 73
1
 93
41
 10
789.0
 20
234.0
 10
991.0
 20
234.0
 10
991.0
 20
234.0
 10
994.1214451522580475
 20
233.6925644864516869
 10
997.1229349178414623
 20
232.7820725201805772
 10
999.8891237283136206
 20
231.3035137968407184
 10
1002.3137084989847381
 20
229.3137084989847665
 10
1004.3035137968407753
 20
226.8891237283136206
 10
1005.7820725201805772
 20
224.1229349178414338
 10
1006.6925644864517153
 20
221.1214451522580475
 10
1007.0
 20
218.0
 10
1007.0
 20
130.0
 10
1007.0
 20
130.0
 10
1006.6925644864517153
 20
126.8785548477419525
 10
1005.7820725201805772
 20
123.8770650821585662
 10
1004.3035137968407753
 20
121.1108762716863794
 10
1002.3137084989847381
 20
118.6862915010152335
 10
999.8891237283136206
 20
116.6964862031592816
 10
997.1229349178414623
 20
115.2179274798194228
 10
994.1214451522580475
 20
114.3074355135483131
 10
991.0
 20
114.0
 10
789.0
 20
114.0
 10
789.0
 20
114.0
 10
785.8785548477419525
 20
114.3074355135483131
 10
782.8770650821585377
 20
115.2179274798194228
 10
780.1108762716863794
 20
116.6964862031592816
 10
777.6862915010152619
 20
118.6862915010152335
 10
775.6964862031592247
 20
121.1108762716863794
 10
774.2179274798194228
 20
123.8770650821585662
 10
773.3074355135482847
 20
126.8785548477419525
 10
773.0
 20
130.0
 10
773.0
 20
218.0
 10
773.0
 20
218.0
 10
773.3074355135482847
 20
221.1214451522580475
 10
774.2179274798194228
 20
224.1229349178414338
 10
775.6964862031592247
 20
226.8891237283136206
 10
777.6862915010152619
 20
229.3137084989847665
 10
780.1108762716863794
 20
231.3035137968407184
 10
782.8770650821585377
 20
232.7820725201805772
 10
785.8785548477419525
 20
233.6925644864516869
 10
789.0
 20
234.0
 97
0
 75
0
 76
1
 47
0.0
 98
0
  0
LWPOLYLINE
  5
36
330
1D
100
AcDbEntity
  8
0
  6
ByLayer
420
2500134
 48
1.0
 60
0
 67
0
370
-1
100
AcDbPolyline
 90
41
 70
1
 43
0.0
 38
0.0
 39
0.0
210
0.0
220
0.0
230
1.0
 10
789.0
 20
234.0
 40
0.0
 41
0.0
 42
0.0
 10
991.0
 20
234.0
 40
0.0
 41
0.0
 42
0.0
 10
991.0
 20
234.0
 40
0.0
 41
0.0
 42
0.0
 10
994.1214451522580475
 20
233.6925644864516869
 40
0.0
 41
0.0
 42
0.0
 10
997.1229349178414623
 20
232.7820725201805772
 40
0.0
 41
0.0
 42
0.0
 10
999.8891237283136206
 20
231.3035137968407184
 40
0.0
 41
0.0
 42
0.0
 10
1002.3137084989847381
 20
229.3137084989847665
 40
0.0
 41
0.0
 42
0.0
 10
1004.3035137968407753
 20
226.8891237283136206
 40
0.0
 41
0.0
 42
0.0
 10
1005.7820725201805772
 20
224.1229349178414338
 40
0.0
 41
0.0
 42
0.0
 10
1006.6925644864517153
 20
221.1214451522580475
 40
0.0
 41
0.0
 42
0.0
 10
1007.0
 20
218.0
 40
0.0
 41
0.0
 42
0.0
 10
1007.0
 20
130.0
 40
0.0
 41
0.0
 42
0.0
 10
1007.0
 20
130.0
 40
0.0
 41
0.0
 42
0.0
 10
1006.6925644864517153
 20
126.8785548477419525
 40
0.0
 41
0.0
 42
0.0
 10
1005.7820725201805772
 20
123.8770650821585662
 40
0.0
 41
0.0
 42
0.0
 10
1004.3035137968407753
 20
121.1108762716863794
 40
0.0
 41
0.0
 42
0.0
 10
1002.3137084989847381
 20
118.6862915010152335
 40
0.0
 41
0.0
 42
0.0
 10
999.8891237283136206
 20
116.6964862031592816
 40
0.0
 41
0.0
 42
0.0
 10
997.1229349178414623
 20
115.2179274798194228
 40
0.0
 41
0.0
 42
0.0
 10
994.1214451522580475
 20
114.3074355135483131
 40
0.0
 41
0.0
 42
0.0
 10
991.0
 20
114.0
 40
0.0
 41
0.0
 42
0.0
 10
789.0
 20
114.0
 40
0.0
 41
0.0
 42
0.0
 10
789.0
 20
114.0
 40
0.0
 41
0.0
 42
0.0
 10
785.8785548477419525
 20
114.3074355135483131
 40
0.0
 41
0.0
 42
0.0
 10
782.8770650821585377
 20
115.2179274798194228
 40
0.0
 41
0.0
 42
0.0
 10
780.1108762716863794
 20
116.6964862031592816
 40
0.0
 41
0.0
 42
0.0
 10
777.6862915010152619
 20
118.6862915010152335
 40
0.0
 41
0.0
 42
0.0
 10
775.6964862031592247
 20
121.1108762716863794
 40
0.0
 41
0.0
 42
0.0
 10
774.2179274798194228
 20
123.8770650821585662
 40
0.0
 41
0.0
 42
0.0
 10
773.3074355135482847
 20
126.8785548477419525
 40
0.0
 41
0.0
 42
0.0
 10
773.0
 20
130.0
 40
0.0
 41
0.0
 42
0.0
 10
773.0
 20
218.0
 40
0.0
 41
0.0
 42
0.0
 10
773.0
 20
218.0
 40
0.0
 41
0.0
 42
0.0
 10
773.3074355135482847
 20
221.1214451522580475
 40
0.0
 41
0.0
 42
0.0
 10
774.2179274798194228
 20
224.1229349178414338
 40
0.0
 41
0.0
 42
0.0
 10
775.6964862031592247
 20
226.8891237283136206
 40
0.0
 41
0.0
 42
0.0
 10
777.6862915010152619
 20
229.3137084989847665
 40
0.0
 41
0.0
 42
0.0
 10
780.1108762716863794
 20
231.3035137968407184
 40
0.0
 41
0.0
 42
0.0
 10
782.8770650821585377
 20
232.7820725201805772
 40
0.0
 41
0.0
 42
0.0
 10
785.8785548477419525
 20
233.6925644864516869
 40
0.0
 41
0.0
 42
0.0
 10
789.0
 20
234.0
 40
0.0
 41
0.0
 42
0.0
  0
TEXT
  5
37
330
1D
100
AcDbEntity
  8
0
  6
ByLayer
420
16777215
 48
1.0
 60
0
 67
0
370
-1
100
AcDbText
 39
0.0
 10
790.0000249999993684
 20
207.0
 30
0.0
 40
12.0
  1
OKLAB()
 50
0.0
 41
1.0
 51
0.0
  7
Standard
 71
0
 72
0
 11
0.0
 21
0.0
 31
0.0
210
0.0
220
0.0
230
1.0
100
AcDbText
 73
0
  0
TEXT
  5
38
330
1D
100
AcDbEntity
  8
0
  6
ByLayer
420
16777215
 48
1.0
 60
0
 67
0
370
-1
100
AcDbText
 39
0.0
 10
790.0000249999993684
 20
135.75
 30
0.0
 40
15.0
  1
OKLab card
 50
0.0
 41
1.0
 51
0.0
  7
Standard
 71
0
 72
0
 11
0.0
 21
0.0
 31
0.0
210
0.0
220
0.0
230
1.0
100
AcDbText
 73
0
  0
HATCH
  5
39
330
1D
100
AcDbEntity
  8
0
  6
ByLayer
420
16711680
 48
1.0
 60
0
 67
0
370
-1
100
AcDbHatch
 30
0.0
210
0.0
220
0.0
230
1.0
  2
SOLID
 70
1
 71
0
 91
1
 92
2
 72
0
 73
1
 93
41
 10
1038.0
 20
234.0
 10
1240.0
 20
234.0
 10
1240.0
 20
234.0
 10
1243.1214451522580475
 20
233.6925644864516869
 10
1246.1229349178413486
 20
232.7820725201805772
 10
1248.8891237283137343
 20
231.3035137968407184
 10
1251.3137084989848518
 20
229.3137084989847665
 10
1253.3035137968406616
 20
226.8891237283136206
 10
1254.7820725201806908
 20
224.1229349178414338
 10
1255.6925644864516016
 20
221.1214451522580475
 10
1256.0
 20
218.0
 10
1256.0
 20
130.0
 10
1256.0
 20
130.0
 10
1255.6925644864516016
 20
126.8785548477419525
 10
1254.7820725201806908
 20
123.8770650821585662
 10
1253.3035137968406616
 20
121.1108762716863794
 10
1251.3137084989848518
 20
118.6862915010152335
 10
1248.8891237283137343
 20
116.6964862031592816
 10
1246.1229349178413486
 20
115.2179274798194228
 10
1243.1214451522580475
 20
114.3074355135483131
 10
1240.0
 20
114.0
 10
1038.0
 20
114.0
 10
1038.0
 20
114.0
 10
1034.8785548477419525
 20
114.3074355135483131
 10
1031.8770650821586514
 20
115.2179274798194228
 10
1029.1108762716862657
 20
116.6964862031592816
 10
1026.6862915010151482
 20
118.6862915010152335
 10
1024.6964862031593384
 20
121.1108762716863794
 10
1023.2179274798194228
 20
123.8770650821585662
 10
1022.3074355135482847
 20
126.8785548477419525
 10
1022.0
 20
130.0
 10
1022.0
 20
218.0
 10
1022.0
 20
218.0
 10
1022.3074355135482847
 20
221.1214451522580475
 10
1023.2179274798194228
 20
224.1229349178414338
 10
1024.6964862031593384
 20
226.8891237283136206
 10
1026.6862915010151482
 20
229.3137084989847665
 10
1029.1108762716862657
 20
231.3035137968407184
 10
1031.8770650821586514
 20
232.7820725201805772
 10
1034.8785548477419525
 20
233.6925644864516869
 10
1038.0
 20
234.0
 97
0
 75
0
 76
1
 47
0.0
 98
0
  0
LWPOLYLINE
  5
3A
330
1D
100
AcDbEntity
  8
0
  6
ByLayer
420
2500134
 48
1.0
 60
0
 67
0
370
-1
100
AcDbPolyline
 90
41
 70
1
 43
0.0
 38
0.0
 39
0.0
210
0.0
220
0.0
230
1.0
 10
1038.0
 20
234.0
 40
0.0
 41
0.0
 42
0.0
 10
1240.0
 20
234.0
 40
0.0
 41
0.0
 42
0.0
 10
1240.0
 20
234.0
 40
0.0
 41
0.0
 42
0.0
 10
1243.1214451522580475
 20
233.6925644864516869
 40
0.0
 41
0.0
 42
0.0
 10
1246.1229349178413486
 20
232.7820725201805772
 40
0.0
 41
0.0
 42
0.0
 10
1248.8891237283137343
 20
231.3035137968407184
 40
0.0
 41
0.0
 42
0.0
 10
1251.3137084989848518
 20
229.3137084989847665
 40
0.0
 41
0.0
 42
0.0
 10
1253.3035137968406616
 20
226.8891237283136206
 40
0.0
 41
0.0
 42
0.0
 10
1254.7820725201806908
 20
224.1229349178414338
 40
0.0
 41
0.0
 42
0.0
 10
1255.6925644864516016
 20
221.1214451522580475
 40
0.0
 41
0.0
 42
0.0
 10
1256.0
 20
218.0
 40
0.0
 41
0.0
 42
0.0
 10
1256.0
 20
130.0
 40
0.0
 41
0.0
 42
0.0
 10
1256.0
 20
130.0
 40
0.0
 41
0.0
 42
0.0
 10
1255.6925644864516016
 20
126.8785548477419525
 40
0.0
 41
0.0
 42
0.0
 10
1254.7820725201806908
 20
123.8770650821585662
 40
0.0
 41
0.0
 42
0.0
 10
1253.3035137968406616
 20
121.1108762716863794
 40
0.0
 41
0.0
 42
0.0
 10
1251.3137084989848518
 20
118.6862915010152335
 40
0.0
 41
0.0
 42
0.0
 10
1248.8891237283137343
 20
116.6964862031592816
 40
0.0
 41
0.0
 42
0.0
 10
1246.1229349178413486
 20
115.2179274798194228
 40
0.0
 41
0.0
 42
0.0
 10
1243.1214451522580475
 20
114.3074355135483131
 40
0.0
 41
0.0
 42
0.0
 10
1240.0
 20
114.0
 40
0.0
 41
0.0
 42
0.0
 10
1038.0
 20
114.0
 40
0.0
 41
0.0
 42
0.0
 10
1038.0
 20
114.0
 40
0.0
 41
0.0
 42
0.0
 10
1034.8785548477419525
 20
114.3074355135483131
 40
0.0
 41
0.0
 42
0.0
 10
1031.8770650821586514
 20
115.2179274798194228
 40
0.0
 41
0.0
 42
0.0
 10
1029.1108762716862657
 20
116.6964862031592816
 40
0.0
 41
0.0
 42
0.0
 10
1026.6862915010151482
 20
118.6862915010152335
 40
0.0
 41
0.0
 42
0.0
 10
1024.6964862031593384
 20
121.1108762716863794
 40
0.0
 41
0.0
 42
0.0
 10
1023.2179274798194228
 20
123.8770650821585662
 40
0.0
 41
0.0
 42
0.0
 10
1022.3074355135482847
 20
126.8785548477419525
 40
0.0
 41
0.0
 42
0.0
 10
1022.0
 20
130.0
 40
0.0
 41
0.0
 42
0.0
 10
1022.0
 20
218.0
 40
0.0
 41
0.0
 42
0.0
 10
1022.0
 20
218.0
 40
0.0
 41
0.0
 42
0.0
 10
1022.3074355135482847
 20
221.1214451522580475
 40
0.0
 41
0.0
 42
0.0
 10
1023.2179274798194228
 20
224.1229349178414338
 40
0.0
 41
0.0
 42
0.0
 10
1024.6964862031593384
 20
226.8891237283136206
 40
0.0
 41
0.0
 42
0.0
 10
1026.6862915010151482
 20
229.3137084989847665
 40
0.0
 41
0.0
 42
0.0
 10
1029.1108762716862657
 20
231.3035137968407184
 40
0.0
 41
0.0
 42
0.0
 10
1031.8770650821586514
 20
232.7820725201805772
 40
0.0
 41
0.0
 42
0.0
 10
1034.8785548477419525
 20
233.6925644864516869
 40
0.0
 41
0.0
 42
0.0
 10
1038.0
 20
234.0
 40
0.0
 41
0.0
 42
0.0
  0
TEXT
  5
3B
330
1D
100
AcDbEntity
  8
0
  6
ByLayer
420
16777215
 48
1.0
 60
0
 67
0
370
-1
100
AcDbText
 39
0.0
 10
1039.0000124999996842
 20
207.0
 30
0.0
 40
12.0
  1
OKLCH()
 50
0.0
 41
1.0
 51
0.0
  7
Standard
 71
0
 72
0
 11
0.0
 21
0.0
 31
0.0
210
0.0
220
0.0
230
1.0
100
AcDbText
 73
0
  0
TEXT
  5
3C
330
1D
100
AcDbEntity
  8
0
  6
ByLayer
420
16777215
 48
1.0
 60
0
 67
0
370
-1
100
AcDbText
 39
0.0
 10
1039.0000124999996842
 20
135.75
 30
0.0
 40
15.0
  1
OKLCH card
 50
0.0
 41
1.0
 51
0.0
  7
Standard
 71
0
 72
0
 11
0.0
 21
0.0
 31
0.0
210
0.0
220
0.0
230
1.0
100
AcDbText
 73
0
  0
HATCH
  5
3D
330
1D
100
AcDbEntity
  8
0
  6
ByLayer
420
3057753
 48
1.0
 60
0
 67
0
370
-1
100
AcDbHatch
 30
0.0
210
0.0
220
0.0
230
1.0
  2
SOLID
 70
1
 71
0
 91
1
 92
2
 72
0
 73
1
 93
41
 10
59.0
 20
94.0
 10
109.0
 20
94.0
 10
109.0
 20
94.0
 10
115.8281612705644932
 20
93.3274848141130633
 10
122.393920132778149
 20
91.3357836378950196
 10
128.4449581556860949
 20
88.1014364305890751
 10
133.7487373415291643
 20
83.7487373415291643
 10
138.1014364305890751
 20
78.4449581556860664
 10
141.3357836378950196
 20
72.3939201327781348
 10
143.3274848141130633
 20
65.8281612705644648
 10
144.0
 20
59.0
 10
144.0
 20
59.0
 10
144.0
 20
59.0
 10
143.3274848141130633
 20
52.1718387294355352
 10
141.3357836378950196
 20
45.6060798672218652
 10
138.1014364305890751
 20
39.5550418443139051
 10
133.7487373415291643
 20
34.2512626584708642
 10
128.4449581556860949
 20
29.8985635694108964
 10
122.393920132778149
 20
26.6642163621049804
 10
115.8281612705644932
 20
24.6725151858869367
 10
109.0
 20
24.0
 10
59.0
 20
24.0
 10
59.0
 20
24.0
 10
52.1718387294355139
 20
24.6725151858869367
 10
45.6060798672218581
 20
26.6642163621049804
 10
39.5550418443139336
 20
29.8985635694108964
 10
34.2512626584708357
 20
34.2512626584708642
 10
29.8985635694109142
 20
39.5550418443139051
 10
26.6642163621049662
 20
45.6060798672218652
 10
24.6725151858869367
 20
52.1718387294354784
 10
24.0
 20
59.0
 10
24.0
 20
59.0
 10
24.0
 20
59.0
 10
24.6725151858869367
 20
65.8281612705644648
 10
26.664216362104959
 20
72.3939201327781348
 10
29.8985635694109106
 20
78.4449581556860664
 10
34.2512626584708357
 20
83.7487373415291643
 10
39.5550418443139193
 20
88.1014364305890751
 10
45.6060798672218368
 20
91.3357836378950196
 10
52.1718387294354997
 20
93.3274848141130633
 10
58.9999999999999929
 20
94.0
 97
0
 75
0
 76
1
 47
0.0
 98
0
  0
LWPOLYLINE
  5
3E
330
1D
100
AcDbEntity
  8
0
  6
ByLayer
420
0
 48
1.0
 60
0
 67
0
370
-1
100
AcDbPolyline
 90
41
 70
1
 43
0.0
 38
0.0
 39
0.0
210
0.0
220
0.0
230
1.0
 10
59.0
 20
94.0
 40
0.0
 41
0.0
 42
0.0
 10
109.0
 20
94.0
 40
0.0
 41
0.0
 42
0.0
 10
109.0
 20
94.0
 40
0.0
 41
0.0
 42
0.0
 10
115.8281612705644932
 20
93.3274848141130633
 40
0.0
 41
0.0
 42
0.0
 10
122.393920132778149
 20
91.3357836378950196
 40
0.0
 41
0.0
 42
0.0
 10
128.4449581556860949
 20
88.1014364305890751
 40
0.0
 41
0.0
 42
0.0
 10
133.7487373415291643
 20
83.7487373415291643
 40
0.0
 41
0.0
 42
0.0
 10
138.1014364305890751
 20
78.4449581556860664
 40
0.0
 41
0.0
 42
0.0
 10
141.3357836378950196
 20
72.3939201327781348
 40
0.0
 41
0.0
 42
0.0
 10
143.3274848141130633
 20
65.8281612705644648
 40
0.0
 41
0.0
 42
0.0
 10
144.0
 20
59.0
 40
0.0
 41
0.0
 42
0.0
 10
144.0
 20
59.0
 40
0.0
 41
0.0
 42
0.0
 10
144.0
 20
59.0
 40
0.0
 41
0.0
 42
0.0
 10
143.3274848141130633
 20
52.1718387294355352
 40
0.0
 41
0.0
 42
0.0
 10
141.3357836378950196
 20
45.6060798672218652
 40
0.0
 41
0.0
 42
0.0
 10
138.1014364305890751
 20
39.5550418443139051
 40
0.0
 41
0.0
 42
0.0
 10
133.7487373415291643
 20
34.2512626584708642
 40
0.0
 41
0.0
 42
0.0
 10
128.4449581556860949
 20
29.8985635694108964
 40
0.0
 41
0.0
 42
0.0
 10
122.393920132778149
 20
26.6642163621049804
 40
0.0
 41
0.0
 42
0.0
 10
115.8281612705644932
 20
24.6725151858869367
 40
0.0
 41
0.0
 42
0.0
 10
109.0
 20
24.0
 40
0.0
 41
0.0
 42
0.0
 10
59.0
 20
24.0
 40
0.0
 41
0.0
 42
0.0
 10
59.0
 20
24.0
 40
0.0
 41
0.0
 42
0.0
 10
52.1718387294355139
 20
24.6725151858869367
 40
0.0
 41
0.0
 42
0.0
 10
45.6060798672218581
 20
26.6642163621049804
 40
0.0
 41
0.0
 42
0.0
 10
39.5550418443139336
 20
29.8985635694108964
 40
0.0
 41
0.0
 42
0.0
 10
34.2512626584708357
 20
34.2512626584708642
 40
0.0
 41
0.0
 42
0.0
 10
29.8985635694109142
 20
39.5550418443139051
 40
0.0
 41
0.0
 42
0.0
 10
26.6642163621049662
 20
45.6060798672218652
 40
0.0
 41
0.0
 42
0.0
 10
24.6725151858869367
 20
52.1718387294354784
 40
0.0
 41
0.0
 42
0.0
 10
24.0
 20
59.0
 40
0.0
 41
0.0
 42
0.0
 10
24.0
 20
59.0
 40
0.0
 41
0.0
 42
0.0
 10
24.0
 20
59.0
 40
0.0
 41
0.0
 42
0.0
 10
24.6725151858869367
 20
65.8281612705644648
 40
0.0
 41
0.0
 42
0.0
 10
26.664216362104959
 20
72.3939201327781348
 40
0.0
 41
0.0
 42
0.0
 10
29.8985635694109106
 20
78.4449581556860664
 40
0.0
 41
0.0
 42
0.0
 10
34.2512626584708357
 20
83.7487373415291643
 40
0.0
 41
0.0
 42
0.0
 10
39.5550418443139193
 20
88.1014364305890751
 40
0.0
 41
0.0
 42
0.0
 10
45.6060798672218368
 20
91.3357836378950196
 40
0.0
 41
0.0
 42
0.0
 10
52.1718387294354997
 20
93.3274848141130633
 40
0.0
 41
0.0
 42
0.0
 10
58.9999999999999929
 20
94.0
 40
0.0
 41
0.0
 42
0.0
  0
TEXT
  5
3F
330
1D
100
AcDbEntity
  8
0
  6
ByLayer
420
16777215
 48
1.0
 60
0
 67
0
370
-1
100
AcDbText
 39
0.0
 10
60.328125
 20
53.75
 30
0.0
 40
13.0
  1
success
 50
0.0
 41
1.0
 51
0.0
  7
Standard
 71
0
 72
0
 11
0.0
 21
0.0
 31
0.0
210
0.0
220
0.0
230
1.0
100
AcDbText
 73
0
  0
HATCH
  5
40
330
1D
100
AcDbEntity
  8
0
  6
ByLayer
420
11644722
 48
1.0
 60
0
 67
0
370
-1
100
AcDbHatch
 30
0.0
210
0.0
220
0.0
230
1.0
  2
SOLID
 70
1
 71
0
 91
1
 92
2
 72
0
 73
1
 93
41
 10
193.0
 20
94.0
 10
243.0
 20
94.0
 10
243.0
 20
94.0
 10
249.8281612705644932
 20
93.3274848141130633
 10
256.3939201327781348
 20
91.3357836378950196
 10
262.4449581556860949
 20
88.1014364305890751
 10
267.7487373415291358
 20
83.7487373415291643
 10
272.1014364305891036
 20
78.4449581556860664
 10
275.3357836378950196
 20
72.3939201327781348
 10
277.3274848141130633
 20
65.8281612705644648
 10
278.0
 20
59.0
 10
278.0
 20
59.0
 10
278.0
 20
59.0
 10
277.3274848141130633
 20
52.1718387294355352
 10
275.3357836378950196
 20
45.6060798672218652
 10
272.1014364305891036
 20
39.5550418443139051
 10
267.7487373415291358
 20
34.2512626584708642
 10
262.4449581556860949
 20
29.8985635694108964
 10
256.3939201327781348
 20
26.6642163621049804
 10
249.8281612705644932
 20
24.6725151858869367
 10
243.0
 20
24.0
 10
193.0
 20
24.0
 10
193.0
 20
24.0
 10
186.1718387294355068
 20
24.6725151858869367
 10
179.6060798672218652
 20
26.6642163621049804
 10
173.5550418443139336
 20
29.8985635694108964
 10
168.2512626584708357
 20
34.2512626584708642
 10
163.8985635694109249
 20
39.5550418443139051
 10
160.6642163621049804
 20
45.6060798672218652
 10
158.6725151858869367
 20
52.1718387294354784
 10
158.0
 20
59.0
 10
158.0
 20
59.0
 10
158.0
 20
59.0
 10
158.6725151858869367
 20
65.8281612705644648
 10
160.6642163621049519
 20
72.3939201327781348
 10
163.8985635694108964
 20
78.4449581556860664
 10
168.2512626584708357
 20
83.7487373415291643
 10
173.5550418443139336
 20
88.1014364305890751
 10
179.6060798672218368
 20
91.3357836378950196
 10
186.1718387294355068
 20
93.3274848141130633
 10
193.0
 20
94.0
 97
0
 75
0
 76
1
 47
0.0
 98
0
  0
LWPOLYLINE
  5
41
330
1D
100
AcDbEntity
  8
0
  6
ByLayer
420
0
 48
1.0
 60
0
 67
0
370
-1
100
AcDbPolyline
 90
41
 70
1
 43
0.0
 38
0.0
 39
0.0
210
0.0
220
0.0
230
1.0
 10
193.0
 20
94.0
 40
0.0
 41
0.0
 42
0.0
 10
243.0
 20
94.0
 40
0.0
 41
0.0
 42
0.0
 10
243.0
 20
94.0
 40
0.0
 41
0.0
 42
0.0
 10
249.8281612705644932
 20
93.3274848141130633
 40
0.0
 41
0.0
 42
0.0
 10
256.3939201327781348
 20
91.3357836378950196
 40
0.0
 41
0.0
 42
0.0
 10
262.4449581556860949
 20
88.1014364305890751
 40
0.0
 41
0.0
 42
0.0
 10
267.7487373415291358
 20
83.7487373415291643
 40
0.0
 41
0.0
 42
0.0
 10
272.1014364305891036
 20
78.4449581556860664
 40
0.0
 41
0.0
 42
0.0
 10
275.3357836378950196
 20
72.3939201327781348
 40
0.0
 41
0.0
 42
0.0
 10
277.3274848141130633
 20
65.8281612705644648
 40
0.0
 41
0.0
 42
0.0
 10
278.0
 20
59.0
 40
0.0
 41
0.0
 42
0.0
 10
278.0
 20
59.0
 40
0.0
 41
0.0
 42
0.0
 10
278.0
 20
59.0
 40
0.0
 41
0.0
 42
0.0
 10
277.3274848141130633
 20
52.1718387294355352
 40
0.0
 41
0.0
 42
0.0
 10
275.3357836378950196
 20
45.6060798672218652
 40
0.0
 41
0.0
 42
0.0
 10
272.1014364305891036
 20
39.5550418443139051
 40
0.0
 41
0.0
 42
0.0
 10
267.7487373415291358
 20
34.2512626584708642
 40
0.0
 41
0.0
 42
0.0
 10
262.4449581556860949
 20
29.8985635694108964
 40
0.0
 41
0.0
 42
0.0
 10
256.3939201327781348
 20
26.6642163621049804
 40
0.0
 41
0.0
 42
0.0
 10
249.8281612705644932
 20
24.6725151858869367
 40
0.0
 41
0.0
 42
0.0
 10
243.0
 20
24.0
 40
0.0
 41
0.0
 42
0.0
 10
193.0
 20
24.0
 40
0.0
 41
0.0
 42
0.0
 10
193.0
 20
24.0
 40
0.0
 41
0.0
 42
0.0
 10
186.1718387294355068
 20
24.6725151858869367
 40
0.0
 41
0.0
 42
0.0
 10
179.6060798672218652
 20
26.6642163621049804
 40
0.0
 41
0.0
 42
0.0
 10
173.5550418443139336
 20
29.8985635694108964
 40
0.0
 41
0.0
 42
0.0
 10
168.2512626584708357
 20
34.2512626584708642
 40
0.0
 41
0.0
 42
0.0
 10
163.8985635694109249
 20
39.5550418443139051
 40
0.0
 41
0.0
 42
0.0
 10
160.6642163621049804
 20
45.6060798672218652
 40
0.0
 41
0.0
 42
0.0
 10
158.6725151858869367
 20
52.1718387294354784
 40
0.0
 41
0.0
 42
0.0
 10
158.0
 20
59.0
 40
0.0
 41
0.0
 42
0.0
 10
158.0
 20
59.0
 40
0.0
 41
0.0
 42
0.0
 10
158.0
 20
59.0
 40
0.0
 41
0.0
 42
0.0
 10
158.6725151858869367
 20
65.8281612705644648
 40
0.0
 41
0.0
 42
0.0
 10
160.6642163621049519
 20
72.3939201327781348
 40
0.0
 41
0.0
 42
0.0
 10
163.8985635694108964
 20
78.4449581556860664
 40
0.0
 41
0.0
 42
0.0
 10
168.2512626584708357
 20
83.7487373415291643
 40
0.0
 41
0.0
 42
0.0
 10
173.5550418443139336
 20
88.1014364305890751
 40
0.0
 41
0.0
 42
0.0
 10
179.6060798672218368
 20
91.3357836378950196
 40
0.0
 41
0.0
 42
0.0
 10
186.1718387294355068
 20
93.3274848141130633
 40
0.0
 41
0.0
 42
0.0
 10
193.0
 20
94.0
 40
0.0
 41
0.0
 42
0.0
  0
TEXT
  5
42
330
1D
100
AcDbEntity
  8
0
  6
ByLayer
420
1052688
 48
1.0
 60
0
 67
0
370
-1
100
AcDbText
 39
0.0
 10
203.015625
 20
53.75
 30
0.0
 40
13.0
  1
warm
 50
0.0
 41
1.0
 51
0.0
  7
Standard
 71
0
 72
0
 11
0.0
 21
0.0
 31
0.0
210
0.0
220
0.0
230
1.0
100
AcDbText
 73
0
  0
HATCH
  5
43
330
1D
100
AcDbEntity
  8
0
  6
ByLayer
420
12243060
 48
1.0
 60
0
 67
0
370
-1
100
AcDbHatch
 30
0.0
210
0.0
220
0.0
230
1.0
  2
SOLID
 70
1
 71
0
 91
1
 92
2
 72
0
 73
1
 93
41
 10
327.0
 20
94.0
 10
377.0
 20
94.0
 10
377.0
 20
94.0
 10
383.8281612705644648
 20
93.3274848141130633
 10
390.3939201327781348
 20
91.3357836378950196
 10
396.4449581556860949
 20
88.1014364305890751
 10
401.7487373415291358
 20
83.7487373415291643
 10
406.1014364305891036
 20
78.4449581556860664
 10
409.3357836378950196
 20
72.3939201327781348
 10
411.3274848141130633
 20
65.8281612705644648
 10
412.0
 20
59.0
 10
412.0
 20
59.0
 10
412.0
 20
59.0
 10
411.3274848141130633
 20
52.1718387294355352
 10
409.3357836378950196
 20
45.6060798672218652
 10
406.1014364305891036
 20
39.5550418443139051
 10
401.7487373415291358
 20
34.2512626584708642
 10
396.4449581556860949
 20
29.8985635694108964
 10
390.3939201327781348
 20
26.6642163621049804
 10
383.8281612705644648
 20
24.6725151858869367
 10
377.0
 20
24.0
 10
327.0
 20
24.0
 10
327.0
 20
24.0
 10
320.1718387294355352
 20
24.6725151858869367
 10
313.6060798672218652
 20
26.6642163621049804
 10
307.5550418443139051
 20
29.8985635694108964
 10
302.2512626584708642
 20
34.2512626584708642
 10
297.8985635694108964
 20
39.5550418443139051
 10
294.6642163621049804
 20
45.6060798672218652
 10
292.6725151858869367
 20
52.1718387294354784
 10
292.0
 20
59.0
 10
292.0
 20
59.0
 10
292.0
 20
59.0
 10
292.6725151858869367
 20
65.8281612705644648
 10
294.6642163621049804
 20
72.3939201327781348
 10
297.8985635694108964
 20
78.4449581556860664
 10
302.2512626584708073
 20
83.7487373415291643
 10
307.5550418443139051
 20
88.1014364305890751
 10
313.6060798672218652
 20
91.3357836378950196
 10
320.1718387294354784
 20
93.3274848141130633
 10
327.0
 20
94.0
 97
0
 75
0
 76
1
 47
0.0
 98
0
  0
LWPOLYLINE
  5
44
330
1D
100
AcDbEntity
  8
0
  6
ByLayer
420
0
 48
1.0
 60
0
 67
0
370
-1
100
AcDbPolyline
 90
41
 70
1
 43
0.0
 38
0.0
 39
0.0
210
0.0
220
0.0
230
1.0
 10
327.0
 20
94.0
 40
0.0
 41
0.0
 42
0.0
 10
377.0
 20
94.0
 40
0.0
 41
0.0
 42
0.0
 10
377.0
 20
94.0
 40
0.0
 41
0.0
 42
0.0
 10
383.8281612705644648
 20
93.3274848141130633
 40
0.0
 41
0.0
 42
0.0
 10
390.3939201327781348
 20
91.3357836378950196
 40
0.0
 41
0.0
 42
0.0
 10
396.4449581556860949
 20
88.1014364305890751
 40
0.0
 41
0.0
 42
0.0
 10
401.7487373415291358
 20
83.7487373415291643
 40
0.0
 41
0.0
 42
0.0
 10
406.1014364305891036
 20
78.4449581556860664
 40
0.0
 41
0.0
 42
0.0
 10
409.3357836378950196
 20
72.3939201327781348
 40
0.0
 41
0.0
 42
0.0
 10
411.3274848141130633
 20
65.8281612705644648
 40
0.0
 41
0.0
 42
0.0
 10
412.0
 20
59.0
 40
0.0
 41
0.0
 42
0.0
 10
412.0
 20
59.0
 40
0.0
 41
0.0
 42
0.0
 10
412.0
 20
59.0
 40
0.0
 41
0.0
 42
0.0
 10
411.3274848141130633
 20
52.1718387294355352
 40
0.0
 41
0.0
 42
0.0
 10
409.3357836378950196
 20
45.6060798672218652
 40
0.0
 41
0.0
 42
0.0
 10
406.1014364305891036
 20
39.5550418443139051
 40
0.0
 41
0.0
 42
0.0
 10
401.7487373415291358
 20
34.2512626584708642
 40
0.0
 41
0.0
 42
0.0
 10
396.4449581556860949
 20
29.8985635694108964
 40
0.0
 41
0.0
 42
0.0
 10
390.3939201327781348
 20
26.6642163621049804
 40
0.0
 41
0.0
 42
0.0
 10
383.8281612705644648
 20
24.6725151858869367
 40
0.0
 41
0.0
 42
0.0
 10
377.0
 20
24.0
 40
0.0
 41
0.0
 42
0.0
 10
327.0
 20
24.0
 40
0.0
 41
0.0
 42
0.0
 10
327.0
 20
24.0
 40
0.0
 41
0.0
 42
0.0
 10
320.1718387294355352
 20
24.6725151858869367
 40
0.0
 41
0.0
 42
0.0
 10
313.6060798672218652
 20
26.6642163621049804
 40
0.0
 41
0.0
 42
0.0
 10
307.5550418443139051
 20
29.8985635694108964
 40
0.0
 41
0.0
 42
0.0
 10
302.2512626584708642
 20
34.2512626584708642
 40
0.0
 41
0.0
 42
0.0
 10
297.8985635694108964
 20
39.5550418443139051
 40
0.0
 41
0.0
 42
0.0
 10
294.6642163621049804
 20
45.6060798672218652
 40
0.0
 41
0.0
 42
0.0
 10
292.6725151858869367
 20
52.1718387294354784
 40
0.0
 41
0.0
 42
0.0
 10
292.0
 20
59.0
 40
0.0
 41
0.0
 42
0.0
 10
292.0
 20
59.0
 40
0.0
 41
0.0
 42
0.0
 10
292.0
 20
59.0
 40
0.0
 41
0.0
 42
0.0
 10
292.6725151858869367
 20
65.8281612705644648
 40
0.0
 41
0.0
 42
0.0
 10
294.6642163621049804
 20
72.3939201327781348
 40
0.0
 41
0.0
 42
0.0
 10
297.8985635694108964
 20
78.4449581556860664
 40
0.0
 41
0.0
 42
0.0
 10
302.2512626584708073
 20
83.7487373415291643
 40
0.0
 41
0.0
 42
0.0
 10
307.5550418443139051
 20
88.1014364305890751
 40
0.0
 41
0.0
 42
0.0
 10
313.6060798672218652
 20
91.3357836378950196
 40
0.0
 41
0.0
 42
0.0
 10
320.1718387294354784
 20
93.3274848141130633
 40
0.0
 41
0.0
 42
0.0
 10
327.0
 20
94.0
 40
0.0
 41
0.0
 42
0.0
  0
TEXT
  5
45
330
1D
100
AcDbEntity
  8
0
  6
ByLayer
420
1056788
 48
1.0
 60
0
 67
0
370
-1
100
AcDbText
 39
0.0
 10
340.265625
 20
53.75
 30
0.0
 40
13.0
  1
mint
 50
0.0
 41
1.0
 51
0.0
  7
Standard
 71
0
 72
0
 11
0.0
 21
0.0
 31
0.0
210
0.0
220
0.0
230
1.0
100
AcDbText
 73
0
  0
ENDSEC
  0
SECTION
  2
OBJECTS
  0
DICTIONARY
  5
1
330
0
100
AcDbDictionary
280
0
281
0
  3
ACAD_COLOR
350
2
  3
ACAD_GROUP
350
3
  3
ACAD_LAYOUT
350
4
  3
ACAD_MATERIAL
350
5
  3
ACAD_SORTENTS
350
6
  3
ACAD_MLEADERSTYLE
350
7
  3
ACAD_MLINESTYLE
350
8
  3
ACAD_TABLESTYLE
350
9
  3
ACAD_PLOTSETTINGS
350
A
  3
AcDbVariableDictionary
350
B
  3
ACAD_SCALELIST
350
C
  3
ACAD_VISUALSTYLE
350
D
  3
ACAD_FIELDLIST
350
E
  3
ACAD_IMAGE_DICT
350
F
  0
DICTIONARY
  5
2
330
1
100
AcDbDictionary
280
0
281
0
  0
DICTIONARY
  5
3
330
1
100
AcDbDictionary
280
0
281
0
  0
DICTIONARY
  5
4
330
1
100
AcDbDictionary
280
0
281
0
  0
DICTIONARY
  5
5
330
1
100
AcDbDictionary
280
0
281
0
  0
DICTIONARY
  5
6
330
1
100
AcDbDictionary
280
0
281
0
  0
DICTIONARY
  5
7
330
1
100
AcDbDictionary
280
0
281
0
  0
DICTIONARY
  5
8
330
1
100
AcDbDictionary
280
0
281
0
  0
DICTIONARY
  5
9
330
1
100
AcDbDictionary
280
0
281
0
  0
DICTIONARY
  5
A
330
1
100
AcDbDictionary
280
0
281
0
  0
DICTIONARY
  5
B
330
1
100
AcDbDictionary
280
0
281
0
  0
DICTIONARY
  5
C
330
1
100
AcDbDictionary
280
0
281
0
  0
DICTIONARY
  5
D
330
1
100
AcDbDictionary
280
0
281
0
  0
DICTIONARY
  5
E
330
1
100
AcDbDictionary
280
0
281
0
  0
DICTIONARY
  5
F
330
1
100
AcDbDictionary
280
0
281
0
  0
ENDSEC
  0
EOF
