0
SECTION
2
HEADER
9
$ACADVER
1
AC1021
9
$LASTSAVEDBY
1
@tarikjabiri/dxf
9
$HANDSEED
5
32
9
$INSUNITS
70
0
9
$CLAYER
8
0
9
$VIEWCTR
10
590
20
172.875
0
ENDSEC
0
SECTION
2
CLASSES
0
ENDSEC
0
SECTION
2
TABLES
0
TABLE
2
VPORT
5
1
330
0
100
AcDbSymbolTable
70
1
0
VPORT
5
19
330
1
100
AcDbSymbolTableRecord
100
AcDbViewportTableRecord
2
*Active
70
0
10
0
20
0
11
1
21
1
12
590
22
172.875
13
0
23
0
14
10
24
10
15
10
25
10
16
0
26
0
36
1
17
0
27
0
37
0
40
438.25
41
2
42
50
43
0
44
0
50
0
51
0
71
0
72
100
73
1
74
3
75
0
76
1
77
0
78
0
281
0
65
1
110
0
120
0
130
0
111
1
121
0
131
0
112
0
122
1
132
0
79
0
146
0
348
10020
60
7
61
5
292
1
282
1
141
0
142
0
63
250
421
3358443
0
ENDTAB
0
TABLE
2
LTYPE
5
2
330
0
100
AcDbSymbolTable
70
3
0
LTYPE
5
12
330
2
100
AcDbSymbolTableRecord
100
AcDbLinetypeTableRecord
2
ByBlock
70
0
3

72
65
73
0
40
0
0
LTYPE
5
13
330
2
100
AcDbSymbolTableRecord
100
AcDbLinetypeTableRecord
2
ByLayer
70
0
3

72
65
73
0
40
0
0
LTYPE
5
14
330
2
100
AcDbSymbolTableRecord
100
AcDbLinetypeTableRecord
2
Continuous
70
0
3
Solid line
72
65
73
0
40
0
0
ENDTAB
0
TABLE
2
LAYER
5
3
330
0
100
AcDbSymbolTable
70
1
0
LAYER
5
15
330
3
100
AcDbSymbolTableRecord
100
AcDbLayerTableRecord
2
0
70
0
62
7
6
Continuous
370
0
390
0
0
ENDTAB
0
TABLE
2
STYLE
5
4
330
0
100
AcDbSymbolTable
70
2
0
STYLE
5
16
330
4
100
AcDbSymbolTableRecord
100
AcDbTextStyleTableRecord
2
Standard
70
0
40
0
41
1
50
0
71
0
42
1
3
txt
4

0
STYLE
5
1B
330
4
100
AcDbSymbolTableRecord
100
AcDbTextStyleTableRecord
2
Arial
70
0
40
0
41
1
50
0
71
0
42
1
3
Arial.ttf
4

0
ENDTAB
0
TABLE
2
VIEW
5
5
330
0
100
AcDbSymbolTable
70
0
0
ENDTAB
0
TABLE
2
UCS
5
6
330
0
100
AcDbSymbolTable
70
0
0
ENDTAB
0
TABLE
2
APPID
5
7
330
0
100
AcDbSymbolTable
70
1
0
APPID
5
17
330
7
100
AcDbSymbolTableRecord
100
AcDbRegAppTableRecord
2
ACAD
70
0
0
ENDTAB
0
TABLE
2
DIMSTYLE
5
8
330
0
100
AcDbSymbolTable
70
1
100
AcDbDimStyleTable
0
DIMSTYLE
105
18
330
8
100
AcDbSymbolTableRecord
100
AcDbDimStyleTableRecord
2
Standard
70
0
340
16
0
ENDTAB
0
TABLE
2
BLOCK_RECORD
5
9
330
0
100
AcDbSymbolTable
70
2
0
BLOCK_RECORD
5
C
330
9
100
AcDbSymbolTableRecord
100
AcDbBlockTableRecord
2
*Model_Space
70
0
280
1
281
0
0
BLOCK_RECORD
5
F
330
9
100
AcDbSymbolTableRecord
100
AcDbBlockTableRecord
2
*Paper_Space
70
0
280
1
281
0
0
ENDTAB
0
ENDSEC
0
SECTION
2
BLOCKS
0
BLOCK
5
D
330
C
100
AcDbEntity
8
0
100
AcDbBlockBegin
2
*Model_Space
70
0
10
0
20
0
30
0
3
*Model_Space
1

0
ENDBLK
5
E
100
AcDbEntity
8
0
100
AcDbBlockEnd
0
BLOCK
5
10
330
F
100
AcDbEntity
8
0
100
AcDbBlockBegin
2
*Paper_Space
70
0
10
0
20
0
30
0
3
*Paper_Space
1

0
ENDBLK
5
11
100
AcDbEntity
8
0
100
AcDbBlockEnd
0
ENDSEC
0
SECTION
2
ENTITIES
0
TEXT
5
1A
330
C
100
AcDbEntity
420
2042167
8
0
100
AcDbText
10
24
20
292
30
0
40
22
1
Modern CSS Color Functions
7
Arial
100
AcDbText
0
TEXT
5
1C
330
C
100
AcDbEntity
420
2042167
8
0
100
AcDbText
10
24
20
259.5000125169754
30
0
40
16
1
These tiles exercise color(), lab(), lch(), oklab(), and oklch() across fills, borders, and text.
7
Arial
100
AcDbText
0
LWPOLYLINE
5
1D
330
C
100
AcDbEntity
420
2500134
8
0
100
AcDbPolyline
90
42
70
0
43
0
38
0
39
0
10
40
20
234
10
242
20
234
10
242
20
234
10
245.12144515225805
20
233.6925644864517
10
248.12293491784143
20
232.78207252018058
10
250.88912372831365
20
231.30351379684072
10
253.31370849898477
20
229.31370849898477
10
255.30351379684072
20
226.88912372831362
10
256.7820725201806
20
224.12293491784143
10
257.6925644864517
20
221.12144515225805
10
258
20
218
10
258
20
130
10
258
20
130
10
257.6925644864517
20
126.87855484774195
10
256.7820725201806
20
123.87706508215857
10
255.30351379684072
20
121.11087627168638
10
253.31370849898477
20
118.68629150101523
10
250.88912372831365
20
116.69648620315928
10
248.12293491784143
20
115.21792747981942
10
245.12144515225805
20
114.30743551354831
10
242
20
114
10
40
20
114
10
40
20
114
10
36.87855484774195
20
114.30743551354831
10
33.877065082158566
20
115.21792747981942
10
31.11087627168637
20
116.69648620315928
10
28.68629150101524
20
118.68629150101523
10
26.696486203159274
20
121.11087627168638
10
25.217927479819412
20
123.87706508215857
10
24.307435513548313
20
126.87855484774195
10
24
20
130
10
24
20
218
10
24
20
218
10
24.307435513548313
20
221.12144515225805
10
25.21792747981941
20
224.12293491784143
10
26.696486203159274
20
226.88912372831362
10
28.686291501015237
20
229.31370849898477
10
31.110876271686365
20
231.30351379684072
10
33.87706508215855
20
232.78207252018058
10
36.87855484774194
20
233.6925644864517
10
40
20
234
10
40
20
234
0
TEXT
5
1E
330
C
100
AcDbEntity
420
16777215
8
0
100
AcDbText
10
41.00002499999937
20
207
30
0
40
12
1
COLOR(SRGB)
7
Arial
100
AcDbText
0
TEXT
5
1F
330
C
100
AcDbEntity
420
16777215
8
0
100
AcDbText
10
41.00002499999937
20
135.75
30
0
40
15
1
Accent surface
7
Arial
100
AcDbText
0
LWPOLYLINE
5
20
330
C
100
AcDbEntity
420
2500134
8
0
100
AcDbPolyline
90
42
70
0
43
0
38
0
39
0
10
290
20
234
10
492
20
234
10
492
20
234
10
495.12144515225805
20
233.6925644864517
10
498.12293491784146
20
232.78207252018058
10
500.8891237283136
20
231.30351379684072
10
503.31370849898474
20
229.31370849898477
10
505.3035137968407
20
226.88912372831362
10
506.7820725201806
20
224.12293491784143
10
507.6925644864517
20
221.12144515225805
10
508
20
218
10
508
20
130
10
508
20
130
10
507.6925644864517
20
126.87855484774195
10
506.7820725201806
20
123.87706508215857
10
505.3035137968407
20
121.11087627168638
10
503.31370849898474
20
118.68629150101523
10
500.8891237283136
20
116.69648620315928
10
498.12293491784146
20
115.21792747981942
10
495.12144515225805
20
114.30743551354831
10
492
20
114
10
290
20
114
10
290
20
114
10
286.87855484774195
20
114.30743551354831
10
283.87706508215854
20
115.21792747981942
10
281.1108762716864
20
116.69648620315928
10
278.68629150101526
20
118.68629150101523
10
276.6964862031593
20
121.11087627168638
10
275.2179274798194
20
123.87706508215857
10
274.3074355135483
20
126.87855484774195
10
274
20
130
10
274
20
218
10
274
20
218
10
274.3074355135483
20
221.12144515225805
10
275.2179274798194
20
224.12293491784143
10
276.6964862031593
20
226.88912372831362
10
278.68629150101526
20
229.31370849898477
10
281.1108762716864
20
231.30351379684072
10
283.87706508215854
20
232.78207252018058
10
286.87855484774195
20
233.6925644864517
10
290
20
234
10
290
20
234
0
TEXT
5
21
330
C
100
AcDbEntity
420
16777215
8
0
100
AcDbText
10
291.00002499999937
20
207
30
0
40
12
1
LAB()
7
Arial
100
AcDbText
0
TEXT
5
22
330
C
100
AcDbEntity
420
16777215
8
0
100
AcDbText
10
291.00002499999937
20
135.75
30
0
40
15
1
Perceptual red
7
Arial
100
AcDbText
0
LWPOLYLINE
5
23
330
C
100
AcDbEntity
420
2500134
8
0
100
AcDbPolyline
90
42
70
0
43
0
38
0
39
0
10
539
20
234
10
741
20
234
10
741
20
234
10
744.121445152258
20
233.6925644864517
10
747.1229349178415
20
232.78207252018058
10
749.8891237283136
20
231.30351379684072
10
752.3137084989847
20
229.31370849898477
10
754.3035137968408
20
226.88912372831362
10
755.7820725201806
20
224.12293491784143
10
756.6925644864517
20
221.12144515225805
10
757
20
218
10
757
20
130
10
757
20
130
10
756.6925644864517
20
126.87855484774195
10
755.7820725201806
20
123.87706508215857
10
754.3035137968408
20
121.11087627168638
10
752.3137084989847
20
118.68629150101523
10
749.8891237283136
20
116.69648620315928
10
747.1229349178415
20
115.21792747981942
10
744.121445152258
20
114.30743551354831
10
741
20
114
10
539
20
114
10
539
20
114
10
535.878554847742
20
114.30743551354831
10
532.8770650821585
20
115.21792747981942
10
530.1108762716864
20
116.69648620315928
10
527.6862915010153
20
118.68629150101523
10
525.6964862031592
20
121.11087627168638
10
524.2179274798194
20
123.87706508215857
10
523.3074355135483
20
126.87855484774195
10
523
20
130
10
523
20
218
10
523
20
218
10
523.3074355135483
20
221.12144515225805
10
524.2179274798194
20
224.12293491784143
10
525.6964862031592
20
226.88912372831362
10
527.6862915010153
20
229.31370849898477
10
530.1108762716864
20
231.30351379684072
10
532.8770650821585
20
232.78207252018058
10
535.878554847742
20
233.6925644864517
10
539
20
234
10
539
20
234
0
TEXT
5
24
330
C
100
AcDbEntity
420
16777215
8
0
100
AcDbText
10
540.0000124999997
20
207
30
0
40
12
1
LCH()
7
Arial
100
AcDbText
0
TEXT
5
25
330
C
100
AcDbEntity
420
16777215
8
0
100
AcDbText
10
540.0000124999997
20
135.75
30
0
40
15
1
Polar lightness
7
Arial
100
AcDbText
0
LWPOLYLINE
5
26
330
C
100
AcDbEntity
420
2500134
8
0
100
AcDbPolyline
90
42
70
0
43
0
38
0
39
0
10
789
20
234
10
991
20
234
10
991
20
234
10
994.121445152258
20
233.6925644864517
10
997.1229349178415
20
232.78207252018058
10
999.8891237283136
20
231.30351379684072
10
1002.3137084989847
20
229.31370849898477
10
1004.3035137968408
20
226.88912372831362
10
1005.7820725201806
20
224.12293491784143
10
1006.6925644864517
20
221.12144515225805
10
1007
20
218
10
1007
20
130
10
1007
20
130
10
1006.6925644864517
20
126.87855484774195
10
1005.7820725201806
20
123.87706508215857
10
1004.3035137968408
20
121.11087627168638
10
1002.3137084989847
20
118.68629150101523
10
999.8891237283136
20
116.69648620315928
10
997.1229349178415
20
115.21792747981942
10
994.121445152258
20
114.30743551354831
10
991
20
114
10
789
20
114
10
789
20
114
10
785.878554847742
20
114.30743551354831
10
782.8770650821585
20
115.21792747981942
10
780.1108762716864
20
116.69648620315928
10
777.6862915010153
20
118.68629150101523
10
775.6964862031592
20
121.11087627168638
10
774.2179274798194
20
123.87706508215857
10
773.3074355135483
20
126.87855484774195
10
773
20
130
10
773
20
218
10
773
20
218
10
773.3074355135483
20
221.12144515225805
10
774.2179274798194
20
224.12293491784143
10
775.6964862031592
20
226.88912372831362
10
777.6862915010153
20
229.31370849898477
10
780.1108762716864
20
231.30351379684072
10
782.8770650821585
20
232.78207252018058
10
785.878554847742
20
233.6925644864517
10
789
20
234
10
789
20
234
0
TEXT
5
27
330
C
100
AcDbEntity
420
16777215
8
0
100
AcDbText
10
790.0000249999994
20
207
30
0
40
12
1
OKLAB()
7
Arial
100
AcDbText
0
TEXT
5
28
330
C
100
AcDbEntity
420
16777215
8
0
100
AcDbText
10
790.0000249999994
20
135.75
30
0
40
15
1
OKLab card
7
Arial
100
AcDbText
0
LWPOLYLINE
5
29
330
C
100
AcDbEntity
420
2500134
8
0
100
AcDbPolyline
90
42
70
0
43
0
38
0
39
0
10
1038
20
234
10
1240
20
234
10
1240
20
234
10
1243.121445152258
20
233.6925644864517
10
1246.1229349178413
20
232.78207252018058
10
1248.8891237283137
20
231.30351379684072
10
1251.3137084989849
20
229.31370849898477
10
1253.3035137968407
20
226.88912372831362
10
1254.7820725201807
20
224.12293491784143
10
1255.6925644864516
20
221.12144515225805
10
1256
20
218
10
1256
20
130
10
1256
20
130
10
1255.6925644864516
20
126.87855484774195
10
1254.7820725201807
20
123.87706508215857
10
1253.3035137968407
20
121.11087627168638
10
1251.3137084989849
20
118.68629150101523
10
1248.8891237283137
20
116.69648620315928
10
1246.1229349178413
20
115.21792747981942
10
1243.121445152258
20
114.30743551354831
10
1240
20
114
10
1038
20
114
10
1038
20
114
10
1034.878554847742
20
114.30743551354831
10
1031.8770650821587
20
115.21792747981942
10
1029.1108762716863
20
116.69648620315928
10
1026.6862915010151
20
118.68629150101523
10
1024.6964862031593
20
121.11087627168638
10
1023.2179274798194
20
123.87706508215857
10
1022.3074355135483
20
126.87855484774195
10
1022
20
130
10
1022
20
218
10
1022
20
218
10
1022.3074355135483
20
221.12144515225805
10
1023.2179274798194
20
224.12293491784143
10
1024.6964862031593
20
226.88912372831362
10
1026.6862915010151
20
229.31370849898477
10
1029.1108762716863
20
231.30351379684072
10
1031.8770650821587
20
232.78207252018058
10
1034.878554847742
20
233.6925644864517
10
1038
20
234
10
1038
20
234
0
TEXT
5
2A
330
C
100
AcDbEntity
420
16777215
8
0
100
AcDbText
10
1039.0000124999997
20
207
30
0
40
12
1
OKLCH()
7
Arial
100
AcDbText
0
TEXT
5
2B
330
C
100
AcDbEntity
420
16777215
8
0
100
AcDbText
10
1039.0000124999997
20
135.75
30
0
40
15
1
OKLCH card
7
Arial
100
AcDbText
0
LWPOLYLINE
5
2C
330
C
100
AcDbEntity
420
0
8
0
100
AcDbPolyline
90
42
70
0
43
0
38
0
39
0
10
59
20
94
10
109
20
94
10
109
20
94
10
115.8281612705645
20
93.32748481411306
10
122.39392013277815
20
91.33578363789502
10
128.4449581556861
20
88.10143643058908
10
133.74873734152916
20
83.74873734152916
10
138.10143643058908
20
78.44495815568607
10
141.33578363789502
20
72.39392013277813
10
143.32748481411306
20
65.82816127056446
10
144
20
59
10
144
20
59
10
144
20
59
10
143.32748481411306
20
52.171838729435535
10
141.33578363789502
20
45.606079867221865
10
138.10143643058908
20
39.555041844313905
10
133.74873734152916
20
34.251262658470864
10
128.4449581556861
20
29.898563569410896
10
122.39392013277815
20
26.66421636210498
10
115.8281612705645
20
24.672515185886937
10
109
20
24
10
59
20
24
10
59
20
24
10
52.171838729435514
20
24.672515185886937
10
45.60607986722186
20
26.66421636210498
10
39.55504184431393
20
29.898563569410896
10
34.251262658470836
20
34.251262658470864
10
29.898563569410914
20
39.555041844313905
10
26.664216362104966
20
45.606079867221865
10
24.672515185886937
20
52.17183872943548
10
24
20
59
10
24
20
59
10
24
20
59
10
24.672515185886937
20
65.82816127056446
10
26.66421636210496
20
72.39392013277813
10
29.89856356941091
20
78.44495815568607
10
34.251262658470836
20
83.74873734152916
10
39.55504184431392
20
88.10143643058908
10
45.60607986722184
20
91.33578363789502
10
52.1718387294355
20
93.32748481411306
10
58.99999999999999
20
94
10
59
20
94
0
TEXT
5
2D
330
C
100
AcDbEntity
420
16777215
8
0
100
AcDbText
10
60.328125
20
53.75
30
0
40
13
1
success
7
Arial
100
AcDbText
0
LWPOLYLINE
5
2E
330
C
100
AcDbEntity
420
0
8
0
100
AcDbPolyline
90
42
70
0
43
0
38
0
39
0
10
193
20
94
10
243
20
94
10
243
20
94
10
249.8281612705645
20
93.32748481411306
10
256.39392013277813
20
91.33578363789502
10
262.4449581556861
20
88.10143643058908
10
267.74873734152914
20
83.74873734152916
10
272.1014364305891
20
78.44495815568607
10
275.335783637895
20
72.39392013277813
10
277.32748481411306
20
65.82816127056446
10
278
20
59
10
278
20
59
10
278
20
59
10
277.32748481411306
20
52.171838729435535
10
275.335783637895
20
45.606079867221865
10
272.1014364305891
20
39.555041844313905
10
267.74873734152914
20
34.251262658470864
10
262.4449581556861
20
29.898563569410896
10
256.39392013277813
20
26.66421636210498
10
249.8281612705645
20
24.672515185886937
10
243
20
24
10
193
20
24
10
193
20
24
10
186.1718387294355
20
24.672515185886937
10
179.60607986722187
20
26.66421636210498
10
173.55504184431393
20
29.898563569410896
10
168.25126265847084
20
34.251262658470864
10
163.89856356941092
20
39.555041844313905
10
160.66421636210498
20
45.606079867221865
10
158.67251518588694
20
52.17183872943548
10
158
20
59
10
158
20
59
10
158
20
59
10
158.67251518588694
20
65.82816127056446
10
160.66421636210495
20
72.39392013277813
10
163.8985635694109
20
78.44495815568607
10
168.25126265847084
20
83.74873734152916
10
173.55504184431393
20
88.10143643058908
10
179.60607986722184
20
91.33578363789502
10
186.1718387294355
20
93.32748481411306
10
193
20
94
10
193
20
94
0
TEXT
5
2F
330
C
100
AcDbEntity
420
1052688
8
0
100
AcDbText
10
203.015625
20
53.75
30
0
40
13
1
warm
7
Arial
100
AcDbText
0
LWPOLYLINE
5
30
330
C
100
AcDbEntity
420
0
8
0
100
AcDbPolyline
90
42
70
0
43
0
38
0
39
0
10
327
20
94
10
377
20
94
10
377
20
94
10
383.82816127056446
20
93.32748481411306
10
390.39392013277813
20
91.33578363789502
10
396.4449581556861
20
88.10143643058908
10
401.74873734152914
20
83.74873734152916
10
406.1014364305891
20
78.44495815568607
10
409.335783637895
20
72.39392013277813
10
411.32748481411306
20
65.82816127056446
10
412
20
59
10
412
20
59
10
412
20
59
10
411.32748481411306
20
52.171838729435535
10
409.335783637895
20
45.606079867221865
10
406.1014364305891
20
39.555041844313905
10
401.74873734152914
20
34.251262658470864
10
396.4449581556861
20
29.898563569410896
10
390.39392013277813
20
26.66421636210498
10
383.82816127056446
20
24.672515185886937
10
377
20
24
10
327
20
24
10
327
20
24
10
320.17183872943554
20
24.672515185886937
10
313.60607986722187
20
26.66421636210498
10
307.5550418443139
20
29.898563569410896
10
302.25126265847086
20
34.251262658470864
10
297.8985635694109
20
39.555041844313905
10
294.664216362105
20
45.606079867221865
10
292.67251518588694
20
52.17183872943548
10
292
20
59
10
292
20
59
10
292
20
59
10
292.67251518588694
20
65.82816127056446
10
294.664216362105
20
72.39392013277813
10
297.8985635694109
20
78.44495815568607
10
302.2512626584708
20
83.74873734152916
10
307.5550418443139
20
88.10143643058908
10
313.60607986722187
20
91.33578363789502
10
320.1718387294355
20
93.32748481411306
10
327
20
94
10
327
20
94
0
TEXT
5
31
330
C
100
AcDbEntity
420
1056788
8
0
100
AcDbText
10
340.265625
20
53.75
30
0
40
13
1
mint
7
Arial
100
AcDbText
0
ENDSEC
0
SECTION
2
OBJECTS
0
DICTIONARY
5
A
330
0
100
AcDbDictionary
281
1
3
ACAD_GROUP
350
B
0
DICTIONARY
5
B
330
A
100
AcDbDictionary
281
0
0
ENDSEC
0
EOF