  0
SECTION
  2
HEADER
  9
$ANGBASE
 50
0.0
  9
$ANGDIR
 70
1
  9
$AUNITS
 70
0
  9
$AUPREC
 70
0
  9
$ATTMODE
 70
1
  9
$DWGCODEPAGE
  3
ANSI_1252
  9
$TDCREATE
 40
2451545.0416666665114462
  9
$CECOLOR
 62
256
  9
$CELTSCALE
 40
1.0
  9
$CELWEIGHT
370
-1
  9
$CLAYER
  8
0
  9
$CELTYPE
  6
ByLayer
  9
$CMLJUST
 70
0
  9
$CMLSCALE
 40
20.0
  9
$CMLSTYLE
  2
Standard
  9
$DIMSTYLE
  2
Standard
  9
$LWDISPLAY
290
0
  9
$EXTNAMES
290
1
  9
$HANDSEED
  5
68
  9
$INSUNITS
 70
0
  9
$LUNITS
 70
2
  9
$LUPREC
 70
4
  9
$LTSCALE
 40
1.0
  9
$MIRRTEXT
 70
0
  9
$INSBASE
 10
0.0
 20
0.0
 30
0.0
  9
$SPLINESEGS
 70
8
  9
$PSLTSCALE
 70
1
  9
$PDMODE
 70
0
  9
$PDSIZE
 40
0.0
  9
$PLINEGEN
 70
0
  9
$TEXTSIZE
 40
0.2
  9
$TEXTSTYLE
  7
Standard
  9
$TDINDWG
 40
0.0
  9
$TDUCREATE
 40
2451545.0416666665114462
  9
$TDUUPDATE
 40
2451545.0416666665114462
  9
$TDUPDATE
 40
2451545.0416666665114462
  9
$ACADVER
  1
AC1018
  0
ENDSEC
  0
SECTION
  2
CLASSES
  0
CLASS
  1
ACDBDICTIONARYWDFLT
  2
AcDbDictionaryWithDefault
  3
ObjectDBX Classes
 90
32768
 91
0
280
0
281
0
  0
CLASS
  1
ACDBPLACEHOLDER
  2
AcDbPlaceHolder
  3
ObjectDBX Classes
 90
0
 91
0
280
0
281
0
  0
CLASS
  1
LAYOUT
  2
AcDbLayout
  3
ObjectDBX Classes
 90
0
 91
0
280
0
281
0
  0
CLASS
  1
DICTIONARYVAR
  2
AcDbDictionaryVar
  3
ObjectDBX Classes
 90
0
 91
0
280
0
281
0
  0
CLASS
  1
TABLESTYLE
  2
AcDbTableStyle
  3
ObjectDBX Classes
 90
4095
 91
0
280
0
281
0
  0
CLASS
  1
MATERIAL
  2
AcDbMaterial
  3
ObjectDBX Classes
 90
1153
 91
0
280
0
281
0
  0
CLASS
  1
VISUALSTYLE
  2
AcDbVisualStyle
  3
ObjectDBX Classes
 90
4095
 91
0
280
0
281
0
  0
CLASS
  1
SCALE
  2
AcDbScale
  3
ObjectDBX Classes
 90
1153
 91
0
280
0
281
0
  0
CLASS
  1
MLEADERSTYLE
  2
AcDbMLeaderStyle
  3
ObjectDBX Classes
 90
4095
 91
0
280
0
281
0
  0
CLASS
  1
CELLSTYLEMAP
  2
AcDbCellStyleMap
  3
ObjectDBX Classes
 90
1152
 91
0
280
0
281
0
  0
CLASS
  1
EXACXREFPANELOBJECT
  2
ExAcXREFPanelObject
  3
ObjectDBX Classes
 90
1025
 91
0
280
0
281
0
  0
CLASS
  1
NPOCOLLECTION
  2
AcDbImpNonPersistentObjectsCollection
  3
ObjectDBX Classes
 90
1153
 91
0
280
0
281
0
  0
CLASS
  1
LAYER_INDEX
  2
AcDbLayerIndex
  3
ObjectDBX Classes
 90
0
 91
0
280
0
281
0
  0
CLASS
  1
SPATIAL_INDEX
  2
AcDbSpatialIndex
  3
ObjectDBX Classes
 90
0
 91
0
280
0
281
0
  0
CLASS
  1
IDBUFFER
  2
AcDbIdBuffer
  3
ObjectDBX Classes
 90
32768
 91
0
280
0
281
0
  0
CLASS
  1
ACDBSECTIONVIEWSTYLE
  2
AcDbSectionViewStyle
  3
ObjectDBX Classes
 90
1025
 91
0
280
0
281
0
  0
CLASS
  1
ACDBDETAILVIEWSTYLE
  2
AcDbDetailViewStyle
  3
ObjectDBX Classes
 90
1025
 91
0
280
0
281
0
  0
CLASS
  1
MESH
  2
AcDbSubDMesh
  3
ObjectDBX Classes
 90
0
 91
0
280
0
281
1
  0
CLASS
  1
SORTENTSTABLE
  2
AcDbSortentsTable
  3
ObjectDBX Classes
 90
0
 91
0
280
0
281
0
  0
CLASS
  1
ACDB_TEXTOBJECTCONTEXTDATA_CLASS
  2
AcDbTextObjectContextData
  3
ObjectDBX Classes
 90
1153
 91
0
280
0
281
0
  0
CLASS
  1
WIPEOUT
  2
AcDbWipeout
  3
WipeOut
 90
32895
 91
0
280
0
281
1
  0
CLASS
  1
WIPEOUTVARIABLES
  2
AcDbWipeoutVariables
  3
WipeOut
 90
32768
 91
0
280
0
281
0
  0
CLASS
  1
DIMASSOC
  2
AcDbDimAssoc
  3
AcDbDimAssoc
 90
0
 91
0
280
0
281
0
  0
CLASS
  1
ACAD_TABLE
  2
AcDbTable
  3
ObjectDBX Classes
 90
1025
 91
0
280
0
281
1
  0
CLASS
  1
TABLECONTENT
  2
AcDbTableContent
  3
ObjectDBX Classes
 90
1152
 91
0
280
0
281
0
  0
CLASS
  1
TABLEGEOMETRY
  2
AcDbTableGeometry
  3
ObjectDBX Classes
 90
1152
 91
0
280
0
281
0
  0
CLASS
  1
IMAGE
  2
AcDbRasterImage
  3
ISM
 90
32895
 91
0
280
0
281
1
  0
CLASS
  1
IMAGEDEF
  2
AcDbRasterImageDef
  3
ISM
 90
0
 91
0
280
0
281
0
  0
CLASS
  1
IMAGEDEF_REACTOR
  2
AcDbRasterImageDefReactor
  3
ISM
 90
1
 91
0
280
0
281
0
  0
CLASS
  1
DBCOLOR
  2
AcDbColor
  3
ObjectDBX Classes
 90
0
 91
0
280
0
281
0
  0
CLASS
  1
GEODATA
  2
AcDbGeoData
  3
ObjectDBX Classes
 90
4095
 91
0
280
0
281
0
  0
CLASS
  1
MULTILEADER
  2
AcDbMLeader
  3
ObjectDBX Classes
 90
1025
 91
0
280
0
281
0
  0
CLASS
  1
PDFUNDERLAY
  2
AcDbPdfReference
  3
ObjectDBX Classes
 90
4095
 91
0
280
0
281
1
  0
CLASS
  1
PDFDEFINITION
  2
AcDbPdfDefinition
  3
ObjectDBX Classes
 90
1153
 91
0
280
0
281
0
  0
CLASS
  1
RASTERVARIABLES
  2
AcDbRasterVariables
  3
ISM
 90
0
 91
0
280
0
281
0
  0
CLASS
  1
SPATIAL_FILTER
  2
AcDbSpatialFilter
  3
ObjectDBX Classes
 90
0
 91
0
280
0
281
0
  0
CLASS
  1
ACDB_MLEADEROBJECTCONTEXTDATA_CLASS
  2
AcDbMLeaderObjectContextData
  3
ObjectDBX Classes
 90
1025
 91
0
280
0
281
0
  0
CLASS
  1
PLOTSETTINGS
  2
AcDbPlotSettings
  3
ObjectDBX Classes
 90
0
 91
0
280
0
281
0
  0
CLASS
  1
FIELD
  2
AcDbField
  3
ObjectDBX Classes
 90
1152
 91
0
280
0
281
0
  0
CLASS
  1
FIELDLIST
  2
AcDbFieldList
  3
ObjectDBX Classes
 90
1152
 91
0
280
0
281
0
  0
CLASS
  1
ACDB_MTEXTATTRIBUTEOBJECTCONTEXTDATA_CLASS
  2
AcDbMTextAttributeObjectContextData
  3
ObjectDBX Classes
 90
1153
 91
0
280
0
281
0
  0
CLASS
  1
ACDB_BLKREFOBJECTCONTEXTDATA_CLASS
  2
AcDbBlkRefObjectContextData
  3
ObjectDBX Classes
 90
1153
 91
0
280
0
281
0
  0
ENDSEC
  0
SECTION
  2
TABLES
  0
TABLE
  2
VPORT
  5
18
330
0
100
AcDbSymbolTable
 70
1
  0
VPORT
  5
26
330
18
100
AcDbSymbolTableRecord
100
AcDbViewportTableRecord
  2
*Active
 70
0
 10
0.0
 20
0.0
 11
1.0
 21
1.0
 12
0.0
 22
0.0
 13
0.0
 23
0.0
 14
0.5
 24
0.5
 15
10.0
 25
10.0
 16
0.0
 26
0.0
 36
1.0
 17
0.0
 27
0.0
 37
0.0
 40
10.0
 41
1.0
 75
0
 76
1
  0
ENDTAB
  0
TABLE
  2
LTYPE
  5
14
330
0
100
AcDbSymbolTable
 70
3
  0
LTYPE
  5
19
330
14
100
AcDbSymbolTableRecord
100
AcDbLinetypeTableRecord
  2
ByLayer
 70
0
 72
0
 73
0
 40
0.0
  0
LTYPE
  5
1A
330
14
100
AcDbSymbolTableRecord
100
AcDbLinetypeTableRecord
  2
ByBlock
 70
0
 72
0
 73
0
 40
0.0
  0
LTYPE
  5
1B
330
14
100
AcDbSymbolTableRecord
100
AcDbLinetypeTableRecord
  2
Continuous
 70
0
 72
0
 73
0
 40
0.0
  0
ENDTAB
  0
TABLE
  2
LAYER
  5
13
330
0
100
AcDbSymbolTable
 70
1
  0
LAYER
  5
1C
330
13
100
AcDbSymbolTableRecord
100
AcDbLayerTableRecord
  2
0
 70
0
 62
7
  6
Continuous
290
1
370
-3
390
0
  0
ENDTAB
  0
TABLE
  2
STYLE
  5
15
330
0
100
AcDbSymbolTable
 70
1
  0
STYLE
  5
23
330
15
100
AcDbSymbolTableRecord
100
AcDbTextStyleTableRecord
  2
Standard
 70
0
 40
0.0
 41
1.0
 42
0.0
 50
0.0
 71
0
  0
ENDTAB
  0
TABLE
  2
VIEW
  5
17
330
0
100
AcDbSymbolTable
 70
0
  0
ENDTAB
  0
TABLE
  2
UCS
  5
16
330
0
100
AcDbSymbolTable
 70
0
  0
ENDTAB
  0
TABLE
  2
APPID
  5
10
330
0
100
AcDbSymbolTable
 70
1
  0
APPID
  5
25
330
10
100
AcDbSymbolTableRecord
100
AcDbRegAppTableRecord
  2
ACAD
 70
0
  0
ENDTAB
  0
TABLE
  2
DIMSTYLE
  5
12
330
0
100
AcDbSymbolTable
 70
1
100
AcDbDimStyleTable
  0
DIMSTYLE
105
24
330
12
100
AcDbSymbolTableRecord
100
AcDbDimStyleTableRecord
  2
Standard
 70
0
  3
<>
  4
[]
 40
1.0
 41
0.18
 42
0.625
 43
3.75
 44
1.25
 45
0.0
 46
0.0
 47
0.0
 48
0.0
 49
1.0
 50
45.0
 70
0
 90
0
140
0.18
141
0.09
142
0.0
143
25.3999999999999986
144
1.0
145
0.0
146
1.0
147
0.625
148
0.0
 71
0
 72
0
 73
0
 74
0
 75
0
 76
0
 77
1
 78
8
 79
0
170
0
171
3
172
0
173
1
174
0
175
0
176
0
177
0
178
0
179
0
271
2
272
2
273
2
274
3
275
0
276
0
277
2
278
46
279
0
280
0
281
0
282
0
283
0
284
8
285
0
286
0
287
0
288
0
289
3
290
0
340
0
371
-2
372
-2
  0
ENDTAB
  0
TABLE
  2
BLOCK_RECORD
  5
11
330
0
100
AcDbSymbolTable
 70
2
  0
BLOCK_RECORD
  5
1D
330
11
100
AcDbSymbolTableRecord
100
AcDbBlockTableRecord
  2
*Model_Space
 70
0
340
0
 70
0
280
0
281
1
  0
BLOCK_RECORD
  5
20
330
11
100
AcDbSymbolTableRecord
100
AcDbBlockTableRecord
  2
*Paper_Space
 70
0
340
0
 70
0
280
0
281
1
  0
ENDTAB
  0
ENDSEC
  0
SECTION
  2
BLOCKS
  0
BLOCK
  5
1E
330
1D
100
AcDbEntity
  8
0
  6
ByLayer
 62
256
 48
1.0
 60
0
 67
0
370
-1
100
AcDbBlockBegin
  2
*Model_Space
 70
0
 10
0.0
 20
0.0
 30
0.0
  3
*Model_Space
  0
ENDBLK
  5
1F
330
1D
100
AcDbEntity
  8
0
100
AcDbBlockEnd
  0
BLOCK
  5
21
330
20
100
AcDbEntity
  8
0
  6
ByLayer
 62
256
 48
1.0
 60
0
 67
1
370
-1
100
AcDbBlockBegin
  2
*Paper_Space
 70
0
 10
0.0
 20
0.0
 30
0.0
  3
*Paper_Space
  0
ENDBLK
  5
22
330
20
100
AcDbEntity
  8
0
100
AcDbBlockEnd
  0
ENDSEC
  0
SECTION
  2
ENTITIES
  0
TEXT
  5
27
330
1D
100
AcDbEntity
  8
0
  6
ByLayer
420
1187891
 48
1.0
 60
0
 67
0
370
-1
100
AcDbText
 39
0.0
 10
28.0
 20
738.5
 30
0.0
 40
24.0
  1
Object Fit, Position, and View Box
 50
0.0
 41
1.0
 51
0.0
  7
Standard
 71
0
 72
0
 11
0.0
 21
0.0
 31
0.0
210
0.0
220
0.0
230
1.0
100
AcDbText
 73
0
  0
TEXT
  5
28
330
1D
100
AcDbEntity
  8
0
  6
ByLayer
420
4808824
 48
1.0
 60
0
 67
0
370
-1
100
AcDbText
 39
0.0
 10
28.0
 20
706.5
 30
0.0
 40
16.0
  1
This demo combines all `object-fit` modes with keyword, percentage, and four-value `object-position` placements. The last row
 50
0.0
 41
1.0
 51
0.0
  7
Standard
 71
0
 72
0
 11
0.0
 21
0.0
 31
0.0
210
0.0
220
0.0
230
1.0
100
AcDbText
 73
0
  0
TEXT
  5
29
330
1D
100
AcDbEntity
  8
0
  6
ByLayer
420
4808824
 48
1.0
 60
0
 67
0
370
-1
100
AcDbText
 39
0.0
 10
28.0
 20
681.703125
 30
0.0
 40
16.0
  1
also shows `object-view-box` crops using the three rectangle syntaxes.
 50
0.0
 41
1.0
 51
0.0
  7
Standard
 71
0
 72
0
 11
0.0
 21
0.0
 31
0.0
210
0.0
220
0.0
230
1.0
100
AcDbText
 73
0
  0
HATCH
  5
2A
330
1D
100
AcDbEntity
  8
0
  6
ByLayer
420
16777215
 48
1.0
 60
0
 67
0
370
-1
100
AcDbHatch
 30
0.0
210
0.0
220
0.0
230
1.0
  2
SOLID
 70
1
 71
0
 91
1
 92
2
 72
0
 73
1
 93
41
 10
42.0
 20
652.0
 10
1238.0
 20
652.0
 10
1238.0
 20
652.0
 10
1240.7312645082258769
 20
651.7309939256451798
 10
1243.3575680531112084
 20
650.9343134551579624
 10
1245.777983262274347
 20
649.6405745722356642
 10
1247.8994949366117453
 20
647.8994949366116316
 10
1249.6405745722356642
 20
645.7779832622744607
 10
1250.9343134551579624
 20
643.3575680531112084
 10
1251.7309939256451798
 20
640.7312645082257632
 10
1252.0
 20
638.0
 10
1252.0
 20
625.0
 10
1252.0
 20
625.0
 10
1251.7309939256451798
 20
622.2687354917742368
 10
1250.9343134551579624
 20
619.6424319468887916
 10
1249.6405745722356642
 20
617.2220167377255393
 10
1247.8994949366117453
 20
615.1005050633883684
 10
1245.777983262274347
 20
613.3594254277643358
 10
1243.3575680531112084
 20
612.0656865448420376
 10
1240.7312645082258769
 20
611.2690060743548202
 10
1238.0
 20
611.0
 10
42.0
 20
611.0
 10
42.0
 20
611.0
 10
39.2687354917742084
 20
611.2690060743548202
 10
36.6424319468887418
 20
612.0656865448420376
 10
34.2220167377255748
 20
613.3594254277643358
 10
32.10050506338834
 20
615.1005050633883684
 10
30.3594254277643643
 20
617.2220167377255393
 10
29.0656865448419879
 20
619.6424319468887916
 10
28.269006074354774
 20
622.2687354917742368
 10
28.0
 20
625.0
 10
28.0
 20
638.0
 10
28.0
 20
638.0
 10
28.269006074354774
 20
640.7312645082257632
 10
29.0656865448419843
 20
643.3575680531112084
 10
30.3594254277643643
 20
645.7779832622744607
 10
32.1005050633883329
 20
647.8994949366116316
 10
34.2220167377255677
 20
649.6405745722356642
 10
36.6424319468887347
 20
650.9343134551579624
 10
39.2687354917742013
 20
651.7309939256451798
 10
42.0
 20
652.0
 97
0
 75
0
 76
1
 47
0.0
 98
0
  0
LWPOLYLINE
  5
2B
330
1D
100
AcDbEntity
  8
0
  6
ByLayer
420
1187891
 48
1.0
 60
0
 67
0
370
-1
100
AcDbPolyline
 90
41
 70
1
 43
0.0
 38
0.0
 39
0.0
210
0.0
220
0.0
230
1.0
 10
42.0
 20
652.0
 40
0.0
 41
0.0
 42
0.0
 10
1238.0
 20
652.0
 40
0.0
 41
0.0
 42
0.0
 10
1238.0
 20
652.0
 40
0.0
 41
0.0
 42
0.0
 10
1240.7312645082258769
 20
651.7309939256451798
 40
0.0
 41
0.0
 42
0.0
 10
1243.3575680531112084
 20
650.9343134551579624
 40
0.0
 41
0.0
 42
0.0
 10
1245.777983262274347
 20
649.6405745722356642
 40
0.0
 41
0.0
 42
0.0
 10
1247.8994949366117453
 20
647.8994949366116316
 40
0.0
 41
0.0
 42
0.0
 10
1249.6405745722356642
 20
645.7779832622744607
 40
0.0
 41
0.0
 42
0.0
 10
1250.9343134551579624
 20
643.3575680531112084
 40
0.0
 41
0.0
 42
0.0
 10
1251.7309939256451798
 20
640.7312645082257632
 40
0.0
 41
0.0
 42
0.0
 10
1252.0
 20
638.0
 40
0.0
 41
0.0
 42
0.0
 10
1252.0
 20
625.0
 40
0.0
 41
0.0
 42
0.0
 10
1252.0
 20
625.0
 40
0.0
 41
0.0
 42
0.0
 10
1251.7309939256451798
 20
622.2687354917742368
 40
0.0
 41
0.0
 42
0.0
 10
1250.9343134551579624
 20
619.6424319468887916
 40
0.0
 41
0.0
 42
0.0
 10
1249.6405745722356642
 20
617.2220167377255393
 40
0.0
 41
0.0
 42
0.0
 10
1247.8994949366117453
 20
615.1005050633883684
 40
0.0
 41
0.0
 42
0.0
 10
1245.777983262274347
 20
613.3594254277643358
 40
0.0
 41
0.0
 42
0.0
 10
1243.3575680531112084
 20
612.0656865448420376
 40
0.0
 41
0.0
 42
0.0
 10
1240.7312645082258769
 20
611.2690060743548202
 40
0.0
 41
0.0
 42
0.0
 10
1238.0
 20
611.0
 40
0.0
 41
0.0
 42
0.0
 10
42.0
 20
611.0
 40
0.0
 41
0.0
 42
0.0
 10
42.0
 20
611.0
 40
0.0
 41
0.0
 42
0.0
 10
39.2687354917742084
 20
611.2690060743548202
 40
0.0
 41
0.0
 42
0.0
 10
36.6424319468887418
 20
612.0656865448420376
 40
0.0
 41
0.0
 42
0.0
 10
34.2220167377255748
 20
613.3594254277643358
 40
0.0
 41
0.0
 42
0.0
 10
32.10050506338834
 20
615.1005050633883684
 40
0.0
 41
0.0
 42
0.0
 10
30.3594254277643643
 20
617.2220167377255393
 40
0.0
 41
0.0
 42
0.0
 10
29.0656865448419879
 20
619.6424319468887916
 40
0.0
 41
0.0
 42
0.0
 10
28.269006074354774
 20
622.2687354917742368
 40
0.0
 41
0.0
 42
0.0
 10
28.0
 20
625.0
 40
0.0
 41
0.0
 42
0.0
 10
28.0
 20
638.0
 40
0.0
 41
0.0
 42
0.0
 10
28.0
 20
638.0
 40
0.0
 41
0.0
 42
0.0
 10
28.269006074354774
 20
640.7312645082257632
 40
0.0
 41
0.0
 42
0.0
 10
29.0656865448419843
 20
643.3575680531112084
 40
0.0
 41
0.0
 42
0.0
 10
30.3594254277643643
 20
645.7779832622744607
 40
0.0
 41
0.0
 42
0.0
 10
32.1005050633883329
 20
647.8994949366116316
 40
0.0
 41
0.0
 42
0.0
 10
34.2220167377255677
 20
649.6405745722356642
 40
0.0
 41
0.0
 42
0.0
 10
36.6424319468887347
 20
650.9343134551579624
 40
0.0
 41
0.0
 42
0.0
 10
39.2687354917742013
 20
651.7309939256451798
 40
0.0
 41
0.0
 42
0.0
 10
42.0
 20
652.0
 40
0.0
 41
0.0
 42
0.0
  0
TEXT
  5
2C
330
1D
100
AcDbEntity
  8
0
  6
ByLayer
420
3428459
 48
1.0
 60
0
 67
0
370
-1
100
AcDbText
 39
0.0
 10
43.0
 20
628.65625
 30
0.0
 40
13.0
  1
`object-view-box` is only exposed by Chromium-class browsers today. The demo still loads elsewhere, but those cards will fall back to the uncropped image when the browser does not support the property.
 50
0.0
 41
1.0
 51
0.0
  7
Standard
 71
0
 72
0
 11
0.0
 21
0.0
 31
0.0
210
0.0
220
0.0
230
1.0
100
AcDbText
 73
0
  0
HATCH
  5
2D
330
1D
100
AcDbEntity
  8
0
  6
ByLayer
420
16777215
 48
1.0
 60
0
 67
0
370
-1
100
AcDbHatch
 30
0.0
210
0.0
220
0.0
230
1.0
  2
SOLID
 70
1
 71
0
 91
1
 92
2
 72
0
 73
1
 93
41
 10
48.0
 20
587.0
 10
301.0
 20
587.0
 10
301.0
 20
587.0
 10
304.9018064403225594
 20
586.6157056080646726
 10
308.6536686473017994
 20
585.477590650225693
 10
312.1114046603920542
 20
583.6293922460508838
 10
315.142135623730951
 20
581.142135623730951
 10
317.6293922460508838
 20
578.1114046603920542
 10
319.4775906502257499
 20
574.6536686473018563
 10
320.6157056080646157
 20
570.9018064403226163
 10
321.0
 20
567.0
 10
321.0
 20
336.0
 10
321.0
 20
336.0
 10
320.6157056080646157
 20
332.0981935596774406
 10
319.4775906502257499
 20
328.3463313526982006
 10
317.6293922460508838
 20
324.8885953396079458
 10
315.142135623730951
 20
321.857864376269049
 10
312.1114046603920542
 20
319.3706077539491162
 10
308.6536686473017994
 20
317.5224093497742501
 10
304.9018064403225594
 20
316.3842943919353843
 10
301.0
 20
316.0
 10
48.0
 20
316.0
 10
48.0
 20
316.0
 10
44.0981935596774335
 20
316.3842943919353843
 10
40.3463313526982077
 20
317.5224093497742501
 10
36.88859533960796
 20
319.3706077539491162
 10
33.857864376269049
 20
321.857864376269049
 10
31.3706077539490948
 20
324.8885953396079458
 10
29.5224093497742643
 20
328.3463313526982006
 10
28.3842943919353914
 20
332.0981935596774406
 10
28.0
 20
336.0
 10
28.0
 20
567.0
 10
28.0
 20
567.0
 10
28.3842943919353914
 20
570.9018064403226163
 10
29.5224093497742643
 20
574.6536686473018563
 10
31.3706077539490913
 20
578.1114046603920542
 10
33.857864376269049
 20
581.142135623730951
 10
36.88859533960796
 20
583.6293922460508838
 10
40.3463313526981935
 20
585.477590650225693
 10
44.0981935596774264
 20
586.6157056080646726
 10
47.9999999999999929
 20
587.0
 97
0
 75
0
 76
1
 47
0.0
 98
0
  0
LWPOLYLINE
  5
2E
330
1D
100
AcDbEntity
  8
0
  6
ByLayer
420
1187891
 48
1.0
 60
0
 67
0
370
-1
100
AcDbPolyline
 90
41
 70
1
 43
0.0
 38
0.0
 39
0.0
210
0.0
220
0.0
230
1.0
 10
48.0
 20
587.0
 40
0.0
 41
0.0
 42
0.0
 10
301.0
 20
587.0
 40
0.0
 41
0.0
 42
0.0
 10
301.0
 20
587.0
 40
0.0
 41
0.0
 42
0.0
 10
304.9018064403225594
 20
586.6157056080646726
 40
0.0
 41
0.0
 42
0.0
 10
308.6536686473017994
 20
585.477590650225693
 40
0.0
 41
0.0
 42
0.0
 10
312.1114046603920542
 20
583.6293922460508838
 40
0.0
 41
0.0
 42
0.0
 10
315.142135623730951
 20
581.142135623730951
 40
0.0
 41
0.0
 42
0.0
 10
317.6293922460508838
 20
578.1114046603920542
 40
0.0
 41
0.0
 42
0.0
 10
319.4775906502257499
 20
574.6536686473018563
 40
0.0
 41
0.0
 42
0.0
 10
320.6157056080646157
 20
570.9018064403226163
 40
0.0
 41
0.0
 42
0.0
 10
321.0
 20
567.0
 40
0.0
 41
0.0
 42
0.0
 10
321.0
 20
336.0
 40
0.0
 41
0.0
 42
0.0
 10
321.0
 20
336.0
 40
0.0
 41
0.0
 42
0.0
 10
320.6157056080646157
 20
332.0981935596774406
 40
0.0
 41
0.0
 42
0.0
 10
319.4775906502257499
 20
328.3463313526982006
 40
0.0
 41
0.0
 42
0.0
 10
317.6293922460508838
 20
324.8885953396079458
 40
0.0
 41
0.0
 42
0.0
 10
315.142135623730951
 20
321.857864376269049
 40
0.0
 41
0.0
 42
0.0
 10
312.1114046603920542
 20
319.3706077539491162
 40
0.0
 41
0.0
 42
0.0
 10
308.6536686473017994
 20
317.5224093497742501
 40
0.0
 41
0.0
 42
0.0
 10
304.9018064403225594
 20
316.3842943919353843
 40
0.0
 41
0.0
 42
0.0
 10
301.0
 20
316.0
 40
0.0
 41
0.0
 42
0.0
 10
48.0
 20
316.0
 40
0.0
 41
0.0
 42
0.0
 10
48.0
 20
316.0
 40
0.0
 41
0.0
 42
0.0
 10
44.0981935596774335
 20
316.3842943919353843
 40
0.0
 41
0.0
 42
0.0
 10
40.3463313526982077
 20
317.5224093497742501
 40
0.0
 41
0.0
 42
0.0
 10
36.88859533960796
 20
319.3706077539491162
 40
0.0
 41
0.0
 42
0.0
 10
33.857864376269049
 20
321.857864376269049
 40
0.0
 41
0.0
 42
0.0
 10
31.3706077539490948
 20
324.8885953396079458
 40
0.0
 41
0.0
 42
0.0
 10
29.5224093497742643
 20
328.3463313526982006
 40
0.0
 41
0.0
 42
0.0
 10
28.3842943919353914
 20
332.0981935596774406
 40
0.0
 41
0.0
 42
0.0
 10
28.0
 20
336.0
 40
0.0
 41
0.0
 42
0.0
 10
28.0
 20
567.0
 40
0.0
 41
0.0
 42
0.0
 10
28.0
 20
567.0
 40
0.0
 41
0.0
 42
0.0
 10
28.3842943919353914
 20
570.9018064403226163
 40
0.0
 41
0.0
 42
0.0
 10
29.5224093497742643
 20
574.6536686473018563
 40
0.0
 41
0.0
 42
0.0
 10
31.3706077539490913
 20
578.1114046603920542
 40
0.0
 41
0.0
 42
0.0
 10
33.857864376269049
 20
581.142135623730951
 40
0.0
 41
0.0
 42
0.0
 10
36.88859533960796
 20
583.6293922460508838
 40
0.0
 41
0.0
 42
0.0
 10
40.3463313526981935
 20
585.477590650225693
 40
0.0
 41
0.0
 42
0.0
 10
44.0981935596774264
 20
586.6157056080646726
 40
0.0
 41
0.0
 42
0.0
 10
47.9999999999999929
 20
587.0
 40
0.0
 41
0.0
 42
0.0
  0
HATCH
  5
2F
330
1D
100
AcDbEntity
  8
0
  6
ByLayer
420
947344
 48
1.0
 60
0
 67
0
370
-1
100
AcDbHatch
 30
0.0
210
0.0
220
0.0
230
1.0
  2
SOLID
 70
1
 71
0
 91
1
 92
2
 72
0
 73
1
 93
41
 10
61.0
 20
570.0
 10
288.0
 20
570.0
 10
288.0
 20
570.0
 10
291.1214451522580475
 20
569.6925644864517153
 10
294.1229349178414623
 20
568.7820725201805772
 10
296.8891237283136206
 20
567.3035137968406616
 10
299.3137084989847381
 20
565.3137084989847381
 10
301.3035137968407184
 20
562.8891237283136206
 10
302.7820725201805772
 20
560.1229349178414623
 10
303.6925644864517153
 20
557.1214451522580475
 10
304.0
 20
554.0
 10
304.0
 20
416.0
 10
304.0
 20
416.0
 10
303.6925644864517153
 20
412.8785548477419525
 10
302.7820725201805772
 20
409.8770650821585377
 10
301.3035137968407184
 20
407.1108762716863794
 10
299.3137084989847381
 20
404.6862915010152619
 10
296.8891237283136206
 20
402.6964862031592816
 10
294.1229349178414623
 20
401.2179274798194228
 10
291.1214451522580475
 20
400.3074355135482847
 10
288.0
 20
400.0
 10
61.0
 20
400.0
 10
61.0
 20
400.0
 10
57.8785548477419525
 20
400.3074355135482847
 10
54.8770650821585662
 20
401.2179274798194228
 10
52.1108762716863652
 20
402.6964862031592816
 10
49.6862915010152406
 20
404.6862915010152619
 10
47.6964862031592745
 20
407.1108762716863794
 10
46.2179274798194086
 20
409.8770650821585377
 10
45.3074355135483131
 20
412.8785548477419525
 10
45.0
 20
416.0
 10
45.0
 20
554.0
 10
45.0
 20
554.0
 10
45.3074355135483131
 20
557.1214451522580475
 10
46.2179274798194086
 20
560.1229349178414623
 10
47.6964862031592745
 20
562.8891237283136206
 10
49.6862915010152335
 20
565.3137084989847381
 10
52.1108762716863652
 20
567.3035137968406616
 10
54.8770650821585519
 20
568.7820725201805772
 10
57.8785548477419383
 20
569.6925644864517153
 10
61.0
 20
570.0
 97
0
 75
0
 76
1
 47
0.0
 98
0
  0
LWPOLYLINE
  5
30
330
1D
100
AcDbEntity
  8
0
  6
ByLayer
420
1187891
 48
1.0
 60
0
 67
0
370
-1
100
AcDbPolyline
 90
41
 70
1
 43
0.0
 38
0.0
 39
0.0
210
0.0
220
0.0
230
1.0
 10
61.0
 20
570.0
 40
0.0
 41
0.0
 42
0.0
 10
288.0
 20
570.0
 40
0.0
 41
0.0
 42
0.0
 10
288.0
 20
570.0
 40
0.0
 41
0.0
 42
0.0
 10
291.1214451522580475
 20
569.6925644864517153
 40
0.0
 41
0.0
 42
0.0
 10
294.1229349178414623
 20
568.7820725201805772
 40
0.0
 41
0.0
 42
0.0
 10
296.8891237283136206
 20
567.3035137968406616
 40
0.0
 41
0.0
 42
0.0
 10
299.3137084989847381
 20
565.3137084989847381
 40
0.0
 41
0.0
 42
0.0
 10
301.3035137968407184
 20
562.8891237283136206
 40
0.0
 41
0.0
 42
0.0
 10
302.7820725201805772
 20
560.1229349178414623
 40
0.0
 41
0.0
 42
0.0
 10
303.6925644864517153
 20
557.1214451522580475
 40
0.0
 41
0.0
 42
0.0
 10
304.0
 20
554.0
 40
0.0
 41
0.0
 42
0.0
 10
304.0
 20
416.0
 40
0.0
 41
0.0
 42
0.0
 10
304.0
 20
416.0
 40
0.0
 41
0.0
 42
0.0
 10
303.6925644864517153
 20
412.8785548477419525
 40
0.0
 41
0.0
 42
0.0
 10
302.7820725201805772
 20
409.8770650821585377
 40
0.0
 41
0.0
 42
0.0
 10
301.3035137968407184
 20
407.1108762716863794
 40
0.0
 41
0.0
 42
0.0
 10
299.3137084989847381
 20
404.6862915010152619
 40
0.0
 41
0.0
 42
0.0
 10
296.8891237283136206
 20
402.6964862031592816
 40
0.0
 41
0.0
 42
0.0
 10
294.1229349178414623
 20
401.2179274798194228
 40
0.0
 41
0.0
 42
0.0
 10
291.1214451522580475
 20
400.3074355135482847
 40
0.0
 41
0.0
 42
0.0
 10
288.0
 20
400.0
 40
0.0
 41
0.0
 42
0.0
 10
61.0
 20
400.0
 40
0.0
 41
0.0
 42
0.0
 10
61.0
 20
400.0
 40
0.0
 41
0.0
 42
0.0
 10
57.8785548477419525
 20
400.3074355135482847
 40
0.0
 41
0.0
 42
0.0
 10
54.8770650821585662
 20
401.2179274798194228
 40
0.0
 41
0.0
 42
0.0
 10
52.1108762716863652
 20
402.6964862031592816
 40
0.0
 41
0.0
 42
0.0
 10
49.6862915010152406
 20
404.6862915010152619
 40
0.0
 41
0.0
 42
0.0
 10
47.6964862031592745
 20
407.1108762716863794
 40
0.0
 41
0.0
 42
0.0
 10
46.2179274798194086
 20
409.8770650821585377
 40
0.0
 41
0.0
 42
0.0
 10
45.3074355135483131
 20
412.8785548477419525
 40
0.0
 41
0.0
 42
0.0
 10
45.0
 20
416.0
 40
0.0
 41
0.0
 42
0.0
 10
45.0
 20
554.0
 40
0.0
 41
0.0
 42
0.0
 10
45.0
 20
554.0
 40
0.0
 41
0.0
 42
0.0
 10
45.3074355135483131
 20
557.1214451522580475
 40
0.0
 41
0.0
 42
0.0
 10
46.2179274798194086
 20
560.1229349178414623
 40
0.0
 41
0.0
 42
0.0
 10
47.6964862031592745
 20
562.8891237283136206
 40
0.0
 41
0.0
 42
0.0
 10
49.6862915010152335
 20
565.3137084989847381
 40
0.0
 41
0.0
 42
0.0
 10
52.1108762716863652
 20
567.3035137968406616
 40
0.0
 41
0.0
 42
0.0
 10
54.8770650821585519
 20
568.7820725201805772
 40
0.0
 41
0.0
 42
0.0
 10
57.8785548477419383
 20
569.6925644864517153
 40
0.0
 41
0.0
 42
0.0
 10
61.0
 20
570.0
 40
0.0
 41
0.0
 42
0.0
  0
TEXT
  5
31
330
1D
100
AcDbEntity
  8
0
  6
ByLayer
420
1187891
 48
1.0
 60
0
 67
0
370
-1
100
AcDbText
 39
0.0
 10
45.0
 20
376.90625
 30
0.0
 40
14.0
  1
Fill
 50
0.0
 41
1.0
 51
0.0
  7
Standard
 71
0
 72
0
 11
0.0
 21
0.0
 31
0.0
210
0.0
220
0.0
230
1.0
100
AcDbText
 73
0
  0
TEXT
  5
32
330
1D
100
AcDbEntity
  8
0
  6
ByLayer
420
998754
 48
1.0
 60
0
 67
0
370
-1
100
AcDbText
 39
0.0
 10
45.0
 20
357.40625
 30
0.0
 40
12.0
  1
object-fit: fill
 50
0.0
 41
1.0
 51
0.0
  7
Standard
 71
0
 72
0
 11
0.0
 21
0.0
 31
0.0
210
0.0
220
0.0
230
1.0
100
AcDbText
 73
0
  0
TEXT
  5
33
330
1D
100
AcDbEntity
  8
0
  6
ByLayer
420
6388113
 48
1.0
 60
0
 67
0
370
-1
100
AcDbText
 39
0.0
 10
45.0
 20
340.015625
 30
0.0
 40
12.0
  1
Stretches the source to the frame.
 50
0.0
 41
1.0
 51
0.0
  7
Standard
 71
0
 72
0
 11
0.0
 21
0.0
 31
0.0
210
0.0
220
0.0
230
1.0
100
AcDbText
 73
0
  0
HATCH
  5
34
330
1D
100
AcDbEntity
  8
0
  6
ByLayer
420
16777215
 48
1.0
 60
0
 67
0
370
-1
100
AcDbHatch
 30
0.0
210
0.0
220
0.0
230
1.0
  2
SOLID
 70
1
 71
0
 91
1
 92
2
 72
0
 73
1
 93
41
 10
359.0
 20
587.0
 10
612.0
 20
587.0
 10
612.0
 20
587.0
 10
615.9018064403226163
 20
586.6157056080646726
 10
619.6536686473017426
 20
585.477590650225693
 10
623.1114046603920542
 20
583.6293922460508838
 10
626.142135623730951
 20
581.142135623730951
 10
628.6293922460508838
 20
578.1114046603920542
 10
630.477590650225693
 20
574.6536686473018563
 10
631.6157056080645589
 20
570.9018064403226163
 10
632.0
 20
567.0
 10
632.0
 20
336.0
 10
632.0
 20
336.0
 10
631.6157056080645589
 20
332.0981935596774406
 10
630.477590650225693
 20
328.3463313526982006
 10
628.6293922460508838
 20
324.8885953396079458
 10
626.142135623730951
 20
321.857864376269049
 10
623.1114046603920542
 20
319.3706077539491162
 10
619.6536686473017426
 20
317.5224093497742501
 10
615.9018064403226163
 20
316.3842943919353843
 10
612.0
 20
316.0
 10
359.0
 20
316.0
 10
359.0
 20
316.0
 10
355.0981935596774406
 20
316.3842943919353843
 10
351.3463313526982006
 20
317.5224093497742501
 10
347.8885953396079458
 20
319.3706077539491162
 10
344.857864376269049
 20
321.857864376269049
 10
342.3706077539491162
 20
324.8885953396079458
 10
340.5224093497742501
 20
328.3463313526982006
 10
339.3842943919353843
 20
332.0981935596774406
 10
339.0
 20
336.0
 10
339.0
 20
567.0
 10
339.0
 20
567.0
 10
339.3842943919353843
 20
570.9018064403226163
 10
340.5224093497742501
 20
574.6536686473018563
 10
342.3706077539491162
 20
578.1114046603920542
 10
344.857864376269049
 20
581.142135623730951
 10
347.8885953396079458
 20
583.6293922460508838
 10
351.3463313526982006
 20
585.477590650225693
 10
355.0981935596774406
 20
586.6157056080646726
 10
359.0
 20
587.0
 97
0
 75
0
 76
1
 47
0.0
 98
0
  0
LWPOLYLINE
  5
35
330
1D
100
AcDbEntity
  8
0
  6
ByLayer
420
1187891
 48
1.0
 60
0
 67
0
370
-1
100
AcDbPolyline
 90
41
 70
1
 43
0.0
 38
0.0
 39
0.0
210
0.0
220
0.0
230
1.0
 10
359.0
 20
587.0
 40
0.0
 41
0.0
 42
0.0
 10
612.0
 20
587.0
 40
0.0
 41
0.0
 42
0.0
 10
612.0
 20
587.0
 40
0.0
 41
0.0
 42
0.0
 10
615.9018064403226163
 20
586.6157056080646726
 40
0.0
 41
0.0
 42
0.0
 10
619.6536686473017426
 20
585.477590650225693
 40
0.0
 41
0.0
 42
0.0
 10
623.1114046603920542
 20
583.6293922460508838
 40
0.0
 41
0.0
 42
0.0
 10
626.142135623730951
 20
581.142135623730951
 40
0.0
 41
0.0
 42
0.0
 10
628.6293922460508838
 20
578.1114046603920542
 40
0.0
 41
0.0
 42
0.0
 10
630.477590650225693
 20
574.6536686473018563
 40
0.0
 41
0.0
 42
0.0
 10
631.6157056080645589
 20
570.9018064403226163
 40
0.0
 41
0.0
 42
0.0
 10
632.0
 20
567.0
 40
0.0
 41
0.0
 42
0.0
 10
632.0
 20
336.0
 40
0.0
 41
0.0
 42
0.0
 10
632.0
 20
336.0
 40
0.0
 41
0.0
 42
0.0
 10
631.6157056080645589
 20
332.0981935596774406
 40
0.0
 41
0.0
 42
0.0
 10
630.477590650225693
 20
328.3463313526982006
 40
0.0
 41
0.0
 42
0.0
 10
628.6293922460508838
 20
324.8885953396079458
 40
0.0
 41
0.0
 42
0.0
 10
626.142135623730951
 20
321.857864376269049
 40
0.0
 41
0.0
 42
0.0
 10
623.1114046603920542
 20
319.3706077539491162
 40
0.0
 41
0.0
 42
0.0
 10
619.6536686473017426
 20
317.5224093497742501
 40
0.0
 41
0.0
 42
0.0
 10
615.9018064403226163
 20
316.3842943919353843
 40
0.0
 41
0.0
 42
0.0
 10
612.0
 20
316.0
 40
0.0
 41
0.0
 42
0.0
 10
359.0
 20
316.0
 40
0.0
 41
0.0
 42
0.0
 10
359.0
 20
316.0
 40
0.0
 41
0.0
 42
0.0
 10
355.0981935596774406
 20
316.3842943919353843
 40
0.0
 41
0.0
 42
0.0
 10
351.3463313526982006
 20
317.5224093497742501
 40
0.0
 41
0.0
 42
0.0
 10
347.8885953396079458
 20
319.3706077539491162
 40
0.0
 41
0.0
 42
0.0
 10
344.857864376269049
 20
321.857864376269049
 40
0.0
 41
0.0
 42
0.0
 10
342.3706077539491162
 20
324.8885953396079458
 40
0.0
 41
0.0
 42
0.0
 10
340.5224093497742501
 20
328.3463313526982006
 40
0.0
 41
0.0
 42
0.0
 10
339.3842943919353843
 20
332.0981935596774406
 40
0.0
 41
0.0
 42
0.0
 10
339.0
 20
336.0
 40
0.0
 41
0.0
 42
0.0
 10
339.0
 20
567.0
 40
0.0
 41
0.0
 42
0.0
 10
339.0
 20
567.0
 40
0.0
 41
0.0
 42
0.0
 10
339.3842943919353843
 20
570.9018064403226163
 40
0.0
 41
0.0
 42
0.0
 10
340.5224093497742501
 20
574.6536686473018563
 40
0.0
 41
0.0
 42
0.0
 10
342.3706077539491162
 20
578.1114046603920542
 40
0.0
 41
0.0
 42
0.0
 10
344.857864376269049
 20
581.142135623730951
 40
0.0
 41
0.0
 42
0.0
 10
347.8885953396079458
 20
583.6293922460508838
 40
0.0
 41
0.0
 42
0.0
 10
351.3463313526982006
 20
585.477590650225693
 40
0.0
 41
0.0
 42
0.0
 10
355.0981935596774406
 20
586.6157056080646726
 40
0.0
 41
0.0
 42
0.0
 10
359.0
 20
587.0
 40
0.0
 41
0.0
 42
0.0
  0
HATCH
  5
36
330
1D
100
AcDbEntity
  8
0
  6
ByLayer
420
947344
 48
1.0
 60
0
 67
0
370
-1
100
AcDbHatch
 30
0.0
210
0.0
220
0.0
230
1.0
  2
SOLID
 70
1
 71
0
 91
1
 92
2
 72
0
 73
1
 93
41
 10
372.0
 20
570.0
 10
599.0
 20
570.0
 10
599.0
 20
570.0
 10
602.1214451522580475
 20
569.6925644864517153
 10
605.1229349178414623
 20
568.7820725201805772
 10
607.8891237283136206
 20
567.3035137968406616
 10
610.3137084989847381
 20
565.3137084989847381
 10
612.3035137968407753
 20
562.8891237283136206
 10
613.7820725201805772
 20
560.1229349178414623
 10
614.6925644864517153
 20
557.1214451522580475
 10
615.0
 20
554.0
 10
615.0
 20
416.0
 10
615.0
 20
416.0
 10
614.6925644864517153
 20
412.8785548477419525
 10
613.7820725201805772
 20
409.8770650821585377
 10
612.3035137968407753
 20
407.1108762716863794
 10
610.3137084989847381
 20
404.6862915010152619
 10
607.8891237283136206
 20
402.6964862031592816
 10
605.1229349178414623
 20
401.2179274798194228
 10
602.1214451522580475
 20
400.3074355135482847
 10
599.0
 20
400.0
 10
372.0
 20
400.0
 10
372.0
 20
400.0
 10
368.8785548477419525
 20
400.3074355135482847
 10
365.8770650821585377
 20
401.2179274798194228
 10
363.1108762716863794
 20
402.6964862031592816
 10
360.6862915010152619
 20
404.6862915010152619
 10
358.6964862031592816
 20
407.1108762716863794
 10
357.2179274798194228
 20
409.8770650821585377
 10
356.3074355135482847
 20
412.8785548477419525
 10
356.0
 20
416.0
 10
356.0
 20
554.0
 10
356.0
 20
554.0
 10
356.3074355135482847
 20
557.1214451522580475
 10
357.2179274798194228
 20
560.1229349178414623
 10
358.6964862031592816
 20
562.8891237283136206
 10
360.6862915010152619
 20
565.3137084989847381
 10
363.1108762716863794
 20
567.3035137968406616
 10
365.8770650821585377
 20
568.7820725201805772
 10
368.8785548477419525
 20
569.6925644864517153
 10
372.0
 20
570.0
 97
0
 75
0
 76
1
 47
0.0
 98
0
  0
LWPOLYLINE
  5
37
330
1D
100
AcDbEntity
  8
0
  6
ByLayer
420
1187891
 48
1.0
 60
0
 67
0
370
-1
100
AcDbPolyline
 90
41
 70
1
 43
0.0
 38
0.0
 39
0.0
210
0.0
220
0.0
230
1.0
 10
372.0
 20
570.0
 40
0.0
 41
0.0
 42
0.0
 10
599.0
 20
570.0
 40
0.0
 41
0.0
 42
0.0
 10
599.0
 20
570.0
 40
0.0
 41
0.0
 42
0.0
 10
602.1214451522580475
 20
569.6925644864517153
 40
0.0
 41
0.0
 42
0.0
 10
605.1229349178414623
 20
568.7820725201805772
 40
0.0
 41
0.0
 42
0.0
 10
607.8891237283136206
 20
567.3035137968406616
 40
0.0
 41
0.0
 42
0.0
 10
610.3137084989847381
 20
565.3137084989847381
 40
0.0
 41
0.0
 42
0.0
 10
612.3035137968407753
 20
562.8891237283136206
 40
0.0
 41
0.0
 42
0.0
 10
613.7820725201805772
 20
560.1229349178414623
 40
0.0
 41
0.0
 42
0.0
 10
614.6925644864517153
 20
557.1214451522580475
 40
0.0
 41
0.0
 42
0.0
 10
615.0
 20
554.0
 40
0.0
 41
0.0
 42
0.0
 10
615.0
 20
416.0
 40
0.0
 41
0.0
 42
0.0
 10
615.0
 20
416.0
 40
0.0
 41
0.0
 42
0.0
 10
614.6925644864517153
 20
412.8785548477419525
 40
0.0
 41
0.0
 42
0.0
 10
613.7820725201805772
 20
409.8770650821585377
 40
0.0
 41
0.0
 42
0.0
 10
612.3035137968407753
 20
407.1108762716863794
 40
0.0
 41
0.0
 42
0.0
 10
610.3137084989847381
 20
404.6862915010152619
 40
0.0
 41
0.0
 42
0.0
 10
607.8891237283136206
 20
402.6964862031592816
 40
0.0
 41
0.0
 42
0.0
 10
605.1229349178414623
 20
401.2179274798194228
 40
0.0
 41
0.0
 42
0.0
 10
602.1214451522580475
 20
400.3074355135482847
 40
0.0
 41
0.0
 42
0.0
 10
599.0
 20
400.0
 40
0.0
 41
0.0
 42
0.0
 10
372.0
 20
400.0
 40
0.0
 41
0.0
 42
0.0
 10
372.0
 20
400.0
 40
0.0
 41
0.0
 42
0.0
 10
368.8785548477419525
 20
400.3074355135482847
 40
0.0
 41
0.0
 42
0.0
 10
365.8770650821585377
 20
401.2179274798194228
 40
0.0
 41
0.0
 42
0.0
 10
363.1108762716863794
 20
402.6964862031592816
 40
0.0
 41
0.0
 42
0.0
 10
360.6862915010152619
 20
404.6862915010152619
 40
0.0
 41
0.0
 42
0.0
 10
358.6964862031592816
 20
407.1108762716863794
 40
0.0
 41
0.0
 42
0.0
 10
357.2179274798194228
 20
409.8770650821585377
 40
0.0
 41
0.0
 42
0.0
 10
356.3074355135482847
 20
412.8785548477419525
 40
0.0
 41
0.0
 42
0.0
 10
356.0
 20
416.0
 40
0.0
 41
0.0
 42
0.0
 10
356.0
 20
554.0
 40
0.0
 41
0.0
 42
0.0
 10
356.0
 20
554.0
 40
0.0
 41
0.0
 42
0.0
 10
356.3074355135482847
 20
557.1214451522580475
 40
0.0
 41
0.0
 42
0.0
 10
357.2179274798194228
 20
560.1229349178414623
 40
0.0
 41
0.0
 42
0.0
 10
358.6964862031592816
 20
562.8891237283136206
 40
0.0
 41
0.0
 42
0.0
 10
360.6862915010152619
 20
565.3137084989847381
 40
0.0
 41
0.0
 42
0.0
 10
363.1108762716863794
 20
567.3035137968406616
 40
0.0
 41
0.0
 42
0.0
 10
365.8770650821585377
 20
568.7820725201805772
 40
0.0
 41
0.0
 42
0.0
 10
368.8785548477419525
 20
569.6925644864517153
 40
0.0
 41
0.0
 42
0.0
 10
372.0
 20
570.0
 40
0.0
 41
0.0
 42
0.0
  0
TEXT
  5
38
330
1D
100
AcDbEntity
  8
0
  6
ByLayer
420
1187891
 48
1.0
 60
0
 67
0
370
-1
100
AcDbText
 39
0.0
 10
355.5
 20
376.90625
 30
0.0
 40
14.0
  1
None + Four-Value Offset
 50
0.0
 41
1.0
 51
0.0
  7
Standard
 71
0
 72
0
 11
0.0
 21
0.0
 31
0.0
210
0.0
220
0.0
230
1.0
100
AcDbText
 73
0
  0
TEXT
  5
39
330
1D
100
AcDbEntity
  8
0
  6
ByLayer
420
998754
 48
1.0
 60
0
 67
0
370
-1
100
AcDbText
 39
0.0
 10
355.5
 20
357.40625
 30
0.0
 40
12.0
  1
object-fit: none
 50
0.0
 41
1.0
 51
0.0
  7
Standard
 71
0
 72
0
 11
0.0
 21
0.0
 31
0.0
210
0.0
220
0.0
230
1.0
100
AcDbText
 73
0
  0
TEXT
  5
3A
330
1D
100
AcDbEntity
  8
0
  6
ByLayer
420
998754
 48
1.0
 60
0
 67
0
370
-1
100
AcDbText
 39
0.0
 10
355.5
 20
340.015625
 30
0.0
 40
12.0
  1
object-position: right 18px bottom 12px
 50
0.0
 41
1.0
 51
0.0
  7
Standard
 71
0
 72
0
 11
0.0
 21
0.0
 31
0.0
210
0.0
220
0.0
230
1.0
100
AcDbText
 73
0
  0
HATCH
  5
3B
330
1D
100
AcDbEntity
  8
0
  6
ByLayer
420
16777215
 48
1.0
 60
0
 67
0
370
-1
100
AcDbHatch
 30
0.0
210
0.0
220
0.0
230
1.0
  2
SOLID
 70
1
 71
0
 91
1
 92
2
 72
0
 73
1
 93
41
 10
669.0
 20
587.0
 10
922.0
 20
587.0
 10
922.0
 20
587.0
 10
925.9018064403226163
 20
586.6157056080646726
 10
929.6536686473017426
 20
585.477590650225693
 10
933.1114046603920542
 20
583.6293922460508838
 10
936.142135623730951
 20
581.142135623730951
 10
938.6293922460508838
 20
578.1114046603920542
 10
940.477590650225693
 20
574.6536686473018563
 10
941.6157056080645589
 20
570.9018064403226163
 10
942.0
 20
567.0
 10
942.0
 20
336.0
 10
942.0
 20
336.0
 10
941.6157056080645589
 20
332.0981935596774406
 10
940.477590650225693
 20
328.3463313526982006
 10
938.6293922460508838
 20
324.8885953396079458
 10
936.142135623730951
 20
321.857864376269049
 10
933.1114046603920542
 20
319.3706077539491162
 10
929.6536686473017426
 20
317.5224093497742501
 10
925.9018064403226163
 20
316.3842943919353843
 10
922.0
 20
316.0
 10
669.0
 20
316.0
 10
669.0
 20
316.0
 10
665.0981935596773837
 20
316.3842943919353843
 10
661.3463313526982574
 20
317.5224093497742501
 10
657.8885953396079458
 20
319.3706077539491162
 10
654.857864376269049
 20
321.857864376269049
 10
652.3706077539491162
 20
324.8885953396079458
 10
650.522409349774307
 20
328.3463313526982006
 10
649.3842943919354411
 20
332.0981935596774406
 10
649.0
 20
336.0
 10
649.0
 20
567.0
 10
649.0
 20
567.0
 10
649.3842943919354411
 20
570.9018064403226163
 10
650.522409349774307
 20
574.6536686473018563
 10
652.3706077539491162
 20
578.1114046603920542
 10
654.857864376269049
 20
581.142135623730951
 10
657.8885953396079458
 20
583.6293922460508838
 10
661.3463313526981437
 20
585.477590650225693
 10
665.0981935596773837
 20
586.6157056080646726
 10
669.0
 20
587.0
 97
0
 75
0
 76
1
 47
0.0
 98
0
  0
LWPOLYLINE
  5
3C
330
1D
100
AcDbEntity
  8
0
  6
ByLayer
420
1187891
 48
1.0
 60
0
 67
0
370
-1
100
AcDbPolyline
 90
41
 70
1
 43
0.0
 38
0.0
 39
0.0
210
0.0
220
0.0
230
1.0
 10
669.0
 20
587.0
 40
0.0
 41
0.0
 42
0.0
 10
922.0
 20
587.0
 40
0.0
 41
0.0
 42
0.0
 10
922.0
 20
587.0
 40
0.0
 41
0.0
 42
0.0
 10
925.9018064403226163
 20
586.6157056080646726
 40
0.0
 41
0.0
 42
0.0
 10
929.6536686473017426
 20
585.477590650225693
 40
0.0
 41
0.0
 42
0.0
 10
933.1114046603920542
 20
583.6293922460508838
 40
0.0
 41
0.0
 42
0.0
 10
936.142135623730951
 20
581.142135623730951
 40
0.0
 41
0.0
 42
0.0
 10
938.6293922460508838
 20
578.1114046603920542
 40
0.0
 41
0.0
 42
0.0
 10
940.477590650225693
 20
574.6536686473018563
 40
0.0
 41
0.0
 42
0.0
 10
941.6157056080645589
 20
570.9018064403226163
 40
0.0
 41
0.0
 42
0.0
 10
942.0
 20
567.0
 40
0.0
 41
0.0
 42
0.0
 10
942.0
 20
336.0
 40
0.0
 41
0.0
 42
0.0
 10
942.0
 20
336.0
 40
0.0
 41
0.0
 42
0.0
 10
941.6157056080645589
 20
332.0981935596774406
 40
0.0
 41
0.0
 42
0.0
 10
940.477590650225693
 20
328.3463313526982006
 40
0.0
 41
0.0
 42
0.0
 10
938.6293922460508838
 20
324.8885953396079458
 40
0.0
 41
0.0
 42
0.0
 10
936.142135623730951
 20
321.857864376269049
 40
0.0
 41
0.0
 42
0.0
 10
933.1114046603920542
 20
319.3706077539491162
 40
0.0
 41
0.0
 42
0.0
 10
929.6536686473017426
 20
317.5224093497742501
 40
0.0
 41
0.0
 42
0.0
 10
925.9018064403226163
 20
316.3842943919353843
 40
0.0
 41
0.0
 42
0.0
 10
922.0
 20
316.0
 40
0.0
 41
0.0
 42
0.0
 10
669.0
 20
316.0
 40
0.0
 41
0.0
 42
0.0
 10
669.0
 20
316.0
 40
0.0
 41
0.0
 42
0.0
 10
665.0981935596773837
 20
316.3842943919353843
 40
0.0
 41
0.0
 42
0.0
 10
661.3463313526982574
 20
317.5224093497742501
 40
0.0
 41
0.0
 42
0.0
 10
657.8885953396079458
 20
319.3706077539491162
 40
0.0
 41
0.0
 42
0.0
 10
654.857864376269049
 20
321.857864376269049
 40
0.0
 41
0.0
 42
0.0
 10
652.3706077539491162
 20
324.8885953396079458
 40
0.0
 41
0.0
 42
0.0
 10
650.522409349774307
 20
328.3463313526982006
 40
0.0
 41
0.0
 42
0.0
 10
649.3842943919354411
 20
332.0981935596774406
 40
0.0
 41
0.0
 42
0.0
 10
649.0
 20
336.0
 40
0.0
 41
0.0
 42
0.0
 10
649.0
 20
567.0
 40
0.0
 41
0.0
 42
0.0
 10
649.0
 20
567.0
 40
0.0
 41
0.0
 42
0.0
 10
649.3842943919354411
 20
570.9018064403226163
 40
0.0
 41
0.0
 42
0.0
 10
650.522409349774307
 20
574.6536686473018563
 40
0.0
 41
0.0
 42
0.0
 10
652.3706077539491162
 20
578.1114046603920542
 40
0.0
 41
0.0
 42
0.0
 10
654.857864376269049
 20
581.142135623730951
 40
0.0
 41
0.0
 42
0.0
 10
657.8885953396079458
 20
583.6293922460508838
 40
0.0
 41
0.0
 42
0.0
 10
661.3463313526981437
 20
585.477590650225693
 40
0.0
 41
0.0
 42
0.0
 10
665.0981935596773837
 20
586.6157056080646726
 40
0.0
 41
0.0
 42
0.0
 10
669.0
 20
587.0
 40
0.0
 41
0.0
 42
0.0
  0
HATCH
  5
3D
330
1D
100
AcDbEntity
  8
0
  6
ByLayer
420
947344
 48
1.0
 60
0
 67
0
370
-1
100
AcDbHatch
 30
0.0
210
0.0
220
0.0
230
1.0
  2
SOLID
 70
1
 71
0
 91
1
 92
2
 72
0
 73
1
 93
41
 10
682.0
 20
570.0
 10
909.0
 20
570.0
 10
909.0
 20
570.0
 10
912.1214451522580475
 20
569.6925644864517153
 10
915.1229349178414623
 20
568.7820725201805772
 10
917.8891237283136206
 20
567.3035137968406616
 10
920.3137084989847381
 20
565.3137084989847381
 10
922.3035137968407753
 20
562.8891237283136206
 10
923.7820725201805772
 20
560.1229349178414623
 10
924.6925644864517153
 20
557.1214451522580475
 10
925.0
 20
554.0
 10
925.0
 20
416.0
 10
925.0
 20
416.0
 10
924.6925644864517153
 20
412.8785548477419525
 10
923.7820725201805772
 20
409.8770650821585377
 10
922.3035137968407753
 20
407.1108762716863794
 10
920.3137084989847381
 20
404.6862915010152619
 10
917.8891237283136206
 20
402.6964862031592816
 10
915.1229349178414623
 20
401.2179274798194228
 10
912.1214451522580475
 20
400.3074355135482847
 10
909.0
 20
400.0
 10
682.0
 20
400.0
 10
682.0
 20
400.0
 10
678.8785548477419525
 20
400.3074355135482847
 10
675.8770650821585377
 20
401.2179274798194228
 10
673.1108762716863794
 20
402.6964862031592816
 10
670.6862915010152619
 20
404.6862915010152619
 10
668.6964862031592247
 20
407.1108762716863794
 10
667.2179274798194228
 20
409.8770650821585377
 10
666.3074355135482847
 20
412.8785548477419525
 10
666.0
 20
416.0
 10
666.0
 20
554.0
 10
666.0
 20
554.0
 10
666.3074355135482847
 20
557.1214451522580475
 10
667.2179274798194228
 20
560.1229349178414623
 10
668.6964862031592247
 20
562.8891237283136206
 10
670.6862915010152619
 20
565.3137084989847381
 10
673.1108762716863794
 20
567.3035137968406616
 10
675.8770650821585377
 20
568.7820725201805772
 10
678.8785548477419525
 20
569.6925644864517153
 10
682.0
 20
570.0
 97
0
 75
0
 76
1
 47
0.0
 98
0
  0
LWPOLYLINE
  5
3E
330
1D
100
AcDbEntity
  8
0
  6
ByLayer
420
1187891
 48
1.0
 60
0
 67
0
370
-1
100
AcDbPolyline
 90
41
 70
1
 43
0.0
 38
0.0
 39
0.0
210
0.0
220
0.0
230
1.0
 10
682.0
 20
570.0
 40
0.0
 41
0.0
 42
0.0
 10
909.0
 20
570.0
 40
0.0
 41
0.0
 42
0.0
 10
909.0
 20
570.0
 40
0.0
 41
0.0
 42
0.0
 10
912.1214451522580475
 20
569.6925644864517153
 40
0.0
 41
0.0
 42
0.0
 10
915.1229349178414623
 20
568.7820725201805772
 40
0.0
 41
0.0
 42
0.0
 10
917.8891237283136206
 20
567.3035137968406616
 40
0.0
 41
0.0
 42
0.0
 10
920.3137084989847381
 20
565.3137084989847381
 40
0.0
 41
0.0
 42
0.0
 10
922.3035137968407753
 20
562.8891237283136206
 40
0.0
 41
0.0
 42
0.0
 10
923.7820725201805772
 20
560.1229349178414623
 40
0.0
 41
0.0
 42
0.0
 10
924.6925644864517153
 20
557.1214451522580475
 40
0.0
 41
0.0
 42
0.0
 10
925.0
 20
554.0
 40
0.0
 41
0.0
 42
0.0
 10
925.0
 20
416.0
 40
0.0
 41
0.0
 42
0.0
 10
925.0
 20
416.0
 40
0.0
 41
0.0
 42
0.0
 10
924.6925644864517153
 20
412.8785548477419525
 40
0.0
 41
0.0
 42
0.0
 10
923.7820725201805772
 20
409.8770650821585377
 40
0.0
 41
0.0
 42
0.0
 10
922.3035137968407753
 20
407.1108762716863794
 40
0.0
 41
0.0
 42
0.0
 10
920.3137084989847381
 20
404.6862915010152619
 40
0.0
 41
0.0
 42
0.0
 10
917.8891237283136206
 20
402.6964862031592816
 40
0.0
 41
0.0
 42
0.0
 10
915.1229349178414623
 20
401.2179274798194228
 40
0.0
 41
0.0
 42
0.0
 10
912.1214451522580475
 20
400.3074355135482847
 40
0.0
 41
0.0
 42
0.0
 10
909.0
 20
400.0
 40
0.0
 41
0.0
 42
0.0
 10
682.0
 20
400.0
 40
0.0
 41
0.0
 42
0.0
 10
682.0
 20
400.0
 40
0.0
 41
0.0
 42
0.0
 10
678.8785548477419525
 20
400.3074355135482847
 40
0.0
 41
0.0
 42
0.0
 10
675.8770650821585377
 20
401.2179274798194228
 40
0.0
 41
0.0
 42
0.0
 10
673.1108762716863794
 20
402.6964862031592816
 40
0.0
 41
0.0
 42
0.0
 10
670.6862915010152619
 20
404.6862915010152619
 40
0.0
 41
0.0
 42
0.0
 10
668.6964862031592247
 20
407.1108762716863794
 40
0.0
 41
0.0
 42
0.0
 10
667.2179274798194228
 20
409.8770650821585377
 40
0.0
 41
0.0
 42
0.0
 10
666.3074355135482847
 20
412.8785548477419525
 40
0.0
 41
0.0
 42
0.0
 10
666.0
 20
416.0
 40
0.0
 41
0.0
 42
0.0
 10
666.0
 20
554.0
 40
0.0
 41
0.0
 42
0.0
 10
666.0
 20
554.0
 40
0.0
 41
0.0
 42
0.0
 10
666.3074355135482847
 20
557.1214451522580475
 40
0.0
 41
0.0
 42
0.0
 10
667.2179274798194228
 20
560.1229349178414623
 40
0.0
 41
0.0
 42
0.0
 10
668.6964862031592247
 20
562.8891237283136206
 40
0.0
 41
0.0
 42
0.0
 10
670.6862915010152619
 20
565.3137084989847381
 40
0.0
 41
0.0
 42
0.0
 10
673.1108762716863794
 20
567.3035137968406616
 40
0.0
 41
0.0
 42
0.0
 10
675.8770650821585377
 20
568.7820725201805772
 40
0.0
 41
0.0
 42
0.0
 10
678.8785548477419525
 20
569.6925644864517153
 40
0.0
 41
0.0
 42
0.0
 10
682.0
 20
570.0
 40
0.0
 41
0.0
 42
0.0
  0
TEXT
  5
3F
330
1D
100
AcDbEntity
  8
0
  6
ByLayer
420
1187891
 48
1.0
 60
0
 67
0
370
-1
100
AcDbText
 39
0.0
 10
666.0
 20
376.90625
 30
0.0
 40
14.0
  1
Contain + Keywords
 50
0.0
 41
1.0
 51
0.0
  7
Standard
 71
0
 72
0
 11
0.0
 21
0.0
 31
0.0
210
0.0
220
0.0
230
1.0
100
AcDbText
 73
0
  0
TEXT
  5
40
330
1D
100
AcDbEntity
  8
0
  6
ByLayer
420
998754
 48
1.0
 60
0
 67
0
370
-1
100
AcDbText
 39
0.0
 10
666.0
 20
357.40625
 30
0.0
 40
12.0
  1
object-fit: contain
 50
0.0
 41
1.0
 51
0.0
  7
Standard
 71
0
 72
0
 11
0.0
 21
0.0
 31
0.0
210
0.0
220
0.0
230
1.0
100
AcDbText
 73
0
  0
TEXT
  5
41
330
1D
100
AcDbEntity
  8
0
  6
ByLayer
420
998754
 48
1.0
 60
0
 67
0
370
-1
100
AcDbText
 39
0.0
 10
666.0
 20
340.015625
 30
0.0
 40
12.0
  1
object-position: left top
 50
0.0
 41
1.0
 51
0.0
  7
Standard
 71
0
 72
0
 11
0.0
 21
0.0
 31
0.0
210
0.0
220
0.0
230
1.0
100
AcDbText
 73
0
  0
HATCH
  5
42
330
1D
100
AcDbEntity
  8
0
  6
ByLayer
420
16777215
 48
1.0
 60
0
 67
0
370
-1
100
AcDbHatch
 30
0.0
210
0.0
220
0.0
230
1.0
  2
SOLID
 70
1
 71
0
 91
1
 92
2
 72
0
 73
1
 93
41
 10
980.0
 20
587.0
 10
1233.0
 20
587.0
 10
1233.0
 20
587.0
 10
1236.9018064403226163
 20
586.6157056080646726
 10
1240.6536686473018563
 20
585.477590650225693
 10
1244.1114046603920542
 20
583.6293922460508838
 10
1247.1421356237310647
 20
581.142135623730951
 10
1249.6293922460508838
 20
578.1114046603920542
 10
1251.477590650225693
 20
574.6536686473018563
 10
1252.6157056080646726
 20
570.9018064403226163
 10
1253.0
 20
567.0
 10
1253.0
 20
336.0
 10
1253.0
 20
336.0
 10
1252.6157056080646726
 20
332.0981935596774406
 10
1251.477590650225693
 20
328.3463313526982006
 10
1249.6293922460508838
 20
324.8885953396079458
 10
1247.1421356237310647
 20
321.857864376269049
 10
1244.1114046603920542
 20
319.3706077539491162
 10
1240.6536686473018563
 20
317.5224093497742501
 10
1236.9018064403226163
 20
316.3842943919353843
 10
1233.0
 20
316.0
 10
980.0
 20
316.0
 10
980.0
 20
316.0
 10
976.0981935596773837
 20
316.3842943919353843
 10
972.3463313526982574
 20
317.5224093497742501
 10
968.8885953396079458
 20
319.3706077539491162
 10
965.857864376269049
 20
321.857864376269049
 10
963.3706077539491162
 20
324.8885953396079458
 10
961.522409349774307
 20
328.3463313526982006
 10
960.3842943919354411
 20
332.0981935596774406
 10
960.0
 20
336.0
 10
960.0
 20
567.0
 10
960.0
 20
567.0
 10
960.3842943919354411
 20
570.9018064403226163
 10
961.522409349774307
 20
574.6536686473018563
 10
963.3706077539491162
 20
578.1114046603920542
 10
965.857864376269049
 20
581.142135623730951
 10
968.8885953396079458
 20
583.6293922460508838
 10
972.3463313526981437
 20
585.477590650225693
 10
976.0981935596773837
 20
586.6157056080646726
 10
980.0
 20
587.0
 97
0
 75
0
 76
1
 47
0.0
 98
0
  0
LWPOLYLINE
  5
43
330
1D
100
AcDbEntity
  8
0
  6
ByLayer
420
1187891
 48
1.0
 60
0
 67
0
370
-1
100
AcDbPolyline
 90
41
 70
1
 43
0.0
 38
0.0
 39
0.0
210
0.0
220
0.0
230
1.0
 10
980.0
 20
587.0
 40
0.0
 41
0.0
 42
0.0
 10
1233.0
 20
587.0
 40
0.0
 41
0.0
 42
0.0
 10
1233.0
 20
587.0
 40
0.0
 41
0.0
 42
0.0
 10
1236.9018064403226163
 20
586.6157056080646726
 40
0.0
 41
0.0
 42
0.0
 10
1240.6536686473018563
 20
585.477590650225693
 40
0.0
 41
0.0
 42
0.0
 10
1244.1114046603920542
 20
583.6293922460508838
 40
0.0
 41
0.0
 42
0.0
 10
1247.1421356237310647
 20
581.142135623730951
 40
0.0
 41
0.0
 42
0.0
 10
1249.6293922460508838
 20
578.1114046603920542
 40
0.0
 41
0.0
 42
0.0
 10
1251.477590650225693
 20
574.6536686473018563
 40
0.0
 41
0.0
 42
0.0
 10
1252.6157056080646726
 20
570.9018064403226163
 40
0.0
 41
0.0
 42
0.0
 10
1253.0
 20
567.0
 40
0.0
 41
0.0
 42
0.0
 10
1253.0
 20
336.0
 40
0.0
 41
0.0
 42
0.0
 10
1253.0
 20
336.0
 40
0.0
 41
0.0
 42
0.0
 10
1252.6157056080646726
 20
332.0981935596774406
 40
0.0
 41
0.0
 42
0.0
 10
1251.477590650225693
 20
328.3463313526982006
 40
0.0
 41
0.0
 42
0.0
 10
1249.6293922460508838
 20
324.8885953396079458
 40
0.0
 41
0.0
 42
0.0
 10
1247.1421356237310647
 20
321.857864376269049
 40
0.0
 41
0.0
 42
0.0
 10
1244.1114046603920542
 20
319.3706077539491162
 40
0.0
 41
0.0
 42
0.0
 10
1240.6536686473018563
 20
317.5224093497742501
 40
0.0
 41
0.0
 42
0.0
 10
1236.9018064403226163
 20
316.3842943919353843
 40
0.0
 41
0.0
 42
0.0
 10
1233.0
 20
316.0
 40
0.0
 41
0.0
 42
0.0
 10
980.0
 20
316.0
 40
0.0
 41
0.0
 42
0.0
 10
980.0
 20
316.0
 40
0.0
 41
0.0
 42
0.0
 10
976.0981935596773837
 20
316.3842943919353843
 40
0.0
 41
0.0
 42
0.0
 10
972.3463313526982574
 20
317.5224093497742501
 40
0.0
 41
0.0
 42
0.0
 10
968.8885953396079458
 20
319.3706077539491162
 40
0.0
 41
0.0
 42
0.0
 10
965.857864376269049
 20
321.857864376269049
 40
0.0
 41
0.0
 42
0.0
 10
963.3706077539491162
 20
324.8885953396079458
 40
0.0
 41
0.0
 42
0.0
 10
961.522409349774307
 20
328.3463313526982006
 40
0.0
 41
0.0
 42
0.0
 10
960.3842943919354411
 20
332.0981935596774406
 40
0.0
 41
0.0
 42
0.0
 10
960.0
 20
336.0
 40
0.0
 41
0.0
 42
0.0
 10
960.0
 20
567.0
 40
0.0
 41
0.0
 42
0.0
 10
960.0
 20
567.0
 40
0.0
 41
0.0
 42
0.0
 10
960.3842943919354411
 20
570.9018064403226163
 40
0.0
 41
0.0
 42
0.0
 10
961.522409349774307
 20
574.6536686473018563
 40
0.0
 41
0.0
 42
0.0
 10
963.3706077539491162
 20
578.1114046603920542
 40
0.0
 41
0.0
 42
0.0
 10
965.857864376269049
 20
581.142135623730951
 40
0.0
 41
0.0
 42
0.0
 10
968.8885953396079458
 20
583.6293922460508838
 40
0.0
 41
0.0
 42
0.0
 10
972.3463313526981437
 20
585.477590650225693
 40
0.0
 41
0.0
 42
0.0
 10
976.0981935596773837
 20
586.6157056080646726
 40
0.0
 41
0.0
 42
0.0
 10
980.0
 20
587.0
 40
0.0
 41
0.0
 42
0.0
  0
HATCH
  5
44
330
1D
100
AcDbEntity
  8
0
  6
ByLayer
420
947344
 48
1.0
 60
0
 67
0
370
-1
100
AcDbHatch
 30
0.0
210
0.0
220
0.0
230
1.0
  2
SOLID
 70
1
 71
0
 91
1
 92
2
 72
0
 73
1
 93
41
 10
993.0
 20
570.0
 10
1220.0
 20
570.0
 10
1220.0
 20
570.0
 10
1223.1214451522580475
 20
569.6925644864517153
 10
1226.1229349178413486
 20
568.7820725201805772
 10
1228.8891237283137343
 20
567.3035137968406616
 10
1231.3137084989848518
 20
565.3137084989847381
 10
1233.3035137968406616
 20
562.8891237283136206
 10
1234.7820725201806908
 20
560.1229349178414623
 10
1235.6925644864516016
 20
557.1214451522580475
 10
1236.0
 20
554.0
 10
1236.0
 20
416.0
 10
1236.0
 20
416.0
 10
1235.6925644864516016
 20
412.8785548477419525
 10
1234.7820725201806908
 20
409.8770650821585377
 10
1233.3035137968406616
 20
407.1108762716863794
 10
1231.3137084989848518
 20
404.6862915010152619
 10
1228.8891237283137343
 20
402.6964862031592816
 10
1226.1229349178413486
 20
401.2179274798194228
 10
1223.1214451522580475
 20
400.3074355135482847
 10
1220.0
 20
400.0
 10
993.0
 20
400.0
 10
993.0
 20
400.0
 10
989.8785548477419525
 20
400.3074355135482847
 10
986.8770650821585377
 20
401.2179274798194228
 10
984.1108762716863794
 20
402.6964862031592816
 10
981.6862915010152619
 20
404.6862915010152619
 10
979.6964862031592247
 20
407.1108762716863794
 10
978.2179274798194228
 20
409.8770650821585377
 10
977.3074355135482847
 20
412.8785548477419525
 10
977.0
 20
416.0
 10
977.0
 20
554.0
 10
977.0
 20
554.0
 10
977.3074355135482847
 20
557.1214451522580475
 10
978.2179274798194228
 20
560.1229349178414623
 10
979.6964862031592247
 20
562.8891237283136206
 10
981.6862915010152619
 20
565.3137084989847381
 10
984.1108762716863794
 20
567.3035137968406616
 10
986.8770650821585377
 20
568.7820725201805772
 10
989.8785548477419525
 20
569.6925644864517153
 10
993.0
 20
570.0
 97
0
 75
0
 76
1
 47
0.0
 98
0
  0
LWPOLYLINE
  5
45
330
1D
100
AcDbEntity
  8
0
  6
ByLayer
420
1187891
 48
1.0
 60
0
 67
0
370
-1
100
AcDbPolyline
 90
41
 70
1
 43
0.0
 38
0.0
 39
0.0
210
0.0
220
0.0
230
1.0
 10
993.0
 20
570.0
 40
0.0
 41
0.0
 42
0.0
 10
1220.0
 20
570.0
 40
0.0
 41
0.0
 42
0.0
 10
1220.0
 20
570.0
 40
0.0
 41
0.0
 42
0.0
 10
1223.1214451522580475
 20
569.6925644864517153
 40
0.0
 41
0.0
 42
0.0
 10
1226.1229349178413486
 20
568.7820725201805772
 40
0.0
 41
0.0
 42
0.0
 10
1228.8891237283137343
 20
567.3035137968406616
 40
0.0
 41
0.0
 42
0.0
 10
1231.3137084989848518
 20
565.3137084989847381
 40
0.0
 41
0.0
 42
0.0
 10
1233.3035137968406616
 20
562.8891237283136206
 40
0.0
 41
0.0
 42
0.0
 10
1234.7820725201806908
 20
560.1229349178414623
 40
0.0
 41
0.0
 42
0.0
 10
1235.6925644864516016
 20
557.1214451522580475
 40
0.0
 41
0.0
 42
0.0
 10
1236.0
 20
554.0
 40
0.0
 41
0.0
 42
0.0
 10
1236.0
 20
416.0
 40
0.0
 41
0.0
 42
0.0
 10
1236.0
 20
416.0
 40
0.0
 41
0.0
 42
0.0
 10
1235.6925644864516016
 20
412.8785548477419525
 40
0.0
 41
0.0
 42
0.0
 10
1234.7820725201806908
 20
409.8770650821585377
 40
0.0
 41
0.0
 42
0.0
 10
1233.3035137968406616
 20
407.1108762716863794
 40
0.0
 41
0.0
 42
0.0
 10
1231.3137084989848518
 20
404.6862915010152619
 40
0.0
 41
0.0
 42
0.0
 10
1228.8891237283137343
 20
402.6964862031592816
 40
0.0
 41
0.0
 42
0.0
 10
1226.1229349178413486
 20
401.2179274798194228
 40
0.0
 41
0.0
 42
0.0
 10
1223.1214451522580475
 20
400.3074355135482847
 40
0.0
 41
0.0
 42
0.0
 10
1220.0
 20
400.0
 40
0.0
 41
0.0
 42
0.0
 10
993.0
 20
400.0
 40
0.0
 41
0.0
 42
0.0
 10
993.0
 20
400.0
 40
0.0
 41
0.0
 42
0.0
 10
989.8785548477419525
 20
400.3074355135482847
 40
0.0
 41
0.0
 42
0.0
 10
986.8770650821585377
 20
401.2179274798194228
 40
0.0
 41
0.0
 42
0.0
 10
984.1108762716863794
 20
402.6964862031592816
 40
0.0
 41
0.0
 42
0.0
 10
981.6862915010152619
 20
404.6862915010152619
 40
0.0
 41
0.0
 42
0.0
 10
979.6964862031592247
 20
407.1108762716863794
 40
0.0
 41
0.0
 42
0.0
 10
978.2179274798194228
 20
409.8770650821585377
 40
0.0
 41
0.0
 42
0.0
 10
977.3074355135482847
 20
412.8785548477419525
 40
0.0
 41
0.0
 42
0.0
 10
977.0
 20
416.0
 40
0.0
 41
0.0
 42
0.0
 10
977.0
 20
554.0
 40
0.0
 41
0.0
 42
0.0
 10
977.0
 20
554.0
 40
0.0
 41
0.0
 42
0.0
 10
977.3074355135482847
 20
557.1214451522580475
 40
0.0
 41
0.0
 42
0.0
 10
978.2179274798194228
 20
560.1229349178414623
 40
0.0
 41
0.0
 42
0.0
 10
979.6964862031592247
 20
562.8891237283136206
 40
0.0
 41
0.0
 42
0.0
 10
981.6862915010152619
 20
565.3137084989847381
 40
0.0
 41
0.0
 42
0.0
 10
984.1108762716863794
 20
567.3035137968406616
 40
0.0
 41
0.0
 42
0.0
 10
986.8770650821585377
 20
568.7820725201805772
 40
0.0
 41
0.0
 42
0.0
 10
989.8785548477419525
 20
569.6925644864517153
 40
0.0
 41
0.0
 42
0.0
 10
993.0
 20
570.0
 40
0.0
 41
0.0
 42
0.0
  0
TEXT
  5
46
330
1D
100
AcDbEntity
  8
0
  6
ByLayer
420
1187891
 48
1.0
 60
0
 67
0
370
-1
100
AcDbText
 39
0.0
 10
976.5
 20
376.90625
 30
0.0
 40
14.0
  1
Cover + Percentages
 50
0.0
 41
1.0
 51
0.0
  7
Standard
 71
0
 72
0
 11
0.0
 21
0.0
 31
0.0
210
0.0
220
0.0
230
1.0
100
AcDbText
 73
0
  0
TEXT
  5
47
330
1D
100
AcDbEntity
  8
0
  6
ByLayer
420
998754
 48
1.0
 60
0
 67
0
370
-1
100
AcDbText
 39
0.0
 10
976.5
 20
357.40625
 30
0.0
 40
12.0
  1
object-fit: cover
 50
0.0
 41
1.0
 51
0.0
  7
Standard
 71
0
 72
0
 11
0.0
 21
0.0
 31
0.0
210
0.0
220
0.0
230
1.0
100
AcDbText
 73
0
  0
TEXT
  5
48
330
1D
100
AcDbEntity
  8
0
  6
ByLayer
420
998754
 48
1.0
 60
0
 67
0
370
-1
100
AcDbText
 39
0.0
 10
976.5
 20
340.015625
 30
0.0
 40
12.0
  1
object-position: 18% 78%
 50
0.0
 41
1.0
 51
0.0
  7
Standard
 71
0
 72
0
 11
0.0
 21
0.0
 31
0.0
210
0.0
220
0.0
230
1.0
100
AcDbText
 73
0
  0
HATCH
  5
49
330
1D
100
AcDbEntity
  8
0
  6
ByLayer
420
16777215
 48
1.0
 60
0
 67
0
370
-1
100
AcDbHatch
 30
0.0
210
0.0
220
0.0
230
1.0
  2
SOLID
 70
1
 71
0
 91
1
 92
2
 72
0
 73
1
 93
41
 10
48.0
 20
299.0
 10
301.0
 20
299.0
 10
301.0
 20
299.0
 10
304.9018064403225594
 20
298.6157056080646157
 10
308.6536686473017994
 20
297.4775906502257499
 10
312.1114046603920542
 20
295.6293922460508838
 10
315.142135623730951
 20
293.142135623730951
 10
317.6293922460508838
 20
290.1114046603920542
 10
319.4775906502257499
 20
286.6536686473017994
 10
320.6157056080646157
 20
282.9018064403225594
 10
321.0
 20
279.0
 10
321.0
 20
48.0
 10
321.0
 20
48.0
 10
320.6157056080646157
 20
44.0981935596773837
 10
319.4775906502257499
 20
40.3463313526982574
 10
317.6293922460508838
 20
36.8885953396079458
 10
315.142135623730951
 20
33.857864376269049
 10
312.1114046603920542
 20
31.3706077539491162
 10
308.6536686473017994
 20
29.522409349774307
 10
304.9018064403225594
 20
28.3842943919354411
 10
301.0
 20
28.0
 10
48.0
 20
28.0
 10
48.0
 20
28.0
 10
44.0981935596774335
 20
28.3842943919354411
 10
40.3463313526982077
 20
29.522409349774307
 10
36.88859533960796
 20
31.3706077539491162
 10
33.857864376269049
 20
33.857864376269049
 10
31.3706077539490948
 20
36.8885953396079458
 10
29.5224093497742643
 20
40.3463313526982574
 10
28.3842943919353914
 20
44.0981935596773837
 10
28.0
 20
48.0
 10
28.0
 20
279.0
 10
28.0
 20
279.0
 10
28.3842943919353914
 20
282.9018064403225594
 10
29.5224093497742643
 20
286.6536686473017994
 10
31.3706077539490913
 20
290.1114046603920542
 10
33.857864376269049
 20
293.142135623730951
 10
36.88859533960796
 20
295.6293922460508838
 10
40.3463313526981935
 20
297.4775906502257499
 10
44.0981935596774264
 20
298.6157056080646157
 10
47.9999999999999929
 20
299.0
 97
0
 75
0
 76
1
 47
0.0
 98
0
  0
LWPOLYLINE
  5
4A
330
1D
100
AcDbEntity
  8
0
  6
ByLayer
420
1187891
 48
1.0
 60
0
 67
0
370
-1
100
AcDbPolyline
 90
41
 70
1
 43
0.0
 38
0.0
 39
0.0
210
0.0
220
0.0
230
1.0
 10
48.0
 20
299.0
 40
0.0
 41
0.0
 42
0.0
 10
301.0
 20
299.0
 40
0.0
 41
0.0
 42
0.0
 10
301.0
 20
299.0
 40
0.0
 41
0.0
 42
0.0
 10
304.9018064403225594
 20
298.6157056080646157
 40
0.0
 41
0.0
 42
0.0
 10
308.6536686473017994
 20
297.4775906502257499
 40
0.0
 41
0.0
 42
0.0
 10
312.1114046603920542
 20
295.6293922460508838
 40
0.0
 41
0.0
 42
0.0
 10
315.142135623730951
 20
293.142135623730951
 40
0.0
 41
0.0
 42
0.0
 10
317.6293922460508838
 20
290.1114046603920542
 40
0.0
 41
0.0
 42
0.0
 10
319.4775906502257499
 20
286.6536686473017994
 40
0.0
 41
0.0
 42
0.0
 10
320.6157056080646157
 20
282.9018064403225594
 40
0.0
 41
0.0
 42
0.0
 10
321.0
 20
279.0
 40
0.0
 41
0.0
 42
0.0
 10
321.0
 20
48.0
 40
0.0
 41
0.0
 42
0.0
 10
321.0
 20
48.0
 40
0.0
 41
0.0
 42
0.0
 10
320.6157056080646157
 20
44.0981935596773837
 40
0.0
 41
0.0
 42
0.0
 10
319.4775906502257499
 20
40.3463313526982574
 40
0.0
 41
0.0
 42
0.0
 10
317.6293922460508838
 20
36.8885953396079458
 40
0.0
 41
0.0
 42
0.0
 10
315.142135623730951
 20
33.857864376269049
 40
0.0
 41
0.0
 42
0.0
 10
312.1114046603920542
 20
31.3706077539491162
 40
0.0
 41
0.0
 42
0.0
 10
308.6536686473017994
 20
29.522409349774307
 40
0.0
 41
0.0
 42
0.0
 10
304.9018064403225594
 20
28.3842943919354411
 40
0.0
 41
0.0
 42
0.0
 10
301.0
 20
28.0
 40
0.0
 41
0.0
 42
0.0
 10
48.0
 20
28.0
 40
0.0
 41
0.0
 42
0.0
 10
48.0
 20
28.0
 40
0.0
 41
0.0
 42
0.0
 10
44.0981935596774335
 20
28.3842943919354411
 40
0.0
 41
0.0
 42
0.0
 10
40.3463313526982077
 20
29.522409349774307
 40
0.0
 41
0.0
 42
0.0
 10
36.88859533960796
 20
31.3706077539491162
 40
0.0
 41
0.0
 42
0.0
 10
33.857864376269049
 20
33.857864376269049
 40
0.0
 41
0.0
 42
0.0
 10
31.3706077539490948
 20
36.8885953396079458
 40
0.0
 41
0.0
 42
0.0
 10
29.5224093497742643
 20
40.3463313526982574
 40
0.0
 41
0.0
 42
0.0
 10
28.3842943919353914
 20
44.0981935596773837
 40
0.0
 41
0.0
 42
0.0
 10
28.0
 20
48.0
 40
0.0
 41
0.0
 42
0.0
 10
28.0
 20
279.0
 40
0.0
 41
0.0
 42
0.0
 10
28.0
 20
279.0
 40
0.0
 41
0.0
 42
0.0
 10
28.3842943919353914
 20
282.9018064403225594
 40
0.0
 41
0.0
 42
0.0
 10
29.5224093497742643
 20
286.6536686473017994
 40
0.0
 41
0.0
 42
0.0
 10
31.3706077539490913
 20
290.1114046603920542
 40
0.0
 41
0.0
 42
0.0
 10
33.857864376269049
 20
293.142135623730951
 40
0.0
 41
0.0
 42
0.0
 10
36.88859533960796
 20
295.6293922460508838
 40
0.0
 41
0.0
 42
0.0
 10
40.3463313526981935
 20
297.4775906502257499
 40
0.0
 41
0.0
 42
0.0
 10
44.0981935596774264
 20
298.6157056080646157
 40
0.0
 41
0.0
 42
0.0
 10
47.9999999999999929
 20
299.0
 40
0.0
 41
0.0
 42
0.0
  0
HATCH
  5
4B
330
1D
100
AcDbEntity
  8
0
  6
ByLayer
420
947344
 48
1.0
 60
0
 67
0
370
-1
100
AcDbHatch
 30
0.0
210
0.0
220
0.0
230
1.0
  2
SOLID
 70
1
 71
0
 91
1
 92
2
 72
0
 73
1
 93
41
 10
61.0
 20
282.0
 10
288.0
 20
282.0
 10
288.0
 20
282.0
 10
291.1214451522580475
 20
281.6925644864517153
 10
294.1229349178414623
 20
280.7820725201805772
 10
296.8891237283136206
 20
279.3035137968407184
 10
299.3137084989847381
 20
277.3137084989847381
 10
301.3035137968407184
 20
274.8891237283136206
 10
302.7820725201805772
 20
272.1229349178414623
 10
303.6925644864517153
 20
269.1214451522580475
 10
304.0
 20
266.0
 10
304.0
 20
128.0
 10
304.0
 20
128.0
 10
303.6925644864517153
 20
124.8785548477419525
 10
302.7820725201805772
 20
121.8770650821585377
 10
301.3035137968407184
 20
119.1108762716863794
 10
299.3137084989847381
 20
116.6862915010152619
 10
296.8891237283136206
 20
114.6964862031592247
 10
294.1229349178414623
 20
113.2179274798194228
 10
291.1214451522580475
 20
112.3074355135482847
 10
288.0
 20
112.0
 10
61.0
 20
112.0
 10
61.0
 20
112.0
 10
57.8785548477419525
 20
112.3074355135482847
 10
54.8770650821585662
 20
113.2179274798194228
 10
52.1108762716863652
 20
114.6964862031592247
 10
49.6862915010152406
 20
116.6862915010152619
 10
47.6964862031592745
 20
119.1108762716863794
 10
46.2179274798194086
 20
121.8770650821585377
 10
45.3074355135483131
 20
124.8785548477419525
 10
45.0
 20
128.0
 10
45.0
 20
266.0
 10
45.0
 20
266.0
 10
45.3074355135483131
 20
269.1214451522580475
 10
46.2179274798194086
 20
272.1229349178414623
 10
47.6964862031592745
 20
274.8891237283136206
 10
49.6862915010152335
 20
277.3137084989847381
 10
52.1108762716863652
 20
279.3035137968407184
 10
54.8770650821585519
 20
280.7820725201805772
 10
57.8785548477419383
 20
281.6925644864516585
 10
61.0
 20
282.0
 97
0
 75
0
 76
1
 47
0.0
 98
0
  0
LWPOLYLINE
  5
4C
330
1D
100
AcDbEntity
  8
0
  6
ByLayer
420
1187891
 48
1.0
 60
0
 67
0
370
-1
100
AcDbPolyline
 90
41
 70
1
 43
0.0
 38
0.0
 39
0.0
210
0.0
220
0.0
230
1.0
 10
61.0
 20
282.0
 40
0.0
 41
0.0
 42
0.0
 10
288.0
 20
282.0
 40
0.0
 41
0.0
 42
0.0
 10
288.0
 20
282.0
 40
0.0
 41
0.0
 42
0.0
 10
291.1214451522580475
 20
281.6925644864517153
 40
0.0
 41
0.0
 42
0.0
 10
294.1229349178414623
 20
280.7820725201805772
 40
0.0
 41
0.0
 42
0.0
 10
296.8891237283136206
 20
279.3035137968407184
 40
0.0
 41
0.0
 42
0.0
 10
299.3137084989847381
 20
277.3137084989847381
 40
0.0
 41
0.0
 42
0.0
 10
301.3035137968407184
 20
274.8891237283136206
 40
0.0
 41
0.0
 42
0.0
 10
302.7820725201805772
 20
272.1229349178414623
 40
0.0
 41
0.0
 42
0.0
 10
303.6925644864517153
 20
269.1214451522580475
 40
0.0
 41
0.0
 42
0.0
 10
304.0
 20
266.0
 40
0.0
 41
0.0
 42
0.0
 10
304.0
 20
128.0
 40
0.0
 41
0.0
 42
0.0
 10
304.0
 20
128.0
 40
0.0
 41
0.0
 42
0.0
 10
303.6925644864517153
 20
124.8785548477419525
 40
0.0
 41
0.0
 42
0.0
 10
302.7820725201805772
 20
121.8770650821585377
 40
0.0
 41
0.0
 42
0.0
 10
301.3035137968407184
 20
119.1108762716863794
 40
0.0
 41
0.0
 42
0.0
 10
299.3137084989847381
 20
116.6862915010152619
 40
0.0
 41
0.0
 42
0.0
 10
296.8891237283136206
 20
114.6964862031592247
 40
0.0
 41
0.0
 42
0.0
 10
294.1229349178414623
 20
113.2179274798194228
 40
0.0
 41
0.0
 42
0.0
 10
291.1214451522580475
 20
112.3074355135482847
 40
0.0
 41
0.0
 42
0.0
 10
288.0
 20
112.0
 40
0.0
 41
0.0
 42
0.0
 10
61.0
 20
112.0
 40
0.0
 41
0.0
 42
0.0
 10
61.0
 20
112.0
 40
0.0
 41
0.0
 42
0.0
 10
57.8785548477419525
 20
112.3074355135482847
 40
0.0
 41
0.0
 42
0.0
 10
54.8770650821585662
 20
113.2179274798194228
 40
0.0
 41
0.0
 42
0.0
 10
52.1108762716863652
 20
114.6964862031592247
 40
0.0
 41
0.0
 42
0.0
 10
49.6862915010152406
 20
116.6862915010152619
 40
0.0
 41
0.0
 42
0.0
 10
47.6964862031592745
 20
119.1108762716863794
 40
0.0
 41
0.0
 42
0.0
 10
46.2179274798194086
 20
121.8770650821585377
 40
0.0
 41
0.0
 42
0.0
 10
45.3074355135483131
 20
124.8785548477419525
 40
0.0
 41
0.0
 42
0.0
 10
45.0
 20
128.0
 40
0.0
 41
0.0
 42
0.0
 10
45.0
 20
266.0
 40
0.0
 41
0.0
 42
0.0
 10
45.0
 20
266.0
 40
0.0
 41
0.0
 42
0.0
 10
45.3074355135483131
 20
269.1214451522580475
 40
0.0
 41
0.0
 42
0.0
 10
46.2179274798194086
 20
272.1229349178414623
 40
0.0
 41
0.0
 42
0.0
 10
47.6964862031592745
 20
274.8891237283136206
 40
0.0
 41
0.0
 42
0.0
 10
49.6862915010152335
 20
277.3137084989847381
 40
0.0
 41
0.0
 42
0.0
 10
52.1108762716863652
 20
279.3035137968407184
 40
0.0
 41
0.0
 42
0.0
 10
54.8770650821585519
 20
280.7820725201805772
 40
0.0
 41
0.0
 42
0.0
 10
57.8785548477419383
 20
281.6925644864516585
 40
0.0
 41
0.0
 42
0.0
 10
61.0
 20
282.0
 40
0.0
 41
0.0
 42
0.0
  0
TEXT
  5
4D
330
1D
100
AcDbEntity
  8
0
  6
ByLayer
420
1187891
 48
1.0
 60
0
 67
0
370
-1
100
AcDbText
 39
0.0
 10
45.0
 20
88.125
 30
0.0
 40
14.0
  1
Scale-Down + Offset
 50
0.0
 41
1.0
 51
0.0
  7
Standard
 71
0
 72
0
 11
0.0
 21
0.0
 31
0.0
210
0.0
220
0.0
230
1.0
100
AcDbText
 73
0
  0
TEXT
  5
4E
330
1D
100
AcDbEntity
  8
0
  6
ByLayer
420
998754
 48
1.0
 60
0
 67
0
370
-1
100
AcDbText
 39
0.0
 10
45.0
 20
68.625
 30
0.0
 40
12.0
  1
object-fit: scale-down
 50
0.0
 41
1.0
 51
0.0
  7
Standard
 71
0
 72
0
 11
0.0
 21
0.0
 31
0.0
210
0.0
220
0.0
230
1.0
100
AcDbText
 73
0
  0
TEXT
  5
4F
330
1D
100
AcDbEntity
  8
0
  6
ByLayer
420
998754
 48
1.0
 60
0
 67
0
370
-1
100
AcDbText
 39
0.0
 10
45.0
 20
51.234375
 30
0.0
 40
12.0
  1
object-position: right 12px bottom 10px
 50
0.0
 41
1.0
 51
0.0
  7
Standard
 71
0
 72
0
 11
0.0
 21
0.0
 31
0.0
210
0.0
220
0.0
230
1.0
100
AcDbText
 73
0
  0
HATCH
  5
50
330
1D
100
AcDbEntity
  8
0
  6
ByLayer
420
16777215
 48
1.0
 60
0
 67
0
370
-1
100
AcDbHatch
 30
0.0
210
0.0
220
0.0
230
1.0
  2
SOLID
 70
1
 71
0
 91
1
 92
2
 72
0
 73
1
 93
41
 10
359.0
 20
299.0
 10
612.0
 20
299.0
 10
612.0
 20
299.0
 10
615.9018064403226163
 20
298.6157056080646157
 10
619.6536686473017426
 20
297.4775906502257499
 10
623.1114046603920542
 20
295.6293922460508838
 10
626.142135623730951
 20
293.142135623730951
 10
628.6293922460508838
 20
290.1114046603920542
 10
630.477590650225693
 20
286.6536686473017994
 10
631.6157056080645589
 20
282.9018064403225594
 10
632.0
 20
279.0
 10
632.0
 20
48.0
 10
632.0
 20
48.0
 10
631.6157056080645589
 20
44.0981935596773837
 10
630.477590650225693
 20
40.3463313526982574
 10
628.6293922460508838
 20
36.8885953396079458
 10
626.142135623730951
 20
33.857864376269049
 10
623.1114046603920542
 20
31.3706077539491162
 10
619.6536686473017426
 20
29.522409349774307
 10
615.9018064403226163
 20
28.3842943919354411
 10
612.0
 20
28.0
 10
359.0
 20
28.0
 10
359.0
 20
28.0
 10
355.0981935596774406
 20
28.3842943919354411
 10
351.3463313526982006
 20
29.522409349774307
 10
347.8885953396079458
 20
31.3706077539491162
 10
344.857864376269049
 20
33.857864376269049
 10
342.3706077539491162
 20
36.8885953396079458
 10
340.5224093497742501
 20
40.3463313526982574
 10
339.3842943919353843
 20
44.0981935596773837
 10
339.0
 20
48.0
 10
339.0
 20
279.0
 10
339.0
 20
279.0
 10
339.3842943919353843
 20
282.9018064403225594
 10
340.5224093497742501
 20
286.6536686473017994
 10
342.3706077539491162
 20
290.1114046603920542
 10
344.857864376269049
 20
293.142135623730951
 10
347.8885953396079458
 20
295.6293922460508838
 10
351.3463313526982006
 20
297.4775906502257499
 10
355.0981935596774406
 20
298.6157056080646157
 10
359.0
 20
299.0
 97
0
 75
0
 76
1
 47
0.0
 98
0
  0
LWPOLYLINE
  5
51
330
1D
100
AcDbEntity
  8
0
  6
ByLayer
420
1187891
 48
1.0
 60
0
 67
0
370
-1
100
AcDbPolyline
 90
41
 70
1
 43
0.0
 38
0.0
 39
0.0
210
0.0
220
0.0
230
1.0
 10
359.0
 20
299.0
 40
0.0
 41
0.0
 42
0.0
 10
612.0
 20
299.0
 40
0.0
 41
0.0
 42
0.0
 10
612.0
 20
299.0
 40
0.0
 41
0.0
 42
0.0
 10
615.9018064403226163
 20
298.6157056080646157
 40
0.0
 41
0.0
 42
0.0
 10
619.6536686473017426
 20
297.4775906502257499
 40
0.0
 41
0.0
 42
0.0
 10
623.1114046603920542
 20
295.6293922460508838
 40
0.0
 41
0.0
 42
0.0
 10
626.142135623730951
 20
293.142135623730951
 40
0.0
 41
0.0
 42
0.0
 10
628.6293922460508838
 20
290.1114046603920542
 40
0.0
 41
0.0
 42
0.0
 10
630.477590650225693
 20
286.6536686473017994
 40
0.0
 41
0.0
 42
0.0
 10
631.6157056080645589
 20
282.9018064403225594
 40
0.0
 41
0.0
 42
0.0
 10
632.0
 20
279.0
 40
0.0
 41
0.0
 42
0.0
 10
632.0
 20
48.0
 40
0.0
 41
0.0
 42
0.0
 10
632.0
 20
48.0
 40
0.0
 41
0.0
 42
0.0
 10
631.6157056080645589
 20
44.0981935596773837
 40
0.0
 41
0.0
 42
0.0
 10
630.477590650225693
 20
40.3463313526982574
 40
0.0
 41
0.0
 42
0.0
 10
628.6293922460508838
 20
36.8885953396079458
 40
0.0
 41
0.0
 42
0.0
 10
626.142135623730951
 20
33.857864376269049
 40
0.0
 41
0.0
 42
0.0
 10
623.1114046603920542
 20
31.3706077539491162
 40
0.0
 41
0.0
 42
0.0
 10
619.6536686473017426
 20
29.522409349774307
 40
0.0
 41
0.0
 42
0.0
 10
615.9018064403226163
 20
28.3842943919354411
 40
0.0
 41
0.0
 42
0.0
 10
612.0
 20
28.0
 40
0.0
 41
0.0
 42
0.0
 10
359.0
 20
28.0
 40
0.0
 41
0.0
 42
0.0
 10
359.0
 20
28.0
 40
0.0
 41
0.0
 42
0.0
 10
355.0981935596774406
 20
28.3842943919354411
 40
0.0
 41
0.0
 42
0.0
 10
351.3463313526982006
 20
29.522409349774307
 40
0.0
 41
0.0
 42
0.0
 10
347.8885953396079458
 20
31.3706077539491162
 40
0.0
 41
0.0
 42
0.0
 10
344.857864376269049
 20
33.857864376269049
 40
0.0
 41
0.0
 42
0.0
 10
342.3706077539491162
 20
36.8885953396079458
 40
0.0
 41
0.0
 42
0.0
 10
340.5224093497742501
 20
40.3463313526982574
 40
0.0
 41
0.0
 42
0.0
 10
339.3842943919353843
 20
44.0981935596773837
 40
0.0
 41
0.0
 42
0.0
 10
339.0
 20
48.0
 40
0.0
 41
0.0
 42
0.0
 10
339.0
 20
279.0
 40
0.0
 41
0.0
 42
0.0
 10
339.0
 20
279.0
 40
0.0
 41
0.0
 42
0.0
 10
339.3842943919353843
 20
282.9018064403225594
 40
0.0
 41
0.0
 42
0.0
 10
340.5224093497742501
 20
286.6536686473017994
 40
0.0
 41
0.0
 42
0.0
 10
342.3706077539491162
 20
290.1114046603920542
 40
0.0
 41
0.0
 42
0.0
 10
344.857864376269049
 20
293.142135623730951
 40
0.0
 41
0.0
 42
0.0
 10
347.8885953396079458
 20
295.6293922460508838
 40
0.0
 41
0.0
 42
0.0
 10
351.3463313526982006
 20
297.4775906502257499
 40
0.0
 41
0.0
 42
0.0
 10
355.0981935596774406
 20
298.6157056080646157
 40
0.0
 41
0.0
 42
0.0
 10
359.0
 20
299.0
 40
0.0
 41
0.0
 42
0.0
  0
HATCH
  5
52
330
1D
100
AcDbEntity
  8
0
  6
ByLayer
420
947344
 48
1.0
 60
0
 67
0
370
-1
100
AcDbHatch
 30
0.0
210
0.0
220
0.0
230
1.0
  2
SOLID
 70
1
 71
0
 91
1
 92
2
 72
0
 73
1
 93
41
 10
372.0
 20
282.0
 10
599.0
 20
282.0
 10
599.0
 20
282.0
 10
602.1214451522580475
 20
281.6925644864517153
 10
605.1229349178414623
 20
280.7820725201805772
 10
607.8891237283136206
 20
279.3035137968407184
 10
610.3137084989847381
 20
277.3137084989847381
 10
612.3035137968407753
 20
274.8891237283136206
 10
613.7820725201805772
 20
272.1229349178414623
 10
614.6925644864517153
 20
269.1214451522580475
 10
615.0
 20
266.0
 10
615.0
 20
128.0
 10
615.0
 20
128.0
 10
614.6925644864517153
 20
124.8785548477419525
 10
613.7820725201805772
 20
121.8770650821585377
 10
612.3035137968407753
 20
119.1108762716863794
 10
610.3137084989847381
 20
116.6862915010152619
 10
607.8891237283136206
 20
114.6964862031592247
 10
605.1229349178414623
 20
113.2179274798194228
 10
602.1214451522580475
 20
112.3074355135482847
 10
599.0
 20
112.0
 10
372.0
 20
112.0
 10
372.0
 20
112.0
 10
368.8785548477419525
 20
112.3074355135482847
 10
365.8770650821585377
 20
113.2179274798194228
 10
363.1108762716863794
 20
114.6964862031592247
 10
360.6862915010152619
 20
116.6862915010152619
 10
358.6964862031592816
 20
119.1108762716863794
 10
357.2179274798194228
 20
121.8770650821585377
 10
356.3074355135482847
 20
124.8785548477419525
 10
356.0
 20
128.0
 10
356.0
 20
266.0
 10
356.0
 20
266.0
 10
356.3074355135482847
 20
269.1214451522580475
 10
357.2179274798194228
 20
272.1229349178414623
 10
358.6964862031592816
 20
274.8891237283136206
 10
360.6862915010152619
 20
277.3137084989847381
 10
363.1108762716863794
 20
279.3035137968407184
 10
365.8770650821585377
 20
280.7820725201805772
 10
368.8785548477419525
 20
281.6925644864516585
 10
372.0
 20
282.0
 97
0
 75
0
 76
1
 47
0.0
 98
0
  0
LWPOLYLINE
  5
53
330
1D
100
AcDbEntity
  8
0
  6
ByLayer
420
1187891
 48
1.0
 60
0
 67
0
370
-1
100
AcDbPolyline
 90
41
 70
1
 43
0.0
 38
0.0
 39
0.0
210
0.0
220
0.0
230
1.0
 10
372.0
 20
282.0
 40
0.0
 41
0.0
 42
0.0
 10
599.0
 20
282.0
 40
0.0
 41
0.0
 42
0.0
 10
599.0
 20
282.0
 40
0.0
 41
0.0
 42
0.0
 10
602.1214451522580475
 20
281.6925644864517153
 40
0.0
 41
0.0
 42
0.0
 10
605.1229349178414623
 20
280.7820725201805772
 40
0.0
 41
0.0
 42
0.0
 10
607.8891237283136206
 20
279.3035137968407184
 40
0.0
 41
0.0
 42
0.0
 10
610.3137084989847381
 20
277.3137084989847381
 40
0.0
 41
0.0
 42
0.0
 10
612.3035137968407753
 20
274.8891237283136206
 40
0.0
 41
0.0
 42
0.0
 10
613.7820725201805772
 20
272.1229349178414623
 40
0.0
 41
0.0
 42
0.0
 10
614.6925644864517153
 20
269.1214451522580475
 40
0.0
 41
0.0
 42
0.0
 10
615.0
 20
266.0
 40
0.0
 41
0.0
 42
0.0
 10
615.0
 20
128.0
 40
0.0
 41
0.0
 42
0.0
 10
615.0
 20
128.0
 40
0.0
 41
0.0
 42
0.0
 10
614.6925644864517153
 20
124.8785548477419525
 40
0.0
 41
0.0
 42
0.0
 10
613.7820725201805772
 20
121.8770650821585377
 40
0.0
 41
0.0
 42
0.0
 10
612.3035137968407753
 20
119.1108762716863794
 40
0.0
 41
0.0
 42
0.0
 10
610.3137084989847381
 20
116.6862915010152619
 40
0.0
 41
0.0
 42
0.0
 10
607.8891237283136206
 20
114.6964862031592247
 40
0.0
 41
0.0
 42
0.0
 10
605.1229349178414623
 20
113.2179274798194228
 40
0.0
 41
0.0
 42
0.0
 10
602.1214451522580475
 20
112.3074355135482847
 40
0.0
 41
0.0
 42
0.0
 10
599.0
 20
112.0
 40
0.0
 41
0.0
 42
0.0
 10
372.0
 20
112.0
 40
0.0
 41
0.0
 42
0.0
 10
372.0
 20
112.0
 40
0.0
 41
0.0
 42
0.0
 10
368.8785548477419525
 20
112.3074355135482847
 40
0.0
 41
0.0
 42
0.0
 10
365.8770650821585377
 20
113.2179274798194228
 40
0.0
 41
0.0
 42
0.0
 10
363.1108762716863794
 20
114.6964862031592247
 40
0.0
 41
0.0
 42
0.0
 10
360.6862915010152619
 20
116.6862915010152619
 40
0.0
 41
0.0
 42
0.0
 10
358.6964862031592816
 20
119.1108762716863794
 40
0.0
 41
0.0
 42
0.0
 10
357.2179274798194228
 20
121.8770650821585377
 40
0.0
 41
0.0
 42
0.0
 10
356.3074355135482847
 20
124.8785548477419525
 40
0.0
 41
0.0
 42
0.0
 10
356.0
 20
128.0
 40
0.0
 41
0.0
 42
0.0
 10
356.0
 20
266.0
 40
0.0
 41
0.0
 42
0.0
 10
356.0
 20
266.0
 40
0.0
 41
0.0
 42
0.0
 10
356.3074355135482847
 20
269.1214451522580475
 40
0.0
 41
0.0
 42
0.0
 10
357.2179274798194228
 20
272.1229349178414623
 40
0.0
 41
0.0
 42
0.0
 10
358.6964862031592816
 20
274.8891237283136206
 40
0.0
 41
0.0
 42
0.0
 10
360.6862915010152619
 20
277.3137084989847381
 40
0.0
 41
0.0
 42
0.0
 10
363.1108762716863794
 20
279.3035137968407184
 40
0.0
 41
0.0
 42
0.0
 10
365.8770650821585377
 20
280.7820725201805772
 40
0.0
 41
0.0
 42
0.0
 10
368.8785548477419525
 20
281.6925644864516585
 40
0.0
 41
0.0
 42
0.0
 10
372.0
 20
282.0
 40
0.0
 41
0.0
 42
0.0
  0
TEXT
  5
54
330
1D
100
AcDbEntity
  8
0
  6
ByLayer
420
1187891
 48
1.0
 60
0
 67
0
370
-1
100
AcDbText
 39
0.0
 10
355.5
 20
88.125
 30
0.0
 40
14.0
  1
View Box via 
 50
0.0
 41
1.0
 51
0.0
  7
Standard
 71
0
 72
0
 11
0.0
 21
0.0
 31
0.0
210
0.0
220
0.0
230
1.0
100
AcDbText
 73
0
  0
TEXT
  5
55
330
1D
100
AcDbEntity
  8
0
  6
ByLayer
420
998754
 48
1.0
 60
0
 67
0
370
-1
100
AcDbText
 39
0.0
 10
444.734375
 20
87.625
 30
0.0
 40
12.0
  1
inset()
 50
0.0
 41
1.0
 51
0.0
  7
Standard
 71
0
 72
0
 11
0.0
 21
0.0
 31
0.0
210
0.0
220
0.0
230
1.0
100
AcDbText
 73
0
  0
TEXT
  5
56
330
1D
100
AcDbEntity
  8
0
  6
ByLayer
420
6388113
 48
1.0
 60
0
 67
0
370
-1
100
AcDbText
 39
0.0
 10
355.5
 20
68.625
 30
0.0
 40
12.0
  1
Crops the intrinsic image before fitting it into the
 50
0.0
 41
1.0
 51
0.0
  7
Standard
 71
0
 72
0
 11
0.0
 21
0.0
 31
0.0
210
0.0
220
0.0
230
1.0
100
AcDbText
 73
0
  0
TEXT
  5
57
330
1D
100
AcDbEntity
  8
0
  6
ByLayer
420
6388113
 48
1.0
 60
0
 67
0
370
-1
100
AcDbText
 39
0.0
 10
355.5
 20
51.234375
 30
0.0
 40
12.0
  1
frame.
 50
0.0
 41
1.0
 51
0.0
  7
Standard
 71
0
 72
0
 11
0.0
 21
0.0
 31
0.0
210
0.0
220
0.0
230
1.0
100
AcDbText
 73
0
  0
HATCH
  5
58
330
1D
100
AcDbEntity
  8
0
  6
ByLayer
420
16777215
 48
1.0
 60
0
 67
0
370
-1
100
AcDbHatch
 30
0.0
210
0.0
220
0.0
230
1.0
  2
SOLID
 70
1
 71
0
 91
1
 92
2
 72
0
 73
1
 93
41
 10
669.0
 20
299.0
 10
922.0
 20
299.0
 10
922.0
 20
299.0
 10
925.9018064403226163
 20
298.6157056080646157
 10
929.6536686473017426
 20
297.4775906502257499
 10
933.1114046603920542
 20
295.6293922460508838
 10
936.142135623730951
 20
293.142135623730951
 10
938.6293922460508838
 20
290.1114046603920542
 10
940.477590650225693
 20
286.6536686473017994
 10
941.6157056080645589
 20
282.9018064403225594
 10
942.0
 20
279.0
 10
942.0
 20
48.0
 10
942.0
 20
48.0
 10
941.6157056080645589
 20
44.0981935596773837
 10
940.477590650225693
 20
40.3463313526982574
 10
938.6293922460508838
 20
36.8885953396079458
 10
936.142135623730951
 20
33.857864376269049
 10
933.1114046603920542
 20
31.3706077539491162
 10
929.6536686473017426
 20
29.522409349774307
 10
925.9018064403226163
 20
28.3842943919354411
 10
922.0
 20
28.0
 10
669.0
 20
28.0
 10
669.0
 20
28.0
 10
665.0981935596773837
 20
28.3842943919354411
 10
661.3463313526982574
 20
29.522409349774307
 10
657.8885953396079458
 20
31.3706077539491162
 10
654.857864376269049
 20
33.857864376269049
 10
652.3706077539491162
 20
36.8885953396079458
 10
650.522409349774307
 20
40.3463313526982574
 10
649.3842943919354411
 20
44.0981935596773837
 10
649.0
 20
48.0
 10
649.0
 20
279.0
 10
649.0
 20
279.0
 10
649.3842943919354411
 20
282.9018064403225594
 10
650.522409349774307
 20
286.6536686473017994
 10
652.3706077539491162
 20
290.1114046603920542
 10
654.857864376269049
 20
293.142135623730951
 10
657.8885953396079458
 20
295.6293922460508838
 10
661.3463313526981437
 20
297.4775906502257499
 10
665.0981935596773837
 20
298.6157056080646157
 10
669.0
 20
299.0
 97
0
 75
0
 76
1
 47
0.0
 98
0
  0
LWPOLYLINE
  5
59
330
1D
100
AcDbEntity
  8
0
  6
ByLayer
420
1187891
 48
1.0
 60
0
 67
0
370
-1
100
AcDbPolyline
 90
41
 70
1
 43
0.0
 38
0.0
 39
0.0
210
0.0
220
0.0
230
1.0
 10
669.0
 20
299.0
 40
0.0
 41
0.0
 42
0.0
 10
922.0
 20
299.0
 40
0.0
 41
0.0
 42
0.0
 10
922.0
 20
299.0
 40
0.0
 41
0.0
 42
0.0
 10
925.9018064403226163
 20
298.6157056080646157
 40
0.0
 41
0.0
 42
0.0
 10
929.6536686473017426
 20
297.4775906502257499
 40
0.0
 41
0.0
 42
0.0
 10
933.1114046603920542
 20
295.6293922460508838
 40
0.0
 41
0.0
 42
0.0
 10
936.142135623730951
 20
293.142135623730951
 40
0.0
 41
0.0
 42
0.0
 10
938.6293922460508838
 20
290.1114046603920542
 40
0.0
 41
0.0
 42
0.0
 10
940.477590650225693
 20
286.6536686473017994
 40
0.0
 41
0.0
 42
0.0
 10
941.6157056080645589
 20
282.9018064403225594
 40
0.0
 41
0.0
 42
0.0
 10
942.0
 20
279.0
 40
0.0
 41
0.0
 42
0.0
 10
942.0
 20
48.0
 40
0.0
 41
0.0
 42
0.0
 10
942.0
 20
48.0
 40
0.0
 41
0.0
 42
0.0
 10
941.6157056080645589
 20
44.0981935596773837
 40
0.0
 41
0.0
 42
0.0
 10
940.477590650225693
 20
40.3463313526982574
 40
0.0
 41
0.0
 42
0.0
 10
938.6293922460508838
 20
36.8885953396079458
 40
0.0
 41
0.0
 42
0.0
 10
936.142135623730951
 20
33.857864376269049
 40
0.0
 41
0.0
 42
0.0
 10
933.1114046603920542
 20
31.3706077539491162
 40
0.0
 41
0.0
 42
0.0
 10
929.6536686473017426
 20
29.522409349774307
 40
0.0
 41
0.0
 42
0.0
 10
925.9018064403226163
 20
28.3842943919354411
 40
0.0
 41
0.0
 42
0.0
 10
922.0
 20
28.0
 40
0.0
 41
0.0
 42
0.0
 10
669.0
 20
28.0
 40
0.0
 41
0.0
 42
0.0
 10
669.0
 20
28.0
 40
0.0
 41
0.0
 42
0.0
 10
665.0981935596773837
 20
28.3842943919354411
 40
0.0
 41
0.0
 42
0.0
 10
661.3463313526982574
 20
29.522409349774307
 40
0.0
 41
0.0
 42
0.0
 10
657.8885953396079458
 20
31.3706077539491162
 40
0.0
 41
0.0
 42
0.0
 10
654.857864376269049
 20
33.857864376269049
 40
0.0
 41
0.0
 42
0.0
 10
652.3706077539491162
 20
36.8885953396079458
 40
0.0
 41
0.0
 42
0.0
 10
650.522409349774307
 20
40.3463313526982574
 40
0.0
 41
0.0
 42
0.0
 10
649.3842943919354411
 20
44.0981935596773837
 40
0.0
 41
0.0
 42
0.0
 10
649.0
 20
48.0
 40
0.0
 41
0.0
 42
0.0
 10
649.0
 20
279.0
 40
0.0
 41
0.0
 42
0.0
 10
649.0
 20
279.0
 40
0.0
 41
0.0
 42
0.0
 10
649.3842943919354411
 20
282.9018064403225594
 40
0.0
 41
0.0
 42
0.0
 10
650.522409349774307
 20
286.6536686473017994
 40
0.0
 41
0.0
 42
0.0
 10
652.3706077539491162
 20
290.1114046603920542
 40
0.0
 41
0.0
 42
0.0
 10
654.857864376269049
 20
293.142135623730951
 40
0.0
 41
0.0
 42
0.0
 10
657.8885953396079458
 20
295.6293922460508838
 40
0.0
 41
0.0
 42
0.0
 10
661.3463313526981437
 20
297.4775906502257499
 40
0.0
 41
0.0
 42
0.0
 10
665.0981935596773837
 20
298.6157056080646157
 40
0.0
 41
0.0
 42
0.0
 10
669.0
 20
299.0
 40
0.0
 41
0.0
 42
0.0
  0
HATCH
  5
5A
330
1D
100
AcDbEntity
  8
0
  6
ByLayer
420
947344
 48
1.0
 60
0
 67
0
370
-1
100
AcDbHatch
 30
0.0
210
0.0
220
0.0
230
1.0
  2
SOLID
 70
1
 71
0
 91
1
 92
2
 72
0
 73
1
 93
41
 10
682.0
 20
282.0
 10
909.0
 20
282.0
 10
909.0
 20
282.0
 10
912.1214451522580475
 20
281.6925644864517153
 10
915.1229349178414623
 20
280.7820725201805772
 10
917.8891237283136206
 20
279.3035137968407184
 10
920.3137084989847381
 20
277.3137084989847381
 10
922.3035137968407753
 20
274.8891237283136206
 10
923.7820725201805772
 20
272.1229349178414623
 10
924.6925644864517153
 20
269.1214451522580475
 10
925.0
 20
266.0
 10
925.0
 20
128.0
 10
925.0
 20
128.0
 10
924.6925644864517153
 20
124.8785548477419525
 10
923.7820725201805772
 20
121.8770650821585377
 10
922.3035137968407753
 20
119.1108762716863794
 10
920.3137084989847381
 20
116.6862915010152619
 10
917.8891237283136206
 20
114.6964862031592247
 10
915.1229349178414623
 20
113.2179274798194228
 10
912.1214451522580475
 20
112.3074355135482847
 10
909.0
 20
112.0
 10
682.0
 20
112.0
 10
682.0
 20
112.0
 10
678.8785548477419525
 20
112.3074355135482847
 10
675.8770650821585377
 20
113.2179274798194228
 10
673.1108762716863794
 20
114.6964862031592247
 10
670.6862915010152619
 20
116.6862915010152619
 10
668.6964862031592247
 20
119.1108762716863794
 10
667.2179274798194228
 20
121.8770650821585377
 10
666.3074355135482847
 20
124.8785548477419525
 10
666.0
 20
128.0
 10
666.0
 20
266.0
 10
666.0
 20
266.0
 10
666.3074355135482847
 20
269.1214451522580475
 10
667.2179274798194228
 20
272.1229349178414623
 10
668.6964862031592247
 20
274.8891237283136206
 10
670.6862915010152619
 20
277.3137084989847381
 10
673.1108762716863794
 20
279.3035137968407184
 10
675.8770650821585377
 20
280.7820725201805772
 10
678.8785548477419525
 20
281.6925644864516585
 10
682.0
 20
282.0
 97
0
 75
0
 76
1
 47
0.0
 98
0
  0
LWPOLYLINE
  5
5B
330
1D
100
AcDbEntity
  8
0
  6
ByLayer
420
1187891
 48
1.0
 60
0
 67
0
370
-1
100
AcDbPolyline
 90
41
 70
1
 43
0.0
 38
0.0
 39
0.0
210
0.0
220
0.0
230
1.0
 10
682.0
 20
282.0
 40
0.0
 41
0.0
 42
0.0
 10
909.0
 20
282.0
 40
0.0
 41
0.0
 42
0.0
 10
909.0
 20
282.0
 40
0.0
 41
0.0
 42
0.0
 10
912.1214451522580475
 20
281.6925644864517153
 40
0.0
 41
0.0
 42
0.0
 10
915.1229349178414623
 20
280.7820725201805772
 40
0.0
 41
0.0
 42
0.0
 10
917.8891237283136206
 20
279.3035137968407184
 40
0.0
 41
0.0
 42
0.0
 10
920.3137084989847381
 20
277.3137084989847381
 40
0.0
 41
0.0
 42
0.0
 10
922.3035137968407753
 20
274.8891237283136206
 40
0.0
 41
0.0
 42
0.0
 10
923.7820725201805772
 20
272.1229349178414623
 40
0.0
 41
0.0
 42
0.0
 10
924.6925644864517153
 20
269.1214451522580475
 40
0.0
 41
0.0
 42
0.0
 10
925.0
 20
266.0
 40
0.0
 41
0.0
 42
0.0
 10
925.0
 20
128.0
 40
0.0
 41
0.0
 42
0.0
 10
925.0
 20
128.0
 40
0.0
 41
0.0
 42
0.0
 10
924.6925644864517153
 20
124.8785548477419525
 40
0.0
 41
0.0
 42
0.0
 10
923.7820725201805772
 20
121.8770650821585377
 40
0.0
 41
0.0
 42
0.0
 10
922.3035137968407753
 20
119.1108762716863794
 40
0.0
 41
0.0
 42
0.0
 10
920.3137084989847381
 20
116.6862915010152619
 40
0.0
 41
0.0
 42
0.0
 10
917.8891237283136206
 20
114.6964862031592247
 40
0.0
 41
0.0
 42
0.0
 10
915.1229349178414623
 20
113.2179274798194228
 40
0.0
 41
0.0
 42
0.0
 10
912.1214451522580475
 20
112.3074355135482847
 40
0.0
 41
0.0
 42
0.0
 10
909.0
 20
112.0
 40
0.0
 41
0.0
 42
0.0
 10
682.0
 20
112.0
 40
0.0
 41
0.0
 42
0.0
 10
682.0
 20
112.0
 40
0.0
 41
0.0
 42
0.0
 10
678.8785548477419525
 20
112.3074355135482847
 40
0.0
 41
0.0
 42
0.0
 10
675.8770650821585377
 20
113.2179274798194228
 40
0.0
 41
0.0
 42
0.0
 10
673.1108762716863794
 20
114.6964862031592247
 40
0.0
 41
0.0
 42
0.0
 10
670.6862915010152619
 20
116.6862915010152619
 40
0.0
 41
0.0
 42
0.0
 10
668.6964862031592247
 20
119.1108762716863794
 40
0.0
 41
0.0
 42
0.0
 10
667.2179274798194228
 20
121.8770650821585377
 40
0.0
 41
0.0
 42
0.0
 10
666.3074355135482847
 20
124.8785548477419525
 40
0.0
 41
0.0
 42
0.0
 10
666.0
 20
128.0
 40
0.0
 41
0.0
 42
0.0
 10
666.0
 20
266.0
 40
0.0
 41
0.0
 42
0.0
 10
666.0
 20
266.0
 40
0.0
 41
0.0
 42
0.0
 10
666.3074355135482847
 20
269.1214451522580475
 40
0.0
 41
0.0
 42
0.0
 10
667.2179274798194228
 20
272.1229349178414623
 40
0.0
 41
0.0
 42
0.0
 10
668.6964862031592247
 20
274.8891237283136206
 40
0.0
 41
0.0
 42
0.0
 10
670.6862915010152619
 20
277.3137084989847381
 40
0.0
 41
0.0
 42
0.0
 10
673.1108762716863794
 20
279.3035137968407184
 40
0.0
 41
0.0
 42
0.0
 10
675.8770650821585377
 20
280.7820725201805772
 40
0.0
 41
0.0
 42
0.0
 10
678.8785548477419525
 20
281.6925644864516585
 40
0.0
 41
0.0
 42
0.0
 10
682.0
 20
282.0
 40
0.0
 41
0.0
 42
0.0
  0
TEXT
  5
5C
330
1D
100
AcDbEntity
  8
0
  6
ByLayer
420
1187891
 48
1.0
 60
0
 67
0
370
-1
100
AcDbText
 39
0.0
 10
666.0
 20
88.125
 30
0.0
 40
14.0
  1
View Box via 
 50
0.0
 41
1.0
 51
0.0
  7
Standard
 71
0
 72
0
 11
0.0
 21
0.0
 31
0.0
210
0.0
220
0.0
230
1.0
100
AcDbText
 73
0
  0
TEXT
  5
5D
330
1D
100
AcDbEntity
  8
0
  6
ByLayer
420
998754
 48
1.0
 60
0
 67
0
370
-1
100
AcDbText
 39
0.0
 10
755.234375
 20
87.625
 30
0.0
 40
12.0
  1
xywh()
 50
0.0
 41
1.0
 51
0.0
  7
Standard
 71
0
 72
0
 11
0.0
 21
0.0
 31
0.0
210
0.0
220
0.0
230
1.0
100
AcDbText
 73
0
  0
TEXT
  5
5E
330
1D
100
AcDbEntity
  8
0
  6
ByLayer
420
6388113
 48
1.0
 60
0
 67
0
370
-1
100
AcDbText
 39
0.0
 10
666.0
 20
68.625
 30
0.0
 40
12.0
  1
Uses an explicit source rectangle and then
 50
0.0
 41
1.0
 51
0.0
  7
Standard
 71
0
 72
0
 11
0.0
 21
0.0
 31
0.0
210
0.0
220
0.0
230
1.0
100
AcDbText
 73
0
  0
TEXT
  5
5F
330
1D
100
AcDbEntity
  8
0
  6
ByLayer
420
6388113
 48
1.0
 60
0
 67
0
370
-1
100
AcDbText
 39
0.0
 10
666.0
 20
51.234375
 30
0.0
 40
12.0
  1
applies cover cropping.
 50
0.0
 41
1.0
 51
0.0
  7
Standard
 71
0
 72
0
 11
0.0
 21
0.0
 31
0.0
210
0.0
220
0.0
230
1.0
100
AcDbText
 73
0
  0
HATCH
  5
60
330
1D
100
AcDbEntity
  8
0
  6
ByLayer
420
16777215
 48
1.0
 60
0
 67
0
370
-1
100
AcDbHatch
 30
0.0
210
0.0
220
0.0
230
1.0
  2
SOLID
 70
1
 71
0
 91
1
 92
2
 72
0
 73
1
 93
41
 10
980.0
 20
299.0
 10
1233.0
 20
299.0
 10
1233.0
 20
299.0
 10
1236.9018064403226163
 20
298.6157056080646157
 10
1240.6536686473018563
 20
297.4775906502257499
 10
1244.1114046603920542
 20
295.6293922460508838
 10
1247.1421356237310647
 20
293.142135623730951
 10
1249.6293922460508838
 20
290.1114046603920542
 10
1251.477590650225693
 20
286.6536686473017994
 10
1252.6157056080646726
 20
282.9018064403225594
 10
1253.0
 20
279.0
 10
1253.0
 20
48.0
 10
1253.0
 20
48.0
 10
1252.6157056080646726
 20
44.0981935596773837
 10
1251.477590650225693
 20
40.3463313526982574
 10
1249.6293922460508838
 20
36.8885953396079458
 10
1247.1421356237310647
 20
33.857864376269049
 10
1244.1114046603920542
 20
31.3706077539491162
 10
1240.6536686473018563
 20
29.522409349774307
 10
1236.9018064403226163
 20
28.3842943919354411
 10
1233.0
 20
28.0
 10
980.0
 20
28.0
 10
980.0
 20
28.0
 10
976.0981935596773837
 20
28.3842943919354411
 10
972.3463313526982574
 20
29.522409349774307
 10
968.8885953396079458
 20
31.3706077539491162
 10
965.857864376269049
 20
33.857864376269049
 10
963.3706077539491162
 20
36.8885953396079458
 10
961.522409349774307
 20
40.3463313526982574
 10
960.3842943919354411
 20
44.0981935596773837
 10
960.0
 20
48.0
 10
960.0
 20
279.0
 10
960.0
 20
279.0
 10
960.3842943919354411
 20
282.9018064403225594
 10
961.522409349774307
 20
286.6536686473017994
 10
963.3706077539491162
 20
290.1114046603920542
 10
965.857864376269049
 20
293.142135623730951
 10
968.8885953396079458
 20
295.6293922460508838
 10
972.3463313526981437
 20
297.4775906502257499
 10
976.0981935596773837
 20
298.6157056080646157
 10
980.0
 20
299.0
 97
0
 75
0
 76
1
 47
0.0
 98
0
  0
LWPOLYLINE
  5
61
330
1D
100
AcDbEntity
  8
0
  6
ByLayer
420
1187891
 48
1.0
 60
0
 67
0
370
-1
100
AcDbPolyline
 90
41
 70
1
 43
0.0
 38
0.0
 39
0.0
210
0.0
220
0.0
230
1.0
 10
980.0
 20
299.0
 40
0.0
 41
0.0
 42
0.0
 10
1233.0
 20
299.0
 40
0.0
 41
0.0
 42
0.0
 10
1233.0
 20
299.0
 40
0.0
 41
0.0
 42
0.0
 10
1236.9018064403226163
 20
298.6157056080646157
 40
0.0
 41
0.0
 42
0.0
 10
1240.6536686473018563
 20
297.4775906502257499
 40
0.0
 41
0.0
 42
0.0
 10
1244.1114046603920542
 20
295.6293922460508838
 40
0.0
 41
0.0
 42
0.0
 10
1247.1421356237310647
 20
293.142135623730951
 40
0.0
 41
0.0
 42
0.0
 10
1249.6293922460508838
 20
290.1114046603920542
 40
0.0
 41
0.0
 42
0.0
 10
1251.477590650225693
 20
286.6536686473017994
 40
0.0
 41
0.0
 42
0.0
 10
1252.6157056080646726
 20
282.9018064403225594
 40
0.0
 41
0.0
 42
0.0
 10
1253.0
 20
279.0
 40
0.0
 41
0.0
 42
0.0
 10
1253.0
 20
48.0
 40
0.0
 41
0.0
 42
0.0
 10
1253.0
 20
48.0
 40
0.0
 41
0.0
 42
0.0
 10
1252.6157056080646726
 20
44.0981935596773837
 40
0.0
 41
0.0
 42
0.0
 10
1251.477590650225693
 20
40.3463313526982574
 40
0.0
 41
0.0
 42
0.0
 10
1249.6293922460508838
 20
36.8885953396079458
 40
0.0
 41
0.0
 42
0.0
 10
1247.1421356237310647
 20
33.857864376269049
 40
0.0
 41
0.0
 42
0.0
 10
1244.1114046603920542
 20
31.3706077539491162
 40
0.0
 41
0.0
 42
0.0
 10
1240.6536686473018563
 20
29.522409349774307
 40
0.0
 41
0.0
 42
0.0
 10
1236.9018064403226163
 20
28.3842943919354411
 40
0.0
 41
0.0
 42
0.0
 10
1233.0
 20
28.0
 40
0.0
 41
0.0
 42
0.0
 10
980.0
 20
28.0
 40
0.0
 41
0.0
 42
0.0
 10
980.0
 20
28.0
 40
0.0
 41
0.0
 42
0.0
 10
976.0981935596773837
 20
28.3842943919354411
 40
0.0
 41
0.0
 42
0.0
 10
972.3463313526982574
 20
29.522409349774307
 40
0.0
 41
0.0
 42
0.0
 10
968.8885953396079458
 20
31.3706077539491162
 40
0.0
 41
0.0
 42
0.0
 10
965.857864376269049
 20
33.857864376269049
 40
0.0
 41
0.0
 42
0.0
 10
963.3706077539491162
 20
36.8885953396079458
 40
0.0
 41
0.0
 42
0.0
 10
961.522409349774307
 20
40.3463313526982574
 40
0.0
 41
0.0
 42
0.0
 10
960.3842943919354411
 20
44.0981935596773837
 40
0.0
 41
0.0
 42
0.0
 10
960.0
 20
48.0
 40
0.0
 41
0.0
 42
0.0
 10
960.0
 20
279.0
 40
0.0
 41
0.0
 42
0.0
 10
960.0
 20
279.0
 40
0.0
 41
0.0
 42
0.0
 10
960.3842943919354411
 20
282.9018064403225594
 40
0.0
 41
0.0
 42
0.0
 10
961.522409349774307
 20
286.6536686473017994
 40
0.0
 41
0.0
 42
0.0
 10
963.3706077539491162
 20
290.1114046603920542
 40
0.0
 41
0.0
 42
0.0
 10
965.857864376269049
 20
293.142135623730951
 40
0.0
 41
0.0
 42
0.0
 10
968.8885953396079458
 20
295.6293922460508838
 40
0.0
 41
0.0
 42
0.0
 10
972.3463313526981437
 20
297.4775906502257499
 40
0.0
 41
0.0
 42
0.0
 10
976.0981935596773837
 20
298.6157056080646157
 40
0.0
 41
0.0
 42
0.0
 10
980.0
 20
299.0
 40
0.0
 41
0.0
 42
0.0
  0
HATCH
  5
62
330
1D
100
AcDbEntity
  8
0
  6
ByLayer
420
947344
 48
1.0
 60
0
 67
0
370
-1
100
AcDbHatch
 30
0.0
210
0.0
220
0.0
230
1.0
  2
SOLID
 70
1
 71
0
 91
1
 92
2
 72
0
 73
1
 93
41
 10
993.0
 20
282.0
 10
1220.0
 20
282.0
 10
1220.0
 20
282.0
 10
1223.1214451522580475
 20
281.6925644864517153
 10
1226.1229349178413486
 20
280.7820725201805772
 10
1228.8891237283137343
 20
279.3035137968407184
 10
1231.3137084989848518
 20
277.3137084989847381
 10
1233.3035137968406616
 20
274.8891237283136206
 10
1234.7820725201806908
 20
272.1229349178414623
 10
1235.6925644864516016
 20
269.1214451522580475
 10
1236.0
 20
266.0
 10
1236.0
 20
128.0
 10
1236.0
 20
128.0
 10
1235.6925644864516016
 20
124.8785548477419525
 10
1234.7820725201806908
 20
121.8770650821585377
 10
1233.3035137968406616
 20
119.1108762716863794
 10
1231.3137084989848518
 20
116.6862915010152619
 10
1228.8891237283137343
 20
114.6964862031592247
 10
1226.1229349178413486
 20
113.2179274798194228
 10
1223.1214451522580475
 20
112.3074355135482847
 10
1220.0
 20
112.0
 10
993.0
 20
112.0
 10
993.0
 20
112.0
 10
989.8785548477419525
 20
112.3074355135482847
 10
986.8770650821585377
 20
113.2179274798194228
 10
984.1108762716863794
 20
114.6964862031592247
 10
981.6862915010152619
 20
116.6862915010152619
 10
979.6964862031592247
 20
119.1108762716863794
 10
978.2179274798194228
 20
121.8770650821585377
 10
977.3074355135482847
 20
124.8785548477419525
 10
977.0
 20
128.0
 10
977.0
 20
266.0
 10
977.0
 20
266.0
 10
977.3074355135482847
 20
269.1214451522580475
 10
978.2179274798194228
 20
272.1229349178414623
 10
979.6964862031592247
 20
274.8891237283136206
 10
981.6862915010152619
 20
277.3137084989847381
 10
984.1108762716863794
 20
279.3035137968407184
 10
986.8770650821585377
 20
280.7820725201805772
 10
989.8785548477419525
 20
281.6925644864516585
 10
993.0
 20
282.0
 97
0
 75
0
 76
1
 47
0.0
 98
0
  0
LWPOLYLINE
  5
63
330
1D
100
AcDbEntity
  8
0
  6
ByLayer
420
1187891
 48
1.0
 60
0
 67
0
370
-1
100
AcDbPolyline
 90
41
 70
1
 43
0.0
 38
0.0
 39
0.0
210
0.0
220
0.0
230
1.0
 10
993.0
 20
282.0
 40
0.0
 41
0.0
 42
0.0
 10
1220.0
 20
282.0
 40
0.0
 41
0.0
 42
0.0
 10
1220.0
 20
282.0
 40
0.0
 41
0.0
 42
0.0
 10
1223.1214451522580475
 20
281.6925644864517153
 40
0.0
 41
0.0
 42
0.0
 10
1226.1229349178413486
 20
280.7820725201805772
 40
0.0
 41
0.0
 42
0.0
 10
1228.8891237283137343
 20
279.3035137968407184
 40
0.0
 41
0.0
 42
0.0
 10
1231.3137084989848518
 20
277.3137084989847381
 40
0.0
 41
0.0
 42
0.0
 10
1233.3035137968406616
 20
274.8891237283136206
 40
0.0
 41
0.0
 42
0.0
 10
1234.7820725201806908
 20
272.1229349178414623
 40
0.0
 41
0.0
 42
0.0
 10
1235.6925644864516016
 20
269.1214451522580475
 40
0.0
 41
0.0
 42
0.0
 10
1236.0
 20
266.0
 40
0.0
 41
0.0
 42
0.0
 10
1236.0
 20
128.0
 40
0.0
 41
0.0
 42
0.0
 10
1236.0
 20
128.0
 40
0.0
 41
0.0
 42
0.0
 10
1235.6925644864516016
 20
124.8785548477419525
 40
0.0
 41
0.0
 42
0.0
 10
1234.7820725201806908
 20
121.8770650821585377
 40
0.0
 41
0.0
 42
0.0
 10
1233.3035137968406616
 20
119.1108762716863794
 40
0.0
 41
0.0
 42
0.0
 10
1231.3137084989848518
 20
116.6862915010152619
 40
0.0
 41
0.0
 42
0.0
 10
1228.8891237283137343
 20
114.6964862031592247
 40
0.0
 41
0.0
 42
0.0
 10
1226.1229349178413486
 20
113.2179274798194228
 40
0.0
 41
0.0
 42
0.0
 10
1223.1214451522580475
 20
112.3074355135482847
 40
0.0
 41
0.0
 42
0.0
 10
1220.0
 20
112.0
 40
0.0
 41
0.0
 42
0.0
 10
993.0
 20
112.0
 40
0.0
 41
0.0
 42
0.0
 10
993.0
 20
112.0
 40
0.0
 41
0.0
 42
0.0
 10
989.8785548477419525
 20
112.3074355135482847
 40
0.0
 41
0.0
 42
0.0
 10
986.8770650821585377
 20
113.2179274798194228
 40
0.0
 41
0.0
 42
0.0
 10
984.1108762716863794
 20
114.6964862031592247
 40
0.0
 41
0.0
 42
0.0
 10
981.6862915010152619
 20
116.6862915010152619
 40
0.0
 41
0.0
 42
0.0
 10
979.6964862031592247
 20
119.1108762716863794
 40
0.0
 41
0.0
 42
0.0
 10
978.2179274798194228
 20
121.8770650821585377
 40
0.0
 41
0.0
 42
0.0
 10
977.3074355135482847
 20
124.8785548477419525
 40
0.0
 41
0.0
 42
0.0
 10
977.0
 20
128.0
 40
0.0
 41
0.0
 42
0.0
 10
977.0
 20
266.0
 40
0.0
 41
0.0
 42
0.0
 10
977.0
 20
266.0
 40
0.0
 41
0.0
 42
0.0
 10
977.3074355135482847
 20
269.1214451522580475
 40
0.0
 41
0.0
 42
0.0
 10
978.2179274798194228
 20
272.1229349178414623
 40
0.0
 41
0.0
 42
0.0
 10
979.6964862031592247
 20
274.8891237283136206
 40
0.0
 41
0.0
 42
0.0
 10
981.6862915010152619
 20
277.3137084989847381
 40
0.0
 41
0.0
 42
0.0
 10
984.1108762716863794
 20
279.3035137968407184
 40
0.0
 41
0.0
 42
0.0
 10
986.8770650821585377
 20
280.7820725201805772
 40
0.0
 41
0.0
 42
0.0
 10
989.8785548477419525
 20
281.6925644864516585
 40
0.0
 41
0.0
 42
0.0
 10
993.0
 20
282.0
 40
0.0
 41
0.0
 42
0.0
  0
TEXT
  5
64
330
1D
100
AcDbEntity
  8
0
  6
ByLayer
420
1187891
 48
1.0
 60
0
 67
0
370
-1
100
AcDbText
 39
0.0
 10
976.5
 20
88.125
 30
0.0
 40
14.0
  1
View Box via 
 50
0.0
 41
1.0
 51
0.0
  7
Standard
 71
0
 72
0
 11
0.0
 21
0.0
 31
0.0
210
0.0
220
0.0
230
1.0
100
AcDbText
 73
0
  0
TEXT
  5
65
330
1D
100
AcDbEntity
  8
0
  6
ByLayer
420
998754
 48
1.0
 60
0
 67
0
370
-1
100
AcDbText
 39
0.0
 10
1065.734375
 20
87.625
 30
0.0
 40
12.0
  1
rect()
 50
0.0
 41
1.0
 51
0.0
  7
Standard
 71
0
 72
0
 11
0.0
 21
0.0
 31
0.0
210
0.0
220
0.0
230
1.0
100
AcDbText
 73
0
  0
TEXT
  5
66
330
1D
100
AcDbEntity
  8
0
  6
ByLayer
420
6388113
 48
1.0
 60
0
 67
0
370
-1
100
AcDbText
 39
0.0
 10
976.5
 20
68.625
 30
0.0
 40
12.0
  1
Demonstrates the top/right/bottom/left rectangle
 50
0.0
 41
1.0
 51
0.0
  7
Standard
 71
0
 72
0
 11
0.0
 21
0.0
 31
0.0
210
0.0
220
0.0
230
1.0
100
AcDbText
 73
0
  0
TEXT
  5
67
330
1D
100
AcDbEntity
  8
0
  6
ByLayer
420
6388113
 48
1.0
 60
0
 67
0
370
-1
100
AcDbText
 39
0.0
 10
976.5
 20
51.234375
 30
0.0
 40
12.0
  1
form.
 50
0.0
 41
1.0
 51
0.0
  7
Standard
 71
0
 72
0
 11
0.0
 21
0.0
 31
0.0
210
0.0
220
0.0
230
1.0
100
AcDbText
 73
0
  0
ENDSEC
  0
SECTION
  2
OBJECTS
  0
DICTIONARY
  5
1
330
0
100
AcDbDictionary
280
0
281
0
  3
ACAD_COLOR
350
2
  3
ACAD_GROUP
350
3
  3
ACAD_LAYOUT
350
4
  3
ACAD_MATERIAL
350
5
  3
ACAD_SORTENTS
350
6
  3
ACAD_MLEADERSTYLE
350
7
  3
ACAD_MLINESTYLE
350
8
  3
ACAD_TABLESTYLE
350
9
  3
ACAD_PLOTSETTINGS
350
A
  3
AcDbVariableDictionary
350
B
  3
ACAD_SCALELIST
350
C
  3
ACAD_VISUALSTYLE
350
D
  3
ACAD_FIELDLIST
350
E
  3
ACAD_IMAGE_DICT
350
F
  0
DICTIONARY
  5
2
330
1
100
AcDbDictionary
280
0
281
0
  0
DICTIONARY
  5
3
330
1
100
AcDbDictionary
280
0
281
0
  0
DICTIONARY
  5
4
330
1
100
AcDbDictionary
280
0
281
0
  0
DICTIONARY
  5
5
330
1
100
AcDbDictionary
280
0
281
0
  0
DICTIONARY
  5
6
330
1
100
AcDbDictionary
280
0
281
0
  0
DICTIONARY
  5
7
330
1
100
AcDbDictionary
280
0
281
0
  0
DICTIONARY
  5
8
330
1
100
AcDbDictionary
280
0
281
0
  0
DICTIONARY
  5
9
330
1
100
AcDbDictionary
280
0
281
0
  0
DICTIONARY
  5
A
330
1
100
AcDbDictionary
280
0
281
0
  0
DICTIONARY
  5
B
330
1
100
AcDbDictionary
280
0
281
0
  0
DICTIONARY
  5
C
330
1
100
AcDbDictionary
280
0
281
0
  0
DICTIONARY
  5
D
330
1
100
AcDbDictionary
280
0
281
0
  0
DICTIONARY
  5
E
330
1
100
AcDbDictionary
280
0
281
0
  0
DICTIONARY
  5
F
330
1
100
AcDbDictionary
280
0
281
0
  0
ENDSEC
  0
EOF
