0
SECTION
2
HEADER
9
$ACADVER
1
AC1021
9
$LASTSAVEDBY
1
@tarikjabiri/dxf
9
$HANDSEED
5
6C
9
$INSUNITS
70
0
9
$CLAYER
8
0
9
$VIEWCTR
10
513
20
486.1211541983596
0
ENDSEC
0
SECTION
2
CLASSES
0
ENDSEC
0
SECTION
2
TABLES
0
TABLE
2
VPORT
5
1
330
0
100
AcDbSymbolTable
70
1
0
VPORT
5
19
330
1
100
AcDbSymbolTableRecord
100
AcDbViewportTableRecord
2
*Active
70
0
10
0
20
0
11
1
21
1
12
513
22
486.1211541983596
13
0
23
0
14
10
24
10
15
10
25
10
16
0
26
0
36
1
17
0
27
0
37
0
40
1347.0516028742936
41
2
42
50
43
0
44
0
50
0
51
0
71
0
72
100
73
1
74
3
75
0
76
1
77
0
78
0
281
0
65
1
110
0
120
0
130
0
111
1
121
0
131
0
112
0
122
1
132
0
79
0
146
0
348
10020
60
7
61
5
292
1
282
1
141
0
142
0
63
250
421
3358443
0
ENDTAB
0
TABLE
2
LTYPE
5
2
330
0
100
AcDbSymbolTable
70
3
0
LTYPE
5
12
330
2
100
AcDbSymbolTableRecord
100
AcDbLinetypeTableRecord
2
ByBlock
70
0
3

72
65
73
0
40
0
0
LTYPE
5
13
330
2
100
AcDbSymbolTableRecord
100
AcDbLinetypeTableRecord
2
ByLayer
70
0
3

72
65
73
0
40
0
0
LTYPE
5
14
330
2
100
AcDbSymbolTableRecord
100
AcDbLinetypeTableRecord
2
Continuous
70
0
3
Solid line
72
65
73
0
40
0
0
ENDTAB
0
TABLE
2
LAYER
5
3
330
0
100
AcDbSymbolTable
70
1
0
LAYER
5
15
330
3
100
AcDbSymbolTableRecord
100
AcDbLayerTableRecord
2
0
70
0
62
7
6
Continuous
370
0
390
0
0
ENDTAB
0
TABLE
2
STYLE
5
4
330
0
100
AcDbSymbolTable
70
3
0
STYLE
5
16
330
4
100
AcDbSymbolTableRecord
100
AcDbTextStyleTableRecord
2
Standard
70
0
40
0
41
1
50
0
71
0
42
1
3
txt
4

0
STYLE
5
1B
330
4
100
AcDbSymbolTableRecord
100
AcDbTextStyleTableRecord
2
Arial
70
0
40
0
41
1
50
0
71
0
42
1
3
Arial.ttf
4

0
STYLE
5
28
330
4
100
AcDbSymbolTableRecord
100
AcDbTextStyleTableRecord
2
Consolas
70
0
40
0
41
1
50
0
71
0
42
1
3
Consolas.ttf
4

0
ENDTAB
0
TABLE
2
VIEW
5
5
330
0
100
AcDbSymbolTable
70
0
0
ENDTAB
0
TABLE
2
UCS
5
6
330
0
100
AcDbSymbolTable
70
0
0
ENDTAB
0
TABLE
2
APPID
5
7
330
0
100
AcDbSymbolTable
70
1
0
APPID
5
17
330
7
100
AcDbSymbolTableRecord
100
AcDbRegAppTableRecord
2
ACAD
70
0
0
ENDTAB
0
TABLE
2
DIMSTYLE
5
8
330
0
100
AcDbSymbolTable
70
1
100
AcDbDimStyleTable
0
DIMSTYLE
105
18
330
8
100
AcDbSymbolTableRecord
100
AcDbDimStyleTableRecord
2
Standard
70
0
340
16
0
ENDTAB
0
TABLE
2
BLOCK_RECORD
5
9
330
0
100
AcDbSymbolTable
70
2
0
BLOCK_RECORD
5
C
330
9
100
AcDbSymbolTableRecord
100
AcDbBlockTableRecord
2
*Model_Space
70
0
280
1
281
0
0
BLOCK_RECORD
5
F
330
9
100
AcDbSymbolTableRecord
100
AcDbBlockTableRecord
2
*Paper_Space
70
0
280
1
281
0
0
ENDTAB
0
ENDSEC
0
SECTION
2
BLOCKS
0
BLOCK
5
D
330
C
100
AcDbEntity
8
0
100
AcDbBlockBegin
2
*Model_Space
70
0
10
0
20
0
30
0
3
*Model_Space
1

0
ENDBLK
5
E
100
AcDbEntity
8
0
100
AcDbBlockEnd
0
BLOCK
5
10
330
F
100
AcDbEntity
8
0
100
AcDbBlockBegin
2
*Paper_Space
70
0
10
0
20
0
30
0
3
*Paper_Space
1

0
ENDBLK
5
11
100
AcDbEntity
8
0
100
AcDbBlockEnd
0
ENDSEC
0
SECTION
2
ENTITIES
0
TEXT
5
1A
330
C
100
AcDbEntity
420
1187891
8
0
100
AcDbText
10
28
20
738.5
30
0
40
24
1
Object Fit, Position, and View Box
7
Arial
100
AcDbText
0
TEXT
5
1C
330
C
100
AcDbEntity
420
4808824
8
0
100
AcDbText
10
28
20
706.5
30
0
40
16
1
This demo combines all `object-fit` modes with keyword, percentage, and four-value `object-position` placements. The last row
7
Arial
100
AcDbText
0
TEXT
5
1D
330
C
100
AcDbEntity
420
4808824
8
0
100
AcDbText
10
28
20
681.703125
30
0
40
16
1
also shows `object-view-box` crops using the three rectangle syntaxes.
7
Arial
100
AcDbText
0
LWPOLYLINE
5
1E
330
C
100
AcDbEntity
420
1187891
8
0
100
AcDbPolyline
90
42
70
0
43
0
38
0
39
0
10
42
20
652
10
1238
20
652
10
1238
20
652
10
1240.7312645082259
20
651.7309939256452
10
1243.3575680531112
20
650.934313455158
10
1245.7779832622743
20
649.6405745722357
10
1247.8994949366117
20
647.8994949366116
10
1249.6405745722357
20
645.7779832622745
10
1250.934313455158
20
643.3575680531112
10
1251.7309939256452
20
640.7312645082258
10
1252
20
638
10
1252
20
625
10
1252
20
625
10
1251.7309939256452
20
622.2687354917742
10
1250.934313455158
20
619.6424319468888
10
1249.6405745722357
20
617.2220167377255
10
1247.8994949366117
20
615.1005050633884
10
1245.7779832622743
20
613.3594254277643
10
1243.3575680531112
20
612.065686544842
10
1240.7312645082259
20
611.2690060743548
10
1238
20
611
10
42
20
611
10
42
20
611
10
39.26873549177421
20
611.2690060743548
10
36.64243194688874
20
612.065686544842
10
34.222016737725575
20
613.3594254277643
10
32.10050506338834
20
615.1005050633884
10
30.359425427764364
20
617.2220167377255
10
29.065686544841988
20
619.6424319468888
10
28.269006074354774
20
622.2687354917742
10
28
20
625
10
28
20
638
10
28
20
638
10
28.269006074354774
20
640.7312645082258
10
29.065686544841984
20
643.3575680531112
10
30.359425427764364
20
645.7779832622745
10
32.10050506338833
20
647.8994949366116
10
34.22201673772557
20
649.6405745722357
10
36.642431946888735
20
650.934313455158
10
39.2687354917742
20
651.7309939256452
10
42
20
652
10
42
20
652
0
TEXT
5
1F
330
C
100
AcDbEntity
420
3428459
8
0
100
AcDbText
10
43
20
628.65625
30
0
40
13
1
`object-view-box` is only exposed by Chromium-class browsers today. The demo still loads elsewhere, but those cards will fall back to the uncropped image when the browser does not support the property.
7
Arial
100
AcDbText
0
LWPOLYLINE
5
20
330
C
100
AcDbEntity
420
1187891
8
0
100
AcDbPolyline
90
42
70
0
43
0
38
0
39
0
10
48
20
587
10
301
20
587
10
301
20
587
10
304.90180644032256
20
586.6157056080647
10
308.6536686473018
20
585.4775906502257
10
312.11140466039205
20
583.6293922460509
10
315.14213562373095
20
581.142135623731
10
317.6293922460509
20
578.111404660392
10
319.47759065022575
20
574.6536686473019
10
320.6157056080646
20
570.9018064403226
10
321
20
567
10
321
20
336
10
321
20
336
10
320.6157056080646
20
332.09819355967744
10
319.47759065022575
20
328.3463313526982
10
317.6293922460509
20
324.88859533960795
10
315.14213562373095
20
321.85786437626905
10
312.11140466039205
20
319.3706077539491
10
308.6536686473018
20
317.52240934977425
10
304.90180644032256
20
316.3842943919354
10
301
20
316
10
48
20
316
10
48
20
316
10
44.09819355967743
20
316.3842943919354
10
40.34633135269821
20
317.52240934977425
10
36.88859533960796
20
319.3706077539491
10
33.85786437626905
20
321.85786437626905
10
31.370607753949095
20
324.88859533960795
10
29.522409349774264
20
328.3463313526982
10
28.38429439193539
20
332.09819355967744
10
28
20
336
10
28
20
567
10
28
20
567
10
28.38429439193539
20
570.9018064403226
10
29.522409349774264
20
574.6536686473019
10
31.37060775394909
20
578.111404660392
10
33.85786437626905
20
581.142135623731
10
36.88859533960796
20
583.6293922460509
10
40.34633135269819
20
585.4775906502257
10
44.098193559677426
20
586.6157056080647
10
47.99999999999999
20
587
10
48
20
587
0
LWPOLYLINE
5
21
330
C
100
AcDbEntity
420
1187891
8
0
100
AcDbPolyline
90
42
70
0
43
0
38
0
39
0
10
61
20
570
10
288
20
570
10
288
20
570
10
291.12144515225805
20
569.6925644864517
10
294.12293491784146
20
568.7820725201806
10
296.8891237283136
20
567.3035137968407
10
299.31370849898474
20
565.3137084989847
10
301.3035137968407
20
562.8891237283136
10
302.7820725201806
20
560.1229349178415
10
303.6925644864517
20
557.121445152258
10
304
20
554
10
304
20
416
10
304
20
416
10
303.6925644864517
20
412.87855484774195
10
302.7820725201806
20
409.87706508215854
10
301.3035137968407
20
407.1108762716864
10
299.31370849898474
20
404.68629150101526
10
296.8891237283136
20
402.6964862031593
10
294.12293491784146
20
401.2179274798194
10
291.12144515225805
20
400.3074355135483
10
288
20
400
10
61
20
400
10
61
20
400
10
57.87855484774195
20
400.3074355135483
10
54.877065082158566
20
401.2179274798194
10
52.110876271686365
20
402.6964862031593
10
49.68629150101524
20
404.68629150101526
10
47.696486203159274
20
407.1108762716864
10
46.21792747981941
20
409.87706508215854
10
45.30743551354831
20
412.87855484774195
10
45
20
416
10
45
20
554
10
45
20
554
10
45.30743551354831
20
557.121445152258
10
46.21792747981941
20
560.1229349178415
10
47.696486203159274
20
562.8891237283136
10
49.68629150101523
20
565.3137084989847
10
52.110876271686365
20
567.3035137968407
10
54.87706508215855
20
568.7820725201806
10
57.87855484774194
20
569.6925644864517
10
61
20
570
10
61
20
570
0
IMAGE
5
23
330
C
100
AcDbEntity
8
0
100
AcDbRasterImage
90
0
10
47
20
568
30
0
11
1
21
0
31
0
12
0
22
1
32
0
13
255
23
166
340
22
70
3
280
1
281
50
282
50
283
0
360
24
71
1
91
2
14
-0.5
24
-0.5
14
254.5
24
165.5
290
1
0
TEXT
5
26
330
C
100
AcDbEntity
420
1187891
8
0
100
AcDbText
10
45
20
376.90625
30
0
40
14
1
Fill
7
Arial
100
AcDbText
0
TEXT
5
27
330
C
100
AcDbEntity
420
998754
8
0
100
AcDbText
10
45
20
357.40625
30
0
40
12
1
object-fit: fill
7
Consolas
100
AcDbText
0
TEXT
5
29
330
C
100
AcDbEntity
420
6388113
8
0
100
AcDbText
10
45
20
340.015625
30
0
40
12
1
Stretches the source to the frame.
7
Arial
100
AcDbText
0
LWPOLYLINE
5
2A
330
C
100
AcDbEntity
420
1187891
8
0
100
AcDbPolyline
90
42
70
0
43
0
38
0
39
0
10
359
20
587
10
612
20
587
10
612
20
587
10
615.9018064403226
20
586.6157056080647
10
619.6536686473017
20
585.4775906502257
10
623.111404660392
20
583.6293922460509
10
626.142135623731
20
581.142135623731
10
628.6293922460509
20
578.111404660392
10
630.4775906502257
20
574.6536686473019
10
631.6157056080646
20
570.9018064403226
10
632
20
567
10
632
20
336
10
632
20
336
10
631.6157056080646
20
332.09819355967744
10
630.4775906502257
20
328.3463313526982
10
628.6293922460509
20
324.88859533960795
10
626.142135623731
20
321.85786437626905
10
623.111404660392
20
319.3706077539491
10
619.6536686473017
20
317.52240934977425
10
615.9018064403226
20
316.3842943919354
10
612
20
316
10
359
20
316
10
359
20
316
10
355.09819355967744
20
316.3842943919354
10
351.3463313526982
20
317.52240934977425
10
347.88859533960795
20
319.3706077539491
10
344.85786437626905
20
321.85786437626905
10
342.3706077539491
20
324.88859533960795
10
340.52240934977425
20
328.3463313526982
10
339.3842943919354
20
332.09819355967744
10
339
20
336
10
339
20
567
10
339
20
567
10
339.3842943919354
20
570.9018064403226
10
340.52240934977425
20
574.6536686473019
10
342.3706077539491
20
578.111404660392
10
344.85786437626905
20
581.142135623731
10
347.88859533960795
20
583.6293922460509
10
351.3463313526982
20
585.4775906502257
10
355.09819355967744
20
586.6157056080647
10
359
20
587
10
359
20
587
0
LWPOLYLINE
5
2B
330
C
100
AcDbEntity
420
1187891
8
0
100
AcDbPolyline
90
42
70
0
43
0
38
0
39
0
10
372
20
570
10
599
20
570
10
599
20
570
10
602.121445152258
20
569.6925644864517
10
605.1229349178415
20
568.7820725201806
10
607.8891237283136
20
567.3035137968407
10
610.3137084989847
20
565.3137084989847
10
612.3035137968408
20
562.8891237283136
10
613.7820725201806
20
560.1229349178415
10
614.6925644864517
20
557.121445152258
10
615
20
554
10
615
20
416
10
615
20
416
10
614.6925644864517
20
412.87855484774195
10
613.7820725201806
20
409.87706508215854
10
612.3035137968408
20
407.1108762716864
10
610.3137084989847
20
404.68629150101526
10
607.8891237283136
20
402.6964862031593
10
605.1229349178415
20
401.2179274798194
10
602.121445152258
20
400.3074355135483
10
599
20
400
10
372
20
400
10
372
20
400
10
368.87855484774195
20
400.3074355135483
10
365.87706508215854
20
401.2179274798194
10
363.1108762716864
20
402.6964862031593
10
360.68629150101526
20
404.68629150101526
10
358.6964862031593
20
407.1108762716864
10
357.2179274798194
20
409.87706508215854
10
356.3074355135483
20
412.87855484774195
10
356
20
416
10
356
20
554
10
356
20
554
10
356.3074355135483
20
557.121445152258
10
357.2179274798194
20
560.1229349178415
10
358.6964862031593
20
562.8891237283136
10
360.68629150101526
20
565.3137084989847
10
363.1108762716864
20
567.3035137968407
10
365.87706508215854
20
568.7820725201806
10
368.87855484774195
20
569.6925644864517
10
372
20
570
10
372
20
570
0
IMAGE
5
2D
330
C
100
AcDbEntity
8
0
100
AcDbRasterImage
90
0
10
295
20
765
30
0
11
1
21
0
31
0
12
0
22
1
32
0
13
300
23
351
340
2C
70
3
280
1
281
50
282
50
283
0
360
2E
71
1
91
2
14
-0.5
24
-0.5
14
299.5
24
350.5
290
1
0
TEXT
5
30
330
C
100
AcDbEntity
420
1187891
8
0
100
AcDbText
10
355.5
20
376.90625
30
0
40
14
1
None + Four-Value Offset
7
Arial
100
AcDbText
0
TEXT
5
31
330
C
100
AcDbEntity
420
998754
8
0
100
AcDbText
10
355.5
20
357.40625
30
0
40
12
1
object-fit: none
7
Consolas
100
AcDbText
0
TEXT
5
32
330
C
100
AcDbEntity
420
998754
8
0
100
AcDbText
10
355.5
20
340.015625
30
0
40
12
1
object-position: right 18px bottom 12px
7
Consolas
100
AcDbText
0
LWPOLYLINE
5
33
330
C
100
AcDbEntity
420
1187891
8
0
100
AcDbPolyline
90
42
70
0
43
0
38
0
39
0
10
669
20
587
10
922
20
587
10
922
20
587
10
925.9018064403226
20
586.6157056080647
10
929.6536686473017
20
585.4775906502257
10
933.111404660392
20
583.6293922460509
10
936.142135623731
20
581.142135623731
10
938.6293922460509
20
578.111404660392
10
940.4775906502257
20
574.6536686473019
10
941.6157056080646
20
570.9018064403226
10
942
20
567
10
942
20
336
10
942
20
336
10
941.6157056080646
20
332.09819355967744
10
940.4775906502257
20
328.3463313526982
10
938.6293922460509
20
324.88859533960795
10
936.142135623731
20
321.85786437626905
10
933.111404660392
20
319.3706077539491
10
929.6536686473017
20
317.52240934977425
10
925.9018064403226
20
316.3842943919354
10
922
20
316
10
669
20
316
10
669
20
316
10
665.0981935596774
20
316.3842943919354
10
661.3463313526983
20
317.52240934977425
10
657.888595339608
20
319.3706077539491
10
654.857864376269
20
321.85786437626905
10
652.3706077539491
20
324.88859533960795
10
650.5224093497743
20
328.3463313526982
10
649.3842943919354
20
332.09819355967744
10
649
20
336
10
649
20
567
10
649
20
567
10
649.3842943919354
20
570.9018064403226
10
650.5224093497743
20
574.6536686473019
10
652.3706077539491
20
578.111404660392
10
654.857864376269
20
581.142135623731
10
657.888595339608
20
583.6293922460509
10
661.3463313526981
20
585.4775906502257
10
665.0981935596774
20
586.6157056080647
10
669
20
587
10
669
20
587
0
LWPOLYLINE
5
34
330
C
100
AcDbEntity
420
1187891
8
0
100
AcDbPolyline
90
42
70
0
43
0
38
0
39
0
10
682
20
570
10
909
20
570
10
909
20
570
10
912.121445152258
20
569.6925644864517
10
915.1229349178415
20
568.7820725201806
10
917.8891237283136
20
567.3035137968407
10
920.3137084989847
20
565.3137084989847
10
922.3035137968408
20
562.8891237283136
10
923.7820725201806
20
560.1229349178415
10
924.6925644864517
20
557.121445152258
10
925
20
554
10
925
20
416
10
925
20
416
10
924.6925644864517
20
412.87855484774195
10
923.7820725201806
20
409.87706508215854
10
922.3035137968408
20
407.1108762716864
10
920.3137084989847
20
404.68629150101526
10
917.8891237283136
20
402.6964862031593
10
915.1229349178415
20
401.2179274798194
10
912.121445152258
20
400.3074355135483
10
909
20
400
10
682
20
400
10
682
20
400
10
678.878554847742
20
400.3074355135483
10
675.8770650821585
20
401.2179274798194
10
673.1108762716864
20
402.6964862031593
10
670.6862915010153
20
404.68629150101526
10
668.6964862031592
20
407.1108762716864
10
667.2179274798194
20
409.87706508215854
10
666.3074355135483
20
412.87855484774195
10
666
20
416
10
666
20
554
10
666
20
554
10
666.3074355135483
20
557.121445152258
10
667.2179274798194
20
560.1229349178415
10
668.6964862031592
20
562.8891237283136
10
670.6862915010153
20
565.3137084989847
10
673.1108762716864
20
567.3035137968407
10
675.8770650821585
20
568.7820725201806
10
678.878554847742
20
569.6925644864517
10
682
20
570
10
682
20
570
0
IMAGE
5
36
330
C
100
AcDbEntity
8
0
100
AcDbRasterImage
90
0
10
668
20
568
30
0
11
0.9991573371855065
21
0
31
0
12
0
22
0.9991573371855065
32
0
13
142
23
166
340
35
70
3
280
1
281
50
282
50
283
0
360
37
71
1
91
2
14
-0.5
24
-0.5
14
141.5
24
165.5
290
1
0
TEXT
5
39
330
C
100
AcDbEntity
420
1187891
8
0
100
AcDbText
10
666
20
376.90625
30
0
40
14
1
Contain + Keywords
7
Arial
100
AcDbText
0
TEXT
5
3A
330
C
100
AcDbEntity
420
998754
8
0
100
AcDbText
10
666
20
357.40625
30
0
40
12
1
object-fit: contain
7
Consolas
100
AcDbText
0
TEXT
5
3B
330
C
100
AcDbEntity
420
998754
8
0
100
AcDbText
10
666
20
340.015625
30
0
40
12
1
object-position: left top
7
Consolas
100
AcDbText
0
LWPOLYLINE
5
3C
330
C
100
AcDbEntity
420
1187891
8
0
100
AcDbPolyline
90
42
70
0
43
0
38
0
39
0
10
980
20
587
10
1233
20
587
10
1233
20
587
10
1236.9018064403226
20
586.6157056080647
10
1240.6536686473019
20
585.4775906502257
10
1244.111404660392
20
583.6293922460509
10
1247.142135623731
20
581.142135623731
10
1249.6293922460509
20
578.111404660392
10
1251.4775906502257
20
574.6536686473019
10
1252.6157056080647
20
570.9018064403226
10
1253
20
567
10
1253
20
336
10
1253
20
336
10
1252.6157056080647
20
332.09819355967744
10
1251.4775906502257
20
328.3463313526982
10
1249.6293922460509
20
324.88859533960795
10
1247.142135623731
20
321.85786437626905
10
1244.111404660392
20
319.3706077539491
10
1240.6536686473019
20
317.52240934977425
10
1236.9018064403226
20
316.3842943919354
10
1233
20
316
10
980
20
316
10
980
20
316
10
976.0981935596774
20
316.3842943919354
10
972.3463313526983
20
317.52240934977425
10
968.888595339608
20
319.3706077539491
10
965.857864376269
20
321.85786437626905
10
963.3706077539491
20
324.88859533960795
10
961.5224093497743
20
328.3463313526982
10
960.3842943919354
20
332.09819355967744
10
960
20
336
10
960
20
567
10
960
20
567
10
960.3842943919354
20
570.9018064403226
10
961.5224093497743
20
574.6536686473019
10
963.3706077539491
20
578.111404660392
10
965.857864376269
20
581.142135623731
10
968.888595339608
20
583.6293922460509
10
972.3463313526981
20
585.4775906502257
10
976.0981935596774
20
586.6157056080647
10
980
20
587
10
980
20
587
0
LWPOLYLINE
5
3D
330
C
100
AcDbEntity
420
1187891
8
0
100
AcDbPolyline
90
42
70
0
43
0
38
0
39
0
10
993
20
570
10
1220
20
570
10
1220
20
570
10
1223.121445152258
20
569.6925644864517
10
1226.1229349178413
20
568.7820725201806
10
1228.8891237283137
20
567.3035137968407
10
1231.3137084989849
20
565.3137084989847
10
1233.3035137968407
20
562.8891237283136
10
1234.7820725201807
20
560.1229349178415
10
1235.6925644864516
20
557.121445152258
10
1236
20
554
10
1236
20
416
10
1236
20
416
10
1235.6925644864516
20
412.87855484774195
10
1234.7820725201807
20
409.87706508215854
10
1233.3035137968407
20
407.1108762716864
10
1231.3137084989849
20
404.68629150101526
10
1228.8891237283137
20
402.6964862031593
10
1226.1229349178413
20
401.2179274798194
10
1223.121445152258
20
400.3074355135483
10
1220
20
400
10
993
20
400
10
993
20
400
10
989.878554847742
20
400.3074355135483
10
986.8770650821585
20
401.2179274798194
10
984.1108762716864
20
402.6964862031593
10
981.6862915010153
20
404.68629150101526
10
979.6964862031592
20
407.1108762716864
10
978.2179274798194
20
409.87706508215854
10
977.3074355135483
20
412.87855484774195
10
977
20
416
10
977
20
554
10
977
20
554
10
977.3074355135483
20
557.121445152258
10
978.2179274798194
20
560.1229349178415
10
979.6964862031592
20
562.8891237283136
10
981.6862915010153
20
565.3137084989847
10
984.1108762716864
20
567.3035137968407
10
986.8770650821585
20
568.7820725201806
10
989.878554847742
20
569.6925644864517
10
993
20
570
10
993
20
570
0
IMAGE
5
3F
330
C
100
AcDbEntity
8
0
100
AcDbRasterImage
90
0
10
979
20
568
30
0
11
1
21
0
31
0
12
0
22
1
32
0
13
255
23
166
340
3E
70
3
280
1
281
50
282
50
283
0
360
40
71
1
91
2
14
-0.5
24
-0.5
14
254.5
24
165.5
290
1
0
TEXT
5
42
330
C
100
AcDbEntity
420
1187891
8
0
100
AcDbText
10
976.5
20
376.90625
30
0
40
14
1
Cover + Percentages
7
Arial
100
AcDbText
0
TEXT
5
43
330
C
100
AcDbEntity
420
998754
8
0
100
AcDbText
10
976.5
20
357.40625
30
0
40
12
1
object-fit: cover
7
Consolas
100
AcDbText
0
TEXT
5
44
330
C
100
AcDbEntity
420
998754
8
0
100
AcDbText
10
976.5
20
340.015625
30
0
40
12
1
object-position: 18% 78%
7
Consolas
100
AcDbText
0
LWPOLYLINE
5
45
330
C
100
AcDbEntity
420
1187891
8
0
100
AcDbPolyline
90
42
70
0
43
0
38
0
39
0
10
48
20
299
10
301
20
299
10
301
20
299
10
304.90180644032256
20
298.6157056080646
10
308.6536686473018
20
297.47759065022575
10
312.11140466039205
20
295.6293922460509
10
315.14213562373095
20
293.14213562373095
10
317.6293922460509
20
290.11140466039205
10
319.47759065022575
20
286.6536686473018
10
320.6157056080646
20
282.90180644032256
10
321
20
279
10
321
20
48
10
321
20
48
10
320.6157056080646
20
44.098193559677384
10
319.47759065022575
20
40.34633135269826
10
317.6293922460509
20
36.888595339607946
10
315.14213562373095
20
33.85786437626905
10
312.11140466039205
20
31.370607753949116
10
308.6536686473018
20
29.522409349774307
10
304.90180644032256
20
28.38429439193544
10
301
20
28
10
48
20
28
10
48
20
28
10
44.09819355967743
20
28.38429439193544
10
40.34633135269821
20
29.522409349774307
10
36.88859533960796
20
31.370607753949116
10
33.85786437626905
20
33.85786437626905
10
31.370607753949095
20
36.888595339607946
10
29.522409349774264
20
40.34633135269826
10
28.38429439193539
20
44.098193559677384
10
28
20
48
10
28
20
279
10
28
20
279
10
28.38429439193539
20
282.90180644032256
10
29.522409349774264
20
286.6536686473018
10
31.37060775394909
20
290.11140466039205
10
33.85786437626905
20
293.14213562373095
10
36.88859533960796
20
295.6293922460509
10
40.34633135269819
20
297.47759065022575
10
44.098193559677426
20
298.6157056080646
10
47.99999999999999
20
299
10
48
20
299
0
LWPOLYLINE
5
46
330
C
100
AcDbEntity
420
1187891
8
0
100
AcDbPolyline
90
42
70
0
43
0
38
0
39
0
10
61
20
282
10
288
20
282
10
288
20
282
10
291.12144515225805
20
281.6925644864517
10
294.12293491784146
20
280.7820725201806
10
296.8891237283136
20
279.3035137968407
10
299.31370849898474
20
277.31370849898474
10
301.3035137968407
20
274.8891237283136
10
302.7820725201806
20
272.12293491784146
10
303.6925644864517
20
269.12144515225805
10
304
20
266
10
304
20
128
10
304
20
128
10
303.6925644864517
20
124.87855484774195
10
302.7820725201806
20
121.87706508215854
10
301.3035137968407
20
119.11087627168638
10
299.31370849898474
20
116.68629150101526
10
296.8891237283136
20
114.69648620315922
10
294.12293491784146
20
113.21792747981942
10
291.12144515225805
20
112.30743551354828
10
288
20
112
10
61
20
112
10
61
20
112
10
57.87855484774195
20
112.30743551354828
10
54.877065082158566
20
113.21792747981942
10
52.110876271686365
20
114.69648620315922
10
49.68629150101524
20
116.68629150101526
10
47.696486203159274
20
119.11087627168638
10
46.21792747981941
20
121.87706508215854
10
45.30743551354831
20
124.87855484774195
10
45
20
128
10
45
20
266
10
45
20
266
10
45.30743551354831
20
269.12144515225805
10
46.21792747981941
20
272.12293491784146
10
47.696486203159274
20
274.8891237283136
10
49.68629150101523
20
277.31370849898474
10
52.110876271686365
20
279.3035137968407
10
54.87706508215855
20
280.7820725201806
10
57.87855484774194
20
281.69256448645166
10
61
20
282
10
61
20
282
0
IMAGE
5
48
330
C
100
AcDbEntity
8
0
100
AcDbRasterImage
90
0
10
162
20
252
30
0
11
1
21
0
31
0
12
0
22
1
32
0
13
128
23
128
340
47
70
3
280
1
281
50
282
50
283
0
360
49
71
1
91
2
14
-0.5
24
-0.5
14
127.5
24
127.5
290
1
0
TEXT
5
4B
330
C
100
AcDbEntity
420
1187891
8
0
100
AcDbText
10
45
20
88.125
30
0
40
14
1
Scale-Down + Offset
7
Arial
100
AcDbText
0
TEXT
5
4C
330
C
100
AcDbEntity
420
998754
8
0
100
AcDbText
10
45
20
68.625
30
0
40
12
1
object-fit: scale-down
7
Consolas
100
AcDbText
0
TEXT
5
4D
330
C
100
AcDbEntity
420
998754
8
0
100
AcDbText
10
45
20
51.234375
30
0
40
12
1
object-position: right 12px bottom 10px
7
Consolas
100
AcDbText
0
LWPOLYLINE
5
4E
330
C
100
AcDbEntity
420
1187891
8
0
100
AcDbPolyline
90
42
70
0
43
0
38
0
39
0
10
359
20
299
10
612
20
299
10
612
20
299
10
615.9018064403226
20
298.6157056080646
10
619.6536686473017
20
297.47759065022575
10
623.111404660392
20
295.6293922460509
10
626.142135623731
20
293.14213562373095
10
628.6293922460509
20
290.11140466039205
10
630.4775906502257
20
286.6536686473018
10
631.6157056080646
20
282.90180644032256
10
632
20
279
10
632
20
48
10
632
20
48
10
631.6157056080646
20
44.098193559677384
10
630.4775906502257
20
40.34633135269826
10
628.6293922460509
20
36.888595339607946
10
626.142135623731
20
33.85786437626905
10
623.111404660392
20
31.370607753949116
10
619.6536686473017
20
29.522409349774307
10
615.9018064403226
20
28.38429439193544
10
612
20
28
10
359
20
28
10
359
20
28
10
355.09819355967744
20
28.38429439193544
10
351.3463313526982
20
29.522409349774307
10
347.88859533960795
20
31.370607753949116
10
344.85786437626905
20
33.85786437626905
10
342.3706077539491
20
36.888595339607946
10
340.52240934977425
20
40.34633135269826
10
339.3842943919354
20
44.098193559677384
10
339
20
48
10
339
20
279
10
339
20
279
10
339.3842943919354
20
282.90180644032256
10
340.52240934977425
20
286.6536686473018
10
342.3706077539491
20
290.11140466039205
10
344.85786437626905
20
293.14213562373095
10
347.88859533960795
20
295.6293922460509
10
351.3463313526982
20
297.47759065022575
10
355.09819355967744
20
298.6157056080646
10
359
20
299
10
359
20
299
0
LWPOLYLINE
5
4F
330
C
100
AcDbEntity
420
1187891
8
0
100
AcDbPolyline
90
42
70
0
43
0
38
0
39
0
10
372
20
282
10
599
20
282
10
599
20
282
10
602.121445152258
20
281.6925644864517
10
605.1229349178415
20
280.7820725201806
10
607.8891237283136
20
279.3035137968407
10
610.3137084989847
20
277.31370849898474
10
612.3035137968408
20
274.8891237283136
10
613.7820725201806
20
272.12293491784146
10
614.6925644864517
20
269.12144515225805
10
615
20
266
10
615
20
128
10
615
20
128
10
614.6925644864517
20
124.87855484774195
10
613.7820725201806
20
121.87706508215854
10
612.3035137968408
20
119.11087627168638
10
610.3137084989847
20
116.68629150101526
10
607.8891237283136
20
114.69648620315922
10
605.1229349178415
20
113.21792747981942
10
602.121445152258
20
112.30743551354828
10
599
20
112
10
372
20
112
10
372
20
112
10
368.87855484774195
20
112.30743551354828
10
365.87706508215854
20
113.21792747981942
10
363.1108762716864
20
114.69648620315922
10
360.68629150101526
20
116.68629150101526
10
358.6964862031593
20
119.11087627168638
10
357.2179274798194
20
121.87706508215854
10
356.3074355135483
20
124.87855484774195
10
356
20
128
10
356
20
266
10
356
20
266
10
356.3074355135483
20
269.12144515225805
10
357.2179274798194
20
272.12293491784146
10
358.6964862031593
20
274.8891237283136
10
360.68629150101526
20
277.31370849898474
10
363.1108762716864
20
279.3035137968407
10
365.87706508215854
20
280.7820725201806
10
368.87855484774195
20
281.69256448645166
10
372
20
282
10
372
20
282
0
IMAGE
5
51
330
C
100
AcDbEntity
8
0
100
AcDbRasterImage
90
0
10
358
20
280
30
0
11
1
21
0
31
0
12
0
22
1
32
0
13
255
23
166
340
50
70
3
280
1
281
50
282
50
283
0
360
52
71
1
91
2
14
-0.5
24
-0.5
14
254.5
24
165.5
290
1
0
TEXT
5
54
330
C
100
AcDbEntity
420
1187891
8
0
100
AcDbText
10
355.5
20
88.125
30
0
40
14
1
View Box via 
7
Arial
100
AcDbText
0
TEXT
5
55
330
C
100
AcDbEntity
420
998754
8
0
100
AcDbText
10
444.734375
20
87.625
30
0
40
12
1
inset()
7
Consolas
100
AcDbText
0
TEXT
5
56
330
C
100
AcDbEntity
420
6388113
8
0
100
AcDbText
10
355.5
20
68.625
30
0
40
12
1
Crops the intrinsic image before fitting it into the
7
Arial
100
AcDbText
0
TEXT
5
57
330
C
100
AcDbEntity
420
6388113
8
0
100
AcDbText
10
355.5
20
51.234375
30
0
40
12
1
frame.
7
Arial
100
AcDbText
0
LWPOLYLINE
5
58
330
C
100
AcDbEntity
420
1187891
8
0
100
AcDbPolyline
90
42
70
0
43
0
38
0
39
0
10
669
20
299
10
922
20
299
10
922
20
299
10
925.9018064403226
20
298.6157056080646
10
929.6536686473017
20
297.47759065022575
10
933.111404660392
20
295.6293922460509
10
936.142135623731
20
293.14213562373095
10
938.6293922460509
20
290.11140466039205
10
940.4775906502257
20
286.6536686473018
10
941.6157056080646
20
282.90180644032256
10
942
20
279
10
942
20
48
10
942
20
48
10
941.6157056080646
20
44.098193559677384
10
940.4775906502257
20
40.34633135269826
10
938.6293922460509
20
36.888595339607946
10
936.142135623731
20
33.85786437626905
10
933.111404660392
20
31.370607753949116
10
929.6536686473017
20
29.522409349774307
10
925.9018064403226
20
28.38429439193544
10
922
20
28
10
669
20
28
10
669
20
28
10
665.0981935596774
20
28.38429439193544
10
661.3463313526983
20
29.522409349774307
10
657.888595339608
20
31.370607753949116
10
654.857864376269
20
33.85786437626905
10
652.3706077539491
20
36.888595339607946
10
650.5224093497743
20
40.34633135269826
10
649.3842943919354
20
44.098193559677384
10
649
20
48
10
649
20
279
10
649
20
279
10
649.3842943919354
20
282.90180644032256
10
650.5224093497743
20
286.6536686473018
10
652.3706077539491
20
290.11140466039205
10
654.857864376269
20
293.14213562373095
10
657.888595339608
20
295.6293922460509
10
661.3463313526981
20
297.47759065022575
10
665.0981935596774
20
298.6157056080646
10
669
20
299
10
669
20
299
0
LWPOLYLINE
5
59
330
C
100
AcDbEntity
420
1187891
8
0
100
AcDbPolyline
90
42
70
0
43
0
38
0
39
0
10
682
20
282
10
909
20
282
10
909
20
282
10
912.121445152258
20
281.6925644864517
10
915.1229349178415
20
280.7820725201806
10
917.8891237283136
20
279.3035137968407
10
920.3137084989847
20
277.31370849898474
10
922.3035137968408
20
274.8891237283136
10
923.7820725201806
20
272.12293491784146
10
924.6925644864517
20
269.12144515225805
10
925
20
266
10
925
20
128
10
925
20
128
10
924.6925644864517
20
124.87855484774195
10
923.7820725201806
20
121.87706508215854
10
922.3035137968408
20
119.11087627168638
10
920.3137084989847
20
116.68629150101526
10
917.8891237283136
20
114.69648620315922
10
915.1229349178415
20
113.21792747981942
10
912.121445152258
20
112.30743551354828
10
909
20
112
10
682
20
112
10
682
20
112
10
678.878554847742
20
112.30743551354828
10
675.8770650821585
20
113.21792747981942
10
673.1108762716864
20
114.69648620315922
10
670.6862915010153
20
116.68629150101526
10
668.6964862031592
20
119.11087627168638
10
667.2179274798194
20
121.87706508215854
10
666.3074355135483
20
124.87855484774195
10
666
20
128
10
666
20
266
10
666
20
266
10
666.3074355135483
20
269.12144515225805
10
667.2179274798194
20
272.12293491784146
10
668.6964862031592
20
274.8891237283136
10
670.6862915010153
20
277.31370849898474
10
673.1108762716864
20
279.3035137968407
10
675.8770650821585
20
280.7820725201806
10
678.878554847742
20
281.69256448645166
10
682
20
282
10
682
20
282
0
IMAGE
5
5B
330
C
100
AcDbEntity
8
0
100
AcDbRasterImage
90
0
10
668
20
280
30
0
11
1
21
0
31
0
12
0
22
1
32
0
13
255
23
166
340
5A
70
3
280
1
281
50
282
50
283
0
360
5C
71
1
91
2
14
-0.5
24
-0.5
14
254.5
24
165.5
290
1
0
TEXT
5
5E
330
C
100
AcDbEntity
420
1187891
8
0
100
AcDbText
10
666
20
88.125
30
0
40
14
1
View Box via 
7
Arial
100
AcDbText
0
TEXT
5
5F
330
C
100
AcDbEntity
420
998754
8
0
100
AcDbText
10
755.234375
20
87.625
30
0
40
12
1
xywh()
7
Consolas
100
AcDbText
0
TEXT
5
60
330
C
100
AcDbEntity
420
6388113
8
0
100
AcDbText
10
666
20
68.625
30
0
40
12
1
Uses an explicit source rectangle and then
7
Arial
100
AcDbText
0
TEXT
5
61
330
C
100
AcDbEntity
420
6388113
8
0
100
AcDbText
10
666
20
51.234375
30
0
40
12
1
applies cover cropping.
7
Arial
100
AcDbText
0
LWPOLYLINE
5
62
330
C
100
AcDbEntity
420
1187891
8
0
100
AcDbPolyline
90
42
70
0
43
0
38
0
39
0
10
980
20
299
10
1233
20
299
10
1233
20
299
10
1236.9018064403226
20
298.6157056080646
10
1240.6536686473019
20
297.47759065022575
10
1244.111404660392
20
295.6293922460509
10
1247.142135623731
20
293.14213562373095
10
1249.6293922460509
20
290.11140466039205
10
1251.4775906502257
20
286.6536686473018
10
1252.6157056080647
20
282.90180644032256
10
1253
20
279
10
1253
20
48
10
1253
20
48
10
1252.6157056080647
20
44.098193559677384
10
1251.4775906502257
20
40.34633135269826
10
1249.6293922460509
20
36.888595339607946
10
1247.142135623731
20
33.85786437626905
10
1244.111404660392
20
31.370607753949116
10
1240.6536686473019
20
29.522409349774307
10
1236.9018064403226
20
28.38429439193544
10
1233
20
28
10
980
20
28
10
980
20
28
10
976.0981935596774
20
28.38429439193544
10
972.3463313526983
20
29.522409349774307
10
968.888595339608
20
31.370607753949116
10
965.857864376269
20
33.85786437626905
10
963.3706077539491
20
36.888595339607946
10
961.5224093497743
20
40.34633135269826
10
960.3842943919354
20
44.098193559677384
10
960
20
48
10
960
20
279
10
960
20
279
10
960.3842943919354
20
282.90180644032256
10
961.5224093497743
20
286.6536686473018
10
963.3706077539491
20
290.11140466039205
10
965.857864376269
20
293.14213562373095
10
968.888595339608
20
295.6293922460509
10
972.3463313526981
20
297.47759065022575
10
976.0981935596774
20
298.6157056080646
10
980
20
299
10
980
20
299
0
LWPOLYLINE
5
63
330
C
100
AcDbEntity
420
1187891
8
0
100
AcDbPolyline
90
42
70
0
43
0
38
0
39
0
10
993
20
282
10
1220
20
282
10
1220
20
282
10
1223.121445152258
20
281.6925644864517
10
1226.1229349178413
20
280.7820725201806
10
1228.8891237283137
20
279.3035137968407
10
1231.3137084989849
20
277.31370849898474
10
1233.3035137968407
20
274.8891237283136
10
1234.7820725201807
20
272.12293491784146
10
1235.6925644864516
20
269.12144515225805
10
1236
20
266
10
1236
20
128
10
1236
20
128
10
1235.6925644864516
20
124.87855484774195
10
1234.7820725201807
20
121.87706508215854
10
1233.3035137968407
20
119.11087627168638
10
1231.3137084989849
20
116.68629150101526
10
1228.8891237283137
20
114.69648620315922
10
1226.1229349178413
20
113.21792747981942
10
1223.121445152258
20
112.30743551354828
10
1220
20
112
10
993
20
112
10
993
20
112
10
989.878554847742
20
112.30743551354828
10
986.8770650821585
20
113.21792747981942
10
984.1108762716864
20
114.69648620315922
10
981.6862915010153
20
116.68629150101526
10
979.6964862031592
20
119.11087627168638
10
978.2179274798194
20
121.87706508215854
10
977.3074355135483
20
124.87855484774195
10
977
20
128
10
977
20
266
10
977
20
266
10
977.3074355135483
20
269.12144515225805
10
978.2179274798194
20
272.12293491784146
10
979.6964862031592
20
274.8891237283136
10
981.6862915010153
20
277.31370849898474
10
984.1108762716864
20
279.3035137968407
10
986.8770650821585
20
280.7820725201806
10
989.878554847742
20
281.69256448645166
10
993
20
282
10
993
20
282
0
IMAGE
5
65
330
C
100
AcDbEntity
8
0
100
AcDbRasterImage
90
0
10
1023.5
20
280
30
0
11
1
21
0
31
0
12
0
22
1
32
0
13
166
23
166
340
64
70
3
280
1
281
50
282
50
283
0
360
66
71
1
91
2
14
-0.5
24
-0.5
14
165.5
24
165.5
290
1
0
TEXT
5
68
330
C
100
AcDbEntity
420
1187891
8
0
100
AcDbText
10
976.5
20
88.125
30
0
40
14
1
View Box via 
7
Arial
100
AcDbText
0
TEXT
5
69
330
C
100
AcDbEntity
420
998754
8
0
100
AcDbText
10
1065.734375
20
87.625
30
0
40
12
1
rect()
7
Consolas
100
AcDbText
0
TEXT
5
6A
330
C
100
AcDbEntity
420
6388113
8
0
100
AcDbText
10
976.5
20
68.625
30
0
40
12
1
Demonstrates the top/right/bottom/left rectangle
7
Arial
100
AcDbText
0
TEXT
5
6B
330
C
100
AcDbEntity
420
6388113
8
0
100
AcDbText
10
976.5
20
51.234375
30
0
40
12
1
form.
7
Arial
100
AcDbText
0
ENDSEC
0
SECTION
2
OBJECTS
0
DICTIONARY
5
A
330
0
100
AcDbDictionary
281
1
3
ACAD_GROUP
350
B
3
ACAD_IMAGE_DICT
350
25
3
ACAD_IMAGE_DICT
350
2F
3
ACAD_IMAGE_DICT
350
38
3
ACAD_IMAGE_DICT
350
41
3
ACAD_IMAGE_DICT
350
4A
3
ACAD_IMAGE_DICT
350
53
3
ACAD_IMAGE_DICT
350
5D
3
ACAD_IMAGE_DICT
350
67
0
DICTIONARY
5
B
330
A
100
AcDbDictionary
281
0
0
IMAGEDEF
5
22
330
25
102
{ACAD_REACTORS
330
25
330
24
102
}
100
AcDbRasterImageDef
1
object-position-view-box-dxf-assets/image1.jpg
10
255
20
166
11
1
21
1
280
1
281
0
0
IMAGEDEF_REACTOR
5
24
330
0
100
AcDbRasterImageDefReactor
90
2
330
23
0
DICTIONARY
5
25
330
A
100
AcDbDictionary
281
0
3
image1
350
22
0
IMAGEDEF
5
2C
330
2F
102
{ACAD_REACTORS
330
2F
330
2E
102
}
100
AcDbRasterImageDef
1
object-position-view-box-dxf-assets/image2.jpg
10
300
20
351
11
1
21
1
280
1
281
0
0
IMAGEDEF_REACTOR
5
2E
330
0
100
AcDbRasterImageDefReactor
90
2
330
2D
0
DICTIONARY
5
2F
330
A
100
AcDbDictionary
281
0
3
image2
350
2C
0
IMAGEDEF
5
35
330
38
102
{ACAD_REACTORS
330
38
330
37
102
}
100
AcDbRasterImageDef
1
object-position-view-box-dxf-assets/image3.jpg
10
142
20
166
11
1
21
1
280
1
281
0
0
IMAGEDEF_REACTOR
5
37
330
0
100
AcDbRasterImageDefReactor
90
2
330
36
0
DICTIONARY
5
38
330
A
100
AcDbDictionary
281
0
3
image3
350
35
0
IMAGEDEF
5
3E
330
41
102
{ACAD_REACTORS
330
41
330
40
102
}
100
AcDbRasterImageDef
1
object-position-view-box-dxf-assets/image4.jpg
10
255
20
166
11
1
21
1
280
1
281
0
0
IMAGEDEF_REACTOR
5
40
330
0
100
AcDbRasterImageDefReactor
90
2
330
3F
0
DICTIONARY
5
41
330
A
100
AcDbDictionary
281
0
3
image4
350
3E
0
IMAGEDEF
5
47
330
4A
102
{ACAD_REACTORS
330
4A
330
49
102
}
100
AcDbRasterImageDef
1
object-position-view-box-dxf-assets/image5.png
10
128
20
128
11
1
21
1
280
1
281
0
0
IMAGEDEF_REACTOR
5
49
330
0
100
AcDbRasterImageDefReactor
90
2
330
48
0
DICTIONARY
5
4A
330
A
100
AcDbDictionary
281
0
3
image5
350
47
0
IMAGEDEF
5
50
330
53
102
{ACAD_REACTORS
330
53
330
52
102
}
100
AcDbRasterImageDef
1
object-position-view-box-dxf-assets/image6.png
10
255
20
166
11
1
21
1
280
1
281
0
0
IMAGEDEF_REACTOR
5
52
330
0
100
AcDbRasterImageDefReactor
90
2
330
51
0
DICTIONARY
5
53
330
A
100
AcDbDictionary
281
0
3
image6
350
50
0
IMAGEDEF
5
5A
330
5D
102
{ACAD_REACTORS
330
5D
330
5C
102
}
100
AcDbRasterImageDef
1
object-position-view-box-dxf-assets/image7.png
10
255
20
166
11
1
21
1
280
1
281
0
0
IMAGEDEF_REACTOR
5
5C
330
0
100
AcDbRasterImageDefReactor
90
2
330
5B
0
DICTIONARY
5
5D
330
A
100
AcDbDictionary
281
0
3
image7
350
5A
0
IMAGEDEF
5
64
330
67
102
{ACAD_REACTORS
330
67
330
66
102
}
100
AcDbRasterImageDef
1
object-position-view-box-dxf-assets/image8.png
10
166
20
166
11
1
21
1
280
1
281
0
0
IMAGEDEF_REACTOR
5
66
330
0
100
AcDbRasterImageDefReactor
90
2
330
65
0
DICTIONARY
5
67
330
A
100
AcDbDictionary
281
0
3
image8
350
64
0
ENDSEC
0
EOF