0
SECTION
2
HEADER
9
$ACADVER
1
AC1021
9
$LASTSAVEDBY
1
@tarikjabiri/dxf
9
$HANDSEED
5
29
9
$INSUNITS
70
0
9
$CLAYER
8
0
9
$VIEWCTR
10
120.01666293435812
20
229.57333021562442
0
ENDSEC
0
SECTION
2
CLASSES
0
ENDSEC
0
SECTION
2
TABLES
0
TABLE
2
VPORT
5
1
330
0
100
AcDbSymbolTable
70
1
0
VPORT
5
19
330
1
100
AcDbSymbolTableRecord
100
AcDbViewportTableRecord
2
*Active
70
0
10
0
20
0
11
1
21
1
12
120.01666293435812
22
229.57333021562442
13
0
23
0
14
10
24
10
15
10
25
10
16
0
26
0
36
1
17
0
27
0
37
0
40
659.1466604312488
41
2
42
50
43
0
44
0
50
0
51
0
71
0
72
100
73
1
74
3
75
0
76
1
77
0
78
0
281
0
65
1
110
0
120
0
130
0
111
1
121
0
131
0
112
0
122
1
132
0
79
0
146
0
348
10020
60
7
61
5
292
1
282
1
141
0
142
0
63
250
421
3358443
0
ENDTAB
0
TABLE
2
LTYPE
5
2
330
0
100
AcDbSymbolTable
70
3
0
LTYPE
5
12
330
2
100
AcDbSymbolTableRecord
100
AcDbLinetypeTableRecord
2
ByBlock
70
0
3

72
65
73
0
40
0
0
LTYPE
5
13
330
2
100
AcDbSymbolTableRecord
100
AcDbLinetypeTableRecord
2
ByLayer
70
0
3

72
65
73
0
40
0
0
LTYPE
5
14
330
2
100
AcDbSymbolTableRecord
100
AcDbLinetypeTableRecord
2
Continuous
70
0
3
Solid line
72
65
73
0
40
0
0
ENDTAB
0
TABLE
2
LAYER
5
3
330
0
100
AcDbSymbolTable
70
1
0
LAYER
5
15
330
3
100
AcDbSymbolTableRecord
100
AcDbLayerTableRecord
2
0
70
0
62
7
6
Continuous
370
0
390
0
0
ENDTAB
0
TABLE
2
STYLE
5
4
330
0
100
AcDbSymbolTable
70
1
0
STYLE
5
16
330
4
100
AcDbSymbolTableRecord
100
AcDbTextStyleTableRecord
2
Standard
70
0
40
0
41
1
50
0
71
0
42
1
3
txt
4

0
ENDTAB
0
TABLE
2
VIEW
5
5
330
0
100
AcDbSymbolTable
70
0
0
ENDTAB
0
TABLE
2
UCS
5
6
330
0
100
AcDbSymbolTable
70
0
0
ENDTAB
0
TABLE
2
APPID
5
7
330
0
100
AcDbSymbolTable
70
1
0
APPID
5
17
330
7
100
AcDbSymbolTableRecord
100
AcDbRegAppTableRecord
2
ACAD
70
0
0
ENDTAB
0
TABLE
2
DIMSTYLE
5
8
330
0
100
AcDbSymbolTable
70
1
100
AcDbDimStyleTable
0
DIMSTYLE
105
18
330
8
100
AcDbSymbolTableRecord
100
AcDbDimStyleTableRecord
2
Standard
70
0
340
16
0
ENDTAB
0
TABLE
2
BLOCK_RECORD
5
9
330
0
100
AcDbSymbolTable
70
2
0
BLOCK_RECORD
5
C
330
9
100
AcDbSymbolTableRecord
100
AcDbBlockTableRecord
2
*Model_Space
70
0
280
1
281
0
0
BLOCK_RECORD
5
F
330
9
100
AcDbSymbolTableRecord
100
AcDbBlockTableRecord
2
*Paper_Space
70
0
280
1
281
0
0
ENDTAB
0
ENDSEC
0
SECTION
2
BLOCKS
0
BLOCK
5
D
330
C
100
AcDbEntity
8
0
100
AcDbBlockBegin
2
*Model_Space
70
0
10
0
20
0
30
0
3
*Model_Space
1

0
ENDBLK
5
E
100
AcDbEntity
8
0
100
AcDbBlockEnd
0
BLOCK
5
10
330
F
100
AcDbEntity
8
0
100
AcDbBlockBegin
2
*Paper_Space
70
0
10
0
20
0
30
0
3
*Paper_Space
1

0
ENDBLK
5
11
100
AcDbEntity
8
0
100
AcDbBlockEnd
0
ENDSEC
0
SECTION
2
ENTITIES
0
LWPOLYLINE
5
1A
330
C
100
AcDbEntity
420
0
8
0
100
AcDbPolyline
90
5
70
0
43
0
38
0
39
0
10
30
20
503
10
120
20
503
10
120
20
371
10
30
20
371
10
30
20
503
0
TEXT
5
1B
330
C
100
AcDbEntity
420
0
8
0
100
AcDbText
10
113.03332586871625
20
459.1466604312488
30
0
40
10.129999816417694
1
0
7
STANDARD
100
AcDbText
0
IMAGE
5
1D
330
C
100
AcDbEntity
8
0
100
AcDbRasterImage
90
0
10
31
20
496.09166526794434
30
0
11
0.9992424358021129
21
0
31
0
12
0
22
0.9992424358021129
32
0
13
22
23
22
340
1C
70
3
280
1
281
50
282
50
283
0
360
1E
71
1
91
2
14
-0.5
24
-0.5
14
21.5
24
21.5
290
1
0
LWPOLYLINE
5
20
330
C
100
AcDbEntity
420
0
8
0
100
AcDbPolyline
90
5
70
0
43
0
38
0
39
0
10
157
20
503
10
247
20
503
10
247
20
371
10
157
20
371
10
157
20
503
0
TEXT
5
21
330
C
100
AcDbEntity
420
0
8
0
100
AcDbText
10
240.03332586871625
20
459.1466604312488
30
0
40
10.129999816417694
1
0
7
STANDARD
100
AcDbText
0
IMAGE
5
23
330
C
100
AcDbEntity
8
0
100
AcDbRasterImage
90
0
10
158
20
496.09166717529297
30
0
11
0.9992426091974432
21
0
31
0
12
0
22
0.9992426091974432
32
0
13
22
23
22
340
22
70
3
280
1
281
50
282
50
283
0
360
24
71
1
91
2
14
-0.5
24
-0.5
14
21.5
24
21.5
290
1
0
LWPOLYLINE
5
26
330
C
100
AcDbEntity
420
0
8
0
100
AcDbPolyline
90
65
70
0
43
0
38
0
39
0
10
103
20
438
10
104.02143859863281
20
437.5625
10
105.04759979248047
20
437.13623046875
10
106.07843017578125
20
436.7213439941406
10
107.11385345458984
20
436.3180847167969
10
108.15380859375
20
435.9266662597656
10
109.1982192993164
20
435.5472717285156
10
110.24700164794922
20
435.1801452636719
10
111.300048828125
20
434.825439453125
10
112.35726928710938
20
434.4833984375
10
113.4185562133789
20
434.1541748046875
10
114.48383331298828
20
433.83807373046875
10
115.55294036865234
20
433.5351867675781
10
116.6257553100586
20
433.2457580566406
10
117.7021484375
20
432.9698791503906
10
118.78197479248047
20
432.707763671875
10
119.86509704589844
20
432.4596252441406
10
120.95137786865234
20
432.2257080078125
10
122.04061889648438
20
432.00604248046875
10
123.1326675415039
20
431.80072021484375
10
124.22737121582031
20
431.6100769042969
10
125.32453918457031
20
431.4342041015625
10
126.42398071289062
20
431.2730712890625
10
127.52550506591797
20
431.126953125
10
128.62893676757812
20
430.9959716796875
10
129.73406982421875
20
430.8800964355469
10
130.84068298339844
20
430.7795104980469
10
131.94859313964844
20
430.6943054199219
10
133.05755615234375
20
430.6243896484375
10
134.16741943359375
20
430.570068359375
10
135.2779083251953
20
430.53118896484375
10
136.3888397216797
20
430.5078125
10
137.5
20
430.5000915527344
10
138.6111602783203
20
430.5078430175781
10
139.7220916748047
20
430.53118896484375
10
140.83258056640625
20
430.570068359375
10
141.9424285888672
20
430.6243896484375
10
143.05142211914062
20
430.69427490234375
10
144.15931701660156
20
430.779541015625
10
145.26596069335938
20
430.8800354003906
10
146.37106323242188
20
430.9959716796875
10
147.4744873046875
20
431.1269836425781
10
148.57603454589844
20
431.27301025390625
10
149.6754608154297
20
431.4342041015625
10
150.7726287841797
20
431.6101379394531
10
151.86734008789062
20
431.8007507324219
10
152.95941162109375
20
432.0059814453125
10
154.04864501953125
20
432.2257080078125
10
155.13490295410156
20
432.459716796875
10
156.21803283691406
20
432.7077941894531
10
157.29788208007812
20
432.9698181152344
10
158.374267578125
20
433.2456970214844
10
159.4470672607422
20
433.53521728515625
10
160.5161590576172
20
433.8381042480469
10
161.5814208984375
20
434.1542663574219
10
162.64271545410156
20
434.48345947265625
10
163.699951171875
20
434.8254699707031
10
164.75302124023438
20
435.1801452636719
10
165.80178833007812
20
435.54730224609375
10
166.84620666503906
20
435.92669677734375
10
167.88616943359375
20
436.318115234375
10
168.9215850830078
20
436.72137451171875
10
169.95240783691406
20
437.1362609863281
10
170.97857666015625
20
437.5625305175781
10
172
20
438
0
HATCH
5
27
330
C
100
AcDbEntity
420
0
8
0
100
AcDbHatch
10
0
20
0
30
0
210
0
220
0
230
1
2
SOLID
70
1
71
0
91
1
92
7
72
0
73
1
93
33
10
158.60692889145892
20
438.79097805378035
10
159.44399583574273
20
438.7415419254191
10
160.28106278002656
20
438.6921057970578
10
161.11812972431036
20
438.6426696686965
10
161.9551966685942
20
438.59323354033523
10
162.792263612878
20
438.54379741197397
10
163.62933055716184
20
438.4943612836127
10
164.46639686281424
20
438.4449251929682
10
165.30346444572945
20
438.3954890268902
10
166.14053139001328
20
438.3460528985289
10
166.97759833429708
20
438.29661677016765
10
167.8146646399495
20
438.2471806795231
10
168.65173222286472
20
438.19774451344506
10
169.48879916714856
20
438.1483083850838
10
170.32586483416958
20
438.0988723321561
10
171.1629330557162
20
438.04943612836126
10
172
20
438
10
171.45821097298054
20
437.3600080229662
10
170.91642194596105
20
436.7200160459325
10
170.3746327359023
20
436.0800244962671
10
169.83284372296276
20
435.44003248635886
10
169.29105471002325
20
434.8000404764506
10
168.74926599779639
20
434.1600492178133
10
168.2074761018326
20
433.52005636285287
10
167.66568744592553
20
432.88006497271766
10
167.12389920337074
20
432.2400740708575
10
166.58210889405467
20
431.600080727622
10
166.04032065149985
20
430.9600898257619
10
165.49853199559283
20
430.3200984356266
10
164.956742099629
20
429.68010558066624
10
164.4149538570742
20
429.04011467880605
10
163.87316396111038
20
428.4001218238456
10
163.33137489185108
20
427.7601299454353
97
0
75
1
76
1
47
1
98
0
0
LWPOLYLINE
5
28
330
C
100
AcDbEntity
420
0
8
0
100
AcDbPolyline
90
34
70
0
43
0
38
0
39
0
10
158.60692889145892
20
438.79097805378035
10
159.44399583574273
20
438.7415419254191
10
160.28106278002656
20
438.6921057970578
10
161.11812972431036
20
438.6426696686965
10
161.9551966685942
20
438.59323354033523
10
162.792263612878
20
438.54379741197397
10
163.62933055716184
20
438.4943612836127
10
164.46639686281424
20
438.4449251929682
10
165.30346444572945
20
438.3954890268902
10
166.14053139001328
20
438.3460528985289
10
166.97759833429708
20
438.29661677016765
10
167.8146646399495
20
438.2471806795231
10
168.65173222286472
20
438.19774451344506
10
169.48879916714856
20
438.1483083850838
10
170.32586483416958
20
438.0988723321561
10
171.1629330557162
20
438.04943612836126
10
172
20
438
10
171.45821097298054
20
437.3600080229662
10
170.91642194596105
20
436.7200160459325
10
170.3746327359023
20
436.0800244962671
10
169.83284372296276
20
435.44003248635886
10
169.29105471002325
20
434.8000404764506
10
168.74926599779639
20
434.1600492178133
10
168.2074761018326
20
433.52005636285287
10
167.66568744592553
20
432.88006497271766
10
167.12389920337074
20
432.2400740708575
10
166.58210889405467
20
431.600080727622
10
166.04032065149985
20
430.9600898257619
10
165.49853199559283
20
430.3200984356266
10
164.956742099629
20
429.68010558066624
10
164.4149538570742
20
429.04011467880605
10
163.87316396111038
20
428.4001218238456
10
163.33137489185108
20
427.7601299454353
10
158.60692889145892
20
438.79097805378035
0
ENDSEC
0
SECTION
2
OBJECTS
0
DICTIONARY
5
A
330
0
100
AcDbDictionary
281
1
3
ACAD_GROUP
350
B
3
ACAD_IMAGE_DICT
350
1F
3
ACAD_IMAGE_DICT
350
25
0
DICTIONARY
5
B
330
A
100
AcDbDictionary
281
0
0
IMAGEDEF
5
1C
330
1F
102
{ACAD_REACTORS
330
1F
330
1E
102
}
100
AcDbRasterImageDef
1
images/image1.jpg
10
22
20
22
11
1
21
1
280
1
281
0
0
IMAGEDEF_REACTOR
5
1E
330
0
100
AcDbRasterImageDefReactor
90
2
330
1D
0
DICTIONARY
5
1F
330
A
100
AcDbDictionary
281
0
3
image1
350
1C
0
IMAGEDEF
5
22
330
25
102
{ACAD_REACTORS
330
25
330
24
102
}
100
AcDbRasterImageDef
1
images/image2.jpg
10
22
20
22
11
1
21
1
280
1
281
0
0
IMAGEDEF_REACTOR
5
24
330
0
100
AcDbRasterImageDefReactor
90
2
330
23
0
DICTIONARY
5
25
330
A
100
AcDbDictionary
281
0
3
image2
350
22
0
ENDSEC
0
EOF