0
SECTION
2
HEADER
9
$ACADVER
1
AC1021
9
$LASTSAVEDBY
1
@tarikjabiri/dxf
9
$HANDSEED
5
22
9
$INSUNITS
70
0
9
$CLAYER
8
0
9
$VIEWCTR
10
116.00781220912933
20
312.5
0
ENDSEC
0
SECTION
2
CLASSES
0
ENDSEC
0
SECTION
2
TABLES
0
TABLE
2
VPORT
5
1
330
0
100
AcDbSymbolTable
70
1
0
VPORT
5
19
330
1
100
AcDbSymbolTableRecord
100
AcDbViewportTableRecord
2
*Active
70
0
10
0
20
0
11
1
21
1
12
116.00781220912933
22
312.5
13
0
23
0
14
10
24
10
15
10
25
10
16
0
26
0
36
1
17
0
27
0
37
0
40
825
41
2
42
50
43
0
44
0
50
0
51
0
71
0
72
100
73
1
74
3
75
0
76
1
77
0
78
0
281
0
65
1
110
0
120
0
130
0
111
1
121
0
131
0
112
0
122
1
132
0
79
0
146
0
348
10020
60
7
61
5
292
1
282
1
141
0
142
0
63
250
421
3358443
0
ENDTAB
0
TABLE
2
LTYPE
5
2
330
0
100
AcDbSymbolTable
70
3
0
LTYPE
5
12
330
2
100
AcDbSymbolTableRecord
100
AcDbLinetypeTableRecord
2
ByBlock
70
0
3

72
65
73
0
40
0
0
LTYPE
5
13
330
2
100
AcDbSymbolTableRecord
100
AcDbLinetypeTableRecord
2
ByLayer
70
0
3

72
65
73
0
40
0
0
LTYPE
5
14
330
2
100
AcDbSymbolTableRecord
100
AcDbLinetypeTableRecord
2
Continuous
70
0
3
Solid line
72
65
73
0
40
0
0
ENDTAB
0
TABLE
2
LAYER
5
3
330
0
100
AcDbSymbolTable
70
1
0
LAYER
5
15
330
3
100
AcDbSymbolTableRecord
100
AcDbLayerTableRecord
2
0
70
0
62
7
6
Continuous
370
0
390
0
0
ENDTAB
0
TABLE
2
STYLE
5
4
330
0
100
AcDbSymbolTable
70
1
0
STYLE
5
16
330
4
100
AcDbSymbolTableRecord
100
AcDbTextStyleTableRecord
2
Standard
70
0
40
0
41
1
50
0
71
0
42
1
3
txt
4

0
ENDTAB
0
TABLE
2
VIEW
5
5
330
0
100
AcDbSymbolTable
70
0
0
ENDTAB
0
TABLE
2
UCS
5
6
330
0
100
AcDbSymbolTable
70
0
0
ENDTAB
0
TABLE
2
APPID
5
7
330
0
100
AcDbSymbolTable
70
1
0
APPID
5
17
330
7
100
AcDbSymbolTableRecord
100
AcDbRegAppTableRecord
2
ACAD
70
0
0
ENDTAB
0
TABLE
2
DIMSTYLE
5
8
330
0
100
AcDbSymbolTable
70
1
100
AcDbDimStyleTable
0
DIMSTYLE
105
18
330
8
100
AcDbSymbolTableRecord
100
AcDbDimStyleTableRecord
2
Standard
70
0
340
16
0
ENDTAB
0
TABLE
2
BLOCK_RECORD
5
9
330
0
100
AcDbSymbolTable
70
2
0
BLOCK_RECORD
5
C
330
9
100
AcDbSymbolTableRecord
100
AcDbBlockTableRecord
2
*Model_Space
70
0
280
1
281
0
0
BLOCK_RECORD
5
F
330
9
100
AcDbSymbolTableRecord
100
AcDbBlockTableRecord
2
*Paper_Space
70
0
280
1
281
0
0
ENDTAB
0
ENDSEC
0
SECTION
2
BLOCKS
0
BLOCK
5
D
330
C
100
AcDbEntity
8
0
100
AcDbBlockBegin
2
*Model_Space
70
0
10
0
20
0
30
0
3
*Model_Space
1

0
ENDBLK
5
E
100
AcDbEntity
8
0
100
AcDbBlockEnd
0
BLOCK
5
10
330
F
100
AcDbEntity
8
0
100
AcDbBlockBegin
2
*Paper_Space
70
0
10
0
20
0
30
0
3
*Paper_Space
1

0
ENDBLK
5
11
100
AcDbEntity
8
0
100
AcDbBlockEnd
0
ENDSEC
0
SECTION
2
ENTITIES
0
LWPOLYLINE
5
1A
330
C
100
AcDbEntity
420
0
8
0
100
AcDbPolyline
90
5
70
0
43
0
38
0
39
0
10
22
20
503
10
112
20
503
10
112
20
371
10
22
20
371
10
22
20
503
0
TEXT
5
1B
330
C
100
AcDbEntity
420
0
8
0
100
AcDbText
10
105.01562441825867
20
456.47656230594964
30
0
40
11.000000201463678
1
0
7
STANDARD
100
AcDbText
0
LWPOLYLINE
5
1C
330
C
100
AcDbEntity
420
0
8
0
100
AcDbPolyline
90
5
70
0
43
0
38
0
39
0
10
149
20
503
10
239
20
503
10
239
20
371
10
149
20
371
10
149
20
503
0
TEXT
5
1D
330
C
100
AcDbEntity
420
0
8
0
100
AcDbText
10
232.01562441825865
20
456.47656230594964
30
0
40
11.000000201463678
1
0
7
STANDARD
100
AcDbText
0
LWPOLYLINE
5
1E
330
C
100
AcDbEntity
420
0
8
0
100
AcDbPolyline
90
65
70
0
43
0
38
0
39
0
10
-8
20
725
10
-7.6875
20
724.84375
10
-7.375
20
724.6875
10
-7.0625
20
724.53125
10
-6.749999046325684
20
724.3749995231628
10
-6.4375
20
724.21875
10
-6.125
20
724.0625
10
-5.812499523162842
20
723.9062497615814
10
-5.5
20
723.75
10
-5.1875
20
723.59375
10
-4.874999523162842
20
723.4374997615814
10
-4.5625
20
723.28125
10
-4.25
20
723.125
10
-3.9375
20
722.96875
10
-3.625
20
722.8125
10
-3.3125
20
722.65625
10
-3
20
722.5
10
-2.6875
20
722.34375
10
-2.374999523162842
20
722.1874997615814
10
-2.0625
20
722.03125
10
-1.75
20
721.875
10
-1.4375
20
721.7187498807907
10
-1.125
20
721.5625001192093
10
-0.8124995231628418
20
721.4062497615814
10
-0.5
20
721.25
10
-0.1875
20
721.0937501192093
10
0.125
20
720.9374998807907
10
0.4375
20
720.7812500596046
10
0.75
20
720.6250001788139
10
1.0625
20
720.4687499403954
10
1.375
20
720.312500089407
10
1.6875
20
720.1562498360872
10
2
20
720
10
1.6875009536743164
20
719.8437490463257
10
1.375
20
719.6874990463257
10
1.0625009536743164
20
719.5312490463257
10
0.75
20
719.3749990463257
10
0.4375
20
719.2187490463257
10
0.1250009536743164
20
719.0624990463257
10
-0.1875
20
718.9062490463257
10
-0.4999995231628418
20
718.7499992847443
10
-0.8124995231628418
20
718.5937492847443
10
-1.125
20
718.4374990463257
10
-1.4374995231628418
20
718.2812492847443
10
-1.7499990463256836
20
718.1249995231628
10
-2.0625
20
717.9687492847443
10
-2.375000476837158
20
717.8124990463257
10
-2.6874990463256836
20
717.6562497615814
10
-2.999999523162842
20
717.4999995231628
10
-3.312500476837158
20
717.3437492847443
10
-3.6249990463256836
20
717.1874997615814
10
-3.937499523162842
20
717.0312495231628
10
-4.250000238418579
20
716.8749995231628
10
-4.562499046325684
20
716.71875
10
-4.874999523162842
20
716.5624997615814
10
-5.187500238418579
20
716.4062495231628
10
-5.499999046325684
20
716.25
10
-5.812499523162842
20
716.09375
10
-6.1250001192092896
20
715.9374995231628
10
-6.437500715255737
20
715.7812495231628
10
-6.749999523162842
20
715.625
10
-7.062500059604645
20
715.46875
10
-7.375000596046448
20
715.3124995231628
10
-7.687499463558197
20
715.15625
10
-8
20
715
0
LWPOLYLINE
5
1F
330
C
100
AcDbEntity
420
0
8
0
100
AcDbPolyline
90
65
70
0
43
0
38
0
39
0
10
95
20
438
10
96.02144622802734
20
437.5625305175781
10
97.04761505126953
20
437.1362609863281
10
98.07843780517578
20
436.72137451171875
10
99.11385345458984
20
436.3180847167969
10
100.15380096435547
20
435.9266357421875
10
101.19819641113281
20
435.5472106933594
10
102.24699401855469
20
435.18011474609375
10
103.30005645751953
20
434.825439453125
10
104.35729217529297
20
434.4834289550781
10
105.41859436035156
20
434.1542663574219
10
106.48385620117188
20
433.838134765625
10
107.5529556274414
20
433.53521728515625
10
108.62577056884766
20
433.2457580566406
10
109.70216369628906
20
432.96990966796875
10
110.78199768066406
20
432.70782470703125
10
111.86512756347656
20
432.459716796875
10
112.9513931274414
20
432.2257385253906
10
114.04064178466797
20
432.00604248046875
10
115.13269805908203
20
431.80078125
10
116.2273941040039
20
431.610107421875
10
117.32455444335938
20
431.4341735839844
10
118.42399597167969
20
431.2730712890625
10
119.52552795410156
20
431.1269226074219
10
120.62895202636719
20
430.99591064453125
10
121.73408508300781
20
430.8800964355469
10
122.84071350097656
20
430.779541015625
10
123.9486083984375
20
430.6943054199219
10
125.05758666992188
20
430.6244812011719
10
126.16744995117188
20
430.5700988769531
10
127.27793884277344
20
430.53118896484375
10
128.3888702392578
20
430.5078430175781
10
129.50003051757812
20
430.5
10
130.61117553710938
20
430.5078430175781
10
131.7221221923828
20
430.53118896484375
10
132.83261108398438
20
430.5700988769531
10
133.9424591064453
20
430.6244812011719
10
135.0514373779297
20
430.6943054199219
10
136.1593475341797
20
430.779541015625
10
137.26596069335938
20
430.8800964355469
10
138.37109375
20
430.99591064453125
10
139.47451782226562
20
431.1269226074219
10
140.5760498046875
20
431.2730712890625
10
141.6754913330078
20
431.4341735839844
10
142.77264404296875
20
431.6101379394531
10
143.86734008789062
20
431.80078125
10
144.9593963623047
20
432.00604248046875
10
146.04864501953125
20
432.2257385253906
10
147.13491821289062
20
432.459716796875
10
148.21804809570312
20
432.70782470703125
10
149.29788208007812
20
432.96990966796875
10
150.374267578125
20
433.2457580566406
10
151.44708251953125
20
433.5352478027344
10
152.51617431640625
20
433.838134765625
10
153.58143615722656
20
434.1542663574219
10
154.6427459716797
20
434.4834289550781
10
155.69998168945312
20
434.8254699707031
10
156.75303649902344
20
435.18011474609375
10
157.8018341064453
20
435.5472106933594
10
158.84622192382812
20
435.9266357421875
10
159.8861541748047
20
436.3180847167969
10
160.9215545654297
20
436.72137451171875
10
161.95237731933594
20
437.1362609863281
10
162.97854614257812
20
437.5625305175781
10
164
20
438
0
HATCH
5
20
330
C
100
AcDbEntity
420
0
8
0
100
AcDbHatch
10
0
20
0
30
0
210
0
220
0
230
1
2
SOLID
70
1
71
0
91
1
92
7
72
0
73
1
93
33
10
150.60693744478073
20
438.79112286781753
10
151.44400385448193
20
438.74167768857893
10
152.28107154144513
20
438.69223243389297
10
153.11813667388435
20
438.6427873301017
10
153.95520308358556
20
438.5933421508631
10
154.79227013191775
20
438.5438969339009
10
155.62933590298798
20
438.494451792386
10
156.46640231268918
20
438.4450066131474
10
157.3034687223904
20
438.3955614339088
10
158.14053577072255
20
438.3461162169465
10
158.97760154179278
20
438.2966710754316
10
159.81466789517563
20
438.24722602769157
10
160.6517343611952
20
438.1977807169544
10
161.48880082721476
20
438.14833540621726
10
162.32586709612005
20
438.09889055572506
10
163.16293354806
20
438.0494452778625
10
164
20
438
10
163.4582044613353
20
437.36001292779366
10
162.9164084721237
20
436.72002690757586
10
162.37461353490062
20
436.08004133790496
10
161.83281690705806
20
435.44005535541083
10
161.2910205044889
20
434.80006884692244
10
160.74922534199237
20
434.1600838032458
10
160.20742800007145
20
433.5200965812134
10
159.66563283757492
20
432.8801115375368
10
159.12383726172087
20
432.24012600558956
10
158.5820400701603
20
431.600139159191
10
158.04024475730338
20
430.96015373988047
10
157.49844918144933
20
430.32016820793325
10
156.9566522340241
20
429.6801811548559
10
156.41485667703188
20
429.0401959422242
10
155.87305972960664
20
428.4002088891469
10
155.3312641726144
20
427.7602236765151
97
0
75
1
76
1
47
1
98
0
0
LWPOLYLINE
5
21
330
C
100
AcDbEntity
420
0
8
0
100
AcDbPolyline
90
34
70
0
43
0
38
0
39
0
10
150.60693744478073
20
438.79112286781753
10
151.44400385448193
20
438.74167768857893
10
152.28107154144513
20
438.69223243389297
10
153.11813667388435
20
438.6427873301017
10
153.95520308358556
20
438.5933421508631
10
154.79227013191775
20
438.5438969339009
10
155.62933590298798
20
438.494451792386
10
156.46640231268918
20
438.4450066131474
10
157.3034687223904
20
438.3955614339088
10
158.14053577072255
20
438.3461162169465
10
158.97760154179278
20
438.2966710754316
10
159.81466789517563
20
438.24722602769157
10
160.6517343611952
20
438.1977807169544
10
161.48880082721476
20
438.14833540621726
10
162.32586709612005
20
438.09889055572506
10
163.16293354806
20
438.0494452778625
10
164
20
438
10
163.4582044613353
20
437.36001292779366
10
162.9164084721237
20
436.72002690757586
10
162.37461353490062
20
436.08004133790496
10
161.83281690705806
20
435.44005535541083
10
161.2910205044889
20
434.80006884692244
10
160.74922534199237
20
434.1600838032458
10
160.20742800007145
20
433.5200965812134
10
159.66563283757492
20
432.8801115375368
10
159.12383726172087
20
432.24012600558956
10
158.5820400701603
20
431.600139159191
10
158.04024475730338
20
430.96015373988047
10
157.49844918144933
20
430.32016820793325
10
156.9566522340241
20
429.6801811548559
10
156.41485667703188
20
429.0401959422242
10
155.87305972960664
20
428.4002088891469
10
155.3312641726144
20
427.7602236765151
10
150.60693744478073
20
438.79112286781753
0
ENDSEC
0
SECTION
2
OBJECTS
0
DICTIONARY
5
A
330
0
100
AcDbDictionary
281
1
3
ACAD_GROUP
350
B
0
DICTIONARY
5
B
330
A
100
AcDbDictionary
281
0
0
ENDSEC
0
EOF