  0
SECTION
  2
HEADER
  9
$ANGBASE
 50
0.0
  9
$ANGDIR
 70
1
  9
$AUNITS
 70
0
  9
$AUPREC
 70
0
  9
$ATTMODE
 70
1
  9
$DWGCODEPAGE
  3
ANSI_1252
  9
$TDCREATE
 40
2461147.0191989350132644
  9
$CECOLOR
 62
256
  9
$CELTSCALE
 40
1.0
  9
$CELWEIGHT
370
-1
  9
$CLAYER
  8
0
  9
$CELTYPE
  6
ByLayer
  9
$CMLJUST
 70
0
  9
$CMLSCALE
 40
20.0
  9
$CMLSTYLE
  2
Standard
  9
$DIMSTYLE
  2
Standard
  9
$LWDISPLAY
290
0
  9
$EXTNAMES
290
1
  9
$HANDSEED
  5
49
  9
$INSUNITS
 70
0
  9
$LUNITS
 70
2
  9
$LUPREC
 70
4
  9
$LTSCALE
 40
1.0
  9
$MIRRTEXT
 70
0
  9
$INSBASE
 10
0.0
 20
0.0
 30
0.0
  9
$SPLINESEGS
 70
8
  9
$PSLTSCALE
 70
1
  9
$PDMODE
 70
0
  9
$PDSIZE
 40
0.0
  9
$PLINEGEN
 70
0
  9
$TEXTSIZE
 40
0.2
  9
$TEXTSTYLE
  7
Standard
  9
$TDINDWG
 40
0.0
  9
$TDUCREATE
 40
2461147.0191989350132644
  9
$TDUUPDATE
 40
2461147.0191989350132644
  9
$TDUPDATE
 40
2461147.0191989350132644
  9
$ACADVER
  1
AC1018
  0
ENDSEC
  0
SECTION
  2
CLASSES
  0
CLASS
  1
ACDBDICTIONARYWDFLT
  2
AcDbDictionaryWithDefault
  3
ObjectDBX Classes
 90
32768
 91
0
280
0
281
0
  0
CLASS
  1
ACDBPLACEHOLDER
  2
AcDbPlaceHolder
  3
ObjectDBX Classes
 90
0
 91
0
280
0
281
0
  0
CLASS
  1
LAYOUT
  2
AcDbLayout
  3
ObjectDBX Classes
 90
0
 91
0
280
0
281
0
  0
CLASS
  1
DICTIONARYVAR
  2
AcDbDictionaryVar
  3
ObjectDBX Classes
 90
0
 91
0
280
0
281
0
  0
CLASS
  1
TABLESTYLE
  2
AcDbTableStyle
  3
ObjectDBX Classes
 90
4095
 91
0
280
0
281
0
  0
CLASS
  1
MATERIAL
  2
AcDbMaterial
  3
ObjectDBX Classes
 90
1153
 91
0
280
0
281
0
  0
CLASS
  1
VISUALSTYLE
  2
AcDbVisualStyle
  3
ObjectDBX Classes
 90
4095
 91
0
280
0
281
0
  0
CLASS
  1
SCALE
  2
AcDbScale
  3
ObjectDBX Classes
 90
1153
 91
0
280
0
281
0
  0
CLASS
  1
MLEADERSTYLE
  2
AcDbMLeaderStyle
  3
ObjectDBX Classes
 90
4095
 91
0
280
0
281
0
  0
CLASS
  1
CELLSTYLEMAP
  2
AcDbCellStyleMap
  3
ObjectDBX Classes
 90
1152
 91
0
280
0
281
0
  0
CLASS
  1
EXACXREFPANELOBJECT
  2
ExAcXREFPanelObject
  3
ObjectDBX Classes
 90
1025
 91
0
280
0
281
0
  0
CLASS
  1
NPOCOLLECTION
  2
AcDbImpNonPersistentObjectsCollection
  3
ObjectDBX Classes
 90
1153
 91
0
280
0
281
0
  0
CLASS
  1
LAYER_INDEX
  2
AcDbLayerIndex
  3
ObjectDBX Classes
 90
0
 91
0
280
0
281
0
  0
CLASS
  1
SPATIAL_INDEX
  2
AcDbSpatialIndex
  3
ObjectDBX Classes
 90
0
 91
0
280
0
281
0
  0
CLASS
  1
IDBUFFER
  2
AcDbIdBuffer
  3
ObjectDBX Classes
 90
32768
 91
0
280
0
281
0
  0
CLASS
  1
ACDBSECTIONVIEWSTYLE
  2
AcDbSectionViewStyle
  3
ObjectDBX Classes
 90
1025
 91
0
280
0
281
0
  0
CLASS
  1
ACDBDETAILVIEWSTYLE
  2
AcDbDetailViewStyle
  3
ObjectDBX Classes
 90
1025
 91
0
280
0
281
0
  0
CLASS
  1
MESH
  2
AcDbSubDMesh
  3
ObjectDBX Classes
 90
0
 91
0
280
0
281
1
  0
CLASS
  1
SORTENTSTABLE
  2
AcDbSortentsTable
  3
ObjectDBX Classes
 90
0
 91
0
280
0
281
0
  0
CLASS
  1
ACDB_TEXTOBJECTCONTEXTDATA_CLASS
  2
AcDbTextObjectContextData
  3
ObjectDBX Classes
 90
1153
 91
0
280
0
281
0
  0
CLASS
  1
WIPEOUT
  2
AcDbWipeout
  3
WipeOut
 90
32895
 91
0
280
0
281
1
  0
CLASS
  1
WIPEOUTVARIABLES
  2
AcDbWipeoutVariables
  3
WipeOut
 90
32768
 91
0
280
0
281
0
  0
CLASS
  1
DIMASSOC
  2
AcDbDimAssoc
  3
AcDbDimAssoc
 90
0
 91
0
280
0
281
0
  0
CLASS
  1
ACAD_TABLE
  2
AcDbTable
  3
ObjectDBX Classes
 90
1025
 91
0
280
0
281
1
  0
CLASS
  1
TABLECONTENT
  2
AcDbTableContent
  3
ObjectDBX Classes
 90
1152
 91
0
280
0
281
0
  0
CLASS
  1
TABLEGEOMETRY
  2
AcDbTableGeometry
  3
ObjectDBX Classes
 90
1152
 91
0
280
0
281
0
  0
CLASS
  1
IMAGE
  2
AcDbRasterImage
  3
ISM
 90
32895
 91
0
280
0
281
1
  0
CLASS
  1
IMAGEDEF
  2
AcDbRasterImageDef
  3
ISM
 90
0
 91
0
280
0
281
0
  0
CLASS
  1
IMAGEDEF_REACTOR
  2
AcDbRasterImageDefReactor
  3
ISM
 90
1
 91
0
280
0
281
0
  0
CLASS
  1
DBCOLOR
  2
AcDbColor
  3
ObjectDBX Classes
 90
0
 91
0
280
0
281
0
  0
CLASS
  1
GEODATA
  2
AcDbGeoData
  3
ObjectDBX Classes
 90
4095
 91
0
280
0
281
0
  0
CLASS
  1
MULTILEADER
  2
AcDbMLeader
  3
ObjectDBX Classes
 90
1025
 91
0
280
0
281
0
  0
CLASS
  1
PDFUNDERLAY
  2
AcDbPdfReference
  3
ObjectDBX Classes
 90
4095
 91
0
280
0
281
1
  0
CLASS
  1
PDFDEFINITION
  2
AcDbPdfDefinition
  3
ObjectDBX Classes
 90
1153
 91
0
280
0
281
0
  0
CLASS
  1
RASTERVARIABLES
  2
AcDbRasterVariables
  3
ISM
 90
0
 91
0
280
0
281
0
  0
CLASS
  1
SPATIAL_FILTER
  2
AcDbSpatialFilter
  3
ObjectDBX Classes
 90
0
 91
0
280
0
281
0
  0
CLASS
  1
ACDB_MLEADEROBJECTCONTEXTDATA_CLASS
  2
AcDbMLeaderObjectContextData
  3
ObjectDBX Classes
 90
1025
 91
0
280
0
281
0
  0
CLASS
  1
PLOTSETTINGS
  2
AcDbPlotSettings
  3
ObjectDBX Classes
 90
0
 91
0
280
0
281
0
  0
CLASS
  1
FIELD
  2
AcDbField
  3
ObjectDBX Classes
 90
1152
 91
0
280
0
281
0
  0
CLASS
  1
FIELDLIST
  2
AcDbFieldList
  3
ObjectDBX Classes
 90
1152
 91
0
280
0
281
0
  0
CLASS
  1
ACDB_MTEXTATTRIBUTEOBJECTCONTEXTDATA_CLASS
  2
AcDbMTextAttributeObjectContextData
  3
ObjectDBX Classes
 90
1153
 91
0
280
0
281
0
  0
CLASS
  1
ACDB_BLKREFOBJECTCONTEXTDATA_CLASS
  2
AcDbBlkRefObjectContextData
  3
ObjectDBX Classes
 90
1153
 91
0
280
0
281
0
  0
ENDSEC
  0
SECTION
  2
TABLES
  0
TABLE
  2
VPORT
  5
18
330
0
100
AcDbSymbolTable
 70
1
  0
VPORT
  5
26
330
18
100
AcDbSymbolTableRecord
100
AcDbViewportTableRecord
  2
*Active
 70
0
 10
0.0
 20
0.0
 11
1.0
 21
1.0
 12
0.0
 22
0.0
 13
0.0
 23
0.0
 14
0.5
 24
0.5
 15
10.0
 25
10.0
 16
0.0
 26
0.0
 36
1.0
 17
0.0
 27
0.0
 37
0.0
 40
10.0
 41
1.0
 75
0
 76
1
  0
ENDTAB
  0
TABLE
  2
LTYPE
  5
14
330
0
100
AcDbSymbolTable
 70
3
  0
LTYPE
  5
19
330
14
100
AcDbSymbolTableRecord
100
AcDbLinetypeTableRecord
  2
ByLayer
 70
0
 72
0
 73
0
 40
0.0
  0
LTYPE
  5
1A
330
14
100
AcDbSymbolTableRecord
100
AcDbLinetypeTableRecord
  2
ByBlock
 70
0
 72
0
 73
0
 40
0.0
  0
LTYPE
  5
1B
330
14
100
AcDbSymbolTableRecord
100
AcDbLinetypeTableRecord
  2
Continuous
 70
0
 72
0
 73
0
 40
0.0
  0
ENDTAB
  0
TABLE
  2
LAYER
  5
13
330
0
100
AcDbSymbolTable
 70
1
  0
LAYER
  5
1C
330
13
100
AcDbSymbolTableRecord
100
AcDbLayerTableRecord
  2
0
 70
0
 62
7
  6
Continuous
290
1
370
-3
390
0
  0
ENDTAB
  0
TABLE
  2
STYLE
  5
15
330
0
100
AcDbSymbolTable
 70
1
  0
STYLE
  5
23
330
15
100
AcDbSymbolTableRecord
100
AcDbTextStyleTableRecord
  2
Standard
 70
0
 40
0.0
 41
1.0
 42
0.0
 50
0.0
 71
0
  0
ENDTAB
  0
TABLE
  2
VIEW
  5
17
330
0
100
AcDbSymbolTable
 70
0
  0
ENDTAB
  0
TABLE
  2
UCS
  5
16
330
0
100
AcDbSymbolTable
 70
0
  0
ENDTAB
  0
TABLE
  2
APPID
  5
10
330
0
100
AcDbSymbolTable
 70
1
  0
APPID
  5
25
330
10
100
AcDbSymbolTableRecord
100
AcDbRegAppTableRecord
  2
ACAD
 70
0
  0
ENDTAB
  0
TABLE
  2
DIMSTYLE
  5
12
330
0
100
AcDbSymbolTable
 70
1
100
AcDbDimStyleTable
  0
DIMSTYLE
105
24
330
12
100
AcDbSymbolTableRecord
100
AcDbDimStyleTableRecord
  2
Standard
 70
0
  3
<>
  4
[]
 40
1.0
 41
0.18
 42
0.625
 43
3.75
 44
1.25
 45
0.0
 46
0.0
 47
0.0
 48
0.0
 49
1.0
 50
45.0
 70
0
 90
0
140
0.18
141
0.09
142
0.0
143
25.3999999999999986
144
1.0
145
0.0
146
1.0
147
0.625
148
0.0
 71
0
 72
0
 73
0
 74
0
 75
0
 76
0
 77
1
 78
8
 79
0
170
0
171
3
172
0
173
1
174
0
175
0
176
0
177
0
178
0
179
0
271
2
272
2
273
2
274
3
275
0
276
0
277
2
278
46
279
0
280
0
281
0
282
0
283
0
284
8
285
0
286
0
287
0
288
0
289
3
290
0
340
0
371
-2
372
-2
  0
ENDTAB
  0
TABLE
  2
BLOCK_RECORD
  5
11
330
0
100
AcDbSymbolTable
 70
2
  0
BLOCK_RECORD
  5
1D
330
11
100
AcDbSymbolTableRecord
100
AcDbBlockTableRecord
  2
*Model_Space
 70
0
340
0
 70
0
280
0
281
1
  0
BLOCK_RECORD
  5
20
330
11
100
AcDbSymbolTableRecord
100
AcDbBlockTableRecord
  2
*Paper_Space
 70
0
340
0
 70
0
280
0
281
1
  0
ENDTAB
  0
ENDSEC
  0
SECTION
  2
BLOCKS
  0
BLOCK
  5
1E
330
1D
100
AcDbEntity
  8
0
  6
ByLayer
 62
256
 48
1.0
 60
0
 67
0
370
-1
100
AcDbBlockBegin
  2
*Model_Space
 70
0
 10
0.0
 20
0.0
 30
0.0
  3
*Model_Space
  0
ENDBLK
  5
1F
330
1D
100
AcDbEntity
  8
0
100
AcDbBlockEnd
  0
BLOCK
  5
21
330
20
100
AcDbEntity
  8
0
  6
ByLayer
 62
256
 48
1.0
 60
0
 67
1
370
-1
100
AcDbBlockBegin
  2
*Paper_Space
 70
0
 10
0.0
 20
0.0
 30
0.0
  3
*Paper_Space
  0
ENDBLK
  5
22
330
20
100
AcDbEntity
  8
0
100
AcDbBlockEnd
  0
ENDSEC
  0
SECTION
  2
ENTITIES
  0
HATCH
  5
27
330
1D
100
AcDbEntity
  8
0
  6
ByLayer
420
12348453
 48
1.0
 60
0
 67
0
370
-1
100
AcDbHatch
 30
0.0
210
0.0
220
0.0
230
1.0
  2
SOLID
 70
1
 71
0
 91
1
 92
2
 72
0
 73
1
 93
4
 10
0.0
 20
720.0
 10
1280.0
 20
720.0
 10
1280.0
 20
0.0
 10
0.0
 20
0.0
 97
0
 75
0
 76
1
 47
0.0
 98
0
  0
LWPOLYLINE
  5
28
330
1D
100
AcDbEntity
  8
0
  6
ByLayer
420
12348453
 48
1.0
 60
0
 67
0
370
-1
100
AcDbPolyline
 90
4
 70
1
 43
0.0
 38
0.0
 39
0.0
210
0.0
220
0.0
230
1.0
 10
0.0
 20
720.0
 40
0.0
 41
0.0
 42
0.0
 10
1280.0
 20
720.0
 40
0.0
 41
0.0
 42
0.0
 10
1280.0
 20
0.0
 40
0.0
 41
0.0
 42
0.0
 10
0.0
 20
0.0
 40
0.0
 41
0.0
 42
0.0
  0
HATCH
  5
29
330
1D
100
AcDbEntity
  8
0
  6
ByLayer
420
16776439
 48
1.0
 60
0
 67
0
370
-1
100
AcDbHatch
 30
0.0
210
0.0
220
0.0
230
1.0
  2
SOLID
 70
1
 71
0
 91
1
 92
2
 72
0
 73
1
 93
41
 10
64.0
 20
688.0
 10
397.0
 20
688.0
 10
397.0
 20
688.0
 10
401.6821677283870713
 20
687.5388467296775161
 10
406.1844023767621366
 20
686.1731087802709226
 10
410.3336855924704309
 20
683.9552706952611061
 10
413.970562748477164
 20
680.970562748477164
 10
416.9552706952611061
 20
677.3336855924704878
 10
419.1731087802708657
 20
673.1844023767621366
 10
420.5388467296775161
 20
668.6821677283870713
 10
421.0
 20
664.0
 10
421.0
 20
409.0
 10
421.0
 20
409.0
 10
420.5388467296775161
 20
404.3178322716129287
 10
419.1731087802708657
 20
399.8155976232378634
 10
416.9552706952611061
 20
395.6663144075295691
 10
413.970562748477164
 20
392.029437251522836
 10
410.3336855924704309
 20
389.0447293047388939
 10
406.1844023767621366
 20
386.8268912197291343
 10
401.6821677283870713
 20
385.4611532703224839
 10
397.0
 20
385.0
 10
64.0
 20
385.0
 10
64.0
 20
385.0
 10
59.3178322716129216
 20
385.4611532703224839
 10
54.8155976232378492
 20
386.8268912197291343
 10
50.6663144075295548
 20
389.0447293047388939
 10
47.0294372515228645
 20
392.029437251522836
 10
44.0447293047389081
 20
395.6663144075295691
 10
41.8268912197291201
 20
399.8155976232378634
 10
40.4611532703224697
 20
404.3178322716129287
 10
40.0
 20
409.0
 10
40.0
 20
664.0
 10
40.0
 20
664.0
 10
40.4611532703224697
 20
668.6821677283870713
 10
41.8268912197291201
 20
673.1844023767621366
 10
44.0447293047389081
 20
677.3336855924704878
 10
47.0294372515228574
 20
680.970562748477164
 10
50.6663144075295477
 20
683.9552706952611061
 10
54.815597623237835
 20
686.1731087802709226
 10
59.3178322716129145
 20
687.5388467296775161
 10
63.9999999999999929
 20
688.0
 97
0
 75
0
 76
1
 47
0.0
 98
0
  0
LWPOLYLINE
  5
2A
330
1D
100
AcDbEntity
  8
0
  6
ByLayer
420
3098712
 48
1.0
 60
0
 67
0
370
-1
100
AcDbPolyline
 90
41
 70
1
 43
0.0
 38
0.0
 39
0.0
210
0.0
220
0.0
230
1.0
 10
64.0
 20
688.0
 40
0.0
 41
0.0
 42
0.0
 10
397.0
 20
688.0
 40
0.0
 41
0.0
 42
0.0
 10
397.0
 20
688.0
 40
0.0
 41
0.0
 42
0.0
 10
401.6821677283870713
 20
687.5388467296775161
 40
0.0
 41
0.0
 42
0.0
 10
406.1844023767621366
 20
686.1731087802709226
 40
0.0
 41
0.0
 42
0.0
 10
410.3336855924704309
 20
683.9552706952611061
 40
0.0
 41
0.0
 42
0.0
 10
413.970562748477164
 20
680.970562748477164
 40
0.0
 41
0.0
 42
0.0
 10
416.9552706952611061
 20
677.3336855924704878
 40
0.0
 41
0.0
 42
0.0
 10
419.1731087802708657
 20
673.1844023767621366
 40
0.0
 41
0.0
 42
0.0
 10
420.5388467296775161
 20
668.6821677283870713
 40
0.0
 41
0.0
 42
0.0
 10
421.0
 20
664.0
 40
0.0
 41
0.0
 42
0.0
 10
421.0
 20
409.0
 40
0.0
 41
0.0
 42
0.0
 10
421.0
 20
409.0
 40
0.0
 41
0.0
 42
0.0
 10
420.5388467296775161
 20
404.3178322716129287
 40
0.0
 41
0.0
 42
0.0
 10
419.1731087802708657
 20
399.8155976232378634
 40
0.0
 41
0.0
 42
0.0
 10
416.9552706952611061
 20
395.6663144075295691
 40
0.0
 41
0.0
 42
0.0
 10
413.970562748477164
 20
392.029437251522836
 40
0.0
 41
0.0
 42
0.0
 10
410.3336855924704309
 20
389.0447293047388939
 40
0.0
 41
0.0
 42
0.0
 10
406.1844023767621366
 20
386.8268912197291343
 40
0.0
 41
0.0
 42
0.0
 10
401.6821677283870713
 20
385.4611532703224839
 40
0.0
 41
0.0
 42
0.0
 10
397.0
 20
385.0
 40
0.0
 41
0.0
 42
0.0
 10
64.0
 20
385.0
 40
0.0
 41
0.0
 42
0.0
 10
64.0
 20
385.0
 40
0.0
 41
0.0
 42
0.0
 10
59.3178322716129216
 20
385.4611532703224839
 40
0.0
 41
0.0
 42
0.0
 10
54.8155976232378492
 20
386.8268912197291343
 40
0.0
 41
0.0
 42
0.0
 10
50.6663144075295548
 20
389.0447293047388939
 40
0.0
 41
0.0
 42
0.0
 10
47.0294372515228645
 20
392.029437251522836
 40
0.0
 41
0.0
 42
0.0
 10
44.0447293047389081
 20
395.6663144075295691
 40
0.0
 41
0.0
 42
0.0
 10
41.8268912197291201
 20
399.8155976232378634
 40
0.0
 41
0.0
 42
0.0
 10
40.4611532703224697
 20
404.3178322716129287
 40
0.0
 41
0.0
 42
0.0
 10
40.0
 20
409.0
 40
0.0
 41
0.0
 42
0.0
 10
40.0
 20
664.0
 40
0.0
 41
0.0
 42
0.0
 10
40.0
 20
664.0
 40
0.0
 41
0.0
 42
0.0
 10
40.4611532703224697
 20
668.6821677283870713
 40
0.0
 41
0.0
 42
0.0
 10
41.8268912197291201
 20
673.1844023767621366
 40
0.0
 41
0.0
 42
0.0
 10
44.0447293047389081
 20
677.3336855924704878
 40
0.0
 41
0.0
 42
0.0
 10
47.0294372515228574
 20
680.970562748477164
 40
0.0
 41
0.0
 42
0.0
 10
50.6663144075295477
 20
683.9552706952611061
 40
0.0
 41
0.0
 42
0.0
 10
54.815597623237835
 20
686.1731087802709226
 40
0.0
 41
0.0
 42
0.0
 10
59.3178322716129145
 20
687.5388467296775161
 40
0.0
 41
0.0
 42
0.0
 10
63.9999999999999929
 20
688.0
 40
0.0
 41
0.0
 42
0.0
  0
TEXT
  5
2B
330
1D
100
AcDbEntity
  8
0
  6
ByLayer
420
8146730
 48
1.0
 60
0
 67
0
370
-1
100
AcDbText
 39
0.0
 10
64.9999374999970314
 20
640.0
 30
0.0
 40
28.0
  1
CODE BLOCK
 50
0.0
 41
1.0
 51
0.0
  7
Standard
 71
0
 72
0
 11
0.0
 21
0.0
 31
0.0
210
0.0
220
0.0
230
1.0
100
AcDbText
 73
0
  0
TEXT
  5
2C
330
1D
100
AcDbEntity
  8
0
  6
ByLayer
420
5398637
 48
1.0
 60
0
 67
0
370
-1
100
AcDbText
 39
0.0
 10
64.9999374999999873
 20
606.75
 30
0.0
 40
15.0
  1
Padding, indentation, and repeated spaces should
 50
0.0
 41
1.0
 51
0.0
  7
Standard
 71
0
 72
0
 11
0.0
 21
0.0
 31
0.0
210
0.0
220
0.0
230
1.0
100
AcDbText
 73
0
  0
TEXT
  5
2D
330
1D
100
AcDbEntity
  8
0
  6
ByLayer
420
5398637
 48
1.0
 60
0
 67
0
370
-1
100
AcDbText
 39
0.0
 10
64.9999374999999873
 20
584.25
 30
0.0
 40
15.0
  1
survive extraction and rendering.
 50
0.0
 41
1.0
 51
0.0
  7
Standard
 71
0
 72
0
 11
0.0
 21
0.0
 31
0.0
210
0.0
220
0.0
230
1.0
100
AcDbText
 73
0
  0
HATCH
  5
2E
330
1D
100
AcDbEntity
  8
0
  6
ByLayer
420
16776696
 48
1.0
 60
0
 67
0
370
-1
100
AcDbHatch
 30
0.0
210
0.0
220
0.0
230
1.0
  2
SOLID
 70
1
 71
0
 91
1
 92
2
 72
0
 73
1
 93
41
 10
83.0
 20
558.0
 10
378.0
 20
558.0
 10
378.0
 20
558.0
 10
381.5116257962903319
 20
557.6541350472581371
 10
384.8883017825716024
 20
556.6298315852031919
 10
388.0002641943528374
 20
554.9664530214457727
 10
390.7279220613578445
 20
552.7279220613578445
 10
392.9664530214458296
 20
550.0002641943528943
 10
394.6298315852031351
 20
546.8883017825716024
 10
395.6541350472581371
 20
543.5116257962903319
 10
396.0
 20
540.0
 10
396.0
 20
428.0
 10
396.0
 20
428.0
 10
395.6541350472581371
 20
424.4883742037096681
 10
394.6298315852031351
 20
421.1116982174283976
 10
392.9664530214458296
 20
417.9997358056471626
 10
390.7279220613578445
 20
415.2720779386421555
 10
388.0002641943528374
 20
413.0335469785541704
 10
384.8883017825716024
 20
411.3701684147968649
 10
381.5116257962903319
 20
410.3458649527418629
 10
378.0
 20
410.0
 10
83.0
 20
410.0
 10
83.0
 20
410.0
 10
79.4883742037096965
 20
410.3458649527418629
 10
76.1116982174283834
 20
411.3701684147968649
 10
72.9997358056471626
 20
413.0335469785541704
 10
70.2720779386421412
 20
415.2720779386421555
 10
68.0335469785541846
 20
417.9997358056471626
 10
66.3701684147968365
 20
421.1116982174283976
 10
65.3458649527418487
 20
424.4883742037096681
 10
65.0
 20
428.0
 10
65.0
 20
540.0
 10
65.0
 20
540.0
 10
65.3458649527418487
 20
543.5116257962903319
 10
66.3701684147968365
 20
546.8883017825716024
 10
68.0335469785541846
 20
550.0002641943528943
 10
70.2720779386421412
 20
552.7279220613578445
 10
72.9997358056471626
 20
554.9664530214457727
 10
76.1116982174283692
 20
556.6298315852031919
 10
79.4883742037096823
 20
557.6541350472581371
 10
83.0
 20
558.0
 97
0
 75
0
 76
1
 47
0.0
 98
0
  0
LWPOLYLINE
  5
2F
330
1D
100
AcDbEntity
  8
0
  6
ByLayer
420
3098712
 48
1.0
 60
0
 67
0
370
-1
100
AcDbPolyline
 90
41
 70
1
 43
0.0
 38
0.0
 39
0.0
210
0.0
220
0.0
230
1.0
 10
83.0
 20
558.0
 40
0.0
 41
0.0
 42
0.0
 10
378.0
 20
558.0
 40
0.0
 41
0.0
 42
0.0
 10
378.0
 20
558.0
 40
0.0
 41
0.0
 42
0.0
 10
381.5116257962903319
 20
557.6541350472581371
 40
0.0
 41
0.0
 42
0.0
 10
384.8883017825716024
 20
556.6298315852031919
 40
0.0
 41
0.0
 42
0.0
 10
388.0002641943528374
 20
554.9664530214457727
 40
0.0
 41
0.0
 42
0.0
 10
390.7279220613578445
 20
552.7279220613578445
 40
0.0
 41
0.0
 42
0.0
 10
392.9664530214458296
 20
550.0002641943528943
 40
0.0
 41
0.0
 42
0.0
 10
394.6298315852031351
 20
546.8883017825716024
 40
0.0
 41
0.0
 42
0.0
 10
395.6541350472581371
 20
543.5116257962903319
 40
0.0
 41
0.0
 42
0.0
 10
396.0
 20
540.0
 40
0.0
 41
0.0
 42
0.0
 10
396.0
 20
428.0
 40
0.0
 41
0.0
 42
0.0
 10
396.0
 20
428.0
 40
0.0
 41
0.0
 42
0.0
 10
395.6541350472581371
 20
424.4883742037096681
 40
0.0
 41
0.0
 42
0.0
 10
394.6298315852031351
 20
421.1116982174283976
 40
0.0
 41
0.0
 42
0.0
 10
392.9664530214458296
 20
417.9997358056471626
 40
0.0
 41
0.0
 42
0.0
 10
390.7279220613578445
 20
415.2720779386421555
 40
0.0
 41
0.0
 42
0.0
 10
388.0002641943528374
 20
413.0335469785541704
 40
0.0
 41
0.0
 42
0.0
 10
384.8883017825716024
 20
411.3701684147968649
 40
0.0
 41
0.0
 42
0.0
 10
381.5116257962903319
 20
410.3458649527418629
 40
0.0
 41
0.0
 42
0.0
 10
378.0
 20
410.0
 40
0.0
 41
0.0
 42
0.0
 10
83.0
 20
410.0
 40
0.0
 41
0.0
 42
0.0
 10
83.0
 20
410.0
 40
0.0
 41
0.0
 42
0.0
 10
79.4883742037096965
 20
410.3458649527418629
 40
0.0
 41
0.0
 42
0.0
 10
76.1116982174283834
 20
411.3701684147968649
 40
0.0
 41
0.0
 42
0.0
 10
72.9997358056471626
 20
413.0335469785541704
 40
0.0
 41
0.0
 42
0.0
 10
70.2720779386421412
 20
415.2720779386421555
 40
0.0
 41
0.0
 42
0.0
 10
68.0335469785541846
 20
417.9997358056471626
 40
0.0
 41
0.0
 42
0.0
 10
66.3701684147968365
 20
421.1116982174283976
 40
0.0
 41
0.0
 42
0.0
 10
65.3458649527418487
 20
424.4883742037096681
 40
0.0
 41
0.0
 42
0.0
 10
65.0
 20
428.0
 40
0.0
 41
0.0
 42
0.0
 10
65.0
 20
540.0
 40
0.0
 41
0.0
 42
0.0
 10
65.0
 20
540.0
 40
0.0
 41
0.0
 42
0.0
 10
65.3458649527418487
 20
543.5116257962903319
 40
0.0
 41
0.0
 42
0.0
 10
66.3701684147968365
 20
546.8883017825716024
 40
0.0
 41
0.0
 42
0.0
 10
68.0335469785541846
 20
550.0002641943528943
 40
0.0
 41
0.0
 42
0.0
 10
70.2720779386421412
 20
552.7279220613578445
 40
0.0
 41
0.0
 42
0.0
 10
72.9997358056471626
 20
554.9664530214457727
 40
0.0
 41
0.0
 42
0.0
 10
76.1116982174283692
 20
556.6298315852031919
 40
0.0
 41
0.0
 42
0.0
 10
79.4883742037096823
 20
557.6541350472581371
 40
0.0
 41
0.0
 42
0.0
 10
83.0
 20
558.0
 40
0.0
 41
0.0
 42
0.0
  0
TEXT
  5
30
330
1D
100
AcDbEntity
  8
0
  6
ByLayer
420
1059395
 48
1.0
 60
0
 67
0
370
-1
100
AcDbText
 39
0.0
 10
90.9999374999999873
 20
518.5
 30
0.0
 40
18.0
  1
function renderBlock() {
 50
0.0
 41
1.0
 51
0.0
  7
Standard
 71
0
 72
0
 11
0.0
 21
0.0
 31
0.0
210
0.0
220
0.0
230
1.0
100
AcDbText
 73
0
  0
TEXT
  5
31
330
1D
100
AcDbEntity
  8
0
  6
ByLayer
420
1059395
 48
1.0
 60
0
 67
0
370
-1
100
AcDbText
 39
0.0
 10
90.9999374999999873
 20
492.40625
 30
0.0
 40
18.0
  1
  const title = "pre  block";
 50
0.0
 41
1.0
 51
0.0
  7
Standard
 71
0
 72
0
 11
0.0
 21
0.0
 31
0.0
210
0.0
220
0.0
230
1.0
100
AcDbText
 73
0
  0
TEXT
  5
32
330
1D
100
AcDbEntity
  8
0
  6
ByLayer
420
1059395
 48
1.0
 60
0
 67
0
370
-1
100
AcDbText
 39
0.0
 10
90.9999374999999873
 20
466.3125
 30
0.0
 40
18.0
  1
    return title.padEnd(14, " ");
 50
0.0
 41
1.0
 51
0.0
  7
Standard
 71
0
 72
0
 11
0.0
 21
0.0
 31
0.0
210
0.0
220
0.0
230
1.0
100
AcDbText
 73
0
  0
TEXT
  5
33
330
1D
100
AcDbEntity
  8
0
  6
ByLayer
420
1059395
 48
1.0
 60
0
 67
0
370
-1
100
AcDbText
 39
0.0
 10
90.9999374999999873
 20
440.21875
 30
0.0
 40
18.0
  1
}
 50
0.0
 41
1.0
 51
0.0
  7
Standard
 71
0
 72
0
 11
0.0
 21
0.0
 31
0.0
210
0.0
220
0.0
230
1.0
100
AcDbText
 73
0
  0
HATCH
  5
34
330
1D
100
AcDbEntity
  8
0
  6
ByLayer
420
16776439
 48
1.0
 60
0
 67
0
370
-1
100
AcDbHatch
 30
0.0
210
0.0
220
0.0
230
1.0
  2
SOLID
 70
1
 71
0
 91
1
 92
2
 72
0
 73
1
 93
41
 10
473.0
 20
688.0
 10
806.0
 20
688.0
 10
806.0
 20
688.0
 10
810.6821677283870713
 20
687.5388467296775161
 10
815.1844023767621366
 20
686.1731087802709226
 10
819.3336855924704878
 20
683.9552706952611061
 10
822.970562748477164
 20
680.970562748477164
 10
825.9552706952611061
 20
677.3336855924704878
 10
828.1731087802709226
 20
673.1844023767621366
 10
829.5388467296775161
 20
668.6821677283870713
 10
830.0
 20
664.0
 10
830.0
 20
409.0
 10
830.0
 20
409.0
 10
829.5388467296775161
 20
404.3178322716129287
 10
828.1731087802709226
 20
399.8155976232378634
 10
825.9552706952611061
 20
395.6663144075295691
 10
822.970562748477164
 20
392.029437251522836
 10
819.3336855924704878
 20
389.0447293047388939
 10
815.1844023767621366
 20
386.8268912197291343
 10
810.6821677283870713
 20
385.4611532703224839
 10
806.0
 20
385.0
 10
473.0
 20
385.0
 10
473.0
 20
385.0
 10
468.3178322716129287
 20
385.4611532703224839
 10
463.8155976232378634
 20
386.8268912197291343
 10
459.6663144075295691
 20
389.0447293047388939
 10
456.029437251522836
 20
392.029437251522836
 10
453.0447293047388939
 20
395.6663144075295691
 10
450.8268912197291343
 20
399.8155976232378634
 10
449.4611532703224839
 20
404.3178322716129287
 10
449.0
 20
409.0
 10
449.0
 20
664.0
 10
449.0
 20
664.0
 10
449.4611532703224839
 20
668.6821677283870713
 10
450.8268912197291343
 20
673.1844023767621366
 10
453.0447293047388939
 20
677.3336855924704878
 10
456.029437251522836
 20
680.970562748477164
 10
459.6663144075295691
 20
683.9552706952611061
 10
463.8155976232378066
 20
686.1731087802709226
 10
468.3178322716129287
 20
687.5388467296775161
 10
473.0
 20
688.0
 97
0
 75
0
 76
1
 47
0.0
 98
0
  0
LWPOLYLINE
  5
35
330
1D
100
AcDbEntity
  8
0
  6
ByLayer
420
3098712
 48
1.0
 60
0
 67
0
370
-1
100
AcDbPolyline
 90
41
 70
1
 43
0.0
 38
0.0
 39
0.0
210
0.0
220
0.0
230
1.0
 10
473.0
 20
688.0
 40
0.0
 41
0.0
 42
0.0
 10
806.0
 20
688.0
 40
0.0
 41
0.0
 42
0.0
 10
806.0
 20
688.0
 40
0.0
 41
0.0
 42
0.0
 10
810.6821677283870713
 20
687.5388467296775161
 40
0.0
 41
0.0
 42
0.0
 10
815.1844023767621366
 20
686.1731087802709226
 40
0.0
 41
0.0
 42
0.0
 10
819.3336855924704878
 20
683.9552706952611061
 40
0.0
 41
0.0
 42
0.0
 10
822.970562748477164
 20
680.970562748477164
 40
0.0
 41
0.0
 42
0.0
 10
825.9552706952611061
 20
677.3336855924704878
 40
0.0
 41
0.0
 42
0.0
 10
828.1731087802709226
 20
673.1844023767621366
 40
0.0
 41
0.0
 42
0.0
 10
829.5388467296775161
 20
668.6821677283870713
 40
0.0
 41
0.0
 42
0.0
 10
830.0
 20
664.0
 40
0.0
 41
0.0
 42
0.0
 10
830.0
 20
409.0
 40
0.0
 41
0.0
 42
0.0
 10
830.0
 20
409.0
 40
0.0
 41
0.0
 42
0.0
 10
829.5388467296775161
 20
404.3178322716129287
 40
0.0
 41
0.0
 42
0.0
 10
828.1731087802709226
 20
399.8155976232378634
 40
0.0
 41
0.0
 42
0.0
 10
825.9552706952611061
 20
395.6663144075295691
 40
0.0
 41
0.0
 42
0.0
 10
822.970562748477164
 20
392.029437251522836
 40
0.0
 41
0.0
 42
0.0
 10
819.3336855924704878
 20
389.0447293047388939
 40
0.0
 41
0.0
 42
0.0
 10
815.1844023767621366
 20
386.8268912197291343
 40
0.0
 41
0.0
 42
0.0
 10
810.6821677283870713
 20
385.4611532703224839
 40
0.0
 41
0.0
 42
0.0
 10
806.0
 20
385.0
 40
0.0
 41
0.0
 42
0.0
 10
473.0
 20
385.0
 40
0.0
 41
0.0
 42
0.0
 10
473.0
 20
385.0
 40
0.0
 41
0.0
 42
0.0
 10
468.3178322716129287
 20
385.4611532703224839
 40
0.0
 41
0.0
 42
0.0
 10
463.8155976232378634
 20
386.8268912197291343
 40
0.0
 41
0.0
 42
0.0
 10
459.6663144075295691
 20
389.0447293047388939
 40
0.0
 41
0.0
 42
0.0
 10
456.029437251522836
 20
392.029437251522836
 40
0.0
 41
0.0
 42
0.0
 10
453.0447293047388939
 20
395.6663144075295691
 40
0.0
 41
0.0
 42
0.0
 10
450.8268912197291343
 20
399.8155976232378634
 40
0.0
 41
0.0
 42
0.0
 10
449.4611532703224839
 20
404.3178322716129287
 40
0.0
 41
0.0
 42
0.0
 10
449.0
 20
409.0
 40
0.0
 41
0.0
 42
0.0
 10
449.0
 20
664.0
 40
0.0
 41
0.0
 42
0.0
 10
449.0
 20
664.0
 40
0.0
 41
0.0
 42
0.0
 10
449.4611532703224839
 20
668.6821677283870713
 40
0.0
 41
0.0
 42
0.0
 10
450.8268912197291343
 20
673.1844023767621366
 40
0.0
 41
0.0
 42
0.0
 10
453.0447293047388939
 20
677.3336855924704878
 40
0.0
 41
0.0
 42
0.0
 10
456.029437251522836
 20
680.970562748477164
 40
0.0
 41
0.0
 42
0.0
 10
459.6663144075295691
 20
683.9552706952611061
 40
0.0
 41
0.0
 42
0.0
 10
463.8155976232378066
 20
686.1731087802709226
 40
0.0
 41
0.0
 42
0.0
 10
468.3178322716129287
 20
687.5388467296775161
 40
0.0
 41
0.0
 42
0.0
 10
473.0
 20
688.0
 40
0.0
 41
0.0
 42
0.0
  0
TEXT
  5
36
330
1D
100
AcDbEntity
  8
0
  6
ByLayer
420
8146730
 48
1.0
 60
0
 67
0
370
-1
100
AcDbText
 39
0.0
 10
473.9999374999970314
 20
640.0
 30
0.0
 40
28.0
  1
ROTATED PRE
 50
0.0
 41
1.0
 51
0.0
  7
Standard
 71
0
 72
0
 11
0.0
 21
0.0
 31
0.0
210
0.0
220
0.0
230
1.0
100
AcDbText
 73
0
  0
TEXT
  5
37
330
1D
100
AcDbEntity
  8
0
  6
ByLayer
420
5398637
 48
1.0
 60
0
 67
0
370
-1
100
AcDbText
 39
0.0
 10
473.9999374999999873
 20
606.75
 30
0.0
 40
15.0
  1
This block is transformed so Firefox uses native
 50
0.0
 41
1.0
 51
0.0
  7
Standard
 71
0
 72
0
 11
0.0
 21
0.0
 31
0.0
210
0.0
220
0.0
230
1.0
100
AcDbText
 73
0
  0
TEXT
  5
38
330
1D
100
AcDbEntity
  8
0
  6
ByLayer
420
5398637
 48
1.0
 60
0
 67
0
370
-1
100
AcDbText
 39
0.0
 10
473.9999374999999873
 20
584.25
 30
0.0
 40
15.0
  1
line quads instead of the polyfill path.
 50
0.0
 41
1.0
 51
0.0
  7
Standard
 71
0
 72
0
 11
0.0
 21
0.0
 31
0.0
210
0.0
220
0.0
230
1.0
100
AcDbText
 73
0
  0
HATCH
  5
39
330
1D
100
AcDbEntity
  8
0
  6
ByLayer
420
16775407
 48
1.0
 60
0
 67
0
370
-1
100
AcDbHatch
 30
0.0
210
0.0
220
0.0
230
1.0
  2
SOLID
 70
1
 71
0
 91
1
 92
2
 72
0
 73
1
 93
20
 10
473.3718102263792957
 20
540.0109650729029909
 10
474.7701014777981072
 20
547.9400458260179221
 10
478.3367854584337238
 20
553.7382531582657066
 10
484.0718621682862022
 20
557.4055870696464581
 10
491.9753316073555993
 20
558.9420475601599492
 10
786.5711983926445328
 20
574.381168439840053
 10
794.3961441100112779
 20
573.6689995644665032
 10
799.8956496547559709
 20
570.5904453781856773
 10
803.0697150268788391
 20
565.1455058809979164
 10
803.9183402263794278
 20
557.334181072902993
 10
799.9898653736206597
 20
444.8371709270970769
 10
798.5915741222019051
 20
436.9080901739821456
 10
795.0248901415662885
 20
431.1098828417342474
 10
789.2898134317138101
 20
427.4425489303535528
 10
781.3863439926444698
 20
425.9060884398400049
 10
486.7904772073555932
 20
410.4669675601600147
 10
478.9655314899887344
 20
411.1791364355335645
 10
473.4660259452440414
 20
414.2576906218142767
 10
470.2919605731213437
 20
419.7026301190020945
 10
469.4433353736206982
 20
427.5139549270970747
 97
0
 75
0
 76
1
 47
0.0
 98
0
  0
LWPOLYLINE
  5
3A
330
1D
100
AcDbEntity
  8
0
  6
ByLayer
420
12348453
 48
1.0
 60
0
 67
0
370
-1
100
AcDbPolyline
 90
20
 70
1
 43
0.0
 38
0.0
 39
0.0
210
0.0
220
0.0
230
1.0
 10
473.3718102263792957
 20
540.0109650729029909
 40
0.0
 41
0.0
 42
0.0
 10
474.7701014777981072
 20
547.9400458260179221
 40
0.0
 41
0.0
 42
0.0
 10
478.3367854584337238
 20
553.7382531582657066
 40
0.0
 41
0.0
 42
0.0
 10
484.0718621682862022
 20
557.4055870696464581
 40
0.0
 41
0.0
 42
0.0
 10
491.9753316073555993
 20
558.9420475601599492
 40
0.0
 41
0.0
 42
0.0
 10
786.5711983926445328
 20
574.381168439840053
 40
0.0
 41
0.0
 42
0.0
 10
794.3961441100112779
 20
573.6689995644665032
 40
0.0
 41
0.0
 42
0.0
 10
799.8956496547559709
 20
570.5904453781856773
 40
0.0
 41
0.0
 42
0.0
 10
803.0697150268788391
 20
565.1455058809979164
 40
0.0
 41
0.0
 42
0.0
 10
803.9183402263794278
 20
557.334181072902993
 40
0.0
 41
0.0
 42
0.0
 10
799.9898653736206597
 20
444.8371709270970769
 40
0.0
 41
0.0
 42
0.0
 10
798.5915741222019051
 20
436.9080901739821456
 40
0.0
 41
0.0
 42
0.0
 10
795.0248901415662885
 20
431.1098828417342474
 40
0.0
 41
0.0
 42
0.0
 10
789.2898134317138101
 20
427.4425489303535528
 40
0.0
 41
0.0
 42
0.0
 10
781.3863439926444698
 20
425.9060884398400049
 40
0.0
 41
0.0
 42
0.0
 10
486.7904772073555932
 20
410.4669675601600147
 40
0.0
 41
0.0
 42
0.0
 10
478.9655314899887344
 20
411.1791364355335645
 40
0.0
 41
0.0
 42
0.0
 10
473.4660259452440414
 20
414.2576906218142767
 40
0.0
 41
0.0
 42
0.0
 10
470.2919605731213437
 20
419.7026301190020945
 40
0.0
 41
0.0
 42
0.0
 10
469.4433353736206982
 20
427.5139549270970747
 40
0.0
 41
0.0
 42
0.0
  0
TEXT
  5
3B
330
1D
100
AcDbEntity
  8
0
  6
ByLayer
420
1059395
 48
1.0
 60
0
 67
0
370
-1
100
AcDbText
 39
0.0
 10
335.9190606609617475
 20
585.5157276841671319
 30
0.0
 40
18.0
  1
if (line.startsWith("  ")) {
 50
171.8874020550346415
 41
1.0
 51
0.0
  7
Standard
 71
0
 72
0
 11
0.0
 21
0.0
 31
0.0
210
0.0
220
0.0
230
1.0
100
AcDbText
 73
0
  0
TEXT
  5
3C
330
1D
100
AcDbEntity
  8
0
  6
ByLayer
420
1059395
 48
1.0
 60
0
 67
0
370
-1
100
AcDbText
 39
0.0
 10
335.0049370613950828
 20
559.3382667383469879
 30
0.0
 40
18.0
  1
  rows.push(line);
 50
171.887402055034471
 41
1.0
 51
0.0
  7
Standard
 71
0
 72
0
 11
0.0
 21
0.0
 31
0.0
210
0.0
220
0.0
230
1.0
100
AcDbText
 73
0
  0
TEXT
  5
3D
330
1D
100
AcDbEntity
  8
0
  6
ByLayer
420
1059395
 48
1.0
 60
0
 67
0
370
-1
100
AcDbText
 39
0.0
 10
334.0908136664571657
 20
533.1607944382852793
 30
0.0
 40
18.0
  1
    render("keep  spaces");
 50
171.8874020550345563
 41
1.0
 51
0.0
  7
Standard
 71
0
 72
0
 11
0.0
 21
0.0
 31
0.0
210
0.0
220
0.0
230
1.0
100
AcDbText
 73
0
  0
TEXT
  5
3E
330
1D
100
AcDbEntity
  8
0
  6
ByLayer
420
1059395
 48
1.0
 60
0
 67
0
370
-1
100
AcDbText
 39
0.0
 10
333.1766601372719379
 20
506.9833447113970237
 30
0.0
 40
18.0
  1
}
 50
171.887402055033192
 41
1.0
 51
0.0
  7
Standard
 71
0
 72
0
 11
0.0
 21
0.0
 31
0.0
210
0.0
220
0.0
230
1.0
100
AcDbText
 73
0
  0
HATCH
  5
3F
330
1D
100
AcDbEntity
  8
0
  6
ByLayer
420
16776439
 48
1.0
 60
0
 67
0
370
-1
100
AcDbHatch
 30
0.0
210
0.0
220
0.0
230
1.0
  2
SOLID
 70
1
 71
0
 91
1
 92
2
 72
0
 73
1
 93
41
 10
883.0
 20
688.0
 10
1216.0
 20
688.0
 10
1216.0
 20
688.0
 10
1220.682167728387185
 20
687.5388467296775161
 10
1225.1844023767621366
 20
686.1731087802709226
 10
1229.3336855924703741
 20
683.9552706952611061
 10
1232.9705627484770503
 20
680.970562748477164
 10
1235.9552706952611061
 20
677.3336855924704878
 10
1238.1731087802709226
 20
673.1844023767621366
 10
1239.5388467296775161
 20
668.6821677283870713
 10
1240.0
 20
664.0
 10
1240.0
 20
409.0
 10
1240.0
 20
409.0
 10
1239.5388467296775161
 20
404.3178322716129287
 10
1238.1731087802709226
 20
399.8155976232378634
 10
1235.9552706952611061
 20
395.6663144075295691
 10
1232.9705627484770503
 20
392.029437251522836
 10
1229.3336855924703741
 20
389.0447293047388939
 10
1225.1844023767621366
 20
386.8268912197291343
 10
1220.682167728387185
 20
385.4611532703224839
 10
1216.0
 20
385.0
 10
883.0
 20
385.0
 10
883.0
 20
385.0
 10
878.3178322716129287
 20
385.4611532703224839
 10
873.8155976232378634
 20
386.8268912197291343
 10
869.6663144075295122
 20
389.0447293047388939
 10
866.029437251522836
 20
392.029437251522836
 10
863.0447293047388939
 20
395.6663144075295691
 10
860.8268912197290774
 20
399.8155976232378634
 10
859.4611532703224839
 20
404.3178322716129287
 10
859.0
 20
409.0
 10
859.0
 20
664.0
 10
859.0
 20
664.0
 10
859.4611532703224839
 20
668.6821677283870713
 10
860.8268912197290774
 20
673.1844023767621366
 10
863.0447293047388939
 20
677.3336855924704878
 10
866.029437251522836
 20
680.970562748477164
 10
869.6663144075295122
 20
683.9552706952611061
 10
873.8155976232378634
 20
686.1731087802709226
 10
878.3178322716129287
 20
687.5388467296775161
 10
883.0
 20
688.0
 97
0
 75
0
 76
1
 47
0.0
 98
0
  0
LWPOLYLINE
  5
40
330
1D
100
AcDbEntity
  8
0
  6
ByLayer
420
3098712
 48
1.0
 60
0
 67
0
370
-1
100
AcDbPolyline
 90
41
 70
1
 43
0.0
 38
0.0
 39
0.0
210
0.0
220
0.0
230
1.0
 10
883.0
 20
688.0
 40
0.0
 41
0.0
 42
0.0
 10
1216.0
 20
688.0
 40
0.0
 41
0.0
 42
0.0
 10
1216.0
 20
688.0
 40
0.0
 41
0.0
 42
0.0
 10
1220.682167728387185
 20
687.5388467296775161
 40
0.0
 41
0.0
 42
0.0
 10
1225.1844023767621366
 20
686.1731087802709226
 40
0.0
 41
0.0
 42
0.0
 10
1229.3336855924703741
 20
683.9552706952611061
 40
0.0
 41
0.0
 42
0.0
 10
1232.9705627484770503
 20
680.970562748477164
 40
0.0
 41
0.0
 42
0.0
 10
1235.9552706952611061
 20
677.3336855924704878
 40
0.0
 41
0.0
 42
0.0
 10
1238.1731087802709226
 20
673.1844023767621366
 40
0.0
 41
0.0
 42
0.0
 10
1239.5388467296775161
 20
668.6821677283870713
 40
0.0
 41
0.0
 42
0.0
 10
1240.0
 20
664.0
 40
0.0
 41
0.0
 42
0.0
 10
1240.0
 20
409.0
 40
0.0
 41
0.0
 42
0.0
 10
1240.0
 20
409.0
 40
0.0
 41
0.0
 42
0.0
 10
1239.5388467296775161
 20
404.3178322716129287
 40
0.0
 41
0.0
 42
0.0
 10
1238.1731087802709226
 20
399.8155976232378634
 40
0.0
 41
0.0
 42
0.0
 10
1235.9552706952611061
 20
395.6663144075295691
 40
0.0
 41
0.0
 42
0.0
 10
1232.9705627484770503
 20
392.029437251522836
 40
0.0
 41
0.0
 42
0.0
 10
1229.3336855924703741
 20
389.0447293047388939
 40
0.0
 41
0.0
 42
0.0
 10
1225.1844023767621366
 20
386.8268912197291343
 40
0.0
 41
0.0
 42
0.0
 10
1220.682167728387185
 20
385.4611532703224839
 40
0.0
 41
0.0
 42
0.0
 10
1216.0
 20
385.0
 40
0.0
 41
0.0
 42
0.0
 10
883.0
 20
385.0
 40
0.0
 41
0.0
 42
0.0
 10
883.0
 20
385.0
 40
0.0
 41
0.0
 42
0.0
 10
878.3178322716129287
 20
385.4611532703224839
 40
0.0
 41
0.0
 42
0.0
 10
873.8155976232378634
 20
386.8268912197291343
 40
0.0
 41
0.0
 42
0.0
 10
869.6663144075295122
 20
389.0447293047388939
 40
0.0
 41
0.0
 42
0.0
 10
866.029437251522836
 20
392.029437251522836
 40
0.0
 41
0.0
 42
0.0
 10
863.0447293047388939
 20
395.6663144075295691
 40
0.0
 41
0.0
 42
0.0
 10
860.8268912197290774
 20
399.8155976232378634
 40
0.0
 41
0.0
 42
0.0
 10
859.4611532703224839
 20
404.3178322716129287
 40
0.0
 41
0.0
 42
0.0
 10
859.0
 20
409.0
 40
0.0
 41
0.0
 42
0.0
 10
859.0
 20
664.0
 40
0.0
 41
0.0
 42
0.0
 10
859.0
 20
664.0
 40
0.0
 41
0.0
 42
0.0
 10
859.4611532703224839
 20
668.6821677283870713
 40
0.0
 41
0.0
 42
0.0
 10
860.8268912197290774
 20
673.1844023767621366
 40
0.0
 41
0.0
 42
0.0
 10
863.0447293047388939
 20
677.3336855924704878
 40
0.0
 41
0.0
 42
0.0
 10
866.029437251522836
 20
680.970562748477164
 40
0.0
 41
0.0
 42
0.0
 10
869.6663144075295122
 20
683.9552706952611061
 40
0.0
 41
0.0
 42
0.0
 10
873.8155976232378634
 20
686.1731087802709226
 40
0.0
 41
0.0
 42
0.0
 10
878.3178322716129287
 20
687.5388467296775161
 40
0.0
 41
0.0
 42
0.0
 10
883.0
 20
688.0
 40
0.0
 41
0.0
 42
0.0
  0
TEXT
  5
41
330
1D
100
AcDbEntity
  8
0
  6
ByLayer
420
8146730
 48
1.0
 60
0
 67
0
370
-1
100
AcDbText
 39
0.0
 10
884.0001250000059372
 20
640.0
 30
0.0
 40
28.0
  1
SCALED NOTES
 50
0.0
 41
1.0
 51
0.0
  7
Standard
 71
0
 72
0
 11
0.0
 21
0.0
 31
0.0
210
0.0
220
0.0
230
1.0
100
AcDbText
 73
0
  0
TEXT
  5
42
330
1D
100
AcDbEntity
  8
0
  6
ByLayer
420
5398637
 48
1.0
 60
0
 67
0
370
-1
100
AcDbText
 39
0.0
 10
884.0001250000000255
 20
606.75
 30
0.0
 40
15.0
  1
Columns rely on fixed-width spacing and should
 50
0.0
 41
1.0
 51
0.0
  7
Standard
 71
0
 72
0
 11
0.0
 21
0.0
 31
0.0
210
0.0
220
0.0
230
1.0
100
AcDbText
 73
0
  0
TEXT
  5
43
330
1D
100
AcDbEntity
  8
0
  6
ByLayer
420
5398637
 48
1.0
 60
0
 67
0
370
-1
100
AcDbText
 39
0.0
 10
884.0001250000000255
 20
584.25
 30
0.0
 40
15.0
  1
keep their alignment.
 50
0.0
 41
1.0
 51
0.0
  7
Standard
 71
0
 72
0
 11
0.0
 21
0.0
 31
0.0
210
0.0
220
0.0
230
1.0
100
AcDbText
 73
0
  0
HATCH
  5
44
330
1D
100
AcDbEntity
  8
0
  6
ByLayer
420
16775922
 48
1.0
 60
0
 67
0
370
-1
100
AcDbHatch
 30
0.0
210
0.0
220
0.0
230
1.0
  2
SOLID
 70
1
 71
0
 91
1
 92
2
 72
0
 73
1
 93
20
 10
891.3718071828532175
 20
528.0109651791852912
 10
892.7709562166559181
 20
535.8419058622200737
 10
896.34021050091701
 20
541.3456930905095987
 10
902.0795700356366069
 20
544.52232686405398
 10
909.9890348208147088
 20
545.3718071828532175
 10
1214.7324351791851313
 20
534.7299013171468687
 10
1222.5633758622198002
 20
533.3307522833441681
 10
1228.0671630905094389
 20
529.7614979990830761
 10
1231.2437968640540475
 20
524.0221384643633655
 10
1232.0932771828531713
 20
516.1126736791852636
 10
1228.9641898171466892
 20
426.5076033208147237
 10
1227.5650407833438749
 20
418.676662637779998
 10
1223.9957864990828966
 20
413.1728754094904161
 10
1218.2564269643630723
 20
409.9962416359460349
 10
1210.3469621791850841
 20
409.1467613171468543
 10
905.6035618208146616
 20
419.788667182853203
 10
897.7726211377798791
 20
421.1878162166558468
 10
892.268833909490354
 20
424.7570705009170524
 10
889.0922001359458591
 20
430.4964300356366493
 10
888.2427198171467353
 20
438.4058948208147513
 97
0
 75
0
 76
1
 47
0.0
 98
0
  0
LWPOLYLINE
  5
45
330
1D
100
AcDbEntity
  8
0
  6
ByLayer
420
8344889
 48
1.0
 60
0
 67
0
370
-1
100
AcDbPolyline
 90
20
 70
1
 43
0.0
 38
0.0
 39
0.0
210
0.0
220
0.0
230
1.0
 10
891.3718071828532175
 20
528.0109651791852912
 40
0.0
 41
0.0
 42
0.0
 10
892.7709562166559181
 20
535.8419058622200737
 40
0.0
 41
0.0
 42
0.0
 10
896.34021050091701
 20
541.3456930905095987
 40
0.0
 41
0.0
 42
0.0
 10
902.0795700356366069
 20
544.52232686405398
 40
0.0
 41
0.0
 42
0.0
 10
909.9890348208147088
 20
545.3718071828532175
 40
0.0
 41
0.0
 42
0.0
 10
1214.7324351791851313
 20
534.7299013171468687
 40
0.0
 41
0.0
 42
0.0
 10
1222.5633758622198002
 20
533.3307522833441681
 40
0.0
 41
0.0
 42
0.0
 10
1228.0671630905094389
 20
529.7614979990830761
 40
0.0
 41
0.0
 42
0.0
 10
1231.2437968640540475
 20
524.0221384643633655
 40
0.0
 41
0.0
 42
0.0
 10
1232.0932771828531713
 20
516.1126736791852636
 40
0.0
 41
0.0
 42
0.0
 10
1228.9641898171466892
 20
426.5076033208147237
 40
0.0
 41
0.0
 42
0.0
 10
1227.5650407833438749
 20
418.676662637779998
 40
0.0
 41
0.0
 42
0.0
 10
1223.9957864990828966
 20
413.1728754094904161
 40
0.0
 41
0.0
 42
0.0
 10
1218.2564269643630723
 20
409.9962416359460349
 40
0.0
 41
0.0
 42
0.0
 10
1210.3469621791850841
 20
409.1467613171468543
 40
0.0
 41
0.0
 42
0.0
 10
905.6035618208146616
 20
419.788667182853203
 40
0.0
 41
0.0
 42
0.0
 10
897.7726211377798791
 20
421.1878162166558468
 40
0.0
 41
0.0
 42
0.0
 10
892.268833909490354
 20
424.7570705009170524
 40
0.0
 41
0.0
 42
0.0
 10
889.0922001359458591
 20
430.4964300356366493
 40
0.0
 41
0.0
 42
0.0
 10
888.2427198171467353
 20
438.4058948208147513
 40
0.0
 41
0.0
 42
0.0
  0
TEXT
  5
46
330
1D
100
AcDbEntity
  8
0
  6
ByLayer
420
1059395
 48
1.0
 60
0
 67
0
370
-1
100
AcDbText
 39
0.0
 10
741.0082339080810243
 20
585.4319131973772983
 30
0.0
 40
18.0
  1
column A    column B    column C
 50
-114.5919014676611027
 41
1.0
 51
0.0
  7
Standard
 71
0
 72
0
 11
0.0
 21
0.0
 31
0.0
210
0.0
220
0.0
230
1.0
100
AcDbText
 73
0
  0
TEXT
  5
47
330
1D
100
AcDbEntity
  8
0
  6
ByLayer
420
1059395
 48
1.0
 60
0
 67
0
370
-1
100
AcDbText
 39
0.0
 10
740.0702453600806621
 20
558.5717218614776129
 30
0.0
 40
18.0
  1
alpha 01    beta  02    gamma 03
 50
-114.5919014676611312
 41
1.0
 51
0.0
  7
Standard
 71
0
 72
0
 11
0.0
 21
0.0
 31
0.0
210
0.0
220
0.0
230
1.0
100
AcDbText
 73
0
  0
TEXT
  5
48
330
1D
100
AcDbEntity
  8
0
  6
ByLayer
420
1059395
 48
1.0
 60
0
 67
0
370
-1
100
AcDbText
 39
0.0
 10
739.1322568896935081
 20
531.7115435618190986
 30
0.0
 40
18.0
  1
  keep this padding ->   exactly here
 50
-114.5919014676611312
 41
1.0
 51
0.0
  7
Standard
 71
0
 72
0
 11
0.0
 21
0.0
 31
0.0
210
0.0
220
0.0
230
1.0
100
AcDbText
 73
0
  0
ENDSEC
  0
SECTION
  2
OBJECTS
  0
DICTIONARY
  5
1
330
0
100
AcDbDictionary
280
0
281
0
  3
ACAD_COLOR
350
2
  3
ACAD_GROUP
350
3
  3
ACAD_LAYOUT
350
4
  3
ACAD_MATERIAL
350
5
  3
ACAD_SORTENTS
350
6
  3
ACAD_MLEADERSTYLE
350
7
  3
ACAD_MLINESTYLE
350
8
  3
ACAD_TABLESTYLE
350
9
  3
ACAD_PLOTSETTINGS
350
A
  3
AcDbVariableDictionary
350
B
  3
ACAD_SCALELIST
350
C
  3
ACAD_VISUALSTYLE
350
D
  3
ACAD_FIELDLIST
350
E
  3
ACAD_IMAGE_DICT
350
F
  0
DICTIONARY
  5
2
330
1
100
AcDbDictionary
280
0
281
0
  0
DICTIONARY
  5
3
330
1
100
AcDbDictionary
280
0
281
0
  0
DICTIONARY
  5
4
330
1
100
AcDbDictionary
280
0
281
0
  0
DICTIONARY
  5
5
330
1
100
AcDbDictionary
280
0
281
0
  0
DICTIONARY
  5
6
330
1
100
AcDbDictionary
280
0
281
0
  0
DICTIONARY
  5
7
330
1
100
AcDbDictionary
280
0
281
0
  0
DICTIONARY
  5
8
330
1
100
AcDbDictionary
280
0
281
0
  0
DICTIONARY
  5
9
330
1
100
AcDbDictionary
280
0
281
0
  0
DICTIONARY
  5
A
330
1
100
AcDbDictionary
280
0
281
0
  0
DICTIONARY
  5
B
330
1
100
AcDbDictionary
280
0
281
0
  0
DICTIONARY
  5
C
330
1
100
AcDbDictionary
280
0
281
0
  0
DICTIONARY
  5
D
330
1
100
AcDbDictionary
280
0
281
0
  0
DICTIONARY
  5
E
330
1
100
AcDbDictionary
280
0
281
0
  0
DICTIONARY
  5
F
330
1
100
AcDbDictionary
280
0
281
0
  0
ENDSEC
  0
EOF
