<?xml version="1.0" encoding="UTF-8"?>
<svg xmlns="http://www.w3.org/2000/svg" xmlns:xlink="http://www.w3.org/1999/xlink" width="1330" height="720" viewBox="0 0 1330 720">
<defs>
<radialGradient id="rg1" cx="640" cy="360" r="640" gradientUnits="userSpaceOnUse"><stop offset="0%" stop-color="rgba(188, 108, 37, 0.18)"/><stop offset="32%" stop-color="rgba(0, 0, 0, 0)"/></radialGradient>
<filter id="ds2" x="-50%" y="-50%" width="200%" height="200%"><feDropShadow dx="0" dy="22" stdDeviation="20" flood-color="rgba(88, 68, 48, 0.14)" result="s0"/></filter>
<clipPath id="ic3"><rect x="65" y="162" width="331" height="148" rx="18" ry="18"/></clipPath>
<filter id="is4" x="-50%" y="-50%" width="200%" height="200%"><feComponentTransfer in="SourceAlpha"><feFuncA type="table" tableValues="1 0"/></feComponentTransfer><feGaussianBlur stdDeviation="0"/><feOffset dx="0" dy="1" result="offsetblur"/><feFlood flood-color="rgba(255, 255, 255, 0.8)" result="color"/><feComposite in2="offsetblur" operator="in"/><feComposite in2="SourceAlpha" operator="in"/></filter>
<filter id="ds5" x="-50%" y="-50%" width="200%" height="200%"><feDropShadow dx="0" dy="22" stdDeviation="20" flood-color="rgba(88, 68, 48, 0.14)" result="s0"/></filter>
<filter id="ds6" x="-50%" y="-50%" width="200%" height="200%"><feDropShadow dx="0" dy="22" stdDeviation="20" flood-color="rgba(88, 68, 48, 0.14)" result="s0"/></filter>
</defs>
<path d="M0,0 L1280,0 L1280,720 L0,720 Z" fill="url(#rg1)"/>
<rect x="40" y="32" width="381" height="303" rx="24" ry="24" fill="rgba(255, 252, 247, 0.92)" stroke="rgba(47, 72, 88, 0.16)" stroke-width="1" filter="url(#ds2)"/>
<text x="65" y="59" fill="rgb(124, 79, 42)" dominant-baseline="text-before-edge" font-weight="700" font-size="28px" font-family="Georgia">CODE BLOCK</text>
<text x="65" y="113.5" fill="rgb(82, 96, 109)" dominant-baseline="text-before-edge" font-size="15px" font-family="Georgia">Padding, indentation, and repeated spaces should survive extraction and rendering.</text>
<rect x="65" y="162" width="331" height="148" rx="18" ry="18" fill="rgb(255, 253, 248)" stroke="rgba(47, 72, 88, 0.18)" stroke-width="2"/>
<rect x="65" y="162" width="331" height="148" rx="18" ry="18" fill="none" clip-path="url(#ic3)" filter="url(#is4)"/>
<text x="91" y="227" fill="rgb(16, 42, 67)" dominant-baseline="text-before-edge" font-size="18px" font-family="Courier New" xml:space="preserve">function renderBlock() {
  const title = &quot;pre  block&quot;;
    return title.padEnd(14, &quot; &quot;);
}</text>
<rect x="449" y="32" width="381" height="303" rx="24" ry="24" fill="rgba(255, 252, 247, 0.92)" stroke="rgba(47, 72, 88, 0.16)" stroke-width="1" filter="url(#ds5)"/>
<text x="474" y="59" fill="rgb(124, 79, 42)" dominant-baseline="text-before-edge" font-weight="700" font-size="28px" font-family="Georgia">ROTATED PRE</text>
<text x="474" y="113.5" fill="rgb(82, 96, 109)" dominant-baseline="text-before-edge" font-size="15px" font-family="Georgia">This block is transformed so Firefox uses native line quads instead of the polyfill path.</text>
<path d="M473.37,179.99 Q474,162 491.98,161.06 L786.57,145.62 Q804.55,144.68 803.92,162.67 L799.99,275.16 Q799.36,293.15 781.39,294.09 L486.79,309.53 Q468.82,310.48 469.44,292.49 Z" fill="rgb(255, 248, 239)" stroke="rgba(188, 108, 37, 0.35)" stroke-width="2"/>
<text x="497.76" y="225.98" fill="rgb(16, 42, 67)" dominant-baseline="text-before-edge" font-size="18px" font-family="Courier New" transform="rotate(-3,497.76,225.98)" xml:space="preserve">if (line.startsWith(&quot;  &quot;)) {
  rows.push(line);
    render(&quot;keep  spaces&quot;);
}</text>
<rect x="859" y="32" width="381" height="303" rx="24" ry="24" fill="rgba(255, 252, 247, 0.92)" stroke="rgba(47, 72, 88, 0.16)" stroke-width="1" filter="url(#ds6)"/>
<text x="884" y="59" fill="rgb(124, 79, 42)" dominant-baseline="text-before-edge" font-weight="700" font-size="28px" font-family="Georgia">SCALED NOTES</text>
<text x="884" y="113.5" fill="rgb(82, 96, 109)" dominant-baseline="text-before-edge" font-size="15px" font-family="Georgia">Columns rely on fixed-width spacing and should keep their alignment.</text>
<path d="M891.37,191.99 Q892,174 909.99,174.63 L1214.73,185.27 Q1232.72,185.9 1232.09,203.89 L1228.96,293.49 Q1228.34,311.48 1210.35,310.85 L905.6,300.21 Q887.61,299.58 888.24,281.59 Z" fill="rgb(255, 250, 242)" stroke="rgba(127, 85, 57, 0.35)" stroke-width="2"/>
<text x="916.9" y="228.6" fill="rgb(16, 42, 67)" dominant-baseline="text-before-edge" font-size="18px" font-family="Courier New" transform="rotate(2,916.9,228.6)" xml:space="preserve">column A    column B    column C
alpha 01    beta  02    gamma 03
  keep this padding -&gt;   exactly here</text>
</svg>