0
SECTION
2
HEADER
9
$ACADVER
1
AC1021
9
$LASTSAVEDBY
1
@tarikjabiri/dxf
9
$HANDSEED
5
2E
9
$INSUNITS
70
0
9
$CLAYER
8
0
9
$VIEWCTR
10
590
20
320
0
ENDSEC
0
SECTION
2
CLASSES
0
ENDSEC
0
SECTION
2
TABLES
0
TABLE
2
VPORT
5
1
330
0
100
AcDbSymbolTable
70
1
0
VPORT
5
19
330
1
100
AcDbSymbolTableRecord
100
AcDbViewportTableRecord
2
*Active
70
0
10
0
20
0
11
1
21
1
12
590
22
320
13
0
23
0
14
10
24
10
15
10
25
10
16
0
26
0
36
1
17
0
27
0
37
0
40
840
41
2
42
50
43
0
44
0
50
0
51
0
71
0
72
100
73
1
74
3
75
0
76
1
77
0
78
0
281
0
65
1
110
0
120
0
130
0
111
1
121
0
131
0
112
0
122
1
132
0
79
0
146
0
348
10020
60
7
61
5
292
1
282
1
141
0
142
0
63
250
421
3358443
0
ENDTAB
0
TABLE
2
LTYPE
5
2
330
0
100
AcDbSymbolTable
70
3
0
LTYPE
5
12
330
2
100
AcDbSymbolTableRecord
100
AcDbLinetypeTableRecord
2
ByBlock
70
0
3

72
65
73
0
40
0
0
LTYPE
5
13
330
2
100
AcDbSymbolTableRecord
100
AcDbLinetypeTableRecord
2
ByLayer
70
0
3

72
65
73
0
40
0
0
LTYPE
5
14
330
2
100
AcDbSymbolTableRecord
100
AcDbLinetypeTableRecord
2
Continuous
70
0
3
Solid line
72
65
73
0
40
0
0
ENDTAB
0
TABLE
2
LAYER
5
3
330
0
100
AcDbSymbolTable
70
1
0
LAYER
5
15
330
3
100
AcDbSymbolTableRecord
100
AcDbLayerTableRecord
2
0
70
0
62
7
6
Continuous
370
0
390
0
0
ENDTAB
0
TABLE
2
STYLE
5
4
330
0
100
AcDbSymbolTable
70
3
0
STYLE
5
16
330
4
100
AcDbSymbolTableRecord
100
AcDbTextStyleTableRecord
2
Standard
70
0
40
0
41
1
50
0
71
0
42
1
3
txt
4

0
STYLE
5
1D
330
4
100
AcDbSymbolTableRecord
100
AcDbTextStyleTableRecord
2
Georgia
70
0
40
0
41
1
50
0
71
0
42
1
3
Georgia.ttf
4

0
STYLE
5
21
330
4
100
AcDbSymbolTableRecord
100
AcDbTextStyleTableRecord
2
Courier New
70
0
40
0
41
1
50
0
71
0
42
1
3
Courier New.ttf
4

0
ENDTAB
0
TABLE
2
VIEW
5
5
330
0
100
AcDbSymbolTable
70
0
0
ENDTAB
0
TABLE
2
UCS
5
6
330
0
100
AcDbSymbolTable
70
0
0
ENDTAB
0
TABLE
2
APPID
5
7
330
0
100
AcDbSymbolTable
70
1
0
APPID
5
17
330
7
100
AcDbSymbolTableRecord
100
AcDbRegAppTableRecord
2
ACAD
70
0
0
ENDTAB
0
TABLE
2
DIMSTYLE
5
8
330
0
100
AcDbSymbolTable
70
1
100
AcDbDimStyleTable
0
DIMSTYLE
105
18
330
8
100
AcDbSymbolTableRecord
100
AcDbDimStyleTableRecord
2
Standard
70
0
340
16
0
ENDTAB
0
TABLE
2
BLOCK_RECORD
5
9
330
0
100
AcDbSymbolTable
70
2
0
BLOCK_RECORD
5
C
330
9
100
AcDbSymbolTableRecord
100
AcDbBlockTableRecord
2
*Model_Space
70
0
280
1
281
0
0
BLOCK_RECORD
5
F
330
9
100
AcDbSymbolTableRecord
100
AcDbBlockTableRecord
2
*Paper_Space
70
0
280
1
281
0
0
ENDTAB
0
ENDSEC
0
SECTION
2
BLOCKS
0
BLOCK
5
D
330
C
100
AcDbEntity
8
0
100
AcDbBlockBegin
2
*Model_Space
70
0
10
0
20
0
30
0
3
*Model_Space
1

0
ENDBLK
5
E
100
AcDbEntity
8
0
100
AcDbBlockEnd
0
BLOCK
5
10
330
F
100
AcDbEntity
8
0
100
AcDbBlockBegin
2
*Paper_Space
70
0
10
0
20
0
30
0
3
*Paper_Space
1

0
ENDBLK
5
11
100
AcDbEntity
8
0
100
AcDbBlockEnd
0
ENDSEC
0
SECTION
2
ENTITIES
0
LWPOLYLINE
5
1A
330
C
100
AcDbEntity
420
12348453
8
0
100
AcDbPolyline
90
5
70
0
43
0
38
0
39
0
10
0
20
720
10
1280
20
720
10
1280
20
0
10
0
20
0
10
0
20
720
0
LWPOLYLINE
5
1B
330
C
100
AcDbEntity
420
3098712
8
0
100
AcDbPolyline
90
42
70
0
43
0
38
0
39
0
10
64
20
688
10
397
20
688
10
397
20
688
10
401.68216772838707
20
687.5388467296775
10
406.18440237676214
20
686.1731087802709
10
410.33368559247043
20
683.9552706952611
10
413.97056274847716
20
680.9705627484772
10
416.9552706952611
20
677.3336855924705
10
419.17310878027087
20
673.1844023767621
10
420.5388467296775
20
668.6821677283871
10
421
20
664
10
421
20
409
10
421
20
409
10
420.5388467296775
20
404.31783227161293
10
419.17310878027087
20
399.81559762323786
10
416.9552706952611
20
395.66631440752957
10
413.97056274847716
20
392.02943725152284
10
410.33368559247043
20
389.0447293047389
10
406.18440237676214
20
386.82689121972913
10
401.68216772838707
20
385.4611532703225
10
397
20
385
10
64
20
385
10
64
20
385
10
59.31783227161292
20
385.4611532703225
10
54.81559762323785
20
386.82689121972913
10
50.666314407529555
20
389.0447293047389
10
47.029437251522864
20
392.02943725152284
10
44.04472930473891
20
395.66631440752957
10
41.82689121972912
20
399.81559762323786
10
40.46115327032247
20
404.31783227161293
10
40
20
409
10
40
20
664
10
40
20
664
10
40.46115327032247
20
668.6821677283871
10
41.82689121972912
20
673.1844023767621
10
44.04472930473891
20
677.3336855924705
10
47.02943725152286
20
680.9705627484772
10
50.66631440752955
20
683.9552706952611
10
54.815597623237835
20
686.1731087802709
10
59.317832271612914
20
687.5388467296775
10
63.99999999999999
20
688
10
64
20
688
0
TEXT
5
1C
330
C
100
AcDbEntity
420
8146730
8
0
100
AcDbText
10
65
20
640
30
0
40
28
1
CODE BLOCK
7
Georgia
100
AcDbText
0
TEXT
5
1E
330
C
100
AcDbEntity
420
5398637
8
0
100
AcDbText
10
65
20
595.25
30
0
40
15
1
Padding, indentation, and repeated spaces should survive extraction and rendering.
7
Georgia
100
AcDbText
0
LWPOLYLINE
5
1F
330
C
100
AcDbEntity
420
3098712
8
0
100
AcDbPolyline
90
42
70
0
43
0
38
0
39
0
10
83
20
558
10
378
20
558
10
378
20
558
10
381.51162579629033
20
557.6541350472581
10
384.8883017825716
20
556.6298315852032
10
388.00026419435284
20
554.9664530214458
10
390.72792206135784
20
552.7279220613578
10
392.96645302144583
20
550.0002641943529
10
394.62983158520314
20
546.8883017825716
10
395.65413504725814
20
543.5116257962903
10
396
20
540
10
396
20
428
10
396
20
428
10
395.65413504725814
20
424.48837420370967
10
394.62983158520314
20
421.1116982174284
10
392.96645302144583
20
417.99973580564716
10
390.72792206135784
20
415.27207793864216
10
388.00026419435284
20
413.03354697855417
10
384.8883017825716
20
411.37016841479686
10
381.51162579629033
20
410.34586495274186
10
378
20
410
10
83
20
410
10
83
20
410
10
79.4883742037097
20
410.34586495274186
10
76.11169821742838
20
411.37016841479686
10
72.99973580564716
20
413.03354697855417
10
70.27207793864214
20
415.27207793864216
10
68.03354697855418
20
417.99973580564716
10
66.37016841479684
20
421.1116982174284
10
65.34586495274185
20
424.48837420370967
10
65
20
428
10
65
20
540
10
65
20
540
10
65.34586495274185
20
543.5116257962903
10
66.37016841479684
20
546.8883017825716
10
68.03354697855418
20
550.0002641943529
10
70.27207793864214
20
552.7279220613578
10
72.99973580564716
20
554.9664530214458
10
76.11169821742837
20
556.6298315852032
10
79.48837420370968
20
557.6541350472581
10
83
20
558
10
83
20
558
0
TEXT
5
20
330
C
100
AcDbEntity
420
1059395
8
0
100
AcDbText
10
91
20
479.5
30
0
40
18
1
function renderBlock() {
  const title = "pre  block";
    return title.padEnd(14, " ");
}
7
Courier New
100
AcDbText
0
LWPOLYLINE
5
22
330
C
100
AcDbEntity
420
3098712
8
0
100
AcDbPolyline
90
42
70
0
43
0
38
0
39
0
10
473
20
688
10
806
20
688
10
806
20
688
10
810.6821677283871
20
687.5388467296775
10
815.1844023767621
20
686.1731087802709
10
819.3336855924705
20
683.9552706952611
10
822.9705627484772
20
680.9705627484772
10
825.9552706952611
20
677.3336855924705
10
828.1731087802709
20
673.1844023767621
10
829.5388467296775
20
668.6821677283871
10
830
20
664
10
830
20
409
10
830
20
409
10
829.5388467296775
20
404.31783227161293
10
828.1731087802709
20
399.81559762323786
10
825.9552706952611
20
395.66631440752957
10
822.9705627484772
20
392.02943725152284
10
819.3336855924705
20
389.0447293047389
10
815.1844023767621
20
386.82689121972913
10
810.6821677283871
20
385.4611532703225
10
806
20
385
10
473
20
385
10
473
20
385
10
468.31783227161293
20
385.4611532703225
10
463.81559762323786
20
386.82689121972913
10
459.66631440752957
20
389.0447293047389
10
456.02943725152284
20
392.02943725152284
10
453.0447293047389
20
395.66631440752957
10
450.82689121972913
20
399.81559762323786
10
449.4611532703225
20
404.31783227161293
10
449
20
409
10
449
20
664
10
449
20
664
10
449.4611532703225
20
668.6821677283871
10
450.82689121972913
20
673.1844023767621
10
453.0447293047389
20
677.3336855924705
10
456.02943725152284
20
680.9705627484772
10
459.66631440752957
20
683.9552706952611
10
463.8155976232378
20
686.1731087802709
10
468.31783227161293
20
687.5388467296775
10
473
20
688
10
473
20
688
0
TEXT
5
23
330
C
100
AcDbEntity
420
8146730
8
0
100
AcDbText
10
474
20
640
30
0
40
28
1
ROTATED PRE
7
Georgia
100
AcDbText
0
TEXT
5
24
330
C
100
AcDbEntity
420
5398637
8
0
100
AcDbText
10
474
20
595.25
30
0
40
15
1
This block is transformed so Firefox uses native line quads instead of the polyfill path.
7
Georgia
100
AcDbText
0
HATCH
5
25
330
C
100
AcDbEntity
420
16775407
8
0
100
AcDbHatch
10
0
20
0
30
0
210
0
220
0
230
1
2
SOLID
70
1
71
0
91
1
92
7
72
0
73
1
93
20
10
473.3718102263793
20
540.010965072903
10
474.7701014777981
20
547.9400458260179
10
478.3367854584337
20
553.7382531582657
10
484.0718621682862
20
557.4055870696465
10
491.9753316073556
20
558.94204756016
10
786.5711983926445
20
574.38116843984
10
794.3961441100113
20
573.6689995644665
10
799.895649654756
20
570.5904453781857
10
803.0697150268788
20
565.1455058809979
10
803.9183402263794
20
557.334181072903
10
799.9898653736207
20
444.8371709270971
10
798.5915741222019
20
436.90809017398215
10
795.0248901415663
20
431.10988284173425
10
789.2898134317138
20
427.44254893035355
10
781.3863439926445
20
425.90608843984
10
486.7904772073556
20
410.46696756016
10
478.96553148998873
20
411.17913643553356
10
473.46602594524404
20
414.2576906218143
10
470.29196057312134
20
419.7026301190021
10
469.4433353736207
20
427.5139549270971
97
0
75
1
76
1
47
1
98
0
0
LWPOLYLINE
5
26
330
C
100
AcDbEntity
420
12348453
8
0
100
AcDbPolyline
90
21
70
0
43
0
38
0
39
0
10
473.3718102263793
20
540.010965072903
10
474.7701014777981
20
547.9400458260179
10
478.3367854584337
20
553.7382531582657
10
484.0718621682862
20
557.4055870696465
10
491.9753316073556
20
558.94204756016
10
786.5711983926445
20
574.38116843984
10
794.3961441100113
20
573.6689995644665
10
799.895649654756
20
570.5904453781857
10
803.0697150268788
20
565.1455058809979
10
803.9183402263794
20
557.334181072903
10
799.9898653736207
20
444.8371709270971
10
798.5915741222019
20
436.90809017398215
10
795.0248901415663
20
431.10988284173425
10
789.2898134317138
20
427.44254893035355
10
781.3863439926445
20
425.90608843984
10
486.7904772073556
20
410.46696756016
10
478.96553148998873
20
411.17913643553356
10
473.46602594524404
20
414.2576906218143
10
470.29196057312134
20
419.7026301190021
10
469.4433353736207
20
427.5139549270971
10
473.3718102263793
20
540.010965072903
0
TEXT
5
27
330
C
100
AcDbEntity
420
1059395
8
0
100
AcDbText
10
497.2877109565948
20
480.5276852682257
30
0
40
18
1
if (line.startsWith("  ")) {
  rows.push(line);
    render("keep  spaces");
}
50
3.000001108559623
7
Courier New
100
AcDbText
0
LWPOLYLINE
5
28
330
C
100
AcDbEntity
420
3098712
8
0
100
AcDbPolyline
90
42
70
0
43
0
38
0
39
0
10
883
20
688
10
1216
20
688
10
1216
20
688
10
1220.6821677283872
20
687.5388467296775
10
1225.1844023767621
20
686.1731087802709
10
1229.3336855924704
20
683.9552706952611
10
1232.970562748477
20
680.9705627484772
10
1235.955270695261
20
677.3336855924705
10
1238.173108780271
20
673.1844023767621
10
1239.5388467296775
20
668.6821677283871
10
1240
20
664
10
1240
20
409
10
1240
20
409
10
1239.5388467296775
20
404.31783227161293
10
1238.173108780271
20
399.81559762323786
10
1235.955270695261
20
395.66631440752957
10
1232.970562748477
20
392.02943725152284
10
1229.3336855924704
20
389.0447293047389
10
1225.1844023767621
20
386.82689121972913
10
1220.6821677283872
20
385.4611532703225
10
1216
20
385
10
883
20
385
10
883
20
385
10
878.3178322716129
20
385.4611532703225
10
873.8155976232379
20
386.82689121972913
10
869.6663144075295
20
389.0447293047389
10
866.0294372515228
20
392.02943725152284
10
863.0447293047389
20
395.66631440752957
10
860.8268912197291
20
399.81559762323786
10
859.4611532703225
20
404.31783227161293
10
859
20
409
10
859
20
664
10
859
20
664
10
859.4611532703225
20
668.6821677283871
10
860.8268912197291
20
673.1844023767621
10
863.0447293047389
20
677.3336855924705
10
866.0294372515228
20
680.9705627484772
10
869.6663144075295
20
683.9552706952611
10
873.8155976232379
20
686.1731087802709
10
878.3178322716129
20
687.5388467296775
10
883
20
688
10
883
20
688
0
TEXT
5
29
330
C
100
AcDbEntity
420
8146730
8
0
100
AcDbText
10
884
20
640
30
0
40
28
1
SCALED NOTES
7
Georgia
100
AcDbText
0
TEXT
5
2A
330
C
100
AcDbEntity
420
5398637
8
0
100
AcDbText
10
884
20
595.25
30
0
40
15
1
Columns rely on fixed-width spacing and should keep their alignment.
7
Georgia
100
AcDbText
0
HATCH
5
2B
330
C
100
AcDbEntity
420
16775922
8
0
100
AcDbHatch
10
0
20
0
30
0
210
0
220
0
230
1
2
SOLID
70
1
71
0
91
1
92
7
72
0
73
1
93
20
10
891.3718071828532
20
528.0109651791853
10
892.7709562166559
20
535.8419058622201
10
896.340210500917
20
541.3456930905096
10
902.0795700356366
20
544.522326864054
10
909.9890348208147
20
545.3718071828532
10
1214.7324351791851
20
534.7299013171469
10
1222.5633758622198
20
533.3307522833442
10
1228.0671630905094
20
529.7614979990831
10
1231.243796864054
20
524.0221384643634
10
1232.0932771828532
20
516.1126736791853
10
1228.9641898171467
20
426.5076033208147
10
1227.5650407833439
20
418.67666263778
10
1223.995786499083
20
413.1728754094904
10
1218.256426964363
20
409.99624163594603
10
1210.346962179185
20
409.14676131714685
10
905.6035618208147
20
419.7886671828532
10
897.7726211377799
20
421.18781621665585
10
892.2688339094904
20
424.75707050091705
10
889.0922001359459
20
430.49643003563665
10
888.2427198171467
20
438.40589482081475
97
0
75
1
76
1
47
1
98
0
0
LWPOLYLINE
5
2C
330
C
100
AcDbEntity
420
8344889
8
0
100
AcDbPolyline
90
21
70
0
43
0
38
0
39
0
10
891.3718071828532
20
528.0109651791853
10
892.7709562166559
20
535.8419058622201
10
896.340210500917
20
541.3456930905096
10
902.0795700356366
20
544.522326864054
10
909.9890348208147
20
545.3718071828532
10
1214.7324351791851
20
534.7299013171469
10
1222.5633758622198
20
533.3307522833442
10
1228.0671630905094
20
529.7614979990831
10
1231.243796864054
20
524.0221384643634
10
1232.0932771828532
20
516.1126736791853
10
1228.9641898171467
20
426.5076033208147
10
1227.5650407833439
20
418.67666263778
10
1223.995786499083
20
413.1728754094904
10
1218.256426964363
20
409.99624163594603
10
1210.346962179185
20
409.14676131714685
10
905.6035618208147
20
419.7886671828532
10
897.7726211377799
20
421.18781621665585
10
892.2688339094904
20
424.75707050091705
10
889.0922001359459
20
430.49643003563665
10
888.2427198171467
20
438.40589482081475
10
891.3718071828532
20
528.0109651791853
0
TEXT
5
2D
330
C
100
AcDbEntity
420
1059395
8
0
100
AcDbText
10
916.4269882957133
20
477.90719529479634
30
0
40
18
1
column A    column B    column C
alpha 01    beta  02    gamma 03
  keep this padding ->   exactly here
50
-2.0000059767316123
7
Courier New
100
AcDbText
0
ENDSEC
0
SECTION
2
OBJECTS
0
DICTIONARY
5
A
330
0
100
AcDbDictionary
281
1
3
ACAD_GROUP
350
B
0
DICTIONARY
5
B
330
A
100
AcDbDictionary
281
0
0
ENDSEC
0
EOF