0
SECTION
2
HEADER
9
$ACADVER
1
AC1021
9
$LASTSAVEDBY
1
@tarikjabiri/dxf
9
$HANDSEED
5
2F
9
$INSUNITS
70
0
9
$CLAYER
8
0
9
$VIEWCTR
10
110
20
206.125
0
ENDSEC
0
SECTION
2
CLASSES
0
ENDSEC
0
SECTION
2
TABLES
0
TABLE
2
VPORT
5
1
330
0
100
AcDbSymbolTable
70
1
0
VPORT
5
19
330
1
100
AcDbSymbolTableRecord
100
AcDbViewportTableRecord
2
*Active
70
0
10
0
20
0
11
1
21
1
12
110
22
206.125
13
0
23
0
14
10
24
10
15
10
25
10
16
0
26
0
36
1
17
0
27
0
37
0
40
571.75
41
2
42
50
43
0
44
0
50
0
51
0
71
0
72
100
73
1
74
3
75
0
76
1
77
0
78
0
281
0
65
1
110
0
120
0
130
0
111
1
121
0
131
0
112
0
122
1
132
0
79
0
146
0
348
10020
60
7
61
5
292
1
282
1
141
0
142
0
63
250
421
3358443
0
ENDTAB
0
TABLE
2
LTYPE
5
2
330
0
100
AcDbSymbolTable
70
3
0
LTYPE
5
12
330
2
100
AcDbSymbolTableRecord
100
AcDbLinetypeTableRecord
2
ByBlock
70
0
3

72
65
73
0
40
0
0
LTYPE
5
13
330
2
100
AcDbSymbolTableRecord
100
AcDbLinetypeTableRecord
2
ByLayer
70
0
3

72
65
73
0
40
0
0
LTYPE
5
14
330
2
100
AcDbSymbolTableRecord
100
AcDbLinetypeTableRecord
2
Continuous
70
0
3
Solid line
72
65
73
0
40
0
0
ENDTAB
0
TABLE
2
LAYER
5
3
330
0
100
AcDbSymbolTable
70
1
0
LAYER
5
15
330
3
100
AcDbSymbolTableRecord
100
AcDbLayerTableRecord
2
0
70
0
62
7
6
Continuous
370
0
390
0
0
ENDTAB
0
TABLE
2
STYLE
5
4
330
0
100
AcDbSymbolTable
70
3
0
STYLE
5
16
330
4
100
AcDbSymbolTableRecord
100
AcDbTextStyleTableRecord
2
Standard
70
0
40
0
41
1
50
0
71
0
42
1
3
txt
4

0
STYLE
5
1B
330
4
100
AcDbSymbolTableRecord
100
AcDbTextStyleTableRecord
2
Arial
70
0
40
0
41
1
50
0
71
0
42
1
3
Arial.ttf
4

0
STYLE
5
27
330
4
100
AcDbSymbolTableRecord
100
AcDbTextStyleTableRecord
2
MS Shell Dlg \32
70
0
40
0
41
1
50
0
71
0
42
1
3
MS Shell Dlg \32.ttf
4

0
ENDTAB
0
TABLE
2
VIEW
5
5
330
0
100
AcDbSymbolTable
70
0
0
ENDTAB
0
TABLE
2
UCS
5
6
330
0
100
AcDbSymbolTable
70
0
0
ENDTAB
0
TABLE
2
APPID
5
7
330
0
100
AcDbSymbolTable
70
1
0
APPID
5
17
330
7
100
AcDbSymbolTableRecord
100
AcDbRegAppTableRecord
2
ACAD
70
0
0
ENDTAB
0
TABLE
2
DIMSTYLE
5
8
330
0
100
AcDbSymbolTable
70
1
100
AcDbDimStyleTable
0
DIMSTYLE
105
18
330
8
100
AcDbSymbolTableRecord
100
AcDbDimStyleTableRecord
2
Standard
70
0
340
16
0
ENDTAB
0
TABLE
2
BLOCK_RECORD
5
9
330
0
100
AcDbSymbolTable
70
2
0
BLOCK_RECORD
5
C
330
9
100
AcDbSymbolTableRecord
100
AcDbBlockTableRecord
2
*Model_Space
70
0
280
1
281
0
0
BLOCK_RECORD
5
F
330
9
100
AcDbSymbolTableRecord
100
AcDbBlockTableRecord
2
*Paper_Space
70
0
280
1
281
0
0
ENDTAB
0
ENDSEC
0
SECTION
2
BLOCKS
0
BLOCK
5
D
330
C
100
AcDbEntity
8
0
100
AcDbBlockBegin
2
*Model_Space
70
0
10
0
20
0
30
0
3
*Model_Space
1

0
ENDBLK
5
E
100
AcDbEntity
8
0
100
AcDbBlockEnd
0
BLOCK
5
10
330
F
100
AcDbEntity
8
0
100
AcDbBlockBegin
2
*Paper_Space
70
0
10
0
20
0
30
0
3
*Paper_Space
1

0
ENDBLK
5
11
100
AcDbEntity
8
0
100
AcDbBlockEnd
0
ENDSEC
0
SECTION
2
ENTITIES
0
TEXT
5
1A
330
C
100
AcDbEntity
420
0
8
0
100
AcDbText
10
0
20
392
30
0
40
18
1
Declarative Shadow DOM
7
Arial
100
AcDbText
0
LWPOLYLINE
5
1C
330
C
100
AcDbEntity
420
0
8
0
100
AcDbPolyline
90
42
70
0
43
0
38
0
39
0
10
12
20
376
10
268
20
376
10
268
20
376
10
270.34108386419354
20
375.76942336483876
10
272.59220118838107
20
375.08655439013546
10
274.66684279623524
20
373.97763534763055
10
276.4852813742386
20
372.4852813742386
10
277.97763534763055
20
370.66684279623524
10
279.08655439013546
20
368.59220118838107
10
279.76942336483876
20
366.34108386419354
10
280
20
364
10
280
20
179
10
280
20
179
10
279.76942336483876
20
176.65891613580646
10
279.08655439013546
20
174.40779881161893
10
277.97763534763055
20
172.33315720376478
10
276.4852813742386
20
170.51471862576142
10
274.66684279623524
20
169.02236465236945
10
272.59220118838107
20
167.91344560986457
10
270.34108386419354
20
167.23057663516124
10
268
20
167
10
12
20
167
10
12
20
167
10
9.65891613580646
20
167.23057663516124
10
7.407798811618923
20
167.91344560986457
10
5.3331572037647765
20
169.02236465236945
10
3.5147186257614305
20
170.51471862576142
10
2.022364652369456
20
172.33315720376478
10
0.91344560986456
20
174.40779881161893
10
0.23057663516123483
20
176.65891613580646
10
0
20
179
10
0
20
364
10
0
20
364
10
0.23057663516123483
20
366.34108386419354
10
0.9134456098645583
20
368.59220118838107
10
2.022364652369454
20
370.66684279623524
10
3.5147186257614287
20
372.4852813742386
10
5.333157203764774
20
373.97763534763055
10
7.407798811618916
20
375.08655439013546
10
9.658916135806455
20
375.76942336483876
10
11.999999999999998
20
376
10
12
20
376
0
LWPOLYLINE
5
1D
330
C
100
AcDbEntity
420
16777215
8
0
100
AcDbPolyline
90
5
70
0
43
0
38
0
39
0
10
0
20
376
10
280
20
376
10
280
20
323
10
0
20
323
10
0
20
376
0
TEXT
5
1E
330
C
100
AcDbEntity
420
16777215
8
0
100
AcDbText
10
16
20
345
30
0
40
18
1
Shadow Card Title
7
Arial
100
AcDbText
0
TEXT
5
1F
330
C
100
AcDbEntity
420
3355443
8
0
100
AcDbText
10
16
20
293
30
0
40
14
1
This content is inside a declarative
7
Arial
100
AcDbText
0
TEXT
5
20
330
C
100
AcDbEntity
420
3355443
8
0
100
AcDbText
10
16
20
272
30
0
40
14
1
shadow DOM. It demonstrates
7
Arial
100
AcDbText
0
TEXT
5
21
330
C
100
AcDbEntity
420
3355443
8
0
100
AcDbText
10
16
20
251
30
0
40
14
1
encapsulated styling and layout
7
Arial
100
AcDbText
0
TEXT
5
22
330
C
100
AcDbEntity
420
3355443
8
0
100
AcDbText
10
16
20
230
30
0
40
14
1
extraction.
7
Arial
100
AcDbText
0
LWPOLYLINE
5
23
330
C
100
AcDbEntity
420
14737632
8
0
100
AcDbPolyline
90
5
70
0
43
0
38
0
39
0
10
0
20
207
10
280
20
207
10
280
20
167
10
0
20
167
10
0
20
207
0
TEXT
5
24
330
C
100
AcDbEntity
420
8947848
8
0
100
AcDbText
10
16
20
183.5
30
0
40
12
1
Footer text
7
Arial
100
AcDbText
0
LWPOLYLINE
5
25
330
C
100
AcDbEntity
420
16777215
8
0
100
AcDbPolyline
90
42
70
0
43
0
38
0
39
0
10
6
20
143.5
10
150.01666259765625
20
143.5
10
150.01666259765625
20
143.5
10
151.18720452975302
20
143.38471168241938
10
152.31276319184678
20
143.04327719506773
10
153.35008399577387
20
142.48881767381528
10
154.25930328477554
20
141.74264068711926
10
155.00548027147153
20
140.8334213981176
10
155.55993979272398
20
139.79610059419053
10
155.90137428007563
20
138.6705419320968
10
156.01666259765625
20
137.5
10
156.01666259765625
20
112.5
10
156.01666259765625
20
112.5
10
155.90137428007563
20
111.3294580679032
10
155.55993979272398
20
110.20389940580947
10
155.00548027147153
20
109.1665786018824
10
154.25930328477554
20
108.25735931288074
10
153.35008399577387
20
107.51118232618472
10
152.31276319184678
20
106.95672280493227
10
151.18720452975302
20
106.61528831758062
10
150.01666259765625
20
106.5
10
6
20
106.5
10
6
20
106.5
10
4.82945806790323
20
106.61528831758062
10
3.7038994058094614
20
106.95672280493227
10
2.6665786018823883
20
107.51118232618472
10
1.7573593128807152
20
108.25735931288074
10
1.011182326184728
20
109.1665786018824
10
0.45672280493228
20
110.20389940580947
10
0.11528831758061742
20
111.3294580679032
10
0
20
112.5
10
0
20
137.5
10
0
20
137.5
10
0.11528831758061742
20
138.6705419320968
10
0.4567228049322791
20
139.79610059419053
10
1.011182326184727
20
140.8334213981176
10
1.7573593128807143
20
141.74264068711926
10
2.666578601882387
20
142.48881767381528
10
3.703899405809458
20
143.04327719506773
10
4.829458067903228
20
143.38471168241938
10
5.999999999999999
20
143.5
10
6
20
143.5
0
TEXT
5
26
330
C
100
AcDbEntity
420
16777215
8
0
100
AcDbText
10
24
20
121.5
30
0
40
14
1
Shadow Button
7
MS Shell Dlg \32
100
AcDbText
0
LWPOLYLINE
5
28
330
C
100
AcDbEntity
420
0
8
0
100
AcDbPolyline
90
42
70
0
43
0
38
0
39
0
10
175.46665954589844
20
147
10
175.46665954589844
20
147
10
175.46665954589844
20
147
10
176.4421111559791
20
146.90392640201617
10
177.38007670772387
20
146.61939766255642
10
178.24451071099645
20
146.15734806151272
10
179.00219345183118
20
145.5355339059327
10
179.62400760741116
20
144.777851165098
10
180.08605720845486
20
143.91341716182546
10
180.37058594791458
20
142.97545161008065
10
180.46665954589844
20
142
10
180.46665954589844
20
142
10
180.46665954589844
20
142
10
180.37058594791458
20
141.02454838991935
10
180.08605720845486
20
140.08658283817454
10
179.62400760741116
20
139.222148834902
10
179.00219345183118
20
138.4644660940673
10
178.24451071099645
20
137.84265193848728
10
177.38007670772387
20
137.38060233744358
10
176.4421111559791
20
137.09607359798383
10
175.46665954589844
20
137
10
175.46665954589844
20
137
10
175.46665954589844
20
137
10
174.49120793581778
20
137.09607359798383
10
173.553242384073
20
137.38060233744358
10
172.68880838080042
20
137.84265193848728
10
171.9311256399657
20
138.46446609406723
10
171.30931148438572
20
139.222148834902
10
170.84726188334201
20
140.08658283817454
10
170.5627331438823
20
141.02454838991935
10
170.46665954589844
20
142
10
170.46665954589844
20
142
10
170.46665954589844
20
142
10
170.5627331438823
20
142.97545161008065
10
170.84726188334201
20
143.91341716182546
10
171.30931148438572
20
144.777851165098
10
171.9311256399657
20
145.5355339059327
10
172.68880838080042
20
146.15734806151272
10
173.55324238407297
20
146.61939766255642
10
174.49120793581778
20
146.90392640201617
10
175.46665954589844
20
147
10
175.46665954589844
20
147
0
LWPOLYLINE
5
29
330
C
100
AcDbEntity
420
3355443
8
0
100
AcDbPolyline
90
42
70
0
43
0
38
0
39
0
10
182.46665954589844
20
137
10
222.93331909179688
20
137
10
222.93331909179688
20
137
10
225.2744029559904
20
136.76942336483876
10
227.52552028017794
20
136.08655439013546
10
229.6001618880321
20
134.97763534763055
10
231.41860046603546
20
133.48528137423858
10
232.91095443942743
20
131.66684279623524
10
234.0198734819323
20
129.59220118838107
10
234.70274245663563
20
127.34108386419354
10
234.93331909179688
20
125
10
234.93331909179688
20
124
10
234.93331909179688
20
124
10
234.70274245663563
20
121.65891613580646
10
234.0198734819323
20
119.40779881161893
10
232.91095443942743
20
117.33315720376476
10
231.41860046603546
20
115.51471862576142
10
229.6001618880321
20
114.02236465236945
10
227.52552028017794
20
112.91344560986454
10
225.2744029559904
20
112.23057663516124
10
222.93331909179688
20
112
10
182.46665954589844
20
112
10
182.46665954589844
20
112
10
180.1255756817049
20
112.23057663516124
10
177.87445835751737
20
112.91344560986454
10
175.79981674966322
20
114.02236465236945
10
173.98137817165986
20
115.51471862576142
10
172.48902419826788
20
117.33315720376476
10
171.380105155763
20
119.40779881161893
10
170.69723618105968
20
121.65891613580646
10
170.46665954589844
20
124
10
170.46665954589844
20
125
10
170.46665954589844
20
125
10
170.69723618105968
20
127.34108386419354
10
171.380105155763
20
129.59220118838107
10
172.48902419826788
20
131.66684279623524
10
173.98137817165986
20
133.48528137423858
10
175.79981674966322
20
134.97763534763055
10
177.87445835751734
20
136.08655439013546
10
180.1255756817049
20
136.76942336483876
10
182.46665954589844
20
137
10
182.46665954589844
20
137
0
TEXT
5
2A
330
C
100
AcDbEntity
420
3355443
8
0
100
AcDbText
10
182.46665954589844
20
121
30
0
40
14
1
Online
7
Arial
100
AcDbText
0
LWPOLYLINE
5
2B
330
C
100
AcDbEntity
420
9489145
8
0
100
AcDbPolyline
90
42
70
0
43
0
38
0
39
0
10
8
20
76.5
10
312
20
76.5
10
312
20
76.5
10
313.560722576129
20
76.34628224322586
10
315.06146745892073
20
75.89103626009029
10
316.4445618641568
20
75.15175689842039
10
317.65685424949237
20
74.15685424949237
10
318.6517568984204
20
72.94456186415681
10
319.3910362600903
20
71.56146745892073
10
319.84628224322586
20
70.06072257612902
10
320
20
68.5
10
320
20
8.5
10
320
20
8.5
10
319.84628224322586
20
6.939277423870976
10
319.3910362600903
20
5.438532541079269
10
318.6517568984204
20
4.05543813584319
10
317.65685424949237
20
2.843145750507631
10
316.4445618641568
20
1.8482431015796124
10
315.06146745892073
20
1.1089637399097114
10
313.560722576129
20
0.6537177567741423
10
312
20
0.5
10
8
20
0.5
10
8
20
0.5
10
6.4392774238709745
20
0.6537177567741423
10
4.938532541079282
20
1.1089637399097114
10
3.5554381358431844
20
1.8482431015796124
10
2.3431457505076203
20
2.843145750507631
10
1.3482431015796372
20
4.05543813584319
10
0.6089637399097061
20
5.438532541079269
10
0.15371775677415656
20
6.939277423870976
10
0
20
8.5
10
0
20
68.5
10
0
20
68.5
10
0.15371775677415656
20
70.06072257612902
10
0.6089637399097052
20
71.56146745892073
10
1.3482431015796363
20
72.94456186415681
10
2.3431457505076185
20
74.15685424949237
10
3.5554381358431826
20
75.15175689842039
10
4.938532541079278
20
75.89103626009029
10
6.439277423870971
20
76.34628224322586
10
7.999999999999998
20
76.5
10
8
20
76.5
0
TEXT
5
2C
330
C
100
AcDbEntity
420
1402304
8
0
100
AcDbText
10
2
20
61.5
30
0
40
16
1
Outer Shadow Root
7
Arial
100
AcDbText
0
LWPOLYLINE
5
2D
330
C
100
AcDbEntity
420
16750592
8
0
100
AcDbPolyline
90
42
70
0
43
0
38
0
39
0
10
8
20
44.5
10
312
20
44.5
10
312
20
44.5
10
313.1705419320968
20
44.38471168241938
10
314.29610059419053
20
44.04327719506773
10
315.3334213981176
20
43.48881767381528
10
316.24264068711926
20
42.74264068711926
10
316.9888176738153
20
41.83342139811759
10
317.54327719506773
20
40.796100594190534
10
317.8847116824194
20
39.670541932096796
10
318
20
38.5
10
318
20
8.5
10
318
20
8.5
10
317.8847116824194
20
7.329458067903204
10
317.54327719506773
20
6.203899405809466
10
316.9888176738153
20
5.1665786018824065
10
316.24264068711926
20
4.257359312880737
10
315.3334213981176
20
3.5111823261847235
10
314.29610059419053
20
2.9567228049322694
10
313.1705419320968
20
2.615288317580621
10
312
20
2.5
10
8
20
2.5
10
8
20
2.5
10
6.82945806790323
20
2.615288317580621
10
5.703899405809461
20
2.9567228049322694
10
4.666578601882389
20
3.5111823261847235
10
3.7573593128807152
20
4.257359312880737
10
3.011182326184728
20
5.1665786018824065
10
2.45672280493228
20
6.203899405809466
10
2.1152883175806174
20
7.329458067903204
10
2
20
8.5
10
2
20
38.5
10
2
20
38.5
10
2.1152883175806174
20
39.670541932096796
10
2.456722804932279
20
40.796100594190534
10
3.011182326184727
20
41.83342139811759
10
3.7573593128807143
20
42.74264068711926
10
4.666578601882387
20
43.48881767381528
10
5.703899405809458
20
44.04327719506773
10
6.829458067903228
20
44.38471168241938
10
7.999999999999999
20
44.5
10
8
20
44.5
0
TEXT
5
2E
330
C
100
AcDbEntity
420
15094016
8
0
100
AcDbText
10
15
20
20.25
30
0
40
13
1
Nested inner shadow DOM content
7
Arial
100
AcDbText
0
ENDSEC
0
SECTION
2
OBJECTS
0
DICTIONARY
5
A
330
0
100
AcDbDictionary
281
1
3
ACAD_GROUP
350
B
0
DICTIONARY
5
B
330
A
100
AcDbDictionary
281
0
0
ENDSEC
0
EOF