0
SECTION
2
HEADER
9
$ACADVER
1
AC1021
9
$LASTSAVEDBY
1
@tarikjabiri/dxf
9
$HANDSEED
5
34
9
$INSUNITS
70
0
9
$CLAYER
8
0
9
$VIEWCTR
10
590
20
495.5
0
ENDSEC
0
SECTION
2
CLASSES
0
ENDSEC
0
SECTION
2
TABLES
0
TABLE
2
VPORT
5
1
330
0
100
AcDbSymbolTable
70
1
0
VPORT
5
19
330
1
100
AcDbSymbolTableRecord
100
AcDbViewportTableRecord
2
*Active
70
0
10
0
20
0
11
1
21
1
12
590
22
495.5
13
0
23
0
14
10
24
10
15
10
25
10
16
0
26
0
36
1
17
0
27
0
37
0
40
569
41
2
42
50
43
0
44
0
50
0
51
0
71
0
72
100
73
1
74
3
75
0
76
1
77
0
78
0
281
0
65
1
110
0
120
0
130
0
111
1
121
0
131
0
112
0
122
1
132
0
79
0
146
0
348
10020
60
7
61
5
292
1
282
1
141
0
142
0
63
250
421
3358443
0
ENDTAB
0
TABLE
2
LTYPE
5
2
330
0
100
AcDbSymbolTable
70
3
0
LTYPE
5
12
330
2
100
AcDbSymbolTableRecord
100
AcDbLinetypeTableRecord
2
ByBlock
70
0
3

72
65
73
0
40
0
0
LTYPE
5
13
330
2
100
AcDbSymbolTableRecord
100
AcDbLinetypeTableRecord
2
ByLayer
70
0
3

72
65
73
0
40
0
0
LTYPE
5
14
330
2
100
AcDbSymbolTableRecord
100
AcDbLinetypeTableRecord
2
Continuous
70
0
3
Solid line
72
65
73
0
40
0
0
ENDTAB
0
TABLE
2
LAYER
5
3
330
0
100
AcDbSymbolTable
70
1
0
LAYER
5
15
330
3
100
AcDbSymbolTableRecord
100
AcDbLayerTableRecord
2
0
70
0
62
7
6
Continuous
370
0
390
0
0
ENDTAB
0
TABLE
2
STYLE
5
4
330
0
100
AcDbSymbolTable
70
1
0
STYLE
5
16
330
4
100
AcDbSymbolTableRecord
100
AcDbTextStyleTableRecord
2
Standard
70
0
40
0
41
1
50
0
71
0
42
1
3
txt
4

0
ENDTAB
0
TABLE
2
VIEW
5
5
330
0
100
AcDbSymbolTable
70
0
0
ENDTAB
0
TABLE
2
UCS
5
6
330
0
100
AcDbSymbolTable
70
0
0
ENDTAB
0
TABLE
2
APPID
5
7
330
0
100
AcDbSymbolTable
70
1
0
APPID
5
17
330
7
100
AcDbSymbolTableRecord
100
AcDbRegAppTableRecord
2
ACAD
70
0
0
ENDTAB
0
TABLE
2
DIMSTYLE
5
8
330
0
100
AcDbSymbolTable
70
1
100
AcDbDimStyleTable
0
DIMSTYLE
105
18
330
8
100
AcDbSymbolTableRecord
100
AcDbDimStyleTableRecord
2
Standard
70
0
340
16
0
ENDTAB
0
TABLE
2
BLOCK_RECORD
5
9
330
0
100
AcDbSymbolTable
70
2
0
BLOCK_RECORD
5
C
330
9
100
AcDbSymbolTableRecord
100
AcDbBlockTableRecord
2
*Model_Space
70
0
280
1
281
0
0
BLOCK_RECORD
5
F
330
9
100
AcDbSymbolTableRecord
100
AcDbBlockTableRecord
2
*Paper_Space
70
0
280
1
281
0
0
ENDTAB
0
ENDSEC
0
SECTION
2
BLOCKS
0
BLOCK
5
D
330
C
100
AcDbEntity
8
0
100
AcDbBlockBegin
2
*Model_Space
70
0
10
0
20
0
30
0
3
*Model_Space
1

0
ENDBLK
5
E
100
AcDbEntity
8
0
100
AcDbBlockEnd
0
BLOCK
5
10
330
F
100
AcDbEntity
8
0
100
AcDbBlockBegin
2
*Paper_Space
70
0
10
0
20
0
30
0
3
*Paper_Space
1

0
ENDBLK
5
11
100
AcDbEntity
8
0
100
AcDbBlockEnd
0
ENDSEC
0
SECTION
2
ENTITIES
0
LWPOLYLINE
5
1A
330
C
100
AcDbEntity
420
#000000
8
0
100
AcDbPolyline
90
5
70
0
43
0
38
0
39
0
10
20
20
700
10
1260
20
700
10
1260
20
296
10
20
20
296
10
20
20
700
0
LWPOLYLINE
5
1B
330
C
100
AcDbEntity
420
#000000
8
0
100
AcDbPolyline
90
5
70
0
43
0
38
0
39
0
10
20
20
700
10
1260
20
700
10
1260
20
679
10
20
20
679
10
20
20
700
0
TEXT
5
1C
330
C
100
AcDbEntity
420
#000000
8
0
100
AcDbText
10
20
20
680
30
0
40
20
1
Declarative Shadow DOM
7
STANDARD
100
AcDbText
0
LWPOLYLINE
5
1D
330
C
100
AcDbEntity
420
#000000
8
0
100
AcDbPolyline
90
5
70
0
43
0
38
0
39
0
10
20
20
669
10
300
20
669
10
300
20
461
10
20
20
461
10
20
20
669
0
LWPOLYLINE
5
1E
330
C
100
AcDbEntity
420
#ffffff
8
0
100
AcDbPolyline
90
5
70
0
43
0
38
0
39
0
10
20
20
669
10
300
20
669
10
300
20
616
10
20
20
616
10
20
20
669
0
TEXT
5
1F
330
C
100
AcDbEntity
420
#000000
8
0
100
AcDbText
10
36
20
633
30
0
40
20
1
Shadow Card Title
7
STANDARD
100
AcDbText
0
LWPOLYLINE
5
20
330
C
100
AcDbEntity
420
#333333
8
0
100
AcDbPolyline
90
5
70
0
43
0
38
0
39
0
10
20
20
616
10
300
20
616
10
300
20
500
10
20
20
500
10
20
20
616
0
TEXT
5
21
330
C
100
AcDbEntity
420
#000000
8
0
100
AcDbText
10
36
20
582
30
0
40
16
1

          This content is inside a declarative shadow DOM. It demonstrates
          encapsulated styling and layout extraction.
        
7
STANDARD
100
AcDbText
0
TEXT
5
22
330
C
100
AcDbEntity
420
#000000
8
0
100
AcDbText
10
36
20
561
30
0
40
16
1

          This content is inside a declarative shadow DOM. It demonstrates
          encapsulated styling and layout extraction.
        
7
STANDARD
100
AcDbText
0
TEXT
5
23
330
C
100
AcDbEntity
420
#000000
8
0
100
AcDbText
10
36
20
540
30
0
40
16
1

          This content is inside a declarative shadow DOM. It demonstrates
          encapsulated styling and layout extraction.
        
7
STANDARD
100
AcDbText
0
TEXT
5
24
330
C
100
AcDbEntity
420
#000000
8
0
100
AcDbText
10
36
20
519
30
0
40
16
1

          This content is inside a declarative shadow DOM. It demonstrates
          encapsulated styling and layout extraction.
        
7
STANDARD
100
AcDbText
0
LWPOLYLINE
5
25
330
C
100
AcDbEntity
420
#e0e0e0
8
0
100
AcDbPolyline
90
5
70
0
43
0
38
0
39
0
10
20
20
500
10
300
20
500
10
300
20
461
10
20
20
461
10
20
20
500
0
TEXT
5
26
330
C
100
AcDbEntity
420
#f5f5f5
8
0
100
AcDbText
10
36
20
473
30
0
40
14
1
Footer text
7
STANDARD
100
AcDbText
0
LWPOLYLINE
5
27
330
C
100
AcDbEntity
420
#000000
8
0
100
AcDbPolyline
90
5
70
0
43
0
38
0
39
0
10
20
20
437
10
171
20
437
10
171
20
401
10
20
20
401
10
20
20
437
0
LWPOLYLINE
5
28
330
C
100
AcDbEntity
420
#ffffff
8
0
100
AcDbPolyline
90
5
70
0
43
0
38
0
39
0
10
20
20
437
10
171
20
437
10
171
20
401
10
20
20
401
10
20
20
437
0
TEXT
5
29
330
C
100
AcDbEntity
420
#1e88e5
8
0
100
AcDbText
10
44
20
411
30
0
40
16
1
Shadow Button
7
STANDARD
100
AcDbText
0
LWPOLYLINE
5
2A
330
C
100
AcDbEntity
420
#000000
8
0
100
AcDbPolyline
90
5
70
0
43
0
38
0
39
0
10
185
20
441
10
249
20
441
10
249
20
407
10
185
20
407
10
185
20
441
0
LWPOLYLINE
5
2B
330
C
100
AcDbEntity
420
#000000
8
0
100
AcDbPolyline
90
5
70
0
43
0
38
0
39
0
10
185
20
441
10
195
20
441
10
195
20
431
10
185
20
431
10
185
20
441
0
LWPOLYLINE
5
2C
330
C
100
AcDbEntity
420
#333333
8
0
100
AcDbPolyline
90
5
70
0
43
0
38
0
39
0
10
185
20
431
10
249
20
431
10
249
20
407
10
185
20
407
10
185
20
431
0
TEXT
5
2D
330
C
100
AcDbEntity
420
#e8f5e9
8
0
100
AcDbText
10
197.109375
20
411
30
0
40
16
1
Online
7
STANDARD
100
AcDbText
0
LWPOLYLINE
5
2E
330
C
100
AcDbEntity
420
#90caf9
8
0
100
AcDbPolyline
90
5
70
0
43
0
38
0
39
0
10
20
20
371
10
340
20
371
10
340
20
296
10
20
20
296
10
20
20
371
0
LWPOLYLINE
5
2F
330
C
100
AcDbEntity
420
#1565c0
8
0
100
AcDbPolyline
90
5
70
0
43
0
38
0
39
0
10
22
20
369
10
338
20
369
10
338
20
351
10
22
20
351
10
22
20
369
0
TEXT
5
30
330
C
100
AcDbEntity
420
#000000
8
0
100
AcDbText
10
22
20
352
30
0
40
17
1
Outer Shadow Root
7
STANDARD
100
AcDbText
0
LWPOLYLINE
5
31
330
C
100
AcDbEntity
420
#ff9800
8
0
100
AcDbPolyline
90
5
70
0
43
0
38
0
39
0
10
22
20
339
10
338
20
339
10
338
20
298
10
22
20
298
10
22
20
339
0
LWPOLYLINE
5
32
330
C
100
AcDbEntity
420
#e65100
8
0
100
AcDbPolyline
90
5
70
0
43
0
38
0
39
0
10
35
20
326
10
325
20
326
10
325
20
311
10
35
20
311
10
35
20
326
0
TEXT
5
33
330
C
100
AcDbEntity
420
#000000
8
0
100
AcDbText
10
35
20
311
30
0
40
15
1
Nested inner shadow DOM content
7
STANDARD
100
AcDbText
0
ENDSEC
0
SECTION
2
OBJECTS
0
DICTIONARY
5
A
330
0
100
AcDbDictionary
281
1
3
ACAD_GROUP
350
B
0
DICTIONARY
5
B
330
A
100
AcDbDictionary
281
0
0
ENDSEC
0
EOF