0
SECTION
2
HEADER
9
$ACADVER
1
AC1021
9
$LASTSAVEDBY
1
@tarikjabiri/dxf
9
$HANDSEED
5
2B
9
$INSUNITS
70
0
9
$CLAYER
8
0
9
$VIEWCTR
10
110
20
204.375
0
ENDSEC
0
SECTION
2
CLASSES
0
ENDSEC
0
SECTION
2
TABLES
0
TABLE
2
VPORT
5
1
330
0
100
AcDbSymbolTable
70
1
0
VPORT
5
19
330
1
100
AcDbSymbolTableRecord
100
AcDbViewportTableRecord
2
*Active
70
0
10
0
20
0
11
1
21
1
12
110
22
204.375
13
0
23
0
14
10
24
10
15
10
25
10
16
0
26
0
36
1
17
0
27
0
37
0
40
570.25
41
2
42
50
43
0
44
0
50
0
51
0
71
0
72
100
73
1
74
3
75
0
76
1
77
0
78
0
281
0
65
1
110
0
120
0
130
0
111
1
121
0
131
0
112
0
122
1
132
0
79
0
146
0
348
10020
60
7
61
5
292
1
282
1
141
0
142
0
63
250
421
3358443
0
ENDTAB
0
TABLE
2
LTYPE
5
2
330
0
100
AcDbSymbolTable
70
3
0
LTYPE
5
12
330
2
100
AcDbSymbolTableRecord
100
AcDbLinetypeTableRecord
2
ByBlock
70
0
3

72
65
73
0
40
0
0
LTYPE
5
13
330
2
100
AcDbSymbolTableRecord
100
AcDbLinetypeTableRecord
2
ByLayer
70
0
3

72
65
73
0
40
0
0
LTYPE
5
14
330
2
100
AcDbSymbolTableRecord
100
AcDbLinetypeTableRecord
2
Continuous
70
0
3
Solid line
72
65
73
0
40
0
0
ENDTAB
0
TABLE
2
LAYER
5
3
330
0
100
AcDbSymbolTable
70
1
0
LAYER
5
15
330
3
100
AcDbSymbolTableRecord
100
AcDbLayerTableRecord
2
0
70
0
62
7
6
Continuous
370
0
390
0
0
ENDTAB
0
TABLE
2
STYLE
5
4
330
0
100
AcDbSymbolTable
70
2
0
STYLE
5
16
330
4
100
AcDbSymbolTableRecord
100
AcDbTextStyleTableRecord
2
Standard
70
0
40
0
41
1
50
0
71
0
42
1
3
txt
4

0
STYLE
5
1B
330
4
100
AcDbSymbolTableRecord
100
AcDbTextStyleTableRecord
2
Arial
70
0
40
0
41
1
50
0
71
0
42
1
3
Arial.ttf
4

0
ENDTAB
0
TABLE
2
VIEW
5
5
330
0
100
AcDbSymbolTable
70
0
0
ENDTAB
0
TABLE
2
UCS
5
6
330
0
100
AcDbSymbolTable
70
0
0
ENDTAB
0
TABLE
2
APPID
5
7
330
0
100
AcDbSymbolTable
70
1
0
APPID
5
17
330
7
100
AcDbSymbolTableRecord
100
AcDbRegAppTableRecord
2
ACAD
70
0
0
ENDTAB
0
TABLE
2
DIMSTYLE
5
8
330
0
100
AcDbSymbolTable
70
1
100
AcDbDimStyleTable
0
DIMSTYLE
105
18
330
8
100
AcDbSymbolTableRecord
100
AcDbDimStyleTableRecord
2
Standard
70
0
340
16
0
ENDTAB
0
TABLE
2
BLOCK_RECORD
5
9
330
0
100
AcDbSymbolTable
70
2
0
BLOCK_RECORD
5
C
330
9
100
AcDbSymbolTableRecord
100
AcDbBlockTableRecord
2
*Model_Space
70
0
280
1
281
0
0
BLOCK_RECORD
5
F
330
9
100
AcDbSymbolTableRecord
100
AcDbBlockTableRecord
2
*Paper_Space
70
0
280
1
281
0
0
ENDTAB
0
ENDSEC
0
SECTION
2
BLOCKS
0
BLOCK
5
D
330
C
100
AcDbEntity
8
0
100
AcDbBlockBegin
2
*Model_Space
70
0
10
0
20
0
30
0
3
*Model_Space
1

0
ENDBLK
5
E
100
AcDbEntity
8
0
100
AcDbBlockEnd
0
BLOCK
5
10
330
F
100
AcDbEntity
8
0
100
AcDbBlockBegin
2
*Paper_Space
70
0
10
0
20
0
30
0
3
*Paper_Space
1

0
ENDBLK
5
11
100
AcDbEntity
8
0
100
AcDbBlockEnd
0
ENDSEC
0
SECTION
2
ENTITIES
0
TEXT
5
1A
330
C
100
AcDbEntity
420
0
8
0
100
AcDbText
10
0
20
389.5
30
0
40
18
1
Declarative Shadow DOM
7
Arial
100
AcDbText
0
LWPOLYLINE
5
1C
330
C
100
AcDbEntity
420
16777215
8
0
100
AcDbPolyline
90
42
70
0
43
0
38
0
39
0
10
12
20
373
10
268
20
373
10
268
20
373
10
270.34108386419354
20
372.76942336483876
10
272.59220118838107
20
372.08655439013546
10
274.66684279623524
20
370.97763534763055
10
276.4852813742386
20
369.4852813742386
10
277.97763534763055
20
367.66684279623524
10
279.08655439013546
20
365.59220118838107
10
279.76942336483876
20
363.34108386419354
10
280
20
361
10
280
20
177
10
280
20
177
10
279.76942336483876
20
174.65891613580646
10
279.08655439013546
20
172.40779881161893
10
277.97763534763055
20
170.33315720376478
10
276.4852813742386
20
168.51471862576142
10
274.66684279623524
20
167.02236465236945
10
272.59220118838107
20
165.91344560986457
10
270.34108386419354
20
165.23057663516124
10
268
20
165
10
12
20
165
10
12
20
165
10
9.65891613580646
20
165.23057663516124
10
7.407798811618923
20
165.91344560986457
10
5.3331572037647765
20
167.02236465236945
10
3.5147186257614305
20
168.51471862576142
10
2.022364652369456
20
170.33315720376478
10
0.91344560986456
20
172.40779881161893
10
0.23057663516123483
20
174.65891613580646
10
0
20
177
10
0
20
361
10
0
20
361
10
0.23057663516123483
20
363.34108386419354
10
0.9134456098645583
20
365.59220118838107
10
2.022364652369454
20
367.66684279623524
10
3.5147186257614287
20
369.4852813742386
10
5.333157203764774
20
370.97763534763055
10
7.407798811618916
20
372.08655439013546
10
9.658916135806455
20
372.76942336483876
10
11.999999999999998
20
373
10
12
20
373
0
LWPOLYLINE
5
1D
330
C
100
AcDbEntity
420
6717162
8
0
100
AcDbPolyline
90
5
70
0
43
0
38
0
39
0
10
0
20
373
10
280
20
373
10
280
20
320
10
0
20
320
10
0
20
373
0
TEXT
5
1E
330
C
100
AcDbEntity
420
16777215
8
0
100
AcDbText
10
16
20
342.5
30
0
40
18
1
Shadow Card Title
7
Arial
100
AcDbText
0
TEXT
5
1F
330
C
100
AcDbEntity
420
3355443
8
0
100
AcDbText
10
16
20
259
30
0
40
14
1
This content is inside a declarative shadow DOM. It demonstrates encapsulated styling and layout extraction.
7
Arial
100
AcDbText
0
LWPOLYLINE
5
20
330
C
100
AcDbEntity
420
14737632
8
0
100
AcDbPolyline
90
5
70
0
43
0
38
0
39
0
10
0
20
204
10
280
20
204
10
280
20
165
10
0
20
165
10
0
20
204
0
TEXT
5
21
330
C
100
AcDbEntity
420
8947848
8
0
100
AcDbText
10
16
20
181
30
0
40
12
1
Footer text
7
Arial
100
AcDbText
0
LWPOLYLINE
5
22
330
C
100
AcDbEntity
420
2001125
8
0
100
AcDbPolyline
90
42
70
0
43
0
38
0
39
0
10
6
20
141
10
145
20
141
10
145
20
141
10
146.17054193209677
20
140.88471168241938
10
147.29610059419053
20
140.54327719506773
10
148.33342139811762
20
139.98881767381528
10
149.2426406871193
20
139.24264068711926
10
149.98881767381528
20
138.3334213981176
10
150.54327719506773
20
137.29610059419053
10
150.88471168241938
20
136.1705419320968
10
151
20
135
10
151
20
111
10
151
20
111
10
150.88471168241938
20
109.8294580679032
10
150.54327719506773
20
108.70389940580947
10
149.98881767381528
20
107.6665786018824
10
149.2426406871193
20
106.75735931288074
10
148.33342139811762
20
106.01118232618472
10
147.29610059419053
20
105.45672280493227
10
146.17054193209677
20
105.11528831758062
10
145
20
105
10
6
20
105
10
6
20
105
10
4.82945806790323
20
105.11528831758062
10
3.7038994058094614
20
105.45672280493227
10
2.6665786018823883
20
106.01118232618472
10
1.7573593128807152
20
106.75735931288074
10
1.011182326184728
20
107.6665786018824
10
0.45672280493228
20
108.70389940580947
10
0.11528831758061742
20
109.8294580679032
10
0
20
111
10
0
20
135
10
0
20
135
10
0.11528831758061742
20
136.1705419320968
10
0.4567228049322791
20
137.29610059419053
10
1.011182326184727
20
138.3334213981176
10
1.7573593128807143
20
139.24264068711926
10
2.666578601882387
20
139.98881767381528
10
3.703899405809458
20
140.54327719506773
10
4.829458067903228
20
140.88471168241938
10
5.999999999999999
20
141
10
6
20
141
0
TEXT
5
23
330
C
100
AcDbEntity
420
16777215
8
0
100
AcDbText
10
24
20
119.5
30
0
40
14
1
Shadow Button
7
Arial
100
AcDbText
0
LWPOLYLINE
5
24
330
C
100
AcDbEntity
420
5025616
8
0
100
AcDbPolyline
90
42
70
0
43
0
38
0
39
0
10
170
20
145
10
170
20
145
10
170
20
145
10
170.97545161008065
20
144.90392640201617
10
171.91341716182544
20
144.61939766255642
10
172.777851165098
20
144.15734806151272
10
173.53553390593274
20
143.5355339059327
10
174.15734806151272
20
142.777851165098
10
174.61939766255642
20
141.91341716182546
10
174.90392640201614
20
140.97545161008065
10
175
20
140
10
175
20
140
10
175
20
140
10
174.90392640201614
20
139.02454838991935
10
174.61939766255642
20
138.08658283817454
10
174.15734806151272
20
137.222148834902
10
173.53553390593274
20
136.4644660940673
10
172.777851165098
20
135.84265193848728
10
171.91341716182544
20
135.38060233744358
10
170.97545161008065
20
135.09607359798383
10
170
20
135
10
170
20
135
10
170
20
135
10
169.02454838991935
20
135.09607359798383
10
168.08658283817456
20
135.38060233744358
10
167.222148834902
20
135.84265193848728
10
166.46446609406726
20
136.46446609406723
10
165.84265193848728
20
137.222148834902
10
165.38060233744358
20
138.08658283817454
10
165.09607359798386
20
139.02454838991935
10
165
20
140
10
165
20
140
10
165
20
140
10
165.09607359798386
20
140.97545161008065
10
165.38060233744358
20
141.91341716182546
10
165.84265193848728
20
142.777851165098
10
166.46446609406726
20
143.5355339059327
10
167.222148834902
20
144.15734806151272
10
168.08658283817454
20
144.61939766255642
10
169.02454838991935
20
144.90392640201617
10
170
20
145
10
170
20
145
0
LWPOLYLINE
5
25
330
C
100
AcDbEntity
420
15267305
8
0
100
AcDbPolyline
90
42
70
0
43
0
38
0
39
0
10
177
20
135
10
217
20
135
10
217
20
135
10
219.34108386419354
20
134.76942336483876
10
221.59220118838107
20
134.08655439013546
10
223.66684279623522
20
132.97763534763055
10
225.48528137423858
20
131.48528137423858
10
226.97763534763055
20
129.66684279623524
10
228.08655439013543
20
127.59220118838107
10
228.76942336483876
20
125.34108386419354
10
229
20
123
10
229
20
123
10
229
20
123
10
228.76942336483876
20
120.65891613580646
10
228.08655439013543
20
118.40779881161893
10
226.97763534763055
20
116.33315720376476
10
225.48528137423858
20
114.51471862576142
10
223.66684279623522
20
113.02236465236945
10
221.59220118838107
20
111.91344560986454
10
219.34108386419354
20
111.23057663516124
10
217
20
111
10
177
20
111
10
177
20
111
10
174.65891613580646
20
111.23057663516124
10
172.40779881161893
20
111.91344560986454
10
170.33315720376478
20
113.02236465236945
10
168.51471862576142
20
114.51471862576142
10
167.02236465236945
20
116.33315720376476
10
165.91344560986457
20
118.40779881161893
10
165.23057663516124
20
120.65891613580646
10
165
20
123
10
165
20
123
10
165
20
123
10
165.23057663516124
20
125.34108386419354
10
165.91344560986457
20
127.59220118838107
10
167.02236465236945
20
129.66684279623524
10
168.51471862576142
20
131.48528137423858
10
170.33315720376478
20
132.97763534763055
10
172.4077988116189
20
134.08655439013546
10
174.65891613580646
20
134.76942336483876
10
177
20
135
10
177
20
135
0
TEXT
5
26
330
C
100
AcDbEntity
420
3355443
8
0
100
AcDbText
10
177
20
119.5
30
0
40
14
1
Online
7
Arial
100
AcDbText
0
LWPOLYLINE
5
27
330
C
100
AcDbEntity
420
9489145
8
0
100
AcDbPolyline
90
42
70
0
43
0
38
0
39
0
10
8
20
75
10
312
20
75
10
312
20
75
10
313.560722576129
20
74.84628224322586
10
315.06146745892073
20
74.39103626009029
10
316.4445618641568
20
73.65175689842039
10
317.65685424949237
20
72.65685424949237
10
318.6517568984204
20
71.44456186415681
10
319.3910362600903
20
70.06146745892073
10
319.84628224322586
20
68.56072257612902
10
320
20
67
10
320
20
8
10
320
20
8
10
319.84628224322586
20
6.439277423870976
10
319.3910362600903
20
4.938532541079269
10
318.6517568984204
20
3.5554381358431897
10
317.65685424949237
20
2.343145750507631
10
316.4445618641568
20
1.3482431015796124
10
315.06146745892073
20
0.6089637399097114
10
313.560722576129
20
0.15371775677414234
10
312
20
0
10
8
20
0
10
8
20
0
10
6.4392774238709745
20
0.15371775677414234
10
4.938532541079282
20
0.6089637399097114
10
3.5554381358431844
20
1.3482431015796124
10
2.3431457505076203
20
2.343145750507631
10
1.3482431015796372
20
3.5554381358431897
10
0.6089637399097061
20
4.938532541079269
10
0.15371775677415656
20
6.439277423870976
10
0
20
8
10
0
20
67
10
0
20
67
10
0.15371775677415656
20
68.56072257612902
10
0.6089637399097052
20
70.06146745892073
10
1.3482431015796363
20
71.44456186415681
10
2.3431457505076185
20
72.65685424949237
10
3.5554381358431826
20
73.65175689842039
10
4.938532541079278
20
74.39103626009029
10
6.439277423870971
20
74.84628224322586
10
7.999999999999998
20
75
10
8
20
75
0
TEXT
5
28
330
C
100
AcDbEntity
420
1402304
8
0
100
AcDbText
10
2
20
60.5
30
0
40
16
1
Outer Shadow Root
7
Arial
100
AcDbText
0
LWPOLYLINE
5
29
330
C
100
AcDbEntity
420
16750592
8
0
100
AcDbPolyline
90
42
70
0
43
0
38
0
39
0
10
8
20
43
10
312
20
43
10
312
20
43
10
313.1705419320968
20
42.88471168241938
10
314.29610059419053
20
42.54327719506773
10
315.3334213981176
20
41.98881767381528
10
316.24264068711926
20
41.24264068711926
10
316.9888176738153
20
40.33342139811759
10
317.54327719506773
20
39.296100594190534
10
317.8847116824194
20
38.170541932096796
10
318
20
37
10
318
20
8
10
318
20
8
10
317.8847116824194
20
6.829458067903204
10
317.54327719506773
20
5.703899405809466
10
316.9888176738153
20
4.6665786018824065
10
316.24264068711926
20
3.7573593128807374
10
315.3334213981176
20
3.0111823261847235
10
314.29610059419053
20
2.4567228049322694
10
313.1705419320968
20
2.115288317580621
10
312
20
2
10
8
20
2
10
8
20
2
10
6.82945806790323
20
2.115288317580621
10
5.703899405809461
20
2.4567228049322694
10
4.666578601882389
20
3.0111823261847235
10
3.7573593128807152
20
3.7573593128807374
10
3.011182326184728
20
4.6665786018824065
10
2.45672280493228
20
5.703899405809466
10
2.1152883175806174
20
6.829458067903204
10
2
20
8
10
2
20
37
10
2
20
37
10
2.1152883175806174
20
38.170541932096796
10
2.456722804932279
20
39.296100594190534
10
3.011182326184727
20
40.33342139811759
10
3.7573593128807143
20
41.24264068711926
10
4.666578601882387
20
41.98881767381528
10
5.703899405809458
20
42.54327719506773
10
6.829458067903228
20
42.88471168241938
10
7.999999999999999
20
43
10
8
20
43
0
TEXT
5
2A
330
C
100
AcDbEntity
420
15094016
8
0
100
AcDbText
10
15
20
19.25
30
0
40
13
1
Nested inner shadow DOM content
7
Arial
100
AcDbText
0
ENDSEC
0
SECTION
2
OBJECTS
0
DICTIONARY
5
A
330
0
100
AcDbDictionary
281
1
3
ACAD_GROUP
350
B
0
DICTIONARY
5
B
330
A
100
AcDbDictionary
281
0
0
ENDSEC
0
EOF