0
SECTION
2
HEADER
9
$ACADVER
1
AC1021
9
$LASTSAVEDBY
1
@tarikjabiri/dxf
9
$HANDSEED
5
2D
9
$INSUNITS
70
0
9
$CLAYER
8
0
9
$VIEWCTR
10
120
20
340
0
ENDSEC
0
SECTION
2
CLASSES
0
ENDSEC
0
SECTION
2
TABLES
0
TABLE
2
VPORT
5
1
330
0
100
AcDbSymbolTable
70
1
0
VPORT
5
19
330
1
100
AcDbSymbolTableRecord
100
AcDbViewportTableRecord
2
*Active
70
0
10
0
20
0
11
1
21
1
12
120
22
340
13
0
23
0
14
10
24
10
15
10
25
10
16
0
26
0
36
1
17
0
27
0
37
0
40
880
41
2
42
50
43
0
44
0
50
0
51
0
71
0
72
100
73
1
74
3
75
0
76
1
77
0
78
0
281
0
65
1
110
0
120
0
130
0
111
1
121
0
131
0
112
0
122
1
132
0
79
0
146
0
348
10020
60
7
61
5
292
1
282
1
141
0
142
0
63
250
421
3358443
0
ENDTAB
0
TABLE
2
LTYPE
5
2
330
0
100
AcDbSymbolTable
70
3
0
LTYPE
5
12
330
2
100
AcDbSymbolTableRecord
100
AcDbLinetypeTableRecord
2
ByBlock
70
0
3

72
65
73
0
40
0
0
LTYPE
5
13
330
2
100
AcDbSymbolTableRecord
100
AcDbLinetypeTableRecord
2
ByLayer
70
0
3

72
65
73
0
40
0
0
LTYPE
5
14
330
2
100
AcDbSymbolTableRecord
100
AcDbLinetypeTableRecord
2
Continuous
70
0
3
Solid line
72
65
73
0
40
0
0
ENDTAB
0
TABLE
2
LAYER
5
3
330
0
100
AcDbSymbolTable
70
1
0
LAYER
5
15
330
3
100
AcDbSymbolTableRecord
100
AcDbLayerTableRecord
2
0
70
0
62
7
6
Continuous
370
0
390
0
0
ENDTAB
0
TABLE
2
STYLE
5
4
330
0
100
AcDbSymbolTable
70
1
0
STYLE
5
16
330
4
100
AcDbSymbolTableRecord
100
AcDbTextStyleTableRecord
2
Standard
70
0
40
0
41
1
50
0
71
0
42
1
3
txt
4

0
ENDTAB
0
TABLE
2
VIEW
5
5
330
0
100
AcDbSymbolTable
70
0
0
ENDTAB
0
TABLE
2
UCS
5
6
330
0
100
AcDbSymbolTable
70
0
0
ENDTAB
0
TABLE
2
APPID
5
7
330
0
100
AcDbSymbolTable
70
1
0
APPID
5
17
330
7
100
AcDbSymbolTableRecord
100
AcDbRegAppTableRecord
2
ACAD
70
0
0
ENDTAB
0
TABLE
2
DIMSTYLE
5
8
330
0
100
AcDbSymbolTable
70
1
100
AcDbDimStyleTable
0
DIMSTYLE
105
18
330
8
100
AcDbSymbolTableRecord
100
AcDbDimStyleTableRecord
2
Standard
70
0
340
16
0
ENDTAB
0
TABLE
2
BLOCK_RECORD
5
9
330
0
100
AcDbSymbolTable
70
2
0
BLOCK_RECORD
5
C
330
9
100
AcDbSymbolTableRecord
100
AcDbBlockTableRecord
2
*Model_Space
70
0
280
1
281
0
0
BLOCK_RECORD
5
F
330
9
100
AcDbSymbolTableRecord
100
AcDbBlockTableRecord
2
*Paper_Space
70
0
280
1
281
0
0
ENDTAB
0
ENDSEC
0
SECTION
2
BLOCKS
0
BLOCK
5
D
330
C
100
AcDbEntity
8
0
100
AcDbBlockBegin
2
*Model_Space
70
0
10
0
20
0
30
0
3
*Model_Space
1

0
ENDBLK
5
E
100
AcDbEntity
8
0
100
AcDbBlockEnd
0
BLOCK
5
10
330
F
100
AcDbEntity
8
0
100
AcDbBlockBegin
2
*Paper_Space
70
0
10
0
20
0
30
0
3
*Paper_Space
1

0
ENDBLK
5
11
100
AcDbEntity
8
0
100
AcDbBlockEnd
0
ENDSEC
0
SECTION
2
ENTITIES
0
TEXT
5
1A
330
C
100
AcDbEntity
420
0
8
0
100
AcDbText
10
20
20
680
30
0
40
20
1
Declarative Shadow DOM
7
STANDARD
100
AcDbText
0
HATCH
5
1B
330
C
100
AcDbEntity
420
16777215
8
0
100
AcDbHatch
10
0
20
0
30
0
210
0
220
0
230
1
2
SOLID
70
1
71
0
91
1
92
7
72
0
73
1
93
41
10
32
20
669
10
288
20
669
10
288
20
669
10
290.34108386419354
20
668.7694233648388
10
292.59220118838107
20
668.0865543901355
10
294.66684279623524
20
666.9776353476306
10
296.4852813742386
20
665.4852813742385
10
297.97763534763055
20
663.6668427962352
10
299.08655439013546
20
661.5922011883811
10
299.76942336483876
20
659.3410838641935
10
300
20
657
10
300
20
473
10
300
20
473
10
299.76942336483876
20
470.65891613580646
10
299.08655439013546
20
468.40779881161893
10
297.97763534763055
20
466.3331572037648
10
296.4852813742386
20
464.5147186257614
10
294.66684279623524
20
463.02236465236945
10
292.59220118838107
20
461.91344560986454
10
290.34108386419354
20
461.23057663516124
10
288
20
461
10
32
20
461
10
32
20
461
10
29.65891613580646
20
461.23057663516124
10
27.407798811618925
20
461.91344560986454
10
25.333157203764777
20
463.02236465236945
10
23.514718625761432
20
464.5147186257614
10
22.022364652369454
20
466.3331572037648
10
20.91344560986456
20
468.40779881161893
10
20.230576635161235
20
470.65891613580646
10
20
20
473
10
20
20
657
10
20
20
657
10
20.230576635161235
20
659.3410838641936
10
20.91344560986456
20
661.5922011883811
10
22.022364652369454
20
663.6668427962352
10
23.51471862576143
20
665.4852813742385
10
25.333157203764774
20
666.9776353476306
10
27.407798811618918
20
668.0865543901355
10
29.658916135806457
20
668.7694233648388
10
31.999999999999996
20
669
97
0
75
1
76
1
47
1
98
0
0
HATCH
5
1C
330
C
100
AcDbEntity
420
6717162
8
0
100
AcDbHatch
10
0
20
0
30
0
210
0
220
0
230
1
2
SOLID
70
1
71
0
91
1
92
7
72
0
73
1
93
4
10
20
20
669
10
300
20
669
10
300
20
616
10
20
20
616
97
0
75
1
76
1
47
1
98
0
0
TEXT
5
1D
330
C
100
AcDbEntity
420
16777215
8
0
100
AcDbText
10
36
20
633
30
0
40
20
1
Shadow Card Title
7
STANDARD
100
AcDbText
0
TEXT
5
1E
330
C
100
AcDbEntity
420
3355443
8
0
100
AcDbText
10
36
20
519
30
0
40
79
1
This content is inside a declarative shadow DOM. It demonstrates encapsulated styling and layout extraction.
7
STANDARD
100
AcDbText
0
HATCH
5
1F
330
C
100
AcDbEntity
420
16119285
8
0
100
AcDbHatch
10
0
20
0
30
0
210
0
220
0
230
1
2
SOLID
70
1
71
0
91
1
92
7
72
0
73
1
93
4
10
20
20
500
10
300
20
500
10
300
20
461
10
20
20
461
97
0
75
1
76
1
47
1
98
0
0
LWPOLYLINE
5
20
330
C
100
AcDbEntity
420
14737632
8
0
100
AcDbPolyline
90
5
70
0
43
0
38
0
39
0
10
20
20
500
10
300
20
500
10
300
20
461
10
20
20
461
10
20
20
500
0
TEXT
5
21
330
C
100
AcDbEntity
420
8947848
8
0
100
AcDbText
10
36
20
472
30
0
40
14
1
Footer text
7
STANDARD
100
AcDbText
0
HATCH
5
22
330
C
100
AcDbEntity
420
2001125
8
0
100
AcDbHatch
10
0
20
0
30
0
210
0
220
0
230
1
2
SOLID
70
1
71
0
91
1
92
7
72
0
73
1
93
41
10
26
20
437
10
165
20
437
10
165
20
437
10
166.17054193209677
20
436.8847116824194
10
167.29610059419053
20
436.54327719506773
10
168.33342139811762
20
435.9888176738153
10
169.2426406871193
20
435.24264068711926
10
169.98881767381528
20
434.3334213981176
10
170.54327719506773
20
433.29610059419053
10
170.88471168241938
20
432.1705419320968
10
171
20
431
10
171
20
407
10
171
20
407
10
170.88471168241938
20
405.8294580679032
10
170.54327719506773
20
404.70389940580947
10
169.98881767381528
20
403.6665786018824
10
169.2426406871193
20
402.75735931288074
10
168.33342139811762
20
402.0111823261847
10
167.29610059419053
20
401.45672280493227
10
166.17054193209677
20
401.1152883175806
10
165
20
401
10
26
20
401
10
26
20
401
10
24.829458067903232
20
401.1152883175806
10
23.703899405809462
20
401.45672280493227
10
22.66657860188239
20
402.0111823261847
10
21.757359312880716
20
402.75735931288074
10
21.011182326184727
20
403.6665786018824
10
20.45672280493228
20
404.70389940580947
10
20.115288317580617
20
405.8294580679032
10
20
20
407
10
20
20
431
10
20
20
431
10
20.115288317580617
20
432.1705419320968
10
20.45672280493228
20
433.29610059419053
10
21.011182326184727
20
434.3334213981176
10
21.757359312880716
20
435.24264068711926
10
22.666578601882385
20
435.9888176738153
10
23.70389940580946
20
436.54327719506773
10
24.82945806790323
20
436.8847116824194
10
26
20
437
97
0
75
1
76
1
47
1
98
0
0
TEXT
5
23
330
C
100
AcDbEntity
420
16777215
8
0
100
AcDbText
10
44.05475997924805
20
411
30
0
40
16
1
Shadow Button
7
STANDARD
100
AcDbText
0
HATCH
5
24
330
C
100
AcDbEntity
420
5025616
8
0
100
AcDbHatch
10
0
20
0
30
0
210
0
220
0
230
1
2
SOLID
70
1
71
0
91
1
92
7
72
0
73
1
93
41
10
190
20
441
10
190
20
441
10
190
20
441
10
190.97545161008065
20
440.90392640201617
10
191.91341716182544
20
440.6193976625564
10
192.777851165098
20
440.1573480615127
10
193.53553390593274
20
439.5355339059327
10
194.15734806151272
20
438.777851165098
10
194.61939766255642
20
437.91341716182546
10
194.90392640201614
20
436.97545161008065
10
195
20
436
10
195
20
436
10
195
20
436
10
194.90392640201614
20
435.02454838991935
10
194.61939766255642
20
434.08658283817454
10
194.15734806151272
20
433.222148834902
10
193.53553390593274
20
432.4644660940673
10
192.777851165098
20
431.8426519384873
10
191.91341716182544
20
431.3806023374436
10
190.97545161008065
20
431.09607359798383
10
190
20
431
10
190
20
431
10
190
20
431
10
189.02454838991935
20
431.09607359798383
10
188.08658283817456
20
431.3806023374436
10
187.222148834902
20
431.8426519384873
10
186.46446609406726
20
432.46446609406723
10
185.84265193848728
20
433.222148834902
10
185.38060233744358
20
434.08658283817454
10
185.09607359798386
20
435.02454838991935
10
185
20
436
10
185
20
436
10
185
20
436
10
185.09607359798386
20
436.97545161008065
10
185.38060233744358
20
437.91341716182546
10
185.84265193848728
20
438.777851165098
10
186.46446609406726
20
439.5355339059327
10
187.222148834902
20
440.1573480615127
10
188.08658283817454
20
440.6193976625564
10
189.02454838991935
20
440.90392640201617
10
190
20
441
97
0
75
1
76
1
47
1
98
0
0
HATCH
5
25
330
C
100
AcDbEntity
420
15267305
8
0
100
AcDbHatch
10
0
20
0
30
0
210
0
220
0
230
1
2
SOLID
70
1
71
0
91
1
92
7
72
0
73
1
93
41
10
197
20
431
10
237
20
431
10
237
20
431
10
239.34108386419354
20
430.76942336483876
10
241.59220118838107
20
430.08655439013546
10
243.66684279623522
20
428.97763534763055
10
245.48528137423858
20
427.4852813742386
10
246.97763534763055
20
425.66684279623524
10
248.08655439013543
20
423.59220118838107
10
248.76942336483876
20
421.34108386419354
10
249
20
419
10
249
20
419
10
249
20
419
10
248.76942336483876
20
416.65891613580646
10
248.08655439013543
20
414.40779881161893
10
246.97763534763055
20
412.33315720376476
10
245.48528137423858
20
410.5147186257614
10
243.66684279623522
20
409.02236465236945
10
241.59220118838107
20
407.91344560986454
10
239.34108386419354
20
407.23057663516124
10
237
20
407
10
197
20
407
10
197
20
407
10
194.65891613580646
20
407.23057663516124
10
192.40779881161893
20
407.91344560986454
10
190.33315720376478
20
409.02236465236945
10
188.51471862576142
20
410.5147186257614
10
187.02236465236945
20
412.33315720376476
10
185.91344560986457
20
414.40779881161893
10
185.23057663516124
20
416.65891613580646
10
185
20
419
10
185
20
419
10
185
20
419
10
185.23057663516124
20
421.34108386419354
10
185.91344560986457
20
423.59220118838107
10
187.02236465236945
20
425.66684279623524
10
188.51471862576142
20
427.4852813742386
10
190.33315720376478
20
428.97763534763055
10
192.4077988116189
20
430.08655439013546
10
194.65891613580646
20
430.76942336483876
10
197
20
431
97
0
75
1
76
1
47
1
98
0
0
TEXT
5
26
330
C
100
AcDbEntity
420
3355443
8
0
100
AcDbText
10
196.912748336792
20
411
30
0
40
16
1
Online
7
STANDARD
100
AcDbText
0
HATCH
5
27
330
C
100
AcDbEntity
420
14938877
8
0
100
AcDbHatch
10
0
20
0
30
0
210
0
220
0
230
1
2
SOLID
70
1
71
0
91
1
92
7
72
0
73
1
93
41
10
28
20
371
10
332
20
371
10
332
20
371
10
333.560722576129
20
370.84628224322586
10
335.06146745892073
20
370.3910362600903
10
336.4445618641568
20
369.6517568984204
10
337.65685424949237
20
368.65685424949237
10
338.6517568984204
20
367.4445618641568
10
339.3910362600903
20
366.06146745892073
10
339.84628224322586
20
364.560722576129
10
340
20
363
10
340
20
304
10
340
20
304
10
339.84628224322586
20
302.439277423871
10
339.3910362600903
20
300.93853254107927
10
338.6517568984204
20
299.5554381358432
10
337.65685424949237
20
298.34314575050763
10
336.4445618641568
20
297.3482431015796
10
335.06146745892073
20
296.6089637399097
10
333.560722576129
20
296.15371775677414
10
332
20
296
10
28
20
296
10
28
20
296
10
26.439277423870976
20
296.15371775677414
10
24.938532541079283
20
296.6089637399097
10
23.555438135843183
20
297.3482431015796
10
22.34314575050762
20
298.34314575050763
10
21.348243101579637
20
299.5554381358432
10
20.608963739909704
20
300.93853254107927
10
20.153717756774157
20
302.439277423871
10
20
20
304
10
20
20
363
10
20
20
363
10
20.153717756774157
20
364.560722576129
10
20.608963739909704
20
366.06146745892073
10
21.348243101579637
20
367.4445618641568
10
22.343145750507617
20
368.65685424949237
10
23.555438135843183
20
369.6517568984204
10
24.938532541079276
20
370.3910362600903
10
26.43927742387097
20
370.84628224322586
10
28
20
371
97
0
75
1
76
1
47
1
98
0
0
LWPOLYLINE
5
28
330
C
100
AcDbEntity
420
9489145
8
0
100
AcDbPolyline
90
42
70
0
43
0
38
0
39
0
10
28
20
371
10
332
20
371
10
332
20
371
10
333.560722576129
20
370.84628224322586
10
335.06146745892073
20
370.3910362600903
10
336.4445618641568
20
369.6517568984204
10
337.65685424949237
20
368.65685424949237
10
338.6517568984204
20
367.4445618641568
10
339.3910362600903
20
366.06146745892073
10
339.84628224322586
20
364.560722576129
10
340
20
363
10
340
20
304
10
340
20
304
10
339.84628224322586
20
302.439277423871
10
339.3910362600903
20
300.93853254107927
10
338.6517568984204
20
299.5554381358432
10
337.65685424949237
20
298.34314575050763
10
336.4445618641568
20
297.3482431015796
10
335.06146745892073
20
296.6089637399097
10
333.560722576129
20
296.15371775677414
10
332
20
296
10
28
20
296
10
28
20
296
10
26.439277423870976
20
296.15371775677414
10
24.938532541079283
20
296.6089637399097
10
23.555438135843183
20
297.3482431015796
10
22.34314575050762
20
298.34314575050763
10
21.348243101579637
20
299.5554381358432
10
20.608963739909704
20
300.93853254107927
10
20.153717756774157
20
302.439277423871
10
20
20
304
10
20
20
363
10
20
20
363
10
20.153717756774157
20
364.560722576129
10
20.608963739909704
20
366.06146745892073
10
21.348243101579637
20
367.4445618641568
10
22.343145750507617
20
368.65685424949237
10
23.555438135843183
20
369.6517568984204
10
24.938532541079276
20
370.3910362600903
10
26.43927742387097
20
370.84628224322586
10
28
20
371
10
28
20
371
0
TEXT
5
29
330
C
100
AcDbEntity
420
1402304
8
0
100
AcDbText
10
22
20
352
30
0
40
17
1
Outer Shadow Root
7
STANDARD
100
AcDbText
0
HATCH
5
2A
330
C
100
AcDbEntity
420
16774112
8
0
100
AcDbHatch
10
0
20
0
30
0
210
0
220
0
230
1
2
SOLID
70
1
71
0
91
1
92
7
72
0
73
1
93
41
10
28
20
339
10
332
20
339
10
332
20
339
10
333.1705419320968
20
338.8847116824194
10
334.29610059419053
20
338.54327719506773
10
335.3334213981176
20
337.9888176738153
10
336.24264068711926
20
337.24264068711926
10
336.9888176738153
20
336.3334213981176
10
337.54327719506773
20
335.29610059419053
10
337.8847116824194
20
334.1705419320968
10
338
20
333
10
338
20
304
10
338
20
304
10
337.8847116824194
20
302.8294580679032
10
337.54327719506773
20
301.70389940580947
10
336.9888176738153
20
300.6665786018824
10
336.24264068711926
20
299.75735931288074
10
335.3334213981176
20
299.0111823261847
10
334.29610059419053
20
298.45672280493227
10
333.1705419320968
20
298.1152883175806
10
332
20
298
10
28
20
298
10
28
20
298
10
26.829458067903232
20
298.1152883175806
10
25.703899405809462
20
298.45672280493227
10
24.66657860188239
20
299.0111823261847
10
23.757359312880716
20
299.75735931288074
10
23.011182326184727
20
300.6665786018824
10
22.45672280493228
20
301.70389940580947
10
22.115288317580617
20
302.8294580679032
10
22
20
304
10
22
20
333
10
22
20
333
10
22.115288317580617
20
334.1705419320968
10
22.45672280493228
20
335.29610059419053
10
23.011182326184727
20
336.3334213981176
10
23.757359312880716
20
337.24264068711926
10
24.666578601882385
20
337.9888176738153
10
25.70389940580946
20
338.54327719506773
10
26.82945806790323
20
338.8847116824194
10
28
20
339
97
0
75
1
76
1
47
1
98
0
0
LWPOLYLINE
5
2B
330
C
100
AcDbEntity
420
16750592
8
0
100
AcDbPolyline
90
42
70
0
43
0
38
0
39
0
10
28
20
339
10
332
20
339
10
332
20
339
10
333.1705419320968
20
338.8847116824194
10
334.29610059419053
20
338.54327719506773
10
335.3334213981176
20
337.9888176738153
10
336.24264068711926
20
337.24264068711926
10
336.9888176738153
20
336.3334213981176
10
337.54327719506773
20
335.29610059419053
10
337.8847116824194
20
334.1705419320968
10
338
20
333
10
338
20
304
10
338
20
304
10
337.8847116824194
20
302.8294580679032
10
337.54327719506773
20
301.70389940580947
10
336.9888176738153
20
300.6665786018824
10
336.24264068711926
20
299.75735931288074
10
335.3334213981176
20
299.0111823261847
10
334.29610059419053
20
298.45672280493227
10
333.1705419320968
20
298.1152883175806
10
332
20
298
10
28
20
298
10
28
20
298
10
26.829458067903232
20
298.1152883175806
10
25.703899405809462
20
298.45672280493227
10
24.66657860188239
20
299.0111823261847
10
23.757359312880716
20
299.75735931288074
10
23.011182326184727
20
300.6665786018824
10
22.45672280493228
20
301.70389940580947
10
22.115288317580617
20
302.8294580679032
10
22
20
304
10
22
20
333
10
22
20
333
10
22.115288317580617
20
334.1705419320968
10
22.45672280493228
20
335.29610059419053
10
23.011182326184727
20
336.3334213981176
10
23.757359312880716
20
337.24264068711926
10
24.666578601882385
20
337.9888176738153
10
25.70389940580946
20
338.54327719506773
10
26.82945806790323
20
338.8847116824194
10
28
20
339
10
28
20
339
0
TEXT
5
2C
330
C
100
AcDbEntity
420
15094016
8
0
100
AcDbText
10
35
20
311
30
0
40
15
1
Nested inner shadow DOM content
7
STANDARD
100
AcDbText
0
ENDSEC
0
SECTION
2
OBJECTS
0
DICTIONARY
5
A
330
0
100
AcDbDictionary
281
1
3
ACAD_GROUP
350
B
0
DICTIONARY
5
B
330
A
100
AcDbDictionary
281
0
0
ENDSEC
0
EOF