<?xml version="1.0" encoding="UTF-8"?>
<svg xmlns="http://www.w3.org/2000/svg" xmlns:xlink="http://www.w3.org/1999/xlink" width="1240" height="404" viewBox="0 0 1240 404">
<defs>
<filter id="ds1" x="-50%" y="-50%" width="200%" height="200%"><feDropShadow dx="0" dy="2" stdDeviation="4" flood-color="rgba(0, 0, 0, 0.15)" result="s0"/></filter>
<linearGradient id="lg2" x1="56.75" y1="-25.75" x2="223.25" y2="140.75" gradientUnits="userSpaceOnUse"><stop offset="0%" stop-color="rgb(102, 126, 234)"/><stop offset="100%" stop-color="rgb(118, 75, 162)"/></linearGradient>
<clipPath id="clip3"><rect x="0" y="31" width="280" height="208" rx="12" ry="12"/></clipPath>
<filter id="ds4" x="-50%" y="-50%" width="200%" height="200%"><feDropShadow dx="0" dy="2" stdDeviation="2" flood-color="rgba(0, 0, 0, 0.2)" result="s0"/></filter>
</defs>
<text x="0" y="1" fill="rgb(0, 0, 0)" dominant-baseline="text-before-edge" font-weight="700" font-size="18px" font-family="Arial">Declarative Shadow DOM</text>
<rect x="0" y="31" width="280" height="208" rx="12" ry="12" fill="rgb(255, 255, 255)" filter="url(#ds1)"/>
<g clip-path="url(#clip3)"><path d="M0,31 L280,31 L280,84 L0,84 Z" fill="url(#lg2)"/></g>
<g clip-path="url(#clip3)"><text x="16" y="48" fill="rgb(255, 255, 255)" dominant-baseline="text-before-edge" font-weight="700" font-size="18px" font-family="Arial">Shadow Card Title</text></g>
<g clip-path="url(#clip3)"><text x="16" y="134.5" fill="rgb(51, 51, 51)" dominant-baseline="text-before-edge" font-size="14px" font-family="Arial">This content is inside a declarative shadow DOM. It demonstrates encapsulated styling and layout extraction.</text></g>
<g clip-path="url(#clip3)"><path d="M0,200 L280,200 L280,239 L0,239 Z" fill="rgb(245, 245, 245)" stroke="rgb(224, 224, 224) rgb(136, 136, 136) rgb(136, 136, 136)" stroke-width="1"/></g>
<g clip-path="url(#clip3)"><text x="16" y="214" fill="rgb(136, 136, 136)" dominant-baseline="text-before-edge" font-size="12px" font-family="Arial">Footer text</text></g>
<rect x="0" y="263" width="151" height="36" rx="6" ry="6" fill="rgb(30, 136, 229)" filter="url(#ds4)"/>
<text x="24" y="274" fill="rgb(255, 255, 255)" dominant-baseline="text-before-edge" font-weight="600" font-size="14px" font-family="Arial">Shadow Button</text>
<rect x="165" y="259" width="10" height="10" rx="5" ry="5" fill="rgb(76, 175, 80)"/>
<rect x="165" y="269" width="64" height="24" rx="12" ry="12" fill="rgb(232, 245, 233)"/>
<text x="177" y="274" fill="rgb(51, 51, 51)" dominant-baseline="text-before-edge" font-weight="500" font-size="14px" font-family="Arial">Online</text>
<rect x="0" y="329" width="320" height="75" rx="8" ry="8" fill="rgb(227, 242, 253)" stroke="rgb(144, 202, 249)" stroke-width="2"/>
<text x="2" y="331.5" fill="rgb(21, 101, 192)" dominant-baseline="text-before-edge" font-weight="700" font-size="16px" font-family="Arial">Outer Shadow Root</text>
<rect x="2" y="361" width="316" height="41" rx="6" ry="6" fill="rgb(255, 243, 224)" stroke="rgb(255, 152, 0)" stroke-width="1"/>
<text x="15" y="375" fill="rgb(230, 81, 0)" dominant-baseline="text-before-edge" font-size="13px" font-family="Arial">Nested inner shadow DOM content</text>
</svg>