<?xml version="1.0" encoding="UTF-8"?>
<svg xmlns="http://www.w3.org/2000/svg" xmlns:xlink="http://www.w3.org/1999/xlink" width="1240" height="407" viewBox="0 0 1240 407">
<defs>
<filter id="ds1" x="-50%" y="-50%" width="200%" height="200%"><feDropShadow dx="0" dy="2" stdDeviation="4" flood-color="rgba(0, 0, 0, 0.15)" result="s0"/></filter>
<linearGradient id="lg2" x1="56.75" y1="-25.75" x2="223.25" y2="140.75" gradientUnits="userSpaceOnUse"><stop offset="0%" stop-color="rgb(102, 126, 234)"/><stop offset="100%" stop-color="rgb(118, 75, 162)"/></linearGradient>
<clipPath id="clip3"><rect x="0" y="31" width="280" height="209" rx="12" ry="12"/></clipPath>
<filter id="ds4" x="-50%" y="-50%" width="200%" height="200%"><feDropShadow dx="0" dy="2" stdDeviation="2" flood-color="rgba(0, 0, 0, 0.2)" result="s0"/></filter>
</defs>
<path d="M0,0 L1240,0 L1240,406.5 L0,406.5 Z" fill="none"/>
<path d="M0,0 L1240,0 L1240,21 L0,21 Z" fill="none"/>
<text x="0" y="1.5" fill="rgb(0, 0, 0)" dominant-baseline="text-before-edge" font-weight="700" font-size="18px" font-family="Arial">Declarative Shadow DOM</text>
<rect x="0" y="31" width="280" height="209" rx="12" ry="12" fill="rgb(255, 255, 255)" filter="url(#ds1)"/>
<g clip-path="url(#clip3)"><path d="M0,31 L280,31 L280,84 L0,84 Z" fill="url(#lg2)"/></g>
<g clip-path="url(#clip3)"><text x="16" y="48.5" fill="rgb(255, 255, 255)" dominant-baseline="text-before-edge" font-weight="700" font-size="18px" font-family="Arial">Shadow Card Title</text></g>
<g clip-path="url(#clip3)"><path d="M0,84 L280,84 L280,200 L0,200 Z" fill="none"/></g>
<g clip-path="url(#clip3)"><text x="16" y="103.5" fill="rgb(51, 51, 51)" dominant-baseline="text-before-edge" font-size="14px" font-family="Arial">This content is inside a declarative</text></g>
<g clip-path="url(#clip3)"><text x="16" y="124.5" fill="rgb(51, 51, 51)" dominant-baseline="text-before-edge" font-size="14px" font-family="Arial">shadow DOM. It demonstrates</text></g>
<g clip-path="url(#clip3)"><text x="16" y="145.5" fill="rgb(51, 51, 51)" dominant-baseline="text-before-edge" font-size="14px" font-family="Arial">encapsulated styling and layout</text></g>
<g clip-path="url(#clip3)"><text x="16" y="166.5" fill="rgb(51, 51, 51)" dominant-baseline="text-before-edge" font-size="14px" font-family="Arial">extraction.</text></g>
<g clip-path="url(#clip3)"><path d="M0,200 L280,200 L280,240 L0,240 Z" fill="rgb(245, 245, 245)" stroke="rgb(224, 224, 224) rgb(136, 136, 136) rgb(136, 136, 136)" stroke-width="1"/></g>
<g clip-path="url(#clip3)"><text x="16" y="214.5" fill="rgb(136, 136, 136)" dominant-baseline="text-before-edge" font-size="12px" font-family="Arial">Footer text</text></g>
<path d="M0,263.5 L156.02,263.5 L156.02,300.5 L0,300.5 Z" fill="none"/>
<rect x="0" y="263.5" width="156.02" height="37" rx="6" ry="6" fill="rgb(30, 136, 229)" filter="url(#ds4)"/>
<text x="24" y="275" fill="rgb(255, 255, 255)" dominant-baseline="text-before-edge" font-weight="600" font-size="14px" font-family="MS Shell Dlg \32">Shadow Button</text>
<path d="M170.47,260 L234.93,260 L234.93,295 L170.47,295 Z" fill="none"/>
<rect x="170.47" y="260" width="10" height="10" rx="5" ry="5" fill="rgb(76, 175, 80)"/>
<rect x="170.47" y="270" width="64.47" height="25" rx="12" ry="12" fill="rgb(232, 245, 233)"/>
<text x="182.47" y="275.5" fill="rgb(51, 51, 51)" dominant-baseline="text-before-edge" font-weight="500" font-size="14px" font-family="Arial">Online</text>
<rect x="0" y="330.5" width="320" height="76" rx="8" ry="8" fill="rgb(227, 242, 253)" stroke="rgb(144, 202, 249)" stroke-width="2"/>
<path d="M2,332.5 L318,332.5 L318,350.5 L2,350.5 Z" fill="none"/>
<text x="2" y="333.5" fill="rgb(21, 101, 192)" dominant-baseline="text-before-edge" font-weight="700" font-size="16px" font-family="Arial">Outer Shadow Root</text>
<rect x="2" y="362.5" width="316" height="42" rx="6" ry="6" fill="rgb(255, 243, 224)" stroke="rgb(255, 152, 0)" stroke-width="1"/>
<path d="M15,375.5 L305,375.5 L305,391.5 L15,391.5 Z" fill="none"/>
<text x="15" y="377" fill="rgb(230, 81, 0)" dominant-baseline="text-before-edge" font-size="13px" font-family="Arial">Nested inner shadow DOM content</text>
</svg>