0
SECTION
2
HEADER
9
$ACADVER
1
AC1021
9
$LASTSAVEDBY
1
@tarikjabiri/dxf
9
$HANDSEED
5
40
9
$INSUNITS
70
0
9
$CLAYER
8
0
9
$VIEWCTR
10
215.1328125
20
622
0
ENDSEC
0
SECTION
2
CLASSES
0
ENDSEC
0
SECTION
2
TABLES
0
TABLE
2
VPORT
5
1
330
0
100
AcDbSymbolTable
70
1
0
VPORT
5
19
330
1
100
AcDbSymbolTableRecord
100
AcDbViewportTableRecord
2
*Active
70
0
10
0
20
0
11
1
21
1
12
215.1328125
22
622
13
0
23
0
14
10
24
10
15
10
25
10
16
0
26
0
36
1
17
0
27
0
37
0
40
1234
41
2
42
50
43
0
44
0
50
0
51
0
71
0
72
100
73
1
74
3
75
0
76
1
77
0
78
0
281
0
65
1
110
0
120
0
130
0
111
1
121
0
131
0
112
0
122
1
132
0
79
0
146
0
348
10020
60
7
61
5
292
1
282
1
141
0
142
0
63
250
421
3358443
0
ENDTAB
0
TABLE
2
LTYPE
5
2
330
0
100
AcDbSymbolTable
70
3
0
LTYPE
5
12
330
2
100
AcDbSymbolTableRecord
100
AcDbLinetypeTableRecord
2
ByBlock
70
0
3

72
65
73
0
40
0
0
LTYPE
5
13
330
2
100
AcDbSymbolTableRecord
100
AcDbLinetypeTableRecord
2
ByLayer
70
0
3

72
65
73
0
40
0
0
LTYPE
5
14
330
2
100
AcDbSymbolTableRecord
100
AcDbLinetypeTableRecord
2
Continuous
70
0
3
Solid line
72
65
73
0
40
0
0
ENDTAB
0
TABLE
2
LAYER
5
3
330
0
100
AcDbSymbolTable
70
1
0
LAYER
5
15
330
3
100
AcDbSymbolTableRecord
100
AcDbLayerTableRecord
2
0
70
0
62
7
6
Continuous
370
0
390
0
0
ENDTAB
0
TABLE
2
STYLE
5
4
330
0
100
AcDbSymbolTable
70
1
0
STYLE
5
16
330
4
100
AcDbSymbolTableRecord
100
AcDbTextStyleTableRecord
2
Standard
70
0
40
0
41
1
50
0
71
0
42
1
3
txt
4

0
ENDTAB
0
TABLE
2
VIEW
5
5
330
0
100
AcDbSymbolTable
70
0
0
ENDTAB
0
TABLE
2
UCS
5
6
330
0
100
AcDbSymbolTable
70
0
0
ENDTAB
0
TABLE
2
APPID
5
7
330
0
100
AcDbSymbolTable
70
1
0
APPID
5
17
330
7
100
AcDbSymbolTableRecord
100
AcDbRegAppTableRecord
2
ACAD
70
0
0
ENDTAB
0
TABLE
2
DIMSTYLE
5
8
330
0
100
AcDbSymbolTable
70
1
100
AcDbDimStyleTable
0
DIMSTYLE
105
18
330
8
100
AcDbSymbolTableRecord
100
AcDbDimStyleTableRecord
2
Standard
70
0
340
16
0
ENDTAB
0
TABLE
2
BLOCK_RECORD
5
9
330
0
100
AcDbSymbolTable
70
2
0
BLOCK_RECORD
5
C
330
9
100
AcDbSymbolTableRecord
100
AcDbBlockTableRecord
2
*Model_Space
70
0
280
1
281
0
0
BLOCK_RECORD
5
F
330
9
100
AcDbSymbolTableRecord
100
AcDbBlockTableRecord
2
*Paper_Space
70
0
280
1
281
0
0
ENDTAB
0
ENDSEC
0
SECTION
2
BLOCKS
0
BLOCK
5
D
330
C
100
AcDbEntity
8
0
100
AcDbBlockBegin
2
*Model_Space
70
0
10
0
20
0
30
0
3
*Model_Space
1

0
ENDBLK
5
E
100
AcDbEntity
8
0
100
AcDbBlockEnd
0
BLOCK
5
10
330
F
100
AcDbEntity
8
0
100
AcDbBlockBegin
2
*Paper_Space
70
0
10
0
20
0
30
0
3
*Paper_Space
1

0
ENDBLK
5
11
100
AcDbEntity
8
0
100
AcDbBlockEnd
0
ENDSEC
0
SECTION
2
ENTITIES
0
TEXT
5
1A
330
C
100
AcDbEntity
420
#000000
8
0
100
AcDbText
10
20
20
1139
30
0
40
20
1
Z-Index Stacking
7
STANDARD
100
AcDbText
0
LWPOLYLINE
5
1B
330
C
100
AcDbEntity
420
#000000
8
0
100
AcDbPolyline
90
5
70
0
43
0
38
0
39
0
10
20
20
1123
10
170
20
1123
10
170
20
973
10
20
20
973
10
20
20
1123
0
TEXT
5
1C
330
C
100
AcDbEntity
420
#000000
8
0
100
AcDbText
10
20
20
1106
30
0
40
17
1
z:1
7
STANDARD
100
AcDbText
0
LWPOLYLINE
5
1D
330
C
100
AcDbEntity
420
#000000
8
0
100
AcDbPolyline
90
5
70
0
43
0
38
0
39
0
10
50
20
1093
10
200
20
1093
10
200
20
943
10
50
20
943
10
50
20
1093
0
TEXT
5
1E
330
C
100
AcDbEntity
420
#000000
8
0
100
AcDbText
10
50
20
1076
30
0
40
17
1
z:2
7
STANDARD
100
AcDbText
0
LWPOLYLINE
5
1F
330
C
100
AcDbEntity
420
#000000
8
0
100
AcDbPolyline
90
5
70
0
43
0
38
0
39
0
10
80
20
1063
10
230
20
1063
10
230
20
913
10
80
20
913
10
80
20
1063
0
TEXT
5
20
330
C
100
AcDbEntity
420
#000000
8
0
100
AcDbText
10
80
20
1046
30
0
40
17
1
z:3
7
STANDARD
100
AcDbText
0
TEXT
5
21
330
C
100
AcDbEntity
420
#000000
8
0
100
AcDbText
10
20
20
888
30
0
40
20
1
Opacity Levels
7
STANDARD
100
AcDbText
0
LWPOLYLINE
5
22
330
C
100
AcDbEntity
420
#ffffff
8
0
100
AcDbPolyline
90
42
70
0
43
0
38
0
39
0
10
28
20
872
10
92
20
872
10
92
20
872
10
93.56072257612902
20
871.8462822432259
10
95.06146745892072
20
871.3910362600902
10
96.44456186415682
20
870.6517568984204
10
97.65685424949238
20
869.6568542494924
10
98.65175689842036
20
868.4445618641569
10
99.39103626009029
20
867.0614674589208
10
99.84628224322584
20
865.560722576129
10
100
20
864
10
100
20
800
10
100
20
800
10
99.84628224322584
20
798.439277423871
10
99.39103626009029
20
796.9385325410792
10
98.65175689842036
20
795.5554381358431
10
97.65685424949238
20
794.3431457505076
10
96.44456186415682
20
793.3482431015796
10
95.06146745892072
20
792.6089637399098
10
93.56072257612902
20
792.1537177567741
10
92
20
792
10
28
20
792
10
28
20
792
10
26.439277423870976
20
792.1537177567741
10
24.938532541079283
20
792.6089637399098
10
23.555438135843183
20
793.3482431015796
10
22.34314575050762
20
794.3431457505076
10
21.348243101579637
20
795.5554381358431
10
20.608963739909704
20
796.9385325410792
10
20.153717756774157
20
798.439277423871
10
20
20
800
10
20
20
864
10
20
20
864
10
20.153717756774157
20
865.560722576129
10
20.608963739909704
20
867.0614674589208
10
21.348243101579637
20
868.4445618641569
10
22.343145750507617
20
869.6568542494924
10
23.555438135843183
20
870.6517568984204
10
24.938532541079276
20
871.3910362600902
10
26.43927742387097
20
871.8462822432259
10
28
20
872
10
28
20
872
0
TEXT
5
23
330
C
100
AcDbEntity
420
#ffffff
8
0
100
AcDbText
10
50.265625
20
824
30
0
40
16
1
1.0
7
STANDARD
100
AcDbText
0
LWPOLYLINE
5
24
330
C
100
AcDbEntity
420
#ffffff
8
0
100
AcDbPolyline
90
42
70
0
43
0
38
0
39
0
10
118
20
872
10
182
20
872
10
182
20
872
10
183.56072257612902
20
871.8462822432259
10
185.06146745892073
20
871.3910362600902
10
186.4445618641568
20
870.6517568984204
10
187.65685424949237
20
869.6568542494924
10
188.65175689842036
20
868.4445618641569
10
189.3910362600903
20
867.0614674589208
10
189.84628224322586
20
865.560722576129
10
190
20
864
10
190
20
800
10
190
20
800
10
189.84628224322586
20
798.439277423871
10
189.3910362600903
20
796.9385325410792
10
188.65175689842036
20
795.5554381358431
10
187.65685424949237
20
794.3431457505076
10
186.4445618641568
20
793.3482431015796
10
185.06146745892073
20
792.6089637399098
10
183.56072257612902
20
792.1537177567741
10
182
20
792
10
118
20
792
10
118
20
792
10
116.43927742387098
20
792.1537177567741
10
114.93853254107928
20
792.6089637399098
10
113.55543813584319
20
793.3482431015796
10
112.34314575050762
20
794.3431457505076
10
111.34824310157964
20
795.5554381358431
10
110.60896373990971
20
796.9385325410792
10
110.15371775677416
20
798.439277423871
10
110
20
800
10
110
20
864
10
110
20
864
10
110.15371775677416
20
865.560722576129
10
110.60896373990971
20
867.0614674589208
10
111.34824310157964
20
868.4445618641569
10
112.34314575050762
20
869.6568542494924
10
113.55543813584319
20
870.6517568984204
10
114.93853254107928
20
871.3910362600902
10
116.43927742387098
20
871.8462822432259
10
118
20
872
10
118
20
872
0
TEXT
5
25
330
C
100
AcDbEntity
420
#ffffff
8
0
100
AcDbText
10
136.375
20
824
30
0
40
16
1
0.75
7
STANDARD
100
AcDbText
0
LWPOLYLINE
5
26
330
C
100
AcDbEntity
420
#ffffff
8
0
100
AcDbPolyline
90
42
70
0
43
0
38
0
39
0
10
208
20
872
10
272
20
872
10
272
20
872
10
273.560722576129
20
871.8462822432259
10
275.06146745892073
20
871.3910362600902
10
276.4445618641568
20
870.6517568984204
10
277.65685424949237
20
869.6568542494924
10
278.6517568984204
20
868.4445618641569
10
279.3910362600903
20
867.0614674589208
10
279.84628224322586
20
865.560722576129
10
280
20
864
10
280
20
800
10
280
20
800
10
279.84628224322586
20
798.439277423871
10
279.3910362600903
20
796.9385325410792
10
278.6517568984204
20
795.5554381358431
10
277.65685424949237
20
794.3431457505076
10
276.4445618641568
20
793.3482431015796
10
275.06146745892073
20
792.6089637399098
10
273.560722576129
20
792.1537177567741
10
272
20
792
10
208
20
792
10
208
20
792
10
206.43927742387098
20
792.1537177567741
10
204.93853254107927
20
792.6089637399098
10
203.5554381358432
20
793.3482431015796
10
202.34314575050763
20
794.3431457505076
10
201.34824310157964
20
795.5554381358431
10
200.6089637399097
20
796.9385325410792
10
200.15371775677414
20
798.439277423871
10
200
20
800
10
200
20
864
10
200
20
864
10
200.15371775677414
20
865.560722576129
10
200.6089637399097
20
867.0614674589208
10
201.34824310157964
20
868.4445618641569
10
202.34314575050763
20
869.6568542494924
10
203.5554381358432
20
870.6517568984204
10
204.93853254107927
20
871.3910362600902
10
206.43927742387098
20
871.8462822432259
10
208
20
872
10
208
20
872
0
TEXT
5
27
330
C
100
AcDbEntity
420
#ffffff
8
0
100
AcDbText
10
230.265625
20
824
30
0
40
16
1
0.5
7
STANDARD
100
AcDbText
0
LWPOLYLINE
5
28
330
C
100
AcDbEntity
420
#ffffff
8
0
100
AcDbPolyline
90
42
70
0
43
0
38
0
39
0
10
298
20
872
10
362
20
872
10
362
20
872
10
363.560722576129
20
871.8462822432259
10
365.06146745892073
20
871.3910362600902
10
366.4445618641568
20
870.6517568984204
10
367.65685424949237
20
869.6568542494924
10
368.6517568984204
20
868.4445618641569
10
369.3910362600903
20
867.0614674589208
10
369.84628224322586
20
865.560722576129
10
370
20
864
10
370
20
800
10
370
20
800
10
369.84628224322586
20
798.439277423871
10
369.3910362600903
20
796.9385325410792
10
368.6517568984204
20
795.5554381358431
10
367.65685424949237
20
794.3431457505076
10
366.4445618641568
20
793.3482431015796
10
365.06146745892073
20
792.6089637399098
10
363.560722576129
20
792.1537177567741
10
362
20
792
10
298
20
792
10
298
20
792
10
296.439277423871
20
792.1537177567741
10
294.93853254107927
20
792.6089637399098
10
293.5554381358432
20
793.3482431015796
10
292.34314575050763
20
794.3431457505076
10
291.3482431015796
20
795.5554381358431
10
290.6089637399097
20
796.9385325410792
10
290.15371775677414
20
798.439277423871
10
290
20
800
10
290
20
864
10
290
20
864
10
290.15371775677414
20
865.560722576129
10
290.6089637399097
20
867.0614674589208
10
291.3482431015796
20
868.4445618641569
10
292.34314575050763
20
869.6568542494924
10
293.5554381358432
20
870.6517568984204
10
294.93853254107927
20
871.3910362600902
10
296.439277423871
20
871.8462822432259
10
298
20
872
10
298
20
872
0
TEXT
5
29
330
C
100
AcDbEntity
420
#ffffff
8
0
100
AcDbText
10
316.375
20
824
30
0
40
16
1
0.25
7
STANDARD
100
AcDbText
0
LWPOLYLINE
5
2A
330
C
100
AcDbEntity
420
#ffffff
8
0
100
AcDbPolyline
90
42
70
0
43
0
38
0
39
0
10
388
20
872
10
452
20
872
10
452
20
872
10
453.560722576129
20
871.8462822432259
10
455.06146745892073
20
871.3910362600902
10
456.4445618641568
20
870.6517568984204
10
457.65685424949237
20
869.6568542494924
10
458.6517568984204
20
868.4445618641569
10
459.3910362600903
20
867.0614674589208
10
459.84628224322586
20
865.560722576129
10
460
20
864
10
460
20
800
10
460
20
800
10
459.84628224322586
20
798.439277423871
10
459.3910362600903
20
796.9385325410792
10
458.6517568984204
20
795.5554381358431
10
457.65685424949237
20
794.3431457505076
10
456.4445618641568
20
793.3482431015796
10
455.06146745892073
20
792.6089637399098
10
453.560722576129
20
792.1537177567741
10
452
20
792
10
388
20
792
10
388
20
792
10
386.439277423871
20
792.1537177567741
10
384.93853254107927
20
792.6089637399098
10
383.5554381358432
20
793.3482431015796
10
382.34314575050763
20
794.3431457505076
10
381.3482431015796
20
795.5554381358431
10
380.6089637399097
20
796.9385325410792
10
380.15371775677414
20
798.439277423871
10
380
20
800
10
380
20
864
10
380
20
864
10
380.15371775677414
20
865.560722576129
10
380.6089637399097
20
867.0614674589208
10
381.3482431015796
20
868.4445618641569
10
382.34314575050763
20
869.6568542494924
10
383.5554381358432
20
870.6517568984204
10
384.93853254107927
20
871.3910362600902
10
386.439277423871
20
871.8462822432259
10
388
20
872
10
388
20
872
0
TEXT
5
2B
330
C
100
AcDbEntity
420
#ffffff
8
0
100
AcDbText
10
410.265625
20
824
30
0
40
16
1
0.1
7
STANDARD
100
AcDbText
0
TEXT
5
2C
330
C
100
AcDbEntity
420
#000000
8
0
100
AcDbText
10
20
20
757
30
0
40
20
1
Isolation: Isolate
7
STANDARD
100
AcDbText
0
LWPOLYLINE
5
2D
330
C
100
AcDbEntity
420
#f9a825
8
0
100
AcDbPolyline
90
5
70
0
43
0
38
0
39
0
10
20
20
744
10
220
20
744
10
220
20
624
10
20
20
624
10
20
20
744
0
LWPOLYLINE
5
2E
330
C
100
AcDbEntity
420
#000000
8
0
100
AcDbPolyline
90
5
70
0
43
0
38
0
39
0
10
52
20
712
10
132
20
712
10
132
20
632
10
52
20
632
10
52
20
712
0
TEXT
5
2F
330
C
100
AcDbEntity
420
#000000
8
0
100
AcDbText
10
52
20
695
30
0
40
17
1
B (z:1)
7
STANDARD
100
AcDbText
0
LWPOLYLINE
5
30
330
C
100
AcDbEntity
420
#000000
8
0
100
AcDbPolyline
90
5
70
0
43
0
38
0
39
0
10
32
20
732
10
112
20
732
10
112
20
652
10
32
20
652
10
32
20
732
0
TEXT
5
31
330
C
100
AcDbEntity
420
#000000
8
0
100
AcDbText
10
32
20
715
30
0
40
17
1
A (z:2)
7
STANDARD
100
AcDbText
0
TEXT
5
32
330
C
100
AcDbEntity
420
#000000
8
0
100
AcDbText
10
20
20
589
30
0
40
20
1
Mix-Blend-Mode
7
STANDARD
100
AcDbText
0
LWPOLYLINE
5
33
330
C
100
AcDbEntity
420
#000000
8
0
100
AcDbPolyline
90
5
70
0
43
0
38
0
39
0
10
20
20
576
10
220
20
576
10
220
20
456
10
20
20
456
10
20
20
576
0
LWPOLYLINE
5
34
330
C
100
AcDbEntity
420
#000000
8
0
100
AcDbPolyline
90
5
70
0
43
0
38
0
39
0
10
40
20
556
10
140
20
556
10
140
20
476
10
40
20
476
10
40
20
556
0
TEXT
5
35
330
C
100
AcDbEntity
420
#000000
8
0
100
AcDbText
10
40
20
539
30
0
40
17
1
Multiply
7
STANDARD
100
AcDbText
0
TEXT
5
36
330
C
100
AcDbEntity
420
#000000
8
0
100
AcDbText
10
20
20
421
30
0
40
20
1
Will-Change
7
STANDARD
100
AcDbText
0
LWPOLYLINE
5
37
330
C
100
AcDbEntity
420
#ffffff
8
0
100
AcDbPolyline
90
5
70
0
43
0
38
0
39
0
10
20
20
408
10
120
20
408
10
120
20
308
10
20
20
308
10
20
20
408
0
TEXT
5
38
330
C
100
AcDbEntity
420
#ffffff
8
0
100
AcDbText
10
26.4375
20
350
30
0
40
17
1
will-change
7
STANDARD
100
AcDbText
0
TEXT
5
39
330
C
100
AcDbEntity
420
#000000
8
0
100
AcDbText
10
20
20
273
30
0
40
20
1
Filter
7
STANDARD
100
AcDbText
0
LWPOLYLINE
5
3A
330
C
100
AcDbEntity
420
#ffffff
8
0
100
AcDbPolyline
90
42
70
0
43
0
38
0
39
0
10
28
20
260
10
132
20
260
10
132
20
260
10
133.56072257612902
20
259.8462822432258
10
135.06146745892073
20
259.39103626009035
10
136.4445618641568
20
258.65175689842033
10
137.65685424949237
20
257.6568542494924
10
138.65175689842036
20
256.44456186415687
10
139.3910362600903
20
255.06146745892067
10
139.84628224322586
20
253.56072257612902
10
140
20
252
10
140
20
188
10
140
20
188
10
139.84628224322586
20
186.43927742387098
10
139.3910362600903
20
184.93853254107933
10
138.65175689842036
20
183.55543813584313
10
137.65685424949237
20
182.34314575050757
10
136.4445618641568
20
181.34824310157967
10
135.06146745892073
20
180.60896373990965
10
133.56072257612902
20
180.1537177567742
10
132
20
180
10
28
20
180
10
28
20
180
10
26.439277423870976
20
180.1537177567742
10
24.938532541079283
20
180.60896373990965
10
23.555438135843183
20
181.34824310157967
10
22.34314575050762
20
182.34314575050757
10
21.348243101579637
20
183.55543813584313
10
20.608963739909704
20
184.93853254107933
10
20.153717756774157
20
186.43927742387098
10
20
20
188
10
20
20
252
10
20
20
252
10
20.153717756774157
20
253.56072257612902
10
20.608963739909704
20
255.06146745892067
10
21.348243101579637
20
256.44456186415687
10
22.343145750507617
20
257.6568542494924
10
23.555438135843183
20
258.65175689842033
10
24.938532541079276
20
259.39103626009035
10
26.43927742387097
20
259.8462822432258
10
28
20
260
10
28
20
260
0
TEXT
5
3B
330
C
100
AcDbEntity
420
#ffffff
8
0
100
AcDbText
10
53.328125
20
212
30
0
40
17
1
filtered
7
STANDARD
100
AcDbText
0
TEXT
5
3C
330
C
100
AcDbEntity
420
#000000
8
0
100
AcDbText
10
20
20
145
30
0
40
20
1
Contain: Paint
7
STANDARD
100
AcDbText
0
LWPOLYLINE
5
3D
330
C
100
AcDbEntity
420
#ffffff
8
0
100
AcDbPolyline
90
5
70
0
43
0
38
0
39
0
10
20
20
132
10
170
20
132
10
170
20
32
10
20
20
32
10
20
20
132
0
TEXT
5
3E
330
C
100
AcDbEntity
420
#ffffff
8
0
100
AcDbText
10
30
20
105
30
0
40
17
1

      contain:paint
    
7
STANDARD
100
AcDbText
0
LWPOLYLINE
5
3F
330
C
100
AcDbEntity
420
#ffffff
8
0
100
AcDbPolyline
90
5
70
0
43
0
38
0
39
0
10
10
20
142
10
60
20
142
10
60
20
92
10
10
20
92
10
10
20
142
0
ENDSEC
0
SECTION
2
OBJECTS
0
DICTIONARY
5
A
330
0
100
AcDbDictionary
281
1
3
ACAD_GROUP
350
B
0
DICTIONARY
5
B
330
A
100
AcDbDictionary
281
0
0
ENDSEC
0
EOF