  0
SECTION
  2
HEADER
  0
ENDSEC
  0
SECTION
  2
CLASSES
  0
CLASS
  1
ACDBDICTIONARYWDFLT
  2
AcDbDictionaryWithDefault
  3
ObjectDBX Classes
 90
32768
280
0
281
0
  0
CLASS
  1
ACDBPLACEHOLDER
  2
AcDbPlaceHolder
  3
ObjectDBX Classes
 90
0
280
0
281
0
  0
CLASS
  1
LAYOUT
  2
AcDbLayout
  3
ObjectDBX Classes
 90
0
280
0
281
0
  0
CLASS
  1
DICTIONARYVAR
  2
AcDbDictionaryVar
  3
ObjectDBX Classes
 90
0
280
0
281
0
  0
CLASS
  1
TABLESTYLE
  2
AcDbTableStyle
  3
ObjectDBX Classes
 90
4095
280
0
281
0
  0
CLASS
  1
MATERIAL
  2
AcDbMaterial
  3
ObjectDBX Classes
 90
1153
280
0
281
0
  0
CLASS
  1
VISUALSTYLE
  2
AcDbVisualStyle
  3
ObjectDBX Classes
 90
4095
280
0
281
0
  0
CLASS
  1
SCALE
  2
AcDbScale
  3
ObjectDBX Classes
 90
1153
280
0
281
0
  0
CLASS
  1
MLEADERSTYLE
  2
AcDbMLeaderStyle
  3
ObjectDBX Classes
 90
4095
280
0
281
0
  0
CLASS
  1
CELLSTYLEMAP
  2
AcDbCellStyleMap
  3
ObjectDBX Classes
 90
1152
280
0
281
0
  0
CLASS
  1
EXACXREFPANELOBJECT
  2
ExAcXREFPanelObject
  3
ObjectDBX Classes
 90
1025
280
0
281
0
  0
CLASS
  1
NPOCOLLECTION
  2
AcDbImpNonPersistentObjectsCollection
  3
ObjectDBX Classes
 90
1153
280
0
281
0
  0
CLASS
  1
LAYER_INDEX
  2
AcDbLayerIndex
  3
ObjectDBX Classes
 90
0
280
0
281
0
  0
CLASS
  1
SPATIAL_INDEX
  2
AcDbSpatialIndex
  3
ObjectDBX Classes
 90
0
280
0
281
0
  0
CLASS
  1
IDBUFFER
  2
AcDbIdBuffer
  3
ObjectDBX Classes
 90
32768
280
0
281
0
  0
CLASS
  1
ACDBSECTIONVIEWSTYLE
  2
AcDbSectionViewStyle
  3
ObjectDBX Classes
 90
1025
280
0
281
0
  0
CLASS
  1
ACDBDETAILVIEWSTYLE
  2
AcDbDetailViewStyle
  3
ObjectDBX Classes
 90
1025
280
0
281
0
  0
CLASS
  1
MESH
  2
AcDbSubDMesh
  3
ObjectDBX Classes
 90
0
280
0
281
1
  0
CLASS
  1
SORTENTSTABLE
  2
AcDbSortentsTable
  3
ObjectDBX Classes
 90
0
280
0
281
0
  0
CLASS
  1
ACDB_TEXTOBJECTCONTEXTDATA_CLASS
  2
AcDbTextObjectContextData
  3
ObjectDBX Classes
 90
1153
280
0
281
0
  0
CLASS
  1
WIPEOUT
  2
AcDbWipeout
  3
WipeOut
 90
32895
280
0
281
1
  0
CLASS
  1
WIPEOUTVARIABLES
  2
AcDbWipeoutVariables
  3
WipeOut
 90
32768
280
0
281
0
  0
CLASS
  1
DIMASSOC
  2
AcDbDimAssoc
  3
AcDbDimAssoc
 90
0
280
0
281
0
  0
CLASS
  1
ACAD_TABLE
  2
AcDbTable
  3
ObjectDBX Classes
 90
1025
280
0
281
1
  0
CLASS
  1
TABLECONTENT
  2
AcDbTableContent
  3
ObjectDBX Classes
 90
1152
280
0
281
0
  0
CLASS
  1
TABLEGEOMETRY
  2
AcDbTableGeometry
  3
ObjectDBX Classes
 90
1152
280
0
281
0
  0
CLASS
  1
IMAGE
  2
AcDbRasterImage
  3
ISM
 90
32895
280
0
281
1
  0
CLASS
  1
IMAGEDEF
  2
AcDbRasterImageDef
  3
ISM
 90
0
280
0
281
0
  0
CLASS
  1
IMAGEDEF_REACTOR
  2
AcDbRasterImageDefReactor
  3
ISM
 90
1
280
0
281
0
  0
CLASS
  1
DBCOLOR
  2
AcDbColor
  3
ObjectDBX Classes
 90
0
280
0
281
0
  0
CLASS
  1
GEODATA
  2
AcDbGeoData
  3
ObjectDBX Classes
 90
4095
280
0
281
0
  0
CLASS
  1
MULTILEADER
  2
AcDbMLeader
  3
ObjectDBX Classes
 90
1025
280
0
281
0
  0
CLASS
  1
PDFUNDERLAY
  2
AcDbPdfReference
  3
ObjectDBX Classes
 90
4095
280
0
281
1
  0
CLASS
  1
PDFDEFINITION
  2
AcDbPdfDefinition
  3
ObjectDBX Classes
 90
1153
280
0
281
0
  0
CLASS
  1
RASTERVARIABLES
  2
AcDbRasterVariables
  3
ISM
 90
0
280
0
281
0
  0
CLASS
  1
SPATIAL_FILTER
  2
AcDbSpatialFilter
  3
ObjectDBX Classes
 90
0
280
0
281
0
  0
CLASS
  1
ACDB_MLEADEROBJECTCONTEXTDATA_CLASS
  2
AcDbMLeaderObjectContextData
  3
ObjectDBX Classes
 90
1025
280
0
281
0
  0
CLASS
  1
PLOTSETTINGS
  2
AcDbPlotSettings
  3
ObjectDBX Classes
 90
0
280
0
281
0
  0
CLASS
  1
FIELD
  2
AcDbField
  3
ObjectDBX Classes
 90
1152
280
0
281
0
  0
CLASS
  1
FIELDLIST
  2
AcDbFieldList
  3
ObjectDBX Classes
 90
1152
280
0
281
0
  0
CLASS
  1
ACDB_MTEXTATTRIBUTEOBJECTCONTEXTDATA_CLASS
  2
AcDbMTextAttributeObjectContextData
  3
ObjectDBX Classes
 90
1153
280
0
281
0
  0
CLASS
  1
ACDB_BLKREFOBJECTCONTEXTDATA_CLASS
  2
AcDbBlkRefObjectContextData
  3
ObjectDBX Classes
 90
1153
280
0
281
0
  0
ENDSEC
  0
SECTION
  2
TABLES
  0
TABLE
  2
VPORT
  5
A
330
0
100
AcDbSymbolTable
 70
1
  0
VPORT
  5
18
330
A
100
AcDbSymbolTableRecord
100
AcDbViewportTableRecord
  2
*Active
 70
0
 10
0.0
 20
0.0
 11
1.0
 21
1.0
 12
0.0
 22
0.0
 13
0.0
 23
0.0
 14
0.5
 24
0.5
 15
10.0
 25
10.0
 16
0.0
 26
0.0
 36
1.0
 17
0.0
 27
0.0
 37
0.0
 40
10.0
 41
1.0
 75
0
 76
1
  0
ENDTAB
  0
TABLE
  2
LTYPE
  5
6
330
0
100
AcDbSymbolTable
 70
3
  0
LTYPE
  5
B
330
6
100
AcDbSymbolTableRecord
100
AcDbLinetypeTableRecord
  2
ByLayer
 70
0
 72
0
 73
0
 40
0.0
  0
LTYPE
  5
C
330
6
100
AcDbSymbolTableRecord
100
AcDbLinetypeTableRecord
  2
ByBlock
 70
0
 72
0
 73
0
 40
0.0
  0
LTYPE
  5
D
330
6
100
AcDbSymbolTableRecord
100
AcDbLinetypeTableRecord
  2
Continuous
 70
0
 72
0
 73
0
 40
0.0
  0
ENDTAB
  0
TABLE
  2
LAYER
  5
5
330
0
100
AcDbSymbolTable
 70
1
  0
LAYER
  5
E
330
5
100
AcDbSymbolTableRecord
100
AcDbLayerTableRecord
  2
0
 70
0
 62
7
  6
Continuous
290
1
370
-3
390
0
  0
ENDTAB
  0
TABLE
  2
STYLE
  5
7
330
0
100
AcDbSymbolTable
 70
1
  0
STYLE
  5
15
330
7
100
AcDbSymbolTableRecord
100
AcDbTextStyleTableRecord
  2
Standard
 70
0
 40
0.0
 41
1.0
 42
0.0
 50
0.0
 71
0
  0
ENDTAB
  0
TABLE
  2
VIEW
  5
9
330
0
100
AcDbSymbolTable
 70
0
  0
ENDTAB
  0
TABLE
  2
UCS
  5
8
330
0
100
AcDbSymbolTable
 70
0
  0
ENDTAB
  0
TABLE
  2
APPID
  5
2
330
0
100
AcDbSymbolTable
 70
1
  0
APPID
  5
17
330
2
100
AcDbSymbolTableRecord
100
AcDbRegAppTableRecord
  2
ACAD
 70
0
  0
ENDTAB
  0
TABLE
  2
DIMSTYLE
  5
4
330
0
100
AcDbSymbolTable
 70
1
100
AcDbDimStyleTable
  0
DIMSTYLE
105
16
330
4
100
AcDbSymbolTableRecord
100
AcDbDimStyleTableRecord
  2
Standard
 70
0
  3
<>
  4
[]
 40
1.0
 41
0.18
 42
0.625
 43
3.75
 44
1.25
 45
0.0
 46
0.0
 47
0.0
 48
0.0
 49
1.0
 50
0.7853981633974483
 70
0
 90
0
140
0.18
141
0.09
142
0.0
143
25.3999999999999986
144
1.0
145
0.0
146
1.0
147
0.625
148
0.0
 71
0
 72
0
 73
0
 74
0
 75
0
 76
0
 77
1
 78
8
 79
0
170
0
171
3
172
0
173
1
174
0
175
0
176
0
177
0
178
0
179
0
271
2
272
2
273
2
274
3
275
0
276
0
277
2
278
46
279
0
280
0
281
0
282
0
283
0
284
8
285
0
286
0
287
0
288
0
289
3
290
0
340
0
371
-2
372
-2
  0
ENDTAB
  0
TABLE
  2
BLOCK_RECORD
  5
3
330
0
100
AcDbSymbolTable
 70
2
  0
BLOCK_RECORD
  5
F
330
3
100
AcDbSymbolTableRecord
100
AcDbBlockTableRecord
  2
*Model_Space
 70
0
 70
0
280
0
281
1
  0
BLOCK_RECORD
  5
12
330
3
100
AcDbSymbolTableRecord
100
AcDbBlockTableRecord
  2
*Paper_Space
 70
0
 70
0
280
0
281
1
  0
ENDTAB
  0
ENDSEC
  0
SECTION
  2
BLOCKS
  0
BLOCK
  5
10
330
F
100
AcDbEntity
  8
0
  6
ByLayer
 62
256
 48
1.0
 60
0
370
-1
100
AcDbBlockBegin
  2
*Model_Space
 70
0
 10
0.0
 20
0.0
 30
0.0
  3
*Model_Space
  0
ENDBLK
  5
11
330
F
100
AcDbEntity
  8
0
100
AcDbBlockEnd
  0
BLOCK
  5
13
330
12
100
AcDbEntity
  8
0
  6
ByLayer
 62
256
 48
1.0
 60
0
370
-1
100
AcDbBlockBegin
  2
*Paper_Space
 70
0
 10
0.0
 20
0.0
 30
0.0
  3
*Paper_Space
  0
ENDBLK
  5
14
330
12
100
AcDbEntity
  8
0
100
AcDbBlockEnd
  0
ENDSEC
  0
SECTION
  2
ENTITIES
  0
TEXT
  5
19
330
F
100
AcDbEntity
  8
0
  6
ByLayer
420
0
 48
1.0
 60
0
370
-1
100
AcDbText
 39
0.0
 10
0.0
 20
1112.5
 30
0.0
 40
18.0
  1
Z-Index Stacking
 50
0.0
 41
1.0
 51
0.0
  7
Standard
 71
0
 72
0
 11
0.0
 21
0.0
 31
0.0
210
0.0
220
0.0
230
1.0
100
AcDbText
 73
0
  0
HATCH
  5
1A
330
F
100
AcDbEntity
  8
0
  6
ByLayer
420
15022389
 48
1.0
 60
0
370
-1
100
AcDbHatch
 30
0.0
210
0.0
220
0.0
230
1.0
  2
SOLID
 70
1
 71
0
 91
1
 92
2
 72
0
 73
1
 93
4
 10
0.0
 20
1091.0
 10
150.0
 20
1091.0
 10
150.0
 20
941.0
 10
0.0
 20
941.0
 97
0
 75
0
 76
1
 47
0.0
 98
0
  0
LWPOLYLINE
  5
1B
330
F
100
AcDbEntity
  8
0
  6
ByLayer
420
15022389
 48
1.0
 60
0
370
-1
100
AcDbPolyline
 90
4
 70
1
 43
0.0
 38
0.0
 39
0.0
210
0.0
220
0.0
230
1.0
 10
0.0
 20
1091.0
 40
0.0
 41
0.0
 42
0.0
 10
150.0
 20
1091.0
 40
0.0
 41
0.0
 42
0.0
 10
150.0
 20
941.0
 40
0.0
 41
0.0
 42
0.0
 10
0.0
 20
941.0
 40
0.0
 41
0.0
 42
0.0
  0
TEXT
  5
1C
330
F
100
AcDbEntity
  8
0
  6
ByLayer
420
0
 48
1.0
 60
0
370
-1
100
AcDbText
 39
0.0
 10
0.0
 20
1078.5
 30
0.0
 40
16.0
  1
z:1
 50
0.0
 41
1.0
 51
0.0
  7
Standard
 71
0
 72
0
 11
0.0
 21
0.0
 31
0.0
210
0.0
220
0.0
230
1.0
100
AcDbText
 73
0
  0
HATCH
  5
1D
330
F
100
AcDbEntity
  8
0
  6
ByLayer
420
4431943
 48
1.0
 60
0
370
-1
100
AcDbHatch
 30
0.0
210
0.0
220
0.0
230
1.0
  2
SOLID
 70
1
 71
0
 91
1
 92
2
 72
0
 73
1
 93
4
 10
30.0
 20
1061.0
 10
180.0
 20
1061.0
 10
180.0
 20
911.0
 10
30.0
 20
911.0
 97
0
 75
0
 76
1
 47
0.0
 98
0
  0
LWPOLYLINE
  5
1E
330
F
100
AcDbEntity
  8
0
  6
ByLayer
420
4431943
 48
1.0
 60
0
370
-1
100
AcDbPolyline
 90
4
 70
1
 43
0.0
 38
0.0
 39
0.0
210
0.0
220
0.0
230
1.0
 10
30.0
 20
1061.0
 40
0.0
 41
0.0
 42
0.0
 10
180.0
 20
1061.0
 40
0.0
 41
0.0
 42
0.0
 10
180.0
 20
911.0
 40
0.0
 41
0.0
 42
0.0
 10
30.0
 20
911.0
 40
0.0
 41
0.0
 42
0.0
  0
TEXT
  5
1F
330
F
100
AcDbEntity
  8
0
  6
ByLayer
420
0
 48
1.0
 60
0
370
-1
100
AcDbText
 39
0.0
 10
30.0
 20
1048.5
 30
0.0
 40
16.0
  1
z:2
 50
0.0
 41
1.0
 51
0.0
  7
Standard
 71
0
 72
0
 11
0.0
 21
0.0
 31
0.0
210
0.0
220
0.0
230
1.0
100
AcDbText
 73
0
  0
HATCH
  5
20
330
F
100
AcDbEntity
  8
0
  6
ByLayer
420
2001125
 48
1.0
 60
0
370
-1
100
AcDbHatch
 30
0.0
210
0.0
220
0.0
230
1.0
  2
SOLID
 70
1
 71
0
 91
1
 92
2
 72
0
 73
1
 93
4
 10
60.0
 20
1031.0
 10
210.0
 20
1031.0
 10
210.0
 20
881.0
 10
60.0
 20
881.0
 97
0
 75
0
 76
1
 47
0.0
 98
0
  0
LWPOLYLINE
  5
21
330
F
100
AcDbEntity
  8
0
  6
ByLayer
420
2001125
 48
1.0
 60
0
370
-1
100
AcDbPolyline
 90
4
 70
1
 43
0.0
 38
0.0
 39
0.0
210
0.0
220
0.0
230
1.0
 10
60.0
 20
1031.0
 40
0.0
 41
0.0
 42
0.0
 10
210.0
 20
1031.0
 40
0.0
 41
0.0
 42
0.0
 10
210.0
 20
881.0
 40
0.0
 41
0.0
 42
0.0
 10
60.0
 20
881.0
 40
0.0
 41
0.0
 42
0.0
  0
TEXT
  5
22
330
F
100
AcDbEntity
  8
0
  6
ByLayer
420
0
 48
1.0
 60
0
370
-1
100
AcDbText
 39
0.0
 10
60.0
 20
1018.5
 30
0.0
 40
16.0
  1
z:3
 50
0.0
 41
1.0
 51
0.0
  7
Standard
 71
0
 72
0
 11
0.0
 21
0.0
 31
0.0
210
0.0
220
0.0
230
1.0
100
AcDbText
 73
0
  0
TEXT
  5
23
330
F
100
AcDbEntity
  8
0
  6
ByLayer
420
0
 48
1.0
 60
0
370
-1
100
AcDbText
 39
0.0
 10
0.0
 20
861.5
 30
0.0
 40
18.0
  1
Opacity Levels
 50
0.0
 41
1.0
 51
0.0
  7
Standard
 71
0
 72
0
 11
0.0
 21
0.0
 31
0.0
210
0.0
220
0.0
230
1.0
100
AcDbText
 73
0
  0
HATCH
  5
24
330
F
100
AcDbEntity
  8
0
  6
ByLayer
420
6953882
 48
1.0
 60
0
370
-1
100
AcDbHatch
 30
0.0
210
0.0
220
0.0
230
1.0
  2
SOLID
 70
1
 71
0
 91
1
 92
2
 72
0
 73
1
 93
41
 10
8.0
 20
840.0
 10
72.0
 20
840.0
 10
72.0
 20
840.0
 10
73.5607225761290238
 20
839.8462822432259145
 10
75.0614674589207169
 20
839.3910362600902317
 10
76.4445618641568245
 20
838.6517568984204445
 10
77.6568542494923832
 20
837.6568542494924259
 10
78.6517568984203592
 20
836.4445618641568672
 10
79.3910362600902886
 20
835.061467458920788
 10
79.8462822432258434
 20
833.5607225761290238
 10
80.0
 20
832.0
 10
80.0
 20
768.0
 10
80.0
 20
768.0
 10
79.8462822432258434
 20
766.4392774238709762
 10
79.3910362600902886
 20
764.938532541079212
 10
78.6517568984203592
 20
763.5554381358431328
 10
77.6568542494923832
 20
762.3431457505075741
 10
76.4445618641568245
 20
761.3482431015795555
 10
75.0614674589207169
 20
760.6089637399097683
 10
73.5607225761290238
 20
760.1537177567740855
 10
72.0
 20
760.0
 10
8.0
 20
760.0
 10
8.0
 20
760.0
 10
6.4392774238709745
 20
760.1537177567740855
 10
4.9385325410792822
 20
760.6089637399097683
 10
3.5554381358431844
 20
761.3482431015795555
 10
2.3431457505076203
 20
762.3431457505075741
 10
1.3482431015796372
 20
763.5554381358431328
 10
0.6089637399097061
 20
764.938532541079212
 10
0.1537177567741566
 20
766.4392774238709762
 10
0.0
 20
768.0
 10
0.0
 20
832.0
 10
0.0
 20
832.0
 10
0.1537177567741566
 20
833.5607225761290238
 10
0.6089637399097052
 20
835.061467458920788
 10
1.3482431015796363
 20
836.4445618641568672
 10
2.3431457505076185
 20
837.6568542494924259
 10
3.5554381358431826
 20
838.6517568984204445
 10
4.9385325410792777
 20
839.3910362600902317
 10
6.4392774238709709
 20
839.8462822432259145
 10
7.9999999999999982
 20
840.0
 97
0
 75
0
 76
1
 47
0.0
 98
0
  0
LWPOLYLINE
  5
25
330
F
100
AcDbEntity
  8
0
  6
ByLayer
420
6953882
 48
1.0
 60
0
370
-1
100
AcDbPolyline
 90
41
 70
1
 43
0.0
 38
0.0
 39
0.0
210
0.0
220
0.0
230
1.0
 10
8.0
 20
840.0
 40
0.0
 41
0.0
 42
0.0
 10
72.0
 20
840.0
 40
0.0
 41
0.0
 42
0.0
 10
72.0
 20
840.0
 40
0.0
 41
0.0
 42
0.0
 10
73.5607225761290238
 20
839.8462822432259145
 40
0.0
 41
0.0
 42
0.0
 10
75.0614674589207169
 20
839.3910362600902317
 40
0.0
 41
0.0
 42
0.0
 10
76.4445618641568245
 20
838.6517568984204445
 40
0.0
 41
0.0
 42
0.0
 10
77.6568542494923832
 20
837.6568542494924259
 40
0.0
 41
0.0
 42
0.0
 10
78.6517568984203592
 20
836.4445618641568672
 40
0.0
 41
0.0
 42
0.0
 10
79.3910362600902886
 20
835.061467458920788
 40
0.0
 41
0.0
 42
0.0
 10
79.8462822432258434
 20
833.5607225761290238
 40
0.0
 41
0.0
 42
0.0
 10
80.0
 20
832.0
 40
0.0
 41
0.0
 42
0.0
 10
80.0
 20
768.0
 40
0.0
 41
0.0
 42
0.0
 10
80.0
 20
768.0
 40
0.0
 41
0.0
 42
0.0
 10
79.8462822432258434
 20
766.4392774238709762
 40
0.0
 41
0.0
 42
0.0
 10
79.3910362600902886
 20
764.938532541079212
 40
0.0
 41
0.0
 42
0.0
 10
78.6517568984203592
 20
763.5554381358431328
 40
0.0
 41
0.0
 42
0.0
 10
77.6568542494923832
 20
762.3431457505075741
 40
0.0
 41
0.0
 42
0.0
 10
76.4445618641568245
 20
761.3482431015795555
 40
0.0
 41
0.0
 42
0.0
 10
75.0614674589207169
 20
760.6089637399097683
 40
0.0
 41
0.0
 42
0.0
 10
73.5607225761290238
 20
760.1537177567740855
 40
0.0
 41
0.0
 42
0.0
 10
72.0
 20
760.0
 40
0.0
 41
0.0
 42
0.0
 10
8.0
 20
760.0
 40
0.0
 41
0.0
 42
0.0
 10
8.0
 20
760.0
 40
0.0
 41
0.0
 42
0.0
 10
6.4392774238709745
 20
760.1537177567740855
 40
0.0
 41
0.0
 42
0.0
 10
4.9385325410792822
 20
760.6089637399097683
 40
0.0
 41
0.0
 42
0.0
 10
3.5554381358431844
 20
761.3482431015795555
 40
0.0
 41
0.0
 42
0.0
 10
2.3431457505076203
 20
762.3431457505075741
 40
0.0
 41
0.0
 42
0.0
 10
1.3482431015796372
 20
763.5554381358431328
 40
0.0
 41
0.0
 42
0.0
 10
0.6089637399097061
 20
764.938532541079212
 40
0.0
 41
0.0
 42
0.0
 10
0.1537177567741566
 20
766.4392774238709762
 40
0.0
 41
0.0
 42
0.0
 10
0.0
 20
768.0
 40
0.0
 41
0.0
 42
0.0
 10
0.0
 20
832.0
 40
0.0
 41
0.0
 42
0.0
 10
0.0
 20
832.0
 40
0.0
 41
0.0
 42
0.0
 10
0.1537177567741566
 20
833.5607225761290238
 40
0.0
 41
0.0
 42
0.0
 10
0.6089637399097052
 20
835.061467458920788
 40
0.0
 41
0.0
 42
0.0
 10
1.3482431015796363
 20
836.4445618641568672
 40
0.0
 41
0.0
 42
0.0
 10
2.3431457505076185
 20
837.6568542494924259
 40
0.0
 41
0.0
 42
0.0
 10
3.5554381358431826
 20
838.6517568984204445
 40
0.0
 41
0.0
 42
0.0
 10
4.9385325410792777
 20
839.3910362600902317
 40
0.0
 41
0.0
 42
0.0
 10
6.4392774238709709
 20
839.8462822432259145
 40
0.0
 41
0.0
 42
0.0
 10
7.9999999999999982
 20
840.0
 40
0.0
 41
0.0
 42
0.0
  0
TEXT
  5
26
330
F
100
AcDbEntity
  8
0
  6
ByLayer
420
16777215
 48
1.0
 60
0
370
-1
100
AcDbText
 39
0.0
 10
30.0
 20
796.5
 30
0.0
 40
14.0
  1
1.0
 50
0.0
 41
1.0
 51
0.0
  7
Standard
 71
0
 72
0
 11
0.0
 21
0.0
 31
0.0
210
0.0
220
0.0
230
1.0
100
AcDbText
 73
0
  0
HATCH
  5
27
330
F
100
AcDbEntity
  8
0
  6
ByLayer
420
6953882
 48
1.0
 60
0
370
-1
100
AcDbHatch
 30
0.0
210
0.0
220
0.0
230
1.0
  2
SOLID
 70
1
 71
0
 91
1
 92
2
 72
0
 73
1
 93
41
 10
98.0
 20
840.0
 10
162.0
 20
840.0
 10
162.0
 20
840.0
 10
163.5607225761290238
 20
839.8462822432259145
 10
165.0614674589207311
 20
839.3910362600902317
 10
166.4445618641568103
 20
838.6517568984204445
 10
167.656854249492369
 20
837.6568542494924259
 10
168.6517568984203592
 20
836.4445618641568672
 10
169.3910362600902886
 20
835.061467458920788
 10
169.8462822432258577
 20
833.5607225761290238
 10
170.0
 20
832.0
 10
170.0
 20
768.0
 10
170.0
 20
768.0
 10
169.8462822432258577
 20
766.4392774238709762
 10
169.3910362600902886
 20
764.938532541079212
 10
168.6517568984203592
 20
763.5554381358431328
 10
167.656854249492369
 20
762.3431457505075741
 10
166.4445618641568103
 20
761.3482431015795555
 10
165.0614674589207311
 20
760.6089637399097683
 10
163.5607225761290238
 20
760.1537177567740855
 10
162.0
 20
760.0
 10
98.0
 20
760.0
 10
98.0
 20
760.0
 10
96.4392774238709762
 20
760.1537177567740855
 10
94.9385325410792831
 20
760.6089637399097683
 10
93.5554381358431897
 20
761.3482431015795555
 10
92.3431457505076168
 20
762.3431457505075741
 10
91.3482431015796408
 20
763.5554381358431328
 10
90.6089637399097114
 20
764.938532541079212
 10
90.1537177567741566
 20
766.4392774238709762
 10
90.0
 20
768.0
 10
90.0
 20
832.0
 10
90.0
 20
832.0
 10
90.1537177567741566
 20
833.5607225761290238
 10
90.6089637399097114
 20
835.061467458920788
 10
91.3482431015796408
 20
836.4445618641568672
 10
92.3431457505076168
 20
837.6568542494924259
 10
93.5554381358431897
 20
838.6517568984204445
 10
94.9385325410792831
 20
839.3910362600902317
 10
96.4392774238709762
 20
839.8462822432259145
 10
98.0
 20
840.0
 97
0
 75
0
 76
1
 47
0.0
 98
0
  0
LWPOLYLINE
  5
28
330
F
100
AcDbEntity
  8
0
  6
ByLayer
420
6953882
 48
1.0
 60
0
370
-1
100
AcDbPolyline
 90
41
 70
1
 43
0.0
 38
0.0
 39
0.0
210
0.0
220
0.0
230
1.0
 10
98.0
 20
840.0
 40
0.0
 41
0.0
 42
0.0
 10
162.0
 20
840.0
 40
0.0
 41
0.0
 42
0.0
 10
162.0
 20
840.0
 40
0.0
 41
0.0
 42
0.0
 10
163.5607225761290238
 20
839.8462822432259145
 40
0.0
 41
0.0
 42
0.0
 10
165.0614674589207311
 20
839.3910362600902317
 40
0.0
 41
0.0
 42
0.0
 10
166.4445618641568103
 20
838.6517568984204445
 40
0.0
 41
0.0
 42
0.0
 10
167.656854249492369
 20
837.6568542494924259
 40
0.0
 41
0.0
 42
0.0
 10
168.6517568984203592
 20
836.4445618641568672
 40
0.0
 41
0.0
 42
0.0
 10
169.3910362600902886
 20
835.061467458920788
 40
0.0
 41
0.0
 42
0.0
 10
169.8462822432258577
 20
833.5607225761290238
 40
0.0
 41
0.0
 42
0.0
 10
170.0
 20
832.0
 40
0.0
 41
0.0
 42
0.0
 10
170.0
 20
768.0
 40
0.0
 41
0.0
 42
0.0
 10
170.0
 20
768.0
 40
0.0
 41
0.0
 42
0.0
 10
169.8462822432258577
 20
766.4392774238709762
 40
0.0
 41
0.0
 42
0.0
 10
169.3910362600902886
 20
764.938532541079212
 40
0.0
 41
0.0
 42
0.0
 10
168.6517568984203592
 20
763.5554381358431328
 40
0.0
 41
0.0
 42
0.0
 10
167.656854249492369
 20
762.3431457505075741
 40
0.0
 41
0.0
 42
0.0
 10
166.4445618641568103
 20
761.3482431015795555
 40
0.0
 41
0.0
 42
0.0
 10
165.0614674589207311
 20
760.6089637399097683
 40
0.0
 41
0.0
 42
0.0
 10
163.5607225761290238
 20
760.1537177567740855
 40
0.0
 41
0.0
 42
0.0
 10
162.0
 20
760.0
 40
0.0
 41
0.0
 42
0.0
 10
98.0
 20
760.0
 40
0.0
 41
0.0
 42
0.0
 10
98.0
 20
760.0
 40
0.0
 41
0.0
 42
0.0
 10
96.4392774238709762
 20
760.1537177567740855
 40
0.0
 41
0.0
 42
0.0
 10
94.9385325410792831
 20
760.6089637399097683
 40
0.0
 41
0.0
 42
0.0
 10
93.5554381358431897
 20
761.3482431015795555
 40
0.0
 41
0.0
 42
0.0
 10
92.3431457505076168
 20
762.3431457505075741
 40
0.0
 41
0.0
 42
0.0
 10
91.3482431015796408
 20
763.5554381358431328
 40
0.0
 41
0.0
 42
0.0
 10
90.6089637399097114
 20
764.938532541079212
 40
0.0
 41
0.0
 42
0.0
 10
90.1537177567741566
 20
766.4392774238709762
 40
0.0
 41
0.0
 42
0.0
 10
90.0
 20
768.0
 40
0.0
 41
0.0
 42
0.0
 10
90.0
 20
832.0
 40
0.0
 41
0.0
 42
0.0
 10
90.0
 20
832.0
 40
0.0
 41
0.0
 42
0.0
 10
90.1537177567741566
 20
833.5607225761290238
 40
0.0
 41
0.0
 42
0.0
 10
90.6089637399097114
 20
835.061467458920788
 40
0.0
 41
0.0
 42
0.0
 10
91.3482431015796408
 20
836.4445618641568672
 40
0.0
 41
0.0
 42
0.0
 10
92.3431457505076168
 20
837.6568542494924259
 40
0.0
 41
0.0
 42
0.0
 10
93.5554381358431897
 20
838.6517568984204445
 40
0.0
 41
0.0
 42
0.0
 10
94.9385325410792831
 20
839.3910362600902317
 40
0.0
 41
0.0
 42
0.0
 10
96.4392774238709762
 20
839.8462822432259145
 40
0.0
 41
0.0
 42
0.0
 10
98.0
 20
840.0
 40
0.0
 41
0.0
 42
0.0
  0
TEXT
  5
29
330
F
100
AcDbEntity
  8
0
  6
ByLayer
420
16777215
 48
1.0
 60
0
370
-1
100
AcDbText
 39
0.0
 10
116.0
 20
796.5
 30
0.0
 40
14.0
  1
0.75
 50
0.0
 41
1.0
 51
0.0
  7
Standard
 71
0
 72
0
 11
0.0
 21
0.0
 31
0.0
210
0.0
220
0.0
230
1.0
100
AcDbText
 73
0
  0
HATCH
  5
2A
330
F
100
AcDbEntity
  8
0
  6
ByLayer
420
6953882
 48
1.0
 60
0
370
-1
100
AcDbHatch
 30
0.0
210
0.0
220
0.0
230
1.0
  2
SOLID
 70
1
 71
0
 91
1
 92
2
 72
0
 73
1
 93
41
 10
188.0
 20
840.0
 10
252.0
 20
840.0
 10
252.0
 20
840.0
 10
253.5607225761290238
 20
839.8462822432259145
 10
255.0614674589207311
 20
839.3910362600902317
 10
256.4445618641568103
 20
838.6517568984204445
 10
257.656854249492369
 20
837.6568542494924259
 10
258.6517568984203876
 20
836.4445618641568672
 10
259.3910362600902886
 20
835.061467458920788
 10
259.8462822432258577
 20
833.5607225761290238
 10
260.0
 20
832.0
 10
260.0
 20
768.0
 10
260.0
 20
768.0
 10
259.8462822432258577
 20
766.4392774238709762
 10
259.3910362600902886
 20
764.938532541079212
 10
258.6517568984203876
 20
763.5554381358431328
 10
257.656854249492369
 20
762.3431457505075741
 10
256.4445618641568103
 20
761.3482431015795555
 10
255.0614674589207311
 20
760.6089637399097683
 10
253.5607225761290238
 20
760.1537177567740855
 10
252.0
 20
760.0
 10
188.0
 20
760.0
 10
188.0
 20
760.0
 10
186.4392774238709762
 20
760.1537177567740855
 10
184.9385325410792689
 20
760.6089637399097683
 10
183.5554381358431897
 20
761.3482431015795555
 10
182.343145750507631
 20
762.3431457505075741
 10
181.3482431015796408
 20
763.5554381358431328
 10
180.6089637399097114
 20
764.938532541079212
 10
180.1537177567741423
 20
766.4392774238709762
 10
180.0
 20
768.0
 10
180.0
 20
832.0
 10
180.0
 20
832.0
 10
180.1537177567741423
 20
833.5607225761290238
 10
180.6089637399097114
 20
835.061467458920788
 10
181.3482431015796408
 20
836.4445618641568672
 10
182.343145750507631
 20
837.6568542494924259
 10
183.5554381358431897
 20
838.6517568984204445
 10
184.9385325410792689
 20
839.3910362600902317
 10
186.4392774238709762
 20
839.8462822432259145
 10
188.0
 20
840.0
 97
0
 75
0
 76
1
 47
0.0
 98
0
  0
LWPOLYLINE
  5
2B
330
F
100
AcDbEntity
  8
0
  6
ByLayer
420
6953882
 48
1.0
 60
0
370
-1
100
AcDbPolyline
 90
41
 70
1
 43
0.0
 38
0.0
 39
0.0
210
0.0
220
0.0
230
1.0
 10
188.0
 20
840.0
 40
0.0
 41
0.0
 42
0.0
 10
252.0
 20
840.0
 40
0.0
 41
0.0
 42
0.0
 10
252.0
 20
840.0
 40
0.0
 41
0.0
 42
0.0
 10
253.5607225761290238
 20
839.8462822432259145
 40
0.0
 41
0.0
 42
0.0
 10
255.0614674589207311
 20
839.3910362600902317
 40
0.0
 41
0.0
 42
0.0
 10
256.4445618641568103
 20
838.6517568984204445
 40
0.0
 41
0.0
 42
0.0
 10
257.656854249492369
 20
837.6568542494924259
 40
0.0
 41
0.0
 42
0.0
 10
258.6517568984203876
 20
836.4445618641568672
 40
0.0
 41
0.0
 42
0.0
 10
259.3910362600902886
 20
835.061467458920788
 40
0.0
 41
0.0
 42
0.0
 10
259.8462822432258577
 20
833.5607225761290238
 40
0.0
 41
0.0
 42
0.0
 10
260.0
 20
832.0
 40
0.0
 41
0.0
 42
0.0
 10
260.0
 20
768.0
 40
0.0
 41
0.0
 42
0.0
 10
260.0
 20
768.0
 40
0.0
 41
0.0
 42
0.0
 10
259.8462822432258577
 20
766.4392774238709762
 40
0.0
 41
0.0
 42
0.0
 10
259.3910362600902886
 20
764.938532541079212
 40
0.0
 41
0.0
 42
0.0
 10
258.6517568984203876
 20
763.5554381358431328
 40
0.0
 41
0.0
 42
0.0
 10
257.656854249492369
 20
762.3431457505075741
 40
0.0
 41
0.0
 42
0.0
 10
256.4445618641568103
 20
761.3482431015795555
 40
0.0
 41
0.0
 42
0.0
 10
255.0614674589207311
 20
760.6089637399097683
 40
0.0
 41
0.0
 42
0.0
 10
253.5607225761290238
 20
760.1537177567740855
 40
0.0
 41
0.0
 42
0.0
 10
252.0
 20
760.0
 40
0.0
 41
0.0
 42
0.0
 10
188.0
 20
760.0
 40
0.0
 41
0.0
 42
0.0
 10
188.0
 20
760.0
 40
0.0
 41
0.0
 42
0.0
 10
186.4392774238709762
 20
760.1537177567740855
 40
0.0
 41
0.0
 42
0.0
 10
184.9385325410792689
 20
760.6089637399097683
 40
0.0
 41
0.0
 42
0.0
 10
183.5554381358431897
 20
761.3482431015795555
 40
0.0
 41
0.0
 42
0.0
 10
182.343145750507631
 20
762.3431457505075741
 40
0.0
 41
0.0
 42
0.0
 10
181.3482431015796408
 20
763.5554381358431328
 40
0.0
 41
0.0
 42
0.0
 10
180.6089637399097114
 20
764.938532541079212
 40
0.0
 41
0.0
 42
0.0
 10
180.1537177567741423
 20
766.4392774238709762
 40
0.0
 41
0.0
 42
0.0
 10
180.0
 20
768.0
 40
0.0
 41
0.0
 42
0.0
 10
180.0
 20
832.0
 40
0.0
 41
0.0
 42
0.0
 10
180.0
 20
832.0
 40
0.0
 41
0.0
 42
0.0
 10
180.1537177567741423
 20
833.5607225761290238
 40
0.0
 41
0.0
 42
0.0
 10
180.6089637399097114
 20
835.061467458920788
 40
0.0
 41
0.0
 42
0.0
 10
181.3482431015796408
 20
836.4445618641568672
 40
0.0
 41
0.0
 42
0.0
 10
182.343145750507631
 20
837.6568542494924259
 40
0.0
 41
0.0
 42
0.0
 10
183.5554381358431897
 20
838.6517568984204445
 40
0.0
 41
0.0
 42
0.0
 10
184.9385325410792689
 20
839.3910362600902317
 40
0.0
 41
0.0
 42
0.0
 10
186.4392774238709762
 20
839.8462822432259145
 40
0.0
 41
0.0
 42
0.0
 10
188.0
 20
840.0
 40
0.0
 41
0.0
 42
0.0
  0
TEXT
  5
2C
330
F
100
AcDbEntity
  8
0
  6
ByLayer
420
16777215
 48
1.0
 60
0
370
-1
100
AcDbText
 39
0.0
 10
210.0
 20
796.5
 30
0.0
 40
14.0
  1
0.5
 50
0.0
 41
1.0
 51
0.0
  7
Standard
 71
0
 72
0
 11
0.0
 21
0.0
 31
0.0
210
0.0
220
0.0
230
1.0
100
AcDbText
 73
0
  0
HATCH
  5
2D
330
F
100
AcDbEntity
  8
0
  6
ByLayer
420
6953882
 48
1.0
 60
0
370
-1
100
AcDbHatch
 30
0.0
210
0.0
220
0.0
230
1.0
  2
SOLID
 70
1
 71
0
 91
1
 92
2
 72
0
 73
1
 93
41
 10
278.0
 20
840.0
 10
342.0
 20
840.0
 10
342.0
 20
840.0
 10
343.5607225761290238
 20
839.8462822432259145
 10
345.0614674589207311
 20
839.3910362600902317
 10
346.4445618641568103
 20
838.6517568984204445
 10
347.656854249492369
 20
837.6568542494924259
 10
348.6517568984203876
 20
836.4445618641568672
 10
349.3910362600902886
 20
835.061467458920788
 10
349.8462822432258577
 20
833.5607225761290238
 10
350.0
 20
832.0
 10
350.0
 20
768.0
 10
350.0
 20
768.0
 10
349.8462822432258577
 20
766.4392774238709762
 10
349.3910362600902886
 20
764.938532541079212
 10
348.6517568984203876
 20
763.5554381358431328
 10
347.656854249492369
 20
762.3431457505075741
 10
346.4445618641568103
 20
761.3482431015795555
 10
345.0614674589207311
 20
760.6089637399097683
 10
343.5607225761290238
 20
760.1537177567740855
 10
342.0
 20
760.0
 10
278.0
 20
760.0
 10
278.0
 20
760.0
 10
276.4392774238709762
 20
760.1537177567740855
 10
274.9385325410792689
 20
760.6089637399097683
 10
273.5554381358431897
 20
761.3482431015795555
 10
272.343145750507631
 20
762.3431457505075741
 10
271.3482431015796124
 20
763.5554381358431328
 10
270.6089637399097114
 20
764.938532541079212
 10
270.1537177567741423
 20
766.4392774238709762
 10
270.0
 20
768.0
 10
270.0
 20
832.0
 10
270.0
 20
832.0
 10
270.1537177567741423
 20
833.5607225761290238
 10
270.6089637399097114
 20
835.061467458920788
 10
271.3482431015796124
 20
836.4445618641568672
 10
272.343145750507631
 20
837.6568542494924259
 10
273.5554381358431897
 20
838.6517568984204445
 10
274.9385325410792689
 20
839.3910362600902317
 10
276.4392774238709762
 20
839.8462822432259145
 10
278.0
 20
840.0
 97
0
 75
0
 76
1
 47
0.0
 98
0
  0
LWPOLYLINE
  5
2E
330
F
100
AcDbEntity
  8
0
  6
ByLayer
420
6953882
 48
1.0
 60
0
370
-1
100
AcDbPolyline
 90
41
 70
1
 43
0.0
 38
0.0
 39
0.0
210
0.0
220
0.0
230
1.0
 10
278.0
 20
840.0
 40
0.0
 41
0.0
 42
0.0
 10
342.0
 20
840.0
 40
0.0
 41
0.0
 42
0.0
 10
342.0
 20
840.0
 40
0.0
 41
0.0
 42
0.0
 10
343.5607225761290238
 20
839.8462822432259145
 40
0.0
 41
0.0
 42
0.0
 10
345.0614674589207311
 20
839.3910362600902317
 40
0.0
 41
0.0
 42
0.0
 10
346.4445618641568103
 20
838.6517568984204445
 40
0.0
 41
0.0
 42
0.0
 10
347.656854249492369
 20
837.6568542494924259
 40
0.0
 41
0.0
 42
0.0
 10
348.6517568984203876
 20
836.4445618641568672
 40
0.0
 41
0.0
 42
0.0
 10
349.3910362600902886
 20
835.061467458920788
 40
0.0
 41
0.0
 42
0.0
 10
349.8462822432258577
 20
833.5607225761290238
 40
0.0
 41
0.0
 42
0.0
 10
350.0
 20
832.0
 40
0.0
 41
0.0
 42
0.0
 10
350.0
 20
768.0
 40
0.0
 41
0.0
 42
0.0
 10
350.0
 20
768.0
 40
0.0
 41
0.0
 42
0.0
 10
349.8462822432258577
 20
766.4392774238709762
 40
0.0
 41
0.0
 42
0.0
 10
349.3910362600902886
 20
764.938532541079212
 40
0.0
 41
0.0
 42
0.0
 10
348.6517568984203876
 20
763.5554381358431328
 40
0.0
 41
0.0
 42
0.0
 10
347.656854249492369
 20
762.3431457505075741
 40
0.0
 41
0.0
 42
0.0
 10
346.4445618641568103
 20
761.3482431015795555
 40
0.0
 41
0.0
 42
0.0
 10
345.0614674589207311
 20
760.6089637399097683
 40
0.0
 41
0.0
 42
0.0
 10
343.5607225761290238
 20
760.1537177567740855
 40
0.0
 41
0.0
 42
0.0
 10
342.0
 20
760.0
 40
0.0
 41
0.0
 42
0.0
 10
278.0
 20
760.0
 40
0.0
 41
0.0
 42
0.0
 10
278.0
 20
760.0
 40
0.0
 41
0.0
 42
0.0
 10
276.4392774238709762
 20
760.1537177567740855
 40
0.0
 41
0.0
 42
0.0
 10
274.9385325410792689
 20
760.6089637399097683
 40
0.0
 41
0.0
 42
0.0
 10
273.5554381358431897
 20
761.3482431015795555
 40
0.0
 41
0.0
 42
0.0
 10
272.343145750507631
 20
762.3431457505075741
 40
0.0
 41
0.0
 42
0.0
 10
271.3482431015796124
 20
763.5554381358431328
 40
0.0
 41
0.0
 42
0.0
 10
270.6089637399097114
 20
764.938532541079212
 40
0.0
 41
0.0
 42
0.0
 10
270.1537177567741423
 20
766.4392774238709762
 40
0.0
 41
0.0
 42
0.0
 10
270.0
 20
768.0
 40
0.0
 41
0.0
 42
0.0
 10
270.0
 20
832.0
 40
0.0
 41
0.0
 42
0.0
 10
270.0
 20
832.0
 40
0.0
 41
0.0
 42
0.0
 10
270.1537177567741423
 20
833.5607225761290238
 40
0.0
 41
0.0
 42
0.0
 10
270.6089637399097114
 20
835.061467458920788
 40
0.0
 41
0.0
 42
0.0
 10
271.3482431015796124
 20
836.4445618641568672
 40
0.0
 41
0.0
 42
0.0
 10
272.343145750507631
 20
837.6568542494924259
 40
0.0
 41
0.0
 42
0.0
 10
273.5554381358431897
 20
838.6517568984204445
 40
0.0
 41
0.0
 42
0.0
 10
274.9385325410792689
 20
839.3910362600902317
 40
0.0
 41
0.0
 42
0.0
 10
276.4392774238709762
 20
839.8462822432259145
 40
0.0
 41
0.0
 42
0.0
 10
278.0
 20
840.0
 40
0.0
 41
0.0
 42
0.0
  0
TEXT
  5
2F
330
F
100
AcDbEntity
  8
0
  6
ByLayer
420
16777215
 48
1.0
 60
0
370
-1
100
AcDbText
 39
0.0
 10
296.0
 20
796.5
 30
0.0
 40
14.0
  1
0.25
 50
0.0
 41
1.0
 51
0.0
  7
Standard
 71
0
 72
0
 11
0.0
 21
0.0
 31
0.0
210
0.0
220
0.0
230
1.0
100
AcDbText
 73
0
  0
HATCH
  5
30
330
F
100
AcDbEntity
  8
0
  6
ByLayer
420
6953882
 48
1.0
 60
0
370
-1
100
AcDbHatch
 30
0.0
210
0.0
220
0.0
230
1.0
  2
SOLID
 70
1
 71
0
 91
1
 92
2
 72
0
 73
1
 93
41
 10
368.0
 20
840.0
 10
432.0
 20
840.0
 10
432.0
 20
840.0
 10
433.5607225761290238
 20
839.8462822432259145
 10
435.0614674589207311
 20
839.3910362600902317
 10
436.4445618641568103
 20
838.6517568984204445
 10
437.656854249492369
 20
837.6568542494924259
 10
438.6517568984203876
 20
836.4445618641568672
 10
439.3910362600902886
 20
835.061467458920788
 10
439.8462822432258577
 20
833.5607225761290238
 10
440.0
 20
832.0
 10
440.0
 20
768.0
 10
440.0
 20
768.0
 10
439.8462822432258577
 20
766.4392774238709762
 10
439.3910362600902886
 20
764.938532541079212
 10
438.6517568984203876
 20
763.5554381358431328
 10
437.656854249492369
 20
762.3431457505075741
 10
436.4445618641568103
 20
761.3482431015795555
 10
435.0614674589207311
 20
760.6089637399097683
 10
433.5607225761290238
 20
760.1537177567740855
 10
432.0
 20
760.0
 10
368.0
 20
760.0
 10
368.0
 20
760.0
 10
366.4392774238709762
 20
760.1537177567740855
 10
364.9385325410792689
 20
760.6089637399097683
 10
363.5554381358431897
 20
761.3482431015795555
 10
362.343145750507631
 20
762.3431457505075741
 10
361.3482431015796124
 20
763.5554381358431328
 10
360.6089637399097114
 20
764.938532541079212
 10
360.1537177567741423
 20
766.4392774238709762
 10
360.0
 20
768.0
 10
360.0
 20
832.0
 10
360.0
 20
832.0
 10
360.1537177567741423
 20
833.5607225761290238
 10
360.6089637399097114
 20
835.061467458920788
 10
361.3482431015796124
 20
836.4445618641568672
 10
362.343145750507631
 20
837.6568542494924259
 10
363.5554381358431897
 20
838.6517568984204445
 10
364.9385325410792689
 20
839.3910362600902317
 10
366.4392774238709762
 20
839.8462822432259145
 10
368.0
 20
840.0
 97
0
 75
0
 76
1
 47
0.0
 98
0
  0
LWPOLYLINE
  5
31
330
F
100
AcDbEntity
  8
0
  6
ByLayer
420
6953882
 48
1.0
 60
0
370
-1
100
AcDbPolyline
 90
41
 70
1
 43
0.0
 38
0.0
 39
0.0
210
0.0
220
0.0
230
1.0
 10
368.0
 20
840.0
 40
0.0
 41
0.0
 42
0.0
 10
432.0
 20
840.0
 40
0.0
 41
0.0
 42
0.0
 10
432.0
 20
840.0
 40
0.0
 41
0.0
 42
0.0
 10
433.5607225761290238
 20
839.8462822432259145
 40
0.0
 41
0.0
 42
0.0
 10
435.0614674589207311
 20
839.3910362600902317
 40
0.0
 41
0.0
 42
0.0
 10
436.4445618641568103
 20
838.6517568984204445
 40
0.0
 41
0.0
 42
0.0
 10
437.656854249492369
 20
837.6568542494924259
 40
0.0
 41
0.0
 42
0.0
 10
438.6517568984203876
 20
836.4445618641568672
 40
0.0
 41
0.0
 42
0.0
 10
439.3910362600902886
 20
835.061467458920788
 40
0.0
 41
0.0
 42
0.0
 10
439.8462822432258577
 20
833.5607225761290238
 40
0.0
 41
0.0
 42
0.0
 10
440.0
 20
832.0
 40
0.0
 41
0.0
 42
0.0
 10
440.0
 20
768.0
 40
0.0
 41
0.0
 42
0.0
 10
440.0
 20
768.0
 40
0.0
 41
0.0
 42
0.0
 10
439.8462822432258577
 20
766.4392774238709762
 40
0.0
 41
0.0
 42
0.0
 10
439.3910362600902886
 20
764.938532541079212
 40
0.0
 41
0.0
 42
0.0
 10
438.6517568984203876
 20
763.5554381358431328
 40
0.0
 41
0.0
 42
0.0
 10
437.656854249492369
 20
762.3431457505075741
 40
0.0
 41
0.0
 42
0.0
 10
436.4445618641568103
 20
761.3482431015795555
 40
0.0
 41
0.0
 42
0.0
 10
435.0614674589207311
 20
760.6089637399097683
 40
0.0
 41
0.0
 42
0.0
 10
433.5607225761290238
 20
760.1537177567740855
 40
0.0
 41
0.0
 42
0.0
 10
432.0
 20
760.0
 40
0.0
 41
0.0
 42
0.0
 10
368.0
 20
760.0
 40
0.0
 41
0.0
 42
0.0
 10
368.0
 20
760.0
 40
0.0
 41
0.0
 42
0.0
 10
366.4392774238709762
 20
760.1537177567740855
 40
0.0
 41
0.0
 42
0.0
 10
364.9385325410792689
 20
760.6089637399097683
 40
0.0
 41
0.0
 42
0.0
 10
363.5554381358431897
 20
761.3482431015795555
 40
0.0
 41
0.0
 42
0.0
 10
362.343145750507631
 20
762.3431457505075741
 40
0.0
 41
0.0
 42
0.0
 10
361.3482431015796124
 20
763.5554381358431328
 40
0.0
 41
0.0
 42
0.0
 10
360.6089637399097114
 20
764.938532541079212
 40
0.0
 41
0.0
 42
0.0
 10
360.1537177567741423
 20
766.4392774238709762
 40
0.0
 41
0.0
 42
0.0
 10
360.0
 20
768.0
 40
0.0
 41
0.0
 42
0.0
 10
360.0
 20
832.0
 40
0.0
 41
0.0
 42
0.0
 10
360.0
 20
832.0
 40
0.0
 41
0.0
 42
0.0
 10
360.1537177567741423
 20
833.5607225761290238
 40
0.0
 41
0.0
 42
0.0
 10
360.6089637399097114
 20
835.061467458920788
 40
0.0
 41
0.0
 42
0.0
 10
361.3482431015796124
 20
836.4445618641568672
 40
0.0
 41
0.0
 42
0.0
 10
362.343145750507631
 20
837.6568542494924259
 40
0.0
 41
0.0
 42
0.0
 10
363.5554381358431897
 20
838.6517568984204445
 40
0.0
 41
0.0
 42
0.0
 10
364.9385325410792689
 20
839.3910362600902317
 40
0.0
 41
0.0
 42
0.0
 10
366.4392774238709762
 20
839.8462822432259145
 40
0.0
 41
0.0
 42
0.0
 10
368.0
 20
840.0
 40
0.0
 41
0.0
 42
0.0
  0
TEXT
  5
32
330
F
100
AcDbEntity
  8
0
  6
ByLayer
420
16777215
 48
1.0
 60
0
370
-1
100
AcDbText
 39
0.0
 10
390.0
 20
796.5
 30
0.0
 40
14.0
  1
0.1
 50
0.0
 41
1.0
 51
0.0
  7
Standard
 71
0
 72
0
 11
0.0
 21
0.0
 31
0.0
210
0.0
220
0.0
230
1.0
100
AcDbText
 73
0
  0
TEXT
  5
33
330
F
100
AcDbEntity
  8
0
  6
ByLayer
420
0
 48
1.0
 60
0
370
-1
100
AcDbText
 39
0.0
 10
0.0
 20
730.5
 30
0.0
 40
18.0
  1
Isolation: Isolate
 50
0.0
 41
1.0
 51
0.0
  7
Standard
 71
0
 72
0
 11
0.0
 21
0.0
 31
0.0
210
0.0
220
0.0
230
1.0
100
AcDbText
 73
0
  0
HATCH
  5
34
330
F
100
AcDbEntity
  8
0
  6
ByLayer
420
16775620
 48
1.0
 60
0
370
-1
100
AcDbHatch
 30
0.0
210
0.0
220
0.0
230
1.0
  2
SOLID
 70
1
 71
0
 91
1
 92
2
 72
0
 73
1
 93
4
 10
0.0
 20
712.0
 10
200.0
 20
712.0
 10
200.0
 20
592.0
 10
0.0
 20
592.0
 97
0
 75
0
 76
1
 47
0.0
 98
0
  0
LWPOLYLINE
  5
35
330
F
100
AcDbEntity
  8
0
  6
ByLayer
420
16361509
 48
1.0
 60
0
370
-1
100
AcDbPolyline
 90
4
 70
1
 43
0.0
 38
0.0
 39
0.0
210
0.0
220
0.0
230
1.0
 10
0.0
 20
712.0
 40
0.0
 41
0.0
 42
0.0
 10
200.0
 20
712.0
 40
0.0
 41
0.0
 42
0.0
 10
200.0
 20
592.0
 40
0.0
 41
0.0
 42
0.0
 10
0.0
 20
592.0
 40
0.0
 41
0.0
 42
0.0
  0
HATCH
  5
36
330
F
100
AcDbEntity
  8
0
  6
ByLayer
420
4367861
 48
1.0
 60
0
370
-1
100
AcDbHatch
 30
0.0
210
0.0
220
0.0
230
1.0
  2
SOLID
 70
1
 71
0
 91
1
 92
2
 72
0
 73
1
 93
4
 10
32.0
 20
680.0
 10
112.0
 20
680.0
 10
112.0
 20
600.0
 10
32.0
 20
600.0
 97
0
 75
0
 76
1
 47
0.0
 98
0
  0
LWPOLYLINE
  5
37
330
F
100
AcDbEntity
  8
0
  6
ByLayer
420
4367861
 48
1.0
 60
0
370
-1
100
AcDbPolyline
 90
4
 70
1
 43
0.0
 38
0.0
 39
0.0
210
0.0
220
0.0
230
1.0
 10
32.0
 20
680.0
 40
0.0
 41
0.0
 42
0.0
 10
112.0
 20
680.0
 40
0.0
 41
0.0
 42
0.0
 10
112.0
 20
600.0
 40
0.0
 41
0.0
 42
0.0
 10
32.0
 20
600.0
 40
0.0
 41
0.0
 42
0.0
  0
TEXT
  5
38
330
F
100
AcDbEntity
  8
0
  6
ByLayer
420
0
 48
1.0
 60
0
370
-1
100
AcDbText
 39
0.0
 10
32.0
 20
667.5
 30
0.0
 40
16.0
  1
B (z:1)
 50
0.0
 41
1.0
 51
0.0
  7
Standard
 71
0
 72
0
 11
0.0
 21
0.0
 31
0.0
210
0.0
220
0.0
230
1.0
100
AcDbText
 73
0
  0
HATCH
  5
39
330
F
100
AcDbEntity
  8
0
  6
ByLayer
420
15684432
 48
1.0
 60
0
370
-1
100
AcDbHatch
 30
0.0
210
0.0
220
0.0
230
1.0
  2
SOLID
 70
1
 71
0
 91
1
 92
2
 72
0
 73
1
 93
4
 10
12.0
 20
700.0
 10
92.0
 20
700.0
 10
92.0
 20
620.0
 10
12.0
 20
620.0
 97
0
 75
0
 76
1
 47
0.0
 98
0
  0
LWPOLYLINE
  5
3A
330
F
100
AcDbEntity
  8
0
  6
ByLayer
420
15684432
 48
1.0
 60
0
370
-1
100
AcDbPolyline
 90
4
 70
1
 43
0.0
 38
0.0
 39
0.0
210
0.0
220
0.0
230
1.0
 10
12.0
 20
700.0
 40
0.0
 41
0.0
 42
0.0
 10
92.0
 20
700.0
 40
0.0
 41
0.0
 42
0.0
 10
92.0
 20
620.0
 40
0.0
 41
0.0
 42
0.0
 10
12.0
 20
620.0
 40
0.0
 41
0.0
 42
0.0
  0
TEXT
  5
3B
330
F
100
AcDbEntity
  8
0
  6
ByLayer
420
0
 48
1.0
 60
0
370
-1
100
AcDbText
 39
0.0
 10
12.0
 20
687.5
 30
0.0
 40
16.0
  1
A (z:2)
 50
0.0
 41
1.0
 51
0.0
  7
Standard
 71
0
 72
0
 11
0.0
 21
0.0
 31
0.0
210
0.0
220
0.0
230
1.0
100
AcDbText
 73
0
  0
TEXT
  5
3C
330
F
100
AcDbEntity
  8
0
  6
ByLayer
420
0
 48
1.0
 60
0
370
-1
100
AcDbText
 39
0.0
 10
0.0
 20
562.5
 30
0.0
 40
18.0
  1
Mix-Blend-Mode
 50
0.0
 41
1.0
 51
0.0
  7
Standard
 71
0
 72
0
 11
0.0
 21
0.0
 31
0.0
210
0.0
220
0.0
230
1.0
100
AcDbText
 73
0
  0
HATCH
  5
3D
330
F
100
AcDbEntity
  8
0
  6
ByLayer
420
16772275
 48
1.0
 60
0
370
-1
100
AcDbHatch
 30
0.0
210
0.0
220
0.0
230
1.0
  2
SOLID
 70
1
 71
0
 91
1
 92
2
 72
0
 73
1
 93
4
 10
0.0
 20
544.0
 10
200.0
 20
544.0
 10
200.0
 20
424.0
 10
0.0
 20
424.0
 97
0
 75
0
 76
1
 47
0.0
 98
0
  0
LWPOLYLINE
  5
3E
330
F
100
AcDbEntity
  8
0
  6
ByLayer
420
16772275
 48
1.0
 60
0
370
-1
100
AcDbPolyline
 90
4
 70
1
 43
0.0
 38
0.0
 39
0.0
210
0.0
220
0.0
230
1.0
 10
0.0
 20
544.0
 40
0.0
 41
0.0
 42
0.0
 10
200.0
 20
544.0
 40
0.0
 41
0.0
 42
0.0
 10
200.0
 20
424.0
 40
0.0
 41
0.0
 42
0.0
 10
0.0
 20
424.0
 40
0.0
 41
0.0
 42
0.0
  0
HATCH
  5
3F
330
F
100
AcDbEntity
  8
0
  6
ByLayer
420
15022389
 48
1.0
 60
0
370
-1
100
AcDbHatch
 30
0.0
210
0.0
220
0.0
230
1.0
  2
SOLID
 70
1
 71
0
 91
1
 92
2
 72
0
 73
1
 93
4
 10
20.0
 20
524.0
 10
120.0
 20
524.0
 10
120.0
 20
444.0
 10
20.0
 20
444.0
 97
0
 75
0
 76
1
 47
0.0
 98
0
  0
LWPOLYLINE
  5
40
330
F
100
AcDbEntity
  8
0
  6
ByLayer
420
15022389
 48
1.0
 60
0
370
-1
100
AcDbPolyline
 90
4
 70
1
 43
0.0
 38
0.0
 39
0.0
210
0.0
220
0.0
230
1.0
 10
20.0
 20
524.0
 40
0.0
 41
0.0
 42
0.0
 10
120.0
 20
524.0
 40
0.0
 41
0.0
 42
0.0
 10
120.0
 20
444.0
 40
0.0
 41
0.0
 42
0.0
 10
20.0
 20
444.0
 40
0.0
 41
0.0
 42
0.0
  0
TEXT
  5
41
330
F
100
AcDbEntity
  8
0
  6
ByLayer
420
0
 48
1.0
 60
0
370
-1
100
AcDbText
 39
0.0
 10
20.0
 20
511.5
 30
0.0
 40
16.0
  1
Multiply
 50
0.0
 41
1.0
 51
0.0
  7
Standard
 71
0
 72
0
 11
0.0
 21
0.0
 31
0.0
210
0.0
220
0.0
230
1.0
100
AcDbText
 73
0
  0
TEXT
  5
42
330
F
100
AcDbEntity
  8
0
  6
ByLayer
420
0
 48
1.0
 60
0
370
-1
100
AcDbText
 39
0.0
 10
0.0
 20
394.5
 30
0.0
 40
18.0
  1
Will-Change
 50
0.0
 41
1.0
 51
0.0
  7
Standard
 71
0
 72
0
 11
0.0
 21
0.0
 31
0.0
210
0.0
220
0.0
230
1.0
100
AcDbText
 73
0
  0
HATCH
  5
43
330
F
100
AcDbEntity
  8
0
  6
ByLayer
420
35195
 48
1.0
 60
0
370
-1
100
AcDbHatch
 30
0.0
210
0.0
220
0.0
230
1.0
  2
SOLID
 70
1
 71
0
 91
1
 92
2
 72
0
 73
1
 93
4
 10
0.0
 20
376.0
 10
100.0
 20
376.0
 10
100.0
 20
276.0
 10
0.0
 20
276.0
 97
0
 75
0
 76
1
 47
0.0
 98
0
  0
LWPOLYLINE
  5
44
330
F
100
AcDbEntity
  8
0
  6
ByLayer
420
35195
 48
1.0
 60
0
370
-1
100
AcDbPolyline
 90
4
 70
1
 43
0.0
 38
0.0
 39
0.0
210
0.0
220
0.0
230
1.0
 10
0.0
 20
376.0
 40
0.0
 41
0.0
 42
0.0
 10
100.0
 20
376.0
 40
0.0
 41
0.0
 42
0.0
 10
100.0
 20
276.0
 40
0.0
 41
0.0
 42
0.0
 10
0.0
 20
276.0
 40
0.0
 41
0.0
 42
0.0
  0
TEXT
  5
45
330
F
100
AcDbEntity
  8
0
  6
ByLayer
420
16777215
 48
1.0
 60
0
370
-1
100
AcDbText
 39
0.0
 10
6.0
 20
322.0
 30
0.0
 40
16.0
  1
will-change
 50
0.0
 41
1.0
 51
0.0
  7
Standard
 71
0
 72
0
 11
0.0
 21
0.0
 31
0.0
210
0.0
220
0.0
230
1.0
100
AcDbText
 73
0
  0
TEXT
  5
46
330
F
100
AcDbEntity
  8
0
  6
ByLayer
420
0
 48
1.0
 60
0
370
-1
100
AcDbText
 39
0.0
 10
0.0
 20
246.5
 30
0.0
 40
18.0
  1
Filter
 50
0.0
 41
1.0
 51
0.0
  7
Standard
 71
0
 72
0
 11
0.0
 21
0.0
 31
0.0
210
0.0
220
0.0
230
1.0
100
AcDbText
 73
0
  0
HATCH
  5
47
330
F
100
AcDbEntity
  8
0
  6
ByLayer
420
6174129
 48
1.0
 60
0
370
-1
100
AcDbHatch
 30
0.0
210
0.0
220
0.0
230
1.0
  2
SOLID
 70
1
 71
0
 91
1
 92
2
 72
0
 73
1
 93
41
 10
8.0
 20
228.0
 10
112.0
 20
228.0
 10
112.0
 20
228.0
 10
113.5607225761290238
 20
227.8462822432258008
 10
115.0614674589207169
 20
227.3910362600903454
 10
116.4445618641568245
 20
226.6517568984203308
 10
117.6568542494923832
 20
225.6568542494924259
 10
118.6517568984203592
 20
224.4445618641568672
 10
119.3910362600902886
 20
223.0614674589206743
 10
119.8462822432258434
 20
221.5607225761290238
 10
120.0
 20
220.0
 10
120.0
 20
156.0
 10
120.0
 20
156.0
 10
119.8462822432258434
 20
154.4392774238709762
 10
119.3910362600902886
 20
152.9385325410793257
 10
118.6517568984203592
 20
151.5554381358431328
 10
117.6568542494923832
 20
150.3431457505075741
 10
116.4445618641568245
 20
149.3482431015796692
 10
115.0614674589207169
 20
148.6089637399096546
 10
113.5607225761290238
 20
148.1537177567741992
 10
112.0
 20
148.0
 10
8.0
 20
148.0
 10
8.0
 20
148.0
 10
6.4392774238709745
 20
148.1537177567741992
 10
4.9385325410792822
 20
148.6089637399096546
 10
3.5554381358431844
 20
149.3482431015796692
 10
2.3431457505076203
 20
150.3431457505075741
 10
1.3482431015796372
 20
151.5554381358431328
 10
0.6089637399097061
 20
152.9385325410793257
 10
0.1537177567741566
 20
154.4392774238709762
 10
0.0
 20
156.0
 10
0.0
 20
220.0
 10
0.0
 20
220.0
 10
0.1537177567741566
 20
221.5607225761290238
 10
0.6089637399097052
 20
223.0614674589206743
 10
1.3482431015796363
 20
224.4445618641568672
 10
2.3431457505076185
 20
225.6568542494924259
 10
3.5554381358431826
 20
226.6517568984203308
 10
4.9385325410792777
 20
227.3910362600903454
 10
6.4392774238709709
 20
227.8462822432258008
 10
7.9999999999999982
 20
228.0
 97
0
 75
0
 76
1
 47
0.0
 98
0
  0
LWPOLYLINE
  5
48
330
F
100
AcDbEntity
  8
0
  6
ByLayer
420
6174129
 48
1.0
 60
0
370
-1
100
AcDbPolyline
 90
41
 70
1
 43
0.0
 38
0.0
 39
0.0
210
0.0
220
0.0
230
1.0
 10
8.0
 20
228.0
 40
0.0
 41
0.0
 42
0.0
 10
112.0
 20
228.0
 40
0.0
 41
0.0
 42
0.0
 10
112.0
 20
228.0
 40
0.0
 41
0.0
 42
0.0
 10
113.5607225761290238
 20
227.8462822432258008
 40
0.0
 41
0.0
 42
0.0
 10
115.0614674589207169
 20
227.3910362600903454
 40
0.0
 41
0.0
 42
0.0
 10
116.4445618641568245
 20
226.6517568984203308
 40
0.0
 41
0.0
 42
0.0
 10
117.6568542494923832
 20
225.6568542494924259
 40
0.0
 41
0.0
 42
0.0
 10
118.6517568984203592
 20
224.4445618641568672
 40
0.0
 41
0.0
 42
0.0
 10
119.3910362600902886
 20
223.0614674589206743
 40
0.0
 41
0.0
 42
0.0
 10
119.8462822432258434
 20
221.5607225761290238
 40
0.0
 41
0.0
 42
0.0
 10
120.0
 20
220.0
 40
0.0
 41
0.0
 42
0.0
 10
120.0
 20
156.0
 40
0.0
 41
0.0
 42
0.0
 10
120.0
 20
156.0
 40
0.0
 41
0.0
 42
0.0
 10
119.8462822432258434
 20
154.4392774238709762
 40
0.0
 41
0.0
 42
0.0
 10
119.3910362600902886
 20
152.9385325410793257
 40
0.0
 41
0.0
 42
0.0
 10
118.6517568984203592
 20
151.5554381358431328
 40
0.0
 41
0.0
 42
0.0
 10
117.6568542494923832
 20
150.3431457505075741
 40
0.0
 41
0.0
 42
0.0
 10
116.4445618641568245
 20
149.3482431015796692
 40
0.0
 41
0.0
 42
0.0
 10
115.0614674589207169
 20
148.6089637399096546
 40
0.0
 41
0.0
 42
0.0
 10
113.5607225761290238
 20
148.1537177567741992
 40
0.0
 41
0.0
 42
0.0
 10
112.0
 20
148.0
 40
0.0
 41
0.0
 42
0.0
 10
8.0
 20
148.0
 40
0.0
 41
0.0
 42
0.0
 10
8.0
 20
148.0
 40
0.0
 41
0.0
 42
0.0
 10
6.4392774238709745
 20
148.1537177567741992
 40
0.0
 41
0.0
 42
0.0
 10
4.9385325410792822
 20
148.6089637399096546
 40
0.0
 41
0.0
 42
0.0
 10
3.5554381358431844
 20
149.3482431015796692
 40
0.0
 41
0.0
 42
0.0
 10
2.3431457505076203
 20
150.3431457505075741
 40
0.0
 41
0.0
 42
0.0
 10
1.3482431015796372
 20
151.5554381358431328
 40
0.0
 41
0.0
 42
0.0
 10
0.6089637399097061
 20
152.9385325410793257
 40
0.0
 41
0.0
 42
0.0
 10
0.1537177567741566
 20
154.4392774238709762
 40
0.0
 41
0.0
 42
0.0
 10
0.0
 20
156.0
 40
0.0
 41
0.0
 42
0.0
 10
0.0
 20
220.0
 40
0.0
 41
0.0
 42
0.0
 10
0.0
 20
220.0
 40
0.0
 41
0.0
 42
0.0
 10
0.1537177567741566
 20
221.5607225761290238
 40
0.0
 41
0.0
 42
0.0
 10
0.6089637399097052
 20
223.0614674589206743
 40
0.0
 41
0.0
 42
0.0
 10
1.3482431015796363
 20
224.4445618641568672
 40
0.0
 41
0.0
 42
0.0
 10
2.3431457505076185
 20
225.6568542494924259
 40
0.0
 41
0.0
 42
0.0
 10
3.5554381358431826
 20
226.6517568984203308
 40
0.0
 41
0.0
 42
0.0
 10
4.9385325410792777
 20
227.3910362600903454
 40
0.0
 41
0.0
 42
0.0
 10
6.4392774238709709
 20
227.8462822432258008
 40
0.0
 41
0.0
 42
0.0
 10
7.9999999999999982
 20
228.0
 40
0.0
 41
0.0
 42
0.0
  0
TEXT
  5
49
330
F
100
AcDbEntity
  8
0
  6
ByLayer
420
16777215
 48
1.0
 60
0
370
-1
100
AcDbText
 39
0.0
 10
33.0
 20
184.0
 30
0.0
 40
16.0
  1
filtered
 50
0.0
 41
1.0
 51
0.0
  7
Standard
 71
0
 72
0
 11
0.0
 21
0.0
 31
0.0
210
0.0
220
0.0
230
1.0
100
AcDbText
 73
0
  0
TEXT
  5
4A
330
F
100
AcDbEntity
  8
0
  6
ByLayer
420
0
 48
1.0
 60
0
370
-1
100
AcDbText
 39
0.0
 10
0.0
 20
118.5
 30
0.0
 40
18.0
  1
Contain: Paint
 50
0.0
 41
1.0
 51
0.0
  7
Standard
 71
0
 72
0
 11
0.0
 21
0.0
 31
0.0
210
0.0
220
0.0
230
1.0
100
AcDbText
 73
0
  0
HATCH
  5
4B
330
F
100
AcDbEntity
  8
0
  6
ByLayer
420
161725
 48
1.0
 60
0
370
-1
100
AcDbHatch
 30
0.0
210
0.0
220
0.0
230
1.0
  2
SOLID
 70
1
 71
0
 91
1
 92
2
 72
0
 73
1
 93
4
 10
0.0
 20
100.0
 10
150.0
 20
100.0
 10
150.0
 20
0.0
 10
0.0
 20
0.0
 97
0
 75
0
 76
1
 47
0.0
 98
0
  0
LWPOLYLINE
  5
4C
330
F
100
AcDbEntity
  8
0
  6
ByLayer
420
161725
 48
1.0
 60
0
370
-1
100
AcDbPolyline
 90
4
 70
1
 43
0.0
 38
0.0
 39
0.0
210
0.0
220
0.0
230
1.0
 10
0.0
 20
100.0
 40
0.0
 41
0.0
 42
0.0
 10
150.0
 20
100.0
 40
0.0
 41
0.0
 42
0.0
 10
150.0
 20
0.0
 40
0.0
 41
0.0
 42
0.0
 10
0.0
 20
0.0
 40
0.0
 41
0.0
 42
0.0
  0
TEXT
  5
4D
330
F
100
AcDbEntity
  8
0
  6
ByLayer
420
16777215
 48
1.0
 60
0
370
-1
100
AcDbText
 39
0.0
 10
10.0
 20
77.5
 30
0.0
 40
16.0
  1
contain:paint
 50
0.0
 41
1.0
 51
0.0
  7
Standard
 71
0
 72
0
 11
0.0
 21
0.0
 31
0.0
210
0.0
220
0.0
230
1.0
100
AcDbText
 73
0
  0
HATCH
  5
4E
330
F
100
AcDbEntity
  8
0
  6
ByLayer
420
16007990
 48
1.0
 60
0
370
-1
100
AcDbHatch
 30
0.0
210
0.0
220
0.0
230
1.0
  2
SOLID
 70
1
 71
0
 91
1
 92
2
 72
0
 73
1
 93
4
 10
-10.0
 20
110.0
 10
40.0
 20
110.0
 10
40.0
 20
60.0
 10
-10.0
 20
60.0
 97
0
 75
0
 76
1
 47
0.0
 98
0
  0
LWPOLYLINE
  5
4F
330
F
100
AcDbEntity
  8
0
  6
ByLayer
420
16007990
 48
1.0
 60
0
370
-1
100
AcDbPolyline
 90
4
 70
1
 43
0.0
 38
0.0
 39
0.0
210
0.0
220
0.0
230
1.0
 10
-10.0
 20
110.0
 40
0.0
 41
0.0
 42
0.0
 10
40.0
 20
110.0
 40
0.0
 41
0.0
 42
0.0
 10
40.0
 20
60.0
 40
0.0
 41
0.0
 42
0.0
 10
-10.0
 20
60.0
 40
0.0
 41
0.0
 42
0.0
  0
ENDSEC
  0
SECTION
  2
OBJECTS
  0
DICTIONARY
  5
1
330
0
100
AcDbDictionary
280
0
281
0
  3
ACAD_COLOR
350
0
  3
ACAD_GROUP
350
0
  3
ACAD_LAYOUT
350
0
  3
ACAD_MATERIAL
350
0
  3
ACAD_SORTENTS
350
0
  3
ACAD_MLEADERSTYLE
350
0
  3
ACAD_MLINESTYLE
350
0
  3
ACAD_TABLESTYLE
350
0
  3
ACAD_PLOTSETTINGS
350
0
  3
AcDbVariableDictionary
350
0
  3
ACAD_SCALELIST
350
0
  3
ACAD_VISUALSTYLE
350
0
  3
ACAD_FIELDLIST
350
0
  3
ACAD_IMAGE_DICT
350
0
  0
DICTIONARY
  5
0
330
1
100
AcDbDictionary
280
0
281
0
  0
DICTIONARY
  5
0
330
1
100
AcDbDictionary
280
0
281
0
  0
DICTIONARY
  5
0
330
1
100
AcDbDictionary
280
0
281
0
  0
DICTIONARY
  5
0
330
1
100
AcDbDictionary
280
0
281
0
  0
DICTIONARY
  5
0
330
1
100
AcDbDictionary
280
0
281
0
  0
DICTIONARY
  5
0
330
1
100
AcDbDictionary
280
0
281
0
  0
DICTIONARY
  5
0
330
1
100
AcDbDictionary
280
0
281
0
  0
DICTIONARY
  5
0
330
1
100
AcDbDictionary
280
0
281
0
  0
DICTIONARY
  5
0
330
1
100
AcDbDictionary
280
0
281
0
  0
DICTIONARY
  5
0
330
1
100
AcDbDictionary
280
0
281
0
  0
DICTIONARY
  5
0
330
1
100
AcDbDictionary
280
0
281
0
  0
DICTIONARY
  5
0
330
1
100
AcDbDictionary
280
0
281
0
  0
DICTIONARY
  5
0
330
1
100
AcDbDictionary
280
0
281
0
  0
DICTIONARY
  5
0
330
1
100
AcDbDictionary
280
0
281
0
  0
ENDSEC
  0
EOF
