0
SECTION
2
HEADER
9
$ACADVER
1
AC1021
9
$LASTSAVEDBY
1
@tarikjabiri/dxf
9
$HANDSEED
5
4A
9
$INSUNITS
70
0
9
$CLAYER
8
0
9
$VIEWCTR
10
590
20
622
0
ENDSEC
0
SECTION
2
CLASSES
0
ENDSEC
0
SECTION
2
TABLES
0
TABLE
2
VPORT
5
1
330
0
100
AcDbSymbolTable
70
1
0
VPORT
5
19
330
1
100
AcDbSymbolTableRecord
100
AcDbViewportTableRecord
2
*Active
70
0
10
0
20
0
11
1
21
1
12
590
22
622
13
0
23
0
14
10
24
10
15
10
25
10
16
0
26
0
36
1
17
0
27
0
37
0
40
1234
41
2
42
50
43
0
44
0
50
0
51
0
71
0
72
100
73
1
74
3
75
0
76
1
77
0
78
0
281
0
65
1
110
0
120
0
130
0
111
1
121
0
131
0
112
0
122
1
132
0
79
0
146
0
348
10020
60
7
61
5
292
1
282
1
141
0
142
0
63
250
421
3358443
0
ENDTAB
0
TABLE
2
LTYPE
5
2
330
0
100
AcDbSymbolTable
70
3
0
LTYPE
5
12
330
2
100
AcDbSymbolTableRecord
100
AcDbLinetypeTableRecord
2
ByBlock
70
0
3

72
65
73
0
40
0
0
LTYPE
5
13
330
2
100
AcDbSymbolTableRecord
100
AcDbLinetypeTableRecord
2
ByLayer
70
0
3

72
65
73
0
40
0
0
LTYPE
5
14
330
2
100
AcDbSymbolTableRecord
100
AcDbLinetypeTableRecord
2
Continuous
70
0
3
Solid line
72
65
73
0
40
0
0
ENDTAB
0
TABLE
2
LAYER
5
3
330
0
100
AcDbSymbolTable
70
1
0
LAYER
5
15
330
3
100
AcDbSymbolTableRecord
100
AcDbLayerTableRecord
2
0
70
0
62
7
6
Continuous
370
0
390
0
0
ENDTAB
0
TABLE
2
STYLE
5
4
330
0
100
AcDbSymbolTable
70
1
0
STYLE
5
16
330
4
100
AcDbSymbolTableRecord
100
AcDbTextStyleTableRecord
2
Standard
70
0
40
0
41
1
50
0
71
0
42
1
3
txt
4

0
ENDTAB
0
TABLE
2
VIEW
5
5
330
0
100
AcDbSymbolTable
70
0
0
ENDTAB
0
TABLE
2
UCS
5
6
330
0
100
AcDbSymbolTable
70
0
0
ENDTAB
0
TABLE
2
APPID
5
7
330
0
100
AcDbSymbolTable
70
1
0
APPID
5
17
330
7
100
AcDbSymbolTableRecord
100
AcDbRegAppTableRecord
2
ACAD
70
0
0
ENDTAB
0
TABLE
2
DIMSTYLE
5
8
330
0
100
AcDbSymbolTable
70
1
100
AcDbDimStyleTable
0
DIMSTYLE
105
18
330
8
100
AcDbSymbolTableRecord
100
AcDbDimStyleTableRecord
2
Standard
70
0
340
16
0
ENDTAB
0
TABLE
2
BLOCK_RECORD
5
9
330
0
100
AcDbSymbolTable
70
2
0
BLOCK_RECORD
5
C
330
9
100
AcDbSymbolTableRecord
100
AcDbBlockTableRecord
2
*Model_Space
70
0
280
1
281
0
0
BLOCK_RECORD
5
F
330
9
100
AcDbSymbolTableRecord
100
AcDbBlockTableRecord
2
*Paper_Space
70
0
280
1
281
0
0
ENDTAB
0
ENDSEC
0
SECTION
2
BLOCKS
0
BLOCK
5
D
330
C
100
AcDbEntity
8
0
100
AcDbBlockBegin
2
*Model_Space
70
0
10
0
20
0
30
0
3
*Model_Space
1

0
ENDBLK
5
E
100
AcDbEntity
8
0
100
AcDbBlockEnd
0
BLOCK
5
10
330
F
100
AcDbEntity
8
0
100
AcDbBlockBegin
2
*Paper_Space
70
0
10
0
20
0
30
0
3
*Paper_Space
1

0
ENDBLK
5
11
100
AcDbEntity
8
0
100
AcDbBlockEnd
0
ENDSEC
0
SECTION
2
ENTITIES
0
LWPOLYLINE
5
1A
330
C
100
AcDbEntity
420
#000000
8
0
100
AcDbPolyline
90
5
70
0
43
0
38
0
39
0
10
20
20
1159
10
1260
20
1159
10
1260
20
32
10
20
20
32
10
20
20
1159
0
LWPOLYLINE
5
1B
330
C
100
AcDbEntity
420
#000000
8
0
100
AcDbPolyline
90
5
70
0
43
0
38
0
39
0
10
20
20
1159
10
1260
20
1159
10
1260
20
1138
10
20
20
1138
10
20
20
1159
0
TEXT
5
1C
330
C
100
AcDbEntity
420
#000000
8
0
100
AcDbText
10
20
20
1139
30
0
40
20
1
Z-Index Stacking
7
STANDARD
100
AcDbText
0
LWPOLYLINE
5
1D
330
C
100
AcDbEntity
420
#000000
8
0
100
AcDbPolyline
90
5
70
0
43
0
38
0
39
0
10
20
20
1123
10
320
20
1123
10
320
20
923
10
20
20
923
10
20
20
1123
0
LWPOLYLINE
5
1E
330
C
100
AcDbEntity
420
#000000
8
0
100
AcDbPolyline
90
5
70
0
43
0
38
0
39
0
10
20
20
1123
10
170
20
1123
10
170
20
973
10
20
20
973
10
20
20
1123
0
TEXT
5
1F
330
C
100
AcDbEntity
420
#e53935
8
0
100
AcDbText
10
20
20
1106
30
0
40
17
1
z:1
7
STANDARD
100
AcDbText
0
LWPOLYLINE
5
20
330
C
100
AcDbEntity
420
#000000
8
0
100
AcDbPolyline
90
5
70
0
43
0
38
0
39
0
10
50
20
1093
10
200
20
1093
10
200
20
943
10
50
20
943
10
50
20
1093
0
TEXT
5
21
330
C
100
AcDbEntity
420
#43a047
8
0
100
AcDbText
10
50
20
1076
30
0
40
17
1
z:2
7
STANDARD
100
AcDbText
0
LWPOLYLINE
5
22
330
C
100
AcDbEntity
420
#000000
8
0
100
AcDbPolyline
90
5
70
0
43
0
38
0
39
0
10
80
20
1063
10
230
20
1063
10
230
20
913
10
80
20
913
10
80
20
1063
0
TEXT
5
23
330
C
100
AcDbEntity
420
#1e88e5
8
0
100
AcDbText
10
80
20
1046
30
0
40
17
1
z:3
7
STANDARD
100
AcDbText
0
LWPOLYLINE
5
24
330
C
100
AcDbEntity
420
#000000
8
0
100
AcDbPolyline
90
5
70
0
43
0
38
0
39
0
10
20
20
908
10
1260
20
908
10
1260
20
887
10
20
20
887
10
20
20
908
0
TEXT
5
25
330
C
100
AcDbEntity
420
#000000
8
0
100
AcDbText
10
20
20
888
30
0
40
20
1
Opacity Levels
7
STANDARD
100
AcDbText
0
LWPOLYLINE
5
26
330
C
100
AcDbEntity
420
#000000
8
0
100
AcDbPolyline
90
5
70
0
43
0
38
0
39
0
10
20
20
872
10
1260
20
872
10
1260
20
792
10
20
20
792
10
20
20
872
0
LWPOLYLINE
5
27
330
C
100
AcDbEntity
420
#ffffff
8
0
100
AcDbPolyline
90
5
70
0
43
0
38
0
39
0
10
20
20
872
10
100
20
872
10
100
20
792
10
20
20
792
10
20
20
872
0
TEXT
5
28
330
C
100
AcDbEntity
420
#6a1b9a
8
0
100
AcDbText
10
50.265625
20
824
30
0
40
16
1
1.0
7
STANDARD
100
AcDbText
0
LWPOLYLINE
5
29
330
C
100
AcDbEntity
420
#ffffff
8
0
100
AcDbPolyline
90
5
70
0
43
0
38
0
39
0
10
110
20
872
10
190
20
872
10
190
20
792
10
110
20
792
10
110
20
872
0
TEXT
5
2A
330
C
100
AcDbEntity
420
#6a1b9a
8
0
100
AcDbText
10
136.375
20
824
30
0
40
16
1
0.75
7
STANDARD
100
AcDbText
0
LWPOLYLINE
5
2B
330
C
100
AcDbEntity
420
#ffffff
8
0
100
AcDbPolyline
90
5
70
0
43
0
38
0
39
0
10
200
20
872
10
280
20
872
10
280
20
792
10
200
20
792
10
200
20
872
0
TEXT
5
2C
330
C
100
AcDbEntity
420
#6a1b9a
8
0
100
AcDbText
10
230.265625
20
824
30
0
40
16
1
0.5
7
STANDARD
100
AcDbText
0
LWPOLYLINE
5
2D
330
C
100
AcDbEntity
420
#ffffff
8
0
100
AcDbPolyline
90
5
70
0
43
0
38
0
39
0
10
290
20
872
10
370
20
872
10
370
20
792
10
290
20
792
10
290
20
872
0
TEXT
5
2E
330
C
100
AcDbEntity
420
#6a1b9a
8
0
100
AcDbText
10
316.375
20
824
30
0
40
16
1
0.25
7
STANDARD
100
AcDbText
0
LWPOLYLINE
5
2F
330
C
100
AcDbEntity
420
#ffffff
8
0
100
AcDbPolyline
90
5
70
0
43
0
38
0
39
0
10
380
20
872
10
460
20
872
10
460
20
792
10
380
20
792
10
380
20
872
0
TEXT
5
30
330
C
100
AcDbEntity
420
#6a1b9a
8
0
100
AcDbText
10
410.265625
20
824
30
0
40
16
1
0.1
7
STANDARD
100
AcDbText
0
LWPOLYLINE
5
31
330
C
100
AcDbEntity
420
#000000
8
0
100
AcDbPolyline
90
5
70
0
43
0
38
0
39
0
10
20
20
777
10
1260
20
777
10
1260
20
756
10
20
20
756
10
20
20
777
0
TEXT
5
32
330
C
100
AcDbEntity
420
#000000
8
0
100
AcDbText
10
20
20
757
30
0
40
20
1
Isolation: Isolate
7
STANDARD
100
AcDbText
0
LWPOLYLINE
5
33
330
C
100
AcDbEntity
420
#f9a825
8
0
100
AcDbPolyline
90
5
70
0
43
0
38
0
39
0
10
20
20
744
10
220
20
744
10
220
20
624
10
20
20
624
10
20
20
744
0
LWPOLYLINE
5
34
330
C
100
AcDbEntity
420
#000000
8
0
100
AcDbPolyline
90
5
70
0
43
0
38
0
39
0
10
52
20
712
10
132
20
712
10
132
20
632
10
52
20
632
10
52
20
712
0
TEXT
5
35
330
C
100
AcDbEntity
420
#42a5f5
8
0
100
AcDbText
10
52
20
695
30
0
40
17
1
B (z:1)
7
STANDARD
100
AcDbText
0
LWPOLYLINE
5
36
330
C
100
AcDbEntity
420
#000000
8
0
100
AcDbPolyline
90
5
70
0
43
0
38
0
39
0
10
32
20
732
10
112
20
732
10
112
20
652
10
32
20
652
10
32
20
732
0
TEXT
5
37
330
C
100
AcDbEntity
420
#ef5350
8
0
100
AcDbText
10
32
20
715
30
0
40
17
1
A (z:2)
7
STANDARD
100
AcDbText
0
LWPOLYLINE
5
38
330
C
100
AcDbEntity
420
#000000
8
0
100
AcDbPolyline
90
5
70
0
43
0
38
0
39
0
10
20
20
609
10
1260
20
609
10
1260
20
588
10
20
20
588
10
20
20
609
0
TEXT
5
39
330
C
100
AcDbEntity
420
#000000
8
0
100
AcDbText
10
20
20
589
30
0
40
20
1
Mix-Blend-Mode
7
STANDARD
100
AcDbText
0
LWPOLYLINE
5
3A
330
C
100
AcDbEntity
420
#000000
8
0
100
AcDbPolyline
90
5
70
0
43
0
38
0
39
0
10
20
20
576
10
220
20
576
10
220
20
456
10
20
20
456
10
20
20
576
0
LWPOLYLINE
5
3B
330
C
100
AcDbEntity
420
#000000
8
0
100
AcDbPolyline
90
5
70
0
43
0
38
0
39
0
10
40
20
556
10
140
20
556
10
140
20
476
10
40
20
476
10
40
20
556
0
TEXT
5
3C
330
C
100
AcDbEntity
420
#e53935
8
0
100
AcDbText
10
40
20
539
30
0
40
17
1
Multiply
7
STANDARD
100
AcDbText
0
LWPOLYLINE
5
3D
330
C
100
AcDbEntity
420
#000000
8
0
100
AcDbPolyline
90
5
70
0
43
0
38
0
39
0
10
20
20
441
10
1260
20
441
10
1260
20
420
10
20
20
420
10
20
20
441
0
TEXT
5
3E
330
C
100
AcDbEntity
420
#000000
8
0
100
AcDbText
10
20
20
421
30
0
40
20
1
Will-Change
7
STANDARD
100
AcDbText
0
LWPOLYLINE
5
3F
330
C
100
AcDbEntity
420
#ffffff
8
0
100
AcDbPolyline
90
5
70
0
43
0
38
0
39
0
10
20
20
408
10
120
20
408
10
120
20
308
10
20
20
308
10
20
20
408
0
TEXT
5
40
330
C
100
AcDbEntity
420
#00897b
8
0
100
AcDbText
10
26.4375
20
350
30
0
40
17
1
will-change
7
STANDARD
100
AcDbText
0
LWPOLYLINE
5
41
330
C
100
AcDbEntity
420
#000000
8
0
100
AcDbPolyline
90
5
70
0
43
0
38
0
39
0
10
20
20
293
10
1260
20
293
10
1260
20
272
10
20
20
272
10
20
20
293
0
TEXT
5
42
330
C
100
AcDbEntity
420
#000000
8
0
100
AcDbText
10
20
20
273
30
0
40
20
1
Filter
7
STANDARD
100
AcDbText
0
LWPOLYLINE
5
43
330
C
100
AcDbEntity
420
#ffffff
8
0
100
AcDbPolyline
90
5
70
0
43
0
38
0
39
0
10
20
20
260
10
140
20
260
10
140
20
180
10
20
20
180
10
20
20
260
0
TEXT
5
44
330
C
100
AcDbEntity
420
#5e35b1
8
0
100
AcDbText
10
53.328125
20
212
30
0
40
17
1
filtered
7
STANDARD
100
AcDbText
0
LWPOLYLINE
5
45
330
C
100
AcDbEntity
420
#000000
8
0
100
AcDbPolyline
90
5
70
0
43
0
38
0
39
0
10
20
20
165
10
1260
20
165
10
1260
20
144
10
20
20
144
10
20
20
165
0
TEXT
5
46
330
C
100
AcDbEntity
420
#000000
8
0
100
AcDbText
10
20
20
145
30
0
40
20
1
Contain: Paint
7
STANDARD
100
AcDbText
0
LWPOLYLINE
5
47
330
C
100
AcDbEntity
420
#ffffff
8
0
100
AcDbPolyline
90
5
70
0
43
0
38
0
39
0
10
20
20
132
10
170
20
132
10
170
20
32
10
20
20
32
10
20
20
132
0
TEXT
5
48
330
C
100
AcDbEntity
420
#0277bd
8
0
100
AcDbText
10
30
20
105
30
0
40
17
1

      contain:paint
    
7
STANDARD
100
AcDbText
0
LWPOLYLINE
5
49
330
C
100
AcDbEntity
420
#ffffff
8
0
100
AcDbPolyline
90
5
70
0
43
0
38
0
39
0
10
10
20
142
10
60
20
142
10
60
20
92
10
10
20
92
10
10
20
142
0
ENDSEC
0
SECTION
2
OBJECTS
0
DICTIONARY
5
A
330
0
100
AcDbDictionary
281
1
3
ACAD_GROUP
350
B
0
DICTIONARY
5
B
330
A
100
AcDbDictionary
281
0
0
ENDSEC
0
EOF