0
SECTION
2
HEADER
9
$ACADVER
1
AC1021
9
$LASTSAVEDBY
1
@tarikjabiri/dxf
9
$HANDSEED
5
1B
9
$INSUNITS
70
0
9
$CLAYER
8
0
9
$VIEWCTR
10
236.50660705566406
20
569.2390403747559
0
ENDSEC
0
SECTION
2
CLASSES
0
ENDSEC
0
SECTION
2
TABLES
0
TABLE
2
VPORT
5
1
330
0
100
AcDbSymbolTable
70
1
0
VPORT
5
19
330
1
100
AcDbSymbolTableRecord
100
AcDbViewportTableRecord
2
*Active
70
0
10
0
20
0
11
1
21
1
12
236.50660705566406
22
569.2390403747559
13
0
23
0
14
10
24
10
15
10
25
10
16
0
26
0
36
1
17
0
27
0
37
0
40
108.47811126708984
41
2
42
50
43
0
44
0
50
0
51
0
71
0
72
100
73
1
74
3
75
0
76
1
77
0
78
0
281
0
65
1
110
0
120
0
130
0
111
1
121
0
131
0
112
0
122
1
132
0
79
0
146
0
348
10020
60
7
61
5
292
1
282
1
141
0
142
0
63
250
421
3358443
0
ENDTAB
0
TABLE
2
LTYPE
5
2
330
0
100
AcDbSymbolTable
70
3
0
LTYPE
5
12
330
2
100
AcDbSymbolTableRecord
100
AcDbLinetypeTableRecord
2
ByBlock
70
0
3

72
65
73
0
40
0
0
LTYPE
5
13
330
2
100
AcDbSymbolTableRecord
100
AcDbLinetypeTableRecord
2
ByLayer
70
0
3

72
65
73
0
40
0
0
LTYPE
5
14
330
2
100
AcDbSymbolTableRecord
100
AcDbLinetypeTableRecord
2
Continuous
70
0
3
Solid line
72
65
73
0
40
0
0
ENDTAB
0
TABLE
2
LAYER
5
3
330
0
100
AcDbSymbolTable
70
1
0
LAYER
5
15
330
3
100
AcDbSymbolTableRecord
100
AcDbLayerTableRecord
2
0
70
0
62
7
6
Continuous
370
0
390
0
0
ENDTAB
0
TABLE
2
STYLE
5
4
330
0
100
AcDbSymbolTable
70
1
0
STYLE
5
16
330
4
100
AcDbSymbolTableRecord
100
AcDbTextStyleTableRecord
2
Standard
70
0
40
0
41
1
50
0
71
0
42
1
3
txt
4

0
ENDTAB
0
TABLE
2
VIEW
5
5
330
0
100
AcDbSymbolTable
70
0
0
ENDTAB
0
TABLE
2
UCS
5
6
330
0
100
AcDbSymbolTable
70
0
0
ENDTAB
0
TABLE
2
APPID
5
7
330
0
100
AcDbSymbolTable
70
1
0
APPID
5
17
330
7
100
AcDbSymbolTableRecord
100
AcDbRegAppTableRecord
2
ACAD
70
0
0
ENDTAB
0
TABLE
2
DIMSTYLE
5
8
330
0
100
AcDbSymbolTable
70
1
100
AcDbDimStyleTable
0
DIMSTYLE
105
18
330
8
100
AcDbSymbolTableRecord
100
AcDbDimStyleTableRecord
2
Standard
70
0
340
16
0
ENDTAB
0
TABLE
2
BLOCK_RECORD
5
9
330
0
100
AcDbSymbolTable
70
2
0
BLOCK_RECORD
5
C
330
9
100
AcDbSymbolTableRecord
100
AcDbBlockTableRecord
2
*Model_Space
70
0
280
1
281
0
0
BLOCK_RECORD
5
F
330
9
100
AcDbSymbolTableRecord
100
AcDbBlockTableRecord
2
*Paper_Space
70
0
280
1
281
0
0
ENDTAB
0
ENDSEC
0
SECTION
2
BLOCKS
0
BLOCK
5
D
330
C
100
AcDbEntity
8
0
100
AcDbBlockBegin
2
*Model_Space
70
0
10
0
20
0
30
0
3
*Model_Space
1

0
ENDBLK
5
E
100
AcDbEntity
8
0
100
AcDbBlockEnd
0
BLOCK
5
10
330
F
100
AcDbEntity
8
0
100
AcDbBlockBegin
2
*Paper_Space
70
0
10
0
20
0
30
0
3
*Paper_Space
1

0
ENDBLK
5
11
100
AcDbEntity
8
0
100
AcDbBlockEnd
0
ENDSEC
0
SECTION
2
ENTITIES
0
LWPOLYLINE
5
1A
330
C
100
AcDbEntity
420
16711680
8
0
100
AcDbPolyline
90
412
70
0
43
0
38
0
39
0
10
103
20
623
10
104.99993896484375
20
623
10
106.99989318847656
20
623
10
108.99983215332031
20
623
10
110.99977111816406
20
623
10
112.99971008300781
20
623
10
114.99966430664062
20
623
10
116.99960327148438
20
623
10
118.99954223632812
20
623
10
120.99948120117188
20
623
10
122.99943542480469
20
623
10
124.99937438964844
20
623
10
126.99931335449219
20
623
10
128.999267578125
20
623
10
130.99920654296875
20
623
10
132.9991455078125
20
623
10
134.99908447265625
20
623
10
136.99903869628906
20
623
10
138.9989776611328
20
623
10
140.99891662597656
20
623
10
142.99887084960938
20
623
10
144.99880981445312
20
623
10
146.99874877929688
20
623
10
148.99868774414062
20
623
10
150.99862670898438
20
623
10
152.9985809326172
20
623
10
154.99851989746094
20
623
10
156.9984588623047
20
623
10
158.9984130859375
20
623
10
160.99835205078125
20
623
10
162.998291015625
20
623
10
164.99822998046875
20
623
10
166.99818420410156
20
623
10
168.9981231689453
20
623
10
170.99807739257812
20
623
10
172.99801635742188
20
623
10
174.99795532226562
20
623
10
176.99789428710938
20
623
10
178.99784088134766
20
623
10
180.9977798461914
20
623
10
182.9977264404297
20
623
10
184.99766540527344
20
623
10
186.99761199951172
20
623
10
188.99755096435547
20
623
10
190.99749755859375
20
623
10
192.99744415283203
20
623
10
194.99738311767578
20
623
10
196.99732971191406
20
623
10
198.9972686767578
20
623
10
200.9972152709961
20
623
10
202.99715423583984
20
623
10
204.99710083007812
20
623
10
206.99703979492188
20
623
10
208.99698638916016
20
623
10
210.9969253540039
20
623
10
212.9968719482422
20
623
10
214.99681854248047
20
623
10
216.99675750732422
20
623
10
218.9967041015625
20
623
10
220.99664306640625
20
623
10
222.99658203125
20
623
10
224.99652099609375
20
623
10
226.99647521972656
20
623
10
228.9964141845703
20
623
10
230.99636840820312
20
623
10
232.99630737304688
20
623
10
234.99624633789062
20
623
10
236.99618530273438
20
623
10
238.9961395263672
20
623
10
240.99607849121094
20
623
10
242.9960174560547
20
623
10
244.99595642089844
20
623
10
246.99591064453125
20
623
10
248.995849609375
20
623
10
250.99578857421875
20
623
10
252.9957275390625
20
623
10
254.9956817626953
20
623
10
256.99562072753906
20
623
10
258.9955596923828
20
623
10
260.9955139160156
20
623
10
262.9954528808594
20
623
10
264.9953918457031
20
623
10
266.9953308105469
20
623
10
268.9952850341797
20
623
10
270.99522399902344
20
623
10
272.9951629638672
20
623
10
274.99510192871094
20
623
10
276.99505615234375
20
623
10
278.9949951171875
20
623
10
280.99493408203125
20
623
10
282.99488830566406
20
623
10
284.9948272705078
20
623
10
286.99476623535156
20
623
10
288.9947052001953
20
623
10
290.9946594238281
20
623
10
292.9945983886719
20
623
10
294.9945373535156
20
623
10
296.9944763183594
20
623
10
298.9944305419922
20
623
10
300.99436950683594
20
623
10
302.9943084716797
20
623
10
304.9942626953125
20
623
10
306.99420166015625
20
623
10
308.994140625
20
623
10
310.99407958984375
20
623
10
312.99403381347656
20
623
10
314.9939727783203
20
623
10
316.99391174316406
20
623
10
318.9938507080078
20
623
10
320.9938049316406
20
623
10
322.9937438964844
20
623
10
324.9936828613281
20
623
10
326.99363708496094
20
623
10
328.9935760498047
20
623
10
330.99351501464844
20
623
10
332.9934539794922
20
623
10
334.993408203125
20
623
10
336.99334716796875
20
623
10
338.9932861328125
20
623
10
340.99322509765625
20
623
10
342.99317932128906
20
623
10
344.9931182861328
20
623
10
346.99305725097656
20
623
10
348.9930114746094
20
623
10
350.9929504394531
20
623
10
352.9928894042969
20
623
10
354.9521484375
20
623.3907833099365
10
356.9482116699219
20
623.4780960083008
10
358.9337158203125
20
623.255859375
10
360.8613586425781
20
622.7304668426514
10
362.6859130859375
20
621.916187286377
10
364.3648376464844
20
620.8331108093262
10
365.85833740234375
20
619.505989074707
10
367.1299743652344
20
617.9649600982666
10
368.14813232421875
20
616.2459564208984
10
368.8896484375
20
614.3906745910645
10
369.3409729003906
20
612.4442901611328
10
369.48907470703125
20
610.4518661499023
10
369.3276062011719
20
608.4604530334473
10
368.8609619140625
20
606.5177898406982
10
368.1021423339844
20
604.6695003509521
10
367.07012939453125
20
602.9587249755859
10
365.7887878417969
20
601.4257335662842
10
364.2872314453125
20
600.1077346801758
10
362.60009765625
20
599.0375022888184
10
360.76812744140625
20
598.2402648925781
10
358.80499267578125
20
597.9999961853027
10
356.8050537109375
20
597.9999961853027
10
354.80511474609375
20
597.9999961853027
10
352.80517578125
20
597.9999961853027
10
350.80523681640625
20
597.9999961853027
10
348.8052673339844
20
597.9999961853027
10
346.8053283691406
20
597.9999961853027
10
344.8053894042969
20
597.9999961853027
10
342.8054504394531
20
597.9999961853027
10
340.8055114746094
20
597.9999961853027
10
338.8055725097656
20
597.9999961853027
10
336.8056335449219
20
597.9999961853027
10
334.8056640625
20
597.9999961853027
10
332.80572509765625
20
597.9999961853027
10
330.8057861328125
20
598
10
328.80584716796875
20
598
10
326.805908203125
20
598
10
324.80596923828125
20
598
10
322.8060302734375
20
598
10
320.80609130859375
20
598
10
318.8061218261719
20
598
10
316.8061828613281
20
598
10
314.8062438964844
20
598
10
312.8063049316406
20
598
10
310.8063659667969
20
598
10
308.8071746826172
20
597.9893569946289
10
306.8387908935547
20
597.6549339294434
10
304.97686767578125
20
596.9341316223145
10
303.2951965332031
20
595.8577613830566
10
301.8591766357422
20
594.4705543518066
10
300.725830078125
20
592.8267631530762
10
299.9425811767578
20
590.9902687072754
10
299.5414733886719
20
589.0343818664551
10
299.53314208984375
20
587.037727355957
10
299.9208068847656
20
585.0791244506836
10
300.6917266845703
20
583.2373733520508
10
301.81288146972656
20
581.5852203369141
10
303.2380828857422
20
580.1868782043457
10
304.91175842285156
20
579.0982398986816
10
306.7688293457031
20
578.3650856018066
10
308.7348327636719
20
578.0167541503906
10
310.7342224121094
20
578
10
312.73419189453125
20
578
10
314.734130859375
20
578
10
316.73406982421875
20
578
10
318.7340087890625
20
578
10
320.73394775390625
20
578
10
322.73388671875
20
578
10
324.73382568359375
20
578
10
326.7337951660156
20
578
10
328.7337341308594
20
578
10
330.7336730957031
20
578
10
332.7336120605469
20
578
10
334.7335510253906
20
578
10
336.7334899902344
20
578
10
338.7334289550781
20
578
10
340.7333984375
20
578
10
342.73333740234375
20
578
10
344.7332763671875
20
578
10
346.73321533203125
20
578
10
348.733154296875
20
578
10
350.73309326171875
20
578
10
352.7330322265625
20
578
10
354.73297119140625
20
578
10
356.7329406738281
20
578
10
358.7328796386719
20
578
10
360.7304992675781
20
578.0258102416992
10
362.6979064941406
20
577.685676574707
10
364.55841064453125
20
576.9610748291016
10
366.2391052246094
20
575.883186340332
10
367.6750183105469
20
574.4958343505859
10
368.80908203125
20
572.8525238037109
10
369.59381103515625
20
571.0166282653809
10
369.99884033203125
20
569.0614738464355
10
370.0132141113281
20
567.0648345947266
10
369.6315612792969
20
565.1050796508789
10
368.86785888671875
20
563.2602920532227
10
367.75518798828125
20
561.6024169921875
10
366.338134765625
20
560.1957473754883
10
364.6712951660156
20
559.0966110229492
10
362.8192443847656
20
558.3508224487305
10
360.8554382324219
20
558.0000076293945
10
358.8554992675781
20
558.0000076293945
10
356.8555603027344
20
558.0000076293945
10
354.8556213378906
20
558.0000076293945
10
352.8556823730469
20
558.0000076293945
10
350.855712890625
20
558.0000076293945
10
348.85577392578125
20
558.0000076293945
10
346.8558349609375
20
558.0000076293945
10
344.85589599609375
20
558.0000076293945
10
342.85595703125
20
558.0000076293945
10
340.85601806640625
20
558.0000076293945
10
338.8560791015625
20
558.0000076293945
10
336.8561096191406
20
558.0000076293945
10
334.8561706542969
20
558
10
332.8562316894531
20
558
10
330.8562927246094
20
558
10
328.8563537597656
20
558
10
326.8564147949219
20
558
10
324.8564758300781
20
558
10
322.85650634765625
20
558
10
320.8565673828125
20
558
10
318.85662841796875
20
558
10
316.856689453125
20
558
10
314.85675048828125
20
558
10
312.8568115234375
20
558
10
310.8592071533203
20
558.0257568359375
10
308.86883544921875
20
558.188720703125
10
306.88304138183594
20
557.977409362793
10
304.9718475341797
20
557.3982696533203
10
303.2015838623047
20
556.474006652832
10
301.63279724121094
20
555.238151550293
10
300.3206481933594
20
553.7327880859375
10
299.31285095214844
20
552.0087661743164
10
298.64532470703125
20
550.1265869140625
10
298.33648681640625
20
548.1535263061523
10
298.3991394042969
20
546.1575469970703
10
298.83448791503906
20
544.2086181640625
10
299.6254119873047
20
542.3749008178711
10
300.74229431152344
20
540.7193450927734
10
302.1463928222656
20
539.2992782592773
10
303.7904815673828
20
538.1657180786133
10
305.6177673339844
20
537.3600616455078
10
307.57049560546875
20
537
10
309.5704345703125
20
537
10
311.57037353515625
20
537
10
313.57037353515625
20
537
10
315.5703125
20
537
10
317.57025146484375
20
537
10
319.5701904296875
20
537
10
321.57012939453125
20
537
10
323.570068359375
20
537
10
325.57000732421875
20
537
10
327.5699462890625
20
537
10
329.56988525390625
20
537
10
331.56982421875
20
537
10
333.56976318359375
20
537
10
335.5697021484375
20
537
10
337.56964111328125
20
537
10
339.569580078125
20
537
10
341.56951904296875
20
537
10
343.56951904296875
20
537
10
345.5694580078125
20
537
10
347.56939697265625
20
537
10
349.5693359375
20
537
10
351.56927490234375
20
537
10
353.5692138671875
20
537
10
355.56915283203125
20
537
10
357.5688171386719
20
536.9855422973633
10
359.5460510253906
20
536.7038497924805
10
361.4391174316406
20
536.0674896240234
10
363.1850280761719
20
535.0977096557617
10
364.72723388671875
20
533.8287582397461
10
366.0161437988281
20
532.303108215332
10
367.00860595703125
20
530.5699996948242
10
367.6698303222656
20
528.6854553222656
10
367.9773254394531
20
526.7120971679688
10
367.9257507324219
20
524.7154693603516
10
367.51531982421875
20
522.7609634399414
10
366.7559509277344
20
520.9138031005859
10
365.6742858886719
20
519.2349166870117
10
364.3078918457031
20
517.7782592773438
10
362.7017517089844
20
516.591194152832
10
360.9074401855469
20
515.7142333984375
10
358.9835205078125
20
515.1784057617188
10
356.99432373046875
20
514.9999847412109
10
354.994384765625
20
514.9999847412109
10
352.99444580078125
20
514.9999847412109
10
350.9945068359375
20
514.9999847412109
10
348.99456787109375
20
514.9999847412109
10
346.99456787109375
20
514.9999847412109
10
344.99462890625
20
514.9999847412109
10
342.99468994140625
20
514.9999847412109
10
340.9947509765625
20
514.9999847412109
10
338.99481201171875
20
514.9999847412109
10
336.994873046875
20
514.9999847412109
10
334.99493408203125
20
514.9999847412109
10
332.9949951171875
20
514.9999847412109
10
330.99505615234375
20
514.9999847412109
10
328.9951171875
20
514.9999847412109
10
326.99517822265625
20
514.9999847412109
10
324.9952392578125
20
514.9999847412109
10
322.99530029296875
20
514.9999847412109
10
320.995361328125
20
514.9999847412109
10
318.99542236328125
20
514.9999847412109
10
316.99542236328125
20
514.9999847412109
10
314.9954833984375
20
514.9999847412109
10
312.99554443359375
20
514.9999847412109
10
310.99560546875
20
514.9999847412109
10
308.99566650390625
20
514.9999847412109
10
306.9957275390625
20
514.9999847412109
10
304.99578857421875
20
514.9999847412109
10
302.995849609375
20
514.9999847412109
10
300.99591064453125
20
514.9999847412109
10
298.9959716796875
20
514.9999847412109
10
296.99603271484375
20
514.9999847412109
10
294.99609375
20
514.9999847412109
10
292.99615478515625
20
514.9999847412109
10
290.9962158203125
20
514.9999847412109
10
288.9962158203125
20
514.9999847412109
10
286.99627685546875
20
514.9999923706055
10
284.996337890625
20
514.9999923706055
10
282.99639892578125
20
514.9999923706055
10
280.9964599609375
20
514.9999923706055
10
278.99652099609375
20
514.9999923706055
10
276.99658203125
20
514.9999923706055
10
274.99664306640625
20
514.9999923706055
10
272.9967041015625
20
514.9999923706055
10
270.99676513671875
20
514.9999923706055
10
268.996826171875
20
514.9999923706055
10
266.99688720703125
20
514.9999923706055
10
264.9969482421875
20
514.9999923706055
10
262.99700927734375
20
514.9999923706055
10
260.9970703125
20
514.9999923706055
10
258.9970703125
20
514.9999923706055
10
256.99713134765625
20
514.9999923706055
10
254.9971923828125
20
514.9999923706055
10
252.99725341796875
20
514.9999923706055
10
250.997314453125
20
514.9999923706055
10
248.99737548828125
20
514.9999923706055
10
246.9974365234375
20
514.9999923706055
10
244.99749755859375
20
514.9999923706055
10
242.99755859375
20
514.9999923706055
10
240.99761962890625
20
514.9999923706055
10
238.9976806640625
20
514.9999923706055
10
236.99774169921875
20
514.9999923706055
10
234.997802734375
20
514.9999923706055
10
232.99786376953125
20
514.9999923706055
10
230.9979248046875
20
514.9999923706055
10
228.9979248046875
20
514.9999923706055
10
226.99798583984375
20
514.9999923706055
10
224.998046875
20
514.9999923706055
10
222.99810791015625
20
514.9999923706055
10
220.9981689453125
20
514.9999923706055
10
218.99822998046875
20
514.9999923706055
10
216.998291015625
20
514.9999923706055
10
214.99835205078125
20
514.9999923706055
10
212.9984130859375
20
514.9999923706055
10
210.99847412109375
20
514.9999923706055
10
208.99853515625
20
514.9999923706055
10
206.99859619140625
20
514.9999923706055
10
204.9986572265625
20
514.9999923706055
10
202.99871826171875
20
514.9999923706055
10
200.99871826171875
20
514.9999923706055
10
198.998779296875
20
515
10
196.99884033203125
20
515
10
194.9989013671875
20
515
10
192.99896240234375
20
515
10
190.9990234375
20
515
10
188.99908447265625
20
515
10
186.9991455078125
20
515
10
184.99920654296875
20
515
10
182.999267578125
20
515
10
180.99932861328125
20
515
10
178.9993896484375
20
515
10
176.99945068359375
20
515
10
174.99951171875
20
515
10
172.99957275390625
20
515
10
170.99957275390625
20
515
10
168.9996337890625
20
515
10
166.99969482421875
20
515
10
164.999755859375
20
515
10
162.99981689453125
20
515
10
160.9998779296875
20
515
10
158.99993896484375
20
515
10
157
20
515
0
ENDSEC
0
SECTION
2
OBJECTS
0
DICTIONARY
5
A
330
0
100
AcDbDictionary
281
1
3
ACAD_GROUP
350
B
0
DICTIONARY
5
B
330
A
100
AcDbDictionary
281
0
0
ENDSEC
0
EOF