  0
SECTION
  2
HEADER
  9
$ANGBASE
 50
0.0
  9
$ANGDIR
 70
1
  9
$AUNITS
 70
0
  9
$AUPREC
 70
0
  9
$ATTMODE
 70
1
  9
$DWGCODEPAGE
  3
ANSI_1252
  9
$TDCREATE
 40
2461147.019259768538177
  9
$CECOLOR
 62
256
  9
$CELTSCALE
 40
1.0
  9
$CELWEIGHT
370
-1
  9
$CLAYER
  8
0
  9
$CELTYPE
  6
ByLayer
  9
$CMLJUST
 70
0
  9
$CMLSCALE
 40
20.0
  9
$CMLSTYLE
  2
Standard
  9
$DIMSTYLE
  2
Standard
  9
$LWDISPLAY
290
0
  9
$EXTNAMES
290
1
  9
$HANDSEED
  5
8B
  9
$INSUNITS
 70
0
  9
$LUNITS
 70
2
  9
$LUPREC
 70
4
  9
$LTSCALE
 40
1.0
  9
$MIRRTEXT
 70
0
  9
$INSBASE
 10
0.0
 20
0.0
 30
0.0
  9
$SPLINESEGS
 70
8
  9
$PSLTSCALE
 70
1
  9
$PDMODE
 70
0
  9
$PDSIZE
 40
0.0
  9
$PLINEGEN
 70
0
  9
$TEXTSIZE
 40
0.2
  9
$TEXTSTYLE
  7
Standard
  9
$TDINDWG
 40
0.0
  9
$TDUCREATE
 40
2461147.019259768538177
  9
$TDUUPDATE
 40
2461147.019259768538177
  9
$TDUPDATE
 40
2461147.019259768538177
  9
$ACADVER
  1
AC1018
  0
ENDSEC
  0
SECTION
  2
CLASSES
  0
CLASS
  1
ACDBDICTIONARYWDFLT
  2
AcDbDictionaryWithDefault
  3
ObjectDBX Classes
 90
32768
 91
0
280
0
281
0
  0
CLASS
  1
ACDBPLACEHOLDER
  2
AcDbPlaceHolder
  3
ObjectDBX Classes
 90
0
 91
0
280
0
281
0
  0
CLASS
  1
LAYOUT
  2
AcDbLayout
  3
ObjectDBX Classes
 90
0
 91
0
280
0
281
0
  0
CLASS
  1
DICTIONARYVAR
  2
AcDbDictionaryVar
  3
ObjectDBX Classes
 90
0
 91
0
280
0
281
0
  0
CLASS
  1
TABLESTYLE
  2
AcDbTableStyle
  3
ObjectDBX Classes
 90
4095
 91
0
280
0
281
0
  0
CLASS
  1
MATERIAL
  2
AcDbMaterial
  3
ObjectDBX Classes
 90
1153
 91
0
280
0
281
0
  0
CLASS
  1
VISUALSTYLE
  2
AcDbVisualStyle
  3
ObjectDBX Classes
 90
4095
 91
0
280
0
281
0
  0
CLASS
  1
SCALE
  2
AcDbScale
  3
ObjectDBX Classes
 90
1153
 91
0
280
0
281
0
  0
CLASS
  1
MLEADERSTYLE
  2
AcDbMLeaderStyle
  3
ObjectDBX Classes
 90
4095
 91
0
280
0
281
0
  0
CLASS
  1
CELLSTYLEMAP
  2
AcDbCellStyleMap
  3
ObjectDBX Classes
 90
1152
 91
0
280
0
281
0
  0
CLASS
  1
EXACXREFPANELOBJECT
  2
ExAcXREFPanelObject
  3
ObjectDBX Classes
 90
1025
 91
0
280
0
281
0
  0
CLASS
  1
NPOCOLLECTION
  2
AcDbImpNonPersistentObjectsCollection
  3
ObjectDBX Classes
 90
1153
 91
0
280
0
281
0
  0
CLASS
  1
LAYER_INDEX
  2
AcDbLayerIndex
  3
ObjectDBX Classes
 90
0
 91
0
280
0
281
0
  0
CLASS
  1
SPATIAL_INDEX
  2
AcDbSpatialIndex
  3
ObjectDBX Classes
 90
0
 91
0
280
0
281
0
  0
CLASS
  1
IDBUFFER
  2
AcDbIdBuffer
  3
ObjectDBX Classes
 90
32768
 91
0
280
0
281
0
  0
CLASS
  1
ACDBSECTIONVIEWSTYLE
  2
AcDbSectionViewStyle
  3
ObjectDBX Classes
 90
1025
 91
0
280
0
281
0
  0
CLASS
  1
ACDBDETAILVIEWSTYLE
  2
AcDbDetailViewStyle
  3
ObjectDBX Classes
 90
1025
 91
0
280
0
281
0
  0
CLASS
  1
MESH
  2
AcDbSubDMesh
  3
ObjectDBX Classes
 90
0
 91
0
280
0
281
1
  0
CLASS
  1
SORTENTSTABLE
  2
AcDbSortentsTable
  3
ObjectDBX Classes
 90
0
 91
0
280
0
281
0
  0
CLASS
  1
ACDB_TEXTOBJECTCONTEXTDATA_CLASS
  2
AcDbTextObjectContextData
  3
ObjectDBX Classes
 90
1153
 91
0
280
0
281
0
  0
CLASS
  1
WIPEOUT
  2
AcDbWipeout
  3
WipeOut
 90
32895
 91
0
280
0
281
1
  0
CLASS
  1
WIPEOUTVARIABLES
  2
AcDbWipeoutVariables
  3
WipeOut
 90
32768
 91
0
280
0
281
0
  0
CLASS
  1
DIMASSOC
  2
AcDbDimAssoc
  3
AcDbDimAssoc
 90
0
 91
0
280
0
281
0
  0
CLASS
  1
ACAD_TABLE
  2
AcDbTable
  3
ObjectDBX Classes
 90
1025
 91
0
280
0
281
1
  0
CLASS
  1
TABLECONTENT
  2
AcDbTableContent
  3
ObjectDBX Classes
 90
1152
 91
0
280
0
281
0
  0
CLASS
  1
TABLEGEOMETRY
  2
AcDbTableGeometry
  3
ObjectDBX Classes
 90
1152
 91
0
280
0
281
0
  0
CLASS
  1
IMAGE
  2
AcDbRasterImage
  3
ISM
 90
32895
 91
0
280
0
281
1
  0
CLASS
  1
IMAGEDEF
  2
AcDbRasterImageDef
  3
ISM
 90
0
 91
0
280
0
281
0
  0
CLASS
  1
IMAGEDEF_REACTOR
  2
AcDbRasterImageDefReactor
  3
ISM
 90
1
 91
0
280
0
281
0
  0
CLASS
  1
DBCOLOR
  2
AcDbColor
  3
ObjectDBX Classes
 90
0
 91
0
280
0
281
0
  0
CLASS
  1
GEODATA
  2
AcDbGeoData
  3
ObjectDBX Classes
 90
4095
 91
0
280
0
281
0
  0
CLASS
  1
MULTILEADER
  2
AcDbMLeader
  3
ObjectDBX Classes
 90
1025
 91
0
280
0
281
0
  0
CLASS
  1
PDFUNDERLAY
  2
AcDbPdfReference
  3
ObjectDBX Classes
 90
4095
 91
0
280
0
281
1
  0
CLASS
  1
PDFDEFINITION
  2
AcDbPdfDefinition
  3
ObjectDBX Classes
 90
1153
 91
0
280
0
281
0
  0
CLASS
  1
RASTERVARIABLES
  2
AcDbRasterVariables
  3
ISM
 90
0
 91
0
280
0
281
0
  0
CLASS
  1
SPATIAL_FILTER
  2
AcDbSpatialFilter
  3
ObjectDBX Classes
 90
0
 91
0
280
0
281
0
  0
CLASS
  1
ACDB_MLEADEROBJECTCONTEXTDATA_CLASS
  2
AcDbMLeaderObjectContextData
  3
ObjectDBX Classes
 90
1025
 91
0
280
0
281
0
  0
CLASS
  1
PLOTSETTINGS
  2
AcDbPlotSettings
  3
ObjectDBX Classes
 90
0
 91
0
280
0
281
0
  0
CLASS
  1
FIELD
  2
AcDbField
  3
ObjectDBX Classes
 90
1152
 91
0
280
0
281
0
  0
CLASS
  1
FIELDLIST
  2
AcDbFieldList
  3
ObjectDBX Classes
 90
1152
 91
0
280
0
281
0
  0
CLASS
  1
ACDB_MTEXTATTRIBUTEOBJECTCONTEXTDATA_CLASS
  2
AcDbMTextAttributeObjectContextData
  3
ObjectDBX Classes
 90
1153
 91
0
280
0
281
0
  0
CLASS
  1
ACDB_BLKREFOBJECTCONTEXTDATA_CLASS
  2
AcDbBlkRefObjectContextData
  3
ObjectDBX Classes
 90
1153
 91
0
280
0
281
0
  0
ENDSEC
  0
SECTION
  2
TABLES
  0
TABLE
  2
VPORT
  5
18
330
0
100
AcDbSymbolTable
 70
1
  0
VPORT
  5
26
330
18
100
AcDbSymbolTableRecord
100
AcDbViewportTableRecord
  2
*Active
 70
0
 10
0.0
 20
0.0
 11
1.0
 21
1.0
 12
0.0
 22
0.0
 13
0.0
 23
0.0
 14
0.5
 24
0.5
 15
10.0
 25
10.0
 16
0.0
 26
0.0
 36
1.0
 17
0.0
 27
0.0
 37
0.0
 40
10.0
 41
1.0
 75
0
 76
1
  0
ENDTAB
  0
TABLE
  2
LTYPE
  5
14
330
0
100
AcDbSymbolTable
 70
3
  0
LTYPE
  5
19
330
14
100
AcDbSymbolTableRecord
100
AcDbLinetypeTableRecord
  2
ByLayer
 70
0
 72
0
 73
0
 40
0.0
  0
LTYPE
  5
1A
330
14
100
AcDbSymbolTableRecord
100
AcDbLinetypeTableRecord
  2
ByBlock
 70
0
 72
0
 73
0
 40
0.0
  0
LTYPE
  5
1B
330
14
100
AcDbSymbolTableRecord
100
AcDbLinetypeTableRecord
  2
Continuous
 70
0
 72
0
 73
0
 40
0.0
  0
ENDTAB
  0
TABLE
  2
LAYER
  5
13
330
0
100
AcDbSymbolTable
 70
1
  0
LAYER
  5
1C
330
13
100
AcDbSymbolTableRecord
100
AcDbLayerTableRecord
  2
0
 70
0
 62
7
  6
Continuous
290
1
370
-3
390
0
  0
ENDTAB
  0
TABLE
  2
STYLE
  5
15
330
0
100
AcDbSymbolTable
 70
1
  0
STYLE
  5
23
330
15
100
AcDbSymbolTableRecord
100
AcDbTextStyleTableRecord
  2
Standard
 70
0
 40
0.0
 41
1.0
 42
0.0
 50
0.0
 71
0
  0
ENDTAB
  0
TABLE
  2
VIEW
  5
17
330
0
100
AcDbSymbolTable
 70
0
  0
ENDTAB
  0
TABLE
  2
UCS
  5
16
330
0
100
AcDbSymbolTable
 70
0
  0
ENDTAB
  0
TABLE
  2
APPID
  5
10
330
0
100
AcDbSymbolTable
 70
1
  0
APPID
  5
25
330
10
100
AcDbSymbolTableRecord
100
AcDbRegAppTableRecord
  2
ACAD
 70
0
  0
ENDTAB
  0
TABLE
  2
DIMSTYLE
  5
12
330
0
100
AcDbSymbolTable
 70
1
100
AcDbDimStyleTable
  0
DIMSTYLE
105
24
330
12
100
AcDbSymbolTableRecord
100
AcDbDimStyleTableRecord
  2
Standard
 70
0
  3
<>
  4
[]
 40
1.0
 41
0.18
 42
0.625
 43
3.75
 44
1.25
 45
0.0
 46
0.0
 47
0.0
 48
0.0
 49
1.0
 50
45.0
 70
0
 90
0
140
0.18
141
0.09
142
0.0
143
25.3999999999999986
144
1.0
145
0.0
146
1.0
147
0.625
148
0.0
 71
0
 72
0
 73
0
 74
0
 75
0
 76
0
 77
1
 78
8
 79
0
170
0
171
3
172
0
173
1
174
0
175
0
176
0
177
0
178
0
179
0
271
2
272
2
273
2
274
3
275
0
276
0
277
2
278
46
279
0
280
0
281
0
282
0
283
0
284
8
285
0
286
0
287
0
288
0
289
3
290
0
340
0
371
-2
372
-2
  0
ENDTAB
  0
TABLE
  2
BLOCK_RECORD
  5
11
330
0
100
AcDbSymbolTable
 70
2
  0
BLOCK_RECORD
  5
1D
330
11
100
AcDbSymbolTableRecord
100
AcDbBlockTableRecord
  2
*Model_Space
 70
0
340
0
 70
0
280
0
281
1
  0
BLOCK_RECORD
  5
20
330
11
100
AcDbSymbolTableRecord
100
AcDbBlockTableRecord
  2
*Paper_Space
 70
0
340
0
 70
0
280
0
281
1
  0
ENDTAB
  0
ENDSEC
  0
SECTION
  2
BLOCKS
  0
BLOCK
  5
1E
330
1D
100
AcDbEntity
  8
0
  6
ByLayer
 62
256
 48
1.0
 60
0
 67
0
370
-1
100
AcDbBlockBegin
  2
*Model_Space
 70
0
 10
0.0
 20
0.0
 30
0.0
  3
*Model_Space
  0
ENDBLK
  5
1F
330
1D
100
AcDbEntity
  8
0
100
AcDbBlockEnd
  0
BLOCK
  5
21
330
20
100
AcDbEntity
  8
0
  6
ByLayer
 62
256
 48
1.0
 60
0
 67
1
370
-1
100
AcDbBlockBegin
  2
*Paper_Space
 70
0
 10
0.0
 20
0.0
 30
0.0
  3
*Paper_Space
  0
ENDBLK
  5
22
330
20
100
AcDbEntity
  8
0
100
AcDbBlockEnd
  0
ENDSEC
  0
SECTION
  2
ENTITIES
  0
TEXT
  5
27
330
1D
100
AcDbEntity
  8
0
  6
ByLayer
420
0
 48
1.0
 60
0
 67
0
370
-1
100
AcDbText
 39
0.0
 10
0.0
 20
2076.5
 30
0.0
 40
18.0
  1
SVG Markers Demo
 50
0.0
 41
1.0
 51
0.0
  7
Standard
 71
0
 72
0
 11
0.0
 21
0.0
 31
0.0
210
0.0
220
0.0
230
1.0
100
AcDbText
 73
0
  0
TEXT
  5
28
330
1D
100
AcDbEntity
  8
0
  6
ByLayer
420
5592405
 48
1.0
 60
0
 67
0
370
-1
100
AcDbText
 39
0.0
 10
0.0
 20
2042.5
 30
0.0
 40
14.0
  1
1. Inline SVG – Arrow markers on path
 50
0.0
 41
1.0
 51
0.0
  7
Standard
 71
0
 72
0
 11
0.0
 21
0.0
 31
0.0
210
0.0
220
0.0
230
1.0
100
AcDbText
 73
0
  0
LWPOLYLINE
  5
29
330
1D
100
AcDbEntity
  8
0
  6
ByLayer
420
13421772
 48
1.0
 60
0
 67
0
370
-1
100
AcDbPolyline
 90
4
 70
1
 43
0.0
 38
0.0
 39
0.0
210
0.0
220
0.0
230
1.0
 10
0.0
 20
2030.0
 40
0.0
 41
0.0
 42
0.0
 10
300.0
 20
2030.0
 40
0.0
 41
0.0
 42
0.0
 10
300.0
 20
1950.0
 40
0.0
 41
0.0
 42
0.0
 10
0.0
 20
1950.0
 40
0.0
 41
0.0
 42
0.0
  0
LWPOLYLINE
  5
2A
330
1D
100
AcDbEntity
  8
0
  6
ByLayer
420
4620980
 48
1.0
 60
0
 67
0
370
-1
100
AcDbPolyline
 90
2
 70
0
 43
0.0
 38
0.0
 39
0.0
210
0.0
220
0.0
230
1.0
 10
31.0
 20
1989.0
 40
0.0
 41
0.0
 42
0.0
 10
271.0
 20
1989.0
 40
0.0
 41
0.0
 42
0.0
  0
HATCH
  5
2B
330
1D
100
AcDbEntity
  8
0
  6
ByLayer
420
4620980
 48
1.0
 60
0
 67
0
370
-1
100
AcDbHatch
 30
0.0
210
0.0
220
0.0
230
1.0
  2
SOLID
 70
1
 71
0
 91
1
 92
2
 72
0
 73
1
 93
33
 10
43.0
 20
1995.0
 10
42.25
 20
1994.6249988555907748
 10
41.5
 20
1994.2499988555907748
 10
40.7500011444091825
 20
1993.8749988555907748
 10
40.0000005722045913
 20
1993.4999991416930243
 10
39.25
 20
1993.1249988555907748
 10
38.5000005722045913
 20
1992.7499991416930243
 10
37.7500005722045913
 20
1992.3749994277955011
 10
37.0000005722045913
 20
1991.9999994277955011
 10
36.25
 20
1991.6249994277955011
 10
35.5000002861022921
 20
1991.2499995708465121
 10
34.7500005722045913
 20
1990.8749997138977506
 10
34.0000002861022921
 20
1990.4999997138977506
 10
33.249999856948854
 20
1990.1249996423721313
 10
32.5000005722045913
 20
1989.7500000715256192
 10
31.7500002861022921
 20
1989.3750000357626959
 10
31.0
 20
1989.0
 10
31.75
 20
1988.625
 10
32.5000011444091825
 20
1988.2499994277955011
 10
33.25
 20
1987.875
 10
34.0
 20
1987.5
 10
34.7500005722045913
 20
1987.1249997138977506
 10
35.4999994277954087
 20
1986.7500002861022494
 10
36.2500011444091825
 20
1986.3749994277955011
 10
37.0
 20
1986.0
 10
37.7499994277954087
 20
1985.6250002861022494
 10
38.5000005722045913
 20
1985.2499997138977506
 10
39.25
 20
1984.875
 10
39.9999988555908175
 20
1984.5000005722044989
 10
40.75
 20
1984.125
 10
41.5
 20
1983.75
 10
42.2500011444091825
 20
1983.3749994277955011
 10
43.0
 20
1983.0
 97
0
 75
0
 76
1
 47
0.0
 98
0
  0
LWPOLYLINE
  5
2C
330
1D
100
AcDbEntity
  8
0
  6
ByLayer
420
4620980
 48
1.0
 60
0
 67
0
370
-1
100
AcDbPolyline
 90
33
 70
1
 43
0.0
 38
0.0
 39
0.0
210
0.0
220
0.0
230
1.0
 10
43.0
 20
1995.0
 40
0.0
 41
0.0
 42
0.0
 10
42.25
 20
1994.6249988555907748
 40
0.0
 41
0.0
 42
0.0
 10
41.5
 20
1994.2499988555907748
 40
0.0
 41
0.0
 42
0.0
 10
40.7500011444091825
 20
1993.8749988555907748
 40
0.0
 41
0.0
 42
0.0
 10
40.0000005722045913
 20
1993.4999991416930243
 40
0.0
 41
0.0
 42
0.0
 10
39.25
 20
1993.1249988555907748
 40
0.0
 41
0.0
 42
0.0
 10
38.5000005722045913
 20
1992.7499991416930243
 40
0.0
 41
0.0
 42
0.0
 10
37.7500005722045913
 20
1992.3749994277955011
 40
0.0
 41
0.0
 42
0.0
 10
37.0000005722045913
 20
1991.9999994277955011
 40
0.0
 41
0.0
 42
0.0
 10
36.25
 20
1991.6249994277955011
 40
0.0
 41
0.0
 42
0.0
 10
35.5000002861022921
 20
1991.2499995708465121
 40
0.0
 41
0.0
 42
0.0
 10
34.7500005722045913
 20
1990.8749997138977506
 40
0.0
 41
0.0
 42
0.0
 10
34.0000002861022921
 20
1990.4999997138977506
 40
0.0
 41
0.0
 42
0.0
 10
33.249999856948854
 20
1990.1249996423721313
 40
0.0
 41
0.0
 42
0.0
 10
32.5000005722045913
 20
1989.7500000715256192
 40
0.0
 41
0.0
 42
0.0
 10
31.7500002861022921
 20
1989.3750000357626959
 40
0.0
 41
0.0
 42
0.0
 10
31.0
 20
1989.0
 40
0.0
 41
0.0
 42
0.0
 10
31.75
 20
1988.625
 40
0.0
 41
0.0
 42
0.0
 10
32.5000011444091825
 20
1988.2499994277955011
 40
0.0
 41
0.0
 42
0.0
 10
33.25
 20
1987.875
 40
0.0
 41
0.0
 42
0.0
 10
34.0
 20
1987.5
 40
0.0
 41
0.0
 42
0.0
 10
34.7500005722045913
 20
1987.1249997138977506
 40
0.0
 41
0.0
 42
0.0
 10
35.4999994277954087
 20
1986.7500002861022494
 40
0.0
 41
0.0
 42
0.0
 10
36.2500011444091825
 20
1986.3749994277955011
 40
0.0
 41
0.0
 42
0.0
 10
37.0
 20
1986.0
 40
0.0
 41
0.0
 42
0.0
 10
37.7499994277954087
 20
1985.6250002861022494
 40
0.0
 41
0.0
 42
0.0
 10
38.5000005722045913
 20
1985.2499997138977506
 40
0.0
 41
0.0
 42
0.0
 10
39.25
 20
1984.875
 40
0.0
 41
0.0
 42
0.0
 10
39.9999988555908175
 20
1984.5000005722044989
 40
0.0
 41
0.0
 42
0.0
 10
40.75
 20
1984.125
 40
0.0
 41
0.0
 42
0.0
 10
41.5
 20
1983.75
 40
0.0
 41
0.0
 42
0.0
 10
42.2500011444091825
 20
1983.3749994277955011
 40
0.0
 41
0.0
 42
0.0
 10
43.0
 20
1983.0
 40
0.0
 41
0.0
 42
0.0
  0
HATCH
  5
2D
330
1D
100
AcDbEntity
  8
0
  6
ByLayer
420
4620980
 48
1.0
 60
0
 67
0
370
-1
100
AcDbHatch
 30
0.0
210
0.0
220
0.0
230
1.0
  2
SOLID
 70
1
 71
0
 91
1
 92
2
 72
0
 73
1
 93
33
 10
259.0
 20
1995.0
 10
259.75
 20
1994.625
 10
260.5000011444091683
 20
1994.2499994277955011
 10
261.25
 20
1993.875
 10
262.0
 20
1993.5
 10
262.7500005722046126
 20
1993.1249997138977506
 10
263.5
 20
1992.75
 10
264.25
 20
1992.375
 10
265.0
 20
1992.0
 10
265.7500005722046126
 20
1991.6249997138977506
 10
266.5
 20
1991.25
 10
267.25
 20
1990.8750001430512384
 10
268.0
 20
1990.5
 10
268.75
 20
1990.1249998569487616
 10
269.5
 20
1989.7500002145766302
 10
270.25
 20
1989.3750001072883151
 10
271.0
 20
1989.0
 10
270.25
 20
1988.6249988555907748
 10
269.5
 20
1988.2499988555907748
 10
268.7500011444091683
 20
1987.8749988555907748
 10
268.0000005722046126
 20
1987.4999991416930243
 10
267.25
 20
1987.1249988555907748
 10
266.5000011444091683
 20
1986.7499994277955011
 10
265.7499994277953874
 20
1986.3749988555907748
 10
265.0000005722046126
 20
1985.9999994277955011
 10
264.2500011444091683
 20
1985.6249997138977506
 10
263.4999997138976937
 20
1985.2499994277955011
 10
262.7500005722046126
 20
1984.8749997138977506
 10
262.0000011444091683
 20
1984.5
 10
261.2499998569488753
 20
1984.1249994277955011
 10
260.5000005722046126
 20
1983.75
 10
259.7499992847442627
 20
1983.3749994277955011
 10
259.0
 20
1983.0
 97
0
 75
0
 76
1
 47
0.0
 98
0
  0
LWPOLYLINE
  5
2E
330
1D
100
AcDbEntity
  8
0
  6
ByLayer
420
4620980
 48
1.0
 60
0
 67
0
370
-1
100
AcDbPolyline
 90
33
 70
1
 43
0.0
 38
0.0
 39
0.0
210
0.0
220
0.0
230
1.0
 10
259.0
 20
1995.0
 40
0.0
 41
0.0
 42
0.0
 10
259.75
 20
1994.625
 40
0.0
 41
0.0
 42
0.0
 10
260.5000011444091683
 20
1994.2499994277955011
 40
0.0
 41
0.0
 42
0.0
 10
261.25
 20
1993.875
 40
0.0
 41
0.0
 42
0.0
 10
262.0
 20
1993.5
 40
0.0
 41
0.0
 42
0.0
 10
262.7500005722046126
 20
1993.1249997138977506
 40
0.0
 41
0.0
 42
0.0
 10
263.5
 20
1992.75
 40
0.0
 41
0.0
 42
0.0
 10
264.25
 20
1992.375
 40
0.0
 41
0.0
 42
0.0
 10
265.0
 20
1992.0
 40
0.0
 41
0.0
 42
0.0
 10
265.7500005722046126
 20
1991.6249997138977506
 40
0.0
 41
0.0
 42
0.0
 10
266.5
 20
1991.25
 40
0.0
 41
0.0
 42
0.0
 10
267.25
 20
1990.8750001430512384
 40
0.0
 41
0.0
 42
0.0
 10
268.0
 20
1990.5
 40
0.0
 41
0.0
 42
0.0
 10
268.75
 20
1990.1249998569487616
 40
0.0
 41
0.0
 42
0.0
 10
269.5
 20
1989.7500002145766302
 40
0.0
 41
0.0
 42
0.0
 10
270.25
 20
1989.3750001072883151
 40
0.0
 41
0.0
 42
0.0
 10
271.0
 20
1989.0
 40
0.0
 41
0.0
 42
0.0
 10
270.25
 20
1988.6249988555907748
 40
0.0
 41
0.0
 42
0.0
 10
269.5
 20
1988.2499988555907748
 40
0.0
 41
0.0
 42
0.0
 10
268.7500011444091683
 20
1987.8749988555907748
 40
0.0
 41
0.0
 42
0.0
 10
268.0000005722046126
 20
1987.4999991416930243
 40
0.0
 41
0.0
 42
0.0
 10
267.25
 20
1987.1249988555907748
 40
0.0
 41
0.0
 42
0.0
 10
266.5000011444091683
 20
1986.7499994277955011
 40
0.0
 41
0.0
 42
0.0
 10
265.7499994277953874
 20
1986.3749988555907748
 40
0.0
 41
0.0
 42
0.0
 10
265.0000005722046126
 20
1985.9999994277955011
 40
0.0
 41
0.0
 42
0.0
 10
264.2500011444091683
 20
1985.6249997138977506
 40
0.0
 41
0.0
 42
0.0
 10
263.4999997138976937
 20
1985.2499994277955011
 40
0.0
 41
0.0
 42
0.0
 10
262.7500005722046126
 20
1984.8749997138977506
 40
0.0
 41
0.0
 42
0.0
 10
262.0000011444091683
 20
1984.5
 40
0.0
 41
0.0
 42
0.0
 10
261.2499998569488753
 20
1984.1249994277955011
 40
0.0
 41
0.0
 42
0.0
 10
260.5000005722046126
 20
1983.75
 40
0.0
 41
0.0
 42
0.0
 10
259.7499992847442627
 20
1983.3749994277955011
 40
0.0
 41
0.0
 42
0.0
 10
259.0
 20
1983.0
 40
0.0
 41
0.0
 42
0.0
  0
TEXT
  5
2F
330
1D
100
AcDbEntity
  8
0
  6
ByLayer
420
5592405
 48
1.0
 60
0
 67
0
370
-1
100
AcDbText
 39
0.0
 10
0.0
 20
1910.5
 30
0.0
 40
14.0
  1
2. Inline SVG – Markers on polyline (start + mid + end)
 50
0.0
 41
1.0
 51
0.0
  7
Standard
 71
0
 72
0
 11
0.0
 21
0.0
 31
0.0
210
0.0
220
0.0
230
1.0
100
AcDbText
 73
0
  0
LWPOLYLINE
  5
30
330
1D
100
AcDbEntity
  8
0
  6
ByLayer
420
13421772
 48
1.0
 60
0
 67
0
370
-1
100
AcDbPolyline
 90
4
 70
1
 43
0.0
 38
0.0
 39
0.0
210
0.0
220
0.0
230
1.0
 10
0.0
 20
1898.0
 40
0.0
 41
0.0
 42
0.0
 10
300.0
 20
1898.0
 40
0.0
 41
0.0
 42
0.0
 10
300.0
 20
1798.0
 40
0.0
 41
0.0
 42
0.0
 10
0.0
 20
1798.0
 40
0.0
 41
0.0
 42
0.0
  0
LWPOLYLINE
  5
31
330
1D
100
AcDbEntity
  8
0
  6
ByLayer
420
14423100
 48
1.0
 60
0
 67
0
370
-1
100
AcDbPolyline
 90
5
 70
0
 43
0.0
 38
0.0
 39
0.0
210
0.0
220
0.0
230
1.0
 10
21.0
 20
1817.0
 40
0.0
 41
0.0
 42
0.0
 10
81.0
 20
1877.0
 40
0.0
 41
0.0
 42
0.0
 10
151.0
 20
1837.0
 40
0.0
 41
0.0
 42
0.0
 10
221.0
 20
1877.0
 40
0.0
 41
0.0
 42
0.0
 10
281.0
 20
1817.0
 40
0.0
 41
0.0
 42
0.0
  0
HATCH
  5
32
330
1D
100
AcDbEntity
  8
0
  6
ByLayer
420
14423100
 48
1.0
 60
0
 67
0
370
-1
100
AcDbHatch
 30
0.0
210
0.0
220
0.0
230
1.0
  2
SOLID
 70
1
 71
0
 91
1
 92
2
 72
0
 73
1
 93
32
 10
24.5355339059327378
 20
1820.5355339059326525
 10
25.1573480615127281
 20
1819.7778511650981272
 10
25.6193976625564375
 20
1818.9134171618254641
 10
25.9039264020161539
 20
1817.9754516100806541
 10
26.0
 20
1817.0
 10
25.9039264020161539
 20
1816.0245483899193459
 10
25.6193976625564375
 20
1815.0865828381745359
 10
25.1573480615127281
 20
1814.2221488349018728
 10
24.5355339059327378
 20
1813.4644660940671201
 10
23.7778511650980136
 20
1812.842651938487279
 10
22.9134171618254499
 20
1812.3806023374436336
 10
21.9754516100806399
 20
1812.0960735979838319
 10
21.0
 20
1812.0
 10
20.0245483899193601
 20
1812.0960735979838319
 10
19.0865828381745501
 20
1812.3806023374436336
 10
18.2221488349019936
 20
1812.842651938487279
 10
17.4644660940672622
 20
1813.4644660940673475
 10
16.8426519384872719
 20
1814.2221488349018728
 10
16.3806023374435625
 20
1815.0865828381745359
 10
16.0960735979838461
 20
1816.0245483899193459
 10
16.0
 20
1817.0
 10
16.0960735979838461
 20
1817.9754516100806541
 10
16.3806023374435696
 20
1818.9134171618254641
 10
16.8426519384872719
 20
1819.7778511650981272
 10
17.4644660940672622
 20
1820.5355339059328799
 10
18.2221488349019936
 20
1821.157348061512721
 10
19.0865828381745501
 20
1821.6193976625563664
 10
20.0245483899193601
 20
1821.9039264020161681
 10
21.0
 20
1822.0
 10
21.9754516100806399
 20
1821.9039264020161681
 10
22.9134171618254499
 20
1821.6193976625563664
 10
23.7778511650980064
 20
1821.157348061512721
 97
0
 75
0
 76
1
 47
0.0
 98
0
  0
LWPOLYLINE
  5
33
330
1D
100
AcDbEntity
  8
0
  6
ByLayer
420
14423100
 48
1.0
 60
0
 67
0
370
-1
100
AcDbPolyline
 90
32
 70
1
 43
0.0
 38
0.0
 39
0.0
210
0.0
220
0.0
230
1.0
 10
24.5355339059327378
 20
1820.5355339059326525
 40
0.0
 41
0.0
 42
0.0
 10
25.1573480615127281
 20
1819.7778511650981272
 40
0.0
 41
0.0
 42
0.0
 10
25.6193976625564375
 20
1818.9134171618254641
 40
0.0
 41
0.0
 42
0.0
 10
25.9039264020161539
 20
1817.9754516100806541
 40
0.0
 41
0.0
 42
0.0
 10
26.0
 20
1817.0
 40
0.0
 41
0.0
 42
0.0
 10
25.9039264020161539
 20
1816.0245483899193459
 40
0.0
 41
0.0
 42
0.0
 10
25.6193976625564375
 20
1815.0865828381745359
 40
0.0
 41
0.0
 42
0.0
 10
25.1573480615127281
 20
1814.2221488349018728
 40
0.0
 41
0.0
 42
0.0
 10
24.5355339059327378
 20
1813.4644660940671201
 40
0.0
 41
0.0
 42
0.0
 10
23.7778511650980136
 20
1812.842651938487279
 40
0.0
 41
0.0
 42
0.0
 10
22.9134171618254499
 20
1812.3806023374436336
 40
0.0
 41
0.0
 42
0.0
 10
21.9754516100806399
 20
1812.0960735979838319
 40
0.0
 41
0.0
 42
0.0
 10
21.0
 20
1812.0
 40
0.0
 41
0.0
 42
0.0
 10
20.0245483899193601
 20
1812.0960735979838319
 40
0.0
 41
0.0
 42
0.0
 10
19.0865828381745501
 20
1812.3806023374436336
 40
0.0
 41
0.0
 42
0.0
 10
18.2221488349019936
 20
1812.842651938487279
 40
0.0
 41
0.0
 42
0.0
 10
17.4644660940672622
 20
1813.4644660940673475
 40
0.0
 41
0.0
 42
0.0
 10
16.8426519384872719
 20
1814.2221488349018728
 40
0.0
 41
0.0
 42
0.0
 10
16.3806023374435625
 20
1815.0865828381745359
 40
0.0
 41
0.0
 42
0.0
 10
16.0960735979838461
 20
1816.0245483899193459
 40
0.0
 41
0.0
 42
0.0
 10
16.0
 20
1817.0
 40
0.0
 41
0.0
 42
0.0
 10
16.0960735979838461
 20
1817.9754516100806541
 40
0.0
 41
0.0
 42
0.0
 10
16.3806023374435696
 20
1818.9134171618254641
 40
0.0
 41
0.0
 42
0.0
 10
16.8426519384872719
 20
1819.7778511650981272
 40
0.0
 41
0.0
 42
0.0
 10
17.4644660940672622
 20
1820.5355339059328799
 40
0.0
 41
0.0
 42
0.0
 10
18.2221488349019936
 20
1821.157348061512721
 40
0.0
 41
0.0
 42
0.0
 10
19.0865828381745501
 20
1821.6193976625563664
 40
0.0
 41
0.0
 42
0.0
 10
20.0245483899193601
 20
1821.9039264020161681
 40
0.0
 41
0.0
 42
0.0
 10
21.0
 20
1822.0
 40
0.0
 41
0.0
 42
0.0
 10
21.9754516100806399
 20
1821.9039264020161681
 40
0.0
 41
0.0
 42
0.0
 10
22.9134171618254499
 20
1821.6193976625563664
 40
0.0
 41
0.0
 42
0.0
 10
23.7778511650980064
 20
1821.157348061512721
 40
0.0
 41
0.0
 42
0.0
  0
HATCH
  5
34
330
1D
100
AcDbEntity
  8
0
  6
ByLayer
420
14423100
 48
1.0
 60
0
 67
0
370
-1
100
AcDbHatch
 30
0.0
210
0.0
220
0.0
230
1.0
  2
SOLID
 70
1
 71
0
 91
1
 92
2
 72
0
 73
1
 93
33
 10
276.7573593128806806
 20
1829.7279220613577309
 10
277.0225243558256807
 20
1828.9324269325229579
 10
277.2876898033803741
 20
1828.1369305898588209
 10
277.5528544417155672
 20
1827.3414366748534121
 10
277.8180194846605673
 20
1826.5459415460184118
 10
278.0831847299103288
 20
1825.7504458102689568
 10
278.3483495705504538
 20
1824.9549512883486386
 10
278.613514613495397
 20
1824.1594561595138657
 10
278.8786796564403971
 20
1823.3639610306788654
 10
279.1438449016902155
 20
1822.5684652949294104
 10
279.4090097423302268
 20
1821.7729707730090922
 10
279.6741748864276929
 20
1820.9774757453267284
 10
279.9393398282201701
 20
1820.1819805153395464
 10
280.2045047700127043
 20
1819.386485285352137
 10
280.4696700658387272
 20
1818.5909904093982732
 10
280.7348350329194204
 20
1817.7954952046991366
 10
281.0
 20
1817.0
 10
280.2045040619456699
 20
1817.2651642337254998
 10
279.4090089331107833
 20
1817.5303292766704999
 10
278.6135146134954539
 20
1817.7954935103957723
 10
277.8180192823556354
 20
1818.0606591602554545
 10
277.0225235466061804
 20
1818.3258244055052728
 10
276.2270296316005442
 20
1818.5909890438406364
 10
275.4315328843267139
 20
1818.8561548960049095
 10
274.6360389693210777
 20
1819.1213195343400457
 10
273.8405444474008164
 20
1819.3864843749802276
 10
273.0450481047367361
 20
1819.651650227144728
 10
272.2495537851213498
 20
1819.9168148654798642
 10
271.4540592632010885
 20
1820.1819797061198187
 10
270.6585628193845423
 20
1820.4471452548270918
 10
269.863068600921622
 20
1820.7123101966196828
 10
269.0675721571050758
 20
1820.9774757453267284
 10
268.2720779386421555
 20
1821.2426406871193194
 97
0
 75
0
 76
1
 47
0.0
 98
0
  0
LWPOLYLINE
  5
35
330
1D
100
AcDbEntity
  8
0
  6
ByLayer
420
14423100
 48
1.0
 60
0
 67
0
370
-1
100
AcDbPolyline
 90
33
 70
1
 43
0.0
 38
0.0
 39
0.0
210
0.0
220
0.0
230
1.0
 10
276.7573593128806806
 20
1829.7279220613577309
 40
0.0
 41
0.0
 42
0.0
 10
277.0225243558256807
 20
1828.9324269325229579
 40
0.0
 41
0.0
 42
0.0
 10
277.2876898033803741
 20
1828.1369305898588209
 40
0.0
 41
0.0
 42
0.0
 10
277.5528544417155672
 20
1827.3414366748534121
 40
0.0
 41
0.0
 42
0.0
 10
277.8180194846605673
 20
1826.5459415460184118
 40
0.0
 41
0.0
 42
0.0
 10
278.0831847299103288
 20
1825.7504458102689568
 40
0.0
 41
0.0
 42
0.0
 10
278.3483495705504538
 20
1824.9549512883486386
 40
0.0
 41
0.0
 42
0.0
 10
278.613514613495397
 20
1824.1594561595138657
 40
0.0
 41
0.0
 42
0.0
 10
278.8786796564403971
 20
1823.3639610306788654
 40
0.0
 41
0.0
 42
0.0
 10
279.1438449016902155
 20
1822.5684652949294104
 40
0.0
 41
0.0
 42
0.0
 10
279.4090097423302268
 20
1821.7729707730090922
 40
0.0
 41
0.0
 42
0.0
 10
279.6741748864276929
 20
1820.9774757453267284
 40
0.0
 41
0.0
 42
0.0
 10
279.9393398282201701
 20
1820.1819805153395464
 40
0.0
 41
0.0
 42
0.0
 10
280.2045047700127043
 20
1819.386485285352137
 40
0.0
 41
0.0
 42
0.0
 10
280.4696700658387272
 20
1818.5909904093982732
 40
0.0
 41
0.0
 42
0.0
 10
280.7348350329194204
 20
1817.7954952046991366
 40
0.0
 41
0.0
 42
0.0
 10
281.0
 20
1817.0
 40
0.0
 41
0.0
 42
0.0
 10
280.2045040619456699
 20
1817.2651642337254998
 40
0.0
 41
0.0
 42
0.0
 10
279.4090089331107833
 20
1817.5303292766704999
 40
0.0
 41
0.0
 42
0.0
 10
278.6135146134954539
 20
1817.7954935103957723
 40
0.0
 41
0.0
 42
0.0
 10
277.8180192823556354
 20
1818.0606591602554545
 40
0.0
 41
0.0
 42
0.0
 10
277.0225235466061804
 20
1818.3258244055052728
 40
0.0
 41
0.0
 42
0.0
 10
276.2270296316005442
 20
1818.5909890438406364
 40
0.0
 41
0.0
 42
0.0
 10
275.4315328843267139
 20
1818.8561548960049095
 40
0.0
 41
0.0
 42
0.0
 10
274.6360389693210777
 20
1819.1213195343400457
 40
0.0
 41
0.0
 42
0.0
 10
273.8405444474008164
 20
1819.3864843749802276
 40
0.0
 41
0.0
 42
0.0
 10
273.0450481047367361
 20
1819.651650227144728
 40
0.0
 41
0.0
 42
0.0
 10
272.2495537851213498
 20
1819.9168148654798642
 40
0.0
 41
0.0
 42
0.0
 10
271.4540592632010885
 20
1820.1819797061198187
 40
0.0
 41
0.0
 42
0.0
 10
270.6585628193845423
 20
1820.4471452548270918
 40
0.0
 41
0.0
 42
0.0
 10
269.863068600921622
 20
1820.7123101966196828
 40
0.0
 41
0.0
 42
0.0
 10
269.0675721571050758
 20
1820.9774757453267284
 40
0.0
 41
0.0
 42
0.0
 10
268.2720779386421555
 20
1821.2426406871193194
 40
0.0
 41
0.0
 42
0.0
  0
HATCH
  5
36
330
1D
100
AcDbEntity
  8
0
  6
ByLayer
420
14423100
 48
1.0
 60
0
 67
0
370
-1
100
AcDbHatch
 30
0.0
210
0.0
220
0.0
230
1.0
  2
SOLID
 70
1
 71
0
 91
1
 92
2
 72
0
 73
1
 93
32
 10
85.9418584882530894
 20
1877.7602859212697695
 10
85.9952264883192186
 20
1876.7815684766476352
 10
85.8566307357945391
 20
1875.8112452329703501
 10
85.5313973877231604
 20
1874.886605168328515
 10
85.0320249792785319
 20
1874.0431816818625066
 10
84.3777041120658708
 20
1873.3133870651595316
 10
83.593579970064809
 20
1872.7252669160661753
 10
82.7097860043105726
 20
1872.3014223620905341
 10
81.7602859212697126
 20
1872.0581415117469533
 10
80.7815684766477062
 20
1872.0047735116806962
 10
79.8112452329703217
 20
1872.1433692642053757
 10
78.8866051683285292
 20
1872.4686026122767544
 10
78.0431816818624213
 20
1872.9679750207214965
 10
77.3133870651595032
 20
1873.6222958879341149
 10
76.7252669160661469
 20
1874.4064200299351342
 10
76.3014223620904488
 20
1875.2902139956895553
 10
76.0581415117469106
 20
1876.2397140787302305
 10
76.0047735116807814
 20
1877.2184315233523648
 10
76.1433692642054609
 20
1878.1887547670296499
 10
76.4686026122768254
 20
1879.113394831671485
 10
76.9679750207214681
 20
1879.9568183181374934
 10
77.6222958879341292
 20
1880.6866129348404684
 10
78.406420029935191
 20
1881.2747330839338247
 10
79.2902139956894274
 20
1881.6985776379094659
 10
80.2397140787302874
 20
1881.9418584882530467
 10
81.2184315233522938
 20
1881.9952264883193038
 10
82.1887547670296783
 20
1881.8566307357946243
 10
83.1133948316714708
 20
1881.5313973877232456
 10
83.9568183181375787
 20
1881.0320249792785035
 10
84.6866129348404968
 20
1880.3777041120658851
 10
85.2747330839338531
 20
1879.5935799700648658
 10
85.6985776379095512
 20
1878.7097860043104447
 97
0
 75
0
 76
1
 47
0.0
 98
0
  0
LWPOLYLINE
  5
37
330
1D
100
AcDbEntity
  8
0
  6
ByLayer
420
14423100
 48
1.0
 60
0
 67
0
370
-1
100
AcDbPolyline
 90
32
 70
1
 43
0.0
 38
0.0
 39
0.0
210
0.0
220
0.0
230
1.0
 10
85.9418584882530894
 20
1877.7602859212697695
 40
0.0
 41
0.0
 42
0.0
 10
85.9952264883192186
 20
1876.7815684766476352
 40
0.0
 41
0.0
 42
0.0
 10
85.8566307357945391
 20
1875.8112452329703501
 40
0.0
 41
0.0
 42
0.0
 10
85.5313973877231604
 20
1874.886605168328515
 40
0.0
 41
0.0
 42
0.0
 10
85.0320249792785319
 20
1874.0431816818625066
 40
0.0
 41
0.0
 42
0.0
 10
84.3777041120658708
 20
1873.3133870651595316
 40
0.0
 41
0.0
 42
0.0
 10
83.593579970064809
 20
1872.7252669160661753
 40
0.0
 41
0.0
 42
0.0
 10
82.7097860043105726
 20
1872.3014223620905341
 40
0.0
 41
0.0
 42
0.0
 10
81.7602859212697126
 20
1872.0581415117469533
 40
0.0
 41
0.0
 42
0.0
 10
80.7815684766477062
 20
1872.0047735116806962
 40
0.0
 41
0.0
 42
0.0
 10
79.8112452329703217
 20
1872.1433692642053757
 40
0.0
 41
0.0
 42
0.0
 10
78.8866051683285292
 20
1872.4686026122767544
 40
0.0
 41
0.0
 42
0.0
 10
78.0431816818624213
 20
1872.9679750207214965
 40
0.0
 41
0.0
 42
0.0
 10
77.3133870651595032
 20
1873.6222958879341149
 40
0.0
 41
0.0
 42
0.0
 10
76.7252669160661469
 20
1874.4064200299351342
 40
0.0
 41
0.0
 42
0.0
 10
76.3014223620904488
 20
1875.2902139956895553
 40
0.0
 41
0.0
 42
0.0
 10
76.0581415117469106
 20
1876.2397140787302305
 40
0.0
 41
0.0
 42
0.0
 10
76.0047735116807814
 20
1877.2184315233523648
 40
0.0
 41
0.0
 42
0.0
 10
76.1433692642054609
 20
1878.1887547670296499
 40
0.0
 41
0.0
 42
0.0
 10
76.4686026122768254
 20
1879.113394831671485
 40
0.0
 41
0.0
 42
0.0
 10
76.9679750207214681
 20
1879.9568183181374934
 40
0.0
 41
0.0
 42
0.0
 10
77.6222958879341292
 20
1880.6866129348404684
 40
0.0
 41
0.0
 42
0.0
 10
78.406420029935191
 20
1881.2747330839338247
 40
0.0
 41
0.0
 42
0.0
 10
79.2902139956894274
 20
1881.6985776379094659
 40
0.0
 41
0.0
 42
0.0
 10
80.2397140787302874
 20
1881.9418584882530467
 40
0.0
 41
0.0
 42
0.0
 10
81.2184315233522938
 20
1881.9952264883193038
 40
0.0
 41
0.0
 42
0.0
 10
82.1887547670296783
 20
1881.8566307357946243
 40
0.0
 41
0.0
 42
0.0
 10
83.1133948316714708
 20
1881.5313973877232456
 40
0.0
 41
0.0
 42
0.0
 10
83.9568183181375787
 20
1881.0320249792785035
 40
0.0
 41
0.0
 42
0.0
 10
84.6866129348404968
 20
1880.3777041120658851
 40
0.0
 41
0.0
 42
0.0
 10
85.2747330839338531
 20
1879.5935799700648658
 40
0.0
 41
0.0
 42
0.0
 10
85.6985776379095512
 20
1878.7097860043104447
 40
0.0
 41
0.0
 42
0.0
  0
HATCH
  5
38
330
1D
100
AcDbEntity
  8
0
  6
ByLayer
420
14423100
 48
1.0
 60
0
 67
0
370
-1
100
AcDbHatch
 30
0.0
210
0.0
220
0.0
230
1.0
  2
SOLID
 70
1
 71
0
 91
1
 92
2
 72
0
 73
1
 93
32
 10
156.0
 20
1837.0
 10
155.9039264020161397
 20
1836.0245483899193459
 10
155.6193976625564233
 20
1835.0865828381745359
 10
155.157348061512721
 20
1834.2221488349018728
 10
154.5355339059327378
 20
1833.4644660940671201
 10
153.7778511650980136
 20
1832.842651938487279
 10
152.9134171618254356
 20
1832.3806023374436336
 10
151.9754516100806541
 20
1832.0960735979838319
 10
151.0
 20
1832.0
 10
150.0245483899193459
 20
1832.0960735979838319
 10
149.0865828381745644
 20
1832.3806023374436336
 10
148.2221488349019864
 20
1832.842651938487279
 10
147.4644660940672622
 20
1833.4644660940671201
 10
146.842651938487279
 20
1834.2221488349018728
 10
146.3806023374435767
 20
1835.0865828381745359
 10
146.0960735979838603
 20
1836.0245483899193459
 10
146.0
 20
1837.0
 10
146.0960735979838603
 20
1837.9754516100806541
 10
146.3806023374435767
 20
1838.9134171618254641
 10
146.842651938487279
 20
1839.7778511650981272
 10
147.4644660940672622
 20
1840.5355339059326525
 10
148.2221488349019864
 20
1841.157348061512721
 10
149.0865828381745359
 20
1841.6193976625563664
 10
150.0245483899193459
 20
1841.9039264020161681
 10
151.0
 20
1842.0
 10
151.9754516100806541
 20
1841.9039264020161681
 10
152.9134171618254641
 20
1841.6193976625563664
 10
153.7778511650980136
 20
1841.157348061512721
 10
154.5355339059327378
 20
1840.5355339059328799
 10
155.157348061512721
 20
1839.7778511650981272
 10
155.6193976625564233
 20
1838.9134171618254641
 10
155.9039264020161397
 20
1837.9754516100806541
 97
0
 75
0
 76
1
 47
0.0
 98
0
  0
LWPOLYLINE
  5
39
330
1D
100
AcDbEntity
  8
0
  6
ByLayer
420
14423100
 48
1.0
 60
0
 67
0
370
-1
100
AcDbPolyline
 90
32
 70
1
 43
0.0
 38
0.0
 39
0.0
210
0.0
220
0.0
230
1.0
 10
156.0
 20
1837.0
 40
0.0
 41
0.0
 42
0.0
 10
155.9039264020161397
 20
1836.0245483899193459
 40
0.0
 41
0.0
 42
0.0
 10
155.6193976625564233
 20
1835.0865828381745359
 40
0.0
 41
0.0
 42
0.0
 10
155.157348061512721
 20
1834.2221488349018728
 40
0.0
 41
0.0
 42
0.0
 10
154.5355339059327378
 20
1833.4644660940671201
 40
0.0
 41
0.0
 42
0.0
 10
153.7778511650980136
 20
1832.842651938487279
 40
0.0
 41
0.0
 42
0.0
 10
152.9134171618254356
 20
1832.3806023374436336
 40
0.0
 41
0.0
 42
0.0
 10
151.9754516100806541
 20
1832.0960735979838319
 40
0.0
 41
0.0
 42
0.0
 10
151.0
 20
1832.0
 40
0.0
 41
0.0
 42
0.0
 10
150.0245483899193459
 20
1832.0960735979838319
 40
0.0
 41
0.0
 42
0.0
 10
149.0865828381745644
 20
1832.3806023374436336
 40
0.0
 41
0.0
 42
0.0
 10
148.2221488349019864
 20
1832.842651938487279
 40
0.0
 41
0.0
 42
0.0
 10
147.4644660940672622
 20
1833.4644660940671201
 40
0.0
 41
0.0
 42
0.0
 10
146.842651938487279
 20
1834.2221488349018728
 40
0.0
 41
0.0
 42
0.0
 10
146.3806023374435767
 20
1835.0865828381745359
 40
0.0
 41
0.0
 42
0.0
 10
146.0960735979838603
 20
1836.0245483899193459
 40
0.0
 41
0.0
 42
0.0
 10
146.0
 20
1837.0
 40
0.0
 41
0.0
 42
0.0
 10
146.0960735979838603
 20
1837.9754516100806541
 40
0.0
 41
0.0
 42
0.0
 10
146.3806023374435767
 20
1838.9134171618254641
 40
0.0
 41
0.0
 42
0.0
 10
146.842651938487279
 20
1839.7778511650981272
 40
0.0
 41
0.0
 42
0.0
 10
147.4644660940672622
 20
1840.5355339059326525
 40
0.0
 41
0.0
 42
0.0
 10
148.2221488349019864
 20
1841.157348061512721
 40
0.0
 41
0.0
 42
0.0
 10
149.0865828381745359
 20
1841.6193976625563664
 40
0.0
 41
0.0
 42
0.0
 10
150.0245483899193459
 20
1841.9039264020161681
 40
0.0
 41
0.0
 42
0.0
 10
151.0
 20
1842.0
 40
0.0
 41
0.0
 42
0.0
 10
151.9754516100806541
 20
1841.9039264020161681
 40
0.0
 41
0.0
 42
0.0
 10
152.9134171618254641
 20
1841.6193976625563664
 40
0.0
 41
0.0
 42
0.0
 10
153.7778511650980136
 20
1841.157348061512721
 40
0.0
 41
0.0
 42
0.0
 10
154.5355339059327378
 20
1840.5355339059328799
 40
0.0
 41
0.0
 42
0.0
 10
155.157348061512721
 20
1839.7778511650981272
 40
0.0
 41
0.0
 42
0.0
 10
155.6193976625564233
 20
1838.9134171618254641
 40
0.0
 41
0.0
 42
0.0
 10
155.9039264020161397
 20
1837.9754516100806541
 40
0.0
 41
0.0
 42
0.0
  0
HATCH
  5
3A
330
1D
100
AcDbEntity
  8
0
  6
ByLayer
420
14423100
 48
1.0
 60
0
 67
0
370
-1
100
AcDbHatch
 30
0.0
210
0.0
220
0.0
230
1.0
  2
SOLID
 70
1
 71
0
 91
1
 92
2
 72
0
 73
1
 93
32
 10
225.9418584882530752
 20
1876.2397140787302305
 10
225.6985776379095512
 20
1875.2902139956895553
 10
225.2747330839338531
 20
1874.4064200299351342
 10
224.6866129348404968
 20
1873.6222958879341149
 10
223.9568183181375787
 20
1872.9679750207214965
 10
223.1133948316714566
 20
1872.4686026122767544
 10
222.1887547670296783
 20
1872.1433692642053757
 10
221.218431523352308
 20
1872.0047735116806962
 10
220.2397140787302874
 20
1872.0581415117469533
 10
219.2902139956894416
 20
1872.3014223620905341
 10
218.4064200299351626
 20
1872.7252669160661753
 10
217.6222958879341434
 20
1873.3133870651595316
 10
216.9679750207214681
 20
1874.0431816818625066
 10
216.4686026122768396
 20
1874.886605168328515
 10
216.1433692642054609
 20
1875.8112452329703501
 10
216.0047735116807814
 20
1876.7815684766476352
 10
216.0581415117469248
 20
1877.7602859212697695
 10
216.3014223620904488
 20
1878.7097860043104447
 10
216.7252669160661469
 20
1879.5935799700648658
 10
217.3133870651595032
 20
1880.3777041120658851
 10
218.0431816818624213
 20
1881.0320249792785035
 10
218.8866051683285434
 20
1881.5313973877232456
 10
219.8112452329703217
 20
1881.8566307357946243
 10
220.781568476647692
 20
1881.9952264883193038
 10
221.7602859212697126
 20
1881.9418584882530467
 10
222.7097860043105584
 20
1881.6985776379094659
 10
223.5935799700648374
 20
1881.2747330839338247
 10
224.3777041120658566
 20
1880.6866129348404684
 10
225.0320249792785319
 20
1879.9568183181374934
 10
225.5313973877231604
 20
1879.113394831671485
 10
225.8566307357945391
 20
1878.1887547670296499
 10
225.9952264883192186
 20
1877.2184315233523648
 97
0
 75
0
 76
1
 47
0.0
 98
0
  0
LWPOLYLINE
  5
3B
330
1D
100
AcDbEntity
  8
0
  6
ByLayer
420
14423100
 48
1.0
 60
0
 67
0
370
-1
100
AcDbPolyline
 90
32
 70
1
 43
0.0
 38
0.0
 39
0.0
210
0.0
220
0.0
230
1.0
 10
225.9418584882530752
 20
1876.2397140787302305
 40
0.0
 41
0.0
 42
0.0
 10
225.6985776379095512
 20
1875.2902139956895553
 40
0.0
 41
0.0
 42
0.0
 10
225.2747330839338531
 20
1874.4064200299351342
 40
0.0
 41
0.0
 42
0.0
 10
224.6866129348404968
 20
1873.6222958879341149
 40
0.0
 41
0.0
 42
0.0
 10
223.9568183181375787
 20
1872.9679750207214965
 40
0.0
 41
0.0
 42
0.0
 10
223.1133948316714566
 20
1872.4686026122767544
 40
0.0
 41
0.0
 42
0.0
 10
222.1887547670296783
 20
1872.1433692642053757
 40
0.0
 41
0.0
 42
0.0
 10
221.218431523352308
 20
1872.0047735116806962
 40
0.0
 41
0.0
 42
0.0
 10
220.2397140787302874
 20
1872.0581415117469533
 40
0.0
 41
0.0
 42
0.0
 10
219.2902139956894416
 20
1872.3014223620905341
 40
0.0
 41
0.0
 42
0.0
 10
218.4064200299351626
 20
1872.7252669160661753
 40
0.0
 41
0.0
 42
0.0
 10
217.6222958879341434
 20
1873.3133870651595316
 40
0.0
 41
0.0
 42
0.0
 10
216.9679750207214681
 20
1874.0431816818625066
 40
0.0
 41
0.0
 42
0.0
 10
216.4686026122768396
 20
1874.886605168328515
 40
0.0
 41
0.0
 42
0.0
 10
216.1433692642054609
 20
1875.8112452329703501
 40
0.0
 41
0.0
 42
0.0
 10
216.0047735116807814
 20
1876.7815684766476352
 40
0.0
 41
0.0
 42
0.0
 10
216.0581415117469248
 20
1877.7602859212697695
 40
0.0
 41
0.0
 42
0.0
 10
216.3014223620904488
 20
1878.7097860043104447
 40
0.0
 41
0.0
 42
0.0
 10
216.7252669160661469
 20
1879.5935799700648658
 40
0.0
 41
0.0
 42
0.0
 10
217.3133870651595032
 20
1880.3777041120658851
 40
0.0
 41
0.0
 42
0.0
 10
218.0431816818624213
 20
1881.0320249792785035
 40
0.0
 41
0.0
 42
0.0
 10
218.8866051683285434
 20
1881.5313973877232456
 40
0.0
 41
0.0
 42
0.0
 10
219.8112452329703217
 20
1881.8566307357946243
 40
0.0
 41
0.0
 42
0.0
 10
220.781568476647692
 20
1881.9952264883193038
 40
0.0
 41
0.0
 42
0.0
 10
221.7602859212697126
 20
1881.9418584882530467
 40
0.0
 41
0.0
 42
0.0
 10
222.7097860043105584
 20
1881.6985776379094659
 40
0.0
 41
0.0
 42
0.0
 10
223.5935799700648374
 20
1881.2747330839338247
 40
0.0
 41
0.0
 42
0.0
 10
224.3777041120658566
 20
1880.6866129348404684
 40
0.0
 41
0.0
 42
0.0
 10
225.0320249792785319
 20
1879.9568183181374934
 40
0.0
 41
0.0
 42
0.0
 10
225.5313973877231604
 20
1879.113394831671485
 40
0.0
 41
0.0
 42
0.0
 10
225.8566307357945391
 20
1878.1887547670296499
 40
0.0
 41
0.0
 42
0.0
 10
225.9952264883192186
 20
1877.2184315233523648
 40
0.0
 41
0.0
 42
0.0
  0
TEXT
  5
3C
330
1D
100
AcDbEntity
  8
0
  6
ByLayer
420
5592405
 48
1.0
 60
0
 67
0
370
-1
100
AcDbText
 39
0.0
 10
0.0
 20
1758.5
 30
0.0
 40
14.0
  1
3. Inline SVG – Marker on polygon vertices
 50
0.0
 41
1.0
 51
0.0
  7
Standard
 71
0
 72
0
 11
0.0
 21
0.0
 31
0.0
210
0.0
220
0.0
230
1.0
100
AcDbText
 73
0
  0
LWPOLYLINE
  5
3D
330
1D
100
AcDbEntity
  8
0
  6
ByLayer
420
13421772
 48
1.0
 60
0
 67
0
370
-1
100
AcDbPolyline
 90
4
 70
1
 43
0.0
 38
0.0
 39
0.0
210
0.0
220
0.0
230
1.0
 10
0.0
 20
1746.0
 40
0.0
 41
0.0
 42
0.0
 10
200.0
 20
1746.0
 40
0.0
 41
0.0
 42
0.0
 10
200.0
 20
1546.0
 40
0.0
 41
0.0
 42
0.0
 10
0.0
 20
1546.0
 40
0.0
 41
0.0
 42
0.0
  0
LWPOLYLINE
  5
3E
330
1D
100
AcDbEntity
  8
0
  6
ByLayer
420
16747520
 48
1.0
 60
0
 67
0
370
-1
100
AcDbPolyline
 90
5
 70
1
 43
0.0
 38
0.0
 39
0.0
210
0.0
220
0.0
230
1.0
 10
101.0
 20
1725.0
 40
0.0
 41
0.0
 42
0.0
 10
181.0
 20
1665.0
 40
0.0
 41
0.0
 42
0.0
 10
151.0
 20
1575.0
 40
0.0
 41
0.0
 42
0.0
 10
51.0
 20
1575.0
 40
0.0
 41
0.0
 42
0.0
 10
21.0
 20
1665.0
 40
0.0
 41
0.0
 42
0.0
  0
HATCH
  5
3F
330
1D
100
AcDbEntity
  8
0
  6
ByLayer
420
16747520
 48
1.0
 60
0
 67
0
370
-1
100
AcDbHatch
 30
0.0
210
0.0
220
0.0
230
1.0
  2
SOLID
 70
1
 71
0
 91
1
 92
2
 72
0
 73
1
 93
4
 10
99.7999999999999972
 20
1733.4000000000000909
 10
109.4000000000000057
 20
1726.2000000000000455
 10
102.2000000000000028
 20
1716.5999999999999091
 10
92.6000000000000085
 20
1723.7999999999999545
 97
0
 75
0
 76
1
 47
0.0
 98
0
  0
LWPOLYLINE
  5
40
330
1D
100
AcDbEntity
  8
0
  6
ByLayer
420
16747520
 48
1.0
 60
0
 67
0
370
-1
100
AcDbPolyline
 90
4
 70
1
 43
0.0
 38
0.0
 39
0.0
210
0.0
220
0.0
230
1.0
 10
99.7999999999999972
 20
1733.4000000000000909
 40
0.0
 41
0.0
 42
0.0
 10
109.4000000000000057
 20
1726.2000000000000455
 40
0.0
 41
0.0
 42
0.0
 10
102.2000000000000028
 20
1716.5999999999999091
 40
0.0
 41
0.0
 42
0.0
 10
92.6000000000000085
 20
1723.7999999999999545
 40
0.0
 41
0.0
 42
0.0
  0
HATCH
  5
41
330
1D
100
AcDbEntity
  8
0
  6
ByLayer
420
16747520
 48
1.0
 60
0
 67
0
370
-1
100
AcDbHatch
 30
0.0
210
0.0
220
0.0
230
1.0
  2
SOLID
 70
1
 71
0
 91
1
 92
2
 72
0
 73
1
 93
4
 10
184.7947331922020453
 20
1672.5894663844042043
 10
188.5894663844040906
 20
1661.2052668077978979
 10
177.2052668077979547
 20
1657.4105336155957957
 10
173.4105336155959094
 20
1668.7947331922021021
 97
0
 75
0
 76
1
 47
0.0
 98
0
  0
LWPOLYLINE
  5
42
330
1D
100
AcDbEntity
  8
0
  6
ByLayer
420
16747520
 48
1.0
 60
0
 67
0
370
-1
100
AcDbPolyline
 90
4
 70
1
 43
0.0
 38
0.0
 39
0.0
210
0.0
220
0.0
230
1.0
 10
184.7947331922020453
 20
1672.5894663844042043
 40
0.0
 41
0.0
 42
0.0
 10
188.5894663844040906
 20
1661.2052668077978979
 40
0.0
 41
0.0
 42
0.0
 10
177.2052668077979547
 20
1657.4105336155957957
 40
0.0
 41
0.0
 42
0.0
 10
173.4105336155959094
 20
1668.7947331922021021
 40
0.0
 41
0.0
 42
0.0
  0
HATCH
  5
43
330
1D
100
AcDbEntity
  8
0
  6
ByLayer
420
16747520
 48
1.0
 60
0
 67
0
370
-1
100
AcDbHatch
 30
0.0
210
0.0
220
0.0
230
1.0
  2
SOLID
 70
1
 71
0
 91
1
 92
2
 72
0
 73
1
 93
4
 10
159.3484130228445395
 20
1573.4821067231191591
 10
149.4821067231191876
 20
1566.6515869771556027
 10
142.6515869771554605
 20
1576.5178932768808409
 10
152.5178932768808124
 20
1583.3484130228443973
 97
0
 75
0
 76
1
 47
0.0
 98
0
  0
LWPOLYLINE
  5
44
330
1D
100
AcDbEntity
  8
0
  6
ByLayer
420
16747520
 48
1.0
 60
0
 67
0
370
-1
100
AcDbPolyline
 90
4
 70
1
 43
0.0
 38
0.0
 39
0.0
210
0.0
220
0.0
230
1.0
 10
159.3484130228445395
 20
1573.4821067231191591
 40
0.0
 41
0.0
 42
0.0
 10
149.4821067231191876
 20
1566.6515869771556027
 40
0.0
 41
0.0
 42
0.0
 10
142.6515869771554605
 20
1576.5178932768808409
 40
0.0
 41
0.0
 42
0.0
 10
152.5178932768808124
 20
1583.3484130228443973
 40
0.0
 41
0.0
 42
0.0
  0
HATCH
  5
45
330
1D
100
AcDbEntity
  8
0
  6
ByLayer
420
16747520
 48
1.0
 60
0
 67
0
370
-1
100
AcDbHatch
 30
0.0
210
0.0
220
0.0
230
1.0
  2
SOLID
 70
1
 71
0
 91
1
 92
2
 72
0
 73
1
 93
4
 10
52.5178932768808266
 20
1566.6515869771556027
 10
42.6515869771554748
 20
1573.4821067231191591
 10
49.4821067231191734
 20
1583.3484130228443973
 10
59.3484130228445252
 20
1576.5178932768808409
 97
0
 75
0
 76
1
 47
0.0
 98
0
  0
LWPOLYLINE
  5
46
330
1D
100
AcDbEntity
  8
0
  6
ByLayer
420
16747520
 48
1.0
 60
0
 67
0
370
-1
100
AcDbPolyline
 90
4
 70
1
 43
0.0
 38
0.0
 39
0.0
210
0.0
220
0.0
230
1.0
 10
52.5178932768808266
 20
1566.6515869771556027
 40
0.0
 41
0.0
 42
0.0
 10
42.6515869771554748
 20
1573.4821067231191591
 40
0.0
 41
0.0
 42
0.0
 10
49.4821067231191734
 20
1583.3484130228443973
 40
0.0
 41
0.0
 42
0.0
 10
59.3484130228445252
 20
1576.5178932768808409
 40
0.0
 41
0.0
 42
0.0
  0
HATCH
  5
47
330
1D
100
AcDbEntity
  8
0
  6
ByLayer
420
16747520
 48
1.0
 60
0
 67
0
370
-1
100
AcDbHatch
 30
0.0
210
0.0
220
0.0
230
1.0
  2
SOLID
 70
1
 71
0
 91
1
 92
2
 72
0
 73
1
 93
4
 10
13.4105336155958881
 20
1661.2052668077978979
 10
17.2052668077979476
 20
1672.5894663844042043
 10
28.5894663844041119
 20
1668.7947331922021021
 10
24.7947331922020524
 20
1657.4105336155957957
 97
0
 75
0
 76
1
 47
0.0
 98
0
  0
LWPOLYLINE
  5
48
330
1D
100
AcDbEntity
  8
0
  6
ByLayer
420
16747520
 48
1.0
 60
0
 67
0
370
-1
100
AcDbPolyline
 90
4
 70
1
 43
0.0
 38
0.0
 39
0.0
210
0.0
220
0.0
230
1.0
 10
13.4105336155958881
 20
1661.2052668077978979
 40
0.0
 41
0.0
 42
0.0
 10
17.2052668077979476
 20
1672.5894663844042043
 40
0.0
 41
0.0
 42
0.0
 10
28.5894663844041119
 20
1668.7947331922021021
 40
0.0
 41
0.0
 42
0.0
 10
24.7947331922020524
 20
1657.4105336155957957
 40
0.0
 41
0.0
 42
0.0
  0
TEXT
  5
49
330
1D
100
AcDbEntity
  8
0
  6
ByLayer
420
5592405
 48
1.0
 60
0
 67
0
370
-1
100
AcDbText
 39
0.0
 10
0.0
 20
1506.5
 30
0.0
 40
14.0
  1
4. ViewBox scaling – large viewBox in small viewport
 50
0.0
 41
1.0
 51
0.0
  7
Standard
 71
0
 72
0
 11
0.0
 21
0.0
 31
0.0
210
0.0
220
0.0
230
1.0
100
AcDbText
 73
0
  0
LWPOLYLINE
  5
4A
330
1D
100
AcDbEntity
  8
0
  6
ByLayer
420
13421772
 48
1.0
 60
0
 67
0
370
-1
100
AcDbPolyline
 90
4
 70
1
 43
0.0
 38
0.0
 39
0.0
210
0.0
220
0.0
230
1.0
 10
0.0
 20
1494.0
 40
0.0
 41
0.0
 42
0.0
 10
200.0
 20
1494.0
 40
0.0
 41
0.0
 42
0.0
 10
200.0
 20
1394.0
 40
0.0
 41
0.0
 42
0.0
 10
0.0
 20
1394.0
 40
0.0
 41
0.0
 42
0.0
  0
LWPOLYLINE
  5
4B
330
1D
100
AcDbEntity
  8
0
  6
ByLayer
420
32768
 48
1.0
 60
0
 67
0
370
-1
100
AcDbPolyline
 90
2
 70
0
 43
0.0
 38
0.0
 39
0.0
210
0.0
220
0.0
230
1.0
 10
21.5999999999999943
 20
1444.0
 40
0.0
 41
0.0
 42
0.0
 10
178.4000000000000057
 20
1444.0
 40
0.0
 41
0.0
 42
0.0
  0
HATCH
  5
4C
330
1D
100
AcDbEntity
  8
0
  6
ByLayer
420
32768
 48
1.0
 60
0
 67
0
370
-1
100
AcDbHatch
 30
0.0
210
0.0
220
0.0
230
1.0
  2
SOLID
 70
1
 71
0
 91
1
 92
2
 72
0
 73
1
 93
33
 10
166.6400000000000148
 20
1449.8800000000001091
 10
167.375
 20
1449.5125000000000455
 10
168.1100011215210088
 20
1449.1449994392396547
 10
168.8449999999999989
 20
1448.7775000000001455
 10
169.5800000000000125
 20
1448.4099999999998545
 10
170.3150005607604953
 20
1448.0424997196196273
 10
171.0500000000000114
 20
1447.6749999999999545
 10
171.7849999999999966
 20
1447.3074999999998909
 10
172.5200000000000102
 20
1446.9400000000000546
 10
173.255000560760493
 20
1446.5724997196198274
 10
173.9900000000000091
 20
1446.2049999999999272
 10
174.7249999999999943
 20
1445.837500140190059
 10
175.460000000000008
 20
1445.4700000000000273
 10
176.1949999999999932
 20
1445.1024998598099955
 10
176.9300000000000068
 20
1444.7350002102853068
 10
177.664999999999992
 20
1444.367500105142426
 10
178.4000000000000057
 20
1444.0
 10
177.664999999999992
 20
1443.6324988784790548
 10
176.9300000000000068
 20
1443.2649988784789912
 10
176.1950011215209884
 20
1442.8974988784789275
 10
175.4600005607605056
 20
1442.5299991588592547
 10
174.7249999999999943
 20
1442.1624988784790276
 10
173.9900011215210043
 20
1441.7949994392395183
 10
173.2549994392394979
 20
1441.4274988784791276
 10
172.5200005607605078
 20
1441.0599994392396184
 10
171.7850011215209918
 20
1440.6924997196197182
 10
171.0499997196197626
 20
1440.324999439239491
 10
170.3150005607604953
 20
1439.9574997196195909
 10
169.5800011215210077
 20
1439.5900000000001455
 10
168.8449998598098887
 20
1439.2224994392395274
 10
168.1100005607605112
 20
1438.8550000000000182
 10
167.3749992990493922
 20
1438.4874994392394001
 10
166.6400000000000148
 20
1438.1199999999998909
 97
0
 75
0
 76
1
 47
0.0
 98
0
  0
LWPOLYLINE
  5
4D
330
1D
100
AcDbEntity
  8
0
  6
ByLayer
420
32768
 48
1.0
 60
0
 67
0
370
-1
100
AcDbPolyline
 90
33
 70
1
 43
0.0
 38
0.0
 39
0.0
210
0.0
220
0.0
230
1.0
 10
166.6400000000000148
 20
1449.8800000000001091
 40
0.0
 41
0.0
 42
0.0
 10
167.375
 20
1449.5125000000000455
 40
0.0
 41
0.0
 42
0.0
 10
168.1100011215210088
 20
1449.1449994392396547
 40
0.0
 41
0.0
 42
0.0
 10
168.8449999999999989
 20
1448.7775000000001455
 40
0.0
 41
0.0
 42
0.0
 10
169.5800000000000125
 20
1448.4099999999998545
 40
0.0
 41
0.0
 42
0.0
 10
170.3150005607604953
 20
1448.0424997196196273
 40
0.0
 41
0.0
 42
0.0
 10
171.0500000000000114
 20
1447.6749999999999545
 40
0.0
 41
0.0
 42
0.0
 10
171.7849999999999966
 20
1447.3074999999998909
 40
0.0
 41
0.0
 42
0.0
 10
172.5200000000000102
 20
1446.9400000000000546
 40
0.0
 41
0.0
 42
0.0
 10
173.255000560760493
 20
1446.5724997196198274
 40
0.0
 41
0.0
 42
0.0
 10
173.9900000000000091
 20
1446.2049999999999272
 40
0.0
 41
0.0
 42
0.0
 10
174.7249999999999943
 20
1445.837500140190059
 40
0.0
 41
0.0
 42
0.0
 10
175.460000000000008
 20
1445.4700000000000273
 40
0.0
 41
0.0
 42
0.0
 10
176.1949999999999932
 20
1445.1024998598099955
 40
0.0
 41
0.0
 42
0.0
 10
176.9300000000000068
 20
1444.7350002102853068
 40
0.0
 41
0.0
 42
0.0
 10
177.664999999999992
 20
1444.367500105142426
 40
0.0
 41
0.0
 42
0.0
 10
178.4000000000000057
 20
1444.0
 40
0.0
 41
0.0
 42
0.0
 10
177.664999999999992
 20
1443.6324988784790548
 40
0.0
 41
0.0
 42
0.0
 10
176.9300000000000068
 20
1443.2649988784789912
 40
0.0
 41
0.0
 42
0.0
 10
176.1950011215209884
 20
1442.8974988784789275
 40
0.0
 41
0.0
 42
0.0
 10
175.4600005607605056
 20
1442.5299991588592547
 40
0.0
 41
0.0
 42
0.0
 10
174.7249999999999943
 20
1442.1624988784790276
 40
0.0
 41
0.0
 42
0.0
 10
173.9900011215210043
 20
1441.7949994392395183
 40
0.0
 41
0.0
 42
0.0
 10
173.2549994392394979
 20
1441.4274988784791276
 40
0.0
 41
0.0
 42
0.0
 10
172.5200005607605078
 20
1441.0599994392396184
 40
0.0
 41
0.0
 42
0.0
 10
171.7850011215209918
 20
1440.6924997196197182
 40
0.0
 41
0.0
 42
0.0
 10
171.0499997196197626
 20
1440.324999439239491
 40
0.0
 41
0.0
 42
0.0
 10
170.3150005607604953
 20
1439.9574997196195909
 40
0.0
 41
0.0
 42
0.0
 10
169.5800011215210077
 20
1439.5900000000001455
 40
0.0
 41
0.0
 42
0.0
 10
168.8449998598098887
 20
1439.2224994392395274
 40
0.0
 41
0.0
 42
0.0
 10
168.1100005607605112
 20
1438.8550000000000182
 40
0.0
 41
0.0
 42
0.0
 10
167.3749992990493922
 20
1438.4874994392394001
 40
0.0
 41
0.0
 42
0.0
 10
166.6400000000000148
 20
1438.1199999999998909
 40
0.0
 41
0.0
 42
0.0
  0
TEXT
  5
4E
330
1D
100
AcDbEntity
  8
0
  6
ByLayer
420
5592405
 48
1.0
 60
0
 67
0
370
-1
100
AcDbText
 39
0.0
 10
0.0
 20
1354.5
 30
0.0
 40
14.0
  1
5. ViewBox scaling – small viewBox in large viewport
 50
0.0
 41
1.0
 51
0.0
  7
Standard
 71
0
 72
0
 11
0.0
 21
0.0
 31
0.0
210
0.0
220
0.0
230
1.0
100
AcDbText
 73
0
  0
LWPOLYLINE
  5
4F
330
1D
100
AcDbEntity
  8
0
  6
ByLayer
420
13421772
 48
1.0
 60
0
 67
0
370
-1
100
AcDbPolyline
 90
4
 70
1
 43
0.0
 38
0.0
 39
0.0
210
0.0
220
0.0
230
1.0
 10
0.0
 20
1342.0
 40
0.0
 41
0.0
 42
0.0
 10
400.0
 20
1342.0
 40
0.0
 41
0.0
 42
0.0
 10
400.0
 20
1142.0
 40
0.0
 41
0.0
 42
0.0
 10
0.0
 20
1142.0
 40
0.0
 41
0.0
 42
0.0
  0
LWPOLYLINE
  5
50
330
1D
100
AcDbEntity
  8
0
  6
ByLayer
420
8388736
 48
1.0
 60
0
 67
0
370
-1
100
AcDbPolyline
 90
2
 70
0
 43
0.0
 38
0.0
 39
0.0
210
0.0
220
0.0
230
1.0
 10
41.6000000000000014
 20
1242.0
 40
0.0
 41
0.0
 42
0.0
 10
358.3999999999999773
 20
1242.0
 40
0.0
 41
0.0
 42
0.0
  0
HATCH
  5
51
330
1D
100
AcDbEntity
  8
0
  6
ByLayer
420
8388736
 48
1.0
 60
0
 67
0
370
-1
100
AcDbHatch
 30
0.0
210
0.0
220
0.0
230
1.0
  2
SOLID
 70
1
 71
0
 91
1
 92
2
 72
0
 73
1
 93
33
 10
310.8799999999999955
 20
1265.7599999999999909
 10
313.8499999999999659
 20
1264.2750000000000909
 10
316.8200045318603202
 20
1262.789997734069857
 10
319.7899999999999636
 20
1261.3049999999998363
 10
322.7599999999999909
 20
1259.8200000000001637
 10
325.7300022659301248
 20
1258.3349988670347557
 10
328.6999999999999886
 20
1256.8499999999999091
 10
331.6699999999999591
 20
1255.3650000000000091
 10
334.6399999999999864
 20
1253.8800000000001091
 10
337.6100022659301771
 20
1252.3949988670349285
 10
340.5799999999999841
 20
1250.9099999999998545
 10
343.5499999999999545
 20
1249.4250005664825949
 10
346.5199999999999818
 20
1247.9400000000000546
 10
349.4899999999999523
 20
1246.4549994335175143
 10
352.4599999999999795
 20
1244.9700008497238741
 10
355.42999999999995
 20
1243.4850004248619371
 10
358.3999999999999773
 20
1242.0
 10
355.42999999999995
 20
1240.5149954681396594
 10
352.4599999999999795
 20
1239.029995468139532
 10
349.4900045318603361
 20
1237.5449954681396321
 10
346.5200022659301453
 20
1236.0599966011047854
 10
343.5499999999999545
 20
1234.5749954681396048
 10
340.5800045318603111
 20
1233.0899977340698115
 10
337.6099977340697933
 20
1231.6049954681398049
 10
334.6400022659301499
 20
1230.1199977340697842
 10
331.6700045318603429
 20
1228.6349988670349376
 10
328.6999988670348785
 20
1227.1499977340699843
 10
325.7300022659301248
 20
1225.6649988670349103
 10
322.7600045318603179
 20
1224.1799999999998363
 10
319.789999433517437
 20
1222.6949977340698297
 10
316.8200022659301567
 20
1221.2100000000000364
 10
313.8499971675872757
 20
1219.7249977340698024
 10
310.8799999999999955
 20
1218.2400000000000091
 97
0
 75
0
 76
1
 47
0.0
 98
0
  0
LWPOLYLINE
  5
52
330
1D
100
AcDbEntity
  8
0
  6
ByLayer
420
8388736
 48
1.0
 60
0
 67
0
370
-1
100
AcDbPolyline
 90
33
 70
1
 43
0.0
 38
0.0
 39
0.0
210
0.0
220
0.0
230
1.0
 10
310.8799999999999955
 20
1265.7599999999999909
 40
0.0
 41
0.0
 42
0.0
 10
313.8499999999999659
 20
1264.2750000000000909
 40
0.0
 41
0.0
 42
0.0
 10
316.8200045318603202
 20
1262.789997734069857
 40
0.0
 41
0.0
 42
0.0
 10
319.7899999999999636
 20
1261.3049999999998363
 40
0.0
 41
0.0
 42
0.0
 10
322.7599999999999909
 20
1259.8200000000001637
 40
0.0
 41
0.0
 42
0.0
 10
325.7300022659301248
 20
1258.3349988670347557
 40
0.0
 41
0.0
 42
0.0
 10
328.6999999999999886
 20
1256.8499999999999091
 40
0.0
 41
0.0
 42
0.0
 10
331.6699999999999591
 20
1255.3650000000000091
 40
0.0
 41
0.0
 42
0.0
 10
334.6399999999999864
 20
1253.8800000000001091
 40
0.0
 41
0.0
 42
0.0
 10
337.6100022659301771
 20
1252.3949988670349285
 40
0.0
 41
0.0
 42
0.0
 10
340.5799999999999841
 20
1250.9099999999998545
 40
0.0
 41
0.0
 42
0.0
 10
343.5499999999999545
 20
1249.4250005664825949
 40
0.0
 41
0.0
 42
0.0
 10
346.5199999999999818
 20
1247.9400000000000546
 40
0.0
 41
0.0
 42
0.0
 10
349.4899999999999523
 20
1246.4549994335175143
 40
0.0
 41
0.0
 42
0.0
 10
352.4599999999999795
 20
1244.9700008497238741
 40
0.0
 41
0.0
 42
0.0
 10
355.42999999999995
 20
1243.4850004248619371
 40
0.0
 41
0.0
 42
0.0
 10
358.3999999999999773
 20
1242.0
 40
0.0
 41
0.0
 42
0.0
 10
355.42999999999995
 20
1240.5149954681396594
 40
0.0
 41
0.0
 42
0.0
 10
352.4599999999999795
 20
1239.029995468139532
 40
0.0
 41
0.0
 42
0.0
 10
349.4900045318603361
 20
1237.5449954681396321
 40
0.0
 41
0.0
 42
0.0
 10
346.5200022659301453
 20
1236.0599966011047854
 40
0.0
 41
0.0
 42
0.0
 10
343.5499999999999545
 20
1234.5749954681396048
 40
0.0
 41
0.0
 42
0.0
 10
340.5800045318603111
 20
1233.0899977340698115
 40
0.0
 41
0.0
 42
0.0
 10
337.6099977340697933
 20
1231.6049954681398049
 40
0.0
 41
0.0
 42
0.0
 10
334.6400022659301499
 20
1230.1199977340697842
 40
0.0
 41
0.0
 42
0.0
 10
331.6700045318603429
 20
1228.6349988670349376
 40
0.0
 41
0.0
 42
0.0
 10
328.6999988670348785
 20
1227.1499977340699843
 40
0.0
 41
0.0
 42
0.0
 10
325.7300022659301248
 20
1225.6649988670349103
 40
0.0
 41
0.0
 42
0.0
 10
322.7600045318603179
 20
1224.1799999999998363
 40
0.0
 41
0.0
 42
0.0
 10
319.789999433517437
 20
1222.6949977340698297
 40
0.0
 41
0.0
 42
0.0
 10
316.8200022659301567
 20
1221.2100000000000364
 40
0.0
 41
0.0
 42
0.0
 10
313.8499971675872757
 20
1219.7249977340698024
 40
0.0
 41
0.0
 42
0.0
 10
310.8799999999999955
 20
1218.2400000000000091
 40
0.0
 41
0.0
 42
0.0
  0
TEXT
  5
53
330
1D
100
AcDbEntity
  8
0
  6
ByLayer
420
5592405
 48
1.0
 60
0
 67
0
370
-1
100
AcDbText
 39
0.0
 10
0.0
 20
1102.5
 30
0.0
 40
14.0
  1
6. Group transform (scale 2x)
 50
0.0
 41
1.0
 51
0.0
  7
Standard
 71
0
 72
0
 11
0.0
 21
0.0
 31
0.0
210
0.0
220
0.0
230
1.0
100
AcDbText
 73
0
  0
LWPOLYLINE
  5
54
330
1D
100
AcDbEntity
  8
0
  6
ByLayer
420
13421772
 48
1.0
 60
0
 67
0
370
-1
100
AcDbPolyline
 90
4
 70
1
 43
0.0
 38
0.0
 39
0.0
210
0.0
220
0.0
230
1.0
 10
0.0
 20
1090.0
 40
0.0
 41
0.0
 42
0.0
 10
300.0
 20
1090.0
 40
0.0
 41
0.0
 42
0.0
 10
300.0
 20
970.0
 40
0.0
 41
0.0
 42
0.0
 10
0.0
 20
970.0
 40
0.0
 41
0.0
 42
0.0
  0
LWPOLYLINE
  5
55
330
1D
100
AcDbEntity
  8
0
  6
ByLayer
420
32896
 48
1.0
 60
0
 67
0
370
-1
100
AcDbPolyline
 90
2
 70
0
 43
0.0
 38
0.0
 39
0.0
210
0.0
220
0.0
230
1.0
 10
41.0
 20
1029.0
 40
0.0
 41
0.0
 42
0.0
 10
261.0
 20
1029.0
 40
0.0
 41
0.0
 42
0.0
  0
HATCH
  5
56
330
1D
100
AcDbEntity
  8
0
  6
ByLayer
420
32896
 48
1.0
 60
0
 67
0
370
-1
100
AcDbHatch
 30
0.0
210
0.0
220
0.0
230
1.0
  2
SOLID
 70
1
 71
0
 91
1
 92
2
 72
0
 73
1
 93
33
 10
249.0
 20
1035.0
 10
249.75
 20
1034.625
 10
250.5000011444091683
 20
1034.2499994277955011
 10
251.25
 20
1033.875
 10
252.0
 20
1033.5
 10
252.7500005722046126
 20
1033.1249997138977506
 10
253.5
 20
1032.75
 10
254.25
 20
1032.375
 10
255.0
 20
1032.0
 10
255.7500005722046126
 20
1031.6249997138977506
 10
256.5
 20
1031.25
 10
257.25
 20
1030.8750001430512384
 10
258.0
 20
1030.5
 10
258.75
 20
1030.1249998569487616
 10
259.5
 20
1029.7500002145766302
 10
260.25
 20
1029.3750001072883151
 10
261.0
 20
1029.0
 10
260.25
 20
1028.6249988555907748
 10
259.5
 20
1028.2499988555907748
 10
258.7500011444091683
 20
1027.8749988555907748
 10
258.0000005722046126
 20
1027.4999991416930243
 10
257.25
 20
1027.1249988555907748
 10
256.5000011444091683
 20
1026.7499994277955011
 10
255.7499994277953874
 20
1026.3749988555907748
 10
255.0000005722046126
 20
1025.9999994277955011
 10
254.2500011444091683
 20
1025.6249997138977506
 10
253.4999997138976937
 20
1025.2499994277955011
 10
252.7500005722046126
 20
1024.8749997138977506
 10
252.0000011444091683
 20
1024.5
 10
251.2499998569488753
 20
1024.1249994277955011
 10
250.5000005722046126
 20
1023.75
 10
249.7499992847442627
 20
1023.3749994277955011
 10
249.0
 20
1023.0
 97
0
 75
0
 76
1
 47
0.0
 98
0
  0
LWPOLYLINE
  5
57
330
1D
100
AcDbEntity
  8
0
  6
ByLayer
420
32896
 48
1.0
 60
0
 67
0
370
-1
100
AcDbPolyline
 90
33
 70
1
 43
0.0
 38
0.0
 39
0.0
210
0.0
220
0.0
230
1.0
 10
249.0
 20
1035.0
 40
0.0
 41
0.0
 42
0.0
 10
249.75
 20
1034.625
 40
0.0
 41
0.0
 42
0.0
 10
250.5000011444091683
 20
1034.2499994277955011
 40
0.0
 41
0.0
 42
0.0
 10
251.25
 20
1033.875
 40
0.0
 41
0.0
 42
0.0
 10
252.0
 20
1033.5
 40
0.0
 41
0.0
 42
0.0
 10
252.7500005722046126
 20
1033.1249997138977506
 40
0.0
 41
0.0
 42
0.0
 10
253.5
 20
1032.75
 40
0.0
 41
0.0
 42
0.0
 10
254.25
 20
1032.375
 40
0.0
 41
0.0
 42
0.0
 10
255.0
 20
1032.0
 40
0.0
 41
0.0
 42
0.0
 10
255.7500005722046126
 20
1031.6249997138977506
 40
0.0
 41
0.0
 42
0.0
 10
256.5
 20
1031.25
 40
0.0
 41
0.0
 42
0.0
 10
257.25
 20
1030.8750001430512384
 40
0.0
 41
0.0
 42
0.0
 10
258.0
 20
1030.5
 40
0.0
 41
0.0
 42
0.0
 10
258.75
 20
1030.1249998569487616
 40
0.0
 41
0.0
 42
0.0
 10
259.5
 20
1029.7500002145766302
 40
0.0
 41
0.0
 42
0.0
 10
260.25
 20
1029.3750001072883151
 40
0.0
 41
0.0
 42
0.0
 10
261.0
 20
1029.0
 40
0.0
 41
0.0
 42
0.0
 10
260.25
 20
1028.6249988555907748
 40
0.0
 41
0.0
 42
0.0
 10
259.5
 20
1028.2499988555907748
 40
0.0
 41
0.0
 42
0.0
 10
258.7500011444091683
 20
1027.8749988555907748
 40
0.0
 41
0.0
 42
0.0
 10
258.0000005722046126
 20
1027.4999991416930243
 40
0.0
 41
0.0
 42
0.0
 10
257.25
 20
1027.1249988555907748
 40
0.0
 41
0.0
 42
0.0
 10
256.5000011444091683
 20
1026.7499994277955011
 40
0.0
 41
0.0
 42
0.0
 10
255.7499994277953874
 20
1026.3749988555907748
 40
0.0
 41
0.0
 42
0.0
 10
255.0000005722046126
 20
1025.9999994277955011
 40
0.0
 41
0.0
 42
0.0
 10
254.2500011444091683
 20
1025.6249997138977506
 40
0.0
 41
0.0
 42
0.0
 10
253.4999997138976937
 20
1025.2499994277955011
 40
0.0
 41
0.0
 42
0.0
 10
252.7500005722046126
 20
1024.8749997138977506
 40
0.0
 41
0.0
 42
0.0
 10
252.0000011444091683
 20
1024.5
 40
0.0
 41
0.0
 42
0.0
 10
251.2499998569488753
 20
1024.1249994277955011
 40
0.0
 41
0.0
 42
0.0
 10
250.5000005722046126
 20
1023.75
 40
0.0
 41
0.0
 42
0.0
 10
249.7499992847442627
 20
1023.3749994277955011
 40
0.0
 41
0.0
 42
0.0
 10
249.0
 20
1023.0
 40
0.0
 41
0.0
 42
0.0
  0
TEXT
  5
58
330
1D
100
AcDbEntity
  8
0
  6
ByLayer
420
5592405
 48
1.0
 60
0
 67
0
370
-1
100
AcDbText
 39
0.0
 10
0.0
 20
930.5
 30
0.0
 40
14.0
  1
7. Varying stroke widths with same marker
 50
0.0
 41
1.0
 51
0.0
  7
Standard
 71
0
 72
0
 11
0.0
 21
0.0
 31
0.0
210
0.0
220
0.0
230
1.0
100
AcDbText
 73
0
  0
LWPOLYLINE
  5
59
330
1D
100
AcDbEntity
  8
0
  6
ByLayer
420
13421772
 48
1.0
 60
0
 67
0
370
-1
100
AcDbPolyline
 90
4
 70
1
 43
0.0
 38
0.0
 39
0.0
210
0.0
220
0.0
230
1.0
 10
0.0
 20
918.0
 40
0.0
 41
0.0
 42
0.0
 10
300.0
 20
918.0
 40
0.0
 41
0.0
 42
0.0
 10
300.0
 20
798.0
 40
0.0
 41
0.0
 42
0.0
 10
0.0
 20
798.0
 40
0.0
 41
0.0
 42
0.0
  0
LWPOLYLINE
  5
5A
330
1D
100
AcDbEntity
  8
0
  6
ByLayer
420
0
 48
1.0
 60
0
 67
0
370
-1
100
AcDbPolyline
 90
2
 70
0
 43
0.0
 38
0.0
 39
0.0
210
0.0
220
0.0
230
1.0
 10
21.0
 20
897.0
 40
0.0
 41
0.0
 42
0.0
 10
281.0
 20
897.0
 40
0.0
 41
0.0
 42
0.0
  0
HATCH
  5
5B
330
1D
100
AcDbEntity
  8
0
  6
ByLayer
420
0
 48
1.0
 60
0
 67
0
370
-1
100
AcDbHatch
 30
0.0
210
0.0
220
0.0
230
1.0
  2
SOLID
 70
1
 71
0
 91
1
 92
2
 72
0
 73
1
 93
33
 10
275.0
 20
900.0
 10
275.375
 20
899.8125
 10
275.7500005722046126
 20
899.6249997138977506
 10
276.125
 20
899.4375
 10
276.5
 20
899.25
 10
276.8750002861023063
 20
899.0624998569487616
 10
277.25
 20
898.875
 10
277.625
 20
898.6875
 10
278.0
 20
898.5
 10
278.3750002861023063
 20
898.3124998569487616
 10
278.75
 20
898.125
 10
279.125
 20
897.9375000715256192
 10
279.5
 20
897.75
 10
279.875
 20
897.5624999284743808
 10
280.25
 20
897.3750001072883151
 10
280.625
 20
897.1875000536442712
 10
281.0
 20
897.0
 10
280.625
 20
896.8124994277955011
 10
280.25
 20
896.6249994277955011
 10
279.8750005722046126
 20
896.4374994277955011
 10
279.5000002861023063
 20
896.2499995708465121
 10
279.125
 20
896.0624994277955011
 10
278.7500005722046126
 20
895.8749997138977506
 10
278.3749997138976937
 20
895.6874994277955011
 10
278.0000002861023063
 20
895.4999997138977506
 10
277.6250005722046126
 20
895.3124998569487616
 10
277.2499998569488753
 20
895.1249997138977506
 10
276.8750002861023063
 20
894.9374998569487616
 10
276.5000005722046126
 20
894.75
 10
276.1249999284744376
 20
894.5624997138977506
 10
275.7500002861023063
 20
894.375
 10
275.3749996423721313
 20
894.1874997138977506
 10
275.0
 20
894.0
 97
0
 75
0
 76
1
 47
0.0
 98
0
  0
LWPOLYLINE
  5
5C
330
1D
100
AcDbEntity
  8
0
  6
ByLayer
420
0
 48
1.0
 60
0
 67
0
370
-1
100
AcDbPolyline
 90
33
 70
1
 43
0.0
 38
0.0
 39
0.0
210
0.0
220
0.0
230
1.0
 10
275.0
 20
900.0
 40
0.0
 41
0.0
 42
0.0
 10
275.375
 20
899.8125
 40
0.0
 41
0.0
 42
0.0
 10
275.7500005722046126
 20
899.6249997138977506
 40
0.0
 41
0.0
 42
0.0
 10
276.125
 20
899.4375
 40
0.0
 41
0.0
 42
0.0
 10
276.5
 20
899.25
 40
0.0
 41
0.0
 42
0.0
 10
276.8750002861023063
 20
899.0624998569487616
 40
0.0
 41
0.0
 42
0.0
 10
277.25
 20
898.875
 40
0.0
 41
0.0
 42
0.0
 10
277.625
 20
898.6875
 40
0.0
 41
0.0
 42
0.0
 10
278.0
 20
898.5
 40
0.0
 41
0.0
 42
0.0
 10
278.3750002861023063
 20
898.3124998569487616
 40
0.0
 41
0.0
 42
0.0
 10
278.75
 20
898.125
 40
0.0
 41
0.0
 42
0.0
 10
279.125
 20
897.9375000715256192
 40
0.0
 41
0.0
 42
0.0
 10
279.5
 20
897.75
 40
0.0
 41
0.0
 42
0.0
 10
279.875
 20
897.5624999284743808
 40
0.0
 41
0.0
 42
0.0
 10
280.25
 20
897.3750001072883151
 40
0.0
 41
0.0
 42
0.0
 10
280.625
 20
897.1875000536442712
 40
0.0
 41
0.0
 42
0.0
 10
281.0
 20
897.0
 40
0.0
 41
0.0
 42
0.0
 10
280.625
 20
896.8124994277955011
 40
0.0
 41
0.0
 42
0.0
 10
280.25
 20
896.6249994277955011
 40
0.0
 41
0.0
 42
0.0
 10
279.8750005722046126
 20
896.4374994277955011
 40
0.0
 41
0.0
 42
0.0
 10
279.5000002861023063
 20
896.2499995708465121
 40
0.0
 41
0.0
 42
0.0
 10
279.125
 20
896.0624994277955011
 40
0.0
 41
0.0
 42
0.0
 10
278.7500005722046126
 20
895.8749997138977506
 40
0.0
 41
0.0
 42
0.0
 10
278.3749997138976937
 20
895.6874994277955011
 40
0.0
 41
0.0
 42
0.0
 10
278.0000002861023063
 20
895.4999997138977506
 40
0.0
 41
0.0
 42
0.0
 10
277.6250005722046126
 20
895.3124998569487616
 40
0.0
 41
0.0
 42
0.0
 10
277.2499998569488753
 20
895.1249997138977506
 40
0.0
 41
0.0
 42
0.0
 10
276.8750002861023063
 20
894.9374998569487616
 40
0.0
 41
0.0
 42
0.0
 10
276.5000005722046126
 20
894.75
 40
0.0
 41
0.0
 42
0.0
 10
276.1249999284744376
 20
894.5624997138977506
 40
0.0
 41
0.0
 42
0.0
 10
275.7500002861023063
 20
894.375
 40
0.0
 41
0.0
 42
0.0
 10
275.3749996423721313
 20
894.1874997138977506
 40
0.0
 41
0.0
 42
0.0
 10
275.0
 20
894.0
 40
0.0
 41
0.0
 42
0.0
  0
LWPOLYLINE
  5
5D
330
1D
100
AcDbEntity
  8
0
  6
ByLayer
420
0
 48
1.0
 60
0
 67
0
370
-1
100
AcDbPolyline
 90
2
 70
0
 43
0.0
 38
0.0
 39
0.0
210
0.0
220
0.0
230
1.0
 10
21.0
 20
867.0
 40
0.0
 41
0.0
 42
0.0
 10
281.0
 20
867.0
 40
0.0
 41
0.0
 42
0.0
  0
HATCH
  5
5E
330
1D
100
AcDbEntity
  8
0
  6
ByLayer
420
0
 48
1.0
 60
0
 67
0
370
-1
100
AcDbHatch
 30
0.0
210
0.0
220
0.0
230
1.0
  2
SOLID
 70
1
 71
0
 91
1
 92
2
 72
0
 73
1
 93
33
 10
263.0
 20
876.0
 10
264.125
 20
875.4375
 10
265.2500017166137809
 20
874.8749991416930243
 10
266.375
 20
874.3125
 10
267.5
 20
873.75
 10
268.625000858306862
 20
873.1874995708465121
 10
269.75
 20
872.625
 10
270.875
 20
872.0625
 10
272.0
 20
871.5
 10
273.125000858306862
 20
870.9374995708465121
 10
274.25
 20
870.375
 10
275.375
 20
869.8125002145766302
 10
276.5
 20
869.25
 10
277.625
 20
868.6874997854233698
 10
278.75
 20
868.1250003218651727
 10
279.875
 20
867.5625001609325864
 10
281.0
 20
867.0
 10
279.875
 20
866.4374982833862759
 10
278.75
 20
865.8749982833862759
 10
277.6250017166137809
 20
865.3124982833862759
 10
276.500000858306862
 20
864.7499987125397638
 10
275.375
 20
864.1874982833862759
 10
274.2500017166137809
 20
863.6249991416930243
 10
273.124999141693138
 20
863.0624982833862759
 10
272.000000858306862
 20
862.4999991416930243
 10
270.8750017166137809
 20
861.9374995708465121
 10
269.749999570846569
 20
861.3749991416930243
 10
268.625000858306862
 20
860.8124995708465121
 10
267.5000017166137809
 20
860.25
 10
266.3749997854232561
 20
859.6874991416930243
 10
265.250000858306862
 20
859.125
 10
264.124998927116394
 20
858.5624991416930243
 10
263.0
 20
858.0
 97
0
 75
0
 76
1
 47
0.0
 98
0
  0
LWPOLYLINE
  5
5F
330
1D
100
AcDbEntity
  8
0
  6
ByLayer
420
0
 48
1.0
 60
0
 67
0
370
-1
100
AcDbPolyline
 90
33
 70
1
 43
0.0
 38
0.0
 39
0.0
210
0.0
220
0.0
230
1.0
 10
263.0
 20
876.0
 40
0.0
 41
0.0
 42
0.0
 10
264.125
 20
875.4375
 40
0.0
 41
0.0
 42
0.0
 10
265.2500017166137809
 20
874.8749991416930243
 40
0.0
 41
0.0
 42
0.0
 10
266.375
 20
874.3125
 40
0.0
 41
0.0
 42
0.0
 10
267.5
 20
873.75
 40
0.0
 41
0.0
 42
0.0
 10
268.625000858306862
 20
873.1874995708465121
 40
0.0
 41
0.0
 42
0.0
 10
269.75
 20
872.625
 40
0.0
 41
0.0
 42
0.0
 10
270.875
 20
872.0625
 40
0.0
 41
0.0
 42
0.0
 10
272.0
 20
871.5
 40
0.0
 41
0.0
 42
0.0
 10
273.125000858306862
 20
870.9374995708465121
 40
0.0
 41
0.0
 42
0.0
 10
274.25
 20
870.375
 40
0.0
 41
0.0
 42
0.0
 10
275.375
 20
869.8125002145766302
 40
0.0
 41
0.0
 42
0.0
 10
276.5
 20
869.25
 40
0.0
 41
0.0
 42
0.0
 10
277.625
 20
868.6874997854233698
 40
0.0
 41
0.0
 42
0.0
 10
278.75
 20
868.1250003218651727
 40
0.0
 41
0.0
 42
0.0
 10
279.875
 20
867.5625001609325864
 40
0.0
 41
0.0
 42
0.0
 10
281.0
 20
867.0
 40
0.0
 41
0.0
 42
0.0
 10
279.875
 20
866.4374982833862759
 40
0.0
 41
0.0
 42
0.0
 10
278.75
 20
865.8749982833862759
 40
0.0
 41
0.0
 42
0.0
 10
277.6250017166137809
 20
865.3124982833862759
 40
0.0
 41
0.0
 42
0.0
 10
276.500000858306862
 20
864.7499987125397638
 40
0.0
 41
0.0
 42
0.0
 10
275.375
 20
864.1874982833862759
 40
0.0
 41
0.0
 42
0.0
 10
274.2500017166137809
 20
863.6249991416930243
 40
0.0
 41
0.0
 42
0.0
 10
273.124999141693138
 20
863.0624982833862759
 40
0.0
 41
0.0
 42
0.0
 10
272.000000858306862
 20
862.4999991416930243
 40
0.0
 41
0.0
 42
0.0
 10
270.8750017166137809
 20
861.9374995708465121
 40
0.0
 41
0.0
 42
0.0
 10
269.749999570846569
 20
861.3749991416930243
 40
0.0
 41
0.0
 42
0.0
 10
268.625000858306862
 20
860.8124995708465121
 40
0.0
 41
0.0
 42
0.0
 10
267.5000017166137809
 20
860.25
 40
0.0
 41
0.0
 42
0.0
 10
266.3749997854232561
 20
859.6874991416930243
 40
0.0
 41
0.0
 42
0.0
 10
265.250000858306862
 20
859.125
 40
0.0
 41
0.0
 42
0.0
 10
264.124998927116394
 20
858.5624991416930243
 40
0.0
 41
0.0
 42
0.0
 10
263.0
 20
858.0
 40
0.0
 41
0.0
 42
0.0
  0
LWPOLYLINE
  5
60
330
1D
100
AcDbEntity
  8
0
  6
ByLayer
420
0
 48
1.0
 60
0
 67
0
370
-1
100
AcDbPolyline
 90
2
 70
0
 43
0.0
 38
0.0
 39
0.0
210
0.0
220
0.0
230
1.0
 10
21.0
 20
827.0
 40
0.0
 41
0.0
 42
0.0
 10
281.0
 20
827.0
 40
0.0
 41
0.0
 42
0.0
  0
HATCH
  5
61
330
1D
100
AcDbEntity
  8
0
  6
ByLayer
420
0
 48
1.0
 60
0
 67
0
370
-1
100
AcDbHatch
 30
0.0
210
0.0
220
0.0
230
1.0
  2
SOLID
 70
1
 71
0
 91
1
 92
2
 72
0
 73
1
 93
33
 10
245.0
 20
845.0
 10
247.25
 20
843.875
 10
249.5000034332275618
 20
842.7499982833862759
 10
251.75
 20
841.625
 10
254.0
 20
840.5
 10
256.2500017166137809
 20
839.3749991416930243
 10
258.5
 20
838.25
 10
260.75
 20
837.125
 10
263.0
 20
836.0
 10
265.2500017166137809
 20
834.8749991416930243
 10
267.5
 20
833.75
 10
269.75
 20
832.6250004291534879
 10
272.0
 20
831.5
 10
274.25
 20
830.3749995708465121
 10
276.5
 20
829.2500006437301181
 10
278.75
 20
828.1250003218651727
 10
281.0
 20
827.0
 10
278.75
 20
825.8749965667725519
 10
276.5
 20
824.7499965667725519
 10
274.2500034332275618
 20
823.6249965667725519
 10
272.0000017166137809
 20
822.4999974250793002
 10
269.75
 20
821.3749965667725519
 10
267.5000034332275618
 20
820.2499982833862759
 10
265.2499982833862191
 20
819.1249965667725519
 10
263.0000017166137809
 20
817.9999982833862759
 10
260.7500034332275618
 20
816.8749991416930243
 10
258.499999141693138
 20
815.7499982833862759
 10
256.2500017166137809
 20
814.6249991416930243
 10
254.0000034332275618
 20
813.5
 10
251.749999570846569
 20
812.3749982833862759
 10
249.5000017166137809
 20
811.25
 10
247.2499978542327881
 20
810.1249982833862759
 10
245.0
 20
809.0
 97
0
 75
0
 76
1
 47
0.0
 98
0
  0
LWPOLYLINE
  5
62
330
1D
100
AcDbEntity
  8
0
  6
ByLayer
420
0
 48
1.0
 60
0
 67
0
370
-1
100
AcDbPolyline
 90
33
 70
1
 43
0.0
 38
0.0
 39
0.0
210
0.0
220
0.0
230
1.0
 10
245.0
 20
845.0
 40
0.0
 41
0.0
 42
0.0
 10
247.25
 20
843.875
 40
0.0
 41
0.0
 42
0.0
 10
249.5000034332275618
 20
842.7499982833862759
 40
0.0
 41
0.0
 42
0.0
 10
251.75
 20
841.625
 40
0.0
 41
0.0
 42
0.0
 10
254.0
 20
840.5
 40
0.0
 41
0.0
 42
0.0
 10
256.2500017166137809
 20
839.3749991416930243
 40
0.0
 41
0.0
 42
0.0
 10
258.5
 20
838.25
 40
0.0
 41
0.0
 42
0.0
 10
260.75
 20
837.125
 40
0.0
 41
0.0
 42
0.0
 10
263.0
 20
836.0
 40
0.0
 41
0.0
 42
0.0
 10
265.2500017166137809
 20
834.8749991416930243
 40
0.0
 41
0.0
 42
0.0
 10
267.5
 20
833.75
 40
0.0
 41
0.0
 42
0.0
 10
269.75
 20
832.6250004291534879
 40
0.0
 41
0.0
 42
0.0
 10
272.0
 20
831.5
 40
0.0
 41
0.0
 42
0.0
 10
274.25
 20
830.3749995708465121
 40
0.0
 41
0.0
 42
0.0
 10
276.5
 20
829.2500006437301181
 40
0.0
 41
0.0
 42
0.0
 10
278.75
 20
828.1250003218651727
 40
0.0
 41
0.0
 42
0.0
 10
281.0
 20
827.0
 40
0.0
 41
0.0
 42
0.0
 10
278.75
 20
825.8749965667725519
 40
0.0
 41
0.0
 42
0.0
 10
276.5
 20
824.7499965667725519
 40
0.0
 41
0.0
 42
0.0
 10
274.2500034332275618
 20
823.6249965667725519
 40
0.0
 41
0.0
 42
0.0
 10
272.0000017166137809
 20
822.4999974250793002
 40
0.0
 41
0.0
 42
0.0
 10
269.75
 20
821.3749965667725519
 40
0.0
 41
0.0
 42
0.0
 10
267.5000034332275618
 20
820.2499982833862759
 40
0.0
 41
0.0
 42
0.0
 10
265.2499982833862191
 20
819.1249965667725519
 40
0.0
 41
0.0
 42
0.0
 10
263.0000017166137809
 20
817.9999982833862759
 40
0.0
 41
0.0
 42
0.0
 10
260.7500034332275618
 20
816.8749991416930243
 40
0.0
 41
0.0
 42
0.0
 10
258.499999141693138
 20
815.7499982833862759
 40
0.0
 41
0.0
 42
0.0
 10
256.2500017166137809
 20
814.6249991416930243
 40
0.0
 41
0.0
 42
0.0
 10
254.0000034332275618
 20
813.5
 40
0.0
 41
0.0
 42
0.0
 10
251.749999570846569
 20
812.3749982833862759
 40
0.0
 41
0.0
 42
0.0
 10
249.5000017166137809
 20
811.25
 40
0.0
 41
0.0
 42
0.0
 10
247.2499978542327881
 20
810.1249982833862759
 40
0.0
 41
0.0
 42
0.0
 10
245.0
 20
809.0
 40
0.0
 41
0.0
 42
0.0
  0
TEXT
  5
63
330
1D
100
AcDbEntity
  8
0
  6
ByLayer
420
5592405
 48
1.0
 60
0
 67
0
370
-1
100
AcDbText
 39
0.0
 10
0.0
 20
758.5
 30
0.0
 40
14.0
  1
8. markerUnits="userSpaceOnUse"
 50
0.0
 41
1.0
 51
0.0
  7
Standard
 71
0
 72
0
 11
0.0
 21
0.0
 31
0.0
210
0.0
220
0.0
230
1.0
100
AcDbText
 73
0
  0
LWPOLYLINE
  5
64
330
1D
100
AcDbEntity
  8
0
  6
ByLayer
420
13421772
 48
1.0
 60
0
 67
0
370
-1
100
AcDbPolyline
 90
4
 70
1
 43
0.0
 38
0.0
 39
0.0
210
0.0
220
0.0
230
1.0
 10
0.0
 20
746.0
 40
0.0
 41
0.0
 42
0.0
 10
300.0
 20
746.0
 40
0.0
 41
0.0
 42
0.0
 10
300.0
 20
666.0
 40
0.0
 41
0.0
 42
0.0
 10
0.0
 20
666.0
 40
0.0
 41
0.0
 42
0.0
  0
LWPOLYLINE
  5
65
330
1D
100
AcDbEntity
  8
0
  6
ByLayer
420
128
 48
1.0
 60
0
 67
0
370
-1
100
AcDbPolyline
 90
2
 70
0
 43
0.0
 38
0.0
 39
0.0
210
0.0
220
0.0
230
1.0
 10
31.0
 20
705.0
 40
0.0
 41
0.0
 42
0.0
 10
271.0
 20
705.0
 40
0.0
 41
0.0
 42
0.0
  0
HATCH
  5
66
330
1D
100
AcDbEntity
  8
0
  6
ByLayer
420
128
 48
1.0
 60
0
 67
0
370
-1
100
AcDbHatch
 30
0.0
210
0.0
220
0.0
230
1.0
  2
SOLID
 70
1
 71
0
 91
1
 92
2
 72
0
 73
1
 93
33
 10
256.0
 20
712.5
 10
256.9375
 20
712.03125
 10
257.8750014305114746
 20
711.5624992847442627
 10
258.8125
 20
711.09375
 10
259.75
 20
710.625
 10
260.6875007152557373
 20
710.1562496423721313
 10
261.625
 20
709.6875
 10
262.5625
 20
709.21875
 10
263.5
 20
708.75
 10
264.4375007152557373
 20
708.2812496423721313
 10
265.375
 20
707.8125
 10
266.3125
 20
707.3437501788139343
 10
267.25
 20
706.875
 10
268.1875
 20
706.4062498211860657
 10
269.125
 20
705.9375002682209015
 10
270.0625
 20
705.4687501341104507
 10
271.0
 20
705.0
 10
270.0625
 20
704.5312485694885254
 10
269.125
 20
704.0624985694885254
 10
268.1875014305114746
 20
703.5937485694885254
 10
267.2500007152557373
 20
703.124998927116394
 10
266.3125
 20
702.6562485694885254
 10
265.3750014305114746
 20
702.1874992847442627
 10
264.4374992847442627
 20
701.7187485694885254
 10
263.5000007152557373
 20
701.2499992847442627
 10
262.5625014305114746
 20
700.7812496423721313
 10
261.6249996423721313
 20
700.3124992847442627
 10
260.6875007152557373
 20
699.8437496423721313
 10
259.7500014305114746
 20
699.375
 10
258.8124998211860657
 20
698.9062492847442627
 10
257.8750007152557373
 20
698.4375
 10
256.9374991059303284
 20
697.9687492847442627
 10
256.0
 20
697.5
 97
0
 75
0
 76
1
 47
0.0
 98
0
  0
LWPOLYLINE
  5
67
330
1D
100
AcDbEntity
  8
0
  6
ByLayer
420
128
 48
1.0
 60
0
 67
0
370
-1
100
AcDbPolyline
 90
33
 70
1
 43
0.0
 38
0.0
 39
0.0
210
0.0
220
0.0
230
1.0
 10
256.0
 20
712.5
 40
0.0
 41
0.0
 42
0.0
 10
256.9375
 20
712.03125
 40
0.0
 41
0.0
 42
0.0
 10
257.8750014305114746
 20
711.5624992847442627
 40
0.0
 41
0.0
 42
0.0
 10
258.8125
 20
711.09375
 40
0.0
 41
0.0
 42
0.0
 10
259.75
 20
710.625
 40
0.0
 41
0.0
 42
0.0
 10
260.6875007152557373
 20
710.1562496423721313
 40
0.0
 41
0.0
 42
0.0
 10
261.625
 20
709.6875
 40
0.0
 41
0.0
 42
0.0
 10
262.5625
 20
709.21875
 40
0.0
 41
0.0
 42
0.0
 10
263.5
 20
708.75
 40
0.0
 41
0.0
 42
0.0
 10
264.4375007152557373
 20
708.2812496423721313
 40
0.0
 41
0.0
 42
0.0
 10
265.375
 20
707.8125
 40
0.0
 41
0.0
 42
0.0
 10
266.3125
 20
707.3437501788139343
 40
0.0
 41
0.0
 42
0.0
 10
267.25
 20
706.875
 40
0.0
 41
0.0
 42
0.0
 10
268.1875
 20
706.4062498211860657
 40
0.0
 41
0.0
 42
0.0
 10
269.125
 20
705.9375002682209015
 40
0.0
 41
0.0
 42
0.0
 10
270.0625
 20
705.4687501341104507
 40
0.0
 41
0.0
 42
0.0
 10
271.0
 20
705.0
 40
0.0
 41
0.0
 42
0.0
 10
270.0625
 20
704.5312485694885254
 40
0.0
 41
0.0
 42
0.0
 10
269.125
 20
704.0624985694885254
 40
0.0
 41
0.0
 42
0.0
 10
268.1875014305114746
 20
703.5937485694885254
 40
0.0
 41
0.0
 42
0.0
 10
267.2500007152557373
 20
703.124998927116394
 40
0.0
 41
0.0
 42
0.0
 10
266.3125
 20
702.6562485694885254
 40
0.0
 41
0.0
 42
0.0
 10
265.3750014305114746
 20
702.1874992847442627
 40
0.0
 41
0.0
 42
0.0
 10
264.4374992847442627
 20
701.7187485694885254
 40
0.0
 41
0.0
 42
0.0
 10
263.5000007152557373
 20
701.2499992847442627
 40
0.0
 41
0.0
 42
0.0
 10
262.5625014305114746
 20
700.7812496423721313
 40
0.0
 41
0.0
 42
0.0
 10
261.6249996423721313
 20
700.3124992847442627
 40
0.0
 41
0.0
 42
0.0
 10
260.6875007152557373
 20
699.8437496423721313
 40
0.0
 41
0.0
 42
0.0
 10
259.7500014305114746
 20
699.375
 40
0.0
 41
0.0
 42
0.0
 10
258.8124998211860657
 20
698.9062492847442627
 40
0.0
 41
0.0
 42
0.0
 10
257.8750007152557373
 20
698.4375
 40
0.0
 41
0.0
 42
0.0
 10
256.9374991059303284
 20
697.9687492847442627
 40
0.0
 41
0.0
 42
0.0
 10
256.0
 20
697.5
 40
0.0
 41
0.0
 42
0.0
  0
TEXT
  5
68
330
1D
100
AcDbEntity
  8
0
  6
ByLayer
420
5592405
 48
1.0
 60
0
 67
0
370
-1
100
AcDbText
 39
0.0
 10
0.0
 20
626.5
 30
0.0
 40
14.0
  1
9. SVG with markers as <img> tag
 50
0.0
 41
1.0
 51
0.0
  7
Standard
 71
0
 72
0
 11
0.0
 21
0.0
 31
0.0
210
0.0
220
0.0
230
1.0
100
AcDbText
 73
0
  0
LWPOLYLINE
  5
69
330
1D
100
AcDbEntity
  8
0
  6
ByLayer
420
13421772
 48
1.0
 60
0
 67
0
370
-1
100
AcDbPolyline
 90
4
 70
1
 43
0.0
 38
0.0
 39
0.0
210
0.0
220
0.0
230
1.0
 10
0.0
 20
614.0
 40
0.0
 41
0.0
 42
0.0
 10
200.0
 20
614.0
 40
0.0
 41
0.0
 42
0.0
 10
200.0
 20
534.0
 40
0.0
 41
0.0
 42
0.0
 10
0.0
 20
534.0
 40
0.0
 41
0.0
 42
0.0
  0
LWPOLYLINE
  5
6A
330
1D
100
AcDbEntity
  8
0
  6
ByLayer
420
15022389
 48
1.0
 60
0
 67
0
370
-1
100
AcDbPolyline
 90
2
 70
0
 43
0.0
 38
0.0
 39
0.0
210
0.0
220
0.0
230
1.0
 10
20.0
 20
574.0
 40
0.0
 41
0.0
 42
0.0
 10
180.0
 20
574.0
 40
0.0
 41
0.0
 42
0.0
  0
HATCH
  5
6B
330
1D
100
AcDbEntity
  8
0
  6
ByLayer
420
15022389
 48
1.0
 60
0
 67
0
370
-1
100
AcDbHatch
 30
0.0
210
0.0
220
0.0
230
1.0
  2
SOLID
 70
1
 71
0
 91
1
 92
2
 72
0
 73
1
 93
33
 10
168.0
 20
580.0
 10
168.75
 20
579.625
 10
169.5000011444091683
 20
579.2499994277955011
 10
170.25
 20
578.875
 10
171.0
 20
578.5
 10
171.7500005722045842
 20
578.1249997138977506
 10
172.5
 20
577.75
 10
173.25
 20
577.375
 10
174.0
 20
577.0
 10
174.7500005722045842
 20
576.6249997138977506
 10
175.5
 20
576.25
 10
176.25
 20
575.8750001430512384
 10
177.0
 20
575.5
 10
177.75
 20
575.1249998569487616
 10
178.5
 20
574.7500002145766302
 10
179.25
 20
574.3750001072883151
 10
180.0
 20
574.0
 10
179.25
 20
573.6249988555907748
 10
178.5
 20
573.2499988555907748
 10
177.7500011444091683
 20
572.8749988555907748
 10
177.0000005722045842
 20
572.4999991416930243
 10
176.25
 20
572.1249988555907748
 10
175.5000011444091683
 20
571.7499994277955011
 10
174.7499994277954158
 20
571.3749988555907748
 10
174.0000005722045842
 20
570.9999994277955011
 10
173.2500011444091683
 20
570.6249997138977506
 10
172.4999997138976937
 20
570.2499994277955011
 10
171.7500005722045842
 20
569.8749997138977506
 10
171.0000011444091683
 20
569.5
 10
170.2499998569488469
 20
569.1249994277955011
 10
169.5000005722045842
 20
568.75
 10
168.7499992847442627
 20
568.3749994277955011
 10
168.0
 20
568.0
 97
0
 75
0
 76
1
 47
0.0
 98
0
  0
LWPOLYLINE
  5
6C
330
1D
100
AcDbEntity
  8
0
  6
ByLayer
420
15022389
 48
1.0
 60
0
 67
0
370
-1
100
AcDbPolyline
 90
33
 70
1
 43
0.0
 38
0.0
 39
0.0
210
0.0
220
0.0
230
1.0
 10
168.0
 20
580.0
 40
0.0
 41
0.0
 42
0.0
 10
168.75
 20
579.625
 40
0.0
 41
0.0
 42
0.0
 10
169.5000011444091683
 20
579.2499994277955011
 40
0.0
 41
0.0
 42
0.0
 10
170.25
 20
578.875
 40
0.0
 41
0.0
 42
0.0
 10
171.0
 20
578.5
 40
0.0
 41
0.0
 42
0.0
 10
171.7500005722045842
 20
578.1249997138977506
 40
0.0
 41
0.0
 42
0.0
 10
172.5
 20
577.75
 40
0.0
 41
0.0
 42
0.0
 10
173.25
 20
577.375
 40
0.0
 41
0.0
 42
0.0
 10
174.0
 20
577.0
 40
0.0
 41
0.0
 42
0.0
 10
174.7500005722045842
 20
576.6249997138977506
 40
0.0
 41
0.0
 42
0.0
 10
175.5
 20
576.25
 40
0.0
 41
0.0
 42
0.0
 10
176.25
 20
575.8750001430512384
 40
0.0
 41
0.0
 42
0.0
 10
177.0
 20
575.5
 40
0.0
 41
0.0
 42
0.0
 10
177.75
 20
575.1249998569487616
 40
0.0
 41
0.0
 42
0.0
 10
178.5
 20
574.7500002145766302
 40
0.0
 41
0.0
 42
0.0
 10
179.25
 20
574.3750001072883151
 40
0.0
 41
0.0
 42
0.0
 10
180.0
 20
574.0
 40
0.0
 41
0.0
 42
0.0
 10
179.25
 20
573.6249988555907748
 40
0.0
 41
0.0
 42
0.0
 10
178.5
 20
573.2499988555907748
 40
0.0
 41
0.0
 42
0.0
 10
177.7500011444091683
 20
572.8749988555907748
 40
0.0
 41
0.0
 42
0.0
 10
177.0000005722045842
 20
572.4999991416930243
 40
0.0
 41
0.0
 42
0.0
 10
176.25
 20
572.1249988555907748
 40
0.0
 41
0.0
 42
0.0
 10
175.5000011444091683
 20
571.7499994277955011
 40
0.0
 41
0.0
 42
0.0
 10
174.7499994277954158
 20
571.3749988555907748
 40
0.0
 41
0.0
 42
0.0
 10
174.0000005722045842
 20
570.9999994277955011
 40
0.0
 41
0.0
 42
0.0
 10
173.2500011444091683
 20
570.6249997138977506
 40
0.0
 41
0.0
 42
0.0
 10
172.4999997138976937
 20
570.2499994277955011
 40
0.0
 41
0.0
 42
0.0
 10
171.7500005722045842
 20
569.8749997138977506
 40
0.0
 41
0.0
 42
0.0
 10
171.0000011444091683
 20
569.5
 40
0.0
 41
0.0
 42
0.0
 10
170.2499998569488469
 20
569.1249994277955011
 40
0.0
 41
0.0
 42
0.0
 10
169.5000005722045842
 20
568.75
 40
0.0
 41
0.0
 42
0.0
 10
168.7499992847442627
 20
568.3749994277955011
 40
0.0
 41
0.0
 42
0.0
 10
168.0
 20
568.0
 40
0.0
 41
0.0
 42
0.0
  0
TEXT
  5
6D
330
1D
100
AcDbEntity
  8
0
  6
ByLayer
420
8947848
 48
1.0
 60
0
 67
0
370
-1
100
AcDbText
 39
0.0
 10
29.9999875000003158
 20
521.25
 30
0.0
 40
11.0
  1
img tag (no viewBox scaling)
 50
0.0
 41
1.0
 51
0.0
  7
Standard
 71
0
 72
0
 11
0.0
 21
0.0
 31
0.0
210
0.0
220
0.0
230
1.0
100
AcDbText
 73
0
  0
LWPOLYLINE
  5
6E
330
1D
100
AcDbEntity
  8
0
  6
ByLayer
420
13421772
 48
1.0
 60
0
 67
0
370
-1
100
AcDbPolyline
 90
4
 70
1
 43
0.0
 38
0.0
 39
0.0
210
0.0
220
0.0
230
1.0
 10
224.0
 20
614.0
 40
0.0
 41
0.0
 42
0.0
 10
424.0
 20
614.0
 40
0.0
 41
0.0
 42
0.0
 10
424.0
 20
534.0
 40
0.0
 41
0.0
 42
0.0
 10
224.0
 20
534.0
 40
0.0
 41
0.0
 42
0.0
  0
LWPOLYLINE
  5
6F
330
1D
100
AcDbEntity
  8
0
  6
ByLayer
420
2001125
 48
1.0
 60
0
 67
0
370
-1
100
AcDbPolyline
 90
2
 70
0
 43
0.0
 38
0.0
 39
0.0
210
0.0
220
0.0
230
1.0
 10
244.0
 20
574.0
 40
0.0
 41
0.0
 42
0.0
 10
404.0
 20
574.0
 40
0.0
 41
0.0
 42
0.0
  0
HATCH
  5
70
330
1D
100
AcDbEntity
  8
0
  6
ByLayer
420
2001125
 48
1.0
 60
0
 67
0
370
-1
100
AcDbHatch
 30
0.0
210
0.0
220
0.0
230
1.0
  2
SOLID
 70
1
 71
0
 91
1
 92
2
 72
0
 73
1
 93
33
 10
392.0
 20
580.0
 10
392.75
 20
579.625
 10
393.5000011444091683
 20
579.2499994277955011
 10
394.25
 20
578.875
 10
395.0
 20
578.5
 10
395.7500005722046126
 20
578.1249997138977506
 10
396.5
 20
577.75
 10
397.25
 20
577.375
 10
398.0
 20
577.0
 10
398.7500005722046126
 20
576.6249997138977506
 10
399.5
 20
576.25
 10
400.25
 20
575.8750001430512384
 10
401.0
 20
575.5
 10
401.75
 20
575.1249998569487616
 10
402.5
 20
574.7500002145766302
 10
403.25
 20
574.3750001072883151
 10
404.0
 20
574.0
 10
403.25
 20
573.6249988555907748
 10
402.5
 20
573.2499988555907748
 10
401.7500011444091683
 20
572.8749988555907748
 10
401.0000005722046126
 20
572.4999991416930243
 10
400.25
 20
572.1249988555907748
 10
399.5000011444091683
 20
571.7499994277955011
 10
398.7499994277953874
 20
571.3749988555907748
 10
398.0000005722046126
 20
570.9999994277955011
 10
397.2500011444091683
 20
570.6249997138977506
 10
396.4999997138976937
 20
570.2499994277955011
 10
395.7500005722046126
 20
569.8749997138977506
 10
395.0000011444091683
 20
569.5
 10
394.2499998569488753
 20
569.1249994277955011
 10
393.5000005722046126
 20
568.75
 10
392.7499992847442627
 20
568.3749994277955011
 10
392.0
 20
568.0
 97
0
 75
0
 76
1
 47
0.0
 98
0
  0
LWPOLYLINE
  5
71
330
1D
100
AcDbEntity
  8
0
  6
ByLayer
420
2001125
 48
1.0
 60
0
 67
0
370
-1
100
AcDbPolyline
 90
33
 70
1
 43
0.0
 38
0.0
 39
0.0
210
0.0
220
0.0
230
1.0
 10
392.0
 20
580.0
 40
0.0
 41
0.0
 42
0.0
 10
392.75
 20
579.625
 40
0.0
 41
0.0
 42
0.0
 10
393.5000011444091683
 20
579.2499994277955011
 40
0.0
 41
0.0
 42
0.0
 10
394.25
 20
578.875
 40
0.0
 41
0.0
 42
0.0
 10
395.0
 20
578.5
 40
0.0
 41
0.0
 42
0.0
 10
395.7500005722046126
 20
578.1249997138977506
 40
0.0
 41
0.0
 42
0.0
 10
396.5
 20
577.75
 40
0.0
 41
0.0
 42
0.0
 10
397.25
 20
577.375
 40
0.0
 41
0.0
 42
0.0
 10
398.0
 20
577.0
 40
0.0
 41
0.0
 42
0.0
 10
398.7500005722046126
 20
576.6249997138977506
 40
0.0
 41
0.0
 42
0.0
 10
399.5
 20
576.25
 40
0.0
 41
0.0
 42
0.0
 10
400.25
 20
575.8750001430512384
 40
0.0
 41
0.0
 42
0.0
 10
401.0
 20
575.5
 40
0.0
 41
0.0
 42
0.0
 10
401.75
 20
575.1249998569487616
 40
0.0
 41
0.0
 42
0.0
 10
402.5
 20
574.7500002145766302
 40
0.0
 41
0.0
 42
0.0
 10
403.25
 20
574.3750001072883151
 40
0.0
 41
0.0
 42
0.0
 10
404.0
 20
574.0
 40
0.0
 41
0.0
 42
0.0
 10
403.25
 20
573.6249988555907748
 40
0.0
 41
0.0
 42
0.0
 10
402.5
 20
573.2499988555907748
 40
0.0
 41
0.0
 42
0.0
 10
401.7500011444091683
 20
572.8749988555907748
 40
0.0
 41
0.0
 42
0.0
 10
401.0000005722046126
 20
572.4999991416930243
 40
0.0
 41
0.0
 42
0.0
 10
400.25
 20
572.1249988555907748
 40
0.0
 41
0.0
 42
0.0
 10
399.5000011444091683
 20
571.7499994277955011
 40
0.0
 41
0.0
 42
0.0
 10
398.7499994277953874
 20
571.3749988555907748
 40
0.0
 41
0.0
 42
0.0
 10
398.0000005722046126
 20
570.9999994277955011
 40
0.0
 41
0.0
 42
0.0
 10
397.2500011444091683
 20
570.6249997138977506
 40
0.0
 41
0.0
 42
0.0
 10
396.4999997138976937
 20
570.2499994277955011
 40
0.0
 41
0.0
 42
0.0
 10
395.7500005722046126
 20
569.8749997138977506
 40
0.0
 41
0.0
 42
0.0
 10
395.0000011444091683
 20
569.5
 40
0.0
 41
0.0
 42
0.0
 10
394.2499998569488753
 20
569.1249994277955011
 40
0.0
 41
0.0
 42
0.0
 10
393.5000005722046126
 20
568.75
 40
0.0
 41
0.0
 42
0.0
 10
392.7499992847442627
 20
568.3749994277955011
 40
0.0
 41
0.0
 42
0.0
 10
392.0
 20
568.0
 40
0.0
 41
0.0
 42
0.0
  0
TEXT
  5
72
330
1D
100
AcDbEntity
  8
0
  6
ByLayer
420
8947848
 48
1.0
 60
0
 67
0
370
-1
100
AcDbText
 39
0.0
 10
230.9999875000003158
 20
521.25
 30
0.0
 40
11.0
  1
img tag (viewBox 400x160 ? 200x80)
 50
0.0
 41
1.0
 51
0.0
  7
Standard
 71
0
 72
0
 11
0.0
 21
0.0
 31
0.0
210
0.0
220
0.0
230
1.0
100
AcDbText
 73
0
  0
TEXT
  5
73
330
1D
100
AcDbEntity
  8
0
  6
ByLayer
420
5592405
 48
1.0
 60
0
 67
0
370
-1
100
AcDbText
 39
0.0
 10
0.0
 20
482.5
 30
0.0
 40
14.0
  1
10. SVG with markers as CSS background-image
 50
0.0
 41
1.0
 51
0.0
  7
Standard
 71
0
 72
0
 11
0.0
 21
0.0
 31
0.0
210
0.0
220
0.0
230
1.0
100
AcDbText
 73
0
  0
LWPOLYLINE
  5
74
330
1D
100
AcDbEntity
  8
0
  6
ByLayer
420
13421772
 48
1.0
 60
0
 67
0
370
-1
100
AcDbPolyline
 90
4
 70
1
 43
0.0
 38
0.0
 39
0.0
210
0.0
220
0.0
230
1.0
 10
0.0
 20
470.0
 40
0.0
 41
0.0
 42
0.0
 10
200.0
 20
470.0
 40
0.0
 41
0.0
 42
0.0
 10
200.0
 20
390.0
 40
0.0
 41
0.0
 42
0.0
 10
0.0
 20
390.0
 40
0.0
 41
0.0
 42
0.0
  0
LWPOLYLINE
  5
75
330
1D
100
AcDbEntity
  8
0
  6
ByLayer
420
4431943
 48
1.0
 60
0
 67
0
370
-1
100
AcDbPolyline
 90
2
 70
0
 43
0.0
 38
0.0
 39
0.0
210
0.0
220
0.0
230
1.0
 10
20.0
 20
430.0
 40
0.0
 41
0.0
 42
0.0
 10
180.0
 20
430.0
 40
0.0
 41
0.0
 42
0.0
  0
HATCH
  5
76
330
1D
100
AcDbEntity
  8
0
  6
ByLayer
420
4431943
 48
1.0
 60
0
 67
0
370
-1
100
AcDbHatch
 30
0.0
210
0.0
220
0.0
230
1.0
  2
SOLID
 70
1
 71
0
 91
1
 92
2
 72
0
 73
1
 93
33
 10
168.0
 20
436.0
 10
168.75
 20
435.625
 10
169.5000011444091683
 20
435.2499994277955011
 10
170.25
 20
434.875
 10
171.0
 20
434.5
 10
171.7500005722045842
 20
434.1249997138977506
 10
172.5
 20
433.75
 10
173.25
 20
433.375
 10
174.0
 20
433.0
 10
174.7500005722045842
 20
432.6249997138977506
 10
175.5
 20
432.25
 10
176.25
 20
431.8750001430512384
 10
177.0
 20
431.5
 10
177.75
 20
431.1249998569487616
 10
178.5
 20
430.7500002145766302
 10
179.25
 20
430.3750001072883151
 10
180.0
 20
430.0
 10
179.25
 20
429.6249988555907748
 10
178.5
 20
429.2499988555907748
 10
177.7500011444091683
 20
428.8749988555907748
 10
177.0000005722045842
 20
428.4999991416930243
 10
176.25
 20
428.1249988555907748
 10
175.5000011444091683
 20
427.7499994277955011
 10
174.7499994277954158
 20
427.3749988555907748
 10
174.0000005722045842
 20
426.9999994277955011
 10
173.2500011444091683
 20
426.6249997138977506
 10
172.4999997138976937
 20
426.2499994277955011
 10
171.7500005722045842
 20
425.8749997138977506
 10
171.0000011444091683
 20
425.5
 10
170.2499998569488469
 20
425.1249994277955011
 10
169.5000005722045842
 20
424.75
 10
168.7499992847442627
 20
424.3749994277955011
 10
168.0
 20
424.0
 97
0
 75
0
 76
1
 47
0.0
 98
0
  0
LWPOLYLINE
  5
77
330
1D
100
AcDbEntity
  8
0
  6
ByLayer
420
4431943
 48
1.0
 60
0
 67
0
370
-1
100
AcDbPolyline
 90
33
 70
1
 43
0.0
 38
0.0
 39
0.0
210
0.0
220
0.0
230
1.0
 10
168.0
 20
436.0
 40
0.0
 41
0.0
 42
0.0
 10
168.75
 20
435.625
 40
0.0
 41
0.0
 42
0.0
 10
169.5000011444091683
 20
435.2499994277955011
 40
0.0
 41
0.0
 42
0.0
 10
170.25
 20
434.875
 40
0.0
 41
0.0
 42
0.0
 10
171.0
 20
434.5
 40
0.0
 41
0.0
 42
0.0
 10
171.7500005722045842
 20
434.1249997138977506
 40
0.0
 41
0.0
 42
0.0
 10
172.5
 20
433.75
 40
0.0
 41
0.0
 42
0.0
 10
173.25
 20
433.375
 40
0.0
 41
0.0
 42
0.0
 10
174.0
 20
433.0
 40
0.0
 41
0.0
 42
0.0
 10
174.7500005722045842
 20
432.6249997138977506
 40
0.0
 41
0.0
 42
0.0
 10
175.5
 20
432.25
 40
0.0
 41
0.0
 42
0.0
 10
176.25
 20
431.8750001430512384
 40
0.0
 41
0.0
 42
0.0
 10
177.0
 20
431.5
 40
0.0
 41
0.0
 42
0.0
 10
177.75
 20
431.1249998569487616
 40
0.0
 41
0.0
 42
0.0
 10
178.5
 20
430.7500002145766302
 40
0.0
 41
0.0
 42
0.0
 10
179.25
 20
430.3750001072883151
 40
0.0
 41
0.0
 42
0.0
 10
180.0
 20
430.0
 40
0.0
 41
0.0
 42
0.0
 10
179.25
 20
429.6249988555907748
 40
0.0
 41
0.0
 42
0.0
 10
178.5
 20
429.2499988555907748
 40
0.0
 41
0.0
 42
0.0
 10
177.7500011444091683
 20
428.8749988555907748
 40
0.0
 41
0.0
 42
0.0
 10
177.0000005722045842
 20
428.4999991416930243
 40
0.0
 41
0.0
 42
0.0
 10
176.25
 20
428.1249988555907748
 40
0.0
 41
0.0
 42
0.0
 10
175.5000011444091683
 20
427.7499994277955011
 40
0.0
 41
0.0
 42
0.0
 10
174.7499994277954158
 20
427.3749988555907748
 40
0.0
 41
0.0
 42
0.0
 10
174.0000005722045842
 20
426.9999994277955011
 40
0.0
 41
0.0
 42
0.0
 10
173.2500011444091683
 20
426.6249997138977506
 40
0.0
 41
0.0
 42
0.0
 10
172.4999997138976937
 20
426.2499994277955011
 40
0.0
 41
0.0
 42
0.0
 10
171.7500005722045842
 20
425.8749997138977506
 40
0.0
 41
0.0
 42
0.0
 10
171.0000011444091683
 20
425.5
 40
0.0
 41
0.0
 42
0.0
 10
170.2499998569488469
 20
425.1249994277955011
 40
0.0
 41
0.0
 42
0.0
 10
169.5000005722045842
 20
424.75
 40
0.0
 41
0.0
 42
0.0
 10
168.7499992847442627
 20
424.3749994277955011
 40
0.0
 41
0.0
 42
0.0
 10
168.0
 20
424.0
 40
0.0
 41
0.0
 42
0.0
  0
TEXT
  5
78
330
1D
100
AcDbEntity
  8
0
  6
ByLayer
420
8947848
 48
1.0
 60
0
 67
0
370
-1
100
AcDbText
 39
0.0
 10
1.9999624999982188
 20
377.25
 30
0.0
 40
11.0
  1
background-image (no viewBox scaling)
 50
0.0
 41
1.0
 51
0.0
  7
Standard
 71
0
 72
0
 11
0.0
 21
0.0
 31
0.0
210
0.0
220
0.0
230
1.0
100
AcDbText
 73
0
  0
TEXT
  5
79
330
1D
100
AcDbEntity
  8
0
  6
ByLayer
420
5592405
 48
1.0
 60
0
 67
0
370
-1
100
AcDbText
 39
0.0
 10
0.0
 20
338.5
 30
0.0
 40
14.0
  1
11. Curved path with marker-start and marker-end
 50
0.0
 41
1.0
 51
0.0
  7
Standard
 71
0
 72
0
 11
0.0
 21
0.0
 31
0.0
210
0.0
220
0.0
230
1.0
100
AcDbText
 73
0
  0
LWPOLYLINE
  5
7A
330
1D
100
AcDbEntity
  8
0
  6
ByLayer
420
13421772
 48
1.0
 60
0
 67
0
370
-1
100
AcDbPolyline
 90
4
 70
1
 43
0.0
 38
0.0
 39
0.0
210
0.0
220
0.0
230
1.0
 10
0.0
 20
326.0
 40
0.0
 41
0.0
 42
0.0
 10
300.0
 20
326.0
 40
0.0
 41
0.0
 42
0.0
 10
300.0
 20
206.0
 40
0.0
 41
0.0
 42
0.0
 10
0.0
 20
206.0
 40
0.0
 41
0.0
 42
0.0
  0
LWPOLYLINE
  5
7B
330
1D
100
AcDbEntity
  8
0
  6
ByLayer
420
15277667
 48
1.0
 60
0
 67
0
370
-1
100
AcDbPolyline
 90
148
 70
0
 43
0.0
 38
0.0
 39
0.0
210
0.0
220
0.0
230
1.0
 10
21.0
 20
225.0
 40
0.0
 41
0.0
 42
0.0
 10
22.4696426391601563
 20
226.3488388061523438
 40
0.0
 41
0.0
 42
0.0
 10
23.9469451904296875
 20
227.6892776489257813
 40
0.0
 41
0.0
 42
0.0
 10
25.4319839477539063
 20
229.0211410522460938
 40
0.0
 41
0.0
 42
0.0
 10
26.924835205078125
 20
230.3442459106445313
 40
0.0
 41
0.0
 42
0.0
 10
28.4255714416503906
 20
231.6584014892578125
 40
0.0
 41
0.0
 42
0.0
 10
29.9342670440673828
 20
232.963409423828125
 40
0.0
 41
0.0
 42
0.0
 10
31.4509925842285156
 20
234.2590713500976563
 40
0.0
 41
0.0
 42
0.0
 10
32.9758186340332031
 20
235.545196533203125
 40
0.0
 41
0.0
 42
0.0
 10
34.5088119506835938
 20
236.821563720703125
 40
0.0
 41
0.0
 42
0.0
 10
36.0500450134277344
 20
238.087982177734375
 40
0.0
 41
0.0
 42
0.0
 10
37.5995826721191406
 20
239.3442230224609375
 40
0.0
 41
0.0
 42
0.0
 10
39.1574821472167969
 20
240.5900726318359375
 40
0.0
 41
0.0
 42
0.0
 10
40.72381591796875
 20
241.8253097534179688
 40
0.0
 41
0.0
 42
0.0
 10
42.2986373901367188
 20
243.0497055053710938
 40
0.0
 41
0.0
 42
0.0
 10
43.8820571899414063
 20
244.2629547119140625
 40
0.0
 41
0.0
 42
0.0
 10
45.4741477966308594
 20
245.4648056030273438
 40
0.0
 41
0.0
 42
0.0
 10
47.0749053955078125
 20
246.65509033203125
 40
0.0
 41
0.0
 42
0.0
 10
48.6843795776367188
 20
247.8335494995117188
 40
0.0
 41
0.0
 42
0.0
 10
50.3026237487792969
 20
248.9999465942382813
 40
0.0
 41
0.0
 42
0.0
 10
51.9296760559082031
 20
250.154022216796875
 40
0.0
 41
0.0
 42
0.0
 10
53.5656929016113281
 20
251.2953567504882813
 40
0.0
 41
0.0
 42
0.0
 10
55.2106857299804688
 20
252.4237213134765625
 40
0.0
 41
0.0
 42
0.0
 10
56.8646125793457031
 20
253.5389404296875
 40
0.0
 41
0.0
 42
0.0
 10
58.5275001525878906
 20
254.6407546997070313
 40
0.0
 41
0.0
 42
0.0
 10
60.1995277404785156
 20
255.7286453247070313
 40
0.0
 41
0.0
 42
0.0
 10
61.8806648254394531
 20
256.8024139404296875
 40
0.0
 41
0.0
 42
0.0
 10
63.5708274841308594
 20
257.861907958984375
 40
0.0
 41
0.0
 42
0.0
 10
65.2701797485351563
 20
258.9066085815429688
 40
0.0
 41
0.0
 42
0.0
 10
66.978729248046875
 20
259.9361953735351563
 40
0.0
 41
0.0
 42
0.0
 10
68.6963272094726563
 20
260.9506072998046875
 40
0.0
 41
0.0
 42
0.0
 10
70.4232406616210938
 20
261.9490966796875
 40
0.0
 41
0.0
 42
0.0
 10
72.1592483520507813
 20
262.931671142578125
 40
0.0
 41
0.0
 42
0.0
 10
73.9044189453125
 20
263.8978691101074219
 40
0.0
 41
0.0
 42
0.0
 10
75.6588058471679688
 20
264.847259521484375
 40
0.0
 41
0.0
 42
0.0
 10
77.4222412109375
 20
265.77972412109375
 40
0.0
 41
0.0
 42
0.0
 10
79.1948928833007813
 20
266.694549560546875
 40
0.0
 41
0.0
 42
0.0
 10
80.9765090942382813
 20
267.5917854309082031
 40
0.0
 41
0.0
 42
0.0
 10
82.7672500610351563
 20
268.4706459045410156
 40
0.0
 41
0.0
 42
0.0
 10
84.56689453125
 20
269.3311424255371094
 40
0.0
 41
0.0
 42
0.0
 10
86.3755035400390625
 20
270.1726303100585938
 40
0.0
 41
0.0
 42
0.0
 10
88.192962646484375
 20
270.9948616027832031
 40
0.0
 41
0.0
 42
0.0
 10
90.0191192626953125
 20
271.7975578308105469
 40
0.0
 41
0.0
 42
0.0
 10
91.85406494140625
 20
272.5799789428710938
 40
0.0
 41
0.0
 42
0.0
 10
93.6974868774414063
 20
273.3422050476074219
 40
0.0
 41
0.0
 42
0.0
 10
95.549407958984375
 20
274.0835189819335938
 40
0.0
 41
0.0
 42
0.0
 10
97.4096908569335938
 20
274.8036041259765625
 40
0.0
 41
0.0
 42
0.0
 10
99.278106689453125
 20
275.5022964477539063
 40
0.0
 41
0.0
 42
0.0
 10
101.154632568359375
 20
276.1789512634277344
 40
0.0
 41
0.0
 42
0.0
 10
103.0390701293945313
 20
276.8332023620605469
 40
0.0
 41
0.0
 42
0.0
 10
104.931182861328125
 20
277.4648971557617188
 40
0.0
 41
0.0
 42
0.0
 10
106.8308258056640625
 20
278.0736541748046875
 40
0.0
 41
0.0
 42
0.0
 10
108.7378921508789063
 20
278.6587066650390625
 40
0.0
 41
0.0
 42
0.0
 10
110.6520538330078125
 20
279.2200431823730469
 40
0.0
 41
0.0
 42
0.0
 10
112.5731124877929688
 20
279.7573394775390625
 40
0.0
 41
0.0
 42
0.0
 10
114.5008316040039063
 20
280.270233154296875
 40
0.0
 41
0.0
 42
0.0
 10
116.43499755859375
 20
280.7582626342773438
 40
0.0
 41
0.0
 42
0.0
 10
118.3753662109375
 20
281.2210121154785156
 40
0.0
 41
0.0
 42
0.0
 10
120.3216171264648438
 20
281.6583671569824219
 40
0.0
 41
0.0
 42
0.0
 10
122.2734527587890625
 20
282.0700187683105469
 40
0.0
 41
0.0
 42
0.0
 10
124.2305984497070313
 20
282.4556694030761719
 40
0.0
 41
0.0
 42
0.0
 10
126.1927413940429688
 20
282.8150291442871094
 40
0.0
 41
0.0
 42
0.0
 10
128.159576416015625
 20
283.1478424072265625
 40
0.0
 41
0.0
 42
0.0
 10
130.130767822265625
 20
283.4536781311035156
 40
0.0
 41
0.0
 42
0.0
 10
132.1059722900390625
 20
283.7324485778808594
 40
0.0
 41
0.0
 42
0.0
 10
134.084808349609375
 20
283.9839820861816406
 40
0.0
 41
0.0
 42
0.0
 10
136.0669403076171875
 20
284.2080764770507813
 40
0.0
 41
0.0
 42
0.0
 10
138.0520477294921875
 20
284.4045639038085938
 40
0.0
 41
0.0
 42
0.0
 10
140.0396728515625
 20
284.5732841491699219
 40
0.0
 41
0.0
 42
0.0
 10
142.02947998046875
 20
284.7141036987304688
 40
0.0
 41
0.0
 42
0.0
 10
144.0210723876953125
 20
284.8269081115722656
 40
0.0
 41
0.0
 42
0.0
 10
146.0140380859375
 20
284.9116058349609375
 40
0.0
 41
0.0
 42
0.0
 10
148.0080108642578125
 20
284.9681282043457031
 40
0.0
 41
0.0
 42
0.0
 10
150.0025787353515625
 20
284.9964370727539063
 40
0.0
 41
0.0
 42
0.0
 10
151.99737548828125
 20
284.9964370727539063
 40
0.0
 41
0.0
 42
0.0
 10
153.9919586181640625
 20
284.9681320190429688
 40
0.0
 41
0.0
 42
0.0
 10
155.985931396484375
 20
284.9116058349609375
 40
0.0
 41
0.0
 42
0.0
 10
157.9788970947265625
 20
284.8269081115722656
 40
0.0
 41
0.0
 42
0.0
 10
159.970489501953125
 20
284.7141036987304688
 40
0.0
 41
0.0
 42
0.0
 10
161.960296630859375
 20
284.5732879638671875
 40
0.0
 41
0.0
 42
0.0
 10
163.94793701171875
 20
284.4045677185058594
 40
0.0
 41
0.0
 42
0.0
 10
165.933013916015625
 20
284.2080802917480469
 40
0.0
 41
0.0
 42
0.0
 10
167.9151611328125
 20
283.9839859008789063
 40
0.0
 41
0.0
 42
0.0
 10
169.8939971923828125
 20
283.732452392578125
 40
0.0
 41
0.0
 42
0.0
 10
171.86920166015625
 20
283.4536819458007813
 40
0.0
 41
0.0
 42
0.0
 10
173.8403778076171875
 20
283.1478500366210938
 40
0.0
 41
0.0
 42
0.0
 10
175.80718994140625
 20
282.8150444030761719
 40
0.0
 41
0.0
 42
0.0
 10
177.7693328857421875
 20
282.4556808471679688
 40
0.0
 41
0.0
 42
0.0
 10
179.7264862060546875
 20
282.0700340270996094
 40
0.0
 41
0.0
 42
0.0
 10
181.6783294677734375
 20
281.6583824157714844
 40
0.0
 41
0.0
 42
0.0
 10
183.62457275390625
 20
281.2210273742675781
 40
0.0
 41
0.0
 42
0.0
 10
185.56494140625
 20
280.7582817077636719
 40
0.0
 41
0.0
 42
0.0
 10
187.499114990234375
 20
280.2702484130859375
 40
0.0
 41
0.0
 42
0.0
 10
189.4268341064453125
 20
279.757354736328125
 40
0.0
 41
0.0
 42
0.0
 10
191.3478851318359375
 20
279.220062255859375
 40
0.0
 41
0.0
 42
0.0
 10
193.2620697021484375
 20
278.6587181091308594
 40
0.0
 41
0.0
 42
0.0
 10
195.16912841796875
 20
278.0736656188964844
 40
0.0
 41
0.0
 42
0.0
 10
197.0687713623046875
 20
277.4649124145507813
 40
0.0
 41
0.0
 42
0.0
 10
198.9608917236328125
 20
276.8332176208496094
 40
0.0
 41
0.0
 42
0.0
 10
200.8453216552734375
 20
276.1789703369140625
 40
0.0
 41
0.0
 42
0.0
 10
202.721832275390625
 20
275.5023193359375
 40
0.0
 41
0.0
 42
0.0
 10
204.5902557373046875
 20
274.8036231994628906
 40
0.0
 41
0.0
 42
0.0
 10
206.4505462646484375
 20
274.0835380554199219
 40
0.0
 41
0.0
 42
0.0
 10
208.3024749755859375
 20
273.3422203063964844
 40
0.0
 41
0.0
 42
0.0
 10
210.1458892822265625
 20
272.5800018310546875
 40
0.0
 41
0.0
 42
0.0
 10
211.980804443359375
 20
271.7975883483886719
 40
0.0
 41
0.0
 42
0.0
 10
213.8069610595703125
 20
270.9948997497558594
 40
0.0
 41
0.0
 42
0.0
 10
215.6243896484375
 20
270.1726837158203125
 40
0.0
 41
0.0
 42
0.0
 10
217.4329986572265625
 20
269.3311882019042969
 40
0.0
 41
0.0
 42
0.0
 10
219.232666015625
 20
268.4706878662109375
 40
0.0
 41
0.0
 42
0.0
 10
221.023406982421875
 20
267.591827392578125
 40
0.0
 41
0.0
 42
0.0
 10
222.805023193359375
 20
266.6945915222167969
 40
0.0
 41
0.0
 42
0.0
 10
224.5776824951171875
 20
265.7797622680664063
 40
0.0
 41
0.0
 42
0.0
 10
226.3411102294921875
 20
264.8473014831542969
 40
0.0
 41
0.0
 42
0.0
 10
228.095489501953125
 20
263.897918701171875
 40
0.0
 41
0.0
 42
0.0
 10
229.8406524658203125
 20
262.9317245483398438
 40
0.0
 41
0.0
 42
0.0
 10
231.5766754150390625
 20
261.9491424560546875
 40
0.0
 41
0.0
 42
0.0
 10
233.3035888671875
 20
260.950653076171875
 40
0.0
 41
0.0
 42
0.0
 10
235.0211944580078125
 20
259.9362411499023438
 40
0.0
 41
0.0
 42
0.0
 10
236.7297515869140625
 20
258.906646728515625
 40
0.0
 41
0.0
 42
0.0
 10
238.429107666015625
 20
257.8619537353515625
 40
0.0
 41
0.0
 42
0.0
 10
240.1192626953125
 20
256.802459716796875
 40
0.0
 41
0.0
 42
0.0
 10
241.8003997802734375
 20
255.7286911010742188
 40
0.0
 41
0.0
 42
0.0
 10
243.472442626953125
 20
254.6407928466796875
 40
0.0
 41
0.0
 42
0.0
 10
245.1353302001953125
 20
253.5389785766601563
 40
0.0
 41
0.0
 42
0.0
 10
246.7892608642578125
 20
252.4237518310546875
 40
0.0
 41
0.0
 42
0.0
 10
248.4342498779296875
 20
251.2953948974609375
 40
0.0
 41
0.0
 42
0.0
 10
250.0702667236328125
 20
250.1540603637695313
 40
0.0
 41
0.0
 42
0.0
 10
251.69732666015625
 20
248.9999847412109375
 40
0.0
 41
0.0
 42
0.0
 10
253.315582275390625
 20
247.8335723876953125
 40
0.0
 41
0.0
 42
0.0
 10
254.9250335693359375
 20
246.6551284790039063
 40
0.0
 41
0.0
 42
0.0
 10
256.52581787109375
 20
245.4648361206054688
 40
0.0
 41
0.0
 42
0.0
 10
258.117919921875
 20
244.2629776000976563
 40
0.0
 41
0.0
 42
0.0
 10
259.701324462890625
 20
243.0497283935546875
 40
0.0
 41
0.0
 42
0.0
 10
261.276153564453125
 20
241.8253250122070313
 40
0.0
 41
0.0
 42
0.0
 10
262.842498779296875
 20
240.590087890625
 40
0.0
 41
0.0
 42
0.0
 10
264.400421142578125
 20
239.3442230224609375
 40
0.0
 41
0.0
 42
0.0
 10
265.949951171875
 20
238.087982177734375
 40
0.0
 41
0.0
 42
0.0
 10
267.4912109375
 20
236.8215560913085938
 40
0.0
 41
0.0
 42
0.0
 10
269.024200439453125
 20
235.5451889038085938
 40
0.0
 41
0.0
 42
0.0
 10
270.549041748046875
 20
234.2590408325195313
 40
0.0
 41
0.0
 42
0.0
 10
272.065765380859375
 20
232.96337890625
 40
0.0
 41
0.0
 42
0.0
 10
273.574462890625
 20
231.6583786010742188
 40
0.0
 41
0.0
 42
0.0
 10
275.0751953125
 20
230.3442153930664063
 40
0.0
 41
0.0
 42
0.0
 10
276.568023681640625
 20
229.0211334228515625
 40
0.0
 41
0.0
 42
0.0
 10
278.053070068359375
 20
227.68927001953125
 40
0.0
 41
0.0
 42
0.0
 10
279.530364990234375
 20
226.3488388061523438
 40
0.0
 41
0.0
 42
0.0
 10
281.0
 20
225.0
 40
0.0
 41
0.0
 42
0.0
  0
HATCH
  5
7C
330
1D
100
AcDbEntity
  8
0
  6
ByLayer
420
15277667
 48
1.0
 60
0
 67
0
370
-1
100
AcDbHatch
 30
0.0
210
0.0
220
0.0
230
1.0
  2
SOLID
 70
1
 71
0
 91
1
 92
2
 72
0
 73
1
 93
33
 10
25.7837841067435676
 20
237.5345685853192208
 10
25.4847983738969077
 20
236.7511572056068871
 10
25.1858118672254392
 20
235.9677466690245637
 10
24.8868262036835688
 20
235.1843369062669353
 10
24.5878390819910848
 20
234.4009261935545965
 10
24.2888523472110123
 20
233.6175150592773662
 10
23.9898660686481477
 20
232.8341051203894949
 10
23.6908793685204699
 20
232.0506947945896172
 10
23.3918928618489943
 20
231.2672842580072938
 10
23.0929059336127196
 20
230.4838733345125092
 10
22.793919540995546
 20
229.7004630967774119
 10
22.4949331483783723
 20
228.9170528590423146
 10
22.1959464309244936
 20
228.1336421290036469
 10
21.896959656443471
 20
227.3502312495411388
 10
21.5979733865436998
 20
226.5668215127727763
 10
21.2989866932718499
 20
225.7834107563865018
 10
21.0
 20
225.0
 10
21.8061203332688365
 20
225.230857116612242
 10
22.6122418965796825
 20
225.4617145854845148
 10
23.4183609998065094
 20
225.6925713498369532
 10
24.224481333075353
 20
225.9234284664489678
 10
25.0306022813651978
 20
226.1542857591914526
 10
25.8367213845920176
 20
226.3851425235436636
 10
26.642843562923872
 20
226.616000168545952
 10
27.4489626661506989
 20
226.8468569328983904
 10
28.255082384398527
 20
227.0777138733803895
 10
29.0612039477093802
 20
227.3085713422528897
 10
29.8673236659572083
 20
227.5394282827351162
 10
30.6734427691840352
 20
227.7702850470875546
 10
31.4795643324948813
 20
228.0011425159598275
 10
32.2856846657637249
 20
228.2319996325720695
 10
33.0918062290745709
 20
228.4628571014443423
 10
33.8979253323013978
 20
228.6937138657965534
 97
0
 75
0
 76
1
 47
0.0
 98
0
  0
LWPOLYLINE
  5
7D
330
1D
100
AcDbEntity
  8
0
  6
ByLayer
420
15277667
 48
1.0
 60
0
 67
0
370
-1
100
AcDbPolyline
 90
33
 70
1
 43
0.0
 38
0.0
 39
0.0
210
0.0
220
0.0
230
1.0
 10
25.7837841067435676
 20
237.5345685853192208
 40
0.0
 41
0.0
 42
0.0
 10
25.4847983738969077
 20
236.7511572056068871
 40
0.0
 41
0.0
 42
0.0
 10
25.1858118672254392
 20
235.9677466690245637
 40
0.0
 41
0.0
 42
0.0
 10
24.8868262036835688
 20
235.1843369062669353
 40
0.0
 41
0.0
 42
0.0
 10
24.5878390819910848
 20
234.4009261935545965
 40
0.0
 41
0.0
 42
0.0
 10
24.2888523472110123
 20
233.6175150592773662
 40
0.0
 41
0.0
 42
0.0
 10
23.9898660686481477
 20
232.8341051203894949
 40
0.0
 41
0.0
 42
0.0
 10
23.6908793685204699
 20
232.0506947945896172
 40
0.0
 41
0.0
 42
0.0
 10
23.3918928618489943
 20
231.2672842580072938
 40
0.0
 41
0.0
 42
0.0
 10
23.0929059336127196
 20
230.4838733345125092
 40
0.0
 41
0.0
 42
0.0
 10
22.793919540995546
 20
229.7004630967774119
 40
0.0
 41
0.0
 42
0.0
 10
22.4949331483783723
 20
228.9170528590423146
 40
0.0
 41
0.0
 42
0.0
 10
22.1959464309244936
 20
228.1336421290036469
 40
0.0
 41
0.0
 42
0.0
 10
21.896959656443471
 20
227.3502312495411388
 40
0.0
 41
0.0
 42
0.0
 10
21.5979733865436998
 20
226.5668215127727763
 40
0.0
 41
0.0
 42
0.0
 10
21.2989866932718499
 20
225.7834107563865018
 40
0.0
 41
0.0
 42
0.0
 10
21.0
 20
225.0
 40
0.0
 41
0.0
 42
0.0
 10
21.8061203332688365
 20
225.230857116612242
 40
0.0
 41
0.0
 42
0.0
 10
22.6122418965796825
 20
225.4617145854845148
 40
0.0
 41
0.0
 42
0.0
 10
23.4183609998065094
 20
225.6925713498369532
 40
0.0
 41
0.0
 42
0.0
 10
24.224481333075353
 20
225.9234284664489678
 40
0.0
 41
0.0
 42
0.0
 10
25.0306022813651978
 20
226.1542857591914526
 40
0.0
 41
0.0
 42
0.0
 10
25.8367213845920176
 20
226.3851425235436636
 40
0.0
 41
0.0
 42
0.0
 10
26.642843562923872
 20
226.616000168545952
 40
0.0
 41
0.0
 42
0.0
 10
27.4489626661506989
 20
226.8468569328983904
 40
0.0
 41
0.0
 42
0.0
 10
28.255082384398527
 20
227.0777138733803895
 40
0.0
 41
0.0
 42
0.0
 10
29.0612039477093802
 20
227.3085713422528897
 40
0.0
 41
0.0
 42
0.0
 10
29.8673236659572083
 20
227.5394282827351162
 40
0.0
 41
0.0
 42
0.0
 10
30.6734427691840352
 20
227.7702850470875546
 40
0.0
 41
0.0
 42
0.0
 10
31.4795643324948813
 20
228.0011425159598275
 40
0.0
 41
0.0
 42
0.0
 10
32.2856846657637249
 20
228.2319996325720695
 40
0.0
 41
0.0
 42
0.0
 10
33.0918062290745709
 20
228.4628571014443423
 40
0.0
 41
0.0
 42
0.0
 10
33.8979253323013978
 20
228.6937138657965534
 40
0.0
 41
0.0
 42
0.0
  0
HATCH
  5
7E
330
1D
100
AcDbEntity
  8
0
  6
ByLayer
420
15277667
 48
1.0
 60
0
 67
0
370
-1
100
AcDbHatch
 30
0.0
210
0.0
220
0.0
230
1.0
  2
SOLID
 70
1
 71
0
 91
1
 92
2
 72
0
 73
1
 93
33
 10
276.2162483095594325
 20
237.5345809568650566
 10
276.5152327902119964
 20
236.7511696470610332
 10
276.8142177270786419
 20
235.9677571418660591
 10
277.1132017515170105
 20
235.1843470274529864
 10
277.4121862321695744
 20
234.400935717648963
 10
277.7111709409291507
 20
233.6175238101493505
 10
278.0101551934745885
 20
232.8341130980406888
 10
278.3091396741272092
 20
232.0507017882366654
 10
278.6081241547797163
 20
231.267290478432642
 10
278.9071088635392925
 20
230.4838785709332569
 10
279.2060931160847872
 20
229.7004678588243678
 10
279.5050776934656938
 20
228.9170566544114536
 10
279.8040620773898581
 20
228.133645239216321
 10
280.1030464613140225
 20
227.3502338240211884
 10
280.4020311837875283
 20
226.5668227776945969
 10
280.7010155918937357
 20
225.7834113888472984
 10
281.0
 20
225.0
 10
280.1938794899382401
 20
225.2308583582328083
 10
279.387759753703449
 20
225.4617175595933531
 10
278.5816408605962806
 20
225.6925759871267019
 10
277.7755208962544202
 20
225.9234357861826084
 10
276.9694005449990755
 20
226.1542951636745329
 10
276.1632820388054483
 20
226.3851540127716362
 10
275.3571606509657386
 20
226.6160139533087658
 10
274.5510421447721114
 20
226.8468728024060965
 10
273.744923023557817
 20
227.0777318276348069
 10
272.9388020399567836
 20
227.3085917854971285
 10
272.1326831295244801
 20
227.5394506172692672
 10
271.3265640083102426
 20
227.7703096424979776
 10
270.5204429366434056
 20
228.0011692928499087
 10
269.7143241142769057
 20
228.2320284321322106
 10
268.9082030426100687
 20
228.4628880824841417
 10
268.1020842202435688
 20
228.6937472217666709
 97
0
 75
0
 76
1
 47
0.0
 98
0
  0
LWPOLYLINE
  5
7F
330
1D
100
AcDbEntity
  8
0
  6
ByLayer
420
15277667
 48
1.0
 60
0
 67
0
370
-1
100
AcDbPolyline
 90
33
 70
1
 43
0.0
 38
0.0
 39
0.0
210
0.0
220
0.0
230
1.0
 10
276.2162483095594325
 20
237.5345809568650566
 40
0.0
 41
0.0
 42
0.0
 10
276.5152327902119964
 20
236.7511696470610332
 40
0.0
 41
0.0
 42
0.0
 10
276.8142177270786419
 20
235.9677571418660591
 40
0.0
 41
0.0
 42
0.0
 10
277.1132017515170105
 20
235.1843470274529864
 40
0.0
 41
0.0
 42
0.0
 10
277.4121862321695744
 20
234.400935717648963
 40
0.0
 41
0.0
 42
0.0
 10
277.7111709409291507
 20
233.6175238101493505
 40
0.0
 41
0.0
 42
0.0
 10
278.0101551934745885
 20
232.8341130980406888
 40
0.0
 41
0.0
 42
0.0
 10
278.3091396741272092
 20
232.0507017882366654
 40
0.0
 41
0.0
 42
0.0
 10
278.6081241547797163
 20
231.267290478432642
 40
0.0
 41
0.0
 42
0.0
 10
278.9071088635392925
 20
230.4838785709332569
 40
0.0
 41
0.0
 42
0.0
 10
279.2060931160847872
 20
229.7004678588243678
 40
0.0
 41
0.0
 42
0.0
 10
279.5050776934656938
 20
228.9170566544114536
 40
0.0
 41
0.0
 42
0.0
 10
279.8040620773898581
 20
228.133645239216321
 40
0.0
 41
0.0
 42
0.0
 10
280.1030464613140225
 20
227.3502338240211884
 40
0.0
 41
0.0
 42
0.0
 10
280.4020311837875283
 20
226.5668227776945969
 40
0.0
 41
0.0
 42
0.0
 10
280.7010155918937357
 20
225.7834113888472984
 40
0.0
 41
0.0
 42
0.0
 10
281.0
 20
225.0
 40
0.0
 41
0.0
 42
0.0
 10
280.1938794899382401
 20
225.2308583582328083
 40
0.0
 41
0.0
 42
0.0
 10
279.387759753703449
 20
225.4617175595933531
 40
0.0
 41
0.0
 42
0.0
 10
278.5816408605962806
 20
225.6925759871267019
 40
0.0
 41
0.0
 42
0.0
 10
277.7755208962544202
 20
225.9234357861826084
 40
0.0
 41
0.0
 42
0.0
 10
276.9694005449990755
 20
226.1542951636745329
 40
0.0
 41
0.0
 42
0.0
 10
276.1632820388054483
 20
226.3851540127716362
 40
0.0
 41
0.0
 42
0.0
 10
275.3571606509657386
 20
226.6160139533087658
 40
0.0
 41
0.0
 42
0.0
 10
274.5510421447721114
 20
226.8468728024060965
 40
0.0
 41
0.0
 42
0.0
 10
273.744923023557817
 20
227.0777318276348069
 40
0.0
 41
0.0
 42
0.0
 10
272.9388020399567836
 20
227.3085917854971285
 40
0.0
 41
0.0
 42
0.0
 10
272.1326831295244801
 20
227.5394506172692672
 40
0.0
 41
0.0
 42
0.0
 10
271.3265640083102426
 20
227.7703096424979776
 40
0.0
 41
0.0
 42
0.0
 10
270.5204429366434056
 20
228.0011692928499087
 40
0.0
 41
0.0
 42
0.0
 10
269.7143241142769057
 20
228.2320284321322106
 40
0.0
 41
0.0
 42
0.0
 10
268.9082030426100687
 20
228.4628880824841417
 40
0.0
 41
0.0
 42
0.0
 10
268.1020842202435688
 20
228.6937472217666709
 40
0.0
 41
0.0
 42
0.0
  0
TEXT
  5
80
330
1D
100
AcDbEntity
  8
0
  6
ByLayer
420
5592405
 48
1.0
 60
0
 67
0
370
-1
100
AcDbText
 39
0.0
 10
0.0
 20
166.5
 30
0.0
 40
14.0
  1
12. Multiple paths sharing markers in scaled viewBox
 50
0.0
 41
1.0
 51
0.0
  7
Standard
 71
0
 72
0
 11
0.0
 21
0.0
 31
0.0
210
0.0
220
0.0
230
1.0
100
AcDbText
 73
0
  0
LWPOLYLINE
  5
81
330
1D
100
AcDbEntity
  8
0
  6
ByLayer
420
13421772
 48
1.0
 60
0
 67
0
370
-1
100
AcDbPolyline
 90
4
 70
1
 43
0.0
 38
0.0
 39
0.0
210
0.0
220
0.0
230
1.0
 10
0.0
 20
154.0
 40
0.0
 41
0.0
 42
0.0
 10
300.0
 20
154.0
 40
0.0
 41
0.0
 42
0.0
 10
300.0
 20
4.0
 40
0.0
 41
0.0
 42
0.0
 10
0.0
 20
4.0
 40
0.0
 41
0.0
 42
0.0
  0
LWPOLYLINE
  5
82
330
1D
100
AcDbEntity
  8
0
  6
ByLayer
420
16733986
 48
1.0
 60
0
 67
0
370
-1
100
AcDbPolyline
 90
2
 70
0
 43
0.0
 38
0.0
 39
0.0
210
0.0
220
0.0
230
1.0
 10
26.6666666666666714
 20
116.0
 40
0.0
 41
0.0
 42
0.0
 10
273.3333333333333144
 20
116.0
 40
0.0
 41
0.0
 42
0.0
  0
HATCH
  5
83
330
1D
100
AcDbEntity
  8
0
  6
ByLayer
420
16733986
 48
1.0
 60
0
 67
0
370
-1
100
AcDbHatch
 30
0.0
210
0.0
220
0.0
230
1.0
  2
SOLID
 70
1
 71
0
 91
1
 92
2
 72
0
 73
1
 93
33
 10
261.4933333333333394
 20
121.9200000000000728
 10
262.2333333333332916
 20
121.5499999999999545
 10
262.9733344624837059
 20
121.1799994354248611
 10
263.7133333333333098
 20
120.8099999999999454
 10
264.4533333333333189
 20
120.4400000000000546
 10
265.1933338979085306
 20
120.069999717712335
 10
265.9333333333333371
 20
119.7000000000000455
 10
266.6733333333332894
 20
119.3299999999999272
 10
267.4133333333332985
 20
118.9600000000000364
 10
268.1533338979085102
 20
118.5899997177123169
 10
268.8933333333333167
 20
118.2200000000000273
 10
269.6333333333333258
 20
117.8500001411437097
 10
270.3733333333333348
 20
117.4800000000000182
 10
271.1133333333332871
 20
117.1099998588560993
 10
271.8533333333332962
 20
116.7400002117155964
 10
272.5933333333333053
 20
116.3700001058577982
 10
273.3333333333333144
 20
116.0
 10
272.5933333333333053
 20
115.629998870849704
 10
271.8533333333332962
 20
115.2599988708495857
 10
271.1133344624836923
 20
114.8899988708496949
 10
270.3733338979085374
 20
114.5199991531371779
 10
269.6333333333333258
 20
114.1499988708496858
 10
268.8933344624837218
 20
113.7799994354247701
 10
268.153332768758105
 20
113.4099988708496767
 10
267.4133338979085011
 20
113.039999435424761
 10
266.6733344624836946
 20
112.6699997177124715
 10
265.9333330510457358
 20
112.2999994354247519
 10
265.1933338979085306
 20
111.9299997177124624
 10
264.4533344624837241
 20
111.5599999999999454
 10
263.7133331921895092
 20
111.189999435424852
 10
262.9733338979085033
 20
110.8199999999999363
 10
262.2333326276143453
 20
110.4499994354248429
 10
261.4933333333333394
 20
110.0799999999999272
 97
0
 75
0
 76
1
 47
0.0
 98
0
  0
LWPOLYLINE
  5
84
330
1D
100
AcDbEntity
  8
0
  6
ByLayer
420
16733986
 48
1.0
 60
0
 67
0
370
-1
100
AcDbPolyline
 90
33
 70
1
 43
0.0
 38
0.0
 39
0.0
210
0.0
220
0.0
230
1.0
 10
261.4933333333333394
 20
121.9200000000000728
 40
0.0
 41
0.0
 42
0.0
 10
262.2333333333332916
 20
121.5499999999999545
 40
0.0
 41
0.0
 42
0.0
 10
262.9733344624837059
 20
121.1799994354248611
 40
0.0
 41
0.0
 42
0.0
 10
263.7133333333333098
 20
120.8099999999999454
 40
0.0
 41
0.0
 42
0.0
 10
264.4533333333333189
 20
120.4400000000000546
 40
0.0
 41
0.0
 42
0.0
 10
265.1933338979085306
 20
120.069999717712335
 40
0.0
 41
0.0
 42
0.0
 10
265.9333333333333371
 20
119.7000000000000455
 40
0.0
 41
0.0
 42
0.0
 10
266.6733333333332894
 20
119.3299999999999272
 40
0.0
 41
0.0
 42
0.0
 10
267.4133333333332985
 20
118.9600000000000364
 40
0.0
 41
0.0
 42
0.0
 10
268.1533338979085102
 20
118.5899997177123169
 40
0.0
 41
0.0
 42
0.0
 10
268.8933333333333167
 20
118.2200000000000273
 40
0.0
 41
0.0
 42
0.0
 10
269.6333333333333258
 20
117.8500001411437097
 40
0.0
 41
0.0
 42
0.0
 10
270.3733333333333348
 20
117.4800000000000182
 40
0.0
 41
0.0
 42
0.0
 10
271.1133333333332871
 20
117.1099998588560993
 40
0.0
 41
0.0
 42
0.0
 10
271.8533333333332962
 20
116.7400002117155964
 40
0.0
 41
0.0
 42
0.0
 10
272.5933333333333053
 20
116.3700001058577982
 40
0.0
 41
0.0
 42
0.0
 10
273.3333333333333144
 20
116.0
 40
0.0
 41
0.0
 42
0.0
 10
272.5933333333333053
 20
115.629998870849704
 40
0.0
 41
0.0
 42
0.0
 10
271.8533333333332962
 20
115.2599988708495857
 40
0.0
 41
0.0
 42
0.0
 10
271.1133344624836923
 20
114.8899988708496949
 40
0.0
 41
0.0
 42
0.0
 10
270.3733338979085374
 20
114.5199991531371779
 40
0.0
 41
0.0
 42
0.0
 10
269.6333333333333258
 20
114.1499988708496858
 40
0.0
 41
0.0
 42
0.0
 10
268.8933344624837218
 20
113.7799994354247701
 40
0.0
 41
0.0
 42
0.0
 10
268.153332768758105
 20
113.4099988708496767
 40
0.0
 41
0.0
 42
0.0
 10
267.4133338979085011
 20
113.039999435424761
 40
0.0
 41
0.0
 42
0.0
 10
266.6733344624836946
 20
112.6699997177124715
 40
0.0
 41
0.0
 42
0.0
 10
265.9333330510457358
 20
112.2999994354247519
 40
0.0
 41
0.0
 42
0.0
 10
265.1933338979085306
 20
111.9299997177124624
 40
0.0
 41
0.0
 42
0.0
 10
264.4533344624837241
 20
111.5599999999999454
 40
0.0
 41
0.0
 42
0.0
 10
263.7133331921895092
 20
111.189999435424852
 40
0.0
 41
0.0
 42
0.0
 10
262.9733338979085033
 20
110.8199999999999363
 40
0.0
 41
0.0
 42
0.0
 10
262.2333326276143453
 20
110.4499994354248429
 40
0.0
 41
0.0
 42
0.0
 10
261.4933333333333394
 20
110.0799999999999272
 40
0.0
 41
0.0
 42
0.0
  0
LWPOLYLINE
  5
85
330
1D
100
AcDbEntity
  8
0
  6
ByLayer
420
16733986
 48
1.0
 60
0
 67
0
370
-1
100
AcDbPolyline
 90
2
 70
0
 43
0.0
 38
0.0
 39
0.0
210
0.0
220
0.0
230
1.0
 10
26.6666666666666714
 20
79.0
 40
0.0
 41
0.0
 42
0.0
 10
273.3333333333333144
 20
79.0
 40
0.0
 41
0.0
 42
0.0
  0
HATCH
  5
86
330
1D
100
AcDbEntity
  8
0
  6
ByLayer
420
16733986
 48
1.0
 60
0
 67
0
370
-1
100
AcDbHatch
 30
0.0
210
0.0
220
0.0
230
1.0
  2
SOLID
 70
1
 71
0
 91
1
 92
2
 72
0
 73
1
 93
33
 10
249.6533333333333076
 20
90.8399999999999181
 10
251.1333333333333258
 20
90.0999999999999091
 10
252.6133355916340975
 20
89.3599988708497222
 10
254.0933333333333053
 20
88.6199999999998909
 10
255.5733333333333235
 20
87.8800000000001091
 10
257.05333446248369
 20
87.1399994354248975
 10
258.533333333333303
 20
86.4000000000000909
 10
260.0133333333333212
 20
85.6600000000000819
 10
261.4933333333333394
 20
84.9200000000000728
 10
262.9733344624837059
 20
84.1799994354248611
 10
264.4533333333333189
 20
83.4400000000000546
 10
265.9333333333333371
 20
82.7000002822876468
 10
267.4133333333332985
 20
81.9600000000000364
 10
268.8933333333333167
 20
81.219999717712426
 10
270.3733333333333348
 20
80.4800004234314201
 10
271.8533333333332962
 20
79.7400002117155964
 10
273.3333333333333144
 20
79.0
 10
271.8533333333332962
 20
78.2599977416991806
 10
270.3733333333333348
 20
77.5199977416991715
 10
268.8933355916340702
 20
76.7799977416991624
 10
267.4133344624837036
 20
76.0399983062743559
 10
265.9333333333333371
 20
75.2999977416991442
 10
264.4533355916340724
 20
74.5599988708495403
 10
262.9733322041829524
 20
73.819997741699126
 10
261.4933344624836877
 20
73.0799988708495221
 10
260.0133355916340747
 20
72.3399994354247156
 10
258.5333327687581004
 20
71.5999988708495039
 10
257.05333446248369
 20
70.8599994354246974
 10
255.573335591634077
 20
70.1199999999998909
 10
254.093333051045704
 20
69.379998870849704
 10
252.6133344624836923
 20
68.6400000000001
 10
251.1333319218953193
 20
67.8999988708496858
 10
249.6533333333333076
 20
67.1600000000000819
 97
0
 75
0
 76
1
 47
0.0
 98
0
  0
LWPOLYLINE
  5
87
330
1D
100
AcDbEntity
  8
0
  6
ByLayer
420
16733986
 48
1.0
 60
0
 67
0
370
-1
100
AcDbPolyline
 90
33
 70
1
 43
0.0
 38
0.0
 39
0.0
210
0.0
220
0.0
230
1.0
 10
249.6533333333333076
 20
90.8399999999999181
 40
0.0
 41
0.0
 42
0.0
 10
251.1333333333333258
 20
90.0999999999999091
 40
0.0
 41
0.0
 42
0.0
 10
252.6133355916340975
 20
89.3599988708497222
 40
0.0
 41
0.0
 42
0.0
 10
254.0933333333333053
 20
88.6199999999998909
 40
0.0
 41
0.0
 42
0.0
 10
255.5733333333333235
 20
87.8800000000001091
 40
0.0
 41
0.0
 42
0.0
 10
257.05333446248369
 20
87.1399994354248975
 40
0.0
 41
0.0
 42
0.0
 10
258.533333333333303
 20
86.4000000000000909
 40
0.0
 41
0.0
 42
0.0
 10
260.0133333333333212
 20
85.6600000000000819
 40
0.0
 41
0.0
 42
0.0
 10
261.4933333333333394
 20
84.9200000000000728
 40
0.0
 41
0.0
 42
0.0
 10
262.9733344624837059
 20
84.1799994354248611
 40
0.0
 41
0.0
 42
0.0
 10
264.4533333333333189
 20
83.4400000000000546
 40
0.0
 41
0.0
 42
0.0
 10
265.9333333333333371
 20
82.7000002822876468
 40
0.0
 41
0.0
 42
0.0
 10
267.4133333333332985
 20
81.9600000000000364
 40
0.0
 41
0.0
 42
0.0
 10
268.8933333333333167
 20
81.219999717712426
 40
0.0
 41
0.0
 42
0.0
 10
270.3733333333333348
 20
80.4800004234314201
 40
0.0
 41
0.0
 42
0.0
 10
271.8533333333332962
 20
79.7400002117155964
 40
0.0
 41
0.0
 42
0.0
 10
273.3333333333333144
 20
79.0
 40
0.0
 41
0.0
 42
0.0
 10
271.8533333333332962
 20
78.2599977416991806
 40
0.0
 41
0.0
 42
0.0
 10
270.3733333333333348
 20
77.5199977416991715
 40
0.0
 41
0.0
 42
0.0
 10
268.8933355916340702
 20
76.7799977416991624
 40
0.0
 41
0.0
 42
0.0
 10
267.4133344624837036
 20
76.0399983062743559
 40
0.0
 41
0.0
 42
0.0
 10
265.9333333333333371
 20
75.2999977416991442
 40
0.0
 41
0.0
 42
0.0
 10
264.4533355916340724
 20
74.5599988708495403
 40
0.0
 41
0.0
 42
0.0
 10
262.9733322041829524
 20
73.819997741699126
 40
0.0
 41
0.0
 42
0.0
 10
261.4933344624836877
 20
73.0799988708495221
 40
0.0
 41
0.0
 42
0.0
 10
260.0133355916340747
 20
72.3399994354247156
 40
0.0
 41
0.0
 42
0.0
 10
258.5333327687581004
 20
71.5999988708495039
 40
0.0
 41
0.0
 42
0.0
 10
257.05333446248369
 20
70.8599994354246974
 40
0.0
 41
0.0
 42
0.0
 10
255.573335591634077
 20
70.1199999999998909
 40
0.0
 41
0.0
 42
0.0
 10
254.093333051045704
 20
69.379998870849704
 40
0.0
 41
0.0
 42
0.0
 10
252.6133344624836923
 20
68.6400000000001
 40
0.0
 41
0.0
 42
0.0
 10
251.1333319218953193
 20
67.8999988708496858
 40
0.0
 41
0.0
 42
0.0
 10
249.6533333333333076
 20
67.1600000000000819
 40
0.0
 41
0.0
 42
0.0
  0
LWPOLYLINE
  5
88
330
1D
100
AcDbEntity
  8
0
  6
ByLayer
420
16733986
 48
1.0
 60
0
 67
0
370
-1
100
AcDbPolyline
 90
2
 70
0
 43
0.0
 38
0.0
 39
0.0
210
0.0
220
0.0
230
1.0
 10
26.6666666666666714
 20
42.0
 40
0.0
 41
0.0
 42
0.0
 10
273.3333333333333144
 20
42.0
 40
0.0
 41
0.0
 42
0.0
  0
HATCH
  5
89
330
1D
100
AcDbEntity
  8
0
  6
ByLayer
420
16733986
 48
1.0
 60
0
 67
0
370
-1
100
AcDbHatch
 30
0.0
210
0.0
220
0.0
230
1.0
  2
SOLID
 70
1
 71
0
 91
1
 92
2
 72
0
 73
1
 93
33
 10
225.9733333333333007
 20
65.6800000000000637
 10
228.9333333333333087
 20
64.2000000000000455
 10
231.8933378499348805
 20
62.7199977416994443
 10
234.8533333333332962
 20
61.2399999999997817
 10
237.8133333333333326
 20
59.7600000000002183
 10
240.7733355916341225
 20
58.2799988708497949
 10
243.7333333333332916
 20
56.8000000000001819
 10
246.693333333333328
 20
55.3200000000001637
 10
249.6533333333333076
 20
53.8400000000001455
 10
252.6133355916340975
 20
52.3599988708497222
 10
255.5733333333333235
 20
50.8800000000001091
 10
258.533333333333303
 20
49.4000005645752935
 10
261.4933333333333394
 20
47.9200000000000728
 10
264.4533333333333189
 20
46.439999435424852
 10
267.4133333333332985
 20
44.9600008468628403
 10
270.3733333333333348
 20
43.4800004234311928
 10
273.3333333333333144
 20
42.0
 10
270.3733333333333348
 20
40.5199954833983611
 10
267.4133333333332985
 20
39.0399954833983429
 10
264.4533378499348828
 20
37.5599954833983247
 10
261.4933355916340929
 20
36.0799966125487117
 10
258.533333333333303
 20
34.5999954833982883
 10
255.5733378499348873
 20
33.1199977416990805
 10
252.6133310750325336
 20
31.639995483398252
 10
249.6533355916341179
 20
30.1599977416990441
 10
246.6933378499348919
 20
28.6799988708494311
 10
243.7333322041829433
 20
27.1999977416990077
 10
240.7733355916341225
 20
25.7199988708493947
 10
237.8133378499348964
 20
24.2399999999997817
 10
234.853332768758122
 20
22.7599977416994079
 10
231.8933355916340986
 20
21.2800000000002001
 10
228.9333305104573242
 20
19.7999977416993715
 10
225.9733333333333007
 20
18.3200000000001637
 97
0
 75
0
 76
1
 47
0.0
 98
0
  0
LWPOLYLINE
  5
8A
330
1D
100
AcDbEntity
  8
0
  6
ByLayer
420
16733986
 48
1.0
 60
0
 67
0
370
-1
100
AcDbPolyline
 90
33
 70
1
 43
0.0
 38
0.0
 39
0.0
210
0.0
220
0.0
230
1.0
 10
225.9733333333333007
 20
65.6800000000000637
 40
0.0
 41
0.0
 42
0.0
 10
228.9333333333333087
 20
64.2000000000000455
 40
0.0
 41
0.0
 42
0.0
 10
231.8933378499348805
 20
62.7199977416994443
 40
0.0
 41
0.0
 42
0.0
 10
234.8533333333332962
 20
61.2399999999997817
 40
0.0
 41
0.0
 42
0.0
 10
237.8133333333333326
 20
59.7600000000002183
 40
0.0
 41
0.0
 42
0.0
 10
240.7733355916341225
 20
58.2799988708497949
 40
0.0
 41
0.0
 42
0.0
 10
243.7333333333332916
 20
56.8000000000001819
 40
0.0
 41
0.0
 42
0.0
 10
246.693333333333328
 20
55.3200000000001637
 40
0.0
 41
0.0
 42
0.0
 10
249.6533333333333076
 20
53.8400000000001455
 40
0.0
 41
0.0
 42
0.0
 10
252.6133355916340975
 20
52.3599988708497222
 40
0.0
 41
0.0
 42
0.0
 10
255.5733333333333235
 20
50.8800000000001091
 40
0.0
 41
0.0
 42
0.0
 10
258.533333333333303
 20
49.4000005645752935
 40
0.0
 41
0.0
 42
0.0
 10
261.4933333333333394
 20
47.9200000000000728
 40
0.0
 41
0.0
 42
0.0
 10
264.4533333333333189
 20
46.439999435424852
 40
0.0
 41
0.0
 42
0.0
 10
267.4133333333332985
 20
44.9600008468628403
 40
0.0
 41
0.0
 42
0.0
 10
270.3733333333333348
 20
43.4800004234311928
 40
0.0
 41
0.0
 42
0.0
 10
273.3333333333333144
 20
42.0
 40
0.0
 41
0.0
 42
0.0
 10
270.3733333333333348
 20
40.5199954833983611
 40
0.0
 41
0.0
 42
0.0
 10
267.4133333333332985
 20
39.0399954833983429
 40
0.0
 41
0.0
 42
0.0
 10
264.4533378499348828
 20
37.5599954833983247
 40
0.0
 41
0.0
 42
0.0
 10
261.4933355916340929
 20
36.0799966125487117
 40
0.0
 41
0.0
 42
0.0
 10
258.533333333333303
 20
34.5999954833982883
 40
0.0
 41
0.0
 42
0.0
 10
255.5733378499348873
 20
33.1199977416990805
 40
0.0
 41
0.0
 42
0.0
 10
252.6133310750325336
 20
31.639995483398252
 40
0.0
 41
0.0
 42
0.0
 10
249.6533355916341179
 20
30.1599977416990441
 40
0.0
 41
0.0
 42
0.0
 10
246.6933378499348919
 20
28.6799988708494311
 40
0.0
 41
0.0
 42
0.0
 10
243.7333322041829433
 20
27.1999977416990077
 40
0.0
 41
0.0
 42
0.0
 10
240.7733355916341225
 20
25.7199988708493947
 40
0.0
 41
0.0
 42
0.0
 10
237.8133378499348964
 20
24.2399999999997817
 40
0.0
 41
0.0
 42
0.0
 10
234.853332768758122
 20
22.7599977416994079
 40
0.0
 41
0.0
 42
0.0
 10
231.8933355916340986
 20
21.2800000000002001
 40
0.0
 41
0.0
 42
0.0
 10
228.9333305104573242
 20
19.7999977416993715
 40
0.0
 41
0.0
 42
0.0
 10
225.9733333333333007
 20
18.3200000000001637
 40
0.0
 41
0.0
 42
0.0
  0
ENDSEC
  0
SECTION
  2
OBJECTS
  0
DICTIONARY
  5
1
330
0
100
AcDbDictionary
280
0
281
0
  3
ACAD_COLOR
350
2
  3
ACAD_GROUP
350
3
  3
ACAD_LAYOUT
350
4
  3
ACAD_MATERIAL
350
5
  3
ACAD_SORTENTS
350
6
  3
ACAD_MLEADERSTYLE
350
7
  3
ACAD_MLINESTYLE
350
8
  3
ACAD_TABLESTYLE
350
9
  3
ACAD_PLOTSETTINGS
350
A
  3
AcDbVariableDictionary
350
B
  3
ACAD_SCALELIST
350
C
  3
ACAD_VISUALSTYLE
350
D
  3
ACAD_FIELDLIST
350
E
  3
ACAD_IMAGE_DICT
350
F
  0
DICTIONARY
  5
2
330
1
100
AcDbDictionary
280
0
281
0
  0
DICTIONARY
  5
3
330
1
100
AcDbDictionary
280
0
281
0
  0
DICTIONARY
  5
4
330
1
100
AcDbDictionary
280
0
281
0
  0
DICTIONARY
  5
5
330
1
100
AcDbDictionary
280
0
281
0
  0
DICTIONARY
  5
6
330
1
100
AcDbDictionary
280
0
281
0
  0
DICTIONARY
  5
7
330
1
100
AcDbDictionary
280
0
281
0
  0
DICTIONARY
  5
8
330
1
100
AcDbDictionary
280
0
281
0
  0
DICTIONARY
  5
9
330
1
100
AcDbDictionary
280
0
281
0
  0
DICTIONARY
  5
A
330
1
100
AcDbDictionary
280
0
281
0
  0
DICTIONARY
  5
B
330
1
100
AcDbDictionary
280
0
281
0
  0
DICTIONARY
  5
C
330
1
100
AcDbDictionary
280
0
281
0
  0
DICTIONARY
  5
D
330
1
100
AcDbDictionary
280
0
281
0
  0
DICTIONARY
  5
E
330
1
100
AcDbDictionary
280
0
281
0
  0
DICTIONARY
  5
F
330
1
100
AcDbDictionary
280
0
281
0
  0
ENDSEC
  0
EOF
