0
SECTION
2
HEADER
9
$ACADVER
1
AC1021
9
$LASTSAVEDBY
1
@tarikjabiri/dxf
9
$HANDSEED
5
98
9
$INSUNITS
70
0
9
$CLAYER
8
0
9
$VIEWCTR
10
448
20
472
0
ENDSEC
0
SECTION
2
CLASSES
0
ENDSEC
0
SECTION
2
TABLES
0
TABLE
2
VPORT
5
1
330
0
100
AcDbSymbolTable
70
1
0
VPORT
5
19
330
1
100
AcDbSymbolTableRecord
100
AcDbViewportTableRecord
2
*Active
70
0
10
0
20
0
11
1
21
1
12
448
22
472
13
0
23
0
14
10
24
10
15
10
25
10
16
0
26
0
36
1
17
0
27
0
37
0
40
1643.0329614269008
41
2
42
50
43
0
44
0
50
0
51
0
71
0
72
100
73
1
74
3
75
0
76
1
77
0
78
0
281
0
65
1
110
0
120
0
130
0
111
1
121
0
131
0
112
0
122
1
132
0
79
0
146
0
348
10020
60
7
61
5
292
1
282
1
141
0
142
0
63
250
421
3358443
0
ENDTAB
0
TABLE
2
LTYPE
5
2
330
0
100
AcDbSymbolTable
70
3
0
LTYPE
5
12
330
2
100
AcDbSymbolTableRecord
100
AcDbLinetypeTableRecord
2
ByBlock
70
0
3

72
65
73
0
40
0
0
LTYPE
5
13
330
2
100
AcDbSymbolTableRecord
100
AcDbLinetypeTableRecord
2
ByLayer
70
0
3

72
65
73
0
40
0
0
LTYPE
5
14
330
2
100
AcDbSymbolTableRecord
100
AcDbLinetypeTableRecord
2
Continuous
70
0
3
Solid line
72
65
73
0
40
0
0
ENDTAB
0
TABLE
2
LAYER
5
3
330
0
100
AcDbSymbolTable
70
1
0
LAYER
5
15
330
3
100
AcDbSymbolTableRecord
100
AcDbLayerTableRecord
2
0
70
0
62
7
6
Continuous
370
0
390
0
0
ENDTAB
0
TABLE
2
STYLE
5
4
330
0
100
AcDbSymbolTable
70
2
0
STYLE
5
16
330
4
100
AcDbSymbolTableRecord
100
AcDbTextStyleTableRecord
2
Standard
70
0
40
0
41
1
50
0
71
0
42
1
3
txt
4

0
STYLE
5
1B
330
4
100
AcDbSymbolTableRecord
100
AcDbTextStyleTableRecord
2
Arial
70
0
40
0
41
1
50
0
71
0
42
1
3
Arial.ttf
4

0
ENDTAB
0
TABLE
2
VIEW
5
5
330
0
100
AcDbSymbolTable
70
0
0
ENDTAB
0
TABLE
2
UCS
5
6
330
0
100
AcDbSymbolTable
70
0
0
ENDTAB
0
TABLE
2
APPID
5
7
330
0
100
AcDbSymbolTable
70
1
0
APPID
5
17
330
7
100
AcDbSymbolTableRecord
100
AcDbRegAppTableRecord
2
ACAD
70
0
0
ENDTAB
0
TABLE
2
DIMSTYLE
5
8
330
0
100
AcDbSymbolTable
70
1
100
AcDbDimStyleTable
0
DIMSTYLE
105
18
330
8
100
AcDbSymbolTableRecord
100
AcDbDimStyleTableRecord
2
Standard
70
0
340
16
0
ENDTAB
0
TABLE
2
BLOCK_RECORD
5
9
330
0
100
AcDbSymbolTable
70
2
0
BLOCK_RECORD
5
C
330
9
100
AcDbSymbolTableRecord
100
AcDbBlockTableRecord
2
*Model_Space
70
0
280
1
281
0
0
BLOCK_RECORD
5
F
330
9
100
AcDbSymbolTableRecord
100
AcDbBlockTableRecord
2
*Paper_Space
70
0
280
1
281
0
0
ENDTAB
0
ENDSEC
0
SECTION
2
BLOCKS
0
BLOCK
5
D
330
C
100
AcDbEntity
8
0
100
AcDbBlockBegin
2
*Model_Space
70
0
10
0
20
0
30
0
3
*Model_Space
1

0
ENDBLK
5
E
100
AcDbEntity
8
0
100
AcDbBlockEnd
0
BLOCK
5
10
330
F
100
AcDbEntity
8
0
100
AcDbBlockBegin
2
*Paper_Space
70
0
10
0
20
0
30
0
3
*Paper_Space
1

0
ENDBLK
5
11
100
AcDbEntity
8
0
100
AcDbBlockEnd
0
ENDSEC
0
SECTION
2
ENTITIES
0
TEXT
5
1A
330
C
100
AcDbEntity
420
0
8
0
100
AcDbText
10
0
20
974
30
0
40
18
1
SVG Files Demo
7
Arial
100
AcDbText
0
TEXT
5
1C
330
C
100
AcDbEntity
420
5592405
8
0
100
AcDbText
10
0
20
932
30
0
40
14
1
SVG files as <img> tags (small)
7
Arial
100
AcDbText
0
LWPOLYLINE
5
1D
330
C
100
AcDbEntity
420
13421772
8
0
100
AcDbPolyline
90
5
70
0
43
0
38
0
39
0
10
0
20
915
10
120
20
915
10
120
20
835
10
0
20
835
10
0
20
915
0
IMAGE
5
1F
330
C
100
AcDbEntity
8
0
100
AcDbRasterImage
90
0
10
0
20
915
30
0
11
1
21
0
31
0
12
0
22
1
32
0
13
120
23
80
340
1E
70
3
280
1
281
50
282
50
283
0
360
20
71
1
91
2
14
-0.5
24
-0.5
14
119.5
24
79.5
290
1
0
TEXT
5
22
330
C
100
AcDbEntity
420
8947848
8
0
100
AcDbText
10
11.983333587646484
20
819.75
30
0
40
11
1
MultipleSignalLamp
7
Arial
100
AcDbText
0
LWPOLYLINE
5
23
330
C
100
AcDbEntity
420
13421772
8
0
100
AcDbPolyline
90
5
70
0
43
0
38
0
39
0
10
144
20
915
10
264
20
915
10
264
20
835
10
144
20
835
10
144
20
915
0
IMAGE
5
25
330
C
100
AcDbEntity
8
0
100
AcDbRasterImage
90
0
10
144
20
915
30
0
11
1
21
0
31
0
12
0
22
1
32
0
13
120
23
80
340
24
70
3
280
1
281
50
282
50
283
0
360
26
71
1
91
2
14
-0.5
24
-0.5
14
119.5
24
79.5
290
1
0
TEXT
5
28
330
C
100
AcDbEntity
420
8947848
8
0
100
AcDbText
10
153.25
20
819.75
30
0
40
11
1
OpticalDataCouplers
7
Arial
100
AcDbText
0
LWPOLYLINE
5
29
330
C
100
AcDbEntity
420
13421772
8
0
100
AcDbPolyline
90
5
70
0
43
0
38
0
39
0
10
288
20
915
10
408
20
915
10
408
20
835
10
288
20
835
10
288
20
915
0
IMAGE
5
2B
330
C
100
AcDbEntity
8
0
100
AcDbRasterImage
90
0
10
288
20
915
30
0
11
1
21
0
31
0
12
0
22
1
32
0
13
120
23
80
340
2A
70
3
280
1
281
50
282
50
283
0
360
2C
71
1
91
2
14
-0.5
24
-0.5
14
119.5
24
79.5
290
1
0
TEXT
5
2E
330
C
100
AcDbEntity
420
8947848
8
0
100
AcDbText
10
302.75
20
819.75
30
0
40
11
1
OpticalSsiEncoder
7
Arial
100
AcDbText
0
TEXT
5
2F
330
C
100
AcDbEntity
420
5592405
8
0
100
AcDbText
10
0
20
772
30
0
40
14
1
SVG files as <img> tags (wide + Move)
7
Arial
100
AcDbText
0
LWPOLYLINE
5
30
330
C
100
AcDbEntity
420
13421772
8
0
100
AcDbPolyline
90
5
70
0
43
0
38
0
39
0
10
0
20
755
10
200
20
755
10
200
20
675
10
0
20
675
10
0
20
755
0
IMAGE
5
32
330
C
100
AcDbEntity
8
0
100
AcDbRasterImage
90
0
10
0
20
755
30
0
11
1
21
0
31
0
12
0
22
1
32
0
13
200
23
80
340
31
70
3
280
1
281
50
282
50
283
0
360
33
71
1
91
2
14
-0.5
24
-0.5
14
199.5
24
79.5
290
1
0
TEXT
5
35
330
C
100
AcDbEntity
420
8947848
8
0
100
AcDbText
10
28.166664123535156
20
659.75
30
0
40
11
1
PhotoelectricProximitySensor
7
Arial
100
AcDbText
0
LWPOLYLINE
5
36
330
C
100
AcDbEntity
420
13421772
8
0
100
AcDbPolyline
90
5
70
0
43
0
38
0
39
0
10
224
20
755
10
424
20
755
10
424
20
675
10
224
20
675
10
224
20
755
0
IMAGE
5
38
330
C
100
AcDbEntity
8
0
100
AcDbRasterImage
90
0
10
224
20
755
30
0
11
1
21
0
31
0
12
0
22
1
32
0
13
200
23
80
340
37
70
3
280
1
281
50
282
50
283
0
360
39
71
1
91
2
14
-0.5
24
-0.5
14
199.5
24
79.5
290
1
0
TEXT
5
3B
330
C
100
AcDbEntity
420
8947848
8
0
100
AcDbText
10
233.20001220703125
20
659.75
30
0
40
11
1
PhotoelectricProximitySensorUpward
7
Arial
100
AcDbText
0
LWPOLYLINE
5
3C
330
C
100
AcDbEntity
420
13421772
8
0
100
AcDbPolyline
90
5
70
0
43
0
38
0
39
0
10
448
20
755
10
648
20
755
10
648
20
675
10
448
20
675
10
448
20
755
0
IMAGE
5
3E
330
C
100
AcDbEntity
8
0
100
AcDbRasterImage
90
0
10
448
20
755
30
0
11
1
21
0
31
0
12
0
22
1
32
0
13
200
23
80
340
3D
70
3
280
1
281
50
282
50
283
0
360
3F
71
1
91
2
14
-0.5
24
-0.5
14
199.5
24
79.5
290
1
0
TEXT
5
41
330
C
100
AcDbEntity
420
8947848
8
0
100
AcDbText
10
461.1833190917969
20
659.75
30
0
40
11
1
PhotoelectricRetroReflectiveSensor
7
Arial
100
AcDbText
0
LWPOLYLINE
5
42
330
C
100
AcDbEntity
420
13421772
8
0
100
AcDbPolyline
90
5
70
0
43
0
38
0
39
0
10
672
20
755
10
872
20
755
10
872
20
675
10
672
20
675
10
672
20
755
0
IMAGE
5
44
330
C
100
AcDbEntity
8
0
100
AcDbRasterImage
90
0
10
672
20
755
30
0
11
1
21
0
31
0
12
0
22
1
32
0
13
200
23
80
340
43
70
3
280
1
281
50
282
50
283
0
360
45
71
1
91
2
14
-0.5
24
-0.5
14
199.5
24
79.5
290
1
0
TEXT
5
47
330
C
100
AcDbEntity
420
8947848
8
0
100
AcDbText
10
684.2666625976562
20
659.75
30
0
40
11
1
ThroughBeamPhotoelectricSensorE
7
Arial
100
AcDbText
0
LWPOLYLINE
5
48
330
C
100
AcDbEntity
420
13421772
8
0
100
AcDbPolyline
90
5
70
0
43
0
38
0
39
0
10
896
20
755
10
1096
20
755
10
1096
20
675
10
896
20
675
10
896
20
755
0
IMAGE
5
4A
330
C
100
AcDbEntity
8
0
100
AcDbRasterImage
90
0
10
896
20
755
30
0
11
1
21
0
31
0
12
0
22
1
32
0
13
200
23
80
340
49
70
3
280
1
281
50
282
50
283
0
360
4B
71
1
91
2
14
-0.5
24
-0.5
14
199.5
24
79.5
290
1
0
TEXT
5
4D
330
C
100
AcDbEntity
420
8947848
8
0
100
AcDbText
10
908.2666625976562
20
659.75
30
0
40
11
1
ThroughBeamPhotoelectricSensorS
7
Arial
100
AcDbText
0
LWPOLYLINE
5
4E
330
C
100
AcDbEntity
420
13421772
8
0
100
AcDbPolyline
90
5
70
0
43
0
38
0
39
0
10
0
20
632
10
200
20
632
10
200
20
552
10
0
20
552
10
0
20
632
0
IMAGE
5
50
330
C
100
AcDbEntity
8
0
100
AcDbRasterImage
90
0
10
0
20
632
30
0
11
1
21
0
31
0
12
0
22
1
32
0
13
200
23
80
340
4F
70
3
280
1
281
50
282
50
283
0
360
51
71
1
91
2
14
-0.5
24
-0.5
14
199.5
24
79.5
290
1
0
TEXT
5
53
330
C
100
AcDbEntity
420
8947848
8
0
100
AcDbText
10
8.599998474121094
20
536.75
30
0
40
11
1
ThroughBeamPhotoelectricSensorSE
7
Arial
100
AcDbText
0
LWPOLYLINE
5
54
330
C
100
AcDbEntity
420
13421772
8
0
100
AcDbPolyline
90
5
70
0
43
0
38
0
39
0
10
224
20
632
10
424
20
632
10
424
20
552
10
224
20
552
10
224
20
632
0
LWPOLYLINE
5
55
330
C
100
AcDbEntity
420
0
8
0
100
AcDbPolyline
90
65
70
0
43
0
38
0
39
0
10
425
20
453
10
426.58457946777344
20
452.5498962402344
10
428.1727752685547
20
452.1127624511719
10
429.7644958496094
20
451.6886749267578
10
431.35968017578125
20
451.27777099609375
10
432.9582214355469
20
450.880126953125
10
434.56004333496094
20
450.4958801269531
10
436.16502380371094
20
450.1251220703125
10
437.7731170654297
20
449.7680206298828
10
439.3841857910156
20
449.4246826171875
10
440.99815368652344
20
449.0951385498047
10
442.61488342285156
20
448.7794952392578
10
444.2342834472656
20
448.4778289794922
10
445.85626220703125
20
448.1903076171875
10
447.4806823730469
20
447.9170379638672
10
449.1074523925781
20
447.6580047607422
10
450.73643493652344
20
447.4132537841797
10
452.3675079345703
20
447.1829833984375
10
454.0005798339844
20
446.96730041503906
10
455.63551330566406
20
446.76609802246094
10
457.27215576171875
20
446.5794982910156
10
458.9104309082031
20
446.40769958496094
10
460.55018615722656
20
446.2506408691406
10
462.1912841796875
20
446.1083221435547
10
463.83360290527344
20
445.9808654785156
10
465.4770050048828
20
445.86839294433594
10
467.1213684082031
20
445.770751953125
10
468.76654052734375
20
445.6880187988281
10
470.41241455078125
20
445.6204528808594
10
472.058837890625
20
445.5678253173828
10
473.7056579589844
20
445.5301208496094
10
475.3527526855469
20
445.5075988769531
10
477
20
445.50010681152344
10
478.64723205566406
20
445.50758361816406
10
480.2943420410156
20
445.5301513671875
10
481.941162109375
20
445.56781005859375
10
483.58758544921875
20
445.6204528808594
10
485.23345947265625
20
445.68804931640625
10
486.8786315917969
20
445.77076721191406
10
488.5229797363281
20
445.8683776855469
10
490.1663818359375
20
445.98085021972656
10
491.8087158203125
20
446.1083221435547
10
493.4497985839844
20
446.2506408691406
10
495.08953857421875
20
446.40769958496094
10
496.7278137207031
20
446.57948303222656
10
498.3644714355469
20
446.76609802246094
10
499.9993896484375
20
446.96730041503906
10
501.6324768066406
20
447.1830139160156
10
503.2635803222656
20
447.4132080078125
10
504.8925476074219
20
447.65797424316406
10
506.5193176269531
20
447.9170379638672
10
508.14373779296875
20
448.19036865234375
10
509.7657165527344
20
448.47784423828125
10
511.3851318359375
20
448.7794189453125
10
513.0018310546875
20
449.09510803222656
10
514.6157836914062
20
449.42469787597656
10
516.2268676757812
20
449.76808166503906
10
517.8349609375
20
450.1251678466797
10
519.43994140625
20
450.49586486816406
10
521.0417785644531
20
450.88006591796875
10
522.6403503417969
20
451.27769470214844
10
524.2355346679688
20
451.6885986328125
10
525.8272399902344
20
452.1127471923828
10
527.4154357910156
20
452.54994201660156
10
529
20
453
0
LWPOLYLINE
5
56
330
C
100
AcDbEntity
420
0
8
0
100
AcDbPolyline
90
65
70
0
43
0
38
0
39
0
10
425
20
453
10
426.58457946777344
20
452.5498962402344
10
428.1727752685547
20
452.1127624511719
10
429.7644958496094
20
451.6886749267578
10
431.35968017578125
20
451.27777099609375
10
432.9582214355469
20
450.880126953125
10
434.56004333496094
20
450.4958801269531
10
436.16502380371094
20
450.1251220703125
10
437.7731170654297
20
449.7680206298828
10
439.3841857910156
20
449.4246826171875
10
440.99815368652344
20
449.0951385498047
10
442.61488342285156
20
448.7794952392578
10
444.2342834472656
20
448.4778289794922
10
445.85626220703125
20
448.1903076171875
10
447.4806823730469
20
447.9170379638672
10
449.1074523925781
20
447.6580047607422
10
450.73643493652344
20
447.4132537841797
10
452.3675079345703
20
447.1829833984375
10
454.0005798339844
20
446.96730041503906
10
455.63551330566406
20
446.76609802246094
10
457.27215576171875
20
446.5794982910156
10
458.9104309082031
20
446.40769958496094
10
460.55018615722656
20
446.2506408691406
10
462.1912841796875
20
446.1083221435547
10
463.83360290527344
20
445.9808654785156
10
465.4770050048828
20
445.86839294433594
10
467.1213684082031
20
445.770751953125
10
468.76654052734375
20
445.6880187988281
10
470.41241455078125
20
445.6204528808594
10
472.058837890625
20
445.5678253173828
10
473.7056579589844
20
445.5301208496094
10
475.3527526855469
20
445.5075988769531
10
477
20
445.50010681152344
10
478.64723205566406
20
445.50758361816406
10
480.2943420410156
20
445.5301513671875
10
481.941162109375
20
445.56781005859375
10
483.58758544921875
20
445.6204528808594
10
485.23345947265625
20
445.68804931640625
10
486.8786315917969
20
445.77076721191406
10
488.5229797363281
20
445.8683776855469
10
490.1663818359375
20
445.98085021972656
10
491.8087158203125
20
446.1083221435547
10
493.4497985839844
20
446.2506408691406
10
495.08953857421875
20
446.40769958496094
10
496.7278137207031
20
446.57948303222656
10
498.3644714355469
20
446.76609802246094
10
499.9993896484375
20
446.96730041503906
10
501.6324768066406
20
447.1830139160156
10
503.2635803222656
20
447.4132080078125
10
504.8925476074219
20
447.65797424316406
10
506.5193176269531
20
447.9170379638672
10
508.14373779296875
20
448.19036865234375
10
509.7657165527344
20
448.47784423828125
10
511.3851318359375
20
448.7794189453125
10
513.0018310546875
20
449.09510803222656
10
514.6157836914062
20
449.42469787597656
10
516.2268676757812
20
449.76808166503906
10
517.8349609375
20
450.1251678466797
10
519.43994140625
20
450.49586486816406
10
521.0417785644531
20
450.88006591796875
10
522.6403503417969
20
451.27769470214844
10
524.2355346679688
20
451.6885986328125
10
525.8272399902344
20
452.1127471923828
10
527.4154357910156
20
452.54994201660156
10
529
20
453
0
HATCH
5
57
330
C
100
AcDbEntity
420
0
8
0
100
AcDbHatch
10
0
20
0
30
0
210
0
220
0
230
1
2
SOLID
70
1
71
0
91
1
92
7
72
0
73
1
93
33
10
515.8172620864266
20
455.4930746282521
10
516.641183206025
20
455.33725746398636
10
517.4651043256233
20
455.18144029972063
10
518.2890254452216
20
455.0256231354549
10
519.11294656482
20
454.8698059711892
10
519.9368676844183
20
454.71398880692345
10
520.7607888040166
20
454.5581716426576
10
521.584709295013
20
454.4023545972709
10
522.4086310432133
20
454.24653731412604
10
523.2325521628117
20
454.0907201498603
10
524.05647328241
20
453.9349029855946
10
524.8803937734064
20
453.7790859402078
10
525.7043155216068
20
453.623268657063
10
526.528236641205
20
453.4674514927973
10
527.3521565035994
20
453.3116345662896
10
528.1760788804016
20
453.1558171642657
10
529
20
453
10
528.3809936261416
20
452.4343532996745
10
527.7619872522833
20
451.86870659934914
10
527.1429807514007
20
451.30306034625073
10
526.5239743873135
20
450.73741361152315
10
525.9049680232263
20
450.1717668767957
10
525.2859620532347
20
449.6061208488388
10
524.6669547055343
20
449.0404733886114
10
524.0479487746271
20
448.4748272230463
10
523.4289433159843
20
447.9091814890353
10
522.8099354960195
20
447.3435335972538
10
522.1909300373767
20
446.77788786324277
10
521.5719241064695
20
446.21224169767765
10
520.9529167587691
20
445.64659423745024
10
520.3339113001263
20
445.08094850343923
10
519.7149039524259
20
444.5153010432118
10
519.0958975492542
20
443.9496544460926
97
0
75
1
76
1
47
1
98
0
0
LWPOLYLINE
5
58
330
C
100
AcDbEntity
420
0
8
0
100
AcDbPolyline
90
34
70
0
43
0
38
0
39
0
10
515.8172620864266
20
455.4930746282521
10
516.641183206025
20
455.33725746398636
10
517.4651043256233
20
455.18144029972063
10
518.2890254452216
20
455.0256231354549
10
519.11294656482
20
454.8698059711892
10
519.9368676844183
20
454.71398880692345
10
520.7607888040166
20
454.5581716426576
10
521.584709295013
20
454.4023545972709
10
522.4086310432133
20
454.24653731412604
10
523.2325521628117
20
454.0907201498603
10
524.05647328241
20
453.9349029855946
10
524.8803937734064
20
453.7790859402078
10
525.7043155216068
20
453.623268657063
10
526.528236641205
20
453.4674514927973
10
527.3521565035994
20
453.3116345662896
10
528.1760788804016
20
453.1558171642657
10
529
20
453
10
528.3809936261416
20
452.4343532996745
10
527.7619872522833
20
451.86870659934914
10
527.1429807514007
20
451.30306034625073
10
526.5239743873135
20
450.73741361152315
10
525.9049680232263
20
450.1717668767957
10
525.2859620532347
20
449.6061208488388
10
524.6669547055343
20
449.0404733886114
10
524.0479487746271
20
448.4748272230463
10
523.4289433159843
20
447.9091814890353
10
522.8099354960195
20
447.3435335972538
10
522.1909300373767
20
446.77788786324277
10
521.5719241064695
20
446.21224169767765
10
520.9529167587691
20
445.64659423745024
10
520.3339113001263
20
445.08094850343923
10
519.7149039524259
20
444.5153010432118
10
519.0958975492542
20
443.9496544460926
10
515.8172620864266
20
455.4930746282521
0
TEXT
5
59
330
C
100
AcDbEntity
420
8947848
8
0
100
AcDbText
10
277.8500061035156
20
536.75
30
0
40
11
1
Move (has marker)
7
Arial
100
AcDbText
0
TEXT
5
5A
330
C
100
AcDbEntity
420
5592405
8
0
100
AcDbText
10
0
20
489
30
0
40
14
1
SVG files as CSS background-image (small)
7
Arial
100
AcDbText
0
LWPOLYLINE
5
5B
330
C
100
AcDbEntity
420
13421772
8
0
100
AcDbPolyline
90
5
70
0
43
0
38
0
39
0
10
0
20
472
10
120
20
472
10
120
20
392
10
0
20
392
10
0
20
472
0
IMAGE
5
5D
330
C
100
AcDbEntity
8
0
100
AcDbRasterImage
90
0
10
0
20
472
30
0
11
1
21
0
31
0
12
0
22
1
32
0
13
120
23
80
340
5C
70
3
280
1
281
50
282
50
283
0
360
5E
71
1
91
2
14
-0.5
24
-0.5
14
119.5
24
79.5
290
1
0
TEXT
5
60
330
C
100
AcDbEntity
420
8947848
8
0
100
AcDbText
10
11.983333587646484
20
376.75
30
0
40
11
1
MultipleSignalLamp
7
Arial
100
AcDbText
0
LWPOLYLINE
5
61
330
C
100
AcDbEntity
420
13421772
8
0
100
AcDbPolyline
90
5
70
0
43
0
38
0
39
0
10
144
20
472
10
264
20
472
10
264
20
392
10
144
20
392
10
144
20
472
0
IMAGE
5
63
330
C
100
AcDbEntity
8
0
100
AcDbRasterImage
90
0
10
144
20
472
30
0
11
1
21
0
31
0
12
0
22
1
32
0
13
120
23
80
340
62
70
3
280
1
281
50
282
50
283
0
360
64
71
1
91
2
14
-0.5
24
-0.5
14
119.5
24
79.5
290
1
0
TEXT
5
66
330
C
100
AcDbEntity
420
8947848
8
0
100
AcDbText
10
153.25
20
376.75
30
0
40
11
1
OpticalDataCouplers
7
Arial
100
AcDbText
0
LWPOLYLINE
5
67
330
C
100
AcDbEntity
420
13421772
8
0
100
AcDbPolyline
90
5
70
0
43
0
38
0
39
0
10
288
20
472
10
408
20
472
10
408
20
392
10
288
20
392
10
288
20
472
0
IMAGE
5
69
330
C
100
AcDbEntity
8
0
100
AcDbRasterImage
90
0
10
288
20
472
30
0
11
1
21
0
31
0
12
0
22
1
32
0
13
120
23
80
340
68
70
3
280
1
281
50
282
50
283
0
360
6A
71
1
91
2
14
-0.5
24
-0.5
14
119.5
24
79.5
290
1
0
TEXT
5
6C
330
C
100
AcDbEntity
420
8947848
8
0
100
AcDbText
10
302.75
20
376.75
30
0
40
11
1
OpticalSsiEncoder
7
Arial
100
AcDbText
0
TEXT
5
6D
330
C
100
AcDbEntity
420
5592405
8
0
100
AcDbText
10
0
20
329
30
0
40
14
1
SVG files as CSS background-image (wide + Move)
7
Arial
100
AcDbText
0
LWPOLYLINE
5
6E
330
C
100
AcDbEntity
420
13421772
8
0
100
AcDbPolyline
90
5
70
0
43
0
38
0
39
0
10
0
20
312
10
200
20
312
10
200
20
232
10
0
20
232
10
0
20
312
0
IMAGE
5
70
330
C
100
AcDbEntity
8
0
100
AcDbRasterImage
90
0
10
0
20
312
30
0
11
1
21
0
31
0
12
0
22
1
32
0
13
200
23
80
340
6F
70
3
280
1
281
50
282
50
283
0
360
71
71
1
91
2
14
-0.5
24
-0.5
14
199.5
24
79.5
290
1
0
TEXT
5
73
330
C
100
AcDbEntity
420
8947848
8
0
100
AcDbText
10
28.166664123535156
20
216.75
30
0
40
11
1
PhotoelectricProximitySensor
7
Arial
100
AcDbText
0
LWPOLYLINE
5
74
330
C
100
AcDbEntity
420
13421772
8
0
100
AcDbPolyline
90
5
70
0
43
0
38
0
39
0
10
224
20
312
10
424
20
312
10
424
20
232
10
224
20
232
10
224
20
312
0
IMAGE
5
76
330
C
100
AcDbEntity
8
0
100
AcDbRasterImage
90
0
10
224
20
312
30
0
11
1
21
0
31
0
12
0
22
1
32
0
13
200
23
80
340
75
70
3
280
1
281
50
282
50
283
0
360
77
71
1
91
2
14
-0.5
24
-0.5
14
199.5
24
79.5
290
1
0
TEXT
5
79
330
C
100
AcDbEntity
420
8947848
8
0
100
AcDbText
10
233.20001220703125
20
216.75
30
0
40
11
1
PhotoelectricProximitySensorUpward
7
Arial
100
AcDbText
0
LWPOLYLINE
5
7A
330
C
100
AcDbEntity
420
13421772
8
0
100
AcDbPolyline
90
5
70
0
43
0
38
0
39
0
10
448
20
312
10
648
20
312
10
648
20
232
10
448
20
232
10
448
20
312
0
IMAGE
5
7C
330
C
100
AcDbEntity
8
0
100
AcDbRasterImage
90
0
10
448
20
312
30
0
11
1
21
0
31
0
12
0
22
1
32
0
13
200
23
80
340
7B
70
3
280
1
281
50
282
50
283
0
360
7D
71
1
91
2
14
-0.5
24
-0.5
14
199.5
24
79.5
290
1
0
TEXT
5
7F
330
C
100
AcDbEntity
420
8947848
8
0
100
AcDbText
10
461.1833190917969
20
216.75
30
0
40
11
1
PhotoelectricRetroReflectiveSensor
7
Arial
100
AcDbText
0
LWPOLYLINE
5
80
330
C
100
AcDbEntity
420
13421772
8
0
100
AcDbPolyline
90
5
70
0
43
0
38
0
39
0
10
672
20
312
10
872
20
312
10
872
20
232
10
672
20
232
10
672
20
312
0
IMAGE
5
82
330
C
100
AcDbEntity
8
0
100
AcDbRasterImage
90
0
10
672
20
312
30
0
11
1
21
0
31
0
12
0
22
1
32
0
13
200
23
80
340
81
70
3
280
1
281
50
282
50
283
0
360
83
71
1
91
2
14
-0.5
24
-0.5
14
199.5
24
79.5
290
1
0
TEXT
5
85
330
C
100
AcDbEntity
420
8947848
8
0
100
AcDbText
10
684.2666625976562
20
216.75
30
0
40
11
1
ThroughBeamPhotoelectricSensorE
7
Arial
100
AcDbText
0
LWPOLYLINE
5
86
330
C
100
AcDbEntity
420
13421772
8
0
100
AcDbPolyline
90
5
70
0
43
0
38
0
39
0
10
896
20
312
10
1096
20
312
10
1096
20
232
10
896
20
232
10
896
20
312
0
IMAGE
5
88
330
C
100
AcDbEntity
8
0
100
AcDbRasterImage
90
0
10
896
20
312
30
0
11
1
21
0
31
0
12
0
22
1
32
0
13
200
23
80
340
87
70
3
280
1
281
50
282
50
283
0
360
89
71
1
91
2
14
-0.5
24
-0.5
14
199.5
24
79.5
290
1
0
TEXT
5
8B
330
C
100
AcDbEntity
420
8947848
8
0
100
AcDbText
10
908.2666625976562
20
216.75
30
0
40
11
1
ThroughBeamPhotoelectricSensorS
7
Arial
100
AcDbText
0
LWPOLYLINE
5
8C
330
C
100
AcDbEntity
420
13421772
8
0
100
AcDbPolyline
90
5
70
0
43
0
38
0
39
0
10
0
20
189
10
200
20
189
10
200
20
109
10
0
20
109
10
0
20
189
0
IMAGE
5
8E
330
C
100
AcDbEntity
8
0
100
AcDbRasterImage
90
0
10
0
20
189
30
0
11
1
21
0
31
0
12
0
22
1
32
0
13
200
23
80
340
8D
70
3
280
1
281
50
282
50
283
0
360
8F
71
1
91
2
14
-0.5
24
-0.5
14
199.5
24
79.5
290
1
0
TEXT
5
91
330
C
100
AcDbEntity
420
8947848
8
0
100
AcDbText
10
8.599998474121094
20
93.75
30
0
40
11
1
ThroughBeamPhotoelectricSensorSE
7
Arial
100
AcDbText
0
LWPOLYLINE
5
92
330
C
100
AcDbEntity
420
13421772
8
0
100
AcDbPolyline
90
5
70
0
43
0
38
0
39
0
10
224
20
189
10
424
20
189
10
424
20
109
10
224
20
109
10
224
20
189
0
LWPOLYLINE
5
93
330
C
100
AcDbEntity
420
0
8
0
100
AcDbPolyline
90
65
70
0
43
0
38
0
39
0
10
425
20
10
10
426.58457946777344
20
9.549896240234375
10
428.1727752685547
20
9.112762451171875
10
429.7644958496094
20
8.688674926757812
10
431.35968017578125
20
8.27777099609375
10
432.9582214355469
20
7.880126953125
10
434.56004333496094
20
7.495880126953125
10
436.16502380371094
20
7.1251220703125
10
437.7731170654297
20
6.7680206298828125
10
439.3841857910156
20
6.4246826171875
10
440.99815368652344
20
6.0951385498046875
10
442.61488342285156
20
5.7794952392578125
10
444.2342834472656
20
5.4778289794921875
10
445.85626220703125
20
5.1903076171875
10
447.4806823730469
20
4.9170379638671875
10
449.1074523925781
20
4.6580047607421875
10
450.73643493652344
20
4.4132537841796875
10
452.3675079345703
20
4.1829833984375
10
454.0005798339844
20
3.9673004150390625
10
455.63551330566406
20
3.7660980224609375
10
457.27215576171875
20
3.579498291015625
10
458.9104309082031
20
3.4076995849609375
10
460.55018615722656
20
3.250640869140625
10
462.1912841796875
20
3.1083221435546875
10
463.83360290527344
20
2.980865478515625
10
465.4770050048828
20
2.8683929443359375
10
467.1213684082031
20
2.770751953125
10
468.76654052734375
20
2.688018798828125
10
470.41241455078125
20
2.620452880859375
10
472.058837890625
20
2.5678253173828125
10
473.7056579589844
20
2.530120849609375
10
475.3527526855469
20
2.507598876953125
10
477
20
2.5001068115234375
10
478.64723205566406
20
2.5075836181640625
10
480.2943420410156
20
2.5301513671875
10
481.941162109375
20
2.56781005859375
10
483.58758544921875
20
2.620452880859375
10
485.23345947265625
20
2.68804931640625
10
486.8786315917969
20
2.7707672119140625
10
488.5229797363281
20
2.868377685546875
10
490.1663818359375
20
2.9808502197265625
10
491.8087158203125
20
3.1083221435546875
10
493.4497985839844
20
3.250640869140625
10
495.08953857421875
20
3.4076995849609375
10
496.7278137207031
20
3.5794830322265625
10
498.3644714355469
20
3.7660980224609375
10
499.9993896484375
20
3.9673004150390625
10
501.6324768066406
20
4.183013916015625
10
503.2635803222656
20
4.4132080078125
10
504.8925476074219
20
4.6579742431640625
10
506.5193176269531
20
4.9170379638671875
10
508.14373779296875
20
5.19036865234375
10
509.7657165527344
20
5.47784423828125
10
511.3851318359375
20
5.7794189453125
10
513.0018310546875
20
6.0951080322265625
10
514.6157836914062
20
6.4246978759765625
10
516.2268676757812
20
6.7680816650390625
10
517.8349609375
20
7.1251678466796875
10
519.43994140625
20
7.4958648681640625
10
521.0417785644531
20
7.88006591796875
10
522.6403503417969
20
8.277694702148438
10
524.2355346679688
20
8.6885986328125
10
525.8272399902344
20
9.112747192382812
10
527.4154357910156
20
9.549942016601562
10
529
20
10
0
LWPOLYLINE
5
94
330
C
100
AcDbEntity
420
0
8
0
100
AcDbPolyline
90
65
70
0
43
0
38
0
39
0
10
425
20
10
10
426.58457946777344
20
9.549896240234375
10
428.1727752685547
20
9.112762451171875
10
429.7644958496094
20
8.688674926757812
10
431.35968017578125
20
8.27777099609375
10
432.9582214355469
20
7.880126953125
10
434.56004333496094
20
7.495880126953125
10
436.16502380371094
20
7.1251220703125
10
437.7731170654297
20
6.7680206298828125
10
439.3841857910156
20
6.4246826171875
10
440.99815368652344
20
6.0951385498046875
10
442.61488342285156
20
5.7794952392578125
10
444.2342834472656
20
5.4778289794921875
10
445.85626220703125
20
5.1903076171875
10
447.4806823730469
20
4.9170379638671875
10
449.1074523925781
20
4.6580047607421875
10
450.73643493652344
20
4.4132537841796875
10
452.3675079345703
20
4.1829833984375
10
454.0005798339844
20
3.9673004150390625
10
455.63551330566406
20
3.7660980224609375
10
457.27215576171875
20
3.579498291015625
10
458.9104309082031
20
3.4076995849609375
10
460.55018615722656
20
3.250640869140625
10
462.1912841796875
20
3.1083221435546875
10
463.83360290527344
20
2.980865478515625
10
465.4770050048828
20
2.8683929443359375
10
467.1213684082031
20
2.770751953125
10
468.76654052734375
20
2.688018798828125
10
470.41241455078125
20
2.620452880859375
10
472.058837890625
20
2.5678253173828125
10
473.7056579589844
20
2.530120849609375
10
475.3527526855469
20
2.507598876953125
10
477
20
2.5001068115234375
10
478.64723205566406
20
2.5075836181640625
10
480.2943420410156
20
2.5301513671875
10
481.941162109375
20
2.56781005859375
10
483.58758544921875
20
2.620452880859375
10
485.23345947265625
20
2.68804931640625
10
486.8786315917969
20
2.7707672119140625
10
488.5229797363281
20
2.868377685546875
10
490.1663818359375
20
2.9808502197265625
10
491.8087158203125
20
3.1083221435546875
10
493.4497985839844
20
3.250640869140625
10
495.08953857421875
20
3.4076995849609375
10
496.7278137207031
20
3.5794830322265625
10
498.3644714355469
20
3.7660980224609375
10
499.9993896484375
20
3.9673004150390625
10
501.6324768066406
20
4.183013916015625
10
503.2635803222656
20
4.4132080078125
10
504.8925476074219
20
4.6579742431640625
10
506.5193176269531
20
4.9170379638671875
10
508.14373779296875
20
5.19036865234375
10
509.7657165527344
20
5.47784423828125
10
511.3851318359375
20
5.7794189453125
10
513.0018310546875
20
6.0951080322265625
10
514.6157836914062
20
6.4246978759765625
10
516.2268676757812
20
6.7680816650390625
10
517.8349609375
20
7.1251678466796875
10
519.43994140625
20
7.4958648681640625
10
521.0417785644531
20
7.88006591796875
10
522.6403503417969
20
8.277694702148438
10
524.2355346679688
20
8.6885986328125
10
525.8272399902344
20
9.112747192382812
10
527.4154357910156
20
9.549942016601562
10
529
20
10
0
HATCH
5
95
330
C
100
AcDbEntity
420
0
8
0
100
AcDbHatch
10
0
20
0
30
0
210
0
220
0
230
1
2
SOLID
70
1
71
0
91
1
92
7
72
0
73
1
93
33
10
515.8172620864266
20
12.493074628252089
10
516.641183206025
20
12.337257463986361
10
517.4651043256233
20
12.181440299720634
10
518.2890254452216
20
12.025623135454907
10
519.11294656482
20
11.86980597118918
10
519.9368676844183
20
11.713988806923453
10
520.7607888040166
20
11.558171642657612
10
521.584709295013
20
11.402354597270914
10
522.4086310432133
20
11.246537314126044
10
523.2325521628117
20
11.090720149860317
10
524.05647328241
20
10.93490298559459
10
524.8803937734064
20
10.779085940207779
10
525.7043155216068
20
10.623268657063022
10
526.528236641205
20
10.467451492797295
10
527.3521565035994
20
10.311634566289626
10
528.1760788804016
20
10.155817164265727
10
529
20
10
10
528.3809936261416
20
9.434353299674513
10
527.7619872522833
20
8.868706599349139
10
527.1429807514007
20
8.303060346250732
10
526.5239743873135
20
7.737413611523152
10
525.9049680232263
20
7.171766876795687
10
525.2859620532347
20
6.606120848838827
10
524.6669547055343
20
6.040473388611417
10
524.0479487746271
20
5.474827223046304
10
523.4289433159843
20
4.909181489035291
10
522.8099354960195
20
4.343533597253781
10
522.1909300373767
20
3.7778878632427677
10
521.5719241064695
20
3.212241697677655
10
520.9529167587691
20
2.6465942374502447
10
520.3339113001263
20
2.080948503439231
10
519.7149039524259
20
1.5153010432118208
10
519.0958975492542
20
0.9496544460926089
97
0
75
1
76
1
47
1
98
0
0
LWPOLYLINE
5
96
330
C
100
AcDbEntity
420
0
8
0
100
AcDbPolyline
90
34
70
0
43
0
38
0
39
0
10
515.8172620864266
20
12.493074628252089
10
516.641183206025
20
12.337257463986361
10
517.4651043256233
20
12.181440299720634
10
518.2890254452216
20
12.025623135454907
10
519.11294656482
20
11.86980597118918
10
519.9368676844183
20
11.713988806923453
10
520.7607888040166
20
11.558171642657612
10
521.584709295013
20
11.402354597270914
10
522.4086310432133
20
11.246537314126044
10
523.2325521628117
20
11.090720149860317
10
524.05647328241
20
10.93490298559459
10
524.8803937734064
20
10.779085940207779
10
525.7043155216068
20
10.623268657063022
10
526.528236641205
20
10.467451492797295
10
527.3521565035994
20
10.311634566289626
10
528.1760788804016
20
10.155817164265727
10
529
20
10
10
528.3809936261416
20
9.434353299674513
10
527.7619872522833
20
8.868706599349139
10
527.1429807514007
20
8.303060346250732
10
526.5239743873135
20
7.737413611523152
10
525.9049680232263
20
7.171766876795687
10
525.2859620532347
20
6.606120848838827
10
524.6669547055343
20
6.040473388611417
10
524.0479487746271
20
5.474827223046304
10
523.4289433159843
20
4.909181489035291
10
522.8099354960195
20
4.343533597253781
10
522.1909300373767
20
3.7778878632427677
10
521.5719241064695
20
3.212241697677655
10
520.9529167587691
20
2.6465942374502447
10
520.3339113001263
20
2.080948503439231
10
519.7149039524259
20
1.5153010432118208
10
519.0958975492542
20
0.9496544460926089
10
515.8172620864266
20
12.493074628252089
0
TEXT
5
97
330
C
100
AcDbEntity
420
8947848
8
0
100
AcDbText
10
277.8500061035156
20
93.75
30
0
40
11
1
Move (has marker)
7
Arial
100
AcDbText
0
ENDSEC
0
SECTION
2
OBJECTS
0
DICTIONARY
5
A
330
0
100
AcDbDictionary
281
1
3
ACAD_GROUP
350
B
3
ACAD_IMAGE_DICT
350
21
3
ACAD_IMAGE_DICT
350
27
3
ACAD_IMAGE_DICT
350
2D
3
ACAD_IMAGE_DICT
350
34
3
ACAD_IMAGE_DICT
350
3A
3
ACAD_IMAGE_DICT
350
40
3
ACAD_IMAGE_DICT
350
46
3
ACAD_IMAGE_DICT
350
4C
3
ACAD_IMAGE_DICT
350
52
3
ACAD_IMAGE_DICT
350
5F
3
ACAD_IMAGE_DICT
350
65
3
ACAD_IMAGE_DICT
350
6B
3
ACAD_IMAGE_DICT
350
72
3
ACAD_IMAGE_DICT
350
78
3
ACAD_IMAGE_DICT
350
7E
3
ACAD_IMAGE_DICT
350
84
3
ACAD_IMAGE_DICT
350
8A
3
ACAD_IMAGE_DICT
350
90
0
DICTIONARY
5
B
330
A
100
AcDbDictionary
281
0
0
IMAGEDEF
5
1E
330
21
102
{ACAD_REACTORS
330
21
330
20
102
}
100
AcDbRasterImageDef
1
images/image1.jpg
10
120
20
80
11
1
21
1
280
1
281
0
0
IMAGEDEF_REACTOR
5
20
330
0
100
AcDbRasterImageDefReactor
90
2
330
1F
0
DICTIONARY
5
21
330
A
100
AcDbDictionary
281
0
3
image1
350
1E
0
IMAGEDEF
5
24
330
27
102
{ACAD_REACTORS
330
27
330
26
102
}
100
AcDbRasterImageDef
1
images/image2.jpg
10
120
20
80
11
1
21
1
280
1
281
0
0
IMAGEDEF_REACTOR
5
26
330
0
100
AcDbRasterImageDefReactor
90
2
330
25
0
DICTIONARY
5
27
330
A
100
AcDbDictionary
281
0
3
image2
350
24
0
IMAGEDEF
5
2A
330
2D
102
{ACAD_REACTORS
330
2D
330
2C
102
}
100
AcDbRasterImageDef
1
images/image3.jpg
10
120
20
80
11
1
21
1
280
1
281
0
0
IMAGEDEF_REACTOR
5
2C
330
0
100
AcDbRasterImageDefReactor
90
2
330
2B
0
DICTIONARY
5
2D
330
A
100
AcDbDictionary
281
0
3
image3
350
2A
0
IMAGEDEF
5
31
330
34
102
{ACAD_REACTORS
330
34
330
33
102
}
100
AcDbRasterImageDef
1
images/image4.jpg
10
200
20
80
11
1
21
1
280
1
281
0
0
IMAGEDEF_REACTOR
5
33
330
0
100
AcDbRasterImageDefReactor
90
2
330
32
0
DICTIONARY
5
34
330
A
100
AcDbDictionary
281
0
3
image4
350
31
0
IMAGEDEF
5
37
330
3A
102
{ACAD_REACTORS
330
3A
330
39
102
}
100
AcDbRasterImageDef
1
images/image5.jpg
10
200
20
80
11
1
21
1
280
1
281
0
0
IMAGEDEF_REACTOR
5
39
330
0
100
AcDbRasterImageDefReactor
90
2
330
38
0
DICTIONARY
5
3A
330
A
100
AcDbDictionary
281
0
3
image5
350
37
0
IMAGEDEF
5
3D
330
40
102
{ACAD_REACTORS
330
40
330
3F
102
}
100
AcDbRasterImageDef
1
images/image6.jpg
10
200
20
80
11
1
21
1
280
1
281
0
0
IMAGEDEF_REACTOR
5
3F
330
0
100
AcDbRasterImageDefReactor
90
2
330
3E
0
DICTIONARY
5
40
330
A
100
AcDbDictionary
281
0
3
image6
350
3D
0
IMAGEDEF
5
43
330
46
102
{ACAD_REACTORS
330
46
330
45
102
}
100
AcDbRasterImageDef
1
images/image7.jpg
10
200
20
80
11
1
21
1
280
1
281
0
0
IMAGEDEF_REACTOR
5
45
330
0
100
AcDbRasterImageDefReactor
90
2
330
44
0
DICTIONARY
5
46
330
A
100
AcDbDictionary
281
0
3
image7
350
43
0
IMAGEDEF
5
49
330
4C
102
{ACAD_REACTORS
330
4C
330
4B
102
}
100
AcDbRasterImageDef
1
images/image8.jpg
10
200
20
80
11
1
21
1
280
1
281
0
0
IMAGEDEF_REACTOR
5
4B
330
0
100
AcDbRasterImageDefReactor
90
2
330
4A
0
DICTIONARY
5
4C
330
A
100
AcDbDictionary
281
0
3
image8
350
49
0
IMAGEDEF
5
4F
330
52
102
{ACAD_REACTORS
330
52
330
51
102
}
100
AcDbRasterImageDef
1
images/image9.jpg
10
200
20
80
11
1
21
1
280
1
281
0
0
IMAGEDEF_REACTOR
5
51
330
0
100
AcDbRasterImageDefReactor
90
2
330
50
0
DICTIONARY
5
52
330
A
100
AcDbDictionary
281
0
3
image9
350
4F
0
IMAGEDEF
5
5C
330
5F
102
{ACAD_REACTORS
330
5F
330
5E
102
}
100
AcDbRasterImageDef
1
images/image10.jpg
10
120
20
80
11
1
21
1
280
1
281
0
0
IMAGEDEF_REACTOR
5
5E
330
0
100
AcDbRasterImageDefReactor
90
2
330
5D
0
DICTIONARY
5
5F
330
A
100
AcDbDictionary
281
0
3
image10
350
5C
0
IMAGEDEF
5
62
330
65
102
{ACAD_REACTORS
330
65
330
64
102
}
100
AcDbRasterImageDef
1
images/image11.jpg
10
120
20
80
11
1
21
1
280
1
281
0
0
IMAGEDEF_REACTOR
5
64
330
0
100
AcDbRasterImageDefReactor
90
2
330
63
0
DICTIONARY
5
65
330
A
100
AcDbDictionary
281
0
3
image11
350
62
0
IMAGEDEF
5
68
330
6B
102
{ACAD_REACTORS
330
6B
330
6A
102
}
100
AcDbRasterImageDef
1
images/image12.jpg
10
120
20
80
11
1
21
1
280
1
281
0
0
IMAGEDEF_REACTOR
5
6A
330
0
100
AcDbRasterImageDefReactor
90
2
330
69
0
DICTIONARY
5
6B
330
A
100
AcDbDictionary
281
0
3
image12
350
68
0
IMAGEDEF
5
6F
330
72
102
{ACAD_REACTORS
330
72
330
71
102
}
100
AcDbRasterImageDef
1
images/image13.jpg
10
200
20
80
11
1
21
1
280
1
281
0
0
IMAGEDEF_REACTOR
5
71
330
0
100
AcDbRasterImageDefReactor
90
2
330
70
0
DICTIONARY
5
72
330
A
100
AcDbDictionary
281
0
3
image13
350
6F
0
IMAGEDEF
5
75
330
78
102
{ACAD_REACTORS
330
78
330
77
102
}
100
AcDbRasterImageDef
1
images/image14.jpg
10
200
20
80
11
1
21
1
280
1
281
0
0
IMAGEDEF_REACTOR
5
77
330
0
100
AcDbRasterImageDefReactor
90
2
330
76
0
DICTIONARY
5
78
330
A
100
AcDbDictionary
281
0
3
image14
350
75
0
IMAGEDEF
5
7B
330
7E
102
{ACAD_REACTORS
330
7E
330
7D
102
}
100
AcDbRasterImageDef
1
images/image15.jpg
10
200
20
80
11
1
21
1
280
1
281
0
0
IMAGEDEF_REACTOR
5
7D
330
0
100
AcDbRasterImageDefReactor
90
2
330
7C
0
DICTIONARY
5
7E
330
A
100
AcDbDictionary
281
0
3
image15
350
7B
0
IMAGEDEF
5
81
330
84
102
{ACAD_REACTORS
330
84
330
83
102
}
100
AcDbRasterImageDef
1
images/image16.jpg
10
200
20
80
11
1
21
1
280
1
281
0
0
IMAGEDEF_REACTOR
5
83
330
0
100
AcDbRasterImageDefReactor
90
2
330
82
0
DICTIONARY
5
84
330
A
100
AcDbDictionary
281
0
3
image16
350
81
0
IMAGEDEF
5
87
330
8A
102
{ACAD_REACTORS
330
8A
330
89
102
}
100
AcDbRasterImageDef
1
images/image17.jpg
10
200
20
80
11
1
21
1
280
1
281
0
0
IMAGEDEF_REACTOR
5
89
330
0
100
AcDbRasterImageDefReactor
90
2
330
88
0
DICTIONARY
5
8A
330
A
100
AcDbDictionary
281
0
3
image17
350
87
0
IMAGEDEF
5
8D
330
90
102
{ACAD_REACTORS
330
90
330
8F
102
}
100
AcDbRasterImageDef
1
images/image18.jpg
10
200
20
80
11
1
21
1
280
1
281
0
0
IMAGEDEF_REACTOR
5
8F
330
0
100
AcDbRasterImageDefReactor
90
2
330
8E
0
DICTIONARY
5
90
330
A
100
AcDbDictionary
281
0
3
image18
350
8D
0
ENDSEC
0
EOF