0
SECTION
2
HEADER
9
$ACADVER
1
AC1021
9
$LASTSAVEDBY
1
@tarikjabiri/dxf
9
$HANDSEED
5
6B
9
$INSUNITS
70
0
9
$CLAYER
8
0
9
$VIEWCTR
10
162
20
1035.5
0
ENDSEC
0
SECTION
2
CLASSES
0
ENDSEC
0
SECTION
2
TABLES
0
TABLE
2
VPORT
5
1
330
0
100
AcDbSymbolTable
70
1
0
VPORT
5
19
330
1
100
AcDbSymbolTableRecord
100
AcDbViewportTableRecord
2
*Active
70
0
10
0
20
0
11
1
21
1
12
162
22
1035.5
13
0
23
0
14
10
24
10
15
10
25
10
16
0
26
0
36
1
17
0
27
0
37
0
40
2271
41
2
42
50
43
0
44
0
50
0
51
0
71
0
72
100
73
1
74
3
75
0
76
1
77
0
78
0
281
0
65
1
110
0
120
0
130
0
111
1
121
0
131
0
112
0
122
1
132
0
79
0
146
0
348
10020
60
7
61
5
292
1
282
1
141
0
142
0
63
250
421
3358443
0
ENDTAB
0
TABLE
2
LTYPE
5
2
330
0
100
AcDbSymbolTable
70
3
0
LTYPE
5
12
330
2
100
AcDbSymbolTableRecord
100
AcDbLinetypeTableRecord
2
ByBlock
70
0
3

72
65
73
0
40
0
0
LTYPE
5
13
330
2
100
AcDbSymbolTableRecord
100
AcDbLinetypeTableRecord
2
ByLayer
70
0
3

72
65
73
0
40
0
0
LTYPE
5
14
330
2
100
AcDbSymbolTableRecord
100
AcDbLinetypeTableRecord
2
Continuous
70
0
3
Solid line
72
65
73
0
40
0
0
ENDTAB
0
TABLE
2
LAYER
5
3
330
0
100
AcDbSymbolTable
70
1
0
LAYER
5
15
330
3
100
AcDbSymbolTableRecord
100
AcDbLayerTableRecord
2
0
70
0
62
7
6
Continuous
370
0
390
0
0
ENDTAB
0
TABLE
2
STYLE
5
4
330
0
100
AcDbSymbolTable
70
2
0
STYLE
5
16
330
4
100
AcDbSymbolTableRecord
100
AcDbTextStyleTableRecord
2
Standard
70
0
40
0
41
1
50
0
71
0
42
1
3
txt
4

0
STYLE
5
1B
330
4
100
AcDbSymbolTableRecord
100
AcDbTextStyleTableRecord
2
Arial
70
0
40
0
41
1
50
0
71
0
42
1
3
Arial.ttf
4

0
ENDTAB
0
TABLE
2
VIEW
5
5
330
0
100
AcDbSymbolTable
70
0
0
ENDTAB
0
TABLE
2
UCS
5
6
330
0
100
AcDbSymbolTable
70
0
0
ENDTAB
0
TABLE
2
APPID
5
7
330
0
100
AcDbSymbolTable
70
1
0
APPID
5
17
330
7
100
AcDbSymbolTableRecord
100
AcDbRegAppTableRecord
2
ACAD
70
0
0
ENDTAB
0
TABLE
2
DIMSTYLE
5
8
330
0
100
AcDbSymbolTable
70
1
100
AcDbDimStyleTable
0
DIMSTYLE
105
18
330
8
100
AcDbSymbolTableRecord
100
AcDbDimStyleTableRecord
2
Standard
70
0
340
16
0
ENDTAB
0
TABLE
2
BLOCK_RECORD
5
9
330
0
100
AcDbSymbolTable
70
2
0
BLOCK_RECORD
5
C
330
9
100
AcDbSymbolTableRecord
100
AcDbBlockTableRecord
2
*Model_Space
70
0
280
1
281
0
0
BLOCK_RECORD
5
F
330
9
100
AcDbSymbolTableRecord
100
AcDbBlockTableRecord
2
*Paper_Space
70
0
280
1
281
0
0
ENDTAB
0
ENDSEC
0
SECTION
2
BLOCKS
0
BLOCK
5
D
330
C
100
AcDbEntity
8
0
100
AcDbBlockBegin
2
*Model_Space
70
0
10
0
20
0
30
0
3
*Model_Space
1

0
ENDBLK
5
E
100
AcDbEntity
8
0
100
AcDbBlockEnd
0
BLOCK
5
10
330
F
100
AcDbEntity
8
0
100
AcDbBlockBegin
2
*Paper_Space
70
0
10
0
20
0
30
0
3
*Paper_Space
1

0
ENDBLK
5
11
100
AcDbEntity
8
0
100
AcDbBlockEnd
0
ENDSEC
0
SECTION
2
ENTITIES
0
TEXT
5
1A
330
C
100
AcDbEntity
420
0
8
0
100
AcDbText
10
0
20
2071
30
0
40
20
1
SVG Markers Demo
7
Arial
100
AcDbText
0
TEXT
5
1C
330
C
100
AcDbEntity
420
5592405
8
0
100
AcDbText
10
0
20
2038
30
0
40
16
1
1. Inline SVG – Arrow markers on path
7
Arial
100
AcDbText
0
LWPOLYLINE
5
1D
330
C
100
AcDbEntity
420
4620980
8
0
100
AcDbPolyline
90
2
70
0
43
0
38
0
39
0
10
31
20
1989
10
271
20
1989
0
HATCH
5
1E
330
C
100
AcDbEntity
420
4620980
8
0
100
AcDbHatch
10
0
20
0
30
0
210
0
220
0
230
1
2
SOLID
70
1
71
0
91
1
92
7
72
0
73
1
93
33
10
43
20
1995
10
42.25
20
1994.6249988555908
10
41.5
20
1994.2499988555908
10
40.75000114440918
20
1993.8749988555908
10
40.00000057220459
20
1993.499999141693
10
39.25
20
1993.1249988555908
10
38.50000057220459
20
1992.749999141693
10
37.75000057220459
20
1992.3749994277955
10
37.00000057220459
20
1991.9999994277955
10
36.25
20
1991.6249994277955
10
35.50000028610229
20
1991.2499995708465
10
34.75000057220459
20
1990.8749997138978
10
34.00000028610229
20
1990.4999997138978
10
33.249999856948854
20
1990.1249996423721
10
32.50000057220459
20
1989.7500000715256
10
31.750000286102292
20
1989.3750000357627
10
31
20
1989
10
31.75
20
1988.625
10
32.50000114440918
20
1988.2499994277955
10
33.25
20
1987.875
10
34
20
1987.5
10
34.75000057220459
20
1987.1249997138978
10
35.49999942779541
20
1986.7500002861022
10
36.25000114440918
20
1986.3749994277955
10
37
20
1986
10
37.74999942779541
20
1985.6250002861022
10
38.50000057220459
20
1985.2499997138978
10
39.25
20
1984.875
10
39.99999885559082
20
1984.5000005722045
10
40.75
20
1984.125
10
41.5
20
1983.75
10
42.25000114440918
20
1983.3749994277955
10
43
20
1983
97
0
75
1
76
1
47
1
98
0
0
LWPOLYLINE
5
1F
330
C
100
AcDbEntity
420
4620980
8
0
100
AcDbPolyline
90
34
70
0
43
0
38
0
39
0
10
43
20
1995
10
42.25
20
1994.6249988555908
10
41.5
20
1994.2499988555908
10
40.75000114440918
20
1993.8749988555908
10
40.00000057220459
20
1993.499999141693
10
39.25
20
1993.1249988555908
10
38.50000057220459
20
1992.749999141693
10
37.75000057220459
20
1992.3749994277955
10
37.00000057220459
20
1991.9999994277955
10
36.25
20
1991.6249994277955
10
35.50000028610229
20
1991.2499995708465
10
34.75000057220459
20
1990.8749997138978
10
34.00000028610229
20
1990.4999997138978
10
33.249999856948854
20
1990.1249996423721
10
32.50000057220459
20
1989.7500000715256
10
31.750000286102292
20
1989.3750000357627
10
31
20
1989
10
31.75
20
1988.625
10
32.50000114440918
20
1988.2499994277955
10
33.25
20
1987.875
10
34
20
1987.5
10
34.75000057220459
20
1987.1249997138978
10
35.49999942779541
20
1986.7500002861022
10
36.25000114440918
20
1986.3749994277955
10
37
20
1986
10
37.74999942779541
20
1985.6250002861022
10
38.50000057220459
20
1985.2499997138978
10
39.25
20
1984.875
10
39.99999885559082
20
1984.5000005722045
10
40.75
20
1984.125
10
41.5
20
1983.75
10
42.25000114440918
20
1983.3749994277955
10
43
20
1983
10
43
20
1995
0
HATCH
5
20
330
C
100
AcDbEntity
420
4620980
8
0
100
AcDbHatch
10
0
20
0
30
0
210
0
220
0
230
1
2
SOLID
70
1
71
0
91
1
92
7
72
0
73
1
93
33
10
259
20
1995
10
259.75
20
1994.625
10
260.50000114440917
20
1994.2499994277955
10
261.25
20
1993.875
10
262
20
1993.5
10
262.7500005722046
20
1993.1249997138978
10
263.5
20
1992.75
10
264.25
20
1992.375
10
265
20
1992
10
265.7500005722046
20
1991.6249997138978
10
266.5
20
1991.25
10
267.25
20
1990.8750001430512
10
268
20
1990.5
10
268.75
20
1990.1249998569488
10
269.5
20
1989.7500002145766
10
270.25
20
1989.3750001072883
10
271
20
1989
10
270.25
20
1988.6249988555908
10
269.5
20
1988.2499988555908
10
268.75000114440917
20
1987.8749988555908
10
268.0000005722046
20
1987.499999141693
10
267.25
20
1987.1249988555908
10
266.50000114440917
20
1986.7499994277955
10
265.7499994277954
20
1986.3749988555908
10
265.0000005722046
20
1985.9999994277955
10
264.25000114440917
20
1985.6249997138978
10
263.4999997138977
20
1985.2499994277955
10
262.7500005722046
20
1984.8749997138978
10
262.00000114440917
20
1984.5
10
261.2499998569489
20
1984.1249994277955
10
260.5000005722046
20
1983.75
10
259.74999928474426
20
1983.3749994277955
10
259
20
1983
97
0
75
1
76
1
47
1
98
0
0
LWPOLYLINE
5
21
330
C
100
AcDbEntity
420
4620980
8
0
100
AcDbPolyline
90
34
70
0
43
0
38
0
39
0
10
259
20
1995
10
259.75
20
1994.625
10
260.50000114440917
20
1994.2499994277955
10
261.25
20
1993.875
10
262
20
1993.5
10
262.7500005722046
20
1993.1249997138978
10
263.5
20
1992.75
10
264.25
20
1992.375
10
265
20
1992
10
265.7500005722046
20
1991.6249997138978
10
266.5
20
1991.25
10
267.25
20
1990.8750001430512
10
268
20
1990.5
10
268.75
20
1990.1249998569488
10
269.5
20
1989.7500002145766
10
270.25
20
1989.3750001072883
10
271
20
1989
10
270.25
20
1988.6249988555908
10
269.5
20
1988.2499988555908
10
268.75000114440917
20
1987.8749988555908
10
268.0000005722046
20
1987.499999141693
10
267.25
20
1987.1249988555908
10
266.50000114440917
20
1986.7499994277955
10
265.7499994277954
20
1986.3749988555908
10
265.0000005722046
20
1985.9999994277955
10
264.25000114440917
20
1985.6249997138978
10
263.4999997138977
20
1985.2499994277955
10
262.7500005722046
20
1984.8749997138978
10
262.00000114440917
20
1984.5
10
261.2499998569489
20
1984.1249994277955
10
260.5000005722046
20
1983.75
10
259.74999928474426
20
1983.3749994277955
10
259
20
1983
10
259
20
1995
0
TEXT
5
22
330
C
100
AcDbEntity
420
5592405
8
0
100
AcDbText
10
0
20
1906
30
0
40
16
1
2. Inline SVG – Markers on polyline (start + mid + end)
7
Arial
100
AcDbText
0
LWPOLYLINE
5
23
330
C
100
AcDbEntity
420
14423100
8
0
100
AcDbPolyline
90
5
70
0
43
0
38
0
39
0
10
21
20
1817
10
81
20
1877
10
151
20
1837
10
221
20
1877
10
281
20
1817
0
HATCH
5
24
330
C
100
AcDbEntity
420
14423100
8
0
100
AcDbHatch
10
0
20
0
30
0
210
0
220
0
230
1
2
SOLID
70
1
71
0
91
1
92
7
72
0
73
1
93
33
10
276.7573593128807
20
1829.7279220613577
10
277.0225243558257
20
1828.932426932523
10
277.2876898033804
20
1828.1369305898588
10
277.55285444171557
20
1827.3414366748534
10
277.81801948466057
20
1826.5459415460184
10
278.08318472991033
20
1825.750445810269
10
278.34834957055045
20
1824.9549512883486
10
278.6135146134954
20
1824.1594561595139
10
278.8786796564404
20
1823.3639610306789
10
279.1438449016902
20
1822.5684652949294
10
279.4090097423302
20
1821.772970773009
10
279.6741748864277
20
1820.9774757453267
10
279.93933982822017
20
1820.1819805153395
10
280.2045047700127
20
1819.3864852853521
10
280.4696700658387
20
1818.5909904093983
10
280.7348350329194
20
1817.7954952046991
10
281
20
1817
10
280.20450406194567
20
1817.2651642337255
10
279.4090089331108
20
1817.5303292766705
10
278.61351461349545
20
1817.7954935103958
10
277.81801928235564
20
1818.0606591602555
10
277.0225235466062
20
1818.3258244055053
10
276.22702963160054
20
1818.5909890438406
10
275.4315328843267
20
1818.856154896005
10
274.6360389693211
20
1819.12131953434
10
273.8405444474008
20
1819.3864843749802
10
273.04504810473674
20
1819.6516502271447
10
272.24955378512135
20
1819.9168148654799
10
271.4540592632011
20
1820.1819797061198
10
270.65856281938454
20
1820.447145254827
10
269.8630686009216
20
1820.7123101966197
10
269.0675721571051
20
1820.9774757453267
10
268.27207793864216
20
1821.2426406871193
97
0
75
1
76
1
47
1
98
0
0
LWPOLYLINE
5
25
330
C
100
AcDbEntity
420
14423100
8
0
100
AcDbPolyline
90
34
70
0
43
0
38
0
39
0
10
276.7573593128807
20
1829.7279220613577
10
277.0225243558257
20
1828.932426932523
10
277.2876898033804
20
1828.1369305898588
10
277.55285444171557
20
1827.3414366748534
10
277.81801948466057
20
1826.5459415460184
10
278.08318472991033
20
1825.750445810269
10
278.34834957055045
20
1824.9549512883486
10
278.6135146134954
20
1824.1594561595139
10
278.8786796564404
20
1823.3639610306789
10
279.1438449016902
20
1822.5684652949294
10
279.4090097423302
20
1821.772970773009
10
279.6741748864277
20
1820.9774757453267
10
279.93933982822017
20
1820.1819805153395
10
280.2045047700127
20
1819.3864852853521
10
280.4696700658387
20
1818.5909904093983
10
280.7348350329194
20
1817.7954952046991
10
281
20
1817
10
280.20450406194567
20
1817.2651642337255
10
279.4090089331108
20
1817.5303292766705
10
278.61351461349545
20
1817.7954935103958
10
277.81801928235564
20
1818.0606591602555
10
277.0225235466062
20
1818.3258244055053
10
276.22702963160054
20
1818.5909890438406
10
275.4315328843267
20
1818.856154896005
10
274.6360389693211
20
1819.12131953434
10
273.8405444474008
20
1819.3864843749802
10
273.04504810473674
20
1819.6516502271447
10
272.24955378512135
20
1819.9168148654799
10
271.4540592632011
20
1820.1819797061198
10
270.65856281938454
20
1820.447145254827
10
269.8630686009216
20
1820.7123101966197
10
269.0675721571051
20
1820.9774757453267
10
268.27207793864216
20
1821.2426406871193
10
276.7573593128807
20
1829.7279220613577
0
TEXT
5
26
330
C
100
AcDbEntity
420
5592405
8
0
100
AcDbText
10
0
20
1754
30
0
40
16
1
3. Inline SVG – Marker on polygon vertices
7
Arial
100
AcDbText
0
LWPOLYLINE
5
27
330
C
100
AcDbEntity
420
16747520
8
0
100
AcDbPolyline
90
6
70
0
43
0
38
0
39
0
10
101
20
1725
10
181
20
1665
10
151
20
1575
10
51
20
1575
10
21
20
1665
10
101
20
1725
0
HATCH
5
28
330
C
100
AcDbEntity
420
16747520
8
0
100
AcDbHatch
10
0
20
0
30
0
210
0
220
0
230
1
2
SOLID
70
1
71
0
91
1
92
7
72
0
73
1
93
4
10
99.8
20
1733.4
10
109.4
20
1726.2
10
102.2
20
1716.6
10
92.60000000000001
20
1723.8
97
0
75
1
76
1
47
1
98
0
0
LWPOLYLINE
5
29
330
C
100
AcDbEntity
420
16747520
8
0
100
AcDbPolyline
90
5
70
0
43
0
38
0
39
0
10
99.8
20
1733.4
10
109.4
20
1726.2
10
102.2
20
1716.6
10
92.60000000000001
20
1723.8
10
99.8
20
1733.4
0
HATCH
5
2A
330
C
100
AcDbEntity
420
16747520
8
0
100
AcDbHatch
10
0
20
0
30
0
210
0
220
0
230
1
2
SOLID
70
1
71
0
91
1
92
7
72
0
73
1
93
4
10
184.79473319220205
20
1672.5894663844042
10
188.5894663844041
20
1661.205266807798
10
177.20526680779795
20
1657.4105336155958
10
173.4105336155959
20
1668.794733192202
97
0
75
1
76
1
47
1
98
0
0
LWPOLYLINE
5
2B
330
C
100
AcDbEntity
420
16747520
8
0
100
AcDbPolyline
90
5
70
0
43
0
38
0
39
0
10
184.79473319220205
20
1672.5894663844042
10
188.5894663844041
20
1661.205266807798
10
177.20526680779795
20
1657.4105336155958
10
173.4105336155959
20
1668.794733192202
10
184.79473319220205
20
1672.5894663844042
0
HATCH
5
2C
330
C
100
AcDbEntity
420
16747520
8
0
100
AcDbHatch
10
0
20
0
30
0
210
0
220
0
230
1
2
SOLID
70
1
71
0
91
1
92
7
72
0
73
1
93
4
10
159.34841302284454
20
1573.4821067231192
10
149.4821067231192
20
1566.6515869771556
10
142.65158697715546
20
1576.5178932768808
10
152.5178932768808
20
1583.3484130228444
97
0
75
1
76
1
47
1
98
0
0
LWPOLYLINE
5
2D
330
C
100
AcDbEntity
420
16747520
8
0
100
AcDbPolyline
90
5
70
0
43
0
38
0
39
0
10
159.34841302284454
20
1573.4821067231192
10
149.4821067231192
20
1566.6515869771556
10
142.65158697715546
20
1576.5178932768808
10
152.5178932768808
20
1583.3484130228444
10
159.34841302284454
20
1573.4821067231192
0
HATCH
5
2E
330
C
100
AcDbEntity
420
16747520
8
0
100
AcDbHatch
10
0
20
0
30
0
210
0
220
0
230
1
2
SOLID
70
1
71
0
91
1
92
7
72
0
73
1
93
4
10
52.51789327688083
20
1566.6515869771556
10
42.651586977155475
20
1573.4821067231192
10
49.48210672311917
20
1583.3484130228444
10
59.348413022844525
20
1576.5178932768808
97
0
75
1
76
1
47
1
98
0
0
LWPOLYLINE
5
2F
330
C
100
AcDbEntity
420
16747520
8
0
100
AcDbPolyline
90
5
70
0
43
0
38
0
39
0
10
52.51789327688083
20
1566.6515869771556
10
42.651586977155475
20
1573.4821067231192
10
49.48210672311917
20
1583.3484130228444
10
59.348413022844525
20
1576.5178932768808
10
52.51789327688083
20
1566.6515869771556
0
TEXT
5
30
330
C
100
AcDbEntity
420
5592405
8
0
100
AcDbText
10
0
20
1502
30
0
40
16
1
4. ViewBox scaling – large viewBox in small viewport
7
Arial
100
AcDbText
0
LWPOLYLINE
5
31
330
C
100
AcDbEntity
420
32768
8
0
100
AcDbPolyline
90
2
70
0
43
0
38
0
39
0
10
21.599999999999994
20
1444
10
178.4
20
1444
0
HATCH
5
32
330
C
100
AcDbEntity
420
32768
8
0
100
AcDbHatch
10
0
20
0
30
0
210
0
220
0
230
1
2
SOLID
70
1
71
0
91
1
92
7
72
0
73
1
93
33
10
166.64000000000001
20
1449.88
10
167.375
20
1449.5125
10
168.110001121521
20
1449.1449994392397
10
168.845
20
1448.7775000000001
10
169.58
20
1448.4099999999999
10
170.3150005607605
20
1448.0424997196196
10
171.05
20
1447.675
10
171.785
20
1447.3075
10
172.52
20
1446.94
10
173.2550005607605
20
1446.5724997196198
10
173.99
20
1446.205
10
174.725
20
1445.83750014019
10
175.46
20
1445.47
10
176.195
20
1445.10249985981
10
176.93
20
1444.7350002102853
10
177.665
20
1444.3675001051424
10
178.4
20
1444
10
177.665
20
1443.632498878479
10
176.93
20
1443.264998878479
10
176.195001121521
20
1442.897498878479
10
175.4600005607605
20
1442.5299991588593
10
174.725
20
1442.162498878479
10
173.990001121521
20
1441.7949994392395
10
173.2549994392395
20
1441.4274988784791
10
172.5200005607605
20
1441.0599994392396
10
171.785001121521
20
1440.6924997196197
10
171.04999971961976
20
1440.3249994392395
10
170.3150005607605
20
1439.9574997196196
10
169.580001121521
20
1439.5900000000001
10
168.8449998598099
20
1439.2224994392395
10
168.1100005607605
20
1438.855
10
167.3749992990494
20
1438.4874994392394
10
166.64000000000001
20
1438.12
97
0
75
1
76
1
47
1
98
0
0
LWPOLYLINE
5
33
330
C
100
AcDbEntity
420
32768
8
0
100
AcDbPolyline
90
34
70
0
43
0
38
0
39
0
10
166.64000000000001
20
1449.88
10
167.375
20
1449.5125
10
168.110001121521
20
1449.1449994392397
10
168.845
20
1448.7775000000001
10
169.58
20
1448.4099999999999
10
170.3150005607605
20
1448.0424997196196
10
171.05
20
1447.675
10
171.785
20
1447.3075
10
172.52
20
1446.94
10
173.2550005607605
20
1446.5724997196198
10
173.99
20
1446.205
10
174.725
20
1445.83750014019
10
175.46
20
1445.47
10
176.195
20
1445.10249985981
10
176.93
20
1444.7350002102853
10
177.665
20
1444.3675001051424
10
178.4
20
1444
10
177.665
20
1443.632498878479
10
176.93
20
1443.264998878479
10
176.195001121521
20
1442.897498878479
10
175.4600005607605
20
1442.5299991588593
10
174.725
20
1442.162498878479
10
173.990001121521
20
1441.7949994392395
10
173.2549994392395
20
1441.4274988784791
10
172.5200005607605
20
1441.0599994392396
10
171.785001121521
20
1440.6924997196197
10
171.04999971961976
20
1440.3249994392395
10
170.3150005607605
20
1439.9574997196196
10
169.580001121521
20
1439.5900000000001
10
168.8449998598099
20
1439.2224994392395
10
168.1100005607605
20
1438.855
10
167.3749992990494
20
1438.4874994392394
10
166.64000000000001
20
1438.12
10
166.64000000000001
20
1449.88
0
TEXT
5
34
330
C
100
AcDbEntity
420
5592405
8
0
100
AcDbText
10
0
20
1350
30
0
40
16
1
5. ViewBox scaling – small viewBox in large viewport
7
Arial
100
AcDbText
0
LWPOLYLINE
5
35
330
C
100
AcDbEntity
420
8388736
8
0
100
AcDbPolyline
90
2
70
0
43
0
38
0
39
0
10
41.6
20
1242
10
358.4
20
1242
0
HATCH
5
36
330
C
100
AcDbEntity
420
8388736
8
0
100
AcDbHatch
10
0
20
0
30
0
210
0
220
0
230
1
2
SOLID
70
1
71
0
91
1
92
7
72
0
73
1
93
33
10
310.88
20
1265.76
10
313.84999999999997
20
1264.275
10
316.8200045318603
20
1262.7899977340699
10
319.78999999999996
20
1261.3049999999998
10
322.76
20
1259.8200000000002
10
325.7300022659301
20
1258.3349988670348
10
328.7
20
1256.85
10
331.66999999999996
20
1255.365
10
334.64
20
1253.88
10
337.6100022659302
20
1252.394998867035
10
340.58
20
1250.9099999999999
10
343.54999999999995
20
1249.4250005664826
10
346.52
20
1247.94
10
349.48999999999995
20
1246.4549994335175
10
352.46
20
1244.9700008497239
10
355.42999999999995
20
1243.485000424862
10
358.4
20
1242
10
355.42999999999995
20
1240.5149954681397
10
352.46
20
1239.0299954681395
10
349.49000453186034
20
1237.5449954681396
10
346.52000226593015
20
1236.0599966011048
10
343.54999999999995
20
1234.5749954681396
10
340.5800045318603
20
1233.0899977340698
10
337.6099977340698
20
1231.6049954681398
10
334.64000226593015
20
1230.1199977340698
10
331.67000453186034
20
1228.634998867035
10
328.6999988670349
20
1227.14999773407
10
325.7300022659301
20
1225.664998867035
10
322.7600045318603
20
1224.1799999999998
10
319.78999943351744
20
1222.6949977340698
10
316.82000226593016
20
1221.21
10
313.8499971675873
20
1219.7249977340698
10
310.88
20
1218.24
97
0
75
1
76
1
47
1
98
0
0
LWPOLYLINE
5
37
330
C
100
AcDbEntity
420
8388736
8
0
100
AcDbPolyline
90
34
70
0
43
0
38
0
39
0
10
310.88
20
1265.76
10
313.84999999999997
20
1264.275
10
316.8200045318603
20
1262.7899977340699
10
319.78999999999996
20
1261.3049999999998
10
322.76
20
1259.8200000000002
10
325.7300022659301
20
1258.3349988670348
10
328.7
20
1256.85
10
331.66999999999996
20
1255.365
10
334.64
20
1253.88
10
337.6100022659302
20
1252.394998867035
10
340.58
20
1250.9099999999999
10
343.54999999999995
20
1249.4250005664826
10
346.52
20
1247.94
10
349.48999999999995
20
1246.4549994335175
10
352.46
20
1244.9700008497239
10
355.42999999999995
20
1243.485000424862
10
358.4
20
1242
10
355.42999999999995
20
1240.5149954681397
10
352.46
20
1239.0299954681395
10
349.49000453186034
20
1237.5449954681396
10
346.52000226593015
20
1236.0599966011048
10
343.54999999999995
20
1234.5749954681396
10
340.5800045318603
20
1233.0899977340698
10
337.6099977340698
20
1231.6049954681398
10
334.64000226593015
20
1230.1199977340698
10
331.67000453186034
20
1228.634998867035
10
328.6999988670349
20
1227.14999773407
10
325.7300022659301
20
1225.664998867035
10
322.7600045318603
20
1224.1799999999998
10
319.78999943351744
20
1222.6949977340698
10
316.82000226593016
20
1221.21
10
313.8499971675873
20
1219.7249977340698
10
310.88
20
1218.24
10
310.88
20
1265.76
0
TEXT
5
38
330
C
100
AcDbEntity
420
5592405
8
0
100
AcDbText
10
0
20
1098
30
0
40
16
1
6. Group transform (scale 2x)
7
Arial
100
AcDbText
0
LWPOLYLINE
5
39
330
C
100
AcDbEntity
420
32896
8
0
100
AcDbPolyline
90
2
70
0
43
0
38
0
39
0
10
41
20
1029
10
261
20
1029
0
HATCH
5
3A
330
C
100
AcDbEntity
420
32896
8
0
100
AcDbHatch
10
0
20
0
30
0
210
0
220
0
230
1
2
SOLID
70
1
71
0
91
1
92
7
72
0
73
1
93
33
10
249
20
1035
10
249.75
20
1034.625
10
250.50000114440917
20
1034.2499994277955
10
251.25
20
1033.875
10
252
20
1033.5
10
252.7500005722046
20
1033.1249997138978
10
253.5
20
1032.75
10
254.25
20
1032.375
10
255
20
1032
10
255.7500005722046
20
1031.6249997138978
10
256.5
20
1031.25
10
257.25
20
1030.8750001430512
10
258
20
1030.5
10
258.75
20
1030.1249998569488
10
259.5
20
1029.7500002145766
10
260.25
20
1029.3750001072883
10
261
20
1029
10
260.25
20
1028.6249988555908
10
259.5
20
1028.2499988555908
10
258.75000114440917
20
1027.8749988555908
10
258.0000005722046
20
1027.499999141693
10
257.25
20
1027.1249988555908
10
256.50000114440917
20
1026.7499994277955
10
255.7499994277954
20
1026.3749988555908
10
255.0000005722046
20
1025.9999994277955
10
254.25000114440917
20
1025.6249997138978
10
253.4999997138977
20
1025.2499994277955
10
252.7500005722046
20
1024.8749997138978
10
252.00000114440917
20
1024.5
10
251.24999985694888
20
1024.1249994277955
10
250.5000005722046
20
1023.75
10
249.74999928474426
20
1023.3749994277955
10
249
20
1023
97
0
75
1
76
1
47
1
98
0
0
LWPOLYLINE
5
3B
330
C
100
AcDbEntity
420
32896
8
0
100
AcDbPolyline
90
34
70
0
43
0
38
0
39
0
10
249
20
1035
10
249.75
20
1034.625
10
250.50000114440917
20
1034.2499994277955
10
251.25
20
1033.875
10
252
20
1033.5
10
252.7500005722046
20
1033.1249997138978
10
253.5
20
1032.75
10
254.25
20
1032.375
10
255
20
1032
10
255.7500005722046
20
1031.6249997138978
10
256.5
20
1031.25
10
257.25
20
1030.8750001430512
10
258
20
1030.5
10
258.75
20
1030.1249998569488
10
259.5
20
1029.7500002145766
10
260.25
20
1029.3750001072883
10
261
20
1029
10
260.25
20
1028.6249988555908
10
259.5
20
1028.2499988555908
10
258.75000114440917
20
1027.8749988555908
10
258.0000005722046
20
1027.499999141693
10
257.25
20
1027.1249988555908
10
256.50000114440917
20
1026.7499994277955
10
255.7499994277954
20
1026.3749988555908
10
255.0000005722046
20
1025.9999994277955
10
254.25000114440917
20
1025.6249997138978
10
253.4999997138977
20
1025.2499994277955
10
252.7500005722046
20
1024.8749997138978
10
252.00000114440917
20
1024.5
10
251.24999985694888
20
1024.1249994277955
10
250.5000005722046
20
1023.75
10
249.74999928474426
20
1023.3749994277955
10
249
20
1023
10
249
20
1035
0
TEXT
5
3C
330
C
100
AcDbEntity
420
5592405
8
0
100
AcDbText
10
0
20
926
30
0
40
16
1
7. Varying stroke widths with same marker
7
Arial
100
AcDbText
0
LWPOLYLINE
5
3D
330
C
100
AcDbEntity
420
0
8
0
100
AcDbPolyline
90
2
70
0
43
0
38
0
39
0
10
21
20
897
10
281
20
897
0
HATCH
5
3E
330
C
100
AcDbEntity
420
0
8
0
100
AcDbHatch
10
0
20
0
30
0
210
0
220
0
230
1
2
SOLID
70
1
71
0
91
1
92
7
72
0
73
1
93
33
10
275
20
900
10
275.375
20
899.8125
10
275.7500005722046
20
899.6249997138978
10
276.125
20
899.4375
10
276.5
20
899.25
10
276.8750002861023
20
899.0624998569488
10
277.25
20
898.875
10
277.625
20
898.6875
10
278
20
898.5
10
278.3750002861023
20
898.3124998569488
10
278.75
20
898.125
10
279.125
20
897.9375000715256
10
279.5
20
897.75
10
279.875
20
897.5624999284744
10
280.25
20
897.3750001072883
10
280.625
20
897.1875000536443
10
281
20
897
10
280.625
20
896.8124994277955
10
280.25
20
896.6249994277955
10
279.8750005722046
20
896.4374994277955
10
279.5000002861023
20
896.2499995708465
10
279.125
20
896.0624994277955
10
278.7500005722046
20
895.8749997138978
10
278.3749997138977
20
895.6874994277955
10
278.0000002861023
20
895.4999997138978
10
277.6250005722046
20
895.3124998569488
10
277.2499998569489
20
895.1249997138978
10
276.8750002861023
20
894.9374998569488
10
276.5000005722046
20
894.75
10
276.12499992847444
20
894.5624997138978
10
275.7500002861023
20
894.375
10
275.37499964237213
20
894.1874997138978
10
275
20
894
97
0
75
1
76
1
47
1
98
0
0
LWPOLYLINE
5
3F
330
C
100
AcDbEntity
420
0
8
0
100
AcDbPolyline
90
34
70
0
43
0
38
0
39
0
10
275
20
900
10
275.375
20
899.8125
10
275.7500005722046
20
899.6249997138978
10
276.125
20
899.4375
10
276.5
20
899.25
10
276.8750002861023
20
899.0624998569488
10
277.25
20
898.875
10
277.625
20
898.6875
10
278
20
898.5
10
278.3750002861023
20
898.3124998569488
10
278.75
20
898.125
10
279.125
20
897.9375000715256
10
279.5
20
897.75
10
279.875
20
897.5624999284744
10
280.25
20
897.3750001072883
10
280.625
20
897.1875000536443
10
281
20
897
10
280.625
20
896.8124994277955
10
280.25
20
896.6249994277955
10
279.8750005722046
20
896.4374994277955
10
279.5000002861023
20
896.2499995708465
10
279.125
20
896.0624994277955
10
278.7500005722046
20
895.8749997138978
10
278.3749997138977
20
895.6874994277955
10
278.0000002861023
20
895.4999997138978
10
277.6250005722046
20
895.3124998569488
10
277.2499998569489
20
895.1249997138978
10
276.8750002861023
20
894.9374998569488
10
276.5000005722046
20
894.75
10
276.12499992847444
20
894.5624997138978
10
275.7500002861023
20
894.375
10
275.37499964237213
20
894.1874997138978
10
275
20
894
10
275
20
900
0
LWPOLYLINE
5
40
330
C
100
AcDbEntity
420
0
8
0
100
AcDbPolyline
90
2
70
0
43
0
38
0
39
0
10
21
20
867
10
281
20
867
0
HATCH
5
41
330
C
100
AcDbEntity
420
0
8
0
100
AcDbHatch
10
0
20
0
30
0
210
0
220
0
230
1
2
SOLID
70
1
71
0
91
1
92
7
72
0
73
1
93
33
10
263
20
876
10
264.125
20
875.4375
10
265.2500017166138
20
874.874999141693
10
266.375
20
874.3125
10
267.5
20
873.75
10
268.62500085830686
20
873.1874995708465
10
269.75
20
872.625
10
270.875
20
872.0625
10
272
20
871.5
10
273.12500085830686
20
870.9374995708465
10
274.25
20
870.375
10
275.375
20
869.8125002145766
10
276.5
20
869.25
10
277.625
20
868.6874997854234
10
278.75
20
868.1250003218652
10
279.875
20
867.5625001609326
10
281
20
867
10
279.875
20
866.4374982833863
10
278.75
20
865.8749982833863
10
277.6250017166138
20
865.3124982833863
10
276.50000085830686
20
864.7499987125398
10
275.375
20
864.1874982833863
10
274.2500017166138
20
863.624999141693
10
273.12499914169314
20
863.0624982833863
10
272.00000085830686
20
862.499999141693
10
270.8750017166138
20
861.9374995708465
10
269.74999957084657
20
861.374999141693
10
268.62500085830686
20
860.8124995708465
10
267.5000017166138
20
860.25
10
266.37499978542326
20
859.687499141693
10
265.25000085830686
20
859.125
10
264.1249989271164
20
858.562499141693
10
263
20
858
97
0
75
1
76
1
47
1
98
0
0
LWPOLYLINE
5
42
330
C
100
AcDbEntity
420
0
8
0
100
AcDbPolyline
90
34
70
0
43
0
38
0
39
0
10
263
20
876
10
264.125
20
875.4375
10
265.2500017166138
20
874.874999141693
10
266.375
20
874.3125
10
267.5
20
873.75
10
268.62500085830686
20
873.1874995708465
10
269.75
20
872.625
10
270.875
20
872.0625
10
272
20
871.5
10
273.12500085830686
20
870.9374995708465
10
274.25
20
870.375
10
275.375
20
869.8125002145766
10
276.5
20
869.25
10
277.625
20
868.6874997854234
10
278.75
20
868.1250003218652
10
279.875
20
867.5625001609326
10
281
20
867
10
279.875
20
866.4374982833863
10
278.75
20
865.8749982833863
10
277.6250017166138
20
865.3124982833863
10
276.50000085830686
20
864.7499987125398
10
275.375
20
864.1874982833863
10
274.2500017166138
20
863.624999141693
10
273.12499914169314
20
863.0624982833863
10
272.00000085830686
20
862.499999141693
10
270.8750017166138
20
861.9374995708465
10
269.74999957084657
20
861.374999141693
10
268.62500085830686
20
860.8124995708465
10
267.5000017166138
20
860.25
10
266.37499978542326
20
859.687499141693
10
265.25000085830686
20
859.125
10
264.1249989271164
20
858.562499141693
10
263
20
858
10
263
20
876
0
LWPOLYLINE
5
43
330
C
100
AcDbEntity
420
0
8
0
100
AcDbPolyline
90
2
70
0
43
0
38
0
39
0
10
21
20
827
10
281
20
827
0
HATCH
5
44
330
C
100
AcDbEntity
420
0
8
0
100
AcDbHatch
10
0
20
0
30
0
210
0
220
0
230
1
2
SOLID
70
1
71
0
91
1
92
7
72
0
73
1
93
33
10
245
20
845
10
247.25
20
843.875
10
249.50000343322756
20
842.7499982833863
10
251.75
20
841.625
10
254
20
840.5
10
256.2500017166138
20
839.374999141693
10
258.5
20
838.25
10
260.75
20
837.125
10
263
20
836
10
265.2500017166138
20
834.874999141693
10
267.5
20
833.75
10
269.75
20
832.6250004291535
10
272
20
831.5
10
274.25
20
830.3749995708465
10
276.5
20
829.2500006437301
10
278.75
20
828.1250003218652
10
281
20
827
10
278.75
20
825.8749965667726
10
276.5
20
824.7499965667726
10
274.25000343322756
20
823.6249965667726
10
272.0000017166138
20
822.4999974250793
10
269.75
20
821.3749965667726
10
267.50000343322756
20
820.2499982833863
10
265.2499982833862
20
819.1249965667726
10
263.0000017166138
20
817.9999982833863
10
260.75000343322756
20
816.874999141693
10
258.49999914169314
20
815.7499982833863
10
256.2500017166138
20
814.624999141693
10
254.00000343322756
20
813.5
10
251.74999957084657
20
812.3749982833863
10
249.50000171661378
20
811.25
10
247.2499978542328
20
810.1249982833863
10
245
20
809
97
0
75
1
76
1
47
1
98
0
0
LWPOLYLINE
5
45
330
C
100
AcDbEntity
420
0
8
0
100
AcDbPolyline
90
34
70
0
43
0
38
0
39
0
10
245
20
845
10
247.25
20
843.875
10
249.50000343322756
20
842.7499982833863
10
251.75
20
841.625
10
254
20
840.5
10
256.2500017166138
20
839.374999141693
10
258.5
20
838.25
10
260.75
20
837.125
10
263
20
836
10
265.2500017166138
20
834.874999141693
10
267.5
20
833.75
10
269.75
20
832.6250004291535
10
272
20
831.5
10
274.25
20
830.3749995708465
10
276.5
20
829.2500006437301
10
278.75
20
828.1250003218652
10
281
20
827
10
278.75
20
825.8749965667726
10
276.5
20
824.7499965667726
10
274.25000343322756
20
823.6249965667726
10
272.0000017166138
20
822.4999974250793
10
269.75
20
821.3749965667726
10
267.50000343322756
20
820.2499982833863
10
265.2499982833862
20
819.1249965667726
10
263.0000017166138
20
817.9999982833863
10
260.75000343322756
20
816.874999141693
10
258.49999914169314
20
815.7499982833863
10
256.2500017166138
20
814.624999141693
10
254.00000343322756
20
813.5
10
251.74999957084657
20
812.3749982833863
10
249.50000171661378
20
811.25
10
247.2499978542328
20
810.1249982833863
10
245
20
809
10
245
20
845
0
TEXT
5
46
330
C
100
AcDbEntity
420
5592405
8
0
100
AcDbText
10
0
20
754
30
0
40
16
1
8. markerUnits="userSpaceOnUse"
7
Arial
100
AcDbText
0
LWPOLYLINE
5
47
330
C
100
AcDbEntity
420
128
8
0
100
AcDbPolyline
90
2
70
0
43
0
38
0
39
0
10
31
20
705
10
271
20
705
0
HATCH
5
48
330
C
100
AcDbEntity
420
128
8
0
100
AcDbHatch
10
0
20
0
30
0
210
0
220
0
230
1
2
SOLID
70
1
71
0
91
1
92
7
72
0
73
1
93
33
10
256
20
712.5
10
256.9375
20
712.03125
10
257.8750014305115
20
711.5624992847443
10
258.8125
20
711.09375
10
259.75
20
710.625
10
260.68750071525574
20
710.1562496423721
10
261.625
20
709.6875
10
262.5625
20
709.21875
10
263.5
20
708.75
10
264.43750071525574
20
708.2812496423721
10
265.375
20
707.8125
10
266.3125
20
707.3437501788139
10
267.25
20
706.875
10
268.1875
20
706.4062498211861
10
269.125
20
705.9375002682209
10
270.0625
20
705.4687501341105
10
271
20
705
10
270.0625
20
704.5312485694885
10
269.125
20
704.0624985694885
10
268.1875014305115
20
703.5937485694885
10
267.25000071525574
20
703.1249989271164
10
266.3125
20
702.6562485694885
10
265.3750014305115
20
702.1874992847443
10
264.43749928474426
20
701.7187485694885
10
263.50000071525574
20
701.2499992847443
10
262.5625014305115
20
700.7812496423721
10
261.62499964237213
20
700.3124992847443
10
260.68750071525574
20
699.8437496423721
10
259.7500014305115
20
699.375
10
258.81249982118607
20
698.9062492847443
10
257.87500071525574
20
698.4375
10
256.9374991059303
20
697.9687492847443
10
256
20
697.5
97
0
75
1
76
1
47
1
98
0
0
LWPOLYLINE
5
49
330
C
100
AcDbEntity
420
128
8
0
100
AcDbPolyline
90
34
70
0
43
0
38
0
39
0
10
256
20
712.5
10
256.9375
20
712.03125
10
257.8750014305115
20
711.5624992847443
10
258.8125
20
711.09375
10
259.75
20
710.625
10
260.68750071525574
20
710.1562496423721
10
261.625
20
709.6875
10
262.5625
20
709.21875
10
263.5
20
708.75
10
264.43750071525574
20
708.2812496423721
10
265.375
20
707.8125
10
266.3125
20
707.3437501788139
10
267.25
20
706.875
10
268.1875
20
706.4062498211861
10
269.125
20
705.9375002682209
10
270.0625
20
705.4687501341105
10
271
20
705
10
270.0625
20
704.5312485694885
10
269.125
20
704.0624985694885
10
268.1875014305115
20
703.5937485694885
10
267.25000071525574
20
703.1249989271164
10
266.3125
20
702.6562485694885
10
265.3750014305115
20
702.1874992847443
10
264.43749928474426
20
701.7187485694885
10
263.50000071525574
20
701.2499992847443
10
262.5625014305115
20
700.7812496423721
10
261.62499964237213
20
700.3124992847443
10
260.68750071525574
20
699.8437496423721
10
259.7500014305115
20
699.375
10
258.81249982118607
20
698.9062492847443
10
257.87500071525574
20
698.4375
10
256.9374991059303
20
697.9687492847443
10
256
20
697.5
10
256
20
712.5
0
TEXT
5
4A
330
C
100
AcDbEntity
420
5592405
8
0
100
AcDbText
10
0
20
622
30
0
40
16
1
9. SVG with markers as <img> tag
7
Arial
100
AcDbText
0
LWPOLYLINE
5
4B
330
C
100
AcDbEntity
420
13421772
8
0
100
AcDbPolyline
90
5
70
0
43
0
38
0
39
0
10
0
20
614
10
200
20
614
10
200
20
534
10
0
20
534
10
0
20
614
0
LWPOLYLINE
5
4C
330
C
100
AcDbEntity
420
15022389
8
0
100
AcDbPolyline
90
2
70
0
43
0
38
0
39
0
10
20
20
574
10
180
20
574
0
HATCH
5
4D
330
C
100
AcDbEntity
420
15022389
8
0
100
AcDbHatch
10
0
20
0
30
0
210
0
220
0
230
1
2
SOLID
70
1
71
0
91
1
92
7
72
0
73
1
93
33
10
168
20
580
10
168.75
20
579.625
10
169.50000114440917
20
579.2499994277955
10
170.25
20
578.875
10
171
20
578.5
10
171.75000057220458
20
578.1249997138978
10
172.5
20
577.75
10
173.25
20
577.375
10
174
20
577
10
174.75000057220458
20
576.6249997138978
10
175.5
20
576.25
10
176.25
20
575.8750001430512
10
177
20
575.5
10
177.75
20
575.1249998569488
10
178.5
20
574.7500002145766
10
179.25
20
574.3750001072883
10
180
20
574
10
179.25
20
573.6249988555908
10
178.5
20
573.2499988555908
10
177.75000114440917
20
572.8749988555908
10
177.00000057220458
20
572.499999141693
10
176.25
20
572.1249988555908
10
175.50000114440917
20
571.7499994277955
10
174.74999942779542
20
571.3749988555908
10
174.00000057220458
20
570.9999994277955
10
173.25000114440917
20
570.6249997138978
10
172.4999997138977
20
570.2499994277955
10
171.75000057220458
20
569.8749997138978
10
171.00000114440917
20
569.5
10
170.24999985694885
20
569.1249994277955
10
169.50000057220458
20
568.75
10
168.74999928474426
20
568.3749994277955
10
168
20
568
97
0
75
1
76
1
47
1
98
0
0
LWPOLYLINE
5
4E
330
C
100
AcDbEntity
420
15022389
8
0
100
AcDbPolyline
90
34
70
0
43
0
38
0
39
0
10
168
20
580
10
168.75
20
579.625
10
169.50000114440917
20
579.2499994277955
10
170.25
20
578.875
10
171
20
578.5
10
171.75000057220458
20
578.1249997138978
10
172.5
20
577.75
10
173.25
20
577.375
10
174
20
577
10
174.75000057220458
20
576.6249997138978
10
175.5
20
576.25
10
176.25
20
575.8750001430512
10
177
20
575.5
10
177.75
20
575.1249998569488
10
178.5
20
574.7500002145766
10
179.25
20
574.3750001072883
10
180
20
574
10
179.25
20
573.6249988555908
10
178.5
20
573.2499988555908
10
177.75000114440917
20
572.8749988555908
10
177.00000057220458
20
572.499999141693
10
176.25
20
572.1249988555908
10
175.50000114440917
20
571.7499994277955
10
174.74999942779542
20
571.3749988555908
10
174.00000057220458
20
570.9999994277955
10
173.25000114440917
20
570.6249997138978
10
172.4999997138977
20
570.2499994277955
10
171.75000057220458
20
569.8749997138978
10
171.00000114440917
20
569.5
10
170.24999985694885
20
569.1249994277955
10
169.50000057220458
20
568.75
10
168.74999928474426
20
568.3749994277955
10
168
20
568
10
168
20
580
0
TEXT
5
4F
330
C
100
AcDbEntity
420
8947848
8
0
100
AcDbText
10
30
20
518
30
0
40
12
1
img tag (no viewBox scaling)
7
Arial
100
AcDbText
0
LWPOLYLINE
5
50
330
C
100
AcDbEntity
420
13421772
8
0
100
AcDbPolyline
90
5
70
0
43
0
38
0
39
0
10
224
20
614
10
424
20
614
10
424
20
534
10
224
20
534
10
224
20
614
0
LWPOLYLINE
5
51
330
C
100
AcDbEntity
420
2001125
8
0
100
AcDbPolyline
90
2
70
0
43
0
38
0
39
0
10
244
20
574
10
404
20
574
0
HATCH
5
52
330
C
100
AcDbEntity
420
2001125
8
0
100
AcDbHatch
10
0
20
0
30
0
210
0
220
0
230
1
2
SOLID
70
1
71
0
91
1
92
7
72
0
73
1
93
33
10
392
20
580
10
392.75
20
579.625
10
393.50000114440917
20
579.2499994277955
10
394.25
20
578.875
10
395
20
578.5
10
395.7500005722046
20
578.1249997138978
10
396.5
20
577.75
10
397.25
20
577.375
10
398
20
577
10
398.7500005722046
20
576.6249997138978
10
399.5
20
576.25
10
400.25
20
575.8750001430512
10
401
20
575.5
10
401.75
20
575.1249998569488
10
402.5
20
574.7500002145766
10
403.25
20
574.3750001072883
10
404
20
574
10
403.25
20
573.6249988555908
10
402.5
20
573.2499988555908
10
401.75000114440917
20
572.8749988555908
10
401.0000005722046
20
572.499999141693
10
400.25
20
572.1249988555908
10
399.50000114440917
20
571.7499994277955
10
398.7499994277954
20
571.3749988555908
10
398.0000005722046
20
570.9999994277955
10
397.25000114440917
20
570.6249997138978
10
396.4999997138977
20
570.2499994277955
10
395.7500005722046
20
569.8749997138978
10
395.00000114440917
20
569.5
10
394.2499998569489
20
569.1249994277955
10
393.5000005722046
20
568.75
10
392.74999928474426
20
568.3749994277955
10
392
20
568
97
0
75
1
76
1
47
1
98
0
0
LWPOLYLINE
5
53
330
C
100
AcDbEntity
420
2001125
8
0
100
AcDbPolyline
90
34
70
0
43
0
38
0
39
0
10
392
20
580
10
392.75
20
579.625
10
393.50000114440917
20
579.2499994277955
10
394.25
20
578.875
10
395
20
578.5
10
395.7500005722046
20
578.1249997138978
10
396.5
20
577.75
10
397.25
20
577.375
10
398
20
577
10
398.7500005722046
20
576.6249997138978
10
399.5
20
576.25
10
400.25
20
575.8750001430512
10
401
20
575.5
10
401.75
20
575.1249998569488
10
402.5
20
574.7500002145766
10
403.25
20
574.3750001072883
10
404
20
574
10
403.25
20
573.6249988555908
10
402.5
20
573.2499988555908
10
401.75000114440917
20
572.8749988555908
10
401.0000005722046
20
572.499999141693
10
400.25
20
572.1249988555908
10
399.50000114440917
20
571.7499994277955
10
398.7499994277954
20
571.3749988555908
10
398.0000005722046
20
570.9999994277955
10
397.25000114440917
20
570.6249997138978
10
396.4999997138977
20
570.2499994277955
10
395.7500005722046
20
569.8749997138978
10
395.00000114440917
20
569.5
10
394.2499998569489
20
569.1249994277955
10
393.5000005722046
20
568.75
10
392.74999928474426
20
568.3749994277955
10
392
20
568
10
392
20
580
0
TEXT
5
54
330
C
100
AcDbEntity
420
8947848
8
0
100
AcDbText
10
231
20
518
30
0
40
12
1
img tag (viewBox 400x160 → 200x80)
7
Arial
100
AcDbText
0
TEXT
5
55
330
C
100
AcDbEntity
420
5592405
8
0
100
AcDbText
10
0
20
478
30
0
40
16
1
10. SVG with markers as CSS background-image
7
Arial
100
AcDbText
0
LWPOLYLINE
5
56
330
C
100
AcDbEntity
420
13421772
8
0
100
AcDbPolyline
90
5
70
0
43
0
38
0
39
0
10
0
20
470
10
200
20
470
10
200
20
390
10
0
20
390
10
0
20
470
0
LWPOLYLINE
5
57
330
C
100
AcDbEntity
420
4431943
8
0
100
AcDbPolyline
90
2
70
0
43
0
38
0
39
0
10
20
20
430
10
180
20
430
0
HATCH
5
58
330
C
100
AcDbEntity
420
4431943
8
0
100
AcDbHatch
10
0
20
0
30
0
210
0
220
0
230
1
2
SOLID
70
1
71
0
91
1
92
7
72
0
73
1
93
33
10
168
20
436
10
168.75
20
435.625
10
169.50000114440917
20
435.2499994277955
10
170.25
20
434.875
10
171
20
434.5
10
171.75000057220458
20
434.12499971389775
10
172.5
20
433.75
10
173.25
20
433.375
10
174
20
433
10
174.75000057220458
20
432.62499971389775
10
175.5
20
432.25
10
176.25
20
431.87500014305124
10
177
20
431.5
10
177.75
20
431.12499985694876
10
178.5
20
430.75000021457663
10
179.25
20
430.3750001072883
10
180
20
430
10
179.25
20
429.6249988555908
10
178.5
20
429.2499988555908
10
177.75000114440917
20
428.8749988555908
10
177.00000057220458
20
428.499999141693
10
176.25
20
428.1249988555908
10
175.50000114440917
20
427.7499994277955
10
174.74999942779542
20
427.3749988555908
10
174.00000057220458
20
426.9999994277955
10
173.25000114440917
20
426.62499971389775
10
172.4999997138977
20
426.2499994277955
10
171.75000057220458
20
425.87499971389775
10
171.00000114440917
20
425.5
10
170.24999985694885
20
425.1249994277955
10
169.50000057220458
20
424.75
10
168.74999928474426
20
424.3749994277955
10
168
20
424
97
0
75
1
76
1
47
1
98
0
0
LWPOLYLINE
5
59
330
C
100
AcDbEntity
420
4431943
8
0
100
AcDbPolyline
90
34
70
0
43
0
38
0
39
0
10
168
20
436
10
168.75
20
435.625
10
169.50000114440917
20
435.2499994277955
10
170.25
20
434.875
10
171
20
434.5
10
171.75000057220458
20
434.12499971389775
10
172.5
20
433.75
10
173.25
20
433.375
10
174
20
433
10
174.75000057220458
20
432.62499971389775
10
175.5
20
432.25
10
176.25
20
431.87500014305124
10
177
20
431.5
10
177.75
20
431.12499985694876
10
178.5
20
430.75000021457663
10
179.25
20
430.3750001072883
10
180
20
430
10
179.25
20
429.6249988555908
10
178.5
20
429.2499988555908
10
177.75000114440917
20
428.8749988555908
10
177.00000057220458
20
428.499999141693
10
176.25
20
428.1249988555908
10
175.50000114440917
20
427.7499994277955
10
174.74999942779542
20
427.3749988555908
10
174.00000057220458
20
426.9999994277955
10
173.25000114440917
20
426.62499971389775
10
172.4999997138977
20
426.2499994277955
10
171.75000057220458
20
425.87499971389775
10
171.00000114440917
20
425.5
10
170.24999985694885
20
425.1249994277955
10
169.50000057220458
20
424.75
10
168.74999928474426
20
424.3749994277955
10
168
20
424
10
168
20
436
0
TEXT
5
5A
330
C
100
AcDbEntity
420
8947848
8
0
100
AcDbText
10
2
20
374
30
0
40
12
1
background-image (no viewBox scaling)
7
Arial
100
AcDbText
0
TEXT
5
5B
330
C
100
AcDbEntity
420
5592405
8
0
100
AcDbText
10
0
20
334
30
0
40
16
1
11. Curved path with marker-start and marker-end
7
Arial
100
AcDbText
0
LWPOLYLINE
5
5C
330
C
100
AcDbEntity
420
15277667
8
0
100
AcDbPolyline
90
148
70
0
43
0
38
0
39
0
10
21
20
225
10
22.469642639160156
20
226.34883880615234
10
23.946945190429688
20
227.68927764892578
10
25.431983947753906
20
229.0211410522461
10
26.924835205078125
20
230.34424591064453
10
28.42557144165039
20
231.6584014892578
10
29.934267044067383
20
232.96340942382812
10
31.450992584228516
20
234.25907135009766
10
32.9758186340332
20
235.54519653320312
10
34.508811950683594
20
236.82156372070312
10
36.050045013427734
20
238.08798217773438
10
37.59958267211914
20
239.34422302246094
10
39.1574821472168
20
240.59007263183594
10
40.72381591796875
20
241.82530975341797
10
42.29863739013672
20
243.0497055053711
10
43.882057189941406
20
244.26295471191406
10
45.47414779663086
20
245.46480560302734
10
47.07490539550781
20
246.65509033203125
10
48.68437957763672
20
247.83354949951172
10
50.3026237487793
20
248.99994659423828
10
51.9296760559082
20
250.15402221679688
10
53.56569290161133
20
251.29535675048828
10
55.21068572998047
20
252.42372131347656
10
56.8646125793457
20
253.5389404296875
10
58.52750015258789
20
254.64075469970703
10
60.199527740478516
20
255.72864532470703
10
61.88066482543945
20
256.8024139404297
10
63.57082748413086
20
257.8619079589844
10
65.27017974853516
20
258.90660858154297
10
66.97872924804688
20
259.93619537353516
10
68.69632720947266
20
260.9506072998047
10
70.4232406616211
20
261.9490966796875
10
72.15924835205078
20
262.9316711425781
10
73.9044189453125
20
263.8978691101074
10
75.65880584716797
20
264.8472595214844
10
77.4222412109375
20
265.77972412109375
10
79.19489288330078
20
266.6945495605469
10
80.97650909423828
20
267.5917854309082
10
82.76725006103516
20
268.470645904541
10
84.56689453125
20
269.3311424255371
10
86.37550354003906
20
270.1726303100586
10
88.19296264648438
20
270.9948616027832
10
90.01911926269531
20
271.79755783081055
10
91.85406494140625
20
272.5799789428711
10
93.6974868774414
20
273.3422050476074
10
95.54940795898438
20
274.0835189819336
10
97.4096908569336
20
274.80360412597656
10
99.27810668945312
20
275.5022964477539
10
101.15463256835938
20
276.17895126342773
10
103.03907012939453
20
276.83320236206055
10
104.93118286132812
20
277.4648971557617
10
106.83082580566406
20
278.0736541748047
10
108.7378921508789
20
278.65870666503906
10
110.65205383300781
20
279.22004318237305
10
112.57311248779297
20
279.75733947753906
10
114.5008316040039
20
280.2702331542969
10
116.43499755859375
20
280.75826263427734
10
118.3753662109375
20
281.2210121154785
10
120.32161712646484
20
281.6583671569824
10
122.27345275878906
20
282.07001876831055
10
124.23059844970703
20
282.4556694030762
10
126.19274139404297
20
282.8150291442871
10
128.15957641601562
20
283.14784240722656
10
130.13076782226562
20
283.4536781311035
10
132.10597229003906
20
283.73244857788086
10
134.08480834960938
20
283.98398208618164
10
136.0669403076172
20
284.2080764770508
10
138.0520477294922
20
284.4045639038086
10
140.0396728515625
20
284.5732841491699
10
142.02947998046875
20
284.71410369873047
10
144.0210723876953
20
284.82690811157227
10
146.0140380859375
20
284.91160583496094
10
148.0080108642578
20
284.9681282043457
10
150.00257873535156
20
284.9964370727539
10
151.99737548828125
20
284.9964370727539
10
153.99195861816406
20
284.96813201904297
10
155.98593139648438
20
284.91160583496094
10
157.97889709472656
20
284.82690811157227
10
159.97048950195312
20
284.71410369873047
10
161.96029663085938
20
284.5732879638672
10
163.94793701171875
20
284.40456771850586
10
165.93301391601562
20
284.20808029174805
10
167.9151611328125
20
283.9839859008789
10
169.8939971923828
20
283.7324523925781
10
171.86920166015625
20
283.4536819458008
10
173.8403778076172
20
283.1478500366211
10
175.80718994140625
20
282.8150444030762
10
177.7693328857422
20
282.45568084716797
10
179.7264862060547
20
282.0700340270996
10
181.67832946777344
20
281.6583824157715
10
183.62457275390625
20
281.2210273742676
10
185.56494140625
20
280.7582817077637
10
187.49911499023438
20
280.27024841308594
10
189.4268341064453
20
279.7573547363281
10
191.34788513183594
20
279.2200622558594
10
193.26206970214844
20
278.65871810913086
10
195.16912841796875
20
278.0736656188965
10
197.0687713623047
20
277.4649124145508
10
198.9608917236328
20
276.8332176208496
10
200.84532165527344
20
276.17897033691406
10
202.72183227539062
20
275.5023193359375
10
204.5902557373047
20
274.8036231994629
10
206.45054626464844
20
274.0835380554199
10
208.30247497558594
20
273.3422203063965
10
210.14588928222656
20
272.5800018310547
10
211.98080444335938
20
271.7975883483887
10
213.8069610595703
20
270.99489974975586
10
215.6243896484375
20
270.1726837158203
10
217.43299865722656
20
269.3311882019043
10
219.232666015625
20
268.47068786621094
10
221.02340698242188
20
267.5918273925781
10
222.80502319335938
20
266.6945915222168
10
224.5776824951172
20
265.7797622680664
10
226.3411102294922
20
264.8473014831543
10
228.09548950195312
20
263.8979187011719
10
229.8406524658203
20
262.93172454833984
10
231.57667541503906
20
261.9491424560547
10
233.3035888671875
20
260.9506530761719
10
235.0211944580078
20
259.93624114990234
10
236.72975158691406
20
258.9066467285156
10
238.42910766601562
20
257.86195373535156
10
240.1192626953125
20
256.8024597167969
10
241.80039978027344
20
255.72869110107422
10
243.47244262695312
20
254.6407928466797
10
245.1353302001953
20
253.53897857666016
10
246.7892608642578
20
252.4237518310547
10
248.4342498779297
20
251.29539489746094
10
250.0702667236328
20
250.15406036376953
10
251.69732666015625
20
248.99998474121094
10
253.31558227539062
20
247.8335723876953
10
254.92503356933594
20
246.6551284790039
10
256.52581787109375
20
245.46483612060547
10
258.117919921875
20
244.26297760009766
10
259.7013244628906
20
243.0497283935547
10
261.2761535644531
20
241.82532501220703
10
262.8424987792969
20
240.590087890625
10
264.4004211425781
20
239.34422302246094
10
265.949951171875
20
238.08798217773438
10
267.4912109375
20
236.8215560913086
10
269.0242004394531
20
235.5451889038086
10
270.5490417480469
20
234.25904083251953
10
272.0657653808594
20
232.96337890625
10
273.574462890625
20
231.65837860107422
10
275.0751953125
20
230.3442153930664
10
276.5680236816406
20
229.02113342285156
10
278.0530700683594
20
227.68927001953125
10
279.5303649902344
20
226.34883880615234
10
281
20
225
0
HATCH
5
5D
330
C
100
AcDbEntity
420
15277667
8
0
100
AcDbHatch
10
0
20
0
30
0
210
0
220
0
230
1
2
SOLID
70
1
71
0
91
1
92
7
72
0
73
1
93
33
10
25.783784106743568
20
237.53456858531922
10
25.484798373896908
20
236.7511572056069
10
25.18581186722544
20
235.96774666902456
10
24.88682620368357
20
235.18433690626694
10
24.587839081991085
20
234.4009261935546
10
24.288852347211012
20
233.61751505927737
10
23.989866068648148
20
232.8341051203895
10
23.69087936852047
20
232.05069479458962
10
23.391892861848994
20
231.2672842580073
10
23.09290593361272
20
230.4838733345125
10
22.793919540995546
20
229.7004630967774
10
22.494933148378372
20
228.91705285904231
10
22.195946430924494
20
228.13364212900365
10
21.89695965644347
20
227.35023124954114
10
21.5979733865437
20
226.56682151277278
10
21.29898669327185
20
225.7834107563865
10
21
20
225
10
21.806120333268836
20
225.23085711661224
10
22.612241896579683
20
225.46171458548451
10
23.41836099980651
20
225.69257134983695
10
24.224481333075353
20
225.92342846644897
10
25.030602281365198
20
226.15428575919145
10
25.836721384592018
20
226.38514252354366
10
26.642843562923872
20
226.61600016854595
10
27.4489626661507
20
226.8468569328984
10
28.255082384398527
20
227.0777138733804
10
29.06120394770938
20
227.3085713422529
10
29.86732366595721
20
227.53942828273512
10
30.673442769184035
20
227.77028504708755
10
31.47956433249488
20
228.00114251595983
10
32.285684665763725
20
228.23199963257207
10
33.09180622907457
20
228.46285710144434
10
33.8979253323014
20
228.69371386579655
97
0
75
1
76
1
47
1
98
0
0
LWPOLYLINE
5
5E
330
C
100
AcDbEntity
420
15277667
8
0
100
AcDbPolyline
90
34
70
0
43
0
38
0
39
0
10
25.783784106743568
20
237.53456858531922
10
25.484798373896908
20
236.7511572056069
10
25.18581186722544
20
235.96774666902456
10
24.88682620368357
20
235.18433690626694
10
24.587839081991085
20
234.4009261935546
10
24.288852347211012
20
233.61751505927737
10
23.989866068648148
20
232.8341051203895
10
23.69087936852047
20
232.05069479458962
10
23.391892861848994
20
231.2672842580073
10
23.09290593361272
20
230.4838733345125
10
22.793919540995546
20
229.7004630967774
10
22.494933148378372
20
228.91705285904231
10
22.195946430924494
20
228.13364212900365
10
21.89695965644347
20
227.35023124954114
10
21.5979733865437
20
226.56682151277278
10
21.29898669327185
20
225.7834107563865
10
21
20
225
10
21.806120333268836
20
225.23085711661224
10
22.612241896579683
20
225.46171458548451
10
23.41836099980651
20
225.69257134983695
10
24.224481333075353
20
225.92342846644897
10
25.030602281365198
20
226.15428575919145
10
25.836721384592018
20
226.38514252354366
10
26.642843562923872
20
226.61600016854595
10
27.4489626661507
20
226.8468569328984
10
28.255082384398527
20
227.0777138733804
10
29.06120394770938
20
227.3085713422529
10
29.86732366595721
20
227.53942828273512
10
30.673442769184035
20
227.77028504708755
10
31.47956433249488
20
228.00114251595983
10
32.285684665763725
20
228.23199963257207
10
33.09180622907457
20
228.46285710144434
10
33.8979253323014
20
228.69371386579655
10
25.783784106743568
20
237.53456858531922
0
HATCH
5
5F
330
C
100
AcDbEntity
420
15277667
8
0
100
AcDbHatch
10
0
20
0
30
0
210
0
220
0
230
1
2
SOLID
70
1
71
0
91
1
92
7
72
0
73
1
93
33
10
276.21624830955943
20
237.53458095686506
10
276.515232790212
20
236.75116964706103
10
276.81421772707864
20
235.96775714186606
10
277.113201751517
20
235.184347027453
10
277.4121862321696
20
234.40093571764896
10
277.71117094092915
20
233.61752381014935
10
278.0101551934746
20
232.8341130980407
10
278.3091396741272
20
232.05070178823667
10
278.6081241547797
20
231.26729047843264
10
278.9071088635393
20
230.48387857093326
10
279.2060931160848
20
229.70046785882437
10
279.5050776934657
20
228.91705665441145
10
279.80406207738986
20
228.13364523921632
10
280.103046461314
20
227.3502338240212
10
280.4020311837875
20
226.5668227776946
10
280.70101559189374
20
225.7834113888473
10
281
20
225
10
280.19387948993824
20
225.2308583582328
10
279.38775975370345
20
225.46171755959335
10
278.5816408605963
20
225.6925759871267
10
277.7755208962544
20
225.9234357861826
10
276.9694005449991
20
226.15429516367453
10
276.16328203880545
20
226.38515401277164
10
275.35716065096574
20
226.61601395330877
10
274.5510421447721
20
226.8468728024061
10
273.7449230235578
20
227.0777318276348
10
272.9388020399568
20
227.30859178549713
10
272.1326831295245
20
227.53945061726927
10
271.32656400831024
20
227.77030964249798
10
270.5204429366434
20
228.0011692928499
10
269.7143241142769
20
228.2320284321322
10
268.90820304261007
20
228.46288808248414
10
268.10208422024357
20
228.69374722176667
97
0
75
1
76
1
47
1
98
0
0
LWPOLYLINE
5
60
330
C
100
AcDbEntity
420
15277667
8
0
100
AcDbPolyline
90
34
70
0
43
0
38
0
39
0
10
276.21624830955943
20
237.53458095686506
10
276.515232790212
20
236.75116964706103
10
276.81421772707864
20
235.96775714186606
10
277.113201751517
20
235.184347027453
10
277.4121862321696
20
234.40093571764896
10
277.71117094092915
20
233.61752381014935
10
278.0101551934746
20
232.8341130980407
10
278.3091396741272
20
232.05070178823667
10
278.6081241547797
20
231.26729047843264
10
278.9071088635393
20
230.48387857093326
10
279.2060931160848
20
229.70046785882437
10
279.5050776934657
20
228.91705665441145
10
279.80406207738986
20
228.13364523921632
10
280.103046461314
20
227.3502338240212
10
280.4020311837875
20
226.5668227776946
10
280.70101559189374
20
225.7834113888473
10
281
20
225
10
280.19387948993824
20
225.2308583582328
10
279.38775975370345
20
225.46171755959335
10
278.5816408605963
20
225.6925759871267
10
277.7755208962544
20
225.9234357861826
10
276.9694005449991
20
226.15429516367453
10
276.16328203880545
20
226.38515401277164
10
275.35716065096574
20
226.61601395330877
10
274.5510421447721
20
226.8468728024061
10
273.7449230235578
20
227.0777318276348
10
272.9388020399568
20
227.30859178549713
10
272.1326831295245
20
227.53945061726927
10
271.32656400831024
20
227.77030964249798
10
270.5204429366434
20
228.0011692928499
10
269.7143241142769
20
228.2320284321322
10
268.90820304261007
20
228.46288808248414
10
268.10208422024357
20
228.69374722176667
10
276.21624830955943
20
237.53458095686506
0
TEXT
5
61
330
C
100
AcDbEntity
420
5592405
8
0
100
AcDbText
10
0
20
162
30
0
40
16
1
12. Multiple paths sharing markers in scaled viewBox
7
Arial
100
AcDbText
0
LWPOLYLINE
5
62
330
C
100
AcDbEntity
420
16733986
8
0
100
AcDbPolyline
90
2
70
0
43
0
38
0
39
0
10
26.66666666666667
20
116
10
273.3333333333333
20
116
0
HATCH
5
63
330
C
100
AcDbEntity
420
16733986
8
0
100
AcDbHatch
10
0
20
0
30
0
210
0
220
0
230
1
2
SOLID
70
1
71
0
91
1
92
7
72
0
73
1
93
33
10
261.49333333333334
20
121.92000000000007
10
262.2333333333333
20
121.54999999999995
10
262.9733344624837
20
121.17999943542486
10
263.7133333333333
20
120.80999999999995
10
264.4533333333333
20
120.44000000000005
10
265.19333389790853
20
120.06999971771234
10
265.93333333333334
20
119.70000000000005
10
266.6733333333333
20
119.32999999999993
10
267.4133333333333
20
118.96000000000004
10
268.1533338979085
20
118.58999971771232
10
268.8933333333333
20
118.22000000000003
10
269.6333333333333
20
117.85000014114371
10
270.37333333333333
20
117.48000000000002
10
271.1133333333333
20
117.1099998588561
10
271.8533333333333
20
116.7400002117156
10
272.5933333333333
20
116.3700001058578
10
273.3333333333333
20
116
10
272.5933333333333
20
115.6299988708497
10
271.8533333333333
20
115.25999887084959
10
271.1133344624837
20
114.8899988708497
10
270.37333389790854
20
114.51999915313718
10
269.6333333333333
20
114.14999887084969
10
268.8933344624837
20
113.77999943542477
10
268.1533327687581
20
113.40999887084968
10
267.4133338979085
20
113.03999943542476
10
266.6733344624837
20
112.66999971771247
10
265.93333305104574
20
112.29999943542475
10
265.19333389790853
20
111.92999971771246
10
264.4533344624837
20
111.55999999999995
10
263.7133331921895
20
111.18999943542485
10
262.9733338979085
20
110.81999999999994
10
262.23333262761435
20
110.44999943542484
10
261.49333333333334
20
110.07999999999993
97
0
75
1
76
1
47
1
98
0
0
LWPOLYLINE
5
64
330
C
100
AcDbEntity
420
16733986
8
0
100
AcDbPolyline
90
34
70
0
43
0
38
0
39
0
10
261.49333333333334
20
121.92000000000007
10
262.2333333333333
20
121.54999999999995
10
262.9733344624837
20
121.17999943542486
10
263.7133333333333
20
120.80999999999995
10
264.4533333333333
20
120.44000000000005
10
265.19333389790853
20
120.06999971771234
10
265.93333333333334
20
119.70000000000005
10
266.6733333333333
20
119.32999999999993
10
267.4133333333333
20
118.96000000000004
10
268.1533338979085
20
118.58999971771232
10
268.8933333333333
20
118.22000000000003
10
269.6333333333333
20
117.85000014114371
10
270.37333333333333
20
117.48000000000002
10
271.1133333333333
20
117.1099998588561
10
271.8533333333333
20
116.7400002117156
10
272.5933333333333
20
116.3700001058578
10
273.3333333333333
20
116
10
272.5933333333333
20
115.6299988708497
10
271.8533333333333
20
115.25999887084959
10
271.1133344624837
20
114.8899988708497
10
270.37333389790854
20
114.51999915313718
10
269.6333333333333
20
114.14999887084969
10
268.8933344624837
20
113.77999943542477
10
268.1533327687581
20
113.40999887084968
10
267.4133338979085
20
113.03999943542476
10
266.6733344624837
20
112.66999971771247
10
265.93333305104574
20
112.29999943542475
10
265.19333389790853
20
111.92999971771246
10
264.4533344624837
20
111.55999999999995
10
263.7133331921895
20
111.18999943542485
10
262.9733338979085
20
110.81999999999994
10
262.23333262761435
20
110.44999943542484
10
261.49333333333334
20
110.07999999999993
10
261.49333333333334
20
121.92000000000007
0
LWPOLYLINE
5
65
330
C
100
AcDbEntity
420
16733986
8
0
100
AcDbPolyline
90
2
70
0
43
0
38
0
39
0
10
26.66666666666667
20
79
10
273.3333333333333
20
79
0
HATCH
5
66
330
C
100
AcDbEntity
420
16733986
8
0
100
AcDbHatch
10
0
20
0
30
0
210
0
220
0
230
1
2
SOLID
70
1
71
0
91
1
92
7
72
0
73
1
93
33
10
249.6533333333333
20
90.83999999999992
10
251.13333333333333
20
90.09999999999991
10
252.6133355916341
20
89.35999887084972
10
254.0933333333333
20
88.61999999999989
10
255.57333333333332
20
87.88000000000011
10
257.0533344624837
20
87.1399994354249
10
258.5333333333333
20
86.40000000000009
10
260.0133333333333
20
85.66000000000008
10
261.49333333333334
20
84.92000000000007
10
262.9733344624837
20
84.17999943542486
10
264.4533333333333
20
83.44000000000005
10
265.93333333333334
20
82.70000028228765
10
267.4133333333333
20
81.96000000000004
10
268.8933333333333
20
81.21999971771243
10
270.37333333333333
20
80.48000042343142
10
271.8533333333333
20
79.7400002117156
10
273.3333333333333
20
79
10
271.8533333333333
20
78.25999774169918
10
270.37333333333333
20
77.51999774169917
10
268.89333559163407
20
76.77999774169916
10
267.4133344624837
20
76.03999830627436
10
265.93333333333334
20
75.29999774169914
10
264.4533355916341
20
74.55999887084954
10
262.97333220418295
20
73.81999774169913
10
261.4933344624837
20
73.07999887084952
10
260.0133355916341
20
72.33999943542472
10
258.5333327687581
20
71.5999988708495
10
257.0533344624837
20
70.8599994354247
10
255.57333559163408
20
70.11999999999989
10
254.0933330510457
20
69.3799988708497
10
252.6133344624837
20
68.6400000000001
10
251.13333192189532
20
67.89999887084969
10
249.6533333333333
20
67.16000000000008
97
0
75
1
76
1
47
1
98
0
0
LWPOLYLINE
5
67
330
C
100
AcDbEntity
420
16733986
8
0
100
AcDbPolyline
90
34
70
0
43
0
38
0
39
0
10
249.6533333333333
20
90.83999999999992
10
251.13333333333333
20
90.09999999999991
10
252.6133355916341
20
89.35999887084972
10
254.0933333333333
20
88.61999999999989
10
255.57333333333332
20
87.88000000000011
10
257.0533344624837
20
87.1399994354249
10
258.5333333333333
20
86.40000000000009
10
260.0133333333333
20
85.66000000000008
10
261.49333333333334
20
84.92000000000007
10
262.9733344624837
20
84.17999943542486
10
264.4533333333333
20
83.44000000000005
10
265.93333333333334
20
82.70000028228765
10
267.4133333333333
20
81.96000000000004
10
268.8933333333333
20
81.21999971771243
10
270.37333333333333
20
80.48000042343142
10
271.8533333333333
20
79.7400002117156
10
273.3333333333333
20
79
10
271.8533333333333
20
78.25999774169918
10
270.37333333333333
20
77.51999774169917
10
268.89333559163407
20
76.77999774169916
10
267.4133344624837
20
76.03999830627436
10
265.93333333333334
20
75.29999774169914
10
264.4533355916341
20
74.55999887084954
10
262.97333220418295
20
73.81999774169913
10
261.4933344624837
20
73.07999887084952
10
260.0133355916341
20
72.33999943542472
10
258.5333327687581
20
71.5999988708495
10
257.0533344624837
20
70.8599994354247
10
255.57333559163408
20
70.11999999999989
10
254.0933330510457
20
69.3799988708497
10
252.6133344624837
20
68.6400000000001
10
251.13333192189532
20
67.89999887084969
10
249.6533333333333
20
67.16000000000008
10
249.6533333333333
20
90.83999999999992
0
LWPOLYLINE
5
68
330
C
100
AcDbEntity
420
16733986
8
0
100
AcDbPolyline
90
2
70
0
43
0
38
0
39
0
10
26.66666666666667
20
42
10
273.3333333333333
20
42
0
HATCH
5
69
330
C
100
AcDbEntity
420
16733986
8
0
100
AcDbHatch
10
0
20
0
30
0
210
0
220
0
230
1
2
SOLID
70
1
71
0
91
1
92
7
72
0
73
1
93
33
10
225.9733333333333
20
65.68000000000006
10
228.9333333333333
20
64.20000000000005
10
231.89333784993488
20
62.719997741699444
10
234.8533333333333
20
61.23999999999978
10
237.81333333333333
20
59.76000000000022
10
240.77333559163412
20
58.279998870849795
10
243.7333333333333
20
56.80000000000018
10
246.69333333333333
20
55.320000000000164
10
249.6533333333333
20
53.840000000000146
10
252.6133355916341
20
52.35999887084972
10
255.57333333333332
20
50.88000000000011
10
258.5333333333333
20
49.40000056457529
10
261.49333333333334
20
47.92000000000007
10
264.4533333333333
20
46.43999943542485
10
267.4133333333333
20
44.96000084686284
10
270.37333333333333
20
43.48000042343119
10
273.3333333333333
20
42
10
270.37333333333333
20
40.51999548339836
10
267.4133333333333
20
39.03999548339834
10
264.4533378499349
20
37.559995483398325
10
261.4933355916341
20
36.07999661254871
10
258.5333333333333
20
34.59999548339829
10
255.5733378499349
20
33.11999774169908
10
252.61333107503253
20
31.639995483398252
10
249.65333559163412
20
30.159997741699044
10
246.6933378499349
20
28.67999887084943
10
243.73333220418294
20
27.199997741699008
10
240.77333559163412
20
25.719998870849395
10
237.8133378499349
20
24.23999999999978
10
234.85333276875812
20
22.759997741699408
10
231.8933355916341
20
21.2800000000002
10
228.93333051045732
20
19.79999774169937
10
225.9733333333333
20
18.320000000000164
97
0
75
1
76
1
47
1
98
0
0
LWPOLYLINE
5
6A
330
C
100
AcDbEntity
420
16733986
8
0
100
AcDbPolyline
90
34
70
0
43
0
38
0
39
0
10
225.9733333333333
20
65.68000000000006
10
228.9333333333333
20
64.20000000000005
10
231.89333784993488
20
62.719997741699444
10
234.8533333333333
20
61.23999999999978
10
237.81333333333333
20
59.76000000000022
10
240.77333559163412
20
58.279998870849795
10
243.7333333333333
20
56.80000000000018
10
246.69333333333333
20
55.320000000000164
10
249.6533333333333
20
53.840000000000146
10
252.6133355916341
20
52.35999887084972
10
255.57333333333332
20
50.88000000000011
10
258.5333333333333
20
49.40000056457529
10
261.49333333333334
20
47.92000000000007
10
264.4533333333333
20
46.43999943542485
10
267.4133333333333
20
44.96000084686284
10
270.37333333333333
20
43.48000042343119
10
273.3333333333333
20
42
10
270.37333333333333
20
40.51999548339836
10
267.4133333333333
20
39.03999548339834
10
264.4533378499349
20
37.559995483398325
10
261.4933355916341
20
36.07999661254871
10
258.5333333333333
20
34.59999548339829
10
255.5733378499349
20
33.11999774169908
10
252.61333107503253
20
31.639995483398252
10
249.65333559163412
20
30.159997741699044
10
246.6933378499349
20
28.67999887084943
10
243.73333220418294
20
27.199997741699008
10
240.77333559163412
20
25.719998870849395
10
237.8133378499349
20
24.23999999999978
10
234.85333276875812
20
22.759997741699408
10
231.8933355916341
20
21.2800000000002
10
228.93333051045732
20
19.79999774169937
10
225.9733333333333
20
18.320000000000164
10
225.9733333333333
20
65.68000000000006
0
ENDSEC
0
SECTION
2
OBJECTS
0
DICTIONARY
5
A
330
0
100
AcDbDictionary
281
1
3
ACAD_GROUP
350
B
0
DICTIONARY
5
B
330
A
100
AcDbDictionary
281
0
0
ENDSEC
0
EOF