0
SECTION
2
HEADER
9
$ACADVER
1
AC1021
9
$LASTSAVEDBY
1
@tarikjabiri/dxf
9
$HANDSEED
5
98
9
$INSUNITS
70
0
9
$CLAYER
8
0
9
$VIEWCTR
10
448
20
469
0
ENDSEC
0
SECTION
2
CLASSES
0
ENDSEC
0
SECTION
2
TABLES
0
TABLE
2
VPORT
5
1
330
0
100
AcDbSymbolTable
70
1
0
VPORT
5
19
330
1
100
AcDbSymbolTableRecord
100
AcDbViewportTableRecord
2
*Active
70
0
10
0
20
0
11
1
21
1
12
448
22
469
13
0
23
0
14
10
24
10
15
10
25
10
16
0
26
0
36
1
17
0
27
0
37
0
40
1637.0329614269008
41
2
42
50
43
0
44
0
50
0
51
0
71
0
72
100
73
1
74
3
75
0
76
1
77
0
78
0
281
0
65
1
110
0
120
0
130
0
111
1
121
0
131
0
112
0
122
1
132
0
79
0
146
0
348
10020
60
7
61
5
292
1
282
1
141
0
142
0
63
250
421
3358443
0
ENDTAB
0
TABLE
2
LTYPE
5
2
330
0
100
AcDbSymbolTable
70
3
0
LTYPE
5
12
330
2
100
AcDbSymbolTableRecord
100
AcDbLinetypeTableRecord
2
ByBlock
70
0
3

72
65
73
0
40
0
0
LTYPE
5
13
330
2
100
AcDbSymbolTableRecord
100
AcDbLinetypeTableRecord
2
ByLayer
70
0
3

72
65
73
0
40
0
0
LTYPE
5
14
330
2
100
AcDbSymbolTableRecord
100
AcDbLinetypeTableRecord
2
Continuous
70
0
3
Solid line
72
65
73
0
40
0
0
ENDTAB
0
TABLE
2
LAYER
5
3
330
0
100
AcDbSymbolTable
70
1
0
LAYER
5
15
330
3
100
AcDbSymbolTableRecord
100
AcDbLayerTableRecord
2
0
70
0
62
7
6
Continuous
370
0
390
0
0
ENDTAB
0
TABLE
2
STYLE
5
4
330
0
100
AcDbSymbolTable
70
2
0
STYLE
5
16
330
4
100
AcDbSymbolTableRecord
100
AcDbTextStyleTableRecord
2
Standard
70
0
40
0
41
1
50
0
71
0
42
1
3
txt
4

0
STYLE
5
1B
330
4
100
AcDbSymbolTableRecord
100
AcDbTextStyleTableRecord
2
Arial
70
0
40
0
41
1
50
0
71
0
42
1
3
Arial.ttf
4

0
ENDTAB
0
TABLE
2
VIEW
5
5
330
0
100
AcDbSymbolTable
70
0
0
ENDTAB
0
TABLE
2
UCS
5
6
330
0
100
AcDbSymbolTable
70
0
0
ENDTAB
0
TABLE
2
APPID
5
7
330
0
100
AcDbSymbolTable
70
1
0
APPID
5
17
330
7
100
AcDbSymbolTableRecord
100
AcDbRegAppTableRecord
2
ACAD
70
0
0
ENDTAB
0
TABLE
2
DIMSTYLE
5
8
330
0
100
AcDbSymbolTable
70
1
100
AcDbDimStyleTable
0
DIMSTYLE
105
18
330
8
100
AcDbSymbolTableRecord
100
AcDbDimStyleTableRecord
2
Standard
70
0
340
16
0
ENDTAB
0
TABLE
2
BLOCK_RECORD
5
9
330
0
100
AcDbSymbolTable
70
2
0
BLOCK_RECORD
5
C
330
9
100
AcDbSymbolTableRecord
100
AcDbBlockTableRecord
2
*Model_Space
70
0
280
1
281
0
0
BLOCK_RECORD
5
F
330
9
100
AcDbSymbolTableRecord
100
AcDbBlockTableRecord
2
*Paper_Space
70
0
280
1
281
0
0
ENDTAB
0
ENDSEC
0
SECTION
2
BLOCKS
0
BLOCK
5
D
330
C
100
AcDbEntity
8
0
100
AcDbBlockBegin
2
*Model_Space
70
0
10
0
20
0
30
0
3
*Model_Space
1

0
ENDBLK
5
E
100
AcDbEntity
8
0
100
AcDbBlockEnd
0
BLOCK
5
10
330
F
100
AcDbEntity
8
0
100
AcDbBlockBegin
2
*Paper_Space
70
0
10
0
20
0
30
0
3
*Paper_Space
1

0
ENDBLK
5
11
100
AcDbEntity
8
0
100
AcDbBlockEnd
0
ENDSEC
0
SECTION
2
ENTITIES
0
TEXT
5
1A
330
C
100
AcDbEntity
420
0
8
0
100
AcDbText
10
0
20
965.5
30
0
40
18
1
SVG Files Demo
7
Arial
100
AcDbText
0
TEXT
5
1C
330
C
100
AcDbEntity
420
5592405
8
0
100
AcDbText
10
0
20
923.5
30
0
40
14
1
SVG files as <img> tags (small)
7
Arial
100
AcDbText
0
LWPOLYLINE
5
1D
330
C
100
AcDbEntity
420
13421772
8
0
100
AcDbPolyline
90
5
70
0
43
0
38
0
39
0
10
0
20
907
10
120
20
907
10
120
20
827
10
0
20
827
10
0
20
907
0
IMAGE
5
1F
330
C
100
AcDbEntity
8
0
100
AcDbRasterImage
90
0
10
0
20
907
30
0
11
1
21
0
31
0
12
0
22
1
32
0
13
120
23
80
340
1E
70
3
280
1
281
50
282
50
283
0
360
20
71
1
91
2
14
-0.5
24
-0.5
14
119.5
24
79.5
290
1
0
TEXT
5
22
330
C
100
AcDbEntity
420
8947848
8
0
100
AcDbText
10
12
20
812.25
30
0
40
11
1
MultipleSignalLamp
7
Arial
100
AcDbText
0
LWPOLYLINE
5
23
330
C
100
AcDbEntity
420
13421772
8
0
100
AcDbPolyline
90
5
70
0
43
0
38
0
39
0
10
144
20
907
10
264
20
907
10
264
20
827
10
144
20
827
10
144
20
907
0
IMAGE
5
25
330
C
100
AcDbEntity
8
0
100
AcDbRasterImage
90
0
10
144
20
907
30
0
11
1
21
0
31
0
12
0
22
1
32
0
13
120
23
80
340
24
70
3
280
1
281
50
282
50
283
0
360
26
71
1
91
2
14
-0.5
24
-0.5
14
119.5
24
79.5
290
1
0
TEXT
5
28
330
C
100
AcDbEntity
420
8947848
8
0
100
AcDbText
10
153
20
812.25
30
0
40
11
1
OpticalDataCouplers
7
Arial
100
AcDbText
0
LWPOLYLINE
5
29
330
C
100
AcDbEntity
420
13421772
8
0
100
AcDbPolyline
90
5
70
0
43
0
38
0
39
0
10
288
20
907
10
408
20
907
10
408
20
827
10
288
20
827
10
288
20
907
0
IMAGE
5
2B
330
C
100
AcDbEntity
8
0
100
AcDbRasterImage
90
0
10
288
20
907
30
0
11
1
21
0
31
0
12
0
22
1
32
0
13
120
23
80
340
2A
70
3
280
1
281
50
282
50
283
0
360
2C
71
1
91
2
14
-0.5
24
-0.5
14
119.5
24
79.5
290
1
0
TEXT
5
2E
330
C
100
AcDbEntity
420
8947848
8
0
100
AcDbText
10
303
20
812.25
30
0
40
11
1
OpticalSsiEncoder
7
Arial
100
AcDbText
0
TEXT
5
2F
330
C
100
AcDbEntity
420
5592405
8
0
100
AcDbText
10
0
20
765.5
30
0
40
14
1
SVG files as <img> tags (wide + Move)
7
Arial
100
AcDbText
0
LWPOLYLINE
5
30
330
C
100
AcDbEntity
420
13421772
8
0
100
AcDbPolyline
90
5
70
0
43
0
38
0
39
0
10
0
20
749
10
200
20
749
10
200
20
669
10
0
20
669
10
0
20
749
0
IMAGE
5
32
330
C
100
AcDbEntity
8
0
100
AcDbRasterImage
90
0
10
0
20
749
30
0
11
1
21
0
31
0
12
0
22
1
32
0
13
200
23
80
340
31
70
3
280
1
281
50
282
50
283
0
360
33
71
1
91
2
14
-0.5
24
-0.5
14
199.5
24
79.5
290
1
0
TEXT
5
35
330
C
100
AcDbEntity
420
8947848
8
0
100
AcDbText
10
28
20
654.25
30
0
40
11
1
PhotoelectricProximitySensor
7
Arial
100
AcDbText
0
LWPOLYLINE
5
36
330
C
100
AcDbEntity
420
13421772
8
0
100
AcDbPolyline
90
5
70
0
43
0
38
0
39
0
10
224
20
749
10
424
20
749
10
424
20
669
10
224
20
669
10
224
20
749
0
IMAGE
5
38
330
C
100
AcDbEntity
8
0
100
AcDbRasterImage
90
0
10
224
20
749
30
0
11
1
21
0
31
0
12
0
22
1
32
0
13
200
23
80
340
37
70
3
280
1
281
50
282
50
283
0
360
39
71
1
91
2
14
-0.5
24
-0.5
14
199.5
24
79.5
290
1
0
TEXT
5
3B
330
C
100
AcDbEntity
420
8947848
8
0
100
AcDbText
10
233
20
654.25
30
0
40
11
1
PhotoelectricProximitySensorUpward
7
Arial
100
AcDbText
0
LWPOLYLINE
5
3C
330
C
100
AcDbEntity
420
13421772
8
0
100
AcDbPolyline
90
5
70
0
43
0
38
0
39
0
10
448
20
749
10
648
20
749
10
648
20
669
10
448
20
669
10
448
20
749
0
IMAGE
5
3E
330
C
100
AcDbEntity
8
0
100
AcDbRasterImage
90
0
10
448
20
749
30
0
11
1
21
0
31
0
12
0
22
1
32
0
13
200
23
80
340
3D
70
3
280
1
281
50
282
50
283
0
360
3F
71
1
91
2
14
-0.5
24
-0.5
14
199.5
24
79.5
290
1
0
TEXT
5
41
330
C
100
AcDbEntity
420
8947848
8
0
100
AcDbText
10
461
20
654.25
30
0
40
11
1
PhotoelectricRetroReflectiveSensor
7
Arial
100
AcDbText
0
LWPOLYLINE
5
42
330
C
100
AcDbEntity
420
13421772
8
0
100
AcDbPolyline
90
5
70
0
43
0
38
0
39
0
10
672
20
749
10
872
20
749
10
872
20
669
10
672
20
669
10
672
20
749
0
IMAGE
5
44
330
C
100
AcDbEntity
8
0
100
AcDbRasterImage
90
0
10
672
20
749
30
0
11
1
21
0
31
0
12
0
22
1
32
0
13
200
23
80
340
43
70
3
280
1
281
50
282
50
283
0
360
45
71
1
91
2
14
-0.5
24
-0.5
14
199.5
24
79.5
290
1
0
TEXT
5
47
330
C
100
AcDbEntity
420
8947848
8
0
100
AcDbText
10
684
20
654.25
30
0
40
11
1
ThroughBeamPhotoelectricSensorE
7
Arial
100
AcDbText
0
LWPOLYLINE
5
48
330
C
100
AcDbEntity
420
13421772
8
0
100
AcDbPolyline
90
5
70
0
43
0
38
0
39
0
10
896
20
749
10
1096
20
749
10
1096
20
669
10
896
20
669
10
896
20
749
0
IMAGE
5
4A
330
C
100
AcDbEntity
8
0
100
AcDbRasterImage
90
0
10
896
20
749
30
0
11
1
21
0
31
0
12
0
22
1
32
0
13
200
23
80
340
49
70
3
280
1
281
50
282
50
283
0
360
4B
71
1
91
2
14
-0.5
24
-0.5
14
199.5
24
79.5
290
1
0
TEXT
5
4D
330
C
100
AcDbEntity
420
8947848
8
0
100
AcDbText
10
908
20
654.25
30
0
40
11
1
ThroughBeamPhotoelectricSensorS
7
Arial
100
AcDbText
0
LWPOLYLINE
5
4E
330
C
100
AcDbEntity
420
13421772
8
0
100
AcDbPolyline
90
5
70
0
43
0
38
0
39
0
10
0
20
627
10
200
20
627
10
200
20
547
10
0
20
547
10
0
20
627
0
IMAGE
5
50
330
C
100
AcDbEntity
8
0
100
AcDbRasterImage
90
0
10
0
20
627
30
0
11
1
21
0
31
0
12
0
22
1
32
0
13
200
23
80
340
4F
70
3
280
1
281
50
282
50
283
0
360
51
71
1
91
2
14
-0.5
24
-0.5
14
199.5
24
79.5
290
1
0
TEXT
5
53
330
C
100
AcDbEntity
420
8947848
8
0
100
AcDbText
10
9
20
532.25
30
0
40
11
1
ThroughBeamPhotoelectricSensorSE
7
Arial
100
AcDbText
0
LWPOLYLINE
5
54
330
C
100
AcDbEntity
420
13421772
8
0
100
AcDbPolyline
90
5
70
0
43
0
38
0
39
0
10
224
20
627
10
424
20
627
10
424
20
547
10
224
20
547
10
224
20
627
0
LWPOLYLINE
5
55
330
C
100
AcDbEntity
420
0
8
0
100
AcDbPolyline
90
65
70
0
43
0
38
0
39
0
10
425
20
448
10
426.5845947265625
20
447.5499572753906
10
428.17279052734375
20
447.11285400390625
10
429.7645263671875
20
446.6887969970703
10
431.35972595214844
20
446.2779083251953
10
432.9582824707031
20
445.88031005859375
10
434.5601043701172
20
445.49610900878906
10
436.16510009765625
20
445.1254119873047
10
437.773193359375
20
444.76832580566406
10
439.38426208496094
20
444.4249725341797
10
440.9982147216797
20
444.0954284667969
10
442.6149444580078
20
443.77980041503906
10
444.23435974121094
20
443.4781799316406
10
445.8563232421875
20
443.19065856933594
10
447.4807434082031
20
442.91734313964844
10
449.1074981689453
20
442.6582946777344
10
450.7364807128906
20
442.4136047363281
10
452.3675537109375
20
442.18333435058594
10
454.00062561035156
20
441.9675750732422
10
455.6355438232422
20
441.7663879394531
10
457.27220153808594
20
441.57984924316406
10
458.91046142578125
20
441.4079895019531
10
460.5502166748047
20
441.2508850097656
10
462.19129943847656
20
441.10858154296875
10
463.8336181640625
20
440.9811248779297
10
465.4770202636719
20
440.8685607910156
10
467.1213836669922
20
440.7709197998047
10
468.7665557861328
20
440.688232421875
10
470.4124298095703
20
440.62054443359375
10
472.058837890625
20
440.56785583496094
10
473.7056579589844
20
440.5301971435547
10
475.35276794433594
20
440.507568359375
10
477
20
440.5
10
478.6472473144531
20
440.507568359375
10
480.2943420410156
20
440.5301971435547
10
481.941162109375
20
440.56785583496094
10
483.58758544921875
20
440.62054443359375
10
485.2334289550781
20
440.688232421875
10
486.8786315917969
20
440.7709197998047
10
488.5229797363281
20
440.8685607910156
10
490.1663818359375
20
440.9811248779297
10
491.8087158203125
20
441.10858154296875
10
493.4497985839844
20
441.2508850097656
10
495.08953857421875
20
441.4079895019531
10
496.7278137207031
20
441.57984924316406
10
498.3644714355469
20
441.7663879394531
10
499.9993896484375
20
441.9675750732422
10
501.6324462890625
20
442.18333435058594
10
503.2635192871094
20
442.4136047363281
10
504.89251708984375
20
442.6582946777344
10
506.5192565917969
20
442.91734313964844
10
508.1436767578125
20
443.190673828125
10
509.7656555175781
20
443.4781799316406
10
511.38507080078125
20
443.77980041503906
10
513.0018005371094
20
444.0954284667969
10
514.6157531738281
20
444.4249725341797
10
516.226806640625
20
444.76832580566406
10
517.8348999023438
20
445.1254119873047
10
519.4399108886719
20
445.49610900878906
10
521.041748046875
20
445.88031005859375
10
522.6402893066406
20
446.2779083251953
10
524.2354736328125
20
446.6887969970703
10
525.8272094726562
20
447.11285400390625
10
527.4154052734375
20
447.5499572753906
10
529
20
448
0
LWPOLYLINE
5
56
330
C
100
AcDbEntity
420
0
8
0
100
AcDbPolyline
90
65
70
0
43
0
38
0
39
0
10
425
20
448
10
426.5845947265625
20
447.5499572753906
10
428.17279052734375
20
447.11285400390625
10
429.7645263671875
20
446.6887969970703
10
431.35972595214844
20
446.2779083251953
10
432.9582824707031
20
445.88031005859375
10
434.5601043701172
20
445.49610900878906
10
436.16510009765625
20
445.1254119873047
10
437.773193359375
20
444.76832580566406
10
439.38426208496094
20
444.4249725341797
10
440.9982147216797
20
444.0954284667969
10
442.6149444580078
20
443.77980041503906
10
444.23435974121094
20
443.4781799316406
10
445.8563232421875
20
443.19065856933594
10
447.4807434082031
20
442.91734313964844
10
449.1074981689453
20
442.6582946777344
10
450.7364807128906
20
442.4136047363281
10
452.3675537109375
20
442.18333435058594
10
454.00062561035156
20
441.9675750732422
10
455.6355438232422
20
441.7663879394531
10
457.27220153808594
20
441.57984924316406
10
458.91046142578125
20
441.4079895019531
10
460.5502166748047
20
441.2508850097656
10
462.19129943847656
20
441.10858154296875
10
463.8336181640625
20
440.9811248779297
10
465.4770202636719
20
440.8685607910156
10
467.1213836669922
20
440.7709197998047
10
468.7665557861328
20
440.688232421875
10
470.4124298095703
20
440.62054443359375
10
472.058837890625
20
440.56785583496094
10
473.7056579589844
20
440.5301971435547
10
475.35276794433594
20
440.507568359375
10
477
20
440.5
10
478.6472473144531
20
440.507568359375
10
480.2943420410156
20
440.5301971435547
10
481.941162109375
20
440.56785583496094
10
483.58758544921875
20
440.62054443359375
10
485.2334289550781
20
440.688232421875
10
486.8786315917969
20
440.7709197998047
10
488.5229797363281
20
440.8685607910156
10
490.1663818359375
20
440.9811248779297
10
491.8087158203125
20
441.10858154296875
10
493.4497985839844
20
441.2508850097656
10
495.08953857421875
20
441.4079895019531
10
496.7278137207031
20
441.57984924316406
10
498.3644714355469
20
441.7663879394531
10
499.9993896484375
20
441.9675750732422
10
501.6324462890625
20
442.18333435058594
10
503.2635192871094
20
442.4136047363281
10
504.89251708984375
20
442.6582946777344
10
506.5192565917969
20
442.91734313964844
10
508.1436767578125
20
443.190673828125
10
509.7656555175781
20
443.4781799316406
10
511.38507080078125
20
443.77980041503906
10
513.0018005371094
20
444.0954284667969
10
514.6157531738281
20
444.4249725341797
10
516.226806640625
20
444.76832580566406
10
517.8348999023438
20
445.1254119873047
10
519.4399108886719
20
445.49610900878906
10
521.041748046875
20
445.88031005859375
10
522.6402893066406
20
446.2779083251953
10
524.2354736328125
20
446.6887969970703
10
525.8272094726562
20
447.11285400390625
10
527.4154052734375
20
447.5499572753906
10
529
20
448
0
HATCH
5
57
330
C
100
AcDbEntity
420
0
8
0
100
AcDbHatch
10
0
20
0
30
0
210
0
220
0
230
1
2
SOLID
70
1
71
0
91
1
92
7
72
0
73
1
93
33
10
515.817296921929
20
450.49325882238827
10
516.6412158643084
20
450.33743014598895
10
517.4651360638884
20
450.18160123181406
10
518.2890537490673
20
450.0257727931905
10
519.1129726914467
20
449.8699441167912
10
519.9368922624265
20
449.7141153215041
10
520.7608105762056
20
449.55828676399267
10
521.584729518585
20
449.40245808759335
10
522.4086484609645
20
449.24662941119414
10
523.2325680319442
20
449.090800615907
10
524.0564863457233
20
448.9349720583956
10
524.8804052490204
20
448.7791435196052
10
525.7043242304821
20
448.62331470559707
10
526.5282432119441
20
448.4674858915889
10
527.3521620566174
20
448.3116575592119
10
528.1760810283088
20
448.1558287796058
10
529
20
448
10
528.3809860061126
20
447.4343609510653
10
527.7619716995655
20
446.8687230030014
10
527.1429584938892
20
446.30308536759696
10
526.5239435587418
20
445.73744753842084
10
525.9049287799244
20
445.1718091588093
10
525.2859154179181
20
444.6061720738403
10
524.6668996163949
20
444.0405331063515
10
524.0478862543886
20
443.4748960213825
10
523.4288724201119
20
442.9092585048661
10
522.8098568156414
20
442.3436198907598
10
522.1908432565824
20
441.7779824524082
10
521.5718294223059
20
441.2123449358917
10
520.952814033609
20
440.6467060856503
10
520.3338002587764
20
440.081068883434
10
519.7147848700795
20
439.5154300331925
10
519.0957710952468
20
438.9497928309761
97
0
75
1
76
1
47
1
98
0
0
LWPOLYLINE
5
58
330
C
100
AcDbEntity
420
0
8
0
100
AcDbPolyline
90
34
70
0
43
0
38
0
39
0
10
515.817296921929
20
450.49325882238827
10
516.6412158643084
20
450.33743014598895
10
517.4651360638884
20
450.18160123181406
10
518.2890537490673
20
450.0257727931905
10
519.1129726914467
20
449.8699441167912
10
519.9368922624265
20
449.7141153215041
10
520.7608105762056
20
449.55828676399267
10
521.584729518585
20
449.40245808759335
10
522.4086484609645
20
449.24662941119414
10
523.2325680319442
20
449.090800615907
10
524.0564863457233
20
448.9349720583956
10
524.8804052490204
20
448.7791435196052
10
525.7043242304821
20
448.62331470559707
10
526.5282432119441
20
448.4674858915889
10
527.3521620566174
20
448.3116575592119
10
528.1760810283088
20
448.1558287796058
10
529
20
448
10
528.3809860061126
20
447.4343609510653
10
527.7619716995655
20
446.8687230030014
10
527.1429584938892
20
446.30308536759696
10
526.5239435587418
20
445.73744753842084
10
525.9049287799244
20
445.1718091588093
10
525.2859154179181
20
444.6061720738403
10
524.6668996163949
20
444.0405331063515
10
524.0478862543886
20
443.4748960213825
10
523.4288724201119
20
442.9092585048661
10
522.8098568156414
20
442.3436198907598
10
522.1908432565824
20
441.7779824524082
10
521.5718294223059
20
441.2123449358917
10
520.952814033609
20
440.6467060856503
10
520.3338002587764
20
440.081068883434
10
519.7147848700795
20
439.5154300331925
10
519.0957710952468
20
438.9497928309761
10
515.817296921929
20
450.49325882238827
0
TEXT
5
59
330
C
100
AcDbEntity
420
8947848
8
0
100
AcDbText
10
278
20
532.25
30
0
40
11
1
Move (has marker)
7
Arial
100
AcDbText
0
TEXT
5
5A
330
C
100
AcDbEntity
420
5592405
8
0
100
AcDbText
10
0
20
485.5
30
0
40
14
1
SVG files as CSS background-image (small)
7
Arial
100
AcDbText
0
LWPOLYLINE
5
5B
330
C
100
AcDbEntity
420
13421772
8
0
100
AcDbPolyline
90
5
70
0
43
0
38
0
39
0
10
0
20
469
10
120
20
469
10
120
20
389
10
0
20
389
10
0
20
469
0
IMAGE
5
5D
330
C
100
AcDbEntity
8
0
100
AcDbRasterImage
90
0
10
0
20
469
30
0
11
1
21
0
31
0
12
0
22
1
32
0
13
120
23
80
340
5C
70
3
280
1
281
50
282
50
283
0
360
5E
71
1
91
2
14
-0.5
24
-0.5
14
119.5
24
79.5
290
1
0
TEXT
5
60
330
C
100
AcDbEntity
420
8947848
8
0
100
AcDbText
10
12
20
374.25
30
0
40
11
1
MultipleSignalLamp
7
Arial
100
AcDbText
0
LWPOLYLINE
5
61
330
C
100
AcDbEntity
420
13421772
8
0
100
AcDbPolyline
90
5
70
0
43
0
38
0
39
0
10
144
20
469
10
264
20
469
10
264
20
389
10
144
20
389
10
144
20
469
0
IMAGE
5
63
330
C
100
AcDbEntity
8
0
100
AcDbRasterImage
90
0
10
144
20
469
30
0
11
1
21
0
31
0
12
0
22
1
32
0
13
120
23
80
340
62
70
3
280
1
281
50
282
50
283
0
360
64
71
1
91
2
14
-0.5
24
-0.5
14
119.5
24
79.5
290
1
0
TEXT
5
66
330
C
100
AcDbEntity
420
8947848
8
0
100
AcDbText
10
153
20
374.25
30
0
40
11
1
OpticalDataCouplers
7
Arial
100
AcDbText
0
LWPOLYLINE
5
67
330
C
100
AcDbEntity
420
13421772
8
0
100
AcDbPolyline
90
5
70
0
43
0
38
0
39
0
10
288
20
469
10
408
20
469
10
408
20
389
10
288
20
389
10
288
20
469
0
IMAGE
5
69
330
C
100
AcDbEntity
8
0
100
AcDbRasterImage
90
0
10
288
20
469
30
0
11
1
21
0
31
0
12
0
22
1
32
0
13
120
23
80
340
68
70
3
280
1
281
50
282
50
283
0
360
6A
71
1
91
2
14
-0.5
24
-0.5
14
119.5
24
79.5
290
1
0
TEXT
5
6C
330
C
100
AcDbEntity
420
8947848
8
0
100
AcDbText
10
303
20
374.25
30
0
40
11
1
OpticalSsiEncoder
7
Arial
100
AcDbText
0
TEXT
5
6D
330
C
100
AcDbEntity
420
5592405
8
0
100
AcDbText
10
0
20
327.5
30
0
40
14
1
SVG files as CSS background-image (wide + Move)
7
Arial
100
AcDbText
0
LWPOLYLINE
5
6E
330
C
100
AcDbEntity
420
13421772
8
0
100
AcDbPolyline
90
5
70
0
43
0
38
0
39
0
10
0
20
311
10
200
20
311
10
200
20
231
10
0
20
231
10
0
20
311
0
IMAGE
5
70
330
C
100
AcDbEntity
8
0
100
AcDbRasterImage
90
0
10
0
20
311
30
0
11
1
21
0
31
0
12
0
22
1
32
0
13
200
23
80
340
6F
70
3
280
1
281
50
282
50
283
0
360
71
71
1
91
2
14
-0.5
24
-0.5
14
199.5
24
79.5
290
1
0
TEXT
5
73
330
C
100
AcDbEntity
420
8947848
8
0
100
AcDbText
10
28
20
216.25
30
0
40
11
1
PhotoelectricProximitySensor
7
Arial
100
AcDbText
0
LWPOLYLINE
5
74
330
C
100
AcDbEntity
420
13421772
8
0
100
AcDbPolyline
90
5
70
0
43
0
38
0
39
0
10
224
20
311
10
424
20
311
10
424
20
231
10
224
20
231
10
224
20
311
0
IMAGE
5
76
330
C
100
AcDbEntity
8
0
100
AcDbRasterImage
90
0
10
224
20
311
30
0
11
1
21
0
31
0
12
0
22
1
32
0
13
200
23
80
340
75
70
3
280
1
281
50
282
50
283
0
360
77
71
1
91
2
14
-0.5
24
-0.5
14
199.5
24
79.5
290
1
0
TEXT
5
79
330
C
100
AcDbEntity
420
8947848
8
0
100
AcDbText
10
233
20
216.25
30
0
40
11
1
PhotoelectricProximitySensorUpward
7
Arial
100
AcDbText
0
LWPOLYLINE
5
7A
330
C
100
AcDbEntity
420
13421772
8
0
100
AcDbPolyline
90
5
70
0
43
0
38
0
39
0
10
448
20
311
10
648
20
311
10
648
20
231
10
448
20
231
10
448
20
311
0
IMAGE
5
7C
330
C
100
AcDbEntity
8
0
100
AcDbRasterImage
90
0
10
448
20
311
30
0
11
1
21
0
31
0
12
0
22
1
32
0
13
200
23
80
340
7B
70
3
280
1
281
50
282
50
283
0
360
7D
71
1
91
2
14
-0.5
24
-0.5
14
199.5
24
79.5
290
1
0
TEXT
5
7F
330
C
100
AcDbEntity
420
8947848
8
0
100
AcDbText
10
461
20
216.25
30
0
40
11
1
PhotoelectricRetroReflectiveSensor
7
Arial
100
AcDbText
0
LWPOLYLINE
5
80
330
C
100
AcDbEntity
420
13421772
8
0
100
AcDbPolyline
90
5
70
0
43
0
38
0
39
0
10
672
20
311
10
872
20
311
10
872
20
231
10
672
20
231
10
672
20
311
0
IMAGE
5
82
330
C
100
AcDbEntity
8
0
100
AcDbRasterImage
90
0
10
672
20
311
30
0
11
1
21
0
31
0
12
0
22
1
32
0
13
200
23
80
340
81
70
3
280
1
281
50
282
50
283
0
360
83
71
1
91
2
14
-0.5
24
-0.5
14
199.5
24
79.5
290
1
0
TEXT
5
85
330
C
100
AcDbEntity
420
8947848
8
0
100
AcDbText
10
684
20
216.25
30
0
40
11
1
ThroughBeamPhotoelectricSensorE
7
Arial
100
AcDbText
0
LWPOLYLINE
5
86
330
C
100
AcDbEntity
420
13421772
8
0
100
AcDbPolyline
90
5
70
0
43
0
38
0
39
0
10
896
20
311
10
1096
20
311
10
1096
20
231
10
896
20
231
10
896
20
311
0
IMAGE
5
88
330
C
100
AcDbEntity
8
0
100
AcDbRasterImage
90
0
10
896
20
311
30
0
11
1
21
0
31
0
12
0
22
1
32
0
13
200
23
80
340
87
70
3
280
1
281
50
282
50
283
0
360
89
71
1
91
2
14
-0.5
24
-0.5
14
199.5
24
79.5
290
1
0
TEXT
5
8B
330
C
100
AcDbEntity
420
8947848
8
0
100
AcDbText
10
908
20
216.25
30
0
40
11
1
ThroughBeamPhotoelectricSensorS
7
Arial
100
AcDbText
0
LWPOLYLINE
5
8C
330
C
100
AcDbEntity
420
13421772
8
0
100
AcDbPolyline
90
5
70
0
43
0
38
0
39
0
10
0
20
189
10
200
20
189
10
200
20
109
10
0
20
109
10
0
20
189
0
IMAGE
5
8E
330
C
100
AcDbEntity
8
0
100
AcDbRasterImage
90
0
10
0
20
189
30
0
11
1
21
0
31
0
12
0
22
1
32
0
13
200
23
80
340
8D
70
3
280
1
281
50
282
50
283
0
360
8F
71
1
91
2
14
-0.5
24
-0.5
14
199.5
24
79.5
290
1
0
TEXT
5
91
330
C
100
AcDbEntity
420
8947848
8
0
100
AcDbText
10
9
20
94.25
30
0
40
11
1
ThroughBeamPhotoelectricSensorSE
7
Arial
100
AcDbText
0
LWPOLYLINE
5
92
330
C
100
AcDbEntity
420
13421772
8
0
100
AcDbPolyline
90
5
70
0
43
0
38
0
39
0
10
224
20
189
10
424
20
189
10
424
20
109
10
224
20
109
10
224
20
189
0
LWPOLYLINE
5
93
330
C
100
AcDbEntity
420
0
8
0
100
AcDbPolyline
90
65
70
0
43
0
38
0
39
0
10
425
20
10
10
426.5845947265625
20
9.549957275390625
10
428.17279052734375
20
9.11285400390625
10
429.7645263671875
20
8.688796997070312
10
431.35972595214844
20
8.277908325195312
10
432.9582824707031
20
7.88031005859375
10
434.5601043701172
20
7.4961090087890625
10
436.16510009765625
20
7.1254119873046875
10
437.773193359375
20
6.7683258056640625
10
439.38426208496094
20
6.4249725341796875
10
440.9982147216797
20
6.095428466796875
10
442.6149444580078
20
5.7798004150390625
10
444.23435974121094
20
5.478179931640625
10
445.8563232421875
20
5.1906585693359375
10
447.4807434082031
20
4.9173431396484375
10
449.1074981689453
20
4.658294677734375
10
450.7364807128906
20
4.413604736328125
10
452.3675537109375
20
4.1833343505859375
10
454.00062561035156
20
3.9675750732421875
10
455.6355438232422
20
3.766387939453125
10
457.27220153808594
20
3.5798492431640625
10
458.91046142578125
20
3.407989501953125
10
460.5502166748047
20
3.250885009765625
10
462.19129943847656
20
3.10858154296875
10
463.8336181640625
20
2.9811248779296875
10
465.4770202636719
20
2.868560791015625
10
467.1213836669922
20
2.7709197998046875
10
468.7665557861328
20
2.688232421875
10
470.4124298095703
20
2.62054443359375
10
472.058837890625
20
2.5678558349609375
10
473.7056579589844
20
2.5301971435546875
10
475.35276794433594
20
2.507568359375
10
477
20
2.5
10
478.6472473144531
20
2.507568359375
10
480.2943420410156
20
2.5301971435546875
10
481.941162109375
20
2.5678558349609375
10
483.58758544921875
20
2.62054443359375
10
485.2334289550781
20
2.688232421875
10
486.8786315917969
20
2.7709197998046875
10
488.5229797363281
20
2.868560791015625
10
490.1663818359375
20
2.9811248779296875
10
491.8087158203125
20
3.10858154296875
10
493.4497985839844
20
3.250885009765625
10
495.08953857421875
20
3.407989501953125
10
496.7278137207031
20
3.5798492431640625
10
498.3644714355469
20
3.766387939453125
10
499.9993896484375
20
3.9675750732421875
10
501.6324462890625
20
4.1833343505859375
10
503.2635192871094
20
4.413604736328125
10
504.89251708984375
20
4.658294677734375
10
506.5192565917969
20
4.9173431396484375
10
508.1436767578125
20
5.190673828125
10
509.7656555175781
20
5.478179931640625
10
511.38507080078125
20
5.7798004150390625
10
513.0018005371094
20
6.095428466796875
10
514.6157531738281
20
6.4249725341796875
10
516.226806640625
20
6.7683258056640625
10
517.8348999023438
20
7.1254119873046875
10
519.4399108886719
20
7.4961090087890625
10
521.041748046875
20
7.88031005859375
10
522.6402893066406
20
8.277908325195312
10
524.2354736328125
20
8.688796997070312
10
525.8272094726562
20
9.11285400390625
10
527.4154052734375
20
9.549957275390625
10
529
20
10
0
LWPOLYLINE
5
94
330
C
100
AcDbEntity
420
0
8
0
100
AcDbPolyline
90
65
70
0
43
0
38
0
39
0
10
425
20
10
10
426.5845947265625
20
9.549957275390625
10
428.17279052734375
20
9.11285400390625
10
429.7645263671875
20
8.688796997070312
10
431.35972595214844
20
8.277908325195312
10
432.9582824707031
20
7.88031005859375
10
434.5601043701172
20
7.4961090087890625
10
436.16510009765625
20
7.1254119873046875
10
437.773193359375
20
6.7683258056640625
10
439.38426208496094
20
6.4249725341796875
10
440.9982147216797
20
6.095428466796875
10
442.6149444580078
20
5.7798004150390625
10
444.23435974121094
20
5.478179931640625
10
445.8563232421875
20
5.1906585693359375
10
447.4807434082031
20
4.9173431396484375
10
449.1074981689453
20
4.658294677734375
10
450.7364807128906
20
4.413604736328125
10
452.3675537109375
20
4.1833343505859375
10
454.00062561035156
20
3.9675750732421875
10
455.6355438232422
20
3.766387939453125
10
457.27220153808594
20
3.5798492431640625
10
458.91046142578125
20
3.407989501953125
10
460.5502166748047
20
3.250885009765625
10
462.19129943847656
20
3.10858154296875
10
463.8336181640625
20
2.9811248779296875
10
465.4770202636719
20
2.868560791015625
10
467.1213836669922
20
2.7709197998046875
10
468.7665557861328
20
2.688232421875
10
470.4124298095703
20
2.62054443359375
10
472.058837890625
20
2.5678558349609375
10
473.7056579589844
20
2.5301971435546875
10
475.35276794433594
20
2.507568359375
10
477
20
2.5
10
478.6472473144531
20
2.507568359375
10
480.2943420410156
20
2.5301971435546875
10
481.941162109375
20
2.5678558349609375
10
483.58758544921875
20
2.62054443359375
10
485.2334289550781
20
2.688232421875
10
486.8786315917969
20
2.7709197998046875
10
488.5229797363281
20
2.868560791015625
10
490.1663818359375
20
2.9811248779296875
10
491.8087158203125
20
3.10858154296875
10
493.4497985839844
20
3.250885009765625
10
495.08953857421875
20
3.407989501953125
10
496.7278137207031
20
3.5798492431640625
10
498.3644714355469
20
3.766387939453125
10
499.9993896484375
20
3.9675750732421875
10
501.6324462890625
20
4.1833343505859375
10
503.2635192871094
20
4.413604736328125
10
504.89251708984375
20
4.658294677734375
10
506.5192565917969
20
4.9173431396484375
10
508.1436767578125
20
5.190673828125
10
509.7656555175781
20
5.478179931640625
10
511.38507080078125
20
5.7798004150390625
10
513.0018005371094
20
6.095428466796875
10
514.6157531738281
20
6.4249725341796875
10
516.226806640625
20
6.7683258056640625
10
517.8348999023438
20
7.1254119873046875
10
519.4399108886719
20
7.4961090087890625
10
521.041748046875
20
7.88031005859375
10
522.6402893066406
20
8.277908325195312
10
524.2354736328125
20
8.688796997070312
10
525.8272094726562
20
9.11285400390625
10
527.4154052734375
20
9.549957275390625
10
529
20
10
0
HATCH
5
95
330
C
100
AcDbEntity
420
0
8
0
100
AcDbHatch
10
0
20
0
30
0
210
0
220
0
230
1
2
SOLID
70
1
71
0
91
1
92
7
72
0
73
1
93
33
10
515.817296921929
20
12.49325882238827
10
516.6412158643084
20
12.337430145988947
10
517.4651360638884
20
12.181601231814057
10
518.2890537490673
20
12.025772793190526
10
519.1129726914467
20
11.869944116791203
10
519.9368922624265
20
11.714115321504096
10
520.7608105762056
20
11.558286763992669
10
521.584729518585
20
11.402458087593345
10
522.4086484609645
20
11.246629411194135
10
523.2325680319442
20
11.090800615907028
10
524.0564863457233
20
10.934972058395601
10
524.8804052490204
20
10.779143519605213
10
525.7043242304821
20
10.623314705597068
10
526.5282432119441
20
10.467485891588922
10
527.3521620566174
20
10.31165755921188
10
528.1760810283088
20
10.155828779605827
10
529
20
10
10
528.3809860061126
20
9.434360951065287
10
527.7619716995655
20
8.868723003001378
10
527.1429584938892
20
8.303085367596964
10
526.5239435587418
20
7.737447538420838
10
525.9049287799244
20
7.17180915880931
10
525.2859154179181
20
6.606172073840298
10
524.6668996163949
20
6.040533106351518
10
524.0478862543886
20
5.474896021382506
10
523.4288724201119
20
4.909258504866102
10
522.8098568156414
20
4.343619890759783
10
522.1908432565824
20
3.777982452408196
10
521.5718294223059
20
3.2123449358916787
10
520.952814033609
20
2.646706085650294
10
520.3338002587764
20
2.081068883434
10
519.7147848700795
20
1.5154300331925015
10
519.0957710952468
20
0.9497928309760937
97
0
75
1
76
1
47
1
98
0
0
LWPOLYLINE
5
96
330
C
100
AcDbEntity
420
0
8
0
100
AcDbPolyline
90
34
70
0
43
0
38
0
39
0
10
515.817296921929
20
12.49325882238827
10
516.6412158643084
20
12.337430145988947
10
517.4651360638884
20
12.181601231814057
10
518.2890537490673
20
12.025772793190526
10
519.1129726914467
20
11.869944116791203
10
519.9368922624265
20
11.714115321504096
10
520.7608105762056
20
11.558286763992669
10
521.584729518585
20
11.402458087593345
10
522.4086484609645
20
11.246629411194135
10
523.2325680319442
20
11.090800615907028
10
524.0564863457233
20
10.934972058395601
10
524.8804052490204
20
10.779143519605213
10
525.7043242304821
20
10.623314705597068
10
526.5282432119441
20
10.467485891588922
10
527.3521620566174
20
10.31165755921188
10
528.1760810283088
20
10.155828779605827
10
529
20
10
10
528.3809860061126
20
9.434360951065287
10
527.7619716995655
20
8.868723003001378
10
527.1429584938892
20
8.303085367596964
10
526.5239435587418
20
7.737447538420838
10
525.9049287799244
20
7.17180915880931
10
525.2859154179181
20
6.606172073840298
10
524.6668996163949
20
6.040533106351518
10
524.0478862543886
20
5.474896021382506
10
523.4288724201119
20
4.909258504866102
10
522.8098568156414
20
4.343619890759783
10
522.1908432565824
20
3.777982452408196
10
521.5718294223059
20
3.2123449358916787
10
520.952814033609
20
2.646706085650294
10
520.3338002587764
20
2.081068883434
10
519.7147848700795
20
1.5154300331925015
10
519.0957710952468
20
0.9497928309760937
10
515.817296921929
20
12.49325882238827
0
TEXT
5
97
330
C
100
AcDbEntity
420
8947848
8
0
100
AcDbText
10
278
20
94.25
30
0
40
11
1
Move (has marker)
7
Arial
100
AcDbText
0
ENDSEC
0
SECTION
2
OBJECTS
0
DICTIONARY
5
A
330
0
100
AcDbDictionary
281
1
3
ACAD_GROUP
350
B
3
ACAD_IMAGE_DICT
350
21
3
ACAD_IMAGE_DICT
350
27
3
ACAD_IMAGE_DICT
350
2D
3
ACAD_IMAGE_DICT
350
34
3
ACAD_IMAGE_DICT
350
3A
3
ACAD_IMAGE_DICT
350
40
3
ACAD_IMAGE_DICT
350
46
3
ACAD_IMAGE_DICT
350
4C
3
ACAD_IMAGE_DICT
350
52
3
ACAD_IMAGE_DICT
350
5F
3
ACAD_IMAGE_DICT
350
65
3
ACAD_IMAGE_DICT
350
6B
3
ACAD_IMAGE_DICT
350
72
3
ACAD_IMAGE_DICT
350
78
3
ACAD_IMAGE_DICT
350
7E
3
ACAD_IMAGE_DICT
350
84
3
ACAD_IMAGE_DICT
350
8A
3
ACAD_IMAGE_DICT
350
90
0
DICTIONARY
5
B
330
A
100
AcDbDictionary
281
0
0
IMAGEDEF
5
1E
330
21
102
{ACAD_REACTORS
330
21
330
20
102
}
100
AcDbRasterImageDef
1
images/image1.jpg
10
120
20
80
11
1
21
1
280
1
281
0
0
IMAGEDEF_REACTOR
5
20
330
0
100
AcDbRasterImageDefReactor
90
2
330
1F
0
DICTIONARY
5
21
330
A
100
AcDbDictionary
281
0
3
image1
350
1E
0
IMAGEDEF
5
24
330
27
102
{ACAD_REACTORS
330
27
330
26
102
}
100
AcDbRasterImageDef
1
images/image2.jpg
10
120
20
80
11
1
21
1
280
1
281
0
0
IMAGEDEF_REACTOR
5
26
330
0
100
AcDbRasterImageDefReactor
90
2
330
25
0
DICTIONARY
5
27
330
A
100
AcDbDictionary
281
0
3
image2
350
24
0
IMAGEDEF
5
2A
330
2D
102
{ACAD_REACTORS
330
2D
330
2C
102
}
100
AcDbRasterImageDef
1
images/image3.jpg
10
120
20
80
11
1
21
1
280
1
281
0
0
IMAGEDEF_REACTOR
5
2C
330
0
100
AcDbRasterImageDefReactor
90
2
330
2B
0
DICTIONARY
5
2D
330
A
100
AcDbDictionary
281
0
3
image3
350
2A
0
IMAGEDEF
5
31
330
34
102
{ACAD_REACTORS
330
34
330
33
102
}
100
AcDbRasterImageDef
1
images/image4.jpg
10
200
20
80
11
1
21
1
280
1
281
0
0
IMAGEDEF_REACTOR
5
33
330
0
100
AcDbRasterImageDefReactor
90
2
330
32
0
DICTIONARY
5
34
330
A
100
AcDbDictionary
281
0
3
image4
350
31
0
IMAGEDEF
5
37
330
3A
102
{ACAD_REACTORS
330
3A
330
39
102
}
100
AcDbRasterImageDef
1
images/image5.jpg
10
200
20
80
11
1
21
1
280
1
281
0
0
IMAGEDEF_REACTOR
5
39
330
0
100
AcDbRasterImageDefReactor
90
2
330
38
0
DICTIONARY
5
3A
330
A
100
AcDbDictionary
281
0
3
image5
350
37
0
IMAGEDEF
5
3D
330
40
102
{ACAD_REACTORS
330
40
330
3F
102
}
100
AcDbRasterImageDef
1
images/image6.jpg
10
200
20
80
11
1
21
1
280
1
281
0
0
IMAGEDEF_REACTOR
5
3F
330
0
100
AcDbRasterImageDefReactor
90
2
330
3E
0
DICTIONARY
5
40
330
A
100
AcDbDictionary
281
0
3
image6
350
3D
0
IMAGEDEF
5
43
330
46
102
{ACAD_REACTORS
330
46
330
45
102
}
100
AcDbRasterImageDef
1
images/image7.jpg
10
200
20
80
11
1
21
1
280
1
281
0
0
IMAGEDEF_REACTOR
5
45
330
0
100
AcDbRasterImageDefReactor
90
2
330
44
0
DICTIONARY
5
46
330
A
100
AcDbDictionary
281
0
3
image7
350
43
0
IMAGEDEF
5
49
330
4C
102
{ACAD_REACTORS
330
4C
330
4B
102
}
100
AcDbRasterImageDef
1
images/image8.jpg
10
200
20
80
11
1
21
1
280
1
281
0
0
IMAGEDEF_REACTOR
5
4B
330
0
100
AcDbRasterImageDefReactor
90
2
330
4A
0
DICTIONARY
5
4C
330
A
100
AcDbDictionary
281
0
3
image8
350
49
0
IMAGEDEF
5
4F
330
52
102
{ACAD_REACTORS
330
52
330
51
102
}
100
AcDbRasterImageDef
1
images/image9.jpg
10
200
20
80
11
1
21
1
280
1
281
0
0
IMAGEDEF_REACTOR
5
51
330
0
100
AcDbRasterImageDefReactor
90
2
330
50
0
DICTIONARY
5
52
330
A
100
AcDbDictionary
281
0
3
image9
350
4F
0
IMAGEDEF
5
5C
330
5F
102
{ACAD_REACTORS
330
5F
330
5E
102
}
100
AcDbRasterImageDef
1
images/image10.png
10
120
20
80
11
1
21
1
280
1
281
0
0
IMAGEDEF_REACTOR
5
5E
330
0
100
AcDbRasterImageDefReactor
90
2
330
5D
0
DICTIONARY
5
5F
330
A
100
AcDbDictionary
281
0
3
image10
350
5C
0
IMAGEDEF
5
62
330
65
102
{ACAD_REACTORS
330
65
330
64
102
}
100
AcDbRasterImageDef
1
images/image11.png
10
120
20
80
11
1
21
1
280
1
281
0
0
IMAGEDEF_REACTOR
5
64
330
0
100
AcDbRasterImageDefReactor
90
2
330
63
0
DICTIONARY
5
65
330
A
100
AcDbDictionary
281
0
3
image11
350
62
0
IMAGEDEF
5
68
330
6B
102
{ACAD_REACTORS
330
6B
330
6A
102
}
100
AcDbRasterImageDef
1
images/image12.png
10
120
20
80
11
1
21
1
280
1
281
0
0
IMAGEDEF_REACTOR
5
6A
330
0
100
AcDbRasterImageDefReactor
90
2
330
69
0
DICTIONARY
5
6B
330
A
100
AcDbDictionary
281
0
3
image12
350
68
0
IMAGEDEF
5
6F
330
72
102
{ACAD_REACTORS
330
72
330
71
102
}
100
AcDbRasterImageDef
1
images/image13.png
10
200
20
80
11
1
21
1
280
1
281
0
0
IMAGEDEF_REACTOR
5
71
330
0
100
AcDbRasterImageDefReactor
90
2
330
70
0
DICTIONARY
5
72
330
A
100
AcDbDictionary
281
0
3
image13
350
6F
0
IMAGEDEF
5
75
330
78
102
{ACAD_REACTORS
330
78
330
77
102
}
100
AcDbRasterImageDef
1
images/image14.png
10
200
20
80
11
1
21
1
280
1
281
0
0
IMAGEDEF_REACTOR
5
77
330
0
100
AcDbRasterImageDefReactor
90
2
330
76
0
DICTIONARY
5
78
330
A
100
AcDbDictionary
281
0
3
image14
350
75
0
IMAGEDEF
5
7B
330
7E
102
{ACAD_REACTORS
330
7E
330
7D
102
}
100
AcDbRasterImageDef
1
images/image15.png
10
200
20
80
11
1
21
1
280
1
281
0
0
IMAGEDEF_REACTOR
5
7D
330
0
100
AcDbRasterImageDefReactor
90
2
330
7C
0
DICTIONARY
5
7E
330
A
100
AcDbDictionary
281
0
3
image15
350
7B
0
IMAGEDEF
5
81
330
84
102
{ACAD_REACTORS
330
84
330
83
102
}
100
AcDbRasterImageDef
1
images/image16.png
10
200
20
80
11
1
21
1
280
1
281
0
0
IMAGEDEF_REACTOR
5
83
330
0
100
AcDbRasterImageDefReactor
90
2
330
82
0
DICTIONARY
5
84
330
A
100
AcDbDictionary
281
0
3
image16
350
81
0
IMAGEDEF
5
87
330
8A
102
{ACAD_REACTORS
330
8A
330
89
102
}
100
AcDbRasterImageDef
1
images/image17.png
10
200
20
80
11
1
21
1
280
1
281
0
0
IMAGEDEF_REACTOR
5
89
330
0
100
AcDbRasterImageDefReactor
90
2
330
88
0
DICTIONARY
5
8A
330
A
100
AcDbDictionary
281
0
3
image17
350
87
0
IMAGEDEF
5
8D
330
90
102
{ACAD_REACTORS
330
90
330
8F
102
}
100
AcDbRasterImageDef
1
images/image18.png
10
200
20
80
11
1
21
1
280
1
281
0
0
IMAGEDEF_REACTOR
5
8F
330
0
100
AcDbRasterImageDefReactor
90
2
330
8E
0
DICTIONARY
5
90
330
A
100
AcDbDictionary
281
0
3
image18
350
8D
0
ENDSEC
0
EOF