  0
SECTION
  2
HEADER
  0
ENDSEC
  0
SECTION
  2
CLASSES
  0
CLASS
  1
ACDBDICTIONARYWDFLT
  2
AcDbDictionaryWithDefault
  3
ObjectDBX Classes
 90
32768
280
0
281
0
  0
CLASS
  1
ACDBPLACEHOLDER
  2
AcDbPlaceHolder
  3
ObjectDBX Classes
 90
0
280
0
281
0
  0
CLASS
  1
LAYOUT
  2
AcDbLayout
  3
ObjectDBX Classes
 90
0
280
0
281
0
  0
CLASS
  1
DICTIONARYVAR
  2
AcDbDictionaryVar
  3
ObjectDBX Classes
 90
0
280
0
281
0
  0
CLASS
  1
TABLESTYLE
  2
AcDbTableStyle
  3
ObjectDBX Classes
 90
4095
280
0
281
0
  0
CLASS
  1
MATERIAL
  2
AcDbMaterial
  3
ObjectDBX Classes
 90
1153
280
0
281
0
  0
CLASS
  1
VISUALSTYLE
  2
AcDbVisualStyle
  3
ObjectDBX Classes
 90
4095
280
0
281
0
  0
CLASS
  1
SCALE
  2
AcDbScale
  3
ObjectDBX Classes
 90
1153
280
0
281
0
  0
CLASS
  1
MLEADERSTYLE
  2
AcDbMLeaderStyle
  3
ObjectDBX Classes
 90
4095
280
0
281
0
  0
CLASS
  1
CELLSTYLEMAP
  2
AcDbCellStyleMap
  3
ObjectDBX Classes
 90
1152
280
0
281
0
  0
CLASS
  1
EXACXREFPANELOBJECT
  2
ExAcXREFPanelObject
  3
ObjectDBX Classes
 90
1025
280
0
281
0
  0
CLASS
  1
NPOCOLLECTION
  2
AcDbImpNonPersistentObjectsCollection
  3
ObjectDBX Classes
 90
1153
280
0
281
0
  0
CLASS
  1
LAYER_INDEX
  2
AcDbLayerIndex
  3
ObjectDBX Classes
 90
0
280
0
281
0
  0
CLASS
  1
SPATIAL_INDEX
  2
AcDbSpatialIndex
  3
ObjectDBX Classes
 90
0
280
0
281
0
  0
CLASS
  1
IDBUFFER
  2
AcDbIdBuffer
  3
ObjectDBX Classes
 90
32768
280
0
281
0
  0
CLASS
  1
ACDBSECTIONVIEWSTYLE
  2
AcDbSectionViewStyle
  3
ObjectDBX Classes
 90
1025
280
0
281
0
  0
CLASS
  1
ACDBDETAILVIEWSTYLE
  2
AcDbDetailViewStyle
  3
ObjectDBX Classes
 90
1025
280
0
281
0
  0
CLASS
  1
MESH
  2
AcDbSubDMesh
  3
ObjectDBX Classes
 90
0
280
0
281
1
  0
CLASS
  1
SORTENTSTABLE
  2
AcDbSortentsTable
  3
ObjectDBX Classes
 90
0
280
0
281
0
  0
CLASS
  1
ACDB_TEXTOBJECTCONTEXTDATA_CLASS
  2
AcDbTextObjectContextData
  3
ObjectDBX Classes
 90
1153
280
0
281
0
  0
CLASS
  1
WIPEOUT
  2
AcDbWipeout
  3
WipeOut
 90
32895
280
0
281
1
  0
CLASS
  1
WIPEOUTVARIABLES
  2
AcDbWipeoutVariables
  3
WipeOut
 90
32768
280
0
281
0
  0
CLASS
  1
DIMASSOC
  2
AcDbDimAssoc
  3
AcDbDimAssoc
 90
0
280
0
281
0
  0
CLASS
  1
ACAD_TABLE
  2
AcDbTable
  3
ObjectDBX Classes
 90
1025
280
0
281
1
  0
CLASS
  1
TABLECONTENT
  2
AcDbTableContent
  3
ObjectDBX Classes
 90
1152
280
0
281
0
  0
CLASS
  1
TABLEGEOMETRY
  2
AcDbTableGeometry
  3
ObjectDBX Classes
 90
1152
280
0
281
0
  0
CLASS
  1
IMAGE
  2
AcDbRasterImage
  3
ISM
 90
32895
280
0
281
1
  0
CLASS
  1
IMAGEDEF
  2
AcDbRasterImageDef
  3
ISM
 90
0
280
0
281
0
  0
CLASS
  1
IMAGEDEF_REACTOR
  2
AcDbRasterImageDefReactor
  3
ISM
 90
1
280
0
281
0
  0
CLASS
  1
DBCOLOR
  2
AcDbColor
  3
ObjectDBX Classes
 90
0
280
0
281
0
  0
CLASS
  1
GEODATA
  2
AcDbGeoData
  3
ObjectDBX Classes
 90
4095
280
0
281
0
  0
CLASS
  1
MULTILEADER
  2
AcDbMLeader
  3
ObjectDBX Classes
 90
1025
280
0
281
0
  0
CLASS
  1
PDFUNDERLAY
  2
AcDbPdfReference
  3
ObjectDBX Classes
 90
4095
280
0
281
1
  0
CLASS
  1
PDFDEFINITION
  2
AcDbPdfDefinition
  3
ObjectDBX Classes
 90
1153
280
0
281
0
  0
CLASS
  1
RASTERVARIABLES
  2
AcDbRasterVariables
  3
ISM
 90
0
280
0
281
0
  0
CLASS
  1
SPATIAL_FILTER
  2
AcDbSpatialFilter
  3
ObjectDBX Classes
 90
0
280
0
281
0
  0
CLASS
  1
ACDB_MLEADEROBJECTCONTEXTDATA_CLASS
  2
AcDbMLeaderObjectContextData
  3
ObjectDBX Classes
 90
1025
280
0
281
0
  0
CLASS
  1
PLOTSETTINGS
  2
AcDbPlotSettings
  3
ObjectDBX Classes
 90
0
280
0
281
0
  0
CLASS
  1
FIELD
  2
AcDbField
  3
ObjectDBX Classes
 90
1152
280
0
281
0
  0
CLASS
  1
FIELDLIST
  2
AcDbFieldList
  3
ObjectDBX Classes
 90
1152
280
0
281
0
  0
CLASS
  1
ACDB_MTEXTATTRIBUTEOBJECTCONTEXTDATA_CLASS
  2
AcDbMTextAttributeObjectContextData
  3
ObjectDBX Classes
 90
1153
280
0
281
0
  0
CLASS
  1
ACDB_BLKREFOBJECTCONTEXTDATA_CLASS
  2
AcDbBlkRefObjectContextData
  3
ObjectDBX Classes
 90
1153
280
0
281
0
  0
ENDSEC
  0
SECTION
  2
TABLES
  0
TABLE
  2
VPORT
  5
A
330
0
100
AcDbSymbolTable
 70
1
  0
VPORT
  5
18
330
A
100
AcDbSymbolTableRecord
100
AcDbViewportTableRecord
  2
*Active
 70
0
 10
0.0
 20
0.0
 11
1.0
 21
1.0
 12
0.0
 22
0.0
 13
0.0
 23
0.0
 14
0.5
 24
0.5
 15
10.0
 25
10.0
 16
0.0
 26
0.0
 36
1.0
 17
0.0
 27
0.0
 37
0.0
 40
10.0
 41
1.0
 75
0
 76
1
  0
ENDTAB
  0
TABLE
  2
LTYPE
  5
6
330
0
100
AcDbSymbolTable
 70
3
  0
LTYPE
  5
B
330
6
100
AcDbSymbolTableRecord
100
AcDbLinetypeTableRecord
  2
ByLayer
 70
0
 72
0
 73
0
 40
0.0
  0
LTYPE
  5
C
330
6
100
AcDbSymbolTableRecord
100
AcDbLinetypeTableRecord
  2
ByBlock
 70
0
 72
0
 73
0
 40
0.0
  0
LTYPE
  5
D
330
6
100
AcDbSymbolTableRecord
100
AcDbLinetypeTableRecord
  2
Continuous
 70
0
 72
0
 73
0
 40
0.0
  0
ENDTAB
  0
TABLE
  2
LAYER
  5
5
330
0
100
AcDbSymbolTable
 70
1
  0
LAYER
  5
E
330
5
100
AcDbSymbolTableRecord
100
AcDbLayerTableRecord
  2
0
 70
0
 62
7
  6
Continuous
290
1
370
-3
390
0
  0
ENDTAB
  0
TABLE
  2
STYLE
  5
7
330
0
100
AcDbSymbolTable
 70
1
  0
STYLE
  5
15
330
7
100
AcDbSymbolTableRecord
100
AcDbTextStyleTableRecord
  2
Standard
 70
0
 40
0.0
 41
1.0
 42
0.0
 50
0.0
 71
0
  0
ENDTAB
  0
TABLE
  2
VIEW
  5
9
330
0
100
AcDbSymbolTable
 70
0
  0
ENDTAB
  0
TABLE
  2
UCS
  5
8
330
0
100
AcDbSymbolTable
 70
0
  0
ENDTAB
  0
TABLE
  2
APPID
  5
2
330
0
100
AcDbSymbolTable
 70
1
  0
APPID
  5
17
330
2
100
AcDbSymbolTableRecord
100
AcDbRegAppTableRecord
  2
ACAD
 70
0
  0
ENDTAB
  0
TABLE
  2
DIMSTYLE
  5
4
330
0
100
AcDbSymbolTable
 70
1
100
AcDbDimStyleTable
  0
DIMSTYLE
105
16
330
4
100
AcDbSymbolTableRecord
100
AcDbDimStyleTableRecord
  2
Standard
 70
0
  3
<>
  4
[]
 40
1.0
 41
0.18
 42
0.625
 43
3.75
 44
1.25
 45
0.0
 46
0.0
 47
0.0
 48
0.0
 49
1.0
 50
0.7853981633974483
 70
0
 90
0
140
0.18
141
0.09
142
0.0
143
25.3999999999999986
144
1.0
145
0.0
146
1.0
147
0.625
148
0.0
 71
0
 72
0
 73
0
 74
0
 75
0
 76
0
 77
1
 78
8
 79
0
170
0
171
3
172
0
173
1
174
0
175
0
176
0
177
0
178
0
179
0
271
2
272
2
273
2
274
3
275
0
276
0
277
2
278
46
279
0
280
0
281
0
282
0
283
0
284
8
285
0
286
0
287
0
288
0
289
3
290
0
340
0
371
-2
372
-2
  0
ENDTAB
  0
TABLE
  2
BLOCK_RECORD
  5
3
330
0
100
AcDbSymbolTable
 70
2
  0
BLOCK_RECORD
  5
F
330
3
100
AcDbSymbolTableRecord
100
AcDbBlockTableRecord
  2
*Model_Space
 70
0
 70
0
280
0
281
1
  0
BLOCK_RECORD
  5
12
330
3
100
AcDbSymbolTableRecord
100
AcDbBlockTableRecord
  2
*Paper_Space
 70
0
 70
0
280
0
281
1
  0
ENDTAB
  0
ENDSEC
  0
SECTION
  2
BLOCKS
  0
BLOCK
  5
10
330
F
100
AcDbEntity
  8
0
  6
ByLayer
 62
256
 48
1.0
 60
0
370
-1
100
AcDbBlockBegin
  2
*Model_Space
 70
0
 10
0.0
 20
0.0
 30
0.0
  3
*Model_Space
  0
ENDBLK
  5
11
330
F
100
AcDbEntity
  8
0
100
AcDbBlockEnd
  0
BLOCK
  5
13
330
12
100
AcDbEntity
  8
0
  6
ByLayer
 62
256
 48
1.0
 60
0
370
-1
100
AcDbBlockBegin
  2
*Paper_Space
 70
0
 10
0.0
 20
0.0
 30
0.0
  3
*Paper_Space
  0
ENDBLK
  5
14
330
12
100
AcDbEntity
  8
0
100
AcDbBlockEnd
  0
ENDSEC
  0
SECTION
  2
ENTITIES
  0
TEXT
  5
19
330
F
100
AcDbEntity
  8
0
  6
ByLayer
420
0
 48
1.0
 60
0
370
-1
100
AcDbText
 39
0.0
 10
0.0
 20
520.5
 30
0.0
 40
18.0
  1
SVG Shapes
 50
0.0
 41
1.0
 51
0.0
  7
Standard
 71
0
 72
0
 11
0.0
 21
0.0
 31
0.0
210
0.0
220
0.0
230
1.0
100
AcDbText
 73
0
  0
LWPOLYLINE
  5
1A
330
F
100
AcDbEntity
  8
0
  6
ByLayer
420
13421772
 48
1.0
 60
0
370
-1
100
AcDbPolyline
 90
4
 70
1
 43
0.0
 38
0.0
 39
0.0
210
0.0
220
0.0
230
1.0
 10
0.0
 20
504.0
 40
0.0
 41
0.0
 42
0.0
 10
600.0
 20
504.0
 40
0.0
 41
0.0
 42
0.0
 10
600.0
 20
4.0
 40
0.0
 41
0.0
 42
0.0
 10
0.0
 20
4.0
 40
0.0
 41
0.0
 42
0.0
  0
HATCH
  5
1B
330
F
100
AcDbEntity
  8
0
  6
ByLayer
420
15022389
 48
1.0
 60
0
370
-1
100
AcDbHatch
 30
0.0
210
0.0
220
0.0
230
1.0
  2
SOLID
 70
1
 71
0
 91
1
 92
2
 72
0
 73
1
 93
41
 10
29.0
 20
483.0
 10
133.0
 20
483.0
 10
133.0
 20
483.0
 10
134.5607225761290238
 20
482.8462822432258577
 10
136.0614674589207311
 20
482.3910362600902886
 10
137.4445618641568103
 20
481.6517568984203308
 10
138.656854249492369
 20
480.656854249492369
 10
139.6517568984203592
 20
479.4445618641568103
 10
140.3910362600902886
 20
478.0614674589207311
 10
140.8462822432258577
 20
476.5607225761290238
 10
141.0
 20
475.0
 10
141.0
 20
431.0
 10
141.0
 20
431.0
 10
140.8462822432258577
 20
429.4392774238709762
 10
140.3910362600902886
 20
427.9385325410792689
 10
139.6517568984203592
 20
426.5554381358431897
 10
138.656854249492369
 20
425.343145750507631
 10
137.4445618641568103
 20
424.3482431015796692
 10
136.0614674589207311
 20
423.6089637399097114
 10
134.5607225761290238
 20
423.1537177567741423
 10
133.0
 20
423.0
 10
29.0
 20
423.0
 10
29.0
 20
423.0
 10
27.4392774238709762
 20
423.1537177567741423
 10
25.9385325410792831
 20
423.6089637399097114
 10
24.5554381358431826
 20
424.3482431015796692
 10
23.3431457505076203
 20
425.343145750507631
 10
22.3482431015796372
 20
426.5554381358431897
 10
21.6089637399097043
 20
427.9385325410792689
 10
21.1537177567741566
 20
429.4392774238709762
 10
21.0
 20
431.0
 10
21.0
 20
475.0
 10
21.0
 20
475.0
 10
21.1537177567741566
 20
476.5607225761290238
 10
21.6089637399097043
 20
478.0614674589207311
 10
22.3482431015796372
 20
479.4445618641568103
 10
23.3431457505076168
 20
480.656854249492369
 10
24.5554381358431826
 20
481.6517568984203308
 10
25.938532541079276
 20
482.3910362600902886
 10
27.4392774238709691
 20
482.8462822432258577
 10
29.0
 20
483.0
 97
0
 75
0
 76
1
 47
0.0
 98
0
  0
LWPOLYLINE
  5
1C
330
F
100
AcDbEntity
  8
0
  6
ByLayer
420
12000284
 48
1.0
 60
0
370
-1
100
AcDbPolyline
 90
41
 70
1
 43
0.0
 38
0.0
 39
0.0
210
0.0
220
0.0
230
1.0
 10
29.0
 20
483.0
 40
0.0
 41
0.0
 42
0.0
 10
133.0
 20
483.0
 40
0.0
 41
0.0
 42
0.0
 10
133.0
 20
483.0
 40
0.0
 41
0.0
 42
0.0
 10
134.5607225761290238
 20
482.8462822432258577
 40
0.0
 41
0.0
 42
0.0
 10
136.0614674589207311
 20
482.3910362600902886
 40
0.0
 41
0.0
 42
0.0
 10
137.4445618641568103
 20
481.6517568984203308
 40
0.0
 41
0.0
 42
0.0
 10
138.656854249492369
 20
480.656854249492369
 40
0.0
 41
0.0
 42
0.0
 10
139.6517568984203592
 20
479.4445618641568103
 40
0.0
 41
0.0
 42
0.0
 10
140.3910362600902886
 20
478.0614674589207311
 40
0.0
 41
0.0
 42
0.0
 10
140.8462822432258577
 20
476.5607225761290238
 40
0.0
 41
0.0
 42
0.0
 10
141.0
 20
475.0
 40
0.0
 41
0.0
 42
0.0
 10
141.0
 20
431.0
 40
0.0
 41
0.0
 42
0.0
 10
141.0
 20
431.0
 40
0.0
 41
0.0
 42
0.0
 10
140.8462822432258577
 20
429.4392774238709762
 40
0.0
 41
0.0
 42
0.0
 10
140.3910362600902886
 20
427.9385325410792689
 40
0.0
 41
0.0
 42
0.0
 10
139.6517568984203592
 20
426.5554381358431897
 40
0.0
 41
0.0
 42
0.0
 10
138.656854249492369
 20
425.343145750507631
 40
0.0
 41
0.0
 42
0.0
 10
137.4445618641568103
 20
424.3482431015796692
 40
0.0
 41
0.0
 42
0.0
 10
136.0614674589207311
 20
423.6089637399097114
 40
0.0
 41
0.0
 42
0.0
 10
134.5607225761290238
 20
423.1537177567741423
 40
0.0
 41
0.0
 42
0.0
 10
133.0
 20
423.0
 40
0.0
 41
0.0
 42
0.0
 10
29.0
 20
423.0
 40
0.0
 41
0.0
 42
0.0
 10
29.0
 20
423.0
 40
0.0
 41
0.0
 42
0.0
 10
27.4392774238709762
 20
423.1537177567741423
 40
0.0
 41
0.0
 42
0.0
 10
25.9385325410792831
 20
423.6089637399097114
 40
0.0
 41
0.0
 42
0.0
 10
24.5554381358431826
 20
424.3482431015796692
 40
0.0
 41
0.0
 42
0.0
 10
23.3431457505076203
 20
425.343145750507631
 40
0.0
 41
0.0
 42
0.0
 10
22.3482431015796372
 20
426.5554381358431897
 40
0.0
 41
0.0
 42
0.0
 10
21.6089637399097043
 20
427.9385325410792689
 40
0.0
 41
0.0
 42
0.0
 10
21.1537177567741566
 20
429.4392774238709762
 40
0.0
 41
0.0
 42
0.0
 10
21.0
 20
431.0
 40
0.0
 41
0.0
 42
0.0
 10
21.0
 20
475.0
 40
0.0
 41
0.0
 42
0.0
 10
21.0
 20
475.0
 40
0.0
 41
0.0
 42
0.0
 10
21.1537177567741566
 20
476.5607225761290238
 40
0.0
 41
0.0
 42
0.0
 10
21.6089637399097043
 20
478.0614674589207311
 40
0.0
 41
0.0
 42
0.0
 10
22.3482431015796372
 20
479.4445618641568103
 40
0.0
 41
0.0
 42
0.0
 10
23.3431457505076168
 20
480.656854249492369
 40
0.0
 41
0.0
 42
0.0
 10
24.5554381358431826
 20
481.6517568984203308
 40
0.0
 41
0.0
 42
0.0
 10
25.938532541079276
 20
482.3910362600902886
 40
0.0
 41
0.0
 42
0.0
 10
27.4392774238709691
 20
482.8462822432258577
 40
0.0
 41
0.0
 42
0.0
 10
29.0
 20
483.0
 40
0.0
 41
0.0
 42
0.0
  0
HATCH
  5
1D
330
F
100
AcDbEntity
  8
0
  6
ByLayer
420
2001125
 48
1.0
 60
0
370
-1
100
AcDbHatch
 30
0.0
210
0.0
220
0.0
230
1.0
  2
SOLID
 70
1
 71
0
 91
1
 92
2
 72
0
 73
1
 93
32
 10
291.0
 20
453.0
 10
290.2314112161292314
 20
445.1963871193548812
 10
287.9551813004514997
 20
437.6926627053964012
 10
284.2587844921018245
 20
430.7771906792158916
 10
279.284271247461902
 20
424.715728752538098
 10
273.2228093207841084
 20
419.7412155078981755
 10
266.3073372946035988
 20
416.0448186995485003
 10
258.8036128806451188
 20
413.7685887838707686
 10
251.0
 20
413.0
 10
243.1963871193548812
 20
413.7685887838707686
 10
235.6926627053964012
 20
416.0448186995485003
 10
228.77719067921592
 20
419.7412155078981755
 10
222.715728752538098
 20
424.715728752538098
 10
217.7412155078981755
 20
430.7771906792158916
 10
214.0448186995485287
 20
437.6926627053964012
 10
211.7685887838707686
 20
445.1963871193548812
 10
211.0
 20
453.0
 10
211.7685887838707686
 20
460.8036128806451188
 10
214.0448186995485287
 20
468.3073372946035988
 10
217.7412155078981755
 20
475.2228093207841084
 10
222.715728752538098
 20
481.284271247461902
 10
228.77719067921592
 20
486.2587844921018245
 10
235.6926627053964012
 20
489.9551813004514429
 10
243.1963871193548812
 20
492.2314112161292314
 10
251.0
 20
493.0
 10
258.8036128806451188
 20
492.2314112161292314
 10
266.3073372946035988
 20
489.9551813004514997
 10
273.2228093207840516
 20
486.2587844921018245
 10
279.284271247461902
 20
481.284271247461902
 10
284.2587844921018245
 20
475.2228093207841084
 10
287.9551813004514429
 20
468.3073372946035988
 10
290.2314112161292314
 20
460.8036128806451188
 97
0
 75
0
 76
1
 47
0.0
 98
0
  0
LWPOLYLINE
  5
1E
330
F
100
AcDbEntity
  8
0
  6
ByLayer
420
870305
 48
1.0
 60
0
370
-1
100
AcDbPolyline
 90
32
 70
1
 43
0.0
 38
0.0
 39
0.0
210
0.0
220
0.0
230
1.0
 10
291.0
 20
453.0
 40
0.0
 41
0.0
 42
0.0
 10
290.2314112161292314
 20
445.1963871193548812
 40
0.0
 41
0.0
 42
0.0
 10
287.9551813004514997
 20
437.6926627053964012
 40
0.0
 41
0.0
 42
0.0
 10
284.2587844921018245
 20
430.7771906792158916
 40
0.0
 41
0.0
 42
0.0
 10
279.284271247461902
 20
424.715728752538098
 40
0.0
 41
0.0
 42
0.0
 10
273.2228093207841084
 20
419.7412155078981755
 40
0.0
 41
0.0
 42
0.0
 10
266.3073372946035988
 20
416.0448186995485003
 40
0.0
 41
0.0
 42
0.0
 10
258.8036128806451188
 20
413.7685887838707686
 40
0.0
 41
0.0
 42
0.0
 10
251.0
 20
413.0
 40
0.0
 41
0.0
 42
0.0
 10
243.1963871193548812
 20
413.7685887838707686
 40
0.0
 41
0.0
 42
0.0
 10
235.6926627053964012
 20
416.0448186995485003
 40
0.0
 41
0.0
 42
0.0
 10
228.77719067921592
 20
419.7412155078981755
 40
0.0
 41
0.0
 42
0.0
 10
222.715728752538098
 20
424.715728752538098
 40
0.0
 41
0.0
 42
0.0
 10
217.7412155078981755
 20
430.7771906792158916
 40
0.0
 41
0.0
 42
0.0
 10
214.0448186995485287
 20
437.6926627053964012
 40
0.0
 41
0.0
 42
0.0
 10
211.7685887838707686
 20
445.1963871193548812
 40
0.0
 41
0.0
 42
0.0
 10
211.0
 20
453.0
 40
0.0
 41
0.0
 42
0.0
 10
211.7685887838707686
 20
460.8036128806451188
 40
0.0
 41
0.0
 42
0.0
 10
214.0448186995485287
 20
468.3073372946035988
 40
0.0
 41
0.0
 42
0.0
 10
217.7412155078981755
 20
475.2228093207841084
 40
0.0
 41
0.0
 42
0.0
 10
222.715728752538098
 20
481.284271247461902
 40
0.0
 41
0.0
 42
0.0
 10
228.77719067921592
 20
486.2587844921018245
 40
0.0
 41
0.0
 42
0.0
 10
235.6926627053964012
 20
489.9551813004514429
 40
0.0
 41
0.0
 42
0.0
 10
243.1963871193548812
 20
492.2314112161292314
 40
0.0
 41
0.0
 42
0.0
 10
251.0
 20
493.0
 40
0.0
 41
0.0
 42
0.0
 10
258.8036128806451188
 20
492.2314112161292314
 40
0.0
 41
0.0
 42
0.0
 10
266.3073372946035988
 20
489.9551813004514997
 40
0.0
 41
0.0
 42
0.0
 10
273.2228093207840516
 20
486.2587844921018245
 40
0.0
 41
0.0
 42
0.0
 10
279.284271247461902
 20
481.284271247461902
 40
0.0
 41
0.0
 42
0.0
 10
284.2587844921018245
 20
475.2228093207841084
 40
0.0
 41
0.0
 42
0.0
 10
287.9551813004514429
 20
468.3073372946035988
 40
0.0
 41
0.0
 42
0.0
 10
290.2314112161292314
 20
460.8036128806451188
 40
0.0
 41
0.0
 42
0.0
  0
HATCH
  5
1F
330
F
100
AcDbEntity
  8
0
  6
ByLayer
420
4431943
 48
1.0
 60
0
370
-1
100
AcDbHatch
 30
0.0
210
0.0
220
0.0
230
1.0
  2
SOLID
 70
1
 71
0
 91
1
 92
2
 72
0
 73
1
 93
32
 10
461.0
 20
453.0
 10
459.8471168241938472
 20
446.1718387294355352
 10
456.4327719506771928
 20
439.6060798672218652
 10
450.8881767381527084
 20
433.5550418443139051
 10
443.426406871192853
 20
428.2512626584708642
 10
434.3342139811761626
 20
423.8985635694109533
 10
423.9610059419053982
 20
420.6642163621049804
 10
412.7054193209676782
 20
418.6725151858869367
 10
401.0
 20
418.0
 10
389.2945806790323218
 20
418.6725151858869367
 10
378.0389940580946018
 20
420.6642163621049804
 10
367.6657860188238942
 20
423.8985635694108964
 10
358.573593128807147
 20
428.2512626584708642
 10
351.1118232618472916
 20
433.5550418443139051
 10
345.5672280493228072
 20
439.6060798672218652
 10
342.1528831758061528
 20
446.1718387294355352
 10
341.0
 20
453.0
 10
342.1528831758061528
 20
459.8281612705644648
 10
345.5672280493228072
 20
466.3939201327781348
 10
351.1118232618472916
 20
472.4449581556860949
 10
358.573593128807147
 20
477.7487373415291358
 10
367.6657860188238374
 20
482.1014364305890467
 10
378.0389940580946018
 20
485.3357836378950196
 10
389.2945806790322649
 20
487.3274848141130633
 10
401.0
 20
488.0
 10
412.7054193209676782
 20
487.3274848141130633
 10
423.9610059419053982
 20
485.3357836378950196
 10
434.3342139811761058
 20
482.1014364305891036
 10
443.426406871192853
 20
477.7487373415291358
 10
450.8881767381527084
 20
472.4449581556860949
 10
456.4327719506771928
 20
466.3939201327781348
 10
459.8471168241937903
 20
459.8281612705645216
 97
0
 75
0
 76
1
 47
0.0
 98
0
  0
LWPOLYLINE
  5
20
330
F
100
AcDbEntity
  8
0
  6
ByLayer
420
1793568
 48
1.0
 60
0
370
-1
100
AcDbPolyline
 90
32
 70
1
 43
0.0
 38
0.0
 39
0.0
210
0.0
220
0.0
230
1.0
 10
461.0
 20
453.0
 40
0.0
 41
0.0
 42
0.0
 10
459.8471168241938472
 20
446.1718387294355352
 40
0.0
 41
0.0
 42
0.0
 10
456.4327719506771928
 20
439.6060798672218652
 40
0.0
 41
0.0
 42
0.0
 10
450.8881767381527084
 20
433.5550418443139051
 40
0.0
 41
0.0
 42
0.0
 10
443.426406871192853
 20
428.2512626584708642
 40
0.0
 41
0.0
 42
0.0
 10
434.3342139811761626
 20
423.8985635694109533
 40
0.0
 41
0.0
 42
0.0
 10
423.9610059419053982
 20
420.6642163621049804
 40
0.0
 41
0.0
 42
0.0
 10
412.7054193209676782
 20
418.6725151858869367
 40
0.0
 41
0.0
 42
0.0
 10
401.0
 20
418.0
 40
0.0
 41
0.0
 42
0.0
 10
389.2945806790323218
 20
418.6725151858869367
 40
0.0
 41
0.0
 42
0.0
 10
378.0389940580946018
 20
420.6642163621049804
 40
0.0
 41
0.0
 42
0.0
 10
367.6657860188238942
 20
423.8985635694108964
 40
0.0
 41
0.0
 42
0.0
 10
358.573593128807147
 20
428.2512626584708642
 40
0.0
 41
0.0
 42
0.0
 10
351.1118232618472916
 20
433.5550418443139051
 40
0.0
 41
0.0
 42
0.0
 10
345.5672280493228072
 20
439.6060798672218652
 40
0.0
 41
0.0
 42
0.0
 10
342.1528831758061528
 20
446.1718387294355352
 40
0.0
 41
0.0
 42
0.0
 10
341.0
 20
453.0
 40
0.0
 41
0.0
 42
0.0
 10
342.1528831758061528
 20
459.8281612705644648
 40
0.0
 41
0.0
 42
0.0
 10
345.5672280493228072
 20
466.3939201327781348
 40
0.0
 41
0.0
 42
0.0
 10
351.1118232618472916
 20
472.4449581556860949
 40
0.0
 41
0.0
 42
0.0
 10
358.573593128807147
 20
477.7487373415291358
 40
0.0
 41
0.0
 42
0.0
 10
367.6657860188238374
 20
482.1014364305890467
 40
0.0
 41
0.0
 42
0.0
 10
378.0389940580946018
 20
485.3357836378950196
 40
0.0
 41
0.0
 42
0.0
 10
389.2945806790322649
 20
487.3274848141130633
 40
0.0
 41
0.0
 42
0.0
 10
401.0
 20
488.0
 40
0.0
 41
0.0
 42
0.0
 10
412.7054193209676782
 20
487.3274848141130633
 40
0.0
 41
0.0
 42
0.0
 10
423.9610059419053982
 20
485.3357836378950196
 40
0.0
 41
0.0
 42
0.0
 10
434.3342139811761058
 20
482.1014364305891036
 40
0.0
 41
0.0
 42
0.0
 10
443.426406871192853
 20
477.7487373415291358
 40
0.0
 41
0.0
 42
0.0
 10
450.8881767381527084
 20
472.4449581556860949
 40
0.0
 41
0.0
 42
0.0
 10
456.4327719506771928
 20
466.3939201327781348
 40
0.0
 41
0.0
 42
0.0
 10
459.8471168241937903
 20
459.8281612705645216
 40
0.0
 41
0.0
 42
0.0
  0
LWPOLYLINE
  5
21
330
F
100
AcDbEntity
  8
0
  6
ByLayer
420
16750592
 48
1.0
 60
0
370
-1
100
AcDbPolyline
 90
2
 70
0
 43
0.0
 38
0.0
 39
0.0
210
0.0
220
0.0
230
1.0
 10
21.0
 20
383.0
 40
0.0
 41
0.0
 42
0.0
 10
181.0
 20
383.0
 40
0.0
 41
0.0
 42
0.0
  0
LWPOLYLINE
  5
22
330
F
100
AcDbEntity
  8
0
  6
ByLayer
420
10233776
 48
1.0
 60
0
370
-1
100
AcDbPolyline
 90
5
 70
0
 43
0.0
 38
0.0
 39
0.0
210
0.0
220
0.0
230
1.0
 10
201.0
 20
403.0
 40
0.0
 41
0.0
 42
0.0
 10
231.0
 20
363.0
 40
0.0
 41
0.0
 42
0.0
 10
261.0
 20
398.0
 40
0.0
 41
0.0
 42
0.0
 10
291.0
 20
358.0
 40
0.0
 41
0.0
 42
0.0
 10
321.0
 20
403.0
 40
0.0
 41
0.0
 42
0.0
  0
HATCH
  5
23
330
F
100
AcDbEntity
  8
0
  6
ByLayer
420
16635957
 48
1.0
 60
0
370
-1
100
AcDbHatch
 30
0.0
210
0.0
220
0.0
230
1.0
  2
SOLID
 70
1
 71
0
 91
1
 92
2
 72
0
 73
1
 93
10
 10
431.0
 20
413.0
 10
446.0
 20
373.0
 10
491.0
 20
373.0
 10
456.0
 20
348.0
 10
466.0
 20
308.0
 10
431.0
 20
333.0
 10
396.0
 20
308.0
 10
406.0
 20
348.0
 10
371.0
 20
373.0
 10
416.0
 20
373.0
 97
0
 75
0
 76
1
 47
0.0
 98
0
  0
LWPOLYLINE
  5
24
330
F
100
AcDbEntity
  8
0
  6
ByLayer
420
16088855
 48
1.0
 60
0
370
-1
100
AcDbPolyline
 90
10
 70
1
 43
0.0
 38
0.0
 39
0.0
210
0.0
220
0.0
230
1.0
 10
431.0
 20
413.0
 40
0.0
 41
0.0
 42
0.0
 10
446.0
 20
373.0
 40
0.0
 41
0.0
 42
0.0
 10
491.0
 20
373.0
 40
0.0
 41
0.0
 42
0.0
 10
456.0
 20
348.0
 40
0.0
 41
0.0
 42
0.0
 10
466.0
 20
308.0
 40
0.0
 41
0.0
 42
0.0
 10
431.0
 20
333.0
 40
0.0
 41
0.0
 42
0.0
 10
396.0
 20
308.0
 40
0.0
 41
0.0
 42
0.0
 10
406.0
 20
348.0
 40
0.0
 41
0.0
 42
0.0
 10
371.0
 20
373.0
 40
0.0
 41
0.0
 42
0.0
 10
416.0
 20
373.0
 40
0.0
 41
0.0
 42
0.0
  0
LWPOLYLINE
  5
25
330
F
100
AcDbEntity
  8
0
  6
ByLayer
420
48340
 48
1.0
 60
0
370
-1
100
AcDbPolyline
 90
145
 70
0
 43
0.0
 38
0.0
 39
0.0
210
0.0
220
0.0
230
1.0
 10
21.0
 20
303.0
 40
0.0
 41
0.0
 42
0.0
 10
22.2382736206054688
 20
304.56988525390625
 40
0.0
 41
0.0
 42
0.0
 10
23.5570735931396484
 20
306.0726776123046875
 40
0.0
 41
0.0
 42
0.0
 10
24.9611358642578125
 20
307.496063232421875
 40
0.0
 41
0.0
 42
0.0
 10
26.4540882110595703
 20
308.8258056640625
 40
0.0
 41
0.0
 42
0.0
 10
28.0373649597167969
 20
310.0464935302734375
 40
0.0
 41
0.0
 42
0.0
 10
29.7094554901123047
 20
311.142242431640625
 40
0.0
 41
0.0
 42
0.0
 10
31.4652442932128906
 20
312.0980377197265625
 40
0.0
 41
0.0
 42
0.0
 10
33.2957229614257813
 20
312.9014892578125
 40
0.0
 41
0.0
 42
0.0
 10
35.188507080078125
 20
313.544586181640625
 40
0.0
 41
0.0
 42
0.0
 10
37.1290855407714844
 20
314.0246734619140625
 40
0.0
 41
0.0
 42
0.0
 10
39.1024017333984375
 20
314.3449554443359375
 40
0.0
 41
0.0
 42
0.0
 10
41.094512939453125
 20
314.5131988525390625
 40
0.0
 41
0.0
 42
0.0
 10
43.0936012268066406
 20
314.5413818359375
 40
0.0
 41
0.0
 42
0.0
 10
45.0905265808105469
 20
314.442718505859375
 40
0.0
 41
0.0
 42
0.0
 10
47.0787506103515625
 20
314.231353759765625
 40
0.0
 41
0.0
 42
0.0
 10
49.0540275573730469
 20
313.921234130859375
 40
0.0
 41
0.0
 42
0.0
 10
51.0139198303222656
 20
313.5251007080078125
 40
0.0
 41
0.0
 42
0.0
 10
52.9573631286621094
 20
313.054718017578125
 40
0.0
 41
0.0
 42
0.0
 10
54.8842048645019531
 20
312.5202789306640625
 40
0.0
 41
0.0
 42
0.0
 10
56.7950668334960938
 20
311.9311676025390625
 40
0.0
 41
0.0
 42
0.0
 10
58.6909255981445313
 20
311.2953948974609375
 40
0.0
 41
0.0
 42
0.0
 10
60.5730056762695313
 20
310.619873046875
 40
0.0
 41
0.0
 42
0.0
 10
62.4428253173828125
 20
309.9111175537109375
 40
0.0
 41
0.0
 42
0.0
 10
64.3019294738769531
 20
309.1746978759765625
 40
0.0
 41
0.0
 42
0.0
 10
66.1518783569335938
 20
308.4155426025390625
 40
0.0
 41
0.0
 42
0.0
 10
67.9940872192382813
 20
307.6377716064453125
 40
0.0
 41
0.0
 42
0.0
 10
69.8300857543945313
 20
306.845458984375
 40
0.0
 41
0.0
 42
0.0
 10
71.6616134643554688
 20
306.0428619384765625
 40
0.0
 41
0.0
 42
0.0
 10
73.4899978637695313
 20
305.2331085205078125
 40
0.0
 41
0.0
 42
0.0
 10
75.316497802734375
 20
304.41912841796875
 40
0.0
 41
0.0
 42
0.0
 10
77.1428146362304688
 20
303.6047210693359375
 40
0.0
 41
0.0
 42
0.0
 10
78.9697265625
 20
302.7916412353515625
 40
0.0
 41
0.0
 42
0.0
 10
80.7988128662109375
 20
301.983489990234375
 40
0.0
 41
0.0
 42
0.0
 10
82.6312255859375
 20
301.1829071044921875
 40
0.0
 41
0.0
 42
0.0
 10
84.4680938720703125
 20
300.392608642578125
 40
0.0
 41
0.0
 42
0.0
 10
86.3105926513671875
 20
299.6155242919921875
 40
0.0
 41
0.0
 42
0.0
 10
88.1596298217773438
 20
298.8541412353515625
 40
0.0
 41
0.0
 42
0.0
 10
90.0163650512695313
 20
298.1117401123046875
 40
0.0
 41
0.0
 42
0.0
 10
91.8814773559570313
 20
297.3906402587890625
 40
0.0
 41
0.0
 42
0.0
 10
93.7560043334960938
 20
296.6943817138671875
 40
0.0
 41
0.0
 42
0.0
 10
95.640472412109375
 20
296.0255279541015625
 40
0.0
 41
0.0
 42
0.0
 10
97.5356674194335938
 20
295.3877105712890625
 40
0.0
 41
0.0
 42
0.0
 10
99.4420242309570313
 20
294.7841339111328125
 40
0.0
 41
0.0
 42
0.0
 10
101.3599319458007813
 20
294.218292236328125
 40
0.0
 41
0.0
 42
0.0
 10
103.2895584106445313
 20
293.69384765625
 40
0.0
 41
0.0
 42
0.0
 10
105.2308731079101563
 20
293.21453857421875
 40
0.0
 41
0.0
 42
0.0
 10
107.1836318969726563
 20
292.7841796875
 40
0.0
 41
0.0
 42
0.0
 10
109.1473007202148438
 20
292.4068145751953125
 40
0.0
 41
0.0
 42
0.0
 10
111.121063232421875
 20
292.0864410400390625
 40
0.0
 41
0.0
 42
0.0
 10
113.1037521362304688
 20
291.8271026611328125
 40
0.0
 41
0.0
 42
0.0
 10
115.0938568115234375
 20
291.6328277587890625
 40
0.0
 41
0.0
 42
0.0
 10
117.0894851684570313
 20
291.507476806640625
 40
0.0
 41
0.0
 42
0.0
 10
119.0883331298828125
 20
291.454742431640625
 40
0.0
 41
0.0
 42
0.0
 10
121.0877456665039063
 20
291.4778900146484375
 40
0.0
 41
0.0
 42
0.0
 10
123.0846710205078125
 20
291.5798797607421875
 40
0.0
 41
0.0
 42
0.0
 10
125.0757675170898438
 20
291.7630462646484375
 40
0.0
 41
0.0
 42
0.0
 10
127.0575103759765625
 20
292.029144287109375
 40
0.0
 41
0.0
 42
0.0
 10
129.0260772705078125
 20
292.379547119140625
 40
0.0
 41
0.0
 42
0.0
 10
130.977783203125
 20
292.814208984375
 40
0.0
 41
0.0
 42
0.0
 10
132.9089202880859375
 20
293.332550048828125
 40
0.0
 41
0.0
 42
0.0
 10
134.8159027099609375
 20
293.933807373046875
 40
0.0
 41
0.0
 42
0.0
 10
136.69561767578125
 20
294.61553955078125
 40
0.0
 41
0.0
 42
0.0
 10
138.544921875
 20
295.3759002685546875
 40
0.0
 41
0.0
 42
0.0
 10
140.3616485595703125
 20
296.211090087890625
 40
0.0
 41
0.0
 42
0.0
 10
142.1435394287109375
 20
297.1182861328125
 40
0.0
 41
0.0
 42
0.0
 10
143.8890838623046875
 20
298.0935821533203125
 40
0.0
 41
0.0
 42
0.0
 10
145.59722900390625
 20
299.1330413818359375
 40
0.0
 41
0.0
 42
0.0
 10
147.26708984375
 20
300.2329559326171875
 40
0.0
 41
0.0
 42
0.0
 10
148.898590087890625
 20
301.3890228271484375
 40
0.0
 41
0.0
 42
0.0
 10
150.491546630859375
 20
302.597625732421875
 40
0.0
 41
0.0
 42
0.0
 10
152.0582122802734375
 20
303.8403167724609375
 40
0.0
 41
0.0
 42
0.0
 10
153.6347503662109375
 20
305.070404052734375
 40
0.0
 41
0.0
 42
0.0
 10
155.223968505859375
 20
306.2840576171875
 40
0.0
 41
0.0
 42
0.0
 10
156.8261260986328125
 20
307.4806365966796875
 40
0.0
 41
0.0
 42
0.0
 10
158.441497802734375
 20
308.6592559814453125
 40
0.0
 41
0.0
 42
0.0
 10
160.06988525390625
 20
309.8198394775390625
 40
0.0
 41
0.0
 42
0.0
 10
161.7113800048828125
 20
310.961822509765625
 40
0.0
 41
0.0
 42
0.0
 10
163.3660736083984375
 20
312.0845947265625
 40
0.0
 41
0.0
 42
0.0
 10
165.034088134765625
 20
313.1875
 40
0.0
 41
0.0
 42
0.0
 10
166.7156219482421875
 20
314.2696533203125
 40
0.0
 41
0.0
 42
0.0
 10
168.4105072021484375
 20
315.3307342529296875
 40
0.0
 41
0.0
 42
0.0
 10
170.118865966796875
 20
316.37005615234375
 40
0.0
 41
0.0
 42
0.0
 10
171.8406524658203125
 20
317.38690185546875
 40
0.0
 41
0.0
 42
0.0
 10
173.575958251953125
 20
318.38055419921875
 40
0.0
 41
0.0
 42
0.0
 10
175.3247528076171875
 20
319.3502655029296875
 40
0.0
 41
0.0
 42
0.0
 10
177.087005615234375
 20
320.2952423095703125
 40
0.0
 41
0.0
 42
0.0
 10
178.8627166748046875
 20
321.2147064208984375
 40
0.0
 41
0.0
 42
0.0
 10
180.6518402099609375
 20
322.1078338623046875
 40
0.0
 41
0.0
 42
0.0
 10
182.454254150390625
 20
322.9737701416015625
 40
0.0
 41
0.0
 42
0.0
 10
184.27008056640625
 20
323.8112030029296875
 40
0.0
 41
0.0
 42
0.0
 10
186.0990447998046875
 20
324.61962890625
 40
0.0
 41
0.0
 42
0.0
 10
187.9409332275390625
 20
325.3980865478515625
 40
0.0
 41
0.0
 42
0.0
 10
189.7955780029296875
 20
326.1456756591796875
 40
0.0
 41
0.0
 42
0.0
 10
191.662841796875
 20
326.8611297607421875
 40
0.0
 41
0.0
 42
0.0
 10
193.5424652099609375
 20
327.5434112548828125
 40
0.0
 41
0.0
 42
0.0
 10
195.4342498779296875
 20
328.19134521484375
 40
0.0
 41
0.0
 42
0.0
 10
197.3377227783203125
 20
328.803955078125
 40
0.0
 41
0.0
 42
0.0
 10
199.2525634765625
 20
329.38006591796875
 40
0.0
 41
0.0
 42
0.0
 10
201.178375244140625
 20
329.9184417724609375
 40
0.0
 41
0.0
 42
0.0
 10
203.1146240234375
 20
330.4178466796875
 40
0.0
 41
0.0
 42
0.0
 10
205.060791015625
 20
330.8771514892578125
 40
0.0
 41
0.0
 42
0.0
 10
207.016265869140625
 20
331.2950897216796875
 40
0.0
 41
0.0
 42
0.0
 10
208.9803619384765625
 20
331.670318603515625
 40
0.0
 41
0.0
 42
0.0
 10
210.952362060546875
 20
332.001617431640625
 40
0.0
 41
0.0
 42
0.0
 10
212.931396484375
 20
332.2877655029296875
 40
0.0
 41
0.0
 42
0.0
 10
214.9165802001953125
 20
332.527557373046875
 40
0.0
 41
0.0
 42
0.0
 10
216.906982421875
 20
332.7195587158203125
 40
0.0
 41
0.0
 42
0.0
 10
218.901458740234375
 20
332.8626861572265625
 40
0.0
 41
0.0
 42
0.0
 10
220.8989105224609375
 20
332.9557647705078125
 40
0.0
 41
0.0
 42
0.0
 10
222.8980712890625
 20
332.997528076171875
 40
0.0
 41
0.0
 42
0.0
 10
224.89764404296875
 20
332.9869842529296875
 40
0.0
 41
0.0
 42
0.0
 10
226.896240234375
 20
332.92315673828125
 40
0.0
 41
0.0
 42
0.0
 10
228.8923492431640625
 20
332.80487060546875
 40
0.0
 41
0.0
 42
0.0
 10
230.884429931640625
 20
332.631500244140625
 40
0.0
 41
0.0
 42
0.0
 10
232.870849609375
 20
332.40228271484375
 40
0.0
 41
0.0
 42
0.0
 10
234.84991455078125
 20
332.11651611328125
 40
0.0
 41
0.0
 42
0.0
 10
236.8199005126953125
 20
331.7736053466796875
 40
0.0
 41
0.0
 42
0.0
 10
238.779022216796875
 20
331.3733367919921875
 40
0.0
 41
0.0
 42
0.0
 10
240.725494384765625
 20
330.9154815673828125
 40
0.0
 41
0.0
 42
0.0
 10
242.6574859619140625
 20
330.3999481201171875
 40
0.0
 41
0.0
 42
0.0
 10
244.57318115234375
 20
329.8268280029296875
 40
0.0
 41
0.0
 42
0.0
 10
246.4707794189453125
 20
329.1964111328125
 40
0.0
 41
0.0
 42
0.0
 10
248.348541259765625
 20
328.509124755859375
 40
0.0
 41
0.0
 42
0.0
 10
250.2047119140625
 20
327.765472412109375
 40
0.0
 41
0.0
 42
0.0
 10
252.037628173828125
 20
326.9662322998046875
 40
0.0
 41
0.0
 42
0.0
 10
253.845733642578125
 20
326.112335205078125
 40
0.0
 41
0.0
 42
0.0
 10
255.627532958984375
 20
325.204833984375
 40
0.0
 41
0.0
 42
0.0
 10
257.38165283203125
 20
324.244903564453125
 40
0.0
 41
0.0
 42
0.0
 10
259.106781005859375
 20
323.2338714599609375
 40
0.0
 41
0.0
 42
0.0
 10
260.801727294921875
 20
322.1729583740234375
 40
0.0
 41
0.0
 42
0.0
 10
262.465545654296875
 20
321.0637359619140625
 40
0.0
 41
0.0
 42
0.0
 10
264.097198486328125
 20
319.9079132080078125
 40
0.0
 41
0.0
 42
0.0
 10
265.6959228515625
 20
318.7068634033203125
 40
0.0
 41
0.0
 42
0.0
 10
267.2611083984375
 20
317.4624176025390625
 40
0.0
 41
0.0
 42
0.0
 10
268.7921142578125
 20
316.1762237548828125
 40
0.0
 41
0.0
 42
0.0
 10
270.2886962890625
 20
314.8499755859375
 40
0.0
 41
0.0
 42
0.0
 10
271.750274658203125
 20
313.485321044921875
 40
0.0
 41
0.0
 42
0.0
 10
273.176849365234375
 20
312.084136962890625
 40
0.0
 41
0.0
 42
0.0
 10
274.56829833984375
 20
310.6480255126953125
 40
0.0
 41
0.0
 42
0.0
 10
275.924468994140625
 20
309.1785736083984375
 40
0.0
 41
0.0
 42
0.0
 10
277.24554443359375
 20
307.6775054931640625
 40
0.0
 41
0.0
 42
0.0
 10
278.531646728515625
 20
306.146331787109375
 40
0.0
 41
0.0
 42
0.0
 10
279.78302001953125
 20
304.586700439453125
 40
0.0
 41
0.0
 42
0.0
 10
281.0
 20
303.0
 40
0.0
 41
0.0
 42
0.0
  0
LWPOLYLINE
  5
26
330
F
100
AcDbEntity
  8
0
  6
ByLayer
420
15277667
 48
1.0
 60
0
370
-1
100
AcDbPolyline
 90
116
 70
0
 43
0.0
 38
0.0
 39
0.0
210
0.0
220
0.0
230
1.0
 10
301.0
 20
303.0
 40
0.0
 41
0.0
 42
0.0
 10
302.421722412109375
 20
304.4011688232421875
 40
0.0
 41
0.0
 42
0.0
 10
303.86376953125
 20
305.7814178466796875
 40
0.0
 41
0.0
 42
0.0
 10
305.326751708984375
 20
307.1394500732421875
 40
0.0
 41
0.0
 42
0.0
 10
306.8115234375
 20
308.4736328125
 40
0.0
 41
0.0
 42
0.0
 10
308.31854248046875
 20
309.7826385498046875
 40
0.0
 41
0.0
 42
0.0
 10
309.8482666015625
 20
311.06500244140625
 40
0.0
 41
0.0
 42
0.0
 10
311.40130615234375
 20
312.319061279296875
 40
0.0
 41
0.0
 42
0.0
 10
312.978118896484375
 20
313.54302978515625
 40
0.0
 41
0.0
 42
0.0
 10
314.57928466796875
 20
314.7350311279296875
 40
0.0
 41
0.0
 42
0.0
 10
316.20513916015625
 20
315.89306640625
 40
0.0
 41
0.0
 42
0.0
 10
317.856292724609375
 20
317.0147552490234375
 40
0.0
 41
0.0
 42
0.0
 10
319.532989501953125
 20
318.097900390625
 40
0.0
 41
0.0
 42
0.0
 10
321.235260009765625
 20
319.140350341796875
 40
0.0
 41
0.0
 42
0.0
 10
322.96343994140625
 20
320.139251708984375
 40
0.0
 41
0.0
 42
0.0
 10
324.717498779296875
 20
321.09197998046875
 40
0.0
 41
0.0
 42
0.0
 10
326.497222900390625
 20
321.9958343505859375
 40
0.0
 41
0.0
 42
0.0
 10
328.302276611328125
 20
322.8479766845703125
 40
0.0
 41
0.0
 42
0.0
 10
330.132293701171875
 20
323.64501953125
 40
0.0
 41
0.0
 42
0.0
 10
331.986358642578125
 20
324.3844757080078125
 40
0.0
 41
0.0
 42
0.0
 10
333.86346435546875
 20
325.0632171630859375
 40
0.0
 41
0.0
 42
0.0
 10
335.762451171875
 20
325.67816162109375
 40
0.0
 41
0.0
 42
0.0
 10
337.68182373046875
 20
326.22613525390625
 40
0.0
 41
0.0
 42
0.0
 10
339.61962890625
 20
326.7046966552734375
 40
0.0
 41
0.0
 42
0.0
 10
341.573822021484375
 20
327.111297607421875
 40
0.0
 41
0.0
 42
0.0
 10
343.5419921875
 20
327.4436492919921875
 40
0.0
 41
0.0
 42
0.0
 10
345.521514892578125
 20
327.6998291015625
 40
0.0
 41
0.0
 42
0.0
 10
347.50958251953125
 20
327.878082275390625
 40
0.0
 41
0.0
 42
0.0
 10
349.503143310546875
 20
327.977386474609375
 40
0.0
 41
0.0
 42
0.0
 10
351.499053955078125
 20
327.9972076416015625
 40
0.0
 41
0.0
 42
0.0
 10
353.494171142578125
 20
327.9374237060546875
 40
0.0
 41
0.0
 42
0.0
 10
355.4853515625
 20
327.798431396484375
 40
0.0
 41
0.0
 42
0.0
 10
357.469512939453125
 20
327.581085205078125
 40
0.0
 41
0.0
 42
0.0
 10
359.443695068359375
 20
327.28668212890625
 40
0.0
 41
0.0
 42
0.0
 10
361.405181884765625
 20
326.9169769287109375
 40
0.0
 41
0.0
 42
0.0
 10
363.3514404296875
 20
326.47406005859375
 40
0.0
 41
0.0
 42
0.0
 10
365.2802734375
 20
325.9603729248046875
 40
0.0
 41
0.0
 42
0.0
 10
367.18963623046875
 20
325.378570556640625
 40
0.0
 41
0.0
 42
0.0
 10
369.077911376953125
 20
324.7315826416015625
 40
0.0
 41
0.0
 42
0.0
 10
370.943756103515625
 20
324.0223846435546875
 40
0.0
 41
0.0
 42
0.0
 10
372.785797119140625
 20
323.253509521484375
 40
0.0
 41
0.0
 42
0.0
 10
374.6033935546875
 20
322.428436279296875
 40
0.0
 41
0.0
 42
0.0
 10
376.39599609375
 20
321.5504150390625
 40
0.0
 41
0.0
 42
0.0
 10
378.162750244140625
 20
320.6214599609375
 40
0.0
 41
0.0
 42
0.0
 10
379.904022216796875
 20
319.64556884765625
 40
0.0
 41
0.0
 42
0.0
 10
381.619110107421875
 20
318.6243438720703125
 40
0.0
 41
0.0
 42
0.0
 10
383.308563232421875
 20
317.561248779296875
 40
0.0
 41
0.0
 42
0.0
 10
384.972503662109375
 20
316.4586334228515625
 40
0.0
 41
0.0
 42
0.0
 10
386.610931396484375
 20
315.31842041015625
 40
0.0
 41
0.0
 42
0.0
 10
388.224365234375
 20
314.1431427001953125
 40
0.0
 41
0.0
 42
0.0
 10
389.813323974609375
 20
312.9349212646484375
 40
0.0
 41
0.0
 42
0.0
 10
391.378173828125
 20
311.6956787109375
 40
0.0
 41
0.0
 42
0.0
 10
392.91949462890625
 20
310.42724609375
 40
0.0
 41
0.0
 42
0.0
 10
394.437774658203125
 20
309.13134765625
 40
0.0
 41
0.0
 42
0.0
 10
395.93365478515625
 20
307.80963134765625
 40
0.0
 41
0.0
 42
0.0
 10
397.40740966796875
 20
306.4633026123046875
 40
0.0
 41
0.0
 42
0.0
 10
398.859832763671875
 20
305.0939788818359375
 40
0.0
 41
0.0
 42
0.0
 10
400.2916259765625
 20
303.7031097412109375
 40
0.0
 41
0.0
 42
0.0
 10
401.7083740234375
 20
302.296875
 40
0.0
 41
0.0
 42
0.0
 10
403.140167236328125
 20
300.906005859375
 40
0.0
 41
0.0
 42
0.0
 10
404.592620849609375
 20
299.5366973876953125
 40
0.0
 41
0.0
 42
0.0
 10
406.066375732421875
 20
298.1903533935546875
 40
0.0
 41
0.0
 42
0.0
 10
407.562255859375
 20
296.8686370849609375
 40
0.0
 41
0.0
 42
0.0
 10
409.080535888671875
 20
295.5727386474609375
 40
0.0
 41
0.0
 42
0.0
 10
410.621856689453125
 20
294.3043060302734375
 40
0.0
 41
0.0
 42
0.0
 10
412.18670654296875
 20
293.0650787353515625
 40
0.0
 41
0.0
 42
0.0
 10
413.775634765625
 20
291.856842041015625
 40
0.0
 41
0.0
 42
0.0
 10
415.38909912109375
 20
290.68157958984375
 40
0.0
 41
0.0
 42
0.0
 10
417.027496337890625
 20
289.541351318359375
 40
0.0
 41
0.0
 42
0.0
 10
418.691436767578125
 20
288.4387359619140625
 40
0.0
 41
0.0
 42
0.0
 10
420.38092041015625
 20
287.375640869140625
 40
0.0
 41
0.0
 42
0.0
 10
422.09600830078125
 20
286.3544158935546875
 40
0.0
 41
0.0
 42
0.0
 10
423.8372802734375
 20
285.3785247802734375
 40
0.0
 41
0.0
 42
0.0
 10
425.60406494140625
 20
284.4495697021484375
 40
0.0
 41
0.0
 42
0.0
 10
427.39666748046875
 20
283.5715484619140625
 40
0.0
 41
0.0
 42
0.0
 10
429.214202880859375
 20
282.7464752197265625
 40
0.0
 41
0.0
 42
0.0
 10
431.0562744140625
 20
281.97760009765625
 40
0.0
 41
0.0
 42
0.0
 10
432.922119140625
 20
281.268402099609375
 40
0.0
 41
0.0
 42
0.0
 10
434.810394287109375
 20
280.6214141845703125
 40
0.0
 41
0.0
 42
0.0
 10
436.719757080078125
 20
280.0396270751953125
 40
0.0
 41
0.0
 42
0.0
 10
438.648590087890625
 20
279.52593994140625
 40
0.0
 41
0.0
 42
0.0
 10
440.5948486328125
 20
279.0830230712890625
 40
0.0
 41
0.0
 42
0.0
 10
442.556365966796875
 20
278.71331787109375
 40
0.0
 41
0.0
 42
0.0
 10
444.530548095703125
 20
278.418914794921875
 40
0.0
 41
0.0
 42
0.0
 10
446.514678955078125
 20
278.201568603515625
 40
0.0
 41
0.0
 42
0.0
 10
448.505859375
 20
278.06256103515625
 40
0.0
 41
0.0
 42
0.0
 10
450.5009765625
 20
278.0027923583984375
 40
0.0
 41
0.0
 42
0.0
 10
452.49688720703125
 20
278.022613525390625
 40
0.0
 41
0.0
 42
0.0
 10
454.490447998046875
 20
278.121917724609375
 40
0.0
 41
0.0
 42
0.0
 10
456.478515625
 20
278.3001708984375
 40
0.0
 41
0.0
 42
0.0
 10
458.45806884765625
 20
278.5563507080078125
 40
0.0
 41
0.0
 42
0.0
 10
460.42620849609375
 20
278.888702392578125
 40
0.0
 41
0.0
 42
0.0
 10
462.380401611328125
 20
279.2953033447265625
 40
0.0
 41
0.0
 42
0.0
 10
464.3182373046875
 20
279.7738800048828125
 40
0.0
 41
0.0
 42
0.0
 10
466.237579345703125
 20
280.3218536376953125
 40
0.0
 41
0.0
 42
0.0
 10
468.136566162109375
 20
280.9367828369140625
 40
0.0
 41
0.0
 42
0.0
 10
470.013671875
 20
281.61553955078125
 40
0.0
 41
0.0
 42
0.0
 10
471.86773681640625
 20
282.3549957275390625
 40
0.0
 41
0.0
 42
0.0
 10
473.69775390625
 20
283.1520233154296875
 40
0.0
 41
0.0
 42
0.0
 10
475.5028076171875
 20
284.004180908203125
 40
0.0
 41
0.0
 42
0.0
 10
477.28253173828125
 20
284.9080352783203125
 40
0.0
 41
0.0
 42
0.0
 10
479.036590576171875
 20
285.8607635498046875
 40
0.0
 41
0.0
 42
0.0
 10
480.7647705078125
 20
286.859649658203125
 40
0.0
 41
0.0
 42
0.0
 10
482.467010498046875
 20
287.9021148681640625
 40
0.0
 41
0.0
 42
0.0
 10
484.143707275390625
 20
288.985260009765625
 40
0.0
 41
0.0
 42
0.0
 10
485.794891357421875
 20
290.1069488525390625
 40
0.0
 41
0.0
 42
0.0
 10
487.42071533203125
 20
291.2649688720703125
 40
0.0
 41
0.0
 42
0.0
 10
489.021881103515625
 20
292.45697021484375
 40
0.0
 41
0.0
 42
0.0
 10
490.598724365234375
 20
293.680938720703125
 40
0.0
 41
0.0
 42
0.0
 10
492.1517333984375
 20
294.93499755859375
 40
0.0
 41
0.0
 42
0.0
 10
493.68145751953125
 20
296.217376708984375
 40
0.0
 41
0.0
 42
0.0
 10
495.1884765625
 20
297.5263671875
 40
0.0
 41
0.0
 42
0.0
 10
496.6732177734375
 20
298.8605499267578125
 40
0.0
 41
0.0
 42
0.0
 10
498.13623046875
 20
300.2185821533203125
 40
0.0
 41
0.0
 42
0.0
 10
499.578277587890625
 20
301.5988311767578125
 40
0.0
 41
0.0
 42
0.0
 10
501.0
 20
303.0
 40
0.0
 41
0.0
 42
0.0
  0
LWPOLYLINE
  5
27
330
F
100
AcDbEntity
  8
0
  6
ByLayer
420
5025616
 48
1.0
 60
0
370
-1
100
AcDbPolyline
 90
80
 70
0
 43
0.0
 38
0.0
 39
0.0
210
0.0
220
0.0
230
1.0
 10
21.0
 20
223.0
 40
0.0
 41
0.0
 42
0.0
 10
21.0382766723632813
 20
224.988555908203125
 40
0.0
 41
0.0
 42
0.0
 10
21.1544837951660156
 20
226.974090576171875
 40
0.0
 41
0.0
 42
0.0
 10
21.3489112854003906
 20
228.9534912109375
 40
0.0
 41
0.0
 42
0.0
 10
21.6215763092041016
 20
230.92364501953125
 40
0.0
 41
0.0
 42
0.0
 10
21.9729785919189453
 20
232.88128662109375
 40
0.0
 41
0.0
 42
0.0
 10
22.4020919799804688
 20
234.8233642578125
 40
0.0
 41
0.0
 42
0.0
 10
22.9086570739746094
 20
236.7467041015625
 40
0.0
 41
0.0
 42
0.0
 10
23.4920101165771484
 20
238.648162841796875
 40
0.0
 41
0.0
 42
0.0
 10
24.1509284973144531
 20
240.5247802734375
 40
0.0
 41
0.0
 42
0.0
 10
24.88470458984375
 20
242.373382568359375
 40
0.0
 41
0.0
 42
0.0
 10
25.6917343139648438
 20
244.19122314453125
 40
0.0
 41
0.0
 42
0.0
 10
26.5708217620849609
 20
245.975341796875
 40
0.0
 41
0.0
 42
0.0
 10
27.5204105377197266
 20
247.722930908203125
 40
0.0
 41
0.0
 42
0.0
 10
28.5386772155761719
 20
249.431427001953125
 40
0.0
 41
0.0
 42
0.0
 10
29.6243362426757813
 20
251.097930908203125
 40
0.0
 41
0.0
 42
0.0
 10
30.7750473022460938
 20
252.720184326171875
 40
0.0
 41
0.0
 42
0.0
 10
31.9892654418945313
 20
254.29547119140625
 40
0.0
 41
0.0
 42
0.0
 10
33.2648849487304688
 20
255.8214569091796875
 40
0.0
 41
0.0
 42
0.0
 10
34.5996818542480469
 20
257.29595947265625
 40
0.0
 41
0.0
 42
0.0
 10
35.9919929504394531
 20
258.716278076171875
 40
0.0
 41
0.0
 42
0.0
 10
37.4391975402832031
 20
260.08062744140625
 40
0.0
 41
0.0
 42
0.0
 10
38.9391632080078125
 20
261.386749267578125
 40
0.0
 41
0.0
 42
0.0
 10
40.4897804260253906
 20
262.632293701171875
 40
0.0
 41
0.0
 42
0.0
 10
42.0883750915527344
 20
263.8156585693359375
 40
0.0
 41
0.0
 42
0.0
 10
43.7327156066894531
 20
264.9345855712890625
 40
0.0
 41
0.0
 42
0.0
 10
45.420196533203125
 20
265.9873199462890625
 40
0.0
 41
0.0
 42
0.0
 10
47.14813232421875
 20
266.97222900390625
 40
0.0
 41
0.0
 42
0.0
 10
48.9141082763671875
 20
267.8871917724609375
 40
0.0
 41
0.0
 42
0.0
 10
50.7150688171386719
 20
268.7312164306640625
 40
0.0
 41
0.0
 42
0.0
 10
52.5484657287597656
 20
269.50225830078125
 40
0.0
 41
0.0
 42
0.0
 10
54.4111557006835938
 20
270.1995391845703125
 40
0.0
 41
0.0
 42
0.0
 10
56.3003997802734375
 20
270.8213348388671875
 40
0.0
 41
0.0
 42
0.0
 10
58.2129478454589844
 20
271.3672332763671875
 40
0.0
 41
0.0
 42
0.0
 10
60.1459236145019531
 20
271.835662841796875
 40
0.0
 41
0.0
 42
0.0
 10
62.0960350036621094
 20
272.2266693115234375
 40
0.0
 41
0.0
 42
0.0
 10
64.0602149963378906
 20
272.539398193359375
 40
0.0
 41
0.0
 42
0.0
 10
66.035308837890625
 20
272.7736358642578125
 40
0.0
 41
0.0
 42
0.0
 10
68.018096923828125
 20
272.9296112060546875
 40
0.0
 41
0.0
 42
0.0
 10
70.0055007934570313
 20
273.0075225830078125
 40
0.0
 41
0.0
 42
0.0
 10
71.9944534301757813
 20
273.0075225830078125
 40
0.0
 41
0.0
 42
0.0
 10
73.9818572998046875
 20
272.9296112060546875
 40
0.0
 41
0.0
 42
0.0
 10
75.9646530151367188
 20
272.7736358642578125
 40
0.0
 41
0.0
 42
0.0
 10
77.9397430419921875
 20
272.539398193359375
 40
0.0
 41
0.0
 42
0.0
 10
79.9039382934570313
 20
272.2266845703125
 40
0.0
 41
0.0
 42
0.0
 10
81.8540420532226563
 20
271.8356781005859375
 40
0.0
 41
0.0
 42
0.0
 10
83.7870254516601563
 20
271.3672332763671875
 40
0.0
 41
0.0
 42
0.0
 10
85.6995697021484375
 20
270.8213348388671875
 40
0.0
 41
0.0
 42
0.0
 10
87.58880615234375
 20
270.199554443359375
 40
0.0
 41
0.0
 42
0.0
 10
89.4514923095703125
 20
269.5022735595703125
 40
0.0
 41
0.0
 42
0.0
 10
91.2848892211914063
 20
268.731231689453125
 40
0.0
 41
0.0
 42
0.0
 10
93.0858535766601563
 20
267.88720703125
 40
0.0
 41
0.0
 42
0.0
 10
94.8518295288085938
 20
266.972259521484375
 40
0.0
 41
0.0
 42
0.0
 10
96.57977294921875
 20
265.987335205078125
 40
0.0
 41
0.0
 42
0.0
 10
98.2672500610351563
 20
264.934600830078125
 40
0.0
 41
0.0
 42
0.0
 10
99.911590576171875
 20
263.815673828125
 40
0.0
 41
0.0
 42
0.0
 10
101.5101776123046875
 20
262.63232421875
 40
0.0
 41
0.0
 42
0.0
 10
103.0608062744140625
 20
261.3867645263671875
 40
0.0
 41
0.0
 42
0.0
 10
104.5607757568359375
 20
260.0806427001953125
 40
0.0
 41
0.0
 42
0.0
 10
106.0079803466796875
 20
258.7162933349609375
 40
0.0
 41
0.0
 42
0.0
 10
107.400299072265625
 20
257.295989990234375
 40
0.0
 41
0.0
 42
0.0
 10
108.7350921630859375
 20
255.8214569091796875
 40
0.0
 41
0.0
 42
0.0
 10
110.010711669921875
 20
254.295501708984375
 40
0.0
 41
0.0
 42
0.0
 10
111.2249298095703125
 20
252.7201995849609375
 40
0.0
 41
0.0
 42
0.0
 10
112.375640869140625
 20
251.0979461669921875
 40
0.0
 41
0.0
 42
0.0
 10
113.4613037109375
 20
249.43145751953125
 40
0.0
 41
0.0
 42
0.0
 10
114.4795684814453125
 20
247.7229461669921875
 40
0.0
 41
0.0
 42
0.0
 10
115.4291610717773438
 20
245.975372314453125
 40
0.0
 41
0.0
 42
0.0
 10
116.3082427978515625
 20
244.191253662109375
 40
0.0
 41
0.0
 42
0.0
 10
117.1152801513671875
 20
242.3734130859375
 40
0.0
 41
0.0
 42
0.0
 10
117.8490524291992188
 20
240.524810791015625
 40
0.0
 41
0.0
 42
0.0
 10
118.5079803466796875
 20
238.648193359375
 40
0.0
 41
0.0
 42
0.0
 10
119.0913314819335938
 20
236.746734619140625
 40
0.0
 41
0.0
 42
0.0
 10
119.597900390625
 20
234.823394775390625
 40
0.0
 41
0.0
 42
0.0
 10
120.0270156860351563
 20
232.881317138671875
 40
0.0
 41
0.0
 42
0.0
 10
120.3784027099609375
 20
230.923675537109375
 40
0.0
 41
0.0
 42
0.0
 10
120.651092529296875
 20
228.953521728515625
 40
0.0
 41
0.0
 42
0.0
 10
120.8455123901367188
 20
226.97412109375
 40
0.0
 41
0.0
 42
0.0
 10
120.9617156982421875
 20
224.98858642578125
 40
0.0
 41
0.0
 42
0.0
 10
120.9999923706054688
 20
223.0
 40
0.0
 41
0.0
 42
0.0
  0
HATCH
  5
28
330
F
100
AcDbEntity
  8
0
  6
ByLayer
420
16740419
 48
1.0
 60
0
370
-1
100
AcDbHatch
 30
0.0
210
0.0
220
0.0
230
1.0
  2
SOLID
 70
1
 71
0
 91
1
 92
2
 72
0
 73
1
 93
41
 10
206.0
 20
243.0
 10
276.0
 20
243.0
 10
276.0
 20
243.0
 10
276.9754516100806541
 20
242.9039264020161681
 10
277.9134171618254641
 20
242.6193976625564233
 10
278.7778511650980136
 20
242.157348061512721
 10
279.5355339059327662
 20
241.5355339059327093
 10
280.157348061512721
 20
240.7778511650980136
 10
280.6193976625564233
 20
239.9134171618254641
 10
280.9039264020161681
 20
238.9754516100806541
 10
281.0
 20
238.0
 10
281.0
 20
198.0
 10
281.0
 20
198.0
 10
280.9039264020161681
 20
197.0245483899193459
 10
280.6193976625564233
 20
196.0865828381745359
 10
280.157348061512721
 20
195.2221488349019864
 10
279.5355339059327662
 20
194.4644660940672907
 10
278.7778511650980136
 20
193.842651938487279
 10
277.9134171618254641
 20
193.3806023374435767
 10
276.9754516100806541
 20
193.0960735979838319
 10
276.0
 20
193.0
 10
206.0
 20
193.0
 10
206.0
 20
193.0
 10
205.0245483899193459
 20
193.0960735979838319
 10
204.0865828381745644
 20
193.3806023374435767
 10
203.2221488349019864
 20
193.842651938487279
 10
202.4644660940672622
 20
194.4644660940672338
 10
201.842651938487279
 20
195.2221488349019864
 10
201.3806023374435767
 20
196.0865828381745359
 10
201.0960735979838603
 20
197.0245483899193459
 10
201.0
 20
198.0
 10
201.0
 20
238.0
 10
201.0
 20
238.0
 10
201.0960735979838603
 20
238.9754516100806541
 10
201.3806023374435767
 20
239.9134171618254641
 10
201.842651938487279
 20
240.7778511650980136
 10
202.4644660940672622
 20
241.5355339059327093
 10
203.2221488349019864
 20
242.157348061512721
 10
204.0865828381745359
 20
242.6193976625564233
 10
205.0245483899193459
 20
242.9039264020161681
 10
206.0
 20
243.0
 97
0
 75
0
 76
1
 47
0.0
 98
0
  0
LWPOLYLINE
  5
29
330
F
100
AcDbEntity
  8
0
  6
ByLayer
420
16740419
 48
1.0
 60
0
370
-1
100
AcDbPolyline
 90
41
 70
1
 43
0.0
 38
0.0
 39
0.0
210
0.0
220
0.0
230
1.0
 10
206.0
 20
243.0
 40
0.0
 41
0.0
 42
0.0
 10
276.0
 20
243.0
 40
0.0
 41
0.0
 42
0.0
 10
276.0
 20
243.0
 40
0.0
 41
0.0
 42
0.0
 10
276.9754516100806541
 20
242.9039264020161681
 40
0.0
 41
0.0
 42
0.0
 10
277.9134171618254641
 20
242.6193976625564233
 40
0.0
 41
0.0
 42
0.0
 10
278.7778511650980136
 20
242.157348061512721
 40
0.0
 41
0.0
 42
0.0
 10
279.5355339059327662
 20
241.5355339059327093
 40
0.0
 41
0.0
 42
0.0
 10
280.157348061512721
 20
240.7778511650980136
 40
0.0
 41
0.0
 42
0.0
 10
280.6193976625564233
 20
239.9134171618254641
 40
0.0
 41
0.0
 42
0.0
 10
280.9039264020161681
 20
238.9754516100806541
 40
0.0
 41
0.0
 42
0.0
 10
281.0
 20
238.0
 40
0.0
 41
0.0
 42
0.0
 10
281.0
 20
198.0
 40
0.0
 41
0.0
 42
0.0
 10
281.0
 20
198.0
 40
0.0
 41
0.0
 42
0.0
 10
280.9039264020161681
 20
197.0245483899193459
 40
0.0
 41
0.0
 42
0.0
 10
280.6193976625564233
 20
196.0865828381745359
 40
0.0
 41
0.0
 42
0.0
 10
280.157348061512721
 20
195.2221488349019864
 40
0.0
 41
0.0
 42
0.0
 10
279.5355339059327662
 20
194.4644660940672907
 40
0.0
 41
0.0
 42
0.0
 10
278.7778511650980136
 20
193.842651938487279
 40
0.0
 41
0.0
 42
0.0
 10
277.9134171618254641
 20
193.3806023374435767
 40
0.0
 41
0.0
 42
0.0
 10
276.9754516100806541
 20
193.0960735979838319
 40
0.0
 41
0.0
 42
0.0
 10
276.0
 20
193.0
 40
0.0
 41
0.0
 42
0.0
 10
206.0
 20
193.0
 40
0.0
 41
0.0
 42
0.0
 10
206.0
 20
193.0
 40
0.0
 41
0.0
 42
0.0
 10
205.0245483899193459
 20
193.0960735979838319
 40
0.0
 41
0.0
 42
0.0
 10
204.0865828381745644
 20
193.3806023374435767
 40
0.0
 41
0.0
 42
0.0
 10
203.2221488349019864
 20
193.842651938487279
 40
0.0
 41
0.0
 42
0.0
 10
202.4644660940672622
 20
194.4644660940672338
 40
0.0
 41
0.0
 42
0.0
 10
201.842651938487279
 20
195.2221488349019864
 40
0.0
 41
0.0
 42
0.0
 10
201.3806023374435767
 20
196.0865828381745359
 40
0.0
 41
0.0
 42
0.0
 10
201.0960735979838603
 20
197.0245483899193459
 40
0.0
 41
0.0
 42
0.0
 10
201.0
 20
198.0
 40
0.0
 41
0.0
 42
0.0
 10
201.0
 20
238.0
 40
0.0
 41
0.0
 42
0.0
 10
201.0
 20
238.0
 40
0.0
 41
0.0
 42
0.0
 10
201.0960735979838603
 20
238.9754516100806541
 40
0.0
 41
0.0
 42
0.0
 10
201.3806023374435767
 20
239.9134171618254641
 40
0.0
 41
0.0
 42
0.0
 10
201.842651938487279
 20
240.7778511650980136
 40
0.0
 41
0.0
 42
0.0
 10
202.4644660940672622
 20
241.5355339059327093
 40
0.0
 41
0.0
 42
0.0
 10
203.2221488349019864
 20
242.157348061512721
 40
0.0
 41
0.0
 42
0.0
 10
204.0865828381745359
 20
242.6193976625564233
 40
0.0
 41
0.0
 42
0.0
 10
205.0245483899193459
 20
242.9039264020161681
 40
0.0
 41
0.0
 42
0.0
 10
206.0
 20
243.0
 40
0.0
 41
0.0
 42
0.0
  0
TEXT
  5
2A
330
F
100
AcDbEntity
  8
0
  6
ByLayer
420
16777215
 48
1.0
 60
0
370
-1
100
AcDbText
 39
0.0
 10
211.0
 20
214.5
 30
0.0
 40
14.0
  1
Group
 50
0.0
 41
1.0
 51
0.0
  7
Standard
 71
0
 72
0
 11
0.0
 21
0.0
 31
0.0
210
0.0
220
0.0
230
1.0
100
AcDbText
 73
0
  0
HATCH
  5
2B
330
F
100
AcDbEntity
  8
0
  6
ByLayer
420
6056896
 48
1.0
 60
0
370
-1
100
AcDbHatch
 30
0.0
210
0.0
220
0.0
230
1.0
  2
SOLID
 70
1
 71
0
 91
1
 92
2
 72
0
 73
1
 93
4
 10
294.4726722165038382
 20
224.3775642706553413
 10
333.1097052680665911
 20
214.0248024665544904
 10
322.7569434639657402
 20
175.3877694149917943
 10
284.1199104124029873
 20
185.7405312190925883
 97
0
 75
0
 76
1
 47
0.0
 98
0
  0
LWPOLYLINE
  5
2C
330
F
100
AcDbEntity
  8
0
  6
ByLayer
420
6056896
 48
1.0
 60
0
370
-1
100
AcDbPolyline
 90
4
 70
1
 43
0.0
 38
0.0
 39
0.0
210
0.0
220
0.0
230
1.0
 10
294.4726722165038382
 20
224.3775642706553413
 40
0.0
 41
0.0
 42
0.0
 10
333.1097052680665911
 20
214.0248024665544904
 40
0.0
 41
0.0
 42
0.0
 10
322.7569434639657402
 20
175.3877694149917943
 40
0.0
 41
0.0
 42
0.0
 10
284.1199104124029873
 20
185.7405312190925883
 40
0.0
 41
0.0
 42
0.0
  0
TEXT
  5
2D
330
F
100
AcDbEntity
  8
0
  6
ByLayer
420
3355443
 48
1.0
 60
0
370
-1
100
AcDbText
 39
0.0
 10
21.0
 20
135.5
 30
0.0
 40
24.0
  1
SVG Text
 50
0.0
 41
1.0
 51
0.0
  7
Standard
 71
0
 72
0
 11
0.0
 21
0.0
 31
0.0
210
0.0
220
0.0
230
1.0
100
AcDbText
 73
0
  0
TEXT
  5
2E
330
F
100
AcDbEntity
  8
0
  6
ByLayer
420
6710886
 48
1.0
 60
0
370
-1
100
AcDbText
 39
0.0
 10
21.0
 20
104.5
 30
0.0
 40
14.0
  1
Italic smaller text
 50
0.0
 41
1.0
 51
0.0
  7
Standard
 71
0
 72
0
 11
0.0
 21
0.0
 31
0.0
210
0.0
220
0.0
230
1.0
100
AcDbText
 73
0
  0
HATCH
  5
2F
330
F
100
AcDbEntity
  8
0
  6
ByLayer
420
6717162
 48
1.0
 60
0
370
-1
100
AcDbHatch
 30
0.0
210
0.0
220
0.0
230
1.0
  2
SOLID
 70
1
 71
0
 91
1
 92
2
 72
0
 73
1
 93
41
 10
31.0
 20
83.0
 10
161.0
 20
83.0
 10
161.0
 20
83.0
 10
162.9509032201612797
 20
82.8078528040322794
 10
164.8268343236508997
 20
82.2387953251128465
 10
166.5557023301960271
 20
81.3146961230254419
 10
168.0710678118654755
 20
80.0710678118654755
 10
169.3146961230254419
 20
78.5557023301960271
 10
170.2387953251128749
 20
76.8268343236508713
 10
170.8078528040323079
 20
74.9509032201613081
 10
171.0
 20
73.0
 10
171.0
 20
43.0
 10
171.0
 20
43.0
 10
170.8078528040323079
 20
41.0490967798386919
 10
170.2387953251128749
 20
39.1731656763491287
 10
169.3146961230254419
 20
37.4442976698039729
 10
168.0710678118654755
 20
35.9289321881345245
 10
166.5557023301960271
 20
34.6853038769745581
 10
164.8268343236508997
 20
33.7612046748871535
 10
162.9509032201612797
 20
33.1921471959677206
 10
161.0
 20
33.0
 10
31.0
 20
33.0
 10
31.0
 20
33.0
 10
29.0490967798387167
 20
33.1921471959677206
 10
27.1731656763491038
 20
33.7612046748871535
 10
25.44429766980398
 20
34.6853038769745581
 10
23.9289321881345245
 20
35.9289321881345245
 10
22.6853038769745474
 20
37.4442976698039729
 10
21.7612046748871322
 20
39.1731656763491287
 10
21.1921471959676957
 20
41.0490967798386919
 10
21.0
 20
43.0
 10
21.0
 20
73.0
 10
21.0
 20
73.0
 10
21.1921471959676957
 20
74.9509032201613081
 10
21.7612046748871322
 20
76.8268343236508713
 10
22.6853038769745439
 20
78.5557023301960271
 10
23.9289321881345245
 20
80.0710678118654755
 10
25.44429766980398
 20
81.3146961230254419
 10
27.1731656763490967
 20
82.2387953251128465
 10
29.0490967798387132
 20
82.8078528040322794
 10
30.9999999999999964
 20
83.0
 97
0
 75
0
 76
1
 47
0.0
 98
0
  0
LWPOLYLINE
  5
30
330
F
100
AcDbEntity
  8
0
  6
ByLayer
420
6717162
 48
1.0
 60
0
370
-1
100
AcDbPolyline
 90
41
 70
1
 43
0.0
 38
0.0
 39
0.0
210
0.0
220
0.0
230
1.0
 10
31.0
 20
83.0
 40
0.0
 41
0.0
 42
0.0
 10
161.0
 20
83.0
 40
0.0
 41
0.0
 42
0.0
 10
161.0
 20
83.0
 40
0.0
 41
0.0
 42
0.0
 10
162.9509032201612797
 20
82.8078528040322794
 40
0.0
 41
0.0
 42
0.0
 10
164.8268343236508997
 20
82.2387953251128465
 40
0.0
 41
0.0
 42
0.0
 10
166.5557023301960271
 20
81.3146961230254419
 40
0.0
 41
0.0
 42
0.0
 10
168.0710678118654755
 20
80.0710678118654755
 40
0.0
 41
0.0
 42
0.0
 10
169.3146961230254419
 20
78.5557023301960271
 40
0.0
 41
0.0
 42
0.0
 10
170.2387953251128749
 20
76.8268343236508713
 40
0.0
 41
0.0
 42
0.0
 10
170.8078528040323079
 20
74.9509032201613081
 40
0.0
 41
0.0
 42
0.0
 10
171.0
 20
73.0
 40
0.0
 41
0.0
 42
0.0
 10
171.0
 20
43.0
 40
0.0
 41
0.0
 42
0.0
 10
171.0
 20
43.0
 40
0.0
 41
0.0
 42
0.0
 10
170.8078528040323079
 20
41.0490967798386919
 40
0.0
 41
0.0
 42
0.0
 10
170.2387953251128749
 20
39.1731656763491287
 40
0.0
 41
0.0
 42
0.0
 10
169.3146961230254419
 20
37.4442976698039729
 40
0.0
 41
0.0
 42
0.0
 10
168.0710678118654755
 20
35.9289321881345245
 40
0.0
 41
0.0
 42
0.0
 10
166.5557023301960271
 20
34.6853038769745581
 40
0.0
 41
0.0
 42
0.0
 10
164.8268343236508997
 20
33.7612046748871535
 40
0.0
 41
0.0
 42
0.0
 10
162.9509032201612797
 20
33.1921471959677206
 40
0.0
 41
0.0
 42
0.0
 10
161.0
 20
33.0
 40
0.0
 41
0.0
 42
0.0
 10
31.0
 20
33.0
 40
0.0
 41
0.0
 42
0.0
 10
31.0
 20
33.0
 40
0.0
 41
0.0
 42
0.0
 10
29.0490967798387167
 20
33.1921471959677206
 40
0.0
 41
0.0
 42
0.0
 10
27.1731656763491038
 20
33.7612046748871535
 40
0.0
 41
0.0
 42
0.0
 10
25.44429766980398
 20
34.6853038769745581
 40
0.0
 41
0.0
 42
0.0
 10
23.9289321881345245
 20
35.9289321881345245
 40
0.0
 41
0.0
 42
0.0
 10
22.6853038769745474
 20
37.4442976698039729
 40
0.0
 41
0.0
 42
0.0
 10
21.7612046748871322
 20
39.1731656763491287
 40
0.0
 41
0.0
 42
0.0
 10
21.1921471959676957
 20
41.0490967798386919
 40
0.0
 41
0.0
 42
0.0
 10
21.0
 20
43.0
 40
0.0
 41
0.0
 42
0.0
 10
21.0
 20
73.0
 40
0.0
 41
0.0
 42
0.0
 10
21.0
 20
73.0
 40
0.0
 41
0.0
 42
0.0
 10
21.1921471959676957
 20
74.9509032201613081
 40
0.0
 41
0.0
 42
0.0
 10
21.7612046748871322
 20
76.8268343236508713
 40
0.0
 41
0.0
 42
0.0
 10
22.6853038769745439
 20
78.5557023301960271
 40
0.0
 41
0.0
 42
0.0
 10
23.9289321881345245
 20
80.0710678118654755
 40
0.0
 41
0.0
 42
0.0
 10
25.44429766980398
 20
81.3146961230254419
 40
0.0
 41
0.0
 42
0.0
 10
27.1731656763490967
 20
82.2387953251128465
 40
0.0
 41
0.0
 42
0.0
 10
29.0490967798387132
 20
82.8078528040322794
 40
0.0
 41
0.0
 42
0.0
 10
30.9999999999999964
 20
83.0
 40
0.0
 41
0.0
 42
0.0
  0
HATCH
  5
31
330
F
100
AcDbEntity
  8
0
  6
ByLayer
420
16739179
 48
1.0
 60
0
370
-1
100
AcDbHatch
 30
0.0
210
0.0
220
0.0
230
1.0
  2
SOLID
 70
1
 71
0
 91
1
 92
2
 72
0
 73
1
 93
32
 10
311.0
 20
58.0
 10
310.4235584120968952
 20
52.1472903395161325
 10
308.7163859753385964
 20
46.5194970290473293
 10
305.9440883690763826
 20
41.3328930094119187
 10
302.2132034355964265
 20
36.7867965644036303
 10
297.6671069905880813
 20
33.0559116309236742
 10
292.4805029709526707
 20
30.2836140246613468
 10
286.8527096604838675
 20
28.5764415879031048
 10
281.0
 20
28.0
 10
275.1472903395161325
 20
28.5764415879031048
 10
269.5194970290473293
 20
30.2836140246613468
 10
264.3328930094119187
 20
33.0559116309236742
 10
259.7867965644035735
 20
36.7867965644036303
 10
256.0559116309236742
 20
41.3328930094119187
 10
253.2836140246614036
 20
46.5194970290473293
 10
251.5764415879031048
 20
52.1472903395161325
 10
251.0
 20
58.0
 10
251.5764415879031048
 20
63.8527096604838675
 10
253.2836140246614036
 20
69.4805029709526707
 10
256.0559116309236742
 20
74.6671069905880813
 10
259.7867965644035735
 20
79.2132034355964265
 10
264.3328930094119187
 20
82.9440883690763826
 10
269.5194970290472725
 20
85.7163859753385964
 10
275.1472903395161325
 20
87.4235584120968952
 10
281.0
 20
88.0
 10
286.8527096604838675
 20
87.4235584120968952
 10
292.4805029709527275
 20
85.7163859753385964
 10
297.6671069905880813
 20
82.9440883690763826
 10
302.2132034355964265
 20
79.2132034355964265
 10
305.9440883690763826
 20
74.6671069905880813
 10
308.7163859753385964
 20
69.4805029709527275
 10
310.4235584120968952
 20
63.8527096604838675
 97
0
 75
0
 76
1
 47
0.0
 98
0
  0
LWPOLYLINE
  5
32
330
F
100
AcDbEntity
  8
0
  6
ByLayer
420
16739179
 48
1.0
 60
0
370
-1
100
AcDbPolyline
 90
32
 70
1
 43
0.0
 38
0.0
 39
0.0
210
0.0
220
0.0
230
1.0
 10
311.0
 20
58.0
 40
0.0
 41
0.0
 42
0.0
 10
310.4235584120968952
 20
52.1472903395161325
 40
0.0
 41
0.0
 42
0.0
 10
308.7163859753385964
 20
46.5194970290473293
 40
0.0
 41
0.0
 42
0.0
 10
305.9440883690763826
 20
41.3328930094119187
 40
0.0
 41
0.0
 42
0.0
 10
302.2132034355964265
 20
36.7867965644036303
 40
0.0
 41
0.0
 42
0.0
 10
297.6671069905880813
 20
33.0559116309236742
 40
0.0
 41
0.0
 42
0.0
 10
292.4805029709526707
 20
30.2836140246613468
 40
0.0
 41
0.0
 42
0.0
 10
286.8527096604838675
 20
28.5764415879031048
 40
0.0
 41
0.0
 42
0.0
 10
281.0
 20
28.0
 40
0.0
 41
0.0
 42
0.0
 10
275.1472903395161325
 20
28.5764415879031048
 40
0.0
 41
0.0
 42
0.0
 10
269.5194970290473293
 20
30.2836140246613468
 40
0.0
 41
0.0
 42
0.0
 10
264.3328930094119187
 20
33.0559116309236742
 40
0.0
 41
0.0
 42
0.0
 10
259.7867965644035735
 20
36.7867965644036303
 40
0.0
 41
0.0
 42
0.0
 10
256.0559116309236742
 20
41.3328930094119187
 40
0.0
 41
0.0
 42
0.0
 10
253.2836140246614036
 20
46.5194970290473293
 40
0.0
 41
0.0
 42
0.0
 10
251.5764415879031048
 20
52.1472903395161325
 40
0.0
 41
0.0
 42
0.0
 10
251.0
 20
58.0
 40
0.0
 41
0.0
 42
0.0
 10
251.5764415879031048
 20
63.8527096604838675
 40
0.0
 41
0.0
 42
0.0
 10
253.2836140246614036
 20
69.4805029709526707
 40
0.0
 41
0.0
 42
0.0
 10
256.0559116309236742
 20
74.6671069905880813
 40
0.0
 41
0.0
 42
0.0
 10
259.7867965644035735
 20
79.2132034355964265
 40
0.0
 41
0.0
 42
0.0
 10
264.3328930094119187
 20
82.9440883690763826
 40
0.0
 41
0.0
 42
0.0
 10
269.5194970290472725
 20
85.7163859753385964
 40
0.0
 41
0.0
 42
0.0
 10
275.1472903395161325
 20
87.4235584120968952
 40
0.0
 41
0.0
 42
0.0
 10
281.0
 20
88.0
 40
0.0
 41
0.0
 42
0.0
 10
286.8527096604838675
 20
87.4235584120968952
 40
0.0
 41
0.0
 42
0.0
 10
292.4805029709527275
 20
85.7163859753385964
 40
0.0
 41
0.0
 42
0.0
 10
297.6671069905880813
 20
82.9440883690763826
 40
0.0
 41
0.0
 42
0.0
 10
302.2132034355964265
 20
79.2132034355964265
 40
0.0
 41
0.0
 42
0.0
 10
305.9440883690763826
 20
74.6671069905880813
 40
0.0
 41
0.0
 42
0.0
 10
308.7163859753385964
 20
69.4805029709527275
 40
0.0
 41
0.0
 42
0.0
 10
310.4235584120968952
 20
63.8527096604838675
 40
0.0
 41
0.0
 42
0.0
  0
LWPOLYLINE
  5
33
330
F
100
AcDbEntity
  8
0
  6
ByLayer
420
1402304
 48
1.0
 60
0
370
-1
100
AcDbPolyline
 90
4
 70
1
 43
0.0
 38
0.0
 39
0.0
210
0.0
220
0.0
230
1.0
 10
351.0
 20
203.0
 40
0.0
 41
0.0
 42
0.0
 10
451.0
 20
203.0
 40
0.0
 41
0.0
 42
0.0
 10
451.0
 20
123.0
 40
0.0
 41
0.0
 42
0.0
 10
351.0
 20
123.0
 40
0.0
 41
0.0
 42
0.0
  0
LWPOLYLINE
  5
34
330
F
100
AcDbEntity
  8
0
  6
ByLayer
420
12986408
 48
1.0
 60
0
370
-1
100
AcDbPolyline
 90
4
 70
1
 43
0.0
 38
0.0
 39
0.0
210
0.0
220
0.0
230
1.0
 10
381.0
 20
183.0
 40
0.0
 41
0.0
 42
0.0
 10
481.0
 20
183.0
 40
0.0
 41
0.0
 42
0.0
 10
481.0
 20
103.0
 40
0.0
 41
0.0
 42
0.0
 10
381.0
 20
103.0
 40
0.0
 41
0.0
 42
0.0
  0
LWPOLYLINE
  5
35
330
F
100
AcDbEntity
  8
0
  6
ByLayer
420
7951688
 48
1.0
 60
0
370
-1
100
AcDbPolyline
 90
4
 70
1
 43
0.0
 38
0.0
 39
0.0
210
0.0
220
0.0
230
1.0
 10
351.0
 20
83.0
 40
0.0
 41
0.0
 42
0.0
 10
471.0
 20
83.0
 40
0.0
 41
0.0
 42
0.0
 10
471.0
 20
33.0
 40
0.0
 41
0.0
 42
0.0
 10
351.0
 20
33.0
 40
0.0
 41
0.0
 42
0.0
  0
ENDSEC
  0
SECTION
  2
OBJECTS
  0
DICTIONARY
  5
1
330
0
100
AcDbDictionary
280
0
281
0
  3
ACAD_COLOR
350
0
  3
ACAD_GROUP
350
0
  3
ACAD_LAYOUT
350
0
  3
ACAD_MATERIAL
350
0
  3
ACAD_SORTENTS
350
0
  3
ACAD_MLEADERSTYLE
350
0
  3
ACAD_MLINESTYLE
350
0
  3
ACAD_TABLESTYLE
350
0
  3
ACAD_PLOTSETTINGS
350
0
  3
AcDbVariableDictionary
350
0
  3
ACAD_SCALELIST
350
0
  3
ACAD_VISUALSTYLE
350
0
  3
ACAD_FIELDLIST
350
0
  3
ACAD_IMAGE_DICT
350
0
  0
DICTIONARY
  5
0
330
1
100
AcDbDictionary
280
0
281
0
  0
DICTIONARY
  5
0
330
1
100
AcDbDictionary
280
0
281
0
  0
DICTIONARY
  5
0
330
1
100
AcDbDictionary
280
0
281
0
  0
DICTIONARY
  5
0
330
1
100
AcDbDictionary
280
0
281
0
  0
DICTIONARY
  5
0
330
1
100
AcDbDictionary
280
0
281
0
  0
DICTIONARY
  5
0
330
1
100
AcDbDictionary
280
0
281
0
  0
DICTIONARY
  5
0
330
1
100
AcDbDictionary
280
0
281
0
  0
DICTIONARY
  5
0
330
1
100
AcDbDictionary
280
0
281
0
  0
DICTIONARY
  5
0
330
1
100
AcDbDictionary
280
0
281
0
  0
DICTIONARY
  5
0
330
1
100
AcDbDictionary
280
0
281
0
  0
DICTIONARY
  5
0
330
1
100
AcDbDictionary
280
0
281
0
  0
DICTIONARY
  5
0
330
1
100
AcDbDictionary
280
0
281
0
  0
DICTIONARY
  5
0
330
1
100
AcDbDictionary
280
0
281
0
  0
DICTIONARY
  5
0
330
1
100
AcDbDictionary
280
0
281
0
  0
ENDSEC
  0
EOF
