  0
SECTION
  2
HEADER
  9
$ANGBASE
 50
0.0
  9
$ANGDIR
 70
1
  9
$AUNITS
 70
0
  9
$AUPREC
 70
0
  9
$ATTMODE
 70
1
  9
$DWGCODEPAGE
  3
ANSI_1252
  9
$TDCREATE
 40
2451545.0416666665114462
  9
$CECOLOR
 62
256
  9
$CELTSCALE
 40
1.0
  9
$CELWEIGHT
370
-1
  9
$CLAYER
  8
0
  9
$CELTYPE
  6
ByLayer
  9
$CMLJUST
 70
0
  9
$CMLSCALE
 40
20.0
  9
$CMLSTYLE
  2
Standard
  9
$DIMSTYLE
  2
Standard
  9
$LWDISPLAY
290
0
  9
$EXTNAMES
290
1
  9
$HANDSEED
  5
28
  9
$INSUNITS
 70
0
  9
$LUNITS
 70
2
  9
$LUPREC
 70
4
  9
$LTSCALE
 40
1.0
  9
$MIRRTEXT
 70
0
  9
$INSBASE
 10
0.0
 20
0.0
 30
0.0
  9
$SPLINESEGS
 70
8
  9
$PSLTSCALE
 70
1
  9
$PDMODE
 70
0
  9
$PDSIZE
 40
0.0
  9
$PLINEGEN
 70
0
  9
$TEXTSIZE
 40
0.2
  9
$TEXTSTYLE
  7
Standard
  9
$TDINDWG
 40
0.0
  9
$TDUCREATE
 40
2451545.0416666665114462
  9
$TDUUPDATE
 40
2451545.0416666665114462
  9
$TDUPDATE
 40
2451545.0416666665114462
  9
$ACADVER
  1
AC1018
  0
ENDSEC
  0
SECTION
  2
CLASSES
  0
CLASS
  1
ACDBDICTIONARYWDFLT
  2
AcDbDictionaryWithDefault
  3
ObjectDBX Classes
 90
32768
 91
0
280
0
281
0
  0
CLASS
  1
ACDBPLACEHOLDER
  2
AcDbPlaceHolder
  3
ObjectDBX Classes
 90
0
 91
0
280
0
281
0
  0
CLASS
  1
LAYOUT
  2
AcDbLayout
  3
ObjectDBX Classes
 90
0
 91
0
280
0
281
0
  0
CLASS
  1
DICTIONARYVAR
  2
AcDbDictionaryVar
  3
ObjectDBX Classes
 90
0
 91
0
280
0
281
0
  0
CLASS
  1
TABLESTYLE
  2
AcDbTableStyle
  3
ObjectDBX Classes
 90
4095
 91
0
280
0
281
0
  0
CLASS
  1
MATERIAL
  2
AcDbMaterial
  3
ObjectDBX Classes
 90
1153
 91
0
280
0
281
0
  0
CLASS
  1
VISUALSTYLE
  2
AcDbVisualStyle
  3
ObjectDBX Classes
 90
4095
 91
0
280
0
281
0
  0
CLASS
  1
SCALE
  2
AcDbScale
  3
ObjectDBX Classes
 90
1153
 91
0
280
0
281
0
  0
CLASS
  1
MLEADERSTYLE
  2
AcDbMLeaderStyle
  3
ObjectDBX Classes
 90
4095
 91
0
280
0
281
0
  0
CLASS
  1
CELLSTYLEMAP
  2
AcDbCellStyleMap
  3
ObjectDBX Classes
 90
1152
 91
0
280
0
281
0
  0
CLASS
  1
EXACXREFPANELOBJECT
  2
ExAcXREFPanelObject
  3
ObjectDBX Classes
 90
1025
 91
0
280
0
281
0
  0
CLASS
  1
NPOCOLLECTION
  2
AcDbImpNonPersistentObjectsCollection
  3
ObjectDBX Classes
 90
1153
 91
0
280
0
281
0
  0
CLASS
  1
LAYER_INDEX
  2
AcDbLayerIndex
  3
ObjectDBX Classes
 90
0
 91
0
280
0
281
0
  0
CLASS
  1
SPATIAL_INDEX
  2
AcDbSpatialIndex
  3
ObjectDBX Classes
 90
0
 91
0
280
0
281
0
  0
CLASS
  1
IDBUFFER
  2
AcDbIdBuffer
  3
ObjectDBX Classes
 90
32768
 91
0
280
0
281
0
  0
CLASS
  1
ACDBSECTIONVIEWSTYLE
  2
AcDbSectionViewStyle
  3
ObjectDBX Classes
 90
1025
 91
0
280
0
281
0
  0
CLASS
  1
ACDBDETAILVIEWSTYLE
  2
AcDbDetailViewStyle
  3
ObjectDBX Classes
 90
1025
 91
0
280
0
281
0
  0
CLASS
  1
MESH
  2
AcDbSubDMesh
  3
ObjectDBX Classes
 90
0
 91
0
280
0
281
1
  0
CLASS
  1
SORTENTSTABLE
  2
AcDbSortentsTable
  3
ObjectDBX Classes
 90
0
 91
0
280
0
281
0
  0
CLASS
  1
ACDB_TEXTOBJECTCONTEXTDATA_CLASS
  2
AcDbTextObjectContextData
  3
ObjectDBX Classes
 90
1153
 91
0
280
0
281
0
  0
CLASS
  1
WIPEOUT
  2
AcDbWipeout
  3
WipeOut
 90
32895
 91
0
280
0
281
1
  0
CLASS
  1
WIPEOUTVARIABLES
  2
AcDbWipeoutVariables
  3
WipeOut
 90
32768
 91
0
280
0
281
0
  0
CLASS
  1
DIMASSOC
  2
AcDbDimAssoc
  3
AcDbDimAssoc
 90
0
 91
0
280
0
281
0
  0
CLASS
  1
ACAD_TABLE
  2
AcDbTable
  3
ObjectDBX Classes
 90
1025
 91
0
280
0
281
1
  0
CLASS
  1
TABLECONTENT
  2
AcDbTableContent
  3
ObjectDBX Classes
 90
1152
 91
0
280
0
281
0
  0
CLASS
  1
TABLEGEOMETRY
  2
AcDbTableGeometry
  3
ObjectDBX Classes
 90
1152
 91
0
280
0
281
0
  0
CLASS
  1
IMAGE
  2
AcDbRasterImage
  3
ISM
 90
32895
 91
0
280
0
281
1
  0
CLASS
  1
IMAGEDEF
  2
AcDbRasterImageDef
  3
ISM
 90
0
 91
0
280
0
281
0
  0
CLASS
  1
IMAGEDEF_REACTOR
  2
AcDbRasterImageDefReactor
  3
ISM
 90
1
 91
0
280
0
281
0
  0
CLASS
  1
DBCOLOR
  2
AcDbColor
  3
ObjectDBX Classes
 90
0
 91
0
280
0
281
0
  0
CLASS
  1
GEODATA
  2
AcDbGeoData
  3
ObjectDBX Classes
 90
4095
 91
0
280
0
281
0
  0
CLASS
  1
MULTILEADER
  2
AcDbMLeader
  3
ObjectDBX Classes
 90
1025
 91
0
280
0
281
0
  0
CLASS
  1
PDFUNDERLAY
  2
AcDbPdfReference
  3
ObjectDBX Classes
 90
4095
 91
0
280
0
281
1
  0
CLASS
  1
PDFDEFINITION
  2
AcDbPdfDefinition
  3
ObjectDBX Classes
 90
1153
 91
0
280
0
281
0
  0
CLASS
  1
RASTERVARIABLES
  2
AcDbRasterVariables
  3
ISM
 90
0
 91
0
280
0
281
0
  0
CLASS
  1
SPATIAL_FILTER
  2
AcDbSpatialFilter
  3
ObjectDBX Classes
 90
0
 91
0
280
0
281
0
  0
CLASS
  1
ACDB_MLEADEROBJECTCONTEXTDATA_CLASS
  2
AcDbMLeaderObjectContextData
  3
ObjectDBX Classes
 90
1025
 91
0
280
0
281
0
  0
CLASS
  1
PLOTSETTINGS
  2
AcDbPlotSettings
  3
ObjectDBX Classes
 90
0
 91
0
280
0
281
0
  0
CLASS
  1
FIELD
  2
AcDbField
  3
ObjectDBX Classes
 90
1152
 91
0
280
0
281
0
  0
CLASS
  1
FIELDLIST
  2
AcDbFieldList
  3
ObjectDBX Classes
 90
1152
 91
0
280
0
281
0
  0
CLASS
  1
ACDB_MTEXTATTRIBUTEOBJECTCONTEXTDATA_CLASS
  2
AcDbMTextAttributeObjectContextData
  3
ObjectDBX Classes
 90
1153
 91
0
280
0
281
0
  0
CLASS
  1
ACDB_BLKREFOBJECTCONTEXTDATA_CLASS
  2
AcDbBlkRefObjectContextData
  3
ObjectDBX Classes
 90
1153
 91
0
280
0
281
0
  0
ENDSEC
  0
SECTION
  2
TABLES
  0
TABLE
  2
VPORT
  5
18
330
0
100
AcDbSymbolTable
 70
1
  0
VPORT
  5
26
330
18
100
AcDbSymbolTableRecord
100
AcDbViewportTableRecord
  2
*Active
 70
0
 10
0.0
 20
0.0
 11
1.0
 21
1.0
 12
0.0
 22
0.0
 13
0.0
 23
0.0
 14
0.5
 24
0.5
 15
10.0
 25
10.0
 16
0.0
 26
0.0
 36
1.0
 17
0.0
 27
0.0
 37
0.0
 40
10.0
 41
1.0
 75
0
 76
1
  0
ENDTAB
  0
TABLE
  2
LTYPE
  5
14
330
0
100
AcDbSymbolTable
 70
3
  0
LTYPE
  5
19
330
14
100
AcDbSymbolTableRecord
100
AcDbLinetypeTableRecord
  2
ByLayer
 70
0
 72
0
 73
0
 40
0.0
  0
LTYPE
  5
1A
330
14
100
AcDbSymbolTableRecord
100
AcDbLinetypeTableRecord
  2
ByBlock
 70
0
 72
0
 73
0
 40
0.0
  0
LTYPE
  5
1B
330
14
100
AcDbSymbolTableRecord
100
AcDbLinetypeTableRecord
  2
Continuous
 70
0
 72
0
 73
0
 40
0.0
  0
ENDTAB
  0
TABLE
  2
LAYER
  5
13
330
0
100
AcDbSymbolTable
 70
1
  0
LAYER
  5
1C
330
13
100
AcDbSymbolTableRecord
100
AcDbLayerTableRecord
  2
0
 70
0
 62
7
  6
Continuous
290
1
370
-3
390
0
  0
ENDTAB
  0
TABLE
  2
STYLE
  5
15
330
0
100
AcDbSymbolTable
 70
1
  0
STYLE
  5
23
330
15
100
AcDbSymbolTableRecord
100
AcDbTextStyleTableRecord
  2
Standard
 70
0
 40
0.0
 41
1.0
 42
0.0
 50
0.0
 71
0
  0
ENDTAB
  0
TABLE
  2
VIEW
  5
17
330
0
100
AcDbSymbolTable
 70
0
  0
ENDTAB
  0
TABLE
  2
UCS
  5
16
330
0
100
AcDbSymbolTable
 70
0
  0
ENDTAB
  0
TABLE
  2
APPID
  5
10
330
0
100
AcDbSymbolTable
 70
1
  0
APPID
  5
25
330
10
100
AcDbSymbolTableRecord
100
AcDbRegAppTableRecord
  2
ACAD
 70
0
  0
ENDTAB
  0
TABLE
  2
DIMSTYLE
  5
12
330
0
100
AcDbSymbolTable
 70
1
100
AcDbDimStyleTable
  0
DIMSTYLE
105
24
330
12
100
AcDbSymbolTableRecord
100
AcDbDimStyleTableRecord
  2
Standard
 70
0
  3
<>
  4
[]
 40
1.0
 41
0.18
 42
0.625
 43
3.75
 44
1.25
 45
0.0
 46
0.0
 47
0.0
 48
0.0
 49
1.0
 50
45.0
 70
0
 90
0
140
0.18
141
0.09
142
0.0
143
25.3999999999999986
144
1.0
145
0.0
146
1.0
147
0.625
148
0.0
 71
0
 72
0
 73
0
 74
0
 75
0
 76
0
 77
1
 78
8
 79
0
170
0
171
3
172
0
173
1
174
0
175
0
176
0
177
0
178
0
179
0
271
2
272
2
273
2
274
3
275
0
276
0
277
2
278
46
279
0
280
0
281
0
282
0
283
0
284
8
285
0
286
0
287
0
288
0
289
3
290
0
340
0
371
-2
372
-2
  0
ENDTAB
  0
TABLE
  2
BLOCK_RECORD
  5
11
330
0
100
AcDbSymbolTable
 70
2
  0
BLOCK_RECORD
  5
1D
330
11
100
AcDbSymbolTableRecord
100
AcDbBlockTableRecord
  2
*Model_Space
 70
0
340
0
 70
0
280
0
281
1
  0
BLOCK_RECORD
  5
20
330
11
100
AcDbSymbolTableRecord
100
AcDbBlockTableRecord
  2
*Paper_Space
 70
0
340
0
 70
0
280
0
281
1
  0
ENDTAB
  0
ENDSEC
  0
SECTION
  2
BLOCKS
  0
BLOCK
  5
1E
330
1D
100
AcDbEntity
  8
0
  6
ByLayer
 62
256
 48
1.0
 60
0
 67
0
370
-1
100
AcDbBlockBegin
  2
*Model_Space
 70
0
 10
0.0
 20
0.0
 30
0.0
  3
*Model_Space
  0
ENDBLK
  5
1F
330
1D
100
AcDbEntity
  8
0
100
AcDbBlockEnd
  0
BLOCK
  5
21
330
20
100
AcDbEntity
  8
0
  6
ByLayer
 62
256
 48
1.0
 60
0
 67
1
370
-1
100
AcDbBlockBegin
  2
*Paper_Space
 70
0
 10
0.0
 20
0.0
 30
0.0
  3
*Paper_Space
  0
ENDBLK
  5
22
330
20
100
AcDbEntity
  8
0
100
AcDbBlockEnd
  0
ENDSEC
  0
SECTION
  2
ENTITIES
  0
LWPOLYLINE
  5
27
330
1D
100
AcDbEntity
  8
0
  6
ByLayer
420
16711680
 48
1.0
 60
0
 67
0
370
-1
100
AcDbPolyline
 90
412
 70
0
 43
0.0
 38
0.0
 39
0.0
210
0.0
220
0.0
230
1.0
 10
103.0
 20
623.0
 40
0.0
 41
0.0
 42
0.0
 10
104.99993896484375
 20
623.0
 40
0.0
 41
0.0
 42
0.0
 10
106.9998931884765625
 20
623.0
 40
0.0
 41
0.0
 42
0.0
 10
108.9998321533203125
 20
623.0
 40
0.0
 41
0.0
 42
0.0
 10
110.9997711181640625
 20
623.0
 40
0.0
 41
0.0
 42
0.0
 10
112.9997100830078125
 20
623.0
 40
0.0
 41
0.0
 42
0.0
 10
114.999664306640625
 20
623.0
 40
0.0
 41
0.0
 42
0.0
 10
116.999603271484375
 20
623.0
 40
0.0
 41
0.0
 42
0.0
 10
118.999542236328125
 20
623.0
 40
0.0
 41
0.0
 42
0.0
 10
120.999481201171875
 20
623.0
 40
0.0
 41
0.0
 42
0.0
 10
122.9994354248046875
 20
623.0
 40
0.0
 41
0.0
 42
0.0
 10
124.9993743896484375
 20
623.0
 40
0.0
 41
0.0
 42
0.0
 10
126.9993133544921875
 20
623.0
 40
0.0
 41
0.0
 42
0.0
 10
128.999267578125
 20
623.0
 40
0.0
 41
0.0
 42
0.0
 10
130.99920654296875
 20
623.0
 40
0.0
 41
0.0
 42
0.0
 10
132.9991455078125
 20
623.0
 40
0.0
 41
0.0
 42
0.0
 10
134.99908447265625
 20
623.0
 40
0.0
 41
0.0
 42
0.0
 10
136.9990386962890625
 20
623.0
 40
0.0
 41
0.0
 42
0.0
 10
138.9989776611328125
 20
623.0
 40
0.0
 41
0.0
 42
0.0
 10
140.9989166259765625
 20
623.0
 40
0.0
 41
0.0
 42
0.0
 10
142.998870849609375
 20
623.0
 40
0.0
 41
0.0
 42
0.0
 10
144.998809814453125
 20
623.0
 40
0.0
 41
0.0
 42
0.0
 10
146.998748779296875
 20
623.0
 40
0.0
 41
0.0
 42
0.0
 10
148.998687744140625
 20
623.0
 40
0.0
 41
0.0
 42
0.0
 10
150.998626708984375
 20
623.0
 40
0.0
 41
0.0
 42
0.0
 10
152.9985809326171875
 20
623.0
 40
0.0
 41
0.0
 42
0.0
 10
154.9985198974609375
 20
623.0
 40
0.0
 41
0.0
 42
0.0
 10
156.9984588623046875
 20
623.0
 40
0.0
 41
0.0
 42
0.0
 10
158.9984130859375
 20
623.0
 40
0.0
 41
0.0
 42
0.0
 10
160.99835205078125
 20
623.0
 40
0.0
 41
0.0
 42
0.0
 10
162.998291015625
 20
623.0
 40
0.0
 41
0.0
 42
0.0
 10
164.99822998046875
 20
623.0
 40
0.0
 41
0.0
 42
0.0
 10
166.9981842041015625
 20
623.0
 40
0.0
 41
0.0
 42
0.0
 10
168.9981231689453125
 20
623.0
 40
0.0
 41
0.0
 42
0.0
 10
170.998077392578125
 20
623.0
 40
0.0
 41
0.0
 42
0.0
 10
172.998016357421875
 20
623.0
 40
0.0
 41
0.0
 42
0.0
 10
174.997955322265625
 20
623.0
 40
0.0
 41
0.0
 42
0.0
 10
176.997894287109375
 20
623.0
 40
0.0
 41
0.0
 42
0.0
 10
178.9978408813476563
 20
623.0
 40
0.0
 41
0.0
 42
0.0
 10
180.9977798461914063
 20
623.0
 40
0.0
 41
0.0
 42
0.0
 10
182.9977264404296875
 20
623.0
 40
0.0
 41
0.0
 42
0.0
 10
184.9976654052734375
 20
623.0
 40
0.0
 41
0.0
 42
0.0
 10
186.9976119995117188
 20
623.0
 40
0.0
 41
0.0
 42
0.0
 10
188.9975509643554688
 20
623.0
 40
0.0
 41
0.0
 42
0.0
 10
190.99749755859375
 20
623.0
 40
0.0
 41
0.0
 42
0.0
 10
192.9974441528320313
 20
623.0
 40
0.0
 41
0.0
 42
0.0
 10
194.9973831176757813
 20
623.0
 40
0.0
 41
0.0
 42
0.0
 10
196.9973297119140625
 20
623.0
 40
0.0
 41
0.0
 42
0.0
 10
198.9972686767578125
 20
623.0
 40
0.0
 41
0.0
 42
0.0
 10
200.9972152709960938
 20
623.0
 40
0.0
 41
0.0
 42
0.0
 10
202.9971542358398438
 20
623.0
 40
0.0
 41
0.0
 42
0.0
 10
204.997100830078125
 20
623.0
 40
0.0
 41
0.0
 42
0.0
 10
206.997039794921875
 20
623.0
 40
0.0
 41
0.0
 42
0.0
 10
208.9969863891601563
 20
623.0
 40
0.0
 41
0.0
 42
0.0
 10
210.9969253540039063
 20
623.0
 40
0.0
 41
0.0
 42
0.0
 10
212.9968719482421875
 20
623.0
 40
0.0
 41
0.0
 42
0.0
 10
214.9968185424804688
 20
623.0
 40
0.0
 41
0.0
 42
0.0
 10
216.9967575073242188
 20
623.0
 40
0.0
 41
0.0
 42
0.0
 10
218.9967041015625
 20
623.0
 40
0.0
 41
0.0
 42
0.0
 10
220.99664306640625
 20
623.0
 40
0.0
 41
0.0
 42
0.0
 10
222.99658203125
 20
623.0
 40
0.0
 41
0.0
 42
0.0
 10
224.99652099609375
 20
623.0
 40
0.0
 41
0.0
 42
0.0
 10
226.9964752197265625
 20
623.0
 40
0.0
 41
0.0
 42
0.0
 10
228.9964141845703125
 20
623.0
 40
0.0
 41
0.0
 42
0.0
 10
230.996368408203125
 20
623.0
 40
0.0
 41
0.0
 42
0.0
 10
232.996307373046875
 20
623.0
 40
0.0
 41
0.0
 42
0.0
 10
234.996246337890625
 20
623.0
 40
0.0
 41
0.0
 42
0.0
 10
236.996185302734375
 20
623.0
 40
0.0
 41
0.0
 42
0.0
 10
238.9961395263671875
 20
623.0
 40
0.0
 41
0.0
 42
0.0
 10
240.9960784912109375
 20
623.0
 40
0.0
 41
0.0
 42
0.0
 10
242.9960174560546875
 20
623.0
 40
0.0
 41
0.0
 42
0.0
 10
244.9959564208984375
 20
623.0
 40
0.0
 41
0.0
 42
0.0
 10
246.99591064453125
 20
623.0
 40
0.0
 41
0.0
 42
0.0
 10
248.995849609375
 20
623.0
 40
0.0
 41
0.0
 42
0.0
 10
250.99578857421875
 20
623.0
 40
0.0
 41
0.0
 42
0.0
 10
252.9957275390625
 20
623.0
 40
0.0
 41
0.0
 42
0.0
 10
254.9956817626953125
 20
623.0
 40
0.0
 41
0.0
 42
0.0
 10
256.9956207275390625
 20
623.0
 40
0.0
 41
0.0
 42
0.0
 10
258.9955596923828125
 20
623.0
 40
0.0
 41
0.0
 42
0.0
 10
260.995513916015625
 20
623.0
 40
0.0
 41
0.0
 42
0.0
 10
262.995452880859375
 20
623.0
 40
0.0
 41
0.0
 42
0.0
 10
264.995391845703125
 20
623.0
 40
0.0
 41
0.0
 42
0.0
 10
266.995330810546875
 20
623.0
 40
0.0
 41
0.0
 42
0.0
 10
268.9952850341796875
 20
623.0
 40
0.0
 41
0.0
 42
0.0
 10
270.9952239990234375
 20
623.0
 40
0.0
 41
0.0
 42
0.0
 10
272.9951629638671875
 20
623.0
 40
0.0
 41
0.0
 42
0.0
 10
274.9951019287109375
 20
623.0
 40
0.0
 41
0.0
 42
0.0
 10
276.99505615234375
 20
623.0
 40
0.0
 41
0.0
 42
0.0
 10
278.9949951171875
 20
623.0
 40
0.0
 41
0.0
 42
0.0
 10
280.99493408203125
 20
623.0
 40
0.0
 41
0.0
 42
0.0
 10
282.9948883056640625
 20
623.0
 40
0.0
 41
0.0
 42
0.0
 10
284.9948272705078125
 20
623.0
 40
0.0
 41
0.0
 42
0.0
 10
286.9947662353515625
 20
623.0
 40
0.0
 41
0.0
 42
0.0
 10
288.9947052001953125
 20
623.0
 40
0.0
 41
0.0
 42
0.0
 10
290.994659423828125
 20
623.0
 40
0.0
 41
0.0
 42
0.0
 10
292.994598388671875
 20
623.0
 40
0.0
 41
0.0
 42
0.0
 10
294.994537353515625
 20
623.0
 40
0.0
 41
0.0
 42
0.0
 10
296.994476318359375
 20
623.0
 40
0.0
 41
0.0
 42
0.0
 10
298.9944305419921875
 20
623.0
 40
0.0
 41
0.0
 42
0.0
 10
300.9943695068359375
 20
623.0
 40
0.0
 41
0.0
 42
0.0
 10
302.9943084716796875
 20
623.0
 40
0.0
 41
0.0
 42
0.0
 10
304.9942626953125
 20
623.0
 40
0.0
 41
0.0
 42
0.0
 10
306.99420166015625
 20
623.0
 40
0.0
 41
0.0
 42
0.0
 10
308.994140625
 20
623.0
 40
0.0
 41
0.0
 42
0.0
 10
310.99407958984375
 20
623.0
 40
0.0
 41
0.0
 42
0.0
 10
312.9940338134765625
 20
623.0
 40
0.0
 41
0.0
 42
0.0
 10
314.9939727783203125
 20
623.0
 40
0.0
 41
0.0
 42
0.0
 10
316.9939117431640625
 20
623.0
 40
0.0
 41
0.0
 42
0.0
 10
318.9938507080078125
 20
623.0
 40
0.0
 41
0.0
 42
0.0
 10
320.993804931640625
 20
623.0
 40
0.0
 41
0.0
 42
0.0
 10
322.993743896484375
 20
623.0
 40
0.0
 41
0.0
 42
0.0
 10
324.993682861328125
 20
623.0
 40
0.0
 41
0.0
 42
0.0
 10
326.9936370849609375
 20
623.0
 40
0.0
 41
0.0
 42
0.0
 10
328.9935760498046875
 20
623.0
 40
0.0
 41
0.0
 42
0.0
 10
330.9935150146484375
 20
623.0
 40
0.0
 41
0.0
 42
0.0
 10
332.9934539794921875
 20
623.0
 40
0.0
 41
0.0
 42
0.0
 10
334.993408203125
 20
623.0
 40
0.0
 41
0.0
 42
0.0
 10
336.99334716796875
 20
623.0
 40
0.0
 41
0.0
 42
0.0
 10
338.9932861328125
 20
623.0
 40
0.0
 41
0.0
 42
0.0
 10
340.99322509765625
 20
623.0
 40
0.0
 41
0.0
 42
0.0
 10
342.9931793212890625
 20
623.0
 40
0.0
 41
0.0
 42
0.0
 10
344.9931182861328125
 20
623.0
 40
0.0
 41
0.0
 42
0.0
 10
346.9930572509765625
 20
623.0
 40
0.0
 41
0.0
 42
0.0
 10
348.993011474609375
 20
623.0
 40
0.0
 41
0.0
 42
0.0
 10
350.992950439453125
 20
623.0
 40
0.0
 41
0.0
 42
0.0
 10
352.992889404296875
 20
623.0
 40
0.0
 41
0.0
 42
0.0
 10
354.9521484375
 20
623.3907833099365234
 40
0.0
 41
0.0
 42
0.0
 10
356.948211669921875
 20
623.4780960083007813
 40
0.0
 41
0.0
 42
0.0
 10
358.9337158203125
 20
623.255859375
 40
0.0
 41
0.0
 42
0.0
 10
360.861358642578125
 20
622.7304668426513672
 40
0.0
 41
0.0
 42
0.0
 10
362.6859130859375
 20
621.9161872863769531
 40
0.0
 41
0.0
 42
0.0
 10
364.364837646484375
 20
620.8331108093261719
 40
0.0
 41
0.0
 42
0.0
 10
365.85833740234375
 20
619.5059890747070313
 40
0.0
 41
0.0
 42
0.0
 10
367.129974365234375
 20
617.9649600982666016
 40
0.0
 41
0.0
 42
0.0
 10
368.14813232421875
 20
616.2459564208984375
 40
0.0
 41
0.0
 42
0.0
 10
368.8896484375
 20
614.3906745910644531
 40
0.0
 41
0.0
 42
0.0
 10
369.340972900390625
 20
612.4442901611328125
 40
0.0
 41
0.0
 42
0.0
 10
369.48907470703125
 20
610.4518661499023438
 40
0.0
 41
0.0
 42
0.0
 10
369.327606201171875
 20
608.4604530334472656
 40
0.0
 41
0.0
 42
0.0
 10
368.8609619140625
 20
606.5177898406982422
 40
0.0
 41
0.0
 42
0.0
 10
368.102142333984375
 20
604.6695003509521484
 40
0.0
 41
0.0
 42
0.0
 10
367.07012939453125
 20
602.9587249755859375
 40
0.0
 41
0.0
 42
0.0
 10
365.788787841796875
 20
601.4257335662841797
 40
0.0
 41
0.0
 42
0.0
 10
364.2872314453125
 20
600.1077346801757813
 40
0.0
 41
0.0
 42
0.0
 10
362.60009765625
 20
599.0375022888183594
 40
0.0
 41
0.0
 42
0.0
 10
360.76812744140625
 20
598.240264892578125
 40
0.0
 41
0.0
 42
0.0
 10
358.80499267578125
 20
597.9999961853027344
 40
0.0
 41
0.0
 42
0.0
 10
356.8050537109375
 20
597.9999961853027344
 40
0.0
 41
0.0
 42
0.0
 10
354.80511474609375
 20
597.9999961853027344
 40
0.0
 41
0.0
 42
0.0
 10
352.80517578125
 20
597.9999961853027344
 40
0.0
 41
0.0
 42
0.0
 10
350.80523681640625
 20
597.9999961853027344
 40
0.0
 41
0.0
 42
0.0
 10
348.805267333984375
 20
597.9999961853027344
 40
0.0
 41
0.0
 42
0.0
 10
346.805328369140625
 20
597.9999961853027344
 40
0.0
 41
0.0
 42
0.0
 10
344.805389404296875
 20
597.9999961853027344
 40
0.0
 41
0.0
 42
0.0
 10
342.805450439453125
 20
597.9999961853027344
 40
0.0
 41
0.0
 42
0.0
 10
340.805511474609375
 20
597.9999961853027344
 40
0.0
 41
0.0
 42
0.0
 10
338.805572509765625
 20
597.9999961853027344
 40
0.0
 41
0.0
 42
0.0
 10
336.805633544921875
 20
597.9999961853027344
 40
0.0
 41
0.0
 42
0.0
 10
334.8056640625
 20
597.9999961853027344
 40
0.0
 41
0.0
 42
0.0
 10
332.80572509765625
 20
597.9999961853027344
 40
0.0
 41
0.0
 42
0.0
 10
330.8057861328125
 20
598.0
 40
0.0
 41
0.0
 42
0.0
 10
328.80584716796875
 20
598.0
 40
0.0
 41
0.0
 42
0.0
 10
326.805908203125
 20
598.0
 40
0.0
 41
0.0
 42
0.0
 10
324.80596923828125
 20
598.0
 40
0.0
 41
0.0
 42
0.0
 10
322.8060302734375
 20
598.0
 40
0.0
 41
0.0
 42
0.0
 10
320.80609130859375
 20
598.0
 40
0.0
 41
0.0
 42
0.0
 10
318.806121826171875
 20
598.0
 40
0.0
 41
0.0
 42
0.0
 10
316.806182861328125
 20
598.0
 40
0.0
 41
0.0
 42
0.0
 10
314.806243896484375
 20
598.0
 40
0.0
 41
0.0
 42
0.0
 10
312.806304931640625
 20
598.0
 40
0.0
 41
0.0
 42
0.0
 10
310.806365966796875
 20
598.0
 40
0.0
 41
0.0
 42
0.0
 10
308.8071746826171875
 20
597.9893569946289063
 40
0.0
 41
0.0
 42
0.0
 10
306.8387908935546875
 20
597.6549339294433594
 40
0.0
 41
0.0
 42
0.0
 10
304.97686767578125
 20
596.9341316223144531
 40
0.0
 41
0.0
 42
0.0
 10
303.295196533203125
 20
595.8577613830566406
 40
0.0
 41
0.0
 42
0.0
 10
301.8591766357421875
 20
594.4705543518066406
 40
0.0
 41
0.0
 42
0.0
 10
300.725830078125
 20
592.8267631530761719
 40
0.0
 41
0.0
 42
0.0
 10
299.9425811767578125
 20
590.9902687072753906
 40
0.0
 41
0.0
 42
0.0
 10
299.541473388671875
 20
589.0343818664550781
 40
0.0
 41
0.0
 42
0.0
 10
299.53314208984375
 20
587.0377273559570313
 40
0.0
 41
0.0
 42
0.0
 10
299.920806884765625
 20
585.0791244506835938
 40
0.0
 41
0.0
 42
0.0
 10
300.6917266845703125
 20
583.2373733520507813
 40
0.0
 41
0.0
 42
0.0
 10
301.8128814697265625
 20
581.5852203369140625
 40
0.0
 41
0.0
 42
0.0
 10
303.2380828857421875
 20
580.1868782043457031
 40
0.0
 41
0.0
 42
0.0
 10
304.9117584228515625
 20
579.0982398986816406
 40
0.0
 41
0.0
 42
0.0
 10
306.768829345703125
 20
578.3650856018066406
 40
0.0
 41
0.0
 42
0.0
 10
308.734832763671875
 20
578.016754150390625
 40
0.0
 41
0.0
 42
0.0
 10
310.734222412109375
 20
578.0
 40
0.0
 41
0.0
 42
0.0
 10
312.73419189453125
 20
578.0
 40
0.0
 41
0.0
 42
0.0
 10
314.734130859375
 20
578.0
 40
0.0
 41
0.0
 42
0.0
 10
316.73406982421875
 20
578.0
 40
0.0
 41
0.0
 42
0.0
 10
318.7340087890625
 20
578.0
 40
0.0
 41
0.0
 42
0.0
 10
320.73394775390625
 20
578.0
 40
0.0
 41
0.0
 42
0.0
 10
322.73388671875
 20
578.0
 40
0.0
 41
0.0
 42
0.0
 10
324.73382568359375
 20
578.0
 40
0.0
 41
0.0
 42
0.0
 10
326.733795166015625
 20
578.0
 40
0.0
 41
0.0
 42
0.0
 10
328.733734130859375
 20
578.0
 40
0.0
 41
0.0
 42
0.0
 10
330.733673095703125
 20
578.0
 40
0.0
 41
0.0
 42
0.0
 10
332.733612060546875
 20
578.0
 40
0.0
 41
0.0
 42
0.0
 10
334.733551025390625
 20
578.0
 40
0.0
 41
0.0
 42
0.0
 10
336.733489990234375
 20
578.0
 40
0.0
 41
0.0
 42
0.0
 10
338.733428955078125
 20
578.0
 40
0.0
 41
0.0
 42
0.0
 10
340.7333984375
 20
578.0
 40
0.0
 41
0.0
 42
0.0
 10
342.73333740234375
 20
578.0
 40
0.0
 41
0.0
 42
0.0
 10
344.7332763671875
 20
578.0
 40
0.0
 41
0.0
 42
0.0
 10
346.73321533203125
 20
578.0
 40
0.0
 41
0.0
 42
0.0
 10
348.733154296875
 20
578.0
 40
0.0
 41
0.0
 42
0.0
 10
350.73309326171875
 20
578.0
 40
0.0
 41
0.0
 42
0.0
 10
352.7330322265625
 20
578.0
 40
0.0
 41
0.0
 42
0.0
 10
354.73297119140625
 20
578.0
 40
0.0
 41
0.0
 42
0.0
 10
356.732940673828125
 20
578.0
 40
0.0
 41
0.0
 42
0.0
 10
358.732879638671875
 20
578.0
 40
0.0
 41
0.0
 42
0.0
 10
360.730499267578125
 20
578.0258102416992188
 40
0.0
 41
0.0
 42
0.0
 10
362.697906494140625
 20
577.6856765747070313
 40
0.0
 41
0.0
 42
0.0
 10
364.55841064453125
 20
576.9610748291015625
 40
0.0
 41
0.0
 42
0.0
 10
366.239105224609375
 20
575.8831863403320313
 40
0.0
 41
0.0
 42
0.0
 10
367.675018310546875
 20
574.4958343505859375
 40
0.0
 41
0.0
 42
0.0
 10
368.80908203125
 20
572.8525238037109375
 40
0.0
 41
0.0
 42
0.0
 10
369.59381103515625
 20
571.0166282653808594
 40
0.0
 41
0.0
 42
0.0
 10
369.99884033203125
 20
569.0614738464355469
 40
0.0
 41
0.0
 42
0.0
 10
370.013214111328125
 20
567.0648345947265625
 40
0.0
 41
0.0
 42
0.0
 10
369.631561279296875
 20
565.1050796508789063
 40
0.0
 41
0.0
 42
0.0
 10
368.86785888671875
 20
563.2602920532226563
 40
0.0
 41
0.0
 42
0.0
 10
367.75518798828125
 20
561.6024169921875
 40
0.0
 41
0.0
 42
0.0
 10
366.338134765625
 20
560.1957473754882813
 40
0.0
 41
0.0
 42
0.0
 10
364.671295166015625
 20
559.0966110229492188
 40
0.0
 41
0.0
 42
0.0
 10
362.819244384765625
 20
558.3508224487304688
 40
0.0
 41
0.0
 42
0.0
 10
360.855438232421875
 20
558.0000076293945313
 40
0.0
 41
0.0
 42
0.0
 10
358.855499267578125
 20
558.0000076293945313
 40
0.0
 41
0.0
 42
0.0
 10
356.855560302734375
 20
558.0000076293945313
 40
0.0
 41
0.0
 42
0.0
 10
354.855621337890625
 20
558.0000076293945313
 40
0.0
 41
0.0
 42
0.0
 10
352.855682373046875
 20
558.0000076293945313
 40
0.0
 41
0.0
 42
0.0
 10
350.855712890625
 20
558.0000076293945313
 40
0.0
 41
0.0
 42
0.0
 10
348.85577392578125
 20
558.0000076293945313
 40
0.0
 41
0.0
 42
0.0
 10
346.8558349609375
 20
558.0000076293945313
 40
0.0
 41
0.0
 42
0.0
 10
344.85589599609375
 20
558.0000076293945313
 40
0.0
 41
0.0
 42
0.0
 10
342.85595703125
 20
558.0000076293945313
 40
0.0
 41
0.0
 42
0.0
 10
340.85601806640625
 20
558.0000076293945313
 40
0.0
 41
0.0
 42
0.0
 10
338.8560791015625
 20
558.0000076293945313
 40
0.0
 41
0.0
 42
0.0
 10
336.856109619140625
 20
558.0000076293945313
 40
0.0
 41
0.0
 42
0.0
 10
334.856170654296875
 20
558.0
 40
0.0
 41
0.0
 42
0.0
 10
332.856231689453125
 20
558.0
 40
0.0
 41
0.0
 42
0.0
 10
330.856292724609375
 20
558.0
 40
0.0
 41
0.0
 42
0.0
 10
328.856353759765625
 20
558.0
 40
0.0
 41
0.0
 42
0.0
 10
326.856414794921875
 20
558.0
 40
0.0
 41
0.0
 42
0.0
 10
324.856475830078125
 20
558.0
 40
0.0
 41
0.0
 42
0.0
 10
322.85650634765625
 20
558.0
 40
0.0
 41
0.0
 42
0.0
 10
320.8565673828125
 20
558.0
 40
0.0
 41
0.0
 42
0.0
 10
318.85662841796875
 20
558.0
 40
0.0
 41
0.0
 42
0.0
 10
316.856689453125
 20
558.0
 40
0.0
 41
0.0
 42
0.0
 10
314.85675048828125
 20
558.0
 40
0.0
 41
0.0
 42
0.0
 10
312.8568115234375
 20
558.0
 40
0.0
 41
0.0
 42
0.0
 10
310.8592071533203125
 20
558.0257568359375
 40
0.0
 41
0.0
 42
0.0
 10
308.86883544921875
 20
558.188720703125
 40
0.0
 41
0.0
 42
0.0
 10
306.8830413818359375
 20
557.9774093627929688
 40
0.0
 41
0.0
 42
0.0
 10
304.9718475341796875
 20
557.3982696533203125
 40
0.0
 41
0.0
 42
0.0
 10
303.2015838623046875
 20
556.4740066528320313
 40
0.0
 41
0.0
 42
0.0
 10
301.6327972412109375
 20
555.2381515502929688
 40
0.0
 41
0.0
 42
0.0
 10
300.320648193359375
 20
553.7327880859375
 40
0.0
 41
0.0
 42
0.0
 10
299.3128509521484375
 20
552.0087661743164063
 40
0.0
 41
0.0
 42
0.0
 10
298.64532470703125
 20
550.1265869140625
 40
0.0
 41
0.0
 42
0.0
 10
298.33648681640625
 20
548.1535263061523438
 40
0.0
 41
0.0
 42
0.0
 10
298.399139404296875
 20
546.1575469970703125
 40
0.0
 41
0.0
 42
0.0
 10
298.8344879150390625
 20
544.2086181640625
 40
0.0
 41
0.0
 42
0.0
 10
299.6254119873046875
 20
542.3749008178710938
 40
0.0
 41
0.0
 42
0.0
 10
300.7422943115234375
 20
540.7193450927734375
 40
0.0
 41
0.0
 42
0.0
 10
302.146392822265625
 20
539.2992782592773438
 40
0.0
 41
0.0
 42
0.0
 10
303.7904815673828125
 20
538.1657180786132813
 40
0.0
 41
0.0
 42
0.0
 10
305.617767333984375
 20
537.3600616455078125
 40
0.0
 41
0.0
 42
0.0
 10
307.57049560546875
 20
537.0
 40
0.0
 41
0.0
 42
0.0
 10
309.5704345703125
 20
537.0
 40
0.0
 41
0.0
 42
0.0
 10
311.57037353515625
 20
537.0
 40
0.0
 41
0.0
 42
0.0
 10
313.57037353515625
 20
537.0
 40
0.0
 41
0.0
 42
0.0
 10
315.5703125
 20
537.0
 40
0.0
 41
0.0
 42
0.0
 10
317.57025146484375
 20
537.0
 40
0.0
 41
0.0
 42
0.0
 10
319.5701904296875
 20
537.0
 40
0.0
 41
0.0
 42
0.0
 10
321.57012939453125
 20
537.0
 40
0.0
 41
0.0
 42
0.0
 10
323.570068359375
 20
537.0
 40
0.0
 41
0.0
 42
0.0
 10
325.57000732421875
 20
537.0
 40
0.0
 41
0.0
 42
0.0
 10
327.5699462890625
 20
537.0
 40
0.0
 41
0.0
 42
0.0
 10
329.56988525390625
 20
537.0
 40
0.0
 41
0.0
 42
0.0
 10
331.56982421875
 20
537.0
 40
0.0
 41
0.0
 42
0.0
 10
333.56976318359375
 20
537.0
 40
0.0
 41
0.0
 42
0.0
 10
335.5697021484375
 20
537.0
 40
0.0
 41
0.0
 42
0.0
 10
337.56964111328125
 20
537.0
 40
0.0
 41
0.0
 42
0.0
 10
339.569580078125
 20
537.0
 40
0.0
 41
0.0
 42
0.0
 10
341.56951904296875
 20
537.0
 40
0.0
 41
0.0
 42
0.0
 10
343.56951904296875
 20
537.0
 40
0.0
 41
0.0
 42
0.0
 10
345.5694580078125
 20
537.0
 40
0.0
 41
0.0
 42
0.0
 10
347.56939697265625
 20
537.0
 40
0.0
 41
0.0
 42
0.0
 10
349.5693359375
 20
537.0
 40
0.0
 41
0.0
 42
0.0
 10
351.56927490234375
 20
537.0
 40
0.0
 41
0.0
 42
0.0
 10
353.5692138671875
 20
537.0
 40
0.0
 41
0.0
 42
0.0
 10
355.56915283203125
 20
537.0
 40
0.0
 41
0.0
 42
0.0
 10
357.568817138671875
 20
536.9855422973632813
 40
0.0
 41
0.0
 42
0.0
 10
359.546051025390625
 20
536.7038497924804688
 40
0.0
 41
0.0
 42
0.0
 10
361.439117431640625
 20
536.0674896240234375
 40
0.0
 41
0.0
 42
0.0
 10
363.185028076171875
 20
535.0977096557617188
 40
0.0
 41
0.0
 42
0.0
 10
364.72723388671875
 20
533.8287582397460938
 40
0.0
 41
0.0
 42
0.0
 10
366.016143798828125
 20
532.3031082153320313
 40
0.0
 41
0.0
 42
0.0
 10
367.00860595703125
 20
530.5699996948242188
 40
0.0
 41
0.0
 42
0.0
 10
367.669830322265625
 20
528.685455322265625
 40
0.0
 41
0.0
 42
0.0
 10
367.977325439453125
 20
526.71209716796875
 40
0.0
 41
0.0
 42
0.0
 10
367.925750732421875
 20
524.7154693603515625
 40
0.0
 41
0.0
 42
0.0
 10
367.51531982421875
 20
522.7609634399414063
 40
0.0
 41
0.0
 42
0.0
 10
366.755950927734375
 20
520.9138031005859375
 40
0.0
 41
0.0
 42
0.0
 10
365.674285888671875
 20
519.2349166870117188
 40
0.0
 41
0.0
 42
0.0
 10
364.307891845703125
 20
517.77825927734375
 40
0.0
 41
0.0
 42
0.0
 10
362.701751708984375
 20
516.5911941528320313
 40
0.0
 41
0.0
 42
0.0
 10
360.907440185546875
 20
515.7142333984375
 40
0.0
 41
0.0
 42
0.0
 10
358.9835205078125
 20
515.17840576171875
 40
0.0
 41
0.0
 42
0.0
 10
356.99432373046875
 20
514.9999847412109375
 40
0.0
 41
0.0
 42
0.0
 10
354.994384765625
 20
514.9999847412109375
 40
0.0
 41
0.0
 42
0.0
 10
352.99444580078125
 20
514.9999847412109375
 40
0.0
 41
0.0
 42
0.0
 10
350.9945068359375
 20
514.9999847412109375
 40
0.0
 41
0.0
 42
0.0
 10
348.99456787109375
 20
514.9999847412109375
 40
0.0
 41
0.0
 42
0.0
 10
346.99456787109375
 20
514.9999847412109375
 40
0.0
 41
0.0
 42
0.0
 10
344.99462890625
 20
514.9999847412109375
 40
0.0
 41
0.0
 42
0.0
 10
342.99468994140625
 20
514.9999847412109375
 40
0.0
 41
0.0
 42
0.0
 10
340.9947509765625
 20
514.9999847412109375
 40
0.0
 41
0.0
 42
0.0
 10
338.99481201171875
 20
514.9999847412109375
 40
0.0
 41
0.0
 42
0.0
 10
336.994873046875
 20
514.9999847412109375
 40
0.0
 41
0.0
 42
0.0
 10
334.99493408203125
 20
514.9999847412109375
 40
0.0
 41
0.0
 42
0.0
 10
332.9949951171875
 20
514.9999847412109375
 40
0.0
 41
0.0
 42
0.0
 10
330.99505615234375
 20
514.9999847412109375
 40
0.0
 41
0.0
 42
0.0
 10
328.9951171875
 20
514.9999847412109375
 40
0.0
 41
0.0
 42
0.0
 10
326.99517822265625
 20
514.9999847412109375
 40
0.0
 41
0.0
 42
0.0
 10
324.9952392578125
 20
514.9999847412109375
 40
0.0
 41
0.0
 42
0.0
 10
322.99530029296875
 20
514.9999847412109375
 40
0.0
 41
0.0
 42
0.0
 10
320.995361328125
 20
514.9999847412109375
 40
0.0
 41
0.0
 42
0.0
 10
318.99542236328125
 20
514.9999847412109375
 40
0.0
 41
0.0
 42
0.0
 10
316.99542236328125
 20
514.9999847412109375
 40
0.0
 41
0.0
 42
0.0
 10
314.9954833984375
 20
514.9999847412109375
 40
0.0
 41
0.0
 42
0.0
 10
312.99554443359375
 20
514.9999847412109375
 40
0.0
 41
0.0
 42
0.0
 10
310.99560546875
 20
514.9999847412109375
 40
0.0
 41
0.0
 42
0.0
 10
308.99566650390625
 20
514.9999847412109375
 40
0.0
 41
0.0
 42
0.0
 10
306.9957275390625
 20
514.9999847412109375
 40
0.0
 41
0.0
 42
0.0
 10
304.99578857421875
 20
514.9999847412109375
 40
0.0
 41
0.0
 42
0.0
 10
302.995849609375
 20
514.9999847412109375
 40
0.0
 41
0.0
 42
0.0
 10
300.99591064453125
 20
514.9999847412109375
 40
0.0
 41
0.0
 42
0.0
 10
298.9959716796875
 20
514.9999847412109375
 40
0.0
 41
0.0
 42
0.0
 10
296.99603271484375
 20
514.9999847412109375
 40
0.0
 41
0.0
 42
0.0
 10
294.99609375
 20
514.9999847412109375
 40
0.0
 41
0.0
 42
0.0
 10
292.99615478515625
 20
514.9999847412109375
 40
0.0
 41
0.0
 42
0.0
 10
290.9962158203125
 20
514.9999847412109375
 40
0.0
 41
0.0
 42
0.0
 10
288.9962158203125
 20
514.9999847412109375
 40
0.0
 41
0.0
 42
0.0
 10
286.99627685546875
 20
514.9999923706054688
 40
0.0
 41
0.0
 42
0.0
 10
284.996337890625
 20
514.9999923706054688
 40
0.0
 41
0.0
 42
0.0
 10
282.99639892578125
 20
514.9999923706054688
 40
0.0
 41
0.0
 42
0.0
 10
280.9964599609375
 20
514.9999923706054688
 40
0.0
 41
0.0
 42
0.0
 10
278.99652099609375
 20
514.9999923706054688
 40
0.0
 41
0.0
 42
0.0
 10
276.99658203125
 20
514.9999923706054688
 40
0.0
 41
0.0
 42
0.0
 10
274.99664306640625
 20
514.9999923706054688
 40
0.0
 41
0.0
 42
0.0
 10
272.9967041015625
 20
514.9999923706054688
 40
0.0
 41
0.0
 42
0.0
 10
270.99676513671875
 20
514.9999923706054688
 40
0.0
 41
0.0
 42
0.0
 10
268.996826171875
 20
514.9999923706054688
 40
0.0
 41
0.0
 42
0.0
 10
266.99688720703125
 20
514.9999923706054688
 40
0.0
 41
0.0
 42
0.0
 10
264.9969482421875
 20
514.9999923706054688
 40
0.0
 41
0.0
 42
0.0
 10
262.99700927734375
 20
514.9999923706054688
 40
0.0
 41
0.0
 42
0.0
 10
260.9970703125
 20
514.9999923706054688
 40
0.0
 41
0.0
 42
0.0
 10
258.9970703125
 20
514.9999923706054688
 40
0.0
 41
0.0
 42
0.0
 10
256.99713134765625
 20
514.9999923706054688
 40
0.0
 41
0.0
 42
0.0
 10
254.9971923828125
 20
514.9999923706054688
 40
0.0
 41
0.0
 42
0.0
 10
252.99725341796875
 20
514.9999923706054688
 40
0.0
 41
0.0
 42
0.0
 10
250.997314453125
 20
514.9999923706054688
 40
0.0
 41
0.0
 42
0.0
 10
248.99737548828125
 20
514.9999923706054688
 40
0.0
 41
0.0
 42
0.0
 10
246.9974365234375
 20
514.9999923706054688
 40
0.0
 41
0.0
 42
0.0
 10
244.99749755859375
 20
514.9999923706054688
 40
0.0
 41
0.0
 42
0.0
 10
242.99755859375
 20
514.9999923706054688
 40
0.0
 41
0.0
 42
0.0
 10
240.99761962890625
 20
514.9999923706054688
 40
0.0
 41
0.0
 42
0.0
 10
238.9976806640625
 20
514.9999923706054688
 40
0.0
 41
0.0
 42
0.0
 10
236.99774169921875
 20
514.9999923706054688
 40
0.0
 41
0.0
 42
0.0
 10
234.997802734375
 20
514.9999923706054688
 40
0.0
 41
0.0
 42
0.0
 10
232.99786376953125
 20
514.9999923706054688
 40
0.0
 41
0.0
 42
0.0
 10
230.9979248046875
 20
514.9999923706054688
 40
0.0
 41
0.0
 42
0.0
 10
228.9979248046875
 20
514.9999923706054688
 40
0.0
 41
0.0
 42
0.0
 10
226.99798583984375
 20
514.9999923706054688
 40
0.0
 41
0.0
 42
0.0
 10
224.998046875
 20
514.9999923706054688
 40
0.0
 41
0.0
 42
0.0
 10
222.99810791015625
 20
514.9999923706054688
 40
0.0
 41
0.0
 42
0.0
 10
220.9981689453125
 20
514.9999923706054688
 40
0.0
 41
0.0
 42
0.0
 10
218.99822998046875
 20
514.9999923706054688
 40
0.0
 41
0.0
 42
0.0
 10
216.998291015625
 20
514.9999923706054688
 40
0.0
 41
0.0
 42
0.0
 10
214.99835205078125
 20
514.9999923706054688
 40
0.0
 41
0.0
 42
0.0
 10
212.9984130859375
 20
514.9999923706054688
 40
0.0
 41
0.0
 42
0.0
 10
210.99847412109375
 20
514.9999923706054688
 40
0.0
 41
0.0
 42
0.0
 10
208.99853515625
 20
514.9999923706054688
 40
0.0
 41
0.0
 42
0.0
 10
206.99859619140625
 20
514.9999923706054688
 40
0.0
 41
0.0
 42
0.0
 10
204.9986572265625
 20
514.9999923706054688
 40
0.0
 41
0.0
 42
0.0
 10
202.99871826171875
 20
514.9999923706054688
 40
0.0
 41
0.0
 42
0.0
 10
200.99871826171875
 20
514.9999923706054688
 40
0.0
 41
0.0
 42
0.0
 10
198.998779296875
 20
515.0
 40
0.0
 41
0.0
 42
0.0
 10
196.99884033203125
 20
515.0
 40
0.0
 41
0.0
 42
0.0
 10
194.9989013671875
 20
515.0
 40
0.0
 41
0.0
 42
0.0
 10
192.99896240234375
 20
515.0
 40
0.0
 41
0.0
 42
0.0
 10
190.9990234375
 20
515.0
 40
0.0
 41
0.0
 42
0.0
 10
188.99908447265625
 20
515.0
 40
0.0
 41
0.0
 42
0.0
 10
186.9991455078125
 20
515.0
 40
0.0
 41
0.0
 42
0.0
 10
184.99920654296875
 20
515.0
 40
0.0
 41
0.0
 42
0.0
 10
182.999267578125
 20
515.0
 40
0.0
 41
0.0
 42
0.0
 10
180.99932861328125
 20
515.0
 40
0.0
 41
0.0
 42
0.0
 10
178.9993896484375
 20
515.0
 40
0.0
 41
0.0
 42
0.0
 10
176.99945068359375
 20
515.0
 40
0.0
 41
0.0
 42
0.0
 10
174.99951171875
 20
515.0
 40
0.0
 41
0.0
 42
0.0
 10
172.99957275390625
 20
515.0
 40
0.0
 41
0.0
 42
0.0
 10
170.99957275390625
 20
515.0
 40
0.0
 41
0.0
 42
0.0
 10
168.9996337890625
 20
515.0
 40
0.0
 41
0.0
 42
0.0
 10
166.99969482421875
 20
515.0
 40
0.0
 41
0.0
 42
0.0
 10
164.999755859375
 20
515.0
 40
0.0
 41
0.0
 42
0.0
 10
162.99981689453125
 20
515.0
 40
0.0
 41
0.0
 42
0.0
 10
160.9998779296875
 20
515.0
 40
0.0
 41
0.0
 42
0.0
 10
158.99993896484375
 20
515.0
 40
0.0
 41
0.0
 42
0.0
 10
157.0
 20
515.0
 40
0.0
 41
0.0
 42
0.0
  0
ENDSEC
  0
SECTION
  2
OBJECTS
  0
DICTIONARY
  5
1
330
0
100
AcDbDictionary
280
0
281
0
  3
ACAD_COLOR
350
2
  3
ACAD_GROUP
350
3
  3
ACAD_LAYOUT
350
4
  3
ACAD_MATERIAL
350
5
  3
ACAD_SORTENTS
350
6
  3
ACAD_MLEADERSTYLE
350
7
  3
ACAD_MLINESTYLE
350
8
  3
ACAD_TABLESTYLE
350
9
  3
ACAD_PLOTSETTINGS
350
A
  3
AcDbVariableDictionary
350
B
  3
ACAD_SCALELIST
350
C
  3
ACAD_VISUALSTYLE
350
D
  3
ACAD_FIELDLIST
350
E
  3
ACAD_IMAGE_DICT
350
F
  0
DICTIONARY
  5
2
330
1
100
AcDbDictionary
280
0
281
0
  0
DICTIONARY
  5
3
330
1
100
AcDbDictionary
280
0
281
0
  0
DICTIONARY
  5
4
330
1
100
AcDbDictionary
280
0
281
0
  0
DICTIONARY
  5
5
330
1
100
AcDbDictionary
280
0
281
0
  0
DICTIONARY
  5
6
330
1
100
AcDbDictionary
280
0
281
0
  0
DICTIONARY
  5
7
330
1
100
AcDbDictionary
280
0
281
0
  0
DICTIONARY
  5
8
330
1
100
AcDbDictionary
280
0
281
0
  0
DICTIONARY
  5
9
330
1
100
AcDbDictionary
280
0
281
0
  0
DICTIONARY
  5
A
330
1
100
AcDbDictionary
280
0
281
0
  0
DICTIONARY
  5
B
330
1
100
AcDbDictionary
280
0
281
0
  0
DICTIONARY
  5
C
330
1
100
AcDbDictionary
280
0
281
0
  0
DICTIONARY
  5
D
330
1
100
AcDbDictionary
280
0
281
0
  0
DICTIONARY
  5
E
330
1
100
AcDbDictionary
280
0
281
0
  0
DICTIONARY
  5
F
330
1
100
AcDbDictionary
280
0
281
0
  0
ENDSEC
  0
EOF
