0
SECTION
2
HEADER
9
$ACADVER
1
AC1021
9
$LASTSAVEDBY
1
@tarikjabiri/dxf
9
$HANDSEED
5
6B
9
$INSUNITS
70
0
9
$CLAYER
8
0
9
$VIEWCTR
10
162
20
1039.75
0
ENDSEC
0
SECTION
2
CLASSES
0
ENDSEC
0
SECTION
2
TABLES
0
TABLE
2
VPORT
5
1
330
0
100
AcDbSymbolTable
70
1
0
VPORT
5
19
330
1
100
AcDbSymbolTableRecord
100
AcDbViewportTableRecord
2
*Active
70
0
10
0
20
0
11
1
21
1
12
162
22
1039.75
13
0
23
0
14
10
24
10
15
10
25
10
16
0
26
0
36
1
17
0
27
0
37
0
40
2279.5
41
2
42
50
43
0
44
0
50
0
51
0
71
0
72
100
73
1
74
3
75
0
76
1
77
0
78
0
281
0
65
1
110
0
120
0
130
0
111
1
121
0
131
0
112
0
122
1
132
0
79
0
146
0
348
10020
60
7
61
5
292
1
282
1
141
0
142
0
63
250
421
3358443
0
ENDTAB
0
TABLE
2
LTYPE
5
2
330
0
100
AcDbSymbolTable
70
3
0
LTYPE
5
12
330
2
100
AcDbSymbolTableRecord
100
AcDbLinetypeTableRecord
2
ByBlock
70
0
3

72
65
73
0
40
0
0
LTYPE
5
13
330
2
100
AcDbSymbolTableRecord
100
AcDbLinetypeTableRecord
2
ByLayer
70
0
3

72
65
73
0
40
0
0
LTYPE
5
14
330
2
100
AcDbSymbolTableRecord
100
AcDbLinetypeTableRecord
2
Continuous
70
0
3
Solid line
72
65
73
0
40
0
0
ENDTAB
0
TABLE
2
LAYER
5
3
330
0
100
AcDbSymbolTable
70
1
0
LAYER
5
15
330
3
100
AcDbSymbolTableRecord
100
AcDbLayerTableRecord
2
0
70
0
62
7
6
Continuous
370
0
390
0
0
ENDTAB
0
TABLE
2
STYLE
5
4
330
0
100
AcDbSymbolTable
70
2
0
STYLE
5
16
330
4
100
AcDbSymbolTableRecord
100
AcDbTextStyleTableRecord
2
Standard
70
0
40
0
41
1
50
0
71
0
42
1
3
txt
4

0
STYLE
5
1B
330
4
100
AcDbSymbolTableRecord
100
AcDbTextStyleTableRecord
2
Arial
70
0
40
0
41
1
50
0
71
0
42
1
3
Arial.ttf
4

0
ENDTAB
0
TABLE
2
VIEW
5
5
330
0
100
AcDbSymbolTable
70
0
0
ENDTAB
0
TABLE
2
UCS
5
6
330
0
100
AcDbSymbolTable
70
0
0
ENDTAB
0
TABLE
2
APPID
5
7
330
0
100
AcDbSymbolTable
70
1
0
APPID
5
17
330
7
100
AcDbSymbolTableRecord
100
AcDbRegAppTableRecord
2
ACAD
70
0
0
ENDTAB
0
TABLE
2
DIMSTYLE
5
8
330
0
100
AcDbSymbolTable
70
1
100
AcDbDimStyleTable
0
DIMSTYLE
105
18
330
8
100
AcDbSymbolTableRecord
100
AcDbDimStyleTableRecord
2
Standard
70
0
340
16
0
ENDTAB
0
TABLE
2
BLOCK_RECORD
5
9
330
0
100
AcDbSymbolTable
70
2
0
BLOCK_RECORD
5
C
330
9
100
AcDbSymbolTableRecord
100
AcDbBlockTableRecord
2
*Model_Space
70
0
280
1
281
0
0
BLOCK_RECORD
5
F
330
9
100
AcDbSymbolTableRecord
100
AcDbBlockTableRecord
2
*Paper_Space
70
0
280
1
281
0
0
ENDTAB
0
ENDSEC
0
SECTION
2
BLOCKS
0
BLOCK
5
D
330
C
100
AcDbEntity
8
0
100
AcDbBlockBegin
2
*Model_Space
70
0
10
0
20
0
30
0
3
*Model_Space
1

0
ENDBLK
5
E
100
AcDbEntity
8
0
100
AcDbBlockEnd
0
BLOCK
5
10
330
F
100
AcDbEntity
8
0
100
AcDbBlockBegin
2
*Paper_Space
70
0
10
0
20
0
30
0
3
*Paper_Space
1

0
ENDBLK
5
11
100
AcDbEntity
8
0
100
AcDbBlockEnd
0
ENDSEC
0
SECTION
2
ENTITIES
0
TEXT
5
1A
330
C
100
AcDbEntity
420
0
8
0
100
AcDbText
10
0
20
2079.5
30
0
40
20
1
SVG Markers Demo
7
Arial
100
AcDbText
0
TEXT
5
1C
330
C
100
AcDbEntity
420
5592405
8
0
100
AcDbText
10
0
20
2046.5
30
0
40
16
1
1. Inline SVG – Arrow markers on path
7
Arial
100
AcDbText
0
LWPOLYLINE
5
1D
330
C
100
AcDbEntity
420
4620980
8
0
100
AcDbPolyline
90
2
70
0
43
0
38
0
39
0
10
31
20
1997
10
271
20
1997
0
HATCH
5
1E
330
C
100
AcDbEntity
420
4620980
8
0
100
AcDbHatch
10
0
20
0
30
0
210
0
220
0
230
1
2
SOLID
70
1
71
0
91
1
92
7
72
0
73
1
93
33
10
43
20
2003
10
42.25
20
2002.625
10
41.5
20
2002.25
10
40.75
20
2001.875
10
40
20
2001.5
10
39.25
20
2001.125
10
38.5
20
2000.75
10
37.75000057220459
20
2000.3750002861022
10
37
20
2000
10
36.25
20
1999.625
10
35.5
20
1999.25
10
34.75000057220459
20
1998.8750002861022
10
34
20
1998.5
10
33.25
20
1998.125
10
32.50000114440918
20
1997.7500005722045
10
31.75
20
1997.375
10
31
20
1997
10
31.750000214576723
20
1996.6249998927117
10
32.500000429153445
20
1996.2499997854234
10
33.24999971389771
20
1995.8750001430512
10
34
20
1995.5
10
34.75000028610229
20
1995.1249998569488
10
35.49999942779541
20
1994.7500002861022
10
36.25000057220459
20
1994.3749997138978
10
37
20
1994
10
37.74999885559082
20
1993.6250005722045
10
38.50000057220459
20
1993.2499997138978
10
39.24999942779541
20
1992.8750002861022
10
39.99999885559082
20
1992.5000005722045
10
40.75
20
1992.125
10
41.49999885559082
20
1991.7500005722045
10
42.25
20
1991.375
10
43
20
1991
97
0
75
1
76
1
47
1
98
0
0
LWPOLYLINE
5
1F
330
C
100
AcDbEntity
420
4620980
8
0
100
AcDbPolyline
90
34
70
0
43
0
38
0
39
0
10
43
20
2003
10
42.25
20
2002.625
10
41.5
20
2002.25
10
40.75
20
2001.875
10
40
20
2001.5
10
39.25
20
2001.125
10
38.5
20
2000.75
10
37.75000057220459
20
2000.3750002861022
10
37
20
2000
10
36.25
20
1999.625
10
35.5
20
1999.25
10
34.75000057220459
20
1998.8750002861022
10
34
20
1998.5
10
33.25
20
1998.125
10
32.50000114440918
20
1997.7500005722045
10
31.75
20
1997.375
10
31
20
1997
10
31.750000214576723
20
1996.6249998927117
10
32.500000429153445
20
1996.2499997854234
10
33.24999971389771
20
1995.8750001430512
10
34
20
1995.5
10
34.75000028610229
20
1995.1249998569488
10
35.49999942779541
20
1994.7500002861022
10
36.25000057220459
20
1994.3749997138978
10
37
20
1994
10
37.74999885559082
20
1993.6250005722045
10
38.50000057220459
20
1993.2499997138978
10
39.24999942779541
20
1992.8750002861022
10
39.99999885559082
20
1992.5000005722045
10
40.75
20
1992.125
10
41.49999885559082
20
1991.7500005722045
10
42.25
20
1991.375
10
43
20
1991
10
43
20
2003
0
HATCH
5
20
330
C
100
AcDbEntity
420
4620980
8
0
100
AcDbHatch
10
0
20
0
30
0
210
0
220
0
230
1
2
SOLID
70
1
71
0
91
1
92
7
72
0
73
1
93
33
10
259
20
2003
10
259.75
20
2002.625
10
260.5
20
2002.25
10
261.25
20
2001.875
10
262
20
2001.5
10
262.75
20
2001.125
10
263.5
20
2000.75
10
264.2499994277954
20
2000.3750002861022
10
265
20
2000
10
265.75
20
1999.625
10
266.5
20
1999.25
10
267.2499994277954
20
1998.8750002861022
10
268
20
1998.5
10
268.75
20
1998.125
10
269.49999885559083
20
1997.7500005722045
10
270.25
20
1997.375
10
271
20
1997
10
270.25
20
1996.6249998927117
10
269.5
20
1996.2499997854234
10
268.75
20
1995.8750001430512
10
268
20
1995.5
10
267.25
20
1995.1249998569488
10
266.5000005722046
20
1994.7500002861022
10
265.7499994277954
20
1994.3749997138978
10
265
20
1994
10
264.25000114440917
20
1993.6250005722045
10
263.4999994277954
20
1993.2499997138978
10
262.7500005722046
20
1992.8750002861022
10
262.00000114440917
20
1992.5000005722045
10
261.25
20
1992.125
10
260.50000114440917
20
1991.7500005722045
10
259.75
20
1991.375
10
259
20
1991
97
0
75
1
76
1
47
1
98
0
0
LWPOLYLINE
5
21
330
C
100
AcDbEntity
420
4620980
8
0
100
AcDbPolyline
90
34
70
0
43
0
38
0
39
0
10
259
20
2003
10
259.75
20
2002.625
10
260.5
20
2002.25
10
261.25
20
2001.875
10
262
20
2001.5
10
262.75
20
2001.125
10
263.5
20
2000.75
10
264.2499994277954
20
2000.3750002861022
10
265
20
2000
10
265.75
20
1999.625
10
266.5
20
1999.25
10
267.2499994277954
20
1998.8750002861022
10
268
20
1998.5
10
268.75
20
1998.125
10
269.49999885559083
20
1997.7500005722045
10
270.25
20
1997.375
10
271
20
1997
10
270.25
20
1996.6249998927117
10
269.5
20
1996.2499997854234
10
268.75
20
1995.8750001430512
10
268
20
1995.5
10
267.25
20
1995.1249998569488
10
266.5000005722046
20
1994.7500002861022
10
265.7499994277954
20
1994.3749997138978
10
265
20
1994
10
264.25000114440917
20
1993.6250005722045
10
263.4999994277954
20
1993.2499997138978
10
262.7500005722046
20
1992.8750002861022
10
262.00000114440917
20
1992.5000005722045
10
261.25
20
1992.125
10
260.50000114440917
20
1991.7500005722045
10
259.75
20
1991.375
10
259
20
1991
10
259
20
2003
0
TEXT
5
22
330
C
100
AcDbEntity
420
5592405
8
0
100
AcDbText
10
0
20
1914
30
0
40
16
1
2. Inline SVG – Markers on polyline (start + mid + end)
7
Arial
100
AcDbText
0
LWPOLYLINE
5
23
330
C
100
AcDbEntity
420
14423100
8
0
100
AcDbPolyline
90
5
70
0
43
0
38
0
39
0
10
21
20
1824.5
10
81
20
1884.5
10
151
20
1844.5
10
221
20
1884.5
10
281
20
1824.5
0
HATCH
5
24
330
C
100
AcDbEntity
420
14423100
8
0
100
AcDbHatch
10
0
20
0
30
0
210
0
220
0
230
1
2
SOLID
70
1
71
0
91
1
92
7
72
0
73
1
93
33
10
276.7573593128807
20
1837.2279220613577
10
277.0225243558257
20
1836.432426932523
10
277.2876893987706
20
1835.6369318036882
10
277.55285444171557
20
1834.8414366748534
10
277.81801948466057
20
1834.0459415460184
10
278.08318452760545
20
1833.2504464171834
10
278.34834957055045
20
1832.4549512883486
10
278.6135144111905
20
1831.6594567664283
10
278.8786796564404
20
1830.8639610306789
10
279.1438446993853
20
1830.068465901844
10
279.4090097423302
20
1829.272970773009
10
279.67417458297035
20
1828.477476251089
10
279.93933982822017
20
1827.6819805153395
10
280.20450487116517
20
1826.8864853865045
10
280.4696695095003
20
1826.090991471499
10
280.73483495705506
20
1825.2954951288348
10
281
20
1824.5
10
280.2045047953008
20
1824.7651649670806
10
279.4090095906016
20
1825.0303299341613
10
278.61351471464786
20
1825.2954952299874
10
277.8180194846605
20
1825.5606601717798
10
277.0225242546732
20
1825.8258251135724
10
276.2270298339054
20
1826.090990055365
10
275.43153349124134
20
1826.3561555029196
10
274.6360389693211
20
1826.6213203435595
10
273.84054505431544
20
1826.886484981895
10
273.04504810473674
20
1827.1516506317544
10
272.2495541897311
20
1827.4168152700897
10
271.45405966781084
20
1827.6819801107297
10
270.6585633251467
20
1827.9471455582843
10
269.8630694101411
20
1828.2123101966197
10
269.06757306747704
20
1828.4774756441743
10
268.27207793864216
20
1828.7426406871193
97
0
75
1
76
1
47
1
98
0
0
LWPOLYLINE
5
25
330
C
100
AcDbEntity
420
14423100
8
0
100
AcDbPolyline
90
34
70
0
43
0
38
0
39
0
10
276.7573593128807
20
1837.2279220613577
10
277.0225243558257
20
1836.432426932523
10
277.2876893987706
20
1835.6369318036882
10
277.55285444171557
20
1834.8414366748534
10
277.81801948466057
20
1834.0459415460184
10
278.08318452760545
20
1833.2504464171834
10
278.34834957055045
20
1832.4549512883486
10
278.6135144111905
20
1831.6594567664283
10
278.8786796564404
20
1830.8639610306789
10
279.1438446993853
20
1830.068465901844
10
279.4090097423302
20
1829.272970773009
10
279.67417458297035
20
1828.477476251089
10
279.93933982822017
20
1827.6819805153395
10
280.20450487116517
20
1826.8864853865045
10
280.4696695095003
20
1826.090991471499
10
280.73483495705506
20
1825.2954951288348
10
281
20
1824.5
10
280.2045047953008
20
1824.7651649670806
10
279.4090095906016
20
1825.0303299341613
10
278.61351471464786
20
1825.2954952299874
10
277.8180194846605
20
1825.5606601717798
10
277.0225242546732
20
1825.8258251135724
10
276.2270298339054
20
1826.090990055365
10
275.43153349124134
20
1826.3561555029196
10
274.6360389693211
20
1826.6213203435595
10
273.84054505431544
20
1826.886484981895
10
273.04504810473674
20
1827.1516506317544
10
272.2495541897311
20
1827.4168152700897
10
271.45405966781084
20
1827.6819801107297
10
270.6585633251467
20
1827.9471455582843
10
269.8630694101411
20
1828.2123101966197
10
269.06757306747704
20
1828.4774756441743
10
268.27207793864216
20
1828.7426406871193
10
276.7573593128807
20
1837.2279220613577
0
TEXT
5
26
330
C
100
AcDbEntity
420
5592405
8
0
100
AcDbText
10
0
20
1761.5
30
0
40
16
1
3. Inline SVG – Marker on polygon vertices
7
Arial
100
AcDbText
0
LWPOLYLINE
5
27
330
C
100
AcDbEntity
420
16747520
8
0
100
AcDbPolyline
90
6
70
0
43
0
38
0
39
0
10
101
20
1732
10
181
20
1672
10
151
20
1582
10
51
20
1582
10
21
20
1672
10
101
20
1732
0
HATCH
5
28
330
C
100
AcDbEntity
420
16747520
8
0
100
AcDbHatch
10
0
20
0
30
0
210
0
220
0
230
1
2
SOLID
70
1
71
0
91
1
92
7
72
0
73
1
93
4
10
99.8
20
1740.4
10
109.4
20
1733.2
10
102.2
20
1723.6
10
92.60000000000001
20
1730.8
97
0
75
1
76
1
47
1
98
0
0
LWPOLYLINE
5
29
330
C
100
AcDbEntity
420
16747520
8
0
100
AcDbPolyline
90
5
70
0
43
0
38
0
39
0
10
99.8
20
1740.4
10
109.4
20
1733.2
10
102.2
20
1723.6
10
92.60000000000001
20
1730.8
10
99.8
20
1740.4
0
HATCH
5
2A
330
C
100
AcDbEntity
420
16747520
8
0
100
AcDbHatch
10
0
20
0
30
0
210
0
220
0
230
1
2
SOLID
70
1
71
0
91
1
92
7
72
0
73
1
93
4
10
184.79473319220205
20
1679.5894663844042
10
188.5894663844041
20
1668.205266807798
10
177.20526680779795
20
1664.4105336155958
10
173.4105336155959
20
1675.794733192202
97
0
75
1
76
1
47
1
98
0
0
LWPOLYLINE
5
2B
330
C
100
AcDbEntity
420
16747520
8
0
100
AcDbPolyline
90
5
70
0
43
0
38
0
39
0
10
184.79473319220205
20
1679.5894663844042
10
188.5894663844041
20
1668.205266807798
10
177.20526680779795
20
1664.4105336155958
10
173.4105336155959
20
1675.794733192202
10
184.79473319220205
20
1679.5894663844042
0
HATCH
5
2C
330
C
100
AcDbEntity
420
16747520
8
0
100
AcDbHatch
10
0
20
0
30
0
210
0
220
0
230
1
2
SOLID
70
1
71
0
91
1
92
7
72
0
73
1
93
4
10
159.34841302284454
20
1580.4821067231192
10
149.4821067231192
20
1573.6515869771556
10
142.65158697715546
20
1583.5178932768808
10
152.5178932768808
20
1590.3484130228444
97
0
75
1
76
1
47
1
98
0
0
LWPOLYLINE
5
2D
330
C
100
AcDbEntity
420
16747520
8
0
100
AcDbPolyline
90
5
70
0
43
0
38
0
39
0
10
159.34841302284454
20
1580.4821067231192
10
149.4821067231192
20
1573.6515869771556
10
142.65158697715546
20
1583.5178932768808
10
152.5178932768808
20
1590.3484130228444
10
159.34841302284454
20
1580.4821067231192
0
HATCH
5
2E
330
C
100
AcDbEntity
420
16747520
8
0
100
AcDbHatch
10
0
20
0
30
0
210
0
220
0
230
1
2
SOLID
70
1
71
0
91
1
92
7
72
0
73
1
93
4
10
52.51789327688083
20
1573.6515869771556
10
42.651586977155475
20
1580.4821067231192
10
49.48210672311917
20
1590.3484130228444
10
59.348413022844525
20
1583.5178932768808
97
0
75
1
76
1
47
1
98
0
0
LWPOLYLINE
5
2F
330
C
100
AcDbEntity
420
16747520
8
0
100
AcDbPolyline
90
5
70
0
43
0
38
0
39
0
10
52.51789327688083
20
1573.6515869771556
10
42.651586977155475
20
1580.4821067231192
10
49.48210672311917
20
1590.3484130228444
10
59.348413022844525
20
1583.5178932768808
10
52.51789327688083
20
1573.6515869771556
0
TEXT
5
30
330
C
100
AcDbEntity
420
5592405
8
0
100
AcDbText
10
0
20
1509
30
0
40
16
1
4. ViewBox scaling – large viewBox in small viewport
7
Arial
100
AcDbText
0
LWPOLYLINE
5
31
330
C
100
AcDbEntity
420
32768
8
0
100
AcDbPolyline
90
2
70
0
43
0
38
0
39
0
10
21.599999487400055
20
1450.5000012814999
10
178.3999953866005
20
1450.5000012814999
0
HATCH
5
32
330
C
100
AcDbEntity
420
32768
8
0
100
AcDbHatch
10
0
20
0
30
0
210
0
220
0
230
1
2
SOLID
70
1
71
0
91
1
92
7
72
0
73
1
93
33
10
166.63999569416046
20
1456.3800011277199
10
167.37499567493796
20
1456.0125011373311
10
168.10999565571547
20
1455.6450011469424
10
168.84499563649297
20
1455.2775011565536
10
169.57999561727047
20
1454.9100011661649
10
170.31499559804797
20
1454.5425011757761
10
171.04999557882547
20
1454.1750011853874
10
171.78499499884248
20
1453.807501475379
10
172.51999554038048
20
1453.4400012046099
10
173.25499552115798
20
1453.0725012142211
10
173.98999550193548
20
1452.7050012238324
10
174.72499492195251
20
1452.337501513824
10
175.4599954634905
20
1451.9700012430549
10
176.194995444268
20
1451.6025012526661
10
176.92999430352452
20
1451.2350018230377
10
177.664995405823
20
1450.8675012718886
10
178.3999953866005
20
1450.5000012814999
10
177.664995405823
20
1450.1325011859685
10
176.9299954250455
20
1449.7650010904372
10
176.194995444268
20
1449.3975014505236
10
175.4599954634905
20
1449.0300013199449
10
174.72499548271298
20
1448.6625011893661
10
173.98999606269598
20
1448.2950016195477
10
173.25499496039748
20
1447.9275010683982
10
172.51999554038048
20
1447.5600013583899
10
171.78499668112394
20
1447.1925019287614
10
171.04999501806498
20
1446.825001097232
10
170.31499615880847
20
1446.457501667604
10
169.57999673879144
20
1446.0900019575952
10
168.84499563649297
20
1445.722501406446
10
168.10999677723643
20
1445.3550019768177
10
167.37499567493796
20
1444.9875014256686
10
166.63999569416046
20
1444.6200014352798
97
0
75
1
76
1
47
1
98
0
0
LWPOLYLINE
5
33
330
C
100
AcDbEntity
420
32768
8
0
100
AcDbPolyline
90
34
70
0
43
0
38
0
39
0
10
166.63999569416046
20
1456.3800011277199
10
167.37499567493796
20
1456.0125011373311
10
168.10999565571547
20
1455.6450011469424
10
168.84499563649297
20
1455.2775011565536
10
169.57999561727047
20
1454.9100011661649
10
170.31499559804797
20
1454.5425011757761
10
171.04999557882547
20
1454.1750011853874
10
171.78499499884248
20
1453.807501475379
10
172.51999554038048
20
1453.4400012046099
10
173.25499552115798
20
1453.0725012142211
10
173.98999550193548
20
1452.7050012238324
10
174.72499492195251
20
1452.337501513824
10
175.4599954634905
20
1451.9700012430549
10
176.194995444268
20
1451.6025012526661
10
176.92999430352452
20
1451.2350018230377
10
177.664995405823
20
1450.8675012718886
10
178.3999953866005
20
1450.5000012814999
10
177.664995405823
20
1450.1325011859685
10
176.9299954250455
20
1449.7650010904372
10
176.194995444268
20
1449.3975014505236
10
175.4599954634905
20
1449.0300013199449
10
174.72499548271298
20
1448.6625011893661
10
173.98999606269598
20
1448.2950016195477
10
173.25499496039748
20
1447.9275010683982
10
172.51999554038048
20
1447.5600013583899
10
171.78499668112394
20
1447.1925019287614
10
171.04999501806498
20
1446.825001097232
10
170.31499615880847
20
1446.457501667604
10
169.57999673879144
20
1446.0900019575952
10
168.84499563649297
20
1445.722501406446
10
168.10999677723643
20
1445.3550019768177
10
167.37499567493796
20
1444.9875014256686
10
166.63999569416046
20
1444.6200014352798
10
166.63999569416046
20
1456.3800011277199
0
TEXT
5
34
330
C
100
AcDbEntity
420
5592405
8
0
100
AcDbText
10
0
20
1356.5
30
0
40
16
1
5. ViewBox scaling – small viewBox in large viewport
7
Arial
100
AcDbText
0
LWPOLYLINE
5
35
330
C
100
AcDbEntity
420
8388736
8
0
100
AcDbPolyline
90
2
70
0
43
0
38
0
39
0
10
41.60000038146973
20
1247.9999990463257
10
358.40000343322754
20
1247.9999990463257
0
HATCH
5
36
330
C
100
AcDbEntity
420
8388736
8
0
100
AcDbHatch
10
0
20
0
30
0
210
0
220
0
230
1
2
SOLID
70
1
71
0
91
1
92
7
72
0
73
1
93
33
10
310.88000297546387
20
1271.7599992752075
10
313.8500030040741
20
1270.2749992609024
10
316.8200030326843
20
1268.7899992465973
10
319.79000306129456
20
1267.3049992322922
10
322.7600030899048
20
1265.819999217987
10
325.730003118515
20
1264.334999203682
10
328.70000314712524
20
1262.8499991893768
10
331.67000090980525
20
1261.3650003080368
10
334.6400032043457
20
1259.8799991607666
10
337.61000323295593
20
1258.3949991464615
10
340.58000326156616
20
1256.9099991321564
10
343.55000102424617
20
1255.4250002508163
10
346.5200033187866
20
1253.9399991035461
10
349.49000334739685
20
1252.454999089241
10
352.4599988441467
20
1250.970001340866
10
355.4300034046173
20
1249.4849990606308
10
358.40000343322754
20
1247.9999990463257
10
355.4300034046173
20
1246.5149986071588
10
352.4600033760071
20
1245.0299981679916
10
349.49000334739685
20
1243.5449995698928
10
346.5200033187866
20
1242.0599989891052
10
343.5500032901764
20
1240.5749984083177
10
340.5800055274964
20
1239.09000009346
10
337.6100009670257
20
1237.6049978132248
10
334.6400032043457
20
1236.1199989318848
10
331.67000770759586
20
1234.6350011835098
10
328.700000881195
20
1233.1499977703095
10
325.73000538444523
20
1231.6650000219345
10
322.76000762176517
20
1230.1800011405944
10
319.79000306129456
20
1228.6949988603592
10
316.8200075645447
20
1227.2100011119842
10
313.8500030040741
20
1225.724998831749
10
310.88000297546387
20
1224.2399988174438
97
0
75
1
76
1
47
1
98
0
0
LWPOLYLINE
5
37
330
C
100
AcDbEntity
420
8388736
8
0
100
AcDbPolyline
90
34
70
0
43
0
38
0
39
0
10
310.88000297546387
20
1271.7599992752075
10
313.8500030040741
20
1270.2749992609024
10
316.8200030326843
20
1268.7899992465973
10
319.79000306129456
20
1267.3049992322922
10
322.7600030899048
20
1265.819999217987
10
325.730003118515
20
1264.334999203682
10
328.70000314712524
20
1262.8499991893768
10
331.67000090980525
20
1261.3650003080368
10
334.6400032043457
20
1259.8799991607666
10
337.61000323295593
20
1258.3949991464615
10
340.58000326156616
20
1256.9099991321564
10
343.55000102424617
20
1255.4250002508163
10
346.5200033187866
20
1253.9399991035461
10
349.49000334739685
20
1252.454999089241
10
352.4599988441467
20
1250.970001340866
10
355.4300034046173
20
1249.4849990606308
10
358.40000343322754
20
1247.9999990463257
10
355.4300034046173
20
1246.5149986071588
10
352.4600033760071
20
1245.0299981679916
10
349.49000334739685
20
1243.5449995698928
10
346.5200033187866
20
1242.0599989891052
10
343.5500032901764
20
1240.5749984083177
10
340.5800055274964
20
1239.09000009346
10
337.6100009670257
20
1237.6049978132248
10
334.6400032043457
20
1236.1199989318848
10
331.67000770759586
20
1234.6350011835098
10
328.700000881195
20
1233.1499977703095
10
325.73000538444523
20
1231.6650000219345
10
322.76000762176517
20
1230.1800011405944
10
319.79000306129456
20
1228.6949988603592
10
316.8200075645447
20
1227.2100011119842
10
313.8500030040741
20
1225.724998831749
10
310.88000297546387
20
1224.2399988174438
10
310.88000297546387
20
1271.7599992752075
0
TEXT
5
38
330
C
100
AcDbEntity
420
5592405
8
0
100
AcDbText
10
0
20
1104
30
0
40
16
1
6. Group transform (scale 2x)
7
Arial
100
AcDbText
0
LWPOLYLINE
5
39
330
C
100
AcDbEntity
420
32896
8
0
100
AcDbPolyline
90
2
70
0
43
0
38
0
39
0
10
41
20
1034.5
10
261
20
1034.5
0
HATCH
5
3A
330
C
100
AcDbEntity
420
32896
8
0
100
AcDbHatch
10
0
20
0
30
0
210
0
220
0
230
1
2
SOLID
70
1
71
0
91
1
92
7
72
0
73
1
93
33
10
249
20
1040.5
10
249.75
20
1040.125
10
250.5
20
1039.75
10
251.25
20
1039.375
10
252
20
1039
10
252.75
20
1038.625
10
253.5
20
1038.25
10
254.2499994277954
20
1037.8750002861022
10
255
20
1037.5
10
255.75
20
1037.125
10
256.5
20
1036.75
10
257.2499994277954
20
1036.3750002861022
10
258
20
1036
10
258.75
20
1035.625
10
259.49999885559083
20
1035.2500005722045
10
260.25
20
1034.875
10
261
20
1034.5
10
260.25
20
1034.1249998927117
10
259.5
20
1033.7499997854234
10
258.75
20
1033.3750001430512
10
258
20
1033
10
257.25
20
1032.6249998569488
10
256.5000005722046
20
1032.2500002861022
10
255.7499994277954
20
1031.8749997138978
10
255
20
1031.5
10
254.25000114440917
20
1031.1250005722045
10
253.4999994277954
20
1030.7499997138978
10
252.7500005722046
20
1030.3750002861022
10
252.00000114440917
20
1030.0000005722045
10
251.25
20
1029.625
10
250.50000114440917
20
1029.2500005722045
10
249.75
20
1028.875
10
249
20
1028.5
97
0
75
1
76
1
47
1
98
0
0
LWPOLYLINE
5
3B
330
C
100
AcDbEntity
420
32896
8
0
100
AcDbPolyline
90
34
70
0
43
0
38
0
39
0
10
249
20
1040.5
10
249.75
20
1040.125
10
250.5
20
1039.75
10
251.25
20
1039.375
10
252
20
1039
10
252.75
20
1038.625
10
253.5
20
1038.25
10
254.2499994277954
20
1037.8750002861022
10
255
20
1037.5
10
255.75
20
1037.125
10
256.5
20
1036.75
10
257.2499994277954
20
1036.3750002861022
10
258
20
1036
10
258.75
20
1035.625
10
259.49999885559083
20
1035.2500005722045
10
260.25
20
1034.875
10
261
20
1034.5
10
260.25
20
1034.1249998927117
10
259.5
20
1033.7499997854234
10
258.75
20
1033.3750001430512
10
258
20
1033
10
257.25
20
1032.6249998569488
10
256.5000005722046
20
1032.2500002861022
10
255.7499994277954
20
1031.8749997138978
10
255
20
1031.5
10
254.25000114440917
20
1031.1250005722045
10
253.4999994277954
20
1030.7499997138978
10
252.7500005722046
20
1030.3750002861022
10
252.00000114440917
20
1030.0000005722045
10
251.25
20
1029.625
10
250.50000114440917
20
1029.2500005722045
10
249.75
20
1028.875
10
249
20
1028.5
10
249
20
1040.5
0
TEXT
5
3C
330
C
100
AcDbEntity
420
5592405
8
0
100
AcDbText
10
0
20
931.5
30
0
40
16
1
7. Varying stroke widths with same marker
7
Arial
100
AcDbText
0
LWPOLYLINE
5
3D
330
C
100
AcDbEntity
420
0
8
0
100
AcDbPolyline
90
2
70
0
43
0
38
0
39
0
10
21
20
902
10
281
20
902
0
HATCH
5
3E
330
C
100
AcDbEntity
420
0
8
0
100
AcDbHatch
10
0
20
0
30
0
210
0
220
0
230
1
2
SOLID
70
1
71
0
91
1
92
7
72
0
73
1
93
33
10
275
20
905
10
275.375
20
904.8125
10
275.75
20
904.625
10
276.125
20
904.4375
10
276.5
20
904.25
10
276.875
20
904.0625
10
277.25
20
903.875
10
277.6249997138977
20
903.6875001430512
10
278
20
903.5
10
278.375
20
903.3125
10
278.75
20
903.125
10
279.1249997138977
20
902.9375001430512
10
279.5
20
902.75
10
279.875
20
902.5625
10
280.2499994277954
20
902.3750002861022
10
280.625
20
902.1875
10
281
20
902
10
280.625
20
901.8124999463557
10
280.25
20
901.6249998927117
10
279.875
20
901.4375000715256
10
279.5
20
901.25
10
279.125
20
901.0624999284744
10
278.7500002861023
20
900.8750001430512
10
278.3749997138977
20
900.6874998569488
10
278
20
900.5
10
277.6250005722046
20
900.3125002861022
10
277.2499997138977
20
900.1249998569488
10
276.8750002861023
20
899.9375001430512
10
276.5000005722046
20
899.7500002861022
10
276.125
20
899.5625
10
275.7500005722046
20
899.3750002861022
10
275.375
20
899.1875
10
275
20
899
97
0
75
1
76
1
47
1
98
0
0
LWPOLYLINE
5
3F
330
C
100
AcDbEntity
420
0
8
0
100
AcDbPolyline
90
34
70
0
43
0
38
0
39
0
10
275
20
905
10
275.375
20
904.8125
10
275.75
20
904.625
10
276.125
20
904.4375
10
276.5
20
904.25
10
276.875
20
904.0625
10
277.25
20
903.875
10
277.6249997138977
20
903.6875001430512
10
278
20
903.5
10
278.375
20
903.3125
10
278.75
20
903.125
10
279.1249997138977
20
902.9375001430512
10
279.5
20
902.75
10
279.875
20
902.5625
10
280.2499994277954
20
902.3750002861022
10
280.625
20
902.1875
10
281
20
902
10
280.625
20
901.8124999463557
10
280.25
20
901.6249998927117
10
279.875
20
901.4375000715256
10
279.5
20
901.25
10
279.125
20
901.0624999284744
10
278.7500002861023
20
900.8750001430512
10
278.3749997138977
20
900.6874998569488
10
278
20
900.5
10
277.6250005722046
20
900.3125002861022
10
277.2499997138977
20
900.1249998569488
10
276.8750002861023
20
899.9375001430512
10
276.5000005722046
20
899.7500002861022
10
276.125
20
899.5625
10
275.7500005722046
20
899.3750002861022
10
275.375
20
899.1875
10
275
20
899
10
275
20
905
0
LWPOLYLINE
5
40
330
C
100
AcDbEntity
420
0
8
0
100
AcDbPolyline
90
2
70
0
43
0
38
0
39
0
10
21
20
872
10
281
20
872
0
HATCH
5
41
330
C
100
AcDbEntity
420
0
8
0
100
AcDbHatch
10
0
20
0
30
0
210
0
220
0
230
1
2
SOLID
70
1
71
0
91
1
92
7
72
0
73
1
93
33
10
263
20
881
10
264.125
20
880.4375
10
265.25
20
879.875
10
266.375
20
879.3125
10
267.5
20
878.75
10
268.625
20
878.1875
10
269.75
20
877.625
10
270.87499914169314
20
877.0625004291535
10
272
20
876.5
10
273.125
20
875.9375
10
274.25
20
875.375
10
275.37499914169314
20
874.8125004291535
10
276.5
20
874.25
10
277.625
20
873.6875
10
278.7499982833862
20
873.125000858307
10
279.875
20
872.5625
10
281
20
872
10
279.875
20
871.4374998390674
10
278.75
20
870.8749996781348
10
277.625
20
870.3125002145766
10
276.5
20
869.75
10
275.375
20
869.1874997854234
10
274.25000085830686
20
868.6250004291535
10
273.12499914169314
20
868.0624995708465
10
272
20
867.5
10
270.8750017166138
20
866.937500858307
10
269.74999914169314
20
866.3749995708465
10
268.62500085830686
20
865.8125004291535
10
267.5000017166138
20
865.250000858307
10
266.375
20
864.6875
10
265.2500017166138
20
864.125000858307
10
264.125
20
863.5625
10
263
20
863
97
0
75
1
76
1
47
1
98
0
0
LWPOLYLINE
5
42
330
C
100
AcDbEntity
420
0
8
0
100
AcDbPolyline
90
34
70
0
43
0
38
0
39
0
10
263
20
881
10
264.125
20
880.4375
10
265.25
20
879.875
10
266.375
20
879.3125
10
267.5
20
878.75
10
268.625
20
878.1875
10
269.75
20
877.625
10
270.87499914169314
20
877.0625004291535
10
272
20
876.5
10
273.125
20
875.9375
10
274.25
20
875.375
10
275.37499914169314
20
874.8125004291535
10
276.5
20
874.25
10
277.625
20
873.6875
10
278.7499982833862
20
873.125000858307
10
279.875
20
872.5625
10
281
20
872
10
279.875
20
871.4374998390674
10
278.75
20
870.8749996781348
10
277.625
20
870.3125002145766
10
276.5
20
869.75
10
275.375
20
869.1874997854234
10
274.25000085830686
20
868.6250004291535
10
273.12499914169314
20
868.0624995708465
10
272
20
867.5
10
270.8750017166138
20
866.937500858307
10
269.74999914169314
20
866.3749995708465
10
268.62500085830686
20
865.8125004291535
10
267.5000017166138
20
865.250000858307
10
266.375
20
864.6875
10
265.2500017166138
20
864.125000858307
10
264.125
20
863.5625
10
263
20
863
10
263
20
881
0
LWPOLYLINE
5
43
330
C
100
AcDbEntity
420
0
8
0
100
AcDbPolyline
90
2
70
0
43
0
38
0
39
0
10
21
20
832
10
281
20
832
0
HATCH
5
44
330
C
100
AcDbEntity
420
0
8
0
100
AcDbHatch
10
0
20
0
30
0
210
0
220
0
230
1
2
SOLID
70
1
71
0
91
1
92
7
72
0
73
1
93
33
10
245
20
850
10
247.25
20
848.875
10
249.5
20
847.75
10
251.75
20
846.625
10
254
20
845.5
10
256.25
20
844.375
10
258.5
20
843.25
10
260.7499982833862
20
842.125000858307
10
263
20
841
10
265.25
20
839.875
10
267.5
20
838.75
10
269.7499982833862
20
837.625000858307
10
272
20
836.5
10
274.25
20
835.375
10
276.49999656677244
20
834.2500017166137
10
278.75
20
833.125
10
281
20
832
10
278.75
20
830.8749996781348
10
276.5
20
829.7499993562699
10
274.25
20
828.6250004291535
10
272
20
827.5
10
269.75
20
826.3749995708465
10
267.5000017166138
20
825.250000858307
10
265.2499982833862
20
824.124999141693
10
263
20
823
10
260.75000343322756
20
821.8750017166137
10
258.4999982833862
20
820.749999141693
10
256.2500017166138
20
819.625000858307
10
254.00000343322756
20
818.5000017166137
10
251.75
20
817.375
10
249.50000343322756
20
816.2500017166137
10
247.25
20
815.125
10
245
20
814
97
0
75
1
76
1
47
1
98
0
0
LWPOLYLINE
5
45
330
C
100
AcDbEntity
420
0
8
0
100
AcDbPolyline
90
34
70
0
43
0
38
0
39
0
10
245
20
850
10
247.25
20
848.875
10
249.5
20
847.75
10
251.75
20
846.625
10
254
20
845.5
10
256.25
20
844.375
10
258.5
20
843.25
10
260.7499982833862
20
842.125000858307
10
263
20
841
10
265.25
20
839.875
10
267.5
20
838.75
10
269.7499982833862
20
837.625000858307
10
272
20
836.5
10
274.25
20
835.375
10
276.49999656677244
20
834.2500017166137
10
278.75
20
833.125
10
281
20
832
10
278.75
20
830.8749996781348
10
276.5
20
829.7499993562699
10
274.25
20
828.6250004291535
10
272
20
827.5
10
269.75
20
826.3749995708465
10
267.5000017166138
20
825.250000858307
10
265.2499982833862
20
824.124999141693
10
263
20
823
10
260.75000343322756
20
821.8750017166137
10
258.4999982833862
20
820.749999141693
10
256.2500017166138
20
819.625000858307
10
254.00000343322756
20
818.5000017166137
10
251.75
20
817.375
10
249.50000343322756
20
816.2500017166137
10
247.25
20
815.125
10
245
20
814
10
245
20
850
0
TEXT
5
46
330
C
100
AcDbEntity
420
5592405
8
0
100
AcDbText
10
0
20
759
30
0
40
16
1
8. markerUnits="userSpaceOnUse"
7
Arial
100
AcDbText
0
LWPOLYLINE
5
47
330
C
100
AcDbEntity
420
128
8
0
100
AcDbPolyline
90
2
70
0
43
0
38
0
39
0
10
31
20
709.5
10
271
20
709.5
0
HATCH
5
48
330
C
100
AcDbEntity
420
128
8
0
100
AcDbHatch
10
0
20
0
30
0
210
0
220
0
230
1
2
SOLID
70
1
71
0
91
1
92
7
72
0
73
1
93
33
10
256
20
717
10
256.9375
20
716.53125
10
257.875
20
716.0625
10
258.8125
20
715.59375
10
259.75
20
715.125
10
260.6875
20
714.65625
10
261.625
20
714.1875
10
262.56249928474426
20
713.7187503576279
10
263.5
20
713.25
10
264.4375
20
712.78125
10
265.375
20
712.3125
10
266.31249928474426
20
711.8437503576279
10
267.25
20
711.375
10
268.1875
20
710.90625
10
269.1249985694885
20
710.4375007152557
10
270.0625
20
709.96875
10
271
20
709.5
10
270.0625
20
709.0312498658895
10
269.125
20
708.5624997317791
10
268.1875
20
708.0937501788139
10
267.25
20
707.625
10
266.3125
20
707.1562498211861
10
265.37500071525574
20
706.6875003576279
10
264.43749928474426
20
706.2187496423721
10
263.5
20
705.75
10
262.5625014305115
20
705.2812507152557
10
261.62499928474426
20
704.8124996423721
10
260.68750071525574
20
704.3437503576279
10
259.7500014305115
20
703.8750007152557
10
258.8125
20
703.40625
10
257.8750014305115
20
702.9375007152557
10
256.9375
20
702.46875
10
256
20
702
97
0
75
1
76
1
47
1
98
0
0
LWPOLYLINE
5
49
330
C
100
AcDbEntity
420
128
8
0
100
AcDbPolyline
90
34
70
0
43
0
38
0
39
0
10
256
20
717
10
256.9375
20
716.53125
10
257.875
20
716.0625
10
258.8125
20
715.59375
10
259.75
20
715.125
10
260.6875
20
714.65625
10
261.625
20
714.1875
10
262.56249928474426
20
713.7187503576279
10
263.5
20
713.25
10
264.4375
20
712.78125
10
265.375
20
712.3125
10
266.31249928474426
20
711.8437503576279
10
267.25
20
711.375
10
268.1875
20
710.90625
10
269.1249985694885
20
710.4375007152557
10
270.0625
20
709.96875
10
271
20
709.5
10
270.0625
20
709.0312498658895
10
269.125
20
708.5624997317791
10
268.1875
20
708.0937501788139
10
267.25
20
707.625
10
266.3125
20
707.1562498211861
10
265.37500071525574
20
706.6875003576279
10
264.43749928474426
20
706.2187496423721
10
263.5
20
705.75
10
262.5625014305115
20
705.2812507152557
10
261.62499928474426
20
704.8124996423721
10
260.68750071525574
20
704.3437503576279
10
259.7500014305115
20
703.8750007152557
10
258.8125
20
703.40625
10
257.8750014305115
20
702.9375007152557
10
256.9375
20
702.46875
10
256
20
702
10
256
20
717
0
TEXT
5
4A
330
C
100
AcDbEntity
420
5592405
8
0
100
AcDbText
10
0
20
626.5
30
0
40
16
1
9. SVG with markers as <img> tag
7
Arial
100
AcDbText
0
LWPOLYLINE
5
4B
330
C
100
AcDbEntity
420
13421772
8
0
100
AcDbPolyline
90
5
70
0
43
0
38
0
39
0
10
0
20
618
10
200
20
618
10
200
20
538
10
0
20
538
10
0
20
618
0
LWPOLYLINE
5
4C
330
C
100
AcDbEntity
420
15022389
8
0
100
AcDbPolyline
90
2
70
0
43
0
38
0
39
0
10
20
20
578
10
180
20
578
0
HATCH
5
4D
330
C
100
AcDbEntity
420
15022389
8
0
100
AcDbHatch
10
0
20
0
30
0
210
0
220
0
230
1
2
SOLID
70
1
71
0
91
1
92
7
72
0
73
1
93
33
10
168
20
584
10
168.75
20
583.625
10
169.5
20
583.25
10
170.25
20
582.875
10
171
20
582.5
10
171.75
20
582.125
10
172.5
20
581.75
10
173.24999942779542
20
581.3750002861022
10
174
20
581
10
174.75
20
580.625
10
175.5
20
580.25
10
176.24999942779542
20
579.8750002861022
10
177
20
579.5
10
177.75
20
579.125
10
178.49999885559083
20
578.7500005722045
10
179.25
20
578.375
10
180
20
578
10
179.25
20
577.6249998927117
10
178.5
20
577.2499997854234
10
177.75
20
576.8750001430512
10
177
20
576.5
10
176.25
20
576.1249998569488
10
175.50000057220458
20
575.7500002861022
10
174.74999942779542
20
575.3749997138978
10
174
20
575
10
173.25000114440917
20
574.6250005722045
10
172.49999942779542
20
574.2499997138978
10
171.75000057220458
20
573.8750002861022
10
171.00000114440917
20
573.5000005722045
10
170.25
20
573.125
10
169.50000114440917
20
572.7500005722045
10
168.75
20
572.375
10
168
20
572
97
0
75
1
76
1
47
1
98
0
0
LWPOLYLINE
5
4E
330
C
100
AcDbEntity
420
15022389
8
0
100
AcDbPolyline
90
34
70
0
43
0
38
0
39
0
10
168
20
584
10
168.75
20
583.625
10
169.5
20
583.25
10
170.25
20
582.875
10
171
20
582.5
10
171.75
20
582.125
10
172.5
20
581.75
10
173.24999942779542
20
581.3750002861022
10
174
20
581
10
174.75
20
580.625
10
175.5
20
580.25
10
176.24999942779542
20
579.8750002861022
10
177
20
579.5
10
177.75
20
579.125
10
178.49999885559083
20
578.7500005722045
10
179.25
20
578.375
10
180
20
578
10
179.25
20
577.6249998927117
10
178.5
20
577.2499997854234
10
177.75
20
576.8750001430512
10
177
20
576.5
10
176.25
20
576.1249998569488
10
175.50000057220458
20
575.7500002861022
10
174.74999942779542
20
575.3749997138978
10
174
20
575
10
173.25000114440917
20
574.6250005722045
10
172.49999942779542
20
574.2499997138978
10
171.75000057220458
20
573.8750002861022
10
171.00000114440917
20
573.5000005722045
10
170.25
20
573.125
10
169.50000114440917
20
572.7500005722045
10
168.75
20
572.375
10
168
20
572
10
168
20
584
0
TEXT
5
4F
330
C
100
AcDbEntity
420
8947848
8
0
100
AcDbText
10
30
20
521.5
30
0
40
12
1
img tag (no viewBox scaling)
7
Arial
100
AcDbText
0
LWPOLYLINE
5
50
330
C
100
AcDbEntity
420
13421772
8
0
100
AcDbPolyline
90
5
70
0
43
0
38
0
39
0
10
224
20
618
10
424
20
618
10
424
20
538
10
224
20
538
10
224
20
618
0
LWPOLYLINE
5
51
330
C
100
AcDbEntity
420
2001125
8
0
100
AcDbPolyline
90
2
70
0
43
0
38
0
39
0
10
244
20
578
10
404
20
578
0
HATCH
5
52
330
C
100
AcDbEntity
420
2001125
8
0
100
AcDbHatch
10
0
20
0
30
0
210
0
220
0
230
1
2
SOLID
70
1
71
0
91
1
92
7
72
0
73
1
93
33
10
392
20
584
10
392.75
20
583.625
10
393.5
20
583.25
10
394.25
20
582.875
10
395
20
582.5
10
395.75
20
582.125
10
396.5
20
581.75
10
397.2499994277954
20
581.3750002861022
10
398
20
581
10
398.75
20
580.625
10
399.5
20
580.25
10
400.2499994277954
20
579.8750002861022
10
401
20
579.5
10
401.75
20
579.125
10
402.49999885559083
20
578.7500005722045
10
403.25
20
578.375
10
404
20
578
10
403.25
20
577.6249998927117
10
402.5
20
577.2499997854234
10
401.75
20
576.8750001430512
10
401
20
576.5
10
400.25
20
576.1249998569488
10
399.5000005722046
20
575.7500002861022
10
398.7499994277954
20
575.3749997138978
10
398
20
575
10
397.25000114440917
20
574.6250005722045
10
396.4999994277954
20
574.2499997138978
10
395.7500005722046
20
573.8750002861022
10
395.00000114440917
20
573.5000005722045
10
394.25
20
573.125
10
393.50000114440917
20
572.7500005722045
10
392.75
20
572.375
10
392
20
572
97
0
75
1
76
1
47
1
98
0
0
LWPOLYLINE
5
53
330
C
100
AcDbEntity
420
2001125
8
0
100
AcDbPolyline
90
34
70
0
43
0
38
0
39
0
10
392
20
584
10
392.75
20
583.625
10
393.5
20
583.25
10
394.25
20
582.875
10
395
20
582.5
10
395.75
20
582.125
10
396.5
20
581.75
10
397.2499994277954
20
581.3750002861022
10
398
20
581
10
398.75
20
580.625
10
399.5
20
580.25
10
400.2499994277954
20
579.8750002861022
10
401
20
579.5
10
401.75
20
579.125
10
402.49999885559083
20
578.7500005722045
10
403.25
20
578.375
10
404
20
578
10
403.25
20
577.6249998927117
10
402.5
20
577.2499997854234
10
401.75
20
576.8750001430512
10
401
20
576.5
10
400.25
20
576.1249998569488
10
399.5000005722046
20
575.7500002861022
10
398.7499994277954
20
575.3749997138978
10
398
20
575
10
397.25000114440917
20
574.6250005722045
10
396.4999994277954
20
574.2499997138978
10
395.7500005722046
20
573.8750002861022
10
395.00000114440917
20
573.5000005722045
10
394.25
20
573.125
10
393.50000114440917
20
572.7500005722045
10
392.75
20
572.375
10
392
20
572
10
392
20
584
0
TEXT
5
54
330
C
100
AcDbEntity
420
8947848
8
0
100
AcDbText
10
231.06666564941406
20
521.5
30
0
40
12
1
img tag (viewBox 400x160 → 200x80)
7
Arial
100
AcDbText
0
TEXT
5
55
330
C
100
AcDbEntity
420
5592405
8
0
100
AcDbText
10
0
20
480.5
30
0
40
16
1
10. SVG with markers as CSS background-image
7
Arial
100
AcDbText
0
LWPOLYLINE
5
56
330
C
100
AcDbEntity
420
13421772
8
0
100
AcDbPolyline
90
5
70
0
43
0
38
0
39
0
10
0
20
472
10
200
20
472
10
200
20
392
10
0
20
392
10
0
20
472
0
LWPOLYLINE
5
57
330
C
100
AcDbEntity
420
4431943
8
0
100
AcDbPolyline
90
2
70
0
43
0
38
0
39
0
10
20
20
432
10
180
20
432
0
HATCH
5
58
330
C
100
AcDbEntity
420
4431943
8
0
100
AcDbHatch
10
0
20
0
30
0
210
0
220
0
230
1
2
SOLID
70
1
71
0
91
1
92
7
72
0
73
1
93
33
10
168
20
438
10
168.75
20
437.625
10
169.5
20
437.25
10
170.25
20
436.875
10
171
20
436.5
10
171.75
20
436.125
10
172.5
20
435.75
10
173.24999942779542
20
435.37500028610225
10
174
20
435
10
174.75
20
434.625
10
175.5
20
434.25
10
176.24999942779542
20
433.87500028610225
10
177
20
433.5
10
177.75
20
433.125
10
178.49999885559083
20
432.7500005722045
10
179.25
20
432.375
10
180
20
432
10
179.25
20
431.6249998927117
10
178.5
20
431.24999978542337
10
177.75
20
430.87500014305124
10
177
20
430.5
10
176.25
20
430.12499985694876
10
175.50000057220458
20
429.75000028610225
10
174.74999942779542
20
429.37499971389775
10
174
20
429
10
173.25000114440917
20
428.6250005722045
10
172.49999942779542
20
428.24999971389775
10
171.75000057220458
20
427.87500028610225
10
171.00000114440917
20
427.5000005722045
10
170.25
20
427.125
10
169.50000114440917
20
426.7500005722045
10
168.75
20
426.375
10
168
20
426
97
0
75
1
76
1
47
1
98
0
0
LWPOLYLINE
5
59
330
C
100
AcDbEntity
420
4431943
8
0
100
AcDbPolyline
90
34
70
0
43
0
38
0
39
0
10
168
20
438
10
168.75
20
437.625
10
169.5
20
437.25
10
170.25
20
436.875
10
171
20
436.5
10
171.75
20
436.125
10
172.5
20
435.75
10
173.24999942779542
20
435.37500028610225
10
174
20
435
10
174.75
20
434.625
10
175.5
20
434.25
10
176.24999942779542
20
433.87500028610225
10
177
20
433.5
10
177.75
20
433.125
10
178.49999885559083
20
432.7500005722045
10
179.25
20
432.375
10
180
20
432
10
179.25
20
431.6249998927117
10
178.5
20
431.24999978542337
10
177.75
20
430.87500014305124
10
177
20
430.5
10
176.25
20
430.12499985694876
10
175.50000057220458
20
429.75000028610225
10
174.74999942779542
20
429.37499971389775
10
174
20
429
10
173.25000114440917
20
428.6250005722045
10
172.49999942779542
20
428.24999971389775
10
171.75000057220458
20
427.87500028610225
10
171.00000114440917
20
427.5000005722045
10
170.25
20
427.125
10
169.50000114440917
20
426.7500005722045
10
168.75
20
426.375
10
168
20
426
10
168
20
438
0
TEXT
5
5A
330
C
100
AcDbEntity
420
8947848
8
0
100
AcDbText
10
2.4666671752929688
20
375.5
30
0
40
12
1
background-image (no viewBox scaling)
7
Arial
100
AcDbText
0
TEXT
5
5B
330
C
100
AcDbEntity
420
5592405
8
0
100
AcDbText
10
0
20
334.5
30
0
40
16
1
11. Curved path with marker-start and marker-end
7
Arial
100
AcDbText
0
LWPOLYLINE
5
5C
330
C
100
AcDbEntity
420
15277667
8
0
100
AcDbPolyline
90
148
70
0
43
0
38
0
39
0
10
21
20
225
10
22.469646453857422
20
226.3488311767578
10
23.946937561035156
20
227.6892852783203
10
25.431955337524414
20
229.02117156982422
10
26.924774169921875
20
230.3443145751953
10
28.42548179626465
20
231.65850067138672
10
29.934162139892578
20
232.9635238647461
10
31.45090103149414
20
234.25917053222656
10
32.97573661804199
20
235.5452880859375
10
34.50873565673828
20
236.82166290283203
10
36.04996109008789
20
238.08808135986328
10
37.599491119384766
20
239.34432983398438
10
39.157413482666016
20
240.59015655517578
10
40.72378921508789
20
241.8253402709961
10
42.29866409301758
20
243.0496597290039
10
43.8820915222168
20
244.26290130615234
10
45.474124908447266
20
245.46483612060547
10
47.074806213378906
20
246.65522003173828
10
48.684326171875
20
247.83363342285156
10
50.3026008605957
20
249.00000762939453
10
51.929656982421875
20
250.1540756225586
10
53.565704345703125
20
251.29535675048828
10
55.210628509521484
20
252.42381286621094
10
56.864559173583984
20
253.53902435302734
10
58.527503967285156
20
254.64075469970703
10
60.19950866699219
20
255.72866821289062
10
61.880584716796875
20
256.8025436401367
10
63.570823669433594
20
257.8619155883789
10
65.2701416015625
20
258.9066619873047
10
66.9786605834961
20
259.9363021850586
10
68.69635009765625
20
260.95056915283203
10
70.4231948852539
20
261.9491767883301
10
72.15918731689453
20
262.9317817687988
10
73.90438842773438
20
263.89794921875
10
75.65875244140625
20
264.84736251831055
10
77.4222412109375
20
265.7797088623047
10
79.19483947753906
20
266.69462966918945
10
80.97650909423828
20
267.5917625427246
10
82.7672119140625
20
268.47072982788086
10
84.56687927246094
20
269.3311653137207
10
86.3754653930664
20
270.17270278930664
10
88.19290161132812
20
270.99497985839844
10
90.01908874511719
20
271.79761505126953
10
91.85398864746094
20
272.58010482788086
10
93.69747161865234
20
273.34221267700195
10
95.54938507080078
20
274.0835609436035
10
97.40959930419922
20
274.8037910461426
10
99.278076171875
20
275.5023078918457
10
101.15459442138672
20
276.1789665222168
10
103.03897857666016
20
276.83336639404297
10
104.93114471435547
20
277.46495819091797
10
106.83079528808594
20
278.07364654541016
10
108.73783874511719
20
278.6587448120117
10
110.65196228027344
20
279.2202339172363
10
112.57305908203125
20
279.7574234008789
10
114.50079345703125
20
280.27029037475586
10
116.43498229980469
20
280.75822830200195
10
118.37532806396484
20
281.22108459472656
10
120.321533203125
20
281.6585578918457
10
122.27340698242188
20
282.0701370239258
10
124.23056030273438
20
282.4557571411133
10
126.19270324707031
20
282.81512451171875
10
128.1595458984375
20
283.14778900146484
10
130.1307373046875
20
283.45365142822266
10
132.10594177246094
20
283.7325096130371
10
134.0847930908203
20
283.9841423034668
10
136.0669403076172
20
284.208251953125
10
138.052001953125
20
284.40470123291016
10
140.03965759277344
20
284.57340240478516
10
142.02944946289062
20
284.7142143249512
10
144.02102661132812
20
284.8270263671875
10
146.0139923095703
20
284.9117317199707
10
148.00799560546875
20
284.96815490722656
10
150.00254821777344
20
284.99637603759766
10
151.99734497070312
20
284.99636459350586
10
153.99195861816406
20
284.9681282043457
10
155.9859161376953
20
284.9116897583008
10
157.9789276123047
20
284.8270721435547
10
159.97052001953125
20
284.71423721313477
10
161.96034240722656
20
284.5734062194824
10
163.94796752929688
20
284.4046936035156
10
165.9330596923828
20
284.20823669433594
10
167.9151611328125
20
283.9841537475586
10
169.89405822753906
20
283.73250579833984
10
171.86924743652344
20
283.4536552429199
10
173.84043884277344
20
283.14781188964844
10
175.8072509765625
20
282.81509017944336
10
177.76942443847656
20
282.4557418823242
10
179.7266082763672
20
282.07017517089844
10
181.67843627929688
20
281.65850830078125
10
183.62469482421875
20
281.22106552124023
10
185.56503295898438
20
280.75829315185547
10
187.4992218017578
20
280.27021408081055
10
189.4269561767578
20
279.7575149536133
10
191.34800720214844
20
279.22014236450195
10
193.26217651367188
20
278.6588249206543
10
195.16917419433594
20
278.0735664367676
10
197.06886291503906
20
277.4649887084961
10
198.96102905273438
20
276.8333435058594
10
200.8454132080078
20
276.1789436340332
10
202.72193908691406
20
275.50230407714844
10
204.59043884277344
20
274.80377197265625
10
206.45066833496094
20
274.08355712890625
10
208.3026123046875
20
273.3421821594238
10
210.14605712890625
20
272.58003997802734
10
211.98094177246094
20
271.79749298095703
10
213.80711364746094
20
270.994930267334
10
215.6245574951172
20
270.1726837158203
10
217.43313598632812
20
269.3311653137207
10
219.2328338623047
20
268.47071075439453
10
221.02352905273438
20
267.591739654541
10
222.80520629882812
20
266.6946029663086
10
224.5777587890625
20
265.7797050476074
10
226.34127807617188
20
264.8473777770996
10
228.0956268310547
20
263.89792251586914
10
229.8407745361328
20
262.9317169189453
10
231.57681274414062
20
261.94916915893555
10
233.30368041992188
20
260.9506301879883
10
235.02130126953125
20
259.93628692626953
10
236.72982788085938
20
258.90667724609375
10
238.42916870117188
20
257.86193084716797
10
240.119384765625
20
256.8025436401367
10
241.80047607421875
20
255.7286605834961
10
243.47250366210938
20
254.64081573486328
10
245.13539123535156
20
253.5390167236328
10
246.78933715820312
20
252.423828125
10
248.43431091308594
20
251.2954330444336
10
250.07025146484375
20
250.15402221679688
10
251.69735717773438
20
249.0000228881836
10
253.31565856933594
20
247.83365631103516
10
254.92518615722656
20
246.65522003173828
10
256.52586364746094
20
245.46488189697266
10
258.1178894042969
20
244.26294708251953
10
259.7012939453125
20
243.04969787597656
10
261.2761535644531
20
241.8253402709961
10
262.842529296875
20
240.59010314941406
10
264.40045166015625
20
239.3442840576172
10
265.95001220703125
20
238.0880355834961
10
267.49127197265625
20
236.82166290283203
10
269.0242614746094
20
235.54534149169922
10
270.549072265625
20
234.25914001464844
10
272.0657653808594
20
232.96347045898438
10
273.5744323730469
20
231.65846252441406
10
275.0751647949219
20
230.34436798095703
10
276.5680236816406
20
229.02127075195312
10
278.0530090332031
20
227.68933868408203
10
279.5303039550781
20
226.34886932373047
10
280.9999694824219
20
225.0000228881836
0
HATCH
5
5D
330
C
100
AcDbEntity
420
15277667
8
0
100
AcDbHatch
10
0
20
0
30
0
210
0
220
0
230
1
2
SOLID
70
1
71
0
91
1
92
7
72
0
73
1
93
33
10
25.783835634295755
20
237.5345489198471
10
25.48484590715227
20
236.7511396123566
10
25.185856180008784
20
235.96773030486634
10
24.886866452865306
20
235.18432099737583
10
24.58787672572182
20
234.40091168988533
10
24.288886998578334
20
233.61750238239506
10
23.98989727143485
20
232.83409307490456
10
23.690907772402426
20
232.05068436510805
10
23.391917817147878
20
231.26727445992378
10
23.092928090004392
20
230.48386515243328
10
22.793938362860906
20
229.70045584494255
10
22.494948863828483
20
228.91704713514628
10
22.195958908573942
20
228.13363722996178
10
21.89696918143045
20
227.35022792247128
10
21.597979910509082
20
226.56681981036854
10
21.298989727143486
20
225.7834093074905
10
21
20
225
10
21.806121512911595
20
225.23085386882713
10
22.612243025823197
20
225.4617077376547
10
23.41836353932449
20
225.69256132027476
10
24.224485129113802
20
225.9234152111178
10
25.03060671890311
20
226.15426910196106
10
25.83672707864897
20
226.3851226405493
10
26.642849590970883
20
226.61597679558395
10
27.448970258227597
20
226.84683042223583
10
28.255090310462585
20
227.0776838727602
10
29.06121343780623
20
227.30853820392235
10
29.86733349004122
20
227.53939165444694
10
30.67345415729794
20
227.77024528109882
10
31.479576669619846
20
228.00109943613325
10
32.28569672185484
20
228.23195288665784
10
33.09181923417675
20
228.46280704169226
10
33.89794051645519
20
228.69366084447165
97
0
75
1
76
1
47
1
98
0
0
LWPOLYLINE
5
5E
330
C
100
AcDbEntity
420
15277667
8
0
100
AcDbPolyline
90
34
70
0
43
0
38
0
39
0
10
25.783835634295755
20
237.5345489198471
10
25.48484590715227
20
236.7511396123566
10
25.185856180008784
20
235.96773030486634
10
24.886866452865306
20
235.18432099737583
10
24.58787672572182
20
234.40091168988533
10
24.288886998578334
20
233.61750238239506
10
23.98989727143485
20
232.83409307490456
10
23.690907772402426
20
232.05068436510805
10
23.391917817147878
20
231.26727445992378
10
23.092928090004392
20
230.48386515243328
10
22.793938362860906
20
229.70045584494255
10
22.494948863828483
20
228.91704713514628
10
22.195958908573942
20
228.13363722996178
10
21.89696918143045
20
227.35022792247128
10
21.597979910509082
20
226.56681981036854
10
21.298989727143486
20
225.7834093074905
10
21
20
225
10
21.806121512911595
20
225.23085386882713
10
22.612243025823197
20
225.4617077376547
10
23.41836353932449
20
225.69256132027476
10
24.224485129113802
20
225.9234152111178
10
25.03060671890311
20
226.15426910196106
10
25.83672707864897
20
226.3851226405493
10
26.642849590970883
20
226.61597679558395
10
27.448970258227597
20
226.84683042223583
10
28.255090310462585
20
227.0776838727602
10
29.06121343780623
20
227.30853820392235
10
29.86733349004122
20
227.53939165444694
10
30.67345415729794
20
227.77024528109882
10
31.479576669619846
20
228.00109943613325
10
32.28569672185484
20
228.23195288665784
10
33.09181923417675
20
228.46280704169226
10
33.89794051645519
20
228.69366084447165
10
25.783835634295755
20
237.5345489198471
0
HATCH
5
5F
330
C
100
AcDbEntity
420
15277667
8
0
100
AcDbHatch
10
0
20
0
30
0
210
0
220
0
230
1
2
SOLID
70
1
71
0
91
1
92
7
72
0
73
1
93
33
10
276.2161234472675
20
237.53456783851743
10
276.5151138244646
20
236.7511587791214
10
276.8141042016618
20
235.9677497197256
10
277.1130945788589
20
235.18434066032955
10
277.41208495605605
20
234.40093160093397
10
277.71107533325323
20
233.61752254153816
10
278.01006571045036
20
232.83411348214213
10
278.30905585953593
20
232.0507050204401
10
278.6080464648447
20
231.2672953633505
10
278.90703684204186
20
230.48388630395448
10
279.206027219239
20
229.70047724455867
10
279.5050173683246
20
228.9170687828564
10
279.8040079736333
20
228.13365912576705
10
280.10299835083043
20
227.35025006637125
10
280.4019882718045
20
226.56684220236275
10
280.70097910522475
20
225.7834319475794
10
280.9999694824219
20
225.0000228881836
10
280.1938479360412
20
225.23087594301956
10
279.38772638966054
20
225.46172899785574
10
278.58160515764456
20
225.69258239521469
10
277.77548358708196
20
225.92343542370259
10
276.9693620165194
20
226.15428845219094
10
276.1632412544339
20
226.38514151533536
10
275.35711855055513
20
226.61599500146917
10
274.550997691742
20
226.84684795922203
10
273.74487744795084
20
227.07770074084783
10
272.9387541290502
20
227.30855440310847
10
272.132633885259
20
227.53940718473427
10
271.32651302644587
20
227.77026014248713
10
270.52039032256715
20
228.00111362862094
10
269.71427007877594
20
228.23196641024697
10
268.9081473748972
20
228.46281989638055
10
268.10202590106223
20
228.69367303026047
97
0
75
1
76
1
47
1
98
0
0
LWPOLYLINE
5
60
330
C
100
AcDbEntity
420
15277667
8
0
100
AcDbPolyline
90
34
70
0
43
0
38
0
39
0
10
276.2161234472675
20
237.53456783851743
10
276.5151138244646
20
236.7511587791214
10
276.8141042016618
20
235.9677497197256
10
277.1130945788589
20
235.18434066032955
10
277.41208495605605
20
234.40093160093397
10
277.71107533325323
20
233.61752254153816
10
278.01006571045036
20
232.83411348214213
10
278.30905585953593
20
232.0507050204401
10
278.6080464648447
20
231.2672953633505
10
278.90703684204186
20
230.48388630395448
10
279.206027219239
20
229.70047724455867
10
279.5050173683246
20
228.9170687828564
10
279.8040079736333
20
228.13365912576705
10
280.10299835083043
20
227.35025006637125
10
280.4019882718045
20
226.56684220236275
10
280.70097910522475
20
225.7834319475794
10
280.9999694824219
20
225.0000228881836
10
280.1938479360412
20
225.23087594301956
10
279.38772638966054
20
225.46172899785574
10
278.58160515764456
20
225.69258239521469
10
277.77548358708196
20
225.92343542370259
10
276.9693620165194
20
226.15428845219094
10
276.1632412544339
20
226.38514151533536
10
275.35711855055513
20
226.61599500146917
10
274.550997691742
20
226.84684795922203
10
273.74487744795084
20
227.07770074084783
10
272.9387541290502
20
227.30855440310847
10
272.132633885259
20
227.53940718473427
10
271.32651302644587
20
227.77026014248713
10
270.52039032256715
20
228.00111362862094
10
269.71427007877594
20
228.23196641024697
10
268.9081473748972
20
228.46281989638055
10
268.10202590106223
20
228.69367303026047
10
276.2161234472675
20
237.53456783851743
0
TEXT
5
61
330
C
100
AcDbEntity
420
5592405
8
0
100
AcDbText
10
0
20
162
30
0
40
16
1
12. Multiple paths sharing markers in scaled viewBox
7
Arial
100
AcDbText
0
LWPOLYLINE
5
62
330
C
100
AcDbEntity
420
16733986
8
0
100
AcDbPolyline
90
2
70
0
43
0
38
0
39
0
10
26.666666984558105
20
115.49999952316284
10
273.33333683013916
20
115.49999952316284
0
HATCH
5
63
330
C
100
AcDbEntity
420
16733986
8
0
100
AcDbHatch
10
0
20
0
30
0
210
0
220
0
230
1
2
SOLID
70
1
71
0
91
1
92
7
72
0
73
1
93
33
10
261.49333667755127
20
121.41999959945679
10
262.233336687088
20
121.04999959468842
10
262.97333669662476
20
120.67999958992004
10
263.7133367061615
20
120.30999958515167
10
264.45333671569824
20
119.9399995803833
10
265.193336725235
20
119.56999957561493
10
265.93333673477173
20
119.19999957084656
10
266.67333617973327
20
118.82999984836579
10
267.4133367538452
20
118.45999956130981
10
268.15333676338196
20
118.08999955654144
10
268.8933367729187
20
117.71999955177307
10
269.63333621788024
20
117.3499998292923
10
270.3733367919922
20
116.97999954223633
10
271.11333680152893
20
116.60999953746796
10
271.85333568191527
20
116.24000009727479
10
272.5933368206024
20
115.86999952793121
10
273.33333683013916
20
115.49999952316284
10
272.5933368206024
20
115.12999941253656
10
271.8533368110657
20
114.75999930191028
10
271.11333680152893
20
114.38999965000153
10
270.3733367919922
20
114.01999950408936
10
269.63333678245544
20
113.64999935817718
10
268.8933373374939
20
113.27999977684021
10
268.15333619880676
20
112.90999920749664
10
267.4133367538452
20
112.53999948501587
10
266.6733378734589
20
112.1700000448227
10
265.9333361701965
20
111.79999919319152
10
265.1933372898102
20
111.42999975299836
10
264.45333784484865
20
111.06000003051759
10
263.7133367061615
20
110.68999946117401
10
262.97333782577516
20
110.32000002098084
10
262.233336687088
20
109.94999945163727
10
261.49333667755127
20
109.5799994468689
97
0
75
1
76
1
47
1
98
0
0
LWPOLYLINE
5
64
330
C
100
AcDbEntity
420
16733986
8
0
100
AcDbPolyline
90
34
70
0
43
0
38
0
39
0
10
261.49333667755127
20
121.41999959945679
10
262.233336687088
20
121.04999959468842
10
262.97333669662476
20
120.67999958992004
10
263.7133367061615
20
120.30999958515167
10
264.45333671569824
20
119.9399995803833
10
265.193336725235
20
119.56999957561493
10
265.93333673477173
20
119.19999957084656
10
266.67333617973327
20
118.82999984836579
10
267.4133367538452
20
118.45999956130981
10
268.15333676338196
20
118.08999955654144
10
268.8933367729187
20
117.71999955177307
10
269.63333621788024
20
117.3499998292923
10
270.3733367919922
20
116.97999954223633
10
271.11333680152893
20
116.60999953746796
10
271.85333568191527
20
116.24000009727479
10
272.5933368206024
20
115.86999952793121
10
273.33333683013916
20
115.49999952316284
10
272.5933368206024
20
115.12999941253656
10
271.8533368110657
20
114.75999930191028
10
271.11333680152893
20
114.38999965000153
10
270.3733367919922
20
114.01999950408936
10
269.63333678245544
20
113.64999935817718
10
268.8933373374939
20
113.27999977684021
10
268.15333619880676
20
112.90999920749664
10
267.4133367538452
20
112.53999948501587
10
266.6733378734589
20
112.1700000448227
10
265.9333361701965
20
111.79999919319152
10
265.1933372898102
20
111.42999975299836
10
264.45333784484865
20
111.06000003051759
10
263.7133367061615
20
110.68999946117401
10
262.97333782577516
20
110.32000002098084
10
262.233336687088
20
109.94999945163727
10
261.49333667755127
20
109.5799994468689
10
261.49333667755127
20
121.41999959945679
0
LWPOLYLINE
5
65
330
C
100
AcDbEntity
420
16733986
8
0
100
AcDbPolyline
90
2
70
0
43
0
38
0
39
0
10
26.666666984558105
20
78.49999904632568
10
273.33333683013916
20
78.49999904632568
0
HATCH
5
66
330
C
100
AcDbEntity
420
16733986
8
0
100
AcDbHatch
10
0
20
0
30
0
210
0
220
0
230
1
2
SOLID
70
1
71
0
91
1
92
7
72
0
73
1
93
33
10
249.65333652496338
20
90.33999919891357
10
251.13333654403687
20
89.59999918937683
10
252.61333656311035
20
88.85999917984009
10
254.09333658218384
20
88.11999917030334
10
255.57333660125732
20
87.3799991607666
10
257.0533366203308
20
86.63999915122986
10
258.5333366394043
20
85.89999914169312
10
260.0133355293274
20
85.15999969673157
10
261.49333667755127
20
84.41999912261963
10
262.97333669662476
20
83.67999911308289
10
264.45333671569824
20
82.93999910354614
10
265.9333356056213
20
82.1999996585846
10
267.4133367538452
20
81.45999908447266
10
268.8933367729187
20
80.71999907493591
10
270.3733345336914
20
79.98000019454958
10
271.8533368110657
20
79.23999905586243
10
273.33333683013916
20
78.49999904632568
10
271.8533368110657
20
77.75999882507313
10
270.3733367919922
20
77.0199986038208
10
268.8933367729187
20
76.27999930000306
10
267.4133367538452
20
75.53999900817871
10
265.93333673477173
20
74.79999871635437
10
264.45333784484865
20
74.05999955368043
10
262.97333556747435
20
73.31999841499328
10
261.49333667755127
20
72.57999897003174
10
260.0133389167786
20
71.8400000896454
10
258.5333355102539
20
71.09999838638305
10
257.0533377494812
20
70.35999950599671
10
255.57333885955813
20
69.62000006103517
10
254.09333658218384
20
68.87999892234802
10
252.61333882141116
20
68.14000004196168
10
251.13333654403687
20
67.39999890327454
10
249.65333652496338
20
66.6599988937378
97
0
75
1
76
1
47
1
98
0
0
LWPOLYLINE
5
67
330
C
100
AcDbEntity
420
16733986
8
0
100
AcDbPolyline
90
34
70
0
43
0
38
0
39
0
10
249.65333652496338
20
90.33999919891357
10
251.13333654403687
20
89.59999918937683
10
252.61333656311035
20
88.85999917984009
10
254.09333658218384
20
88.11999917030334
10
255.57333660125732
20
87.3799991607666
10
257.0533366203308
20
86.63999915122986
10
258.5333366394043
20
85.89999914169312
10
260.0133355293274
20
85.15999969673157
10
261.49333667755127
20
84.41999912261963
10
262.97333669662476
20
83.67999911308289
10
264.45333671569824
20
82.93999910354614
10
265.9333356056213
20
82.1999996585846
10
267.4133367538452
20
81.45999908447266
10
268.8933367729187
20
80.71999907493591
10
270.3733345336914
20
79.98000019454958
10
271.8533368110657
20
79.23999905586243
10
273.33333683013916
20
78.49999904632568
10
271.8533368110657
20
77.75999882507313
10
270.3733367919922
20
77.0199986038208
10
268.8933367729187
20
76.27999930000306
10
267.4133367538452
20
75.53999900817871
10
265.93333673477173
20
74.79999871635437
10
264.45333784484865
20
74.05999955368043
10
262.97333556747435
20
73.31999841499328
10
261.49333667755127
20
72.57999897003174
10
260.0133389167786
20
71.8400000896454
10
258.5333355102539
20
71.09999838638305
10
257.0533377494812
20
70.35999950599671
10
255.57333885955813
20
69.62000006103517
10
254.09333658218384
20
68.87999892234802
10
252.61333882141116
20
68.14000004196168
10
251.13333654403687
20
67.39999890327454
10
249.65333652496338
20
66.6599988937378
10
249.65333652496338
20
90.33999919891357
0
LWPOLYLINE
5
68
330
C
100
AcDbEntity
420
16733986
8
0
100
AcDbPolyline
90
2
70
0
43
0
38
0
39
0
10
26.666666984558105
20
41.499998569488525
10
273.33333683013916
20
41.499998569488525
0
HATCH
5
69
330
C
100
AcDbEntity
420
16733986
8
0
100
AcDbHatch
10
0
20
0
30
0
210
0
220
0
230
1
2
SOLID
70
1
71
0
91
1
92
7
72
0
73
1
93
33
10
225.9733362197876
20
65.1799988746643
10
228.93333625793457
20
63.69999885559082
10
231.89333629608154
20
62.219998836517334
10
234.85333633422852
20
60.73999881744385
10
237.8133363723755
20
59.25999879837036
10
240.77333641052246
20
57.779998779296875
10
243.73333644866943
20
56.29999876022339
10
246.6933342285156
20
54.81999987030031
10
249.65333652496338
20
53.339998722076416
10
252.61333656311035
20
51.85999870300293
10
255.57333660125732
20
50.37999868392944
10
258.5333343811035
20
48.89999979400636
10
261.49333667755127
20
47.41999864578247
10
264.45333671569824
20
45.939998626708984
10
267.4133322372436
20
44.46000086593631
10
270.3733367919922
20
42.97999858856201
10
273.33333683013916
20
41.499998569488525
10
270.3733367919922
20
40.01999812698341
10
267.4133367538452
20
38.53999768447875
10
264.45333671569824
20
37.05999907684327
10
261.49333667755127
20
35.57999849319458
10
258.5333366394043
20
34.09999790954589
10
255.57333885955813
20
32.61999958419801
10
252.61333430480954
20
31.139997306823716
10
249.65333652496338
20
29.659998416900635
10
246.69334100341803
20
28.18000065612796
10
243.73333419036862
20
26.699997249603257
10
240.77333866882327
20
25.21999948883058
10
237.8133408889771
20
23.7400005989075
10
234.85333633422852
20
22.259998321533203
10
231.89334081268316
20
20.780000560760527
10
228.93333625793457
20
19.29999828338623
10
225.9733362197876
20
17.819998264312744
97
0
75
1
76
1
47
1
98
0
0
LWPOLYLINE
5
6A
330
C
100
AcDbEntity
420
16733986
8
0
100
AcDbPolyline
90
34
70
0
43
0
38
0
39
0
10
225.9733362197876
20
65.1799988746643
10
228.93333625793457
20
63.69999885559082
10
231.89333629608154
20
62.219998836517334
10
234.85333633422852
20
60.73999881744385
10
237.8133363723755
20
59.25999879837036
10
240.77333641052246
20
57.779998779296875
10
243.73333644866943
20
56.29999876022339
10
246.6933342285156
20
54.81999987030031
10
249.65333652496338
20
53.339998722076416
10
252.61333656311035
20
51.85999870300293
10
255.57333660125732
20
50.37999868392944
10
258.5333343811035
20
48.89999979400636
10
261.49333667755127
20
47.41999864578247
10
264.45333671569824
20
45.939998626708984
10
267.4133322372436
20
44.46000086593631
10
270.3733367919922
20
42.97999858856201
10
273.33333683013916
20
41.499998569488525
10
270.3733367919922
20
40.01999812698341
10
267.4133367538452
20
38.53999768447875
10
264.45333671569824
20
37.05999907684327
10
261.49333667755127
20
35.57999849319458
10
258.5333366394043
20
34.09999790954589
10
255.57333885955813
20
32.61999958419801
10
252.61333430480954
20
31.139997306823716
10
249.65333652496338
20
29.659998416900635
10
246.69334100341803
20
28.18000065612796
10
243.73333419036862
20
26.699997249603257
10
240.77333866882327
20
25.21999948883058
10
237.8133408889771
20
23.7400005989075
10
234.85333633422852
20
22.259998321533203
10
231.89334081268316
20
20.780000560760527
10
228.93333625793457
20
19.29999828338623
10
225.9733362197876
20
17.819998264312744
10
225.9733362197876
20
65.1799988746643
0
ENDSEC
0
SECTION
2
OBJECTS
0
DICTIONARY
5
A
330
0
100
AcDbDictionary
281
1
3
ACAD_GROUP
350
B
0
DICTIONARY
5
B
330
A
100
AcDbDictionary
281
0
0
ENDSEC
0
EOF