0
SECTION
2
HEADER
9
$ACADVER
1
AC1021
9
$LASTSAVEDBY
1
@tarikjabiri/dxf
9
$HANDSEED
5
6A
9
$INSUNITS
70
0
9
$CLAYER
8
0
9
$VIEWCTR
10
162
20
1035.5
0
ENDSEC
0
SECTION
2
CLASSES
0
ENDSEC
0
SECTION
2
TABLES
0
TABLE
2
VPORT
5
1
330
0
100
AcDbSymbolTable
70
1
0
VPORT
5
19
330
1
100
AcDbSymbolTableRecord
100
AcDbViewportTableRecord
2
*Active
70
0
10
0
20
0
11
1
21
1
12
162
22
1035.5
13
0
23
0
14
10
24
10
15
10
25
10
16
0
26
0
36
1
17
0
27
0
37
0
40
2271
41
2
42
50
43
0
44
0
50
0
51
0
71
0
72
100
73
1
74
3
75
0
76
1
77
0
78
0
281
0
65
1
110
0
120
0
130
0
111
1
121
0
131
0
112
0
122
1
132
0
79
0
146
0
348
10020
60
7
61
5
292
1
282
1
141
0
142
0
63
250
421
3358443
0
ENDTAB
0
TABLE
2
LTYPE
5
2
330
0
100
AcDbSymbolTable
70
3
0
LTYPE
5
12
330
2
100
AcDbSymbolTableRecord
100
AcDbLinetypeTableRecord
2
ByBlock
70
0
3

72
65
73
0
40
0
0
LTYPE
5
13
330
2
100
AcDbSymbolTableRecord
100
AcDbLinetypeTableRecord
2
ByLayer
70
0
3

72
65
73
0
40
0
0
LTYPE
5
14
330
2
100
AcDbSymbolTableRecord
100
AcDbLinetypeTableRecord
2
Continuous
70
0
3
Solid line
72
65
73
0
40
0
0
ENDTAB
0
TABLE
2
LAYER
5
3
330
0
100
AcDbSymbolTable
70
1
0
LAYER
5
15
330
3
100
AcDbSymbolTableRecord
100
AcDbLayerTableRecord
2
0
70
0
62
7
6
Continuous
370
0
390
0
0
ENDTAB
0
TABLE
2
STYLE
5
4
330
0
100
AcDbSymbolTable
70
1
0
STYLE
5
16
330
4
100
AcDbSymbolTableRecord
100
AcDbTextStyleTableRecord
2
Standard
70
0
40
0
41
1
50
0
71
0
42
1
3
txt
4

0
ENDTAB
0
TABLE
2
VIEW
5
5
330
0
100
AcDbSymbolTable
70
0
0
ENDTAB
0
TABLE
2
UCS
5
6
330
0
100
AcDbSymbolTable
70
0
0
ENDTAB
0
TABLE
2
APPID
5
7
330
0
100
AcDbSymbolTable
70
1
0
APPID
5
17
330
7
100
AcDbSymbolTableRecord
100
AcDbRegAppTableRecord
2
ACAD
70
0
0
ENDTAB
0
TABLE
2
DIMSTYLE
5
8
330
0
100
AcDbSymbolTable
70
1
100
AcDbDimStyleTable
0
DIMSTYLE
105
18
330
8
100
AcDbSymbolTableRecord
100
AcDbDimStyleTableRecord
2
Standard
70
0
340
16
0
ENDTAB
0
TABLE
2
BLOCK_RECORD
5
9
330
0
100
AcDbSymbolTable
70
2
0
BLOCK_RECORD
5
C
330
9
100
AcDbSymbolTableRecord
100
AcDbBlockTableRecord
2
*Model_Space
70
0
280
1
281
0
0
BLOCK_RECORD
5
F
330
9
100
AcDbSymbolTableRecord
100
AcDbBlockTableRecord
2
*Paper_Space
70
0
280
1
281
0
0
ENDTAB
0
ENDSEC
0
SECTION
2
BLOCKS
0
BLOCK
5
D
330
C
100
AcDbEntity
8
0
100
AcDbBlockBegin
2
*Model_Space
70
0
10
0
20
0
30
0
3
*Model_Space
1

0
ENDBLK
5
E
100
AcDbEntity
8
0
100
AcDbBlockEnd
0
BLOCK
5
10
330
F
100
AcDbEntity
8
0
100
AcDbBlockBegin
2
*Paper_Space
70
0
10
0
20
0
30
0
3
*Paper_Space
1

0
ENDBLK
5
11
100
AcDbEntity
8
0
100
AcDbBlockEnd
0
ENDSEC
0
SECTION
2
ENTITIES
0
TEXT
5
1A
330
C
100
AcDbEntity
420
0
8
0
100
AcDbText
10
0
20
2071
30
0
40
20
1
SVG Markers Demo
7
STANDARD
100
AcDbText
0
TEXT
5
1B
330
C
100
AcDbEntity
420
5592405
8
0
100
AcDbText
10
0
20
2038
30
0
40
16
1
1. Inline SVG – Arrow markers on path
7
STANDARD
100
AcDbText
0
LWPOLYLINE
5
1C
330
C
100
AcDbEntity
420
4620980
8
0
100
AcDbPolyline
90
2
70
0
43
0
38
0
39
0
10
30
20
1990
10
270
20
1990
0
HATCH
5
1D
330
C
100
AcDbEntity
420
4620980
8
0
100
AcDbHatch
10
0
20
0
30
0
210
0
220
0
230
1
2
SOLID
70
1
71
0
91
1
92
7
72
0
73
1
93
33
10
42
20
1996
10
41.25
20
1995.6249988555908
10
40.5
20
1995.2499988555908
10
39.75000114440918
20
1994.8749988555908
10
39.00000057220459
20
1994.499999141693
10
38.25
20
1994.1249988555908
10
37.50000057220459
20
1993.749999141693
10
36.75000057220459
20
1993.3749994277955
10
36.00000057220459
20
1992.9999994277955
10
35.25
20
1992.6249994277955
10
34.50000028610229
20
1992.2499995708465
10
33.75000057220459
20
1991.8749997138978
10
33.00000028610229
20
1991.4999997138978
10
32.249999856948854
20
1991.1249996423721
10
31.50000057220459
20
1990.7500000715256
10
30.750000286102292
20
1990.3750000357627
10
30
20
1990
10
30.75
20
1989.625
10
31.500001144409183
20
1989.2499994277955
10
32.25
20
1988.875
10
33
20
1988.5
10
33.75000057220459
20
1988.1249997138978
10
34.49999942779541
20
1987.7500002861022
10
35.25000114440918
20
1987.3749994277955
10
36
20
1987
10
36.74999942779541
20
1986.6250002861022
10
37.50000057220459
20
1986.2499997138978
10
38.25
20
1985.875
10
38.99999885559082
20
1985.5000005722045
10
39.75
20
1985.125
10
40.5
20
1984.75
10
41.25000114440918
20
1984.3749994277955
10
42
20
1984
97
0
75
1
76
1
47
1
98
0
0
LWPOLYLINE
5
1E
330
C
100
AcDbEntity
420
4620980
8
0
100
AcDbPolyline
90
34
70
0
43
0
38
0
39
0
10
42
20
1996
10
41.25
20
1995.6249988555908
10
40.5
20
1995.2499988555908
10
39.75000114440918
20
1994.8749988555908
10
39.00000057220459
20
1994.499999141693
10
38.25
20
1994.1249988555908
10
37.50000057220459
20
1993.749999141693
10
36.75000057220459
20
1993.3749994277955
10
36.00000057220459
20
1992.9999994277955
10
35.25
20
1992.6249994277955
10
34.50000028610229
20
1992.2499995708465
10
33.75000057220459
20
1991.8749997138978
10
33.00000028610229
20
1991.4999997138978
10
32.249999856948854
20
1991.1249996423721
10
31.50000057220459
20
1990.7500000715256
10
30.750000286102292
20
1990.3750000357627
10
30
20
1990
10
30.75
20
1989.625
10
31.500001144409183
20
1989.2499994277955
10
32.25
20
1988.875
10
33
20
1988.5
10
33.75000057220459
20
1988.1249997138978
10
34.49999942779541
20
1987.7500002861022
10
35.25000114440918
20
1987.3749994277955
10
36
20
1987
10
36.74999942779541
20
1986.6250002861022
10
37.50000057220459
20
1986.2499997138978
10
38.25
20
1985.875
10
38.99999885559082
20
1985.5000005722045
10
39.75
20
1985.125
10
40.5
20
1984.75
10
41.25000114440918
20
1984.3749994277955
10
42
20
1984
10
42
20
1996
0
HATCH
5
1F
330
C
100
AcDbEntity
420
4620980
8
0
100
AcDbHatch
10
0
20
0
30
0
210
0
220
0
230
1
2
SOLID
70
1
71
0
91
1
92
7
72
0
73
1
93
33
10
258
20
1996
10
258.75
20
1995.625
10
259.50000114440917
20
1995.2499994277955
10
260.25
20
1994.875
10
261
20
1994.5
10
261.7500005722046
20
1994.1249997138978
10
262.5
20
1993.75
10
263.25
20
1993.375
10
264
20
1993
10
264.7500005722046
20
1992.6249997138978
10
265.5
20
1992.25
10
266.25
20
1991.8750001430512
10
267
20
1991.5
10
267.75
20
1991.1249998569488
10
268.5
20
1990.7500002145766
10
269.25
20
1990.3750001072883
10
270
20
1990
10
269.25
20
1989.6249988555908
10
268.5
20
1989.2499988555908
10
267.75000114440917
20
1988.8749988555908
10
267.0000005722046
20
1988.499999141693
10
266.25
20
1988.1249988555908
10
265.50000114440917
20
1987.7499994277955
10
264.7499994277954
20
1987.3749988555908
10
264.0000005722046
20
1986.9999994277955
10
263.25000114440917
20
1986.6249997138978
10
262.4999997138977
20
1986.2499994277955
10
261.7500005722046
20
1985.8749997138978
10
261.00000114440917
20
1985.5
10
260.2499998569489
20
1985.1249994277955
10
259.5000005722046
20
1984.75
10
258.74999928474426
20
1984.3749994277955
10
258
20
1984
97
0
75
1
76
1
47
1
98
0
0
LWPOLYLINE
5
20
330
C
100
AcDbEntity
420
4620980
8
0
100
AcDbPolyline
90
34
70
0
43
0
38
0
39
0
10
258
20
1996
10
258.75
20
1995.625
10
259.50000114440917
20
1995.2499994277955
10
260.25
20
1994.875
10
261
20
1994.5
10
261.7500005722046
20
1994.1249997138978
10
262.5
20
1993.75
10
263.25
20
1993.375
10
264
20
1993
10
264.7500005722046
20
1992.6249997138978
10
265.5
20
1992.25
10
266.25
20
1991.8750001430512
10
267
20
1991.5
10
267.75
20
1991.1249998569488
10
268.5
20
1990.7500002145766
10
269.25
20
1990.3750001072883
10
270
20
1990
10
269.25
20
1989.6249988555908
10
268.5
20
1989.2499988555908
10
267.75000114440917
20
1988.8749988555908
10
267.0000005722046
20
1988.499999141693
10
266.25
20
1988.1249988555908
10
265.50000114440917
20
1987.7499994277955
10
264.7499994277954
20
1987.3749988555908
10
264.0000005722046
20
1986.9999994277955
10
263.25000114440917
20
1986.6249997138978
10
262.4999997138977
20
1986.2499994277955
10
261.7500005722046
20
1985.8749997138978
10
261.00000114440917
20
1985.5
10
260.2499998569489
20
1985.1249994277955
10
259.5000005722046
20
1984.75
10
258.74999928474426
20
1984.3749994277955
10
258
20
1984
10
258
20
1996
0
TEXT
5
21
330
C
100
AcDbEntity
420
5592405
8
0
100
AcDbText
10
0
20
1906
30
0
40
16
1
2. Inline SVG – Markers on polyline (start + mid + end)
7
STANDARD
100
AcDbText
0
LWPOLYLINE
5
22
330
C
100
AcDbEntity
420
14423100
8
0
100
AcDbPolyline
90
5
70
0
43
0
38
0
39
0
10
20
20
1818
10
80
20
1878
10
150
20
1838
10
220
20
1878
10
280
20
1818
0
HATCH
5
23
330
C
100
AcDbEntity
420
14423100
8
0
100
AcDbHatch
10
0
20
0
30
0
210
0
220
0
230
1
2
SOLID
70
1
71
0
91
1
92
7
72
0
73
1
93
33
10
275.7573593128807
20
1830.7279220613577
10
276.0225243558257
20
1829.932426932523
10
276.2876898033804
20
1829.1369305898588
10
276.55285444171557
20
1828.3414366748534
10
276.81801948466057
20
1827.5459415460184
10
277.08318472991033
20
1826.750445810269
10
277.34834957055045
20
1825.9549512883486
10
277.6135146134954
20
1825.1594561595139
10
277.8786796564404
20
1824.3639610306789
10
278.1438449016902
20
1823.5684652949294
10
278.4090097423302
20
1822.772970773009
10
278.6741748864277
20
1821.9774757453267
10
278.93933982822017
20
1821.1819805153395
10
279.2045047700127
20
1820.3864852853521
10
279.4696700658387
20
1819.5909904093983
10
279.7348350329194
20
1818.7954952046991
10
280
20
1818
10
279.20450406194567
20
1818.2651642337255
10
278.4090089331108
20
1818.5303292766705
10
277.61351461349545
20
1818.7954935103958
10
276.81801928235564
20
1819.0606591602555
10
276.0225235466062
20
1819.3258244055053
10
275.22702963160054
20
1819.5909890438406
10
274.4315328843267
20
1819.856154896005
10
273.6360389693211
20
1820.12131953434
10
272.8405444474008
20
1820.3864843749802
10
272.04504810473674
20
1820.6516502271447
10
271.24955378512135
20
1820.9168148654799
10
270.4540592632011
20
1821.1819797061198
10
269.65856281938454
20
1821.447145254827
10
268.8630686009216
20
1821.7123101966197
10
268.0675721571051
20
1821.9774757453267
10
267.27207793864216
20
1822.2426406871193
97
0
75
1
76
1
47
1
98
0
0
LWPOLYLINE
5
24
330
C
100
AcDbEntity
420
14423100
8
0
100
AcDbPolyline
90
34
70
0
43
0
38
0
39
0
10
275.7573593128807
20
1830.7279220613577
10
276.0225243558257
20
1829.932426932523
10
276.2876898033804
20
1829.1369305898588
10
276.55285444171557
20
1828.3414366748534
10
276.81801948466057
20
1827.5459415460184
10
277.08318472991033
20
1826.750445810269
10
277.34834957055045
20
1825.9549512883486
10
277.6135146134954
20
1825.1594561595139
10
277.8786796564404
20
1824.3639610306789
10
278.1438449016902
20
1823.5684652949294
10
278.4090097423302
20
1822.772970773009
10
278.6741748864277
20
1821.9774757453267
10
278.93933982822017
20
1821.1819805153395
10
279.2045047700127
20
1820.3864852853521
10
279.4696700658387
20
1819.5909904093983
10
279.7348350329194
20
1818.7954952046991
10
280
20
1818
10
279.20450406194567
20
1818.2651642337255
10
278.4090089331108
20
1818.5303292766705
10
277.61351461349545
20
1818.7954935103958
10
276.81801928235564
20
1819.0606591602555
10
276.0225235466062
20
1819.3258244055053
10
275.22702963160054
20
1819.5909890438406
10
274.4315328843267
20
1819.856154896005
10
273.6360389693211
20
1820.12131953434
10
272.8405444474008
20
1820.3864843749802
10
272.04504810473674
20
1820.6516502271447
10
271.24955378512135
20
1820.9168148654799
10
270.4540592632011
20
1821.1819797061198
10
269.65856281938454
20
1821.447145254827
10
268.8630686009216
20
1821.7123101966197
10
268.0675721571051
20
1821.9774757453267
10
267.27207793864216
20
1822.2426406871193
10
275.7573593128807
20
1830.7279220613577
0
TEXT
5
25
330
C
100
AcDbEntity
420
5592405
8
0
100
AcDbText
10
0
20
1754
30
0
40
16
1
3. Inline SVG – Marker on polygon vertices
7
STANDARD
100
AcDbText
0
LWPOLYLINE
5
26
330
C
100
AcDbEntity
420
16747520
8
0
100
AcDbPolyline
90
6
70
0
43
0
38
0
39
0
10
100
20
1726
10
180
20
1666
10
150
20
1576
10
50
20
1576
10
20
20
1666
10
100
20
1726
0
HATCH
5
27
330
C
100
AcDbEntity
420
16747520
8
0
100
AcDbHatch
10
0
20
0
30
0
210
0
220
0
230
1
2
SOLID
70
1
71
0
91
1
92
7
72
0
73
1
93
4
10
98.8
20
1734.4
10
108.4
20
1727.2
10
101.2
20
1717.6
10
91.60000000000001
20
1724.8
97
0
75
1
76
1
47
1
98
0
0
LWPOLYLINE
5
28
330
C
100
AcDbEntity
420
16747520
8
0
100
AcDbPolyline
90
5
70
0
43
0
38
0
39
0
10
98.8
20
1734.4
10
108.4
20
1727.2
10
101.2
20
1717.6
10
91.60000000000001
20
1724.8
10
98.8
20
1734.4
0
HATCH
5
29
330
C
100
AcDbEntity
420
16747520
8
0
100
AcDbHatch
10
0
20
0
30
0
210
0
220
0
230
1
2
SOLID
70
1
71
0
91
1
92
7
72
0
73
1
93
4
10
183.79473319220205
20
1673.5894663844042
10
187.5894663844041
20
1662.205266807798
10
176.20526680779795
20
1658.4105336155958
10
172.4105336155959
20
1669.794733192202
97
0
75
1
76
1
47
1
98
0
0
LWPOLYLINE
5
2A
330
C
100
AcDbEntity
420
16747520
8
0
100
AcDbPolyline
90
5
70
0
43
0
38
0
39
0
10
183.79473319220205
20
1673.5894663844042
10
187.5894663844041
20
1662.205266807798
10
176.20526680779795
20
1658.4105336155958
10
172.4105336155959
20
1669.794733192202
10
183.79473319220205
20
1673.5894663844042
0
HATCH
5
2B
330
C
100
AcDbEntity
420
16747520
8
0
100
AcDbHatch
10
0
20
0
30
0
210
0
220
0
230
1
2
SOLID
70
1
71
0
91
1
92
7
72
0
73
1
93
4
10
158.34841302284454
20
1574.4821067231192
10
148.4821067231192
20
1567.6515869771556
10
141.65158697715546
20
1577.5178932768808
10
151.5178932768808
20
1584.3484130228444
97
0
75
1
76
1
47
1
98
0
0
LWPOLYLINE
5
2C
330
C
100
AcDbEntity
420
16747520
8
0
100
AcDbPolyline
90
5
70
0
43
0
38
0
39
0
10
158.34841302284454
20
1574.4821067231192
10
148.4821067231192
20
1567.6515869771556
10
141.65158697715546
20
1577.5178932768808
10
151.5178932768808
20
1584.3484130228444
10
158.34841302284454
20
1574.4821067231192
0
HATCH
5
2D
330
C
100
AcDbEntity
420
16747520
8
0
100
AcDbHatch
10
0
20
0
30
0
210
0
220
0
230
1
2
SOLID
70
1
71
0
91
1
92
7
72
0
73
1
93
4
10
51.51789327688083
20
1567.6515869771556
10
41.651586977155475
20
1574.4821067231192
10
48.48210672311917
20
1584.3484130228444
10
58.348413022844525
20
1577.5178932768808
97
0
75
1
76
1
47
1
98
0
0
LWPOLYLINE
5
2E
330
C
100
AcDbEntity
420
16747520
8
0
100
AcDbPolyline
90
5
70
0
43
0
38
0
39
0
10
51.51789327688083
20
1567.6515869771556
10
41.651586977155475
20
1574.4821067231192
10
48.48210672311917
20
1584.3484130228444
10
58.348413022844525
20
1577.5178932768808
10
51.51789327688083
20
1567.6515869771556
0
TEXT
5
2F
330
C
100
AcDbEntity
420
5592405
8
0
100
AcDbText
10
0
20
1502
30
0
40
16
1
4. ViewBox scaling – large viewBox in small viewport
7
STANDARD
100
AcDbText
0
LWPOLYLINE
5
30
330
C
100
AcDbEntity
420
32768
8
0
100
AcDbPolyline
90
2
70
0
43
0
38
0
39
0
10
19.6
20
1445
10
176.4
20
1445
0
HATCH
5
31
330
C
100
AcDbEntity
420
32768
8
0
100
AcDbHatch
10
0
20
0
30
0
210
0
220
0
230
1
2
SOLID
70
1
71
0
91
1
92
7
72
0
73
1
93
33
10
164.64000000000001
20
1450.88
10
165.375
20
1450.5125
10
166.110001121521
20
1450.1449994392397
10
166.845
20
1449.7775000000001
10
167.58
20
1449.4099999999999
10
168.3150005607605
20
1449.0424997196196
10
169.05
20
1448.675
10
169.785
20
1448.3075
10
170.52
20
1447.94
10
171.2550005607605
20
1447.5724997196198
10
171.99
20
1447.205
10
172.725
20
1446.83750014019
10
173.46
20
1446.47
10
174.195
20
1446.10249985981
10
174.93
20
1445.7350002102853
10
175.665
20
1445.3675001051424
10
176.4
20
1445
10
175.665
20
1444.632498878479
10
174.93
20
1444.264998878479
10
174.195001121521
20
1443.897498878479
10
173.4600005607605
20
1443.5299991588593
10
172.725
20
1443.162498878479
10
171.990001121521
20
1442.7949994392395
10
171.2549994392395
20
1442.4274988784791
10
170.5200005607605
20
1442.0599994392396
10
169.785001121521
20
1441.6924997196197
10
169.04999971961976
20
1441.3249994392395
10
168.3150005607605
20
1440.9574997196196
10
167.580001121521
20
1440.5900000000001
10
166.8449998598099
20
1440.2224994392395
10
166.1100005607605
20
1439.855
10
165.3749992990494
20
1439.4874994392394
10
164.64000000000001
20
1439.12
97
0
75
1
76
1
47
1
98
0
0
LWPOLYLINE
5
32
330
C
100
AcDbEntity
420
32768
8
0
100
AcDbPolyline
90
34
70
0
43
0
38
0
39
0
10
164.64000000000001
20
1450.88
10
165.375
20
1450.5125
10
166.110001121521
20
1450.1449994392397
10
166.845
20
1449.7775000000001
10
167.58
20
1449.4099999999999
10
168.3150005607605
20
1449.0424997196196
10
169.05
20
1448.675
10
169.785
20
1448.3075
10
170.52
20
1447.94
10
171.2550005607605
20
1447.5724997196198
10
171.99
20
1447.205
10
172.725
20
1446.83750014019
10
173.46
20
1446.47
10
174.195
20
1446.10249985981
10
174.93
20
1445.7350002102853
10
175.665
20
1445.3675001051424
10
176.4
20
1445
10
175.665
20
1444.632498878479
10
174.93
20
1444.264998878479
10
174.195001121521
20
1443.897498878479
10
173.4600005607605
20
1443.5299991588593
10
172.725
20
1443.162498878479
10
171.990001121521
20
1442.7949994392395
10
171.2549994392395
20
1442.4274988784791
10
170.5200005607605
20
1442.0599994392396
10
169.785001121521
20
1441.6924997196197
10
169.04999971961976
20
1441.3249994392395
10
168.3150005607605
20
1440.9574997196196
10
167.580001121521
20
1440.5900000000001
10
166.8449998598099
20
1440.2224994392395
10
166.1100005607605
20
1439.855
10
165.3749992990494
20
1439.4874994392394
10
164.64000000000001
20
1439.12
10
164.64000000000001
20
1450.88
0
TEXT
5
33
330
C
100
AcDbEntity
420
5592405
8
0
100
AcDbText
10
0
20
1350
30
0
40
16
1
5. ViewBox scaling – small viewBox in large viewport
7
STANDARD
100
AcDbText
0
LWPOLYLINE
5
34
330
C
100
AcDbEntity
420
8388736
8
0
100
AcDbPolyline
90
2
70
0
43
0
38
0
39
0
10
39.6
20
1243
10
356.4
20
1243
0
HATCH
5
35
330
C
100
AcDbEntity
420
8388736
8
0
100
AcDbHatch
10
0
20
0
30
0
210
0
220
0
230
1
2
SOLID
70
1
71
0
91
1
92
7
72
0
73
1
93
33
10
308.88
20
1266.76
10
311.84999999999997
20
1265.275
10
314.8200045318603
20
1263.7899977340699
10
317.78999999999996
20
1262.3049999999998
10
320.76
20
1260.8200000000002
10
323.7300022659301
20
1259.3349988670348
10
326.7
20
1257.85
10
329.66999999999996
20
1256.365
10
332.64
20
1254.88
10
335.6100022659302
20
1253.394998867035
10
338.58
20
1251.9099999999999
10
341.54999999999995
20
1250.4250005664826
10
344.52
20
1248.94
10
347.48999999999995
20
1247.4549994335175
10
350.46
20
1245.9700008497239
10
353.42999999999995
20
1244.485000424862
10
356.4
20
1243
10
353.42999999999995
20
1241.5149954681397
10
350.46
20
1240.0299954681395
10
347.49000453186034
20
1238.5449954681396
10
344.52000226593015
20
1237.0599966011048
10
341.54999999999995
20
1235.5749954681396
10
338.5800045318603
20
1234.0899977340698
10
335.6099977340698
20
1232.6049954681398
10
332.64000226593015
20
1231.1199977340698
10
329.67000453186034
20
1229.634998867035
10
326.6999988670349
20
1228.14999773407
10
323.7300022659301
20
1226.664998867035
10
320.7600045318603
20
1225.1799999999998
10
317.78999943351744
20
1223.6949977340698
10
314.82000226593016
20
1222.21
10
311.8499971675873
20
1220.7249977340698
10
308.88
20
1219.24
97
0
75
1
76
1
47
1
98
0
0
LWPOLYLINE
5
36
330
C
100
AcDbEntity
420
8388736
8
0
100
AcDbPolyline
90
34
70
0
43
0
38
0
39
0
10
308.88
20
1266.76
10
311.84999999999997
20
1265.275
10
314.8200045318603
20
1263.7899977340699
10
317.78999999999996
20
1262.3049999999998
10
320.76
20
1260.8200000000002
10
323.7300022659301
20
1259.3349988670348
10
326.7
20
1257.85
10
329.66999999999996
20
1256.365
10
332.64
20
1254.88
10
335.6100022659302
20
1253.394998867035
10
338.58
20
1251.9099999999999
10
341.54999999999995
20
1250.4250005664826
10
344.52
20
1248.94
10
347.48999999999995
20
1247.4549994335175
10
350.46
20
1245.9700008497239
10
353.42999999999995
20
1244.485000424862
10
356.4
20
1243
10
353.42999999999995
20
1241.5149954681397
10
350.46
20
1240.0299954681395
10
347.49000453186034
20
1238.5449954681396
10
344.52000226593015
20
1237.0599966011048
10
341.54999999999995
20
1235.5749954681396
10
338.5800045318603
20
1234.0899977340698
10
335.6099977340698
20
1232.6049954681398
10
332.64000226593015
20
1231.1199977340698
10
329.67000453186034
20
1229.634998867035
10
326.6999988670349
20
1228.14999773407
10
323.7300022659301
20
1226.664998867035
10
320.7600045318603
20
1225.1799999999998
10
317.78999943351744
20
1223.6949977340698
10
314.82000226593016
20
1222.21
10
311.8499971675873
20
1220.7249977340698
10
308.88
20
1219.24
10
308.88
20
1266.76
0
TEXT
5
37
330
C
100
AcDbEntity
420
5592405
8
0
100
AcDbText
10
0
20
1098
30
0
40
16
1
6. Group transform (scale 2x)
7
STANDARD
100
AcDbText
0
LWPOLYLINE
5
38
330
C
100
AcDbEntity
420
32896
8
0
100
AcDbPolyline
90
2
70
0
43
0
38
0
39
0
10
40
20
1030
10
260
20
1030
0
HATCH
5
39
330
C
100
AcDbEntity
420
32896
8
0
100
AcDbHatch
10
0
20
0
30
0
210
0
220
0
230
1
2
SOLID
70
1
71
0
91
1
92
7
72
0
73
1
93
33
10
248
20
1036
10
248.75
20
1035.625
10
249.50000114440917
20
1035.2499994277955
10
250.25
20
1034.875
10
251
20
1034.5
10
251.7500005722046
20
1034.1249997138978
10
252.5
20
1033.75
10
253.25
20
1033.375
10
254
20
1033
10
254.7500005722046
20
1032.6249997138978
10
255.5
20
1032.25
10
256.25
20
1031.8750001430512
10
257
20
1031.5
10
257.75
20
1031.1249998569488
10
258.5
20
1030.7500002145766
10
259.25
20
1030.3750001072883
10
260
20
1030
10
259.25
20
1029.6249988555908
10
258.5
20
1029.2499988555908
10
257.75000114440917
20
1028.8749988555908
10
257.0000005722046
20
1028.499999141693
10
256.25
20
1028.1249988555908
10
255.50000114440917
20
1027.7499994277955
10
254.7499994277954
20
1027.3749988555908
10
254.0000005722046
20
1026.9999994277955
10
253.25000114440917
20
1026.6249997138978
10
252.4999997138977
20
1026.2499994277955
10
251.7500005722046
20
1025.8749997138978
10
251.00000114440917
20
1025.5
10
250.24999985694888
20
1025.1249994277955
10
249.5000005722046
20
1024.75
10
248.74999928474426
20
1024.3749994277955
10
248
20
1024
97
0
75
1
76
1
47
1
98
0
0
LWPOLYLINE
5
3A
330
C
100
AcDbEntity
420
32896
8
0
100
AcDbPolyline
90
34
70
0
43
0
38
0
39
0
10
248
20
1036
10
248.75
20
1035.625
10
249.50000114440917
20
1035.2499994277955
10
250.25
20
1034.875
10
251
20
1034.5
10
251.7500005722046
20
1034.1249997138978
10
252.5
20
1033.75
10
253.25
20
1033.375
10
254
20
1033
10
254.7500005722046
20
1032.6249997138978
10
255.5
20
1032.25
10
256.25
20
1031.8750001430512
10
257
20
1031.5
10
257.75
20
1031.1249998569488
10
258.5
20
1030.7500002145766
10
259.25
20
1030.3750001072883
10
260
20
1030
10
259.25
20
1029.6249988555908
10
258.5
20
1029.2499988555908
10
257.75000114440917
20
1028.8749988555908
10
257.0000005722046
20
1028.499999141693
10
256.25
20
1028.1249988555908
10
255.50000114440917
20
1027.7499994277955
10
254.7499994277954
20
1027.3749988555908
10
254.0000005722046
20
1026.9999994277955
10
253.25000114440917
20
1026.6249997138978
10
252.4999997138977
20
1026.2499994277955
10
251.7500005722046
20
1025.8749997138978
10
251.00000114440917
20
1025.5
10
250.24999985694888
20
1025.1249994277955
10
249.5000005722046
20
1024.75
10
248.74999928474426
20
1024.3749994277955
10
248
20
1024
10
248
20
1036
0
TEXT
5
3B
330
C
100
AcDbEntity
420
5592405
8
0
100
AcDbText
10
0
20
926
30
0
40
16
1
7. Varying stroke widths with same marker
7
STANDARD
100
AcDbText
0
LWPOLYLINE
5
3C
330
C
100
AcDbEntity
420
0
8
0
100
AcDbPolyline
90
2
70
0
43
0
38
0
39
0
10
20
20
898
10
280
20
898
0
HATCH
5
3D
330
C
100
AcDbEntity
420
0
8
0
100
AcDbHatch
10
0
20
0
30
0
210
0
220
0
230
1
2
SOLID
70
1
71
0
91
1
92
7
72
0
73
1
93
33
10
274
20
901
10
274.375
20
900.8125
10
274.7500005722046
20
900.6249997138978
10
275.125
20
900.4375
10
275.5
20
900.25
10
275.8750002861023
20
900.0624998569488
10
276.25
20
899.875
10
276.625
20
899.6875
10
277
20
899.5
10
277.3750002861023
20
899.3124998569488
10
277.75
20
899.125
10
278.125
20
898.9375000715256
10
278.5
20
898.75
10
278.875
20
898.5624999284744
10
279.25
20
898.3750001072883
10
279.625
20
898.1875000536443
10
280
20
898
10
279.625
20
897.8124994277955
10
279.25
20
897.6249994277955
10
278.8750005722046
20
897.4374994277955
10
278.5000002861023
20
897.2499995708465
10
278.125
20
897.0624994277955
10
277.7500005722046
20
896.8749997138978
10
277.3749997138977
20
896.6874994277955
10
277.0000002861023
20
896.4999997138978
10
276.6250005722046
20
896.3124998569488
10
276.2499998569489
20
896.1249997138978
10
275.8750002861023
20
895.9374998569488
10
275.5000005722046
20
895.75
10
275.12499992847444
20
895.5624997138978
10
274.7500002861023
20
895.375
10
274.37499964237213
20
895.1874997138978
10
274
20
895
97
0
75
1
76
1
47
1
98
0
0
LWPOLYLINE
5
3E
330
C
100
AcDbEntity
420
0
8
0
100
AcDbPolyline
90
34
70
0
43
0
38
0
39
0
10
274
20
901
10
274.375
20
900.8125
10
274.7500005722046
20
900.6249997138978
10
275.125
20
900.4375
10
275.5
20
900.25
10
275.8750002861023
20
900.0624998569488
10
276.25
20
899.875
10
276.625
20
899.6875
10
277
20
899.5
10
277.3750002861023
20
899.3124998569488
10
277.75
20
899.125
10
278.125
20
898.9375000715256
10
278.5
20
898.75
10
278.875
20
898.5624999284744
10
279.25
20
898.3750001072883
10
279.625
20
898.1875000536443
10
280
20
898
10
279.625
20
897.8124994277955
10
279.25
20
897.6249994277955
10
278.8750005722046
20
897.4374994277955
10
278.5000002861023
20
897.2499995708465
10
278.125
20
897.0624994277955
10
277.7500005722046
20
896.8749997138978
10
277.3749997138977
20
896.6874994277955
10
277.0000002861023
20
896.4999997138978
10
276.6250005722046
20
896.3124998569488
10
276.2499998569489
20
896.1249997138978
10
275.8750002861023
20
895.9374998569488
10
275.5000005722046
20
895.75
10
275.12499992847444
20
895.5624997138978
10
274.7500002861023
20
895.375
10
274.37499964237213
20
895.1874997138978
10
274
20
895
10
274
20
901
0
LWPOLYLINE
5
3F
330
C
100
AcDbEntity
420
0
8
0
100
AcDbPolyline
90
2
70
0
43
0
38
0
39
0
10
20
20
868
10
280
20
868
0
HATCH
5
40
330
C
100
AcDbEntity
420
0
8
0
100
AcDbHatch
10
0
20
0
30
0
210
0
220
0
230
1
2
SOLID
70
1
71
0
91
1
92
7
72
0
73
1
93
33
10
262
20
877
10
263.125
20
876.4375
10
264.2500017166138
20
875.874999141693
10
265.375
20
875.3125
10
266.5
20
874.75
10
267.62500085830686
20
874.1874995708465
10
268.75
20
873.625
10
269.875
20
873.0625
10
271
20
872.5
10
272.12500085830686
20
871.9374995708465
10
273.25
20
871.375
10
274.375
20
870.8125002145766
10
275.5
20
870.25
10
276.625
20
869.6874997854234
10
277.75
20
869.1250003218652
10
278.875
20
868.5625001609326
10
280
20
868
10
278.875
20
867.4374982833863
10
277.75
20
866.8749982833863
10
276.6250017166138
20
866.3124982833863
10
275.50000085830686
20
865.7499987125398
10
274.375
20
865.1874982833863
10
273.2500017166138
20
864.624999141693
10
272.12499914169314
20
864.0624982833863
10
271.00000085830686
20
863.499999141693
10
269.8750017166138
20
862.9374995708465
10
268.74999957084657
20
862.374999141693
10
267.62500085830686
20
861.8124995708465
10
266.5000017166138
20
861.25
10
265.37499978542326
20
860.687499141693
10
264.25000085830686
20
860.125
10
263.1249989271164
20
859.562499141693
10
262
20
859
97
0
75
1
76
1
47
1
98
0
0
LWPOLYLINE
5
41
330
C
100
AcDbEntity
420
0
8
0
100
AcDbPolyline
90
34
70
0
43
0
38
0
39
0
10
262
20
877
10
263.125
20
876.4375
10
264.2500017166138
20
875.874999141693
10
265.375
20
875.3125
10
266.5
20
874.75
10
267.62500085830686
20
874.1874995708465
10
268.75
20
873.625
10
269.875
20
873.0625
10
271
20
872.5
10
272.12500085830686
20
871.9374995708465
10
273.25
20
871.375
10
274.375
20
870.8125002145766
10
275.5
20
870.25
10
276.625
20
869.6874997854234
10
277.75
20
869.1250003218652
10
278.875
20
868.5625001609326
10
280
20
868
10
278.875
20
867.4374982833863
10
277.75
20
866.8749982833863
10
276.6250017166138
20
866.3124982833863
10
275.50000085830686
20
865.7499987125398
10
274.375
20
865.1874982833863
10
273.2500017166138
20
864.624999141693
10
272.12499914169314
20
864.0624982833863
10
271.00000085830686
20
863.499999141693
10
269.8750017166138
20
862.9374995708465
10
268.74999957084657
20
862.374999141693
10
267.62500085830686
20
861.8124995708465
10
266.5000017166138
20
861.25
10
265.37499978542326
20
860.687499141693
10
264.25000085830686
20
860.125
10
263.1249989271164
20
859.562499141693
10
262
20
859
10
262
20
877
0
LWPOLYLINE
5
42
330
C
100
AcDbEntity
420
0
8
0
100
AcDbPolyline
90
2
70
0
43
0
38
0
39
0
10
20
20
828
10
280
20
828
0
HATCH
5
43
330
C
100
AcDbEntity
420
0
8
0
100
AcDbHatch
10
0
20
0
30
0
210
0
220
0
230
1
2
SOLID
70
1
71
0
91
1
92
7
72
0
73
1
93
33
10
244
20
846
10
246.25
20
844.875
10
248.50000343322756
20
843.7499982833863
10
250.75
20
842.625
10
253
20
841.5
10
255.25000171661378
20
840.374999141693
10
257.5
20
839.25
10
259.75
20
838.125
10
262
20
837
10
264.2500017166138
20
835.874999141693
10
266.5
20
834.75
10
268.75
20
833.6250004291535
10
271
20
832.5
10
273.25
20
831.3749995708465
10
275.5
20
830.2500006437301
10
277.75
20
829.1250003218652
10
280
20
828
10
277.75
20
826.8749965667726
10
275.5
20
825.7499965667726
10
273.25000343322756
20
824.6249965667726
10
271.0000017166138
20
823.4999974250793
10
268.75
20
822.3749965667726
10
266.50000343322756
20
821.2499982833863
10
264.2499982833862
20
820.1249965667726
10
262.0000017166138
20
818.9999982833863
10
259.75000343322756
20
817.874999141693
10
257.49999914169314
20
816.7499982833863
10
255.25000171661378
20
815.624999141693
10
253.00000343322756
20
814.5
10
250.74999957084657
20
813.3749982833863
10
248.50000171661378
20
812.25
10
246.2499978542328
20
811.1249982833863
10
244
20
810
97
0
75
1
76
1
47
1
98
0
0
LWPOLYLINE
5
44
330
C
100
AcDbEntity
420
0
8
0
100
AcDbPolyline
90
34
70
0
43
0
38
0
39
0
10
244
20
846
10
246.25
20
844.875
10
248.50000343322756
20
843.7499982833863
10
250.75
20
842.625
10
253
20
841.5
10
255.25000171661378
20
840.374999141693
10
257.5
20
839.25
10
259.75
20
838.125
10
262
20
837
10
264.2500017166138
20
835.874999141693
10
266.5
20
834.75
10
268.75
20
833.6250004291535
10
271
20
832.5
10
273.25
20
831.3749995708465
10
275.5
20
830.2500006437301
10
277.75
20
829.1250003218652
10
280
20
828
10
277.75
20
826.8749965667726
10
275.5
20
825.7499965667726
10
273.25000343322756
20
824.6249965667726
10
271.0000017166138
20
823.4999974250793
10
268.75
20
822.3749965667726
10
266.50000343322756
20
821.2499982833863
10
264.2499982833862
20
820.1249965667726
10
262.0000017166138
20
818.9999982833863
10
259.75000343322756
20
817.874999141693
10
257.49999914169314
20
816.7499982833863
10
255.25000171661378
20
815.624999141693
10
253.00000343322756
20
814.5
10
250.74999957084657
20
813.3749982833863
10
248.50000171661378
20
812.25
10
246.2499978542328
20
811.1249982833863
10
244
20
810
10
244
20
846
0
TEXT
5
45
330
C
100
AcDbEntity
420
5592405
8
0
100
AcDbText
10
0
20
754
30
0
40
16
1
8. markerUnits="userSpaceOnUse"
7
STANDARD
100
AcDbText
0
LWPOLYLINE
5
46
330
C
100
AcDbEntity
420
128
8
0
100
AcDbPolyline
90
2
70
0
43
0
38
0
39
0
10
30
20
706
10
270
20
706
0
HATCH
5
47
330
C
100
AcDbEntity
420
128
8
0
100
AcDbHatch
10
0
20
0
30
0
210
0
220
0
230
1
2
SOLID
70
1
71
0
91
1
92
7
72
0
73
1
93
33
10
255
20
713.5
10
255.9375
20
713.03125
10
256.8750014305115
20
712.5624992847443
10
257.8125
20
712.09375
10
258.75
20
711.625
10
259.68750071525574
20
711.1562496423721
10
260.625
20
710.6875
10
261.5625
20
710.21875
10
262.5
20
709.75
10
263.43750071525574
20
709.2812496423721
10
264.375
20
708.8125
10
265.3125
20
708.3437501788139
10
266.25
20
707.875
10
267.1875
20
707.4062498211861
10
268.125
20
706.9375002682209
10
269.0625
20
706.4687501341105
10
270
20
706
10
269.0625
20
705.5312485694885
10
268.125
20
705.0624985694885
10
267.1875014305115
20
704.5937485694885
10
266.25000071525574
20
704.1249989271164
10
265.3125
20
703.6562485694885
10
264.3750014305115
20
703.1874992847443
10
263.43749928474426
20
702.7187485694885
10
262.50000071525574
20
702.2499992847443
10
261.5625014305115
20
701.7812496423721
10
260.62499964237213
20
701.3124992847443
10
259.68750071525574
20
700.8437496423721
10
258.7500014305115
20
700.375
10
257.81249982118607
20
699.9062492847443
10
256.87500071525574
20
699.4375
10
255.93749910593033
20
698.9687492847443
10
255
20
698.5
97
0
75
1
76
1
47
1
98
0
0
LWPOLYLINE
5
48
330
C
100
AcDbEntity
420
128
8
0
100
AcDbPolyline
90
34
70
0
43
0
38
0
39
0
10
255
20
713.5
10
255.9375
20
713.03125
10
256.8750014305115
20
712.5624992847443
10
257.8125
20
712.09375
10
258.75
20
711.625
10
259.68750071525574
20
711.1562496423721
10
260.625
20
710.6875
10
261.5625
20
710.21875
10
262.5
20
709.75
10
263.43750071525574
20
709.2812496423721
10
264.375
20
708.8125
10
265.3125
20
708.3437501788139
10
266.25
20
707.875
10
267.1875
20
707.4062498211861
10
268.125
20
706.9375002682209
10
269.0625
20
706.4687501341105
10
270
20
706
10
269.0625
20
705.5312485694885
10
268.125
20
705.0624985694885
10
267.1875014305115
20
704.5937485694885
10
266.25000071525574
20
704.1249989271164
10
265.3125
20
703.6562485694885
10
264.3750014305115
20
703.1874992847443
10
263.43749928474426
20
702.7187485694885
10
262.50000071525574
20
702.2499992847443
10
261.5625014305115
20
701.7812496423721
10
260.62499964237213
20
701.3124992847443
10
259.68750071525574
20
700.8437496423721
10
258.7500014305115
20
700.375
10
257.81249982118607
20
699.9062492847443
10
256.87500071525574
20
699.4375
10
255.93749910593033
20
698.9687492847443
10
255
20
698.5
10
255
20
713.5
0
TEXT
5
49
330
C
100
AcDbEntity
420
5592405
8
0
100
AcDbText
10
0
20
622
30
0
40
16
1
9. SVG with markers as <img> tag
7
STANDARD
100
AcDbText
0
LWPOLYLINE
5
4A
330
C
100
AcDbEntity
420
13421772
8
0
100
AcDbPolyline
90
5
70
0
43
0
38
0
39
0
10
0
20
614
10
200
20
614
10
200
20
534
10
0
20
534
10
0
20
614
0
LWPOLYLINE
5
4B
330
C
100
AcDbEntity
420
15022389
8
0
100
AcDbPolyline
90
2
70
0
43
0
38
0
39
0
10
20
20
574
10
180
20
574
0
HATCH
5
4C
330
C
100
AcDbEntity
420
15022389
8
0
100
AcDbHatch
10
0
20
0
30
0
210
0
220
0
230
1
2
SOLID
70
1
71
0
91
1
92
7
72
0
73
1
93
33
10
168
20
580
10
168.75
20
579.625
10
169.50000114440917
20
579.2499994277955
10
170.25
20
578.875
10
171
20
578.5
10
171.75000057220458
20
578.1249997138978
10
172.5
20
577.75
10
173.25
20
577.375
10
174
20
577
10
174.75000057220458
20
576.6249997138978
10
175.5
20
576.25
10
176.25
20
575.8750001430512
10
177
20
575.5
10
177.75
20
575.1249998569488
10
178.5
20
574.7500002145766
10
179.25
20
574.3750001072883
10
180
20
574
10
179.25
20
573.6249988555908
10
178.5
20
573.2499988555908
10
177.75000114440917
20
572.8749988555908
10
177.00000057220458
20
572.499999141693
10
176.25
20
572.1249988555908
10
175.50000114440917
20
571.7499994277955
10
174.74999942779542
20
571.3749988555908
10
174.00000057220458
20
570.9999994277955
10
173.25000114440917
20
570.6249997138978
10
172.4999997138977
20
570.2499994277955
10
171.75000057220458
20
569.8749997138978
10
171.00000114440917
20
569.5
10
170.24999985694885
20
569.1249994277955
10
169.50000057220458
20
568.75
10
168.74999928474426
20
568.3749994277955
10
168
20
568
97
0
75
1
76
1
47
1
98
0
0
LWPOLYLINE
5
4D
330
C
100
AcDbEntity
420
15022389
8
0
100
AcDbPolyline
90
34
70
0
43
0
38
0
39
0
10
168
20
580
10
168.75
20
579.625
10
169.50000114440917
20
579.2499994277955
10
170.25
20
578.875
10
171
20
578.5
10
171.75000057220458
20
578.1249997138978
10
172.5
20
577.75
10
173.25
20
577.375
10
174
20
577
10
174.75000057220458
20
576.6249997138978
10
175.5
20
576.25
10
176.25
20
575.8750001430512
10
177
20
575.5
10
177.75
20
575.1249998569488
10
178.5
20
574.7500002145766
10
179.25
20
574.3750001072883
10
180
20
574
10
179.25
20
573.6249988555908
10
178.5
20
573.2499988555908
10
177.75000114440917
20
572.8749988555908
10
177.00000057220458
20
572.499999141693
10
176.25
20
572.1249988555908
10
175.50000114440917
20
571.7499994277955
10
174.74999942779542
20
571.3749988555908
10
174.00000057220458
20
570.9999994277955
10
173.25000114440917
20
570.6249997138978
10
172.4999997138977
20
570.2499994277955
10
171.75000057220458
20
569.8749997138978
10
171.00000114440917
20
569.5
10
170.24999985694885
20
569.1249994277955
10
169.50000057220458
20
568.75
10
168.74999928474426
20
568.3749994277955
10
168
20
568
10
168
20
580
0
TEXT
5
4E
330
C
100
AcDbEntity
420
8947848
8
0
100
AcDbText
10
30
20
518
30
0
40
12
1
img tag (no viewBox scaling)
7
STANDARD
100
AcDbText
0
LWPOLYLINE
5
4F
330
C
100
AcDbEntity
420
13421772
8
0
100
AcDbPolyline
90
5
70
0
43
0
38
0
39
0
10
224
20
614
10
424
20
614
10
424
20
534
10
224
20
534
10
224
20
614
0
LWPOLYLINE
5
50
330
C
100
AcDbEntity
420
2001125
8
0
100
AcDbPolyline
90
2
70
0
43
0
38
0
39
0
10
244
20
574
10
404
20
574
0
HATCH
5
51
330
C
100
AcDbEntity
420
2001125
8
0
100
AcDbHatch
10
0
20
0
30
0
210
0
220
0
230
1
2
SOLID
70
1
71
0
91
1
92
7
72
0
73
1
93
33
10
392
20
580
10
392.75
20
579.625
10
393.50000114440917
20
579.2499994277955
10
394.25
20
578.875
10
395
20
578.5
10
395.7500005722046
20
578.1249997138978
10
396.5
20
577.75
10
397.25
20
577.375
10
398
20
577
10
398.7500005722046
20
576.6249997138978
10
399.5
20
576.25
10
400.25
20
575.8750001430512
10
401
20
575.5
10
401.75
20
575.1249998569488
10
402.5
20
574.7500002145766
10
403.25
20
574.3750001072883
10
404
20
574
10
403.25
20
573.6249988555908
10
402.5
20
573.2499988555908
10
401.75000114440917
20
572.8749988555908
10
401.0000005722046
20
572.499999141693
10
400.25
20
572.1249988555908
10
399.50000114440917
20
571.7499994277955
10
398.7499994277954
20
571.3749988555908
10
398.0000005722046
20
570.9999994277955
10
397.25000114440917
20
570.6249997138978
10
396.4999997138977
20
570.2499994277955
10
395.7500005722046
20
569.8749997138978
10
395.00000114440917
20
569.5
10
394.2499998569489
20
569.1249994277955
10
393.5000005722046
20
568.75
10
392.74999928474426
20
568.3749994277955
10
392
20
568
97
0
75
1
76
1
47
1
98
0
0
LWPOLYLINE
5
52
330
C
100
AcDbEntity
420
2001125
8
0
100
AcDbPolyline
90
34
70
0
43
0
38
0
39
0
10
392
20
580
10
392.75
20
579.625
10
393.50000114440917
20
579.2499994277955
10
394.25
20
578.875
10
395
20
578.5
10
395.7500005722046
20
578.1249997138978
10
396.5
20
577.75
10
397.25
20
577.375
10
398
20
577
10
398.7500005722046
20
576.6249997138978
10
399.5
20
576.25
10
400.25
20
575.8750001430512
10
401
20
575.5
10
401.75
20
575.1249998569488
10
402.5
20
574.7500002145766
10
403.25
20
574.3750001072883
10
404
20
574
10
403.25
20
573.6249988555908
10
402.5
20
573.2499988555908
10
401.75000114440917
20
572.8749988555908
10
401.0000005722046
20
572.499999141693
10
400.25
20
572.1249988555908
10
399.50000114440917
20
571.7499994277955
10
398.7499994277954
20
571.3749988555908
10
398.0000005722046
20
570.9999994277955
10
397.25000114440917
20
570.6249997138978
10
396.4999997138977
20
570.2499994277955
10
395.7500005722046
20
569.8749997138978
10
395.00000114440917
20
569.5
10
394.2499998569489
20
569.1249994277955
10
393.5000005722046
20
568.75
10
392.74999928474426
20
568.3749994277955
10
392
20
568
10
392
20
580
0
TEXT
5
53
330
C
100
AcDbEntity
420
8947848
8
0
100
AcDbText
10
231
20
518
30
0
40
12
1
img tag (viewBox 400x160 → 200x80)
7
STANDARD
100
AcDbText
0
TEXT
5
54
330
C
100
AcDbEntity
420
5592405
8
0
100
AcDbText
10
0
20
478
30
0
40
16
1
10. SVG with markers as CSS background-image
7
STANDARD
100
AcDbText
0
LWPOLYLINE
5
55
330
C
100
AcDbEntity
420
13421772
8
0
100
AcDbPolyline
90
5
70
0
43
0
38
0
39
0
10
0
20
470
10
200
20
470
10
200
20
390
10
0
20
390
10
0
20
470
0
LWPOLYLINE
5
56
330
C
100
AcDbEntity
420
4431943
8
0
100
AcDbPolyline
90
2
70
0
43
0
38
0
39
0
10
20
20
430
10
180
20
430
0
HATCH
5
57
330
C
100
AcDbEntity
420
4431943
8
0
100
AcDbHatch
10
0
20
0
30
0
210
0
220
0
230
1
2
SOLID
70
1
71
0
91
1
92
7
72
0
73
1
93
33
10
168
20
436
10
168.75
20
435.625
10
169.50000114440917
20
435.2499994277955
10
170.25
20
434.875
10
171
20
434.5
10
171.75000057220458
20
434.12499971389775
10
172.5
20
433.75
10
173.25
20
433.375
10
174
20
433
10
174.75000057220458
20
432.62499971389775
10
175.5
20
432.25
10
176.25
20
431.87500014305124
10
177
20
431.5
10
177.75
20
431.12499985694876
10
178.5
20
430.75000021457663
10
179.25
20
430.3750001072883
10
180
20
430
10
179.25
20
429.6249988555908
10
178.5
20
429.2499988555908
10
177.75000114440917
20
428.8749988555908
10
177.00000057220458
20
428.499999141693
10
176.25
20
428.1249988555908
10
175.50000114440917
20
427.7499994277955
10
174.74999942779542
20
427.3749988555908
10
174.00000057220458
20
426.9999994277955
10
173.25000114440917
20
426.62499971389775
10
172.4999997138977
20
426.2499994277955
10
171.75000057220458
20
425.87499971389775
10
171.00000114440917
20
425.5
10
170.24999985694885
20
425.1249994277955
10
169.50000057220458
20
424.75
10
168.74999928474426
20
424.3749994277955
10
168
20
424
97
0
75
1
76
1
47
1
98
0
0
LWPOLYLINE
5
58
330
C
100
AcDbEntity
420
4431943
8
0
100
AcDbPolyline
90
34
70
0
43
0
38
0
39
0
10
168
20
436
10
168.75
20
435.625
10
169.50000114440917
20
435.2499994277955
10
170.25
20
434.875
10
171
20
434.5
10
171.75000057220458
20
434.12499971389775
10
172.5
20
433.75
10
173.25
20
433.375
10
174
20
433
10
174.75000057220458
20
432.62499971389775
10
175.5
20
432.25
10
176.25
20
431.87500014305124
10
177
20
431.5
10
177.75
20
431.12499985694876
10
178.5
20
430.75000021457663
10
179.25
20
430.3750001072883
10
180
20
430
10
179.25
20
429.6249988555908
10
178.5
20
429.2499988555908
10
177.75000114440917
20
428.8749988555908
10
177.00000057220458
20
428.499999141693
10
176.25
20
428.1249988555908
10
175.50000114440917
20
427.7499994277955
10
174.74999942779542
20
427.3749988555908
10
174.00000057220458
20
426.9999994277955
10
173.25000114440917
20
426.62499971389775
10
172.4999997138977
20
426.2499994277955
10
171.75000057220458
20
425.87499971389775
10
171.00000114440917
20
425.5
10
170.24999985694885
20
425.1249994277955
10
169.50000057220458
20
424.75
10
168.74999928474426
20
424.3749994277955
10
168
20
424
10
168
20
436
0
TEXT
5
59
330
C
100
AcDbEntity
420
8947848
8
0
100
AcDbText
10
2
20
374
30
0
40
12
1
background-image (no viewBox scaling)
7
STANDARD
100
AcDbText
0
TEXT
5
5A
330
C
100
AcDbEntity
420
5592405
8
0
100
AcDbText
10
0
20
334
30
0
40
16
1
11. Curved path with marker-start and marker-end
7
STANDARD
100
AcDbText
0
LWPOLYLINE
5
5B
330
C
100
AcDbEntity
420
15277667
8
0
100
AcDbPolyline
90
148
70
0
43
0
38
0
39
0
10
20
20
226
10
21.469642639160156
20
227.34883880615234
10
22.946945190429688
20
228.68927764892578
10
24.431983947753906
20
230.0211410522461
10
25.924835205078125
20
231.34424591064453
10
27.42557144165039
20
232.6584014892578
10
28.934267044067383
20
233.96340942382812
10
30.450992584228516
20
235.25907135009766
10
31.975818634033203
20
236.54519653320312
10
33.508811950683594
20
237.82156372070312
10
35.050045013427734
20
239.08798217773438
10
36.59958267211914
20
240.34422302246094
10
38.1574821472168
20
241.59007263183594
10
39.72381591796875
20
242.82530975341797
10
41.29863739013672
20
244.0497055053711
10
42.882057189941406
20
245.26295471191406
10
44.47414779663086
20
246.46480560302734
10
46.07490539550781
20
247.65509033203125
10
47.68437957763672
20
248.83354949951172
10
49.3026237487793
20
249.99994659423828
10
50.9296760559082
20
251.15402221679688
10
52.56569290161133
20
252.29535675048828
10
54.21068572998047
20
253.42372131347656
10
55.8646125793457
20
254.5389404296875
10
57.52750015258789
20
255.64075469970703
10
59.199527740478516
20
256.72864532470703
10
60.88066482543945
20
257.8024139404297
10
62.57082748413086
20
258.8619079589844
10
64.27017974853516
20
259.90660858154297
10
65.97872924804688
20
260.93619537353516
10
67.69632720947266
20
261.9506072998047
10
69.4232406616211
20
262.9490966796875
10
71.15924835205078
20
263.9316711425781
10
72.9044189453125
20
264.8978691101074
10
74.65880584716797
20
265.8472595214844
10
76.4222412109375
20
266.77972412109375
10
78.19489288330078
20
267.6945495605469
10
79.97650909423828
20
268.5917854309082
10
81.76725006103516
20
269.470645904541
10
83.56689453125
20
270.3311424255371
10
85.37550354003906
20
271.1726303100586
10
87.19296264648438
20
271.9948616027832
10
89.01911926269531
20
272.79755783081055
10
90.85406494140625
20
273.5799789428711
10
92.6974868774414
20
274.3422050476074
10
94.54940795898438
20
275.0835189819336
10
96.4096908569336
20
275.80360412597656
10
98.27810668945312
20
276.5022964477539
10
100.15463256835938
20
277.17895126342773
10
102.03907012939453
20
277.83320236206055
10
103.93118286132812
20
278.4648971557617
10
105.83082580566406
20
279.0736541748047
10
107.7378921508789
20
279.65870666503906
10
109.65205383300781
20
280.22004318237305
10
111.57311248779297
20
280.75733947753906
10
113.5008316040039
20
281.2702331542969
10
115.43499755859375
20
281.75826263427734
10
117.3753662109375
20
282.2210121154785
10
119.32161712646484
20
282.6583671569824
10
121.27345275878906
20
283.07001876831055
10
123.23059844970703
20
283.4556694030762
10
125.19274139404297
20
283.8150291442871
10
127.15957641601562
20
284.14784240722656
10
129.13076782226562
20
284.4536781311035
10
131.10597229003906
20
284.73244857788086
10
133.08480834960938
20
284.98398208618164
10
135.0669403076172
20
285.2080764770508
10
137.0520477294922
20
285.4045639038086
10
139.0396728515625
20
285.5732841491699
10
141.02947998046875
20
285.71410369873047
10
143.0210723876953
20
285.82690811157227
10
145.0140380859375
20
285.91160583496094
10
147.0080108642578
20
285.9681282043457
10
149.00257873535156
20
285.9964370727539
10
150.99737548828125
20
285.9964370727539
10
152.99195861816406
20
285.96813201904297
10
154.98593139648438
20
285.91160583496094
10
156.97889709472656
20
285.82690811157227
10
158.97048950195312
20
285.71410369873047
10
160.96029663085938
20
285.5732879638672
10
162.94793701171875
20
285.40456771850586
10
164.93301391601562
20
285.20808029174805
10
166.9151611328125
20
284.9839859008789
10
168.8939971923828
20
284.7324523925781
10
170.86920166015625
20
284.4536819458008
10
172.8403778076172
20
284.1478500366211
10
174.80718994140625
20
283.8150444030762
10
176.7693328857422
20
283.45568084716797
10
178.7264862060547
20
283.0700340270996
10
180.67832946777344
20
282.6583824157715
10
182.62457275390625
20
282.2210273742676
10
184.56494140625
20
281.7582817077637
10
186.49911499023438
20
281.27024841308594
10
188.4268341064453
20
280.7573547363281
10
190.34788513183594
20
280.2200622558594
10
192.26206970214844
20
279.65871810913086
10
194.16912841796875
20
279.0736656188965
10
196.0687713623047
20
278.4649124145508
10
197.9608917236328
20
277.8332176208496
10
199.84532165527344
20
277.17897033691406
10
201.72183227539062
20
276.5023193359375
10
203.5902557373047
20
275.8036231994629
10
205.45054626464844
20
275.0835380554199
10
207.30247497558594
20
274.3422203063965
10
209.14588928222656
20
273.5800018310547
10
210.98080444335938
20
272.7975883483887
10
212.8069610595703
20
271.99489974975586
10
214.6243896484375
20
271.1726837158203
10
216.43299865722656
20
270.3311882019043
10
218.232666015625
20
269.47068786621094
10
220.02340698242188
20
268.5918273925781
10
221.80502319335938
20
267.6945915222168
10
223.5776824951172
20
266.7797622680664
10
225.3411102294922
20
265.8473014831543
10
227.09548950195312
20
264.8979187011719
10
228.8406524658203
20
263.93172454833984
10
230.57667541503906
20
262.9491424560547
10
232.3035888671875
20
261.9506530761719
10
234.0211944580078
20
260.93624114990234
10
235.72975158691406
20
259.9066467285156
10
237.42910766601562
20
258.86195373535156
10
239.1192626953125
20
257.8024597167969
10
240.80039978027344
20
256.7286911010742
10
242.47244262695312
20
255.6407928466797
10
244.1353302001953
20
254.53897857666016
10
245.7892608642578
20
253.4237518310547
10
247.4342498779297
20
252.29539489746094
10
249.0702667236328
20
251.15406036376953
10
250.69732666015625
20
249.99998474121094
10
252.31558227539062
20
248.8335723876953
10
253.92503356933594
20
247.6551284790039
10
255.52581787109375
20
246.46483612060547
10
257.117919921875
20
245.26297760009766
10
258.7013244628906
20
244.0497283935547
10
260.2761535644531
20
242.82532501220703
10
261.8424987792969
20
241.590087890625
10
263.4004211425781
20
240.34422302246094
10
264.949951171875
20
239.08798217773438
10
266.4912109375
20
237.8215560913086
10
268.0242004394531
20
236.5451889038086
10
269.5490417480469
20
235.25904083251953
10
271.0657653808594
20
233.96337890625
10
272.574462890625
20
232.65837860107422
10
274.0751953125
20
231.3442153930664
10
275.5680236816406
20
230.02113342285156
10
277.0530700683594
20
228.68927001953125
10
278.5303649902344
20
227.34883880615234
10
280
20
226
0
HATCH
5
5C
330
C
100
AcDbEntity
420
15277667
8
0
100
AcDbHatch
10
0
20
0
30
0
210
0
220
0
230
1
2
SOLID
70
1
71
0
91
1
92
7
72
0
73
1
93
33
10
24.783784106743568
20
238.53456858531922
10
24.484798373896908
20
237.7511572056069
10
24.18581186722544
20
236.96774666902456
10
23.88682620368357
20
236.18433690626694
10
23.587839081991085
20
235.4009261935546
10
23.288852347211012
20
234.61751505927737
10
22.989866068648148
20
233.8341051203895
10
22.69087936852047
20
233.05069479458962
10
22.391892861848994
20
232.2672842580073
10
22.09290593361272
20
231.4838733345125
10
21.793919540995546
20
230.7004630967774
10
21.494933148378372
20
229.91705285904231
10
21.195946430924494
20
229.13364212900365
10
20.89695965644347
20
228.35023124954114
10
20.5979733865437
20
227.56682151277278
10
20.29898669327185
20
226.7834107563865
10
20
20
226
10
20.806120333268836
20
226.23085711661224
10
21.612241896579683
20
226.46171458548451
10
22.41836099980651
20
226.69257134983695
10
23.224481333075353
20
226.92342846644897
10
24.030602281365198
20
227.15428575919145
10
24.836721384592018
20
227.38514252354366
10
25.642843562923872
20
227.61600016854595
10
26.4489626661507
20
227.8468569328984
10
27.255082384398527
20
228.0777138733804
10
28.06120394770938
20
228.3085713422529
10
28.86732366595721
20
228.53942828273512
10
29.673442769184035
20
228.77028504708755
10
30.47956433249488
20
229.00114251595983
10
31.285684665763725
20
229.23199963257207
10
32.09180622907457
20
229.46285710144434
10
32.8979253323014
20
229.69371386579655
97
0
75
1
76
1
47
1
98
0
0
LWPOLYLINE
5
5D
330
C
100
AcDbEntity
420
15277667
8
0
100
AcDbPolyline
90
34
70
0
43
0
38
0
39
0
10
24.783784106743568
20
238.53456858531922
10
24.484798373896908
20
237.7511572056069
10
24.18581186722544
20
236.96774666902456
10
23.88682620368357
20
236.18433690626694
10
23.587839081991085
20
235.4009261935546
10
23.288852347211012
20
234.61751505927737
10
22.989866068648148
20
233.8341051203895
10
22.69087936852047
20
233.05069479458962
10
22.391892861848994
20
232.2672842580073
10
22.09290593361272
20
231.4838733345125
10
21.793919540995546
20
230.7004630967774
10
21.494933148378372
20
229.91705285904231
10
21.195946430924494
20
229.13364212900365
10
20.89695965644347
20
228.35023124954114
10
20.5979733865437
20
227.56682151277278
10
20.29898669327185
20
226.7834107563865
10
20
20
226
10
20.806120333268836
20
226.23085711661224
10
21.612241896579683
20
226.46171458548451
10
22.41836099980651
20
226.69257134983695
10
23.224481333075353
20
226.92342846644897
10
24.030602281365198
20
227.15428575919145
10
24.836721384592018
20
227.38514252354366
10
25.642843562923872
20
227.61600016854595
10
26.4489626661507
20
227.8468569328984
10
27.255082384398527
20
228.0777138733804
10
28.06120394770938
20
228.3085713422529
10
28.86732366595721
20
228.53942828273512
10
29.673442769184035
20
228.77028504708755
10
30.47956433249488
20
229.00114251595983
10
31.285684665763725
20
229.23199963257207
10
32.09180622907457
20
229.46285710144434
10
32.8979253323014
20
229.69371386579655
10
24.783784106743568
20
238.53456858531922
0
HATCH
5
5E
330
C
100
AcDbEntity
420
15277667
8
0
100
AcDbHatch
10
0
20
0
30
0
210
0
220
0
230
1
2
SOLID
70
1
71
0
91
1
92
7
72
0
73
1
93
33
10
275.21624830955943
20
238.53458095686506
10
275.515232790212
20
237.75116964706103
10
275.81421772707864
20
236.96775714186606
10
276.113201751517
20
236.184347027453
10
276.4121862321696
20
235.40093571764896
10
276.71117094092915
20
234.61752381014935
10
277.0101551934746
20
233.8341130980407
10
277.3091396741272
20
233.05070178823667
10
277.6081241547797
20
232.26729047843264
10
277.9071088635393
20
231.48387857093326
10
278.2060931160848
20
230.70046785882437
10
278.5050776934657
20
229.91705665441145
10
278.80406207738986
20
229.13364523921632
10
279.103046461314
20
228.3502338240212
10
279.4020311837875
20
227.5668227776946
10
279.70101559189374
20
226.7834113888473
10
280
20
226
10
279.19387948993824
20
226.2308583582328
10
278.38775975370345
20
226.46171755959335
10
277.5816408605963
20
226.6925759871267
10
276.7755208962544
20
226.9234357861826
10
275.9694005449991
20
227.15429516367453
10
275.16328203880545
20
227.38515401277164
10
274.35716065096574
20
227.61601395330877
10
273.5510421447721
20
227.8468728024061
10
272.7449230235578
20
228.0777318276348
10
271.9388020399568
20
228.30859178549713
10
271.1326831295245
20
228.53945061726927
10
270.32656400831024
20
228.77030964249798
10
269.5204429366434
20
229.0011692928499
10
268.7143241142769
20
229.2320284321322
10
267.90820304261007
20
229.46288808248414
10
267.10208422024357
20
229.69374722176667
97
0
75
1
76
1
47
1
98
0
0
LWPOLYLINE
5
5F
330
C
100
AcDbEntity
420
15277667
8
0
100
AcDbPolyline
90
34
70
0
43
0
38
0
39
0
10
275.21624830955943
20
238.53458095686506
10
275.515232790212
20
237.75116964706103
10
275.81421772707864
20
236.96775714186606
10
276.113201751517
20
236.184347027453
10
276.4121862321696
20
235.40093571764896
10
276.71117094092915
20
234.61752381014935
10
277.0101551934746
20
233.8341130980407
10
277.3091396741272
20
233.05070178823667
10
277.6081241547797
20
232.26729047843264
10
277.9071088635393
20
231.48387857093326
10
278.2060931160848
20
230.70046785882437
10
278.5050776934657
20
229.91705665441145
10
278.80406207738986
20
229.13364523921632
10
279.103046461314
20
228.3502338240212
10
279.4020311837875
20
227.5668227776946
10
279.70101559189374
20
226.7834113888473
10
280
20
226
10
279.19387948993824
20
226.2308583582328
10
278.38775975370345
20
226.46171755959335
10
277.5816408605963
20
226.6925759871267
10
276.7755208962544
20
226.9234357861826
10
275.9694005449991
20
227.15429516367453
10
275.16328203880545
20
227.38515401277164
10
274.35716065096574
20
227.61601395330877
10
273.5510421447721
20
227.8468728024061
10
272.7449230235578
20
228.0777318276348
10
271.9388020399568
20
228.30859178549713
10
271.1326831295245
20
228.53945061726927
10
270.32656400831024
20
228.77030964249798
10
269.5204429366434
20
229.0011692928499
10
268.7143241142769
20
229.2320284321322
10
267.90820304261007
20
229.46288808248414
10
267.10208422024357
20
229.69374722176667
10
275.21624830955943
20
238.53458095686506
0
TEXT
5
60
330
C
100
AcDbEntity
420
5592405
8
0
100
AcDbText
10
0
20
162
30
0
40
16
1
12. Multiple paths sharing markers in scaled viewBox
7
STANDARD
100
AcDbText
0
LWPOLYLINE
5
61
330
C
100
AcDbEntity
420
16733986
8
0
100
AcDbPolyline
90
2
70
0
43
0
38
0
39
0
10
24.66666666666667
20
117
10
271.3333333333333
20
117
0
HATCH
5
62
330
C
100
AcDbEntity
420
16733986
8
0
100
AcDbHatch
10
0
20
0
30
0
210
0
220
0
230
1
2
SOLID
70
1
71
0
91
1
92
7
72
0
73
1
93
33
10
259.49333333333334
20
122.92000000000007
10
260.2333333333333
20
122.54999999999995
10
260.9733344624837
20
122.17999943542486
10
261.7133333333333
20
121.80999999999995
10
262.4533333333333
20
121.44000000000005
10
263.19333389790853
20
121.06999971771234
10
263.93333333333334
20
120.70000000000005
10
264.6733333333333
20
120.32999999999993
10
265.4133333333333
20
119.96000000000004
10
266.1533338979085
20
119.58999971771232
10
266.8933333333333
20
119.22000000000003
10
267.6333333333333
20
118.85000014114371
10
268.37333333333333
20
118.48000000000002
10
269.1133333333333
20
118.1099998588561
10
269.8533333333333
20
117.7400002117156
10
270.5933333333333
20
117.3700001058578
10
271.3333333333333
20
117
10
270.5933333333333
20
116.6299988708497
10
269.8533333333333
20
116.25999887084959
10
269.1133344624837
20
115.8899988708497
10
268.37333389790854
20
115.51999915313718
10
267.6333333333333
20
115.14999887084969
10
266.8933344624837
20
114.77999943542477
10
266.1533327687581
20
114.40999887084968
10
265.4133338979085
20
114.03999943542476
10
264.6733344624837
20
113.66999971771247
10
263.93333305104574
20
113.29999943542475
10
263.19333389790853
20
112.92999971771246
10
262.4533344624837
20
112.55999999999995
10
261.7133331921895
20
112.18999943542485
10
260.9733338979085
20
111.81999999999994
10
260.23333262761435
20
111.44999943542484
10
259.49333333333334
20
111.07999999999993
97
0
75
1
76
1
47
1
98
0
0
LWPOLYLINE
5
63
330
C
100
AcDbEntity
420
16733986
8
0
100
AcDbPolyline
90
34
70
0
43
0
38
0
39
0
10
259.49333333333334
20
122.92000000000007
10
260.2333333333333
20
122.54999999999995
10
260.9733344624837
20
122.17999943542486
10
261.7133333333333
20
121.80999999999995
10
262.4533333333333
20
121.44000000000005
10
263.19333389790853
20
121.06999971771234
10
263.93333333333334
20
120.70000000000005
10
264.6733333333333
20
120.32999999999993
10
265.4133333333333
20
119.96000000000004
10
266.1533338979085
20
119.58999971771232
10
266.8933333333333
20
119.22000000000003
10
267.6333333333333
20
118.85000014114371
10
268.37333333333333
20
118.48000000000002
10
269.1133333333333
20
118.1099998588561
10
269.8533333333333
20
117.7400002117156
10
270.5933333333333
20
117.3700001058578
10
271.3333333333333
20
117
10
270.5933333333333
20
116.6299988708497
10
269.8533333333333
20
116.25999887084959
10
269.1133344624837
20
115.8899988708497
10
268.37333389790854
20
115.51999915313718
10
267.6333333333333
20
115.14999887084969
10
266.8933344624837
20
114.77999943542477
10
266.1533327687581
20
114.40999887084968
10
265.4133338979085
20
114.03999943542476
10
264.6733344624837
20
113.66999971771247
10
263.93333305104574
20
113.29999943542475
10
263.19333389790853
20
112.92999971771246
10
262.4533344624837
20
112.55999999999995
10
261.7133331921895
20
112.18999943542485
10
260.9733338979085
20
111.81999999999994
10
260.23333262761435
20
111.44999943542484
10
259.49333333333334
20
111.07999999999993
10
259.49333333333334
20
122.92000000000007
0
LWPOLYLINE
5
64
330
C
100
AcDbEntity
420
16733986
8
0
100
AcDbPolyline
90
2
70
0
43
0
38
0
39
0
10
24.66666666666667
20
80
10
271.3333333333333
20
80
0
HATCH
5
65
330
C
100
AcDbEntity
420
16733986
8
0
100
AcDbHatch
10
0
20
0
30
0
210
0
220
0
230
1
2
SOLID
70
1
71
0
91
1
92
7
72
0
73
1
93
33
10
247.6533333333333
20
91.83999999999992
10
249.13333333333333
20
91.09999999999991
10
250.6133355916341
20
90.35999887084972
10
252.0933333333333
20
89.61999999999989
10
253.57333333333332
20
88.88000000000011
10
255.0533344624837
20
88.1399994354249
10
256.5333333333333
20
87.40000000000009
10
258.0133333333333
20
86.66000000000008
10
259.49333333333334
20
85.92000000000007
10
260.9733344624837
20
85.17999943542486
10
262.4533333333333
20
84.44000000000005
10
263.93333333333334
20
83.70000028228765
10
265.4133333333333
20
82.96000000000004
10
266.8933333333333
20
82.21999971771243
10
268.37333333333333
20
81.48000042343142
10
269.8533333333333
20
80.7400002117156
10
271.3333333333333
20
80
10
269.8533333333333
20
79.25999774169918
10
268.37333333333333
20
78.51999774169917
10
266.89333559163407
20
77.77999774169916
10
265.4133344624837
20
77.03999830627436
10
263.93333333333334
20
76.29999774169914
10
262.4533355916341
20
75.55999887084954
10
260.97333220418295
20
74.81999774169913
10
259.4933344624837
20
74.07999887084952
10
258.0133355916341
20
73.33999943542472
10
256.5333327687581
20
72.5999988708495
10
255.0533344624837
20
71.8599994354247
10
253.57333559163408
20
71.11999999999989
10
252.0933330510457
20
70.3799988708497
10
250.6133344624837
20
69.6400000000001
10
249.13333192189532
20
68.89999887084969
10
247.6533333333333
20
68.16000000000008
97
0
75
1
76
1
47
1
98
0
0
LWPOLYLINE
5
66
330
C
100
AcDbEntity
420
16733986
8
0
100
AcDbPolyline
90
34
70
0
43
0
38
0
39
0
10
247.6533333333333
20
91.83999999999992
10
249.13333333333333
20
91.09999999999991
10
250.6133355916341
20
90.35999887084972
10
252.0933333333333
20
89.61999999999989
10
253.57333333333332
20
88.88000000000011
10
255.0533344624837
20
88.1399994354249
10
256.5333333333333
20
87.40000000000009
10
258.0133333333333
20
86.66000000000008
10
259.49333333333334
20
85.92000000000007
10
260.9733344624837
20
85.17999943542486
10
262.4533333333333
20
84.44000000000005
10
263.93333333333334
20
83.70000028228765
10
265.4133333333333
20
82.96000000000004
10
266.8933333333333
20
82.21999971771243
10
268.37333333333333
20
81.48000042343142
10
269.8533333333333
20
80.7400002117156
10
271.3333333333333
20
80
10
269.8533333333333
20
79.25999774169918
10
268.37333333333333
20
78.51999774169917
10
266.89333559163407
20
77.77999774169916
10
265.4133344624837
20
77.03999830627436
10
263.93333333333334
20
76.29999774169914
10
262.4533355916341
20
75.55999887084954
10
260.97333220418295
20
74.81999774169913
10
259.4933344624837
20
74.07999887084952
10
258.0133355916341
20
73.33999943542472
10
256.5333327687581
20
72.5999988708495
10
255.0533344624837
20
71.8599994354247
10
253.57333559163408
20
71.11999999999989
10
252.0933330510457
20
70.3799988708497
10
250.6133344624837
20
69.6400000000001
10
249.13333192189532
20
68.89999887084969
10
247.6533333333333
20
68.16000000000008
10
247.6533333333333
20
91.83999999999992
0
LWPOLYLINE
5
67
330
C
100
AcDbEntity
420
16733986
8
0
100
AcDbPolyline
90
2
70
0
43
0
38
0
39
0
10
24.66666666666667
20
43
10
271.3333333333333
20
43
0
HATCH
5
68
330
C
100
AcDbEntity
420
16733986
8
0
100
AcDbHatch
10
0
20
0
30
0
210
0
220
0
230
1
2
SOLID
70
1
71
0
91
1
92
7
72
0
73
1
93
33
10
223.9733333333333
20
66.68000000000006
10
226.9333333333333
20
65.20000000000005
10
229.89333784993488
20
63.71999774169922
10
232.8533333333333
20
62.23999999999978
10
235.8133333333333
20
60.76000000000022
10
238.77333559163412
20
59.279998870849795
10
241.7333333333333
20
57.80000000000018
10
244.69333333333333
20
56.320000000000164
10
247.6533333333333
20
54.840000000000146
10
250.6133355916341
20
53.35999887084972
10
253.57333333333332
20
51.88000000000011
10
256.5333333333333
20
50.40000056457529
10
259.49333333333334
20
48.92000000000007
10
262.4533333333333
20
47.43999943542485
10
265.4133333333333
20
45.96000084686284
10
268.37333333333333
20
44.48000042343119
10
271.3333333333333
20
43
10
268.37333333333333
20
41.51999548339836
10
265.4133333333333
20
40.03999548339834
10
262.4533378499349
20
38.559995483398325
10
259.4933355916341
20
37.07999661254871
10
256.5333333333333
20
35.59999548339829
10
253.5733378499349
20
34.11999774169908
10
250.61333107503253
20
32.63999548339825
10
247.65333559163412
20
31.159997741699044
10
244.6933378499349
20
29.67999887084943
10
241.73333220418294
20
28.199997741699008
10
238.77333559163412
20
26.719998870849395
10
235.8133378499349
20
25.23999999999978
10
232.85333276875812
20
23.759997741699408
10
229.8933355916341
20
22.2800000000002
10
226.93333051045732
20
20.79999774169937
10
223.9733333333333
20
19.320000000000164
97
0
75
1
76
1
47
1
98
0
0
LWPOLYLINE
5
69
330
C
100
AcDbEntity
420
16733986
8
0
100
AcDbPolyline
90
34
70
0
43
0
38
0
39
0
10
223.9733333333333
20
66.68000000000006
10
226.9333333333333
20
65.20000000000005
10
229.89333784993488
20
63.71999774169922
10
232.8533333333333
20
62.23999999999978
10
235.8133333333333
20
60.76000000000022
10
238.77333559163412
20
59.279998870849795
10
241.7333333333333
20
57.80000000000018
10
244.69333333333333
20
56.320000000000164
10
247.6533333333333
20
54.840000000000146
10
250.6133355916341
20
53.35999887084972
10
253.57333333333332
20
51.88000000000011
10
256.5333333333333
20
50.40000056457529
10
259.49333333333334
20
48.92000000000007
10
262.4533333333333
20
47.43999943542485
10
265.4133333333333
20
45.96000084686284
10
268.37333333333333
20
44.48000042343119
10
271.3333333333333
20
43
10
268.37333333333333
20
41.51999548339836
10
265.4133333333333
20
40.03999548339834
10
262.4533378499349
20
38.559995483398325
10
259.4933355916341
20
37.07999661254871
10
256.5333333333333
20
35.59999548339829
10
253.5733378499349
20
34.11999774169908
10
250.61333107503253
20
32.63999548339825
10
247.65333559163412
20
31.159997741699044
10
244.6933378499349
20
29.67999887084943
10
241.73333220418294
20
28.199997741699008
10
238.77333559163412
20
26.719998870849395
10
235.8133378499349
20
25.23999999999978
10
232.85333276875812
20
23.759997741699408
10
229.8933355916341
20
22.2800000000002
10
226.93333051045732
20
20.79999774169937
10
223.9733333333333
20
19.320000000000164
10
223.9733333333333
20
66.68000000000006
0
ENDSEC
0
SECTION
2
OBJECTS
0
DICTIONARY
5
A
330
0
100
AcDbDictionary
281
1
3
ACAD_GROUP
350
B
0
DICTIONARY
5
B
330
A
100
AcDbDictionary
281
0
0
ENDSEC
0
EOF