0
SECTION
2
HEADER
9
$ACADVER
1
AC1021
9
$LASTSAVEDBY
1
@tarikjabiri/dxf
9
$HANDSEED
5
33
9
$INSUNITS
70
0
9
$CLAYER
8
0
9
$VIEWCTR
10
200.49998474121094
20
257.25
0
ENDSEC
0
SECTION
2
CLASSES
0
ENDSEC
0
SECTION
2
TABLES
0
TABLE
2
VPORT
5
1
330
0
100
AcDbSymbolTable
70
1
0
VPORT
5
19
330
1
100
AcDbSymbolTableRecord
100
AcDbViewportTableRecord
2
*Active
70
0
10
0
20
0
11
1
21
1
12
200.49998474121094
22
257.25
13
0
23
0
14
10
24
10
15
10
25
10
16
0
26
0
36
1
17
0
27
0
37
0
40
714.5
41
2
42
50
43
0
44
0
50
0
51
0
71
0
72
100
73
1
74
3
75
0
76
1
77
0
78
0
281
0
65
1
110
0
120
0
130
0
111
1
121
0
131
0
112
0
122
1
132
0
79
0
146
0
348
10020
60
7
61
5
292
1
282
1
141
0
142
0
63
250
421
3358443
0
ENDTAB
0
TABLE
2
LTYPE
5
2
330
0
100
AcDbSymbolTable
70
3
0
LTYPE
5
12
330
2
100
AcDbSymbolTableRecord
100
AcDbLinetypeTableRecord
2
ByBlock
70
0
3

72
65
73
0
40
0
0
LTYPE
5
13
330
2
100
AcDbSymbolTableRecord
100
AcDbLinetypeTableRecord
2
ByLayer
70
0
3

72
65
73
0
40
0
0
LTYPE
5
14
330
2
100
AcDbSymbolTableRecord
100
AcDbLinetypeTableRecord
2
Continuous
70
0
3
Solid line
72
65
73
0
40
0
0
ENDTAB
0
TABLE
2
LAYER
5
3
330
0
100
AcDbSymbolTable
70
1
0
LAYER
5
15
330
3
100
AcDbSymbolTableRecord
100
AcDbLayerTableRecord
2
0
70
0
62
7
6
Continuous
370
0
390
0
0
ENDTAB
0
TABLE
2
STYLE
5
4
330
0
100
AcDbSymbolTable
70
2
0
STYLE
5
16
330
4
100
AcDbSymbolTableRecord
100
AcDbTextStyleTableRecord
2
Standard
70
0
40
0
41
1
50
0
71
0
42
1
3
txt
4

0
STYLE
5
1B
330
4
100
AcDbSymbolTableRecord
100
AcDbTextStyleTableRecord
2
Arial
70
0
40
0
41
1
50
0
71
0
42
1
3
Arial.ttf
4

0
ENDTAB
0
TABLE
2
VIEW
5
5
330
0
100
AcDbSymbolTable
70
0
0
ENDTAB
0
TABLE
2
UCS
5
6
330
0
100
AcDbSymbolTable
70
0
0
ENDTAB
0
TABLE
2
APPID
5
7
330
0
100
AcDbSymbolTable
70
1
0
APPID
5
17
330
7
100
AcDbSymbolTableRecord
100
AcDbRegAppTableRecord
2
ACAD
70
0
0
ENDTAB
0
TABLE
2
DIMSTYLE
5
8
330
0
100
AcDbSymbolTable
70
1
100
AcDbDimStyleTable
0
DIMSTYLE
105
18
330
8
100
AcDbSymbolTableRecord
100
AcDbDimStyleTableRecord
2
Standard
70
0
340
16
0
ENDTAB
0
TABLE
2
BLOCK_RECORD
5
9
330
0
100
AcDbSymbolTable
70
2
0
BLOCK_RECORD
5
C
330
9
100
AcDbSymbolTableRecord
100
AcDbBlockTableRecord
2
*Model_Space
70
0
280
1
281
0
0
BLOCK_RECORD
5
F
330
9
100
AcDbSymbolTableRecord
100
AcDbBlockTableRecord
2
*Paper_Space
70
0
280
1
281
0
0
ENDTAB
0
ENDSEC
0
SECTION
2
BLOCKS
0
BLOCK
5
D
330
C
100
AcDbEntity
8
0
100
AcDbBlockBegin
2
*Model_Space
70
0
10
0
20
0
30
0
3
*Model_Space
1

0
ENDBLK
5
E
100
AcDbEntity
8
0
100
AcDbBlockEnd
0
BLOCK
5
10
330
F
100
AcDbEntity
8
0
100
AcDbBlockBegin
2
*Paper_Space
70
0
10
0
20
0
30
0
3
*Paper_Space
1

0
ENDBLK
5
11
100
AcDbEntity
8
0
100
AcDbBlockEnd
0
ENDSEC
0
SECTION
2
ENTITIES
0
TEXT
5
1A
330
C
100
AcDbEntity
420
0
8
0
100
AcDbText
10
0
20
514.5
30
0
40
20
1
SVG Shapes
7
Arial
100
AcDbText
0
LWPOLYLINE
5
1C
330
C
100
AcDbEntity
420
12000284
8
0
100
AcDbPolyline
90
42
70
0
43
0
38
0
39
0
10
29
20
483
10
133
20
483
10
133
20
483
10
134.56072257612902
20
482.84628224322586
10
136.06146745892073
20
482.3910362600903
10
137.4445618641568
20
481.65175689842033
10
138.65685424949237
20
480.65685424949237
10
139.65175689842036
20
479.4445618641568
10
140.3910362600903
20
478.06146745892073
10
140.84628224322586
20
476.560722576129
10
141
20
475
10
141
20
431
10
141
20
431
10
140.84628224322586
20
429.439277423871
10
140.3910362600903
20
427.93853254107927
10
139.65175689842036
20
426.5554381358432
10
138.65685424949237
20
425.34314575050763
10
137.4445618641568
20
424.34824310157967
10
136.06146745892073
20
423.6089637399097
10
134.56072257612902
20
423.15371775677414
10
133
20
423
10
29
20
423
10
29
20
423
10
27.439277423870976
20
423.15371775677414
10
25.938532541079283
20
423.6089637399097
10
24.555438135843183
20
424.34824310157967
10
23.34314575050762
20
425.34314575050763
10
22.348243101579637
20
426.5554381358432
10
21.608963739909704
20
427.93853254107927
10
21.153717756774157
20
429.439277423871
10
21
20
431
10
21
20
475
10
21
20
475
10
21.153717756774157
20
476.560722576129
10
21.608963739909704
20
478.06146745892073
10
22.348243101579637
20
479.4445618641568
10
23.343145750507617
20
480.65685424949237
10
24.555438135843183
20
481.65175689842033
10
25.938532541079276
20
482.3910362600903
10
27.43927742387097
20
482.84628224322586
10
29
20
483
10
29
20
483
0
HATCH
5
1D
330
C
100
AcDbEntity
420
2001125
8
0
100
AcDbHatch
10
0
20
0
30
0
210
0
220
0
230
1
2
SOLID
70
1
71
0
91
1
92
7
72
0
73
1
93
32
10
291
20
453
10
290.23141121612923
20
445.1963871193549
10
287.9551813004515
20
437.6926627053964
10
284.2587844921018
20
430.7771906792159
10
279.2842712474619
20
424.7157287525381
10
273.2228093207841
20
419.7412155078982
10
266.3073372946036
20
416.0448186995485
10
258.8036128806451
20
413.76858878387077
10
251
20
413
10
243.19638711935488
20
413.76858878387077
10
235.6926627053964
20
416.0448186995485
10
228.77719067921592
20
419.7412155078982
10
222.7157287525381
20
424.7157287525381
10
217.74121550789818
20
430.7771906792159
10
214.04481869954853
20
437.6926627053964
10
211.76858878387077
20
445.1963871193549
10
211
20
453
10
211.76858878387077
20
460.8036128806451
10
214.04481869954853
20
468.3073372946036
10
217.74121550789818
20
475.2228093207841
10
222.7157287525381
20
481.2842712474619
10
228.77719067921592
20
486.2587844921018
10
235.6926627053964
20
489.95518130045144
10
243.19638711935488
20
492.23141121612923
10
251
20
493
10
258.8036128806451
20
492.23141121612923
10
266.3073372946036
20
489.9551813004515
10
273.22280932078405
20
486.2587844921018
10
279.2842712474619
20
481.2842712474619
10
284.2587844921018
20
475.2228093207841
10
287.95518130045144
20
468.3073372946036
10
290.23141121612923
20
460.8036128806451
97
0
75
1
76
1
47
1
98
0
0
LWPOLYLINE
5
1E
330
C
100
AcDbEntity
420
870305
8
0
100
AcDbPolyline
90
33
70
0
43
0
38
0
39
0
10
291
20
453
10
290.23141121612923
20
445.1963871193549
10
287.9551813004515
20
437.6926627053964
10
284.2587844921018
20
430.7771906792159
10
279.2842712474619
20
424.7157287525381
10
273.2228093207841
20
419.7412155078982
10
266.3073372946036
20
416.0448186995485
10
258.8036128806451
20
413.76858878387077
10
251
20
413
10
243.19638711935488
20
413.76858878387077
10
235.6926627053964
20
416.0448186995485
10
228.77719067921592
20
419.7412155078982
10
222.7157287525381
20
424.7157287525381
10
217.74121550789818
20
430.7771906792159
10
214.04481869954853
20
437.6926627053964
10
211.76858878387077
20
445.1963871193549
10
211
20
453
10
211.76858878387077
20
460.8036128806451
10
214.04481869954853
20
468.3073372946036
10
217.74121550789818
20
475.2228093207841
10
222.7157287525381
20
481.2842712474619
10
228.77719067921592
20
486.2587844921018
10
235.6926627053964
20
489.95518130045144
10
243.19638711935488
20
492.23141121612923
10
251
20
493
10
258.8036128806451
20
492.23141121612923
10
266.3073372946036
20
489.9551813004515
10
273.22280932078405
20
486.2587844921018
10
279.2842712474619
20
481.2842712474619
10
284.2587844921018
20
475.2228093207841
10
287.95518130045144
20
468.3073372946036
10
290.23141121612923
20
460.8036128806451
10
291
20
453
0
HATCH
5
1F
330
C
100
AcDbEntity
420
4431943
8
0
100
AcDbHatch
10
0
20
0
30
0
210
0
220
0
230
1
2
SOLID
70
1
71
0
91
1
92
7
72
0
73
1
93
32
10
461
20
453
10
459.84711682419385
20
446.17183872943554
10
456.4327719506772
20
439.60607986722187
10
450.8881767381527
20
433.5550418443139
10
443.42640687119285
20
428.25126265847086
10
434.33421398117616
20
423.89856356941095
10
423.9610059419054
20
420.664216362105
10
412.7054193209677
20
418.67251518588694
10
401
20
418
10
389.2945806790323
20
418.67251518588694
10
378.0389940580946
20
420.664216362105
10
367.6657860188239
20
423.8985635694109
10
358.57359312880715
20
428.25126265847086
10
351.1118232618473
20
433.5550418443139
10
345.5672280493228
20
439.60607986722187
10
342.15288317580615
20
446.17183872943554
10
341
20
453
10
342.15288317580615
20
459.82816127056446
10
345.5672280493228
20
466.39392013277813
10
351.1118232618473
20
472.4449581556861
10
358.57359312880715
20
477.74873734152914
10
367.66578601882384
20
482.10143643058905
10
378.0389940580946
20
485.335783637895
10
389.29458067903226
20
487.32748481411306
10
401
20
488
10
412.7054193209677
20
487.32748481411306
10
423.9610059419054
20
485.335783637895
10
434.3342139811761
20
482.1014364305891
10
443.42640687119285
20
477.74873734152914
10
450.8881767381527
20
472.4449581556861
10
456.4327719506772
20
466.39392013277813
10
459.8471168241938
20
459.8281612705645
97
0
75
1
76
1
47
1
98
0
0
LWPOLYLINE
5
20
330
C
100
AcDbEntity
420
1793568
8
0
100
AcDbPolyline
90
33
70
0
43
0
38
0
39
0
10
461
20
453
10
459.84711682419385
20
446.17183872943554
10
456.4327719506772
20
439.60607986722187
10
450.8881767381527
20
433.5550418443139
10
443.42640687119285
20
428.25126265847086
10
434.33421398117616
20
423.89856356941095
10
423.9610059419054
20
420.664216362105
10
412.7054193209677
20
418.67251518588694
10
401
20
418
10
389.2945806790323
20
418.67251518588694
10
378.0389940580946
20
420.664216362105
10
367.6657860188239
20
423.8985635694109
10
358.57359312880715
20
428.25126265847086
10
351.1118232618473
20
433.5550418443139
10
345.5672280493228
20
439.60607986722187
10
342.15288317580615
20
446.17183872943554
10
341
20
453
10
342.15288317580615
20
459.82816127056446
10
345.5672280493228
20
466.39392013277813
10
351.1118232618473
20
472.4449581556861
10
358.57359312880715
20
477.74873734152914
10
367.66578601882384
20
482.10143643058905
10
378.0389940580946
20
485.335783637895
10
389.29458067903226
20
487.32748481411306
10
401
20
488
10
412.7054193209677
20
487.32748481411306
10
423.9610059419054
20
485.335783637895
10
434.3342139811761
20
482.1014364305891
10
443.42640687119285
20
477.74873734152914
10
450.8881767381527
20
472.4449581556861
10
456.4327719506772
20
466.39392013277813
10
459.8471168241938
20
459.8281612705645
10
461
20
453
0
LWPOLYLINE
5
21
330
C
100
AcDbEntity
420
16750592
8
0
100
AcDbPolyline
90
2
70
0
43
0
38
0
39
0
10
21
20
383
10
181
20
383
0
LWPOLYLINE
5
22
330
C
100
AcDbEntity
420
10233776
8
0
100
AcDbPolyline
90
5
70
0
43
0
38
0
39
0
10
201
20
403
10
231
20
363
10
261
20
398
10
291
20
358
10
321
20
403
0
HATCH
5
23
330
C
100
AcDbEntity
420
16635957
8
0
100
AcDbHatch
10
0
20
0
30
0
210
0
220
0
230
1
2
SOLID
70
1
71
0
91
1
92
7
72
0
73
1
93
10
10
431
20
413
10
446
20
373
10
491
20
373
10
456
20
348
10
466
20
308
10
431
20
333
10
396
20
308
10
406
20
348
10
371
20
373
10
416
20
373
97
0
75
1
76
1
47
1
98
0
0
LWPOLYLINE
5
24
330
C
100
AcDbEntity
420
16088855
8
0
100
AcDbPolyline
90
11
70
0
43
0
38
0
39
0
10
431
20
413
10
446
20
373
10
491
20
373
10
456
20
348
10
466
20
308
10
431
20
333
10
396
20
308
10
406
20
348
10
371
20
373
10
416
20
373
10
431
20
413
0
LWPOLYLINE
5
25
330
C
100
AcDbEntity
420
48340
8
0
100
AcDbPolyline
90
145
70
0
43
0
38
0
39
0
10
21
20
303
10
22.23830223083496
20
304.5698547363281
10
23.55706787109375
20
306.07269287109375
10
24.961166381835938
20
307.4960479736328
10
26.45410919189453
20
308.8258056640625
10
28.03738021850586
20
310.04649353027344
10
29.709470748901367
20
311.1422576904297
10
31.46526336669922
20
312.09803771972656
10
33.29574966430664
20
312.9014892578125
10
35.18855285644531
20
313.54454040527344
10
37.12912368774414
20
314.024658203125
10
39.102447509765625
20
314.3448944091797
10
41.09455108642578
20
314.51329040527344
10
43.09364700317383
20
314.5414733886719
10
45.090579986572266
20
314.44276428222656
10
47.07880401611328
20
314.2314147949219
10
49.054080963134766
20
313.92124938964844
10
51.01396942138672
20
313.5251007080078
10
52.9573974609375
20
313.05462646484375
10
54.884254455566406
20
312.5202178955078
10
56.79511642456055
20
311.93109130859375
10
58.691001892089844
20
311.29534912109375
10
60.57312774658203
20
310.6199493408203
10
62.44298553466797
20
309.91127014160156
10
64.30208969116211
20
309.17481994628906
10
66.1519775390625
20
308.4154968261719
10
67.99421691894531
20
307.63780212402344
10
69.83035278320312
20
306.8457794189453
10
71.66179656982422
20
306.0429992675781
10
73.4901123046875
20
305.23309326171875
10
75.316650390625
20
304.41920471191406
10
77.14279174804688
20
303.6044158935547
10
78.96973419189453
20
302.7914123535156
10
80.79885864257812
20
301.98333740234375
10
82.63127136230469
20
301.18275451660156
10
84.4681625366211
20
300.3925018310547
10
86.31065368652344
20
299.61541748046875
10
88.15972900390625
20
298.8541259765625
10
90.0163803100586
20
298.11158752441406
10
91.88150787353516
20
297.3905334472656
10
93.75598907470703
20
296.6941833496094
10
95.6404800415039
20
296.0254364013672
10
97.53572845458984
20
295.3877258300781
10
99.44207763671875
20
294.78416442871094
10
101.35997772216797
20
294.2183532714844
10
103.28958892822266
20
293.69383239746094
10
105.23090362548828
20
293.2145233154297
10
107.18363952636719
20
292.78416442871094
10
109.14728546142578
20
292.4066925048828
10
111.1210708618164
20
292.0863800048828
10
113.10374450683594
20
291.82704162597656
10
115.0938491821289
20
291.63275146484375
10
117.08949279785156
20
291.5073547363281
10
119.08834075927734
20
291.4546356201172
10
121.08776092529297
20
291.4777526855469
10
123.08470153808594
20
291.5797424316406
10
125.0758056640625
20
291.76300048828125
10
127.05750274658203
20
292.02923583984375
10
129.02609252929688
20
292.3794860839844
10
130.97781372070312
20
292.8140106201172
10
132.908935546875
20
293.3324890136719
10
134.81591796875
20
293.9336700439453
10
136.69558715820312
20
294.61558532714844
10
138.5449676513672
20
295.37574768066406
10
140.3616180419922
20
296.2111358642578
10
142.14349365234375
20
297.11830139160156
10
143.8890838623047
20
298.09352111816406
10
145.59715270996094
20
299.1330871582031
10
147.2671356201172
20
300.2328643798828
10
148.89866638183594
20
301.3890075683594
10
150.49166870117188
20
302.5975646972656
10
152.05816650390625
20
303.8404541015625
10
153.63465881347656
20
305.0706481933594
10
155.22398376464844
20
306.2842559814453
10
156.82623291015625
20
307.4807434082031
10
158.4414825439453
20
308.65956115722656
10
160.06988525390625
20
309.8201599121094
10
161.71142578125
20
310.96214294433594
10
163.36619567871094
20
312.0847930908203
10
165.03431701660156
20
313.1875762939453
10
166.7157745361328
20
314.26988220214844
10
168.41061401367188
20
315.33106994628906
10
170.1189727783203
20
316.37037658691406
10
171.84078979492188
20
317.38726806640625
10
173.57603454589844
20
318.38096618652344
10
175.3248291015625
20
319.3506774902344
10
177.08709716796875
20
320.2956085205078
10
178.86285400390625
20
321.2150421142578
10
180.65200805664062
20
322.1081085205078
10
182.45452880859375
20
322.9738311767578
10
184.27029418945312
20
323.8114318847656
10
186.09918212890625
20
324.6199951171875
10
187.9410400390625
20
325.3985290527344
10
189.79574584960938
20
326.14588928222656
10
191.66305541992188
20
326.8612976074219
10
193.54269409179688
20
327.5434875488281
10
195.4344482421875
20
328.19142150878906
10
197.33795166015625
20
328.80401611328125
10
199.25282287597656
20
329.3800811767578
10
201.1785888671875
20
329.9184265136719
10
203.1148681640625
20
330.41786193847656
10
205.06103515625
20
330.87713623046875
10
207.01651000976562
20
331.2950744628906
10
208.98062133789062
20
331.67034912109375
10
210.95262145996094
20
332.00164794921875
10
212.93165588378906
20
332.2878723144531
10
214.91683959960938
20
332.5275421142578
10
216.9072265625
20
332.7195739746094
10
218.90170288085938
20
332.8627471923828
10
220.8991241455078
20
332.95582580566406
10
222.8983154296875
20
332.99761962890625
10
224.89791870117188
20
332.98707580566406
10
226.89645385742188
20
332.9231262207031
10
228.89256286621094
20
332.80487060546875
10
230.8846435546875
20
332.63148498535156
10
232.87103271484375
20
332.4022521972656
10
234.85009765625
20
332.11647033691406
10
236.82009887695312
20
331.7735595703125
10
238.7792510986328
20
331.3733825683594
10
240.7257080078125
20
330.9154510498047
10
242.65771484375
20
330.39996337890625
10
244.57339477539062
20
329.8267517089844
10
246.4710235595703
20
329.19639587402344
10
248.34873962402344
20
328.50897216796875
10
250.20494079589844
20
327.76539611816406
10
252.037841796875
20
326.9661102294922
10
253.84596252441406
20
326.1123352050781
10
255.6277618408203
20
325.20472717285156
10
257.38189697265625
20
324.24485778808594
10
259.10699462890625
20
323.2336883544922
10
260.8019714355469
20
322.1727752685547
10
262.4657897949219
20
321.0636444091797
10
264.0974426269531
20
319.9077606201172
10
265.69610595703125
20
318.7067565917969
10
267.2613220214844
20
317.4622497558594
10
268.7923583984375
20
316.176025390625
10
270.2888488769531
20
314.84979248046875
10
271.75048828125
20
313.4852752685547
10
273.177001953125
20
312.0840148925781
10
274.5683898925781
20
310.64781188964844
10
275.9245910644531
20
309.1784362792969
10
277.2456359863281
20
307.6772918701172
10
278.5317687988281
20
306.1461486816406
10
279.7832336425781
20
304.5865020751953
10
281
20
303
0
LWPOLYLINE
5
26
330
C
100
AcDbEntity
420
15277667
8
0
100
AcDbPolyline
90
116
70
0
43
0
38
0
39
0
10
301
20
303
10
302.42156982421875
20
304.40135192871094
10
303.8636169433594
20
305.7815704345703
10
305.3267822265625
20
307.1394348144531
10
306.8114929199219
20
308.4736633300781
10
308.3184509277344
20
309.7827453613281
10
309.8481140136719
20
311.06520080566406
10
311.4011535644531
20
312.31922912597656
10
312.9779968261719
20
313.5431823730469
10
314.5791320800781
20
314.7351837158203
10
316.2051086425781
20
315.89306640625
10
317.8562316894531
20
317.0148162841797
10
319.5328369140625
20
318.0980682373047
10
321.23516845703125
20
319.1404571533203
10
322.9633483886719
20
320.1393737792969
10
324.7173767089844
20
321.0921325683594
10
326.4971008300781
20
321.99598693847656
10
328.3022155761719
20
322.8480224609375
10
330.1321716308594
20
323.6453094482422
10
331.9862365722656
20
324.38470458984375
10
333.8634338378906
20
325.0633239746094
10
335.762451171875
20
325.6781463623047
10
337.6817932128906
20
326.2261505126953
10
339.6195983886719
20
326.70481872558594
10
341.57379150390625
20
327.1113586425781
10
343.5419616699219
20
327.44374084472656
10
345.5215148925781
20
327.69981384277344
10
347.50958251953125
20
327.8780822753906
10
349.50311279296875
20
327.9774932861328
10
351.4990539550781
20
327.9974060058594
10
353.4941711425781
20
327.9377136230469
10
355.4853820800781
20
327.7987823486328
10
357.46954345703125
20
327.5813903808594
10
359.4437255859375
20
327.28692626953125
10
361.4052429199219
20
326.9172668457031
10
363.3515319824219
20
326.47430419921875
10
365.2803649902344
20
325.96067810058594
10
367.18975830078125
20
325.3788604736328
10
369.0780334472656
20
324.7317810058594
10
370.9438171386719
20
324.0224304199219
10
372.7859191894531
20
323.253662109375
10
374.603515625
20
322.42864990234375
10
376.39599609375
20
321.5503234863281
10
378.16290283203125
20
320.62168884277344
10
379.9040222167969
20
319.6454772949219
10
381.6192626953125
20
318.62449645996094
10
383.3087158203125
20
317.56138610839844
10
384.9725036621094
20
316.45855712890625
10
386.6110534667969
20
315.31849670410156
10
388.22454833984375
20
314.143310546875
10
389.8135070800781
20
312.9351043701172
10
391.3783264160156
20
311.69581604003906
10
392.91961669921875
20
310.4273376464844
10
394.4378967285156
20
309.13145446777344
10
395.93365478515625
20
307.8095703125
10
397.407470703125
20
306.46331787109375
10
398.8599853515625
20
305.0940856933594
10
400.2917175292969
20
303.70314025878906
10
401.7082824707031
20
302.29673767089844
10
403.1400146484375
20
300.9058074951172
10
404.5925598144531
20
299.53662109375
10
406.0664367675781
20
298.1903839111328
10
407.5621337890625
20
296.8684844970703
10
409.0804443359375
20
295.5726013183594
10
410.62176513671875
20
294.3041534423828
10
412.1866149902344
20
293.0648956298828
10
413.77557373046875
20
291.856689453125
10
415.3890686035156
20
290.68150329589844
10
417.0274963378906
20
289.5413055419922
10
418.69140625
20
288.43858337402344
10
420.3808288574219
20
287.37542724609375
10
422.0960693359375
20
286.3544464111328
10
423.8371887207031
20
285.3782653808594
10
425.6041259765625
20
284.4496307373047
10
427.39654541015625
20
283.5712432861328
10
429.2142028808594
20
282.74632263183594
10
431.05633544921875
20
281.97760009765625
10
432.92205810546875
20
281.2682189941406
10
434.81036376953125
20
280.62115478515625
10
436.7197265625
20
280.0393524169922
10
438.6485290527344
20
279.52561950683594
10
440.5948791503906
20
279.082763671875
10
442.5563659667969
20
278.71302795410156
10
444.53057861328125
20
278.4185485839844
10
446.51470947265625
20
278.2012481689453
10
448.5058898925781
20
278.0623016357422
10
450.5010070800781
20
278.0025939941406
10
452.4969177246094
20
278.0225067138672
10
454.490478515625
20
278.12188720703125
10
456.478515625
20
278.30015563964844
10
458.45806884765625
20
278.5563201904297
10
460.42620849609375
20
278.8886260986328
10
462.3804016113281
20
279.2951965332031
10
464.3182067871094
20
279.7738342285156
10
466.2375793457031
20
280.3219451904297
10
468.1365966796875
20
280.9367370605469
10
470.0137634277344
20
281.61534118652344
10
471.8678283691406
20
282.3547821044922
10
473.6978454589844
20
283.1519317626953
10
475.5028991699219
20
284.00404357910156
10
477.28265380859375
20
284.9078674316406
10
479.03668212890625
20
285.8606262207031
10
480.76483154296875
20
286.85955810546875
10
482.4671325683594
20
287.9019317626953
10
484.143798828125
20
288.9851379394531
10
485.79486083984375
20
290.10693359375
10
487.4207763671875
20
291.2648620605469
10
489.0219421386719
20
292.456787109375
10
490.5987854003906
20
293.6807556152344
10
492.15185546875
20
294.93479919433594
10
493.6815185546875
20
296.2172546386719
10
495.1884765625
20
297.5262908935547
10
496.6731872558594
20
298.86053466796875
10
498.13629150390625
20
300.21844482421875
10
499.5783386230469
20
301.59869384765625
10
500.9999694824219
20
302.9999694824219
0
LWPOLYLINE
5
27
330
C
100
AcDbEntity
420
5025616
8
0
100
AcDbPolyline
90
80
70
0
43
0
38
0
39
0
10
21
20
223
10
21.038850784301758
20
224.98812866210938
10
21.15563201904297
20
226.97317504882812
10
21.350685119628906
20
228.95208740234375
10
21.624126434326172
20
230.92169189453125
10
21.97584342956543
20
232.87884521484375
10
22.405498504638672
20
234.82034301757812
10
22.91253662109375
20
236.74310302734375
10
23.496217727661133
20
238.64401245117188
10
24.155601501464844
20
240.51998901367188
10
24.889602661132812
20
242.3680419921875
10
25.69694709777832
20
244.18527221679688
10
26.576242446899414
20
245.96881103515625
10
27.525976181030273
20
247.71583557128906
10
28.544578552246094
20
249.4236297607422
10
29.63023567199707
20
251.089599609375
10
30.781137466430664
20
252.711181640625
10
31.995363235473633
20
254.28590393066406
10
33.27094650268555
20
255.8113555908203
10
34.60582733154297
20
257.2852020263672
10
35.99794387817383
20
258.70509338378906
10
37.44511032104492
20
260.06884765625
10
38.945037841796875
20
261.3743591308594
10
40.49540710449219
20
262.6195373535156
10
42.09385299682617
20
263.8023681640625
10
43.73794937133789
20
264.9208984375
10
45.42520523071289
20
265.9731750488281
10
47.15296173095703
20
266.95750427246094
10
48.91856002807617
20
267.87225341796875
10
50.71926498413086
20
268.7157897949219
10
52.552249908447266
20
269.4866943359375
10
54.41465377807617
20
270.18353271484375
10
56.30348205566406
20
270.80516052246094
10
58.2156982421875
20
271.35060119628906
10
60.14822006225586
20
271.8190460205078
10
62.097930908203125
20
272.20982360839844
10
64.06171035766602
20
272.5224609375
10
66.03636932373047
20
272.7566375732422
10
68.01873779296875
20
272.91249084472656
10
70.00569915771484
20
272.9902801513672
10
71.99420166015625
20
272.9902801513672
10
73.98117065429688
20
272.91253662109375
10
75.96354675292969
20
272.7566375732422
10
77.93820190429688
20
272.52239990234375
10
79.9019775390625
20
272.2097930908203
10
81.8517074584961
20
271.8190460205078
10
83.78422546386719
20
271.3506317138672
10
85.6964340209961
20
270.80516052246094
10
87.58527374267578
20
270.18348693847656
10
89.44768524169922
20
269.4866485595703
10
91.28068542480469
20
268.7158203125
10
93.08140563964844
20
267.872314453125
10
94.84703063964844
20
266.9576110839844
10
96.57477569580078
20
265.9732208251953
10
98.26197814941406
20
264.9208679199219
10
99.90605926513672
20
263.8023681640625
10
101.5045166015625
20
262.61956787109375
10
103.05490112304688
20
261.3744201660156
10
104.55484008789062
20
260.0689239501953
10
106.00199890136719
20
258.70518493652344
10
107.39409637451172
20
257.2852325439453
10
108.72898864746094
20
255.8114013671875
10
110.00457763671875
20
254.2859649658203
10
111.21883392333984
20
252.71127319335938
10
112.36976623535156
20
251.08970642089844
10
113.45537567138672
20
249.4237060546875
10
114.47391510009766
20
247.71585083007812
10
115.42366027832031
20
245.96884155273438
10
116.30299377441406
20
244.18533325195312
10
117.11038970947266
20
242.36813354492188
10
117.84443664550781
20
240.52011108398438
10
118.50379180908203
20
238.64407348632812
10
119.08745574951172
20
236.7431640625
10
119.59449005126953
20
234.82040405273438
10
120.02416229248047
20
232.87890625
10
120.37594604492188
20
230.92178344726562
10
120.64933013916016
20
228.9521484375
10
120.8443374633789
20
226.97320556640625
10
120.96111297607422
20
224.9881591796875
10
121
20
223.00003051757812
0
LWPOLYLINE
5
28
330
C
100
AcDbEntity
420
16740419
8
0
100
AcDbPolyline
90
42
70
0
43
0
38
0
39
0
10
206
20
243
10
276
20
243
10
276
20
243
10
276.97545161008065
20
242.90392640201617
10
277.91341716182546
20
242.61939766255642
10
278.777851165098
20
242.15734806151272
10
279.53553390593277
20
241.5355339059327
10
280.1573480615127
20
240.777851165098
10
280.6193976625564
20
239.91341716182546
10
280.90392640201617
20
238.97545161008065
10
281
20
238
10
281
20
198
10
281
20
198
10
280.90392640201617
20
197.02454838991935
10
280.6193976625564
20
196.08658283817454
10
280.1573480615127
20
195.222148834902
10
279.53553390593277
20
194.4644660940673
10
278.777851165098
20
193.84265193848728
10
277.91341716182546
20
193.38060233744358
10
276.97545161008065
20
193.09607359798383
10
276
20
193
10
206
20
193
10
206
20
193
10
205.02454838991935
20
193.09607359798383
10
204.08658283817456
20
193.38060233744358
10
203.222148834902
20
193.84265193848728
10
202.46446609406726
20
194.46446609406723
10
201.84265193848728
20
195.222148834902
10
201.38060233744358
20
196.08658283817454
10
201.09607359798386
20
197.02454838991935
10
201
20
198
10
201
20
238
10
201
20
238
10
201.09607359798386
20
238.97545161008065
10
201.38060233744358
20
239.91341716182546
10
201.84265193848728
20
240.777851165098
10
202.46446609406726
20
241.5355339059327
10
203.222148834902
20
242.15734806151272
10
204.08658283817454
20
242.61939766255642
10
205.02454838991935
20
242.90392640201617
10
206
20
243
10
206
20
243
0
TEXT
5
29
330
C
100
AcDbEntity
420
16777215
8
0
100
AcDbText
10
211
20
210
30
0
40
16
1
Group
7
Arial
100
AcDbText
0
LWPOLYLINE
5
2A
330
C
100
AcDbEntity
420
6056896
8
0
100
AcDbPolyline
90
5
70
0
43
0
38
0
39
0
10
294.17265993356705
20
224.160897731781
10
332.80969244241714
20
213.80813598632812
10
322.45693069696426
20
175.17110347747803
10
283.81989818811417
20
185.5238652229309
10
294.17265993356705
20
224.160897731781
0
TEXT
5
2B
330
C
100
AcDbEntity
420
3355443
8
0
100
AcDbText
10
21
20
128
30
0
40
27
1
SVG Text
7
Arial
100
AcDbText
0
TEXT
5
2C
330
C
100
AcDbEntity
420
6710886
8
0
100
AcDbText
10
21
20
100
30
0
40
16
1
Italic smaller text
7
Arial
100
AcDbText
0
LWPOLYLINE
5
2D
330
C
100
AcDbEntity
420
6717162
8
0
100
AcDbPolyline
90
42
70
0
43
0
38
0
39
0
10
31
20
83
10
161
20
83
10
161
20
83
10
162.95090322016128
20
82.80785280403228
10
164.8268343236509
20
82.23879532511285
10
166.55570233019603
20
81.31469612302544
10
168.07106781186548
20
80.07106781186548
10
169.31469612302544
20
78.55570233019603
10
170.23879532511287
20
76.82683432365087
10
170.8078528040323
20
74.95090322016131
10
171
20
73
10
171
20
43
10
171
20
43
10
170.8078528040323
20
41.04909677983869
10
170.23879532511287
20
39.17316567634913
10
169.31469612302544
20
37.44429766980397
10
168.07106781186548
20
35.928932188134524
10
166.55570233019603
20
34.68530387697456
10
164.8268343236509
20
33.76120467488715
10
162.95090322016128
20
33.19214719596772
10
161
20
33
10
31
20
33
10
31
20
33
10
29.049096779838717
20
33.19214719596772
10
27.173165676349104
20
33.76120467488715
10
25.44429766980398
20
34.68530387697456
10
23.928932188134524
20
35.928932188134524
10
22.685303876974547
20
37.44429766980397
10
21.761204674887132
20
39.17316567634913
10
21.192147195967696
20
41.04909677983869
10
21
20
43
10
21
20
73
10
21
20
73
10
21.192147195967696
20
74.95090322016131
10
21.761204674887132
20
76.82683432365087
10
22.685303876974544
20
78.55570233019603
10
23.928932188134524
20
80.07106781186548
10
25.44429766980398
20
81.31469612302544
10
27.173165676349097
20
82.23879532511285
10
29.049096779838713
20
82.80785280403228
10
30.999999999999996
20
83
10
31
20
83
0
HATCH
5
2E
330
C
100
AcDbEntity
420
16739179
8
0
100
AcDbHatch
10
0
20
0
30
0
210
0
220
0
230
1
2
SOLID
70
1
71
0
91
1
92
7
72
0
73
1
93
32
10
311
20
58
10
310.4235584120969
20
52.14729033951613
10
308.7163859753386
20
46.51949702904733
10
305.9440883690764
20
41.33289300941192
10
302.2132034355964
20
36.78679656440363
10
297.6671069905881
20
33.055911630923674
10
292.48050297095267
20
30.283614024661347
10
286.85270966048387
20
28.576441587903105
10
281
20
28
10
275.14729033951613
20
28.576441587903105
10
269.51949702904733
20
30.283614024661347
10
264.3328930094119
20
33.055911630923674
10
259.7867965644036
20
36.78679656440363
10
256.0559116309237
20
41.33289300941192
10
253.2836140246614
20
46.51949702904733
10
251.5764415879031
20
52.14729033951613
10
251
20
58
10
251.5764415879031
20
63.85270966048387
10
253.2836140246614
20
69.48050297095267
10
256.0559116309237
20
74.66710699058808
10
259.7867965644036
20
79.21320343559643
10
264.3328930094119
20
82.94408836907638
10
269.5194970290473
20
85.7163859753386
10
275.14729033951613
20
87.4235584120969
10
281
20
88
10
286.85270966048387
20
87.4235584120969
10
292.4805029709527
20
85.7163859753386
10
297.6671069905881
20
82.94408836907638
10
302.2132034355964
20
79.21320343559643
10
305.9440883690764
20
74.66710699058808
10
308.7163859753386
20
69.48050297095273
10
310.4235584120969
20
63.85270966048387
97
0
75
1
76
1
47
1
98
0
0
LWPOLYLINE
5
2F
330
C
100
AcDbEntity
420
16739179
8
0
100
AcDbPolyline
90
33
70
0
43
0
38
0
39
0
10
311
20
58
10
310.4235584120969
20
52.14729033951613
10
308.7163859753386
20
46.51949702904733
10
305.9440883690764
20
41.33289300941192
10
302.2132034355964
20
36.78679656440363
10
297.6671069905881
20
33.055911630923674
10
292.48050297095267
20
30.283614024661347
10
286.85270966048387
20
28.576441587903105
10
281
20
28
10
275.14729033951613
20
28.576441587903105
10
269.51949702904733
20
30.283614024661347
10
264.3328930094119
20
33.055911630923674
10
259.7867965644036
20
36.78679656440363
10
256.0559116309237
20
41.33289300941192
10
253.2836140246614
20
46.51949702904733
10
251.5764415879031
20
52.14729033951613
10
251
20
58
10
251.5764415879031
20
63.85270966048387
10
253.2836140246614
20
69.48050297095267
10
256.0559116309237
20
74.66710699058808
10
259.7867965644036
20
79.21320343559643
10
264.3328930094119
20
82.94408836907638
10
269.5194970290473
20
85.7163859753386
10
275.14729033951613
20
87.4235584120969
10
281
20
88
10
286.85270966048387
20
87.4235584120969
10
292.4805029709527
20
85.7163859753386
10
297.6671069905881
20
82.94408836907638
10
302.2132034355964
20
79.21320343559643
10
305.9440883690764
20
74.66710699058808
10
308.7163859753386
20
69.48050297095273
10
310.4235584120969
20
63.85270966048387
10
311
20
58
0
LWPOLYLINE
5
30
330
C
100
AcDbEntity
420
1402304
8
0
100
AcDbPolyline
90
5
70
0
43
0
38
0
39
0
10
351
20
203
10
451
20
203
10
451
20
123
10
351
20
123
10
351
20
203
0
LWPOLYLINE
5
31
330
C
100
AcDbEntity
420
12986408
8
0
100
AcDbPolyline
90
5
70
0
43
0
38
0
39
0
10
381
20
183
10
481
20
183
10
481
20
103
10
381
20
103
10
381
20
183
0
LWPOLYLINE
5
32
330
C
100
AcDbEntity
420
7951688
8
0
100
AcDbPolyline
90
5
70
0
43
0
38
0
39
0
10
351
20
83
10
471
20
83
10
471
20
33
10
351
20
33
10
351
20
83
0
ENDSEC
0
SECTION
2
OBJECTS
0
DICTIONARY
5
A
330
0
100
AcDbDictionary
281
1
3
ACAD_GROUP
350
B
0
DICTIONARY
5
B
330
A
100
AcDbDictionary
281
0
0
ENDSEC
0
EOF