0
SECTION
2
HEADER
9
$ACADVER
1
AC1021
9
$LASTSAVEDBY
1
@tarikjabiri/dxf
9
$HANDSEED
5
2C
9
$INSUNITS
70
0
9
$CLAYER
8
0
9
$VIEWCTR
10
210
20
498.5
0
ENDSEC
0
SECTION
2
CLASSES
0
ENDSEC
0
SECTION
2
TABLES
0
TABLE
2
VPORT
5
1
330
0
100
AcDbSymbolTable
70
1
0
VPORT
5
19
330
1
100
AcDbSymbolTableRecord
100
AcDbViewportTableRecord
2
*Active
70
0
10
0
20
0
11
1
21
1
12
210
22
498.5
13
0
23
0
14
10
24
10
15
10
25
10
16
0
26
0
36
1
17
0
27
0
37
0
40
563
41
2
42
50
43
0
44
0
50
0
51
0
71
0
72
100
73
1
74
3
75
0
76
1
77
0
78
0
281
0
65
1
110
0
120
0
130
0
111
1
121
0
131
0
112
0
122
1
132
0
79
0
146
0
348
10020
60
7
61
5
292
1
282
1
141
0
142
0
63
250
421
3358443
0
ENDTAB
0
TABLE
2
LTYPE
5
2
330
0
100
AcDbSymbolTable
70
3
0
LTYPE
5
12
330
2
100
AcDbSymbolTableRecord
100
AcDbLinetypeTableRecord
2
ByBlock
70
0
3

72
65
73
0
40
0
0
LTYPE
5
13
330
2
100
AcDbSymbolTableRecord
100
AcDbLinetypeTableRecord
2
ByLayer
70
0
3

72
65
73
0
40
0
0
LTYPE
5
14
330
2
100
AcDbSymbolTableRecord
100
AcDbLinetypeTableRecord
2
Continuous
70
0
3
Solid line
72
65
73
0
40
0
0
ENDTAB
0
TABLE
2
LAYER
5
3
330
0
100
AcDbSymbolTable
70
1
0
LAYER
5
15
330
3
100
AcDbSymbolTableRecord
100
AcDbLayerTableRecord
2
0
70
0
62
7
6
Continuous
370
0
390
0
0
ENDTAB
0
TABLE
2
STYLE
5
4
330
0
100
AcDbSymbolTable
70
1
0
STYLE
5
16
330
4
100
AcDbSymbolTableRecord
100
AcDbTextStyleTableRecord
2
Standard
70
0
40
0
41
1
50
0
71
0
42
1
3
txt
4

0
ENDTAB
0
TABLE
2
VIEW
5
5
330
0
100
AcDbSymbolTable
70
0
0
ENDTAB
0
TABLE
2
UCS
5
6
330
0
100
AcDbSymbolTable
70
0
0
ENDTAB
0
TABLE
2
APPID
5
7
330
0
100
AcDbSymbolTable
70
1
0
APPID
5
17
330
7
100
AcDbSymbolTableRecord
100
AcDbRegAppTableRecord
2
ACAD
70
0
0
ENDTAB
0
TABLE
2
DIMSTYLE
5
8
330
0
100
AcDbSymbolTable
70
1
100
AcDbDimStyleTable
0
DIMSTYLE
105
18
330
8
100
AcDbSymbolTableRecord
100
AcDbDimStyleTableRecord
2
Standard
70
0
340
16
0
ENDTAB
0
TABLE
2
BLOCK_RECORD
5
9
330
0
100
AcDbSymbolTable
70
2
0
BLOCK_RECORD
5
C
330
9
100
AcDbSymbolTableRecord
100
AcDbBlockTableRecord
2
*Model_Space
70
0
280
1
281
0
0
BLOCK_RECORD
5
F
330
9
100
AcDbSymbolTableRecord
100
AcDbBlockTableRecord
2
*Paper_Space
70
0
280
1
281
0
0
ENDTAB
0
ENDSEC
0
SECTION
2
BLOCKS
0
BLOCK
5
D
330
C
100
AcDbEntity
8
0
100
AcDbBlockBegin
2
*Model_Space
70
0
10
0
20
0
30
0
3
*Model_Space
1

0
ENDBLK
5
E
100
AcDbEntity
8
0
100
AcDbBlockEnd
0
BLOCK
5
10
330
F
100
AcDbEntity
8
0
100
AcDbBlockBegin
2
*Paper_Space
70
0
10
0
20
0
30
0
3
*Paper_Space
1

0
ENDBLK
5
11
100
AcDbEntity
8
0
100
AcDbBlockEnd
0
ENDSEC
0
SECTION
2
ENTITIES
0
TEXT
5
1A
330
C
100
AcDbEntity
420
#000000
8
0
100
AcDbText
10
20
20
680
30
0
40
20
1
SVG Shapes
7
STANDARD
100
AcDbText
0
LWPOLYLINE
5
1B
330
C
100
AcDbEntity
420
#b71c1c
8
0
100
AcDbPolyline
90
5
70
0
43
0
38
0
39
0
10
20
20
700
10
140
20
700
10
140
20
640
10
20
20
640
10
20
20
700
0
LWPOLYLINE
5
1C
330
C
100
AcDbEntity
420
#0d47a1
8
0
100
AcDbPolyline
90
33
70
0
43
0
38
0
39
0
10
290
20
670
10
289.23141121612923
20
662.1963871193549
10
286.9551813004515
20
654.6926627053964
10
283.2587844921018
20
647.7771906792159
10
278.2842712474619
20
641.7157287525381
10
272.2228093207841
20
636.7412155078982
10
265.3073372946036
20
633.0448186995485
10
257.8036128806451
20
630.7685887838708
10
250
20
630
10
242.19638711935488
20
630.7685887838708
10
234.6926627053964
20
633.0448186995485
10
227.77719067921592
20
636.7412155078982
10
221.7157287525381
20
641.7157287525381
10
216.74121550789818
20
647.7771906792159
10
213.04481869954853
20
654.6926627053964
10
210.76858878387077
20
662.1963871193549
10
210
20
670
10
210.76858878387077
20
677.8036128806451
10
213.04481869954853
20
685.3073372946036
10
216.74121550789818
20
692.2228093207841
10
221.7157287525381
20
698.2842712474619
10
227.77719067921592
20
703.2587844921018
10
234.6926627053964
20
706.9551813004515
10
242.19638711935485
20
709.2314112161292
10
250
20
710
10
257.8036128806451
20
709.2314112161292
10
265.3073372946036
20
706.9551813004515
10
272.22280932078405
20
703.2587844921018
10
278.2842712474619
20
698.2842712474619
10
283.2587844921018
20
692.2228093207841
10
286.95518130045144
20
685.3073372946036
10
289.23141121612923
20
677.8036128806451
10
290
20
670
0
LWPOLYLINE
5
1D
330
C
100
AcDbEntity
420
#1b5e20
8
0
100
AcDbPolyline
90
33
70
0
43
0
38
0
39
0
10
460
20
670
10
458.84711682419385
20
663.1718387294355
10
455.4327719506772
20
656.6060798672219
10
449.8881767381527
20
650.5550418443139
10
442.42640687119285
20
645.2512626584709
10
433.33421398117616
20
640.898563569411
10
422.9610059419054
20
637.664216362105
10
411.7054193209677
20
635.6725151858869
10
400
20
635
10
388.2945806790323
20
635.6725151858869
10
377.0389940580946
20
637.664216362105
10
366.6657860188239
20
640.898563569411
10
357.57359312880715
20
645.2512626584709
10
350.1118232618473
20
650.5550418443139
10
344.5672280493228
20
656.6060798672219
10
341.15288317580615
20
663.1718387294355
10
340
20
670
10
341.15288317580615
20
676.8281612705645
10
344.5672280493228
20
683.3939201327781
10
350.1118232618473
20
689.4449581556861
10
357.57359312880715
20
694.7487373415291
10
366.66578601882384
20
699.101436430589
10
377.0389940580946
20
702.335783637895
10
388.29458067903226
20
704.3274848141131
10
400
20
705
10
411.7054193209677
20
704.3274848141131
10
422.9610059419054
20
702.335783637895
10
433.3342139811761
20
699.101436430589
10
442.42640687119285
20
694.7487373415291
10
449.8881767381527
20
689.4449581556861
10
455.4327719506772
20
683.3939201327781
10
458.8471168241938
20
676.8281612705645
10
460
20
670
0
LWPOLYLINE
5
1E
330
C
100
AcDbEntity
420
#ff9800
8
0
100
AcDbPolyline
90
2
70
0
43
0
38
0
39
0
10
20
20
600
10
180
20
600
0
LWPOLYLINE
5
1F
330
C
100
AcDbEntity
420
#9c27b0
8
0
100
AcDbPolyline
90
5
70
0
43
0
38
0
39
0
10
200
20
620
10
230
20
580
10
260
20
615
10
290
20
575
10
320
20
620
0
LWPOLYLINE
5
20
330
C
100
AcDbEntity
420
#f57f17
8
0
100
AcDbPolyline
90
11
70
0
43
0
38
0
39
0
10
430
20
630
10
445
20
590
10
490
20
590
10
455
20
565
10
465
20
525
10
430
20
550
10
395
20
525
10
405
20
565
10
370
20
590
10
415
20
590
10
430
20
630
0
LWPOLYLINE
5
21
330
C
100
AcDbEntity
420
#00bcd4
8
0
100
AcDbPolyline
90
145
70
0
43
0
38
0
39
0
10
20
20
520
10
21.23827362060547
20
521.5698852539062
10
22.55707359313965
20
523.0726776123047
10
23.961135864257812
20
524.4960632324219
10
25.45408821105957
20
525.8258056640625
10
27.037364959716797
20
527.0464935302734
10
28.709455490112305
20
528.1422424316406
10
30.46524429321289
20
529.0980377197266
10
32.29572296142578
20
529.9014892578125
10
34.188507080078125
20
530.5445861816406
10
36.129085540771484
20
531.0246734619141
10
38.10240173339844
20
531.3449554443359
10
40.094512939453125
20
531.5131988525391
10
42.09360122680664
20
531.5413818359375
10
44.09052658081055
20
531.4427185058594
10
46.07875061035156
20
531.2313537597656
10
48.05402755737305
20
530.9212341308594
10
50.013919830322266
20
530.5251007080078
10
51.95736312866211
20
530.0547180175781
10
53.88420486450195
20
529.5202789306641
10
55.795066833496094
20
528.9311676025391
10
57.69092559814453
20
528.2953948974609
10
59.57300567626953
20
527.619873046875
10
61.44282531738281
20
526.9111175537109
10
63.30192947387695
20
526.1746978759766
10
65.1518783569336
20
525.4155426025391
10
66.99408721923828
20
524.6377716064453
10
68.83008575439453
20
523.845458984375
10
70.66161346435547
20
523.0428619384766
10
72.48999786376953
20
522.2331085205078
10
74.31649780273438
20
521.4191284179688
10
76.14281463623047
20
520.6047210693359
10
77.9697265625
20
519.7916412353516
10
79.79881286621094
20
518.9834899902344
10
81.6312255859375
20
518.1829071044922
10
83.46809387207031
20
517.3926086425781
10
85.31059265136719
20
516.6155242919922
10
87.15962982177734
20
515.8541412353516
10
89.01636505126953
20
515.1117401123047
10
90.88147735595703
20
514.3906402587891
10
92.7560043334961
20
513.6943817138672
10
94.64047241210938
20
513.0255279541016
10
96.5356674194336
20
512.3877105712891
10
98.44202423095703
20
511.7841339111328
10
100.35993194580078
20
511.2182922363281
10
102.28955841064453
20
510.69384765625
10
104.23087310791016
20
510.21453857421875
10
106.18363189697266
20
509.7841796875
10
108.14730072021484
20
509.4068145751953
10
110.12106323242188
20
509.08644104003906
10
112.10375213623047
20
508.8271026611328
10
114.09385681152344
20
508.63282775878906
10
116.08948516845703
20
508.5074768066406
10
118.08833312988281
20
508.4547424316406
10
120.0877456665039
20
508.47789001464844
10
122.08467102050781
20
508.5798797607422
10
124.07576751708984
20
508.76304626464844
10
126.05751037597656
20
509.0291442871094
10
128.0260772705078
20
509.3795471191406
10
129.977783203125
20
509.814208984375
10
131.90892028808594
20
510.3325500488281
10
133.81590270996094
20
510.9338073730469
10
135.69561767578125
20
511.61553955078125
10
137.544921875
20
512.3759002685547
10
139.3616485595703
20
513.2110900878906
10
141.14353942871094
20
514.1182861328125
10
142.8890838623047
20
515.0935821533203
10
144.59722900390625
20
516.1330413818359
10
146.26708984375
20
517.2329559326172
10
147.89859008789062
20
518.3890228271484
10
149.49154663085938
20
519.5976257324219
10
151.05821228027344
20
520.8403167724609
10
152.63475036621094
20
522.0704040527344
10
154.22396850585938
20
523.2840576171875
10
155.8261260986328
20
524.4806365966797
10
157.44149780273438
20
525.6592559814453
10
159.06988525390625
20
526.8198394775391
10
160.7113800048828
20
527.9618225097656
10
162.36607360839844
20
529.0845947265625
10
164.03408813476562
20
530.1875
10
165.7156219482422
20
531.2696533203125
10
167.41050720214844
20
532.3307342529297
10
169.11886596679688
20
533.3700561523438
10
170.8406524658203
20
534.3869018554688
10
172.57595825195312
20
535.3805541992188
10
174.3247528076172
20
536.3502655029297
10
176.08700561523438
20
537.2952423095703
10
177.8627166748047
20
538.2147064208984
10
179.65184020996094
20
539.1078338623047
10
181.45425415039062
20
539.9737701416016
10
183.27008056640625
20
540.8112030029297
10
185.0990447998047
20
541.61962890625
10
186.94093322753906
20
542.3980865478516
10
188.7955780029297
20
543.1456756591797
10
190.662841796875
20
543.8611297607422
10
192.54246520996094
20
544.5434112548828
10
194.4342498779297
20
545.1913452148438
10
196.3377227783203
20
545.803955078125
10
198.2525634765625
20
546.3800659179688
10
200.17837524414062
20
546.9184417724609
10
202.1146240234375
20
547.4178466796875
10
204.060791015625
20
547.8771514892578
10
206.01626586914062
20
548.2950897216797
10
207.98036193847656
20
548.6703186035156
10
209.95236206054688
20
549.0016174316406
10
211.931396484375
20
549.2877655029297
10
213.9165802001953
20
549.5275573730469
10
215.906982421875
20
549.7195587158203
10
217.90145874023438
20
549.8626861572266
10
219.89891052246094
20
549.9557647705078
10
221.8980712890625
20
549.9975280761719
10
223.89764404296875
20
549.9869842529297
10
225.896240234375
20
549.9231567382812
10
227.89234924316406
20
549.8048706054688
10
229.88442993164062
20
549.6315002441406
10
231.870849609375
20
549.4022827148438
10
233.84991455078125
20
549.1165161132812
10
235.8199005126953
20
548.7736053466797
10
237.77902221679688
20
548.3733367919922
10
239.72549438476562
20
547.9154815673828
10
241.65748596191406
20
547.3999481201172
10
243.57318115234375
20
546.8268280029297
10
245.4707794189453
20
546.1964111328125
10
247.34854125976562
20
545.5091247558594
10
249.2047119140625
20
544.7654724121094
10
251.03762817382812
20
543.9662322998047
10
252.84573364257812
20
543.1123352050781
10
254.62753295898438
20
542.204833984375
10
256.38165283203125
20
541.2449035644531
10
258.1067810058594
20
540.2338714599609
10
259.8017272949219
20
539.1729583740234
10
261.4655456542969
20
538.0637359619141
10
263.0971984863281
20
536.9079132080078
10
264.6959228515625
20
535.7068634033203
10
266.2611083984375
20
534.4624176025391
10
267.7921142578125
20
533.1762237548828
10
269.2886962890625
20
531.8499755859375
10
270.7502746582031
20
530.4853210449219
10
272.1768493652344
20
529.0841369628906
10
273.56829833984375
20
527.6480255126953
10
274.9244689941406
20
526.1785736083984
10
276.24554443359375
20
524.6775054931641
10
277.5316467285156
20
523.1463317871094
10
278.78302001953125
20
521.5867004394531
10
280
20
520
0
LWPOLYLINE
5
22
330
C
100
AcDbEntity
420
#e91e63
8
0
100
AcDbPolyline
90
116
70
0
43
0
38
0
39
0
10
300
20
520
10
301.4217224121094
20
521.4011688232422
10
302.86376953125
20
522.7814178466797
10
304.3267517089844
20
524.1394500732422
10
305.8115234375
20
525.4736328125
10
307.31854248046875
20
526.7826385498047
10
308.8482666015625
20
528.0650024414062
10
310.40130615234375
20
529.3190612792969
10
311.9781188964844
20
530.5430297851562
10
313.57928466796875
20
531.7350311279297
10
315.20513916015625
20
532.89306640625
10
316.8562927246094
20
534.0147552490234
10
318.5329895019531
20
535.097900390625
10
320.2352600097656
20
536.1403503417969
10
321.96343994140625
20
537.1392517089844
10
323.7174987792969
20
538.0919799804688
10
325.4972229003906
20
538.9958343505859
10
327.3022766113281
20
539.8479766845703
10
329.1322937011719
20
540.64501953125
10
330.9863586425781
20
541.3844757080078
10
332.86346435546875
20
542.0632171630859
10
334.762451171875
20
542.6781616210938
10
336.68182373046875
20
543.2261352539062
10
338.61962890625
20
543.7046966552734
10
340.5738220214844
20
544.1112976074219
10
342.5419921875
20
544.4436492919922
10
344.5215148925781
20
544.6998291015625
10
346.50958251953125
20
544.8780822753906
10
348.5031433105469
20
544.9773864746094
10
350.4990539550781
20
544.9972076416016
10
352.4941711425781
20
544.9374237060547
10
354.4853515625
20
544.7984313964844
10
356.4695129394531
20
544.5810852050781
10
358.4436950683594
20
544.2866821289062
10
360.4051818847656
20
543.9169769287109
10
362.3514404296875
20
543.4740600585938
10
364.2802734375
20
542.9603729248047
10
366.18963623046875
20
542.3785705566406
10
368.0779113769531
20
541.7315826416016
10
369.9437561035156
20
541.0223846435547
10
371.7857971191406
20
540.2535095214844
10
373.6033935546875
20
539.4284362792969
10
375.39599609375
20
538.5504150390625
10
377.1627502441406
20
537.6214599609375
10
378.9040222167969
20
536.6455688476562
10
380.6191101074219
20
535.6243438720703
10
382.3085632324219
20
534.5612487792969
10
383.9725036621094
20
533.4586334228516
10
385.6109313964844
20
532.3184204101562
10
387.224365234375
20
531.1431427001953
10
388.8133239746094
20
529.9349212646484
10
390.378173828125
20
528.6956787109375
10
391.91949462890625
20
527.42724609375
10
393.4377746582031
20
526.13134765625
10
394.93365478515625
20
524.8096313476562
10
396.40740966796875
20
523.4633026123047
10
397.8598327636719
20
522.0939788818359
10
399.2916259765625
20
520.7031097412109
10
400.7083740234375
20
519.296875
10
402.1401672363281
20
517.906005859375
10
403.5926208496094
20
516.5366973876953
10
405.0663757324219
20
515.1903533935547
10
406.562255859375
20
513.8686370849609
10
408.0805358886719
20
512.5727386474609
10
409.6218566894531
20
511.30430603027344
10
411.18670654296875
20
510.06507873535156
10
412.775634765625
20
508.8568420410156
10
414.38909912109375
20
507.68157958984375
10
416.0274963378906
20
506.5413513183594
10
417.6914367675781
20
505.43873596191406
10
419.38092041015625
20
504.3756408691406
10
421.09600830078125
20
503.3544158935547
10
422.8372802734375
20
502.37852478027344
10
424.60406494140625
20
501.44956970214844
10
426.39666748046875
20
500.57154846191406
10
428.2142028808594
20
499.74647521972656
10
430.0562744140625
20
498.97760009765625
10
431.922119140625
20
498.2684020996094
10
433.8103942871094
20
497.6214141845703
10
435.7197570800781
20
497.0396270751953
10
437.6485900878906
20
496.52593994140625
10
439.5948486328125
20
496.08302307128906
10
441.5563659667969
20
495.71331787109375
10
443.5305480957031
20
495.4189147949219
10
445.5146789550781
20
495.2015686035156
10
447.505859375
20
495.06256103515625
10
449.5009765625
20
495.00279235839844
10
451.49688720703125
20
495.0226135253906
10
453.4904479980469
20
495.1219177246094
10
455.478515625
20
495.3001708984375
10
457.45806884765625
20
495.5563507080078
10
459.42620849609375
20
495.8887023925781
10
461.3804016113281
20
496.29530334472656
10
463.3182373046875
20
496.7738800048828
10
465.2375793457031
20
497.3218536376953
10
467.1365661621094
20
497.93678283691406
10
469.013671875
20
498.61553955078125
10
470.86773681640625
20
499.35499572753906
10
472.69775390625
20
500.1520233154297
10
474.5028076171875
20
501.0041809082031
10
476.28253173828125
20
501.9080352783203
10
478.0365905761719
20
502.8607635498047
10
479.7647705078125
20
503.8596496582031
10
481.4670104980469
20
504.90211486816406
10
483.1437072753906
20
505.9852600097656
10
484.7948913574219
20
507.10694885253906
10
486.42071533203125
20
508.2649688720703
10
488.0218811035156
20
509.45697021484375
10
489.5987243652344
20
510.6809387207031
10
491.1517333984375
20
511.93499755859375
10
492.68145751953125
20
513.2173767089844
10
494.1884765625
20
514.5263671875
10
495.6732177734375
20
515.8605499267578
10
497.13623046875
20
517.2185821533203
10
498.5782775878906
20
518.5988311767578
10
500
20
520
0
LWPOLYLINE
5
23
330
C
100
AcDbEntity
420
#4caf50
8
0
100
AcDbPolyline
90
80
70
0
43
0
38
0
39
0
10
20
20
440
10
20.03827667236328
20
441.9885559082031
10
20.154483795166016
20
443.9740905761719
10
20.34891128540039
20
445.9534912109375
10
20.6215763092041
20
447.92364501953125
10
20.972978591918945
20
449.88128662109375
10
21.40209197998047
20
451.8233642578125
10
21.90865707397461
20
453.7467041015625
10
22.49201011657715
20
455.6481628417969
10
23.150928497314453
20
457.5247802734375
10
23.88470458984375
20
459.3733825683594
10
24.691734313964844
20
461.19122314453125
10
25.57082176208496
20
462.975341796875
10
26.520410537719727
20
464.7229309082031
10
27.538677215576172
20
466.4314270019531
10
28.62433624267578
20
468.0979309082031
10
29.775047302246094
20
469.7201843261719
10
30.98926544189453
20
471.29547119140625
10
32.26488494873047
20
472.8214569091797
10
33.59968185424805
20
474.29595947265625
10
34.99199295043945
20
475.7162780761719
10
36.4391975402832
20
477.08062744140625
10
37.93916320800781
20
478.3867492675781
10
39.48978042602539
20
479.6322937011719
10
41.088375091552734
20
480.81565856933594
10
42.73271560668945
20
481.93458557128906
10
44.420196533203125
20
482.98731994628906
10
46.14813232421875
20
483.97222900390625
10
47.91410827636719
20
484.88719177246094
10
49.71506881713867
20
485.73121643066406
10
51.548465728759766
20
486.50225830078125
10
53.411155700683594
20
487.1995391845703
10
55.30039978027344
20
487.8213348388672
10
57.212947845458984
20
488.3672332763672
10
59.14592361450195
20
488.8356628417969
10
61.09603500366211
20
489.22666931152344
10
63.06021499633789
20
489.5393981933594
10
65.03530883789062
20
489.7736358642578
10
67.01809692382812
20
489.9296112060547
10
69.00550079345703
20
490.0075225830078
10
70.99445343017578
20
490.0075225830078
10
72.98185729980469
20
489.9296112060547
10
74.96465301513672
20
489.7736358642578
10
76.93974304199219
20
489.5393981933594
10
78.90393829345703
20
489.2266845703125
10
80.85404205322266
20
488.83567810058594
10
82.78702545166016
20
488.3672332763672
10
84.69956970214844
20
487.8213348388672
10
86.58880615234375
20
487.1995544433594
10
88.45149230957031
20
486.5022735595703
10
90.2848892211914
20
485.7312316894531
10
92.08585357666016
20
484.88720703125
10
93.8518295288086
20
483.9722595214844
10
95.57977294921875
20
482.9873352050781
10
97.26725006103516
20
481.9346008300781
10
98.91159057617188
20
480.815673828125
10
100.51017761230469
20
479.63232421875
10
102.06080627441406
20
478.3867645263672
10
103.56077575683594
20
477.0806427001953
10
105.00798034667969
20
475.71629333496094
10
106.40029907226562
20
474.2959899902344
10
107.73509216308594
20
472.8214569091797
10
109.01071166992188
20
471.2955017089844
10
110.22492980957031
20
469.72019958496094
10
111.37564086914062
20
468.0979461669922
10
112.4613037109375
20
466.43145751953125
10
113.47956848144531
20
464.7229461669922
10
114.42916107177734
20
462.9753723144531
10
115.30824279785156
20
461.1912536621094
10
116.11528015136719
20
459.3734130859375
10
116.84905242919922
20
457.5248107910156
10
117.50798034667969
20
455.648193359375
10
118.0913314819336
20
453.7467346191406
10
118.597900390625
20
451.8233947753906
10
119.02701568603516
20
449.8813171386719
10
119.37840270996094
20
447.9236755371094
10
119.65109252929688
20
445.9535217285156
10
119.84551239013672
20
443.97412109375
10
119.96171569824219
20
441.98858642578125
10
119.99999237060547
20
440
0
LWPOLYLINE
5
24
330
C
100
AcDbEntity
420
#ff7043
8
0
100
AcDbPolyline
90
5
70
0
43
0
38
0
39
0
10
200
20
460
10
280
20
460
10
280
20
410
10
200
20
410
10
200
20
460
0
TEXT
5
25
330
C
100
AcDbEntity
420
#000000
8
0
100
AcDbText
10
210
20
427
30
0
40
16
1
Group
7
STANDARD
100
AcDbText
0
LWPOLYLINE
5
26
330
C
100
AcDbEntity
420
#5c6bc0
8
0
100
AcDbPolyline
90
5
70
0
43
0
38
0
39
0
10
293.47267221650384
20
441.37756427065534
10
332.1097052680666
20
431.0248024665545
10
321.75694346396574
20
392.3877694149918
10
283.119910412403
20
402.7405312190926
10
293.47267221650384
20
441.37756427065534
0
TEXT
5
27
330
C
100
AcDbEntity
420
#000000
8
0
100
AcDbText
10
20
20
345
30
0
40
27
1
SVG Text
7
STANDARD
100
AcDbText
0
TEXT
5
28
330
C
100
AcDbEntity
420
#000000
8
0
100
AcDbText
10
20
20
317
30
0
40
16
1
Italic smaller text
7
STANDARD
100
AcDbText
0
LWPOLYLINE
5
29
330
C
100
AcDbEntity
420
#1565c0
8
0
100
AcDbPolyline
90
5
70
0
43
0
38
0
39
0
10
350
20
420
10
450
20
420
10
450
20
340
10
350
20
340
10
350
20
420
0
LWPOLYLINE
5
2A
330
C
100
AcDbEntity
420
#c62828
8
0
100
AcDbPolyline
90
5
70
0
43
0
38
0
39
0
10
380
20
400
10
480
20
400
10
480
20
320
10
380
20
320
10
380
20
400
0
LWPOLYLINE
5
2B
330
C
100
AcDbEntity
420
#795548
8
0
100
AcDbPolyline
90
5
70
0
43
0
38
0
39
0
10
350
20
300
10
470
20
300
10
470
20
250
10
350
20
250
10
350
20
300
0
ENDSEC
0
SECTION
2
OBJECTS
0
DICTIONARY
5
A
330
0
100
AcDbDictionary
281
1
3
ACAD_GROUP
350
B
0
DICTIONARY
5
B
330
A
100
AcDbDictionary
281
0
0
ENDSEC
0
EOF