0
SECTION
2
HEADER
9
$ACADVER
1
AC1021
9
$LASTSAVEDBY
1
@tarikjabiri/dxf
9
$HANDSEED
5
33
9
$INSUNITS
70
0
9
$CLAYER
8
0
9
$VIEWCTR
10
200.5
20
257.5
0
ENDSEC
0
SECTION
2
CLASSES
0
ENDSEC
0
SECTION
2
TABLES
0
TABLE
2
VPORT
5
1
330
0
100
AcDbSymbolTable
70
1
0
VPORT
5
19
330
1
100
AcDbSymbolTableRecord
100
AcDbViewportTableRecord
2
*Active
70
0
10
0
20
0
11
1
21
1
12
200.5
22
257.5
13
0
23
0
14
10
24
10
15
10
25
10
16
0
26
0
36
1
17
0
27
0
37
0
40
715
41
2
42
50
43
0
44
0
50
0
51
0
71
0
72
100
73
1
74
3
75
0
76
1
77
0
78
0
281
0
65
1
110
0
120
0
130
0
111
1
121
0
131
0
112
0
122
1
132
0
79
0
146
0
348
10020
60
7
61
5
292
1
282
1
141
0
142
0
63
250
421
3358443
0
ENDTAB
0
TABLE
2
LTYPE
5
2
330
0
100
AcDbSymbolTable
70
3
0
LTYPE
5
12
330
2
100
AcDbSymbolTableRecord
100
AcDbLinetypeTableRecord
2
ByBlock
70
0
3

72
65
73
0
40
0
0
LTYPE
5
13
330
2
100
AcDbSymbolTableRecord
100
AcDbLinetypeTableRecord
2
ByLayer
70
0
3

72
65
73
0
40
0
0
LTYPE
5
14
330
2
100
AcDbSymbolTableRecord
100
AcDbLinetypeTableRecord
2
Continuous
70
0
3
Solid line
72
65
73
0
40
0
0
ENDTAB
0
TABLE
2
LAYER
5
3
330
0
100
AcDbSymbolTable
70
1
0
LAYER
5
15
330
3
100
AcDbSymbolTableRecord
100
AcDbLayerTableRecord
2
0
70
0
62
7
6
Continuous
370
0
390
0
0
ENDTAB
0
TABLE
2
STYLE
5
4
330
0
100
AcDbSymbolTable
70
2
0
STYLE
5
16
330
4
100
AcDbSymbolTableRecord
100
AcDbTextStyleTableRecord
2
Standard
70
0
40
0
41
1
50
0
71
0
42
1
3
txt
4

0
STYLE
5
1B
330
4
100
AcDbSymbolTableRecord
100
AcDbTextStyleTableRecord
2
Arial
70
0
40
0
41
1
50
0
71
0
42
1
3
Arial.ttf
4

0
ENDTAB
0
TABLE
2
VIEW
5
5
330
0
100
AcDbSymbolTable
70
0
0
ENDTAB
0
TABLE
2
UCS
5
6
330
0
100
AcDbSymbolTable
70
0
0
ENDTAB
0
TABLE
2
APPID
5
7
330
0
100
AcDbSymbolTable
70
1
0
APPID
5
17
330
7
100
AcDbSymbolTableRecord
100
AcDbRegAppTableRecord
2
ACAD
70
0
0
ENDTAB
0
TABLE
2
DIMSTYLE
5
8
330
0
100
AcDbSymbolTable
70
1
100
AcDbDimStyleTable
0
DIMSTYLE
105
18
330
8
100
AcDbSymbolTableRecord
100
AcDbDimStyleTableRecord
2
Standard
70
0
340
16
0
ENDTAB
0
TABLE
2
BLOCK_RECORD
5
9
330
0
100
AcDbSymbolTable
70
2
0
BLOCK_RECORD
5
C
330
9
100
AcDbSymbolTableRecord
100
AcDbBlockTableRecord
2
*Model_Space
70
0
280
1
281
0
0
BLOCK_RECORD
5
F
330
9
100
AcDbSymbolTableRecord
100
AcDbBlockTableRecord
2
*Paper_Space
70
0
280
1
281
0
0
ENDTAB
0
ENDSEC
0
SECTION
2
BLOCKS
0
BLOCK
5
D
330
C
100
AcDbEntity
8
0
100
AcDbBlockBegin
2
*Model_Space
70
0
10
0
20
0
30
0
3
*Model_Space
1

0
ENDBLK
5
E
100
AcDbEntity
8
0
100
AcDbBlockEnd
0
BLOCK
5
10
330
F
100
AcDbEntity
8
0
100
AcDbBlockBegin
2
*Paper_Space
70
0
10
0
20
0
30
0
3
*Paper_Space
1

0
ENDBLK
5
11
100
AcDbEntity
8
0
100
AcDbBlockEnd
0
ENDSEC
0
SECTION
2
ENTITIES
0
TEXT
5
1A
330
C
100
AcDbEntity
420
0
8
0
100
AcDbText
10
0
20
515
30
0
40
20
1
SVG Shapes
7
Arial
100
AcDbText
0
LWPOLYLINE
5
1C
330
C
100
AcDbEntity
420
12000284
8
0
100
AcDbPolyline
90
42
70
0
43
0
38
0
39
0
10
29
20
483
10
133
20
483
10
133
20
483
10
134.56072257612902
20
482.84628224322586
10
136.06146745892073
20
482.3910362600903
10
137.4445618641568
20
481.65175689842033
10
138.65685424949237
20
480.65685424949237
10
139.65175689842036
20
479.4445618641568
10
140.3910362600903
20
478.06146745892073
10
140.84628224322586
20
476.560722576129
10
141
20
475
10
141
20
431
10
141
20
431
10
140.84628224322586
20
429.439277423871
10
140.3910362600903
20
427.93853254107927
10
139.65175689842036
20
426.5554381358432
10
138.65685424949237
20
425.34314575050763
10
137.4445618641568
20
424.34824310157967
10
136.06146745892073
20
423.6089637399097
10
134.56072257612902
20
423.15371775677414
10
133
20
423
10
29
20
423
10
29
20
423
10
27.439277423870976
20
423.15371775677414
10
25.938532541079283
20
423.6089637399097
10
24.555438135843183
20
424.34824310157967
10
23.34314575050762
20
425.34314575050763
10
22.348243101579637
20
426.5554381358432
10
21.608963739909704
20
427.93853254107927
10
21.153717756774157
20
429.439277423871
10
21
20
431
10
21
20
475
10
21
20
475
10
21.153717756774157
20
476.560722576129
10
21.608963739909704
20
478.06146745892073
10
22.348243101579637
20
479.4445618641568
10
23.343145750507617
20
480.65685424949237
10
24.555438135843183
20
481.65175689842033
10
25.938532541079276
20
482.3910362600903
10
27.43927742387097
20
482.84628224322586
10
29
20
483
10
29
20
483
0
HATCH
5
1D
330
C
100
AcDbEntity
420
2001125
8
0
100
AcDbHatch
10
0
20
0
30
0
210
0
220
0
230
1
2
SOLID
70
1
71
0
91
1
92
7
72
0
73
1
93
32
10
291
20
453
10
290.23141121612923
20
445.1963871193549
10
287.9551813004515
20
437.6926627053964
10
284.2587844921018
20
430.7771906792159
10
279.2842712474619
20
424.7157287525381
10
273.2228093207841
20
419.7412155078982
10
266.3073372946036
20
416.0448186995485
10
258.8036128806451
20
413.76858878387077
10
251
20
413
10
243.19638711935488
20
413.76858878387077
10
235.6926627053964
20
416.0448186995485
10
228.77719067921592
20
419.7412155078982
10
222.7157287525381
20
424.7157287525381
10
217.74121550789818
20
430.7771906792159
10
214.04481869954853
20
437.6926627053964
10
211.76858878387077
20
445.1963871193549
10
211
20
453
10
211.76858878387077
20
460.8036128806451
10
214.04481869954853
20
468.3073372946036
10
217.74121550789818
20
475.2228093207841
10
222.7157287525381
20
481.2842712474619
10
228.77719067921592
20
486.2587844921018
10
235.6926627053964
20
489.95518130045144
10
243.19638711935488
20
492.23141121612923
10
251
20
493
10
258.8036128806451
20
492.23141121612923
10
266.3073372946036
20
489.9551813004515
10
273.22280932078405
20
486.2587844921018
10
279.2842712474619
20
481.2842712474619
10
284.2587844921018
20
475.2228093207841
10
287.95518130045144
20
468.3073372946036
10
290.23141121612923
20
460.8036128806451
97
0
75
1
76
1
47
1
98
0
0
LWPOLYLINE
5
1E
330
C
100
AcDbEntity
420
870305
8
0
100
AcDbPolyline
90
33
70
0
43
0
38
0
39
0
10
291
20
453
10
290.23141121612923
20
445.1963871193549
10
287.9551813004515
20
437.6926627053964
10
284.2587844921018
20
430.7771906792159
10
279.2842712474619
20
424.7157287525381
10
273.2228093207841
20
419.7412155078982
10
266.3073372946036
20
416.0448186995485
10
258.8036128806451
20
413.76858878387077
10
251
20
413
10
243.19638711935488
20
413.76858878387077
10
235.6926627053964
20
416.0448186995485
10
228.77719067921592
20
419.7412155078982
10
222.7157287525381
20
424.7157287525381
10
217.74121550789818
20
430.7771906792159
10
214.04481869954853
20
437.6926627053964
10
211.76858878387077
20
445.1963871193549
10
211
20
453
10
211.76858878387077
20
460.8036128806451
10
214.04481869954853
20
468.3073372946036
10
217.74121550789818
20
475.2228093207841
10
222.7157287525381
20
481.2842712474619
10
228.77719067921592
20
486.2587844921018
10
235.6926627053964
20
489.95518130045144
10
243.19638711935488
20
492.23141121612923
10
251
20
493
10
258.8036128806451
20
492.23141121612923
10
266.3073372946036
20
489.9551813004515
10
273.22280932078405
20
486.2587844921018
10
279.2842712474619
20
481.2842712474619
10
284.2587844921018
20
475.2228093207841
10
287.95518130045144
20
468.3073372946036
10
290.23141121612923
20
460.8036128806451
10
291
20
453
0
HATCH
5
1F
330
C
100
AcDbEntity
420
4431943
8
0
100
AcDbHatch
10
0
20
0
30
0
210
0
220
0
230
1
2
SOLID
70
1
71
0
91
1
92
7
72
0
73
1
93
32
10
461
20
453
10
459.84711682419385
20
446.17183872943554
10
456.4327719506772
20
439.60607986722187
10
450.8881767381527
20
433.5550418443139
10
443.42640687119285
20
428.25126265847086
10
434.33421398117616
20
423.89856356941095
10
423.9610059419054
20
420.664216362105
10
412.7054193209677
20
418.67251518588694
10
401
20
418
10
389.2945806790323
20
418.67251518588694
10
378.0389940580946
20
420.664216362105
10
367.6657860188239
20
423.8985635694109
10
358.57359312880715
20
428.25126265847086
10
351.1118232618473
20
433.5550418443139
10
345.5672280493228
20
439.60607986722187
10
342.15288317580615
20
446.17183872943554
10
341
20
453
10
342.15288317580615
20
459.82816127056446
10
345.5672280493228
20
466.39392013277813
10
351.1118232618473
20
472.4449581556861
10
358.57359312880715
20
477.74873734152914
10
367.66578601882384
20
482.10143643058905
10
378.0389940580946
20
485.335783637895
10
389.29458067903226
20
487.32748481411306
10
401
20
488
10
412.7054193209677
20
487.32748481411306
10
423.9610059419054
20
485.335783637895
10
434.3342139811761
20
482.1014364305891
10
443.42640687119285
20
477.74873734152914
10
450.8881767381527
20
472.4449581556861
10
456.4327719506772
20
466.39392013277813
10
459.8471168241938
20
459.8281612705645
97
0
75
1
76
1
47
1
98
0
0
LWPOLYLINE
5
20
330
C
100
AcDbEntity
420
1793568
8
0
100
AcDbPolyline
90
33
70
0
43
0
38
0
39
0
10
461
20
453
10
459.84711682419385
20
446.17183872943554
10
456.4327719506772
20
439.60607986722187
10
450.8881767381527
20
433.5550418443139
10
443.42640687119285
20
428.25126265847086
10
434.33421398117616
20
423.89856356941095
10
423.9610059419054
20
420.664216362105
10
412.7054193209677
20
418.67251518588694
10
401
20
418
10
389.2945806790323
20
418.67251518588694
10
378.0389940580946
20
420.664216362105
10
367.6657860188239
20
423.8985635694109
10
358.57359312880715
20
428.25126265847086
10
351.1118232618473
20
433.5550418443139
10
345.5672280493228
20
439.60607986722187
10
342.15288317580615
20
446.17183872943554
10
341
20
453
10
342.15288317580615
20
459.82816127056446
10
345.5672280493228
20
466.39392013277813
10
351.1118232618473
20
472.4449581556861
10
358.57359312880715
20
477.74873734152914
10
367.66578601882384
20
482.10143643058905
10
378.0389940580946
20
485.335783637895
10
389.29458067903226
20
487.32748481411306
10
401
20
488
10
412.7054193209677
20
487.32748481411306
10
423.9610059419054
20
485.335783637895
10
434.3342139811761
20
482.1014364305891
10
443.42640687119285
20
477.74873734152914
10
450.8881767381527
20
472.4449581556861
10
456.4327719506772
20
466.39392013277813
10
459.8471168241938
20
459.8281612705645
10
461
20
453
0
LWPOLYLINE
5
21
330
C
100
AcDbEntity
420
16750592
8
0
100
AcDbPolyline
90
2
70
0
43
0
38
0
39
0
10
21
20
383
10
181
20
383
0
LWPOLYLINE
5
22
330
C
100
AcDbEntity
420
10233776
8
0
100
AcDbPolyline
90
5
70
0
43
0
38
0
39
0
10
201
20
403
10
231
20
363
10
261
20
398
10
291
20
358
10
321
20
403
0
HATCH
5
23
330
C
100
AcDbEntity
420
16635957
8
0
100
AcDbHatch
10
0
20
0
30
0
210
0
220
0
230
1
2
SOLID
70
1
71
0
91
1
92
7
72
0
73
1
93
10
10
431
20
413
10
446
20
373
10
491
20
373
10
456
20
348
10
466
20
308
10
431
20
333
10
396
20
308
10
406
20
348
10
371
20
373
10
416
20
373
97
0
75
1
76
1
47
1
98
0
0
LWPOLYLINE
5
24
330
C
100
AcDbEntity
420
16088855
8
0
100
AcDbPolyline
90
11
70
0
43
0
38
0
39
0
10
431
20
413
10
446
20
373
10
491
20
373
10
456
20
348
10
466
20
308
10
431
20
333
10
396
20
308
10
406
20
348
10
371
20
373
10
416
20
373
10
431
20
413
0
LWPOLYLINE
5
25
330
C
100
AcDbEntity
420
48340
8
0
100
AcDbPolyline
90
145
70
0
43
0
38
0
39
0
10
21
20
303
10
22.23827362060547
20
304.56988525390625
10
23.55707359313965
20
306.0726776123047
10
24.961135864257812
20
307.4960632324219
10
26.45408821105957
20
308.8258056640625
10
28.037364959716797
20
310.04649353027344
10
29.709455490112305
20
311.1422424316406
10
31.46524429321289
20
312.09803771972656
10
33.29572296142578
20
312.9014892578125
10
35.188507080078125
20
313.5445861816406
10
37.129085540771484
20
314.02467346191406
10
39.10240173339844
20
314.34495544433594
10
41.094512939453125
20
314.51319885253906
10
43.09360122680664
20
314.5413818359375
10
45.09052658081055
20
314.4427185058594
10
47.07875061035156
20
314.2313537597656
10
49.05402755737305
20
313.9212341308594
10
51.013919830322266
20
313.5251007080078
10
52.95736312866211
20
313.0547180175781
10
54.88420486450195
20
312.52027893066406
10
56.795066833496094
20
311.93116760253906
10
58.69092559814453
20
311.29539489746094
10
60.57300567626953
20
310.619873046875
10
62.44282531738281
20
309.91111755371094
10
64.30192947387695
20
309.17469787597656
10
66.1518783569336
20
308.41554260253906
10
67.99408721923828
20
307.6377716064453
10
69.83008575439453
20
306.845458984375
10
71.66161346435547
20
306.04286193847656
10
73.48999786376953
20
305.2331085205078
10
75.31649780273438
20
304.41912841796875
10
77.14281463623047
20
303.60472106933594
10
78.9697265625
20
302.79164123535156
10
80.79881286621094
20
301.9834899902344
10
82.6312255859375
20
301.1829071044922
10
84.46809387207031
20
300.3926086425781
10
86.31059265136719
20
299.6155242919922
10
88.15962982177734
20
298.85414123535156
10
90.01636505126953
20
298.1117401123047
10
91.88147735595703
20
297.39064025878906
10
93.7560043334961
20
296.6943817138672
10
95.64047241210938
20
296.02552795410156
10
97.5356674194336
20
295.38771057128906
10
99.44202423095703
20
294.7841339111328
10
101.35993194580078
20
294.2182922363281
10
103.28955841064453
20
293.69384765625
10
105.23087310791016
20
293.21453857421875
10
107.18363189697266
20
292.7841796875
10
109.14730072021484
20
292.4068145751953
10
111.12106323242188
20
292.08644104003906
10
113.10375213623047
20
291.8271026611328
10
115.09385681152344
20
291.63282775878906
10
117.08948516845703
20
291.5074768066406
10
119.08833312988281
20
291.4547424316406
10
121.0877456665039
20
291.47789001464844
10
123.08467102050781
20
291.5798797607422
10
125.07576751708984
20
291.76304626464844
10
127.05751037597656
20
292.0291442871094
10
129.0260772705078
20
292.3795471191406
10
130.977783203125
20
292.814208984375
10
132.90892028808594
20
293.3325500488281
10
134.81590270996094
20
293.9338073730469
10
136.69561767578125
20
294.61553955078125
10
138.544921875
20
295.3759002685547
10
140.3616485595703
20
296.2110900878906
10
142.14353942871094
20
297.1182861328125
10
143.8890838623047
20
298.0935821533203
10
145.59722900390625
20
299.13304138183594
10
147.26708984375
20
300.2329559326172
10
148.89859008789062
20
301.38902282714844
10
150.49154663085938
20
302.5976257324219
10
152.05821228027344
20
303.84031677246094
10
153.63475036621094
20
305.0704040527344
10
155.22396850585938
20
306.2840576171875
10
156.8261260986328
20
307.4806365966797
10
158.44149780273438
20
308.6592559814453
10
160.06988525390625
20
309.81983947753906
10
161.7113800048828
20
310.9618225097656
10
163.36607360839844
20
312.0845947265625
10
165.03408813476562
20
313.1875
10
166.7156219482422
20
314.2696533203125
10
168.41050720214844
20
315.3307342529297
10
170.11886596679688
20
316.37005615234375
10
171.8406524658203
20
317.38690185546875
10
173.57595825195312
20
318.38055419921875
10
175.3247528076172
20
319.3502655029297
10
177.08700561523438
20
320.2952423095703
10
178.8627166748047
20
321.21470642089844
10
180.65184020996094
20
322.1078338623047
10
182.45425415039062
20
322.97377014160156
10
184.27008056640625
20
323.8112030029297
10
186.0990447998047
20
324.61962890625
10
187.94093322753906
20
325.39808654785156
10
189.7955780029297
20
326.1456756591797
10
191.662841796875
20
326.8611297607422
10
193.54246520996094
20
327.5434112548828
10
195.4342498779297
20
328.19134521484375
10
197.3377227783203
20
328.803955078125
10
199.2525634765625
20
329.38006591796875
10
201.17837524414062
20
329.91844177246094
10
203.1146240234375
20
330.4178466796875
10
205.060791015625
20
330.8771514892578
10
207.01626586914062
20
331.2950897216797
10
208.98036193847656
20
331.6703186035156
10
210.95236206054688
20
332.0016174316406
10
212.931396484375
20
332.2877655029297
10
214.9165802001953
20
332.5275573730469
10
216.906982421875
20
332.7195587158203
10
218.90145874023438
20
332.86268615722656
10
220.89891052246094
20
332.9557647705078
10
222.8980712890625
20
332.9975280761719
10
224.89764404296875
20
332.9869842529297
10
226.896240234375
20
332.92315673828125
10
228.89234924316406
20
332.80487060546875
10
230.88442993164062
20
332.6315002441406
10
232.870849609375
20
332.40228271484375
10
234.84991455078125
20
332.11651611328125
10
236.8199005126953
20
331.7736053466797
10
238.77902221679688
20
331.3733367919922
10
240.72549438476562
20
330.9154815673828
10
242.65748596191406
20
330.3999481201172
10
244.57318115234375
20
329.8268280029297
10
246.4707794189453
20
329.1964111328125
10
248.34854125976562
20
328.5091247558594
10
250.2047119140625
20
327.7654724121094
10
252.03762817382812
20
326.9662322998047
10
253.84573364257812
20
326.1123352050781
10
255.62753295898438
20
325.204833984375
10
257.38165283203125
20
324.2449035644531
10
259.1067810058594
20
323.23387145996094
10
260.8017272949219
20
322.17295837402344
10
262.4655456542969
20
321.06373596191406
10
264.0971984863281
20
319.9079132080078
10
265.6959228515625
20
318.7068634033203
10
267.2611083984375
20
317.46241760253906
10
268.7921142578125
20
316.1762237548828
10
270.2886962890625
20
314.8499755859375
10
271.7502746582031
20
313.4853210449219
10
273.1768493652344
20
312.0841369628906
10
274.56829833984375
20
310.6480255126953
10
275.9244689941406
20
309.17857360839844
10
277.24554443359375
20
307.67750549316406
10
278.5316467285156
20
306.1463317871094
10
279.78302001953125
20
304.5867004394531
10
281
20
303
0
LWPOLYLINE
5
26
330
C
100
AcDbEntity
420
15277667
8
0
100
AcDbPolyline
90
116
70
0
43
0
38
0
39
0
10
301
20
303
10
302.4217224121094
20
304.4011688232422
10
303.86376953125
20
305.7814178466797
10
305.3267517089844
20
307.1394500732422
10
306.8115234375
20
308.4736328125
10
308.31854248046875
20
309.7826385498047
10
309.8482666015625
20
311.06500244140625
10
311.40130615234375
20
312.3190612792969
10
312.9781188964844
20
313.54302978515625
10
314.57928466796875
20
314.7350311279297
10
316.20513916015625
20
315.89306640625
10
317.8562927246094
20
317.01475524902344
10
319.5329895019531
20
318.097900390625
10
321.2352600097656
20
319.1403503417969
10
322.96343994140625
20
320.1392517089844
10
324.7174987792969
20
321.09197998046875
10
326.4972229003906
20
321.99583435058594
10
328.3022766113281
20
322.8479766845703
10
330.1322937011719
20
323.64501953125
10
331.9863586425781
20
324.3844757080078
10
333.86346435546875
20
325.06321716308594
10
335.762451171875
20
325.67816162109375
10
337.68182373046875
20
326.22613525390625
10
339.61962890625
20
326.70469665527344
10
341.5738220214844
20
327.1112976074219
10
343.5419921875
20
327.4436492919922
10
345.5215148925781
20
327.6998291015625
10
347.50958251953125
20
327.8780822753906
10
349.5031433105469
20
327.9773864746094
10
351.4990539550781
20
327.99720764160156
10
353.4941711425781
20
327.9374237060547
10
355.4853515625
20
327.7984313964844
10
357.4695129394531
20
327.5810852050781
10
359.4436950683594
20
327.28668212890625
10
361.4051818847656
20
326.91697692871094
10
363.3514404296875
20
326.47406005859375
10
365.2802734375
20
325.9603729248047
10
367.18963623046875
20
325.3785705566406
10
369.0779113769531
20
324.73158264160156
10
370.9437561035156
20
324.0223846435547
10
372.7857971191406
20
323.2535095214844
10
374.6033935546875
20
322.4284362792969
10
376.39599609375
20
321.5504150390625
10
378.1627502441406
20
320.6214599609375
10
379.9040222167969
20
319.64556884765625
10
381.6191101074219
20
318.6243438720703
10
383.3085632324219
20
317.5612487792969
10
384.9725036621094
20
316.45863342285156
10
386.6109313964844
20
315.31842041015625
10
388.224365234375
20
314.1431427001953
10
389.8133239746094
20
312.93492126464844
10
391.378173828125
20
311.6956787109375
10
392.91949462890625
20
310.42724609375
10
394.4377746582031
20
309.13134765625
10
395.93365478515625
20
307.80963134765625
10
397.40740966796875
20
306.4633026123047
10
398.8598327636719
20
305.09397888183594
10
400.2916259765625
20
303.70310974121094
10
401.7083740234375
20
302.296875
10
403.1401672363281
20
300.906005859375
10
404.5926208496094
20
299.5366973876953
10
406.0663757324219
20
298.1903533935547
10
407.562255859375
20
296.86863708496094
10
409.0805358886719
20
295.57273864746094
10
410.6218566894531
20
294.30430603027344
10
412.18670654296875
20
293.06507873535156
10
413.775634765625
20
291.8568420410156
10
415.38909912109375
20
290.68157958984375
10
417.0274963378906
20
289.5413513183594
10
418.6914367675781
20
288.43873596191406
10
420.38092041015625
20
287.3756408691406
10
422.09600830078125
20
286.3544158935547
10
423.8372802734375
20
285.37852478027344
10
425.60406494140625
20
284.44956970214844
10
427.39666748046875
20
283.57154846191406
10
429.2142028808594
20
282.74647521972656
10
431.0562744140625
20
281.97760009765625
10
432.922119140625
20
281.2684020996094
10
434.8103942871094
20
280.6214141845703
10
436.7197570800781
20
280.0396270751953
10
438.6485900878906
20
279.52593994140625
10
440.5948486328125
20
279.08302307128906
10
442.5563659667969
20
278.71331787109375
10
444.5305480957031
20
278.4189147949219
10
446.5146789550781
20
278.2015686035156
10
448.505859375
20
278.06256103515625
10
450.5009765625
20
278.00279235839844
10
452.49688720703125
20
278.0226135253906
10
454.4904479980469
20
278.1219177246094
10
456.478515625
20
278.3001708984375
10
458.45806884765625
20
278.5563507080078
10
460.42620849609375
20
278.8887023925781
10
462.3804016113281
20
279.29530334472656
10
464.3182373046875
20
279.7738800048828
10
466.2375793457031
20
280.3218536376953
10
468.1365661621094
20
280.93678283691406
10
470.013671875
20
281.61553955078125
10
471.86773681640625
20
282.35499572753906
10
473.69775390625
20
283.1520233154297
10
475.5028076171875
20
284.0041809082031
10
477.28253173828125
20
284.9080352783203
10
479.0365905761719
20
285.8607635498047
10
480.7647705078125
20
286.8596496582031
10
482.4670104980469
20
287.90211486816406
10
484.1437072753906
20
288.9852600097656
10
485.7948913574219
20
290.10694885253906
10
487.42071533203125
20
291.2649688720703
10
489.0218811035156
20
292.45697021484375
10
490.5987243652344
20
293.6809387207031
10
492.1517333984375
20
294.93499755859375
10
493.68145751953125
20
296.2173767089844
10
495.1884765625
20
297.5263671875
10
496.6732177734375
20
298.8605499267578
10
498.13623046875
20
300.2185821533203
10
499.5782775878906
20
301.5988311767578
10
501
20
303
0
LWPOLYLINE
5
27
330
C
100
AcDbEntity
420
5025616
8
0
100
AcDbPolyline
90
80
70
0
43
0
38
0
39
0
10
21
20
223
10
21.03827667236328
20
224.98855590820312
10
21.154483795166016
20
226.97409057617188
10
21.34891128540039
20
228.9534912109375
10
21.6215763092041
20
230.92364501953125
10
21.972978591918945
20
232.88128662109375
10
22.40209197998047
20
234.8233642578125
10
22.90865707397461
20
236.7467041015625
10
23.49201011657715
20
238.64816284179688
10
24.150928497314453
20
240.5247802734375
10
24.88470458984375
20
242.37338256835938
10
25.691734313964844
20
244.19122314453125
10
26.57082176208496
20
245.975341796875
10
27.520410537719727
20
247.72293090820312
10
28.538677215576172
20
249.43142700195312
10
29.62433624267578
20
251.09793090820312
10
30.775047302246094
20
252.72018432617188
10
31.98926544189453
20
254.29547119140625
10
33.26488494873047
20
255.8214569091797
10
34.59968185424805
20
257.29595947265625
10
35.99199295043945
20
258.7162780761719
10
37.4391975402832
20
260.08062744140625
10
38.93916320800781
20
261.3867492675781
10
40.48978042602539
20
262.6322937011719
10
42.088375091552734
20
263.81565856933594
10
43.73271560668945
20
264.93458557128906
10
45.420196533203125
20
265.98731994628906
10
47.14813232421875
20
266.97222900390625
10
48.91410827636719
20
267.88719177246094
10
50.71506881713867
20
268.73121643066406
10
52.548465728759766
20
269.50225830078125
10
54.411155700683594
20
270.1995391845703
10
56.30039978027344
20
270.8213348388672
10
58.212947845458984
20
271.3672332763672
10
60.14592361450195
20
271.8356628417969
10
62.09603500366211
20
272.22666931152344
10
64.06021499633789
20
272.5393981933594
10
66.03530883789062
20
272.7736358642578
10
68.01809692382812
20
272.9296112060547
10
70.00550079345703
20
273.0075225830078
10
71.99445343017578
20
273.0075225830078
10
73.98185729980469
20
272.9296112060547
10
75.96465301513672
20
272.7736358642578
10
77.93974304199219
20
272.5393981933594
10
79.90393829345703
20
272.2266845703125
10
81.85404205322266
20
271.83567810058594
10
83.78702545166016
20
271.3672332763672
10
85.69956970214844
20
270.8213348388672
10
87.58880615234375
20
270.1995544433594
10
89.45149230957031
20
269.5022735595703
10
91.2848892211914
20
268.7312316894531
10
93.08585357666016
20
267.88720703125
10
94.8518295288086
20
266.9722595214844
10
96.57977294921875
20
265.9873352050781
10
98.26725006103516
20
264.9346008300781
10
99.91159057617188
20
263.815673828125
10
101.51017761230469
20
262.63232421875
10
103.06080627441406
20
261.3867645263672
10
104.56077575683594
20
260.0806427001953
10
106.00798034667969
20
258.71629333496094
10
107.40029907226562
20
257.2959899902344
10
108.73509216308594
20
255.8214569091797
10
110.01071166992188
20
254.29550170898438
10
111.22492980957031
20
252.72019958496094
10
112.37564086914062
20
251.0979461669922
10
113.4613037109375
20
249.43145751953125
10
114.47956848144531
20
247.7229461669922
10
115.42916107177734
20
245.97537231445312
10
116.30824279785156
20
244.19125366210938
10
117.11528015136719
20
242.3734130859375
10
117.84905242919922
20
240.52481079101562
10
118.50798034667969
20
238.648193359375
10
119.0913314819336
20
236.74673461914062
10
119.597900390625
20
234.82339477539062
10
120.02701568603516
20
232.88131713867188
10
120.37840270996094
20
230.92367553710938
10
120.65109252929688
20
228.95352172851562
10
120.84551239013672
20
226.97412109375
10
120.96171569824219
20
224.98858642578125
10
120.99999237060547
20
223
0
LWPOLYLINE
5
28
330
C
100
AcDbEntity
420
16740419
8
0
100
AcDbPolyline
90
42
70
0
43
0
38
0
39
0
10
206
20
243
10
276
20
243
10
276
20
243
10
276.97545161008065
20
242.90392640201617
10
277.91341716182546
20
242.61939766255642
10
278.777851165098
20
242.15734806151272
10
279.53553390593277
20
241.5355339059327
10
280.1573480615127
20
240.777851165098
10
280.6193976625564
20
239.91341716182546
10
280.90392640201617
20
238.97545161008065
10
281
20
238
10
281
20
198
10
281
20
198
10
280.90392640201617
20
197.02454838991935
10
280.6193976625564
20
196.08658283817454
10
280.1573480615127
20
195.222148834902
10
279.53553390593277
20
194.4644660940673
10
278.777851165098
20
193.84265193848728
10
277.91341716182546
20
193.38060233744358
10
276.97545161008065
20
193.09607359798383
10
276
20
193
10
206
20
193
10
206
20
193
10
205.02454838991935
20
193.09607359798383
10
204.08658283817456
20
193.38060233744358
10
203.222148834902
20
193.84265193848728
10
202.46446609406726
20
194.46446609406723
10
201.84265193848728
20
195.222148834902
10
201.38060233744358
20
196.08658283817454
10
201.09607359798386
20
197.02454838991935
10
201
20
198
10
201
20
238
10
201
20
238
10
201.09607359798386
20
238.97545161008065
10
201.38060233744358
20
239.91341716182546
10
201.84265193848728
20
240.777851165098
10
202.46446609406726
20
241.5355339059327
10
203.222148834902
20
242.15734806151272
10
204.08658283817454
20
242.61939766255642
10
205.02454838991935
20
242.90392640201617
10
206
20
243
10
206
20
243
0
TEXT
5
29
330
C
100
AcDbEntity
420
16777215
8
0
100
AcDbText
10
211
20
210
30
0
40
16
1
Group
7
Arial
100
AcDbText
0
LWPOLYLINE
5
2A
330
C
100
AcDbEntity
420
6056896
8
0
100
AcDbPolyline
90
5
70
0
43
0
38
0
39
0
10
294.47267221650384
20
224.37756427065534
10
333.1097052680666
20
214.0248024665545
10
322.75694346396574
20
175.3877694149918
10
284.119910412403
20
185.7405312190926
10
294.47267221650384
20
224.37756427065534
0
TEXT
5
2B
330
C
100
AcDbEntity
420
3355443
8
0
100
AcDbText
10
21
20
128
30
0
40
27
1
SVG Text
7
Arial
100
AcDbText
0
TEXT
5
2C
330
C
100
AcDbEntity
420
6710886
8
0
100
AcDbText
10
21
20
100
30
0
40
16
1
Italic smaller text
7
Arial
100
AcDbText
0
LWPOLYLINE
5
2D
330
C
100
AcDbEntity
420
6717162
8
0
100
AcDbPolyline
90
42
70
0
43
0
38
0
39
0
10
31
20
83
10
161
20
83
10
161
20
83
10
162.95090322016128
20
82.80785280403228
10
164.8268343236509
20
82.23879532511285
10
166.55570233019603
20
81.31469612302544
10
168.07106781186548
20
80.07106781186548
10
169.31469612302544
20
78.55570233019603
10
170.23879532511287
20
76.82683432365087
10
170.8078528040323
20
74.95090322016131
10
171
20
73
10
171
20
43
10
171
20
43
10
170.8078528040323
20
41.04909677983869
10
170.23879532511287
20
39.17316567634913
10
169.31469612302544
20
37.44429766980397
10
168.07106781186548
20
35.928932188134524
10
166.55570233019603
20
34.68530387697456
10
164.8268343236509
20
33.76120467488715
10
162.95090322016128
20
33.19214719596772
10
161
20
33
10
31
20
33
10
31
20
33
10
29.049096779838717
20
33.19214719596772
10
27.173165676349104
20
33.76120467488715
10
25.44429766980398
20
34.68530387697456
10
23.928932188134524
20
35.928932188134524
10
22.685303876974547
20
37.44429766980397
10
21.761204674887132
20
39.17316567634913
10
21.192147195967696
20
41.04909677983869
10
21
20
43
10
21
20
73
10
21
20
73
10
21.192147195967696
20
74.95090322016131
10
21.761204674887132
20
76.82683432365087
10
22.685303876974544
20
78.55570233019603
10
23.928932188134524
20
80.07106781186548
10
25.44429766980398
20
81.31469612302544
10
27.173165676349097
20
82.23879532511285
10
29.049096779838713
20
82.80785280403228
10
30.999999999999996
20
83
10
31
20
83
0
HATCH
5
2E
330
C
100
AcDbEntity
420
16739179
8
0
100
AcDbHatch
10
0
20
0
30
0
210
0
220
0
230
1
2
SOLID
70
1
71
0
91
1
92
7
72
0
73
1
93
32
10
311
20
58
10
310.4235584120969
20
52.14729033951613
10
308.7163859753386
20
46.51949702904733
10
305.9440883690764
20
41.33289300941192
10
302.2132034355964
20
36.78679656440363
10
297.6671069905881
20
33.055911630923674
10
292.48050297095267
20
30.283614024661347
10
286.85270966048387
20
28.576441587903105
10
281
20
28
10
275.14729033951613
20
28.576441587903105
10
269.51949702904733
20
30.283614024661347
10
264.3328930094119
20
33.055911630923674
10
259.7867965644036
20
36.78679656440363
10
256.0559116309237
20
41.33289300941192
10
253.2836140246614
20
46.51949702904733
10
251.5764415879031
20
52.14729033951613
10
251
20
58
10
251.5764415879031
20
63.85270966048387
10
253.2836140246614
20
69.48050297095267
10
256.0559116309237
20
74.66710699058808
10
259.7867965644036
20
79.21320343559643
10
264.3328930094119
20
82.94408836907638
10
269.5194970290473
20
85.7163859753386
10
275.14729033951613
20
87.4235584120969
10
281
20
88
10
286.85270966048387
20
87.4235584120969
10
292.4805029709527
20
85.7163859753386
10
297.6671069905881
20
82.94408836907638
10
302.2132034355964
20
79.21320343559643
10
305.9440883690764
20
74.66710699058808
10
308.7163859753386
20
69.48050297095273
10
310.4235584120969
20
63.85270966048387
97
0
75
1
76
1
47
1
98
0
0
LWPOLYLINE
5
2F
330
C
100
AcDbEntity
420
16739179
8
0
100
AcDbPolyline
90
33
70
0
43
0
38
0
39
0
10
311
20
58
10
310.4235584120969
20
52.14729033951613
10
308.7163859753386
20
46.51949702904733
10
305.9440883690764
20
41.33289300941192
10
302.2132034355964
20
36.78679656440363
10
297.6671069905881
20
33.055911630923674
10
292.48050297095267
20
30.283614024661347
10
286.85270966048387
20
28.576441587903105
10
281
20
28
10
275.14729033951613
20
28.576441587903105
10
269.51949702904733
20
30.283614024661347
10
264.3328930094119
20
33.055911630923674
10
259.7867965644036
20
36.78679656440363
10
256.0559116309237
20
41.33289300941192
10
253.2836140246614
20
46.51949702904733
10
251.5764415879031
20
52.14729033951613
10
251
20
58
10
251.5764415879031
20
63.85270966048387
10
253.2836140246614
20
69.48050297095267
10
256.0559116309237
20
74.66710699058808
10
259.7867965644036
20
79.21320343559643
10
264.3328930094119
20
82.94408836907638
10
269.5194970290473
20
85.7163859753386
10
275.14729033951613
20
87.4235584120969
10
281
20
88
10
286.85270966048387
20
87.4235584120969
10
292.4805029709527
20
85.7163859753386
10
297.6671069905881
20
82.94408836907638
10
302.2132034355964
20
79.21320343559643
10
305.9440883690764
20
74.66710699058808
10
308.7163859753386
20
69.48050297095273
10
310.4235584120969
20
63.85270966048387
10
311
20
58
0
LWPOLYLINE
5
30
330
C
100
AcDbEntity
420
1402304
8
0
100
AcDbPolyline
90
5
70
0
43
0
38
0
39
0
10
351
20
203
10
451
20
203
10
451
20
123
10
351
20
123
10
351
20
203
0
LWPOLYLINE
5
31
330
C
100
AcDbEntity
420
12986408
8
0
100
AcDbPolyline
90
5
70
0
43
0
38
0
39
0
10
381
20
183
10
481
20
183
10
481
20
103
10
381
20
103
10
381
20
183
0
LWPOLYLINE
5
32
330
C
100
AcDbEntity
420
7951688
8
0
100
AcDbPolyline
90
5
70
0
43
0
38
0
39
0
10
351
20
83
10
471
20
83
10
471
20
33
10
351
20
33
10
351
20
83
0
ENDSEC
0
SECTION
2
OBJECTS
0
DICTIONARY
5
A
330
0
100
AcDbDictionary
281
1
3
ACAD_GROUP
350
B
0
DICTIONARY
5
B
330
A
100
AcDbDictionary
281
0
0
ENDSEC
0
EOF