0
SECTION
2
HEADER
9
$ACADVER
1
AC1021
9
$LASTSAVEDBY
1
@tarikjabiri/dxf
9
$HANDSEED
5
35
9
$INSUNITS
70
0
9
$CLAYER
8
0
9
$VIEWCTR
10
159.9140624910593
20
285.8703121995926
0
ENDSEC
0
SECTION
2
CLASSES
0
ENDSEC
0
SECTION
2
TABLES
0
TABLE
2
VPORT
5
1
330
0
100
AcDbSymbolTable
70
1
0
VPORT
5
19
330
1
100
AcDbSymbolTableRecord
100
AcDbViewportTableRecord
2
*Active
70
0
10
0
20
0
11
1
21
1
12
159.9140624910593
22
285.8703121995926
13
0
23
0
14
10
24
10
15
10
25
10
16
0
26
0
36
1
17
0
27
0
37
0
40
755.2593756008148
41
2
42
50
43
0
44
0
50
0
51
0
71
0
72
100
73
1
74
3
75
0
76
1
77
0
78
0
281
0
65
1
110
0
120
0
130
0
111
1
121
0
131
0
112
0
122
1
132
0
79
0
146
0
348
10020
60
7
61
5
292
1
282
1
141
0
142
0
63
250
421
3358443
0
ENDTAB
0
TABLE
2
LTYPE
5
2
330
0
100
AcDbSymbolTable
70
3
0
LTYPE
5
12
330
2
100
AcDbSymbolTableRecord
100
AcDbLinetypeTableRecord
2
ByBlock
70
0
3

72
65
73
0
40
0
0
LTYPE
5
13
330
2
100
AcDbSymbolTableRecord
100
AcDbLinetypeTableRecord
2
ByLayer
70
0
3

72
65
73
0
40
0
0
LTYPE
5
14
330
2
100
AcDbSymbolTableRecord
100
AcDbLinetypeTableRecord
2
Continuous
70
0
3
Solid line
72
65
73
0
40
0
0
ENDTAB
0
TABLE
2
LAYER
5
3
330
0
100
AcDbSymbolTable
70
1
0
LAYER
5
15
330
3
100
AcDbSymbolTableRecord
100
AcDbLayerTableRecord
2
0
70
0
62
7
6
Continuous
370
0
390
0
0
ENDTAB
0
TABLE
2
STYLE
5
4
330
0
100
AcDbSymbolTable
70
3
0
STYLE
5
16
330
4
100
AcDbSymbolTableRecord
100
AcDbTextStyleTableRecord
2
Standard
70
0
40
0
41
1
50
0
71
0
42
1
3
txt
4

0
STYLE
5
1B
330
4
100
AcDbSymbolTableRecord
100
AcDbTextStyleTableRecord
2
Segoe UI Symbol
70
0
40
0
41
1
50
0
71
0
42
1
3
Segoe UI Symbol.ttf
4

0
STYLE
5
1F
330
4
100
AcDbSymbolTableRecord
100
AcDbTextStyleTableRecord
2
Times New Roman
70
0
40
0
41
1
50
0
71
0
42
1
3
Times New Roman.ttf
4

0
ENDTAB
0
TABLE
2
VIEW
5
5
330
0
100
AcDbSymbolTable
70
0
0
ENDTAB
0
TABLE
2
UCS
5
6
330
0
100
AcDbSymbolTable
70
0
0
ENDTAB
0
TABLE
2
APPID
5
7
330
0
100
AcDbSymbolTable
70
1
0
APPID
5
17
330
7
100
AcDbSymbolTableRecord
100
AcDbRegAppTableRecord
2
ACAD
70
0
0
ENDTAB
0
TABLE
2
DIMSTYLE
5
8
330
0
100
AcDbSymbolTable
70
1
100
AcDbDimStyleTable
0
DIMSTYLE
105
18
330
8
100
AcDbSymbolTableRecord
100
AcDbDimStyleTableRecord
2
Standard
70
0
340
16
0
ENDTAB
0
TABLE
2
BLOCK_RECORD
5
9
330
0
100
AcDbSymbolTable
70
2
0
BLOCK_RECORD
5
C
330
9
100
AcDbSymbolTableRecord
100
AcDbBlockTableRecord
2
*Model_Space
70
0
280
1
281
0
0
BLOCK_RECORD
5
F
330
9
100
AcDbSymbolTableRecord
100
AcDbBlockTableRecord
2
*Paper_Space
70
0
280
1
281
0
0
ENDTAB
0
ENDSEC
0
SECTION
2
BLOCKS
0
BLOCK
5
D
330
C
100
AcDbEntity
8
0
100
AcDbBlockBegin
2
*Model_Space
70
0
10
0
20
0
30
0
3
*Model_Space
1

0
ENDBLK
5
E
100
AcDbEntity
8
0
100
AcDbBlockEnd
0
BLOCK
5
10
330
F
100
AcDbEntity
8
0
100
AcDbBlockBegin
2
*Paper_Space
70
0
10
0
20
0
30
0
3
*Paper_Space
1

0
ENDBLK
5
11
100
AcDbEntity
8
0
100
AcDbBlockEnd
0
ENDSEC
0
SECTION
2
ENTITIES
0
TEXT
5
1A
330
C
100
AcDbEntity
420
0
8
0
100
AcDbText
10
8
20
563.5
30
0
40
20
1
📥
7
Segoe UI Symbol
100
AcDbText
0
LWPOLYLINE
5
1C
330
C
100
AcDbEntity
420
0
8
0
100
AcDbPolyline
90
5
70
0
43
0
38
0
39
0
10
244
20
132
10
334
20
132
10
334
20
0
10
244
20
0
10
244
20
132
0
LWPOLYLINE
5
1D
330
C
100
AcDbEntity
420
0
8
0
100
AcDbPolyline
90
5
70
0
43
0
38
0
39
0
10
245
20
131
10
333
20
131
10
333
20
97
10
245
20
97
10
245
20
131
0
TEXT
5
1E
330
C
100
AcDbEntity
420
0
8
0
100
AcDbText
10
275.55468727111815
20
112.63437485158443
30
0
40
10.4
1
AC11
7
Times New Roman
100
AcDbText
0
TEXT
5
20
330
C
100
AcDbEntity
420
0
8
0
100
AcDbText
10
311.8281249821186
20
88.4429686566815
30
0
40
10.134375
1
1010
7
Times New Roman
100
AcDbText
0
TEXT
5
21
330
C
100
AcDbEntity
420
0
8
0
100
AcDbText
10
292.5234375667572
20
8.240624399185208
30
0
40
11.700000000000001
1
3=
7
Times New Roman
100
AcDbText
0
IMAGE
5
23
330
C
100
AcDbEntity
8
0
100
AcDbRasterImage
90
0
10
308
20
21
30
0
11
1
21
0
31
0
12
0
22
1
32
0
13
20
23
20
340
22
70
3
280
1
281
50
282
50
283
0
360
24
71
1
91
2
14
-0.5
24
-0.5
14
19.5
24
19.5
290
1
0
TEXT
5
26
330
C
100
AcDbEntity
420
0
8
0
100
AcDbText
10
279
20
61.49999952316284
30
0
40
19.5
1
📤
7
Segoe UI Symbol
100
AcDbText
0
LWPOLYLINE
5
27
330
C
100
AcDbEntity
420
0
8
0
100
AcDbPolyline
90
5
70
0
43
0
38
0
39
0
10
246
20
43
10
257.6875
20
43
10
257.6875
20
31.3125
10
246
20
31.3125
10
246
20
43
0
TEXT
5
28
330
C
100
AcDbEntity
420
0
8
0
100
AcDbText
10
246.35937499821185
20
35.25625013351441
30
0
40
7.0125
1
TR
7
Times New Roman
100
AcDbText
0
LWPOLYLINE
5
29
330
C
100
AcDbEntity
420
0
8
0
100
AcDbPolyline
90
5
70
0
43
0
38
0
39
0
10
259
20
43
10
270.6875
20
43
10
270.6875
20
31.3125
10
259
20
31.3125
10
259
20
43
0
TEXT
5
2A
330
C
100
AcDbEntity
420
0
8
0
100
AcDbText
10
259.23437498793004
20
35.25625013351441
30
0
40
7.0125
1
TO
7
Times New Roman
100
AcDbText
0
LWPOLYLINE
5
2B
330
C
100
AcDbEntity
420
0
8
0
100
AcDbPolyline
90
5
70
0
43
0
38
0
39
0
10
271
20
43
10
282.6875
20
43
10
282.6875
20
31.3125
10
271
20
31.3125
10
271
20
43
0
TEXT
5
2C
330
C
100
AcDbEntity
420
0
8
0
100
AcDbText
10
271.55468750208615
20
35.25625013351441
30
0
40
7.0125
1
ET
7
Times New Roman
100
AcDbText
0
LWPOLYLINE
5
2D
330
C
100
AcDbEntity
420
0
8
0
100
AcDbPolyline
90
5
70
0
43
0
38
0
39
0
10
284
20
43
10
295.6875
20
43
10
295.6875
20
31.3125
10
284
20
31.3125
10
284
20
43
0
TEXT
5
2E
330
C
100
AcDbEntity
420
0
8
0
100
AcDbText
10
284.3593749982119
20
35.25625013351441
30
0
40
7.0125
1
TC
7
Times New Roman
100
AcDbText
0
LWPOLYLINE
5
2F
330
C
100
AcDbEntity
420
0
8
0
100
AcDbPolyline
90
5
70
0
43
0
38
0
39
0
10
297
20
43
10
308.6875
20
43
10
308.6875
20
31.3125
10
297
20
31.3125
10
297
20
43
0
TEXT
5
30
330
C
100
AcDbEntity
420
0
8
0
100
AcDbText
10
298.35937496900556
20
35.25625013351441
30
0
40
7.0125
1
SA
7
Times New Roman
100
AcDbText
0
IMAGE
5
32
330
C
100
AcDbEntity
8
0
100
AcDbRasterImage
90
0
10
245
20
125
30
0
11
1
21
0
31
0
12
0
22
1
32
0
13
22
23
22
340
31
70
3
280
1
281
50
282
50
283
0
360
33
71
1
91
2
14
-0.5
24
-0.5
14
21.5
24
21.5
290
1
0
ENDSEC
0
SECTION
2
OBJECTS
0
DICTIONARY
5
A
330
0
100
AcDbDictionary
281
1
3
ACAD_GROUP
350
B
3
ACAD_IMAGE_DICT
350
25
3
ACAD_IMAGE_DICT
350
34
0
DICTIONARY
5
B
330
A
100
AcDbDictionary
281
0
0
IMAGEDEF
5
22
330
25
102
{ACAD_REACTORS
330
25
330
24
102
}
100
AcDbRasterImageDef
1
images/image1.jpg
10
20
20
20
11
1
21
1
280
1
281
0
0
IMAGEDEF_REACTOR
5
24
330
0
100
AcDbRasterImageDefReactor
90
2
330
23
0
DICTIONARY
5
25
330
A
100
AcDbDictionary
281
0
3
image1
350
22
0
IMAGEDEF
5
31
330
34
102
{ACAD_REACTORS
330
34
330
33
102
}
100
AcDbRasterImageDef
1
images/image2.jpg
10
22
20
22
11
1
21
1
280
1
281
0
0
IMAGEDEF_REACTOR
5
33
330
0
100
AcDbRasterImageDefReactor
90
2
330
32
0
DICTIONARY
5
34
330
A
100
AcDbDictionary
281
0
3
image2
350
31
0
ENDSEC
0
EOF