0
SECTION
2
HEADER
9
$ACADVER
1
AC1021
9
$LASTSAVEDBY
1
@tarikjabiri/dxf
9
$HANDSEED
5
27
9
$INSUNITS
70
0
9
$CLAYER
8
0
9
$VIEWCTR
10
67
20
280.88489183262305
0
ENDSEC
0
SECTION
2
CLASSES
0
ENDSEC
0
SECTION
2
TABLES
0
TABLE
2
VPORT
5
1
330
0
100
AcDbSymbolTable
70
1
0
VPORT
5
19
330
1
100
AcDbSymbolTableRecord
100
AcDbViewportTableRecord
2
*Active
70
0
10
0
20
0
11
1
21
1
12
67
22
280.88489183262305
13
0
23
0
14
10
24
10
15
10
25
10
16
0
26
0
36
1
17
0
27
0
37
0
40
761.7697836652461
41
2
42
50
43
0
44
0
50
0
51
0
71
0
72
100
73
1
74
3
75
0
76
1
77
0
78
0
281
0
65
1
110
0
120
0
130
0
111
1
121
0
131
0
112
0
122
1
132
0
79
0
146
0
348
10020
60
7
61
5
292
1
282
1
141
0
142
0
63
250
421
3358443
0
ENDTAB
0
TABLE
2
LTYPE
5
2
330
0
100
AcDbSymbolTable
70
3
0
LTYPE
5
12
330
2
100
AcDbSymbolTableRecord
100
AcDbLinetypeTableRecord
2
ByBlock
70
0
3

72
65
73
0
40
0
0
LTYPE
5
13
330
2
100
AcDbSymbolTableRecord
100
AcDbLinetypeTableRecord
2
ByLayer
70
0
3

72
65
73
0
40
0
0
LTYPE
5
14
330
2
100
AcDbSymbolTableRecord
100
AcDbLinetypeTableRecord
2
Continuous
70
0
3
Solid line
72
65
73
0
40
0
0
ENDTAB
0
TABLE
2
LAYER
5
3
330
0
100
AcDbSymbolTable
70
1
0
LAYER
5
15
330
3
100
AcDbSymbolTableRecord
100
AcDbLayerTableRecord
2
0
70
0
62
7
6
Continuous
370
0
390
0
0
ENDTAB
0
TABLE
2
STYLE
5
4
330
0
100
AcDbSymbolTable
70
1
0
STYLE
5
16
330
4
100
AcDbSymbolTableRecord
100
AcDbTextStyleTableRecord
2
Standard
70
0
40
0
41
1
50
0
71
0
42
1
3
txt
4

0
ENDTAB
0
TABLE
2
VIEW
5
5
330
0
100
AcDbSymbolTable
70
0
0
ENDTAB
0
TABLE
2
UCS
5
6
330
0
100
AcDbSymbolTable
70
0
0
ENDTAB
0
TABLE
2
APPID
5
7
330
0
100
AcDbSymbolTable
70
1
0
APPID
5
17
330
7
100
AcDbSymbolTableRecord
100
AcDbRegAppTableRecord
2
ACAD
70
0
0
ENDTAB
0
TABLE
2
DIMSTYLE
5
8
330
0
100
AcDbSymbolTable
70
1
100
AcDbDimStyleTable
0
DIMSTYLE
105
18
330
8
100
AcDbSymbolTableRecord
100
AcDbDimStyleTableRecord
2
Standard
70
0
340
16
0
ENDTAB
0
TABLE
2
BLOCK_RECORD
5
9
330
0
100
AcDbSymbolTable
70
2
0
BLOCK_RECORD
5
C
330
9
100
AcDbSymbolTableRecord
100
AcDbBlockTableRecord
2
*Model_Space
70
0
280
1
281
0
0
BLOCK_RECORD
5
F
330
9
100
AcDbSymbolTableRecord
100
AcDbBlockTableRecord
2
*Paper_Space
70
0
280
1
281
0
0
ENDTAB
0
ENDSEC
0
SECTION
2
BLOCKS
0
BLOCK
5
D
330
C
100
AcDbEntity
8
0
100
AcDbBlockBegin
2
*Model_Space
70
0
10
0
20
0
30
0
3
*Model_Space
1

0
ENDBLK
5
E
100
AcDbEntity
8
0
100
AcDbBlockEnd
0
BLOCK
5
10
330
F
100
AcDbEntity
8
0
100
AcDbBlockBegin
2
*Paper_Space
70
0
10
0
20
0
30
0
3
*Paper_Space
1

0
ENDBLK
5
11
100
AcDbEntity
8
0
100
AcDbBlockEnd
0
ENDSEC
0
SECTION
2
ENTITIES
0
LWPOLYLINE
5
1A
330
C
100
AcDbEntity
420
0
8
0
100
AcDbPolyline
90
5
70
0
43
0
38
0
39
0
10
80
20
580
10
162
20
580
10
162
20
458
10
80
20
458
10
80
20
580
0
IMAGE
5
1C
330
C
100
AcDbEntity
8
0
100
AcDbRasterImage
90
0
10
81
20
573.4000015258789
30
0
11
1
21
0
31
0
12
0
22
1
32
0
13
20
23
20
340
1B
70
3
280
1
281
50
282
50
283
0
360
1D
71
1
91
2
14
-0.5
24
-0.5
14
19.5
24
19.5
290
1
0
IMAGE
5
20
330
C
100
AcDbEntity
8
0
100
AcDbRasterImage
90
0
10
150
20
580
30
0
11
1
21
0
31
0
12
0
22
1
32
0
13
29
23
11
340
1F
70
3
280
1
281
50
282
50
283
0
360
21
71
1
91
2
14
-0.5
24
-0.5
14
28.5
24
10.5
290
1
0
LWPOLYLINE
5
23
330
C
100
AcDbEntity
420
0
8
0
100
AcDbPolyline
90
65
70
0
43
0
38
0
39
0
10
145
20
505
10
146.39163208007812
20
505.0993194580078
10
147.7838897705078
20
505.1892547607422
10
149.17674255371094
20
505.2698516845703
10
150.57005310058594
20
505.34161376953125
10
151.9637908935547
20
505.40484619140625
10
153.35787963867188
20
505.4597930908203
10
154.75225830078125
20
505.50665283203125
10
156.14688110351562
20
505.54579162597656
10
157.5417022705078
20
505.57745361328125
10
158.93666076660156
20
505.60186767578125
10
160.3317108154297
20
505.6192626953125
10
161.7268524169922
20
505.6298522949219
10
163.12200927734375
20
505.6338348388672
10
164.51718139648438
20
505.6313018798828
10
165.91232299804688
20
505.62257385253906
10
167.3074188232422
20
505.6078338623047
10
168.7024383544922
20
505.58726501464844
10
170.09735107421875
20
505.56085205078125
10
171.49217224121094
20
505.5289611816406
10
172.8868408203125
20
505.49163818359375
10
174.28135681152344
20
505.4490051269531
10
175.6757049560547
20
505.4013214111328
10
177.06988525390625
20
505.34852600097656
10
178.4638671875
20
505.2909393310547
10
179.85763549804688
20
505.2285919189453
10
181.25120544433594
20
505.1615447998047
10
182.64454650878906
20
505.090087890625
10
184.0376434326172
20
505.0140686035156
10
185.4304962158203
20
504.9337921142578
10
186.8231201171875
20
504.84934997558594
10
188.21546936035156
20
504.76075744628906
10
189.60755920410156
20
504.66807556152344
10
190.9993896484375
20
504.5715026855469
10
192.3909454345703
20
504.4710998535156
10
193.7822265625
20
504.366943359375
10
195.1732177734375
20
504.2591094970703
10
196.56393432617188
20
504.14759826660156
10
197.95436096191406
20
504.0325622558594
10
199.344482421875
20
503.91407775878906
10
200.73431396484375
20
503.7922058105469
10
202.12387084960938
20
503.66700744628906
10
203.5131072998047
20
503.53855895996094
10
204.9020538330078
20
503.40692138671875
10
206.2906951904297
20
503.2721710205078
10
207.67904663085938
20
503.13433837890625
10
209.0670928955078
20
502.9934997558594
10
210.454833984375
20
502.84971618652344
10
211.84226989746094
20
502.7030029296875
10
213.2294158935547
20
502.55340576171875
10
214.61622619628906
20
502.40101623535156
10
216.00274658203125
20
502.24591064453125
10
217.3889617919922
20
502.0881042480469
10
218.77488708496094
20
501.9276885986328
10
220.16050720214844
20
501.7646484375
10
221.54579162597656
20
501.59898376464844
10
222.93080139160156
20
501.4308166503906
10
224.31549072265625
20
501.2602233886719
10
225.6999053955078
20
501.0872344970703
10
227.083984375
20
500.9117126464844
10
228.4677734375
20
500.7339172363281
10
229.85128784179688
20
500.5538635253906
10
231.23448181152344
20
500.3714141845703
10
232.6173858642578
20
500.18675231933594
10
234
20
500
0
LWPOLYLINE
5
24
330
C
100
AcDbEntity
420
0
8
0
100
AcDbPolyline
90
65
70
0
43
0
38
0
39
0
10
145
20
505
10
146.39163208007812
20
505.0993194580078
10
147.7838897705078
20
505.1892547607422
10
149.17674255371094
20
505.2698516845703
10
150.57005310058594
20
505.34161376953125
10
151.9637908935547
20
505.40484619140625
10
153.35787963867188
20
505.4597930908203
10
154.75225830078125
20
505.50665283203125
10
156.14688110351562
20
505.54579162597656
10
157.5417022705078
20
505.57745361328125
10
158.93666076660156
20
505.60186767578125
10
160.3317108154297
20
505.6192626953125
10
161.7268524169922
20
505.6298522949219
10
163.12200927734375
20
505.6338348388672
10
164.51718139648438
20
505.6313018798828
10
165.91232299804688
20
505.62257385253906
10
167.3074188232422
20
505.6078338623047
10
168.7024383544922
20
505.58726501464844
10
170.09735107421875
20
505.56085205078125
10
171.49217224121094
20
505.5289611816406
10
172.8868408203125
20
505.49163818359375
10
174.28135681152344
20
505.4490051269531
10
175.6757049560547
20
505.4013214111328
10
177.06988525390625
20
505.34852600097656
10
178.4638671875
20
505.2909393310547
10
179.85763549804688
20
505.2285919189453
10
181.25120544433594
20
505.1615447998047
10
182.64454650878906
20
505.090087890625
10
184.0376434326172
20
505.0140686035156
10
185.4304962158203
20
504.9337921142578
10
186.8231201171875
20
504.84934997558594
10
188.21546936035156
20
504.76075744628906
10
189.60755920410156
20
504.66807556152344
10
190.9993896484375
20
504.5715026855469
10
192.3909454345703
20
504.4710998535156
10
193.7822265625
20
504.366943359375
10
195.1732177734375
20
504.2591094970703
10
196.56393432617188
20
504.14759826660156
10
197.95436096191406
20
504.0325622558594
10
199.344482421875
20
503.91407775878906
10
200.73431396484375
20
503.7922058105469
10
202.12387084960938
20
503.66700744628906
10
203.5131072998047
20
503.53855895996094
10
204.9020538330078
20
503.40692138671875
10
206.2906951904297
20
503.2721710205078
10
207.67904663085938
20
503.13433837890625
10
209.0670928955078
20
502.9934997558594
10
210.454833984375
20
502.84971618652344
10
211.84226989746094
20
502.7030029296875
10
213.2294158935547
20
502.55340576171875
10
214.61622619628906
20
502.40101623535156
10
216.00274658203125
20
502.24591064453125
10
217.3889617919922
20
502.0881042480469
10
218.77488708496094
20
501.9276885986328
10
220.16050720214844
20
501.7646484375
10
221.54579162597656
20
501.59898376464844
10
222.93080139160156
20
501.4308166503906
10
224.31549072265625
20
501.2602233886719
10
225.6999053955078
20
501.0872344970703
10
227.083984375
20
500.9117126464844
10
228.4677734375
20
500.7339172363281
10
229.85128784179688
20
500.5538635253906
10
231.23448181152344
20
500.3714141845703
10
232.6173858642578
20
500.18675231933594
10
234
20
500
0
HATCH
5
25
330
C
100
AcDbEntity
420
0
8
0
100
AcDbHatch
10
0
20
0
30
0
210
0
220
0
230
1
2
SOLID
70
1
71
0
91
1
92
7
72
0
73
1
93
33
10
222.91112918666414
20
507.552280720759
10
223.60418361249762
20
507.08026317571154
10
224.2972380383311
20
506.6082456306641
10
224.9902924641646
20
506.13622808561666
10
225.6833468899981
20
505.66421054056923
10
226.37640131583157
20
505.1921929955218
10
227.06945574166508
20
504.72017545047436
10
227.76250963874
20
504.2481582655478
10
228.45556459333204
20
503.7761403603795
10
229.14861901916555
20
503.30412281533205
10
229.84167344499903
20
502.8321052702846
10
230.53472734207398
20
502.36008808535803
10
231.22778229666605
20
501.88807018018974
10
231.92083672249953
20
501.4160526351423
10
232.6138900908159
20
500.94403581033646
10
233.30694557416652
20
500.47201754504744
10
234
20
500
10
233.20655329410073
20
499.72876688003885
10
232.41310658820146
20
499.4575337600777
10
231.61965994453416
20
499.1863011008488
10
230.82621323384782
20
498.91506794544665
10
230.03276652316146
20
498.64383479004454
10
229.23932045612352
20
498.3726021251044
10
228.44587255388188
20
498.1013686975973
10
227.65242646769565
20
497.83013589089336
10
226.85898098686118
20
497.5589032911238
10
226.06553247926777
20
497.2876696566823
10
225.2720869984333
20
497.0164370569127
10
224.47864091224702
20
496.74520425020876
10
223.68519301000543
20
496.4739708227017
10
222.89174752917097
20
496.2027382229321
10
222.09829962692933
20
495.931504795425
10
221.3048529353913
20
495.66027178178666
97
0
75
1
76
1
47
1
98
0
0
LWPOLYLINE
5
26
330
C
100
AcDbEntity
420
0
8
0
100
AcDbPolyline
90
34
70
0
43
0
38
0
39
0
10
222.91112918666414
20
507.552280720759
10
223.60418361249762
20
507.08026317571154
10
224.2972380383311
20
506.6082456306641
10
224.9902924641646
20
506.13622808561666
10
225.6833468899981
20
505.66421054056923
10
226.37640131583157
20
505.1921929955218
10
227.06945574166508
20
504.72017545047436
10
227.76250963874
20
504.2481582655478
10
228.45556459333204
20
503.7761403603795
10
229.14861901916555
20
503.30412281533205
10
229.84167344499903
20
502.8321052702846
10
230.53472734207398
20
502.36008808535803
10
231.22778229666605
20
501.88807018018974
10
231.92083672249953
20
501.4160526351423
10
232.6138900908159
20
500.94403581033646
10
233.30694557416652
20
500.47201754504744
10
234
20
500
10
233.20655329410073
20
499.72876688003885
10
232.41310658820146
20
499.4575337600777
10
231.61965994453416
20
499.1863011008488
10
230.82621323384782
20
498.91506794544665
10
230.03276652316146
20
498.64383479004454
10
229.23932045612352
20
498.3726021251044
10
228.44587255388188
20
498.1013686975973
10
227.65242646769565
20
497.83013589089336
10
226.85898098686118
20
497.5589032911238
10
226.06553247926777
20
497.2876696566823
10
225.2720869984333
20
497.0164370569127
10
224.47864091224702
20
496.74520425020876
10
223.68519301000543
20
496.4739708227017
10
222.89174752917097
20
496.2027382229321
10
222.09829962692933
20
495.931504795425
10
221.3048529353913
20
495.66027178178666
10
222.91112918666414
20
507.552280720759
0
ENDSEC
0
SECTION
2
OBJECTS
0
DICTIONARY
5
A
330
0
100
AcDbDictionary
281
1
3
ACAD_GROUP
350
B
3
ACAD_IMAGE_DICT
350
1E
3
ACAD_IMAGE_DICT
350
22
0
DICTIONARY
5
B
330
A
100
AcDbDictionary
281
0
0
IMAGEDEF
5
1B
330
1E
102
{ACAD_REACTORS
330
1E
330
1D
102
}
100
AcDbRasterImageDef
1
images/image1.jpg
10
20
20
20
11
1
21
1
280
1
281
0
0
IMAGEDEF_REACTOR
5
1D
330
0
100
AcDbRasterImageDefReactor
90
2
330
1C
0
DICTIONARY
5
1E
330
A
100
AcDbDictionary
281
0
3
image1
350
1B
0
IMAGEDEF
5
1F
330
22
102
{ACAD_REACTORS
330
22
330
21
102
}
100
AcDbRasterImageDef
1
images/image2.jpg
10
29
20
11
11
1
21
1
280
1
281
0
0
IMAGEDEF_REACTOR
5
21
330
0
100
AcDbRasterImageDefReactor
90
2
330
20
0
DICTIONARY
5
22
330
A
100
AcDbDictionary
281
0
3
image2
350
1F
0
ENDSEC
0
EOF