0
SECTION
2
HEADER
9
$ACADVER
1
AC1021
9
$LASTSAVEDBY
1
@tarikjabiri/dxf
9
$HANDSEED
5
2D
9
$INSUNITS
70
0
9
$CLAYER
8
0
9
$VIEWCTR
10
110.5
20
85.36329999999998
0
ENDSEC
0
SECTION
2
CLASSES
0
ENDSEC
0
SECTION
2
TABLES
0
TABLE
2
VPORT
5
1
330
0
100
AcDbSymbolTable
70
1
0
VPORT
5
19
330
1
100
AcDbSymbolTableRecord
100
AcDbViewportTableRecord
2
*Active
70
0
10
0
20
0
11
1
21
1
12
110.5
22
85.36329999999998
13
0
23
0
14
10
24
10
15
10
25
10
16
0
26
0
36
1
17
0
27
0
37
0
40
369.27340000000004
41
2
42
50
43
0
44
0
50
0
51
0
71
0
72
100
73
1
74
3
75
0
76
1
77
0
78
0
281
0
65
1
110
0
120
0
130
0
111
1
121
0
131
0
112
0
122
1
132
0
79
0
146
0
348
10020
60
7
61
5
292
1
282
1
141
0
142
0
63
250
421
3358443
0
ENDTAB
0
TABLE
2
LTYPE
5
2
330
0
100
AcDbSymbolTable
70
3
0
LTYPE
5
12
330
2
100
AcDbSymbolTableRecord
100
AcDbLinetypeTableRecord
2
ByBlock
70
0
3

72
65
73
0
40
0
0
LTYPE
5
13
330
2
100
AcDbSymbolTableRecord
100
AcDbLinetypeTableRecord
2
ByLayer
70
0
3

72
65
73
0
40
0
0
LTYPE
5
14
330
2
100
AcDbSymbolTableRecord
100
AcDbLinetypeTableRecord
2
Continuous
70
0
3
Solid line
72
65
73
0
40
0
0
ENDTAB
0
TABLE
2
LAYER
5
3
330
0
100
AcDbSymbolTable
70
1
0
LAYER
5
15
330
3
100
AcDbSymbolTableRecord
100
AcDbLayerTableRecord
2
0
70
0
62
7
6
Continuous
370
0
390
0
0
ENDTAB
0
TABLE
2
STYLE
5
4
330
0
100
AcDbSymbolTable
70
1
0
STYLE
5
16
330
4
100
AcDbSymbolTableRecord
100
AcDbTextStyleTableRecord
2
Standard
70
0
40
0
41
1
50
0
71
0
42
1
3
txt
4

0
ENDTAB
0
TABLE
2
VIEW
5
5
330
0
100
AcDbSymbolTable
70
0
0
ENDTAB
0
TABLE
2
UCS
5
6
330
0
100
AcDbSymbolTable
70
0
0
ENDTAB
0
TABLE
2
APPID
5
7
330
0
100
AcDbSymbolTable
70
1
0
APPID
5
17
330
7
100
AcDbSymbolTableRecord
100
AcDbRegAppTableRecord
2
ACAD
70
0
0
ENDTAB
0
TABLE
2
DIMSTYLE
5
8
330
0
100
AcDbSymbolTable
70
1
100
AcDbDimStyleTable
0
DIMSTYLE
105
18
330
8
100
AcDbSymbolTableRecord
100
AcDbDimStyleTableRecord
2
Standard
70
0
340
16
0
ENDTAB
0
TABLE
2
BLOCK_RECORD
5
9
330
0
100
AcDbSymbolTable
70
2
0
BLOCK_RECORD
5
C
330
9
100
AcDbSymbolTableRecord
100
AcDbBlockTableRecord
2
*Model_Space
70
0
280
1
281
0
0
BLOCK_RECORD
5
F
330
9
100
AcDbSymbolTableRecord
100
AcDbBlockTableRecord
2
*Paper_Space
70
0
280
1
281
0
0
ENDTAB
0
ENDSEC
0
SECTION
2
BLOCKS
0
BLOCK
5
D
330
C
100
AcDbEntity
8
0
100
AcDbBlockBegin
2
*Model_Space
70
0
10
0
20
0
30
0
3
*Model_Space
1

0
ENDBLK
5
E
100
AcDbEntity
8
0
100
AcDbBlockEnd
0
BLOCK
5
10
330
F
100
AcDbEntity
8
0
100
AcDbBlockBegin
2
*Paper_Space
70
0
10
0
20
0
30
0
3
*Paper_Space
1

0
ENDBLK
5
11
100
AcDbEntity
8
0
100
AcDbBlockEnd
0
ENDSEC
0
SECTION
2
ENTITIES
0
LWPOLYLINE
5
1A
330
C
100
AcDbEntity
420
0
8
0
100
AcDbPolyline
90
33
70
0
43
0
38
0
39
0
10
167.500009864536
20
161.72697566791604
10
168.51936095289597
20
161.62110243529116
10
169.49953895058894
20
161.3075513863719
10
170.40287616685373
20
160.79837211212674
10
171.19465785906664
20
160.11313208651396
10
171.84445630083218
20
159.27816469943076
10
172.3273001024445
20
158.3255572793077
10
172.62463384738956
20
157.29191799507166
10
172.72503116659578
20
156.21696902474426
10
172.62463384738956
20
155.1420200544169
10
172.3273001024445
20
154.10838077018084
10
171.84445630083218
20
153.15577335005776
10
171.19465785906664
20
152.3208059629746
10
170.40287616685373
20
151.63556593736178
10
169.49953895058894
20
151.12638666311665
10
168.51936095289597
20
150.81283561419735
10
167.500009864536
20
150.70696238157248
10
166.48065877617603
20
150.81283561419735
10
165.50048077848305
20
151.12638666311665
10
164.59714356221826
20
151.63556593736178
10
163.80536187000538
20
152.3208059629746
10
163.15556342823982
20
153.15577335005776
10
162.6727196266275
20
154.10838077018084
10
162.37538588168246
20
155.1420200544169
10
162.27498856247624
20
156.21696902474426
10
162.37538588168246
20
157.29191799507166
10
162.6727196266275
20
158.3255572793077
10
163.15556342823982
20
159.27816469943076
10
163.80536187000538
20
160.11313208651396
10
164.59714356221826
20
160.79837211212674
10
165.50048077848305
20
161.3075513863719
10
166.48065877617603
20
161.62110243529116
10
167.500009864536
20
161.72697566791604
0
LWPOLYLINE
5
1B
330
C
100
AcDbEntity
420
0
8
0
100
AcDbPolyline
90
304
70
0
43
0
38
0
39
0
10
167.7708815082969
20
141.1428307355942
10
171.05919079831685
20
141.1428307355942
10
172.6868831777782
20
141.08543905041253
10
172.6097327891202
20
140.96912734397782
10
172.53256984343273
20
140.85281474897562
10
172.45540689774526
20
140.73650215397342
10
172.37825650908724
20
140.6201904475387
10
172.30109356339977
20
140.5038778525365
10
172.22394317474172
20
140.38756525753428
10
172.1467802290543
20
140.2712526625321
10
172.06962984039623
20
140.15494051181363
10
171.99246689470877
20
140.03862791681144
10
171.91531650605074
20
139.922315766093
10
171.83815356036328
20
139.80600317109077
10
171.76100317170523
20
139.68969102037232
10
171.6838402260178
20
139.57337842537012
10
171.60668983735974
20
139.4570667189354
10
171.52952689167228
20
139.3407541239332
10
171.45236394598484
20
139.22444152893098
10
171.3752135573268
20
139.10812937821254
10
171.29805061163933
20
138.9918172274941
10
171.2209002229813
20
138.87550463249187
10
171.14373727729384
20
138.7591920374897
10
171.06658688863578
20
138.64287988677123
10
170.98942394294835
20
138.52656773605275
10
170.9122735542903
20
138.41025514105058
10
170.83511060860286
20
138.2939429903321
10
170.7579602199448
20
138.17763083961364
10
170.68079727425734
20
138.0613186888952
10
170.6036468855993
20
137.94500609389297
10
170.52648393991186
20
137.8286934988908
10
170.4493335512538
20
137.71238134817233
10
170.37217060556637
20
137.59606919745386
10
170.2950076598789
20
137.4797566024517
10
170.21785727122085
20
137.36344400744946
10
170.14069432553342
20
137.24713185673102
10
170.06354393687536
20
137.13081926172882
10
169.9863809911879
20
137.01450755529407
10
169.90923060252987
20
136.8981949602919
10
169.8320676568424
20
136.78188280957343
10
169.75491726818436
20
136.66557021457123
10
169.67775432249692
20
136.5492580638528
10
169.60060393383887
20
136.43294546885056
10
169.5234409881514
20
136.31663331813212
10
169.44629059949338
20
136.20032094527178
10
169.36912765380592
20
136.0840087945533
10
169.29197726514786
20
135.96769619955114
10
169.21481431946043
20
135.85138404883267
10
169.13765137377297
20
135.73507145383047
10
169.0605009851149
20
135.61875930311203
10
168.98333803942748
20
135.50244693025166
10
168.90618765076943
20
135.38613477953322
10
168.82902470508196
20
135.26982218453102
10
168.75187431642394
20
135.15351003381255
10
168.67471137073647
20
135.03719766095224
10
168.59756098207842
20
134.92088551023377
10
168.520398036391
20
134.80457291523157
10
168.44324764773293
20
134.68826032022938
10
168.3660847020455
20
134.5719481695109
10
168.28893431338744
20
134.45563568557964
10
168.21177136769998
20
134.3393235348612
10
168.13460842201255
20
134.22301105092993
10
168.0574580333545
20
134.10669890021148
10
167.98029508766703
20
133.99038641628022
10
167.903144699009
20
133.87407426556175
10
167.82598175332154
20
133.75776211484327
10
167.7488313646635
20
133.641449630912
10
167.67166841897605
20
133.5251370359098
10
167.594518030318
20
133.4088244964431
10
167.51735508463054
20
133.29251284554383
10
167.4401795819137
20
133.35937321689897
10
167.36300407919683
20
133.47568581190117
10
167.28581601945058
20
133.59199840690337
10
167.20864051673374
20
133.70830966905433
10
167.13145245698746
20
133.82462226405653
10
167.05427695427062
20
133.94093485905876
10
166.97708889452434
20
134.05724745406093
10
166.8999133918075
20
134.17355916049564
10
166.82272533206122
20
134.28987175549787
10
166.74554982934438
20
134.4061839062163
10
166.66836176959814
20
134.52249650121854
10
166.59118626688127
20
134.63880820765326
10
166.51399820713502
20
134.75512080265543
10
166.43682270441815
20
134.87143339765765
10
166.3596346446719
20
134.98774599265982
10
166.28245914195503
20
135.10405858766205
10
166.20527108220878
20
135.220369849813
10
166.12809557949194
20
135.3366824448152
10
166.05090751974566
20
135.4529950398174
10
165.97373201702882
20
135.5693076348196
10
165.89654395728255
20
135.68561934125432
10
165.8193684545657
20
135.80193193625655
10
165.74219295184884
20
135.91824453125872
10
165.6650048921026
20
136.0345566819772
10
165.58782938938575
20
136.1508683884119
10
165.51064132963947
20
136.2671809834141
10
165.43346582692263
20
136.3834935784163
10
165.35627776717635
20
136.4998061734185
10
165.2791022644595
20
136.61611787985322
10
165.20191420471326
20
136.73243047485545
10
165.1247387019964
20
136.8487426255739
10
165.04755064225014
20
136.9650552205761
10
164.97037513953327
20
137.0813669270108
10
164.89318707978703
20
137.197679522013
10
164.81601157707016
20
137.3139921170152
10
164.7388235173239
20
137.43030426773367
10
164.66164801460707
20
137.5466159741684
10
164.5844599548608
20
137.66292856917056
10
164.50728445214395
20
137.7792411641728
10
164.43009639239767
20
137.895553759175
10
164.35292088968083
20
138.0118654656097
10
164.27573282993458
20
138.1281780606119
10
164.1985573272177
20
138.2444906556141
10
164.12136926747147
20
138.3608032506163
10
164.0441937647546
20
138.4771158456185
10
163.96700570500835
20
138.5934275520532
10
163.88983020229148
20
138.70973970277169
10
163.81264214254523
20
138.82605229777386
10
163.7354666398284
20
138.94236489277608
10
163.6582785800821
20
139.05867615492707
10
163.58110307736527
20
139.17498874992924
10
163.503915017619
20
139.29130134493147
10
163.42673951490215
20
139.40761393993364
10
163.3495514551559
20
139.52392564636835
10
163.27237595243903
20
139.64023824137058
10
163.1951878926928
20
139.75655083637275
10
163.11801238997592
20
139.87286343137498
10
163.04083688725908
20
139.9891751378097
10
162.9636488275128
20
140.1054877328119
10
162.88647332479596
20
140.22179988353037
10
162.8092852650497
20
140.33811158996508
10
162.73210976233284
20
140.454424629251
10
162.6549217025866
20
140.57073633568572
10
162.57774619986972
20
140.68704804212044
10
162.50055814012347
20
140.80336152569012
10
162.4233826374066
20
140.91967323212484
10
162.34619457766036
20
141.03598671569452
10
162.5429506713913
20
141.1428307355942
10
165.83123484735248
20
141.1428307355942
10
167.2293847293091
20
141.20970876722808
10
167.2293847293091
20
141.3260524620922
10
167.2293847293091
20
141.44239793409128
10
167.2293847293091
20
141.5587416289554
10
167.2293847293091
20
141.67508532381953
10
167.2293847293091
20
141.7914307958186
10
167.2293847293091
20
141.9077744906827
10
167.2293847293091
20
142.02411818554683
10
167.2293847293091
20
142.14046365754592
10
167.2293847293091
20
142.25680735241002
10
167.2293847293091
20
142.37315282440912
10
167.2293847293091
20
142.48949651927325
10
167.2293847293091
20
142.60584021413734
10
167.2293847293091
20
142.72218568613644
10
167.2293847293091
20
142.83852938100057
10
167.2293847293091
20
142.95487307586467
10
167.2293847293091
20
143.07121854786374
10
167.2293847293091
20
143.1875622427279
10
167.2293847293091
20
143.30390771472696
10
167.2293847293091
20
143.42025140959106
10
167.2293847293091
20
143.5365951044552
10
167.2293847293091
20
143.65294057645428
10
167.2293847293091
20
143.76928427131838
10
167.2293847293091
20
143.8856279661825
10
167.2293847293091
20
144.0019734381816
10
167.2293847293091
20
144.1183171330457
10
167.2293847293091
20
144.2346626050448
10
167.2293847293091
20
144.35100629990893
10
167.2293847293091
20
144.46734999477303
10
167.2293847293091
20
144.5836954667721
10
167.2293847293091
20
144.70003916163623
10
167.2293847293091
20
144.81638463363532
10
167.2293847293091
20
144.93272832849942
10
167.2293847293091
20
145.04907202336355
10
167.2293847293091
20
145.16541749536265
10
167.2293847293091
20
145.28176119022675
10
167.2293847293091
20
145.39810488509087
10
167.2293847293091
20
145.51445035708997
10
167.2293847293091
20
145.63079405195407
10
167.2293847293091
20
145.74713952395314
10
167.2293847293091
20
145.8634832188173
10
167.2293847293091
20
145.9798269136814
10
167.2293847293091
20
146.09617238568046
10
167.2293847293091
20
146.2125160805446
10
167.2293847293091
20
146.32885977540872
10
167.2293847293091
20
146.44520524740778
10
167.2293847293091
20
146.5615489422719
10
167.2293847293091
20
146.677894414271
10
167.2293847293091
20
146.7942381091351
10
167.2293847293091
20
146.91058180399924
10
167.2293847293091
20
147.02692727599833
10
167.2293847293091
20
147.14327097086243
10
167.2293847293091
20
147.25961466572653
10
167.2293847293091
20
147.37596013772563
10
167.2293847293091
20
147.49230383258976
10
167.2293847293091
20
147.60864930458882
10
167.2293847293091
20
147.72499299945295
10
167.2293847293091
20
147.84133669431708
10
167.2293847293091
20
147.95768216631615
10
167.2293847293091
20
148.07402586118027
10
167.2293847293091
20
148.19037133317937
10
167.2293847293091
20
148.30671502804347
10
167.2293847293091
20
148.4230587229076
10
167.2293847293091
20
148.5394041949067
10
167.2293847293091
20
148.6557478897708
10
167.2293847293091
20
148.7720915846349
10
167.2293847293091
20
148.888437056634
10
167.2293847293091
20
149.00478075149812
10
167.2293847293091
20
149.12112622349719
10
167.2293847293091
20
149.2374699183613
10
167.2293847293091
20
149.35381361322544
10
167.2293847293091
20
149.4701590852245
10
167.2293847293091
20
149.58650278008864
10
167.2293847293091
20
149.70284647495276
10
167.2293847293091
20
149.81919194695183
10
167.2293847293091
20
149.93553564181593
10
167.2293847293091
20
150.05188111381503
10
167.2293847293091
20
150.16822480867916
10
167.2293847293091
20
150.28456850354326
10
167.2293847293091
20
150.40091397554235
10
167.2293847293091
20
150.51725767040648
10
167.2293847293091
20
150.63360136527058
10
167.77090662235568
20
150.6830696942033
10
167.77090662235568
20
150.56672422220421
10
167.77090662235568
20
150.45037875020512
10
167.77090662235568
20
150.334036832476
10
167.77090662235568
20
150.2176913604769
10
167.77090662235568
20
150.1013458884778
10
167.77090662235568
20
149.98500397074866
10
167.77090662235568
20
149.86865849874957
10
167.77090662235568
20
149.75231302675047
10
167.77090662235568
20
149.63597110902134
10
167.77090662235568
20
149.51962563702227
10
167.77090662235568
20
149.40328016502318
10
167.77090662235568
20
149.28693824729402
10
167.77090662235568
20
149.17059277529495
10
167.77090662235568
20
149.05424730329585
10
167.77090662235568
20
148.93790183129676
10
167.77090662235568
20
148.82155991356763
10
167.77089406532627
20
148.70521444156853
10
167.77089406532627
20
148.58886896956943
10
167.77089406532627
20
148.4725270518403
10
167.77089406532627
20
148.35618157984123
10
167.77089406532627
20
148.23983610784214
10
167.77089406532627
20
148.12349419011298
10
167.77089406532627
20
148.0071487181139
10
167.77089406532627
20
147.8908032461148
10
167.77089406532627
20
147.77446043981817
10
167.77089406532627
20
147.65811496781907
10
167.77089406532627
20
147.54177127295497
10
167.77089406532627
20
147.4254258009559
10
167.77089406532627
20
147.30908210609178
10
167.77089406532627
20
147.19273841122765
10
167.77089406532627
20
147.07639293922858
10
167.77089406532627
20
146.96004924436446
10
167.77089406532627
20
146.84370554950033
10
167.77089406532627
20
146.72736007750126
10
167.77089406532627
20
146.61101638263713
10
167.77089406532627
20
146.494672687773
10
167.77089406532627
20
146.37832721577394
10
167.77089406532627
20
146.26198174377487
10
167.77089406532627
20
146.14563982604568
10
167.77089406532627
20
146.0292943540466
10
167.77089406532627
20
145.91294888204754
10
167.77089406532627
20
145.79660696431839
10
167.77089406532627
20
145.6802614923193
10
167.77089406532627
20
145.56391602032022
10
167.77089406532627
20
145.44757410259106
10
167.77089406532627
20
145.33122863059197
10
167.77089406532627
20
145.2148831585929
10
167.77089406532627
20
145.09853768659383
10
167.77089406532627
20
144.98219576886464
10
167.77089406532627
20
144.86585029686557
10
167.77089406532627
20
144.7495048248665
10
167.77089406532627
20
144.63316290713735
10
167.77089406532627
20
144.51681743513825
10
167.77089406532627
20
144.40047196313918
10
167.77089406532627
20
144.28413004541002
10
167.77089406532627
20
144.16778457341093
10
167.77089406532627
20
144.05143910141186
10
167.77089406532627
20
143.9350971836827
10
167.77089406532627
20
143.8187517116836
10
167.77089406532627
20
143.70240623968454
10
167.7708815082969
20
143.58606076768547
10
167.7708815082969
20
143.46971884995628
10
167.7708815082969
20
143.3533733779572
10
167.7708815082969
20
143.23702790595814
10
167.7708815082969
20
143.12068598822898
10
167.7708815082969
20
143.0043405162299
10
167.7708815082969
20
142.88799504423082
10
167.7708815082969
20
142.77165312650166
10
167.7708815082969
20
142.65530765450256
10
167.7708815082969
20
142.5389621825035
10
167.7708815082969
20
142.42262026477434
10
167.7708815082969
20
142.30627479277524
10
167.7708815082969
20
142.18992932077617
10
167.7708815082969
20
142.07358740304704
10
167.7708815082969
20
141.95724193104795
10
167.7708815082969
20
141.84089645904885
10
167.7708815082969
20
141.72455098704978
10
167.7708815082969
20
141.60820906932062
10
167.7708815082969
20
141.49186359732153
10
167.7708815082969
20
141.37551812532246
10
167.7708815082969
20
141.2591762075933
10
167.7708815082969
20
141.1428307355942
0
LWPOLYLINE
5
1C
330
C
100
AcDbEntity
420
0
8
0
100
AcDbPolyline
90
5
70
0
43
0
38
0
39
0
10
162.2750000954792
20
133.13944318589506
10
162.2750000954792
20
133.6613923106518
10
172.7250022905208
20
133.6613923106518
10
172.7250022905208
20
133.13944318589506
10
162.2750000954792
20
133.13944318589506
0
TEXT
5
1D
330
C
100
AcDbEntity
420
0
8
0
100
AcDbText
10
181.5
20
170
30
0
40
12
1
AAAAA
7
STANDARD
100
AcDbText
0
TEXT
5
1E
330
C
100
AcDbEntity
420
0
8
0
100
AcDbText
10
94.234375
20
123
30
0
40
22
1
å
7
STANDARD
100
AcDbText
0
LWPOLYLINE
5
1F
330
C
100
AcDbEntity
420
0
8
0
100
AcDbPolyline
90
5
70
0
43
0
38
0
39
0
10
24.5
20
28.5
10
24.5
20
60.5
10
69.5
20
60.5
10
69.5
20
28.5
10
24.5
20
28.5
0
IMAGE
5
21
330
C
100
AcDbEntity
8
0
100
AcDbRasterImage
90
0
10
25.5
20
27.5
30
0
11
6.123233995736766e-18
21
-0.1
31
0
12
0.1
22
6.123233995736766e-18
32
0
13
300
23
351
340
20
70
3
280
1
281
50
282
50
283
0
360
22
71
1
91
2
14
-0.5
24
-0.5
14
299.5
24
350.5
290
1
0
TEXT
5
24
330
C
100
AcDbEntity
420
0
8
0
100
AcDbText
10
39.5
20
0.7265999999999622
30
0
40
12
1
=+S0001-Clv6xx
7
STANDARD
100
AcDbText
0
LWPOLYLINE
5
25
330
C
100
AcDbEntity
420
0
8
0
100
AcDbPolyline
90
5
70
0
43
0
38
0
39
0
10
88
20
133
10
178
20
133
10
178
20
1
10
88
20
1
10
88
20
133
0
LWPOLYLINE
5
26
330
C
100
AcDbEntity
420
0
8
0
100
AcDbPolyline
90
5
70
0
43
0
38
0
39
0
10
89
20
132
10
177
20
132
10
177
20
98
10
89
20
98
10
89
20
132
0
TEXT
5
27
330
C
100
AcDbEntity
420
0
8
0
100
AcDbText
10
80.92187484741211
20
110.73437469899653
30
0
40
11.000000305175803
1
AABB
7
STANDARD
100
AcDbText
0
TEXT
5
28
330
C
100
AcDbEntity
420
0
8
0
100
AcDbText
10
166.79687441825865
20
86.47656230594964
30
0
40
11.000000201463678
1
0
7
STANDARD
100
AcDbText
0
IMAGE
5
2A
330
C
100
AcDbEntity
8
0
100
AcDbRasterImage
90
0
10
89
20
132
30
0
11
0.171875
21
0
31
0
12
0
22
0.171875
32
0
13
128
23
128
340
29
70
3
280
1
281
50
282
50
283
0
360
2B
71
1
91
2
14
-0.5
24
-0.5
14
127.5
24
127.5
290
1
0
ENDSEC
0
SECTION
2
OBJECTS
0
DICTIONARY
5
A
330
0
100
AcDbDictionary
281
1
3
ACAD_GROUP
350
B
3
ACAD_IMAGE_DICT
350
23
3
ACAD_IMAGE_DICT
350
2C
0
DICTIONARY
5
B
330
A
100
AcDbDictionary
281
0
0
IMAGEDEF
5
20
330
23
102
{ACAD_REACTORS
330
23
330
22
102
}
100
AcDbRasterImageDef
1
images/image1.jpg
10
300
20
351
11
1
21
1
280
1
281
0
0
IMAGEDEF_REACTOR
5
22
330
0
100
AcDbRasterImageDefReactor
90
2
330
21
0
DICTIONARY
5
23
330
A
100
AcDbDictionary
281
0
3
image1
350
20
0
IMAGEDEF
5
29
330
2C
102
{ACAD_REACTORS
330
2C
330
2B
102
}
100
AcDbRasterImageDef
1
images/image2.jpg
10
128
20
128
11
1
21
1
280
1
281
0
0
IMAGEDEF_REACTOR
5
2B
330
0
100
AcDbRasterImageDefReactor
90
2
330
2A
0
DICTIONARY
5
2C
330
A
100
AcDbDictionary
281
0
3
image2
350
29
0
ENDSEC
0
EOF