<?xml version="1.0" encoding="UTF-8"?>
<svg xmlns="http://www.w3.org/2000/svg" xmlns:xlink="http://www.w3.org/1999/xlink" width="1280" height="720" viewBox="0 0 1280 720">
<defs>
<clipPath id="clip1" clipPathUnits="userSpaceOnUse"><rect x="0" y="0" width="1280" height="720"/></clipPath>
</defs>
<g clip-path="url(#clip1)"><rect x="44" y="99" width="103" height="55" rx="0" ry="0" fill="none" stroke="rgb(0, 0, 0)" stroke-width="1"/></g>
<g clip-path="url(#clip1)"><text x="45" y="100.5" fill="rgb(0, 0, 0)" dominant-baseline="text-before-edge" font-size="16px" font-family="&quot;Times New Roman&quot;">abcdef</text></g>
<g clip-path="url(#clip1)"><rect x="185" y="82" width="103" height="55" rx="0" ry="0" fill="none" stroke="rgb(0, 0, 0)" stroke-width="1"/></g>
<g clip-path="url(#clip1)"><text x="0" y="0.5" fill="rgb(0, 0, 0)" dominant-baseline="text-before-edge" font-size="16px" font-family="&quot;Times New Roman&quot;" transform="matrix(0,1,-1,0,287,83)" xml:space="preserve">abcdef</text></g>
<g clip-path="url(#clip1)"><rect x="398" y="170" width="103" height="206" rx="0" ry="0" fill="none" stroke="rgb(0, 0, 0)" stroke-width="1"/></g>
<g clip-path="url(#clip1)"><text x="0" y="0.5" fill="rgb(0, 0, 0)" dominant-baseline="text-before-edge" font-size="16px" font-family="&quot;Times New Roman&quot;" transform="matrix(0,1,-1,0,500,332.36)" xml:space="preserve">abcdef</text></g>
<g clip-path="url(#clip1)"><rect x="403" y="87" width="103" height="55" rx="0" ry="0" fill="none" stroke="rgb(0, 0, 0)" stroke-width="1"/></g>
<g clip-path="url(#clip1)"><text x="462.36" y="88.5" fill="rgb(0, 0, 0)" dominant-baseline="text-before-edge" font-size="16px" font-family="&quot;Times New Roman&quot;" xml:space="preserve">abcdef</text></g>
<g clip-path="url(#clip1)"><rect x="228" y="233" width="103" height="55" rx="0" ry="0" fill="none" stroke="rgb(0, 0, 0)" stroke-width="1"/></g>
<g clip-path="url(#clip1)"><text x="0" y="0.5" fill="rgb(0, 0, 0)" dominant-baseline="text-before-edge" font-size="16px" font-family="&quot;Times New Roman&quot;" transform="matrix(0,1,-1,0,330,234)" xml:space="preserve">abcdef</text></g>
<g clip-path="url(#clip1)"><rect x="201" y="329" width="103" height="127" rx="0" ry="0" fill="none" stroke="rgb(0, 0, 0)" stroke-width="1"/></g>
<g clip-path="url(#clip1)"><text x="0" y="0.5" fill="rgb(0, 0, 0)" dominant-baseline="text-before-edge" font-size="16px" font-family="&quot;Times New Roman&quot;" transform="matrix(0,-1,1,0,202,455)" xml:space="preserve">abcdef</text></g>
<g clip-path="url(#clip1)"><rect x="342" y="394" width="103" height="127" rx="0" ry="0" fill="none" stroke="rgb(0, 0, 0)" stroke-width="1"/></g>
<g clip-path="url(#clip1)"><text x="0" y="0.5" fill="rgb(0, 0, 0)" dominant-baseline="text-before-edge" font-size="16px" font-family="&quot;Times New Roman&quot;" transform="matrix(0,-1,1,0,343,437.64)" xml:space="preserve">abcdef</text></g>
<g clip-path="url(#clip1)"><rect x="98" y="228" width="103" height="103" rx="0" ry="0" fill="none" stroke="rgb(0, 0, 0)" stroke-width="1"/></g>
<g clip-path="url(#clip1)"><text x="0" y="0.5" fill="rgb(0, 0, 0)" dominant-baseline="text-before-edge" font-size="16px" font-family="&quot;Times New Roman&quot;" transform="matrix(0,1,-1,0,117,229)" xml:space="preserve">abcdef</text></g>
<g clip-path="url(#clip1)"><rect x="40" y="381" width="103" height="103" rx="0" ry="0" fill="none" stroke="rgb(0, 0, 0)" stroke-width="1"/></g>
<g clip-path="url(#clip1)"><text x="0" y="0.5" fill="rgb(0, 0, 0)" dominant-baseline="text-before-edge" font-size="16px" font-family="&quot;Times New Roman&quot;" transform="matrix(0,1,-1,0,59,440.36)" xml:space="preserve">abcdef</text></g>
</svg>