0
SECTION
2
HEADER
9
$ACADVER
1
AC1021
9
$LASTSAVEDBY
1
@tarikjabiri/dxf
9
$HANDSEED
5
26
9
$INSUNITS
70
0
9
$CLAYER
8
0
9
$VIEWCTR
10
67
20
250.8421363866704
0
ENDSEC
0
SECTION
2
CLASSES
0
ENDSEC
0
SECTION
2
TABLES
0
TABLE
2
VPORT
5
1
330
0
100
AcDbSymbolTable
70
1
0
VPORT
5
19
330
1
100
AcDbSymbolTableRecord
100
AcDbViewportTableRecord
2
*Active
70
0
10
0
20
0
11
1
21
1
12
67
22
250.8421363866704
13
0
23
0
14
10
24
10
15
10
25
10
16
0
26
0
36
1
17
0
27
0
37
0
40
701.6842727733408
41
2
42
50
43
0
44
0
50
0
51
0
71
0
72
100
73
1
74
3
75
0
76
1
77
0
78
0
281
0
65
1
110
0
120
0
130
0
111
1
121
0
131
0
112
0
122
1
132
0
79
0
146
0
348
10020
60
7
61
5
292
1
282
1
141
0
142
0
63
250
421
3358443
0
ENDTAB
0
TABLE
2
LTYPE
5
2
330
0
100
AcDbSymbolTable
70
3
0
LTYPE
5
12
330
2
100
AcDbSymbolTableRecord
100
AcDbLinetypeTableRecord
2
ByBlock
70
0
3

72
65
73
0
40
0
0
LTYPE
5
13
330
2
100
AcDbSymbolTableRecord
100
AcDbLinetypeTableRecord
2
ByLayer
70
0
3

72
65
73
0
40
0
0
LTYPE
5
14
330
2
100
AcDbSymbolTableRecord
100
AcDbLinetypeTableRecord
2
Continuous
70
0
3
Solid line
72
65
73
0
40
0
0
ENDTAB
0
TABLE
2
LAYER
5
3
330
0
100
AcDbSymbolTable
70
1
0
LAYER
5
15
330
3
100
AcDbSymbolTableRecord
100
AcDbLayerTableRecord
2
0
70
0
62
7
6
Continuous
370
0
390
0
0
ENDTAB
0
TABLE
2
STYLE
5
4
330
0
100
AcDbSymbolTable
70
1
0
STYLE
5
16
330
4
100
AcDbSymbolTableRecord
100
AcDbTextStyleTableRecord
2
Standard
70
0
40
0
41
1
50
0
71
0
42
1
3
txt
4

0
ENDTAB
0
TABLE
2
VIEW
5
5
330
0
100
AcDbSymbolTable
70
0
0
ENDTAB
0
TABLE
2
UCS
5
6
330
0
100
AcDbSymbolTable
70
0
0
ENDTAB
0
TABLE
2
APPID
5
7
330
0
100
AcDbSymbolTable
70
1
0
APPID
5
17
330
7
100
AcDbSymbolTableRecord
100
AcDbRegAppTableRecord
2
ACAD
70
0
0
ENDTAB
0
TABLE
2
DIMSTYLE
5
8
330
0
100
AcDbSymbolTable
70
1
100
AcDbDimStyleTable
0
DIMSTYLE
105
18
330
8
100
AcDbSymbolTableRecord
100
AcDbDimStyleTableRecord
2
Standard
70
0
340
16
0
ENDTAB
0
TABLE
2
BLOCK_RECORD
5
9
330
0
100
AcDbSymbolTable
70
2
0
BLOCK_RECORD
5
C
330
9
100
AcDbSymbolTableRecord
100
AcDbBlockTableRecord
2
*Model_Space
70
0
280
1
281
0
0
BLOCK_RECORD
5
F
330
9
100
AcDbSymbolTableRecord
100
AcDbBlockTableRecord
2
*Paper_Space
70
0
280
1
281
0
0
ENDTAB
0
ENDSEC
0
SECTION
2
BLOCKS
0
BLOCK
5
D
330
C
100
AcDbEntity
8
0
100
AcDbBlockBegin
2
*Model_Space
70
0
10
0
20
0
30
0
3
*Model_Space
1

0
ENDBLK
5
E
100
AcDbEntity
8
0
100
AcDbBlockEnd
0
BLOCK
5
10
330
F
100
AcDbEntity
8
0
100
AcDbBlockBegin
2
*Paper_Space
70
0
10
0
20
0
30
0
3
*Paper_Space
1

0
ENDBLK
5
11
100
AcDbEntity
8
0
100
AcDbBlockEnd
0
ENDSEC
0
SECTION
2
ENTITIES
0
LWPOLYLINE
5
1A
330
C
100
AcDbEntity
420
0
8
0
100
AcDbPolyline
90
5
70
0
43
0
38
0
39
0
10
80
20
580
10
162
20
580
10
162
20
458
10
80
20
458
10
80
20
580
0
IMAGE
5
1C
330
C
100
AcDbEntity
8
0
100
AcDbRasterImage
90
0
10
81
20
573.4000015258789
30
0
11
1
21
0
31
0
12
0
22
1
32
0
13
20
23
20
340
1B
70
3
280
1
281
50
282
50
283
0
360
1D
71
1
91
2
14
-0.5
24
-0.5
14
19.5
24
19.5
290
1
0
LWPOLYLINE
5
1F
330
C
100
AcDbEntity
420
0
8
0
100
AcDbPolyline
90
33
70
0
43
0
38
0
39
0
10
178.72697602265953
20
574.4999911380266
10
178.621102789259
20
573.4806401898526
10
178.3075517380426
20
572.5004623269582
10
177.79837246006716
20
571.5971252349245
10
177.1131324294342
20
570.8053436516011
10
176.2781650362339
20
570.1555452991988
10
175.32555760913186
20
569.6727015639894
10
174.29191831732325
20
569.3753678599352
10
173.21696933912062
20
569.274970554536
10
172.142020360918
20
569.3753678599352
10
171.10838106910938
20
569.6727015639894
10
170.15577364200735
20
570.1555452991988
10
169.32080624880706
20
570.8053436516011
10
168.6355662181741
20
571.5971252349245
10
168.12638694019864
20
572.5004623269582
10
167.81283588898225
20
573.4806401898526
10
167.70696265558172
20
574.4999911380266
10
167.81283588898225
20
575.5193420862007
10
168.12638694019864
20
576.4995199490951
10
168.6355662181741
20
577.4028570411288
10
169.32080624880706
20
578.1946386244522
10
170.15577364200735
20
578.8444369768545
10
171.10838106910936
20
579.3272807120638
10
172.142020360918
20
579.6246144161181
10
173.21696933912062
20
579.7250117215173
10
174.29191831732325
20
579.6246144161181
10
175.3255576091319
20
579.3272807120638
10
176.2781650362339
20
578.8444369768545
10
177.1131324294342
20
578.1946386244522
10
177.79837246006716
20
577.4028570411288
10
178.3075517380426
20
576.4995199490951
10
178.621102789259
20
575.5193420862007
10
178.72697602265953
20
574.4999911380266
0
LWPOLYLINE
5
20
330
C
100
AcDbEntity
420
0
8
0
100
AcDbPolyline
90
305
70
0
43
0
38
0
39
0
10
158.14283048515995
20
574.2291214404831
10
158.14283048515995
20
570.9408121123561
10
158.08543880174057
20
569.3131197140319
10
157.96912709887738
20
569.390270103584
10
157.85281450744674
20
569.4674330501657
10
157.7365019160161
20
569.5445834397178
10
157.62018932458545
20
569.6217463862995
10
157.50387762172227
20
569.6989093328812
10
157.38756503029163
20
569.7760597224333
10
157.2712528831447
20
569.8532226690149
10
157.15494029171407
20
569.930373058567
10
157.03862814456716
20
570.0075360051487
10
156.9223155531365
20
570.0846863947008
10
156.8060034059896
20
570.1618493412825
10
156.68969125884269
20
570.2389997308346
10
156.57337866741204
20
570.3161626774163
10
156.45706652026513
20
570.3933130669684
10
156.3407539288345
20
570.4704760135501
10
156.22444178168757
20
570.5476264031022
10
156.10812919025693
20
570.6247893496839
10
155.99181704311002
20
570.7019522962655
10
155.8755048959631
20
570.7791026858176
10
155.75919230453246
20
570.8562656323993
10
155.64288015738555
20
570.9334160219514
10
155.52656801023863
20
571.0105789685331
10
155.410255418808
20
571.0877293580852
10
155.29394327166108
20
571.1648923046669
10
155.17763112451416
20
571.242042694219
10
155.06131853308352
20
571.3192056408006
10
154.94500594165288
20
571.3963560303528
10
154.82869379450597
20
571.4735189769344
10
154.71238164735905
20
571.5506693664865
10
154.5960690559284
20
571.6278323130682
10
154.4797569087815
20
571.7049827026203
10
154.36344431735085
20
571.782145649202
10
154.24713217020394
20
571.8593085957837
10
154.1308195787733
20
571.9364589853358
10
154.01450743162638
20
572.0136219319174
10
153.89819528447947
20
572.0907723214696
10
153.78188313733256
20
572.1679352680512
10
153.66557054590191
20
572.2450856576033
10
153.549258398755
20
572.322248604185
10
153.43294580732436
20
572.3993989937371
10
153.31663366017744
20
572.4765619403188
10
153.2003210687468
20
572.5537123298709
10
153.0840089215999
20
572.6308752764526
10
152.96769677445297
20
572.7080256660047
10
152.85138462730606
20
572.7851886125864
10
152.73507203587542
20
572.8623390021385
10
152.6187598887285
20
572.9395019487201
10
152.50244729729786
20
573.0166648953018
10
152.38613515015095
20
573.0938152848539
10
152.2698225587203
20
573.1709782314356
10
152.1535104115734
20
573.2481286209877
10
152.03719782014275
20
573.3252915675694
10
151.92088611727957
20
573.4024419571215
10
151.80457352584892
20
573.4796049037031
10
151.68826093441828
20
573.5567552932553
10
151.57194878727137
20
573.6339182398369
10
151.45563619584073
20
573.711068629389
10
151.3393240486938
20
573.7882315759707
10
151.22301145726317
20
573.8653819655228
10
151.10669931011626
20
573.9425449121045
10
150.9903867186856
20
574.0197078586862
10
150.87407501582243
20
574.0968582482383
10
150.7577628686755
20
574.1740211948199
10
150.64144983296114
20
574.2511715843721
10
150.5251372415305
20
574.3283345309537
10
150.40882465009986
20
574.4054849205058
10
150.29251383580413
20
574.4826478670875
10
150.3593724279713
20
574.5598233706987
10
150.47568496386646
20
574.6369988743099
10
150.59199749976165
20
574.7141869349507
10
150.7083090915539
20
574.7913624385619
10
150.82462168298454
20
574.8685504992027
10
150.94093416334425
20
574.9457260028139
10
151.0572467547749
20
575.0229140634547
10
151.17355834656715
20
575.1000895670659
10
151.28987082692686
20
575.1772776277066
10
151.4061834183575
20
575.2544531313179
10
151.5224958987172
20
575.3316411919586
10
151.63880749050946
20
575.4088166955698
10
151.7551200819401
20
575.4860047562106
10
151.87143267337075
20
575.5631802598218
10
151.9877452648014
20
575.6403683204626
10
152.10405763409017
20
575.7175438240738
10
152.22036933695335
20
575.7947318847146
10
152.336681928384
20
575.8719073883258
10
152.45299429767277
20
575.9490954489665
10
152.56930688910342
20
576.0262709525778
10
152.6856185919666
20
576.1034590132185
10
152.80193096125538
20
576.1806345168297
10
152.91824355268602
20
576.2578225774705
10
153.03455614411666
20
576.3349980810817
10
153.15086784697985
20
576.4121735846929
10
153.26718021626863
20
576.4893616453337
10
153.38349280769927
20
576.5665371489449
10
153.4998053991299
20
576.6437252095857
10
153.61611687985123
20
576.7209007131969
10
153.73242947128188
20
576.7980887738377
10
153.84874206271252
20
576.8752642774489
10
153.96505465414316
20
576.9524523380896
10
154.08136635700635
20
577.0296278417009
10
154.19767850415326
20
577.1068159023416
10
154.3139910955839
20
577.1839914059528
10
154.43030368701454
20
577.2611794665936
10
154.54661538987773
20
577.3383549702048
10
154.66292798130837
20
577.4155430308456
10
154.779240572739
20
577.4927185344568
10
154.89555316416966
20
577.5699065950976
10
155.0118644227491
20
577.6470820987088
10
155.12817701417976
20
577.7242701593495
10
155.2444896056104
20
577.8014456629608
10
155.36080219704104
20
577.8786337236015
10
155.47711478847168
20
577.9558092272127
10
155.59342649133487
20
578.0329972878535
10
155.7097390827655
20
578.1101727914647
10
155.82605122991242
20
578.1873608521055
10
155.94236382134306
20
578.2645363557167
10
156.05867552420625
20
578.3417244163575
10
156.1749881156369
20
578.4188999199687
10
156.29130070706753
20
578.4960879806094
10
156.40761329849818
20
578.5732634842207
10
156.52392500136136
20
578.6504515448614
10
156.64023714850828
20
578.7276270484726
10
156.75654973993892
20
578.8048025520839
10
156.87286233136956
20
578.8819906127246
10
156.98917403423275
20
578.9591661163358
10
157.1054866256634
20
579.0363541769766
10
157.22179921709403
20
579.1135296805878
10
157.33811180852467
20
579.1907177412286
10
157.45442528852277
20
579.2678932448398
10
157.57073521425104
20
579.3450813054806
10
157.68704869424914
20
579.4222568090918
10
157.80336217424724
20
579.4994448697325
10
157.91967209997551
20
579.5766203733438
10
158.0359855799736
20
579.6538084339845
10
158.14283048515995
20
579.4570146668848
10
158.14283048515995
20
576.168780680935
10
158.2097067376053
20
574.7706182257461
10
158.32605220603182
20
574.7706182257461
10
158.44239767445833
20
574.7706182257461
10
158.55873958861503
20
574.7706182257461
10
158.67508505704154
20
574.7706182257461
10
158.79143052546806
20
574.7706182257461
10
158.90777243962475
20
574.7706182257461
10
159.02411790805127
20
574.7706182257461
10
159.14046337647778
20
574.7706182257461
10
159.25680529063447
20
574.7706182257461
10
159.373150759061
20
574.7706182257461
10
159.4894962274875
20
574.7706182257461
10
159.6058381416442
20
574.7706182257461
10
159.72218361007072
20
574.7706182257461
10
159.83852907849723
20
574.7706182257461
10
159.95487099265392
20
574.7706182257461
10
160.07121646108044
20
574.7706182257461
10
160.18756192950696
20
574.7706182257461
10
160.30390739793347
20
574.7706182257461
10
160.42024931209016
20
574.7706182257461
10
160.53659478051668
20
574.7706182257461
10
160.6529402489432
20
574.7706182257461
10
160.7692821630999
20
574.7706182257461
10
160.8856276315264
20
574.7706182257461
10
161.00197309995292
20
574.7706182257461
10
161.1183150141096
20
574.7706182257461
10
161.23466048253613
20
574.7706182257461
10
161.35100595096264
20
574.7706182257461
10
161.46734786511934
20
574.7706182257461
10
161.58369333354585
20
574.7706182257461
10
161.70003880197237
20
574.7706182257461
10
161.81638427039888
20
574.7706182257461
10
161.93272618455558
20
574.7706182257461
10
162.0490716529821
20
574.7706182257461
10
162.1654171214086
20
574.7706182257461
10
162.2817590355653
20
574.7706182257461
10
162.39810450399182
20
574.7706182257461
10
162.51444997241833
20
574.7706182257461
10
162.63079188657503
20
574.7706182257461
10
162.74713735500154
20
574.7706182257461
10
162.86348282342806
20
574.7706182257461
10
162.97982473758475
20
574.7706182257461
10
163.09617020601127
20
574.7706182257461
10
163.21251567443778
20
574.7706182257461
10
163.32885758859447
20
574.7706182257461
10
163.445203057021
20
574.7706182257461
10
163.5615485254475
20
574.7706182257461
10
163.67789399387402
20
574.7706182257461
10
163.7942359080307
20
574.7706182257461
10
163.91058137645723
20
574.7706182257461
10
164.02692684488375
20
574.7706182257461
10
164.14326875904044
20
574.7706182257461
10
164.25961422746695
20
574.7706182257461
10
164.37595969589347
20
574.7706182257461
10
164.49230161005016
20
574.7706182257461
10
164.60864707847668
20
574.7706182257461
10
164.7249925469032
20
574.7706182257461
10
164.8413344610599
20
574.7706182257461
10
164.9576799294864
20
574.7706182257461
10
165.07402539791292
20
574.7706182257461
10
165.19037086633944
20
574.7706182257461
10
165.30671278049613
20
574.7706182257461
10
165.42305824892264
20
574.7706182257461
10
165.53940371734916
20
574.7706182257461
10
165.65574563150585
20
574.7706182257461
10
165.77209109993237
20
574.7706182257461
10
165.88843656835888
20
574.7706182257461
10
166.00477848251558
20
574.7706182257461
10
166.1211239509421
20
574.7706182257461
10
166.2374694193686
20
574.7706182257461
10
166.3538113335253
20
574.7706182257461
10
166.47015680195182
20
574.7706182257461
10
166.58650227037833
20
574.7706182257461
10
166.70284418453502
20
574.7706182257461
10
166.81918965296154
20
574.7706182257461
10
166.93553512138806
20
574.7706182257461
10
167.05188058981457
20
574.7706182257461
10
167.16822250397126
20
574.7706182257461
10
167.28456797239778
20
574.7706182257461
10
167.4009134408243
20
574.7706182257461
10
167.517255354981
20
574.7706182257461
10
167.6336008234075
20
574.7706182257461
10
167.6830655965514
20
574.2291214404831
10
167.5667236823947
20
574.2291214404831
10
167.45037821396818
20
574.2291214404831
10
167.33403274554166
20
574.2291214404831
10
167.21769083138497
20
574.2291214404831
10
167.10134536295845
20
574.2291214404831
10
166.98499989453194
20
574.2291214404831
10
166.86865442610542
20
574.2291214404831
10
166.75231251194873
20
574.2291214404831
10
166.63596704352221
20
574.2291214404831
10
166.5196215750957
20
574.2291214404831
10
166.403279660939
20
574.2291214404831
10
166.2869341925125
20
574.2291214404831
10
166.17058872408597
20
574.2291214404831
10
166.05424680992928
20
574.2291214404831
10
165.93790134150277
20
574.2291214404831
10
165.82155587307625
20
574.2291214404831
10
165.70521395891956
20
574.2291214404831
10
165.58886849049304
20
574.2291214404831
10
165.47252302206653
20
574.2291214404831
10
165.35618110790983
20
574.2291214404831
10
165.23983563948332
20
574.2291214404831
10
165.1234901710568
20
574.2291214404831
10
165.00714470263028
20
574.2291214404831
10
164.8908027884736
20
574.2291214404831
10
164.77445732004708
20
574.2291214404831
10
164.65811185162056
20
574.2291214404831
10
164.54176993746387
20
574.2291214404831
10
164.42542446903735
20
574.2291214404831
10
164.30907900061084
20
574.2291214404831
10
164.19273708645414
20
574.2291214404831
10
164.07639161802763
20
574.2291214404831
10
163.9600461496011
20
574.2291214404831
10
163.84370423544442
20
574.2291214404831
10
163.7273587670179
20
574.2291214404831
10
163.6110132985914
20
574.2291214404831
10
163.4946713844347
20
574.2291214404831
10
163.37832591600818
20
574.2291214404831
10
163.26198044758166
20
574.2291214404831
10
163.14563853342497
20
574.2291214404831
10
163.02929306499846
20
574.2291214404831
10
162.91294759657194
20
574.2291214404831
10
162.79660568241525
20
574.2291214404831
10
162.68026021398873
20
574.2291214404831
10
162.56391474556222
20
574.2291214404831
10
162.44757283140552
20
574.2291214404831
10
162.331227362979
20
574.2291214404831
10
162.2148818945525
20
574.2291214404831
10
162.09853642612597
20
574.2291214404831
10
161.98219451196928
20
574.2291214404831
10
161.86584904354277
20
574.2291214404831
10
161.74950357511625
20
574.2291214404831
10
161.63316166095956
20
574.2291214404831
10
161.51681619253304
20
574.2291214404831
10
161.40047072410653
20
574.2291214404831
10
161.28412880994983
20
574.2291214404831
10
161.16778334152332
20
574.2291214404831
10
161.0514378730968
20
574.2291214404831
10
160.9350959589401
20
574.2291214404831
10
160.8187504905136
20
574.2291214404831
10
160.70240502208708
20
574.2291214404831
10
160.58605955366056
20
574.2291214404831
10
160.46971763950387
20
574.2291214404831
10
160.35337217107735
20
574.2291214404831
10
160.23702670265084
20
574.2291214404831
10
160.12068478849415
20
574.2291214404831
10
160.00433932006763
20
574.2291214404831
10
159.8879938516411
20
574.2291214404831
10
159.77165193748442
20
574.2291214404831
10
159.6553064690579
20
574.2291214404831
10
159.5389610006314
20
574.2291214404831
10
159.4226190864747
20
574.2291214404831
10
159.30627361804818
20
574.2291214404831
10
159.18992814962166
20
574.2291214404831
10
159.07358623546497
20
574.2291214404831
10
158.95724076703846
20
574.2291214404831
10
158.84089529861194
20
574.2291214404831
10
158.72454983018542
20
574.2291214404831
10
158.60820791602873
20
574.2291214404831
10
158.49186244760222
20
574.2291214404831
10
158.3755169791757
20
574.2291214404831
10
158.259175065019
20
574.2291214404831
10
158.14283048515995
20
574.2291214404831
10
158.14283048515995
20
574.2291214404831
0
LWPOLYLINE
5
21
330
C
100
AcDbEntity
420
0
8
0
100
AcDbPolyline
90
5
70
0
43
0
38
0
39
0
10
150.13944320080134
20
579.7249998905463
10
150.66139231448057
20
579.7249998905463
10
150.66139231448057
20
569.274997155002
10
150.13944320080134
20
569.274997155002
10
150.13944320080134
20
579.7249998905463
0
LWPOLYLINE
5
22
330
C
100
AcDbEntity
420
0
8
0
100
AcDbPolyline
90
65
70
0
43
0
38
0
39
0
10
145
20
505
10
146.39163208007812
20
505.0993194580078
10
147.7838897705078
20
505.1892547607422
10
149.17674255371094
20
505.2698516845703
10
150.57005310058594
20
505.34161376953125
10
151.9637908935547
20
505.40484619140625
10
153.35787963867188
20
505.4597930908203
10
154.75225830078125
20
505.50665283203125
10
156.14688110351562
20
505.54579162597656
10
157.5417022705078
20
505.57745361328125
10
158.93666076660156
20
505.60186767578125
10
160.3317108154297
20
505.6192626953125
10
161.7268524169922
20
505.6298522949219
10
163.12200927734375
20
505.6338348388672
10
164.51718139648438
20
505.6313018798828
10
165.91232299804688
20
505.62257385253906
10
167.3074188232422
20
505.6078338623047
10
168.7024383544922
20
505.58726501464844
10
170.09735107421875
20
505.56085205078125
10
171.49217224121094
20
505.5289611816406
10
172.8868408203125
20
505.49163818359375
10
174.28135681152344
20
505.4490051269531
10
175.6757049560547
20
505.4013214111328
10
177.06988525390625
20
505.34852600097656
10
178.4638671875
20
505.2909393310547
10
179.85763549804688
20
505.2285919189453
10
181.25120544433594
20
505.1615447998047
10
182.64454650878906
20
505.090087890625
10
184.0376434326172
20
505.0140686035156
10
185.4304962158203
20
504.9337921142578
10
186.8231201171875
20
504.84934997558594
10
188.21546936035156
20
504.76075744628906
10
189.60755920410156
20
504.66807556152344
10
190.9993896484375
20
504.5715026855469
10
192.3909454345703
20
504.4710998535156
10
193.7822265625
20
504.366943359375
10
195.1732177734375
20
504.2591094970703
10
196.56393432617188
20
504.14759826660156
10
197.95436096191406
20
504.0325622558594
10
199.344482421875
20
503.91407775878906
10
200.73431396484375
20
503.7922058105469
10
202.12387084960938
20
503.66700744628906
10
203.5131072998047
20
503.53855895996094
10
204.9020538330078
20
503.40692138671875
10
206.2906951904297
20
503.2721710205078
10
207.67904663085938
20
503.13433837890625
10
209.0670928955078
20
502.9934997558594
10
210.454833984375
20
502.84971618652344
10
211.84226989746094
20
502.7030029296875
10
213.2294158935547
20
502.55340576171875
10
214.61622619628906
20
502.40101623535156
10
216.00274658203125
20
502.24591064453125
10
217.3889617919922
20
502.0881042480469
10
218.77488708496094
20
501.9276885986328
10
220.16050720214844
20
501.7646484375
10
221.54579162597656
20
501.59898376464844
10
222.93080139160156
20
501.4308166503906
10
224.31549072265625
20
501.2602233886719
10
225.6999053955078
20
501.0872344970703
10
227.083984375
20
500.9117126464844
10
228.4677734375
20
500.7339172363281
10
229.85128784179688
20
500.5538635253906
10
231.23448181152344
20
500.3714141845703
10
232.6173858642578
20
500.18675231933594
10
234
20
500
0
LWPOLYLINE
5
23
330
C
100
AcDbEntity
420
0
8
0
100
AcDbPolyline
90
65
70
0
43
0
38
0
39
0
10
145
20
505
10
146.39163208007812
20
505.0993194580078
10
147.7838897705078
20
505.1892547607422
10
149.17674255371094
20
505.2698516845703
10
150.57005310058594
20
505.34161376953125
10
151.9637908935547
20
505.40484619140625
10
153.35787963867188
20
505.4597930908203
10
154.75225830078125
20
505.50665283203125
10
156.14688110351562
20
505.54579162597656
10
157.5417022705078
20
505.57745361328125
10
158.93666076660156
20
505.60186767578125
10
160.3317108154297
20
505.6192626953125
10
161.7268524169922
20
505.6298522949219
10
163.12200927734375
20
505.6338348388672
10
164.51718139648438
20
505.6313018798828
10
165.91232299804688
20
505.62257385253906
10
167.3074188232422
20
505.6078338623047
10
168.7024383544922
20
505.58726501464844
10
170.09735107421875
20
505.56085205078125
10
171.49217224121094
20
505.5289611816406
10
172.8868408203125
20
505.49163818359375
10
174.28135681152344
20
505.4490051269531
10
175.6757049560547
20
505.4013214111328
10
177.06988525390625
20
505.34852600097656
10
178.4638671875
20
505.2909393310547
10
179.85763549804688
20
505.2285919189453
10
181.25120544433594
20
505.1615447998047
10
182.64454650878906
20
505.090087890625
10
184.0376434326172
20
505.0140686035156
10
185.4304962158203
20
504.9337921142578
10
186.8231201171875
20
504.84934997558594
10
188.21546936035156
20
504.76075744628906
10
189.60755920410156
20
504.66807556152344
10
190.9993896484375
20
504.5715026855469
10
192.3909454345703
20
504.4710998535156
10
193.7822265625
20
504.366943359375
10
195.1732177734375
20
504.2591094970703
10
196.56393432617188
20
504.14759826660156
10
197.95436096191406
20
504.0325622558594
10
199.344482421875
20
503.91407775878906
10
200.73431396484375
20
503.7922058105469
10
202.12387084960938
20
503.66700744628906
10
203.5131072998047
20
503.53855895996094
10
204.9020538330078
20
503.40692138671875
10
206.2906951904297
20
503.2721710205078
10
207.67904663085938
20
503.13433837890625
10
209.0670928955078
20
502.9934997558594
10
210.454833984375
20
502.84971618652344
10
211.84226989746094
20
502.7030029296875
10
213.2294158935547
20
502.55340576171875
10
214.61622619628906
20
502.40101623535156
10
216.00274658203125
20
502.24591064453125
10
217.3889617919922
20
502.0881042480469
10
218.77488708496094
20
501.9276885986328
10
220.16050720214844
20
501.7646484375
10
221.54579162597656
20
501.59898376464844
10
222.93080139160156
20
501.4308166503906
10
224.31549072265625
20
501.2602233886719
10
225.6999053955078
20
501.0872344970703
10
227.083984375
20
500.9117126464844
10
228.4677734375
20
500.7339172363281
10
229.85128784179688
20
500.5538635253906
10
231.23448181152344
20
500.3714141845703
10
232.6173858642578
20
500.18675231933594
10
234
20
500
0
HATCH
5
24
330
C
100
AcDbEntity
420
0
8
0
100
AcDbHatch
10
0
20
0
30
0
210
0
220
0
230
1
2
SOLID
70
1
71
0
91
1
92
7
72
0
73
1
93
33
10
222.91112918666414
20
507.552280720759
10
223.60418361249762
20
507.08026317571154
10
224.2972380383311
20
506.6082456306641
10
224.9902924641646
20
506.13622808561666
10
225.6833468899981
20
505.66421054056923
10
226.37640131583157
20
505.1921929955218
10
227.06945574166508
20
504.72017545047436
10
227.76250963874
20
504.2481582655478
10
228.45556459333204
20
503.7761403603795
10
229.14861901916555
20
503.30412281533205
10
229.84167344499903
20
502.8321052702846
10
230.53472734207398
20
502.36008808535803
10
231.22778229666605
20
501.88807018018974
10
231.92083672249953
20
501.4160526351423
10
232.6138900908159
20
500.94403581033646
10
233.30694557416652
20
500.47201754504744
10
234
20
500
10
233.20655329410073
20
499.72876688003885
10
232.41310658820146
20
499.4575337600777
10
231.61965994453416
20
499.1863011008488
10
230.82621323384782
20
498.91506794544665
10
230.03276652316146
20
498.64383479004454
10
229.23932045612352
20
498.3726021251044
10
228.44587255388188
20
498.1013686975973
10
227.65242646769565
20
497.83013589089336
10
226.85898098686118
20
497.5589032911238
10
226.06553247926777
20
497.2876696566823
10
225.2720869984333
20
497.0164370569127
10
224.47864091224702
20
496.74520425020876
10
223.68519301000543
20
496.4739708227017
10
222.89174752917097
20
496.2027382229321
10
222.09829962692933
20
495.931504795425
10
221.3048529353913
20
495.66027178178666
97
0
75
1
76
1
47
1
98
0
0
LWPOLYLINE
5
25
330
C
100
AcDbEntity
420
0
8
0
100
AcDbPolyline
90
34
70
0
43
0
38
0
39
0
10
222.91112918666414
20
507.552280720759
10
223.60418361249762
20
507.08026317571154
10
224.2972380383311
20
506.6082456306641
10
224.9902924641646
20
506.13622808561666
10
225.6833468899981
20
505.66421054056923
10
226.37640131583157
20
505.1921929955218
10
227.06945574166508
20
504.72017545047436
10
227.76250963874
20
504.2481582655478
10
228.45556459333204
20
503.7761403603795
10
229.14861901916555
20
503.30412281533205
10
229.84167344499903
20
502.8321052702846
10
230.53472734207398
20
502.36008808535803
10
231.22778229666605
20
501.88807018018974
10
231.92083672249953
20
501.4160526351423
10
232.6138900908159
20
500.94403581033646
10
233.30694557416652
20
500.47201754504744
10
234
20
500
10
233.20655329410073
20
499.72876688003885
10
232.41310658820146
20
499.4575337600777
10
231.61965994453416
20
499.1863011008488
10
230.82621323384782
20
498.91506794544665
10
230.03276652316146
20
498.64383479004454
10
229.23932045612352
20
498.3726021251044
10
228.44587255388188
20
498.1013686975973
10
227.65242646769565
20
497.83013589089336
10
226.85898098686118
20
497.5589032911238
10
226.06553247926777
20
497.2876696566823
10
225.2720869984333
20
497.0164370569127
10
224.47864091224702
20
496.74520425020876
10
223.68519301000543
20
496.4739708227017
10
222.89174752917097
20
496.2027382229321
10
222.09829962692933
20
495.931504795425
10
221.3048529353913
20
495.66027178178666
10
222.91112918666414
20
507.552280720759
0
ENDSEC
0
SECTION
2
OBJECTS
0
DICTIONARY
5
A
330
0
100
AcDbDictionary
281
1
3
ACAD_GROUP
350
B
3
ACAD_IMAGE_DICT
350
1E
0
DICTIONARY
5
B
330
A
100
AcDbDictionary
281
0
0
IMAGEDEF
5
1B
330
1E
102
{ACAD_REACTORS
330
1E
330
1D
102
}
100
AcDbRasterImageDef
1
images/image1.jpg
10
20
20
20
11
1
21
1
280
1
281
0
0
IMAGEDEF_REACTOR
5
1D
330
0
100
AcDbRasterImageDefReactor
90
2
330
1C
0
DICTIONARY
5
1E
330
A
100
AcDbDictionary
281
0
3
image1
350
1B
0
ENDSEC
0
EOF