0
SECTION
2
HEADER
9
$ACADVER
1
AC1021
9
$LASTSAVEDBY
1
@tarikjabiri/dxf
9
$HANDSEED
5
24
9
$INSUNITS
70
0
9
$CLAYER
8
0
9
$VIEWCTR
10
158.50781220912933
20
823.75
0
ENDSEC
0
SECTION
2
CLASSES
0
ENDSEC
0
SECTION
2
TABLES
0
TABLE
2
VPORT
5
1
330
0
100
AcDbSymbolTable
70
1
0
VPORT
5
19
330
1
100
AcDbSymbolTableRecord
100
AcDbViewportTableRecord
2
*Active
70
0
10
0
20
0
11
1
21
1
12
158.50781220912933
22
823.75
13
0
23
0
14
10
24
10
15
10
25
10
16
0
26
0
36
1
17
0
27
0
37
0
40
1847.5
41
2
42
50
43
0
44
0
50
0
51
0
71
0
72
100
73
1
74
3
75
0
76
1
77
0
78
0
281
0
65
1
110
0
120
0
130
0
111
1
121
0
131
0
112
0
122
1
132
0
79
0
146
0
348
10020
60
7
61
5
292
1
282
1
141
0
142
0
63
250
421
3358443
0
ENDTAB
0
TABLE
2
LTYPE
5
2
330
0
100
AcDbSymbolTable
70
3
0
LTYPE
5
12
330
2
100
AcDbSymbolTableRecord
100
AcDbLinetypeTableRecord
2
ByBlock
70
0
3

72
65
73
0
40
0
0
LTYPE
5
13
330
2
100
AcDbSymbolTableRecord
100
AcDbLinetypeTableRecord
2
ByLayer
70
0
3

72
65
73
0
40
0
0
LTYPE
5
14
330
2
100
AcDbSymbolTableRecord
100
AcDbLinetypeTableRecord
2
Continuous
70
0
3
Solid line
72
65
73
0
40
0
0
ENDTAB
0
TABLE
2
LAYER
5
3
330
0
100
AcDbSymbolTable
70
1
0
LAYER
5
15
330
3
100
AcDbSymbolTableRecord
100
AcDbLayerTableRecord
2
0
70
0
62
7
6
Continuous
370
0
390
0
0
ENDTAB
0
TABLE
2
STYLE
5
4
330
0
100
AcDbSymbolTable
70
2
0
STYLE
5
16
330
4
100
AcDbSymbolTableRecord
100
AcDbTextStyleTableRecord
2
Standard
70
0
40
0
41
1
50
0
71
0
42
1
3
txt
4

0
STYLE
5
1B
330
4
100
AcDbSymbolTableRecord
100
AcDbTextStyleTableRecord
2
Times New Roman
70
0
40
0
41
1
50
0
71
0
42
1
3
Times New Roman.ttf
4

0
ENDTAB
0
TABLE
2
VIEW
5
5
330
0
100
AcDbSymbolTable
70
0
0
ENDTAB
0
TABLE
2
UCS
5
6
330
0
100
AcDbSymbolTable
70
0
0
ENDTAB
0
TABLE
2
APPID
5
7
330
0
100
AcDbSymbolTable
70
1
0
APPID
5
17
330
7
100
AcDbSymbolTableRecord
100
AcDbRegAppTableRecord
2
ACAD
70
0
0
ENDTAB
0
TABLE
2
DIMSTYLE
5
8
330
0
100
AcDbSymbolTable
70
1
100
AcDbDimStyleTable
0
DIMSTYLE
105
18
330
8
100
AcDbSymbolTableRecord
100
AcDbDimStyleTableRecord
2
Standard
70
0
340
16
0
ENDTAB
0
TABLE
2
BLOCK_RECORD
5
9
330
0
100
AcDbSymbolTable
70
2
0
BLOCK_RECORD
5
C
330
9
100
AcDbSymbolTableRecord
100
AcDbBlockTableRecord
2
*Model_Space
70
0
280
1
281
0
0
BLOCK_RECORD
5
F
330
9
100
AcDbSymbolTableRecord
100
AcDbBlockTableRecord
2
*Paper_Space
70
0
280
1
281
0
0
ENDTAB
0
ENDSEC
0
SECTION
2
BLOCKS
0
BLOCK
5
D
330
C
100
AcDbEntity
8
0
100
AcDbBlockBegin
2
*Model_Space
70
0
10
0
20
0
30
0
3
*Model_Space
1

0
ENDBLK
5
E
100
AcDbEntity
8
0
100
AcDbBlockEnd
0
BLOCK
5
10
330
F
100
AcDbEntity
8
0
100
AcDbBlockBegin
2
*Paper_Space
70
0
10
0
20
0
30
0
3
*Paper_Space
1

0
ENDBLK
5
11
100
AcDbEntity
8
0
100
AcDbBlockEnd
0
ENDSEC
0
SECTION
2
ENTITIES
0
TEXT
5
1A
330
C
100
AcDbEntity
420
0
8
0
100
AcDbText
10
0
20
1647.5
30
0
40
16
1
headerABC
7
Times New Roman
100
AcDbText
0
TEXT
5
1C
330
C
100
AcDbEntity
420
0
8
0
100
AcDbText
10
-20
20
1418.21875
30
0
40
160
1
0,5
7
Times New Roman
100
AcDbText
0
LWPOLYLINE
5
1D
330
C
100
AcDbEntity
420
0
8
0
100
AcDbPolyline
90
5
70
0
43
0
38
0
39
0
10
71
20
1525
10
161
20
1525
10
161
20
1393
10
71
20
1393
10
71
20
1525
0
TEXT
5
1E
330
C
100
AcDbEntity
420
0
8
0
100
AcDbText
10
154.01562441825865
20
1481.4429686566814
30
0
40
10.134375
1
0
7
Times New Roman
100
AcDbText
0
LWPOLYLINE
5
1F
330
C
100
AcDbEntity
420
0
8
0
100
AcDbPolyline
90
5
70
0
43
0
38
0
39
0
10
254
20
1525
10
344
20
1525
10
344
20
1393
10
254
20
1393
10
254
20
1525
0
TEXT
5
20
330
C
100
AcDbEntity
420
0
8
0
100
AcDbText
10
337.01562441825865
20
1481.4429686566814
30
0
40
10.134375
1
0
7
Times New Roman
100
AcDbText
0
LWPOLYLINE
5
21
330
C
100
AcDbEntity
420
0
8
0
100
AcDbPolyline
90
65
70
0
43
0
38
0
39
0
10
144
20
1460
10
145.9188690185547
20
1459.5466003417969
10
147.8408660888672
20
1459.1066284179688
10
149.7659149169922
20
1458.68017578125
10
151.69390869140625
20
1458.267318725586
10
153.62478637695312
20
1457.8681335449219
10
155.5584716796875
20
1457.4827270507812
10
157.49485778808594
20
1457.1111602783203
10
159.43385314941406
20
1456.7535095214844
10
161.37538146972656
20
1456.4098663330078
10
163.31935119628906
20
1456.0802764892578
10
165.2656707763672
20
1455.7648315429688
10
167.2142333984375
20
1455.4635925292969
10
169.16494750976562
20
1455.1766204833984
10
171.11770629882812
20
1454.9039916992188
10
173.0724334716797
20
1454.645736694336
10
175.0290069580078
20
1454.4019317626953
10
176.98733520507812
20
1454.172622680664
10
178.94732666015625
20
1453.9578704833984
10
180.90884399414062
20
1453.7577209472656
10
182.87181091308594
20
1453.5722045898438
10
184.8361053466797
20
1453.401382446289
10
186.8016357421875
20
1453.2452697753906
10
188.7682647705078
20
1453.1039123535156
10
190.73590087890625
20
1452.9773559570312
10
192.70445251464844
20
1452.8656158447266
10
194.6737823486328
20
1452.7687072753906
10
196.64378356933594
20
1452.6866760253906
10
198.61434936523438
20
1452.6195220947266
10
200.58535766601562
20
1452.5672607421875
10
202.5567169189453
20
1452.5299224853516
10
204.52830505371094
20
1452.5074920654297
10
206.5
20
1452.5
10
208.47169494628906
20
1452.5074920654297
10
210.4432830810547
20
1452.5299224853516
10
212.41464233398438
20
1452.5672607421875
10
214.3856658935547
20
1452.6195220947266
10
216.35623168945312
20
1452.6866760253906
10
218.32623291015625
20
1452.7687072753906
10
220.29556274414062
20
1452.8656158447266
10
222.26409912109375
20
1452.9773559570312
10
224.23175048828125
20
1453.1039123535156
10
226.19839477539062
20
1453.2452697753906
10
228.16390991210938
20
1453.401382446289
10
230.12820434570312
20
1453.5722045898438
10
232.09115600585938
20
1453.7577209472656
10
234.0526885986328
20
1453.9578704833984
10
236.01266479492188
20
1454.172622680664
10
237.9709930419922
20
1454.4019317626953
10
239.92758178710938
20
1454.645736694336
10
241.88230895996094
20
1454.9039916992188
10
243.83506774902344
20
1455.1766204833984
10
245.78578186035156
20
1455.4635925292969
10
247.73434448242188
20
1455.7648315429688
10
249.68064880371094
20
1456.0802764892578
10
251.62461853027344
20
1456.4098663330078
10
253.56614685058594
20
1456.7535095214844
10
255.50515747070312
20
1457.1111602783203
10
257.4415283203125
20
1457.4827270507812
10
259.3752136230469
20
1457.8681335449219
10
261.30609130859375
20
1458.267318725586
10
263.2341003417969
20
1458.68017578125
10
265.15911865234375
20
1459.1066284179688
10
267.08111572265625
20
1459.5466003417969
10
269
20
1460
0
HATCH
5
22
330
C
100
AcDbEntity
420
0
8
0
100
AcDbHatch
10
0
20
0
30
0
210
0
220
0
230
1
2
SOLID
70
1
71
0
91
1
92
7
72
0
73
1
93
33
10
255.94186720757943
20
1463.0797999895303
10
256.75800050710575
20
1462.8873124901847
10
257.5741350519526
20
1462.6948246971265
10
258.3902671061583
20
1462.5023374914933
10
259.2064004056846
20
1462.3098499921477
10
260.02253432787114
20
1462.1173623459458
10
260.83866700473715
20
1461.9248749934566
10
261.65480030426346
20
1461.7323874941108
10
262.4709336037898
20
1461.5398999947652
10
263.2870675259763
20
1461.3474123485632
10
264.1032002028423
20
1461.154924996074
10
264.9193334694738
20
1460.962437635946
10
265.73546680189486
20
1460.7699499973826
10
266.55160013431595
20
1460.5774623588193
10
267.36773335160524
20
1460.3849752075178
10
268.1838666758026
20
1460.192487603759
10
269
20
1460
10
268.35633028396586
20
1459.4625847462448
10
267.7126603047735
20
1458.9251706062312
10
267.0689914393228
20
1458.3877567293757
10
266.4253208374702
20
1457.8503427362184
10
265.7816503671967
20
1457.3129281861902
10
265.13798137016687
20
1456.7755148662056
10
264.49430985194135
20
1456.238099774584
10
263.85064085491155
20
1455.7006864545992
10
263.2069713668005
20
1455.1632727246001
10
262.5633000612208
20
1454.6258579772034
10
261.9196308515451
20
1454.0884443129937
10
261.275961363434
20
1453.5510305829944
10
260.6322902628616
20
1453.0136155900573
10
259.9886208481787
20
1452.4762021713882
10
259.34494974760634
20
1451.9387871784509
10
258.7012803329234
20
1451.4013737597818
97
0
75
1
76
1
47
1
98
0
0
LWPOLYLINE
5
23
330
C
100
AcDbEntity
420
0
8
0
100
AcDbPolyline
90
34
70
0
43
0
38
0
39
0
10
255.94186720757943
20
1463.0797999895303
10
256.75800050710575
20
1462.8873124901847
10
257.5741350519526
20
1462.6948246971265
10
258.3902671061583
20
1462.5023374914933
10
259.2064004056846
20
1462.3098499921477
10
260.02253432787114
20
1462.1173623459458
10
260.83866700473715
20
1461.9248749934566
10
261.65480030426346
20
1461.7323874941108
10
262.4709336037898
20
1461.5398999947652
10
263.2870675259763
20
1461.3474123485632
10
264.1032002028423
20
1461.154924996074
10
264.9193334694738
20
1460.962437635946
10
265.73546680189486
20
1460.7699499973826
10
266.55160013431595
20
1460.5774623588193
10
267.36773335160524
20
1460.3849752075178
10
268.1838666758026
20
1460.192487603759
10
269
20
1460
10
268.35633028396586
20
1459.4625847462448
10
267.7126603047735
20
1458.9251706062312
10
267.0689914393228
20
1458.3877567293757
10
266.4253208374702
20
1457.8503427362184
10
265.7816503671967
20
1457.3129281861902
10
265.13798137016687
20
1456.7755148662056
10
264.49430985194135
20
1456.238099774584
10
263.85064085491155
20
1455.7006864545992
10
263.2069713668005
20
1455.1632727246001
10
262.5633000612208
20
1454.6258579772034
10
261.9196308515451
20
1454.0884443129937
10
261.275961363434
20
1453.5510305829944
10
260.6322902628616
20
1453.0136155900573
10
259.9886208481787
20
1452.4762021713882
10
259.34494974760634
20
1451.9387871784509
10
258.7012803329234
20
1451.4013737597818
10
255.94186720757943
20
1463.0797999895303
0
ENDSEC
0
SECTION
2
OBJECTS
0
DICTIONARY
5
A
330
0
100
AcDbDictionary
281
1
3
ACAD_GROUP
350
B
0
DICTIONARY
5
B
330
A
100
AcDbDictionary
281
0
0
ENDSEC
0
EOF