0
SECTION
2
HEADER
9
$ACADVER
1
AC1021
9
$LASTSAVEDBY
1
@tarikjabiri/dxf
9
$HANDSEED
5
2F
9
$INSUNITS
70
0
9
$CLAYER
8
0
9
$VIEWCTR
10
89
20
84.5
0
ENDSEC
0
SECTION
2
CLASSES
0
ENDSEC
0
SECTION
2
TABLES
0
TABLE
2
VPORT
5
1
330
0
100
AcDbSymbolTable
70
1
0
VPORT
5
19
330
1
100
AcDbSymbolTableRecord
100
AcDbViewportTableRecord
2
*Active
70
0
10
0
20
0
11
1
21
1
12
89
22
84.5
13
0
23
0
14
10
24
10
15
10
25
10
16
0
26
0
36
1
17
0
27
0
37
0
40
369
41
2
42
50
43
0
44
0
50
0
51
0
71
0
72
100
73
1
74
3
75
0
76
1
77
0
78
0
281
0
65
1
110
0
120
0
130
0
111
1
121
0
131
0
112
0
122
1
132
0
79
0
146
0
348
10020
60
7
61
5
292
1
282
1
141
0
142
0
63
250
421
3358443
0
ENDTAB
0
TABLE
2
LTYPE
5
2
330
0
100
AcDbSymbolTable
70
3
0
LTYPE
5
12
330
2
100
AcDbSymbolTableRecord
100
AcDbLinetypeTableRecord
2
ByBlock
70
0
3

72
65
73
0
40
0
0
LTYPE
5
13
330
2
100
AcDbSymbolTableRecord
100
AcDbLinetypeTableRecord
2
ByLayer
70
0
3

72
65
73
0
40
0
0
LTYPE
5
14
330
2
100
AcDbSymbolTableRecord
100
AcDbLinetypeTableRecord
2
Continuous
70
0
3
Solid line
72
65
73
0
40
0
0
ENDTAB
0
TABLE
2
LAYER
5
3
330
0
100
AcDbSymbolTable
70
1
0
LAYER
5
15
330
3
100
AcDbSymbolTableRecord
100
AcDbLayerTableRecord
2
0
70
0
62
7
6
Continuous
370
0
390
0
0
ENDTAB
0
TABLE
2
STYLE
5
4
330
0
100
AcDbSymbolTable
70
2
0
STYLE
5
16
330
4
100
AcDbSymbolTableRecord
100
AcDbTextStyleTableRecord
2
Standard
70
0
40
0
41
1
50
0
71
0
42
1
3
txt
4

0
STYLE
5
20
330
4
100
AcDbSymbolTableRecord
100
AcDbTextStyleTableRecord
2
Wingdings
70
0
40
0
41
1
50
0
71
0
42
1
3
Wingdings.ttf
4

0
ENDTAB
0
TABLE
2
VIEW
5
5
330
0
100
AcDbSymbolTable
70
0
0
ENDTAB
0
TABLE
2
UCS
5
6
330
0
100
AcDbSymbolTable
70
0
0
ENDTAB
0
TABLE
2
APPID
5
7
330
0
100
AcDbSymbolTable
70
1
0
APPID
5
17
330
7
100
AcDbSymbolTableRecord
100
AcDbRegAppTableRecord
2
ACAD
70
0
0
ENDTAB
0
TABLE
2
DIMSTYLE
5
8
330
0
100
AcDbSymbolTable
70
1
100
AcDbDimStyleTable
0
DIMSTYLE
105
18
330
8
100
AcDbSymbolTableRecord
100
AcDbDimStyleTableRecord
2
Standard
70
0
340
16
0
ENDTAB
0
TABLE
2
BLOCK_RECORD
5
9
330
0
100
AcDbSymbolTable
70
2
0
BLOCK_RECORD
5
C
330
9
100
AcDbSymbolTableRecord
100
AcDbBlockTableRecord
2
*Model_Space
70
0
280
1
281
0
0
BLOCK_RECORD
5
F
330
9
100
AcDbSymbolTableRecord
100
AcDbBlockTableRecord
2
*Paper_Space
70
0
280
1
281
0
0
ENDTAB
0
ENDSEC
0
SECTION
2
BLOCKS
0
BLOCK
5
D
330
C
100
AcDbEntity
8
0
100
AcDbBlockBegin
2
*Model_Space
70
0
10
0
20
0
30
0
3
*Model_Space
1

0
ENDBLK
5
E
100
AcDbEntity
8
0
100
AcDbBlockEnd
0
BLOCK
5
10
330
F
100
AcDbEntity
8
0
100
AcDbBlockBegin
2
*Paper_Space
70
0
10
0
20
0
30
0
3
*Paper_Space
1

0
ENDBLK
5
11
100
AcDbEntity
8
0
100
AcDbBlockEnd
0
ENDSEC
0
SECTION
2
ENTITIES
0
LWPOLYLINE
5
1A
330
C
100
AcDbEntity
420
0
8
0
100
AcDbPolyline
90
33
70
0
43
0
38
0
39
0
10
175.50000886197336
20
168.72697602265953
10
176.51935981014745
20
168.621102789259
10
177.4995376730418
20
168.3075517380426
10
178.40287476507547
20
167.79837246006716
10
179.19465634839887
20
167.1131324294342
10
179.84445470080112
20
166.2781650362339
10
180.32729843601052
20
165.32555760913186
10
180.62463214006485
20
164.29191831732325
10
180.72502944546397
20
163.21696933912062
10
180.62463214006485
20
162.142020360918
10
180.32729843601052
20
161.10838106910938
10
179.84445470080112
20
160.15577364200735
10
179.19465634839887
20
159.32080624880706
10
178.40287476507547
20
158.6355662181741
10
177.4995376730418
20
158.12638694019864
10
176.51935981014745
20
157.81283588898225
10
175.50000886197336
20
157.70696265558172
10
174.48065791379926
20
157.81283588898225
10
173.5004800509049
20
158.12638694019864
10
172.59714295887125
20
158.6355662181741
10
171.80536137554785
20
159.32080624880706
10
171.1555630231456
20
160.15577364200735
10
170.6727192879362
20
161.10838106910938
10
170.37538558388187
20
162.142020360918
10
170.27498827848274
20
163.21696933912062
10
170.37538558388187
20
164.29191831732325
10
170.6727192879362
20
165.32555760913186
10
171.1555630231456
20
166.2781650362339
10
171.80536137554785
20
167.1131324294342
10
172.59714295887125
20
167.79837246006716
10
173.5004800509049
20
168.3075517380426
10
174.48065791379926
20
168.621102789259
10
175.50000886197336
20
168.72697602265953
0
HATCH
5
1B
330
C
100
AcDbEntity
420
0
8
0
100
AcDbHatch
10
0
20
0
30
0
210
0
220
0
230
1
2
SOLID
70
1
71
0
91
1
92
7
72
0
73
1
93
304
10
175.77087855951686
20
148.14283048515995
10
179.05918788764393
20
148.14283048515995
10
180.68688028596807
20
148.08543880174057
10
180.60972989641596
20
147.96912709887738
10
180.5325669498343
20
147.85281450744674
10
180.45541656028217
20
147.7365019160161
10
180.3782536137005
20
147.62018932458545
10
180.30109066711884
20
147.50387762172227
10
180.22394027756673
20
147.38756503029163
10
180.14677733098506
20
147.2712528831447
10
180.06962694143294
20
147.15494029171407
10
179.99246399485128
20
147.03862814456716
10
179.91531360529916
20
146.9223155531365
10
179.8381506587175
20
146.8060034059896
10
179.76100026916538
20
146.68969125884269
10
179.6838373225837
20
146.57337866741204
10
179.6066869330316
20
146.45706652026513
10
179.52952398644993
20
146.3407539288345
10
179.45237359689781
20
146.22444178168757
10
179.37521065031615
20
146.10812919025693
10
179.29804770373448
20
145.99181704311002
10
179.22089731418237
20
145.8755048959631
10
179.1437343676007
20
145.75919230453246
10
179.06658397804858
20
145.64288015738555
10
178.98942103146692
20
145.52656801023863
10
178.9122706419148
20
145.410255418808
10
178.83510769533314
20
145.29394327166108
10
178.75795730578102
20
145.17763112451416
10
178.68079435919935
20
145.06131853308352
10
178.60364396964724
20
144.94500594165288
10
178.52648102306557
20
144.82869379450597
10
178.44933063351345
20
144.71238164735905
10
178.3721676869318
20
144.5960690559284
10
178.29501729737967
20
144.4797569087815
10
178.217854350798
20
144.36344431735085
10
178.14069140421634
20
144.24713217020394
10
178.06354101466422
20
144.1308195787733
10
177.98637806808256
20
144.01450743162638
10
177.90922767853044
20
143.89819528447947
10
177.83206473194878
20
143.78188313733256
10
177.75491434239666
20
143.66557054590191
10
177.677751395815
20
143.549258398755
10
177.60060100626288
20
143.43294580732436
10
177.5234380596812
20
143.31663366017744
10
177.4462876701291
20
143.2003210687468
10
177.36912472354743
20
143.0840089215999
10
177.2919743339953
20
142.96769677445297
10
177.21481138741365
20
142.85138462730606
10
177.13766099786153
20
142.73507203587542
10
177.06049805127986
20
142.6187598887285
10
176.9833351046982
20
142.50244729729786
10
176.90618471514608
20
142.38613515015095
10
176.82902176856442
20
142.2698225587203
10
176.7518713790123
20
142.1535104115734
10
176.67470843243063
20
142.03719782014275
10
176.59755804287852
20
141.92088611727957
10
176.52039509629685
20
141.80457352584892
10
176.44324470674474
20
141.68826093441828
10
176.36608176016307
20
141.57194878727137
10
176.28893137061095
20
141.45563619584073
10
176.2117684240293
20
141.3393240486938
10
176.13461803447717
20
141.22301145726317
10
176.0574550878955
20
141.10669931011626
10
175.98029214131384
20
140.9903867186856
10
175.90314175176172
20
140.87407501582243
10
175.82597880518006
20
140.7577628686755
10
175.74882841562794
20
140.64144983296114
10
175.67166546904627
20
140.5251372415305
10
175.59451507949416
20
140.40882465009986
10
175.5173521329125
20
140.29251383580413
10
175.44017662930128
20
140.3593724279713
10
175.36300112569006
20
140.47568496386646
10
175.2858130650493
20
140.59199749976165
10
175.20863756143808
20
140.7083090915539
10
175.13144950079732
20
140.82462168298454
10
175.0542739971861
20
140.94093416334425
10
174.97708593654534
20
141.0572467547749
10
174.89991043293412
20
141.17355834656715
10
174.82272237229336
20
141.28987082692686
10
174.74554686868214
20
141.4061834183575
10
174.66835880804138
20
141.5224958987172
10
174.59118330443016
20
141.63880749050946
10
174.5139952437894
20
141.7551200819401
10
174.43681974017818
20
141.87143267337075
10
174.35963167953742
20
141.9877452648014
10
174.2824561759262
20
142.10405763409017
10
174.20526811528543
20
142.22036933695335
10
174.12809261167422
20
142.336681928384
10
174.05090455103345
20
142.45299429767277
10
173.97372904742224
20
142.56930688910342
10
173.89654098678147
20
142.6856185919666
10
173.81936548317026
20
142.80193096125538
10
173.7421774225295
20
142.91824355268602
10
173.66500191891828
20
143.03455614411666
10
173.58782641530706
20
143.15086784697985
10
173.5106383546663
20
143.26718021626863
10
173.43346285105508
20
143.38349280769927
10
173.35627479041432
20
143.4998053991299
10
173.2790992868031
20
143.61611687985123
10
173.20191122616234
20
143.73242947128188
10
173.12473572255112
20
143.84874206271252
10
173.04754766191036
20
143.96505465414316
10
172.97037215829914
20
144.08136635700635
10
172.89318409765838
20
144.19767850415326
10
172.81600859404716
20
144.3139910955839
10
172.7388205334064
20
144.43030368701454
10
172.66164502979518
20
144.54661538987773
10
172.58445696915442
20
144.66292798130837
10
172.5072814655432
20
144.779240572739
10
172.43009340490244
20
144.89555316416966
10
172.35291790129122
20
145.0118644227491
10
172.27572984065046
20
145.12817701417976
10
172.19855433703924
20
145.2444896056104
10
172.12136627639848
20
145.36080219704104
10
172.04419077278726
20
145.47711478847168
10
171.9670027121465
20
145.59342649133487
10
171.88982720853528
20
145.7097390827655
10
171.81263914789452
20
145.82605122991242
10
171.7354636442833
20
145.94236382134306
10
171.65827558364253
20
146.05867552420625
10
171.58110008003132
20
146.1749881156369
10
171.50391201939055
20
146.29130070706753
10
171.42673651577934
20
146.40761329849818
10
171.34954845513857
20
146.52392500136136
10
171.27237295152736
20
146.64023714850828
10
171.19519744791614
20
146.75654973993892
10
171.11800938727538
20
146.87286233136956
10
171.04083388366416
20
146.98917403423275
10
170.9636458230234
20
147.1054866256634
10
170.88647031941218
20
147.22179921709403
10
170.80928225877142
20
147.33811180852467
10
170.7321067551602
20
147.45442528852277
10
170.65491869451944
20
147.57073521425104
10
170.57774319090822
20
147.68704869424914
10
170.50055513026746
20
147.80336217424724
10
170.42337962665624
20
147.91967209997551
10
170.34619156601548
20
148.0359855799736
10
170.5429853331152
20
148.14283048515995
10
173.83121931906499
20
148.14283048515995
10
175.22938177425385
20
148.2097067376053
10
175.22938177425385
20
148.32605220603182
10
175.22938177425385
20
148.44239767445833
10
175.22938177425385
20
148.55873958861503
10
175.22938177425385
20
148.67508505704154
10
175.22938177425385
20
148.79143052546806
10
175.22938177425385
20
148.90777243962475
10
175.22938177425385
20
149.02411790805127
10
175.22938177425385
20
149.14046337647778
10
175.22938177425385
20
149.25680529063447
10
175.22938177425385
20
149.373150759061
10
175.22938177425385
20
149.4894962274875
10
175.22938177425385
20
149.6058381416442
10
175.22938177425385
20
149.72218361007072
10
175.22938177425385
20
149.83852907849723
10
175.22938177425385
20
149.95487099265392
10
175.22938177425385
20
150.07121646108044
10
175.22938177425385
20
150.18756192950696
10
175.22938177425385
20
150.30390739793347
10
175.22938177425385
20
150.42024931209016
10
175.22938177425385
20
150.53659478051668
10
175.22938177425385
20
150.6529402489432
10
175.22938177425385
20
150.7692821630999
10
175.22938177425385
20
150.8856276315264
10
175.22938177425385
20
151.00197309995292
10
175.22938177425385
20
151.1183150141096
10
175.22938177425385
20
151.23466048253613
10
175.22938177425385
20
151.35100595096264
10
175.22938177425385
20
151.46734786511934
10
175.22938177425385
20
151.58369333354585
10
175.22938177425385
20
151.70003880197237
10
175.22938177425385
20
151.81638427039888
10
175.22938177425385
20
151.93272618455558
10
175.22938177425385
20
152.0490716529821
10
175.22938177425385
20
152.1654171214086
10
175.22938177425385
20
152.2817590355653
10
175.22938177425385
20
152.39810450399182
10
175.22938177425385
20
152.51444997241833
10
175.22938177425385
20
152.63079188657503
10
175.22938177425385
20
152.74713735500154
10
175.22938177425385
20
152.86348282342806
10
175.22938177425385
20
152.97982473758475
10
175.22938177425385
20
153.09617020601127
10
175.22938177425385
20
153.21251567443778
10
175.22938177425385
20
153.32885758859447
10
175.22938177425385
20
153.445203057021
10
175.22938177425385
20
153.5615485254475
10
175.22938177425385
20
153.67789399387402
10
175.22938177425385
20
153.7942359080307
10
175.22938177425385
20
153.91058137645723
10
175.22938177425385
20
154.02692684488375
10
175.22938177425385
20
154.14326875904044
10
175.22938177425385
20
154.25961422746695
10
175.22938177425385
20
154.37595969589347
10
175.22938177425385
20
154.49230161005016
10
175.22938177425385
20
154.60864707847668
10
175.22938177425385
20
154.7249925469032
10
175.22938177425385
20
154.8413344610599
10
175.22938177425385
20
154.9576799294864
10
175.22938177425385
20
155.07402539791292
10
175.22938177425385
20
155.19037086633944
10
175.22938177425385
20
155.30671278049613
10
175.22938177425385
20
155.42305824892264
10
175.22938177425385
20
155.53940371734916
10
175.22938177425385
20
155.65574563150585
10
175.22938177425385
20
155.77209109993237
10
175.22938177425385
20
155.88843656835888
10
175.22938177425385
20
156.00477848251558
10
175.22938177425385
20
156.1211239509421
10
175.22938177425385
20
156.2374694193686
10
175.22938177425385
20
156.3538113335253
10
175.22938177425385
20
156.47015680195182
10
175.22938177425385
20
156.58650227037833
10
175.22938177425385
20
156.70284418453502
10
175.22938177425385
20
156.81918965296154
10
175.22938177425385
20
156.93553512138806
10
175.22938177425385
20
157.05188058981457
10
175.22938177425385
20
157.16822250397126
10
175.22938177425385
20
157.28456797239778
10
175.22938177425385
20
157.4009134408243
10
175.22938177425385
20
157.517255354981
10
175.22938177425385
20
157.6336008234075
10
175.77087855951686
20
157.6830655965514
10
175.77087855951686
20
157.5667236823947
10
175.77087855951686
20
157.45037821396818
10
175.77087855951686
20
157.33403274554166
10
175.77087855951686
20
157.21769083138497
10
175.77087855951686
20
157.10134536295845
10
175.77087855951686
20
156.98499989453194
10
175.77087855951686
20
156.86865442610542
10
175.77087855951686
20
156.75231251194873
10
175.77087855951686
20
156.63596704352221
10
175.77087855951686
20
156.5196215750957
10
175.77087855951686
20
156.403279660939
10
175.77087855951686
20
156.2869341925125
10
175.77087855951686
20
156.17058872408597
10
175.77087855951686
20
156.05424680992928
10
175.77087855951686
20
155.93790134150277
10
175.77087855951686
20
155.82155587307625
10
175.77087855951686
20
155.70521395891956
10
175.77087855951686
20
155.58886849049304
10
175.77087855951686
20
155.47252302206653
10
175.77087855951686
20
155.35618110790983
10
175.77087855951686
20
155.23983563948332
10
175.77087855951686
20
155.1234901710568
10
175.77087855951686
20
155.00714470263028
10
175.77087855951686
20
154.8908027884736
10
175.77087855951686
20
154.77445732004708
10
175.77087855951686
20
154.65811185162056
10
175.77087855951686
20
154.54176993746387
10
175.77087855951686
20
154.42542446903735
10
175.77087855951686
20
154.30907900061084
10
175.77087855951686
20
154.19273708645414
10
175.77087855951686
20
154.07639161802763
10
175.77087855951686
20
153.9600461496011
10
175.77087855951686
20
153.84370423544442
10
175.77087855951686
20
153.7273587670179
10
175.77087855951686
20
153.6110132985914
10
175.77087855951686
20
153.4946713844347
10
175.77087855951686
20
153.37832591600818
10
175.77087855951686
20
153.26198044758166
10
175.77087855951686
20
153.14563853342497
10
175.77087855951686
20
153.02929306499846
10
175.77087855951686
20
152.91294759657194
10
175.77087855951686
20
152.79660568241525
10
175.77087855951686
20
152.68026021398873
10
175.77087855951686
20
152.56391474556222
10
175.77087855951686
20
152.44757283140552
10
175.77087855951686
20
152.331227362979
10
175.77087855951686
20
152.2148818945525
10
175.77087855951686
20
152.09853642612597
10
175.77087855951686
20
151.98219451196928
10
175.77087855951686
20
151.86584904354277
10
175.77087855951686
20
151.74950357511625
10
175.77087855951686
20
151.63316166095956
10
175.77087855951686
20
151.51681619253304
10
175.77087855951686
20
151.40047072410653
10
175.77087855951686
20
151.28412880994983
10
175.77087855951686
20
151.16778334152332
10
175.77087855951686
20
151.0514378730968
10
175.77087855951686
20
150.9350959589401
10
175.77087855951686
20
150.8187504905136
10
175.77087855951686
20
150.70240502208708
10
175.77087855951686
20
150.58605955366056
10
175.77087855951686
20
150.46971763950387
10
175.77087855951686
20
150.35337217107735
10
175.77087855951686
20
150.23702670265084
10
175.77087855951686
20
150.12068478849415
10
175.77087855951686
20
150.00433932006763
10
175.77087855951686
20
149.8879938516411
10
175.77087855951686
20
149.77165193748442
10
175.77087855951686
20
149.6553064690579
10
175.77087855951686
20
149.5389610006314
10
175.77087855951686
20
149.4226190864747
10
175.77087855951686
20
149.30627361804818
10
175.77087855951686
20
149.18992814962166
10
175.77087855951686
20
149.07358623546497
10
175.77087855951686
20
148.95724076703846
10
175.77087855951686
20
148.84089529861194
10
175.77087855951686
20
148.72454983018542
10
175.77087855951686
20
148.60820791602873
10
175.77087855951686
20
148.49186244760222
10
175.77087855951686
20
148.3755169791757
10
175.77087855951686
20
148.259175065019
10
175.77087855951686
20
148.14283048515995
97
0
75
1
76
1
47
1
98
0
0
LWPOLYLINE
5
1C
330
C
100
AcDbEntity
420
0
8
0
100
AcDbPolyline
90
305
70
0
43
0
38
0
39
0
10
175.77087855951686
20
148.14283048515995
10
179.05918788764393
20
148.14283048515995
10
180.68688028596807
20
148.08543880174057
10
180.60972989641596
20
147.96912709887738
10
180.5325669498343
20
147.85281450744674
10
180.45541656028217
20
147.7365019160161
10
180.3782536137005
20
147.62018932458545
10
180.30109066711884
20
147.50387762172227
10
180.22394027756673
20
147.38756503029163
10
180.14677733098506
20
147.2712528831447
10
180.06962694143294
20
147.15494029171407
10
179.99246399485128
20
147.03862814456716
10
179.91531360529916
20
146.9223155531365
10
179.8381506587175
20
146.8060034059896
10
179.76100026916538
20
146.68969125884269
10
179.6838373225837
20
146.57337866741204
10
179.6066869330316
20
146.45706652026513
10
179.52952398644993
20
146.3407539288345
10
179.45237359689781
20
146.22444178168757
10
179.37521065031615
20
146.10812919025693
10
179.29804770373448
20
145.99181704311002
10
179.22089731418237
20
145.8755048959631
10
179.1437343676007
20
145.75919230453246
10
179.06658397804858
20
145.64288015738555
10
178.98942103146692
20
145.52656801023863
10
178.9122706419148
20
145.410255418808
10
178.83510769533314
20
145.29394327166108
10
178.75795730578102
20
145.17763112451416
10
178.68079435919935
20
145.06131853308352
10
178.60364396964724
20
144.94500594165288
10
178.52648102306557
20
144.82869379450597
10
178.44933063351345
20
144.71238164735905
10
178.3721676869318
20
144.5960690559284
10
178.29501729737967
20
144.4797569087815
10
178.217854350798
20
144.36344431735085
10
178.14069140421634
20
144.24713217020394
10
178.06354101466422
20
144.1308195787733
10
177.98637806808256
20
144.01450743162638
10
177.90922767853044
20
143.89819528447947
10
177.83206473194878
20
143.78188313733256
10
177.75491434239666
20
143.66557054590191
10
177.677751395815
20
143.549258398755
10
177.60060100626288
20
143.43294580732436
10
177.5234380596812
20
143.31663366017744
10
177.4462876701291
20
143.2003210687468
10
177.36912472354743
20
143.0840089215999
10
177.2919743339953
20
142.96769677445297
10
177.21481138741365
20
142.85138462730606
10
177.13766099786153
20
142.73507203587542
10
177.06049805127986
20
142.6187598887285
10
176.9833351046982
20
142.50244729729786
10
176.90618471514608
20
142.38613515015095
10
176.82902176856442
20
142.2698225587203
10
176.7518713790123
20
142.1535104115734
10
176.67470843243063
20
142.03719782014275
10
176.59755804287852
20
141.92088611727957
10
176.52039509629685
20
141.80457352584892
10
176.44324470674474
20
141.68826093441828
10
176.36608176016307
20
141.57194878727137
10
176.28893137061095
20
141.45563619584073
10
176.2117684240293
20
141.3393240486938
10
176.13461803447717
20
141.22301145726317
10
176.0574550878955
20
141.10669931011626
10
175.98029214131384
20
140.9903867186856
10
175.90314175176172
20
140.87407501582243
10
175.82597880518006
20
140.7577628686755
10
175.74882841562794
20
140.64144983296114
10
175.67166546904627
20
140.5251372415305
10
175.59451507949416
20
140.40882465009986
10
175.5173521329125
20
140.29251383580413
10
175.44017662930128
20
140.3593724279713
10
175.36300112569006
20
140.47568496386646
10
175.2858130650493
20
140.59199749976165
10
175.20863756143808
20
140.7083090915539
10
175.13144950079732
20
140.82462168298454
10
175.0542739971861
20
140.94093416334425
10
174.97708593654534
20
141.0572467547749
10
174.89991043293412
20
141.17355834656715
10
174.82272237229336
20
141.28987082692686
10
174.74554686868214
20
141.4061834183575
10
174.66835880804138
20
141.5224958987172
10
174.59118330443016
20
141.63880749050946
10
174.5139952437894
20
141.7551200819401
10
174.43681974017818
20
141.87143267337075
10
174.35963167953742
20
141.9877452648014
10
174.2824561759262
20
142.10405763409017
10
174.20526811528543
20
142.22036933695335
10
174.12809261167422
20
142.336681928384
10
174.05090455103345
20
142.45299429767277
10
173.97372904742224
20
142.56930688910342
10
173.89654098678147
20
142.6856185919666
10
173.81936548317026
20
142.80193096125538
10
173.7421774225295
20
142.91824355268602
10
173.66500191891828
20
143.03455614411666
10
173.58782641530706
20
143.15086784697985
10
173.5106383546663
20
143.26718021626863
10
173.43346285105508
20
143.38349280769927
10
173.35627479041432
20
143.4998053991299
10
173.2790992868031
20
143.61611687985123
10
173.20191122616234
20
143.73242947128188
10
173.12473572255112
20
143.84874206271252
10
173.04754766191036
20
143.96505465414316
10
172.97037215829914
20
144.08136635700635
10
172.89318409765838
20
144.19767850415326
10
172.81600859404716
20
144.3139910955839
10
172.7388205334064
20
144.43030368701454
10
172.66164502979518
20
144.54661538987773
10
172.58445696915442
20
144.66292798130837
10
172.5072814655432
20
144.779240572739
10
172.43009340490244
20
144.89555316416966
10
172.35291790129122
20
145.0118644227491
10
172.27572984065046
20
145.12817701417976
10
172.19855433703924
20
145.2444896056104
10
172.12136627639848
20
145.36080219704104
10
172.04419077278726
20
145.47711478847168
10
171.9670027121465
20
145.59342649133487
10
171.88982720853528
20
145.7097390827655
10
171.81263914789452
20
145.82605122991242
10
171.7354636442833
20
145.94236382134306
10
171.65827558364253
20
146.05867552420625
10
171.58110008003132
20
146.1749881156369
10
171.50391201939055
20
146.29130070706753
10
171.42673651577934
20
146.40761329849818
10
171.34954845513857
20
146.52392500136136
10
171.27237295152736
20
146.64023714850828
10
171.19519744791614
20
146.75654973993892
10
171.11800938727538
20
146.87286233136956
10
171.04083388366416
20
146.98917403423275
10
170.9636458230234
20
147.1054866256634
10
170.88647031941218
20
147.22179921709403
10
170.80928225877142
20
147.33811180852467
10
170.7321067551602
20
147.45442528852277
10
170.65491869451944
20
147.57073521425104
10
170.57774319090822
20
147.68704869424914
10
170.50055513026746
20
147.80336217424724
10
170.42337962665624
20
147.91967209997551
10
170.34619156601548
20
148.0359855799736
10
170.5429853331152
20
148.14283048515995
10
173.83121931906499
20
148.14283048515995
10
175.22938177425385
20
148.2097067376053
10
175.22938177425385
20
148.32605220603182
10
175.22938177425385
20
148.44239767445833
10
175.22938177425385
20
148.55873958861503
10
175.22938177425385
20
148.67508505704154
10
175.22938177425385
20
148.79143052546806
10
175.22938177425385
20
148.90777243962475
10
175.22938177425385
20
149.02411790805127
10
175.22938177425385
20
149.14046337647778
10
175.22938177425385
20
149.25680529063447
10
175.22938177425385
20
149.373150759061
10
175.22938177425385
20
149.4894962274875
10
175.22938177425385
20
149.6058381416442
10
175.22938177425385
20
149.72218361007072
10
175.22938177425385
20
149.83852907849723
10
175.22938177425385
20
149.95487099265392
10
175.22938177425385
20
150.07121646108044
10
175.22938177425385
20
150.18756192950696
10
175.22938177425385
20
150.30390739793347
10
175.22938177425385
20
150.42024931209016
10
175.22938177425385
20
150.53659478051668
10
175.22938177425385
20
150.6529402489432
10
175.22938177425385
20
150.7692821630999
10
175.22938177425385
20
150.8856276315264
10
175.22938177425385
20
151.00197309995292
10
175.22938177425385
20
151.1183150141096
10
175.22938177425385
20
151.23466048253613
10
175.22938177425385
20
151.35100595096264
10
175.22938177425385
20
151.46734786511934
10
175.22938177425385
20
151.58369333354585
10
175.22938177425385
20
151.70003880197237
10
175.22938177425385
20
151.81638427039888
10
175.22938177425385
20
151.93272618455558
10
175.22938177425385
20
152.0490716529821
10
175.22938177425385
20
152.1654171214086
10
175.22938177425385
20
152.2817590355653
10
175.22938177425385
20
152.39810450399182
10
175.22938177425385
20
152.51444997241833
10
175.22938177425385
20
152.63079188657503
10
175.22938177425385
20
152.74713735500154
10
175.22938177425385
20
152.86348282342806
10
175.22938177425385
20
152.97982473758475
10
175.22938177425385
20
153.09617020601127
10
175.22938177425385
20
153.21251567443778
10
175.22938177425385
20
153.32885758859447
10
175.22938177425385
20
153.445203057021
10
175.22938177425385
20
153.5615485254475
10
175.22938177425385
20
153.67789399387402
10
175.22938177425385
20
153.7942359080307
10
175.22938177425385
20
153.91058137645723
10
175.22938177425385
20
154.02692684488375
10
175.22938177425385
20
154.14326875904044
10
175.22938177425385
20
154.25961422746695
10
175.22938177425385
20
154.37595969589347
10
175.22938177425385
20
154.49230161005016
10
175.22938177425385
20
154.60864707847668
10
175.22938177425385
20
154.7249925469032
10
175.22938177425385
20
154.8413344610599
10
175.22938177425385
20
154.9576799294864
10
175.22938177425385
20
155.07402539791292
10
175.22938177425385
20
155.19037086633944
10
175.22938177425385
20
155.30671278049613
10
175.22938177425385
20
155.42305824892264
10
175.22938177425385
20
155.53940371734916
10
175.22938177425385
20
155.65574563150585
10
175.22938177425385
20
155.77209109993237
10
175.22938177425385
20
155.88843656835888
10
175.22938177425385
20
156.00477848251558
10
175.22938177425385
20
156.1211239509421
10
175.22938177425385
20
156.2374694193686
10
175.22938177425385
20
156.3538113335253
10
175.22938177425385
20
156.47015680195182
10
175.22938177425385
20
156.58650227037833
10
175.22938177425385
20
156.70284418453502
10
175.22938177425385
20
156.81918965296154
10
175.22938177425385
20
156.93553512138806
10
175.22938177425385
20
157.05188058981457
10
175.22938177425385
20
157.16822250397126
10
175.22938177425385
20
157.28456797239778
10
175.22938177425385
20
157.4009134408243
10
175.22938177425385
20
157.517255354981
10
175.22938177425385
20
157.6336008234075
10
175.77087855951686
20
157.6830655965514
10
175.77087855951686
20
157.5667236823947
10
175.77087855951686
20
157.45037821396818
10
175.77087855951686
20
157.33403274554166
10
175.77087855951686
20
157.21769083138497
10
175.77087855951686
20
157.10134536295845
10
175.77087855951686
20
156.98499989453194
10
175.77087855951686
20
156.86865442610542
10
175.77087855951686
20
156.75231251194873
10
175.77087855951686
20
156.63596704352221
10
175.77087855951686
20
156.5196215750957
10
175.77087855951686
20
156.403279660939
10
175.77087855951686
20
156.2869341925125
10
175.77087855951686
20
156.17058872408597
10
175.77087855951686
20
156.05424680992928
10
175.77087855951686
20
155.93790134150277
10
175.77087855951686
20
155.82155587307625
10
175.77087855951686
20
155.70521395891956
10
175.77087855951686
20
155.58886849049304
10
175.77087855951686
20
155.47252302206653
10
175.77087855951686
20
155.35618110790983
10
175.77087855951686
20
155.23983563948332
10
175.77087855951686
20
155.1234901710568
10
175.77087855951686
20
155.00714470263028
10
175.77087855951686
20
154.8908027884736
10
175.77087855951686
20
154.77445732004708
10
175.77087855951686
20
154.65811185162056
10
175.77087855951686
20
154.54176993746387
10
175.77087855951686
20
154.42542446903735
10
175.77087855951686
20
154.30907900061084
10
175.77087855951686
20
154.19273708645414
10
175.77087855951686
20
154.07639161802763
10
175.77087855951686
20
153.9600461496011
10
175.77087855951686
20
153.84370423544442
10
175.77087855951686
20
153.7273587670179
10
175.77087855951686
20
153.6110132985914
10
175.77087855951686
20
153.4946713844347
10
175.77087855951686
20
153.37832591600818
10
175.77087855951686
20
153.26198044758166
10
175.77087855951686
20
153.14563853342497
10
175.77087855951686
20
153.02929306499846
10
175.77087855951686
20
152.91294759657194
10
175.77087855951686
20
152.79660568241525
10
175.77087855951686
20
152.68026021398873
10
175.77087855951686
20
152.56391474556222
10
175.77087855951686
20
152.44757283140552
10
175.77087855951686
20
152.331227362979
10
175.77087855951686
20
152.2148818945525
10
175.77087855951686
20
152.09853642612597
10
175.77087855951686
20
151.98219451196928
10
175.77087855951686
20
151.86584904354277
10
175.77087855951686
20
151.74950357511625
10
175.77087855951686
20
151.63316166095956
10
175.77087855951686
20
151.51681619253304
10
175.77087855951686
20
151.40047072410653
10
175.77087855951686
20
151.28412880994983
10
175.77087855951686
20
151.16778334152332
10
175.77087855951686
20
151.0514378730968
10
175.77087855951686
20
150.9350959589401
10
175.77087855951686
20
150.8187504905136
10
175.77087855951686
20
150.70240502208708
10
175.77087855951686
20
150.58605955366056
10
175.77087855951686
20
150.46971763950387
10
175.77087855951686
20
150.35337217107735
10
175.77087855951686
20
150.23702670265084
10
175.77087855951686
20
150.12068478849415
10
175.77087855951686
20
150.00433932006763
10
175.77087855951686
20
149.8879938516411
10
175.77087855951686
20
149.77165193748442
10
175.77087855951686
20
149.6553064690579
10
175.77087855951686
20
149.5389610006314
10
175.77087855951686
20
149.4226190864747
10
175.77087855951686
20
149.30627361804818
10
175.77087855951686
20
149.18992814962166
10
175.77087855951686
20
149.07358623546497
10
175.77087855951686
20
148.95724076703846
10
175.77087855951686
20
148.84089529861194
10
175.77087855951686
20
148.72454983018542
10
175.77087855951686
20
148.60820791602873
10
175.77087855951686
20
148.49186244760222
10
175.77087855951686
20
148.3755169791757
10
175.77087855951686
20
148.259175065019
10
175.77087855951686
20
148.14283048515995
10
175.77087855951686
20
148.14283048515995
0
LWPOLYLINE
5
1D
330
C
100
AcDbEntity
420
0
8
0
100
AcDbPolyline
90
5
70
0
43
0
38
0
39
0
10
170.27500010945369
20
140.13944320080134
10
170.27500010945369
20
140.66139231448057
10
180.72500284499796
20
140.66139231448057
10
180.72500284499796
20
140.13944320080134
10
170.27500010945369
20
140.13944320080134
0
TEXT
5
1E
330
C
100
AcDbEntity
420
0
8
0
100
AcDbText
10
178
20
169
30
0
40
10
1
AAAAA
50
90
7
STANDARD
100
AcDbText
0
TEXT
5
1F
330
C
100
AcDbEntity
420
0
8
0
100
AcDbText
10
86.24166739943128
20
135.98333282147843
30
0
40
20.000000298023224
1
å
7
Wingdings
100
AcDbText
0
LWPOLYLINE
5
21
330
C
100
AcDbEntity
420
0
8
0
100
AcDbPolyline
90
5
70
0
43
0
38
0
39
0
10
24.5
20
28
10
24.5
20
60
10
69.5
20
60
10
69.5
20
28
10
24.5
20
28
0
IMAGE
5
23
330
C
100
AcDbEntity
8
0
100
AcDbRasterImage
90
0
10
29.45
20
29
30
0
11
6.123233995736766e-17
21
-1
31
0
12
1
22
6.123233995736766e-17
32
0
13
30
23
35
340
22
70
3
280
1
281
50
282
50
283
0
360
24
71
1
91
2
14
-0.5
24
-0.5
14
29.5
24
34.5
290
1
0
TEXT
5
26
330
C
100
AcDbEntity
420
0
8
0
100
AcDbText
10
36
20
2.23333740234375
30
0
40
12
1
=+S0001-Clv6xx
50
90
7
STANDARD
100
AcDbText
0
LWPOLYLINE
5
27
330
C
100
AcDbEntity
420
0
8
0
100
AcDbPolyline
90
5
70
0
43
0
38
0
39
0
10
88
20
132
10
178
20
132
10
178
20
0
10
88
20
0
10
88
20
132
0
LWPOLYLINE
5
28
330
C
100
AcDbEntity
420
0
8
0
100
AcDbPolyline
90
5
70
0
43
0
38
0
39
0
10
89
20
131
10
176.9666748046875
20
131
10
176.9666748046875
20
97.19999694824219
10
89
20
97.19999694824219
10
89
20
131
0
TEXT
5
29
330
C
100
AcDbEntity
420
0
8
0
100
AcDbText
10
118.53332949234891
20
112.61667315142276
30
0
40
10.399999618530273
1
AABB
7
STANDARD
100
AcDbText
0
TEXT
5
2A
330
C
100
AcDbEntity
420
0
8
0
100
AcDbText
10
171.03332586871625
20
88.4258271815678
30
0
40
10.129999816417694
1
0
7
STANDARD
100
AcDbText
0
IMAGE
5
2C
330
C
100
AcDbEntity
8
0
100
AcDbRasterImage
90
0
10
89
20
125.09166717529297
30
0
11
0.9992426091974432
21
0
31
0
12
0
22
0.9992426091974432
32
0
13
22
23
22
340
2B
70
3
280
1
281
50
282
50
283
0
360
2D
71
1
91
2
14
-0.5
24
-0.5
14
21.5
24
21.5
290
1
0
ENDSEC
0
SECTION
2
OBJECTS
0
DICTIONARY
5
A
330
0
100
AcDbDictionary
281
1
3
ACAD_GROUP
350
B
3
ACAD_IMAGE_DICT
350
25
3
ACAD_IMAGE_DICT
350
2E
0
DICTIONARY
5
B
330
A
100
AcDbDictionary
281
0
0
IMAGEDEF
5
22
330
25
102
{ACAD_REACTORS
330
25
330
24
102
}
100
AcDbRasterImageDef
1
images/image1.jpg
10
30
20
35
11
1
21
1
280
1
281
0
0
IMAGEDEF_REACTOR
5
24
330
0
100
AcDbRasterImageDefReactor
90
2
330
23
0
DICTIONARY
5
25
330
A
100
AcDbDictionary
281
0
3
image1
350
22
0
IMAGEDEF
5
2B
330
2E
102
{ACAD_REACTORS
330
2E
330
2D
102
}
100
AcDbRasterImageDef
1
images/image2.jpg
10
22
20
22
11
1
21
1
280
1
281
0
0
IMAGEDEF_REACTOR
5
2D
330
0
100
AcDbRasterImageDefReactor
90
2
330
2C
0
DICTIONARY
5
2E
330
A
100
AcDbDictionary
281
0
3
image2
350
2B
0
ENDSEC
0
EOF