0
SECTION
2
HEADER
9
$ACADVER
1
AC1021
9
$LASTSAVEDBY
1
@tarikjabiri/dxf
9
$HANDSEED
5
27
9
$INSUNITS
70
0
9
$CLAYER
8
0
9
$VIEWCTR
10
67
20
280.88489183262305
0
ENDSEC
0
SECTION
2
CLASSES
0
ENDSEC
0
SECTION
2
TABLES
0
TABLE
2
VPORT
5
1
330
0
100
AcDbSymbolTable
70
1
0
VPORT
5
19
330
1
100
AcDbSymbolTableRecord
100
AcDbViewportTableRecord
2
*Active
70
0
10
0
20
0
11
1
21
1
12
67
22
280.88489183262305
13
0
23
0
14
10
24
10
15
10
25
10
16
0
26
0
36
1
17
0
27
0
37
0
40
761.7697836652461
41
2
42
50
43
0
44
0
50
0
51
0
71
0
72
100
73
1
74
3
75
0
76
1
77
0
78
0
281
0
65
1
110
0
120
0
130
0
111
1
121
0
131
0
112
0
122
1
132
0
79
0
146
0
348
10020
60
7
61
5
292
1
282
1
141
0
142
0
63
250
421
3358443
0
ENDTAB
0
TABLE
2
LTYPE
5
2
330
0
100
AcDbSymbolTable
70
3
0
LTYPE
5
12
330
2
100
AcDbSymbolTableRecord
100
AcDbLinetypeTableRecord
2
ByBlock
70
0
3

72
65
73
0
40
0
0
LTYPE
5
13
330
2
100
AcDbSymbolTableRecord
100
AcDbLinetypeTableRecord
2
ByLayer
70
0
3

72
65
73
0
40
0
0
LTYPE
5
14
330
2
100
AcDbSymbolTableRecord
100
AcDbLinetypeTableRecord
2
Continuous
70
0
3
Solid line
72
65
73
0
40
0
0
ENDTAB
0
TABLE
2
LAYER
5
3
330
0
100
AcDbSymbolTable
70
1
0
LAYER
5
15
330
3
100
AcDbSymbolTableRecord
100
AcDbLayerTableRecord
2
0
70
0
62
7
6
Continuous
370
0
390
0
0
ENDTAB
0
TABLE
2
STYLE
5
4
330
0
100
AcDbSymbolTable
70
1
0
STYLE
5
16
330
4
100
AcDbSymbolTableRecord
100
AcDbTextStyleTableRecord
2
Standard
70
0
40
0
41
1
50
0
71
0
42
1
3
txt
4

0
ENDTAB
0
TABLE
2
VIEW
5
5
330
0
100
AcDbSymbolTable
70
0
0
ENDTAB
0
TABLE
2
UCS
5
6
330
0
100
AcDbSymbolTable
70
0
0
ENDTAB
0
TABLE
2
APPID
5
7
330
0
100
AcDbSymbolTable
70
1
0
APPID
5
17
330
7
100
AcDbSymbolTableRecord
100
AcDbRegAppTableRecord
2
ACAD
70
0
0
ENDTAB
0
TABLE
2
DIMSTYLE
5
8
330
0
100
AcDbSymbolTable
70
1
100
AcDbDimStyleTable
0
DIMSTYLE
105
18
330
8
100
AcDbSymbolTableRecord
100
AcDbDimStyleTableRecord
2
Standard
70
0
340
16
0
ENDTAB
0
TABLE
2
BLOCK_RECORD
5
9
330
0
100
AcDbSymbolTable
70
2
0
BLOCK_RECORD
5
C
330
9
100
AcDbSymbolTableRecord
100
AcDbBlockTableRecord
2
*Model_Space
70
0
280
1
281
0
0
BLOCK_RECORD
5
F
330
9
100
AcDbSymbolTableRecord
100
AcDbBlockTableRecord
2
*Paper_Space
70
0
280
1
281
0
0
ENDTAB
0
ENDSEC
0
SECTION
2
BLOCKS
0
BLOCK
5
D
330
C
100
AcDbEntity
8
0
100
AcDbBlockBegin
2
*Model_Space
70
0
10
0
20
0
30
0
3
*Model_Space
1

0
ENDBLK
5
E
100
AcDbEntity
8
0
100
AcDbBlockEnd
0
BLOCK
5
10
330
F
100
AcDbEntity
8
0
100
AcDbBlockBegin
2
*Paper_Space
70
0
10
0
20
0
30
0
3
*Paper_Space
1

0
ENDBLK
5
11
100
AcDbEntity
8
0
100
AcDbBlockEnd
0
ENDSEC
0
SECTION
2
ENTITIES
0
LWPOLYLINE
5
1A
330
C
100
AcDbEntity
420
0
8
0
100
AcDbPolyline
90
5
70
0
43
0
38
0
39
0
10
80
20
580
10
162
20
580
10
162
20
458
10
80
20
458
10
80
20
580
0
IMAGE
5
1C
330
C
100
AcDbEntity
8
0
100
AcDbRasterImage
90
0
10
81
20
573.5
30
0
11
1
21
0
31
0
12
0
22
1
32
0
13
20
23
20
340
1B
70
3
280
1
281
50
282
50
283
0
360
1D
71
1
91
2
14
-0.5
24
-0.5
14
19.5
24
19.5
290
1
0
IMAGE
5
20
330
C
100
AcDbEntity
8
0
100
AcDbRasterImage
90
0
10
150
20
580
30
0
11
1
21
0
31
0
12
0
22
1
32
0
13
29
23
11
340
1F
70
3
280
1
281
50
282
50
283
0
360
21
71
1
91
2
14
-0.5
24
-0.5
14
28.5
24
10.5
290
1
0
LWPOLYLINE
5
23
330
C
100
AcDbEntity
420
0
8
0
100
AcDbPolyline
90
65
70
0
43
0
38
0
39
0
10
145
20
505
10
146.39163208007812
20
505.09925842285156
10
147.78390502929688
20
505.18914794921875
10
149.17674255371094
20
505.26979064941406
10
150.570068359375
20
505.3415222167969
10
151.9637908935547
20
505.40478515625
10
153.35789489746094
20
505.4596405029297
10
154.7522735595703
20
505.506591796875
10
156.14688110351562
20
505.5457763671875
10
157.5417022705078
20
505.5773620605469
10
158.93666076660156
20
505.6018981933594
10
160.33172607421875
20
505.6191864013672
10
161.7268524169922
20
505.6297302246094
10
163.12200927734375
20
505.63377380371094
10
164.51718139648438
20
505.6312561035156
10
165.91232299804688
20
505.6225128173828
10
167.3074188232422
20
505.6077575683594
10
168.7024383544922
20
505.5872039794922
10
170.09735107421875
20
505.5603485107422
10
171.49215698242188
20
505.52845764160156
10
172.88682556152344
20
505.4911804199219
10
174.28134155273438
20
505.4486541748047
10
175.6757049560547
20
505.4010009765625
10
177.0698699951172
20
505.34832763671875
10
178.46385192871094
20
505.290771484375
10
179.85763549804688
20
505.2284698486328
10
181.25119018554688
20
505.16151428222656
10
182.64453125
20
505.0900115966797
10
184.0376434326172
20
505.0140838623047
10
185.4304962158203
20
504.9337921142578
10
186.82310485839844
20
504.84930419921875
10
188.2154541015625
20
504.7606658935547
10
189.6075439453125
20
504.66796875
10
190.99937438964844
20
504.5713653564453
10
192.3909149169922
20
504.4709014892578
10
193.78219604492188
20
504.36663818359375
10
195.1731719970703
20
504.2587127685547
10
196.5638885498047
20
504.1471862792969
10
197.95431518554688
20
504.0321502685547
10
199.3444366455078
20
503.9136505126953
10
200.73426818847656
20
503.7917785644531
10
202.1238250732422
20
503.6666259765625
10
203.51307678222656
20
503.5382385253906
10
204.9020233154297
20
503.4067077636719
10
206.2906951904297
20
503.2720642089844
10
207.67904663085938
20
503.13438415527344
10
209.06707763671875
20
502.9933319091797
10
210.45480346679688
20
502.84938049316406
10
211.84222412109375
20
502.70257568359375
10
213.22935485839844
20
502.552978515625
10
214.61618041992188
20
502.40065002441406
10
216.00271606445312
20
502.2456512451172
10
217.38894653320312
20
502.0880432128906
10
218.77487182617188
20
501.9276428222656
10
220.16046142578125
20
501.7643737792969
10
221.54574584960938
20
501.59861755371094
10
222.93075561523438
20
501.4304504394531
10
224.31546020507812
20
501.2599182128906
10
225.6998748779297
20
501.0870361328125
10
227.083984375
20
500.9116973876953
10
228.46775817871094
20
500.7336883544922
10
229.8512420654297
20
500.553466796875
10
231.23443603515625
20
500.37107849121094
10
232.6173553466797
20
500.1865692138672
10
234
20
500
0
LWPOLYLINE
5
24
330
C
100
AcDbEntity
420
0
8
0
100
AcDbPolyline
90
65
70
0
43
0
38
0
39
0
10
145
20
505
10
146.39163208007812
20
505.09925842285156
10
147.78390502929688
20
505.18914794921875
10
149.17674255371094
20
505.26979064941406
10
150.570068359375
20
505.3415222167969
10
151.9637908935547
20
505.40478515625
10
153.35789489746094
20
505.4596405029297
10
154.7522735595703
20
505.506591796875
10
156.14688110351562
20
505.5457763671875
10
157.5417022705078
20
505.5773620605469
10
158.93666076660156
20
505.6018981933594
10
160.33172607421875
20
505.6191864013672
10
161.7268524169922
20
505.6297302246094
10
163.12200927734375
20
505.63377380371094
10
164.51718139648438
20
505.6312561035156
10
165.91232299804688
20
505.6225128173828
10
167.3074188232422
20
505.6077575683594
10
168.7024383544922
20
505.5872039794922
10
170.09735107421875
20
505.5603485107422
10
171.49215698242188
20
505.52845764160156
10
172.88682556152344
20
505.4911804199219
10
174.28134155273438
20
505.4486541748047
10
175.6757049560547
20
505.4010009765625
10
177.0698699951172
20
505.34832763671875
10
178.46385192871094
20
505.290771484375
10
179.85763549804688
20
505.2284698486328
10
181.25119018554688
20
505.16151428222656
10
182.64453125
20
505.0900115966797
10
184.0376434326172
20
505.0140838623047
10
185.4304962158203
20
504.9337921142578
10
186.82310485839844
20
504.84930419921875
10
188.2154541015625
20
504.7606658935547
10
189.6075439453125
20
504.66796875
10
190.99937438964844
20
504.5713653564453
10
192.3909149169922
20
504.4709014892578
10
193.78219604492188
20
504.36663818359375
10
195.1731719970703
20
504.2587127685547
10
196.5638885498047
20
504.1471862792969
10
197.95431518554688
20
504.0321502685547
10
199.3444366455078
20
503.9136505126953
10
200.73426818847656
20
503.7917785644531
10
202.1238250732422
20
503.6666259765625
10
203.51307678222656
20
503.5382385253906
10
204.9020233154297
20
503.4067077636719
10
206.2906951904297
20
503.2720642089844
10
207.67904663085938
20
503.13438415527344
10
209.06707763671875
20
502.9933319091797
10
210.45480346679688
20
502.84938049316406
10
211.84222412109375
20
502.70257568359375
10
213.22935485839844
20
502.552978515625
10
214.61618041992188
20
502.40065002441406
10
216.00271606445312
20
502.2456512451172
10
217.38894653320312
20
502.0880432128906
10
218.77487182617188
20
501.9276428222656
10
220.16046142578125
20
501.7643737792969
10
221.54574584960938
20
501.59861755371094
10
222.93075561523438
20
501.4304504394531
10
224.31546020507812
20
501.2599182128906
10
225.6998748779297
20
501.0870361328125
10
227.083984375
20
500.9116973876953
10
228.46775817871094
20
500.7336883544922
10
229.8512420654297
20
500.553466796875
10
231.23443603515625
20
500.37107849121094
10
232.6173553466797
20
500.1865692138672
10
234
20
500
0
HATCH
5
25
330
C
100
AcDbEntity
420
0
8
0
100
AcDbHatch
10
0
20
0
30
0
210
0
220
0
230
1
2
SOLID
70
1
71
0
91
1
92
7
72
0
73
1
93
33
10
222.91012491635365
20
507.5508059589106
10
223.60324210908155
20
507.0788805864787
10
224.29636035942235
20
506.60695449394586
10
224.98947649453734
20
506.1350298416149
10
225.68259368726524
20
505.66310446918294
10
226.3757114087996
20
505.1911787367005
10
227.06882807272103
20
504.7192537243191
10
227.76194526544893
20
504.2473283518872
10
228.45506245817683
20
503.7754029794553
10
229.14818017971118
20
503.3034772469729
10
229.84129684363262
20
502.83155223459147
10
230.53441405548998
20
502.3596270039259
10
231.2275312290884
20
501.88770148972765
10
231.92064840268685
20
501.4157759755294
10
232.6137656432384
20
500.9438509575133
10
233.30688282161918
20
500.4719254787567
10
234
20
500
10
233.20658923338212
20
499.7286603351461
10
232.41317861979985
20
499.4573218044229
10
231.6197691403483
20
499.18598312066416
10
230.82635799795955
20
498.9146449499915
10
230.03294677905305
20
498.64330621225344
10
229.2395373761193
20
498.37196809555996
10
228.44612498482314
20
498.10062922732493
10
227.6527155818894
20
497.82929111063146
10
226.8593055736314
20
497.5579527869232
10
226.06589350412685
20
497.2866141639619
10
225.27248377940148
20
497.0152758019947
10
224.4790737711435
20
496.74393747828634
10
223.68566180514637
20
496.4725985526629
10
222.8922519769136
20
496.20126049335784
10
222.0988400109165
20
495.92992156773437
10
221.30543018268372
20
495.6585835084293
97
0
75
1
76
1
47
1
98
0
0
LWPOLYLINE
5
26
330
C
100
AcDbEntity
420
0
8
0
100
AcDbPolyline
90
34
70
0
43
0
38
0
39
0
10
222.91012491635365
20
507.5508059589106
10
223.60324210908155
20
507.0788805864787
10
224.29636035942235
20
506.60695449394586
10
224.98947649453734
20
506.1350298416149
10
225.68259368726524
20
505.66310446918294
10
226.3757114087996
20
505.1911787367005
10
227.06882807272103
20
504.7192537243191
10
227.76194526544893
20
504.2473283518872
10
228.45506245817683
20
503.7754029794553
10
229.14818017971118
20
503.3034772469729
10
229.84129684363262
20
502.83155223459147
10
230.53441405548998
20
502.3596270039259
10
231.2275312290884
20
501.88770148972765
10
231.92064840268685
20
501.4157759755294
10
232.6137656432384
20
500.9438509575133
10
233.30688282161918
20
500.4719254787567
10
234
20
500
10
233.20658923338212
20
499.7286603351461
10
232.41317861979985
20
499.4573218044229
10
231.6197691403483
20
499.18598312066416
10
230.82635799795955
20
498.9146449499915
10
230.03294677905305
20
498.64330621225344
10
229.2395373761193
20
498.37196809555996
10
228.44612498482314
20
498.10062922732493
10
227.6527155818894
20
497.82929111063146
10
226.8593055736314
20
497.5579527869232
10
226.06589350412685
20
497.2866141639619
10
225.27248377940148
20
497.0152758019947
10
224.4790737711435
20
496.74393747828634
10
223.68566180514637
20
496.4725985526629
10
222.8922519769136
20
496.20126049335784
10
222.0988400109165
20
495.92992156773437
10
221.30543018268372
20
495.6585835084293
10
222.91012491635365
20
507.5508059589106
0
ENDSEC
0
SECTION
2
OBJECTS
0
DICTIONARY
5
A
330
0
100
AcDbDictionary
281
1
3
ACAD_GROUP
350
B
3
ACAD_IMAGE_DICT
350
1E
3
ACAD_IMAGE_DICT
350
22
0
DICTIONARY
5
B
330
A
100
AcDbDictionary
281
0
0
IMAGEDEF
5
1B
330
1E
102
{ACAD_REACTORS
330
1E
330
1D
102
}
100
AcDbRasterImageDef
1
images/image1.jpg
10
20
20
20
11
1
21
1
280
1
281
0
0
IMAGEDEF_REACTOR
5
1D
330
0
100
AcDbRasterImageDefReactor
90
2
330
1C
0
DICTIONARY
5
1E
330
A
100
AcDbDictionary
281
0
3
image1
350
1B
0
IMAGEDEF
5
1F
330
22
102
{ACAD_REACTORS
330
22
330
21
102
}
100
AcDbRasterImageDef
1
images/image2.png
10
29
20
11
11
1
21
1
280
1
281
0
0
IMAGEDEF_REACTOR
5
21
330
0
100
AcDbRasterImageDefReactor
90
2
330
20
0
DICTIONARY
5
22
330
A
100
AcDbDictionary
281
0
3
image2
350
1F
0
ENDSEC
0
EOF