  0
SECTION
  2
HEADER
  9
$ANGBASE
 50
0.0
  9
$ANGDIR
 70
1
  9
$AUNITS
 70
0
  9
$AUPREC
 70
0
  9
$ATTMODE
 70
1
  9
$DWGCODEPAGE
  3
ANSI_1252
  9
$TDCREATE
 40
2461146.9545263890177011
  9
$CECOLOR
 62
256
  9
$CELTSCALE
 40
1.0
  9
$CELWEIGHT
370
-1
  9
$CLAYER
  8
0
  9
$CELTYPE
  6
ByLayer
  9
$CMLJUST
 70
0
  9
$CMLSCALE
 40
20.0
  9
$CMLSTYLE
  2
Standard
  9
$DIMSTYLE
  2
Standard
  9
$LWDISPLAY
290
0
  9
$EXTNAMES
290
1
  9
$HANDSEED
  5
37
  9
$INSUNITS
 70
0
  9
$LUNITS
 70
2
  9
$LUPREC
 70
4
  9
$LTSCALE
 40
1.0
  9
$MIRRTEXT
 70
0
  9
$INSBASE
 10
0.0
 20
0.0
 30
0.0
  9
$SPLINESEGS
 70
8
  9
$PSLTSCALE
 70
1
  9
$PDMODE
 70
0
  9
$PDSIZE
 40
0.0
  9
$PLINEGEN
 70
0
  9
$TEXTSIZE
 40
0.2
  9
$TEXTSTYLE
  7
Standard
  9
$TDINDWG
 40
0.0
  9
$TDUCREATE
 40
2461146.9545263890177011
  9
$TDUUPDATE
 40
2461146.9545263890177011
  9
$TDUPDATE
 40
2461146.9545263890177011
  9
$ACADVER
  1
AC1018
  0
ENDSEC
  0
SECTION
  2
CLASSES
  0
CLASS
  1
ACDBDICTIONARYWDFLT
  2
AcDbDictionaryWithDefault
  3
ObjectDBX Classes
 90
32768
 91
0
280
0
281
0
  0
CLASS
  1
ACDBPLACEHOLDER
  2
AcDbPlaceHolder
  3
ObjectDBX Classes
 90
0
 91
0
280
0
281
0
  0
CLASS
  1
LAYOUT
  2
AcDbLayout
  3
ObjectDBX Classes
 90
0
 91
0
280
0
281
0
  0
CLASS
  1
DICTIONARYVAR
  2
AcDbDictionaryVar
  3
ObjectDBX Classes
 90
0
 91
0
280
0
281
0
  0
CLASS
  1
TABLESTYLE
  2
AcDbTableStyle
  3
ObjectDBX Classes
 90
4095
 91
0
280
0
281
0
  0
CLASS
  1
MATERIAL
  2
AcDbMaterial
  3
ObjectDBX Classes
 90
1153
 91
0
280
0
281
0
  0
CLASS
  1
VISUALSTYLE
  2
AcDbVisualStyle
  3
ObjectDBX Classes
 90
4095
 91
0
280
0
281
0
  0
CLASS
  1
SCALE
  2
AcDbScale
  3
ObjectDBX Classes
 90
1153
 91
0
280
0
281
0
  0
CLASS
  1
MLEADERSTYLE
  2
AcDbMLeaderStyle
  3
ObjectDBX Classes
 90
4095
 91
0
280
0
281
0
  0
CLASS
  1
CELLSTYLEMAP
  2
AcDbCellStyleMap
  3
ObjectDBX Classes
 90
1152
 91
0
280
0
281
0
  0
CLASS
  1
EXACXREFPANELOBJECT
  2
ExAcXREFPanelObject
  3
ObjectDBX Classes
 90
1025
 91
0
280
0
281
0
  0
CLASS
  1
NPOCOLLECTION
  2
AcDbImpNonPersistentObjectsCollection
  3
ObjectDBX Classes
 90
1153
 91
0
280
0
281
0
  0
CLASS
  1
LAYER_INDEX
  2
AcDbLayerIndex
  3
ObjectDBX Classes
 90
0
 91
0
280
0
281
0
  0
CLASS
  1
SPATIAL_INDEX
  2
AcDbSpatialIndex
  3
ObjectDBX Classes
 90
0
 91
0
280
0
281
0
  0
CLASS
  1
IDBUFFER
  2
AcDbIdBuffer
  3
ObjectDBX Classes
 90
32768
 91
0
280
0
281
0
  0
CLASS
  1
ACDBSECTIONVIEWSTYLE
  2
AcDbSectionViewStyle
  3
ObjectDBX Classes
 90
1025
 91
0
280
0
281
0
  0
CLASS
  1
ACDBDETAILVIEWSTYLE
  2
AcDbDetailViewStyle
  3
ObjectDBX Classes
 90
1025
 91
0
280
0
281
0
  0
CLASS
  1
MESH
  2
AcDbSubDMesh
  3
ObjectDBX Classes
 90
0
 91
0
280
0
281
1
  0
CLASS
  1
SORTENTSTABLE
  2
AcDbSortentsTable
  3
ObjectDBX Classes
 90
0
 91
0
280
0
281
0
  0
CLASS
  1
ACDB_TEXTOBJECTCONTEXTDATA_CLASS
  2
AcDbTextObjectContextData
  3
ObjectDBX Classes
 90
1153
 91
0
280
0
281
0
  0
CLASS
  1
WIPEOUT
  2
AcDbWipeout
  3
WipeOut
 90
32895
 91
0
280
0
281
1
  0
CLASS
  1
WIPEOUTVARIABLES
  2
AcDbWipeoutVariables
  3
WipeOut
 90
32768
 91
0
280
0
281
0
  0
CLASS
  1
DIMASSOC
  2
AcDbDimAssoc
  3
AcDbDimAssoc
 90
0
 91
0
280
0
281
0
  0
CLASS
  1
ACAD_TABLE
  2
AcDbTable
  3
ObjectDBX Classes
 90
1025
 91
0
280
0
281
1
  0
CLASS
  1
TABLECONTENT
  2
AcDbTableContent
  3
ObjectDBX Classes
 90
1152
 91
0
280
0
281
0
  0
CLASS
  1
TABLEGEOMETRY
  2
AcDbTableGeometry
  3
ObjectDBX Classes
 90
1152
 91
0
280
0
281
0
  0
CLASS
  1
IMAGE
  2
AcDbRasterImage
  3
ISM
 90
32895
 91
0
280
0
281
1
  0
CLASS
  1
IMAGEDEF
  2
AcDbRasterImageDef
  3
ISM
 90
0
 91
0
280
0
281
0
  0
CLASS
  1
IMAGEDEF_REACTOR
  2
AcDbRasterImageDefReactor
  3
ISM
 90
1
 91
0
280
0
281
0
  0
CLASS
  1
DBCOLOR
  2
AcDbColor
  3
ObjectDBX Classes
 90
0
 91
0
280
0
281
0
  0
CLASS
  1
GEODATA
  2
AcDbGeoData
  3
ObjectDBX Classes
 90
4095
 91
0
280
0
281
0
  0
CLASS
  1
MULTILEADER
  2
AcDbMLeader
  3
ObjectDBX Classes
 90
1025
 91
0
280
0
281
0
  0
CLASS
  1
PDFUNDERLAY
  2
AcDbPdfReference
  3
ObjectDBX Classes
 90
4095
 91
0
280
0
281
1
  0
CLASS
  1
PDFDEFINITION
  2
AcDbPdfDefinition
  3
ObjectDBX Classes
 90
1153
 91
0
280
0
281
0
  0
CLASS
  1
RASTERVARIABLES
  2
AcDbRasterVariables
  3
ISM
 90
0
 91
0
280
0
281
0
  0
CLASS
  1
SPATIAL_FILTER
  2
AcDbSpatialFilter
  3
ObjectDBX Classes
 90
0
 91
0
280
0
281
0
  0
CLASS
  1
ACDB_MLEADEROBJECTCONTEXTDATA_CLASS
  2
AcDbMLeaderObjectContextData
  3
ObjectDBX Classes
 90
1025
 91
0
280
0
281
0
  0
CLASS
  1
PLOTSETTINGS
  2
AcDbPlotSettings
  3
ObjectDBX Classes
 90
0
 91
0
280
0
281
0
  0
CLASS
  1
FIELD
  2
AcDbField
  3
ObjectDBX Classes
 90
1152
 91
0
280
0
281
0
  0
CLASS
  1
FIELDLIST
  2
AcDbFieldList
  3
ObjectDBX Classes
 90
1152
 91
0
280
0
281
0
  0
CLASS
  1
ACDB_MTEXTATTRIBUTEOBJECTCONTEXTDATA_CLASS
  2
AcDbMTextAttributeObjectContextData
  3
ObjectDBX Classes
 90
1153
 91
0
280
0
281
0
  0
CLASS
  1
ACDB_BLKREFOBJECTCONTEXTDATA_CLASS
  2
AcDbBlkRefObjectContextData
  3
ObjectDBX Classes
 90
1153
 91
0
280
0
281
0
  0
ENDSEC
  0
SECTION
  2
TABLES
  0
TABLE
  2
VPORT
  5
18
330
0
100
AcDbSymbolTable
 70
1
  0
VPORT
  5
26
330
18
100
AcDbSymbolTableRecord
100
AcDbViewportTableRecord
  2
*Active
 70
0
 10
0.0
 20
0.0
 11
1.0
 21
1.0
 12
0.0
 22
0.0
 13
0.0
 23
0.0
 14
0.5
 24
0.5
 15
10.0
 25
10.0
 16
0.0
 26
0.0
 36
1.0
 17
0.0
 27
0.0
 37
0.0
 40
10.0
 41
1.0
 75
0
 76
1
  0
ENDTAB
  0
TABLE
  2
LTYPE
  5
14
330
0
100
AcDbSymbolTable
 70
3
  0
LTYPE
  5
19
330
14
100
AcDbSymbolTableRecord
100
AcDbLinetypeTableRecord
  2
ByLayer
 70
0
 72
0
 73
0
 40
0.0
  0
LTYPE
  5
1A
330
14
100
AcDbSymbolTableRecord
100
AcDbLinetypeTableRecord
  2
ByBlock
 70
0
 72
0
 73
0
 40
0.0
  0
LTYPE
  5
1B
330
14
100
AcDbSymbolTableRecord
100
AcDbLinetypeTableRecord
  2
Continuous
 70
0
 72
0
 73
0
 40
0.0
  0
ENDTAB
  0
TABLE
  2
LAYER
  5
13
330
0
100
AcDbSymbolTable
 70
1
  0
LAYER
  5
1C
330
13
100
AcDbSymbolTableRecord
100
AcDbLayerTableRecord
  2
0
 70
0
 62
7
  6
Continuous
290
1
370
-3
390
0
  0
ENDTAB
  0
TABLE
  2
STYLE
  5
15
330
0
100
AcDbSymbolTable
 70
1
  0
STYLE
  5
23
330
15
100
AcDbSymbolTableRecord
100
AcDbTextStyleTableRecord
  2
Standard
 70
0
 40
0.0
 41
1.0
 42
0.0
 50
0.0
 71
0
  0
ENDTAB
  0
TABLE
  2
VIEW
  5
17
330
0
100
AcDbSymbolTable
 70
0
  0
ENDTAB
  0
TABLE
  2
UCS
  5
16
330
0
100
AcDbSymbolTable
 70
0
  0
ENDTAB
  0
TABLE
  2
APPID
  5
10
330
0
100
AcDbSymbolTable
 70
1
  0
APPID
  5
25
330
10
100
AcDbSymbolTableRecord
100
AcDbRegAppTableRecord
  2
ACAD
 70
0
  0
ENDTAB
  0
TABLE
  2
DIMSTYLE
  5
12
330
0
100
AcDbSymbolTable
 70
1
100
AcDbDimStyleTable
  0
DIMSTYLE
105
24
330
12
100
AcDbSymbolTableRecord
100
AcDbDimStyleTableRecord
  2
Standard
 70
0
  3
<>
  4
[]
 40
1.0
 41
0.18
 42
0.625
 43
3.75
 44
1.25
 45
0.0
 46
0.0
 47
0.0
 48
0.0
 49
1.0
 50
45.0
 70
0
 90
0
140
0.18
141
0.09
142
0.0
143
25.3999999999999986
144
1.0
145
0.0
146
1.0
147
0.625
148
0.0
 71
0
 72
0
 73
0
 74
0
 75
0
 76
0
 77
1
 78
8
 79
0
170
0
171
3
172
0
173
1
174
0
175
0
176
0
177
0
178
0
179
0
271
2
272
2
273
2
274
3
275
0
276
0
277
2
278
46
279
0
280
0
281
0
282
0
283
0
284
8
285
0
286
0
287
0
288
0
289
3
290
0
340
0
371
-2
372
-2
  0
ENDTAB
  0
TABLE
  2
BLOCK_RECORD
  5
11
330
0
100
AcDbSymbolTable
 70
2
  0
BLOCK_RECORD
  5
1D
330
11
100
AcDbSymbolTableRecord
100
AcDbBlockTableRecord
  2
*Model_Space
 70
0
340
0
 70
0
280
0
281
1
  0
BLOCK_RECORD
  5
20
330
11
100
AcDbSymbolTableRecord
100
AcDbBlockTableRecord
  2
*Paper_Space
 70
0
340
0
 70
0
280
0
281
1
  0
ENDTAB
  0
ENDSEC
  0
SECTION
  2
BLOCKS
  0
BLOCK
  5
1E
330
1D
100
AcDbEntity
  8
0
  6
ByLayer
 62
256
 48
1.0
 60
0
 67
0
370
-1
100
AcDbBlockBegin
  2
*Model_Space
 70
0
 10
0.0
 20
0.0
 30
0.0
  3
*Model_Space
  0
ENDBLK
  5
1F
330
1D
100
AcDbEntity
  8
0
100
AcDbBlockEnd
  0
BLOCK
  5
21
330
20
100
AcDbEntity
  8
0
  6
ByLayer
 62
256
 48
1.0
 60
0
 67
1
370
-1
100
AcDbBlockBegin
  2
*Paper_Space
 70
0
 10
0.0
 20
0.0
 30
0.0
  3
*Paper_Space
  0
ENDBLK
  5
22
330
20
100
AcDbEntity
  8
0
100
AcDbBlockEnd
  0
ENDSEC
  0
SECTION
  2
ENTITIES
  0
LWPOLYLINE
  5
27
330
1D
100
AcDbEntity
  8
0
  6
ByLayer
420
0
 48
1.0
 60
0
 67
0
370
-1
100
AcDbPolyline
 90
32
 70
1
 43
0.0
 38
0.0
 39
0.0
210
0.0
220
0.0
230
1.0
 10
175.5000098645359969
 20
169.7269756679160366
 40
0.0
 41
0.0
 42
0.0
 10
176.5193609528959655
 20
169.6211024352911636
 40
0.0
 41
0.0
 42
0.0
 10
177.499538950588942
 20
169.3075513863718982
 40
0.0
 41
0.0
 42
0.0
 10
178.40287616685373
 20
168.7983721121267422
 40
0.0
 41
0.0
 42
0.0
 10
179.1946578590666377
 20
168.1131320865139571
 40
0.0
 41
0.0
 42
0.0
 10
179.8444563008321779
 20
167.2781646994307607
 40
0.0
 41
0.0
 42
0.0
 10
180.3273001024444966
 20
166.3255572793077022
 40
0.0
 41
0.0
 42
0.0
 10
180.6246338473895605
 20
165.2919179950716568
 40
0.0
 41
0.0
 42
0.0
 10
180.7250311665957838
 20
164.2169690247442588
 40
0.0
 41
0.0
 42
0.0
 10
180.6246338473895605
 20
163.1420200544168893
 40
0.0
 41
0.0
 42
0.0
 10
180.3273001024444966
 20
162.1083807701808439
 40
0.0
 41
0.0
 42
0.0
 10
179.8444563008321779
 20
161.1557733500577569
 40
0.0
 41
0.0
 42
0.0
 10
179.1946578590666377
 20
160.320805962974589
 40
0.0
 41
0.0
 42
0.0
 10
178.40287616685373
 20
159.6355659373617755
 40
0.0
 41
0.0
 42
0.0
 10
177.499538950588942
 20
159.1263866631166479
 40
0.0
 41
0.0
 42
0.0
 10
176.5193609528959655
 20
158.8128356141973541
 40
0.0
 41
0.0
 42
0.0
 10
175.5000098645359969
 20
158.706962381572481
 40
0.0
 41
0.0
 42
0.0
 10
174.4806587761760284
 20
158.8128356141973541
 40
0.0
 41
0.0
 42
0.0
 10
173.5004807784830518
 20
159.1263866631166479
 40
0.0
 41
0.0
 42
0.0
 10
172.5971435622182639
 20
159.6355659373617755
 40
0.0
 41
0.0
 42
0.0
 10
171.8053618700053846
 20
160.320805962974589
 40
0.0
 41
0.0
 42
0.0
 10
171.1555634282398159
 20
161.1557733500577569
 40
0.0
 41
0.0
 42
0.0
 10
170.6727196266274973
 20
162.1083807701808439
 40
0.0
 41
0.0
 42
0.0
 10
170.3753858816824618
 20
163.1420200544168893
 40
0.0
 41
0.0
 42
0.0
 10
170.2749885624762385
 20
164.2169690247442588
 40
0.0
 41
0.0
 42
0.0
 10
170.3753858816824618
 20
165.2919179950716568
 40
0.0
 41
0.0
 42
0.0
 10
170.6727196266274973
 20
166.3255572793077022
 40
0.0
 41
0.0
 42
0.0
 10
171.1555634282398159
 20
167.2781646994307607
 40
0.0
 41
0.0
 42
0.0
 10
171.8053618700053846
 20
168.1131320865139571
 40
0.0
 41
0.0
 42
0.0
 10
172.5971435622182639
 20
168.7983721121267422
 40
0.0
 41
0.0
 42
0.0
 10
173.5004807784830518
 20
169.3075513863718982
 40
0.0
 41
0.0
 42
0.0
 10
174.4806587761760284
 20
169.6211024352911636
 40
0.0
 41
0.0
 42
0.0
  0
HATCH
  5
28
330
1D
100
AcDbEntity
  8
0
  6
ByLayer
420
0
 48
1.0
 60
0
 67
0
370
-1
100
AcDbHatch
 30
0.0
210
0.0
220
0.0
230
1.0
  2
SOLID
 70
1
 71
0
 91
1
 92
2
 72
0
 73
1
 93
304
 10
175.7708815082968954
 20
149.1428307355942025
 10
179.0591907983168483
 20
149.1428307355942025
 10
180.6868831777782134
 20
149.085439050412532
 10
180.6097327891201871
 20
148.9691273439778172
 10
180.5325698434327251
 20
148.8528147489756179
 10
180.455406897745263
 20
148.7365021539734187
 10
180.3782565090872367
 20
148.6201904475387039
 10
180.3010935633997747
 20
148.5038778525365046
 10
180.22394317474172
 20
148.387565257534277
 10
180.1467802290542863
 20
148.2712526625321061
 10
180.0696298403962317
 20
148.1549405118136349
 10
179.9924668947087696
 20
148.0386279168114356
 10
179.9153165060507433
 20
147.9223157660929928
 10
179.8381535603632813
 20
147.8060031710907651
 10
179.7610031717052266
 20
147.6896910203723223
 10
179.6838402260177929
 20
147.5733784253701231
 10
179.6066898373597382
 20
147.4570667189354083
 10
179.5295268916722762
 20
147.340754123933209
 10
179.4523639459848425
 20
147.2244415289309813
 10
179.3752135573267878
 20
147.1081293782125385
 10
179.2980506116393258
 20
146.9918172274940957
 10
179.2209002229812995
 20
146.8755046324918681
 10
179.1437372772938375
 20
146.7591920374896972
 10
179.0665868886357828
 20
146.642879886771226
 10
178.9894239429483491
 20
146.5265677360527548
 10
178.9122735542902944
 20
146.4102551410505839
 10
178.8351106086028608
 20
146.2939429903321127
 10
178.7579602199448061
 20
146.1776308396136415
 10
178.680797274257344
 20
146.0613186888951986
 10
178.6036468855992894
 20
145.945006093892971
 10
178.5264839399118557
 20
145.8286934988908001
 10
178.449333551253801
 20
145.7123813481723289
 10
178.3721706055663674
 20
145.5960691974538577
 10
178.2950076598789053
 20
145.4797566024516868
 10
178.2178572712208506
 20
145.3634440074494591
 10
178.140694325533417
 20
145.2471318567310163
 10
178.0635439368753623
 20
145.1308192617288171
 10
177.9863809911879002
 20
145.0145075552940739
 10
177.909230602529874
 20
144.898194960291903
 10
177.8320676568424119
 20
144.7818828095734318
 10
177.7549172681843572
 20
144.6655702145712326
 10
177.6777543224969236
 20
144.5492580638527897
 10
177.6006039338388689
 20
144.4329454688505621
 10
177.5234409881514068
 20
144.3166333181321193
 10
177.4462905994933806
 20
144.200320945271784
 10
177.3691276538059185
 20
144.0840087945533128
 10
177.2919772651478638
 20
143.9676961995511419
 10
177.2148143194604302
 20
143.8513840488326707
 10
177.1376513737729681
 20
143.7350714538304715
 10
177.0605009851149134
 20
143.6187593031120286
 10
176.9833380394274798
 20
143.502446930251665
 10
176.9061876507694251
 20
143.3861347795332222
 10
176.829024705081963
 20
143.2698221845310229
 10
176.7518743164239368
 20
143.1535100338125517
 10
176.6747113707364747
 20
143.0371976609522449
 10
176.59756098207842
 20
142.9208855102337736
 10
176.5203980363909864
 20
142.8045729152315744
 10
176.4432476477329317
 20
142.6882603202293751
 10
176.366084702045498
 20
142.5719481695109039
 10
176.2889343133874434
 20
142.4556356855796366
 10
176.2117713676999813
 20
142.3393235348611938
 10
176.1346084220125476
 20
142.2230110509299266
 10
176.057458033354493
 20
142.1066989002114838
 10
175.9802950876670309
 20
141.9903864162802165
 10
175.9031446990090046
 20
141.8740742655617453
 10
175.8259817533215426
 20
141.757762114843274
 10
175.7488313646634879
 20
141.6414496309120068
 10
175.6716684189760542
 20
141.525137035909836
 10
175.5945180303179995
 20
141.4088244964430885
 10
175.5173550846305375
 20
141.2925128455438539
 10
175.4401795819136964
 20
141.3593732168989732
 10
175.363004079196827
 20
141.4756858119011724
 10
175.2858160194505786
 20
141.5919984069033717
 10
175.2086405167337375
 20
141.7083096690543584
 10
175.1314524569874607
 20
141.8246222640565293
 10
175.0542769542706196
 20
141.940934859058757
 10
174.9770888945243428
 20
142.0572474540609278
 10
174.8999133918075017
 20
142.1735591604956426
 10
174.8227253320612249
 20
142.2898717554978703
 10
174.7455498293443839
 20
142.4061839062163131
 10
174.6683617695981354
 20
142.5224965012185407
 10
174.591186266881266
 20
142.6388082076532555
 10
174.5139982071350175
 20
142.7551208026554264
 10
174.4368227044181481
 20
142.871433397657654
 10
174.3596346446718997
 20
142.9877459926598249
 10
174.2824591419550302
 20
143.1040585876620526
 10
174.2052710822087818
 20
143.2203698498130109
 10
174.1280955794919407
 20
143.3366824448152101
 10
174.0509075197456639
 20
143.4529950398174094
 10
173.9737320170288228
 20
143.5693076348196087
 10
173.896543957282546
 20
143.6856193412543234
 10
173.819368454565705
 20
143.8019319362565511
 10
173.7421929518488355
 20
143.918244531258722
 10
173.6650048921025871
 20
144.0345566819771932
 10
173.587829389385746
 20
144.150868388411908
 10
173.5106413296394692
 20
144.2671809834141072
 10
173.4334658269226281
 20
144.3834935784163065
 10
173.3562777671763513
 20
144.4998061734185058
 10
173.2791022644595103
 20
144.6161178798532205
 10
173.2019142047132618
 20
144.7324304748554482
 10
173.1247387019963924
 20
144.848742625573891
 10
173.0475506422501439
 20
144.9650552205760903
 10
172.9703751395332745
 20
145.0813669270108051
 10
172.8931870797870261
 20
145.1976795220130043
 10
172.8160115770701566
 20
145.3139921170152036
 10
172.7388235173239082
 20
145.4303042677336748
 10
172.6616480146070671
 20
145.5466159741683896
 10
172.5844599548607903
 20
145.6629285691705604
 10
172.5072844521439492
 20
145.7792411641727881
 10
172.4300963923976724
 20
145.8955537591749874
 10
172.3529208896808314
 20
146.0118654656097021
 10
172.2757328299345829
 20
146.1281780606119014
 10
172.1985573272177135
 20
146.2444906556141007
 10
172.121369267471465
 20
146.3608032506162999
 10
172.0441937647545956
 20
146.4771158456184992
 10
171.9670057050083471
 20
146.593427552053214
 10
171.8898302022914777
 20
146.7097397027716852
 10
171.8126421425452293
 20
146.826052297773856
 10
171.7354666398283882
 20
146.9423648927760837
 10
171.6582785800821114
 20
147.0586761549270705
 10
171.5811030773652703
 20
147.1749887499292413
 10
171.5039150176189935
 20
147.291301344931469
 10
171.4267395149021525
 20
147.4076139399336398
 10
171.349551455155904
 20
147.5239256463683546
 10
171.2723759524390346
 20
147.6402382413705823
 10
171.1951878926927861
 20
147.7565508363727531
 10
171.1180123899759167
 20
147.8728634313749808
 10
171.0408368872590756
 20
147.9891751378096956
 10
170.9636488275127988
 20
148.1054877328118948
 10
170.8864733247959578
 20
148.2217998835303661
 10
170.8092852650497093
 20
148.3381115899650808
 10
170.7321097623328399
 20
148.4544246292510081
 10
170.6549217025865914
 20
148.5707363356857229
 10
170.577746199869722
 20
148.6870480421204377
 10
170.5005581401234735
 20
148.8033615256901214
 10
170.4233826374066041
 20
148.9196732321248362
 10
170.3461945776603557
 20
149.0359867156945199
 10
170.5429506713913099
 20
149.1428307355942025
 10
173.8312348473524764
 20
149.1428307355942025
 10
175.2293847293090892
 20
149.2097087672280793
 10
175.2293847293090892
 20
149.326052462092207
 10
175.2293847293090892
 20
149.4423979340912751
 10
175.2293847293090892
 20
149.5587416289554028
 10
175.2293847293090892
 20
149.6750853238195305
 10
175.2293847293090892
 20
149.7914307958185987
 10
175.2293847293090892
 20
149.9077744906826979
 10
175.2293847293090892
 20
150.0241181855468255
 10
175.2293847293090892
 20
150.1404636575459222
 10
175.2293847293090892
 20
150.2568073524100214
 10
175.2293847293090892
 20
150.373152824409118
 10
175.2293847293090892
 20
150.4894965192732457
 10
175.2293847293090892
 20
150.6058402141373449
 10
175.2293847293090892
 20
150.7221856861364415
 10
175.2293847293090892
 20
150.8385293810005692
 10
175.2293847293090892
 20
150.9548730758646684
 10
175.2293847293090892
 20
151.0712185478637366
 10
175.2293847293090892
 20
151.1875622427278927
 10
175.2293847293090892
 20
151.3039077147269609
 10
175.2293847293090892
 20
151.4202514095910601
 10
175.2293847293090892
 20
151.5365951044551878
 10
175.2293847293090892
 20
151.6529405764542844
 10
175.2293847293090892
 20
151.7692842713183836
 10
175.2293847293090892
 20
151.8856279661825113
 10
175.2293847293090892
 20
152.0019734381816079
 10
175.2293847293090892
 20
152.1183171330457071
 10
175.2293847293090892
 20
152.2346626050448037
 10
175.2293847293090892
 20
152.3510062999089314
 10
175.2293847293090892
 20
152.4673499947730306
 10
175.2293847293090892
 20
152.5836954667720988
 10
175.2293847293090892
 20
152.7000391616362265
 10
175.2293847293090892
 20
152.8163846336353231
 10
175.2293847293090892
 20
152.9327283284994223
 10
175.2293847293090892
 20
153.04907202336355
 10
175.2293847293090892
 20
153.1654174953626466
 10
175.2293847293090892
 20
153.2817611902267458
 10
175.2293847293090892
 20
153.3981048850908735
 10
175.2293847293090892
 20
153.5144503570899701
 10
175.2293847293090892
 20
153.6307940519540693
 10
175.2293847293090892
 20
153.7471395239531375
 10
175.2293847293090892
 20
153.8634832188172936
 10
175.2293847293090892
 20
153.9798269136813929
 10
175.2293847293090892
 20
154.096172385680461
 10
175.2293847293090892
 20
154.2125160805445887
 10
175.2293847293090892
 20
154.3288597754087164
 10
175.2293847293090892
 20
154.4452052474077846
 10
175.2293847293090892
 20
154.5615489422719122
 10
175.2293847293090892
 20
154.6778944142710088
 10
175.2293847293090892
 20
154.7942381091351081
 10
175.2293847293090892
 20
154.9105818039992357
 10
175.2293847293090892
 20
155.0269272759983323
 10
175.2293847293090892
 20
155.1432709708624316
 10
175.2293847293090892
 20
155.2596146657265308
 10
175.2293847293090892
 20
155.3759601377256274
 10
175.2293847293090892
 20
155.4923038325897551
 10
175.2293847293090892
 20
155.6086493045888233
 10
175.2293847293090892
 20
155.7249929994529509
 10
175.2293847293090892
 20
155.8413366943170786
 10
175.2293847293090892
 20
155.9576821663161468
 10
175.2293847293090892
 20
156.0740258611802744
 10
175.2293847293090892
 20
156.190371333179371
 10
175.2293847293090892
 20
156.3067150280434703
 10
175.2293847293090892
 20
156.4230587229075695
 10
175.2293847293090892
 20
156.5394041949066946
 10
175.2293847293090892
 20
156.6557478897707938
 10
175.2293847293090892
 20
156.772091584634893
 10
175.2293847293090892
 20
156.8884370566339896
 10
175.2293847293090892
 20
157.0047807514981173
 10
175.2293847293090892
 20
157.1211262234971855
 10
175.2293847293090892
 20
157.2374699183613131
 10
175.2293847293090892
 20
157.3538136132254408
 10
175.2293847293090892
 20
157.470159085224509
 10
175.2293847293090892
 20
157.5865027800886367
 10
175.2293847293090892
 20
157.7028464749527643
 10
175.2293847293090892
 20
157.8191919469518325
 10
175.2293847293090892
 20
157.9355356418159602
 10
175.2293847293090892
 20
158.0518811138150284
 10
175.2293847293090892
 20
158.168224808679156
 10
175.2293847293090892
 20
158.2845685035432552
 10
175.2293847293090892
 20
158.4009139755423519
 10
175.2293847293090892
 20
158.5172576704064795
 10
175.2293847293090892
 20
158.6336013652705788
 10
175.7709066223556817
 20
158.6830696942033114
 10
175.7709066223556817
 20
158.5667242222042148
 10
175.7709066223556817
 20
158.4503787502051182
 10
175.7709066223556817
 20
158.3340368324759879
 10
175.7709066223556817
 20
158.2176913604768913
 10
175.7709066223556817
 20
158.1013458884777947
 10
175.7709066223556817
 20
157.9850039707486644
 10
175.7709066223556817
 20
157.8686584987495678
 10
175.7709066223556817
 20
157.7523130267504996
 10
175.7709066223556817
 20
157.6359711090213409
 10
175.7709066223556817
 20
157.5196256370222727
 10
175.7709066223556817
 20
157.4032801650231761
 10
175.7709066223556817
 20
157.2869382472940174
 10
175.7709066223556817
 20
157.1705927752949492
 10
175.7709066223556817
 20
157.0542473032958526
 10
175.7709066223556817
 20
156.937901831296756
 10
175.7709066223556817
 20
156.8215599135676257
 10
175.7708940653262744
 20
156.7052144415685291
 10
175.7708940653262744
 20
156.5888689695694325
 10
175.7708940653262744
 20
156.4725270518403022
 10
175.7708940653262744
 20
156.356181579841234
 10
175.7708940653262744
 20
156.239836107842109
 10
175.7708940653262744
 20
156.1234941901129787
 10
175.7708940653262744
 20
156.0071487181139105
 10
175.7708940653262744
 20
155.8908032461148139
 10
175.7708940653262744
 20
155.7744604398181707
 10
175.7708940653262744
 20
155.6581149678190741
 10
175.7708940653262744
 20
155.5417712729549748
 10
175.7708940653262744
 20
155.4254258009559067
 10
175.7708940653262744
 20
155.309082106091779
 10
175.7708940653262744
 20
155.1927384112276513
 10
175.7708940653262744
 20
155.0763929392285831
 10
175.7708940653262744
 20
154.9600492443644555
 10
175.7708940653262744
 20
154.8437055495003278
 10
175.7708940653262744
 20
154.7273600775012596
 10
175.7708940653262744
 20
154.611016382637132
 10
175.7708940653262744
 20
154.4946726877730043
 10
175.7708940653262744
 20
154.3783272157739361
 10
175.7708940653262744
 20
154.2619817437748679
 10
175.7708940653262744
 20
154.1456398260456808
 10
175.7708940653262744
 20
154.0292943540466126
 10
175.7708940653262744
 20
153.9129488820475444
 10
175.7708940653262744
 20
153.7966069643183857
 10
175.7708940653262744
 20
153.6802614923192891
 10
175.7708940653262744
 20
153.5639160203202209
 10
175.7708940653262744
 20
153.4475741025910622
 10
175.7708940653262744
 20
153.3312286305919656
 10
175.7708940653262744
 20
153.2148831585928974
 10
175.7708940653262744
 20
153.0985376865938292
 10
175.7708940653262744
 20
152.9821957688646421
 10
175.7708940653262744
 20
152.8658502968655739
 10
175.7708940653262744
 20
152.7495048248665057
 10
175.7708940653262744
 20
152.633162907137347
 10
175.7708940653262744
 20
152.5168174351382504
 10
175.7708940653262744
 20
152.4004719631391822
 10
175.7708940653262744
 20
152.2841300454100235
 10
175.7708940653262744
 20
152.1677845734109269
 10
175.7708940653262744
 20
152.0514391014118587
 10
175.7708940653262744
 20
151.9350971836827
 10
175.7708940653262744
 20
151.8187517116836034
 10
175.7708940653262744
 20
151.7024062396845352
 10
175.7708815082968954
 20
151.586060767685467
 10
175.7708815082968954
 20
151.4697188499562799
 10
175.7708815082968954
 20
151.3533733779572117
 10
175.7708815082968954
 20
151.2370279059581435
 10
175.7708815082968954
 20
151.1206859882289848
 10
175.7708815082968954
 20
151.0043405162298882
 10
175.7708815082968954
 20
150.88799504423082
 10
175.7708815082968954
 20
150.7716531265016613
 10
175.7708815082968954
 20
150.6553076545025647
 10
175.7708815082968954
 20
150.5389621825034965
 10
175.7708815082968954
 20
150.4226202647743378
 10
175.7708815082968954
 20
150.3062747927752412
 10
175.7708815082968954
 20
150.189929320776173
 10
175.7708815082968954
 20
150.0735874030470427
 10
175.7708815082968954
 20
149.9572419310479461
 10
175.7708815082968954
 20
149.8408964590488495
 10
175.7708815082968954
 20
149.7245509870497813
 10
175.7708815082968954
 20
149.6082090693206226
 10
175.7708815082968954
 20
149.491863597321526
 10
175.7708815082968954
 20
149.3755181253224578
 10
175.7708815082968954
 20
149.2591762075932991
 10
175.7708815082968954
 20
149.1428307355942025
 97
0
 75
0
 76
1
 47
0.0
 98
0
  0
LWPOLYLINE
  5
29
330
1D
100
AcDbEntity
  8
0
  6
ByLayer
420
0
 48
1.0
 60
0
 67
0
370
-1
100
AcDbPolyline
 90
304
 70
1
 43
0.0
 38
0.0
 39
0.0
210
0.0
220
0.0
230
1.0
 10
175.7708815082968954
 20
149.1428307355942025
 40
0.0
 41
0.0
 42
0.0
 10
179.0591907983168483
 20
149.1428307355942025
 40
0.0
 41
0.0
 42
0.0
 10
180.6868831777782134
 20
149.085439050412532
 40
0.0
 41
0.0
 42
0.0
 10
180.6097327891201871
 20
148.9691273439778172
 40
0.0
 41
0.0
 42
0.0
 10
180.5325698434327251
 20
148.8528147489756179
 40
0.0
 41
0.0
 42
0.0
 10
180.455406897745263
 20
148.7365021539734187
 40
0.0
 41
0.0
 42
0.0
 10
180.3782565090872367
 20
148.6201904475387039
 40
0.0
 41
0.0
 42
0.0
 10
180.3010935633997747
 20
148.5038778525365046
 40
0.0
 41
0.0
 42
0.0
 10
180.22394317474172
 20
148.387565257534277
 40
0.0
 41
0.0
 42
0.0
 10
180.1467802290542863
 20
148.2712526625321061
 40
0.0
 41
0.0
 42
0.0
 10
180.0696298403962317
 20
148.1549405118136349
 40
0.0
 41
0.0
 42
0.0
 10
179.9924668947087696
 20
148.0386279168114356
 40
0.0
 41
0.0
 42
0.0
 10
179.9153165060507433
 20
147.9223157660929928
 40
0.0
 41
0.0
 42
0.0
 10
179.8381535603632813
 20
147.8060031710907651
 40
0.0
 41
0.0
 42
0.0
 10
179.7610031717052266
 20
147.6896910203723223
 40
0.0
 41
0.0
 42
0.0
 10
179.6838402260177929
 20
147.5733784253701231
 40
0.0
 41
0.0
 42
0.0
 10
179.6066898373597382
 20
147.4570667189354083
 40
0.0
 41
0.0
 42
0.0
 10
179.5295268916722762
 20
147.340754123933209
 40
0.0
 41
0.0
 42
0.0
 10
179.4523639459848425
 20
147.2244415289309813
 40
0.0
 41
0.0
 42
0.0
 10
179.3752135573267878
 20
147.1081293782125385
 40
0.0
 41
0.0
 42
0.0
 10
179.2980506116393258
 20
146.9918172274940957
 40
0.0
 41
0.0
 42
0.0
 10
179.2209002229812995
 20
146.8755046324918681
 40
0.0
 41
0.0
 42
0.0
 10
179.1437372772938375
 20
146.7591920374896972
 40
0.0
 41
0.0
 42
0.0
 10
179.0665868886357828
 20
146.642879886771226
 40
0.0
 41
0.0
 42
0.0
 10
178.9894239429483491
 20
146.5265677360527548
 40
0.0
 41
0.0
 42
0.0
 10
178.9122735542902944
 20
146.4102551410505839
 40
0.0
 41
0.0
 42
0.0
 10
178.8351106086028608
 20
146.2939429903321127
 40
0.0
 41
0.0
 42
0.0
 10
178.7579602199448061
 20
146.1776308396136415
 40
0.0
 41
0.0
 42
0.0
 10
178.680797274257344
 20
146.0613186888951986
 40
0.0
 41
0.0
 42
0.0
 10
178.6036468855992894
 20
145.945006093892971
 40
0.0
 41
0.0
 42
0.0
 10
178.5264839399118557
 20
145.8286934988908001
 40
0.0
 41
0.0
 42
0.0
 10
178.449333551253801
 20
145.7123813481723289
 40
0.0
 41
0.0
 42
0.0
 10
178.3721706055663674
 20
145.5960691974538577
 40
0.0
 41
0.0
 42
0.0
 10
178.2950076598789053
 20
145.4797566024516868
 40
0.0
 41
0.0
 42
0.0
 10
178.2178572712208506
 20
145.3634440074494591
 40
0.0
 41
0.0
 42
0.0
 10
178.140694325533417
 20
145.2471318567310163
 40
0.0
 41
0.0
 42
0.0
 10
178.0635439368753623
 20
145.1308192617288171
 40
0.0
 41
0.0
 42
0.0
 10
177.9863809911879002
 20
145.0145075552940739
 40
0.0
 41
0.0
 42
0.0
 10
177.909230602529874
 20
144.898194960291903
 40
0.0
 41
0.0
 42
0.0
 10
177.8320676568424119
 20
144.7818828095734318
 40
0.0
 41
0.0
 42
0.0
 10
177.7549172681843572
 20
144.6655702145712326
 40
0.0
 41
0.0
 42
0.0
 10
177.6777543224969236
 20
144.5492580638527897
 40
0.0
 41
0.0
 42
0.0
 10
177.6006039338388689
 20
144.4329454688505621
 40
0.0
 41
0.0
 42
0.0
 10
177.5234409881514068
 20
144.3166333181321193
 40
0.0
 41
0.0
 42
0.0
 10
177.4462905994933806
 20
144.200320945271784
 40
0.0
 41
0.0
 42
0.0
 10
177.3691276538059185
 20
144.0840087945533128
 40
0.0
 41
0.0
 42
0.0
 10
177.2919772651478638
 20
143.9676961995511419
 40
0.0
 41
0.0
 42
0.0
 10
177.2148143194604302
 20
143.8513840488326707
 40
0.0
 41
0.0
 42
0.0
 10
177.1376513737729681
 20
143.7350714538304715
 40
0.0
 41
0.0
 42
0.0
 10
177.0605009851149134
 20
143.6187593031120286
 40
0.0
 41
0.0
 42
0.0
 10
176.9833380394274798
 20
143.502446930251665
 40
0.0
 41
0.0
 42
0.0
 10
176.9061876507694251
 20
143.3861347795332222
 40
0.0
 41
0.0
 42
0.0
 10
176.829024705081963
 20
143.2698221845310229
 40
0.0
 41
0.0
 42
0.0
 10
176.7518743164239368
 20
143.1535100338125517
 40
0.0
 41
0.0
 42
0.0
 10
176.6747113707364747
 20
143.0371976609522449
 40
0.0
 41
0.0
 42
0.0
 10
176.59756098207842
 20
142.9208855102337736
 40
0.0
 41
0.0
 42
0.0
 10
176.5203980363909864
 20
142.8045729152315744
 40
0.0
 41
0.0
 42
0.0
 10
176.4432476477329317
 20
142.6882603202293751
 40
0.0
 41
0.0
 42
0.0
 10
176.366084702045498
 20
142.5719481695109039
 40
0.0
 41
0.0
 42
0.0
 10
176.2889343133874434
 20
142.4556356855796366
 40
0.0
 41
0.0
 42
0.0
 10
176.2117713676999813
 20
142.3393235348611938
 40
0.0
 41
0.0
 42
0.0
 10
176.1346084220125476
 20
142.2230110509299266
 40
0.0
 41
0.0
 42
0.0
 10
176.057458033354493
 20
142.1066989002114838
 40
0.0
 41
0.0
 42
0.0
 10
175.9802950876670309
 20
141.9903864162802165
 40
0.0
 41
0.0
 42
0.0
 10
175.9031446990090046
 20
141.8740742655617453
 40
0.0
 41
0.0
 42
0.0
 10
175.8259817533215426
 20
141.757762114843274
 40
0.0
 41
0.0
 42
0.0
 10
175.7488313646634879
 20
141.6414496309120068
 40
0.0
 41
0.0
 42
0.0
 10
175.6716684189760542
 20
141.525137035909836
 40
0.0
 41
0.0
 42
0.0
 10
175.5945180303179995
 20
141.4088244964430885
 40
0.0
 41
0.0
 42
0.0
 10
175.5173550846305375
 20
141.2925128455438539
 40
0.0
 41
0.0
 42
0.0
 10
175.4401795819136964
 20
141.3593732168989732
 40
0.0
 41
0.0
 42
0.0
 10
175.363004079196827
 20
141.4756858119011724
 40
0.0
 41
0.0
 42
0.0
 10
175.2858160194505786
 20
141.5919984069033717
 40
0.0
 41
0.0
 42
0.0
 10
175.2086405167337375
 20
141.7083096690543584
 40
0.0
 41
0.0
 42
0.0
 10
175.1314524569874607
 20
141.8246222640565293
 40
0.0
 41
0.0
 42
0.0
 10
175.0542769542706196
 20
141.940934859058757
 40
0.0
 41
0.0
 42
0.0
 10
174.9770888945243428
 20
142.0572474540609278
 40
0.0
 41
0.0
 42
0.0
 10
174.8999133918075017
 20
142.1735591604956426
 40
0.0
 41
0.0
 42
0.0
 10
174.8227253320612249
 20
142.2898717554978703
 40
0.0
 41
0.0
 42
0.0
 10
174.7455498293443839
 20
142.4061839062163131
 40
0.0
 41
0.0
 42
0.0
 10
174.6683617695981354
 20
142.5224965012185407
 40
0.0
 41
0.0
 42
0.0
 10
174.591186266881266
 20
142.6388082076532555
 40
0.0
 41
0.0
 42
0.0
 10
174.5139982071350175
 20
142.7551208026554264
 40
0.0
 41
0.0
 42
0.0
 10
174.4368227044181481
 20
142.871433397657654
 40
0.0
 41
0.0
 42
0.0
 10
174.3596346446718997
 20
142.9877459926598249
 40
0.0
 41
0.0
 42
0.0
 10
174.2824591419550302
 20
143.1040585876620526
 40
0.0
 41
0.0
 42
0.0
 10
174.2052710822087818
 20
143.2203698498130109
 40
0.0
 41
0.0
 42
0.0
 10
174.1280955794919407
 20
143.3366824448152101
 40
0.0
 41
0.0
 42
0.0
 10
174.0509075197456639
 20
143.4529950398174094
 40
0.0
 41
0.0
 42
0.0
 10
173.9737320170288228
 20
143.5693076348196087
 40
0.0
 41
0.0
 42
0.0
 10
173.896543957282546
 20
143.6856193412543234
 40
0.0
 41
0.0
 42
0.0
 10
173.819368454565705
 20
143.8019319362565511
 40
0.0
 41
0.0
 42
0.0
 10
173.7421929518488355
 20
143.918244531258722
 40
0.0
 41
0.0
 42
0.0
 10
173.6650048921025871
 20
144.0345566819771932
 40
0.0
 41
0.0
 42
0.0
 10
173.587829389385746
 20
144.150868388411908
 40
0.0
 41
0.0
 42
0.0
 10
173.5106413296394692
 20
144.2671809834141072
 40
0.0
 41
0.0
 42
0.0
 10
173.4334658269226281
 20
144.3834935784163065
 40
0.0
 41
0.0
 42
0.0
 10
173.3562777671763513
 20
144.4998061734185058
 40
0.0
 41
0.0
 42
0.0
 10
173.2791022644595103
 20
144.6161178798532205
 40
0.0
 41
0.0
 42
0.0
 10
173.2019142047132618
 20
144.7324304748554482
 40
0.0
 41
0.0
 42
0.0
 10
173.1247387019963924
 20
144.848742625573891
 40
0.0
 41
0.0
 42
0.0
 10
173.0475506422501439
 20
144.9650552205760903
 40
0.0
 41
0.0
 42
0.0
 10
172.9703751395332745
 20
145.0813669270108051
 40
0.0
 41
0.0
 42
0.0
 10
172.8931870797870261
 20
145.1976795220130043
 40
0.0
 41
0.0
 42
0.0
 10
172.8160115770701566
 20
145.3139921170152036
 40
0.0
 41
0.0
 42
0.0
 10
172.7388235173239082
 20
145.4303042677336748
 40
0.0
 41
0.0
 42
0.0
 10
172.6616480146070671
 20
145.5466159741683896
 40
0.0
 41
0.0
 42
0.0
 10
172.5844599548607903
 20
145.6629285691705604
 40
0.0
 41
0.0
 42
0.0
 10
172.5072844521439492
 20
145.7792411641727881
 40
0.0
 41
0.0
 42
0.0
 10
172.4300963923976724
 20
145.8955537591749874
 40
0.0
 41
0.0
 42
0.0
 10
172.3529208896808314
 20
146.0118654656097021
 40
0.0
 41
0.0
 42
0.0
 10
172.2757328299345829
 20
146.1281780606119014
 40
0.0
 41
0.0
 42
0.0
 10
172.1985573272177135
 20
146.2444906556141007
 40
0.0
 41
0.0
 42
0.0
 10
172.121369267471465
 20
146.3608032506162999
 40
0.0
 41
0.0
 42
0.0
 10
172.0441937647545956
 20
146.4771158456184992
 40
0.0
 41
0.0
 42
0.0
 10
171.9670057050083471
 20
146.593427552053214
 40
0.0
 41
0.0
 42
0.0
 10
171.8898302022914777
 20
146.7097397027716852
 40
0.0
 41
0.0
 42
0.0
 10
171.8126421425452293
 20
146.826052297773856
 40
0.0
 41
0.0
 42
0.0
 10
171.7354666398283882
 20
146.9423648927760837
 40
0.0
 41
0.0
 42
0.0
 10
171.6582785800821114
 20
147.0586761549270705
 40
0.0
 41
0.0
 42
0.0
 10
171.5811030773652703
 20
147.1749887499292413
 40
0.0
 41
0.0
 42
0.0
 10
171.5039150176189935
 20
147.291301344931469
 40
0.0
 41
0.0
 42
0.0
 10
171.4267395149021525
 20
147.4076139399336398
 40
0.0
 41
0.0
 42
0.0
 10
171.349551455155904
 20
147.5239256463683546
 40
0.0
 41
0.0
 42
0.0
 10
171.2723759524390346
 20
147.6402382413705823
 40
0.0
 41
0.0
 42
0.0
 10
171.1951878926927861
 20
147.7565508363727531
 40
0.0
 41
0.0
 42
0.0
 10
171.1180123899759167
 20
147.8728634313749808
 40
0.0
 41
0.0
 42
0.0
 10
171.0408368872590756
 20
147.9891751378096956
 40
0.0
 41
0.0
 42
0.0
 10
170.9636488275127988
 20
148.1054877328118948
 40
0.0
 41
0.0
 42
0.0
 10
170.8864733247959578
 20
148.2217998835303661
 40
0.0
 41
0.0
 42
0.0
 10
170.8092852650497093
 20
148.3381115899650808
 40
0.0
 41
0.0
 42
0.0
 10
170.7321097623328399
 20
148.4544246292510081
 40
0.0
 41
0.0
 42
0.0
 10
170.6549217025865914
 20
148.5707363356857229
 40
0.0
 41
0.0
 42
0.0
 10
170.577746199869722
 20
148.6870480421204377
 40
0.0
 41
0.0
 42
0.0
 10
170.5005581401234735
 20
148.8033615256901214
 40
0.0
 41
0.0
 42
0.0
 10
170.4233826374066041
 20
148.9196732321248362
 40
0.0
 41
0.0
 42
0.0
 10
170.3461945776603557
 20
149.0359867156945199
 40
0.0
 41
0.0
 42
0.0
 10
170.5429506713913099
 20
149.1428307355942025
 40
0.0
 41
0.0
 42
0.0
 10
173.8312348473524764
 20
149.1428307355942025
 40
0.0
 41
0.0
 42
0.0
 10
175.2293847293090892
 20
149.2097087672280793
 40
0.0
 41
0.0
 42
0.0
 10
175.2293847293090892
 20
149.326052462092207
 40
0.0
 41
0.0
 42
0.0
 10
175.2293847293090892
 20
149.4423979340912751
 40
0.0
 41
0.0
 42
0.0
 10
175.2293847293090892
 20
149.5587416289554028
 40
0.0
 41
0.0
 42
0.0
 10
175.2293847293090892
 20
149.6750853238195305
 40
0.0
 41
0.0
 42
0.0
 10
175.2293847293090892
 20
149.7914307958185987
 40
0.0
 41
0.0
 42
0.0
 10
175.2293847293090892
 20
149.9077744906826979
 40
0.0
 41
0.0
 42
0.0
 10
175.2293847293090892
 20
150.0241181855468255
 40
0.0
 41
0.0
 42
0.0
 10
175.2293847293090892
 20
150.1404636575459222
 40
0.0
 41
0.0
 42
0.0
 10
175.2293847293090892
 20
150.2568073524100214
 40
0.0
 41
0.0
 42
0.0
 10
175.2293847293090892
 20
150.373152824409118
 40
0.0
 41
0.0
 42
0.0
 10
175.2293847293090892
 20
150.4894965192732457
 40
0.0
 41
0.0
 42
0.0
 10
175.2293847293090892
 20
150.6058402141373449
 40
0.0
 41
0.0
 42
0.0
 10
175.2293847293090892
 20
150.7221856861364415
 40
0.0
 41
0.0
 42
0.0
 10
175.2293847293090892
 20
150.8385293810005692
 40
0.0
 41
0.0
 42
0.0
 10
175.2293847293090892
 20
150.9548730758646684
 40
0.0
 41
0.0
 42
0.0
 10
175.2293847293090892
 20
151.0712185478637366
 40
0.0
 41
0.0
 42
0.0
 10
175.2293847293090892
 20
151.1875622427278927
 40
0.0
 41
0.0
 42
0.0
 10
175.2293847293090892
 20
151.3039077147269609
 40
0.0
 41
0.0
 42
0.0
 10
175.2293847293090892
 20
151.4202514095910601
 40
0.0
 41
0.0
 42
0.0
 10
175.2293847293090892
 20
151.5365951044551878
 40
0.0
 41
0.0
 42
0.0
 10
175.2293847293090892
 20
151.6529405764542844
 40
0.0
 41
0.0
 42
0.0
 10
175.2293847293090892
 20
151.7692842713183836
 40
0.0
 41
0.0
 42
0.0
 10
175.2293847293090892
 20
151.8856279661825113
 40
0.0
 41
0.0
 42
0.0
 10
175.2293847293090892
 20
152.0019734381816079
 40
0.0
 41
0.0
 42
0.0
 10
175.2293847293090892
 20
152.1183171330457071
 40
0.0
 41
0.0
 42
0.0
 10
175.2293847293090892
 20
152.2346626050448037
 40
0.0
 41
0.0
 42
0.0
 10
175.2293847293090892
 20
152.3510062999089314
 40
0.0
 41
0.0
 42
0.0
 10
175.2293847293090892
 20
152.4673499947730306
 40
0.0
 41
0.0
 42
0.0
 10
175.2293847293090892
 20
152.5836954667720988
 40
0.0
 41
0.0
 42
0.0
 10
175.2293847293090892
 20
152.7000391616362265
 40
0.0
 41
0.0
 42
0.0
 10
175.2293847293090892
 20
152.8163846336353231
 40
0.0
 41
0.0
 42
0.0
 10
175.2293847293090892
 20
152.9327283284994223
 40
0.0
 41
0.0
 42
0.0
 10
175.2293847293090892
 20
153.04907202336355
 40
0.0
 41
0.0
 42
0.0
 10
175.2293847293090892
 20
153.1654174953626466
 40
0.0
 41
0.0
 42
0.0
 10
175.2293847293090892
 20
153.2817611902267458
 40
0.0
 41
0.0
 42
0.0
 10
175.2293847293090892
 20
153.3981048850908735
 40
0.0
 41
0.0
 42
0.0
 10
175.2293847293090892
 20
153.5144503570899701
 40
0.0
 41
0.0
 42
0.0
 10
175.2293847293090892
 20
153.6307940519540693
 40
0.0
 41
0.0
 42
0.0
 10
175.2293847293090892
 20
153.7471395239531375
 40
0.0
 41
0.0
 42
0.0
 10
175.2293847293090892
 20
153.8634832188172936
 40
0.0
 41
0.0
 42
0.0
 10
175.2293847293090892
 20
153.9798269136813929
 40
0.0
 41
0.0
 42
0.0
 10
175.2293847293090892
 20
154.096172385680461
 40
0.0
 41
0.0
 42
0.0
 10
175.2293847293090892
 20
154.2125160805445887
 40
0.0
 41
0.0
 42
0.0
 10
175.2293847293090892
 20
154.3288597754087164
 40
0.0
 41
0.0
 42
0.0
 10
175.2293847293090892
 20
154.4452052474077846
 40
0.0
 41
0.0
 42
0.0
 10
175.2293847293090892
 20
154.5615489422719122
 40
0.0
 41
0.0
 42
0.0
 10
175.2293847293090892
 20
154.6778944142710088
 40
0.0
 41
0.0
 42
0.0
 10
175.2293847293090892
 20
154.7942381091351081
 40
0.0
 41
0.0
 42
0.0
 10
175.2293847293090892
 20
154.9105818039992357
 40
0.0
 41
0.0
 42
0.0
 10
175.2293847293090892
 20
155.0269272759983323
 40
0.0
 41
0.0
 42
0.0
 10
175.2293847293090892
 20
155.1432709708624316
 40
0.0
 41
0.0
 42
0.0
 10
175.2293847293090892
 20
155.2596146657265308
 40
0.0
 41
0.0
 42
0.0
 10
175.2293847293090892
 20
155.3759601377256274
 40
0.0
 41
0.0
 42
0.0
 10
175.2293847293090892
 20
155.4923038325897551
 40
0.0
 41
0.0
 42
0.0
 10
175.2293847293090892
 20
155.6086493045888233
 40
0.0
 41
0.0
 42
0.0
 10
175.2293847293090892
 20
155.7249929994529509
 40
0.0
 41
0.0
 42
0.0
 10
175.2293847293090892
 20
155.8413366943170786
 40
0.0
 41
0.0
 42
0.0
 10
175.2293847293090892
 20
155.9576821663161468
 40
0.0
 41
0.0
 42
0.0
 10
175.2293847293090892
 20
156.0740258611802744
 40
0.0
 41
0.0
 42
0.0
 10
175.2293847293090892
 20
156.190371333179371
 40
0.0
 41
0.0
 42
0.0
 10
175.2293847293090892
 20
156.3067150280434703
 40
0.0
 41
0.0
 42
0.0
 10
175.2293847293090892
 20
156.4230587229075695
 40
0.0
 41
0.0
 42
0.0
 10
175.2293847293090892
 20
156.5394041949066946
 40
0.0
 41
0.0
 42
0.0
 10
175.2293847293090892
 20
156.6557478897707938
 40
0.0
 41
0.0
 42
0.0
 10
175.2293847293090892
 20
156.772091584634893
 40
0.0
 41
0.0
 42
0.0
 10
175.2293847293090892
 20
156.8884370566339896
 40
0.0
 41
0.0
 42
0.0
 10
175.2293847293090892
 20
157.0047807514981173
 40
0.0
 41
0.0
 42
0.0
 10
175.2293847293090892
 20
157.1211262234971855
 40
0.0
 41
0.0
 42
0.0
 10
175.2293847293090892
 20
157.2374699183613131
 40
0.0
 41
0.0
 42
0.0
 10
175.2293847293090892
 20
157.3538136132254408
 40
0.0
 41
0.0
 42
0.0
 10
175.2293847293090892
 20
157.470159085224509
 40
0.0
 41
0.0
 42
0.0
 10
175.2293847293090892
 20
157.5865027800886367
 40
0.0
 41
0.0
 42
0.0
 10
175.2293847293090892
 20
157.7028464749527643
 40
0.0
 41
0.0
 42
0.0
 10
175.2293847293090892
 20
157.8191919469518325
 40
0.0
 41
0.0
 42
0.0
 10
175.2293847293090892
 20
157.9355356418159602
 40
0.0
 41
0.0
 42
0.0
 10
175.2293847293090892
 20
158.0518811138150284
 40
0.0
 41
0.0
 42
0.0
 10
175.2293847293090892
 20
158.168224808679156
 40
0.0
 41
0.0
 42
0.0
 10
175.2293847293090892
 20
158.2845685035432552
 40
0.0
 41
0.0
 42
0.0
 10
175.2293847293090892
 20
158.4009139755423519
 40
0.0
 41
0.0
 42
0.0
 10
175.2293847293090892
 20
158.5172576704064795
 40
0.0
 41
0.0
 42
0.0
 10
175.2293847293090892
 20
158.6336013652705788
 40
0.0
 41
0.0
 42
0.0
 10
175.7709066223556817
 20
158.6830696942033114
 40
0.0
 41
0.0
 42
0.0
 10
175.7709066223556817
 20
158.5667242222042148
 40
0.0
 41
0.0
 42
0.0
 10
175.7709066223556817
 20
158.4503787502051182
 40
0.0
 41
0.0
 42
0.0
 10
175.7709066223556817
 20
158.3340368324759879
 40
0.0
 41
0.0
 42
0.0
 10
175.7709066223556817
 20
158.2176913604768913
 40
0.0
 41
0.0
 42
0.0
 10
175.7709066223556817
 20
158.1013458884777947
 40
0.0
 41
0.0
 42
0.0
 10
175.7709066223556817
 20
157.9850039707486644
 40
0.0
 41
0.0
 42
0.0
 10
175.7709066223556817
 20
157.8686584987495678
 40
0.0
 41
0.0
 42
0.0
 10
175.7709066223556817
 20
157.7523130267504996
 40
0.0
 41
0.0
 42
0.0
 10
175.7709066223556817
 20
157.6359711090213409
 40
0.0
 41
0.0
 42
0.0
 10
175.7709066223556817
 20
157.5196256370222727
 40
0.0
 41
0.0
 42
0.0
 10
175.7709066223556817
 20
157.4032801650231761
 40
0.0
 41
0.0
 42
0.0
 10
175.7709066223556817
 20
157.2869382472940174
 40
0.0
 41
0.0
 42
0.0
 10
175.7709066223556817
 20
157.1705927752949492
 40
0.0
 41
0.0
 42
0.0
 10
175.7709066223556817
 20
157.0542473032958526
 40
0.0
 41
0.0
 42
0.0
 10
175.7709066223556817
 20
156.937901831296756
 40
0.0
 41
0.0
 42
0.0
 10
175.7709066223556817
 20
156.8215599135676257
 40
0.0
 41
0.0
 42
0.0
 10
175.7708940653262744
 20
156.7052144415685291
 40
0.0
 41
0.0
 42
0.0
 10
175.7708940653262744
 20
156.5888689695694325
 40
0.0
 41
0.0
 42
0.0
 10
175.7708940653262744
 20
156.4725270518403022
 40
0.0
 41
0.0
 42
0.0
 10
175.7708940653262744
 20
156.356181579841234
 40
0.0
 41
0.0
 42
0.0
 10
175.7708940653262744
 20
156.239836107842109
 40
0.0
 41
0.0
 42
0.0
 10
175.7708940653262744
 20
156.1234941901129787
 40
0.0
 41
0.0
 42
0.0
 10
175.7708940653262744
 20
156.0071487181139105
 40
0.0
 41
0.0
 42
0.0
 10
175.7708940653262744
 20
155.8908032461148139
 40
0.0
 41
0.0
 42
0.0
 10
175.7708940653262744
 20
155.7744604398181707
 40
0.0
 41
0.0
 42
0.0
 10
175.7708940653262744
 20
155.6581149678190741
 40
0.0
 41
0.0
 42
0.0
 10
175.7708940653262744
 20
155.5417712729549748
 40
0.0
 41
0.0
 42
0.0
 10
175.7708940653262744
 20
155.4254258009559067
 40
0.0
 41
0.0
 42
0.0
 10
175.7708940653262744
 20
155.309082106091779
 40
0.0
 41
0.0
 42
0.0
 10
175.7708940653262744
 20
155.1927384112276513
 40
0.0
 41
0.0
 42
0.0
 10
175.7708940653262744
 20
155.0763929392285831
 40
0.0
 41
0.0
 42
0.0
 10
175.7708940653262744
 20
154.9600492443644555
 40
0.0
 41
0.0
 42
0.0
 10
175.7708940653262744
 20
154.8437055495003278
 40
0.0
 41
0.0
 42
0.0
 10
175.7708940653262744
 20
154.7273600775012596
 40
0.0
 41
0.0
 42
0.0
 10
175.7708940653262744
 20
154.611016382637132
 40
0.0
 41
0.0
 42
0.0
 10
175.7708940653262744
 20
154.4946726877730043
 40
0.0
 41
0.0
 42
0.0
 10
175.7708940653262744
 20
154.3783272157739361
 40
0.0
 41
0.0
 42
0.0
 10
175.7708940653262744
 20
154.2619817437748679
 40
0.0
 41
0.0
 42
0.0
 10
175.7708940653262744
 20
154.1456398260456808
 40
0.0
 41
0.0
 42
0.0
 10
175.7708940653262744
 20
154.0292943540466126
 40
0.0
 41
0.0
 42
0.0
 10
175.7708940653262744
 20
153.9129488820475444
 40
0.0
 41
0.0
 42
0.0
 10
175.7708940653262744
 20
153.7966069643183857
 40
0.0
 41
0.0
 42
0.0
 10
175.7708940653262744
 20
153.6802614923192891
 40
0.0
 41
0.0
 42
0.0
 10
175.7708940653262744
 20
153.5639160203202209
 40
0.0
 41
0.0
 42
0.0
 10
175.7708940653262744
 20
153.4475741025910622
 40
0.0
 41
0.0
 42
0.0
 10
175.7708940653262744
 20
153.3312286305919656
 40
0.0
 41
0.0
 42
0.0
 10
175.7708940653262744
 20
153.2148831585928974
 40
0.0
 41
0.0
 42
0.0
 10
175.7708940653262744
 20
153.0985376865938292
 40
0.0
 41
0.0
 42
0.0
 10
175.7708940653262744
 20
152.9821957688646421
 40
0.0
 41
0.0
 42
0.0
 10
175.7708940653262744
 20
152.8658502968655739
 40
0.0
 41
0.0
 42
0.0
 10
175.7708940653262744
 20
152.7495048248665057
 40
0.0
 41
0.0
 42
0.0
 10
175.7708940653262744
 20
152.633162907137347
 40
0.0
 41
0.0
 42
0.0
 10
175.7708940653262744
 20
152.5168174351382504
 40
0.0
 41
0.0
 42
0.0
 10
175.7708940653262744
 20
152.4004719631391822
 40
0.0
 41
0.0
 42
0.0
 10
175.7708940653262744
 20
152.2841300454100235
 40
0.0
 41
0.0
 42
0.0
 10
175.7708940653262744
 20
152.1677845734109269
 40
0.0
 41
0.0
 42
0.0
 10
175.7708940653262744
 20
152.0514391014118587
 40
0.0
 41
0.0
 42
0.0
 10
175.7708940653262744
 20
151.9350971836827
 40
0.0
 41
0.0
 42
0.0
 10
175.7708940653262744
 20
151.8187517116836034
 40
0.0
 41
0.0
 42
0.0
 10
175.7708940653262744
 20
151.7024062396845352
 40
0.0
 41
0.0
 42
0.0
 10
175.7708815082968954
 20
151.586060767685467
 40
0.0
 41
0.0
 42
0.0
 10
175.7708815082968954
 20
151.4697188499562799
 40
0.0
 41
0.0
 42
0.0
 10
175.7708815082968954
 20
151.3533733779572117
 40
0.0
 41
0.0
 42
0.0
 10
175.7708815082968954
 20
151.2370279059581435
 40
0.0
 41
0.0
 42
0.0
 10
175.7708815082968954
 20
151.1206859882289848
 40
0.0
 41
0.0
 42
0.0
 10
175.7708815082968954
 20
151.0043405162298882
 40
0.0
 41
0.0
 42
0.0
 10
175.7708815082968954
 20
150.88799504423082
 40
0.0
 41
0.0
 42
0.0
 10
175.7708815082968954
 20
150.7716531265016613
 40
0.0
 41
0.0
 42
0.0
 10
175.7708815082968954
 20
150.6553076545025647
 40
0.0
 41
0.0
 42
0.0
 10
175.7708815082968954
 20
150.5389621825034965
 40
0.0
 41
0.0
 42
0.0
 10
175.7708815082968954
 20
150.4226202647743378
 40
0.0
 41
0.0
 42
0.0
 10
175.7708815082968954
 20
150.3062747927752412
 40
0.0
 41
0.0
 42
0.0
 10
175.7708815082968954
 20
150.189929320776173
 40
0.0
 41
0.0
 42
0.0
 10
175.7708815082968954
 20
150.0735874030470427
 40
0.0
 41
0.0
 42
0.0
 10
175.7708815082968954
 20
149.9572419310479461
 40
0.0
 41
0.0
 42
0.0
 10
175.7708815082968954
 20
149.8408964590488495
 40
0.0
 41
0.0
 42
0.0
 10
175.7708815082968954
 20
149.7245509870497813
 40
0.0
 41
0.0
 42
0.0
 10
175.7708815082968954
 20
149.6082090693206226
 40
0.0
 41
0.0
 42
0.0
 10
175.7708815082968954
 20
149.491863597321526
 40
0.0
 41
0.0
 42
0.0
 10
175.7708815082968954
 20
149.3755181253224578
 40
0.0
 41
0.0
 42
0.0
 10
175.7708815082968954
 20
149.2591762075932991
 40
0.0
 41
0.0
 42
0.0
 10
175.7708815082968954
 20
149.1428307355942025
 40
0.0
 41
0.0
 42
0.0
  0
HATCH
  5
2A
330
1D
100
AcDbEntity
  8
0
  6
ByLayer
420
0
 48
1.0
 60
0
 67
0
370
-1
100
AcDbHatch
 30
0.0
210
0.0
220
0.0
230
1.0
  2
SOLID
 70
1
 71
0
 91
1
 92
2
 72
0
 73
1
 93
4
 10
170.2750000954791858
 20
141.1394431858950611
 10
170.2750000954791858
 20
141.6613923106517916
 10
180.7250022905207913
 20
141.6613923106517916
 10
180.7250022905207913
 20
141.1394431858950611
 97
0
 75
0
 76
1
 47
0.0
 98
0
  0
LWPOLYLINE
  5
2B
330
1D
100
AcDbEntity
  8
0
  6
ByLayer
420
0
 48
1.0
 60
0
 67
0
370
-1
100
AcDbPolyline
 90
4
 70
1
 43
0.0
 38
0.0
 39
0.0
210
0.0
220
0.0
230
1.0
 10
170.2750000954791858
 20
141.1394431858950611
 40
0.0
 41
0.0
 42
0.0
 10
170.2750000954791858
 20
141.6613923106517916
 40
0.0
 41
0.0
 42
0.0
 10
180.7250022905207913
 20
141.6613923106517916
 40
0.0
 41
0.0
 42
0.0
 10
180.7250022905207913
 20
141.1394431858950611
 40
0.0
 41
0.0
 42
0.0
  0
TEXT
  5
2C
330
1D
100
AcDbEntity
  8
0
  6
ByLayer
420
0
 48
1.0
 60
0
 67
0
370
-1
100
AcDbText
 39
0.0
 10
171.4453125
 20
182.5546998977661133
 30
0.0
 40
10.0
  1
AAAAA
 50
5156.6201561774087168
 41
1.0
 51
0.0
  7
Standard
 71
0
 72
0
 11
0.0
 21
0.0
 31
0.0
210
0.0
220
0.0
230
1.0
100
AcDbText
 73
0
  0
TEXT
  5
2D
330
1D
100
AcDbEntity
  8
0
  6
ByLayer
420
0
 48
1.0
 60
0
 67
0
370
-1
100
AcDbText
 39
0.0
 10
86.234375
 20
137.0
 30
0.0
 40
20.0
  1
ĺ
 50
0.0
 41
1.0
 51
0.0
  7
Standard
 71
0
 72
0
 11
0.0
 21
0.0
 31
0.0
210
0.0
220
0.0
230
1.0
100
AcDbText
 73
0
  0
HATCH
  5
2E
330
1D
100
AcDbEntity
  8
0
  6
ByLayer
420
16777215
 48
1.0
 60
0
 67
0
370
-1
100
AcDbHatch
 30
0.0
210
0.0
220
0.0
230
1.0
  2
SOLID
 70
1
 71
0
 91
1
 92
2
 72
0
 73
1
 93
4
 10
24.5
 20
28.5
 10
24.5
 20
60.5
 10
69.5
 20
60.5
 10
69.5
 20
28.5
 97
0
 75
0
 76
1
 47
0.0
 98
0
  0
LWPOLYLINE
  5
2F
330
1D
100
AcDbEntity
  8
0
  6
ByLayer
420
0
 48
1.0
 60
0
 67
0
370
-1
100
AcDbPolyline
 90
4
 70
1
 43
0.0
 38
0.0
 39
0.0
210
0.0
220
0.0
230
1.0
 10
24.5
 20
28.5
 40
0.0
 41
0.0
 42
0.0
 10
24.5
 20
60.5
 40
0.0
 41
0.0
 42
0.0
 10
69.5
 20
60.5
 40
0.0
 41
0.0
 42
0.0
 10
69.5
 20
28.5
 40
0.0
 41
0.0
 42
0.0
  0
TEXT
  5
30
330
1D
100
AcDbEntity
  8
0
  6
ByLayer
420
0
 48
1.0
 60
0
 67
0
370
-1
100
AcDbText
 39
0.0
 10
1.2265625
 20
76.7733987060546781
 30
0.0
 40
12.0
  1
=+S0001-Clv6xx
 50
5156.6201561774087168
 41
1.0
 51
0.0
  7
Standard
 71
0
 72
0
 11
0.0
 21
0.0
 31
0.0
210
0.0
220
0.0
230
1.0
100
AcDbText
 73
0
  0
HATCH
  5
31
330
1D
100
AcDbEntity
  8
0
  6
ByLayer
420
16777215
 48
1.0
 60
0
 67
0
370
-1
100
AcDbHatch
 30
0.0
210
0.0
220
0.0
230
1.0
  2
SOLID
 70
1
 71
0
 91
1
 92
2
 72
0
 73
1
 93
4
 10
88.0
 20
133.0
 10
178.0
 20
133.0
 10
178.0
 20
1.0
 10
88.0
 20
1.0
 97
0
 75
0
 76
1
 47
0.0
 98
0
  0
LWPOLYLINE
  5
32
330
1D
100
AcDbEntity
  8
0
  6
ByLayer
420
0
 48
1.0
 60
0
 67
0
370
-1
100
AcDbPolyline
 90
4
 70
1
 43
0.0
 38
0.0
 39
0.0
210
0.0
220
0.0
230
1.0
 10
88.0
 20
133.0
 40
0.0
 41
0.0
 42
0.0
 10
178.0
 20
133.0
 40
0.0
 41
0.0
 42
0.0
 10
178.0
 20
1.0
 40
0.0
 41
0.0
 42
0.0
 10
88.0
 20
1.0
 40
0.0
 41
0.0
 42
0.0
  0
HATCH
  5
33
330
1D
100
AcDbEntity
  8
0
  6
ByLayer
420
7329938
 48
1.0
 60
0
 67
0
370
-1
100
AcDbHatch
 30
0.0
210
0.0
220
0.0
230
1.0
  2
SOLID
 70
1
 71
0
 91
1
 92
2
 72
0
 73
1
 93
4
 10
89.0
 20
132.0
 10
177.0
 20
132.0
 10
177.0
 20
98.0
 10
89.0
 20
98.0
 97
0
 75
0
 76
1
 47
0.0
 98
0
  0
LWPOLYLINE
  5
34
330
1D
100
AcDbEntity
  8
0
  6
ByLayer
420
7329938
 48
1.0
 60
0
 67
0
370
-1
100
AcDbPolyline
 90
4
 70
1
 43
0.0
 38
0.0
 39
0.0
210
0.0
220
0.0
230
1.0
 10
89.0
 20
132.0
 40
0.0
 41
0.0
 42
0.0
 10
177.0
 20
132.0
 40
0.0
 41
0.0
 42
0.0
 10
177.0
 20
98.0
 40
0.0
 41
0.0
 42
0.0
 10
89.0
 20
98.0
 40
0.0
 41
0.0
 42
0.0
  0
TEXT
  5
35
330
1D
100
AcDbEntity
  8
0
  6
ByLayer
420
0
 48
1.0
 60
0
 67
0
370
-1
100
AcDbText
 39
0.0
 10
117.5312498474121128
 20
113.6343748515844254
 30
0.0
 40
10.4000000000000004
  1
AABB
 50
0.0
 41
1.0
 51
0.0
  7
Standard
 71
0
 72
0
 11
0.0
 21
0.0
 31
0.0
210
0.0
220
0.0
230
1.0
100
AcDbText
 73
0
  0
TEXT
  5
36
330
1D
100
AcDbEntity
  8
0
  6
ByLayer
420
0
 48
1.0
 60
0
 67
0
370
-1
100
AcDbText
 39
0.0
 10
171.0156244182586533
 20
89.4429686566814723
 30
0.0
 40
10.1343750000000004
  1
0
 50
0.0
 41
1.0
 51
0.0
  7
Standard
 71
0
 72
0
 11
0.0
 21
0.0
 31
0.0
210
0.0
220
0.0
230
1.0
100
AcDbText
 73
0
  0
ENDSEC
  0
SECTION
  2
OBJECTS
  0
DICTIONARY
  5
1
330
0
100
AcDbDictionary
280
0
281
0
  3
ACAD_COLOR
350
2
  3
ACAD_GROUP
350
3
  3
ACAD_LAYOUT
350
4
  3
ACAD_MATERIAL
350
5
  3
ACAD_SORTENTS
350
6
  3
ACAD_MLEADERSTYLE
350
7
  3
ACAD_MLINESTYLE
350
8
  3
ACAD_TABLESTYLE
350
9
  3
ACAD_PLOTSETTINGS
350
A
  3
AcDbVariableDictionary
350
B
  3
ACAD_SCALELIST
350
C
  3
ACAD_VISUALSTYLE
350
D
  3
ACAD_FIELDLIST
350
E
  3
ACAD_IMAGE_DICT
350
F
  0
DICTIONARY
  5
2
330
1
100
AcDbDictionary
280
0
281
0
  0
DICTIONARY
  5
3
330
1
100
AcDbDictionary
280
0
281
0
  0
DICTIONARY
  5
4
330
1
100
AcDbDictionary
280
0
281
0
  0
DICTIONARY
  5
5
330
1
100
AcDbDictionary
280
0
281
0
  0
DICTIONARY
  5
6
330
1
100
AcDbDictionary
280
0
281
0
  0
DICTIONARY
  5
7
330
1
100
AcDbDictionary
280
0
281
0
  0
DICTIONARY
  5
8
330
1
100
AcDbDictionary
280
0
281
0
  0
DICTIONARY
  5
9
330
1
100
AcDbDictionary
280
0
281
0
  0
DICTIONARY
  5
A
330
1
100
AcDbDictionary
280
0
281
0
  0
DICTIONARY
  5
B
330
1
100
AcDbDictionary
280
0
281
0
  0
DICTIONARY
  5
C
330
1
100
AcDbDictionary
280
0
281
0
  0
DICTIONARY
  5
D
330
1
100
AcDbDictionary
280
0
281
0
  0
DICTIONARY
  5
E
330
1
100
AcDbDictionary
280
0
281
0
  0
DICTIONARY
  5
F
330
1
100
AcDbDictionary
280
0
281
0
  0
ENDSEC
  0
EOF
