0
SECTION
2
HEADER
9
$ACADVER
1
AC1021
9
$LASTSAVEDBY
1
@tarikjabiri/dxf
9
$HANDSEED
5
30
9
$INSUNITS
70
0
9
$CLAYER
8
0
9
$VIEWCTR
10
89.25
20
85
0
ENDSEC
0
SECTION
2
CLASSES
0
ENDSEC
0
SECTION
2
TABLES
0
TABLE
2
VPORT
5
1
330
0
100
AcDbSymbolTable
70
1
0
VPORT
5
19
330
1
100
AcDbSymbolTableRecord
100
AcDbViewportTableRecord
2
*Active
70
0
10
0
20
0
11
1
21
1
12
89.25
22
85
13
0
23
0
14
10
24
10
15
10
25
10
16
0
26
0
36
1
17
0
27
0
37
0
40
370
41
2
42
50
43
0
44
0
50
0
51
0
71
0
72
100
73
1
74
3
75
0
76
1
77
0
78
0
281
0
65
1
110
0
120
0
130
0
111
1
121
0
131
0
112
0
122
1
132
0
79
0
146
0
348
10020
60
7
61
5
292
1
282
1
141
0
142
0
63
250
421
3358443
0
ENDTAB
0
TABLE
2
LTYPE
5
2
330
0
100
AcDbSymbolTable
70
3
0
LTYPE
5
12
330
2
100
AcDbSymbolTableRecord
100
AcDbLinetypeTableRecord
2
ByBlock
70
0
3

72
65
73
0
40
0
0
LTYPE
5
13
330
2
100
AcDbSymbolTableRecord
100
AcDbLinetypeTableRecord
2
ByLayer
70
0
3

72
65
73
0
40
0
0
LTYPE
5
14
330
2
100
AcDbSymbolTableRecord
100
AcDbLinetypeTableRecord
2
Continuous
70
0
3
Solid line
72
65
73
0
40
0
0
ENDTAB
0
TABLE
2
LAYER
5
3
330
0
100
AcDbSymbolTable
70
1
0
LAYER
5
15
330
3
100
AcDbSymbolTableRecord
100
AcDbLayerTableRecord
2
0
70
0
62
7
6
Continuous
370
0
390
0
0
ENDTAB
0
TABLE
2
STYLE
5
4
330
0
100
AcDbSymbolTable
70
3
0
STYLE
5
16
330
4
100
AcDbSymbolTableRecord
100
AcDbTextStyleTableRecord
2
Standard
70
0
40
0
41
1
50
0
71
0
42
1
3
txt
4

0
STYLE
5
1F
330
4
100
AcDbSymbolTableRecord
100
AcDbTextStyleTableRecord
2
Times New Roman
70
0
40
0
41
1
50
0
71
0
42
1
3
Times New Roman.ttf
4

0
STYLE
5
21
330
4
100
AcDbSymbolTableRecord
100
AcDbTextStyleTableRecord
2
Wingdings
70
0
40
0
41
1
50
0
71
0
42
1
3
Wingdings.ttf
4

0
ENDTAB
0
TABLE
2
VIEW
5
5
330
0
100
AcDbSymbolTable
70
0
0
ENDTAB
0
TABLE
2
UCS
5
6
330
0
100
AcDbSymbolTable
70
0
0
ENDTAB
0
TABLE
2
APPID
5
7
330
0
100
AcDbSymbolTable
70
1
0
APPID
5
17
330
7
100
AcDbSymbolTableRecord
100
AcDbRegAppTableRecord
2
ACAD
70
0
0
ENDTAB
0
TABLE
2
DIMSTYLE
5
8
330
0
100
AcDbSymbolTable
70
1
100
AcDbDimStyleTable
0
DIMSTYLE
105
18
330
8
100
AcDbSymbolTableRecord
100
AcDbDimStyleTableRecord
2
Standard
70
0
340
16
0
ENDTAB
0
TABLE
2
BLOCK_RECORD
5
9
330
0
100
AcDbSymbolTable
70
2
0
BLOCK_RECORD
5
C
330
9
100
AcDbSymbolTableRecord
100
AcDbBlockTableRecord
2
*Model_Space
70
0
280
1
281
0
0
BLOCK_RECORD
5
F
330
9
100
AcDbSymbolTableRecord
100
AcDbBlockTableRecord
2
*Paper_Space
70
0
280
1
281
0
0
ENDTAB
0
ENDSEC
0
SECTION
2
BLOCKS
0
BLOCK
5
D
330
C
100
AcDbEntity
8
0
100
AcDbBlockBegin
2
*Model_Space
70
0
10
0
20
0
30
0
3
*Model_Space
1

0
ENDBLK
5
E
100
AcDbEntity
8
0
100
AcDbBlockEnd
0
BLOCK
5
10
330
F
100
AcDbEntity
8
0
100
AcDbBlockBegin
2
*Paper_Space
70
0
10
0
20
0
30
0
3
*Paper_Space
1

0
ENDBLK
5
11
100
AcDbEntity
8
0
100
AcDbBlockEnd
0
ENDSEC
0
SECTION
2
ENTITIES
0
LWPOLYLINE
5
1A
330
C
100
AcDbEntity
420
0
8
0
100
AcDbPolyline
90
33
70
0
43
0
38
0
39
0
10
175.500009864536
20
169.72697566791604
10
176.51936095289597
20
169.62110243529116
10
177.49953895058894
20
169.3075513863719
10
178.40287616685373
20
168.79837211212674
10
179.19465785906664
20
168.11313208651396
10
179.84445630083218
20
167.27816469943076
10
180.3273001024445
20
166.3255572793077
10
180.62463384738956
20
165.29191799507166
10
180.72503116659578
20
164.21696902474426
10
180.62463384738956
20
163.1420200544169
10
180.3273001024445
20
162.10838077018084
10
179.84445630083218
20
161.15577335005776
10
179.19465785906664
20
160.3208059629746
10
178.40287616685373
20
159.63556593736178
10
177.49953895058894
20
159.12638666311665
10
176.51936095289597
20
158.81283561419735
10
175.500009864536
20
158.70696238157248
10
174.48065877617603
20
158.81283561419735
10
173.50048077848305
20
159.12638666311665
10
172.59714356221826
20
159.63556593736178
10
171.80536187000538
20
160.3208059629746
10
171.15556342823982
20
161.15577335005776
10
170.6727196266275
20
162.10838077018084
10
170.37538588168246
20
163.1420200544169
10
170.27498856247624
20
164.21696902474426
10
170.37538588168246
20
165.29191799507166
10
170.6727196266275
20
166.3255572793077
10
171.15556342823982
20
167.27816469943076
10
171.80536187000538
20
168.11313208651396
10
172.59714356221826
20
168.79837211212674
10
173.50048077848305
20
169.3075513863719
10
174.48065877617603
20
169.62110243529116
10
175.500009864536
20
169.72697566791604
0
HATCH
5
1B
330
C
100
AcDbEntity
420
0
8
0
100
AcDbHatch
10
0
20
0
30
0
210
0
220
0
230
1
2
SOLID
70
1
71
0
91
1
92
7
72
0
73
1
93
304
10
175.7708815082969
20
149.1428307355942
10
179.05919079831685
20
149.1428307355942
10
180.6868831777782
20
149.08543905041253
10
180.6097327891202
20
148.96912734397782
10
180.53256984343273
20
148.85281474897562
10
180.45540689774526
20
148.73650215397342
10
180.37825650908724
20
148.6201904475387
10
180.30109356339977
20
148.5038778525365
10
180.22394317474172
20
148.38756525753428
10
180.1467802290543
20
148.2712526625321
10
180.06962984039623
20
148.15494051181363
10
179.99246689470877
20
148.03862791681144
10
179.91531650605074
20
147.922315766093
10
179.83815356036328
20
147.80600317109077
10
179.76100317170523
20
147.68969102037232
10
179.6838402260178
20
147.57337842537012
10
179.60668983735974
20
147.4570667189354
10
179.52952689167228
20
147.3407541239332
10
179.45236394598484
20
147.22444152893098
10
179.3752135573268
20
147.10812937821254
10
179.29805061163933
20
146.9918172274941
10
179.2209002229813
20
146.87550463249187
10
179.14373727729384
20
146.7591920374897
10
179.06658688863578
20
146.64287988677123
10
178.98942394294835
20
146.52656773605275
10
178.9122735542903
20
146.41025514105058
10
178.83511060860286
20
146.2939429903321
10
178.7579602199448
20
146.17763083961364
10
178.68079727425734
20
146.0613186888952
10
178.6036468855993
20
145.94500609389297
10
178.52648393991186
20
145.8286934988908
10
178.4493335512538
20
145.71238134817233
10
178.37217060556637
20
145.59606919745386
10
178.2950076598789
20
145.4797566024517
10
178.21785727122085
20
145.36344400744946
10
178.14069432553342
20
145.24713185673102
10
178.06354393687536
20
145.13081926172882
10
177.9863809911879
20
145.01450755529407
10
177.90923060252987
20
144.8981949602919
10
177.8320676568424
20
144.78188280957343
10
177.75491726818436
20
144.66557021457123
10
177.67775432249692
20
144.5492580638528
10
177.60060393383887
20
144.43294546885056
10
177.5234409881514
20
144.31663331813212
10
177.44629059949338
20
144.20032094527178
10
177.36912765380592
20
144.0840087945533
10
177.29197726514786
20
143.96769619955114
10
177.21481431946043
20
143.85138404883267
10
177.13765137377297
20
143.73507145383047
10
177.0605009851149
20
143.61875930311203
10
176.98333803942748
20
143.50244693025166
10
176.90618765076943
20
143.38613477953322
10
176.82902470508196
20
143.26982218453102
10
176.75187431642394
20
143.15351003381255
10
176.67471137073647
20
143.03719766095224
10
176.59756098207842
20
142.92088551023377
10
176.520398036391
20
142.80457291523157
10
176.44324764773293
20
142.68826032022938
10
176.3660847020455
20
142.5719481695109
10
176.28893431338744
20
142.45563568557964
10
176.21177136769998
20
142.3393235348612
10
176.13460842201255
20
142.22301105092993
10
176.0574580333545
20
142.10669890021148
10
175.98029508766703
20
141.99038641628022
10
175.903144699009
20
141.87407426556175
10
175.82598175332154
20
141.75776211484327
10
175.7488313646635
20
141.641449630912
10
175.67166841897605
20
141.52513703590984
10
175.594518030318
20
141.4088244964431
10
175.51735508463054
20
141.29251284554385
10
175.4401795819137
20
141.35937321689897
10
175.36300407919683
20
141.47568581190117
10
175.28581601945058
20
141.59199840690337
10
175.20864051673374
20
141.70830966905436
10
175.13145245698746
20
141.82462226405653
10
175.05427695427062
20
141.94093485905876
10
174.97708889452434
20
142.05724745406093
10
174.8999133918075
20
142.17355916049564
10
174.82272533206122
20
142.28987175549787
10
174.74554982934438
20
142.4061839062163
10
174.66836176959814
20
142.52249650121854
10
174.59118626688127
20
142.63880820765326
10
174.51399820713502
20
142.75512080265543
10
174.43682270441815
20
142.87143339765765
10
174.3596346446719
20
142.98774599265982
10
174.28245914195503
20
143.10405858766205
10
174.20527108220878
20
143.220369849813
10
174.12809557949194
20
143.3366824448152
10
174.05090751974566
20
143.4529950398174
10
173.97373201702882
20
143.5693076348196
10
173.89654395728255
20
143.68561934125432
10
173.8193684545657
20
143.80193193625655
10
173.74219295184884
20
143.91824453125872
10
173.6650048921026
20
144.0345566819772
10
173.58782938938575
20
144.1508683884119
10
173.51064132963947
20
144.2671809834141
10
173.43346582692263
20
144.3834935784163
10
173.35627776717635
20
144.4998061734185
10
173.2791022644595
20
144.61611787985322
10
173.20191420471326
20
144.73243047485545
10
173.1247387019964
20
144.8487426255739
10
173.04755064225014
20
144.9650552205761
10
172.97037513953327
20
145.0813669270108
10
172.89318707978703
20
145.197679522013
10
172.81601157707016
20
145.3139921170152
10
172.7388235173239
20
145.43030426773367
10
172.66164801460707
20
145.5466159741684
10
172.5844599548608
20
145.66292856917056
10
172.50728445214395
20
145.7792411641728
10
172.43009639239767
20
145.895553759175
10
172.35292088968083
20
146.0118654656097
10
172.27573282993458
20
146.1281780606119
10
172.1985573272177
20
146.2444906556141
10
172.12136926747147
20
146.3608032506163
10
172.0441937647546
20
146.4771158456185
10
171.96700570500835
20
146.5934275520532
10
171.88983020229148
20
146.70973970277169
10
171.81264214254523
20
146.82605229777386
10
171.7354666398284
20
146.94236489277608
10
171.6582785800821
20
147.05867615492707
10
171.58110307736527
20
147.17498874992924
10
171.503915017619
20
147.29130134493147
10
171.42673951490215
20
147.40761393993364
10
171.3495514551559
20
147.52392564636835
10
171.27237595243903
20
147.64023824137058
10
171.1951878926928
20
147.75655083637275
10
171.11801238997592
20
147.87286343137498
10
171.04083688725908
20
147.9891751378097
10
170.9636488275128
20
148.1054877328119
10
170.88647332479596
20
148.22179988353037
10
170.8092852650497
20
148.33811158996508
10
170.73210976233284
20
148.454424629251
10
170.6549217025866
20
148.57073633568572
10
170.57774619986972
20
148.68704804212044
10
170.50055814012347
20
148.80336152569012
10
170.4233826374066
20
148.91967323212484
10
170.34619457766036
20
149.03598671569452
10
170.5429506713913
20
149.1428307355942
10
173.83123484735248
20
149.1428307355942
10
175.2293847293091
20
149.20970876722808
10
175.2293847293091
20
149.3260524620922
10
175.2293847293091
20
149.44239793409128
10
175.2293847293091
20
149.5587416289554
10
175.2293847293091
20
149.67508532381953
10
175.2293847293091
20
149.7914307958186
10
175.2293847293091
20
149.9077744906827
10
175.2293847293091
20
150.02411818554683
10
175.2293847293091
20
150.14046365754592
10
175.2293847293091
20
150.25680735241002
10
175.2293847293091
20
150.37315282440912
10
175.2293847293091
20
150.48949651927325
10
175.2293847293091
20
150.60584021413734
10
175.2293847293091
20
150.72218568613644
10
175.2293847293091
20
150.83852938100057
10
175.2293847293091
20
150.95487307586467
10
175.2293847293091
20
151.07121854786374
10
175.2293847293091
20
151.1875622427279
10
175.2293847293091
20
151.30390771472696
10
175.2293847293091
20
151.42025140959106
10
175.2293847293091
20
151.5365951044552
10
175.2293847293091
20
151.65294057645428
10
175.2293847293091
20
151.76928427131838
10
175.2293847293091
20
151.8856279661825
10
175.2293847293091
20
152.0019734381816
10
175.2293847293091
20
152.1183171330457
10
175.2293847293091
20
152.2346626050448
10
175.2293847293091
20
152.35100629990893
10
175.2293847293091
20
152.46734999477303
10
175.2293847293091
20
152.5836954667721
10
175.2293847293091
20
152.70003916163623
10
175.2293847293091
20
152.81638463363532
10
175.2293847293091
20
152.93272832849942
10
175.2293847293091
20
153.04907202336355
10
175.2293847293091
20
153.16541749536265
10
175.2293847293091
20
153.28176119022675
10
175.2293847293091
20
153.39810488509087
10
175.2293847293091
20
153.51445035708997
10
175.2293847293091
20
153.63079405195407
10
175.2293847293091
20
153.74713952395314
10
175.2293847293091
20
153.8634832188173
10
175.2293847293091
20
153.9798269136814
10
175.2293847293091
20
154.09617238568046
10
175.2293847293091
20
154.2125160805446
10
175.2293847293091
20
154.32885977540872
10
175.2293847293091
20
154.44520524740778
10
175.2293847293091
20
154.5615489422719
10
175.2293847293091
20
154.677894414271
10
175.2293847293091
20
154.7942381091351
10
175.2293847293091
20
154.91058180399924
10
175.2293847293091
20
155.02692727599833
10
175.2293847293091
20
155.14327097086243
10
175.2293847293091
20
155.25961466572653
10
175.2293847293091
20
155.37596013772563
10
175.2293847293091
20
155.49230383258976
10
175.2293847293091
20
155.60864930458882
10
175.2293847293091
20
155.72499299945295
10
175.2293847293091
20
155.84133669431708
10
175.2293847293091
20
155.95768216631615
10
175.2293847293091
20
156.07402586118027
10
175.2293847293091
20
156.19037133317937
10
175.2293847293091
20
156.30671502804347
10
175.2293847293091
20
156.42305872290757
10
175.2293847293091
20
156.5394041949067
10
175.2293847293091
20
156.6557478897708
10
175.2293847293091
20
156.7720915846349
10
175.2293847293091
20
156.888437056634
10
175.2293847293091
20
157.00478075149812
10
175.2293847293091
20
157.12112622349719
10
175.2293847293091
20
157.2374699183613
10
175.2293847293091
20
157.35381361322544
10
175.2293847293091
20
157.4701590852245
10
175.2293847293091
20
157.58650278008864
10
175.2293847293091
20
157.70284647495276
10
175.2293847293091
20
157.81919194695183
10
175.2293847293091
20
157.93553564181596
10
175.2293847293091
20
158.05188111381503
10
175.2293847293091
20
158.16822480867916
10
175.2293847293091
20
158.28456850354326
10
175.2293847293091
20
158.40091397554235
10
175.2293847293091
20
158.51725767040648
10
175.2293847293091
20
158.63360136527058
10
175.77090662235568
20
158.6830696942033
10
175.77090662235568
20
158.56672422220421
10
175.77090662235568
20
158.45037875020512
10
175.77090662235568
20
158.334036832476
10
175.77090662235568
20
158.2176913604769
10
175.77090662235568
20
158.1013458884778
10
175.77090662235568
20
157.98500397074866
10
175.77090662235568
20
157.86865849874957
10
175.77090662235568
20
157.7523130267505
10
175.77090662235568
20
157.63597110902134
10
175.77090662235568
20
157.51962563702227
10
175.77090662235568
20
157.40328016502318
10
175.77090662235568
20
157.28693824729402
10
175.77090662235568
20
157.17059277529495
10
175.77090662235568
20
157.05424730329585
10
175.77090662235568
20
156.93790183129676
10
175.77090662235568
20
156.82155991356763
10
175.77089406532627
20
156.70521444156853
10
175.77089406532627
20
156.58886896956943
10
175.77089406532627
20
156.4725270518403
10
175.77089406532627
20
156.35618157984123
10
175.77089406532627
20
156.2398361078421
10
175.77089406532627
20
156.12349419011298
10
175.77089406532627
20
156.0071487181139
10
175.77089406532627
20
155.8908032461148
10
175.77089406532627
20
155.77446043981817
10
175.77089406532627
20
155.65811496781907
10
175.77089406532627
20
155.54177127295497
10
175.77089406532627
20
155.4254258009559
10
175.77089406532627
20
155.30908210609178
10
175.77089406532627
20
155.19273841122765
10
175.77089406532627
20
155.07639293922858
10
175.77089406532627
20
154.96004924436446
10
175.77089406532627
20
154.84370554950033
10
175.77089406532627
20
154.72736007750126
10
175.77089406532627
20
154.61101638263713
10
175.77089406532627
20
154.494672687773
10
175.77089406532627
20
154.37832721577394
10
175.77089406532627
20
154.26198174377487
10
175.77089406532627
20
154.14563982604568
10
175.77089406532627
20
154.0292943540466
10
175.77089406532627
20
153.91294888204754
10
175.77089406532627
20
153.79660696431839
10
175.77089406532627
20
153.6802614923193
10
175.77089406532627
20
153.56391602032022
10
175.77089406532627
20
153.44757410259106
10
175.77089406532627
20
153.33122863059197
10
175.77089406532627
20
153.2148831585929
10
175.77089406532627
20
153.09853768659383
10
175.77089406532627
20
152.98219576886464
10
175.77089406532627
20
152.86585029686557
10
175.77089406532627
20
152.7495048248665
10
175.77089406532627
20
152.63316290713735
10
175.77089406532627
20
152.51681743513825
10
175.77089406532627
20
152.40047196313918
10
175.77089406532627
20
152.28413004541002
10
175.77089406532627
20
152.16778457341093
10
175.77089406532627
20
152.05143910141186
10
175.77089406532627
20
151.9350971836827
10
175.77089406532627
20
151.8187517116836
10
175.77089406532627
20
151.70240623968454
10
175.7708815082969
20
151.58606076768547
10
175.7708815082969
20
151.46971884995628
10
175.7708815082969
20
151.3533733779572
10
175.7708815082969
20
151.23702790595814
10
175.7708815082969
20
151.12068598822898
10
175.7708815082969
20
151.0043405162299
10
175.7708815082969
20
150.88799504423082
10
175.7708815082969
20
150.77165312650166
10
175.7708815082969
20
150.65530765450256
10
175.7708815082969
20
150.5389621825035
10
175.7708815082969
20
150.42262026477434
10
175.7708815082969
20
150.30627479277524
10
175.7708815082969
20
150.18992932077617
10
175.7708815082969
20
150.07358740304704
10
175.7708815082969
20
149.95724193104795
10
175.7708815082969
20
149.84089645904885
10
175.7708815082969
20
149.72455098704978
10
175.7708815082969
20
149.60820906932062
10
175.7708815082969
20
149.49186359732153
10
175.7708815082969
20
149.37551812532246
10
175.7708815082969
20
149.2591762075933
10
175.7708815082969
20
149.1428307355942
97
0
75
1
76
1
47
1
98
0
0
LWPOLYLINE
5
1C
330
C
100
AcDbEntity
420
0
8
0
100
AcDbPolyline
90
305
70
0
43
0
38
0
39
0
10
175.7708815082969
20
149.1428307355942
10
179.05919079831685
20
149.1428307355942
10
180.6868831777782
20
149.08543905041253
10
180.6097327891202
20
148.96912734397782
10
180.53256984343273
20
148.85281474897562
10
180.45540689774526
20
148.73650215397342
10
180.37825650908724
20
148.6201904475387
10
180.30109356339977
20
148.5038778525365
10
180.22394317474172
20
148.38756525753428
10
180.1467802290543
20
148.2712526625321
10
180.06962984039623
20
148.15494051181363
10
179.99246689470877
20
148.03862791681144
10
179.91531650605074
20
147.922315766093
10
179.83815356036328
20
147.80600317109077
10
179.76100317170523
20
147.68969102037232
10
179.6838402260178
20
147.57337842537012
10
179.60668983735974
20
147.4570667189354
10
179.52952689167228
20
147.3407541239332
10
179.45236394598484
20
147.22444152893098
10
179.3752135573268
20
147.10812937821254
10
179.29805061163933
20
146.9918172274941
10
179.2209002229813
20
146.87550463249187
10
179.14373727729384
20
146.7591920374897
10
179.06658688863578
20
146.64287988677123
10
178.98942394294835
20
146.52656773605275
10
178.9122735542903
20
146.41025514105058
10
178.83511060860286
20
146.2939429903321
10
178.7579602199448
20
146.17763083961364
10
178.68079727425734
20
146.0613186888952
10
178.6036468855993
20
145.94500609389297
10
178.52648393991186
20
145.8286934988908
10
178.4493335512538
20
145.71238134817233
10
178.37217060556637
20
145.59606919745386
10
178.2950076598789
20
145.4797566024517
10
178.21785727122085
20
145.36344400744946
10
178.14069432553342
20
145.24713185673102
10
178.06354393687536
20
145.13081926172882
10
177.9863809911879
20
145.01450755529407
10
177.90923060252987
20
144.8981949602919
10
177.8320676568424
20
144.78188280957343
10
177.75491726818436
20
144.66557021457123
10
177.67775432249692
20
144.5492580638528
10
177.60060393383887
20
144.43294546885056
10
177.5234409881514
20
144.31663331813212
10
177.44629059949338
20
144.20032094527178
10
177.36912765380592
20
144.0840087945533
10
177.29197726514786
20
143.96769619955114
10
177.21481431946043
20
143.85138404883267
10
177.13765137377297
20
143.73507145383047
10
177.0605009851149
20
143.61875930311203
10
176.98333803942748
20
143.50244693025166
10
176.90618765076943
20
143.38613477953322
10
176.82902470508196
20
143.26982218453102
10
176.75187431642394
20
143.15351003381255
10
176.67471137073647
20
143.03719766095224
10
176.59756098207842
20
142.92088551023377
10
176.520398036391
20
142.80457291523157
10
176.44324764773293
20
142.68826032022938
10
176.3660847020455
20
142.5719481695109
10
176.28893431338744
20
142.45563568557964
10
176.21177136769998
20
142.3393235348612
10
176.13460842201255
20
142.22301105092993
10
176.0574580333545
20
142.10669890021148
10
175.98029508766703
20
141.99038641628022
10
175.903144699009
20
141.87407426556175
10
175.82598175332154
20
141.75776211484327
10
175.7488313646635
20
141.641449630912
10
175.67166841897605
20
141.52513703590984
10
175.594518030318
20
141.4088244964431
10
175.51735508463054
20
141.29251284554385
10
175.4401795819137
20
141.35937321689897
10
175.36300407919683
20
141.47568581190117
10
175.28581601945058
20
141.59199840690337
10
175.20864051673374
20
141.70830966905436
10
175.13145245698746
20
141.82462226405653
10
175.05427695427062
20
141.94093485905876
10
174.97708889452434
20
142.05724745406093
10
174.8999133918075
20
142.17355916049564
10
174.82272533206122
20
142.28987175549787
10
174.74554982934438
20
142.4061839062163
10
174.66836176959814
20
142.52249650121854
10
174.59118626688127
20
142.63880820765326
10
174.51399820713502
20
142.75512080265543
10
174.43682270441815
20
142.87143339765765
10
174.3596346446719
20
142.98774599265982
10
174.28245914195503
20
143.10405858766205
10
174.20527108220878
20
143.220369849813
10
174.12809557949194
20
143.3366824448152
10
174.05090751974566
20
143.4529950398174
10
173.97373201702882
20
143.5693076348196
10
173.89654395728255
20
143.68561934125432
10
173.8193684545657
20
143.80193193625655
10
173.74219295184884
20
143.91824453125872
10
173.6650048921026
20
144.0345566819772
10
173.58782938938575
20
144.1508683884119
10
173.51064132963947
20
144.2671809834141
10
173.43346582692263
20
144.3834935784163
10
173.35627776717635
20
144.4998061734185
10
173.2791022644595
20
144.61611787985322
10
173.20191420471326
20
144.73243047485545
10
173.1247387019964
20
144.8487426255739
10
173.04755064225014
20
144.9650552205761
10
172.97037513953327
20
145.0813669270108
10
172.89318707978703
20
145.197679522013
10
172.81601157707016
20
145.3139921170152
10
172.7388235173239
20
145.43030426773367
10
172.66164801460707
20
145.5466159741684
10
172.5844599548608
20
145.66292856917056
10
172.50728445214395
20
145.7792411641728
10
172.43009639239767
20
145.895553759175
10
172.35292088968083
20
146.0118654656097
10
172.27573282993458
20
146.1281780606119
10
172.1985573272177
20
146.2444906556141
10
172.12136926747147
20
146.3608032506163
10
172.0441937647546
20
146.4771158456185
10
171.96700570500835
20
146.5934275520532
10
171.88983020229148
20
146.70973970277169
10
171.81264214254523
20
146.82605229777386
10
171.7354666398284
20
146.94236489277608
10
171.6582785800821
20
147.05867615492707
10
171.58110307736527
20
147.17498874992924
10
171.503915017619
20
147.29130134493147
10
171.42673951490215
20
147.40761393993364
10
171.3495514551559
20
147.52392564636835
10
171.27237595243903
20
147.64023824137058
10
171.1951878926928
20
147.75655083637275
10
171.11801238997592
20
147.87286343137498
10
171.04083688725908
20
147.9891751378097
10
170.9636488275128
20
148.1054877328119
10
170.88647332479596
20
148.22179988353037
10
170.8092852650497
20
148.33811158996508
10
170.73210976233284
20
148.454424629251
10
170.6549217025866
20
148.57073633568572
10
170.57774619986972
20
148.68704804212044
10
170.50055814012347
20
148.80336152569012
10
170.4233826374066
20
148.91967323212484
10
170.34619457766036
20
149.03598671569452
10
170.5429506713913
20
149.1428307355942
10
173.83123484735248
20
149.1428307355942
10
175.2293847293091
20
149.20970876722808
10
175.2293847293091
20
149.3260524620922
10
175.2293847293091
20
149.44239793409128
10
175.2293847293091
20
149.5587416289554
10
175.2293847293091
20
149.67508532381953
10
175.2293847293091
20
149.7914307958186
10
175.2293847293091
20
149.9077744906827
10
175.2293847293091
20
150.02411818554683
10
175.2293847293091
20
150.14046365754592
10
175.2293847293091
20
150.25680735241002
10
175.2293847293091
20
150.37315282440912
10
175.2293847293091
20
150.48949651927325
10
175.2293847293091
20
150.60584021413734
10
175.2293847293091
20
150.72218568613644
10
175.2293847293091
20
150.83852938100057
10
175.2293847293091
20
150.95487307586467
10
175.2293847293091
20
151.07121854786374
10
175.2293847293091
20
151.1875622427279
10
175.2293847293091
20
151.30390771472696
10
175.2293847293091
20
151.42025140959106
10
175.2293847293091
20
151.5365951044552
10
175.2293847293091
20
151.65294057645428
10
175.2293847293091
20
151.76928427131838
10
175.2293847293091
20
151.8856279661825
10
175.2293847293091
20
152.0019734381816
10
175.2293847293091
20
152.1183171330457
10
175.2293847293091
20
152.2346626050448
10
175.2293847293091
20
152.35100629990893
10
175.2293847293091
20
152.46734999477303
10
175.2293847293091
20
152.5836954667721
10
175.2293847293091
20
152.70003916163623
10
175.2293847293091
20
152.81638463363532
10
175.2293847293091
20
152.93272832849942
10
175.2293847293091
20
153.04907202336355
10
175.2293847293091
20
153.16541749536265
10
175.2293847293091
20
153.28176119022675
10
175.2293847293091
20
153.39810488509087
10
175.2293847293091
20
153.51445035708997
10
175.2293847293091
20
153.63079405195407
10
175.2293847293091
20
153.74713952395314
10
175.2293847293091
20
153.8634832188173
10
175.2293847293091
20
153.9798269136814
10
175.2293847293091
20
154.09617238568046
10
175.2293847293091
20
154.2125160805446
10
175.2293847293091
20
154.32885977540872
10
175.2293847293091
20
154.44520524740778
10
175.2293847293091
20
154.5615489422719
10
175.2293847293091
20
154.677894414271
10
175.2293847293091
20
154.7942381091351
10
175.2293847293091
20
154.91058180399924
10
175.2293847293091
20
155.02692727599833
10
175.2293847293091
20
155.14327097086243
10
175.2293847293091
20
155.25961466572653
10
175.2293847293091
20
155.37596013772563
10
175.2293847293091
20
155.49230383258976
10
175.2293847293091
20
155.60864930458882
10
175.2293847293091
20
155.72499299945295
10
175.2293847293091
20
155.84133669431708
10
175.2293847293091
20
155.95768216631615
10
175.2293847293091
20
156.07402586118027
10
175.2293847293091
20
156.19037133317937
10
175.2293847293091
20
156.30671502804347
10
175.2293847293091
20
156.42305872290757
10
175.2293847293091
20
156.5394041949067
10
175.2293847293091
20
156.6557478897708
10
175.2293847293091
20
156.7720915846349
10
175.2293847293091
20
156.888437056634
10
175.2293847293091
20
157.00478075149812
10
175.2293847293091
20
157.12112622349719
10
175.2293847293091
20
157.2374699183613
10
175.2293847293091
20
157.35381361322544
10
175.2293847293091
20
157.4701590852245
10
175.2293847293091
20
157.58650278008864
10
175.2293847293091
20
157.70284647495276
10
175.2293847293091
20
157.81919194695183
10
175.2293847293091
20
157.93553564181596
10
175.2293847293091
20
158.05188111381503
10
175.2293847293091
20
158.16822480867916
10
175.2293847293091
20
158.28456850354326
10
175.2293847293091
20
158.40091397554235
10
175.2293847293091
20
158.51725767040648
10
175.2293847293091
20
158.63360136527058
10
175.77090662235568
20
158.6830696942033
10
175.77090662235568
20
158.56672422220421
10
175.77090662235568
20
158.45037875020512
10
175.77090662235568
20
158.334036832476
10
175.77090662235568
20
158.2176913604769
10
175.77090662235568
20
158.1013458884778
10
175.77090662235568
20
157.98500397074866
10
175.77090662235568
20
157.86865849874957
10
175.77090662235568
20
157.7523130267505
10
175.77090662235568
20
157.63597110902134
10
175.77090662235568
20
157.51962563702227
10
175.77090662235568
20
157.40328016502318
10
175.77090662235568
20
157.28693824729402
10
175.77090662235568
20
157.17059277529495
10
175.77090662235568
20
157.05424730329585
10
175.77090662235568
20
156.93790183129676
10
175.77090662235568
20
156.82155991356763
10
175.77089406532627
20
156.70521444156853
10
175.77089406532627
20
156.58886896956943
10
175.77089406532627
20
156.4725270518403
10
175.77089406532627
20
156.35618157984123
10
175.77089406532627
20
156.2398361078421
10
175.77089406532627
20
156.12349419011298
10
175.77089406532627
20
156.0071487181139
10
175.77089406532627
20
155.8908032461148
10
175.77089406532627
20
155.77446043981817
10
175.77089406532627
20
155.65811496781907
10
175.77089406532627
20
155.54177127295497
10
175.77089406532627
20
155.4254258009559
10
175.77089406532627
20
155.30908210609178
10
175.77089406532627
20
155.19273841122765
10
175.77089406532627
20
155.07639293922858
10
175.77089406532627
20
154.96004924436446
10
175.77089406532627
20
154.84370554950033
10
175.77089406532627
20
154.72736007750126
10
175.77089406532627
20
154.61101638263713
10
175.77089406532627
20
154.494672687773
10
175.77089406532627
20
154.37832721577394
10
175.77089406532627
20
154.26198174377487
10
175.77089406532627
20
154.14563982604568
10
175.77089406532627
20
154.0292943540466
10
175.77089406532627
20
153.91294888204754
10
175.77089406532627
20
153.79660696431839
10
175.77089406532627
20
153.6802614923193
10
175.77089406532627
20
153.56391602032022
10
175.77089406532627
20
153.44757410259106
10
175.77089406532627
20
153.33122863059197
10
175.77089406532627
20
153.2148831585929
10
175.77089406532627
20
153.09853768659383
10
175.77089406532627
20
152.98219576886464
10
175.77089406532627
20
152.86585029686557
10
175.77089406532627
20
152.7495048248665
10
175.77089406532627
20
152.63316290713735
10
175.77089406532627
20
152.51681743513825
10
175.77089406532627
20
152.40047196313918
10
175.77089406532627
20
152.28413004541002
10
175.77089406532627
20
152.16778457341093
10
175.77089406532627
20
152.05143910141186
10
175.77089406532627
20
151.9350971836827
10
175.77089406532627
20
151.8187517116836
10
175.77089406532627
20
151.70240623968454
10
175.7708815082969
20
151.58606076768547
10
175.7708815082969
20
151.46971884995628
10
175.7708815082969
20
151.3533733779572
10
175.7708815082969
20
151.23702790595814
10
175.7708815082969
20
151.12068598822898
10
175.7708815082969
20
151.0043405162299
10
175.7708815082969
20
150.88799504423082
10
175.7708815082969
20
150.77165312650166
10
175.7708815082969
20
150.65530765450256
10
175.7708815082969
20
150.5389621825035
10
175.7708815082969
20
150.42262026477434
10
175.7708815082969
20
150.30627479277524
10
175.7708815082969
20
150.18992932077617
10
175.7708815082969
20
150.07358740304704
10
175.7708815082969
20
149.95724193104795
10
175.7708815082969
20
149.84089645904885
10
175.7708815082969
20
149.72455098704978
10
175.7708815082969
20
149.60820906932062
10
175.7708815082969
20
149.49186359732153
10
175.7708815082969
20
149.37551812532246
10
175.7708815082969
20
149.2591762075933
10
175.7708815082969
20
149.1428307355942
10
175.7708815082969
20
149.1428307355942
0
LWPOLYLINE
5
1D
330
C
100
AcDbEntity
420
0
8
0
100
AcDbPolyline
90
5
70
0
43
0
38
0
39
0
10
170.2750000954792
20
141.13944318589506
10
170.2750000954792
20
141.6613923106518
10
180.7250022905208
20
141.6613923106518
10
180.7250022905208
20
141.13944318589506
10
170.2750000954792
20
141.13944318589506
0
TEXT
5
1E
330
C
100
AcDbEntity
420
0
8
0
100
AcDbText
10
178.5
20
170
30
0
40
10
1
AAAAA
50
90
7
Times New Roman
100
AcDbText
0
TEXT
5
20
330
C
100
AcDbEntity
420
0
8
0
100
AcDbText
10
86.234375
20
137
30
0
40
20
1
å
7
Wingdings
100
AcDbText
0
LWPOLYLINE
5
22
330
C
100
AcDbEntity
420
0
8
0
100
AcDbPolyline
90
5
70
0
43
0
38
0
39
0
10
24.5
20
28.5
10
24.5
20
60.5
10
69.5
20
60.5
10
69.5
20
28.5
10
24.5
20
28.5
0
IMAGE
5
24
330
C
100
AcDbEntity
8
0
100
AcDbRasterImage
90
0
10
29.45
20
27.5
30
0
11
6.123233995736766e-17
21
-1
31
0
12
1
22
6.123233995736766e-17
32
0
13
30
23
35
340
23
70
3
280
1
281
50
282
50
283
0
360
25
71
1
91
2
14
-0.5
24
-0.5
14
29.5
24
34.5
290
1
0
TEXT
5
27
330
C
100
AcDbEntity
420
0
8
0
100
AcDbText
10
35.5
20
0.7265999999999622
30
0
40
12
1
=+S0001-Clv6xx
50
90
7
Times New Roman
100
AcDbText
0
LWPOLYLINE
5
28
330
C
100
AcDbEntity
420
0
8
0
100
AcDbPolyline
90
5
70
0
43
0
38
0
39
0
10
88
20
133
10
178
20
133
10
178
20
1
10
88
20
1
10
88
20
133
0
LWPOLYLINE
5
29
330
C
100
AcDbEntity
420
7329938
8
0
100
AcDbPolyline
90
5
70
0
43
0
38
0
39
0
10
89
20
132
10
177
20
132
10
177
20
98
10
89
20
98
10
89
20
132
0
TEXT
5
2A
330
C
100
AcDbEntity
420
0
8
0
100
AcDbText
10
117.53124984741211
20
113.63437485158443
30
0
40
10.4
1
AABB
7
Times New Roman
100
AcDbText
0
TEXT
5
2B
330
C
100
AcDbEntity
420
0
8
0
100
AcDbText
10
171.01562441825865
20
89.44296865668147
30
0
40
10.134375
1
0
7
Times New Roman
100
AcDbText
0
IMAGE
5
2D
330
C
100
AcDbEntity
8
0
100
AcDbRasterImage
90
0
10
89
20
126
30
0
11
1
21
0
31
0
12
0
22
1
32
0
13
22
23
22
340
2C
70
3
280
1
281
50
282
50
283
0
360
2E
71
1
91
2
14
-0.5
24
-0.5
14
21.5
24
21.5
290
1
0
ENDSEC
0
SECTION
2
OBJECTS
0
DICTIONARY
5
A
330
0
100
AcDbDictionary
281
1
3
ACAD_GROUP
350
B
3
ACAD_IMAGE_DICT
350
26
3
ACAD_IMAGE_DICT
350
2F
0
DICTIONARY
5
B
330
A
100
AcDbDictionary
281
0
0
IMAGEDEF
5
23
330
26
102
{ACAD_REACTORS
330
26
330
25
102
}
100
AcDbRasterImageDef
1
images/image1.jpg
10
30
20
35
11
1
21
1
280
1
281
0
0
IMAGEDEF_REACTOR
5
25
330
0
100
AcDbRasterImageDefReactor
90
2
330
24
0
DICTIONARY
5
26
330
A
100
AcDbDictionary
281
0
3
image1
350
23
0
IMAGEDEF
5
2C
330
2F
102
{ACAD_REACTORS
330
2F
330
2E
102
}
100
AcDbRasterImageDef
1
images/image2.jpg
10
22
20
22
11
1
21
1
280
1
281
0
0
IMAGEDEF_REACTOR
5
2E
330
0
100
AcDbRasterImageDefReactor
90
2
330
2D
0
DICTIONARY
5
2F
330
A
100
AcDbDictionary
281
0
3
image2
350
2C
0
ENDSEC
0
EOF