0
SECTION
2
HEADER
9
$ACADVER
1
AC1021
9
$LASTSAVEDBY
1
@tarikjabiri/dxf
9
$HANDSEED
5
26
9
$INSUNITS
70
0
9
$CLAYER
8
0
9
$VIEWCTR
10
67
20
250.89213562373095
0
ENDSEC
0
SECTION
2
CLASSES
0
ENDSEC
0
SECTION
2
TABLES
0
TABLE
2
VPORT
5
1
330
0
100
AcDbSymbolTable
70
1
0
VPORT
5
19
330
1
100
AcDbSymbolTableRecord
100
AcDbViewportTableRecord
2
*Active
70
0
10
0
20
0
11
1
21
1
12
67
22
250.89213562373095
13
0
23
0
14
10
24
10
15
10
25
10
16
0
26
0
36
1
17
0
27
0
37
0
40
701.7842712474619
41
2
42
50
43
0
44
0
50
0
51
0
71
0
72
100
73
1
74
3
75
0
76
1
77
0
78
0
281
0
65
1
110
0
120
0
130
0
111
1
121
0
131
0
112
0
122
1
132
0
79
0
146
0
348
10020
60
7
61
5
292
1
282
1
141
0
142
0
63
250
421
3358443
0
ENDTAB
0
TABLE
2
LTYPE
5
2
330
0
100
AcDbSymbolTable
70
3
0
LTYPE
5
12
330
2
100
AcDbSymbolTableRecord
100
AcDbLinetypeTableRecord
2
ByBlock
70
0
3

72
65
73
0
40
0
0
LTYPE
5
13
330
2
100
AcDbSymbolTableRecord
100
AcDbLinetypeTableRecord
2
ByLayer
70
0
3

72
65
73
0
40
0
0
LTYPE
5
14
330
2
100
AcDbSymbolTableRecord
100
AcDbLinetypeTableRecord
2
Continuous
70
0
3
Solid line
72
65
73
0
40
0
0
ENDTAB
0
TABLE
2
LAYER
5
3
330
0
100
AcDbSymbolTable
70
1
0
LAYER
5
15
330
3
100
AcDbSymbolTableRecord
100
AcDbLayerTableRecord
2
0
70
0
62
7
6
Continuous
370
0
390
0
0
ENDTAB
0
TABLE
2
STYLE
5
4
330
0
100
AcDbSymbolTable
70
1
0
STYLE
5
16
330
4
100
AcDbSymbolTableRecord
100
AcDbTextStyleTableRecord
2
Standard
70
0
40
0
41
1
50
0
71
0
42
1
3
txt
4

0
ENDTAB
0
TABLE
2
VIEW
5
5
330
0
100
AcDbSymbolTable
70
0
0
ENDTAB
0
TABLE
2
UCS
5
6
330
0
100
AcDbSymbolTable
70
0
0
ENDTAB
0
TABLE
2
APPID
5
7
330
0
100
AcDbSymbolTable
70
1
0
APPID
5
17
330
7
100
AcDbSymbolTableRecord
100
AcDbRegAppTableRecord
2
ACAD
70
0
0
ENDTAB
0
TABLE
2
DIMSTYLE
5
8
330
0
100
AcDbSymbolTable
70
1
100
AcDbDimStyleTable
0
DIMSTYLE
105
18
330
8
100
AcDbSymbolTableRecord
100
AcDbDimStyleTableRecord
2
Standard
70
0
340
16
0
ENDTAB
0
TABLE
2
BLOCK_RECORD
5
9
330
0
100
AcDbSymbolTable
70
2
0
BLOCK_RECORD
5
C
330
9
100
AcDbSymbolTableRecord
100
AcDbBlockTableRecord
2
*Model_Space
70
0
280
1
281
0
0
BLOCK_RECORD
5
F
330
9
100
AcDbSymbolTableRecord
100
AcDbBlockTableRecord
2
*Paper_Space
70
0
280
1
281
0
0
ENDTAB
0
ENDSEC
0
SECTION
2
BLOCKS
0
BLOCK
5
D
330
C
100
AcDbEntity
8
0
100
AcDbBlockBegin
2
*Model_Space
70
0
10
0
20
0
30
0
3
*Model_Space
1

0
ENDBLK
5
E
100
AcDbEntity
8
0
100
AcDbBlockEnd
0
BLOCK
5
10
330
F
100
AcDbEntity
8
0
100
AcDbBlockBegin
2
*Paper_Space
70
0
10
0
20
0
30
0
3
*Paper_Space
1

0
ENDBLK
5
11
100
AcDbEntity
8
0
100
AcDbBlockEnd
0
ENDSEC
0
SECTION
2
ENTITIES
0
LWPOLYLINE
5
1A
330
C
100
AcDbEntity
420
0
8
0
100
AcDbPolyline
90
5
70
0
43
0
38
0
39
0
10
80
20
580
10
162
20
580
10
162
20
458
10
80
20
458
10
80
20
580
0
IMAGE
5
1C
330
C
100
AcDbEntity
8
0
100
AcDbRasterImage
90
0
10
81
20
573.5
30
0
11
1
21
0
31
0
12
0
22
1
32
0
13
20
23
20
340
1B
70
3
280
1
281
50
282
50
283
0
360
1D
71
1
91
2
14
-0.5
24
-0.5
14
19.5
24
19.5
290
1
0
LWPOLYLINE
5
1F
330
C
100
AcDbEntity
420
0
8
0
100
AcDbPolyline
90
33
70
0
43
0
38
0
39
0
10
178.72697566791604
20
574.499990135464
10
178.62110243529116
20
573.480639047104
10
178.3075513863719
20
572.5004610494111
10
177.79837211212674
20
571.5971238331463
10
177.11313208651396
20
570.8053421409334
10
176.27816469943076
20
570.1555436991678
10
175.3255572793077
20
569.6726998975555
10
174.29191799507166
20
569.3753661526105
10
173.21696902474426
20
569.2749688334043
10
172.1420200544169
20
569.3753661526105
10
171.10838077018084
20
569.6726998975555
10
170.15577335005776
20
570.1555436991678
10
169.3208059629746
20
570.8053421409334
10
168.63556593736178
20
571.5971238331463
10
168.12638666311665
20
572.5004610494111
10
167.81283561419735
20
573.480639047104
10
167.70696238157248
20
574.499990135464
10
167.81283561419735
20
575.519341223824
10
168.12638666311665
20
576.499519221517
10
168.63556593736178
20
577.4028564377818
10
169.3208059629746
20
578.1946381299946
10
170.15577335005776
20
578.8444365717602
10
171.10838077018084
20
579.3272803733726
10
172.1420200544169
20
579.6246141183176
10
173.21696902474426
20
579.7250114375238
10
174.29191799507166
20
579.6246141183176
10
175.3255572793077
20
579.3272803733726
10
176.27816469943076
20
578.8444365717602
10
177.11313208651396
20
578.1946381299946
10
177.79837211212674
20
577.4028564377818
10
178.3075513863719
20
576.499519221517
10
178.62110243529116
20
575.519341223824
10
178.72697566791604
20
574.499990135464
0
LWPOLYLINE
5
20
330
C
100
AcDbEntity
420
0
8
0
100
AcDbPolyline
90
305
70
0
43
0
38
0
39
0
10
158.1428307355942
20
574.229118491703
10
158.1428307355942
20
570.9408092016831
10
158.08543905041253
20
569.3131168222218
10
157.96912734397782
20
569.3902672108798
10
157.85281474897562
20
569.4674301565673
10
157.73650215397342
20
569.5445931022548
10
157.6201904475387
20
569.6217434909128
10
157.5038778525365
20
569.6989064366003
10
157.3875652575343
20
569.7760568252583
10
157.2712526625321
20
569.8532197709458
10
157.15494051181363
20
569.9303701596037
10
157.03862791681144
20
570.0075331052913
10
156.922315766093
20
570.0846834939492
10
156.80600317109077
20
570.1618464396367
10
156.68969102037232
20
570.2389968282948
10
156.57337842537012
20
570.3161597739822
10
156.4570667189354
20
570.3933101626403
10
156.3407541239332
20
570.4704731083277
10
156.224441528931
20
570.5476360540151
10
156.10812937821254
20
570.6247864426732
10
155.9918172274941
20
570.7019493883606
10
155.8755046324919
20
570.7790997770187
10
155.7591920374897
20
570.8562627227061
10
155.64287988677123
20
570.9334131113642
10
155.52656773605275
20
571.0105760570516
10
155.41025514105056
20
571.0877264457097
10
155.2939429903321
20
571.1648893913971
10
155.17763083961364
20
571.2420397800552
10
155.0613186888952
20
571.3192027257427
10
154.945006093893
20
571.3963531144007
10
154.8286934988908
20
571.4735160600882
10
154.71238134817233
20
571.5506664487461
10
154.59606919745386
20
571.6278293944337
10
154.47975660245166
20
571.7049923401211
10
154.36344400744946
20
571.7821427287791
10
154.24713185673102
20
571.8593056744666
10
154.13081926172882
20
571.9364560631246
10
154.0145075552941
20
572.0136190088122
10
153.8981949602919
20
572.0907693974701
10
153.78188280957343
20
572.1679323431576
10
153.66557021457123
20
572.2450827318156
10
153.5492580638528
20
572.3222456775031
10
153.43294546885056
20
572.3993960661611
10
153.31663331813212
20
572.4765590118486
10
153.20032094527178
20
572.5537094005066
10
153.08400879455334
20
572.6308723461941
10
152.96769619955114
20
572.7080227348522
10
152.85138404883267
20
572.7851856805396
10
152.73507145383047
20
572.862348626227
10
152.618759303112
20
572.9394990148851
10
152.5024469302517
20
573.0166619605725
10
152.38613477953322
20
573.0938123492306
10
152.26982218453102
20
573.170975294918
10
152.15351003381255
20
573.2481256835761
10
152.03719766095224
20
573.3252886292635
10
151.92088551023377
20
573.4024390179216
10
151.80457291523157
20
573.479601963609
10
151.68826032022938
20
573.556752352267
10
151.5719481695109
20
573.6339152979544
10
151.45563568557964
20
573.7110656866125
10
151.3393235348612
20
573.7882286323
10
151.22301105092993
20
573.8653915779875
10
151.10669890021146
20
573.9425419666455
10
150.99038641628022
20
574.0197049123329
10
150.87407426556175
20
574.096855300991
10
150.75776211484327
20
574.1740182466784
10
150.641449630912
20
574.2511686353365
10
150.5251370359098
20
574.3283315810239
10
150.4088244964431
20
574.405481969682
10
150.29251284554383
20
574.4826449153695
10
150.35937321689897
20
574.5598204180862
10
150.47568581190117
20
574.6369959208032
10
150.59199840690337
20
574.7141839805495
10
150.70830966905433
20
574.7913594832662
10
150.82462226405653
20
574.8685475430125
10
150.94093485905876
20
574.9457230457294
10
151.05724745406096
20
575.0229111054757
10
151.17355916049567
20
575.1000866081924
10
151.28987175549787
20
575.1772746679387
10
151.4061839062163
20
575.2544501706557
10
151.5224965012185
20
575.3316382304018
10
151.63880820765323
20
575.4088137331187
10
151.75512080265543
20
575.486001792865
10
151.87143339765763
20
575.5631772955819
10
151.98774599265982
20
575.6403653553281
10
152.10405858766205
20
575.7175408580449
10
152.220369849813
20
575.7947289177912
10
152.3366824448152
20
575.871904420508
10
152.4529950398174
20
575.9490924802543
10
152.5693076348196
20
576.0262679829711
10
152.68561934125432
20
576.1034560427174
10
152.80193193625652
20
576.1806315454343
10
152.91824453125872
20
576.2578070481511
10
153.0345566819772
20
576.3349951078974
10
153.1508683884119
20
576.4121706106142
10
153.2671809834141
20
576.4893586703605
10
153.3834935784163
20
576.5665341730773
10
153.4998061734185
20
576.6437222328236
10
153.61611787985322
20
576.7208977355405
10
153.73243047485542
20
576.7980857952867
10
153.8487426255739
20
576.8752612980036
10
153.9650552205761
20
576.9524493577499
10
154.0813669270108
20
577.0296248604667
10
154.197679522013
20
577.106812920213
10
154.3139921170152
20
577.1839884229298
10
154.43030426773367
20
577.2611764826761
10
154.5466159741684
20
577.3383519853929
10
154.6629285691706
20
577.4155400451392
10
154.7792411641728
20
577.492715547856
10
154.895553759175
20
577.5699036076023
10
155.0118654656097
20
577.6470791103192
10
155.1281780606119
20
577.7242671700654
10
155.2444906556141
20
577.8014426727823
10
155.3608032506163
20
577.8786307325286
10
155.4771158456185
20
577.9558062352454
10
155.5934275520532
20
578.0329942949917
10
155.70973970277169
20
578.1101697977085
10
155.82605229777388
20
578.1873578574548
10
155.94236489277608
20
578.2645333601716
10
156.05867615492704
20
578.3417214199179
10
156.17498874992924
20
578.4188969226348
10
156.29130134493144
20
578.496084982381
10
156.40761393993364
20
578.5732604850979
10
156.52392564636838
20
578.650448544844
10
156.64023824137058
20
578.727624047561
10
156.75655083637278
20
578.8048121073073
10
156.87286343137498
20
578.8819876100241
10
156.9891751378097
20
578.959163112741
10
157.1054877328119
20
579.0363511724872
10
157.22179988353034
20
579.1135266752041
10
157.33811158996505
20
579.1907147349502
10
157.454424629251
20
579.2678902376672
10
157.57073633568572
20
579.3450782974135
10
157.68704804212044
20
579.4222538001303
10
157.80336152569012
20
579.4994418598765
10
157.91967323212484
20
579.5766173625934
10
158.03598671569452
20
579.6538054223397
10
158.1428307355942
20
579.4570493286087
10
158.1428307355942
20
576.1687651526476
10
158.20970876722808
20
574.7706152706909
10
158.3260524620922
20
574.7706152706909
10
158.44239793409128
20
574.7706152706909
10
158.5587416289554
20
574.7706152706909
10
158.6750853238195
20
574.7706152706909
10
158.7914307958186
20
574.7706152706909
10
158.90777449068273
20
574.7706152706909
10
159.02411818554683
20
574.7706152706909
10
159.14046365754592
20
574.7706152706909
10
159.25680735241002
20
574.7706152706909
10
159.37315282440912
20
574.7706152706909
10
159.48949651927325
20
574.7706152706909
10
159.60584021413734
20
574.7706152706909
10
159.72218568613644
20
574.7706152706909
10
159.83852938100054
20
574.7706152706909
10
159.95487307586467
20
574.7706152706909
10
160.07121854786377
20
574.7706152706909
10
160.18756224272786
20
574.7706152706909
10
160.30390771472696
20
574.7706152706909
10
160.42025140959106
20
574.7706152706909
10
160.5365951044552
20
574.7706152706909
10
160.65294057645428
20
574.7706152706909
10
160.76928427131838
20
574.7706152706909
10
160.8856279661825
20
574.7706152706909
10
161.0019734381816
20
574.7706152706909
10
161.1183171330457
20
574.7706152706909
10
161.2346626050448
20
574.7706152706909
10
161.3510062999089
20
574.7706152706909
10
161.46734999477303
20
574.7706152706909
10
161.58369546677213
20
574.7706152706909
10
161.70003916163623
20
574.7706152706909
10
161.81638463363532
20
574.7706152706909
10
161.93272832849942
20
574.7706152706909
10
162.04907202336355
20
574.7706152706909
10
162.16541749536265
20
574.7706152706909
10
162.28176119022675
20
574.7706152706909
10
162.39810488509087
20
574.7706152706909
10
162.51445035708994
20
574.7706152706909
10
162.63079405195407
20
574.7706152706909
10
162.74713952395317
20
574.7706152706909
10
162.86348321881727
20
574.7706152706909
10
162.9798269136814
20
574.7706152706909
10
163.09617238568046
20
574.7706152706909
10
163.2125160805446
20
574.7706152706909
10
163.32885977540872
20
574.7706152706909
10
163.44520524740778
20
574.7706152706909
10
163.5615489422719
20
574.7706152706909
10
163.677894414271
20
574.7706152706909
10
163.7942381091351
20
574.7706152706909
10
163.91058180399924
20
574.7706152706909
10
164.0269272759983
20
574.7706152706909
10
164.14327097086243
20
574.7706152706909
10
164.25961466572656
20
574.7706152706909
10
164.37596013772563
20
574.7706152706909
10
164.49230383258976
20
574.7706152706909
10
164.60864930458882
20
574.7706152706909
10
164.72499299945295
20
574.7706152706909
10
164.84133669431708
20
574.7706152706909
10
164.95768216631615
20
574.7706152706909
10
165.07402586118027
20
574.7706152706909
10
165.19037133317934
20
574.7706152706909
10
165.30671502804347
20
574.7706152706909
10
165.4230587229076
20
574.7706152706909
10
165.53940419490667
20
574.7706152706909
10
165.6557478897708
20
574.7706152706909
10
165.77209158463492
20
574.7706152706909
10
165.888437056634
20
574.7706152706909
10
166.00478075149812
20
574.7706152706909
10
166.12112622349719
20
574.7706152706909
10
166.2374699183613
20
574.7706152706909
10
166.35381361322544
20
574.7706152706909
10
166.4701590852245
20
574.7706152706909
10
166.58650278008864
20
574.7706152706909
10
166.70284647495276
20
574.7706152706909
10
166.81919194695183
20
574.7706152706909
10
166.93553564181596
20
574.7706152706909
10
167.05188111381503
20
574.7706152706909
10
167.16822480867916
20
574.7706152706909
10
167.28456850354326
20
574.7706152706909
10
167.40091397554235
20
574.7706152706909
10
167.51725767040648
20
574.7706152706909
10
167.63360136527058
20
574.7706152706909
10
167.6830696942033
20
574.2290933776443
10
167.56672422220421
20
574.2290933776443
10
167.45037875020512
20
574.2290933776443
10
167.334036832476
20
574.2290933776443
10
167.2176913604769
20
574.2290933776443
10
167.1013458884778
20
574.2290933776443
10
166.98500397074866
20
574.2290933776443
10
166.86865849874957
20
574.2290933776443
10
166.7523130267505
20
574.2290933776443
10
166.63597110902134
20
574.2290933776443
10
166.51962563702224
20
574.2290933776443
10
166.40328016502318
20
574.2290933776443
10
166.28693824729402
20
574.2290933776443
10
166.17059277529495
20
574.2290933776443
10
166.05424730329585
20
574.2290933776443
10
165.93790183129676
20
574.2290933776443
10
165.82155991356763
20
574.2290933776443
10
165.70521444156853
20
574.2291059346737
10
165.58886896956946
20
574.2291059346737
10
165.4725270518403
20
574.2291059346737
10
165.3561815798412
20
574.2291059346737
10
165.23983610784214
20
574.2291059346737
10
165.12349419011298
20
574.2291059346737
10
165.00714871811388
20
574.2291059346737
10
164.8908032461148
20
574.2291059346737
10
164.77446043981817
20
574.2291059346737
10
164.6581149678191
20
574.2291059346737
10
164.54177127295497
20
574.2291059346737
10
164.42542580095588
20
574.2291059346737
10
164.30908210609178
20
574.2291059346737
10
164.19273841122765
20
574.2291059346737
10
164.07639293922858
20
574.2291059346737
10
163.96004924436446
20
574.2291059346737
10
163.84370554950033
20
574.2291059346737
10
163.72736007750126
20
574.2291059346737
10
163.61101638263713
20
574.2291059346737
10
163.494672687773
20
574.2291059346737
10
163.37832721577394
20
574.2291059346737
10
163.26198174377484
20
574.2291059346737
10
163.1456398260457
20
574.2291059346737
10
163.0292943540466
20
574.2291059346737
10
162.91294888204754
20
574.2291059346737
10
162.79660696431839
20
574.2291059346737
10
162.6802614923193
20
574.2291059346737
10
162.56391602032022
20
574.2291059346737
10
162.44757410259106
20
574.2291059346737
10
162.33122863059197
20
574.2291059346737
10
162.2148831585929
20
574.2291059346737
10
162.0985376865938
20
574.2291059346737
10
161.98219576886467
20
574.2291059346737
10
161.86585029686557
20
574.2291059346737
10
161.74950482486648
20
574.2291059346737
10
161.63316290713735
20
574.2291059346737
10
161.51681743513825
20
574.2291059346737
10
161.40047196313918
20
574.2291059346737
10
161.28413004541002
20
574.2291059346737
10
161.16778457341093
20
574.2291059346737
10
161.05143910141186
20
574.2291059346737
10
160.9350971836827
20
574.2291059346737
10
160.8187517116836
20
574.2291059346737
10
160.70240623968454
20
574.2291059346737
10
160.58606076768544
20
574.229118491703
10
160.4697188499563
20
574.229118491703
10
160.3533733779572
20
574.229118491703
10
160.23702790595814
20
574.229118491703
10
160.12068598822898
20
574.229118491703
10
160.0043405162299
20
574.229118491703
10
159.88799504423082
20
574.229118491703
10
159.77165312650166
20
574.229118491703
10
159.65530765450256
20
574.229118491703
10
159.5389621825035
20
574.229118491703
10
159.42262026477434
20
574.229118491703
10
159.30627479277527
20
574.229118491703
10
159.18992932077617
20
574.229118491703
10
159.07358740304701
20
574.229118491703
10
158.95724193104795
20
574.229118491703
10
158.84089645904885
20
574.229118491703
10
158.72455098704978
20
574.229118491703
10
158.60820906932062
20
574.229118491703
10
158.49186359732153
20
574.229118491703
10
158.37551812532246
20
574.229118491703
10
158.2591762075933
20
574.229118491703
10
158.1428307355942
20
574.229118491703
10
158.1428307355942
20
574.229118491703
0
LWPOLYLINE
5
21
330
C
100
AcDbEntity
420
0
8
0
100
AcDbPolyline
90
5
70
0
43
0
38
0
39
0
10
150.13944318589506
20
579.7249999045208
10
150.6613923106518
20
579.7249999045208
10
150.6613923106518
20
569.2749977094792
10
150.13944318589506
20
569.2749977094792
10
150.13944318589506
20
579.7249999045208
0
LWPOLYLINE
5
22
330
C
100
AcDbEntity
420
0
8
0
100
AcDbPolyline
90
65
70
0
43
0
38
0
39
0
10
145
20
505
10
146.39163208007812
20
505.09925842285156
10
147.78390502929688
20
505.18914794921875
10
149.17674255371094
20
505.26979064941406
10
150.570068359375
20
505.3415222167969
10
151.9637908935547
20
505.40478515625
10
153.35789489746094
20
505.4596405029297
10
154.7522735595703
20
505.506591796875
10
156.14688110351562
20
505.5457763671875
10
157.5417022705078
20
505.5773620605469
10
158.93666076660156
20
505.6018981933594
10
160.33172607421875
20
505.6191864013672
10
161.7268524169922
20
505.6297302246094
10
163.12200927734375
20
505.63377380371094
10
164.51718139648438
20
505.6312561035156
10
165.91232299804688
20
505.6225128173828
10
167.3074188232422
20
505.6077575683594
10
168.7024383544922
20
505.5872039794922
10
170.09735107421875
20
505.5603485107422
10
171.49215698242188
20
505.52845764160156
10
172.88682556152344
20
505.4911804199219
10
174.28134155273438
20
505.4486541748047
10
175.6757049560547
20
505.4010009765625
10
177.0698699951172
20
505.34832763671875
10
178.46385192871094
20
505.290771484375
10
179.85763549804688
20
505.2284698486328
10
181.25119018554688
20
505.16151428222656
10
182.64453125
20
505.0900115966797
10
184.0376434326172
20
505.0140838623047
10
185.4304962158203
20
504.9337921142578
10
186.82310485839844
20
504.84930419921875
10
188.2154541015625
20
504.7606658935547
10
189.6075439453125
20
504.66796875
10
190.99937438964844
20
504.5713653564453
10
192.3909149169922
20
504.4709014892578
10
193.78219604492188
20
504.36663818359375
10
195.1731719970703
20
504.2587127685547
10
196.5638885498047
20
504.1471862792969
10
197.95431518554688
20
504.0321502685547
10
199.3444366455078
20
503.9136505126953
10
200.73426818847656
20
503.7917785644531
10
202.1238250732422
20
503.6666259765625
10
203.51307678222656
20
503.5382385253906
10
204.9020233154297
20
503.4067077636719
10
206.2906951904297
20
503.2720642089844
10
207.67904663085938
20
503.13438415527344
10
209.06707763671875
20
502.9933319091797
10
210.45480346679688
20
502.84938049316406
10
211.84222412109375
20
502.70257568359375
10
213.22935485839844
20
502.552978515625
10
214.61618041992188
20
502.40065002441406
10
216.00271606445312
20
502.2456512451172
10
217.38894653320312
20
502.0880432128906
10
218.77487182617188
20
501.9276428222656
10
220.16046142578125
20
501.7643737792969
10
221.54574584960938
20
501.59861755371094
10
222.93075561523438
20
501.4304504394531
10
224.31546020507812
20
501.2599182128906
10
225.6998748779297
20
501.0870361328125
10
227.083984375
20
500.9116973876953
10
228.46775817871094
20
500.7336883544922
10
229.8512420654297
20
500.553466796875
10
231.23443603515625
20
500.37107849121094
10
232.6173553466797
20
500.1865692138672
10
234
20
500
0
LWPOLYLINE
5
23
330
C
100
AcDbEntity
420
0
8
0
100
AcDbPolyline
90
65
70
0
43
0
38
0
39
0
10
145
20
505
10
146.39163208007812
20
505.09925842285156
10
147.78390502929688
20
505.18914794921875
10
149.17674255371094
20
505.26979064941406
10
150.570068359375
20
505.3415222167969
10
151.9637908935547
20
505.40478515625
10
153.35789489746094
20
505.4596405029297
10
154.7522735595703
20
505.506591796875
10
156.14688110351562
20
505.5457763671875
10
157.5417022705078
20
505.5773620605469
10
158.93666076660156
20
505.6018981933594
10
160.33172607421875
20
505.6191864013672
10
161.7268524169922
20
505.6297302246094
10
163.12200927734375
20
505.63377380371094
10
164.51718139648438
20
505.6312561035156
10
165.91232299804688
20
505.6225128173828
10
167.3074188232422
20
505.6077575683594
10
168.7024383544922
20
505.5872039794922
10
170.09735107421875
20
505.5603485107422
10
171.49215698242188
20
505.52845764160156
10
172.88682556152344
20
505.4911804199219
10
174.28134155273438
20
505.4486541748047
10
175.6757049560547
20
505.4010009765625
10
177.0698699951172
20
505.34832763671875
10
178.46385192871094
20
505.290771484375
10
179.85763549804688
20
505.2284698486328
10
181.25119018554688
20
505.16151428222656
10
182.64453125
20
505.0900115966797
10
184.0376434326172
20
505.0140838623047
10
185.4304962158203
20
504.9337921142578
10
186.82310485839844
20
504.84930419921875
10
188.2154541015625
20
504.7606658935547
10
189.6075439453125
20
504.66796875
10
190.99937438964844
20
504.5713653564453
10
192.3909149169922
20
504.4709014892578
10
193.78219604492188
20
504.36663818359375
10
195.1731719970703
20
504.2587127685547
10
196.5638885498047
20
504.1471862792969
10
197.95431518554688
20
504.0321502685547
10
199.3444366455078
20
503.9136505126953
10
200.73426818847656
20
503.7917785644531
10
202.1238250732422
20
503.6666259765625
10
203.51307678222656
20
503.5382385253906
10
204.9020233154297
20
503.4067077636719
10
206.2906951904297
20
503.2720642089844
10
207.67904663085938
20
503.13438415527344
10
209.06707763671875
20
502.9933319091797
10
210.45480346679688
20
502.84938049316406
10
211.84222412109375
20
502.70257568359375
10
213.22935485839844
20
502.552978515625
10
214.61618041992188
20
502.40065002441406
10
216.00271606445312
20
502.2456512451172
10
217.38894653320312
20
502.0880432128906
10
218.77487182617188
20
501.9276428222656
10
220.16046142578125
20
501.7643737792969
10
221.54574584960938
20
501.59861755371094
10
222.93075561523438
20
501.4304504394531
10
224.31546020507812
20
501.2599182128906
10
225.6998748779297
20
501.0870361328125
10
227.083984375
20
500.9116973876953
10
228.46775817871094
20
500.7336883544922
10
229.8512420654297
20
500.553466796875
10
231.23443603515625
20
500.37107849121094
10
232.6173553466797
20
500.1865692138672
10
234
20
500
0
HATCH
5
24
330
C
100
AcDbEntity
420
0
8
0
100
AcDbHatch
10
0
20
0
30
0
210
0
220
0
230
1
2
SOLID
70
1
71
0
91
1
92
7
72
0
73
1
93
33
10
222.91012491635365
20
507.5508059589106
10
223.60324210908155
20
507.0788805864787
10
224.29636035942235
20
506.60695449394586
10
224.98947649453734
20
506.1350298416149
10
225.68259368726524
20
505.66310446918294
10
226.3757114087996
20
505.1911787367005
10
227.06882807272103
20
504.7192537243191
10
227.76194526544893
20
504.2473283518872
10
228.45506245817683
20
503.7754029794553
10
229.14818017971118
20
503.3034772469729
10
229.84129684363262
20
502.83155223459147
10
230.53441405548998
20
502.3596270039259
10
231.2275312290884
20
501.88770148972765
10
231.92064840268685
20
501.4157759755294
10
232.6137656432384
20
500.9438509575133
10
233.30688282161918
20
500.4719254787567
10
234
20
500
10
233.20658923338212
20
499.7286603351461
10
232.41317861979985
20
499.4573218044229
10
231.6197691403483
20
499.18598312066416
10
230.82635799795955
20
498.9146449499915
10
230.03294677905305
20
498.64330621225344
10
229.2395373761193
20
498.37196809555996
10
228.44612498482314
20
498.10062922732493
10
227.6527155818894
20
497.82929111063146
10
226.8593055736314
20
497.5579527869232
10
226.06589350412685
20
497.2866141639619
10
225.27248377940148
20
497.0152758019947
10
224.4790737711435
20
496.74393747828634
10
223.68566180514637
20
496.4725985526629
10
222.8922519769136
20
496.20126049335784
10
222.0988400109165
20
495.92992156773437
10
221.30543018268372
20
495.6585835084293
97
0
75
1
76
1
47
1
98
0
0
LWPOLYLINE
5
25
330
C
100
AcDbEntity
420
0
8
0
100
AcDbPolyline
90
34
70
0
43
0
38
0
39
0
10
222.91012491635365
20
507.5508059589106
10
223.60324210908155
20
507.0788805864787
10
224.29636035942235
20
506.60695449394586
10
224.98947649453734
20
506.1350298416149
10
225.68259368726524
20
505.66310446918294
10
226.3757114087996
20
505.1911787367005
10
227.06882807272103
20
504.7192537243191
10
227.76194526544893
20
504.2473283518872
10
228.45506245817683
20
503.7754029794553
10
229.14818017971118
20
503.3034772469729
10
229.84129684363262
20
502.83155223459147
10
230.53441405548998
20
502.3596270039259
10
231.2275312290884
20
501.88770148972765
10
231.92064840268685
20
501.4157759755294
10
232.6137656432384
20
500.9438509575133
10
233.30688282161918
20
500.4719254787567
10
234
20
500
10
233.20658923338212
20
499.7286603351461
10
232.41317861979985
20
499.4573218044229
10
231.6197691403483
20
499.18598312066416
10
230.82635799795955
20
498.9146449499915
10
230.03294677905305
20
498.64330621225344
10
229.2395373761193
20
498.37196809555996
10
228.44612498482314
20
498.10062922732493
10
227.6527155818894
20
497.82929111063146
10
226.8593055736314
20
497.5579527869232
10
226.06589350412685
20
497.2866141639619
10
225.27248377940148
20
497.0152758019947
10
224.4790737711435
20
496.74393747828634
10
223.68566180514637
20
496.4725985526629
10
222.8922519769136
20
496.20126049335784
10
222.0988400109165
20
495.92992156773437
10
221.30543018268372
20
495.6585835084293
10
222.91012491635365
20
507.5508059589106
0
ENDSEC
0
SECTION
2
OBJECTS
0
DICTIONARY
5
A
330
0
100
AcDbDictionary
281
1
3
ACAD_GROUP
350
B
3
ACAD_IMAGE_DICT
350
1E
0
DICTIONARY
5
B
330
A
100
AcDbDictionary
281
0
0
IMAGEDEF
5
1B
330
1E
102
{ACAD_REACTORS
330
1E
330
1D
102
}
100
AcDbRasterImageDef
1
images/image1.jpg
10
20
20
20
11
1
21
1
280
1
281
0
0
IMAGEDEF_REACTOR
5
1D
330
0
100
AcDbRasterImageDefReactor
90
2
330
1C
0
DICTIONARY
5
1E
330
A
100
AcDbDictionary
281
0
3
image1
350
1B
0
ENDSEC
0
EOF