  0
SECTION
  2
HEADER
  0
ENDSEC
  0
SECTION
  2
CLASSES
  0
CLASS
  1
ACDBDICTIONARYWDFLT
  2
AcDbDictionaryWithDefault
  3
ObjectDBX Classes
 90
32768
280
0
281
0
  0
CLASS
  1
ACDBPLACEHOLDER
  2
AcDbPlaceHolder
  3
ObjectDBX Classes
 90
0
280
0
281
0
  0
CLASS
  1
LAYOUT
  2
AcDbLayout
  3
ObjectDBX Classes
 90
0
280
0
281
0
  0
CLASS
  1
DICTIONARYVAR
  2
AcDbDictionaryVar
  3
ObjectDBX Classes
 90
0
280
0
281
0
  0
CLASS
  1
TABLESTYLE
  2
AcDbTableStyle
  3
ObjectDBX Classes
 90
4095
280
0
281
0
  0
CLASS
  1
MATERIAL
  2
AcDbMaterial
  3
ObjectDBX Classes
 90
1153
280
0
281
0
  0
CLASS
  1
VISUALSTYLE
  2
AcDbVisualStyle
  3
ObjectDBX Classes
 90
4095
280
0
281
0
  0
CLASS
  1
SCALE
  2
AcDbScale
  3
ObjectDBX Classes
 90
1153
280
0
281
0
  0
CLASS
  1
MLEADERSTYLE
  2
AcDbMLeaderStyle
  3
ObjectDBX Classes
 90
4095
280
0
281
0
  0
CLASS
  1
CELLSTYLEMAP
  2
AcDbCellStyleMap
  3
ObjectDBX Classes
 90
1152
280
0
281
0
  0
CLASS
  1
EXACXREFPANELOBJECT
  2
ExAcXREFPanelObject
  3
ObjectDBX Classes
 90
1025
280
0
281
0
  0
CLASS
  1
NPOCOLLECTION
  2
AcDbImpNonPersistentObjectsCollection
  3
ObjectDBX Classes
 90
1153
280
0
281
0
  0
CLASS
  1
LAYER_INDEX
  2
AcDbLayerIndex
  3
ObjectDBX Classes
 90
0
280
0
281
0
  0
CLASS
  1
SPATIAL_INDEX
  2
AcDbSpatialIndex
  3
ObjectDBX Classes
 90
0
280
0
281
0
  0
CLASS
  1
IDBUFFER
  2
AcDbIdBuffer
  3
ObjectDBX Classes
 90
32768
280
0
281
0
  0
CLASS
  1
ACDBSECTIONVIEWSTYLE
  2
AcDbSectionViewStyle
  3
ObjectDBX Classes
 90
1025
280
0
281
0
  0
CLASS
  1
ACDBDETAILVIEWSTYLE
  2
AcDbDetailViewStyle
  3
ObjectDBX Classes
 90
1025
280
0
281
0
  0
CLASS
  1
MESH
  2
AcDbSubDMesh
  3
ObjectDBX Classes
 90
0
280
0
281
1
  0
CLASS
  1
SORTENTSTABLE
  2
AcDbSortentsTable
  3
ObjectDBX Classes
 90
0
280
0
281
0
  0
CLASS
  1
ACDB_TEXTOBJECTCONTEXTDATA_CLASS
  2
AcDbTextObjectContextData
  3
ObjectDBX Classes
 90
1153
280
0
281
0
  0
CLASS
  1
WIPEOUT
  2
AcDbWipeout
  3
WipeOut
 90
32895
280
0
281
1
  0
CLASS
  1
WIPEOUTVARIABLES
  2
AcDbWipeoutVariables
  3
WipeOut
 90
32768
280
0
281
0
  0
CLASS
  1
DIMASSOC
  2
AcDbDimAssoc
  3
AcDbDimAssoc
 90
0
280
0
281
0
  0
CLASS
  1
ACAD_TABLE
  2
AcDbTable
  3
ObjectDBX Classes
 90
1025
280
0
281
1
  0
CLASS
  1
TABLECONTENT
  2
AcDbTableContent
  3
ObjectDBX Classes
 90
1152
280
0
281
0
  0
CLASS
  1
TABLEGEOMETRY
  2
AcDbTableGeometry
  3
ObjectDBX Classes
 90
1152
280
0
281
0
  0
CLASS
  1
IMAGE
  2
AcDbRasterImage
  3
ISM
 90
32895
280
0
281
1
  0
CLASS
  1
IMAGEDEF
  2
AcDbRasterImageDef
  3
ISM
 90
0
280
0
281
0
  0
CLASS
  1
IMAGEDEF_REACTOR
  2
AcDbRasterImageDefReactor
  3
ISM
 90
1
280
0
281
0
  0
CLASS
  1
DBCOLOR
  2
AcDbColor
  3
ObjectDBX Classes
 90
0
280
0
281
0
  0
CLASS
  1
GEODATA
  2
AcDbGeoData
  3
ObjectDBX Classes
 90
4095
280
0
281
0
  0
CLASS
  1
MULTILEADER
  2
AcDbMLeader
  3
ObjectDBX Classes
 90
1025
280
0
281
0
  0
CLASS
  1
PDFUNDERLAY
  2
AcDbPdfReference
  3
ObjectDBX Classes
 90
4095
280
0
281
1
  0
CLASS
  1
PDFDEFINITION
  2
AcDbPdfDefinition
  3
ObjectDBX Classes
 90
1153
280
0
281
0
  0
CLASS
  1
RASTERVARIABLES
  2
AcDbRasterVariables
  3
ISM
 90
0
280
0
281
0
  0
CLASS
  1
SPATIAL_FILTER
  2
AcDbSpatialFilter
  3
ObjectDBX Classes
 90
0
280
0
281
0
  0
CLASS
  1
ACDB_MLEADEROBJECTCONTEXTDATA_CLASS
  2
AcDbMLeaderObjectContextData
  3
ObjectDBX Classes
 90
1025
280
0
281
0
  0
CLASS
  1
PLOTSETTINGS
  2
AcDbPlotSettings
  3
ObjectDBX Classes
 90
0
280
0
281
0
  0
CLASS
  1
FIELD
  2
AcDbField
  3
ObjectDBX Classes
 90
1152
280
0
281
0
  0
CLASS
  1
FIELDLIST
  2
AcDbFieldList
  3
ObjectDBX Classes
 90
1152
280
0
281
0
  0
CLASS
  1
ACDB_MTEXTATTRIBUTEOBJECTCONTEXTDATA_CLASS
  2
AcDbMTextAttributeObjectContextData
  3
ObjectDBX Classes
 90
1153
280
0
281
0
  0
CLASS
  1
ACDB_BLKREFOBJECTCONTEXTDATA_CLASS
  2
AcDbBlkRefObjectContextData
  3
ObjectDBX Classes
 90
1153
280
0
281
0
  0
ENDSEC
  0
SECTION
  2
TABLES
  0
TABLE
  2
VPORT
  5
A
330
0
100
AcDbSymbolTable
 70
1
  0
VPORT
  5
18
330
A
100
AcDbSymbolTableRecord
100
AcDbViewportTableRecord
  2
*Active
 70
0
 10
0.0
 20
0.0
 11
1.0
 21
1.0
 12
0.0
 22
0.0
 13
0.0
 23
0.0
 14
0.5
 24
0.5
 15
10.0
 25
10.0
 16
0.0
 26
0.0
 36
1.0
 17
0.0
 27
0.0
 37
0.0
 40
10.0
 41
1.0
 75
0
 76
1
  0
ENDTAB
  0
TABLE
  2
LTYPE
  5
6
330
0
100
AcDbSymbolTable
 70
3
  0
LTYPE
  5
B
330
6
100
AcDbSymbolTableRecord
100
AcDbLinetypeTableRecord
  2
ByLayer
 70
0
 72
0
 73
0
 40
0.0
  0
LTYPE
  5
C
330
6
100
AcDbSymbolTableRecord
100
AcDbLinetypeTableRecord
  2
ByBlock
 70
0
 72
0
 73
0
 40
0.0
  0
LTYPE
  5
D
330
6
100
AcDbSymbolTableRecord
100
AcDbLinetypeTableRecord
  2
Continuous
 70
0
 72
0
 73
0
 40
0.0
  0
ENDTAB
  0
TABLE
  2
LAYER
  5
5
330
0
100
AcDbSymbolTable
 70
1
  0
LAYER
  5
E
330
5
100
AcDbSymbolTableRecord
100
AcDbLayerTableRecord
  2
0
 70
0
 62
7
  6
Continuous
290
1
370
-3
390
0
  0
ENDTAB
  0
TABLE
  2
STYLE
  5
7
330
0
100
AcDbSymbolTable
 70
1
  0
STYLE
  5
15
330
7
100
AcDbSymbolTableRecord
100
AcDbTextStyleTableRecord
  2
Standard
 70
0
 40
0.0
 41
1.0
 42
0.0
 50
0.0
 71
0
  0
ENDTAB
  0
TABLE
  2
VIEW
  5
9
330
0
100
AcDbSymbolTable
 70
0
  0
ENDTAB
  0
TABLE
  2
UCS
  5
8
330
0
100
AcDbSymbolTable
 70
0
  0
ENDTAB
  0
TABLE
  2
APPID
  5
2
330
0
100
AcDbSymbolTable
 70
1
  0
APPID
  5
17
330
2
100
AcDbSymbolTableRecord
100
AcDbRegAppTableRecord
  2
ACAD
 70
0
  0
ENDTAB
  0
TABLE
  2
DIMSTYLE
  5
4
330
0
100
AcDbSymbolTable
 70
1
100
AcDbDimStyleTable
  0
DIMSTYLE
105
16
330
4
100
AcDbSymbolTableRecord
100
AcDbDimStyleTableRecord
  2
Standard
 70
0
  3
<>
  4
[]
 40
1.0
 41
0.18
 42
0.625
 43
3.75
 44
1.25
 45
0.0
 46
0.0
 47
0.0
 48
0.0
 49
1.0
 50
0.7853981633974483
 70
0
 90
0
140
0.18
141
0.09
142
0.0
143
25.3999999999999986
144
1.0
145
0.0
146
1.0
147
0.625
148
0.0
 71
0
 72
0
 73
0
 74
0
 75
0
 76
0
 77
1
 78
8
 79
0
170
0
171
3
172
0
173
1
174
0
175
0
176
0
177
0
178
0
179
0
271
2
272
2
273
2
274
3
275
0
276
0
277
2
278
46
279
0
280
0
281
0
282
0
283
0
284
8
285
0
286
0
287
0
288
0
289
3
290
0
340
0
371
-2
372
-2
  0
ENDTAB
  0
TABLE
  2
BLOCK_RECORD
  5
3
330
0
100
AcDbSymbolTable
 70
2
  0
BLOCK_RECORD
  5
F
330
3
100
AcDbSymbolTableRecord
100
AcDbBlockTableRecord
  2
*Model_Space
 70
0
 70
0
280
0
281
1
  0
BLOCK_RECORD
  5
12
330
3
100
AcDbSymbolTableRecord
100
AcDbBlockTableRecord
  2
*Paper_Space
 70
0
 70
0
280
0
281
1
  0
ENDTAB
  0
ENDSEC
  0
SECTION
  2
BLOCKS
  0
BLOCK
  5
10
330
F
100
AcDbEntity
  8
0
  6
ByLayer
 62
256
 48
1.0
 60
0
370
-1
100
AcDbBlockBegin
  2
*Model_Space
 70
0
 10
0.0
 20
0.0
 30
0.0
  3
*Model_Space
  0
ENDBLK
  5
11
330
F
100
AcDbEntity
  8
0
100
AcDbBlockEnd
  0
BLOCK
  5
13
330
12
100
AcDbEntity
  8
0
  6
ByLayer
 62
256
 48
1.0
 60
0
370
-1
100
AcDbBlockBegin
  2
*Paper_Space
 70
0
 10
0.0
 20
0.0
 30
0.0
  3
*Paper_Space
  0
ENDBLK
  5
14
330
12
100
AcDbEntity
  8
0
100
AcDbBlockEnd
  0
ENDSEC
  0
SECTION
  2
ENTITIES
  0
LWPOLYLINE
  5
19
330
F
100
AcDbEntity
  8
0
  6
ByLayer
420
0
 48
1.0
 60
0
370
-1
100
AcDbPolyline
 90
4
 70
1
 43
0.0
 38
0.0
 39
0.0
210
0.0
220
0.0
230
1.0
 10
80.0
 20
580.0
 40
0.0
 41
0.0
 42
0.0
 10
162.0
 20
580.0
 40
0.0
 41
0.0
 42
0.0
 10
162.0
 20
458.0
 40
0.0
 41
0.0
 42
0.0
 10
80.0
 20
458.0
 40
0.0
 41
0.0
 42
0.0
  0
LWPOLYLINE
  5
1A
330
F
100
AcDbEntity
  8
0
  6
ByLayer
420
0
 48
1.0
 60
0
370
-1
100
AcDbPolyline
 90
32
 70
1
 43
0.0
 38
0.0
 39
0.0
210
0.0
220
0.0
230
1.0
 10
178.7269756679160366
 20
574.4999901354640315
 40
0.0
 41
0.0
 42
0.0
 10
178.6211024352911636
 20
573.4806390471039776
 40
0.0
 41
0.0
 42
0.0
 10
178.3075513863718982
 20
572.5004610494111148
 40
0.0
 41
0.0
 42
0.0
 10
177.7983721121267422
 20
571.59712383314627
 40
0.0
 41
0.0
 42
0.0
 10
177.1131320865139571
 20
570.8053421409333623
 40
0.0
 41
0.0
 42
0.0
 10
176.2781646994307607
 20
570.1555436991677652
 40
0.0
 41
0.0
 42
0.0
 10
175.3255572793077022
 20
569.6726998975555034
 40
0.0
 41
0.0
 42
0.0
 10
174.2919179950716568
 20
569.3753661526104679
 40
0.0
 41
0.0
 42
0.0
 10
173.2169690247442588
 20
569.274968833404273
 40
0.0
 41
0.0
 42
0.0
 10
172.1420200544168893
 20
569.3753661526104679
 40
0.0
 41
0.0
 42
0.0
 10
171.1083807701808439
 20
569.6726998975555034
 40
0.0
 41
0.0
 42
0.0
 10
170.1557733500577569
 20
570.1555436991677652
 40
0.0
 41
0.0
 42
0.0
 10
169.320805962974589
 20
570.8053421409333623
 40
0.0
 41
0.0
 42
0.0
 10
168.6355659373617755
 20
571.59712383314627
 40
0.0
 41
0.0
 42
0.0
 10
168.1263866631166479
 20
572.5004610494111148
 40
0.0
 41
0.0
 42
0.0
 10
167.8128356141973541
 20
573.4806390471039776
 40
0.0
 41
0.0
 42
0.0
 10
167.706962381572481
 20
574.4999901354640315
 40
0.0
 41
0.0
 42
0.0
 10
167.8128356141973541
 20
575.5193412238239716
 40
0.0
 41
0.0
 42
0.0
 10
168.1263866631166479
 20
576.4995192215169482
 40
0.0
 41
0.0
 42
0.0
 10
168.6355659373617755
 20
577.4028564377817929
 40
0.0
 41
0.0
 42
0.0
 10
169.320805962974589
 20
578.194638129994587
 40
0.0
 41
0.0
 42
0.0
 10
170.1557733500577569
 20
578.8444365717601841
 40
0.0
 41
0.0
 42
0.0
 10
171.1083807701808439
 20
579.3272803733725596
 40
0.0
 41
0.0
 42
0.0
 10
172.1420200544168893
 20
579.6246141183175951
 40
0.0
 41
0.0
 42
0.0
 10
173.2169690247442588
 20
579.7250114375237899
 40
0.0
 41
0.0
 42
0.0
 10
174.2919179950716568
 20
579.6246141183175951
 40
0.0
 41
0.0
 42
0.0
 10
175.3255572793077022
 20
579.3272803733725596
 40
0.0
 41
0.0
 42
0.0
 10
176.2781646994307607
 20
578.8444365717601841
 40
0.0
 41
0.0
 42
0.0
 10
177.1131320865139571
 20
578.194638129994587
 40
0.0
 41
0.0
 42
0.0
 10
177.7983721121267422
 20
577.4028564377817929
 40
0.0
 41
0.0
 42
0.0
 10
178.3075513863718982
 20
576.4995192215169482
 40
0.0
 41
0.0
 42
0.0
 10
178.6211024352911636
 20
575.5193412238239716
 40
0.0
 41
0.0
 42
0.0
  0
LWPOLYLINE
  5
1B
330
F
100
AcDbEntity
  8
0
  6
ByLayer
420
0
 48
1.0
 60
0
370
-1
100
AcDbPolyline
 90
304
 70
1
 43
0.0
 38
0.0
 39
0.0
210
0.0
220
0.0
230
1.0
 10
158.1428307355942025
 20
574.2291184917030478
 40
0.0
 41
0.0
 42
0.0
 10
158.1428307355942025
 20
570.9408092016831233
 40
0.0
 41
0.0
 42
0.0
 10
158.085439050412532
 20
569.3131168222217866
 40
0.0
 41
0.0
 42
0.0
 10
157.9691273439778172
 20
569.390267210879756
 40
0.0
 41
0.0
 42
0.0
 10
157.8528147489756179
 20
569.4674301565672749
 40
0.0
 41
0.0
 42
0.0
 10
157.7365021539734187
 20
569.5445931022547938
 40
0.0
 41
0.0
 42
0.0
 10
157.6201904475387039
 20
569.6217434909127633
 40
0.0
 41
0.0
 42
0.0
 10
157.5038778525365046
 20
569.6989064366002822
 40
0.0
 41
0.0
 42
0.0
 10
157.3875652575343054
 20
569.7760568252582516
 40
0.0
 41
0.0
 42
0.0
 10
157.2712526625321061
 20
569.8532197709457705
 40
0.0
 41
0.0
 42
0.0
 10
157.1549405118136349
 20
569.9303701596037399
 40
0.0
 41
0.0
 42
0.0
 10
157.0386279168114356
 20
570.0075331052912588
 40
0.0
 41
0.0
 42
0.0
 10
156.9223157660929928
 20
570.0846834939492283
 40
0.0
 41
0.0
 42
0.0
 10
156.8060031710907651
 20
570.1618464396367472
 40
0.0
 41
0.0
 42
0.0
 10
156.6896910203723223
 20
570.2389968282948303
 40
0.0
 41
0.0
 42
0.0
 10
156.5733784253701231
 20
570.3161597739822355
 40
0.0
 41
0.0
 42
0.0
 10
156.4570667189354083
 20
570.3933101626403186
 40
0.0
 41
0.0
 42
0.0
 10
156.340754123933209
 20
570.4704731083277238
 40
0.0
 41
0.0
 42
0.0
 10
156.2244415289310098
 20
570.547636054015129
 40
0.0
 41
0.0
 42
0.0
 10
156.1081293782125385
 20
570.6247864426732122
 40
0.0
 41
0.0
 42
0.0
 10
155.9918172274940957
 20
570.7019493883606174
 40
0.0
 41
0.0
 42
0.0
 10
155.8755046324918965
 20
570.7790997770187005
 40
0.0
 41
0.0
 42
0.0
 10
155.7591920374896972
 20
570.8562627227061057
 40
0.0
 41
0.0
 42
0.0
 10
155.642879886771226
 20
570.9334131113641888
 40
0.0
 41
0.0
 42
0.0
 10
155.5265677360527548
 20
571.010576057051594
 40
0.0
 41
0.0
 42
0.0
 10
155.4102551410505555
 20
571.0877264457096771
 40
0.0
 41
0.0
 42
0.0
 10
155.2939429903321127
 20
571.1648893913970824
 40
0.0
 41
0.0
 42
0.0
 10
155.1776308396136415
 20
571.2420397800551655
 40
0.0
 41
0.0
 42
0.0
 10
155.0613186888951986
 20
571.3192027257426844
 40
0.0
 41
0.0
 42
0.0
 10
154.9450060938929994
 20
571.3963531144006538
 40
0.0
 41
0.0
 42
0.0
 10
154.8286934988908001
 20
571.4735160600881727
 40
0.0
 41
0.0
 42
0.0
 10
154.7123813481723289
 20
571.5506664487461421
 40
0.0
 41
0.0
 42
0.0
 10
154.5960691974538577
 20
571.627829394433661
 40
0.0
 41
0.0
 42
0.0
 10
154.4797566024516584
 20
571.7049923401210663
 40
0.0
 41
0.0
 42
0.0
 10
154.3634440074494591
 20
571.7821427287791494
 40
0.0
 41
0.0
 42
0.0
 10
154.2471318567310163
 20
571.8593056744665546
 40
0.0
 41
0.0
 42
0.0
 10
154.1308192617288171
 20
571.9364560631246377
 40
0.0
 41
0.0
 42
0.0
 10
154.0145075552941023
 20
572.0136190088121566
 40
0.0
 41
0.0
 42
0.0
 10
153.898194960291903
 20
572.090769397470126
 40
0.0
 41
0.0
 42
0.0
 10
153.7818828095734318
 20
572.1679323431576449
 40
0.0
 41
0.0
 42
0.0
 10
153.6655702145712326
 20
572.2450827318156144
 40
0.0
 41
0.0
 42
0.0
 10
153.5492580638527897
 20
572.3222456775031333
 40
0.0
 41
0.0
 42
0.0
 10
153.4329454688505621
 20
572.3993960661611027
 40
0.0
 41
0.0
 42
0.0
 10
153.3166333181321193
 20
572.4765590118486216
 40
0.0
 41
0.0
 42
0.0
 10
153.200320945271784
 20
572.553709400506591
 40
0.0
 41
0.0
 42
0.0
 10
153.0840087945533412
 20
572.6308723461941099
 40
0.0
 41
0.0
 42
0.0
 10
152.9676961995511419
 20
572.708022734852193
 40
0.0
 41
0.0
 42
0.0
 10
152.8513840488326707
 20
572.7851856805395983
 40
0.0
 41
0.0
 42
0.0
 10
152.7350714538304715
 20
572.8623486262270035
 40
0.0
 41
0.0
 42
0.0
 10
152.6187593031120002
 20
572.9394990148850866
 40
0.0
 41
0.0
 42
0.0
 10
152.5024469302516934
 20
573.0166619605724918
 40
0.0
 41
0.0
 42
0.0
 10
152.3861347795332222
 20
573.0938123492305749
 40
0.0
 41
0.0
 42
0.0
 10
152.2698221845310229
 20
573.1709752949179801
 40
0.0
 41
0.0
 42
0.0
 10
152.1535100338125517
 20
573.2481256835760632
 40
0.0
 41
0.0
 42
0.0
 10
152.0371976609522449
 20
573.3252886292634685
 40
0.0
 41
0.0
 42
0.0
 10
151.9208855102337736
 20
573.4024390179215516
 40
0.0
 41
0.0
 42
0.0
 10
151.8045729152315744
 20
573.4796019636089568
 40
0.0
 41
0.0
 42
0.0
 10
151.6882603202293751
 20
573.5567523522670399
 40
0.0
 41
0.0
 42
0.0
 10
151.5719481695109039
 20
573.6339152979544451
 40
0.0
 41
0.0
 42
0.0
 10
151.4556356855796366
 20
573.7110656866125282
 40
0.0
 41
0.0
 42
0.0
 10
151.3393235348611938
 20
573.7882286323000471
 40
0.0
 41
0.0
 42
0.0
 10
151.2230110509299266
 20
573.8653915779874524
 40
0.0
 41
0.0
 42
0.0
 10
151.1066989002114553
 20
573.9425419666455355
 40
0.0
 41
0.0
 42
0.0
 10
150.9903864162802165
 20
574.0197049123329407
 40
0.0
 41
0.0
 42
0.0
 10
150.8740742655617453
 20
574.0968553009910238
 40
0.0
 41
0.0
 42
0.0
 10
150.757762114843274
 20
574.174018246678429
 40
0.0
 41
0.0
 42
0.0
 10
150.6414496309120068
 20
574.2511686353365121
 40
0.0
 41
0.0
 42
0.0
 10
150.5251370359098075
 20
574.3283315810239174
 40
0.0
 41
0.0
 42
0.0
 10
150.4088244964430885
 20
574.4054819696820005
 40
0.0
 41
0.0
 42
0.0
 10
150.2925128455438255
 20
574.4826449153695194
 40
0.0
 41
0.0
 42
0.0
 10
150.3593732168989732
 20
574.5598204180862467
 40
0.0
 41
0.0
 42
0.0
 10
150.4756858119011724
 20
574.6369959208032014
 40
0.0
 41
0.0
 42
0.0
 10
150.5919984069033717
 20
574.7141839805494783
 40
0.0
 41
0.0
 42
0.0
 10
150.70830966905433
 20
574.7913594832662056
 40
0.0
 41
0.0
 42
0.0
 10
150.8246222640565293
 20
574.8685475430124825
 40
0.0
 41
0.0
 42
0.0
 10
150.940934859058757
 20
574.9457230457294372
 40
0.0
 41
0.0
 42
0.0
 10
151.0572474540609562
 20
575.0229111054757141
 40
0.0
 41
0.0
 42
0.0
 10
151.173559160495671
 20
575.1000866081924414
 40
0.0
 41
0.0
 42
0.0
 10
151.2898717554978703
 20
575.1772746679387183
 40
0.0
 41
0.0
 42
0.0
 10
151.4061839062163131
 20
575.254450170655673
 40
0.0
 41
0.0
 42
0.0
 10
151.5224965012185123
 20
575.3316382304018362
 40
0.0
 41
0.0
 42
0.0
 10
151.6388082076532271
 20
575.4088137331186772
 40
0.0
 41
0.0
 42
0.0
 10
151.7551208026554264
 20
575.486001792864954
 40
0.0
 41
0.0
 42
0.0
 10
151.8714333976576256
 20
575.5631772955819088
 40
0.0
 41
0.0
 42
0.0
 10
151.9877459926598249
 20
575.6403653553280719
 40
0.0
 41
0.0
 42
0.0
 10
152.1040585876620526
 20
575.717540858044913
 40
0.0
 41
0.0
 42
0.0
 10
152.2203698498130109
 20
575.7947289177911898
 40
0.0
 41
0.0
 42
0.0
 10
152.3366824448152101
 20
575.8719044205080309
 40
0.0
 41
0.0
 42
0.0
 10
152.4529950398174094
 20
575.9490924802543077
 40
0.0
 41
0.0
 42
0.0
 10
152.5693076348196087
 20
576.0262679829711487
 40
0.0
 41
0.0
 42
0.0
 10
152.6856193412543234
 20
576.1034560427174256
 40
0.0
 41
0.0
 42
0.0
 10
152.8019319362565227
 20
576.1806315454342666
 40
0.0
 41
0.0
 42
0.0
 10
152.918244531258722
 20
576.2578070481511077
 40
0.0
 41
0.0
 42
0.0
 10
153.0345566819771932
 20
576.3349951078973845
 40
0.0
 41
0.0
 42
0.0
 10
153.150868388411908
 20
576.4121706106142256
 40
0.0
 41
0.0
 42
0.0
 10
153.2671809834141072
 20
576.4893586703605024
 40
0.0
 41
0.0
 42
0.0
 10
153.3834935784163065
 20
576.5665341730773434
 40
0.0
 41
0.0
 42
0.0
 10
153.4998061734185058
 20
576.6437222328236203
 40
0.0
 41
0.0
 42
0.0
 10
153.6161178798532205
 20
576.7208977355404613
 40
0.0
 41
0.0
 42
0.0
 10
153.7324304748554198
 20
576.7980857952867382
 40
0.0
 41
0.0
 42
0.0
 10
153.848742625573891
 20
576.8752612980035792
 40
0.0
 41
0.0
 42
0.0
 10
153.9650552205760903
 20
576.9524493577498561
 40
0.0
 41
0.0
 42
0.0
 10
154.0813669270108051
 20
577.0296248604666971
 40
0.0
 41
0.0
 42
0.0
 10
154.1976795220130043
 20
577.1068129202129739
 40
0.0
 41
0.0
 42
0.0
 10
154.3139921170152036
 20
577.183988422929815
 40
0.0
 41
0.0
 42
0.0
 10
154.4303042677336748
 20
577.2611764826760918
 40
0.0
 41
0.0
 42
0.0
 10
154.5466159741683896
 20
577.3383519853929329
 40
0.0
 41
0.0
 42
0.0
 10
154.6629285691705888
 20
577.4155400451392097
 40
0.0
 41
0.0
 42
0.0
 10
154.7792411641727881
 20
577.4927155478560508
 40
0.0
 41
0.0
 42
0.0
 10
154.8955537591749874
 20
577.5699036076023276
 40
0.0
 41
0.0
 42
0.0
 10
155.0118654656097021
 20
577.6470791103191686
 40
0.0
 41
0.0
 42
0.0
 10
155.1281780606119014
 20
577.7242671700654455
 40
0.0
 41
0.0
 42
0.0
 10
155.2444906556141007
 20
577.8014426727822865
 40
0.0
 41
0.0
 42
0.0
 10
155.3608032506162999
 20
577.8786307325285634
 40
0.0
 41
0.0
 42
0.0
 10
155.4771158456184992
 20
577.9558062352454044
 40
0.0
 41
0.0
 42
0.0
 10
155.593427552053214
 20
578.0329942949916813
 40
0.0
 41
0.0
 42
0.0
 10
155.7097397027716852
 20
578.1101697977085223
 40
0.0
 41
0.0
 42
0.0
 10
155.8260522977738844
 20
578.1873578574547992
 40
0.0
 41
0.0
 42
0.0
 10
155.9423648927760837
 20
578.2645333601716402
 40
0.0
 41
0.0
 42
0.0
 10
156.058676154927042
 20
578.341721419917917
 40
0.0
 41
0.0
 42
0.0
 10
156.1749887499292413
 20
578.4188969226347581
 40
0.0
 41
0.0
 42
0.0
 10
156.2913013449314406
 20
578.4960849823810349
 40
0.0
 41
0.0
 42
0.0
 10
156.4076139399336398
 20
578.573260485097876
 40
0.0
 41
0.0
 42
0.0
 10
156.523925646368383
 20
578.6504485448440391
 40
0.0
 41
0.0
 42
0.0
 10
156.6402382413705823
 20
578.7276240475609939
 40
0.0
 41
0.0
 42
0.0
 10
156.7565508363727815
 20
578.8048121073072707
 40
0.0
 41
0.0
 42
0.0
 10
156.8728634313749808
 20
578.8819876100241117
 40
0.0
 41
0.0
 42
0.0
 10
156.9891751378096956
 20
578.9591631127409528
 40
0.0
 41
0.0
 42
0.0
 10
157.1054877328118948
 20
579.0363511724872296
 40
0.0
 41
0.0
 42
0.0
 10
157.2217998835303376
 20
579.1135266752040707
 40
0.0
 41
0.0
 42
0.0
 10
157.3381115899650524
 20
579.1907147349502338
 40
0.0
 41
0.0
 42
0.0
 10
157.4544246292510081
 20
579.2678902376671886
 40
0.0
 41
0.0
 42
0.0
 10
157.5707363356857229
 20
579.3450782974134654
 40
0.0
 41
0.0
 42
0.0
 10
157.6870480421204377
 20
579.4222538001303064
 40
0.0
 41
0.0
 42
0.0
 10
157.8033615256901214
 20
579.4994418598764696
 40
0.0
 41
0.0
 42
0.0
 10
157.9196732321248362
 20
579.5766173625934243
 40
0.0
 41
0.0
 42
0.0
 10
158.0359867156945199
 20
579.6538054223397012
 40
0.0
 41
0.0
 42
0.0
 10
158.1428307355942025
 20
579.4570493286087185
 40
0.0
 41
0.0
 42
0.0
 10
158.1428307355942025
 20
576.168765152647552
 40
0.0
 41
0.0
 42
0.0
 10
158.2097087672280793
 20
574.7706152706908824
 40
0.0
 41
0.0
 42
0.0
 10
158.326052462092207
 20
574.7706152706908824
 40
0.0
 41
0.0
 42
0.0
 10
158.4423979340912751
 20
574.7706152706908824
 40
0.0
 41
0.0
 42
0.0
 10
158.5587416289554028
 20
574.7706152706908824
 40
0.0
 41
0.0
 42
0.0
 10
158.675085323819502
 20
574.7706152706908824
 40
0.0
 41
0.0
 42
0.0
 10
158.7914307958185987
 20
574.7706152706908824
 40
0.0
 41
0.0
 42
0.0
 10
158.9077744906827263
 20
574.7706152706908824
 40
0.0
 41
0.0
 42
0.0
 10
159.0241181855468255
 20
574.7706152706908824
 40
0.0
 41
0.0
 42
0.0
 10
159.1404636575459222
 20
574.7706152706908824
 40
0.0
 41
0.0
 42
0.0
 10
159.2568073524100214
 20
574.7706152706908824
 40
0.0
 41
0.0
 42
0.0
 10
159.373152824409118
 20
574.7706152706908824
 40
0.0
 41
0.0
 42
0.0
 10
159.4894965192732457
 20
574.7706152706908824
 40
0.0
 41
0.0
 42
0.0
 10
159.6058402141373449
 20
574.7706152706908824
 40
0.0
 41
0.0
 42
0.0
 10
159.7221856861364415
 20
574.7706152706908824
 40
0.0
 41
0.0
 42
0.0
 10
159.8385293810005408
 20
574.7706152706908824
 40
0.0
 41
0.0
 42
0.0
 10
159.9548730758646684
 20
574.7706152706908824
 40
0.0
 41
0.0
 42
0.0
 10
160.071218547863765
 20
574.7706152706908824
 40
0.0
 41
0.0
 42
0.0
 10
160.1875622427278643
 20
574.7706152706908824
 40
0.0
 41
0.0
 42
0.0
 10
160.3039077147269609
 20
574.7706152706908824
 40
0.0
 41
0.0
 42
0.0
 10
160.4202514095910601
 20
574.7706152706908824
 40
0.0
 41
0.0
 42
0.0
 10
160.5365951044551878
 20
574.7706152706908824
 40
0.0
 41
0.0
 42
0.0
 10
160.6529405764542844
 20
574.7706152706908824
 40
0.0
 41
0.0
 42
0.0
 10
160.7692842713183836
 20
574.7706152706908824
 40
0.0
 41
0.0
 42
0.0
 10
160.8856279661825113
 20
574.7706152706908824
 40
0.0
 41
0.0
 42
0.0
 10
161.0019734381816079
 20
574.7706152706908824
 40
0.0
 41
0.0
 42
0.0
 10
161.1183171330457071
 20
574.7706152706908824
 40
0.0
 41
0.0
 42
0.0
 10
161.2346626050448037
 20
574.7706152706908824
 40
0.0
 41
0.0
 42
0.0
 10
161.351006299908903
 20
574.7706152706908824
 40
0.0
 41
0.0
 42
0.0
 10
161.4673499947730306
 20
574.7706152706908824
 40
0.0
 41
0.0
 42
0.0
 10
161.5836954667721272
 20
574.7706152706908824
 40
0.0
 41
0.0
 42
0.0
 10
161.7000391616362265
 20
574.7706152706908824
 40
0.0
 41
0.0
 42
0.0
 10
161.8163846336353231
 20
574.7706152706908824
 40
0.0
 41
0.0
 42
0.0
 10
161.9327283284994223
 20
574.7706152706908824
 40
0.0
 41
0.0
 42
0.0
 10
162.04907202336355
 20
574.7706152706908824
 40
0.0
 41
0.0
 42
0.0
 10
162.1654174953626466
 20
574.7706152706908824
 40
0.0
 41
0.0
 42
0.0
 10
162.2817611902267458
 20
574.7706152706908824
 40
0.0
 41
0.0
 42
0.0
 10
162.3981048850908735
 20
574.7706152706908824
 40
0.0
 41
0.0
 42
0.0
 10
162.5144503570899417
 20
574.7706152706908824
 40
0.0
 41
0.0
 42
0.0
 10
162.6307940519540693
 20
574.7706152706908824
 40
0.0
 41
0.0
 42
0.0
 10
162.747139523953166
 20
574.7706152706908824
 40
0.0
 41
0.0
 42
0.0
 10
162.8634832188172652
 20
574.7706152706908824
 40
0.0
 41
0.0
 42
0.0
 10
162.9798269136813929
 20
574.7706152706908824
 40
0.0
 41
0.0
 42
0.0
 10
163.096172385680461
 20
574.7706152706908824
 40
0.0
 41
0.0
 42
0.0
 10
163.2125160805445887
 20
574.7706152706908824
 40
0.0
 41
0.0
 42
0.0
 10
163.3288597754087164
 20
574.7706152706908824
 40
0.0
 41
0.0
 42
0.0
 10
163.4452052474077846
 20
574.7706152706908824
 40
0.0
 41
0.0
 42
0.0
 10
163.5615489422719122
 20
574.7706152706908824
 40
0.0
 41
0.0
 42
0.0
 10
163.6778944142710088
 20
574.7706152706908824
 40
0.0
 41
0.0
 42
0.0
 10
163.7942381091351081
 20
574.7706152706908824
 40
0.0
 41
0.0
 42
0.0
 10
163.9105818039992357
 20
574.7706152706908824
 40
0.0
 41
0.0
 42
0.0
 10
164.0269272759983039
 20
574.7706152706908824
 40
0.0
 41
0.0
 42
0.0
 10
164.1432709708624316
 20
574.7706152706908824
 40
0.0
 41
0.0
 42
0.0
 10
164.2596146657265592
 20
574.7706152706908824
 40
0.0
 41
0.0
 42
0.0
 10
164.3759601377256274
 20
574.7706152706908824
 40
0.0
 41
0.0
 42
0.0
 10
164.4923038325897551
 20
574.7706152706908824
 40
0.0
 41
0.0
 42
0.0
 10
164.6086493045888233
 20
574.7706152706908824
 40
0.0
 41
0.0
 42
0.0
 10
164.7249929994529509
 20
574.7706152706908824
 40
0.0
 41
0.0
 42
0.0
 10
164.8413366943170786
 20
574.7706152706908824
 40
0.0
 41
0.0
 42
0.0
 10
164.9576821663161468
 20
574.7706152706908824
 40
0.0
 41
0.0
 42
0.0
 10
165.0740258611802744
 20
574.7706152706908824
 40
0.0
 41
0.0
 42
0.0
 10
165.1903713331793426
 20
574.7706152706908824
 40
0.0
 41
0.0
 42
0.0
 10
165.3067150280434703
 20
574.7706152706908824
 40
0.0
 41
0.0
 42
0.0
 10
165.4230587229075979
 20
574.7706152706908824
 40
0.0
 41
0.0
 42
0.0
 10
165.5394041949066661
 20
574.7706152706908824
 40
0.0
 41
0.0
 42
0.0
 10
165.6557478897707938
 20
574.7706152706908824
 40
0.0
 41
0.0
 42
0.0
 10
165.7720915846349214
 20
574.7706152706908824
 40
0.0
 41
0.0
 42
0.0
 10
165.8884370566339896
 20
574.7706152706908824
 40
0.0
 41
0.0
 42
0.0
 10
166.0047807514981173
 20
574.7706152706908824
 40
0.0
 41
0.0
 42
0.0
 10
166.1211262234971855
 20
574.7706152706908824
 40
0.0
 41
0.0
 42
0.0
 10
166.2374699183613131
 20
574.7706152706908824
 40
0.0
 41
0.0
 42
0.0
 10
166.3538136132254408
 20
574.7706152706908824
 40
0.0
 41
0.0
 42
0.0
 10
166.470159085224509
 20
574.7706152706908824
 40
0.0
 41
0.0
 42
0.0
 10
166.5865027800886367
 20
574.7706152706908824
 40
0.0
 41
0.0
 42
0.0
 10
166.7028464749527643
 20
574.7706152706908824
 40
0.0
 41
0.0
 42
0.0
 10
166.8191919469518325
 20
574.7706152706908824
 40
0.0
 41
0.0
 42
0.0
 10
166.9355356418159602
 20
574.7706152706908824
 40
0.0
 41
0.0
 42
0.0
 10
167.0518811138150284
 20
574.7706152706908824
 40
0.0
 41
0.0
 42
0.0
 10
167.168224808679156
 20
574.7706152706908824
 40
0.0
 41
0.0
 42
0.0
 10
167.2845685035432552
 20
574.7706152706908824
 40
0.0
 41
0.0
 42
0.0
 10
167.4009139755423519
 20
574.7706152706908824
 40
0.0
 41
0.0
 42
0.0
 10
167.5172576704064795
 20
574.7706152706908824
 40
0.0
 41
0.0
 42
0.0
 10
167.6336013652705788
 20
574.7706152706908824
 40
0.0
 41
0.0
 42
0.0
 10
167.6830696942033114
 20
574.2290933776442898
 40
0.0
 41
0.0
 42
0.0
 10
167.5667242222042148
 20
574.2290933776442898
 40
0.0
 41
0.0
 42
0.0
 10
167.4503787502051182
 20
574.2290933776442898
 40
0.0
 41
0.0
 42
0.0
 10
167.3340368324759879
 20
574.2290933776442898
 40
0.0
 41
0.0
 42
0.0
 10
167.2176913604768913
 20
574.2290933776442898
 40
0.0
 41
0.0
 42
0.0
 10
167.1013458884777947
 20
574.2290933776442898
 40
0.0
 41
0.0
 42
0.0
 10
166.9850039707486644
 20
574.2290933776442898
 40
0.0
 41
0.0
 42
0.0
 10
166.8686584987495678
 20
574.2290933776442898
 40
0.0
 41
0.0
 42
0.0
 10
166.7523130267504996
 20
574.2290933776442898
 40
0.0
 41
0.0
 42
0.0
 10
166.6359711090213409
 20
574.2290933776442898
 40
0.0
 41
0.0
 42
0.0
 10
166.5196256370222443
 20
574.2290933776442898
 40
0.0
 41
0.0
 42
0.0
 10
166.4032801650231761
 20
574.2290933776442898
 40
0.0
 41
0.0
 42
0.0
 10
166.2869382472940174
 20
574.2290933776442898
 40
0.0
 41
0.0
 42
0.0
 10
166.1705927752949492
 20
574.2290933776442898
 40
0.0
 41
0.0
 42
0.0
 10
166.0542473032958526
 20
574.2290933776442898
 40
0.0
 41
0.0
 42
0.0
 10
165.937901831296756
 20
574.2290933776442898
 40
0.0
 41
0.0
 42
0.0
 10
165.8215599135676257
 20
574.2290933776442898
 40
0.0
 41
0.0
 42
0.0
 10
165.7052144415685291
 20
574.2291059346737256
 40
0.0
 41
0.0
 42
0.0
 10
165.5888689695694609
 20
574.2291059346737256
 40
0.0
 41
0.0
 42
0.0
 10
165.4725270518403022
 20
574.2291059346737256
 40
0.0
 41
0.0
 42
0.0
 10
165.3561815798412056
 20
574.2291059346737256
 40
0.0
 41
0.0
 42
0.0
 10
165.2398361078421374
 20
574.2291059346737256
 40
0.0
 41
0.0
 42
0.0
 10
165.1234941901129787
 20
574.2291059346737256
 40
0.0
 41
0.0
 42
0.0
 10
165.0071487181138821
 20
574.2291059346737256
 40
0.0
 41
0.0
 42
0.0
 10
164.8908032461148139
 20
574.2291059346737256
 40
0.0
 41
0.0
 42
0.0
 10
164.7744604398181707
 20
574.2291059346737256
 40
0.0
 41
0.0
 42
0.0
 10
164.6581149678191025
 20
574.2291059346737256
 40
0.0
 41
0.0
 42
0.0
 10
164.5417712729549748
 20
574.2291059346737256
 40
0.0
 41
0.0
 42
0.0
 10
164.4254258009558782
 20
574.2291059346737256
 40
0.0
 41
0.0
 42
0.0
 10
164.309082106091779
 20
574.2291059346737256
 40
0.0
 41
0.0
 42
0.0
 10
164.1927384112276513
 20
574.2291059346737256
 40
0.0
 41
0.0
 42
0.0
 10
164.0763929392285831
 20
574.2291059346737256
 40
0.0
 41
0.0
 42
0.0
 10
163.9600492443644555
 20
574.2291059346737256
 40
0.0
 41
0.0
 42
0.0
 10
163.8437055495003278
 20
574.2291059346737256
 40
0.0
 41
0.0
 42
0.0
 10
163.7273600775012596
 20
574.2291059346737256
 40
0.0
 41
0.0
 42
0.0
 10
163.611016382637132
 20
574.2291059346737256
 40
0.0
 41
0.0
 42
0.0
 10
163.4946726877730043
 20
574.2291059346737256
 40
0.0
 41
0.0
 42
0.0
 10
163.3783272157739361
 20
574.2291059346737256
 40
0.0
 41
0.0
 42
0.0
 10
163.2619817437748395
 20
574.2291059346737256
 40
0.0
 41
0.0
 42
0.0
 10
163.1456398260457092
 20
574.2291059346737256
 40
0.0
 41
0.0
 42
0.0
 10
163.0292943540466126
 20
574.2291059346737256
 40
0.0
 41
0.0
 42
0.0
 10
162.9129488820475444
 20
574.2291059346737256
 40
0.0
 41
0.0
 42
0.0
 10
162.7966069643183857
 20
574.2291059346737256
 40
0.0
 41
0.0
 42
0.0
 10
162.6802614923192891
 20
574.2291059346737256
 40
0.0
 41
0.0
 42
0.0
 10
162.5639160203202209
 20
574.2291059346737256
 40
0.0
 41
0.0
 42
0.0
 10
162.4475741025910622
 20
574.2291059346737256
 40
0.0
 41
0.0
 42
0.0
 10
162.3312286305919656
 20
574.2291059346737256
 40
0.0
 41
0.0
 42
0.0
 10
162.2148831585928974
 20
574.2291059346737256
 40
0.0
 41
0.0
 42
0.0
 10
162.0985376865938008
 20
574.2291059346737256
 40
0.0
 41
0.0
 42
0.0
 10
161.9821957688646705
 20
574.2291059346737256
 40
0.0
 41
0.0
 42
0.0
 10
161.8658502968655739
 20
574.2291059346737256
 40
0.0
 41
0.0
 42
0.0
 10
161.7495048248664773
 20
574.2291059346737256
 40
0.0
 41
0.0
 42
0.0
 10
161.633162907137347
 20
574.2291059346737256
 40
0.0
 41
0.0
 42
0.0
 10
161.5168174351382504
 20
574.2291059346737256
 40
0.0
 41
0.0
 42
0.0
 10
161.4004719631391822
 20
574.2291059346737256
 40
0.0
 41
0.0
 42
0.0
 10
161.2841300454100235
 20
574.2291059346737256
 40
0.0
 41
0.0
 42
0.0
 10
161.1677845734109269
 20
574.2291059346737256
 40
0.0
 41
0.0
 42
0.0
 10
161.0514391014118587
 20
574.2291059346737256
 40
0.0
 41
0.0
 42
0.0
 10
160.9350971836827
 20
574.2291059346737256
 40
0.0
 41
0.0
 42
0.0
 10
160.8187517116836034
 20
574.2291059346737256
 40
0.0
 41
0.0
 42
0.0
 10
160.7024062396845352
 20
574.2291059346737256
 40
0.0
 41
0.0
 42
0.0
 10
160.5860607676854386
 20
574.2291184917030478
 40
0.0
 41
0.0
 42
0.0
 10
160.4697188499563083
 20
574.2291184917030478
 40
0.0
 41
0.0
 42
0.0
 10
160.3533733779572117
 20
574.2291184917030478
 40
0.0
 41
0.0
 42
0.0
 10
160.2370279059581435
 20
574.2291184917030478
 40
0.0
 41
0.0
 42
0.0
 10
160.1206859882289848
 20
574.2291184917030478
 40
0.0
 41
0.0
 42
0.0
 10
160.0043405162298882
 20
574.2291184917030478
 40
0.0
 41
0.0
 42
0.0
 10
159.88799504423082
 20
574.2291184917030478
 40
0.0
 41
0.0
 42
0.0
 10
159.7716531265016613
 20
574.2291184917030478
 40
0.0
 41
0.0
 42
0.0
 10
159.6553076545025647
 20
574.2291184917030478
 40
0.0
 41
0.0
 42
0.0
 10
159.5389621825034965
 20
574.2291184917030478
 40
0.0
 41
0.0
 42
0.0
 10
159.4226202647743378
 20
574.2291184917030478
 40
0.0
 41
0.0
 42
0.0
 10
159.3062747927752696
 20
574.2291184917030478
 40
0.0
 41
0.0
 42
0.0
 10
159.189929320776173
 20
574.2291184917030478
 40
0.0
 41
0.0
 42
0.0
 10
159.0735874030470143
 20
574.2291184917030478
 40
0.0
 41
0.0
 42
0.0
 10
158.9572419310479461
 20
574.2291184917030478
 40
0.0
 41
0.0
 42
0.0
 10
158.8408964590488495
 20
574.2291184917030478
 40
0.0
 41
0.0
 42
0.0
 10
158.7245509870497813
 20
574.2291184917030478
 40
0.0
 41
0.0
 42
0.0
 10
158.6082090693206226
 20
574.2291184917030478
 40
0.0
 41
0.0
 42
0.0
 10
158.491863597321526
 20
574.2291184917030478
 40
0.0
 41
0.0
 42
0.0
 10
158.3755181253224578
 20
574.2291184917030478
 40
0.0
 41
0.0
 42
0.0
 10
158.2591762075932991
 20
574.2291184917030478
 40
0.0
 41
0.0
 42
0.0
 10
158.1428307355942025
 20
574.2291184917030478
 40
0.0
 41
0.0
 42
0.0
  0
LWPOLYLINE
  5
1C
330
F
100
AcDbEntity
  8
0
  6
ByLayer
420
0
 48
1.0
 60
0
370
-1
100
AcDbPolyline
 90
4
 70
1
 43
0.0
 38
0.0
 39
0.0
210
0.0
220
0.0
230
1.0
 10
150.1394431858950611
 20
579.7249999045208142
 40
0.0
 41
0.0
 42
0.0
 10
150.6613923106517916
 20
579.7249999045208142
 40
0.0
 41
0.0
 42
0.0
 10
150.6613923106517916
 20
569.2749977094791802
 40
0.0
 41
0.0
 42
0.0
 10
150.1394431858950611
 20
569.2749977094791802
 40
0.0
 41
0.0
 42
0.0
  0
LWPOLYLINE
  5
1D
330
F
100
AcDbEntity
  8
0
  6
ByLayer
420
0
 48
1.0
 60
0
370
-1
100
AcDbPolyline
 90
65
 70
0
 43
0.0
 38
0.0
 39
0.0
210
0.0
220
0.0
230
1.0
 10
145.0
 20
505.0
 40
0.0
 41
0.0
 42
0.0
 10
146.391632080078125
 20
505.0992584228515625
 40
0.0
 41
0.0
 42
0.0
 10
147.783905029296875
 20
505.18914794921875
 40
0.0
 41
0.0
 42
0.0
 10
149.1767425537109375
 20
505.2697906494140625
 40
0.0
 41
0.0
 42
0.0
 10
150.570068359375
 20
505.341522216796875
 40
0.0
 41
0.0
 42
0.0
 10
151.9637908935546875
 20
505.40478515625
 40
0.0
 41
0.0
 42
0.0
 10
153.3578948974609375
 20
505.4596405029296875
 40
0.0
 41
0.0
 42
0.0
 10
154.7522735595703125
 20
505.506591796875
 40
0.0
 41
0.0
 42
0.0
 10
156.146881103515625
 20
505.5457763671875
 40
0.0
 41
0.0
 42
0.0
 10
157.5417022705078125
 20
505.577362060546875
 40
0.0
 41
0.0
 42
0.0
 10
158.9366607666015625
 20
505.601898193359375
 40
0.0
 41
0.0
 42
0.0
 10
160.33172607421875
 20
505.6191864013671875
 40
0.0
 41
0.0
 42
0.0
 10
161.7268524169921875
 20
505.629730224609375
 40
0.0
 41
0.0
 42
0.0
 10
163.12200927734375
 20
505.6337738037109375
 40
0.0
 41
0.0
 42
0.0
 10
164.517181396484375
 20
505.631256103515625
 40
0.0
 41
0.0
 42
0.0
 10
165.912322998046875
 20
505.6225128173828125
 40
0.0
 41
0.0
 42
0.0
 10
167.3074188232421875
 20
505.607757568359375
 40
0.0
 41
0.0
 42
0.0
 10
168.7024383544921875
 20
505.5872039794921875
 40
0.0
 41
0.0
 42
0.0
 10
170.09735107421875
 20
505.5603485107421875
 40
0.0
 41
0.0
 42
0.0
 10
171.492156982421875
 20
505.5284576416015625
 40
0.0
 41
0.0
 42
0.0
 10
172.8868255615234375
 20
505.491180419921875
 40
0.0
 41
0.0
 42
0.0
 10
174.281341552734375
 20
505.4486541748046875
 40
0.0
 41
0.0
 42
0.0
 10
175.6757049560546875
 20
505.4010009765625
 40
0.0
 41
0.0
 42
0.0
 10
177.0698699951171875
 20
505.34832763671875
 40
0.0
 41
0.0
 42
0.0
 10
178.4638519287109375
 20
505.290771484375
 40
0.0
 41
0.0
 42
0.0
 10
179.857635498046875
 20
505.2284698486328125
 40
0.0
 41
0.0
 42
0.0
 10
181.251190185546875
 20
505.1615142822265625
 40
0.0
 41
0.0
 42
0.0
 10
182.64453125
 20
505.0900115966796875
 40
0.0
 41
0.0
 42
0.0
 10
184.0376434326171875
 20
505.0140838623046875
 40
0.0
 41
0.0
 42
0.0
 10
185.4304962158203125
 20
504.9337921142578125
 40
0.0
 41
0.0
 42
0.0
 10
186.8231048583984375
 20
504.84930419921875
 40
0.0
 41
0.0
 42
0.0
 10
188.2154541015625
 20
504.7606658935546875
 40
0.0
 41
0.0
 42
0.0
 10
189.6075439453125
 20
504.66796875
 40
0.0
 41
0.0
 42
0.0
 10
190.9993743896484375
 20
504.5713653564453125
 40
0.0
 41
0.0
 42
0.0
 10
192.3909149169921875
 20
504.4709014892578125
 40
0.0
 41
0.0
 42
0.0
 10
193.782196044921875
 20
504.36663818359375
 40
0.0
 41
0.0
 42
0.0
 10
195.1731719970703125
 20
504.2587127685546875
 40
0.0
 41
0.0
 42
0.0
 10
196.5638885498046875
 20
504.147186279296875
 40
0.0
 41
0.0
 42
0.0
 10
197.954315185546875
 20
504.0321502685546875
 40
0.0
 41
0.0
 42
0.0
 10
199.3444366455078125
 20
503.9136505126953125
 40
0.0
 41
0.0
 42
0.0
 10
200.7342681884765625
 20
503.791778564453125
 40
0.0
 41
0.0
 42
0.0
 10
202.1238250732421875
 20
503.6666259765625
 40
0.0
 41
0.0
 42
0.0
 10
203.5130767822265625
 20
503.538238525390625
 40
0.0
 41
0.0
 42
0.0
 10
204.9020233154296875
 20
503.406707763671875
 40
0.0
 41
0.0
 42
0.0
 10
206.2906951904296875
 20
503.272064208984375
 40
0.0
 41
0.0
 42
0.0
 10
207.679046630859375
 20
503.1343841552734375
 40
0.0
 41
0.0
 42
0.0
 10
209.06707763671875
 20
502.9933319091796875
 40
0.0
 41
0.0
 42
0.0
 10
210.454803466796875
 20
502.8493804931640625
 40
0.0
 41
0.0
 42
0.0
 10
211.84222412109375
 20
502.70257568359375
 40
0.0
 41
0.0
 42
0.0
 10
213.2293548583984375
 20
502.552978515625
 40
0.0
 41
0.0
 42
0.0
 10
214.616180419921875
 20
502.4006500244140625
 40
0.0
 41
0.0
 42
0.0
 10
216.002716064453125
 20
502.2456512451171875
 40
0.0
 41
0.0
 42
0.0
 10
217.388946533203125
 20
502.088043212890625
 40
0.0
 41
0.0
 42
0.0
 10
218.774871826171875
 20
501.927642822265625
 40
0.0
 41
0.0
 42
0.0
 10
220.16046142578125
 20
501.764373779296875
 40
0.0
 41
0.0
 42
0.0
 10
221.545745849609375
 20
501.5986175537109375
 40
0.0
 41
0.0
 42
0.0
 10
222.930755615234375
 20
501.430450439453125
 40
0.0
 41
0.0
 42
0.0
 10
224.315460205078125
 20
501.259918212890625
 40
0.0
 41
0.0
 42
0.0
 10
225.6998748779296875
 20
501.0870361328125
 40
0.0
 41
0.0
 42
0.0
 10
227.083984375
 20
500.9116973876953125
 40
0.0
 41
0.0
 42
0.0
 10
228.4677581787109375
 20
500.7336883544921875
 40
0.0
 41
0.0
 42
0.0
 10
229.8512420654296875
 20
500.553466796875
 40
0.0
 41
0.0
 42
0.0
 10
231.23443603515625
 20
500.3710784912109375
 40
0.0
 41
0.0
 42
0.0
 10
232.6173553466796875
 20
500.1865692138671875
 40
0.0
 41
0.0
 42
0.0
 10
234.0
 20
500.0
 40
0.0
 41
0.0
 42
0.0
  0
LWPOLYLINE
  5
1E
330
F
100
AcDbEntity
  8
0
  6
ByLayer
420
0
 48
1.0
 60
0
370
-1
100
AcDbPolyline
 90
65
 70
0
 43
0.0
 38
0.0
 39
0.0
210
0.0
220
0.0
230
1.0
 10
145.0
 20
505.0
 40
0.0
 41
0.0
 42
0.0
 10
146.391632080078125
 20
505.0992584228515625
 40
0.0
 41
0.0
 42
0.0
 10
147.783905029296875
 20
505.18914794921875
 40
0.0
 41
0.0
 42
0.0
 10
149.1767425537109375
 20
505.2697906494140625
 40
0.0
 41
0.0
 42
0.0
 10
150.570068359375
 20
505.341522216796875
 40
0.0
 41
0.0
 42
0.0
 10
151.9637908935546875
 20
505.40478515625
 40
0.0
 41
0.0
 42
0.0
 10
153.3578948974609375
 20
505.4596405029296875
 40
0.0
 41
0.0
 42
0.0
 10
154.7522735595703125
 20
505.506591796875
 40
0.0
 41
0.0
 42
0.0
 10
156.146881103515625
 20
505.5457763671875
 40
0.0
 41
0.0
 42
0.0
 10
157.5417022705078125
 20
505.577362060546875
 40
0.0
 41
0.0
 42
0.0
 10
158.9366607666015625
 20
505.601898193359375
 40
0.0
 41
0.0
 42
0.0
 10
160.33172607421875
 20
505.6191864013671875
 40
0.0
 41
0.0
 42
0.0
 10
161.7268524169921875
 20
505.629730224609375
 40
0.0
 41
0.0
 42
0.0
 10
163.12200927734375
 20
505.6337738037109375
 40
0.0
 41
0.0
 42
0.0
 10
164.517181396484375
 20
505.631256103515625
 40
0.0
 41
0.0
 42
0.0
 10
165.912322998046875
 20
505.6225128173828125
 40
0.0
 41
0.0
 42
0.0
 10
167.3074188232421875
 20
505.607757568359375
 40
0.0
 41
0.0
 42
0.0
 10
168.7024383544921875
 20
505.5872039794921875
 40
0.0
 41
0.0
 42
0.0
 10
170.09735107421875
 20
505.5603485107421875
 40
0.0
 41
0.0
 42
0.0
 10
171.492156982421875
 20
505.5284576416015625
 40
0.0
 41
0.0
 42
0.0
 10
172.8868255615234375
 20
505.491180419921875
 40
0.0
 41
0.0
 42
0.0
 10
174.281341552734375
 20
505.4486541748046875
 40
0.0
 41
0.0
 42
0.0
 10
175.6757049560546875
 20
505.4010009765625
 40
0.0
 41
0.0
 42
0.0
 10
177.0698699951171875
 20
505.34832763671875
 40
0.0
 41
0.0
 42
0.0
 10
178.4638519287109375
 20
505.290771484375
 40
0.0
 41
0.0
 42
0.0
 10
179.857635498046875
 20
505.2284698486328125
 40
0.0
 41
0.0
 42
0.0
 10
181.251190185546875
 20
505.1615142822265625
 40
0.0
 41
0.0
 42
0.0
 10
182.64453125
 20
505.0900115966796875
 40
0.0
 41
0.0
 42
0.0
 10
184.0376434326171875
 20
505.0140838623046875
 40
0.0
 41
0.0
 42
0.0
 10
185.4304962158203125
 20
504.9337921142578125
 40
0.0
 41
0.0
 42
0.0
 10
186.8231048583984375
 20
504.84930419921875
 40
0.0
 41
0.0
 42
0.0
 10
188.2154541015625
 20
504.7606658935546875
 40
0.0
 41
0.0
 42
0.0
 10
189.6075439453125
 20
504.66796875
 40
0.0
 41
0.0
 42
0.0
 10
190.9993743896484375
 20
504.5713653564453125
 40
0.0
 41
0.0
 42
0.0
 10
192.3909149169921875
 20
504.4709014892578125
 40
0.0
 41
0.0
 42
0.0
 10
193.782196044921875
 20
504.36663818359375
 40
0.0
 41
0.0
 42
0.0
 10
195.1731719970703125
 20
504.2587127685546875
 40
0.0
 41
0.0
 42
0.0
 10
196.5638885498046875
 20
504.147186279296875
 40
0.0
 41
0.0
 42
0.0
 10
197.954315185546875
 20
504.0321502685546875
 40
0.0
 41
0.0
 42
0.0
 10
199.3444366455078125
 20
503.9136505126953125
 40
0.0
 41
0.0
 42
0.0
 10
200.7342681884765625
 20
503.791778564453125
 40
0.0
 41
0.0
 42
0.0
 10
202.1238250732421875
 20
503.6666259765625
 40
0.0
 41
0.0
 42
0.0
 10
203.5130767822265625
 20
503.538238525390625
 40
0.0
 41
0.0
 42
0.0
 10
204.9020233154296875
 20
503.406707763671875
 40
0.0
 41
0.0
 42
0.0
 10
206.2906951904296875
 20
503.272064208984375
 40
0.0
 41
0.0
 42
0.0
 10
207.679046630859375
 20
503.1343841552734375
 40
0.0
 41
0.0
 42
0.0
 10
209.06707763671875
 20
502.9933319091796875
 40
0.0
 41
0.0
 42
0.0
 10
210.454803466796875
 20
502.8493804931640625
 40
0.0
 41
0.0
 42
0.0
 10
211.84222412109375
 20
502.70257568359375
 40
0.0
 41
0.0
 42
0.0
 10
213.2293548583984375
 20
502.552978515625
 40
0.0
 41
0.0
 42
0.0
 10
214.616180419921875
 20
502.4006500244140625
 40
0.0
 41
0.0
 42
0.0
 10
216.002716064453125
 20
502.2456512451171875
 40
0.0
 41
0.0
 42
0.0
 10
217.388946533203125
 20
502.088043212890625
 40
0.0
 41
0.0
 42
0.0
 10
218.774871826171875
 20
501.927642822265625
 40
0.0
 41
0.0
 42
0.0
 10
220.16046142578125
 20
501.764373779296875
 40
0.0
 41
0.0
 42
0.0
 10
221.545745849609375
 20
501.5986175537109375
 40
0.0
 41
0.0
 42
0.0
 10
222.930755615234375
 20
501.430450439453125
 40
0.0
 41
0.0
 42
0.0
 10
224.315460205078125
 20
501.259918212890625
 40
0.0
 41
0.0
 42
0.0
 10
225.6998748779296875
 20
501.0870361328125
 40
0.0
 41
0.0
 42
0.0
 10
227.083984375
 20
500.9116973876953125
 40
0.0
 41
0.0
 42
0.0
 10
228.4677581787109375
 20
500.7336883544921875
 40
0.0
 41
0.0
 42
0.0
 10
229.8512420654296875
 20
500.553466796875
 40
0.0
 41
0.0
 42
0.0
 10
231.23443603515625
 20
500.3710784912109375
 40
0.0
 41
0.0
 42
0.0
 10
232.6173553466796875
 20
500.1865692138671875
 40
0.0
 41
0.0
 42
0.0
 10
234.0
 20
500.0
 40
0.0
 41
0.0
 42
0.0
  0
HATCH
  5
1F
330
F
100
AcDbEntity
  8
0
  6
ByLayer
420
0
 48
1.0
 60
0
370
-1
100
AcDbHatch
 30
0.0
210
0.0
220
0.0
230
1.0
  2
SOLID
 70
1
 71
0
 91
1
 92
2
 72
0
 73
1
 93
33
 10
222.9101249163536522
 20
507.5508059589105869
 10
223.603242109081549
 20
507.0788805864787037
 10
224.2963603594223514
 20
506.6069544939458638
 10
224.9894764945373424
 20
506.1350298416148803
 10
225.6825936872652392
 20
505.6631044691829402
 10
226.3757114087995888
 20
505.1911787367005218
 10
227.0688280727210326
 20
504.7192537243191168
 10
227.7619452654489294
 20
504.2473283518871767
 10
228.4550624581768261
 20
503.7754029794552935
 10
229.1481801797111757
 20
503.303477246972875
 10
229.8412968436326196
 20
502.8315522345914701
 10
230.5344140554899752
 20
502.3596270039258798
 10
231.2275312290884131
 20
501.8877014897276467
 10
231.9206484026868509
 20
501.4157759755294137
 10
232.6137656432383949
 20
500.9438509575132912
 10
233.3068828216191832
 20
500.4719254787567024
 10
234.0
 20
500.0
 10
233.2065892333821182
 20
499.7286603351461167
 10
232.4131786197998508
 20
499.4573218044229179
 10
231.6197691403482963
 20
499.1859831206641616
 10
230.8263579979595477
 20
498.9146449499914979
 10
230.0329467790530487
 20
498.6433062122534352
 10
229.2395373761193014
 20
498.3719680955599642
 10
228.4461249848231432
 20
498.1006292273249301
 10
227.6527155818893959
 20
497.8292911106314591
 10
226.8593055736313886
 20
497.5579527869231811
 10
226.0658935041268478
 20
497.2866141639618718
 10
225.2724837794014832
 20
497.0152758019946759
 10
224.4790737711435042
 20
496.743937478286341
 10
223.685661805146367
 20
496.4725985526628733
 10
222.8922519769135988
 20
496.2012604933578359
 10
222.09884001091649
 20
495.9299215677343682
 10
221.3054301826837218
 20
495.6585835084292739
 97
0
 75
0
 76
1
 47
0.0
 98
0
  0
LWPOLYLINE
  5
20
330
F
100
AcDbEntity
  8
0
  6
ByLayer
420
0
 48
1.0
 60
0
370
-1
100
AcDbPolyline
 90
33
 70
1
 43
0.0
 38
0.0
 39
0.0
210
0.0
220
0.0
230
1.0
 10
222.9101249163536522
 20
507.5508059589105869
 40
0.0
 41
0.0
 42
0.0
 10
223.603242109081549
 20
507.0788805864787037
 40
0.0
 41
0.0
 42
0.0
 10
224.2963603594223514
 20
506.6069544939458638
 40
0.0
 41
0.0
 42
0.0
 10
224.9894764945373424
 20
506.1350298416148803
 40
0.0
 41
0.0
 42
0.0
 10
225.6825936872652392
 20
505.6631044691829402
 40
0.0
 41
0.0
 42
0.0
 10
226.3757114087995888
 20
505.1911787367005218
 40
0.0
 41
0.0
 42
0.0
 10
227.0688280727210326
 20
504.7192537243191168
 40
0.0
 41
0.0
 42
0.0
 10
227.7619452654489294
 20
504.2473283518871767
 40
0.0
 41
0.0
 42
0.0
 10
228.4550624581768261
 20
503.7754029794552935
 40
0.0
 41
0.0
 42
0.0
 10
229.1481801797111757
 20
503.303477246972875
 40
0.0
 41
0.0
 42
0.0
 10
229.8412968436326196
 20
502.8315522345914701
 40
0.0
 41
0.0
 42
0.0
 10
230.5344140554899752
 20
502.3596270039258798
 40
0.0
 41
0.0
 42
0.0
 10
231.2275312290884131
 20
501.8877014897276467
 40
0.0
 41
0.0
 42
0.0
 10
231.9206484026868509
 20
501.4157759755294137
 40
0.0
 41
0.0
 42
0.0
 10
232.6137656432383949
 20
500.9438509575132912
 40
0.0
 41
0.0
 42
0.0
 10
233.3068828216191832
 20
500.4719254787567024
 40
0.0
 41
0.0
 42
0.0
 10
234.0
 20
500.0
 40
0.0
 41
0.0
 42
0.0
 10
233.2065892333821182
 20
499.7286603351461167
 40
0.0
 41
0.0
 42
0.0
 10
232.4131786197998508
 20
499.4573218044229179
 40
0.0
 41
0.0
 42
0.0
 10
231.6197691403482963
 20
499.1859831206641616
 40
0.0
 41
0.0
 42
0.0
 10
230.8263579979595477
 20
498.9146449499914979
 40
0.0
 41
0.0
 42
0.0
 10
230.0329467790530487
 20
498.6433062122534352
 40
0.0
 41
0.0
 42
0.0
 10
229.2395373761193014
 20
498.3719680955599642
 40
0.0
 41
0.0
 42
0.0
 10
228.4461249848231432
 20
498.1006292273249301
 40
0.0
 41
0.0
 42
0.0
 10
227.6527155818893959
 20
497.8292911106314591
 40
0.0
 41
0.0
 42
0.0
 10
226.8593055736313886
 20
497.5579527869231811
 40
0.0
 41
0.0
 42
0.0
 10
226.0658935041268478
 20
497.2866141639618718
 40
0.0
 41
0.0
 42
0.0
 10
225.2724837794014832
 20
497.0152758019946759
 40
0.0
 41
0.0
 42
0.0
 10
224.4790737711435042
 20
496.743937478286341
 40
0.0
 41
0.0
 42
0.0
 10
223.685661805146367
 20
496.4725985526628733
 40
0.0
 41
0.0
 42
0.0
 10
222.8922519769135988
 20
496.2012604933578359
 40
0.0
 41
0.0
 42
0.0
 10
222.09884001091649
 20
495.9299215677343682
 40
0.0
 41
0.0
 42
0.0
 10
221.3054301826837218
 20
495.6585835084292739
 40
0.0
 41
0.0
 42
0.0
  0
ENDSEC
  0
SECTION
  2
OBJECTS
  0
DICTIONARY
  5
1
330
0
100
AcDbDictionary
280
0
281
0
  3
ACAD_COLOR
350
0
  3
ACAD_GROUP
350
0
  3
ACAD_LAYOUT
350
0
  3
ACAD_MATERIAL
350
0
  3
ACAD_SORTENTS
350
0
  3
ACAD_MLEADERSTYLE
350
0
  3
ACAD_MLINESTYLE
350
0
  3
ACAD_TABLESTYLE
350
0
  3
ACAD_PLOTSETTINGS
350
0
  3
AcDbVariableDictionary
350
0
  3
ACAD_SCALELIST
350
0
  3
ACAD_VISUALSTYLE
350
0
  3
ACAD_FIELDLIST
350
0
  3
ACAD_IMAGE_DICT
350
0
  0
DICTIONARY
  5
0
330
1
100
AcDbDictionary
280
0
281
0
  0
DICTIONARY
  5
0
330
1
100
AcDbDictionary
280
0
281
0
  0
DICTIONARY
  5
0
330
1
100
AcDbDictionary
280
0
281
0
  0
DICTIONARY
  5
0
330
1
100
AcDbDictionary
280
0
281
0
  0
DICTIONARY
  5
0
330
1
100
AcDbDictionary
280
0
281
0
  0
DICTIONARY
  5
0
330
1
100
AcDbDictionary
280
0
281
0
  0
DICTIONARY
  5
0
330
1
100
AcDbDictionary
280
0
281
0
  0
DICTIONARY
  5
0
330
1
100
AcDbDictionary
280
0
281
0
  0
DICTIONARY
  5
0
330
1
100
AcDbDictionary
280
0
281
0
  0
DICTIONARY
  5
0
330
1
100
AcDbDictionary
280
0
281
0
  0
DICTIONARY
  5
0
330
1
100
AcDbDictionary
280
0
281
0
  0
DICTIONARY
  5
0
330
1
100
AcDbDictionary
280
0
281
0
  0
DICTIONARY
  5
0
330
1
100
AcDbDictionary
280
0
281
0
  0
DICTIONARY
  5
0
330
1
100
AcDbDictionary
280
0
281
0
  0
ENDSEC
  0
EOF
