<?xml version="1.0" encoding="UTF-8"?>
<svg xmlns="http://www.w3.org/2000/svg" xmlns:xlink="http://www.w3.org/1999/xlink" width="1264" height="413" viewBox="0 0 1264 413">
<defs>
<clipPath id="clip1"><rect x="765" y="299" width="246.58" height="114"/></clipPath>
<clipPath id="clip2"><rect x="765" y="299" width="246.58" height="114"/></clipPath>
<clipPath id="clip3"><rect x="765" y="299" width="246.58" height="114"/></clipPath>
<clipPath id="clip4"><rect x="765" y="299" width="246.58" height="114"/></clipPath>
<clipPath id="clip5"><rect x="765" y="299" width="246.58" height="114"/></clipPath>
</defs>
<path d="M0,0 L1264,0 L1264,162 L0,162 Z" fill="none"/>
<path d="M0,0 L1264,0 L1264,126 L0,126 Z" fill="none"/>
<text x="0" y="1" fill="rgb(0, 0, 0)" dominant-baseline="text-before-edge" font-size="16px" font-family="serif">Alte Not-Halt Mobile Panel Steckplatz</text>
<text x="0" y="37" fill="rgb(0, 0, 0)" dominant-baseline="text-before-edge" font-size="16px" font-family="serif">und Fördererstich AE11/AE12.</text>
<text x="0" y="73" fill="rgb(0, 0, 0)" dominant-baseline="text-before-edge" font-size="16px" font-family="serif">Am Pnoz gebrückt. Im Programm nur noch für</text>
<text x="0" y="109" fill="rgb(0, 0, 0)" dominant-baseline="text-before-edge" font-size="16px" font-family="serif">Diagnose, falls sie mal ausgelöst werden!</text>
<path d="M765,299 L1011.58,299 L1011.58,413 L765,413 Z" fill="none" stroke="rgb(0, 0, 0)" stroke-width="1"/>
<g clip-path="url(#clip1)"><path d="M766,300 L1010.58,300 L1010.58,412 L766,412 Z" fill="none"/></g>
<g clip-path="url(#clip2)"><text x="766" y="302" fill="rgb(0, 0, 0)" dominant-baseline="text-before-edge" font-size="12px" font-family="Segoe UI">Alte Not-Halt Mobile Panel Steckplatz</text></g>
<g clip-path="url(#clip3)"><text x="766" y="334" fill="rgb(0, 0, 0)" dominant-baseline="text-before-edge" font-size="12px" font-family="Segoe UI">und Fördererstich AE11/AE12.</text></g>
<g clip-path="url(#clip4)"><text x="766" y="366" fill="rgb(0, 0, 0)" dominant-baseline="text-before-edge" font-size="12px" font-family="Segoe UI">Am Pnoz gebrückt. Im Programm nur noch für</text></g>
<g clip-path="url(#clip5)"><text x="766" y="398" fill="rgb(0, 0, 0)" dominant-baseline="text-before-edge" font-size="12px" font-family="Segoe UI">Diagnose, falls sie mal ausgelöst werden!</text></g>
</svg>