0
SECTION
2
HEADER
9
$ACADVER
1
AC1021
9
$LASTSAVEDBY
1
@tarikjabiri/dxf
9
$HANDSEED
5
26
9
$INSUNITS
70
0
9
$CLAYER
8
0
9
$VIEWCTR
10
220
20
556.6184844970703
0
ENDSEC
0
SECTION
2
CLASSES
0
ENDSEC
0
SECTION
2
TABLES
0
TABLE
2
VPORT
5
1
330
0
100
AcDbSymbolTable
70
1
0
VPORT
5
19
330
1
100
AcDbSymbolTableRecord
100
AcDbViewportTableRecord
2
*Active
70
0
10
0
20
0
11
1
21
1
12
220
22
556.6184844970703
13
0
23
0
14
10
24
10
15
10
25
10
16
0
26
0
36
1
17
0
27
0
37
0
40
446.7630310058594
41
2
42
50
43
0
44
0
50
0
51
0
71
0
72
100
73
1
74
3
75
0
76
1
77
0
78
0
281
0
65
1
110
0
120
0
130
0
111
1
121
0
131
0
112
0
122
1
132
0
79
0
146
0
348
10020
60
7
61
5
292
1
282
1
141
0
142
0
63
250
421
3358443
0
ENDTAB
0
TABLE
2
LTYPE
5
2
330
0
100
AcDbSymbolTable
70
3
0
LTYPE
5
12
330
2
100
AcDbSymbolTableRecord
100
AcDbLinetypeTableRecord
2
ByBlock
70
0
3

72
65
73
0
40
0
0
LTYPE
5
13
330
2
100
AcDbSymbolTableRecord
100
AcDbLinetypeTableRecord
2
ByLayer
70
0
3

72
65
73
0
40
0
0
LTYPE
5
14
330
2
100
AcDbSymbolTableRecord
100
AcDbLinetypeTableRecord
2
Continuous
70
0
3
Solid line
72
65
73
0
40
0
0
ENDTAB
0
TABLE
2
LAYER
5
3
330
0
100
AcDbSymbolTable
70
1
0
LAYER
5
15
330
3
100
AcDbSymbolTableRecord
100
AcDbLayerTableRecord
2
0
70
0
62
7
6
Continuous
370
0
390
0
0
ENDTAB
0
TABLE
2
STYLE
5
4
330
0
100
AcDbSymbolTable
70
1
0
STYLE
5
16
330
4
100
AcDbSymbolTableRecord
100
AcDbTextStyleTableRecord
2
Standard
70
0
40
0
41
1
50
0
71
0
42
1
3
txt
4

0
ENDTAB
0
TABLE
2
VIEW
5
5
330
0
100
AcDbSymbolTable
70
0
0
ENDTAB
0
TABLE
2
UCS
5
6
330
0
100
AcDbSymbolTable
70
0
0
ENDTAB
0
TABLE
2
APPID
5
7
330
0
100
AcDbSymbolTable
70
1
0
APPID
5
17
330
7
100
AcDbSymbolTableRecord
100
AcDbRegAppTableRecord
2
ACAD
70
0
0
ENDTAB
0
TABLE
2
DIMSTYLE
5
8
330
0
100
AcDbSymbolTable
70
1
100
AcDbDimStyleTable
0
DIMSTYLE
105
18
330
8
100
AcDbSymbolTableRecord
100
AcDbDimStyleTableRecord
2
Standard
70
0
340
16
0
ENDTAB
0
TABLE
2
BLOCK_RECORD
5
9
330
0
100
AcDbSymbolTable
70
2
0
BLOCK_RECORD
5
C
330
9
100
AcDbSymbolTableRecord
100
AcDbBlockTableRecord
2
*Model_Space
70
0
280
1
281
0
0
BLOCK_RECORD
5
F
330
9
100
AcDbSymbolTableRecord
100
AcDbBlockTableRecord
2
*Paper_Space
70
0
280
1
281
0
0
ENDTAB
0
ENDSEC
0
SECTION
2
BLOCKS
0
BLOCK
5
D
330
C
100
AcDbEntity
8
0
100
AcDbBlockBegin
2
*Model_Space
70
0
10
0
20
0
30
0
3
*Model_Space
1

0
ENDBLK
5
E
100
AcDbEntity
8
0
100
AcDbBlockEnd
0
BLOCK
5
10
330
F
100
AcDbEntity
8
0
100
AcDbBlockBegin
2
*Paper_Space
70
0
10
0
20
0
30
0
3
*Paper_Space
1

0
ENDBLK
5
11
100
AcDbEntity
8
0
100
AcDbBlockEnd
0
ENDSEC
0
SECTION
2
ENTITIES
0
TEXT
5
1A
330
C
100
AcDbEntity
420
#000000
8
0
100
AcDbText
10
20
20
680
30
0
40
20
1
CSS Transforms
7
STANDARD
100
AcDbText
0
LWPOLYLINE
5
1B
330
C
100
AcDbEntity
420
#cccccc
8
0
100
AcDbPolyline
90
5
70
0
43
0
38
0
39
0
10
20
20
659
10
520
20
659
10
520
20
359
10
20
20
359
10
20
20
659
0
LWPOLYLINE
5
1C
330
C
100
AcDbEntity
420
#000000
8
0
100
AcDbPolyline
90
5
70
0
43
0
38
0
39
0
10
111
20
574.5685599999999
10
167.56856
20
518
10
111
20
461.43143999999995
10
54.431439999999995
20
518
10
111
20
574.5685599999999
0
LWPOLYLINE
5
1D
330
C
100
AcDbEntity
420
#000000
8
0
100
AcDbPolyline
90
5
70
0
43
0
38
0
39
0
10
206
20
573
10
296
20
573
10
296
20
483
10
206
20
483
10
206
20
573
0
LWPOLYLINE
5
1E
330
C
100
AcDbEntity
420
#000000
8
0
100
AcDbPolyline
90
5
70
0
43
0
38
0
39
0
10
360.0809
20
561.499548
10
440.0809
20
554.500452
10
461.91909999999996
20
494.500452
10
381.91909999999996
20
501.499548
10
360.0809
20
561.499548
0
LWPOLYLINE
5
1F
330
C
100
AcDbEntity
420
#ffffff
8
0
100
AcDbPolyline
90
5
70
0
43
0
38
0
39
0
10
107.88008
20
640.25947
10
204.47268
20
614.37757
10
194.11991999999998
20
575.74053
10
97.52732
20
601.62243
10
107.88008
20
640.25947
0
TEXT
5
20
330
C
100
AcDbEntity
420
#ffffff
8
0
100
AcDbText
10
117.02595520019531
20
592.6206512451172
30
0
40
30.758697509765625
1
Translated + Rotated
7
STANDARD
100
AcDbText
0
TEXT
5
21
330
C
100
AcDbEntity
420
#ffffff
8
0
100
AcDbText
10
118.53597259521484
20
557.1622314453125
30
0
40
24.401458740234375
1
Translated + Rotated
7
STANDARD
100
AcDbText
0
LWPOLYLINE
5
22
330
C
100
AcDbEntity
420
#ffffff
8
0
100
AcDbPolyline
90
5
70
0
43
0
38
0
39
0
10
73.26525659885957
20
462.4442469144582
10
178.23789904690562
20
454.3637685955221
10
178.23789904690562
20
381.6362314044778
10
73.26525659885957
20
373.5557530855419
10
73.26525659885957
20
462.4442469144582
0
TEXT
5
23
330
C
100
AcDbEntity
420
#ffffff
8
0
100
AcDbText
10
83.76225280761719
20
433.2369689941406
30
0
40
17.490325927734375
1
3D perspective
7
STANDARD
100
AcDbText
0
LWPOLYLINE
5
24
330
C
100
AcDbEntity
420
#009688
8
0
100
AcDbPolyline
90
5
70
0
43
0
38
0
39
0
10
280.442
20
465.9228
10
378.9228
20
448.558
10
361.558
20
350.0772
10
263.0772
20
367.442
10
280.442
20
465.9228
0
LWPOLYLINE
5
25
330
C
100
AcDbEntity
420
#000000
8
0
100
AcDbPolyline
90
5
70
0
43
0
38
0
39
0
10
320.553683025
20
456.340212435
10
358.85590043499997
20
424.200836975
10
326.71652497499997
20
385.898619565
10
288.414307565
20
418.037995025
10
320.553683025
20
456.340212435
0
ENDSEC
0
SECTION
2
OBJECTS
0
DICTIONARY
5
A
330
0
100
AcDbDictionary
281
1
3
ACAD_GROUP
350
B
0
DICTIONARY
5
B
330
A
100
AcDbDictionary
281
0
0
ENDSEC
0
EOF