<?xml version="1.0" encoding="UTF-8"?>
<svg xmlns="http://www.w3.org/2000/svg" xmlns:xlink="http://www.w3.org/1999/xlink" width="1240" height="350" viewBox="0 0 1240 350">
<defs>
<linearGradient id="lg1" x1="279.48" y1="130.69" x2="369.69" y2="40.48" gradientUnits="userSpaceOnUse"><stop offset="0%" stop-color="rgb(240, 98, 146)"/><stop offset="100%" stop-color="rgb(186, 104, 200)"/></linearGradient>
</defs>
<text x="0" y="1" fill="rgb(0, 0, 0)" dominant-baseline="text-before-edge" font-weight="700" font-size="18px" font-family="Arial, sans-serif">CSS Transforms</text>
<rect x="0" y="41" width="500" height="300" rx="0" ry="0" fill="none" stroke="rgb(204, 204, 204)" stroke-width="1"/>
<path d="M91,125.43 L147.57,182 L91,238.57 L34.43,182 Z" fill="rgb(229, 57, 53)"/>
<rect x="186" y="127" width="90" height="90" rx="0" ry="0" fill="rgb(30, 136, 229)"/>
<path d="M340.08,138.5 L420.08,145.5 L441.92,205.5 L361.92,198.5 Z" fill="rgb(67, 160, 71)"/>
<path d="M87.88,59.74 L184.47,85.62 L174.12,124.26 L77.53,98.38 Z" fill="rgb(255, 152, 0)"/>
<text x="0" y="1" fill="rgb(255, 255, 255)" dominant-baseline="text-before-edge" font-size="12px" font-family="Arial, sans-serif" transform="matrix(0.97,0.26,-0.26,0.97,100.65,76.62)">Translated +</text>
<text x="0" y="1" fill="rgb(255, 255, 255)" dominant-baseline="text-before-edge" font-size="12px" font-family="Arial, sans-serif" transform="matrix(0.97,0.26,-0.26,0.97,102.16,118.44)">Rotated</text>
<path d="M53.27,237.56 L158.24,245.64 L158.24,318.36 L53.27,326.44 Z" fill="rgb(123, 31, 162)"/>
<g><path d="M260.44,234.08 L358.92,251.44 L341.56,349.92 L243.08,332.56 Z" fill="rgba(0, 150, 136, 0.3)"/><path d="M260.44,234.08 L358.92,251.44 L341.56,349.92 L243.08,332.56 Z" fill="none" stroke="rgb(0, 150, 136)" stroke-width="2"/></g>
<path d="M300.55,243.66 L338.86,275.8 L306.72,314.1 L268.41,281.96 Z" fill="rgb(0, 150, 136)"/>
<g><path d="M282.9,82.71 Q279.48,73.31 288.87,69.89 L360.29,43.9 Q369.69,40.48 373.11,49.87 L399.1,121.29 Q402.52,130.69 393.13,134.11 L321.71,160.1 Q312.31,163.52 308.89,154.13 Z" fill="rgb(240, 98, 146)"/><path d="M282.9,82.71 Q279.48,73.31 288.87,69.89 L360.29,43.9 Q369.69,40.48 373.11,49.87 L399.1,121.29 Q402.52,130.69 393.13,134.11 L321.71,160.1 Q312.31,163.52 308.89,154.13 Z" fill="url(#lg1)"/></g>
</svg>