0
SECTION
2
HEADER
9
$ACADVER
1
AC1021
9
$LASTSAVEDBY
1
@tarikjabiri/dxf
9
$HANDSEED
5
28
9
$INSUNITS
70
0
9
$CLAYER
8
0
9
$VIEWCTR
10
200
20
167.75
0
ENDSEC
0
SECTION
2
CLASSES
0
ENDSEC
0
SECTION
2
TABLES
0
TABLE
2
VPORT
5
1
330
0
100
AcDbSymbolTable
70
1
0
VPORT
5
19
330
1
100
AcDbSymbolTableRecord
100
AcDbViewportTableRecord
2
*Active
70
0
10
0
20
0
11
1
21
1
12
200
22
167.75
13
0
23
0
14
10
24
10
15
10
25
10
16
0
26
0
36
1
17
0
27
0
37
0
40
535.5
41
2
42
50
43
0
44
0
50
0
51
0
71
0
72
100
73
1
74
3
75
0
76
1
77
0
78
0
281
0
65
1
110
0
120
0
130
0
111
1
121
0
131
0
112
0
122
1
132
0
79
0
146
0
348
10020
60
7
61
5
292
1
282
1
141
0
142
0
63
250
421
3358443
0
ENDTAB
0
TABLE
2
LTYPE
5
2
330
0
100
AcDbSymbolTable
70
3
0
LTYPE
5
12
330
2
100
AcDbSymbolTableRecord
100
AcDbLinetypeTableRecord
2
ByBlock
70
0
3

72
65
73
0
40
0
0
LTYPE
5
13
330
2
100
AcDbSymbolTableRecord
100
AcDbLinetypeTableRecord
2
ByLayer
70
0
3

72
65
73
0
40
0
0
LTYPE
5
14
330
2
100
AcDbSymbolTableRecord
100
AcDbLinetypeTableRecord
2
Continuous
70
0
3
Solid line
72
65
73
0
40
0
0
ENDTAB
0
TABLE
2
LAYER
5
3
330
0
100
AcDbSymbolTable
70
1
0
LAYER
5
15
330
3
100
AcDbSymbolTableRecord
100
AcDbLayerTableRecord
2
0
70
0
62
7
6
Continuous
370
0
390
0
0
ENDTAB
0
TABLE
2
STYLE
5
4
330
0
100
AcDbSymbolTable
70
2
0
STYLE
5
16
330
4
100
AcDbSymbolTableRecord
100
AcDbTextStyleTableRecord
2
Standard
70
0
40
0
41
1
50
0
71
0
42
1
3
txt
4

0
STYLE
5
1B
330
4
100
AcDbSymbolTableRecord
100
AcDbTextStyleTableRecord
2
Arial
70
0
40
0
41
1
50
0
71
0
42
1
3
Arial.ttf
4

0
ENDTAB
0
TABLE
2
VIEW
5
5
330
0
100
AcDbSymbolTable
70
0
0
ENDTAB
0
TABLE
2
UCS
5
6
330
0
100
AcDbSymbolTable
70
0
0
ENDTAB
0
TABLE
2
APPID
5
7
330
0
100
AcDbSymbolTable
70
1
0
APPID
5
17
330
7
100
AcDbSymbolTableRecord
100
AcDbRegAppTableRecord
2
ACAD
70
0
0
ENDTAB
0
TABLE
2
DIMSTYLE
5
8
330
0
100
AcDbSymbolTable
70
1
100
AcDbDimStyleTable
0
DIMSTYLE
105
18
330
8
100
AcDbSymbolTableRecord
100
AcDbDimStyleTableRecord
2
Standard
70
0
340
16
0
ENDTAB
0
TABLE
2
BLOCK_RECORD
5
9
330
0
100
AcDbSymbolTable
70
2
0
BLOCK_RECORD
5
C
330
9
100
AcDbSymbolTableRecord
100
AcDbBlockTableRecord
2
*Model_Space
70
0
280
1
281
0
0
BLOCK_RECORD
5
F
330
9
100
AcDbSymbolTableRecord
100
AcDbBlockTableRecord
2
*Paper_Space
70
0
280
1
281
0
0
ENDTAB
0
ENDSEC
0
SECTION
2
BLOCKS
0
BLOCK
5
D
330
C
100
AcDbEntity
8
0
100
AcDbBlockBegin
2
*Model_Space
70
0
10
0
20
0
30
0
3
*Model_Space
1

0
ENDBLK
5
E
100
AcDbEntity
8
0
100
AcDbBlockEnd
0
BLOCK
5
10
330
F
100
AcDbEntity
8
0
100
AcDbBlockBegin
2
*Paper_Space
70
0
10
0
20
0
30
0
3
*Paper_Space
1

0
ENDBLK
5
11
100
AcDbEntity
8
0
100
AcDbBlockEnd
0
ENDSEC
0
SECTION
2
ENTITIES
0
TEXT
5
1A
330
C
100
AcDbEntity
420
0
8
0
100
AcDbText
10
0
20
335.5
30
0
40
18
1
CSS Transforms
7
Arial
100
AcDbText
0
LWPOLYLINE
5
1C
330
C
100
AcDbEntity
420
13421772
8
0
100
AcDbPolyline
90
5
70
0
43
0
38
0
39
0
10
0
20
309
10
500
20
309
10
500
20
9
10
0
20
9
10
0
20
309
0
LWPOLYLINE
5
1D
330
C
100
AcDbEntity
420
15022389
8
0
100
AcDbPolyline
90
5
70
0
43
0
38
0
39
0
10
91
20
224.56856
10
147.56856
20
168
10
91
20
111.43143999999995
10
34.431439999999995
20
168
10
91
20
224.56856
0
LWPOLYLINE
5
1E
330
C
100
AcDbEntity
420
2001125
8
0
100
AcDbPolyline
90
5
70
0
43
0
38
0
39
0
10
186
20
223
10
276
20
223
10
276
20
133
10
186
20
133
10
186
20
223
0
LWPOLYLINE
5
1F
330
C
100
AcDbEntity
420
4431943
8
0
100
AcDbPolyline
90
5
70
0
43
0
38
0
39
0
10
340.0809
20
211.499548
10
420.0809
20
204.500452
10
441.91909999999996
20
144.500452
10
361.91909999999996
20
151.499548
10
340.0809
20
211.499548
0
LWPOLYLINE
5
20
330
C
100
AcDbEntity
420
16750592
8
0
100
AcDbPolyline
90
5
70
0
43
0
38
0
39
0
10
87.88008
20
290.25946999999996
10
184.47268
20
264.37757
10
174.11991999999998
20
225.74052999999998
10
77.52732
20
251.62243
10
87.88008
20
290.25946999999996
0
TEXT
5
21
330
C
100
AcDbEntity
420
16777215
8
0
100
AcDbText
10
93.17160512121929
20
244.32472945239664
30
0
40
12
1
Translated + Rotated
50
-14.999994927869738
7
Arial
100
AcDbText
0
LWPOLYLINE
5
22
330
C
100
AcDbEntity
420
8069026
8
0
100
AcDbPolyline
90
5
70
0
43
0
38
0
39
0
10
53.265256598859565
20
112.44424691445818
10
158.23789904690562
20
104.36376859552212
10
158.23789904690562
20
31.636231404477826
10
53.265256598859565
20
23.55575308554188
10
53.265256598859565
20
112.44424691445818
0
TEXT
5
23
330
C
100
AcDbEntity
420
16777215
8
0
100
AcDbText
10
63.76244450020182
20
90.09081785157144
30
0
40
12
1
3D perspective
50
-3.3041748379598133
7
Arial
100
AcDbText
0
LWPOLYLINE
5
24
330
C
100
AcDbEntity
420
38536
8
0
100
AcDbPolyline
90
5
70
0
43
0
38
0
39
0
10
260.442
20
115.9228
10
358.9228
20
98.55799999999999
10
341.558
20
0.07720000000000482
10
243.0772
20
17.442000000000007
10
260.442
20
115.9228
0
LWPOLYLINE
5
25
330
C
100
AcDbEntity
420
38536
8
0
100
AcDbPolyline
90
5
70
0
43
0
38
0
39
0
10
300.553683025
20
106.34021243500001
10
338.85590043499997
20
74.20083697500002
10
306.71652497499997
20
35.89861956499999
10
268.414307565
20
68.03799502499999
10
300.553683025
20
106.34021243500001
0
HATCH
5
26
330
C
100
AcDbEntity
420
15753874
8
0
100
AcDbHatch
10
0
20
0
30
0
210
0
220
0
230
1
2
SOLID
70
1
71
0
91
1
92
7
72
0
73
1
93
20
10
282.89804323414097
20
267.29131444760935
10
281.9890121662287
20
271.6162320789141
10
282.6821221966329
20
275.1940594204376
10
284.97737332535354
20
278.0247964721799
10
288.8747655523906
20
280.10844323414096
10
360.2913144476094
20
306.10195676585903
10
364.6162320789141
20
307.0109878337713
10
368.1940594204376
20
306.3178778033671
10
371.0247964721799
20
304.02262667464646
10
373.10844323414096
20
300.1252344476094
10
399.10195676585903
20
228.70868555239062
10
400.0109878337713
20
224.3837679210859
10
399.3178778033671
20
220.80594057956242
10
397.02262667464646
20
217.97520352782013
10
393.1252344476094
20
215.89155676585904
10
321.7086855523906
20
189.89804323414097
10
317.3837679210859
20
188.98901216622872
10
313.8059405795624
20
189.68212219663292
10
310.9752035278201
20
191.97737332535354
10
308.89155676585904
20
195.87476555239064
97
0
75
1
76
1
47
1
98
0
0
LWPOLYLINE
5
27
330
C
100
AcDbEntity
420
15753874
8
0
100
AcDbPolyline
90
21
70
0
43
0
38
0
39
0
10
282.89804323414097
20
267.29131444760935
10
281.9890121662287
20
271.6162320789141
10
282.6821221966329
20
275.1940594204376
10
284.97737332535354
20
278.0247964721799
10
288.8747655523906
20
280.10844323414096
10
360.2913144476094
20
306.10195676585903
10
364.6162320789141
20
307.0109878337713
10
368.1940594204376
20
306.3178778033671
10
371.0247964721799
20
304.02262667464646
10
373.10844323414096
20
300.1252344476094
10
399.10195676585903
20
228.70868555239062
10
400.0109878337713
20
224.3837679210859
10
399.3178778033671
20
220.80594057956242
10
397.02262667464646
20
217.97520352782013
10
393.1252344476094
20
215.89155676585904
10
321.7086855523906
20
189.89804323414097
10
317.3837679210859
20
188.98901216622872
10
313.8059405795624
20
189.68212219663292
10
310.9752035278201
20
191.97737332535354
10
308.89155676585904
20
195.87476555239064
10
282.89804323414097
20
267.29131444760935
0
ENDSEC
0
SECTION
2
OBJECTS
0
DICTIONARY
5
A
330
0
100
AcDbDictionary
281
1
3
ACAD_GROUP
350
B
0
DICTIONARY
5
B
330
A
100
AcDbDictionary
281
0
0
ENDSEC
0
EOF