0
SECTION
2
HEADER
9
$ACADVER
1
AC1021
9
$LASTSAVEDBY
1
@tarikjabiri/dxf
9
$HANDSEED
5
44
9
$INSUNITS
70
0
9
$CLAYER
8
0
9
$VIEWCTR
10
209.5546875
20
452.21875
0
ENDSEC
0
SECTION
2
CLASSES
0
ENDSEC
0
SECTION
2
TABLES
0
TABLE
2
VPORT
5
1
330
0
100
AcDbSymbolTable
70
1
0
VPORT
5
19
330
1
100
AcDbSymbolTableRecord
100
AcDbViewportTableRecord
2
*Active
70
0
10
0
20
0
11
1
21
1
12
209.5546875
22
452.21875
13
0
23
0
14
10
24
10
15
10
25
10
16
0
26
0
36
1
17
0
27
0
37
0
40
1033.5625
41
2
42
50
43
0
44
0
50
0
51
0
71
0
72
100
73
1
74
3
75
0
76
1
77
0
78
0
281
0
65
1
110
0
120
0
130
0
111
1
121
0
131
0
112
0
122
1
132
0
79
0
146
0
348
10020
60
7
61
5
292
1
282
1
141
0
142
0
63
250
421
3358443
0
ENDTAB
0
TABLE
2
LTYPE
5
2
330
0
100
AcDbSymbolTable
70
3
0
LTYPE
5
12
330
2
100
AcDbSymbolTableRecord
100
AcDbLinetypeTableRecord
2
ByBlock
70
0
3

72
65
73
0
40
0
0
LTYPE
5
13
330
2
100
AcDbSymbolTableRecord
100
AcDbLinetypeTableRecord
2
ByLayer
70
0
3

72
65
73
0
40
0
0
LTYPE
5
14
330
2
100
AcDbSymbolTableRecord
100
AcDbLinetypeTableRecord
2
Continuous
70
0
3
Solid line
72
65
73
0
40
0
0
ENDTAB
0
TABLE
2
LAYER
5
3
330
0
100
AcDbSymbolTable
70
1
0
LAYER
5
15
330
3
100
AcDbSymbolTableRecord
100
AcDbLayerTableRecord
2
0
70
0
62
7
6
Continuous
370
0
390
0
0
ENDTAB
0
TABLE
2
STYLE
5
4
330
0
100
AcDbSymbolTable
70
1
0
STYLE
5
16
330
4
100
AcDbSymbolTableRecord
100
AcDbTextStyleTableRecord
2
Standard
70
0
40
0
41
1
50
0
71
0
42
1
3
txt
4

0
ENDTAB
0
TABLE
2
VIEW
5
5
330
0
100
AcDbSymbolTable
70
0
0
ENDTAB
0
TABLE
2
UCS
5
6
330
0
100
AcDbSymbolTable
70
0
0
ENDTAB
0
TABLE
2
APPID
5
7
330
0
100
AcDbSymbolTable
70
1
0
APPID
5
17
330
7
100
AcDbSymbolTableRecord
100
AcDbRegAppTableRecord
2
ACAD
70
0
0
ENDTAB
0
TABLE
2
DIMSTYLE
5
8
330
0
100
AcDbSymbolTable
70
1
100
AcDbDimStyleTable
0
DIMSTYLE
105
18
330
8
100
AcDbSymbolTableRecord
100
AcDbDimStyleTableRecord
2
Standard
70
0
340
16
0
ENDTAB
0
TABLE
2
BLOCK_RECORD
5
9
330
0
100
AcDbSymbolTable
70
2
0
BLOCK_RECORD
5
C
330
9
100
AcDbSymbolTableRecord
100
AcDbBlockTableRecord
2
*Model_Space
70
0
280
1
281
0
0
BLOCK_RECORD
5
F
330
9
100
AcDbSymbolTableRecord
100
AcDbBlockTableRecord
2
*Paper_Space
70
0
280
1
281
0
0
ENDTAB
0
ENDSEC
0
SECTION
2
BLOCKS
0
BLOCK
5
D
330
C
100
AcDbEntity
8
0
100
AcDbBlockBegin
2
*Model_Space
70
0
10
0
20
0
30
0
3
*Model_Space
1

0
ENDBLK
5
E
100
AcDbEntity
8
0
100
AcDbBlockEnd
0
BLOCK
5
10
330
F
100
AcDbEntity
8
0
100
AcDbBlockBegin
2
*Paper_Space
70
0
10
0
20
0
30
0
3
*Paper_Space
1

0
ENDBLK
5
11
100
AcDbEntity
8
0
100
AcDbBlockEnd
0
ENDSEC
0
SECTION
2
ENTITIES
0
TEXT
5
1A
330
C
100
AcDbEntity
420
#000000
8
0
100
AcDbText
10
20
20
869
30
0
40
20
1
Text Wrapping
7
STANDARD
100
AcDbText
0
LWPOLYLINE
5
1B
330
C
100
AcDbEntity
420
#ffcc80
8
0
100
AcDbPolyline
90
42
70
0
43
0
38
0
39
0
10
26
20
858
10
264
20
858
10
264
20
858
10
265.1705419320968
20
857.8847116824194
10
266.29610059419053
20
857.5432771950677
10
267.3334213981176
20
856.9888176738152
10
268.24264068711926
20
856.2426406871193
10
268.9888176738153
20
855.3334213981176
10
269.54327719506773
20
854.2961005941905
10
269.8847116824194
20
853.1705419320967
10
270
20
852
10
270
20
752
10
270
20
752
10
269.8847116824194
20
750.8294580679033
10
269.54327719506773
20
749.7038994058095
10
268.9888176738153
20
748.6665786018824
10
268.24264068711926
20
747.7573593128807
10
267.3334213981176
20
747.0111823261848
10
266.29610059419053
20
746.4567228049323
10
265.1705419320968
20
746.1152883175806
10
264
20
746
10
26
20
746
10
26
20
746
10
24.829458067903232
20
746.1152883175806
10
23.703899405809462
20
746.4567228049323
10
22.66657860188239
20
747.0111823261848
10
21.757359312880716
20
747.7573593128807
10
21.011182326184727
20
748.6665786018824
10
20.45672280493228
20
749.7038994058095
10
20.115288317580617
20
750.8294580679033
10
20
20
752
10
20
20
852
10
20
20
852
10
20.115288317580617
20
853.1705419320967
10
20.45672280493228
20
854.2961005941905
10
21.011182326184727
20
855.3334213981176
10
21.757359312880716
20
856.2426406871193
10
22.666578601882385
20
856.9888176738152
10
23.70389940580946
20
857.5432771950677
10
24.82945806790323
20
857.8847116824194
10
26
20
858
10
26
20
858
0
TEXT
5
1C
330
C
100
AcDbEntity
420
#333333
8
0
100
AcDbText
10
31
20
828
30
0
40
16
1

      Lorem ipsum dolor sit amet, consectetur adipiscing elit. Sed do eiusmod tempor incididunt ut labore et dolore magna aliqua.
    
7
STANDARD
100
AcDbText
0
TEXT
5
1D
330
C
100
AcDbEntity
420
#333333
8
0
100
AcDbText
10
31
20
805.609375
30
0
40
16
1

      Lorem ipsum dolor sit amet, consectetur adipiscing elit. Sed do eiusmod tempor incididunt ut labore et dolore magna aliqua.
    
7
STANDARD
100
AcDbText
0
TEXT
5
1E
330
C
100
AcDbEntity
420
#333333
8
0
100
AcDbText
10
31
20
783.21875
30
0
40
16
1

      Lorem ipsum dolor sit amet, consectetur adipiscing elit. Sed do eiusmod tempor incididunt ut labore et dolore magna aliqua.
    
7
STANDARD
100
AcDbText
0
TEXT
5
1F
330
C
100
AcDbEntity
420
#333333
8
0
100
AcDbText
10
31
20
760.828125
30
0
40
16
1

      Lorem ipsum dolor sit amet, consectetur adipiscing elit. Sed do eiusmod tempor incididunt ut labore et dolore magna aliqua.
    
7
STANDARD
100
AcDbText
0
TEXT
5
20
330
C
100
AcDbEntity
420
#000000
8
0
100
AcDbText
10
20
20
711.4375
30
0
40
20
1
Font Sizes & Weights
7
STANDARD
100
AcDbText
0
TEXT
5
21
330
C
100
AcDbEntity
420
#1a237e
8
0
100
AcDbText
10
20
20
657.4375
30
0
40
45
1
Large Bold Title
7
STANDARD
100
AcDbText
0
TEXT
5
22
330
C
100
AcDbEntity
420
#4a148c
8
0
100
AcDbText
10
20
20
632.4375
30
0
40
17
1
Italic text content
7
STANDARD
100
AcDbText
0
TEXT
5
23
330
C
100
AcDbEntity
420
#000000
8
0
100
AcDbText
10
20
20
596.4375
30
0
40
20
1
Text Decorations
7
STANDARD
100
AcDbText
0
TEXT
5
24
330
C
100
AcDbEntity
420
#b71c1c
8
0
100
AcDbText
10
20
20
570.4375
30
0
40
17
1
Underlined text
7
STANDARD
100
AcDbText
0
TEXT
5
25
330
C
100
AcDbEntity
420
#757575
8
0
100
AcDbText
10
20
20
544.4375
30
0
40
17
1
Strikethrough text
7
STANDARD
100
AcDbText
0
TEXT
5
26
330
C
100
AcDbEntity
420
#000000
8
0
100
AcDbText
10
20
20
508.4375
30
0
40
20
1
Text Shadow
7
STANDARD
100
AcDbText
0
TEXT
5
27
330
C
100
AcDbEntity
420
#1e88e5
8
0
100
AcDbText
10
20
20
468.4375
30
0
40
31
1
Shadow Text
7
STANDARD
100
AcDbText
0
TEXT
5
28
330
C
100
AcDbEntity
420
#000000
8
0
100
AcDbText
10
20
20
432.4375
30
0
40
20
1
Text Overflow
7
STANDARD
100
AcDbText
0
LWPOLYLINE
5
29
330
C
100
AcDbEntity
420
#000000
8
0
100
AcDbPolyline
90
42
70
0
43
0
38
0
39
0
10
24
20
423
10
216
20
423
10
216
20
423
10
216.7803612880645
20
422.9231411216129
10
217.53073372946037
20
422.6955181300452
10
218.2222809320784
20
422.32587844921017
10
218.82842712474618
20
421.8284271247462
10
219.3258784492102
20
421.22228093207843
10
219.69551813004514
20
420.53073372946034
10
219.92314112161293
20
419.7803612880645
10
220
20
419
10
220
20
393
10
220
20
393
10
219.92314112161293
20
392.21963871193543
10
219.69551813004514
20
391.4692662705396
10
219.3258784492102
20
390.77771906792157
10
218.82842712474618
20
390.1715728752538
10
218.2222809320784
20
389.6741215507898
10
217.53073372946037
20
389.3044818699549
10
216.7803612880645
20
389.07685887838704
10
216
20
389
10
24
20
389
10
24
20
389
10
23.219638711935488
20
389.07685887838704
10
22.46926627053964
20
389.3044818699549
10
21.77771906792159
20
389.6741215507898
10
21.17157287525381
20
390.1715728752538
10
20.67412155078982
20
390.77771906792157
10
20.304481869954852
20
391.4692662705396
10
20.07685887838708
20
392.21963871193543
10
20
20
393
10
20
20
419
10
20
20
419
10
20.07685887838708
20
419.7803612880645
10
20.304481869954852
20
420.53073372946034
10
20.674121550789817
20
421.22228093207843
10
21.17157287525381
20
421.8284271247462
10
21.77771906792159
20
422.32587844921017
10
22.469266270539638
20
422.6955181300452
10
23.219638711935485
20
422.9231411216129
10
24
20
423
10
24
20
423
0
TEXT
5
2A
330
C
100
AcDbEntity
420
#000000
8
0
100
AcDbText
10
28
20
398.4375
30
0
40
17
1
This is a very long text that should be truncated with an ellipsis at the end
7
STANDARD
100
AcDbText
0
TEXT
5
2B
330
C
100
AcDbEntity
420
#000000
8
0
100
AcDbText
10
28
20
398.4375
30
0
40
17
1
This is a very long text that should be truncated with an ellipsis at the end
7
STANDARD
100
AcDbText
0
TEXT
5
2C
330
C
100
AcDbEntity
420
#000000
8
0
100
AcDbText
10
20
20
354.4375
30
0
40
20
1
Text Alignment
7
STANDARD
100
AcDbText
0
LWPOLYLINE
5
2D
330
C
100
AcDbEntity
420
#c8e6c9
8
0
100
AcDbPolyline
90
5
70
0
43
0
38
0
39
0
10
20
20
345
10
320
20
345
10
320
20
243
10
20
20
243
10
20
20
345
0
TEXT
5
2E
330
C
100
AcDbEntity
420
#000000
8
0
100
AcDbText
10
227.265625
20
314.4375
30
0
40
16
1
Right aligned
7
STANDARD
100
AcDbText
0
TEXT
5
2F
330
C
100
AcDbEntity
420
#000000
8
0
100
AcDbText
10
124.46875
20
294.4375
30
0
40
16
1
Center aligned
7
STANDARD
100
AcDbText
0
TEXT
5
30
330
C
100
AcDbEntity
420
#000000
8
0
100
AcDbText
10
31
20
274.4375
30
0
40
16
1
Justified text that spans across the full width of the container element here.
7
STANDARD
100
AcDbText
0
TEXT
5
31
330
C
100
AcDbEntity
420
#000000
8
0
100
AcDbText
10
31
20
258.4375
30
0
40
16
1
Justified text that spans across the full width of the container element here.
7
STANDARD
100
AcDbText
0
TEXT
5
32
330
C
100
AcDbEntity
420
#000000
8
0
100
AcDbText
10
20
20
208.4375
30
0
40
20
1
Multi-column Text
7
STANDARD
100
AcDbText
0
LWPOLYLINE
5
33
330
C
100
AcDbEntity
420
#dddddd
8
0
100
AcDbPolyline
90
5
70
0
43
0
38
0
39
0
10
20
20
197
10
420
20
197
10
420
20
103
10
20
20
103
10
20
20
197
0
TEXT
5
34
330
C
100
AcDbEntity
420
#000000
8
0
100
AcDbText
10
31
20
170.4375
30
0
40
14
1

      Lorem ipsum dolor sit amet, consectetur adipiscing elit. Nulla facilisi. Duis aute irure dolor in reprehenderit in voluptate velit esse cillum dolore eu fugiat nulla pariatur. Excepteur sint occaecat cupidatat non proident.
    
7
STANDARD
100
AcDbText
0
TEXT
5
35
330
C
100
AcDbEntity
420
#000000
8
0
100
AcDbText
10
31
20
152.4375
30
0
40
14
1

      Lorem ipsum dolor sit amet, consectetur adipiscing elit. Nulla facilisi. Duis aute irure dolor in reprehenderit in voluptate velit esse cillum dolore eu fugiat nulla pariatur. Excepteur sint occaecat cupidatat non proident.
    
7
STANDARD
100
AcDbText
0
TEXT
5
36
330
C
100
AcDbEntity
420
#000000
8
0
100
AcDbText
10
31
20
134.4375
30
0
40
14
1

      Lorem ipsum dolor sit amet, consectetur adipiscing elit. Nulla facilisi. Duis aute irure dolor in reprehenderit in voluptate velit esse cillum dolore eu fugiat nulla pariatur. Excepteur sint occaecat cupidatat non proident.
    
7
STANDARD
100
AcDbText
0
TEXT
5
37
330
C
100
AcDbEntity
420
#000000
8
0
100
AcDbText
10
31
20
116.4375
30
0
40
14
1

      Lorem ipsum dolor sit amet, consectetur adipiscing elit. Nulla facilisi. Duis aute irure dolor in reprehenderit in voluptate velit esse cillum dolore eu fugiat nulla pariatur. Excepteur sint occaecat cupidatat non proident.
    
7
STANDARD
100
AcDbText
0
TEXT
5
38
330
C
100
AcDbEntity
420
#000000
8
0
100
AcDbText
10
230
20
170.4375
30
0
40
14
1

      Lorem ipsum dolor sit amet, consectetur adipiscing elit. Nulla facilisi. Duis aute irure dolor in reprehenderit in voluptate velit esse cillum dolore eu fugiat nulla pariatur. Excepteur sint occaecat cupidatat non proident.
    
7
STANDARD
100
AcDbText
0
TEXT
5
39
330
C
100
AcDbEntity
420
#000000
8
0
100
AcDbText
10
230
20
152.4375
30
0
40
14
1

      Lorem ipsum dolor sit amet, consectetur adipiscing elit. Nulla facilisi. Duis aute irure dolor in reprehenderit in voluptate velit esse cillum dolore eu fugiat nulla pariatur. Excepteur sint occaecat cupidatat non proident.
    
7
STANDARD
100
AcDbText
0
TEXT
5
3A
330
C
100
AcDbEntity
420
#000000
8
0
100
AcDbText
10
230
20
134.4375
30
0
40
14
1

      Lorem ipsum dolor sit amet, consectetur adipiscing elit. Nulla facilisi. Duis aute irure dolor in reprehenderit in voluptate velit esse cillum dolore eu fugiat nulla pariatur. Excepteur sint occaecat cupidatat non proident.
    
7
STANDARD
100
AcDbText
0
TEXT
5
3B
330
C
100
AcDbEntity
420
#000000
8
0
100
AcDbText
10
20
20
68.4375
30
0
40
20
1
Inline Formatting
7
STANDARD
100
AcDbText
0
TEXT
5
3C
330
C
100
AcDbEntity
420
#000000
8
0
100
AcDbText
10
20
20
35.4375
30
0
40
17
1

      This has 
7
STANDARD
100
AcDbText
0
TEXT
5
3D
330
C
100
AcDbEntity
420
#000000
8
0
100
AcDbText
10
179.234375
20
35.4375
30
0
40
17
1
 and 
7
STANDARD
100
AcDbText
0
TEXT
5
3E
330
C
100
AcDbEntity
420
#000000
8
0
100
AcDbText
10
275.109375
20
35.4375
30
0
40
17
1
 and 
7
STANDARD
100
AcDbText
0
TEXT
5
3F
330
C
100
AcDbEntity
420
#000000
8
0
100
AcDbText
10
399.109375
20
35.4375
30
0
40
17
1
 mixed together in a single paragraph.
    
7
STANDARD
100
AcDbText
0
TEXT
5
40
330
C
100
AcDbEntity
420
#d32f2f
8
0
100
AcDbText
10
80.859375
20
35.4375
30
0
40
17
1
italic emphasis
7
STANDARD
100
AcDbText
0
TEXT
5
41
330
C
100
AcDbEntity
420
#1565c0
8
0
100
AcDbText
10
212.609375
20
35.4375
30
0
40
17
1
bold text
7
STANDARD
100
AcDbText
0
LWPOLYLINE
5
42
330
C
100
AcDbEntity
420
#80cbc4
8
0
100
AcDbPolyline
90
42
70
0
43
0
38
0
39
0
10
311
20
52
10
396
20
52
10
396
20
52
10
396.58527096604837
20
51.942355841209746
10
397.14805029709527
20
51.771638597533865
10
397.6667106990588
20
51.49440883690761
10
398.12132034355966
20
51.12132034355966
10
398.4944088369076
20
50.666710699058854
10
398.77163859753387
20
50.148050297095324
10
398.9423558412097
20
49.58527096604837
10
399
20
49
10
399
20
36
10
399
20
36
10
398.9423558412097
20
35.41472903395163
10
398.77163859753387
20
34.851949702904676
10
398.4944088369076
20
34.333289300941146
10
398.12132034355966
20
33.87867965644034
10
397.6667106990588
20
33.50559116309239
10
397.14805029709527
20
33.228361402466135
10
396.58527096604837
20
33.057644158790254
10
396
20
33
10
311
20
33
10
311
20
33
10
310.41472903395163
20
33.057644158790254
10
309.85194970290473
20
33.228361402466135
10
309.3332893009412
20
33.50559116309239
10
308.87867965644034
20
33.87867965644034
10
308.5055911630924
20
34.333289300941146
10
308.22836140246613
20
34.851949702904676
10
308.0576441587903
20
35.41472903395163
10
308
20
36
10
308
20
49
10
308
20
49
10
308.0576441587903
20
49.58527096604837
10
308.22836140246613
20
50.148050297095324
10
308.5055911630924
20
50.666710699058854
10
308.87867965644034
20
51.12132034355966
10
309.3332893009412
20
51.49440883690761
10
309.85194970290473
20
51.771638597533865
10
310.41472903395163
20
51.942355841209746
10
311
20
52
10
311
20
52
0
TEXT
5
43
330
C
100
AcDbEntity
420
#80cbc4
8
0
100
AcDbText
10
314.484375
20
35.4375
30
0
40
15
1
inline code
7
STANDARD
100
AcDbText
0
ENDSEC
0
SECTION
2
OBJECTS
0
DICTIONARY
5
A
330
0
100
AcDbDictionary
281
1
3
ACAD_GROUP
350
B
0
DICTIONARY
5
B
330
A
100
AcDbDictionary
281
0
0
ENDSEC
0
EOF