<?xml version="1.0" encoding="UTF-8"?>
<svg xmlns="http://www.w3.org/2000/svg" xmlns:xlink="http://www.w3.org/1999/xlink" width="1240" height="1147" viewBox="0 0 1240 1147">
<defs>
<filter id="ts1" x="-50%" y="-50%" width="200%" height="200%"><feDropShadow dx="2" dy="2" stdDeviation="2" flood-color="rgba(0, 0, 0, 0.3)"/></filter>
</defs>
<path d="M0,0 L1240,0 L1240,1002.6 L0,1002.6 Z" fill="none"/>
<path d="M0,0 L1240,0 L1240,21 L0,21 Z" fill="none"/>
<text x="0" y="20.5" fill="rgb(0, 0, 0)" font-weight="700" font-size="18px" font-family="Arial">Text Wrapping</text>
<rect x="0" y="31" width="250" height="111.6" rx="6" ry="6" fill="rgb(255, 243, 224)" stroke="rgb(255, 204, 128)" stroke-width="1"/>
<text x="11" y="61.2" fill="rgb(51, 51, 51)" font-size="14px" font-family="Arial">Lorem ipsum dolor sit amet,</text>
<text x="11" y="83.6" fill="rgb(51, 51, 51)" font-size="14px" font-family="Arial">consectetur adipiscing elit. Sed do</text>
<text x="11" y="106" fill="rgb(51, 51, 51)" font-size="14px" font-family="Arial">eiusmod tempor incididunt ut labore</text>
<text x="11" y="128.4" fill="rgb(51, 51, 51)" font-size="14px" font-family="Arial">et dolore magna aliqua.</text>
<path d="M0,157.6 L1240,157.6 L1240,178.6 L0,178.6 Z" fill="none"/>
<text x="0" y="178.1" fill="rgb(0, 0, 0)" font-weight="700" font-size="18px" font-family="Arial">Font Sizes &amp; Weights</text>
<path d="M0,186.6 L1240,186.6 L1240,231.6 L0,231.6 Z" fill="none"/>
<text x="0" y="231.6" fill="rgb(26, 35, 126)" font-weight="900" font-size="32px" font-family="Arial">Large Bold Title</text>
<path d="M0,239.6 L1240,239.6 L1240,257.6 L0,257.6 Z" fill="none"/>
<text x="0" y="257.1" fill="rgb(74, 20, 140)" font-style="italic" font-size="16px" font-family="Arial">Italic text content</text>
<path d="M0,272.6 L1240,272.6 L1240,293.6 L0,293.6 Z" fill="none"/>
<text x="0" y="293.1" fill="rgb(0, 0, 0)" font-weight="700" font-size="18px" font-family="Arial">Text Decorations</text>
<path d="M0,301.6 L1240,301.6 L1240,319.6 L0,319.6 Z" fill="none"/>
<text x="0" y="319.1" fill="rgb(183, 28, 28)" font-size="16px" font-family="Arial" text-decoration="underline">Underlined text</text>
<path d="M0,327.6 L1240,327.6 L1240,345.6 L0,345.6 Z" fill="none"/>
<text x="0" y="345.1" fill="rgb(117, 117, 117)" font-size="16px" font-family="Arial" text-decoration="line-through">Strikethrough text</text>
<path d="M0,360.6 L1240,360.6 L1240,381.6 L0,381.6 Z" fill="none"/>
<text x="0" y="381.1" fill="rgb(0, 0, 0)" font-weight="700" font-size="18px" font-family="Arial">Text Shadow</text>
<path d="M0,389.6 L1240,389.6 L1240,421.6 L0,421.6 Z" fill="none"/>
<text x="0" y="421.1" fill="rgb(30, 136, 229)" font-weight="700" font-size="28px" font-family="Arial" filter="url(#ts1)">Shadow Text</text>
<path d="M0,436.6 L1240,436.6 L1240,457.6 L0,457.6 Z" fill="none"/>
<text x="0" y="457.1" fill="rgb(0, 0, 0)" font-weight="700" font-size="18px" font-family="Arial">Text Overflow</text>
<rect x="0" y="465.6" width="200" height="34" rx="4" ry="4" fill="rgb(232, 234, 246)"/>
<text x="8" y="491.1" fill="rgb(0, 0, 0)" font-size="16px" font-family="Arial">This is a very long text…</text>
<path d="M0,514.6 L1240,514.6 L1240,535.6 L0,535.6 Z" fill="none"/>
<text x="0" y="535.1" fill="rgb(0, 0, 0)" font-weight="700" font-size="18px" font-family="Arial">Text Alignment</text>
<path d="M0,543.6 L300,543.6 L300,649.6 L0,649.6 Z" fill="rgb(232, 245, 233)" stroke="rgb(200, 230, 201)" stroke-width="1"/>
<path d="M11,558.6 L289,558.6 L289,575.6 L11,575.6 Z" fill="none"/>
<text x="207.28" y="575.1" fill="rgb(0, 0, 0)" font-size="14px" font-family="Arial">Right aligned</text>
<path d="M11,579.6 L289,579.6 L289,596.6 L11,596.6 Z" fill="none"/>
<text x="104.47" y="596.1" fill="rgb(0, 0, 0)" font-size="14px" font-family="Arial">Center aligned</text>
<path d="M11,600.6 L311,600.6 L311,634.6 L11,634.6 Z" fill="none"/>
<text x="11" y="617.1" fill="rgb(0, 0, 0)" font-size="14px" font-family="Arial">Justified text that spans across the full width of</text>
<text x="11" y="634.1" fill="rgb(0, 0, 0)" font-size="14px" font-family="Arial">the container element here.</text>
<path d="M0,664.6 L1240,664.6 L1240,685.6 L0,685.6 Z" fill="none"/>
<text x="0" y="685.1" fill="rgb(0, 0, 0)" font-weight="700" font-size="18px" font-family="Arial">Multi-column Text</text>
<path d="M0,695.6 L400,695.6 L400,789.6 L0,789.6 Z" fill="rgb(245, 245, 245)" stroke="rgb(221, 221, 221)" stroke-width="1"/>
<text x="11" y="722.6" fill="rgb(0, 0, 0)" font-size="12px" font-family="Arial">Lorem ipsum dolor sit amet,</text>
<text x="11" y="740.6" fill="rgb(0, 0, 0)" font-size="12px" font-family="Arial">consectetur adipiscing elit. Nulla</text>
<text x="11" y="758.6" fill="rgb(0, 0, 0)" font-size="12px" font-family="Arial">facilisi. Duis aute irure dolor in</text>
<text x="11" y="776.6" fill="rgb(0, 0, 0)" font-size="12px" font-family="Arial">reprehenderit in voluptate velit</text>
<text x="210" y="722.6" fill="rgb(0, 0, 0)" font-size="12px" font-family="Arial">esse cillum dolore eu fugiat nulla</text>
<text x="210" y="740.6" fill="rgb(0, 0, 0)" font-size="12px" font-family="Arial">pariatur. Excepteur sint occaecat</text>
<text x="210" y="758.6" fill="rgb(0, 0, 0)" font-size="12px" font-family="Arial">cupidatat non proident.</text>
<path d="M0,804.6 L1240,804.6 L1240,825.6 L0,825.6 Z" fill="none"/>
<text x="0" y="825.1" fill="rgb(0, 0, 0)" font-weight="700" font-size="18px" font-family="Arial">Inline Formatting</text>
<path d="M0,835.6 L1240,835.6 L1240,862.6 L0,862.6 Z" fill="none"/>
<text x="0" y="857.6" fill="rgb(0, 0, 0)" font-size="15px" font-family="Arial">This has</text>
<text x="159.3" y="857.6" fill="rgb(0, 0, 0)" font-size="15px" font-family="Arial">and</text>
<text x="255.22" y="857.6" fill="rgb(0, 0, 0)" font-size="15px" font-family="Arial">and</text>
<text x="379.25" y="857.6" fill="rgb(0, 0, 0)" font-size="15px" font-family="Arial">mixed together in a single paragraph.</text>
<path d="M60.88,840.6 L159.3,840.6 L159.3,857.6 L60.88,857.6 Z" fill="none"/>
<text x="60.88" y="857.6" fill="rgb(211, 47, 47)" font-style="italic" font-size="15px" font-family="Arial">italic emphasis</text>
<path d="M192.68,840.6 L255.22,840.6 L255.22,857.6 L192.68,857.6 Z" fill="none"/>
<text x="192.68" y="857.6" fill="rgb(21, 101, 192)" font-weight="700" font-size="15px" font-family="Arial">bold text</text>
<rect x="288.6" y="840.6" width="90.65" height="19" rx="3" ry="3" fill="rgb(38, 50, 56)"/>
<text x="294.6" y="857.6" fill="rgb(128, 203, 196)" font-size="13px" font-family="monospace">inline code</text>
<path d="M0,877.6 L1240,877.6 L1240,898.6 L0,898.6 Z" fill="none"/>
<text x="0" y="898.1" fill="rgb(0, 0, 0)" font-weight="700" font-size="18px" font-family="Arial">Multi-column Text 2</text>
<path d="M3.29,1064.9 L349.71,864.9 L396.71,946.3 L50.29,1146.3 Z" fill="rgb(245, 245, 245)" stroke="rgb(221, 221, 221)" stroke-width="1"/>
<text x="19.32" y="1082.77" fill="rgb(0, 0, 0)" font-size="12px" font-family="Arial">Lorem ipsum dolor sit amet,</text>
<text x="28.32" y="1098.37" fill="rgb(0, 0, 0)" font-size="12px" font-family="Arial">consectetur adipiscing elit. Nulla</text>
<text x="37.32" y="1113.95" fill="rgb(0, 0, 0)" font-size="12px" font-family="Arial">facilisi. Duis aute irure dolor in</text>
<text x="46.32" y="1129.53" fill="rgb(0, 0, 0)" font-size="12px" font-family="Arial">reprehenderit in voluptate velit</text>
<text x="191.67" y="983.27" fill="rgb(0, 0, 0)" font-size="12px" font-family="Arial">esse cillum dolore eu fugiat nulla</text>
<text x="200.67" y="998.87" fill="rgb(0, 0, 0)" font-size="12px" font-family="Arial">pariatur. Excepteur sint occaecat</text>
<text x="209.67" y="1014.45" fill="rgb(0, 0, 0)" font-size="12px" font-family="Arial">cupidatat non proident.</text>
</svg>