0
SECTION
2
HEADER
9
$ACADVER
1
AC1021
9
$LASTSAVEDBY
1
@tarikjabiri/dxf
9
$HANDSEED
5
4D
9
$INSUNITS
70
0
9
$CLAYER
8
0
9
$VIEWCTR
10
189.5546875
20
574.5096216842754
0
ENDSEC
0
SECTION
2
CLASSES
0
ENDSEC
0
SECTION
2
TABLES
0
TABLE
2
VPORT
5
1
330
0
100
AcDbSymbolTable
70
1
0
VPORT
5
19
330
1
100
AcDbSymbolTableRecord
100
AcDbViewportTableRecord
2
*Active
70
0
10
0
20
0
11
1
21
1
12
189.5546875
22
574.5096216842754
13
0
23
0
14
10
24
10
15
10
25
10
16
0
26
0
36
1
17
0
27
0
37
0
40
1307.9807566314491
41
2
42
50
43
0
44
0
50
0
51
0
71
0
72
100
73
1
74
3
75
0
76
1
77
0
78
0
281
0
65
1
110
0
120
0
130
0
111
1
121
0
131
0
112
0
122
1
132
0
79
0
146
0
348
10020
60
7
61
5
292
1
282
1
141
0
142
0
63
250
421
3358443
0
ENDTAB
0
TABLE
2
LTYPE
5
2
330
0
100
AcDbSymbolTable
70
3
0
LTYPE
5
12
330
2
100
AcDbSymbolTableRecord
100
AcDbLinetypeTableRecord
2
ByBlock
70
0
3

72
65
73
0
40
0
0
LTYPE
5
13
330
2
100
AcDbSymbolTableRecord
100
AcDbLinetypeTableRecord
2
ByLayer
70
0
3

72
65
73
0
40
0
0
LTYPE
5
14
330
2
100
AcDbSymbolTableRecord
100
AcDbLinetypeTableRecord
2
Continuous
70
0
3
Solid line
72
65
73
0
40
0
0
ENDTAB
0
TABLE
2
LAYER
5
3
330
0
100
AcDbSymbolTable
70
1
0
LAYER
5
15
330
3
100
AcDbSymbolTableRecord
100
AcDbLayerTableRecord
2
0
70
0
62
7
6
Continuous
370
0
390
0
0
ENDTAB
0
TABLE
2
STYLE
5
4
330
0
100
AcDbSymbolTable
70
2
0
STYLE
5
16
330
4
100
AcDbSymbolTableRecord
100
AcDbTextStyleTableRecord
2
Standard
70
0
40
0
41
1
50
0
71
0
42
1
3
txt
4

0
STYLE
5
1B
330
4
100
AcDbSymbolTableRecord
100
AcDbTextStyleTableRecord
2
Arial
70
0
40
0
41
1
50
0
71
0
42
1
3
Arial.ttf
4

0
ENDTAB
0
TABLE
2
VIEW
5
5
330
0
100
AcDbSymbolTable
70
0
0
ENDTAB
0
TABLE
2
UCS
5
6
330
0
100
AcDbSymbolTable
70
0
0
ENDTAB
0
TABLE
2
APPID
5
7
330
0
100
AcDbSymbolTable
70
1
0
APPID
5
17
330
7
100
AcDbSymbolTableRecord
100
AcDbRegAppTableRecord
2
ACAD
70
0
0
ENDTAB
0
TABLE
2
DIMSTYLE
5
8
330
0
100
AcDbSymbolTable
70
1
100
AcDbDimStyleTable
0
DIMSTYLE
105
18
330
8
100
AcDbSymbolTableRecord
100
AcDbDimStyleTableRecord
2
Standard
70
0
340
16
0
ENDTAB
0
TABLE
2
BLOCK_RECORD
5
9
330
0
100
AcDbSymbolTable
70
2
0
BLOCK_RECORD
5
C
330
9
100
AcDbSymbolTableRecord
100
AcDbBlockTableRecord
2
*Model_Space
70
0
280
1
281
0
0
BLOCK_RECORD
5
F
330
9
100
AcDbSymbolTableRecord
100
AcDbBlockTableRecord
2
*Paper_Space
70
0
280
1
281
0
0
ENDTAB
0
ENDSEC
0
SECTION
2
BLOCKS
0
BLOCK
5
D
330
C
100
AcDbEntity
8
0
100
AcDbBlockBegin
2
*Model_Space
70
0
10
0
20
0
30
0
3
*Model_Space
1

0
ENDBLK
5
E
100
AcDbEntity
8
0
100
AcDbBlockEnd
0
BLOCK
5
10
330
F
100
AcDbEntity
8
0
100
AcDbBlockBegin
2
*Paper_Space
70
0
10
0
20
0
30
0
3
*Paper_Space
1

0
ENDBLK
5
11
100
AcDbEntity
8
0
100
AcDbBlockEnd
0
ENDSEC
0
SECTION
2
ENTITIES
0
TEXT
5
1A
330
C
100
AcDbEntity
420
0
8
0
100
AcDbText
10
0
20
1128.5
30
0
40
18
1
Text Wrapping
7
Arial
100
AcDbText
0
LWPOLYLINE
5
1C
330
C
100
AcDbEntity
420
16764032
8
0
100
AcDbPolyline
90
42
70
0
43
0
38
0
39
0
10
6
20
1112
10
244
20
1112
10
244
20
1112
10
245.17054193209677
20
1111.8847116824195
10
246.29610059419053
20
1111.5432771950677
10
247.33342139811762
20
1110.9888176738152
10
248.2426406871193
20
1110.2426406871193
10
248.98881767381528
20
1109.3334213981177
10
249.54327719506773
20
1108.2961005941906
10
249.88471168241938
20
1107.1705419320967
10
250
20
1106
10
250
20
1006
10
250
20
1006
10
249.88471168241938
20
1004.8294580679033
10
249.54327719506773
20
1003.7038994058095
10
248.98881767381528
20
1002.6665786018824
10
248.2426406871193
20
1001.7573593128807
10
247.33342139811762
20
1001.0111823261848
10
246.29610059419053
20
1000.4567228049323
10
245.17054193209677
20
1000.1152883175806
10
244
20
1000
10
6
20
1000
10
6
20
1000
10
4.82945806790323
20
1000.1152883175806
10
3.7038994058094614
20
1000.4567228049323
10
2.6665786018823883
20
1001.0111823261848
10
1.7573593128807152
20
1001.7573593128807
10
1.011182326184728
20
1002.6665786018824
10
0.45672280493228
20
1003.7038994058095
10
0.11528831758061742
20
1004.8294580679033
10
0
20
1006
10
0
20
1106
10
0
20
1106
10
0.11528831758061742
20
1107.1705419320967
10
0.4567228049322791
20
1108.2961005941906
10
1.011182326184727
20
1109.3334213981177
10
1.7573593128807143
20
1110.2426406871193
10
2.666578601882387
20
1110.9888176738152
10
3.703899405809458
20
1111.5432771950677
10
4.829458067903228
20
1111.8847116824195
10
5.999999999999999
20
1112
10
6
20
1112
0
TEXT
5
1D
330
C
100
AcDbEntity
420
3355443
8
0
100
AcDbText
10
11
20
1086.50005
30
0
40
14
1
Lorem ipsum dolor sit amet,
7
Arial
100
AcDbText
0
TEXT
5
1E
330
C
100
AcDbEntity
420
3355443
8
0
100
AcDbText
10
11
20
1064.109425
30
0
40
14
1
consectetur adipiscing elit. Sed do
7
Arial
100
AcDbText
0
TEXT
5
1F
330
C
100
AcDbEntity
420
3355443
8
0
100
AcDbText
10
11
20
1041.7188
30
0
40
14
1
eiusmod tempor incididunt ut labore
7
Arial
100
AcDbText
0
TEXT
5
20
330
C
100
AcDbEntity
420
3355443
8
0
100
AcDbText
10
11
20
1019.328175
30
0
40
14
1
et dolore magna aliqua.
7
Arial
100
AcDbText
0
TEXT
5
21
330
C
100
AcDbEntity
420
0
8
0
100
AcDbText
10
0
20
970.5
30
0
40
18
1
Font Sizes & Weights
7
Arial
100
AcDbText
0
TEXT
5
22
330
C
100
AcDbEntity
420
1713022
8
0
100
AcDbText
10
0
20
925.5
30
0
40
32
1
Large Bold Title
7
Arial
100
AcDbText
0
TEXT
5
23
330
C
100
AcDbEntity
420
4854924
8
0
100
AcDbText
10
0
20
890.5
30
0
40
16
1
Italic text content
7
Arial
100
AcDbText
0
TEXT
5
24
330
C
100
AcDbEntity
420
0
8
0
100
AcDbText
10
0
20
855.5
30
0
40
18
1
Text Decorations
7
Arial
100
AcDbText
0
TEXT
5
25
330
C
100
AcDbEntity
420
12000284
8
0
100
AcDbText
10
0
20
828.5
30
0
40
16
1
Underlined text
7
Arial
100
AcDbText
0
TEXT
5
26
330
C
100
AcDbEntity
420
7697781
8
0
100
AcDbText
10
0
20
802.5
30
0
40
16
1
Strikethrough text
7
Arial
100
AcDbText
0
TEXT
5
27
330
C
100
AcDbEntity
420
0
8
0
100
AcDbText
10
0
20
767.5
30
0
40
18
1
Text Shadow
7
Arial
100
AcDbText
0
TEXT
5
28
330
C
100
AcDbEntity
420
2001125
8
0
100
AcDbText
10
0
20
730.5
30
0
40
28
1
Shadow Text
7
Arial
100
AcDbText
0
TEXT
5
29
330
C
100
AcDbEntity
420
0
8
0
100
AcDbText
10
0
20
691.5
30
0
40
18
1
Text Overflow
7
Arial
100
AcDbText
0
LWPOLYLINE
5
2A
330
C
100
AcDbEntity
420
15264502
8
0
100
AcDbPolyline
90
42
70
0
43
0
38
0
39
0
10
4
20
677
10
196
20
677
10
196
20
677
10
196.7803612880645
20
676.9231411216128
10
197.53073372946037
20
676.6955181300452
10
198.2222809320784
20
676.3258784492102
10
198.82842712474618
20
675.8284271247462
10
199.3258784492102
20
675.2222809320784
10
199.69551813004514
20
674.5307337294603
10
199.92314112161293
20
673.7803612880646
10
200
20
673
10
200
20
647
10
200
20
647
10
199.92314112161293
20
646.2196387119354
10
199.69551813004514
20
645.4692662705397
10
199.3258784492102
20
644.7777190679216
10
198.82842712474618
20
644.1715728752538
10
198.2222809320784
20
643.6741215507898
10
197.53073372946037
20
643.3044818699548
10
196.7803612880645
20
643.0768588783872
10
196
20
643
10
4
20
643
10
4
20
643
10
3.2196387119354872
20
643.0768588783872
10
2.469266270539641
20
643.3044818699548
10
1.7777190679215922
20
643.6741215507898
10
1.1715728752538102
20
644.1715728752538
10
0.6741215507898186
20
644.7777190679216
10
0.30448186995485305
20
645.4692662705397
10
0.07685887838707828
20
646.2196387119354
10
0
20
647
10
0
20
673
10
0
20
673
10
0.07685887838707828
20
673.7803612880646
10
0.3044818699548526
20
674.5307337294603
10
0.6741215507898182
20
675.2222809320784
10
1.1715728752538093
20
675.8284271247462
10
1.7777190679215913
20
676.3258784492102
10
2.469266270539639
20
676.6955181300452
10
3.2196387119354855
20
676.9231411216128
10
3.999999999999999
20
677
10
4
20
677
0
TEXT
5
2B
330
C
100
AcDbEntity
420
0
8
0
100
AcDbText
10
8
20
656.5
30
0
40
16
1
This is a very long text…
7
Arial
100
AcDbText
0
TEXT
5
2C
330
C
100
AcDbEntity
420
0
8
0
100
AcDbText
10
0
20
613.5
30
0
40
18
1
Text Alignment
7
Arial
100
AcDbText
0
LWPOLYLINE
5
2D
330
C
100
AcDbEntity
420
13166281
8
0
100
AcDbPolyline
90
5
70
0
43
0
38
0
39
0
10
0
20
599
10
300
20
599
10
300
20
497
10
0
20
497
10
0
20
599
0
TEXT
5
2E
330
C
100
AcDbEntity
420
0
8
0
100
AcDbText
10
207.265625
20
572.5
30
0
40
14
1
Right aligned
7
Arial
100
AcDbText
0
TEXT
5
2F
330
C
100
AcDbEntity
420
0
8
0
100
AcDbText
10
104.46875
20
552.5
30
0
40
14
1
Center aligned
7
Arial
100
AcDbText
0
TEXT
5
30
330
C
100
AcDbEntity
420
0
8
0
100
AcDbText
10
11
20
532.5
30
0
40
14
1
Justified text that spans across the full width of
7
Arial
100
AcDbText
0
TEXT
5
31
330
C
100
AcDbEntity
420
0
8
0
100
AcDbText
10
11
20
516.5
30
0
40
14
1
the container element here.
7
Arial
100
AcDbText
0
TEXT
5
32
330
C
100
AcDbEntity
420
0
8
0
100
AcDbText
10
0
20
467.5
30
0
40
18
1
Multi-column Text
7
Arial
100
AcDbText
0
LWPOLYLINE
5
33
330
C
100
AcDbEntity
420
14540253
8
0
100
AcDbPolyline
90
5
70
0
43
0
38
0
39
0
10
0
20
451
10
400
20
451
10
400
20
357
10
0
20
357
10
0
20
451
0
TEXT
5
34
330
C
100
AcDbEntity
420
0
8
0
100
AcDbText
10
11
20
428
30
0
40
12
1
Lorem ipsum dolor sit amet,
7
Arial
100
AcDbText
0
TEXT
5
35
330
C
100
AcDbEntity
420
0
8
0
100
AcDbText
10
11
20
410
30
0
40
12
1
consectetur adipiscing elit. Nulla
7
Arial
100
AcDbText
0
TEXT
5
36
330
C
100
AcDbEntity
420
0
8
0
100
AcDbText
10
11
20
392
30
0
40
12
1
facilisi. Duis aute irure dolor in
7
Arial
100
AcDbText
0
TEXT
5
37
330
C
100
AcDbEntity
420
0
8
0
100
AcDbText
10
11
20
374
30
0
40
12
1
reprehenderit in voluptate velit
7
Arial
100
AcDbText
0
TEXT
5
38
330
C
100
AcDbEntity
420
0
8
0
100
AcDbText
10
210
20
428
30
0
40
12
1
esse cillum dolore eu fugiat nulla
7
Arial
100
AcDbText
0
TEXT
5
39
330
C
100
AcDbEntity
420
0
8
0
100
AcDbText
10
210
20
410
30
0
40
12
1
pariatur. Excepteur sint occaecat
7
Arial
100
AcDbText
0
TEXT
5
3A
330
C
100
AcDbEntity
420
0
8
0
100
AcDbText
10
210
20
392
30
0
40
12
1
cupidatat non proident.
7
Arial
100
AcDbText
0
TEXT
5
3B
330
C
100
AcDbEntity
420
0
8
0
100
AcDbText
10
0
20
327.5
30
0
40
18
1
Inline Formatting
7
Arial
100
AcDbText
0
TEXT
5
3C
330
C
100
AcDbEntity
420
0
8
0
100
AcDbText
10
0
20
293.75
30
0
40
15
1
This has
7
Arial
100
AcDbText
0
TEXT
5
3D
330
C
100
AcDbEntity
420
0
8
0
100
AcDbText
10
159.234375
20
293.75
30
0
40
15
1
and
7
Arial
100
AcDbText
0
TEXT
5
3E
330
C
100
AcDbEntity
420
0
8
0
100
AcDbText
10
255.109375
20
293.75
30
0
40
15
1
and
7
Arial
100
AcDbText
0
TEXT
5
3F
330
C
100
AcDbEntity
420
0
8
0
100
AcDbText
10
379.109375
20
293.75
30
0
40
15
1
mixed together in a single paragraph.
7
Arial
100
AcDbText
0
TEXT
5
40
330
C
100
AcDbEntity
420
13840175
8
0
100
AcDbText
10
11.8125
20
302.25
30
0
40
15
1
italic emphasis
7
Arial
100
AcDbText
0
TEXT
5
41
330
C
100
AcDbEntity
420
1402304
8
0
100
AcDbText
10
161.75
20
302.25
30
0
40
15
1
bold text
7
Arial
100
AcDbText
0
LWPOLYLINE
5
42
330
C
100
AcDbEntity
420
2503224
8
0
100
AcDbPolyline
90
42
70
0
43
0
38
0
39
0
10
291
20
306
10
376
20
306
10
376
20
306
10
376.58527096604837
20
305.94235584120975
10
377.14805029709527
20
305.77163859753387
10
377.6667106990588
20
305.4944088369076
10
378.12132034355966
20
305.12132034355966
10
378.4944088369076
20
304.66671069905885
10
378.77163859753387
20
304.1480502970953
10
378.9423558412097
20
303.58527096604837
10
379
20
303
10
379
20
290
10
379
20
290
10
378.9423558412097
20
289.41472903395163
10
378.77163859753387
20
288.8519497029047
10
378.4944088369076
20
288.33328930094115
10
378.12132034355966
20
287.87867965644034
10
377.6667106990588
20
287.5055911630924
10
377.14805029709527
20
287.22836140246613
10
376.58527096604837
20
287.05764415879025
10
376
20
287
10
291
20
287
10
291
20
287
10
290.41472903395163
20
287.05764415879025
10
289.85194970290473
20
287.22836140246613
10
289.3332893009412
20
287.5055911630924
10
288.87867965644034
20
287.87867965644034
10
288.5055911630924
20
288.33328930094115
10
288.22836140246613
20
288.8519497029047
10
288.0576441587903
20
289.41472903395163
10
288
20
290
10
288
20
303
10
288
20
303
10
288.0576441587903
20
303.58527096604837
10
288.22836140246613
20
304.1480502970953
10
288.5055911630924
20
304.66671069905885
10
288.87867965644034
20
305.12132034355966
10
289.3332893009412
20
305.4944088369076
10
289.85194970290473
20
305.77163859753387
10
290.41472903395163
20
305.94235584120975
10
291
20
306
10
291
20
306
0
TEXT
5
43
330
C
100
AcDbEntity
420
8440772
8
0
100
AcDbText
10
248.6875
20
302.75
30
0
40
13
1
inline code
7
STANDARD
100
AcDbText
0
TEXT
5
44
330
C
100
AcDbEntity
420
0
8
0
100
AcDbText
10
0
20
254.5
30
0
40
18
1
Multi-column Text 2
7
Arial
100
AcDbText
0
LWPOLYLINE
5
45
330
C
100
AcDbEntity
420
14540253
8
0
100
AcDbPolyline
90
5
70
0
43
0
38
0
39
0
10
3.294919243112247
20
81.70319397786852
10
349.70508075688775
20
281.7031939778685
10
396.70508075688775
20
200.29680602213125
10
50.29491924311225
20
0.29680602213124985
10
3.294919243112247
20
81.70319397786852
0
TEXT
5
46
330
C
100
AcDbEntity
420
0
8
0
100
AcDbText
10
24.32116008822045
20
67.28462065369854
30
0
40
12
1
Lorem ipsum dolor sit amet,
50
29.999999999999993
7
Arial
100
AcDbText
0
TEXT
5
47
330
C
100
AcDbEntity
420
0
8
0
100
AcDbText
10
33.32121283233051
20
51.69621103261443
30
0
40
12
1
consectetur adipiscing elit. Nulla
50
30.000000000000004
7
Arial
100
AcDbText
0
TEXT
5
48
330
C
100
AcDbEntity
420
0
8
0
100
AcDbText
10
42.32121256612932
20
36.10770959497813
30
0
40
12
1
facilisi. Duis aute irure dolor in
50
29.999999999999964
7
Arial
100
AcDbText
0
TEXT
5
49
330
C
100
AcDbEntity
420
0
8
0
100
AcDbText
10
51.3211621518015
20
20.51924336855086
30
0
40
12
1
reprehenderit in voluptate velit
50
30.000000000000018
7
Arial
100
AcDbText
0
TEXT
5
4A
330
C
100
AcDbEntity
420
0
8
0
100
AcDbText
10
196.6602643548439
20
166.78465310365448
30
0
40
12
1
esse cillum dolore eu fugiat nulla
50
29.99999999999997
7
Arial
100
AcDbText
0
TEXT
5
4B
330
C
100
AcDbEntity
420
0
8
0
100
AcDbText
10
205.66023483588975
20
151.1961620339199
30
0
40
12
1
pariatur. Excepteur sint occaecat
50
29.999999999999996
7
Arial
100
AcDbText
0
TEXT
5
4C
330
C
100
AcDbEntity
420
0
8
0
100
AcDbText
10
214.6602623145181
20
135.60770865173788
30
0
40
12
1
cupidatat non proident.
50
30.000000000000018
7
Arial
100
AcDbText
0
ENDSEC
0
SECTION
2
OBJECTS
0
DICTIONARY
5
A
330
0
100
AcDbDictionary
281
1
3
ACAD_GROUP
350
B
0
DICTIONARY
5
B
330
A
100
AcDbDictionary
281
0
0
ENDSEC
0
EOF