0
SECTION
2
HEADER
9
$ACADVER
1
AC1021
9
$LASTSAVEDBY
1
@tarikjabiri/dxf
9
$HANDSEED
5
43
9
$INSUNITS
70
0
9
$CLAYER
8
0
9
$VIEWCTR
10
189.5546875
20
422
0
ENDSEC
0
SECTION
2
CLASSES
0
ENDSEC
0
SECTION
2
TABLES
0
TABLE
2
VPORT
5
1
330
0
100
AcDbSymbolTable
70
1
0
VPORT
5
19
330
1
100
AcDbSymbolTableRecord
100
AcDbViewportTableRecord
2
*Active
70
0
10
0
20
0
11
1
21
1
12
189.5546875
22
422
13
0
23
0
14
10
24
10
15
10
25
10
16
0
26
0
36
1
17
0
27
0
37
0
40
1034
41
2
42
50
43
0
44
0
50
0
51
0
71
0
72
100
73
1
74
3
75
0
76
1
77
0
78
0
281
0
65
1
110
0
120
0
130
0
111
1
121
0
131
0
112
0
122
1
132
0
79
0
146
0
348
10020
60
7
61
5
292
1
282
1
141
0
142
0
63
250
421
3358443
0
ENDTAB
0
TABLE
2
LTYPE
5
2
330
0
100
AcDbSymbolTable
70
3
0
LTYPE
5
12
330
2
100
AcDbSymbolTableRecord
100
AcDbLinetypeTableRecord
2
ByBlock
70
0
3

72
65
73
0
40
0
0
LTYPE
5
13
330
2
100
AcDbSymbolTableRecord
100
AcDbLinetypeTableRecord
2
ByLayer
70
0
3

72
65
73
0
40
0
0
LTYPE
5
14
330
2
100
AcDbSymbolTableRecord
100
AcDbLinetypeTableRecord
2
Continuous
70
0
3
Solid line
72
65
73
0
40
0
0
ENDTAB
0
TABLE
2
LAYER
5
3
330
0
100
AcDbSymbolTable
70
1
0
LAYER
5
15
330
3
100
AcDbSymbolTableRecord
100
AcDbLayerTableRecord
2
0
70
0
62
7
6
Continuous
370
0
390
0
0
ENDTAB
0
TABLE
2
STYLE
5
4
330
0
100
AcDbSymbolTable
70
1
0
STYLE
5
16
330
4
100
AcDbSymbolTableRecord
100
AcDbTextStyleTableRecord
2
Standard
70
0
40
0
41
1
50
0
71
0
42
1
3
txt
4

0
ENDTAB
0
TABLE
2
VIEW
5
5
330
0
100
AcDbSymbolTable
70
0
0
ENDTAB
0
TABLE
2
UCS
5
6
330
0
100
AcDbSymbolTable
70
0
0
ENDTAB
0
TABLE
2
APPID
5
7
330
0
100
AcDbSymbolTable
70
1
0
APPID
5
17
330
7
100
AcDbSymbolTableRecord
100
AcDbRegAppTableRecord
2
ACAD
70
0
0
ENDTAB
0
TABLE
2
DIMSTYLE
5
8
330
0
100
AcDbSymbolTable
70
1
100
AcDbDimStyleTable
0
DIMSTYLE
105
18
330
8
100
AcDbSymbolTableRecord
100
AcDbDimStyleTableRecord
2
Standard
70
0
340
16
0
ENDTAB
0
TABLE
2
BLOCK_RECORD
5
9
330
0
100
AcDbSymbolTable
70
2
0
BLOCK_RECORD
5
C
330
9
100
AcDbSymbolTableRecord
100
AcDbBlockTableRecord
2
*Model_Space
70
0
280
1
281
0
0
BLOCK_RECORD
5
F
330
9
100
AcDbSymbolTableRecord
100
AcDbBlockTableRecord
2
*Paper_Space
70
0
280
1
281
0
0
ENDTAB
0
ENDSEC
0
SECTION
2
BLOCKS
0
BLOCK
5
D
330
C
100
AcDbEntity
8
0
100
AcDbBlockBegin
2
*Model_Space
70
0
10
0
20
0
30
0
3
*Model_Space
1

0
ENDBLK
5
E
100
AcDbEntity
8
0
100
AcDbBlockEnd
0
BLOCK
5
10
330
F
100
AcDbEntity
8
0
100
AcDbBlockBegin
2
*Paper_Space
70
0
10
0
20
0
30
0
3
*Paper_Space
1

0
ENDBLK
5
11
100
AcDbEntity
8
0
100
AcDbBlockEnd
0
ENDSEC
0
SECTION
2
ENTITIES
0
TEXT
5
1A
330
C
100
AcDbEntity
420
0
8
0
100
AcDbText
10
0
20
839
30
0
40
20
1
Text Wrapping
7
STANDARD
100
AcDbText
0
LWPOLYLINE
5
1B
330
C
100
AcDbEntity
420
16764032
8
0
100
AcDbPolyline
90
42
70
0
43
0
38
0
39
0
10
6
20
828
10
244
20
828
10
244
20
828
10
245.17054193209677
20
827.8847116824194
10
246.29610059419053
20
827.5432771950677
10
247.33342139811762
20
826.9888176738152
10
248.2426406871193
20
826.2426406871193
10
248.98881767381528
20
825.3334213981176
10
249.54327719506773
20
824.2961005941905
10
249.88471168241938
20
823.1705419320967
10
250
20
822
10
250
20
722
10
250
20
722
10
249.88471168241938
20
720.8294580679033
10
249.54327719506773
20
719.7038994058095
10
248.98881767381528
20
718.6665786018824
10
248.2426406871193
20
717.7573593128807
10
247.33342139811762
20
717.0111823261848
10
246.29610059419053
20
716.4567228049323
10
245.17054193209677
20
716.1152883175806
10
244
20
716
10
6
20
716
10
6
20
716
10
4.82945806790323
20
716.1152883175806
10
3.7038994058094614
20
716.4567228049323
10
2.6665786018823883
20
717.0111823261848
10
1.7573593128807152
20
717.7573593128807
10
1.011182326184728
20
718.6665786018824
10
0.45672280493228
20
719.7038994058095
10
0.11528831758061742
20
720.8294580679033
10
0
20
722
10
0
20
822
10
0
20
822
10
0.11528831758061742
20
823.1705419320967
10
0.4567228049322791
20
824.2961005941905
10
1.011182326184727
20
825.3334213981176
10
1.7573593128807143
20
826.2426406871193
10
2.666578601882387
20
826.9888176738152
10
3.703899405809458
20
827.5432771950677
10
4.829458067903228
20
827.8847116824194
10
5.999999999999999
20
828
10
6
20
828
0
TEXT
5
1C
330
C
100
AcDbEntity
420
3355443
8
0
100
AcDbText
10
11
20
798
30
0
40
16
1
Lorem ipsum dolor sit amet,
7
STANDARD
100
AcDbText
0
TEXT
5
1D
330
C
100
AcDbEntity
420
3355443
8
0
100
AcDbText
10
11
20
775.609375
30
0
40
16
1
consectetur adipiscing elit. Sed do
7
STANDARD
100
AcDbText
0
TEXT
5
1E
330
C
100
AcDbEntity
420
3355443
8
0
100
AcDbText
10
11
20
753.21875
30
0
40
16
1
eiusmod tempor incididunt ut labore
7
STANDARD
100
AcDbText
0
TEXT
5
1F
330
C
100
AcDbEntity
420
3355443
8
0
100
AcDbText
10
11
20
730.828125
30
0
40
16
1
et dolore magna aliqua.
7
STANDARD
100
AcDbText
0
TEXT
5
20
330
C
100
AcDbEntity
420
0
8
0
100
AcDbText
10
0
20
681
30
0
40
20
1
Font Sizes & Weights
7
STANDARD
100
AcDbText
0
TEXT
5
21
330
C
100
AcDbEntity
420
1713022
8
0
100
AcDbText
10
0
20
627
30
0
40
45
1
Large Bold Title
7
STANDARD
100
AcDbText
0
TEXT
5
22
330
C
100
AcDbEntity
420
4854924
8
0
100
AcDbText
10
0
20
602
30
0
40
17
1
Italic text content
7
STANDARD
100
AcDbText
0
TEXT
5
23
330
C
100
AcDbEntity
420
0
8
0
100
AcDbText
10
0
20
566
30
0
40
20
1
Text Decorations
7
STANDARD
100
AcDbText
0
TEXT
5
24
330
C
100
AcDbEntity
420
12000284
8
0
100
AcDbText
10
0
20
540
30
0
40
17
1
Underlined text
7
STANDARD
100
AcDbText
0
TEXT
5
25
330
C
100
AcDbEntity
420
7697781
8
0
100
AcDbText
10
0
20
514
30
0
40
17
1
Strikethrough text
7
STANDARD
100
AcDbText
0
TEXT
5
26
330
C
100
AcDbEntity
420
0
8
0
100
AcDbText
10
0
20
478
30
0
40
20
1
Text Shadow
7
STANDARD
100
AcDbText
0
TEXT
5
27
330
C
100
AcDbEntity
420
2001125
8
0
100
AcDbText
10
0
20
438
30
0
40
31
1
Shadow Text
7
STANDARD
100
AcDbText
0
TEXT
5
28
330
C
100
AcDbEntity
420
0
8
0
100
AcDbText
10
0
20
402
30
0
40
20
1
Text Overflow
7
STANDARD
100
AcDbText
0
LWPOLYLINE
5
29
330
C
100
AcDbEntity
420
0
8
0
100
AcDbPolyline
90
42
70
0
43
0
38
0
39
0
10
4
20
393
10
196
20
393
10
196
20
393
10
196.7803612880645
20
392.9231411216129
10
197.53073372946037
20
392.6955181300452
10
198.2222809320784
20
392.32587844921017
10
198.82842712474618
20
391.8284271247462
10
199.3258784492102
20
391.22228093207843
10
199.69551813004514
20
390.53073372946034
10
199.92314112161293
20
389.7803612880645
10
200
20
389
10
200
20
363
10
200
20
363
10
199.92314112161293
20
362.2196387119355
10
199.69551813004514
20
361.46926627053966
10
199.3258784492102
20
360.77771906792157
10
198.82842712474618
20
360.1715728752538
10
198.2222809320784
20
359.67412155078983
10
197.53073372946037
20
359.3044818699548
10
196.7803612880645
20
359.0768588783871
10
196
20
359
10
4
20
359
10
4
20
359
10
3.2196387119354872
20
359.0768588783871
10
2.469266270539641
20
359.3044818699548
10
1.7777190679215922
20
359.67412155078983
10
1.1715728752538102
20
360.1715728752538
10
0.6741215507898186
20
360.77771906792157
10
0.30448186995485305
20
361.46926627053966
10
0.07685887838707828
20
362.2196387119355
10
0
20
363
10
0
20
389
10
0
20
389
10
0.07685887838707828
20
389.7803612880645
10
0.3044818699548526
20
390.53073372946034
10
0.6741215507898182
20
391.22228093207843
10
1.1715728752538093
20
391.8284271247462
10
1.7777190679215913
20
392.32587844921017
10
2.469266270539639
20
392.6955181300452
10
3.2196387119354855
20
392.9231411216129
10
3.999999999999999
20
393
10
4
20
393
0
TEXT
5
2A
330
C
100
AcDbEntity
420
0
8
0
100
AcDbText
10
8
20
368
30
0
40
17
1
This is a very long text that should be truncated with an ellipsis at the end
7
STANDARD
100
AcDbText
0
TEXT
5
2B
330
C
100
AcDbEntity
420
0
8
0
100
AcDbText
10
0
20
324
30
0
40
20
1
Text Alignment
7
STANDARD
100
AcDbText
0
LWPOLYLINE
5
2C
330
C
100
AcDbEntity
420
13166281
8
0
100
AcDbPolyline
90
5
70
0
43
0
38
0
39
0
10
0
20
315
10
300
20
315
10
300
20
213
10
0
20
213
10
0
20
315
0
TEXT
5
2D
330
C
100
AcDbEntity
420
0
8
0
100
AcDbText
10
207.265625
20
284
30
0
40
16
1
Right aligned
7
STANDARD
100
AcDbText
0
TEXT
5
2E
330
C
100
AcDbEntity
420
0
8
0
100
AcDbText
10
104.46875
20
264
30
0
40
16
1
Center aligned
7
STANDARD
100
AcDbText
0
TEXT
5
2F
330
C
100
AcDbEntity
420
0
8
0
100
AcDbText
10
11
20
244
30
0
40
16
1
Justified text that spans across the full width of
7
STANDARD
100
AcDbText
0
TEXT
5
30
330
C
100
AcDbEntity
420
0
8
0
100
AcDbText
10
11
20
228
30
0
40
16
1
the container element here.
7
STANDARD
100
AcDbText
0
TEXT
5
31
330
C
100
AcDbEntity
420
0
8
0
100
AcDbText
10
0
20
178
30
0
40
20
1
Multi-column Text
7
STANDARD
100
AcDbText
0
LWPOLYLINE
5
32
330
C
100
AcDbEntity
420
14540253
8
0
100
AcDbPolyline
90
5
70
0
43
0
38
0
39
0
10
0
20
167
10
400
20
167
10
400
20
73
10
0
20
73
10
0
20
167
0
TEXT
5
33
330
C
100
AcDbEntity
420
0
8
0
100
AcDbText
10
11
20
140
30
0
40
14
1
Lorem ipsum dolor sit amet,
7
STANDARD
100
AcDbText
0
TEXT
5
34
330
C
100
AcDbEntity
420
0
8
0
100
AcDbText
10
11
20
122
30
0
40
14
1
consectetur adipiscing elit. Nulla
7
STANDARD
100
AcDbText
0
TEXT
5
35
330
C
100
AcDbEntity
420
0
8
0
100
AcDbText
10
11
20
104
30
0
40
14
1
facilisi. Duis aute irure dolor in
7
STANDARD
100
AcDbText
0
TEXT
5
36
330
C
100
AcDbEntity
420
0
8
0
100
AcDbText
10
11
20
86
30
0
40
14
1
reprehenderit in voluptate velit
7
STANDARD
100
AcDbText
0
TEXT
5
37
330
C
100
AcDbEntity
420
0
8
0
100
AcDbText
10
210
20
140
30
0
40
14
1
esse cillum dolore eu fugiat nulla
7
STANDARD
100
AcDbText
0
TEXT
5
38
330
C
100
AcDbEntity
420
0
8
0
100
AcDbText
10
210
20
122
30
0
40
14
1
pariatur. Excepteur sint occaecat
7
STANDARD
100
AcDbText
0
TEXT
5
39
330
C
100
AcDbEntity
420
0
8
0
100
AcDbText
10
210
20
104
30
0
40
14
1
cupidatat non proident.
7
STANDARD
100
AcDbText
0
TEXT
5
3A
330
C
100
AcDbEntity
420
0
8
0
100
AcDbText
10
0
20
38
30
0
40
20
1
Inline Formatting
7
STANDARD
100
AcDbText
0
TEXT
5
3B
330
C
100
AcDbEntity
420
0
8
0
100
AcDbText
10
0
20
5
30
0
40
17
1
This has
7
STANDARD
100
AcDbText
0
TEXT
5
3C
330
C
100
AcDbEntity
420
0
8
0
100
AcDbText
10
159.234375
20
5
30
0
40
17
1
and
7
STANDARD
100
AcDbText
0
TEXT
5
3D
330
C
100
AcDbEntity
420
0
8
0
100
AcDbText
10
255.109375
20
5
30
0
40
17
1
and
7
STANDARD
100
AcDbText
0
TEXT
5
3E
330
C
100
AcDbEntity
420
0
8
0
100
AcDbText
10
379.109375
20
5
30
0
40
17
1
mixed together in a single paragraph.
7
STANDARD
100
AcDbText
0
TEXT
5
3F
330
C
100
AcDbEntity
420
13840175
8
0
100
AcDbText
10
61
20
5
30
0
40
17
1
italic emphasis
7
STANDARD
100
AcDbText
0
TEXT
5
40
330
C
100
AcDbEntity
420
1402304
8
0
100
AcDbText
10
193
20
5
30
0
40
17
1
bold text
7
STANDARD
100
AcDbText
0
LWPOLYLINE
5
41
330
C
100
AcDbEntity
420
8440772
8
0
100
AcDbPolyline
90
42
70
0
43
0
38
0
39
0
10
291
20
22
10
376
20
22
10
376
20
22
10
376.58527096604837
20
21.942355841209746
10
377.14805029709527
20
21.771638597533865
10
377.6667106990588
20
21.49440883690761
10
378.12132034355966
20
21.12132034355966
10
378.4944088369076
20
20.666710699058854
10
378.77163859753387
20
20.148050297095324
10
378.9423558412097
20
19.58527096604837
10
379
20
19
10
379
20
6
10
379
20
6
10
378.9423558412097
20
5.41472903395163
10
378.77163859753387
20
4.851949702904676
10
378.4944088369076
20
4.333289300941146
10
378.12132034355966
20
3.8786796564403403
10
377.6667106990588
20
3.50559116309239
10
377.14805029709527
20
3.2283614024661347
10
376.58527096604837
20
3.0576441587902536
10
376
20
3
10
291
20
3
10
291
20
3
10
290.41472903395163
20
3.0576441587902536
10
289.85194970290473
20
3.2283614024661347
10
289.3332893009412
20
3.50559116309239
10
288.87867965644034
20
3.8786796564403403
10
288.5055911630924
20
4.333289300941146
10
288.22836140246613
20
4.851949702904676
10
288.0576441587903
20
5.41472903395163
10
288
20
6
10
288
20
19
10
288
20
19
10
288.0576441587903
20
19.58527096604837
10
288.22836140246613
20
20.148050297095324
10
288.5055911630924
20
20.666710699058854
10
288.87867965644034
20
21.12132034355966
10
289.3332893009412
20
21.49440883690761
10
289.85194970290473
20
21.771638597533865
10
290.41472903395163
20
21.942355841209746
10
291
20
22
10
291
20
22
0
TEXT
5
42
330
C
100
AcDbEntity
420
8440772
8
0
100
AcDbText
10
294
20
5
30
0
40
15
1
inline code
7
STANDARD
100
AcDbText
0
ENDSEC
0
SECTION
2
OBJECTS
0
DICTIONARY
5
A
330
0
100
AcDbDictionary
281
1
3
ACAD_GROUP
350
B
0
DICTIONARY
5
B
330
A
100
AcDbDictionary
281
0
0
ENDSEC
0
EOF