0
SECTION
2
HEADER
9
$ACADVER
1
AC1021
9
$LASTSAVEDBY
1
@tarikjabiri/dxf
9
$HANDSEED
5
28
9
$INSUNITS
70
0
9
$CLAYER
8
0
9
$VIEWCTR
10
553.6433822100299
20
394.0000000000001
0
ENDSEC
0
SECTION
2
CLASSES
0
ENDSEC
0
SECTION
2
TABLES
0
TABLE
2
VPORT
5
1
330
0
100
AcDbSymbolTable
70
1
0
VPORT
5
19
330
1
100
AcDbSymbolTableRecord
100
AcDbViewportTableRecord
2
*Active
70
0
10
0
20
0
11
1
21
1
12
553.6433822100299
22
394.0000000000001
13
0
23
0
14
10
24
10
15
10
25
10
16
0
26
0
36
1
17
0
27
0
37
0
40
1305.4264711598807
41
2
42
50
43
0
44
0
50
0
51
0
71
0
72
100
73
1
74
3
75
0
76
1
77
0
78
0
281
0
65
1
110
0
120
0
130
0
111
1
121
0
131
0
112
0
122
1
132
0
79
0
146
0
348
10020
60
7
61
5
292
1
282
1
141
0
142
0
63
250
421
3358443
0
ENDTAB
0
TABLE
2
LTYPE
5
2
330
0
100
AcDbSymbolTable
70
3
0
LTYPE
5
12
330
2
100
AcDbSymbolTableRecord
100
AcDbLinetypeTableRecord
2
ByBlock
70
0
3

72
65
73
0
40
0
0
LTYPE
5
13
330
2
100
AcDbSymbolTableRecord
100
AcDbLinetypeTableRecord
2
ByLayer
70
0
3

72
65
73
0
40
0
0
LTYPE
5
14
330
2
100
AcDbSymbolTableRecord
100
AcDbLinetypeTableRecord
2
Continuous
70
0
3
Solid line
72
65
73
0
40
0
0
ENDTAB
0
TABLE
2
LAYER
5
3
330
0
100
AcDbSymbolTable
70
1
0
LAYER
5
15
330
3
100
AcDbSymbolTableRecord
100
AcDbLayerTableRecord
2
0
70
0
62
7
6
Continuous
370
0
390
0
0
ENDTAB
0
TABLE
2
STYLE
5
4
330
0
100
AcDbSymbolTable
70
2
0
STYLE
5
16
330
4
100
AcDbSymbolTableRecord
100
AcDbTextStyleTableRecord
2
Standard
70
0
40
0
41
1
50
0
71
0
42
1
3
txt
4

0
STYLE
5
1D
330
4
100
AcDbSymbolTableRecord
100
AcDbTextStyleTableRecord
2
Segoe UI
70
0
40
0
41
1
50
0
71
0
42
1
3
Segoe UI.ttf
4

0
ENDTAB
0
TABLE
2
VIEW
5
5
330
0
100
AcDbSymbolTable
70
0
0
ENDTAB
0
TABLE
2
UCS
5
6
330
0
100
AcDbSymbolTable
70
0
0
ENDTAB
0
TABLE
2
APPID
5
7
330
0
100
AcDbSymbolTable
70
1
0
APPID
5
17
330
7
100
AcDbSymbolTableRecord
100
AcDbRegAppTableRecord
2
ACAD
70
0
0
ENDTAB
0
TABLE
2
DIMSTYLE
5
8
330
0
100
AcDbSymbolTable
70
1
100
AcDbDimStyleTable
0
DIMSTYLE
105
18
330
8
100
AcDbSymbolTableRecord
100
AcDbDimStyleTableRecord
2
Standard
70
0
340
16
0
ENDTAB
0
TABLE
2
BLOCK_RECORD
5
9
330
0
100
AcDbSymbolTable
70
2
0
BLOCK_RECORD
5
C
330
9
100
AcDbSymbolTableRecord
100
AcDbBlockTableRecord
2
*Model_Space
70
0
280
1
281
0
0
BLOCK_RECORD
5
F
330
9
100
AcDbSymbolTableRecord
100
AcDbBlockTableRecord
2
*Paper_Space
70
0
280
1
281
0
0
ENDTAB
0
ENDSEC
0
SECTION
2
BLOCKS
0
BLOCK
5
D
330
C
100
AcDbEntity
8
0
100
AcDbBlockBegin
2
*Model_Space
70
0
10
0
20
0
30
0
3
*Model_Space
1

0
ENDBLK
5
E
100
AcDbEntity
8
0
100
AcDbBlockEnd
0
BLOCK
5
10
330
F
100
AcDbEntity
8
0
100
AcDbBlockBegin
2
*Paper_Space
70
0
10
0
20
0
30
0
3
*Paper_Space
1

0
ENDBLK
5
11
100
AcDbEntity
8
0
100
AcDbBlockEnd
0
ENDSEC
0
SECTION
2
ENTITIES
0
LWPOLYLINE
5
1A
330
C
100
AcDbEntity
420
3965183
8
0
100
AcDbPolyline
90
5
70
0
43
0
38
0
39
0
10
0
20
720
10
1280
20
720
10
1280
20
0
10
0
20
0
10
0
20
720
0
LWPOLYLINE
5
1B
330
C
100
AcDbEntity
420
16777215
8
0
100
AcDbPolyline
90
42
70
0
43
0
38
0
39
0
10
284
20
578
10
996
20
578
10
996
20
578
10
1001.4625290164516
20
577.4619878512905
10
1006.7151361062225
20
575.868626910316
10
1011.5559665245489
20
573.2811491444713
10
1015.7989898732234
20
569.7989898732233
10
1019.2811491444712
20
565.5559665245489
10
1021.868626910316
20
560.7151361062225
10
1023.4619878512905
20
555.4625290164515
10
1024
20
550
10
1024
20
169
10
1024
20
169
10
1023.4619878512905
20
163.53747098354836
10
1021.868626910316
20
158.28486389377747
10
1019.2811491444712
20
153.4440334754512
10
1015.7989898732234
20
149.20101012677662
10
1011.5559665245489
20
145.71885085552879
10
1006.7151361062225
20
143.13137308968396
10
1001.4625290164516
20
141.53801214870953
10
996
20
141
10
284
20
141
10
284
20
141
10
278.5374709835484
20
141.53801214870953
10
273.28486389377747
20
143.13137308968396
10
268.44403347545114
20
145.71885085552867
10
264.2010101267767
20
149.20101012677662
10
260.71885085552873
20
153.4440334754512
10
258.13137308968396
20
158.28486389377747
10
256.5380121487095
20
163.53747098354836
10
256
20
169
10
256
20
550
10
256
20
550
10
256.5380121487095
20
555.4625290164515
10
258.13137308968396
20
560.7151361062225
10
260.71885085552873
20
565.5559665245489
10
264.2010101267767
20
569.7989898732233
10
268.44403347545114
20
573.2811491444713
10
273.28486389377747
20
575.868626910316
10
278.5374709835484
20
577.4619878512905
10
284
20
578
10
284
20
578
0
TEXT
5
1C
330
C
100
AcDbEntity
420
3496586
8
0
100
AcDbText
10
280
20
542
30
0
40
12
1
MEDIA EXPORT
7
Segoe UI
100
AcDbText
0
TEXT
5
1E
330
C
100
AcDbEntity
420
1057082
8
0
100
AcDbText
10
280
20
500.34375
30
0
40
34
1
First-frame video export
7
Segoe UI
100
AcDbText
0
TEXT
5
1F
330
C
100
AcDbEntity
420
3690607
8
0
100
AcDbText
10
280
20
466.5
30
0
40
16
1
This demo generates a short clip in the browser and keeps the first decoded frame available for
7
Segoe UI
100
AcDbText
0
TEXT
5
20
330
C
100
AcDbEntity
420
3690607
8
0
100
AcDbText
10
280
20
442.5
30
0
40
16
1
export.
7
Segoe UI
100
AcDbText
0
LWPOLYLINE
5
21
330
C
100
AcDbEntity
420
726826
8
0
100
AcDbPolyline
90
42
70
0
43
0
38
0
39
0
10
302
20
412
10
978
20
412
10
978
20
412
10
982.2919870843548
20
411.5772761688711
10
986.419035512032
20
410.3253497152483
10
990.2225451264312
20
408.292331470656
10
993.5563491861041
20
405.55634918610406
10
996.292331470656
20
402.22254512643127
10
998.3253497152483
20
398.419035512032
10
999.5772761688711
20
394.29198708435484
10
1000
20
390
10
1000
20
187
10
1000
20
187
10
999.5772761688711
20
182.7080129156452
10
998.3253497152483
20
178.580964487968
10
996.292331470656
20
174.7774548735688
10
993.5563491861041
20
171.44365081389594
10
990.2225451264312
20
168.707668529344
10
986.419035512032
20
166.6746502847517
10
982.2919870843548
20
165.4227238311289
10
978
20
165
10
302
20
165
10
302
20
165
10
297.70801291564516
20
165.4227238311289
10
293.580964487968
20
166.6746502847517
10
289.7774548735688
20
168.707668529344
10
286.44365081389594
20
171.44365081389594
10
283.707668529344
20
174.7774548735688
10
281.6746502847517
20
178.580964487968
10
280.4227238311289
20
182.7080129156452
10
280
20
187
10
280
20
390
10
280
20
390
10
280.4227238311289
20
394.29198708435484
10
281.6746502847517
20
398.419035512032
10
283.707668529344
20
402.2225451264312
10
286.44365081389594
20
405.55634918610406
10
289.77745487356873
20
408.292331470656
10
293.580964487968
20
410.3253497152483
10
297.70801291564516
20
411.5772761688711
10
302
20
412
10
302
20
412
0
LWPOLYLINE
5
22
330
C
100
AcDbEntity
420
593948
8
0
100
AcDbPolyline
90
42
70
0
43
0
38
0
39
0
10
498
20
394
10
782
20
394
10
782
20
394
10
785.5116257962903
20
393.65413504725814
10
788.8883017825716
20
392.62983158520314
10
792.0002641943529
20
390.96645302144583
10
794.7279220613578
20
388.72792206135784
10
796.9664530214458
20
386.00026419435284
10
798.6298315852032
20
382.8883017825716
10
799.6541350472581
20
379.51162579629033
10
800
20
376
10
800
20
232
10
800
20
232
10
799.6541350472581
20
228.48837420370967
10
798.6298315852032
20
225.1116982174284
10
796.9664530214458
20
221.99973580564716
10
794.7279220613578
20
219.27207793864216
10
792.0002641943529
20
217.03354697855417
10
788.8883017825716
20
215.37016841479686
10
785.5116257962903
20
214.34586495274186
10
782
20
214
10
498
20
214
10
498
20
214
10
494.48837420370967
20
214.34586495274186
10
491.1116982174284
20
215.37016841479686
10
487.99973580564716
20
217.03354697855417
10
485.27207793864216
20
219.27207793864216
10
483.03354697855417
20
221.99973580564716
10
481.37016841479686
20
225.1116982174284
10
480.34586495274186
20
228.48837420370967
10
480
20
232
10
480
20
376
10
480
20
376
10
480.34586495274186
20
379.51162579629033
10
481.3701684147968
20
382.8883017825716
10
483.03354697855417
20
386.00026419435284
10
485.27207793864216
20
388.72792206135784
10
487.99973580564716
20
390.96645302144583
10
491.1116982174284
20
392.62983158520314
10
494.48837420370967
20
393.65413504725814
10
498
20
394
10
498
20
394
0
IMAGE
5
24
330
C
100
AcDbEntity
8
0
100
AcDbRasterImage
90
0
10
480
20
394
30
0
11
1
21
0
31
0
12
0
22
1
32
0
13
320
23
180
340
23
70
3
280
1
281
50
282
50
283
0
360
25
71
1
91
2
14
-0.5
24
-0.5
14
319.5
24
179.5
290
1
0
TEXT
5
27
330
C
100
AcDbEntity
420
10203855
8
0
100
AcDbText
10
574.078125
20
188.25
30
0
40
13
1
Video ready for export.
7
Segoe UI
100
AcDbText
0
ENDSEC
0
SECTION
2
OBJECTS
0
DICTIONARY
5
A
330
0
100
AcDbDictionary
281
1
3
ACAD_GROUP
350
B
3
ACAD_IMAGE_DICT
350
26
0
DICTIONARY
5
B
330
A
100
AcDbDictionary
281
0
0
IMAGEDEF
5
23
330
26
102
{ACAD_REACTORS
330
26
330
25
102
}
100
AcDbRasterImageDef
1
images/image1.jpg
10
320
20
180
11
1
21
1
280
1
281
0
0
IMAGEDEF_REACTOR
5
25
330
0
100
AcDbRasterImageDefReactor
90
2
330
24
0
DICTIONARY
5
26
330
A
100
AcDbDictionary
281
0
3
image1
350
23
0
ENDSEC
0
EOF