<?xml version="1.0" encoding="UTF-8" standalone="no"?>
<!DOCTYPE svg PUBLIC "-//W3C//DTD SVG 1.1//EN" "http://www.w3.org/Graphics/SVG/1.1/DTD/svg11.dtd">
<svg width="100%" height="100%" viewBox="0 0 30 20" preserveAspectRatio="none" version="1.1" xmlns="http://www.w3.org/2000/svg" xmlns:xlink="http://www.w3.org/1999/xlink" xml:space="preserve" xmlns:serif="http://www.serif.com/" style="fill-rule:evenodd;clip-rule:evenodd;stroke-linejoin:round;stroke-miterlimit:2;">
    <g transform="matrix(2.82264e-05,0.0436154,-0.0404038,2.6148e-05,19.2437,-3.22863)">
        <path d="M303.131,100.529C398.037,100.529 475.088,183.705 475.088,286.155C475.088,388.605 398.037,471.781 303.131,471.781C208.224,471.781 131.173,388.605 131.173,286.155C131.173,183.705 208.224,100.529 303.131,100.529ZM195.831,410.76C223.978,439.019 261.698,456.312 303.131,456.312C345.59,456.312 384.151,438.151 412.505,408.638L411.841,407.977C415.284,404.4 418.577,400.656 421.708,396.757L422.362,397.409C446.281,367.57 460.758,328.673 460.758,286.155C460.758,243.637 446.281,204.741 422.362,174.902L422.196,175.067C419.083,171.152 415.807,167.391 412.38,163.797L412.505,163.672C402.24,152.988 390.638,143.791 377.997,136.406C355.591,123.186 329.888,115.661 302.567,115.642C215.547,115.581 144.853,191.69 144.796,285.496C144.767,335.032 164.441,379.66 195.831,410.76Z" style="fill:rgb(6,0,0);"/>
    </g>
    <g transform="matrix(1.19984,0,0,3.73306,-4.23545,-31.7361)">
        <path d="M17.019,10.214L17.019,10.033L27.284,10.033L24.999,9.299L25.397,9.171L28.36,10.123L25.397,11.076L24.999,10.948L27.284,10.214L17.019,10.214Z"/>
    </g>
    <g transform="matrix(-1.19984,0,0,3.73306,50.2125,-23.8467)">
        <path d="M17.019,10.214L17.019,10.033L27.284,10.033L24.999,9.299L25.397,9.171L28.36,10.123L25.397,11.076L24.999,10.948L27.284,10.214L17.019,10.214Z"/>
    </g>
</svg>
