0
SECTION
2
HEADER
9
$ACADVER
1
AC1021
9
$LASTSAVEDBY
1
@tarikjabiri/dxf
9
$HANDSEED
5
2F
9
$INSUNITS
70
0
9
$CLAYER
8
0
9
$VIEWCTR
10
590
20
312.25
0
ENDSEC
0
SECTION
2
CLASSES
0
ENDSEC
0
SECTION
2
TABLES
0
TABLE
2
VPORT
5
1
330
0
100
AcDbSymbolTable
70
1
0
VPORT
5
19
330
1
100
AcDbSymbolTableRecord
100
AcDbViewportTableRecord
2
*Active
70
0
10
0
20
0
11
1
21
1
12
590
22
312.25
13
0
23
0
14
10
24
10
15
10
25
10
16
0
26
0
36
1
17
0
27
0
37
0
40
734.5
41
2
42
50
43
0
44
0
50
0
51
0
71
0
72
100
73
1
74
3
75
0
76
1
77
0
78
0
281
0
65
1
110
0
120
0
130
0
111
1
121
0
131
0
112
0
122
1
132
0
79
0
146
0
348
10020
60
7
61
5
292
1
282
1
141
0
142
0
63
250
421
3358443
0
ENDTAB
0
TABLE
2
LTYPE
5
2
330
0
100
AcDbSymbolTable
70
3
0
LTYPE
5
12
330
2
100
AcDbSymbolTableRecord
100
AcDbLinetypeTableRecord
2
ByBlock
70
0
3

72
65
73
0
40
0
0
LTYPE
5
13
330
2
100
AcDbSymbolTableRecord
100
AcDbLinetypeTableRecord
2
ByLayer
70
0
3

72
65
73
0
40
0
0
LTYPE
5
14
330
2
100
AcDbSymbolTableRecord
100
AcDbLinetypeTableRecord
2
Continuous
70
0
3
Solid line
72
65
73
0
40
0
0
ENDTAB
0
TABLE
2
LAYER
5
3
330
0
100
AcDbSymbolTable
70
1
0
LAYER
5
15
330
3
100
AcDbSymbolTableRecord
100
AcDbLayerTableRecord
2
0
70
0
62
7
6
Continuous
370
0
390
0
0
ENDTAB
0
TABLE
2
STYLE
5
4
330
0
100
AcDbSymbolTable
70
2
0
STYLE
5
16
330
4
100
AcDbSymbolTableRecord
100
AcDbTextStyleTableRecord
2
Standard
70
0
40
0
41
1
50
0
71
0
42
1
3
txt
4

0
STYLE
5
1B
330
4
100
AcDbSymbolTableRecord
100
AcDbTextStyleTableRecord
2
Arial
70
0
40
0
41
1
50
0
71
0
42
1
3
Arial.ttf
4

0
ENDTAB
0
TABLE
2
VIEW
5
5
330
0
100
AcDbSymbolTable
70
0
0
ENDTAB
0
TABLE
2
UCS
5
6
330
0
100
AcDbSymbolTable
70
0
0
ENDTAB
0
TABLE
2
APPID
5
7
330
0
100
AcDbSymbolTable
70
1
0
APPID
5
17
330
7
100
AcDbSymbolTableRecord
100
AcDbRegAppTableRecord
2
ACAD
70
0
0
ENDTAB
0
TABLE
2
DIMSTYLE
5
8
330
0
100
AcDbSymbolTable
70
1
100
AcDbDimStyleTable
0
DIMSTYLE
105
18
330
8
100
AcDbSymbolTableRecord
100
AcDbDimStyleTableRecord
2
Standard
70
0
340
16
0
ENDTAB
0
TABLE
2
BLOCK_RECORD
5
9
330
0
100
AcDbSymbolTable
70
2
0
BLOCK_RECORD
5
C
330
9
100
AcDbSymbolTableRecord
100
AcDbBlockTableRecord
2
*Model_Space
70
0
280
1
281
0
0
BLOCK_RECORD
5
F
330
9
100
AcDbSymbolTableRecord
100
AcDbBlockTableRecord
2
*Paper_Space
70
0
280
1
281
0
0
ENDTAB
0
ENDSEC
0
SECTION
2
BLOCKS
0
BLOCK
5
D
330
C
100
AcDbEntity
8
0
100
AcDbBlockBegin
2
*Model_Space
70
0
10
0
20
0
30
0
3
*Model_Space
1

0
ENDBLK
5
E
100
AcDbEntity
8
0
100
AcDbBlockEnd
0
BLOCK
5
10
330
F
100
AcDbEntity
8
0
100
AcDbBlockBegin
2
*Paper_Space
70
0
10
0
20
0
30
0
3
*Paper_Space
1

0
ENDBLK
5
11
100
AcDbEntity
8
0
100
AcDbBlockEnd
0
ENDSEC
0
SECTION
2
ENTITIES
0
TEXT
5
1A
330
C
100
AcDbEntity
420
0
8
0
100
AcDbText
10
24
20
579.5
30
0
40
22
1
Clip Path Shapes
7
Arial
100
AcDbText
0
TEXT
5
1C
330
C
100
AcDbEntity
420
4674921
8
0
100
AcDbText
10
24
20
549
30
0
40
16
1
This demo covers inset(), circle(), ellipse(), and polygon() clipping on both filled boxes and images.
7
Arial
100
AcDbText
0
LWPOLYLINE
5
1D
330
C
100
AcDbEntity
420
16777215
8
0
100
AcDbPolyline
90
42
70
0
43
0
38
0
39
0
10
42
20
526
10
612
20
526
10
612
20
526
10
615.5116257962903
20
525.6541350472581
10
618.8883017825716
20
524.6298315852032
10
622.0002641943529
20
522.9664530214458
10
624.7279220613578
20
520.7279220613578
10
626.9664530214458
20
518.0002641943529
10
628.6298315852032
20
514.8883017825716
10
629.6541350472581
20
511.51162579629033
10
630
20
508
10
630
20
303
10
630
20
303
10
629.6541350472581
20
299.48837420370967
10
628.6298315852032
20
296.1116982174284
10
626.9664530214458
20
292.99973580564716
10
624.7279220613578
20
290.27207793864216
10
622.0002641943529
20
288.03354697855417
10
618.8883017825716
20
286.37016841479686
10
615.5116257962903
20
285.34586495274186
10
612
20
285
10
42
20
285
10
42
20
285
10
38.48837420370969
20
285.34586495274186
10
35.11169821742838
20
286.37016841479686
10
31.999735805647163
20
288.03354697855417
10
29.272077938642145
20
290.27207793864216
10
27.033546978554185
20
292.99973580564716
10
25.37016841479684
20
296.1116982174284
10
24.345864952741852
20
299.48837420370967
10
24
20
303
10
24
20
508
10
24
20
508
10
24.345864952741852
20
511.51162579629033
10
25.370168414796836
20
514.8883017825716
10
27.03354697855418
20
518.0002641943529
10
29.27207793864214
20
520.7279220613578
10
31.999735805647163
20
522.9664530214458
10
35.111698217428376
20
524.6298315852032
10
38.48837420370968
20
525.6541350472581
10
42
20
526
10
42
20
526
0
LWPOLYLINE
5
1E
330
C
100
AcDbEntity
420
15680580
8
0
100
AcDbPolyline
90
5
70
0
43
0
38
0
39
0
10
237
20
510
10
417
20
510
10
417
20
330
10
237
20
330
10
237
20
510
0
TEXT
5
1F
330
C
100
AcDbEntity
420
0
8
0
100
AcDbText
10
310.6666564941406
20
306
30
0
40
14
1
Inset
7
Arial
100
AcDbText
0
LWPOLYLINE
5
20
330
C
100
AcDbEntity
420
16777215
8
0
100
AcDbPolyline
90
42
70
0
43
0
38
0
39
0
10
668
20
526
10
1238
20
526
10
1238
20
526
10
1241.5116257962902
20
525.6541350472581
10
1244.8883017825717
20
524.6298315852032
10
1248.000264194353
20
522.9664530214458
10
1250.727922061358
20
520.7279220613578
10
1252.966453021446
20
518.0002641943529
10
1254.6298315852032
20
514.8883017825716
10
1255.6541350472583
20
511.51162579629033
10
1256
20
508
10
1256
20
303
10
1256
20
303
10
1255.6541350472583
20
299.48837420370967
10
1254.6298315852032
20
296.1116982174284
10
1252.966453021446
20
292.99973580564716
10
1250.727922061358
20
290.27207793864216
10
1248.000264194353
20
288.03354697855417
10
1244.8883017825717
20
286.37016841479686
10
1241.5116257962902
20
285.34586495274186
10
1238
20
285
10
668
20
285
10
668
20
285
10
664.4883742037097
20
285.34586495274186
10
661.1116982174284
20
286.37016841479686
10
657.9997358056472
20
288.03354697855417
10
655.2720779386422
20
290.27207793864216
10
653.0335469785542
20
292.99973580564716
10
651.3701684147968
20
296.1116982174284
10
650.3458649527419
20
299.48837420370967
10
650
20
303
10
650
20
508
10
650
20
508
10
650.3458649527419
20
511.51162579629033
10
651.3701684147968
20
514.8883017825716
10
653.0335469785542
20
518.0002641943529
10
655.2720779386422
20
520.7279220613578
10
657.9997358056471
20
522.9664530214458
10
661.1116982174284
20
524.6298315852032
10
664.4883742037097
20
525.6541350472581
10
668
20
526
10
668
20
526
0
LWPOLYLINE
5
21
330
C
100
AcDbEntity
420
3900150
8
0
100
AcDbPolyline
90
5
70
0
43
0
38
0
39
0
10
863
20
510
10
1043
20
510
10
1043
20
330
10
863
20
330
10
863
20
510
0
TEXT
5
22
330
C
100
AcDbEntity
420
0
8
0
100
AcDbText
10
933.5499877929688
20
306
30
0
40
14
1
Circle
7
Arial
100
AcDbText
0
LWPOLYLINE
5
23
330
C
100
AcDbEntity
420
16777215
8
0
100
AcDbPolyline
90
42
70
0
43
0
38
0
39
0
10
42
20
265
10
612
20
265
10
612
20
265
10
615.5116257962903
20
264.65413504725814
10
618.8883017825716
20
263.62983158520314
10
622.0002641943529
20
261.96645302144583
10
624.7279220613578
20
259.72792206135784
10
626.9664530214458
20
257.00026419435284
10
628.6298315852032
20
253.8883017825716
10
629.6541350472581
20
250.51162579629033
10
630
20
247
10
630
20
42
10
630
20
42
10
629.6541350472581
20
38.48837420370967
10
628.6298315852032
20
35.1116982174284
10
626.9664530214458
20
31.999735805647106
10
624.7279220613578
20
29.272077938642155
10
622.0002641943529
20
27.033546978554227
10
618.8883017825716
20
25.370168414796808
10
615.5116257962903
20
24.345864952741863
10
612
20
24
10
42
20
24
10
42
20
24
10
38.48837420370969
20
24.345864952741863
10
35.11169821742838
20
25.370168414796808
10
31.999735805647163
20
27.033546978554227
10
29.272077938642145
20
29.272077938642155
10
27.033546978554185
20
31.999735805647106
10
25.37016841479684
20
35.1116982174284
10
24.345864952741852
20
38.48837420370967
10
24
20
42
10
24
20
247
10
24
20
247
10
24.345864952741852
20
250.51162579629033
10
25.370168414796836
20
253.8883017825716
10
27.03354697855418
20
257.00026419435284
10
29.27207793864214
20
259.72792206135784
10
31.999735805647163
20
261.96645302144583
10
35.111698217428376
20
263.62983158520314
10
38.48837420370968
20
264.65413504725814
10
42
20
265
10
42
20
265
0
IMAGE
5
25
330
C
100
AcDbEntity
8
0
100
AcDbRasterImage
90
0
10
237
20
249
30
0
11
1
21
0
31
0
12
0
22
1
32
0
13
180
23
180
340
24
70
3
280
1
281
50
282
50
283
0
360
26
71
1
91
2
14
-0.5
24
-0.5
14
179.5
24
179.5
290
1
0
TEXT
5
28
330
C
100
AcDbEntity
420
0
8
0
100
AcDbText
10
304.45001220703125
20
45
30
0
40
14
1
Ellipse
7
Arial
100
AcDbText
0
LWPOLYLINE
5
29
330
C
100
AcDbEntity
420
16777215
8
0
100
AcDbPolyline
90
42
70
0
43
0
38
0
39
0
10
668
20
265
10
1238
20
265
10
1238
20
265
10
1241.5116257962902
20
264.65413504725814
10
1244.8883017825717
20
263.62983158520314
10
1248.000264194353
20
261.96645302144583
10
1250.727922061358
20
259.72792206135784
10
1252.966453021446
20
257.00026419435284
10
1254.6298315852032
20
253.8883017825716
10
1255.6541350472583
20
250.51162579629033
10
1256
20
247
10
1256
20
42
10
1256
20
42
10
1255.6541350472583
20
38.48837420370967
10
1254.6298315852032
20
35.1116982174284
10
1252.966453021446
20
31.999735805647106
10
1250.727922061358
20
29.272077938642155
10
1248.000264194353
20
27.033546978554227
10
1244.8883017825717
20
25.370168414796808
10
1241.5116257962902
20
24.345864952741863
10
1238
20
24
10
668
20
24
10
668
20
24
10
664.4883742037097
20
24.345864952741863
10
661.1116982174284
20
25.370168414796808
10
657.9997358056472
20
27.033546978554227
10
655.2720779386422
20
29.272077938642155
10
653.0335469785542
20
31.999735805647106
10
651.3701684147968
20
35.1116982174284
10
650.3458649527419
20
38.48837420370967
10
650
20
42
10
650
20
247
10
650
20
247
10
650.3458649527419
20
250.51162579629033
10
651.3701684147968
20
253.8883017825716
10
653.0335469785542
20
257.00026419435284
10
655.2720779386422
20
259.72792206135784
10
657.9997358056471
20
261.96645302144583
10
661.1116982174284
20
263.62983158520314
10
664.4883742037097
20
264.65413504725814
10
668
20
265
10
668
20
265
0
IMAGE
5
2B
330
C
100
AcDbEntity
8
0
100
AcDbRasterImage
90
0
10
863
20
249
30
0
11
1
21
0
31
0
12
0
22
1
32
0
13
180
23
180
340
2A
70
3
280
1
281
50
282
50
283
0
360
2C
71
1
91
2
14
-0.5
24
-0.5
14
179.5
24
179.5
290
1
0
TEXT
5
2E
330
C
100
AcDbEntity
420
0
8
0
100
AcDbText
10
925.4000244140625
20
45
30
0
40
14
1
Polygon
7
Arial
100
AcDbText
0
ENDSEC
0
SECTION
2
OBJECTS
0
DICTIONARY
5
A
330
0
100
AcDbDictionary
281
1
3
ACAD_GROUP
350
B
3
ACAD_IMAGE_DICT
350
27
3
ACAD_IMAGE_DICT
350
2D
0
DICTIONARY
5
B
330
A
100
AcDbDictionary
281
0
0
IMAGEDEF
5
24
330
27
102
{ACAD_REACTORS
330
27
330
26
102
}
100
AcDbRasterImageDef
1
images/image1.jpg
10
180
20
180
11
1
21
1
280
1
281
0
0
IMAGEDEF_REACTOR
5
26
330
0
100
AcDbRasterImageDefReactor
90
2
330
25
0
DICTIONARY
5
27
330
A
100
AcDbDictionary
281
0
3
image1
350
24
0
IMAGEDEF
5
2A
330
2D
102
{ACAD_REACTORS
330
2D
330
2C
102
}
100
AcDbRasterImageDef
1
images/image2.jpg
10
180
20
180
11
1
21
1
280
1
281
0
0
IMAGEDEF_REACTOR
5
2C
330
0
100
AcDbRasterImageDefReactor
90
2
330
2B
0
DICTIONARY
5
2D
330
A
100
AcDbDictionary
281
0
3
image2
350
2A
0
ENDSEC
0
EOF