  0
SECTION
  2
HEADER
  9
$ANGBASE
 50
0.0
  9
$ANGDIR
 70
1
  9
$AUNITS
 70
0
  9
$AUPREC
 70
0
  9
$ATTMODE
 70
1
  9
$DWGCODEPAGE
  3
ANSI_1252
  9
$TDCREATE
 40
2461147.0197995831258595
  9
$CECOLOR
 62
256
  9
$CELTSCALE
 40
1.0
  9
$CELWEIGHT
370
-1
  9
$CLAYER
  8
0
  9
$CELTYPE
  6
ByLayer
  9
$CMLJUST
 70
0
  9
$CMLSCALE
 40
20.0
  9
$CMLSTYLE
  2
Standard
  9
$DIMSTYLE
  2
Standard
  9
$LWDISPLAY
290
0
  9
$EXTNAMES
290
1
  9
$HANDSEED
  5
3B
  9
$INSUNITS
 70
0
  9
$LUNITS
 70
2
  9
$LUPREC
 70
4
  9
$LTSCALE
 40
1.0
  9
$MIRRTEXT
 70
0
  9
$INSBASE
 10
0.0
 20
0.0
 30
0.0
  9
$SPLINESEGS
 70
8
  9
$PSLTSCALE
 70
1
  9
$PDMODE
 70
0
  9
$PDSIZE
 40
0.0
  9
$PLINEGEN
 70
0
  9
$TEXTSIZE
 40
0.2
  9
$TEXTSTYLE
  7
Standard
  9
$TDINDWG
 40
0.0
  9
$TDUCREATE
 40
2461147.0197995831258595
  9
$TDUUPDATE
 40
2461147.0197995831258595
  9
$TDUPDATE
 40
2461147.0197995831258595
  9
$ACADVER
  1
AC1018
  0
ENDSEC
  0
SECTION
  2
CLASSES
  0
CLASS
  1
ACDBDICTIONARYWDFLT
  2
AcDbDictionaryWithDefault
  3
ObjectDBX Classes
 90
32768
 91
0
280
0
281
0
  0
CLASS
  1
ACDBPLACEHOLDER
  2
AcDbPlaceHolder
  3
ObjectDBX Classes
 90
0
 91
0
280
0
281
0
  0
CLASS
  1
LAYOUT
  2
AcDbLayout
  3
ObjectDBX Classes
 90
0
 91
0
280
0
281
0
  0
CLASS
  1
DICTIONARYVAR
  2
AcDbDictionaryVar
  3
ObjectDBX Classes
 90
0
 91
0
280
0
281
0
  0
CLASS
  1
TABLESTYLE
  2
AcDbTableStyle
  3
ObjectDBX Classes
 90
4095
 91
0
280
0
281
0
  0
CLASS
  1
MATERIAL
  2
AcDbMaterial
  3
ObjectDBX Classes
 90
1153
 91
0
280
0
281
0
  0
CLASS
  1
VISUALSTYLE
  2
AcDbVisualStyle
  3
ObjectDBX Classes
 90
4095
 91
0
280
0
281
0
  0
CLASS
  1
SCALE
  2
AcDbScale
  3
ObjectDBX Classes
 90
1153
 91
0
280
0
281
0
  0
CLASS
  1
MLEADERSTYLE
  2
AcDbMLeaderStyle
  3
ObjectDBX Classes
 90
4095
 91
0
280
0
281
0
  0
CLASS
  1
CELLSTYLEMAP
  2
AcDbCellStyleMap
  3
ObjectDBX Classes
 90
1152
 91
0
280
0
281
0
  0
CLASS
  1
EXACXREFPANELOBJECT
  2
ExAcXREFPanelObject
  3
ObjectDBX Classes
 90
1025
 91
0
280
0
281
0
  0
CLASS
  1
NPOCOLLECTION
  2
AcDbImpNonPersistentObjectsCollection
  3
ObjectDBX Classes
 90
1153
 91
0
280
0
281
0
  0
CLASS
  1
LAYER_INDEX
  2
AcDbLayerIndex
  3
ObjectDBX Classes
 90
0
 91
0
280
0
281
0
  0
CLASS
  1
SPATIAL_INDEX
  2
AcDbSpatialIndex
  3
ObjectDBX Classes
 90
0
 91
0
280
0
281
0
  0
CLASS
  1
IDBUFFER
  2
AcDbIdBuffer
  3
ObjectDBX Classes
 90
32768
 91
0
280
0
281
0
  0
CLASS
  1
ACDBSECTIONVIEWSTYLE
  2
AcDbSectionViewStyle
  3
ObjectDBX Classes
 90
1025
 91
0
280
0
281
0
  0
CLASS
  1
ACDBDETAILVIEWSTYLE
  2
AcDbDetailViewStyle
  3
ObjectDBX Classes
 90
1025
 91
0
280
0
281
0
  0
CLASS
  1
MESH
  2
AcDbSubDMesh
  3
ObjectDBX Classes
 90
0
 91
0
280
0
281
1
  0
CLASS
  1
SORTENTSTABLE
  2
AcDbSortentsTable
  3
ObjectDBX Classes
 90
0
 91
0
280
0
281
0
  0
CLASS
  1
ACDB_TEXTOBJECTCONTEXTDATA_CLASS
  2
AcDbTextObjectContextData
  3
ObjectDBX Classes
 90
1153
 91
0
280
0
281
0
  0
CLASS
  1
WIPEOUT
  2
AcDbWipeout
  3
WipeOut
 90
32895
 91
0
280
0
281
1
  0
CLASS
  1
WIPEOUTVARIABLES
  2
AcDbWipeoutVariables
  3
WipeOut
 90
32768
 91
0
280
0
281
0
  0
CLASS
  1
DIMASSOC
  2
AcDbDimAssoc
  3
AcDbDimAssoc
 90
0
 91
0
280
0
281
0
  0
CLASS
  1
ACAD_TABLE
  2
AcDbTable
  3
ObjectDBX Classes
 90
1025
 91
0
280
0
281
1
  0
CLASS
  1
TABLECONTENT
  2
AcDbTableContent
  3
ObjectDBX Classes
 90
1152
 91
0
280
0
281
0
  0
CLASS
  1
TABLEGEOMETRY
  2
AcDbTableGeometry
  3
ObjectDBX Classes
 90
1152
 91
0
280
0
281
0
  0
CLASS
  1
IMAGE
  2
AcDbRasterImage
  3
ISM
 90
32895
 91
0
280
0
281
1
  0
CLASS
  1
IMAGEDEF
  2
AcDbRasterImageDef
  3
ISM
 90
0
 91
0
280
0
281
0
  0
CLASS
  1
IMAGEDEF_REACTOR
  2
AcDbRasterImageDefReactor
  3
ISM
 90
1
 91
0
280
0
281
0
  0
CLASS
  1
DBCOLOR
  2
AcDbColor
  3
ObjectDBX Classes
 90
0
 91
0
280
0
281
0
  0
CLASS
  1
GEODATA
  2
AcDbGeoData
  3
ObjectDBX Classes
 90
4095
 91
0
280
0
281
0
  0
CLASS
  1
MULTILEADER
  2
AcDbMLeader
  3
ObjectDBX Classes
 90
1025
 91
0
280
0
281
0
  0
CLASS
  1
PDFUNDERLAY
  2
AcDbPdfReference
  3
ObjectDBX Classes
 90
4095
 91
0
280
0
281
1
  0
CLASS
  1
PDFDEFINITION
  2
AcDbPdfDefinition
  3
ObjectDBX Classes
 90
1153
 91
0
280
0
281
0
  0
CLASS
  1
RASTERVARIABLES
  2
AcDbRasterVariables
  3
ISM
 90
0
 91
0
280
0
281
0
  0
CLASS
  1
SPATIAL_FILTER
  2
AcDbSpatialFilter
  3
ObjectDBX Classes
 90
0
 91
0
280
0
281
0
  0
CLASS
  1
ACDB_MLEADEROBJECTCONTEXTDATA_CLASS
  2
AcDbMLeaderObjectContextData
  3
ObjectDBX Classes
 90
1025
 91
0
280
0
281
0
  0
CLASS
  1
PLOTSETTINGS
  2
AcDbPlotSettings
  3
ObjectDBX Classes
 90
0
 91
0
280
0
281
0
  0
CLASS
  1
FIELD
  2
AcDbField
  3
ObjectDBX Classes
 90
1152
 91
0
280
0
281
0
  0
CLASS
  1
FIELDLIST
  2
AcDbFieldList
  3
ObjectDBX Classes
 90
1152
 91
0
280
0
281
0
  0
CLASS
  1
ACDB_MTEXTATTRIBUTEOBJECTCONTEXTDATA_CLASS
  2
AcDbMTextAttributeObjectContextData
  3
ObjectDBX Classes
 90
1153
 91
0
280
0
281
0
  0
CLASS
  1
ACDB_BLKREFOBJECTCONTEXTDATA_CLASS
  2
AcDbBlkRefObjectContextData
  3
ObjectDBX Classes
 90
1153
 91
0
280
0
281
0
  0
ENDSEC
  0
SECTION
  2
TABLES
  0
TABLE
  2
VPORT
  5
18
330
0
100
AcDbSymbolTable
 70
1
  0
VPORT
  5
26
330
18
100
AcDbSymbolTableRecord
100
AcDbViewportTableRecord
  2
*Active
 70
0
 10
0.0
 20
0.0
 11
1.0
 21
1.0
 12
0.0
 22
0.0
 13
0.0
 23
0.0
 14
0.5
 24
0.5
 15
10.0
 25
10.0
 16
0.0
 26
0.0
 36
1.0
 17
0.0
 27
0.0
 37
0.0
 40
10.0
 41
1.0
 75
0
 76
1
  0
ENDTAB
  0
TABLE
  2
LTYPE
  5
14
330
0
100
AcDbSymbolTable
 70
3
  0
LTYPE
  5
19
330
14
100
AcDbSymbolTableRecord
100
AcDbLinetypeTableRecord
  2
ByLayer
 70
0
 72
0
 73
0
 40
0.0
  0
LTYPE
  5
1A
330
14
100
AcDbSymbolTableRecord
100
AcDbLinetypeTableRecord
  2
ByBlock
 70
0
 72
0
 73
0
 40
0.0
  0
LTYPE
  5
1B
330
14
100
AcDbSymbolTableRecord
100
AcDbLinetypeTableRecord
  2
Continuous
 70
0
 72
0
 73
0
 40
0.0
  0
ENDTAB
  0
TABLE
  2
LAYER
  5
13
330
0
100
AcDbSymbolTable
 70
1
  0
LAYER
  5
1C
330
13
100
AcDbSymbolTableRecord
100
AcDbLayerTableRecord
  2
0
 70
0
 62
7
  6
Continuous
290
1
370
-3
390
0
  0
ENDTAB
  0
TABLE
  2
STYLE
  5
15
330
0
100
AcDbSymbolTable
 70
1
  0
STYLE
  5
23
330
15
100
AcDbSymbolTableRecord
100
AcDbTextStyleTableRecord
  2
Standard
 70
0
 40
0.0
 41
1.0
 42
0.0
 50
0.0
 71
0
  0
ENDTAB
  0
TABLE
  2
VIEW
  5
17
330
0
100
AcDbSymbolTable
 70
0
  0
ENDTAB
  0
TABLE
  2
UCS
  5
16
330
0
100
AcDbSymbolTable
 70
0
  0
ENDTAB
  0
TABLE
  2
APPID
  5
10
330
0
100
AcDbSymbolTable
 70
1
  0
APPID
  5
25
330
10
100
AcDbSymbolTableRecord
100
AcDbRegAppTableRecord
  2
ACAD
 70
0
  0
ENDTAB
  0
TABLE
  2
DIMSTYLE
  5
12
330
0
100
AcDbSymbolTable
 70
1
100
AcDbDimStyleTable
  0
DIMSTYLE
105
24
330
12
100
AcDbSymbolTableRecord
100
AcDbDimStyleTableRecord
  2
Standard
 70
0
  3
<>
  4
[]
 40
1.0
 41
0.18
 42
0.625
 43
3.75
 44
1.25
 45
0.0
 46
0.0
 47
0.0
 48
0.0
 49
1.0
 50
45.0
 70
0
 90
0
140
0.18
141
0.09
142
0.0
143
25.3999999999999986
144
1.0
145
0.0
146
1.0
147
0.625
148
0.0
 71
0
 72
0
 73
0
 74
0
 75
0
 76
0
 77
1
 78
8
 79
0
170
0
171
3
172
0
173
1
174
0
175
0
176
0
177
0
178
0
179
0
271
2
272
2
273
2
274
3
275
0
276
0
277
2
278
46
279
0
280
0
281
0
282
0
283
0
284
8
285
0
286
0
287
0
288
0
289
3
290
0
340
0
371
-2
372
-2
  0
ENDTAB
  0
TABLE
  2
BLOCK_RECORD
  5
11
330
0
100
AcDbSymbolTable
 70
2
  0
BLOCK_RECORD
  5
1D
330
11
100
AcDbSymbolTableRecord
100
AcDbBlockTableRecord
  2
*Model_Space
 70
0
340
0
 70
0
280
0
281
1
  0
BLOCK_RECORD
  5
20
330
11
100
AcDbSymbolTableRecord
100
AcDbBlockTableRecord
  2
*Paper_Space
 70
0
340
0
 70
0
280
0
281
1
  0
ENDTAB
  0
ENDSEC
  0
SECTION
  2
BLOCKS
  0
BLOCK
  5
1E
330
1D
100
AcDbEntity
  8
0
  6
ByLayer
 62
256
 48
1.0
 60
0
 67
0
370
-1
100
AcDbBlockBegin
  2
*Model_Space
 70
0
 10
0.0
 20
0.0
 30
0.0
  3
*Model_Space
  0
ENDBLK
  5
1F
330
1D
100
AcDbEntity
  8
0
100
AcDbBlockEnd
  0
BLOCK
  5
21
330
20
100
AcDbEntity
  8
0
  6
ByLayer
 62
256
 48
1.0
 60
0
 67
1
370
-1
100
AcDbBlockBegin
  2
*Paper_Space
 70
0
 10
0.0
 20
0.0
 30
0.0
  3
*Paper_Space
  0
ENDBLK
  5
22
330
20
100
AcDbEntity
  8
0
100
AcDbBlockEnd
  0
ENDSEC
  0
SECTION
  2
ENTITIES
  0
TEXT
  5
27
330
1D
100
AcDbEntity
  8
0
  6
ByLayer
420
0
 48
1.0
 60
0
 67
0
370
-1
100
AcDbText
 39
0.0
 10
24.0
 20
579.5
 30
0.0
 40
22.0
  1
Clip Path Shapes
 50
0.0
 41
1.0
 51
0.0
  7
Standard
 71
0
 72
0
 11
0.0
 21
0.0
 31
0.0
210
0.0
220
0.0
230
1.0
100
AcDbText
 73
0
  0
TEXT
  5
28
330
1D
100
AcDbEntity
  8
0
  6
ByLayer
420
4674921
 48
1.0
 60
0
 67
0
370
-1
100
AcDbText
 39
0.0
 10
24.0
 20
549.0
 30
0.0
 40
16.0
  1
This demo covers inset(), circle(), ellipse(), and polygon() clipping on both filled boxes and images.
 50
0.0
 41
1.0
 51
0.0
  7
Standard
 71
0
 72
0
 11
0.0
 21
0.0
 31
0.0
210
0.0
220
0.0
230
1.0
100
AcDbText
 73
0
  0
HATCH
  5
29
330
1D
100
AcDbEntity
  8
0
  6
ByLayer
420
16777215
 48
1.0
 60
0
 67
0
370
-1
100
AcDbHatch
 30
0.0
210
0.0
220
0.0
230
1.0
  2
SOLID
 70
1
 71
0
 91
1
 92
2
 72
0
 73
1
 93
41
 10
42.0
 20
526.0
 10
612.0
 20
526.0
 10
612.0
 20
526.0
 10
615.5116257962903319
 20
525.6541350472581371
 10
618.8883017825716024
 20
524.6298315852031919
 10
622.0002641943528943
 20
522.9664530214457727
 10
624.7279220613578445
 20
520.7279220613578445
 10
626.9664530214457727
 20
518.0002641943528943
 10
628.6298315852031919
 20
514.8883017825716024
 10
629.6541350472581371
 20
511.5116257962903319
 10
630.0
 20
508.0
 10
630.0
 20
303.0
 10
630.0
 20
303.0
 10
629.6541350472581371
 20
299.4883742037096681
 10
628.6298315852031919
 20
296.1116982174283976
 10
626.9664530214457727
 20
292.9997358056471626
 10
624.7279220613578445
 20
290.2720779386421555
 10
622.0002641943528943
 20
288.0335469785541704
 10
618.8883017825716024
 20
286.3701684147968649
 10
615.5116257962903319
 20
285.3458649527418629
 10
612.0
 20
285.0
 10
42.0
 20
285.0
 10
42.0
 20
285.0
 10
38.4883742037096894
 20
285.3458649527418629
 10
35.1116982174283834
 20
286.3701684147968649
 10
31.9997358056471626
 20
288.0335469785541704
 10
29.2720779386421448
 20
290.2720779386421555
 10
27.0335469785541846
 20
292.9997358056471626
 10
25.37016841479684
 20
296.1116982174283976
 10
24.3458649527418522
 20
299.4883742037096681
 10
24.0
 20
303.0
 10
24.0
 20
508.0
 10
24.0
 20
508.0
 10
24.3458649527418522
 20
511.5116257962903319
 10
25.3701684147968365
 20
514.8883017825716024
 10
27.0335469785541811
 20
518.0002641943528943
 10
29.2720779386421412
 20
520.7279220613578445
 10
31.9997358056471626
 20
522.9664530214457727
 10
35.1116982174283763
 20
524.6298315852031919
 10
38.4883742037096823
 20
525.6541350472581371
 10
42.0
 20
526.0
 97
0
 75
0
 76
1
 47
0.0
 98
0
  0
LWPOLYLINE
  5
2A
330
1D
100
AcDbEntity
  8
0
  6
ByLayer
420
16777215
 48
1.0
 60
0
 67
0
370
-1
100
AcDbPolyline
 90
41
 70
1
 43
0.0
 38
0.0
 39
0.0
210
0.0
220
0.0
230
1.0
 10
42.0
 20
526.0
 40
0.0
 41
0.0
 42
0.0
 10
612.0
 20
526.0
 40
0.0
 41
0.0
 42
0.0
 10
612.0
 20
526.0
 40
0.0
 41
0.0
 42
0.0
 10
615.5116257962903319
 20
525.6541350472581371
 40
0.0
 41
0.0
 42
0.0
 10
618.8883017825716024
 20
524.6298315852031919
 40
0.0
 41
0.0
 42
0.0
 10
622.0002641943528943
 20
522.9664530214457727
 40
0.0
 41
0.0
 42
0.0
 10
624.7279220613578445
 20
520.7279220613578445
 40
0.0
 41
0.0
 42
0.0
 10
626.9664530214457727
 20
518.0002641943528943
 40
0.0
 41
0.0
 42
0.0
 10
628.6298315852031919
 20
514.8883017825716024
 40
0.0
 41
0.0
 42
0.0
 10
629.6541350472581371
 20
511.5116257962903319
 40
0.0
 41
0.0
 42
0.0
 10
630.0
 20
508.0
 40
0.0
 41
0.0
 42
0.0
 10
630.0
 20
303.0
 40
0.0
 41
0.0
 42
0.0
 10
630.0
 20
303.0
 40
0.0
 41
0.0
 42
0.0
 10
629.6541350472581371
 20
299.4883742037096681
 40
0.0
 41
0.0
 42
0.0
 10
628.6298315852031919
 20
296.1116982174283976
 40
0.0
 41
0.0
 42
0.0
 10
626.9664530214457727
 20
292.9997358056471626
 40
0.0
 41
0.0
 42
0.0
 10
624.7279220613578445
 20
290.2720779386421555
 40
0.0
 41
0.0
 42
0.0
 10
622.0002641943528943
 20
288.0335469785541704
 40
0.0
 41
0.0
 42
0.0
 10
618.8883017825716024
 20
286.3701684147968649
 40
0.0
 41
0.0
 42
0.0
 10
615.5116257962903319
 20
285.3458649527418629
 40
0.0
 41
0.0
 42
0.0
 10
612.0
 20
285.0
 40
0.0
 41
0.0
 42
0.0
 10
42.0
 20
285.0
 40
0.0
 41
0.0
 42
0.0
 10
42.0
 20
285.0
 40
0.0
 41
0.0
 42
0.0
 10
38.4883742037096894
 20
285.3458649527418629
 40
0.0
 41
0.0
 42
0.0
 10
35.1116982174283834
 20
286.3701684147968649
 40
0.0
 41
0.0
 42
0.0
 10
31.9997358056471626
 20
288.0335469785541704
 40
0.0
 41
0.0
 42
0.0
 10
29.2720779386421448
 20
290.2720779386421555
 40
0.0
 41
0.0
 42
0.0
 10
27.0335469785541846
 20
292.9997358056471626
 40
0.0
 41
0.0
 42
0.0
 10
25.37016841479684
 20
296.1116982174283976
 40
0.0
 41
0.0
 42
0.0
 10
24.3458649527418522
 20
299.4883742037096681
 40
0.0
 41
0.0
 42
0.0
 10
24.0
 20
303.0
 40
0.0
 41
0.0
 42
0.0
 10
24.0
 20
508.0
 40
0.0
 41
0.0
 42
0.0
 10
24.0
 20
508.0
 40
0.0
 41
0.0
 42
0.0
 10
24.3458649527418522
 20
511.5116257962903319
 40
0.0
 41
0.0
 42
0.0
 10
25.3701684147968365
 20
514.8883017825716024
 40
0.0
 41
0.0
 42
0.0
 10
27.0335469785541811
 20
518.0002641943528943
 40
0.0
 41
0.0
 42
0.0
 10
29.2720779386421412
 20
520.7279220613578445
 40
0.0
 41
0.0
 42
0.0
 10
31.9997358056471626
 20
522.9664530214457727
 40
0.0
 41
0.0
 42
0.0
 10
35.1116982174283763
 20
524.6298315852031919
 40
0.0
 41
0.0
 42
0.0
 10
38.4883742037096823
 20
525.6541350472581371
 40
0.0
 41
0.0
 42
0.0
 10
42.0
 20
526.0
 40
0.0
 41
0.0
 42
0.0
  0
HATCH
  5
2B
330
1D
100
AcDbEntity
  8
0
  6
ByLayer
420
15680580
 48
1.0
 60
0
 67
0
370
-1
100
AcDbHatch
 30
0.0
210
0.0
220
0.0
230
1.0
  2
SOLID
 70
1
 71
0
 91
1
 92
2
 72
0
 73
1
 93
4
 10
237.0
 20
510.0
 10
417.0
 20
510.0
 10
417.0
 20
330.0
 10
237.0
 20
330.0
 97
0
 75
0
 76
1
 47
0.0
 98
0
  0
LWPOLYLINE
  5
2C
330
1D
100
AcDbEntity
  8
0
  6
ByLayer
420
988970
 48
1.0
 60
0
 67
0
370
-1
100
AcDbPolyline
 90
4
 70
1
 43
0.0
 38
0.0
 39
0.0
210
0.0
220
0.0
230
1.0
 10
237.0
 20
510.0
 40
0.0
 41
0.0
 42
0.0
 10
417.0
 20
510.0
 40
0.0
 41
0.0
 42
0.0
 10
417.0
 20
330.0
 40
0.0
 41
0.0
 42
0.0
 10
237.0
 20
330.0
 40
0.0
 41
0.0
 42
0.0
  0
TEXT
  5
2D
330
1D
100
AcDbEntity
  8
0
  6
ByLayer
420
0
 48
1.0
 60
0
 67
0
370
-1
100
AcDbText
 39
0.0
 10
310.666656494140625
 20
306.0
 30
0.0
 40
14.0
  1
Inset
 50
0.0
 41
1.0
 51
0.0
  7
Standard
 71
0
 72
0
 11
0.0
 21
0.0
 31
0.0
210
0.0
220
0.0
230
1.0
100
AcDbText
 73
0
  0
HATCH
  5
2E
330
1D
100
AcDbEntity
  8
0
  6
ByLayer
420
16777215
 48
1.0
 60
0
 67
0
370
-1
100
AcDbHatch
 30
0.0
210
0.0
220
0.0
230
1.0
  2
SOLID
 70
1
 71
0
 91
1
 92
2
 72
0
 73
1
 93
41
 10
668.0
 20
526.0
 10
1238.0
 20
526.0
 10
1238.0
 20
526.0
 10
1241.5116257962902182
 20
525.6541350472581371
 10
1244.8883017825717161
 20
524.6298315852031919
 10
1248.0002641943528943
 20
522.9664530214457727
 10
1250.7279220613579582
 20
520.7279220613578445
 10
1252.9664530214458864
 20
518.0002641943528943
 10
1254.6298315852031919
 20
514.8883017825716024
 10
1255.6541350472582508
 20
511.5116257962903319
 10
1256.0
 20
508.0
 10
1256.0
 20
303.0
 10
1256.0
 20
303.0
 10
1255.6541350472582508
 20
299.4883742037096681
 10
1254.6298315852031919
 20
296.1116982174283976
 10
1252.9664530214458864
 20
292.9997358056471626
 10
1250.7279220613579582
 20
290.2720779386421555
 10
1248.0002641943528943
 20
288.0335469785541704
 10
1244.8883017825717161
 20
286.3701684147968649
 10
1241.5116257962902182
 20
285.3458649527418629
 10
1238.0
 20
285.0
 10
668.0
 20
285.0
 10
668.0
 20
285.0
 10
664.4883742037096681
 20
285.3458649527418629
 10
661.1116982174283976
 20
286.3701684147968649
 10
657.9997358056472194
 20
288.0335469785541704
 10
655.2720779386421555
 20
290.2720779386421555
 10
653.0335469785542273
 20
292.9997358056471626
 10
651.3701684147968081
 20
296.1116982174283976
 10
650.3458649527418629
 20
299.4883742037096681
 10
650.0
 20
303.0
 10
650.0
 20
508.0
 10
650.0
 20
508.0
 10
650.3458649527418629
 20
511.5116257962903319
 10
651.3701684147968081
 20
514.8883017825716024
 10
653.0335469785542273
 20
518.0002641943528943
 10
655.2720779386421555
 20
520.7279220613578445
 10
657.9997358056471057
 20
522.9664530214457727
 10
661.1116982174283976
 20
524.6298315852031919
 10
664.4883742037096681
 20
525.6541350472581371
 10
668.0
 20
526.0
 97
0
 75
0
 76
1
 47
0.0
 98
0
  0
LWPOLYLINE
  5
2F
330
1D
100
AcDbEntity
  8
0
  6
ByLayer
420
16777215
 48
1.0
 60
0
 67
0
370
-1
100
AcDbPolyline
 90
41
 70
1
 43
0.0
 38
0.0
 39
0.0
210
0.0
220
0.0
230
1.0
 10
668.0
 20
526.0
 40
0.0
 41
0.0
 42
0.0
 10
1238.0
 20
526.0
 40
0.0
 41
0.0
 42
0.0
 10
1238.0
 20
526.0
 40
0.0
 41
0.0
 42
0.0
 10
1241.5116257962902182
 20
525.6541350472581371
 40
0.0
 41
0.0
 42
0.0
 10
1244.8883017825717161
 20
524.6298315852031919
 40
0.0
 41
0.0
 42
0.0
 10
1248.0002641943528943
 20
522.9664530214457727
 40
0.0
 41
0.0
 42
0.0
 10
1250.7279220613579582
 20
520.7279220613578445
 40
0.0
 41
0.0
 42
0.0
 10
1252.9664530214458864
 20
518.0002641943528943
 40
0.0
 41
0.0
 42
0.0
 10
1254.6298315852031919
 20
514.8883017825716024
 40
0.0
 41
0.0
 42
0.0
 10
1255.6541350472582508
 20
511.5116257962903319
 40
0.0
 41
0.0
 42
0.0
 10
1256.0
 20
508.0
 40
0.0
 41
0.0
 42
0.0
 10
1256.0
 20
303.0
 40
0.0
 41
0.0
 42
0.0
 10
1256.0
 20
303.0
 40
0.0
 41
0.0
 42
0.0
 10
1255.6541350472582508
 20
299.4883742037096681
 40
0.0
 41
0.0
 42
0.0
 10
1254.6298315852031919
 20
296.1116982174283976
 40
0.0
 41
0.0
 42
0.0
 10
1252.9664530214458864
 20
292.9997358056471626
 40
0.0
 41
0.0
 42
0.0
 10
1250.7279220613579582
 20
290.2720779386421555
 40
0.0
 41
0.0
 42
0.0
 10
1248.0002641943528943
 20
288.0335469785541704
 40
0.0
 41
0.0
 42
0.0
 10
1244.8883017825717161
 20
286.3701684147968649
 40
0.0
 41
0.0
 42
0.0
 10
1241.5116257962902182
 20
285.3458649527418629
 40
0.0
 41
0.0
 42
0.0
 10
1238.0
 20
285.0
 40
0.0
 41
0.0
 42
0.0
 10
668.0
 20
285.0
 40
0.0
 41
0.0
 42
0.0
 10
668.0
 20
285.0
 40
0.0
 41
0.0
 42
0.0
 10
664.4883742037096681
 20
285.3458649527418629
 40
0.0
 41
0.0
 42
0.0
 10
661.1116982174283976
 20
286.3701684147968649
 40
0.0
 41
0.0
 42
0.0
 10
657.9997358056472194
 20
288.0335469785541704
 40
0.0
 41
0.0
 42
0.0
 10
655.2720779386421555
 20
290.2720779386421555
 40
0.0
 41
0.0
 42
0.0
 10
653.0335469785542273
 20
292.9997358056471626
 40
0.0
 41
0.0
 42
0.0
 10
651.3701684147968081
 20
296.1116982174283976
 40
0.0
 41
0.0
 42
0.0
 10
650.3458649527418629
 20
299.4883742037096681
 40
0.0
 41
0.0
 42
0.0
 10
650.0
 20
303.0
 40
0.0
 41
0.0
 42
0.0
 10
650.0
 20
508.0
 40
0.0
 41
0.0
 42
0.0
 10
650.0
 20
508.0
 40
0.0
 41
0.0
 42
0.0
 10
650.3458649527418629
 20
511.5116257962903319
 40
0.0
 41
0.0
 42
0.0
 10
651.3701684147968081
 20
514.8883017825716024
 40
0.0
 41
0.0
 42
0.0
 10
653.0335469785542273
 20
518.0002641943528943
 40
0.0
 41
0.0
 42
0.0
 10
655.2720779386421555
 20
520.7279220613578445
 40
0.0
 41
0.0
 42
0.0
 10
657.9997358056471057
 20
522.9664530214457727
 40
0.0
 41
0.0
 42
0.0
 10
661.1116982174283976
 20
524.6298315852031919
 40
0.0
 41
0.0
 42
0.0
 10
664.4883742037096681
 20
525.6541350472581371
 40
0.0
 41
0.0
 42
0.0
 10
668.0
 20
526.0
 40
0.0
 41
0.0
 42
0.0
  0
HATCH
  5
30
330
1D
100
AcDbEntity
  8
0
  6
ByLayer
420
3900150
 48
1.0
 60
0
 67
0
370
-1
100
AcDbHatch
 30
0.0
210
0.0
220
0.0
230
1.0
  2
SOLID
 70
1
 71
0
 91
1
 92
2
 72
0
 73
1
 93
4
 10
863.0
 20
510.0
 10
1043.0
 20
510.0
 10
1043.0
 20
330.0
 10
863.0
 20
330.0
 97
0
 75
0
 76
1
 47
0.0
 98
0
  0
LWPOLYLINE
  5
31
330
1D
100
AcDbEntity
  8
0
  6
ByLayer
420
988970
 48
1.0
 60
0
 67
0
370
-1
100
AcDbPolyline
 90
4
 70
1
 43
0.0
 38
0.0
 39
0.0
210
0.0
220
0.0
230
1.0
 10
863.0
 20
510.0
 40
0.0
 41
0.0
 42
0.0
 10
1043.0
 20
510.0
 40
0.0
 41
0.0
 42
0.0
 10
1043.0
 20
330.0
 40
0.0
 41
0.0
 42
0.0
 10
863.0
 20
330.0
 40
0.0
 41
0.0
 42
0.0
  0
TEXT
  5
32
330
1D
100
AcDbEntity
  8
0
  6
ByLayer
420
0
 48
1.0
 60
0
 67
0
370
-1
100
AcDbText
 39
0.0
 10
933.54998779296875
 20
306.0
 30
0.0
 40
14.0
  1
Circle
 50
0.0
 41
1.0
 51
0.0
  7
Standard
 71
0
 72
0
 11
0.0
 21
0.0
 31
0.0
210
0.0
220
0.0
230
1.0
100
AcDbText
 73
0
  0
HATCH
  5
33
330
1D
100
AcDbEntity
  8
0
  6
ByLayer
420
16777215
 48
1.0
 60
0
 67
0
370
-1
100
AcDbHatch
 30
0.0
210
0.0
220
0.0
230
1.0
  2
SOLID
 70
1
 71
0
 91
1
 92
2
 72
0
 73
1
 93
41
 10
42.0
 20
265.0
 10
612.0
 20
265.0
 10
612.0
 20
265.0
 10
615.5116257962903319
 20
264.6541350472581371
 10
618.8883017825716024
 20
263.6298315852031351
 10
622.0002641943528943
 20
261.9664530214458296
 10
624.7279220613578445
 20
259.7279220613578445
 10
626.9664530214457727
 20
257.0002641943528374
 10
628.6298315852031919
 20
253.8883017825716024
 10
629.6541350472581371
 20
250.5116257962903319
 10
630.0
 20
247.0
 10
630.0
 20
42.0
 10
630.0
 20
42.0
 10
629.6541350472581371
 20
38.4883742037096681
 10
628.6298315852031919
 20
35.1116982174283976
 10
626.9664530214457727
 20
31.9997358056471057
 10
624.7279220613578445
 20
29.2720779386421555
 10
622.0002641943528943
 20
27.0335469785542273
 10
618.8883017825716024
 20
25.3701684147968081
 10
615.5116257962903319
 20
24.3458649527418629
 10
612.0
 20
24.0
 10
42.0
 20
24.0
 10
42.0
 20
24.0
 10
38.4883742037096894
 20
24.3458649527418629
 10
35.1116982174283834
 20
25.3701684147968081
 10
31.9997358056471626
 20
27.0335469785542273
 10
29.2720779386421448
 20
29.2720779386421555
 10
27.0335469785541846
 20
31.9997358056471057
 10
25.37016841479684
 20
35.1116982174283976
 10
24.3458649527418522
 20
38.4883742037096681
 10
24.0
 20
42.0
 10
24.0
 20
247.0
 10
24.0
 20
247.0
 10
24.3458649527418522
 20
250.5116257962903319
 10
25.3701684147968365
 20
253.8883017825716024
 10
27.0335469785541811
 20
257.0002641943528374
 10
29.2720779386421412
 20
259.7279220613578445
 10
31.9997358056471626
 20
261.9664530214458296
 10
35.1116982174283763
 20
263.6298315852031351
 10
38.4883742037096823
 20
264.6541350472581371
 10
42.0
 20
265.0
 97
0
 75
0
 76
1
 47
0.0
 98
0
  0
LWPOLYLINE
  5
34
330
1D
100
AcDbEntity
  8
0
  6
ByLayer
420
16777215
 48
1.0
 60
0
 67
0
370
-1
100
AcDbPolyline
 90
41
 70
1
 43
0.0
 38
0.0
 39
0.0
210
0.0
220
0.0
230
1.0
 10
42.0
 20
265.0
 40
0.0
 41
0.0
 42
0.0
 10
612.0
 20
265.0
 40
0.0
 41
0.0
 42
0.0
 10
612.0
 20
265.0
 40
0.0
 41
0.0
 42
0.0
 10
615.5116257962903319
 20
264.6541350472581371
 40
0.0
 41
0.0
 42
0.0
 10
618.8883017825716024
 20
263.6298315852031351
 40
0.0
 41
0.0
 42
0.0
 10
622.0002641943528943
 20
261.9664530214458296
 40
0.0
 41
0.0
 42
0.0
 10
624.7279220613578445
 20
259.7279220613578445
 40
0.0
 41
0.0
 42
0.0
 10
626.9664530214457727
 20
257.0002641943528374
 40
0.0
 41
0.0
 42
0.0
 10
628.6298315852031919
 20
253.8883017825716024
 40
0.0
 41
0.0
 42
0.0
 10
629.6541350472581371
 20
250.5116257962903319
 40
0.0
 41
0.0
 42
0.0
 10
630.0
 20
247.0
 40
0.0
 41
0.0
 42
0.0
 10
630.0
 20
42.0
 40
0.0
 41
0.0
 42
0.0
 10
630.0
 20
42.0
 40
0.0
 41
0.0
 42
0.0
 10
629.6541350472581371
 20
38.4883742037096681
 40
0.0
 41
0.0
 42
0.0
 10
628.6298315852031919
 20
35.1116982174283976
 40
0.0
 41
0.0
 42
0.0
 10
626.9664530214457727
 20
31.9997358056471057
 40
0.0
 41
0.0
 42
0.0
 10
624.7279220613578445
 20
29.2720779386421555
 40
0.0
 41
0.0
 42
0.0
 10
622.0002641943528943
 20
27.0335469785542273
 40
0.0
 41
0.0
 42
0.0
 10
618.8883017825716024
 20
25.3701684147968081
 40
0.0
 41
0.0
 42
0.0
 10
615.5116257962903319
 20
24.3458649527418629
 40
0.0
 41
0.0
 42
0.0
 10
612.0
 20
24.0
 40
0.0
 41
0.0
 42
0.0
 10
42.0
 20
24.0
 40
0.0
 41
0.0
 42
0.0
 10
42.0
 20
24.0
 40
0.0
 41
0.0
 42
0.0
 10
38.4883742037096894
 20
24.3458649527418629
 40
0.0
 41
0.0
 42
0.0
 10
35.1116982174283834
 20
25.3701684147968081
 40
0.0
 41
0.0
 42
0.0
 10
31.9997358056471626
 20
27.0335469785542273
 40
0.0
 41
0.0
 42
0.0
 10
29.2720779386421448
 20
29.2720779386421555
 40
0.0
 41
0.0
 42
0.0
 10
27.0335469785541846
 20
31.9997358056471057
 40
0.0
 41
0.0
 42
0.0
 10
25.37016841479684
 20
35.1116982174283976
 40
0.0
 41
0.0
 42
0.0
 10
24.3458649527418522
 20
38.4883742037096681
 40
0.0
 41
0.0
 42
0.0
 10
24.0
 20
42.0
 40
0.0
 41
0.0
 42
0.0
 10
24.0
 20
247.0
 40
0.0
 41
0.0
 42
0.0
 10
24.0
 20
247.0
 40
0.0
 41
0.0
 42
0.0
 10
24.3458649527418522
 20
250.5116257962903319
 40
0.0
 41
0.0
 42
0.0
 10
25.3701684147968365
 20
253.8883017825716024
 40
0.0
 41
0.0
 42
0.0
 10
27.0335469785541811
 20
257.0002641943528374
 40
0.0
 41
0.0
 42
0.0
 10
29.2720779386421412
 20
259.7279220613578445
 40
0.0
 41
0.0
 42
0.0
 10
31.9997358056471626
 20
261.9664530214458296
 40
0.0
 41
0.0
 42
0.0
 10
35.1116982174283763
 20
263.6298315852031351
 40
0.0
 41
0.0
 42
0.0
 10
38.4883742037096823
 20
264.6541350472581371
 40
0.0
 41
0.0
 42
0.0
 10
42.0
 20
265.0
 40
0.0
 41
0.0
 42
0.0
  0
LWPOLYLINE
  5
35
330
1D
100
AcDbEntity
  8
0
  6
ByLayer
420
988970
 48
1.0
 60
0
 67
0
370
-1
100
AcDbPolyline
 90
4
 70
1
 43
0.0
 38
0.0
 39
0.0
210
0.0
220
0.0
230
1.0
 10
237.0
 20
249.0
 40
0.0
 41
0.0
 42
0.0
 10
417.0
 20
249.0
 40
0.0
 41
0.0
 42
0.0
 10
417.0
 20
69.0
 40
0.0
 41
0.0
 42
0.0
 10
237.0
 20
69.0
 40
0.0
 41
0.0
 42
0.0
  0
TEXT
  5
36
330
1D
100
AcDbEntity
  8
0
  6
ByLayer
420
0
 48
1.0
 60
0
 67
0
370
-1
100
AcDbText
 39
0.0
 10
304.45001220703125
 20
45.0
 30
0.0
 40
14.0
  1
Ellipse
 50
0.0
 41
1.0
 51
0.0
  7
Standard
 71
0
 72
0
 11
0.0
 21
0.0
 31
0.0
210
0.0
220
0.0
230
1.0
100
AcDbText
 73
0
  0
HATCH
  5
37
330
1D
100
AcDbEntity
  8
0
  6
ByLayer
420
16777215
 48
1.0
 60
0
 67
0
370
-1
100
AcDbHatch
 30
0.0
210
0.0
220
0.0
230
1.0
  2
SOLID
 70
1
 71
0
 91
1
 92
2
 72
0
 73
1
 93
41
 10
668.0
 20
265.0
 10
1238.0
 20
265.0
 10
1238.0
 20
265.0
 10
1241.5116257962902182
 20
264.6541350472581371
 10
1244.8883017825717161
 20
263.6298315852031351
 10
1248.0002641943528943
 20
261.9664530214458296
 10
1250.7279220613579582
 20
259.7279220613578445
 10
1252.9664530214458864
 20
257.0002641943528374
 10
1254.6298315852031919
 20
253.8883017825716024
 10
1255.6541350472582508
 20
250.5116257962903319
 10
1256.0
 20
247.0
 10
1256.0
 20
42.0
 10
1256.0
 20
42.0
 10
1255.6541350472582508
 20
38.4883742037096681
 10
1254.6298315852031919
 20
35.1116982174283976
 10
1252.9664530214458864
 20
31.9997358056471057
 10
1250.7279220613579582
 20
29.2720779386421555
 10
1248.0002641943528943
 20
27.0335469785542273
 10
1244.8883017825717161
 20
25.3701684147968081
 10
1241.5116257962902182
 20
24.3458649527418629
 10
1238.0
 20
24.0
 10
668.0
 20
24.0
 10
668.0
 20
24.0
 10
664.4883742037096681
 20
24.3458649527418629
 10
661.1116982174283976
 20
25.3701684147968081
 10
657.9997358056472194
 20
27.0335469785542273
 10
655.2720779386421555
 20
29.2720779386421555
 10
653.0335469785542273
 20
31.9997358056471057
 10
651.3701684147968081
 20
35.1116982174283976
 10
650.3458649527418629
 20
38.4883742037096681
 10
650.0
 20
42.0
 10
650.0
 20
247.0
 10
650.0
 20
247.0
 10
650.3458649527418629
 20
250.5116257962903319
 10
651.3701684147968081
 20
253.8883017825716024
 10
653.0335469785542273
 20
257.0002641943528374
 10
655.2720779386421555
 20
259.7279220613578445
 10
657.9997358056471057
 20
261.9664530214458296
 10
661.1116982174283976
 20
263.6298315852031351
 10
664.4883742037096681
 20
264.6541350472581371
 10
668.0
 20
265.0
 97
0
 75
0
 76
1
 47
0.0
 98
0
  0
LWPOLYLINE
  5
38
330
1D
100
AcDbEntity
  8
0
  6
ByLayer
420
16777215
 48
1.0
 60
0
 67
0
370
-1
100
AcDbPolyline
 90
41
 70
1
 43
0.0
 38
0.0
 39
0.0
210
0.0
220
0.0
230
1.0
 10
668.0
 20
265.0
 40
0.0
 41
0.0
 42
0.0
 10
1238.0
 20
265.0
 40
0.0
 41
0.0
 42
0.0
 10
1238.0
 20
265.0
 40
0.0
 41
0.0
 42
0.0
 10
1241.5116257962902182
 20
264.6541350472581371
 40
0.0
 41
0.0
 42
0.0
 10
1244.8883017825717161
 20
263.6298315852031351
 40
0.0
 41
0.0
 42
0.0
 10
1248.0002641943528943
 20
261.9664530214458296
 40
0.0
 41
0.0
 42
0.0
 10
1250.7279220613579582
 20
259.7279220613578445
 40
0.0
 41
0.0
 42
0.0
 10
1252.9664530214458864
 20
257.0002641943528374
 40
0.0
 41
0.0
 42
0.0
 10
1254.6298315852031919
 20
253.8883017825716024
 40
0.0
 41
0.0
 42
0.0
 10
1255.6541350472582508
 20
250.5116257962903319
 40
0.0
 41
0.0
 42
0.0
 10
1256.0
 20
247.0
 40
0.0
 41
0.0
 42
0.0
 10
1256.0
 20
42.0
 40
0.0
 41
0.0
 42
0.0
 10
1256.0
 20
42.0
 40
0.0
 41
0.0
 42
0.0
 10
1255.6541350472582508
 20
38.4883742037096681
 40
0.0
 41
0.0
 42
0.0
 10
1254.6298315852031919
 20
35.1116982174283976
 40
0.0
 41
0.0
 42
0.0
 10
1252.9664530214458864
 20
31.9997358056471057
 40
0.0
 41
0.0
 42
0.0
 10
1250.7279220613579582
 20
29.2720779386421555
 40
0.0
 41
0.0
 42
0.0
 10
1248.0002641943528943
 20
27.0335469785542273
 40
0.0
 41
0.0
 42
0.0
 10
1244.8883017825717161
 20
25.3701684147968081
 40
0.0
 41
0.0
 42
0.0
 10
1241.5116257962902182
 20
24.3458649527418629
 40
0.0
 41
0.0
 42
0.0
 10
1238.0
 20
24.0
 40
0.0
 41
0.0
 42
0.0
 10
668.0
 20
24.0
 40
0.0
 41
0.0
 42
0.0
 10
668.0
 20
24.0
 40
0.0
 41
0.0
 42
0.0
 10
664.4883742037096681
 20
24.3458649527418629
 40
0.0
 41
0.0
 42
0.0
 10
661.1116982174283976
 20
25.3701684147968081
 40
0.0
 41
0.0
 42
0.0
 10
657.9997358056472194
 20
27.0335469785542273
 40
0.0
 41
0.0
 42
0.0
 10
655.2720779386421555
 20
29.2720779386421555
 40
0.0
 41
0.0
 42
0.0
 10
653.0335469785542273
 20
31.9997358056471057
 40
0.0
 41
0.0
 42
0.0
 10
651.3701684147968081
 20
35.1116982174283976
 40
0.0
 41
0.0
 42
0.0
 10
650.3458649527418629
 20
38.4883742037096681
 40
0.0
 41
0.0
 42
0.0
 10
650.0
 20
42.0
 40
0.0
 41
0.0
 42
0.0
 10
650.0
 20
247.0
 40
0.0
 41
0.0
 42
0.0
 10
650.0
 20
247.0
 40
0.0
 41
0.0
 42
0.0
 10
650.3458649527418629
 20
250.5116257962903319
 40
0.0
 41
0.0
 42
0.0
 10
651.3701684147968081
 20
253.8883017825716024
 40
0.0
 41
0.0
 42
0.0
 10
653.0335469785542273
 20
257.0002641943528374
 40
0.0
 41
0.0
 42
0.0
 10
655.2720779386421555
 20
259.7279220613578445
 40
0.0
 41
0.0
 42
0.0
 10
657.9997358056471057
 20
261.9664530214458296
 40
0.0
 41
0.0
 42
0.0
 10
661.1116982174283976
 20
263.6298315852031351
 40
0.0
 41
0.0
 42
0.0
 10
664.4883742037096681
 20
264.6541350472581371
 40
0.0
 41
0.0
 42
0.0
 10
668.0
 20
265.0
 40
0.0
 41
0.0
 42
0.0
  0
LWPOLYLINE
  5
39
330
1D
100
AcDbEntity
  8
0
  6
ByLayer
420
988970
 48
1.0
 60
0
 67
0
370
-1
100
AcDbPolyline
 90
4
 70
1
 43
0.0
 38
0.0
 39
0.0
210
0.0
220
0.0
230
1.0
 10
863.0
 20
249.0
 40
0.0
 41
0.0
 42
0.0
 10
1043.0
 20
249.0
 40
0.0
 41
0.0
 42
0.0
 10
1043.0
 20
69.0
 40
0.0
 41
0.0
 42
0.0
 10
863.0
 20
69.0
 40
0.0
 41
0.0
 42
0.0
  0
TEXT
  5
3A
330
1D
100
AcDbEntity
  8
0
  6
ByLayer
420
0
 48
1.0
 60
0
 67
0
370
-1
100
AcDbText
 39
0.0
 10
925.4000244140625
 20
45.0
 30
0.0
 40
14.0
  1
Polygon
 50
0.0
 41
1.0
 51
0.0
  7
Standard
 71
0
 72
0
 11
0.0
 21
0.0
 31
0.0
210
0.0
220
0.0
230
1.0
100
AcDbText
 73
0
  0
ENDSEC
  0
SECTION
  2
OBJECTS
  0
DICTIONARY
  5
1
330
0
100
AcDbDictionary
280
0
281
0
  3
ACAD_COLOR
350
2
  3
ACAD_GROUP
350
3
  3
ACAD_LAYOUT
350
4
  3
ACAD_MATERIAL
350
5
  3
ACAD_SORTENTS
350
6
  3
ACAD_MLEADERSTYLE
350
7
  3
ACAD_MLINESTYLE
350
8
  3
ACAD_TABLESTYLE
350
9
  3
ACAD_PLOTSETTINGS
350
A
  3
AcDbVariableDictionary
350
B
  3
ACAD_SCALELIST
350
C
  3
ACAD_VISUALSTYLE
350
D
  3
ACAD_FIELDLIST
350
E
  3
ACAD_IMAGE_DICT
350
F
  0
DICTIONARY
  5
2
330
1
100
AcDbDictionary
280
0
281
0
  0
DICTIONARY
  5
3
330
1
100
AcDbDictionary
280
0
281
0
  0
DICTIONARY
  5
4
330
1
100
AcDbDictionary
280
0
281
0
  0
DICTIONARY
  5
5
330
1
100
AcDbDictionary
280
0
281
0
  0
DICTIONARY
  5
6
330
1
100
AcDbDictionary
280
0
281
0
  0
DICTIONARY
  5
7
330
1
100
AcDbDictionary
280
0
281
0
  0
DICTIONARY
  5
8
330
1
100
AcDbDictionary
280
0
281
0
  0
DICTIONARY
  5
9
330
1
100
AcDbDictionary
280
0
281
0
  0
DICTIONARY
  5
A
330
1
100
AcDbDictionary
280
0
281
0
  0
DICTIONARY
  5
B
330
1
100
AcDbDictionary
280
0
281
0
  0
DICTIONARY
  5
C
330
1
100
AcDbDictionary
280
0
281
0
  0
DICTIONARY
  5
D
330
1
100
AcDbDictionary
280
0
281
0
  0
DICTIONARY
  5
E
330
1
100
AcDbDictionary
280
0
281
0
  0
DICTIONARY
  5
F
330
1
100
AcDbDictionary
280
0
281
0
  0
ENDSEC
  0
EOF
