<?xml version="1.0" encoding="UTF-8"?>
<svg xmlns="http://www.w3.org/2000/svg" xmlns:xlink="http://www.w3.org/1999/xlink" width="1240" height="815" viewBox="0 0 1240 815">
<defs>
<filter id="ds1" x="-50%" y="-50%" width="200%" height="200%"><feDropShadow dx="0" dy="4" stdDeviation="6" flood-color="rgba(0, 0, 0, 0.1)" result="s0"/></filter>
<linearGradient id="lg2" x1="67.25" y1="-65.25" x2="252.75" y2="120.25" gradientUnits="userSpaceOnUse"><stop offset="0%" stop-color="rgb(26, 35, 126)"/><stop offset="100%" stop-color="rgb(57, 73, 171)"/></linearGradient>
<clipPath id="clip3" clipPathUnits="userSpaceOnUse"><rect x="0" y="0" width="320" height="227.2" rx="12" ry="12"/></clipPath>
<linearGradient id="lg4" x1="42" y1="457.2" x2="42" y2="497.2" gradientUnits="userSpaceOnUse"><stop offset="0%" stop-color="#42a5f5"/><stop offset="100%" stop-color="#1565c0"/></linearGradient>
<linearGradient id="lg5" x1="82" y1="427.2" x2="82" y2="497.2" gradientUnits="userSpaceOnUse"><stop offset="0%" stop-color="#42a5f5"/><stop offset="100%" stop-color="#1565c0"/></linearGradient>
<linearGradient id="lg6" x1="122" y1="407.2" x2="122" y2="497.2" gradientUnits="userSpaceOnUse"><stop offset="0%" stop-color="#42a5f5"/><stop offset="100%" stop-color="#1565c0"/></linearGradient>
<linearGradient id="lg7" x1="162" y1="437.2" x2="162" y2="497.2" gradientUnits="userSpaceOnUse"><stop offset="0%" stop-color="#42a5f5"/><stop offset="100%" stop-color="#1565c0"/></linearGradient>
<linearGradient id="lg8" x1="202" y1="397.2" x2="202" y2="497.2" gradientUnits="userSpaceOnUse"><stop offset="0%" stop-color="#42a5f5"/><stop offset="100%" stop-color="#1565c0"/></linearGradient>
<linearGradient id="lg9" x1="242" y1="422.2" x2="242" y2="497.2" gradientUnits="userSpaceOnUse"><stop offset="0%" stop-color="#42a5f5"/><stop offset="100%" stop-color="#1565c0"/></linearGradient>
<linearGradient id="lg10" x1="282" y1="387.2" x2="282" y2="497.2" gradientUnits="userSpaceOnUse"><stop offset="0%" stop-color="#42a5f5"/><stop offset="100%" stop-color="#1565c0"/></linearGradient>
<linearGradient id="lg11" x1="620" y1="584.7" x2="620" y2="634.2" gradientUnits="userSpaceOnUse"><stop offset="0%" stop-color="rgb(237, 231, 246)"/><stop offset="100%" stop-color="rgb(209, 196, 233)"/></linearGradient>
</defs>
<g  filter="url(#ds1)" data-source-xpath="/html/body/div/div[1]" data-source-original-type="div"><g><rect x="0" y="0" width="320" height="227.2" rx="12" ry="12" fill="rgb(255, 255, 255)"/><rect x="0" y="0" width="320" height="227.2" rx="12" ry="12" fill="none" stroke="rgb(224, 224, 224)" stroke-width="1"/></g></g>
<g clip-path="url(#clip3)"><g data-source-xpath="/html/body/div/div[1]/div[1]" data-source-original-type="div"><rect x="1" y="1" width="318" height="53" rx="0" ry="0" fill="rgb(26, 35, 126)"/><rect x="1" y="1" width="318" height="53" rx="0" ry="0" fill="url(#lg2)"/></g></g>
<g clip-path="url(#clip3)"><text  x="21" y="18.5" fill="rgb(255, 255, 255)" dominant-baseline="text-before-edge" font-weight="700" font-size="18px" font-family="Arial, sans-serif" data-source-xpath="/html/body/div/div[1]/div[1]" data-source-original-type="div">Feature Overview</text></g>
<g clip-path="url(#clip3)"><text  x="21" y="74.2" fill="rgb(85, 85, 85)" dominant-baseline="text-before-edge" font-size="14px" font-family="Arial, sans-serif" data-source-xpath="/html/body/div/div[1]/div[2]/p" data-source-original-type="p">This card combines gradients, borders,</text></g>
<g clip-path="url(#clip3)"><text  x="21" y="96.6" fill="rgb(85, 85, 85)" dominant-baseline="text-before-edge" font-size="14px" font-family="Arial, sans-serif" data-source-xpath="/html/body/div/div[1]/div[2]/p" data-source-original-type="p">border-radius, box-shadow, and typography</text></g>
<g clip-path="url(#clip3)"><text  x="21" y="119" fill="rgb(85, 85, 85)" dominant-baseline="text-before-edge" font-size="14px" font-family="Arial, sans-serif" data-source-xpath="/html/body/div/div[1]/div[2]/p" data-source-original-type="p">in a realistic component layout.</text></g>
<g clip-path="url(#clip3)"><rect  x="1" y="165.2" width="318" height="61" rx="0" ry="0" fill="rgb(245, 245, 245)" data-source-xpath="/html/body/div/div[1]/div[3]" data-source-original-type="div"/></g>
<line x1="1" y1="165.2" x2="319" y2="165.2" stroke="rgb(224, 224, 224)" stroke-width="1"/>
<g clip-path="url(#clip3)"><rect  x="21" y="178.2" width="75.9" height="36" rx="6" ry="6" fill="rgb(30, 136, 229)" data-source-xpath="/html/body/div/div[1]/div[3]/button[1]" data-source-original-type="button"/></g>
<g clip-path="url(#clip3)"><text  x="37" y="189.7" fill="rgb(255, 255, 255)" dominant-baseline="text-before-edge" font-weight="600" font-size="13px" font-family="MS Shell Dlg \32" data-source-xpath="/html/body/div/div[1]/div[3]/button[1]" data-source-original-type="button">Accept</text></g>
<g clip-path="url(#clip3)"><rect  x="106.9" y="178.2" width="79.27" height="36" rx="6" ry="6" fill="none" stroke="rgb(30, 136, 229)" stroke-width="2" data-source-xpath="/html/body/div/div[1]/div[3]/button[2]" data-source-original-type="button"/></g>
<g clip-path="url(#clip3)"><text  x="124.9" y="189.7" fill="rgb(30, 136, 229)" dominant-baseline="text-before-edge" font-weight="600" font-size="13px" font-family="MS Shell Dlg \32" data-source-xpath="/html/body/div/div[1]/div[3]/button[2]" data-source-original-type="button">Cancel</text></g>
<g data-source-xpath="/html/body/div/div[2]/div[1]" data-source-original-type="div"><rect x="0" y="247.2" width="189.33" height="93" rx="10" ry="10" fill="rgb(255, 255, 255)"/><rect x="0" y="247.2" width="189.33" height="93" rx="10" ry="10" fill="none" stroke="rgb(224, 224, 224)" stroke-width="1"/></g>
<text  x="52.63" y="270.2" fill="rgb(26, 35, 126)" dominant-baseline="text-before-edge" font-weight="800" font-size="28px" font-family="Arial, sans-serif" data-source-xpath="/html/body/div/div[2]/div[1]/div[1]" data-source-original-type="div">1,284</text>
<text  x="71.5" y="309.7" fill="rgb(136, 136, 136)" dominant-baseline="text-before-edge" font-size="12px" font-family="Arial, sans-serif" letter-spacing="1px" data-source-xpath="/html/body/div/div[2]/div[1]/div[2]" data-source-original-type="div">USERS</text>
<g data-source-xpath="/html/body/div/div[2]/div[2]" data-source-original-type="div"><rect x="205.33" y="247.2" width="189.33" height="93" rx="10" ry="10" fill="rgb(255, 255, 255)"/><rect x="205.33" y="247.2" width="189.33" height="93" rx="10" ry="10" fill="none" stroke="rgb(224, 224, 224)" stroke-width="1"/></g>
<text  x="262.63" y="270.2" fill="rgb(26, 35, 126)" dominant-baseline="text-before-edge" font-weight="800" font-size="28px" font-family="Arial, sans-serif" data-source-xpath="/html/body/div/div[2]/div[2]/div[1]" data-source-original-type="div">$34k</text>
<text  x="267.5" y="309.7" fill="rgb(136, 136, 136)" dominant-baseline="text-before-edge" font-size="12px" font-family="Arial, sans-serif" letter-spacing="1px" data-source-xpath="/html/body/div/div[2]/div[2]/div[2]" data-source-original-type="div">REVENUE</text>
<g data-source-xpath="/html/body/div/div[2]/div[3]" data-source-original-type="div"><rect x="410.67" y="247.2" width="189.33" height="93" rx="10" ry="10" fill="rgb(255, 255, 255)"/><rect x="410.67" y="247.2" width="189.33" height="93" rx="10" ry="10" fill="none" stroke="rgb(224, 224, 224)" stroke-width="1"/></g>
<text  x="458.65" y="270.2" fill="rgb(26, 35, 126)" dominant-baseline="text-before-edge" font-weight="800" font-size="28px" font-family="Arial, sans-serif" data-source-xpath="/html/body/div/div[2]/div[3]/div[1]" data-source-original-type="div">98.6%</text>
<text  x="479.67" y="309.7" fill="rgb(136, 136, 136)" dominant-baseline="text-before-edge" font-size="12px" font-family="Arial, sans-serif" letter-spacing="1px" data-source-xpath="/html/body/div/div[2]/div[3]/div[2]" data-source-original-type="div">UPTIME</text>
<g data-source-xpath="/html/body/div/div[3]" data-source-original-type="div"><rect x="0" y="360.2" width="1240" height="157.5" rx="8" ry="8" fill="rgb(255, 255, 255)"/><rect x="0" y="360.2" width="1240" height="157.5" rx="8" ry="8" fill="none" stroke="rgb(224, 224, 224)" stroke-width="1"/></g>
<g data-source-xpath="/html/body/div/div[3]/svg/rect[1]" data-source-original-type="rect"><rect x="27" y="457.2" width="30" height="40" rx="3" ry="3" fill="#42a5f5"/><rect x="27" y="457.2" width="30" height="40" rx="3" ry="3" fill="url(#lg4)"/></g>
<g data-source-xpath="/html/body/div/div[3]/svg/rect[2]" data-source-original-type="rect"><rect x="67" y="427.2" width="30" height="70" rx="3" ry="3" fill="#42a5f5"/><rect x="67" y="427.2" width="30" height="70" rx="3" ry="3" fill="url(#lg5)"/></g>
<g data-source-xpath="/html/body/div/div[3]/svg/rect[3]" data-source-original-type="rect"><rect x="107" y="407.2" width="30" height="90" rx="3" ry="3" fill="#42a5f5"/><rect x="107" y="407.2" width="30" height="90" rx="3" ry="3" fill="url(#lg6)"/></g>
<g data-source-xpath="/html/body/div/div[3]/svg/rect[4]" data-source-original-type="rect"><rect x="147" y="437.2" width="30" height="60" rx="3" ry="3" fill="#42a5f5"/><rect x="147" y="437.2" width="30" height="60" rx="3" ry="3" fill="url(#lg7)"/></g>
<g data-source-xpath="/html/body/div/div[3]/svg/rect[5]" data-source-original-type="rect"><rect x="187" y="397.2" width="30" height="100" rx="3" ry="3" fill="#42a5f5"/><rect x="187" y="397.2" width="30" height="100" rx="3" ry="3" fill="url(#lg8)"/></g>
<g data-source-xpath="/html/body/div/div[3]/svg/rect[6]" data-source-original-type="rect"><rect x="227" y="422.2" width="30" height="75" rx="3" ry="3" fill="#42a5f5"/><rect x="227" y="422.2" width="30" height="75" rx="3" ry="3" fill="url(#lg9)"/></g>
<g data-source-xpath="/html/body/div/div[3]/svg/rect[7]" data-source-original-type="rect"><rect x="267" y="387.2" width="30" height="110" rx="3" ry="3" fill="#42a5f5"/><rect x="267" y="387.2" width="30" height="110" rx="3" ry="3" fill="url(#lg10)"/></g>
<path  d="M42,447.2 L82,417.2 L122,397.2 L162,427.2 L202,387.2 L242,412.2 L282,382.2" fill="none" stroke="rgb(229, 57, 53)" stroke-width="2" data-source-xpath="/html/body/div/div[3]/svg/polyline" data-source-original-type="polyline"/>
<text  x="127.53" y="486.7" fill="rgb(136, 136, 136)" dominant-baseline="text-before-edge" font-size="10px" font-family="Arial, sans-serif" data-source-xpath="/html/body/div/div[3]/svg/text" data-source-original-type="text">Monthly Data</text>
<rect  x="0" y="537.7" width="64" height="27" rx="13.5" ry="13.5" fill="rgb(67, 160, 71)" data-source-xpath="/html/body/div/div[4]/span[1]" data-source-original-type="span"/>
<text  x="14" y="545.2" fill="rgb(255, 255, 255)" dominant-baseline="text-before-edge" font-weight="700" font-size="12px" font-family="Arial, sans-serif" data-source-xpath="/html/body/div/div[4]/span[1]" data-source-original-type="span">Active</text>
<path  d="M76.05,553.17 Q75.35,539.69 88.83,538.98 L137.09,536.45 Q150.58,535.75 151.28,549.23 L151.28,549.23 Q151.99,562.71 138.51,563.42 L90.24,565.95 Q76.76,566.65 76.05,553.17 Z" fill="rgb(251, 140, 0)" data-source-xpath="/html/body/div/div[4]/span[2]" data-source-original-type="span"/>
<text  x="0" y="1" fill="rgb(255, 255, 255)" dominant-baseline="text-before-edge" font-weight="700" font-size="12px" font-family="Arial, sans-serif" transform="matrix(1,-0.05,0.05,1,89.67,545.45)" data-source-xpath="/html/body/div/div[4]/span[2]" data-source-original-type="span">Pending</text>
<rect  x="159.9" y="536.35" width="75.53" height="29.7" rx="14.85" ry="14.85" fill="rgb(229, 57, 53)" data-source-xpath="/html/body/div/div[4]/span[3]" data-source-original-type="span"/>
<text  x="175.3" y="545.2" fill="rgb(255, 255, 255)" dominant-baseline="text-before-edge" font-weight="700" font-size="12px" font-family="Arial, sans-serif" data-source-xpath="/html/body/div/div[4]/span[3]" data-source-original-type="span">Critical</text>
<path  d="M244,551.2 Q245.18,537.7 258.73,537.7 L281.63,537.7 Q295.18,537.7 294,551.2 L294,551.2 Q292.82,564.7 279.27,564.7 L256.37,564.7 Q242.82,564.7 244,551.2 Z" fill="rgb(30, 136, 229)" data-source-xpath="/html/body/div/div[4]/span[4]" data-source-original-type="span"/>
<text  x="0" y="1.03" fill="rgb(255, 255, 255)" dominant-baseline="text-before-edge" font-weight="700" font-size="12px" font-family="Arial, sans-serif" transform="matrix(1,0,-0.09,1,258.61,544.2)" data-source-xpath="/html/body/div/div[4]/span[4]" data-source-original-type="span">Info</text>
<g data-source-xpath="/html/body/div/div[5]" data-source-original-type="div"><rect x="0" y="584.7" width="1240" height="49.5" rx="10" ry="10" fill="rgb(237, 231, 246)"/><rect x="0" y="584.7" width="1240" height="49.5" rx="10" ry="10" fill="url(#lg11)"/><rect x="0" y="584.7" width="1240" height="49.5" rx="10" ry="10" fill="none" stroke="rgb(126, 87, 194)" stroke-width="2"/></g>
<text  x="2" y="587.7" fill="rgb(69, 39, 160)" dominant-baseline="text-before-edge" font-weight="700" font-size="16px" font-family="Arial, sans-serif" data-source-xpath="/html/body/div/div[5]/shadow-root()/div" data-source-original-type="div">Shadow DOM Widget</text>
<text  x="2" y="615.95" fill="rgb(94, 53, 177)" dominant-baseline="text-before-edge" font-size="13px" font-family="Arial, sans-serif" data-source-xpath="/html/body/div/div[5]/shadow-root()/div" data-source-original-type="div">This widget lives inside a declarative shadow root with its own scoped styles, gradients, and borders.</text>
<g  opacity="0.7" data-source-xpath="/html/body/div/div[6]/div[1]" data-source-original-type="div"><rect x="0" y="654.2" width="100" height="100" rx="50" ry="50" fill="rgb(244, 67, 54)"/></g>
<g  opacity="0.7" data-source-xpath="/html/body/div/div[6]/div[2]" data-source-original-type="div"><rect x="40" y="674.2" width="100" height="100" rx="50" ry="50" fill="rgb(76, 175, 80)"/></g>
<g  opacity="0.7" data-source-xpath="/html/body/div/div[6]/div[3]" data-source-original-type="div"><rect x="80" y="694.2" width="100" height="100" rx="50" ry="50" fill="rgb(33, 150, 243)"/></g>
</svg>