  0
SECTION
  2
HEADER
  9
$ANGBASE
 50
0.0
  9
$ANGDIR
 70
1
  9
$AUNITS
 70
0
  9
$AUPREC
 70
0
  9
$ATTMODE
 70
1
  9
$DWGCODEPAGE
  3
ANSI_1252
  9
$TDCREATE
 40
2461147.0198284722864628
  9
$CECOLOR
 62
256
  9
$CELTSCALE
 40
1.0
  9
$CELWEIGHT
370
-1
  9
$CLAYER
  8
0
  9
$CELTYPE
  6
ByLayer
  9
$CMLJUST
 70
0
  9
$CMLSCALE
 40
20.0
  9
$CMLSTYLE
  2
Standard
  9
$DIMSTYLE
  2
Standard
  9
$LWDISPLAY
290
0
  9
$EXTNAMES
290
1
  9
$HANDSEED
  5
59
  9
$INSUNITS
 70
0
  9
$LUNITS
 70
2
  9
$LUPREC
 70
4
  9
$LTSCALE
 40
1.0
  9
$MIRRTEXT
 70
0
  9
$INSBASE
 10
0.0
 20
0.0
 30
0.0
  9
$SPLINESEGS
 70
8
  9
$PSLTSCALE
 70
1
  9
$PDMODE
 70
0
  9
$PDSIZE
 40
0.0
  9
$PLINEGEN
 70
0
  9
$TEXTSIZE
 40
0.2
  9
$TEXTSTYLE
  7
Standard
  9
$TDINDWG
 40
0.0
  9
$TDUCREATE
 40
2461147.0198284722864628
  9
$TDUUPDATE
 40
2461147.0198284722864628
  9
$TDUPDATE
 40
2461147.0198284722864628
  9
$ACADVER
  1
AC1018
  0
ENDSEC
  0
SECTION
  2
CLASSES
  0
CLASS
  1
ACDBDICTIONARYWDFLT
  2
AcDbDictionaryWithDefault
  3
ObjectDBX Classes
 90
32768
 91
0
280
0
281
0
  0
CLASS
  1
ACDBPLACEHOLDER
  2
AcDbPlaceHolder
  3
ObjectDBX Classes
 90
0
 91
0
280
0
281
0
  0
CLASS
  1
LAYOUT
  2
AcDbLayout
  3
ObjectDBX Classes
 90
0
 91
0
280
0
281
0
  0
CLASS
  1
DICTIONARYVAR
  2
AcDbDictionaryVar
  3
ObjectDBX Classes
 90
0
 91
0
280
0
281
0
  0
CLASS
  1
TABLESTYLE
  2
AcDbTableStyle
  3
ObjectDBX Classes
 90
4095
 91
0
280
0
281
0
  0
CLASS
  1
MATERIAL
  2
AcDbMaterial
  3
ObjectDBX Classes
 90
1153
 91
0
280
0
281
0
  0
CLASS
  1
VISUALSTYLE
  2
AcDbVisualStyle
  3
ObjectDBX Classes
 90
4095
 91
0
280
0
281
0
  0
CLASS
  1
SCALE
  2
AcDbScale
  3
ObjectDBX Classes
 90
1153
 91
0
280
0
281
0
  0
CLASS
  1
MLEADERSTYLE
  2
AcDbMLeaderStyle
  3
ObjectDBX Classes
 90
4095
 91
0
280
0
281
0
  0
CLASS
  1
CELLSTYLEMAP
  2
AcDbCellStyleMap
  3
ObjectDBX Classes
 90
1152
 91
0
280
0
281
0
  0
CLASS
  1
EXACXREFPANELOBJECT
  2
ExAcXREFPanelObject
  3
ObjectDBX Classes
 90
1025
 91
0
280
0
281
0
  0
CLASS
  1
NPOCOLLECTION
  2
AcDbImpNonPersistentObjectsCollection
  3
ObjectDBX Classes
 90
1153
 91
0
280
0
281
0
  0
CLASS
  1
LAYER_INDEX
  2
AcDbLayerIndex
  3
ObjectDBX Classes
 90
0
 91
0
280
0
281
0
  0
CLASS
  1
SPATIAL_INDEX
  2
AcDbSpatialIndex
  3
ObjectDBX Classes
 90
0
 91
0
280
0
281
0
  0
CLASS
  1
IDBUFFER
  2
AcDbIdBuffer
  3
ObjectDBX Classes
 90
32768
 91
0
280
0
281
0
  0
CLASS
  1
ACDBSECTIONVIEWSTYLE
  2
AcDbSectionViewStyle
  3
ObjectDBX Classes
 90
1025
 91
0
280
0
281
0
  0
CLASS
  1
ACDBDETAILVIEWSTYLE
  2
AcDbDetailViewStyle
  3
ObjectDBX Classes
 90
1025
 91
0
280
0
281
0
  0
CLASS
  1
MESH
  2
AcDbSubDMesh
  3
ObjectDBX Classes
 90
0
 91
0
280
0
281
1
  0
CLASS
  1
SORTENTSTABLE
  2
AcDbSortentsTable
  3
ObjectDBX Classes
 90
0
 91
0
280
0
281
0
  0
CLASS
  1
ACDB_TEXTOBJECTCONTEXTDATA_CLASS
  2
AcDbTextObjectContextData
  3
ObjectDBX Classes
 90
1153
 91
0
280
0
281
0
  0
CLASS
  1
WIPEOUT
  2
AcDbWipeout
  3
WipeOut
 90
32895
 91
0
280
0
281
1
  0
CLASS
  1
WIPEOUTVARIABLES
  2
AcDbWipeoutVariables
  3
WipeOut
 90
32768
 91
0
280
0
281
0
  0
CLASS
  1
DIMASSOC
  2
AcDbDimAssoc
  3
AcDbDimAssoc
 90
0
 91
0
280
0
281
0
  0
CLASS
  1
ACAD_TABLE
  2
AcDbTable
  3
ObjectDBX Classes
 90
1025
 91
0
280
0
281
1
  0
CLASS
  1
TABLECONTENT
  2
AcDbTableContent
  3
ObjectDBX Classes
 90
1152
 91
0
280
0
281
0
  0
CLASS
  1
TABLEGEOMETRY
  2
AcDbTableGeometry
  3
ObjectDBX Classes
 90
1152
 91
0
280
0
281
0
  0
CLASS
  1
IMAGE
  2
AcDbRasterImage
  3
ISM
 90
32895
 91
0
280
0
281
1
  0
CLASS
  1
IMAGEDEF
  2
AcDbRasterImageDef
  3
ISM
 90
0
 91
0
280
0
281
0
  0
CLASS
  1
IMAGEDEF_REACTOR
  2
AcDbRasterImageDefReactor
  3
ISM
 90
1
 91
0
280
0
281
0
  0
CLASS
  1
DBCOLOR
  2
AcDbColor
  3
ObjectDBX Classes
 90
0
 91
0
280
0
281
0
  0
CLASS
  1
GEODATA
  2
AcDbGeoData
  3
ObjectDBX Classes
 90
4095
 91
0
280
0
281
0
  0
CLASS
  1
MULTILEADER
  2
AcDbMLeader
  3
ObjectDBX Classes
 90
1025
 91
0
280
0
281
0
  0
CLASS
  1
PDFUNDERLAY
  2
AcDbPdfReference
  3
ObjectDBX Classes
 90
4095
 91
0
280
0
281
1
  0
CLASS
  1
PDFDEFINITION
  2
AcDbPdfDefinition
  3
ObjectDBX Classes
 90
1153
 91
0
280
0
281
0
  0
CLASS
  1
RASTERVARIABLES
  2
AcDbRasterVariables
  3
ISM
 90
0
 91
0
280
0
281
0
  0
CLASS
  1
SPATIAL_FILTER
  2
AcDbSpatialFilter
  3
ObjectDBX Classes
 90
0
 91
0
280
0
281
0
  0
CLASS
  1
ACDB_MLEADEROBJECTCONTEXTDATA_CLASS
  2
AcDbMLeaderObjectContextData
  3
ObjectDBX Classes
 90
1025
 91
0
280
0
281
0
  0
CLASS
  1
PLOTSETTINGS
  2
AcDbPlotSettings
  3
ObjectDBX Classes
 90
0
 91
0
280
0
281
0
  0
CLASS
  1
FIELD
  2
AcDbField
  3
ObjectDBX Classes
 90
1152
 91
0
280
0
281
0
  0
CLASS
  1
FIELDLIST
  2
AcDbFieldList
  3
ObjectDBX Classes
 90
1152
 91
0
280
0
281
0
  0
CLASS
  1
ACDB_MTEXTATTRIBUTEOBJECTCONTEXTDATA_CLASS
  2
AcDbMTextAttributeObjectContextData
  3
ObjectDBX Classes
 90
1153
 91
0
280
0
281
0
  0
CLASS
  1
ACDB_BLKREFOBJECTCONTEXTDATA_CLASS
  2
AcDbBlkRefObjectContextData
  3
ObjectDBX Classes
 90
1153
 91
0
280
0
281
0
  0
ENDSEC
  0
SECTION
  2
TABLES
  0
TABLE
  2
VPORT
  5
18
330
0
100
AcDbSymbolTable
 70
1
  0
VPORT
  5
26
330
18
100
AcDbSymbolTableRecord
100
AcDbViewportTableRecord
  2
*Active
 70
0
 10
0.0
 20
0.0
 11
1.0
 21
1.0
 12
0.0
 22
0.0
 13
0.0
 23
0.0
 14
0.5
 24
0.5
 15
10.0
 25
10.0
 16
0.0
 26
0.0
 36
1.0
 17
0.0
 27
0.0
 37
0.0
 40
10.0
 41
1.0
 75
0
 76
1
  0
ENDTAB
  0
TABLE
  2
LTYPE
  5
14
330
0
100
AcDbSymbolTable
 70
3
  0
LTYPE
  5
19
330
14
100
AcDbSymbolTableRecord
100
AcDbLinetypeTableRecord
  2
ByLayer
 70
0
 72
0
 73
0
 40
0.0
  0
LTYPE
  5
1A
330
14
100
AcDbSymbolTableRecord
100
AcDbLinetypeTableRecord
  2
ByBlock
 70
0
 72
0
 73
0
 40
0.0
  0
LTYPE
  5
1B
330
14
100
AcDbSymbolTableRecord
100
AcDbLinetypeTableRecord
  2
Continuous
 70
0
 72
0
 73
0
 40
0.0
  0
ENDTAB
  0
TABLE
  2
LAYER
  5
13
330
0
100
AcDbSymbolTable
 70
1
  0
LAYER
  5
1C
330
13
100
AcDbSymbolTableRecord
100
AcDbLayerTableRecord
  2
0
 70
0
 62
7
  6
Continuous
290
1
370
-3
390
0
  0
ENDTAB
  0
TABLE
  2
STYLE
  5
15
330
0
100
AcDbSymbolTable
 70
1
  0
STYLE
  5
23
330
15
100
AcDbSymbolTableRecord
100
AcDbTextStyleTableRecord
  2
Standard
 70
0
 40
0.0
 41
1.0
 42
0.0
 50
0.0
 71
0
  0
ENDTAB
  0
TABLE
  2
VIEW
  5
17
330
0
100
AcDbSymbolTable
 70
0
  0
ENDTAB
  0
TABLE
  2
UCS
  5
16
330
0
100
AcDbSymbolTable
 70
0
  0
ENDTAB
  0
TABLE
  2
APPID
  5
10
330
0
100
AcDbSymbolTable
 70
1
  0
APPID
  5
25
330
10
100
AcDbSymbolTableRecord
100
AcDbRegAppTableRecord
  2
ACAD
 70
0
  0
ENDTAB
  0
TABLE
  2
DIMSTYLE
  5
12
330
0
100
AcDbSymbolTable
 70
1
100
AcDbDimStyleTable
  0
DIMSTYLE
105
24
330
12
100
AcDbSymbolTableRecord
100
AcDbDimStyleTableRecord
  2
Standard
 70
0
  3
<>
  4
[]
 40
1.0
 41
0.18
 42
0.625
 43
3.75
 44
1.25
 45
0.0
 46
0.0
 47
0.0
 48
0.0
 49
1.0
 50
45.0
 70
0
 90
0
140
0.18
141
0.09
142
0.0
143
25.3999999999999986
144
1.0
145
0.0
146
1.0
147
0.625
148
0.0
 71
0
 72
0
 73
0
 74
0
 75
0
 76
0
 77
1
 78
8
 79
0
170
0
171
3
172
0
173
1
174
0
175
0
176
0
177
0
178
0
179
0
271
2
272
2
273
2
274
3
275
0
276
0
277
2
278
46
279
0
280
0
281
0
282
0
283
0
284
8
285
0
286
0
287
0
288
0
289
3
290
0
340
0
371
-2
372
-2
  0
ENDTAB
  0
TABLE
  2
BLOCK_RECORD
  5
11
330
0
100
AcDbSymbolTable
 70
2
  0
BLOCK_RECORD
  5
1D
330
11
100
AcDbSymbolTableRecord
100
AcDbBlockTableRecord
  2
*Model_Space
 70
0
340
0
 70
0
280
0
281
1
  0
BLOCK_RECORD
  5
20
330
11
100
AcDbSymbolTableRecord
100
AcDbBlockTableRecord
  2
*Paper_Space
 70
0
340
0
 70
0
280
0
281
1
  0
ENDTAB
  0
ENDSEC
  0
SECTION
  2
BLOCKS
  0
BLOCK
  5
1E
330
1D
100
AcDbEntity
  8
0
  6
ByLayer
 62
256
 48
1.0
 60
0
 67
0
370
-1
100
AcDbBlockBegin
  2
*Model_Space
 70
0
 10
0.0
 20
0.0
 30
0.0
  3
*Model_Space
  0
ENDBLK
  5
1F
330
1D
100
AcDbEntity
  8
0
100
AcDbBlockEnd
  0
BLOCK
  5
21
330
20
100
AcDbEntity
  8
0
  6
ByLayer
 62
256
 48
1.0
 60
0
 67
1
370
-1
100
AcDbBlockBegin
  2
*Paper_Space
 70
0
 10
0.0
 20
0.0
 30
0.0
  3
*Paper_Space
  0
ENDBLK
  5
22
330
20
100
AcDbEntity
  8
0
100
AcDbBlockEnd
  0
ENDSEC
  0
SECTION
  2
ENTITIES
  0
HATCH
  5
27
330
1D
100
AcDbEntity
  8
0
  6
ByLayer
420
4359668
 48
1.0
 60
0
 67
0
370
-1
100
AcDbHatch
 30
0.0
210
0.0
220
0.0
230
1.0
  2
SOLID
 70
1
 71
0
 91
1
 92
2
 72
0
 73
1
 93
41
 10
50.0
 20
520.0
 10
190.0
 20
520.0
 10
190.0
 20
520.0
 10
195.8527096604838391
 20
519.4235584120968952
 10
201.4805029709526991
 20
517.7163859753386532
 10
206.6671069905880813
 20
514.9440883690763258
 10
211.2132034355964265
 20
511.2132034355964265
 10
214.9440883690763542
 20
506.6671069905880813
 10
217.7163859753385964
 20
501.4805029709526707
 10
219.4235584120969236
 20
495.8527096604838675
 10
220.0
 20
490.0
 10
220.0
 20
410.0
 10
220.0
 20
410.0
 10
219.4235584120969236
 20
404.1472903395161893
 10
217.7163859753385964
 20
398.5194970290473293
 10
214.9440883690763542
 20
393.3328930094119187
 10
211.2132034355964265
 20
388.7867965644035735
 10
206.6671069905880813
 20
385.0559116309236742
 10
201.4805029709526991
 20
382.2836140246614036
 10
195.8527096604838391
 20
380.5764415879031048
 10
190.0
 20
380.0
 10
50.0
 20
380.0
 10
50.0
 20
380.0
 10
44.1472903395161538
 20
380.5764415879031048
 10
38.519497029047308
 20
382.2836140246614036
 10
33.33289300941194
 20
385.0559116309236742
 10
28.786796564403577
 20
388.7867965644035735
 10
25.0559116309236387
 20
393.3328930094119187
 10
22.2836140246613965
 20
398.5194970290473293
 10
20.5764415879030871
 20
404.1472903395161325
 10
20.0
 20
410.0
 10
20.0
 20
490.0
 10
20.0
 20
490.0
 10
20.5764415879030871
 20
495.8527096604838675
 10
22.283614024661393
 20
501.4805029709526707
 10
25.0559116309236352
 20
506.6671069905880813
 10
28.7867965644035699
 20
511.2132034355964265
 10
33.3328930094119329
 20
514.9440883690763258
 10
38.5194970290472867
 20
517.7163859753386532
 10
44.1472903395161396
 20
519.4235584120968952
 10
49.9999999999999929
 20
520.0
 97
0
 75
0
 76
1
 47
0.0
 98
0
  0
LWPOLYLINE
  5
28
330
1D
100
AcDbEntity
  8
0
  6
ByLayer
420
4359668
 48
1.0
 60
0
 67
0
370
-1
100
AcDbPolyline
 90
41
 70
1
 43
0.0
 38
0.0
 39
0.0
210
0.0
220
0.0
230
1.0
 10
50.0
 20
520.0
 40
0.0
 41
0.0
 42
0.0
 10
190.0
 20
520.0
 40
0.0
 41
0.0
 42
0.0
 10
190.0
 20
520.0
 40
0.0
 41
0.0
 42
0.0
 10
195.8527096604838391
 20
519.4235584120968952
 40
0.0
 41
0.0
 42
0.0
 10
201.4805029709526991
 20
517.7163859753386532
 40
0.0
 41
0.0
 42
0.0
 10
206.6671069905880813
 20
514.9440883690763258
 40
0.0
 41
0.0
 42
0.0
 10
211.2132034355964265
 20
511.2132034355964265
 40
0.0
 41
0.0
 42
0.0
 10
214.9440883690763542
 20
506.6671069905880813
 40
0.0
 41
0.0
 42
0.0
 10
217.7163859753385964
 20
501.4805029709526707
 40
0.0
 41
0.0
 42
0.0
 10
219.4235584120969236
 20
495.8527096604838675
 40
0.0
 41
0.0
 42
0.0
 10
220.0
 20
490.0
 40
0.0
 41
0.0
 42
0.0
 10
220.0
 20
410.0
 40
0.0
 41
0.0
 42
0.0
 10
220.0
 20
410.0
 40
0.0
 41
0.0
 42
0.0
 10
219.4235584120969236
 20
404.1472903395161893
 40
0.0
 41
0.0
 42
0.0
 10
217.7163859753385964
 20
398.5194970290473293
 40
0.0
 41
0.0
 42
0.0
 10
214.9440883690763542
 20
393.3328930094119187
 40
0.0
 41
0.0
 42
0.0
 10
211.2132034355964265
 20
388.7867965644035735
 40
0.0
 41
0.0
 42
0.0
 10
206.6671069905880813
 20
385.0559116309236742
 40
0.0
 41
0.0
 42
0.0
 10
201.4805029709526991
 20
382.2836140246614036
 40
0.0
 41
0.0
 42
0.0
 10
195.8527096604838391
 20
380.5764415879031048
 40
0.0
 41
0.0
 42
0.0
 10
190.0
 20
380.0
 40
0.0
 41
0.0
 42
0.0
 10
50.0
 20
380.0
 40
0.0
 41
0.0
 42
0.0
 10
50.0
 20
380.0
 40
0.0
 41
0.0
 42
0.0
 10
44.1472903395161538
 20
380.5764415879031048
 40
0.0
 41
0.0
 42
0.0
 10
38.519497029047308
 20
382.2836140246614036
 40
0.0
 41
0.0
 42
0.0
 10
33.33289300941194
 20
385.0559116309236742
 40
0.0
 41
0.0
 42
0.0
 10
28.786796564403577
 20
388.7867965644035735
 40
0.0
 41
0.0
 42
0.0
 10
25.0559116309236387
 20
393.3328930094119187
 40
0.0
 41
0.0
 42
0.0
 10
22.2836140246613965
 20
398.5194970290473293
 40
0.0
 41
0.0
 42
0.0
 10
20.5764415879030871
 20
404.1472903395161325
 40
0.0
 41
0.0
 42
0.0
 10
20.0
 20
410.0
 40
0.0
 41
0.0
 42
0.0
 10
20.0
 20
490.0
 40
0.0
 41
0.0
 42
0.0
 10
20.0
 20
490.0
 40
0.0
 41
0.0
 42
0.0
 10
20.5764415879030871
 20
495.8527096604838675
 40
0.0
 41
0.0
 42
0.0
 10
22.283614024661393
 20
501.4805029709526707
 40
0.0
 41
0.0
 42
0.0
 10
25.0559116309236352
 20
506.6671069905880813
 40
0.0
 41
0.0
 42
0.0
 10
28.7867965644035699
 20
511.2132034355964265
 40
0.0
 41
0.0
 42
0.0
 10
33.3328930094119329
 20
514.9440883690763258
 40
0.0
 41
0.0
 42
0.0
 10
38.5194970290472867
 20
517.7163859753386532
 40
0.0
 41
0.0
 42
0.0
 10
44.1472903395161396
 20
519.4235584120968952
 40
0.0
 41
0.0
 42
0.0
 10
49.9999999999999929
 20
520.0
 40
0.0
 41
0.0
 42
0.0
  0
TEXT
  5
29
330
1D
100
AcDbEntity
  8
0
  6
ByLayer
420
16777215
 48
1.0
 60
0
 67
0
370
-1
100
AcDbText
 39
0.0
 10
99.366668701171875
 20
455.0
 30
0.0
 40
14.0
  1
Round
 50
0.0
 41
1.0
 51
0.0
  7
Standard
 71
0
 72
0
 11
0.0
 21
0.0
 31
0.0
210
0.0
220
0.0
230
1.0
100
AcDbText
 73
0
  0
TEXT
  5
2A
330
1D
100
AcDbEntity
  8
0
  6
ByLayer
420
16777215
 48
1.0
 60
0
 67
0
370
-1
100
AcDbText
 39
0.0
 10
94.3166656494140625
 20
438.0
 30
0.0
 40
14.0
  1
(default)
 50
0.0
 41
1.0
 51
0.0
  7
Standard
 71
0
 72
0
 11
0.0
 21
0.0
 31
0.0
210
0.0
220
0.0
230
1.0
100
AcDbText
 73
0
  0
HATCH
  5
2B
330
1D
100
AcDbEntity
  8
0
  6
ByLayer
420
15352629
 48
1.0
 60
0
 67
0
370
-1
100
AcDbHatch
 30
0.0
210
0.0
220
0.0
230
1.0
  2
SOLID
 70
1
 71
0
 91
1
 92
2
 72
0
 73
1
 93
41
 10
280.0
 20
520.0
 10
420.0
 20
520.0
 10
420.0
 20
520.0
 10
425.8527096604838675
 20
519.4235584120968952
 10
431.4805029709526707
 20
517.7163859753386532
 10
436.6671069905880813
 20
514.9440883690763258
 10
441.2132034355964265
 20
511.2132034355964265
 10
444.9440883690763826
 20
506.6671069905880813
 10
447.7163859753385964
 20
501.4805029709526707
 10
449.4235584120968952
 20
495.8527096604838675
 10
450.0
 20
490.0
 10
450.0
 20
410.0
 10
450.0
 20
410.0
 10
449.4235584120968952
 20
404.1472903395161893
 10
447.7163859753385964
 20
398.5194970290473293
 10
444.9440883690763826
 20
393.3328930094119187
 10
441.2132034355964265
 20
388.7867965644035735
 10
436.6671069905880813
 20
385.0559116309236742
 10
431.4805029709526707
 20
382.2836140246614036
 10
425.8527096604838675
 20
380.5764415879031048
 10
420.0
 20
380.0
 10
280.0
 20
380.0
 10
280.0
 20
380.0
 10
274.1472903395161325
 20
380.5764415879031048
 10
268.5194970290473293
 20
382.2836140246614036
 10
263.3328930094119187
 20
385.0559116309236742
 10
258.7867965644035735
 20
388.7867965644035735
 10
255.0559116309236458
 20
393.3328930094119187
 10
252.2836140246614036
 20
398.5194970290473293
 10
250.5764415879030764
 20
404.1472903395161325
 10
250.0
 20
410.0
 10
250.0
 20
490.0
 10
250.0
 20
490.0
 10
250.5764415879030764
 20
495.8527096604838675
 10
252.2836140246614036
 20
501.4805029709526707
 10
255.0559116309236458
 20
506.6671069905880813
 10
258.7867965644035735
 20
511.2132034355964265
 10
263.3328930094119187
 20
514.9440883690763258
 10
268.5194970290472725
 20
517.7163859753386532
 10
274.1472903395161325
 20
519.4235584120968952
 10
280.0
 20
520.0
 97
0
 75
0
 76
1
 47
0.0
 98
0
  0
LWPOLYLINE
  5
2C
330
1D
100
AcDbEntity
  8
0
  6
ByLayer
420
15352629
 48
1.0
 60
0
 67
0
370
-1
100
AcDbPolyline
 90
41
 70
1
 43
0.0
 38
0.0
 39
0.0
210
0.0
220
0.0
230
1.0
 10
280.0
 20
520.0
 40
0.0
 41
0.0
 42
0.0
 10
420.0
 20
520.0
 40
0.0
 41
0.0
 42
0.0
 10
420.0
 20
520.0
 40
0.0
 41
0.0
 42
0.0
 10
425.8527096604838675
 20
519.4235584120968952
 40
0.0
 41
0.0
 42
0.0
 10
431.4805029709526707
 20
517.7163859753386532
 40
0.0
 41
0.0
 42
0.0
 10
436.6671069905880813
 20
514.9440883690763258
 40
0.0
 41
0.0
 42
0.0
 10
441.2132034355964265
 20
511.2132034355964265
 40
0.0
 41
0.0
 42
0.0
 10
444.9440883690763826
 20
506.6671069905880813
 40
0.0
 41
0.0
 42
0.0
 10
447.7163859753385964
 20
501.4805029709526707
 40
0.0
 41
0.0
 42
0.0
 10
449.4235584120968952
 20
495.8527096604838675
 40
0.0
 41
0.0
 42
0.0
 10
450.0
 20
490.0
 40
0.0
 41
0.0
 42
0.0
 10
450.0
 20
410.0
 40
0.0
 41
0.0
 42
0.0
 10
450.0
 20
410.0
 40
0.0
 41
0.0
 42
0.0
 10
449.4235584120968952
 20
404.1472903395161893
 40
0.0
 41
0.0
 42
0.0
 10
447.7163859753385964
 20
398.5194970290473293
 40
0.0
 41
0.0
 42
0.0
 10
444.9440883690763826
 20
393.3328930094119187
 40
0.0
 41
0.0
 42
0.0
 10
441.2132034355964265
 20
388.7867965644035735
 40
0.0
 41
0.0
 42
0.0
 10
436.6671069905880813
 20
385.0559116309236742
 40
0.0
 41
0.0
 42
0.0
 10
431.4805029709526707
 20
382.2836140246614036
 40
0.0
 41
0.0
 42
0.0
 10
425.8527096604838675
 20
380.5764415879031048
 40
0.0
 41
0.0
 42
0.0
 10
420.0
 20
380.0
 40
0.0
 41
0.0
 42
0.0
 10
280.0
 20
380.0
 40
0.0
 41
0.0
 42
0.0
 10
280.0
 20
380.0
 40
0.0
 41
0.0
 42
0.0
 10
274.1472903395161325
 20
380.5764415879031048
 40
0.0
 41
0.0
 42
0.0
 10
268.5194970290473293
 20
382.2836140246614036
 40
0.0
 41
0.0
 42
0.0
 10
263.3328930094119187
 20
385.0559116309236742
 40
0.0
 41
0.0
 42
0.0
 10
258.7867965644035735
 20
388.7867965644035735
 40
0.0
 41
0.0
 42
0.0
 10
255.0559116309236458
 20
393.3328930094119187
 40
0.0
 41
0.0
 42
0.0
 10
252.2836140246614036
 20
398.5194970290473293
 40
0.0
 41
0.0
 42
0.0
 10
250.5764415879030764
 20
404.1472903395161325
 40
0.0
 41
0.0
 42
0.0
 10
250.0
 20
410.0
 40
0.0
 41
0.0
 42
0.0
 10
250.0
 20
490.0
 40
0.0
 41
0.0
 42
0.0
 10
250.0
 20
490.0
 40
0.0
 41
0.0
 42
0.0
 10
250.5764415879030764
 20
495.8527096604838675
 40
0.0
 41
0.0
 42
0.0
 10
252.2836140246614036
 20
501.4805029709526707
 40
0.0
 41
0.0
 42
0.0
 10
255.0559116309236458
 20
506.6671069905880813
 40
0.0
 41
0.0
 42
0.0
 10
258.7867965644035735
 20
511.2132034355964265
 40
0.0
 41
0.0
 42
0.0
 10
263.3328930094119187
 20
514.9440883690763258
 40
0.0
 41
0.0
 42
0.0
 10
268.5194970290472725
 20
517.7163859753386532
 40
0.0
 41
0.0
 42
0.0
 10
274.1472903395161325
 20
519.4235584120968952
 40
0.0
 41
0.0
 42
0.0
 10
280.0
 20
520.0
 40
0.0
 41
0.0
 42
0.0
  0
TEXT
  5
2D
330
1D
100
AcDbEntity
  8
0
  6
ByLayer
420
16777215
 48
1.0
 60
0
 67
0
370
-1
100
AcDbText
 39
0.0
 10
330.149993896484375
 20
455.0
 30
0.0
 40
14.0
  1
Scoop
 50
0.0
 41
1.0
 51
0.0
  7
Standard
 71
0
 72
0
 11
0.0
 21
0.0
 31
0.0
210
0.0
220
0.0
230
1.0
100
AcDbText
 73
0
  0
TEXT
  5
2E
330
1D
100
AcDbEntity
  8
0
  6
ByLayer
420
16777215
 48
1.0
 60
0
 67
0
370
-1
100
AcDbText
 39
0.0
 10
319.26666259765625
 20
438.0
 30
0.0
 40
14.0
  1
(concave)
 50
0.0
 41
1.0
 51
0.0
  7
Standard
 71
0
 72
0
 11
0.0
 21
0.0
 31
0.0
210
0.0
220
0.0
230
1.0
100
AcDbText
 73
0
  0
HATCH
  5
2F
330
1D
100
AcDbEntity
  8
0
  6
ByLayer
420
16497669
 48
1.0
 60
0
 67
0
370
-1
100
AcDbHatch
 30
0.0
210
0.0
220
0.0
230
1.0
  2
SOLID
 70
1
 71
0
 91
1
 92
2
 72
0
 73
1
 93
41
 10
510.0
 20
520.0
 10
650.0
 20
520.0
 10
650.0
 20
520.0
 10
655.8527096604838107
 20
519.4235584120968952
 10
661.4805029709526707
 20
517.7163859753386532
 10
666.6671069905880813
 20
514.9440883690763258
 10
671.2132034355963697
 20
511.2132034355964265
 10
674.9440883690763258
 20
506.6671069905880813
 10
677.7163859753386532
 20
501.4805029709526707
 10
679.4235584120968952
 20
495.8527096604838675
 10
680.0
 20
490.0
 10
680.0
 20
410.0
 10
680.0
 20
410.0
 10
679.4235584120968952
 20
404.1472903395161893
 10
677.7163859753386532
 20
398.5194970290473293
 10
674.9440883690763258
 20
393.3328930094119187
 10
671.2132034355963697
 20
388.7867965644035735
 10
666.6671069905880813
 20
385.0559116309236742
 10
661.4805029709526707
 20
382.2836140246614036
 10
655.8527096604838107
 20
380.5764415879031048
 10
650.0
 20
380.0
 10
510.0
 20
380.0
 10
510.0
 20
380.0
 10
504.1472903395161325
 20
380.5764415879031048
 10
498.5194970290473293
 20
382.2836140246614036
 10
493.3328930094119187
 20
385.0559116309236742
 10
488.7867965644035735
 20
388.7867965644035735
 10
485.0559116309236174
 20
393.3328930094119187
 10
482.2836140246614036
 20
398.5194970290473293
 10
480.5764415879031048
 20
404.1472903395161325
 10
480.0
 20
410.0
 10
480.0
 20
490.0
 10
480.0
 20
490.0
 10
480.5764415879031048
 20
495.8527096604838675
 10
482.2836140246614036
 20
501.4805029709526707
 10
485.0559116309236174
 20
506.6671069905880813
 10
488.7867965644035735
 20
511.2132034355964265
 10
493.3328930094119187
 20
514.9440883690763258
 10
498.5194970290472725
 20
517.7163859753386532
 10
504.1472903395161325
 20
519.4235584120968952
 10
510.0
 20
520.0
 97
0
 75
0
 76
1
 47
0.0
 98
0
  0
LWPOLYLINE
  5
30
330
1D
100
AcDbEntity
  8
0
  6
ByLayer
420
16497669
 48
1.0
 60
0
 67
0
370
-1
100
AcDbPolyline
 90
41
 70
1
 43
0.0
 38
0.0
 39
0.0
210
0.0
220
0.0
230
1.0
 10
510.0
 20
520.0
 40
0.0
 41
0.0
 42
0.0
 10
650.0
 20
520.0
 40
0.0
 41
0.0
 42
0.0
 10
650.0
 20
520.0
 40
0.0
 41
0.0
 42
0.0
 10
655.8527096604838107
 20
519.4235584120968952
 40
0.0
 41
0.0
 42
0.0
 10
661.4805029709526707
 20
517.7163859753386532
 40
0.0
 41
0.0
 42
0.0
 10
666.6671069905880813
 20
514.9440883690763258
 40
0.0
 41
0.0
 42
0.0
 10
671.2132034355963697
 20
511.2132034355964265
 40
0.0
 41
0.0
 42
0.0
 10
674.9440883690763258
 20
506.6671069905880813
 40
0.0
 41
0.0
 42
0.0
 10
677.7163859753386532
 20
501.4805029709526707
 40
0.0
 41
0.0
 42
0.0
 10
679.4235584120968952
 20
495.8527096604838675
 40
0.0
 41
0.0
 42
0.0
 10
680.0
 20
490.0
 40
0.0
 41
0.0
 42
0.0
 10
680.0
 20
410.0
 40
0.0
 41
0.0
 42
0.0
 10
680.0
 20
410.0
 40
0.0
 41
0.0
 42
0.0
 10
679.4235584120968952
 20
404.1472903395161893
 40
0.0
 41
0.0
 42
0.0
 10
677.7163859753386532
 20
398.5194970290473293
 40
0.0
 41
0.0
 42
0.0
 10
674.9440883690763258
 20
393.3328930094119187
 40
0.0
 41
0.0
 42
0.0
 10
671.2132034355963697
 20
388.7867965644035735
 40
0.0
 41
0.0
 42
0.0
 10
666.6671069905880813
 20
385.0559116309236742
 40
0.0
 41
0.0
 42
0.0
 10
661.4805029709526707
 20
382.2836140246614036
 40
0.0
 41
0.0
 42
0.0
 10
655.8527096604838107
 20
380.5764415879031048
 40
0.0
 41
0.0
 42
0.0
 10
650.0
 20
380.0
 40
0.0
 41
0.0
 42
0.0
 10
510.0
 20
380.0
 40
0.0
 41
0.0
 42
0.0
 10
510.0
 20
380.0
 40
0.0
 41
0.0
 42
0.0
 10
504.1472903395161325
 20
380.5764415879031048
 40
0.0
 41
0.0
 42
0.0
 10
498.5194970290473293
 20
382.2836140246614036
 40
0.0
 41
0.0
 42
0.0
 10
493.3328930094119187
 20
385.0559116309236742
 40
0.0
 41
0.0
 42
0.0
 10
488.7867965644035735
 20
388.7867965644035735
 40
0.0
 41
0.0
 42
0.0
 10
485.0559116309236174
 20
393.3328930094119187
 40
0.0
 41
0.0
 42
0.0
 10
482.2836140246614036
 20
398.5194970290473293
 40
0.0
 41
0.0
 42
0.0
 10
480.5764415879031048
 20
404.1472903395161325
 40
0.0
 41
0.0
 42
0.0
 10
480.0
 20
410.0
 40
0.0
 41
0.0
 42
0.0
 10
480.0
 20
490.0
 40
0.0
 41
0.0
 42
0.0
 10
480.0
 20
490.0
 40
0.0
 41
0.0
 42
0.0
 10
480.5764415879031048
 20
495.8527096604838675
 40
0.0
 41
0.0
 42
0.0
 10
482.2836140246614036
 20
501.4805029709526707
 40
0.0
 41
0.0
 42
0.0
 10
485.0559116309236174
 20
506.6671069905880813
 40
0.0
 41
0.0
 42
0.0
 10
488.7867965644035735
 20
511.2132034355964265
 40
0.0
 41
0.0
 42
0.0
 10
493.3328930094119187
 20
514.9440883690763258
 40
0.0
 41
0.0
 42
0.0
 10
498.5194970290472725
 20
517.7163859753386532
 40
0.0
 41
0.0
 42
0.0
 10
504.1472903395161325
 20
519.4235584120968952
 40
0.0
 41
0.0
 42
0.0
 10
510.0
 20
520.0
 40
0.0
 41
0.0
 42
0.0
  0
TEXT
  5
31
330
1D
100
AcDbEntity
  8
0
  6
ByLayer
420
3355443
 48
1.0
 60
0
 67
0
370
-1
100
AcDbText
 39
0.0
 10
562.48333740234375
 20
455.0
 30
0.0
 40
14.0
  1
Bevel
 50
0.0
 41
1.0
 51
0.0
  7
Standard
 71
0
 72
0
 11
0.0
 21
0.0
 31
0.0
210
0.0
220
0.0
230
1.0
100
AcDbText
 73
0
  0
TEXT
  5
32
330
1D
100
AcDbEntity
  8
0
  6
ByLayer
420
3355443
 48
1.0
 60
0
 67
0
370
-1
100
AcDbText
 39
0.0
 10
548.86663818359375
 20
438.0
 30
0.0
 40
14.0
  1
(diagonal)
 50
0.0
 41
1.0
 51
0.0
  7
Standard
 71
0
 72
0
 11
0.0
 21
0.0
 31
0.0
210
0.0
220
0.0
230
1.0
100
AcDbText
 73
0
  0
HATCH
  5
33
330
1D
100
AcDbEntity
  8
0
  6
ByLayer
420
3450963
 48
1.0
 60
0
 67
0
370
-1
100
AcDbHatch
 30
0.0
210
0.0
220
0.0
230
1.0
  2
SOLID
 70
1
 71
0
 91
1
 92
2
 72
0
 73
1
 93
41
 10
740.0
 20
520.0
 10
880.0
 20
520.0
 10
880.0
 20
520.0
 10
885.8527096604838107
 20
519.4235584120968952
 10
891.4805029709526707
 20
517.7163859753386532
 10
896.6671069905880813
 20
514.9440883690763258
 10
901.2132034355963697
 20
511.2132034355964265
 10
904.9440883690763258
 20
506.6671069905880813
 10
907.7163859753386532
 20
501.4805029709526707
 10
909.4235584120968952
 20
495.8527096604838675
 10
910.0
 20
490.0
 10
910.0
 20
410.0
 10
910.0
 20
410.0
 10
909.4235584120968952
 20
404.1472903395161893
 10
907.7163859753386532
 20
398.5194970290473293
 10
904.9440883690763258
 20
393.3328930094119187
 10
901.2132034355963697
 20
388.7867965644035735
 10
896.6671069905880813
 20
385.0559116309236742
 10
891.4805029709526707
 20
382.2836140246614036
 10
885.8527096604838107
 20
380.5764415879031048
 10
880.0
 20
380.0
 10
740.0
 20
380.0
 10
740.0
 20
380.0
 10
734.1472903395161893
 20
380.5764415879031048
 10
728.5194970290473293
 20
382.2836140246614036
 10
723.3328930094119187
 20
385.0559116309236742
 10
718.7867965644036303
 20
388.7867965644035735
 10
715.0559116309236742
 20
393.3328930094119187
 10
712.2836140246613468
 20
398.5194970290473293
 10
710.5764415879031048
 20
404.1472903395161325
 10
710.0
 20
410.0
 10
710.0
 20
490.0
 10
710.0
 20
490.0
 10
710.5764415879031048
 20
495.8527096604838675
 10
712.2836140246613468
 20
501.4805029709526707
 10
715.0559116309236742
 20
506.6671069905880813
 10
718.7867965644035166
 20
511.2132034355964265
 10
723.3328930094119187
 20
514.9440883690763258
 10
728.5194970290473293
 20
517.7163859753386532
 10
734.1472903395161893
 20
519.4235584120968952
 10
740.0
 20
520.0
 97
0
 75
0
 76
1
 47
0.0
 98
0
  0
LWPOLYLINE
  5
34
330
1D
100
AcDbEntity
  8
0
  6
ByLayer
420
3450963
 48
1.0
 60
0
 67
0
370
-1
100
AcDbPolyline
 90
41
 70
1
 43
0.0
 38
0.0
 39
0.0
210
0.0
220
0.0
230
1.0
 10
740.0
 20
520.0
 40
0.0
 41
0.0
 42
0.0
 10
880.0
 20
520.0
 40
0.0
 41
0.0
 42
0.0
 10
880.0
 20
520.0
 40
0.0
 41
0.0
 42
0.0
 10
885.8527096604838107
 20
519.4235584120968952
 40
0.0
 41
0.0
 42
0.0
 10
891.4805029709526707
 20
517.7163859753386532
 40
0.0
 41
0.0
 42
0.0
 10
896.6671069905880813
 20
514.9440883690763258
 40
0.0
 41
0.0
 42
0.0
 10
901.2132034355963697
 20
511.2132034355964265
 40
0.0
 41
0.0
 42
0.0
 10
904.9440883690763258
 20
506.6671069905880813
 40
0.0
 41
0.0
 42
0.0
 10
907.7163859753386532
 20
501.4805029709526707
 40
0.0
 41
0.0
 42
0.0
 10
909.4235584120968952
 20
495.8527096604838675
 40
0.0
 41
0.0
 42
0.0
 10
910.0
 20
490.0
 40
0.0
 41
0.0
 42
0.0
 10
910.0
 20
410.0
 40
0.0
 41
0.0
 42
0.0
 10
910.0
 20
410.0
 40
0.0
 41
0.0
 42
0.0
 10
909.4235584120968952
 20
404.1472903395161893
 40
0.0
 41
0.0
 42
0.0
 10
907.7163859753386532
 20
398.5194970290473293
 40
0.0
 41
0.0
 42
0.0
 10
904.9440883690763258
 20
393.3328930094119187
 40
0.0
 41
0.0
 42
0.0
 10
901.2132034355963697
 20
388.7867965644035735
 40
0.0
 41
0.0
 42
0.0
 10
896.6671069905880813
 20
385.0559116309236742
 40
0.0
 41
0.0
 42
0.0
 10
891.4805029709526707
 20
382.2836140246614036
 40
0.0
 41
0.0
 42
0.0
 10
885.8527096604838107
 20
380.5764415879031048
 40
0.0
 41
0.0
 42
0.0
 10
880.0
 20
380.0
 40
0.0
 41
0.0
 42
0.0
 10
740.0
 20
380.0
 40
0.0
 41
0.0
 42
0.0
 10
740.0
 20
380.0
 40
0.0
 41
0.0
 42
0.0
 10
734.1472903395161893
 20
380.5764415879031048
 40
0.0
 41
0.0
 42
0.0
 10
728.5194970290473293
 20
382.2836140246614036
 40
0.0
 41
0.0
 42
0.0
 10
723.3328930094119187
 20
385.0559116309236742
 40
0.0
 41
0.0
 42
0.0
 10
718.7867965644036303
 20
388.7867965644035735
 40
0.0
 41
0.0
 42
0.0
 10
715.0559116309236742
 20
393.3328930094119187
 40
0.0
 41
0.0
 42
0.0
 10
712.2836140246613468
 20
398.5194970290473293
 40
0.0
 41
0.0
 42
0.0
 10
710.5764415879031048
 20
404.1472903395161325
 40
0.0
 41
0.0
 42
0.0
 10
710.0
 20
410.0
 40
0.0
 41
0.0
 42
0.0
 10
710.0
 20
490.0
 40
0.0
 41
0.0
 42
0.0
 10
710.0
 20
490.0
 40
0.0
 41
0.0
 42
0.0
 10
710.5764415879031048
 20
495.8527096604838675
 40
0.0
 41
0.0
 42
0.0
 10
712.2836140246613468
 20
501.4805029709526707
 40
0.0
 41
0.0
 42
0.0
 10
715.0559116309236742
 20
506.6671069905880813
 40
0.0
 41
0.0
 42
0.0
 10
718.7867965644035166
 20
511.2132034355964265
 40
0.0
 41
0.0
 42
0.0
 10
723.3328930094119187
 20
514.9440883690763258
 40
0.0
 41
0.0
 42
0.0
 10
728.5194970290473293
 20
517.7163859753386532
 40
0.0
 41
0.0
 42
0.0
 10
734.1472903395161893
 20
519.4235584120968952
 40
0.0
 41
0.0
 42
0.0
 10
740.0
 20
520.0
 40
0.0
 41
0.0
 42
0.0
  0
TEXT
  5
35
330
1D
100
AcDbEntity
  8
0
  6
ByLayer
420
16777215
 48
1.0
 60
0
 67
0
370
-1
100
AcDbText
 39
0.0
 10
791.7166748046875
 20
455.0
 30
0.0
 40
14.0
  1
Notch
 50
0.0
 41
1.0
 51
0.0
  7
Standard
 71
0
 72
0
 11
0.0
 21
0.0
 31
0.0
210
0.0
220
0.0
230
1.0
100
AcDbText
 73
0
  0
TEXT
  5
36
330
1D
100
AcDbEntity
  8
0
  6
ByLayer
420
16777215
 48
1.0
 60
0
 67
0
370
-1
100
AcDbText
 39
0.0
 10
778.0999755859375
 20
438.0
 30
0.0
 40
14.0
  1
(inward V)
 50
0.0
 41
1.0
 51
0.0
  7
Standard
 71
0
 72
0
 11
0.0
 21
0.0
 31
0.0
210
0.0
220
0.0
230
1.0
100
AcDbText
 73
0
  0
HATCH
  5
37
330
1D
100
AcDbEntity
  8
0
  6
ByLayer
420
10233776
 48
1.0
 60
0
 67
0
370
-1
100
AcDbHatch
 30
0.0
210
0.0
220
0.0
230
1.0
  2
SOLID
 70
1
 71
0
 91
1
 92
2
 72
0
 73
1
 93
41
 10
970.0
 20
520.0
 10
1110.0
 20
520.0
 10
1110.0
 20
520.0
 10
1115.8527096604839244
 20
519.4235584120968952
 10
1121.4805029709527844
 20
517.7163859753386532
 10
1126.6671069905880813
 20
514.9440883690763258
 10
1131.2132034355963697
 20
511.2132034355964265
 10
1134.9440883690763258
 20
506.6671069905880813
 10
1137.7163859753386532
 20
501.4805029709526707
 10
1139.4235584120970088
 20
495.8527096604838675
 10
1140.0
 20
490.0
 10
1140.0
 20
410.0
 10
1140.0
 20
410.0
 10
1139.4235584120970088
 20
404.1472903395161893
 10
1137.7163859753386532
 20
398.5194970290473293
 10
1134.9440883690763258
 20
393.3328930094119187
 10
1131.2132034355963697
 20
388.7867965644035735
 10
1126.6671069905880813
 20
385.0559116309236742
 10
1121.4805029709527844
 20
382.2836140246614036
 10
1115.8527096604839244
 20
380.5764415879031048
 10
1110.0
 20
380.0
 10
970.0
 20
380.0
 10
970.0
 20
380.0
 10
964.1472903395161893
 20
380.5764415879031048
 10
958.5194970290473293
 20
382.2836140246614036
 10
953.3328930094119187
 20
385.0559116309236742
 10
948.7867965644036303
 20
388.7867965644035735
 10
945.0559116309236742
 20
393.3328930094119187
 10
942.2836140246613468
 20
398.5194970290473293
 10
940.5764415879031048
 20
404.1472903395161325
 10
940.0
 20
410.0
 10
940.0
 20
490.0
 10
940.0
 20
490.0
 10
940.5764415879031048
 20
495.8527096604838675
 10
942.2836140246613468
 20
501.4805029709526707
 10
945.0559116309236742
 20
506.6671069905880813
 10
948.7867965644035166
 20
511.2132034355964265
 10
953.3328930094119187
 20
514.9440883690763258
 10
958.5194970290473293
 20
517.7163859753386532
 10
964.1472903395161893
 20
519.4235584120968952
 10
970.0
 20
520.0
 97
0
 75
0
 76
1
 47
0.0
 98
0
  0
LWPOLYLINE
  5
38
330
1D
100
AcDbEntity
  8
0
  6
ByLayer
420
10233776
 48
1.0
 60
0
 67
0
370
-1
100
AcDbPolyline
 90
41
 70
1
 43
0.0
 38
0.0
 39
0.0
210
0.0
220
0.0
230
1.0
 10
970.0
 20
520.0
 40
0.0
 41
0.0
 42
0.0
 10
1110.0
 20
520.0
 40
0.0
 41
0.0
 42
0.0
 10
1110.0
 20
520.0
 40
0.0
 41
0.0
 42
0.0
 10
1115.8527096604839244
 20
519.4235584120968952
 40
0.0
 41
0.0
 42
0.0
 10
1121.4805029709527844
 20
517.7163859753386532
 40
0.0
 41
0.0
 42
0.0
 10
1126.6671069905880813
 20
514.9440883690763258
 40
0.0
 41
0.0
 42
0.0
 10
1131.2132034355963697
 20
511.2132034355964265
 40
0.0
 41
0.0
 42
0.0
 10
1134.9440883690763258
 20
506.6671069905880813
 40
0.0
 41
0.0
 42
0.0
 10
1137.7163859753386532
 20
501.4805029709526707
 40
0.0
 41
0.0
 42
0.0
 10
1139.4235584120970088
 20
495.8527096604838675
 40
0.0
 41
0.0
 42
0.0
 10
1140.0
 20
490.0
 40
0.0
 41
0.0
 42
0.0
 10
1140.0
 20
410.0
 40
0.0
 41
0.0
 42
0.0
 10
1140.0
 20
410.0
 40
0.0
 41
0.0
 42
0.0
 10
1139.4235584120970088
 20
404.1472903395161893
 40
0.0
 41
0.0
 42
0.0
 10
1137.7163859753386532
 20
398.5194970290473293
 40
0.0
 41
0.0
 42
0.0
 10
1134.9440883690763258
 20
393.3328930094119187
 40
0.0
 41
0.0
 42
0.0
 10
1131.2132034355963697
 20
388.7867965644035735
 40
0.0
 41
0.0
 42
0.0
 10
1126.6671069905880813
 20
385.0559116309236742
 40
0.0
 41
0.0
 42
0.0
 10
1121.4805029709527844
 20
382.2836140246614036
 40
0.0
 41
0.0
 42
0.0
 10
1115.8527096604839244
 20
380.5764415879031048
 40
0.0
 41
0.0
 42
0.0
 10
1110.0
 20
380.0
 40
0.0
 41
0.0
 42
0.0
 10
970.0
 20
380.0
 40
0.0
 41
0.0
 42
0.0
 10
970.0
 20
380.0
 40
0.0
 41
0.0
 42
0.0
 10
964.1472903395161893
 20
380.5764415879031048
 40
0.0
 41
0.0
 42
0.0
 10
958.5194970290473293
 20
382.2836140246614036
 40
0.0
 41
0.0
 42
0.0
 10
953.3328930094119187
 20
385.0559116309236742
 40
0.0
 41
0.0
 42
0.0
 10
948.7867965644036303
 20
388.7867965644035735
 40
0.0
 41
0.0
 42
0.0
 10
945.0559116309236742
 20
393.3328930094119187
 40
0.0
 41
0.0
 42
0.0
 10
942.2836140246613468
 20
398.5194970290473293
 40
0.0
 41
0.0
 42
0.0
 10
940.5764415879031048
 20
404.1472903395161325
 40
0.0
 41
0.0
 42
0.0
 10
940.0
 20
410.0
 40
0.0
 41
0.0
 42
0.0
 10
940.0
 20
490.0
 40
0.0
 41
0.0
 42
0.0
 10
940.0
 20
490.0
 40
0.0
 41
0.0
 42
0.0
 10
940.5764415879031048
 20
495.8527096604838675
 40
0.0
 41
0.0
 42
0.0
 10
942.2836140246613468
 20
501.4805029709526707
 40
0.0
 41
0.0
 42
0.0
 10
945.0559116309236742
 20
506.6671069905880813
 40
0.0
 41
0.0
 42
0.0
 10
948.7867965644035166
 20
511.2132034355964265
 40
0.0
 41
0.0
 42
0.0
 10
953.3328930094119187
 20
514.9440883690763258
 40
0.0
 41
0.0
 42
0.0
 10
958.5194970290473293
 20
517.7163859753386532
 40
0.0
 41
0.0
 42
0.0
 10
964.1472903395161893
 20
519.4235584120968952
 40
0.0
 41
0.0
 42
0.0
 10
970.0
 20
520.0
 40
0.0
 41
0.0
 42
0.0
  0
TEXT
  5
39
330
1D
100
AcDbEntity
  8
0
  6
ByLayer
420
16777215
 48
1.0
 60
0
 67
0
370
-1
100
AcDbText
 39
0.0
 10
1017.4166259765625
 20
455.0
 30
0.0
 40
14.0
  1
Square
 50
0.0
 41
1.0
 51
0.0
  7
Standard
 71
0
 72
0
 11
0.0
 21
0.0
 31
0.0
210
0.0
220
0.0
230
1.0
100
AcDbText
 73
0
  0
TEXT
  5
3A
330
1D
100
AcDbEntity
  8
0
  6
ByLayer
420
16777215
 48
1.0
 60
0
 67
0
370
-1
100
AcDbText
 39
0.0
 10
996.0333251953125
 20
438.0
 30
0.0
 40
14.0
  1
(sharp corner)
 50
0.0
 41
1.0
 51
0.0
  7
Standard
 71
0
 72
0
 11
0.0
 21
0.0
 31
0.0
210
0.0
220
0.0
230
1.0
100
AcDbText
 73
0
  0
HATCH
  5
3B
330
1D
100
AcDbEntity
  8
0
  6
ByLayer
420
16740096
 48
1.0
 60
0
 67
0
370
-1
100
AcDbHatch
 30
0.0
210
0.0
220
0.0
230
1.0
  2
SOLID
 70
1
 71
0
 91
1
 92
2
 72
0
 73
1
 93
41
 10
60.0
 20
350.0
 10
180.0
 20
350.0
 10
180.0
 20
350.0
 10
187.8036128806451188
 20
349.2314112161292314
 10
195.3073372946035988
 20
346.9551813004514997
 10
202.22280932078408
 20
343.2587844921018245
 10
208.284271247461902
 20
338.284271247461902
 10
213.2587844921018245
 20
332.2228093207841084
 10
216.9551813004514713
 20
325.3073372946035988
 10
219.2314112161292314
 20
317.8036128806451188
 10
220.0
 20
310.0
 10
220.0
 20
250.0
 10
220.0
 20
250.0
 10
219.2314112161292314
 20
242.1963871193548812
 10
216.9551813004514713
 20
234.6926627053964012
 10
213.2587844921018245
 20
227.7771906792158916
 10
208.284271247461902
 20
221.715728752538098
 10
202.22280932078408
 20
216.7412155078981755
 10
195.3073372946035988
 20
213.0448186995485003
 10
187.8036128806451188
 20
210.7685887838707686
 10
180.0
 20
210.0
 10
60.0
 20
210.0
 10
60.0
 20
210.0
 10
52.1963871193548741
 20
210.7685887838707686
 10
44.6926627053964154
 20
213.0448186995485003
 10
37.77719067921592
 20
216.7412155078981755
 10
31.7157287525381015
 20
221.715728752538098
 10
26.7412155078981897
 20
227.7771906792158916
 10
23.0448186995485287
 20
234.6926627053964012
 10
20.7685887838707828
 20
242.1963871193548812
 10
20.0
 20
250.0
 10
20.0
 20
310.0
 10
20.0
 20
310.0
 10
20.7685887838707828
 20
317.8036128806451188
 10
23.0448186995485287
 20
325.3073372946035988
 10
26.7412155078981826
 20
332.2228093207841084
 10
31.7157287525380909
 20
338.284271247461902
 10
37.7771906792159129
 20
343.2587844921018245
 10
44.692662705396387
 20
346.9551813004514429
 10
52.1963871193548528
 20
349.2314112161292314
 10
59.9999999999999929
 20
350.0
 97
0
 75
0
 76
1
 47
0.0
 98
0
  0
LWPOLYLINE
  5
3C
330
1D
100
AcDbEntity
  8
0
  6
ByLayer
420
16740096
 48
1.0
 60
0
 67
0
370
-1
100
AcDbPolyline
 90
41
 70
1
 43
0.0
 38
0.0
 39
0.0
210
0.0
220
0.0
230
1.0
 10
60.0
 20
350.0
 40
0.0
 41
0.0
 42
0.0
 10
180.0
 20
350.0
 40
0.0
 41
0.0
 42
0.0
 10
180.0
 20
350.0
 40
0.0
 41
0.0
 42
0.0
 10
187.8036128806451188
 20
349.2314112161292314
 40
0.0
 41
0.0
 42
0.0
 10
195.3073372946035988
 20
346.9551813004514997
 40
0.0
 41
0.0
 42
0.0
 10
202.22280932078408
 20
343.2587844921018245
 40
0.0
 41
0.0
 42
0.0
 10
208.284271247461902
 20
338.284271247461902
 40
0.0
 41
0.0
 42
0.0
 10
213.2587844921018245
 20
332.2228093207841084
 40
0.0
 41
0.0
 42
0.0
 10
216.9551813004514713
 20
325.3073372946035988
 40
0.0
 41
0.0
 42
0.0
 10
219.2314112161292314
 20
317.8036128806451188
 40
0.0
 41
0.0
 42
0.0
 10
220.0
 20
310.0
 40
0.0
 41
0.0
 42
0.0
 10
220.0
 20
250.0
 40
0.0
 41
0.0
 42
0.0
 10
220.0
 20
250.0
 40
0.0
 41
0.0
 42
0.0
 10
219.2314112161292314
 20
242.1963871193548812
 40
0.0
 41
0.0
 42
0.0
 10
216.9551813004514713
 20
234.6926627053964012
 40
0.0
 41
0.0
 42
0.0
 10
213.2587844921018245
 20
227.7771906792158916
 40
0.0
 41
0.0
 42
0.0
 10
208.284271247461902
 20
221.715728752538098
 40
0.0
 41
0.0
 42
0.0
 10
202.22280932078408
 20
216.7412155078981755
 40
0.0
 41
0.0
 42
0.0
 10
195.3073372946035988
 20
213.0448186995485003
 40
0.0
 41
0.0
 42
0.0
 10
187.8036128806451188
 20
210.7685887838707686
 40
0.0
 41
0.0
 42
0.0
 10
180.0
 20
210.0
 40
0.0
 41
0.0
 42
0.0
 10
60.0
 20
210.0
 40
0.0
 41
0.0
 42
0.0
 10
60.0
 20
210.0
 40
0.0
 41
0.0
 42
0.0
 10
52.1963871193548741
 20
210.7685887838707686
 40
0.0
 41
0.0
 42
0.0
 10
44.6926627053964154
 20
213.0448186995485003
 40
0.0
 41
0.0
 42
0.0
 10
37.77719067921592
 20
216.7412155078981755
 40
0.0
 41
0.0
 42
0.0
 10
31.7157287525381015
 20
221.715728752538098
 40
0.0
 41
0.0
 42
0.0
 10
26.7412155078981897
 20
227.7771906792158916
 40
0.0
 41
0.0
 42
0.0
 10
23.0448186995485287
 20
234.6926627053964012
 40
0.0
 41
0.0
 42
0.0
 10
20.7685887838707828
 20
242.1963871193548812
 40
0.0
 41
0.0
 42
0.0
 10
20.0
 20
250.0
 40
0.0
 41
0.0
 42
0.0
 10
20.0
 20
310.0
 40
0.0
 41
0.0
 42
0.0
 10
20.0
 20
310.0
 40
0.0
 41
0.0
 42
0.0
 10
20.7685887838707828
 20
317.8036128806451188
 40
0.0
 41
0.0
 42
0.0
 10
23.0448186995485287
 20
325.3073372946035988
 40
0.0
 41
0.0
 42
0.0
 10
26.7412155078981826
 20
332.2228093207841084
 40
0.0
 41
0.0
 42
0.0
 10
31.7157287525380909
 20
338.284271247461902
 40
0.0
 41
0.0
 42
0.0
 10
37.7771906792159129
 20
343.2587844921018245
 40
0.0
 41
0.0
 42
0.0
 10
44.692662705396387
 20
346.9551813004514429
 40
0.0
 41
0.0
 42
0.0
 10
52.1963871193548528
 20
349.2314112161292314
 40
0.0
 41
0.0
 42
0.0
 10
59.9999999999999929
 20
350.0
 40
0.0
 41
0.0
 42
0.0
  0
TEXT
  5
3D
330
1D
100
AcDbEntity
  8
0
  6
ByLayer
420
16777215
 48
1.0
 60
0
 67
0
370
-1
100
AcDbText
 39
0.0
 10
94.6999969482421875
 20
285.0
 30
0.0
 40
14.0
  1
Squircle
 50
0.0
 41
1.0
 51
0.0
  7
Standard
 71
0
 72
0
 11
0.0
 21
0.0
 31
0.0
210
0.0
220
0.0
230
1.0
100
AcDbText
 73
0
  0
TEXT
  5
3E
330
1D
100
AcDbEntity
  8
0
  6
ByLayer
420
16777215
 48
1.0
 60
0
 67
0
370
-1
100
AcDbText
 39
0.0
 10
92.383331298828125
 20
268.0
 30
0.0
 40
14.0
  1
(smooth)
 50
0.0
 41
1.0
 51
0.0
  7
Standard
 71
0
 72
0
 11
0.0
 21
0.0
 31
0.0
210
0.0
220
0.0
230
1.0
100
AcDbText
 73
0
  0
HATCH
  5
3F
330
1D
100
AcDbEntity
  8
0
  6
ByLayer
420
48340
 48
1.0
 60
0
 67
0
370
-1
100
AcDbHatch
 30
0.0
210
0.0
220
0.0
230
1.0
  2
SOLID
 70
1
 71
0
 91
1
 92
2
 72
0
 73
1
 93
41
 10
285.0
 20
350.0
 10
415.0
 20
350.0
 10
415.0
 20
350.0
 10
421.8281612705644648
 20
349.3274848141130633
 10
428.3939201327781348
 20
347.3357836378950196
 10
434.4449581556860949
 20
344.1014364305890467
 10
439.7487373415291358
 20
339.7487373415291358
 10
444.1014364305891036
 20
334.4449581556860949
 10
447.3357836378950196
 20
328.3939201327781348
 10
449.3274848141130633
 20
321.8281612705644648
 10
450.0
 20
315.0
 10
450.0
 20
245.0
 10
450.0
 20
245.0
 10
449.3274848141130633
 20
238.1718387294355352
 10
447.3357836378950196
 20
231.6060798672218652
 10
444.1014364305891036
 20
225.5550418443139051
 10
439.7487373415291358
 20
220.2512626584708642
 10
434.4449581556860949
 20
215.8985635694108964
 10
428.3939201327781348
 20
212.6642163621049804
 10
421.8281612705644648
 20
210.6725151858869367
 10
415.0
 20
210.0
 10
285.0
 20
210.0
 10
285.0
 20
210.0
 10
278.1718387294355352
 20
210.6725151858869367
 10
271.6060798672218652
 20
212.6642163621049804
 10
265.5550418443139051
 20
215.8985635694108964
 10
260.2512626584708642
 20
220.2512626584708642
 10
255.8985635694109249
 20
225.5550418443139051
 10
252.6642163621049804
 20
231.6060798672218652
 10
250.6725151858869367
 20
238.1718387294354784
 10
250.0
 20
245.0
 10
250.0
 20
315.0
 10
250.0
 20
315.0
 10
250.6725151858869367
 20
321.8281612705644648
 10
252.6642163621049519
 20
328.3939201327781348
 10
255.8985635694108964
 20
334.4449581556860949
 10
260.2512626584708073
 20
339.7487373415291358
 10
265.5550418443139051
 20
344.1014364305890467
 10
271.6060798672218652
 20
347.3357836378950196
 10
278.1718387294354784
 20
349.3274848141130633
 10
285.0
 20
350.0
 97
0
 75
0
 76
1
 47
0.0
 98
0
  0
LWPOLYLINE
  5
40
330
1D
100
AcDbEntity
  8
0
  6
ByLayer
420
48340
 48
1.0
 60
0
 67
0
370
-1
100
AcDbPolyline
 90
41
 70
1
 43
0.0
 38
0.0
 39
0.0
210
0.0
220
0.0
230
1.0
 10
285.0
 20
350.0
 40
0.0
 41
0.0
 42
0.0
 10
415.0
 20
350.0
 40
0.0
 41
0.0
 42
0.0
 10
415.0
 20
350.0
 40
0.0
 41
0.0
 42
0.0
 10
421.8281612705644648
 20
349.3274848141130633
 40
0.0
 41
0.0
 42
0.0
 10
428.3939201327781348
 20
347.3357836378950196
 40
0.0
 41
0.0
 42
0.0
 10
434.4449581556860949
 20
344.1014364305890467
 40
0.0
 41
0.0
 42
0.0
 10
439.7487373415291358
 20
339.7487373415291358
 40
0.0
 41
0.0
 42
0.0
 10
444.1014364305891036
 20
334.4449581556860949
 40
0.0
 41
0.0
 42
0.0
 10
447.3357836378950196
 20
328.3939201327781348
 40
0.0
 41
0.0
 42
0.0
 10
449.3274848141130633
 20
321.8281612705644648
 40
0.0
 41
0.0
 42
0.0
 10
450.0
 20
315.0
 40
0.0
 41
0.0
 42
0.0
 10
450.0
 20
245.0
 40
0.0
 41
0.0
 42
0.0
 10
450.0
 20
245.0
 40
0.0
 41
0.0
 42
0.0
 10
449.3274848141130633
 20
238.1718387294355352
 40
0.0
 41
0.0
 42
0.0
 10
447.3357836378950196
 20
231.6060798672218652
 40
0.0
 41
0.0
 42
0.0
 10
444.1014364305891036
 20
225.5550418443139051
 40
0.0
 41
0.0
 42
0.0
 10
439.7487373415291358
 20
220.2512626584708642
 40
0.0
 41
0.0
 42
0.0
 10
434.4449581556860949
 20
215.8985635694108964
 40
0.0
 41
0.0
 42
0.0
 10
428.3939201327781348
 20
212.6642163621049804
 40
0.0
 41
0.0
 42
0.0
 10
421.8281612705644648
 20
210.6725151858869367
 40
0.0
 41
0.0
 42
0.0
 10
415.0
 20
210.0
 40
0.0
 41
0.0
 42
0.0
 10
285.0
 20
210.0
 40
0.0
 41
0.0
 42
0.0
 10
285.0
 20
210.0
 40
0.0
 41
0.0
 42
0.0
 10
278.1718387294355352
 20
210.6725151858869367
 40
0.0
 41
0.0
 42
0.0
 10
271.6060798672218652
 20
212.6642163621049804
 40
0.0
 41
0.0
 42
0.0
 10
265.5550418443139051
 20
215.8985635694108964
 40
0.0
 41
0.0
 42
0.0
 10
260.2512626584708642
 20
220.2512626584708642
 40
0.0
 41
0.0
 42
0.0
 10
255.8985635694109249
 20
225.5550418443139051
 40
0.0
 41
0.0
 42
0.0
 10
252.6642163621049804
 20
231.6060798672218652
 40
0.0
 41
0.0
 42
0.0
 10
250.6725151858869367
 20
238.1718387294354784
 40
0.0
 41
0.0
 42
0.0
 10
250.0
 20
245.0
 40
0.0
 41
0.0
 42
0.0
 10
250.0
 20
315.0
 40
0.0
 41
0.0
 42
0.0
 10
250.0
 20
315.0
 40
0.0
 41
0.0
 42
0.0
 10
250.6725151858869367
 20
321.8281612705644648
 40
0.0
 41
0.0
 42
0.0
 10
252.6642163621049519
 20
328.3939201327781348
 40
0.0
 41
0.0
 42
0.0
 10
255.8985635694108964
 20
334.4449581556860949
 40
0.0
 41
0.0
 42
0.0
 10
260.2512626584708073
 20
339.7487373415291358
 40
0.0
 41
0.0
 42
0.0
 10
265.5550418443139051
 20
344.1014364305890467
 40
0.0
 41
0.0
 42
0.0
 10
271.6060798672218652
 20
347.3357836378950196
 40
0.0
 41
0.0
 42
0.0
 10
278.1718387294354784
 20
349.3274848141130633
 40
0.0
 41
0.0
 42
0.0
 10
285.0
 20
350.0
 40
0.0
 41
0.0
 42
0.0
  0
TEXT
  5
41
330
1D
100
AcDbEntity
  8
0
  6
ByLayer
420
16777215
 48
1.0
 60
0
 67
0
370
-1
100
AcDbText
 39
0.0
 10
298.25
 20
276.5
 30
0.0
 40
14.0
  1
superellipse(0.5)
 50
0.0
 41
1.0
 51
0.0
  7
Standard
 71
0
 72
0
 11
0.0
 21
0.0
 31
0.0
210
0.0
220
0.0
230
1.0
100
AcDbText
 73
0
  0
HATCH
  5
42
330
1D
100
AcDbEntity
  8
0
  6
ByLayer
420
6323595
 48
1.0
 60
0
 67
0
370
-1
100
AcDbHatch
 30
0.0
210
0.0
220
0.0
230
1.0
  2
SOLID
 70
1
 71
0
 91
1
 92
2
 72
0
 73
1
 93
41
 10
520.0
 20
350.0
 10
640.0
 20
350.0
 10
640.0
 20
350.0
 10
647.8036128806451188
 20
349.2314112161292314
 10
655.3073372946035988
 20
346.9551813004514997
 10
662.2228093207841084
 20
343.2587844921018245
 10
668.284271247461902
 20
338.284271247461902
 10
673.2587844921017677
 20
332.2228093207841084
 10
676.9551813004514997
 20
325.3073372946035988
 10
679.2314112161292314
 20
317.8036128806451188
 10
680.0
 20
310.0
 10
680.0
 20
250.0
 10
680.0
 20
250.0
 10
679.2314112161292314
 20
242.1963871193548812
 10
676.9551813004514997
 20
234.6926627053964012
 10
673.2587844921017677
 20
227.7771906792158916
 10
668.284271247461902
 20
221.715728752538098
 10
662.2228093207841084
 20
216.7412155078981755
 10
655.3073372946035988
 20
213.0448186995485003
 10
647.8036128806451188
 20
210.7685887838707686
 10
640.0
 20
210.0
 10
520.0
 20
210.0
 10
520.0
 20
210.0
 10
512.1963871193548812
 20
210.7685887838707686
 10
504.6926627053964012
 20
213.0448186995485003
 10
497.7771906792158916
 20
216.7412155078981755
 10
491.715728752538098
 20
221.715728752538098
 10
486.7412155078981755
 20
227.7771906792158916
 10
483.0448186995485003
 20
234.6926627053964012
 10
480.7685887838707686
 20
242.1963871193548812
 10
480.0
 20
250.0
 10
480.0
 20
310.0
 10
480.0
 20
310.0
 10
480.7685887838707686
 20
317.8036128806451188
 10
483.0448186995485003
 20
325.3073372946035988
 10
486.7412155078981755
 20
332.2228093207841084
 10
491.715728752538098
 20
338.284271247461902
 10
497.7771906792158916
 20
343.2587844921018245
 10
504.6926627053964012
 20
346.9551813004514429
 10
512.1963871193548812
 20
349.2314112161292314
 10
520.0
 20
350.0
 97
0
 75
0
 76
1
 47
0.0
 98
0
  0
LWPOLYLINE
  5
43
330
1D
100
AcDbEntity
  8
0
  6
ByLayer
420
6323595
 48
1.0
 60
0
 67
0
370
-1
100
AcDbPolyline
 90
41
 70
1
 43
0.0
 38
0.0
 39
0.0
210
0.0
220
0.0
230
1.0
 10
520.0
 20
350.0
 40
0.0
 41
0.0
 42
0.0
 10
640.0
 20
350.0
 40
0.0
 41
0.0
 42
0.0
 10
640.0
 20
350.0
 40
0.0
 41
0.0
 42
0.0
 10
647.8036128806451188
 20
349.2314112161292314
 40
0.0
 41
0.0
 42
0.0
 10
655.3073372946035988
 20
346.9551813004514997
 40
0.0
 41
0.0
 42
0.0
 10
662.2228093207841084
 20
343.2587844921018245
 40
0.0
 41
0.0
 42
0.0
 10
668.284271247461902
 20
338.284271247461902
 40
0.0
 41
0.0
 42
0.0
 10
673.2587844921017677
 20
332.2228093207841084
 40
0.0
 41
0.0
 42
0.0
 10
676.9551813004514997
 20
325.3073372946035988
 40
0.0
 41
0.0
 42
0.0
 10
679.2314112161292314
 20
317.8036128806451188
 40
0.0
 41
0.0
 42
0.0
 10
680.0
 20
310.0
 40
0.0
 41
0.0
 42
0.0
 10
680.0
 20
250.0
 40
0.0
 41
0.0
 42
0.0
 10
680.0
 20
250.0
 40
0.0
 41
0.0
 42
0.0
 10
679.2314112161292314
 20
242.1963871193548812
 40
0.0
 41
0.0
 42
0.0
 10
676.9551813004514997
 20
234.6926627053964012
 40
0.0
 41
0.0
 42
0.0
 10
673.2587844921017677
 20
227.7771906792158916
 40
0.0
 41
0.0
 42
0.0
 10
668.284271247461902
 20
221.715728752538098
 40
0.0
 41
0.0
 42
0.0
 10
662.2228093207841084
 20
216.7412155078981755
 40
0.0
 41
0.0
 42
0.0
 10
655.3073372946035988
 20
213.0448186995485003
 40
0.0
 41
0.0
 42
0.0
 10
647.8036128806451188
 20
210.7685887838707686
 40
0.0
 41
0.0
 42
0.0
 10
640.0
 20
210.0
 40
0.0
 41
0.0
 42
0.0
 10
520.0
 20
210.0
 40
0.0
 41
0.0
 42
0.0
 10
520.0
 20
210.0
 40
0.0
 41
0.0
 42
0.0
 10
512.1963871193548812
 20
210.7685887838707686
 40
0.0
 41
0.0
 42
0.0
 10
504.6926627053964012
 20
213.0448186995485003
 40
0.0
 41
0.0
 42
0.0
 10
497.7771906792158916
 20
216.7412155078981755
 40
0.0
 41
0.0
 42
0.0
 10
491.715728752538098
 20
221.715728752538098
 40
0.0
 41
0.0
 42
0.0
 10
486.7412155078981755
 20
227.7771906792158916
 40
0.0
 41
0.0
 42
0.0
 10
483.0448186995485003
 20
234.6926627053964012
 40
0.0
 41
0.0
 42
0.0
 10
480.7685887838707686
 20
242.1963871193548812
 40
0.0
 41
0.0
 42
0.0
 10
480.0
 20
250.0
 40
0.0
 41
0.0
 42
0.0
 10
480.0
 20
310.0
 40
0.0
 41
0.0
 42
0.0
 10
480.0
 20
310.0
 40
0.0
 41
0.0
 42
0.0
 10
480.7685887838707686
 20
317.8036128806451188
 40
0.0
 41
0.0
 42
0.0
 10
483.0448186995485003
 20
325.3073372946035988
 40
0.0
 41
0.0
 42
0.0
 10
486.7412155078981755
 20
332.2228093207841084
 40
0.0
 41
0.0
 42
0.0
 10
491.715728752538098
 20
338.284271247461902
 40
0.0
 41
0.0
 42
0.0
 10
497.7771906792158916
 20
343.2587844921018245
 40
0.0
 41
0.0
 42
0.0
 10
504.6926627053964012
 20
346.9551813004514429
 40
0.0
 41
0.0
 42
0.0
 10
512.1963871193548812
 20
349.2314112161292314
 40
0.0
 41
0.0
 42
0.0
 10
520.0
 20
350.0
 40
0.0
 41
0.0
 42
0.0
  0
TEXT
  5
44
330
1D
100
AcDbEntity
  8
0
  6
ByLayer
420
16777215
 48
1.0
 60
0
 67
0
370
-1
100
AcDbText
 39
0.0
 10
561.316650390625
 20
293.5
 30
0.0
 40
14.0
  1
Mixed
 50
0.0
 41
1.0
 51
0.0
  7
Standard
 71
0
 72
0
 11
0.0
 21
0.0
 31
0.0
210
0.0
220
0.0
230
1.0
100
AcDbText
 73
0
  0
TEXT
  5
45
330
1D
100
AcDbEntity
  8
0
  6
ByLayer
420
16777215
 48
1.0
 60
0
 67
0
370
-1
100
AcDbText
 39
0.0
 10
520.0999755859375
 20
276.5
 30
0.0
 40
14.0
  1
TL:scoop TR:round
 50
0.0
 41
1.0
 51
0.0
  7
Standard
 71
0
 72
0
 11
0.0
 21
0.0
 31
0.0
210
0.0
220
0.0
230
1.0
100
AcDbText
 73
0
  0
TEXT
  5
46
330
1D
100
AcDbEntity
  8
0
  6
ByLayer
420
16777215
 48
1.0
 60
0
 67
0
370
-1
100
AcDbText
 39
0.0
 10
522.0333251953125
 20
259.5
 30
0.0
 40
14.0
  1
BR:bevel BL:notch
 50
0.0
 41
1.0
 51
0.0
  7
Standard
 71
0
 72
0
 11
0.0
 21
0.0
 31
0.0
210
0.0
220
0.0
230
1.0
100
AcDbText
 73
0
  0
HATCH
  5
47
330
1D
100
AcDbEntity
  8
0
  6
ByLayer
420
15277667
 48
1.0
 60
0
 67
0
370
-1
100
AcDbHatch
 30
0.0
210
0.0
220
0.0
230
1.0
  2
SOLID
 70
1
 71
0
 91
1
 92
2
 72
0
 73
1
 93
41
 10
760.0
 20
350.0
 10
880.0
 20
350.0
 10
880.0
 20
350.0
 10
889.7545161008064269
 20
349.0392640201615109
 10
899.1341716182545269
 20
346.1939766255643463
 10
907.7785116509801355
 20
341.5734806151272664
 10
915.3553390593274344
 20
335.3553390593273775
 10
921.5734806151272096
 20
327.7785116509801355
 10
926.1939766255643463
 20
319.1341716182545269
 10
929.0392640201615677
 20
309.7545161008064269
 10
930.0
 20
300.0
 10
930.0
 20
240.0
 10
930.0
 20
240.0
 10
929.0392640201615677
 20
230.2454838991935731
 10
926.1939766255643463
 20
220.8658283817455299
 10
921.5734806151272096
 20
212.2214883490198645
 10
915.3553390593274344
 20
204.6446609406726225
 10
907.7785116509801355
 20
198.4265193848727336
 10
899.1341716182545269
 20
193.8060233744356537
 10
889.7545161008064269
 20
190.9607359798384891
 10
880.0
 20
190.0
 10
760.0
 20
190.0
 10
760.0
 20
190.0
 10
750.2454838991935731
 20
190.9607359798384891
 10
740.8658283817454731
 20
193.8060233744356537
 10
732.2214883490198645
 20
198.4265193848727336
 10
724.6446609406726793
 20
204.6446609406726225
 10
718.4265193848727904
 20
212.2214883490198645
 10
713.8060233744356537
 20
220.8658283817455299
 10
710.9607359798384323
 20
230.2454838991935731
 10
710.0
 20
240.0
 10
710.0
 20
300.0
 10
710.0
 20
300.0
 10
710.9607359798384323
 20
309.7545161008064269
 10
713.8060233744356537
 20
319.1341716182544701
 10
718.4265193848726767
 20
327.7785116509801355
 10
724.6446609406725656
 20
335.3553390593273775
 10
732.2214883490198645
 20
341.5734806151272664
 10
740.8658283817454731
 20
346.1939766255643463
 10
750.2454838991935731
 20
349.0392640201615109
 10
760.0
 20
350.0
 97
0
 75
0
 76
1
 47
0.0
 98
0
  0
LWPOLYLINE
  5
48
330
1D
100
AcDbEntity
  8
0
  6
ByLayer
420
15277667
 48
1.0
 60
0
 67
0
370
-1
100
AcDbPolyline
 90
41
 70
1
 43
0.0
 38
0.0
 39
0.0
210
0.0
220
0.0
230
1.0
 10
760.0
 20
350.0
 40
0.0
 41
0.0
 42
0.0
 10
880.0
 20
350.0
 40
0.0
 41
0.0
 42
0.0
 10
880.0
 20
350.0
 40
0.0
 41
0.0
 42
0.0
 10
889.7545161008064269
 20
349.0392640201615109
 40
0.0
 41
0.0
 42
0.0
 10
899.1341716182545269
 20
346.1939766255643463
 40
0.0
 41
0.0
 42
0.0
 10
907.7785116509801355
 20
341.5734806151272664
 40
0.0
 41
0.0
 42
0.0
 10
915.3553390593274344
 20
335.3553390593273775
 40
0.0
 41
0.0
 42
0.0
 10
921.5734806151272096
 20
327.7785116509801355
 40
0.0
 41
0.0
 42
0.0
 10
926.1939766255643463
 20
319.1341716182545269
 40
0.0
 41
0.0
 42
0.0
 10
929.0392640201615677
 20
309.7545161008064269
 40
0.0
 41
0.0
 42
0.0
 10
930.0
 20
300.0
 40
0.0
 41
0.0
 42
0.0
 10
930.0
 20
240.0
 40
0.0
 41
0.0
 42
0.0
 10
930.0
 20
240.0
 40
0.0
 41
0.0
 42
0.0
 10
929.0392640201615677
 20
230.2454838991935731
 40
0.0
 41
0.0
 42
0.0
 10
926.1939766255643463
 20
220.8658283817455299
 40
0.0
 41
0.0
 42
0.0
 10
921.5734806151272096
 20
212.2214883490198645
 40
0.0
 41
0.0
 42
0.0
 10
915.3553390593274344
 20
204.6446609406726225
 40
0.0
 41
0.0
 42
0.0
 10
907.7785116509801355
 20
198.4265193848727336
 40
0.0
 41
0.0
 42
0.0
 10
899.1341716182545269
 20
193.8060233744356537
 40
0.0
 41
0.0
 42
0.0
 10
889.7545161008064269
 20
190.9607359798384891
 40
0.0
 41
0.0
 42
0.0
 10
880.0
 20
190.0
 40
0.0
 41
0.0
 42
0.0
 10
760.0
 20
190.0
 40
0.0
 41
0.0
 42
0.0
 10
760.0
 20
190.0
 40
0.0
 41
0.0
 42
0.0
 10
750.2454838991935731
 20
190.9607359798384891
 40
0.0
 41
0.0
 42
0.0
 10
740.8658283817454731
 20
193.8060233744356537
 40
0.0
 41
0.0
 42
0.0
 10
732.2214883490198645
 20
198.4265193848727336
 40
0.0
 41
0.0
 42
0.0
 10
724.6446609406726793
 20
204.6446609406726225
 40
0.0
 41
0.0
 42
0.0
 10
718.4265193848727904
 20
212.2214883490198645
 40
0.0
 41
0.0
 42
0.0
 10
713.8060233744356537
 20
220.8658283817455299
 40
0.0
 41
0.0
 42
0.0
 10
710.9607359798384323
 20
230.2454838991935731
 40
0.0
 41
0.0
 42
0.0
 10
710.0
 20
240.0
 40
0.0
 41
0.0
 42
0.0
 10
710.0
 20
300.0
 40
0.0
 41
0.0
 42
0.0
 10
710.0
 20
300.0
 40
0.0
 41
0.0
 42
0.0
 10
710.9607359798384323
 20
309.7545161008064269
 40
0.0
 41
0.0
 42
0.0
 10
713.8060233744356537
 20
319.1341716182544701
 40
0.0
 41
0.0
 42
0.0
 10
718.4265193848726767
 20
327.7785116509801355
 40
0.0
 41
0.0
 42
0.0
 10
724.6446609406725656
 20
335.3553390593273775
 40
0.0
 41
0.0
 42
0.0
 10
732.2214883490198645
 20
341.5734806151272664
 40
0.0
 41
0.0
 42
0.0
 10
740.8658283817454731
 20
346.1939766255643463
 40
0.0
 41
0.0
 42
0.0
 10
750.2454838991935731
 20
349.0392640201615109
 40
0.0
 41
0.0
 42
0.0
 10
760.0
 20
350.0
 40
0.0
 41
0.0
 42
0.0
  0
TEXT
  5
49
330
1D
100
AcDbEntity
  8
0
  6
ByLayer
420
16777215
 48
1.0
 60
0
 67
0
370
-1
100
AcDbText
 39
0.0
 10
780.316650390625
 20
275.0
 30
0.0
 40
14.0
  1
Large Scoop
 50
0.0
 41
1.0
 51
0.0
  7
Standard
 71
0
 72
0
 11
0.0
 21
0.0
 31
0.0
210
0.0
220
0.0
230
1.0
100
AcDbText
 73
0
  0
TEXT
  5
4A
330
1D
100
AcDbEntity
  8
0
  6
ByLayer
420
16777215
 48
1.0
 60
0
 67
0
370
-1
100
AcDbText
 39
0.0
 10
779.1500244140625
 20
258.0
 30
0.0
 40
14.0
  1
(50px radius)
 50
0.0
 41
1.0
 51
0.0
  7
Standard
 71
0
 72
0
 11
0.0
 21
0.0
 31
0.0
210
0.0
220
0.0
230
1.0
100
AcDbText
 73
0
  0
HATCH
  5
4B
330
1D
100
AcDbEntity
  8
0
  6
ByLayer
420
15984117
 48
1.0
 60
0
 67
0
370
-1
100
AcDbHatch
 30
0.0
210
0.0
220
0.0
230
1.0
  2
SOLID
 70
1
 71
0
 91
1
 92
2
 72
0
 73
1
 93
41
 10
990.0
 20
350.0
 10
1136.0
 20
350.0
 10
1136.0
 20
350.0
 10
1141.8527096604839244
 20
349.4235584120968952
 10
1147.4805029709527844
 20
347.7163859753385964
 10
1152.6671069905880813
 20
344.9440883690763258
 10
1157.2132034355963697
 20
341.2132034355964265
 10
1160.9440883690763258
 20
336.6671069905880813
 10
1163.7163859753386532
 20
331.4805029709526707
 10
1165.4235584120970088
 20
325.8527096604838107
 10
1166.0
 20
320.0
 10
1166.0
 20
234.0
 10
1166.0
 20
234.0
 10
1165.4235584120970088
 20
228.1472903395161325
 10
1163.7163859753386532
 20
222.5194970290473293
 10
1160.9440883690763258
 20
217.3328930094119187
 10
1157.2132034355963697
 20
212.7867965644035735
 10
1152.6671069905880813
 20
209.0559116309236174
 10
1147.4805029709527844
 20
206.2836140246614036
 10
1141.8527096604839244
 20
204.5764415879031048
 10
1136.0
 20
204.0
 10
990.0
 20
204.0
 10
990.0
 20
204.0
 10
984.1472903395161893
 20
204.5764415879031048
 10
978.5194970290473293
 20
206.2836140246614036
 10
973.3328930094119187
 20
209.0559116309236174
 10
968.7867965644036303
 20
212.7867965644035735
 10
965.0559116309236742
 20
217.3328930094119187
 10
962.2836140246613468
 20
222.5194970290473293
 10
960.5764415879031048
 20
228.1472903395161325
 10
960.0
 20
234.0
 10
960.0
 20
320.0
 10
960.0
 20
320.0
 10
960.5764415879031048
 20
325.8527096604838107
 10
962.2836140246613468
 20
331.4805029709526707
 10
965.0559116309236742
 20
336.6671069905880813
 10
968.7867965644035166
 20
341.2132034355964265
 10
973.3328930094119187
 20
344.9440883690763258
 10
978.5194970290473293
 20
347.7163859753385964
 10
984.1472903395161893
 20
349.4235584120968952
 10
990.0
 20
350.0
 97
0
 75
0
 76
1
 47
0.0
 98
0
  0
LWPOLYLINE
  5
4C
330
1D
100
AcDbEntity
  8
0
  6
ByLayer
420
10233776
 48
1.0
 60
0
 67
0
370
-1
100
AcDbPolyline
 90
41
 70
1
 43
0.0
 38
0.0
 39
0.0
210
0.0
220
0.0
230
1.0
 10
990.0
 20
350.0
 40
0.0
 41
0.0
 42
0.0
 10
1136.0
 20
350.0
 40
0.0
 41
0.0
 42
0.0
 10
1136.0
 20
350.0
 40
0.0
 41
0.0
 42
0.0
 10
1141.8527096604839244
 20
349.4235584120968952
 40
0.0
 41
0.0
 42
0.0
 10
1147.4805029709527844
 20
347.7163859753385964
 40
0.0
 41
0.0
 42
0.0
 10
1152.6671069905880813
 20
344.9440883690763258
 40
0.0
 41
0.0
 42
0.0
 10
1157.2132034355963697
 20
341.2132034355964265
 40
0.0
 41
0.0
 42
0.0
 10
1160.9440883690763258
 20
336.6671069905880813
 40
0.0
 41
0.0
 42
0.0
 10
1163.7163859753386532
 20
331.4805029709526707
 40
0.0
 41
0.0
 42
0.0
 10
1165.4235584120970088
 20
325.8527096604838107
 40
0.0
 41
0.0
 42
0.0
 10
1166.0
 20
320.0
 40
0.0
 41
0.0
 42
0.0
 10
1166.0
 20
234.0
 40
0.0
 41
0.0
 42
0.0
 10
1166.0
 20
234.0
 40
0.0
 41
0.0
 42
0.0
 10
1165.4235584120970088
 20
228.1472903395161325
 40
0.0
 41
0.0
 42
0.0
 10
1163.7163859753386532
 20
222.5194970290473293
 40
0.0
 41
0.0
 42
0.0
 10
1160.9440883690763258
 20
217.3328930094119187
 40
0.0
 41
0.0
 42
0.0
 10
1157.2132034355963697
 20
212.7867965644035735
 40
0.0
 41
0.0
 42
0.0
 10
1152.6671069905880813
 20
209.0559116309236174
 40
0.0
 41
0.0
 42
0.0
 10
1147.4805029709527844
 20
206.2836140246614036
 40
0.0
 41
0.0
 42
0.0
 10
1141.8527096604839244
 20
204.5764415879031048
 40
0.0
 41
0.0
 42
0.0
 10
1136.0
 20
204.0
 40
0.0
 41
0.0
 42
0.0
 10
990.0
 20
204.0
 40
0.0
 41
0.0
 42
0.0
 10
990.0
 20
204.0
 40
0.0
 41
0.0
 42
0.0
 10
984.1472903395161893
 20
204.5764415879031048
 40
0.0
 41
0.0
 42
0.0
 10
978.5194970290473293
 20
206.2836140246614036
 40
0.0
 41
0.0
 42
0.0
 10
973.3328930094119187
 20
209.0559116309236174
 40
0.0
 41
0.0
 42
0.0
 10
968.7867965644036303
 20
212.7867965644035735
 40
0.0
 41
0.0
 42
0.0
 10
965.0559116309236742
 20
217.3328930094119187
 40
0.0
 41
0.0
 42
0.0
 10
962.2836140246613468
 20
222.5194970290473293
 40
0.0
 41
0.0
 42
0.0
 10
960.5764415879031048
 20
228.1472903395161325
 40
0.0
 41
0.0
 42
0.0
 10
960.0
 20
234.0
 40
0.0
 41
0.0
 42
0.0
 10
960.0
 20
320.0
 40
0.0
 41
0.0
 42
0.0
 10
960.0
 20
320.0
 40
0.0
 41
0.0
 42
0.0
 10
960.5764415879031048
 20
325.8527096604838107
 40
0.0
 41
0.0
 42
0.0
 10
962.2836140246613468
 20
331.4805029709526707
 40
0.0
 41
0.0
 42
0.0
 10
965.0559116309236742
 20
336.6671069905880813
 40
0.0
 41
0.0
 42
0.0
 10
968.7867965644035166
 20
341.2132034355964265
 40
0.0
 41
0.0
 42
0.0
 10
973.3328930094119187
 20
344.9440883690763258
 40
0.0
 41
0.0
 42
0.0
 10
978.5194970290473293
 20
347.7163859753385964
 40
0.0
 41
0.0
 42
0.0
 10
984.1472903395161893
 20
349.4235584120968952
 40
0.0
 41
0.0
 42
0.0
 10
990.0
 20
350.0
 40
0.0
 41
0.0
 42
0.0
  0
TEXT
  5
4D
330
1D
100
AcDbEntity
  8
0
  6
ByLayer
420
10233776
 48
1.0
 60
0
 67
0
370
-1
100
AcDbText
 39
0.0
 10
1037.699951171875
 20
282.0
 30
0.0
 40
14.0
  1
Squircle
 50
0.0
 41
1.0
 51
0.0
  7
Standard
 71
0
 72
0
 11
0.0
 21
0.0
 31
0.0
210
0.0
220
0.0
230
1.0
100
AcDbText
 73
0
  0
TEXT
  5
4E
330
1D
100
AcDbEntity
  8
0
  6
ByLayer
420
10233776
 48
1.0
 60
0
 67
0
370
-1
100
AcDbText
 39
0.0
 10
1035.949951171875
 20
265.0
 30
0.0
 40
14.0
  1
+ Border
 50
0.0
 41
1.0
 51
0.0
  7
Standard
 71
0
 72
0
 11
0.0
 21
0.0
 31
0.0
210
0.0
220
0.0
230
1.0
100
AcDbText
 73
0
  0
HATCH
  5
4F
330
1D
100
AcDbEntity
  8
0
  6
ByLayer
420
16777215
 48
1.0
 60
0
 67
0
370
-1
100
AcDbHatch
 30
0.0
210
0.0
220
0.0
230
1.0
  2
SOLID
 70
1
 71
0
 91
1
 92
2
 72
0
 73
1
 93
41
 10
45.0
 20
160.0
 10
195.0
 20
160.0
 10
195.0
 20
160.0
 10
199.8772580504032135
 20
159.5196320100807839
 10
204.5670858091272351
 20
158.0969883127821731
 10
208.8892558254900678
 20
155.7867403075636048
 10
212.6776695296636888
 20
152.6776695296636603
 10
215.7867403075636332
 20
148.8892558254900678
 10
218.0969883127821731
 20
144.5670858091272635
 10
219.5196320100807554
 20
139.8772580504032135
 10
220.0
 20
135.0
 10
220.0
 20
45.0
 10
220.0
 20
45.0
 10
219.5196320100807554
 20
40.1227419495967865
 10
218.0969883127821731
 20
35.4329141908727365
 10
215.7867403075636332
 20
31.1107441745099322
 10
212.6776695296636888
 20
27.3223304703362828
 10
208.8892558254900678
 20
24.2132596924363952
 10
204.5670858091272351
 20
21.9030116872178269
 10
199.8772580504032135
 20
20.480367989919273
 10
195.0
 20
20.0
 10
45.0
 20
20.0
 10
45.0
 20
20.0
 10
40.1227419495967936
 20
20.480367989919273
 10
35.4329141908727578
 20
21.9030116872178269
 10
31.1107441745099536
 20
24.2132596924363952
 10
27.3223304703363148
 20
27.3223304703362828
 10
24.2132596924363668
 20
31.1107441745099322
 10
21.9030116872178304
 20
35.4329141908727365
 10
20.4803679899192375
 20
40.1227419495967865
 10
20.0
 20
45.0
 10
20.0
 20
135.0
 10
20.0
 20
135.0
 10
20.4803679899192375
 20
139.8772580504032135
 10
21.9030116872178304
 20
144.5670858091272635
 10
24.2132596924363632
 20
148.8892558254900678
 10
27.3223304703363077
 20
152.6776695296636603
 10
31.1107441745099464
 20
155.7867403075636048
 10
35.4329141908727436
 20
158.0969883127821731
 10
40.1227419495967865
 20
159.5196320100807839
 10
44.9999999999999929
 20
160.0
 97
0
 75
0
 76
1
 47
0.0
 98
0
  0
LWPOLYLINE
  5
50
330
1D
100
AcDbEntity
  8
0
  6
ByLayer
420
16777215
 48
1.0
 60
0
 67
0
370
-1
100
AcDbPolyline
 90
41
 70
1
 43
0.0
 38
0.0
 39
0.0
210
0.0
220
0.0
230
1.0
 10
45.0
 20
160.0
 40
0.0
 41
0.0
 42
0.0
 10
195.0
 20
160.0
 40
0.0
 41
0.0
 42
0.0
 10
195.0
 20
160.0
 40
0.0
 41
0.0
 42
0.0
 10
199.8772580504032135
 20
159.5196320100807839
 40
0.0
 41
0.0
 42
0.0
 10
204.5670858091272351
 20
158.0969883127821731
 40
0.0
 41
0.0
 42
0.0
 10
208.8892558254900678
 20
155.7867403075636048
 40
0.0
 41
0.0
 42
0.0
 10
212.6776695296636888
 20
152.6776695296636603
 40
0.0
 41
0.0
 42
0.0
 10
215.7867403075636332
 20
148.8892558254900678
 40
0.0
 41
0.0
 42
0.0
 10
218.0969883127821731
 20
144.5670858091272635
 40
0.0
 41
0.0
 42
0.0
 10
219.5196320100807554
 20
139.8772580504032135
 40
0.0
 41
0.0
 42
0.0
 10
220.0
 20
135.0
 40
0.0
 41
0.0
 42
0.0
 10
220.0
 20
45.0
 40
0.0
 41
0.0
 42
0.0
 10
220.0
 20
45.0
 40
0.0
 41
0.0
 42
0.0
 10
219.5196320100807554
 20
40.1227419495967865
 40
0.0
 41
0.0
 42
0.0
 10
218.0969883127821731
 20
35.4329141908727365
 40
0.0
 41
0.0
 42
0.0
 10
215.7867403075636332
 20
31.1107441745099322
 40
0.0
 41
0.0
 42
0.0
 10
212.6776695296636888
 20
27.3223304703362828
 40
0.0
 41
0.0
 42
0.0
 10
208.8892558254900678
 20
24.2132596924363952
 40
0.0
 41
0.0
 42
0.0
 10
204.5670858091272351
 20
21.9030116872178269
 40
0.0
 41
0.0
 42
0.0
 10
199.8772580504032135
 20
20.480367989919273
 40
0.0
 41
0.0
 42
0.0
 10
195.0
 20
20.0
 40
0.0
 41
0.0
 42
0.0
 10
45.0
 20
20.0
 40
0.0
 41
0.0
 42
0.0
 10
45.0
 20
20.0
 40
0.0
 41
0.0
 42
0.0
 10
40.1227419495967936
 20
20.480367989919273
 40
0.0
 41
0.0
 42
0.0
 10
35.4329141908727578
 20
21.9030116872178269
 40
0.0
 41
0.0
 42
0.0
 10
31.1107441745099536
 20
24.2132596924363952
 40
0.0
 41
0.0
 42
0.0
 10
27.3223304703363148
 20
27.3223304703362828
 40
0.0
 41
0.0
 42
0.0
 10
24.2132596924363668
 20
31.1107441745099322
 40
0.0
 41
0.0
 42
0.0
 10
21.9030116872178304
 20
35.4329141908727365
 40
0.0
 41
0.0
 42
0.0
 10
20.4803679899192375
 20
40.1227419495967865
 40
0.0
 41
0.0
 42
0.0
 10
20.0
 20
45.0
 40
0.0
 41
0.0
 42
0.0
 10
20.0
 20
135.0
 40
0.0
 41
0.0
 42
0.0
 10
20.0
 20
135.0
 40
0.0
 41
0.0
 42
0.0
 10
20.4803679899192375
 20
139.8772580504032135
 40
0.0
 41
0.0
 42
0.0
 10
21.9030116872178304
 20
144.5670858091272635
 40
0.0
 41
0.0
 42
0.0
 10
24.2132596924363632
 20
148.8892558254900678
 40
0.0
 41
0.0
 42
0.0
 10
27.3223304703363077
 20
152.6776695296636603
 40
0.0
 41
0.0
 42
0.0
 10
31.1107441745099464
 20
155.7867403075636048
 40
0.0
 41
0.0
 42
0.0
 10
35.4329141908727436
 20
158.0969883127821731
 40
0.0
 41
0.0
 42
0.0
 10
40.1227419495967865
 20
159.5196320100807839
 40
0.0
 41
0.0
 42
0.0
 10
44.9999999999999929
 20
160.0
 40
0.0
 41
0.0
 42
0.0
  0
TEXT
  5
51
330
1D
100
AcDbEntity
  8
0
  6
ByLayer
420
3355443
 48
1.0
 60
0
 67
0
370
-1
100
AcDbText
 39
0.0
 10
102.4833297729492188
 20
95.0
 30
0.0
 40
14.0
  1
Bevel
 50
0.0
 41
1.0
 51
0.0
  7
Standard
 71
0
 72
0
 11
0.0
 21
0.0
 31
0.0
210
0.0
220
0.0
230
1.0
100
AcDbText
 73
0
  0
TEXT
  5
52
330
1D
100
AcDbEntity
  8
0
  6
ByLayer
420
3355443
 48
1.0
 60
0
 67
0
370
-1
100
AcDbText
 39
0.0
 10
88.6666641235351563
 20
78.0
 30
0.0
 40
14.0
  1
+ Shadow
 50
0.0
 41
1.0
 51
0.0
  7
Standard
 71
0
 72
0
 11
0.0
 21
0.0
 31
0.0
210
0.0
220
0.0
230
1.0
100
AcDbText
 73
0
  0
HATCH
  5
53
330
1D
100
AcDbEntity
  8
0
  6
ByLayer
420
7951688
 48
1.0
 60
0
 67
0
370
-1
100
AcDbHatch
 30
0.0
210
0.0
220
0.0
230
1.0
  2
SOLID
 70
1
 71
0
 91
1
 92
2
 72
0
 73
1
 93
41
 10
280.0
 20
160.0
 10
420.0
 20
160.0
 10
420.0
 20
160.0
 10
425.8527096604838675
 20
159.4235584120968952
 10
431.4805029709526707
 20
157.7163859753385964
 10
436.6671069905880813
 20
154.9440883690763826
 10
441.2132034355964265
 20
151.2132034355964265
 10
444.9440883690763826
 20
146.6671069905880813
 10
447.7163859753385964
 20
141.4805029709526707
 10
449.4235584120968952
 20
135.8527096604838675
 10
450.0
 20
130.0
 10
450.0
 20
50.0
 10
450.0
 20
50.0
 10
449.4235584120968952
 20
44.1472903395161325
 10
447.7163859753385964
 20
38.5194970290473293
 10
444.9440883690763826
 20
33.3328930094119187
 10
441.2132034355964265
 20
28.7867965644035735
 10
436.6671069905880813
 20
25.0559116309236742
 10
431.4805029709526707
 20
22.2836140246613468
 10
425.8527096604838675
 20
20.5764415879031048
 10
420.0
 20
20.0
 10
280.0
 20
20.0
 10
280.0
 20
20.0
 10
274.1472903395161325
 20
20.5764415879031048
 10
268.5194970290473293
 20
22.2836140246613468
 10
263.3328930094119187
 20
25.0559116309236742
 10
258.7867965644035735
 20
28.7867965644035735
 10
255.0559116309236458
 20
33.3328930094119187
 10
252.2836140246614036
 20
38.5194970290473293
 10
250.5764415879030764
 20
44.1472903395161325
 10
250.0
 20
50.0
 10
250.0
 20
130.0
 10
250.0
 20
130.0
 10
250.5764415879030764
 20
135.8527096604838675
 10
252.2836140246614036
 20
141.4805029709526707
 10
255.0559116309236458
 20
146.6671069905880813
 10
258.7867965644035735
 20
151.2132034355964265
 10
263.3328930094119187
 20
154.9440883690763826
 10
268.5194970290472725
 20
157.7163859753385964
 10
274.1472903395161325
 20
159.4235584120968952
 10
280.0
 20
160.0
 97
0
 75
0
 76
1
 47
0.0
 98
0
  0
LWPOLYLINE
  5
54
330
1D
100
AcDbEntity
  8
0
  6
ByLayer
420
7951688
 48
1.0
 60
0
 67
0
370
-1
100
AcDbPolyline
 90
41
 70
1
 43
0.0
 38
0.0
 39
0.0
210
0.0
220
0.0
230
1.0
 10
280.0
 20
160.0
 40
0.0
 41
0.0
 42
0.0
 10
420.0
 20
160.0
 40
0.0
 41
0.0
 42
0.0
 10
420.0
 20
160.0
 40
0.0
 41
0.0
 42
0.0
 10
425.8527096604838675
 20
159.4235584120968952
 40
0.0
 41
0.0
 42
0.0
 10
431.4805029709526707
 20
157.7163859753385964
 40
0.0
 41
0.0
 42
0.0
 10
436.6671069905880813
 20
154.9440883690763826
 40
0.0
 41
0.0
 42
0.0
 10
441.2132034355964265
 20
151.2132034355964265
 40
0.0
 41
0.0
 42
0.0
 10
444.9440883690763826
 20
146.6671069905880813
 40
0.0
 41
0.0
 42
0.0
 10
447.7163859753385964
 20
141.4805029709526707
 40
0.0
 41
0.0
 42
0.0
 10
449.4235584120968952
 20
135.8527096604838675
 40
0.0
 41
0.0
 42
0.0
 10
450.0
 20
130.0
 40
0.0
 41
0.0
 42
0.0
 10
450.0
 20
50.0
 40
0.0
 41
0.0
 42
0.0
 10
450.0
 20
50.0
 40
0.0
 41
0.0
 42
0.0
 10
449.4235584120968952
 20
44.1472903395161325
 40
0.0
 41
0.0
 42
0.0
 10
447.7163859753385964
 20
38.5194970290473293
 40
0.0
 41
0.0
 42
0.0
 10
444.9440883690763826
 20
33.3328930094119187
 40
0.0
 41
0.0
 42
0.0
 10
441.2132034355964265
 20
28.7867965644035735
 40
0.0
 41
0.0
 42
0.0
 10
436.6671069905880813
 20
25.0559116309236742
 40
0.0
 41
0.0
 42
0.0
 10
431.4805029709526707
 20
22.2836140246613468
 40
0.0
 41
0.0
 42
0.0
 10
425.8527096604838675
 20
20.5764415879031048
 40
0.0
 41
0.0
 42
0.0
 10
420.0
 20
20.0
 40
0.0
 41
0.0
 42
0.0
 10
280.0
 20
20.0
 40
0.0
 41
0.0
 42
0.0
 10
280.0
 20
20.0
 40
0.0
 41
0.0
 42
0.0
 10
274.1472903395161325
 20
20.5764415879031048
 40
0.0
 41
0.0
 42
0.0
 10
268.5194970290473293
 20
22.2836140246613468
 40
0.0
 41
0.0
 42
0.0
 10
263.3328930094119187
 20
25.0559116309236742
 40
0.0
 41
0.0
 42
0.0
 10
258.7867965644035735
 20
28.7867965644035735
 40
0.0
 41
0.0
 42
0.0
 10
255.0559116309236458
 20
33.3328930094119187
 40
0.0
 41
0.0
 42
0.0
 10
252.2836140246614036
 20
38.5194970290473293
 40
0.0
 41
0.0
 42
0.0
 10
250.5764415879030764
 20
44.1472903395161325
 40
0.0
 41
0.0
 42
0.0
 10
250.0
 20
50.0
 40
0.0
 41
0.0
 42
0.0
 10
250.0
 20
130.0
 40
0.0
 41
0.0
 42
0.0
 10
250.0
 20
130.0
 40
0.0
 41
0.0
 42
0.0
 10
250.5764415879030764
 20
135.8527096604838675
 40
0.0
 41
0.0
 42
0.0
 10
252.2836140246614036
 20
141.4805029709526707
 40
0.0
 41
0.0
 42
0.0
 10
255.0559116309236458
 20
146.6671069905880813
 40
0.0
 41
0.0
 42
0.0
 10
258.7867965644035735
 20
151.2132034355964265
 40
0.0
 41
0.0
 42
0.0
 10
263.3328930094119187
 20
154.9440883690763826
 40
0.0
 41
0.0
 42
0.0
 10
268.5194970290472725
 20
157.7163859753385964
 40
0.0
 41
0.0
 42
0.0
 10
274.1472903395161325
 20
159.4235584120968952
 40
0.0
 41
0.0
 42
0.0
 10
280.0
 20
160.0
 40
0.0
 41
0.0
 42
0.0
  0
TEXT
  5
55
330
1D
100
AcDbEntity
  8
0
  6
ByLayer
420
16777215
 48
1.0
 60
0
 67
0
370
-1
100
AcDbText
 39
0.0
 10
301.75
 20
86.5
 30
0.0
 40
14.0
  1
superellipse(-2)
 50
0.0
 41
1.0
 51
0.0
  7
Standard
 71
0
 72
0
 11
0.0
 21
0.0
 31
0.0
210
0.0
220
0.0
230
1.0
100
AcDbText
 73
0
  0
HATCH
  5
56
330
1D
100
AcDbEntity
  8
0
  6
ByLayer
420
4149685
 48
1.0
 60
0
 67
0
370
-1
100
AcDbHatch
 30
0.0
210
0.0
220
0.0
230
1.0
  2
SOLID
 70
1
 71
0
 91
1
 92
2
 72
0
 73
1
 93
41
 10
510.0
 20
160.0
 10
650.0
 20
160.0
 10
650.0
 20
160.0
 10
655.8527096604838107
 20
159.4235584120968952
 10
661.4805029709526707
 20
157.7163859753385964
 10
666.6671069905880813
 20
154.9440883690763826
 10
671.2132034355963697
 20
151.2132034355964265
 10
674.9440883690763258
 20
146.6671069905880813
 10
677.7163859753386532
 20
141.4805029709526707
 10
679.4235584120968952
 20
135.8527096604838675
 10
680.0
 20
130.0
 10
680.0
 20
50.0
 10
680.0
 20
50.0
 10
679.4235584120968952
 20
44.1472903395161325
 10
677.7163859753386532
 20
38.5194970290473293
 10
674.9440883690763258
 20
33.3328930094119187
 10
671.2132034355963697
 20
28.7867965644035735
 10
666.6671069905880813
 20
25.0559116309236742
 10
661.4805029709526707
 20
22.2836140246613468
 10
655.8527096604838107
 20
20.5764415879031048
 10
650.0
 20
20.0
 10
510.0
 20
20.0
 10
510.0
 20
20.0
 10
504.1472903395161325
 20
20.5764415879031048
 10
498.5194970290473293
 20
22.2836140246613468
 10
493.3328930094119187
 20
25.0559116309236742
 10
488.7867965644035735
 20
28.7867965644035735
 10
485.0559116309236174
 20
33.3328930094119187
 10
482.2836140246614036
 20
38.5194970290473293
 10
480.5764415879031048
 20
44.1472903395161325
 10
480.0
 20
50.0
 10
480.0
 20
130.0
 10
480.0
 20
130.0
 10
480.5764415879031048
 20
135.8527096604838675
 10
482.2836140246614036
 20
141.4805029709526707
 10
485.0559116309236174
 20
146.6671069905880813
 10
488.7867965644035735
 20
151.2132034355964265
 10
493.3328930094119187
 20
154.9440883690763826
 10
498.5194970290472725
 20
157.7163859753385964
 10
504.1472903395161325
 20
159.4235584120968952
 10
510.0
 20
160.0
 97
0
 75
0
 76
1
 47
0.0
 98
0
  0
LWPOLYLINE
  5
57
330
1D
100
AcDbEntity
  8
0
  6
ByLayer
420
4149685
 48
1.0
 60
0
 67
0
370
-1
100
AcDbPolyline
 90
41
 70
1
 43
0.0
 38
0.0
 39
0.0
210
0.0
220
0.0
230
1.0
 10
510.0
 20
160.0
 40
0.0
 41
0.0
 42
0.0
 10
650.0
 20
160.0
 40
0.0
 41
0.0
 42
0.0
 10
650.0
 20
160.0
 40
0.0
 41
0.0
 42
0.0
 10
655.8527096604838107
 20
159.4235584120968952
 40
0.0
 41
0.0
 42
0.0
 10
661.4805029709526707
 20
157.7163859753385964
 40
0.0
 41
0.0
 42
0.0
 10
666.6671069905880813
 20
154.9440883690763826
 40
0.0
 41
0.0
 42
0.0
 10
671.2132034355963697
 20
151.2132034355964265
 40
0.0
 41
0.0
 42
0.0
 10
674.9440883690763258
 20
146.6671069905880813
 40
0.0
 41
0.0
 42
0.0
 10
677.7163859753386532
 20
141.4805029709526707
 40
0.0
 41
0.0
 42
0.0
 10
679.4235584120968952
 20
135.8527096604838675
 40
0.0
 41
0.0
 42
0.0
 10
680.0
 20
130.0
 40
0.0
 41
0.0
 42
0.0
 10
680.0
 20
50.0
 40
0.0
 41
0.0
 42
0.0
 10
680.0
 20
50.0
 40
0.0
 41
0.0
 42
0.0
 10
679.4235584120968952
 20
44.1472903395161325
 40
0.0
 41
0.0
 42
0.0
 10
677.7163859753386532
 20
38.5194970290473293
 40
0.0
 41
0.0
 42
0.0
 10
674.9440883690763258
 20
33.3328930094119187
 40
0.0
 41
0.0
 42
0.0
 10
671.2132034355963697
 20
28.7867965644035735
 40
0.0
 41
0.0
 42
0.0
 10
666.6671069905880813
 20
25.0559116309236742
 40
0.0
 41
0.0
 42
0.0
 10
661.4805029709526707
 20
22.2836140246613468
 40
0.0
 41
0.0
 42
0.0
 10
655.8527096604838107
 20
20.5764415879031048
 40
0.0
 41
0.0
 42
0.0
 10
650.0
 20
20.0
 40
0.0
 41
0.0
 42
0.0
 10
510.0
 20
20.0
 40
0.0
 41
0.0
 42
0.0
 10
510.0
 20
20.0
 40
0.0
 41
0.0
 42
0.0
 10
504.1472903395161325
 20
20.5764415879031048
 40
0.0
 41
0.0
 42
0.0
 10
498.5194970290473293
 20
22.2836140246613468
 40
0.0
 41
0.0
 42
0.0
 10
493.3328930094119187
 20
25.0559116309236742
 40
0.0
 41
0.0
 42
0.0
 10
488.7867965644035735
 20
28.7867965644035735
 40
0.0
 41
0.0
 42
0.0
 10
485.0559116309236174
 20
33.3328930094119187
 40
0.0
 41
0.0
 42
0.0
 10
482.2836140246614036
 20
38.5194970290473293
 40
0.0
 41
0.0
 42
0.0
 10
480.5764415879031048
 20
44.1472903395161325
 40
0.0
 41
0.0
 42
0.0
 10
480.0
 20
50.0
 40
0.0
 41
0.0
 42
0.0
 10
480.0
 20
130.0
 40
0.0
 41
0.0
 42
0.0
 10
480.0
 20
130.0
 40
0.0
 41
0.0
 42
0.0
 10
480.5764415879031048
 20
135.8527096604838675
 40
0.0
 41
0.0
 42
0.0
 10
482.2836140246614036
 20
141.4805029709526707
 40
0.0
 41
0.0
 42
0.0
 10
485.0559116309236174
 20
146.6671069905880813
 40
0.0
 41
0.0
 42
0.0
 10
488.7867965644035735
 20
151.2132034355964265
 40
0.0
 41
0.0
 42
0.0
 10
493.3328930094119187
 20
154.9440883690763826
 40
0.0
 41
0.0
 42
0.0
 10
498.5194970290472725
 20
157.7163859753385964
 40
0.0
 41
0.0
 42
0.0
 10
504.1472903395161325
 20
159.4235584120968952
 40
0.0
 41
0.0
 42
0.0
 10
510.0
 20
160.0
 40
0.0
 41
0.0
 42
0.0
  0
TEXT
  5
58
330
1D
100
AcDbEntity
  8
0
  6
ByLayer
420
16777215
 48
1.0
 60
0
 67
0
370
-1
100
AcDbText
 39
0.0
 10
534.08331298828125
 20
86.5
 30
0.0
 40
14.0
  1
superellipse(5)
 50
0.0
 41
1.0
 51
0.0
  7
Standard
 71
0
 72
0
 11
0.0
 21
0.0
 31
0.0
210
0.0
220
0.0
230
1.0
100
AcDbText
 73
0
  0
ENDSEC
  0
SECTION
  2
OBJECTS
  0
DICTIONARY
  5
1
330
0
100
AcDbDictionary
280
0
281
0
  3
ACAD_COLOR
350
2
  3
ACAD_GROUP
350
3
  3
ACAD_LAYOUT
350
4
  3
ACAD_MATERIAL
350
5
  3
ACAD_SORTENTS
350
6
  3
ACAD_MLEADERSTYLE
350
7
  3
ACAD_MLINESTYLE
350
8
  3
ACAD_TABLESTYLE
350
9
  3
ACAD_PLOTSETTINGS
350
A
  3
AcDbVariableDictionary
350
B
  3
ACAD_SCALELIST
350
C
  3
ACAD_VISUALSTYLE
350
D
  3
ACAD_FIELDLIST
350
E
  3
ACAD_IMAGE_DICT
350
F
  0
DICTIONARY
  5
2
330
1
100
AcDbDictionary
280
0
281
0
  0
DICTIONARY
  5
3
330
1
100
AcDbDictionary
280
0
281
0
  0
DICTIONARY
  5
4
330
1
100
AcDbDictionary
280
0
281
0
  0
DICTIONARY
  5
5
330
1
100
AcDbDictionary
280
0
281
0
  0
DICTIONARY
  5
6
330
1
100
AcDbDictionary
280
0
281
0
  0
DICTIONARY
  5
7
330
1
100
AcDbDictionary
280
0
281
0
  0
DICTIONARY
  5
8
330
1
100
AcDbDictionary
280
0
281
0
  0
DICTIONARY
  5
9
330
1
100
AcDbDictionary
280
0
281
0
  0
DICTIONARY
  5
A
330
1
100
AcDbDictionary
280
0
281
0
  0
DICTIONARY
  5
B
330
1
100
AcDbDictionary
280
0
281
0
  0
DICTIONARY
  5
C
330
1
100
AcDbDictionary
280
0
281
0
  0
DICTIONARY
  5
D
330
1
100
AcDbDictionary
280
0
281
0
  0
DICTIONARY
  5
E
330
1
100
AcDbDictionary
280
0
281
0
  0
DICTIONARY
  5
F
330
1
100
AcDbDictionary
280
0
281
0
  0
ENDSEC
  0
EOF
