0
SECTION
2
HEADER
9
$ACADVER
1
AC1021
9
$LASTSAVEDBY
1
@tarikjabiri/dxf
9
$HANDSEED
5
3F
9
$INSUNITS
70
0
9
$CLAYER
8
0
9
$VIEWCTR
10
577.3333320617676
20
266.5
0
ENDSEC
0
SECTION
2
CLASSES
0
ENDSEC
0
SECTION
2
TABLES
0
TABLE
2
VPORT
5
1
330
0
100
AcDbSymbolTable
70
1
0
VPORT
5
19
330
1
100
AcDbSymbolTableRecord
100
AcDbViewportTableRecord
2
*Active
70
0
10
0
20
0
11
1
21
1
12
577.3333320617676
22
266.5
13
0
23
0
14
10
24
10
15
10
25
10
16
0
26
0
36
1
17
0
27
0
37
0
40
577
41
2
42
50
43
0
44
0
50
0
51
0
71
0
72
100
73
1
74
3
75
0
76
1
77
0
78
0
281
0
65
1
110
0
120
0
130
0
111
1
121
0
131
0
112
0
122
1
132
0
79
0
146
0
348
10020
60
7
61
5
292
1
282
1
141
0
142
0
63
250
421
3358443
0
ENDTAB
0
TABLE
2
LTYPE
5
2
330
0
100
AcDbSymbolTable
70
3
0
LTYPE
5
12
330
2
100
AcDbSymbolTableRecord
100
AcDbLinetypeTableRecord
2
ByBlock
70
0
3

72
65
73
0
40
0
0
LTYPE
5
13
330
2
100
AcDbSymbolTableRecord
100
AcDbLinetypeTableRecord
2
ByLayer
70
0
3

72
65
73
0
40
0
0
LTYPE
5
14
330
2
100
AcDbSymbolTableRecord
100
AcDbLinetypeTableRecord
2
Continuous
70
0
3
Solid line
72
65
73
0
40
0
0
ENDTAB
0
TABLE
2
LAYER
5
3
330
0
100
AcDbSymbolTable
70
1
0
LAYER
5
15
330
3
100
AcDbSymbolTableRecord
100
AcDbLayerTableRecord
2
0
70
0
62
7
6
Continuous
370
0
390
0
0
ENDTAB
0
TABLE
2
STYLE
5
4
330
0
100
AcDbSymbolTable
70
1
0
STYLE
5
16
330
4
100
AcDbSymbolTableRecord
100
AcDbTextStyleTableRecord
2
Standard
70
0
40
0
41
1
50
0
71
0
42
1
3
txt
4

0
ENDTAB
0
TABLE
2
VIEW
5
5
330
0
100
AcDbSymbolTable
70
0
0
ENDTAB
0
TABLE
2
UCS
5
6
330
0
100
AcDbSymbolTable
70
0
0
ENDTAB
0
TABLE
2
APPID
5
7
330
0
100
AcDbSymbolTable
70
1
0
APPID
5
17
330
7
100
AcDbSymbolTableRecord
100
AcDbRegAppTableRecord
2
ACAD
70
0
0
ENDTAB
0
TABLE
2
DIMSTYLE
5
8
330
0
100
AcDbSymbolTable
70
1
100
AcDbDimStyleTable
0
DIMSTYLE
105
18
330
8
100
AcDbSymbolTableRecord
100
AcDbDimStyleTableRecord
2
Standard
70
0
340
16
0
ENDTAB
0
TABLE
2
BLOCK_RECORD
5
9
330
0
100
AcDbSymbolTable
70
2
0
BLOCK_RECORD
5
C
330
9
100
AcDbSymbolTableRecord
100
AcDbBlockTableRecord
2
*Model_Space
70
0
280
1
281
0
0
BLOCK_RECORD
5
F
330
9
100
AcDbSymbolTableRecord
100
AcDbBlockTableRecord
2
*Paper_Space
70
0
280
1
281
0
0
ENDTAB
0
ENDSEC
0
SECTION
2
BLOCKS
0
BLOCK
5
D
330
C
100
AcDbEntity
8
0
100
AcDbBlockBegin
2
*Model_Space
70
0
10
0
20
0
30
0
3
*Model_Space
1

0
ENDBLK
5
E
100
AcDbEntity
8
0
100
AcDbBlockEnd
0
BLOCK
5
10
330
F
100
AcDbEntity
8
0
100
AcDbBlockBegin
2
*Paper_Space
70
0
10
0
20
0
30
0
3
*Paper_Space
1

0
ENDBLK
5
11
100
AcDbEntity
8
0
100
AcDbBlockEnd
0
ENDSEC
0
SECTION
2
ENTITIES
0
LWPOLYLINE
5
1A
330
C
100
AcDbEntity
420
4359668
8
0
100
AcDbPolyline
90
42
70
0
43
0
38
0
39
0
10
50
20
520
10
190
20
520
10
190
20
520
10
195.85270966048384
20
519.4235584120969
10
201.4805029709527
20
517.7163859753387
10
206.66710699058808
20
514.9440883690763
10
211.21320343559643
20
511.2132034355964
10
214.94408836907635
20
506.6671069905881
10
217.7163859753386
20
501.48050297095267
10
219.42355841209692
20
495.85270966048387
10
220
20
490
10
220
20
410
10
220
20
410
10
219.42355841209692
20
404.1472903395162
10
217.7163859753386
20
398.51949702904733
10
214.94408836907635
20
393.3328930094119
10
211.21320343559643
20
388.7867965644036
10
206.66710699058808
20
385.0559116309237
10
201.4805029709527
20
382.2836140246614
10
195.85270966048384
20
380.5764415879031
10
190
20
380
10
50
20
380
10
50
20
380
10
44.147290339516154
20
380.5764415879031
10
38.51949702904731
20
382.2836140246614
10
33.33289300941194
20
385.0559116309237
10
28.786796564403577
20
388.7867965644036
10
25.05591163092364
20
393.3328930094119
10
22.283614024661397
20
398.51949702904733
10
20.576441587903087
20
404.14729033951613
10
20
20
410
10
20
20
490
10
20
20
490
10
20.576441587903087
20
495.85270966048387
10
22.283614024661393
20
501.48050297095267
10
25.055911630923635
20
506.6671069905881
10
28.78679656440357
20
511.2132034355964
10
33.33289300941193
20
514.9440883690763
10
38.51949702904729
20
517.7163859753387
10
44.14729033951614
20
519.4235584120969
10
49.99999999999999
20
520
10
50
20
520
0
TEXT
5
1B
330
C
100
AcDbEntity
420
16777215
8
0
100
AcDbText
10
99.36666870117188
20
455
30
0
40
14
1
Round
7
STANDARD
100
AcDbText
0
TEXT
5
1C
330
C
100
AcDbEntity
420
16777215
8
0
100
AcDbText
10
94.31666564941406
20
438
30
0
40
14
1
(default)
7
STANDARD
100
AcDbText
0
LWPOLYLINE
5
1D
330
C
100
AcDbEntity
420
15352629
8
0
100
AcDbPolyline
90
42
70
0
43
0
38
0
39
0
10
280
20
520
10
420
20
520
10
420
20
520
10
425.85270966048387
20
519.4235584120969
10
431.48050297095267
20
517.7163859753387
10
436.6671069905881
20
514.9440883690763
10
441.2132034355964
20
511.2132034355964
10
444.9440883690764
20
506.6671069905881
10
447.7163859753386
20
501.48050297095267
10
449.4235584120969
20
495.85270966048387
10
450
20
490
10
450
20
410
10
450
20
410
10
449.4235584120969
20
404.1472903395162
10
447.7163859753386
20
398.51949702904733
10
444.9440883690764
20
393.3328930094119
10
441.2132034355964
20
388.7867965644036
10
436.6671069905881
20
385.0559116309237
10
431.48050297095267
20
382.2836140246614
10
425.85270966048387
20
380.5764415879031
10
420
20
380
10
280
20
380
10
280
20
380
10
274.14729033951613
20
380.5764415879031
10
268.51949702904733
20
382.2836140246614
10
263.3328930094119
20
385.0559116309237
10
258.7867965644036
20
388.7867965644036
10
255.05591163092365
20
393.3328930094119
10
252.2836140246614
20
398.51949702904733
10
250.57644158790308
20
404.14729033951613
10
250
20
410
10
250
20
490
10
250
20
490
10
250.57644158790308
20
495.85270966048387
10
252.2836140246614
20
501.48050297095267
10
255.05591163092365
20
506.6671069905881
10
258.7867965644036
20
511.2132034355964
10
263.3328930094119
20
514.9440883690763
10
268.5194970290473
20
517.7163859753387
10
274.14729033951613
20
519.4235584120969
10
280
20
520
10
280
20
520
0
TEXT
5
1E
330
C
100
AcDbEntity
420
16777215
8
0
100
AcDbText
10
330.1499938964844
20
455
30
0
40
14
1
Scoop
7
STANDARD
100
AcDbText
0
TEXT
5
1F
330
C
100
AcDbEntity
420
16777215
8
0
100
AcDbText
10
319.26666259765625
20
438
30
0
40
14
1
(concave)
7
STANDARD
100
AcDbText
0
LWPOLYLINE
5
20
330
C
100
AcDbEntity
420
16497669
8
0
100
AcDbPolyline
90
42
70
0
43
0
38
0
39
0
10
510
20
520
10
650
20
520
10
650
20
520
10
655.8527096604838
20
519.4235584120969
10
661.4805029709527
20
517.7163859753387
10
666.6671069905881
20
514.9440883690763
10
671.2132034355964
20
511.2132034355964
10
674.9440883690763
20
506.6671069905881
10
677.7163859753387
20
501.48050297095267
10
679.4235584120969
20
495.85270966048387
10
680
20
490
10
680
20
410
10
680
20
410
10
679.4235584120969
20
404.1472903395162
10
677.7163859753387
20
398.51949702904733
10
674.9440883690763
20
393.3328930094119
10
671.2132034355964
20
388.7867965644036
10
666.6671069905881
20
385.0559116309237
10
661.4805029709527
20
382.2836140246614
10
655.8527096604838
20
380.5764415879031
10
650
20
380
10
510
20
380
10
510
20
380
10
504.14729033951613
20
380.5764415879031
10
498.51949702904733
20
382.2836140246614
10
493.3328930094119
20
385.0559116309237
10
488.7867965644036
20
388.7867965644036
10
485.0559116309236
20
393.3328930094119
10
482.2836140246614
20
398.51949702904733
10
480.5764415879031
20
404.14729033951613
10
480
20
410
10
480
20
490
10
480
20
490
10
480.5764415879031
20
495.85270966048387
10
482.2836140246614
20
501.48050297095267
10
485.0559116309236
20
506.6671069905881
10
488.7867965644036
20
511.2132034355964
10
493.3328930094119
20
514.9440883690763
10
498.5194970290473
20
517.7163859753387
10
504.14729033951613
20
519.4235584120969
10
510
20
520
10
510
20
520
0
TEXT
5
21
330
C
100
AcDbEntity
420
3355443
8
0
100
AcDbText
10
562.4833374023438
20
455
30
0
40
14
1
Bevel
7
STANDARD
100
AcDbText
0
TEXT
5
22
330
C
100
AcDbEntity
420
3355443
8
0
100
AcDbText
10
548.8666381835938
20
438
30
0
40
14
1
(diagonal)
7
STANDARD
100
AcDbText
0
LWPOLYLINE
5
23
330
C
100
AcDbEntity
420
3450963
8
0
100
AcDbPolyline
90
42
70
0
43
0
38
0
39
0
10
740
20
520
10
880
20
520
10
880
20
520
10
885.8527096604838
20
519.4235584120969
10
891.4805029709527
20
517.7163859753387
10
896.6671069905881
20
514.9440883690763
10
901.2132034355964
20
511.2132034355964
10
904.9440883690763
20
506.6671069905881
10
907.7163859753387
20
501.48050297095267
10
909.4235584120969
20
495.85270966048387
10
910
20
490
10
910
20
410
10
910
20
410
10
909.4235584120969
20
404.1472903395162
10
907.7163859753387
20
398.51949702904733
10
904.9440883690763
20
393.3328930094119
10
901.2132034355964
20
388.7867965644036
10
896.6671069905881
20
385.0559116309237
10
891.4805029709527
20
382.2836140246614
10
885.8527096604838
20
380.5764415879031
10
880
20
380
10
740
20
380
10
740
20
380
10
734.1472903395162
20
380.5764415879031
10
728.5194970290473
20
382.2836140246614
10
723.3328930094119
20
385.0559116309237
10
718.7867965644036
20
388.7867965644036
10
715.0559116309237
20
393.3328930094119
10
712.2836140246613
20
398.51949702904733
10
710.5764415879031
20
404.14729033951613
10
710
20
410
10
710
20
490
10
710
20
490
10
710.5764415879031
20
495.85270966048387
10
712.2836140246613
20
501.48050297095267
10
715.0559116309237
20
506.6671069905881
10
718.7867965644035
20
511.2132034355964
10
723.3328930094119
20
514.9440883690763
10
728.5194970290473
20
517.7163859753387
10
734.1472903395162
20
519.4235584120969
10
740
20
520
10
740
20
520
0
TEXT
5
24
330
C
100
AcDbEntity
420
16777215
8
0
100
AcDbText
10
791.7166748046875
20
455
30
0
40
14
1
Notch
7
STANDARD
100
AcDbText
0
TEXT
5
25
330
C
100
AcDbEntity
420
16777215
8
0
100
AcDbText
10
778.0999755859375
20
438
30
0
40
14
1
(inward V)
7
STANDARD
100
AcDbText
0
LWPOLYLINE
5
26
330
C
100
AcDbEntity
420
10233776
8
0
100
AcDbPolyline
90
42
70
0
43
0
38
0
39
0
10
970
20
520
10
1110
20
520
10
1110
20
520
10
1115.852709660484
20
519.4235584120969
10
1121.4805029709528
20
517.7163859753387
10
1126.667106990588
20
514.9440883690763
10
1131.2132034355964
20
511.2132034355964
10
1134.9440883690763
20
506.6671069905881
10
1137.7163859753387
20
501.48050297095267
10
1139.423558412097
20
495.85270966048387
10
1140
20
490
10
1140
20
410
10
1140
20
410
10
1139.423558412097
20
404.1472903395162
10
1137.7163859753387
20
398.51949702904733
10
1134.9440883690763
20
393.3328930094119
10
1131.2132034355964
20
388.7867965644036
10
1126.667106990588
20
385.0559116309237
10
1121.4805029709528
20
382.2836140246614
10
1115.852709660484
20
380.5764415879031
10
1110
20
380
10
970
20
380
10
970
20
380
10
964.1472903395162
20
380.5764415879031
10
958.5194970290473
20
382.2836140246614
10
953.3328930094119
20
385.0559116309237
10
948.7867965644036
20
388.7867965644036
10
945.0559116309237
20
393.3328930094119
10
942.2836140246613
20
398.51949702904733
10
940.5764415879031
20
404.14729033951613
10
940
20
410
10
940
20
490
10
940
20
490
10
940.5764415879031
20
495.85270966048387
10
942.2836140246613
20
501.48050297095267
10
945.0559116309237
20
506.6671069905881
10
948.7867965644035
20
511.2132034355964
10
953.3328930094119
20
514.9440883690763
10
958.5194970290473
20
517.7163859753387
10
964.1472903395162
20
519.4235584120969
10
970
20
520
10
970
20
520
0
TEXT
5
27
330
C
100
AcDbEntity
420
16777215
8
0
100
AcDbText
10
1017.4166259765625
20
455
30
0
40
14
1
Square
7
STANDARD
100
AcDbText
0
TEXT
5
28
330
C
100
AcDbEntity
420
16777215
8
0
100
AcDbText
10
996.0333251953125
20
438
30
0
40
14
1
(sharp corner)
7
STANDARD
100
AcDbText
0
LWPOLYLINE
5
29
330
C
100
AcDbEntity
420
16740096
8
0
100
AcDbPolyline
90
42
70
0
43
0
38
0
39
0
10
60
20
350
10
180
20
350
10
180
20
350
10
187.80361288064512
20
349.23141121612923
10
195.3073372946036
20
346.9551813004515
10
202.22280932078408
20
343.2587844921018
10
208.2842712474619
20
338.2842712474619
10
213.25878449210182
20
332.2228093207841
10
216.95518130045147
20
325.3073372946036
10
219.23141121612923
20
317.8036128806451
10
220
20
310
10
220
20
250
10
220
20
250
10
219.23141121612923
20
242.19638711935488
10
216.95518130045147
20
234.6926627053964
10
213.25878449210182
20
227.7771906792159
10
208.2842712474619
20
221.7157287525381
10
202.22280932078408
20
216.74121550789818
10
195.3073372946036
20
213.0448186995485
10
187.80361288064512
20
210.76858878387077
10
180
20
210
10
60
20
210
10
60
20
210
10
52.196387119354874
20
210.76858878387077
10
44.692662705396415
20
213.0448186995485
10
37.77719067921592
20
216.74121550789818
10
31.7157287525381
20
221.7157287525381
10
26.74121550789819
20
227.7771906792159
10
23.04481869954853
20
234.6926627053964
10
20.768588783870783
20
242.19638711935488
10
20
20
250
10
20
20
310
10
20
20
310
10
20.768588783870783
20
317.8036128806451
10
23.04481869954853
20
325.3073372946036
10
26.741215507898183
20
332.2228093207841
10
31.71572875253809
20
338.2842712474619
10
37.77719067921591
20
343.2587844921018
10
44.69266270539639
20
346.95518130045144
10
52.19638711935485
20
349.23141121612923
10
59.99999999999999
20
350
10
60
20
350
0
TEXT
5
2A
330
C
100
AcDbEntity
420
16777215
8
0
100
AcDbText
10
94.69999694824219
20
285
30
0
40
14
1
Squircle
7
STANDARD
100
AcDbText
0
TEXT
5
2B
330
C
100
AcDbEntity
420
16777215
8
0
100
AcDbText
10
92.38333129882812
20
268
30
0
40
14
1
(smooth)
7
STANDARD
100
AcDbText
0
LWPOLYLINE
5
2C
330
C
100
AcDbEntity
420
48340
8
0
100
AcDbPolyline
90
42
70
0
43
0
38
0
39
0
10
285
20
350
10
415
20
350
10
415
20
350
10
421.82816127056446
20
349.32748481411306
10
428.39392013277813
20
347.335783637895
10
434.4449581556861
20
344.10143643058905
10
439.74873734152914
20
339.74873734152914
10
444.1014364305891
20
334.4449581556861
10
447.335783637895
20
328.39392013277813
10
449.32748481411306
20
321.82816127056446
10
450
20
315
10
450
20
245
10
450
20
245
10
449.32748481411306
20
238.17183872943554
10
447.335783637895
20
231.60607986722187
10
444.1014364305891
20
225.5550418443139
10
439.74873734152914
20
220.25126265847086
10
434.4449581556861
20
215.8985635694109
10
428.39392013277813
20
212.66421636210498
10
421.82816127056446
20
210.67251518588694
10
415
20
210
10
285
20
210
10
285
20
210
10
278.17183872943554
20
210.67251518588694
10
271.60607986722187
20
212.66421636210498
10
265.5550418443139
20
215.8985635694109
10
260.25126265847086
20
220.25126265847086
10
255.89856356941092
20
225.5550418443139
10
252.66421636210498
20
231.60607986722187
10
250.67251518588694
20
238.17183872943548
10
250
20
245
10
250
20
315
10
250
20
315
10
250.67251518588694
20
321.82816127056446
10
252.66421636210495
20
328.39392013277813
10
255.8985635694109
20
334.4449581556861
10
260.2512626584708
20
339.74873734152914
10
265.5550418443139
20
344.10143643058905
10
271.60607986722187
20
347.335783637895
10
278.1718387294355
20
349.32748481411306
10
285
20
350
10
285
20
350
0
TEXT
5
2D
330
C
100
AcDbEntity
420
16777215
8
0
100
AcDbText
10
298.25
20
276.5
30
0
40
14
1
superellipse(0.5)
7
STANDARD
100
AcDbText
0
LWPOLYLINE
5
2E
330
C
100
AcDbEntity
420
6323595
8
0
100
AcDbPolyline
90
42
70
0
43
0
38
0
39
0
10
520
20
350
10
640
20
350
10
640
20
350
10
647.8036128806451
20
349.23141121612923
10
655.3073372946036
20
346.9551813004515
10
662.2228093207841
20
343.2587844921018
10
668.2842712474619
20
338.2842712474619
10
673.2587844921018
20
332.2228093207841
10
676.9551813004515
20
325.3073372946036
10
679.2314112161292
20
317.8036128806451
10
680
20
310
10
680
20
250
10
680
20
250
10
679.2314112161292
20
242.19638711935488
10
676.9551813004515
20
234.6926627053964
10
673.2587844921018
20
227.7771906792159
10
668.2842712474619
20
221.7157287525381
10
662.2228093207841
20
216.74121550789818
10
655.3073372946036
20
213.0448186995485
10
647.8036128806451
20
210.76858878387077
10
640
20
210
10
520
20
210
10
520
20
210
10
512.1963871193549
20
210.76858878387077
10
504.6926627053964
20
213.0448186995485
10
497.7771906792159
20
216.74121550789818
10
491.7157287525381
20
221.7157287525381
10
486.7412155078982
20
227.7771906792159
10
483.0448186995485
20
234.6926627053964
10
480.76858878387077
20
242.19638711935488
10
480
20
250
10
480
20
310
10
480
20
310
10
480.76858878387077
20
317.8036128806451
10
483.0448186995485
20
325.3073372946036
10
486.7412155078982
20
332.2228093207841
10
491.7157287525381
20
338.2842712474619
10
497.7771906792159
20
343.2587844921018
10
504.6926627053964
20
346.95518130045144
10
512.1963871193549
20
349.23141121612923
10
520
20
350
10
520
20
350
0
TEXT
5
2F
330
C
100
AcDbEntity
420
16777215
8
0
100
AcDbText
10
561.316650390625
20
293.5
30
0
40
14
1
Mixed
7
STANDARD
100
AcDbText
0
TEXT
5
30
330
C
100
AcDbEntity
420
16777215
8
0
100
AcDbText
10
520.0999755859375
20
276.5
30
0
40
14
1
TL:scoop TR:round
7
STANDARD
100
AcDbText
0
TEXT
5
31
330
C
100
AcDbEntity
420
16777215
8
0
100
AcDbText
10
522.0333251953125
20
259.5
30
0
40
14
1
BR:bevel BL:notch
7
STANDARD
100
AcDbText
0
LWPOLYLINE
5
32
330
C
100
AcDbEntity
420
15277667
8
0
100
AcDbPolyline
90
42
70
0
43
0
38
0
39
0
10
760
20
350
10
880
20
350
10
880
20
350
10
889.7545161008064
20
349.0392640201615
10
899.1341716182545
20
346.19397662556435
10
907.7785116509801
20
341.57348061512727
10
915.3553390593274
20
335.3553390593274
10
921.5734806151272
20
327.77851165098014
10
926.1939766255643
20
319.1341716182545
10
929.0392640201616
20
309.7545161008064
10
930
20
300
10
930
20
240
10
930
20
240
10
929.0392640201616
20
230.24548389919357
10
926.1939766255643
20
220.86582838174553
10
921.5734806151272
20
212.22148834901986
10
915.3553390593274
20
204.64466094067262
10
907.7785116509801
20
198.42651938487273
10
899.1341716182545
20
193.80602337443565
10
889.7545161008064
20
190.9607359798385
10
880
20
190
10
760
20
190
10
760
20
190
10
750.2454838991936
20
190.9607359798385
10
740.8658283817455
20
193.80602337443565
10
732.2214883490199
20
198.42651938487273
10
724.6446609406727
20
204.64466094067262
10
718.4265193848728
20
212.22148834901986
10
713.8060233744357
20
220.86582838174553
10
710.9607359798384
20
230.24548389919357
10
710
20
240
10
710
20
300
10
710
20
300
10
710.9607359798384
20
309.7545161008064
10
713.8060233744357
20
319.13417161825447
10
718.4265193848727
20
327.77851165098014
10
724.6446609406726
20
335.3553390593274
10
732.2214883490199
20
341.57348061512727
10
740.8658283817455
20
346.19397662556435
10
750.2454838991936
20
349.0392640201615
10
760
20
350
10
760
20
350
0
TEXT
5
33
330
C
100
AcDbEntity
420
16777215
8
0
100
AcDbText
10
780.316650390625
20
275
30
0
40
14
1
Large Scoop
7
STANDARD
100
AcDbText
0
TEXT
5
34
330
C
100
AcDbEntity
420
16777215
8
0
100
AcDbText
10
779.1500244140625
20
258
30
0
40
14
1
(50px radius)
7
STANDARD
100
AcDbText
0
LWPOLYLINE
5
35
330
C
100
AcDbEntity
420
10233776
8
0
100
AcDbPolyline
90
42
70
0
43
0
38
0
39
0
10
990
20
350
10
1136
20
350
10
1136
20
350
10
1141.852709660484
20
349.4235584120969
10
1147.4805029709528
20
347.7163859753386
10
1152.667106990588
20
344.9440883690763
10
1157.2132034355964
20
341.2132034355964
10
1160.9440883690763
20
336.6671069905881
10
1163.7163859753387
20
331.48050297095267
10
1165.423558412097
20
325.8527096604838
10
1166
20
320
10
1166
20
234
10
1166
20
234
10
1165.423558412097
20
228.14729033951613
10
1163.7163859753387
20
222.51949702904733
10
1160.9440883690763
20
217.33289300941192
10
1157.2132034355964
20
212.78679656440357
10
1152.667106990588
20
209.05591163092362
10
1147.4805029709528
20
206.2836140246614
10
1141.852709660484
20
204.5764415879031
10
1136
20
204
10
990
20
204
10
990
20
204
10
984.1472903395162
20
204.5764415879031
10
978.5194970290473
20
206.2836140246614
10
973.3328930094119
20
209.05591163092362
10
968.7867965644036
20
212.78679656440357
10
965.0559116309237
20
217.33289300941192
10
962.2836140246613
20
222.51949702904733
10
960.5764415879031
20
228.14729033951613
10
960
20
234
10
960
20
320
10
960
20
320
10
960.5764415879031
20
325.8527096604838
10
962.2836140246613
20
331.48050297095267
10
965.0559116309237
20
336.6671069905881
10
968.7867965644035
20
341.2132034355964
10
973.3328930094119
20
344.9440883690763
10
978.5194970290473
20
347.7163859753386
10
984.1472903395162
20
349.4235584120969
10
990
20
350
10
990
20
350
0
TEXT
5
36
330
C
100
AcDbEntity
420
10233776
8
0
100
AcDbText
10
1037.699951171875
20
282
30
0
40
14
1
Squircle
7
STANDARD
100
AcDbText
0
TEXT
5
37
330
C
100
AcDbEntity
420
10233776
8
0
100
AcDbText
10
1035.949951171875
20
265
30
0
40
14
1
+ Border
7
STANDARD
100
AcDbText
0
LWPOLYLINE
5
38
330
C
100
AcDbEntity
420
16777215
8
0
100
AcDbPolyline
90
42
70
0
43
0
38
0
39
0
10
45
20
160
10
195
20
160
10
195
20
160
10
199.8772580504032
20
159.51963201008078
10
204.56708580912724
20
158.09698831278217
10
208.88925582549007
20
155.7867403075636
10
212.6776695296637
20
152.67766952966366
10
215.78674030756363
20
148.88925582549007
10
218.09698831278217
20
144.56708580912726
10
219.51963201008076
20
139.8772580504032
10
220
20
135
10
220
20
45
10
220
20
45
10
219.51963201008076
20
40.12274194959679
10
218.09698831278217
20
35.43291419087274
10
215.78674030756363
20
31.110744174509932
10
212.6776695296637
20
27.322330470336283
10
208.88925582549007
20
24.213259692436395
10
204.56708580912724
20
21.903011687217827
10
199.8772580504032
20
20.480367989919273
10
195
20
20
10
45
20
20
10
45
20
20
10
40.122741949596794
20
20.480367989919273
10
35.43291419087276
20
21.903011687217827
10
31.110744174509954
20
24.213259692436395
10
27.322330470336315
20
27.322330470336283
10
24.213259692436367
20
31.110744174509932
10
21.90301168721783
20
35.43291419087274
10
20.480367989919237
20
40.12274194959679
10
20
20
45
10
20
20
135
10
20
20
135
10
20.480367989919237
20
139.8772580504032
10
21.90301168721783
20
144.56708580912726
10
24.213259692436363
20
148.88925582549007
10
27.322330470336308
20
152.67766952966366
10
31.110744174509946
20
155.7867403075636
10
35.432914190872744
20
158.09698831278217
10
40.12274194959679
20
159.51963201008078
10
44.99999999999999
20
160
10
45
20
160
0
TEXT
5
39
330
C
100
AcDbEntity
420
3355443
8
0
100
AcDbText
10
102.48332977294922
20
95
30
0
40
14
1
Bevel
7
STANDARD
100
AcDbText
0
TEXT
5
3A
330
C
100
AcDbEntity
420
3355443
8
0
100
AcDbText
10
88.66666412353516
20
78
30
0
40
14
1
+ Shadow
7
STANDARD
100
AcDbText
0
LWPOLYLINE
5
3B
330
C
100
AcDbEntity
420
7951688
8
0
100
AcDbPolyline
90
42
70
0
43
0
38
0
39
0
10
280
20
160
10
420
20
160
10
420
20
160
10
425.85270966048387
20
159.4235584120969
10
431.48050297095267
20
157.7163859753386
10
436.6671069905881
20
154.94408836907638
10
441.2132034355964
20
151.21320343559643
10
444.9440883690764
20
146.66710699058808
10
447.7163859753386
20
141.48050297095267
10
449.4235584120969
20
135.85270966048387
10
450
20
130
10
450
20
50
10
450
20
50
10
449.4235584120969
20
44.14729033951613
10
447.7163859753386
20
38.51949702904733
10
444.9440883690764
20
33.33289300941192
10
441.2132034355964
20
28.786796564403573
10
436.6671069905881
20
25.055911630923674
10
431.48050297095267
20
22.283614024661347
10
425.85270966048387
20
20.576441587903105
10
420
20
20
10
280
20
20
10
280
20
20
10
274.14729033951613
20
20.576441587903105
10
268.51949702904733
20
22.283614024661347
10
263.3328930094119
20
25.055911630923674
10
258.7867965644036
20
28.786796564403573
10
255.05591163092365
20
33.33289300941192
10
252.2836140246614
20
38.51949702904733
10
250.57644158790308
20
44.14729033951613
10
250
20
50
10
250
20
130
10
250
20
130
10
250.57644158790308
20
135.85270966048387
10
252.2836140246614
20
141.48050297095267
10
255.05591163092365
20
146.66710699058808
10
258.7867965644036
20
151.21320343559643
10
263.3328930094119
20
154.94408836907638
10
268.5194970290473
20
157.7163859753386
10
274.14729033951613
20
159.4235584120969
10
280
20
160
10
280
20
160
0
TEXT
5
3C
330
C
100
AcDbEntity
420
16777215
8
0
100
AcDbText
10
301.75
20
86.5
30
0
40
14
1
superellipse(-2)
7
STANDARD
100
AcDbText
0
LWPOLYLINE
5
3D
330
C
100
AcDbEntity
420
4149685
8
0
100
AcDbPolyline
90
42
70
0
43
0
38
0
39
0
10
510
20
160
10
650
20
160
10
650
20
160
10
655.8527096604838
20
159.4235584120969
10
661.4805029709527
20
157.7163859753386
10
666.6671069905881
20
154.94408836907638
10
671.2132034355964
20
151.21320343559643
10
674.9440883690763
20
146.66710699058808
10
677.7163859753387
20
141.48050297095267
10
679.4235584120969
20
135.85270966048387
10
680
20
130
10
680
20
50
10
680
20
50
10
679.4235584120969
20
44.14729033951613
10
677.7163859753387
20
38.51949702904733
10
674.9440883690763
20
33.33289300941192
10
671.2132034355964
20
28.786796564403573
10
666.6671069905881
20
25.055911630923674
10
661.4805029709527
20
22.283614024661347
10
655.8527096604838
20
20.576441587903105
10
650
20
20
10
510
20
20
10
510
20
20
10
504.14729033951613
20
20.576441587903105
10
498.51949702904733
20
22.283614024661347
10
493.3328930094119
20
25.055911630923674
10
488.7867965644036
20
28.786796564403573
10
485.0559116309236
20
33.33289300941192
10
482.2836140246614
20
38.51949702904733
10
480.5764415879031
20
44.14729033951613
10
480
20
50
10
480
20
130
10
480
20
130
10
480.5764415879031
20
135.85270966048387
10
482.2836140246614
20
141.48050297095267
10
485.0559116309236
20
146.66710699058808
10
488.7867965644036
20
151.21320343559643
10
493.3328930094119
20
154.94408836907638
10
498.5194970290473
20
157.7163859753386
10
504.14729033951613
20
159.4235584120969
10
510
20
160
10
510
20
160
0
TEXT
5
3E
330
C
100
AcDbEntity
420
16777215
8
0
100
AcDbText
10
534.0833129882812
20
86.5
30
0
40
14
1
superellipse(5)
7
STANDARD
100
AcDbText
0
ENDSEC
0
SECTION
2
OBJECTS
0
DICTIONARY
5
A
330
0
100
AcDbDictionary
281
1
3
ACAD_GROUP
350
B
0
DICTIONARY
5
B
330
A
100
AcDbDictionary
281
0
0
ENDSEC
0
EOF