<?xml version="1.0" encoding="UTF-8"?>
<svg xmlns="http://www.w3.org/2000/svg" xmlns:xlink="http://www.w3.org/1999/xlink" width="1440" height="1586" viewBox="0 0 1440 1586">
<defs>
<filter id="ds1" x="-50%" y="-50%" width="200%" height="200%"><feDropShadow dx="0" dy="24" stdDeviation="30" flood-color="rgba(56, 39, 23, 0.1)" result="s0"/></filter>
<linearGradient id="lg2" x1="84" y1="680.8" x2="1356" y2="680.8" gradientUnits="userSpaceOnUse"><stop offset="0%" stop-color="rgba(31, 122, 140, 0.08)"/><stop offset="100%" stop-color="rgba(31, 122, 140, 0.08)"/></linearGradient>
<linearGradient id="lg3" x1="720" y1="860.8" x2="720" y2="500.8" gradientUnits="userSpaceOnUse"><stop offset="0%" stop-color="rgba(22, 50, 79, 0.08)"/><stop offset="100%" stop-color="rgba(22, 50, 79, 0.08)"/></linearGradient>
<linearGradient id="lg4" x1="84" y1="680.8" x2="1356" y2="680.8" gradientUnits="userSpaceOnUse"><stop offset="0%" stop-color="rgba(22, 50, 79, 0.08)"/><stop offset="100%" stop-color="rgba(22, 50, 79, 0.08)"/></linearGradient>
<linearGradient id="lg5" x1="146.95" y1="497.85" x2="358.9" y2="709.8" gradientUnits="userSpaceOnUse"><stop offset="0%" stop-color="rgb(255, 202, 58)"/><stop offset="70%" stop-color="rgb(251, 133, 0)"/></linearGradient>
<linearGradient id="lg6" x1="553.55" y1="536.2" x2="629.54" y2="744.99" gradientUnits="userSpaceOnUse"><stop offset="0%" stop-color="rgb(17, 138, 178)"/><stop offset="100%" stop-color="rgb(7, 59, 76)"/></linearGradient>
<linearGradient id="lg7" x1="577.45" y1="587.23" x2="759.28" y2="803.93" gradientUnits="userSpaceOnUse"><stop offset="0%" stop-color="rgba(193, 18, 31, 0.94)"/><stop offset="100%" stop-color="rgba(250, 159, 66, 0.88)"/></linearGradient>
<radialGradient id="rg8" cx="1064.23" cy="660.36" r="143.92" gradientUnits="userSpaceOnUse"><stop offset="0%" stop-color="rgba(255, 255, 255, 0.92)"/><stop offset="20%" stop-color="rgba(0, 0, 0, 0)"/></radialGradient>
<linearGradient id="lg9" x1="939.49" y1="535.62" x2="1188.97" y2="785.1" gradientUnits="userSpaceOnUse"><stop offset="0%" stop-color="rgb(29, 53, 87)"/><stop offset="58%" stop-color="rgb(106, 27, 77)"/><stop offset="100%" stop-color="rgb(244, 162, 97)"/></linearGradient>
<filter id="ds10" x="-50%" y="-50%" width="200%" height="200%"><feDropShadow dx="0" dy="24" stdDeviation="30" flood-color="rgba(56, 39, 23, 0.1)" result="s0"/></filter>
<clipPath id="clip11" clipPathUnits="userSpaceOnUse"><rect x="84" y="1003.8" width="715.3" height="256.4" rx="24" ry="24"/></clipPath>
<clipPath id="clip12" clipPathUnits="userSpaceOnUse"><rect x="827.3" y="1003.8" width="528.7" height="463.6" rx="24" ry="24"/></clipPath>
<linearGradient id="lg13" x1="894.78" y1="1193.4" x2="894.78" y2="1442.03" gradientUnits="userSpaceOnUse"><stop offset="0%" stop-color="rgba(17, 138, 178, 0.14)"/><stop offset="100%" stop-color="rgba(193, 18, 31, 0.18)"/></linearGradient>
</defs>
<text x="56" y="54.25" fill="rgb(143, 16, 39)" dominant-baseline="text-before-edge" font-weight="800" font-size="70px" font-family="Georgia, &quot;Times New Roman&quot;, serif" letter-spacing="2.1px">CSS</text>
<text x="56" y="120.75" fill="rgb(143, 16, 39)" dominant-baseline="text-before-edge" font-weight="800" font-size="70px" font-family="Georgia, &quot;Times New Roman&quot;, serif" letter-spacing="2.1px">PROPERTY</text>
<text x="56" y="187.25" fill="rgb(143, 16, 39)" dominant-baseline="text-before-edge" font-weight="800" font-size="70px" font-family="Georgia, &quot;Times New Roman&quot;, serif" letter-spacing="2.1px">SUPPORT</text>
<text x="56" y="279.55" fill="rgba(22, 50, 79, 0.78)" dominant-baseline="text-before-edge" font-weight="500" font-size="22px" font-family="&quot;Aptos&quot;, &quot;Segoe UI&quot;, sans-serif">A focused demo for visual and text properties, including</text>
<text x="56" y="313.65" fill="rgba(22, 50, 79, 0.78)" dominant-baseline="text-before-edge" font-weight="500" font-size="22px" font-family="&quot;Aptos&quot;, &quot;Segoe UI&quot;, sans-serif">transformed boxes, mixed compositing, masking,</text>
<text x="56" y="347.75" fill="rgba(22, 50, 79, 0.78)" dominant-baseline="text-before-edge" font-weight="500" font-size="22px" font-family="&quot;Aptos&quot;, &quot;Segoe UI&quot;, sans-serif">ellipsis, vertical writing, and whitespace-sensitive text.</text>
<g><rect x="884.78" y="56" width="106.82" height="38" rx="19" ry="19" fill="rgba(255, 255, 255, 0.72)"/><rect x="879.78" y="51" width="116.82" height="48" rx="24" ry="24" fill="none" stroke="rgba(22, 50, 79, 0.18)" stroke-width="2"/></g>
<text x="902.78" y="68" fill="rgb(22, 50, 79)" dominant-baseline="text-before-edge" font-weight="700" font-size="14px" font-family="&quot;Segoe UI&quot;, sans-serif" letter-spacing="1.68px">OUTLINE</text>
<g><rect x="1003.6" y="56" width="88.83" height="38" rx="19" ry="19" fill="rgba(255, 255, 255, 0.72)"/><rect x="998.6" y="51" width="98.83" height="48" rx="24" ry="24" fill="none" stroke="rgba(22, 50, 79, 0.18)" stroke-width="2"/></g>
<text x="1021.6" y="68" fill="rgb(22, 50, 79)" dominant-baseline="text-before-edge" font-weight="700" font-size="14px" font-family="&quot;Segoe UI&quot;, sans-serif" letter-spacing="1.68px">FILTER</text>
<g><rect x="1104.43" y="56" width="184.65" height="38" rx="19" ry="19" fill="rgba(255, 255, 255, 0.72)"/><rect x="1099.43" y="51" width="194.65" height="48" rx="24" ry="24" fill="none" stroke="rgba(22, 50, 79, 0.18)" stroke-width="2"/></g>
<text x="1122.43" y="68" fill="rgb(22, 50, 79)" dominant-baseline="text-before-edge" font-weight="700" font-size="14px" font-family="&quot;Segoe UI&quot;, sans-serif" letter-spacing="1.68px">MIX-BLEND-MODE</text>
<g><rect x="1301.08" y="56" width="82.92" height="38" rx="19" ry="19" fill="rgba(255, 255, 255, 0.72)"/><rect x="1296.08" y="51" width="92.92" height="48" rx="24" ry="24" fill="none" stroke="rgba(22, 50, 79, 0.18)" stroke-width="2"/></g>
<text x="1319.08" y="68" fill="rgb(22, 50, 79)" dominant-baseline="text-before-edge" font-weight="700" font-size="14px" font-family="&quot;Segoe UI&quot;, sans-serif" letter-spacing="1.68px">MASK</text>
<g><rect x="1034.62" y="106" width="164.93" height="38" rx="19" ry="19" fill="rgba(255, 255, 255, 0.72)"/><rect x="1029.62" y="101" width="174.93" height="48" rx="24" ry="24" fill="none" stroke="rgba(22, 50, 79, 0.18)" stroke-width="2"/></g>
<text x="1052.62" y="118" fill="rgb(22, 50, 79)" dominant-baseline="text-before-edge" font-weight="700" font-size="14px" font-family="&quot;Segoe UI&quot;, sans-serif" letter-spacing="1.68px">WRITING-MODE</text>
<g><rect x="1211.55" y="106" width="172.45" height="38" rx="19" ry="19" fill="rgba(255, 255, 255, 0.72)"/><rect x="1206.55" y="101" width="182.45" height="48" rx="24" ry="24" fill="none" stroke="rgba(22, 50, 79, 0.18)" stroke-width="2"/></g>
<text x="1229.55" y="118" fill="rgb(22, 50, 79)" dominant-baseline="text-before-edge" font-weight="700" font-size="14px" font-family="&quot;Segoe UI&quot;, sans-serif" letter-spacing="1.68px">TEXT-OVERFLOW</text>
<g filter="url(#ds1)"><rect x="56" y="419.8" width="1328" height="469" rx="28" ry="28" fill="rgba(255, 248, 232, 0.86)"/></g>
<text x="84" y="449.3" fill="rgb(22, 50, 79)" dominant-baseline="text-before-edge" font-weight="700" font-size="30px" font-family="Georgia, serif" letter-spacing="1.2px">VISUAL PROPERTIES</text>
<g><rect x="84" y="500.8" width="1272" height="360" rx="24" ry="24" fill="rgba(31, 122, 140, 0.08)"/><rect x="84" y="500.8" width="1272" height="360" rx="24" ry="24" fill="url(#lg4)"/><rect x="84" y="500.8" width="1272" height="360" rx="24" ry="24" fill="url(#lg3)"/><rect x="84" y="500.8" width="1272" height="360" rx="24" ry="24" fill="url(#lg2)"/></g>
<g style="filter:drop-shadow(rgba(2, 48, 71, 0.28) 0px 18px 28px) saturate(1.18)"><g><g><path d="M129.02,584.78 Q130,556.8 157.73,552.9 L359.74,524.51 Q387.47,520.61 386.49,548.6 L382.64,659.06 Q381.66,687.04 353.93,690.94 L151.92,719.33 Q124.19,723.23 125.17,695.25 Z" fill="rgb(255, 202, 58)"/><path d="M129.02,584.78 Q130,556.8 157.73,552.9 L359.74,524.51 Q387.47,520.61 386.49,548.6 L382.64,659.06 Q381.66,687.04 353.93,690.94 L151.92,719.33 Q124.19,723.23 125.17,695.25 Z" fill="url(#lg5)"/></g><path d="M129.02,584.78 Q130,556.8 157.73,552.9 L359.74,524.51 Q387.47,520.61 386.49,548.6 L382.64,659.06 Q381.66,687.04 353.93,690.94 L151.92,719.33 Q124.19,723.23 125.17,695.25 Z" fill="none" stroke="rgb(2, 48, 71)" stroke-width="6" stroke-dasharray="18 18"/></g></g>
<g style="filter:drop-shadow(rgba(2, 48, 71, 0.28) 0px 18px 28px) saturate(1.18)"><text x="0" y="2.25" fill="rgb(255, 255, 255)" dominant-baseline="text-before-edge" font-weight="800" font-size="28px" font-family="Georgia, serif" letter-spacing="1.68px" transform="matrix(0.99,-0.14,-0.03,1,150.86,636.67)">OUTLINE +</text></g>
<g style="filter:drop-shadow(rgba(2, 48, 71, 0.28) 0px 18px 28px) saturate(1.18)"><text x="0" y="2.25" fill="rgb(255, 255, 255)" dominant-baseline="text-before-edge" font-weight="800" font-size="28px" font-family="Georgia, serif" letter-spacing="1.68px" transform="matrix(0.99,-0.14,-0.03,1,149.87,665.09)">FILTER</text></g>
<g><path d="M474.44,614.69 Q472,586.8 499.89,584.36 L683.19,568.32 Q711.09,565.88 713.53,593.78 L721.72,687.42 Q724.16,715.31 696.27,717.75 L512.97,733.79 Q485.07,736.23 482.63,708.34 Z" fill="rgb(17, 138, 178)"/><path d="M474.44,614.69 Q472,586.8 499.89,584.36 L683.19,568.32 Q711.09,565.88 713.53,593.78 L721.72,687.42 Q724.16,715.31 696.27,717.75 L512.97,733.79 Q485.07,736.23 482.63,708.34 Z" fill="url(#lg6)"/></g>
<text x="0" y="2" fill="rgb(255, 255, 255)" dominant-baseline="text-before-edge" font-weight="800" font-size="28px" font-family="Georgia, serif" letter-spacing="1.68px" transform="matrix(1,-0.09,0.09,1,501.84,652.45)">BASE</text>
<text x="0" y="2" fill="rgb(255, 255, 255)" dominant-baseline="text-before-edge" font-weight="800" font-size="28px" font-family="Georgia, serif" letter-spacing="1.68px" transform="matrix(1,-0.09,0.09,1,504.28,680.34)">LAYER</text>
<g style="filter:contrast(1.15);mix-blend-mode:multiply"><g><path d="M565.14,644.37 Q570,616.8 597.98,617.78 L794.32,624.63 Q822.3,625.61 817.44,653.19 L799.38,755.61 Q794.52,783.18 766.54,782.2 L570.2,775.35 Q542.22,774.37 547.08,746.79 Z" fill="rgba(193, 18, 31, 0.94)"/><path d="M565.14,644.37 Q570,616.8 597.98,617.78 L794.32,624.63 Q822.3,625.61 817.44,653.19 L799.38,755.61 Q794.52,783.18 766.54,782.2 L570.2,775.35 Q542.22,774.37 547.08,746.79 Z" fill="url(#lg7)"/></g></g>
<g style="filter:contrast(1.15);mix-blend-mode:multiply"><text x="0" y="2" fill="rgb(255, 255, 255)" dominant-baseline="text-before-edge" font-weight="800" font-size="28px" font-family="Georgia, serif" letter-spacing="1.68px" transform="matrix(1,0.03,-0.17,0.98,575.81,722.04)">BLEND</text></g>
<g><g><path d="M923.51,582.8 Q924,554.8 951.79,558.21 L1184.05,586.73 Q1211.84,590.14 1211.35,618.14 L1208.64,773.27 Q1208.15,801.27 1180.36,797.85 L948.11,769.34 Q920.31,765.92 920.8,737.93 Z" fill="rgba(255, 255, 255, 0.92)"/><path d="M923.51,582.8 Q924,554.8 951.79,558.21 L1184.05,586.73 Q1211.84,590.14 1211.35,618.14 L1208.64,773.27 Q1208.15,801.27 1180.36,797.85 L948.11,769.34 Q920.31,765.92 920.8,737.93 Z" fill="url(#lg9)"/><path d="M923.51,582.8 Q924,554.8 951.79,558.21 L1184.05,586.73 Q1211.84,590.14 1211.35,618.14 L1208.64,773.27 Q1208.15,801.27 1180.36,797.85 L948.11,769.34 Q920.31,765.92 920.8,737.93 Z" fill="url(#rg8)"/></g><path d="M923.51,582.8 Q924,554.8 951.79,558.21 L1184.05,586.73 Q1211.84,590.14 1211.35,618.14 L1208.64,773.27 Q1208.15,801.27 1180.36,797.85 L948.11,769.34 Q920.31,765.92 920.8,737.93 Z" fill="none" stroke="rgba(22, 50, 79, 0.28)" stroke-width="5"/></g>
<text x="0" y="2.09" fill="rgb(255, 255, 255)" dominant-baseline="text-before-edge" font-weight="800" font-size="28px" font-family="Georgia, serif" letter-spacing="1.68px" transform="matrix(0.99,0.12,-0.02,1,945.08,714.56)">MASKED</text>
<g filter="url(#ds10)"><rect x="56" y="922.8" width="1328" height="572.6" rx="28" ry="28" fill="rgba(255, 248, 232, 0.86)"/></g>
<text x="84" y="952.3" fill="rgb(22, 50, 79)" dominant-baseline="text-before-edge" font-weight="700" font-size="30px" font-family="Georgia, serif" letter-spacing="1.2px">TEXT PROPERTIES</text>
<rect x="84" y="1003.8" width="715.3" height="256.4" rx="24" ry="24" fill="rgba(255, 255, 255, 0.7)"/>
<g clip-path="url(#clip11)"><text x="108" y="1027.8" fill="rgba(22, 50, 79, 0.6)" dominant-baseline="text-before-edge" font-weight="700" font-size="14px" font-family="&quot;Segoe UI&quot;, sans-serif" letter-spacing="2.52px">TYPOGRAPHY STACK</text></g>
<g clip-path="url(#clip11)"><text x="0" y="2.5" fill="rgb(106, 27, 77)" dominant-baseline="text-before-edge" font-style="italic" font-weight="700" font-size="30px" font-family="Georgia, &quot;Times New Roman&quot;, serif" letter-spacing="2px" word-spacing="7px" transform="matrix(1,-0.05,0.05,1,172.2,1055.94)" xml:space="preserve" text-decoration="underline" textLength="279.03" lengthAdjust="spacing">MUSEUM COPY</text></g>
<g clip-path="url(#clip11)"><text x="0" y="2.5" fill="rgb(106, 27, 77)" dominant-baseline="text-before-edge" font-style="italic" font-weight="700" font-size="30px" font-family="Georgia, &quot;Times New Roman&quot;, serif" letter-spacing="2px" word-spacing="7px" transform="matrix(1,-0.05,0.05,1,110.7,1105.23)" xml:space="preserve" text-decoration="underline" textLength="440.77" lengthAdjust="spacing">LEANS INTO RHYTHM </text></g>
<g clip-path="url(#clip11)"><text x="0" y="2.5" fill="rgb(106, 27, 77)" dominant-baseline="text-before-edge" font-style="italic" font-weight="700" font-size="30px" font-family="Georgia, &quot;Times New Roman&quot;, serif" letter-spacing="2px" word-spacing="7px" transform="matrix(1,-0.05,0.05,1,113.1,1151.17)" xml:space="preserve" text-decoration="underline">AND SPACING</text></g>
<g clip-path="url(#clip11)"><g style="filter:contrast(1.08)"><text x="0" y="4" fill="rgb(127, 85, 57)" dominant-baseline="text-before-edge" font-weight="700" font-size="22px" font-family="&quot;Segoe UI&quot;, sans-serif" transform="matrix(1,0.07,-0.07,1,108.13,1208)">This sentence intentionally&#x2026;</text></g></g>
<rect x="827.3" y="1003.8" width="528.7" height="463.6" rx="24" ry="24" fill="rgba(255, 255, 255, 0.7)"/>
<g clip-path="url(#clip12)"><text x="851.3" y="1027.8" fill="rgba(22, 50, 79, 0.6)" dominant-baseline="text-before-edge" font-weight="700" font-size="14px" font-family="&quot;Segoe UI&quot;, sans-serif" letter-spacing="2.52px">WRAPPING AND DIRECTION</text></g>
<g clip-path="url(#clip12)"><text x="1011.3" y="1267.55" fill="rgb(61, 64, 91)" dominant-baseline="text-before-edge" font-weight="600" font-size="18px" font-family="&quot;Courier New&quot;, monospace" xml:space="preserve">white-space: pre-wrap</text></g>
<g clip-path="url(#clip12)"><text x="1011.3" y="1295.45" fill="rgb(61, 64, 91)" dominant-baseline="text-before-edge" font-weight="600" font-size="18px" font-family="&quot;Courier New&quot;, monospace" xml:space="preserve">keeps   deliberate gaps</text></g>
<g clip-path="url(#clip12)"><text x="1011.3" y="1323.35" fill="rgb(61, 64, 91)" dominant-baseline="text-before-edge" font-weight="600" font-size="18px" font-family="&quot;Courier New&quot;, monospace" xml:space="preserve">and carries line breaks </text></g>
<g clip-path="url(#clip12)"><text x="1011.3" y="1351.25" fill="rgb(61, 64, 91)" dominant-baseline="text-before-edge" font-weight="600" font-size="18px" font-family="&quot;Courier New&quot;, monospace" xml:space="preserve">forward.</text></g>
<g clip-path="url(#clip12)"><g><path d="M849.42,1211.3 Q851.3,1193.4 869.2,1195.28 L972.63,1206.15 Q990.53,1208.03 988.65,1225.94 L966.28,1438.76 Q964.4,1456.66 946.5,1454.78 L843.07,1443.91 Q825.17,1442.03 827.05,1424.13 Z" fill="rgba(17, 138, 178, 0.14)"/><path d="M849.42,1211.3 Q851.3,1193.4 869.2,1195.28 L972.63,1206.15 Q990.53,1208.03 988.65,1225.94 L966.28,1438.76 Q964.4,1456.66 946.5,1454.78 L843.07,1443.91 Q825.17,1442.03 827.05,1424.13 Z" fill="url(#lg13)"/></g></g>
<g clip-path="url(#clip12)"><text x="0" y="4.5" fill="rgb(22, 50, 79)" dominant-baseline="text-before-edge" font-weight="700" font-size="26px" font-family="&quot;Segoe UI&quot;, sans-serif" letter-spacing="2.08px" transform="matrix(-0.1,0.99,-0.99,-0.1,988.01,1262.65)" xml:space="preserve">RTL FLOW</text></g>
<g clip-path="url(#clip12)"><text x="0" y="4" fill="rgb(38, 70, 83)" dominant-baseline="text-before-edge" font-weight="600" font-size="22px" font-family="&quot;Segoe UI&quot;, sans-serif" transform="matrix(1,0.03,-0.03,1,850.85,1066.74)">WrapThisAbsurdlyLongToken</text></g>
<g clip-path="url(#clip12)"><text x="0" y="4" fill="rgb(38, 70, 83)" dominant-baseline="text-before-edge" font-weight="600" font-size="22px" font-family="&quot;Segoe UI&quot;, sans-serif" transform="matrix(1,0.03,-0.03,1,849.73,1098.62)">WithoutAnyMercyBecauseWo</text></g>
<g clip-path="url(#clip12)"><text x="0" y="4" fill="rgb(38, 70, 83)" dominant-baseline="text-before-edge" font-weight="600" font-size="22px" font-family="&quot;Segoe UI&quot;, sans-serif" transform="matrix(1,0.03,-0.03,1,848.62,1130.5)">rdBreakAndOverflowWrapSh</text></g>
<g clip-path="url(#clip12)"><text x="0" y="4" fill="rgb(38, 70, 83)" dominant-baseline="text-before-edge" font-weight="600" font-size="22px" font-family="&quot;Segoe UI&quot;, sans-serif" transform="matrix(1,0.03,-0.03,1,847.51,1162.38)">ouldStillPreserveTheLayout.</text></g>
</svg>