  0
SECTION
  2
HEADER
  0
ENDSEC
  0
SECTION
  2
CLASSES
  0
CLASS
  1
ACDBDICTIONARYWDFLT
  2
AcDbDictionaryWithDefault
  3
ObjectDBX Classes
 90
32768
280
0
281
0
  0
CLASS
  1
ACDBPLACEHOLDER
  2
AcDbPlaceHolder
  3
ObjectDBX Classes
 90
0
280
0
281
0
  0
CLASS
  1
LAYOUT
  2
AcDbLayout
  3
ObjectDBX Classes
 90
0
280
0
281
0
  0
CLASS
  1
DICTIONARYVAR
  2
AcDbDictionaryVar
  3
ObjectDBX Classes
 90
0
280
0
281
0
  0
CLASS
  1
TABLESTYLE
  2
AcDbTableStyle
  3
ObjectDBX Classes
 90
4095
280
0
281
0
  0
CLASS
  1
MATERIAL
  2
AcDbMaterial
  3
ObjectDBX Classes
 90
1153
280
0
281
0
  0
CLASS
  1
VISUALSTYLE
  2
AcDbVisualStyle
  3
ObjectDBX Classes
 90
4095
280
0
281
0
  0
CLASS
  1
SCALE
  2
AcDbScale
  3
ObjectDBX Classes
 90
1153
280
0
281
0
  0
CLASS
  1
MLEADERSTYLE
  2
AcDbMLeaderStyle
  3
ObjectDBX Classes
 90
4095
280
0
281
0
  0
CLASS
  1
CELLSTYLEMAP
  2
AcDbCellStyleMap
  3
ObjectDBX Classes
 90
1152
280
0
281
0
  0
CLASS
  1
EXACXREFPANELOBJECT
  2
ExAcXREFPanelObject
  3
ObjectDBX Classes
 90
1025
280
0
281
0
  0
CLASS
  1
NPOCOLLECTION
  2
AcDbImpNonPersistentObjectsCollection
  3
ObjectDBX Classes
 90
1153
280
0
281
0
  0
CLASS
  1
LAYER_INDEX
  2
AcDbLayerIndex
  3
ObjectDBX Classes
 90
0
280
0
281
0
  0
CLASS
  1
SPATIAL_INDEX
  2
AcDbSpatialIndex
  3
ObjectDBX Classes
 90
0
280
0
281
0
  0
CLASS
  1
IDBUFFER
  2
AcDbIdBuffer
  3
ObjectDBX Classes
 90
32768
280
0
281
0
  0
CLASS
  1
ACDBSECTIONVIEWSTYLE
  2
AcDbSectionViewStyle
  3
ObjectDBX Classes
 90
1025
280
0
281
0
  0
CLASS
  1
ACDBDETAILVIEWSTYLE
  2
AcDbDetailViewStyle
  3
ObjectDBX Classes
 90
1025
280
0
281
0
  0
CLASS
  1
MESH
  2
AcDbSubDMesh
  3
ObjectDBX Classes
 90
0
280
0
281
1
  0
CLASS
  1
SORTENTSTABLE
  2
AcDbSortentsTable
  3
ObjectDBX Classes
 90
0
280
0
281
0
  0
CLASS
  1
ACDB_TEXTOBJECTCONTEXTDATA_CLASS
  2
AcDbTextObjectContextData
  3
ObjectDBX Classes
 90
1153
280
0
281
0
  0
CLASS
  1
WIPEOUT
  2
AcDbWipeout
  3
WipeOut
 90
32895
280
0
281
1
  0
CLASS
  1
WIPEOUTVARIABLES
  2
AcDbWipeoutVariables
  3
WipeOut
 90
32768
280
0
281
0
  0
CLASS
  1
DIMASSOC
  2
AcDbDimAssoc
  3
AcDbDimAssoc
 90
0
280
0
281
0
  0
CLASS
  1
ACAD_TABLE
  2
AcDbTable
  3
ObjectDBX Classes
 90
1025
280
0
281
1
  0
CLASS
  1
TABLECONTENT
  2
AcDbTableContent
  3
ObjectDBX Classes
 90
1152
280
0
281
0
  0
CLASS
  1
TABLEGEOMETRY
  2
AcDbTableGeometry
  3
ObjectDBX Classes
 90
1152
280
0
281
0
  0
CLASS
  1
IMAGE
  2
AcDbRasterImage
  3
ISM
 90
32895
280
0
281
1
  0
CLASS
  1
IMAGEDEF
  2
AcDbRasterImageDef
  3
ISM
 90
0
280
0
281
0
  0
CLASS
  1
IMAGEDEF_REACTOR
  2
AcDbRasterImageDefReactor
  3
ISM
 90
1
280
0
281
0
  0
CLASS
  1
DBCOLOR
  2
AcDbColor
  3
ObjectDBX Classes
 90
0
280
0
281
0
  0
CLASS
  1
GEODATA
  2
AcDbGeoData
  3
ObjectDBX Classes
 90
4095
280
0
281
0
  0
CLASS
  1
MULTILEADER
  2
AcDbMLeader
  3
ObjectDBX Classes
 90
1025
280
0
281
0
  0
CLASS
  1
PDFUNDERLAY
  2
AcDbPdfReference
  3
ObjectDBX Classes
 90
4095
280
0
281
1
  0
CLASS
  1
PDFDEFINITION
  2
AcDbPdfDefinition
  3
ObjectDBX Classes
 90
1153
280
0
281
0
  0
CLASS
  1
RASTERVARIABLES
  2
AcDbRasterVariables
  3
ISM
 90
0
280
0
281
0
  0
CLASS
  1
SPATIAL_FILTER
  2
AcDbSpatialFilter
  3
ObjectDBX Classes
 90
0
280
0
281
0
  0
CLASS
  1
ACDB_MLEADEROBJECTCONTEXTDATA_CLASS
  2
AcDbMLeaderObjectContextData
  3
ObjectDBX Classes
 90
1025
280
0
281
0
  0
CLASS
  1
PLOTSETTINGS
  2
AcDbPlotSettings
  3
ObjectDBX Classes
 90
0
280
0
281
0
  0
CLASS
  1
FIELD
  2
AcDbField
  3
ObjectDBX Classes
 90
1152
280
0
281
0
  0
CLASS
  1
FIELDLIST
  2
AcDbFieldList
  3
ObjectDBX Classes
 90
1152
280
0
281
0
  0
CLASS
  1
ACDB_MTEXTATTRIBUTEOBJECTCONTEXTDATA_CLASS
  2
AcDbMTextAttributeObjectContextData
  3
ObjectDBX Classes
 90
1153
280
0
281
0
  0
CLASS
  1
ACDB_BLKREFOBJECTCONTEXTDATA_CLASS
  2
AcDbBlkRefObjectContextData
  3
ObjectDBX Classes
 90
1153
280
0
281
0
  0
ENDSEC
  0
SECTION
  2
TABLES
  0
TABLE
  2
VPORT
  5
A
330
0
100
AcDbSymbolTable
 70
1
  0
VPORT
  5
18
330
A
100
AcDbSymbolTableRecord
100
AcDbViewportTableRecord
  2
*Active
 70
0
 10
0.0
 20
0.0
 11
1.0
 21
1.0
 12
0.0
 22
0.0
 13
0.0
 23
0.0
 14
0.5
 24
0.5
 15
10.0
 25
10.0
 16
0.0
 26
0.0
 36
1.0
 17
0.0
 27
0.0
 37
0.0
 40
10.0
 41
1.0
 75
0
 76
1
  0
ENDTAB
  0
TABLE
  2
LTYPE
  5
6
330
0
100
AcDbSymbolTable
 70
3
  0
LTYPE
  5
B
330
6
100
AcDbSymbolTableRecord
100
AcDbLinetypeTableRecord
  2
ByLayer
 70
0
 72
0
 73
0
 40
0.0
  0
LTYPE
  5
C
330
6
100
AcDbSymbolTableRecord
100
AcDbLinetypeTableRecord
  2
ByBlock
 70
0
 72
0
 73
0
 40
0.0
  0
LTYPE
  5
D
330
6
100
AcDbSymbolTableRecord
100
AcDbLinetypeTableRecord
  2
Continuous
 70
0
 72
0
 73
0
 40
0.0
  0
ENDTAB
  0
TABLE
  2
LAYER
  5
5
330
0
100
AcDbSymbolTable
 70
1
  0
LAYER
  5
E
330
5
100
AcDbSymbolTableRecord
100
AcDbLayerTableRecord
  2
0
 70
0
 62
7
  6
Continuous
290
1
370
-3
390
0
  0
ENDTAB
  0
TABLE
  2
STYLE
  5
7
330
0
100
AcDbSymbolTable
 70
1
  0
STYLE
  5
15
330
7
100
AcDbSymbolTableRecord
100
AcDbTextStyleTableRecord
  2
Standard
 70
0
 40
0.0
 41
1.0
 42
0.0
 50
0.0
 71
0
  0
ENDTAB
  0
TABLE
  2
VIEW
  5
9
330
0
100
AcDbSymbolTable
 70
0
  0
ENDTAB
  0
TABLE
  2
UCS
  5
8
330
0
100
AcDbSymbolTable
 70
0
  0
ENDTAB
  0
TABLE
  2
APPID
  5
2
330
0
100
AcDbSymbolTable
 70
1
  0
APPID
  5
17
330
2
100
AcDbSymbolTableRecord
100
AcDbRegAppTableRecord
  2
ACAD
 70
0
  0
ENDTAB
  0
TABLE
  2
DIMSTYLE
  5
4
330
0
100
AcDbSymbolTable
 70
1
100
AcDbDimStyleTable
  0
DIMSTYLE
105
16
330
4
100
AcDbSymbolTableRecord
100
AcDbDimStyleTableRecord
  2
Standard
 70
0
  3
<>
  4
[]
 40
1.0
 41
0.18
 42
0.625
 43
3.75
 44
1.25
 45
0.0
 46
0.0
 47
0.0
 48
0.0
 49
1.0
 50
0.7853981633974483
 70
0
 90
0
140
0.18
141
0.09
142
0.0
143
25.3999999999999986
144
1.0
145
0.0
146
1.0
147
0.625
148
0.0
 71
0
 72
0
 73
0
 74
0
 75
0
 76
0
 77
1
 78
8
 79
0
170
0
171
3
172
0
173
1
174
0
175
0
176
0
177
0
178
0
179
0
271
2
272
2
273
2
274
3
275
0
276
0
277
2
278
46
279
0
280
0
281
0
282
0
283
0
284
8
285
0
286
0
287
0
288
0
289
3
290
0
340
0
371
-2
372
-2
  0
ENDTAB
  0
TABLE
  2
BLOCK_RECORD
  5
3
330
0
100
AcDbSymbolTable
 70
2
  0
BLOCK_RECORD
  5
F
330
3
100
AcDbSymbolTableRecord
100
AcDbBlockTableRecord
  2
*Model_Space
 70
0
 70
0
280
0
281
1
  0
BLOCK_RECORD
  5
12
330
3
100
AcDbSymbolTableRecord
100
AcDbBlockTableRecord
  2
*Paper_Space
 70
0
 70
0
280
0
281
1
  0
ENDTAB
  0
ENDSEC
  0
SECTION
  2
BLOCKS
  0
BLOCK
  5
10
330
F
100
AcDbEntity
  8
0
  6
ByLayer
 62
256
 48
1.0
 60
0
370
-1
100
AcDbBlockBegin
  2
*Model_Space
 70
0
 10
0.0
 20
0.0
 30
0.0
  3
*Model_Space
  0
ENDBLK
  5
11
330
F
100
AcDbEntity
  8
0
100
AcDbBlockEnd
  0
BLOCK
  5
13
330
12
100
AcDbEntity
  8
0
  6
ByLayer
 62
256
 48
1.0
 60
0
370
-1
100
AcDbBlockBegin
  2
*Paper_Space
 70
0
 10
0.0
 20
0.0
 30
0.0
  3
*Paper_Space
  0
ENDBLK
  5
14
330
12
100
AcDbEntity
  8
0
100
AcDbBlockEnd
  0
ENDSEC
  0
SECTION
  2
ENTITIES
  0
TEXT
  5
19
330
F
100
AcDbEntity
  8
0
  6
ByLayer
420
9375783
 48
1.0
 60
0
370
-1
100
AcDbText
 39
0.0
 10
56.0
 20
1479.25
 30
0.0
 40
70.0
  1
CSS
 50
0.0
 41
1.0
 51
0.0
  7
Standard
 71
0
 72
0
 11
0.0
 21
0.0
 31
0.0
210
0.0
220
0.0
230
1.0
100
AcDbText
 73
0
  0
TEXT
  5
1A
330
F
100
AcDbEntity
  8
0
  6
ByLayer
420
9375783
 48
1.0
 60
0
370
-1
100
AcDbText
 39
0.0
 10
56.0
 20
1412.75
 30
0.0
 40
70.0
  1
PROPERTY
 50
0.0
 41
1.0
 51
0.0
  7
Standard
 71
0
 72
0
 11
0.0
 21
0.0
 31
0.0
210
0.0
220
0.0
230
1.0
100
AcDbText
 73
0
  0
TEXT
  5
1B
330
F
100
AcDbEntity
  8
0
  6
ByLayer
420
9375783
 48
1.0
 60
0
370
-1
100
AcDbText
 39
0.0
 10
56.0
 20
1346.25
 30
0.0
 40
70.0
  1
SUPPORT
 50
0.0
 41
1.0
 51
0.0
  7
Standard
 71
0
 72
0
 11
0.0
 21
0.0
 31
0.0
210
0.0
220
0.0
230
1.0
100
AcDbText
 73
0
  0
TEXT
  5
1C
330
F
100
AcDbEntity
  8
0
  6
ByLayer
 62
256
 48
1.0
 60
0
370
-1
100
AcDbText
 39
0.0
 10
56.0
 20
1289.95001220703125
 30
0.0
 40
22.0
  1
A focused demo for visual and text properties, including
 50
0.0
 41
1.0
 51
0.0
  7
Standard
 71
0
 72
0
 11
0.0
 21
0.0
 31
0.0
210
0.0
220
0.0
230
1.0
100
AcDbText
 73
0
  0
TEXT
  5
1D
330
F
100
AcDbEntity
  8
0
  6
ByLayer
 62
256
 48
1.0
 60
0
370
-1
100
AcDbText
 39
0.0
 10
56.0
 20
1255.850006103515625
 30
0.0
 40
22.0
  1
transformed boxes, mixed compositing, masking,
 50
0.0
 41
1.0
 51
0.0
  7
Standard
 71
0
 72
0
 11
0.0
 21
0.0
 31
0.0
210
0.0
220
0.0
230
1.0
100
AcDbText
 73
0
  0
TEXT
  5
1E
330
F
100
AcDbEntity
  8
0
  6
ByLayer
 62
256
 48
1.0
 60
0
370
-1
100
AcDbText
 39
0.0
 10
56.0
 20
1221.75
 30
0.0
 40
22.0
  1
ellipsis, vertical writing, and whitespace-sensitive text.
 50
0.0
 41
1.0
 51
0.0
  7
Standard
 71
0
 72
0
 11
0.0
 21
0.0
 31
0.0
210
0.0
220
0.0
230
1.0
100
AcDbText
 73
0
  0
TEXT
  5
1F
330
F
100
AcDbEntity
  8
0
  6
ByLayer
420
1454671
 48
1.0
 60
0
370
-1
100
AcDbText
 39
0.0
 10
902.7833251953125
 20
1507.5
 30
0.0
 40
14.0
  1
OUTLINE
 50
0.0
 41
1.0
 51
0.0
  7
Standard
 71
0
 72
0
 11
0.0
 21
0.0
 31
0.0
210
0.0
220
0.0
230
1.0
100
AcDbText
 73
0
  0
TEXT
  5
20
330
F
100
AcDbEntity
  8
0
  6
ByLayer
420
1454671
 48
1.0
 60
0
370
-1
100
AcDbText
 39
0.0
 10
1021.5999755859375
 20
1507.5
 30
0.0
 40
14.0
  1
FILTER
 50
0.0
 41
1.0
 51
0.0
  7
Standard
 71
0
 72
0
 11
0.0
 21
0.0
 31
0.0
210
0.0
220
0.0
230
1.0
100
AcDbText
 73
0
  0
TEXT
  5
21
330
F
100
AcDbEntity
  8
0
  6
ByLayer
420
1454671
 48
1.0
 60
0
370
-1
100
AcDbText
 39
0.0
 10
1122.433349609375
 20
1507.5
 30
0.0
 40
14.0
  1
MIX-BLEND-MODE
 50
0.0
 41
1.0
 51
0.0
  7
Standard
 71
0
 72
0
 11
0.0
 21
0.0
 31
0.0
210
0.0
220
0.0
230
1.0
100
AcDbText
 73
0
  0
TEXT
  5
22
330
F
100
AcDbEntity
  8
0
  6
ByLayer
420
1454671
 48
1.0
 60
0
370
-1
100
AcDbText
 39
0.0
 10
1319.0833740234375
 20
1507.5
 30
0.0
 40
14.0
  1
MASK
 50
0.0
 41
1.0
 51
0.0
  7
Standard
 71
0
 72
0
 11
0.0
 21
0.0
 31
0.0
210
0.0
220
0.0
230
1.0
100
AcDbText
 73
0
  0
TEXT
  5
23
330
F
100
AcDbEntity
  8
0
  6
ByLayer
420
1454671
 48
1.0
 60
0
370
-1
100
AcDbText
 39
0.0
 10
1052.61669921875
 20
1457.5
 30
0.0
 40
14.0
  1
WRITING-MODE
 50
0.0
 41
1.0
 51
0.0
  7
Standard
 71
0
 72
0
 11
0.0
 21
0.0
 31
0.0
210
0.0
220
0.0
230
1.0
100
AcDbText
 73
0
  0
TEXT
  5
24
330
F
100
AcDbEntity
  8
0
  6
ByLayer
420
1454671
 48
1.0
 60
0
370
-1
100
AcDbText
 39
0.0
 10
1229.550048828125
 20
1457.5
 30
0.0
 40
14.0
  1
TEXT-OVERFLOW
 50
0.0
 41
1.0
 51
0.0
  7
Standard
 71
0
 72
0
 11
0.0
 21
0.0
 31
0.0
210
0.0
220
0.0
230
1.0
100
AcDbText
 73
0
  0
TEXT
  5
25
330
F
100
AcDbEntity
  8
0
  6
ByLayer
420
1454671
 48
1.0
 60
0
370
-1
100
AcDbText
 39
0.0
 10
84.0
 20
1114.20001220703125
 30
0.0
 40
30.0
  1
VISUAL PROPERTIES
 50
0.0
 41
1.0
 51
0.0
  7
Standard
 71
0
 72
0
 11
0.0
 21
0.0
 31
0.0
210
0.0
220
0.0
230
1.0
100
AcDbText
 73
0
  0
HATCH
  5
26
330
F
100
AcDbEntity
  8
0
  6
ByLayer
420
16763450
 48
1.0
 60
0
370
-1
100
AcDbHatch
 30
0.0
210
0.0
220
0.0
230
1.0
  2
SOLID
 70
1
 71
0
 91
1
 92
2
 72
0
 73
1
 93
20
 10
129.0228139080705887
 20
1001.2170690569309954
 10
131.1833019514111527
 20
1013.7031595561113591
 10
136.6875799895034902
 20
1023.1784879035520817
 10
145.5356480223476012
 20
1029.6430540992532769
 10
157.7275060499434289
 20
1033.0968581432148312
 10
359.7421899949784461
 20
1061.4881638294414188
 10
371.811899921236602
 20
1061.4440999740477309
 10
380.293523650067641
 20
1057.4150624716833136
 10
385.1870611814716199
 20
1049.4010513223479393
 10
386.4925125154484249
 20
1037.4020665260418355
 10
382.6350814786922001
 20
926.9394251731768009
 10
380.4745945544368055
 20
914.4533346490021586
 10
374.9703173111441856
 20
904.9780063160613963
 10
366.1222497488141698
 20
898.5134401743544004
 10
353.9303918674469287
 20
895.0596362238811707
 10
151.9156927272796622
 20
866.6683300847125793
 10
139.8459829472500644
 20
866.7123940335945917
 10
131.3643596889331207
 20
870.7414315899532085
 10
126.4708229523288594
 20
878.7554427537884294
 10
125.1653727374372238
 20
890.7544275251002546
 97
0
 75
0
 76
1
 47
0.0
 98
0
  0
LWPOLYLINE
  5
27
330
F
100
AcDbEntity
  8
0
  6
ByLayer
420
16763450
 48
1.0
 60
0
370
-1
100
AcDbPolyline
 90
20
 70
1
 43
0.0
 38
0.0
 39
0.0
210
0.0
220
0.0
230
1.0
 10
129.0228139080705887
 20
1001.2170690569309954
 40
0.0
 41
0.0
 42
0.0
 10
131.1833019514111527
 20
1013.7031595561113591
 40
0.0
 41
0.0
 42
0.0
 10
136.6875799895034902
 20
1023.1784879035520817
 40
0.0
 41
0.0
 42
0.0
 10
145.5356480223476012
 20
1029.6430540992532769
 40
0.0
 41
0.0
 42
0.0
 10
157.7275060499434289
 20
1033.0968581432148312
 40
0.0
 41
0.0
 42
0.0
 10
359.7421899949784461
 20
1061.4881638294414188
 40
0.0
 41
0.0
 42
0.0
 10
371.811899921236602
 20
1061.4440999740477309
 40
0.0
 41
0.0
 42
0.0
 10
380.293523650067641
 20
1057.4150624716833136
 40
0.0
 41
0.0
 42
0.0
 10
385.1870611814716199
 20
1049.4010513223479393
 40
0.0
 41
0.0
 42
0.0
 10
386.4925125154484249
 20
1037.4020665260418355
 40
0.0
 41
0.0
 42
0.0
 10
382.6350814786922001
 20
926.9394251731768009
 40
0.0
 41
0.0
 42
0.0
 10
380.4745945544368055
 20
914.4533346490021586
 40
0.0
 41
0.0
 42
0.0
 10
374.9703173111441856
 20
904.9780063160613963
 40
0.0
 41
0.0
 42
0.0
 10
366.1222497488141698
 20
898.5134401743544004
 40
0.0
 41
0.0
 42
0.0
 10
353.9303918674469287
 20
895.0596362238811707
 40
0.0
 41
0.0
 42
0.0
 10
151.9156927272796622
 20
866.6683300847125793
 40
0.0
 41
0.0
 42
0.0
 10
139.8459829472500644
 20
866.7123940335945917
 40
0.0
 41
0.0
 42
0.0
 10
131.3643596889331207
 20
870.7414315899532085
 40
0.0
 41
0.0
 42
0.0
 10
126.4708229523288594
 20
878.7554427537884294
 40
0.0
 41
0.0
 42
0.0
 10
125.1653727374372238
 20
890.7544275251002546
 40
0.0
 41
0.0
 42
0.0
  0
TEXT
  5
28
330
F
100
AcDbEntity
  8
0
  6
ByLayer
420
16777215
 48
1.0
 60
0
370
-1
100
AcDbText
 39
0.0
 10
150.0492281058922401
 20
926.0932535075454552
 30
0.0
 40
28.0
  1
OUTLINE +
 50
8.0000052877810699
 41
1.0
 51
0.0
  7
Standard
 71
0
 72
0
 11
0.0
 21
0.0
 31
0.0
210
0.0
220
0.0
230
1.0
100
AcDbText
 73
0
  0
TEXT
  5
29
330
F
100
AcDbEntity
  8
0
  6
ByLayer
420
16777215
 48
1.0
 60
0
370
-1
100
AcDbText
 39
0.0
 10
149.0569643119469276
 20
897.6785806559829552
 30
0.0
 40
28.0
  1
FILTER
 50
8.0000025331919709
 41
1.0
 51
0.0
  7
Standard
 71
0
 72
0
 11
0.0
 21
0.0
 31
0.0
210
0.0
220
0.0
230
1.0
100
AcDbText
 73
0
  0
HATCH
  5
2A
330
F
100
AcDbEntity
  8
0
  6
ByLayer
420
1149618
 48
1.0
 60
0
370
-1
100
AcDbHatch
 30
0.0
210
0.0
220
0.0
230
1.0
  2
SOLID
 70
1
 71
0
 91
1
 92
2
 72
0
 73
1
 93
20
 10
474.4403614131485938
 20
971.3065607143740863
 10
475.116044029319653
 20
983.6624681463383695
 10
479.5834532909813106
 20
992.8367389495736006
 10
487.8425891981337372
 20
998.8293731240801208
 10
499.8934517507767623
 20
1001.6403706698578162
 10
683.1932792062544877
 20
1017.6770121426421838
 10
695.5491869355410017
 20
1017.0013282518377764
 10
704.7234583726242363
 20
1012.5339181165977607
 10
710.7160935175038503
 20
1004.2747817369224776
 10
713.5270923701798438
 20
992.2239191128115863
 10
721.7197338016951562
 20
898.5816228793759137
 10
721.0440511855240402
 20
886.2257154474116305
 10
716.5766419238623257
 20
877.0514446441763994
 10
708.3175060167100128
 20
871.0588104696698792
 10
696.2666434640669877
 20
868.2478129238921838
 10
512.9668160085892623
 20
852.2111714511078162
 10
500.6109082793026346
 20
852.8868553419122236
 10
491.4366368422195706
 20
857.3542654771522393
 10
485.4440016973399565
 20
865.6134018568275224
 10
482.6330028446639062
 20
877.6642644809384137
 97
0
 75
0
 76
1
 47
0.0
 98
0
  0
LWPOLYLINE
  5
2B
330
F
100
AcDbEntity
  8
0
  6
ByLayer
420
1149618
 48
1.0
 60
0
370
-1
100
AcDbPolyline
 90
20
 70
1
 43
0.0
 38
0.0
 39
0.0
210
0.0
220
0.0
230
1.0
 10
474.4403614131485938
 20
971.3065607143740863
 40
0.0
 41
0.0
 42
0.0
 10
475.116044029319653
 20
983.6624681463383695
 40
0.0
 41
0.0
 42
0.0
 10
479.5834532909813106
 20
992.8367389495736006
 40
0.0
 41
0.0
 42
0.0
 10
487.8425891981337372
 20
998.8293731240801208
 40
0.0
 41
0.0
 42
0.0
 10
499.8934517507767623
 20
1001.6403706698578162
 40
0.0
 41
0.0
 42
0.0
 10
683.1932792062544877
 20
1017.6770121426421838
 40
0.0
 41
0.0
 42
0.0
 10
695.5491869355410017
 20
1017.0013282518377764
 40
0.0
 41
0.0
 42
0.0
 10
704.7234583726242363
 20
1012.5339181165977607
 40
0.0
 41
0.0
 42
0.0
 10
710.7160935175038503
 20
1004.2747817369224776
 40
0.0
 41
0.0
 42
0.0
 10
713.5270923701798438
 20
992.2239191128115863
 40
0.0
 41
0.0
 42
0.0
 10
721.7197338016951562
 20
898.5816228793759137
 40
0.0
 41
0.0
 42
0.0
 10
721.0440511855240402
 20
886.2257154474116305
 40
0.0
 41
0.0
 42
0.0
 10
716.5766419238623257
 20
877.0514446441763994
 40
0.0
 41
0.0
 42
0.0
 10
708.3175060167100128
 20
871.0588104696698792
 40
0.0
 41
0.0
 42
0.0
 10
696.2666434640669877
 20
868.2478129238921838
 40
0.0
 41
0.0
 42
0.0
 10
512.9668160085892623
 20
852.2111714511078162
 40
0.0
 41
0.0
 42
0.0
 10
500.6109082793026346
 20
852.8868553419122236
 40
0.0
 41
0.0
 42
0.0
 10
491.4366368422195706
 20
857.3542654771522393
 40
0.0
 41
0.0
 42
0.0
 10
485.4440016973399565
 20
865.6134018568275224
 40
0.0
 41
0.0
 42
0.0
 10
482.6330028446639062
 20
877.6642644809384137
 40
0.0
 41
0.0
 42
0.0
  0
TEXT
  5
2C
330
F
100
AcDbEntity
  8
0
  6
ByLayer
420
16777215
 48
1.0
 60
0
370
-1
100
AcDbText
 39
0.0
 10
503.8398389170022824
 20
910.6380565400750129
 30
0.0
 40
28.0
  1
BASE
 50
4.9999963701542427
 41
1.0
 51
0.0
  7
Standard
 71
0
 72
0
 11
0.0
 21
0.0
 31
0.0
210
0.0
220
0.0
230
1.0
100
AcDbText
 73
0
  0
TEXT
  5
2D
330
F
100
AcDbEntity
  8
0
  6
ByLayer
420
16777215
 48
1.0
 60
0
370
-1
100
AcDbText
 39
0.0
 10
506.2802075693460324
 20
882.7445628877312629
 30
0.0
 40
28.0
  1
LAYER
 50
5.0000035581691487
 41
1.0
 51
0.0
  7
Standard
 71
0
 72
0
 11
0.0
 21
0.0
 31
0.0
210
0.0
220
0.0
230
1.0
100
AcDbText
 73
0
  0
TEXT
  5
2E
330
F
100
AcDbEntity
  8
0
  6
ByLayer
420
16777215
 48
1.0
 60
0
370
-1
100
AcDbText
 39
0.0
 10
571.8204692986964801
 20
841.3140185885985147
 30
0.0
 40
28.0
  1
BLEND
 50
-2.0000033935309807
 41
1.0
 51
0.0
  7
Standard
 71
0
 72
0
 11
0.0
 21
0.0
 31
0.0
210
0.0
220
0.0
230
1.0
100
AcDbText
 73
0
  0
TEXT
  5
2F
330
F
100
AcDbEntity
  8
0
  6
ByLayer
420
16777215
 48
1.0
 60
0
370
-1
100
AcDbText
 39
0.0
 10
944.6806351345650228
 20
848.3551309606440327
 30
0.0
 40
28.0
  1
MASKED
 50
-6.9999929449974267
 41
1.0
 51
0.0
  7
Standard
 71
0
 72
0
 11
0.0
 21
0.0
 31
0.0
210
0.0
220
0.0
230
1.0
100
AcDbText
 73
0
  0
TEXT
  5
30
330
F
100
AcDbEntity
  8
0
  6
ByLayer
420
1454671
 48
1.0
 60
0
370
-1
100
AcDbText
 39
0.0
 10
84.0
 20
611.20001220703125
 30
0.0
 40
30.0
  1
TEXT PROPERTIES
 50
0.0
 41
1.0
 51
0.0
  7
Standard
 71
0
 72
0
 11
0.0
 21
0.0
 31
0.0
210
0.0
220
0.0
230
1.0
100
AcDbText
 73
0
  0
TEXT
  5
31
330
F
100
AcDbEntity
  8
0
  6
ByLayer
 62
256
 48
1.0
 60
0
370
-1
100
AcDbText
 39
0.0
 10
108.0
 20
547.699951171875
 30
0.0
 40
14.0
  1
TYPOGRAPHY STACK
 50
0.0
 41
1.0
 51
0.0
  7
Standard
 71
0
 72
0
 11
0.0
 21
0.0
 31
0.0
210
0.0
220
0.0
230
1.0
100
AcDbText
 73
0
  0
TEXT
  5
32
330
F
100
AcDbEntity
  8
0
  6
ByLayer
420
6953805
 48
1.0
 60
0
370
-1
100
AcDbText
 39
0.0
 10
173.5085319263218366
 20
505.0912721249799233
 30
0.0
 40
30.0
  1
MUSEUM COPY
 50
3.0000082569402915
 41
1.0
 51
0.0
  7
Standard
 71
0
 72
0
 11
0.0
 21
0.0
 31
0.0
210
0.0
220
0.0
230
1.0
100
AcDbText
 73
0
  0
TEXT
  5
33
330
F
100
AcDbEntity
  8
0
  6
ByLayer
420
6953805
 48
1.0
 60
0
370
-1
100
AcDbText
 39
0.0
 10
112.0036948901890383
 20
455.8048951718549233
 30
0.0
 40
30.0
  1
LEANS INTO RHYTHM 
 50
3.0000062437165997
 41
1.0
 51
0.0
  7
Standard
 71
0
 72
0
 11
0.0
 21
0.0
 31
0.0
210
0.0
220
0.0
230
1.0
100
AcDbText
 73
0
  0
TEXT
  5
34
330
F
100
AcDbEntity
  8
0
  6
ByLayer
420
6953805
 48
1.0
 60
0
370
-1
100
AcDbText
 39
0.0
 10
114.4111503345249758
 20
409.8678834531049233
 30
0.0
 40
30.0
  1
AND SPACING
 50
2.9999991751138202
 41
1.0
 51
0.0
  7
Standard
 71
0
 72
0
 11
0.0
 21
0.0
 31
0.0
210
0.0
220
0.0
230
1.0
100
AcDbText
 73
0
  0
TEXT
  5
35
330
F
100
AcDbEntity
  8
0
  6
ByLayer
420
8344889
 48
1.0
 60
0
370
-1
100
AcDbText
 39
0.0
 10
106.6955543320142823
 20
357.5455633254434815
 30
0.0
 40
22.0
  1
This sentence intentionally…
 50
-4.0000006359662486
 41
1.0
 51
0.0
  7
Standard
 71
0
 72
0
 11
0.0
 21
0.0
 31
0.0
210
0.0
220
0.0
230
1.0
100
AcDbText
 73
0
  0
TEXT
  5
36
330
F
100
AcDbEntity
  8
0
  6
ByLayer
 62
256
 48
1.0
 60
0
370
-1
100
AcDbText
 39
0.0
 10
851.29998779296875
 20
547.699951171875
 30
0.0
 40
14.0
  1
WRAPPING AND DIRECTION
 50
0.0
 41
1.0
 51
0.0
  7
Standard
 71
0
 72
0
 11
0.0
 21
0.0
 31
0.0
210
0.0
220
0.0
230
1.0
100
AcDbText
 73
0
  0
TEXT
  5
37
330
F
100
AcDbEntity
  8
0
  6
ByLayer
420
2508371
 48
1.0
 60
0
370
-1
100
AcDbText
 39
0.0
 10
850.132574239517453
 20
498.7704403808550069
 30
0.0
 40
22.0
  1
WrapThisAbsurdlyLongToken
 50
-1.9999954956738175
 41
1.0
 51
0.0
  7
Standard
 71
0
 72
0
 11
0.0
 21
0.0
 31
0.0
210
0.0
220
0.0
230
1.0
100
AcDbText
 73
0
  0
TEXT
  5
38
330
F
100
AcDbEntity
  8
0
  6
ByLayer
420
2508371
 48
1.0
 60
0
370
-1
100
AcDbText
 39
0.0
 10
849.019292989517453
 20
466.8898251464800069
 30
0.0
 40
22.0
  1
WithoutAnyMercyBecauseWo
 50
-1.9999901291668025
 41
1.0
 51
0.0
  7
Standard
 71
0
 72
0
 11
0.0
 21
0.0
 31
0.0
210
0.0
220
0.0
230
1.0
100
AcDbText
 73
0
  0
TEXT
  5
39
330
F
100
AcDbEntity
  8
0
  6
ByLayer
420
2508371
 48
1.0
 60
0
370
-1
100
AcDbText
 39
0.0
 10
847.906011739517453
 20
435.0093319824175069
 30
0.0
 40
22.0
  1
rdBreakAndOverflowWrapSh
 50
-1.9999955358265253
 41
1.0
 51
0.0
  7
Standard
 71
0
 72
0
 11
0.0
 21
0.0
 31
0.0
210
0.0
220
0.0
230
1.0
100
AcDbText
 73
0
  0
TEXT
  5
3A
330
F
100
AcDbEntity
  8
0
  6
ByLayer
420
2508371
 48
1.0
 60
0
370
-1
100
AcDbText
 39
0.0
 10
846.792730489517453
 20
403.1287167480425069
 30
0.0
 40
22.0
  1
ouldStillPreserveTheLayout.
 50
-1.9999955155607998
 41
1.0
 51
0.0
  7
Standard
 71
0
 72
0
 11
0.0
 21
0.0
 31
0.0
210
0.0
220
0.0
230
1.0
100
AcDbText
 73
0
  0
TEXT
  5
3B
330
F
100
AcDbEntity
  8
0
  6
ByLayer
420
1454671
 48
1.0
 60
0
370
-1
100
AcDbText
 39
0.0
 10
945.1617522259435873
 20
250.510339050400944
 30
0.0
 40
26.0
  1
RTL FLOW
 50
-5.9999165038409554
 41
1.0
 51
0.0
  7
Standard
 71
0
 72
0
 11
0.0
 21
0.0
 31
0.0
210
0.0
220
0.0
230
1.0
100
AcDbText
 73
0
  0
TEXT
  5
3C
330
F
100
AcDbEntity
  8
0
  6
ByLayer
420
4014171
 48
1.0
 60
0
370
-1
100
AcDbText
 39
0.0
 10
1011.29998779296875
 20
304.949951171875
 30
0.0
 40
18.0
  1
white-space: pre-wrap
 50
0.0
 41
1.0
 51
0.0
  7
Standard
 71
0
 72
0
 11
0.0
 21
0.0
 31
0.0
210
0.0
220
0.0
230
1.0
100
AcDbText
 73
0
  0
TEXT
  5
3D
330
F
100
AcDbEntity
  8
0
  6
ByLayer
420
4014171
 48
1.0
 60
0
370
-1
100
AcDbText
 39
0.0
 10
1011.29998779296875
 20
277.050048828125
 30
0.0
 40
18.0
  1
keeps   deliberate gaps
 50
0.0
 41
1.0
 51
0.0
  7
Standard
 71
0
 72
0
 11
0.0
 21
0.0
 31
0.0
210
0.0
220
0.0
230
1.0
100
AcDbText
 73
0
  0
TEXT
  5
3E
330
F
100
AcDbEntity
  8
0
  6
ByLayer
420
4014171
 48
1.0
 60
0
370
-1
100
AcDbText
 39
0.0
 10
1011.29998779296875
 20
249.1500244140625
 30
0.0
 40
18.0
  1
and carries line breaks 
 50
0.0
 41
1.0
 51
0.0
  7
Standard
 71
0
 72
0
 11
0.0
 21
0.0
 31
0.0
210
0.0
220
0.0
230
1.0
100
AcDbText
 73
0
  0
TEXT
  5
3F
330
F
100
AcDbEntity
  8
0
  6
ByLayer
420
4014171
 48
1.0
 60
0
370
-1
100
AcDbText
 39
0.0
 10
1011.29998779296875
 20
221.25
 30
0.0
 40
18.0
  1
forward.
 50
0.0
 41
1.0
 51
0.0
  7
Standard
 71
0
 72
0
 11
0.0
 21
0.0
 31
0.0
210
0.0
220
0.0
230
1.0
100
AcDbText
 73
0
  0
ENDSEC
  0
SECTION
  2
OBJECTS
  0
DICTIONARY
  5
1
330
0
100
AcDbDictionary
280
0
281
0
  3
ACAD_COLOR
350
0
  3
ACAD_GROUP
350
0
  3
ACAD_LAYOUT
350
0
  3
ACAD_MATERIAL
350
0
  3
ACAD_SORTENTS
350
0
  3
ACAD_MLEADERSTYLE
350
0
  3
ACAD_MLINESTYLE
350
0
  3
ACAD_TABLESTYLE
350
0
  3
ACAD_PLOTSETTINGS
350
0
  3
AcDbVariableDictionary
350
0
  3
ACAD_SCALELIST
350
0
  3
ACAD_VISUALSTYLE
350
0
  3
ACAD_FIELDLIST
350
0
  3
ACAD_IMAGE_DICT
350
0
  0
DICTIONARY
  5
0
330
1
100
AcDbDictionary
280
0
281
0
  0
DICTIONARY
  5
0
330
1
100
AcDbDictionary
280
0
281
0
  0
DICTIONARY
  5
0
330
1
100
AcDbDictionary
280
0
281
0
  0
DICTIONARY
  5
0
330
1
100
AcDbDictionary
280
0
281
0
  0
DICTIONARY
  5
0
330
1
100
AcDbDictionary
280
0
281
0
  0
DICTIONARY
  5
0
330
1
100
AcDbDictionary
280
0
281
0
  0
DICTIONARY
  5
0
330
1
100
AcDbDictionary
280
0
281
0
  0
DICTIONARY
  5
0
330
1
100
AcDbDictionary
280
0
281
0
  0
DICTIONARY
  5
0
330
1
100
AcDbDictionary
280
0
281
0
  0
DICTIONARY
  5
0
330
1
100
AcDbDictionary
280
0
281
0
  0
DICTIONARY
  5
0
330
1
100
AcDbDictionary
280
0
281
0
  0
DICTIONARY
  5
0
330
1
100
AcDbDictionary
280
0
281
0
  0
DICTIONARY
  5
0
330
1
100
AcDbDictionary
280
0
281
0
  0
DICTIONARY
  5
0
330
1
100
AcDbDictionary
280
0
281
0
  0
ENDSEC
  0
EOF
