0
SECTION
2
HEADER
9
$ACADVER
1
AC1021
9
$LASTSAVEDBY
1
@tarikjabiri/dxf
9
$HANDSEED
5
56
9
$INSUNITS
70
0
9
$CLAYER
8
0
9
$VIEWCTR
10
659.5416870117188
20
753.75
0
ENDSEC
0
SECTION
2
CLASSES
0
ENDSEC
0
SECTION
2
TABLES
0
TABLE
2
VPORT
5
1
330
0
100
AcDbSymbolTable
70
1
0
VPORT
5
19
330
1
100
AcDbSymbolTableRecord
100
AcDbViewportTableRecord
2
*Active
70
0
10
0
20
0
11
1
21
1
12
659.5416870117188
22
753.75
13
0
23
0
14
10
24
10
15
10
25
10
16
0
26
0
36
1
17
0
27
0
37
0
40
1707.5
41
2
42
50
43
0
44
0
50
0
51
0
71
0
72
100
73
1
74
3
75
0
76
1
77
0
78
0
281
0
65
1
110
0
120
0
130
0
111
1
121
0
131
0
112
0
122
1
132
0
79
0
146
0
348
10020
60
7
61
5
292
1
282
1
141
0
142
0
63
250
421
3358443
0
ENDTAB
0
TABLE
2
LTYPE
5
2
330
0
100
AcDbSymbolTable
70
3
0
LTYPE
5
12
330
2
100
AcDbSymbolTableRecord
100
AcDbLinetypeTableRecord
2
ByBlock
70
0
3

72
65
73
0
40
0
0
LTYPE
5
13
330
2
100
AcDbSymbolTableRecord
100
AcDbLinetypeTableRecord
2
ByLayer
70
0
3

72
65
73
0
40
0
0
LTYPE
5
14
330
2
100
AcDbSymbolTableRecord
100
AcDbLinetypeTableRecord
2
Continuous
70
0
3
Solid line
72
65
73
0
40
0
0
ENDTAB
0
TABLE
2
LAYER
5
3
330
0
100
AcDbSymbolTable
70
1
0
LAYER
5
15
330
3
100
AcDbSymbolTableRecord
100
AcDbLayerTableRecord
2
0
70
0
62
7
6
Continuous
370
0
390
0
0
ENDTAB
0
TABLE
2
STYLE
5
4
330
0
100
AcDbSymbolTable
70
5
0
STYLE
5
16
330
4
100
AcDbSymbolTableRecord
100
AcDbTextStyleTableRecord
2
Standard
70
0
40
0
41
1
50
0
71
0
42
1
3
txt
4

0
STYLE
5
1B
330
4
100
AcDbSymbolTableRecord
100
AcDbTextStyleTableRecord
2
Georgia
70
0
40
0
41
1
50
0
71
0
42
1
3
Georgia.ttf
4

0
STYLE
5
1F
330
4
100
AcDbSymbolTableRecord
100
AcDbTextStyleTableRecord
2
Aptos
70
0
40
0
41
1
50
0
71
0
42
1
3
Aptos.ttf
4

0
STYLE
5
24
330
4
100
AcDbSymbolTableRecord
100
AcDbTextStyleTableRecord
2
Segoe UI
70
0
40
0
41
1
50
0
71
0
42
1
3
Segoe UI.ttf
4

0
STYLE
5
4B
330
4
100
AcDbSymbolTableRecord
100
AcDbTextStyleTableRecord
2
Courier New
70
0
40
0
41
1
50
0
71
0
42
1
3
Courier New.ttf
4

0
ENDTAB
0
TABLE
2
VIEW
5
5
330
0
100
AcDbSymbolTable
70
0
0
ENDTAB
0
TABLE
2
UCS
5
6
330
0
100
AcDbSymbolTable
70
0
0
ENDTAB
0
TABLE
2
APPID
5
7
330
0
100
AcDbSymbolTable
70
1
0
APPID
5
17
330
7
100
AcDbSymbolTableRecord
100
AcDbRegAppTableRecord
2
ACAD
70
0
0
ENDTAB
0
TABLE
2
DIMSTYLE
5
8
330
0
100
AcDbSymbolTable
70
1
100
AcDbDimStyleTable
0
DIMSTYLE
105
18
330
8
100
AcDbSymbolTableRecord
100
AcDbDimStyleTableRecord
2
Standard
70
0
340
16
0
ENDTAB
0
TABLE
2
BLOCK_RECORD
5
9
330
0
100
AcDbSymbolTable
70
2
0
BLOCK_RECORD
5
C
330
9
100
AcDbSymbolTableRecord
100
AcDbBlockTableRecord
2
*Model_Space
70
0
280
1
281
0
0
BLOCK_RECORD
5
F
330
9
100
AcDbSymbolTableRecord
100
AcDbBlockTableRecord
2
*Paper_Space
70
0
280
1
281
0
0
ENDTAB
0
ENDSEC
0
SECTION
2
BLOCKS
0
BLOCK
5
D
330
C
100
AcDbEntity
8
0
100
AcDbBlockBegin
2
*Model_Space
70
0
10
0
20
0
30
0
3
*Model_Space
1

0
ENDBLK
5
E
100
AcDbEntity
8
0
100
AcDbBlockEnd
0
BLOCK
5
10
330
F
100
AcDbEntity
8
0
100
AcDbBlockBegin
2
*Paper_Space
70
0
10
0
20
0
30
0
3
*Paper_Space
1

0
ENDBLK
5
11
100
AcDbEntity
8
0
100
AcDbBlockEnd
0
ENDSEC
0
SECTION
2
ENTITIES
0
TEXT
5
1A
330
C
100
AcDbEntity
420
9375783
8
0
100
AcDbText
10
56
20
1479.25
30
0
40
70
1
CSS
7
Georgia
100
AcDbText
0
TEXT
5
1C
330
C
100
AcDbEntity
420
9375783
8
0
100
AcDbText
10
56
20
1412.75
30
0
40
70
1
PROPERTY
7
Georgia
100
AcDbText
0
TEXT
5
1D
330
C
100
AcDbEntity
420
9375783
8
0
100
AcDbText
10
56
20
1346.25
30
0
40
70
1
SUPPORT
7
Georgia
100
AcDbText
0
TEXT
5
1E
330
C
100
AcDbEntity
420
1454671
8
0
100
AcDbText
10
56
20
1289.9500122070312
30
0
40
22
1
A focused demo for visual and text properties, including
7
Aptos
100
AcDbText
0
TEXT
5
20
330
C
100
AcDbEntity
420
1454671
8
0
100
AcDbText
10
56
20
1255.8500061035156
30
0
40
22
1
transformed boxes, mixed compositing, masking,
7
Aptos
100
AcDbText
0
TEXT
5
21
330
C
100
AcDbEntity
420
1454671
8
0
100
AcDbText
10
56
20
1221.75
30
0
40
22
1
ellipsis, vertical writing, and whitespace-sensitive text.
7
Aptos
100
AcDbText
0
LWPOLYLINE
5
22
330
C
100
AcDbEntity
420
16777215
8
0
100
AcDbPolyline
90
42
70
0
43
0
38
0
39
0
10
903.7833251953125
20
1530
10
972.5999755859375
20
1530
10
972.5999755859375
20
1530
10
976.3066917042439
20
1529.6349203276613
10
979.8709608008742
20
1528.5537111177146
10
983.15581001331
20
1526.7979226337484
10
986.0350044284819
20
1524.4350288425444
10
988.3978982196859
20
1521.5558344273725
10
990.1536867036519
20
1518.2709852149367
10
991.2348959135988
20
1514.7067161183065
10
991.5999755859375
20
1511
10
991.5999755859375
20
1511
10
991.5999755859375
20
1511
10
991.2348959135988
20
1507.2932838816935
10
990.1536867036519
20
1503.7290147850633
10
988.3978982196859
20
1500.4441655726275
10
986.0350044284819
20
1497.5649711574556
10
983.15581001331
20
1495.2020773662516
10
979.8709608008742
20
1493.4462888822854
10
976.3066917042439
20
1492.3650796723387
10
972.5999755859375
20
1492
10
903.7833251953125
20
1492
10
903.7833251953125
20
1492
10
900.0766090770061
20
1492.3650796723387
10
896.5123399803758
20
1493.4462888822854
10
893.22749076794
20
1495.2020773662516
10
890.3482963527681
20
1497.5649711574556
10
887.9854025615641
20
1500.4441655726275
10
886.2296140775981
20
1503.7290147850633
10
885.1484048676512
20
1507.2932838816935
10
884.7833251953125
20
1511
10
884.7833251953125
20
1511
10
884.7833251953125
20
1511
10
885.1484048676512
20
1514.7067161183065
10
886.2296140775981
20
1518.2709852149367
10
887.9854025615641
20
1521.5558344273725
10
890.3482963527681
20
1524.4350288425444
10
893.22749076794
20
1526.7979226337484
10
896.5123399803758
20
1528.5537111177146
10
900.0766090770061
20
1529.6349203276613
10
903.7833251953125
20
1530
10
903.7833251953125
20
1530
0
TEXT
5
23
330
C
100
AcDbEntity
420
1454671
8
0
100
AcDbText
10
902.7833251953125
20
1507.5
30
0
40
14
1
OUTLINE
7
Segoe UI
100
AcDbText
0
LWPOLYLINE
5
25
330
C
100
AcDbEntity
420
16777215
8
0
100
AcDbPolyline
90
42
70
0
43
0
38
0
39
0
10
1022.5999755859375
20
1530
10
1073.433349609375
20
1530
10
1073.433349609375
20
1530
10
1077.1400657276815
20
1529.6349203276613
10
1080.7043348243117
20
1528.5537111177146
10
1083.9891840367475
20
1526.7979226337484
10
1086.8683784519194
20
1524.4350288425444
10
1089.2312722431234
20
1521.5558344273725
10
1090.9870607270896
20
1518.2709852149367
10
1092.0682699370363
20
1514.7067161183065
10
1092.433349609375
20
1511
10
1092.433349609375
20
1511
10
1092.433349609375
20
1511
10
1092.0682699370363
20
1507.2932838816935
10
1090.9870607270896
20
1503.7290147850633
10
1089.2312722431234
20
1500.4441655726275
10
1086.8683784519194
20
1497.5649711574556
10
1083.9891840367475
20
1495.2020773662516
10
1080.7043348243117
20
1493.4462888822854
10
1077.1400657276815
20
1492.3650796723387
10
1073.433349609375
20
1492
10
1022.5999755859375
20
1492
10
1022.5999755859375
20
1492
10
1018.8932594676311
20
1492.3650796723387
10
1015.3289903710008
20
1493.4462888822854
10
1012.044141158565
20
1495.2020773662516
10
1009.1649467433931
20
1497.5649711574556
10
1006.8020529521891
20
1500.4441655726275
10
1005.0462644682231
20
1503.7290147850633
10
1003.9650552582762
20
1507.2932838816935
10
1003.5999755859375
20
1511
10
1003.5999755859375
20
1511
10
1003.5999755859375
20
1511
10
1003.9650552582762
20
1514.7067161183065
10
1005.0462644682231
20
1518.2709852149367
10
1006.8020529521891
20
1521.5558344273725
10
1009.1649467433931
20
1524.4350288425444
10
1012.044141158565
20
1526.7979226337484
10
1015.3289903710008
20
1528.5537111177146
10
1018.8932594676311
20
1529.6349203276613
10
1022.5999755859375
20
1530
10
1022.5999755859375
20
1530
0
TEXT
5
26
330
C
100
AcDbEntity
420
1454671
8
0
100
AcDbText
10
1021.5999755859375
20
1507.5
30
0
40
14
1
FILTER
7
Segoe UI
100
AcDbText
0
LWPOLYLINE
5
27
330
C
100
AcDbEntity
420
16777215
8
0
100
AcDbPolyline
90
42
70
0
43
0
38
0
39
0
10
1123.433349609375
20
1530
10
1270.0833740234375
20
1530
10
1270.0833740234375
20
1530
10
1273.790090141744
20
1529.6349203276613
10
1277.3543592383742
20
1528.5537111177146
10
1280.63920845081
20
1526.7979226337484
10
1283.518402865982
20
1524.4350288425444
10
1285.8812966571859
20
1521.5558344273725
10
1287.637085141152
20
1518.2709852149367
10
1288.7182943510988
20
1514.7067161183065
10
1289.0833740234375
20
1511
10
1289.0833740234375
20
1511
10
1289.0833740234375
20
1511
10
1288.7182943510988
20
1507.2932838816935
10
1287.637085141152
20
1503.7290147850633
10
1285.8812966571859
20
1500.4441655726275
10
1283.518402865982
20
1497.5649711574556
10
1280.63920845081
20
1495.2020773662516
10
1277.3543592383742
20
1493.4462888822854
10
1273.790090141744
20
1492.3650796723387
10
1270.0833740234375
20
1492
10
1123.433349609375
20
1492
10
1123.433349609375
20
1492
10
1119.7266334910685
20
1492.3650796723387
10
1116.1623643944383
20
1493.4462888822854
10
1112.8775151820025
20
1495.2020773662516
10
1109.9983207668306
20
1497.5649711574556
10
1107.6354269756266
20
1500.4441655726275
10
1105.8796384916604
20
1503.7290147850633
10
1104.7984292817137
20
1507.2932838816935
10
1104.433349609375
20
1511
10
1104.433349609375
20
1511
10
1104.433349609375
20
1511
10
1104.7984292817137
20
1514.7067161183065
10
1105.8796384916604
20
1518.2709852149367
10
1107.6354269756266
20
1521.5558344273725
10
1109.9983207668306
20
1524.4350288425444
10
1112.8775151820025
20
1526.7979226337484
10
1116.1623643944383
20
1528.5537111177146
10
1119.7266334910685
20
1529.6349203276613
10
1123.433349609375
20
1530
10
1123.433349609375
20
1530
0
TEXT
5
28
330
C
100
AcDbEntity
420
1454671
8
0
100
AcDbText
10
1122.433349609375
20
1507.5
30
0
40
14
1
MIX-BLEND-MODE
7
Segoe UI
100
AcDbText
0
LWPOLYLINE
5
29
330
C
100
AcDbEntity
420
16777215
8
0
100
AcDbPolyline
90
42
70
0
43
0
38
0
39
0
10
1320.0833740234375
20
1530
10
1365
20
1530
10
1365
20
1530
10
1368.7067161183065
20
1529.6349203276613
10
1372.2709852149367
20
1528.5537111177146
10
1375.5558344273725
20
1526.7979226337484
10
1378.4350288425444
20
1524.4350288425444
10
1380.7979226337484
20
1521.5558344273725
10
1382.5537111177146
20
1518.2709852149367
10
1383.6349203276613
20
1514.7067161183065
10
1384
20
1511
10
1384
20
1511
10
1384
20
1511
10
1383.6349203276613
20
1507.2932838816935
10
1382.5537111177146
20
1503.7290147850633
10
1380.7979226337484
20
1500.4441655726275
10
1378.4350288425444
20
1497.5649711574556
10
1375.5558344273725
20
1495.2020773662516
10
1372.2709852149367
20
1493.4462888822854
10
1368.7067161183065
20
1492.3650796723387
10
1365
20
1492
10
1320.0833740234375
20
1492
10
1320.0833740234375
20
1492
10
1316.376657905131
20
1492.3650796723387
10
1312.8123888085008
20
1493.4462888822854
10
1309.527539596065
20
1495.2020773662516
10
1306.648345180893
20
1497.5649711574556
10
1304.2854513896891
20
1500.4441655726275
10
1302.529662905723
20
1503.7290147850633
10
1301.4484536957762
20
1507.2932838816935
10
1301.0833740234375
20
1511
10
1301.0833740234375
20
1511
10
1301.0833740234375
20
1511
10
1301.4484536957762
20
1514.7067161183065
10
1302.529662905723
20
1518.2709852149367
10
1304.2854513896891
20
1521.5558344273725
10
1306.648345180893
20
1524.4350288425444
10
1309.527539596065
20
1526.7979226337484
10
1312.8123888085008
20
1528.5537111177146
10
1316.376657905131
20
1529.6349203276613
10
1320.0833740234375
20
1530
10
1320.0833740234375
20
1530
0
TEXT
5
2A
330
C
100
AcDbEntity
420
1454671
8
0
100
AcDbText
10
1319.0833740234375
20
1507.5
30
0
40
14
1
MASK
7
Segoe UI
100
AcDbText
0
LWPOLYLINE
5
2B
330
C
100
AcDbEntity
420
16777215
8
0
100
AcDbPolyline
90
42
70
0
43
0
38
0
39
0
10
1053.61669921875
20
1480
10
1180.550048828125
20
1480
10
1180.550048828125
20
1480
10
1184.2567649464315
20
1479.6349203276613
10
1187.8210340430617
20
1478.5537111177146
10
1191.1058832554975
20
1476.7979226337484
10
1193.9850776706694
20
1474.4350288425444
10
1196.3479714618734
20
1471.5558344273725
10
1198.1037599458396
20
1468.2709852149367
10
1199.1849691557863
20
1464.7067161183065
10
1199.550048828125
20
1461
10
1199.550048828125
20
1461
10
1199.550048828125
20
1461
10
1199.1849691557863
20
1457.2932838816935
10
1198.1037599458396
20
1453.7290147850633
10
1196.3479714618734
20
1450.4441655726275
10
1193.9850776706694
20
1447.5649711574556
10
1191.1058832554975
20
1445.2020773662516
10
1187.8210340430617
20
1443.4462888822854
10
1184.2567649464315
20
1442.3650796723387
10
1180.550048828125
20
1442
10
1053.61669921875
20
1442
10
1053.61669921875
20
1442
10
1049.9099831004435
20
1442.3650796723387
10
1046.3457140038133
20
1443.4462888822854
10
1043.0608647913775
20
1445.2020773662516
10
1040.1816703762056
20
1447.5649711574556
10
1037.8187765850016
20
1450.4441655726275
10
1036.0629881010354
20
1453.7290147850633
10
1034.9817788910887
20
1457.2932838816935
10
1034.61669921875
20
1461
10
1034.61669921875
20
1461
10
1034.61669921875
20
1461
10
1034.9817788910887
20
1464.7067161183065
10
1036.0629881010354
20
1468.2709852149367
10
1037.8187765850016
20
1471.5558344273725
10
1040.1816703762056
20
1474.4350288425444
10
1043.0608647913775
20
1476.7979226337484
10
1046.3457140038133
20
1478.5537111177146
10
1049.9099831004435
20
1479.6349203276613
10
1053.61669921875
20
1480
10
1053.61669921875
20
1480
0
TEXT
5
2C
330
C
100
AcDbEntity
420
1454671
8
0
100
AcDbText
10
1052.61669921875
20
1457.5
30
0
40
14
1
WRITING-MODE
7
Segoe UI
100
AcDbText
0
LWPOLYLINE
5
2D
330
C
100
AcDbEntity
420
16777215
8
0
100
AcDbPolyline
90
42
70
0
43
0
38
0
39
0
10
1230.550048828125
20
1480
10
1365
20
1480
10
1365
20
1480
10
1368.7067161183065
20
1479.6349203276613
10
1372.2709852149367
20
1478.5537111177146
10
1375.5558344273725
20
1476.7979226337484
10
1378.4350288425444
20
1474.4350288425444
10
1380.7979226337484
20
1471.5558344273725
10
1382.5537111177146
20
1468.2709852149367
10
1383.6349203276613
20
1464.7067161183065
10
1384
20
1461
10
1384
20
1461
10
1384
20
1461
10
1383.6349203276613
20
1457.2932838816935
10
1382.5537111177146
20
1453.7290147850633
10
1380.7979226337484
20
1450.4441655726275
10
1378.4350288425444
20
1447.5649711574556
10
1375.5558344273725
20
1445.2020773662516
10
1372.2709852149367
20
1443.4462888822854
10
1368.7067161183065
20
1442.3650796723387
10
1365
20
1442
10
1230.550048828125
20
1442
10
1230.550048828125
20
1442
10
1226.8433327098185
20
1442.3650796723387
10
1223.2790636131883
20
1443.4462888822854
10
1219.9942144007525
20
1445.2020773662516
10
1217.1150199855806
20
1447.5649711574556
10
1214.7521261943766
20
1450.4441655726275
10
1212.9963377104104
20
1453.7290147850633
10
1211.9151285004637
20
1457.2932838816935
10
1211.550048828125
20
1461
10
1211.550048828125
20
1461
10
1211.550048828125
20
1461
10
1211.9151285004637
20
1464.7067161183065
10
1212.9963377104104
20
1468.2709852149367
10
1214.7521261943766
20
1471.5558344273725
10
1217.1150199855806
20
1474.4350288425444
10
1219.9942144007525
20
1476.7979226337484
10
1223.2790636131883
20
1478.5537111177146
10
1226.8433327098185
20
1479.6349203276613
10
1230.550048828125
20
1480
10
1230.550048828125
20
1480
0
TEXT
5
2E
330
C
100
AcDbEntity
420
1454671
8
0
100
AcDbText
10
1229.550048828125
20
1457.5
30
0
40
14
1
TEXT-OVERFLOW
7
Segoe UI
100
AcDbText
0
LWPOLYLINE
5
2F
330
C
100
AcDbEntity
420
16775400
8
0
100
AcDbPolyline
90
42
70
0
43
0
38
0
39
0
10
84
20
1166.2000122070312
10
1356
20
1166.2000122070312
10
1356
20
1166.2000122070312
10
1361.4625290164515
20
1165.6620000583216
10
1366.7151361062224
20
1164.0686391173472
10
1371.555966524549
20
1161.4811613515026
10
1375.7989898732233
20
1157.9990020802545
10
1379.2811491444713
20
1153.7559787315802
10
1381.868626910316
20
1148.9151483132537
10
1383.4619878512904
20
1143.6625412234828
10
1384
20
1138.2000122070312
10
1384
20
725.2000122070312
10
1384
20
725.2000122070312
10
1383.4619878512904
20
719.7374831905796
10
1381.868626910316
20
714.4848761008087
10
1379.2811491444713
20
709.6440456824824
10
1375.7989898732233
20
705.4010223338079
10
1371.555966524549
20
701.91886306256
10
1366.7151361062224
20
699.3313852967152
10
1361.4625290164515
20
697.7380243557408
10
1356
20
697.2000122070312
10
84
20
697.2000122070312
10
84
20
697.2000122070312
10
78.53747098354842
20
697.7380243557408
10
73.28486389377748
20
699.3313852967152
10
68.44403347545115
20
701.9188630625599
10
64.20101012677668
20
705.4010223338079
10
60.71885085552873
20
709.6440456824824
10
58.131373089683976
20
714.4848761008087
10
56.53801214870955
20
719.7374831905796
10
56
20
725.2000122070312
10
56
20
1138.2000122070312
10
56
20
1138.2000122070312
10
56.53801214870955
20
1143.6625412234828
10
58.13137308968397
20
1148.9151483132537
10
60.71885085552873
20
1153.7559787315802
10
64.20101012677667
20
1157.9990020802545
10
68.44403347545114
20
1161.4811613515026
10
73.28486389377747
20
1164.0686391173472
10
78.5374709835484
20
1165.6620000583216
10
84
20
1166.2000122070312
10
84
20
1166.2000122070312
0
TEXT
5
30
330
C
100
AcDbEntity
420
1454671
8
0
100
AcDbText
10
84
20
1114.2000122070312
30
0
40
30
1
VISUAL PROPERTIES
7
Georgia
100
AcDbText
0
LWPOLYLINE
5
31
330
C
100
AcDbEntity
420
2062988
8
0
100
AcDbPolyline
90
42
70
0
43
0
38
0
39
0
10
108
20
1085.2000122070312
10
1332
20
1085.2000122070312
10
1332
20
1085.2000122070312
10
1336.6821677283872
20
1084.7388589367088
10
1341.1844023767621
20
1083.3731209873022
10
1345.3336855924704
20
1081.1552829022924
10
1348.970562748477
20
1078.1705749555085
10
1351.955270695261
20
1074.5336977995016
10
1354.173108780271
20
1070.3844145837934
10
1355.5388467296775
20
1065.8821799354182
10
1356
20
1061.2000122070312
10
1356
20
749.2000122070312
10
1356
20
749.2000122070312
10
1355.5388467296775
20
744.5178444786442
10
1354.173108780271
20
740.0156098302691
10
1351.955270695261
20
735.8663266145608
10
1348.970562748477
20
732.2294494585541
10
1345.3336855924704
20
729.2447415117701
10
1341.1844023767621
20
727.0269034267603
10
1336.6821677283872
20
725.6611654773537
10
1332
20
725.2000122070312
10
108
20
725.2000122070312
10
108
20
725.2000122070312
10
103.31783227161293
20
725.6611654773537
10
98.81559762323785
20
727.0269034267603
10
94.66631440752955
20
729.2447415117701
10
91.02943725152286
20
732.2294494585541
10
88.04472930473891
20
735.8663266145608
10
85.82689121972912
20
740.0156098302691
10
84.46115327032247
20
744.5178444786442
10
84
20
749.2000122070312
10
84
20
1061.2000122070312
10
84
20
1061.2000122070312
10
84.46115327032247
20
1065.8821799354182
10
85.82689121972912
20
1070.3844145837934
10
88.04472930473891
20
1074.5336977995016
10
91.02943725152286
20
1078.1705749555085
10
94.66631440752954
20
1081.1552829022924
10
98.81559762323784
20
1083.3731209873022
10
103.31783227161291
20
1084.7388589367088
10
108
20
1085.2000122070312
10
108
20
1085.2000122070312
0
HATCH
5
32
330
C
100
AcDbEntity
420
16763450
8
0
100
AcDbHatch
10
0
20
0
30
0
210
0
220
0
230
1
2
SOLID
70
1
71
0
91
1
92
7
72
0
73
1
93
20
10
129.0228139080706
20
1001.217069056931
10
131.18330195141115
20
1013.7031595561114
10
136.6875799895035
20
1023.1784879035521
10
145.5356480223476
20
1029.6430540992533
10
157.72750604994343
20
1033.0968581432148
10
359.74218999497845
20
1061.4881638294414
10
371.8118999212366
20
1061.4440999740477
10
380.29352365006764
20
1057.4150624716833
10
385.1870611814716
20
1049.401051322348
10
386.4925125154484
20
1037.4020665260418
10
382.6350814786922
20
926.9394251731768
10
380.4745945544368
20
914.4533346490022
10
374.9703173111442
20
904.9780063160614
10
366.12224974881417
20
898.5134401743544
10
353.93039186744693
20
895.0596362238812
10
151.91569272727966
20
866.6683300847126
10
139.84598294725006
20
866.7123940335946
10
131.36435968893312
20
870.7414315899532
10
126.47082295232886
20
878.7554427537884
10
125.16537273743722
20
890.7544275251003
97
0
75
1
76
1
47
1
98
0
0
LWPOLYLINE
5
33
330
C
100
AcDbEntity
420
16763450
8
0
100
AcDbPolyline
90
21
70
0
43
0
38
0
39
0
10
129.0228139080706
20
1001.217069056931
10
131.18330195141115
20
1013.7031595561114
10
136.6875799895035
20
1023.1784879035521
10
145.5356480223476
20
1029.6430540992533
10
157.72750604994343
20
1033.0968581432148
10
359.74218999497845
20
1061.4881638294414
10
371.8118999212366
20
1061.4440999740477
10
380.29352365006764
20
1057.4150624716833
10
385.1870611814716
20
1049.401051322348
10
386.4925125154484
20
1037.4020665260418
10
382.6350814786922
20
926.9394251731768
10
380.4745945544368
20
914.4533346490022
10
374.9703173111442
20
904.9780063160614
10
366.12224974881417
20
898.5134401743544
10
353.93039186744693
20
895.0596362238812
10
151.91569272727966
20
866.6683300847126
10
139.84598294725006
20
866.7123940335946
10
131.36435968893312
20
870.7414315899532
10
126.47082295232886
20
878.7554427537884
10
125.16537273743722
20
890.7544275251003
10
129.0228139080706
20
1001.217069056931
0
TEXT
5
34
330
C
100
AcDbEntity
420
16777215
8
0
100
AcDbText
10
150.04922810589224
20
926.0932535075455
30
0
40
28
1
OUTLINE +
50
8.00000528778107
7
Georgia
100
AcDbText
0
TEXT
5
35
330
C
100
AcDbEntity
420
16777215
8
0
100
AcDbText
10
149.05696431194693
20
897.678580655983
30
0
40
28
1
FILTER
50
8.00000253319197
7
Georgia
100
AcDbText
0
HATCH
5
36
330
C
100
AcDbEntity
420
1149618
8
0
100
AcDbHatch
10
0
20
0
30
0
210
0
220
0
230
1
2
SOLID
70
1
71
0
91
1
92
7
72
0
73
1
93
20
10
474.4403614131486
20
971.3065607143741
10
475.11604402931965
20
983.6624681463384
10
479.5834532909813
20
992.8367389495736
10
487.84258919813374
20
998.8293731240801
10
499.89345175077676
20
1001.6403706698578
10
683.1932792062545
20
1017.6770121426422
10
695.549186935541
20
1017.0013282518378
10
704.7234583726242
20
1012.5339181165978
10
710.7160935175039
20
1004.2747817369225
10
713.5270923701798
20
992.2239191128116
10
721.7197338016952
20
898.5816228793759
10
721.044051185524
20
886.2257154474116
10
716.5766419238623
20
877.0514446441764
10
708.31750601671
20
871.0588104696699
10
696.266643464067
20
868.2478129238922
10
512.9668160085893
20
852.2111714511078
10
500.61090827930263
20
852.8868553419122
10
491.43663684221957
20
857.3542654771522
10
485.44400169733996
20
865.6134018568275
10
482.6330028446639
20
877.6642644809384
97
0
75
1
76
1
47
1
98
0
0
LWPOLYLINE
5
37
330
C
100
AcDbEntity
420
1149618
8
0
100
AcDbPolyline
90
21
70
0
43
0
38
0
39
0
10
474.4403614131486
20
971.3065607143741
10
475.11604402931965
20
983.6624681463384
10
479.5834532909813
20
992.8367389495736
10
487.84258919813374
20
998.8293731240801
10
499.89345175077676
20
1001.6403706698578
10
683.1932792062545
20
1017.6770121426422
10
695.549186935541
20
1017.0013282518378
10
704.7234583726242
20
1012.5339181165978
10
710.7160935175039
20
1004.2747817369225
10
713.5270923701798
20
992.2239191128116
10
721.7197338016952
20
898.5816228793759
10
721.044051185524
20
886.2257154474116
10
716.5766419238623
20
877.0514446441764
10
708.31750601671
20
871.0588104696699
10
696.266643464067
20
868.2478129238922
10
512.9668160085893
20
852.2111714511078
10
500.61090827930263
20
852.8868553419122
10
491.43663684221957
20
857.3542654771522
10
485.44400169733996
20
865.6134018568275
10
482.6330028446639
20
877.6642644809384
10
474.4403614131486
20
971.3065607143741
0
TEXT
5
38
330
C
100
AcDbEntity
420
16777215
8
0
100
AcDbText
10
503.8398389170023
20
910.638056540075
30
0
40
28
1
BASE
50
4.999996370154243
7
Georgia
100
AcDbText
0
TEXT
5
39
330
C
100
AcDbEntity
420
16777215
8
0
100
AcDbText
10
506.28020756934603
20
882.7445628877313
30
0
40
28
1
LAYER
50
5.000003558169149
7
Georgia
100
AcDbText
0
HATCH
5
3A
330
C
100
AcDbEntity
420
12653087
8
0
100
AcDbHatch
10
0
20
0
30
0
210
0
220
0
230
1
2
SOLID
70
1
71
0
91
1
92
7
72
0
73
1
93
20
10
565.1378549441812
20
941.6253944316898
10
569.0139773559258
20
953.62821566192
10
575.7801995353406
20
962.0620615772691
10
585.4365214824257
20
966.9269321777372
10
597.9829431971812
20
968.2228274633243
10
794.3201573887563
20
961.366589040582
10
806.2588109715344
20
959.2156571042514
10
814.0918285226875
20
953.7400460389663
10
817.8192100422157
20
944.9397558447271
10
817.4409555301187
20
932.8147865215335
10
799.3815542355063
20
830.3947471698727
10
795.5054318237617
20
818.3919259396425
10
788.7392096443469
20
809.9580800242934
10
779.0828876972618
20
805.0932094238253
10
766.5364659825063
20
803.7973141382382
10
570.1992517909312
20
810.6535525609805
10
558.260598208153
20
812.8044844973111
10
550.427580657
20
818.2800955625962
10
546.7001991374718
20
827.0803857568354
10
547.0784536495688
20
839.205355080029
97
0
75
1
76
1
47
1
98
0
0
LWPOLYLINE
5
3B
330
C
100
AcDbEntity
420
12653087
8
0
100
AcDbPolyline
90
21
70
0
43
0
38
0
39
0
10
565.1378549441812
20
941.6253944316898
10
569.0139773559258
20
953.62821566192
10
575.7801995353406
20
962.0620615772691
10
585.4365214824257
20
966.9269321777372
10
597.9829431971812
20
968.2228274633243
10
794.3201573887563
20
961.366589040582
10
806.2588109715344
20
959.2156571042514
10
814.0918285226875
20
953.7400460389663
10
817.8192100422157
20
944.9397558447271
10
817.4409555301187
20
932.8147865215335
10
799.3815542355063
20
830.3947471698727
10
795.5054318237617
20
818.3919259396425
10
788.7392096443469
20
809.9580800242934
10
779.0828876972618
20
805.0932094238253
10
766.5364659825063
20
803.7973141382382
10
570.1992517909312
20
810.6535525609805
10
558.260598208153
20
812.8044844973111
10
550.427580657
20
818.2800955625962
10
546.7001991374718
20
827.0803857568354
10
547.0784536495688
20
839.205355080029
10
565.1378549441812
20
941.6253944316898
0
TEXT
5
3C
330
C
100
AcDbEntity
420
16777215
8
0
100
AcDbText
10
571.8204692986965
20
841.3140185885985
30
0
40
28
1
BLEND
50
-2.0000033935309807
7
Georgia
100
AcDbText
0
HATCH
5
3D
330
C
100
AcDbEntity
420
16777215
8
0
100
AcDbHatch
10
0
20
0
30
0
210
0
220
0
230
1
2
SOLID
70
1
71
0
91
1
92
7
72
0
73
1
93
20
10
923.5113342716575
20
1003.2042767138183
10
925.4620812982266
20
1015.2391396822441
10
930.8256566495915
20
1023.3479930943083
10
939.602060325752
20
1027.5308369500112
10
951.7912923267082
20
1027.7876712493526
10
1184.0470865795419
20
999.2702511139286
10
1196.1752353644551
20
996.0276184766185
10
1204.7683893924873
20
989.7120615223664
10
1209.826548663638
20
980.3235802511726
10
1211.3497131779075
20
967.8621746630371
10
1208.64186397053
20
812.7290728955567
10
1206.6911169439609
20
800.6942099271309
10
1201.327541592596
20
792.5853565150667
10
1192.5511379164354
20
788.4025126593638
10
1180.3619059154794
20
788.1456783600223
10
948.1061116626457
20
816.6630984954464
10
935.9779628777322
20
819.9057311327565
10
927.3848088497002
20
826.2212880870086
10
922.3266495785494
20
835.6097693582024
10
920.80348506428
20
848.0711749463379
97
0
75
1
76
1
47
1
98
0
0
LWPOLYLINE
5
3E
330
C
100
AcDbEntity
420
16777215
8
0
100
AcDbPolyline
90
21
70
0
43
0
38
0
39
0
10
923.5113342716575
20
1003.2042767138183
10
925.4620812982266
20
1015.2391396822441
10
930.8256566495915
20
1023.3479930943083
10
939.602060325752
20
1027.5308369500112
10
951.7912923267082
20
1027.7876712493526
10
1184.0470865795419
20
999.2702511139286
10
1196.1752353644551
20
996.0276184766185
10
1204.7683893924873
20
989.7120615223664
10
1209.826548663638
20
980.3235802511726
10
1211.3497131779075
20
967.8621746630371
10
1208.64186397053
20
812.7290728955567
10
1206.6911169439609
20
800.6942099271309
10
1201.327541592596
20
792.5853565150667
10
1192.5511379164354
20
788.4025126593638
10
1180.3619059154794
20
788.1456783600223
10
948.1061116626457
20
816.6630984954464
10
935.9779628777322
20
819.9057311327565
10
927.3848088497002
20
826.2212880870086
10
922.3266495785494
20
835.6097693582024
10
920.80348506428
20
848.0711749463379
10
923.5113342716575
20
1003.2042767138183
0
TEXT
5
3F
330
C
100
AcDbEntity
420
16777215
8
0
100
AcDbText
10
944.680635134565
20
848.355130960644
30
0
40
28
1
MASKED
50
-6.999992944997427
7
Georgia
100
AcDbText
0
LWPOLYLINE
5
40
330
C
100
AcDbEntity
420
16775400
8
0
100
AcDbPolyline
90
42
70
0
43
0
38
0
39
0
10
84
20
663.2000122070312
10
1356
20
663.2000122070312
10
1356
20
663.2000122070312
10
1361.4625290164515
20
662.6620000583217
10
1366.7151361062224
20
661.0686391173473
10
1371.555966524549
20
658.4811613515025
10
1375.7989898732233
20
654.9990020802546
10
1379.2811491444713
20
650.7559787315801
10
1381.868626910316
20
645.9151483132538
10
1383.4619878512904
20
640.6625412234829
10
1384
20
635.2000122070312
10
1384
20
118.60009765625
10
1384
20
118.60009765625
10
1383.4619878512904
20
113.13756863979847
10
1381.868626910316
20
107.88496155002758
10
1379.2811491444713
20
103.04413113170108
10
1375.7989898732233
20
98.80110778302674
10
1371.555966524549
20
95.31894851177867
10
1366.7151361062224
20
92.73147074593408
10
1361.4625290164515
20
91.13810980495964
10
1356
20
90.60009765625
10
84
20
90.60009765625
10
84
20
90.60009765625
10
78.53747098354842
20
91.13810980495964
10
73.28486389377748
20
92.73147074593408
10
68.44403347545115
20
95.31894851177867
10
64.20101012677668
20
98.80110778302674
10
60.71885085552873
20
103.04413113170108
10
58.131373089683976
20
107.88496155002758
10
56.53801214870955
20
113.13756863979847
10
56
20
118.60009765625
10
56
20
635.2000122070312
10
56
20
635.2000122070312
10
56.53801214870955
20
640.6625412234829
10
58.13137308968397
20
645.9151483132538
10
60.71885085552873
20
650.7559787315801
10
64.20101012677667
20
654.9990020802546
10
68.44403347545114
20
658.4811613515025
10
73.28486389377747
20
661.0686391173473
10
78.5374709835484
20
662.6620000583217
10
84
20
663.2000122070312
10
84
20
663.2000122070312
0
TEXT
5
41
330
C
100
AcDbEntity
420
1454671
8
0
100
AcDbText
10
84
20
611.2000122070312
30
0
40
30
1
TEXT PROPERTIES
7
Georgia
100
AcDbText
0
LWPOLYLINE
5
42
330
C
100
AcDbEntity
420
16777215
8
0
100
AcDbPolyline
90
42
70
0
43
0
38
0
39
0
10
108
20
582.2000122070312
10
775.2999877929688
20
582.2000122070312
10
775.2999877929688
20
582.2000122070312
10
779.9821555213558
20
581.7388589367088
10
784.4843901697309
20
580.3731209873022
10
788.6336733854392
20
578.1552829022924
10
792.2705505414459
20
575.1705749555084
10
795.2552584882299
20
571.5336977995017
10
797.4730965732397
20
567.3844145837934
10
798.8388345226463
20
562.8821799354183
10
799.2999877929688
20
558.2000122070312
10
799.2999877929688
20
349.800048828125
10
799.2999877929688
20
349.800048828125
10
798.8388345226463
20
345.1178810997378
10
797.4730965732397
20
340.61564645136286
10
795.2552584882299
20
336.4663632356546
10
792.2705505414459
20
332.82948607964795
10
788.6336733854392
20
329.8447781328639
10
784.4843901697309
20
327.6269400478541
10
779.9821555213558
20
326.2612020984475
10
775.2999877929688
20
325.800048828125
10
108
20
325.800048828125
10
108
20
325.800048828125
10
103.31783227161293
20
326.2612020984475
10
98.81559762323785
20
327.6269400478541
10
94.66631440752955
20
329.8447781328639
10
91.02943725152286
20
332.82948607964795
10
88.04472930473891
20
336.4663632356546
10
85.82689121972912
20
340.61564645136286
10
84.46115327032247
20
345.1178810997378
10
84
20
349.800048828125
10
84
20
558.2000122070312
10
84
20
558.2000122070312
10
84.46115327032247
20
562.8821799354183
10
85.82689121972912
20
567.3844145837934
10
88.04472930473891
20
571.5336977995017
10
91.02943725152286
20
575.1705749555084
10
94.66631440752954
20
578.1552829022924
10
98.81559762323784
20
580.3731209873022
10
103.31783227161291
20
581.7388589367088
10
108
20
582.2000122070312
10
108
20
582.2000122070312
0
TEXT
5
43
330
C
100
AcDbEntity
420
1454671
8
0
100
AcDbText
10
108
20
547.699951171875
30
0
40
14
1
TYPOGRAPHY STACK
7
Segoe UI
100
AcDbText
0
TEXT
5
44
330
C
100
AcDbEntity
420
6953805
8
0
100
AcDbText
10
173.50853192632184
20
505.0912721249799
30
0
40
30
1
MUSEUM COPY
50
3.0000082569402915
7
Georgia
100
AcDbText
0
TEXT
5
45
330
C
100
AcDbEntity
420
6953805
8
0
100
AcDbText
10
112.00369489018904
20
455.8048951718549
30
0
40
30
1
LEANS INTO RHYTHM 
50
3.0000062437165997
7
Georgia
100
AcDbText
0
TEXT
5
46
330
C
100
AcDbEntity
420
6953805
8
0
100
AcDbText
10
114.41115033452498
20
409.8678834531049
30
0
40
30
1
AND SPACING
50
2.99999917511382
7
Georgia
100
AcDbText
0
TEXT
5
47
330
C
100
AcDbEntity
420
8344889
8
0
100
AcDbText
10
106.69555433201428
20
357.5455633254435
30
0
40
22
1
This sentence intentionally…
50
-4.000000635966272
7
Segoe UI
100
AcDbText
0
LWPOLYLINE
5
48
330
C
100
AcDbEntity
420
16777215
8
0
100
AcDbPolyline
90
42
70
0
43
0
38
0
39
0
10
851.2999877929688
20
582.2000122070312
10
1332
20
582.2000122070312
10
1332
20
582.2000122070312
10
1336.6821677283872
20
581.7388589367088
10
1341.1844023767621
20
580.3731209873022
10
1345.3336855924704
20
578.1552829022924
10
1348.970562748477
20
575.1705749555084
10
1351.955270695261
20
571.5336977995017
10
1354.173108780271
20
567.3844145837934
10
1355.5388467296775
20
562.8821799354183
10
1356
20
558.2000122070312
10
1356
20
142.5999755859375
10
1356
20
142.5999755859375
10
1355.5388467296775
20
137.91780785755032
10
1354.173108780271
20
133.41557320917536
10
1351.955270695261
20
129.26628999346713
10
1348.970562748477
20
125.62941283746045
10
1345.3336855924704
20
122.6447048906764
10
1341.1844023767621
20
120.42686680566658
10
1336.6821677283872
20
119.06112885625998
10
1332
20
118.5999755859375
10
851.2999877929688
20
118.5999755859375
10
851.2999877929688
20
118.5999755859375
10
846.6178200645817
20
119.06112885625998
10
842.1155854162066
20
120.42686680566658
10
837.9663022004983
20
122.6447048906764
10
834.3294250444916
20
125.62941283746045
10
831.3447170977076
20
129.26628999346713
10
829.1268790126978
20
133.41557320917536
10
827.7611410632912
20
137.91780785755032
10
827.2999877929688
20
142.5999755859375
10
827.2999877929688
20
558.2000122070312
10
827.2999877929688
20
558.2000122070312
10
827.7611410632912
20
562.8821799354183
10
829.1268790126978
20
567.3844145837934
10
831.3447170977076
20
571.5336977995017
10
834.3294250444916
20
575.1705749555084
10
837.9663022004983
20
578.1552829022924
10
842.1155854162066
20
580.3731209873022
10
846.6178200645817
20
581.7388589367088
10
851.2999877929688
20
582.2000122070312
10
851.2999877929688
20
582.2000122070312
0
TEXT
5
49
330
C
100
AcDbEntity
420
1454671
8
0
100
AcDbText
10
851.2999877929688
20
547.699951171875
30
0
40
14
1
WRAPPING AND DIRECTION
7
Segoe UI
100
AcDbText
0
TEXT
5
4A
330
C
100
AcDbEntity
420
4014171
8
0
100
AcDbText
10
1011.2999877929688
20
304.949951171875
30
0
40
18
1
white-space: pre-wrap
7
Courier New
100
AcDbText
0
TEXT
5
4C
330
C
100
AcDbEntity
420
4014171
8
0
100
AcDbText
10
1011.2999877929688
20
277.050048828125
30
0
40
18
1
keeps   deliberate gaps
7
Courier New
100
AcDbText
0
TEXT
5
4D
330
C
100
AcDbEntity
420
4014171
8
0
100
AcDbText
10
1011.2999877929688
20
249.1500244140625
30
0
40
18
1
and carries line breaks 
7
Courier New
100
AcDbText
0
TEXT
5
4E
330
C
100
AcDbEntity
420
4014171
8
0
100
AcDbText
10
1011.2999877929688
20
221.25
30
0
40
18
1
forward.
7
Courier New
100
AcDbText
0
HATCH
5
4F
330
C
100
AcDbEntity
420
1149618
8
0
100
AcDbHatch
10
0
20
0
30
0
210
0
220
0
230
1
2
SOLID
70
1
71
0
91
1
92
7
72
0
73
1
93
20
10
849.4184737973346
20
374.69858164344714
10
851.3604732647783
20
382.41284661117857
10
855.3049576714752
20
387.6542475718825
10
861.2519270174255
20
390.42278452555865
10
869.201381302629
20
390.71845747220755
10
972.6316875450273
20
379.84746049654245
10
980.3459525807764
20
377.90545920037994
10
985.587354178364
20
373.96097342562234
10
988.3558923377896
20
368.0140031722699
10
988.6515670590534
20
360.06454844032214
10
966.2824539370404
20
147.23684316124036
10
964.3404544695967
20
139.52257819350893
10
960.3959700628998
20
134.28117723280502
10
954.4490007169495
20
131.51264027912885
10
946.499546431746
20
131.21696733247995
10
843.0692401893477
20
142.08796430814505
10
835.3549751535986
20
144.02996560430756
10
830.113573556011
20
147.97445137906516
10
827.3450353965854
20
153.9214216324176
10
827.0493606753216
20
161.87087636436536
97
0
75
1
76
1
47
1
98
0
0
LWPOLYLINE
5
50
330
C
100
AcDbEntity
420
1149618
8
0
100
AcDbPolyline
90
21
70
0
43
0
38
0
39
0
10
849.4184737973346
20
374.69858164344714
10
851.3604732647783
20
382.41284661117857
10
855.3049576714752
20
387.6542475718825
10
861.2519270174255
20
390.42278452555865
10
869.201381302629
20
390.71845747220755
10
972.6316875450273
20
379.84746049654245
10
980.3459525807764
20
377.90545920037994
10
985.587354178364
20
373.96097342562234
10
988.3558923377896
20
368.0140031722699
10
988.6515670590534
20
360.06454844032214
10
966.2824539370404
20
147.23684316124036
10
964.3404544695967
20
139.52257819350893
10
960.3959700628998
20
134.28117723280502
10
954.4490007169495
20
131.51264027912885
10
946.499546431746
20
131.21696733247995
10
843.0692401893477
20
142.08796430814505
10
835.3549751535986
20
144.02996560430756
10
830.113573556011
20
147.97445137906516
10
827.3450353965854
20
153.9214216324176
10
827.0493606753216
20
161.87087636436536
10
849.4184737973346
20
374.69858164344714
0
TEXT
5
51
330
C
100
AcDbEntity
420
1454671
8
0
100
AcDbText
10
964.1414721684997
20
325.85581719235324
30
0
40
26
1
RTL FLOW
50
-96.0000131778781
7
Segoe UI
100
AcDbText
0
TEXT
5
52
330
C
100
AcDbEntity
420
2508371
8
0
100
AcDbText
10
850.1325742395175
20
498.770440380855
30
0
40
22
1
WrapThisAbsurdlyLongToken
50
-1.9999954956738175
7
Segoe UI
100
AcDbText
0
TEXT
5
53
330
C
100
AcDbEntity
420
2508371
8
0
100
AcDbText
10
849.0192929895175
20
466.88982514648
30
0
40
22
1
WithoutAnyMercyBecauseWo
50
-1.9999901291668025
7
Segoe UI
100
AcDbText
0
TEXT
5
54
330
C
100
AcDbEntity
420
2508371
8
0
100
AcDbText
10
847.9060117395175
20
435.0093319824175
30
0
40
22
1
rdBreakAndOverflowWrapSh
50
-1.9999955358265253
7
Segoe UI
100
AcDbText
0
TEXT
5
55
330
C
100
AcDbEntity
420
2508371
8
0
100
AcDbText
10
846.7927304895175
20
403.1287167480425
30
0
40
22
1
ouldStillPreserveTheLayout.
50
-1.9999955155607998
7
Segoe UI
100
AcDbText
0
ENDSEC
0
SECTION
2
OBJECTS
0
DICTIONARY
5
A
330
0
100
AcDbDictionary
281
1
3
ACAD_GROUP
350
B
0
DICTIONARY
5
B
330
A
100
AcDbDictionary
281
0
0
ENDSEC
0
EOF