0
SECTION
2
HEADER
9
$ACADVER
1
AC1021
9
$LASTSAVEDBY
1
@tarikjabiri/dxf
9
$HANDSEED
5
45
9
$INSUNITS
70
0
9
$CLAYER
8
0
9
$VIEWCTR
10
659.5416870117188
20
753.75
0
ENDSEC
0
SECTION
2
CLASSES
0
ENDSEC
0
SECTION
2
TABLES
0
TABLE
2
VPORT
5
1
330
0
100
AcDbSymbolTable
70
1
0
VPORT
5
19
330
1
100
AcDbSymbolTableRecord
100
AcDbViewportTableRecord
2
*Active
70
0
10
0
20
0
11
1
21
1
12
659.5416870117188
22
753.75
13
0
23
0
14
10
24
10
15
10
25
10
16
0
26
0
36
1
17
0
27
0
37
0
40
1707.5
41
2
42
50
43
0
44
0
50
0
51
0
71
0
72
100
73
1
74
3
75
0
76
1
77
0
78
0
281
0
65
1
110
0
120
0
130
0
111
1
121
0
131
0
112
0
122
1
132
0
79
0
146
0
348
10020
60
7
61
5
292
1
282
1
141
0
142
0
63
250
421
3358443
0
ENDTAB
0
TABLE
2
LTYPE
5
2
330
0
100
AcDbSymbolTable
70
3
0
LTYPE
5
12
330
2
100
AcDbSymbolTableRecord
100
AcDbLinetypeTableRecord
2
ByBlock
70
0
3

72
65
73
0
40
0
0
LTYPE
5
13
330
2
100
AcDbSymbolTableRecord
100
AcDbLinetypeTableRecord
2
ByLayer
70
0
3

72
65
73
0
40
0
0
LTYPE
5
14
330
2
100
AcDbSymbolTableRecord
100
AcDbLinetypeTableRecord
2
Continuous
70
0
3
Solid line
72
65
73
0
40
0
0
ENDTAB
0
TABLE
2
LAYER
5
3
330
0
100
AcDbSymbolTable
70
1
0
LAYER
5
15
330
3
100
AcDbSymbolTableRecord
100
AcDbLayerTableRecord
2
0
70
0
62
7
6
Continuous
370
0
390
0
0
ENDTAB
0
TABLE
2
STYLE
5
4
330
0
100
AcDbSymbolTable
70
5
0
STYLE
5
16
330
4
100
AcDbSymbolTableRecord
100
AcDbTextStyleTableRecord
2
Standard
70
0
40
0
41
1
50
0
71
0
42
1
3
txt
4

0
STYLE
5
1B
330
4
100
AcDbSymbolTableRecord
100
AcDbTextStyleTableRecord
2
Georgia
70
0
40
0
41
1
50
0
71
0
42
1
3
Georgia.ttf
4

0
STYLE
5
1F
330
4
100
AcDbSymbolTableRecord
100
AcDbTextStyleTableRecord
2
Aptos
70
0
40
0
41
1
50
0
71
0
42
1
3
Aptos.ttf
4

0
STYLE
5
23
330
4
100
AcDbSymbolTableRecord
100
AcDbTextStyleTableRecord
2
Segoe UI
70
0
40
0
41
1
50
0
71
0
42
1
3
Segoe UI.ttf
4

0
STYLE
5
41
330
4
100
AcDbSymbolTableRecord
100
AcDbTextStyleTableRecord
2
Courier New
70
0
40
0
41
1
50
0
71
0
42
1
3
Courier New.ttf
4

0
ENDTAB
0
TABLE
2
VIEW
5
5
330
0
100
AcDbSymbolTable
70
0
0
ENDTAB
0
TABLE
2
UCS
5
6
330
0
100
AcDbSymbolTable
70
0
0
ENDTAB
0
TABLE
2
APPID
5
7
330
0
100
AcDbSymbolTable
70
1
0
APPID
5
17
330
7
100
AcDbSymbolTableRecord
100
AcDbRegAppTableRecord
2
ACAD
70
0
0
ENDTAB
0
TABLE
2
DIMSTYLE
5
8
330
0
100
AcDbSymbolTable
70
1
100
AcDbDimStyleTable
0
DIMSTYLE
105
18
330
8
100
AcDbSymbolTableRecord
100
AcDbDimStyleTableRecord
2
Standard
70
0
340
16
0
ENDTAB
0
TABLE
2
BLOCK_RECORD
5
9
330
0
100
AcDbSymbolTable
70
2
0
BLOCK_RECORD
5
C
330
9
100
AcDbSymbolTableRecord
100
AcDbBlockTableRecord
2
*Model_Space
70
0
280
1
281
0
0
BLOCK_RECORD
5
F
330
9
100
AcDbSymbolTableRecord
100
AcDbBlockTableRecord
2
*Paper_Space
70
0
280
1
281
0
0
ENDTAB
0
ENDSEC
0
SECTION
2
BLOCKS
0
BLOCK
5
D
330
C
100
AcDbEntity
8
0
100
AcDbBlockBegin
2
*Model_Space
70
0
10
0
20
0
30
0
3
*Model_Space
1

0
ENDBLK
5
E
100
AcDbEntity
8
0
100
AcDbBlockEnd
0
BLOCK
5
10
330
F
100
AcDbEntity
8
0
100
AcDbBlockBegin
2
*Paper_Space
70
0
10
0
20
0
30
0
3
*Paper_Space
1

0
ENDBLK
5
11
100
AcDbEntity
8
0
100
AcDbBlockEnd
0
ENDSEC
0
SECTION
2
ENTITIES
0
TEXT
5
1A
330
C
100
AcDbEntity
420
9375783
8
0
100
AcDbText
10
56
20
1479.25
30
0
40
70
1
CSS
7
Georgia
100
AcDbText
0
TEXT
5
1C
330
C
100
AcDbEntity
420
9375783
8
0
100
AcDbText
10
56
20
1412.75
30
0
40
70
1
PROPERTY
7
Georgia
100
AcDbText
0
TEXT
5
1D
330
C
100
AcDbEntity
420
9375783
8
0
100
AcDbText
10
56
20
1346.25
30
0
40
70
1
SUPPORT
7
Georgia
100
AcDbText
0
TEXT
5
1E
330
C
100
AcDbEntity
8
0
100
AcDbText
10
56
20
1289.9500122070312
30
0
40
22
1
A focused demo for visual and text properties, including
7
Aptos
100
AcDbText
0
TEXT
5
20
330
C
100
AcDbEntity
8
0
100
AcDbText
10
56
20
1255.8500061035156
30
0
40
22
1
transformed boxes, mixed compositing, masking,
7
Aptos
100
AcDbText
0
TEXT
5
21
330
C
100
AcDbEntity
8
0
100
AcDbText
10
56
20
1221.75
30
0
40
22
1
ellipsis, vertical writing, and whitespace-sensitive text.
7
Aptos
100
AcDbText
0
TEXT
5
22
330
C
100
AcDbEntity
420
1454671
8
0
100
AcDbText
10
902.7833251953125
20
1507.5
30
0
40
14
1
OUTLINE
7
Segoe UI
100
AcDbText
0
TEXT
5
24
330
C
100
AcDbEntity
420
1454671
8
0
100
AcDbText
10
1021.5999755859375
20
1507.5
30
0
40
14
1
FILTER
7
Segoe UI
100
AcDbText
0
TEXT
5
25
330
C
100
AcDbEntity
420
1454671
8
0
100
AcDbText
10
1122.433349609375
20
1507.5
30
0
40
14
1
MIX-BLEND-MODE
7
Segoe UI
100
AcDbText
0
TEXT
5
26
330
C
100
AcDbEntity
420
1454671
8
0
100
AcDbText
10
1319.0833740234375
20
1507.5
30
0
40
14
1
MASK
7
Segoe UI
100
AcDbText
0
TEXT
5
27
330
C
100
AcDbEntity
420
1454671
8
0
100
AcDbText
10
1052.61669921875
20
1457.5
30
0
40
14
1
WRITING-MODE
7
Segoe UI
100
AcDbText
0
TEXT
5
28
330
C
100
AcDbEntity
420
1454671
8
0
100
AcDbText
10
1229.550048828125
20
1457.5
30
0
40
14
1
TEXT-OVERFLOW
7
Segoe UI
100
AcDbText
0
TEXT
5
29
330
C
100
AcDbEntity
420
1454671
8
0
100
AcDbText
10
84
20
1114.2000122070312
30
0
40
30
1
VISUAL PROPERTIES
7
Georgia
100
AcDbText
0
HATCH
5
2A
330
C
100
AcDbEntity
420
16763450
8
0
100
AcDbHatch
10
0
20
0
30
0
210
0
220
0
230
1
2
SOLID
70
1
71
0
91
1
92
7
72
0
73
1
93
20
10
129.0228139080706
20
1001.217069056931
10
131.18330195141115
20
1013.7031595561114
10
136.6875799895035
20
1023.1784879035521
10
145.5356480223476
20
1029.6430540992533
10
157.72750604994343
20
1033.0968581432148
10
359.74218999497845
20
1061.4881638294414
10
371.8118999212366
20
1061.4440999740477
10
380.29352365006764
20
1057.4150624716833
10
385.1870611814716
20
1049.401051322348
10
386.4925125154484
20
1037.4020665260418
10
382.6350814786922
20
926.9394251731768
10
380.4745945544368
20
914.4533346490022
10
374.9703173111442
20
904.9780063160614
10
366.12224974881417
20
898.5134401743544
10
353.93039186744693
20
895.0596362238812
10
151.91569272727966
20
866.6683300847126
10
139.84598294725006
20
866.7123940335946
10
131.36435968893312
20
870.7414315899532
10
126.47082295232886
20
878.7554427537884
10
125.16537273743722
20
890.7544275251003
97
0
75
1
76
1
47
1
98
0
0
LWPOLYLINE
5
2B
330
C
100
AcDbEntity
420
16763450
8
0
100
AcDbPolyline
90
21
70
0
43
0
38
0
39
0
10
129.0228139080706
20
1001.217069056931
10
131.18330195141115
20
1013.7031595561114
10
136.6875799895035
20
1023.1784879035521
10
145.5356480223476
20
1029.6430540992533
10
157.72750604994343
20
1033.0968581432148
10
359.74218999497845
20
1061.4881638294414
10
371.8118999212366
20
1061.4440999740477
10
380.29352365006764
20
1057.4150624716833
10
385.1870611814716
20
1049.401051322348
10
386.4925125154484
20
1037.4020665260418
10
382.6350814786922
20
926.9394251731768
10
380.4745945544368
20
914.4533346490022
10
374.9703173111442
20
904.9780063160614
10
366.12224974881417
20
898.5134401743544
10
353.93039186744693
20
895.0596362238812
10
151.91569272727966
20
866.6683300847126
10
139.84598294725006
20
866.7123940335946
10
131.36435968893312
20
870.7414315899532
10
126.47082295232886
20
878.7554427537884
10
125.16537273743722
20
890.7544275251003
10
129.0228139080706
20
1001.217069056931
0
TEXT
5
2C
330
C
100
AcDbEntity
420
16777215
8
0
100
AcDbText
10
150.04922810589224
20
926.0932535075455
30
0
40
28
1
OUTLINE +
50
8.00000528778107
7
Georgia
100
AcDbText
0
TEXT
5
2D
330
C
100
AcDbEntity
420
16777215
8
0
100
AcDbText
10
149.05696431194693
20
897.678580655983
30
0
40
28
1
FILTER
50
8.00000253319197
7
Georgia
100
AcDbText
0
HATCH
5
2E
330
C
100
AcDbEntity
420
1149618
8
0
100
AcDbHatch
10
0
20
0
30
0
210
0
220
0
230
1
2
SOLID
70
1
71
0
91
1
92
7
72
0
73
1
93
20
10
474.4403614131486
20
971.3065607143741
10
475.11604402931965
20
983.6624681463384
10
479.5834532909813
20
992.8367389495736
10
487.84258919813374
20
998.8293731240801
10
499.89345175077676
20
1001.6403706698578
10
683.1932792062545
20
1017.6770121426422
10
695.549186935541
20
1017.0013282518378
10
704.7234583726242
20
1012.5339181165978
10
710.7160935175039
20
1004.2747817369225
10
713.5270923701798
20
992.2239191128116
10
721.7197338016952
20
898.5816228793759
10
721.044051185524
20
886.2257154474116
10
716.5766419238623
20
877.0514446441764
10
708.31750601671
20
871.0588104696699
10
696.266643464067
20
868.2478129238922
10
512.9668160085893
20
852.2111714511078
10
500.61090827930263
20
852.8868553419122
10
491.43663684221957
20
857.3542654771522
10
485.44400169733996
20
865.6134018568275
10
482.6330028446639
20
877.6642644809384
97
0
75
1
76
1
47
1
98
0
0
LWPOLYLINE
5
2F
330
C
100
AcDbEntity
420
1149618
8
0
100
AcDbPolyline
90
21
70
0
43
0
38
0
39
0
10
474.4403614131486
20
971.3065607143741
10
475.11604402931965
20
983.6624681463384
10
479.5834532909813
20
992.8367389495736
10
487.84258919813374
20
998.8293731240801
10
499.89345175077676
20
1001.6403706698578
10
683.1932792062545
20
1017.6770121426422
10
695.549186935541
20
1017.0013282518378
10
704.7234583726242
20
1012.5339181165978
10
710.7160935175039
20
1004.2747817369225
10
713.5270923701798
20
992.2239191128116
10
721.7197338016952
20
898.5816228793759
10
721.044051185524
20
886.2257154474116
10
716.5766419238623
20
877.0514446441764
10
708.31750601671
20
871.0588104696699
10
696.266643464067
20
868.2478129238922
10
512.9668160085893
20
852.2111714511078
10
500.61090827930263
20
852.8868553419122
10
491.43663684221957
20
857.3542654771522
10
485.44400169733996
20
865.6134018568275
10
482.6330028446639
20
877.6642644809384
10
474.4403614131486
20
971.3065607143741
0
TEXT
5
30
330
C
100
AcDbEntity
420
16777215
8
0
100
AcDbText
10
503.8398389170023
20
910.638056540075
30
0
40
28
1
BASE
50
4.999996370154243
7
Georgia
100
AcDbText
0
TEXT
5
31
330
C
100
AcDbEntity
420
16777215
8
0
100
AcDbText
10
506.28020756934603
20
882.7445628877313
30
0
40
28
1
LAYER
50
5.000003558169149
7
Georgia
100
AcDbText
0
TEXT
5
32
330
C
100
AcDbEntity
420
16777215
8
0
100
AcDbText
10
571.8204692986965
20
841.3140185885985
30
0
40
28
1
BLEND
50
-2.0000033935309807
7
Georgia
100
AcDbText
0
TEXT
5
33
330
C
100
AcDbEntity
420
16777215
8
0
100
AcDbText
10
944.680635134565
20
848.355130960644
30
0
40
28
1
MASKED
50
-6.999992944997427
7
Georgia
100
AcDbText
0
TEXT
5
34
330
C
100
AcDbEntity
420
1454671
8
0
100
AcDbText
10
84
20
611.2000122070312
30
0
40
30
1
TEXT PROPERTIES
7
Georgia
100
AcDbText
0
TEXT
5
35
330
C
100
AcDbEntity
8
0
100
AcDbText
10
108
20
547.699951171875
30
0
40
14
1
TYPOGRAPHY STACK
7
Segoe UI
100
AcDbText
0
TEXT
5
36
330
C
100
AcDbEntity
420
6953805
8
0
100
AcDbText
10
173.50853192632184
20
505.0912721249799
30
0
40
30
1
MUSEUM COPY
50
3.0000082569402915
7
Georgia
100
AcDbText
0
TEXT
5
37
330
C
100
AcDbEntity
420
6953805
8
0
100
AcDbText
10
112.00369489018904
20
455.8048951718549
30
0
40
30
1
LEANS INTO RHYTHM 
50
3.0000062437165997
7
Georgia
100
AcDbText
0
TEXT
5
38
330
C
100
AcDbEntity
420
6953805
8
0
100
AcDbText
10
114.41115033452498
20
409.8678834531049
30
0
40
30
1
AND SPACING
50
2.99999917511382
7
Georgia
100
AcDbText
0
TEXT
5
39
330
C
100
AcDbEntity
420
8344889
8
0
100
AcDbText
10
106.69555433201428
20
357.5455633254435
30
0
40
22
1
This sentence intentionally…
50
-4.0000006359662486
7
Segoe UI
100
AcDbText
0
TEXT
5
3A
330
C
100
AcDbEntity
8
0
100
AcDbText
10
851.2999877929688
20
547.699951171875
30
0
40
14
1
WRAPPING AND DIRECTION
7
Segoe UI
100
AcDbText
0
TEXT
5
3B
330
C
100
AcDbEntity
420
2508371
8
0
100
AcDbText
10
850.1325742395175
20
498.770440380855
30
0
40
22
1
WrapThisAbsurdlyLongToken
50
-1.9999954956738175
7
Segoe UI
100
AcDbText
0
TEXT
5
3C
330
C
100
AcDbEntity
420
2508371
8
0
100
AcDbText
10
849.0192929895175
20
466.88982514648
30
0
40
22
1
WithoutAnyMercyBecauseWo
50
-1.9999901291668025
7
Segoe UI
100
AcDbText
0
TEXT
5
3D
330
C
100
AcDbEntity
420
2508371
8
0
100
AcDbText
10
847.9060117395175
20
435.0093319824175
30
0
40
22
1
rdBreakAndOverflowWrapSh
50
-1.9999955358265253
7
Segoe UI
100
AcDbText
0
TEXT
5
3E
330
C
100
AcDbEntity
420
2508371
8
0
100
AcDbText
10
846.7927304895175
20
403.1287167480425
30
0
40
22
1
ouldStillPreserveTheLayout.
50
-1.9999955155607998
7
Segoe UI
100
AcDbText
0
TEXT
5
3F
330
C
100
AcDbEntity
420
1454671
8
0
100
AcDbText
10
945.1617522259436
20
250.51033905040094
30
0
40
26
1
RTL FLOW
50
-5.999916503840955
7
Segoe UI
100
AcDbText
0
TEXT
5
40
330
C
100
AcDbEntity
420
4014171
8
0
100
AcDbText
10
1011.2999877929688
20
304.949951171875
30
0
40
18
1
white-space: pre-wrap
7
Courier New
100
AcDbText
0
TEXT
5
42
330
C
100
AcDbEntity
420
4014171
8
0
100
AcDbText
10
1011.2999877929688
20
277.050048828125
30
0
40
18
1
keeps   deliberate gaps
7
Courier New
100
AcDbText
0
TEXT
5
43
330
C
100
AcDbEntity
420
4014171
8
0
100
AcDbText
10
1011.2999877929688
20
249.1500244140625
30
0
40
18
1
and carries line breaks 
7
Courier New
100
AcDbText
0
TEXT
5
44
330
C
100
AcDbEntity
420
4014171
8
0
100
AcDbText
10
1011.2999877929688
20
221.25
30
0
40
18
1
forward.
7
Courier New
100
AcDbText
0
ENDSEC
0
SECTION
2
OBJECTS
0
DICTIONARY
5
A
330
0
100
AcDbDictionary
281
1
3
ACAD_GROUP
350
B
0
DICTIONARY
5
B
330
A
100
AcDbDictionary
281
0
0
ENDSEC
0
EOF