  0
SECTION
  2
HEADER
  9
$ANGBASE
 50
0.0
  9
$ANGDIR
 70
1
  9
$AUNITS
 70
0
  9
$AUPREC
 70
0
  9
$ATTMODE
 70
1
  9
$DWGCODEPAGE
  3
ANSI_1252
  9
$TDCREATE
 40
2451545.0416666665114462
  9
$CECOLOR
 62
256
  9
$CELTSCALE
 40
1.0
  9
$CELWEIGHT
370
-1
  9
$CLAYER
  8
0
  9
$CELTYPE
  6
ByLayer
  9
$CMLJUST
 70
0
  9
$CMLSCALE
 40
20.0
  9
$CMLSTYLE
  2
Standard
  9
$DIMSTYLE
  2
Standard
  9
$LWDISPLAY
290
0
  9
$EXTNAMES
290
1
  9
$HANDSEED
  5
6D
  9
$INSUNITS
 70
0
  9
$LUNITS
 70
2
  9
$LUPREC
 70
4
  9
$LTSCALE
 40
1.0
  9
$MIRRTEXT
 70
0
  9
$INSBASE
 10
0.0
 20
0.0
 30
0.0
  9
$SPLINESEGS
 70
8
  9
$PSLTSCALE
 70
1
  9
$PDMODE
 70
0
  9
$PDSIZE
 40
0.0
  9
$PLINEGEN
 70
0
  9
$TEXTSIZE
 40
0.2
  9
$TEXTSTYLE
  7
Standard
  9
$TDINDWG
 40
0.0
  9
$TDUCREATE
 40
2451545.0416666665114462
  9
$TDUUPDATE
 40
2451545.0416666665114462
  9
$TDUPDATE
 40
2451545.0416666665114462
  9
$ACADVER
  1
AC1018
  0
ENDSEC
  0
SECTION
  2
CLASSES
  0
CLASS
  1
ACDBDICTIONARYWDFLT
  2
AcDbDictionaryWithDefault
  3
ObjectDBX Classes
 90
32768
 91
0
280
0
281
0
  0
CLASS
  1
ACDBPLACEHOLDER
  2
AcDbPlaceHolder
  3
ObjectDBX Classes
 90
0
 91
0
280
0
281
0
  0
CLASS
  1
LAYOUT
  2
AcDbLayout
  3
ObjectDBX Classes
 90
0
 91
0
280
0
281
0
  0
CLASS
  1
DICTIONARYVAR
  2
AcDbDictionaryVar
  3
ObjectDBX Classes
 90
0
 91
0
280
0
281
0
  0
CLASS
  1
TABLESTYLE
  2
AcDbTableStyle
  3
ObjectDBX Classes
 90
4095
 91
0
280
0
281
0
  0
CLASS
  1
MATERIAL
  2
AcDbMaterial
  3
ObjectDBX Classes
 90
1153
 91
0
280
0
281
0
  0
CLASS
  1
VISUALSTYLE
  2
AcDbVisualStyle
  3
ObjectDBX Classes
 90
4095
 91
0
280
0
281
0
  0
CLASS
  1
SCALE
  2
AcDbScale
  3
ObjectDBX Classes
 90
1153
 91
0
280
0
281
0
  0
CLASS
  1
MLEADERSTYLE
  2
AcDbMLeaderStyle
  3
ObjectDBX Classes
 90
4095
 91
0
280
0
281
0
  0
CLASS
  1
CELLSTYLEMAP
  2
AcDbCellStyleMap
  3
ObjectDBX Classes
 90
1152
 91
0
280
0
281
0
  0
CLASS
  1
EXACXREFPANELOBJECT
  2
ExAcXREFPanelObject
  3
ObjectDBX Classes
 90
1025
 91
0
280
0
281
0
  0
CLASS
  1
NPOCOLLECTION
  2
AcDbImpNonPersistentObjectsCollection
  3
ObjectDBX Classes
 90
1153
 91
0
280
0
281
0
  0
CLASS
  1
LAYER_INDEX
  2
AcDbLayerIndex
  3
ObjectDBX Classes
 90
0
 91
0
280
0
281
0
  0
CLASS
  1
SPATIAL_INDEX
  2
AcDbSpatialIndex
  3
ObjectDBX Classes
 90
0
 91
0
280
0
281
0
  0
CLASS
  1
IDBUFFER
  2
AcDbIdBuffer
  3
ObjectDBX Classes
 90
32768
 91
0
280
0
281
0
  0
CLASS
  1
ACDBSECTIONVIEWSTYLE
  2
AcDbSectionViewStyle
  3
ObjectDBX Classes
 90
1025
 91
0
280
0
281
0
  0
CLASS
  1
ACDBDETAILVIEWSTYLE
  2
AcDbDetailViewStyle
  3
ObjectDBX Classes
 90
1025
 91
0
280
0
281
0
  0
CLASS
  1
MESH
  2
AcDbSubDMesh
  3
ObjectDBX Classes
 90
0
 91
0
280
0
281
1
  0
CLASS
  1
SORTENTSTABLE
  2
AcDbSortentsTable
  3
ObjectDBX Classes
 90
0
 91
0
280
0
281
0
  0
CLASS
  1
ACDB_TEXTOBJECTCONTEXTDATA_CLASS
  2
AcDbTextObjectContextData
  3
ObjectDBX Classes
 90
1153
 91
0
280
0
281
0
  0
CLASS
  1
WIPEOUT
  2
AcDbWipeout
  3
WipeOut
 90
32895
 91
0
280
0
281
1
  0
CLASS
  1
WIPEOUTVARIABLES
  2
AcDbWipeoutVariables
  3
WipeOut
 90
32768
 91
0
280
0
281
0
  0
CLASS
  1
DIMASSOC
  2
AcDbDimAssoc
  3
AcDbDimAssoc
 90
0
 91
0
280
0
281
0
  0
CLASS
  1
ACAD_TABLE
  2
AcDbTable
  3
ObjectDBX Classes
 90
1025
 91
0
280
0
281
1
  0
CLASS
  1
TABLECONTENT
  2
AcDbTableContent
  3
ObjectDBX Classes
 90
1152
 91
0
280
0
281
0
  0
CLASS
  1
TABLEGEOMETRY
  2
AcDbTableGeometry
  3
ObjectDBX Classes
 90
1152
 91
0
280
0
281
0
  0
CLASS
  1
IMAGE
  2
AcDbRasterImage
  3
ISM
 90
32895
 91
0
280
0
281
1
  0
CLASS
  1
IMAGEDEF
  2
AcDbRasterImageDef
  3
ISM
 90
0
 91
0
280
0
281
0
  0
CLASS
  1
IMAGEDEF_REACTOR
  2
AcDbRasterImageDefReactor
  3
ISM
 90
1
 91
0
280
0
281
0
  0
CLASS
  1
DBCOLOR
  2
AcDbColor
  3
ObjectDBX Classes
 90
0
 91
0
280
0
281
0
  0
CLASS
  1
GEODATA
  2
AcDbGeoData
  3
ObjectDBX Classes
 90
4095
 91
0
280
0
281
0
  0
CLASS
  1
MULTILEADER
  2
AcDbMLeader
  3
ObjectDBX Classes
 90
1025
 91
0
280
0
281
0
  0
CLASS
  1
PDFUNDERLAY
  2
AcDbPdfReference
  3
ObjectDBX Classes
 90
4095
 91
0
280
0
281
1
  0
CLASS
  1
PDFDEFINITION
  2
AcDbPdfDefinition
  3
ObjectDBX Classes
 90
1153
 91
0
280
0
281
0
  0
CLASS
  1
RASTERVARIABLES
  2
AcDbRasterVariables
  3
ISM
 90
0
 91
0
280
0
281
0
  0
CLASS
  1
SPATIAL_FILTER
  2
AcDbSpatialFilter
  3
ObjectDBX Classes
 90
0
 91
0
280
0
281
0
  0
CLASS
  1
ACDB_MLEADEROBJECTCONTEXTDATA_CLASS
  2
AcDbMLeaderObjectContextData
  3
ObjectDBX Classes
 90
1025
 91
0
280
0
281
0
  0
CLASS
  1
PLOTSETTINGS
  2
AcDbPlotSettings
  3
ObjectDBX Classes
 90
0
 91
0
280
0
281
0
  0
CLASS
  1
FIELD
  2
AcDbField
  3
ObjectDBX Classes
 90
1152
 91
0
280
0
281
0
  0
CLASS
  1
FIELDLIST
  2
AcDbFieldList
  3
ObjectDBX Classes
 90
1152
 91
0
280
0
281
0
  0
CLASS
  1
ACDB_MTEXTATTRIBUTEOBJECTCONTEXTDATA_CLASS
  2
AcDbMTextAttributeObjectContextData
  3
ObjectDBX Classes
 90
1153
 91
0
280
0
281
0
  0
CLASS
  1
ACDB_BLKREFOBJECTCONTEXTDATA_CLASS
  2
AcDbBlkRefObjectContextData
  3
ObjectDBX Classes
 90
1153
 91
0
280
0
281
0
  0
ENDSEC
  0
SECTION
  2
TABLES
  0
TABLE
  2
VPORT
  5
18
330
0
100
AcDbSymbolTable
 70
1
  0
VPORT
  5
26
330
18
100
AcDbSymbolTableRecord
100
AcDbViewportTableRecord
  2
*Active
 70
0
 10
0.0
 20
0.0
 11
1.0
 21
1.0
 12
0.0
 22
0.0
 13
0.0
 23
0.0
 14
0.5
 24
0.5
 15
10.0
 25
10.0
 16
0.0
 26
0.0
 36
1.0
 17
0.0
 27
0.0
 37
0.0
 40
10.0
 41
1.0
 75
0
 76
1
  0
ENDTAB
  0
TABLE
  2
LTYPE
  5
14
330
0
100
AcDbSymbolTable
 70
3
  0
LTYPE
  5
19
330
14
100
AcDbSymbolTableRecord
100
AcDbLinetypeTableRecord
  2
ByLayer
 70
0
 72
0
 73
0
 40
0.0
  0
LTYPE
  5
1A
330
14
100
AcDbSymbolTableRecord
100
AcDbLinetypeTableRecord
  2
ByBlock
 70
0
 72
0
 73
0
 40
0.0
  0
LTYPE
  5
1B
330
14
100
AcDbSymbolTableRecord
100
AcDbLinetypeTableRecord
  2
Continuous
 70
0
 72
0
 73
0
 40
0.0
  0
ENDTAB
  0
TABLE
  2
LAYER
  5
13
330
0
100
AcDbSymbolTable
 70
1
  0
LAYER
  5
1C
330
13
100
AcDbSymbolTableRecord
100
AcDbLayerTableRecord
  2
0
 70
0
 62
7
  6
Continuous
290
1
370
-3
390
0
  0
ENDTAB
  0
TABLE
  2
STYLE
  5
15
330
0
100
AcDbSymbolTable
 70
1
  0
STYLE
  5
23
330
15
100
AcDbSymbolTableRecord
100
AcDbTextStyleTableRecord
  2
Standard
 70
0
 40
0.0
 41
1.0
 42
0.0
 50
0.0
 71
0
  0
ENDTAB
  0
TABLE
  2
VIEW
  5
17
330
0
100
AcDbSymbolTable
 70
0
  0
ENDTAB
  0
TABLE
  2
UCS
  5
16
330
0
100
AcDbSymbolTable
 70
0
  0
ENDTAB
  0
TABLE
  2
APPID
  5
10
330
0
100
AcDbSymbolTable
 70
1
  0
APPID
  5
25
330
10
100
AcDbSymbolTableRecord
100
AcDbRegAppTableRecord
  2
ACAD
 70
0
  0
ENDTAB
  0
TABLE
  2
DIMSTYLE
  5
12
330
0
100
AcDbSymbolTable
 70
1
100
AcDbDimStyleTable
  0
DIMSTYLE
105
24
330
12
100
AcDbSymbolTableRecord
100
AcDbDimStyleTableRecord
  2
Standard
 70
0
  3
<>
  4
[]
 40
1.0
 41
0.18
 42
0.625
 43
3.75
 44
1.25
 45
0.0
 46
0.0
 47
0.0
 48
0.0
 49
1.0
 50
45.0
 70
0
 90
0
140
0.18
141
0.09
142
0.0
143
25.3999999999999986
144
1.0
145
0.0
146
1.0
147
0.625
148
0.0
 71
0
 72
0
 73
0
 74
0
 75
0
 76
0
 77
1
 78
8
 79
0
170
0
171
3
172
0
173
1
174
0
175
0
176
0
177
0
178
0
179
0
271
2
272
2
273
2
274
3
275
0
276
0
277
2
278
46
279
0
280
0
281
0
282
0
283
0
284
8
285
0
286
0
287
0
288
0
289
3
290
0
340
0
371
-2
372
-2
  0
ENDTAB
  0
TABLE
  2
BLOCK_RECORD
  5
11
330
0
100
AcDbSymbolTable
 70
2
  0
BLOCK_RECORD
  5
1D
330
11
100
AcDbSymbolTableRecord
100
AcDbBlockTableRecord
  2
*Model_Space
 70
0
340
0
 70
0
280
0
281
1
  0
BLOCK_RECORD
  5
20
330
11
100
AcDbSymbolTableRecord
100
AcDbBlockTableRecord
  2
*Paper_Space
 70
0
340
0
 70
0
280
0
281
1
  0
ENDTAB
  0
ENDSEC
  0
SECTION
  2
BLOCKS
  0
BLOCK
  5
1E
330
1D
100
AcDbEntity
  8
0
  6
ByLayer
 62
256
 48
1.0
 60
0
 67
0
370
-1
100
AcDbBlockBegin
  2
*Model_Space
 70
0
 10
0.0
 20
0.0
 30
0.0
  3
*Model_Space
  0
ENDBLK
  5
1F
330
1D
100
AcDbEntity
  8
0
100
AcDbBlockEnd
  0
BLOCK
  5
21
330
20
100
AcDbEntity
  8
0
  6
ByLayer
 62
256
 48
1.0
 60
0
 67
1
370
-1
100
AcDbBlockBegin
  2
*Paper_Space
 70
0
 10
0.0
 20
0.0
 30
0.0
  3
*Paper_Space
  0
ENDBLK
  5
22
330
20
100
AcDbEntity
  8
0
100
AcDbBlockEnd
  0
ENDSEC
  0
SECTION
  2
ENTITIES
  0
HATCH
  5
27
330
1D
100
AcDbEntity
  8
0
  6
ByLayer
420
13204323
 48
1.0
 60
0
 67
0
370
-1
100
AcDbHatch
 30
0.0
210
0.0
220
0.0
230
1.0
  2
SOLID
 70
1
 71
0
 91
1
 92
2
 72
0
 73
1
 93
4
 10
0.0
 20
980.0
 10
1320.0
 20
980.0
 10
1320.0
 20
0.0
 10
0.0
 20
0.0
 97
0
 75
0
 76
1
 47
0.0
 98
0
  0
LWPOLYLINE
  5
28
330
1D
100
AcDbEntity
  8
0
  6
ByLayer
420
13204323
 48
1.0
 60
0
 67
0
370
-1
100
AcDbPolyline
 90
4
 70
1
 43
0.0
 38
0.0
 39
0.0
210
0.0
220
0.0
230
1.0
 10
0.0
 20
980.0
 40
0.0
 41
0.0
 42
0.0
 10
1320.0
 20
980.0
 40
0.0
 41
0.0
 42
0.0
 10
1320.0
 20
0.0
 40
0.0
 41
0.0
 42
0.0
 10
0.0
 20
0.0
 40
0.0
 41
0.0
 42
0.0
  0
TEXT
  5
29
330
1D
100
AcDbEntity
  8
0
  6
ByLayer
420
1193307
 48
1.0
 60
0
 67
0
370
-1
100
AcDbText
 39
0.0
 10
56.0
 20
807.25
 30
0.0
 40
22.0
  1
Font stacks, weight and style cues, vertical writing, and
 50
0.0
 41
1.0
 51
0.0
  7
Standard
 71
0
 72
0
 11
0.0
 21
0.0
 31
0.0
210
0.0
220
0.0
230
1.0
100
AcDbText
 73
0
  0
TEXT
  5
2A
330
1D
100
AcDbEntity
  8
0
  6
ByLayer
420
1193307
 48
1.0
 60
0
 67
0
370
-1
100
AcDbText
 39
0.0
 10
56.0
 20
773.149993896484375
 30
0.0
 40
22.0
  1
transformed text should survive into the exported HTML
 50
0.0
 41
1.0
 51
0.0
  7
Standard
 71
0
 72
0
 11
0.0
 21
0.0
 31
0.0
210
0.0
220
0.0
230
1.0
100
AcDbText
 73
0
  0
TEXT
  5
2B
330
1D
100
AcDbEntity
  8
0
  6
ByLayer
420
1193307
 48
1.0
 60
0
 67
0
370
-1
100
AcDbText
 39
0.0
 10
56.0
 20
739.0500030517578125
 30
0.0
 40
22.0
  1
and SVG without collapsing back to a single fallback face.
 50
0.0
 41
1.0
 51
0.0
  7
Standard
 71
0
 72
0
 11
0.0
 21
0.0
 31
0.0
210
0.0
220
0.0
230
1.0
100
AcDbText
 73
0
  0
TEXT
  5
2C
330
1D
100
AcDbEntity
  8
0
  6
ByLayer
420
1193307
 48
1.0
 60
0
 67
0
370
-1
100
AcDbText
 39
0.0
 10
54.0646564938817207
 20
868.5790066913285727
 30
0.0
 40
76.0
  1
Editorial Systems
 50
5.9999997002163399
 41
1.0
 51
0.0
  7
Standard
 71
0
 72
0
 11
0.0
 21
0.0
 31
0.0
210
0.0
220
0.0
230
1.0
100
AcDbText
 73
0
  0
HATCH
  5
2D
330
1D
100
AcDbEntity
  8
0
  6
ByLayer
420
16777215
 48
1.0
 60
0
 67
0
370
-1
100
AcDbHatch
 30
0.0
210
0.0
220
0.0
230
1.0
  2
SOLID
 70
1
 71
0
 91
1
 92
2
 72
0
 73
1
 93
41
 10
851.2166748046875
 20
924.0
 10
953.29998779296875
 20
924.0
 10
953.29998779296875
 20
924.0
 10
956.7140684282510392
 20
923.6637424070565885
 10
959.9969478593578742
 20
922.6678918189475098
 10
963.0224668708117406
 20
921.0507182152945234
 10
965.6743564637333748
 20
918.8743686707646248
 10
967.8507060082632734
 20
916.2224790778429906
 10
969.4678796119162598
 20
913.1969600663890105
 10
970.4637302000253385
 20
909.9140806352822892
 10
970.79998779296875
 20
906.5
 10
970.79998779296875
 20
906.5
 10
970.79998779296875
 20
906.5
 10
970.4637302000253385
 20
903.0859193647177108
 10
969.4678796119162598
 20
899.8030399336109895
 10
967.8507060082632734
 20
896.7775209221570094
 10
965.6743564637333748
 20
894.1256313292353752
 10
963.0224668708117406
 20
891.9492817847054766
 10
959.9969478593578742
 20
890.3321081810524902
 10
956.7140684282510392
 20
889.3362575929434115
 10
953.29998779296875
 20
889.0
 10
851.2166748046875
 20
889.0
 10
851.2166748046875
 20
889.0
 10
847.8025941694052108
 20
889.3362575929434115
 10
844.5197147382983758
 20
890.3321081810524902
 10
841.4941957268445094
 20
891.9492817847054766
 10
838.8423061339228752
 20
894.1256313292353752
 10
836.6659565893929766
 20
896.7775209221570094
 10
835.0487829857399902
 20
899.8030399336109895
 10
834.0529323976309115
 20
903.0859193647177108
 10
833.7166748046875
 20
906.5
 10
833.7166748046875
 20
906.5
 10
833.7166748046875
 20
906.5
 10
834.0529323976309115
 20
909.9140806352822892
 10
835.0487829857399902
 20
913.1969600663890105
 10
836.6659565893929766
 20
916.2224790778429906
 10
838.8423061339228752
 20
918.8743686707646248
 10
841.4941957268445094
 20
921.0507182152945234
 10
844.5197147382983758
 20
922.6678918189475098
 10
847.8025941694052108
 20
923.6637424070565885
 10
851.2166748046875
 20
924.0
 97
0
 75
0
 76
1
 47
0.0
 98
0
  0
LWPOLYLINE
  5
2E
330
1D
100
AcDbEntity
  8
0
  6
ByLayer
420
16777215
 48
1.0
 60
0
 67
0
370
-1
100
AcDbPolyline
 90
41
 70
1
 43
0.0
 38
0.0
 39
0.0
210
0.0
220
0.0
230
1.0
 10
851.2166748046875
 20
924.0
 40
0.0
 41
0.0
 42
0.0
 10
953.29998779296875
 20
924.0
 40
0.0
 41
0.0
 42
0.0
 10
953.29998779296875
 20
924.0
 40
0.0
 41
0.0
 42
0.0
 10
956.7140684282510392
 20
923.6637424070565885
 40
0.0
 41
0.0
 42
0.0
 10
959.9969478593578742
 20
922.6678918189475098
 40
0.0
 41
0.0
 42
0.0
 10
963.0224668708117406
 20
921.0507182152945234
 40
0.0
 41
0.0
 42
0.0
 10
965.6743564637333748
 20
918.8743686707646248
 40
0.0
 41
0.0
 42
0.0
 10
967.8507060082632734
 20
916.2224790778429906
 40
0.0
 41
0.0
 42
0.0
 10
969.4678796119162598
 20
913.1969600663890105
 40
0.0
 41
0.0
 42
0.0
 10
970.4637302000253385
 20
909.9140806352822892
 40
0.0
 41
0.0
 42
0.0
 10
970.79998779296875
 20
906.5
 40
0.0
 41
0.0
 42
0.0
 10
970.79998779296875
 20
906.5
 40
0.0
 41
0.0
 42
0.0
 10
970.79998779296875
 20
906.5
 40
0.0
 41
0.0
 42
0.0
 10
970.4637302000253385
 20
903.0859193647177108
 40
0.0
 41
0.0
 42
0.0
 10
969.4678796119162598
 20
899.8030399336109895
 40
0.0
 41
0.0
 42
0.0
 10
967.8507060082632734
 20
896.7775209221570094
 40
0.0
 41
0.0
 42
0.0
 10
965.6743564637333748
 20
894.1256313292353752
 40
0.0
 41
0.0
 42
0.0
 10
963.0224668708117406
 20
891.9492817847054766
 40
0.0
 41
0.0
 42
0.0
 10
959.9969478593578742
 20
890.3321081810524902
 40
0.0
 41
0.0
 42
0.0
 10
956.7140684282510392
 20
889.3362575929434115
 40
0.0
 41
0.0
 42
0.0
 10
953.29998779296875
 20
889.0
 40
0.0
 41
0.0
 42
0.0
 10
851.2166748046875
 20
889.0
 40
0.0
 41
0.0
 42
0.0
 10
851.2166748046875
 20
889.0
 40
0.0
 41
0.0
 42
0.0
 10
847.8025941694052108
 20
889.3362575929434115
 40
0.0
 41
0.0
 42
0.0
 10
844.5197147382983758
 20
890.3321081810524902
 40
0.0
 41
0.0
 42
0.0
 10
841.4941957268445094
 20
891.9492817847054766
 40
0.0
 41
0.0
 42
0.0
 10
838.8423061339228752
 20
894.1256313292353752
 40
0.0
 41
0.0
 42
0.0
 10
836.6659565893929766
 20
896.7775209221570094
 40
0.0
 41
0.0
 42
0.0
 10
835.0487829857399902
 20
899.8030399336109895
 40
0.0
 41
0.0
 42
0.0
 10
834.0529323976309115
 20
903.0859193647177108
 40
0.0
 41
0.0
 42
0.0
 10
833.7166748046875
 20
906.5
 40
0.0
 41
0.0
 42
0.0
 10
833.7166748046875
 20
906.5
 40
0.0
 41
0.0
 42
0.0
 10
833.7166748046875
 20
906.5
 40
0.0
 41
0.0
 42
0.0
 10
834.0529323976309115
 20
909.9140806352822892
 40
0.0
 41
0.0
 42
0.0
 10
835.0487829857399902
 20
913.1969600663890105
 40
0.0
 41
0.0
 42
0.0
 10
836.6659565893929766
 20
916.2224790778429906
 40
0.0
 41
0.0
 42
0.0
 10
838.8423061339228752
 20
918.8743686707646248
 40
0.0
 41
0.0
 42
0.0
 10
841.4941957268445094
 20
921.0507182152945234
 40
0.0
 41
0.0
 42
0.0
 10
844.5197147382983758
 20
922.6678918189475098
 40
0.0
 41
0.0
 42
0.0
 10
847.8025941694052108
 20
923.6637424070565885
 40
0.0
 41
0.0
 42
0.0
 10
851.2166748046875
 20
924.0
 40
0.0
 41
0.0
 42
0.0
  0
TEXT
  5
2F
330
1D
100
AcDbEntity
  8
0
  6
ByLayer
420
3098712
 48
1.0
 60
0
 67
0
370
-1
100
AcDbText
 39
0.0
 10
849.7166748046875
 20
903.25
 30
0.0
 40
13.0
  1
FONT-FAMILY
 50
0.0
 41
1.0
 51
0.0
  7
Standard
 71
0
 72
0
 11
0.0
 21
0.0
 31
0.0
210
0.0
220
0.0
230
1.0
100
AcDbText
 73
0
  0
HATCH
  5
30
330
1D
100
AcDbEntity
  8
0
  6
ByLayer
420
16777215
 48
1.0
 60
0
 67
0
370
-1
100
AcDbHatch
 30
0.0
210
0.0
220
0.0
230
1.0
  2
SOLID
 70
1
 71
0
 91
1
 92
2
 72
0
 73
1
 93
41
 10
1000.29998779296875
 20
924.0
 10
1107.9666748046875
 20
924.0
 10
1107.9666748046875
 20
924.0
 10
1111.3807554399697892
 20
923.6637424070565885
 10
1114.6636348710765105
 20
922.6678918189475098
 10
1117.6891538825304906
 20
921.0507182152945234
 10
1120.3410434754521248
 20
918.8743686707646248
 10
1122.517393019982137
 20
916.2224790778429906
 10
1124.1345666236350098
 20
913.1969600663890105
 10
1125.1304172117440885
 20
909.9140806352822892
 10
1125.4666748046875
 20
906.5
 10
1125.4666748046875
 20
906.5
 10
1125.4666748046875
 20
906.5
 10
1125.1304172117440885
 20
903.0859193647177108
 10
1124.1345666236350098
 20
899.8030399336109895
 10
1122.517393019982137
 20
896.7775209221570094
 10
1120.3410434754521248
 20
894.1256313292353752
 10
1117.6891538825304906
 20
891.9492817847054766
 10
1114.6636348710765105
 20
890.3321081810524902
 10
1111.3807554399697892
 20
889.3362575929434115
 10
1107.9666748046875
 20
889.0
 10
1000.29998779296875
 20
889.0
 10
1000.29998779296875
 20
889.0
 10
996.8859071576864608
 20
889.3362575929434115
 10
993.6030277265796258
 20
890.3321081810524902
 10
990.5775087151257594
 20
891.9492817847054766
 10
987.9256191222041252
 20
894.1256313292353752
 10
985.7492695776742266
 20
896.7775209221570094
 10
984.1320959740212402
 20
899.8030399336109895
 10
983.1362453859121615
 20
903.0859193647177108
 10
982.79998779296875
 20
906.5
 10
982.79998779296875
 20
906.5
 10
982.79998779296875
 20
906.5
 10
983.1362453859121615
 20
909.9140806352822892
 10
984.1320959740212402
 20
913.1969600663890105
 10
985.7492695776742266
 20
916.2224790778429906
 10
987.9256191222041252
 20
918.8743686707646248
 10
990.5775087151257594
 20
921.0507182152945234
 10
993.6030277265796258
 20
922.6678918189475098
 10
996.8859071576864608
 20
923.6637424070565885
 10
1000.29998779296875
 20
924.0
 97
0
 75
0
 76
1
 47
0.0
 98
0
  0
LWPOLYLINE
  5
31
330
1D
100
AcDbEntity
  8
0
  6
ByLayer
420
16777215
 48
1.0
 60
0
 67
0
370
-1
100
AcDbPolyline
 90
41
 70
1
 43
0.0
 38
0.0
 39
0.0
210
0.0
220
0.0
230
1.0
 10
1000.29998779296875
 20
924.0
 40
0.0
 41
0.0
 42
0.0
 10
1107.9666748046875
 20
924.0
 40
0.0
 41
0.0
 42
0.0
 10
1107.9666748046875
 20
924.0
 40
0.0
 41
0.0
 42
0.0
 10
1111.3807554399697892
 20
923.6637424070565885
 40
0.0
 41
0.0
 42
0.0
 10
1114.6636348710765105
 20
922.6678918189475098
 40
0.0
 41
0.0
 42
0.0
 10
1117.6891538825304906
 20
921.0507182152945234
 40
0.0
 41
0.0
 42
0.0
 10
1120.3410434754521248
 20
918.8743686707646248
 40
0.0
 41
0.0
 42
0.0
 10
1122.517393019982137
 20
916.2224790778429906
 40
0.0
 41
0.0
 42
0.0
 10
1124.1345666236350098
 20
913.1969600663890105
 40
0.0
 41
0.0
 42
0.0
 10
1125.1304172117440885
 20
909.9140806352822892
 40
0.0
 41
0.0
 42
0.0
 10
1125.4666748046875
 20
906.5
 40
0.0
 41
0.0
 42
0.0
 10
1125.4666748046875
 20
906.5
 40
0.0
 41
0.0
 42
0.0
 10
1125.4666748046875
 20
906.5
 40
0.0
 41
0.0
 42
0.0
 10
1125.1304172117440885
 20
903.0859193647177108
 40
0.0
 41
0.0
 42
0.0
 10
1124.1345666236350098
 20
899.8030399336109895
 40
0.0
 41
0.0
 42
0.0
 10
1122.517393019982137
 20
896.7775209221570094
 40
0.0
 41
0.0
 42
0.0
 10
1120.3410434754521248
 20
894.1256313292353752
 40
0.0
 41
0.0
 42
0.0
 10
1117.6891538825304906
 20
891.9492817847054766
 40
0.0
 41
0.0
 42
0.0
 10
1114.6636348710765105
 20
890.3321081810524902
 40
0.0
 41
0.0
 42
0.0
 10
1111.3807554399697892
 20
889.3362575929434115
 40
0.0
 41
0.0
 42
0.0
 10
1107.9666748046875
 20
889.0
 40
0.0
 41
0.0
 42
0.0
 10
1000.29998779296875
 20
889.0
 40
0.0
 41
0.0
 42
0.0
 10
1000.29998779296875
 20
889.0
 40
0.0
 41
0.0
 42
0.0
 10
996.8859071576864608
 20
889.3362575929434115
 40
0.0
 41
0.0
 42
0.0
 10
993.6030277265796258
 20
890.3321081810524902
 40
0.0
 41
0.0
 42
0.0
 10
990.5775087151257594
 20
891.9492817847054766
 40
0.0
 41
0.0
 42
0.0
 10
987.9256191222041252
 20
894.1256313292353752
 40
0.0
 41
0.0
 42
0.0
 10
985.7492695776742266
 20
896.7775209221570094
 40
0.0
 41
0.0
 42
0.0
 10
984.1320959740212402
 20
899.8030399336109895
 40
0.0
 41
0.0
 42
0.0
 10
983.1362453859121615
 20
903.0859193647177108
 40
0.0
 41
0.0
 42
0.0
 10
982.79998779296875
 20
906.5
 40
0.0
 41
0.0
 42
0.0
 10
982.79998779296875
 20
906.5
 40
0.0
 41
0.0
 42
0.0
 10
982.79998779296875
 20
906.5
 40
0.0
 41
0.0
 42
0.0
 10
983.1362453859121615
 20
909.9140806352822892
 40
0.0
 41
0.0
 42
0.0
 10
984.1320959740212402
 20
913.1969600663890105
 40
0.0
 41
0.0
 42
0.0
 10
985.7492695776742266
 20
916.2224790778429906
 40
0.0
 41
0.0
 42
0.0
 10
987.9256191222041252
 20
918.8743686707646248
 40
0.0
 41
0.0
 42
0.0
 10
990.5775087151257594
 20
921.0507182152945234
 40
0.0
 41
0.0
 42
0.0
 10
993.6030277265796258
 20
922.6678918189475098
 40
0.0
 41
0.0
 42
0.0
 10
996.8859071576864608
 20
923.6637424070565885
 40
0.0
 41
0.0
 42
0.0
 10
1000.29998779296875
 20
924.0
 40
0.0
 41
0.0
 42
0.0
  0
TEXT
  5
32
330
1D
100
AcDbEntity
  8
0
  6
ByLayer
420
3098712
 48
1.0
 60
0
 67
0
370
-1
100
AcDbText
 39
0.0
 10
998.79998779296875
 20
903.25
 30
0.0
 40
13.0
  1
FONT-WEIGHT
 50
0.0
 41
1.0
 51
0.0
  7
Standard
 71
0
 72
0
 11
0.0
 21
0.0
 31
0.0
210
0.0
220
0.0
230
1.0
100
AcDbText
 73
0
  0
HATCH
  5
33
330
1D
100
AcDbEntity
  8
0
  6
ByLayer
420
16777215
 48
1.0
 60
0
 67
0
370
-1
100
AcDbHatch
 30
0.0
210
0.0
220
0.0
230
1.0
  2
SOLID
 70
1
 71
0
 91
1
 92
2
 72
0
 73
1
 93
41
 10
1154.9666748046875
 20
924.0
 10
1246.5
 20
924.0
 10
1246.5
 20
924.0
 10
1249.9140806352822892
 20
923.6637424070565885
 10
1253.1969600663890105
 20
922.6678918189475098
 10
1256.2224790778429906
 20
921.0507182152945234
 10
1258.8743686707646248
 20
918.8743686707646248
 10
1261.050718215294637
 20
916.2224790778429906
 10
1262.6678918189475098
 20
913.1969600663890105
 10
1263.6637424070565885
 20
909.9140806352822892
 10
1264.0
 20
906.5
 10
1264.0
 20
906.5
 10
1264.0
 20
906.5
 10
1263.6637424070565885
 20
903.0859193647177108
 10
1262.6678918189475098
 20
899.8030399336109895
 10
1261.050718215294637
 20
896.7775209221570094
 10
1258.8743686707646248
 20
894.1256313292353752
 10
1256.2224790778429906
 20
891.9492817847054766
 10
1253.1969600663890105
 20
890.3321081810524902
 10
1249.9140806352822892
 20
889.3362575929434115
 10
1246.5
 20
889.0
 10
1154.9666748046875
 20
889.0
 10
1154.9666748046875
 20
889.0
 10
1151.5525941694052108
 20
889.3362575929434115
 10
1148.2697147382984895
 20
890.3321081810524902
 10
1145.2441957268445094
 20
891.9492817847054766
 10
1142.5923061339228752
 20
894.1256313292353752
 10
1140.415956589392863
 20
896.7775209221570094
 10
1138.7987829857399902
 20
899.8030399336109895
 10
1137.8029323976309115
 20
903.0859193647177108
 10
1137.4666748046875
 20
906.5
 10
1137.4666748046875
 20
906.5
 10
1137.4666748046875
 20
906.5
 10
1137.8029323976309115
 20
909.9140806352822892
 10
1138.7987829857399902
 20
913.1969600663890105
 10
1140.415956589392863
 20
916.2224790778429906
 10
1142.5923061339228752
 20
918.8743686707646248
 10
1145.2441957268445094
 20
921.0507182152945234
 10
1148.2697147382984895
 20
922.6678918189475098
 10
1151.5525941694052108
 20
923.6637424070565885
 10
1154.9666748046875
 20
924.0
 97
0
 75
0
 76
1
 47
0.0
 98
0
  0
LWPOLYLINE
  5
34
330
1D
100
AcDbEntity
  8
0
  6
ByLayer
420
16777215
 48
1.0
 60
0
 67
0
370
-1
100
AcDbPolyline
 90
41
 70
1
 43
0.0
 38
0.0
 39
0.0
210
0.0
220
0.0
230
1.0
 10
1154.9666748046875
 20
924.0
 40
0.0
 41
0.0
 42
0.0
 10
1246.5
 20
924.0
 40
0.0
 41
0.0
 42
0.0
 10
1246.5
 20
924.0
 40
0.0
 41
0.0
 42
0.0
 10
1249.9140806352822892
 20
923.6637424070565885
 40
0.0
 41
0.0
 42
0.0
 10
1253.1969600663890105
 20
922.6678918189475098
 40
0.0
 41
0.0
 42
0.0
 10
1256.2224790778429906
 20
921.0507182152945234
 40
0.0
 41
0.0
 42
0.0
 10
1258.8743686707646248
 20
918.8743686707646248
 40
0.0
 41
0.0
 42
0.0
 10
1261.050718215294637
 20
916.2224790778429906
 40
0.0
 41
0.0
 42
0.0
 10
1262.6678918189475098
 20
913.1969600663890105
 40
0.0
 41
0.0
 42
0.0
 10
1263.6637424070565885
 20
909.9140806352822892
 40
0.0
 41
0.0
 42
0.0
 10
1264.0
 20
906.5
 40
0.0
 41
0.0
 42
0.0
 10
1264.0
 20
906.5
 40
0.0
 41
0.0
 42
0.0
 10
1264.0
 20
906.5
 40
0.0
 41
0.0
 42
0.0
 10
1263.6637424070565885
 20
903.0859193647177108
 40
0.0
 41
0.0
 42
0.0
 10
1262.6678918189475098
 20
899.8030399336109895
 40
0.0
 41
0.0
 42
0.0
 10
1261.050718215294637
 20
896.7775209221570094
 40
0.0
 41
0.0
 42
0.0
 10
1258.8743686707646248
 20
894.1256313292353752
 40
0.0
 41
0.0
 42
0.0
 10
1256.2224790778429906
 20
891.9492817847054766
 40
0.0
 41
0.0
 42
0.0
 10
1253.1969600663890105
 20
890.3321081810524902
 40
0.0
 41
0.0
 42
0.0
 10
1249.9140806352822892
 20
889.3362575929434115
 40
0.0
 41
0.0
 42
0.0
 10
1246.5
 20
889.0
 40
0.0
 41
0.0
 42
0.0
 10
1154.9666748046875
 20
889.0
 40
0.0
 41
0.0
 42
0.0
 10
1154.9666748046875
 20
889.0
 40
0.0
 41
0.0
 42
0.0
 10
1151.5525941694052108
 20
889.3362575929434115
 40
0.0
 41
0.0
 42
0.0
 10
1148.2697147382984895
 20
890.3321081810524902
 40
0.0
 41
0.0
 42
0.0
 10
1145.2441957268445094
 20
891.9492817847054766
 40
0.0
 41
0.0
 42
0.0
 10
1142.5923061339228752
 20
894.1256313292353752
 40
0.0
 41
0.0
 42
0.0
 10
1140.415956589392863
 20
896.7775209221570094
 40
0.0
 41
0.0
 42
0.0
 10
1138.7987829857399902
 20
899.8030399336109895
 40
0.0
 41
0.0
 42
0.0
 10
1137.8029323976309115
 20
903.0859193647177108
 40
0.0
 41
0.0
 42
0.0
 10
1137.4666748046875
 20
906.5
 40
0.0
 41
0.0
 42
0.0
 10
1137.4666748046875
 20
906.5
 40
0.0
 41
0.0
 42
0.0
 10
1137.4666748046875
 20
906.5
 40
0.0
 41
0.0
 42
0.0
 10
1137.8029323976309115
 20
909.9140806352822892
 40
0.0
 41
0.0
 42
0.0
 10
1138.7987829857399902
 20
913.1969600663890105
 40
0.0
 41
0.0
 42
0.0
 10
1140.415956589392863
 20
916.2224790778429906
 40
0.0
 41
0.0
 42
0.0
 10
1142.5923061339228752
 20
918.8743686707646248
 40
0.0
 41
0.0
 42
0.0
 10
1145.2441957268445094
 20
921.0507182152945234
 40
0.0
 41
0.0
 42
0.0
 10
1148.2697147382984895
 20
922.6678918189475098
 40
0.0
 41
0.0
 42
0.0
 10
1151.5525941694052108
 20
923.6637424070565885
 40
0.0
 41
0.0
 42
0.0
 10
1154.9666748046875
 20
924.0
 40
0.0
 41
0.0
 42
0.0
  0
TEXT
  5
35
330
1D
100
AcDbEntity
  8
0
  6
ByLayer
420
3098712
 48
1.0
 60
0
 67
0
370
-1
100
AcDbText
 39
0.0
 10
1153.4666748046875
 20
903.25
 30
0.0
 40
13.0
  1
FONT-STYLE
 50
0.0
 41
1.0
 51
0.0
  7
Standard
 71
0
 72
0
 11
0.0
 21
0.0
 31
0.0
210
0.0
220
0.0
230
1.0
100
AcDbText
 73
0
  0
HATCH
  5
36
330
1D
100
AcDbEntity
  8
0
  6
ByLayer
420
16777215
 48
1.0
 60
0
 67
0
370
-1
100
AcDbHatch
 30
0.0
210
0.0
220
0.0
230
1.0
  2
SOLID
 70
1
 71
0
 91
1
 92
2
 72
0
 73
1
 93
41
 10
785.04998779296875
 20
877.0
 10
912.51666259765625
 20
877.0
 10
912.51666259765625
 20
877.0
 10
915.9307432329385392
 20
876.6637424070565885
 10
919.2136226640453742
 20
875.6678918189475098
 10
922.2391416754992406
 20
874.0507182152945234
 10
924.8910312684208748
 20
871.8743686707646248
 10
927.0673808129507734
 20
869.2224790778429906
 10
928.6845544166037598
 20
866.1969600663890105
 10
929.6804050047128385
 20
862.9140806352822892
 10
930.01666259765625
 20
859.5
 10
930.01666259765625
 20
859.5
 10
930.01666259765625
 20
859.5
 10
929.6804050047128385
 20
856.0859193647177108
 10
928.6845544166037598
 20
852.8030399336109895
 10
927.0673808129507734
 20
849.7775209221570094
 10
924.8910312684208748
 20
847.1256313292353752
 10
922.2391416754992406
 20
844.9492817847054766
 10
919.2136226640453742
 20
843.3321081810524902
 10
915.9307432329385392
 20
842.3362575929434115
 10
912.51666259765625
 20
842.0
 10
785.04998779296875
 20
842.0
 10
785.04998779296875
 20
842.0
 10
781.6359071576864608
 20
842.3362575929434115
 10
778.3530277265796258
 20
843.3321081810524902
 10
775.3275087151257594
 20
844.9492817847054766
 10
772.6756191222041252
 20
847.1256313292353752
 10
770.4992695776742266
 20
849.7775209221570094
 10
768.8820959740212402
 20
852.8030399336109895
 10
767.8862453859121615
 20
856.0859193647177108
 10
767.54998779296875
 20
859.5
 10
767.54998779296875
 20
859.5
 10
767.54998779296875
 20
859.5
 10
767.8862453859121615
 20
862.9140806352822892
 10
768.8820959740212402
 20
866.1969600663890105
 10
770.4992695776742266
 20
869.2224790778429906
 10
772.6756191222041252
 20
871.8743686707646248
 10
775.3275087151257594
 20
874.0507182152945234
 10
778.3530277265796258
 20
875.6678918189475098
 10
781.6359071576864608
 20
876.6637424070565885
 10
785.04998779296875
 20
877.0
 97
0
 75
0
 76
1
 47
0.0
 98
0
  0
LWPOLYLINE
  5
37
330
1D
100
AcDbEntity
  8
0
  6
ByLayer
420
16777215
 48
1.0
 60
0
 67
0
370
-1
100
AcDbPolyline
 90
41
 70
1
 43
0.0
 38
0.0
 39
0.0
210
0.0
220
0.0
230
1.0
 10
785.04998779296875
 20
877.0
 40
0.0
 41
0.0
 42
0.0
 10
912.51666259765625
 20
877.0
 40
0.0
 41
0.0
 42
0.0
 10
912.51666259765625
 20
877.0
 40
0.0
 41
0.0
 42
0.0
 10
915.9307432329385392
 20
876.6637424070565885
 40
0.0
 41
0.0
 42
0.0
 10
919.2136226640453742
 20
875.6678918189475098
 40
0.0
 41
0.0
 42
0.0
 10
922.2391416754992406
 20
874.0507182152945234
 40
0.0
 41
0.0
 42
0.0
 10
924.8910312684208748
 20
871.8743686707646248
 40
0.0
 41
0.0
 42
0.0
 10
927.0673808129507734
 20
869.2224790778429906
 40
0.0
 41
0.0
 42
0.0
 10
928.6845544166037598
 20
866.1969600663890105
 40
0.0
 41
0.0
 42
0.0
 10
929.6804050047128385
 20
862.9140806352822892
 40
0.0
 41
0.0
 42
0.0
 10
930.01666259765625
 20
859.5
 40
0.0
 41
0.0
 42
0.0
 10
930.01666259765625
 20
859.5
 40
0.0
 41
0.0
 42
0.0
 10
930.01666259765625
 20
859.5
 40
0.0
 41
0.0
 42
0.0
 10
929.6804050047128385
 20
856.0859193647177108
 40
0.0
 41
0.0
 42
0.0
 10
928.6845544166037598
 20
852.8030399336109895
 40
0.0
 41
0.0
 42
0.0
 10
927.0673808129507734
 20
849.7775209221570094
 40
0.0
 41
0.0
 42
0.0
 10
924.8910312684208748
 20
847.1256313292353752
 40
0.0
 41
0.0
 42
0.0
 10
922.2391416754992406
 20
844.9492817847054766
 40
0.0
 41
0.0
 42
0.0
 10
919.2136226640453742
 20
843.3321081810524902
 40
0.0
 41
0.0
 42
0.0
 10
915.9307432329385392
 20
842.3362575929434115
 40
0.0
 41
0.0
 42
0.0
 10
912.51666259765625
 20
842.0
 40
0.0
 41
0.0
 42
0.0
 10
785.04998779296875
 20
842.0
 40
0.0
 41
0.0
 42
0.0
 10
785.04998779296875
 20
842.0
 40
0.0
 41
0.0
 42
0.0
 10
781.6359071576864608
 20
842.3362575929434115
 40
0.0
 41
0.0
 42
0.0
 10
778.3530277265796258
 20
843.3321081810524902
 40
0.0
 41
0.0
 42
0.0
 10
775.3275087151257594
 20
844.9492817847054766
 40
0.0
 41
0.0
 42
0.0
 10
772.6756191222041252
 20
847.1256313292353752
 40
0.0
 41
0.0
 42
0.0
 10
770.4992695776742266
 20
849.7775209221570094
 40
0.0
 41
0.0
 42
0.0
 10
768.8820959740212402
 20
852.8030399336109895
 40
0.0
 41
0.0
 42
0.0
 10
767.8862453859121615
 20
856.0859193647177108
 40
0.0
 41
0.0
 42
0.0
 10
767.54998779296875
 20
859.5
 40
0.0
 41
0.0
 42
0.0
 10
767.54998779296875
 20
859.5
 40
0.0
 41
0.0
 42
0.0
 10
767.54998779296875
 20
859.5
 40
0.0
 41
0.0
 42
0.0
 10
767.8862453859121615
 20
862.9140806352822892
 40
0.0
 41
0.0
 42
0.0
 10
768.8820959740212402
 20
866.1969600663890105
 40
0.0
 41
0.0
 42
0.0
 10
770.4992695776742266
 20
869.2224790778429906
 40
0.0
 41
0.0
 42
0.0
 10
772.6756191222041252
 20
871.8743686707646248
 40
0.0
 41
0.0
 42
0.0
 10
775.3275087151257594
 20
874.0507182152945234
 40
0.0
 41
0.0
 42
0.0
 10
778.3530277265796258
 20
875.6678918189475098
 40
0.0
 41
0.0
 42
0.0
 10
781.6359071576864608
 20
876.6637424070565885
 40
0.0
 41
0.0
 42
0.0
 10
785.04998779296875
 20
877.0
 40
0.0
 41
0.0
 42
0.0
  0
TEXT
  5
38
330
1D
100
AcDbEntity
  8
0
  6
ByLayer
420
3098712
 48
1.0
 60
0
 67
0
370
-1
100
AcDbText
 39
0.0
 10
783.54998779296875
 20
856.25
 30
0.0
 40
13.0
  1
LETTER-SPACING
 50
0.0
 41
1.0
 51
0.0
  7
Standard
 71
0
 72
0
 11
0.0
 21
0.0
 31
0.0
210
0.0
220
0.0
230
1.0
100
AcDbText
 73
0
  0
HATCH
  5
39
330
1D
100
AcDbEntity
  8
0
  6
ByLayer
420
16777215
 48
1.0
 60
0
 67
0
370
-1
100
AcDbHatch
 30
0.0
210
0.0
220
0.0
230
1.0
  2
SOLID
 70
1
 71
0
 91
1
 92
2
 72
0
 73
1
 93
41
 10
959.51666259765625
 20
877.0
 10
1079.75
 20
877.0
 10
1079.75
 20
877.0
 10
1083.1640806352822892
 20
876.6637424070565885
 10
1086.4469600663890105
 20
875.6678918189475098
 10
1089.4724790778429906
 20
874.0507182152945234
 10
1092.1243686707646248
 20
871.8743686707646248
 10
1094.300718215294637
 20
869.2224790778429906
 10
1095.9178918189475098
 20
866.1969600663890105
 10
1096.9137424070565885
 20
862.9140806352822892
 10
1097.25
 20
859.5
 10
1097.25
 20
859.5
 10
1097.25
 20
859.5
 10
1096.9137424070565885
 20
856.0859193647177108
 10
1095.9178918189475098
 20
852.8030399336109895
 10
1094.300718215294637
 20
849.7775209221570094
 10
1092.1243686707646248
 20
847.1256313292353752
 10
1089.4724790778429906
 20
844.9492817847054766
 10
1086.4469600663890105
 20
843.3321081810524902
 10
1083.1640806352822892
 20
842.3362575929434115
 10
1079.75
 20
842.0
 10
959.51666259765625
 20
842.0
 10
959.51666259765625
 20
842.0
 10
956.1025819623739608
 20
842.3362575929434115
 10
952.8197025312671258
 20
843.3321081810524902
 10
949.7941835198132594
 20
844.9492817847054766
 10
947.1422939268916252
 20
847.1256313292353752
 10
944.9659443823617266
 20
849.7775209221570094
 10
943.3487707787087402
 20
852.8030399336109895
 10
942.3529201905996615
 20
856.0859193647177108
 10
942.01666259765625
 20
859.5
 10
942.01666259765625
 20
859.5
 10
942.01666259765625
 20
859.5
 10
942.3529201905996615
 20
862.9140806352822892
 10
943.3487707787087402
 20
866.1969600663890105
 10
944.9659443823617266
 20
869.2224790778429906
 10
947.1422939268916252
 20
871.8743686707646248
 10
949.7941835198132594
 20
874.0507182152945234
 10
952.8197025312671258
 20
875.6678918189475098
 10
956.1025819623739608
 20
876.6637424070565885
 10
959.51666259765625
 20
877.0
 97
0
 75
0
 76
1
 47
0.0
 98
0
  0
LWPOLYLINE
  5
3A
330
1D
100
AcDbEntity
  8
0
  6
ByLayer
420
16777215
 48
1.0
 60
0
 67
0
370
-1
100
AcDbPolyline
 90
41
 70
1
 43
0.0
 38
0.0
 39
0.0
210
0.0
220
0.0
230
1.0
 10
959.51666259765625
 20
877.0
 40
0.0
 41
0.0
 42
0.0
 10
1079.75
 20
877.0
 40
0.0
 41
0.0
 42
0.0
 10
1079.75
 20
877.0
 40
0.0
 41
0.0
 42
0.0
 10
1083.1640806352822892
 20
876.6637424070565885
 40
0.0
 41
0.0
 42
0.0
 10
1086.4469600663890105
 20
875.6678918189475098
 40
0.0
 41
0.0
 42
0.0
 10
1089.4724790778429906
 20
874.0507182152945234
 40
0.0
 41
0.0
 42
0.0
 10
1092.1243686707646248
 20
871.8743686707646248
 40
0.0
 41
0.0
 42
0.0
 10
1094.300718215294637
 20
869.2224790778429906
 40
0.0
 41
0.0
 42
0.0
 10
1095.9178918189475098
 20
866.1969600663890105
 40
0.0
 41
0.0
 42
0.0
 10
1096.9137424070565885
 20
862.9140806352822892
 40
0.0
 41
0.0
 42
0.0
 10
1097.25
 20
859.5
 40
0.0
 41
0.0
 42
0.0
 10
1097.25
 20
859.5
 40
0.0
 41
0.0
 42
0.0
 10
1097.25
 20
859.5
 40
0.0
 41
0.0
 42
0.0
 10
1096.9137424070565885
 20
856.0859193647177108
 40
0.0
 41
0.0
 42
0.0
 10
1095.9178918189475098
 20
852.8030399336109895
 40
0.0
 41
0.0
 42
0.0
 10
1094.300718215294637
 20
849.7775209221570094
 40
0.0
 41
0.0
 42
0.0
 10
1092.1243686707646248
 20
847.1256313292353752
 40
0.0
 41
0.0
 42
0.0
 10
1089.4724790778429906
 20
844.9492817847054766
 40
0.0
 41
0.0
 42
0.0
 10
1086.4469600663890105
 20
843.3321081810524902
 40
0.0
 41
0.0
 42
0.0
 10
1083.1640806352822892
 20
842.3362575929434115
 40
0.0
 41
0.0
 42
0.0
 10
1079.75
 20
842.0
 40
0.0
 41
0.0
 42
0.0
 10
959.51666259765625
 20
842.0
 40
0.0
 41
0.0
 42
0.0
 10
959.51666259765625
 20
842.0
 40
0.0
 41
0.0
 42
0.0
 10
956.1025819623739608
 20
842.3362575929434115
 40
0.0
 41
0.0
 42
0.0
 10
952.8197025312671258
 20
843.3321081810524902
 40
0.0
 41
0.0
 42
0.0
 10
949.7941835198132594
 20
844.9492817847054766
 40
0.0
 41
0.0
 42
0.0
 10
947.1422939268916252
 20
847.1256313292353752
 40
0.0
 41
0.0
 42
0.0
 10
944.9659443823617266
 20
849.7775209221570094
 40
0.0
 41
0.0
 42
0.0
 10
943.3487707787087402
 20
852.8030399336109895
 40
0.0
 41
0.0
 42
0.0
 10
942.3529201905996615
 20
856.0859193647177108
 40
0.0
 41
0.0
 42
0.0
 10
942.01666259765625
 20
859.5
 40
0.0
 41
0.0
 42
0.0
 10
942.01666259765625
 20
859.5
 40
0.0
 41
0.0
 42
0.0
 10
942.01666259765625
 20
859.5
 40
0.0
 41
0.0
 42
0.0
 10
942.3529201905996615
 20
862.9140806352822892
 40
0.0
 41
0.0
 42
0.0
 10
943.3487707787087402
 20
866.1969600663890105
 40
0.0
 41
0.0
 42
0.0
 10
944.9659443823617266
 20
869.2224790778429906
 40
0.0
 41
0.0
 42
0.0
 10
947.1422939268916252
 20
871.8743686707646248
 40
0.0
 41
0.0
 42
0.0
 10
949.7941835198132594
 20
874.0507182152945234
 40
0.0
 41
0.0
 42
0.0
 10
952.8197025312671258
 20
875.6678918189475098
 40
0.0
 41
0.0
 42
0.0
 10
956.1025819623739608
 20
876.6637424070565885
 40
0.0
 41
0.0
 42
0.0
 10
959.51666259765625
 20
877.0
 40
0.0
 41
0.0
 42
0.0
  0
TEXT
  5
3B
330
1D
100
AcDbEntity
  8
0
  6
ByLayer
420
3098712
 48
1.0
 60
0
 67
0
370
-1
100
AcDbText
 39
0.0
 10
958.01666259765625
 20
856.25
 30
0.0
 40
13.0
  1
WORD-SPACING
 50
0.0
 41
1.0
 51
0.0
  7
Standard
 71
0
 72
0
 11
0.0
 21
0.0
 31
0.0
210
0.0
220
0.0
230
1.0
100
AcDbText
 73
0
  0
HATCH
  5
3C
330
1D
100
AcDbEntity
  8
0
  6
ByLayer
420
16777215
 48
1.0
 60
0
 67
0
370
-1
100
AcDbHatch
 30
0.0
210
0.0
220
0.0
230
1.0
  2
SOLID
 70
1
 71
0
 91
1
 92
2
 72
0
 73
1
 93
41
 10
1126.75
 20
877.0
 10
1246.5
 20
877.0
 10
1246.5
 20
877.0
 10
1249.9140806352822892
 20
876.6637424070565885
 10
1253.1969600663890105
 20
875.6678918189475098
 10
1256.2224790778429906
 20
874.0507182152945234
 10
1258.8743686707646248
 20
871.8743686707646248
 10
1261.050718215294637
 20
869.2224790778429906
 10
1262.6678918189475098
 20
866.1969600663890105
 10
1263.6637424070565885
 20
862.9140806352822892
 10
1264.0
 20
859.5
 10
1264.0
 20
859.5
 10
1264.0
 20
859.5
 10
1263.6637424070565885
 20
856.0859193647177108
 10
1262.6678918189475098
 20
852.8030399336109895
 10
1261.050718215294637
 20
849.7775209221570094
 10
1258.8743686707646248
 20
847.1256313292353752
 10
1256.2224790778429906
 20
844.9492817847054766
 10
1253.1969600663890105
 20
843.3321081810524902
 10
1249.9140806352822892
 20
842.3362575929434115
 10
1246.5
 20
842.0
 10
1126.75
 20
842.0
 10
1126.75
 20
842.0
 10
1123.3359193647177108
 20
842.3362575929434115
 10
1120.0530399336109895
 20
843.3321081810524902
 10
1117.0275209221570094
 20
844.9492817847054766
 10
1114.3756313292353752
 20
847.1256313292353752
 10
1112.199281784705363
 20
849.7775209221570094
 10
1110.5821081810524902
 20
852.8030399336109895
 10
1109.5862575929434115
 20
856.0859193647177108
 10
1109.25
 20
859.5
 10
1109.25
 20
859.5
 10
1109.25
 20
859.5
 10
1109.5862575929434115
 20
862.9140806352822892
 10
1110.5821081810524902
 20
866.1969600663890105
 10
1112.199281784705363
 20
869.2224790778429906
 10
1114.3756313292353752
 20
871.8743686707646248
 10
1117.0275209221570094
 20
874.0507182152945234
 10
1120.0530399336109895
 20
875.6678918189475098
 10
1123.3359193647177108
 20
876.6637424070565885
 10
1126.75
 20
877.0
 97
0
 75
0
 76
1
 47
0.0
 98
0
  0
LWPOLYLINE
  5
3D
330
1D
100
AcDbEntity
  8
0
  6
ByLayer
420
16777215
 48
1.0
 60
0
 67
0
370
-1
100
AcDbPolyline
 90
41
 70
1
 43
0.0
 38
0.0
 39
0.0
210
0.0
220
0.0
230
1.0
 10
1126.75
 20
877.0
 40
0.0
 41
0.0
 42
0.0
 10
1246.5
 20
877.0
 40
0.0
 41
0.0
 42
0.0
 10
1246.5
 20
877.0
 40
0.0
 41
0.0
 42
0.0
 10
1249.9140806352822892
 20
876.6637424070565885
 40
0.0
 41
0.0
 42
0.0
 10
1253.1969600663890105
 20
875.6678918189475098
 40
0.0
 41
0.0
 42
0.0
 10
1256.2224790778429906
 20
874.0507182152945234
 40
0.0
 41
0.0
 42
0.0
 10
1258.8743686707646248
 20
871.8743686707646248
 40
0.0
 41
0.0
 42
0.0
 10
1261.050718215294637
 20
869.2224790778429906
 40
0.0
 41
0.0
 42
0.0
 10
1262.6678918189475098
 20
866.1969600663890105
 40
0.0
 41
0.0
 42
0.0
 10
1263.6637424070565885
 20
862.9140806352822892
 40
0.0
 41
0.0
 42
0.0
 10
1264.0
 20
859.5
 40
0.0
 41
0.0
 42
0.0
 10
1264.0
 20
859.5
 40
0.0
 41
0.0
 42
0.0
 10
1264.0
 20
859.5
 40
0.0
 41
0.0
 42
0.0
 10
1263.6637424070565885
 20
856.0859193647177108
 40
0.0
 41
0.0
 42
0.0
 10
1262.6678918189475098
 20
852.8030399336109895
 40
0.0
 41
0.0
 42
0.0
 10
1261.050718215294637
 20
849.7775209221570094
 40
0.0
 41
0.0
 42
0.0
 10
1258.8743686707646248
 20
847.1256313292353752
 40
0.0
 41
0.0
 42
0.0
 10
1256.2224790778429906
 20
844.9492817847054766
 40
0.0
 41
0.0
 42
0.0
 10
1253.1969600663890105
 20
843.3321081810524902
 40
0.0
 41
0.0
 42
0.0
 10
1249.9140806352822892
 20
842.3362575929434115
 40
0.0
 41
0.0
 42
0.0
 10
1246.5
 20
842.0
 40
0.0
 41
0.0
 42
0.0
 10
1126.75
 20
842.0
 40
0.0
 41
0.0
 42
0.0
 10
1126.75
 20
842.0
 40
0.0
 41
0.0
 42
0.0
 10
1123.3359193647177108
 20
842.3362575929434115
 40
0.0
 41
0.0
 42
0.0
 10
1120.0530399336109895
 20
843.3321081810524902
 40
0.0
 41
0.0
 42
0.0
 10
1117.0275209221570094
 20
844.9492817847054766
 40
0.0
 41
0.0
 42
0.0
 10
1114.3756313292353752
 20
847.1256313292353752
 40
0.0
 41
0.0
 42
0.0
 10
1112.199281784705363
 20
849.7775209221570094
 40
0.0
 41
0.0
 42
0.0
 10
1110.5821081810524902
 20
852.8030399336109895
 40
0.0
 41
0.0
 42
0.0
 10
1109.5862575929434115
 20
856.0859193647177108
 40
0.0
 41
0.0
 42
0.0
 10
1109.25
 20
859.5
 40
0.0
 41
0.0
 42
0.0
 10
1109.25
 20
859.5
 40
0.0
 41
0.0
 42
0.0
 10
1109.25
 20
859.5
 40
0.0
 41
0.0
 42
0.0
 10
1109.5862575929434115
 20
862.9140806352822892
 40
0.0
 41
0.0
 42
0.0
 10
1110.5821081810524902
 20
866.1969600663890105
 40
0.0
 41
0.0
 42
0.0
 10
1112.199281784705363
 20
869.2224790778429906
 40
0.0
 41
0.0
 42
0.0
 10
1114.3756313292353752
 20
871.8743686707646248
 40
0.0
 41
0.0
 42
0.0
 10
1117.0275209221570094
 20
874.0507182152945234
 40
0.0
 41
0.0
 42
0.0
 10
1120.0530399336109895
 20
875.6678918189475098
 40
0.0
 41
0.0
 42
0.0
 10
1123.3359193647177108
 20
876.6637424070565885
 40
0.0
 41
0.0
 42
0.0
 10
1126.75
 20
877.0
 40
0.0
 41
0.0
 42
0.0
  0
TEXT
  5
3E
330
1D
100
AcDbEntity
  8
0
  6
ByLayer
420
3098712
 48
1.0
 60
0
 67
0
370
-1
100
AcDbText
 39
0.0
 10
1125.25
 20
856.25
 30
0.0
 40
13.0
  1
WRITING-MODE
 50
0.0
 41
1.0
 51
0.0
  7
Standard
 71
0
 72
0
 11
0.0
 21
0.0
 31
0.0
210
0.0
220
0.0
230
1.0
100
AcDbText
 73
0
  0
HATCH
  5
3F
330
1D
100
AcDbEntity
  8
0
  6
ByLayer
420
16777215
 48
1.0
 60
0
 67
0
370
-1
100
AcDbHatch
 30
0.0
210
0.0
220
0.0
230
1.0
  2
SOLID
 70
1
 71
0
 91
1
 92
2
 72
0
 73
1
 93
41
 10
1152.8333740234375
 20
830.0
 10
1246.5
 20
830.0
 10
1246.5
 20
830.0
 10
1249.9140806352822892
 20
829.6637424070565885
 10
1253.1969600663890105
 20
828.6678918189475098
 10
1256.2224790778429906
 20
827.0507182152945234
 10
1258.8743686707646248
 20
824.8743686707646248
 10
1261.050718215294637
 20
822.2224790778429906
 10
1262.6678918189475098
 20
819.1969600663890105
 10
1263.6637424070565885
 20
815.9140806352822892
 10
1264.0
 20
812.5
 10
1264.0
 20
812.5
 10
1264.0
 20
812.5
 10
1263.6637424070565885
 20
809.0859193647177108
 10
1262.6678918189475098
 20
805.8030399336109895
 10
1261.050718215294637
 20
802.7775209221570094
 10
1258.8743686707646248
 20
800.1256313292353752
 10
1256.2224790778429906
 20
797.9492817847054766
 10
1253.1969600663890105
 20
796.3321081810524902
 10
1249.9140806352822892
 20
795.3362575929434115
 10
1246.5
 20
795.0
 10
1152.8333740234375
 20
795.0
 10
1152.8333740234375
 20
795.0
 10
1149.4192933881552108
 20
795.3362575929434115
 10
1146.1364139570484895
 20
796.3321081810524902
 10
1143.1108949455945094
 20
797.9492817847054766
 10
1140.4590053526728752
 20
800.1256313292353752
 10
1138.282655808142863
 20
802.7775209221570094
 10
1136.6654822044899902
 20
805.8030399336109895
 10
1135.6696316163809115
 20
809.0859193647177108
 10
1135.3333740234375
 20
812.5
 10
1135.3333740234375
 20
812.5
 10
1135.3333740234375
 20
812.5
 10
1135.6696316163809115
 20
815.9140806352822892
 10
1136.6654822044899902
 20
819.1969600663890105
 10
1138.282655808142863
 20
822.2224790778429906
 10
1140.4590053526728752
 20
824.8743686707646248
 10
1143.1108949455945094
 20
827.0507182152945234
 10
1146.1364139570484895
 20
828.6678918189475098
 10
1149.4192933881552108
 20
829.6637424070565885
 10
1152.8333740234375
 20
830.0
 97
0
 75
0
 76
1
 47
0.0
 98
0
  0
LWPOLYLINE
  5
40
330
1D
100
AcDbEntity
  8
0
  6
ByLayer
420
16777215
 48
1.0
 60
0
 67
0
370
-1
100
AcDbPolyline
 90
41
 70
1
 43
0.0
 38
0.0
 39
0.0
210
0.0
220
0.0
230
1.0
 10
1152.8333740234375
 20
830.0
 40
0.0
 41
0.0
 42
0.0
 10
1246.5
 20
830.0
 40
0.0
 41
0.0
 42
0.0
 10
1246.5
 20
830.0
 40
0.0
 41
0.0
 42
0.0
 10
1249.9140806352822892
 20
829.6637424070565885
 40
0.0
 41
0.0
 42
0.0
 10
1253.1969600663890105
 20
828.6678918189475098
 40
0.0
 41
0.0
 42
0.0
 10
1256.2224790778429906
 20
827.0507182152945234
 40
0.0
 41
0.0
 42
0.0
 10
1258.8743686707646248
 20
824.8743686707646248
 40
0.0
 41
0.0
 42
0.0
 10
1261.050718215294637
 20
822.2224790778429906
 40
0.0
 41
0.0
 42
0.0
 10
1262.6678918189475098
 20
819.1969600663890105
 40
0.0
 41
0.0
 42
0.0
 10
1263.6637424070565885
 20
815.9140806352822892
 40
0.0
 41
0.0
 42
0.0
 10
1264.0
 20
812.5
 40
0.0
 41
0.0
 42
0.0
 10
1264.0
 20
812.5
 40
0.0
 41
0.0
 42
0.0
 10
1264.0
 20
812.5
 40
0.0
 41
0.0
 42
0.0
 10
1263.6637424070565885
 20
809.0859193647177108
 40
0.0
 41
0.0
 42
0.0
 10
1262.6678918189475098
 20
805.8030399336109895
 40
0.0
 41
0.0
 42
0.0
 10
1261.050718215294637
 20
802.7775209221570094
 40
0.0
 41
0.0
 42
0.0
 10
1258.8743686707646248
 20
800.1256313292353752
 40
0.0
 41
0.0
 42
0.0
 10
1256.2224790778429906
 20
797.9492817847054766
 40
0.0
 41
0.0
 42
0.0
 10
1253.1969600663890105
 20
796.3321081810524902
 40
0.0
 41
0.0
 42
0.0
 10
1249.9140806352822892
 20
795.3362575929434115
 40
0.0
 41
0.0
 42
0.0
 10
1246.5
 20
795.0
 40
0.0
 41
0.0
 42
0.0
 10
1152.8333740234375
 20
795.0
 40
0.0
 41
0.0
 42
0.0
 10
1152.8333740234375
 20
795.0
 40
0.0
 41
0.0
 42
0.0
 10
1149.4192933881552108
 20
795.3362575929434115
 40
0.0
 41
0.0
 42
0.0
 10
1146.1364139570484895
 20
796.3321081810524902
 40
0.0
 41
0.0
 42
0.0
 10
1143.1108949455945094
 20
797.9492817847054766
 40
0.0
 41
0.0
 42
0.0
 10
1140.4590053526728752
 20
800.1256313292353752
 40
0.0
 41
0.0
 42
0.0
 10
1138.282655808142863
 20
802.7775209221570094
 40
0.0
 41
0.0
 42
0.0
 10
1136.6654822044899902
 20
805.8030399336109895
 40
0.0
 41
0.0
 42
0.0
 10
1135.6696316163809115
 20
809.0859193647177108
 40
0.0
 41
0.0
 42
0.0
 10
1135.3333740234375
 20
812.5
 40
0.0
 41
0.0
 42
0.0
 10
1135.3333740234375
 20
812.5
 40
0.0
 41
0.0
 42
0.0
 10
1135.3333740234375
 20
812.5
 40
0.0
 41
0.0
 42
0.0
 10
1135.6696316163809115
 20
815.9140806352822892
 40
0.0
 41
0.0
 42
0.0
 10
1136.6654822044899902
 20
819.1969600663890105
 40
0.0
 41
0.0
 42
0.0
 10
1138.282655808142863
 20
822.2224790778429906
 40
0.0
 41
0.0
 42
0.0
 10
1140.4590053526728752
 20
824.8743686707646248
 40
0.0
 41
0.0
 42
0.0
 10
1143.1108949455945094
 20
827.0507182152945234
 40
0.0
 41
0.0
 42
0.0
 10
1146.1364139570484895
 20
828.6678918189475098
 40
0.0
 41
0.0
 42
0.0
 10
1149.4192933881552108
 20
829.6637424070565885
 40
0.0
 41
0.0
 42
0.0
 10
1152.8333740234375
 20
830.0
 40
0.0
 41
0.0
 42
0.0
  0
TEXT
  5
41
330
1D
100
AcDbEntity
  8
0
  6
ByLayer
420
3098712
 48
1.0
 60
0
 67
0
370
-1
100
AcDbText
 39
0.0
 10
1151.3333740234375
 20
809.25
 30
0.0
 40
13.0
  1
TRANSFORM
 50
0.0
 41
1.0
 51
0.0
  7
Standard
 71
0
 72
0
 11
0.0
 21
0.0
 31
0.0
210
0.0
220
0.0
230
1.0
100
AcDbText
 73
0
  0
HATCH
  5
42
330
1D
100
AcDbEntity
  8
0
  6
ByLayer
420
16776439
 48
1.0
 60
0
 67
0
370
-1
100
AcDbHatch
 30
0.0
210
0.0
220
0.0
230
1.0
  2
SOLID
 70
1
 71
0
 91
1
 92
2
 72
0
 73
1
 93
41
 10
84.0
 20
693.5
 10
618.0
 20
693.5
 10
618.0
 20
693.5
 10
623.46252901645164
 20
692.9619878512904734
 10
628.7151361062225305
 20
691.3686269103160384
 10
633.5559665245489214
 20
688.7811491444713283
 10
637.7989898732233769
 20
685.2989898732232632
 10
641.2811491444712146
 20
681.0559665245489214
 10
643.8686269103160384
 20
676.2151361062225305
 10
645.4619878512904734
 20
670.9625290164515263
 10
646.0
 20
665.5
 10
646.0
 20
108.0
 10
646.0
 20
108.0
 10
645.4619878512904734
 20
102.53747098354836
 10
643.8686269103160384
 20
97.2848638937774695
 10
641.2811491444712146
 20
92.4440334754511923
 10
637.7989898732233769
 20
88.2010101267766231
 10
633.5559665245489214
 20
84.7188508555287854
 10
628.7151361062225305
 20
82.1313730896839616
 10
623.46252901645164
 20
80.5380121487095266
 10
618.0
 20
80.0
 10
84.0
 20
80.0
 10
84.0
 20
80.0
 10
78.5374709835484168
 20
80.5380121487095266
 10
73.2848638937774837
 20
82.1313730896839616
 10
68.4440334754511497
 20
84.7188508555286717
 10
64.20101012677668
 20
88.2010101267766231
 10
60.7188508555287285
 20
92.4440334754511923
 10
58.1313730896839758
 20
97.2848638937774695
 10
56.5380121487095479
 20
102.53747098354836
 10
56.0
 20
108.0
 10
56.0
 20
665.5
 10
56.0
 20
665.5
 10
56.5380121487095479
 20
670.9625290164515263
 10
58.1313730896839687
 20
676.2151361062225305
 10
60.7188508555287285
 20
681.0559665245489214
 10
64.2010101267766657
 20
685.2989898732232632
 10
68.4440334754511355
 20
688.7811491444713283
 10
73.2848638937774695
 20
691.3686269103160384
 10
78.5374709835484026
 20
692.9619878512904734
 10
84.0
 20
693.5
 97
0
 75
0
 76
1
 47
0.0
 98
0
  0
LWPOLYLINE
  5
43
330
1D
100
AcDbEntity
  8
0
  6
ByLayer
420
16776439
 48
1.0
 60
0
 67
0
370
-1
100
AcDbPolyline
 90
41
 70
1
 43
0.0
 38
0.0
 39
0.0
210
0.0
220
0.0
230
1.0
 10
84.0
 20
693.5
 40
0.0
 41
0.0
 42
0.0
 10
618.0
 20
693.5
 40
0.0
 41
0.0
 42
0.0
 10
618.0
 20
693.5
 40
0.0
 41
0.0
 42
0.0
 10
623.46252901645164
 20
692.9619878512904734
 40
0.0
 41
0.0
 42
0.0
 10
628.7151361062225305
 20
691.3686269103160384
 40
0.0
 41
0.0
 42
0.0
 10
633.5559665245489214
 20
688.7811491444713283
 40
0.0
 41
0.0
 42
0.0
 10
637.7989898732233769
 20
685.2989898732232632
 40
0.0
 41
0.0
 42
0.0
 10
641.2811491444712146
 20
681.0559665245489214
 40
0.0
 41
0.0
 42
0.0
 10
643.8686269103160384
 20
676.2151361062225305
 40
0.0
 41
0.0
 42
0.0
 10
645.4619878512904734
 20
670.9625290164515263
 40
0.0
 41
0.0
 42
0.0
 10
646.0
 20
665.5
 40
0.0
 41
0.0
 42
0.0
 10
646.0
 20
108.0
 40
0.0
 41
0.0
 42
0.0
 10
646.0
 20
108.0
 40
0.0
 41
0.0
 42
0.0
 10
645.4619878512904734
 20
102.53747098354836
 40
0.0
 41
0.0
 42
0.0
 10
643.8686269103160384
 20
97.2848638937774695
 40
0.0
 41
0.0
 42
0.0
 10
641.2811491444712146
 20
92.4440334754511923
 40
0.0
 41
0.0
 42
0.0
 10
637.7989898732233769
 20
88.2010101267766231
 40
0.0
 41
0.0
 42
0.0
 10
633.5559665245489214
 20
84.7188508555287854
 40
0.0
 41
0.0
 42
0.0
 10
628.7151361062225305
 20
82.1313730896839616
 40
0.0
 41
0.0
 42
0.0
 10
623.46252901645164
 20
80.5380121487095266
 40
0.0
 41
0.0
 42
0.0
 10
618.0
 20
80.0
 40
0.0
 41
0.0
 42
0.0
 10
84.0
 20
80.0
 40
0.0
 41
0.0
 42
0.0
 10
84.0
 20
80.0
 40
0.0
 41
0.0
 42
0.0
 10
78.5374709835484168
 20
80.5380121487095266
 40
0.0
 41
0.0
 42
0.0
 10
73.2848638937774837
 20
82.1313730896839616
 40
0.0
 41
0.0
 42
0.0
 10
68.4440334754511497
 20
84.7188508555286717
 40
0.0
 41
0.0
 42
0.0
 10
64.20101012677668
 20
88.2010101267766231
 40
0.0
 41
0.0
 42
0.0
 10
60.7188508555287285
 20
92.4440334754511923
 40
0.0
 41
0.0
 42
0.0
 10
58.1313730896839758
 20
97.2848638937774695
 40
0.0
 41
0.0
 42
0.0
 10
56.5380121487095479
 20
102.53747098354836
 40
0.0
 41
0.0
 42
0.0
 10
56.0
 20
108.0
 40
0.0
 41
0.0
 42
0.0
 10
56.0
 20
665.5
 40
0.0
 41
0.0
 42
0.0
 10
56.0
 20
665.5
 40
0.0
 41
0.0
 42
0.0
 10
56.5380121487095479
 20
670.9625290164515263
 40
0.0
 41
0.0
 42
0.0
 10
58.1313730896839687
 20
676.2151361062225305
 40
0.0
 41
0.0
 42
0.0
 10
60.7188508555287285
 20
681.0559665245489214
 40
0.0
 41
0.0
 42
0.0
 10
64.2010101267766657
 20
685.2989898732232632
 40
0.0
 41
0.0
 42
0.0
 10
68.4440334754511355
 20
688.7811491444713283
 40
0.0
 41
0.0
 42
0.0
 10
73.2848638937774695
 20
691.3686269103160384
 40
0.0
 41
0.0
 42
0.0
 10
78.5374709835484026
 20
692.9619878512904734
 40
0.0
 41
0.0
 42
0.0
 10
84.0
 20
693.5
 40
0.0
 41
0.0
 42
0.0
  0
TEXT
  5
44
330
1D
100
AcDbEntity
  8
0
  6
ByLayer
420
1193307
 48
1.0
 60
0
 67
0
370
-1
100
AcDbText
 39
0.0
 10
84.0
 20
655.75
 30
0.0
 40
13.0
  1
DISPLAY AND EDITORIAL COPY
 50
0.0
 41
1.0
 51
0.0
  7
Standard
 71
0
 72
0
 11
0.0
 21
0.0
 31
0.0
210
0.0
220
0.0
230
1.0
100
AcDbText
 73
0
  0
TEXT
  5
45
330
1D
100
AcDbEntity
  8
0
  6
ByLayer
420
5716004
 48
1.0
 60
0
 67
0
370
-1
100
AcDbText
 39
0.0
 10
84.0
 20
528.75
 30
0.0
 40
30.0
  1
A serif note can keep its
 50
0.0
 41
1.0
 51
0.0
  7
Standard
 71
0
 72
0
 11
0.0
 21
0.0
 31
0.0
210
0.0
220
0.0
230
1.0
100
AcDbText
 73
0
  0
TEXT
  5
46
330
1D
100
AcDbEntity
  8
0
  6
ByLayer
420
5716004
 48
1.0
 60
0
 67
0
370
-1
100
AcDbText
 39
0.0
 10
84.0
 20
488.25
 30
0.0
 40
30.0
  1
rhythm, ornament, and
 50
0.0
 41
1.0
 51
0.0
  7
Standard
 71
0
 72
0
 11
0.0
 21
0.0
 31
0.0
210
0.0
220
0.0
230
1.0
100
AcDbText
 73
0
  0
TEXT
  5
47
330
1D
100
AcDbEntity
  8
0
  6
ByLayer
420
5716004
 48
1.0
 60
0
 67
0
370
-1
100
AcDbText
 39
0.0
 10
84.0
 20
447.75
 30
0.0
 40
30.0
  1
spacing even after the line
 50
0.0
 41
1.0
 51
0.0
  7
Standard
 71
0
 72
0
 11
0.0
 21
0.0
 31
0.0
210
0.0
220
0.0
230
1.0
100
AcDbText
 73
0
  0
TEXT
  5
48
330
1D
100
AcDbEntity
  8
0
  6
ByLayer
420
5716004
 48
1.0
 60
0
 67
0
370
-1
100
AcDbText
 39
0.0
 10
84.0
 20
407.25
 30
0.0
 40
30.0
  1
is extracted into vector-
 50
0.0
 41
1.0
 51
0.0
  7
Standard
 71
0
 72
0
 11
0.0
 21
0.0
 31
0.0
210
0.0
220
0.0
230
1.0
100
AcDbText
 73
0
  0
TEXT
  5
49
330
1D
100
AcDbEntity
  8
0
  6
ByLayer
420
5716004
 48
1.0
 60
0
 67
0
370
-1
100
AcDbText
 39
0.0
 10
84.0
 20
366.75
 30
0.0
 40
30.0
  1
safe text output.
 50
0.0
 41
1.0
 51
0.0
  7
Standard
 71
0
 72
0
 11
0.0
 21
0.0
 31
0.0
210
0.0
220
0.0
230
1.0
100
AcDbText
 73
0
  0
HATCH
  5
4A
330
1D
100
AcDbEntity
  8
0
  6
ByLayer
420
1319229
 48
1.0
 60
0
 67
0
370
-1
100
AcDbHatch
 30
0.0
210
0.0
220
0.0
230
1.0
  2
SOLID
 70
1
 71
0
 91
1
 92
2
 72
0
 73
1
 93
41
 10
104.0
 20
328.0
 10
392.0
 20
328.0
 10
392.0
 20
328.0
 10
395.9018064403225594
 20
327.6157056080645589
 10
399.6536686473017994
 20
326.477590650225693
 10
403.1114046603920542
 20
324.6293922460508838
 10
406.142135623730951
 20
322.142135623730951
 10
408.6293922460508838
 20
319.1114046603920542
 10
410.4775906502257499
 20
315.6536686473017426
 10
411.6157056080646157
 20
311.9018064403226163
 10
412.0
 20
308.0
 10
412.0
 20
139.20001220703125
 10
412.0
 20
139.20001220703125
 10
411.6157056080646157
 20
135.2982057667086337
 10
410.4775906502257499
 20
131.5463435597295074
 10
408.6293922460508838
 20
128.0886075466391958
 10
406.142135623730951
 20
125.057876583300299
 10
403.1114046603920542
 20
122.5706199609803662
 10
399.6536686473017994
 20
120.722421556805557
 10
395.9018064403225594
 20
119.5843065989666911
 10
392.0
 20
119.20001220703125
 10
104.0
 20
119.20001220703125
 10
104.0
 20
119.20001220703125
 10
100.0981935596774406
 20
119.5843065989666911
 10
96.3463313526982006
 20
120.722421556805557
 10
92.88859533960796
 20
122.5706199609803662
 10
89.857864376269049
 20
125.057876583300299
 10
87.3706077539490877
 20
128.0886075466391958
 10
85.5224093497742643
 20
131.5463435597295074
 10
84.3842943919353843
 20
135.2982057667086337
 10
84.0
 20
139.20001220703125
 10
84.0
 20
308.0
 10
84.0
 20
308.0
 10
84.3842943919353843
 20
311.9018064403226163
 10
85.5224093497742643
 20
315.6536686473017426
 10
87.3706077539490877
 20
319.1114046603920542
 10
89.857864376269049
 20
322.142135623730951
 10
92.88859533960796
 20
324.6293922460508838
 10
96.3463313526982006
 20
326.477590650225693
 10
100.0981935596774264
 20
327.6157056080645589
 10
104.0
 20
328.0
 97
0
 75
0
 76
1
 47
0.0
 98
0
  0
LWPOLYLINE
  5
4B
330
1D
100
AcDbEntity
  8
0
  6
ByLayer
420
1319229
 48
1.0
 60
0
 67
0
370
-1
100
AcDbPolyline
 90
41
 70
1
 43
0.0
 38
0.0
 39
0.0
210
0.0
220
0.0
230
1.0
 10
104.0
 20
328.0
 40
0.0
 41
0.0
 42
0.0
 10
392.0
 20
328.0
 40
0.0
 41
0.0
 42
0.0
 10
392.0
 20
328.0
 40
0.0
 41
0.0
 42
0.0
 10
395.9018064403225594
 20
327.6157056080645589
 40
0.0
 41
0.0
 42
0.0
 10
399.6536686473017994
 20
326.477590650225693
 40
0.0
 41
0.0
 42
0.0
 10
403.1114046603920542
 20
324.6293922460508838
 40
0.0
 41
0.0
 42
0.0
 10
406.142135623730951
 20
322.142135623730951
 40
0.0
 41
0.0
 42
0.0
 10
408.6293922460508838
 20
319.1114046603920542
 40
0.0
 41
0.0
 42
0.0
 10
410.4775906502257499
 20
315.6536686473017426
 40
0.0
 41
0.0
 42
0.0
 10
411.6157056080646157
 20
311.9018064403226163
 40
0.0
 41
0.0
 42
0.0
 10
412.0
 20
308.0
 40
0.0
 41
0.0
 42
0.0
 10
412.0
 20
139.20001220703125
 40
0.0
 41
0.0
 42
0.0
 10
412.0
 20
139.20001220703125
 40
0.0
 41
0.0
 42
0.0
 10
411.6157056080646157
 20
135.2982057667086337
 40
0.0
 41
0.0
 42
0.0
 10
410.4775906502257499
 20
131.5463435597295074
 40
0.0
 41
0.0
 42
0.0
 10
408.6293922460508838
 20
128.0886075466391958
 40
0.0
 41
0.0
 42
0.0
 10
406.142135623730951
 20
125.057876583300299
 40
0.0
 41
0.0
 42
0.0
 10
403.1114046603920542
 20
122.5706199609803662
 40
0.0
 41
0.0
 42
0.0
 10
399.6536686473017994
 20
120.722421556805557
 40
0.0
 41
0.0
 42
0.0
 10
395.9018064403225594
 20
119.5843065989666911
 40
0.0
 41
0.0
 42
0.0
 10
392.0
 20
119.20001220703125
 40
0.0
 41
0.0
 42
0.0
 10
104.0
 20
119.20001220703125
 40
0.0
 41
0.0
 42
0.0
 10
104.0
 20
119.20001220703125
 40
0.0
 41
0.0
 42
0.0
 10
100.0981935596774406
 20
119.5843065989666911
 40
0.0
 41
0.0
 42
0.0
 10
96.3463313526982006
 20
120.722421556805557
 40
0.0
 41
0.0
 42
0.0
 10
92.88859533960796
 20
122.5706199609803662
 40
0.0
 41
0.0
 42
0.0
 10
89.857864376269049
 20
125.057876583300299
 40
0.0
 41
0.0
 42
0.0
 10
87.3706077539490877
 20
128.0886075466391958
 40
0.0
 41
0.0
 42
0.0
 10
85.5224093497742643
 20
131.5463435597295074
 40
0.0
 41
0.0
 42
0.0
 10
84.3842943919353843
 20
135.2982057667086337
 40
0.0
 41
0.0
 42
0.0
 10
84.0
 20
139.20001220703125
 40
0.0
 41
0.0
 42
0.0
 10
84.0
 20
308.0
 40
0.0
 41
0.0
 42
0.0
 10
84.0
 20
308.0
 40
0.0
 41
0.0
 42
0.0
 10
84.3842943919353843
 20
311.9018064403226163
 40
0.0
 41
0.0
 42
0.0
 10
85.5224093497742643
 20
315.6536686473017426
 40
0.0
 41
0.0
 42
0.0
 10
87.3706077539490877
 20
319.1114046603920542
 40
0.0
 41
0.0
 42
0.0
 10
89.857864376269049
 20
322.142135623730951
 40
0.0
 41
0.0
 42
0.0
 10
92.88859533960796
 20
324.6293922460508838
 40
0.0
 41
0.0
 42
0.0
 10
96.3463313526982006
 20
326.477590650225693
 40
0.0
 41
0.0
 42
0.0
 10
100.0981935596774264
 20
327.6157056080645589
 40
0.0
 41
0.0
 42
0.0
 10
104.0
 20
328.0
 40
0.0
 41
0.0
 42
0.0
  0
TEXT
  5
4C
330
1D
100
AcDbEntity
  8
0
  6
ByLayer
420
15068404
 48
1.0
 60
0
 67
0
370
-1
100
AcDbText
 39
0.0
 10
104.0
 20
291.0999755859375
 30
0.0
 40
18.0
  1
font-family: "Monaspace 
 50
0.0
 41
1.0
 51
0.0
  7
Standard
 71
0
 72
0
 11
0.0
 21
0.0
 31
0.0
210
0.0
220
0.0
230
1.0
100
AcDbText
 73
0
  0
TEXT
  5
4D
330
1D
100
AcDbEntity
  8
0
  6
ByLayer
420
15068404
 48
1.0
 60
0
 67
0
370
-1
100
AcDbText
 39
0.0
 10
104.0
 20
262.29998779296875
 30
0.0
 40
18.0
  1
Neon", "Cascadia Code", 
 50
0.0
 41
1.0
 51
0.0
  7
Standard
 71
0
 72
0
 11
0.0
 21
0.0
 31
0.0
210
0.0
220
0.0
230
1.0
100
AcDbText
 73
0
  0
TEXT
  5
4E
330
1D
100
AcDbEntity
  8
0
  6
ByLayer
420
15068404
 48
1.0
 60
0
 67
0
370
-1
100
AcDbText
 39
0.0
 10
104.0
 20
233.5
 30
0.0
 40
18.0
  1
Consolas, monospace;
 50
0.0
 41
1.0
 51
0.0
  7
Standard
 71
0
 72
0
 11
0.0
 21
0.0
 31
0.0
210
0.0
220
0.0
230
1.0
100
AcDbText
 73
0
  0
TEXT
  5
4F
330
1D
100
AcDbEntity
  8
0
  6
ByLayer
420
15068404
 48
1.0
 60
0
 67
0
370
-1
100
AcDbText
 39
0.0
 10
104.0
 20
204.70001220703125
 30
0.0
 40
18.0
  1
font-style: normal;
 50
0.0
 41
1.0
 51
0.0
  7
Standard
 71
0
 72
0
 11
0.0
 21
0.0
 31
0.0
210
0.0
220
0.0
230
1.0
100
AcDbText
 73
0
  0
TEXT
  5
50
330
1D
100
AcDbEntity
  8
0
  6
ByLayer
420
15068404
 48
1.0
 60
0
 67
0
370
-1
100
AcDbText
 39
0.0
 10
104.0
 20
175.9000244140625
 30
0.0
 40
18.0
  1
font-weight: 600;
 50
0.0
 41
1.0
 51
0.0
  7
Standard
 71
0
 72
0
 11
0.0
 21
0.0
 31
0.0
210
0.0
220
0.0
230
1.0
100
AcDbText
 73
0
  0
TEXT
  5
51
330
1D
100
AcDbEntity
  8
0
  6
ByLayer
420
15068404
 48
1.0
 60
0
 67
0
370
-1
100
AcDbText
 39
0.0
 10
104.0
 20
147.0999755859375
 30
0.0
 40
18.0
  1
letter-spacing: 0.04em;
 50
0.0
 41
1.0
 51
0.0
  7
Standard
 71
0
 72
0
 11
0.0
 21
0.0
 31
0.0
210
0.0
220
0.0
230
1.0
100
AcDbText
 73
0
  0
HATCH
  5
52
330
1D
100
AcDbEntity
  8
0
  6
ByLayer
420
4231532
 48
1.0
 60
0
 67
0
370
-1
100
AcDbHatch
 30
0.0
210
0.0
220
0.0
230
1.0
  2
SOLID
 70
1
 71
0
 91
1
 92
2
 72
0
 73
1
 93
20
 10
436.1184863063577382
 20
310.0986060257689587
 10
438.0604856771680033
 20
317.8128713450325904
 10
442.0049700959566508
 20
323.0542733285922168
 10
447.9519395627236236
 20
325.8228119764479516
 10
455.9013940774689218
 20
326.1184872885997947
 10
599.1125219381560782
 20
311.0663881996814553
 10
606.8267875498975172
 20
309.1243892326085643
 10
612.0681903076529125
 20
305.1799050427903239
 10
614.8367302114222639
 20
299.2329356302265069
 10
615.1324072612056852
 20
291.2834809949172268
 10
595.8992089497318148
 20
108.2914701769577732
 10
593.9572117356634635
 20
100.5772045909175176
 10
590.0127288478780656
 20
95.3358023261607741
 10
584.06576028637528
 20
92.5672633826875426
 10
576.116306051155334
 20
92.2715877604978232
 10
432.905117288688416
 20
107.3236881184084268
 10
425.1908519564722724
 20
109.2656867754434415
 10
419.9494501039811212
 20
113.2101706696441852
 10
417.1809117312148487
 20
119.1571398010109988
 10
416.8852368381735118
 20
127.1065941695435413
 97
0
 75
0
 76
1
 47
0.0
 98
0
  0
LWPOLYLINE
  5
53
330
1D
100
AcDbEntity
  8
0
  6
ByLayer
420
4231532
 48
1.0
 60
0
 67
0
370
-1
100
AcDbPolyline
 90
20
 70
1
 43
0.0
 38
0.0
 39
0.0
210
0.0
220
0.0
230
1.0
 10
436.1184863063577382
 20
310.0986060257689587
 40
0.0
 41
0.0
 42
0.0
 10
438.0604856771680033
 20
317.8128713450325904
 40
0.0
 41
0.0
 42
0.0
 10
442.0049700959566508
 20
323.0542733285922168
 40
0.0
 41
0.0
 42
0.0
 10
447.9519395627236236
 20
325.8228119764479516
 40
0.0
 41
0.0
 42
0.0
 10
455.9013940774689218
 20
326.1184872885997947
 40
0.0
 41
0.0
 42
0.0
 10
599.1125219381560782
 20
311.0663881996814553
 40
0.0
 41
0.0
 42
0.0
 10
606.8267875498975172
 20
309.1243892326085643
 40
0.0
 41
0.0
 42
0.0
 10
612.0681903076529125
 20
305.1799050427903239
 40
0.0
 41
0.0
 42
0.0
 10
614.8367302114222639
 20
299.2329356302265069
 40
0.0
 41
0.0
 42
0.0
 10
615.1324072612056852
 20
291.2834809949172268
 40
0.0
 41
0.0
 42
0.0
 10
595.8992089497318148
 20
108.2914701769577732
 40
0.0
 41
0.0
 42
0.0
 10
593.9572117356634635
 20
100.5772045909175176
 40
0.0
 41
0.0
 42
0.0
 10
590.0127288478780656
 20
95.3358023261607741
 40
0.0
 41
0.0
 42
0.0
 10
584.06576028637528
 20
92.5672633826875426
 40
0.0
 41
0.0
 42
0.0
 10
576.116306051155334
 20
92.2715877604978232
 40
0.0
 41
0.0
 42
0.0
 10
432.905117288688416
 20
107.3236881184084268
 40
0.0
 41
0.0
 42
0.0
 10
425.1908519564722724
 20
109.2656867754434415
 40
0.0
 41
0.0
 42
0.0
 10
419.9494501039811212
 20
113.2101706696441852
 40
0.0
 41
0.0
 42
0.0
 10
417.1809117312148487
 20
119.1571398010109988
 40
0.0
 41
0.0
 42
0.0
 10
416.8852368381735118
 20
127.1065941695435413
 40
0.0
 41
0.0
 42
0.0
  0
TEXT
  5
54
330
1D
100
AcDbEntity
  8
0
  6
ByLayer
420
3098712
 48
1.0
 60
0
 67
0
370
-1
100
AcDbText
 39
0.0
 10
592.4184887093645102
 20
285.6434973450637926
 30
0.0
 40
24.0
  1
RTL SIGNAL
 50
-96.0000004396183613
 41
1.0
 51
0.0
  7
Standard
 71
0
 72
0
 11
0.0
 21
0.0
 31
0.0
210
0.0
220
0.0
230
1.0
100
AcDbText
 73
0
  0
HATCH
  5
55
330
1D
100
AcDbEntity
  8
0
  6
ByLayer
420
1193307
 48
1.0
 60
0
 67
0
370
-1
100
AcDbHatch
 30
0.0
210
0.0
220
0.0
230
1.0
  2
SOLID
 70
1
 71
0
 91
1
 92
2
 72
0
 73
1
 93
20
 10
78.0062937358620445
 20
619.6650586378228809
 10
81.6188082944412514
 20
626.0161723776728877
 10
86.4626457060409166
 20
630.2345722350457891
 10
92.5378059706610259
 20
632.3202582099415849
 10
99.8442890883015934
 20
632.2732303023601617
 10
373.8844706773234066
 20
593.7593929886554633
 10
380.4417406297974367
 20
591.8579973631872235
 10
384.2692613989180472
 20
588.3805801844221151
 10
385.3670329846851246
 20
583.3271414523603653
 10
383.7350553870986687
 20
576.6976811670019742
 10
374.8744416832138313
 20
554.7668879247949008
 10
371.2619279491110547
 20
548.4157738482356308
 10
366.418091125329056
 20
544.1973737425715854
 10
360.3429312118678922
 20
542.1116876078026507
 10
353.0364482087275064
 20
542.1587154439289407
 10
78.9962590056279481
 20
580.6725528666179343
 10
72.4389891676540856
 20
582.5739484206311545
 10
68.6114687496924489
 20
586.0513654395230105
 10
67.5136977517430665
 20
591.1048039232935025
 10
69.1456761738059242
 20
597.7342638719427441
 97
0
 75
0
 76
1
 47
0.0
 98
0
  0
LWPOLYLINE
  5
56
330
1D
100
AcDbEntity
  8
0
  6
ByLayer
420
1193307
 48
1.0
 60
0
 67
0
370
-1
100
AcDbPolyline
 90
20
 70
1
 43
0.0
 38
0.0
 39
0.0
210
0.0
220
0.0
230
1.0
 10
78.0062937358620445
 20
619.6650586378228809
 40
0.0
 41
0.0
 42
0.0
 10
81.6188082944412514
 20
626.0161723776728877
 40
0.0
 41
0.0
 42
0.0
 10
86.4626457060409166
 20
630.2345722350457891
 40
0.0
 41
0.0
 42
0.0
 10
92.5378059706610259
 20
632.3202582099415849
 40
0.0
 41
0.0
 42
0.0
 10
99.8442890883015934
 20
632.2732303023601617
 40
0.0
 41
0.0
 42
0.0
 10
373.8844706773234066
 20
593.7593929886554633
 40
0.0
 41
0.0
 42
0.0
 10
380.4417406297974367
 20
591.8579973631872235
 40
0.0
 41
0.0
 42
0.0
 10
384.2692613989180472
 20
588.3805801844221151
 40
0.0
 41
0.0
 42
0.0
 10
385.3670329846851246
 20
583.3271414523603653
 40
0.0
 41
0.0
 42
0.0
 10
383.7350553870986687
 20
576.6976811670019742
 40
0.0
 41
0.0
 42
0.0
 10
374.8744416832138313
 20
554.7668879247949008
 40
0.0
 41
0.0
 42
0.0
 10
371.2619279491110547
 20
548.4157738482356308
 40
0.0
 41
0.0
 42
0.0
 10
366.418091125329056
 20
544.1973737425715854
 40
0.0
 41
0.0
 42
0.0
 10
360.3429312118678922
 20
542.1116876078026507
 40
0.0
 41
0.0
 42
0.0
 10
353.0364482087275064
 20
542.1587154439289407
 40
0.0
 41
0.0
 42
0.0
 10
78.9962590056279481
 20
580.6725528666179343
 40
0.0
 41
0.0
 42
0.0
 10
72.4389891676540856
 20
582.5739484206311545
 40
0.0
 41
0.0
 42
0.0
 10
68.6114687496924489
 20
586.0513654395230105
 40
0.0
 41
0.0
 42
0.0
 10
67.5136977517430665
 20
591.1048039232935025
 40
0.0
 41
0.0
 42
0.0
 10
69.1456761738059242
 20
597.7342638719427441
 40
0.0
 41
0.0
 42
0.0
  0
TEXT
  5
57
330
1D
100
AcDbEntity
  8
0
  6
ByLayer
420
16775923
 48
1.0
 60
0
 67
0
370
-1
100
AcDbText
 39
0.0
 10
89.3404707864910677
 20
601.0950381086095149
 30
0.0
 40
22.0
  1
VARIABLE CADENCE
 50
-8.0000022782051818
 41
1.0
 51
0.0
  7
Standard
 71
0
 72
0
 11
0.0
 21
0.0
 31
0.0
210
0.0
220
0.0
230
1.0
100
AcDbText
 73
0
  0
HATCH
  5
58
330
1D
100
AcDbEntity
  8
0
  6
ByLayer
420
16776439
 48
1.0
 60
0
 67
0
370
-1
100
AcDbHatch
 30
0.0
210
0.0
220
0.0
230
1.0
  2
SOLID
 70
1
 71
0
 91
1
 92
2
 72
0
 73
1
 93
41
 10
702.0
 20
693.5
 10
1236.0
 20
693.5
 10
1236.0
 20
693.5
 10
1241.4625290164515263
 20
692.9619878512904734
 10
1246.7151361062224169
 20
691.3686269103160384
 10
1251.5559665245489214
 20
688.7811491444713283
 10
1255.7989898732232632
 20
685.2989898732232632
 10
1259.2811491444713283
 20
681.0559665245489214
 10
1261.8686269103159248
 20
676.2151361062225305
 10
1263.4619878512903597
 20
670.9625290164515263
 10
1264.0
 20
665.5
 10
1264.0
 20
108.0
 10
1264.0
 20
108.0
 10
1263.4619878512903597
 20
102.53747098354836
 10
1261.8686269103159248
 20
97.2848638937774695
 10
1259.2811491444713283
 20
92.4440334754511923
 10
1255.7989898732232632
 20
88.2010101267766231
 10
1251.5559665245489214
 20
84.7188508555287854
 10
1246.7151361062224169
 20
82.1313730896839616
 10
1241.4625290164515263
 20
80.5380121487095266
 10
1236.0
 20
80.0
 10
702.0
 20
80.0
 10
702.0
 20
80.0
 10
696.53747098354836
 20
80.5380121487095266
 10
691.2848638937774695
 20
82.1313730896839616
 10
686.4440334754511923
 20
84.7188508555286717
 10
682.2010101267766231
 20
88.2010101267766231
 10
678.7188508555286717
 20
92.4440334754511923
 10
676.1313730896839616
 20
97.2848638937774695
 10
674.5380121487095266
 20
102.53747098354836
 10
674.0
 20
108.0
 10
674.0
 20
665.5
 10
674.0
 20
665.5
 10
674.5380121487095266
 20
670.9625290164515263
 10
676.1313730896839616
 20
676.2151361062225305
 10
678.7188508555286717
 20
681.0559665245489214
 10
682.2010101267766231
 20
685.2989898732232632
 10
686.4440334754511923
 20
688.7811491444713283
 10
691.2848638937774695
 20
691.3686269103160384
 10
696.53747098354836
 20
692.9619878512904734
 10
702.0
 20
693.5
 97
0
 75
0
 76
1
 47
0.0
 98
0
  0
LWPOLYLINE
  5
59
330
1D
100
AcDbEntity
  8
0
  6
ByLayer
420
16776439
 48
1.0
 60
0
 67
0
370
-1
100
AcDbPolyline
 90
41
 70
1
 43
0.0
 38
0.0
 39
0.0
210
0.0
220
0.0
230
1.0
 10
702.0
 20
693.5
 40
0.0
 41
0.0
 42
0.0
 10
1236.0
 20
693.5
 40
0.0
 41
0.0
 42
0.0
 10
1236.0
 20
693.5
 40
0.0
 41
0.0
 42
0.0
 10
1241.4625290164515263
 20
692.9619878512904734
 40
0.0
 41
0.0
 42
0.0
 10
1246.7151361062224169
 20
691.3686269103160384
 40
0.0
 41
0.0
 42
0.0
 10
1251.5559665245489214
 20
688.7811491444713283
 40
0.0
 41
0.0
 42
0.0
 10
1255.7989898732232632
 20
685.2989898732232632
 40
0.0
 41
0.0
 42
0.0
 10
1259.2811491444713283
 20
681.0559665245489214
 40
0.0
 41
0.0
 42
0.0
 10
1261.8686269103159248
 20
676.2151361062225305
 40
0.0
 41
0.0
 42
0.0
 10
1263.4619878512903597
 20
670.9625290164515263
 40
0.0
 41
0.0
 42
0.0
 10
1264.0
 20
665.5
 40
0.0
 41
0.0
 42
0.0
 10
1264.0
 20
108.0
 40
0.0
 41
0.0
 42
0.0
 10
1264.0
 20
108.0
 40
0.0
 41
0.0
 42
0.0
 10
1263.4619878512903597
 20
102.53747098354836
 40
0.0
 41
0.0
 42
0.0
 10
1261.8686269103159248
 20
97.2848638937774695
 40
0.0
 41
0.0
 42
0.0
 10
1259.2811491444713283
 20
92.4440334754511923
 40
0.0
 41
0.0
 42
0.0
 10
1255.7989898732232632
 20
88.2010101267766231
 40
0.0
 41
0.0
 42
0.0
 10
1251.5559665245489214
 20
84.7188508555287854
 40
0.0
 41
0.0
 42
0.0
 10
1246.7151361062224169
 20
82.1313730896839616
 40
0.0
 41
0.0
 42
0.0
 10
1241.4625290164515263
 20
80.5380121487095266
 40
0.0
 41
0.0
 42
0.0
 10
1236.0
 20
80.0
 40
0.0
 41
0.0
 42
0.0
 10
702.0
 20
80.0
 40
0.0
 41
0.0
 42
0.0
 10
702.0
 20
80.0
 40
0.0
 41
0.0
 42
0.0
 10
696.53747098354836
 20
80.5380121487095266
 40
0.0
 41
0.0
 42
0.0
 10
691.2848638937774695
 20
82.1313730896839616
 40
0.0
 41
0.0
 42
0.0
 10
686.4440334754511923
 20
84.7188508555286717
 40
0.0
 41
0.0
 42
0.0
 10
682.2010101267766231
 20
88.2010101267766231
 40
0.0
 41
0.0
 42
0.0
 10
678.7188508555286717
 20
92.4440334754511923
 40
0.0
 41
0.0
 42
0.0
 10
676.1313730896839616
 20
97.2848638937774695
 40
0.0
 41
0.0
 42
0.0
 10
674.5380121487095266
 20
102.53747098354836
 40
0.0
 41
0.0
 42
0.0
 10
674.0
 20
108.0
 40
0.0
 41
0.0
 42
0.0
 10
674.0
 20
665.5
 40
0.0
 41
0.0
 42
0.0
 10
674.0
 20
665.5
 40
0.0
 41
0.0
 42
0.0
 10
674.5380121487095266
 20
670.9625290164515263
 40
0.0
 41
0.0
 42
0.0
 10
676.1313730896839616
 20
676.2151361062225305
 40
0.0
 41
0.0
 42
0.0
 10
678.7188508555286717
 20
681.0559665245489214
 40
0.0
 41
0.0
 42
0.0
 10
682.2010101267766231
 20
685.2989898732232632
 40
0.0
 41
0.0
 42
0.0
 10
686.4440334754511923
 20
688.7811491444713283
 40
0.0
 41
0.0
 42
0.0
 10
691.2848638937774695
 20
691.3686269103160384
 40
0.0
 41
0.0
 42
0.0
 10
696.53747098354836
 20
692.9619878512904734
 40
0.0
 41
0.0
 42
0.0
 10
702.0
 20
693.5
 40
0.0
 41
0.0
 42
0.0
  0
TEXT
  5
5A
330
1D
100
AcDbEntity
  8
0
  6
ByLayer
420
1193307
 48
1.0
 60
0
 67
0
370
-1
100
AcDbText
 39
0.0
 10
702.0
 20
655.75
 30
0.0
 40
13.0
  1
MIXED TEXT ROLES
 50
0.0
 41
1.0
 51
0.0
  7
Standard
 71
0
 72
0
 11
0.0
 21
0.0
 31
0.0
210
0.0
220
0.0
230
1.0
100
AcDbText
 73
0
  0
HATCH
  5
5B
330
1D
100
AcDbEntity
  8
0
  6
ByLayer
420
16777215
 48
1.0
 60
0
 67
0
370
-1
100
AcDbHatch
 30
0.0
210
0.0
220
0.0
230
1.0
  2
SOLID
 70
1
 71
0
 91
1
 92
2
 72
0
 73
1
 93
41
 10
724.0
 20
634.5
 10
1214.0
 20
634.5
 10
1214.0
 20
634.5
 10
1218.2919870843547869
 20
634.0772761688710943
 10
1222.4190355120319964
 20
632.8253497152483078
 10
1226.2225451264312142
 20
630.792331470655995
 10
1229.5563491861039438
 20
628.0563491861040575
 10
1232.2923314706558813
 20
624.7225451264312142
 10
1234.3253497152481941
 20
620.9190355120319964
 10
1235.5772761688710943
 20
616.7919870843547869
 10
1236.0
 20
612.5
 10
1236.0
 20
502.399993896484375
 10
1236.0
 20
502.399993896484375
 10
1235.5772761688710943
 20
498.1080068121295312
 10
1234.3253497152481941
 20
493.9809583844523786
 10
1232.2923314706558813
 20
490.177448770053104
 10
1229.5563491861039438
 20
486.8436447103803175
 10
1226.2225451264312142
 20
484.10766242582838
 10
1222.4190355120319964
 20
482.0746441812360672
 10
1218.2919870843547869
 20
480.8227177276132807
 10
1214.0
 20
480.399993896484375
 10
724.0
 20
480.399993896484375
 10
724.0
 20
480.399993896484375
 10
719.7080129156452131
 20
480.8227177276132807
 10
715.5809644879680036
 20
482.0746441812360672
 10
711.7774548735687858
 20
484.10766242582838
 10
708.4436508138959425
 20
486.8436447103803175
 10
705.707668529344005
 20
490.177448770053104
 10
703.6746502847516922
 20
493.9809583844523786
 10
702.4227238311289057
 20
498.1080068121295312
 10
702.0
 20
502.399993896484375
 10
702.0
 20
612.5
 10
702.0
 20
612.5
 10
702.4227238311289057
 20
616.7919870843547869
 10
703.6746502847516922
 20
620.9190355120319964
 10
705.707668529344005
 20
624.7225451264312142
 10
708.4436508138959425
 20
628.0563491861040575
 10
711.7774548735687858
 20
630.792331470655995
 10
715.5809644879680036
 20
632.8253497152483078
 10
719.7080129156452131
 20
634.0772761688710943
 10
724.0
 20
634.5
 97
0
 75
0
 76
1
 47
0.0
 98
0
  0
LWPOLYLINE
  5
5C
330
1D
100
AcDbEntity
  8
0
  6
ByLayer
420
16777215
 48
1.0
 60
0
 67
0
370
-1
100
AcDbPolyline
 90
41
 70
1
 43
0.0
 38
0.0
 39
0.0
210
0.0
220
0.0
230
1.0
 10
724.0
 20
634.5
 40
0.0
 41
0.0
 42
0.0
 10
1214.0
 20
634.5
 40
0.0
 41
0.0
 42
0.0
 10
1214.0
 20
634.5
 40
0.0
 41
0.0
 42
0.0
 10
1218.2919870843547869
 20
634.0772761688710943
 40
0.0
 41
0.0
 42
0.0
 10
1222.4190355120319964
 20
632.8253497152483078
 40
0.0
 41
0.0
 42
0.0
 10
1226.2225451264312142
 20
630.792331470655995
 40
0.0
 41
0.0
 42
0.0
 10
1229.5563491861039438
 20
628.0563491861040575
 40
0.0
 41
0.0
 42
0.0
 10
1232.2923314706558813
 20
624.7225451264312142
 40
0.0
 41
0.0
 42
0.0
 10
1234.3253497152481941
 20
620.9190355120319964
 40
0.0
 41
0.0
 42
0.0
 10
1235.5772761688710943
 20
616.7919870843547869
 40
0.0
 41
0.0
 42
0.0
 10
1236.0
 20
612.5
 40
0.0
 41
0.0
 42
0.0
 10
1236.0
 20
502.399993896484375
 40
0.0
 41
0.0
 42
0.0
 10
1236.0
 20
502.399993896484375
 40
0.0
 41
0.0
 42
0.0
 10
1235.5772761688710943
 20
498.1080068121295312
 40
0.0
 41
0.0
 42
0.0
 10
1234.3253497152481941
 20
493.9809583844523786
 40
0.0
 41
0.0
 42
0.0
 10
1232.2923314706558813
 20
490.177448770053104
 40
0.0
 41
0.0
 42
0.0
 10
1229.5563491861039438
 20
486.8436447103803175
 40
0.0
 41
0.0
 42
0.0
 10
1226.2225451264312142
 20
484.10766242582838
 40
0.0
 41
0.0
 42
0.0
 10
1222.4190355120319964
 20
482.0746441812360672
 40
0.0
 41
0.0
 42
0.0
 10
1218.2919870843547869
 20
480.8227177276132807
 40
0.0
 41
0.0
 42
0.0
 10
1214.0
 20
480.399993896484375
 40
0.0
 41
0.0
 42
0.0
 10
724.0
 20
480.399993896484375
 40
0.0
 41
0.0
 42
0.0
 10
724.0
 20
480.399993896484375
 40
0.0
 41
0.0
 42
0.0
 10
719.7080129156452131
 20
480.8227177276132807
 40
0.0
 41
0.0
 42
0.0
 10
715.5809644879680036
 20
482.0746441812360672
 40
0.0
 41
0.0
 42
0.0
 10
711.7774548735687858
 20
484.10766242582838
 40
0.0
 41
0.0
 42
0.0
 10
708.4436508138959425
 20
486.8436447103803175
 40
0.0
 41
0.0
 42
0.0
 10
705.707668529344005
 20
490.177448770053104
 40
0.0
 41
0.0
 42
0.0
 10
703.6746502847516922
 20
493.9809583844523786
 40
0.0
 41
0.0
 42
0.0
 10
702.4227238311289057
 20
498.1080068121295312
 40
0.0
 41
0.0
 42
0.0
 10
702.0
 20
502.399993896484375
 40
0.0
 41
0.0
 42
0.0
 10
702.0
 20
612.5
 40
0.0
 41
0.0
 42
0.0
 10
702.0
 20
612.5
 40
0.0
 41
0.0
 42
0.0
 10
702.4227238311289057
 20
616.7919870843547869
 40
0.0
 41
0.0
 42
0.0
 10
703.6746502847516922
 20
620.9190355120319964
 40
0.0
 41
0.0
 42
0.0
 10
705.707668529344005
 20
624.7225451264312142
 40
0.0
 41
0.0
 42
0.0
 10
708.4436508138959425
 20
628.0563491861040575
 40
0.0
 41
0.0
 42
0.0
 10
711.7774548735687858
 20
630.792331470655995
 40
0.0
 41
0.0
 42
0.0
 10
715.5809644879680036
 20
632.8253497152483078
 40
0.0
 41
0.0
 42
0.0
 10
719.7080129156452131
 20
634.0772761688710943
 40
0.0
 41
0.0
 42
0.0
 10
724.0
 20
634.5
 40
0.0
 41
0.0
 42
0.0
  0
TEXT
  5
5D
330
1D
100
AcDbEntity
  8
0
  6
ByLayer
420
2704987
 48
1.0
 60
0
 67
0
370
-1
100
AcDbText
 39
0.0
 10
724.0
 20
602.75
 30
0.0
 40
13.0
  1
INTERFACE STACK
 50
0.0
 41
1.0
 51
0.0
  7
Standard
 71
0
 72
0
 11
0.0
 21
0.0
 31
0.0
210
0.0
220
0.0
230
1.0
100
AcDbText
 73
0
  0
TEXT
  5
5E
330
1D
100
AcDbEntity
  8
0
  6
ByLayer
420
2704987
 48
1.0
 60
0
 67
0
370
-1
100
AcDbText
 39
0.0
 10
724.0
 20
571.149993896484375
 30
0.0
 40
22.0
  1
"Mona Sans", "Segoe UI", sans-serif keeps a
 50
0.0
 41
1.0
 51
0.0
  7
Standard
 71
0
 72
0
 11
0.0
 21
0.0
 31
0.0
210
0.0
220
0.0
230
1.0
100
AcDbText
 73
0
  0
TEXT
  5
5F
330
1D
100
AcDbEntity
  8
0
  6
ByLayer
420
2704987
 48
1.0
 60
0
 67
0
370
-1
100
AcDbText
 39
0.0
 10
724.0
 20
541.45001220703125
 30
0.0
 40
22.0
  1
humanist fallback instead of collapsing to a
 50
0.0
 41
1.0
 51
0.0
  7
Standard
 71
0
 72
0
 11
0.0
 21
0.0
 31
0.0
210
0.0
220
0.0
230
1.0
100
AcDbText
 73
0
  0
TEXT
  5
60
330
1D
100
AcDbEntity
  8
0
  6
ByLayer
420
2704987
 48
1.0
 60
0
 67
0
370
-1
100
AcDbText
 39
0.0
 10
724.0
 20
511.75
 30
0.0
 40
22.0
  1
generic face.
 50
0.0
 41
1.0
 51
0.0
  7
Standard
 71
0
 72
0
 11
0.0
 21
0.0
 31
0.0
210
0.0
220
0.0
230
1.0
100
AcDbText
 73
0
  0
HATCH
  5
61
330
1D
100
AcDbEntity
  8
0
  6
ByLayer
420
16777215
 48
1.0
 60
0
 67
0
370
-1
100
AcDbHatch
 30
0.0
210
0.0
220
0.0
230
1.0
  2
SOLID
 70
1
 71
0
 91
1
 92
2
 72
0
 73
1
 93
41
 10
724.0
 20
462.4000244140625
 10
1214.0
 20
462.4000244140625
 10
1214.0
 20
462.4000244140625
 10
1218.2919870843547869
 20
461.9773005829335943
 10
1222.4190355120319964
 20
460.7253741293108078
 10
1226.2225451264312142
 20
458.692355884718495
 10
1229.5563491861039438
 20
455.9563736001665575
 10
1232.2923314706558813
 20
452.6225695404937142
 10
1234.3253497152481941
 20
448.8190599260944964
 10
1235.5772761688710943
 20
444.6920114984172869
 10
1236.0
 20
440.4000244140625
 10
1236.0
 20
360.0
 10
1236.0
 20
360.0
 10
1235.5772761688710943
 20
355.7080129156452131
 10
1234.3253497152481941
 20
351.5809644879680036
 10
1232.2923314706558813
 20
347.7774548735687858
 10
1229.5563491861039438
 20
344.4436508138959425
 10
1226.2225451264312142
 20
341.707668529344005
 10
1222.4190355120319964
 20
339.6746502847516922
 10
1218.2919870843547869
 20
338.4227238311289057
 10
1214.0
 20
338.0
 10
724.0
 20
338.0
 10
724.0
 20
338.0
 10
719.7080129156452131
 20
338.4227238311289057
 10
715.5809644879680036
 20
339.6746502847516922
 10
711.7774548735687858
 20
341.707668529344005
 10
708.4436508138959425
 20
344.4436508138959425
 10
705.707668529344005
 20
347.7774548735687858
 10
703.6746502847516922
 20
351.5809644879680036
 10
702.4227238311289057
 20
355.7080129156452131
 10
702.0
 20
360.0
 10
702.0
 20
440.4000244140625
 10
702.0
 20
440.4000244140625
 10
702.4227238311289057
 20
444.6920114984172869
 10
703.6746502847516922
 20
448.8190599260944964
 10
705.707668529344005
 20
452.6225695404937142
 10
708.4436508138959425
 20
455.9563736001665575
 10
711.7774548735687858
 20
458.692355884718495
 10
715.5809644879680036
 20
460.7253741293108078
 10
719.7080129156452131
 20
461.9773005829335943
 10
724.0
 20
462.4000244140625
 97
0
 75
0
 76
1
 47
0.0
 98
0
  0
LWPOLYLINE
  5
62
330
1D
100
AcDbEntity
  8
0
  6
ByLayer
420
16777215
 48
1.0
 60
0
 67
0
370
-1
100
AcDbPolyline
 90
41
 70
1
 43
0.0
 38
0.0
 39
0.0
210
0.0
220
0.0
230
1.0
 10
724.0
 20
462.4000244140625
 40
0.0
 41
0.0
 42
0.0
 10
1214.0
 20
462.4000244140625
 40
0.0
 41
0.0
 42
0.0
 10
1214.0
 20
462.4000244140625
 40
0.0
 41
0.0
 42
0.0
 10
1218.2919870843547869
 20
461.9773005829335943
 40
0.0
 41
0.0
 42
0.0
 10
1222.4190355120319964
 20
460.7253741293108078
 40
0.0
 41
0.0
 42
0.0
 10
1226.2225451264312142
 20
458.692355884718495
 40
0.0
 41
0.0
 42
0.0
 10
1229.5563491861039438
 20
455.9563736001665575
 40
0.0
 41
0.0
 42
0.0
 10
1232.2923314706558813
 20
452.6225695404937142
 40
0.0
 41
0.0
 42
0.0
 10
1234.3253497152481941
 20
448.8190599260944964
 40
0.0
 41
0.0
 42
0.0
 10
1235.5772761688710943
 20
444.6920114984172869
 40
0.0
 41
0.0
 42
0.0
 10
1236.0
 20
440.4000244140625
 40
0.0
 41
0.0
 42
0.0
 10
1236.0
 20
360.0
 40
0.0
 41
0.0
 42
0.0
 10
1236.0
 20
360.0
 40
0.0
 41
0.0
 42
0.0
 10
1235.5772761688710943
 20
355.7080129156452131
 40
0.0
 41
0.0
 42
0.0
 10
1234.3253497152481941
 20
351.5809644879680036
 40
0.0
 41
0.0
 42
0.0
 10
1232.2923314706558813
 20
347.7774548735687858
 40
0.0
 41
0.0
 42
0.0
 10
1229.5563491861039438
 20
344.4436508138959425
 40
0.0
 41
0.0
 42
0.0
 10
1226.2225451264312142
 20
341.707668529344005
 40
0.0
 41
0.0
 42
0.0
 10
1222.4190355120319964
 20
339.6746502847516922
 40
0.0
 41
0.0
 42
0.0
 10
1218.2919870843547869
 20
338.4227238311289057
 40
0.0
 41
0.0
 42
0.0
 10
1214.0
 20
338.0
 40
0.0
 41
0.0
 42
0.0
 10
724.0
 20
338.0
 40
0.0
 41
0.0
 42
0.0
 10
724.0
 20
338.0
 40
0.0
 41
0.0
 42
0.0
 10
719.7080129156452131
 20
338.4227238311289057
 40
0.0
 41
0.0
 42
0.0
 10
715.5809644879680036
 20
339.6746502847516922
 40
0.0
 41
0.0
 42
0.0
 10
711.7774548735687858
 20
341.707668529344005
 40
0.0
 41
0.0
 42
0.0
 10
708.4436508138959425
 20
344.4436508138959425
 40
0.0
 41
0.0
 42
0.0
 10
705.707668529344005
 20
347.7774548735687858
 40
0.0
 41
0.0
 42
0.0
 10
703.6746502847516922
 20
351.5809644879680036
 40
0.0
 41
0.0
 42
0.0
 10
702.4227238311289057
 20
355.7080129156452131
 40
0.0
 41
0.0
 42
0.0
 10
702.0
 20
360.0
 40
0.0
 41
0.0
 42
0.0
 10
702.0
 20
440.4000244140625
 40
0.0
 41
0.0
 42
0.0
 10
702.0
 20
440.4000244140625
 40
0.0
 41
0.0
 42
0.0
 10
702.4227238311289057
 20
444.6920114984172869
 40
0.0
 41
0.0
 42
0.0
 10
703.6746502847516922
 20
448.8190599260944964
 40
0.0
 41
0.0
 42
0.0
 10
705.707668529344005
 20
452.6225695404937142
 40
0.0
 41
0.0
 42
0.0
 10
708.4436508138959425
 20
455.9563736001665575
 40
0.0
 41
0.0
 42
0.0
 10
711.7774548735687858
 20
458.692355884718495
 40
0.0
 41
0.0
 42
0.0
 10
715.5809644879680036
 20
460.7253741293108078
 40
0.0
 41
0.0
 42
0.0
 10
719.7080129156452131
 20
461.9773005829335943
 40
0.0
 41
0.0
 42
0.0
 10
724.0
 20
462.4000244140625
 40
0.0
 41
0.0
 42
0.0
  0
TEXT
  5
63
330
1D
100
AcDbEntity
  8
0
  6
ByLayer
420
2704987
 48
1.0
 60
0
 67
0
370
-1
100
AcDbText
 39
0.0
 10
724.0
 20
430.6500244140625
 30
0.0
 40
13.0
  1
DOCUMENT STACK
 50
0.0
 41
1.0
 51
0.0
  7
Standard
 71
0
 72
0
 11
0.0
 21
0.0
 31
0.0
210
0.0
220
0.0
230
1.0
100
AcDbText
 73
0
  0
TEXT
  5
64
330
1D
100
AcDbEntity
  8
0
  6
ByLayer
420
2704987
 48
1.0
 60
0
 67
0
370
-1
100
AcDbText
 39
0.0
 10
724.0
 20
399.04998779296875
 30
0.0
 40
22.0
  1
Georgia and Times stay available when
 50
0.0
 41
1.0
 51
0.0
  7
Standard
 71
0
 72
0
 11
0.0
 21
0.0
 31
0.0
210
0.0
220
0.0
230
1.0
100
AcDbText
 73
0
  0
TEXT
  5
65
330
1D
100
AcDbEntity
  8
0
  6
ByLayer
420
2704987
 48
1.0
 60
0
 67
0
370
-1
100
AcDbText
 39
0.0
 10
724.0
 20
369.3499755859375
 30
0.0
 40
22.0
  1
the preferred face is missing.
 50
0.0
 41
1.0
 51
0.0
  7
Standard
 71
0
 72
0
 11
0.0
 21
0.0
 31
0.0
210
0.0
220
0.0
230
1.0
100
AcDbText
 73
0
  0
HATCH
  5
66
330
1D
100
AcDbEntity
  8
0
  6
ByLayer
420
16777215
 48
1.0
 60
0
 67
0
370
-1
100
AcDbHatch
 30
0.0
210
0.0
220
0.0
230
1.0
  2
SOLID
 70
1
 71
0
 91
1
 92
2
 72
0
 73
1
 93
41
 10
724.0
 20
320.0
 10
1214.0
 20
320.0
 10
1214.0
 20
320.0
 10
1218.2919870843547869
 20
319.5772761688710943
 10
1222.4190355120319964
 20
318.3253497152483078
 10
1226.2225451264312142
 20
316.292331470655995
 10
1229.5563491861039438
 20
313.5563491861040575
 10
1232.2923314706558813
 20
310.2225451264312142
 10
1234.3253497152481941
 20
306.4190355120319964
 10
1235.5772761688710943
 20
302.2919870843547869
 10
1236.0
 20
298.0
 10
1236.0
 20
158.20001220703125
 10
1236.0
 20
158.20001220703125
 10
1235.5772761688710943
 20
153.9080251226764631
 10
1234.3253497152481941
 20
149.7809766949992536
 10
1232.2923314706558813
 20
145.9774670806000358
 10
1229.5563491861039438
 20
142.6436630209271925
 10
1226.2225451264312142
 20
139.907680736375255
 10
1222.4190355120319964
 20
137.8746624917829422
 10
1218.2919870843547869
 20
136.6227360381601557
 10
1214.0
 20
136.20001220703125
 10
724.0
 20
136.20001220703125
 10
724.0
 20
136.20001220703125
 10
719.7080129156452131
 20
136.6227360381601557
 10
715.5809644879680036
 20
137.8746624917829422
 10
711.7774548735687858
 20
139.907680736375255
 10
708.4436508138959425
 20
142.6436630209271925
 10
705.707668529344005
 20
145.9774670806000358
 10
703.6746502847516922
 20
149.7809766949992536
 10
702.4227238311289057
 20
153.9080251226764631
 10
702.0
 20
158.20001220703125
 10
702.0
 20
298.0
 10
702.0
 20
298.0
 10
702.4227238311289057
 20
302.2919870843547869
 10
703.6746502847516922
 20
306.4190355120319964
 10
705.707668529344005
 20
310.2225451264312142
 10
708.4436508138959425
 20
313.5563491861040575
 10
711.7774548735687858
 20
316.292331470655995
 10
715.5809644879680036
 20
318.3253497152483078
 10
719.7080129156452131
 20
319.5772761688710943
 10
724.0
 20
320.0
 97
0
 75
0
 76
1
 47
0.0
 98
0
  0
LWPOLYLINE
  5
67
330
1D
100
AcDbEntity
  8
0
  6
ByLayer
420
16777215
 48
1.0
 60
0
 67
0
370
-1
100
AcDbPolyline
 90
41
 70
1
 43
0.0
 38
0.0
 39
0.0
210
0.0
220
0.0
230
1.0
 10
724.0
 20
320.0
 40
0.0
 41
0.0
 42
0.0
 10
1214.0
 20
320.0
 40
0.0
 41
0.0
 42
0.0
 10
1214.0
 20
320.0
 40
0.0
 41
0.0
 42
0.0
 10
1218.2919870843547869
 20
319.5772761688710943
 40
0.0
 41
0.0
 42
0.0
 10
1222.4190355120319964
 20
318.3253497152483078
 40
0.0
 41
0.0
 42
0.0
 10
1226.2225451264312142
 20
316.292331470655995
 40
0.0
 41
0.0
 42
0.0
 10
1229.5563491861039438
 20
313.5563491861040575
 40
0.0
 41
0.0
 42
0.0
 10
1232.2923314706558813
 20
310.2225451264312142
 40
0.0
 41
0.0
 42
0.0
 10
1234.3253497152481941
 20
306.4190355120319964
 40
0.0
 41
0.0
 42
0.0
 10
1235.5772761688710943
 20
302.2919870843547869
 40
0.0
 41
0.0
 42
0.0
 10
1236.0
 20
298.0
 40
0.0
 41
0.0
 42
0.0
 10
1236.0
 20
158.20001220703125
 40
0.0
 41
0.0
 42
0.0
 10
1236.0
 20
158.20001220703125
 40
0.0
 41
0.0
 42
0.0
 10
1235.5772761688710943
 20
153.9080251226764631
 40
0.0
 41
0.0
 42
0.0
 10
1234.3253497152481941
 20
149.7809766949992536
 40
0.0
 41
0.0
 42
0.0
 10
1232.2923314706558813
 20
145.9774670806000358
 40
0.0
 41
0.0
 42
0.0
 10
1229.5563491861039438
 20
142.6436630209271925
 40
0.0
 41
0.0
 42
0.0
 10
1226.2225451264312142
 20
139.907680736375255
 40
0.0
 41
0.0
 42
0.0
 10
1222.4190355120319964
 20
137.8746624917829422
 40
0.0
 41
0.0
 42
0.0
 10
1218.2919870843547869
 20
136.6227360381601557
 40
0.0
 41
0.0
 42
0.0
 10
1214.0
 20
136.20001220703125
 40
0.0
 41
0.0
 42
0.0
 10
724.0
 20
136.20001220703125
 40
0.0
 41
0.0
 42
0.0
 10
724.0
 20
136.20001220703125
 40
0.0
 41
0.0
 42
0.0
 10
719.7080129156452131
 20
136.6227360381601557
 40
0.0
 41
0.0
 42
0.0
 10
715.5809644879680036
 20
137.8746624917829422
 40
0.0
 41
0.0
 42
0.0
 10
711.7774548735687858
 20
139.907680736375255
 40
0.0
 41
0.0
 42
0.0
 10
708.4436508138959425
 20
142.6436630209271925
 40
0.0
 41
0.0
 42
0.0
 10
705.707668529344005
 20
145.9774670806000358
 40
0.0
 41
0.0
 42
0.0
 10
703.6746502847516922
 20
149.7809766949992536
 40
0.0
 41
0.0
 42
0.0
 10
702.4227238311289057
 20
153.9080251226764631
 40
0.0
 41
0.0
 42
0.0
 10
702.0
 20
158.20001220703125
 40
0.0
 41
0.0
 42
0.0
 10
702.0
 20
298.0
 40
0.0
 41
0.0
 42
0.0
 10
702.0
 20
298.0
 40
0.0
 41
0.0
 42
0.0
 10
702.4227238311289057
 20
302.2919870843547869
 40
0.0
 41
0.0
 42
0.0
 10
703.6746502847516922
 20
306.4190355120319964
 40
0.0
 41
0.0
 42
0.0
 10
705.707668529344005
 20
310.2225451264312142
 40
0.0
 41
0.0
 42
0.0
 10
708.4436508138959425
 20
313.5563491861040575
 40
0.0
 41
0.0
 42
0.0
 10
711.7774548735687858
 20
316.292331470655995
 40
0.0
 41
0.0
 42
0.0
 10
715.5809644879680036
 20
318.3253497152483078
 40
0.0
 41
0.0
 42
0.0
 10
719.7080129156452131
 20
319.5772761688710943
 40
0.0
 41
0.0
 42
0.0
 10
724.0
 20
320.0
 40
0.0
 41
0.0
 42
0.0
  0
TEXT
  5
68
330
1D
100
AcDbEntity
  8
0
  6
ByLayer
420
2704987
 48
1.0
 60
0
 67
0
370
-1
100
AcDbText
 39
0.0
 10
724.0
 20
288.25
 30
0.0
 40
13.0
  1
SYSTEM NOTE
 50
0.0
 41
1.0
 51
0.0
  7
Standard
 71
0
 72
0
 11
0.0
 21
0.0
 31
0.0
210
0.0
220
0.0
230
1.0
100
AcDbText
 73
0
  0
TEXT
  5
69
330
1D
100
AcDbEntity
  8
0
  6
ByLayer
420
2704987
 48
1.0
 60
0
 67
0
370
-1
100
AcDbText
 39
0.0
 10
776.6785215616043843
 20
258.4771359238665127
 30
0.0
 40
22.0
  1
Native quads carry rotated text geometry,
 50
1.9999959467067698
 41
1.0
 51
0.0
  7
Standard
 71
0
 72
0
 11
0.0
 21
0.0
 31
0.0
210
0.0
220
0.0
230
1.0
100
AcDbText
 73
0
  0
TEXT
  5
6A
330
1D
100
AcDbEntity
  8
0
  6
ByLayer
420
2704987
 48
1.0
 60
0
 67
0
370
-1
100
AcDbText
 39
0.0
 10
725.7466978311356343
 20
226.9804928574602627
 30
0.0
 40
22.0
  1
so transformed runs can keep their live layout
 50
2.0000016958234426
 41
1.0
 51
0.0
  7
Standard
 71
0
 72
0
 11
0.0
 21
0.0
 31
0.0
210
0.0
220
0.0
230
1.0
100
AcDbText
 73
0
  0
TEXT
  5
6B
330
1D
100
AcDbEntity
  8
0
  6
ByLayer
420
2704987
 48
1.0
 60
0
 67
0
370
-1
100
AcDbText
 39
0.0
 10
726.7832578897293843
 20
197.2985470566790127
 30
0.0
 40
22.0
  1
when the browser exposes `getBoxQuads()`
 50
2.0000019448961655
 41
1.0
 51
0.0
  7
Standard
 71
0
 72
0
 11
0.0
 21
0.0
 31
0.0
210
0.0
220
0.0
230
1.0
100
AcDbText
 73
0
  0
TEXT
  5
6C
330
1D
100
AcDbEntity
  8
0
  6
ByLayer
420
2704987
 48
1.0
 60
0
 67
0
370
-1
100
AcDbText
 39
0.0
 10
727.8197569131668843
 20
167.6166622910540127
 30
0.0
 40
22.0
  1
directly.
 50
2.0000165218672854
 41
1.0
 51
0.0
  7
Standard
 71
0
 72
0
 11
0.0
 21
0.0
 31
0.0
210
0.0
220
0.0
230
1.0
100
AcDbText
 73
0
  0
ENDSEC
  0
SECTION
  2
OBJECTS
  0
DICTIONARY
  5
1
330
0
100
AcDbDictionary
280
0
281
0
  3
ACAD_COLOR
350
2
  3
ACAD_GROUP
350
3
  3
ACAD_LAYOUT
350
4
  3
ACAD_MATERIAL
350
5
  3
ACAD_SORTENTS
350
6
  3
ACAD_MLEADERSTYLE
350
7
  3
ACAD_MLINESTYLE
350
8
  3
ACAD_TABLESTYLE
350
9
  3
ACAD_PLOTSETTINGS
350
A
  3
AcDbVariableDictionary
350
B
  3
ACAD_SCALELIST
350
C
  3
ACAD_VISUALSTYLE
350
D
  3
ACAD_FIELDLIST
350
E
  3
ACAD_IMAGE_DICT
350
F
  0
DICTIONARY
  5
2
330
1
100
AcDbDictionary
280
0
281
0
  0
DICTIONARY
  5
3
330
1
100
AcDbDictionary
280
0
281
0
  0
DICTIONARY
  5
4
330
1
100
AcDbDictionary
280
0
281
0
  0
DICTIONARY
  5
5
330
1
100
AcDbDictionary
280
0
281
0
  0
DICTIONARY
  5
6
330
1
100
AcDbDictionary
280
0
281
0
  0
DICTIONARY
  5
7
330
1
100
AcDbDictionary
280
0
281
0
  0
DICTIONARY
  5
8
330
1
100
AcDbDictionary
280
0
281
0
  0
DICTIONARY
  5
9
330
1
100
AcDbDictionary
280
0
281
0
  0
DICTIONARY
  5
A
330
1
100
AcDbDictionary
280
0
281
0
  0
DICTIONARY
  5
B
330
1
100
AcDbDictionary
280
0
281
0
  0
DICTIONARY
  5
C
330
1
100
AcDbDictionary
280
0
281
0
  0
DICTIONARY
  5
D
330
1
100
AcDbDictionary
280
0
281
0
  0
DICTIONARY
  5
E
330
1
100
AcDbDictionary
280
0
281
0
  0
DICTIONARY
  5
F
330
1
100
AcDbDictionary
280
0
281
0
  0
ENDSEC
  0
EOF
