  0
SECTION
  2
HEADER
  9
$ANGBASE
 50
0.0
  9
$ANGDIR
 70
1
  9
$AUNITS
 70
0
  9
$AUPREC
 70
0
  9
$ATTMODE
 70
1
  9
$DWGCODEPAGE
  3
ANSI_1252
  9
$TDCREATE
 40
2451545.0416666665114462
  9
$CECOLOR
 62
256
  9
$CELTSCALE
 40
1.0
  9
$CELWEIGHT
370
-1
  9
$CLAYER
  8
0
  9
$CELTYPE
  6
ByLayer
  9
$CMLJUST
 70
0
  9
$CMLSCALE
 40
20.0
  9
$CMLSTYLE
  2
Standard
  9
$DIMSTYLE
  2
Standard
  9
$LWDISPLAY
290
0
  9
$EXTNAMES
290
1
  9
$HANDSEED
  5
8E
  9
$INSUNITS
 70
0
  9
$LUNITS
 70
2
  9
$LUPREC
 70
4
  9
$LTSCALE
 40
1.0
  9
$MIRRTEXT
 70
0
  9
$INSBASE
 10
0.0
 20
0.0
 30
0.0
  9
$SPLINESEGS
 70
8
  9
$PSLTSCALE
 70
1
  9
$PDMODE
 70
0
  9
$PDSIZE
 40
0.0
  9
$PLINEGEN
 70
0
  9
$TEXTSIZE
 40
0.2
  9
$TEXTSTYLE
  7
Standard
  9
$TDINDWG
 40
0.0
  9
$TDUCREATE
 40
2451545.0416666665114462
  9
$TDUUPDATE
 40
2451545.0416666665114462
  9
$TDUPDATE
 40
2451545.0416666665114462
  9
$ACADVER
  1
AC1018
  0
ENDSEC
  0
SECTION
  2
CLASSES
  0
CLASS
  1
ACDBDICTIONARYWDFLT
  2
AcDbDictionaryWithDefault
  3
ObjectDBX Classes
 90
32768
 91
0
280
0
281
0
  0
CLASS
  1
ACDBPLACEHOLDER
  2
AcDbPlaceHolder
  3
ObjectDBX Classes
 90
0
 91
0
280
0
281
0
  0
CLASS
  1
LAYOUT
  2
AcDbLayout
  3
ObjectDBX Classes
 90
0
 91
0
280
0
281
0
  0
CLASS
  1
DICTIONARYVAR
  2
AcDbDictionaryVar
  3
ObjectDBX Classes
 90
0
 91
0
280
0
281
0
  0
CLASS
  1
TABLESTYLE
  2
AcDbTableStyle
  3
ObjectDBX Classes
 90
4095
 91
0
280
0
281
0
  0
CLASS
  1
MATERIAL
  2
AcDbMaterial
  3
ObjectDBX Classes
 90
1153
 91
0
280
0
281
0
  0
CLASS
  1
VISUALSTYLE
  2
AcDbVisualStyle
  3
ObjectDBX Classes
 90
4095
 91
0
280
0
281
0
  0
CLASS
  1
SCALE
  2
AcDbScale
  3
ObjectDBX Classes
 90
1153
 91
0
280
0
281
0
  0
CLASS
  1
MLEADERSTYLE
  2
AcDbMLeaderStyle
  3
ObjectDBX Classes
 90
4095
 91
0
280
0
281
0
  0
CLASS
  1
CELLSTYLEMAP
  2
AcDbCellStyleMap
  3
ObjectDBX Classes
 90
1152
 91
0
280
0
281
0
  0
CLASS
  1
EXACXREFPANELOBJECT
  2
ExAcXREFPanelObject
  3
ObjectDBX Classes
 90
1025
 91
0
280
0
281
0
  0
CLASS
  1
NPOCOLLECTION
  2
AcDbImpNonPersistentObjectsCollection
  3
ObjectDBX Classes
 90
1153
 91
0
280
0
281
0
  0
CLASS
  1
LAYER_INDEX
  2
AcDbLayerIndex
  3
ObjectDBX Classes
 90
0
 91
0
280
0
281
0
  0
CLASS
  1
SPATIAL_INDEX
  2
AcDbSpatialIndex
  3
ObjectDBX Classes
 90
0
 91
0
280
0
281
0
  0
CLASS
  1
IDBUFFER
  2
AcDbIdBuffer
  3
ObjectDBX Classes
 90
32768
 91
0
280
0
281
0
  0
CLASS
  1
ACDBSECTIONVIEWSTYLE
  2
AcDbSectionViewStyle
  3
ObjectDBX Classes
 90
1025
 91
0
280
0
281
0
  0
CLASS
  1
ACDBDETAILVIEWSTYLE
  2
AcDbDetailViewStyle
  3
ObjectDBX Classes
 90
1025
 91
0
280
0
281
0
  0
CLASS
  1
MESH
  2
AcDbSubDMesh
  3
ObjectDBX Classes
 90
0
 91
0
280
0
281
1
  0
CLASS
  1
SORTENTSTABLE
  2
AcDbSortentsTable
  3
ObjectDBX Classes
 90
0
 91
0
280
0
281
0
  0
CLASS
  1
ACDB_TEXTOBJECTCONTEXTDATA_CLASS
  2
AcDbTextObjectContextData
  3
ObjectDBX Classes
 90
1153
 91
0
280
0
281
0
  0
CLASS
  1
WIPEOUT
  2
AcDbWipeout
  3
WipeOut
 90
32895
 91
0
280
0
281
1
  0
CLASS
  1
WIPEOUTVARIABLES
  2
AcDbWipeoutVariables
  3
WipeOut
 90
32768
 91
0
280
0
281
0
  0
CLASS
  1
DIMASSOC
  2
AcDbDimAssoc
  3
AcDbDimAssoc
 90
0
 91
0
280
0
281
0
  0
CLASS
  1
ACAD_TABLE
  2
AcDbTable
  3
ObjectDBX Classes
 90
1025
 91
0
280
0
281
1
  0
CLASS
  1
TABLECONTENT
  2
AcDbTableContent
  3
ObjectDBX Classes
 90
1152
 91
0
280
0
281
0
  0
CLASS
  1
TABLEGEOMETRY
  2
AcDbTableGeometry
  3
ObjectDBX Classes
 90
1152
 91
0
280
0
281
0
  0
CLASS
  1
IMAGE
  2
AcDbRasterImage
  3
ISM
 90
32895
 91
0
280
0
281
1
  0
CLASS
  1
IMAGEDEF
  2
AcDbRasterImageDef
  3
ISM
 90
0
 91
0
280
0
281
0
  0
CLASS
  1
IMAGEDEF_REACTOR
  2
AcDbRasterImageDefReactor
  3
ISM
 90
1
 91
0
280
0
281
0
  0
CLASS
  1
DBCOLOR
  2
AcDbColor
  3
ObjectDBX Classes
 90
0
 91
0
280
0
281
0
  0
CLASS
  1
GEODATA
  2
AcDbGeoData
  3
ObjectDBX Classes
 90
4095
 91
0
280
0
281
0
  0
CLASS
  1
MULTILEADER
  2
AcDbMLeader
  3
ObjectDBX Classes
 90
1025
 91
0
280
0
281
0
  0
CLASS
  1
PDFUNDERLAY
  2
AcDbPdfReference
  3
ObjectDBX Classes
 90
4095
 91
0
280
0
281
1
  0
CLASS
  1
PDFDEFINITION
  2
AcDbPdfDefinition
  3
ObjectDBX Classes
 90
1153
 91
0
280
0
281
0
  0
CLASS
  1
RASTERVARIABLES
  2
AcDbRasterVariables
  3
ISM
 90
0
 91
0
280
0
281
0
  0
CLASS
  1
SPATIAL_FILTER
  2
AcDbSpatialFilter
  3
ObjectDBX Classes
 90
0
 91
0
280
0
281
0
  0
CLASS
  1
ACDB_MLEADEROBJECTCONTEXTDATA_CLASS
  2
AcDbMLeaderObjectContextData
  3
ObjectDBX Classes
 90
1025
 91
0
280
0
281
0
  0
CLASS
  1
PLOTSETTINGS
  2
AcDbPlotSettings
  3
ObjectDBX Classes
 90
0
 91
0
280
0
281
0
  0
CLASS
  1
FIELD
  2
AcDbField
  3
ObjectDBX Classes
 90
1152
 91
0
280
0
281
0
  0
CLASS
  1
FIELDLIST
  2
AcDbFieldList
  3
ObjectDBX Classes
 90
1152
 91
0
280
0
281
0
  0
CLASS
  1
ACDB_MTEXTATTRIBUTEOBJECTCONTEXTDATA_CLASS
  2
AcDbMTextAttributeObjectContextData
  3
ObjectDBX Classes
 90
1153
 91
0
280
0
281
0
  0
CLASS
  1
ACDB_BLKREFOBJECTCONTEXTDATA_CLASS
  2
AcDbBlkRefObjectContextData
  3
ObjectDBX Classes
 90
1153
 91
0
280
0
281
0
  0
ENDSEC
  0
SECTION
  2
TABLES
  0
TABLE
  2
VPORT
  5
18
330
0
100
AcDbSymbolTable
 70
1
  0
VPORT
  5
26
330
18
100
AcDbSymbolTableRecord
100
AcDbViewportTableRecord
  2
*Active
 70
0
 10
0.0
 20
0.0
 11
1.0
 21
1.0
 12
0.0
 22
0.0
 13
0.0
 23
0.0
 14
0.5
 24
0.5
 15
10.0
 25
10.0
 16
0.0
 26
0.0
 36
1.0
 17
0.0
 27
0.0
 37
0.0
 40
10.0
 41
1.0
 75
0
 76
1
  0
ENDTAB
  0
TABLE
  2
LTYPE
  5
14
330
0
100
AcDbSymbolTable
 70
3
  0
LTYPE
  5
19
330
14
100
AcDbSymbolTableRecord
100
AcDbLinetypeTableRecord
  2
ByLayer
 70
0
 72
0
 73
0
 40
0.0
  0
LTYPE
  5
1A
330
14
100
AcDbSymbolTableRecord
100
AcDbLinetypeTableRecord
  2
ByBlock
 70
0
 72
0
 73
0
 40
0.0
  0
LTYPE
  5
1B
330
14
100
AcDbSymbolTableRecord
100
AcDbLinetypeTableRecord
  2
Continuous
 70
0
 72
0
 73
0
 40
0.0
  0
ENDTAB
  0
TABLE
  2
LAYER
  5
13
330
0
100
AcDbSymbolTable
 70
1
  0
LAYER
  5
1C
330
13
100
AcDbSymbolTableRecord
100
AcDbLayerTableRecord
  2
0
 70
0
 62
7
  6
Continuous
290
1
370
-3
390
0
  0
ENDTAB
  0
TABLE
  2
STYLE
  5
15
330
0
100
AcDbSymbolTable
 70
1
  0
STYLE
  5
23
330
15
100
AcDbSymbolTableRecord
100
AcDbTextStyleTableRecord
  2
Standard
 70
0
 40
0.0
 41
1.0
 42
0.0
 50
0.0
 71
0
  0
ENDTAB
  0
TABLE
  2
VIEW
  5
17
330
0
100
AcDbSymbolTable
 70
0
  0
ENDTAB
  0
TABLE
  2
UCS
  5
16
330
0
100
AcDbSymbolTable
 70
0
  0
ENDTAB
  0
TABLE
  2
APPID
  5
10
330
0
100
AcDbSymbolTable
 70
1
  0
APPID
  5
25
330
10
100
AcDbSymbolTableRecord
100
AcDbRegAppTableRecord
  2
ACAD
 70
0
  0
ENDTAB
  0
TABLE
  2
DIMSTYLE
  5
12
330
0
100
AcDbSymbolTable
 70
1
100
AcDbDimStyleTable
  0
DIMSTYLE
105
24
330
12
100
AcDbSymbolTableRecord
100
AcDbDimStyleTableRecord
  2
Standard
 70
0
  3
<>
  4
[]
 40
1.0
 41
0.18
 42
0.625
 43
3.75
 44
1.25
 45
0.0
 46
0.0
 47
0.0
 48
0.0
 49
1.0
 50
45.0
 70
0
 90
0
140
0.18
141
0.09
142
0.0
143
25.3999999999999986
144
1.0
145
0.0
146
1.0
147
0.625
148
0.0
 71
0
 72
0
 73
0
 74
0
 75
0
 76
0
 77
1
 78
8
 79
0
170
0
171
3
172
0
173
1
174
0
175
0
176
0
177
0
178
0
179
0
271
2
272
2
273
2
274
3
275
0
276
0
277
2
278
46
279
0
280
0
281
0
282
0
283
0
284
8
285
0
286
0
287
0
288
0
289
3
290
0
340
0
371
-2
372
-2
  0
ENDTAB
  0
TABLE
  2
BLOCK_RECORD
  5
11
330
0
100
AcDbSymbolTable
 70
2
  0
BLOCK_RECORD
  5
1D
330
11
100
AcDbSymbolTableRecord
100
AcDbBlockTableRecord
  2
*Model_Space
 70
0
340
0
 70
0
280
0
281
1
  0
BLOCK_RECORD
  5
20
330
11
100
AcDbSymbolTableRecord
100
AcDbBlockTableRecord
  2
*Paper_Space
 70
0
340
0
 70
0
280
0
281
1
  0
ENDTAB
  0
ENDSEC
  0
SECTION
  2
BLOCKS
  0
BLOCK
  5
1E
330
1D
100
AcDbEntity
  8
0
  6
ByLayer
 62
256
 48
1.0
 60
0
 67
0
370
-1
100
AcDbBlockBegin
  2
*Model_Space
 70
0
 10
0.0
 20
0.0
 30
0.0
  3
*Model_Space
  0
ENDBLK
  5
1F
330
1D
100
AcDbEntity
  8
0
100
AcDbBlockEnd
  0
BLOCK
  5
21
330
20
100
AcDbEntity
  8
0
  6
ByLayer
 62
256
 48
1.0
 60
0
 67
1
370
-1
100
AcDbBlockBegin
  2
*Paper_Space
 70
0
 10
0.0
 20
0.0
 30
0.0
  3
*Paper_Space
  0
ENDBLK
  5
22
330
20
100
AcDbEntity
  8
0
100
AcDbBlockEnd
  0
ENDSEC
  0
SECTION
  2
ENTITIES
  0
TEXT
  5
27
330
1D
100
AcDbEntity
  8
0
  6
ByLayer
420
1910582
 48
1.0
 60
0
 67
0
370
-1
100
AcDbText
 39
0.0
 10
0.0
 20
1032.0
 30
0.0
 40
28.0
  1
Native Form Controls
 50
0.0
 41
1.0
 51
0.0
  7
Standard
 71
0
 72
0
 11
0.0
 21
0.0
 31
0.0
210
0.0
220
0.0
230
1.0
100
AcDbText
 73
0
  0
HATCH
  5
28
330
1D
100
AcDbEntity
  8
0
  6
ByLayer
420
16777215
 48
1.0
 60
0
 67
0
370
-1
100
AcDbHatch
 30
0.0
210
0.0
220
0.0
230
1.0
  2
SOLID
 70
1
 71
0
 91
1
 92
2
 72
0
 73
1
 93
41
 10
14.0
 20
1003.0
 10
417.0
 20
1003.0
 10
417.0
 20
1003.0
 10
419.73126450822582
 20
1002.7309939256451798
 10
422.3575680531112653
 20
1001.9343134551579624
 10
424.7779832622744607
 20
1000.6405745722356642
 10
426.8994949366116884
 20
998.8994949366116316
 10
428.6405745722356073
 20
996.7779832622744607
 10
429.9343134551580192
 20
994.3575680531112084
 10
430.7309939256452367
 20
991.7312645082257632
 10
431.0
 20
989.0
 10
431.0
 20
686.0
 10
431.0
 20
686.0
 10
430.7309939256452367
 20
683.2687354917741231
 10
429.9343134551580192
 20
680.6424319468887916
 10
428.6405745722356073
 20
678.222016737725653
 10
426.8994949366116884
 20
676.1005050633882547
 10
424.7779832622744607
 20
674.3594254277643358
 10
422.3575680531112653
 20
673.0656865448420376
 10
419.73126450822582
 20
672.2690060743548202
 10
417.0
 20
672.0
 10
14.0
 20
672.0
 10
14.0
 20
672.0
 10
11.2687354917742049
 20
672.2690060743548202
 10
8.6424319468887436
 20
673.0656865448420376
 10
6.2220167377255731
 20
674.3594254277643358
 10
4.1005050633883364
 20
676.1005050633882547
 10
2.3594254277643643
 20
678.222016737725653
 10
1.0656865448419861
 20
680.6424319468887916
 10
0.269006074354774
 20
683.2687354917741231
 10
0.0
 20
686.0
 10
0.0
 20
989.0
 10
0.0
 20
989.0
 10
0.269006074354774
 20
991.7312645082257632
 10
1.0656865448419843
 20
994.3575680531112084
 10
2.3594254277643643
 20
996.7779832622744607
 10
4.1005050633883329
 20
998.8994949366116316
 10
6.2220167377255695
 20
1000.6405745722356642
 10
8.6424319468887347
 20
1001.9343134551579624
 10
11.2687354917741978
 20
1002.7309939256451798
 10
13.9999999999999982
 20
1003.0
 97
0
 75
0
 76
1
 47
0.0
 98
0
  0
LWPOLYLINE
  5
29
330
1D
100
AcDbEntity
  8
0
  6
ByLayer
420
14147306
 48
1.0
 60
0
 67
0
370
-1
100
AcDbPolyline
 90
41
 70
1
 43
0.0
 38
0.0
 39
0.0
210
0.0
220
0.0
230
1.0
 10
14.0
 20
1003.0
 40
0.0
 41
0.0
 42
0.0
 10
417.0
 20
1003.0
 40
0.0
 41
0.0
 42
0.0
 10
417.0
 20
1003.0
 40
0.0
 41
0.0
 42
0.0
 10
419.73126450822582
 20
1002.7309939256451798
 40
0.0
 41
0.0
 42
0.0
 10
422.3575680531112653
 20
1001.9343134551579624
 40
0.0
 41
0.0
 42
0.0
 10
424.7779832622744607
 20
1000.6405745722356642
 40
0.0
 41
0.0
 42
0.0
 10
426.8994949366116884
 20
998.8994949366116316
 40
0.0
 41
0.0
 42
0.0
 10
428.6405745722356073
 20
996.7779832622744607
 40
0.0
 41
0.0
 42
0.0
 10
429.9343134551580192
 20
994.3575680531112084
 40
0.0
 41
0.0
 42
0.0
 10
430.7309939256452367
 20
991.7312645082257632
 40
0.0
 41
0.0
 42
0.0
 10
431.0
 20
989.0
 40
0.0
 41
0.0
 42
0.0
 10
431.0
 20
686.0
 40
0.0
 41
0.0
 42
0.0
 10
431.0
 20
686.0
 40
0.0
 41
0.0
 42
0.0
 10
430.7309939256452367
 20
683.2687354917741231
 40
0.0
 41
0.0
 42
0.0
 10
429.9343134551580192
 20
680.6424319468887916
 40
0.0
 41
0.0
 42
0.0
 10
428.6405745722356073
 20
678.222016737725653
 40
0.0
 41
0.0
 42
0.0
 10
426.8994949366116884
 20
676.1005050633882547
 40
0.0
 41
0.0
 42
0.0
 10
424.7779832622744607
 20
674.3594254277643358
 40
0.0
 41
0.0
 42
0.0
 10
422.3575680531112653
 20
673.0656865448420376
 40
0.0
 41
0.0
 42
0.0
 10
419.73126450822582
 20
672.2690060743548202
 40
0.0
 41
0.0
 42
0.0
 10
417.0
 20
672.0
 40
0.0
 41
0.0
 42
0.0
 10
14.0
 20
672.0
 40
0.0
 41
0.0
 42
0.0
 10
14.0
 20
672.0
 40
0.0
 41
0.0
 42
0.0
 10
11.2687354917742049
 20
672.2690060743548202
 40
0.0
 41
0.0
 42
0.0
 10
8.6424319468887436
 20
673.0656865448420376
 40
0.0
 41
0.0
 42
0.0
 10
6.2220167377255731
 20
674.3594254277643358
 40
0.0
 41
0.0
 42
0.0
 10
4.1005050633883364
 20
676.1005050633882547
 40
0.0
 41
0.0
 42
0.0
 10
2.3594254277643643
 20
678.222016737725653
 40
0.0
 41
0.0
 42
0.0
 10
1.0656865448419861
 20
680.6424319468887916
 40
0.0
 41
0.0
 42
0.0
 10
0.269006074354774
 20
683.2687354917741231
 40
0.0
 41
0.0
 42
0.0
 10
0.0
 20
686.0
 40
0.0
 41
0.0
 42
0.0
 10
0.0
 20
989.0
 40
0.0
 41
0.0
 42
0.0
 10
0.0
 20
989.0
 40
0.0
 41
0.0
 42
0.0
 10
0.269006074354774
 20
991.7312645082257632
 40
0.0
 41
0.0
 42
0.0
 10
1.0656865448419843
 20
994.3575680531112084
 40
0.0
 41
0.0
 42
0.0
 10
2.3594254277643643
 20
996.7779832622744607
 40
0.0
 41
0.0
 42
0.0
 10
4.1005050633883329
 20
998.8994949366116316
 40
0.0
 41
0.0
 42
0.0
 10
6.2220167377255695
 20
1000.6405745722356642
 40
0.0
 41
0.0
 42
0.0
 10
8.6424319468887347
 20
1001.9343134551579624
 40
0.0
 41
0.0
 42
0.0
 10
11.2687354917741978
 20
1002.7309939256451798
 40
0.0
 41
0.0
 42
0.0
 10
13.9999999999999982
 20
1003.0
 40
0.0
 41
0.0
 42
0.0
  0
TEXT
  5
2A
330
1D
100
AcDbEntity
  8
0
  6
ByLayer
420
1910582
 48
1.0
 60
0
 67
0
370
-1
100
AcDbText
 39
0.0
 10
19.0
 20
971.0
 30
0.0
 40
16.0
  1
Value Fields
 50
0.0
 41
1.0
 51
0.0
  7
Standard
 71
0
 72
0
 11
0.0
 21
0.0
 31
0.0
210
0.0
220
0.0
230
1.0
100
AcDbText
 73
0
  0
TEXT
  5
2B
330
1D
100
AcDbEntity
  8
0
  6
ByLayer
420
4938352
 48
1.0
 60
0
 67
0
370
-1
100
AcDbText
 39
0.0
 10
19.0
 20
941.5
 30
0.0
 40
12.0
  1
TEXT INPUT
 50
0.0
 41
1.0
 51
0.0
  7
Standard
 71
0
 72
0
 11
0.0
 21
0.0
 31
0.0
210
0.0
220
0.0
230
1.0
100
AcDbText
 73
0
  0
HATCH
  5
2C
330
1D
100
AcDbEntity
  8
0
  6
ByLayer
420
16777215
 48
1.0
 60
0
 67
0
370
-1
100
AcDbHatch
 30
0.0
210
0.0
220
0.0
230
1.0
  2
SOLID
 70
1
 71
0
 91
1
 92
2
 72
0
 73
1
 93
41
 10
27.0
 20
931.0
 10
404.0
 20
931.0
 10
404.0
 20
931.0
 10
405.5607225761290238
 20
930.8462822432258008
 10
407.0614674589207311
 20
930.3910362600902317
 10
408.4445618641568103
 20
929.6517568984203308
 10
409.656854249492369
 20
928.6568542494924259
 10
410.6517568984203876
 20
927.4445618641568672
 10
411.3910362600902886
 20
926.061467458920788
 10
411.8462822432258577
 20
924.5607225761290238
 10
412.0
 20
923.0
 10
412.0
 20
899.0
 10
412.0
 20
899.0
 10
411.8462822432258577
 20
897.4392774238709762
 10
411.3910362600902886
 20
895.938532541079212
 10
410.6517568984203876
 20
894.5554381358431328
 10
409.656854249492369
 20
893.3431457505075741
 10
408.4445618641568103
 20
892.3482431015796692
 10
407.0614674589207311
 20
891.6089637399097683
 10
405.5607225761290238
 20
891.1537177567740855
 10
404.0
 20
891.0
 10
27.0
 20
891.0
 10
27.0
 20
891.0
 10
25.4392774238709762
 20
891.1537177567740855
 10
23.9385325410792831
 20
891.6089637399097683
 10
22.5554381358431826
 20
892.3482431015796692
 10
21.3431457505076203
 20
893.3431457505075741
 10
20.3482431015796372
 20
894.5554381358431328
 10
19.6089637399097043
 20
895.938532541079212
 10
19.1537177567741566
 20
897.4392774238709762
 10
19.0
 20
899.0
 10
19.0
 20
923.0
 10
19.0
 20
923.0
 10
19.1537177567741566
 20
924.5607225761290238
 10
19.6089637399097043
 20
926.061467458920788
 10
20.3482431015796372
 20
927.4445618641568672
 10
21.3431457505076168
 20
928.6568542494924259
 10
22.5554381358431826
 20
929.6517568984203308
 10
23.938532541079276
 20
930.3910362600902317
 10
25.4392774238709691
 20
930.8462822432258008
 10
27.0
 20
931.0
 97
0
 75
0
 76
1
 47
0.0
 98
0
  0
LWPOLYLINE
  5
2D
330
1D
100
AcDbEntity
  8
0
  6
ByLayer
420
9741240
 48
1.0
 60
0
 67
0
370
-1
100
AcDbPolyline
 90
41
 70
1
 43
0.0
 38
0.0
 39
0.0
210
0.0
220
0.0
230
1.0
 10
27.0
 20
931.0
 40
0.0
 41
0.0
 42
0.0
 10
404.0
 20
931.0
 40
0.0
 41
0.0
 42
0.0
 10
404.0
 20
931.0
 40
0.0
 41
0.0
 42
0.0
 10
405.5607225761290238
 20
930.8462822432258008
 40
0.0
 41
0.0
 42
0.0
 10
407.0614674589207311
 20
930.3910362600902317
 40
0.0
 41
0.0
 42
0.0
 10
408.4445618641568103
 20
929.6517568984203308
 40
0.0
 41
0.0
 42
0.0
 10
409.656854249492369
 20
928.6568542494924259
 40
0.0
 41
0.0
 42
0.0
 10
410.6517568984203876
 20
927.4445618641568672
 40
0.0
 41
0.0
 42
0.0
 10
411.3910362600902886
 20
926.061467458920788
 40
0.0
 41
0.0
 42
0.0
 10
411.8462822432258577
 20
924.5607225761290238
 40
0.0
 41
0.0
 42
0.0
 10
412.0
 20
923.0
 40
0.0
 41
0.0
 42
0.0
 10
412.0
 20
899.0
 40
0.0
 41
0.0
 42
0.0
 10
412.0
 20
899.0
 40
0.0
 41
0.0
 42
0.0
 10
411.8462822432258577
 20
897.4392774238709762
 40
0.0
 41
0.0
 42
0.0
 10
411.3910362600902886
 20
895.938532541079212
 40
0.0
 41
0.0
 42
0.0
 10
410.6517568984203876
 20
894.5554381358431328
 40
0.0
 41
0.0
 42
0.0
 10
409.656854249492369
 20
893.3431457505075741
 40
0.0
 41
0.0
 42
0.0
 10
408.4445618641568103
 20
892.3482431015796692
 40
0.0
 41
0.0
 42
0.0
 10
407.0614674589207311
 20
891.6089637399097683
 40
0.0
 41
0.0
 42
0.0
 10
405.5607225761290238
 20
891.1537177567740855
 40
0.0
 41
0.0
 42
0.0
 10
404.0
 20
891.0
 40
0.0
 41
0.0
 42
0.0
 10
27.0
 20
891.0
 40
0.0
 41
0.0
 42
0.0
 10
27.0
 20
891.0
 40
0.0
 41
0.0
 42
0.0
 10
25.4392774238709762
 20
891.1537177567740855
 40
0.0
 41
0.0
 42
0.0
 10
23.9385325410792831
 20
891.6089637399097683
 40
0.0
 41
0.0
 42
0.0
 10
22.5554381358431826
 20
892.3482431015796692
 40
0.0
 41
0.0
 42
0.0
 10
21.3431457505076203
 20
893.3431457505075741
 40
0.0
 41
0.0
 42
0.0
 10
20.3482431015796372
 20
894.5554381358431328
 40
0.0
 41
0.0
 42
0.0
 10
19.6089637399097043
 20
895.938532541079212
 40
0.0
 41
0.0
 42
0.0
 10
19.1537177567741566
 20
897.4392774238709762
 40
0.0
 41
0.0
 42
0.0
 10
19.0
 20
899.0
 40
0.0
 41
0.0
 42
0.0
 10
19.0
 20
923.0
 40
0.0
 41
0.0
 42
0.0
 10
19.0
 20
923.0
 40
0.0
 41
0.0
 42
0.0
 10
19.1537177567741566
 20
924.5607225761290238
 40
0.0
 41
0.0
 42
0.0
 10
19.6089637399097043
 20
926.061467458920788
 40
0.0
 41
0.0
 42
0.0
 10
20.3482431015796372
 20
927.4445618641568672
 40
0.0
 41
0.0
 42
0.0
 10
21.3431457505076168
 20
928.6568542494924259
 40
0.0
 41
0.0
 42
0.0
 10
22.5554381358431826
 20
929.6517568984203308
 40
0.0
 41
0.0
 42
0.0
 10
23.938532541079276
 20
930.3910362600902317
 40
0.0
 41
0.0
 42
0.0
 10
25.4392774238709691
 20
930.8462822432258008
 40
0.0
 41
0.0
 42
0.0
 10
27.0
 20
931.0
 40
0.0
 41
0.0
 42
0.0
  0
TEXT
  5
2E
330
1D
100
AcDbEntity
  8
0
  6
ByLayer
420
1120295
 48
1.0
 60
0
 67
0
370
-1
100
AcDbText
 39
0.0
 10
31.0
 20
907.0
 30
0.0
 40
16.0
  1
Alice Johnson
 50
0.0
 41
1.0
 51
0.0
  7
Standard
 71
0
 72
0
 11
0.0
 21
0.0
 31
0.0
210
0.0
220
0.0
230
1.0
100
AcDbText
 73
0
  0
TEXT
  5
2F
330
1D
100
AcDbEntity
  8
0
  6
ByLayer
420
4938352
 48
1.0
 60
0
 67
0
370
-1
100
AcDbText
 39
0.0
 10
19.0
 20
866.5
 30
0.0
 40
12.0
  1
TEXTAREA
 50
0.0
 41
1.0
 51
0.0
  7
Standard
 71
0
 72
0
 11
0.0
 21
0.0
 31
0.0
210
0.0
220
0.0
230
1.0
100
AcDbText
 73
0
  0
HATCH
  5
30
330
1D
100
AcDbEntity
  8
0
  6
ByLayer
420
16777215
 48
1.0
 60
0
 67
0
370
-1
100
AcDbHatch
 30
0.0
210
0.0
220
0.0
230
1.0
  2
SOLID
 70
1
 71
0
 91
1
 92
2
 72
0
 73
1
 93
41
 10
27.0
 20
855.0
 10
404.0
 20
855.0
 10
404.0
 20
855.0
 10
405.5607225761290238
 20
854.8462822432259145
 10
407.0614674589207311
 20
854.3910362600902317
 10
408.4445618641568103
 20
853.6517568984203308
 10
409.656854249492369
 20
852.6568542494924259
 10
410.6517568984203876
 20
851.4445618641568672
 10
411.3910362600902886
 20
850.061467458920788
 10
411.8462822432258577
 20
848.5607225761290238
 10
412.0
 20
847.0
 10
412.0
 20
775.0
 10
412.0
 20
775.0
 10
411.8462822432258577
 20
773.4392774238709762
 10
411.3910362600902886
 20
771.938532541079212
 10
410.6517568984203876
 20
770.5554381358431328
 10
409.656854249492369
 20
769.3431457505075741
 10
408.4445618641568103
 20
768.3482431015795555
 10
407.0614674589207311
 20
767.6089637399097683
 10
405.5607225761290238
 20
767.1537177567740855
 10
404.0
 20
767.0
 10
27.0
 20
767.0
 10
27.0
 20
767.0
 10
25.4392774238709762
 20
767.1537177567740855
 10
23.9385325410792831
 20
767.6089637399097683
 10
22.5554381358431826
 20
768.3482431015795555
 10
21.3431457505076203
 20
769.3431457505075741
 10
20.3482431015796372
 20
770.5554381358431328
 10
19.6089637399097043
 20
771.938532541079212
 10
19.1537177567741566
 20
773.4392774238709762
 10
19.0
 20
775.0
 10
19.0
 20
847.0
 10
19.0
 20
847.0
 10
19.1537177567741566
 20
848.5607225761290238
 10
19.6089637399097043
 20
850.061467458920788
 10
20.3482431015796372
 20
851.4445618641568672
 10
21.3431457505076168
 20
852.6568542494924259
 10
22.5554381358431826
 20
853.6517568984203308
 10
23.938532541079276
 20
854.3910362600902317
 10
25.4392774238709691
 20
854.8462822432258008
 10
27.0
 20
855.0
 97
0
 75
0
 76
1
 47
0.0
 98
0
  0
LWPOLYLINE
  5
31
330
1D
100
AcDbEntity
  8
0
  6
ByLayer
420
9741240
 48
1.0
 60
0
 67
0
370
-1
100
AcDbPolyline
 90
41
 70
1
 43
0.0
 38
0.0
 39
0.0
210
0.0
220
0.0
230
1.0
 10
27.0
 20
855.0
 40
0.0
 41
0.0
 42
0.0
 10
404.0
 20
855.0
 40
0.0
 41
0.0
 42
0.0
 10
404.0
 20
855.0
 40
0.0
 41
0.0
 42
0.0
 10
405.5607225761290238
 20
854.8462822432259145
 40
0.0
 41
0.0
 42
0.0
 10
407.0614674589207311
 20
854.3910362600902317
 40
0.0
 41
0.0
 42
0.0
 10
408.4445618641568103
 20
853.6517568984203308
 40
0.0
 41
0.0
 42
0.0
 10
409.656854249492369
 20
852.6568542494924259
 40
0.0
 41
0.0
 42
0.0
 10
410.6517568984203876
 20
851.4445618641568672
 40
0.0
 41
0.0
 42
0.0
 10
411.3910362600902886
 20
850.061467458920788
 40
0.0
 41
0.0
 42
0.0
 10
411.8462822432258577
 20
848.5607225761290238
 40
0.0
 41
0.0
 42
0.0
 10
412.0
 20
847.0
 40
0.0
 41
0.0
 42
0.0
 10
412.0
 20
775.0
 40
0.0
 41
0.0
 42
0.0
 10
412.0
 20
775.0
 40
0.0
 41
0.0
 42
0.0
 10
411.8462822432258577
 20
773.4392774238709762
 40
0.0
 41
0.0
 42
0.0
 10
411.3910362600902886
 20
771.938532541079212
 40
0.0
 41
0.0
 42
0.0
 10
410.6517568984203876
 20
770.5554381358431328
 40
0.0
 41
0.0
 42
0.0
 10
409.656854249492369
 20
769.3431457505075741
 40
0.0
 41
0.0
 42
0.0
 10
408.4445618641568103
 20
768.3482431015795555
 40
0.0
 41
0.0
 42
0.0
 10
407.0614674589207311
 20
767.6089637399097683
 40
0.0
 41
0.0
 42
0.0
 10
405.5607225761290238
 20
767.1537177567740855
 40
0.0
 41
0.0
 42
0.0
 10
404.0
 20
767.0
 40
0.0
 41
0.0
 42
0.0
 10
27.0
 20
767.0
 40
0.0
 41
0.0
 42
0.0
 10
27.0
 20
767.0
 40
0.0
 41
0.0
 42
0.0
 10
25.4392774238709762
 20
767.1537177567740855
 40
0.0
 41
0.0
 42
0.0
 10
23.9385325410792831
 20
767.6089637399097683
 40
0.0
 41
0.0
 42
0.0
 10
22.5554381358431826
 20
768.3482431015795555
 40
0.0
 41
0.0
 42
0.0
 10
21.3431457505076203
 20
769.3431457505075741
 40
0.0
 41
0.0
 42
0.0
 10
20.3482431015796372
 20
770.5554381358431328
 40
0.0
 41
0.0
 42
0.0
 10
19.6089637399097043
 20
771.938532541079212
 40
0.0
 41
0.0
 42
0.0
 10
19.1537177567741566
 20
773.4392774238709762
 40
0.0
 41
0.0
 42
0.0
 10
19.0
 20
775.0
 40
0.0
 41
0.0
 42
0.0
 10
19.0
 20
847.0
 40
0.0
 41
0.0
 42
0.0
 10
19.0
 20
847.0
 40
0.0
 41
0.0
 42
0.0
 10
19.1537177567741566
 20
848.5607225761290238
 40
0.0
 41
0.0
 42
0.0
 10
19.6089637399097043
 20
850.061467458920788
 40
0.0
 41
0.0
 42
0.0
 10
20.3482431015796372
 20
851.4445618641568672
 40
0.0
 41
0.0
 42
0.0
 10
21.3431457505076168
 20
852.6568542494924259
 40
0.0
 41
0.0
 42
0.0
 10
22.5554381358431826
 20
853.6517568984203308
 40
0.0
 41
0.0
 42
0.0
 10
23.938532541079276
 20
854.3910362600902317
 40
0.0
 41
0.0
 42
0.0
 10
25.4392774238709691
 20
854.8462822432258008
 40
0.0
 41
0.0
 42
0.0
 10
27.0
 20
855.0
 40
0.0
 41
0.0
 42
0.0
  0
TEXT
  5
32
330
1D
100
AcDbEntity
  8
0
  6
ByLayer
420
1120295
 48
1.0
 60
0
 67
0
370
-1
100
AcDbText
 39
0.0
 10
31.0
 20
831.3999999999999773
 30
0.0
 40
16.0
  1
First line
 50
0.0
 41
1.0
 51
0.0
  7
Standard
 71
0
 72
0
 11
0.0
 21
0.0
 31
0.0
210
0.0
220
0.0
230
1.0
100
AcDbText
 73
0
  0
TEXT
  5
33
330
1D
100
AcDbEntity
  8
0
  6
ByLayer
420
1120295
 48
1.0
 60
0
 67
0
370
-1
100
AcDbText
 39
0.0
 10
31.0
 20
812.2000000000000455
 30
0.0
 40
16.0
  1
Second line
 50
0.0
 41
1.0
 51
0.0
  7
Standard
 71
0
 72
0
 11
0.0
 21
0.0
 31
0.0
210
0.0
220
0.0
230
1.0
100
AcDbText
 73
0
  0
TEXT
  5
34
330
1D
100
AcDbEntity
  8
0
  6
ByLayer
420
1120295
 48
1.0
 60
0
 67
0
370
-1
100
AcDbText
 39
0.0
 10
31.0
 20
793.0
 30
0.0
 40
16.0
  1
Third line
 50
0.0
 41
1.0
 51
0.0
  7
Standard
 71
0
 72
0
 11
0.0
 21
0.0
 31
0.0
210
0.0
220
0.0
230
1.0
100
AcDbText
 73
0
  0
TEXT
  5
35
330
1D
100
AcDbEntity
  8
0
  6
ByLayer
420
4938352
 48
1.0
 60
0
 67
0
370
-1
100
AcDbText
 39
0.0
 10
19.0
 20
741.5
 30
0.0
 40
12.0
  1
SELECT
 50
0.0
 41
1.0
 51
0.0
  7
Standard
 71
0
 72
0
 11
0.0
 21
0.0
 31
0.0
210
0.0
220
0.0
230
1.0
100
AcDbText
 73
0
  0
HATCH
  5
36
330
1D
100
AcDbEntity
  8
0
  6
ByLayer
420
16777215
 48
1.0
 60
0
 67
0
370
-1
100
AcDbHatch
 30
0.0
210
0.0
220
0.0
230
1.0
  2
SOLID
 70
1
 71
0
 91
1
 92
2
 72
0
 73
1
 93
41
 10
27.0
 20
731.0
 10
404.0
 20
731.0
 10
404.0
 20
731.0
 10
405.5607225761290238
 20
730.8462822432259145
 10
407.0614674589207311
 20
730.3910362600902317
 10
408.4445618641568103
 20
729.6517568984204445
 10
409.656854249492369
 20
728.6568542494924259
 10
410.6517568984203876
 20
727.4445618641568672
 10
411.3910362600902886
 20
726.061467458920788
 10
411.8462822432258577
 20
724.5607225761290238
 10
412.0
 20
723.0
 10
412.0
 20
699.0
 10
412.0
 20
699.0
 10
411.8462822432258577
 20
697.4392774238709762
 10
411.3910362600902886
 20
695.938532541079212
 10
410.6517568984203876
 20
694.5554381358431328
 10
409.656854249492369
 20
693.3431457505075741
 10
408.4445618641568103
 20
692.3482431015795555
 10
407.0614674589207311
 20
691.6089637399097683
 10
405.5607225761290238
 20
691.1537177567740855
 10
404.0
 20
691.0
 10
27.0
 20
691.0
 10
27.0
 20
691.0
 10
25.4392774238709762
 20
691.1537177567740855
 10
23.9385325410792831
 20
691.6089637399097683
 10
22.5554381358431826
 20
692.3482431015795555
 10
21.3431457505076203
 20
693.3431457505075741
 10
20.3482431015796372
 20
694.5554381358431328
 10
19.6089637399097043
 20
695.938532541079212
 10
19.1537177567741566
 20
697.4392774238709762
 10
19.0
 20
699.0
 10
19.0
 20
723.0
 10
19.0
 20
723.0
 10
19.1537177567741566
 20
724.5607225761290238
 10
19.6089637399097043
 20
726.061467458920788
 10
20.3482431015796372
 20
727.4445618641568672
 10
21.3431457505076168
 20
728.6568542494924259
 10
22.5554381358431826
 20
729.6517568984204445
 10
23.938532541079276
 20
730.3910362600902317
 10
25.4392774238709691
 20
730.8462822432259145
 10
27.0
 20
731.0
 97
0
 75
0
 76
1
 47
0.0
 98
0
  0
LWPOLYLINE
  5
37
330
1D
100
AcDbEntity
  8
0
  6
ByLayer
420
9741240
 48
1.0
 60
0
 67
0
370
-1
100
AcDbPolyline
 90
41
 70
1
 43
0.0
 38
0.0
 39
0.0
210
0.0
220
0.0
230
1.0
 10
27.0
 20
731.0
 40
0.0
 41
0.0
 42
0.0
 10
404.0
 20
731.0
 40
0.0
 41
0.0
 42
0.0
 10
404.0
 20
731.0
 40
0.0
 41
0.0
 42
0.0
 10
405.5607225761290238
 20
730.8462822432259145
 40
0.0
 41
0.0
 42
0.0
 10
407.0614674589207311
 20
730.3910362600902317
 40
0.0
 41
0.0
 42
0.0
 10
408.4445618641568103
 20
729.6517568984204445
 40
0.0
 41
0.0
 42
0.0
 10
409.656854249492369
 20
728.6568542494924259
 40
0.0
 41
0.0
 42
0.0
 10
410.6517568984203876
 20
727.4445618641568672
 40
0.0
 41
0.0
 42
0.0
 10
411.3910362600902886
 20
726.061467458920788
 40
0.0
 41
0.0
 42
0.0
 10
411.8462822432258577
 20
724.5607225761290238
 40
0.0
 41
0.0
 42
0.0
 10
412.0
 20
723.0
 40
0.0
 41
0.0
 42
0.0
 10
412.0
 20
699.0
 40
0.0
 41
0.0
 42
0.0
 10
412.0
 20
699.0
 40
0.0
 41
0.0
 42
0.0
 10
411.8462822432258577
 20
697.4392774238709762
 40
0.0
 41
0.0
 42
0.0
 10
411.3910362600902886
 20
695.938532541079212
 40
0.0
 41
0.0
 42
0.0
 10
410.6517568984203876
 20
694.5554381358431328
 40
0.0
 41
0.0
 42
0.0
 10
409.656854249492369
 20
693.3431457505075741
 40
0.0
 41
0.0
 42
0.0
 10
408.4445618641568103
 20
692.3482431015795555
 40
0.0
 41
0.0
 42
0.0
 10
407.0614674589207311
 20
691.6089637399097683
 40
0.0
 41
0.0
 42
0.0
 10
405.5607225761290238
 20
691.1537177567740855
 40
0.0
 41
0.0
 42
0.0
 10
404.0
 20
691.0
 40
0.0
 41
0.0
 42
0.0
 10
27.0
 20
691.0
 40
0.0
 41
0.0
 42
0.0
 10
27.0
 20
691.0
 40
0.0
 41
0.0
 42
0.0
 10
25.4392774238709762
 20
691.1537177567740855
 40
0.0
 41
0.0
 42
0.0
 10
23.9385325410792831
 20
691.6089637399097683
 40
0.0
 41
0.0
 42
0.0
 10
22.5554381358431826
 20
692.3482431015795555
 40
0.0
 41
0.0
 42
0.0
 10
21.3431457505076203
 20
693.3431457505075741
 40
0.0
 41
0.0
 42
0.0
 10
20.3482431015796372
 20
694.5554381358431328
 40
0.0
 41
0.0
 42
0.0
 10
19.6089637399097043
 20
695.938532541079212
 40
0.0
 41
0.0
 42
0.0
 10
19.1537177567741566
 20
697.4392774238709762
 40
0.0
 41
0.0
 42
0.0
 10
19.0
 20
699.0
 40
0.0
 41
0.0
 42
0.0
 10
19.0
 20
723.0
 40
0.0
 41
0.0
 42
0.0
 10
19.0
 20
723.0
 40
0.0
 41
0.0
 42
0.0
 10
19.1537177567741566
 20
724.5607225761290238
 40
0.0
 41
0.0
 42
0.0
 10
19.6089637399097043
 20
726.061467458920788
 40
0.0
 41
0.0
 42
0.0
 10
20.3482431015796372
 20
727.4445618641568672
 40
0.0
 41
0.0
 42
0.0
 10
21.3431457505076168
 20
728.6568542494924259
 40
0.0
 41
0.0
 42
0.0
 10
22.5554381358431826
 20
729.6517568984204445
 40
0.0
 41
0.0
 42
0.0
 10
23.938532541079276
 20
730.3910362600902317
 40
0.0
 41
0.0
 42
0.0
 10
25.4392774238709691
 20
730.8462822432259145
 40
0.0
 41
0.0
 42
0.0
 10
27.0
 20
731.0
 40
0.0
 41
0.0
 42
0.0
  0
TEXT
  5
38
330
1D
100
AcDbEntity
  8
0
  6
ByLayer
420
1120295
 48
1.0
 60
0
 67
0
370
-1
100
AcDbText
 39
0.0
 10
31.0
 20
707.0
 30
0.0
 40
16.0
  1
Normal
 50
0.0
 41
1.0
 51
0.0
  7
Standard
 71
0
 72
0
 11
0.0
 21
0.0
 31
0.0
210
0.0
220
0.0
230
1.0
100
AcDbText
 73
0
  0
LWPOLYLINE
  5
39
330
1D
100
AcDbEntity
  8
0
  6
ByLayer
420
5263440
 48
1.0
 60
0
 67
0
370
-1
100
AcDbPolyline
 90
3
 70
0
 43
0.0
 38
0.0
 39
0.0
210
0.0
220
0.0
230
1.0
 10
399.0
 20
712.7599999999999909
 40
0.0
 41
0.0
 42
0.0
 10
403.0
 20
709.2400000000000091
 40
0.0
 41
0.0
 42
0.0
 10
407.0
 20
712.7599999999999909
 40
0.0
 41
0.0
 42
0.0
  0
HATCH
  5
3A
330
1D
100
AcDbEntity
  8
0
  6
ByLayer
420
16777215
 48
1.0
 60
0
 67
0
370
-1
100
AcDbHatch
 30
0.0
210
0.0
220
0.0
230
1.0
  2
SOLID
 70
1
 71
0
 91
1
 92
2
 72
0
 73
1
 93
41
 10
463.0
 20
1003.0
 10
866.0
 20
1003.0
 10
866.0
 20
1003.0
 10
868.7312645082257632
 20
1002.7309939256451798
 10
871.3575680531112084
 20
1001.9343134551579624
 10
873.7779832622744607
 20
1000.6405745722356642
 10
875.8994949366116316
 20
998.8994949366116316
 10
877.6405745722356642
 20
996.7779832622744607
 10
878.9343134551579624
 20
994.3575680531112084
 10
879.7309939256451798
 20
991.7312645082257632
 10
880.0
 20
989.0
 10
880.0
 20
686.0
 10
880.0
 20
686.0
 10
879.7309939256451798
 20
683.2687354917741231
 10
878.9343134551579624
 20
680.6424319468887916
 10
877.6405745722356642
 20
678.222016737725653
 10
875.8994949366116316
 20
676.1005050633882547
 10
873.7779832622744607
 20
674.3594254277643358
 10
871.3575680531112084
 20
673.0656865448420376
 10
868.7312645082257632
 20
672.2690060743548202
 10
866.0
 20
672.0
 10
463.0
 20
672.0
 10
463.0
 20
672.0
 10
460.26873549177418
 20
672.2690060743548202
 10
457.6424319468887347
 20
673.0656865448420376
 10
455.2220167377255962
 20
674.3594254277643358
 10
453.1005050633883116
 20
676.1005050633882547
 10
451.3594254277643358
 20
678.222016737725653
 10
450.0656865448419808
 20
680.6424319468887916
 10
449.2690060743547633
 20
683.2687354917741231
 10
449.0
 20
686.0
 10
449.0
 20
989.0
 10
449.0
 20
989.0
 10
449.2690060743547633
 20
991.7312645082257632
 10
450.0656865448419808
 20
994.3575680531112084
 10
451.3594254277643358
 20
996.7779832622744607
 10
453.1005050633883116
 20
998.8994949366116316
 10
455.2220167377255962
 20
1000.6405745722356642
 10
457.6424319468887347
 20
1001.9343134551579624
 10
460.26873549177418
 20
1002.7309939256451798
 10
463.0
 20
1003.0
 97
0
 75
0
 76
1
 47
0.0
 98
0
  0
LWPOLYLINE
  5
3B
330
1D
100
AcDbEntity
  8
0
  6
ByLayer
420
14147306
 48
1.0
 60
0
 67
0
370
-1
100
AcDbPolyline
 90
41
 70
1
 43
0.0
 38
0.0
 39
0.0
210
0.0
220
0.0
230
1.0
 10
463.0
 20
1003.0
 40
0.0
 41
0.0
 42
0.0
 10
866.0
 20
1003.0
 40
0.0
 41
0.0
 42
0.0
 10
866.0
 20
1003.0
 40
0.0
 41
0.0
 42
0.0
 10
868.7312645082257632
 20
1002.7309939256451798
 40
0.0
 41
0.0
 42
0.0
 10
871.3575680531112084
 20
1001.9343134551579624
 40
0.0
 41
0.0
 42
0.0
 10
873.7779832622744607
 20
1000.6405745722356642
 40
0.0
 41
0.0
 42
0.0
 10
875.8994949366116316
 20
998.8994949366116316
 40
0.0
 41
0.0
 42
0.0
 10
877.6405745722356642
 20
996.7779832622744607
 40
0.0
 41
0.0
 42
0.0
 10
878.9343134551579624
 20
994.3575680531112084
 40
0.0
 41
0.0
 42
0.0
 10
879.7309939256451798
 20
991.7312645082257632
 40
0.0
 41
0.0
 42
0.0
 10
880.0
 20
989.0
 40
0.0
 41
0.0
 42
0.0
 10
880.0
 20
686.0
 40
0.0
 41
0.0
 42
0.0
 10
880.0
 20
686.0
 40
0.0
 41
0.0
 42
0.0
 10
879.7309939256451798
 20
683.2687354917741231
 40
0.0
 41
0.0
 42
0.0
 10
878.9343134551579624
 20
680.6424319468887916
 40
0.0
 41
0.0
 42
0.0
 10
877.6405745722356642
 20
678.222016737725653
 40
0.0
 41
0.0
 42
0.0
 10
875.8994949366116316
 20
676.1005050633882547
 40
0.0
 41
0.0
 42
0.0
 10
873.7779832622744607
 20
674.3594254277643358
 40
0.0
 41
0.0
 42
0.0
 10
871.3575680531112084
 20
673.0656865448420376
 40
0.0
 41
0.0
 42
0.0
 10
868.7312645082257632
 20
672.2690060743548202
 40
0.0
 41
0.0
 42
0.0
 10
866.0
 20
672.0
 40
0.0
 41
0.0
 42
0.0
 10
463.0
 20
672.0
 40
0.0
 41
0.0
 42
0.0
 10
463.0
 20
672.0
 40
0.0
 41
0.0
 42
0.0
 10
460.26873549177418
 20
672.2690060743548202
 40
0.0
 41
0.0
 42
0.0
 10
457.6424319468887347
 20
673.0656865448420376
 40
0.0
 41
0.0
 42
0.0
 10
455.2220167377255962
 20
674.3594254277643358
 40
0.0
 41
0.0
 42
0.0
 10
453.1005050633883116
 20
676.1005050633882547
 40
0.0
 41
0.0
 42
0.0
 10
451.3594254277643358
 20
678.222016737725653
 40
0.0
 41
0.0
 42
0.0
 10
450.0656865448419808
 20
680.6424319468887916
 40
0.0
 41
0.0
 42
0.0
 10
449.2690060743547633
 20
683.2687354917741231
 40
0.0
 41
0.0
 42
0.0
 10
449.0
 20
686.0
 40
0.0
 41
0.0
 42
0.0
 10
449.0
 20
989.0
 40
0.0
 41
0.0
 42
0.0
 10
449.0
 20
989.0
 40
0.0
 41
0.0
 42
0.0
 10
449.2690060743547633
 20
991.7312645082257632
 40
0.0
 41
0.0
 42
0.0
 10
450.0656865448419808
 20
994.3575680531112084
 40
0.0
 41
0.0
 42
0.0
 10
451.3594254277643358
 20
996.7779832622744607
 40
0.0
 41
0.0
 42
0.0
 10
453.1005050633883116
 20
998.8994949366116316
 40
0.0
 41
0.0
 42
0.0
 10
455.2220167377255962
 20
1000.6405745722356642
 40
0.0
 41
0.0
 42
0.0
 10
457.6424319468887347
 20
1001.9343134551579624
 40
0.0
 41
0.0
 42
0.0
 10
460.26873549177418
 20
1002.7309939256451798
 40
0.0
 41
0.0
 42
0.0
 10
463.0
 20
1003.0
 40
0.0
 41
0.0
 42
0.0
  0
TEXT
  5
3C
330
1D
100
AcDbEntity
  8
0
  6
ByLayer
420
1910582
 48
1.0
 60
0
 67
0
370
-1
100
AcDbText
 39
0.0
 10
468.0
 20
971.0
 30
0.0
 40
16.0
  1
State Fields
 50
0.0
 41
1.0
 51
0.0
  7
Standard
 71
0
 72
0
 11
0.0
 21
0.0
 31
0.0
210
0.0
220
0.0
230
1.0
100
AcDbText
 73
0
  0
HATCH
  5
3D
330
1D
100
AcDbEntity
  8
0
  6
ByLayer
420
1008382
 48
1.0
 60
0
 67
0
370
-1
100
AcDbHatch
 30
0.0
210
0.0
220
0.0
230
1.0
  2
SOLID
 70
1
 71
0
 91
1
 92
2
 72
0
 73
1
 93
41
 10
474.0
 20
949.0
 10
488.0
 20
949.0
 10
488.0
 20
949.0
 10
488.3901806440322844
 20
948.9615705608064218
 10
488.765366864730197
 20
948.8477590650226148
 10
489.1111404660392168
 20
948.6629392246051111
 10
489.4142135623731065
 20
948.4142135623731065
 10
489.6629392246051111
 20
948.1111404660391599
 10
489.8477590650225579
 20
947.7653668647301402
 10
489.9615705608064786
 20
947.3901806440322844
 10
490.0
 20
947.0
 10
490.0
 20
933.0
 10
490.0
 20
933.0
 10
489.9615705608064786
 20
932.6098193559677156
 10
489.8477590650225579
 20
932.2346331352698598
 10
489.6629392246051111
 20
931.8888595339608401
 10
489.4142135623731065
 20
931.5857864376268935
 10
489.1111404660392168
 20
931.3370607753948889
 10
488.765366864730197
 20
931.1522409349773852
 10
488.3901806440322844
 20
931.0384294391935782
 10
488.0
 20
931.0
 10
474.0
 20
931.0
 10
474.0
 20
931.0
 10
473.6098193559677156
 20
931.0384294391935782
 10
473.234633135269803
 20
931.1522409349773852
 10
472.8888595339607832
 20
931.3370607753948889
 10
472.5857864376268935
 20
931.5857864376268935
 10
472.3370607753948889
 20
931.8888595339608401
 10
472.1522409349774421
 20
932.2346331352698598
 10
472.0384294391935214
 20
932.6098193559677156
 10
472.0
 20
933.0
 10
472.0
 20
947.0
 10
472.0
 20
947.0
 10
472.0384294391935214
 20
947.3901806440322844
 10
472.1522409349774421
 20
947.7653668647301402
 10
472.3370607753948889
 20
948.1111404660391599
 10
472.5857864376268935
 20
948.4142135623731065
 10
472.8888595339607832
 20
948.6629392246051111
 10
473.234633135269803
 20
948.8477590650226148
 10
473.6098193559677156
 20
948.9615705608064218
 10
474.0
 20
949.0
 97
0
 75
0
 76
1
 47
0.0
 98
0
  0
LWPOLYLINE
  5
3E
330
1D
100
AcDbEntity
  8
0
  6
ByLayer
420
1008382
 48
1.0
 60
0
 67
0
370
-1
100
AcDbPolyline
 90
41
 70
1
 43
0.0
 38
0.0
 39
0.0
210
0.0
220
0.0
230
1.0
 10
474.0
 20
949.0
 40
0.0
 41
0.0
 42
0.0
 10
488.0
 20
949.0
 40
0.0
 41
0.0
 42
0.0
 10
488.0
 20
949.0
 40
0.0
 41
0.0
 42
0.0
 10
488.3901806440322844
 20
948.9615705608064218
 40
0.0
 41
0.0
 42
0.0
 10
488.765366864730197
 20
948.8477590650226148
 40
0.0
 41
0.0
 42
0.0
 10
489.1111404660392168
 20
948.6629392246051111
 40
0.0
 41
0.0
 42
0.0
 10
489.4142135623731065
 20
948.4142135623731065
 40
0.0
 41
0.0
 42
0.0
 10
489.6629392246051111
 20
948.1111404660391599
 40
0.0
 41
0.0
 42
0.0
 10
489.8477590650225579
 20
947.7653668647301402
 40
0.0
 41
0.0
 42
0.0
 10
489.9615705608064786
 20
947.3901806440322844
 40
0.0
 41
0.0
 42
0.0
 10
490.0
 20
947.0
 40
0.0
 41
0.0
 42
0.0
 10
490.0
 20
933.0
 40
0.0
 41
0.0
 42
0.0
 10
490.0
 20
933.0
 40
0.0
 41
0.0
 42
0.0
 10
489.9615705608064786
 20
932.6098193559677156
 40
0.0
 41
0.0
 42
0.0
 10
489.8477590650225579
 20
932.2346331352698598
 40
0.0
 41
0.0
 42
0.0
 10
489.6629392246051111
 20
931.8888595339608401
 40
0.0
 41
0.0
 42
0.0
 10
489.4142135623731065
 20
931.5857864376268935
 40
0.0
 41
0.0
 42
0.0
 10
489.1111404660392168
 20
931.3370607753948889
 40
0.0
 41
0.0
 42
0.0
 10
488.765366864730197
 20
931.1522409349773852
 40
0.0
 41
0.0
 42
0.0
 10
488.3901806440322844
 20
931.0384294391935782
 40
0.0
 41
0.0
 42
0.0
 10
488.0
 20
931.0
 40
0.0
 41
0.0
 42
0.0
 10
474.0
 20
931.0
 40
0.0
 41
0.0
 42
0.0
 10
474.0
 20
931.0
 40
0.0
 41
0.0
 42
0.0
 10
473.6098193559677156
 20
931.0384294391935782
 40
0.0
 41
0.0
 42
0.0
 10
473.234633135269803
 20
931.1522409349773852
 40
0.0
 41
0.0
 42
0.0
 10
472.8888595339607832
 20
931.3370607753948889
 40
0.0
 41
0.0
 42
0.0
 10
472.5857864376268935
 20
931.5857864376268935
 40
0.0
 41
0.0
 42
0.0
 10
472.3370607753948889
 20
931.8888595339608401
 40
0.0
 41
0.0
 42
0.0
 10
472.1522409349774421
 20
932.2346331352698598
 40
0.0
 41
0.0
 42
0.0
 10
472.0384294391935214
 20
932.6098193559677156
 40
0.0
 41
0.0
 42
0.0
 10
472.0
 20
933.0
 40
0.0
 41
0.0
 42
0.0
 10
472.0
 20
947.0
 40
0.0
 41
0.0
 42
0.0
 10
472.0
 20
947.0
 40
0.0
 41
0.0
 42
0.0
 10
472.0384294391935214
 20
947.3901806440322844
 40
0.0
 41
0.0
 42
0.0
 10
472.1522409349774421
 20
947.7653668647301402
 40
0.0
 41
0.0
 42
0.0
 10
472.3370607753948889
 20
948.1111404660391599
 40
0.0
 41
0.0
 42
0.0
 10
472.5857864376268935
 20
948.4142135623731065
 40
0.0
 41
0.0
 42
0.0
 10
472.8888595339607832
 20
948.6629392246051111
 40
0.0
 41
0.0
 42
0.0
 10
473.234633135269803
 20
948.8477590650226148
 40
0.0
 41
0.0
 42
0.0
 10
473.6098193559677156
 20
948.9615705608064218
 40
0.0
 41
0.0
 42
0.0
 10
474.0
 20
949.0
 40
0.0
 41
0.0
 42
0.0
  0
LWPOLYLINE
  5
3F
330
1D
100
AcDbEntity
  8
0
  6
ByLayer
420
16777215
 48
1.0
 60
0
 67
0
370
-1
100
AcDbPolyline
 90
3
 70
0
 43
0.0
 38
0.0
 39
0.0
210
0.0
220
0.0
230
1.0
 10
475.9599999999999795
 20
939.2799999999999727
 40
0.0
 41
0.0
 42
0.0
 10
479.5600000000000023
 20
935.6800000000000637
 40
0.0
 41
0.0
 42
0.0
 10
486.0400000000000205
 20
943.6000000000000227
 40
0.0
 41
0.0
 42
0.0
  0
TEXT
  5
40
330
1D
100
AcDbEntity
  8
0
  6
ByLayer
420
4938352
 48
1.0
 60
0
 67
0
370
-1
100
AcDbText
 39
0.0
 10
503.0
 20
937.0
 30
0.0
 40
12.0
  1
CHECKED CHECKBOX
 50
0.0
 41
1.0
 51
0.0
  7
Standard
 71
0
 72
0
 11
0.0
 21
0.0
 31
0.0
210
0.0
220
0.0
230
1.0
100
AcDbText
 73
0
  0
HATCH
  5
41
330
1D
100
AcDbEntity
  8
0
  6
ByLayer
420
1008382
 48
1.0
 60
0
 67
0
370
-1
100
AcDbHatch
 30
0.0
210
0.0
220
0.0
230
1.0
  2
SOLID
 70
1
 71
0
 91
1
 92
2
 72
0
 73
1
 93
41
 10
474.0
 20
913.0
 10
488.0
 20
913.0
 10
488.0
 20
913.0
 10
488.3901806440322844
 20
912.9615705608064218
 10
488.765366864730197
 20
912.8477590650226148
 10
489.1111404660392168
 20
912.6629392246051111
 10
489.4142135623731065
 20
912.4142135623731065
 10
489.6629392246051111
 20
912.1111404660391599
 10
489.8477590650225579
 20
911.7653668647301402
 10
489.9615705608064786
 20
911.3901806440322844
 10
490.0
 20
911.0
 10
490.0
 20
897.0
 10
490.0
 20
897.0
 10
489.9615705608064786
 20
896.6098193559677156
 10
489.8477590650225579
 20
896.2346331352698598
 10
489.6629392246051111
 20
895.8888595339608401
 10
489.4142135623731065
 20
895.5857864376268935
 10
489.1111404660392168
 20
895.3370607753948889
 10
488.765366864730197
 20
895.1522409349773852
 10
488.3901806440322844
 20
895.0384294391935782
 10
488.0
 20
895.0
 10
474.0
 20
895.0
 10
474.0
 20
895.0
 10
473.6098193559677156
 20
895.0384294391935782
 10
473.234633135269803
 20
895.1522409349773852
 10
472.8888595339607832
 20
895.3370607753948889
 10
472.5857864376268935
 20
895.5857864376268935
 10
472.3370607753948889
 20
895.8888595339608401
 10
472.1522409349774421
 20
896.2346331352698598
 10
472.0384294391935214
 20
896.6098193559677156
 10
472.0
 20
897.0
 10
472.0
 20
911.0
 10
472.0
 20
911.0
 10
472.0384294391935214
 20
911.3901806440322844
 10
472.1522409349774421
 20
911.7653668647301402
 10
472.3370607753948889
 20
912.1111404660391599
 10
472.5857864376268935
 20
912.4142135623731065
 10
472.8888595339607832
 20
912.6629392246051111
 10
473.234633135269803
 20
912.8477590650226148
 10
473.6098193559677156
 20
912.9615705608064218
 10
474.0
 20
913.0
 97
0
 75
0
 76
1
 47
0.0
 98
0
  0
LWPOLYLINE
  5
42
330
1D
100
AcDbEntity
  8
0
  6
ByLayer
420
1008382
 48
1.0
 60
0
 67
0
370
-1
100
AcDbPolyline
 90
41
 70
1
 43
0.0
 38
0.0
 39
0.0
210
0.0
220
0.0
230
1.0
 10
474.0
 20
913.0
 40
0.0
 41
0.0
 42
0.0
 10
488.0
 20
913.0
 40
0.0
 41
0.0
 42
0.0
 10
488.0
 20
913.0
 40
0.0
 41
0.0
 42
0.0
 10
488.3901806440322844
 20
912.9615705608064218
 40
0.0
 41
0.0
 42
0.0
 10
488.765366864730197
 20
912.8477590650226148
 40
0.0
 41
0.0
 42
0.0
 10
489.1111404660392168
 20
912.6629392246051111
 40
0.0
 41
0.0
 42
0.0
 10
489.4142135623731065
 20
912.4142135623731065
 40
0.0
 41
0.0
 42
0.0
 10
489.6629392246051111
 20
912.1111404660391599
 40
0.0
 41
0.0
 42
0.0
 10
489.8477590650225579
 20
911.7653668647301402
 40
0.0
 41
0.0
 42
0.0
 10
489.9615705608064786
 20
911.3901806440322844
 40
0.0
 41
0.0
 42
0.0
 10
490.0
 20
911.0
 40
0.0
 41
0.0
 42
0.0
 10
490.0
 20
897.0
 40
0.0
 41
0.0
 42
0.0
 10
490.0
 20
897.0
 40
0.0
 41
0.0
 42
0.0
 10
489.9615705608064786
 20
896.6098193559677156
 40
0.0
 41
0.0
 42
0.0
 10
489.8477590650225579
 20
896.2346331352698598
 40
0.0
 41
0.0
 42
0.0
 10
489.6629392246051111
 20
895.8888595339608401
 40
0.0
 41
0.0
 42
0.0
 10
489.4142135623731065
 20
895.5857864376268935
 40
0.0
 41
0.0
 42
0.0
 10
489.1111404660392168
 20
895.3370607753948889
 40
0.0
 41
0.0
 42
0.0
 10
488.765366864730197
 20
895.1522409349773852
 40
0.0
 41
0.0
 42
0.0
 10
488.3901806440322844
 20
895.0384294391935782
 40
0.0
 41
0.0
 42
0.0
 10
488.0
 20
895.0
 40
0.0
 41
0.0
 42
0.0
 10
474.0
 20
895.0
 40
0.0
 41
0.0
 42
0.0
 10
474.0
 20
895.0
 40
0.0
 41
0.0
 42
0.0
 10
473.6098193559677156
 20
895.0384294391935782
 40
0.0
 41
0.0
 42
0.0
 10
473.234633135269803
 20
895.1522409349773852
 40
0.0
 41
0.0
 42
0.0
 10
472.8888595339607832
 20
895.3370607753948889
 40
0.0
 41
0.0
 42
0.0
 10
472.5857864376268935
 20
895.5857864376268935
 40
0.0
 41
0.0
 42
0.0
 10
472.3370607753948889
 20
895.8888595339608401
 40
0.0
 41
0.0
 42
0.0
 10
472.1522409349774421
 20
896.2346331352698598
 40
0.0
 41
0.0
 42
0.0
 10
472.0384294391935214
 20
896.6098193559677156
 40
0.0
 41
0.0
 42
0.0
 10
472.0
 20
897.0
 40
0.0
 41
0.0
 42
0.0
 10
472.0
 20
911.0
 40
0.0
 41
0.0
 42
0.0
 10
472.0
 20
911.0
 40
0.0
 41
0.0
 42
0.0
 10
472.0384294391935214
 20
911.3901806440322844
 40
0.0
 41
0.0
 42
0.0
 10
472.1522409349774421
 20
911.7653668647301402
 40
0.0
 41
0.0
 42
0.0
 10
472.3370607753948889
 20
912.1111404660391599
 40
0.0
 41
0.0
 42
0.0
 10
472.5857864376268935
 20
912.4142135623731065
 40
0.0
 41
0.0
 42
0.0
 10
472.8888595339607832
 20
912.6629392246051111
 40
0.0
 41
0.0
 42
0.0
 10
473.234633135269803
 20
912.8477590650226148
 40
0.0
 41
0.0
 42
0.0
 10
473.6098193559677156
 20
912.9615705608064218
 40
0.0
 41
0.0
 42
0.0
 10
474.0
 20
913.0
 40
0.0
 41
0.0
 42
0.0
  0
HATCH
  5
43
330
1D
100
AcDbEntity
  8
0
  6
ByLayer
420
16777215
 48
1.0
 60
0
 67
0
370
-1
100
AcDbHatch
 30
0.0
210
0.0
220
0.0
230
1.0
  2
SOLID
 70
1
 71
0
 91
1
 92
2
 72
0
 73
1
 93
4
 10
475.6000000000000227
 20
905.2599999999999909
 10
486.3999999999999773
 20
905.2599999999999909
 10
486.3999999999999773
 20
902.7400000000000091
 10
475.6000000000000227
 20
902.7400000000000091
 97
0
 75
0
 76
1
 47
0.0
 98
0
  0
LWPOLYLINE
  5
44
330
1D
100
AcDbEntity
  8
0
  6
ByLayer
420
16777215
 48
1.0
 60
0
 67
0
370
-1
100
AcDbPolyline
 90
4
 70
1
 43
0.0
 38
0.0
 39
0.0
210
0.0
220
0.0
230
1.0
 10
475.6000000000000227
 20
905.2599999999999909
 40
0.0
 41
0.0
 42
0.0
 10
486.3999999999999773
 20
905.2599999999999909
 40
0.0
 41
0.0
 42
0.0
 10
486.3999999999999773
 20
902.7400000000000091
 40
0.0
 41
0.0
 42
0.0
 10
475.6000000000000227
 20
902.7400000000000091
 40
0.0
 41
0.0
 42
0.0
  0
TEXT
  5
45
330
1D
100
AcDbEntity
  8
0
  6
ByLayer
420
4938352
 48
1.0
 60
0
 67
0
370
-1
100
AcDbText
 39
0.0
 10
503.0
 20
901.0
 30
0.0
 40
12.0
  1
INDETERMINATE CHECKBOX
 50
0.0
 41
1.0
 51
0.0
  7
Standard
 71
0
 72
0
 11
0.0
 21
0.0
 31
0.0
210
0.0
220
0.0
230
1.0
100
AcDbText
 73
0
  0
HATCH
  5
46
330
1D
100
AcDbEntity
  8
0
  6
ByLayer
420
16777215
 48
1.0
 60
0
 67
0
370
-1
100
AcDbHatch
 30
0.0
210
0.0
220
0.0
230
1.0
  2
SOLID
 70
1
 71
0
 91
1
 92
2
 72
0
 73
1
 93
28
 10
491.0
 20
868.0
 10
490.7743512096363929
 20
865.9973115943931816
 10
490.1087198111217731
 20
864.0950463479420023
 10
489.0364833422122501
 20
862.3885917832714085
 10
487.6114082167285915
 20
860.9635166577877499
 10
485.9049536520579977
 20
859.8912801888782269
 10
484.0026884056068184
 20
859.2256487903636071
 10
482.0
 20
859.0
 10
479.9973115943931816
 20
859.2256487903636071
 10
478.0950463479420023
 20
859.8912801888782269
 10
476.3885917832714085
 20
860.9635166577877499
 10
474.9635166577877499
 20
862.3885917832714085
 10
473.8912801888782269
 20
864.0950463479420023
 10
473.2256487903636071
 20
865.9973115943931816
 10
473.0
 20
868.0
 10
473.2256487903636071
 20
870.0026884056068184
 10
473.8912801888782269
 20
871.9049536520579977
 10
474.9635166577877499
 20
873.6114082167285915
 10
476.3885917832714085
 20
875.0364833422122501
 10
478.0950463479420023
 20
876.1087198111217731
 10
479.9973115943931816
 20
876.7743512096363929
 10
482.0
 20
877.0
 10
484.0026884056068184
 20
876.7743512096363929
 10
485.9049536520579977
 20
876.1087198111217731
 10
487.6114082167285915
 20
875.0364833422122501
 10
489.0364833422122501
 20
873.6114082167285915
 10
490.1087198111217731
 20
871.9049536520579977
 10
490.7743512096363929
 20
870.0026884056068184
 97
0
 75
0
 76
1
 47
0.0
 98
0
  0
LWPOLYLINE
  5
47
330
1D
100
AcDbEntity
  8
0
  6
ByLayer
420
1008382
 48
1.0
 60
0
 67
0
370
-1
100
AcDbPolyline
 90
28
 70
1
 43
0.0
 38
0.0
 39
0.0
210
0.0
220
0.0
230
1.0
 10
491.0
 20
868.0
 40
0.0
 41
0.0
 42
0.0
 10
490.7743512096363929
 20
865.9973115943931816
 40
0.0
 41
0.0
 42
0.0
 10
490.1087198111217731
 20
864.0950463479420023
 40
0.0
 41
0.0
 42
0.0
 10
489.0364833422122501
 20
862.3885917832714085
 40
0.0
 41
0.0
 42
0.0
 10
487.6114082167285915
 20
860.9635166577877499
 40
0.0
 41
0.0
 42
0.0
 10
485.9049536520579977
 20
859.8912801888782269
 40
0.0
 41
0.0
 42
0.0
 10
484.0026884056068184
 20
859.2256487903636071
 40
0.0
 41
0.0
 42
0.0
 10
482.0
 20
859.0
 40
0.0
 41
0.0
 42
0.0
 10
479.9973115943931816
 20
859.2256487903636071
 40
0.0
 41
0.0
 42
0.0
 10
478.0950463479420023
 20
859.8912801888782269
 40
0.0
 41
0.0
 42
0.0
 10
476.3885917832714085
 20
860.9635166577877499
 40
0.0
 41
0.0
 42
0.0
 10
474.9635166577877499
 20
862.3885917832714085
 40
0.0
 41
0.0
 42
0.0
 10
473.8912801888782269
 20
864.0950463479420023
 40
0.0
 41
0.0
 42
0.0
 10
473.2256487903636071
 20
865.9973115943931816
 40
0.0
 41
0.0
 42
0.0
 10
473.0
 20
868.0
 40
0.0
 41
0.0
 42
0.0
 10
473.2256487903636071
 20
870.0026884056068184
 40
0.0
 41
0.0
 42
0.0
 10
473.8912801888782269
 20
871.9049536520579977
 40
0.0
 41
0.0
 42
0.0
 10
474.9635166577877499
 20
873.6114082167285915
 40
0.0
 41
0.0
 42
0.0
 10
476.3885917832714085
 20
875.0364833422122501
 40
0.0
 41
0.0
 42
0.0
 10
478.0950463479420023
 20
876.1087198111217731
 40
0.0
 41
0.0
 42
0.0
 10
479.9973115943931816
 20
876.7743512096363929
 40
0.0
 41
0.0
 42
0.0
 10
482.0
 20
877.0
 40
0.0
 41
0.0
 42
0.0
 10
484.0026884056068184
 20
876.7743512096363929
 40
0.0
 41
0.0
 42
0.0
 10
485.9049536520579977
 20
876.1087198111217731
 40
0.0
 41
0.0
 42
0.0
 10
487.6114082167285915
 20
875.0364833422122501
 40
0.0
 41
0.0
 42
0.0
 10
489.0364833422122501
 20
873.6114082167285915
 40
0.0
 41
0.0
 42
0.0
 10
490.1087198111217731
 20
871.9049536520579977
 40
0.0
 41
0.0
 42
0.0
 10
490.7743512096363929
 20
870.0026884056068184
 40
0.0
 41
0.0
 42
0.0
  0
HATCH
  5
48
330
1D
100
AcDbEntity
  8
0
  6
ByLayer
420
1008382
 48
1.0
 60
0
 67
0
370
-1
100
AcDbHatch
 30
0.0
210
0.0
220
0.0
230
1.0
  2
SOLID
 70
1
 71
0
 91
1
 92
2
 72
0
 73
1
 93
24
 10
485.7799999999999727
 20
868.0
 10
485.6511996233726904
 20
867.0216640095125058
 10
485.273576026305193
 20
866.1100000000000136
 10
484.6728636328851394
 20
865.3271363671149174
 10
483.8899999999999864
 20
864.7264239736948639
 10
482.978335990487551
 20
864.3488003766273096
 10
482.0
 20
864.2200000000000273
 10
481.021664009512449
 20
864.3488003766273096
 10
480.1100000000000136
 20
864.7264239736948639
 10
479.3271363671148606
 20
865.3271363671149174
 10
478.726423973694807
 20
866.1100000000000136
 10
478.3488003766273096
 20
867.0216640095125058
 10
478.2200000000000273
 20
868.0
 10
478.3488003766273096
 20
868.9783359904874942
 10
478.726423973694807
 20
869.8899999999999864
 10
479.3271363671148606
 20
870.6728636328850826
 10
480.1100000000000136
 20
871.2735760263051361
 10
481.021664009512449
 20
871.6511996233726904
 10
482.0
 20
871.7799999999999727
 10
482.978335990487551
 20
871.6511996233726904
 10
483.8899999999999864
 20
871.2735760263051361
 10
484.6728636328851394
 20
870.6728636328850826
 10
485.273576026305193
 20
869.8899999999999864
 10
485.6511996233726904
 20
868.9783359904874942
 97
0
 75
0
 76
1
 47
0.0
 98
0
  0
LWPOLYLINE
  5
49
330
1D
100
AcDbEntity
  8
0
  6
ByLayer
420
1008382
 48
1.0
 60
0
 67
0
370
-1
100
AcDbPolyline
 90
24
 70
1
 43
0.0
 38
0.0
 39
0.0
210
0.0
220
0.0
230
1.0
 10
485.7799999999999727
 20
868.0
 40
0.0
 41
0.0
 42
0.0
 10
485.6511996233726904
 20
867.0216640095125058
 40
0.0
 41
0.0
 42
0.0
 10
485.273576026305193
 20
866.1100000000000136
 40
0.0
 41
0.0
 42
0.0
 10
484.6728636328851394
 20
865.3271363671149174
 40
0.0
 41
0.0
 42
0.0
 10
483.8899999999999864
 20
864.7264239736948639
 40
0.0
 41
0.0
 42
0.0
 10
482.978335990487551
 20
864.3488003766273096
 40
0.0
 41
0.0
 42
0.0
 10
482.0
 20
864.2200000000000273
 40
0.0
 41
0.0
 42
0.0
 10
481.021664009512449
 20
864.3488003766273096
 40
0.0
 41
0.0
 42
0.0
 10
480.1100000000000136
 20
864.7264239736948639
 40
0.0
 41
0.0
 42
0.0
 10
479.3271363671148606
 20
865.3271363671149174
 40
0.0
 41
0.0
 42
0.0
 10
478.726423973694807
 20
866.1100000000000136
 40
0.0
 41
0.0
 42
0.0
 10
478.3488003766273096
 20
867.0216640095125058
 40
0.0
 41
0.0
 42
0.0
 10
478.2200000000000273
 20
868.0
 40
0.0
 41
0.0
 42
0.0
 10
478.3488003766273096
 20
868.9783359904874942
 40
0.0
 41
0.0
 42
0.0
 10
478.726423973694807
 20
869.8899999999999864
 40
0.0
 41
0.0
 42
0.0
 10
479.3271363671148606
 20
870.6728636328850826
 40
0.0
 41
0.0
 42
0.0
 10
480.1100000000000136
 20
871.2735760263051361
 40
0.0
 41
0.0
 42
0.0
 10
481.021664009512449
 20
871.6511996233726904
 40
0.0
 41
0.0
 42
0.0
 10
482.0
 20
871.7799999999999727
 40
0.0
 41
0.0
 42
0.0
 10
482.978335990487551
 20
871.6511996233726904
 40
0.0
 41
0.0
 42
0.0
 10
483.8899999999999864
 20
871.2735760263051361
 40
0.0
 41
0.0
 42
0.0
 10
484.6728636328851394
 20
870.6728636328850826
 40
0.0
 41
0.0
 42
0.0
 10
485.273576026305193
 20
869.8899999999999864
 40
0.0
 41
0.0
 42
0.0
 10
485.6511996233726904
 20
868.9783359904874942
 40
0.0
 41
0.0
 42
0.0
  0
TEXT
  5
4A
330
1D
100
AcDbEntity
  8
0
  6
ByLayer
420
4938352
 48
1.0
 60
0
 67
0
370
-1
100
AcDbText
 39
0.0
 10
504.0
 20
866.5
 30
0.0
 40
12.0
  1
SELECTED RADIO BUTTON
 50
0.0
 41
1.0
 51
0.0
  7
Standard
 71
0
 72
0
 11
0.0
 21
0.0
 31
0.0
210
0.0
220
0.0
230
1.0
100
AcDbText
 73
0
  0
TEXT
  5
4B
330
1D
100
AcDbEntity
  8
0
  6
ByLayer
420
4938352
 48
1.0
 60
0
 67
0
370
-1
100
AcDbText
 39
0.0
 10
468.0
 20
836.5
 30
0.0
 40
12.0
  1
PROGRESS
 50
0.0
 41
1.0
 51
0.0
  7
Standard
 71
0
 72
0
 11
0.0
 21
0.0
 31
0.0
210
0.0
220
0.0
230
1.0
100
AcDbText
 73
0
  0
HATCH
  5
4C
330
1D
100
AcDbEntity
  8
0
  6
ByLayer
420
15132390
 48
1.0
 60
0
 67
0
370
-1
100
AcDbHatch
 30
0.0
210
0.0
220
0.0
230
1.0
  2
SOLID
 70
1
 71
0
 91
1
 92
2
 72
0
 73
1
 93
41
 10
477.0
 20
826.0
 10
852.0
 20
826.0
 10
852.0
 20
826.0
 10
853.7558128981451091
 20
825.8270675236290117
 10
855.4441508912858581
 20
825.314915792601596
 10
857.0001320971764471
 20
824.4832265107229432
 10
858.3639610306789791
 20
823.3639610306788654
 10
859.4832265107229432
 20
822.0001320971764471
 10
860.314915792601596
 20
820.4441508912857444
 10
860.8270675236291254
 20
818.7558128981452228
 10
861.0
 20
817.0
 10
861.0
 20
817.0
 10
861.0
 20
817.0
 10
860.8270675236291254
 20
815.2441871018547772
 10
860.314915792601596
 20
813.5558491087142556
 10
859.4832265107229432
 20
811.9998679028235529
 10
858.3639610306789791
 20
810.6360389693211346
 10
857.0001320971764471
 20
809.5167734892770568
 10
855.4441508912858581
 20
808.685084207398404
 10
853.7558128981451091
 20
808.1729324763709883
 10
852.0
 20
808.0
 10
477.0
 20
808.0
 10
477.0
 20
808.0
 10
475.2441871018548341
 20
808.1729324763709883
 10
473.5558491087141988
 20
808.685084207398404
 10
471.9998679028236097
 20
809.5167734892770568
 10
470.6360389693210777
 20
810.6360389693211346
 10
469.5167734892771136
 20
811.9998679028235529
 10
468.685084207398404
 20
813.5558491087142556
 10
468.1729324763709315
 20
815.2441871018547772
 10
468.0
 20
817.0
 10
468.0
 20
817.0
 10
468.0
 20
817.0
 10
468.1729324763709315
 20
818.7558128981452228
 10
468.685084207398404
 20
820.4441508912857444
 10
469.5167734892771136
 20
822.0001320971764471
 10
470.6360389693210777
 20
823.3639610306788654
 10
471.9998679028235529
 20
824.4832265107229432
 10
473.5558491087141988
 20
825.314915792601596
 10
475.2441871018548341
 20
825.8270675236290117
 10
477.0
 20
826.0
 97
0
 75
0
 76
1
 47
0.0
 98
0
  0
LWPOLYLINE
  5
4D
330
1D
100
AcDbEntity
  8
0
  6
ByLayer
420
9408413
 48
1.0
 60
0
 67
0
370
-1
100
AcDbPolyline
 90
41
 70
1
 43
0.0
 38
0.0
 39
0.0
210
0.0
220
0.0
230
1.0
 10
477.0
 20
826.0
 40
0.0
 41
0.0
 42
0.0
 10
852.0
 20
826.0
 40
0.0
 41
0.0
 42
0.0
 10
852.0
 20
826.0
 40
0.0
 41
0.0
 42
0.0
 10
853.7558128981451091
 20
825.8270675236290117
 40
0.0
 41
0.0
 42
0.0
 10
855.4441508912858581
 20
825.314915792601596
 40
0.0
 41
0.0
 42
0.0
 10
857.0001320971764471
 20
824.4832265107229432
 40
0.0
 41
0.0
 42
0.0
 10
858.3639610306789791
 20
823.3639610306788654
 40
0.0
 41
0.0
 42
0.0
 10
859.4832265107229432
 20
822.0001320971764471
 40
0.0
 41
0.0
 42
0.0
 10
860.314915792601596
 20
820.4441508912857444
 40
0.0
 41
0.0
 42
0.0
 10
860.8270675236291254
 20
818.7558128981452228
 40
0.0
 41
0.0
 42
0.0
 10
861.0
 20
817.0
 40
0.0
 41
0.0
 42
0.0
 10
861.0
 20
817.0
 40
0.0
 41
0.0
 42
0.0
 10
861.0
 20
817.0
 40
0.0
 41
0.0
 42
0.0
 10
860.8270675236291254
 20
815.2441871018547772
 40
0.0
 41
0.0
 42
0.0
 10
860.314915792601596
 20
813.5558491087142556
 40
0.0
 41
0.0
 42
0.0
 10
859.4832265107229432
 20
811.9998679028235529
 40
0.0
 41
0.0
 42
0.0
 10
858.3639610306789791
 20
810.6360389693211346
 40
0.0
 41
0.0
 42
0.0
 10
857.0001320971764471
 20
809.5167734892770568
 40
0.0
 41
0.0
 42
0.0
 10
855.4441508912858581
 20
808.685084207398404
 40
0.0
 41
0.0
 42
0.0
 10
853.7558128981451091
 20
808.1729324763709883
 40
0.0
 41
0.0
 42
0.0
 10
852.0
 20
808.0
 40
0.0
 41
0.0
 42
0.0
 10
477.0
 20
808.0
 40
0.0
 41
0.0
 42
0.0
 10
477.0
 20
808.0
 40
0.0
 41
0.0
 42
0.0
 10
475.2441871018548341
 20
808.1729324763709883
 40
0.0
 41
0.0
 42
0.0
 10
473.5558491087141988
 20
808.685084207398404
 40
0.0
 41
0.0
 42
0.0
 10
471.9998679028236097
 20
809.5167734892770568
 40
0.0
 41
0.0
 42
0.0
 10
470.6360389693210777
 20
810.6360389693211346
 40
0.0
 41
0.0
 42
0.0
 10
469.5167734892771136
 20
811.9998679028235529
 40
0.0
 41
0.0
 42
0.0
 10
468.685084207398404
 20
813.5558491087142556
 40
0.0
 41
0.0
 42
0.0
 10
468.1729324763709315
 20
815.2441871018547772
 40
0.0
 41
0.0
 42
0.0
 10
468.0
 20
817.0
 40
0.0
 41
0.0
 42
0.0
 10
468.0
 20
817.0
 40
0.0
 41
0.0
 42
0.0
 10
468.0
 20
817.0
 40
0.0
 41
0.0
 42
0.0
 10
468.1729324763709315
 20
818.7558128981452228
 40
0.0
 41
0.0
 42
0.0
 10
468.685084207398404
 20
820.4441508912857444
 40
0.0
 41
0.0
 42
0.0
 10
469.5167734892771136
 20
822.0001320971764471
 40
0.0
 41
0.0
 42
0.0
 10
470.6360389693210777
 20
823.3639610306788654
 40
0.0
 41
0.0
 42
0.0
 10
471.9998679028235529
 20
824.4832265107229432
 40
0.0
 41
0.0
 42
0.0
 10
473.5558491087141988
 20
825.314915792601596
 40
0.0
 41
0.0
 42
0.0
 10
475.2441871018548341
 20
825.8270675236290117
 40
0.0
 41
0.0
 42
0.0
 10
477.0
 20
826.0
 40
0.0
 41
0.0
 42
0.0
  0
HATCH
  5
4E
330
1D
100
AcDbEntity
  8
0
  6
ByLayer
420
1008382
 48
1.0
 60
0
 67
0
370
-1
100
AcDbHatch
 30
0.0
210
0.0
220
0.0
230
1.0
  2
SOLID
 70
1
 71
0
 91
1
 92
2
 72
0
 73
1
 93
41
 10
477.0
 20
825.0
 10
742.5199999999999818
 20
825.0
 10
742.5199999999999818
 20
825.0
 10
744.0807225761290056
 20
824.8462822432259145
 10
745.5814674589206561
 20
824.3910362600902317
 10
746.964561864156849
 20
823.6517568984203308
 10
748.1768542494924077
 20
822.6568542494924259
 10
749.1717568984203126
 20
821.4445618641568672
 10
749.9110362600903272
 20
820.061467458920788
 10
750.3662822432257826
 20
818.5607225761290238
 10
750.5199999999999818
 20
817.0
 10
750.5199999999999818
 20
817.0
 10
750.5199999999999818
 20
817.0
 10
750.3662822432257826
 20
815.4392774238709762
 10
749.9110362600903272
 20
813.938532541079212
 10
749.1717568984203126
 20
812.5554381358431328
 10
748.1768542494924077
 20
811.3431457505075741
 10
746.964561864156849
 20
810.3482431015796692
 10
745.5814674589206561
 20
809.6089637399097683
 10
744.0807225761290056
 20
809.1537177567740855
 10
742.5199999999999818
 20
809.0
 10
477.0
 20
809.0
 10
477.0
 20
809.0
 10
475.4392774238709762
 20
809.1537177567740855
 10
473.9385325410792689
 20
809.6089637399097683
 10
472.5554381358431897
 20
810.3482431015796692
 10
471.343145750507631
 20
811.3431457505075741
 10
470.3482431015796124
 20
812.5554381358431328
 10
469.6089637399097114
 20
813.938532541079212
 10
469.1537177567741423
 20
815.4392774238709762
 10
469.0
 20
817.0
 10
469.0
 20
817.0
 10
469.0
 20
817.0
 10
469.1537177567741423
 20
818.5607225761290238
 10
469.6089637399097114
 20
820.061467458920788
 10
470.3482431015796124
 20
821.4445618641568672
 10
471.343145750507631
 20
822.6568542494924259
 10
472.5554381358431897
 20
823.6517568984203308
 10
473.9385325410792689
 20
824.3910362600902317
 10
475.4392774238709762
 20
824.8462822432258008
 10
477.0
 20
825.0
 97
0
 75
0
 76
1
 47
0.0
 98
0
  0
LWPOLYLINE
  5
4F
330
1D
100
AcDbEntity
  8
0
  6
ByLayer
420
1008382
 48
1.0
 60
0
 67
0
370
-1
100
AcDbPolyline
 90
41
 70
1
 43
0.0
 38
0.0
 39
0.0
210
0.0
220
0.0
230
1.0
 10
477.0
 20
825.0
 40
0.0
 41
0.0
 42
0.0
 10
742.5199999999999818
 20
825.0
 40
0.0
 41
0.0
 42
0.0
 10
742.5199999999999818
 20
825.0
 40
0.0
 41
0.0
 42
0.0
 10
744.0807225761290056
 20
824.8462822432259145
 40
0.0
 41
0.0
 42
0.0
 10
745.5814674589206561
 20
824.3910362600902317
 40
0.0
 41
0.0
 42
0.0
 10
746.964561864156849
 20
823.6517568984203308
 40
0.0
 41
0.0
 42
0.0
 10
748.1768542494924077
 20
822.6568542494924259
 40
0.0
 41
0.0
 42
0.0
 10
749.1717568984203126
 20
821.4445618641568672
 40
0.0
 41
0.0
 42
0.0
 10
749.9110362600903272
 20
820.061467458920788
 40
0.0
 41
0.0
 42
0.0
 10
750.3662822432257826
 20
818.5607225761290238
 40
0.0
 41
0.0
 42
0.0
 10
750.5199999999999818
 20
817.0
 40
0.0
 41
0.0
 42
0.0
 10
750.5199999999999818
 20
817.0
 40
0.0
 41
0.0
 42
0.0
 10
750.5199999999999818
 20
817.0
 40
0.0
 41
0.0
 42
0.0
 10
750.3662822432257826
 20
815.4392774238709762
 40
0.0
 41
0.0
 42
0.0
 10
749.9110362600903272
 20
813.938532541079212
 40
0.0
 41
0.0
 42
0.0
 10
749.1717568984203126
 20
812.5554381358431328
 40
0.0
 41
0.0
 42
0.0
 10
748.1768542494924077
 20
811.3431457505075741
 40
0.0
 41
0.0
 42
0.0
 10
746.964561864156849
 20
810.3482431015796692
 40
0.0
 41
0.0
 42
0.0
 10
745.5814674589206561
 20
809.6089637399097683
 40
0.0
 41
0.0
 42
0.0
 10
744.0807225761290056
 20
809.1537177567740855
 40
0.0
 41
0.0
 42
0.0
 10
742.5199999999999818
 20
809.0
 40
0.0
 41
0.0
 42
0.0
 10
477.0
 20
809.0
 40
0.0
 41
0.0
 42
0.0
 10
477.0
 20
809.0
 40
0.0
 41
0.0
 42
0.0
 10
475.4392774238709762
 20
809.1537177567740855
 40
0.0
 41
0.0
 42
0.0
 10
473.9385325410792689
 20
809.6089637399097683
 40
0.0
 41
0.0
 42
0.0
 10
472.5554381358431897
 20
810.3482431015796692
 40
0.0
 41
0.0
 42
0.0
 10
471.343145750507631
 20
811.3431457505075741
 40
0.0
 41
0.0
 42
0.0
 10
470.3482431015796124
 20
812.5554381358431328
 40
0.0
 41
0.0
 42
0.0
 10
469.6089637399097114
 20
813.938532541079212
 40
0.0
 41
0.0
 42
0.0
 10
469.1537177567741423
 20
815.4392774238709762
 40
0.0
 41
0.0
 42
0.0
 10
469.0
 20
817.0
 40
0.0
 41
0.0
 42
0.0
 10
469.0
 20
817.0
 40
0.0
 41
0.0
 42
0.0
 10
469.0
 20
817.0
 40
0.0
 41
0.0
 42
0.0
 10
469.1537177567741423
 20
818.5607225761290238
 40
0.0
 41
0.0
 42
0.0
 10
469.6089637399097114
 20
820.061467458920788
 40
0.0
 41
0.0
 42
0.0
 10
470.3482431015796124
 20
821.4445618641568672
 40
0.0
 41
0.0
 42
0.0
 10
471.343145750507631
 20
822.6568542494924259
 40
0.0
 41
0.0
 42
0.0
 10
472.5554381358431897
 20
823.6517568984203308
 40
0.0
 41
0.0
 42
0.0
 10
473.9385325410792689
 20
824.3910362600902317
 40
0.0
 41
0.0
 42
0.0
 10
475.4392774238709762
 20
824.8462822432258008
 40
0.0
 41
0.0
 42
0.0
 10
477.0
 20
825.0
 40
0.0
 41
0.0
 42
0.0
  0
TEXT
  5
50
330
1D
100
AcDbEntity
  8
0
  6
ByLayer
420
1910582
 48
1.0
 60
0
 67
0
370
-1
100
AcDbText
 39
0.0
 10
648.4833335876464844
 20
813.0
 30
0.0
 40
16.0
  1
72%
 50
0.0
 41
1.0
 51
0.0
  7
Standard
 71
0
 72
0
 11
0.0
 21
0.0
 31
0.0
210
0.0
220
0.0
230
1.0
100
AcDbText
 73
0
  0
TEXT
  5
51
330
1D
100
AcDbEntity
  8
0
  6
ByLayer
420
4938352
 48
1.0
 60
0
 67
0
370
-1
100
AcDbText
 39
0.0
 10
468.0
 20
783.5
 30
0.0
 40
12.0
  1
METER
 50
0.0
 41
1.0
 51
0.0
  7
Standard
 71
0
 72
0
 11
0.0
 21
0.0
 31
0.0
210
0.0
220
0.0
230
1.0
100
AcDbText
 73
0
  0
HATCH
  5
52
330
1D
100
AcDbEntity
  8
0
  6
ByLayer
420
15132390
 48
1.0
 60
0
 67
0
370
-1
100
AcDbHatch
 30
0.0
210
0.0
220
0.0
230
1.0
  2
SOLID
 70
1
 71
0
 91
1
 92
2
 72
0
 73
1
 93
41
 10
478.0
 20
773.0
 10
851.0
 20
773.0
 10
851.0
 20
773.0
 10
852.9509032201613081
 20
772.8078528040323363
 10
854.8268343236509281
 20
772.2387953251128465
 10
856.5557023301960271
 20
771.3146961230254419
 10
858.0710678118655323
 20
770.0710678118655323
 10
859.3146961230254419
 20
768.5557023301960271
 10
860.2387953251128465
 20
766.8268343236509281
 10
860.8078528040323363
 20
764.9509032201613081
 10
861.0
 20
763.0
 10
861.0
 20
763.0
 10
861.0
 20
763.0
 10
860.8078528040323363
 20
761.0490967798386919
 10
860.2387953251128465
 20
759.1731656763490719
 10
859.3146961230254419
 20
757.4442976698039729
 10
858.0710678118655323
 20
755.9289321881344677
 10
856.5557023301960271
 20
754.6853038769745581
 10
854.8268343236509281
 20
753.7612046748871535
 10
852.9509032201613081
 20
753.1921471959676637
 10
851.0
 20
753.0
 10
478.0
 20
753.0
 10
478.0
 20
753.0
 10
476.0490967798386919
 20
753.1921471959676637
 10
474.1731656763491287
 20
753.7612046748871535
 10
472.4442976698039729
 20
754.6853038769745581
 10
470.9289321881345245
 20
755.9289321881344677
 10
469.6853038769745581
 20
757.4442976698039729
 10
468.7612046748871535
 20
759.1731656763490719
 10
468.1921471959677206
 20
761.0490967798386919
 10
468.0
 20
763.0
 10
468.0
 20
763.0
 10
468.0
 20
763.0
 10
468.1921471959677206
 20
764.9509032201613081
 10
468.7612046748871535
 20
766.8268343236509281
 10
469.6853038769745581
 20
768.5557023301960271
 10
470.9289321881345245
 20
770.0710678118655323
 10
472.4442976698039729
 20
771.3146961230254419
 10
474.1731656763490719
 20
772.2387953251128465
 10
476.0490967798386919
 20
772.8078528040323363
 10
478.0
 20
773.0
 97
0
 75
0
 76
1
 47
0.0
 98
0
  0
LWPOLYLINE
  5
53
330
1D
100
AcDbEntity
  8
0
  6
ByLayer
420
1910582
 48
1.0
 60
0
 67
0
370
-1
100
AcDbPolyline
 90
41
 70
1
 43
0.0
 38
0.0
 39
0.0
210
0.0
220
0.0
230
1.0
 10
478.0
 20
773.0
 40
0.0
 41
0.0
 42
0.0
 10
851.0
 20
773.0
 40
0.0
 41
0.0
 42
0.0
 10
851.0
 20
773.0
 40
0.0
 41
0.0
 42
0.0
 10
852.9509032201613081
 20
772.8078528040323363
 40
0.0
 41
0.0
 42
0.0
 10
854.8268343236509281
 20
772.2387953251128465
 40
0.0
 41
0.0
 42
0.0
 10
856.5557023301960271
 20
771.3146961230254419
 40
0.0
 41
0.0
 42
0.0
 10
858.0710678118655323
 20
770.0710678118655323
 40
0.0
 41
0.0
 42
0.0
 10
859.3146961230254419
 20
768.5557023301960271
 40
0.0
 41
0.0
 42
0.0
 10
860.2387953251128465
 20
766.8268343236509281
 40
0.0
 41
0.0
 42
0.0
 10
860.8078528040323363
 20
764.9509032201613081
 40
0.0
 41
0.0
 42
0.0
 10
861.0
 20
763.0
 40
0.0
 41
0.0
 42
0.0
 10
861.0
 20
763.0
 40
0.0
 41
0.0
 42
0.0
 10
861.0
 20
763.0
 40
0.0
 41
0.0
 42
0.0
 10
860.8078528040323363
 20
761.0490967798386919
 40
0.0
 41
0.0
 42
0.0
 10
860.2387953251128465
 20
759.1731656763490719
 40
0.0
 41
0.0
 42
0.0
 10
859.3146961230254419
 20
757.4442976698039729
 40
0.0
 41
0.0
 42
0.0
 10
858.0710678118655323
 20
755.9289321881344677
 40
0.0
 41
0.0
 42
0.0
 10
856.5557023301960271
 20
754.6853038769745581
 40
0.0
 41
0.0
 42
0.0
 10
854.8268343236509281
 20
753.7612046748871535
 40
0.0
 41
0.0
 42
0.0
 10
852.9509032201613081
 20
753.1921471959676637
 40
0.0
 41
0.0
 42
0.0
 10
851.0
 20
753.0
 40
0.0
 41
0.0
 42
0.0
 10
478.0
 20
753.0
 40
0.0
 41
0.0
 42
0.0
 10
478.0
 20
753.0
 40
0.0
 41
0.0
 42
0.0
 10
476.0490967798386919
 20
753.1921471959676637
 40
0.0
 41
0.0
 42
0.0
 10
474.1731656763491287
 20
753.7612046748871535
 40
0.0
 41
0.0
 42
0.0
 10
472.4442976698039729
 20
754.6853038769745581
 40
0.0
 41
0.0
 42
0.0
 10
470.9289321881345245
 20
755.9289321881344677
 40
0.0
 41
0.0
 42
0.0
 10
469.6853038769745581
 20
757.4442976698039729
 40
0.0
 41
0.0
 42
0.0
 10
468.7612046748871535
 20
759.1731656763490719
 40
0.0
 41
0.0
 42
0.0
 10
468.1921471959677206
 20
761.0490967798386919
 40
0.0
 41
0.0
 42
0.0
 10
468.0
 20
763.0
 40
0.0
 41
0.0
 42
0.0
 10
468.0
 20
763.0
 40
0.0
 41
0.0
 42
0.0
 10
468.0
 20
763.0
 40
0.0
 41
0.0
 42
0.0
 10
468.1921471959677206
 20
764.9509032201613081
 40
0.0
 41
0.0
 42
0.0
 10
468.7612046748871535
 20
766.8268343236509281
 40
0.0
 41
0.0
 42
0.0
 10
469.6853038769745581
 20
768.5557023301960271
 40
0.0
 41
0.0
 42
0.0
 10
470.9289321881345245
 20
770.0710678118655323
 40
0.0
 41
0.0
 42
0.0
 10
472.4442976698039729
 20
771.3146961230254419
 40
0.0
 41
0.0
 42
0.0
 10
474.1731656763490719
 20
772.2387953251128465
 40
0.0
 41
0.0
 42
0.0
 10
476.0490967798386919
 20
772.8078528040323363
 40
0.0
 41
0.0
 42
0.0
 10
478.0
 20
773.0
 40
0.0
 41
0.0
 42
0.0
  0
HATCH
  5
54
330
1D
100
AcDbEntity
  8
0
  6
ByLayer
420
3706428
 48
1.0
 60
0
 67
0
370
-1
100
AcDbHatch
 30
0.0
210
0.0
220
0.0
230
1.0
  2
SOLID
 70
1
 71
0
 91
1
 92
2
 72
0
 73
1
 93
41
 10
478.0
 20
772.0
 10
702.4199999999999591
 20
772.0
 10
702.4199999999999591
 20
772.0
 10
704.1758128981450682
 20
771.8270675236290117
 10
705.8641508912858171
 20
771.314915792601596
 10
707.4201320971764062
 20
770.4832265107229432
 10
708.7839610306789382
 20
769.3639610306788654
 10
709.9032265107229023
 20
768.0001320971764471
 10
710.734915792601555
 20
766.4441508912857444
 10
711.2470675236290845
 20
764.7558128981452228
 10
711.4199999999999591
 20
763.0
 10
711.4199999999999591
 20
763.0
 10
711.4199999999999591
 20
763.0
 10
711.2470675236290845
 20
761.2441871018547772
 10
710.734915792601555
 20
759.5558491087142556
 10
709.9032265107229023
 20
757.9998679028235529
 10
708.7839610306789382
 20
756.6360389693211346
 10
707.4201320971764062
 20
755.5167734892770568
 10
705.8641508912858171
 20
754.685084207398404
 10
704.1758128981450682
 20
754.1729324763709883
 10
702.4199999999999591
 20
754.0
 10
478.0
 20
754.0
 10
478.0
 20
754.0
 10
476.2441871018548341
 20
754.1729324763709883
 10
474.5558491087141988
 20
754.685084207398404
 10
472.9998679028236097
 20
755.5167734892770568
 10
471.6360389693210777
 20
756.6360389693211346
 10
470.5167734892771136
 20
757.9998679028235529
 10
469.685084207398404
 20
759.5558491087142556
 10
469.1729324763709315
 20
761.2441871018547772
 10
469.0
 20
763.0
 10
469.0
 20
763.0
 10
469.0
 20
763.0
 10
469.1729324763709315
 20
764.7558128981452228
 10
469.685084207398404
 20
766.4441508912857444
 10
470.5167734892771136
 20
768.0001320971764471
 10
471.6360389693210777
 20
769.3639610306788654
 10
472.9998679028235529
 20
770.4832265107229432
 10
474.5558491087141988
 20
771.314915792601596
 10
476.2441871018548341
 20
771.8270675236290117
 10
478.0
 20
772.0
 97
0
 75
0
 76
1
 47
0.0
 98
0
  0
LWPOLYLINE
  5
55
330
1D
100
AcDbEntity
  8
0
  6
ByLayer
420
3706428
 48
1.0
 60
0
 67
0
370
-1
100
AcDbPolyline
 90
41
 70
1
 43
0.0
 38
0.0
 39
0.0
210
0.0
220
0.0
230
1.0
 10
478.0
 20
772.0
 40
0.0
 41
0.0
 42
0.0
 10
702.4199999999999591
 20
772.0
 40
0.0
 41
0.0
 42
0.0
 10
702.4199999999999591
 20
772.0
 40
0.0
 41
0.0
 42
0.0
 10
704.1758128981450682
 20
771.8270675236290117
 40
0.0
 41
0.0
 42
0.0
 10
705.8641508912858171
 20
771.314915792601596
 40
0.0
 41
0.0
 42
0.0
 10
707.4201320971764062
 20
770.4832265107229432
 40
0.0
 41
0.0
 42
0.0
 10
708.7839610306789382
 20
769.3639610306788654
 40
0.0
 41
0.0
 42
0.0
 10
709.9032265107229023
 20
768.0001320971764471
 40
0.0
 41
0.0
 42
0.0
 10
710.734915792601555
 20
766.4441508912857444
 40
0.0
 41
0.0
 42
0.0
 10
711.2470675236290845
 20
764.7558128981452228
 40
0.0
 41
0.0
 42
0.0
 10
711.4199999999999591
 20
763.0
 40
0.0
 41
0.0
 42
0.0
 10
711.4199999999999591
 20
763.0
 40
0.0
 41
0.0
 42
0.0
 10
711.4199999999999591
 20
763.0
 40
0.0
 41
0.0
 42
0.0
 10
711.2470675236290845
 20
761.2441871018547772
 40
0.0
 41
0.0
 42
0.0
 10
710.734915792601555
 20
759.5558491087142556
 40
0.0
 41
0.0
 42
0.0
 10
709.9032265107229023
 20
757.9998679028235529
 40
0.0
 41
0.0
 42
0.0
 10
708.7839610306789382
 20
756.6360389693211346
 40
0.0
 41
0.0
 42
0.0
 10
707.4201320971764062
 20
755.5167734892770568
 40
0.0
 41
0.0
 42
0.0
 10
705.8641508912858171
 20
754.685084207398404
 40
0.0
 41
0.0
 42
0.0
 10
704.1758128981450682
 20
754.1729324763709883
 40
0.0
 41
0.0
 42
0.0
 10
702.4199999999999591
 20
754.0
 40
0.0
 41
0.0
 42
0.0
 10
478.0
 20
754.0
 40
0.0
 41
0.0
 42
0.0
 10
478.0
 20
754.0
 40
0.0
 41
0.0
 42
0.0
 10
476.2441871018548341
 20
754.1729324763709883
 40
0.0
 41
0.0
 42
0.0
 10
474.5558491087141988
 20
754.685084207398404
 40
0.0
 41
0.0
 42
0.0
 10
472.9998679028236097
 20
755.5167734892770568
 40
0.0
 41
0.0
 42
0.0
 10
471.6360389693210777
 20
756.6360389693211346
 40
0.0
 41
0.0
 42
0.0
 10
470.5167734892771136
 20
757.9998679028235529
 40
0.0
 41
0.0
 42
0.0
 10
469.685084207398404
 20
759.5558491087142556
 40
0.0
 41
0.0
 42
0.0
 10
469.1729324763709315
 20
761.2441871018547772
 40
0.0
 41
0.0
 42
0.0
 10
469.0
 20
763.0
 40
0.0
 41
0.0
 42
0.0
 10
469.0
 20
763.0
 40
0.0
 41
0.0
 42
0.0
 10
469.0
 20
763.0
 40
0.0
 41
0.0
 42
0.0
 10
469.1729324763709315
 20
764.7558128981452228
 40
0.0
 41
0.0
 42
0.0
 10
469.685084207398404
 20
766.4441508912857444
 40
0.0
 41
0.0
 42
0.0
 10
470.5167734892771136
 20
768.0001320971764471
 40
0.0
 41
0.0
 42
0.0
 10
471.6360389693210777
 20
769.3639610306788654
 40
0.0
 41
0.0
 42
0.0
 10
472.9998679028235529
 20
770.4832265107229432
 40
0.0
 41
0.0
 42
0.0
 10
474.5558491087141988
 20
771.314915792601596
 40
0.0
 41
0.0
 42
0.0
 10
476.2441871018548341
 20
771.8270675236290117
 40
0.0
 41
0.0
 42
0.0
 10
478.0
 20
772.0
 40
0.0
 41
0.0
 42
0.0
  0
HATCH
  5
56
330
1D
100
AcDbEntity
  8
0
  6
ByLayer
420
16777215
 48
1.0
 60
0
 67
0
370
-1
100
AcDbHatch
 30
0.0
210
0.0
220
0.0
230
1.0
  2
SOLID
 70
1
 71
0
 91
1
 92
2
 72
0
 73
1
 93
41
 10
14.0
 20
654.0
 10
417.0
 20
654.0
 10
417.0
 20
654.0
 10
419.73126450822582
 20
653.7309939256451798
 10
422.3575680531112653
 20
652.9343134551579624
 10
424.7779832622744607
 20
651.6405745722356642
 10
426.8994949366116884
 20
649.8994949366117453
 10
428.6405745722356073
 20
647.777983262274347
 10
429.9343134551580192
 20
645.3575680531112084
 10
430.7309939256452367
 20
642.7312645082258769
 10
431.0
 20
640.0
 10
431.0
 20
14.0
 10
431.0
 20
14.0
 10
430.7309939256452367
 20
11.2687354917741231
 10
429.9343134551580192
 20
8.6424319468887916
 10
428.6405745722356073
 20
6.222016737725653
 10
426.8994949366116884
 20
4.1005050633882547
 10
424.7779832622744607
 20
2.3594254277643358
 10
422.3575680531112653
 20
1.0656865448420376
 10
419.73126450822582
 20
0.2690060743548202
 10
417.0
 20
0.0
 10
14.0
 20
0.0
 10
14.0
 20
0.0
 10
11.2687354917742049
 20
0.2690060743548202
 10
8.6424319468887436
 20
1.0656865448420376
 10
6.2220167377255731
 20
2.3594254277643358
 10
4.1005050633883364
 20
4.1005050633882547
 10
2.3594254277643643
 20
6.222016737725653
 10
1.0656865448419861
 20
8.6424319468887916
 10
0.269006074354774
 20
11.2687354917741231
 10
0.0
 20
14.0
 10
0.0
 20
640.0
 10
0.0
 20
640.0
 10
0.269006074354774
 20
642.7312645082258769
 10
1.0656865448419843
 20
645.3575680531112084
 10
2.3594254277643643
 20
647.777983262274347
 10
4.1005050633883329
 20
649.8994949366117453
 10
6.2220167377255695
 20
651.6405745722356642
 10
8.6424319468887347
 20
652.9343134551579624
 10
11.2687354917741978
 20
653.7309939256451798
 10
13.9999999999999982
 20
654.0
 97
0
 75
0
 76
1
 47
0.0
 98
0
  0
LWPOLYLINE
  5
57
330
1D
100
AcDbEntity
  8
0
  6
ByLayer
420
14147306
 48
1.0
 60
0
 67
0
370
-1
100
AcDbPolyline
 90
41
 70
1
 43
0.0
 38
0.0
 39
0.0
210
0.0
220
0.0
230
1.0
 10
14.0
 20
654.0
 40
0.0
 41
0.0
 42
0.0
 10
417.0
 20
654.0
 40
0.0
 41
0.0
 42
0.0
 10
417.0
 20
654.0
 40
0.0
 41
0.0
 42
0.0
 10
419.73126450822582
 20
653.7309939256451798
 40
0.0
 41
0.0
 42
0.0
 10
422.3575680531112653
 20
652.9343134551579624
 40
0.0
 41
0.0
 42
0.0
 10
424.7779832622744607
 20
651.6405745722356642
 40
0.0
 41
0.0
 42
0.0
 10
426.8994949366116884
 20
649.8994949366117453
 40
0.0
 41
0.0
 42
0.0
 10
428.6405745722356073
 20
647.777983262274347
 40
0.0
 41
0.0
 42
0.0
 10
429.9343134551580192
 20
645.3575680531112084
 40
0.0
 41
0.0
 42
0.0
 10
430.7309939256452367
 20
642.7312645082258769
 40
0.0
 41
0.0
 42
0.0
 10
431.0
 20
640.0
 40
0.0
 41
0.0
 42
0.0
 10
431.0
 20
14.0
 40
0.0
 41
0.0
 42
0.0
 10
431.0
 20
14.0
 40
0.0
 41
0.0
 42
0.0
 10
430.7309939256452367
 20
11.2687354917741231
 40
0.0
 41
0.0
 42
0.0
 10
429.9343134551580192
 20
8.6424319468887916
 40
0.0
 41
0.0
 42
0.0
 10
428.6405745722356073
 20
6.222016737725653
 40
0.0
 41
0.0
 42
0.0
 10
426.8994949366116884
 20
4.1005050633882547
 40
0.0
 41
0.0
 42
0.0
 10
424.7779832622744607
 20
2.3594254277643358
 40
0.0
 41
0.0
 42
0.0
 10
422.3575680531112653
 20
1.0656865448420376
 40
0.0
 41
0.0
 42
0.0
 10
419.73126450822582
 20
0.2690060743548202
 40
0.0
 41
0.0
 42
0.0
 10
417.0
 20
0.0
 40
0.0
 41
0.0
 42
0.0
 10
14.0
 20
0.0
 40
0.0
 41
0.0
 42
0.0
 10
14.0
 20
0.0
 40
0.0
 41
0.0
 42
0.0
 10
11.2687354917742049
 20
0.2690060743548202
 40
0.0
 41
0.0
 42
0.0
 10
8.6424319468887436
 20
1.0656865448420376
 40
0.0
 41
0.0
 42
0.0
 10
6.2220167377255731
 20
2.3594254277643358
 40
0.0
 41
0.0
 42
0.0
 10
4.1005050633883364
 20
4.1005050633882547
 40
0.0
 41
0.0
 42
0.0
 10
2.3594254277643643
 20
6.222016737725653
 40
0.0
 41
0.0
 42
0.0
 10
1.0656865448419861
 20
8.6424319468887916
 40
0.0
 41
0.0
 42
0.0
 10
0.269006074354774
 20
11.2687354917741231
 40
0.0
 41
0.0
 42
0.0
 10
0.0
 20
14.0
 40
0.0
 41
0.0
 42
0.0
 10
0.0
 20
640.0
 40
0.0
 41
0.0
 42
0.0
 10
0.0
 20
640.0
 40
0.0
 41
0.0
 42
0.0
 10
0.269006074354774
 20
642.7312645082258769
 40
0.0
 41
0.0
 42
0.0
 10
1.0656865448419843
 20
645.3575680531112084
 40
0.0
 41
0.0
 42
0.0
 10
2.3594254277643643
 20
647.777983262274347
 40
0.0
 41
0.0
 42
0.0
 10
4.1005050633883329
 20
649.8994949366117453
 40
0.0
 41
0.0
 42
0.0
 10
6.2220167377255695
 20
651.6405745722356642
 40
0.0
 41
0.0
 42
0.0
 10
8.6424319468887347
 20
652.9343134551579624
 40
0.0
 41
0.0
 42
0.0
 10
11.2687354917741978
 20
653.7309939256451798
 40
0.0
 41
0.0
 42
0.0
 10
13.9999999999999982
 20
654.0
 40
0.0
 41
0.0
 42
0.0
  0
TEXT
  5
58
330
1D
100
AcDbEntity
  8
0
  6
ByLayer
420
1910582
 48
1.0
 60
0
 67
0
370
-1
100
AcDbText
 39
0.0
 10
19.0
 20
622.0
 30
0.0
 40
16.0
  1
Date & Time
 50
0.0
 41
1.0
 51
0.0
  7
Standard
 71
0
 72
0
 11
0.0
 21
0.0
 31
0.0
210
0.0
220
0.0
230
1.0
100
AcDbText
 73
0
  0
TEXT
  5
59
330
1D
100
AcDbEntity
  8
0
  6
ByLayer
420
4938352
 48
1.0
 60
0
 67
0
370
-1
100
AcDbText
 39
0.0
 10
19.0
 20
592.5
 30
0.0
 40
12.0
  1
DATE
 50
0.0
 41
1.0
 51
0.0
  7
Standard
 71
0
 72
0
 11
0.0
 21
0.0
 31
0.0
210
0.0
220
0.0
230
1.0
100
AcDbText
 73
0
  0
HATCH
  5
5A
330
1D
100
AcDbEntity
  8
0
  6
ByLayer
420
16777215
 48
1.0
 60
0
 67
0
370
-1
100
AcDbHatch
 30
0.0
210
0.0
220
0.0
230
1.0
  2
SOLID
 70
1
 71
0
 91
1
 92
2
 72
0
 73
1
 93
41
 10
27.0
 20
582.0
 10
404.0
 20
582.0
 10
404.0
 20
582.0
 10
405.5607225761290238
 20
581.8462822432259145
 10
407.0614674589207311
 20
581.3910362600902317
 10
408.4445618641568103
 20
580.6517568984204445
 10
409.656854249492369
 20
579.6568542494924259
 10
410.6517568984203876
 20
578.4445618641568672
 10
411.3910362600902886
 20
577.061467458920788
 10
411.8462822432258577
 20
575.5607225761290238
 10
412.0
 20
574.0
 10
412.0
 20
550.0
 10
412.0
 20
550.0
 10
411.8462822432258577
 20
548.4392774238709762
 10
411.3910362600902886
 20
546.938532541079212
 10
410.6517568984203876
 20
545.5554381358431328
 10
409.656854249492369
 20
544.3431457505075741
 10
408.4445618641568103
 20
543.3482431015795555
 10
407.0614674589207311
 20
542.6089637399096546
 10
405.5607225761290238
 20
542.1537177567741992
 10
404.0
 20
542.0
 10
27.0
 20
542.0
 10
27.0
 20
542.0
 10
25.4392774238709762
 20
542.1537177567741992
 10
23.9385325410792831
 20
542.6089637399096546
 10
22.5554381358431826
 20
543.3482431015795555
 10
21.3431457505076203
 20
544.3431457505075741
 10
20.3482431015796372
 20
545.5554381358431328
 10
19.6089637399097043
 20
546.938532541079212
 10
19.1537177567741566
 20
548.4392774238709762
 10
19.0
 20
550.0
 10
19.0
 20
574.0
 10
19.0
 20
574.0
 10
19.1537177567741566
 20
575.5607225761290238
 10
19.6089637399097043
 20
577.061467458920788
 10
20.3482431015796372
 20
578.4445618641568672
 10
21.3431457505076168
 20
579.6568542494924259
 10
22.5554381358431826
 20
580.6517568984204445
 10
23.938532541079276
 20
581.3910362600902317
 10
25.4392774238709691
 20
581.8462822432259145
 10
27.0
 20
582.0
 97
0
 75
0
 76
1
 47
0.0
 98
0
  0
LWPOLYLINE
  5
5B
330
1D
100
AcDbEntity
  8
0
  6
ByLayer
420
9741240
 48
1.0
 60
0
 67
0
370
-1
100
AcDbPolyline
 90
41
 70
1
 43
0.0
 38
0.0
 39
0.0
210
0.0
220
0.0
230
1.0
 10
27.0
 20
582.0
 40
0.0
 41
0.0
 42
0.0
 10
404.0
 20
582.0
 40
0.0
 41
0.0
 42
0.0
 10
404.0
 20
582.0
 40
0.0
 41
0.0
 42
0.0
 10
405.5607225761290238
 20
581.8462822432259145
 40
0.0
 41
0.0
 42
0.0
 10
407.0614674589207311
 20
581.3910362600902317
 40
0.0
 41
0.0
 42
0.0
 10
408.4445618641568103
 20
580.6517568984204445
 40
0.0
 41
0.0
 42
0.0
 10
409.656854249492369
 20
579.6568542494924259
 40
0.0
 41
0.0
 42
0.0
 10
410.6517568984203876
 20
578.4445618641568672
 40
0.0
 41
0.0
 42
0.0
 10
411.3910362600902886
 20
577.061467458920788
 40
0.0
 41
0.0
 42
0.0
 10
411.8462822432258577
 20
575.5607225761290238
 40
0.0
 41
0.0
 42
0.0
 10
412.0
 20
574.0
 40
0.0
 41
0.0
 42
0.0
 10
412.0
 20
550.0
 40
0.0
 41
0.0
 42
0.0
 10
412.0
 20
550.0
 40
0.0
 41
0.0
 42
0.0
 10
411.8462822432258577
 20
548.4392774238709762
 40
0.0
 41
0.0
 42
0.0
 10
411.3910362600902886
 20
546.938532541079212
 40
0.0
 41
0.0
 42
0.0
 10
410.6517568984203876
 20
545.5554381358431328
 40
0.0
 41
0.0
 42
0.0
 10
409.656854249492369
 20
544.3431457505075741
 40
0.0
 41
0.0
 42
0.0
 10
408.4445618641568103
 20
543.3482431015795555
 40
0.0
 41
0.0
 42
0.0
 10
407.0614674589207311
 20
542.6089637399096546
 40
0.0
 41
0.0
 42
0.0
 10
405.5607225761290238
 20
542.1537177567741992
 40
0.0
 41
0.0
 42
0.0
 10
404.0
 20
542.0
 40
0.0
 41
0.0
 42
0.0
 10
27.0
 20
542.0
 40
0.0
 41
0.0
 42
0.0
 10
27.0
 20
542.0
 40
0.0
 41
0.0
 42
0.0
 10
25.4392774238709762
 20
542.1537177567741992
 40
0.0
 41
0.0
 42
0.0
 10
23.9385325410792831
 20
542.6089637399096546
 40
0.0
 41
0.0
 42
0.0
 10
22.5554381358431826
 20
543.3482431015795555
 40
0.0
 41
0.0
 42
0.0
 10
21.3431457505076203
 20
544.3431457505075741
 40
0.0
 41
0.0
 42
0.0
 10
20.3482431015796372
 20
545.5554381358431328
 40
0.0
 41
0.0
 42
0.0
 10
19.6089637399097043
 20
546.938532541079212
 40
0.0
 41
0.0
 42
0.0
 10
19.1537177567741566
 20
548.4392774238709762
 40
0.0
 41
0.0
 42
0.0
 10
19.0
 20
550.0
 40
0.0
 41
0.0
 42
0.0
 10
19.0
 20
574.0
 40
0.0
 41
0.0
 42
0.0
 10
19.0
 20
574.0
 40
0.0
 41
0.0
 42
0.0
 10
19.1537177567741566
 20
575.5607225761290238
 40
0.0
 41
0.0
 42
0.0
 10
19.6089637399097043
 20
577.061467458920788
 40
0.0
 41
0.0
 42
0.0
 10
20.3482431015796372
 20
578.4445618641568672
 40
0.0
 41
0.0
 42
0.0
 10
21.3431457505076168
 20
579.6568542494924259
 40
0.0
 41
0.0
 42
0.0
 10
22.5554381358431826
 20
580.6517568984204445
 40
0.0
 41
0.0
 42
0.0
 10
23.938532541079276
 20
581.3910362600902317
 40
0.0
 41
0.0
 42
0.0
 10
25.4392774238709691
 20
581.8462822432259145
 40
0.0
 41
0.0
 42
0.0
 10
27.0
 20
582.0
 40
0.0
 41
0.0
 42
0.0
  0
TEXT
  5
5C
330
1D
100
AcDbEntity
  8
0
  6
ByLayer
420
1120295
 48
1.0
 60
0
 67
0
370
-1
100
AcDbText
 39
0.0
 10
31.0
 20
558.0
 30
0.0
 40
16.0
  1
2026-04-13
 50
0.0
 41
1.0
 51
0.0
  7
Standard
 71
0
 72
0
 11
0.0
 21
0.0
 31
0.0
210
0.0
220
0.0
230
1.0
100
AcDbText
 73
0
  0
TEXT
  5
5D
330
1D
100
AcDbEntity
  8
0
  6
ByLayer
420
4938352
 48
1.0
 60
0
 67
0
370
-1
100
AcDbText
 39
0.0
 10
19.0
 20
517.5
 30
0.0
 40
12.0
  1
TIME
 50
0.0
 41
1.0
 51
0.0
  7
Standard
 71
0
 72
0
 11
0.0
 21
0.0
 31
0.0
210
0.0
220
0.0
230
1.0
100
AcDbText
 73
0
  0
HATCH
  5
5E
330
1D
100
AcDbEntity
  8
0
  6
ByLayer
420
16777215
 48
1.0
 60
0
 67
0
370
-1
100
AcDbHatch
 30
0.0
210
0.0
220
0.0
230
1.0
  2
SOLID
 70
1
 71
0
 91
1
 92
2
 72
0
 73
1
 93
41
 10
27.0
 20
507.0
 10
404.0
 20
507.0
 10
404.0
 20
507.0
 10
405.5607225761290238
 20
506.8462822432258008
 10
407.0614674589207311
 20
506.3910362600903454
 10
408.4445618641568103
 20
505.6517568984203308
 10
409.656854249492369
 20
504.6568542494924259
 10
410.6517568984203876
 20
503.4445618641568672
 10
411.3910362600902886
 20
502.0614674589206743
 10
411.8462822432258577
 20
500.5607225761290238
 10
412.0
 20
499.0
 10
412.0
 20
475.0
 10
412.0
 20
475.0
 10
411.8462822432258577
 20
473.4392774238709762
 10
411.3910362600902886
 20
471.9385325410793257
 10
410.6517568984203876
 20
470.5554381358431328
 10
409.656854249492369
 20
469.3431457505075741
 10
408.4445618641568103
 20
468.3482431015796692
 10
407.0614674589207311
 20
467.6089637399096546
 10
405.5607225761290238
 20
467.1537177567741992
 10
404.0
 20
467.0
 10
27.0
 20
467.0
 10
27.0
 20
467.0
 10
25.4392774238709762
 20
467.1537177567741992
 10
23.9385325410792831
 20
467.6089637399096546
 10
22.5554381358431826
 20
468.3482431015796692
 10
21.3431457505076203
 20
469.3431457505075741
 10
20.3482431015796372
 20
470.5554381358431328
 10
19.6089637399097043
 20
471.9385325410793257
 10
19.1537177567741566
 20
473.4392774238709762
 10
19.0
 20
475.0
 10
19.0
 20
499.0
 10
19.0
 20
499.0
 10
19.1537177567741566
 20
500.5607225761290238
 10
19.6089637399097043
 20
502.0614674589206743
 10
20.3482431015796372
 20
503.4445618641568672
 10
21.3431457505076168
 20
504.6568542494924259
 10
22.5554381358431826
 20
505.6517568984203308
 10
23.938532541079276
 20
506.3910362600903454
 10
25.4392774238709691
 20
506.8462822432258008
 10
27.0
 20
507.0
 97
0
 75
0
 76
1
 47
0.0
 98
0
  0
LWPOLYLINE
  5
5F
330
1D
100
AcDbEntity
  8
0
  6
ByLayer
420
9741240
 48
1.0
 60
0
 67
0
370
-1
100
AcDbPolyline
 90
41
 70
1
 43
0.0
 38
0.0
 39
0.0
210
0.0
220
0.0
230
1.0
 10
27.0
 20
507.0
 40
0.0
 41
0.0
 42
0.0
 10
404.0
 20
507.0
 40
0.0
 41
0.0
 42
0.0
 10
404.0
 20
507.0
 40
0.0
 41
0.0
 42
0.0
 10
405.5607225761290238
 20
506.8462822432258008
 40
0.0
 41
0.0
 42
0.0
 10
407.0614674589207311
 20
506.3910362600903454
 40
0.0
 41
0.0
 42
0.0
 10
408.4445618641568103
 20
505.6517568984203308
 40
0.0
 41
0.0
 42
0.0
 10
409.656854249492369
 20
504.6568542494924259
 40
0.0
 41
0.0
 42
0.0
 10
410.6517568984203876
 20
503.4445618641568672
 40
0.0
 41
0.0
 42
0.0
 10
411.3910362600902886
 20
502.0614674589206743
 40
0.0
 41
0.0
 42
0.0
 10
411.8462822432258577
 20
500.5607225761290238
 40
0.0
 41
0.0
 42
0.0
 10
412.0
 20
499.0
 40
0.0
 41
0.0
 42
0.0
 10
412.0
 20
475.0
 40
0.0
 41
0.0
 42
0.0
 10
412.0
 20
475.0
 40
0.0
 41
0.0
 42
0.0
 10
411.8462822432258577
 20
473.4392774238709762
 40
0.0
 41
0.0
 42
0.0
 10
411.3910362600902886
 20
471.9385325410793257
 40
0.0
 41
0.0
 42
0.0
 10
410.6517568984203876
 20
470.5554381358431328
 40
0.0
 41
0.0
 42
0.0
 10
409.656854249492369
 20
469.3431457505075741
 40
0.0
 41
0.0
 42
0.0
 10
408.4445618641568103
 20
468.3482431015796692
 40
0.0
 41
0.0
 42
0.0
 10
407.0614674589207311
 20
467.6089637399096546
 40
0.0
 41
0.0
 42
0.0
 10
405.5607225761290238
 20
467.1537177567741992
 40
0.0
 41
0.0
 42
0.0
 10
404.0
 20
467.0
 40
0.0
 41
0.0
 42
0.0
 10
27.0
 20
467.0
 40
0.0
 41
0.0
 42
0.0
 10
27.0
 20
467.0
 40
0.0
 41
0.0
 42
0.0
 10
25.4392774238709762
 20
467.1537177567741992
 40
0.0
 41
0.0
 42
0.0
 10
23.9385325410792831
 20
467.6089637399096546
 40
0.0
 41
0.0
 42
0.0
 10
22.5554381358431826
 20
468.3482431015796692
 40
0.0
 41
0.0
 42
0.0
 10
21.3431457505076203
 20
469.3431457505075741
 40
0.0
 41
0.0
 42
0.0
 10
20.3482431015796372
 20
470.5554381358431328
 40
0.0
 41
0.0
 42
0.0
 10
19.6089637399097043
 20
471.9385325410793257
 40
0.0
 41
0.0
 42
0.0
 10
19.1537177567741566
 20
473.4392774238709762
 40
0.0
 41
0.0
 42
0.0
 10
19.0
 20
475.0
 40
0.0
 41
0.0
 42
0.0
 10
19.0
 20
499.0
 40
0.0
 41
0.0
 42
0.0
 10
19.0
 20
499.0
 40
0.0
 41
0.0
 42
0.0
 10
19.1537177567741566
 20
500.5607225761290238
 40
0.0
 41
0.0
 42
0.0
 10
19.6089637399097043
 20
502.0614674589206743
 40
0.0
 41
0.0
 42
0.0
 10
20.3482431015796372
 20
503.4445618641568672
 40
0.0
 41
0.0
 42
0.0
 10
21.3431457505076168
 20
504.6568542494924259
 40
0.0
 41
0.0
 42
0.0
 10
22.5554381358431826
 20
505.6517568984203308
 40
0.0
 41
0.0
 42
0.0
 10
23.938532541079276
 20
506.3910362600903454
 40
0.0
 41
0.0
 42
0.0
 10
25.4392774238709691
 20
506.8462822432258008
 40
0.0
 41
0.0
 42
0.0
 10
27.0
 20
507.0
 40
0.0
 41
0.0
 42
0.0
  0
TEXT
  5
60
330
1D
100
AcDbEntity
  8
0
  6
ByLayer
420
1120295
 48
1.0
 60
0
 67
0
370
-1
100
AcDbText
 39
0.0
 10
31.0
 20
483.0
 30
0.0
 40
16.0
  1
14:35
 50
0.0
 41
1.0
 51
0.0
  7
Standard
 71
0
 72
0
 11
0.0
 21
0.0
 31
0.0
210
0.0
220
0.0
230
1.0
100
AcDbText
 73
0
  0
TEXT
  5
61
330
1D
100
AcDbEntity
  8
0
  6
ByLayer
420
4938352
 48
1.0
 60
0
 67
0
370
-1
100
AcDbText
 39
0.0
 10
19.0
 20
442.5
 30
0.0
 40
12.0
  1
DATETIME
 50
0.0
 41
1.0
 51
0.0
  7
Standard
 71
0
 72
0
 11
0.0
 21
0.0
 31
0.0
210
0.0
220
0.0
230
1.0
100
AcDbText
 73
0
  0
HATCH
  5
62
330
1D
100
AcDbEntity
  8
0
  6
ByLayer
420
16777215
 48
1.0
 60
0
 67
0
370
-1
100
AcDbHatch
 30
0.0
210
0.0
220
0.0
230
1.0
  2
SOLID
 70
1
 71
0
 91
1
 92
2
 72
0
 73
1
 93
41
 10
27.0
 20
432.0
 10
404.0
 20
432.0
 10
404.0
 20
432.0
 10
405.5607225761290238
 20
431.8462822432258008
 10
407.0614674589207311
 20
431.3910362600903454
 10
408.4445618641568103
 20
430.6517568984203308
 10
409.656854249492369
 20
429.6568542494924259
 10
410.6517568984203876
 20
428.4445618641568672
 10
411.3910362600902886
 20
427.0614674589206743
 10
411.8462822432258577
 20
425.5607225761290238
 10
412.0
 20
424.0
 10
412.0
 20
400.0
 10
412.0
 20
400.0
 10
411.8462822432258577
 20
398.4392774238709762
 10
411.3910362600902886
 20
396.9385325410793257
 10
410.6517568984203876
 20
395.5554381358431328
 10
409.656854249492369
 20
394.3431457505075741
 10
408.4445618641568103
 20
393.3482431015796692
 10
407.0614674589207311
 20
392.6089637399096546
 10
405.5607225761290238
 20
392.1537177567741992
 10
404.0
 20
392.0
 10
27.0
 20
392.0
 10
27.0
 20
392.0
 10
25.4392774238709762
 20
392.1537177567741992
 10
23.9385325410792831
 20
392.6089637399096546
 10
22.5554381358431826
 20
393.3482431015796692
 10
21.3431457505076203
 20
394.3431457505075741
 10
20.3482431015796372
 20
395.5554381358431328
 10
19.6089637399097043
 20
396.9385325410793257
 10
19.1537177567741566
 20
398.4392774238709762
 10
19.0
 20
400.0
 10
19.0
 20
424.0
 10
19.0
 20
424.0
 10
19.1537177567741566
 20
425.5607225761290238
 10
19.6089637399097043
 20
427.0614674589206743
 10
20.3482431015796372
 20
428.4445618641568672
 10
21.3431457505076168
 20
429.6568542494924259
 10
22.5554381358431826
 20
430.6517568984203308
 10
23.938532541079276
 20
431.3910362600903454
 10
25.4392774238709691
 20
431.8462822432258008
 10
27.0
 20
432.0
 97
0
 75
0
 76
1
 47
0.0
 98
0
  0
LWPOLYLINE
  5
63
330
1D
100
AcDbEntity
  8
0
  6
ByLayer
420
9741240
 48
1.0
 60
0
 67
0
370
-1
100
AcDbPolyline
 90
41
 70
1
 43
0.0
 38
0.0
 39
0.0
210
0.0
220
0.0
230
1.0
 10
27.0
 20
432.0
 40
0.0
 41
0.0
 42
0.0
 10
404.0
 20
432.0
 40
0.0
 41
0.0
 42
0.0
 10
404.0
 20
432.0
 40
0.0
 41
0.0
 42
0.0
 10
405.5607225761290238
 20
431.8462822432258008
 40
0.0
 41
0.0
 42
0.0
 10
407.0614674589207311
 20
431.3910362600903454
 40
0.0
 41
0.0
 42
0.0
 10
408.4445618641568103
 20
430.6517568984203308
 40
0.0
 41
0.0
 42
0.0
 10
409.656854249492369
 20
429.6568542494924259
 40
0.0
 41
0.0
 42
0.0
 10
410.6517568984203876
 20
428.4445618641568672
 40
0.0
 41
0.0
 42
0.0
 10
411.3910362600902886
 20
427.0614674589206743
 40
0.0
 41
0.0
 42
0.0
 10
411.8462822432258577
 20
425.5607225761290238
 40
0.0
 41
0.0
 42
0.0
 10
412.0
 20
424.0
 40
0.0
 41
0.0
 42
0.0
 10
412.0
 20
400.0
 40
0.0
 41
0.0
 42
0.0
 10
412.0
 20
400.0
 40
0.0
 41
0.0
 42
0.0
 10
411.8462822432258577
 20
398.4392774238709762
 40
0.0
 41
0.0
 42
0.0
 10
411.3910362600902886
 20
396.9385325410793257
 40
0.0
 41
0.0
 42
0.0
 10
410.6517568984203876
 20
395.5554381358431328
 40
0.0
 41
0.0
 42
0.0
 10
409.656854249492369
 20
394.3431457505075741
 40
0.0
 41
0.0
 42
0.0
 10
408.4445618641568103
 20
393.3482431015796692
 40
0.0
 41
0.0
 42
0.0
 10
407.0614674589207311
 20
392.6089637399096546
 40
0.0
 41
0.0
 42
0.0
 10
405.5607225761290238
 20
392.1537177567741992
 40
0.0
 41
0.0
 42
0.0
 10
404.0
 20
392.0
 40
0.0
 41
0.0
 42
0.0
 10
27.0
 20
392.0
 40
0.0
 41
0.0
 42
0.0
 10
27.0
 20
392.0
 40
0.0
 41
0.0
 42
0.0
 10
25.4392774238709762
 20
392.1537177567741992
 40
0.0
 41
0.0
 42
0.0
 10
23.9385325410792831
 20
392.6089637399096546
 40
0.0
 41
0.0
 42
0.0
 10
22.5554381358431826
 20
393.3482431015796692
 40
0.0
 41
0.0
 42
0.0
 10
21.3431457505076203
 20
394.3431457505075741
 40
0.0
 41
0.0
 42
0.0
 10
20.3482431015796372
 20
395.5554381358431328
 40
0.0
 41
0.0
 42
0.0
 10
19.6089637399097043
 20
396.9385325410793257
 40
0.0
 41
0.0
 42
0.0
 10
19.1537177567741566
 20
398.4392774238709762
 40
0.0
 41
0.0
 42
0.0
 10
19.0
 20
400.0
 40
0.0
 41
0.0
 42
0.0
 10
19.0
 20
424.0
 40
0.0
 41
0.0
 42
0.0
 10
19.0
 20
424.0
 40
0.0
 41
0.0
 42
0.0
 10
19.1537177567741566
 20
425.5607225761290238
 40
0.0
 41
0.0
 42
0.0
 10
19.6089637399097043
 20
427.0614674589206743
 40
0.0
 41
0.0
 42
0.0
 10
20.3482431015796372
 20
428.4445618641568672
 40
0.0
 41
0.0
 42
0.0
 10
21.3431457505076168
 20
429.6568542494924259
 40
0.0
 41
0.0
 42
0.0
 10
22.5554381358431826
 20
430.6517568984203308
 40
0.0
 41
0.0
 42
0.0
 10
23.938532541079276
 20
431.3910362600903454
 40
0.0
 41
0.0
 42
0.0
 10
25.4392774238709691
 20
431.8462822432258008
 40
0.0
 41
0.0
 42
0.0
 10
27.0
 20
432.0
 40
0.0
 41
0.0
 42
0.0
  0
TEXT
  5
64
330
1D
100
AcDbEntity
  8
0
  6
ByLayer
420
1120295
 48
1.0
 60
0
 67
0
370
-1
100
AcDbText
 39
0.0
 10
31.0
 20
408.0
 30
0.0
 40
16.0
  1
2026-04-13 14:35
 50
0.0
 41
1.0
 51
0.0
  7
Standard
 71
0
 72
0
 11
0.0
 21
0.0
 31
0.0
210
0.0
220
0.0
230
1.0
100
AcDbText
 73
0
  0
HATCH
  5
65
330
1D
100
AcDbEntity
  8
0
  6
ByLayer
420
16777215
 48
1.0
 60
0
 67
0
370
-1
100
AcDbHatch
 30
0.0
210
0.0
220
0.0
230
1.0
  2
SOLID
 70
1
 71
0
 91
1
 92
2
 72
0
 73
1
 93
41
 10
463.0
 20
654.0
 10
866.0
 20
654.0
 10
866.0
 20
654.0
 10
868.7312645082257632
 20
653.7309939256451798
 10
871.3575680531112084
 20
652.9343134551579624
 10
873.7779832622744607
 20
651.6405745722356642
 10
875.8994949366116316
 20
649.8994949366117453
 10
877.6405745722356642
 20
647.777983262274347
 10
878.9343134551579624
 20
645.3575680531112084
 10
879.7309939256451798
 20
642.7312645082258769
 10
880.0
 20
640.0
 10
880.0
 20
14.0
 10
880.0
 20
14.0
 10
879.7309939256451798
 20
11.2687354917741231
 10
878.9343134551579624
 20
8.6424319468887916
 10
877.6405745722356642
 20
6.222016737725653
 10
875.8994949366116316
 20
4.1005050633882547
 10
873.7779832622744607
 20
2.3594254277643358
 10
871.3575680531112084
 20
1.0656865448420376
 10
868.7312645082257632
 20
0.2690060743548202
 10
866.0
 20
0.0
 10
463.0
 20
0.0
 10
463.0
 20
0.0
 10
460.26873549177418
 20
0.2690060743548202
 10
457.6424319468887347
 20
1.0656865448420376
 10
455.2220167377255962
 20
2.3594254277643358
 10
453.1005050633883116
 20
4.1005050633882547
 10
451.3594254277643358
 20
6.222016737725653
 10
450.0656865448419808
 20
8.6424319468887916
 10
449.2690060743547633
 20
11.2687354917741231
 10
449.0
 20
14.0
 10
449.0
 20
640.0
 10
449.0
 20
640.0
 10
449.2690060743547633
 20
642.7312645082258769
 10
450.0656865448419808
 20
645.3575680531112084
 10
451.3594254277643358
 20
647.777983262274347
 10
453.1005050633883116
 20
649.8994949366117453
 10
455.2220167377255962
 20
651.6405745722356642
 10
457.6424319468887347
 20
652.9343134551579624
 10
460.26873549177418
 20
653.7309939256451798
 10
463.0
 20
654.0
 97
0
 75
0
 76
1
 47
0.0
 98
0
  0
LWPOLYLINE
  5
66
330
1D
100
AcDbEntity
  8
0
  6
ByLayer
420
14147306
 48
1.0
 60
0
 67
0
370
-1
100
AcDbPolyline
 90
41
 70
1
 43
0.0
 38
0.0
 39
0.0
210
0.0
220
0.0
230
1.0
 10
463.0
 20
654.0
 40
0.0
 41
0.0
 42
0.0
 10
866.0
 20
654.0
 40
0.0
 41
0.0
 42
0.0
 10
866.0
 20
654.0
 40
0.0
 41
0.0
 42
0.0
 10
868.7312645082257632
 20
653.7309939256451798
 40
0.0
 41
0.0
 42
0.0
 10
871.3575680531112084
 20
652.9343134551579624
 40
0.0
 41
0.0
 42
0.0
 10
873.7779832622744607
 20
651.6405745722356642
 40
0.0
 41
0.0
 42
0.0
 10
875.8994949366116316
 20
649.8994949366117453
 40
0.0
 41
0.0
 42
0.0
 10
877.6405745722356642
 20
647.777983262274347
 40
0.0
 41
0.0
 42
0.0
 10
878.9343134551579624
 20
645.3575680531112084
 40
0.0
 41
0.0
 42
0.0
 10
879.7309939256451798
 20
642.7312645082258769
 40
0.0
 41
0.0
 42
0.0
 10
880.0
 20
640.0
 40
0.0
 41
0.0
 42
0.0
 10
880.0
 20
14.0
 40
0.0
 41
0.0
 42
0.0
 10
880.0
 20
14.0
 40
0.0
 41
0.0
 42
0.0
 10
879.7309939256451798
 20
11.2687354917741231
 40
0.0
 41
0.0
 42
0.0
 10
878.9343134551579624
 20
8.6424319468887916
 40
0.0
 41
0.0
 42
0.0
 10
877.6405745722356642
 20
6.222016737725653
 40
0.0
 41
0.0
 42
0.0
 10
875.8994949366116316
 20
4.1005050633882547
 40
0.0
 41
0.0
 42
0.0
 10
873.7779832622744607
 20
2.3594254277643358
 40
0.0
 41
0.0
 42
0.0
 10
871.3575680531112084
 20
1.0656865448420376
 40
0.0
 41
0.0
 42
0.0
 10
868.7312645082257632
 20
0.2690060743548202
 40
0.0
 41
0.0
 42
0.0
 10
866.0
 20
0.0
 40
0.0
 41
0.0
 42
0.0
 10
463.0
 20
0.0
 40
0.0
 41
0.0
 42
0.0
 10
463.0
 20
0.0
 40
0.0
 41
0.0
 42
0.0
 10
460.26873549177418
 20
0.2690060743548202
 40
0.0
 41
0.0
 42
0.0
 10
457.6424319468887347
 20
1.0656865448420376
 40
0.0
 41
0.0
 42
0.0
 10
455.2220167377255962
 20
2.3594254277643358
 40
0.0
 41
0.0
 42
0.0
 10
453.1005050633883116
 20
4.1005050633882547
 40
0.0
 41
0.0
 42
0.0
 10
451.3594254277643358
 20
6.222016737725653
 40
0.0
 41
0.0
 42
0.0
 10
450.0656865448419808
 20
8.6424319468887916
 40
0.0
 41
0.0
 42
0.0
 10
449.2690060743547633
 20
11.2687354917741231
 40
0.0
 41
0.0
 42
0.0
 10
449.0
 20
14.0
 40
0.0
 41
0.0
 42
0.0
 10
449.0
 20
640.0
 40
0.0
 41
0.0
 42
0.0
 10
449.0
 20
640.0
 40
0.0
 41
0.0
 42
0.0
 10
449.2690060743547633
 20
642.7312645082258769
 40
0.0
 41
0.0
 42
0.0
 10
450.0656865448419808
 20
645.3575680531112084
 40
0.0
 41
0.0
 42
0.0
 10
451.3594254277643358
 20
647.777983262274347
 40
0.0
 41
0.0
 42
0.0
 10
453.1005050633883116
 20
649.8994949366117453
 40
0.0
 41
0.0
 42
0.0
 10
455.2220167377255962
 20
651.6405745722356642
 40
0.0
 41
0.0
 42
0.0
 10
457.6424319468887347
 20
652.9343134551579624
 40
0.0
 41
0.0
 42
0.0
 10
460.26873549177418
 20
653.7309939256451798
 40
0.0
 41
0.0
 42
0.0
 10
463.0
 20
654.0
 40
0.0
 41
0.0
 42
0.0
  0
TEXT
  5
67
330
1D
100
AcDbEntity
  8
0
  6
ByLayer
420
1910582
 48
1.0
 60
0
 67
0
370
-1
100
AcDbText
 39
0.0
 10
468.0
 20
622.0
 30
0.0
 40
16.0
  1
Additional Inputs
 50
0.0
 41
1.0
 51
0.0
  7
Standard
 71
0
 72
0
 11
0.0
 21
0.0
 31
0.0
210
0.0
220
0.0
230
1.0
100
AcDbText
 73
0
  0
TEXT
  5
68
330
1D
100
AcDbEntity
  8
0
  6
ByLayer
420
4938352
 48
1.0
 60
0
 67
0
370
-1
100
AcDbText
 39
0.0
 10
468.0
 20
592.5
 30
0.0
 40
12.0
  1
MONTH
 50
0.0
 41
1.0
 51
0.0
  7
Standard
 71
0
 72
0
 11
0.0
 21
0.0
 31
0.0
210
0.0
220
0.0
230
1.0
100
AcDbText
 73
0
  0
HATCH
  5
69
330
1D
100
AcDbEntity
  8
0
  6
ByLayer
420
16777215
 48
1.0
 60
0
 67
0
370
-1
100
AcDbHatch
 30
0.0
210
0.0
220
0.0
230
1.0
  2
SOLID
 70
1
 71
0
 91
1
 92
2
 72
0
 73
1
 93
41
 10
476.0
 20
582.0
 10
853.0
 20
582.0
 10
853.0
 20
582.0
 10
854.5607225761290238
 20
581.8462822432259145
 10
856.0614674589206743
 20
581.3910362600902317
 10
857.4445618641568672
 20
580.6517568984204445
 10
858.6568542494924259
 20
579.6568542494924259
 10
859.6517568984203308
 20
578.4445618641568672
 10
860.3910362600903454
 20
577.061467458920788
 10
860.8462822432258008
 20
575.5607225761290238
 10
861.0
 20
574.0
 10
861.0
 20
550.0
 10
861.0
 20
550.0
 10
860.8462822432258008
 20
548.4392774238709762
 10
860.3910362600903454
 20
546.938532541079212
 10
859.6517568984203308
 20
545.5554381358431328
 10
858.6568542494924259
 20
544.3431457505075741
 10
857.4445618641568672
 20
543.3482431015795555
 10
856.0614674589206743
 20
542.6089637399096546
 10
854.5607225761290238
 20
542.1537177567741992
 10
853.0
 20
542.0
 10
476.0
 20
542.0
 10
476.0
 20
542.0
 10
474.4392774238709762
 20
542.1537177567741992
 10
472.9385325410792689
 20
542.6089637399096546
 10
471.5554381358431897
 20
543.3482431015795555
 10
470.343145750507631
 20
544.3431457505075741
 10
469.3482431015796124
 20
545.5554381358431328
 10
468.6089637399097114
 20
546.938532541079212
 10
468.1537177567741423
 20
548.4392774238709762
 10
468.0
 20
550.0
 10
468.0
 20
574.0
 10
468.0
 20
574.0
 10
468.1537177567741423
 20
575.5607225761290238
 10
468.6089637399097114
 20
577.061467458920788
 10
469.3482431015796124
 20
578.4445618641568672
 10
470.343145750507631
 20
579.6568542494924259
 10
471.5554381358431897
 20
580.6517568984204445
 10
472.9385325410792689
 20
581.3910362600902317
 10
474.4392774238709762
 20
581.8462822432259145
 10
476.0
 20
582.0
 97
0
 75
0
 76
1
 47
0.0
 98
0
  0
LWPOLYLINE
  5
6A
330
1D
100
AcDbEntity
  8
0
  6
ByLayer
420
9741240
 48
1.0
 60
0
 67
0
370
-1
100
AcDbPolyline
 90
41
 70
1
 43
0.0
 38
0.0
 39
0.0
210
0.0
220
0.0
230
1.0
 10
476.0
 20
582.0
 40
0.0
 41
0.0
 42
0.0
 10
853.0
 20
582.0
 40
0.0
 41
0.0
 42
0.0
 10
853.0
 20
582.0
 40
0.0
 41
0.0
 42
0.0
 10
854.5607225761290238
 20
581.8462822432259145
 40
0.0
 41
0.0
 42
0.0
 10
856.0614674589206743
 20
581.3910362600902317
 40
0.0
 41
0.0
 42
0.0
 10
857.4445618641568672
 20
580.6517568984204445
 40
0.0
 41
0.0
 42
0.0
 10
858.6568542494924259
 20
579.6568542494924259
 40
0.0
 41
0.0
 42
0.0
 10
859.6517568984203308
 20
578.4445618641568672
 40
0.0
 41
0.0
 42
0.0
 10
860.3910362600903454
 20
577.061467458920788
 40
0.0
 41
0.0
 42
0.0
 10
860.8462822432258008
 20
575.5607225761290238
 40
0.0
 41
0.0
 42
0.0
 10
861.0
 20
574.0
 40
0.0
 41
0.0
 42
0.0
 10
861.0
 20
550.0
 40
0.0
 41
0.0
 42
0.0
 10
861.0
 20
550.0
 40
0.0
 41
0.0
 42
0.0
 10
860.8462822432258008
 20
548.4392774238709762
 40
0.0
 41
0.0
 42
0.0
 10
860.3910362600903454
 20
546.938532541079212
 40
0.0
 41
0.0
 42
0.0
 10
859.6517568984203308
 20
545.5554381358431328
 40
0.0
 41
0.0
 42
0.0
 10
858.6568542494924259
 20
544.3431457505075741
 40
0.0
 41
0.0
 42
0.0
 10
857.4445618641568672
 20
543.3482431015795555
 40
0.0
 41
0.0
 42
0.0
 10
856.0614674589206743
 20
542.6089637399096546
 40
0.0
 41
0.0
 42
0.0
 10
854.5607225761290238
 20
542.1537177567741992
 40
0.0
 41
0.0
 42
0.0
 10
853.0
 20
542.0
 40
0.0
 41
0.0
 42
0.0
 10
476.0
 20
542.0
 40
0.0
 41
0.0
 42
0.0
 10
476.0
 20
542.0
 40
0.0
 41
0.0
 42
0.0
 10
474.4392774238709762
 20
542.1537177567741992
 40
0.0
 41
0.0
 42
0.0
 10
472.9385325410792689
 20
542.6089637399096546
 40
0.0
 41
0.0
 42
0.0
 10
471.5554381358431897
 20
543.3482431015795555
 40
0.0
 41
0.0
 42
0.0
 10
470.343145750507631
 20
544.3431457505075741
 40
0.0
 41
0.0
 42
0.0
 10
469.3482431015796124
 20
545.5554381358431328
 40
0.0
 41
0.0
 42
0.0
 10
468.6089637399097114
 20
546.938532541079212
 40
0.0
 41
0.0
 42
0.0
 10
468.1537177567741423
 20
548.4392774238709762
 40
0.0
 41
0.0
 42
0.0
 10
468.0
 20
550.0
 40
0.0
 41
0.0
 42
0.0
 10
468.0
 20
574.0
 40
0.0
 41
0.0
 42
0.0
 10
468.0
 20
574.0
 40
0.0
 41
0.0
 42
0.0
 10
468.1537177567741423
 20
575.5607225761290238
 40
0.0
 41
0.0
 42
0.0
 10
468.6089637399097114
 20
577.061467458920788
 40
0.0
 41
0.0
 42
0.0
 10
469.3482431015796124
 20
578.4445618641568672
 40
0.0
 41
0.0
 42
0.0
 10
470.343145750507631
 20
579.6568542494924259
 40
0.0
 41
0.0
 42
0.0
 10
471.5554381358431897
 20
580.6517568984204445
 40
0.0
 41
0.0
 42
0.0
 10
472.9385325410792689
 20
581.3910362600902317
 40
0.0
 41
0.0
 42
0.0
 10
474.4392774238709762
 20
581.8462822432259145
 40
0.0
 41
0.0
 42
0.0
 10
476.0
 20
582.0
 40
0.0
 41
0.0
 42
0.0
  0
TEXT
  5
6B
330
1D
100
AcDbEntity
  8
0
  6
ByLayer
420
1120295
 48
1.0
 60
0
 67
0
370
-1
100
AcDbText
 39
0.0
 10
480.0
 20
558.0
 30
0.0
 40
16.0
  1
2026-04
 50
0.0
 41
1.0
 51
0.0
  7
Standard
 71
0
 72
0
 11
0.0
 21
0.0
 31
0.0
210
0.0
220
0.0
230
1.0
100
AcDbText
 73
0
  0
TEXT
  5
6C
330
1D
100
AcDbEntity
  8
0
  6
ByLayer
420
4938352
 48
1.0
 60
0
 67
0
370
-1
100
AcDbText
 39
0.0
 10
468.0
 20
517.5
 30
0.0
 40
12.0
  1
WEEK
 50
0.0
 41
1.0
 51
0.0
  7
Standard
 71
0
 72
0
 11
0.0
 21
0.0
 31
0.0
210
0.0
220
0.0
230
1.0
100
AcDbText
 73
0
  0
HATCH
  5
6D
330
1D
100
AcDbEntity
  8
0
  6
ByLayer
420
16777215
 48
1.0
 60
0
 67
0
370
-1
100
AcDbHatch
 30
0.0
210
0.0
220
0.0
230
1.0
  2
SOLID
 70
1
 71
0
 91
1
 92
2
 72
0
 73
1
 93
41
 10
476.0
 20
507.0
 10
853.0
 20
507.0
 10
853.0
 20
507.0
 10
854.5607225761290238
 20
506.8462822432258008
 10
856.0614674589206743
 20
506.3910362600903454
 10
857.4445618641568672
 20
505.6517568984203308
 10
858.6568542494924259
 20
504.6568542494924259
 10
859.6517568984203308
 20
503.4445618641568672
 10
860.3910362600903454
 20
502.0614674589206743
 10
860.8462822432258008
 20
500.5607225761290238
 10
861.0
 20
499.0
 10
861.0
 20
475.0
 10
861.0
 20
475.0
 10
860.8462822432258008
 20
473.4392774238709762
 10
860.3910362600903454
 20
471.9385325410793257
 10
859.6517568984203308
 20
470.5554381358431328
 10
858.6568542494924259
 20
469.3431457505075741
 10
857.4445618641568672
 20
468.3482431015796692
 10
856.0614674589206743
 20
467.6089637399096546
 10
854.5607225761290238
 20
467.1537177567741992
 10
853.0
 20
467.0
 10
476.0
 20
467.0
 10
476.0
 20
467.0
 10
474.4392774238709762
 20
467.1537177567741992
 10
472.9385325410792689
 20
467.6089637399096546
 10
471.5554381358431897
 20
468.3482431015796692
 10
470.343145750507631
 20
469.3431457505075741
 10
469.3482431015796124
 20
470.5554381358431328
 10
468.6089637399097114
 20
471.9385325410793257
 10
468.1537177567741423
 20
473.4392774238709762
 10
468.0
 20
475.0
 10
468.0
 20
499.0
 10
468.0
 20
499.0
 10
468.1537177567741423
 20
500.5607225761290238
 10
468.6089637399097114
 20
502.0614674589206743
 10
469.3482431015796124
 20
503.4445618641568672
 10
470.343145750507631
 20
504.6568542494924259
 10
471.5554381358431897
 20
505.6517568984203308
 10
472.9385325410792689
 20
506.3910362600903454
 10
474.4392774238709762
 20
506.8462822432258008
 10
476.0
 20
507.0
 97
0
 75
0
 76
1
 47
0.0
 98
0
  0
LWPOLYLINE
  5
6E
330
1D
100
AcDbEntity
  8
0
  6
ByLayer
420
9741240
 48
1.0
 60
0
 67
0
370
-1
100
AcDbPolyline
 90
41
 70
1
 43
0.0
 38
0.0
 39
0.0
210
0.0
220
0.0
230
1.0
 10
476.0
 20
507.0
 40
0.0
 41
0.0
 42
0.0
 10
853.0
 20
507.0
 40
0.0
 41
0.0
 42
0.0
 10
853.0
 20
507.0
 40
0.0
 41
0.0
 42
0.0
 10
854.5607225761290238
 20
506.8462822432258008
 40
0.0
 41
0.0
 42
0.0
 10
856.0614674589206743
 20
506.3910362600903454
 40
0.0
 41
0.0
 42
0.0
 10
857.4445618641568672
 20
505.6517568984203308
 40
0.0
 41
0.0
 42
0.0
 10
858.6568542494924259
 20
504.6568542494924259
 40
0.0
 41
0.0
 42
0.0
 10
859.6517568984203308
 20
503.4445618641568672
 40
0.0
 41
0.0
 42
0.0
 10
860.3910362600903454
 20
502.0614674589206743
 40
0.0
 41
0.0
 42
0.0
 10
860.8462822432258008
 20
500.5607225761290238
 40
0.0
 41
0.0
 42
0.0
 10
861.0
 20
499.0
 40
0.0
 41
0.0
 42
0.0
 10
861.0
 20
475.0
 40
0.0
 41
0.0
 42
0.0
 10
861.0
 20
475.0
 40
0.0
 41
0.0
 42
0.0
 10
860.8462822432258008
 20
473.4392774238709762
 40
0.0
 41
0.0
 42
0.0
 10
860.3910362600903454
 20
471.9385325410793257
 40
0.0
 41
0.0
 42
0.0
 10
859.6517568984203308
 20
470.5554381358431328
 40
0.0
 41
0.0
 42
0.0
 10
858.6568542494924259
 20
469.3431457505075741
 40
0.0
 41
0.0
 42
0.0
 10
857.4445618641568672
 20
468.3482431015796692
 40
0.0
 41
0.0
 42
0.0
 10
856.0614674589206743
 20
467.6089637399096546
 40
0.0
 41
0.0
 42
0.0
 10
854.5607225761290238
 20
467.1537177567741992
 40
0.0
 41
0.0
 42
0.0
 10
853.0
 20
467.0
 40
0.0
 41
0.0
 42
0.0
 10
476.0
 20
467.0
 40
0.0
 41
0.0
 42
0.0
 10
476.0
 20
467.0
 40
0.0
 41
0.0
 42
0.0
 10
474.4392774238709762
 20
467.1537177567741992
 40
0.0
 41
0.0
 42
0.0
 10
472.9385325410792689
 20
467.6089637399096546
 40
0.0
 41
0.0
 42
0.0
 10
471.5554381358431897
 20
468.3482431015796692
 40
0.0
 41
0.0
 42
0.0
 10
470.343145750507631
 20
469.3431457505075741
 40
0.0
 41
0.0
 42
0.0
 10
469.3482431015796124
 20
470.5554381358431328
 40
0.0
 41
0.0
 42
0.0
 10
468.6089637399097114
 20
471.9385325410793257
 40
0.0
 41
0.0
 42
0.0
 10
468.1537177567741423
 20
473.4392774238709762
 40
0.0
 41
0.0
 42
0.0
 10
468.0
 20
475.0
 40
0.0
 41
0.0
 42
0.0
 10
468.0
 20
499.0
 40
0.0
 41
0.0
 42
0.0
 10
468.0
 20
499.0
 40
0.0
 41
0.0
 42
0.0
 10
468.1537177567741423
 20
500.5607225761290238
 40
0.0
 41
0.0
 42
0.0
 10
468.6089637399097114
 20
502.0614674589206743
 40
0.0
 41
0.0
 42
0.0
 10
469.3482431015796124
 20
503.4445618641568672
 40
0.0
 41
0.0
 42
0.0
 10
470.343145750507631
 20
504.6568542494924259
 40
0.0
 41
0.0
 42
0.0
 10
471.5554381358431897
 20
505.6517568984203308
 40
0.0
 41
0.0
 42
0.0
 10
472.9385325410792689
 20
506.3910362600903454
 40
0.0
 41
0.0
 42
0.0
 10
474.4392774238709762
 20
506.8462822432258008
 40
0.0
 41
0.0
 42
0.0
 10
476.0
 20
507.0
 40
0.0
 41
0.0
 42
0.0
  0
TEXT
  5
6F
330
1D
100
AcDbEntity
  8
0
  6
ByLayer
420
1120295
 48
1.0
 60
0
 67
0
370
-1
100
AcDbText
 39
0.0
 10
480.0
 20
483.0
 30
0.0
 40
16.0
  1
2026-W16
 50
0.0
 41
1.0
 51
0.0
  7
Standard
 71
0
 72
0
 11
0.0
 21
0.0
 31
0.0
210
0.0
220
0.0
230
1.0
100
AcDbText
 73
0
  0
TEXT
  5
70
330
1D
100
AcDbEntity
  8
0
  6
ByLayer
420
4938352
 48
1.0
 60
0
 67
0
370
-1
100
AcDbText
 39
0.0
 10
468.0
 20
442.5
 30
0.0
 40
12.0
  1
NUMBER
 50
0.0
 41
1.0
 51
0.0
  7
Standard
 71
0
 72
0
 11
0.0
 21
0.0
 31
0.0
210
0.0
220
0.0
230
1.0
100
AcDbText
 73
0
  0
HATCH
  5
71
330
1D
100
AcDbEntity
  8
0
  6
ByLayer
420
16777215
 48
1.0
 60
0
 67
0
370
-1
100
AcDbHatch
 30
0.0
210
0.0
220
0.0
230
1.0
  2
SOLID
 70
1
 71
0
 91
1
 92
2
 72
0
 73
1
 93
41
 10
476.0
 20
432.0
 10
853.0
 20
432.0
 10
853.0
 20
432.0
 10
854.5607225761290238
 20
431.8462822432258008
 10
856.0614674589206743
 20
431.3910362600903454
 10
857.4445618641568672
 20
430.6517568984203308
 10
858.6568542494924259
 20
429.6568542494924259
 10
859.6517568984203308
 20
428.4445618641568672
 10
860.3910362600903454
 20
427.0614674589206743
 10
860.8462822432258008
 20
425.5607225761290238
 10
861.0
 20
424.0
 10
861.0
 20
400.0
 10
861.0
 20
400.0
 10
860.8462822432258008
 20
398.4392774238709762
 10
860.3910362600903454
 20
396.9385325410793257
 10
859.6517568984203308
 20
395.5554381358431328
 10
858.6568542494924259
 20
394.3431457505075741
 10
857.4445618641568672
 20
393.3482431015796692
 10
856.0614674589206743
 20
392.6089637399096546
 10
854.5607225761290238
 20
392.1537177567741992
 10
853.0
 20
392.0
 10
476.0
 20
392.0
 10
476.0
 20
392.0
 10
474.4392774238709762
 20
392.1537177567741992
 10
472.9385325410792689
 20
392.6089637399096546
 10
471.5554381358431897
 20
393.3482431015796692
 10
470.343145750507631
 20
394.3431457505075741
 10
469.3482431015796124
 20
395.5554381358431328
 10
468.6089637399097114
 20
396.9385325410793257
 10
468.1537177567741423
 20
398.4392774238709762
 10
468.0
 20
400.0
 10
468.0
 20
424.0
 10
468.0
 20
424.0
 10
468.1537177567741423
 20
425.5607225761290238
 10
468.6089637399097114
 20
427.0614674589206743
 10
469.3482431015796124
 20
428.4445618641568672
 10
470.343145750507631
 20
429.6568542494924259
 10
471.5554381358431897
 20
430.6517568984203308
 10
472.9385325410792689
 20
431.3910362600903454
 10
474.4392774238709762
 20
431.8462822432258008
 10
476.0
 20
432.0
 97
0
 75
0
 76
1
 47
0.0
 98
0
  0
LWPOLYLINE
  5
72
330
1D
100
AcDbEntity
  8
0
  6
ByLayer
420
9741240
 48
1.0
 60
0
 67
0
370
-1
100
AcDbPolyline
 90
41
 70
1
 43
0.0
 38
0.0
 39
0.0
210
0.0
220
0.0
230
1.0
 10
476.0
 20
432.0
 40
0.0
 41
0.0
 42
0.0
 10
853.0
 20
432.0
 40
0.0
 41
0.0
 42
0.0
 10
853.0
 20
432.0
 40
0.0
 41
0.0
 42
0.0
 10
854.5607225761290238
 20
431.8462822432258008
 40
0.0
 41
0.0
 42
0.0
 10
856.0614674589206743
 20
431.3910362600903454
 40
0.0
 41
0.0
 42
0.0
 10
857.4445618641568672
 20
430.6517568984203308
 40
0.0
 41
0.0
 42
0.0
 10
858.6568542494924259
 20
429.6568542494924259
 40
0.0
 41
0.0
 42
0.0
 10
859.6517568984203308
 20
428.4445618641568672
 40
0.0
 41
0.0
 42
0.0
 10
860.3910362600903454
 20
427.0614674589206743
 40
0.0
 41
0.0
 42
0.0
 10
860.8462822432258008
 20
425.5607225761290238
 40
0.0
 41
0.0
 42
0.0
 10
861.0
 20
424.0
 40
0.0
 41
0.0
 42
0.0
 10
861.0
 20
400.0
 40
0.0
 41
0.0
 42
0.0
 10
861.0
 20
400.0
 40
0.0
 41
0.0
 42
0.0
 10
860.8462822432258008
 20
398.4392774238709762
 40
0.0
 41
0.0
 42
0.0
 10
860.3910362600903454
 20
396.9385325410793257
 40
0.0
 41
0.0
 42
0.0
 10
859.6517568984203308
 20
395.5554381358431328
 40
0.0
 41
0.0
 42
0.0
 10
858.6568542494924259
 20
394.3431457505075741
 40
0.0
 41
0.0
 42
0.0
 10
857.4445618641568672
 20
393.3482431015796692
 40
0.0
 41
0.0
 42
0.0
 10
856.0614674589206743
 20
392.6089637399096546
 40
0.0
 41
0.0
 42
0.0
 10
854.5607225761290238
 20
392.1537177567741992
 40
0.0
 41
0.0
 42
0.0
 10
853.0
 20
392.0
 40
0.0
 41
0.0
 42
0.0
 10
476.0
 20
392.0
 40
0.0
 41
0.0
 42
0.0
 10
476.0
 20
392.0
 40
0.0
 41
0.0
 42
0.0
 10
474.4392774238709762
 20
392.1537177567741992
 40
0.0
 41
0.0
 42
0.0
 10
472.9385325410792689
 20
392.6089637399096546
 40
0.0
 41
0.0
 42
0.0
 10
471.5554381358431897
 20
393.3482431015796692
 40
0.0
 41
0.0
 42
0.0
 10
470.343145750507631
 20
394.3431457505075741
 40
0.0
 41
0.0
 42
0.0
 10
469.3482431015796124
 20
395.5554381358431328
 40
0.0
 41
0.0
 42
0.0
 10
468.6089637399097114
 20
396.9385325410793257
 40
0.0
 41
0.0
 42
0.0
 10
468.1537177567741423
 20
398.4392774238709762
 40
0.0
 41
0.0
 42
0.0
 10
468.0
 20
400.0
 40
0.0
 41
0.0
 42
0.0
 10
468.0
 20
424.0
 40
0.0
 41
0.0
 42
0.0
 10
468.0
 20
424.0
 40
0.0
 41
0.0
 42
0.0
 10
468.1537177567741423
 20
425.5607225761290238
 40
0.0
 41
0.0
 42
0.0
 10
468.6089637399097114
 20
427.0614674589206743
 40
0.0
 41
0.0
 42
0.0
 10
469.3482431015796124
 20
428.4445618641568672
 40
0.0
 41
0.0
 42
0.0
 10
470.343145750507631
 20
429.6568542494924259
 40
0.0
 41
0.0
 42
0.0
 10
471.5554381358431897
 20
430.6517568984203308
 40
0.0
 41
0.0
 42
0.0
 10
472.9385325410792689
 20
431.3910362600903454
 40
0.0
 41
0.0
 42
0.0
 10
474.4392774238709762
 20
431.8462822432258008
 40
0.0
 41
0.0
 42
0.0
 10
476.0
 20
432.0
 40
0.0
 41
0.0
 42
0.0
  0
TEXT
  5
73
330
1D
100
AcDbEntity
  8
0
  6
ByLayer
420
1120295
 48
1.0
 60
0
 67
0
370
-1
100
AcDbText
 39
0.0
 10
480.0
 20
408.0
 30
0.0
 40
16.0
  1
42
 50
0.0
 41
1.0
 51
0.0
  7
Standard
 71
0
 72
0
 11
0.0
 21
0.0
 31
0.0
210
0.0
220
0.0
230
1.0
100
AcDbText
 73
0
  0
TEXT
  5
74
330
1D
100
AcDbEntity
  8
0
  6
ByLayer
420
4938352
 48
1.0
 60
0
 67
0
370
-1
100
AcDbText
 39
0.0
 10
468.0
 20
367.5
 30
0.0
 40
12.0
  1
COLOR
 50
0.0
 41
1.0
 51
0.0
  7
Standard
 71
0
 72
0
 11
0.0
 21
0.0
 31
0.0
210
0.0
220
0.0
230
1.0
100
AcDbText
 73
0
  0
HATCH
  5
75
330
1D
100
AcDbEntity
  8
0
  6
ByLayer
420
16777215
 48
1.0
 60
0
 67
0
370
-1
100
AcDbHatch
 30
0.0
210
0.0
220
0.0
230
1.0
  2
SOLID
 70
1
 71
0
 91
1
 92
2
 72
0
 73
1
 93
41
 10
476.0
 20
357.0
 10
853.0
 20
357.0
 10
853.0
 20
357.0
 10
854.5607225761290238
 20
356.8462822432258008
 10
856.0614674589206743
 20
356.3910362600903454
 10
857.4445618641568672
 20
355.6517568984203308
 10
858.6568542494924259
 20
354.6568542494924259
 10
859.6517568984203308
 20
353.4445618641568672
 10
860.3910362600903454
 20
352.0614674589206743
 10
860.8462822432258008
 20
350.5607225761290238
 10
861.0
 20
349.0
 10
861.0
 20
327.0
 10
861.0
 20
327.0
 10
860.8462822432258008
 20
325.4392774238709762
 10
860.3910362600903454
 20
323.9385325410793257
 10
859.6517568984203308
 20
322.5554381358431328
 10
858.6568542494924259
 20
321.3431457505075741
 10
857.4445618641568672
 20
320.3482431015796692
 10
856.0614674589206743
 20
319.6089637399096546
 10
854.5607225761290238
 20
319.1537177567741992
 10
853.0
 20
319.0
 10
476.0
 20
319.0
 10
476.0
 20
319.0
 10
474.4392774238709762
 20
319.1537177567741992
 10
472.9385325410792689
 20
319.6089637399096546
 10
471.5554381358431897
 20
320.3482431015796692
 10
470.343145750507631
 20
321.3431457505075741
 10
469.3482431015796124
 20
322.5554381358431328
 10
468.6089637399097114
 20
323.9385325410793257
 10
468.1537177567741423
 20
325.4392774238709762
 10
468.0
 20
327.0
 10
468.0
 20
349.0
 10
468.0
 20
349.0
 10
468.1537177567741423
 20
350.5607225761290238
 10
468.6089637399097114
 20
352.0614674589206743
 10
469.3482431015796124
 20
353.4445618641568672
 10
470.343145750507631
 20
354.6568542494924259
 10
471.5554381358431897
 20
355.6517568984203308
 10
472.9385325410792689
 20
356.3910362600903454
 10
474.4392774238709762
 20
356.8462822432258008
 10
476.0
 20
357.0
 97
0
 75
0
 76
1
 47
0.0
 98
0
  0
LWPOLYLINE
  5
76
330
1D
100
AcDbEntity
  8
0
  6
ByLayer
420
9741240
 48
1.0
 60
0
 67
0
370
-1
100
AcDbPolyline
 90
41
 70
1
 43
0.0
 38
0.0
 39
0.0
210
0.0
220
0.0
230
1.0
 10
476.0
 20
357.0
 40
0.0
 41
0.0
 42
0.0
 10
853.0
 20
357.0
 40
0.0
 41
0.0
 42
0.0
 10
853.0
 20
357.0
 40
0.0
 41
0.0
 42
0.0
 10
854.5607225761290238
 20
356.8462822432258008
 40
0.0
 41
0.0
 42
0.0
 10
856.0614674589206743
 20
356.3910362600903454
 40
0.0
 41
0.0
 42
0.0
 10
857.4445618641568672
 20
355.6517568984203308
 40
0.0
 41
0.0
 42
0.0
 10
858.6568542494924259
 20
354.6568542494924259
 40
0.0
 41
0.0
 42
0.0
 10
859.6517568984203308
 20
353.4445618641568672
 40
0.0
 41
0.0
 42
0.0
 10
860.3910362600903454
 20
352.0614674589206743
 40
0.0
 41
0.0
 42
0.0
 10
860.8462822432258008
 20
350.5607225761290238
 40
0.0
 41
0.0
 42
0.0
 10
861.0
 20
349.0
 40
0.0
 41
0.0
 42
0.0
 10
861.0
 20
327.0
 40
0.0
 41
0.0
 42
0.0
 10
861.0
 20
327.0
 40
0.0
 41
0.0
 42
0.0
 10
860.8462822432258008
 20
325.4392774238709762
 40
0.0
 41
0.0
 42
0.0
 10
860.3910362600903454
 20
323.9385325410793257
 40
0.0
 41
0.0
 42
0.0
 10
859.6517568984203308
 20
322.5554381358431328
 40
0.0
 41
0.0
 42
0.0
 10
858.6568542494924259
 20
321.3431457505075741
 40
0.0
 41
0.0
 42
0.0
 10
857.4445618641568672
 20
320.3482431015796692
 40
0.0
 41
0.0
 42
0.0
 10
856.0614674589206743
 20
319.6089637399096546
 40
0.0
 41
0.0
 42
0.0
 10
854.5607225761290238
 20
319.1537177567741992
 40
0.0
 41
0.0
 42
0.0
 10
853.0
 20
319.0
 40
0.0
 41
0.0
 42
0.0
 10
476.0
 20
319.0
 40
0.0
 41
0.0
 42
0.0
 10
476.0
 20
319.0
 40
0.0
 41
0.0
 42
0.0
 10
474.4392774238709762
 20
319.1537177567741992
 40
0.0
 41
0.0
 42
0.0
 10
472.9385325410792689
 20
319.6089637399096546
 40
0.0
 41
0.0
 42
0.0
 10
471.5554381358431897
 20
320.3482431015796692
 40
0.0
 41
0.0
 42
0.0
 10
470.343145750507631
 20
321.3431457505075741
 40
0.0
 41
0.0
 42
0.0
 10
469.3482431015796124
 20
322.5554381358431328
 40
0.0
 41
0.0
 42
0.0
 10
468.6089637399097114
 20
323.9385325410793257
 40
0.0
 41
0.0
 42
0.0
 10
468.1537177567741423
 20
325.4392774238709762
 40
0.0
 41
0.0
 42
0.0
 10
468.0
 20
327.0
 40
0.0
 41
0.0
 42
0.0
 10
468.0
 20
349.0
 40
0.0
 41
0.0
 42
0.0
 10
468.0
 20
349.0
 40
0.0
 41
0.0
 42
0.0
 10
468.1537177567741423
 20
350.5607225761290238
 40
0.0
 41
0.0
 42
0.0
 10
468.6089637399097114
 20
352.0614674589206743
 40
0.0
 41
0.0
 42
0.0
 10
469.3482431015796124
 20
353.4445618641568672
 40
0.0
 41
0.0
 42
0.0
 10
470.343145750507631
 20
354.6568542494924259
 40
0.0
 41
0.0
 42
0.0
 10
471.5554381358431897
 20
355.6517568984203308
 40
0.0
 41
0.0
 42
0.0
 10
472.9385325410792689
 20
356.3910362600903454
 40
0.0
 41
0.0
 42
0.0
 10
474.4392774238709762
 20
356.8462822432258008
 40
0.0
 41
0.0
 42
0.0
 10
476.0
 20
357.0
 40
0.0
 41
0.0
 42
0.0
  0
HATCH
  5
77
330
1D
100
AcDbEntity
  8
0
  6
ByLayer
420
1008382
 48
1.0
 60
0
 67
0
370
-1
100
AcDbHatch
 30
0.0
210
0.0
220
0.0
230
1.0
  2
SOLID
 70
1
 71
0
 91
1
 92
2
 72
0
 73
1
 93
41
 10
479.8000000000000114
 20
353.2000000000000455
 10
849.2000000000000455
 20
353.2000000000000455
 10
849.2000000000000455
 20
353.2000000000000455
 10
850.7607225761290692
 20
353.0462822432258463
 10
852.2614674589207198
 20
352.5910362600903909
 10
853.6445618641569126
 20
351.8517568984203763
 10
854.8568542494924714
 20
350.8568542494924714
 10
855.8517568984203763
 20
349.6445618641569126
 10
856.5910362600903909
 20
348.2614674589207198
 10
857.0462822432258463
 20
346.7607225761290692
 10
857.2000000000000455
 20
345.2000000000000455
 10
857.2000000000000455
 20
330.7999999999999545
 10
857.2000000000000455
 20
330.7999999999999545
 10
857.0462822432258463
 20
329.2392774238709308
 10
856.5910362600903909
 20
327.7385325410792802
 10
855.8517568984203763
 20
326.3554381358430874
 10
854.8568542494924714
 20
325.1431457505075286
 10
853.6445618641569126
 20
324.1482431015796237
 10
852.2614674589207198
 20
323.4089637399096091
 10
850.7607225761290692
 20
322.9537177567741537
 10
849.2000000000000455
 20
322.7999999999999545
 10
479.8000000000000114
 20
322.7999999999999545
 10
479.8000000000000114
 20
322.7999999999999545
 10
478.2392774238709876
 20
322.9537177567741537
 10
476.7385325410792802
 20
323.4089637399096091
 10
475.3554381358432011
 20
324.1482431015796237
 10
474.1431457505076423
 20
325.1431457505075286
 10
473.1482431015796237
 20
326.3554381358430874
 10
472.4089637399097228
 20
327.7385325410792802
 10
471.9537177567741537
 20
329.2392774238709308
 10
471.8000000000000114
 20
330.7999999999999545
 10
471.8000000000000114
 20
345.2000000000000455
 10
471.8000000000000114
 20
345.2000000000000455
 10
471.9537177567741537
 20
346.7607225761290692
 10
472.4089637399097228
 20
348.2614674589207198
 10
473.1482431015796237
 20
349.6445618641569126
 10
474.1431457505076423
 20
350.8568542494924714
 10
475.3554381358432011
 20
351.8517568984203763
 10
476.7385325410792802
 20
352.5910362600903909
 10
478.2392774238709876
 20
353.0462822432258463
 10
479.8000000000000114
 20
353.2000000000000455
 97
0
 75
0
 76
1
 47
0.0
 98
0
  0
LWPOLYLINE
  5
78
330
1D
100
AcDbEntity
  8
0
  6
ByLayer
420
9741240
 48
1.0
 60
0
 67
0
370
-1
100
AcDbPolyline
 90
41
 70
1
 43
0.0
 38
0.0
 39
0.0
210
0.0
220
0.0
230
1.0
 10
479.8000000000000114
 20
353.2000000000000455
 40
0.0
 41
0.0
 42
0.0
 10
849.2000000000000455
 20
353.2000000000000455
 40
0.0
 41
0.0
 42
0.0
 10
849.2000000000000455
 20
353.2000000000000455
 40
0.0
 41
0.0
 42
0.0
 10
850.7607225761290692
 20
353.0462822432258463
 40
0.0
 41
0.0
 42
0.0
 10
852.2614674589207198
 20
352.5910362600903909
 40
0.0
 41
0.0
 42
0.0
 10
853.6445618641569126
 20
351.8517568984203763
 40
0.0
 41
0.0
 42
0.0
 10
854.8568542494924714
 20
350.8568542494924714
 40
0.0
 41
0.0
 42
0.0
 10
855.8517568984203763
 20
349.6445618641569126
 40
0.0
 41
0.0
 42
0.0
 10
856.5910362600903909
 20
348.2614674589207198
 40
0.0
 41
0.0
 42
0.0
 10
857.0462822432258463
 20
346.7607225761290692
 40
0.0
 41
0.0
 42
0.0
 10
857.2000000000000455
 20
345.2000000000000455
 40
0.0
 41
0.0
 42
0.0
 10
857.2000000000000455
 20
330.7999999999999545
 40
0.0
 41
0.0
 42
0.0
 10
857.2000000000000455
 20
330.7999999999999545
 40
0.0
 41
0.0
 42
0.0
 10
857.0462822432258463
 20
329.2392774238709308
 40
0.0
 41
0.0
 42
0.0
 10
856.5910362600903909
 20
327.7385325410792802
 40
0.0
 41
0.0
 42
0.0
 10
855.8517568984203763
 20
326.3554381358430874
 40
0.0
 41
0.0
 42
0.0
 10
854.8568542494924714
 20
325.1431457505075286
 40
0.0
 41
0.0
 42
0.0
 10
853.6445618641569126
 20
324.1482431015796237
 40
0.0
 41
0.0
 42
0.0
 10
852.2614674589207198
 20
323.4089637399096091
 40
0.0
 41
0.0
 42
0.0
 10
850.7607225761290692
 20
322.9537177567741537
 40
0.0
 41
0.0
 42
0.0
 10
849.2000000000000455
 20
322.7999999999999545
 40
0.0
 41
0.0
 42
0.0
 10
479.8000000000000114
 20
322.7999999999999545
 40
0.0
 41
0.0
 42
0.0
 10
479.8000000000000114
 20
322.7999999999999545
 40
0.0
 41
0.0
 42
0.0
 10
478.2392774238709876
 20
322.9537177567741537
 40
0.0
 41
0.0
 42
0.0
 10
476.7385325410792802
 20
323.4089637399096091
 40
0.0
 41
0.0
 42
0.0
 10
475.3554381358432011
 20
324.1482431015796237
 40
0.0
 41
0.0
 42
0.0
 10
474.1431457505076423
 20
325.1431457505075286
 40
0.0
 41
0.0
 42
0.0
 10
473.1482431015796237
 20
326.3554381358430874
 40
0.0
 41
0.0
 42
0.0
 10
472.4089637399097228
 20
327.7385325410792802
 40
0.0
 41
0.0
 42
0.0
 10
471.9537177567741537
 20
329.2392774238709308
 40
0.0
 41
0.0
 42
0.0
 10
471.8000000000000114
 20
330.7999999999999545
 40
0.0
 41
0.0
 42
0.0
 10
471.8000000000000114
 20
345.2000000000000455
 40
0.0
 41
0.0
 42
0.0
 10
471.8000000000000114
 20
345.2000000000000455
 40
0.0
 41
0.0
 42
0.0
 10
471.9537177567741537
 20
346.7607225761290692
 40
0.0
 41
0.0
 42
0.0
 10
472.4089637399097228
 20
348.2614674589207198
 40
0.0
 41
0.0
 42
0.0
 10
473.1482431015796237
 20
349.6445618641569126
 40
0.0
 41
0.0
 42
0.0
 10
474.1431457505076423
 20
350.8568542494924714
 40
0.0
 41
0.0
 42
0.0
 10
475.3554381358432011
 20
351.8517568984203763
 40
0.0
 41
0.0
 42
0.0
 10
476.7385325410792802
 20
352.5910362600903909
 40
0.0
 41
0.0
 42
0.0
 10
478.2392774238709876
 20
353.0462822432258463
 40
0.0
 41
0.0
 42
0.0
 10
479.8000000000000114
 20
353.2000000000000455
 40
0.0
 41
0.0
 42
0.0
  0
TEXT
  5
79
330
1D
100
AcDbEntity
  8
0
  6
ByLayer
420
4938352
 48
1.0
 60
0
 67
0
370
-1
100
AcDbText
 39
0.0
 10
468.0
 20
294.5
 30
0.0
 40
12.0
  1
RANGE
 50
0.0
 41
1.0
 51
0.0
  7
Standard
 71
0
 72
0
 11
0.0
 21
0.0
 31
0.0
210
0.0
220
0.0
230
1.0
100
AcDbText
 73
0
  0
HATCH
  5
7A
330
1D
100
AcDbEntity
  8
0
  6
ByLayer
420
15263976
 48
1.0
 60
0
 67
0
370
-1
100
AcDbHatch
 30
0.0
210
0.0
220
0.0
230
1.0
  2
SOLID
 70
1
 71
0
 91
1
 92
2
 72
0
 73
1
 93
41
 10
479.3999999999999773
 20
274.3999999999999773
 10
853.6000000000000227
 20
274.3999999999999773
 10
853.6000000000000227
 20
274.3999999999999773
 10
854.0682167728386958
 20
274.3538846729677516
 10
854.5184402376762591
 20
274.2173108780270923
 10
854.9333685592470147
 20
273.9955270695261333
 10
855.297056274847705
 20
273.6970562748476823
 10
855.5955270695261561
 20
273.3333685592469919
 10
855.817310878027115
 20
272.9184402376762364
 10
855.9538846729677743
 20
272.468216772838673
 10
856.0
 20
272.0
 10
856.0
 20
272.0
 10
856.0
 20
272.0
 10
855.9538846729677743
 20
271.531783227161327
 10
855.817310878027115
 20
271.0815597623237636
 10
855.5955270695261561
 20
270.6666314407530081
 10
855.297056274847705
 20
270.3029437251523177
 10
854.9333685592470147
 20
270.0044729304738667
 10
854.5184402376762591
 20
269.7826891219729077
 10
854.0682167728386958
 20
269.6461153270322484
 10
853.6000000000000227
 20
269.6000000000000227
 10
479.3999999999999773
 20
269.6000000000000227
 10
479.3999999999999773
 20
269.6000000000000227
 10
478.9317832271612474
 20
269.6461153270322484
 10
478.4815597623237977
 20
269.7826891219729077
 10
478.0666314407529285
 20
270.0044729304738667
 10
477.702943725152295
 20
270.3029437251523177
 10
477.4044729304739008
 20
270.6666314407530081
 10
477.182689121972885
 20
271.0815597623237636
 10
477.0461153270322257
 20
271.531783227161327
 10
477.0
 20
272.0
 10
477.0
 20
272.0
 10
477.0
 20
272.0
 10
477.0461153270322257
 20
272.468216772838673
 10
477.182689121972885
 20
272.9184402376762364
 10
477.4044729304739008
 20
273.3333685592469919
 10
477.702943725152295
 20
273.6970562748476823
 10
478.0666314407529285
 20
273.9955270695261333
 10
478.4815597623237409
 20
274.2173108780270923
 10
478.9317832271612474
 20
274.3538846729677516
 10
479.3999999999999773
 20
274.3999999999999773
 97
0
 75
0
 76
1
 47
0.0
 98
0
  0
LWPOLYLINE
  5
7B
330
1D
100
AcDbEntity
  8
0
  6
ByLayer
420
15263976
 48
1.0
 60
0
 67
0
370
-1
100
AcDbPolyline
 90
41
 70
1
 43
0.0
 38
0.0
 39
0.0
210
0.0
220
0.0
230
1.0
 10
479.3999999999999773
 20
274.3999999999999773
 40
0.0
 41
0.0
 42
0.0
 10
853.6000000000000227
 20
274.3999999999999773
 40
0.0
 41
0.0
 42
0.0
 10
853.6000000000000227
 20
274.3999999999999773
 40
0.0
 41
0.0
 42
0.0
 10
854.0682167728386958
 20
274.3538846729677516
 40
0.0
 41
0.0
 42
0.0
 10
854.5184402376762591
 20
274.2173108780270923
 40
0.0
 41
0.0
 42
0.0
 10
854.9333685592470147
 20
273.9955270695261333
 40
0.0
 41
0.0
 42
0.0
 10
855.297056274847705
 20
273.6970562748476823
 40
0.0
 41
0.0
 42
0.0
 10
855.5955270695261561
 20
273.3333685592469919
 40
0.0
 41
0.0
 42
0.0
 10
855.817310878027115
 20
272.9184402376762364
 40
0.0
 41
0.0
 42
0.0
 10
855.9538846729677743
 20
272.468216772838673
 40
0.0
 41
0.0
 42
0.0
 10
856.0
 20
272.0
 40
0.0
 41
0.0
 42
0.0
 10
856.0
 20
272.0
 40
0.0
 41
0.0
 42
0.0
 10
856.0
 20
272.0
 40
0.0
 41
0.0
 42
0.0
 10
855.9538846729677743
 20
271.531783227161327
 40
0.0
 41
0.0
 42
0.0
 10
855.817310878027115
 20
271.0815597623237636
 40
0.0
 41
0.0
 42
0.0
 10
855.5955270695261561
 20
270.6666314407530081
 40
0.0
 41
0.0
 42
0.0
 10
855.297056274847705
 20
270.3029437251523177
 40
0.0
 41
0.0
 42
0.0
 10
854.9333685592470147
 20
270.0044729304738667
 40
0.0
 41
0.0
 42
0.0
 10
854.5184402376762591
 20
269.7826891219729077
 40
0.0
 41
0.0
 42
0.0
 10
854.0682167728386958
 20
269.6461153270322484
 40
0.0
 41
0.0
 42
0.0
 10
853.6000000000000227
 20
269.6000000000000227
 40
0.0
 41
0.0
 42
0.0
 10
479.3999999999999773
 20
269.6000000000000227
 40
0.0
 41
0.0
 42
0.0
 10
479.3999999999999773
 20
269.6000000000000227
 40
0.0
 41
0.0
 42
0.0
 10
478.9317832271612474
 20
269.6461153270322484
 40
0.0
 41
0.0
 42
0.0
 10
478.4815597623237977
 20
269.7826891219729077
 40
0.0
 41
0.0
 42
0.0
 10
478.0666314407529285
 20
270.0044729304738667
 40
0.0
 41
0.0
 42
0.0
 10
477.702943725152295
 20
270.3029437251523177
 40
0.0
 41
0.0
 42
0.0
 10
477.4044729304739008
 20
270.6666314407530081
 40
0.0
 41
0.0
 42
0.0
 10
477.182689121972885
 20
271.0815597623237636
 40
0.0
 41
0.0
 42
0.0
 10
477.0461153270322257
 20
271.531783227161327
 40
0.0
 41
0.0
 42
0.0
 10
477.0
 20
272.0
 40
0.0
 41
0.0
 42
0.0
 10
477.0
 20
272.0
 40
0.0
 41
0.0
 42
0.0
 10
477.0
 20
272.0
 40
0.0
 41
0.0
 42
0.0
 10
477.0461153270322257
 20
272.468216772838673
 40
0.0
 41
0.0
 42
0.0
 10
477.182689121972885
 20
272.9184402376762364
 40
0.0
 41
0.0
 42
0.0
 10
477.4044729304739008
 20
273.3333685592469919
 40
0.0
 41
0.0
 42
0.0
 10
477.702943725152295
 20
273.6970562748476823
 40
0.0
 41
0.0
 42
0.0
 10
478.0666314407529285
 20
273.9955270695261333
 40
0.0
 41
0.0
 42
0.0
 10
478.4815597623237409
 20
274.2173108780270923
 40
0.0
 41
0.0
 42
0.0
 10
478.9317832271612474
 20
274.3538846729677516
 40
0.0
 41
0.0
 42
0.0
 10
479.3999999999999773
 20
274.3999999999999773
 40
0.0
 41
0.0
 42
0.0
  0
HATCH
  5
7C
330
1D
100
AcDbEntity
  8
0
  6
ByLayer
420
1008382
 48
1.0
 60
0
 67
0
370
-1
100
AcDbHatch
 30
0.0
210
0.0
220
0.0
230
1.0
  2
SOLID
 70
1
 71
0
 91
1
 92
2
 72
0
 73
1
 93
41
 10
479.3999999999999773
 20
274.3999999999999773
 10
732.32000000000005
 20
274.3999999999999773
 10
732.32000000000005
 20
274.3999999999999773
 10
732.788216772838723
 20
274.3538846729677516
 10
733.2384402376762864
 20
274.2173108780270923
 10
733.653368559247042
 20
273.9955270695261333
 10
734.0170562748477323
 20
273.6970562748476823
 10
734.3155270695261834
 20
273.3333685592469919
 10
734.5373108780271423
 20
272.9184402376762364
 10
734.6738846729678016
 20
272.468216772838673
 10
734.7200000000000273
 20
272.0
 10
734.7200000000000273
 20
272.0
 10
734.7200000000000273
 20
272.0
 10
734.6738846729678016
 20
271.531783227161327
 10
734.5373108780271423
 20
271.0815597623237636
 10
734.3155270695261834
 20
270.6666314407530081
 10
734.0170562748477323
 20
270.3029437251523177
 10
733.653368559247042
 20
270.0044729304738667
 10
733.2384402376762864
 20
269.7826891219729077
 10
732.788216772838723
 20
269.6461153270322484
 10
732.32000000000005
 20
269.6000000000000227
 10
479.3999999999999773
 20
269.6000000000000227
 10
479.3999999999999773
 20
269.6000000000000227
 10
478.9317832271612474
 20
269.6461153270322484
 10
478.4815597623237977
 20
269.7826891219729077
 10
478.0666314407529285
 20
270.0044729304738667
 10
477.702943725152295
 20
270.3029437251523177
 10
477.4044729304739008
 20
270.6666314407530081
 10
477.182689121972885
 20
271.0815597623237636
 10
477.0461153270322257
 20
271.531783227161327
 10
477.0
 20
272.0
 10
477.0
 20
272.0
 10
477.0
 20
272.0
 10
477.0461153270322257
 20
272.468216772838673
 10
477.182689121972885
 20
272.9184402376762364
 10
477.4044729304739008
 20
273.3333685592469919
 10
477.702943725152295
 20
273.6970562748476823
 10
478.0666314407529285
 20
273.9955270695261333
 10
478.4815597623237409
 20
274.2173108780270923
 10
478.9317832271612474
 20
274.3538846729677516
 10
479.3999999999999773
 20
274.3999999999999773
 97
0
 75
0
 76
1
 47
0.0
 98
0
  0
LWPOLYLINE
  5
7D
330
1D
100
AcDbEntity
  8
0
  6
ByLayer
420
1008382
 48
1.0
 60
0
 67
0
370
-1
100
AcDbPolyline
 90
41
 70
1
 43
0.0
 38
0.0
 39
0.0
210
0.0
220
0.0
230
1.0
 10
479.3999999999999773
 20
274.3999999999999773
 40
0.0
 41
0.0
 42
0.0
 10
732.32000000000005
 20
274.3999999999999773
 40
0.0
 41
0.0
 42
0.0
 10
732.32000000000005
 20
274.3999999999999773
 40
0.0
 41
0.0
 42
0.0
 10
732.788216772838723
 20
274.3538846729677516
 40
0.0
 41
0.0
 42
0.0
 10
733.2384402376762864
 20
274.2173108780270923
 40
0.0
 41
0.0
 42
0.0
 10
733.653368559247042
 20
273.9955270695261333
 40
0.0
 41
0.0
 42
0.0
 10
734.0170562748477323
 20
273.6970562748476823
 40
0.0
 41
0.0
 42
0.0
 10
734.3155270695261834
 20
273.3333685592469919
 40
0.0
 41
0.0
 42
0.0
 10
734.5373108780271423
 20
272.9184402376762364
 40
0.0
 41
0.0
 42
0.0
 10
734.6738846729678016
 20
272.468216772838673
 40
0.0
 41
0.0
 42
0.0
 10
734.7200000000000273
 20
272.0
 40
0.0
 41
0.0
 42
0.0
 10
734.7200000000000273
 20
272.0
 40
0.0
 41
0.0
 42
0.0
 10
734.7200000000000273
 20
272.0
 40
0.0
 41
0.0
 42
0.0
 10
734.6738846729678016
 20
271.531783227161327
 40
0.0
 41
0.0
 42
0.0
 10
734.5373108780271423
 20
271.0815597623237636
 40
0.0
 41
0.0
 42
0.0
 10
734.3155270695261834
 20
270.6666314407530081
 40
0.0
 41
0.0
 42
0.0
 10
734.0170562748477323
 20
270.3029437251523177
 40
0.0
 41
0.0
 42
0.0
 10
733.653368559247042
 20
270.0044729304738667
 40
0.0
 41
0.0
 42
0.0
 10
733.2384402376762864
 20
269.7826891219729077
 40
0.0
 41
0.0
 42
0.0
 10
732.788216772838723
 20
269.6461153270322484
 40
0.0
 41
0.0
 42
0.0
 10
732.32000000000005
 20
269.6000000000000227
 40
0.0
 41
0.0
 42
0.0
 10
479.3999999999999773
 20
269.6000000000000227
 40
0.0
 41
0.0
 42
0.0
 10
479.3999999999999773
 20
269.6000000000000227
 40
0.0
 41
0.0
 42
0.0
 10
478.9317832271612474
 20
269.6461153270322484
 40
0.0
 41
0.0
 42
0.0
 10
478.4815597623237977
 20
269.7826891219729077
 40
0.0
 41
0.0
 42
0.0
 10
478.0666314407529285
 20
270.0044729304738667
 40
0.0
 41
0.0
 42
0.0
 10
477.702943725152295
 20
270.3029437251523177
 40
0.0
 41
0.0
 42
0.0
 10
477.4044729304739008
 20
270.6666314407530081
 40
0.0
 41
0.0
 42
0.0
 10
477.182689121972885
 20
271.0815597623237636
 40
0.0
 41
0.0
 42
0.0
 10
477.0461153270322257
 20
271.531783227161327
 40
0.0
 41
0.0
 42
0.0
 10
477.0
 20
272.0
 40
0.0
 41
0.0
 42
0.0
 10
477.0
 20
272.0
 40
0.0
 41
0.0
 42
0.0
 10
477.0
 20
272.0
 40
0.0
 41
0.0
 42
0.0
 10
477.0461153270322257
 20
272.468216772838673
 40
0.0
 41
0.0
 42
0.0
 10
477.182689121972885
 20
272.9184402376762364
 40
0.0
 41
0.0
 42
0.0
 10
477.4044729304739008
 20
273.3333685592469919
 40
0.0
 41
0.0
 42
0.0
 10
477.702943725152295
 20
273.6970562748476823
 40
0.0
 41
0.0
 42
0.0
 10
478.0666314407529285
 20
273.9955270695261333
 40
0.0
 41
0.0
 42
0.0
 10
478.4815597623237409
 20
274.2173108780270923
 40
0.0
 41
0.0
 42
0.0
 10
478.9317832271612474
 20
274.3538846729677516
 40
0.0
 41
0.0
 42
0.0
 10
479.3999999999999773
 20
274.3999999999999773
 40
0.0
 41
0.0
 42
0.0
  0
HATCH
  5
7E
330
1D
100
AcDbEntity
  8
0
  6
ByLayer
420
1008382
 48
1.0
 60
0
 67
0
370
-1
100
AcDbHatch
 30
0.0
210
0.0
220
0.0
230
1.0
  2
SOLID
 70
1
 71
0
 91
1
 92
2
 72
0
 73
1
 93
24
 10
741.7200000000000273
 20
272.0
 10
741.4814807840234607
 20
270.1882666842823255
 10
740.782177826491079
 20
268.5
 10
739.6697474683057862
 20
267.0502525316941274
 10
738.2200000000000273
 20
265.9378221735089483
 10
736.5317333157177018
 20
265.2385192159765666
 10
734.7200000000000273
 20
265.0
 10
732.9082666842823528
 20
265.2385192159765666
 10
731.2200000000000273
 20
265.9378221735089483
 10
729.7702525316942683
 20
267.0502525316941274
 10
728.6578221735089755
 20
268.5
 10
727.9585192159765938
 20
270.1882666842823255
 10
727.7200000000000273
 20
272.0
 10
727.9585192159765938
 20
273.8117333157176745
 10
728.6578221735089755
 20
275.5
 10
729.7702525316942683
 20
276.9497474683058726
 10
731.2200000000000273
 20
278.0621778264910517
 10
732.9082666842823528
 20
278.7614807840234334
 10
734.7200000000000273
 20
279.0
 10
736.5317333157177018
 20
278.7614807840234334
 10
738.2200000000000273
 20
278.0621778264910517
 10
739.6697474683057862
 20
276.9497474683058726
 10
740.782177826491079
 20
275.5
 10
741.4814807840234607
 20
273.8117333157176745
 97
0
 75
0
 76
1
 47
0.0
 98
0
  0
LWPOLYLINE
  5
7F
330
1D
100
AcDbEntity
  8
0
  6
ByLayer
420
16777215
 48
1.0
 60
0
 67
0
370
-1
100
AcDbPolyline
 90
24
 70
1
 43
0.0
 38
0.0
 39
0.0
210
0.0
220
0.0
230
1.0
 10
741.7200000000000273
 20
272.0
 40
0.0
 41
0.0
 42
0.0
 10
741.4814807840234607
 20
270.1882666842823255
 40
0.0
 41
0.0
 42
0.0
 10
740.782177826491079
 20
268.5
 40
0.0
 41
0.0
 42
0.0
 10
739.6697474683057862
 20
267.0502525316941274
 40
0.0
 41
0.0
 42
0.0
 10
738.2200000000000273
 20
265.9378221735089483
 40
0.0
 41
0.0
 42
0.0
 10
736.5317333157177018
 20
265.2385192159765666
 40
0.0
 41
0.0
 42
0.0
 10
734.7200000000000273
 20
265.0
 40
0.0
 41
0.0
 42
0.0
 10
732.9082666842823528
 20
265.2385192159765666
 40
0.0
 41
0.0
 42
0.0
 10
731.2200000000000273
 20
265.9378221735089483
 40
0.0
 41
0.0
 42
0.0
 10
729.7702525316942683
 20
267.0502525316941274
 40
0.0
 41
0.0
 42
0.0
 10
728.6578221735089755
 20
268.5
 40
0.0
 41
0.0
 42
0.0
 10
727.9585192159765938
 20
270.1882666842823255
 40
0.0
 41
0.0
 42
0.0
 10
727.7200000000000273
 20
272.0
 40
0.0
 41
0.0
 42
0.0
 10
727.9585192159765938
 20
273.8117333157176745
 40
0.0
 41
0.0
 42
0.0
 10
728.6578221735089755
 20
275.5
 40
0.0
 41
0.0
 42
0.0
 10
729.7702525316942683
 20
276.9497474683058726
 40
0.0
 41
0.0
 42
0.0
 10
731.2200000000000273
 20
278.0621778264910517
 40
0.0
 41
0.0
 42
0.0
 10
732.9082666842823528
 20
278.7614807840234334
 40
0.0
 41
0.0
 42
0.0
 10
734.7200000000000273
 20
279.0
 40
0.0
 41
0.0
 42
0.0
 10
736.5317333157177018
 20
278.7614807840234334
 40
0.0
 41
0.0
 42
0.0
 10
738.2200000000000273
 20
278.0621778264910517
 40
0.0
 41
0.0
 42
0.0
 10
739.6697474683057862
 20
276.9497474683058726
 40
0.0
 41
0.0
 42
0.0
 10
740.782177826491079
 20
275.5
 40
0.0
 41
0.0
 42
0.0
 10
741.4814807840234607
 20
273.8117333157176745
 40
0.0
 41
0.0
 42
0.0
  0
TEXT
  5
80
330
1D
100
AcDbEntity
  8
0
  6
ByLayer
420
4938352
 48
1.0
 60
0
 67
0
370
-1
100
AcDbText
 39
0.0
 10
468.0
 20
235.5
 30
0.0
 40
12.0
  1
VERTICAL RANGE
 50
0.0
 41
1.0
 51
0.0
  7
Standard
 71
0
 72
0
 11
0.0
 21
0.0
 31
0.0
210
0.0
220
0.0
230
1.0
100
AcDbText
 73
0
  0
HATCH
  5
81
330
1D
100
AcDbEntity
  8
0
  6
ByLayer
420
15263976
 48
1.0
 60
0
 67
0
370
-1
100
AcDbHatch
 30
0.0
210
0.0
220
0.0
230
1.0
  2
SOLID
 70
1
 71
0
 91
1
 92
2
 72
0
 73
1
 93
41
 10
666.5
 20
213.0
 10
666.5
 20
213.0
 10
666.5
 20
213.0
 10
667.4754516100806541
 20
212.9039264020161681
 10
668.4134171618254641
 20
212.6193976625564801
 10
669.2778511650980136
 20
212.157348061512721
 10
670.0355339059327662
 20
211.5355339059327662
 10
670.657348061512721
 20
210.7778511650980136
 10
671.1193976625564801
 20
209.9134171618254641
 10
671.4039264020161681
 20
208.9754516100806541
 10
671.5
 20
208.0
 10
671.5
 20
118.0
 10
671.5
 20
118.0
 10
671.4039264020161681
 20
117.0245483899193459
 10
671.1193976625564801
 20
116.0865828381745359
 10
670.657348061512721
 20
115.2221488349019864
 10
670.0355339059327662
 20
114.4644660940672338
 10
669.2778511650980136
 20
113.842651938487279
 10
668.4134171618254641
 20
113.3806023374435199
 10
667.4754516100806541
 20
113.0960735979838319
 10
666.5
 20
113.0
 10
666.5
 20
113.0
 10
666.5
 20
113.0
 10
665.5245483899193459
 20
113.0960735979838319
 10
664.5865828381745359
 20
113.3806023374435199
 10
663.7221488349019864
 20
113.842651938487279
 10
662.9644660940672338
 20
114.4644660940672338
 10
662.342651938487279
 20
115.2221488349019864
 10
661.8806023374435199
 20
116.0865828381745359
 10
661.5960735979838319
 20
117.0245483899193459
 10
661.5
 20
118.0
 10
661.5
 20
208.0
 10
661.5
 20
208.0
 10
661.5960735979838319
 20
208.9754516100806541
 10
661.8806023374435199
 20
209.9134171618254641
 10
662.342651938487279
 20
210.7778511650980136
 10
662.9644660940672338
 20
211.5355339059327662
 10
663.7221488349019864
 20
212.157348061512721
 10
664.5865828381745359
 20
212.6193976625564801
 10
665.5245483899193459
 20
212.9039264020161681
 10
666.5
 20
213.0
 97
0
 75
0
 76
1
 47
0.0
 98
0
  0
LWPOLYLINE
  5
82
330
1D
100
AcDbEntity
  8
0
  6
ByLayer
420
15263976
 48
1.0
 60
0
 67
0
370
-1
100
AcDbPolyline
 90
41
 70
1
 43
0.0
 38
0.0
 39
0.0
210
0.0
220
0.0
230
1.0
 10
666.5
 20
213.0
 40
0.0
 41
0.0
 42
0.0
 10
666.5
 20
213.0
 40
0.0
 41
0.0
 42
0.0
 10
666.5
 20
213.0
 40
0.0
 41
0.0
 42
0.0
 10
667.4754516100806541
 20
212.9039264020161681
 40
0.0
 41
0.0
 42
0.0
 10
668.4134171618254641
 20
212.6193976625564801
 40
0.0
 41
0.0
 42
0.0
 10
669.2778511650980136
 20
212.157348061512721
 40
0.0
 41
0.0
 42
0.0
 10
670.0355339059327662
 20
211.5355339059327662
 40
0.0
 41
0.0
 42
0.0
 10
670.657348061512721
 20
210.7778511650980136
 40
0.0
 41
0.0
 42
0.0
 10
671.1193976625564801
 20
209.9134171618254641
 40
0.0
 41
0.0
 42
0.0
 10
671.4039264020161681
 20
208.9754516100806541
 40
0.0
 41
0.0
 42
0.0
 10
671.5
 20
208.0
 40
0.0
 41
0.0
 42
0.0
 10
671.5
 20
118.0
 40
0.0
 41
0.0
 42
0.0
 10
671.5
 20
118.0
 40
0.0
 41
0.0
 42
0.0
 10
671.4039264020161681
 20
117.0245483899193459
 40
0.0
 41
0.0
 42
0.0
 10
671.1193976625564801
 20
116.0865828381745359
 40
0.0
 41
0.0
 42
0.0
 10
670.657348061512721
 20
115.2221488349019864
 40
0.0
 41
0.0
 42
0.0
 10
670.0355339059327662
 20
114.4644660940672338
 40
0.0
 41
0.0
 42
0.0
 10
669.2778511650980136
 20
113.842651938487279
 40
0.0
 41
0.0
 42
0.0
 10
668.4134171618254641
 20
113.3806023374435199
 40
0.0
 41
0.0
 42
0.0
 10
667.4754516100806541
 20
113.0960735979838319
 40
0.0
 41
0.0
 42
0.0
 10
666.5
 20
113.0
 40
0.0
 41
0.0
 42
0.0
 10
666.5
 20
113.0
 40
0.0
 41
0.0
 42
0.0
 10
666.5
 20
113.0
 40
0.0
 41
0.0
 42
0.0
 10
665.5245483899193459
 20
113.0960735979838319
 40
0.0
 41
0.0
 42
0.0
 10
664.5865828381745359
 20
113.3806023374435199
 40
0.0
 41
0.0
 42
0.0
 10
663.7221488349019864
 20
113.842651938487279
 40
0.0
 41
0.0
 42
0.0
 10
662.9644660940672338
 20
114.4644660940672338
 40
0.0
 41
0.0
 42
0.0
 10
662.342651938487279
 20
115.2221488349019864
 40
0.0
 41
0.0
 42
0.0
 10
661.8806023374435199
 20
116.0865828381745359
 40
0.0
 41
0.0
 42
0.0
 10
661.5960735979838319
 20
117.0245483899193459
 40
0.0
 41
0.0
 42
0.0
 10
661.5
 20
118.0
 40
0.0
 41
0.0
 42
0.0
 10
661.5
 20
208.0
 40
0.0
 41
0.0
 42
0.0
 10
661.5
 20
208.0
 40
0.0
 41
0.0
 42
0.0
 10
661.5960735979838319
 20
208.9754516100806541
 40
0.0
 41
0.0
 42
0.0
 10
661.8806023374435199
 20
209.9134171618254641
 40
0.0
 41
0.0
 42
0.0
 10
662.342651938487279
 20
210.7778511650980136
 40
0.0
 41
0.0
 42
0.0
 10
662.9644660940672338
 20
211.5355339059327662
 40
0.0
 41
0.0
 42
0.0
 10
663.7221488349019864
 20
212.157348061512721
 40
0.0
 41
0.0
 42
0.0
 10
664.5865828381745359
 20
212.6193976625564801
 40
0.0
 41
0.0
 42
0.0
 10
665.5245483899193459
 20
212.9039264020161681
 40
0.0
 41
0.0
 42
0.0
 10
666.5
 20
213.0
 40
0.0
 41
0.0
 42
0.0
  0
HATCH
  5
83
330
1D
100
AcDbEntity
  8
0
  6
ByLayer
420
1008382
 48
1.0
 60
0
 67
0
370
-1
100
AcDbHatch
 30
0.0
210
0.0
220
0.0
230
1.0
  2
SOLID
 70
1
 71
0
 91
1
 92
2
 72
0
 73
1
 93
41
 10
666.5
 20
213.0
 10
666.5
 20
213.0
 10
666.5
 20
213.0
 10
667.4754516100806541
 20
212.9039264020161681
 10
668.4134171618254641
 20
212.6193976625564801
 10
669.2778511650980136
 20
212.157348061512721
 10
670.0355339059327662
 20
211.5355339059327662
 10
670.657348061512721
 20
210.7778511650980136
 10
671.1193976625564801
 20
209.9134171618254641
 10
671.4039264020161681
 20
208.9754516100806541
 10
671.5
 20
208.0
 10
671.5
 20
148.0
 10
671.5
 20
148.0
 10
671.4039264020161681
 20
147.0245483899193459
 10
671.1193976625564801
 20
146.0865828381745359
 10
670.657348061512721
 20
145.2221488349019864
 10
670.0355339059327662
 20
144.4644660940672338
 10
669.2778511650980136
 20
143.842651938487279
 10
668.4134171618254641
 20
143.3806023374435199
 10
667.4754516100806541
 20
143.0960735979838319
 10
666.5
 20
143.0
 10
666.5
 20
143.0
 10
666.5
 20
143.0
 10
665.5245483899193459
 20
143.0960735979838319
 10
664.5865828381745359
 20
143.3806023374435199
 10
663.7221488349019864
 20
143.842651938487279
 10
662.9644660940672338
 20
144.4644660940672338
 10
662.342651938487279
 20
145.2221488349019864
 10
661.8806023374435199
 20
146.0865828381745359
 10
661.5960735979838319
 20
147.0245483899193459
 10
661.5
 20
148.0
 10
661.5
 20
208.0
 10
661.5
 20
208.0
 10
661.5960735979838319
 20
208.9754516100806541
 10
661.8806023374435199
 20
209.9134171618254641
 10
662.342651938487279
 20
210.7778511650980136
 10
662.9644660940672338
 20
211.5355339059327662
 10
663.7221488349019864
 20
212.157348061512721
 10
664.5865828381745359
 20
212.6193976625564801
 10
665.5245483899193459
 20
212.9039264020161681
 10
666.5
 20
213.0
 97
0
 75
0
 76
1
 47
0.0
 98
0
  0
LWPOLYLINE
  5
84
330
1D
100
AcDbEntity
  8
0
  6
ByLayer
420
1008382
 48
1.0
 60
0
 67
0
370
-1
100
AcDbPolyline
 90
41
 70
1
 43
0.0
 38
0.0
 39
0.0
210
0.0
220
0.0
230
1.0
 10
666.5
 20
213.0
 40
0.0
 41
0.0
 42
0.0
 10
666.5
 20
213.0
 40
0.0
 41
0.0
 42
0.0
 10
666.5
 20
213.0
 40
0.0
 41
0.0
 42
0.0
 10
667.4754516100806541
 20
212.9039264020161681
 40
0.0
 41
0.0
 42
0.0
 10
668.4134171618254641
 20
212.6193976625564801
 40
0.0
 41
0.0
 42
0.0
 10
669.2778511650980136
 20
212.157348061512721
 40
0.0
 41
0.0
 42
0.0
 10
670.0355339059327662
 20
211.5355339059327662
 40
0.0
 41
0.0
 42
0.0
 10
670.657348061512721
 20
210.7778511650980136
 40
0.0
 41
0.0
 42
0.0
 10
671.1193976625564801
 20
209.9134171618254641
 40
0.0
 41
0.0
 42
0.0
 10
671.4039264020161681
 20
208.9754516100806541
 40
0.0
 41
0.0
 42
0.0
 10
671.5
 20
208.0
 40
0.0
 41
0.0
 42
0.0
 10
671.5
 20
148.0
 40
0.0
 41
0.0
 42
0.0
 10
671.5
 20
148.0
 40
0.0
 41
0.0
 42
0.0
 10
671.4039264020161681
 20
147.0245483899193459
 40
0.0
 41
0.0
 42
0.0
 10
671.1193976625564801
 20
146.0865828381745359
 40
0.0
 41
0.0
 42
0.0
 10
670.657348061512721
 20
145.2221488349019864
 40
0.0
 41
0.0
 42
0.0
 10
670.0355339059327662
 20
144.4644660940672338
 40
0.0
 41
0.0
 42
0.0
 10
669.2778511650980136
 20
143.842651938487279
 40
0.0
 41
0.0
 42
0.0
 10
668.4134171618254641
 20
143.3806023374435199
 40
0.0
 41
0.0
 42
0.0
 10
667.4754516100806541
 20
143.0960735979838319
 40
0.0
 41
0.0
 42
0.0
 10
666.5
 20
143.0
 40
0.0
 41
0.0
 42
0.0
 10
666.5
 20
143.0
 40
0.0
 41
0.0
 42
0.0
 10
666.5
 20
143.0
 40
0.0
 41
0.0
 42
0.0
 10
665.5245483899193459
 20
143.0960735979838319
 40
0.0
 41
0.0
 42
0.0
 10
664.5865828381745359
 20
143.3806023374435199
 40
0.0
 41
0.0
 42
0.0
 10
663.7221488349019864
 20
143.842651938487279
 40
0.0
 41
0.0
 42
0.0
 10
662.9644660940672338
 20
144.4644660940672338
 40
0.0
 41
0.0
 42
0.0
 10
662.342651938487279
 20
145.2221488349019864
 40
0.0
 41
0.0
 42
0.0
 10
661.8806023374435199
 20
146.0865828381745359
 40
0.0
 41
0.0
 42
0.0
 10
661.5960735979838319
 20
147.0245483899193459
 40
0.0
 41
0.0
 42
0.0
 10
661.5
 20
148.0
 40
0.0
 41
0.0
 42
0.0
 10
661.5
 20
208.0
 40
0.0
 41
0.0
 42
0.0
 10
661.5
 20
208.0
 40
0.0
 41
0.0
 42
0.0
 10
661.5960735979838319
 20
208.9754516100806541
 40
0.0
 41
0.0
 42
0.0
 10
661.8806023374435199
 20
209.9134171618254641
 40
0.0
 41
0.0
 42
0.0
 10
662.342651938487279
 20
210.7778511650980136
 40
0.0
 41
0.0
 42
0.0
 10
662.9644660940672338
 20
211.5355339059327662
 40
0.0
 41
0.0
 42
0.0
 10
663.7221488349019864
 20
212.157348061512721
 40
0.0
 41
0.0
 42
0.0
 10
664.5865828381745359
 20
212.6193976625564801
 40
0.0
 41
0.0
 42
0.0
 10
665.5245483899193459
 20
212.9039264020161681
 40
0.0
 41
0.0
 42
0.0
 10
666.5
 20
213.0
 40
0.0
 41
0.0
 42
0.0
  0
HATCH
  5
85
330
1D
100
AcDbEntity
  8
0
  6
ByLayer
420
1008382
 48
1.0
 60
0
 67
0
370
-1
100
AcDbHatch
 30
0.0
210
0.0
220
0.0
230
1.0
  2
SOLID
 70
1
 71
0
 91
1
 92
2
 72
0
 73
1
 93
24
 10
676.5
 20
143.0
 10
676.1592582628907167
 20
140.4118095489748157
 10
675.1602540378444246
 20
138.0
 10
673.5710678118655323
 20
135.9289321881344677
 10
671.5
 20
134.3397459621555754
 10
669.0881904510251843
 20
133.3407417371092833
 10
666.5
 20
133.0
 10
663.9118095489748157
 20
133.3407417371092833
 10
661.5
 20
134.3397459621555754
 10
659.4289321881344677
 20
135.9289321881344677
 10
657.8397459621555754
 20
138.0
 10
656.8407417371092833
 20
140.4118095489748157
 10
656.5
 20
143.0
 10
656.8407417371092833
 20
145.5881904510251843
 10
657.8397459621555754
 20
148.0
 10
659.4289321881344677
 20
150.0710678118655323
 10
661.5
 20
151.6602540378444246
 10
663.9118095489748157
 20
152.6592582628907167
 10
666.5
 20
153.0
 10
669.0881904510251843
 20
152.6592582628907167
 10
671.5
 20
151.6602540378444246
 10
673.5710678118655323
 20
150.0710678118655323
 10
675.1602540378444246
 20
148.0
 10
676.1592582628907167
 20
145.5881904510251843
 97
0
 75
0
 76
1
 47
0.0
 98
0
  0
LWPOLYLINE
  5
86
330
1D
100
AcDbEntity
  8
0
  6
ByLayer
420
16777215
 48
1.0
 60
0
 67
0
370
-1
100
AcDbPolyline
 90
24
 70
1
 43
0.0
 38
0.0
 39
0.0
210
0.0
220
0.0
230
1.0
 10
676.5
 20
143.0
 40
0.0
 41
0.0
 42
0.0
 10
676.1592582628907167
 20
140.4118095489748157
 40
0.0
 41
0.0
 42
0.0
 10
675.1602540378444246
 20
138.0
 40
0.0
 41
0.0
 42
0.0
 10
673.5710678118655323
 20
135.9289321881344677
 40
0.0
 41
0.0
 42
0.0
 10
671.5
 20
134.3397459621555754
 40
0.0
 41
0.0
 42
0.0
 10
669.0881904510251843
 20
133.3407417371092833
 40
0.0
 41
0.0
 42
0.0
 10
666.5
 20
133.0
 40
0.0
 41
0.0
 42
0.0
 10
663.9118095489748157
 20
133.3407417371092833
 40
0.0
 41
0.0
 42
0.0
 10
661.5
 20
134.3397459621555754
 40
0.0
 41
0.0
 42
0.0
 10
659.4289321881344677
 20
135.9289321881344677
 40
0.0
 41
0.0
 42
0.0
 10
657.8397459621555754
 20
138.0
 40
0.0
 41
0.0
 42
0.0
 10
656.8407417371092833
 20
140.4118095489748157
 40
0.0
 41
0.0
 42
0.0
 10
656.5
 20
143.0
 40
0.0
 41
0.0
 42
0.0
 10
656.8407417371092833
 20
145.5881904510251843
 40
0.0
 41
0.0
 42
0.0
 10
657.8397459621555754
 20
148.0
 40
0.0
 41
0.0
 42
0.0
 10
659.4289321881344677
 20
150.0710678118655323
 40
0.0
 41
0.0
 42
0.0
 10
661.5
 20
151.6602540378444246
 40
0.0
 41
0.0
 42
0.0
 10
663.9118095489748157
 20
152.6592582628907167
 40
0.0
 41
0.0
 42
0.0
 10
666.5
 20
153.0
 40
0.0
 41
0.0
 42
0.0
 10
669.0881904510251843
 20
152.6592582628907167
 40
0.0
 41
0.0
 42
0.0
 10
671.5
 20
151.6602540378444246
 40
0.0
 41
0.0
 42
0.0
 10
673.5710678118655323
 20
150.0710678118655323
 40
0.0
 41
0.0
 42
0.0
 10
675.1602540378444246
 20
148.0
 40
0.0
 41
0.0
 42
0.0
 10
676.1592582628907167
 20
145.5881904510251843
 40
0.0
 41
0.0
 42
0.0
  0
TEXT
  5
87
330
1D
100
AcDbEntity
  8
0
  6
ByLayer
420
4938352
 48
1.0
 60
0
 67
0
370
-1
100
AcDbText
 39
0.0
 10
468.0
 20
76.5
 30
0.0
 40
12.0
  1
FILE
 50
0.0
 41
1.0
 51
0.0
  7
Standard
 71
0
 72
0
 11
0.0
 21
0.0
 31
0.0
210
0.0
220
0.0
230
1.0
100
AcDbText
 73
0
  0
HATCH
  5
88
330
1D
100
AcDbEntity
  8
0
  6
ByLayer
420
16777215
 48
1.0
 60
0
 67
0
370
-1
100
AcDbHatch
 30
0.0
210
0.0
220
0.0
230
1.0
  2
SOLID
 70
1
 71
0
 91
1
 92
2
 72
0
 73
1
 93
41
 10
476.0
 20
66.0
 10
853.0
 20
66.0
 10
853.0
 20
66.0
 10
854.5607225761290238
 20
65.8462822432258008
 10
856.0614674589206743
 20
65.3910362600903454
 10
857.4445618641568672
 20
64.6517568984203308
 10
858.6568542494924259
 20
63.6568542494924259
 10
859.6517568984203308
 20
62.4445618641568672
 10
860.3910362600903454
 20
61.0614674589206743
 10
860.8462822432258008
 20
59.5607225761290238
 10
861.0
 20
58.0
 10
861.0
 20
27.0
 10
861.0
 20
27.0
 10
860.8462822432258008
 20
25.4392774238708625
 10
860.3910362600903454
 20
23.938532541079212
 10
859.6517568984203308
 20
22.5554381358431328
 10
858.6568542494924259
 20
21.3431457505075741
 10
857.4445618641568672
 20
20.3482431015795555
 10
856.0614674589206743
 20
19.6089637399097683
 10
854.5607225761290238
 20
19.1537177567740855
 10
853.0
 20
19.0
 10
476.0
 20
19.0
 10
476.0
 20
19.0
 10
474.4392774238709762
 20
19.1537177567740855
 10
472.9385325410792689
 20
19.6089637399097683
 10
471.5554381358431897
 20
20.3482431015795555
 10
470.343145750507631
 20
21.3431457505075741
 10
469.3482431015796124
 20
22.5554381358431328
 10
468.6089637399097114
 20
23.938532541079212
 10
468.1537177567741423
 20
25.4392774238708625
 10
468.0
 20
27.0
 10
468.0
 20
58.0
 10
468.0
 20
58.0
 10
468.1537177567741423
 20
59.5607225761290238
 10
468.6089637399097114
 20
61.0614674589206743
 10
469.3482431015796124
 20
62.4445618641568672
 10
470.343145750507631
 20
63.6568542494924259
 10
471.5554381358431897
 20
64.6517568984203308
 10
472.9385325410792689
 20
65.3910362600903454
 10
474.4392774238709762
 20
65.8462822432258008
 10
476.0
 20
66.0
 97
0
 75
0
 76
1
 47
0.0
 98
0
  0
LWPOLYLINE
  5
89
330
1D
100
AcDbEntity
  8
0
  6
ByLayer
420
9741240
 48
1.0
 60
0
 67
0
370
-1
100
AcDbPolyline
 90
41
 70
1
 43
0.0
 38
0.0
 39
0.0
210
0.0
220
0.0
230
1.0
 10
476.0
 20
66.0
 40
0.0
 41
0.0
 42
0.0
 10
853.0
 20
66.0
 40
0.0
 41
0.0
 42
0.0
 10
853.0
 20
66.0
 40
0.0
 41
0.0
 42
0.0
 10
854.5607225761290238
 20
65.8462822432258008
 40
0.0
 41
0.0
 42
0.0
 10
856.0614674589206743
 20
65.3910362600903454
 40
0.0
 41
0.0
 42
0.0
 10
857.4445618641568672
 20
64.6517568984203308
 40
0.0
 41
0.0
 42
0.0
 10
858.6568542494924259
 20
63.6568542494924259
 40
0.0
 41
0.0
 42
0.0
 10
859.6517568984203308
 20
62.4445618641568672
 40
0.0
 41
0.0
 42
0.0
 10
860.3910362600903454
 20
61.0614674589206743
 40
0.0
 41
0.0
 42
0.0
 10
860.8462822432258008
 20
59.5607225761290238
 40
0.0
 41
0.0
 42
0.0
 10
861.0
 20
58.0
 40
0.0
 41
0.0
 42
0.0
 10
861.0
 20
27.0
 40
0.0
 41
0.0
 42
0.0
 10
861.0
 20
27.0
 40
0.0
 41
0.0
 42
0.0
 10
860.8462822432258008
 20
25.4392774238708625
 40
0.0
 41
0.0
 42
0.0
 10
860.3910362600903454
 20
23.938532541079212
 40
0.0
 41
0.0
 42
0.0
 10
859.6517568984203308
 20
22.5554381358431328
 40
0.0
 41
0.0
 42
0.0
 10
858.6568542494924259
 20
21.3431457505075741
 40
0.0
 41
0.0
 42
0.0
 10
857.4445618641568672
 20
20.3482431015795555
 40
0.0
 41
0.0
 42
0.0
 10
856.0614674589206743
 20
19.6089637399097683
 40
0.0
 41
0.0
 42
0.0
 10
854.5607225761290238
 20
19.1537177567740855
 40
0.0
 41
0.0
 42
0.0
 10
853.0
 20
19.0
 40
0.0
 41
0.0
 42
0.0
 10
476.0
 20
19.0
 40
0.0
 41
0.0
 42
0.0
 10
476.0
 20
19.0
 40
0.0
 41
0.0
 42
0.0
 10
474.4392774238709762
 20
19.1537177567740855
 40
0.0
 41
0.0
 42
0.0
 10
472.9385325410792689
 20
19.6089637399097683
 40
0.0
 41
0.0
 42
0.0
 10
471.5554381358431897
 20
20.3482431015795555
 40
0.0
 41
0.0
 42
0.0
 10
470.343145750507631
 20
21.3431457505075741
 40
0.0
 41
0.0
 42
0.0
 10
469.3482431015796124
 20
22.5554381358431328
 40
0.0
 41
0.0
 42
0.0
 10
468.6089637399097114
 20
23.938532541079212
 40
0.0
 41
0.0
 42
0.0
 10
468.1537177567741423
 20
25.4392774238708625
 40
0.0
 41
0.0
 42
0.0
 10
468.0
 20
27.0
 40
0.0
 41
0.0
 42
0.0
 10
468.0
 20
58.0
 40
0.0
 41
0.0
 42
0.0
 10
468.0
 20
58.0
 40
0.0
 41
0.0
 42
0.0
 10
468.1537177567741423
 20
59.5607225761290238
 40
0.0
 41
0.0
 42
0.0
 10
468.6089637399097114
 20
61.0614674589206743
 40
0.0
 41
0.0
 42
0.0
 10
469.3482431015796124
 20
62.4445618641568672
 40
0.0
 41
0.0
 42
0.0
 10
470.343145750507631
 20
63.6568542494924259
 40
0.0
 41
0.0
 42
0.0
 10
471.5554381358431897
 20
64.6517568984203308
 40
0.0
 41
0.0
 42
0.0
 10
472.9385325410792689
 20
65.3910362600903454
 40
0.0
 41
0.0
 42
0.0
 10
474.4392774238709762
 20
65.8462822432258008
 40
0.0
 41
0.0
 42
0.0
 10
476.0
 20
66.0
 40
0.0
 41
0.0
 42
0.0
  0
HATCH
  5
8A
330
1D
100
AcDbEntity
  8
0
  6
ByLayer
420
15724527
 48
1.0
 60
0
 67
0
370
-1
100
AcDbHatch
 30
0.0
210
0.0
220
0.0
230
1.0
  2
SOLID
 70
1
 71
0
 91
1
 92
2
 72
0
 73
1
 93
4
 10
469.0
 20
65.0
 10
601.9400000000000546
 20
65.0
 10
601.9400000000000546
 20
20.0
 10
469.0
 20
20.0
 97
0
 75
0
 76
1
 47
0.0
 98
0
  0
LWPOLYLINE
  5
8B
330
1D
100
AcDbEntity
  8
0
  6
ByLayer
420
9741240
 48
1.0
 60
0
 67
0
370
-1
100
AcDbPolyline
 90
4
 70
1
 43
0.0
 38
0.0
 39
0.0
210
0.0
220
0.0
230
1.0
 10
469.0
 20
65.0
 40
0.0
 41
0.0
 42
0.0
 10
601.9400000000000546
 20
65.0
 40
0.0
 41
0.0
 42
0.0
 10
601.9400000000000546
 20
20.0
 40
0.0
 41
0.0
 42
0.0
 10
469.0
 20
20.0
 40
0.0
 41
0.0
 42
0.0
  0
TEXT
  5
8C
330
1D
100
AcDbEntity
  8
0
  6
ByLayer
420
1120295
 48
1.0
 60
0
 67
0
370
-1
100
AcDbText
 39
0.0
 10
492.7866656494140898
 20
38.5
 30
0.0
 40
16.0
  1
Choose File
 50
0.0
 41
1.0
 51
0.0
  7
Standard
 71
0
 72
0
 11
0.0
 21
0.0
 31
0.0
210
0.0
220
0.0
230
1.0
100
AcDbText
 73
0
  0
TEXT
  5
8D
330
1D
100
AcDbEntity
  8
0
  6
ByLayer
420
6449528
 48
1.0
 60
0
 67
0
370
-1
100
AcDbText
 39
0.0
 10
613.9400000000000546
 20
38.5
 30
0.0
 40
16.0
  1
No file selected
 50
0.0
 41
1.0
 51
0.0
  7
Standard
 71
0
 72
0
 11
0.0
 21
0.0
 31
0.0
210
0.0
220
0.0
230
1.0
100
AcDbText
 73
0
  0
ENDSEC
  0
SECTION
  2
OBJECTS
  0
DICTIONARY
  5
1
330
0
100
AcDbDictionary
280
0
281
0
  3
ACAD_COLOR
350
2
  3
ACAD_GROUP
350
3
  3
ACAD_LAYOUT
350
4
  3
ACAD_MATERIAL
350
5
  3
ACAD_SORTENTS
350
6
  3
ACAD_MLEADERSTYLE
350
7
  3
ACAD_MLINESTYLE
350
8
  3
ACAD_TABLESTYLE
350
9
  3
ACAD_PLOTSETTINGS
350
A
  3
AcDbVariableDictionary
350
B
  3
ACAD_SCALELIST
350
C
  3
ACAD_VISUALSTYLE
350
D
  3
ACAD_FIELDLIST
350
E
  3
ACAD_IMAGE_DICT
350
F
  0
DICTIONARY
  5
2
330
1
100
AcDbDictionary
280
0
281
0
  0
DICTIONARY
  5
3
330
1
100
AcDbDictionary
280
0
281
0
  0
DICTIONARY
  5
4
330
1
100
AcDbDictionary
280
0
281
0
  0
DICTIONARY
  5
5
330
1
100
AcDbDictionary
280
0
281
0
  0
DICTIONARY
  5
6
330
1
100
AcDbDictionary
280
0
281
0
  0
DICTIONARY
  5
7
330
1
100
AcDbDictionary
280
0
281
0
  0
DICTIONARY
  5
8
330
1
100
AcDbDictionary
280
0
281
0
  0
DICTIONARY
  5
9
330
1
100
AcDbDictionary
280
0
281
0
  0
DICTIONARY
  5
A
330
1
100
AcDbDictionary
280
0
281
0
  0
DICTIONARY
  5
B
330
1
100
AcDbDictionary
280
0
281
0
  0
DICTIONARY
  5
C
330
1
100
AcDbDictionary
280
0
281
0
  0
DICTIONARY
  5
D
330
1
100
AcDbDictionary
280
0
281
0
  0
DICTIONARY
  5
E
330
1
100
AcDbDictionary
280
0
281
0
  0
DICTIONARY
  5
F
330
1
100
AcDbDictionary
280
0
281
0
  0
ENDSEC
  0
EOF
