0
SECTION
2
HEADER
9
$ACADVER
1
AC1021
9
$LASTSAVEDBY
1
@tarikjabiri/dxf
9
$HANDSEED
5
71
9
$INSUNITS
70
0
9
$CLAYER
8
0
9
$VIEWCTR
10
390
20
516
0
ENDSEC
0
SECTION
2
CLASSES
0
ENDSEC
0
SECTION
2
TABLES
0
TABLE
2
VPORT
5
1
330
0
100
AcDbSymbolTable
70
1
0
VPORT
5
19
330
1
100
AcDbSymbolTableRecord
100
AcDbViewportTableRecord
2
*Active
70
0
10
0
20
0
11
1
21
1
12
390
22
516
13
0
23
0
14
10
24
10
15
10
25
10
16
0
26
0
36
1
17
0
27
0
37
0
40
1232
41
2
42
50
43
0
44
0
50
0
51
0
71
0
72
100
73
1
74
3
75
0
76
1
77
0
78
0
281
0
65
1
110
0
120
0
130
0
111
1
121
0
131
0
112
0
122
1
132
0
79
0
146
0
348
10020
60
7
61
5
292
1
282
1
141
0
142
0
63
250
421
3358443
0
ENDTAB
0
TABLE
2
LTYPE
5
2
330
0
100
AcDbSymbolTable
70
3
0
LTYPE
5
12
330
2
100
AcDbSymbolTableRecord
100
AcDbLinetypeTableRecord
2
ByBlock
70
0
3

72
65
73
0
40
0
0
LTYPE
5
13
330
2
100
AcDbSymbolTableRecord
100
AcDbLinetypeTableRecord
2
ByLayer
70
0
3

72
65
73
0
40
0
0
LTYPE
5
14
330
2
100
AcDbSymbolTableRecord
100
AcDbLinetypeTableRecord
2
Continuous
70
0
3
Solid line
72
65
73
0
40
0
0
ENDTAB
0
TABLE
2
LAYER
5
3
330
0
100
AcDbSymbolTable
70
1
0
LAYER
5
15
330
3
100
AcDbSymbolTableRecord
100
AcDbLayerTableRecord
2
0
70
0
62
7
6
Continuous
370
0
390
0
0
ENDTAB
0
TABLE
2
STYLE
5
4
330
0
100
AcDbSymbolTable
70
2
0
STYLE
5
16
330
4
100
AcDbSymbolTableRecord
100
AcDbTextStyleTableRecord
2
Standard
70
0
40
0
41
1
50
0
71
0
42
1
3
txt
4

0
STYLE
5
1B
330
4
100
AcDbSymbolTableRecord
100
AcDbTextStyleTableRecord
2
Arial
70
0
40
0
41
1
50
0
71
0
42
1
3
Arial.ttf
4

0
ENDTAB
0
TABLE
2
VIEW
5
5
330
0
100
AcDbSymbolTable
70
0
0
ENDTAB
0
TABLE
2
UCS
5
6
330
0
100
AcDbSymbolTable
70
0
0
ENDTAB
0
TABLE
2
APPID
5
7
330
0
100
AcDbSymbolTable
70
1
0
APPID
5
17
330
7
100
AcDbSymbolTableRecord
100
AcDbRegAppTableRecord
2
ACAD
70
0
0
ENDTAB
0
TABLE
2
DIMSTYLE
5
8
330
0
100
AcDbSymbolTable
70
1
100
AcDbDimStyleTable
0
DIMSTYLE
105
18
330
8
100
AcDbSymbolTableRecord
100
AcDbDimStyleTableRecord
2
Standard
70
0
340
16
0
ENDTAB
0
TABLE
2
BLOCK_RECORD
5
9
330
0
100
AcDbSymbolTable
70
2
0
BLOCK_RECORD
5
C
330
9
100
AcDbSymbolTableRecord
100
AcDbBlockTableRecord
2
*Model_Space
70
0
280
1
281
0
0
BLOCK_RECORD
5
F
330
9
100
AcDbSymbolTableRecord
100
AcDbBlockTableRecord
2
*Paper_Space
70
0
280
1
281
0
0
ENDTAB
0
ENDSEC
0
SECTION
2
BLOCKS
0
BLOCK
5
D
330
C
100
AcDbEntity
8
0
100
AcDbBlockBegin
2
*Model_Space
70
0
10
0
20
0
30
0
3
*Model_Space
1

0
ENDBLK
5
E
100
AcDbEntity
8
0
100
AcDbBlockEnd
0
BLOCK
5
10
330
F
100
AcDbEntity
8
0
100
AcDbBlockBegin
2
*Paper_Space
70
0
10
0
20
0
30
0
3
*Paper_Space
1

0
ENDBLK
5
11
100
AcDbEntity
8
0
100
AcDbBlockEnd
0
ENDSEC
0
SECTION
2
ENTITIES
0
TEXT
5
1A
330
C
100
AcDbEntity
420
1910582
8
0
100
AcDbText
10
0
20
1032
30
0
40
28
1
Native Form Controls
7
Arial
100
AcDbText
0
LWPOLYLINE
5
1C
330
C
100
AcDbEntity
420
14147306
8
0
100
AcDbPolyline
90
42
70
0
43
0
38
0
39
0
10
14
20
1003
10
417
20
1003
10
417
20
1003
10
419.7312645082258
20
1002.7309939256452
10
422.35756805311127
20
1001.934313455158
10
424.77798326227446
20
1000.6405745722357
10
426.8994949366117
20
998.8994949366116
10
428.6405745722356
20
996.7779832622745
10
429.934313455158
20
994.3575680531112
10
430.73099392564524
20
991.7312645082258
10
431
20
989
10
431
20
686
10
431
20
686
10
430.73099392564524
20
683.2687354917741
10
429.934313455158
20
680.6424319468888
10
428.6405745722356
20
678.2220167377257
10
426.8994949366117
20
676.1005050633883
10
424.77798326227446
20
674.3594254277643
10
422.35756805311127
20
673.065686544842
10
419.7312645082258
20
672.2690060743548
10
417
20
672
10
14
20
672
10
14
20
672
10
11.268735491774205
20
672.2690060743548
10
8.642431946888744
20
673.065686544842
10
6.222016737725573
20
674.3594254277643
10
4.100505063388336
20
676.1005050633883
10
2.3594254277643643
20
678.2220167377257
10
1.065686544841986
20
680.6424319468888
10
0.26900607435477397
20
683.2687354917741
10
0
20
686
10
0
20
989
10
0
20
989
10
0.26900607435477397
20
991.7312645082258
10
1.0656865448419843
20
994.3575680531112
10
2.3594254277643643
20
996.7779832622745
10
4.100505063388333
20
998.8994949366116
10
6.2220167377255695
20
1000.6405745722357
10
8.642431946888735
20
1001.934313455158
10
11.268735491774198
20
1002.7309939256452
10
13.999999999999998
20
1003
10
14
20
1003
0
TEXT
5
1D
330
C
100
AcDbEntity
420
1910582
8
0
100
AcDbText
10
19
20
971
30
0
40
16
1
Value Fields
7
Arial
100
AcDbText
0
TEXT
5
1E
330
C
100
AcDbEntity
420
4938352
8
0
100
AcDbText
10
19
20
941.5
30
0
40
12
1
TEXT INPUT
7
Arial
100
AcDbText
0
LWPOLYLINE
5
1F
330
C
100
AcDbEntity
420
9741240
8
0
100
AcDbPolyline
90
42
70
0
43
0
38
0
39
0
10
27
20
931
10
404
20
931
10
404
20
931
10
405.560722576129
20
930.8462822432258
10
407.06146745892073
20
930.3910362600902
10
408.4445618641568
20
929.6517568984203
10
409.65685424949237
20
928.6568542494924
10
410.6517568984204
20
927.4445618641569
10
411.3910362600903
20
926.0614674589208
10
411.84628224322586
20
924.560722576129
10
412
20
923
10
412
20
899
10
412
20
899
10
411.84628224322586
20
897.439277423871
10
411.3910362600903
20
895.9385325410792
10
410.6517568984204
20
894.5554381358431
10
409.65685424949237
20
893.3431457505076
10
408.4445618641568
20
892.3482431015797
10
407.06146745892073
20
891.6089637399098
10
405.560722576129
20
891.1537177567741
10
404
20
891
10
27
20
891
10
27
20
891
10
25.439277423870976
20
891.1537177567741
10
23.938532541079283
20
891.6089637399098
10
22.555438135843183
20
892.3482431015797
10
21.34314575050762
20
893.3431457505076
10
20.348243101579637
20
894.5554381358431
10
19.608963739909704
20
895.9385325410792
10
19.153717756774157
20
897.439277423871
10
19
20
899
10
19
20
923
10
19
20
923
10
19.153717756774157
20
924.560722576129
10
19.608963739909704
20
926.0614674589208
10
20.348243101579637
20
927.4445618641569
10
21.343145750507617
20
928.6568542494924
10
22.555438135843183
20
929.6517568984203
10
23.938532541079276
20
930.3910362600902
10
25.43927742387097
20
930.8462822432258
10
27
20
931
10
27
20
931
0
TEXT
5
20
330
C
100
AcDbEntity
420
1120295
8
0
100
AcDbText
10
31
20
907
30
0
40
16
1
Alice Johnson
7
Arial
100
AcDbText
0
TEXT
5
21
330
C
100
AcDbEntity
420
4938352
8
0
100
AcDbText
10
19
20
866.5
30
0
40
12
1
TEXTAREA
7
Arial
100
AcDbText
0
LWPOLYLINE
5
22
330
C
100
AcDbEntity
420
9741240
8
0
100
AcDbPolyline
90
42
70
0
43
0
38
0
39
0
10
27
20
855
10
404
20
855
10
404
20
855
10
405.560722576129
20
854.8462822432259
10
407.06146745892073
20
854.3910362600902
10
408.4445618641568
20
853.6517568984203
10
409.65685424949237
20
852.6568542494924
10
410.6517568984204
20
851.4445618641569
10
411.3910362600903
20
850.0614674589208
10
411.84628224322586
20
848.560722576129
10
412
20
847
10
412
20
775
10
412
20
775
10
411.84628224322586
20
773.439277423871
10
411.3910362600903
20
771.9385325410792
10
410.6517568984204
20
770.5554381358431
10
409.65685424949237
20
769.3431457505076
10
408.4445618641568
20
768.3482431015796
10
407.06146745892073
20
767.6089637399098
10
405.560722576129
20
767.1537177567741
10
404
20
767
10
27
20
767
10
27
20
767
10
25.439277423870976
20
767.1537177567741
10
23.938532541079283
20
767.6089637399098
10
22.555438135843183
20
768.3482431015796
10
21.34314575050762
20
769.3431457505076
10
20.348243101579637
20
770.5554381358431
10
19.608963739909704
20
771.9385325410792
10
19.153717756774157
20
773.439277423871
10
19
20
775
10
19
20
847
10
19
20
847
10
19.153717756774157
20
848.560722576129
10
19.608963739909704
20
850.0614674589208
10
20.348243101579637
20
851.4445618641569
10
21.343145750507617
20
852.6568542494924
10
22.555438135843183
20
853.6517568984203
10
23.938532541079276
20
854.3910362600902
10
25.43927742387097
20
854.8462822432258
10
27
20
855
10
27
20
855
0
TEXT
5
23
330
C
100
AcDbEntity
420
1120295
8
0
100
AcDbText
10
31
20
831.4
30
0
40
16
1
First line
7
Arial
100
AcDbText
0
TEXT
5
24
330
C
100
AcDbEntity
420
1120295
8
0
100
AcDbText
10
31
20
812.2
30
0
40
16
1
Second line
7
Arial
100
AcDbText
0
TEXT
5
25
330
C
100
AcDbEntity
420
1120295
8
0
100
AcDbText
10
31
20
793
30
0
40
16
1
Third line
7
Arial
100
AcDbText
0
TEXT
5
26
330
C
100
AcDbEntity
420
4938352
8
0
100
AcDbText
10
19
20
741.5
30
0
40
12
1
SELECT
7
Arial
100
AcDbText
0
LWPOLYLINE
5
27
330
C
100
AcDbEntity
420
9741240
8
0
100
AcDbPolyline
90
42
70
0
43
0
38
0
39
0
10
27
20
731
10
404
20
731
10
404
20
731
10
405.560722576129
20
730.8462822432259
10
407.06146745892073
20
730.3910362600902
10
408.4445618641568
20
729.6517568984204
10
409.65685424949237
20
728.6568542494924
10
410.6517568984204
20
727.4445618641569
10
411.3910362600903
20
726.0614674589208
10
411.84628224322586
20
724.560722576129
10
412
20
723
10
412
20
699
10
412
20
699
10
411.84628224322586
20
697.439277423871
10
411.3910362600903
20
695.9385325410792
10
410.6517568984204
20
694.5554381358431
10
409.65685424949237
20
693.3431457505076
10
408.4445618641568
20
692.3482431015796
10
407.06146745892073
20
691.6089637399098
10
405.560722576129
20
691.1537177567741
10
404
20
691
10
27
20
691
10
27
20
691
10
25.439277423870976
20
691.1537177567741
10
23.938532541079283
20
691.6089637399098
10
22.555438135843183
20
692.3482431015796
10
21.34314575050762
20
693.3431457505076
10
20.348243101579637
20
694.5554381358431
10
19.608963739909704
20
695.9385325410792
10
19.153717756774157
20
697.439277423871
10
19
20
699
10
19
20
723
10
19
20
723
10
19.153717756774157
20
724.560722576129
10
19.608963739909704
20
726.0614674589208
10
20.348243101579637
20
727.4445618641569
10
21.343145750507617
20
728.6568542494924
10
22.555438135843183
20
729.6517568984204
10
23.938532541079276
20
730.3910362600902
10
25.43927742387097
20
730.8462822432259
10
27
20
731
10
27
20
731
0
TEXT
5
28
330
C
100
AcDbEntity
420
1120295
8
0
100
AcDbText
10
31
20
707
30
0
40
16
1
Normal
7
Arial
100
AcDbText
0
LWPOLYLINE
5
29
330
C
100
AcDbEntity
420
5263440
8
0
100
AcDbPolyline
90
3
70
0
43
0
38
0
39
0
10
399
20
712.76
10
403
20
709.24
10
407
20
712.76
0
LWPOLYLINE
5
2A
330
C
100
AcDbEntity
420
14147306
8
0
100
AcDbPolyline
90
42
70
0
43
0
38
0
39
0
10
463
20
1003
10
866
20
1003
10
866
20
1003
10
868.7312645082258
20
1002.7309939256452
10
871.3575680531112
20
1001.934313455158
10
873.7779832622745
20
1000.6405745722357
10
875.8994949366116
20
998.8994949366116
10
877.6405745722357
20
996.7779832622745
10
878.934313455158
20
994.3575680531112
10
879.7309939256452
20
991.7312645082258
10
880
20
989
10
880
20
686
10
880
20
686
10
879.7309939256452
20
683.2687354917741
10
878.934313455158
20
680.6424319468888
10
877.6405745722357
20
678.2220167377257
10
875.8994949366116
20
676.1005050633883
10
873.7779832622745
20
674.3594254277643
10
871.3575680531112
20
673.065686544842
10
868.7312645082258
20
672.2690060743548
10
866
20
672
10
463
20
672
10
463
20
672
10
460.2687354917742
20
672.2690060743548
10
457.64243194688873
20
673.065686544842
10
455.2220167377256
20
674.3594254277643
10
453.1005050633883
20
676.1005050633883
10
451.35942542776434
20
678.2220167377257
10
450.065686544842
20
680.6424319468888
10
449.26900607435476
20
683.2687354917741
10
449
20
686
10
449
20
989
10
449
20
989
10
449.26900607435476
20
991.7312645082258
10
450.065686544842
20
994.3575680531112
10
451.35942542776434
20
996.7779832622745
10
453.1005050633883
20
998.8994949366116
10
455.2220167377256
20
1000.6405745722357
10
457.64243194688873
20
1001.934313455158
10
460.2687354917742
20
1002.7309939256452
10
463
20
1003
10
463
20
1003
0
TEXT
5
2B
330
C
100
AcDbEntity
420
1910582
8
0
100
AcDbText
10
468
20
971
30
0
40
16
1
State Fields
7
Arial
100
AcDbText
0
LWPOLYLINE
5
2C
330
C
100
AcDbEntity
420
1008382
8
0
100
AcDbPolyline
90
42
70
0
43
0
38
0
39
0
10
474
20
949
10
488
20
949
10
488
20
949
10
488.3901806440323
20
948.9615705608064
10
488.7653668647302
20
948.8477590650226
10
489.1111404660392
20
948.6629392246051
10
489.4142135623731
20
948.4142135623731
10
489.6629392246051
20
948.1111404660392
10
489.84775906502256
20
947.7653668647301
10
489.9615705608065
20
947.3901806440323
10
490
20
947
10
490
20
933
10
490
20
933
10
489.9615705608065
20
932.6098193559677
10
489.84775906502256
20
932.2346331352699
10
489.6629392246051
20
931.8888595339608
10
489.4142135623731
20
931.5857864376269
10
489.1111404660392
20
931.3370607753949
10
488.7653668647302
20
931.1522409349774
10
488.3901806440323
20
931.0384294391936
10
488
20
931
10
474
20
931
10
474
20
931
10
473.6098193559677
20
931.0384294391936
10
473.2346331352698
20
931.1522409349774
10
472.8888595339608
20
931.3370607753949
10
472.5857864376269
20
931.5857864376269
10
472.3370607753949
20
931.8888595339608
10
472.15224093497744
20
932.2346331352699
10
472.0384294391935
20
932.6098193559677
10
472
20
933
10
472
20
947
10
472
20
947
10
472.0384294391935
20
947.3901806440323
10
472.15224093497744
20
947.7653668647301
10
472.3370607753949
20
948.1111404660392
10
472.5857864376269
20
948.4142135623731
10
472.8888595339608
20
948.6629392246051
10
473.2346331352698
20
948.8477590650226
10
473.6098193559677
20
948.9615705608064
10
474
20
949
10
474
20
949
0
LWPOLYLINE
5
2D
330
C
100
AcDbEntity
420
16777215
8
0
100
AcDbPolyline
90
3
70
0
43
0
38
0
39
0
10
475.96
20
939.28
10
479.56
20
935.6800000000001
10
486.04
20
943.6
0
TEXT
5
2E
330
C
100
AcDbEntity
420
4938352
8
0
100
AcDbText
10
503
20
937
30
0
40
12
1
CHECKED CHECKBOX
7
Arial
100
AcDbText
0
LWPOLYLINE
5
2F
330
C
100
AcDbEntity
420
1008382
8
0
100
AcDbPolyline
90
42
70
0
43
0
38
0
39
0
10
474
20
913
10
488
20
913
10
488
20
913
10
488.3901806440323
20
912.9615705608064
10
488.7653668647302
20
912.8477590650226
10
489.1111404660392
20
912.6629392246051
10
489.4142135623731
20
912.4142135623731
10
489.6629392246051
20
912.1111404660392
10
489.84775906502256
20
911.7653668647301
10
489.9615705608065
20
911.3901806440323
10
490
20
911
10
490
20
897
10
490
20
897
10
489.9615705608065
20
896.6098193559677
10
489.84775906502256
20
896.2346331352699
10
489.6629392246051
20
895.8888595339608
10
489.4142135623731
20
895.5857864376269
10
489.1111404660392
20
895.3370607753949
10
488.7653668647302
20
895.1522409349774
10
488.3901806440323
20
895.0384294391936
10
488
20
895
10
474
20
895
10
474
20
895
10
473.6098193559677
20
895.0384294391936
10
473.2346331352698
20
895.1522409349774
10
472.8888595339608
20
895.3370607753949
10
472.5857864376269
20
895.5857864376269
10
472.3370607753949
20
895.8888595339608
10
472.15224093497744
20
896.2346331352699
10
472.0384294391935
20
896.6098193559677
10
472
20
897
10
472
20
911
10
472
20
911
10
472.0384294391935
20
911.3901806440323
10
472.15224093497744
20
911.7653668647301
10
472.3370607753949
20
912.1111404660392
10
472.5857864376269
20
912.4142135623731
10
472.8888595339608
20
912.6629392246051
10
473.2346331352698
20
912.8477590650226
10
473.6098193559677
20
912.9615705608064
10
474
20
913
10
474
20
913
0
LWPOLYLINE
5
30
330
C
100
AcDbEntity
420
16777215
8
0
100
AcDbPolyline
90
5
70
0
43
0
38
0
39
0
10
475.6
20
905.26
10
486.4
20
905.26
10
486.4
20
902.74
10
475.6
20
902.74
10
475.6
20
905.26
0
TEXT
5
31
330
C
100
AcDbEntity
420
4938352
8
0
100
AcDbText
10
503
20
901
30
0
40
12
1
INDETERMINATE CHECKBOX
7
Arial
100
AcDbText
0
HATCH
5
32
330
C
100
AcDbEntity
420
16777215
8
0
100
AcDbHatch
10
0
20
0
30
0
210
0
220
0
230
1
2
SOLID
70
1
71
0
91
1
92
7
72
0
73
1
93
28
10
491
20
868
10
490.7743512096364
20
865.9973115943932
10
490.1087198111218
20
864.095046347942
10
489.03648334221225
20
862.3885917832714
10
487.6114082167286
20
860.9635166577877
10
485.904953652058
20
859.8912801888782
10
484.0026884056068
20
859.2256487903636
10
482
20
859
10
479.9973115943932
20
859.2256487903636
10
478.095046347942
20
859.8912801888782
10
476.3885917832714
20
860.9635166577877
10
474.96351665778775
20
862.3885917832714
10
473.8912801888782
20
864.095046347942
10
473.2256487903636
20
865.9973115943932
10
473
20
868
10
473.2256487903636
20
870.0026884056068
10
473.8912801888782
20
871.904953652058
10
474.96351665778775
20
873.6114082167286
10
476.3885917832714
20
875.0364833422123
10
478.095046347942
20
876.1087198111218
10
479.9973115943932
20
876.7743512096364
10
482
20
877
10
484.0026884056068
20
876.7743512096364
10
485.904953652058
20
876.1087198111218
10
487.6114082167286
20
875.0364833422123
10
489.03648334221225
20
873.6114082167286
10
490.1087198111218
20
871.904953652058
10
490.7743512096364
20
870.0026884056068
97
0
75
1
76
1
47
1
98
0
0
LWPOLYLINE
5
33
330
C
100
AcDbEntity
420
1008382
8
0
100
AcDbPolyline
90
29
70
0
43
0
38
0
39
0
10
491
20
868
10
490.7743512096364
20
865.9973115943932
10
490.1087198111218
20
864.095046347942
10
489.03648334221225
20
862.3885917832714
10
487.6114082167286
20
860.9635166577877
10
485.904953652058
20
859.8912801888782
10
484.0026884056068
20
859.2256487903636
10
482
20
859
10
479.9973115943932
20
859.2256487903636
10
478.095046347942
20
859.8912801888782
10
476.3885917832714
20
860.9635166577877
10
474.96351665778775
20
862.3885917832714
10
473.8912801888782
20
864.095046347942
10
473.2256487903636
20
865.9973115943932
10
473
20
868
10
473.2256487903636
20
870.0026884056068
10
473.8912801888782
20
871.904953652058
10
474.96351665778775
20
873.6114082167286
10
476.3885917832714
20
875.0364833422123
10
478.095046347942
20
876.1087198111218
10
479.9973115943932
20
876.7743512096364
10
482
20
877
10
484.0026884056068
20
876.7743512096364
10
485.904953652058
20
876.1087198111218
10
487.6114082167286
20
875.0364833422123
10
489.03648334221225
20
873.6114082167286
10
490.1087198111218
20
871.904953652058
10
490.7743512096364
20
870.0026884056068
10
491
20
868
0
HATCH
5
34
330
C
100
AcDbEntity
420
1008382
8
0
100
AcDbHatch
10
0
20
0
30
0
210
0
220
0
230
1
2
SOLID
70
1
71
0
91
1
92
7
72
0
73
1
93
24
10
485.78
20
868
10
485.6511996233727
20
867.0216640095125
10
485.2735760263052
20
866.11
10
484.67286363288514
20
865.3271363671149
10
483.89
20
864.7264239736949
10
482.97833599048755
20
864.3488003766273
10
482
20
864.22
10
481.02166400951245
20
864.3488003766273
10
480.11
20
864.7264239736949
10
479.32713636711486
20
865.3271363671149
10
478.7264239736948
20
866.11
10
478.3488003766273
20
867.0216640095125
10
478.22
20
868
10
478.3488003766273
20
868.9783359904875
10
478.7264239736948
20
869.89
10
479.32713636711486
20
870.6728636328851
10
480.11
20
871.2735760263051
10
481.02166400951245
20
871.6511996233727
10
482
20
871.78
10
482.97833599048755
20
871.6511996233727
10
483.89
20
871.2735760263051
10
484.67286363288514
20
870.6728636328851
10
485.2735760263052
20
869.89
10
485.6511996233727
20
868.9783359904875
97
0
75
1
76
1
47
1
98
0
0
LWPOLYLINE
5
35
330
C
100
AcDbEntity
420
1008382
8
0
100
AcDbPolyline
90
25
70
0
43
0
38
0
39
0
10
485.78
20
868
10
485.6511996233727
20
867.0216640095125
10
485.2735760263052
20
866.11
10
484.67286363288514
20
865.3271363671149
10
483.89
20
864.7264239736949
10
482.97833599048755
20
864.3488003766273
10
482
20
864.22
10
481.02166400951245
20
864.3488003766273
10
480.11
20
864.7264239736949
10
479.32713636711486
20
865.3271363671149
10
478.7264239736948
20
866.11
10
478.3488003766273
20
867.0216640095125
10
478.22
20
868
10
478.3488003766273
20
868.9783359904875
10
478.7264239736948
20
869.89
10
479.32713636711486
20
870.6728636328851
10
480.11
20
871.2735760263051
10
481.02166400951245
20
871.6511996233727
10
482
20
871.78
10
482.97833599048755
20
871.6511996233727
10
483.89
20
871.2735760263051
10
484.67286363288514
20
870.6728636328851
10
485.2735760263052
20
869.89
10
485.6511996233727
20
868.9783359904875
10
485.78
20
868
0
TEXT
5
36
330
C
100
AcDbEntity
420
4938352
8
0
100
AcDbText
10
504
20
866.5
30
0
40
12
1
SELECTED RADIO BUTTON
7
Arial
100
AcDbText
0
TEXT
5
37
330
C
100
AcDbEntity
420
4938352
8
0
100
AcDbText
10
468
20
836.5
30
0
40
12
1
PROGRESS
7
Arial
100
AcDbText
0
LWPOLYLINE
5
38
330
C
100
AcDbEntity
420
9408413
8
0
100
AcDbPolyline
90
42
70
0
43
0
38
0
39
0
10
477
20
826
10
852
20
826
10
852
20
826
10
853.7558128981451
20
825.827067523629
10
855.4441508912859
20
825.3149157926016
10
857.0001320971764
20
824.483226510723
10
858.363961030679
20
823.3639610306789
10
859.483226510723
20
822.0001320971764
10
860.3149157926016
20
820.4441508912857
10
860.8270675236291
20
818.7558128981452
10
861
20
817
10
861
20
817
10
861
20
817
10
860.8270675236291
20
815.2441871018548
10
860.3149157926016
20
813.5558491087143
10
859.483226510723
20
811.9998679028236
10
858.363961030679
20
810.6360389693211
10
857.0001320971764
20
809.516773489277
10
855.4441508912859
20
808.6850842073984
10
853.7558128981451
20
808.172932476371
10
852
20
808
10
477
20
808
10
477
20
808
10
475.24418710185483
20
808.172932476371
10
473.5558491087142
20
808.6850842073984
10
471.9998679028236
20
809.516773489277
10
470.6360389693211
20
810.6360389693211
10
469.5167734892771
20
811.9998679028236
10
468.6850842073984
20
813.5558491087143
10
468.17293247637093
20
815.2441871018548
10
468
20
817
10
468
20
817
10
468
20
817
10
468.17293247637093
20
818.7558128981452
10
468.6850842073984
20
820.4441508912857
10
469.5167734892771
20
822.0001320971764
10
470.6360389693211
20
823.3639610306789
10
471.99986790282355
20
824.483226510723
10
473.5558491087142
20
825.3149157926016
10
475.24418710185483
20
825.827067523629
10
477
20
826
10
477
20
826
0
LWPOLYLINE
5
39
330
C
100
AcDbEntity
420
1008382
8
0
100
AcDbPolyline
90
42
70
0
43
0
38
0
39
0
10
477
20
825
10
742.52
20
825
10
742.52
20
825
10
744.080722576129
20
824.8462822432259
10
745.5814674589207
20
824.3910362600902
10
746.9645618641568
20
823.6517568984203
10
748.1768542494924
20
822.6568542494924
10
749.1717568984203
20
821.4445618641569
10
749.9110362600903
20
820.0614674589208
10
750.3662822432258
20
818.560722576129
10
750.52
20
817
10
750.52
20
817
10
750.52
20
817
10
750.3662822432258
20
815.439277423871
10
749.9110362600903
20
813.9385325410792
10
749.1717568984203
20
812.5554381358431
10
748.1768542494924
20
811.3431457505076
10
746.9645618641568
20
810.3482431015797
10
745.5814674589207
20
809.6089637399098
10
744.080722576129
20
809.1537177567741
10
742.52
20
809
10
477
20
809
10
477
20
809
10
475.439277423871
20
809.1537177567741
10
473.93853254107927
20
809.6089637399098
10
472.5554381358432
20
810.3482431015797
10
471.34314575050763
20
811.3431457505076
10
470.3482431015796
20
812.5554381358431
10
469.6089637399097
20
813.9385325410792
10
469.15371775677414
20
815.439277423871
10
469
20
817
10
469
20
817
10
469
20
817
10
469.15371775677414
20
818.560722576129
10
469.6089637399097
20
820.0614674589208
10
470.3482431015796
20
821.4445618641569
10
471.34314575050763
20
822.6568542494924
10
472.5554381358432
20
823.6517568984203
10
473.93853254107927
20
824.3910362600902
10
475.439277423871
20
824.8462822432258
10
477
20
825
10
477
20
825
0
TEXT
5
3A
330
C
100
AcDbEntity
420
1910582
8
0
100
AcDbText
10
648.4833335876465
20
813
30
0
40
16
1
72%
7
Arial
100
AcDbText
0
TEXT
5
3B
330
C
100
AcDbEntity
420
4938352
8
0
100
AcDbText
10
468
20
783.5
30
0
40
12
1
METER
7
Arial
100
AcDbText
0
LWPOLYLINE
5
3C
330
C
100
AcDbEntity
420
1910582
8
0
100
AcDbPolyline
90
42
70
0
43
0
38
0
39
0
10
478
20
773
10
851
20
773
10
851
20
773
10
852.9509032201613
20
772.8078528040323
10
854.8268343236509
20
772.2387953251128
10
856.555702330196
20
771.3146961230254
10
858.0710678118655
20
770.0710678118655
10
859.3146961230254
20
768.555702330196
10
860.2387953251128
20
766.8268343236509
10
860.8078528040323
20
764.9509032201613
10
861
20
763
10
861
20
763
10
861
20
763
10
860.8078528040323
20
761.0490967798387
10
860.2387953251128
20
759.1731656763491
10
859.3146961230254
20
757.444297669804
10
858.0710678118655
20
755.9289321881345
10
856.555702330196
20
754.6853038769746
10
854.8268343236509
20
753.7612046748872
10
852.9509032201613
20
753.1921471959677
10
851
20
753
10
478
20
753
10
478
20
753
10
476.0490967798387
20
753.1921471959677
10
474.17316567634913
20
753.7612046748872
10
472.444297669804
20
754.6853038769746
10
470.9289321881345
20
755.9289321881345
10
469.68530387697456
20
757.444297669804
10
468.76120467488715
20
759.1731656763491
10
468.1921471959677
20
761.0490967798387
10
468
20
763
10
468
20
763
10
468
20
763
10
468.1921471959677
20
764.9509032201613
10
468.76120467488715
20
766.8268343236509
10
469.68530387697456
20
768.555702330196
10
470.9289321881345
20
770.0710678118655
10
472.444297669804
20
771.3146961230254
10
474.1731656763491
20
772.2387953251128
10
476.0490967798387
20
772.8078528040323
10
478
20
773
10
478
20
773
0
LWPOLYLINE
5
3D
330
C
100
AcDbEntity
420
3706428
8
0
100
AcDbPolyline
90
42
70
0
43
0
38
0
39
0
10
478
20
772
10
702.42
20
772
10
702.42
20
772
10
704.1758128981451
20
771.827067523629
10
705.8641508912858
20
771.3149157926016
10
707.4201320971764
20
770.483226510723
10
708.7839610306789
20
769.3639610306789
10
709.9032265107229
20
768.0001320971764
10
710.7349157926016
20
766.4441508912857
10
711.2470675236291
20
764.7558128981452
10
711.42
20
763
10
711.42
20
763
10
711.42
20
763
10
711.2470675236291
20
761.2441871018548
10
710.7349157926016
20
759.5558491087143
10
709.9032265107229
20
757.9998679028236
10
708.7839610306789
20
756.6360389693211
10
707.4201320971764
20
755.516773489277
10
705.8641508912858
20
754.6850842073984
10
704.1758128981451
20
754.172932476371
10
702.42
20
754
10
478
20
754
10
478
20
754
10
476.24418710185483
20
754.172932476371
10
474.5558491087142
20
754.6850842073984
10
472.9998679028236
20
755.516773489277
10
471.6360389693211
20
756.6360389693211
10
470.5167734892771
20
757.9998679028236
10
469.6850842073984
20
759.5558491087143
10
469.17293247637093
20
761.2441871018548
10
469
20
763
10
469
20
763
10
469
20
763
10
469.17293247637093
20
764.7558128981452
10
469.6850842073984
20
766.4441508912857
10
470.5167734892771
20
768.0001320971764
10
471.6360389693211
20
769.3639610306789
10
472.99986790282355
20
770.483226510723
10
474.5558491087142
20
771.3149157926016
10
476.24418710185483
20
771.827067523629
10
478
20
772
10
478
20
772
0
LWPOLYLINE
5
3E
330
C
100
AcDbEntity
420
14147306
8
0
100
AcDbPolyline
90
42
70
0
43
0
38
0
39
0
10
14
20
654
10
417
20
654
10
417
20
654
10
419.7312645082258
20
653.7309939256452
10
422.35756805311127
20
652.934313455158
10
424.77798326227446
20
651.6405745722357
10
426.8994949366117
20
649.8994949366117
10
428.6405745722356
20
647.7779832622743
10
429.934313455158
20
645.3575680531112
10
430.73099392564524
20
642.7312645082259
10
431
20
640
10
431
20
14
10
431
20
14
10
430.73099392564524
20
11.268735491774123
10
429.934313455158
20
8.642431946888792
10
428.6405745722356
20
6.222016737725653
10
426.8994949366117
20
4.100505063388255
10
424.77798326227446
20
2.359425427764336
10
422.35756805311127
20
1.0656865448420376
10
419.7312645082258
20
0.26900607435482016
10
417
20
0
10
14
20
0
10
14
20
0
10
11.268735491774205
20
0.26900607435482016
10
8.642431946888744
20
1.0656865448420376
10
6.222016737725573
20
2.359425427764336
10
4.100505063388336
20
4.100505063388255
10
2.3594254277643643
20
6.222016737725653
10
1.065686544841986
20
8.642431946888792
10
0.26900607435477397
20
11.268735491774123
10
0
20
14
10
0
20
640
10
0
20
640
10
0.26900607435477397
20
642.7312645082259
10
1.0656865448419843
20
645.3575680531112
10
2.3594254277643643
20
647.7779832622743
10
4.100505063388333
20
649.8994949366117
10
6.2220167377255695
20
651.6405745722357
10
8.642431946888735
20
652.934313455158
10
11.268735491774198
20
653.7309939256452
10
13.999999999999998
20
654
10
14
20
654
0
TEXT
5
3F
330
C
100
AcDbEntity
420
1910582
8
0
100
AcDbText
10
19
20
622
30
0
40
16
1
Date & Time
7
Arial
100
AcDbText
0
TEXT
5
40
330
C
100
AcDbEntity
420
4938352
8
0
100
AcDbText
10
19
20
592.5
30
0
40
12
1
DATE
7
Arial
100
AcDbText
0
LWPOLYLINE
5
41
330
C
100
AcDbEntity
420
9741240
8
0
100
AcDbPolyline
90
42
70
0
43
0
38
0
39
0
10
27
20
582
10
404
20
582
10
404
20
582
10
405.560722576129
20
581.8462822432259
10
407.06146745892073
20
581.3910362600902
10
408.4445618641568
20
580.6517568984204
10
409.65685424949237
20
579.6568542494924
10
410.6517568984204
20
578.4445618641569
10
411.3910362600903
20
577.0614674589208
10
411.84628224322586
20
575.560722576129
10
412
20
574
10
412
20
550
10
412
20
550
10
411.84628224322586
20
548.439277423871
10
411.3910362600903
20
546.9385325410792
10
410.6517568984204
20
545.5554381358431
10
409.65685424949237
20
544.3431457505076
10
408.4445618641568
20
543.3482431015796
10
407.06146745892073
20
542.6089637399097
10
405.560722576129
20
542.1537177567742
10
404
20
542
10
27
20
542
10
27
20
542
10
25.439277423870976
20
542.1537177567742
10
23.938532541079283
20
542.6089637399097
10
22.555438135843183
20
543.3482431015796
10
21.34314575050762
20
544.3431457505076
10
20.348243101579637
20
545.5554381358431
10
19.608963739909704
20
546.9385325410792
10
19.153717756774157
20
548.439277423871
10
19
20
550
10
19
20
574
10
19
20
574
10
19.153717756774157
20
575.560722576129
10
19.608963739909704
20
577.0614674589208
10
20.348243101579637
20
578.4445618641569
10
21.343145750507617
20
579.6568542494924
10
22.555438135843183
20
580.6517568984204
10
23.938532541079276
20
581.3910362600902
10
25.43927742387097
20
581.8462822432259
10
27
20
582
10
27
20
582
0
LWPOLYLINE
5
42
330
C
100
AcDbEntity
420
1120295
8
0
100
AcDbPolyline
90
5
70
0
43
0
38
0
39
0
10
385.2
20
569
10
399.2
20
569
10
399.2
20
555
10
385.2
20
555
10
385.2
20
569
0
LWPOLYLINE
5
43
330
C
100
AcDbEntity
420
1120295
8
0
100
AcDbPolyline
90
2
70
0
43
0
38
0
39
0
10
385.2
20
564.8
10
399.2
20
564.8
0
LWPOLYLINE
5
44
330
C
100
AcDbEntity
420
1120295
8
0
100
AcDbPolyline
90
2
70
0
43
0
38
0
39
0
10
388.28
20
569.7
10
388.28
20
567.04
0
LWPOLYLINE
5
45
330
C
100
AcDbEntity
420
1120295
8
0
100
AcDbPolyline
90
2
70
0
43
0
38
0
39
0
10
396.12
20
569.7
10
396.12
20
567.04
0
TEXT
5
46
330
C
100
AcDbEntity
420
1120295
8
0
100
AcDbText
10
31
20
558
30
0
40
16
1
04/13/2026
7
Arial
100
AcDbText
0
TEXT
5
47
330
C
100
AcDbEntity
420
4938352
8
0
100
AcDbText
10
19
20
517.5
30
0
40
12
1
TIME
7
Arial
100
AcDbText
0
LWPOLYLINE
5
48
330
C
100
AcDbEntity
420
9741240
8
0
100
AcDbPolyline
90
42
70
0
43
0
38
0
39
0
10
27
20
507
10
404
20
507
10
404
20
507
10
405.560722576129
20
506.8462822432258
10
407.06146745892073
20
506.39103626009035
10
408.4445618641568
20
505.65175689842033
10
409.65685424949237
20
504.6568542494924
10
410.6517568984204
20
503.44456186415687
10
411.3910362600903
20
502.0614674589207
10
411.84628224322586
20
500.560722576129
10
412
20
499
10
412
20
475
10
412
20
475
10
411.84628224322586
20
473.439277423871
10
411.3910362600903
20
471.9385325410793
10
410.6517568984204
20
470.55543813584313
10
409.65685424949237
20
469.3431457505076
10
408.4445618641568
20
468.34824310157967
10
407.06146745892073
20
467.60896373990965
10
405.560722576129
20
467.1537177567742
10
404
20
467
10
27
20
467
10
27
20
467
10
25.439277423870976
20
467.1537177567742
10
23.938532541079283
20
467.60896373990965
10
22.555438135843183
20
468.34824310157967
10
21.34314575050762
20
469.3431457505076
10
20.348243101579637
20
470.55543813584313
10
19.608963739909704
20
471.9385325410793
10
19.153717756774157
20
473.439277423871
10
19
20
475
10
19
20
499
10
19
20
499
10
19.153717756774157
20
500.560722576129
10
19.608963739909704
20
502.0614674589207
10
20.348243101579637
20
503.44456186415687
10
21.343145750507617
20
504.6568542494924
10
22.555438135843183
20
505.65175689842033
10
23.938532541079276
20
506.39103626009035
10
25.43927742387097
20
506.8462822432258
10
27
20
507
10
27
20
507
0
LWPOLYLINE
5
49
330
C
100
AcDbEntity
420
1120295
8
0
100
AcDbPolyline
90
21
70
0
43
0
38
0
39
0
10
398.64
20
487
10
398.32480396494077
20
485.0099305562253
10
397.41006944377466
20
483.2146629752365
10
395.9853370247635
20
481.7899305562254
10
394.19006944377463
20
480.87519603505916
10
392.2
20
480.55999999999995
10
390.20993055622534
20
480.87519603505916
10
388.41466297523647
20
481.7899305562254
10
386.9899305562253
20
483.2146629752365
10
386.0751960350592
20
485.0099305562253
10
385.76
20
487
10
386.0751960350592
20
488.9900694437747
10
386.9899305562253
20
490.7853370247635
10
388.41466297523647
20
492.2100694437746
10
390.20993055622534
20
493.12480396494084
10
392.2
20
493.44000000000005
10
394.19006944377463
20
493.12480396494084
10
395.9853370247635
20
492.2100694437746
10
397.41006944377466
20
490.7853370247635
10
398.32480396494077
20
488.9900694437747
10
398.64
20
487
0
LWPOLYLINE
5
4A
330
C
100
AcDbEntity
420
1120295
8
0
100
AcDbPolyline
90
2
70
0
43
0
38
0
39
0
10
392.2
20
487
10
392.2
20
490.3488
0
LWPOLYLINE
5
4B
330
C
100
AcDbEntity
420
1120295
8
0
100
AcDbPolyline
90
2
70
0
43
0
38
0
39
0
10
392.2
20
487
10
394.776
20
487
0
TEXT
5
4C
330
C
100
AcDbEntity
420
1120295
8
0
100
AcDbText
10
31
20
483
30
0
40
16
1
2:35 PM
7
Arial
100
AcDbText
0
TEXT
5
4D
330
C
100
AcDbEntity
420
4938352
8
0
100
AcDbText
10
19
20
442.5
30
0
40
12
1
DATETIME
7
Arial
100
AcDbText
0
LWPOLYLINE
5
4E
330
C
100
AcDbEntity
420
9741240
8
0
100
AcDbPolyline
90
42
70
0
43
0
38
0
39
0
10
27
20
432
10
404
20
432
10
404
20
432
10
405.560722576129
20
431.8462822432258
10
407.06146745892073
20
431.39103626009035
10
408.4445618641568
20
430.65175689842033
10
409.65685424949237
20
429.6568542494924
10
410.6517568984204
20
428.44456186415687
10
411.3910362600903
20
427.0614674589207
10
411.84628224322586
20
425.560722576129
10
412
20
424
10
412
20
400
10
412
20
400
10
411.84628224322586
20
398.439277423871
10
411.3910362600903
20
396.9385325410793
10
410.6517568984204
20
395.55543813584313
10
409.65685424949237
20
394.3431457505076
10
408.4445618641568
20
393.34824310157967
10
407.06146745892073
20
392.60896373990965
10
405.560722576129
20
392.1537177567742
10
404
20
392
10
27
20
392
10
27
20
392
10
25.439277423870976
20
392.1537177567742
10
23.938532541079283
20
392.60896373990965
10
22.555438135843183
20
393.34824310157967
10
21.34314575050762
20
394.3431457505076
10
20.348243101579637
20
395.55543813584313
10
19.608963739909704
20
396.9385325410793
10
19.153717756774157
20
398.439277423871
10
19
20
400
10
19
20
424
10
19
20
424
10
19.153717756774157
20
425.560722576129
10
19.608963739909704
20
427.0614674589207
10
20.348243101579637
20
428.44456186415687
10
21.343145750507617
20
429.6568542494924
10
22.555438135843183
20
430.65175689842033
10
23.938532541079276
20
431.39103626009035
10
25.43927742387097
20
431.8462822432258
10
27
20
432
10
27
20
432
0
LWPOLYLINE
5
4F
330
C
100
AcDbEntity
420
1120295
8
0
100
AcDbPolyline
90
5
70
0
43
0
38
0
39
0
10
385.2
20
419
10
399.2
20
419
10
399.2
20
405
10
385.2
20
405
10
385.2
20
419
0
LWPOLYLINE
5
50
330
C
100
AcDbEntity
420
1120295
8
0
100
AcDbPolyline
90
2
70
0
43
0
38
0
39
0
10
385.2
20
414.79999999999995
10
399.2
20
414.79999999999995
0
LWPOLYLINE
5
51
330
C
100
AcDbEntity
420
1120295
8
0
100
AcDbPolyline
90
2
70
0
43
0
38
0
39
0
10
388.28
20
419.70000000000005
10
388.28
20
417.03999999999996
0
LWPOLYLINE
5
52
330
C
100
AcDbEntity
420
1120295
8
0
100
AcDbPolyline
90
2
70
0
43
0
38
0
39
0
10
396.12
20
419.70000000000005
10
396.12
20
417.03999999999996
0
TEXT
5
53
330
C
100
AcDbEntity
420
1120295
8
0
100
AcDbText
10
31
20
408
30
0
40
16
1
4/13/26, 2:35 PM
7
Arial
100
AcDbText
0
LWPOLYLINE
5
54
330
C
100
AcDbEntity
420
14147306
8
0
100
AcDbPolyline
90
42
70
0
43
0
38
0
39
0
10
463
20
654
10
866
20
654
10
866
20
654
10
868.7312645082258
20
653.7309939256452
10
871.3575680531112
20
652.934313455158
10
873.7779832622745
20
651.6405745722357
10
875.8994949366116
20
649.8994949366117
10
877.6405745722357
20
647.7779832622743
10
878.934313455158
20
645.3575680531112
10
879.7309939256452
20
642.7312645082259
10
880
20
640
10
880
20
14
10
880
20
14
10
879.7309939256452
20
11.268735491774123
10
878.934313455158
20
8.642431946888792
10
877.6405745722357
20
6.222016737725653
10
875.8994949366116
20
4.100505063388255
10
873.7779832622745
20
2.359425427764336
10
871.3575680531112
20
1.0656865448420376
10
868.7312645082258
20
0.26900607435482016
10
866
20
0
10
463
20
0
10
463
20
0
10
460.2687354917742
20
0.26900607435482016
10
457.64243194688873
20
1.0656865448420376
10
455.2220167377256
20
2.359425427764336
10
453.1005050633883
20
4.100505063388255
10
451.35942542776434
20
6.222016737725653
10
450.065686544842
20
8.642431946888792
10
449.26900607435476
20
11.268735491774123
10
449
20
14
10
449
20
640
10
449
20
640
10
449.26900607435476
20
642.7312645082259
10
450.065686544842
20
645.3575680531112
10
451.35942542776434
20
647.7779832622743
10
453.1005050633883
20
649.8994949366117
10
455.2220167377256
20
651.6405745722357
10
457.64243194688873
20
652.934313455158
10
460.2687354917742
20
653.7309939256452
10
463
20
654
10
463
20
654
0
TEXT
5
55
330
C
100
AcDbEntity
420
1910582
8
0
100
AcDbText
10
468
20
622
30
0
40
16
1
Additional Inputs
7
Arial
100
AcDbText
0
TEXT
5
56
330
C
100
AcDbEntity
420
4938352
8
0
100
AcDbText
10
468
20
592.5
30
0
40
12
1
MONTH
7
Arial
100
AcDbText
0
LWPOLYLINE
5
57
330
C
100
AcDbEntity
420
9741240
8
0
100
AcDbPolyline
90
42
70
0
43
0
38
0
39
0
10
476
20
582
10
853
20
582
10
853
20
582
10
854.560722576129
20
581.8462822432259
10
856.0614674589207
20
581.3910362600902
10
857.4445618641569
20
580.6517568984204
10
858.6568542494924
20
579.6568542494924
10
859.6517568984203
20
578.4445618641569
10
860.3910362600903
20
577.0614674589208
10
860.8462822432258
20
575.560722576129
10
861
20
574
10
861
20
550
10
861
20
550
10
860.8462822432258
20
548.439277423871
10
860.3910362600903
20
546.9385325410792
10
859.6517568984203
20
545.5554381358431
10
858.6568542494924
20
544.3431457505076
10
857.4445618641569
20
543.3482431015796
10
856.0614674589207
20
542.6089637399097
10
854.560722576129
20
542.1537177567742
10
853
20
542
10
476
20
542
10
476
20
542
10
474.439277423871
20
542.1537177567742
10
472.93853254107927
20
542.6089637399097
10
471.5554381358432
20
543.3482431015796
10
470.34314575050763
20
544.3431457505076
10
469.3482431015796
20
545.5554381358431
10
468.6089637399097
20
546.9385325410792
10
468.15371775677414
20
548.439277423871
10
468
20
550
10
468
20
574
10
468
20
574
10
468.15371775677414
20
575.560722576129
10
468.6089637399097
20
577.0614674589208
10
469.3482431015796
20
578.4445618641569
10
470.34314575050763
20
579.6568542494924
10
471.5554381358432
20
580.6517568984204
10
472.93853254107927
20
581.3910362600902
10
474.439277423871
20
581.8462822432259
10
476
20
582
10
476
20
582
0
TEXT
5
58
330
C
100
AcDbEntity
420
1120295
8
0
100
AcDbText
10
480
20
558
30
0
40
16
1
2026-04
7
Arial
100
AcDbText
0
TEXT
5
59
330
C
100
AcDbEntity
420
4938352
8
0
100
AcDbText
10
468
20
517.5
30
0
40
12
1
WEEK
7
Arial
100
AcDbText
0
LWPOLYLINE
5
5A
330
C
100
AcDbEntity
420
9741240
8
0
100
AcDbPolyline
90
42
70
0
43
0
38
0
39
0
10
476
20
507
10
853
20
507
10
853
20
507
10
854.560722576129
20
506.8462822432258
10
856.0614674589207
20
506.39103626009035
10
857.4445618641569
20
505.65175689842033
10
858.6568542494924
20
504.6568542494924
10
859.6517568984203
20
503.44456186415687
10
860.3910362600903
20
502.0614674589207
10
860.8462822432258
20
500.560722576129
10
861
20
499
10
861
20
475
10
861
20
475
10
860.8462822432258
20
473.439277423871
10
860.3910362600903
20
471.9385325410793
10
859.6517568984203
20
470.55543813584313
10
858.6568542494924
20
469.3431457505076
10
857.4445618641569
20
468.34824310157967
10
856.0614674589207
20
467.60896373990965
10
854.560722576129
20
467.1537177567742
10
853
20
467
10
476
20
467
10
476
20
467
10
474.439277423871
20
467.1537177567742
10
472.93853254107927
20
467.60896373990965
10
471.5554381358432
20
468.34824310157967
10
470.34314575050763
20
469.3431457505076
10
469.3482431015796
20
470.55543813584313
10
468.6089637399097
20
471.9385325410793
10
468.15371775677414
20
473.439277423871
10
468
20
475
10
468
20
499
10
468
20
499
10
468.15371775677414
20
500.560722576129
10
468.6089637399097
20
502.0614674589207
10
469.3482431015796
20
503.44456186415687
10
470.34314575050763
20
504.6568542494924
10
471.5554381358432
20
505.65175689842033
10
472.93853254107927
20
506.39103626009035
10
474.439277423871
20
506.8462822432258
10
476
20
507
10
476
20
507
0
TEXT
5
5B
330
C
100
AcDbEntity
420
1120295
8
0
100
AcDbText
10
480
20
483
30
0
40
16
1
2026-W16
7
Arial
100
AcDbText
0
TEXT
5
5C
330
C
100
AcDbEntity
420
4938352
8
0
100
AcDbText
10
468
20
442.5
30
0
40
12
1
NUMBER
7
Arial
100
AcDbText
0
LWPOLYLINE
5
5D
330
C
100
AcDbEntity
420
9741240
8
0
100
AcDbPolyline
90
42
70
0
43
0
38
0
39
0
10
476
20
432
10
853
20
432
10
853
20
432
10
854.560722576129
20
431.8462822432258
10
856.0614674589207
20
431.39103626009035
10
857.4445618641569
20
430.65175689842033
10
858.6568542494924
20
429.6568542494924
10
859.6517568984203
20
428.44456186415687
10
860.3910362600903
20
427.0614674589207
10
860.8462822432258
20
425.560722576129
10
861
20
424
10
861
20
400
10
861
20
400
10
860.8462822432258
20
398.439277423871
10
860.3910362600903
20
396.9385325410793
10
859.6517568984203
20
395.55543813584313
10
858.6568542494924
20
394.3431457505076
10
857.4445618641569
20
393.34824310157967
10
856.0614674589207
20
392.60896373990965
10
854.560722576129
20
392.1537177567742
10
853
20
392
10
476
20
392
10
476
20
392
10
474.439277423871
20
392.1537177567742
10
472.93853254107927
20
392.60896373990965
10
471.5554381358432
20
393.34824310157967
10
470.34314575050763
20
394.3431457505076
10
469.3482431015796
20
395.55543813584313
10
468.6089637399097
20
396.9385325410793
10
468.15371775677414
20
398.439277423871
10
468
20
400
10
468
20
424
10
468
20
424
10
468.15371775677414
20
425.560722576129
10
468.6089637399097
20
427.0614674589207
10
469.3482431015796
20
428.44456186415687
10
470.34314575050763
20
429.6568542494924
10
471.5554381358432
20
430.65175689842033
10
472.93853254107927
20
431.39103626009035
10
474.439277423871
20
431.8462822432258
10
476
20
432
10
476
20
432
0
TEXT
5
5E
330
C
100
AcDbEntity
420
1120295
8
0
100
AcDbText
10
480
20
408
30
0
40
16
1
42
7
Arial
100
AcDbText
0
TEXT
5
5F
330
C
100
AcDbEntity
420
4938352
8
0
100
AcDbText
10
468
20
367.5
30
0
40
12
1
COLOR
7
Arial
100
AcDbText
0
LWPOLYLINE
5
60
330
C
100
AcDbEntity
420
9741240
8
0
100
AcDbPolyline
90
42
70
0
43
0
38
0
39
0
10
476
20
357
10
853
20
357
10
853
20
357
10
854.560722576129
20
356.8462822432258
10
856.0614674589207
20
356.39103626009035
10
857.4445618641569
20
355.65175689842033
10
858.6568542494924
20
354.6568542494924
10
859.6517568984203
20
353.44456186415687
10
860.3910362600903
20
352.0614674589207
10
860.8462822432258
20
350.560722576129
10
861
20
349
10
861
20
327
10
861
20
327
10
860.8462822432258
20
325.439277423871
10
860.3910362600903
20
323.9385325410793
10
859.6517568984203
20
322.55543813584313
10
858.6568542494924
20
321.3431457505076
10
857.4445618641569
20
320.34824310157967
10
856.0614674589207
20
319.60896373990965
10
854.560722576129
20
319.1537177567742
10
853
20
319
10
476
20
319
10
476
20
319
10
474.439277423871
20
319.1537177567742
10
472.93853254107927
20
319.60896373990965
10
471.5554381358432
20
320.34824310157967
10
470.34314575050763
20
321.3431457505076
10
469.3482431015796
20
322.55543813584313
10
468.6089637399097
20
323.9385325410793
10
468.15371775677414
20
325.439277423871
10
468
20
327
10
468
20
349
10
468
20
349
10
468.15371775677414
20
350.560722576129
10
468.6089637399097
20
352.0614674589207
10
469.3482431015796
20
353.44456186415687
10
470.34314575050763
20
354.6568542494924
10
471.5554381358432
20
355.65175689842033
10
472.93853254107927
20
356.39103626009035
10
474.439277423871
20
356.8462822432258
10
476
20
357
10
476
20
357
0
LWPOLYLINE
5
61
330
C
100
AcDbEntity
420
9741240
8
0
100
AcDbPolyline
90
42
70
0
43
0
38
0
39
0
10
479.8
20
353.20000000000005
10
849.2
20
353.20000000000005
10
849.2
20
353.20000000000005
10
850.7607225761291
20
353.04628224322585
10
852.2614674589207
20
352.5910362600904
10
853.6445618641569
20
351.8517568984204
10
854.8568542494925
20
350.85685424949247
10
855.8517568984204
20
349.6445618641569
10
856.5910362600904
20
348.2614674589207
10
857.0462822432258
20
346.76072257612907
10
857.2
20
345.20000000000005
10
857.2
20
330.79999999999995
10
857.2
20
330.79999999999995
10
857.0462822432258
20
329.23927742387093
10
856.5910362600904
20
327.7385325410793
10
855.8517568984204
20
326.3554381358431
10
854.8568542494925
20
325.14314575050753
10
853.6445618641569
20
324.1482431015796
10
852.2614674589207
20
323.4089637399096
10
850.7607225761291
20
322.95371775677415
10
849.2
20
322.79999999999995
10
479.8
20
322.79999999999995
10
479.8
20
322.79999999999995
10
478.239277423871
20
322.95371775677415
10
476.7385325410793
20
323.4089637399096
10
475.3554381358432
20
324.1482431015796
10
474.14314575050764
20
325.14314575050753
10
473.1482431015796
20
326.3554381358431
10
472.4089637399097
20
327.7385325410793
10
471.95371775677415
20
329.23927742387093
10
471.8
20
330.79999999999995
10
471.8
20
345.20000000000005
10
471.8
20
345.20000000000005
10
471.95371775677415
20
346.76072257612907
10
472.4089637399097
20
348.2614674589207
10
473.1482431015796
20
349.6445618641569
10
474.14314575050764
20
350.85685424949247
10
475.3554381358432
20
351.8517568984204
10
476.7385325410793
20
352.5910362600904
10
478.239277423871
20
353.04628224322585
10
479.8
20
353.20000000000005
10
479.8
20
353.20000000000005
0
TEXT
5
62
330
C
100
AcDbEntity
420
4938352
8
0
100
AcDbText
10
468
20
294.5
30
0
40
12
1
RANGE
7
Arial
100
AcDbText
0
LWPOLYLINE
5
63
330
C
100
AcDbEntity
420
15263976
8
0
100
AcDbPolyline
90
42
70
0
43
0
38
0
39
0
10
479.4
20
274.4
10
853.6
20
274.4
10
853.6
20
274.4
10
854.0682167728387
20
274.35388467296775
10
854.5184402376763
20
274.2173108780271
10
854.933368559247
20
273.99552706952613
10
855.2970562748477
20
273.6970562748477
10
855.5955270695262
20
273.333368559247
10
855.8173108780271
20
272.91844023767624
10
855.9538846729678
20
272.4682167728387
10
856
20
272
10
856
20
272
10
856
20
272
10
855.9538846729678
20
271.5317832271613
10
855.8173108780271
20
271.08155976232376
10
855.5955270695262
20
270.666631440753
10
855.2970562748477
20
270.3029437251523
10
854.933368559247
20
270.00447293047387
10
854.5184402376763
20
269.7826891219729
10
854.0682167728387
20
269.64611532703225
10
853.6
20
269.6
10
479.4
20
269.6
10
479.4
20
269.6
10
478.93178322716125
20
269.64611532703225
10
478.4815597623238
20
269.7826891219729
10
478.06663144075293
20
270.00447293047387
10
477.7029437251523
20
270.3029437251523
10
477.4044729304739
20
270.666631440753
10
477.1826891219729
20
271.08155976232376
10
477.0461153270322
20
271.5317832271613
10
477
20
272
10
477
20
272
10
477
20
272
10
477.0461153270322
20
272.4682167728387
10
477.1826891219729
20
272.91844023767624
10
477.4044729304739
20
273.333368559247
10
477.7029437251523
20
273.6970562748477
10
478.06663144075293
20
273.99552706952613
10
478.48155976232374
20
274.2173108780271
10
478.93178322716125
20
274.35388467296775
10
479.4
20
274.4
10
479.4
20
274.4
0
LWPOLYLINE
5
64
330
C
100
AcDbEntity
420
1008382
8
0
100
AcDbPolyline
90
42
70
0
43
0
38
0
39
0
10
479.4
20
274.4
10
732.32
20
274.4
10
732.32
20
274.4
10
732.7882167728387
20
274.35388467296775
10
733.2384402376763
20
274.2173108780271
10
733.653368559247
20
273.99552706952613
10
734.0170562748477
20
273.6970562748477
10
734.3155270695262
20
273.333368559247
10
734.5373108780271
20
272.91844023767624
10
734.6738846729678
20
272.4682167728387
10
734.72
20
272
10
734.72
20
272
10
734.72
20
272
10
734.6738846729678
20
271.5317832271613
10
734.5373108780271
20
271.08155976232376
10
734.3155270695262
20
270.666631440753
10
734.0170562748477
20
270.3029437251523
10
733.653368559247
20
270.00447293047387
10
733.2384402376763
20
269.7826891219729
10
732.7882167728387
20
269.64611532703225
10
732.32
20
269.6
10
479.4
20
269.6
10
479.4
20
269.6
10
478.93178322716125
20
269.64611532703225
10
478.4815597623238
20
269.7826891219729
10
478.06663144075293
20
270.00447293047387
10
477.7029437251523
20
270.3029437251523
10
477.4044729304739
20
270.666631440753
10
477.1826891219729
20
271.08155976232376
10
477.0461153270322
20
271.5317832271613
10
477
20
272
10
477
20
272
10
477
20
272
10
477.0461153270322
20
272.4682167728387
10
477.1826891219729
20
272.91844023767624
10
477.4044729304739
20
273.333368559247
10
477.7029437251523
20
273.6970562748477
10
478.06663144075293
20
273.99552706952613
10
478.48155976232374
20
274.2173108780271
10
478.93178322716125
20
274.35388467296775
10
479.4
20
274.4
10
479.4
20
274.4
0
HATCH
5
65
330
C
100
AcDbEntity
420
1008382
8
0
100
AcDbHatch
10
0
20
0
30
0
210
0
220
0
230
1
2
SOLID
70
1
71
0
91
1
92
7
72
0
73
1
93
24
10
741.72
20
272
10
741.4814807840235
20
270.1882666842823
10
740.7821778264911
20
268.5
10
739.6697474683058
20
267.0502525316941
10
738.22
20
265.93782217350895
10
736.5317333157177
20
265.23851921597657
10
734.72
20
265
10
732.9082666842824
20
265.23851921597657
10
731.22
20
265.93782217350895
10
729.7702525316943
20
267.0502525316941
10
728.657822173509
20
268.5
10
727.9585192159766
20
270.1882666842823
10
727.72
20
272
10
727.9585192159766
20
273.8117333157177
10
728.657822173509
20
275.5
10
729.7702525316943
20
276.9497474683059
10
731.22
20
278.06217782649105
10
732.9082666842824
20
278.76148078402343
10
734.72
20
279
10
736.5317333157177
20
278.76148078402343
10
738.22
20
278.06217782649105
10
739.6697474683058
20
276.9497474683059
10
740.7821778264911
20
275.5
10
741.4814807840235
20
273.8117333157177
97
0
75
1
76
1
47
1
98
0
0
LWPOLYLINE
5
66
330
C
100
AcDbEntity
420
16777215
8
0
100
AcDbPolyline
90
25
70
0
43
0
38
0
39
0
10
741.72
20
272
10
741.4814807840235
20
270.1882666842823
10
740.7821778264911
20
268.5
10
739.6697474683058
20
267.0502525316941
10
738.22
20
265.93782217350895
10
736.5317333157177
20
265.23851921597657
10
734.72
20
265
10
732.9082666842824
20
265.23851921597657
10
731.22
20
265.93782217350895
10
729.7702525316943
20
267.0502525316941
10
728.657822173509
20
268.5
10
727.9585192159766
20
270.1882666842823
10
727.72
20
272
10
727.9585192159766
20
273.8117333157177
10
728.657822173509
20
275.5
10
729.7702525316943
20
276.9497474683059
10
731.22
20
278.06217782649105
10
732.9082666842824
20
278.76148078402343
10
734.72
20
279
10
736.5317333157177
20
278.76148078402343
10
738.22
20
278.06217782649105
10
739.6697474683058
20
276.9497474683059
10
740.7821778264911
20
275.5
10
741.4814807840235
20
273.8117333157177
10
741.72
20
272
0
TEXT
5
67
330
C
100
AcDbEntity
420
4938352
8
0
100
AcDbText
10
468
20
235.5
30
0
40
12
1
VERTICAL RANGE
7
Arial
100
AcDbText
0
LWPOLYLINE
5
68
330
C
100
AcDbEntity
420
15263976
8
0
100
AcDbPolyline
90
42
70
0
43
0
38
0
39
0
10
666.5
20
213
10
666.5
20
213
10
666.5
20
213
10
667.4754516100807
20
212.90392640201617
10
668.4134171618255
20
212.61939766255648
10
669.277851165098
20
212.15734806151272
10
670.0355339059328
20
211.53553390593277
10
670.6573480615127
20
210.777851165098
10
671.1193976625565
20
209.91341716182546
10
671.4039264020162
20
208.97545161008065
10
671.5
20
208
10
671.5
20
118
10
671.5
20
118
10
671.4039264020162
20
117.02454838991935
10
671.1193976625565
20
116.08658283817454
10
670.6573480615127
20
115.22214883490199
10
670.0355339059328
20
114.46446609406723
10
669.277851165098
20
113.84265193848728
10
668.4134171618255
20
113.38060233744352
10
667.4754516100807
20
113.09607359798383
10
666.5
20
113
10
666.5
20
113
10
666.5
20
113
10
665.5245483899193
20
113.09607359798383
10
664.5865828381745
20
113.38060233744352
10
663.722148834902
20
113.84265193848728
10
662.9644660940672
20
114.46446609406723
10
662.3426519384873
20
115.22214883490199
10
661.8806023374435
20
116.08658283817454
10
661.5960735979838
20
117.02454838991935
10
661.5
20
118
10
661.5
20
208
10
661.5
20
208
10
661.5960735979838
20
208.97545161008065
10
661.8806023374435
20
209.91341716182546
10
662.3426519384873
20
210.777851165098
10
662.9644660940672
20
211.53553390593277
10
663.722148834902
20
212.15734806151272
10
664.5865828381745
20
212.61939766255648
10
665.5245483899193
20
212.90392640201617
10
666.5
20
213
10
666.5
20
213
0
LWPOLYLINE
5
69
330
C
100
AcDbEntity
420
1008382
8
0
100
AcDbPolyline
90
42
70
0
43
0
38
0
39
0
10
666.5
20
213
10
666.5
20
213
10
666.5
20
213
10
667.4754516100807
20
212.90392640201617
10
668.4134171618255
20
212.61939766255648
10
669.277851165098
20
212.15734806151272
10
670.0355339059328
20
211.53553390593277
10
670.6573480615127
20
210.777851165098
10
671.1193976625565
20
209.91341716182546
10
671.4039264020162
20
208.97545161008065
10
671.5
20
208
10
671.5
20
148
10
671.5
20
148
10
671.4039264020162
20
147.02454838991935
10
671.1193976625565
20
146.08658283817454
10
670.6573480615127
20
145.222148834902
10
670.0355339059328
20
144.46446609406723
10
669.277851165098
20
143.84265193848728
10
668.4134171618255
20
143.38060233744352
10
667.4754516100807
20
143.09607359798383
10
666.5
20
143
10
666.5
20
143
10
666.5
20
143
10
665.5245483899193
20
143.09607359798383
10
664.5865828381745
20
143.38060233744352
10
663.722148834902
20
143.84265193848728
10
662.9644660940672
20
144.46446609406723
10
662.3426519384873
20
145.222148834902
10
661.8806023374435
20
146.08658283817454
10
661.5960735979838
20
147.02454838991935
10
661.5
20
148
10
661.5
20
208
10
661.5
20
208
10
661.5960735979838
20
208.97545161008065
10
661.8806023374435
20
209.91341716182546
10
662.3426519384873
20
210.777851165098
10
662.9644660940672
20
211.53553390593277
10
663.722148834902
20
212.15734806151272
10
664.5865828381745
20
212.61939766255648
10
665.5245483899193
20
212.90392640201617
10
666.5
20
213
10
666.5
20
213
0
HATCH
5
6A
330
C
100
AcDbEntity
420
1008382
8
0
100
AcDbHatch
10
0
20
0
30
0
210
0
220
0
230
1
2
SOLID
70
1
71
0
91
1
92
7
72
0
73
1
93
24
10
676.5
20
143
10
676.1592582628907
20
140.41180954897482
10
675.1602540378444
20
138
10
673.5710678118655
20
135.92893218813447
10
671.5
20
134.33974596215558
10
669.0881904510252
20
133.34074173710928
10
666.5
20
133
10
663.9118095489748
20
133.34074173710928
10
661.5
20
134.33974596215558
10
659.4289321881345
20
135.92893218813447
10
657.8397459621556
20
138
10
656.8407417371093
20
140.41180954897482
10
656.5
20
143
10
656.8407417371093
20
145.58819045102518
10
657.8397459621556
20
148
10
659.4289321881345
20
150.07106781186553
10
661.5
20
151.66025403784442
10
663.9118095489748
20
152.65925826289072
10
666.5
20
153
10
669.0881904510252
20
152.65925826289072
10
671.5
20
151.66025403784442
10
673.5710678118655
20
150.07106781186553
10
675.1602540378444
20
148
10
676.1592582628907
20
145.58819045102518
97
0
75
1
76
1
47
1
98
0
0
LWPOLYLINE
5
6B
330
C
100
AcDbEntity
420
16777215
8
0
100
AcDbPolyline
90
25
70
0
43
0
38
0
39
0
10
676.5
20
143
10
676.1592582628907
20
140.41180954897482
10
675.1602540378444
20
138
10
673.5710678118655
20
135.92893218813447
10
671.5
20
134.33974596215558
10
669.0881904510252
20
133.34074173710928
10
666.5
20
133
10
663.9118095489748
20
133.34074173710928
10
661.5
20
134.33974596215558
10
659.4289321881345
20
135.92893218813447
10
657.8397459621556
20
138
10
656.8407417371093
20
140.41180954897482
10
656.5
20
143
10
656.8407417371093
20
145.58819045102518
10
657.8397459621556
20
148
10
659.4289321881345
20
150.07106781186553
10
661.5
20
151.66025403784442
10
663.9118095489748
20
152.65925826289072
10
666.5
20
153
10
669.0881904510252
20
152.65925826289072
10
671.5
20
151.66025403784442
10
673.5710678118655
20
150.07106781186553
10
675.1602540378444
20
148
10
676.1592582628907
20
145.58819045102518
10
676.5
20
143
0
TEXT
5
6C
330
C
100
AcDbEntity
420
4938352
8
0
100
AcDbText
10
468
20
76.5
30
0
40
12
1
FILE
7
Arial
100
AcDbText
0
LWPOLYLINE
5
6D
330
C
100
AcDbEntity
420
9741240
8
0
100
AcDbPolyline
90
42
70
0
43
0
38
0
39
0
10
476
20
66
10
853
20
66
10
853
20
66
10
854.560722576129
20
65.8462822432258
10
856.0614674589207
20
65.39103626009035
10
857.4445618641569
20
64.65175689842033
10
858.6568542494924
20
63.656854249492426
10
859.6517568984203
20
62.44456186415687
10
860.3910362600903
20
61.061467458920674
10
860.8462822432258
20
59.560722576129024
10
861
20
58
10
861
20
27
10
861
20
27
10
860.8462822432258
20
25.439277423870863
10
860.3910362600903
20
23.938532541079212
10
859.6517568984203
20
22.555438135843133
10
858.6568542494924
20
21.343145750507574
10
857.4445618641569
20
20.348243101579556
10
856.0614674589207
20
19.60896373990977
10
854.560722576129
20
19.153717756774086
10
853
20
19
10
476
20
19
10
476
20
19
10
474.439277423871
20
19.153717756774086
10
472.93853254107927
20
19.60896373990977
10
471.5554381358432
20
20.348243101579556
10
470.34314575050763
20
21.343145750507574
10
469.3482431015796
20
22.555438135843133
10
468.6089637399097
20
23.938532541079212
10
468.15371775677414
20
25.439277423870863
10
468
20
27
10
468
20
58
10
468
20
58
10
468.15371775677414
20
59.560722576129024
10
468.6089637399097
20
61.061467458920674
10
469.3482431015796
20
62.44456186415687
10
470.34314575050763
20
63.656854249492426
10
471.5554381358432
20
64.65175689842033
10
472.93853254107927
20
65.39103626009035
10
474.439277423871
20
65.8462822432258
10
476
20
66
10
476
20
66
0
LWPOLYLINE
5
6E
330
C
100
AcDbEntity
420
9741240
8
0
100
AcDbPolyline
90
5
70
0
43
0
38
0
39
0
10
469
20
65
10
601.94
20
65
10
601.94
20
20
10
469
20
20
10
469
20
65
0
TEXT
5
6F
330
C
100
AcDbEntity
420
1120295
8
0
100
AcDbText
10
492.7866656494141
20
38.5
30
0
40
16
1
Choose File
7
Arial
100
AcDbText
0
TEXT
5
70
330
C
100
AcDbEntity
420
6449528
8
0
100
AcDbText
10
613.94
20
38.5
30
0
40
16
1
No file selected
7
Arial
100
AcDbText
0
ENDSEC
0
SECTION
2
OBJECTS
0
DICTIONARY
5
A
330
0
100
AcDbDictionary
281
1
3
ACAD_GROUP
350
B
0
DICTIONARY
5
B
330
A
100
AcDbDictionary
281
0
0
ENDSEC
0
EOF