0
SECTION
2
HEADER
9
$ACADVER
1
AC1021
9
$LASTSAVEDBY
1
@tarikjabiri/dxf
9
$HANDSEED
5
2B
9
$INSUNITS
70
0
9
$CLAYER
8
0
9
$VIEWCTR
10
350.5
20
261.83333749999997
0
ENDSEC
0
SECTION
2
CLASSES
0
ENDSEC
0
SECTION
2
TABLES
0
TABLE
2
VPORT
5
1
330
0
100
AcDbSymbolTable
70
1
0
VPORT
5
19
330
1
100
AcDbSymbolTableRecord
100
AcDbViewportTableRecord
2
*Active
70
0
10
0
20
0
11
1
21
1
12
350.5
22
261.83333749999997
13
0
23
0
14
10
24
10
15
10
25
10
16
0
26
0
36
1
17
0
27
0
37
0
40
523.6666749999999
41
2
42
50
43
0
44
0
50
0
51
0
71
0
72
100
73
1
74
3
75
0
76
1
77
0
78
0
281
0
65
1
110
0
120
0
130
0
111
1
121
0
131
0
112
0
122
1
132
0
79
0
146
0
348
10020
60
7
61
5
292
1
282
1
141
0
142
0
63
250
421
3358443
0
ENDTAB
0
TABLE
2
LTYPE
5
2
330
0
100
AcDbSymbolTable
70
3
0
LTYPE
5
12
330
2
100
AcDbSymbolTableRecord
100
AcDbLinetypeTableRecord
2
ByBlock
70
0
3

72
65
73
0
40
0
0
LTYPE
5
13
330
2
100
AcDbSymbolTableRecord
100
AcDbLinetypeTableRecord
2
ByLayer
70
0
3

72
65
73
0
40
0
0
LTYPE
5
14
330
2
100
AcDbSymbolTableRecord
100
AcDbLinetypeTableRecord
2
Continuous
70
0
3
Solid line
72
65
73
0
40
0
0
ENDTAB
0
TABLE
2
LAYER
5
3
330
0
100
AcDbSymbolTable
70
1
0
LAYER
5
15
330
3
100
AcDbSymbolTableRecord
100
AcDbLayerTableRecord
2
0
70
0
62
7
6
Continuous
370
0
390
0
0
ENDTAB
0
TABLE
2
STYLE
5
4
330
0
100
AcDbSymbolTable
70
2
0
STYLE
5
16
330
4
100
AcDbSymbolTableRecord
100
AcDbTextStyleTableRecord
2
Standard
70
0
40
0
41
1
50
0
71
0
42
1
3
txt
4

0
STYLE
5
1C
330
4
100
AcDbSymbolTableRecord
100
AcDbTextStyleTableRecord
2
MS Shell Dlg \32
70
0
40
0
41
1
50
0
71
0
42
1
3
MS Shell Dlg \32.ttf
4

0
ENDTAB
0
TABLE
2
VIEW
5
5
330
0
100
AcDbSymbolTable
70
0
0
ENDTAB
0
TABLE
2
UCS
5
6
330
0
100
AcDbSymbolTable
70
0
0
ENDTAB
0
TABLE
2
APPID
5
7
330
0
100
AcDbSymbolTable
70
1
0
APPID
5
17
330
7
100
AcDbSymbolTableRecord
100
AcDbRegAppTableRecord
2
ACAD
70
0
0
ENDTAB
0
TABLE
2
DIMSTYLE
5
8
330
0
100
AcDbSymbolTable
70
1
100
AcDbDimStyleTable
0
DIMSTYLE
105
18
330
8
100
AcDbSymbolTableRecord
100
AcDbDimStyleTableRecord
2
Standard
70
0
340
16
0
ENDTAB
0
TABLE
2
BLOCK_RECORD
5
9
330
0
100
AcDbSymbolTable
70
2
0
BLOCK_RECORD
5
C
330
9
100
AcDbSymbolTableRecord
100
AcDbBlockTableRecord
2
*Model_Space
70
0
280
1
281
0
0
BLOCK_RECORD
5
F
330
9
100
AcDbSymbolTableRecord
100
AcDbBlockTableRecord
2
*Paper_Space
70
0
280
1
281
0
0
ENDTAB
0
ENDSEC
0
SECTION
2
BLOCKS
0
BLOCK
5
D
330
C
100
AcDbEntity
8
0
100
AcDbBlockBegin
2
*Model_Space
70
0
10
0
20
0
30
0
3
*Model_Space
1

0
ENDBLK
5
E
100
AcDbEntity
8
0
100
AcDbBlockEnd
0
BLOCK
5
10
330
F
100
AcDbEntity
8
0
100
AcDbBlockBegin
2
*Paper_Space
70
0
10
0
20
0
30
0
3
*Paper_Space
1

0
ENDBLK
5
11
100
AcDbEntity
8
0
100
AcDbBlockEnd
0
ENDSEC
0
SECTION
2
ENTITIES
0
LWPOLYLINE
5
1A
330
C
100
AcDbEntity
420
9408413
8
0
100
AcDbPolyline
90
5
70
0
43
0
38
0
39
0
10
62
20
425
10
262
20
425
10
262
20
372
10
62
20
372
10
62
20
425
0
TEXT
5
1B
330
C
100
AcDbEntity
420
0
8
0
100
AcDbText
10
142.5833282470703
20
395.166675
30
0
40
13.3333
1
Button
7
MS Shell Dlg \32
100
AcDbText
0
LWPOLYLINE
5
1D
330
C
100
AcDbEntity
420
9408413
8
0
100
AcDbPolyline
90
42
70
0
43
0
38
0
39
0
10
64
20
372
10
260
20
372
10
260
20
372
10
260.3901806440323
20
371.9615705608065
10
260.7653668647302
20
371.84775906502256
10
261.1111404660392
20
371.6629392246051
10
261.4142135623731
20
371.4142135623731
10
261.6629392246051
20
371.1111404660392
10
261.84775906502256
20
370.7653668647302
10
261.9615705608065
20
370.3901806440323
10
262
20
370
10
262
20
286
10
262
20
286
10
261.9615705608065
20
285.6098193559677
10
261.84775906502256
20
285.23463313526986
10
261.6629392246051
20
284.8888595339608
10
261.4142135623731
20
284.5857864376269
10
261.1111404660392
20
284.3370607753949
10
260.7653668647302
20
284.1522409349774
10
260.3901806440323
20
284.0384294391936
10
260
20
284
10
64
20
284
10
64
20
284
10
63.609819355967744
20
284.0384294391936
10
63.23463313526982
20
284.1522409349774
10
62.8888595339608
20
284.3370607753949
10
62.58578643762691
20
284.5857864376269
10
62.33706077539491
20
284.8888595339608
10
62.15224093497743
20
285.23463313526986
10
62.038429439193536
20
285.6098193559677
10
62
20
286
10
62
20
370
10
62
20
370
10
62.038429439193536
20
370.3901806440323
10
62.15224093497743
20
370.7653668647302
10
62.33706077539491
20
371.1111404660392
10
62.58578643762691
20
371.4142135623731
10
62.8888595339608
20
371.6629392246051
10
63.23463313526982
20
371.84775906502256
10
63.609819355967744
20
371.9615705608065
10
64
20
372
10
64
20
372
0
LWPOLYLINE
5
1E
330
C
100
AcDbEntity
420
5263440
8
0
100
AcDbPolyline
90
3
70
0
43
0
38
0
39
0
10
246.3333425
20
329.61332930000003
10
250
20
326.38667069999997
10
253.6666575
20
329.61332930000003
0
LWPOLYLINE
5
1F
330
C
100
AcDbEntity
420
9408413
8
0
100
AcDbPolyline
90
42
70
0
43
0
38
0
39
0
10
64
20
283
10
254
20
283
10
254
20
283
10
254.39018064403226
20
282.9615705608064
10
254.76536686473017
20
282.8477590650226
10
255.11114046603922
20
282.6629392246051
10
255.4142135623731
20
282.4142135623731
10
255.66293922460508
20
282.1111404660392
10
255.8477590650226
20
281.76536686473014
10
255.96157056080645
20
281.3901806440323
10
256
20
281
10
256
20
110
10
256
20
110
10
255.96157056080645
20
109.60981935596772
10
255.8477590650226
20
109.2346331352698
10
255.66293922460508
20
108.88885953396078
10
255.4142135623731
20
108.5857864376269
10
255.11114046603922
20
108.33706077539489
10
254.76536686473017
20
108.15224093497744
10
254.39018064403226
20
108.03842943919352
10
254
20
108
10
64
20
108
10
64
20
108
10
63.609819355967744
20
108.03842943919352
10
63.23463313526982
20
108.15224093497744
10
62.8888595339608
20
108.33706077539489
10
62.58578643762691
20
108.5857864376269
10
62.33706077539491
20
108.88885953396078
10
62.15224093497743
20
109.2346331352698
10
62.038429439193536
20
109.60981935596772
10
62
20
110
10
62
20
281
10
62
20
281
10
62.038429439193536
20
281.3901806440323
10
62.15224093497743
20
281.76536686473014
10
62.33706077539491
20
282.1111404660392
10
62.58578643762691
20
282.4142135623731
10
62.8888595339608
20
282.6629392246051
10
63.23463313526982
20
282.8477590650226
10
63.609819355967744
20
282.9615705608064
10
64
20
283
10
64
20
283
0
TEXT
5
20
330
C
100
AcDbEntity
420
0
8
0
100
AcDbText
10
68
20
267.95
30
0
40
13
1
dewweefee
7
STANDARD
100
AcDbText
0
LWPOLYLINE
5
21
330
C
100
AcDbEntity
420
30932
8
0
100
AcDbPolyline
90
42
70
0
43
0
38
0
39
0
10
120
20
59
10
175
20
59
10
175
20
59
10
175.39018064403226
20
58.96157056080648
10
175.76536686473017
20
58.84775906502256
10
176.11114046603922
20
58.66293922460511
10
176.4142135623731
20
58.41421356237311
10
176.66293922460508
20
58.11114046603922
10
176.8477590650226
20
57.7653668647302
10
176.96157056080645
20
57.390180644032284
10
177
20
57
10
177
20
2
10
177
20
2
10
176.96157056080645
20
1.6098193559677156
10
176.8477590650226
20
1.234633135269803
10
176.66293922460508
20
0.8888595339607832
10
176.4142135623731
20
0.5857864376268935
10
176.11114046603922
20
0.3370607753948889
10
175.76536686473017
20
0.15224093497744207
10
175.39018064403226
20
0.038429439193521375
10
175
20
0
10
120
20
0
10
120
20
0
10
119.60981935596774
20
0.038429439193521375
10
119.23463313526982
20
0.15224093497744207
10
118.8888595339608
20
0.3370607753948889
10
118.58578643762691
20
0.5857864376268935
10
118.3370607753949
20
0.8888595339607832
10
118.15224093497743
20
1.234633135269803
10
118.03842943919354
20
1.6098193559677156
10
118
20
2
10
118
20
57
10
118
20
57
10
118.03842943919354
20
57.390180644032284
10
118.15224093497743
20
57.7653668647302
10
118.3370607753949
20
58.11114046603922
10
118.58578643762691
20
58.41421356237311
10
118.8888595339608
20
58.66293922460511
10
119.23463313526982
20
58.84775906502256
10
119.60981935596774
20
58.96157056080648
10
120
20
59
10
120
20
59
0
LWPOLYLINE
5
22
330
C
100
AcDbEntity
420
16777215
8
0
100
AcDbPolyline
90
3
70
0
43
0
38
0
39
0
10
130.98
20
27.139999999999986
10
142.78
20
15.340000000000032
10
164.02
20
41.30000000000001
0
LWPOLYLINE
5
23
330
C
100
AcDbEntity
420
9408413
8
0
100
AcDbPolyline
90
42
70
0
43
0
38
0
39
0
10
64
20
103
10
271
20
103
10
271
20
103
10
271.3901806440323
20
102.96157056080648
10
271.7653668647302
20
102.84775906502256
10
272.1111404660392
20
102.66293922460511
10
272.4142135623731
20
102.4142135623731
10
272.6629392246051
20
102.11114046603922
10
272.84775906502256
20
101.7653668647302
10
272.9615705608065
20
101.39018064403228
10
273
20
101
10
273
20
84
10
273
20
84
10
272.9615705608065
20
83.60981935596772
10
272.84775906502256
20
83.2346331352698
10
272.6629392246051
20
82.88885953396078
10
272.4142135623731
20
82.5857864376269
10
272.1111404660392
20
82.33706077539489
10
271.7653668647302
20
82.15224093497744
10
271.3901806440323
20
82.03842943919352
10
271
20
82
10
64
20
82
10
64
20
82
10
63.609819355967744
20
82.03842943919352
10
63.23463313526982
20
82.15224093497744
10
62.8888595339608
20
82.33706077539489
10
62.58578643762691
20
82.5857864376269
10
62.33706077539491
20
82.88885953396078
10
62.15224093497743
20
83.2346331352698
10
62.038429439193536
20
83.60981935596772
10
62
20
84
10
62
20
101
10
62
20
101
10
62.038429439193536
20
101.39018064403228
10
62.15224093497743
20
101.7653668647302
10
62.33706077539491
20
102.11114046603922
10
62.58578643762691
20
102.4142135623731
10
62.8888595339608
20
102.66293922460511
10
63.23463313526982
20
102.84775906502256
10
63.609819355967744
20
102.96157056080648
10
64
20
103
10
64
20
103
0
LWPOLYLINE
5
24
330
C
100
AcDbEntity
420
9408413
8
0
100
AcDbPolyline
90
42
70
0
43
0
38
0
39
0
10
406
20
438
10
566.6666870117188
20
438
10
566.6666870117188
20
438
10
567.056867655751
20
437.9615705608065
10
567.4320538764489
20
437.84775906502256
10
567.7778274777579
20
437.6629392246051
10
568.0809005740919
20
437.4142135623731
10
568.3296262363239
20
437.1111404660392
10
568.5144460767414
20
436.7653668647302
10
568.6282575725252
20
436.3901806440323
10
568.6666870117188
20
436
10
568.6666870117188
20
418
10
568.6666870117188
20
418
10
568.6282575725252
20
417.6098193559677
10
568.5144460767414
20
417.2346331352698
10
568.3296262363239
20
416.8888595339608
10
568.0809005740919
20
416.5857864376269
10
567.7778274777579
20
416.3370607753949
10
567.4320538764489
20
416.15224093497744
10
567.056867655751
20
416.0384294391935
10
566.6666870117188
20
416
10
406
20
416
10
406
20
416
10
405.6098193559677
20
416.0384294391935
10
405.2346331352698
20
416.15224093497744
10
404.8888595339608
20
416.3370607753949
10
404.5857864376269
20
416.5857864376269
10
404.3370607753949
20
416.8888595339608
10
404.15224093497744
20
417.2346331352698
10
404.0384294391935
20
417.6098193559677
10
404
20
418
10
404
20
436
10
404
20
436
10
404.0384294391935
20
436.3901806440323
10
404.15224093497744
20
436.7653668647302
10
404.3370607753949
20
437.1111404660392
10
404.5857864376269
20
437.4142135623731
10
404.8888595339608
20
437.6629392246051
10
405.2346331352698
20
437.84775906502256
10
405.6098193559677
20
437.9615705608065
10
406
20
438
10
406
20
438
0
TEXT
5
25
330
C
100
AcDbEntity
420
0
8
0
100
AcDbText
10
409.98787952769885
20
423.666675
30
0
40
13.3333
1
mnnmnmnm
7
MS Shell Dlg \32
100
AcDbText
0
LWPOLYLINE
5
26
330
C
100
AcDbEntity
420
0
8
0
100
AcDbPolyline
90
5
70
0
43
0
38
0
39
0
10
404
20
402
10
733
20
402
10
733
20
173
10
404
20
173
10
404
20
402
0
TEXT
5
27
330
C
100
AcDbEntity
420
0
8
0
100
AcDbText
10
405
20
390.25
30
0
40
13
1
    dsfd.  fsdfd
7
STANDARD
100
AcDbText
0
TEXT
5
28
330
C
100
AcDbEntity
420
0
8
0
100
AcDbText
10
405
20
375.25
30
0
40
13
1
    dsfdfs.  dfddsf
7
STANDARD
100
AcDbText
0
TEXT
5
29
330
C
100
AcDbEntity
420
0
8
0
100
AcDbText
10
405
20
360.25
30
0
40
13
1
    sdf
7
STANDARD
100
AcDbText
0
TEXT
5
2A
330
C
100
AcDbEntity
420
0
8
0
100
AcDbText
10
405
20
345.25
30
0
40
13
1
    dsfdfsdfddsfdfssddfs
7
STANDARD
100
AcDbText
0
ENDSEC
0
SECTION
2
OBJECTS
0
DICTIONARY
5
A
330
0
100
AcDbDictionary
281
1
3
ACAD_GROUP
350
B
0
DICTIONARY
5
B
330
A
100
AcDbDictionary
281
0
0
ENDSEC
0
EOF