  0
SECTION
  2
HEADER
  9
$ANGBASE
 50
0.0
  9
$ANGDIR
 70
1
  9
$AUNITS
 70
0
  9
$AUPREC
 70
0
  9
$ATTMODE
 70
1
  9
$DWGCODEPAGE
  3
ANSI_1252
  9
$TDCREATE
 40
2461147.0199432293884456
  9
$CECOLOR
 62
256
  9
$CELTSCALE
 40
1.0
  9
$CELWEIGHT
370
-1
  9
$CLAYER
  8
0
  9
$CELTYPE
  6
ByLayer
  9
$CMLJUST
 70
0
  9
$CMLSCALE
 40
20.0
  9
$CMLSTYLE
  2
Standard
  9
$DIMSTYLE
  2
Standard
  9
$LWDISPLAY
290
0
  9
$EXTNAMES
290
1
  9
$HANDSEED
  5
3C
  9
$INSUNITS
 70
0
  9
$LUNITS
 70
2
  9
$LUPREC
 70
4
  9
$LTSCALE
 40
1.0
  9
$MIRRTEXT
 70
0
  9
$INSBASE
 10
0.0
 20
0.0
 30
0.0
  9
$SPLINESEGS
 70
8
  9
$PSLTSCALE
 70
1
  9
$PDMODE
 70
0
  9
$PDSIZE
 40
0.0
  9
$PLINEGEN
 70
0
  9
$TEXTSIZE
 40
0.2
  9
$TEXTSTYLE
  7
Standard
  9
$TDINDWG
 40
0.0
  9
$TDUCREATE
 40
2461147.0199432405643165
  9
$TDUUPDATE
 40
2461147.0199432405643165
  9
$TDUPDATE
 40
2461147.0199432405643165
  9
$ACADVER
  1
AC1018
  0
ENDSEC
  0
SECTION
  2
CLASSES
  0
CLASS
  1
ACDBDICTIONARYWDFLT
  2
AcDbDictionaryWithDefault
  3
ObjectDBX Classes
 90
32768
 91
0
280
0
281
0
  0
CLASS
  1
ACDBPLACEHOLDER
  2
AcDbPlaceHolder
  3
ObjectDBX Classes
 90
0
 91
0
280
0
281
0
  0
CLASS
  1
LAYOUT
  2
AcDbLayout
  3
ObjectDBX Classes
 90
0
 91
0
280
0
281
0
  0
CLASS
  1
DICTIONARYVAR
  2
AcDbDictionaryVar
  3
ObjectDBX Classes
 90
0
 91
0
280
0
281
0
  0
CLASS
  1
TABLESTYLE
  2
AcDbTableStyle
  3
ObjectDBX Classes
 90
4095
 91
0
280
0
281
0
  0
CLASS
  1
MATERIAL
  2
AcDbMaterial
  3
ObjectDBX Classes
 90
1153
 91
0
280
0
281
0
  0
CLASS
  1
VISUALSTYLE
  2
AcDbVisualStyle
  3
ObjectDBX Classes
 90
4095
 91
0
280
0
281
0
  0
CLASS
  1
SCALE
  2
AcDbScale
  3
ObjectDBX Classes
 90
1153
 91
0
280
0
281
0
  0
CLASS
  1
MLEADERSTYLE
  2
AcDbMLeaderStyle
  3
ObjectDBX Classes
 90
4095
 91
0
280
0
281
0
  0
CLASS
  1
CELLSTYLEMAP
  2
AcDbCellStyleMap
  3
ObjectDBX Classes
 90
1152
 91
0
280
0
281
0
  0
CLASS
  1
EXACXREFPANELOBJECT
  2
ExAcXREFPanelObject
  3
ObjectDBX Classes
 90
1025
 91
0
280
0
281
0
  0
CLASS
  1
NPOCOLLECTION
  2
AcDbImpNonPersistentObjectsCollection
  3
ObjectDBX Classes
 90
1153
 91
0
280
0
281
0
  0
CLASS
  1
LAYER_INDEX
  2
AcDbLayerIndex
  3
ObjectDBX Classes
 90
0
 91
0
280
0
281
0
  0
CLASS
  1
SPATIAL_INDEX
  2
AcDbSpatialIndex
  3
ObjectDBX Classes
 90
0
 91
0
280
0
281
0
  0
CLASS
  1
IDBUFFER
  2
AcDbIdBuffer
  3
ObjectDBX Classes
 90
32768
 91
0
280
0
281
0
  0
CLASS
  1
ACDBSECTIONVIEWSTYLE
  2
AcDbSectionViewStyle
  3
ObjectDBX Classes
 90
1025
 91
0
280
0
281
0
  0
CLASS
  1
ACDBDETAILVIEWSTYLE
  2
AcDbDetailViewStyle
  3
ObjectDBX Classes
 90
1025
 91
0
280
0
281
0
  0
CLASS
  1
MESH
  2
AcDbSubDMesh
  3
ObjectDBX Classes
 90
0
 91
0
280
0
281
1
  0
CLASS
  1
SORTENTSTABLE
  2
AcDbSortentsTable
  3
ObjectDBX Classes
 90
0
 91
0
280
0
281
0
  0
CLASS
  1
ACDB_TEXTOBJECTCONTEXTDATA_CLASS
  2
AcDbTextObjectContextData
  3
ObjectDBX Classes
 90
1153
 91
0
280
0
281
0
  0
CLASS
  1
WIPEOUT
  2
AcDbWipeout
  3
WipeOut
 90
32895
 91
0
280
0
281
1
  0
CLASS
  1
WIPEOUTVARIABLES
  2
AcDbWipeoutVariables
  3
WipeOut
 90
32768
 91
0
280
0
281
0
  0
CLASS
  1
DIMASSOC
  2
AcDbDimAssoc
  3
AcDbDimAssoc
 90
0
 91
0
280
0
281
0
  0
CLASS
  1
ACAD_TABLE
  2
AcDbTable
  3
ObjectDBX Classes
 90
1025
 91
0
280
0
281
1
  0
CLASS
  1
TABLECONTENT
  2
AcDbTableContent
  3
ObjectDBX Classes
 90
1152
 91
0
280
0
281
0
  0
CLASS
  1
TABLEGEOMETRY
  2
AcDbTableGeometry
  3
ObjectDBX Classes
 90
1152
 91
0
280
0
281
0
  0
CLASS
  1
IMAGE
  2
AcDbRasterImage
  3
ISM
 90
32895
 91
0
280
0
281
1
  0
CLASS
  1
IMAGEDEF
  2
AcDbRasterImageDef
  3
ISM
 90
0
 91
0
280
0
281
0
  0
CLASS
  1
IMAGEDEF_REACTOR
  2
AcDbRasterImageDefReactor
  3
ISM
 90
1
 91
0
280
0
281
0
  0
CLASS
  1
DBCOLOR
  2
AcDbColor
  3
ObjectDBX Classes
 90
0
 91
0
280
0
281
0
  0
CLASS
  1
GEODATA
  2
AcDbGeoData
  3
ObjectDBX Classes
 90
4095
 91
0
280
0
281
0
  0
CLASS
  1
MULTILEADER
  2
AcDbMLeader
  3
ObjectDBX Classes
 90
1025
 91
0
280
0
281
0
  0
CLASS
  1
PDFUNDERLAY
  2
AcDbPdfReference
  3
ObjectDBX Classes
 90
4095
 91
0
280
0
281
1
  0
CLASS
  1
PDFDEFINITION
  2
AcDbPdfDefinition
  3
ObjectDBX Classes
 90
1153
 91
0
280
0
281
0
  0
CLASS
  1
RASTERVARIABLES
  2
AcDbRasterVariables
  3
ISM
 90
0
 91
0
280
0
281
0
  0
CLASS
  1
SPATIAL_FILTER
  2
AcDbSpatialFilter
  3
ObjectDBX Classes
 90
0
 91
0
280
0
281
0
  0
CLASS
  1
ACDB_MLEADEROBJECTCONTEXTDATA_CLASS
  2
AcDbMLeaderObjectContextData
  3
ObjectDBX Classes
 90
1025
 91
0
280
0
281
0
  0
CLASS
  1
PLOTSETTINGS
  2
AcDbPlotSettings
  3
ObjectDBX Classes
 90
0
 91
0
280
0
281
0
  0
CLASS
  1
FIELD
  2
AcDbField
  3
ObjectDBX Classes
 90
1152
 91
0
280
0
281
0
  0
CLASS
  1
FIELDLIST
  2
AcDbFieldList
  3
ObjectDBX Classes
 90
1152
 91
0
280
0
281
0
  0
CLASS
  1
ACDB_MTEXTATTRIBUTEOBJECTCONTEXTDATA_CLASS
  2
AcDbMTextAttributeObjectContextData
  3
ObjectDBX Classes
 90
1153
 91
0
280
0
281
0
  0
CLASS
  1
ACDB_BLKREFOBJECTCONTEXTDATA_CLASS
  2
AcDbBlkRefObjectContextData
  3
ObjectDBX Classes
 90
1153
 91
0
280
0
281
0
  0
ENDSEC
  0
SECTION
  2
TABLES
  0
TABLE
  2
VPORT
  5
18
330
0
100
AcDbSymbolTable
 70
1
  0
VPORT
  5
26
330
18
100
AcDbSymbolTableRecord
100
AcDbViewportTableRecord
  2
*Active
 70
0
 10
0.0
 20
0.0
 11
1.0
 21
1.0
 12
0.0
 22
0.0
 13
0.0
 23
0.0
 14
0.5
 24
0.5
 15
10.0
 25
10.0
 16
0.0
 26
0.0
 36
1.0
 17
0.0
 27
0.0
 37
0.0
 40
10.0
 41
1.0
 75
0
 76
1
  0
ENDTAB
  0
TABLE
  2
LTYPE
  5
14
330
0
100
AcDbSymbolTable
 70
3
  0
LTYPE
  5
19
330
14
100
AcDbSymbolTableRecord
100
AcDbLinetypeTableRecord
  2
ByLayer
 70
0
 72
0
 73
0
 40
0.0
  0
LTYPE
  5
1A
330
14
100
AcDbSymbolTableRecord
100
AcDbLinetypeTableRecord
  2
ByBlock
 70
0
 72
0
 73
0
 40
0.0
  0
LTYPE
  5
1B
330
14
100
AcDbSymbolTableRecord
100
AcDbLinetypeTableRecord
  2
Continuous
 70
0
 72
0
 73
0
 40
0.0
  0
ENDTAB
  0
TABLE
  2
LAYER
  5
13
330
0
100
AcDbSymbolTable
 70
1
  0
LAYER
  5
1C
330
13
100
AcDbSymbolTableRecord
100
AcDbLayerTableRecord
  2
0
 70
0
 62
7
  6
Continuous
290
1
370
-3
390
0
  0
ENDTAB
  0
TABLE
  2
STYLE
  5
15
330
0
100
AcDbSymbolTable
 70
1
  0
STYLE
  5
23
330
15
100
AcDbSymbolTableRecord
100
AcDbTextStyleTableRecord
  2
Standard
 70
0
 40
0.0
 41
1.0
 42
0.0
 50
0.0
 71
0
  0
ENDTAB
  0
TABLE
  2
VIEW
  5
17
330
0
100
AcDbSymbolTable
 70
0
  0
ENDTAB
  0
TABLE
  2
UCS
  5
16
330
0
100
AcDbSymbolTable
 70
0
  0
ENDTAB
  0
TABLE
  2
APPID
  5
10
330
0
100
AcDbSymbolTable
 70
1
  0
APPID
  5
25
330
10
100
AcDbSymbolTableRecord
100
AcDbRegAppTableRecord
  2
ACAD
 70
0
  0
ENDTAB
  0
TABLE
  2
DIMSTYLE
  5
12
330
0
100
AcDbSymbolTable
 70
1
100
AcDbDimStyleTable
  0
DIMSTYLE
105
24
330
12
100
AcDbSymbolTableRecord
100
AcDbDimStyleTableRecord
  2
Standard
 70
0
  3
<>
  4
[]
 40
1.0
 41
0.18
 42
0.625
 43
3.75
 44
1.25
 45
0.0
 46
0.0
 47
0.0
 48
0.0
 49
1.0
 50
45.0
 70
0
 90
0
140
0.18
141
0.09
142
0.0
143
25.3999999999999986
144
1.0
145
0.0
146
1.0
147
0.625
148
0.0
 71
0
 72
0
 73
0
 74
0
 75
0
 76
0
 77
1
 78
8
 79
0
170
0
171
3
172
0
173
1
174
0
175
0
176
0
177
0
178
0
179
0
271
2
272
2
273
2
274
3
275
0
276
0
277
2
278
46
279
0
280
0
281
0
282
0
283
0
284
8
285
0
286
0
287
0
288
0
289
3
290
0
340
0
371
-2
372
-2
  0
ENDTAB
  0
TABLE
  2
BLOCK_RECORD
  5
11
330
0
100
AcDbSymbolTable
 70
2
  0
BLOCK_RECORD
  5
1D
330
11
100
AcDbSymbolTableRecord
100
AcDbBlockTableRecord
  2
*Model_Space
 70
0
340
0
 70
0
280
0
281
1
  0
BLOCK_RECORD
  5
20
330
11
100
AcDbSymbolTableRecord
100
AcDbBlockTableRecord
  2
*Paper_Space
 70
0
340
0
 70
0
280
0
281
1
  0
ENDTAB
  0
ENDSEC
  0
SECTION
  2
BLOCKS
  0
BLOCK
  5
1E
330
1D
100
AcDbEntity
  8
0
  6
ByLayer
 62
256
 48
1.0
 60
0
 67
0
370
-1
100
AcDbBlockBegin
  2
*Model_Space
 70
0
 10
0.0
 20
0.0
 30
0.0
  3
*Model_Space
  0
ENDBLK
  5
1F
330
1D
100
AcDbEntity
  8
0
100
AcDbBlockEnd
  0
BLOCK
  5
21
330
20
100
AcDbEntity
  8
0
  6
ByLayer
 62
256
 48
1.0
 60
0
 67
1
370
-1
100
AcDbBlockBegin
  2
*Paper_Space
 70
0
 10
0.0
 20
0.0
 30
0.0
  3
*Paper_Space
  0
ENDBLK
  5
22
330
20
100
AcDbEntity
  8
0
100
AcDbBlockEnd
  0
ENDSEC
  0
SECTION
  2
ENTITIES
  0
TEXT
  5
27
330
1D
100
AcDbEntity
  8
0
  6
ByLayer
420
0
 48
1.0
 60
0
 67
0
370
-1
100
AcDbText
 39
0.0
 10
0.0
 20
442.0
 30
0.0
 40
18.0
  1
Gradients
 50
0.0
 41
1.0
 51
0.0
  7
Standard
 71
0
 72
0
 11
0.0
 21
0.0
 31
0.0
210
0.0
220
0.0
230
1.0
100
AcDbText
 73
0
  0
HATCH
  5
28
330
1D
100
AcDbEntity
  8
0
  6
ByLayer
420
6717162
 48
1.0
 60
0
 67
0
370
-1
100
AcDbHatch
 30
0.0
210
0.0
220
0.0
230
1.0
  2
SOLID
 70
1
 71
0
 91
1
 92
2
 72
0
 73
1
 93
41
 10
18.0
 20
280.5
 10
252.0
 20
280.5
 10
252.0
 20
280.5
 10
253.5607225761290238
 20
280.3462822432258577
 10
255.0614674589207311
 20
279.8910362600902886
 10
256.4445618641568103
 20
279.1517568984203308
 10
257.656854249492369
 20
278.156854249492369
 10
258.6517568984203876
 20
276.9445618641568103
 10
259.3910362600902886
 20
275.5614674589207311
 10
259.8462822432258577
 20
274.0607225761290238
 10
260.0
 20
272.5
 10
260.0
 20
208.5
 10
260.0
 20
208.5
 10
259.8462822432258577
 20
206.9392774238709762
 10
259.3910362600902886
 20
205.4385325410792689
 10
258.6517568984203876
 20
204.0554381358431897
 10
257.656854249492369
 20
202.843145750507631
 10
256.4445618641568103
 20
201.8482431015796408
 10
255.0614674589207311
 20
201.1089637399097114
 10
253.5607225761290238
 20
200.6537177567741423
 10
252.0
 20
200.5
 10
18.0
 20
200.5
 10
18.0
 20
200.5
 10
16.4392774238709762
 20
200.6537177567741423
 10
14.9385325410792831
 20
201.1089637399097114
 10
13.5554381358431844
 20
201.8482431015796408
 10
12.3431457505076203
 20
202.843145750507631
 10
11.3482431015796372
 20
204.0554381358431897
 10
10.6089637399097061
 20
205.4385325410792689
 10
10.1537177567741566
 20
206.9392774238709762
 10
10.0
 20
208.5
 10
10.0
 20
272.5
 10
10.0
 20
272.5
 10
10.1537177567741566
 20
274.0607225761290238
 10
10.6089637399097043
 20
275.5614674589207311
 10
11.3482431015796372
 20
276.9445618641568103
 10
12.3431457505076185
 20
278.156854249492369
 10
13.5554381358431826
 20
279.1517568984203308
 10
14.9385325410792777
 20
279.8910362600902886
 10
16.4392774238709691
 20
280.3462822432258008
 10
18.0
 20
280.5
 97
0
 75
0
 76
1
 47
0.0
 98
0
  0
LWPOLYLINE
  5
29
330
1D
100
AcDbEntity
  8
0
  6
ByLayer
420
6717162
 48
1.0
 60
0
 67
0
370
-1
100
AcDbPolyline
 90
41
 70
1
 43
0.0
 38
0.0
 39
0.0
210
0.0
220
0.0
230
1.0
 10
18.0
 20
280.5
 40
0.0
 41
0.0
 42
0.0
 10
252.0
 20
280.5
 40
0.0
 41
0.0
 42
0.0
 10
252.0
 20
280.5
 40
0.0
 41
0.0
 42
0.0
 10
253.5607225761290238
 20
280.3462822432258577
 40
0.0
 41
0.0
 42
0.0
 10
255.0614674589207311
 20
279.8910362600902886
 40
0.0
 41
0.0
 42
0.0
 10
256.4445618641568103
 20
279.1517568984203308
 40
0.0
 41
0.0
 42
0.0
 10
257.656854249492369
 20
278.156854249492369
 40
0.0
 41
0.0
 42
0.0
 10
258.6517568984203876
 20
276.9445618641568103
 40
0.0
 41
0.0
 42
0.0
 10
259.3910362600902886
 20
275.5614674589207311
 40
0.0
 41
0.0
 42
0.0
 10
259.8462822432258577
 20
274.0607225761290238
 40
0.0
 41
0.0
 42
0.0
 10
260.0
 20
272.5
 40
0.0
 41
0.0
 42
0.0
 10
260.0
 20
208.5
 40
0.0
 41
0.0
 42
0.0
 10
260.0
 20
208.5
 40
0.0
 41
0.0
 42
0.0
 10
259.8462822432258577
 20
206.9392774238709762
 40
0.0
 41
0.0
 42
0.0
 10
259.3910362600902886
 20
205.4385325410792689
 40
0.0
 41
0.0
 42
0.0
 10
258.6517568984203876
 20
204.0554381358431897
 40
0.0
 41
0.0
 42
0.0
 10
257.656854249492369
 20
202.843145750507631
 40
0.0
 41
0.0
 42
0.0
 10
256.4445618641568103
 20
201.8482431015796408
 40
0.0
 41
0.0
 42
0.0
 10
255.0614674589207311
 20
201.1089637399097114
 40
0.0
 41
0.0
 42
0.0
 10
253.5607225761290238
 20
200.6537177567741423
 40
0.0
 41
0.0
 42
0.0
 10
252.0
 20
200.5
 40
0.0
 41
0.0
 42
0.0
 10
18.0
 20
200.5
 40
0.0
 41
0.0
 42
0.0
 10
18.0
 20
200.5
 40
0.0
 41
0.0
 42
0.0
 10
16.4392774238709762
 20
200.6537177567741423
 40
0.0
 41
0.0
 42
0.0
 10
14.9385325410792831
 20
201.1089637399097114
 40
0.0
 41
0.0
 42
0.0
 10
13.5554381358431844
 20
201.8482431015796408
 40
0.0
 41
0.0
 42
0.0
 10
12.3431457505076203
 20
202.843145750507631
 40
0.0
 41
0.0
 42
0.0
 10
11.3482431015796372
 20
204.0554381358431897
 40
0.0
 41
0.0
 42
0.0
 10
10.6089637399097061
 20
205.4385325410792689
 40
0.0
 41
0.0
 42
0.0
 10
10.1537177567741566
 20
206.9392774238709762
 40
0.0
 41
0.0
 42
0.0
 10
10.0
 20
208.5
 40
0.0
 41
0.0
 42
0.0
 10
10.0
 20
272.5
 40
0.0
 41
0.0
 42
0.0
 10
10.0
 20
272.5
 40
0.0
 41
0.0
 42
0.0
 10
10.1537177567741566
 20
274.0607225761290238
 40
0.0
 41
0.0
 42
0.0
 10
10.6089637399097043
 20
275.5614674589207311
 40
0.0
 41
0.0
 42
0.0
 10
11.3482431015796372
 20
276.9445618641568103
 40
0.0
 41
0.0
 42
0.0
 10
12.3431457505076185
 20
278.156854249492369
 40
0.0
 41
0.0
 42
0.0
 10
13.5554381358431826
 20
279.1517568984203308
 40
0.0
 41
0.0
 42
0.0
 10
14.9385325410792777
 20
279.8910362600902886
 40
0.0
 41
0.0
 42
0.0
 10
16.4392774238709691
 20
280.3462822432258008
 40
0.0
 41
0.0
 42
0.0
 10
18.0
 20
280.5
 40
0.0
 41
0.0
 42
0.0
  0
TEXT
  5
2A
330
1D
100
AcDbEntity
  8
0
  6
ByLayer
420
16777215
 48
1.0
 60
0
 67
0
370
-1
100
AcDbText
 39
0.0
 10
20.0
 20
257.5
 30
0.0
 40
16.0
  1
Linear gradient
 50
0.0
 41
1.0
 51
0.0
  7
Standard
 71
0
 72
0
 11
0.0
 21
0.0
 31
0.0
210
0.0
220
0.0
230
1.0
100
AcDbText
 73
0
  0
HATCH
  5
2B
330
1D
100
AcDbEntity
  8
0
  6
ByLayer
420
16751262
 48
1.0
 60
0
 67
0
370
-1
100
AcDbHatch
 30
0.0
210
0.0
220
0.0
230
1.0
  2
SOLID
 70
1
 71
0
 91
1
 92
2
 72
0
 73
1
 93
41
 10
359.45001220703125
 20
416.0
 10
359.45001220703125
 20
416.0
 10
359.45001220703125
 20
416.0
 10
374.0817863582408904
 20
414.5588960302422947
 10
388.1512696344129836
 20
410.2909649383465194
 10
401.1177796835014533
 20
403.3602209226908712
 10
412.4830207960222879
 20
394.0330085889910379
 10
421.8102331297221212
 20
382.6677674764701464
 10
428.7409771453777694
 20
369.7012574273817336
 10
433.0089082372735447
 20
355.6317741512095836
 10
434.45001220703125
 20
341.0
 10
434.45001220703125
 20
341.0
 10
434.45001220703125
 20
341.0
 10
433.0089082372735447
 20
326.3682258487904164
 10
428.7409771453777694
 20
312.2987425726182664
 10
421.8102331297221212
 20
299.3322325235298536
 10
412.4830207960222879
 20
287.9669914110089621
 10
401.1177796835014533
 20
278.6397790773090719
 10
388.1512696344129836
 20
271.7090350616534806
 10
374.0817863582408904
 20
267.4411039697577053
 10
359.45001220703125
 20
266.0
 10
359.45001220703125
 20
266.0
 10
359.45001220703125
 20
266.0
 10
344.8182380558216096
 20
267.4411039697577053
 10
330.7487547796495164
 20
271.7090350616534806
 10
317.7822447305611036
 20
278.6397790773090719
 10
306.4170036180402121
 20
287.9669914110089621
 10
297.0897912843403219
 20
299.3322325235298536
 10
290.1590472686847306
 20
312.2987425726182664
 10
285.8911161767889553
 20
326.3682258487903596
 10
284.45001220703125
 20
341.0
 10
284.45001220703125
 20
341.0
 10
284.45001220703125
 20
341.0
 10
285.8911161767889553
 20
355.6317741512096404
 10
290.1590472686847306
 20
369.7012574273817336
 10
297.0897912843403219
 20
382.6677674764701464
 10
306.4170036180401553
 20
394.0330085889910379
 10
317.7822447305611036
 20
403.3602209226908712
 10
330.7487547796494596
 20
410.2909649383465194
 10
344.8182380558216096
 20
414.5588960302422947
 10
359.45001220703125
 20
416.0
 97
0
 75
0
 76
1
 47
0.0
 98
0
  0
LWPOLYLINE
  5
2C
330
1D
100
AcDbEntity
  8
0
  6
ByLayer
420
16751262
 48
1.0
 60
0
 67
0
370
-1
100
AcDbPolyline
 90
41
 70
1
 43
0.0
 38
0.0
 39
0.0
210
0.0
220
0.0
230
1.0
 10
359.45001220703125
 20
416.0
 40
0.0
 41
0.0
 42
0.0
 10
359.45001220703125
 20
416.0
 40
0.0
 41
0.0
 42
0.0
 10
359.45001220703125
 20
416.0
 40
0.0
 41
0.0
 42
0.0
 10
374.0817863582408904
 20
414.5588960302422947
 40
0.0
 41
0.0
 42
0.0
 10
388.1512696344129836
 20
410.2909649383465194
 40
0.0
 41
0.0
 42
0.0
 10
401.1177796835014533
 20
403.3602209226908712
 40
0.0
 41
0.0
 42
0.0
 10
412.4830207960222879
 20
394.0330085889910379
 40
0.0
 41
0.0
 42
0.0
 10
421.8102331297221212
 20
382.6677674764701464
 40
0.0
 41
0.0
 42
0.0
 10
428.7409771453777694
 20
369.7012574273817336
 40
0.0
 41
0.0
 42
0.0
 10
433.0089082372735447
 20
355.6317741512095836
 40
0.0
 41
0.0
 42
0.0
 10
434.45001220703125
 20
341.0
 40
0.0
 41
0.0
 42
0.0
 10
434.45001220703125
 20
341.0
 40
0.0
 41
0.0
 42
0.0
 10
434.45001220703125
 20
341.0
 40
0.0
 41
0.0
 42
0.0
 10
433.0089082372735447
 20
326.3682258487904164
 40
0.0
 41
0.0
 42
0.0
 10
428.7409771453777694
 20
312.2987425726182664
 40
0.0
 41
0.0
 42
0.0
 10
421.8102331297221212
 20
299.3322325235298536
 40
0.0
 41
0.0
 42
0.0
 10
412.4830207960222879
 20
287.9669914110089621
 40
0.0
 41
0.0
 42
0.0
 10
401.1177796835014533
 20
278.6397790773090719
 40
0.0
 41
0.0
 42
0.0
 10
388.1512696344129836
 20
271.7090350616534806
 40
0.0
 41
0.0
 42
0.0
 10
374.0817863582408904
 20
267.4411039697577053
 40
0.0
 41
0.0
 42
0.0
 10
359.45001220703125
 20
266.0
 40
0.0
 41
0.0
 42
0.0
 10
359.45001220703125
 20
266.0
 40
0.0
 41
0.0
 42
0.0
 10
359.45001220703125
 20
266.0
 40
0.0
 41
0.0
 42
0.0
 10
344.8182380558216096
 20
267.4411039697577053
 40
0.0
 41
0.0
 42
0.0
 10
330.7487547796495164
 20
271.7090350616534806
 40
0.0
 41
0.0
 42
0.0
 10
317.7822447305611036
 20
278.6397790773090719
 40
0.0
 41
0.0
 42
0.0
 10
306.4170036180402121
 20
287.9669914110089621
 40
0.0
 41
0.0
 42
0.0
 10
297.0897912843403219
 20
299.3322325235298536
 40
0.0
 41
0.0
 42
0.0
 10
290.1590472686847306
 20
312.2987425726182664
 40
0.0
 41
0.0
 42
0.0
 10
285.8911161767889553
 20
326.3682258487903596
 40
0.0
 41
0.0
 42
0.0
 10
284.45001220703125
 20
341.0
 40
0.0
 41
0.0
 42
0.0
 10
284.45001220703125
 20
341.0
 40
0.0
 41
0.0
 42
0.0
 10
284.45001220703125
 20
341.0
 40
0.0
 41
0.0
 42
0.0
 10
285.8911161767889553
 20
355.6317741512096404
 40
0.0
 41
0.0
 42
0.0
 10
290.1590472686847306
 20
369.7012574273817336
 40
0.0
 41
0.0
 42
0.0
 10
297.0897912843403219
 20
382.6677674764701464
 40
0.0
 41
0.0
 42
0.0
 10
306.4170036180401553
 20
394.0330085889910379
 40
0.0
 41
0.0
 42
0.0
 10
317.7822447305611036
 20
403.3602209226908712
 40
0.0
 41
0.0
 42
0.0
 10
330.7487547796494596
 20
410.2909649383465194
 40
0.0
 41
0.0
 42
0.0
 10
344.8182380558216096
 20
414.5588960302422947
 40
0.0
 41
0.0
 42
0.0
 10
359.45001220703125
 20
416.0
 40
0.0
 41
0.0
 42
0.0
  0
HATCH
  5
2D
330
1D
100
AcDbEntity
  8
0
  6
ByLayer
420
16711680
 48
1.0
 60
0
 67
0
370
-1
100
AcDbHatch
 30
0.0
210
0.0
220
0.0
230
1.0
  2
SOLID
 70
1
 71
0
 91
1
 92
2
 72
0
 73
1
 93
41
 10
533.899993896484375
 20
416.0
 10
533.9000244140625
 20
416.0
 10
533.9000244140625
 20
416.0
 10
548.5317985652720836
 20
414.5588960302422947
 10
562.6012818414442336
 20
410.2909649383465194
 10
575.5677918905327033
 20
403.3602209226908712
 10
586.9330330030535379
 20
394.0330085889910379
 10
596.2602453367534281
 20
382.6677674764701464
 10
603.1909893524090194
 20
369.7012574273817336
 10
607.4589204443047947
 20
355.6317741512095836
 10
608.9000244140625
 20
341.0
 10
608.9000244140625
 20
341.0
 10
608.9000244140625
 20
341.0
 10
607.4589204443047947
 20
326.3682258487904164
 10
603.1909893524090194
 20
312.2987425726182664
 10
596.2602453367534281
 20
299.3322325235298536
 10
586.9330330030535379
 20
287.9669914110089621
 10
575.5677918905327033
 20
278.6397790773090719
 10
562.6012818414442336
 20
271.7090350616534806
 10
548.5317985652720836
 20
267.4411039697577053
 10
533.9000244140625
 20
266.0
 10
533.899993896484375
 20
266.0
 10
533.899993896484375
 20
266.0
 10
519.2682197452747914
 20
267.4411039697577053
 10
505.1987364691026414
 20
271.7090350616534806
 10
492.2322264200142286
 20
278.6397790773090719
 10
480.8669853074933371
 20
287.9669914110089621
 10
471.5397729737934469
 20
299.3322325235298536
 10
464.6090289581378556
 20
312.2987425726182664
 10
460.3410978662420803
 20
326.3682258487903596
 10
458.899993896484375
 20
341.0
 10
458.899993896484375
 20
341.0
 10
458.899993896484375
 20
341.0
 10
460.3410978662420803
 20
355.6317741512096404
 10
464.6090289581378556
 20
369.7012574273817336
 10
471.5397729737934469
 20
382.6677674764701464
 10
480.8669853074932803
 20
394.0330085889910379
 10
492.2322264200142286
 20
403.3602209226908712
 10
505.1987364691025846
 20
410.2909649383465194
 10
519.2682197452746777
 20
414.5588960302422947
 10
533.899993896484375
 20
416.0
 97
0
 75
0
 76
1
 47
0.0
 98
0
  0
LWPOLYLINE
  5
2E
330
1D
100
AcDbEntity
  8
0
  6
ByLayer
420
16711680
 48
1.0
 60
0
 67
0
370
-1
100
AcDbPolyline
 90
41
 70
1
 43
0.0
 38
0.0
 39
0.0
210
0.0
220
0.0
230
1.0
 10
533.899993896484375
 20
416.0
 40
0.0
 41
0.0
 42
0.0
 10
533.9000244140625
 20
416.0
 40
0.0
 41
0.0
 42
0.0
 10
533.9000244140625
 20
416.0
 40
0.0
 41
0.0
 42
0.0
 10
548.5317985652720836
 20
414.5588960302422947
 40
0.0
 41
0.0
 42
0.0
 10
562.6012818414442336
 20
410.2909649383465194
 40
0.0
 41
0.0
 42
0.0
 10
575.5677918905327033
 20
403.3602209226908712
 40
0.0
 41
0.0
 42
0.0
 10
586.9330330030535379
 20
394.0330085889910379
 40
0.0
 41
0.0
 42
0.0
 10
596.2602453367534281
 20
382.6677674764701464
 40
0.0
 41
0.0
 42
0.0
 10
603.1909893524090194
 20
369.7012574273817336
 40
0.0
 41
0.0
 42
0.0
 10
607.4589204443047947
 20
355.6317741512095836
 40
0.0
 41
0.0
 42
0.0
 10
608.9000244140625
 20
341.0
 40
0.0
 41
0.0
 42
0.0
 10
608.9000244140625
 20
341.0
 40
0.0
 41
0.0
 42
0.0
 10
608.9000244140625
 20
341.0
 40
0.0
 41
0.0
 42
0.0
 10
607.4589204443047947
 20
326.3682258487904164
 40
0.0
 41
0.0
 42
0.0
 10
603.1909893524090194
 20
312.2987425726182664
 40
0.0
 41
0.0
 42
0.0
 10
596.2602453367534281
 20
299.3322325235298536
 40
0.0
 41
0.0
 42
0.0
 10
586.9330330030535379
 20
287.9669914110089621
 40
0.0
 41
0.0
 42
0.0
 10
575.5677918905327033
 20
278.6397790773090719
 40
0.0
 41
0.0
 42
0.0
 10
562.6012818414442336
 20
271.7090350616534806
 40
0.0
 41
0.0
 42
0.0
 10
548.5317985652720836
 20
267.4411039697577053
 40
0.0
 41
0.0
 42
0.0
 10
533.9000244140625
 20
266.0
 40
0.0
 41
0.0
 42
0.0
 10
533.899993896484375
 20
266.0
 40
0.0
 41
0.0
 42
0.0
 10
533.899993896484375
 20
266.0
 40
0.0
 41
0.0
 42
0.0
 10
519.2682197452747914
 20
267.4411039697577053
 40
0.0
 41
0.0
 42
0.0
 10
505.1987364691026414
 20
271.7090350616534806
 40
0.0
 41
0.0
 42
0.0
 10
492.2322264200142286
 20
278.6397790773090719
 40
0.0
 41
0.0
 42
0.0
 10
480.8669853074933371
 20
287.9669914110089621
 40
0.0
 41
0.0
 42
0.0
 10
471.5397729737934469
 20
299.3322325235298536
 40
0.0
 41
0.0
 42
0.0
 10
464.6090289581378556
 20
312.2987425726182664
 40
0.0
 41
0.0
 42
0.0
 10
460.3410978662420803
 20
326.3682258487903596
 40
0.0
 41
0.0
 42
0.0
 10
458.899993896484375
 20
341.0
 40
0.0
 41
0.0
 42
0.0
 10
458.899993896484375
 20
341.0
 40
0.0
 41
0.0
 42
0.0
 10
458.899993896484375
 20
341.0
 40
0.0
 41
0.0
 42
0.0
 10
460.3410978662420803
 20
355.6317741512096404
 40
0.0
 41
0.0
 42
0.0
 10
464.6090289581378556
 20
369.7012574273817336
 40
0.0
 41
0.0
 42
0.0
 10
471.5397729737934469
 20
382.6677674764701464
 40
0.0
 41
0.0
 42
0.0
 10
480.8669853074932803
 20
394.0330085889910379
 40
0.0
 41
0.0
 42
0.0
 10
492.2322264200142286
 20
403.3602209226908712
 40
0.0
 41
0.0
 42
0.0
 10
505.1987364691025846
 20
410.2909649383465194
 40
0.0
 41
0.0
 42
0.0
 10
519.2682197452746777
 20
414.5588960302422947
 40
0.0
 41
0.0
 42
0.0
 10
533.899993896484375
 20
416.0
 40
0.0
 41
0.0
 42
0.0
  0
HATCH
  5
2F
330
1D
100
AcDbEntity
  8
0
  6
ByLayer
420
6319548
 48
1.0
 60
0
 67
0
370
-1
100
AcDbHatch
 30
0.0
210
0.0
220
0.0
230
1.0
  2
SOLID
 70
1
 71
0
 91
1
 92
2
 72
0
 73
1
 93
4
 10
633.3499755859375
 20
280.5
 10
883.3499755859375
 20
280.5
 10
883.3499755859375
 20
200.5
 10
633.3499755859375
 20
200.5
 97
0
 75
0
 76
1
 47
0.0
 98
0
  0
LWPOLYLINE
  5
30
330
1D
100
AcDbEntity
  8
0
  6
ByLayer
420
6319548
 48
1.0
 60
0
 67
0
370
-1
100
AcDbPolyline
 90
4
 70
1
 43
0.0
 38
0.0
 39
0.0
210
0.0
220
0.0
230
1.0
 10
633.3499755859375
 20
280.5
 40
0.0
 41
0.0
 42
0.0
 10
883.3499755859375
 20
280.5
 40
0.0
 41
0.0
 42
0.0
 10
883.3499755859375
 20
200.5
 40
0.0
 41
0.0
 42
0.0
 10
633.3499755859375
 20
200.5
 40
0.0
 41
0.0
 42
0.0
  0
TEXT
  5
31
330
1D
100
AcDbEntity
  8
0
  6
ByLayer
420
16777215
 48
1.0
 60
0
 67
0
370
-1
100
AcDbText
 39
0.0
 10
643.3499755859375
 20
257.5
 30
0.0
 40
16.0
  1
Repeating stripes
 50
0.0
 41
1.0
 51
0.0
  7
Standard
 71
0
 72
0
 11
0.0
 21
0.0
 31
0.0
210
0.0
220
0.0
230
1.0
100
AcDbText
 73
0
  0
HATCH
  5
32
330
1D
100
AcDbEntity
  8
0
  6
ByLayer
420
15263976
 48
1.0
 60
0
 67
0
370
-1
100
AcDbHatch
 30
0.0
210
0.0
220
0.0
230
1.0
  2
SOLID
 70
1
 71
0
 91
1
 92
2
 72
0
 73
1
 93
4
 10
907.79998779296875
 20
281.5
 10
1207.800048828125
 20
281.5
 10
1207.800048828125
 20
181.5
 10
907.79998779296875
 20
181.5
 97
0
 75
0
 76
1
 47
0.0
 98
0
  0
LWPOLYLINE
  5
33
330
1D
100
AcDbEntity
  8
0
  6
ByLayer
420
13421772
 48
1.0
 60
0
 67
0
370
-1
100
AcDbPolyline
 90
4
 70
1
 43
0.0
 38
0.0
 39
0.0
210
0.0
220
0.0
230
1.0
 10
907.79998779296875
 20
281.5
 40
0.0
 41
0.0
 42
0.0
 10
1207.800048828125
 20
281.5
 40
0.0
 41
0.0
 42
0.0
 10
1207.800048828125
 20
181.5
 40
0.0
 41
0.0
 42
0.0
 10
907.79998779296875
 20
181.5
 40
0.0
 41
0.0
 42
0.0
  0
TEXT
  5
34
330
1D
100
AcDbEntity
  8
0
  6
ByLayer
420
0
 48
1.0
 60
0
 67
0
370
-1
100
AcDbText
 39
0.0
 10
918.79998779296875
 20
257.5
 30
0.0
 40
16.0
  1
Multiple backgrounds
 50
0.0
 41
1.0
 51
0.0
  7
Standard
 71
0
 72
0
 11
0.0
 21
0.0
 31
0.0
210
0.0
220
0.0
230
1.0
100
AcDbText
 73
0
  0
TEXT
  5
35
330
1D
100
AcDbEntity
  8
0
  6
ByLayer
420
0
 48
1.0
 60
0
 67
0
370
-1
100
AcDbText
 39
0.0
 10
0.0
 20
136.5
 30
0.0
 40
18.0
  1
Box Shadows
 50
0.0
 41
1.0
 51
0.0
  7
Standard
 71
0
 72
0
 11
0.0
 21
0.0
 31
0.0
210
0.0
220
0.0
230
1.0
100
AcDbText
 73
0
  0
HATCH
  5
36
330
1D
100
AcDbEntity
  8
0
  6
ByLayer
420
16777215
 48
1.0
 60
0
 67
0
370
-1
100
AcDbHatch
 30
0.0
210
0.0
220
0.0
230
1.0
  2
SOLID
 70
1
 71
0
 91
1
 92
2
 72
0
 73
1
 93
41
 10
28.0
 20
100.5
 10
212.0
 20
100.5
 10
212.0
 20
100.5
 10
213.5607225761290238
 20
100.3462822432258577
 10
215.0614674589207311
 20
99.8910362600902886
 10
216.4445618641568103
 20
99.1517568984203876
 10
217.656854249492369
 20
98.156854249492369
 10
218.6517568984203592
 20
96.9445618641568103
 10
219.3910362600902886
 20
95.5614674589207311
 10
219.8462822432258577
 20
94.0607225761290238
 10
220.0
 20
92.5
 10
220.0
 20
28.5
 10
220.0
 20
28.5
 10
219.8462822432258577
 20
26.9392774238709762
 10
219.3910362600902886
 20
25.4385325410792689
 10
218.6517568984203592
 20
24.0554381358431897
 10
217.656854249492369
 20
22.843145750507631
 10
216.4445618641568103
 20
21.8482431015796124
 10
215.0614674589207311
 20
21.1089637399097114
 10
213.5607225761290238
 20
20.6537177567741423
 10
212.0
 20
20.5
 10
28.0
 20
20.5
 10
28.0
 20
20.5
 10
26.4392774238709762
 20
20.6537177567741423
 10
24.9385325410792831
 20
21.1089637399097114
 10
23.5554381358431826
 20
21.8482431015796124
 10
22.3431457505076203
 20
22.843145750507631
 10
21.3482431015796372
 20
24.0554381358431897
 10
20.6089637399097043
 20
25.4385325410792689
 10
20.1537177567741566
 20
26.9392774238709762
 10
20.0
 20
28.5
 10
20.0
 20
92.5
 10
20.0
 20
92.5
 10
20.1537177567741566
 20
94.0607225761290238
 10
20.6089637399097043
 20
95.5614674589207311
 10
21.3482431015796372
 20
96.9445618641568103
 10
22.3431457505076168
 20
98.156854249492369
 10
23.5554381358431826
 20
99.1517568984203876
 10
24.938532541079276
 20
99.8910362600902886
 10
26.4392774238709691
 20
100.3462822432258577
 10
28.0
 20
100.5
 97
0
 75
0
 76
1
 47
0.0
 98
0
  0
LWPOLYLINE
  5
37
330
1D
100
AcDbEntity
  8
0
  6
ByLayer
420
16777215
 48
1.0
 60
0
 67
0
370
-1
100
AcDbPolyline
 90
41
 70
1
 43
0.0
 38
0.0
 39
0.0
210
0.0
220
0.0
230
1.0
 10
28.0
 20
100.5
 40
0.0
 41
0.0
 42
0.0
 10
212.0
 20
100.5
 40
0.0
 41
0.0
 42
0.0
 10
212.0
 20
100.5
 40
0.0
 41
0.0
 42
0.0
 10
213.5607225761290238
 20
100.3462822432258577
 40
0.0
 41
0.0
 42
0.0
 10
215.0614674589207311
 20
99.8910362600902886
 40
0.0
 41
0.0
 42
0.0
 10
216.4445618641568103
 20
99.1517568984203876
 40
0.0
 41
0.0
 42
0.0
 10
217.656854249492369
 20
98.156854249492369
 40
0.0
 41
0.0
 42
0.0
 10
218.6517568984203592
 20
96.9445618641568103
 40
0.0
 41
0.0
 42
0.0
 10
219.3910362600902886
 20
95.5614674589207311
 40
0.0
 41
0.0
 42
0.0
 10
219.8462822432258577
 20
94.0607225761290238
 40
0.0
 41
0.0
 42
0.0
 10
220.0
 20
92.5
 40
0.0
 41
0.0
 42
0.0
 10
220.0
 20
28.5
 40
0.0
 41
0.0
 42
0.0
 10
220.0
 20
28.5
 40
0.0
 41
0.0
 42
0.0
 10
219.8462822432258577
 20
26.9392774238709762
 40
0.0
 41
0.0
 42
0.0
 10
219.3910362600902886
 20
25.4385325410792689
 40
0.0
 41
0.0
 42
0.0
 10
218.6517568984203592
 20
24.0554381358431897
 40
0.0
 41
0.0
 42
0.0
 10
217.656854249492369
 20
22.843145750507631
 40
0.0
 41
0.0
 42
0.0
 10
216.4445618641568103
 20
21.8482431015796124
 40
0.0
 41
0.0
 42
0.0
 10
215.0614674589207311
 20
21.1089637399097114
 40
0.0
 41
0.0
 42
0.0
 10
213.5607225761290238
 20
20.6537177567741423
 40
0.0
 41
0.0
 42
0.0
 10
212.0
 20
20.5
 40
0.0
 41
0.0
 42
0.0
 10
28.0
 20
20.5
 40
0.0
 41
0.0
 42
0.0
 10
28.0
 20
20.5
 40
0.0
 41
0.0
 42
0.0
 10
26.4392774238709762
 20
20.6537177567741423
 40
0.0
 41
0.0
 42
0.0
 10
24.9385325410792831
 20
21.1089637399097114
 40
0.0
 41
0.0
 42
0.0
 10
23.5554381358431826
 20
21.8482431015796124
 40
0.0
 41
0.0
 42
0.0
 10
22.3431457505076203
 20
22.843145750507631
 40
0.0
 41
0.0
 42
0.0
 10
21.3482431015796372
 20
24.0554381358431897
 40
0.0
 41
0.0
 42
0.0
 10
20.6089637399097043
 20
25.4385325410792689
 40
0.0
 41
0.0
 42
0.0
 10
20.1537177567741566
 20
26.9392774238709762
 40
0.0
 41
0.0
 42
0.0
 10
20.0
 20
28.5
 40
0.0
 41
0.0
 42
0.0
 10
20.0
 20
92.5
 40
0.0
 41
0.0
 42
0.0
 10
20.0
 20
92.5
 40
0.0
 41
0.0
 42
0.0
 10
20.1537177567741566
 20
94.0607225761290238
 40
0.0
 41
0.0
 42
0.0
 10
20.6089637399097043
 20
95.5614674589207311
 40
0.0
 41
0.0
 42
0.0
 10
21.3482431015796372
 20
96.9445618641568103
 40
0.0
 41
0.0
 42
0.0
 10
22.3431457505076168
 20
98.156854249492369
 40
0.0
 41
0.0
 42
0.0
 10
23.5554381358431826
 20
99.1517568984203876
 40
0.0
 41
0.0
 42
0.0
 10
24.938532541079276
 20
99.8910362600902886
 40
0.0
 41
0.0
 42
0.0
 10
26.4392774238709691
 20
100.3462822432258577
 40
0.0
 41
0.0
 42
0.0
 10
28.0
 20
100.5
 40
0.0
 41
0.0
 42
0.0
  0
TEXT
  5
38
330
1D
100
AcDbEntity
  8
0
  6
ByLayer
420
0
 48
1.0
 60
0
 67
0
370
-1
100
AcDbText
 39
0.0
 10
30.0
 20
77.5
 30
0.0
 40
16.0
  1
Drop shadow
 50
0.0
 41
1.0
 51
0.0
  7
Standard
 71
0
 72
0
 11
0.0
 21
0.0
 31
0.0
210
0.0
220
0.0
230
1.0
100
AcDbText
 73
0
  0
HATCH
  5
39
330
1D
100
AcDbEntity
  8
0
  6
ByLayer
420
15527921
 48
1.0
 60
0
 67
0
370
-1
100
AcDbHatch
 30
0.0
210
0.0
220
0.0
230
1.0
  2
SOLID
 70
1
 71
0
 91
1
 92
2
 72
0
 73
1
 93
41
 10
272.45001220703125
 20
100.5
 10
456.45001220703125
 20
100.5
 10
456.45001220703125
 20
100.5
 10
458.0107347831602738
 20
100.3462822432258577
 10
459.5114796659519811
 20
99.8910362600902886
 10
460.8945740711880603
 20
99.1517568984203876
 10
462.106866456523619
 20
98.156854249492369
 10
463.1017691054516376
 20
96.9445618641568103
 10
463.8410484671215386
 20
95.5614674589207311
 10
464.2962944502571077
 20
94.0607225761290238
 10
464.45001220703125
 20
92.5
 10
464.45001220703125
 20
28.5
 10
464.45001220703125
 20
28.5
 10
464.2962944502571077
 20
26.9392774238709762
 10
463.8410484671215386
 20
25.4385325410792689
 10
463.1017691054516376
 20
24.0554381358431897
 10
462.106866456523619
 20
22.843145750507631
 10
460.8945740711880603
 20
21.8482431015796124
 10
459.5114796659519811
 20
21.1089637399097114
 10
458.0107347831602738
 20
20.6537177567741423
 10
456.45001220703125
 20
20.5
 10
272.45001220703125
 20
20.5
 10
272.45001220703125
 20
20.5
 10
270.8892896309022262
 20
20.6537177567741423
 10
269.3885447481105189
 20
21.1089637399097114
 10
268.0054503428744397
 20
21.8482431015796124
 10
266.793157957538881
 20
22.843145750507631
 10
265.7982553086108624
 20
24.0554381358431897
 10
265.0589759469409614
 20
25.4385325410792689
 10
264.6037299638053923
 20
26.9392774238709762
 10
264.45001220703125
 20
28.5
 10
264.45001220703125
 20
92.5
 10
264.45001220703125
 20
92.5
 10
264.6037299638053923
 20
94.0607225761290238
 10
265.0589759469409614
 20
95.5614674589207311
 10
265.7982553086108624
 20
96.9445618641568103
 10
266.793157957538881
 20
98.156854249492369
 10
268.0054503428744397
 20
99.1517568984203876
 10
269.3885447481105189
 20
99.8910362600902886
 10
270.8892896309022262
 20
100.3462822432258577
 10
272.45001220703125
 20
100.5
 97
0
 75
0
 76
1
 47
0.0
 98
0
  0
LWPOLYLINE
  5
3A
330
1D
100
AcDbEntity
  8
0
  6
ByLayer
420
15527921
 48
1.0
 60
0
 67
0
370
-1
100
AcDbPolyline
 90
41
 70
1
 43
0.0
 38
0.0
 39
0.0
210
0.0
220
0.0
230
1.0
 10
272.45001220703125
 20
100.5
 40
0.0
 41
0.0
 42
0.0
 10
456.45001220703125
 20
100.5
 40
0.0
 41
0.0
 42
0.0
 10
456.45001220703125
 20
100.5
 40
0.0
 41
0.0
 42
0.0
 10
458.0107347831602738
 20
100.3462822432258577
 40
0.0
 41
0.0
 42
0.0
 10
459.5114796659519811
 20
99.8910362600902886
 40
0.0
 41
0.0
 42
0.0
 10
460.8945740711880603
 20
99.1517568984203876
 40
0.0
 41
0.0
 42
0.0
 10
462.106866456523619
 20
98.156854249492369
 40
0.0
 41
0.0
 42
0.0
 10
463.1017691054516376
 20
96.9445618641568103
 40
0.0
 41
0.0
 42
0.0
 10
463.8410484671215386
 20
95.5614674589207311
 40
0.0
 41
0.0
 42
0.0
 10
464.2962944502571077
 20
94.0607225761290238
 40
0.0
 41
0.0
 42
0.0
 10
464.45001220703125
 20
92.5
 40
0.0
 41
0.0
 42
0.0
 10
464.45001220703125
 20
28.5
 40
0.0
 41
0.0
 42
0.0
 10
464.45001220703125
 20
28.5
 40
0.0
 41
0.0
 42
0.0
 10
464.2962944502571077
 20
26.9392774238709762
 40
0.0
 41
0.0
 42
0.0
 10
463.8410484671215386
 20
25.4385325410792689
 40
0.0
 41
0.0
 42
0.0
 10
463.1017691054516376
 20
24.0554381358431897
 40
0.0
 41
0.0
 42
0.0
 10
462.106866456523619
 20
22.843145750507631
 40
0.0
 41
0.0
 42
0.0
 10
460.8945740711880603
 20
21.8482431015796124
 40
0.0
 41
0.0
 42
0.0
 10
459.5114796659519811
 20
21.1089637399097114
 40
0.0
 41
0.0
 42
0.0
 10
458.0107347831602738
 20
20.6537177567741423
 40
0.0
 41
0.0
 42
0.0
 10
456.45001220703125
 20
20.5
 40
0.0
 41
0.0
 42
0.0
 10
272.45001220703125
 20
20.5
 40
0.0
 41
0.0
 42
0.0
 10
272.45001220703125
 20
20.5
 40
0.0
 41
0.0
 42
0.0
 10
270.8892896309022262
 20
20.6537177567741423
 40
0.0
 41
0.0
 42
0.0
 10
269.3885447481105189
 20
21.1089637399097114
 40
0.0
 41
0.0
 42
0.0
 10
268.0054503428744397
 20
21.8482431015796124
 40
0.0
 41
0.0
 42
0.0
 10
266.793157957538881
 20
22.843145750507631
 40
0.0
 41
0.0
 42
0.0
 10
265.7982553086108624
 20
24.0554381358431897
 40
0.0
 41
0.0
 42
0.0
 10
265.0589759469409614
 20
25.4385325410792689
 40
0.0
 41
0.0
 42
0.0
 10
264.6037299638053923
 20
26.9392774238709762
 40
0.0
 41
0.0
 42
0.0
 10
264.45001220703125
 20
28.5
 40
0.0
 41
0.0
 42
0.0
 10
264.45001220703125
 20
92.5
 40
0.0
 41
0.0
 42
0.0
 10
264.45001220703125
 20
92.5
 40
0.0
 41
0.0
 42
0.0
 10
264.6037299638053923
 20
94.0607225761290238
 40
0.0
 41
0.0
 42
0.0
 10
265.0589759469409614
 20
95.5614674589207311
 40
0.0
 41
0.0
 42
0.0
 10
265.7982553086108624
 20
96.9445618641568103
 40
0.0
 41
0.0
 42
0.0
 10
266.793157957538881
 20
98.156854249492369
 40
0.0
 41
0.0
 42
0.0
 10
268.0054503428744397
 20
99.1517568984203876
 40
0.0
 41
0.0
 42
0.0
 10
269.3885447481105189
 20
99.8910362600902886
 40
0.0
 41
0.0
 42
0.0
 10
270.8892896309022262
 20
100.3462822432258577
 40
0.0
 41
0.0
 42
0.0
 10
272.45001220703125
 20
100.5
 40
0.0
 41
0.0
 42
0.0
  0
TEXT
  5
3B
330
1D
100
AcDbEntity
  8
0
  6
ByLayer
420
0
 48
1.0
 60
0
 67
0
370
-1
100
AcDbText
 39
0.0
 10
274.45001220703125
 20
77.5
 30
0.0
 40
16.0
  1
Inset shadow
 50
0.0
 41
1.0
 51
0.0
  7
Standard
 71
0
 72
0
 11
0.0
 21
0.0
 31
0.0
210
0.0
220
0.0
230
1.0
100
AcDbText
 73
0
  0
ENDSEC
  0
SECTION
  2
OBJECTS
  0
DICTIONARY
  5
1
330
0
100
AcDbDictionary
280
0
281
0
  3
ACAD_COLOR
350
2
  3
ACAD_GROUP
350
3
  3
ACAD_LAYOUT
350
4
  3
ACAD_MATERIAL
350
5
  3
ACAD_SORTENTS
350
6
  3
ACAD_MLEADERSTYLE
350
7
  3
ACAD_MLINESTYLE
350
8
  3
ACAD_TABLESTYLE
350
9
  3
ACAD_PLOTSETTINGS
350
A
  3
AcDbVariableDictionary
350
B
  3
ACAD_SCALELIST
350
C
  3
ACAD_VISUALSTYLE
350
D
  3
ACAD_FIELDLIST
350
E
  3
ACAD_IMAGE_DICT
350
F
  0
DICTIONARY
  5
2
330
1
100
AcDbDictionary
280
0
281
0
  0
DICTIONARY
  5
3
330
1
100
AcDbDictionary
280
0
281
0
  0
DICTIONARY
  5
4
330
1
100
AcDbDictionary
280
0
281
0
  0
DICTIONARY
  5
5
330
1
100
AcDbDictionary
280
0
281
0
  0
DICTIONARY
  5
6
330
1
100
AcDbDictionary
280
0
281
0
  0
DICTIONARY
  5
7
330
1
100
AcDbDictionary
280
0
281
0
  0
DICTIONARY
  5
8
330
1
100
AcDbDictionary
280
0
281
0
  0
DICTIONARY
  5
9
330
1
100
AcDbDictionary
280
0
281
0
  0
DICTIONARY
  5
A
330
1
100
AcDbDictionary
280
0
281
0
  0
DICTIONARY
  5
B
330
1
100
AcDbDictionary
280
0
281
0
  0
DICTIONARY
  5
C
330
1
100
AcDbDictionary
280
0
281
0
  0
DICTIONARY
  5
D
330
1
100
AcDbDictionary
280
0
281
0
  0
DICTIONARY
  5
E
330
1
100
AcDbDictionary
280
0
281
0
  0
DICTIONARY
  5
F
330
1
100
AcDbDictionary
280
0
281
0
  0
ENDSEC
  0
EOF
