0
SECTION
2
HEADER
9
$ACADVER
1
AC1021
9
$LASTSAVEDBY
1
@tarikjabiri/dxf
9
$HANDSEED
5
2F
9
$INSUNITS
70
0
9
$CLAYER
8
0
9
$VIEWCTR
10
490.9000244140625
20
371.5
0
ENDSEC
0
SECTION
2
CLASSES
0
ENDSEC
0
SECTION
2
TABLES
0
TABLE
2
VPORT
5
1
330
0
100
AcDbSymbolTable
70
1
0
VPORT
5
19
330
1
100
AcDbSymbolTableRecord
100
AcDbViewportTableRecord
2
*Active
70
0
10
0
20
0
11
1
21
1
12
490.9000244140625
22
371.5
13
0
23
0
14
10
24
10
15
10
25
10
16
0
26
0
36
1
17
0
27
0
37
0
40
943
41
2
42
50
43
0
44
0
50
0
51
0
71
0
72
100
73
1
74
3
75
0
76
1
77
0
78
0
281
0
65
1
110
0
120
0
130
0
111
1
121
0
131
0
112
0
122
1
132
0
79
0
146
0
348
10020
60
7
61
5
292
1
282
1
141
0
142
0
63
250
421
3358443
0
ENDTAB
0
TABLE
2
LTYPE
5
2
330
0
100
AcDbSymbolTable
70
3
0
LTYPE
5
12
330
2
100
AcDbSymbolTableRecord
100
AcDbLinetypeTableRecord
2
ByBlock
70
0
3

72
65
73
0
40
0
0
LTYPE
5
13
330
2
100
AcDbSymbolTableRecord
100
AcDbLinetypeTableRecord
2
ByLayer
70
0
3

72
65
73
0
40
0
0
LTYPE
5
14
330
2
100
AcDbSymbolTableRecord
100
AcDbLinetypeTableRecord
2
Continuous
70
0
3
Solid line
72
65
73
0
40
0
0
ENDTAB
0
TABLE
2
LAYER
5
3
330
0
100
AcDbSymbolTable
70
1
0
LAYER
5
15
330
3
100
AcDbSymbolTableRecord
100
AcDbLayerTableRecord
2
0
70
0
62
7
6
Continuous
370
0
390
0
0
ENDTAB
0
TABLE
2
STYLE
5
4
330
0
100
AcDbSymbolTable
70
2
0
STYLE
5
16
330
4
100
AcDbSymbolTableRecord
100
AcDbTextStyleTableRecord
2
Standard
70
0
40
0
41
1
50
0
71
0
42
1
3
txt
4

0
STYLE
5
1B
330
4
100
AcDbSymbolTableRecord
100
AcDbTextStyleTableRecord
2
Arial
70
0
40
0
41
1
50
0
71
0
42
1
3
Arial.ttf
4

0
ENDTAB
0
TABLE
2
VIEW
5
5
330
0
100
AcDbSymbolTable
70
0
0
ENDTAB
0
TABLE
2
UCS
5
6
330
0
100
AcDbSymbolTable
70
0
0
ENDTAB
0
TABLE
2
APPID
5
7
330
0
100
AcDbSymbolTable
70
1
0
APPID
5
17
330
7
100
AcDbSymbolTableRecord
100
AcDbRegAppTableRecord
2
ACAD
70
0
0
ENDTAB
0
TABLE
2
DIMSTYLE
5
8
330
0
100
AcDbSymbolTable
70
1
100
AcDbDimStyleTable
0
DIMSTYLE
105
18
330
8
100
AcDbSymbolTableRecord
100
AcDbDimStyleTableRecord
2
Standard
70
0
340
16
0
ENDTAB
0
TABLE
2
BLOCK_RECORD
5
9
330
0
100
AcDbSymbolTable
70
2
0
BLOCK_RECORD
5
C
330
9
100
AcDbSymbolTableRecord
100
AcDbBlockTableRecord
2
*Model_Space
70
0
280
1
281
0
0
BLOCK_RECORD
5
F
330
9
100
AcDbSymbolTableRecord
100
AcDbBlockTableRecord
2
*Paper_Space
70
0
280
1
281
0
0
ENDTAB
0
ENDSEC
0
SECTION
2
BLOCKS
0
BLOCK
5
D
330
C
100
AcDbEntity
8
0
100
AcDbBlockBegin
2
*Model_Space
70
0
10
0
20
0
30
0
3
*Model_Space
1

0
ENDBLK
5
E
100
AcDbEntity
8
0
100
AcDbBlockEnd
0
BLOCK
5
10
330
F
100
AcDbEntity
8
0
100
AcDbBlockBegin
2
*Paper_Space
70
0
10
0
20
0
30
0
3
*Paper_Space
1

0
ENDBLK
5
11
100
AcDbEntity
8
0
100
AcDbBlockEnd
0
ENDSEC
0
SECTION
2
ENTITIES
0
TEXT
5
1A
330
C
100
AcDbEntity
420
0
8
0
100
AcDbText
10
0
20
743
30
0
40
18
1
Gradients
7
Arial
100
AcDbText
0
LWPOLYLINE
5
1C
330
C
100
AcDbEntity
420
6717162
8
0
100
AcDbPolyline
90
42
70
0
43
0
38
0
39
0
10
18
20
551.5
10
252
20
551.5
10
252
20
551.5
10
253.56072257612902
20
551.3462822432259
10
255.06146745892073
20
550.8910362600902
10
256.4445618641568
20
550.1517568984203
10
257.65685424949237
20
549.1568542494924
10
258.6517568984204
20
547.9445618641569
10
259.3910362600903
20
546.5614674589208
10
259.84628224322586
20
545.060722576129
10
260
20
543.5
10
260
20
479.5
10
260
20
479.5
10
259.84628224322586
20
477.939277423871
10
259.3910362600903
20
476.43853254107927
10
258.6517568984204
20
475.0554381358432
10
257.65685424949237
20
473.84314575050763
10
256.4445618641568
20
472.8482431015796
10
255.06146745892073
20
472.1089637399097
10
253.56072257612902
20
471.65371775677414
10
252
20
471.5
10
18
20
471.5
10
18
20
471.5
10
16.439277423870976
20
471.65371775677414
10
14.938532541079283
20
472.1089637399097
10
13.555438135843184
20
472.8482431015796
10
12.34314575050762
20
473.84314575050763
10
11.348243101579637
20
475.0554381358432
10
10.608963739909706
20
476.43853254107927
10
10.153717756774157
20
477.939277423871
10
10
20
479.5
10
10
20
543.5
10
10
20
543.5
10
10.153717756774157
20
545.060722576129
10
10.608963739909704
20
546.5614674589208
10
11.348243101579637
20
547.9445618641569
10
12.343145750507619
20
549.1568542494924
10
13.555438135843183
20
550.1517568984203
10
14.938532541079278
20
550.8910362600902
10
16.43927742387097
20
551.3462822432258
10
18
20
551.5
10
18
20
551.5
0
TEXT
5
1D
330
C
100
AcDbEntity
420
16777215
8
0
100
AcDbText
10
20
20
528.5
30
0
40
16
1
Linear gradient
7
Arial
100
AcDbText
0
LWPOLYLINE
5
1E
330
C
100
AcDbEntity
420
16751262
8
0
100
AcDbPolyline
90
42
70
0
43
0
38
0
39
0
10
359.45001220703125
20
687
10
359.45001220703125
20
687
10
359.45001220703125
20
687
10
374.0817863582409
20
685.5588960302423
10
388.151269634413
20
681.2909649383465
10
401.11777968350145
20
674.3602209226909
10
412.4830207960223
20
665.033008588991
10
421.8102331297221
20
653.6677674764702
10
428.74097714537777
20
640.7012574273817
10
433.00890823727354
20
626.6317741512096
10
434.45001220703125
20
612
10
434.45001220703125
20
612
10
434.45001220703125
20
612
10
433.00890823727354
20
597.3682258487904
10
428.74097714537777
20
583.2987425726183
10
421.8102331297221
20
570.3322325235299
10
412.4830207960223
20
558.966991411009
10
401.11777968350145
20
549.6397790773091
10
388.151269634413
20
542.7090350616535
10
374.0817863582409
20
538.4411039697577
10
359.45001220703125
20
537
10
359.45001220703125
20
537
10
359.45001220703125
20
537
10
344.8182380558216
20
538.4411039697577
10
330.7487547796495
20
542.7090350616535
10
317.7822447305611
20
549.6397790773091
10
306.4170036180402
20
558.966991411009
10
297.0897912843403
20
570.3322325235299
10
290.15904726868473
20
583.2987425726183
10
285.89111617678896
20
597.3682258487904
10
284.45001220703125
20
612
10
284.45001220703125
20
612
10
284.45001220703125
20
612
10
285.89111617678896
20
626.6317741512096
10
290.15904726868473
20
640.7012574273817
10
297.0897912843403
20
653.6677674764701
10
306.41700361804016
20
665.033008588991
10
317.7822447305611
20
674.3602209226909
10
330.74875477964946
20
681.2909649383465
10
344.8182380558216
20
685.5588960302423
10
359.45001220703125
20
687
10
359.45001220703125
20
687
0
LWPOLYLINE
5
1F
330
C
100
AcDbEntity
420
16711680
8
0
100
AcDbPolyline
90
42
70
0
43
0
38
0
39
0
10
533.8999938964844
20
687
10
533.9000244140625
20
687
10
533.9000244140625
20
687
10
548.5317985652721
20
685.5588960302423
10
562.6012818414442
20
681.2909649383465
10
575.5677918905327
20
674.3602209226909
10
586.9330330030535
20
665.033008588991
10
596.2602453367534
20
653.6677674764702
10
603.190989352409
20
640.7012574273817
10
607.4589204443048
20
626.6317741512096
10
608.9000244140625
20
612
10
608.9000244140625
20
612
10
608.9000244140625
20
612
10
607.4589204443048
20
597.3682258487904
10
603.190989352409
20
583.2987425726183
10
596.2602453367534
20
570.3322325235299
10
586.9330330030535
20
558.966991411009
10
575.5677918905327
20
549.6397790773091
10
562.6012818414442
20
542.7090350616535
10
548.5317985652721
20
538.4411039697577
10
533.9000244140625
20
537
10
533.8999938964844
20
537
10
533.8999938964844
20
537
10
519.2682197452748
20
538.4411039697577
10
505.19873646910264
20
542.7090350616535
10
492.23222642001423
20
549.6397790773091
10
480.86698530749334
20
558.966991411009
10
471.53977297379345
20
570.3322325235299
10
464.60902895813786
20
583.2987425726183
10
460.3410978662421
20
597.3682258487904
10
458.8999938964844
20
612
10
458.8999938964844
20
612
10
458.8999938964844
20
612
10
460.3410978662421
20
626.6317741512096
10
464.60902895813786
20
640.7012574273817
10
471.53977297379345
20
653.6677674764701
10
480.8669853074933
20
665.033008588991
10
492.23222642001423
20
674.3602209226909
10
505.1987364691026
20
681.2909649383465
10
519.2682197452747
20
685.5588960302423
10
533.8999938964844
20
687
10
533.8999938964844
20
687
0
LWPOLYLINE
5
20
330
C
100
AcDbEntity
420
1002613
8
0
100
AcDbPolyline
90
42
70
0
43
0
38
0
39
0
10
991.7999877929688
20
717
10
991.800048828125
20
717
10
991.800048828125
20
717
10
1009.3581778095765
20
715.2706752362908
10
1026.2415577409831
20
710.1491579260158
10
1041.8013697998892
20
701.8322651072291
10
1055.4396591349143
20
690.6396103067893
10
1066.632313935354
20
677.0013209717642
10
1074.9492067541407
20
661.4415089128581
10
1080.0707240644158
20
644.5581289814515
10
1081.800048828125
20
627
10
1081.800048828125
20
627
10
1081.800048828125
20
627
10
1080.0707240644158
20
609.4418710185485
10
1074.9492067541407
20
592.5584910871419
10
1066.632313935354
20
576.9986790282358
10
1055.4396591349143
20
563.3603896932107
10
1041.8013697998892
20
552.1677348927709
10
1026.2415577409831
20
543.8508420739843
10
1009.3581778095765
20
538.7293247637092
10
991.800048828125
20
537
10
991.7999877929688
20
537
10
991.7999877929688
20
537
10
974.2418588115172
20
538.7293247637092
10
957.3584788801106
20
543.8508420739843
10
941.7986668212046
20
552.1677348927709
10
928.1603774861795
20
563.3603896932107
10
916.9677226857397
20
576.9986790282358
10
908.6508298669529
20
592.5584910871419
10
903.529312556678
20
609.4418710185485
10
901.7999877929688
20
627
10
901.7999877929688
20
627
10
901.7999877929688
20
627
10
903.529312556678
20
644.5581289814515
10
908.6508298669529
20
661.4415089128581
10
916.9677226857397
20
677.0013209717641
10
928.1603774861794
20
690.6396103067893
10
941.7986668212045
20
701.8322651072291
10
957.3584788801106
20
710.1491579260157
10
974.2418588115172
20
715.2706752362907
10
991.7999877929688
20
717
10
991.7999877929688
20
717
0
LWPOLYLINE
5
21
330
C
100
AcDbEntity
420
1193307
8
0
100
AcDbPolyline
90
42
70
0
43
0
38
0
39
0
10
85
20
415.5
10
85
20
415.5
10
85
20
415.5
10
99.63177415120963
20
414.0588960302423
10
113.70125742738173
20
409.7909649383465
10
126.66776747647017
20
402.86022092269087
10
138.03300858899107
20
393.53300858899104
10
147.3602209226909
20
382.16776747647015
10
154.29096493834652
20
369.20125742738173
10
158.5588960302423
20
355.13177415120964
10
160
20
340.5
10
160
20
340.5
10
160
20
340.5
10
158.5588960302423
20
325.86822584879036
10
154.29096493834652
20
311.79874257261827
10
147.3602209226909
20
298.83223252352985
10
138.03300858899107
20
287.46699141100896
10
126.66776747647017
20
278.13977907730913
10
113.70125742738173
20
271.2090350616535
10
99.63177415120963
20
266.9411039697577
10
85
20
265.5
10
85
20
265.5
10
85
20
265.5
10
70.36822584879039
20
266.9411039697577
10
56.298742572618266
20
271.2090350616535
10
43.33223252352985
20
278.1397790773091
10
31.96699141100894
20
287.46699141100896
10
22.6397790773091
20
298.83223252352985
10
15.709035061653495
20
311.79874257261827
10
11.44110396975772
20
325.86822584879036
10
10
20
340.5
10
10
20
340.5
10
10
20
340.5
10
11.44110396975772
20
355.13177415120964
10
15.70903506165348
20
369.20125742738173
10
22.639779077309093
20
382.16776747647015
10
31.966991411008927
20
393.53300858899104
10
43.33223252352984
20
402.86022092269087
10
56.298742572618224
20
409.7909649383465
10
70.36822584879035
20
414.0588960302423
10
84.99999999999999
20
415.5
10
85
20
415.5
0
LWPOLYLINE
5
22
330
C
100
AcDbEntity
420
735572
8
0
100
AcDbPolyline
90
42
70
0
43
0
38
0
39
0
10
259.4499969482422
20
415.5
10
259.45001220703125
20
415.5
10
259.45001220703125
20
415.5
10
274.0817863582409
20
414.0588960302423
10
288.151269634413
20
409.7909649383465
10
301.11777968350145
20
402.86022092269087
10
312.4830207960223
20
393.53300858899104
10
321.8102331297221
20
382.16776747647015
10
328.74097714537777
20
369.20125742738173
10
333.00890823727354
20
355.13177415120964
10
334.45001220703125
20
340.5
10
334.45001220703125
20
340.5
10
334.45001220703125
20
340.5
10
333.00890823727354
20
325.86822584879036
10
328.74097714537777
20
311.79874257261827
10
321.8102331297221
20
298.83223252352985
10
312.4830207960223
20
287.46699141100896
10
301.11777968350145
20
278.13977907730913
10
288.151269634413
20
271.2090350616535
10
274.0817863582409
20
266.9411039697577
10
259.45001220703125
20
265.5
10
259.4499969482422
20
265.5
10
259.4499969482422
20
265.5
10
244.81822279703258
20
266.9411039697577
10
230.74873952086045
20
271.2090350616535
10
217.78222947177204
20
278.1397790773091
10
206.41698835925112
20
287.46699141100896
10
197.0897760255513
20
298.83223252352985
10
190.15903200989567
20
311.79874257261827
10
185.8911009179999
20
325.86822584879036
10
184.4499969482422
20
340.5
10
184.4499969482422
20
340.5
10
184.4499969482422
20
340.5
10
185.8911009179999
20
355.13177415120964
10
190.15903200989567
20
369.20125742738173
10
197.0897760255513
20
382.16776747647015
10
206.41698835925112
20
393.53300858899104
10
217.78222947177204
20
402.86022092269087
10
230.7487395208604
20
409.7909649383465
10
244.81822279703255
20
414.0588960302423
10
259.4499969482422
20
415.5
10
259.4499969482422
20
415.5
0
LWPOLYLINE
5
23
330
C
100
AcDbEntity
420
6319548
8
0
100
AcDbPolyline
90
5
70
0
43
0
38
0
39
0
10
358.8999938964844
20
280
10
608.9000244140625
20
280
10
608.9000244140625
20
200
10
358.8999938964844
20
200
10
358.8999938964844
20
280
0
TEXT
5
24
330
C
100
AcDbEntity
420
16777215
8
0
100
AcDbText
10
368.8999938964844
20
257
30
0
40
16
1
Repeating stripes
7
Arial
100
AcDbText
0
LWPOLYLINE
5
25
330
C
100
AcDbEntity
420
13421772
8
0
100
AcDbPolyline
90
5
70
0
43
0
38
0
39
0
10
633.3499755859375
20
281
10
933.3499755859375
20
281
10
933.3499755859375
20
181
10
633.3499755859375
20
181
10
633.3499755859375
20
281
0
TEXT
5
26
330
C
100
AcDbEntity
420
0
8
0
100
AcDbText
10
644.3499755859375
20
257
30
0
40
16
1
Multiple backgrounds
7
Arial
100
AcDbText
0
TEXT
5
27
330
C
100
AcDbEntity
420
0
8
0
100
AcDbText
10
0
20
136
30
0
40
18
1
Box Shadows
7
Arial
100
AcDbText
0
LWPOLYLINE
5
28
330
C
100
AcDbEntity
420
16777215
8
0
100
AcDbPolyline
90
42
70
0
43
0
38
0
39
0
10
28
20
100
10
212
20
100
10
212
20
100
10
213.56072257612902
20
99.8462822432258
10
215.06146745892073
20
99.39103626009035
10
216.4445618641568
20
98.65175689842033
10
217.65685424949237
20
97.65685424949243
10
218.65175689842036
20
96.44456186415687
10
219.3910362600903
20
95.06146745892067
10
219.84628224322586
20
93.56072257612902
10
220
20
92
10
220
20
28
10
220
20
28
10
219.84628224322586
20
26.439277423870976
10
219.3910362600903
20
24.938532541079326
10
218.65175689842036
20
23.555438135843133
10
217.65685424949237
20
22.343145750507574
10
216.4445618641568
20
21.34824310157967
10
215.06146745892073
20
20.608963739909655
10
213.56072257612902
20
20.1537177567742
10
212
20
20
10
28
20
20
10
28
20
20
10
26.439277423870976
20
20.1537177567742
10
24.938532541079283
20
20.608963739909655
10
23.555438135843183
20
21.34824310157967
10
22.34314575050762
20
22.343145750507574
10
21.348243101579637
20
23.555438135843133
10
20.608963739909704
20
24.938532541079326
10
20.153717756774157
20
26.439277423870976
10
20
20
28
10
20
20
92
10
20
20
92
10
20.153717756774157
20
93.56072257612902
10
20.608963739909704
20
95.06146745892067
10
21.348243101579637
20
96.44456186415687
10
22.343145750507617
20
97.65685424949243
10
23.555438135843183
20
98.65175689842033
10
24.938532541079276
20
99.39103626009035
10
26.43927742387097
20
99.8462822432258
10
28
20
100
10
28
20
100
0
TEXT
5
29
330
C
100
AcDbEntity
420
0
8
0
100
AcDbText
10
30
20
77
30
0
40
16
1
Drop shadow
7
Arial
100
AcDbText
0
LWPOLYLINE
5
2A
330
C
100
AcDbEntity
420
15527921
8
0
100
AcDbPolyline
90
42
70
0
43
0
38
0
39
0
10
272.45001220703125
20
100
10
456.45001220703125
20
100
10
456.45001220703125
20
100
10
458.0107347831603
20
99.8462822432258
10
459.511479665952
20
99.39103626009035
10
460.89457407118806
20
98.65175689842033
10
462.1068664565236
20
97.65685424949243
10
463.10176910545164
20
96.44456186415687
10
463.84104846712154
20
95.06146745892067
10
464.2962944502571
20
93.56072257612902
10
464.45001220703125
20
92
10
464.45001220703125
20
28
10
464.45001220703125
20
28
10
464.2962944502571
20
26.439277423870976
10
463.84104846712154
20
24.938532541079326
10
463.10176910545164
20
23.555438135843133
10
462.1068664565236
20
22.343145750507574
10
460.89457407118806
20
21.34824310157967
10
459.511479665952
20
20.608963739909655
10
458.0107347831603
20
20.1537177567742
10
456.45001220703125
20
20
10
272.45001220703125
20
20
10
272.45001220703125
20
20
10
270.8892896309022
20
20.1537177567742
10
269.3885447481105
20
20.608963739909655
10
268.00545034287444
20
21.34824310157967
10
266.7931579575389
20
22.343145750507574
10
265.79825530861086
20
23.555438135843133
10
265.05897594694096
20
24.938532541079326
10
264.6037299638054
20
26.439277423870976
10
264.45001220703125
20
28
10
264.45001220703125
20
92
10
264.45001220703125
20
92
10
264.6037299638054
20
93.56072257612902
10
265.05897594694096
20
95.06146745892067
10
265.79825530861086
20
96.44456186415687
10
266.7931579575389
20
97.65685424949243
10
268.00545034287444
20
98.65175689842033
10
269.3885447481105
20
99.39103626009035
10
270.8892896309022
20
99.8462822432258
10
272.45001220703125
20
100
10
272.45001220703125
20
100
0
TEXT
5
2B
330
C
100
AcDbEntity
420
0
8
0
100
AcDbText
10
274.45001220703125
20
77
30
0
40
16
1
Inset shadow
7
Arial
100
AcDbText
0
HATCH
5
2C
330
C
100
AcDbEntity
420
16739179
8
0
100
AcDbHatch
10
0
20
0
30
0
210
0
220
0
230
1
2
SOLID
70
1
71
0
91
1
92
7
72
0
73
1
93
20
10
641.4102173825341
20
515.8406059965723
10
641.4343042872382
20
526.4471807073413
10
644.8467140245099
20
534.500470430947
10
651.6474465943488
20
540.0004751673894
10
661.8365019967554
20
542.9471949166685
10
832.1626435110571
20
566.884973662433
10
842.7692175150718
20
566.8608891069302
10
850.822505889735
20
563.4484809290266
10
856.3225086350471
20
556.6477491287224
10
859.2692257510081
20
546.4586937060174
10
869.2896731747732
20
475.1593788037483
10
869.2655860717232
20
464.552804169141
10
865.8531761600029
20
456.49951473312973
10
859.0524434396123
20
450.9995104957146
10
848.8633879105511
20
448.0527914568956
10
678.5372468550739
20
424.1150247052138
10
667.9306727244048
20
424.1391099711767
10
659.8773841991897
20
427.5515186481076
10
654.3773812794288
20
434.35225073600634
10
651.4306639651221
20
444.54130623487293
97
0
75
1
76
1
47
1
98
0
0
LWPOLYLINE
5
2D
330
C
100
AcDbEntity
420
16739179
8
0
100
AcDbPolyline
90
21
70
0
43
0
38
0
39
0
10
641.4102173825341
20
515.8406059965723
10
641.4343042872382
20
526.4471807073413
10
644.8467140245099
20
534.500470430947
10
651.6474465943488
20
540.0004751673894
10
661.8365019967554
20
542.9471949166685
10
832.1626435110571
20
566.884973662433
10
842.7692175150718
20
566.8608891069302
10
850.822505889735
20
563.4484809290266
10
856.3225086350471
20
556.6477491287224
10
859.2692257510081
20
546.4586937060174
10
869.2896731747732
20
475.1593788037483
10
869.2655860717232
20
464.552804169141
10
865.8531761600029
20
456.49951473312973
10
859.0524434396123
20
450.9995104957146
10
848.8633879105511
20
448.0527914568956
10
678.5372468550739
20
424.1150247052138
10
667.9306727244048
20
424.1391099711767
10
659.8773841991897
20
427.5515186481076
10
654.3773812794288
20
434.35225073600634
10
651.4306639651221
20
444.54130623487293
10
641.4102173825341
20
515.8406059965723
0
TEXT
5
2E
330
C
100
AcDbEntity
420
1058114
8
0
100
AcDbText
10
655.6915248867704
20
514.8182330477701
30
0
40
16
1
Offset conic
50
7.999993896051345
7
Arial
100
AcDbText
0
ENDSEC
0
SECTION
2
OBJECTS
0
DICTIONARY
5
A
330
0
100
AcDbDictionary
281
1
3
ACAD_GROUP
350
B
0
DICTIONARY
5
B
330
A
100
AcDbDictionary
281
0
0
ENDSEC
0
EOF