0
SECTION
2
HEADER
9
$ACADVER
1
AC1021
9
$LASTSAVEDBY
1
@tarikjabiri/dxf
9
$HANDSEED
5
52
9
$INSUNITS
70
0
9
$CLAYER
8
0
9
$VIEWCTR
10
629.3874797821045
20
575.5
0
ENDSEC
0
SECTION
2
CLASSES
0
ENDSEC
0
SECTION
2
TABLES
0
TABLE
2
VPORT
5
1
330
0
100
AcDbSymbolTable
70
1
0
VPORT
5
19
330
1
100
AcDbSymbolTableRecord
100
AcDbViewportTableRecord
2
*Active
70
0
10
0
20
0
11
1
21
1
12
629.3874797821045
22
575.5
13
0
23
0
14
10
24
10
15
10
25
10
16
0
26
0
36
1
17
0
27
0
37
0
40
461
41
2
42
50
43
0
44
0
50
0
51
0
71
0
72
100
73
1
74
3
75
0
76
1
77
0
78
0
281
0
65
1
110
0
120
0
130
0
111
1
121
0
131
0
112
0
122
1
132
0
79
0
146
0
348
10020
60
7
61
5
292
1
282
1
141
0
142
0
63
250
421
3358443
0
ENDTAB
0
TABLE
2
LTYPE
5
2
330
0
100
AcDbSymbolTable
70
3
0
LTYPE
5
12
330
2
100
AcDbSymbolTableRecord
100
AcDbLinetypeTableRecord
2
ByBlock
70
0
3

72
65
73
0
40
0
0
LTYPE
5
13
330
2
100
AcDbSymbolTableRecord
100
AcDbLinetypeTableRecord
2
ByLayer
70
0
3

72
65
73
0
40
0
0
LTYPE
5
14
330
2
100
AcDbSymbolTableRecord
100
AcDbLinetypeTableRecord
2
Continuous
70
0
3
Solid line
72
65
73
0
40
0
0
ENDTAB
0
TABLE
2
LAYER
5
3
330
0
100
AcDbSymbolTable
70
1
0
LAYER
5
15
330
3
100
AcDbSymbolTableRecord
100
AcDbLayerTableRecord
2
0
70
0
62
7
6
Continuous
370
0
390
0
0
ENDTAB
0
TABLE
2
STYLE
5
4
330
0
100
AcDbSymbolTable
70
2
0
STYLE
5
16
330
4
100
AcDbSymbolTableRecord
100
AcDbTextStyleTableRecord
2
Standard
70
0
40
0
41
1
50
0
71
0
42
1
3
txt
4

0
STYLE
5
1C
330
4
100
AcDbSymbolTableRecord
100
AcDbTextStyleTableRecord
2
Inter
70
0
40
0
41
1
50
0
71
0
42
1
3
Inter.ttf
4

0
ENDTAB
0
TABLE
2
VIEW
5
5
330
0
100
AcDbSymbolTable
70
0
0
ENDTAB
0
TABLE
2
UCS
5
6
330
0
100
AcDbSymbolTable
70
0
0
ENDTAB
0
TABLE
2
APPID
5
7
330
0
100
AcDbSymbolTable
70
1
0
APPID
5
17
330
7
100
AcDbSymbolTableRecord
100
AcDbRegAppTableRecord
2
ACAD
70
0
0
ENDTAB
0
TABLE
2
DIMSTYLE
5
8
330
0
100
AcDbSymbolTable
70
1
100
AcDbDimStyleTable
0
DIMSTYLE
105
18
330
8
100
AcDbSymbolTableRecord
100
AcDbDimStyleTableRecord
2
Standard
70
0
340
16
0
ENDTAB
0
TABLE
2
BLOCK_RECORD
5
9
330
0
100
AcDbSymbolTable
70
2
0
BLOCK_RECORD
5
C
330
9
100
AcDbSymbolTableRecord
100
AcDbBlockTableRecord
2
*Model_Space
70
0
280
1
281
0
0
BLOCK_RECORD
5
F
330
9
100
AcDbSymbolTableRecord
100
AcDbBlockTableRecord
2
*Paper_Space
70
0
280
1
281
0
0
ENDTAB
0
ENDSEC
0
SECTION
2
BLOCKS
0
BLOCK
5
D
330
C
100
AcDbEntity
8
0
100
AcDbBlockBegin
2
*Model_Space
70
0
10
0
20
0
30
0
3
*Model_Space
1

0
ENDBLK
5
E
100
AcDbEntity
8
0
100
AcDbBlockEnd
0
BLOCK
5
10
330
F
100
AcDbEntity
8
0
100
AcDbBlockBegin
2
*Paper_Space
70
0
10
0
20
0
30
0
3
*Paper_Space
1

0
ENDBLK
5
11
100
AcDbEntity
8
0
100
AcDbBlockEnd
0
ENDSEC
0
SECTION
2
ENTITIES
0
LWPOLYLINE
5
1A
330
C
100
AcDbEntity
420
16777215
8
0
100
AcDbPolyline
90
5
70
0
43
0
38
0
39
0
10
0
20
720
10
1280
20
720
10
1280
20
438
10
0
20
438
10
0
20
720
0
TEXT
5
1B
330
C
100
AcDbEntity
420
3422784
8
0
100
AcDbText
10
36
20
706
30
0
40
14
1
Home
7
Inter
100
AcDbText
0
IMAGE
5
1E
330
C
100
AcDbEntity
8
0
100
AcDbRasterImage
90
0
10
9
20
725.5
30
0
11
1
21
0
31
0
12
0
22
1
32
0
13
18
23
16
340
1D
70
3
280
1
281
50
282
50
283
0
360
1F
71
1
91
2
14
-0.5
24
-0.5
14
17.5
24
15.5
290
1
0
TEXT
5
21
330
C
100
AcDbEntity
420
3422784
8
0
100
AcDbText
10
36
20
677
30
0
40
14
1
Recent
7
Inter
100
AcDbText
0
IMAGE
5
23
330
C
100
AcDbEntity
8
0
100
AcDbRasterImage
90
0
10
10
20
696.5
30
0
11
1
21
0
31
0
12
0
22
1
32
0
13
16
23
16
340
22
70
3
280
1
281
50
282
50
283
0
360
24
71
1
91
2
14
-0.5
24
-0.5
14
15.5
24
15.5
290
1
0
TEXT
5
26
330
C
100
AcDbEntity
420
3422784
8
0
100
AcDbText
10
36
20
648
30
0
40
14
1
Tags
7
Inter
100
AcDbText
0
IMAGE
5
28
330
C
100
AcDbEntity
8
0
100
AcDbRasterImage
90
0
10
10
20
667.5
30
0
11
1
21
0
31
0
12
0
22
1
32
0
13
16
23
16
340
27
70
3
280
1
281
50
282
50
283
0
360
29
71
1
91
2
14
-0.5
24
-0.5
14
15.5
24
15.5
290
1
0
TEXT
5
2B
330
C
100
AcDbEntity
420
3422784
8
0
100
AcDbText
10
36
20
619
30
0
40
14
1
Unread
7
Inter
100
AcDbText
0
IMAGE
5
2D
330
C
100
AcDbEntity
8
0
100
AcDbRasterImage
90
0
10
10
20
638.5
30
0
11
1
21
0
31
0
12
0
22
1
32
0
13
16
23
16
340
2C
70
3
280
1
281
50
282
50
283
0
360
2E
71
1
91
2
14
-0.5
24
-0.5
14
15.5
24
15.5
290
1
0
LWPOLYLINE
5
30
330
C
100
AcDbEntity
420
880381
8
0
100
AcDbPolyline
90
42
70
0
43
0
38
0
39
0
10
13.058332443237305
20
640.6999969482422
10
42.94166564941406
20
640.6999969482422
10
42.94166564941406
20
640.6999969482422
10
43.722026937478574
20
640.6231380698551
10
44.47239937887442
20
640.3955150782873
10
45.163946581492475
20
640.0258753974524
10
45.770092774160254
20
639.5284240729884
10
46.26754409862424
20
638.9222778803206
10
46.63718377945921
20
638.2307306777026
10
46.864806771026984
20
637.4803582363068
10
46.94166564941406
20
636.6999969482422
10
46.94166564941406
20
624.2999954223633
10
46.94166564941406
20
624.2999954223633
10
46.864806771026984
20
623.5196341342987
10
46.63718377945921
20
622.7692616929029
10
46.26754409862424
20
622.0777144902848
10
45.770092774160254
20
621.4715682976171
10
45.163946581492475
20
620.9741169731531
10
44.47239937887442
20
620.6044772923182
10
43.722026937478574
20
620.3768543007503
10
42.94166564941406
20
620.2999954223633
10
13.058332443237305
20
620.2999954223633
10
13.058332443237305
20
620.2999954223633
10
12.277971155172793
20
620.3768543007503
10
11.527598713776946
20
620.6044772923182
10
10.836051511158896
20
620.9741169731531
10
10.229905318491115
20
621.4715682976171
10
9.732453994027123
20
622.0777144902848
10
9.362814313192157
20
622.7692616929029
10
9.135191321624383
20
623.5196341342987
10
9.058332443237305
20
624.2999954223633
10
9.058332443237305
20
636.6999969482422
10
9.058332443237305
20
636.6999969482422
10
9.135191321624383
20
637.4803582363068
10
9.362814313192157
20
638.2307306777026
10
9.732453994027123
20
638.9222778803206
10
10.229905318491113
20
639.5284240729884
10
10.836051511158896
20
640.0258753974524
10
11.527598713776943
20
640.3955150782873
10
12.27797115517279
20
640.6231380698551
10
13.058332443237305
20
640.6999969482422
10
13.058332443237305
20
640.6999969482422
0
TEXT
5
31
330
C
100
AcDbEntity
420
16777215
8
0
100
AcDbText
10
16.858333587646484
20
627.5
30
0
40
12
1
99+
7
Inter
100
AcDbText
0
LWPOLYLINE
5
32
330
C
100
AcDbEntity
420
880381
8
0
100
AcDbPolyline
90
42
70
0
43
0
38
0
39
0
10
1238.11669921875
20
632.6999969482422
10
1268
20
632.6999969482422
10
1268
20
632.6999969482422
10
1268.7803612880646
20
632.6231380698551
10
1269.5307337294603
20
632.3955150782873
10
1270.2222809320783
20
632.0258753974524
10
1270.8284271247462
20
631.5284240729884
10
1271.3258784492102
20
630.9222778803206
10
1271.6955181300452
20
630.2307306777026
10
1271.9231411216128
20
629.4803582363068
10
1272
20
628.6999969482422
10
1272
20
616.2999954223633
10
1272
20
616.2999954223633
10
1271.9231411216128
20
615.5196341342987
10
1271.6955181300452
20
614.7692616929029
10
1271.3258784492102
20
614.0777144902848
10
1270.8284271247462
20
613.4715682976171
10
1270.2222809320783
20
612.9741169731531
10
1269.5307337294603
20
612.6044772923182
10
1268.7803612880646
20
612.3768543007503
10
1268
20
612.2999954223633
10
1238.11669921875
20
612.2999954223633
10
1238.11669921875
20
612.2999954223633
10
1237.3363379306854
20
612.3768543007503
10
1236.5859654892897
20
612.6044772923182
10
1235.8944182866717
20
612.9741169731531
10
1235.2882720940038
20
613.4715682976171
10
1234.7908207695398
20
614.0777144902848
10
1234.4211810887048
20
614.7692616929029
10
1234.1935580971372
20
615.5196341342987
10
1234.11669921875
20
616.2999954223633
10
1234.11669921875
20
628.6999969482422
10
1234.11669921875
20
628.6999969482422
10
1234.1935580971372
20
629.4803582363068
10
1234.4211810887048
20
630.2307306777026
10
1234.7908207695398
20
630.9222778803206
10
1235.2882720940038
20
631.5284240729884
10
1235.8944182866717
20
632.0258753974524
10
1236.5859654892897
20
632.3955150782873
10
1237.3363379306854
20
632.6231380698551
10
1238.11669921875
20
632.6999969482422
10
1238.11669921875
20
632.6999969482422
0
TEXT
5
33
330
C
100
AcDbEntity
420
16777215
8
0
100
AcDbText
10
1241.9166259765625
20
619.5
30
0
40
12
1
99+
7
Inter
100
AcDbText
0
TEXT
5
34
330
C
100
AcDbEntity
420
3422784
8
0
100
AcDbText
10
36
20
590
30
0
40
14
1
Categories
7
Inter
100
AcDbText
0
IMAGE
5
36
330
C
100
AcDbEntity
8
0
100
AcDbRasterImage
90
0
10
10
20
609.5
30
0
11
1
21
0
31
0
12
0
22
1
32
0
13
16
23
16
340
35
70
3
280
1
281
50
282
50
283
0
360
37
71
1
91
2
14
-0.5
24
-0.5
14
15.5
24
15.5
290
1
0
TEXT
5
39
330
C
100
AcDbEntity
420
3422784
8
0
100
AcDbText
10
36
20
561
30
0
40
14
1
Unreplied
7
Inter
100
AcDbText
0
IMAGE
5
3B
330
C
100
AcDbEntity
8
0
100
AcDbRasterImage
90
0
10
10
20
580.5
30
0
11
1
21
0
31
0
12
0
22
1
32
0
13
16
23
16
340
3A
70
3
280
1
281
50
282
50
283
0
360
3C
71
1
91
2
14
-0.5
24
-0.5
14
15.5
24
15.5
290
1
0
TEXT
5
3E
330
C
100
AcDbEntity
420
3422784
8
0
100
AcDbText
10
36
20
532
30
0
40
14
1
Popular
7
Inter
100
AcDbText
0
IMAGE
5
40
330
C
100
AcDbEntity
8
0
100
AcDbRasterImage
90
0
10
11
20
551.5
30
0
11
1
21
0
31
0
12
0
22
1
32
0
13
14
23
16
340
3F
70
3
280
1
281
50
282
50
283
0
360
41
71
1
91
2
14
-0.5
24
-0.5
14
13.5
24
15.5
290
1
0
TEXT
5
43
330
C
100
AcDbEntity
420
3422784
8
0
100
AcDbText
10
36
20
503
30
0
40
14
1
GitHub
7
Inter
100
AcDbText
0
IMAGE
5
45
330
C
100
AcDbEntity
8
0
100
AcDbRasterImage
90
0
10
10.25
20
522.5
30
0
11
0.96875
21
0
31
0
12
0
22
0.96875
32
0
13
16
23
16
340
44
70
3
280
1
281
50
282
50
283
0
360
46
71
1
91
2
14
-0.5
24
-0.5
14
15.5
24
15.5
290
1
0
TEXT
5
48
330
C
100
AcDbEntity
420
3422784
8
0
100
AcDbText
10
36
20
474
30
0
40
14
1
Docu
7
Inter
100
AcDbText
0
IMAGE
5
4A
330
C
100
AcDbEntity
8
0
100
AcDbRasterImage
90
0
10
15
20
493.5
30
0
11
1
21
0
31
0
12
0
22
1
32
0
13
6
23
16
340
49
70
3
280
1
281
50
282
50
283
0
360
4B
71
1
91
2
14
-0.5
24
-0.5
14
5.5
24
15.5
290
1
0
TEXT
5
4D
330
C
100
AcDbEntity
420
3422784
8
0
100
AcDbText
10
36
20
445
30
0
40
14
1
Hilfe
7
Inter
100
AcDbText
0
IMAGE
5
4F
330
C
100
AcDbEntity
8
0
100
AcDbRasterImage
90
0
10
13
20
464.5
30
0
11
1
21
0
31
0
12
0
22
1
32
0
13
10
23
16
340
4E
70
3
280
1
281
50
282
50
283
0
360
50
71
1
91
2
14
-0.5
24
-0.5
14
9.5
24
15.5
290
1
0
ENDSEC
0
SECTION
2
OBJECTS
0
DICTIONARY
5
A
330
0
100
AcDbDictionary
281
1
3
ACAD_GROUP
350
B
3
ACAD_IMAGE_DICT
350
20
3
ACAD_IMAGE_DICT
350
25
3
ACAD_IMAGE_DICT
350
2A
3
ACAD_IMAGE_DICT
350
2F
3
ACAD_IMAGE_DICT
350
38
3
ACAD_IMAGE_DICT
350
3D
3
ACAD_IMAGE_DICT
350
42
3
ACAD_IMAGE_DICT
350
47
3
ACAD_IMAGE_DICT
350
4C
3
ACAD_IMAGE_DICT
350
51
0
DICTIONARY
5
B
330
A
100
AcDbDictionary
281
0
0
IMAGEDEF
5
1D
330
20
102
{ACAD_REACTORS
330
20
330
1F
102
}
100
AcDbRasterImageDef
1
icons-dxf-assets/image1.png
10
18
20
16
11
1
21
1
280
1
281
0
0
IMAGEDEF_REACTOR
5
1F
330
0
100
AcDbRasterImageDefReactor
90
2
330
1E
0
DICTIONARY
5
20
330
A
100
AcDbDictionary
281
0
3
image1
350
1D
0
IMAGEDEF
5
22
330
25
102
{ACAD_REACTORS
330
25
330
24
102
}
100
AcDbRasterImageDef
1
icons-dxf-assets/image2.png
10
16
20
16
11
1
21
1
280
1
281
0
0
IMAGEDEF_REACTOR
5
24
330
0
100
AcDbRasterImageDefReactor
90
2
330
23
0
DICTIONARY
5
25
330
A
100
AcDbDictionary
281
0
3
image2
350
22
0
IMAGEDEF
5
27
330
2A
102
{ACAD_REACTORS
330
2A
330
29
102
}
100
AcDbRasterImageDef
1
icons-dxf-assets/image3.png
10
16
20
16
11
1
21
1
280
1
281
0
0
IMAGEDEF_REACTOR
5
29
330
0
100
AcDbRasterImageDefReactor
90
2
330
28
0
DICTIONARY
5
2A
330
A
100
AcDbDictionary
281
0
3
image3
350
27
0
IMAGEDEF
5
2C
330
2F
102
{ACAD_REACTORS
330
2F
330
2E
102
}
100
AcDbRasterImageDef
1
icons-dxf-assets/image4.png
10
16
20
16
11
1
21
1
280
1
281
0
0
IMAGEDEF_REACTOR
5
2E
330
0
100
AcDbRasterImageDefReactor
90
2
330
2D
0
DICTIONARY
5
2F
330
A
100
AcDbDictionary
281
0
3
image4
350
2C
0
IMAGEDEF
5
35
330
38
102
{ACAD_REACTORS
330
38
330
37
102
}
100
AcDbRasterImageDef
1
icons-dxf-assets/image5.png
10
16
20
16
11
1
21
1
280
1
281
0
0
IMAGEDEF_REACTOR
5
37
330
0
100
AcDbRasterImageDefReactor
90
2
330
36
0
DICTIONARY
5
38
330
A
100
AcDbDictionary
281
0
3
image5
350
35
0
IMAGEDEF
5
3A
330
3D
102
{ACAD_REACTORS
330
3D
330
3C
102
}
100
AcDbRasterImageDef
1
icons-dxf-assets/image6.png
10
16
20
16
11
1
21
1
280
1
281
0
0
IMAGEDEF_REACTOR
5
3C
330
0
100
AcDbRasterImageDefReactor
90
2
330
3B
0
DICTIONARY
5
3D
330
A
100
AcDbDictionary
281
0
3
image6
350
3A
0
IMAGEDEF
5
3F
330
42
102
{ACAD_REACTORS
330
42
330
41
102
}
100
AcDbRasterImageDef
1
icons-dxf-assets/image7.png
10
14
20
16
11
1
21
1
280
1
281
0
0
IMAGEDEF_REACTOR
5
41
330
0
100
AcDbRasterImageDefReactor
90
2
330
40
0
DICTIONARY
5
42
330
A
100
AcDbDictionary
281
0
3
image7
350
3F
0
IMAGEDEF
5
44
330
47
102
{ACAD_REACTORS
330
47
330
46
102
}
100
AcDbRasterImageDef
1
icons-dxf-assets/image8.png
10
16
20
16
11
1
21
1
280
1
281
0
0
IMAGEDEF_REACTOR
5
46
330
0
100
AcDbRasterImageDefReactor
90
2
330
45
0
DICTIONARY
5
47
330
A
100
AcDbDictionary
281
0
3
image8
350
44
0
IMAGEDEF
5
49
330
4C
102
{ACAD_REACTORS
330
4C
330
4B
102
}
100
AcDbRasterImageDef
1
icons-dxf-assets/image9.png
10
6
20
16
11
1
21
1
280
1
281
0
0
IMAGEDEF_REACTOR
5
4B
330
0
100
AcDbRasterImageDefReactor
90
2
330
4A
0
DICTIONARY
5
4C
330
A
100
AcDbDictionary
281
0
3
image9
350
49
0
IMAGEDEF
5
4E
330
51
102
{ACAD_REACTORS
330
51
330
50
102
}
100
AcDbRasterImageDef
1
icons-dxf-assets/image10.png
10
10
20
16
11
1
21
1
280
1
281
0
0
IMAGEDEF_REACTOR
5
50
330
0
100
AcDbRasterImageDefReactor
90
2
330
4F
0
DICTIONARY
5
51
330
A
100
AcDbDictionary
281
0
3
image10
350
4E
0
ENDSEC
0
EOF