  0
SECTION
  2
HEADER
  0
ENDSEC
  0
SECTION
  2
CLASSES
  0
CLASS
  1
ACDBDICTIONARYWDFLT
  2
AcDbDictionaryWithDefault
  3
ObjectDBX Classes
 90
32768
280
0
281
0
  0
CLASS
  1
ACDBPLACEHOLDER
  2
AcDbPlaceHolder
  3
ObjectDBX Classes
 90
0
280
0
281
0
  0
CLASS
  1
LAYOUT
  2
AcDbLayout
  3
ObjectDBX Classes
 90
0
280
0
281
0
  0
CLASS
  1
DICTIONARYVAR
  2
AcDbDictionaryVar
  3
ObjectDBX Classes
 90
0
280
0
281
0
  0
CLASS
  1
TABLESTYLE
  2
AcDbTableStyle
  3
ObjectDBX Classes
 90
4095
280
0
281
0
  0
CLASS
  1
MATERIAL
  2
AcDbMaterial
  3
ObjectDBX Classes
 90
1153
280
0
281
0
  0
CLASS
  1
VISUALSTYLE
  2
AcDbVisualStyle
  3
ObjectDBX Classes
 90
4095
280
0
281
0
  0
CLASS
  1
SCALE
  2
AcDbScale
  3
ObjectDBX Classes
 90
1153
280
0
281
0
  0
CLASS
  1
MLEADERSTYLE
  2
AcDbMLeaderStyle
  3
ObjectDBX Classes
 90
4095
280
0
281
0
  0
CLASS
  1
CELLSTYLEMAP
  2
AcDbCellStyleMap
  3
ObjectDBX Classes
 90
1152
280
0
281
0
  0
CLASS
  1
EXACXREFPANELOBJECT
  2
ExAcXREFPanelObject
  3
ObjectDBX Classes
 90
1025
280
0
281
0
  0
CLASS
  1
NPOCOLLECTION
  2
AcDbImpNonPersistentObjectsCollection
  3
ObjectDBX Classes
 90
1153
280
0
281
0
  0
CLASS
  1
LAYER_INDEX
  2
AcDbLayerIndex
  3
ObjectDBX Classes
 90
0
280
0
281
0
  0
CLASS
  1
SPATIAL_INDEX
  2
AcDbSpatialIndex
  3
ObjectDBX Classes
 90
0
280
0
281
0
  0
CLASS
  1
IDBUFFER
  2
AcDbIdBuffer
  3
ObjectDBX Classes
 90
32768
280
0
281
0
  0
CLASS
  1
ACDBSECTIONVIEWSTYLE
  2
AcDbSectionViewStyle
  3
ObjectDBX Classes
 90
1025
280
0
281
0
  0
CLASS
  1
ACDBDETAILVIEWSTYLE
  2
AcDbDetailViewStyle
  3
ObjectDBX Classes
 90
1025
280
0
281
0
  0
CLASS
  1
MESH
  2
AcDbSubDMesh
  3
ObjectDBX Classes
 90
0
280
0
281
1
  0
CLASS
  1
SORTENTSTABLE
  2
AcDbSortentsTable
  3
ObjectDBX Classes
 90
0
280
0
281
0
  0
CLASS
  1
ACDB_TEXTOBJECTCONTEXTDATA_CLASS
  2
AcDbTextObjectContextData
  3
ObjectDBX Classes
 90
1153
280
0
281
0
  0
CLASS
  1
WIPEOUT
  2
AcDbWipeout
  3
WipeOut
 90
32895
280
0
281
1
  0
CLASS
  1
WIPEOUTVARIABLES
  2
AcDbWipeoutVariables
  3
WipeOut
 90
32768
280
0
281
0
  0
CLASS
  1
DIMASSOC
  2
AcDbDimAssoc
  3
AcDbDimAssoc
 90
0
280
0
281
0
  0
CLASS
  1
ACAD_TABLE
  2
AcDbTable
  3
ObjectDBX Classes
 90
1025
280
0
281
1
  0
CLASS
  1
TABLECONTENT
  2
AcDbTableContent
  3
ObjectDBX Classes
 90
1152
280
0
281
0
  0
CLASS
  1
TABLEGEOMETRY
  2
AcDbTableGeometry
  3
ObjectDBX Classes
 90
1152
280
0
281
0
  0
CLASS
  1
IMAGE
  2
AcDbRasterImage
  3
ISM
 90
32895
280
0
281
1
  0
CLASS
  1
IMAGEDEF
  2
AcDbRasterImageDef
  3
ISM
 90
0
280
0
281
0
  0
CLASS
  1
IMAGEDEF_REACTOR
  2
AcDbRasterImageDefReactor
  3
ISM
 90
1
280
0
281
0
  0
CLASS
  1
DBCOLOR
  2
AcDbColor
  3
ObjectDBX Classes
 90
0
280
0
281
0
  0
CLASS
  1
GEODATA
  2
AcDbGeoData
  3
ObjectDBX Classes
 90
4095
280
0
281
0
  0
CLASS
  1
MULTILEADER
  2
AcDbMLeader
  3
ObjectDBX Classes
 90
1025
280
0
281
0
  0
CLASS
  1
PDFUNDERLAY
  2
AcDbPdfReference
  3
ObjectDBX Classes
 90
4095
280
0
281
1
  0
CLASS
  1
PDFDEFINITION
  2
AcDbPdfDefinition
  3
ObjectDBX Classes
 90
1153
280
0
281
0
  0
CLASS
  1
RASTERVARIABLES
  2
AcDbRasterVariables
  3
ISM
 90
0
280
0
281
0
  0
CLASS
  1
SPATIAL_FILTER
  2
AcDbSpatialFilter
  3
ObjectDBX Classes
 90
0
280
0
281
0
  0
CLASS
  1
ACDB_MLEADEROBJECTCONTEXTDATA_CLASS
  2
AcDbMLeaderObjectContextData
  3
ObjectDBX Classes
 90
1025
280
0
281
0
  0
CLASS
  1
PLOTSETTINGS
  2
AcDbPlotSettings
  3
ObjectDBX Classes
 90
0
280
0
281
0
  0
CLASS
  1
FIELD
  2
AcDbField
  3
ObjectDBX Classes
 90
1152
280
0
281
0
  0
CLASS
  1
FIELDLIST
  2
AcDbFieldList
  3
ObjectDBX Classes
 90
1152
280
0
281
0
  0
CLASS
  1
ACDB_MTEXTATTRIBUTEOBJECTCONTEXTDATA_CLASS
  2
AcDbMTextAttributeObjectContextData
  3
ObjectDBX Classes
 90
1153
280
0
281
0
  0
CLASS
  1
ACDB_BLKREFOBJECTCONTEXTDATA_CLASS
  2
AcDbBlkRefObjectContextData
  3
ObjectDBX Classes
 90
1153
280
0
281
0
  0
ENDSEC
  0
SECTION
  2
TABLES
  0
TABLE
  2
VPORT
  5
A
330
0
100
AcDbSymbolTable
 70
1
  0
VPORT
  5
18
330
A
100
AcDbSymbolTableRecord
100
AcDbViewportTableRecord
  2
*Active
 70
0
 10
0.0
 20
0.0
 11
1.0
 21
1.0
 12
0.0
 22
0.0
 13
0.0
 23
0.0
 14
0.5
 24
0.5
 15
10.0
 25
10.0
 16
0.0
 26
0.0
 36
1.0
 17
0.0
 27
0.0
 37
0.0
 40
10.0
 41
1.0
 75
0
 76
1
  0
ENDTAB
  0
TABLE
  2
LTYPE
  5
6
330
0
100
AcDbSymbolTable
 70
3
  0
LTYPE
  5
B
330
6
100
AcDbSymbolTableRecord
100
AcDbLinetypeTableRecord
  2
ByLayer
 70
0
 72
0
 73
0
 40
0.0
  0
LTYPE
  5
C
330
6
100
AcDbSymbolTableRecord
100
AcDbLinetypeTableRecord
  2
ByBlock
 70
0
 72
0
 73
0
 40
0.0
  0
LTYPE
  5
D
330
6
100
AcDbSymbolTableRecord
100
AcDbLinetypeTableRecord
  2
Continuous
 70
0
 72
0
 73
0
 40
0.0
  0
ENDTAB
  0
TABLE
  2
LAYER
  5
5
330
0
100
AcDbSymbolTable
 70
1
  0
LAYER
  5
E
330
5
100
AcDbSymbolTableRecord
100
AcDbLayerTableRecord
  2
0
 70
0
 62
7
  6
Continuous
290
1
370
-3
390
0
  0
ENDTAB
  0
TABLE
  2
STYLE
  5
7
330
0
100
AcDbSymbolTable
 70
1
  0
STYLE
  5
15
330
7
100
AcDbSymbolTableRecord
100
AcDbTextStyleTableRecord
  2
Standard
 70
0
 40
0.0
 41
1.0
 42
0.0
 50
0.0
 71
0
  0
ENDTAB
  0
TABLE
  2
VIEW
  5
9
330
0
100
AcDbSymbolTable
 70
0
  0
ENDTAB
  0
TABLE
  2
UCS
  5
8
330
0
100
AcDbSymbolTable
 70
0
  0
ENDTAB
  0
TABLE
  2
APPID
  5
2
330
0
100
AcDbSymbolTable
 70
1
  0
APPID
  5
17
330
2
100
AcDbSymbolTableRecord
100
AcDbRegAppTableRecord
  2
ACAD
 70
0
  0
ENDTAB
  0
TABLE
  2
DIMSTYLE
  5
4
330
0
100
AcDbSymbolTable
 70
1
100
AcDbDimStyleTable
  0
DIMSTYLE
105
16
330
4
100
AcDbSymbolTableRecord
100
AcDbDimStyleTableRecord
  2
Standard
 70
0
  3
<>
  4
[]
 40
1.0
 41
0.18
 42
0.625
 43
3.75
 44
1.25
 45
0.0
 46
0.0
 47
0.0
 48
0.0
 49
1.0
 50
0.7853981633974483
 70
0
 90
0
140
0.18
141
0.09
142
0.0
143
25.3999999999999986
144
1.0
145
0.0
146
1.0
147
0.625
148
0.0
 71
0
 72
0
 73
0
 74
0
 75
0
 76
0
 77
1
 78
8
 79
0
170
0
171
3
172
0
173
1
174
0
175
0
176
0
177
0
178
0
179
0
271
2
272
2
273
2
274
3
275
0
276
0
277
2
278
46
279
0
280
0
281
0
282
0
283
0
284
8
285
0
286
0
287
0
288
0
289
3
290
0
340
0
371
-2
372
-2
  0
ENDTAB
  0
TABLE
  2
BLOCK_RECORD
  5
3
330
0
100
AcDbSymbolTable
 70
2
  0
BLOCK_RECORD
  5
F
330
3
100
AcDbSymbolTableRecord
100
AcDbBlockTableRecord
  2
*Model_Space
 70
0
 70
0
280
0
281
1
  0
BLOCK_RECORD
  5
12
330
3
100
AcDbSymbolTableRecord
100
AcDbBlockTableRecord
  2
*Paper_Space
 70
0
 70
0
280
0
281
1
  0
ENDTAB
  0
ENDSEC
  0
SECTION
  2
BLOCKS
  0
BLOCK
  5
10
330
F
100
AcDbEntity
  8
0
  6
ByLayer
 62
256
 48
1.0
 60
0
370
-1
100
AcDbBlockBegin
  2
*Model_Space
 70
0
 10
0.0
 20
0.0
 30
0.0
  3
*Model_Space
  0
ENDBLK
  5
11
330
F
100
AcDbEntity
  8
0
100
AcDbBlockEnd
  0
BLOCK
  5
13
330
12
100
AcDbEntity
  8
0
  6
ByLayer
 62
256
 48
1.0
 60
0
370
-1
100
AcDbBlockBegin
  2
*Paper_Space
 70
0
 10
0.0
 20
0.0
 30
0.0
  3
*Paper_Space
  0
ENDBLK
  5
14
330
12
100
AcDbEntity
  8
0
100
AcDbBlockEnd
  0
ENDSEC
  0
SECTION
  2
ENTITIES
  0
HATCH
  5
19
330
F
100
AcDbEntity
  8
0
  6
ByLayer
420
16242628
 48
1.0
 60
0
370
-1
100
AcDbHatch
 30
0.0
210
0.0
220
0.0
230
1.0
  2
SOLID
 70
1
 71
0
 91
1
 92
2
 72
0
 73
1
 93
41
 10
89.5
 20
933.0
 10
230.9499969482421875
 20
933.0
 10
230.9499969482421875
 20
933.0
 10
233.7788066174760502
 20
932.7213865658468421
 10
236.4989067175359878
 20
931.8962532214136445
 10
239.0057653270264098
 20
930.5563093783869135
 10
241.2030452754471241
 20
928.7530483272049651
 10
243.006306326629101
 20
926.5557683787842507
 10
244.346250169655832
 20
924.0489097692938003
 10
245.1713835140890296
 20
921.3288096692338058
 10
245.4499969482421875
 20
918.5
 10
245.4499969482421875
 20
918.5
 10
245.4499969482421875
 20
918.5
 10
245.1713835140890296
 20
915.6711903307661942
 10
244.346250169655832
 20
912.9510902307061997
 10
243.006306326629101
 20
910.4442316212157493
 10
241.2030452754471241
 20
908.2469516727950349
 10
239.0057653270264098
 20
906.4436906216130865
 10
236.4989067175359878
 20
905.1037467785863555
 10
233.7788066174760502
 20
904.2786134341531579
 10
230.9499969482421875
 20
904.0
 10
89.5
 20
904.0
 10
89.5
 20
904.0
 10
86.6711903307661373
 20
904.2786134341531579
 10
83.9510902307061997
 20
905.1037467785863555
 10
81.4442316212157777
 20
906.4436906216130865
 10
79.2469516727950634
 20
908.2469516727950349
 10
77.4436906216130865
 20
910.4442316212157493
 10
76.1037467785863413
 20
912.9510902307061997
 10
75.2786134341531579
 20
915.6711903307661942
 10
75.0
 20
918.5
 10
75.0
 20
918.5
 10
75.0
 20
918.5
 10
75.2786134341531579
 20
921.3288096692338058
 10
76.1037467785863413
 20
924.0489097692938003
 10
77.4436906216130865
 20
926.5557683787842507
 10
79.2469516727950634
 20
928.7530483272049651
 10
81.4442316212157635
 20
930.5563093783869135
 10
83.9510902307061855
 20
931.8962532214136445
 10
86.6711903307661373
 20
932.7213865658468421
 10
89.5
 20
933.0
 97
0
 75
0
 76
1
 47
0.0
 98
0
  0
LWPOLYLINE
  5
1A
330
F
100
AcDbEntity
  8
0
  6
ByLayer
420
16242628
 48
1.0
 60
0
370
-1
100
AcDbPolyline
 90
41
 70
1
 43
0.0
 38
0.0
 39
0.0
210
0.0
220
0.0
230
1.0
 10
89.5
 20
933.0
 40
0.0
 41
0.0
 42
0.0
 10
230.9499969482421875
 20
933.0
 40
0.0
 41
0.0
 42
0.0
 10
230.9499969482421875
 20
933.0
 40
0.0
 41
0.0
 42
0.0
 10
233.7788066174760502
 20
932.7213865658468421
 40
0.0
 41
0.0
 42
0.0
 10
236.4989067175359878
 20
931.8962532214136445
 40
0.0
 41
0.0
 42
0.0
 10
239.0057653270264098
 20
930.5563093783869135
 40
0.0
 41
0.0
 42
0.0
 10
241.2030452754471241
 20
928.7530483272049651
 40
0.0
 41
0.0
 42
0.0
 10
243.006306326629101
 20
926.5557683787842507
 40
0.0
 41
0.0
 42
0.0
 10
244.346250169655832
 20
924.0489097692938003
 40
0.0
 41
0.0
 42
0.0
 10
245.1713835140890296
 20
921.3288096692338058
 40
0.0
 41
0.0
 42
0.0
 10
245.4499969482421875
 20
918.5
 40
0.0
 41
0.0
 42
0.0
 10
245.4499969482421875
 20
918.5
 40
0.0
 41
0.0
 42
0.0
 10
245.4499969482421875
 20
918.5
 40
0.0
 41
0.0
 42
0.0
 10
245.1713835140890296
 20
915.6711903307661942
 40
0.0
 41
0.0
 42
0.0
 10
244.346250169655832
 20
912.9510902307061997
 40
0.0
 41
0.0
 42
0.0
 10
243.006306326629101
 20
910.4442316212157493
 40
0.0
 41
0.0
 42
0.0
 10
241.2030452754471241
 20
908.2469516727950349
 40
0.0
 41
0.0
 42
0.0
 10
239.0057653270264098
 20
906.4436906216130865
 40
0.0
 41
0.0
 42
0.0
 10
236.4989067175359878
 20
905.1037467785863555
 40
0.0
 41
0.0
 42
0.0
 10
233.7788066174760502
 20
904.2786134341531579
 40
0.0
 41
0.0
 42
0.0
 10
230.9499969482421875
 20
904.0
 40
0.0
 41
0.0
 42
0.0
 10
89.5
 20
904.0
 40
0.0
 41
0.0
 42
0.0
 10
89.5
 20
904.0
 40
0.0
 41
0.0
 42
0.0
 10
86.6711903307661373
 20
904.2786134341531579
 40
0.0
 41
0.0
 42
0.0
 10
83.9510902307061997
 20
905.1037467785863555
 40
0.0
 41
0.0
 42
0.0
 10
81.4442316212157777
 20
906.4436906216130865
 40
0.0
 41
0.0
 42
0.0
 10
79.2469516727950634
 20
908.2469516727950349
 40
0.0
 41
0.0
 42
0.0
 10
77.4436906216130865
 20
910.4442316212157493
 40
0.0
 41
0.0
 42
0.0
 10
76.1037467785863413
 20
912.9510902307061997
 40
0.0
 41
0.0
 42
0.0
 10
75.2786134341531579
 20
915.6711903307661942
 40
0.0
 41
0.0
 42
0.0
 10
75.0
 20
918.5
 40
0.0
 41
0.0
 42
0.0
 10
75.0
 20
918.5
 40
0.0
 41
0.0
 42
0.0
 10
75.0
 20
918.5
 40
0.0
 41
0.0
 42
0.0
 10
75.2786134341531579
 20
921.3288096692338058
 40
0.0
 41
0.0
 42
0.0
 10
76.1037467785863413
 20
924.0489097692938003
 40
0.0
 41
0.0
 42
0.0
 10
77.4436906216130865
 20
926.5557683787842507
 40
0.0
 41
0.0
 42
0.0
 10
79.2469516727950634
 20
928.7530483272049651
 40
0.0
 41
0.0
 42
0.0
 10
81.4442316212157635
 20
930.5563093783869135
 40
0.0
 41
0.0
 42
0.0
 10
83.9510902307061855
 20
931.8962532214136445
 40
0.0
 41
0.0
 42
0.0
 10
86.6711903307661373
 20
932.7213865658468421
 40
0.0
 41
0.0
 42
0.0
 10
89.5
 20
933.0
 40
0.0
 41
0.0
 42
0.0
  0
TEXT
  5
1B
330
F
100
AcDbEntity
  8
0
  6
ByLayer
420
12082232
 48
1.0
 60
0
370
-1
100
AcDbText
 39
0.0
 10
87.0
 20
915.25
 30
0.0
 40
13.0
  1
IFRAME WALKING
 50
0.0
 41
1.0
 51
0.0
  7
Standard
 71
0
 72
0
 11
0.0
 21
0.0
 31
0.0
210
0.0
220
0.0
230
1.0
100
AcDbText
 73
0
  0
TEXT
  5
1C
330
F
100
AcDbEntity
  8
0
  6
ByLayer
420
1450302
 48
1.0
 60
0
370
-1
100
AcDbText
 39
0.0
 10
75.0
 20
853.0
 30
0.0
 40
52.0
  1
Embedded documents can now join the
 50
0.0
 41
1.0
 51
0.0
  7
Standard
 71
0
 72
0
 11
0.0
 21
0.0
 31
0.0
210
0.0
220
0.0
230
1.0
100
AcDbText
 73
0
  0
TEXT
  5
1D
330
F
100
AcDbEntity
  8
0
  6
ByLayer
420
1450302
 48
1.0
 60
0
370
-1
100
AcDbText
 39
0.0
 10
75.0
 20
801.0
 30
0.0
 40
52.0
  1
export.
 50
0.0
 41
1.0
 51
0.0
  7
Standard
 71
0
 72
0
 11
0.0
 21
0.0
 31
0.0
210
0.0
220
0.0
230
1.0
100
AcDbText
 73
0
  0
TEXT
  5
1E
330
F
100
AcDbEntity
  8
0
  6
ByLayer
420
1450302
 48
1.0
 60
0
370
-1
100
AcDbText
 39
0.0
 10
75.0
 20
755.0
 30
0.0
 40
21.0
  1
This demo mixes a same-origin iframe that loads another demo file with a rotated
 50
0.0
 41
1.0
 51
0.0
  7
Standard
 71
0
 72
0
 11
0.0
 21
0.0
 31
0.0
210
0.0
220
0.0
230
1.0
100
AcDbText
 73
0
  0
TEXT
  5
1F
330
F
100
AcDbEntity
  8
0
  6
ByLayer
420
1450302
 48
1.0
 60
0
370
-1
100
AcDbText
 39
0.0
 10
75.0
 20
723.5
 30
0.0
 40
21.0
  1
iframe rendered from srcdoc content. Enable
 50
0.0
 41
1.0
 51
0.0
  7
Standard
 71
0
 72
0
 11
0.0
 21
0.0
 31
0.0
210
0.0
220
0.0
230
1.0
100
AcDbText
 73
0
  0
TEXT
  5
20
330
F
100
AcDbEntity
  8
0
  6
ByLayer
420
1450302
 48
1.0
 60
0
370
-1
100
AcDbText
 39
0.0
 10
632.66668701171875
 20
723.5
 30
0.0
 40
21.0
  1
to traverse those
 50
0.0
 41
1.0
 51
0.0
  7
Standard
 71
0
 72
0
 11
0.0
 21
0.0
 31
0.0
210
0.0
220
0.0
230
1.0
100
AcDbText
 73
0
  0
TEXT
  5
21
330
F
100
AcDbEntity
  8
0
  6
ByLayer
420
1450302
 48
1.0
 60
0
370
-1
100
AcDbText
 39
0.0
 10
75.0
 20
692.0
 30
0.0
 40
21.0
  1
nested documents and keep them in the same paint-order pipeline.
 50
0.0
 41
1.0
 51
0.0
  7
Standard
 71
0
 72
0
 11
0.0
 21
0.0
 31
0.0
210
0.0
220
0.0
230
1.0
100
AcDbText
 73
0
  0
TEXT
  5
22
330
F
100
AcDbEntity
  8
0
  6
ByLayer
420
1450302
 48
1.0
 60
0
370
-1
100
AcDbText
 39
0.0
 10
496.366668701171875
 20
723.5
 30
0.0
 40
21.0
  1
walkIframes
 50
0.0
 41
1.0
 51
0.0
  7
Standard
 71
0
 72
0
 11
0.0
 21
0.0
 31
0.0
210
0.0
220
0.0
230
1.0
100
AcDbText
 73
0
  0
TEXT
  5
23
330
F
100
AcDbEntity
  8
0
  6
ByLayer
420
1450302
 48
1.0
 60
0
370
-1
100
AcDbText
 39
0.0
 10
67.0
 20
575.5
 30
0.0
 40
30.0
  1
Embedded existing demo
 50
0.0
 41
1.0
 51
0.0
  7
Standard
 71
0
 72
0
 11
0.0
 21
0.0
 31
0.0
210
0.0
220
0.0
230
1.0
100
AcDbText
 73
0
  0
TEXT
  5
24
330
F
100
AcDbEntity
  8
0
  6
ByLayer
420
1450302
 48
1.0
 60
0
370
-1
100
AcDbText
 39
0.0
 10
67.0
 20
539.083343505859375
 30
0.0
 40
17.0
  1
The left frame points at
 50
0.0
 41
1.0
 51
0.0
  7
Standard
 71
0
 72
0
 11
0.0
 21
0.0
 31
0.0
210
0.0
220
0.0
230
1.0
100
AcDbText
 73
0
  0
TEXT
  5
25
330
F
100
AcDbEntity
  8
0
  6
ByLayer
420
1450302
 48
1.0
 60
0
370
-1
100
AcDbText
 39
0.0
 10
326.649993896484375
 20
539.083343505859375
 30
0.0
 40
17.0
  1
, so this page exercises same-origin iframe
 50
0.0
 41
1.0
 51
0.0
  7
Standard
 71
0
 72
0
 11
0.0
 21
0.0
 31
0.0
210
0.0
220
0.0
230
1.0
100
AcDbText
 73
0
  0
TEXT
  5
26
330
F
100
AcDbEntity
  8
0
  6
ByLayer
420
1450302
 48
1.0
 60
0
370
-1
100
AcDbText
 39
0.0
 10
67.0
 20
512.73333740234375
 30
0.0
 40
17.0
  1
walking across a nested file load instead of only inline markup.
 50
0.0
 41
1.0
 51
0.0
  7
Standard
 71
0
 72
0
 11
0.0
 21
0.0
 31
0.0
210
0.0
220
0.0
230
1.0
100
AcDbText
 73
0
  0
TEXT
  5
27
330
F
100
AcDbEntity
  8
0
  6
ByLayer
420
1450302
 48
1.0
 60
0
370
-1
100
AcDbText
 39
0.0
 10
246.4333343505859375
 20
539.083343505859375
 30
0.0
 40
17.0
  1
text.html
 50
0.0
 41
1.0
 51
0.0
  7
Standard
 71
0
 72
0
 11
0.0
 21
0.0
 31
0.0
210
0.0
220
0.0
230
1.0
100
AcDbText
 73
0
  0
HATCH
  5
28
330
F
100
AcDbEntity
  8
0
  6
ByLayer
420
16777215
 48
1.0
 60
0
370
-1
100
AcDbHatch
 30
0.0
210
0.0
220
0.0
230
1.0
  2
SOLID
 70
1
 71
0
 91
1
 92
2
 72
0
 73
1
 93
41
 10
91.0
 20
487.79998779296875
 10
626.1500244140625
 20
487.79998779296875
 10
626.1500244140625
 20
487.79998779296875
 10
630.8321921424495713
 20
487.3388345226462661
 10
635.3344267908246366
 20
485.9730965732396726
 10
639.4837100065329878
 20
483.7552584882298561
 10
643.120587162539664
 20
480.770550541445914
 10
646.1052951093236061
 20
477.1336733854392378
 10
648.3231331943334226
 20
472.9843901697308866
 10
649.6888711437400161
 20
468.4821555213558213
 10
650.1500244140625
 20
463.79998779296875
 10
650.1500244140625
 20
91.79998779296875
 10
650.1500244140625
 20
91.79998779296875
 10
649.6888711437400161
 20
87.1178200645816787
 10
648.3231331943334226
 20
82.6155854162066134
 10
646.1052951093236061
 20
78.4663022004982622
 10
643.120587162539664
 20
74.829425044491586
 10
639.4837100065329878
 20
71.8447170977076439
 10
635.3344267908246366
 20
69.6268790126978274
 10
630.8321921424495713
 20
68.2611410632912339
 10
626.1500244140625
 20
67.79998779296875
 10
91.0
 20
67.79998779296875
 10
91.0
 20
67.79998779296875
 10
86.3178322716129287
 20
68.2611410632912339
 10
81.8155976232378492
 20
69.6268790126978274
 10
77.6663144075295548
 20
71.8447170977076439
 10
74.0294372515228645
 20
74.829425044491586
 10
71.0447293047389081
 20
78.4663022004982622
 10
68.8268912197291201
 20
82.6155854162066134
 10
67.4611532703224697
 20
87.1178200645816787
 10
67.0
 20
91.79998779296875
 10
67.0
 20
463.79998779296875
 10
67.0
 20
463.79998779296875
 10
67.4611532703224697
 20
468.4821555213558213
 10
68.8268912197291201
 20
472.9843901697308866
 10
71.0447293047389081
 20
477.1336733854392378
 10
74.0294372515228645
 20
480.770550541445914
 10
77.6663144075295406
 20
483.7552584882298561
 10
81.815597623237835
 20
485.9730965732396726
 10
86.3178322716129145
 20
487.3388345226462661
 10
91.0
 20
487.79998779296875
 97
0
 75
0
 76
1
 47
0.0
 98
0
  0
LWPOLYLINE
  5
29
330
F
100
AcDbEntity
  8
0
  6
ByLayer
420
1189439
 48
1.0
 60
0
370
-1
100
AcDbPolyline
 90
41
 70
1
 43
0.0
 38
0.0
 39
0.0
210
0.0
220
0.0
230
1.0
 10
91.0
 20
487.79998779296875
 40
0.0
 41
0.0
 42
0.0
 10
626.1500244140625
 20
487.79998779296875
 40
0.0
 41
0.0
 42
0.0
 10
626.1500244140625
 20
487.79998779296875
 40
0.0
 41
0.0
 42
0.0
 10
630.8321921424495713
 20
487.3388345226462661
 40
0.0
 41
0.0
 42
0.0
 10
635.3344267908246366
 20
485.9730965732396726
 40
0.0
 41
0.0
 42
0.0
 10
639.4837100065329878
 20
483.7552584882298561
 40
0.0
 41
0.0
 42
0.0
 10
643.120587162539664
 20
480.770550541445914
 40
0.0
 41
0.0
 42
0.0
 10
646.1052951093236061
 20
477.1336733854392378
 40
0.0
 41
0.0
 42
0.0
 10
648.3231331943334226
 20
472.9843901697308866
 40
0.0
 41
0.0
 42
0.0
 10
649.6888711437400161
 20
468.4821555213558213
 40
0.0
 41
0.0
 42
0.0
 10
650.1500244140625
 20
463.79998779296875
 40
0.0
 41
0.0
 42
0.0
 10
650.1500244140625
 20
91.79998779296875
 40
0.0
 41
0.0
 42
0.0
 10
650.1500244140625
 20
91.79998779296875
 40
0.0
 41
0.0
 42
0.0
 10
649.6888711437400161
 20
87.1178200645816787
 40
0.0
 41
0.0
 42
0.0
 10
648.3231331943334226
 20
82.6155854162066134
 40
0.0
 41
0.0
 42
0.0
 10
646.1052951093236061
 20
78.4663022004982622
 40
0.0
 41
0.0
 42
0.0
 10
643.120587162539664
 20
74.829425044491586
 40
0.0
 41
0.0
 42
0.0
 10
639.4837100065329878
 20
71.8447170977076439
 40
0.0
 41
0.0
 42
0.0
 10
635.3344267908246366
 20
69.6268790126978274
 40
0.0
 41
0.0
 42
0.0
 10
630.8321921424495713
 20
68.2611410632912339
 40
0.0
 41
0.0
 42
0.0
 10
626.1500244140625
 20
67.79998779296875
 40
0.0
 41
0.0
 42
0.0
 10
91.0
 20
67.79998779296875
 40
0.0
 41
0.0
 42
0.0
 10
91.0
 20
67.79998779296875
 40
0.0
 41
0.0
 42
0.0
 10
86.3178322716129287
 20
68.2611410632912339
 40
0.0
 41
0.0
 42
0.0
 10
81.8155976232378492
 20
69.6268790126978274
 40
0.0
 41
0.0
 42
0.0
 10
77.6663144075295548
 20
71.8447170977076439
 40
0.0
 41
0.0
 42
0.0
 10
74.0294372515228645
 20
74.829425044491586
 40
0.0
 41
0.0
 42
0.0
 10
71.0447293047389081
 20
78.4663022004982622
 40
0.0
 41
0.0
 42
0.0
 10
68.8268912197291201
 20
82.6155854162066134
 40
0.0
 41
0.0
 42
0.0
 10
67.4611532703224697
 20
87.1178200645816787
 40
0.0
 41
0.0
 42
0.0
 10
67.0
 20
91.79998779296875
 40
0.0
 41
0.0
 42
0.0
 10
67.0
 20
463.79998779296875
 40
0.0
 41
0.0
 42
0.0
 10
67.0
 20
463.79998779296875
 40
0.0
 41
0.0
 42
0.0
 10
67.4611532703224697
 20
468.4821555213558213
 40
0.0
 41
0.0
 42
0.0
 10
68.8268912197291201
 20
472.9843901697308866
 40
0.0
 41
0.0
 42
0.0
 10
71.0447293047389081
 20
477.1336733854392378
 40
0.0
 41
0.0
 42
0.0
 10
74.0294372515228645
 20
480.770550541445914
 40
0.0
 41
0.0
 42
0.0
 10
77.6663144075295406
 20
483.7552584882298561
 40
0.0
 41
0.0
 42
0.0
 10
81.815597623237835
 20
485.9730965732396726
 40
0.0
 41
0.0
 42
0.0
 10
86.3178322716129145
 20
487.3388345226462661
 40
0.0
 41
0.0
 42
0.0
 10
91.0
 20
487.79998779296875
 40
0.0
 41
0.0
 42
0.0
  0
TEXT
  5
2A
330
F
100
AcDbEntity
  8
0
  6
ByLayer
420
0
 48
1.0
 60
0
370
-1
100
AcDbText
 39
0.0
 10
85.0021317856349867
 20
456.79998779296875
 30
0.0
 40
16.0
  1
Alte Not-Halt Mobile Panel Steckplatz
 50
0.0
 41
1.0
 51
0.0
  7
Standard
 71
0
 72
0
 11
0.0
 21
0.0
 31
0.0
210
0.0
220
0.0
230
1.0
100
AcDbText
 73
0
  0
TEXT
  5
2B
330
F
100
AcDbEntity
  8
0
  6
ByLayer
420
0
 48
1.0
 60
0
370
-1
100
AcDbText
 39
0.0
 10
85.0021317856349867
 20
420.79998779296875
 30
0.0
 40
16.0
  1
und Fördererstich AE11/AE12.
 50
0.0
 41
1.0
 51
0.0
  7
Standard
 71
0
 72
0
 11
0.0
 21
0.0
 31
0.0
210
0.0
220
0.0
230
1.0
100
AcDbText
 73
0
  0
TEXT
  5
2C
330
F
100
AcDbEntity
  8
0
  6
ByLayer
420
0
 48
1.0
 60
0
370
-1
100
AcDbText
 39
0.0
 10
85.0021317856349867
 20
384.79998779296875
 30
0.0
 40
16.0
  1
Am Pnoz gebrückt. Im Programm nur noch für
 50
0.0
 41
1.0
 51
0.0
  7
Standard
 71
0
 72
0
 11
0.0
 21
0.0
 31
0.0
210
0.0
220
0.0
230
1.0
100
AcDbText
 73
0
  0
TEXT
  5
2D
330
F
100
AcDbEntity
  8
0
  6
ByLayer
420
0
 48
1.0
 60
0
370
-1
100
AcDbText
 39
0.0
 10
85.0021317856349867
 20
348.79998779296875
 30
0.0
 40
16.0
  1
Diagnose, falls sie mal ausgelöst werden!
 50
0.0
 41
1.0
 51
0.0
  7
Standard
 71
0
 72
0
 11
0.0
 21
0.0
 31
0.0
210
0.0
220
0.0
230
1.0
100
AcDbText
 73
0
  0
LWPOLYLINE
  5
2E
330
F
100
AcDbEntity
  8
0
  6
ByLayer
420
0
 48
1.0
 60
0
370
-1
100
AcDbPolyline
 90
4
 70
1
 43
0.0
 38
0.0
 39
0.0
210
0.0
220
0.0
230
1.0
 10
850.2059837869809371
 20
170.79998779296875
 40
0.0
 41
0.0
 42
0.0
 10
1096.8550046208192725
 20
170.79998779296875
 40
0.0
 41
0.0
 42
0.0
 10
1096.8550046208192725
 20
56.79998779296875
 40
0.0
 41
0.0
 42
0.0
 10
850.2059837869809371
 20
56.79998779296875
 40
0.0
 41
0.0
 42
0.0
  0
TEXT
  5
2F
330
F
100
AcDbEntity
  8
0
  6
ByLayer
420
0
 48
1.0
 60
0
370
-1
100
AcDbText
 39
0.0
 10
851.2062502601853566
 20
158.79998779296875
 30
0.0
 40
12.0
  1
Alte Not-Halt Mobile Panel Steckplatz
 50
0.0
 41
1.0
 51
0.0
  7
Standard
 71
0
 72
0
 11
0.0
 21
0.0
 31
0.0
210
0.0
220
0.0
230
1.0
100
AcDbText
 73
0
  0
TEXT
  5
30
330
F
100
AcDbEntity
  8
0
  6
ByLayer
420
0
 48
1.0
 60
0
370
-1
100
AcDbText
 39
0.0
 10
851.2062502601853566
 20
126.79998779296875
 30
0.0
 40
12.0
  1
und Fördererstich AE11/AE12.
 50
0.0
 41
1.0
 51
0.0
  7
Standard
 71
0
 72
0
 11
0.0
 21
0.0
 31
0.0
210
0.0
220
0.0
230
1.0
100
AcDbText
 73
0
  0
TEXT
  5
31
330
F
100
AcDbEntity
  8
0
  6
ByLayer
420
0
 48
1.0
 60
0
370
-1
100
AcDbText
 39
0.0
 10
851.2062502601853566
 20
94.79998779296875
 30
0.0
 40
12.0
  1
Am Pnoz gebrückt. Im Programm nur noch für
 50
0.0
 41
1.0
 51
0.0
  7
Standard
 71
0
 72
0
 11
0.0
 21
0.0
 31
0.0
210
0.0
220
0.0
230
1.0
100
AcDbText
 73
0
  0
TEXT
  5
32
330
F
100
AcDbEntity
  8
0
  6
ByLayer
420
0
 48
1.0
 60
0
370
-1
100
AcDbText
 39
0.0
 10
851.2062502601853566
 20
62.79998779296875
 30
0.0
 40
12.0
  1
Diagnose, falls sie mal ausgelöst werden!
 50
0.0
 41
1.0
 51
0.0
  7
Standard
 71
0
 72
0
 11
0.0
 21
0.0
 31
0.0
210
0.0
220
0.0
230
1.0
100
AcDbText
 73
0
  0
TEXT
  5
33
330
F
100
AcDbEntity
  8
0
  6
ByLayer
420
1450302
 48
1.0
 60
0
370
-1
100
AcDbText
 39
0.0
 10
728.1500244140625
 20
575.5
 30
0.0
 40
30.0
  1
Transformed iframe
 50
0.0
 41
1.0
 51
0.0
  7
Standard
 71
0
 72
0
 11
0.0
 21
0.0
 31
0.0
210
0.0
220
0.0
230
1.0
100
AcDbText
 73
0
  0
TEXT
  5
34
330
F
100
AcDbEntity
  8
0
  6
ByLayer
420
1450302
 48
1.0
 60
0
370
-1
100
AcDbText
 39
0.0
 10
728.1500244140625
 20
539.083343505859375
 30
0.0
 40
17.0
  1
The right frame is rotated slightly so iframe descendants
 50
0.0
 41
1.0
 51
0.0
  7
Standard
 71
0
 72
0
 11
0.0
 21
0.0
 31
0.0
210
0.0
220
0.0
230
1.0
100
AcDbText
 73
0
  0
TEXT
  5
35
330
F
100
AcDbEntity
  8
0
  6
ByLayer
420
1450302
 48
1.0
 60
0
370
-1
100
AcDbText
 39
0.0
 10
728.1500244140625
 20
512.73333740234375
 30
0.0
 40
17.0
  1
have to inherit the iframe viewport transform instead of
 50
0.0
 41
1.0
 51
0.0
  7
Standard
 71
0
 72
0
 11
0.0
 21
0.0
 31
0.0
210
0.0
220
0.0
230
1.0
100
AcDbText
 73
0
  0
TEXT
  5
36
330
F
100
AcDbEntity
  8
0
  6
ByLayer
420
1450302
 48
1.0
 60
0
370
-1
100
AcDbText
 39
0.0
 10
728.1500244140625
 20
486.3833160400390625
 30
0.0
 40
17.0
  1
using plain viewport-relative coordinates.
 50
0.0
 41
1.0
 51
0.0
  7
Standard
 71
0
 72
0
 11
0.0
 21
0.0
 31
0.0
210
0.0
220
0.0
230
1.0
100
AcDbText
 73
0
  0
HATCH
  5
37
330
F
100
AcDbEntity
  8
0
  6
ByLayer
420
16777215
 48
1.0
 60
0
370
-1
100
AcDbHatch
 30
0.0
210
0.0
220
0.0
230
1.0
  2
SOLID
 70
1
 71
0
 91
1
 92
2
 72
0
 73
1
 93
20
 10
745.1763266083385133
 20
392.4584330720795151
 10
745.3855188051759342
 20
403.0629718826689896
 10
748.9379571602767101
 20
411.0554803708920417
 10
755.8336416736406136
 20
416.4359585367485579
 10
766.0725723452680995
 20
419.2044063802385381
 10
1049.1466659359819005
 20
453.9615482096052119
 10
1059.7512052046938607
 20
453.752357667774163
 10
1067.7437155093114143
 20
450.1999206776677056
 10
1073.1241968498347887
 20
443.3042372392856123
 10
1075.8926492262637566
 20
433.0653073526281105
 10
1095.1237081956112434
 20
276.4415285848718895
 10
1094.9145221261887855
 20
265.8369905941101479
 10
1091.3620881291574278
 20
257.8444828434152214
 10
1084.4664062045171704
 20
252.4640053327875648
 10
1074.2274763522682406
 20
249.6955580622267235
 10
791.1532609524192594
 20
214.9384141057420265
 10
780.5487225030857417
 20
215.1476052205023279
 10
772.5562147871920615
 20
218.7000428658375313
 10
767.175737804738219
 20
225.5957270417477503
 10
764.4072915557239867
 20
235.8346577482329849
 97
0
 75
0
 76
1
 47
0.0
 98
0
  0
LWPOLYLINE
  5
38
330
F
100
AcDbEntity
  8
0
  6
ByLayer
420
1189439
 48
1.0
 60
0
370
-1
100
AcDbPolyline
 90
20
 70
1
 43
0.0
 38
0.0
 39
0.0
210
0.0
220
0.0
230
1.0
 10
745.1763266083385133
 20
392.4584330720795151
 40
0.0
 41
0.0
 42
0.0
 10
745.3855188051759342
 20
403.0629718826689896
 40
0.0
 41
0.0
 42
0.0
 10
748.9379571602767101
 20
411.0554803708920417
 40
0.0
 41
0.0
 42
0.0
 10
755.8336416736406136
 20
416.4359585367485579
 40
0.0
 41
0.0
 42
0.0
 10
766.0725723452680995
 20
419.2044063802385381
 40
0.0
 41
0.0
 42
0.0
 10
1049.1466659359819005
 20
453.9615482096052119
 40
0.0
 41
0.0
 42
0.0
 10
1059.7512052046938607
 20
453.752357667774163
 40
0.0
 41
0.0
 42
0.0
 10
1067.7437155093114143
 20
450.1999206776677056
 40
0.0
 41
0.0
 42
0.0
 10
1073.1241968498347887
 20
443.3042372392856123
 40
0.0
 41
0.0
 42
0.0
 10
1075.8926492262637566
 20
433.0653073526281105
 40
0.0
 41
0.0
 42
0.0
 10
1095.1237081956112434
 20
276.4415285848718895
 40
0.0
 41
0.0
 42
0.0
 10
1094.9145221261887855
 20
265.8369905941101479
 40
0.0
 41
0.0
 42
0.0
 10
1091.3620881291574278
 20
257.8444828434152214
 40
0.0
 41
0.0
 42
0.0
 10
1084.4664062045171704
 20
252.4640053327875648
 40
0.0
 41
0.0
 42
0.0
 10
1074.2274763522682406
 20
249.6955580622267235
 40
0.0
 41
0.0
 42
0.0
 10
791.1532609524192594
 20
214.9384141057420265
 40
0.0
 41
0.0
 42
0.0
 10
780.5487225030857417
 20
215.1476052205023279
 40
0.0
 41
0.0
 42
0.0
 10
772.5562147871920615
 20
218.7000428658375313
 40
0.0
 41
0.0
 42
0.0
 10
767.175737804738219
 20
225.5957270417477503
 40
0.0
 41
0.0
 42
0.0
 10
764.4072915557239867
 20
235.8346577482329849
 40
0.0
 41
0.0
 42
0.0
  0
HATCH
  5
39
330
F
100
AcDbEntity
  8
0
  6
ByLayer
420
16775408
 48
1.0
 60
0
370
-1
100
AcDbHatch
 30
0.0
210
0.0
220
0.0
230
1.0
  2
SOLID
 70
1
 71
0
 91
1
 92
2
 72
0
 73
1
 93
4
 10
753.1727294921875
 20
407.74688720703125
 10
1064.4351806640625
 20
445.96514892578125
 10
1105.1913464194849439
 20
114.0329393085680749
 10
793.9288952476099439
 20
75.8146775898180749
 97
0
 75
0
 76
1
 47
0.0
 98
0
  0
LWPOLYLINE
  5
3A
330
F
100
AcDbEntity
  8
0
  6
ByLayer
420
16775408
 48
1.0
 60
0
370
-1
100
AcDbPolyline
 90
4
 70
1
 43
0.0
 38
0.0
 39
0.0
210
0.0
220
0.0
230
1.0
 10
753.1727294921875
 20
407.74688720703125
 40
0.0
 41
0.0
 42
0.0
 10
1064.4351806640625
 20
445.96514892578125
 40
0.0
 41
0.0
 42
0.0
 10
1105.1913464194849439
 20
114.0329393085680749
 40
0.0
 41
0.0
 42
0.0
 10
793.9288952476099439
 20
75.8146775898180749
 40
0.0
 41
0.0
 42
0.0
  0
HATCH
  5
3B
330
F
100
AcDbEntity
  8
0
  6
ByLayer
420
2372170
 48
1.0
 60
0
370
-1
100
AcDbHatch
 30
0.0
210
0.0
220
0.0
230
1.0
  2
SOLID
 70
1
 71
0
 91
1
 92
2
 72
0
 73
1
 93
20
 10
776.090160329718401
 20
381.9273700914884557
 10
776.1841217781425257
 20
386.6905748978230122
 10
777.7797579865930402
 20
390.2805429994953101
 10
780.8770689550703992
 20
392.6972743965052359
 10
785.4760546835741479
 20
393.9407690888527895
 10
867.0851811684131007
 20
403.9611198985747933
 10
871.8483858798142592
 20
403.8671588012559823
 10
875.4383537969833924
 20
402.271522829266587
 10
877.8550849199206141
 20
399.1742119826066073
 10
879.0985792486258106
 20
394.5752262612761569
 10
879.0985792486258106
 20
394.5752262612761569
 10
879.0046178002016859
 20
389.8120214549416005
 10
877.4089815917510577
 20
386.2220533532694162
 10
874.3116706232738125
 20
383.8053219562596041
 10
869.71268489476995
 20
382.5618272639119368
 10
788.1035584099309972
 20
372.5414764541899331
 10
783.3403536985298388
 20
372.6354375515088577
 10
779.7503857813607056
 20
374.2310735234981394
 10
777.3336546584235975
 20
377.3283843701580054
 10
776.090160329718401
 20
381.9273700914884557
 97
0
 75
0
 76
1
 47
0.0
 98
0
  0
LWPOLYLINE
  5
3C
330
F
100
AcDbEntity
  8
0
  6
ByLayer
420
2372170
 48
1.0
 60
0
370
-1
100
AcDbPolyline
 90
20
 70
1
 43
0.0
 38
0.0
 39
0.0
210
0.0
220
0.0
230
1.0
 10
776.090160329718401
 20
381.9273700914884557
 40
0.0
 41
0.0
 42
0.0
 10
776.1841217781425257
 20
386.6905748978230122
 40
0.0
 41
0.0
 42
0.0
 10
777.7797579865930402
 20
390.2805429994953101
 40
0.0
 41
0.0
 42
0.0
 10
780.8770689550703992
 20
392.6972743965052359
 40
0.0
 41
0.0
 42
0.0
 10
785.4760546835741479
 20
393.9407690888527895
 40
0.0
 41
0.0
 42
0.0
 10
867.0851811684131007
 20
403.9611198985747933
 40
0.0
 41
0.0
 42
0.0
 10
871.8483858798142592
 20
403.8671588012559823
 40
0.0
 41
0.0
 42
0.0
 10
875.4383537969833924
 20
402.271522829266587
 40
0.0
 41
0.0
 42
0.0
 10
877.8550849199206141
 20
399.1742119826066073
 40
0.0
 41
0.0
 42
0.0
 10
879.0985792486258106
 20
394.5752262612761569
 40
0.0
 41
0.0
 42
0.0
 10
879.0985792486258106
 20
394.5752262612761569
 40
0.0
 41
0.0
 42
0.0
 10
879.0046178002016859
 20
389.8120214549416005
 40
0.0
 41
0.0
 42
0.0
 10
877.4089815917510577
 20
386.2220533532694162
 40
0.0
 41
0.0
 42
0.0
 10
874.3116706232738125
 20
383.8053219562596041
 40
0.0
 41
0.0
 42
0.0
 10
869.71268489476995
 20
382.5618272639119368
 40
0.0
 41
0.0
 42
0.0
 10
788.1035584099309972
 20
372.5414764541899331
 40
0.0
 41
0.0
 42
0.0
 10
783.3403536985298388
 20
372.6354375515088577
 40
0.0
 41
0.0
 42
0.0
 10
779.7503857813607056
 20
374.2310735234981394
 40
0.0
 41
0.0
 42
0.0
 10
777.3336546584235975
 20
377.3283843701580054
 40
0.0
 41
0.0
 42
0.0
 10
776.090160329718401
 20
381.9273700914884557
 40
0.0
 41
0.0
 42
0.0
  0
TEXT
  5
3D
330
F
100
AcDbEntity
  8
0
  6
ByLayer
420
16774891
 48
1.0
 60
0
370
-1
100
AcDbText
 39
0.0
 10
786.1522527459169396
 20
380.3921888682530152
 30
0.0
 40
11.0
  1
NESTED VIEW
 50
7.0000069501050532
 41
1.0
 51
0.0
  7
Standard
 71
0
 72
0
 11
0.0
 21
0.0
 31
0.0
210
0.0
220
0.0
230
1.0
100
AcDbText
 73
0
  0
TEXT
  5
3E
330
F
100
AcDbEntity
  8
0
  6
ByLayer
420
2372170
 48
1.0
 60
0
370
-1
100
AcDbText
 39
0.0
 10
781.6010935608211412
 20
337.0444373978136809
 30
0.0
 40
28.0
  1
Viewport Card
 50
7.0000069501050302
 41
1.0
 51
0.0
  7
Standard
 71
0
 72
0
 11
0.0
 21
0.0
 31
0.0
210
0.0
220
0.0
230
1.0
100
AcDbText
 73
0
  0
TEXT
  5
3F
330
F
100
AcDbEntity
  8
0
  6
ByLayer
420
2372170
 48
1.0
 60
0
370
-1
100
AcDbText
 39
0.0
 10
785.1303496172416772
 20
308.3009641245280363
 30
0.0
 40
15.0
  1
This inline frame stays fully inside its
 50
7.0000069501050302
 41
1.0
 51
0.0
  7
Standard
 71
0
 72
0
 11
0.0
 21
0.0
 31
0.0
210
0.0
220
0.0
230
1.0
100
AcDbText
 73
0
  0
TEXT
  5
40
330
F
100
AcDbEntity
  8
0
  6
ByLayer
420
2372170
 48
1.0
 60
0
370
-1
100
AcDbText
 39
0.0
 10
787.7279953467080986
 20
287.1448452698044775
 30
0.0
 40
15.0
  1
viewport so the transform math is visible
 50
7.0000069501050621
 41
1.0
 51
0.0
  7
Standard
 71
0
 72
0
 11
0.0
 21
0.0
 31
0.0
210
0.0
220
0.0
230
1.0
100
AcDbText
 73
0
  0
TEXT
  5
41
330
F
100
AcDbEntity
  8
0
  6
ByLayer
420
2372170
 48
1.0
 60
0
370
-1
100
AcDbText
 39
0.0
 10
790.3256410761746338
 20
265.9887264150810324
 30
0.0
 40
15.0
  1
without depending on overflow clipping.
 50
7.0000069501050417
 41
1.0
 51
0.0
  7
Standard
 71
0
 72
0
 11
0.0
 21
0.0
 31
0.0
210
0.0
220
0.0
230
1.0
100
AcDbText
 73
0
  0
HATCH
  5
42
330
F
100
AcDbEntity
  8
0
  6
ByLayer
420
16777215
 48
1.0
 60
0
370
-1
100
AcDbHatch
 30
0.0
210
0.0
220
0.0
230
1.0
  2
SOLID
 70
1
 71
0
 91
1
 92
2
 72
0
 73
1
 93
20
 10
795.2730095448744123
 20
225.6956586750767428
 10
795.4299025181180696
 20
233.6490627228834001
 10
798.0942304223561905
 20
239.643444235382276
 10
803.2659932575888888
 20
243.678803212572916
 10
810.9451910238161645
 20
245.755139654455661
 10
905.5546815251403814
 20
257.3717360522672379
 10
913.5080854144310933
 20
257.2148436652847749
 10
919.5024666188542142
 20
254.5505161558800182
 10
923.5378251384095165
 20
249.3787535240528541
 10
925.614160973097114
 20
241.6995557698032826
 10
931.0202859841397185
 20
197.6702172115392386
 10
930.8633930108961749
 20
189.7168131637324677
 10
928.199065106658054
 20
183.7224316512338191
 10
923.0273022714253557
 20
179.6870726740430655
 10
915.3481045051979663
 20
177.6107362321603205
 10
820.7386140038737494
 20
165.9941398343487435
 10
812.7852101145830375
 20
166.1510322213312065
 10
806.7908289101599166
 20
168.8153597307359632
 10
802.7554703906046143
 20
173.987122362563241
 10
800.6791345559170168
 20
181.6663201168126989
 97
0
 75
0
 76
1
 47
0.0
 98
0
  0
LWPOLYLINE
  5
43
330
F
100
AcDbEntity
  8
0
  6
ByLayer
420
16777215
 48
1.0
 60
0
370
-1
100
AcDbPolyline
 90
20
 70
1
 43
0.0
 38
0.0
 39
0.0
210
0.0
220
0.0
230
1.0
 10
795.2730095448744123
 20
225.6956586750767428
 40
0.0
 41
0.0
 42
0.0
 10
795.4299025181180696
 20
233.6490627228834001
 40
0.0
 41
0.0
 42
0.0
 10
798.0942304223561905
 20
239.643444235382276
 40
0.0
 41
0.0
 42
0.0
 10
803.2659932575888888
 20
243.678803212572916
 40
0.0
 41
0.0
 42
0.0
 10
810.9451910238161645
 20
245.755139654455661
 40
0.0
 41
0.0
 42
0.0
 10
905.5546815251403814
 20
257.3717360522672379
 40
0.0
 41
0.0
 42
0.0
 10
913.5080854144310933
 20
257.2148436652847749
 40
0.0
 41
0.0
 42
0.0
 10
919.5024666188542142
 20
254.5505161558800182
 40
0.0
 41
0.0
 42
0.0
 10
923.5378251384095165
 20
249.3787535240528541
 40
0.0
 41
0.0
 42
0.0
 10
925.614160973097114
 20
241.6995557698032826
 40
0.0
 41
0.0
 42
0.0
 10
931.0202859841397185
 20
197.6702172115392386
 40
0.0
 41
0.0
 42
0.0
 10
930.8633930108961749
 20
189.7168131637324677
 40
0.0
 41
0.0
 42
0.0
 10
928.199065106658054
 20
183.7224316512338191
 40
0.0
 41
0.0
 42
0.0
 10
923.0273022714253557
 20
179.6870726740430655
 40
0.0
 41
0.0
 42
0.0
 10
915.3481045051979663
 20
177.6107362321603205
 40
0.0
 41
0.0
 42
0.0
 10
820.7386140038737494
 20
165.9941398343487435
 40
0.0
 41
0.0
 42
0.0
 10
812.7852101145830375
 20
166.1510322213312065
 40
0.0
 41
0.0
 42
0.0
 10
806.7908289101599166
 20
168.8153597307359632
 40
0.0
 41
0.0
 42
0.0
 10
802.7554703906046143
 20
173.987122362563241
 40
0.0
 41
0.0
 42
0.0
 10
800.6791345559170168
 20
181.6663201168126989
 40
0.0
 41
0.0
 42
0.0
  0
TEXT
  5
44
330
F
100
AcDbEntity
  8
0
  6
ByLayer
420
2372170
 48
1.0
 60
0
370
-1
100
AcDbText
 39
0.0
 10
811.9991975081594546
 20
210.0927722328588061
 30
0.0
 40
14.6999984361181859
  1
42%
 50
7.0000069501050532
 41
1.0
 51
0.0
  7
Standard
 71
0
 72
0
 11
0.0
 21
0.0
 31
0.0
210
0.0
220
0.0
230
1.0
100
AcDbText
 73
0
  0
TEXT
  5
45
330
F
100
AcDbEntity
  8
0
  6
ByLayer
420
6122112
 48
1.0
 60
0
370
-1
100
AcDbText
 39
0.0
 10
815.0526347424984124
 20
185.224530843229104
 30
0.0
 40
13.0
  1
coverage
 50
7.000006950105119
 41
1.0
 51
0.0
  7
Standard
 71
0
 72
0
 11
0.0
 21
0.0
 31
0.0
210
0.0
220
0.0
230
1.0
100
AcDbText
 73
0
  0
HATCH
  5
46
330
F
100
AcDbEntity
  8
0
  6
ByLayer
420
16777215
 48
1.0
 60
0
370
-1
100
AcDbHatch
 30
0.0
210
0.0
220
0.0
230
1.0
  2
SOLID
 70
1
 71
0
 91
1
 92
2
 72
0
 73
1
 93
20
 10
937.2865028920424493
 20
243.1327405842564531
 10
937.4433958652859928
 20
251.0861446320631103
 10
940.1077237695242275
 20
257.0805261445619863
 10
945.2794866047568121
 20
261.1158851217526262
 10
952.9586843709842015
 20
263.1922215636353712
 10
1047.568174872308191
 20
274.8088179614469482
 10
1055.5215787615989029
 20
274.6519255744644852
 10
1061.5159599660221375
 20
271.9875980650597285
 10
1065.5513184855774398
 20
266.8158354332324507
 10
1067.6276543202650373
 20
259.1366376789829928
 10
1073.0337793313076418
 20
215.1072991207189489
 10
1072.8768863580642119
 20
207.153895072912178
 10
1070.2125584538259773
 20
201.1595135604135294
 10
1065.0407956185931653
 20
197.1241545832227757
 10
1057.3615978523657759
 20
195.0478181413400307
 10
962.7521073510417864
 20
183.4312217435284538
 10
954.7987034617510744
 20
183.5881141305109168
 10
948.8043222573279536
 20
186.2524416399157872
 10
944.7689637377727649
 20
191.4242042717428376
 10
942.6926279030850537
 20
199.1034020259924091
 97
0
 75
0
 76
1
 47
0.0
 98
0
  0
LWPOLYLINE
  5
47
330
F
100
AcDbEntity
  8
0
  6
ByLayer
420
16777215
 48
1.0
 60
0
370
-1
100
AcDbPolyline
 90
20
 70
1
 43
0.0
 38
0.0
 39
0.0
210
0.0
220
0.0
230
1.0
 10
937.2865028920424493
 20
243.1327405842564531
 40
0.0
 41
0.0
 42
0.0
 10
937.4433958652859928
 20
251.0861446320631103
 40
0.0
 41
0.0
 42
0.0
 10
940.1077237695242275
 20
257.0805261445619863
 40
0.0
 41
0.0
 42
0.0
 10
945.2794866047568121
 20
261.1158851217526262
 40
0.0
 41
0.0
 42
0.0
 10
952.9586843709842015
 20
263.1922215636353712
 40
0.0
 41
0.0
 42
0.0
 10
1047.568174872308191
 20
274.8088179614469482
 40
0.0
 41
0.0
 42
0.0
 10
1055.5215787615989029
 20
274.6519255744644852
 40
0.0
 41
0.0
 42
0.0
 10
1061.5159599660221375
 20
271.9875980650597285
 40
0.0
 41
0.0
 42
0.0
 10
1065.5513184855774398
 20
266.8158354332324507
 40
0.0
 41
0.0
 42
0.0
 10
1067.6276543202650373
 20
259.1366376789829928
 40
0.0
 41
0.0
 42
0.0
 10
1073.0337793313076418
 20
215.1072991207189489
 40
0.0
 41
0.0
 42
0.0
 10
1072.8768863580642119
 20
207.153895072912178
 40
0.0
 41
0.0
 42
0.0
 10
1070.2125584538259773
 20
201.1595135604135294
 40
0.0
 41
0.0
 42
0.0
 10
1065.0407956185931653
 20
197.1241545832227757
 40
0.0
 41
0.0
 42
0.0
 10
1057.3615978523657759
 20
195.0478181413400307
 40
0.0
 41
0.0
 42
0.0
 10
962.7521073510417864
 20
183.4312217435284538
 40
0.0
 41
0.0
 42
0.0
 10
954.7987034617510744
 20
183.5881141305109168
 40
0.0
 41
0.0
 42
0.0
 10
948.8043222573279536
 20
186.2524416399157872
 40
0.0
 41
0.0
 42
0.0
 10
944.7689637377727649
 20
191.4242042717428376
 40
0.0
 41
0.0
 42
0.0
 10
942.6926279030850537
 20
199.1034020259924091
 40
0.0
 41
0.0
 42
0.0
  0
TEXT
  5
48
330
F
100
AcDbEntity
  8
0
  6
ByLayer
420
2372170
 48
1.0
 60
0
370
-1
100
AcDbText
 39
0.0
 10
954.0126908553273779
 20
227.5298541420385163
 30
0.0
 40
14.6999984361181717
  1
2x
 50
7.000006950105
 41
1.0
 51
0.0
  7
Standard
 71
0
 72
0
 11
0.0
 21
0.0
 31
0.0
210
0.0
220
0.0
230
1.0
100
AcDbText
 73
0
  0
TEXT
  5
49
330
F
100
AcDbEntity
  8
0
  6
ByLayer
420
6122112
 48
1.0
 60
0
370
-1
100
AcDbText
 39
0.0
 10
957.0661280896664493
 20
202.6616127524088142
 30
0.0
 40
13.0
  1
layers
 50
7.0000069501050532
 41
1.0
 51
0.0
  7
Standard
 71
0
 72
0
 11
0.0
 21
0.0
 31
0.0
210
0.0
220
0.0
230
1.0
100
AcDbText
 73
0
  0
HATCH
  5
4A
330
F
100
AcDbEntity
  8
0
  6
ByLayer
420
14412020
 48
1.0
 60
0
370
-1
100
AcDbHatch
 30
0.0
210
0.0
220
0.0
230
1.0
  2
SOLID
 70
1
 71
0
 91
1
 92
2
 72
0
 73
1
 93
20
 10
806.4947415747391233
 20
134.3020194706908796
 10
806.6342019953999625
 20
141.3717119576301684
 10
809.0024934658340499
 20
146.7000510798511641
 10
813.599615986040817
 20
150.2870368373540941
 10
820.4255695560207187
 20
152.1326692301387311
 10
1061.0187379519459228
 20
181.6738253923427919
 10
1068.0884302979820859
 20
181.5343654928028627
 10
1073.4167691463583196
 20
179.1660743733319805
 10
1077.0037544970741692
 20
174.5689520339300316
 10
1078.849386350129862
 20
167.7429984745971296
 10
1081.6377572366814093
 20
145.033548445376141
 10
1081.4982968160204564
 20
137.9638559584368522
 10
1079.1300053455865964
 20
132.6355168362157428
 10
1074.5328828253798292
 20
129.0485310787130402
 10
1067.7069292553999276
 20
127.2028986859282895
 10
827.1137608594747235
 20
97.6617425237242287
 10
820.0440685134384466
 20
97.8012024232641579
 10
814.7157296650624403
 20
100.1694935427351538
 10
811.128744314346477
 20
104.7666158821371027
 10
809.283112461290898
 20
111.592569441469891
 97
0
 75
0
 76
1
 47
0.0
 98
0
  0
LWPOLYLINE
  5
4B
330
F
100
AcDbEntity
  8
0
  6
ByLayer
420
14412020
 48
1.0
 60
0
370
-1
100
AcDbPolyline
 90
20
 70
1
 43
0.0
 38
0.0
 39
0.0
210
0.0
220
0.0
230
1.0
 10
806.4947415747391233
 20
134.3020194706908796
 40
0.0
 41
0.0
 42
0.0
 10
806.6342019953999625
 20
141.3717119576301684
 40
0.0
 41
0.0
 42
0.0
 10
809.0024934658340499
 20
146.7000510798511641
 40
0.0
 41
0.0
 42
0.0
 10
813.599615986040817
 20
150.2870368373540941
 40
0.0
 41
0.0
 42
0.0
 10
820.4255695560207187
 20
152.1326692301387311
 40
0.0
 41
0.0
 42
0.0
 10
1061.0187379519459228
 20
181.6738253923427919
 40
0.0
 41
0.0
 42
0.0
 10
1068.0884302979820859
 20
181.5343654928028627
 40
0.0
 41
0.0
 42
0.0
 10
1073.4167691463583196
 20
179.1660743733319805
 40
0.0
 41
0.0
 42
0.0
 10
1077.0037544970741692
 20
174.5689520339300316
 40
0.0
 41
0.0
 42
0.0
 10
1078.849386350129862
 20
167.7429984745971296
 40
0.0
 41
0.0
 42
0.0
 10
1081.6377572366814093
 20
145.033548445376141
 40
0.0
 41
0.0
 42
0.0
 10
1081.4982968160204564
 20
137.9638559584368522
 40
0.0
 41
0.0
 42
0.0
 10
1079.1300053455865964
 20
132.6355168362157428
 40
0.0
 41
0.0
 42
0.0
 10
1074.5328828253798292
 20
129.0485310787130402
 40
0.0
 41
0.0
 42
0.0
 10
1067.7069292553999276
 20
127.2028986859282895
 40
0.0
 41
0.0
 42
0.0
 10
827.1137608594747235
 20
97.6617425237242287
 40
0.0
 41
0.0
 42
0.0
 10
820.0440685134384466
 20
97.8012024232641579
 40
0.0
 41
0.0
 42
0.0
 10
814.7157296650624403
 20
100.1694935427351538
 40
0.0
 41
0.0
 42
0.0
 10
811.128744314346477
 20
104.7666158821371027
 40
0.0
 41
0.0
 42
0.0
 10
809.283112461290898
 20
111.592569441469891
 40
0.0
 41
0.0
 42
0.0
  0
TEXT
  5
4C
330
F
100
AcDbEntity
  8
0
  6
ByLayer
420
2372170
 48
1.0
 60
0
370
-1
100
AcDbText
 39
0.0
 10
820.9777462143898674
 20
128.9269928527668299
 30
0.0
 40
14.0
  1
Affine mapping keeps the card aligned
 50
7.0000069501050399
 41
1.0
 51
0.0
  7
Standard
 71
0
 72
0
 11
0.0
 21
0.0
 31
0.0
210
0.0
220
0.0
230
1.0
100
AcDbText
 73
0
  0
TEXT
  5
4D
330
F
100
AcDbEntity
  8
0
  6
ByLayer
420
2372170
 48
1.0
 60
0
370
-1
100
AcDbText
 39
0.0
 10
822.8886580153766772
 20
113.3638709366483681
 30
0.0
 40
14.0
  1
when the iframe itself is rotated.
 50
7.0000069501050612
 41
1.0
 51
0.0
  7
Standard
 71
0
 72
0
 11
0.0
 21
0.0
 31
0.0
210
0.0
220
0.0
230
1.0
100
AcDbText
 73
0
  0
ENDSEC
  0
SECTION
  2
OBJECTS
  0
DICTIONARY
  5
1
330
0
100
AcDbDictionary
280
0
281
0
  3
ACAD_COLOR
350
0
  3
ACAD_GROUP
350
0
  3
ACAD_LAYOUT
350
0
  3
ACAD_MATERIAL
350
0
  3
ACAD_SORTENTS
350
0
  3
ACAD_MLEADERSTYLE
350
0
  3
ACAD_MLINESTYLE
350
0
  3
ACAD_TABLESTYLE
350
0
  3
ACAD_PLOTSETTINGS
350
0
  3
AcDbVariableDictionary
350
0
  3
ACAD_SCALELIST
350
0
  3
ACAD_VISUALSTYLE
350
0
  3
ACAD_FIELDLIST
350
0
  3
ACAD_IMAGE_DICT
350
0
  0
DICTIONARY
  5
0
330
1
100
AcDbDictionary
280
0
281
0
  0
DICTIONARY
  5
0
330
1
100
AcDbDictionary
280
0
281
0
  0
DICTIONARY
  5
0
330
1
100
AcDbDictionary
280
0
281
0
  0
DICTIONARY
  5
0
330
1
100
AcDbDictionary
280
0
281
0
  0
DICTIONARY
  5
0
330
1
100
AcDbDictionary
280
0
281
0
  0
DICTIONARY
  5
0
330
1
100
AcDbDictionary
280
0
281
0
  0
DICTIONARY
  5
0
330
1
100
AcDbDictionary
280
0
281
0
  0
DICTIONARY
  5
0
330
1
100
AcDbDictionary
280
0
281
0
  0
DICTIONARY
  5
0
330
1
100
AcDbDictionary
280
0
281
0
  0
DICTIONARY
  5
0
330
1
100
AcDbDictionary
280
0
281
0
  0
DICTIONARY
  5
0
330
1
100
AcDbDictionary
280
0
281
0
  0
DICTIONARY
  5
0
330
1
100
AcDbDictionary
280
0
281
0
  0
DICTIONARY
  5
0
330
1
100
AcDbDictionary
280
0
281
0
  0
DICTIONARY
  5
0
330
1
100
AcDbDictionary
280
0
281
0
  0
ENDSEC
  0
EOF
