0
SECTION
2
HEADER
9
$ACADVER
1
AC1021
9
$LASTSAVEDBY
1
@tarikjabiri/dxf
9
$HANDSEED
5
52
9
$INSUNITS
70
0
9
$CLAYER
8
0
9
$VIEWCTR
10
539
20
457.625
0
ENDSEC
0
SECTION
2
CLASSES
0
ENDSEC
0
SECTION
2
TABLES
0
TABLE
2
VPORT
5
1
330
0
100
AcDbSymbolTable
70
1
0
VPORT
5
19
330
1
100
AcDbSymbolTableRecord
100
AcDbViewportTableRecord
2
*Active
70
0
10
0
20
0
11
1
21
1
12
539
22
457.625
13
0
23
0
14
10
24
10
15
10
25
10
16
0
26
0
36
1
17
0
27
0
37
0
40
1115.25
41
2
42
50
43
0
44
0
50
0
51
0
71
0
72
100
73
1
74
3
75
0
76
1
77
0
78
0
281
0
65
1
110
0
120
0
130
0
111
1
121
0
131
0
112
0
122
1
132
0
79
0
146
0
348
10020
60
7
61
5
292
1
282
1
141
0
142
0
63
250
421
3358443
0
ENDTAB
0
TABLE
2
LTYPE
5
2
330
0
100
AcDbSymbolTable
70
3
0
LTYPE
5
12
330
2
100
AcDbSymbolTableRecord
100
AcDbLinetypeTableRecord
2
ByBlock
70
0
3

72
65
73
0
40
0
0
LTYPE
5
13
330
2
100
AcDbSymbolTableRecord
100
AcDbLinetypeTableRecord
2
ByLayer
70
0
3

72
65
73
0
40
0
0
LTYPE
5
14
330
2
100
AcDbSymbolTableRecord
100
AcDbLinetypeTableRecord
2
Continuous
70
0
3
Solid line
72
65
73
0
40
0
0
ENDTAB
0
TABLE
2
LAYER
5
3
330
0
100
AcDbSymbolTable
70
1
0
LAYER
5
15
330
3
100
AcDbSymbolTableRecord
100
AcDbLayerTableRecord
2
0
70
0
62
7
6
Continuous
370
0
390
0
0
ENDTAB
0
TABLE
2
STYLE
5
4
330
0
100
AcDbSymbolTable
70
3
0
STYLE
5
16
330
4
100
AcDbSymbolTableRecord
100
AcDbTextStyleTableRecord
2
Standard
70
0
40
0
41
1
50
0
71
0
42
1
3
txt
4

0
STYLE
5
1D
330
4
100
AcDbSymbolTableRecord
100
AcDbTextStyleTableRecord
2
Georgia
70
0
40
0
41
1
50
0
71
0
42
1
3
Georgia.ttf
4

0
STYLE
5
32
330
4
100
AcDbSymbolTableRecord
100
AcDbTextStyleTableRecord
2
Segoe UI
70
0
40
0
41
1
50
0
71
0
42
1
3
Segoe UI.ttf
4

0
ENDTAB
0
TABLE
2
VIEW
5
5
330
0
100
AcDbSymbolTable
70
0
0
ENDTAB
0
TABLE
2
UCS
5
6
330
0
100
AcDbSymbolTable
70
0
0
ENDTAB
0
TABLE
2
APPID
5
7
330
0
100
AcDbSymbolTable
70
1
0
APPID
5
17
330
7
100
AcDbSymbolTableRecord
100
AcDbRegAppTableRecord
2
ACAD
70
0
0
ENDTAB
0
TABLE
2
DIMSTYLE
5
8
330
0
100
AcDbSymbolTable
70
1
100
AcDbDimStyleTable
0
DIMSTYLE
105
18
330
8
100
AcDbSymbolTableRecord
100
AcDbDimStyleTableRecord
2
Standard
70
0
340
16
0
ENDTAB
0
TABLE
2
BLOCK_RECORD
5
9
330
0
100
AcDbSymbolTable
70
2
0
BLOCK_RECORD
5
C
330
9
100
AcDbSymbolTableRecord
100
AcDbBlockTableRecord
2
*Model_Space
70
0
280
1
281
0
0
BLOCK_RECORD
5
F
330
9
100
AcDbSymbolTableRecord
100
AcDbBlockTableRecord
2
*Paper_Space
70
0
280
1
281
0
0
ENDTAB
0
ENDSEC
0
SECTION
2
BLOCKS
0
BLOCK
5
D
330
C
100
AcDbEntity
8
0
100
AcDbBlockBegin
2
*Model_Space
70
0
10
0
20
0
30
0
3
*Model_Space
1

0
ENDBLK
5
E
100
AcDbEntity
8
0
100
AcDbBlockEnd
0
BLOCK
5
10
330
F
100
AcDbEntity
8
0
100
AcDbBlockBegin
2
*Paper_Space
70
0
10
0
20
0
30
0
3
*Paper_Space
1

0
ENDBLK
5
11
100
AcDbEntity
8
0
100
AcDbBlockEnd
0
ENDSEC
0
SECTION
2
ENTITIES
0
LWPOLYLINE
5
1A
330
C
100
AcDbEntity
420
1450302
8
0
100
AcDbPolyline
90
42
70
0
43
0
38
0
39
0
10
72
20
962
10
1148
20
962
10
1148
20
962
10
1153.852709660484
20
961.4235584120969
10
1159.4805029709528
20
959.7163859753387
10
1164.667106990588
20
956.9440883690763
10
1169.2132034355964
20
953.2132034355964
10
1172.9440883690763
20
948.6671069905881
10
1175.7163859753387
20
943.4805029709527
10
1177.423558412097
20
937.8527096604838
10
1178
20
932
10
1178
20
682.5
10
1178
20
682.5
10
1177.423558412097
20
676.6472903395161
10
1175.7163859753387
20
671.0194970290473
10
1172.9440883690763
20
665.8328930094119
10
1169.2132034355964
20
661.2867965644036
10
1164.667106990588
20
657.5559116309237
10
1159.4805029709528
20
654.7836140246613
10
1153.852709660484
20
653.0764415879031
10
1148
20
652.5
10
72
20
652.5
10
72
20
652.5
10
66.14729033951616
20
653.0764415879031
10
60.51949702904731
20
654.7836140246613
10
55.33289300941194
20
657.5559116309237
10
50.78679656440357
20
661.2867965644036
10
47.05591163092364
20
665.8328930094119
10
44.2836140246614
20
671.0194970290473
10
42.57644158790309
20
676.6472903395161
10
42
20
682.5
10
42
20
932
10
42
20
932
10
42.57644158790309
20
937.8527096604838
10
44.28361402466139
20
943.4805029709527
10
47.05591163092363
20
948.6671069905881
10
50.78679656440357
20
953.2132034355964
10
55.33289300941193
20
956.9440883690763
10
60.51949702904729
20
959.7163859753387
10
66.14729033951615
20
961.4235584120969
10
72
20
962
10
72
20
962
0
LWPOLYLINE
5
1B
330
C
100
AcDbEntity
420
16242628
8
0
100
AcDbPolyline
90
42
70
0
43
0
38
0
39
0
10
89.5
20
933
10
230.9499969482422
20
933
10
230.9499969482422
20
933
10
233.77880661747605
20
932.7213865658468
10
236.498906717536
20
931.8962532214136
10
239.0057653270264
20
930.5563093783869
10
241.20304527544712
20
928.753048327205
10
243.0063063266291
20
926.5557683787843
10
244.34625016965583
20
924.0489097692938
10
245.17138351408903
20
921.3288096692338
10
245.4499969482422
20
918.5
10
245.4499969482422
20
918.5
10
245.4499969482422
20
918.5
10
245.17138351408903
20
915.6711903307662
10
244.34625016965583
20
912.9510902307062
10
243.0063063266291
20
910.4442316212157
10
241.20304527544712
20
908.246951672795
10
239.0057653270264
20
906.4436906216131
10
236.498906717536
20
905.1037467785864
10
233.77880661747605
20
904.2786134341532
10
230.9499969482422
20
904
10
89.5
20
904
10
89.5
20
904
10
86.67119033076614
20
904.2786134341532
10
83.9510902307062
20
905.1037467785864
10
81.44423162121578
20
906.4436906216131
10
79.24695167279506
20
908.246951672795
10
77.44369062161309
20
910.4442316212157
10
76.10374677858634
20
912.9510902307062
10
75.27861343415316
20
915.6711903307662
10
75
20
918.5
10
75
20
918.5
10
75
20
918.5
10
75.27861343415316
20
921.3288096692338
10
76.10374677858634
20
924.0489097692938
10
77.44369062161309
20
926.5557683787843
10
79.24695167279506
20
928.753048327205
10
81.44423162121576
20
930.5563093783869
10
83.95109023070619
20
931.8962532214136
10
86.67119033076614
20
932.7213865658468
10
89.5
20
933
10
89.5
20
933
0
TEXT
5
1C
330
C
100
AcDbEntity
420
12082232
8
0
100
AcDbText
10
87
20
915.25
30
0
40
13
1
IFRAME WALKING
7
Georgia
100
AcDbText
0
TEXT
5
1E
330
C
100
AcDbEntity
420
1450302
8
0
100
AcDbText
10
75
20
853
30
0
40
52
1
Embedded documents can now join the
7
Georgia
100
AcDbText
0
TEXT
5
1F
330
C
100
AcDbEntity
420
1450302
8
0
100
AcDbText
10
75
20
801
30
0
40
52
1
export.
7
Georgia
100
AcDbText
0
TEXT
5
20
330
C
100
AcDbEntity
420
1450302
8
0
100
AcDbText
10
75
20
755
30
0
40
21
1
This demo mixes a same-origin iframe that loads another demo file with a rotated
7
Georgia
100
AcDbText
0
TEXT
5
21
330
C
100
AcDbEntity
420
1450302
8
0
100
AcDbText
10
75
20
723.5
30
0
40
21
1
iframe rendered from srcdoc content. Enable
7
Georgia
100
AcDbText
0
TEXT
5
22
330
C
100
AcDbEntity
420
1450302
8
0
100
AcDbText
10
632.6666870117188
20
723.5
30
0
40
21
1
to traverse those
7
Georgia
100
AcDbText
0
TEXT
5
23
330
C
100
AcDbEntity
420
1450302
8
0
100
AcDbText
10
75
20
692
30
0
40
21
1
nested documents and keep them in the same paint-order pipeline.
7
Georgia
100
AcDbText
0
TEXT
5
24
330
C
100
AcDbEntity
420
1450302
8
0
100
AcDbText
10
496.3666687011719
20
723.5
30
0
40
21
1
walkIframes
7
Georgia
100
AcDbText
0
LWPOLYLINE
5
25
330
C
100
AcDbEntity
420
1450302
8
0
100
AcDbPolyline
90
42
70
0
43
0
38
0
39
0
10
70
20
624.5
10
647.1500244140625
20
624.5
10
647.1500244140625
20
624.5
10
652.6125534305141
20
623.9619878512905
10
657.865160520285
20
622.368626910316
10
662.7059909386114
20
619.7811491444713
10
666.9490142872859
20
616.2989898732233
10
670.4311735585337
20
612.0559665245489
10
673.0186513243785
20
607.2151361062225
10
674.612012265353
20
601.9625290164515
10
675.1500244140625
20
596.5
10
675.1500244140625
20
70.79998779296875
10
675.1500244140625
20
70.79998779296875
10
674.612012265353
20
65.33745877651711
10
673.0186513243785
20
60.08485168674622
10
670.4311735585337
20
55.24402126841994
10
666.9490142872859
20
51.00099791974537
10
662.7059909386114
20
47.518838648497535
10
657.865160520285
20
44.93136088265271
10
652.6125534305141
20
43.33799994167828
10
647.1500244140625
20
42.79998779296875
10
70
20
42.79998779296875
10
70
20
42.79998779296875
10
64.53747098354842
20
43.33799994167828
10
59.284863893777484
20
44.93136088265271
10
54.44403347545115
20
47.51883864849742
10
50.20101012677667
20
51.00099791974537
10
46.71885085552873
20
55.24402126841994
10
44.131373089683976
20
60.08485168674622
10
42.53801214870955
20
65.33745877651711
10
42
20
70.79998779296875
10
42
20
596.5
10
42
20
596.5
10
42.53801214870955
20
601.9625290164515
10
44.13137308968397
20
607.2151361062225
10
46.71885085552873
20
612.0559665245489
10
50.201010126776666
20
616.2989898732233
10
54.444033475451135
20
619.7811491444713
10
59.28486389377747
20
622.368626910316
10
64.5374709835484
20
623.9619878512905
10
70
20
624.5
10
70
20
624.5
0
TEXT
5
26
330
C
100
AcDbEntity
420
1450302
8
0
100
AcDbText
10
67
20
575.5
30
0
40
30
1
Embedded existing demo
7
Georgia
100
AcDbText
0
TEXT
5
27
330
C
100
AcDbEntity
420
1450302
8
0
100
AcDbText
10
67
20
539.0833435058594
30
0
40
17
1
The left frame points at
7
Georgia
100
AcDbText
0
TEXT
5
28
330
C
100
AcDbEntity
420
1450302
8
0
100
AcDbText
10
326.6499938964844
20
539.0833435058594
30
0
40
17
1
, so this page exercises same-origin iframe
7
Georgia
100
AcDbText
0
TEXT
5
29
330
C
100
AcDbEntity
420
1450302
8
0
100
AcDbText
10
67
20
512.7333374023438
30
0
40
17
1
walking across a nested file load instead of only inline markup.
7
Georgia
100
AcDbText
0
TEXT
5
2A
330
C
100
AcDbEntity
420
1450302
8
0
100
AcDbText
10
246.43333435058594
20
539.0833435058594
30
0
40
17
1
text.html
7
Georgia
100
AcDbText
0
LWPOLYLINE
5
2B
330
C
100
AcDbEntity
420
1189439
8
0
100
AcDbPolyline
90
42
70
0
43
0
38
0
39
0
10
91
20
487.79998779296875
10
626.1500244140625
20
487.79998779296875
10
626.1500244140625
20
487.79998779296875
10
630.8321921424496
20
487.33883452264627
10
635.3344267908246
20
485.9730965732397
10
639.483710006533
20
483.75525848822986
10
643.1205871625397
20
480.7705505414459
10
646.1052951093236
20
477.13367338543924
10
648.3231331943334
20
472.9843901697309
10
649.68887114374
20
468.4821555213558
10
650.1500244140625
20
463.79998779296875
10
650.1500244140625
20
91.79998779296875
10
650.1500244140625
20
91.79998779296875
10
649.68887114374
20
87.11782006458168
10
648.3231331943334
20
82.61558541620661
10
646.1052951093236
20
78.46630220049826
10
643.1205871625397
20
74.82942504449159
10
639.483710006533
20
71.84471709770764
10
635.3344267908246
20
69.62687901269783
10
630.8321921424496
20
68.26114106329123
10
626.1500244140625
20
67.79998779296875
10
91
20
67.79998779296875
10
91
20
67.79998779296875
10
86.31783227161293
20
68.26114106329123
10
81.81559762323785
20
69.62687901269783
10
77.66631440752955
20
71.84471709770764
10
74.02943725152286
20
74.82942504449159
10
71.04472930473891
20
78.46630220049826
10
68.82689121972912
20
82.61558541620661
10
67.46115327032247
20
87.11782006458168
10
67
20
91.79998779296875
10
67
20
463.79998779296875
10
67
20
463.79998779296875
10
67.46115327032247
20
468.4821555213558
10
68.82689121972912
20
472.9843901697309
10
71.04472930473891
20
477.13367338543924
10
74.02943725152286
20
480.7705505414459
10
77.66631440752954
20
483.75525848822986
10
81.81559762323784
20
485.9730965732397
10
86.31783227161291
20
487.33883452264627
10
91
20
487.79998779296875
10
91
20
487.79998779296875
0
TEXT
5
2C
330
C
100
AcDbEntity
420
0
8
0
100
AcDbText
10
85.00213178563499
20
456.79998779296875
30
0
40
16
1
Alte Not-Halt Mobile Panel Steckplatz
7
STANDARD
100
AcDbText
0
TEXT
5
2D
330
C
100
AcDbEntity
420
0
8
0
100
AcDbText
10
85.00213178563499
20
420.79998779296875
30
0
40
16
1
und Fördererstich AE11/AE12.
7
STANDARD
100
AcDbText
0
TEXT
5
2E
330
C
100
AcDbEntity
420
0
8
0
100
AcDbText
10
85.00213178563499
20
384.79998779296875
30
0
40
16
1
Am Pnoz gebrückt. Im Programm nur noch für
7
STANDARD
100
AcDbText
0
TEXT
5
2F
330
C
100
AcDbEntity
420
0
8
0
100
AcDbText
10
85.00213178563499
20
348.79998779296875
30
0
40
16
1
Diagnose, falls sie mal ausgelöst werden!
7
STANDARD
100
AcDbText
0
LWPOLYLINE
5
30
330
C
100
AcDbEntity
420
0
8
0
100
AcDbPolyline
90
5
70
0
43
0
38
0
39
0
10
850.2059837869809
20
170.79998779296875
10
1096.8550046208193
20
170.79998779296875
10
1096.8550046208193
20
56.79998779296875
10
850.2059837869809
20
56.79998779296875
10
850.2059837869809
20
170.79998779296875
0
TEXT
5
31
330
C
100
AcDbEntity
420
0
8
0
100
AcDbText
10
851.2062502601854
20
158.79998779296875
30
0
40
12
1
Alte Not-Halt Mobile Panel Steckplatz
7
Segoe UI
100
AcDbText
0
TEXT
5
33
330
C
100
AcDbEntity
420
0
8
0
100
AcDbText
10
851.2062502601854
20
126.79998779296875
30
0
40
12
1
und Fördererstich AE11/AE12.
7
Segoe UI
100
AcDbText
0
TEXT
5
34
330
C
100
AcDbEntity
420
0
8
0
100
AcDbText
10
851.2062502601854
20
94.79998779296875
30
0
40
12
1
Am Pnoz gebrückt. Im Programm nur noch für
7
Segoe UI
100
AcDbText
0
TEXT
5
35
330
C
100
AcDbEntity
420
0
8
0
100
AcDbText
10
851.2062502601854
20
62.79998779296875
30
0
40
12
1
Diagnose, falls sie mal ausgelöst werden!
7
Segoe UI
100
AcDbText
0
LWPOLYLINE
5
36
330
C
100
AcDbEntity
420
1450302
8
0
100
AcDbPolyline
90
42
70
0
43
0
38
0
39
0
10
731.1500244140625
20
624.5
10
1150
20
624.5
10
1150
20
624.5
10
1155.4625290164515
20
623.9619878512905
10
1160.7151361062224
20
622.368626910316
10
1165.555966524549
20
619.7811491444713
10
1169.7989898732233
20
616.2989898732233
10
1173.2811491444713
20
612.0559665245489
10
1175.868626910316
20
607.2151361062225
10
1177.4619878512904
20
601.9625290164515
10
1178
20
596.5
10
1178
20
164.45001220703125
10
1178
20
164.45001220703125
10
1177.4619878512904
20
158.9874831905796
10
1175.868626910316
20
153.73487610080872
10
1173.2811491444713
20
148.89404568248244
10
1169.7989898732233
20
144.65102233380787
10
1165.555966524549
20
141.16886306256004
10
1160.7151361062224
20
138.5813852967152
10
1155.4625290164515
20
136.98802435574078
10
1150
20
136.45001220703125
10
731.1500244140625
20
136.45001220703125
10
731.1500244140625
20
136.45001220703125
10
725.6874953976109
20
136.98802435574078
10
720.43488830784
20
138.5813852967152
10
715.5940578895137
20
141.16886306255992
10
711.3510345408391
20
144.65102233380787
10
707.8688752695912
20
148.89404568248244
10
705.2813975037465
20
153.73487610080872
10
703.688036562772
20
158.9874831905796
10
703.1500244140625
20
164.45001220703125
10
703.1500244140625
20
596.5
10
703.1500244140625
20
596.5
10
703.688036562772
20
601.9625290164515
10
705.2813975037465
20
607.2151361062225
10
707.8688752695912
20
612.0559665245489
10
711.3510345408391
20
616.2989898732233
10
715.5940578895137
20
619.7811491444713
10
720.43488830784
20
622.368626910316
10
725.6874953976109
20
623.9619878512905
10
731.1500244140625
20
624.5
10
731.1500244140625
20
624.5
0
TEXT
5
37
330
C
100
AcDbEntity
420
1450302
8
0
100
AcDbText
10
728.1500244140625
20
575.5
30
0
40
30
1
Transformed iframe
7
Georgia
100
AcDbText
0
TEXT
5
38
330
C
100
AcDbEntity
420
1450302
8
0
100
AcDbText
10
728.1500244140625
20
539.0833435058594
30
0
40
17
1
The right frame is rotated slightly so iframe descendants
7
Georgia
100
AcDbText
0
TEXT
5
39
330
C
100
AcDbEntity
420
1450302
8
0
100
AcDbText
10
728.1500244140625
20
512.7333374023438
30
0
40
17
1
have to inherit the iframe viewport transform instead of
7
Georgia
100
AcDbText
0
TEXT
5
3A
330
C
100
AcDbEntity
420
1450302
8
0
100
AcDbText
10
728.1500244140625
20
486.38331604003906
30
0
40
17
1
using plain viewport-relative coordinates.
7
Georgia
100
AcDbText
0
LWPOLYLINE
5
3B
330
C
100
AcDbEntity
420
15266296
8
0
100
AcDbPolyline
90
42
70
0
43
0
38
0
39
0
10
754.1500244140625
20
461.45001220703125
10
1127
20
461.45001220703125
10
1127
20
461.45001220703125
10
1132.0723483724194
20
460.9504294975152
10
1136.9497692414923
20
459.4708800523247
10
1141.4448260585098
20
457.06822212689747
10
1145.3847763108502
20
453.8347885178815
10
1148.618209919866
20
449.8948382655409
10
1151.0208678452934
20
445.3997814485235
10
1152.500417290484
20
440.5223605794506
10
1153
20
435.45001220703125
10
1153
20
187.45001220703125
10
1153
20
187.45001220703125
10
1152.500417290484
20
182.3776638346119
10
1151.0208678452934
20
177.50024296553897
10
1148.618209919866
20
173.0051861485216
10
1145.3847763108502
20
169.06523589618098
10
1141.4448260585098
20
165.83180228716503
10
1136.9497692414923
20
163.42914436173783
10
1132.0723483724194
20
161.9495949165473
10
1127
20
161.45001220703125
10
754.1500244140625
20
161.45001220703125
10
754.1500244140625
20
161.45001220703125
10
749.0776760416431
20
161.9495949165473
10
744.2002551725702
20
163.42914436173783
10
739.7051983555529
20
165.83180228716503
10
735.7652481032122
20
169.06523589618098
10
732.5318144941963
20
173.0051861485216
10
730.1291565687691
20
177.50024296553886
10
728.6496071235786
20
182.3776638346119
10
728.1500244140625
20
187.45001220703125
10
728.1500244140625
20
435.45001220703125
10
728.1500244140625
20
435.45001220703125
10
728.6496071235786
20
440.5223605794506
10
730.1291565687691
20
445.3997814485235
10
732.5318144941963
20
449.8948382655409
10
735.7652481032122
20
453.8347885178815
10
739.7051983555529
20
457.06822212689747
10
744.2002551725701
20
459.4708800523247
10
749.0776760416431
20
460.9504294975152
10
754.1500244140625
20
461.45001220703125
10
754.1500244140625
20
461.45001220703125
0
HATCH
5
3C
330
C
100
AcDbEntity
420
16777215
8
0
100
AcDbHatch
10
0
20
0
30
0
210
0
220
0
230
1
2
SOLID
70
1
71
0
91
1
92
7
72
0
73
1
93
20
10
745.1763266083385
20
392.4584330720795
10
745.3855188051759
20
403.062971882669
10
748.9379571602767
20
411.05548037089204
10
755.8336416736406
20
416.43595853674856
10
766.0725723452681
20
419.20440638023854
10
1049.146665935982
20
453.9615482096052
10
1059.7512052046939
20
453.75235766777416
10
1067.7437155093114
20
450.1999206776677
10
1073.1241968498348
20
443.3042372392856
10
1075.8926492262638
20
433.0653073526281
10
1095.1237081956112
20
276.4415285848719
10
1094.9145221261888
20
265.83699059411015
10
1091.3620881291574
20
257.8444828434152
10
1084.4664062045172
20
252.46400533278756
10
1074.2274763522682
20
249.69555806222672
10
791.1532609524193
20
214.93841410574203
10
780.5487225030857
20
215.14760522050233
10
772.5562147871921
20
218.70004286583753
10
767.1757378047382
20
225.59572704174775
10
764.407291555724
20
235.83465774823298
97
0
75
1
76
1
47
1
98
0
0
LWPOLYLINE
5
3D
330
C
100
AcDbEntity
420
1189439
8
0
100
AcDbPolyline
90
21
70
0
43
0
38
0
39
0
10
745.1763266083385
20
392.4584330720795
10
745.3855188051759
20
403.062971882669
10
748.9379571602767
20
411.05548037089204
10
755.8336416736406
20
416.43595853674856
10
766.0725723452681
20
419.20440638023854
10
1049.146665935982
20
453.9615482096052
10
1059.7512052046939
20
453.75235766777416
10
1067.7437155093114
20
450.1999206776677
10
1073.1241968498348
20
443.3042372392856
10
1075.8926492262638
20
433.0653073526281
10
1095.1237081956112
20
276.4415285848719
10
1094.9145221261888
20
265.83699059411015
10
1091.3620881291574
20
257.8444828434152
10
1084.4664062045172
20
252.46400533278756
10
1074.2274763522682
20
249.69555806222672
10
791.1532609524193
20
214.93841410574203
10
780.5487225030857
20
215.14760522050233
10
772.5562147871921
20
218.70004286583753
10
767.1757378047382
20
225.59572704174775
10
764.407291555724
20
235.83465774823298
10
745.1763266083385
20
392.4584330720795
0
LWPOLYLINE
5
3E
330
C
100
AcDbEntity
420
16775408
8
0
100
AcDbPolyline
90
5
70
0
43
0
38
0
39
0
10
753.1727294921875
20
407.74688720703125
10
1064.4351806640625
20
445.96514892578125
10
1105.191346419485
20
114.03293930856807
10
793.92889524761
20
75.81467758981807
10
753.1727294921875
20
407.74688720703125
0
HATCH
5
3F
330
C
100
AcDbEntity
420
2372170
8
0
100
AcDbHatch
10
0
20
0
30
0
210
0
220
0
230
1
2
SOLID
70
1
71
0
91
1
92
7
72
0
73
1
93
20
10
776.0901603297184
20
381.92737009148846
10
776.1841217781425
20
386.690574897823
10
777.779757986593
20
390.2805429994953
10
780.8770689550704
20
392.69727439650524
10
785.4760546835741
20
393.9407690888528
10
867.0851811684131
20
403.9611198985748
10
871.8483858798143
20
403.867158801256
10
875.4383537969834
20
402.2715228292666
10
877.8550849199206
20
399.1742119826066
10
879.0985792486258
20
394.57522626127616
10
879.0985792486258
20
394.57522626127616
10
879.0046178002017
20
389.8120214549416
10
877.4089815917511
20
386.2220533532694
10
874.3116706232738
20
383.8053219562596
10
869.71268489477
20
382.56182726391194
10
788.103558409931
20
372.54147645418993
10
783.3403536985298
20
372.63543755150886
10
779.7503857813607
20
374.23107352349814
10
777.3336546584236
20
377.328384370158
10
776.0901603297184
20
381.92737009148846
97
0
75
1
76
1
47
1
98
0
0
LWPOLYLINE
5
40
330
C
100
AcDbEntity
420
2372170
8
0
100
AcDbPolyline
90
21
70
0
43
0
38
0
39
0
10
776.0901603297184
20
381.92737009148846
10
776.1841217781425
20
386.690574897823
10
777.779757986593
20
390.2805429994953
10
780.8770689550704
20
392.69727439650524
10
785.4760546835741
20
393.9407690888528
10
867.0851811684131
20
403.9611198985748
10
871.8483858798143
20
403.867158801256
10
875.4383537969834
20
402.2715228292666
10
877.8550849199206
20
399.1742119826066
10
879.0985792486258
20
394.57522626127616
10
879.0985792486258
20
394.57522626127616
10
879.0046178002017
20
389.8120214549416
10
877.4089815917511
20
386.2220533532694
10
874.3116706232738
20
383.8053219562596
10
869.71268489477
20
382.56182726391194
10
788.103558409931
20
372.54147645418993
10
783.3403536985298
20
372.63543755150886
10
779.7503857813607
20
374.23107352349814
10
777.3336546584236
20
377.328384370158
10
776.0901603297184
20
381.92737009148846
10
776.0901603297184
20
381.92737009148846
0
TEXT
5
41
330
C
100
AcDbEntity
420
16774891
8
0
100
AcDbText
10
786.1522527459169
20
380.392188868253
30
0
40
11
1
NESTED VIEW
50
7.000006950105053
7
Georgia
100
AcDbText
0
TEXT
5
42
330
C
100
AcDbEntity
420
2372170
8
0
100
AcDbText
10
781.6010935608211
20
337.0444373978137
30
0
40
28
1
Viewport Card
50
7.00000695010503
7
Georgia
100
AcDbText
0
TEXT
5
43
330
C
100
AcDbEntity
420
2372170
8
0
100
AcDbText
10
785.1303496172417
20
308.30096412452804
30
0
40
15
1
This inline frame stays fully inside its
50
7.00000695010503
7
Georgia
100
AcDbText
0
TEXT
5
44
330
C
100
AcDbEntity
420
2372170
8
0
100
AcDbText
10
787.7279953467081
20
287.1448452698045
30
0
40
15
1
viewport so the transform math is visible
50
7.000006950105062
7
Georgia
100
AcDbText
0
TEXT
5
45
330
C
100
AcDbEntity
420
2372170
8
0
100
AcDbText
10
790.3256410761746
20
265.98872641508103
30
0
40
15
1
without depending on overflow clipping.
50
7.000006950105042
7
Georgia
100
AcDbText
0
HATCH
5
46
330
C
100
AcDbEntity
420
16777215
8
0
100
AcDbHatch
10
0
20
0
30
0
210
0
220
0
230
1
2
SOLID
70
1
71
0
91
1
92
7
72
0
73
1
93
20
10
795.2730095448744
20
225.69565867507674
10
795.4299025181181
20
233.6490627228834
10
798.0942304223562
20
239.64344423538228
10
803.2659932575889
20
243.67880321257292
10
810.9451910238162
20
245.75513965445566
10
905.5546815251404
20
257.37173605226724
10
913.5080854144311
20
257.2148436652848
10
919.5024666188542
20
254.55051615588002
10
923.5378251384095
20
249.37875352405285
10
925.6141609730971
20
241.69955576980328
10
931.0202859841397
20
197.67021721153924
10
930.8633930108962
20
189.71681316373247
10
928.199065106658
20
183.72243165123382
10
923.0273022714254
20
179.68707267404307
10
915.348104505198
20
177.61073623216032
10
820.7386140038737
20
165.99413983434874
10
812.785210114583
20
166.1510322213312
10
806.7908289101599
20
168.81535973073596
10
802.7554703906046
20
173.98712236256324
10
800.679134555917
20
181.6663201168127
97
0
75
1
76
1
47
1
98
0
0
LWPOLYLINE
5
47
330
C
100
AcDbEntity
420
2372170
8
0
100
AcDbPolyline
90
21
70
0
43
0
38
0
39
0
10
795.2730095448744
20
225.69565867507674
10
795.4299025181181
20
233.6490627228834
10
798.0942304223562
20
239.64344423538228
10
803.2659932575889
20
243.67880321257292
10
810.9451910238162
20
245.75513965445566
10
905.5546815251404
20
257.37173605226724
10
913.5080854144311
20
257.2148436652848
10
919.5024666188542
20
254.55051615588002
10
923.5378251384095
20
249.37875352405285
10
925.6141609730971
20
241.69955576980328
10
931.0202859841397
20
197.67021721153924
10
930.8633930108962
20
189.71681316373247
10
928.199065106658
20
183.72243165123382
10
923.0273022714254
20
179.68707267404307
10
915.348104505198
20
177.61073623216032
10
820.7386140038737
20
165.99413983434874
10
812.785210114583
20
166.1510322213312
10
806.7908289101599
20
168.81535973073596
10
802.7554703906046
20
173.98712236256324
10
800.679134555917
20
181.6663201168127
10
795.2730095448744
20
225.69565867507674
0
TEXT
5
48
330
C
100
AcDbEntity
420
2372170
8
0
100
AcDbText
10
811.8048159327255
20
211.6758825340048
30
0
40
24
1
42%
50
7.000006950105085
7
Georgia
100
AcDbText
0
TEXT
5
49
330
C
100
AcDbEntity
420
6122112
8
0
100
AcDbText
10
815.0526347424984
20
185.2245308432291
30
0
40
13
1
coverage
50
7.000006950105119
7
Georgia
100
AcDbText
0
HATCH
5
4A
330
C
100
AcDbEntity
420
16777215
8
0
100
AcDbHatch
10
0
20
0
30
0
210
0
220
0
230
1
2
SOLID
70
1
71
0
91
1
92
7
72
0
73
1
93
20
10
937.2865028920424
20
243.13274058425645
10
937.443395865286
20
251.0861446320631
10
940.1077237695242
20
257.080526144562
10
945.2794866047568
20
261.1158851217526
10
952.9586843709842
20
263.19222156363537
10
1047.5681748723082
20
274.80881796144695
10
1055.521578761599
20
274.6519255744645
10
1061.5159599660221
20
271.98759806505973
10
1065.5513184855774
20
266.81583543323245
10
1067.627654320265
20
259.136637678983
10
1073.0337793313076
20
215.10729912071895
10
1072.8768863580642
20
207.15389507291218
10
1070.212558453826
20
201.15951356041353
10
1065.0407956185932
20
197.12415458322278
10
1057.3615978523658
20
195.04781814134003
10
962.7521073510418
20
183.43122174352845
10
954.7987034617511
20
183.58811413051092
10
948.804322257328
20
186.2524416399158
10
944.7689637377728
20
191.42420427174284
10
942.692627903085
20
199.1034020259924
97
0
75
1
76
1
47
1
98
0
0
LWPOLYLINE
5
4B
330
C
100
AcDbEntity
420
2372170
8
0
100
AcDbPolyline
90
21
70
0
43
0
38
0
39
0
10
937.2865028920424
20
243.13274058425645
10
937.443395865286
20
251.0861446320631
10
940.1077237695242
20
257.080526144562
10
945.2794866047568
20
261.1158851217526
10
952.9586843709842
20
263.19222156363537
10
1047.5681748723082
20
274.80881796144695
10
1055.521578761599
20
274.6519255744645
10
1061.5159599660221
20
271.98759806505973
10
1065.5513184855774
20
266.81583543323245
10
1067.627654320265
20
259.136637678983
10
1073.0337793313076
20
215.10729912071895
10
1072.8768863580642
20
207.15389507291218
10
1070.212558453826
20
201.15951356041353
10
1065.0407956185932
20
197.12415458322278
10
1057.3615978523658
20
195.04781814134003
10
962.7521073510418
20
183.43122174352845
10
954.7987034617511
20
183.58811413051092
10
948.804322257328
20
186.2524416399158
10
944.7689637377728
20
191.42420427174284
10
942.692627903085
20
199.1034020259924
10
937.2865028920424
20
243.13274058425645
0
TEXT
5
4C
330
C
100
AcDbEntity
420
2372170
8
0
100
AcDbText
10
953.8183092798936
20
229.11296444318452
30
0
40
24
1
2x
50
7.000006950104997
7
Georgia
100
AcDbText
0
TEXT
5
4D
330
C
100
AcDbEntity
420
6122112
8
0
100
AcDbText
10
957.0661280896664
20
202.66161275240881
30
0
40
13
1
layers
50
7.000006950105053
7
Georgia
100
AcDbText
0
HATCH
5
4E
330
C
100
AcDbEntity
420
14412020
8
0
100
AcDbHatch
10
0
20
0
30
0
210
0
220
0
230
1
2
SOLID
70
1
71
0
91
1
92
7
72
0
73
1
93
20
10
806.4947415747391
20
134.30201947069088
10
806.6342019954
20
141.37171195763017
10
809.002493465834
20
146.70005107985116
10
813.5996159860408
20
150.2870368373541
10
820.4255695560207
20
152.13266923013873
10
1061.018737951946
20
181.6738253923428
10
1068.088430297982
20
181.53436549280286
10
1073.4167691463583
20
179.16607437333198
10
1077.0037544970742
20
174.56895203393003
10
1078.8493863501299
20
167.74299847459713
10
1081.6377572366814
20
145.03354844537614
10
1081.4982968160205
20
137.96385595843685
10
1079.1300053455866
20
132.63551683621574
10
1074.5328828253798
20
129.04853107871304
10
1067.7069292554
20
127.20289868592829
10
827.1137608594747
20
97.66174252372423
10
820.0440685134384
20
97.80120242326416
10
814.7157296650624
20
100.16949354273515
10
811.1287443143465
20
104.7666158821371
10
809.2831124612909
20
111.59256944146989
97
0
75
1
76
1
47
1
98
0
0
LWPOLYLINE
5
4F
330
C
100
AcDbEntity
420
14412020
8
0
100
AcDbPolyline
90
21
70
0
43
0
38
0
39
0
10
806.4947415747391
20
134.30201947069088
10
806.6342019954
20
141.37171195763017
10
809.002493465834
20
146.70005107985116
10
813.5996159860408
20
150.2870368373541
10
820.4255695560207
20
152.13266923013873
10
1061.018737951946
20
181.6738253923428
10
1068.088430297982
20
181.53436549280286
10
1073.4167691463583
20
179.16607437333198
10
1077.0037544970742
20
174.56895203393003
10
1078.8493863501299
20
167.74299847459713
10
1081.6377572366814
20
145.03354844537614
10
1081.4982968160205
20
137.96385595843685
10
1079.1300053455866
20
132.63551683621574
10
1074.5328828253798
20
129.04853107871304
10
1067.7069292554
20
127.20289868592829
10
827.1137608594747
20
97.66174252372423
10
820.0440685134384
20
97.80120242326416
10
814.7157296650624
20
100.16949354273515
10
811.1287443143465
20
104.7666158821371
10
809.2831124612909
20
111.59256944146989
10
806.4947415747391
20
134.30201947069088
0
TEXT
5
50
330
C
100
AcDbEntity
420
2372170
8
0
100
AcDbText
10
820.9777462143899
20
128.92699285276683
30
0
40
14
1
Affine mapping keeps the card aligned
50
7.00000695010504
7
Georgia
100
AcDbText
0
TEXT
5
51
330
C
100
AcDbEntity
420
2372170
8
0
100
AcDbText
10
822.8886580153767
20
113.36387093664837
30
0
40
14
1
when the iframe itself is rotated.
50
7.000006950105061
7
Georgia
100
AcDbText
0
ENDSEC
0
SECTION
2
OBJECTS
0
DICTIONARY
5
A
330
0
100
AcDbDictionary
281
1
3
ACAD_GROUP
350
B
0
DICTIONARY
5
B
330
A
100
AcDbDictionary
281
0
0
ENDSEC
0
EOF