0
SECTION
2
HEADER
9
$ACADVER
1
AC1021
9
$LASTSAVEDBY
1
@tarikjabiri/dxf
9
$HANDSEED
5
42
9
$INSUNITS
70
0
9
$CLAYER
8
0
9
$VIEWCTR
10
590
20
336.54998779296875
0
ENDSEC
0
SECTION
2
CLASSES
0
ENDSEC
0
SECTION
2
TABLES
0
TABLE
2
VPORT
5
1
330
0
100
AcDbSymbolTable
70
1
0
VPORT
5
19
330
1
100
AcDbSymbolTableRecord
100
AcDbViewportTableRecord
2
*Active
70
0
10
0
20
0
11
1
21
1
12
590
22
336.54998779296875
13
0
23
0
14
10
24
10
15
10
25
10
16
0
26
0
36
1
17
0
27
0
37
0
40
766.9000244140625
41
2
42
50
43
0
44
0
50
0
51
0
71
0
72
100
73
1
74
3
75
0
76
1
77
0
78
0
281
0
65
1
110
0
120
0
130
0
111
1
121
0
131
0
112
0
122
1
132
0
79
0
146
0
348
10020
60
7
61
5
292
1
282
1
141
0
142
0
63
250
421
3358443
0
ENDTAB
0
TABLE
2
LTYPE
5
2
330
0
100
AcDbSymbolTable
70
3
0
LTYPE
5
12
330
2
100
AcDbSymbolTableRecord
100
AcDbLinetypeTableRecord
2
ByBlock
70
0
3

72
65
73
0
40
0
0
LTYPE
5
13
330
2
100
AcDbSymbolTableRecord
100
AcDbLinetypeTableRecord
2
ByLayer
70
0
3

72
65
73
0
40
0
0
LTYPE
5
14
330
2
100
AcDbSymbolTableRecord
100
AcDbLinetypeTableRecord
2
Continuous
70
0
3
Solid line
72
65
73
0
40
0
0
ENDTAB
0
TABLE
2
LAYER
5
3
330
0
100
AcDbSymbolTable
70
1
0
LAYER
5
15
330
3
100
AcDbSymbolTableRecord
100
AcDbLayerTableRecord
2
0
70
0
62
7
6
Continuous
370
0
390
0
0
ENDTAB
0
TABLE
2
STYLE
5
4
330
0
100
AcDbSymbolTable
70
3
0
STYLE
5
16
330
4
100
AcDbSymbolTableRecord
100
AcDbTextStyleTableRecord
2
Standard
70
0
40
0
41
1
50
0
71
0
42
1
3
txt
4

0
STYLE
5
1B
330
4
100
AcDbSymbolTableRecord
100
AcDbTextStyleTableRecord
2
Arial
70
0
40
0
41
1
50
0
71
0
42
1
3
Arial.ttf
4

0
STYLE
5
26
330
4
100
AcDbSymbolTableRecord
100
AcDbTextStyleTableRecord
2
Consolas
70
0
40
0
41
1
50
0
71
0
42
1
3
Consolas.ttf
4

0
ENDTAB
0
TABLE
2
VIEW
5
5
330
0
100
AcDbSymbolTable
70
0
0
ENDTAB
0
TABLE
2
UCS
5
6
330
0
100
AcDbSymbolTable
70
0
0
ENDTAB
0
TABLE
2
APPID
5
7
330
0
100
AcDbSymbolTable
70
1
0
APPID
5
17
330
7
100
AcDbSymbolTableRecord
100
AcDbRegAppTableRecord
2
ACAD
70
0
0
ENDTAB
0
TABLE
2
DIMSTYLE
5
8
330
0
100
AcDbSymbolTable
70
1
100
AcDbDimStyleTable
0
DIMSTYLE
105
18
330
8
100
AcDbSymbolTableRecord
100
AcDbDimStyleTableRecord
2
Standard
70
0
340
16
0
ENDTAB
0
TABLE
2
BLOCK_RECORD
5
9
330
0
100
AcDbSymbolTable
70
2
0
BLOCK_RECORD
5
C
330
9
100
AcDbSymbolTableRecord
100
AcDbBlockTableRecord
2
*Model_Space
70
0
280
1
281
0
0
BLOCK_RECORD
5
F
330
9
100
AcDbSymbolTableRecord
100
AcDbBlockTableRecord
2
*Paper_Space
70
0
280
1
281
0
0
ENDTAB
0
ENDSEC
0
SECTION
2
BLOCKS
0
BLOCK
5
D
330
C
100
AcDbEntity
8
0
100
AcDbBlockBegin
2
*Model_Space
70
0
10
0
20
0
30
0
3
*Model_Space
1

0
ENDBLK
5
E
100
AcDbEntity
8
0
100
AcDbBlockEnd
0
BLOCK
5
10
330
F
100
AcDbEntity
8
0
100
AcDbBlockBegin
2
*Paper_Space
70
0
10
0
20
0
30
0
3
*Paper_Space
1

0
ENDBLK
5
11
100
AcDbEntity
8
0
100
AcDbBlockEnd
0
ENDSEC
0
SECTION
2
ENTITIES
0
TEXT
5
1A
330
C
100
AcDbEntity
420
16317180
8
0
100
AcDbText
10
28
20
620
30
0
40
24
1
Line Clamp Values
7
Arial
100
AcDbText
0
TEXT
5
1C
330
C
100
AcDbEntity
420
14870768
8
0
100
AcDbText
10
28
20
587.1999969482422
30
0
40
16
1
These cards cover the legacy `-webkit-line-clamp` flow, the modern unprefixed `line-clamp` property, the `no-ellipsis` modifier, and
7
Arial
100
AcDbText
0
TEXT
5
1D
330
C
100
AcDbEntity
420
14870768
8
0
100
AcDbText
10
28
20
561.5999984741211
30
0
40
16
1
an unclamped control. Browsers that do not support the modern values will simply render those cards without truncation.
7
Arial
100
AcDbText
0
LWPOLYLINE
5
1E
330
C
100
AcDbEntity
420
9741240
8
0
100
AcDbPolyline
90
42
70
0
43
0
38
0
39
0
10
46
20
530.8000030517578
10
302.5
20
530.8000030517578
10
302.5
20
530.8000030517578
10
306.01162579629033
20
530.454138099016
10
309.3883017825716
20
529.429834636961
10
312.50026419435284
20
527.7664560732036
10
315.22792206135784
20
525.5279251131157
10
317.46645302144583
20
522.8002672461107
10
319.12983158520314
20
519.6883048343294
10
320.15413504725814
20
516.3116288480481
10
320.5
20
512.8000030517578
10
320.5
20
306.6000061035156
10
320.5
20
306.6000061035156
10
320.15413504725814
20
303.0883803072253
10
319.12983158520314
20
299.711704320944
10
317.46645302144583
20
296.5997419091628
10
315.22792206135784
20
293.8720840421578
10
312.50026419435284
20
291.6335530820698
10
309.3883017825716
20
289.9701745183125
10
306.01162579629033
20
288.9458710562575
10
302.5
20
288.6000061035156
10
46
20
288.6000061035156
10
46
20
288.6000061035156
10
42.48837420370969
20
288.9458710562575
10
39.11169821742838
20
289.9701745183125
10
35.99973580564716
20
291.6335530820698
10
33.27207793864214
20
293.8720840421578
10
31.033546978554185
20
296.5997419091628
10
29.37016841479684
20
299.711704320944
10
28.345864952741852
20
303.0883803072253
10
28
20
306.6000061035156
10
28
20
512.8000030517578
10
28
20
512.8000030517578
10
28.345864952741852
20
516.3116288480481
10
29.370168414796836
20
519.6883048343294
10
31.03354697855418
20
522.8002672461107
10
33.27207793864214
20
525.5279251131157
10
35.99973580564716
20
527.7664560732036
10
39.111698217428376
20
529.429834636961
10
42.48837420370968
20
530.454138099016
10
46
20
530.8000030517578
10
46
20
530.8000030517578
0
TEXT
5
1F
330
C
100
AcDbEntity
420
9684477
8
0
100
AcDbText
10
47
20
500.5500030517578
30
0
40
13
1
LEGACY ONE-LINE CLAMP
7
Arial
100
AcDbText
0
TEXT
5
20
330
C
100
AcDbEntity
420
14870768
8
0
100
AcDbText
10
47
20
467.3999938964844
30
0
40
16
1
A single-line clamp should still
7
Arial
100
AcDbText
0
TEXT
5
21
330
C
100
AcDbEntity
420
14870768
8
0
100
AcDbText
10
47
20
442.6000061035156
30
0
40
16
1
append an ellipsis when the copy
7
Arial
100
AcDbText
0
TEXT
5
22
330
C
100
AcDbEntity
420
14870768
8
0
100
AcDbText
10
47
20
417.8000030517578
30
0
40
16
1
runs far beyond the width of the
7
Arial
100
AcDbText
0
TEXT
5
23
330
C
100
AcDbEntity
420
14870768
8
0
100
AcDbText
10
47
20
393
30
0
40
16
1
card and the browser clips the extra
7
Arial
100
AcDbText
0
TEXT
5
24
330
C
100
AcDbEntity
420
14870768
8
0
100
AcDbText
10
47
20
368.20001220703125
30
0
40
16
1
content.
7
Arial
100
AcDbText
0
TEXT
5
25
330
C
100
AcDbEntity
420
12573694
8
0
100
AcDbText
10
47
20
437.3000030517578
30
0
40
12
1
display:-webkit-box
7
Consolas
100
AcDbText
0
TEXT
5
27
330
C
100
AcDbEntity
420
12573694
8
0
100
AcDbText
10
47
20
419.8999938964844
30
0
40
12
1
-webkit-line-clamp: 1
7
Consolas
100
AcDbText
0
LWPOLYLINE
5
28
330
C
100
AcDbEntity
420
9741240
8
0
100
AcDbPolyline
90
42
70
0
43
0
38
0
39
0
10
356.5
20
530.8000030517578
10
613
20
530.8000030517578
10
613
20
530.8000030517578
10
616.5116257962903
20
530.454138099016
10
619.8883017825716
20
529.429834636961
10
623.0002641943529
20
527.7664560732036
10
625.7279220613578
20
525.5279251131157
10
627.9664530214458
20
522.8002672461107
10
629.6298315852032
20
519.6883048343294
10
630.6541350472581
20
516.3116288480481
10
631
20
512.8000030517578
10
631
20
306.6000061035156
10
631
20
306.6000061035156
10
630.6541350472581
20
303.0883803072253
10
629.6298315852032
20
299.711704320944
10
627.9664530214458
20
296.5997419091628
10
625.7279220613578
20
293.8720840421578
10
623.0002641943529
20
291.6335530820698
10
619.8883017825716
20
289.9701745183125
10
616.5116257962903
20
288.9458710562575
10
613
20
288.6000061035156
10
356.5
20
288.6000061035156
10
356.5
20
288.6000061035156
10
352.98837420370967
20
288.9458710562575
10
349.6116982174284
20
289.9701745183125
10
346.49973580564716
20
291.6335530820698
10
343.77207793864216
20
293.8720840421578
10
341.53354697855417
20
296.5997419091628
10
339.87016841479686
20
299.711704320944
10
338.84586495274186
20
303.0883803072253
10
338.5
20
306.6000061035156
10
338.5
20
512.8000030517578
10
338.5
20
512.8000030517578
10
338.84586495274186
20
516.3116288480481
10
339.8701684147968
20
519.6883048343294
10
341.53354697855417
20
522.8002672461107
10
343.77207793864216
20
525.5279251131157
10
346.49973580564716
20
527.7664560732036
10
349.6116982174284
20
529.429834636961
10
352.98837420370967
20
530.454138099016
10
356.5
20
530.8000030517578
10
356.5
20
530.8000030517578
0
TEXT
5
29
330
C
100
AcDbEntity
420
9684477
8
0
100
AcDbText
10
357.5
20
500.5500030517578
30
0
40
13
1
LEGACY TWO-LINE CLAMP
7
Arial
100
AcDbText
0
TEXT
5
2A
330
C
100
AcDbEntity
420
14870768
8
0
100
AcDbText
10
357.5
20
467.3999938964844
30
0
40
16
1
This two-line example mirrors the
7
Arial
100
AcDbText
0
TEXT
5
2B
330
C
100
AcDbEntity
420
14870768
8
0
100
AcDbText
10
357.5
20
442.6000061035156
30
0
40
16
1
pattern used by feed cards, sear…
7
Arial
100
AcDbText
0
TEXT
5
2C
330
C
100
AcDbEntity
420
12573694
8
0
100
AcDbText
10
357.5
20
412.5
30
0
40
12
1
-webkit-line-clamp: 2
7
Consolas
100
AcDbText
0
TEXT
5
2D
330
C
100
AcDbEntity
420
12573694
8
0
100
AcDbText
10
357.5
20
395.1000061035156
30
0
40
12
1
No explicit 
7
Arial
100
AcDbText
0
TEXT
5
2E
330
C
100
AcDbEntity
420
12573694
8
0
100
AcDbText
10
416.1666564941406
20
395.1000061035156
30
0
40
12
1
text-overflow
7
Consolas
100
AcDbText
0
TEXT
5
2F
330
C
100
AcDbEntity
420
12573694
8
0
100
AcDbText
10
501.9666748046875
20
395.1000061035156
30
0
40
12
1
 declaration.
7
Arial
100
AcDbText
0
LWPOLYLINE
5
30
330
C
100
AcDbEntity
420
9741240
8
0
100
AcDbPolyline
90
42
70
0
43
0
38
0
39
0
10
667
20
530.8000030517578
10
923.5
20
530.8000030517578
10
923.5
20
530.8000030517578
10
927.0116257962903
20
530.454138099016
10
930.3883017825716
20
529.429834636961
10
933.5002641943529
20
527.7664560732036
10
936.2279220613578
20
525.5279251131157
10
938.4664530214458
20
522.8002672461107
10
940.1298315852032
20
519.6883048343294
10
941.1541350472581
20
516.3116288480481
10
941.5
20
512.8000030517578
10
941.5
20
306.6000061035156
10
941.5
20
306.6000061035156
10
941.1541350472581
20
303.0883803072253
10
940.1298315852032
20
299.711704320944
10
938.4664530214458
20
296.5997419091628
10
936.2279220613578
20
293.8720840421578
10
933.5002641943529
20
291.6335530820698
10
930.3883017825716
20
289.9701745183125
10
927.0116257962903
20
288.9458710562575
10
923.5
20
288.6000061035156
10
667
20
288.6000061035156
10
667
20
288.6000061035156
10
663.4883742037097
20
288.9458710562575
10
660.1116982174284
20
289.9701745183125
10
656.9997358056472
20
291.6335530820698
10
654.2720779386422
20
293.8720840421578
10
652.0335469785542
20
296.5997419091628
10
650.3701684147968
20
299.711704320944
10
649.3458649527419
20
303.0883803072253
10
649
20
306.6000061035156
10
649
20
512.8000030517578
10
649
20
512.8000030517578
10
649.3458649527419
20
516.3116288480481
10
650.3701684147968
20
519.6883048343294
10
652.0335469785542
20
522.8002672461107
10
654.2720779386422
20
525.5279251131157
10
656.9997358056471
20
527.7664560732036
10
660.1116982174284
20
529.429834636961
10
663.4883742037097
20
530.454138099016
10
667
20
530.8000030517578
10
667
20
530.8000030517578
0
TEXT
5
31
330
C
100
AcDbEntity
420
9684477
8
0
100
AcDbText
10
668
20
500.5500030517578
30
0
40
13
1
LEGACY THREE-LINE CLAMP
7
Arial
100
AcDbText
0
TEXT
5
32
330
C
100
AcDbEntity
420
14870768
8
0
100
AcDbText
10
668
20
467.3999938964844
30
0
40
16
1
Longer editorial text often wants
7
Arial
100
AcDbText
0
TEXT
5
33
330
C
100
AcDbEntity
420
14870768
8
0
100
AcDbText
10
668
20
442.6000061035156
30
0
40
16
1
one more line of headroom before
7
Arial
100
AcDbText
0
TEXT
5
34
330
C
100
AcDbEntity
420
14870768
8
0
100
AcDbText
10
668
20
417.8000030517578
30
0
40
16
1
the truncation kicks in, especially…
7
Arial
100
AcDbText
0
TEXT
5
35
330
C
100
AcDbEntity
420
12573694
8
0
100
AcDbText
10
668
20
387.70001220703125
30
0
40
12
1
-webkit-line-clamp: 3
7
Consolas
100
AcDbText
0
LWPOLYLINE
5
36
330
C
100
AcDbEntity
420
9741240
8
0
100
AcDbPolyline
90
42
70
0
43
0
38
0
39
0
10
977.5
20
530.8000030517578
10
1234
20
530.8000030517578
10
1234
20
530.8000030517578
10
1237.5116257962902
20
530.454138099016
10
1240.8883017825717
20
529.429834636961
10
1244.000264194353
20
527.7664560732036
10
1246.727922061358
20
525.5279251131157
10
1248.966453021446
20
522.8002672461107
10
1250.6298315852032
20
519.6883048343294
10
1251.6541350472583
20
516.3116288480481
10
1252
20
512.8000030517578
10
1252
20
306.6000061035156
10
1252
20
306.6000061035156
10
1251.6541350472583
20
303.0883803072253
10
1250.6298315852032
20
299.711704320944
10
1248.966453021446
20
296.5997419091628
10
1246.727922061358
20
293.8720840421578
10
1244.000264194353
20
291.6335530820698
10
1240.8883017825717
20
289.9701745183125
10
1237.5116257962902
20
288.9458710562575
10
1234
20
288.6000061035156
10
977.5
20
288.6000061035156
10
977.5
20
288.6000061035156
10
973.9883742037097
20
288.9458710562575
10
970.6116982174284
20
289.9701745183125
10
967.4997358056472
20
291.6335530820698
10
964.7720779386422
20
293.8720840421578
10
962.5335469785542
20
296.5997419091628
10
960.8701684147968
20
299.711704320944
10
959.8458649527419
20
303.0883803072253
10
959.5
20
306.6000061035156
10
959.5
20
512.8000030517578
10
959.5
20
512.8000030517578
10
959.8458649527419
20
516.3116288480481
10
960.8701684147968
20
519.6883048343294
10
962.5335469785542
20
522.8002672461107
10
964.7720779386422
20
525.5279251131157
10
967.4997358056471
20
527.7664560732036
10
970.6116982174284
20
529.429834636961
10
973.9883742037097
20
530.454138099016
10
977.5
20
530.8000030517578
10
977.5
20
530.8000030517578
0
TEXT
5
37
330
C
100
AcDbEntity
420
9684477
8
0
100
AcDbText
10
978.5
20
500.5500030517578
30
0
40
13
1
MODERN TWO-LINE CLAMP
7
Arial
100
AcDbText
0
TEXT
5
38
330
C
100
AcDbEntity
420
14870768
8
0
100
AcDbText
10
978.5
20
467.3999938964844
30
0
40
16
1
The modern shorthand expresses t
7
Arial
100
AcDbText
0
TEXT
5
39
330
C
100
AcDbEntity
420
12573694
8
0
100
AcDbText
10
978.5
20
313.29998779296875
30
0
40
12
1
line-clamp: 2
7
Consolas
100
AcDbText
0
LWPOLYLINE
5
3A
330
C
100
AcDbEntity
420
9741240
8
0
100
AcDbPolyline
90
42
70
0
43
0
38
0
39
0
10
46
20
270.6000061035156
10
302.5
20
270.6000061035156
10
302.5
20
270.6000061035156
10
306.01162579629033
20
270.25414115077376
10
309.3883017825716
20
269.22983768871876
10
312.50026419435284
20
267.56645912496145
10
315.22792206135784
20
265.32792816487347
10
317.46645302144583
20
262.60027029786846
10
319.12983158520314
20
259.4883078860872
10
320.15413504725814
20
256.11163189980596
10
320.5
20
252.60000610351562
10
320.5
20
46.4000244140625
10
320.5
20
46.4000244140625
10
320.15413504725814
20
42.88839861777217
10
319.12983158520314
20
39.5117226314909
10
317.46645302144583
20
36.399760219709606
10
315.22792206135784
20
33.672102352704655
10
312.50026419435284
20
31.433571392616727
10
309.3883017825716
20
29.770192828859308
10
306.01162579629033
20
28.745889366804363
10
302.5
20
28.4000244140625
10
46
20
28.4000244140625
10
46
20
28.4000244140625
10
42.48837420370969
20
28.745889366804363
10
39.11169821742838
20
29.770192828859308
10
35.99973580564716
20
31.433571392616727
10
33.27207793864214
20
33.672102352704655
10
31.033546978554185
20
36.399760219709606
10
29.37016841479684
20
39.5117226314909
10
28.345864952741852
20
42.88839861777217
10
28
20
46.4000244140625
10
28
20
252.60000610351562
10
28
20
252.60000610351562
10
28.345864952741852
20
256.11163189980596
10
29.370168414796836
20
259.4883078860872
10
31.03354697855418
20
262.60027029786846
10
33.27207793864214
20
265.32792816487347
10
35.99973580564716
20
267.56645912496145
10
39.111698217428376
20
269.22983768871876
10
42.48837420370968
20
270.25414115077376
10
46
20
270.6000061035156
10
46
20
270.6000061035156
0
TEXT
5
3B
330
C
100
AcDbEntity
420
9684477
8
0
100
AcDbText
10
47
20
240.35000610351562
30
0
40
13
1
MODERN NO-ELLIPSIS
7
Arial
100
AcDbText
0
TEXT
5
3C
330
C
100
AcDbEntity
420
14870768
8
0
100
AcDbText
10
47
20
207.20001220703125
30
0
40
16
1
Some components need the visible
7
Arial
100
AcDbText
0
TEXT
5
3D
330
C
100
AcDbEntity
420
12573694
8
0
100
AcDbText
10
47
20
53.0999755859375
30
0
40
12
1
line-clamp: 2 no-ellipsis
7
Consolas
100
AcDbText
0
LWPOLYLINE
5
3E
330
C
100
AcDbEntity
420
9741240
8
0
100
AcDbPolyline
90
42
70
0
43
0
38
0
39
0
10
356.5
20
270.6000061035156
10
613
20
270.6000061035156
10
613
20
270.6000061035156
10
616.5116257962903
20
270.25414115077376
10
619.8883017825716
20
269.22983768871876
10
623.0002641943529
20
267.56645912496145
10
625.7279220613578
20
265.32792816487347
10
627.9664530214458
20
262.60027029786846
10
629.6298315852032
20
259.4883078860872
10
630.6541350472581
20
256.11163189980596
10
631
20
252.60000610351562
10
631
20
46.4000244140625
10
631
20
46.4000244140625
10
630.6541350472581
20
42.88839861777217
10
629.6298315852032
20
39.5117226314909
10
627.9664530214458
20
36.399760219709606
10
625.7279220613578
20
33.672102352704655
10
623.0002641943529
20
31.433571392616727
10
619.8883017825716
20
29.770192828859308
10
616.5116257962903
20
28.745889366804363
10
613
20
28.4000244140625
10
356.5
20
28.4000244140625
10
356.5
20
28.4000244140625
10
352.98837420370967
20
28.745889366804363
10
349.6116982174284
20
29.770192828859308
10
346.49973580564716
20
31.433571392616727
10
343.77207793864216
20
33.672102352704655
10
341.53354697855417
20
36.399760219709606
10
339.87016841479686
20
39.5117226314909
10
338.84586495274186
20
42.88839861777217
10
338.5
20
46.4000244140625
10
338.5
20
252.60000610351562
10
338.5
20
252.60000610351562
10
338.84586495274186
20
256.11163189980596
10
339.8701684147968
20
259.4883078860872
10
341.53354697855417
20
262.60027029786846
10
343.77207793864216
20
265.32792816487347
10
346.49973580564716
20
267.56645912496145
10
349.6116982174284
20
269.22983768871876
10
352.98837420370967
20
270.25414115077376
10
356.5
20
270.6000061035156
10
356.5
20
270.6000061035156
0
TEXT
5
3F
330
C
100
AcDbEntity
420
9684477
8
0
100
AcDbText
10
357.5
20
240.35000610351562
30
0
40
13
1
UNCLAMPED CONTROL
7
Arial
100
AcDbText
0
TEXT
5
40
330
C
100
AcDbEntity
420
14870768
8
0
100
AcDbText
10
357.5
20
207.20001220703125
30
0
40
16
1
This card uses the same copy as th
7
Arial
100
AcDbText
0
TEXT
5
41
330
C
100
AcDbEntity
420
12573694
8
0
100
AcDbText
10
357.5
20
53.0999755859375
30
0
40
12
1
line-clamp: none
7
Consolas
100
AcDbText
0
ENDSEC
0
SECTION
2
OBJECTS
0
DICTIONARY
5
A
330
0
100
AcDbDictionary
281
1
3
ACAD_GROUP
350
B
0
DICTIONARY
5
B
330
A
100
AcDbDictionary
281
0
0
ENDSEC
0
EOF