  0
SECTION
  2
HEADER
  9
$ANGBASE
 50
0.0
  9
$ANGDIR
 70
1
  9
$AUNITS
 70
0
  9
$AUPREC
 70
0
  9
$ATTMODE
 70
1
  9
$DWGCODEPAGE
  3
ANSI_1252
  9
$TDCREATE
 40
2451545.0416666665114462
  9
$CECOLOR
 62
256
  9
$CELTSCALE
 40
1.0
  9
$CELWEIGHT
370
-1
  9
$CLAYER
  8
0
  9
$CELTYPE
  6
ByLayer
  9
$CMLJUST
 70
0
  9
$CMLSCALE
 40
20.0
  9
$CMLSTYLE
  2
Standard
  9
$DIMSTYLE
  2
Standard
  9
$LWDISPLAY
290
0
  9
$EXTNAMES
290
1
  9
$HANDSEED
  5
49
  9
$INSUNITS
 70
0
  9
$LUNITS
 70
2
  9
$LUPREC
 70
4
  9
$LTSCALE
 40
1.0
  9
$MIRRTEXT
 70
0
  9
$INSBASE
 10
0.0
 20
0.0
 30
0.0
  9
$SPLINESEGS
 70
8
  9
$PSLTSCALE
 70
1
  9
$PDMODE
 70
0
  9
$PDSIZE
 40
0.0
  9
$PLINEGEN
 70
0
  9
$TEXTSIZE
 40
0.2
  9
$TEXTSTYLE
  7
Standard
  9
$TDINDWG
 40
0.0
  9
$TDUCREATE
 40
2451545.0416666665114462
  9
$TDUUPDATE
 40
2451545.0416666665114462
  9
$TDUPDATE
 40
2451545.0416666665114462
  9
$ACADVER
  1
AC1018
  0
ENDSEC
  0
SECTION
  2
CLASSES
  0
CLASS
  1
ACDBDICTIONARYWDFLT
  2
AcDbDictionaryWithDefault
  3
ObjectDBX Classes
 90
32768
 91
0
280
0
281
0
  0
CLASS
  1
ACDBPLACEHOLDER
  2
AcDbPlaceHolder
  3
ObjectDBX Classes
 90
0
 91
0
280
0
281
0
  0
CLASS
  1
LAYOUT
  2
AcDbLayout
  3
ObjectDBX Classes
 90
0
 91
0
280
0
281
0
  0
CLASS
  1
DICTIONARYVAR
  2
AcDbDictionaryVar
  3
ObjectDBX Classes
 90
0
 91
0
280
0
281
0
  0
CLASS
  1
TABLESTYLE
  2
AcDbTableStyle
  3
ObjectDBX Classes
 90
4095
 91
0
280
0
281
0
  0
CLASS
  1
MATERIAL
  2
AcDbMaterial
  3
ObjectDBX Classes
 90
1153
 91
0
280
0
281
0
  0
CLASS
  1
VISUALSTYLE
  2
AcDbVisualStyle
  3
ObjectDBX Classes
 90
4095
 91
0
280
0
281
0
  0
CLASS
  1
SCALE
  2
AcDbScale
  3
ObjectDBX Classes
 90
1153
 91
0
280
0
281
0
  0
CLASS
  1
MLEADERSTYLE
  2
AcDbMLeaderStyle
  3
ObjectDBX Classes
 90
4095
 91
0
280
0
281
0
  0
CLASS
  1
CELLSTYLEMAP
  2
AcDbCellStyleMap
  3
ObjectDBX Classes
 90
1152
 91
0
280
0
281
0
  0
CLASS
  1
EXACXREFPANELOBJECT
  2
ExAcXREFPanelObject
  3
ObjectDBX Classes
 90
1025
 91
0
280
0
281
0
  0
CLASS
  1
NPOCOLLECTION
  2
AcDbImpNonPersistentObjectsCollection
  3
ObjectDBX Classes
 90
1153
 91
0
280
0
281
0
  0
CLASS
  1
LAYER_INDEX
  2
AcDbLayerIndex
  3
ObjectDBX Classes
 90
0
 91
0
280
0
281
0
  0
CLASS
  1
SPATIAL_INDEX
  2
AcDbSpatialIndex
  3
ObjectDBX Classes
 90
0
 91
0
280
0
281
0
  0
CLASS
  1
IDBUFFER
  2
AcDbIdBuffer
  3
ObjectDBX Classes
 90
32768
 91
0
280
0
281
0
  0
CLASS
  1
ACDBSECTIONVIEWSTYLE
  2
AcDbSectionViewStyle
  3
ObjectDBX Classes
 90
1025
 91
0
280
0
281
0
  0
CLASS
  1
ACDBDETAILVIEWSTYLE
  2
AcDbDetailViewStyle
  3
ObjectDBX Classes
 90
1025
 91
0
280
0
281
0
  0
CLASS
  1
MESH
  2
AcDbSubDMesh
  3
ObjectDBX Classes
 90
0
 91
0
280
0
281
1
  0
CLASS
  1
SORTENTSTABLE
  2
AcDbSortentsTable
  3
ObjectDBX Classes
 90
0
 91
0
280
0
281
0
  0
CLASS
  1
ACDB_TEXTOBJECTCONTEXTDATA_CLASS
  2
AcDbTextObjectContextData
  3
ObjectDBX Classes
 90
1153
 91
0
280
0
281
0
  0
CLASS
  1
WIPEOUT
  2
AcDbWipeout
  3
WipeOut
 90
32895
 91
0
280
0
281
1
  0
CLASS
  1
WIPEOUTVARIABLES
  2
AcDbWipeoutVariables
  3
WipeOut
 90
32768
 91
0
280
0
281
0
  0
CLASS
  1
DIMASSOC
  2
AcDbDimAssoc
  3
AcDbDimAssoc
 90
0
 91
0
280
0
281
0
  0
CLASS
  1
ACAD_TABLE
  2
AcDbTable
  3
ObjectDBX Classes
 90
1025
 91
0
280
0
281
1
  0
CLASS
  1
TABLECONTENT
  2
AcDbTableContent
  3
ObjectDBX Classes
 90
1152
 91
0
280
0
281
0
  0
CLASS
  1
TABLEGEOMETRY
  2
AcDbTableGeometry
  3
ObjectDBX Classes
 90
1152
 91
0
280
0
281
0
  0
CLASS
  1
IMAGE
  2
AcDbRasterImage
  3
ISM
 90
32895
 91
0
280
0
281
1
  0
CLASS
  1
IMAGEDEF
  2
AcDbRasterImageDef
  3
ISM
 90
0
 91
0
280
0
281
0
  0
CLASS
  1
IMAGEDEF_REACTOR
  2
AcDbRasterImageDefReactor
  3
ISM
 90
1
 91
0
280
0
281
0
  0
CLASS
  1
DBCOLOR
  2
AcDbColor
  3
ObjectDBX Classes
 90
0
 91
0
280
0
281
0
  0
CLASS
  1
GEODATA
  2
AcDbGeoData
  3
ObjectDBX Classes
 90
4095
 91
0
280
0
281
0
  0
CLASS
  1
MULTILEADER
  2
AcDbMLeader
  3
ObjectDBX Classes
 90
1025
 91
0
280
0
281
0
  0
CLASS
  1
PDFUNDERLAY
  2
AcDbPdfReference
  3
ObjectDBX Classes
 90
4095
 91
0
280
0
281
1
  0
CLASS
  1
PDFDEFINITION
  2
AcDbPdfDefinition
  3
ObjectDBX Classes
 90
1153
 91
0
280
0
281
0
  0
CLASS
  1
RASTERVARIABLES
  2
AcDbRasterVariables
  3
ISM
 90
0
 91
0
280
0
281
0
  0
CLASS
  1
SPATIAL_FILTER
  2
AcDbSpatialFilter
  3
ObjectDBX Classes
 90
0
 91
0
280
0
281
0
  0
CLASS
  1
ACDB_MLEADEROBJECTCONTEXTDATA_CLASS
  2
AcDbMLeaderObjectContextData
  3
ObjectDBX Classes
 90
1025
 91
0
280
0
281
0
  0
CLASS
  1
PLOTSETTINGS
  2
AcDbPlotSettings
  3
ObjectDBX Classes
 90
0
 91
0
280
0
281
0
  0
CLASS
  1
FIELD
  2
AcDbField
  3
ObjectDBX Classes
 90
1152
 91
0
280
0
281
0
  0
CLASS
  1
FIELDLIST
  2
AcDbFieldList
  3
ObjectDBX Classes
 90
1152
 91
0
280
0
281
0
  0
CLASS
  1
ACDB_MTEXTATTRIBUTEOBJECTCONTEXTDATA_CLASS
  2
AcDbMTextAttributeObjectContextData
  3
ObjectDBX Classes
 90
1153
 91
0
280
0
281
0
  0
CLASS
  1
ACDB_BLKREFOBJECTCONTEXTDATA_CLASS
  2
AcDbBlkRefObjectContextData
  3
ObjectDBX Classes
 90
1153
 91
0
280
0
281
0
  0
ENDSEC
  0
SECTION
  2
TABLES
  0
TABLE
  2
VPORT
  5
18
330
0
100
AcDbSymbolTable
 70
1
  0
VPORT
  5
26
330
18
100
AcDbSymbolTableRecord
100
AcDbViewportTableRecord
  2
*Active
 70
0
 10
0.0
 20
0.0
 11
1.0
 21
1.0
 12
0.0
 22
0.0
 13
0.0
 23
0.0
 14
0.5
 24
0.5
 15
10.0
 25
10.0
 16
0.0
 26
0.0
 36
1.0
 17
0.0
 27
0.0
 37
0.0
 40
10.0
 41
1.0
 75
0
 76
1
  0
ENDTAB
  0
TABLE
  2
LTYPE
  5
14
330
0
100
AcDbSymbolTable
 70
3
  0
LTYPE
  5
19
330
14
100
AcDbSymbolTableRecord
100
AcDbLinetypeTableRecord
  2
ByLayer
 70
0
 72
0
 73
0
 40
0.0
  0
LTYPE
  5
1A
330
14
100
AcDbSymbolTableRecord
100
AcDbLinetypeTableRecord
  2
ByBlock
 70
0
 72
0
 73
0
 40
0.0
  0
LTYPE
  5
1B
330
14
100
AcDbSymbolTableRecord
100
AcDbLinetypeTableRecord
  2
Continuous
 70
0
 72
0
 73
0
 40
0.0
  0
ENDTAB
  0
TABLE
  2
LAYER
  5
13
330
0
100
AcDbSymbolTable
 70
1
  0
LAYER
  5
1C
330
13
100
AcDbSymbolTableRecord
100
AcDbLayerTableRecord
  2
0
 70
0
 62
7
  6
Continuous
290
1
370
-3
390
0
  0
ENDTAB
  0
TABLE
  2
STYLE
  5
15
330
0
100
AcDbSymbolTable
 70
1
  0
STYLE
  5
23
330
15
100
AcDbSymbolTableRecord
100
AcDbTextStyleTableRecord
  2
Standard
 70
0
 40
0.0
 41
1.0
 42
0.0
 50
0.0
 71
0
  0
ENDTAB
  0
TABLE
  2
VIEW
  5
17
330
0
100
AcDbSymbolTable
 70
0
  0
ENDTAB
  0
TABLE
  2
UCS
  5
16
330
0
100
AcDbSymbolTable
 70
0
  0
ENDTAB
  0
TABLE
  2
APPID
  5
10
330
0
100
AcDbSymbolTable
 70
1
  0
APPID
  5
25
330
10
100
AcDbSymbolTableRecord
100
AcDbRegAppTableRecord
  2
ACAD
 70
0
  0
ENDTAB
  0
TABLE
  2
DIMSTYLE
  5
12
330
0
100
AcDbSymbolTable
 70
1
100
AcDbDimStyleTable
  0
DIMSTYLE
105
24
330
12
100
AcDbSymbolTableRecord
100
AcDbDimStyleTableRecord
  2
Standard
 70
0
  3
<>
  4
[]
 40
1.0
 41
0.18
 42
0.625
 43
3.75
 44
1.25
 45
0.0
 46
0.0
 47
0.0
 48
0.0
 49
1.0
 50
45.0
 70
0
 90
0
140
0.18
141
0.09
142
0.0
143
25.3999999999999986
144
1.0
145
0.0
146
1.0
147
0.625
148
0.0
 71
0
 72
0
 73
0
 74
0
 75
0
 76
0
 77
1
 78
8
 79
0
170
0
171
3
172
0
173
1
174
0
175
0
176
0
177
0
178
0
179
0
271
2
272
2
273
2
274
3
275
0
276
0
277
2
278
46
279
0
280
0
281
0
282
0
283
0
284
8
285
0
286
0
287
0
288
0
289
3
290
0
340
0
371
-2
372
-2
  0
ENDTAB
  0
TABLE
  2
BLOCK_RECORD
  5
11
330
0
100
AcDbSymbolTable
 70
2
  0
BLOCK_RECORD
  5
1D
330
11
100
AcDbSymbolTableRecord
100
AcDbBlockTableRecord
  2
*Model_Space
 70
0
340
0
 70
0
280
0
281
1
  0
BLOCK_RECORD
  5
20
330
11
100
AcDbSymbolTableRecord
100
AcDbBlockTableRecord
  2
*Paper_Space
 70
0
340
0
 70
0
280
0
281
1
  0
ENDTAB
  0
ENDSEC
  0
SECTION
  2
BLOCKS
  0
BLOCK
  5
1E
330
1D
100
AcDbEntity
  8
0
  6
ByLayer
 62
256
 48
1.0
 60
0
 67
0
370
-1
100
AcDbBlockBegin
  2
*Model_Space
 70
0
 10
0.0
 20
0.0
 30
0.0
  3
*Model_Space
  0
ENDBLK
  5
1F
330
1D
100
AcDbEntity
  8
0
100
AcDbBlockEnd
  0
BLOCK
  5
21
330
20
100
AcDbEntity
  8
0
  6
ByLayer
 62
256
 48
1.0
 60
0
 67
1
370
-1
100
AcDbBlockBegin
  2
*Paper_Space
 70
0
 10
0.0
 20
0.0
 30
0.0
  3
*Paper_Space
  0
ENDBLK
  5
22
330
20
100
AcDbEntity
  8
0
100
AcDbBlockEnd
  0
ENDSEC
  0
SECTION
  2
ENTITIES
  0
HATCH
  5
27
330
1D
100
AcDbEntity
  8
0
  6
ByLayer
420
16185337
 48
1.0
 60
0
 67
0
370
-1
100
AcDbHatch
 30
0.0
210
0.0
220
0.0
230
1.0
  2
SOLID
 70
1
 71
0
 91
1
 92
2
 72
0
 73
1
 93
4
 10
0.0
 20
559.0
 10
1232.0
 20
559.0
 10
1232.0
 20
0.29998779296875
 10
0.0
 20
0.29998779296875
 97
0
 75
0
 76
1
 47
0.0
 98
0
  0
LWPOLYLINE
  5
28
330
1D
100
AcDbEntity
  8
0
  6
ByLayer
420
16185337
 48
1.0
 60
0
 67
0
370
-1
100
AcDbPolyline
 90
4
 70
1
 43
0.0
 38
0.0
 39
0.0
210
0.0
220
0.0
230
1.0
 10
0.0
 20
559.0
 40
0.0
 41
0.0
 42
0.0
 10
1232.0
 20
559.0
 40
0.0
 41
0.0
 42
0.0
 10
1232.0
 20
0.29998779296875
 40
0.0
 41
0.0
 42
0.0
 10
0.0
 20
0.29998779296875
 40
0.0
 41
0.0
 42
0.0
  0
HATCH
  5
29
330
1D
100
AcDbEntity
  8
0
  6
ByLayer
420
16777215
 48
1.0
 60
0
 67
0
370
-1
100
AcDbHatch
 30
0.0
210
0.0
220
0.0
230
1.0
  2
SOLID
 70
1
 71
0
 91
1
 92
2
 72
0
 73
1
 93
41
 10
12.0
 20
559.0
 10
1220.0
 20
559.0
 10
1220.0
 20
559.0
 10
1222.3410838641934788
 20
558.7694233648387581
 10
1224.5922011883810683
 20
558.0865543901354613
 10
1226.6668427962351871
 20
556.977635347630553
 10
1228.4852813742386388
 20
555.4852813742385251
 10
1229.9776353476304394
 20
553.6668427962351871
 10
1231.0865543901354613
 20
551.5922011883810683
 10
1231.7694233648387581
 20
549.3410838641935925
 10
1232.0
 20
547.0
 10
1232.0
 20
332.133331298828125
 10
1232.0
 20
332.133331298828125
 10
1231.7694233648387581
 20
329.7922474346345894
 10
1231.0865543901354613
 20
327.5411301104470567
 10
1229.9776353476304394
 20
325.4664885025929379
 10
1228.4852813742386388
 20
323.648049924589543
 10
1226.6668427962351871
 20
322.155695951197572
 10
1224.5922011883810683
 20
321.0467769086926637
 10
1222.3410838641934788
 20
320.3639079339893669
 10
1220.0
 20
320.133331298828125
 10
12.0
 20
320.133331298828125
 10
12.0
 20
320.133331298828125
 10
9.6589161358064608
 20
320.3639079339893669
 10
7.4077988116189228
 20
321.0467769086926637
 10
5.3331572037647765
 20
322.155695951197572
 10
3.5147186257614305
 20
323.648049924589543
 10
2.0223646523694558
 20
325.4664885025929379
 10
0.91344560986456
 20
327.5411301104470567
 10
0.2305766351612348
 20
329.7922474346345894
 10
0.0
 20
332.133331298828125
 10
0.0
 20
547.0
 10
0.0
 20
547.0
 10
0.2305766351612348
 20
549.3410838641935925
 10
0.9134456098645583
 20
551.5922011883810683
 10
2.0223646523694541
 20
553.6668427962351871
 10
3.5147186257614287
 20
555.4852813742385251
 10
5.3331572037647739
 20
556.977635347630553
 10
7.4077988116189157
 20
558.0865543901354613
 10
9.6589161358064555
 20
558.7694233648387581
 10
11.9999999999999982
 20
559.0
 97
0
 75
0
 76
1
 47
0.0
 98
0
  0
LWPOLYLINE
  5
2A
330
1D
100
AcDbEntity
  8
0
  6
ByLayer
420
14146013
 48
1.0
 60
0
 67
0
370
-1
100
AcDbPolyline
 90
41
 70
1
 43
0.0
 38
0.0
 39
0.0
210
0.0
220
0.0
230
1.0
 10
12.0
 20
559.0
 40
0.0
 41
0.0
 42
0.0
 10
1220.0
 20
559.0
 40
0.0
 41
0.0
 42
0.0
 10
1220.0
 20
559.0
 40
0.0
 41
0.0
 42
0.0
 10
1222.3410838641934788
 20
558.7694233648387581
 40
0.0
 41
0.0
 42
0.0
 10
1224.5922011883810683
 20
558.0865543901354613
 40
0.0
 41
0.0
 42
0.0
 10
1226.6668427962351871
 20
556.977635347630553
 40
0.0
 41
0.0
 42
0.0
 10
1228.4852813742386388
 20
555.4852813742385251
 40
0.0
 41
0.0
 42
0.0
 10
1229.9776353476304394
 20
553.6668427962351871
 40
0.0
 41
0.0
 42
0.0
 10
1231.0865543901354613
 20
551.5922011883810683
 40
0.0
 41
0.0
 42
0.0
 10
1231.7694233648387581
 20
549.3410838641935925
 40
0.0
 41
0.0
 42
0.0
 10
1232.0
 20
547.0
 40
0.0
 41
0.0
 42
0.0
 10
1232.0
 20
332.133331298828125
 40
0.0
 41
0.0
 42
0.0
 10
1232.0
 20
332.133331298828125
 40
0.0
 41
0.0
 42
0.0
 10
1231.7694233648387581
 20
329.7922474346345894
 40
0.0
 41
0.0
 42
0.0
 10
1231.0865543901354613
 20
327.5411301104470567
 40
0.0
 41
0.0
 42
0.0
 10
1229.9776353476304394
 20
325.4664885025929379
 40
0.0
 41
0.0
 42
0.0
 10
1228.4852813742386388
 20
323.648049924589543
 40
0.0
 41
0.0
 42
0.0
 10
1226.6668427962351871
 20
322.155695951197572
 40
0.0
 41
0.0
 42
0.0
 10
1224.5922011883810683
 20
321.0467769086926637
 40
0.0
 41
0.0
 42
0.0
 10
1222.3410838641934788
 20
320.3639079339893669
 40
0.0
 41
0.0
 42
0.0
 10
1220.0
 20
320.133331298828125
 40
0.0
 41
0.0
 42
0.0
 10
12.0
 20
320.133331298828125
 40
0.0
 41
0.0
 42
0.0
 10
12.0
 20
320.133331298828125
 40
0.0
 41
0.0
 42
0.0
 10
9.6589161358064608
 20
320.3639079339893669
 40
0.0
 41
0.0
 42
0.0
 10
7.4077988116189228
 20
321.0467769086926637
 40
0.0
 41
0.0
 42
0.0
 10
5.3331572037647765
 20
322.155695951197572
 40
0.0
 41
0.0
 42
0.0
 10
3.5147186257614305
 20
323.648049924589543
 40
0.0
 41
0.0
 42
0.0
 10
2.0223646523694558
 20
325.4664885025929379
 40
0.0
 41
0.0
 42
0.0
 10
0.91344560986456
 20
327.5411301104470567
 40
0.0
 41
0.0
 42
0.0
 10
0.2305766351612348
 20
329.7922474346345894
 40
0.0
 41
0.0
 42
0.0
 10
0.0
 20
332.133331298828125
 40
0.0
 41
0.0
 42
0.0
 10
0.0
 20
547.0
 40
0.0
 41
0.0
 42
0.0
 10
0.0
 20
547.0
 40
0.0
 41
0.0
 42
0.0
 10
0.2305766351612348
 20
549.3410838641935925
 40
0.0
 41
0.0
 42
0.0
 10
0.9134456098645583
 20
551.5922011883810683
 40
0.0
 41
0.0
 42
0.0
 10
2.0223646523694541
 20
553.6668427962351871
 40
0.0
 41
0.0
 42
0.0
 10
3.5147186257614287
 20
555.4852813742385251
 40
0.0
 41
0.0
 42
0.0
 10
5.3331572037647739
 20
556.977635347630553
 40
0.0
 41
0.0
 42
0.0
 10
7.4077988116189157
 20
558.0865543901354613
 40
0.0
 41
0.0
 42
0.0
 10
9.6589161358064555
 20
558.7694233648387581
 40
0.0
 41
0.0
 42
0.0
 10
11.9999999999999982
 20
559.0
 40
0.0
 41
0.0
 42
0.0
  0
TEXT
  5
2B
330
1D
100
AcDbEntity
  8
0
  6
ByLayer
420
2105636
 48
1.0
 60
0
 67
0
370
-1
100
AcDbText
 39
0.0
 10
17.0
 20
491.0666656494140625
 30
0.0
 40
32.0
  1
Details / Summary
 50
0.0
 41
1.0
 51
0.0
  7
Standard
 71
0
 72
0
 11
0.0
 21
0.0
 31
0.0
210
0.0
220
0.0
230
1.0
100
AcDbText
 73
0
  0
HATCH
  5
2C
330
1D
100
AcDbEntity
  8
0
  6
ByLayer
420
16777215
 48
1.0
 60
0
 67
0
370
-1
100
AcDbHatch
 30
0.0
210
0.0
220
0.0
230
1.0
  2
SOLID
 70
1
 71
0
 91
1
 92
2
 72
0
 73
1
 93
41
 10
25.0
 20
456.133331298828125
 10
1207.0
 20
456.133331298828125
 10
1207.0
 20
456.133331298828125
 10
1208.5607225761291375
 20
455.9796135420539827
 10
1210.061467458920788
 20
455.5243675589184136
 10
1211.4445618641568672
 20
454.7850881972484558
 10
1212.6568542494924259
 20
453.790185548320494
 10
1213.6517568984204445
 20
452.5778931629849353
 10
1214.3910362600902317
 20
451.1947987577488561
 10
1214.8462822432259145
 20
449.6940538749571488
 10
1215.0
 20
448.133331298828125
 10
1215.0
 20
429.133331298828125
 10
1215.0
 20
429.133331298828125
 10
1214.8462822432259145
 20
427.5726087226991012
 10
1214.3910362600902317
 20
426.0718638399073939
 10
1213.6517568984204445
 20
424.6887694346713147
 10
1212.6568542494924259
 20
423.476477049335756
 10
1211.4445618641568672
 20
422.4815744004077942
 10
1210.061467458920788
 20
421.7422950387378364
 10
1208.5607225761291375
 20
421.2870490556022673
 10
1207.0
 20
421.133331298828125
 10
25.0
 20
421.133331298828125
 10
25.0
 20
421.133331298828125
 10
23.4392774238709762
 20
421.2870490556022673
 10
21.9385325410792831
 20
421.7422950387378364
 10
20.5554381358431826
 20
422.4815744004077942
 10
19.3431457505076203
 20
423.476477049335756
 10
18.3482431015796372
 20
424.6887694346713147
 10
17.6089637399097043
 20
426.0718638399073939
 10
17.1537177567741566
 20
427.5726087226991012
 10
17.0
 20
429.133331298828125
 10
17.0
 20
448.133331298828125
 10
17.0
 20
448.133331298828125
 10
17.1537177567741566
 20
449.6940538749571488
 10
17.6089637399097043
 20
451.1947987577488561
 10
18.3482431015796372
 20
452.5778931629849353
 10
19.3431457505076168
 20
453.790185548320494
 10
20.5554381358431826
 20
454.7850881972484558
 10
21.938532541079276
 20
455.5243675589184136
 10
23.4392774238709691
 20
455.9796135420539827
 10
25.0
 20
456.133331298828125
 97
0
 75
0
 76
1
 47
0.0
 98
0
  0
LWPOLYLINE
  5
2D
330
1D
100
AcDbEntity
  8
0
  6
ByLayer
420
13159633
 48
1.0
 60
0
 67
0
370
-1
100
AcDbPolyline
 90
41
 70
1
 43
0.0
 38
0.0
 39
0.0
210
0.0
220
0.0
230
1.0
 10
25.0
 20
456.133331298828125
 40
0.0
 41
0.0
 42
0.0
 10
1207.0
 20
456.133331298828125
 40
0.0
 41
0.0
 42
0.0
 10
1207.0
 20
456.133331298828125
 40
0.0
 41
0.0
 42
0.0
 10
1208.5607225761291375
 20
455.9796135420539827
 40
0.0
 41
0.0
 42
0.0
 10
1210.061467458920788
 20
455.5243675589184136
 40
0.0
 41
0.0
 42
0.0
 10
1211.4445618641568672
 20
454.7850881972484558
 40
0.0
 41
0.0
 42
0.0
 10
1212.6568542494924259
 20
453.790185548320494
 40
0.0
 41
0.0
 42
0.0
 10
1213.6517568984204445
 20
452.5778931629849353
 40
0.0
 41
0.0
 42
0.0
 10
1214.3910362600902317
 20
451.1947987577488561
 40
0.0
 41
0.0
 42
0.0
 10
1214.8462822432259145
 20
449.6940538749571488
 40
0.0
 41
0.0
 42
0.0
 10
1215.0
 20
448.133331298828125
 40
0.0
 41
0.0
 42
0.0
 10
1215.0
 20
429.133331298828125
 40
0.0
 41
0.0
 42
0.0
 10
1215.0
 20
429.133331298828125
 40
0.0
 41
0.0
 42
0.0
 10
1214.8462822432259145
 20
427.5726087226991012
 40
0.0
 41
0.0
 42
0.0
 10
1214.3910362600902317
 20
426.0718638399073939
 40
0.0
 41
0.0
 42
0.0
 10
1213.6517568984204445
 20
424.6887694346713147
 40
0.0
 41
0.0
 42
0.0
 10
1212.6568542494924259
 20
423.476477049335756
 40
0.0
 41
0.0
 42
0.0
 10
1211.4445618641568672
 20
422.4815744004077942
 40
0.0
 41
0.0
 42
0.0
 10
1210.061467458920788
 20
421.7422950387378364
 40
0.0
 41
0.0
 42
0.0
 10
1208.5607225761291375
 20
421.2870490556022673
 40
0.0
 41
0.0
 42
0.0
 10
1207.0
 20
421.133331298828125
 40
0.0
 41
0.0
 42
0.0
 10
25.0
 20
421.133331298828125
 40
0.0
 41
0.0
 42
0.0
 10
25.0
 20
421.133331298828125
 40
0.0
 41
0.0
 42
0.0
 10
23.4392774238709762
 20
421.2870490556022673
 40
0.0
 41
0.0
 42
0.0
 10
21.9385325410792831
 20
421.7422950387378364
 40
0.0
 41
0.0
 42
0.0
 10
20.5554381358431826
 20
422.4815744004077942
 40
0.0
 41
0.0
 42
0.0
 10
19.3431457505076203
 20
423.476477049335756
 40
0.0
 41
0.0
 42
0.0
 10
18.3482431015796372
 20
424.6887694346713147
 40
0.0
 41
0.0
 42
0.0
 10
17.6089637399097043
 20
426.0718638399073939
 40
0.0
 41
0.0
 42
0.0
 10
17.1537177567741566
 20
427.5726087226991012
 40
0.0
 41
0.0
 42
0.0
 10
17.0
 20
429.133331298828125
 40
0.0
 41
0.0
 42
0.0
 10
17.0
 20
448.133331298828125
 40
0.0
 41
0.0
 42
0.0
 10
17.0
 20
448.133331298828125
 40
0.0
 41
0.0
 42
0.0
 10
17.1537177567741566
 20
449.6940538749571488
 40
0.0
 41
0.0
 42
0.0
 10
17.6089637399097043
 20
451.1947987577488561
 40
0.0
 41
0.0
 42
0.0
 10
18.3482431015796372
 20
452.5778931629849353
 40
0.0
 41
0.0
 42
0.0
 10
19.3431457505076168
 20
453.790185548320494
 40
0.0
 41
0.0
 42
0.0
 10
20.5554381358431826
 20
454.7850881972484558
 40
0.0
 41
0.0
 42
0.0
 10
21.938532541079276
 20
455.5243675589184136
 40
0.0
 41
0.0
 42
0.0
 10
23.4392774238709691
 20
455.9796135420539827
 40
0.0
 41
0.0
 42
0.0
 10
25.0
 20
456.133331298828125
 40
0.0
 41
0.0
 42
0.0
  0
TEXT
  5
2E
330
1D
100
AcDbEntity
  8
0
  6
ByLayer
420
2105636
 48
1.0
 60
0
 67
0
370
-1
100
AcDbText
 39
0.0
 10
28.9083333015441895
 20
434.633331298828125
 30
0.0
 40
16.0
  1
?
 50
0.0
 41
1.0
 51
0.0
  7
Standard
 71
0
 72
0
 11
0.0
 21
0.0
 31
0.0
210
0.0
220
0.0
230
1.0
100
AcDbText
 73
0
  0
TEXT
  5
2F
330
1D
100
AcDbEntity
  8
0
  6
ByLayer
420
2105636
 48
1.0
 60
0
 67
0
370
-1
100
AcDbText
 39
0.0
 10
42.0833358764648438
 20
434.633331298828125
 30
0.0
 40
16.0
  1
Closed summary (content must stay hidden)
 50
0.0
 41
1.0
 51
0.0
  7
Standard
 71
0
 72
0
 11
0.0
 21
0.0
 31
0.0
210
0.0
220
0.0
230
1.0
100
AcDbText
 73
0
  0
HATCH
  5
30
330
1D
100
AcDbEntity
  8
0
  6
ByLayer
420
16777215
 48
1.0
 60
0
 67
0
370
-1
100
AcDbHatch
 30
0.0
210
0.0
220
0.0
230
1.0
  2
SOLID
 70
1
 71
0
 91
1
 92
2
 72
0
 73
1
 93
41
 10
25.0
 20
411.133331298828125
 10
1207.0
 20
411.133331298828125
 10
1207.0
 20
411.133331298828125
 10
1208.5607225761291375
 20
410.9796135420539827
 10
1210.061467458920788
 20
410.5243675589184136
 10
1211.4445618641568672
 20
409.7850881972484558
 10
1212.6568542494924259
 20
408.790185548320494
 10
1213.6517568984204445
 20
407.5778931629849353
 10
1214.3910362600902317
 20
406.1947987577488561
 10
1214.8462822432259145
 20
404.6940538749571488
 10
1215.0
 20
403.133331298828125
 10
1215.0
 20
355.133331298828125
 10
1215.0
 20
355.133331298828125
 10
1214.8462822432259145
 20
353.5726087226991012
 10
1214.3910362600902317
 20
352.0718638399073939
 10
1213.6517568984204445
 20
350.6887694346713147
 10
1212.6568542494924259
 20
349.476477049335756
 10
1211.4445618641568672
 20
348.4815744004077942
 10
1210.061467458920788
 20
347.7422950387378364
 10
1208.5607225761291375
 20
347.2870490556022673
 10
1207.0
 20
347.133331298828125
 10
25.0
 20
347.133331298828125
 10
25.0
 20
347.133331298828125
 10
23.4392774238709762
 20
347.2870490556022673
 10
21.9385325410792831
 20
347.7422950387378364
 10
20.5554381358431826
 20
348.4815744004077942
 10
19.3431457505076203
 20
349.476477049335756
 10
18.3482431015796372
 20
350.6887694346713147
 10
17.6089637399097043
 20
352.0718638399073939
 10
17.1537177567741566
 20
353.5726087226991012
 10
17.0
 20
355.133331298828125
 10
17.0
 20
403.133331298828125
 10
17.0
 20
403.133331298828125
 10
17.1537177567741566
 20
404.6940538749571488
 10
17.6089637399097043
 20
406.1947987577488561
 10
18.3482431015796372
 20
407.5778931629849353
 10
19.3431457505076168
 20
408.790185548320494
 10
20.5554381358431826
 20
409.7850881972484558
 10
21.938532541079276
 20
410.5243675589184136
 10
23.4392774238709691
 20
410.9796135420539258
 10
25.0
 20
411.133331298828125
 97
0
 75
0
 76
1
 47
0.0
 98
0
  0
LWPOLYLINE
  5
31
330
1D
100
AcDbEntity
  8
0
  6
ByLayer
420
13159633
 48
1.0
 60
0
 67
0
370
-1
100
AcDbPolyline
 90
41
 70
1
 43
0.0
 38
0.0
 39
0.0
210
0.0
220
0.0
230
1.0
 10
25.0
 20
411.133331298828125
 40
0.0
 41
0.0
 42
0.0
 10
1207.0
 20
411.133331298828125
 40
0.0
 41
0.0
 42
0.0
 10
1207.0
 20
411.133331298828125
 40
0.0
 41
0.0
 42
0.0
 10
1208.5607225761291375
 20
410.9796135420539827
 40
0.0
 41
0.0
 42
0.0
 10
1210.061467458920788
 20
410.5243675589184136
 40
0.0
 41
0.0
 42
0.0
 10
1211.4445618641568672
 20
409.7850881972484558
 40
0.0
 41
0.0
 42
0.0
 10
1212.6568542494924259
 20
408.790185548320494
 40
0.0
 41
0.0
 42
0.0
 10
1213.6517568984204445
 20
407.5778931629849353
 40
0.0
 41
0.0
 42
0.0
 10
1214.3910362600902317
 20
406.1947987577488561
 40
0.0
 41
0.0
 42
0.0
 10
1214.8462822432259145
 20
404.6940538749571488
 40
0.0
 41
0.0
 42
0.0
 10
1215.0
 20
403.133331298828125
 40
0.0
 41
0.0
 42
0.0
 10
1215.0
 20
355.133331298828125
 40
0.0
 41
0.0
 42
0.0
 10
1215.0
 20
355.133331298828125
 40
0.0
 41
0.0
 42
0.0
 10
1214.8462822432259145
 20
353.5726087226991012
 40
0.0
 41
0.0
 42
0.0
 10
1214.3910362600902317
 20
352.0718638399073939
 40
0.0
 41
0.0
 42
0.0
 10
1213.6517568984204445
 20
350.6887694346713147
 40
0.0
 41
0.0
 42
0.0
 10
1212.6568542494924259
 20
349.476477049335756
 40
0.0
 41
0.0
 42
0.0
 10
1211.4445618641568672
 20
348.4815744004077942
 40
0.0
 41
0.0
 42
0.0
 10
1210.061467458920788
 20
347.7422950387378364
 40
0.0
 41
0.0
 42
0.0
 10
1208.5607225761291375
 20
347.2870490556022673
 40
0.0
 41
0.0
 42
0.0
 10
1207.0
 20
347.133331298828125
 40
0.0
 41
0.0
 42
0.0
 10
25.0
 20
347.133331298828125
 40
0.0
 41
0.0
 42
0.0
 10
25.0
 20
347.133331298828125
 40
0.0
 41
0.0
 42
0.0
 10
23.4392774238709762
 20
347.2870490556022673
 40
0.0
 41
0.0
 42
0.0
 10
21.9385325410792831
 20
347.7422950387378364
 40
0.0
 41
0.0
 42
0.0
 10
20.5554381358431826
 20
348.4815744004077942
 40
0.0
 41
0.0
 42
0.0
 10
19.3431457505076203
 20
349.476477049335756
 40
0.0
 41
0.0
 42
0.0
 10
18.3482431015796372
 20
350.6887694346713147
 40
0.0
 41
0.0
 42
0.0
 10
17.6089637399097043
 20
352.0718638399073939
 40
0.0
 41
0.0
 42
0.0
 10
17.1537177567741566
 20
353.5726087226991012
 40
0.0
 41
0.0
 42
0.0
 10
17.0
 20
355.133331298828125
 40
0.0
 41
0.0
 42
0.0
 10
17.0
 20
403.133331298828125
 40
0.0
 41
0.0
 42
0.0
 10
17.0
 20
403.133331298828125
 40
0.0
 41
0.0
 42
0.0
 10
17.1537177567741566
 20
404.6940538749571488
 40
0.0
 41
0.0
 42
0.0
 10
17.6089637399097043
 20
406.1947987577488561
 40
0.0
 41
0.0
 42
0.0
 10
18.3482431015796372
 20
407.5778931629849353
 40
0.0
 41
0.0
 42
0.0
 10
19.3431457505076168
 20
408.790185548320494
 40
0.0
 41
0.0
 42
0.0
 10
20.5554381358431826
 20
409.7850881972484558
 40
0.0
 41
0.0
 42
0.0
 10
21.938532541079276
 20
410.5243675589184136
 40
0.0
 41
0.0
 42
0.0
 10
23.4392774238709691
 20
410.9796135420539258
 40
0.0
 41
0.0
 42
0.0
 10
25.0
 20
411.133331298828125
 40
0.0
 41
0.0
 42
0.0
  0
TEXT
  5
32
330
1D
100
AcDbEntity
  8
0
  6
ByLayer
420
2105636
 48
1.0
 60
0
 67
0
370
-1
100
AcDbText
 39
0.0
 10
28.9083333015441895
 20
389.633331298828125
 30
0.0
 40
16.0
  1
?
 50
0.0
 41
1.0
 51
0.0
  7
Standard
 71
0
 72
0
 11
0.0
 21
0.0
 31
0.0
210
0.0
220
0.0
230
1.0
100
AcDbText
 73
0
  0
TEXT
  5
33
330
1D
100
AcDbEntity
  8
0
  6
ByLayer
420
2105636
 48
1.0
 60
0
 67
0
370
-1
100
AcDbText
 39
0.0
 10
42.0833358764648438
 20
389.633331298828125
 30
0.0
 40
16.0
  1
Open summary (content should be exported)
 50
0.0
 41
1.0
 51
0.0
  7
Standard
 71
0
 72
0
 11
0.0
 21
0.0
 31
0.0
210
0.0
220
0.0
230
1.0
100
AcDbText
 73
0
  0
TEXT
  5
34
330
1D
100
AcDbEntity
  8
0
  6
ByLayer
420
4475216
 48
1.0
 60
0
 67
0
370
-1
100
AcDbText
 39
0.0
 10
28.0
 20
360.633331298828125
 30
0.0
 40
16.0
  1
This text should be exported because details is open.
 50
0.0
 41
1.0
 51
0.0
  7
Standard
 71
0
 72
0
 11
0.0
 21
0.0
 31
0.0
210
0.0
220
0.0
230
1.0
100
AcDbText
 73
0
  0
HATCH
  5
35
330
1D
100
AcDbEntity
  8
0
  6
ByLayer
420
16777215
 48
1.0
 60
0
 67
0
370
-1
100
AcDbHatch
 30
0.0
210
0.0
220
0.0
230
1.0
  2
SOLID
 70
1
 71
0
 91
1
 92
2
 72
0
 73
1
 93
41
 10
12.0
 20
304.133331298828125
 10
1220.0
 20
304.133331298828125
 10
1220.0
 20
304.133331298828125
 10
1222.3410838641934788
 20
303.9027546636668831
 10
1224.5922011883810683
 20
303.2198856889635863
 10
1226.6668427962351871
 20
302.110966646458678
 10
1228.4852813742386388
 20
300.618612673066707
 10
1229.9776353476304394
 20
298.8001740950633689
 10
1231.0865543901354613
 20
296.7255324872091933
 10
1231.7694233648387581
 20
294.4744151630216606
 10
1232.0
 20
292.133331298828125
 10
1232.0
 20
12.29998779296875
 10
1232.0
 20
12.29998779296875
 10
1231.7694233648387581
 20
9.9589039287751575
 10
1231.0865543901354613
 20
7.7077866045876817
 10
1229.9776353476304394
 20
5.6331449967335629
 10
1228.4852813742386388
 20
3.8147064187302249
 10
1226.6668427962351871
 20
2.322352445338197
 10
1224.5922011883810683
 20
1.2134334028332887
 10
1222.3410838641934788
 20
0.5305644281299919
 10
1220.0
 20
0.29998779296875
 10
12.0
 20
0.29998779296875
 10
12.0
 20
0.29998779296875
 10
9.6589161358064608
 20
0.5305644281299919
 10
7.4077988116189228
 20
1.2134334028332887
 10
5.3331572037647765
 20
2.322352445338197
 10
3.5147186257614305
 20
3.8147064187302249
 10
2.0223646523694558
 20
5.6331449967335629
 10
0.91344560986456
 20
7.7077866045876817
 10
0.2305766351612348
 20
9.9589039287751575
 10
0.0
 20
12.29998779296875
 10
0.0
 20
292.133331298828125
 10
0.0
 20
292.133331298828125
 10
0.2305766351612348
 20
294.4744151630216606
 10
0.9134456098645583
 20
296.7255324872091933
 10
2.0223646523694541
 20
298.8001740950633689
 10
3.5147186257614287
 20
300.618612673066707
 10
5.3331572037647739
 20
302.110966646458678
 10
7.4077988116189157
 20
303.2198856889635863
 10
9.6589161358064555
 20
303.9027546636668831
 10
11.9999999999999982
 20
304.133331298828125
 97
0
 75
0
 76
1
 47
0.0
 98
0
  0
LWPOLYLINE
  5
36
330
1D
100
AcDbEntity
  8
0
  6
ByLayer
420
14146013
 48
1.0
 60
0
 67
0
370
-1
100
AcDbPolyline
 90
41
 70
1
 43
0.0
 38
0.0
 39
0.0
210
0.0
220
0.0
230
1.0
 10
12.0
 20
304.133331298828125
 40
0.0
 41
0.0
 42
0.0
 10
1220.0
 20
304.133331298828125
 40
0.0
 41
0.0
 42
0.0
 10
1220.0
 20
304.133331298828125
 40
0.0
 41
0.0
 42
0.0
 10
1222.3410838641934788
 20
303.9027546636668831
 40
0.0
 41
0.0
 42
0.0
 10
1224.5922011883810683
 20
303.2198856889635863
 40
0.0
 41
0.0
 42
0.0
 10
1226.6668427962351871
 20
302.110966646458678
 40
0.0
 41
0.0
 42
0.0
 10
1228.4852813742386388
 20
300.618612673066707
 40
0.0
 41
0.0
 42
0.0
 10
1229.9776353476304394
 20
298.8001740950633689
 40
0.0
 41
0.0
 42
0.0
 10
1231.0865543901354613
 20
296.7255324872091933
 40
0.0
 41
0.0
 42
0.0
 10
1231.7694233648387581
 20
294.4744151630216606
 40
0.0
 41
0.0
 42
0.0
 10
1232.0
 20
292.133331298828125
 40
0.0
 41
0.0
 42
0.0
 10
1232.0
 20
12.29998779296875
 40
0.0
 41
0.0
 42
0.0
 10
1232.0
 20
12.29998779296875
 40
0.0
 41
0.0
 42
0.0
 10
1231.7694233648387581
 20
9.9589039287751575
 40
0.0
 41
0.0
 42
0.0
 10
1231.0865543901354613
 20
7.7077866045876817
 40
0.0
 41
0.0
 42
0.0
 10
1229.9776353476304394
 20
5.6331449967335629
 40
0.0
 41
0.0
 42
0.0
 10
1228.4852813742386388
 20
3.8147064187302249
 40
0.0
 41
0.0
 42
0.0
 10
1226.6668427962351871
 20
2.322352445338197
 40
0.0
 41
0.0
 42
0.0
 10
1224.5922011883810683
 20
1.2134334028332887
 40
0.0
 41
0.0
 42
0.0
 10
1222.3410838641934788
 20
0.5305644281299919
 40
0.0
 41
0.0
 42
0.0
 10
1220.0
 20
0.29998779296875
 40
0.0
 41
0.0
 42
0.0
 10
12.0
 20
0.29998779296875
 40
0.0
 41
0.0
 42
0.0
 10
12.0
 20
0.29998779296875
 40
0.0
 41
0.0
 42
0.0
 10
9.6589161358064608
 20
0.5305644281299919
 40
0.0
 41
0.0
 42
0.0
 10
7.4077988116189228
 20
1.2134334028332887
 40
0.0
 41
0.0
 42
0.0
 10
5.3331572037647765
 20
2.322352445338197
 40
0.0
 41
0.0
 42
0.0
 10
3.5147186257614305
 20
3.8147064187302249
 40
0.0
 41
0.0
 42
0.0
 10
2.0223646523694558
 20
5.6331449967335629
 40
0.0
 41
0.0
 42
0.0
 10
0.91344560986456
 20
7.7077866045876817
 40
0.0
 41
0.0
 42
0.0
 10
0.2305766351612348
 20
9.9589039287751575
 40
0.0
 41
0.0
 42
0.0
 10
0.0
 20
12.29998779296875
 40
0.0
 41
0.0
 42
0.0
 10
0.0
 20
292.133331298828125
 40
0.0
 41
0.0
 42
0.0
 10
0.0
 20
292.133331298828125
 40
0.0
 41
0.0
 42
0.0
 10
0.2305766351612348
 20
294.4744151630216606
 40
0.0
 41
0.0
 42
0.0
 10
0.9134456098645583
 20
296.7255324872091933
 40
0.0
 41
0.0
 42
0.0
 10
2.0223646523694541
 20
298.8001740950633689
 40
0.0
 41
0.0
 42
0.0
 10
3.5147186257614287
 20
300.618612673066707
 40
0.0
 41
0.0
 42
0.0
 10
5.3331572037647739
 20
302.110966646458678
 40
0.0
 41
0.0
 42
0.0
 10
7.4077988116189157
 20
303.2198856889635863
 40
0.0
 41
0.0
 42
0.0
 10
9.6589161358064555
 20
303.9027546636668831
 40
0.0
 41
0.0
 42
0.0
 10
11.9999999999999982
 20
304.133331298828125
 40
0.0
 41
0.0
 42
0.0
  0
TEXT
  5
37
330
1D
100
AcDbEntity
  8
0
  6
ByLayer
420
2105636
 48
1.0
 60
0
 67
0
370
-1
100
AcDbText
 39
0.0
 10
17.0
 20
245.2166748046875
 30
0.0
 40
24.0
  1
Compat Table Mimic
 50
0.0
 41
1.0
 51
0.0
  7
Standard
 71
0
 72
0
 11
0.0
 21
0.0
 31
0.0
210
0.0
220
0.0
230
1.0
100
AcDbText
 73
0
  0
HATCH
  5
38
330
1D
100
AcDbEntity
  8
0
  6
ByLayer
420
16777215
 48
1.0
 60
0
 67
0
370
-1
100
AcDbHatch
 30
0.0
210
0.0
220
0.0
230
1.0
  2
SOLID
 70
1
 71
0
 91
1
 92
2
 72
0
 73
1
 93
4
 10
17.0
 20
215.29998779296875
 10
1215.0
 20
215.29998779296875
 10
1215.0
 20
17.29998779296875
 10
17.0
 20
17.29998779296875
 97
0
 75
0
 76
1
 47
0.0
 98
0
  0
LWPOLYLINE
  5
39
330
1D
100
AcDbEntity
  8
0
  6
ByLayer
420
16777215
 48
1.0
 60
0
 67
0
370
-1
100
AcDbPolyline
 90
4
 70
1
 43
0.0
 38
0.0
 39
0.0
210
0.0
220
0.0
230
1.0
 10
17.0
 20
215.29998779296875
 40
0.0
 41
0.0
 42
0.0
 10
1215.0
 20
215.29998779296875
 40
0.0
 41
0.0
 42
0.0
 10
1215.0
 20
17.29998779296875
 40
0.0
 41
0.0
 42
0.0
 10
17.0
 20
17.29998779296875
 40
0.0
 41
0.0
 42
0.0
  0
LWPOLYLINE
  5
3A
330
1D
100
AcDbEntity
  8
0
  6
ByLayer
420
14014428
 48
1.0
 60
0
 67
0
370
-1
100
AcDbPolyline
 90
4
 70
1
 43
0.0
 38
0.0
 39
0.0
210
0.0
220
0.0
230
1.0
 10
17.5
 20
214.79998779296875
 40
0.0
 41
0.0
 42
0.0
 10
316.75
 20
214.79998779296875
 40
0.0
 41
0.0
 42
0.0
 10
316.75
 20
176.79998779296875
 40
0.0
 41
0.0
 42
0.0
 10
17.5
 20
176.79998779296875
 40
0.0
 41
0.0
 42
0.0
  0
TEXT
  5
3B
330
1D
100
AcDbEntity
  8
0
  6
ByLayer
420
2105636
 48
1.0
 60
0
 67
0
370
-1
100
AcDbText
 39
0.0
 10
138.899993896484375
 20
191.79998779296875
 30
0.0
 40
16.0
  1
Feature
 50
0.0
 41
1.0
 51
0.0
  7
Standard
 71
0
 72
0
 11
0.0
 21
0.0
 31
0.0
210
0.0
220
0.0
230
1.0
100
AcDbText
 73
0
  0
LWPOLYLINE
  5
3C
330
1D
100
AcDbEntity
  8
0
  6
ByLayer
420
14014428
 48
1.0
 60
0
 67
0
370
-1
100
AcDbPolyline
 90
4
 70
1
 43
0.0
 38
0.0
 39
0.0
210
0.0
220
0.0
230
1.0
 10
316.75
 20
214.79998779296875
 40
0.0
 41
0.0
 42
0.0
 10
915.25
 20
214.79998779296875
 40
0.0
 41
0.0
 42
0.0
 10
915.25
 20
176.79998779296875
 40
0.0
 41
0.0
 42
0.0
 10
316.75
 20
176.79998779296875
 40
0.0
 41
0.0
 42
0.0
  0
TEXT
  5
3D
330
1D
100
AcDbEntity
  8
0
  6
ByLayer
420
2105636
 48
1.0
 60
0
 67
0
370
-1
100
AcDbText
 39
0.0
 10
552.54998779296875
 20
191.79998779296875
 30
0.0
 40
16.0
  1
Browser Support
 50
0.0
 41
1.0
 51
0.0
  7
Standard
 71
0
 72
0
 11
0.0
 21
0.0
 31
0.0
210
0.0
220
0.0
230
1.0
100
AcDbText
 73
0
  0
LWPOLYLINE
  5
3E
330
1D
100
AcDbEntity
  8
0
  6
ByLayer
420
14014428
 48
1.0
 60
0
 67
0
370
-1
100
AcDbPolyline
 90
4
 70
1
 43
0.0
 38
0.0
 39
0.0
210
0.0
220
0.0
230
1.0
 10
17.5
 20
176.79998779296875
 40
0.0
 41
0.0
 42
0.0
 10
316.75
 20
176.79998779296875
 40
0.0
 41
0.0
 42
0.0
 10
316.75
 20
55.79998779296875
 40
0.0
 41
0.0
 42
0.0
 10
17.5
 20
55.79998779296875
 40
0.0
 41
0.0
 42
0.0
  0
TEXT
  5
3F
330
1D
100
AcDbEntity
  8
0
  6
ByLayer
420
2105636
 48
1.0
 60
0
 67
0
370
-1
100
AcDbText
 39
0.0
 10
171.125
 20
88.199981689453125
 30
0.0
 40
16.0
  1
Chrome
 50
90.0
 41
1.0
 51
0.0
  7
Standard
 71
0
 72
0
 11
0.0
 21
0.0
 31
0.0
210
0.0
220
0.0
230
1.0
100
AcDbText
 73
0
  0
LWPOLYLINE
  5
40
330
1D
100
AcDbEntity
  8
0
  6
ByLayer
420
14014428
 48
1.0
 60
0
 67
0
370
-1
100
AcDbPolyline
 90
4
 70
1
 43
0.0
 38
0.0
 39
0.0
210
0.0
220
0.0
230
1.0
 10
316.75
 20
176.79998779296875
 40
0.0
 41
0.0
 42
0.0
 10
616.0
 20
176.79998779296875
 40
0.0
 41
0.0
 42
0.0
 10
616.0
 20
55.79998779296875
 40
0.0
 41
0.0
 42
0.0
 10
316.75
 20
55.79998779296875
 40
0.0
 41
0.0
 42
0.0
  0
TEXT
  5
41
330
1D
100
AcDbEntity
  8
0
  6
ByLayer
420
2105636
 48
1.0
 60
0
 67
0
370
-1
100
AcDbText
 39
0.0
 10
470.375
 20
91.48333740234375
 30
0.0
 40
16.0
  1
Firefox
 50
90.0
 41
1.0
 51
0.0
  7
Standard
 71
0
 72
0
 11
0.0
 21
0.0
 31
0.0
210
0.0
220
0.0
230
1.0
100
AcDbText
 73
0
  0
LWPOLYLINE
  5
42
330
1D
100
AcDbEntity
  8
0
  6
ByLayer
420
14014428
 48
1.0
 60
0
 67
0
370
-1
100
AcDbPolyline
 90
4
 70
1
 43
0.0
 38
0.0
 39
0.0
210
0.0
220
0.0
230
1.0
 10
616.0
 20
176.79998779296875
 40
0.0
 41
0.0
 42
0.0
 10
915.25
 20
176.79998779296875
 40
0.0
 41
0.0
 42
0.0
 10
915.25
 20
55.79998779296875
 40
0.0
 41
0.0
 42
0.0
 10
616.0
 20
55.79998779296875
 40
0.0
 41
0.0
 42
0.0
  0
TEXT
  5
43
330
1D
100
AcDbEntity
  8
0
  6
ByLayer
420
2105636
 48
1.0
 60
0
 67
0
370
-1
100
AcDbText
 39
0.0
 10
769.624969482421875
 20
96.050018310546875
 30
0.0
 40
16.0
  1
Safari
 50
90.0
 41
1.0
 51
0.0
  7
Standard
 71
0
 72
0
 11
0.0
 21
0.0
 31
0.0
210
0.0
220
0.0
230
1.0
100
AcDbText
 73
0
  0
LWPOLYLINE
  5
44
330
1D
100
AcDbEntity
  8
0
  6
ByLayer
420
14014428
 48
1.0
 60
0
 67
0
370
-1
100
AcDbPolyline
 90
4
 70
1
 43
0.0
 38
0.0
 39
0.0
210
0.0
220
0.0
230
1.0
 10
17.5
 20
55.79998779296875
 40
0.0
 41
0.0
 42
0.0
 10
316.75
 20
55.79998779296875
 40
0.0
 41
0.0
 42
0.0
 10
316.75
 20
17.79998779296875
 40
0.0
 41
0.0
 42
0.0
 10
17.5
 20
17.79998779296875
 40
0.0
 41
0.0
 42
0.0
  0
TEXT
  5
45
330
1D
100
AcDbEntity
  8
0
  6
ByLayer
420
2105636
 48
1.0
 60
0
 67
0
370
-1
100
AcDbText
 39
0.0
 10
120.0333404541015625
 20
32.79998779296875
 30
0.0
 40
16.0
  1
Simple tables
 50
0.0
 41
1.0
 51
0.0
  7
Standard
 71
0
 72
0
 11
0.0
 21
0.0
 31
0.0
210
0.0
220
0.0
230
1.0
100
AcDbText
 73
0
  0
LWPOLYLINE
  5
46
330
1D
100
AcDbEntity
  8
0
  6
ByLayer
420
14014428
 48
1.0
 60
0
 67
0
370
-1
100
AcDbPolyline
 90
4
 70
1
 43
0.0
 38
0.0
 39
0.0
210
0.0
220
0.0
230
1.0
 10
316.75
 20
55.79998779296875
 40
0.0
 41
0.0
 42
0.0
 10
616.0
 20
55.79998779296875
 40
0.0
 41
0.0
 42
0.0
 10
616.0
 20
17.79998779296875
 40
0.0
 41
0.0
 42
0.0
 10
316.75
 20
17.79998779296875
 40
0.0
 41
0.0
 42
0.0
  0
LWPOLYLINE
  5
47
330
1D
100
AcDbEntity
  8
0
  6
ByLayer
420
14014428
 48
1.0
 60
0
 67
0
370
-1
100
AcDbPolyline
 90
4
 70
1
 43
0.0
 38
0.0
 39
0.0
210
0.0
220
0.0
230
1.0
 10
616.0
 20
55.79998779296875
 40
0.0
 41
0.0
 42
0.0
 10
915.25
 20
55.79998779296875
 40
0.0
 41
0.0
 42
0.0
 10
915.25
 20
17.79998779296875
 40
0.0
 41
0.0
 42
0.0
 10
616.0
 20
17.79998779296875
 40
0.0
 41
0.0
 42
0.0
  0
LWPOLYLINE
  5
48
330
1D
100
AcDbEntity
  8
0
  6
ByLayer
420
14014428
 48
1.0
 60
0
 67
0
370
-1
100
AcDbPolyline
 90
4
 70
1
 43
0.0
 38
0.0
 39
0.0
210
0.0
220
0.0
230
1.0
 10
915.25
 20
55.79998779296875
 40
0.0
 41
0.0
 42
0.0
 10
1214.5
 20
55.79998779296875
 40
0.0
 41
0.0
 42
0.0
 10
1214.5
 20
17.79998779296875
 40
0.0
 41
0.0
 42
0.0
 10
915.25
 20
17.79998779296875
 40
0.0
 41
0.0
 42
0.0
  0
ENDSEC
  0
SECTION
  2
OBJECTS
  0
DICTIONARY
  5
1
330
0
100
AcDbDictionary
280
0
281
0
  3
ACAD_COLOR
350
2
  3
ACAD_GROUP
350
3
  3
ACAD_LAYOUT
350
4
  3
ACAD_MATERIAL
350
5
  3
ACAD_SORTENTS
350
6
  3
ACAD_MLEADERSTYLE
350
7
  3
ACAD_MLINESTYLE
350
8
  3
ACAD_TABLESTYLE
350
9
  3
ACAD_PLOTSETTINGS
350
A
  3
AcDbVariableDictionary
350
B
  3
ACAD_SCALELIST
350
C
  3
ACAD_VISUALSTYLE
350
D
  3
ACAD_FIELDLIST
350
E
  3
ACAD_IMAGE_DICT
350
F
  0
DICTIONARY
  5
2
330
1
100
AcDbDictionary
280
0
281
0
  0
DICTIONARY
  5
3
330
1
100
AcDbDictionary
280
0
281
0
  0
DICTIONARY
  5
4
330
1
100
AcDbDictionary
280
0
281
0
  0
DICTIONARY
  5
5
330
1
100
AcDbDictionary
280
0
281
0
  0
DICTIONARY
  5
6
330
1
100
AcDbDictionary
280
0
281
0
  0
DICTIONARY
  5
7
330
1
100
AcDbDictionary
280
0
281
0
  0
DICTIONARY
  5
8
330
1
100
AcDbDictionary
280
0
281
0
  0
DICTIONARY
  5
9
330
1
100
AcDbDictionary
280
0
281
0
  0
DICTIONARY
  5
A
330
1
100
AcDbDictionary
280
0
281
0
  0
DICTIONARY
  5
B
330
1
100
AcDbDictionary
280
0
281
0
  0
DICTIONARY
  5
C
330
1
100
AcDbDictionary
280
0
281
0
  0
DICTIONARY
  5
D
330
1
100
AcDbDictionary
280
0
281
0
  0
DICTIONARY
  5
E
330
1
100
AcDbDictionary
280
0
281
0
  0
DICTIONARY
  5
F
330
1
100
AcDbDictionary
280
0
281
0
  0
ENDSEC
  0
EOF
