0
SECTION
2
HEADER
9
$ACADVER
1
AC1021
9
$LASTSAVEDBY
1
@tarikjabiri/dxf
9
$HANDSEED
5
44
9
$INSUNITS
70
0
9
$CLAYER
8
0
9
$VIEWCTR
10
574.5
20
261.9333267211914
0
ENDSEC
0
SECTION
2
CLASSES
0
ENDSEC
0
SECTION
2
TABLES
0
TABLE
2
VPORT
5
1
330
0
100
AcDbSymbolTable
70
1
0
VPORT
5
19
330
1
100
AcDbSymbolTableRecord
100
AcDbViewportTableRecord
2
*Active
70
0
10
0
20
0
11
1
21
1
12
574.5
22
261.9333267211914
13
0
23
0
14
10
24
10
15
10
25
10
16
0
26
0
36
1
17
0
27
0
37
0
40
658.2666778564453
41
2
42
50
43
0
44
0
50
0
51
0
71
0
72
100
73
1
74
3
75
0
76
1
77
0
78
0
281
0
65
1
110
0
120
0
130
0
111
1
121
0
131
0
112
0
122
1
132
0
79
0
146
0
348
10020
60
7
61
5
292
1
282
1
141
0
142
0
63
250
421
3358443
0
ENDTAB
0
TABLE
2
LTYPE
5
2
330
0
100
AcDbSymbolTable
70
3
0
LTYPE
5
12
330
2
100
AcDbSymbolTableRecord
100
AcDbLinetypeTableRecord
2
ByBlock
70
0
3

72
65
73
0
40
0
0
LTYPE
5
13
330
2
100
AcDbSymbolTableRecord
100
AcDbLinetypeTableRecord
2
ByLayer
70
0
3

72
65
73
0
40
0
0
LTYPE
5
14
330
2
100
AcDbSymbolTableRecord
100
AcDbLinetypeTableRecord
2
Continuous
70
0
3
Solid line
72
65
73
0
40
0
0
ENDTAB
0
TABLE
2
LAYER
5
3
330
0
100
AcDbSymbolTable
70
1
0
LAYER
5
15
330
3
100
AcDbSymbolTableRecord
100
AcDbLayerTableRecord
2
0
70
0
62
7
6
Continuous
370
0
390
0
0
ENDTAB
0
TABLE
2
STYLE
5
4
330
0
100
AcDbSymbolTable
70
3
0
STYLE
5
16
330
4
100
AcDbSymbolTableRecord
100
AcDbTextStyleTableRecord
2
Standard
70
0
40
0
41
1
50
0
71
0
42
1
3
txt
4

0
STYLE
5
1D
330
4
100
AcDbSymbolTableRecord
100
AcDbTextStyleTableRecord
2
Segoe UI
70
0
40
0
41
1
50
0
71
0
42
1
3
Segoe UI.ttf
4

0
STYLE
5
20
330
4
100
AcDbSymbolTableRecord
100
AcDbTextStyleTableRecord
2
-moz-bullet-font
70
0
40
0
41
1
50
0
71
0
42
1
3
-moz-bullet-font.ttf
4

0
ENDTAB
0
TABLE
2
VIEW
5
5
330
0
100
AcDbSymbolTable
70
0
0
ENDTAB
0
TABLE
2
UCS
5
6
330
0
100
AcDbSymbolTable
70
0
0
ENDTAB
0
TABLE
2
APPID
5
7
330
0
100
AcDbSymbolTable
70
1
0
APPID
5
17
330
7
100
AcDbSymbolTableRecord
100
AcDbRegAppTableRecord
2
ACAD
70
0
0
ENDTAB
0
TABLE
2
DIMSTYLE
5
8
330
0
100
AcDbSymbolTable
70
1
100
AcDbDimStyleTable
0
DIMSTYLE
105
18
330
8
100
AcDbSymbolTableRecord
100
AcDbDimStyleTableRecord
2
Standard
70
0
340
16
0
ENDTAB
0
TABLE
2
BLOCK_RECORD
5
9
330
0
100
AcDbSymbolTable
70
2
0
BLOCK_RECORD
5
C
330
9
100
AcDbSymbolTableRecord
100
AcDbBlockTableRecord
2
*Model_Space
70
0
280
1
281
0
0
BLOCK_RECORD
5
F
330
9
100
AcDbSymbolTableRecord
100
AcDbBlockTableRecord
2
*Paper_Space
70
0
280
1
281
0
0
ENDTAB
0
ENDSEC
0
SECTION
2
BLOCKS
0
BLOCK
5
D
330
C
100
AcDbEntity
8
0
100
AcDbBlockBegin
2
*Model_Space
70
0
10
0
20
0
30
0
3
*Model_Space
1

0
ENDBLK
5
E
100
AcDbEntity
8
0
100
AcDbBlockEnd
0
BLOCK
5
10
330
F
100
AcDbEntity
8
0
100
AcDbBlockBegin
2
*Paper_Space
70
0
10
0
20
0
30
0
3
*Paper_Space
1

0
ENDBLK
5
11
100
AcDbEntity
8
0
100
AcDbBlockEnd
0
ENDSEC
0
SECTION
2
ENTITIES
0
LWPOLYLINE
5
1A
330
C
100
AcDbEntity
420
16185337
8
0
100
AcDbPolyline
90
5
70
0
43
0
38
0
39
0
10
0
20
559
10
1232
20
559
10
1232
20
0.29998779296875
10
0
20
0.29998779296875
10
0
20
559
0
LWPOLYLINE
5
1B
330
C
100
AcDbEntity
420
14146013
8
0
100
AcDbPolyline
90
42
70
0
43
0
38
0
39
0
10
12
20
559
10
1220
20
559
10
1220
20
559
10
1222.3410838641935
20
558.7694233648388
10
1224.592201188381
20
558.0865543901355
10
1226.6668427962352
20
556.9776353476306
10
1228.4852813742386
20
555.4852813742385
10
1229.9776353476304
20
553.6668427962352
10
1231.0865543901355
20
551.5922011883811
10
1231.7694233648388
20
549.3410838641936
10
1232
20
547
10
1232
20
332.1333312988281
10
1232
20
332.1333312988281
10
1231.7694233648388
20
329.7922474346346
10
1231.0865543901355
20
327.54113011044706
10
1229.9776353476304
20
325.46648850259294
10
1228.4852813742386
20
323.64804992458954
10
1226.6668427962352
20
322.1556959511976
10
1224.592201188381
20
321.04677690869266
10
1222.3410838641935
20
320.36390793398937
10
1220
20
320.1333312988281
10
12
20
320.1333312988281
10
12
20
320.1333312988281
10
9.65891613580646
20
320.36390793398937
10
7.407798811618923
20
321.04677690869266
10
5.3331572037647765
20
322.1556959511976
10
3.5147186257614305
20
323.64804992458954
10
2.022364652369456
20
325.46648850259294
10
0.91344560986456
20
327.54113011044706
10
0.23057663516123483
20
329.7922474346346
10
0
20
332.1333312988281
10
0
20
547
10
0
20
547
10
0.23057663516123483
20
549.3410838641936
10
0.9134456098645583
20
551.5922011883811
10
2.022364652369454
20
553.6668427962352
10
3.5147186257614287
20
555.4852813742385
10
5.333157203764774
20
556.9776353476306
10
7.407798811618916
20
558.0865543901355
10
9.658916135806455
20
558.7694233648388
10
11.999999999999998
20
559
10
12
20
559
0
TEXT
5
1C
330
C
100
AcDbEntity
420
2105636
8
0
100
AcDbText
10
17
20
491.06666564941406
30
0
40
32
1
Details / Summary
7
Segoe UI
100
AcDbText
0
LWPOLYLINE
5
1E
330
C
100
AcDbEntity
420
13159633
8
0
100
AcDbPolyline
90
42
70
0
43
0
38
0
39
0
10
25
20
456.1333312988281
10
1207
20
456.1333312988281
10
1207
20
456.1333312988281
10
1208.5607225761291
20
455.979613542054
10
1210.0614674589208
20
455.5243675589184
10
1211.4445618641569
20
454.78508819724846
10
1212.6568542494924
20
453.7901855483205
10
1213.6517568984204
20
452.57789316298494
10
1214.3910362600902
20
451.19479875774886
10
1214.846282243226
20
449.69405387495715
10
1215
20
448.1333312988281
10
1215
20
429.1333312988281
10
1215
20
429.1333312988281
10
1214.846282243226
20
427.5726087226991
10
1214.3910362600902
20
426.0718638399074
10
1213.6517568984204
20
424.6887694346713
10
1212.6568542494924
20
423.47647704933576
10
1211.4445618641569
20
422.4815744004078
10
1210.0614674589208
20
421.74229503873784
10
1208.5607225761291
20
421.28704905560227
10
1207
20
421.1333312988281
10
25
20
421.1333312988281
10
25
20
421.1333312988281
10
23.439277423870976
20
421.28704905560227
10
21.938532541079283
20
421.74229503873784
10
20.555438135843183
20
422.4815744004078
10
19.34314575050762
20
423.47647704933576
10
18.348243101579637
20
424.6887694346713
10
17.608963739909704
20
426.0718638399074
10
17.153717756774157
20
427.5726087226991
10
17
20
429.1333312988281
10
17
20
448.1333312988281
10
17
20
448.1333312988281
10
17.153717756774157
20
449.69405387495715
10
17.608963739909704
20
451.19479875774886
10
18.348243101579637
20
452.57789316298494
10
19.343145750507617
20
453.7901855483205
10
20.555438135843183
20
454.78508819724846
10
21.938532541079276
20
455.5243675589184
10
23.43927742387097
20
455.979613542054
10
25
20
456.1333312988281
10
25
20
456.1333312988281
0
TEXT
5
1F
330
C
100
AcDbEntity
420
2105636
8
0
100
AcDbText
10
28.90833330154419
20
434.6333312988281
30
0
40
16
1
▸
7
-moz-bullet-font
100
AcDbText
0
TEXT
5
21
330
C
100
AcDbEntity
420
2105636
8
0
100
AcDbText
10
42.083335876464844
20
434.6333312988281
30
0
40
16
1
Closed summary (content must stay hidden)
7
Segoe UI
100
AcDbText
0
LWPOLYLINE
5
22
330
C
100
AcDbEntity
420
13159633
8
0
100
AcDbPolyline
90
42
70
0
43
0
38
0
39
0
10
25
20
411.1333312988281
10
1207
20
411.1333312988281
10
1207
20
411.1333312988281
10
1208.5607225761291
20
410.979613542054
10
1210.0614674589208
20
410.5243675589184
10
1211.4445618641569
20
409.78508819724846
10
1212.6568542494924
20
408.7901855483205
10
1213.6517568984204
20
407.57789316298494
10
1214.3910362600902
20
406.19479875774886
10
1214.846282243226
20
404.69405387495715
10
1215
20
403.1333312988281
10
1215
20
355.1333312988281
10
1215
20
355.1333312988281
10
1214.846282243226
20
353.5726087226991
10
1214.3910362600902
20
352.0718638399074
10
1213.6517568984204
20
350.6887694346713
10
1212.6568542494924
20
349.47647704933576
10
1211.4445618641569
20
348.4815744004078
10
1210.0614674589208
20
347.74229503873784
10
1208.5607225761291
20
347.28704905560227
10
1207
20
347.1333312988281
10
25
20
347.1333312988281
10
25
20
347.1333312988281
10
23.439277423870976
20
347.28704905560227
10
21.938532541079283
20
347.74229503873784
10
20.555438135843183
20
348.4815744004078
10
19.34314575050762
20
349.47647704933576
10
18.348243101579637
20
350.6887694346713
10
17.608963739909704
20
352.0718638399074
10
17.153717756774157
20
353.5726087226991
10
17
20
355.1333312988281
10
17
20
403.1333312988281
10
17
20
403.1333312988281
10
17.153717756774157
20
404.69405387495715
10
17.608963739909704
20
406.19479875774886
10
18.348243101579637
20
407.57789316298494
10
19.343145750507617
20
408.7901855483205
10
20.555438135843183
20
409.78508819724846
10
21.938532541079276
20
410.5243675589184
10
23.43927742387097
20
410.9796135420539
10
25
20
411.1333312988281
10
25
20
411.1333312988281
0
TEXT
5
23
330
C
100
AcDbEntity
420
2105636
8
0
100
AcDbText
10
28.90833330154419
20
389.6333312988281
30
0
40
16
1
▾
7
-moz-bullet-font
100
AcDbText
0
TEXT
5
24
330
C
100
AcDbEntity
420
2105636
8
0
100
AcDbText
10
42.083335876464844
20
389.6333312988281
30
0
40
16
1
Open summary (content should be exported)
7
Segoe UI
100
AcDbText
0
TEXT
5
25
330
C
100
AcDbEntity
420
4475216
8
0
100
AcDbText
10
28
20
360.6333312988281
30
0
40
16
1
This text should be exported because details is open.
7
Segoe UI
100
AcDbText
0
LWPOLYLINE
5
26
330
C
100
AcDbEntity
420
14146013
8
0
100
AcDbPolyline
90
42
70
0
43
0
38
0
39
0
10
12
20
304.1333312988281
10
1220
20
304.1333312988281
10
1220
20
304.1333312988281
10
1222.3410838641935
20
303.9027546636669
10
1224.592201188381
20
303.2198856889636
10
1226.6668427962352
20
302.1109666464587
10
1228.4852813742386
20
300.6186126730667
10
1229.9776353476304
20
298.80017409506337
10
1231.0865543901355
20
296.7255324872092
10
1231.7694233648388
20
294.47441516302166
10
1232
20
292.1333312988281
10
1232
20
12.29998779296875
10
1232
20
12.29998779296875
10
1231.7694233648388
20
9.958903928775158
10
1231.0865543901355
20
7.707786604587682
10
1229.9776353476304
20
5.633144996733563
10
1228.4852813742386
20
3.814706418730225
10
1226.6668427962352
20
2.322352445338197
10
1224.592201188381
20
1.2134334028332887
10
1222.3410838641935
20
0.5305644281299919
10
1220
20
0.29998779296875
10
12
20
0.29998779296875
10
12
20
0.29998779296875
10
9.65891613580646
20
0.5305644281299919
10
7.407798811618923
20
1.2134334028332887
10
5.3331572037647765
20
2.322352445338197
10
3.5147186257614305
20
3.814706418730225
10
2.022364652369456
20
5.633144996733563
10
0.91344560986456
20
7.707786604587682
10
0.23057663516123483
20
9.958903928775158
10
0
20
12.29998779296875
10
0
20
292.1333312988281
10
0
20
292.1333312988281
10
0.23057663516123483
20
294.47441516302166
10
0.9134456098645583
20
296.7255324872092
10
2.022364652369454
20
298.80017409506337
10
3.5147186257614287
20
300.6186126730667
10
5.333157203764774
20
302.1109666464587
10
7.407798811618916
20
303.2198856889636
10
9.658916135806455
20
303.9027546636669
10
11.999999999999998
20
304.1333312988281
10
12
20
304.1333312988281
0
TEXT
5
27
330
C
100
AcDbEntity
420
2105636
8
0
100
AcDbText
10
17
20
245.2166748046875
30
0
40
24
1
Compat Table Mimic
7
Segoe UI
100
AcDbText
0
LWPOLYLINE
5
28
330
C
100
AcDbEntity
420
16777215
8
0
100
AcDbPolyline
90
5
70
0
43
0
38
0
39
0
10
17
20
215.29998779296875
10
1215
20
215.29998779296875
10
1215
20
17.29998779296875
10
17
20
17.29998779296875
10
17
20
215.29998779296875
0
LWPOLYLINE
5
29
330
C
100
AcDbEntity
420
14014428
8
0
100
AcDbPolyline
90
5
70
0
43
0
38
0
39
0
10
17.5
20
214.79998779296875
10
316.75
20
214.79998779296875
10
316.75
20
176.79998779296875
10
17.5
20
176.79998779296875
10
17.5
20
214.79998779296875
0
TEXT
5
2A
330
C
100
AcDbEntity
420
2105636
8
0
100
AcDbText
10
138.89999389648438
20
191.79998779296875
30
0
40
16
1
Feature
7
Segoe UI
100
AcDbText
0
LWPOLYLINE
5
2B
330
C
100
AcDbEntity
420
14014428
8
0
100
AcDbPolyline
90
5
70
0
43
0
38
0
39
0
10
316.75
20
214.79998779296875
10
915.25
20
214.79998779296875
10
915.25
20
176.79998779296875
10
316.75
20
176.79998779296875
10
316.75
20
214.79998779296875
0
TEXT
5
2C
330
C
100
AcDbEntity
420
2105636
8
0
100
AcDbText
10
552.5499877929688
20
191.79998779296875
30
0
40
16
1
Browser Support
7
Segoe UI
100
AcDbText
0
LWPOLYLINE
5
2D
330
C
100
AcDbEntity
420
14014428
8
0
100
AcDbPolyline
90
5
70
0
43
0
38
0
39
0
10
17.5
20
176.79998779296875
10
316.75
20
176.79998779296875
10
316.75
20
55.79998779296875
10
17.5
20
55.79998779296875
10
17.5
20
176.79998779296875
0
TEXT
5
2E
330
C
100
AcDbEntity
420
2105636
8
0
100
AcDbText
10
171.125
20
88.19998168945312
30
0
40
16
1
Chrome
50
90
7
Segoe UI
100
AcDbText
0
LWPOLYLINE
5
2F
330
C
100
AcDbEntity
420
14014428
8
0
100
AcDbPolyline
90
5
70
0
43
0
38
0
39
0
10
316.75
20
176.79998779296875
10
616
20
176.79998779296875
10
616
20
55.79998779296875
10
316.75
20
55.79998779296875
10
316.75
20
176.79998779296875
0
TEXT
5
30
330
C
100
AcDbEntity
420
2105636
8
0
100
AcDbText
10
470.375
20
91.48333740234375
30
0
40
16
1
Firefox
50
90
7
Segoe UI
100
AcDbText
0
LWPOLYLINE
5
31
330
C
100
AcDbEntity
420
14014428
8
0
100
AcDbPolyline
90
5
70
0
43
0
38
0
39
0
10
616
20
176.79998779296875
10
915.25
20
176.79998779296875
10
915.25
20
55.79998779296875
10
616
20
55.79998779296875
10
616
20
176.79998779296875
0
TEXT
5
32
330
C
100
AcDbEntity
420
2105636
8
0
100
AcDbText
10
769.6249694824219
20
96.05001831054688
30
0
40
16
1
Safari
50
90
7
Segoe UI
100
AcDbText
0
LWPOLYLINE
5
33
330
C
100
AcDbEntity
420
14014428
8
0
100
AcDbPolyline
90
5
70
0
43
0
38
0
39
0
10
17.5
20
55.79998779296875
10
316.75
20
55.79998779296875
10
316.75
20
17.79998779296875
10
17.5
20
17.79998779296875
10
17.5
20
55.79998779296875
0
TEXT
5
34
330
C
100
AcDbEntity
420
2105636
8
0
100
AcDbText
10
120.03334045410156
20
32.79998779296875
30
0
40
16
1
Simple tables
7
Segoe UI
100
AcDbText
0
LWPOLYLINE
5
35
330
C
100
AcDbEntity
420
14014428
8
0
100
AcDbPolyline
90
5
70
0
43
0
38
0
39
0
10
316.75
20
55.79998779296875
10
616
20
55.79998779296875
10
616
20
17.79998779296875
10
316.75
20
17.79998779296875
10
316.75
20
55.79998779296875
0
IMAGE
5
37
330
C
100
AcDbEntity
8
0
100
AcDbRasterImage
90
0
10
458.3666687011719
20
46.29998779296875
30
0
11
1
21
0
31
0
12
0
22
1
32
0
13
16
23
16
340
36
70
3
280
1
281
50
282
50
283
0
360
38
71
1
91
2
14
-0.5
24
-0.5
14
15.5
24
15.5
290
1
0
LWPOLYLINE
5
3A
330
C
100
AcDbEntity
420
14014428
8
0
100
AcDbPolyline
90
5
70
0
43
0
38
0
39
0
10
616
20
55.79998779296875
10
915.25
20
55.79998779296875
10
915.25
20
17.79998779296875
10
616
20
17.79998779296875
10
616
20
55.79998779296875
0
IMAGE
5
3C
330
C
100
AcDbEntity
8
0
100
AcDbRasterImage
90
0
10
757.6166381835938
20
46.29998779296875
30
0
11
1
21
0
31
0
12
0
22
1
32
0
13
16
23
16
340
3B
70
3
280
1
281
50
282
50
283
0
360
3D
71
1
91
2
14
-0.5
24
-0.5
14
15.5
24
15.5
290
1
0
LWPOLYLINE
5
3F
330
C
100
AcDbEntity
420
14014428
8
0
100
AcDbPolyline
90
5
70
0
43
0
38
0
39
0
10
915.25
20
55.79998779296875
10
1214.5
20
55.79998779296875
10
1214.5
20
17.79998779296875
10
915.25
20
17.79998779296875
10
915.25
20
55.79998779296875
0
IMAGE
5
41
330
C
100
AcDbEntity
8
0
100
AcDbRasterImage
90
0
10
1056.86669921875
20
46.29998779296875
30
0
11
1
21
0
31
0
12
0
22
1
32
0
13
16
23
16
340
40
70
3
280
1
281
50
282
50
283
0
360
42
71
1
91
2
14
-0.5
24
-0.5
14
15.5
24
15.5
290
1
0
ENDSEC
0
SECTION
2
OBJECTS
0
DICTIONARY
5
A
330
0
100
AcDbDictionary
281
1
3
ACAD_GROUP
350
B
3
ACAD_IMAGE_DICT
350
39
3
ACAD_IMAGE_DICT
350
3E
3
ACAD_IMAGE_DICT
350
43
0
DICTIONARY
5
B
330
A
100
AcDbDictionary
281
0
0
IMAGEDEF
5
36
330
39
102
{ACAD_REACTORS
330
39
330
38
102
}
100
AcDbRasterImageDef
1
mdn-table-issues-dxf-assets/image1.png
10
16
20
16
11
1
21
1
280
1
281
0
0
IMAGEDEF_REACTOR
5
38
330
0
100
AcDbRasterImageDefReactor
90
2
330
37
0
DICTIONARY
5
39
330
A
100
AcDbDictionary
281
0
3
image1
350
36
0
IMAGEDEF
5
3B
330
3E
102
{ACAD_REACTORS
330
3E
330
3D
102
}
100
AcDbRasterImageDef
1
mdn-table-issues-dxf-assets/image2.png
10
16
20
16
11
1
21
1
280
1
281
0
0
IMAGEDEF_REACTOR
5
3D
330
0
100
AcDbRasterImageDefReactor
90
2
330
3C
0
DICTIONARY
5
3E
330
A
100
AcDbDictionary
281
0
3
image2
350
3B
0
IMAGEDEF
5
40
330
43
102
{ACAD_REACTORS
330
43
330
42
102
}
100
AcDbRasterImageDef
1
mdn-table-issues-dxf-assets/image3.png
10
16
20
16
11
1
21
1
280
1
281
0
0
IMAGEDEF_REACTOR
5
42
330
0
100
AcDbRasterImageDefReactor
90
2
330
41
0
DICTIONARY
5
43
330
A
100
AcDbDictionary
281
0
3
image3
350
40
0
ENDSEC
0
EOF