0
SECTION
2
HEADER
9
$ACADVER
1
AC1021
9
$LASTSAVEDBY
1
@tarikjabiri/dxf
9
$HANDSEED
5
32
9
$INSUNITS
70
0
9
$CLAYER
8
0
9
$VIEWCTR
10
590
20
174.4250030517578
0
ENDSEC
0
SECTION
2
CLASSES
0
ENDSEC
0
SECTION
2
TABLES
0
TABLE
2
VPORT
5
1
330
0
100
AcDbSymbolTable
70
1
0
VPORT
5
19
330
1
100
AcDbSymbolTableRecord
100
AcDbViewportTableRecord
2
*Active
70
0
10
0
20
0
11
1
21
1
12
590
22
174.4250030517578
13
0
23
0
14
10
24
10
15
10
25
10
16
0
26
0
36
1
17
0
27
0
37
0
40
436.1499938964844
41
2
42
50
43
0
44
0
50
0
51
0
71
0
72
100
73
1
74
3
75
0
76
1
77
0
78
0
281
0
65
1
110
0
120
0
130
0
111
1
121
0
131
0
112
0
122
1
132
0
79
0
146
0
348
10020
60
7
61
5
292
1
282
1
141
0
142
0
63
250
421
3358443
0
ENDTAB
0
TABLE
2
LTYPE
5
2
330
0
100
AcDbSymbolTable
70
3
0
LTYPE
5
12
330
2
100
AcDbSymbolTableRecord
100
AcDbLinetypeTableRecord
2
ByBlock
70
0
3

72
65
73
0
40
0
0
LTYPE
5
13
330
2
100
AcDbSymbolTableRecord
100
AcDbLinetypeTableRecord
2
ByLayer
70
0
3

72
65
73
0
40
0
0
LTYPE
5
14
330
2
100
AcDbSymbolTableRecord
100
AcDbLinetypeTableRecord
2
Continuous
70
0
3
Solid line
72
65
73
0
40
0
0
ENDTAB
0
TABLE
2
LAYER
5
3
330
0
100
AcDbSymbolTable
70
1
0
LAYER
5
15
330
3
100
AcDbSymbolTableRecord
100
AcDbLayerTableRecord
2
0
70
0
62
7
6
Continuous
370
0
390
0
0
ENDTAB
0
TABLE
2
STYLE
5
4
330
0
100
AcDbSymbolTable
70
2
0
STYLE
5
16
330
4
100
AcDbSymbolTableRecord
100
AcDbTextStyleTableRecord
2
Standard
70
0
40
0
41
1
50
0
71
0
42
1
3
txt
4

0
STYLE
5
1B
330
4
100
AcDbSymbolTableRecord
100
AcDbTextStyleTableRecord
2
Arial
70
0
40
0
41
1
50
0
71
0
42
1
3
Arial.ttf
4

0
ENDTAB
0
TABLE
2
VIEW
5
5
330
0
100
AcDbSymbolTable
70
0
0
ENDTAB
0
TABLE
2
UCS
5
6
330
0
100
AcDbSymbolTable
70
0
0
ENDTAB
0
TABLE
2
APPID
5
7
330
0
100
AcDbSymbolTable
70
1
0
APPID
5
17
330
7
100
AcDbSymbolTableRecord
100
AcDbRegAppTableRecord
2
ACAD
70
0
0
ENDTAB
0
TABLE
2
DIMSTYLE
5
8
330
0
100
AcDbSymbolTable
70
1
100
AcDbDimStyleTable
0
DIMSTYLE
105
18
330
8
100
AcDbSymbolTableRecord
100
AcDbDimStyleTableRecord
2
Standard
70
0
340
16
0
ENDTAB
0
TABLE
2
BLOCK_RECORD
5
9
330
0
100
AcDbSymbolTable
70
2
0
BLOCK_RECORD
5
C
330
9
100
AcDbSymbolTableRecord
100
AcDbBlockTableRecord
2
*Model_Space
70
0
280
1
281
0
0
BLOCK_RECORD
5
F
330
9
100
AcDbSymbolTableRecord
100
AcDbBlockTableRecord
2
*Paper_Space
70
0
280
1
281
0
0
ENDTAB
0
ENDSEC
0
SECTION
2
BLOCKS
0
BLOCK
5
D
330
C
100
AcDbEntity
8
0
100
AcDbBlockBegin
2
*Model_Space
70
0
10
0
20
0
30
0
3
*Model_Space
1

0
ENDBLK
5
E
100
AcDbEntity
8
0
100
AcDbBlockEnd
0
BLOCK
5
10
330
F
100
AcDbEntity
8
0
100
AcDbBlockBegin
2
*Paper_Space
70
0
10
0
20
0
30
0
3
*Paper_Space
1

0
ENDBLK
5
11
100
AcDbEntity
8
0
100
AcDbBlockEnd
0
ENDSEC
0
SECTION
2
ENTITIES
0
TEXT
5
1A
330
C
100
AcDbEntity
420
2042167
8
0
100
AcDbText
10
24
20
292.5
30
0
40
22
1
Modern CSS Color Functions
7
Arial
100
AcDbText
0
TEXT
5
1C
330
C
100
AcDbEntity
420
2042167
8
0
100
AcDbText
10
24
20
259.8000011444092
30
0
40
16
1
These tiles exercise color(), lab(), lch(), oklab(), and oklch() across fills, borders, and text.
7
Arial
100
AcDbText
0
LWPOLYLINE
5
1D
330
C
100
AcDbEntity
420
2500134
8
0
100
AcDbPolyline
90
42
70
0
43
0
38
0
39
0
10
40
20
234.5999984741211
10
241.60000610351562
20
234.5999984741211
10
241.60000610351562
20
234.5999984741211
10
244.72145125577367
20
234.29256296057278
10
247.72294102135706
20
233.38207099430167
10
250.48912983182927
20
231.9035122709618
10
252.9137146025004
20
229.91370697310586
10
254.90351990035634
20
227.48912220243471
10
256.3820786236962
20
224.72293339196253
10
257.29257058996734
20
221.72144362637914
10
257.6000061035156
20
218.5999984741211
10
257.6000061035156
20
130.60000610351562
10
257.6000061035156
20
130.60000610351562
10
257.29257058996734
20
127.47856095125758
10
256.3820786236962
20
124.47707118567419
10
254.90351990035634
20
121.710882375202
10
252.9137146025004
20
119.28629760453086
10
250.48912983182927
20
117.2964923066749
10
247.72294102135706
20
115.81793358333505
10
244.72145125577367
20
114.90744161706394
10
241.60000610351562
20
114.60000610351562
10
40
20
114.60000610351562
10
40
20
114.60000610351562
10
36.87855484774195
20
114.90744161706394
10
33.877065082158566
20
115.81793358333505
10
31.11087627168637
20
117.2964923066749
10
28.68629150101524
20
119.28629760453086
10
26.696486203159274
20
121.710882375202
10
25.217927479819412
20
124.47707118567419
10
24.307435513548313
20
127.47856095125758
10
24
20
130.60000610351562
10
24
20
218.5999984741211
10
24
20
218.5999984741211
10
24.307435513548313
20
221.72144362637914
10
25.21792747981941
20
224.72293339196253
10
26.696486203159274
20
227.48912220243471
10
28.686291501015237
20
229.91370697310586
10
31.110876271686365
20
231.9035122709618
10
33.87706508215855
20
233.38207099430167
10
36.87855484774194
20
234.29256296057278
10
40
20
234.5999984741211
10
40
20
234.5999984741211
0
TEXT
5
1E
330
C
100
AcDbEntity
420
16777215
8
0
100
AcDbText
10
41
20
207.10000228881836
30
0
40
12
1
COLOR(SRGB)
7
Arial
100
AcDbText
0
TEXT
5
1F
330
C
100
AcDbEntity
420
16777215
8
0
100
AcDbText
10
41
20
136.85000610351562
30
0
40
15
1
Accent surface
7
Arial
100
AcDbText
0
LWPOLYLINE
5
20
330
C
100
AcDbEntity
420
2500134
8
0
100
AcDbPolyline
90
42
70
0
43
0
38
0
39
0
10
289.6000061035156
20
234.5999984741211
10
491.20001220703125
20
234.5999984741211
10
491.20001220703125
20
234.5999984741211
10
494.3214573592893
20
234.29256296057278
10
497.3229471248727
20
233.38207099430167
10
500.08913593534487
20
231.9035122709618
10
502.513720706016
20
229.91370697310586
10
504.50352600387197
20
227.48912220243471
10
505.9820847272118
20
224.72293339196253
10
506.89257669348297
20
221.72144362637914
10
507.20001220703125
20
218.5999984741211
10
507.20001220703125
20
130.60000610351562
10
507.20001220703125
20
130.60000610351562
10
506.89257669348297
20
127.47856095125758
10
505.9820847272118
20
124.47707118567419
10
504.50352600387197
20
121.710882375202
10
502.513720706016
20
119.28629760453086
10
500.08913593534487
20
117.2964923066749
10
497.3229471248727
20
115.81793358333505
10
494.3214573592893
20
114.90744161706394
10
491.20001220703125
20
114.60000610351562
10
289.6000061035156
20
114.60000610351562
10
289.6000061035156
20
114.60000610351562
10
286.4785609512576
20
114.90744161706394
10
283.47707118567416
20
115.81793358333505
10
280.710882375202
20
117.2964923066749
10
278.2862976045309
20
119.28629760453086
10
276.2964923066749
20
121.710882375202
10
274.81793358333505
20
124.47707118567419
10
273.9074416170639
20
127.47856095125758
10
273.6000061035156
20
130.60000610351562
10
273.6000061035156
20
218.5999984741211
10
273.6000061035156
20
218.5999984741211
10
273.9074416170639
20
221.72144362637914
10
274.81793358333505
20
224.72293339196253
10
276.2964923066749
20
227.48912220243471
10
278.2862976045309
20
229.91370697310586
10
280.710882375202
20
231.9035122709618
10
283.47707118567416
20
233.38207099430167
10
286.4785609512576
20
234.29256296057278
10
289.6000061035156
20
234.5999984741211
10
289.6000061035156
20
234.5999984741211
0
TEXT
5
21
330
C
100
AcDbEntity
420
16777215
8
0
100
AcDbText
10
290.6000061035156
20
207.10000228881836
30
0
40
12
1
LAB()
7
Arial
100
AcDbText
0
TEXT
5
22
330
C
100
AcDbEntity
420
16777215
8
0
100
AcDbText
10
290.6000061035156
20
136.85000610351562
30
0
40
15
1
Perceptual red
7
Arial
100
AcDbText
0
LWPOLYLINE
5
23
330
C
100
AcDbEntity
420
2500134
8
0
100
AcDbPolyline
90
42
70
0
43
0
38
0
39
0
10
539.2000122070312
20
234.5999984741211
10
740.800048828125
20
234.5999984741211
10
740.800048828125
20
234.5999984741211
10
743.921493980383
20
234.29256296057278
10
746.9229837459665
20
233.38207099430167
10
749.6891725564386
20
231.9035122709618
10
752.1137573271097
20
229.91370697310586
10
754.1035626249658
20
227.48912220243471
10
755.5821213483056
20
224.72293339196253
10
756.4926133145767
20
221.72144362637914
10
756.800048828125
20
218.5999984741211
10
756.800048828125
20
130.60000610351562
10
756.800048828125
20
130.60000610351562
10
756.4926133145767
20
127.47856095125758
10
755.5821213483056
20
124.47707118567419
10
754.1035626249658
20
121.710882375202
10
752.1137573271097
20
119.28629760453086
10
749.6891725564386
20
117.2964923066749
10
746.9229837459665
20
115.81793358333505
10
743.921493980383
20
114.90744161706394
10
740.800048828125
20
114.60000610351562
10
539.2000122070312
20
114.60000610351562
10
539.2000122070312
20
114.60000610351562
10
536.0785670547732
20
114.90744161706394
10
533.0770772891898
20
115.81793358333505
10
530.3108884787176
20
117.2964923066749
10
527.8863037080465
20
119.28629760453086
10
525.8964984101905
20
121.710882375202
10
524.4179396868507
20
124.47707118567419
10
523.5074477205795
20
127.47856095125758
10
523.2000122070312
20
130.60000610351562
10
523.2000122070312
20
218.5999984741211
10
523.2000122070312
20
218.5999984741211
10
523.5074477205795
20
221.72144362637914
10
524.4179396868507
20
224.72293339196253
10
525.8964984101905
20
227.48912220243471
10
527.8863037080465
20
229.91370697310586
10
530.3108884787176
20
231.9035122709618
10
533.0770772891898
20
233.38207099430167
10
536.0785670547732
20
234.29256296057278
10
539.2000122070312
20
234.5999984741211
10
539.2000122070312
20
234.5999984741211
0
TEXT
5
24
330
C
100
AcDbEntity
420
16777215
8
0
100
AcDbText
10
540.2000122070312
20
207.10000228881836
30
0
40
12
1
LCH()
7
Arial
100
AcDbText
0
TEXT
5
25
330
C
100
AcDbEntity
420
16777215
8
0
100
AcDbText
10
540.2000122070312
20
136.85000610351562
30
0
40
15
1
Polar lightness
7
Arial
100
AcDbText
0
LWPOLYLINE
5
26
330
C
100
AcDbEntity
420
2500134
8
0
100
AcDbPolyline
90
42
70
0
43
0
38
0
39
0
10
788.7999877929688
20
234.5999984741211
10
990.4000244140625
20
234.5999984741211
10
990.4000244140625
20
234.5999984741211
10
993.5214695663205
20
234.29256296057278
10
996.522959331904
20
233.38207099430167
10
999.2891481423761
20
231.9035122709618
10
1001.7137329130472
20
229.91370697310586
10
1003.7035382109033
20
227.48912220243471
10
1005.1820969342431
20
224.72293339196253
10
1006.0925889005142
20
221.72144362637914
10
1006.4000244140625
20
218.5999984741211
10
1006.4000244140625
20
130.60000610351562
10
1006.4000244140625
20
130.60000610351562
10
1006.0925889005142
20
127.47856095125758
10
1005.1820969342431
20
124.47707118567419
10
1003.7035382109033
20
121.710882375202
10
1001.7137329130472
20
119.28629760453086
10
999.2891481423761
20
117.2964923066749
10
996.522959331904
20
115.81793358333505
10
993.5214695663205
20
114.90744161706394
10
990.4000244140625
20
114.60000610351562
10
788.7999877929688
20
114.60000610351562
10
788.7999877929688
20
114.60000610351562
10
785.6785426407107
20
114.90744161706394
10
782.6770528751273
20
115.81793358333505
10
779.9108640646551
20
117.2964923066749
10
777.486279293984
20
119.28629760453086
10
775.496473996128
20
121.710882375202
10
774.0179152727882
20
124.47707118567419
10
773.107423306517
20
127.47856095125758
10
772.7999877929688
20
130.60000610351562
10
772.7999877929688
20
218.5999984741211
10
772.7999877929688
20
218.5999984741211
10
773.107423306517
20
221.72144362637914
10
774.0179152727882
20
224.72293339196253
10
775.496473996128
20
227.48912220243471
10
777.486279293984
20
229.91370697310586
10
779.9108640646551
20
231.9035122709618
10
782.6770528751273
20
233.38207099430167
10
785.6785426407107
20
234.29256296057278
10
788.7999877929688
20
234.5999984741211
10
788.7999877929688
20
234.5999984741211
0
TEXT
5
27
330
C
100
AcDbEntity
420
16777215
8
0
100
AcDbText
10
789.7999877929688
20
207.10000228881836
30
0
40
12
1
OKLAB()
7
Arial
100
AcDbText
0
TEXT
5
28
330
C
100
AcDbEntity
420
16777215
8
0
100
AcDbText
10
789.7999877929688
20
136.85000610351562
30
0
40
15
1
OKLab card
7
Arial
100
AcDbText
0
LWPOLYLINE
5
29
330
C
100
AcDbEntity
420
2500134
8
0
100
AcDbPolyline
90
42
70
0
43
0
38
0
39
0
10
1038.4000244140625
20
234.5999984741211
10
1240
20
234.5999984741211
10
1240
20
234.5999984741211
10
1243.121445152258
20
234.29256296057278
10
1246.1229349178413
20
233.38207099430167
10
1248.8891237283137
20
231.9035122709618
10
1251.3137084989849
20
229.91370697310586
10
1253.3035137968407
20
227.48912220243471
10
1254.7820725201807
20
224.72293339196253
10
1255.6925644864516
20
221.72144362637914
10
1256
20
218.5999984741211
10
1256
20
130.60000610351562
10
1256
20
130.60000610351562
10
1255.6925644864516
20
127.47856095125758
10
1254.7820725201807
20
124.47707118567419
10
1253.3035137968407
20
121.710882375202
10
1251.3137084989849
20
119.28629760453086
10
1248.8891237283137
20
117.2964923066749
10
1246.1229349178413
20
115.81793358333505
10
1243.121445152258
20
114.90744161706394
10
1240
20
114.60000610351562
10
1038.4000244140625
20
114.60000610351562
10
1038.4000244140625
20
114.60000610351562
10
1035.2785792618045
20
114.90744161706394
10
1032.2770894962212
20
115.81793358333505
10
1029.5109006857488
20
117.2964923066749
10
1027.0863159150776
20
119.28629760453086
10
1025.0965106172218
20
121.710882375202
10
1023.6179518938819
20
124.47707118567419
10
1022.7074599276108
20
127.47856095125758
10
1022.4000244140625
20
130.60000610351562
10
1022.4000244140625
20
218.5999984741211
10
1022.4000244140625
20
218.5999984741211
10
1022.7074599276108
20
221.72144362637914
10
1023.6179518938819
20
224.72293339196253
10
1025.0965106172218
20
227.48912220243471
10
1027.0863159150776
20
229.91370697310586
10
1029.5109006857488
20
231.9035122709618
10
1032.2770894962212
20
233.38207099430167
10
1035.2785792618045
20
234.29256296057278
10
1038.4000244140625
20
234.5999984741211
10
1038.4000244140625
20
234.5999984741211
0
TEXT
5
2A
330
C
100
AcDbEntity
420
16777215
8
0
100
AcDbText
10
1039.4000244140625
20
207.10000228881836
30
0
40
12
1
OKLCH()
7
Arial
100
AcDbText
0
TEXT
5
2B
330
C
100
AcDbEntity
420
16777215
8
0
100
AcDbText
10
1039.4000244140625
20
136.85000610351562
30
0
40
15
1
OKLCH card
7
Arial
100
AcDbText
0
LWPOLYLINE
5
2C
330
C
100
AcDbEntity
420
0
8
0
100
AcDbPolyline
90
42
70
0
43
0
38
0
39
0
10
59
20
94.60000610351562
10
109
20
94.60000610351562
10
109
20
94.60000610351562
10
115.8281612705645
20
93.92749091762869
10
122.39392013277815
20
91.93578974141064
10
128.4449581556861
20
88.7014425341047
10
133.74873734152916
20
84.34874344504479
10
138.10143643058908
20
79.04496425920169
10
141.33578363789502
20
72.99392623629376
10
143.32748481411306
20
66.42816737408009
10
144
20
59.600006103515625
10
144
20
59.600006103515625
10
144
20
59.600006103515625
10
143.32748481411306
20
52.77184483295116
10
141.33578363789502
20
46.20608597073749
10
138.10143643058908
20
40.15504794782953
10
133.74873734152916
20
34.85126876198649
10
128.4449581556861
20
30.49856967292652
10
122.39392013277815
20
27.264222465620605
10
115.8281612705645
20
25.27252128940256
10
109
20
24.600006103515625
10
59
20
24.600006103515625
10
59
20
24.600006103515625
10
52.171838729435514
20
25.27252128940256
10
45.60607986722186
20
27.264222465620605
10
39.55504184431393
20
30.49856967292652
10
34.251262658470836
20
34.85126876198649
10
29.898563569410914
20
40.15504794782953
10
26.664216362104966
20
46.20608597073749
10
24.672515185886937
20
52.7718448329511
10
24
20
59.600006103515625
10
24
20
59.600006103515625
10
24
20
59.600006103515625
10
24.672515185886937
20
66.42816737408009
10
26.66421636210496
20
72.99392623629376
10
29.89856356941091
20
79.04496425920169
10
34.251262658470836
20
84.34874344504479
10
39.55504184431392
20
88.7014425341047
10
45.60607986722184
20
91.93578974141064
10
52.1718387294355
20
93.92749091762869
10
58.99999999999999
20
94.60000610351562
10
59
20
94.60000610351562
0
TEXT
5
2D
330
C
100
AcDbEntity
420
16777215
8
0
100
AcDbText
10
58.33333206176758
20
56.350006103515625
30
0
40
13
1
success
7
Arial
100
AcDbText
0
LWPOLYLINE
5
2E
330
C
100
AcDbEntity
420
0
8
0
100
AcDbPolyline
90
42
70
0
43
0
38
0
39
0
10
193
20
94.60000610351562
10
243
20
94.60000610351562
10
243
20
94.60000610351562
10
249.8281612705645
20
93.92749091762869
10
256.39392013277813
20
91.93578974141064
10
262.4449581556861
20
88.7014425341047
10
267.74873734152914
20
84.34874344504479
10
272.1014364305891
20
79.04496425920169
10
275.335783637895
20
72.99392623629376
10
277.32748481411306
20
66.42816737408009
10
278
20
59.600006103515625
10
278
20
59.600006103515625
10
278
20
59.600006103515625
10
277.32748481411306
20
52.77184483295116
10
275.335783637895
20
46.20608597073749
10
272.1014364305891
20
40.15504794782953
10
267.74873734152914
20
34.85126876198649
10
262.4449581556861
20
30.49856967292652
10
256.39392013277813
20
27.264222465620605
10
249.8281612705645
20
25.27252128940256
10
243
20
24.600006103515625
10
193
20
24.600006103515625
10
193
20
24.600006103515625
10
186.1718387294355
20
25.27252128940256
10
179.60607986722187
20
27.264222465620605
10
173.55504184431393
20
30.49856967292652
10
168.25126265847084
20
34.85126876198649
10
163.89856356941092
20
40.15504794782953
10
160.66421636210498
20
46.20608597073749
10
158.67251518588694
20
52.7718448329511
10
158
20
59.600006103515625
10
158
20
59.600006103515625
10
158
20
59.600006103515625
10
158.67251518588694
20
66.42816737408009
10
160.66421636210495
20
72.99392623629376
10
163.8985635694109
20
79.04496425920169
10
168.25126265847084
20
84.34874344504479
10
173.55504184431393
20
88.7014425341047
10
179.60607986722184
20
91.93578974141064
10
186.1718387294355
20
93.92749091762869
10
193
20
94.60000610351562
10
193
20
94.60000610351562
0
TEXT
5
2F
330
C
100
AcDbEntity
420
1052688
8
0
100
AcDbText
10
201
20
56.350006103515625
30
0
40
13
1
warm
7
Arial
100
AcDbText
0
LWPOLYLINE
5
30
330
C
100
AcDbEntity
420
0
8
0
100
AcDbPolyline
90
42
70
0
43
0
38
0
39
0
10
327
20
94.60000610351562
10
377
20
94.60000610351562
10
377
20
94.60000610351562
10
383.82816127056446
20
93.92749091762869
10
390.39392013277813
20
91.93578974141064
10
396.4449581556861
20
88.7014425341047
10
401.74873734152914
20
84.34874344504479
10
406.1014364305891
20
79.04496425920169
10
409.335783637895
20
72.99392623629376
10
411.32748481411306
20
66.42816737408009
10
412
20
59.600006103515625
10
412
20
59.600006103515625
10
412
20
59.600006103515625
10
411.32748481411306
20
52.77184483295116
10
409.335783637895
20
46.20608597073749
10
406.1014364305891
20
40.15504794782953
10
401.74873734152914
20
34.85126876198649
10
396.4449581556861
20
30.49856967292652
10
390.39392013277813
20
27.264222465620605
10
383.82816127056446
20
25.27252128940256
10
377
20
24.600006103515625
10
327
20
24.600006103515625
10
327
20
24.600006103515625
10
320.17183872943554
20
25.27252128940256
10
313.60607986722187
20
27.264222465620605
10
307.5550418443139
20
30.49856967292652
10
302.25126265847086
20
34.85126876198649
10
297.8985635694109
20
40.15504794782953
10
294.664216362105
20
46.20608597073749
10
292.67251518588694
20
52.7718448329511
10
292
20
59.600006103515625
10
292
20
59.600006103515625
10
292
20
59.600006103515625
10
292.67251518588694
20
66.42816737408009
10
294.664216362105
20
72.99392623629376
10
297.8985635694109
20
79.04496425920169
10
302.2512626584708
20
84.34874344504479
10
307.5550418443139
20
88.7014425341047
10
313.60607986722187
20
91.93578974141064
10
320.1718387294355
20
93.92749091762869
10
327
20
94.60000610351562
10
327
20
94.60000610351562
0
TEXT
5
31
330
C
100
AcDbEntity
420
1056788
8
0
100
AcDbText
10
338.26666259765625
20
56.350006103515625
30
0
40
13
1
mint
7
Arial
100
AcDbText
0
ENDSEC
0
SECTION
2
OBJECTS
0
DICTIONARY
5
A
330
0
100
AcDbDictionary
281
1
3
ACAD_GROUP
350
B
0
DICTIONARY
5
B
330
A
100
AcDbDictionary
281
0
0
ENDSEC
0
EOF