0
SECTION
2
HEADER
9
$ACADVER
1
AC1021
9
$LASTSAVEDBY
1
@tarikjabiri/dxf
9
$HANDSEED
5
6C
9
$INSUNITS
70
0
9
$CLAYER
8
0
9
$VIEWCTR
10
512.75
20
489.07939404859366
0
ENDSEC
0
SECTION
2
CLASSES
0
ENDSEC
0
SECTION
2
TABLES
0
TABLE
2
VPORT
5
1
330
0
100
AcDbSymbolTable
70
1
0
VPORT
5
19
330
1
100
AcDbSymbolTableRecord
100
AcDbViewportTableRecord
2
*Active
70
0
10
0
20
0
11
1
21
1
12
512.75
22
489.07939404859366
13
0
23
0
14
10
24
10
15
10
25
10
16
0
26
0
36
1
17
0
27
0
37
0
40
1347.9351109667941
41
2
42
50
43
0
44
0
50
0
51
0
71
0
72
100
73
1
74
3
75
0
76
1
77
0
78
0
281
0
65
1
110
0
120
0
130
0
111
1
121
0
131
0
112
0
122
1
132
0
79
0
146
0
348
10020
60
7
61
5
292
1
282
1
141
0
142
0
63
250
421
3358443
0
ENDTAB
0
TABLE
2
LTYPE
5
2
330
0
100
AcDbSymbolTable
70
3
0
LTYPE
5
12
330
2
100
AcDbSymbolTableRecord
100
AcDbLinetypeTableRecord
2
ByBlock
70
0
3

72
65
73
0
40
0
0
LTYPE
5
13
330
2
100
AcDbSymbolTableRecord
100
AcDbLinetypeTableRecord
2
ByLayer
70
0
3

72
65
73
0
40
0
0
LTYPE
5
14
330
2
100
AcDbSymbolTableRecord
100
AcDbLinetypeTableRecord
2
Continuous
70
0
3
Solid line
72
65
73
0
40
0
0
ENDTAB
0
TABLE
2
LAYER
5
3
330
0
100
AcDbSymbolTable
70
1
0
LAYER
5
15
330
3
100
AcDbSymbolTableRecord
100
AcDbLayerTableRecord
2
0
70
0
62
7
6
Continuous
370
0
390
0
0
ENDTAB
0
TABLE
2
STYLE
5
4
330
0
100
AcDbSymbolTable
70
3
0
STYLE
5
16
330
4
100
AcDbSymbolTableRecord
100
AcDbTextStyleTableRecord
2
Standard
70
0
40
0
41
1
50
0
71
0
42
1
3
txt
4

0
STYLE
5
1B
330
4
100
AcDbSymbolTableRecord
100
AcDbTextStyleTableRecord
2
Arial
70
0
40
0
41
1
50
0
71
0
42
1
3
Arial.ttf
4

0
STYLE
5
28
330
4
100
AcDbSymbolTableRecord
100
AcDbTextStyleTableRecord
2
Consolas
70
0
40
0
41
1
50
0
71
0
42
1
3
Consolas.ttf
4

0
ENDTAB
0
TABLE
2
VIEW
5
5
330
0
100
AcDbSymbolTable
70
0
0
ENDTAB
0
TABLE
2
UCS
5
6
330
0
100
AcDbSymbolTable
70
0
0
ENDTAB
0
TABLE
2
APPID
5
7
330
0
100
AcDbSymbolTable
70
1
0
APPID
5
17
330
7
100
AcDbSymbolTableRecord
100
AcDbRegAppTableRecord
2
ACAD
70
0
0
ENDTAB
0
TABLE
2
DIMSTYLE
5
8
330
0
100
AcDbSymbolTable
70
1
100
AcDbDimStyleTable
0
DIMSTYLE
105
18
330
8
100
AcDbSymbolTableRecord
100
AcDbDimStyleTableRecord
2
Standard
70
0
340
16
0
ENDTAB
0
TABLE
2
BLOCK_RECORD
5
9
330
0
100
AcDbSymbolTable
70
2
0
BLOCK_RECORD
5
C
330
9
100
AcDbSymbolTableRecord
100
AcDbBlockTableRecord
2
*Model_Space
70
0
280
1
281
0
0
BLOCK_RECORD
5
F
330
9
100
AcDbSymbolTableRecord
100
AcDbBlockTableRecord
2
*Paper_Space
70
0
280
1
281
0
0
ENDTAB
0
ENDSEC
0
SECTION
2
BLOCKS
0
BLOCK
5
D
330
C
100
AcDbEntity
8
0
100
AcDbBlockBegin
2
*Model_Space
70
0
10
0
20
0
30
0
3
*Model_Space
1

0
ENDBLK
5
E
100
AcDbEntity
8
0
100
AcDbBlockEnd
0
BLOCK
5
10
330
F
100
AcDbEntity
8
0
100
AcDbBlockBegin
2
*Paper_Space
70
0
10
0
20
0
30
0
3
*Paper_Space
1

0
ENDBLK
5
11
100
AcDbEntity
8
0
100
AcDbBlockEnd
0
ENDSEC
0
SECTION
2
ENTITIES
0
TEXT
5
1A
330
C
100
AcDbEntity
420
1187891
8
0
100
AcDbText
10
28
20
742
30
0
40
24
1
Object Fit, Position, and View Box
7
Arial
100
AcDbText
0
TEXT
5
1C
330
C
100
AcDbEntity
420
4808824
8
0
100
AcDbText
10
28
20
709.5999984741211
30
0
40
16
1
This demo combines all `object-fit` modes with keyword, percentage, and four-value `object-position` placements. The last row
7
Arial
100
AcDbText
0
TEXT
5
1D
330
C
100
AcDbEntity
420
4808824
8
0
100
AcDbText
10
28
20
684.8000030517578
30
0
40
16
1
also shows `object-view-box` crops using the three rectangle syntaxes.
7
Arial
100
AcDbText
0
LWPOLYLINE
5
1E
330
C
100
AcDbEntity
420
1187891
8
0
100
AcDbPolyline
90
42
70
0
43
0
38
0
39
0
10
42
20
656.3999938964844
10
1238
20
656.3999938964844
10
1238
20
656.3999938964844
10
1240.7312645082259
20
656.1309878221296
10
1243.3575680531112
20
655.3343073516423
10
1245.7779832622743
20
654.04056846872
10
1247.8994949366117
20
652.299488833096
10
1249.6405745722357
20
650.1779771587588
10
1250.934313455158
20
647.7575619495956
10
1251.7309939256452
20
645.1312584047101
10
1252
20
642.3999938964844
10
1252
20
628.3999938964844
10
1252
20
628.3999938964844
10
1251.7309939256452
20
625.6687293882586
10
1250.934313455158
20
623.0424258433732
10
1249.6405745722357
20
620.6220106342099
10
1247.8994949366117
20
618.5004989598727
10
1245.7779832622743
20
616.7594193242487
10
1243.3575680531112
20
615.4656804413264
10
1240.7312645082259
20
614.6689999708392
10
1238
20
614.3999938964844
10
42
20
614.3999938964844
10
42
20
614.3999938964844
10
39.26873549177421
20
614.6689999708392
10
36.64243194688874
20
615.4656804413264
10
34.222016737725575
20
616.7594193242487
10
32.10050506338834
20
618.5004989598727
10
30.359425427764364
20
620.6220106342099
10
29.065686544841988
20
623.0424258433732
10
28.269006074354774
20
625.6687293882586
10
28
20
628.3999938964844
10
28
20
642.3999938964844
10
28
20
642.3999938964844
10
28.269006074354774
20
645.1312584047101
10
29.065686544841984
20
647.7575619495956
10
30.359425427764364
20
650.1779771587588
10
32.10050506338833
20
652.299488833096
10
34.22201673772557
20
654.04056846872
10
36.642431946888735
20
655.3343073516423
10
39.2687354917742
20
656.1309878221296
10
42
20
656.3999938964844
10
42
20
656.3999938964844
0
TEXT
5
1F
330
C
100
AcDbEntity
420
3428459
8
0
100
AcDbText
10
43
20
632.1499938964844
30
0
40
13
1
`object-view-box` is only exposed by Chromium-class browsers today. The demo still loads elsewhere, but those cards will fall back to the uncropped image when the browser does not support the property.
7
Arial
100
AcDbText
0
LWPOLYLINE
5
20
330
C
100
AcDbEntity
420
1187891
8
0
100
AcDbPolyline
90
42
70
0
43
0
38
0
39
0
10
48
20
590.3999938964844
10
300.5
20
590.3999938964844
10
300.5
20
590.3999938964844
10
304.40180644032256
20
590.015699504549
10
308.1536686473018
20
588.8775845467101
10
311.61140466039205
20
587.0293861425353
10
314.64213562373095
20
584.5421295202153
10
317.1293922460509
20
581.5113985568764
10
318.97759065022575
20
578.0536625437862
10
320.1157056080646
20
574.301800336807
10
320.5
20
570.3999938964844
10
320.5
20
338.6000061035156
10
320.5
20
338.6000061035156
10
320.1157056080646
20
334.69819966319307
10
318.97759065022575
20
330.9463374562138
10
317.1293922460509
20
327.48860144312357
10
314.64213562373095
20
324.4578704797847
10
311.61140466039205
20
321.97061385746474
10
308.1536686473018
20
320.1224154532899
10
304.40180644032256
20
318.984300495451
10
300.5
20
318.6000061035156
10
48
20
318.6000061035156
10
48
20
318.6000061035156
10
44.09819355967743
20
318.984300495451
10
40.34633135269821
20
320.1224154532899
10
36.88859533960796
20
321.97061385746474
10
33.85786437626905
20
324.4578704797847
10
31.370607753949095
20
327.48860144312357
10
29.522409349774264
20
330.9463374562138
10
28.38429439193539
20
334.69819966319307
10
28
20
338.6000061035156
10
28
20
570.3999938964844
10
28
20
570.3999938964844
10
28.38429439193539
20
574.301800336807
10
29.522409349774264
20
578.0536625437862
10
31.37060775394909
20
581.5113985568764
10
33.85786437626905
20
584.5421295202153
10
36.88859533960796
20
587.0293861425353
10
40.34633135269819
20
588.8775845467101
10
44.098193559677426
20
590.015699504549
10
47.99999999999999
20
590.3999938964844
10
48
20
590.3999938964844
0
LWPOLYLINE
5
21
330
C
100
AcDbEntity
420
1187891
8
0
100
AcDbPolyline
90
42
70
0
43
0
38
0
39
0
10
61
20
573.3999938964844
10
287.5
20
573.3999938964844
10
287.5
20
573.3999938964844
10
290.62144515225805
20
573.0925583829361
10
293.62293491784146
20
572.182066416665
10
296.3891237283136
20
570.703507693325
10
298.81370849898474
20
568.7137023954691
10
300.8035137968407
20
566.289117624798
10
302.2820725201806
20
563.5229288143258
10
303.1925644864517
20
560.5214390487424
10
303.5
20
557.3999938964844
10
303.5
20
419.3999938964844
10
303.5
20
419.3999938964844
10
303.1925644864517
20
416.2785487442263
10
302.2820725201806
20
413.2770589786429
10
300.8035137968407
20
410.51087016817075
10
298.81370849898474
20
408.08628539749964
10
296.3891237283136
20
406.09648009964366
10
293.62293491784146
20
404.6179213763038
10
290.62144515225805
20
403.70742941003266
10
287.5
20
403.3999938964844
10
61
20
403.3999938964844
10
61
20
403.3999938964844
10
57.87855484774195
20
403.70742941003266
10
54.877065082158566
20
404.6179213763038
10
52.110876271686365
20
406.09648009964366
10
49.68629150101524
20
408.08628539749964
10
47.696486203159274
20
410.51087016817075
10
46.21792747981941
20
413.2770589786429
10
45.30743551354831
20
416.2785487442263
10
45
20
419.3999938964844
10
45
20
557.3999938964844
10
45
20
557.3999938964844
10
45.30743551354831
20
560.5214390487424
10
46.21792747981941
20
563.5229288143258
10
47.696486203159274
20
566.289117624798
10
49.68629150101523
20
568.7137023954691
10
52.110876271686365
20
570.703507693325
10
54.87706508215855
20
572.182066416665
10
57.87855484774194
20
573.0925583829361
10
61
20
573.3999938964844
10
61
20
573.3999938964844
0
IMAGE
5
23
330
C
100
AcDbEntity
8
0
100
AcDbRasterImage
90
0
10
47
20
571.3999938964844
30
0
11
0.9980392156862745
21
0
31
0
12
0
22
0.9980392156862745
32
0
13
255
23
166
340
22
70
3
280
1
281
50
282
50
283
0
360
24
71
1
91
2
14
-0.5
24
-0.5
14
254.5
24
165.5
290
1
0
TEXT
5
26
330
C
100
AcDbEntity
420
1187891
8
0
100
AcDbText
10
45
20
379.3999938964844
30
0
40
14
1
Fill
7
Arial
100
AcDbText
0
TEXT
5
27
330
C
100
AcDbEntity
420
998754
8
0
100
AcDbText
10
45
20
358.70001220703125
30
0
40
12
1
object-fit: fill
7
Consolas
100
AcDbText
0
TEXT
5
29
330
C
100
AcDbEntity
420
6388113
8
0
100
AcDbText
10
45
20
341.29998779296875
30
0
40
12
1
Stretches the source to the frame.
7
Arial
100
AcDbText
0
LWPOLYLINE
5
2A
330
C
100
AcDbEntity
420
1187891
8
0
100
AcDbPolyline
90
42
70
0
43
0
38
0
39
0
10
358.5
20
590.3999938964844
10
611
20
590.3999938964844
10
611
20
590.3999938964844
10
614.9018064403226
20
590.015699504549
10
618.6536686473017
20
588.8775845467101
10
622.111404660392
20
587.0293861425353
10
625.142135623731
20
584.5421295202153
10
627.6293922460509
20
581.5113985568764
10
629.4775906502257
20
578.0536625437862
10
630.6157056080646
20
574.301800336807
10
631
20
570.3999938964844
10
631
20
338.6000061035156
10
631
20
338.6000061035156
10
630.6157056080646
20
334.69819966319307
10
629.4775906502257
20
330.9463374562138
10
627.6293922460509
20
327.48860144312357
10
625.142135623731
20
324.4578704797847
10
622.111404660392
20
321.97061385746474
10
618.6536686473017
20
320.1224154532899
10
614.9018064403226
20
318.984300495451
10
611
20
318.6000061035156
10
358.5
20
318.6000061035156
10
358.5
20
318.6000061035156
10
354.59819355967744
20
318.984300495451
10
350.8463313526982
20
320.1224154532899
10
347.38859533960795
20
321.97061385746474
10
344.35786437626905
20
324.4578704797847
10
341.8706077539491
20
327.48860144312357
10
340.02240934977425
20
330.9463374562138
10
338.8842943919354
20
334.69819966319307
10
338.5
20
338.6000061035156
10
338.5
20
570.3999938964844
10
338.5
20
570.3999938964844
10
338.8842943919354
20
574.301800336807
10
340.02240934977425
20
578.0536625437862
10
341.8706077539491
20
581.5113985568764
10
344.35786437626905
20
584.5421295202153
10
347.38859533960795
20
587.0293861425353
10
350.8463313526982
20
588.8775845467101
10
354.59819355967744
20
590.015699504549
10
358.5
20
590.3999938964844
10
358.5
20
590.3999938964844
0
LWPOLYLINE
5
2B
330
C
100
AcDbEntity
420
1187891
8
0
100
AcDbPolyline
90
42
70
0
43
0
38
0
39
0
10
371.5
20
573.3999938964844
10
598
20
573.3999938964844
10
598
20
573.3999938964844
10
601.121445152258
20
573.0925583829361
10
604.1229349178415
20
572.182066416665
10
606.8891237283136
20
570.703507693325
10
609.3137084989847
20
568.7137023954691
10
611.3035137968408
20
566.289117624798
10
612.7820725201806
20
563.5229288143258
10
613.6925644864517
20
560.5214390487424
10
614
20
557.3999938964844
10
614
20
419.3999938964844
10
614
20
419.3999938964844
10
613.6925644864517
20
416.2785487442263
10
612.7820725201806
20
413.2770589786429
10
611.3035137968408
20
410.51087016817075
10
609.3137084989847
20
408.08628539749964
10
606.8891237283136
20
406.09648009964366
10
604.1229349178415
20
404.6179213763038
10
601.121445152258
20
403.70742941003266
10
598
20
403.3999938964844
10
371.5
20
403.3999938964844
10
371.5
20
403.3999938964844
10
368.37855484774195
20
403.70742941003266
10
365.37706508215854
20
404.6179213763038
10
362.6108762716864
20
406.09648009964366
10
360.18629150101526
20
408.08628539749964
10
358.1964862031593
20
410.51087016817075
10
356.7179274798194
20
413.2770589786429
10
355.8074355135483
20
416.2785487442263
10
355.5
20
419.3999938964844
10
355.5
20
557.3999938964844
10
355.5
20
557.3999938964844
10
355.8074355135483
20
560.5214390487424
10
356.7179274798194
20
563.5229288143258
10
358.1964862031593
20
566.289117624798
10
360.18629150101526
20
568.7137023954691
10
362.6108762716864
20
570.703507693325
10
365.37706508215854
20
572.182066416665
10
368.37855484774195
20
573.0925583829361
10
371.5
20
573.3999938964844
10
371.5
20
573.3999938964844
0
IMAGE
5
2D
330
C
100
AcDbEntity
8
0
100
AcDbRasterImage
90
0
10
294
20
768.3999938964844
30
0
11
1
21
0
31
0
12
0
22
1
32
0
13
300
23
351
340
2C
70
3
280
1
281
50
282
50
283
0
360
2E
71
1
91
2
14
-0.5
24
-0.5
14
299.5
24
350.5
290
1
0
TEXT
5
30
330
C
100
AcDbEntity
420
1187891
8
0
100
AcDbText
10
355.5
20
379.3999938964844
30
0
40
14
1
None + Four-Value Offset
7
Arial
100
AcDbText
0
TEXT
5
31
330
C
100
AcDbEntity
420
998754
8
0
100
AcDbText
10
355.5
20
358.70001220703125
30
0
40
12
1
object-fit: none
7
Consolas
100
AcDbText
0
TEXT
5
32
330
C
100
AcDbEntity
420
998754
8
0
100
AcDbText
10
355.5
20
341.29998779296875
30
0
40
12
1
object-position: right 18px bottom 12px
7
Consolas
100
AcDbText
0
LWPOLYLINE
5
33
330
C
100
AcDbEntity
420
1187891
8
0
100
AcDbPolyline
90
42
70
0
43
0
38
0
39
0
10
669
20
590.3999938964844
10
921.5
20
590.3999938964844
10
921.5
20
590.3999938964844
10
925.4018064403226
20
590.015699504549
10
929.1536686473017
20
588.8775845467101
10
932.611404660392
20
587.0293861425353
10
935.642135623731
20
584.5421295202153
10
938.1293922460509
20
581.5113985568764
10
939.9775906502257
20
578.0536625437862
10
941.1157056080646
20
574.301800336807
10
941.5
20
570.3999938964844
10
941.5
20
338.6000061035156
10
941.5
20
338.6000061035156
10
941.1157056080646
20
334.69819966319307
10
939.9775906502257
20
330.9463374562138
10
938.1293922460509
20
327.48860144312357
10
935.642135623731
20
324.4578704797847
10
932.611404660392
20
321.97061385746474
10
929.1536686473017
20
320.1224154532899
10
925.4018064403226
20
318.984300495451
10
921.5
20
318.6000061035156
10
669
20
318.6000061035156
10
669
20
318.6000061035156
10
665.0981935596774
20
318.984300495451
10
661.3463313526983
20
320.1224154532899
10
657.888595339608
20
321.97061385746474
10
654.857864376269
20
324.4578704797847
10
652.3706077539491
20
327.48860144312357
10
650.5224093497743
20
330.9463374562138
10
649.3842943919354
20
334.69819966319307
10
649
20
338.6000061035156
10
649
20
570.3999938964844
10
649
20
570.3999938964844
10
649.3842943919354
20
574.301800336807
10
650.5224093497743
20
578.0536625437862
10
652.3706077539491
20
581.5113985568764
10
654.857864376269
20
584.5421295202153
10
657.888595339608
20
587.0293861425353
10
661.3463313526981
20
588.8775845467101
10
665.0981935596774
20
590.015699504549
10
669
20
590.3999938964844
10
669
20
590.3999938964844
0
LWPOLYLINE
5
34
330
C
100
AcDbEntity
420
1187891
8
0
100
AcDbPolyline
90
42
70
0
43
0
38
0
39
0
10
682
20
573.3999938964844
10
908.5
20
573.3999938964844
10
908.5
20
573.3999938964844
10
911.621445152258
20
573.0925583829361
10
914.6229349178415
20
572.182066416665
10
917.3891237283136
20
570.703507693325
10
919.8137084989847
20
568.7137023954691
10
921.8035137968408
20
566.289117624798
10
923.2820725201806
20
563.5229288143258
10
924.1925644864517
20
560.5214390487424
10
924.5
20
557.3999938964844
10
924.5
20
419.3999938964844
10
924.5
20
419.3999938964844
10
924.1925644864517
20
416.2785487442263
10
923.2820725201806
20
413.2770589786429
10
921.8035137968408
20
410.51087016817075
10
919.8137084989847
20
408.08628539749964
10
917.3891237283136
20
406.09648009964366
10
914.6229349178415
20
404.6179213763038
10
911.621445152258
20
403.70742941003266
10
908.5
20
403.3999938964844
10
682
20
403.3999938964844
10
682
20
403.3999938964844
10
678.878554847742
20
403.70742941003266
10
675.8770650821585
20
404.6179213763038
10
673.1108762716864
20
406.09648009964366
10
670.6862915010153
20
408.08628539749964
10
668.6964862031592
20
410.51087016817075
10
667.2179274798194
20
413.2770589786429
10
666.3074355135483
20
416.2785487442263
10
666
20
419.3999938964844
10
666
20
557.3999938964844
10
666
20
557.3999938964844
10
666.3074355135483
20
560.5214390487424
10
667.2179274798194
20
563.5229288143258
10
668.6964862031592
20
566.289117624798
10
670.6862915010153
20
568.7137023954691
10
673.1108762716864
20
570.703507693325
10
675.8770650821585
20
572.182066416665
10
678.878554847742
20
573.0925583829361
10
682
20
573.3999938964844
10
682
20
573.3999938964844
0
IMAGE
5
36
330
C
100
AcDbEntity
8
0
100
AcDbRasterImage
90
0
10
668
20
571.3999938964844
30
0
11
0.9991573371855065
21
0
31
0
12
0
22
0.9991573371855065
32
0
13
142
23
166
340
35
70
3
280
1
281
50
282
50
283
0
360
37
71
1
91
2
14
-0.5
24
-0.5
14
141.5
24
165.5
290
1
0
TEXT
5
39
330
C
100
AcDbEntity
420
1187891
8
0
100
AcDbText
10
666
20
379.3999938964844
30
0
40
14
1
Contain + Keywords
7
Arial
100
AcDbText
0
TEXT
5
3A
330
C
100
AcDbEntity
420
998754
8
0
100
AcDbText
10
666
20
358.70001220703125
30
0
40
12
1
object-fit: contain
7
Consolas
100
AcDbText
0
TEXT
5
3B
330
C
100
AcDbEntity
420
998754
8
0
100
AcDbText
10
666
20
341.29998779296875
30
0
40
12
1
object-position: left top
7
Consolas
100
AcDbText
0
LWPOLYLINE
5
3C
330
C
100
AcDbEntity
420
1187891
8
0
100
AcDbPolyline
90
42
70
0
43
0
38
0
39
0
10
979.5
20
590.3999938964844
10
1232
20
590.3999938964844
10
1232
20
590.3999938964844
10
1235.9018064403226
20
590.015699504549
10
1239.6536686473019
20
588.8775845467101
10
1243.111404660392
20
587.0293861425353
10
1246.142135623731
20
584.5421295202153
10
1248.6293922460509
20
581.5113985568764
10
1250.4775906502257
20
578.0536625437862
10
1251.6157056080647
20
574.301800336807
10
1252
20
570.3999938964844
10
1252
20
338.6000061035156
10
1252
20
338.6000061035156
10
1251.6157056080647
20
334.69819966319307
10
1250.4775906502257
20
330.9463374562138
10
1248.6293922460509
20
327.48860144312357
10
1246.142135623731
20
324.4578704797847
10
1243.111404660392
20
321.97061385746474
10
1239.6536686473019
20
320.1224154532899
10
1235.9018064403226
20
318.984300495451
10
1232
20
318.6000061035156
10
979.5
20
318.6000061035156
10
979.5
20
318.6000061035156
10
975.5981935596774
20
318.984300495451
10
971.8463313526983
20
320.1224154532899
10
968.388595339608
20
321.97061385746474
10
965.357864376269
20
324.4578704797847
10
962.8706077539491
20
327.48860144312357
10
961.0224093497743
20
330.9463374562138
10
959.8842943919354
20
334.69819966319307
10
959.5
20
338.6000061035156
10
959.5
20
570.3999938964844
10
959.5
20
570.3999938964844
10
959.8842943919354
20
574.301800336807
10
961.0224093497743
20
578.0536625437862
10
962.8706077539491
20
581.5113985568764
10
965.357864376269
20
584.5421295202153
10
968.388595339608
20
587.0293861425353
10
971.8463313526981
20
588.8775845467101
10
975.5981935596774
20
590.015699504549
10
979.5
20
590.3999938964844
10
979.5
20
590.3999938964844
0
LWPOLYLINE
5
3D
330
C
100
AcDbEntity
420
1187891
8
0
100
AcDbPolyline
90
42
70
0
43
0
38
0
39
0
10
992.5
20
573.3999938964844
10
1219
20
573.3999938964844
10
1219
20
573.3999938964844
10
1222.121445152258
20
573.0925583829361
10
1225.1229349178413
20
572.182066416665
10
1227.8891237283137
20
570.703507693325
10
1230.3137084989849
20
568.7137023954691
10
1232.3035137968407
20
566.289117624798
10
1233.7820725201807
20
563.5229288143258
10
1234.6925644864516
20
560.5214390487424
10
1235
20
557.3999938964844
10
1235
20
419.3999938964844
10
1235
20
419.3999938964844
10
1234.6925644864516
20
416.2785487442263
10
1233.7820725201807
20
413.2770589786429
10
1232.3035137968407
20
410.51087016817075
10
1230.3137084989849
20
408.08628539749964
10
1227.8891237283137
20
406.09648009964366
10
1225.1229349178413
20
404.6179213763038
10
1222.121445152258
20
403.70742941003266
10
1219
20
403.3999938964844
10
992.5
20
403.3999938964844
10
992.5
20
403.3999938964844
10
989.378554847742
20
403.70742941003266
10
986.3770650821585
20
404.6179213763038
10
983.6108762716864
20
406.09648009964366
10
981.1862915010153
20
408.08628539749964
10
979.1964862031592
20
410.51087016817075
10
977.7179274798194
20
413.2770589786429
10
976.8074355135483
20
416.2785487442263
10
976.5
20
419.3999938964844
10
976.5
20
557.3999938964844
10
976.5
20
557.3999938964844
10
976.8074355135483
20
560.5214390487424
10
977.7179274798194
20
563.5229288143258
10
979.1964862031592
20
566.289117624798
10
981.1862915010153
20
568.7137023954691
10
983.6108762716864
20
570.703507693325
10
986.3770650821585
20
572.182066416665
10
989.378554847742
20
573.0925583829361
10
992.5
20
573.3999938964844
10
992.5
20
573.3999938964844
0
IMAGE
5
3F
330
C
100
AcDbEntity
8
0
100
AcDbRasterImage
90
0
10
978.5
20
571.3999938964844
30
0
11
0.9980392156862745
21
0
31
0
12
0
22
0.9980392156862745
32
0
13
255
23
166
340
3E
70
3
280
1
281
50
282
50
283
0
360
40
71
1
91
2
14
-0.5
24
-0.5
14
254.5
24
165.5
290
1
0
TEXT
5
42
330
C
100
AcDbEntity
420
1187891
8
0
100
AcDbText
10
976.5
20
379.3999938964844
30
0
40
14
1
Cover + Percentages
7
Arial
100
AcDbText
0
TEXT
5
43
330
C
100
AcDbEntity
420
998754
8
0
100
AcDbText
10
976.5
20
358.70001220703125
30
0
40
12
1
object-fit: cover
7
Consolas
100
AcDbText
0
TEXT
5
44
330
C
100
AcDbEntity
420
998754
8
0
100
AcDbText
10
976.5
20
341.29998779296875
30
0
40
12
1
object-position: 18% 78%
7
Consolas
100
AcDbText
0
LWPOLYLINE
5
45
330
C
100
AcDbEntity
420
1187891
8
0
100
AcDbPolyline
90
42
70
0
43
0
38
0
39
0
10
48
20
300.6000061035156
10
300.5
20
300.6000061035156
10
300.5
20
300.6000061035156
10
304.40180644032256
20
300.21571171158024
10
308.1536686473018
20
299.0775967537414
10
311.61140466039205
20
297.2293983495665
10
314.64213562373095
20
294.7421417272466
10
317.1293922460509
20
291.7114107639077
10
318.97759065022575
20
288.2536747508174
10
320.1157056080646
20
284.5018125438382
10
320.5
20
280.6000061035156
10
320.5
20
48.800048828125
10
320.5
20
48.800048828125
10
320.1157056080646
20
44.898242387802384
10
318.97759065022575
20
41.14638018082326
10
317.1293922460509
20
37.688644167732946
10
314.64213562373095
20
34.65791320439405
10
311.61140466039205
20
32.170656582074116
10
308.1536686473018
20
30.322458177899307
10
304.40180644032256
20
29.18434322006044
10
300.5
20
28.800048828125
10
48
20
28.800048828125
10
48
20
28.800048828125
10
44.09819355967743
20
29.18434322006044
10
40.34633135269821
20
30.322458177899307
10
36.88859533960796
20
32.170656582074116
10
33.85786437626905
20
34.65791320439405
10
31.370607753949095
20
37.688644167732946
10
29.522409349774264
20
41.14638018082326
10
28.38429439193539
20
44.898242387802384
10
28
20
48.800048828125
10
28
20
280.6000061035156
10
28
20
280.6000061035156
10
28.38429439193539
20
284.5018125438382
10
29.522409349774264
20
288.2536747508174
10
31.37060775394909
20
291.7114107639077
10
33.85786437626905
20
294.7421417272466
10
36.88859533960796
20
297.2293983495665
10
40.34633135269819
20
299.0775967537414
10
44.098193559677426
20
300.21571171158024
10
47.99999999999999
20
300.6000061035156
10
48
20
300.6000061035156
0
LWPOLYLINE
5
46
330
C
100
AcDbEntity
420
1187891
8
0
100
AcDbPolyline
90
42
70
0
43
0
38
0
39
0
10
61
20
283.6000061035156
10
287.5
20
283.6000061035156
10
287.5
20
283.6000061035156
10
290.62144515225805
20
283.29257058996734
10
293.62293491784146
20
282.3820786236962
10
296.3891237283136
20
280.90351990035634
10
298.81370849898474
20
278.91371460250036
10
300.8035137968407
20
276.48912983182925
10
302.2820725201806
20
273.7229410213571
10
303.1925644864517
20
270.7214512557737
10
303.5
20
267.6000061035156
10
303.5
20
129.5999755859375
10
303.5
20
129.5999755859375
10
303.1925644864517
20
126.47853043367945
10
302.2820725201806
20
123.47704066809604
10
300.8035137968407
20
120.71085185762388
10
298.81370849898474
20
118.28626708695276
10
296.3891237283136
20
116.29646178909672
10
293.62293491784146
20
114.81790306575692
10
290.62144515225805
20
113.90741109948578
10
287.5
20
113.5999755859375
10
61
20
113.5999755859375
10
61
20
113.5999755859375
10
57.87855484774195
20
113.90741109948578
10
54.877065082158566
20
114.81790306575692
10
52.110876271686365
20
116.29646178909672
10
49.68629150101524
20
118.28626708695276
10
47.696486203159274
20
120.71085185762388
10
46.21792747981941
20
123.47704066809604
10
45.30743551354831
20
126.47853043367945
10
45
20
129.5999755859375
10
45
20
267.6000061035156
10
45
20
267.6000061035156
10
45.30743551354831
20
270.7214512557737
10
46.21792747981941
20
273.7229410213571
10
47.696486203159274
20
276.48912983182925
10
49.68629150101523
20
278.91371460250036
10
52.110876271686365
20
280.90351990035634
10
54.87706508215855
20
282.3820786236962
10
57.87855484774194
20
283.2925705899673
10
61
20
283.6000061035156
10
61
20
283.6000061035156
0
IMAGE
5
48
330
C
100
AcDbEntity
8
0
100
AcDbRasterImage
90
0
10
161.5
20
253.5999755859375
30
0
11
1
21
0
31
0
12
0
22
1
32
0
13
128
23
128
340
47
70
3
280
1
281
50
282
50
283
0
360
49
71
1
91
2
14
-0.5
24
-0.5
14
127.5
24
127.5
290
1
0
TEXT
5
4B
330
C
100
AcDbEntity
420
1187891
8
0
100
AcDbText
10
45
20
89.5999755859375
30
0
40
14
1
Scale-Down + Offset
7
Arial
100
AcDbText
0
TEXT
5
4C
330
C
100
AcDbEntity
420
998754
8
0
100
AcDbText
10
45
20
68.9000244140625
30
0
40
12
1
object-fit: scale-down
7
Consolas
100
AcDbText
0
TEXT
5
4D
330
C
100
AcDbEntity
420
998754
8
0
100
AcDbText
10
45
20
51.5
30
0
40
12
1
object-position: right 12px bottom 10px
7
Consolas
100
AcDbText
0
LWPOLYLINE
5
4E
330
C
100
AcDbEntity
420
1187891
8
0
100
AcDbPolyline
90
42
70
0
43
0
38
0
39
0
10
358.5
20
300.6000061035156
10
611
20
300.6000061035156
10
611
20
300.6000061035156
10
614.9018064403226
20
300.21571171158024
10
618.6536686473017
20
299.0775967537414
10
622.111404660392
20
297.2293983495665
10
625.142135623731
20
294.7421417272466
10
627.6293922460509
20
291.7114107639077
10
629.4775906502257
20
288.2536747508174
10
630.6157056080646
20
284.5018125438382
10
631
20
280.6000061035156
10
631
20
48.800048828125
10
631
20
48.800048828125
10
630.6157056080646
20
44.898242387802384
10
629.4775906502257
20
41.14638018082326
10
627.6293922460509
20
37.688644167732946
10
625.142135623731
20
34.65791320439405
10
622.111404660392
20
32.170656582074116
10
618.6536686473017
20
30.322458177899307
10
614.9018064403226
20
29.18434322006044
10
611
20
28.800048828125
10
358.5
20
28.800048828125
10
358.5
20
28.800048828125
10
354.59819355967744
20
29.18434322006044
10
350.8463313526982
20
30.322458177899307
10
347.38859533960795
20
32.170656582074116
10
344.35786437626905
20
34.65791320439405
10
341.8706077539491
20
37.688644167732946
10
340.02240934977425
20
41.14638018082326
10
338.8842943919354
20
44.898242387802384
10
338.5
20
48.800048828125
10
338.5
20
280.6000061035156
10
338.5
20
280.6000061035156
10
338.8842943919354
20
284.5018125438382
10
340.02240934977425
20
288.2536747508174
10
341.8706077539491
20
291.7114107639077
10
344.35786437626905
20
294.7421417272466
10
347.38859533960795
20
297.2293983495665
10
350.8463313526982
20
299.0775967537414
10
354.59819355967744
20
300.21571171158024
10
358.5
20
300.6000061035156
10
358.5
20
300.6000061035156
0
LWPOLYLINE
5
4F
330
C
100
AcDbEntity
420
1187891
8
0
100
AcDbPolyline
90
42
70
0
43
0
38
0
39
0
10
371.5
20
283.6000061035156
10
598
20
283.6000061035156
10
598
20
283.6000061035156
10
601.121445152258
20
283.29257058996734
10
604.1229349178415
20
282.3820786236962
10
606.8891237283136
20
280.90351990035634
10
609.3137084989847
20
278.91371460250036
10
611.3035137968408
20
276.48912983182925
10
612.7820725201806
20
273.7229410213571
10
613.6925644864517
20
270.7214512557737
10
614
20
267.6000061035156
10
614
20
129.5999755859375
10
614
20
129.5999755859375
10
613.6925644864517
20
126.47853043367945
10
612.7820725201806
20
123.47704066809604
10
611.3035137968408
20
120.71085185762388
10
609.3137084989847
20
118.28626708695276
10
606.8891237283136
20
116.29646178909672
10
604.1229349178415
20
114.81790306575692
10
601.121445152258
20
113.90741109948578
10
598
20
113.5999755859375
10
371.5
20
113.5999755859375
10
371.5
20
113.5999755859375
10
368.37855484774195
20
113.90741109948578
10
365.37706508215854
20
114.81790306575692
10
362.6108762716864
20
116.29646178909672
10
360.18629150101526
20
118.28626708695276
10
358.1964862031593
20
120.71085185762388
10
356.7179274798194
20
123.47704066809604
10
355.8074355135483
20
126.47853043367945
10
355.5
20
129.5999755859375
10
355.5
20
267.6000061035156
10
355.5
20
267.6000061035156
10
355.8074355135483
20
270.7214512557737
10
356.7179274798194
20
273.7229410213571
10
358.1964862031593
20
276.48912983182925
10
360.18629150101526
20
278.91371460250036
10
362.6108762716864
20
280.90351990035634
10
365.37706508215854
20
282.3820786236962
10
368.37855484774195
20
283.2925705899673
10
371.5
20
283.6000061035156
10
371.5
20
283.6000061035156
0
IMAGE
5
51
330
C
100
AcDbEntity
8
0
100
AcDbRasterImage
90
0
10
357.5
20
281.6000061035156
30
0
11
0.9980392156862745
21
0
31
0
12
0
22
0.9980392156862745
32
0
13
255
23
166
340
50
70
3
280
1
281
50
282
50
283
0
360
52
71
1
91
2
14
-0.5
24
-0.5
14
254.5
24
165.5
290
1
0
TEXT
5
54
330
C
100
AcDbEntity
420
1187891
8
0
100
AcDbText
10
355.5
20
89.5999755859375
30
0
40
14
1
View Box via 
7
Arial
100
AcDbText
0
TEXT
5
55
330
C
100
AcDbEntity
420
998754
8
0
100
AcDbText
10
444.6833190917969
20
89.0999755859375
30
0
40
12
1
inset()
7
Consolas
100
AcDbText
0
TEXT
5
56
330
C
100
AcDbEntity
420
6388113
8
0
100
AcDbText
10
355.5
20
68.9000244140625
30
0
40
12
1
Crops the intrinsic image before fitting it into the
7
Arial
100
AcDbText
0
TEXT
5
57
330
C
100
AcDbEntity
420
6388113
8
0
100
AcDbText
10
355.5
20
51.5
30
0
40
12
1
frame.
7
Arial
100
AcDbText
0
LWPOLYLINE
5
58
330
C
100
AcDbEntity
420
1187891
8
0
100
AcDbPolyline
90
42
70
0
43
0
38
0
39
0
10
669
20
300.6000061035156
10
921.5
20
300.6000061035156
10
921.5
20
300.6000061035156
10
925.4018064403226
20
300.21571171158024
10
929.1536686473017
20
299.0775967537414
10
932.611404660392
20
297.2293983495665
10
935.642135623731
20
294.7421417272466
10
938.1293922460509
20
291.7114107639077
10
939.9775906502257
20
288.2536747508174
10
941.1157056080646
20
284.5018125438382
10
941.5
20
280.6000061035156
10
941.5
20
48.800048828125
10
941.5
20
48.800048828125
10
941.1157056080646
20
44.898242387802384
10
939.9775906502257
20
41.14638018082326
10
938.1293922460509
20
37.688644167732946
10
935.642135623731
20
34.65791320439405
10
932.611404660392
20
32.170656582074116
10
929.1536686473017
20
30.322458177899307
10
925.4018064403226
20
29.18434322006044
10
921.5
20
28.800048828125
10
669
20
28.800048828125
10
669
20
28.800048828125
10
665.0981935596774
20
29.18434322006044
10
661.3463313526983
20
30.322458177899307
10
657.888595339608
20
32.170656582074116
10
654.857864376269
20
34.65791320439405
10
652.3706077539491
20
37.688644167732946
10
650.5224093497743
20
41.14638018082326
10
649.3842943919354
20
44.898242387802384
10
649
20
48.800048828125
10
649
20
280.6000061035156
10
649
20
280.6000061035156
10
649.3842943919354
20
284.5018125438382
10
650.5224093497743
20
288.2536747508174
10
652.3706077539491
20
291.7114107639077
10
654.857864376269
20
294.7421417272466
10
657.888595339608
20
297.2293983495665
10
661.3463313526981
20
299.0775967537414
10
665.0981935596774
20
300.21571171158024
10
669
20
300.6000061035156
10
669
20
300.6000061035156
0
LWPOLYLINE
5
59
330
C
100
AcDbEntity
420
1187891
8
0
100
AcDbPolyline
90
42
70
0
43
0
38
0
39
0
10
682
20
283.6000061035156
10
908.5
20
283.6000061035156
10
908.5
20
283.6000061035156
10
911.621445152258
20
283.29257058996734
10
914.6229349178415
20
282.3820786236962
10
917.3891237283136
20
280.90351990035634
10
919.8137084989847
20
278.91371460250036
10
921.8035137968408
20
276.48912983182925
10
923.2820725201806
20
273.7229410213571
10
924.1925644864517
20
270.7214512557737
10
924.5
20
267.6000061035156
10
924.5
20
129.5999755859375
10
924.5
20
129.5999755859375
10
924.1925644864517
20
126.47853043367945
10
923.2820725201806
20
123.47704066809604
10
921.8035137968408
20
120.71085185762388
10
919.8137084989847
20
118.28626708695276
10
917.3891237283136
20
116.29646178909672
10
914.6229349178415
20
114.81790306575692
10
911.621445152258
20
113.90741109948578
10
908.5
20
113.5999755859375
10
682
20
113.5999755859375
10
682
20
113.5999755859375
10
678.878554847742
20
113.90741109948578
10
675.8770650821585
20
114.81790306575692
10
673.1108762716864
20
116.29646178909672
10
670.6862915010153
20
118.28626708695276
10
668.6964862031592
20
120.71085185762388
10
667.2179274798194
20
123.47704066809604
10
666.3074355135483
20
126.47853043367945
10
666
20
129.5999755859375
10
666
20
267.6000061035156
10
666
20
267.6000061035156
10
666.3074355135483
20
270.7214512557737
10
667.2179274798194
20
273.7229410213571
10
668.6964862031592
20
276.48912983182925
10
670.6862915010153
20
278.91371460250036
10
673.1108762716864
20
280.90351990035634
10
675.8770650821585
20
282.3820786236962
10
678.878554847742
20
283.2925705899673
10
682
20
283.6000061035156
10
682
20
283.6000061035156
0
IMAGE
5
5B
330
C
100
AcDbEntity
8
0
100
AcDbRasterImage
90
0
10
668
20
281.6000061035156
30
0
11
0.9980392156862745
21
0
31
0
12
0
22
0.9980392156862745
32
0
13
255
23
166
340
5A
70
3
280
1
281
50
282
50
283
0
360
5C
71
1
91
2
14
-0.5
24
-0.5
14
254.5
24
165.5
290
1
0
TEXT
5
5E
330
C
100
AcDbEntity
420
1187891
8
0
100
AcDbText
10
666
20
89.5999755859375
30
0
40
14
1
View Box via 
7
Arial
100
AcDbText
0
TEXT
5
5F
330
C
100
AcDbEntity
420
998754
8
0
100
AcDbText
10
755.183349609375
20
89.0999755859375
30
0
40
12
1
xywh()
7
Consolas
100
AcDbText
0
TEXT
5
60
330
C
100
AcDbEntity
420
6388113
8
0
100
AcDbText
10
666
20
68.9000244140625
30
0
40
12
1
Uses an explicit source rectangle and then
7
Arial
100
AcDbText
0
TEXT
5
61
330
C
100
AcDbEntity
420
6388113
8
0
100
AcDbText
10
666
20
51.5
30
0
40
12
1
applies cover cropping.
7
Arial
100
AcDbText
0
LWPOLYLINE
5
62
330
C
100
AcDbEntity
420
1187891
8
0
100
AcDbPolyline
90
42
70
0
43
0
38
0
39
0
10
979.5
20
300.6000061035156
10
1232
20
300.6000061035156
10
1232
20
300.6000061035156
10
1235.9018064403226
20
300.21571171158024
10
1239.6536686473019
20
299.0775967537414
10
1243.111404660392
20
297.2293983495665
10
1246.142135623731
20
294.7421417272466
10
1248.6293922460509
20
291.7114107639077
10
1250.4775906502257
20
288.2536747508174
10
1251.6157056080647
20
284.5018125438382
10
1252
20
280.6000061035156
10
1252
20
48.800048828125
10
1252
20
48.800048828125
10
1251.6157056080647
20
44.898242387802384
10
1250.4775906502257
20
41.14638018082326
10
1248.6293922460509
20
37.688644167732946
10
1246.142135623731
20
34.65791320439405
10
1243.111404660392
20
32.170656582074116
10
1239.6536686473019
20
30.322458177899307
10
1235.9018064403226
20
29.18434322006044
10
1232
20
28.800048828125
10
979.5
20
28.800048828125
10
979.5
20
28.800048828125
10
975.5981935596774
20
29.18434322006044
10
971.8463313526983
20
30.322458177899307
10
968.388595339608
20
32.170656582074116
10
965.357864376269
20
34.65791320439405
10
962.8706077539491
20
37.688644167732946
10
961.0224093497743
20
41.14638018082326
10
959.8842943919354
20
44.898242387802384
10
959.5
20
48.800048828125
10
959.5
20
280.6000061035156
10
959.5
20
280.6000061035156
10
959.8842943919354
20
284.5018125438382
10
961.0224093497743
20
288.2536747508174
10
962.8706077539491
20
291.7114107639077
10
965.357864376269
20
294.7421417272466
10
968.388595339608
20
297.2293983495665
10
971.8463313526981
20
299.0775967537414
10
975.5981935596774
20
300.21571171158024
10
979.5
20
300.6000061035156
10
979.5
20
300.6000061035156
0
LWPOLYLINE
5
63
330
C
100
AcDbEntity
420
1187891
8
0
100
AcDbPolyline
90
42
70
0
43
0
38
0
39
0
10
992.5
20
283.6000061035156
10
1219
20
283.6000061035156
10
1219
20
283.6000061035156
10
1222.121445152258
20
283.29257058996734
10
1225.1229349178413
20
282.3820786236962
10
1227.8891237283137
20
280.90351990035634
10
1230.3137084989849
20
278.91371460250036
10
1232.3035137968407
20
276.48912983182925
10
1233.7820725201807
20
273.7229410213571
10
1234.6925644864516
20
270.7214512557737
10
1235
20
267.6000061035156
10
1235
20
129.5999755859375
10
1235
20
129.5999755859375
10
1234.6925644864516
20
126.47853043367945
10
1233.7820725201807
20
123.47704066809604
10
1232.3035137968407
20
120.71085185762388
10
1230.3137084989849
20
118.28626708695276
10
1227.8891237283137
20
116.29646178909672
10
1225.1229349178413
20
114.81790306575692
10
1222.121445152258
20
113.90741109948578
10
1219
20
113.5999755859375
10
992.5
20
113.5999755859375
10
992.5
20
113.5999755859375
10
989.378554847742
20
113.90741109948578
10
986.3770650821585
20
114.81790306575692
10
983.6108762716864
20
116.29646178909672
10
981.1862915010153
20
118.28626708695276
10
979.1964862031592
20
120.71085185762388
10
977.7179274798194
20
123.47704066809604
10
976.8074355135483
20
126.47853043367945
10
976.5
20
129.5999755859375
10
976.5
20
267.6000061035156
10
976.5
20
267.6000061035156
10
976.8074355135483
20
270.7214512557737
10
977.7179274798194
20
273.7229410213571
10
979.1964862031592
20
276.48912983182925
10
981.1862915010153
20
278.91371460250036
10
983.6108762716864
20
280.90351990035634
10
986.3770650821585
20
282.3820786236962
10
989.378554847742
20
283.2925705899673
10
992.5
20
283.6000061035156
10
992.5
20
283.6000061035156
0
IMAGE
5
65
330
C
100
AcDbEntity
8
0
100
AcDbRasterImage
90
0
10
1004.8295269012451
20
281.6000061035156
30
0
11
0.9992126049381671
21
0
31
0
12
0
22
0.9992126049381671
32
0
13
202
23
166
340
64
70
3
280
1
281
50
282
50
283
0
360
66
71
1
91
2
14
-0.5
24
-0.5
14
201.5
24
165.5
290
1
0
TEXT
5
68
330
C
100
AcDbEntity
420
1187891
8
0
100
AcDbText
10
976.5
20
89.5999755859375
30
0
40
14
1
View Box via 
7
Arial
100
AcDbText
0
TEXT
5
69
330
C
100
AcDbEntity
420
998754
8
0
100
AcDbText
10
1065.683349609375
20
89.0999755859375
30
0
40
12
1
rect()
7
Consolas
100
AcDbText
0
TEXT
5
6A
330
C
100
AcDbEntity
420
6388113
8
0
100
AcDbText
10
976.5
20
68.9000244140625
30
0
40
12
1
Demonstrates the top/right/bottom/left rectangle
7
Arial
100
AcDbText
0
TEXT
5
6B
330
C
100
AcDbEntity
420
6388113
8
0
100
AcDbText
10
976.5
20
51.5
30
0
40
12
1
form.
7
Arial
100
AcDbText
0
ENDSEC
0
SECTION
2
OBJECTS
0
DICTIONARY
5
A
330
0
100
AcDbDictionary
281
1
3
ACAD_GROUP
350
B
3
ACAD_IMAGE_DICT
350
25
3
ACAD_IMAGE_DICT
350
2F
3
ACAD_IMAGE_DICT
350
38
3
ACAD_IMAGE_DICT
350
41
3
ACAD_IMAGE_DICT
350
4A
3
ACAD_IMAGE_DICT
350
53
3
ACAD_IMAGE_DICT
350
5D
3
ACAD_IMAGE_DICT
350
67
0
DICTIONARY
5
B
330
A
100
AcDbDictionary
281
0
0
IMAGEDEF
5
22
330
25
102
{ACAD_REACTORS
330
25
330
24
102
}
100
AcDbRasterImageDef
1
object-position-view-box-dxf-assets/image1.jpg
10
255
20
166
11
1
21
1
280
1
281
0
0
IMAGEDEF_REACTOR
5
24
330
0
100
AcDbRasterImageDefReactor
90
2
330
23
0
DICTIONARY
5
25
330
A
100
AcDbDictionary
281
0
3
image1
350
22
0
IMAGEDEF
5
2C
330
2F
102
{ACAD_REACTORS
330
2F
330
2E
102
}
100
AcDbRasterImageDef
1
object-position-view-box-dxf-assets/image2.jpg
10
300
20
351
11
1
21
1
280
1
281
0
0
IMAGEDEF_REACTOR
5
2E
330
0
100
AcDbRasterImageDefReactor
90
2
330
2D
0
DICTIONARY
5
2F
330
A
100
AcDbDictionary
281
0
3
image2
350
2C
0
IMAGEDEF
5
35
330
38
102
{ACAD_REACTORS
330
38
330
37
102
}
100
AcDbRasterImageDef
1
object-position-view-box-dxf-assets/image3.jpg
10
142
20
166
11
1
21
1
280
1
281
0
0
IMAGEDEF_REACTOR
5
37
330
0
100
AcDbRasterImageDefReactor
90
2
330
36
0
DICTIONARY
5
38
330
A
100
AcDbDictionary
281
0
3
image3
350
35
0
IMAGEDEF
5
3E
330
41
102
{ACAD_REACTORS
330
41
330
40
102
}
100
AcDbRasterImageDef
1
object-position-view-box-dxf-assets/image4.jpg
10
255
20
166
11
1
21
1
280
1
281
0
0
IMAGEDEF_REACTOR
5
40
330
0
100
AcDbRasterImageDefReactor
90
2
330
3F
0
DICTIONARY
5
41
330
A
100
AcDbDictionary
281
0
3
image4
350
3E
0
IMAGEDEF
5
47
330
4A
102
{ACAD_REACTORS
330
4A
330
49
102
}
100
AcDbRasterImageDef
1
object-position-view-box-dxf-assets/image5.png
10
128
20
128
11
1
21
1
280
1
281
0
0
IMAGEDEF_REACTOR
5
49
330
0
100
AcDbRasterImageDefReactor
90
2
330
48
0
DICTIONARY
5
4A
330
A
100
AcDbDictionary
281
0
3
image5
350
47
0
IMAGEDEF
5
50
330
53
102
{ACAD_REACTORS
330
53
330
52
102
}
100
AcDbRasterImageDef
1
object-position-view-box-dxf-assets/image6.png
10
255
20
166
11
1
21
1
280
1
281
0
0
IMAGEDEF_REACTOR
5
52
330
0
100
AcDbRasterImageDefReactor
90
2
330
51
0
DICTIONARY
5
53
330
A
100
AcDbDictionary
281
0
3
image6
350
50
0
IMAGEDEF
5
5A
330
5D
102
{ACAD_REACTORS
330
5D
330
5C
102
}
100
AcDbRasterImageDef
1
object-position-view-box-dxf-assets/image7.png
10
255
20
166
11
1
21
1
280
1
281
0
0
IMAGEDEF_REACTOR
5
5C
330
0
100
AcDbRasterImageDefReactor
90
2
330
5B
0
DICTIONARY
5
5D
330
A
100
AcDbDictionary
281
0
3
image7
350
5A
0
IMAGEDEF
5
64
330
67
102
{ACAD_REACTORS
330
67
330
66
102
}
100
AcDbRasterImageDef
1
object-position-view-box-dxf-assets/image8.png
10
202
20
166
11
1
21
1
280
1
281
0
0
IMAGEDEF_REACTOR
5
66
330
0
100
AcDbRasterImageDefReactor
90
2
330
65
0
DICTIONARY
5
67
330
A
100
AcDbDictionary
281
0
3
image8
350
64
0
ENDSEC
0
EOF