0
SECTION
2
HEADER
9
$ACADVER
1
AC1021
9
$LASTSAVEDBY
1
@tarikjabiri/dxf
9
$HANDSEED
5
35
9
$INSUNITS
70
0
9
$CLAYER
8
0
9
$VIEWCTR
10
456.0000000000001
20
262.0000000000001
0
ENDSEC
0
SECTION
2
CLASSES
0
ENDSEC
0
SECTION
2
TABLES
0
TABLE
2
VPORT
5
1
330
0
100
AcDbSymbolTable
70
1
0
VPORT
5
19
330
1
100
AcDbSymbolTableRecord
100
AcDbViewportTableRecord
2
*Active
70
0
10
0
20
0
11
1
21
1
12
456.0000000000001
22
262.0000000000001
13
0
23
0
14
10
24
10
15
10
25
10
16
0
26
0
36
1
17
0
27
0
37
0
40
1705.8538009110407
41
2
42
50
43
0
44
0
50
0
51
0
71
0
72
100
73
1
74
3
75
0
76
1
77
0
78
0
281
0
65
1
110
0
120
0
130
0
111
1
121
0
131
0
112
0
122
1
132
0
79
0
146
0
348
10020
60
7
61
5
292
1
282
1
141
0
142
0
63
250
421
3358443
0
ENDTAB
0
TABLE
2
LTYPE
5
2
330
0
100
AcDbSymbolTable
70
3
0
LTYPE
5
12
330
2
100
AcDbSymbolTableRecord
100
AcDbLinetypeTableRecord
2
ByBlock
70
0
3

72
65
73
0
40
0
0
LTYPE
5
13
330
2
100
AcDbSymbolTableRecord
100
AcDbLinetypeTableRecord
2
ByLayer
70
0
3

72
65
73
0
40
0
0
LTYPE
5
14
330
2
100
AcDbSymbolTableRecord
100
AcDbLinetypeTableRecord
2
Continuous
70
0
3
Solid line
72
65
73
0
40
0
0
ENDTAB
0
TABLE
2
LAYER
5
3
330
0
100
AcDbSymbolTable
70
1
0
LAYER
5
15
330
3
100
AcDbSymbolTableRecord
100
AcDbLayerTableRecord
2
0
70
0
62
7
6
Continuous
370
0
390
0
0
ENDTAB
0
TABLE
2
STYLE
5
4
330
0
100
AcDbSymbolTable
70
2
0
STYLE
5
16
330
4
100
AcDbSymbolTableRecord
100
AcDbTextStyleTableRecord
2
Standard
70
0
40
0
41
1
50
0
71
0
42
1
3
txt
4

0
STYLE
5
1B
330
4
100
AcDbSymbolTableRecord
100
AcDbTextStyleTableRecord
2
Arial
70
0
40
0
41
1
50
0
71
0
42
1
3
Arial.ttf
4

0
ENDTAB
0
TABLE
2
VIEW
5
5
330
0
100
AcDbSymbolTable
70
0
0
ENDTAB
0
TABLE
2
UCS
5
6
330
0
100
AcDbSymbolTable
70
0
0
ENDTAB
0
TABLE
2
APPID
5
7
330
0
100
AcDbSymbolTable
70
1
0
APPID
5
17
330
7
100
AcDbSymbolTableRecord
100
AcDbRegAppTableRecord
2
ACAD
70
0
0
ENDTAB
0
TABLE
2
DIMSTYLE
5
8
330
0
100
AcDbSymbolTable
70
1
100
AcDbDimStyleTable
0
DIMSTYLE
105
18
330
8
100
AcDbSymbolTableRecord
100
AcDbDimStyleTableRecord
2
Standard
70
0
340
16
0
ENDTAB
0
TABLE
2
BLOCK_RECORD
5
9
330
0
100
AcDbSymbolTable
70
2
0
BLOCK_RECORD
5
C
330
9
100
AcDbSymbolTableRecord
100
AcDbBlockTableRecord
2
*Model_Space
70
0
280
1
281
0
0
BLOCK_RECORD
5
F
330
9
100
AcDbSymbolTableRecord
100
AcDbBlockTableRecord
2
*Paper_Space
70
0
280
1
281
0
0
ENDTAB
0
ENDSEC
0
SECTION
2
BLOCKS
0
BLOCK
5
D
330
C
100
AcDbEntity
8
0
100
AcDbBlockBegin
2
*Model_Space
70
0
10
0
20
0
30
0
3
*Model_Space
1

0
ENDBLK
5
E
100
AcDbEntity
8
0
100
AcDbBlockEnd
0
BLOCK
5
10
330
F
100
AcDbEntity
8
0
100
AcDbBlockBegin
2
*Paper_Space
70
0
10
0
20
0
30
0
3
*Paper_Space
1

0
ENDBLK
5
11
100
AcDbEntity
8
0
100
AcDbBlockEnd
0
ENDSEC
0
SECTION
2
ENTITIES
0
TEXT
5
1A
330
C
100
AcDbEntity
420
0
8
0
100
AcDbText
10
24
20
331.5
30
0
40
22
1
Object Fit
7
Arial
100
AcDbText
0
TEXT
5
1C
330
C
100
AcDbEntity
420
4674921
8
0
100
AcDbText
10
24
20
301
30
0
40
16
1
The same wide image is rendered with contain, cover, and scale-down inside fixed portrait frames.
7
Arial
100
AcDbText
0
LWPOLYLINE
5
1D
330
C
100
AcDbEntity
420
16777215
8
0
100
AcDbPolyline
90
42
70
0
43
0
38
0
39
0
10
40
20
278
10
408
20
278
10
408
20
278
10
411.12144515225805
20
277.6925644864517
10
414.12293491784146
20
276.7820725201806
10
416.8891237283136
20
275.3035137968407
10
419.31370849898474
20
273.31370849898474
10
421.3035137968407
20
270.8891237283136
10
422.7820725201806
20
268.12293491784146
10
423.6925644864517
20
265.12144515225805
10
424
20
262
10
424
20
40
10
424
20
40
10
423.6925644864517
20
36.87855484774195
10
422.7820725201806
20
33.87706508215854
10
421.3035137968407
20
31.11087627168638
10
419.31370849898474
20
28.686291501015262
10
416.8891237283136
20
26.69648620315928
10
414.12293491784146
20
25.217927479819423
10
411.12144515225805
20
24.307435513548285
10
408
20
24
10
40
20
24
10
40
20
24
10
36.87855484774195
20
24.307435513548285
10
33.877065082158566
20
25.217927479819423
10
31.11087627168637
20
26.69648620315928
10
28.68629150101524
20
28.686291501015262
10
26.696486203159274
20
31.11087627168638
10
25.217927479819412
20
33.87706508215854
10
24.307435513548313
20
36.87855484774195
10
24
20
40
10
24
20
262
10
24
20
262
10
24.307435513548313
20
265.12144515225805
10
25.21792747981941
20
268.12293491784146
10
26.696486203159274
20
270.8891237283136
10
28.686291501015237
20
273.31370849898474
10
31.110876271686365
20
275.3035137968407
10
33.87706508215855
20
276.7820725201806
10
36.87855484774194
20
277.6925644864517
10
40
20
278
10
40
20
278
0
LWPOLYLINE
5
1E
330
C
100
AcDbEntity
420
988970
8
0
100
AcDbPolyline
90
42
70
0
43
0
38
0
39
0
10
50
20
264
10
398
20
264
10
398
20
264
10
400.34108386419354
20
263.76942336483876
10
402.59220118838107
20
263.08655439013546
10
404.66684279623524
20
261.97763534763055
10
406.4852813742386
20
260.4852813742386
10
407.97763534763055
20
258.66684279623524
10
409.08655439013546
20
256.59220118838107
10
409.76942336483876
20
254.34108386419354
10
410
20
252
10
410
20
96
10
410
20
96
10
409.76942336483876
20
93.65891613580646
10
409.08655439013546
20
91.40779881161893
10
407.97763534763055
20
89.33315720376476
10
406.4852813742386
20
87.51471862576142
10
404.66684279623524
20
86.02236465236945
10
402.59220118838107
20
84.91344560986454
10
400.34108386419354
20
84.23057663516124
10
398
20
84
10
50
20
84
10
50
20
84
10
47.658916135806464
20
84.23057663516124
10
45.407798811618925
20
84.91344560986454
10
43.33315720376478
20
86.02236465236945
10
41.51471862576143
20
87.51471862576142
10
40.022364652369454
20
89.33315720376476
10
38.91344560986456
20
91.40779881161893
10
38.230576635161235
20
93.65891613580646
10
38
20
96
10
38
20
252
10
38
20
252
10
38.230576635161235
20
254.34108386419354
10
38.91344560986456
20
256.59220118838107
10
40.022364652369454
20
258.66684279623524
10
41.51471862576143
20
260.4852813742386
10
43.33315720376477
20
261.97763534763055
10
45.40779881161892
20
263.08655439013546
10
47.65891613580646
20
263.76942336483876
10
50
20
264
10
50
20
264
0
IMAGE
5
20
330
C
100
AcDbEntity
8
0
100
AcDbRasterImage
90
0
10
148.7863247863248
20
262
30
0
11
1.002849002849003
21
0
31
0
12
0
22
1.002849002849003
32
0
13
150
23
176
340
1F
70
3
280
1
281
50
282
50
283
0
360
21
71
1
91
2
14
-0.5
24
-0.5
14
149.5
24
175.5
290
1
0
TEXT
5
23
330
C
100
AcDbEntity
420
0
8
0
100
AcDbText
10
38
20
62
30
0
40
14
1
Contain
7
Arial
100
AcDbText
0
TEXT
5
24
330
C
100
AcDbEntity
420
6583435
8
0
100
AcDbText
10
38
20
42.5
30
0
40
12
1
Preserves the full image with letterboxing.
7
Arial
100
AcDbText
0
LWPOLYLINE
5
25
330
C
100
AcDbEntity
420
16777215
8
0
100
AcDbPolyline
90
42
70
0
43
0
38
0
39
0
10
456
20
278
10
824
20
278
10
824
20
278
10
827.121445152258
20
277.6925644864517
10
830.1229349178415
20
276.7820725201806
10
832.8891237283136
20
275.3035137968407
10
835.3137084989847
20
273.31370849898474
10
837.3035137968408
20
270.8891237283136
10
838.7820725201806
20
268.12293491784146
10
839.6925644864517
20
265.12144515225805
10
840
20
262
10
840
20
40
10
840
20
40
10
839.6925644864517
20
36.87855484774195
10
838.7820725201806
20
33.87706508215854
10
837.3035137968408
20
31.11087627168638
10
835.3137084989847
20
28.686291501015262
10
832.8891237283136
20
26.69648620315928
10
830.1229349178415
20
25.217927479819423
10
827.121445152258
20
24.307435513548285
10
824
20
24
10
456
20
24
10
456
20
24
10
452.87855484774195
20
24.307435513548285
10
449.87706508215854
20
25.217927479819423
10
447.1108762716864
20
26.69648620315928
10
444.68629150101526
20
28.686291501015262
10
442.6964862031593
20
31.11087627168638
10
441.2179274798194
20
33.87706508215854
10
440.3074355135483
20
36.87855484774195
10
440
20
40
10
440
20
262
10
440
20
262
10
440.3074355135483
20
265.12144515225805
10
441.2179274798194
20
268.12293491784146
10
442.6964862031593
20
270.8891237283136
10
444.68629150101526
20
273.31370849898474
10
447.1108762716864
20
275.3035137968407
10
449.87706508215854
20
276.7820725201806
10
452.87855484774195
20
277.6925644864517
10
456
20
278
10
456
20
278
0
LWPOLYLINE
5
26
330
C
100
AcDbEntity
420
988970
8
0
100
AcDbPolyline
90
42
70
0
43
0
38
0
39
0
10
466
20
264
10
814
20
264
10
814
20
264
10
816.3410838641936
20
263.76942336483876
10
818.5922011883811
20
263.08655439013546
10
820.6668427962352
20
261.97763534763055
10
822.4852813742385
20
260.4852813742386
10
823.9776353476306
20
258.66684279623524
10
825.0865543901355
20
256.59220118838107
10
825.7694233648388
20
254.34108386419354
10
826
20
252
10
826
20
96
10
826
20
96
10
825.7694233648388
20
93.65891613580646
10
825.0865543901355
20
91.40779881161893
10
823.9776353476306
20
89.33315720376476
10
822.4852813742385
20
87.51471862576142
10
820.6668427962352
20
86.02236465236945
10
818.5922011883811
20
84.91344560986454
10
816.3410838641936
20
84.23057663516124
10
814
20
84
10
466
20
84
10
466
20
84
10
463.65891613580646
20
84.23057663516124
10
461.40779881161893
20
84.91344560986454
10
459.33315720376476
20
86.02236465236945
10
457.5147186257614
20
87.51471862576142
10
456.02236465236945
20
89.33315720376476
10
454.91344560986454
20
91.40779881161893
10
454.23057663516124
20
93.65891613580646
10
454
20
96
10
454
20
252
10
454
20
252
10
454.23057663516124
20
254.34108386419354
10
454.91344560986454
20
256.59220118838107
10
456.02236465236945
20
258.66684279623524
10
457.5147186257614
20
260.4852813742386
10
459.33315720376476
20
261.97763534763055
10
461.40779881161893
20
263.08655439013546
10
463.65891613580646
20
263.76942336483876
10
466
20
264
10
466
20
264
0
IMAGE
5
28
330
C
100
AcDbEntity
8
0
100
AcDbRasterImage
90
0
10
456
20
262
30
0
11
1
21
0
31
0
12
0
22
1
32
0
13
368
23
176
340
27
70
3
280
1
281
50
282
50
283
0
360
29
71
1
91
2
14
-0.5
24
-0.5
14
367.5
24
175.5
290
1
0
TEXT
5
2B
330
C
100
AcDbEntity
420
0
8
0
100
AcDbText
10
454
20
62
30
0
40
14
1
Cover
7
Arial
100
AcDbText
0
TEXT
5
2C
330
C
100
AcDbEntity
420
6583435
8
0
100
AcDbText
10
454
20
42.5
30
0
40
12
1
Fills the frame by cropping the source edges.
7
Arial
100
AcDbText
0
LWPOLYLINE
5
2D
330
C
100
AcDbEntity
420
16777215
8
0
100
AcDbPolyline
90
42
70
0
43
0
38
0
39
0
10
872
20
278
10
1240
20
278
10
1240
20
278
10
1243.121445152258
20
277.6925644864517
10
1246.1229349178413
20
276.7820725201806
10
1248.8891237283137
20
275.3035137968407
10
1251.3137084989849
20
273.31370849898474
10
1253.3035137968407
20
270.8891237283136
10
1254.7820725201807
20
268.12293491784146
10
1255.6925644864516
20
265.12144515225805
10
1256
20
262
10
1256
20
40
10
1256
20
40
10
1255.6925644864516
20
36.87855484774195
10
1254.7820725201807
20
33.87706508215854
10
1253.3035137968407
20
31.11087627168638
10
1251.3137084989849
20
28.686291501015262
10
1248.8891237283137
20
26.69648620315928
10
1246.1229349178413
20
25.217927479819423
10
1243.121445152258
20
24.307435513548285
10
1240
20
24
10
872
20
24
10
872
20
24
10
868.878554847742
20
24.307435513548285
10
865.8770650821585
20
25.217927479819423
10
863.1108762716864
20
26.69648620315928
10
860.6862915010153
20
28.686291501015262
10
858.6964862031592
20
31.11087627168638
10
857.2179274798194
20
33.87706508215854
10
856.3074355135483
20
36.87855484774195
10
856
20
40
10
856
20
262
10
856
20
262
10
856.3074355135483
20
265.12144515225805
10
857.2179274798194
20
268.12293491784146
10
858.6964862031592
20
270.8891237283136
10
860.6862915010153
20
273.31370849898474
10
863.1108762716864
20
275.3035137968407
10
865.8770650821585
20
276.7820725201806
10
868.878554847742
20
277.6925644864517
10
872
20
278
10
872
20
278
0
LWPOLYLINE
5
2E
330
C
100
AcDbEntity
420
988970
8
0
100
AcDbPolyline
90
42
70
0
43
0
38
0
39
0
10
882
20
264
10
1230
20
264
10
1230
20
264
10
1232.3410838641935
20
263.76942336483876
10
1234.592201188381
20
263.08655439013546
10
1236.6668427962352
20
261.97763534763055
10
1238.4852813742386
20
260.4852813742386
10
1239.9776353476304
20
258.66684279623524
10
1241.0865543901355
20
256.59220118838107
10
1241.7694233648388
20
254.34108386419354
10
1242
20
252
10
1242
20
96
10
1242
20
96
10
1241.7694233648388
20
93.65891613580646
10
1241.0865543901355
20
91.40779881161893
10
1239.9776353476304
20
89.33315720376476
10
1238.4852813742386
20
87.51471862576142
10
1236.6668427962352
20
86.02236465236945
10
1234.592201188381
20
84.91344560986454
10
1232.3410838641935
20
84.23057663516124
10
1230
20
84
10
882
20
84
10
882
20
84
10
879.6589161358064
20
84.23057663516124
10
877.4077988116189
20
84.91344560986454
10
875.3331572037648
20
86.02236465236945
10
873.5147186257615
20
87.51471862576142
10
872.0223646523694
20
89.33315720376476
10
870.9134456098645
20
91.40779881161893
10
870.2305766351612
20
93.65891613580646
10
870
20
96
10
870
20
252
10
870
20
252
10
870.2305766351612
20
254.34108386419354
10
870.9134456098645
20
256.59220118838107
10
872.0223646523694
20
258.66684279623524
10
873.5147186257615
20
260.4852813742386
10
875.3331572037648
20
261.97763534763055
10
877.4077988116189
20
263.08655439013546
10
879.6589161358064
20
263.76942336483876
10
882
20
264
10
882
20
264
0
IMAGE
5
30
330
C
100
AcDbEntity
8
0
100
AcDbRasterImage
90
0
10
992
20
238
30
0
11
1
21
0
31
0
12
0
22
1
32
0
13
128
23
128
340
2F
70
3
280
1
281
50
282
50
283
0
360
31
71
1
91
2
14
-0.5
24
-0.5
14
127.5
24
127.5
290
1
0
TEXT
5
33
330
C
100
AcDbEntity
420
0
8
0
100
AcDbText
10
870
20
62
30
0
40
14
1
Scale Down
7
Arial
100
AcDbText
0
TEXT
5
34
330
C
100
AcDbEntity
420
6583435
8
0
100
AcDbText
10
870
20
42.5
30
0
40
12
1
Does not upscale when the intrinsic image is already smaller.
7
Arial
100
AcDbText
0
ENDSEC
0
SECTION
2
OBJECTS
0
DICTIONARY
5
A
330
0
100
AcDbDictionary
281
1
3
ACAD_GROUP
350
B
3
ACAD_IMAGE_DICT
350
22
3
ACAD_IMAGE_DICT
350
2A
3
ACAD_IMAGE_DICT
350
32
0
DICTIONARY
5
B
330
A
100
AcDbDictionary
281
0
0
IMAGEDEF
5
1F
330
22
102
{ACAD_REACTORS
330
22
330
21
102
}
100
AcDbRasterImageDef
1
images/image1.jpg
10
150
20
176
11
1
21
1
280
1
281
0
0
IMAGEDEF_REACTOR
5
21
330
0
100
AcDbRasterImageDefReactor
90
2
330
20
0
DICTIONARY
5
22
330
A
100
AcDbDictionary
281
0
3
image1
350
1F
0
IMAGEDEF
5
27
330
2A
102
{ACAD_REACTORS
330
2A
330
29
102
}
100
AcDbRasterImageDef
1
images/image2.jpg
10
368
20
176
11
1
21
1
280
1
281
0
0
IMAGEDEF_REACTOR
5
29
330
0
100
AcDbRasterImageDefReactor
90
2
330
28
0
DICTIONARY
5
2A
330
A
100
AcDbDictionary
281
0
3
image2
350
27
0
IMAGEDEF
5
2F
330
32
102
{ACAD_REACTORS
330
32
330
31
102
}
100
AcDbRasterImageDef
1
images/image3.jpg
10
128
20
128
11
1
21
1
280
1
281
0
0
IMAGEDEF_REACTOR
5
31
330
0
100
AcDbRasterImageDefReactor
90
2
330
30
0
DICTIONARY
5
32
330
A
100
AcDbDictionary
281
0
3
image3
350
2F
0
ENDSEC
0
EOF