  0
SECTION
  2
HEADER
  0
ENDSEC
  0
SECTION
  2
CLASSES
  0
CLASS
  1
ACDBDICTIONARYWDFLT
  2
AcDbDictionaryWithDefault
  3
ObjectDBX Classes
 90
32768
280
0
281
0
  0
CLASS
  1
ACDBPLACEHOLDER
  2
AcDbPlaceHolder
  3
ObjectDBX Classes
 90
0
280
0
281
0
  0
CLASS
  1
LAYOUT
  2
AcDbLayout
  3
ObjectDBX Classes
 90
0
280
0
281
0
  0
CLASS
  1
DICTIONARYVAR
  2
AcDbDictionaryVar
  3
ObjectDBX Classes
 90
0
280
0
281
0
  0
CLASS
  1
TABLESTYLE
  2
AcDbTableStyle
  3
ObjectDBX Classes
 90
4095
280
0
281
0
  0
CLASS
  1
MATERIAL
  2
AcDbMaterial
  3
ObjectDBX Classes
 90
1153
280
0
281
0
  0
CLASS
  1
VISUALSTYLE
  2
AcDbVisualStyle
  3
ObjectDBX Classes
 90
4095
280
0
281
0
  0
CLASS
  1
SCALE
  2
AcDbScale
  3
ObjectDBX Classes
 90
1153
280
0
281
0
  0
CLASS
  1
MLEADERSTYLE
  2
AcDbMLeaderStyle
  3
ObjectDBX Classes
 90
4095
280
0
281
0
  0
CLASS
  1
CELLSTYLEMAP
  2
AcDbCellStyleMap
  3
ObjectDBX Classes
 90
1152
280
0
281
0
  0
CLASS
  1
EXACXREFPANELOBJECT
  2
ExAcXREFPanelObject
  3
ObjectDBX Classes
 90
1025
280
0
281
0
  0
CLASS
  1
NPOCOLLECTION
  2
AcDbImpNonPersistentObjectsCollection
  3
ObjectDBX Classes
 90
1153
280
0
281
0
  0
CLASS
  1
LAYER_INDEX
  2
AcDbLayerIndex
  3
ObjectDBX Classes
 90
0
280
0
281
0
  0
CLASS
  1
SPATIAL_INDEX
  2
AcDbSpatialIndex
  3
ObjectDBX Classes
 90
0
280
0
281
0
  0
CLASS
  1
IDBUFFER
  2
AcDbIdBuffer
  3
ObjectDBX Classes
 90
32768
280
0
281
0
  0
CLASS
  1
ACDBSECTIONVIEWSTYLE
  2
AcDbSectionViewStyle
  3
ObjectDBX Classes
 90
1025
280
0
281
0
  0
CLASS
  1
ACDBDETAILVIEWSTYLE
  2
AcDbDetailViewStyle
  3
ObjectDBX Classes
 90
1025
280
0
281
0
  0
CLASS
  1
MESH
  2
AcDbSubDMesh
  3
ObjectDBX Classes
 90
0
280
0
281
1
  0
CLASS
  1
SORTENTSTABLE
  2
AcDbSortentsTable
  3
ObjectDBX Classes
 90
0
280
0
281
0
  0
CLASS
  1
ACDB_TEXTOBJECTCONTEXTDATA_CLASS
  2
AcDbTextObjectContextData
  3
ObjectDBX Classes
 90
1153
280
0
281
0
  0
CLASS
  1
WIPEOUT
  2
AcDbWipeout
  3
WipeOut
 90
32895
280
0
281
1
  0
CLASS
  1
WIPEOUTVARIABLES
  2
AcDbWipeoutVariables
  3
WipeOut
 90
32768
280
0
281
0
  0
CLASS
  1
DIMASSOC
  2
AcDbDimAssoc
  3
AcDbDimAssoc
 90
0
280
0
281
0
  0
CLASS
  1
ACAD_TABLE
  2
AcDbTable
  3
ObjectDBX Classes
 90
1025
280
0
281
1
  0
CLASS
  1
TABLECONTENT
  2
AcDbTableContent
  3
ObjectDBX Classes
 90
1152
280
0
281
0
  0
CLASS
  1
TABLEGEOMETRY
  2
AcDbTableGeometry
  3
ObjectDBX Classes
 90
1152
280
0
281
0
  0
CLASS
  1
IMAGE
  2
AcDbRasterImage
  3
ISM
 90
32895
280
0
281
1
  0
CLASS
  1
IMAGEDEF
  2
AcDbRasterImageDef
  3
ISM
 90
0
280
0
281
0
  0
CLASS
  1
IMAGEDEF_REACTOR
  2
AcDbRasterImageDefReactor
  3
ISM
 90
1
280
0
281
0
  0
CLASS
  1
DBCOLOR
  2
AcDbColor
  3
ObjectDBX Classes
 90
0
280
0
281
0
  0
CLASS
  1
GEODATA
  2
AcDbGeoData
  3
ObjectDBX Classes
 90
4095
280
0
281
0
  0
CLASS
  1
MULTILEADER
  2
AcDbMLeader
  3
ObjectDBX Classes
 90
1025
280
0
281
0
  0
CLASS
  1
PDFUNDERLAY
  2
AcDbPdfReference
  3
ObjectDBX Classes
 90
4095
280
0
281
1
  0
CLASS
  1
PDFDEFINITION
  2
AcDbPdfDefinition
  3
ObjectDBX Classes
 90
1153
280
0
281
0
  0
CLASS
  1
RASTERVARIABLES
  2
AcDbRasterVariables
  3
ISM
 90
0
280
0
281
0
  0
CLASS
  1
SPATIAL_FILTER
  2
AcDbSpatialFilter
  3
ObjectDBX Classes
 90
0
280
0
281
0
  0
CLASS
  1
ACDB_MLEADEROBJECTCONTEXTDATA_CLASS
  2
AcDbMLeaderObjectContextData
  3
ObjectDBX Classes
 90
1025
280
0
281
0
  0
CLASS
  1
PLOTSETTINGS
  2
AcDbPlotSettings
  3
ObjectDBX Classes
 90
0
280
0
281
0
  0
CLASS
  1
FIELD
  2
AcDbField
  3
ObjectDBX Classes
 90
1152
280
0
281
0
  0
CLASS
  1
FIELDLIST
  2
AcDbFieldList
  3
ObjectDBX Classes
 90
1152
280
0
281
0
  0
CLASS
  1
ACDB_MTEXTATTRIBUTEOBJECTCONTEXTDATA_CLASS
  2
AcDbMTextAttributeObjectContextData
  3
ObjectDBX Classes
 90
1153
280
0
281
0
  0
CLASS
  1
ACDB_BLKREFOBJECTCONTEXTDATA_CLASS
  2
AcDbBlkRefObjectContextData
  3
ObjectDBX Classes
 90
1153
280
0
281
0
  0
ENDSEC
  0
SECTION
  2
TABLES
  0
TABLE
  2
VPORT
  5
A
330
0
100
AcDbSymbolTable
 70
1
  0
VPORT
  5
18
330
A
100
AcDbSymbolTableRecord
100
AcDbViewportTableRecord
  2
*Active
 70
0
 10
0.0
 20
0.0
 11
1.0
 21
1.0
 12
0.0
 22
0.0
 13
0.0
 23
0.0
 14
0.5
 24
0.5
 15
10.0
 25
10.0
 16
0.0
 26
0.0
 36
1.0
 17
0.0
 27
0.0
 37
0.0
 40
10.0
 41
1.0
 75
0
 76
1
  0
ENDTAB
  0
TABLE
  2
LTYPE
  5
6
330
0
100
AcDbSymbolTable
 70
3
  0
LTYPE
  5
B
330
6
100
AcDbSymbolTableRecord
100
AcDbLinetypeTableRecord
  2
ByLayer
 70
0
 72
0
 73
0
 40
0.0
  0
LTYPE
  5
C
330
6
100
AcDbSymbolTableRecord
100
AcDbLinetypeTableRecord
  2
ByBlock
 70
0
 72
0
 73
0
 40
0.0
  0
LTYPE
  5
D
330
6
100
AcDbSymbolTableRecord
100
AcDbLinetypeTableRecord
  2
Continuous
 70
0
 72
0
 73
0
 40
0.0
  0
ENDTAB
  0
TABLE
  2
LAYER
  5
5
330
0
100
AcDbSymbolTable
 70
1
  0
LAYER
  5
E
330
5
100
AcDbSymbolTableRecord
100
AcDbLayerTableRecord
  2
0
 70
0
 62
7
  6
Continuous
290
1
370
-3
390
0
  0
ENDTAB
  0
TABLE
  2
STYLE
  5
7
330
0
100
AcDbSymbolTable
 70
1
  0
STYLE
  5
15
330
7
100
AcDbSymbolTableRecord
100
AcDbTextStyleTableRecord
  2
Standard
 70
0
 40
0.0
 41
1.0
 42
0.0
 50
0.0
 71
0
  0
ENDTAB
  0
TABLE
  2
VIEW
  5
9
330
0
100
AcDbSymbolTable
 70
0
  0
ENDTAB
  0
TABLE
  2
UCS
  5
8
330
0
100
AcDbSymbolTable
 70
0
  0
ENDTAB
  0
TABLE
  2
APPID
  5
2
330
0
100
AcDbSymbolTable
 70
1
  0
APPID
  5
17
330
2
100
AcDbSymbolTableRecord
100
AcDbRegAppTableRecord
  2
ACAD
 70
0
  0
ENDTAB
  0
TABLE
  2
DIMSTYLE
  5
4
330
0
100
AcDbSymbolTable
 70
1
100
AcDbDimStyleTable
  0
DIMSTYLE
105
16
330
4
100
AcDbSymbolTableRecord
100
AcDbDimStyleTableRecord
  2
Standard
 70
0
  3
<>
  4
[]
 40
1.0
 41
0.18
 42
0.625
 43
3.75
 44
1.25
 45
0.0
 46
0.0
 47
0.0
 48
0.0
 49
1.0
 50
0.7853981633974483
 70
0
 90
0
140
0.18
141
0.09
142
0.0
143
25.3999999999999986
144
1.0
145
0.0
146
1.0
147
0.625
148
0.0
 71
0
 72
0
 73
0
 74
0
 75
0
 76
0
 77
1
 78
8
 79
0
170
0
171
3
172
0
173
1
174
0
175
0
176
0
177
0
178
0
179
0
271
2
272
2
273
2
274
3
275
0
276
0
277
2
278
46
279
0
280
0
281
0
282
0
283
0
284
8
285
0
286
0
287
0
288
0
289
3
290
0
340
0
371
-2
372
-2
  0
ENDTAB
  0
TABLE
  2
BLOCK_RECORD
  5
3
330
0
100
AcDbSymbolTable
 70
2
  0
BLOCK_RECORD
  5
F
330
3
100
AcDbSymbolTableRecord
100
AcDbBlockTableRecord
  2
*Model_Space
 70
0
 70
0
280
0
281
1
  0
BLOCK_RECORD
  5
12
330
3
100
AcDbSymbolTableRecord
100
AcDbBlockTableRecord
  2
*Paper_Space
 70
0
 70
0
280
0
281
1
  0
ENDTAB
  0
ENDSEC
  0
SECTION
  2
BLOCKS
  0
BLOCK
  5
10
330
F
100
AcDbEntity
  8
0
  6
ByLayer
 62
256
 48
1.0
 60
0
370
-1
100
AcDbBlockBegin
  2
*Model_Space
 70
0
 10
0.0
 20
0.0
 30
0.0
  3
*Model_Space
  0
ENDBLK
  5
11
330
F
100
AcDbEntity
  8
0
100
AcDbBlockEnd
  0
BLOCK
  5
13
330
12
100
AcDbEntity
  8
0
  6
ByLayer
 62
256
 48
1.0
 60
0
370
-1
100
AcDbBlockBegin
  2
*Paper_Space
 70
0
 10
0.0
 20
0.0
 30
0.0
  3
*Paper_Space
  0
ENDBLK
  5
14
330
12
100
AcDbEntity
  8
0
100
AcDbBlockEnd
  0
ENDSEC
  0
SECTION
  2
ENTITIES
  0
TEXT
  5
19
330
F
100
AcDbEntity
  8
0
  6
ByLayer
420
0
 48
1.0
 60
0
370
-1
100
AcDbText
 39
0.0
 10
24.0
 20
331.5
 30
0.0
 40
22.0
  1
Object Fit
 50
0.0
 41
1.0
 51
0.0
  7
Standard
 71
0
 72
0
 11
0.0
 21
0.0
 31
0.0
210
0.0
220
0.0
230
1.0
100
AcDbText
 73
0
  0
TEXT
  5
1A
330
F
100
AcDbEntity
  8
0
  6
ByLayer
420
4674921
 48
1.0
 60
0
370
-1
100
AcDbText
 39
0.0
 10
24.0
 20
301.0
 30
0.0
 40
16.0
  1
The same wide image is rendered with contain, cover, and scale-down inside fixed portrait frames.
 50
0.0
 41
1.0
 51
0.0
  7
Standard
 71
0
 72
0
 11
0.0
 21
0.0
 31
0.0
210
0.0
220
0.0
230
1.0
100
AcDbText
 73
0
  0
HATCH
  5
1B
330
F
100
AcDbEntity
  8
0
  6
ByLayer
420
16777215
 48
1.0
 60
0
370
-1
100
AcDbHatch
 30
0.0
210
0.0
220
0.0
230
1.0
  2
SOLID
 70
1
 71
0
 91
1
 92
2
 72
0
 73
1
 93
41
 10
40.0
 20
278.0
 10
408.0
 20
278.0
 10
408.0
 20
278.0
 10
411.1214451522580475
 20
277.6925644864517153
 10
414.1229349178414623
 20
276.7820725201805772
 10
416.8891237283136206
 20
275.3035137968407184
 10
419.3137084989847381
 20
273.3137084989847381
 10
421.3035137968407184
 20
270.8891237283136206
 10
422.7820725201805772
 20
268.1229349178414623
 10
423.6925644864517153
 20
265.1214451522580475
 10
424.0
 20
262.0
 10
424.0
 20
40.0
 10
424.0
 20
40.0
 10
423.6925644864517153
 20
36.8785548477419525
 10
422.7820725201805772
 20
33.8770650821585377
 10
421.3035137968407184
 20
31.1108762716863794
 10
419.3137084989847381
 20
28.6862915010152619
 10
416.8891237283136206
 20
26.6964862031592816
 10
414.1229349178414623
 20
25.2179274798194228
 10
411.1214451522580475
 20
24.3074355135482847
 10
408.0
 20
24.0
 10
40.0
 20
24.0
 10
40.0
 20
24.0
 10
36.8785548477419525
 20
24.3074355135482847
 10
33.8770650821585662
 20
25.2179274798194228
 10
31.1108762716863687
 20
26.6964862031592816
 10
28.6862915010152406
 20
28.6862915010152619
 10
26.6964862031592745
 20
31.1108762716863794
 10
25.2179274798194122
 20
33.8770650821585377
 10
24.3074355135483131
 20
36.8785548477419525
 10
24.0
 20
40.0
 10
24.0
 20
262.0
 10
24.0
 20
262.0
 10
24.3074355135483131
 20
265.1214451522580475
 10
25.2179274798194086
 20
268.1229349178414623
 10
26.6964862031592745
 20
270.8891237283136206
 10
28.6862915010152371
 20
273.3137084989847381
 10
31.1108762716863652
 20
275.3035137968407184
 10
33.8770650821585519
 20
276.7820725201805772
 10
36.8785548477419383
 20
277.6925644864517153
 10
40.0
 20
278.0
 97
0
 75
0
 76
1
 47
0.0
 98
0
  0
LWPOLYLINE
  5
1C
330
F
100
AcDbEntity
  8
0
  6
ByLayer
420
16777215
 48
1.0
 60
0
370
-1
100
AcDbPolyline
 90
41
 70
1
 43
0.0
 38
0.0
 39
0.0
210
0.0
220
0.0
230
1.0
 10
40.0
 20
278.0
 40
0.0
 41
0.0
 42
0.0
 10
408.0
 20
278.0
 40
0.0
 41
0.0
 42
0.0
 10
408.0
 20
278.0
 40
0.0
 41
0.0
 42
0.0
 10
411.1214451522580475
 20
277.6925644864517153
 40
0.0
 41
0.0
 42
0.0
 10
414.1229349178414623
 20
276.7820725201805772
 40
0.0
 41
0.0
 42
0.0
 10
416.8891237283136206
 20
275.3035137968407184
 40
0.0
 41
0.0
 42
0.0
 10
419.3137084989847381
 20
273.3137084989847381
 40
0.0
 41
0.0
 42
0.0
 10
421.3035137968407184
 20
270.8891237283136206
 40
0.0
 41
0.0
 42
0.0
 10
422.7820725201805772
 20
268.1229349178414623
 40
0.0
 41
0.0
 42
0.0
 10
423.6925644864517153
 20
265.1214451522580475
 40
0.0
 41
0.0
 42
0.0
 10
424.0
 20
262.0
 40
0.0
 41
0.0
 42
0.0
 10
424.0
 20
40.0
 40
0.0
 41
0.0
 42
0.0
 10
424.0
 20
40.0
 40
0.0
 41
0.0
 42
0.0
 10
423.6925644864517153
 20
36.8785548477419525
 40
0.0
 41
0.0
 42
0.0
 10
422.7820725201805772
 20
33.8770650821585377
 40
0.0
 41
0.0
 42
0.0
 10
421.3035137968407184
 20
31.1108762716863794
 40
0.0
 41
0.0
 42
0.0
 10
419.3137084989847381
 20
28.6862915010152619
 40
0.0
 41
0.0
 42
0.0
 10
416.8891237283136206
 20
26.6964862031592816
 40
0.0
 41
0.0
 42
0.0
 10
414.1229349178414623
 20
25.2179274798194228
 40
0.0
 41
0.0
 42
0.0
 10
411.1214451522580475
 20
24.3074355135482847
 40
0.0
 41
0.0
 42
0.0
 10
408.0
 20
24.0
 40
0.0
 41
0.0
 42
0.0
 10
40.0
 20
24.0
 40
0.0
 41
0.0
 42
0.0
 10
40.0
 20
24.0
 40
0.0
 41
0.0
 42
0.0
 10
36.8785548477419525
 20
24.3074355135482847
 40
0.0
 41
0.0
 42
0.0
 10
33.8770650821585662
 20
25.2179274798194228
 40
0.0
 41
0.0
 42
0.0
 10
31.1108762716863687
 20
26.6964862031592816
 40
0.0
 41
0.0
 42
0.0
 10
28.6862915010152406
 20
28.6862915010152619
 40
0.0
 41
0.0
 42
0.0
 10
26.6964862031592745
 20
31.1108762716863794
 40
0.0
 41
0.0
 42
0.0
 10
25.2179274798194122
 20
33.8770650821585377
 40
0.0
 41
0.0
 42
0.0
 10
24.3074355135483131
 20
36.8785548477419525
 40
0.0
 41
0.0
 42
0.0
 10
24.0
 20
40.0
 40
0.0
 41
0.0
 42
0.0
 10
24.0
 20
262.0
 40
0.0
 41
0.0
 42
0.0
 10
24.0
 20
262.0
 40
0.0
 41
0.0
 42
0.0
 10
24.3074355135483131
 20
265.1214451522580475
 40
0.0
 41
0.0
 42
0.0
 10
25.2179274798194086
 20
268.1229349178414623
 40
0.0
 41
0.0
 42
0.0
 10
26.6964862031592745
 20
270.8891237283136206
 40
0.0
 41
0.0
 42
0.0
 10
28.6862915010152371
 20
273.3137084989847381
 40
0.0
 41
0.0
 42
0.0
 10
31.1108762716863652
 20
275.3035137968407184
 40
0.0
 41
0.0
 42
0.0
 10
33.8770650821585519
 20
276.7820725201805772
 40
0.0
 41
0.0
 42
0.0
 10
36.8785548477419383
 20
277.6925644864517153
 40
0.0
 41
0.0
 42
0.0
 10
40.0
 20
278.0
 40
0.0
 41
0.0
 42
0.0
  0
HATCH
  5
1D
330
F
100
AcDbEntity
  8
0
  6
ByLayer
420
14410992
 48
1.0
 60
0
370
-1
100
AcDbHatch
 30
0.0
210
0.0
220
0.0
230
1.0
  2
SOLID
 70
1
 71
0
 91
1
 92
2
 72
0
 73
1
 93
41
 10
50.0
 20
264.0
 10
398.0
 20
264.0
 10
398.0
 20
264.0
 10
400.3410838641935356
 20
263.7694233648387581
 10
402.5922011883810683
 20
263.0865543901354613
 10
404.6668427962352439
 20
261.977635347630553
 10
406.485281374238582
 20
260.485281374238582
 10
407.977635347630553
 20
258.6668427962352439
 10
409.0865543901354613
 20
256.5922011883810683
 10
409.7694233648387581
 20
254.3410838641935356
 10
410.0
 20
252.0
 10
410.0
 20
96.0
 10
410.0
 20
96.0
 10
409.7694233648387581
 20
93.6589161358064644
 10
409.0865543901354613
 20
91.4077988116189317
 10
407.977635347630553
 20
89.3331572037647561
 10
406.485281374238582
 20
87.514718625761418
 10
404.6668427962352439
 20
86.022364652369447
 10
402.5922011883810683
 20
84.9134456098645387
 10
400.3410838641935356
 20
84.2305766351612419
 10
398.0
 20
84.0
 10
50.0
 20
84.0
 10
50.0
 20
84.0
 10
47.6589161358064644
 20
84.2305766351612419
 10
45.4077988116189246
 20
84.9134456098645387
 10
43.3331572037647774
 20
86.022364652369447
 10
41.5147186257614322
 20
87.514718625761418
 10
40.0223646523694541
 20
89.3331572037647561
 10
38.91344560986456
 20
91.4077988116189317
 10
38.2305766351612348
 20
93.6589161358064644
 10
38.0
 20
96.0
 10
38.0
 20
252.0
 10
38.0
 20
252.0
 10
38.2305766351612348
 20
254.3410838641935356
 10
38.91344560986456
 20
256.5922011883810683
 10
40.0223646523694541
 20
258.6668427962352439
 10
41.5147186257614322
 20
260.485281374238582
 10
43.3331572037647703
 20
261.977635347630553
 10
45.4077988116189175
 20
263.0865543901354613
 10
47.6589161358064572
 20
263.7694233648387581
 10
50.0
 20
264.0
 97
0
 75
0
 76
1
 47
0.0
 98
0
  0
LWPOLYLINE
  5
1E
330
F
100
AcDbEntity
  8
0
  6
ByLayer
420
988970
 48
1.0
 60
0
370
-1
100
AcDbPolyline
 90
41
 70
1
 43
0.0
 38
0.0
 39
0.0
210
0.0
220
0.0
230
1.0
 10
50.0
 20
264.0
 40
0.0
 41
0.0
 42
0.0
 10
398.0
 20
264.0
 40
0.0
 41
0.0
 42
0.0
 10
398.0
 20
264.0
 40
0.0
 41
0.0
 42
0.0
 10
400.3410838641935356
 20
263.7694233648387581
 40
0.0
 41
0.0
 42
0.0
 10
402.5922011883810683
 20
263.0865543901354613
 40
0.0
 41
0.0
 42
0.0
 10
404.6668427962352439
 20
261.977635347630553
 40
0.0
 41
0.0
 42
0.0
 10
406.485281374238582
 20
260.485281374238582
 40
0.0
 41
0.0
 42
0.0
 10
407.977635347630553
 20
258.6668427962352439
 40
0.0
 41
0.0
 42
0.0
 10
409.0865543901354613
 20
256.5922011883810683
 40
0.0
 41
0.0
 42
0.0
 10
409.7694233648387581
 20
254.3410838641935356
 40
0.0
 41
0.0
 42
0.0
 10
410.0
 20
252.0
 40
0.0
 41
0.0
 42
0.0
 10
410.0
 20
96.0
 40
0.0
 41
0.0
 42
0.0
 10
410.0
 20
96.0
 40
0.0
 41
0.0
 42
0.0
 10
409.7694233648387581
 20
93.6589161358064644
 40
0.0
 41
0.0
 42
0.0
 10
409.0865543901354613
 20
91.4077988116189317
 40
0.0
 41
0.0
 42
0.0
 10
407.977635347630553
 20
89.3331572037647561
 40
0.0
 41
0.0
 42
0.0
 10
406.485281374238582
 20
87.514718625761418
 40
0.0
 41
0.0
 42
0.0
 10
404.6668427962352439
 20
86.022364652369447
 40
0.0
 41
0.0
 42
0.0
 10
402.5922011883810683
 20
84.9134456098645387
 40
0.0
 41
0.0
 42
0.0
 10
400.3410838641935356
 20
84.2305766351612419
 40
0.0
 41
0.0
 42
0.0
 10
398.0
 20
84.0
 40
0.0
 41
0.0
 42
0.0
 10
50.0
 20
84.0
 40
0.0
 41
0.0
 42
0.0
 10
50.0
 20
84.0
 40
0.0
 41
0.0
 42
0.0
 10
47.6589161358064644
 20
84.2305766351612419
 40
0.0
 41
0.0
 42
0.0
 10
45.4077988116189246
 20
84.9134456098645387
 40
0.0
 41
0.0
 42
0.0
 10
43.3331572037647774
 20
86.022364652369447
 40
0.0
 41
0.0
 42
0.0
 10
41.5147186257614322
 20
87.514718625761418
 40
0.0
 41
0.0
 42
0.0
 10
40.0223646523694541
 20
89.3331572037647561
 40
0.0
 41
0.0
 42
0.0
 10
38.91344560986456
 20
91.4077988116189317
 40
0.0
 41
0.0
 42
0.0
 10
38.2305766351612348
 20
93.6589161358064644
 40
0.0
 41
0.0
 42
0.0
 10
38.0
 20
96.0
 40
0.0
 41
0.0
 42
0.0
 10
38.0
 20
252.0
 40
0.0
 41
0.0
 42
0.0
 10
38.0
 20
252.0
 40
0.0
 41
0.0
 42
0.0
 10
38.2305766351612348
 20
254.3410838641935356
 40
0.0
 41
0.0
 42
0.0
 10
38.91344560986456
 20
256.5922011883810683
 40
0.0
 41
0.0
 42
0.0
 10
40.0223646523694541
 20
258.6668427962352439
 40
0.0
 41
0.0
 42
0.0
 10
41.5147186257614322
 20
260.485281374238582
 40
0.0
 41
0.0
 42
0.0
 10
43.3331572037647703
 20
261.977635347630553
 40
0.0
 41
0.0
 42
0.0
 10
45.4077988116189175
 20
263.0865543901354613
 40
0.0
 41
0.0
 42
0.0
 10
47.6589161358064572
 20
263.7694233648387581
 40
0.0
 41
0.0
 42
0.0
 10
50.0
 20
264.0
 40
0.0
 41
0.0
 42
0.0
  0
TEXT
  5
1F
330
F
100
AcDbEntity
  8
0
  6
ByLayer
420
0
 48
1.0
 60
0
370
-1
100
AcDbText
 39
0.0
 10
38.0
 20
62.0
 30
0.0
 40
14.0
  1
Contain
 50
0.0
 41
1.0
 51
0.0
  7
Standard
 71
0
 72
0
 11
0.0
 21
0.0
 31
0.0
210
0.0
220
0.0
230
1.0
100
AcDbText
 73
0
  0
TEXT
  5
20
330
F
100
AcDbEntity
  8
0
  6
ByLayer
420
6583435
 48
1.0
 60
0
370
-1
100
AcDbText
 39
0.0
 10
38.0
 20
42.5
 30
0.0
 40
12.0
  1
Preserves the full image with letterboxing.
 50
0.0
 41
1.0
 51
0.0
  7
Standard
 71
0
 72
0
 11
0.0
 21
0.0
 31
0.0
210
0.0
220
0.0
230
1.0
100
AcDbText
 73
0
  0
HATCH
  5
21
330
F
100
AcDbEntity
  8
0
  6
ByLayer
420
16777215
 48
1.0
 60
0
370
-1
100
AcDbHatch
 30
0.0
210
0.0
220
0.0
230
1.0
  2
SOLID
 70
1
 71
0
 91
1
 92
2
 72
0
 73
1
 93
41
 10
456.0
 20
278.0
 10
824.0
 20
278.0
 10
824.0
 20
278.0
 10
827.1214451522580475
 20
277.6925644864517153
 10
830.1229349178414623
 20
276.7820725201805772
 10
832.8891237283136206
 20
275.3035137968407184
 10
835.3137084989847381
 20
273.3137084989847381
 10
837.3035137968407753
 20
270.8891237283136206
 10
838.7820725201805772
 20
268.1229349178414623
 10
839.6925644864517153
 20
265.1214451522580475
 10
840.0
 20
262.0
 10
840.0
 20
40.0
 10
840.0
 20
40.0
 10
839.6925644864517153
 20
36.8785548477419525
 10
838.7820725201805772
 20
33.8770650821585377
 10
837.3035137968407753
 20
31.1108762716863794
 10
835.3137084989847381
 20
28.6862915010152619
 10
832.8891237283136206
 20
26.6964862031592816
 10
830.1229349178414623
 20
25.2179274798194228
 10
827.1214451522580475
 20
24.3074355135482847
 10
824.0
 20
24.0
 10
456.0
 20
24.0
 10
456.0
 20
24.0
 10
452.8785548477419525
 20
24.3074355135482847
 10
449.8770650821585377
 20
25.2179274798194228
 10
447.1108762716863794
 20
26.6964862031592816
 10
444.6862915010152619
 20
28.6862915010152619
 10
442.6964862031592816
 20
31.1108762716863794
 10
441.2179274798194228
 20
33.8770650821585377
 10
440.3074355135482847
 20
36.8785548477419525
 10
440.0
 20
40.0
 10
440.0
 20
262.0
 10
440.0
 20
262.0
 10
440.3074355135482847
 20
265.1214451522580475
 10
441.2179274798194228
 20
268.1229349178414623
 10
442.6964862031592816
 20
270.8891237283136206
 10
444.6862915010152619
 20
273.3137084989847381
 10
447.1108762716863794
 20
275.3035137968407184
 10
449.8770650821585377
 20
276.7820725201805772
 10
452.8785548477419525
 20
277.6925644864517153
 10
456.0
 20
278.0
 97
0
 75
0
 76
1
 47
0.0
 98
0
  0
LWPOLYLINE
  5
22
330
F
100
AcDbEntity
  8
0
  6
ByLayer
420
16777215
 48
1.0
 60
0
370
-1
100
AcDbPolyline
 90
41
 70
1
 43
0.0
 38
0.0
 39
0.0
210
0.0
220
0.0
230
1.0
 10
456.0
 20
278.0
 40
0.0
 41
0.0
 42
0.0
 10
824.0
 20
278.0
 40
0.0
 41
0.0
 42
0.0
 10
824.0
 20
278.0
 40
0.0
 41
0.0
 42
0.0
 10
827.1214451522580475
 20
277.6925644864517153
 40
0.0
 41
0.0
 42
0.0
 10
830.1229349178414623
 20
276.7820725201805772
 40
0.0
 41
0.0
 42
0.0
 10
832.8891237283136206
 20
275.3035137968407184
 40
0.0
 41
0.0
 42
0.0
 10
835.3137084989847381
 20
273.3137084989847381
 40
0.0
 41
0.0
 42
0.0
 10
837.3035137968407753
 20
270.8891237283136206
 40
0.0
 41
0.0
 42
0.0
 10
838.7820725201805772
 20
268.1229349178414623
 40
0.0
 41
0.0
 42
0.0
 10
839.6925644864517153
 20
265.1214451522580475
 40
0.0
 41
0.0
 42
0.0
 10
840.0
 20
262.0
 40
0.0
 41
0.0
 42
0.0
 10
840.0
 20
40.0
 40
0.0
 41
0.0
 42
0.0
 10
840.0
 20
40.0
 40
0.0
 41
0.0
 42
0.0
 10
839.6925644864517153
 20
36.8785548477419525
 40
0.0
 41
0.0
 42
0.0
 10
838.7820725201805772
 20
33.8770650821585377
 40
0.0
 41
0.0
 42
0.0
 10
837.3035137968407753
 20
31.1108762716863794
 40
0.0
 41
0.0
 42
0.0
 10
835.3137084989847381
 20
28.6862915010152619
 40
0.0
 41
0.0
 42
0.0
 10
832.8891237283136206
 20
26.6964862031592816
 40
0.0
 41
0.0
 42
0.0
 10
830.1229349178414623
 20
25.2179274798194228
 40
0.0
 41
0.0
 42
0.0
 10
827.1214451522580475
 20
24.3074355135482847
 40
0.0
 41
0.0
 42
0.0
 10
824.0
 20
24.0
 40
0.0
 41
0.0
 42
0.0
 10
456.0
 20
24.0
 40
0.0
 41
0.0
 42
0.0
 10
456.0
 20
24.0
 40
0.0
 41
0.0
 42
0.0
 10
452.8785548477419525
 20
24.3074355135482847
 40
0.0
 41
0.0
 42
0.0
 10
449.8770650821585377
 20
25.2179274798194228
 40
0.0
 41
0.0
 42
0.0
 10
447.1108762716863794
 20
26.6964862031592816
 40
0.0
 41
0.0
 42
0.0
 10
444.6862915010152619
 20
28.6862915010152619
 40
0.0
 41
0.0
 42
0.0
 10
442.6964862031592816
 20
31.1108762716863794
 40
0.0
 41
0.0
 42
0.0
 10
441.2179274798194228
 20
33.8770650821585377
 40
0.0
 41
0.0
 42
0.0
 10
440.3074355135482847
 20
36.8785548477419525
 40
0.0
 41
0.0
 42
0.0
 10
440.0
 20
40.0
 40
0.0
 41
0.0
 42
0.0
 10
440.0
 20
262.0
 40
0.0
 41
0.0
 42
0.0
 10
440.0
 20
262.0
 40
0.0
 41
0.0
 42
0.0
 10
440.3074355135482847
 20
265.1214451522580475
 40
0.0
 41
0.0
 42
0.0
 10
441.2179274798194228
 20
268.1229349178414623
 40
0.0
 41
0.0
 42
0.0
 10
442.6964862031592816
 20
270.8891237283136206
 40
0.0
 41
0.0
 42
0.0
 10
444.6862915010152619
 20
273.3137084989847381
 40
0.0
 41
0.0
 42
0.0
 10
447.1108762716863794
 20
275.3035137968407184
 40
0.0
 41
0.0
 42
0.0
 10
449.8770650821585377
 20
276.7820725201805772
 40
0.0
 41
0.0
 42
0.0
 10
452.8785548477419525
 20
277.6925644864517153
 40
0.0
 41
0.0
 42
0.0
 10
456.0
 20
278.0
 40
0.0
 41
0.0
 42
0.0
  0
HATCH
  5
23
330
F
100
AcDbEntity
  8
0
  6
ByLayer
420
14410992
 48
1.0
 60
0
370
-1
100
AcDbHatch
 30
0.0
210
0.0
220
0.0
230
1.0
  2
SOLID
 70
1
 71
0
 91
1
 92
2
 72
0
 73
1
 93
41
 10
466.0
 20
264.0
 10
814.0
 20
264.0
 10
814.0
 20
264.0
 10
816.3410838641935925
 20
263.7694233648387581
 10
818.5922011883810683
 20
263.0865543901354613
 10
820.6668427962351871
 20
261.977635347630553
 10
822.4852813742385251
 20
260.485281374238582
 10
823.977635347630553
 20
258.6668427962352439
 10
825.0865543901354613
 20
256.5922011883810683
 10
825.7694233648387581
 20
254.3410838641935356
 10
826.0
 20
252.0
 10
826.0
 20
96.0
 10
826.0
 20
96.0
 10
825.7694233648387581
 20
93.6589161358064644
 10
825.0865543901354613
 20
91.4077988116189317
 10
823.977635347630553
 20
89.3331572037647561
 10
822.4852813742385251
 20
87.514718625761418
 10
820.6668427962351871
 20
86.022364652369447
 10
818.5922011883810683
 20
84.9134456098645387
 10
816.3410838641935925
 20
84.2305766351612419
 10
814.0
 20
84.0
 10
466.0
 20
84.0
 10
466.0
 20
84.0
 10
463.6589161358064644
 20
84.2305766351612419
 10
461.4077988116189317
 20
84.9134456098645387
 10
459.3331572037647561
 20
86.022364652369447
 10
457.514718625761418
 20
87.514718625761418
 10
456.022364652369447
 20
89.3331572037647561
 10
454.9134456098645387
 20
91.4077988116189317
 10
454.2305766351612419
 20
93.6589161358064644
 10
454.0
 20
96.0
 10
454.0
 20
252.0
 10
454.0
 20
252.0
 10
454.2305766351612419
 20
254.3410838641935356
 10
454.9134456098645387
 20
256.5922011883810683
 10
456.022364652369447
 20
258.6668427962352439
 10
457.514718625761418
 20
260.485281374238582
 10
459.3331572037647561
 20
261.977635347630553
 10
461.4077988116189317
 20
263.0865543901354613
 10
463.6589161358064644
 20
263.7694233648387581
 10
466.0
 20
264.0
 97
0
 75
0
 76
1
 47
0.0
 98
0
  0
LWPOLYLINE
  5
24
330
F
100
AcDbEntity
  8
0
  6
ByLayer
420
988970
 48
1.0
 60
0
370
-1
100
AcDbPolyline
 90
41
 70
1
 43
0.0
 38
0.0
 39
0.0
210
0.0
220
0.0
230
1.0
 10
466.0
 20
264.0
 40
0.0
 41
0.0
 42
0.0
 10
814.0
 20
264.0
 40
0.0
 41
0.0
 42
0.0
 10
814.0
 20
264.0
 40
0.0
 41
0.0
 42
0.0
 10
816.3410838641935925
 20
263.7694233648387581
 40
0.0
 41
0.0
 42
0.0
 10
818.5922011883810683
 20
263.0865543901354613
 40
0.0
 41
0.0
 42
0.0
 10
820.6668427962351871
 20
261.977635347630553
 40
0.0
 41
0.0
 42
0.0
 10
822.4852813742385251
 20
260.485281374238582
 40
0.0
 41
0.0
 42
0.0
 10
823.977635347630553
 20
258.6668427962352439
 40
0.0
 41
0.0
 42
0.0
 10
825.0865543901354613
 20
256.5922011883810683
 40
0.0
 41
0.0
 42
0.0
 10
825.7694233648387581
 20
254.3410838641935356
 40
0.0
 41
0.0
 42
0.0
 10
826.0
 20
252.0
 40
0.0
 41
0.0
 42
0.0
 10
826.0
 20
96.0
 40
0.0
 41
0.0
 42
0.0
 10
826.0
 20
96.0
 40
0.0
 41
0.0
 42
0.0
 10
825.7694233648387581
 20
93.6589161358064644
 40
0.0
 41
0.0
 42
0.0
 10
825.0865543901354613
 20
91.4077988116189317
 40
0.0
 41
0.0
 42
0.0
 10
823.977635347630553
 20
89.3331572037647561
 40
0.0
 41
0.0
 42
0.0
 10
822.4852813742385251
 20
87.514718625761418
 40
0.0
 41
0.0
 42
0.0
 10
820.6668427962351871
 20
86.022364652369447
 40
0.0
 41
0.0
 42
0.0
 10
818.5922011883810683
 20
84.9134456098645387
 40
0.0
 41
0.0
 42
0.0
 10
816.3410838641935925
 20
84.2305766351612419
 40
0.0
 41
0.0
 42
0.0
 10
814.0
 20
84.0
 40
0.0
 41
0.0
 42
0.0
 10
466.0
 20
84.0
 40
0.0
 41
0.0
 42
0.0
 10
466.0
 20
84.0
 40
0.0
 41
0.0
 42
0.0
 10
463.6589161358064644
 20
84.2305766351612419
 40
0.0
 41
0.0
 42
0.0
 10
461.4077988116189317
 20
84.9134456098645387
 40
0.0
 41
0.0
 42
0.0
 10
459.3331572037647561
 20
86.022364652369447
 40
0.0
 41
0.0
 42
0.0
 10
457.514718625761418
 20
87.514718625761418
 40
0.0
 41
0.0
 42
0.0
 10
456.022364652369447
 20
89.3331572037647561
 40
0.0
 41
0.0
 42
0.0
 10
454.9134456098645387
 20
91.4077988116189317
 40
0.0
 41
0.0
 42
0.0
 10
454.2305766351612419
 20
93.6589161358064644
 40
0.0
 41
0.0
 42
0.0
 10
454.0
 20
96.0
 40
0.0
 41
0.0
 42
0.0
 10
454.0
 20
252.0
 40
0.0
 41
0.0
 42
0.0
 10
454.0
 20
252.0
 40
0.0
 41
0.0
 42
0.0
 10
454.2305766351612419
 20
254.3410838641935356
 40
0.0
 41
0.0
 42
0.0
 10
454.9134456098645387
 20
256.5922011883810683
 40
0.0
 41
0.0
 42
0.0
 10
456.022364652369447
 20
258.6668427962352439
 40
0.0
 41
0.0
 42
0.0
 10
457.514718625761418
 20
260.485281374238582
 40
0.0
 41
0.0
 42
0.0
 10
459.3331572037647561
 20
261.977635347630553
 40
0.0
 41
0.0
 42
0.0
 10
461.4077988116189317
 20
263.0865543901354613
 40
0.0
 41
0.0
 42
0.0
 10
463.6589161358064644
 20
263.7694233648387581
 40
0.0
 41
0.0
 42
0.0
 10
466.0
 20
264.0
 40
0.0
 41
0.0
 42
0.0
  0
TEXT
  5
25
330
F
100
AcDbEntity
  8
0
  6
ByLayer
420
0
 48
1.0
 60
0
370
-1
100
AcDbText
 39
0.0
 10
454.0
 20
62.0
 30
0.0
 40
14.0
  1
Cover
 50
0.0
 41
1.0
 51
0.0
  7
Standard
 71
0
 72
0
 11
0.0
 21
0.0
 31
0.0
210
0.0
220
0.0
230
1.0
100
AcDbText
 73
0
  0
TEXT
  5
26
330
F
100
AcDbEntity
  8
0
  6
ByLayer
420
6583435
 48
1.0
 60
0
370
-1
100
AcDbText
 39
0.0
 10
454.0
 20
42.5
 30
0.0
 40
12.0
  1
Fills the frame by cropping the source edges.
 50
0.0
 41
1.0
 51
0.0
  7
Standard
 71
0
 72
0
 11
0.0
 21
0.0
 31
0.0
210
0.0
220
0.0
230
1.0
100
AcDbText
 73
0
  0
HATCH
  5
27
330
F
100
AcDbEntity
  8
0
  6
ByLayer
420
16777215
 48
1.0
 60
0
370
-1
100
AcDbHatch
 30
0.0
210
0.0
220
0.0
230
1.0
  2
SOLID
 70
1
 71
0
 91
1
 92
2
 72
0
 73
1
 93
41
 10
872.0
 20
278.0
 10
1240.0
 20
278.0
 10
1240.0
 20
278.0
 10
1243.1214451522580475
 20
277.6925644864517153
 10
1246.1229349178413486
 20
276.7820725201805772
 10
1248.8891237283137343
 20
275.3035137968407184
 10
1251.3137084989848518
 20
273.3137084989847381
 10
1253.3035137968406616
 20
270.8891237283136206
 10
1254.7820725201806908
 20
268.1229349178414623
 10
1255.6925644864516016
 20
265.1214451522580475
 10
1256.0
 20
262.0
 10
1256.0
 20
40.0
 10
1256.0
 20
40.0
 10
1255.6925644864516016
 20
36.8785548477419525
 10
1254.7820725201806908
 20
33.8770650821585377
 10
1253.3035137968406616
 20
31.1108762716863794
 10
1251.3137084989848518
 20
28.6862915010152619
 10
1248.8891237283137343
 20
26.6964862031592816
 10
1246.1229349178413486
 20
25.2179274798194228
 10
1243.1214451522580475
 20
24.3074355135482847
 10
1240.0
 20
24.0
 10
872.0
 20
24.0
 10
872.0
 20
24.0
 10
868.8785548477419525
 20
24.3074355135482847
 10
865.8770650821585377
 20
25.2179274798194228
 10
863.1108762716863794
 20
26.6964862031592816
 10
860.6862915010152619
 20
28.6862915010152619
 10
858.6964862031592247
 20
31.1108762716863794
 10
857.2179274798194228
 20
33.8770650821585377
 10
856.3074355135482847
 20
36.8785548477419525
 10
856.0
 20
40.0
 10
856.0
 20
262.0
 10
856.0
 20
262.0
 10
856.3074355135482847
 20
265.1214451522580475
 10
857.2179274798194228
 20
268.1229349178414623
 10
858.6964862031592247
 20
270.8891237283136206
 10
860.6862915010152619
 20
273.3137084989847381
 10
863.1108762716863794
 20
275.3035137968407184
 10
865.8770650821585377
 20
276.7820725201805772
 10
868.8785548477419525
 20
277.6925644864517153
 10
872.0
 20
278.0
 97
0
 75
0
 76
1
 47
0.0
 98
0
  0
LWPOLYLINE
  5
28
330
F
100
AcDbEntity
  8
0
  6
ByLayer
420
16777215
 48
1.0
 60
0
370
-1
100
AcDbPolyline
 90
41
 70
1
 43
0.0
 38
0.0
 39
0.0
210
0.0
220
0.0
230
1.0
 10
872.0
 20
278.0
 40
0.0
 41
0.0
 42
0.0
 10
1240.0
 20
278.0
 40
0.0
 41
0.0
 42
0.0
 10
1240.0
 20
278.0
 40
0.0
 41
0.0
 42
0.0
 10
1243.1214451522580475
 20
277.6925644864517153
 40
0.0
 41
0.0
 42
0.0
 10
1246.1229349178413486
 20
276.7820725201805772
 40
0.0
 41
0.0
 42
0.0
 10
1248.8891237283137343
 20
275.3035137968407184
 40
0.0
 41
0.0
 42
0.0
 10
1251.3137084989848518
 20
273.3137084989847381
 40
0.0
 41
0.0
 42
0.0
 10
1253.3035137968406616
 20
270.8891237283136206
 40
0.0
 41
0.0
 42
0.0
 10
1254.7820725201806908
 20
268.1229349178414623
 40
0.0
 41
0.0
 42
0.0
 10
1255.6925644864516016
 20
265.1214451522580475
 40
0.0
 41
0.0
 42
0.0
 10
1256.0
 20
262.0
 40
0.0
 41
0.0
 42
0.0
 10
1256.0
 20
40.0
 40
0.0
 41
0.0
 42
0.0
 10
1256.0
 20
40.0
 40
0.0
 41
0.0
 42
0.0
 10
1255.6925644864516016
 20
36.8785548477419525
 40
0.0
 41
0.0
 42
0.0
 10
1254.7820725201806908
 20
33.8770650821585377
 40
0.0
 41
0.0
 42
0.0
 10
1253.3035137968406616
 20
31.1108762716863794
 40
0.0
 41
0.0
 42
0.0
 10
1251.3137084989848518
 20
28.6862915010152619
 40
0.0
 41
0.0
 42
0.0
 10
1248.8891237283137343
 20
26.6964862031592816
 40
0.0
 41
0.0
 42
0.0
 10
1246.1229349178413486
 20
25.2179274798194228
 40
0.0
 41
0.0
 42
0.0
 10
1243.1214451522580475
 20
24.3074355135482847
 40
0.0
 41
0.0
 42
0.0
 10
1240.0
 20
24.0
 40
0.0
 41
0.0
 42
0.0
 10
872.0
 20
24.0
 40
0.0
 41
0.0
 42
0.0
 10
872.0
 20
24.0
 40
0.0
 41
0.0
 42
0.0
 10
868.8785548477419525
 20
24.3074355135482847
 40
0.0
 41
0.0
 42
0.0
 10
865.8770650821585377
 20
25.2179274798194228
 40
0.0
 41
0.0
 42
0.0
 10
863.1108762716863794
 20
26.6964862031592816
 40
0.0
 41
0.0
 42
0.0
 10
860.6862915010152619
 20
28.6862915010152619
 40
0.0
 41
0.0
 42
0.0
 10
858.6964862031592247
 20
31.1108762716863794
 40
0.0
 41
0.0
 42
0.0
 10
857.2179274798194228
 20
33.8770650821585377
 40
0.0
 41
0.0
 42
0.0
 10
856.3074355135482847
 20
36.8785548477419525
 40
0.0
 41
0.0
 42
0.0
 10
856.0
 20
40.0
 40
0.0
 41
0.0
 42
0.0
 10
856.0
 20
262.0
 40
0.0
 41
0.0
 42
0.0
 10
856.0
 20
262.0
 40
0.0
 41
0.0
 42
0.0
 10
856.3074355135482847
 20
265.1214451522580475
 40
0.0
 41
0.0
 42
0.0
 10
857.2179274798194228
 20
268.1229349178414623
 40
0.0
 41
0.0
 42
0.0
 10
858.6964862031592247
 20
270.8891237283136206
 40
0.0
 41
0.0
 42
0.0
 10
860.6862915010152619
 20
273.3137084989847381
 40
0.0
 41
0.0
 42
0.0
 10
863.1108762716863794
 20
275.3035137968407184
 40
0.0
 41
0.0
 42
0.0
 10
865.8770650821585377
 20
276.7820725201805772
 40
0.0
 41
0.0
 42
0.0
 10
868.8785548477419525
 20
277.6925644864517153
 40
0.0
 41
0.0
 42
0.0
 10
872.0
 20
278.0
 40
0.0
 41
0.0
 42
0.0
  0
HATCH
  5
29
330
F
100
AcDbEntity
  8
0
  6
ByLayer
420
14410992
 48
1.0
 60
0
370
-1
100
AcDbHatch
 30
0.0
210
0.0
220
0.0
230
1.0
  2
SOLID
 70
1
 71
0
 91
1
 92
2
 72
0
 73
1
 93
41
 10
882.0
 20
264.0
 10
1230.0
 20
264.0
 10
1230.0
 20
264.0
 10
1232.3410838641934788
 20
263.7694233648387581
 10
1234.5922011883810683
 20
263.0865543901354613
 10
1236.6668427962351871
 20
261.977635347630553
 10
1238.4852813742386388
 20
260.485281374238582
 10
1239.9776353476304394
 20
258.6668427962352439
 10
1241.0865543901354613
 20
256.5922011883810683
 10
1241.7694233648387581
 20
254.3410838641935356
 10
1242.0
 20
252.0
 10
1242.0
 20
96.0
 10
1242.0
 20
96.0
 10
1241.7694233648387581
 20
93.6589161358064644
 10
1241.0865543901354613
 20
91.4077988116189317
 10
1239.9776353476304394
 20
89.3331572037647561
 10
1238.4852813742386388
 20
87.514718625761418
 10
1236.6668427962351871
 20
86.022364652369447
 10
1234.5922011883810683
 20
84.9134456098645387
 10
1232.3410838641934788
 20
84.2305766351612419
 10
1230.0
 20
84.0
 10
882.0
 20
84.0
 10
882.0
 20
84.0
 10
879.6589161358064075
 20
84.2305766351612419
 10
877.4077988116189317
 20
84.9134456098645387
 10
875.3331572037648129
 20
86.022364652369447
 10
873.5147186257614749
 20
87.514718625761418
 10
872.022364652369447
 20
89.3331572037647561
 10
870.9134456098645387
 20
91.4077988116189317
 10
870.2305766351612419
 20
93.6589161358064644
 10
870.0
 20
96.0
 10
870.0
 20
252.0
 10
870.0
 20
252.0
 10
870.2305766351612419
 20
254.3410838641935356
 10
870.9134456098645387
 20
256.5922011883810683
 10
872.022364652369447
 20
258.6668427962352439
 10
873.5147186257614749
 20
260.485281374238582
 10
875.3331572037648129
 20
261.977635347630553
 10
877.4077988116189317
 20
263.0865543901354613
 10
879.6589161358064075
 20
263.7694233648387581
 10
882.0
 20
264.0
 97
0
 75
0
 76
1
 47
0.0
 98
0
  0
LWPOLYLINE
  5
2A
330
F
100
AcDbEntity
  8
0
  6
ByLayer
420
988970
 48
1.0
 60
0
370
-1
100
AcDbPolyline
 90
41
 70
1
 43
0.0
 38
0.0
 39
0.0
210
0.0
220
0.0
230
1.0
 10
882.0
 20
264.0
 40
0.0
 41
0.0
 42
0.0
 10
1230.0
 20
264.0
 40
0.0
 41
0.0
 42
0.0
 10
1230.0
 20
264.0
 40
0.0
 41
0.0
 42
0.0
 10
1232.3410838641934788
 20
263.7694233648387581
 40
0.0
 41
0.0
 42
0.0
 10
1234.5922011883810683
 20
263.0865543901354613
 40
0.0
 41
0.0
 42
0.0
 10
1236.6668427962351871
 20
261.977635347630553
 40
0.0
 41
0.0
 42
0.0
 10
1238.4852813742386388
 20
260.485281374238582
 40
0.0
 41
0.0
 42
0.0
 10
1239.9776353476304394
 20
258.6668427962352439
 40
0.0
 41
0.0
 42
0.0
 10
1241.0865543901354613
 20
256.5922011883810683
 40
0.0
 41
0.0
 42
0.0
 10
1241.7694233648387581
 20
254.3410838641935356
 40
0.0
 41
0.0
 42
0.0
 10
1242.0
 20
252.0
 40
0.0
 41
0.0
 42
0.0
 10
1242.0
 20
96.0
 40
0.0
 41
0.0
 42
0.0
 10
1242.0
 20
96.0
 40
0.0
 41
0.0
 42
0.0
 10
1241.7694233648387581
 20
93.6589161358064644
 40
0.0
 41
0.0
 42
0.0
 10
1241.0865543901354613
 20
91.4077988116189317
 40
0.0
 41
0.0
 42
0.0
 10
1239.9776353476304394
 20
89.3331572037647561
 40
0.0
 41
0.0
 42
0.0
 10
1238.4852813742386388
 20
87.514718625761418
 40
0.0
 41
0.0
 42
0.0
 10
1236.6668427962351871
 20
86.022364652369447
 40
0.0
 41
0.0
 42
0.0
 10
1234.5922011883810683
 20
84.9134456098645387
 40
0.0
 41
0.0
 42
0.0
 10
1232.3410838641934788
 20
84.2305766351612419
 40
0.0
 41
0.0
 42
0.0
 10
1230.0
 20
84.0
 40
0.0
 41
0.0
 42
0.0
 10
882.0
 20
84.0
 40
0.0
 41
0.0
 42
0.0
 10
882.0
 20
84.0
 40
0.0
 41
0.0
 42
0.0
 10
879.6589161358064075
 20
84.2305766351612419
 40
0.0
 41
0.0
 42
0.0
 10
877.4077988116189317
 20
84.9134456098645387
 40
0.0
 41
0.0
 42
0.0
 10
875.3331572037648129
 20
86.022364652369447
 40
0.0
 41
0.0
 42
0.0
 10
873.5147186257614749
 20
87.514718625761418
 40
0.0
 41
0.0
 42
0.0
 10
872.022364652369447
 20
89.3331572037647561
 40
0.0
 41
0.0
 42
0.0
 10
870.9134456098645387
 20
91.4077988116189317
 40
0.0
 41
0.0
 42
0.0
 10
870.2305766351612419
 20
93.6589161358064644
 40
0.0
 41
0.0
 42
0.0
 10
870.0
 20
96.0
 40
0.0
 41
0.0
 42
0.0
 10
870.0
 20
252.0
 40
0.0
 41
0.0
 42
0.0
 10
870.0
 20
252.0
 40
0.0
 41
0.0
 42
0.0
 10
870.2305766351612419
 20
254.3410838641935356
 40
0.0
 41
0.0
 42
0.0
 10
870.9134456098645387
 20
256.5922011883810683
 40
0.0
 41
0.0
 42
0.0
 10
872.022364652369447
 20
258.6668427962352439
 40
0.0
 41
0.0
 42
0.0
 10
873.5147186257614749
 20
260.485281374238582
 40
0.0
 41
0.0
 42
0.0
 10
875.3331572037648129
 20
261.977635347630553
 40
0.0
 41
0.0
 42
0.0
 10
877.4077988116189317
 20
263.0865543901354613
 40
0.0
 41
0.0
 42
0.0
 10
879.6589161358064075
 20
263.7694233648387581
 40
0.0
 41
0.0
 42
0.0
 10
882.0
 20
264.0
 40
0.0
 41
0.0
 42
0.0
  0
TEXT
  5
2B
330
F
100
AcDbEntity
  8
0
  6
ByLayer
420
0
 48
1.0
 60
0
370
-1
100
AcDbText
 39
0.0
 10
870.0
 20
62.0
 30
0.0
 40
14.0
  1
Scale Down
 50
0.0
 41
1.0
 51
0.0
  7
Standard
 71
0
 72
0
 11
0.0
 21
0.0
 31
0.0
210
0.0
220
0.0
230
1.0
100
AcDbText
 73
0
  0
TEXT
  5
2C
330
F
100
AcDbEntity
  8
0
  6
ByLayer
420
6583435
 48
1.0
 60
0
370
-1
100
AcDbText
 39
0.0
 10
870.0
 20
42.5
 30
0.0
 40
12.0
  1
Does not upscale when the intrinsic image is already smaller.
 50
0.0
 41
1.0
 51
0.0
  7
Standard
 71
0
 72
0
 11
0.0
 21
0.0
 31
0.0
210
0.0
220
0.0
230
1.0
100
AcDbText
 73
0
  0
ENDSEC
  0
SECTION
  2
OBJECTS
  0
DICTIONARY
  5
1
330
0
100
AcDbDictionary
280
0
281
0
  3
ACAD_COLOR
350
0
  3
ACAD_GROUP
350
0
  3
ACAD_LAYOUT
350
0
  3
ACAD_MATERIAL
350
0
  3
ACAD_SORTENTS
350
0
  3
ACAD_MLEADERSTYLE
350
0
  3
ACAD_MLINESTYLE
350
0
  3
ACAD_TABLESTYLE
350
0
  3
ACAD_PLOTSETTINGS
350
0
  3
AcDbVariableDictionary
350
0
  3
ACAD_SCALELIST
350
0
  3
ACAD_VISUALSTYLE
350
0
  3
ACAD_FIELDLIST
350
0
  3
ACAD_IMAGE_DICT
350
0
  0
DICTIONARY
  5
0
330
1
100
AcDbDictionary
280
0
281
0
  0
DICTIONARY
  5
0
330
1
100
AcDbDictionary
280
0
281
0
  0
DICTIONARY
  5
0
330
1
100
AcDbDictionary
280
0
281
0
  0
DICTIONARY
  5
0
330
1
100
AcDbDictionary
280
0
281
0
  0
DICTIONARY
  5
0
330
1
100
AcDbDictionary
280
0
281
0
  0
DICTIONARY
  5
0
330
1
100
AcDbDictionary
280
0
281
0
  0
DICTIONARY
  5
0
330
1
100
AcDbDictionary
280
0
281
0
  0
DICTIONARY
  5
0
330
1
100
AcDbDictionary
280
0
281
0
  0
DICTIONARY
  5
0
330
1
100
AcDbDictionary
280
0
281
0
  0
DICTIONARY
  5
0
330
1
100
AcDbDictionary
280
0
281
0
  0
DICTIONARY
  5
0
330
1
100
AcDbDictionary
280
0
281
0
  0
DICTIONARY
  5
0
330
1
100
AcDbDictionary
280
0
281
0
  0
DICTIONARY
  5
0
330
1
100
AcDbDictionary
280
0
281
0
  0
DICTIONARY
  5
0
330
1
100
AcDbDictionary
280
0
281
0
  0
ENDSEC
  0
EOF
