  0
SECTION
  2
HEADER
  9
$ANGBASE
 50
0.0
  9
$ANGDIR
 70
1
  9
$AUNITS
 70
0
  9
$AUPREC
 70
0
  9
$ATTMODE
 70
1
  9
$DWGCODEPAGE
  3
ANSI_1252
  9
$TDCREATE
 40
2461147.3367834608070552
  9
$CECOLOR
 62
256
  9
$CELTSCALE
 40
1.0
  9
$CELWEIGHT
370
-1
  9
$CLAYER
  8
0
  9
$CELTYPE
  6
ByLayer
  9
$CMLJUST
 70
0
  9
$CMLSCALE
 40
20.0
  9
$CMLSTYLE
  2
Standard
  9
$DIMSTYLE
  2
Standard
  9
$LWDISPLAY
290
0
  9
$EXTNAMES
290
1
  9
$HANDSEED
  5
30
  9
$INSUNITS
 70
0
  9
$LUNITS
 70
2
  9
$LUPREC
 70
4
  9
$LTSCALE
 40
1.0
  9
$MIRRTEXT
 70
0
  9
$INSBASE
 10
0.0
 20
0.0
 30
0.0
  9
$SPLINESEGS
 70
8
  9
$PSLTSCALE
 70
1
  9
$PDMODE
 70
0
  9
$PDSIZE
 40
0.0
  9
$PLINEGEN
 70
0
  9
$TEXTSIZE
 40
0.2
  9
$TEXTSTYLE
  7
Standard
  9
$TDINDWG
 40
0.0
  9
$TDUCREATE
 40
2461147.3367834608070552
  9
$TDUUPDATE
 40
2461147.3367834608070552
  9
$TDUPDATE
 40
2461147.3367834608070552
  9
$ACADVER
  1
AC1018
  0
ENDSEC
  0
SECTION
  2
CLASSES
  0
CLASS
  1
ACDBDICTIONARYWDFLT
  2
AcDbDictionaryWithDefault
  3
ObjectDBX Classes
 90
32768
 91
0
280
0
281
0
  0
CLASS
  1
ACDBPLACEHOLDER
  2
AcDbPlaceHolder
  3
ObjectDBX Classes
 90
0
 91
0
280
0
281
0
  0
CLASS
  1
LAYOUT
  2
AcDbLayout
  3
ObjectDBX Classes
 90
0
 91
0
280
0
281
0
  0
CLASS
  1
DICTIONARYVAR
  2
AcDbDictionaryVar
  3
ObjectDBX Classes
 90
0
 91
0
280
0
281
0
  0
CLASS
  1
TABLESTYLE
  2
AcDbTableStyle
  3
ObjectDBX Classes
 90
4095
 91
0
280
0
281
0
  0
CLASS
  1
MATERIAL
  2
AcDbMaterial
  3
ObjectDBX Classes
 90
1153
 91
0
280
0
281
0
  0
CLASS
  1
VISUALSTYLE
  2
AcDbVisualStyle
  3
ObjectDBX Classes
 90
4095
 91
0
280
0
281
0
  0
CLASS
  1
SCALE
  2
AcDbScale
  3
ObjectDBX Classes
 90
1153
 91
0
280
0
281
0
  0
CLASS
  1
MLEADERSTYLE
  2
AcDbMLeaderStyle
  3
ObjectDBX Classes
 90
4095
 91
0
280
0
281
0
  0
CLASS
  1
CELLSTYLEMAP
  2
AcDbCellStyleMap
  3
ObjectDBX Classes
 90
1152
 91
0
280
0
281
0
  0
CLASS
  1
EXACXREFPANELOBJECT
  2
ExAcXREFPanelObject
  3
ObjectDBX Classes
 90
1025
 91
0
280
0
281
0
  0
CLASS
  1
NPOCOLLECTION
  2
AcDbImpNonPersistentObjectsCollection
  3
ObjectDBX Classes
 90
1153
 91
0
280
0
281
0
  0
CLASS
  1
LAYER_INDEX
  2
AcDbLayerIndex
  3
ObjectDBX Classes
 90
0
 91
0
280
0
281
0
  0
CLASS
  1
SPATIAL_INDEX
  2
AcDbSpatialIndex
  3
ObjectDBX Classes
 90
0
 91
0
280
0
281
0
  0
CLASS
  1
IDBUFFER
  2
AcDbIdBuffer
  3
ObjectDBX Classes
 90
32768
 91
0
280
0
281
0
  0
CLASS
  1
ACDBSECTIONVIEWSTYLE
  2
AcDbSectionViewStyle
  3
ObjectDBX Classes
 90
1025
 91
0
280
0
281
0
  0
CLASS
  1
ACDBDETAILVIEWSTYLE
  2
AcDbDetailViewStyle
  3
ObjectDBX Classes
 90
1025
 91
0
280
0
281
0
  0
CLASS
  1
MESH
  2
AcDbSubDMesh
  3
ObjectDBX Classes
 90
0
 91
0
280
0
281
1
  0
CLASS
  1
SORTENTSTABLE
  2
AcDbSortentsTable
  3
ObjectDBX Classes
 90
0
 91
0
280
0
281
0
  0
CLASS
  1
ACDB_TEXTOBJECTCONTEXTDATA_CLASS
  2
AcDbTextObjectContextData
  3
ObjectDBX Classes
 90
1153
 91
0
280
0
281
0
  0
CLASS
  1
WIPEOUT
  2
AcDbWipeout
  3
WipeOut
 90
32895
 91
0
280
0
281
1
  0
CLASS
  1
WIPEOUTVARIABLES
  2
AcDbWipeoutVariables
  3
WipeOut
 90
32768
 91
0
280
0
281
0
  0
CLASS
  1
DIMASSOC
  2
AcDbDimAssoc
  3
AcDbDimAssoc
 90
0
 91
0
280
0
281
0
  0
CLASS
  1
ACAD_TABLE
  2
AcDbTable
  3
ObjectDBX Classes
 90
1025
 91
0
280
0
281
1
  0
CLASS
  1
TABLECONTENT
  2
AcDbTableContent
  3
ObjectDBX Classes
 90
1152
 91
0
280
0
281
0
  0
CLASS
  1
TABLEGEOMETRY
  2
AcDbTableGeometry
  3
ObjectDBX Classes
 90
1152
 91
0
280
0
281
0
  0
CLASS
  1
IMAGE
  2
AcDbRasterImage
  3
ISM
 90
32895
 91
0
280
0
281
1
  0
CLASS
  1
IMAGEDEF
  2
AcDbRasterImageDef
  3
ISM
 90
0
 91
0
280
0
281
0
  0
CLASS
  1
IMAGEDEF_REACTOR
  2
AcDbRasterImageDefReactor
  3
ISM
 90
1
 91
0
280
0
281
0
  0
CLASS
  1
DBCOLOR
  2
AcDbColor
  3
ObjectDBX Classes
 90
0
 91
0
280
0
281
0
  0
CLASS
  1
GEODATA
  2
AcDbGeoData
  3
ObjectDBX Classes
 90
4095
 91
0
280
0
281
0
  0
CLASS
  1
MULTILEADER
  2
AcDbMLeader
  3
ObjectDBX Classes
 90
1025
 91
0
280
0
281
0
  0
CLASS
  1
PDFUNDERLAY
  2
AcDbPdfReference
  3
ObjectDBX Classes
 90
4095
 91
0
280
0
281
1
  0
CLASS
  1
PDFDEFINITION
  2
AcDbPdfDefinition
  3
ObjectDBX Classes
 90
1153
 91
0
280
0
281
0
  0
CLASS
  1
RASTERVARIABLES
  2
AcDbRasterVariables
  3
ISM
 90
0
 91
0
280
0
281
0
  0
CLASS
  1
SPATIAL_FILTER
  2
AcDbSpatialFilter
  3
ObjectDBX Classes
 90
0
 91
0
280
0
281
0
  0
CLASS
  1
ACDB_MLEADEROBJECTCONTEXTDATA_CLASS
  2
AcDbMLeaderObjectContextData
  3
ObjectDBX Classes
 90
1025
 91
0
280
0
281
0
  0
CLASS
  1
PLOTSETTINGS
  2
AcDbPlotSettings
  3
ObjectDBX Classes
 90
0
 91
0
280
0
281
0
  0
CLASS
  1
FIELD
  2
AcDbField
  3
ObjectDBX Classes
 90
1152
 91
0
280
0
281
0
  0
CLASS
  1
FIELDLIST
  2
AcDbFieldList
  3
ObjectDBX Classes
 90
1152
 91
0
280
0
281
0
  0
CLASS
  1
ACDB_MTEXTATTRIBUTEOBJECTCONTEXTDATA_CLASS
  2
AcDbMTextAttributeObjectContextData
  3
ObjectDBX Classes
 90
1153
 91
0
280
0
281
0
  0
CLASS
  1
ACDB_BLKREFOBJECTCONTEXTDATA_CLASS
  2
AcDbBlkRefObjectContextData
  3
ObjectDBX Classes
 90
1153
 91
0
280
0
281
0
  0
ENDSEC
  0
SECTION
  2
TABLES
  0
TABLE
  2
VPORT
  5
18
330
0
100
AcDbSymbolTable
 70
1
  0
VPORT
  5
26
330
18
100
AcDbSymbolTableRecord
100
AcDbViewportTableRecord
  2
*Active
 70
0
 10
0.0
 20
0.0
 11
1.0
 21
1.0
 12
0.0
 22
0.0
 13
0.0
 23
0.0
 14
0.5
 24
0.5
 15
10.0
 25
10.0
 16
0.0
 26
0.0
 36
1.0
 17
0.0
 27
0.0
 37
0.0
 40
10.0
 41
1.0
 75
0
 76
1
  0
ENDTAB
  0
TABLE
  2
LTYPE
  5
14
330
0
100
AcDbSymbolTable
 70
3
  0
LTYPE
  5
19
330
14
100
AcDbSymbolTableRecord
100
AcDbLinetypeTableRecord
  2
ByLayer
 70
0
 72
0
 73
0
 40
0.0
  0
LTYPE
  5
1A
330
14
100
AcDbSymbolTableRecord
100
AcDbLinetypeTableRecord
  2
ByBlock
 70
0
 72
0
 73
0
 40
0.0
  0
LTYPE
  5
1B
330
14
100
AcDbSymbolTableRecord
100
AcDbLinetypeTableRecord
  2
Continuous
 70
0
 72
0
 73
0
 40
0.0
  0
ENDTAB
  0
TABLE
  2
LAYER
  5
13
330
0
100
AcDbSymbolTable
 70
1
  0
LAYER
  5
1C
330
13
100
AcDbSymbolTableRecord
100
AcDbLayerTableRecord
  2
0
 70
0
 62
7
  6
Continuous
290
1
370
-3
390
0
  0
ENDTAB
  0
TABLE
  2
STYLE
  5
15
330
0
100
AcDbSymbolTable
 70
1
  0
STYLE
  5
23
330
15
100
AcDbSymbolTableRecord
100
AcDbTextStyleTableRecord
  2
Standard
 70
0
 40
0.0
 41
1.0
 42
0.0
 50
0.0
 71
0
  0
ENDTAB
  0
TABLE
  2
VIEW
  5
17
330
0
100
AcDbSymbolTable
 70
0
  0
ENDTAB
  0
TABLE
  2
UCS
  5
16
330
0
100
AcDbSymbolTable
 70
0
  0
ENDTAB
  0
TABLE
  2
APPID
  5
10
330
0
100
AcDbSymbolTable
 70
1
  0
APPID
  5
25
330
10
100
AcDbSymbolTableRecord
100
AcDbRegAppTableRecord
  2
ACAD
 70
0
  0
ENDTAB
  0
TABLE
  2
DIMSTYLE
  5
12
330
0
100
AcDbSymbolTable
 70
1
100
AcDbDimStyleTable
  0
DIMSTYLE
105
24
330
12
100
AcDbSymbolTableRecord
100
AcDbDimStyleTableRecord
  2
Standard
 70
0
  3
<>
  4
[]
 40
1.0
 41
0.18
 42
0.625
 43
3.75
 44
1.25
 45
0.0
 46
0.0
 47
0.0
 48
0.0
 49
1.0
 50
45.0
 70
0
 90
0
140
0.18
141
0.09
142
0.0
143
25.3999999999999986
144
1.0
145
0.0
146
1.0
147
0.625
148
0.0
 71
0
 72
0
 73
0
 74
0
 75
0
 76
0
 77
1
 78
8
 79
0
170
0
171
3
172
0
173
1
174
0
175
0
176
0
177
0
178
0
179
0
271
2
272
2
273
2
274
3
275
0
276
0
277
2
278
46
279
0
280
0
281
0
282
0
283
0
284
8
285
0
286
0
287
0
288
0
289
3
290
0
340
0
371
-2
372
-2
  0
ENDTAB
  0
TABLE
  2
BLOCK_RECORD
  5
11
330
0
100
AcDbSymbolTable
 70
2
  0
BLOCK_RECORD
  5
1D
330
11
100
AcDbSymbolTableRecord
100
AcDbBlockTableRecord
  2
*Model_Space
 70
0
340
0
 70
0
280
0
281
1
  0
BLOCK_RECORD
  5
20
330
11
100
AcDbSymbolTableRecord
100
AcDbBlockTableRecord
  2
*Paper_Space
 70
0
340
0
 70
0
280
0
281
1
  0
ENDTAB
  0
ENDSEC
  0
SECTION
  2
BLOCKS
  0
BLOCK
  5
1E
330
1D
100
AcDbEntity
  8
0
  6
ByLayer
 62
256
 48
1.0
 60
0
 67
0
370
-1
100
AcDbBlockBegin
  2
*Model_Space
 70
0
 10
0.0
 20
0.0
 30
0.0
  3
*Model_Space
  0
ENDBLK
  5
1F
330
1D
100
AcDbEntity
  8
0
100
AcDbBlockEnd
  0
BLOCK
  5
21
330
20
100
AcDbEntity
  8
0
  6
ByLayer
 62
256
 48
1.0
 60
0
 67
1
370
-1
100
AcDbBlockBegin
  2
*Paper_Space
 70
0
 10
0.0
 20
0.0
 30
0.0
  3
*Paper_Space
  0
ENDBLK
  5
22
330
20
100
AcDbEntity
  8
0
100
AcDbBlockEnd
  0
ENDSEC
  0
SECTION
  2
ENTITIES
  0
HATCH
  5
27
330
1D
100
AcDbEntity
  8
0
  6
ByLayer
420
16777215
 48
1.0
 60
0
 67
0
370
-1
100
AcDbHatch
 30
0.0
210
0.0
220
0.0
230
1.0
  2
SOLID
 70
1
 71
0
 91
1
 92
2
 72
0
 73
1
 93
4
 10
30.0
 20
503.0
 10
120.0
 20
503.0
 10
120.0
 20
371.0
 10
30.0
 20
371.0
 97
0
 75
0
 76
1
 47
0.0
 98
0
  0
LWPOLYLINE
  5
28
330
1D
100
AcDbEntity
  8
0
  6
ByLayer
420
0
 48
1.0
 60
0
 67
0
370
-1
100
AcDbPolyline
 90
4
 70
1
 43
0.0
 38
0.0
 39
0.0
210
0.0
220
0.0
230
1.0
 10
30.0
 20
503.0
 40
0.0
 41
0.0
 42
0.0
 10
120.0
 20
503.0
 40
0.0
 41
0.0
 42
0.0
 10
120.0
 20
371.0
 40
0.0
 41
0.0
 42
0.0
 10
30.0
 20
371.0
 40
0.0
 41
0.0
 42
0.0
  0
TEXT
  5
29
330
1D
100
AcDbEntity
  8
0
  6
ByLayer
420
0
 48
1.0
 60
0
 67
0
370
-1
100
AcDbText
 39
0.0
 10
113.033325868716247
 20
459.4258271815677972
 30
0.0
 40
10.1299998164176941
  1
0
 50
0.0
 41
1.0
 51
0.0
  7
Standard
 71
0
 72
0
 11
0.0
 21
0.0
 31
0.0
210
0.0
220
0.0
230
1.0
100
AcDbText
 73
0
  0
HATCH
  5
2A
330
1D
100
AcDbEntity
  8
0
  6
ByLayer
420
16777215
 48
1.0
 60
0
 67
0
370
-1
100
AcDbHatch
 30
0.0
210
0.0
220
0.0
230
1.0
  2
SOLID
 70
1
 71
0
 91
1
 92
2
 72
0
 73
1
 93
4
 10
157.0
 20
503.0
 10
247.0
 20
503.0
 10
247.0
 20
371.0
 10
157.0
 20
371.0
 97
0
 75
0
 76
1
 47
0.0
 98
0
  0
LWPOLYLINE
  5
2B
330
1D
100
AcDbEntity
  8
0
  6
ByLayer
420
0
 48
1.0
 60
0
 67
0
370
-1
100
AcDbPolyline
 90
4
 70
1
 43
0.0
 38
0.0
 39
0.0
210
0.0
220
0.0
230
1.0
 10
157.0
 20
503.0
 40
0.0
 41
0.0
 42
0.0
 10
247.0
 20
503.0
 40
0.0
 41
0.0
 42
0.0
 10
247.0
 20
371.0
 40
0.0
 41
0.0
 42
0.0
 10
157.0
 20
371.0
 40
0.0
 41
0.0
 42
0.0
  0
TEXT
  5
2C
330
1D
100
AcDbEntity
  8
0
  6
ByLayer
420
0
 48
1.0
 60
0
 67
0
370
-1
100
AcDbText
 39
0.0
 10
240.033325868716247
 20
459.4258271815677972
 30
0.0
 40
10.1299998164176941
  1
0
 50
0.0
 41
1.0
 51
0.0
  7
Standard
 71
0
 72
0
 11
0.0
 21
0.0
 31
0.0
210
0.0
220
0.0
230
1.0
100
AcDbText
 73
0
  0
LWPOLYLINE
  5
2D
330
1D
100
AcDbEntity
  8
0
  6
ByLayer
420
0
 48
1.0
 60
0
 67
0
370
-1
100
AcDbPolyline
 90
65
 70
0
 43
0.0
 38
0.0
 39
0.0
210
0.0
220
0.0
230
1.0
 10
103.0
 20
438.0
 40
0.0
 41
0.0
 42
0.0
 10
104.0214385986328125
 20
437.5625
 40
0.0
 41
0.0
 42
0.0
 10
105.0475997924804688
 20
437.13623046875
 40
0.0
 41
0.0
 42
0.0
 10
106.07843017578125
 20
436.721343994140625
 40
0.0
 41
0.0
 42
0.0
 10
107.1138534545898438
 20
436.318084716796875
 40
0.0
 41
0.0
 42
0.0
 10
108.15380859375
 20
435.926666259765625
 40
0.0
 41
0.0
 42
0.0
 10
109.1982192993164063
 20
435.547271728515625
 40
0.0
 41
0.0
 42
0.0
 10
110.2470016479492188
 20
435.180145263671875
 40
0.0
 41
0.0
 42
0.0
 10
111.300048828125
 20
434.825439453125
 40
0.0
 41
0.0
 42
0.0
 10
112.357269287109375
 20
434.4833984375
 40
0.0
 41
0.0
 42
0.0
 10
113.4185562133789063
 20
434.1541748046875
 40
0.0
 41
0.0
 42
0.0
 10
114.4838333129882813
 20
433.83807373046875
 40
0.0
 41
0.0
 42
0.0
 10
115.5529403686523438
 20
433.535186767578125
 40
0.0
 41
0.0
 42
0.0
 10
116.6257553100585938
 20
433.245758056640625
 40
0.0
 41
0.0
 42
0.0
 10
117.7021484375
 20
432.969879150390625
 40
0.0
 41
0.0
 42
0.0
 10
118.7819747924804688
 20
432.707763671875
 40
0.0
 41
0.0
 42
0.0
 10
119.8650970458984375
 20
432.459625244140625
 40
0.0
 41
0.0
 42
0.0
 10
120.9513778686523438
 20
432.2257080078125
 40
0.0
 41
0.0
 42
0.0
 10
122.040618896484375
 20
432.00604248046875
 40
0.0
 41
0.0
 42
0.0
 10
123.1326675415039063
 20
431.80072021484375
 40
0.0
 41
0.0
 42
0.0
 10
124.2273712158203125
 20
431.610076904296875
 40
0.0
 41
0.0
 42
0.0
 10
125.3245391845703125
 20
431.4342041015625
 40
0.0
 41
0.0
 42
0.0
 10
126.423980712890625
 20
431.2730712890625
 40
0.0
 41
0.0
 42
0.0
 10
127.5255050659179688
 20
431.126953125
 40
0.0
 41
0.0
 42
0.0
 10
128.628936767578125
 20
430.9959716796875
 40
0.0
 41
0.0
 42
0.0
 10
129.73406982421875
 20
430.880096435546875
 40
0.0
 41
0.0
 42
0.0
 10
130.8406829833984375
 20
430.779510498046875
 40
0.0
 41
0.0
 42
0.0
 10
131.9485931396484375
 20
430.694305419921875
 40
0.0
 41
0.0
 42
0.0
 10
133.05755615234375
 20
430.6243896484375
 40
0.0
 41
0.0
 42
0.0
 10
134.16741943359375
 20
430.570068359375
 40
0.0
 41
0.0
 42
0.0
 10
135.2779083251953125
 20
430.53118896484375
 40
0.0
 41
0.0
 42
0.0
 10
136.3888397216796875
 20
430.5078125
 40
0.0
 41
0.0
 42
0.0
 10
137.5
 20
430.500091552734375
 40
0.0
 41
0.0
 42
0.0
 10
138.6111602783203125
 20
430.507843017578125
 40
0.0
 41
0.0
 42
0.0
 10
139.7220916748046875
 20
430.53118896484375
 40
0.0
 41
0.0
 42
0.0
 10
140.83258056640625
 20
430.570068359375
 40
0.0
 41
0.0
 42
0.0
 10
141.9424285888671875
 20
430.6243896484375
 40
0.0
 41
0.0
 42
0.0
 10
143.051422119140625
 20
430.69427490234375
 40
0.0
 41
0.0
 42
0.0
 10
144.1593170166015625
 20
430.779541015625
 40
0.0
 41
0.0
 42
0.0
 10
145.265960693359375
 20
430.880035400390625
 40
0.0
 41
0.0
 42
0.0
 10
146.371063232421875
 20
430.9959716796875
 40
0.0
 41
0.0
 42
0.0
 10
147.4744873046875
 20
431.126983642578125
 40
0.0
 41
0.0
 42
0.0
 10
148.5760345458984375
 20
431.27301025390625
 40
0.0
 41
0.0
 42
0.0
 10
149.6754608154296875
 20
431.4342041015625
 40
0.0
 41
0.0
 42
0.0
 10
150.7726287841796875
 20
431.610137939453125
 40
0.0
 41
0.0
 42
0.0
 10
151.867340087890625
 20
431.800750732421875
 40
0.0
 41
0.0
 42
0.0
 10
152.95941162109375
 20
432.0059814453125
 40
0.0
 41
0.0
 42
0.0
 10
154.04864501953125
 20
432.2257080078125
 40
0.0
 41
0.0
 42
0.0
 10
155.1349029541015625
 20
432.459716796875
 40
0.0
 41
0.0
 42
0.0
 10
156.2180328369140625
 20
432.707794189453125
 40
0.0
 41
0.0
 42
0.0
 10
157.297882080078125
 20
432.969818115234375
 40
0.0
 41
0.0
 42
0.0
 10
158.374267578125
 20
433.245697021484375
 40
0.0
 41
0.0
 42
0.0
 10
159.4470672607421875
 20
433.53521728515625
 40
0.0
 41
0.0
 42
0.0
 10
160.5161590576171875
 20
433.838104248046875
 40
0.0
 41
0.0
 42
0.0
 10
161.5814208984375
 20
434.154266357421875
 40
0.0
 41
0.0
 42
0.0
 10
162.6427154541015625
 20
434.48345947265625
 40
0.0
 41
0.0
 42
0.0
 10
163.699951171875
 20
434.825469970703125
 40
0.0
 41
0.0
 42
0.0
 10
164.753021240234375
 20
435.180145263671875
 40
0.0
 41
0.0
 42
0.0
 10
165.801788330078125
 20
435.54730224609375
 40
0.0
 41
0.0
 42
0.0
 10
166.8462066650390625
 20
435.92669677734375
 40
0.0
 41
0.0
 42
0.0
 10
167.88616943359375
 20
436.318115234375
 40
0.0
 41
0.0
 42
0.0
 10
168.9215850830078125
 20
436.72137451171875
 40
0.0
 41
0.0
 42
0.0
 10
169.9524078369140625
 20
437.136260986328125
 40
0.0
 41
0.0
 42
0.0
 10
170.97857666015625
 20
437.562530517578125
 40
0.0
 41
0.0
 42
0.0
 10
172.0
 20
438.0
 40
0.0
 41
0.0
 42
0.0
  0
HATCH
  5
2E
330
1D
100
AcDbEntity
  8
0
  6
ByLayer
420
0
 48
1.0
 60
0
 67
0
370
-1
100
AcDbHatch
 30
0.0
210
0.0
220
0.0
230
1.0
  2
SOLID
 70
1
 71
0
 91
1
 92
2
 72
0
 73
1
 93
33
 10
158.6069288914589208
 20
438.7909780537803499
 10
159.4439958357427258
 20
438.7415419254190851
 10
160.2810627800265593
 20
438.6921057970578204
 10
161.1181297243103643
 20
438.6426696686964988
 10
161.9551966685941977
 20
438.593233540335234
 10
162.7922636128780027
 20
438.5437974119739692
 10
163.6293305571618362
 20
438.4943612836127045
 10
164.4663968628142356
 20
438.444925192968185
 10
165.3034644457294462
 20
438.395489026890175
 10
166.1405313900132796
 20
438.3460528985289102
 10
166.9775983342970846
 20
438.2966167701676454
 10
167.8146646399495125
 20
438.2471806795231259
 10
168.6517322228647231
 20
438.1977445134450591
 10
169.4887991671485565
 20
438.1483083850837943
 10
170.3258648341695789
 20
438.0988723321560769
 10
171.162933055716195
 20
438.0494361283612648
 10
172.0
 20
438.0
 10
171.4582109729805381
 20
437.3600080229662126
 10
170.9164219459610479
 20
436.720016045932482
 10
170.3746327359023098
 20
436.0800244962670718
 10
169.8328437229627639
 20
435.4400324863588594
 10
169.2910547100232463
 20
434.8000404764505902
 10
168.7492659977963854
 20
434.1600492178133095
 10
168.2074761018326114
 20
433.5200563628528698
 10
167.6656874459255278
 20
432.8800649727176619
 10
167.1238992033707405
 20
432.2400740708574745
 10
166.5821088940546701
 20
431.6000807276220144
 10
166.0403206514998544
 20
430.9600898257618837
 10
165.4985319955928276
 20
430.320098435626619
 10
164.9567420996289968
 20
429.6801055806662362
 10
164.4149538570742095
 20
429.0401146788060487
 10
163.8731639611103788
 20
428.400121823845609
 10
163.3313748918510839
 20
427.7601299454353239
 97
0
 75
0
 76
1
 47
0.0
 98
0
  0
LWPOLYLINE
  5
2F
330
1D
100
AcDbEntity
  8
0
  6
ByLayer
420
0
 48
1.0
 60
0
 67
0
370
-1
100
AcDbPolyline
 90
33
 70
1
 43
0.0
 38
0.0
 39
0.0
210
0.0
220
0.0
230
1.0
 10
158.6069288914589208
 20
438.7909780537803499
 40
0.0
 41
0.0
 42
0.0
 10
159.4439958357427258
 20
438.7415419254190851
 40
0.0
 41
0.0
 42
0.0
 10
160.2810627800265593
 20
438.6921057970578204
 40
0.0
 41
0.0
 42
0.0
 10
161.1181297243103643
 20
438.6426696686964988
 40
0.0
 41
0.0
 42
0.0
 10
161.9551966685941977
 20
438.593233540335234
 40
0.0
 41
0.0
 42
0.0
 10
162.7922636128780027
 20
438.5437974119739692
 40
0.0
 41
0.0
 42
0.0
 10
163.6293305571618362
 20
438.4943612836127045
 40
0.0
 41
0.0
 42
0.0
 10
164.4663968628142356
 20
438.444925192968185
 40
0.0
 41
0.0
 42
0.0
 10
165.3034644457294462
 20
438.395489026890175
 40
0.0
 41
0.0
 42
0.0
 10
166.1405313900132796
 20
438.3460528985289102
 40
0.0
 41
0.0
 42
0.0
 10
166.9775983342970846
 20
438.2966167701676454
 40
0.0
 41
0.0
 42
0.0
 10
167.8146646399495125
 20
438.2471806795231259
 40
0.0
 41
0.0
 42
0.0
 10
168.6517322228647231
 20
438.1977445134450591
 40
0.0
 41
0.0
 42
0.0
 10
169.4887991671485565
 20
438.1483083850837943
 40
0.0
 41
0.0
 42
0.0
 10
170.3258648341695789
 20
438.0988723321560769
 40
0.0
 41
0.0
 42
0.0
 10
171.162933055716195
 20
438.0494361283612648
 40
0.0
 41
0.0
 42
0.0
 10
172.0
 20
438.0
 40
0.0
 41
0.0
 42
0.0
 10
171.4582109729805381
 20
437.3600080229662126
 40
0.0
 41
0.0
 42
0.0
 10
170.9164219459610479
 20
436.720016045932482
 40
0.0
 41
0.0
 42
0.0
 10
170.3746327359023098
 20
436.0800244962670718
 40
0.0
 41
0.0
 42
0.0
 10
169.8328437229627639
 20
435.4400324863588594
 40
0.0
 41
0.0
 42
0.0
 10
169.2910547100232463
 20
434.8000404764505902
 40
0.0
 41
0.0
 42
0.0
 10
168.7492659977963854
 20
434.1600492178133095
 40
0.0
 41
0.0
 42
0.0
 10
168.2074761018326114
 20
433.5200563628528698
 40
0.0
 41
0.0
 42
0.0
 10
167.6656874459255278
 20
432.8800649727176619
 40
0.0
 41
0.0
 42
0.0
 10
167.1238992033707405
 20
432.2400740708574745
 40
0.0
 41
0.0
 42
0.0
 10
166.5821088940546701
 20
431.6000807276220144
 40
0.0
 41
0.0
 42
0.0
 10
166.0403206514998544
 20
430.9600898257618837
 40
0.0
 41
0.0
 42
0.0
 10
165.4985319955928276
 20
430.320098435626619
 40
0.0
 41
0.0
 42
0.0
 10
164.9567420996289968
 20
429.6801055806662362
 40
0.0
 41
0.0
 42
0.0
 10
164.4149538570742095
 20
429.0401146788060487
 40
0.0
 41
0.0
 42
0.0
 10
163.8731639611103788
 20
428.400121823845609
 40
0.0
 41
0.0
 42
0.0
 10
163.3313748918510839
 20
427.7601299454353239
 40
0.0
 41
0.0
 42
0.0
  0
ENDSEC
  0
SECTION
  2
OBJECTS
  0
DICTIONARY
  5
1
330
0
100
AcDbDictionary
280
0
281
0
  3
ACAD_COLOR
350
2
  3
ACAD_GROUP
350
3
  3
ACAD_LAYOUT
350
4
  3
ACAD_MATERIAL
350
5
  3
ACAD_SORTENTS
350
6
  3
ACAD_MLEADERSTYLE
350
7
  3
ACAD_MLINESTYLE
350
8
  3
ACAD_TABLESTYLE
350
9
  3
ACAD_PLOTSETTINGS
350
A
  3
AcDbVariableDictionary
350
B
  3
ACAD_SCALELIST
350
C
  3
ACAD_VISUALSTYLE
350
D
  3
ACAD_FIELDLIST
350
E
  3
ACAD_IMAGE_DICT
350
F
  0
DICTIONARY
  5
2
330
1
100
AcDbDictionary
280
0
281
0
  0
DICTIONARY
  5
3
330
1
100
AcDbDictionary
280
0
281
0
  0
DICTIONARY
  5
4
330
1
100
AcDbDictionary
280
0
281
0
  0
DICTIONARY
  5
5
330
1
100
AcDbDictionary
280
0
281
0
  0
DICTIONARY
  5
6
330
1
100
AcDbDictionary
280
0
281
0
  0
DICTIONARY
  5
7
330
1
100
AcDbDictionary
280
0
281
0
  0
DICTIONARY
  5
8
330
1
100
AcDbDictionary
280
0
281
0
  0
DICTIONARY
  5
9
330
1
100
AcDbDictionary
280
0
281
0
  0
DICTIONARY
  5
A
330
1
100
AcDbDictionary
280
0
281
0
  0
DICTIONARY
  5
B
330
1
100
AcDbDictionary
280
0
281
0
  0
DICTIONARY
  5
C
330
1
100
AcDbDictionary
280
0
281
0
  0
DICTIONARY
  5
D
330
1
100
AcDbDictionary
280
0
281
0
  0
DICTIONARY
  5
E
330
1
100
AcDbDictionary
280
0
281
0
  0
DICTIONARY
  5
F
330
1
100
AcDbDictionary
280
0
281
0
  0
ENDSEC
  0
EOF
