  0
SECTION
  2
HEADER
  0
ENDSEC
  0
SECTION
  2
CLASSES
  0
CLASS
  1
ACDBDICTIONARYWDFLT
  2
AcDbDictionaryWithDefault
  3
ObjectDBX Classes
 90
32768
280
0
281
0
  0
CLASS
  1
ACDBPLACEHOLDER
  2
AcDbPlaceHolder
  3
ObjectDBX Classes
 90
0
280
0
281
0
  0
CLASS
  1
LAYOUT
  2
AcDbLayout
  3
ObjectDBX Classes
 90
0
280
0
281
0
  0
CLASS
  1
DICTIONARYVAR
  2
AcDbDictionaryVar
  3
ObjectDBX Classes
 90
0
280
0
281
0
  0
CLASS
  1
TABLESTYLE
  2
AcDbTableStyle
  3
ObjectDBX Classes
 90
4095
280
0
281
0
  0
CLASS
  1
MATERIAL
  2
AcDbMaterial
  3
ObjectDBX Classes
 90
1153
280
0
281
0
  0
CLASS
  1
VISUALSTYLE
  2
AcDbVisualStyle
  3
ObjectDBX Classes
 90
4095
280
0
281
0
  0
CLASS
  1
SCALE
  2
AcDbScale
  3
ObjectDBX Classes
 90
1153
280
0
281
0
  0
CLASS
  1
MLEADERSTYLE
  2
AcDbMLeaderStyle
  3
ObjectDBX Classes
 90
4095
280
0
281
0
  0
CLASS
  1
CELLSTYLEMAP
  2
AcDbCellStyleMap
  3
ObjectDBX Classes
 90
1152
280
0
281
0
  0
CLASS
  1
EXACXREFPANELOBJECT
  2
ExAcXREFPanelObject
  3
ObjectDBX Classes
 90
1025
280
0
281
0
  0
CLASS
  1
NPOCOLLECTION
  2
AcDbImpNonPersistentObjectsCollection
  3
ObjectDBX Classes
 90
1153
280
0
281
0
  0
CLASS
  1
LAYER_INDEX
  2
AcDbLayerIndex
  3
ObjectDBX Classes
 90
0
280
0
281
0
  0
CLASS
  1
SPATIAL_INDEX
  2
AcDbSpatialIndex
  3
ObjectDBX Classes
 90
0
280
0
281
0
  0
CLASS
  1
IDBUFFER
  2
AcDbIdBuffer
  3
ObjectDBX Classes
 90
32768
280
0
281
0
  0
CLASS
  1
ACDBSECTIONVIEWSTYLE
  2
AcDbSectionViewStyle
  3
ObjectDBX Classes
 90
1025
280
0
281
0
  0
CLASS
  1
ACDBDETAILVIEWSTYLE
  2
AcDbDetailViewStyle
  3
ObjectDBX Classes
 90
1025
280
0
281
0
  0
CLASS
  1
MESH
  2
AcDbSubDMesh
  3
ObjectDBX Classes
 90
0
280
0
281
1
  0
CLASS
  1
SORTENTSTABLE
  2
AcDbSortentsTable
  3
ObjectDBX Classes
 90
0
280
0
281
0
  0
CLASS
  1
ACDB_TEXTOBJECTCONTEXTDATA_CLASS
  2
AcDbTextObjectContextData
  3
ObjectDBX Classes
 90
1153
280
0
281
0
  0
CLASS
  1
WIPEOUT
  2
AcDbWipeout
  3
WipeOut
 90
32895
280
0
281
1
  0
CLASS
  1
WIPEOUTVARIABLES
  2
AcDbWipeoutVariables
  3
WipeOut
 90
32768
280
0
281
0
  0
CLASS
  1
DIMASSOC
  2
AcDbDimAssoc
  3
AcDbDimAssoc
 90
0
280
0
281
0
  0
CLASS
  1
ACAD_TABLE
  2
AcDbTable
  3
ObjectDBX Classes
 90
1025
280
0
281
1
  0
CLASS
  1
TABLECONTENT
  2
AcDbTableContent
  3
ObjectDBX Classes
 90
1152
280
0
281
0
  0
CLASS
  1
TABLEGEOMETRY
  2
AcDbTableGeometry
  3
ObjectDBX Classes
 90
1152
280
0
281
0
  0
CLASS
  1
IMAGE
  2
AcDbRasterImage
  3
ISM
 90
32895
280
0
281
1
  0
CLASS
  1
IMAGEDEF
  2
AcDbRasterImageDef
  3
ISM
 90
0
280
0
281
0
  0
CLASS
  1
IMAGEDEF_REACTOR
  2
AcDbRasterImageDefReactor
  3
ISM
 90
1
280
0
281
0
  0
CLASS
  1
DBCOLOR
  2
AcDbColor
  3
ObjectDBX Classes
 90
0
280
0
281
0
  0
CLASS
  1
GEODATA
  2
AcDbGeoData
  3
ObjectDBX Classes
 90
4095
280
0
281
0
  0
CLASS
  1
MULTILEADER
  2
AcDbMLeader
  3
ObjectDBX Classes
 90
1025
280
0
281
0
  0
CLASS
  1
PDFUNDERLAY
  2
AcDbPdfReference
  3
ObjectDBX Classes
 90
4095
280
0
281
1
  0
CLASS
  1
PDFDEFINITION
  2
AcDbPdfDefinition
  3
ObjectDBX Classes
 90
1153
280
0
281
0
  0
CLASS
  1
RASTERVARIABLES
  2
AcDbRasterVariables
  3
ISM
 90
0
280
0
281
0
  0
CLASS
  1
SPATIAL_FILTER
  2
AcDbSpatialFilter
  3
ObjectDBX Classes
 90
0
280
0
281
0
  0
CLASS
  1
ACDB_MLEADEROBJECTCONTEXTDATA_CLASS
  2
AcDbMLeaderObjectContextData
  3
ObjectDBX Classes
 90
1025
280
0
281
0
  0
CLASS
  1
PLOTSETTINGS
  2
AcDbPlotSettings
  3
ObjectDBX Classes
 90
0
280
0
281
0
  0
CLASS
  1
FIELD
  2
AcDbField
  3
ObjectDBX Classes
 90
1152
280
0
281
0
  0
CLASS
  1
FIELDLIST
  2
AcDbFieldList
  3
ObjectDBX Classes
 90
1152
280
0
281
0
  0
CLASS
  1
ACDB_MTEXTATTRIBUTEOBJECTCONTEXTDATA_CLASS
  2
AcDbMTextAttributeObjectContextData
  3
ObjectDBX Classes
 90
1153
280
0
281
0
  0
CLASS
  1
ACDB_BLKREFOBJECTCONTEXTDATA_CLASS
  2
AcDbBlkRefObjectContextData
  3
ObjectDBX Classes
 90
1153
280
0
281
0
  0
ENDSEC
  0
SECTION
  2
TABLES
  0
TABLE
  2
VPORT
  5
A
330
0
100
AcDbSymbolTable
 70
1
  0
VPORT
  5
18
330
A
100
AcDbSymbolTableRecord
100
AcDbViewportTableRecord
  2
*Active
 70
0
 10
0.0
 20
0.0
 11
1.0
 21
1.0
 12
0.0
 22
0.0
 13
0.0
 23
0.0
 14
0.5
 24
0.5
 15
10.0
 25
10.0
 16
0.0
 26
0.0
 36
1.0
 17
0.0
 27
0.0
 37
0.0
 40
10.0
 41
1.0
 75
0
 76
1
  0
ENDTAB
  0
TABLE
  2
LTYPE
  5
6
330
0
100
AcDbSymbolTable
 70
3
  0
LTYPE
  5
B
330
6
100
AcDbSymbolTableRecord
100
AcDbLinetypeTableRecord
  2
ByLayer
 70
0
 72
0
 73
0
 40
0.0
  0
LTYPE
  5
C
330
6
100
AcDbSymbolTableRecord
100
AcDbLinetypeTableRecord
  2
ByBlock
 70
0
 72
0
 73
0
 40
0.0
  0
LTYPE
  5
D
330
6
100
AcDbSymbolTableRecord
100
AcDbLinetypeTableRecord
  2
Continuous
 70
0
 72
0
 73
0
 40
0.0
  0
ENDTAB
  0
TABLE
  2
LAYER
  5
5
330
0
100
AcDbSymbolTable
 70
1
  0
LAYER
  5
E
330
5
100
AcDbSymbolTableRecord
100
AcDbLayerTableRecord
  2
0
 70
0
 62
7
  6
Continuous
290
1
370
-3
390
0
  0
ENDTAB
  0
TABLE
  2
STYLE
  5
7
330
0
100
AcDbSymbolTable
 70
1
  0
STYLE
  5
15
330
7
100
AcDbSymbolTableRecord
100
AcDbTextStyleTableRecord
  2
Standard
 70
0
 40
0.0
 41
1.0
 42
0.0
 50
0.0
 71
0
  0
ENDTAB
  0
TABLE
  2
VIEW
  5
9
330
0
100
AcDbSymbolTable
 70
0
  0
ENDTAB
  0
TABLE
  2
UCS
  5
8
330
0
100
AcDbSymbolTable
 70
0
  0
ENDTAB
  0
TABLE
  2
APPID
  5
2
330
0
100
AcDbSymbolTable
 70
1
  0
APPID
  5
17
330
2
100
AcDbSymbolTableRecord
100
AcDbRegAppTableRecord
  2
ACAD
 70
0
  0
ENDTAB
  0
TABLE
  2
DIMSTYLE
  5
4
330
0
100
AcDbSymbolTable
 70
1
100
AcDbDimStyleTable
  0
DIMSTYLE
105
16
330
4
100
AcDbSymbolTableRecord
100
AcDbDimStyleTableRecord
  2
Standard
 70
0
  3
<>
  4
[]
 40
1.0
 41
0.18
 42
0.625
 43
3.75
 44
1.25
 45
0.0
 46
0.0
 47
0.0
 48
0.0
 49
1.0
 50
0.7853981633974483
 70
0
 90
0
140
0.18
141
0.09
142
0.0
143
25.3999999999999986
144
1.0
145
0.0
146
1.0
147
0.625
148
0.0
 71
0
 72
0
 73
0
 74
0
 75
0
 76
0
 77
1
 78
8
 79
0
170
0
171
3
172
0
173
1
174
0
175
0
176
0
177
0
178
0
179
0
271
2
272
2
273
2
274
3
275
0
276
0
277
2
278
46
279
0
280
0
281
0
282
0
283
0
284
8
285
0
286
0
287
0
288
0
289
3
290
0
340
0
371
-2
372
-2
  0
ENDTAB
  0
TABLE
  2
BLOCK_RECORD
  5
3
330
0
100
AcDbSymbolTable
 70
2
  0
BLOCK_RECORD
  5
F
330
3
100
AcDbSymbolTableRecord
100
AcDbBlockTableRecord
  2
*Model_Space
 70
0
 70
0
280
0
281
1
  0
BLOCK_RECORD
  5
12
330
3
100
AcDbSymbolTableRecord
100
AcDbBlockTableRecord
  2
*Paper_Space
 70
0
 70
0
280
0
281
1
  0
ENDTAB
  0
ENDSEC
  0
SECTION
  2
BLOCKS
  0
BLOCK
  5
10
330
F
100
AcDbEntity
  8
0
  6
ByLayer
 62
256
 48
1.0
 60
0
370
-1
100
AcDbBlockBegin
  2
*Model_Space
 70
0
 10
0.0
 20
0.0
 30
0.0
  3
*Model_Space
  0
ENDBLK
  5
11
330
F
100
AcDbEntity
  8
0
100
AcDbBlockEnd
  0
BLOCK
  5
13
330
12
100
AcDbEntity
  8
0
  6
ByLayer
 62
256
 48
1.0
 60
0
370
-1
100
AcDbBlockBegin
  2
*Paper_Space
 70
0
 10
0.0
 20
0.0
 30
0.0
  3
*Paper_Space
  0
ENDBLK
  5
14
330
12
100
AcDbEntity
  8
0
100
AcDbBlockEnd
  0
ENDSEC
  0
SECTION
  2
ENTITIES
  0
TEXT
  5
19
330
F
100
AcDbEntity
  8
0
  6
ByLayer
420
8146730
 48
1.0
 60
0
370
-1
100
AcDbText
 39
0.0
 10
65.0
 20
640.0
 30
0.0
 40
28.0
  1
CODE BLOCK
 50
0.0
 41
1.0
 51
0.0
  7
Standard
 71
0
 72
0
 11
0.0
 21
0.0
 31
0.0
210
0.0
220
0.0
230
1.0
100
AcDbText
 73
0
  0
TEXT
  5
1A
330
F
100
AcDbEntity
  8
0
  6
ByLayer
420
5398637
 48
1.0
 60
0
370
-1
100
AcDbText
 39
0.0
 10
65.0
 20
606.0
 30
0.0
 40
15.0
  1
Padding, indentation, and repeated spaces should
 50
0.0
 41
1.0
 51
0.0
  7
Standard
 71
0
 72
0
 11
0.0
 21
0.0
 31
0.0
210
0.0
220
0.0
230
1.0
100
AcDbText
 73
0
  0
TEXT
  5
1B
330
F
100
AcDbEntity
  8
0
  6
ByLayer
420
5398637
 48
1.0
 60
0
370
-1
100
AcDbText
 39
0.0
 10
65.0
 20
583.5
 30
0.0
 40
15.0
  1
survive extraction and rendering.
 50
0.0
 41
1.0
 51
0.0
  7
Standard
 71
0
 72
0
 11
0.0
 21
0.0
 31
0.0
210
0.0
220
0.0
230
1.0
100
AcDbText
 73
0
  0
HATCH
  5
1C
330
F
100
AcDbEntity
  8
0
  6
ByLayer
420
16776696
 48
1.0
 60
0
370
-1
100
AcDbHatch
 30
0.0
210
0.0
220
0.0
230
1.0
  2
SOLID
 70
1
 71
0
 91
1
 92
2
 72
0
 73
1
 93
41
 10
83.0
 20
558.0
 10
378.333343505859375
 20
558.0
 10
378.333343505859375
 20
558.0
 10
381.8449693021497069
 20
557.6541350472581371
 10
385.2216452884309774
 20
556.6298315852031919
 10
388.3336077002122124
 20
554.9664530214457727
 10
391.0612655672172195
 20
552.7279220613578445
 10
393.2997965273052046
 20
550.0002641943528943
 10
394.9631750910625101
 20
546.8883017825716024
 10
395.9874785531175121
 20
543.5116257962903319
 10
396.333343505859375
 20
540.0
 10
396.333343505859375
 20
427.600006103515625
 10
396.333343505859375
 20
427.600006103515625
 10
395.9874785531175121
 20
424.0883803072252931
 10
394.9631750910625101
 20
420.7117043209440226
 10
393.2997965273052046
 20
417.5997419091627876
 10
391.0612655672172195
 20
414.8720840421577805
 10
388.3336077002122124
 20
412.6335530820697954
 10
385.2216452884309774
 20
410.9701745183124899
 10
381.8449693021497069
 20
409.9458710562574879
 10
378.333343505859375
 20
409.600006103515625
 10
83.0
 20
409.600006103515625
 10
83.0
 20
409.600006103515625
 10
79.4883742037096965
 20
409.9458710562574879
 10
76.1116982174283834
 20
410.9701745183124899
 10
72.9997358056471626
 20
412.6335530820697954
 10
70.2720779386421412
 20
414.8720840421577805
 10
68.0335469785541846
 20
417.5997419091627876
 10
66.3701684147968365
 20
420.7117043209440226
 10
65.3458649527418487
 20
424.0883803072252931
 10
65.0
 20
427.600006103515625
 10
65.0
 20
540.0
 10
65.0
 20
540.0
 10
65.3458649527418487
 20
543.5116257962903319
 10
66.3701684147968365
 20
546.8883017825716024
 10
68.0335469785541846
 20
550.0002641943528943
 10
70.2720779386421412
 20
552.7279220613578445
 10
72.9997358056471626
 20
554.9664530214457727
 10
76.1116982174283692
 20
556.6298315852031919
 10
79.4883742037096823
 20
557.6541350472581371
 10
83.0
 20
558.0
 97
0
 75
0
 76
1
 47
0.0
 98
0
  0
LWPOLYLINE
  5
1D
330
F
100
AcDbEntity
  8
0
  6
ByLayer
420
16776696
 48
1.0
 60
0
370
-1
100
AcDbPolyline
 90
41
 70
1
 43
0.0
 38
0.0
 39
0.0
210
0.0
220
0.0
230
1.0
 10
83.0
 20
558.0
 40
0.0
 41
0.0
 42
0.0
 10
378.333343505859375
 20
558.0
 40
0.0
 41
0.0
 42
0.0
 10
378.333343505859375
 20
558.0
 40
0.0
 41
0.0
 42
0.0
 10
381.8449693021497069
 20
557.6541350472581371
 40
0.0
 41
0.0
 42
0.0
 10
385.2216452884309774
 20
556.6298315852031919
 40
0.0
 41
0.0
 42
0.0
 10
388.3336077002122124
 20
554.9664530214457727
 40
0.0
 41
0.0
 42
0.0
 10
391.0612655672172195
 20
552.7279220613578445
 40
0.0
 41
0.0
 42
0.0
 10
393.2997965273052046
 20
550.0002641943528943
 40
0.0
 41
0.0
 42
0.0
 10
394.9631750910625101
 20
546.8883017825716024
 40
0.0
 41
0.0
 42
0.0
 10
395.9874785531175121
 20
543.5116257962903319
 40
0.0
 41
0.0
 42
0.0
 10
396.333343505859375
 20
540.0
 40
0.0
 41
0.0
 42
0.0
 10
396.333343505859375
 20
427.600006103515625
 40
0.0
 41
0.0
 42
0.0
 10
396.333343505859375
 20
427.600006103515625
 40
0.0
 41
0.0
 42
0.0
 10
395.9874785531175121
 20
424.0883803072252931
 40
0.0
 41
0.0
 42
0.0
 10
394.9631750910625101
 20
420.7117043209440226
 40
0.0
 41
0.0
 42
0.0
 10
393.2997965273052046
 20
417.5997419091627876
 40
0.0
 41
0.0
 42
0.0
 10
391.0612655672172195
 20
414.8720840421577805
 40
0.0
 41
0.0
 42
0.0
 10
388.3336077002122124
 20
412.6335530820697954
 40
0.0
 41
0.0
 42
0.0
 10
385.2216452884309774
 20
410.9701745183124899
 40
0.0
 41
0.0
 42
0.0
 10
381.8449693021497069
 20
409.9458710562574879
 40
0.0
 41
0.0
 42
0.0
 10
378.333343505859375
 20
409.600006103515625
 40
0.0
 41
0.0
 42
0.0
 10
83.0
 20
409.600006103515625
 40
0.0
 41
0.0
 42
0.0
 10
83.0
 20
409.600006103515625
 40
0.0
 41
0.0
 42
0.0
 10
79.4883742037096965
 20
409.9458710562574879
 40
0.0
 41
0.0
 42
0.0
 10
76.1116982174283834
 20
410.9701745183124899
 40
0.0
 41
0.0
 42
0.0
 10
72.9997358056471626
 20
412.6335530820697954
 40
0.0
 41
0.0
 42
0.0
 10
70.2720779386421412
 20
414.8720840421577805
 40
0.0
 41
0.0
 42
0.0
 10
68.0335469785541846
 20
417.5997419091627876
 40
0.0
 41
0.0
 42
0.0
 10
66.3701684147968365
 20
420.7117043209440226
 40
0.0
 41
0.0
 42
0.0
 10
65.3458649527418487
 20
424.0883803072252931
 40
0.0
 41
0.0
 42
0.0
 10
65.0
 20
427.600006103515625
 40
0.0
 41
0.0
 42
0.0
 10
65.0
 20
540.0
 40
0.0
 41
0.0
 42
0.0
 10
65.0
 20
540.0
 40
0.0
 41
0.0
 42
0.0
 10
65.3458649527418487
 20
543.5116257962903319
 40
0.0
 41
0.0
 42
0.0
 10
66.3701684147968365
 20
546.8883017825716024
 40
0.0
 41
0.0
 42
0.0
 10
68.0335469785541846
 20
550.0002641943528943
 40
0.0
 41
0.0
 42
0.0
 10
70.2720779386421412
 20
552.7279220613578445
 40
0.0
 41
0.0
 42
0.0
 10
72.9997358056471626
 20
554.9664530214457727
 40
0.0
 41
0.0
 42
0.0
 10
76.1116982174283692
 20
556.6298315852031919
 40
0.0
 41
0.0
 42
0.0
 10
79.4883742037096823
 20
557.6541350472581371
 40
0.0
 41
0.0
 42
0.0
 10
83.0
 20
558.0
 40
0.0
 41
0.0
 42
0.0
  0
TEXT
  5
1E
330
F
100
AcDbEntity
  8
0
  6
ByLayer
420
1059395
 48
1.0
 60
0
370
-1
100
AcDbText
 39
0.0
 10
91.0
 20
518.4499969482421875
 30
0.0
 40
18.0
  1
function renderBlock() {
 50
0.0
 41
1.0
 51
0.0
  7
Standard
 71
0
 72
0
 11
0.0
 21
0.0
 31
0.0
210
0.0
220
0.0
230
1.0
100
AcDbText
 73
0
  0
TEXT
  5
1F
330
F
100
AcDbEntity
  8
0
  6
ByLayer
420
1059395
 48
1.0
 60
0
370
-1
100
AcDbText
 39
0.0
 10
91.0
 20
492.350006103515625
 30
0.0
 40
18.0
  1
  const title = "pre  block";
 50
0.0
 41
1.0
 51
0.0
  7
Standard
 71
0
 72
0
 11
0.0
 21
0.0
 31
0.0
210
0.0
220
0.0
230
1.0
100
AcDbText
 73
0
  0
TEXT
  5
20
330
F
100
AcDbEntity
  8
0
  6
ByLayer
420
1059395
 48
1.0
 60
0
370
-1
100
AcDbText
 39
0.0
 10
91.0
 20
466.25
 30
0.0
 40
18.0
  1
    return title.padEnd(14, " ");
 50
0.0
 41
1.0
 51
0.0
  7
Standard
 71
0
 72
0
 11
0.0
 21
0.0
 31
0.0
210
0.0
220
0.0
230
1.0
100
AcDbText
 73
0
  0
TEXT
  5
21
330
F
100
AcDbEntity
  8
0
  6
ByLayer
420
1059395
 48
1.0
 60
0
370
-1
100
AcDbText
 39
0.0
 10
91.0
 20
440.149993896484375
 30
0.0
 40
18.0
  1
}
 50
0.0
 41
1.0
 51
0.0
  7
Standard
 71
0
 72
0
 11
0.0
 21
0.0
 31
0.0
210
0.0
220
0.0
230
1.0
100
AcDbText
 73
0
  0
TEXT
  5
22
330
F
100
AcDbEntity
  8
0
  6
ByLayer
420
8146730
 48
1.0
 60
0
370
-1
100
AcDbText
 39
0.0
 10
474.333343505859375
 20
640.0
 30
0.0
 40
28.0
  1
ROTATED PRE
 50
0.0
 41
1.0
 51
0.0
  7
Standard
 71
0
 72
0
 11
0.0
 21
0.0
 31
0.0
210
0.0
220
0.0
230
1.0
100
AcDbText
 73
0
  0
TEXT
  5
23
330
F
100
AcDbEntity
  8
0
  6
ByLayer
420
5398637
 48
1.0
 60
0
370
-1
100
AcDbText
 39
0.0
 10
474.333343505859375
 20
606.0
 30
0.0
 40
15.0
  1
This block is transformed so Firefox uses native
 50
0.0
 41
1.0
 51
0.0
  7
Standard
 71
0
 72
0
 11
0.0
 21
0.0
 31
0.0
210
0.0
220
0.0
230
1.0
100
AcDbText
 73
0
  0
TEXT
  5
24
330
F
100
AcDbEntity
  8
0
  6
ByLayer
420
5398637
 48
1.0
 60
0
370
-1
100
AcDbText
 39
0.0
 10
474.333343505859375
 20
583.5
 30
0.0
 40
15.0
  1
line quads instead of the polyfill path.
 50
0.0
 41
1.0
 51
0.0
  7
Standard
 71
0
 72
0
 11
0.0
 21
0.0
 31
0.0
210
0.0
220
0.0
230
1.0
100
AcDbText
 73
0
  0
HATCH
  5
25
330
F
100
AcDbEntity
  8
0
  6
ByLayer
420
16775407
 48
1.0
 60
0
370
-1
100
AcDbHatch
 30
0.0
210
0.0
220
0.0
230
1.0
  2
SOLID
 70
1
 71
0
 91
1
 92
2
 72
0
 73
1
 93
20
 10
473.7051507388322307
 20
540.0109651774350823
 10
475.1034432999080082
 20
547.9400458840224246
 10
478.6701282161081394
 20
553.7382531812195339
 10
484.4052054874325677
 20
557.4055870690265237
 10
492.3086751138814066
 20
558.9420475474431669
 10
787.2372538411966616
 20
574.3986049183771456
 10
795.0621991455977877
 20
573.6864360518712829
 10
800.5617034507790777
 20
570.6078819049105277
 10
803.7357667567407589
 20
565.1629424774947665
 10
804.5843890634826039
 20
557.3516177696242266
 10
800.6418682607361461
 20
444.4535732704148927
 10
799.2435741140512846
 20
436.5244926653656989
 10
795.6768880597327325
 20
430.7262855464142604
 10
789.9418100977804897
 20
427.0589519135606338
 10
782.0383402281946701
 20
425.5224917668047624
 10
487.1097920960240799
 20
410.0659481746014876
 10
479.2848465484859162
 20
410.7781173727681789
 10
473.7853415526768686
 20
413.8566717746822405
 10
470.6112771085968234
 20
419.3016113803436724
 10
469.7626532162458943
 20
427.1129361897524745
 97
0
 75
0
 76
1
 47
0.0
 98
0
  0
LWPOLYLINE
  5
26
330
F
100
AcDbEntity
  8
0
  6
ByLayer
420
16775407
 48
1.0
 60
0
370
-1
100
AcDbPolyline
 90
20
 70
1
 43
0.0
 38
0.0
 39
0.0
210
0.0
220
0.0
230
1.0
 10
473.7051507388322307
 20
540.0109651774350823
 40
0.0
 41
0.0
 42
0.0
 10
475.1034432999080082
 20
547.9400458840224246
 40
0.0
 41
0.0
 42
0.0
 10
478.6701282161081394
 20
553.7382531812195339
 40
0.0
 41
0.0
 42
0.0
 10
484.4052054874325677
 20
557.4055870690265237
 40
0.0
 41
0.0
 42
0.0
 10
492.3086751138814066
 20
558.9420475474431669
 40
0.0
 41
0.0
 42
0.0
 10
787.2372538411966616
 20
574.3986049183771456
 40
0.0
 41
0.0
 42
0.0
 10
795.0621991455977877
 20
573.6864360518712829
 40
0.0
 41
0.0
 42
0.0
 10
800.5617034507790777
 20
570.6078819049105277
 40
0.0
 41
0.0
 42
0.0
 10
803.7357667567407589
 20
565.1629424774947665
 40
0.0
 41
0.0
 42
0.0
 10
804.5843890634826039
 20
557.3516177696242266
 40
0.0
 41
0.0
 42
0.0
 10
800.6418682607361461
 20
444.4535732704148927
 40
0.0
 41
0.0
 42
0.0
 10
799.2435741140512846
 20
436.5244926653656989
 40
0.0
 41
0.0
 42
0.0
 10
795.6768880597327325
 20
430.7262855464142604
 40
0.0
 41
0.0
 42
0.0
 10
789.9418100977804897
 20
427.0589519135606338
 40
0.0
 41
0.0
 42
0.0
 10
782.0383402281946701
 20
425.5224917668047624
 40
0.0
 41
0.0
 42
0.0
 10
487.1097920960240799
 20
410.0659481746014876
 40
0.0
 41
0.0
 42
0.0
 10
479.2848465484859162
 20
410.7781173727681789
 40
0.0
 41
0.0
 42
0.0
 10
473.7853415526768686
 20
413.8566717746822405
 40
0.0
 41
0.0
 42
0.0
 10
470.6112771085968234
 20
419.3016113803436724
 40
0.0
 41
0.0
 42
0.0
 10
469.7626532162458943
 20
427.1129361897524745
 40
0.0
 41
0.0
 42
0.0
  0
TEXT
  5
27
330
F
100
AcDbEntity
  8
0
  6
ByLayer
420
1059395
 48
1.0
 60
0
370
-1
100
AcDbText
 39
0.0
 10
498.9127618834858708
 20
519.701021589884931
 30
0.0
 40
18.0
  1
if (line.startsWith("  ")) {
 50
2.9999986095181108
 41
1.0
 51
0.0
  7
Standard
 71
0
 72
0
 11
0.0
 21
0.0
 31
0.0
210
0.0
220
0.0
230
1.0
100
AcDbText
 73
0
  0
TEXT
  5
28
330
F
100
AcDbEntity
  8
0
  6
ByLayer
420
1059395
 48
1.0
 60
0
370
-1
100
AcDbText
 39
0.0
 10
497.9984247252827458
 20
493.5172905107833685
 30
0.0
 40
18.0
  1
  rows.push(line);
 50
2.9999975308243227
 41
1.0
 51
0.0
  7
Standard
 71
0
 72
0
 11
0.0
 21
0.0
 31
0.0
210
0.0
220
0.0
230
1.0
100
AcDbText
 73
0
  0
TEXT
  5
29
330
F
100
AcDbEntity
  8
0
  6
ByLayer
420
1059395
 48
1.0
 60
0
370
-1
100
AcDbText
 39
0.0
 10
497.0840571687901956
 20
467.3335365393326128
 30
0.0
 40
18.0
  1
    render("keep  spaces");
 50
3.0000008387011343
 41
1.0
 51
0.0
  7
Standard
 71
0
 72
0
 11
0.0
 21
0.0
 31
0.0
210
0.0
220
0.0
230
1.0
100
AcDbText
 73
0
  0
TEXT
  5
2A
330
F
100
AcDbEntity
  8
0
  6
ByLayer
420
1059395
 48
1.0
 60
0
370
-1
100
AcDbText
 39
0.0
 10
496.1696894930089456
 20
441.1498207190201128
 30
0.0
 40
18.0
  1
}
 50
2.999938421503666
 41
1.0
 51
0.0
  7
Standard
 71
0
 72
0
 11
0.0
 21
0.0
 31
0.0
210
0.0
220
0.0
230
1.0
100
AcDbText
 73
0
  0
TEXT
  5
2B
330
F
100
AcDbEntity
  8
0
  6
ByLayer
420
8146730
 48
1.0
 60
0
370
-1
100
AcDbText
 39
0.0
 10
883.66668701171875
 20
640.0
 30
0.0
 40
28.0
  1
SCALED NOTES
 50
0.0
 41
1.0
 51
0.0
  7
Standard
 71
0
 72
0
 11
0.0
 21
0.0
 31
0.0
210
0.0
220
0.0
230
1.0
100
AcDbText
 73
0
  0
TEXT
  5
2C
330
F
100
AcDbEntity
  8
0
  6
ByLayer
420
5398637
 48
1.0
 60
0
370
-1
100
AcDbText
 39
0.0
 10
883.66668701171875
 20
606.0
 30
0.0
 40
15.0
  1
Columns rely on fixed-width spacing and should
 50
0.0
 41
1.0
 51
0.0
  7
Standard
 71
0
 72
0
 11
0.0
 21
0.0
 31
0.0
210
0.0
220
0.0
230
1.0
100
AcDbText
 73
0
  0
TEXT
  5
2D
330
F
100
AcDbEntity
  8
0
  6
ByLayer
420
5398637
 48
1.0
 60
0
370
-1
100
AcDbText
 39
0.0
 10
883.66668701171875
 20
583.5
 30
0.0
 40
15.0
  1
keep their alignment.
 50
0.0
 41
1.0
 51
0.0
  7
Standard
 71
0
 72
0
 11
0.0
 21
0.0
 31
0.0
210
0.0
220
0.0
230
1.0
100
AcDbText
 73
0
  0
HATCH
  5
2E
330
F
100
AcDbEntity
  8
0
  6
ByLayer
420
16775922
 48
1.0
 60
0
370
-1
100
AcDbHatch
 30
0.0
210
0.0
220
0.0
230
1.0
  2
SOLID
 70
1
 71
0
 91
1
 92
2
 72
0
 73
1
 93
20
 10
891.0384981847420249
 20
528.0109650398454733
 10
892.4376454776676155
 20
535.8419059219363589
 10
896.0068985294677759
 20
541.3456936080544892
 10
901.7462573401425061
 20
544.5223280981999778
 10
909.6557219096916924
 20
545.3718093923725974
 10
1214.7431428364020576
 20
534.7179275461039651
 10
1222.574083807332272
 20
533.3187794700913855
 10
1228.0778718221492909
 20
529.7495258496808219
 10
1231.2545068808535689
 20
524.0101666848725017
 10
1232.103988983445106
 20
516.1007019756664249
 10
1228.964126250929894
 20
426.1864836932788876
 10
1227.5649789930289444
 20
418.3555428602651887
 10
1223.995725970256899
 20
412.851755324034059
 10
1218.2563671826128484
 20
409.675121084585669
 10
1210.3469026300972473
 20
408.8256401419199051
 10
905.2594816472465027
 20
419.4795356393300949
 10
897.4285406933501008
 20
420.8786840668496438
 10
891.9247527015636479
 20
424.4479379379571355
 10
888.7481176718870302
 20
430.1872972526524563
 10
887.8986356043204751
 20
438.0967620109357767
 97
0
 75
0
 76
1
 47
0.0
 98
0
  0
LWPOLYLINE
  5
2F
330
F
100
AcDbEntity
  8
0
  6
ByLayer
420
16775922
 48
1.0
 60
0
370
-1
100
AcDbPolyline
 90
20
 70
1
 43
0.0
 38
0.0
 39
0.0
210
0.0
220
0.0
230
1.0
 10
891.0384981847420249
 20
528.0109650398454733
 40
0.0
 41
0.0
 42
0.0
 10
892.4376454776676155
 20
535.8419059219363589
 40
0.0
 41
0.0
 42
0.0
 10
896.0068985294677759
 20
541.3456936080544892
 40
0.0
 41
0.0
 42
0.0
 10
901.7462573401425061
 20
544.5223280981999778
 40
0.0
 41
0.0
 42
0.0
 10
909.6557219096916924
 20
545.3718093923725974
 40
0.0
 41
0.0
 42
0.0
 10
1214.7431428364020576
 20
534.7179275461039651
 40
0.0
 41
0.0
 42
0.0
 10
1222.574083807332272
 20
533.3187794700913855
 40
0.0
 41
0.0
 42
0.0
 10
1228.0778718221492909
 20
529.7495258496808219
 40
0.0
 41
0.0
 42
0.0
 10
1231.2545068808535689
 20
524.0101666848725017
 40
0.0
 41
0.0
 42
0.0
 10
1232.103988983445106
 20
516.1007019756664249
 40
0.0
 41
0.0
 42
0.0
 10
1228.964126250929894
 20
426.1864836932788876
 40
0.0
 41
0.0
 42
0.0
 10
1227.5649789930289444
 20
418.3555428602651887
 40
0.0
 41
0.0
 42
0.0
 10
1223.995725970256899
 20
412.851755324034059
 40
0.0
 41
0.0
 42
0.0
 10
1218.2563671826128484
 20
409.675121084585669
 40
0.0
 41
0.0
 42
0.0
 10
1210.3469026300972473
 20
408.8256401419199051
 40
0.0
 41
0.0
 42
0.0
 10
905.2594816472465027
 20
419.4795356393300949
 40
0.0
 41
0.0
 42
0.0
 10
897.4285406933501008
 20
420.8786840668496438
 40
0.0
 41
0.0
 42
0.0
 10
891.9247527015636479
 20
424.4479379379571355
 40
0.0
 41
0.0
 42
0.0
 10
888.7481176718870302
 20
430.1872972526524563
 40
0.0
 41
0.0
 42
0.0
 10
887.8986356043204751
 20
438.0967620109357767
 40
0.0
 41
0.0
 42
0.0
  0
TEXT
  5
30
330
F
100
AcDbEntity
  8
0
  6
ByLayer
420
1059395
 48
1.0
 60
0
370
-1
100
AcDbText
 39
0.0
 10
917.0133921586183305
 20
504.4886192963766689
 30
0.0
 40
18.0
  1
column A    column B    column C
 50
-2.0000014236274004
 41
1.0
 51
0.0
  7
Standard
 71
0
 72
0
 11
0.0
 21
0.0
 31
0.0
210
0.0
220
0.0
230
1.0
100
AcDbText
 73
0
  0
TEXT
  5
31
330
F
100
AcDbEntity
  8
0
  6
ByLayer
420
1059395
 48
1.0
 60
0
370
-1
100
AcDbText
 39
0.0
 10
916.0752207718995805
 20
477.6219963715719814
 30
0.0
 40
18.0
  1
alpha 01    beta  02    gamma 03
 50
-2.0000010807718374
 41
1.0
 51
0.0
  7
Standard
 71
0
 72
0
 11
0.0
 21
0.0
 31
0.0
210
0.0
220
0.0
230
1.0
100
AcDbText
 73
0
  0
TEXT
  5
32
330
F
100
AcDbEntity
  8
0
  6
ByLayer
420
1059395
 48
1.0
 60
0
370
-1
100
AcDbText
 39
0.0
 10
915.1369884662823324
 20
450.7553658133129488
 30
0.0
 40
18.0
  1
  keep this padding ->   exactly here
 50
-2.0000020977523318
 41
1.0
 51
0.0
  7
Standard
 71
0
 72
0
 11
0.0
 21
0.0
 31
0.0
210
0.0
220
0.0
230
1.0
100
AcDbText
 73
0
  0
ENDSEC
  0
SECTION
  2
OBJECTS
  0
DICTIONARY
  5
1
330
0
100
AcDbDictionary
280
0
281
0
  3
ACAD_COLOR
350
0
  3
ACAD_GROUP
350
0
  3
ACAD_LAYOUT
350
0
  3
ACAD_MATERIAL
350
0
  3
ACAD_SORTENTS
350
0
  3
ACAD_MLEADERSTYLE
350
0
  3
ACAD_MLINESTYLE
350
0
  3
ACAD_TABLESTYLE
350
0
  3
ACAD_PLOTSETTINGS
350
0
  3
AcDbVariableDictionary
350
0
  3
ACAD_SCALELIST
350
0
  3
ACAD_VISUALSTYLE
350
0
  3
ACAD_FIELDLIST
350
0
  3
ACAD_IMAGE_DICT
350
0
  0
DICTIONARY
  5
0
330
1
100
AcDbDictionary
280
0
281
0
  0
DICTIONARY
  5
0
330
1
100
AcDbDictionary
280
0
281
0
  0
DICTIONARY
  5
0
330
1
100
AcDbDictionary
280
0
281
0
  0
DICTIONARY
  5
0
330
1
100
AcDbDictionary
280
0
281
0
  0
DICTIONARY
  5
0
330
1
100
AcDbDictionary
280
0
281
0
  0
DICTIONARY
  5
0
330
1
100
AcDbDictionary
280
0
281
0
  0
DICTIONARY
  5
0
330
1
100
AcDbDictionary
280
0
281
0
  0
DICTIONARY
  5
0
330
1
100
AcDbDictionary
280
0
281
0
  0
DICTIONARY
  5
0
330
1
100
AcDbDictionary
280
0
281
0
  0
DICTIONARY
  5
0
330
1
100
AcDbDictionary
280
0
281
0
  0
DICTIONARY
  5
0
330
1
100
AcDbDictionary
280
0
281
0
  0
DICTIONARY
  5
0
330
1
100
AcDbDictionary
280
0
281
0
  0
DICTIONARY
  5
0
330
1
100
AcDbDictionary
280
0
281
0
  0
DICTIONARY
  5
0
330
1
100
AcDbDictionary
280
0
281
0
  0
ENDSEC
  0
EOF
