0
SECTION
2
HEADER
9
$ACADVER
1
AC1021
9
$LASTSAVEDBY
1
@tarikjabiri/dxf
9
$HANDSEED
5
39
9
$INSUNITS
70
0
9
$CLAYER
8
0
9
$VIEWCTR
10
590
20
320
0
ENDSEC
0
SECTION
2
CLASSES
0
ENDSEC
0
SECTION
2
TABLES
0
TABLE
2
VPORT
5
1
330
0
100
AcDbSymbolTable
70
1
0
VPORT
5
19
330
1
100
AcDbSymbolTableRecord
100
AcDbViewportTableRecord
2
*Active
70
0
10
0
20
0
11
1
21
1
12
590
22
320
13
0
23
0
14
10
24
10
15
10
25
10
16
0
26
0
36
1
17
0
27
0
37
0
40
840
41
2
42
50
43
0
44
0
50
0
51
0
71
0
72
100
73
1
74
3
75
0
76
1
77
0
78
0
281
0
65
1
110
0
120
0
130
0
111
1
121
0
131
0
112
0
122
1
132
0
79
0
146
0
348
10020
60
7
61
5
292
1
282
1
141
0
142
0
63
250
421
3358443
0
ENDTAB
0
TABLE
2
LTYPE
5
2
330
0
100
AcDbSymbolTable
70
3
0
LTYPE
5
12
330
2
100
AcDbSymbolTableRecord
100
AcDbLinetypeTableRecord
2
ByBlock
70
0
3

72
65
73
0
40
0
0
LTYPE
5
13
330
2
100
AcDbSymbolTableRecord
100
AcDbLinetypeTableRecord
2
ByLayer
70
0
3

72
65
73
0
40
0
0
LTYPE
5
14
330
2
100
AcDbSymbolTableRecord
100
AcDbLinetypeTableRecord
2
Continuous
70
0
3
Solid line
72
65
73
0
40
0
0
ENDTAB
0
TABLE
2
LAYER
5
3
330
0
100
AcDbSymbolTable
70
1
0
LAYER
5
15
330
3
100
AcDbSymbolTableRecord
100
AcDbLayerTableRecord
2
0
70
0
62
7
6
Continuous
370
0
390
0
0
ENDTAB
0
TABLE
2
STYLE
5
4
330
0
100
AcDbSymbolTable
70
3
0
STYLE
5
16
330
4
100
AcDbSymbolTableRecord
100
AcDbTextStyleTableRecord
2
Standard
70
0
40
0
41
1
50
0
71
0
42
1
3
txt
4

0
STYLE
5
1D
330
4
100
AcDbSymbolTableRecord
100
AcDbTextStyleTableRecord
2
Georgia
70
0
40
0
41
1
50
0
71
0
42
1
3
Georgia.ttf
4

0
STYLE
5
22
330
4
100
AcDbSymbolTableRecord
100
AcDbTextStyleTableRecord
2
Courier New
70
0
40
0
41
1
50
0
71
0
42
1
3
Courier New.ttf
4

0
ENDTAB
0
TABLE
2
VIEW
5
5
330
0
100
AcDbSymbolTable
70
0
0
ENDTAB
0
TABLE
2
UCS
5
6
330
0
100
AcDbSymbolTable
70
0
0
ENDTAB
0
TABLE
2
APPID
5
7
330
0
100
AcDbSymbolTable
70
1
0
APPID
5
17
330
7
100
AcDbSymbolTableRecord
100
AcDbRegAppTableRecord
2
ACAD
70
0
0
ENDTAB
0
TABLE
2
DIMSTYLE
5
8
330
0
100
AcDbSymbolTable
70
1
100
AcDbDimStyleTable
0
DIMSTYLE
105
18
330
8
100
AcDbSymbolTableRecord
100
AcDbDimStyleTableRecord
2
Standard
70
0
340
16
0
ENDTAB
0
TABLE
2
BLOCK_RECORD
5
9
330
0
100
AcDbSymbolTable
70
2
0
BLOCK_RECORD
5
C
330
9
100
AcDbSymbolTableRecord
100
AcDbBlockTableRecord
2
*Model_Space
70
0
280
1
281
0
0
BLOCK_RECORD
5
F
330
9
100
AcDbSymbolTableRecord
100
AcDbBlockTableRecord
2
*Paper_Space
70
0
280
1
281
0
0
ENDTAB
0
ENDSEC
0
SECTION
2
BLOCKS
0
BLOCK
5
D
330
C
100
AcDbEntity
8
0
100
AcDbBlockBegin
2
*Model_Space
70
0
10
0
20
0
30
0
3
*Model_Space
1

0
ENDBLK
5
E
100
AcDbEntity
8
0
100
AcDbBlockEnd
0
BLOCK
5
10
330
F
100
AcDbEntity
8
0
100
AcDbBlockBegin
2
*Paper_Space
70
0
10
0
20
0
30
0
3
*Paper_Space
1

0
ENDBLK
5
11
100
AcDbEntity
8
0
100
AcDbBlockEnd
0
ENDSEC
0
SECTION
2
ENTITIES
0
LWPOLYLINE
5
1A
330
C
100
AcDbEntity
420
12348453
8
0
100
AcDbPolyline
90
5
70
0
43
0
38
0
39
0
10
0
20
720
10
1280
20
720
10
1280
20
0
10
0
20
0
10
0
20
720
0
LWPOLYLINE
5
1B
330
C
100
AcDbEntity
420
3098712
8
0
100
AcDbPolyline
90
42
70
0
43
0
38
0
39
0
10
64
20
688
10
397.3333435058594
20
688
10
397.3333435058594
20
688
10
402.01551123424645
20
687.5388467296775
10
406.5177458826215
20
686.1731087802709
10
410.6670290983298
20
683.9552706952611
10
414.30390625433654
20
680.9705627484772
10
417.2886142011205
20
677.3336855924705
10
419.50645228613024
20
673.1844023767621
10
420.8721902355369
20
668.6821677283871
10
421.3333435058594
20
664
10
421.3333435058594
20
408.6000061035156
10
421.3333435058594
20
408.6000061035156
10
420.8721902355369
20
403.91783837512855
10
419.50645228613024
20
399.4156037267535
10
417.2886142011205
20
395.2663205110452
10
414.30390625433654
20
391.62944335503846
10
410.6670290983298
20
388.6447354082545
10
406.5177458826215
20
386.42689732324476
10
402.01551123424645
20
385.0611593738381
10
397.3333435058594
20
384.6000061035156
10
64
20
384.6000061035156
10
64
20
384.6000061035156
10
59.31783227161292
20
385.0611593738381
10
54.81559762323785
20
386.42689732324476
10
50.666314407529555
20
388.6447354082545
10
47.029437251522864
20
391.62944335503846
10
44.04472930473891
20
395.2663205110452
10
41.82689121972912
20
399.4156037267535
10
40.46115327032247
20
403.91783837512855
10
40
20
408.6000061035156
10
40
20
664
10
40
20
664
10
40.46115327032247
20
668.6821677283871
10
41.82689121972912
20
673.1844023767621
10
44.04472930473891
20
677.3336855924705
10
47.02943725152286
20
680.9705627484772
10
50.66631440752955
20
683.9552706952611
10
54.815597623237835
20
686.1731087802709
10
59.317832271612914
20
687.5388467296775
10
63.99999999999999
20
688
10
64
20
688
0
TEXT
5
1C
330
C
100
AcDbEntity
420
8146730
8
0
100
AcDbText
10
65
20
640
30
0
40
28
1
CODE BLOCK
7
Georgia
100
AcDbText
0
TEXT
5
1E
330
C
100
AcDbEntity
420
5398637
8
0
100
AcDbText
10
65
20
606
30
0
40
15
1
Padding, indentation, and repeated spaces should
7
Georgia
100
AcDbText
0
TEXT
5
1F
330
C
100
AcDbEntity
420
5398637
8
0
100
AcDbText
10
65
20
583.5
30
0
40
15
1
survive extraction and rendering.
7
Georgia
100
AcDbText
0
LWPOLYLINE
5
20
330
C
100
AcDbEntity
420
3098712
8
0
100
AcDbPolyline
90
42
70
0
43
0
38
0
39
0
10
83
20
558
10
378.3333435058594
20
558
10
378.3333435058594
20
558
10
381.8449693021497
20
557.6541350472581
10
385.221645288431
20
556.6298315852032
10
388.3336077002122
20
554.9664530214458
10
391.0612655672172
20
552.7279220613578
10
393.2997965273052
20
550.0002641943529
10
394.9631750910625
20
546.8883017825716
10
395.9874785531175
20
543.5116257962903
10
396.3333435058594
20
540
10
396.3333435058594
20
427.6000061035156
10
396.3333435058594
20
427.6000061035156
10
395.9874785531175
20
424.0883803072253
10
394.9631750910625
20
420.711704320944
10
393.2997965273052
20
417.5997419091628
10
391.0612655672172
20
414.8720840421578
10
388.3336077002122
20
412.6335530820698
10
385.221645288431
20
410.9701745183125
10
381.8449693021497
20
409.9458710562575
10
378.3333435058594
20
409.6000061035156
10
83
20
409.6000061035156
10
83
20
409.6000061035156
10
79.4883742037097
20
409.9458710562575
10
76.11169821742838
20
410.9701745183125
10
72.99973580564716
20
412.6335530820698
10
70.27207793864214
20
414.8720840421578
10
68.03354697855418
20
417.5997419091628
10
66.37016841479684
20
420.711704320944
10
65.34586495274185
20
424.0883803072253
10
65
20
427.6000061035156
10
65
20
540
10
65
20
540
10
65.34586495274185
20
543.5116257962903
10
66.37016841479684
20
546.8883017825716
10
68.03354697855418
20
550.0002641943529
10
70.27207793864214
20
552.7279220613578
10
72.99973580564716
20
554.9664530214458
10
76.11169821742837
20
556.6298315852032
10
79.48837420370968
20
557.6541350472581
10
83
20
558
10
83
20
558
0
TEXT
5
21
330
C
100
AcDbEntity
420
1059395
8
0
100
AcDbText
10
91
20
518.4499969482422
30
0
40
18
1
function renderBlock() {
7
Courier New
100
AcDbText
0
TEXT
5
23
330
C
100
AcDbEntity
420
1059395
8
0
100
AcDbText
10
91
20
492.3500061035156
30
0
40
18
1
  const title = "pre  block";
7
Courier New
100
AcDbText
0
TEXT
5
24
330
C
100
AcDbEntity
420
1059395
8
0
100
AcDbText
10
91
20
466.25
30
0
40
18
1
    return title.padEnd(14, " ");
7
Courier New
100
AcDbText
0
TEXT
5
25
330
C
100
AcDbEntity
420
1059395
8
0
100
AcDbText
10
91
20
440.1499938964844
30
0
40
18
1
}
7
Courier New
100
AcDbText
0
LWPOLYLINE
5
26
330
C
100
AcDbEntity
420
3098712
8
0
100
AcDbPolyline
90
42
70
0
43
0
38
0
39
0
10
473.3333435058594
20
688
10
806.6666870117188
20
688
10
806.6666870117188
20
688
10
811.3488547401058
20
687.5388467296775
10
815.8510893884809
20
686.1731087802709
10
820.0003726041892
20
683.9552706952611
10
823.6372497601959
20
680.9705627484772
10
826.6219577069799
20
677.3336855924705
10
828.8397957919897
20
673.1844023767621
10
830.2055337413963
20
668.6821677283871
10
830.6666870117188
20
664
10
830.6666870117188
20
330.29998779296875
10
830.6666870117188
20
330.29998779296875
10
830.2055337413963
20
325.6178200645817
10
828.8397957919897
20
321.1155854162066
10
826.6219577069799
20
316.9663022004983
10
823.6372497601959
20
313.3294250444916
10
820.0003726041892
20
310.34471709770764
10
815.8510893884809
20
308.1268790126979
10
811.3488547401058
20
306.76114106329123
10
806.6666870117188
20
306.29998779296875
10
473.3333435058594
20
306.29998779296875
10
473.3333435058594
20
306.29998779296875
10
468.6511757774723
20
306.76114106329123
10
464.14894112909724
20
308.1268790126979
10
459.99965791338894
20
310.34471709770764
10
456.3627807573822
20
313.3294250444916
10
453.37807281059827
20
316.9663022004983
10
451.1602347255885
20
321.1155854162066
10
449.79449677618186
20
325.6178200645817
10
449.3333435058594
20
330.29998779296875
10
449.3333435058594
20
664
10
449.3333435058594
20
664
10
449.79449677618186
20
668.6821677283871
10
451.1602347255885
20
673.1844023767621
10
453.37807281059827
20
677.3336855924705
10
456.3627807573822
20
680.9705627484772
10
459.99965791338894
20
683.9552706952611
10
464.1489411290972
20
686.1731087802709
10
468.6511757774723
20
687.5388467296775
10
473.3333435058594
20
688
10
473.3333435058594
20
688
0
TEXT
5
27
330
C
100
AcDbEntity
420
8146730
8
0
100
AcDbText
10
474.3333435058594
20
640
30
0
40
28
1
ROTATED PRE
7
Georgia
100
AcDbText
0
TEXT
5
28
330
C
100
AcDbEntity
420
5398637
8
0
100
AcDbText
10
474.3333435058594
20
606
30
0
40
15
1
This block is transformed so Firefox uses native
7
Georgia
100
AcDbText
0
TEXT
5
29
330
C
100
AcDbEntity
420
5398637
8
0
100
AcDbText
10
474.3333435058594
20
583.5
30
0
40
15
1
line quads instead of the polyfill path.
7
Georgia
100
AcDbText
0
HATCH
5
2A
330
C
100
AcDbEntity
420
16775407
8
0
100
AcDbHatch
10
0
20
0
30
0
210
0
220
0
230
1
2
SOLID
70
1
71
0
91
1
92
7
72
0
73
1
93
20
10
473.70515073883223
20
540.0109651774351
10
475.103443299908
20
547.9400458840224
10
478.67012821610814
20
553.7382531812195
10
484.40520548743257
20
557.4055870690265
10
492.3086751138814
20
558.9420475474432
10
787.2372538411967
20
574.3986049183771
10
795.0621991455978
20
573.6864360518713
10
800.5617034507791
20
570.6078819049105
10
803.7357667567408
20
565.1629424774948
10
804.5843890634826
20
557.3516177696242
10
800.6418682607361
20
444.4535732704149
10
799.2435741140513
20
436.5244926653657
10
795.6768880597327
20
430.72628554641426
10
789.9418100977805
20
427.05895191356063
10
782.0383402281947
20
425.52249176680476
10
487.1097920960241
20
410.0659481746015
10
479.2848465484859
20
410.7781173727682
10
473.78534155267687
20
413.85667177468224
10
470.6112771085968
20
419.3016113803437
10
469.7626532162459
20
427.1129361897525
97
0
75
1
76
1
47
1
98
0
0
LWPOLYLINE
5
2B
330
C
100
AcDbEntity
420
12348453
8
0
100
AcDbPolyline
90
21
70
0
43
0
38
0
39
0
10
473.70515073883223
20
540.0109651774351
10
475.103443299908
20
547.9400458840224
10
478.67012821610814
20
553.7382531812195
10
484.40520548743257
20
557.4055870690265
10
492.3086751138814
20
558.9420475474432
10
787.2372538411967
20
574.3986049183771
10
795.0621991455978
20
573.6864360518713
10
800.5617034507791
20
570.6078819049105
10
803.7357667567408
20
565.1629424774948
10
804.5843890634826
20
557.3516177696242
10
800.6418682607361
20
444.4535732704149
10
799.2435741140513
20
436.5244926653657
10
795.6768880597327
20
430.72628554641426
10
789.9418100977805
20
427.05895191356063
10
782.0383402281947
20
425.52249176680476
10
487.1097920960241
20
410.0659481746015
10
479.2848465484859
20
410.7781173727682
10
473.78534155267687
20
413.85667177468224
10
470.6112771085968
20
419.3016113803437
10
469.7626532162459
20
427.1129361897525
10
473.70515073883223
20
540.0109651774351
0
TEXT
5
2C
330
C
100
AcDbEntity
420
1059395
8
0
100
AcDbText
10
498.91276188348587
20
519.7010215898849
30
0
40
18
1
if (line.startsWith("  ")) {
50
2.999998609518111
7
Courier New
100
AcDbText
0
TEXT
5
2D
330
C
100
AcDbEntity
420
1059395
8
0
100
AcDbText
10
497.99842472528275
20
493.51729051078337
30
0
40
18
1
  rows.push(line);
50
2.9999975308243227
7
Courier New
100
AcDbText
0
TEXT
5
2E
330
C
100
AcDbEntity
420
1059395
8
0
100
AcDbText
10
497.0840571687902
20
467.3335365393326
30
0
40
18
1
    render("keep  spaces");
50
3.0000008387011343
7
Courier New
100
AcDbText
0
TEXT
5
2F
330
C
100
AcDbEntity
420
1059395
8
0
100
AcDbText
10
496.16968949300895
20
441.1498207190201
30
0
40
18
1
}
50
2.999938421503666
7
Courier New
100
AcDbText
0
LWPOLYLINE
5
30
330
C
100
AcDbEntity
420
3098712
8
0
100
AcDbPolyline
90
42
70
0
43
0
38
0
39
0
10
882.6666870117188
20
688
10
1216
20
688
10
1216
20
688
10
1220.6821677283872
20
687.5388467296775
10
1225.1844023767621
20
686.1731087802709
10
1229.3336855924704
20
683.9552706952611
10
1232.970562748477
20
680.9705627484772
10
1235.955270695261
20
677.3336855924705
10
1238.173108780271
20
673.1844023767621
10
1239.5388467296775
20
668.6821677283871
10
1240
20
664
10
1240
20
330.29998779296875
10
1240
20
330.29998779296875
10
1239.5388467296775
20
325.6178200645817
10
1238.173108780271
20
321.1155854162066
10
1235.955270695261
20
316.9663022004983
10
1232.970562748477
20
313.3294250444916
10
1229.3336855924704
20
310.34471709770764
10
1225.1844023767621
20
308.1268790126979
10
1220.6821677283872
20
306.76114106329123
10
1216
20
306.29998779296875
10
882.6666870117188
20
306.29998779296875
10
882.6666870117188
20
306.29998779296875
10
877.9845192833317
20
306.76114106329123
10
873.4822846349566
20
308.1268790126979
10
869.3330014192483
20
310.34471709770764
10
865.6961242632416
20
313.3294250444916
10
862.7114163164576
20
316.9663022004983
10
860.4935782314478
20
321.1155854162066
10
859.1278402820412
20
325.6178200645817
10
858.6666870117188
20
330.29998779296875
10
858.6666870117188
20
664
10
858.6666870117188
20
664
10
859.1278402820412
20
668.6821677283871
10
860.4935782314478
20
673.1844023767621
10
862.7114163164576
20
677.3336855924705
10
865.6961242632416
20
680.9705627484772
10
869.3330014192483
20
683.9552706952611
10
873.4822846349566
20
686.1731087802709
10
877.9845192833317
20
687.5388467296775
10
882.6666870117188
20
688
10
882.6666870117188
20
688
0
TEXT
5
31
330
C
100
AcDbEntity
420
8146730
8
0
100
AcDbText
10
883.6666870117188
20
640
30
0
40
28
1
SCALED NOTES
7
Georgia
100
AcDbText
0
TEXT
5
32
330
C
100
AcDbEntity
420
5398637
8
0
100
AcDbText
10
883.6666870117188
20
606
30
0
40
15
1
Columns rely on fixed-width spacing and should
7
Georgia
100
AcDbText
0
TEXT
5
33
330
C
100
AcDbEntity
420
5398637
8
0
100
AcDbText
10
883.6666870117188
20
583.5
30
0
40
15
1
keep their alignment.
7
Georgia
100
AcDbText
0
HATCH
5
34
330
C
100
AcDbEntity
420
16775922
8
0
100
AcDbHatch
10
0
20
0
30
0
210
0
220
0
230
1
2
SOLID
70
1
71
0
91
1
92
7
72
0
73
1
93
20
10
891.038498184742
20
528.0109650398455
10
892.4376454776676
20
535.8419059219364
10
896.0068985294678
20
541.3456936080545
10
901.7462573401425
20
544.5223280982
10
909.6557219096917
20
545.3718093923726
10
1214.743142836402
20
534.717927546104
10
1222.5740838073323
20
533.3187794700914
10
1228.0778718221493
20
529.7495258496808
10
1231.2545068808536
20
524.0101666848725
10
1232.103988983445
20
516.1007019756664
10
1228.96412625093
20
426.1864836932789
10
1227.564978993029
20
418.3555428602652
10
1223.995725970257
20
412.85175532403406
10
1218.2563671826128
20
409.67512108458567
10
1210.3469026300972
20
408.8256401419199
10
905.2594816472465
20
419.4795356393301
10
897.4285406933501
20
420.87868406684964
10
891.9247527015636
20
424.44793793795714
10
888.748117671887
20
430.18729725265246
10
887.8986356043205
20
438.0967620109358
97
0
75
1
76
1
47
1
98
0
0
LWPOLYLINE
5
35
330
C
100
AcDbEntity
420
8344889
8
0
100
AcDbPolyline
90
21
70
0
43
0
38
0
39
0
10
891.038498184742
20
528.0109650398455
10
892.4376454776676
20
535.8419059219364
10
896.0068985294678
20
541.3456936080545
10
901.7462573401425
20
544.5223280982
10
909.6557219096917
20
545.3718093923726
10
1214.743142836402
20
534.717927546104
10
1222.5740838073323
20
533.3187794700914
10
1228.0778718221493
20
529.7495258496808
10
1231.2545068808536
20
524.0101666848725
10
1232.103988983445
20
516.1007019756664
10
1228.96412625093
20
426.1864836932789
10
1227.564978993029
20
418.3555428602652
10
1223.995725970257
20
412.85175532403406
10
1218.2563671826128
20
409.67512108458567
10
1210.3469026300972
20
408.8256401419199
10
905.2594816472465
20
419.4795356393301
10
897.4285406933501
20
420.87868406684964
10
891.9247527015636
20
424.44793793795714
10
888.748117671887
20
430.18729725265246
10
887.8986356043205
20
438.0967620109358
10
891.038498184742
20
528.0109650398455
0
TEXT
5
36
330
C
100
AcDbEntity
420
1059395
8
0
100
AcDbText
10
917.0133921586183
20
504.48861929637667
30
0
40
18
1
column A    column B    column C
50
-2.0000014236274004
7
Courier New
100
AcDbText
0
TEXT
5
37
330
C
100
AcDbEntity
420
1059395
8
0
100
AcDbText
10
916.0752207718996
20
477.621996371572
30
0
40
18
1
alpha 01    beta  02    gamma 03
50
-2.0000010807718374
7
Courier New
100
AcDbText
0
TEXT
5
38
330
C
100
AcDbEntity
420
1059395
8
0
100
AcDbText
10
915.1369884662823
20
450.75536581331295
30
0
40
18
1
  keep this padding ->   exactly here
50
-2.000002097752332
7
Courier New
100
AcDbText
0
ENDSEC
0
SECTION
2
OBJECTS
0
DICTIONARY
5
A
330
0
100
AcDbDictionary
281
1
3
ACAD_GROUP
350
B
0
DICTIONARY
5
B
330
A
100
AcDbDictionary
281
0
0
ENDSEC
0
EOF