  0
SECTION
  2
HEADER
  9
$ANGBASE
 50
0.0
  9
$ANGDIR
 70
1
  9
$AUNITS
 70
0
  9
$AUPREC
 70
0
  9
$ATTMODE
 70
1
  9
$DWGCODEPAGE
  3
ANSI_1252
  9
$TDCREATE
 40
2461147.0201902664266527
  9
$CECOLOR
 62
256
  9
$CELTSCALE
 40
1.0
  9
$CELWEIGHT
370
-1
  9
$CLAYER
  8
0
  9
$CELTYPE
  6
ByLayer
  9
$CMLJUST
 70
0
  9
$CMLSCALE
 40
20.0
  9
$CMLSTYLE
  2
Standard
  9
$DIMSTYLE
  2
Standard
  9
$LWDISPLAY
290
0
  9
$EXTNAMES
290
1
  9
$HANDSEED
  5
77
  9
$INSUNITS
 70
0
  9
$LUNITS
 70
2
  9
$LUPREC
 70
4
  9
$LTSCALE
 40
1.0
  9
$MIRRTEXT
 70
0
  9
$INSBASE
 10
0.0
 20
0.0
 30
0.0
  9
$SPLINESEGS
 70
8
  9
$PSLTSCALE
 70
1
  9
$PDMODE
 70
0
  9
$PDSIZE
 40
0.0
  9
$PLINEGEN
 70
0
  9
$TEXTSIZE
 40
0.2
  9
$TEXTSTYLE
  7
Standard
  9
$TDINDWG
 40
0.0
  9
$TDUCREATE
 40
2461147.0201902664266527
  9
$TDUUPDATE
 40
2461147.0201902664266527
  9
$TDUPDATE
 40
2461147.0201902664266527
  9
$ACADVER
  1
AC1018
  0
ENDSEC
  0
SECTION
  2
CLASSES
  0
CLASS
  1
ACDBDICTIONARYWDFLT
  2
AcDbDictionaryWithDefault
  3
ObjectDBX Classes
 90
32768
 91
0
280
0
281
0
  0
CLASS
  1
ACDBPLACEHOLDER
  2
AcDbPlaceHolder
  3
ObjectDBX Classes
 90
0
 91
0
280
0
281
0
  0
CLASS
  1
LAYOUT
  2
AcDbLayout
  3
ObjectDBX Classes
 90
0
 91
0
280
0
281
0
  0
CLASS
  1
DICTIONARYVAR
  2
AcDbDictionaryVar
  3
ObjectDBX Classes
 90
0
 91
0
280
0
281
0
  0
CLASS
  1
TABLESTYLE
  2
AcDbTableStyle
  3
ObjectDBX Classes
 90
4095
 91
0
280
0
281
0
  0
CLASS
  1
MATERIAL
  2
AcDbMaterial
  3
ObjectDBX Classes
 90
1153
 91
0
280
0
281
0
  0
CLASS
  1
VISUALSTYLE
  2
AcDbVisualStyle
  3
ObjectDBX Classes
 90
4095
 91
0
280
0
281
0
  0
CLASS
  1
SCALE
  2
AcDbScale
  3
ObjectDBX Classes
 90
1153
 91
0
280
0
281
0
  0
CLASS
  1
MLEADERSTYLE
  2
AcDbMLeaderStyle
  3
ObjectDBX Classes
 90
4095
 91
0
280
0
281
0
  0
CLASS
  1
CELLSTYLEMAP
  2
AcDbCellStyleMap
  3
ObjectDBX Classes
 90
1152
 91
0
280
0
281
0
  0
CLASS
  1
EXACXREFPANELOBJECT
  2
ExAcXREFPanelObject
  3
ObjectDBX Classes
 90
1025
 91
0
280
0
281
0
  0
CLASS
  1
NPOCOLLECTION
  2
AcDbImpNonPersistentObjectsCollection
  3
ObjectDBX Classes
 90
1153
 91
0
280
0
281
0
  0
CLASS
  1
LAYER_INDEX
  2
AcDbLayerIndex
  3
ObjectDBX Classes
 90
0
 91
0
280
0
281
0
  0
CLASS
  1
SPATIAL_INDEX
  2
AcDbSpatialIndex
  3
ObjectDBX Classes
 90
0
 91
0
280
0
281
0
  0
CLASS
  1
IDBUFFER
  2
AcDbIdBuffer
  3
ObjectDBX Classes
 90
32768
 91
0
280
0
281
0
  0
CLASS
  1
ACDBSECTIONVIEWSTYLE
  2
AcDbSectionViewStyle
  3
ObjectDBX Classes
 90
1025
 91
0
280
0
281
0
  0
CLASS
  1
ACDBDETAILVIEWSTYLE
  2
AcDbDetailViewStyle
  3
ObjectDBX Classes
 90
1025
 91
0
280
0
281
0
  0
CLASS
  1
MESH
  2
AcDbSubDMesh
  3
ObjectDBX Classes
 90
0
 91
0
280
0
281
1
  0
CLASS
  1
SORTENTSTABLE
  2
AcDbSortentsTable
  3
ObjectDBX Classes
 90
0
 91
0
280
0
281
0
  0
CLASS
  1
ACDB_TEXTOBJECTCONTEXTDATA_CLASS
  2
AcDbTextObjectContextData
  3
ObjectDBX Classes
 90
1153
 91
0
280
0
281
0
  0
CLASS
  1
WIPEOUT
  2
AcDbWipeout
  3
WipeOut
 90
32895
 91
0
280
0
281
1
  0
CLASS
  1
WIPEOUTVARIABLES
  2
AcDbWipeoutVariables
  3
WipeOut
 90
32768
 91
0
280
0
281
0
  0
CLASS
  1
DIMASSOC
  2
AcDbDimAssoc
  3
AcDbDimAssoc
 90
0
 91
0
280
0
281
0
  0
CLASS
  1
ACAD_TABLE
  2
AcDbTable
  3
ObjectDBX Classes
 90
1025
 91
0
280
0
281
1
  0
CLASS
  1
TABLECONTENT
  2
AcDbTableContent
  3
ObjectDBX Classes
 90
1152
 91
0
280
0
281
0
  0
CLASS
  1
TABLEGEOMETRY
  2
AcDbTableGeometry
  3
ObjectDBX Classes
 90
1152
 91
0
280
0
281
0
  0
CLASS
  1
IMAGE
  2
AcDbRasterImage
  3
ISM
 90
32895
 91
0
280
0
281
1
  0
CLASS
  1
IMAGEDEF
  2
AcDbRasterImageDef
  3
ISM
 90
0
 91
0
280
0
281
0
  0
CLASS
  1
IMAGEDEF_REACTOR
  2
AcDbRasterImageDefReactor
  3
ISM
 90
1
 91
0
280
0
281
0
  0
CLASS
  1
DBCOLOR
  2
AcDbColor
  3
ObjectDBX Classes
 90
0
 91
0
280
0
281
0
  0
CLASS
  1
GEODATA
  2
AcDbGeoData
  3
ObjectDBX Classes
 90
4095
 91
0
280
0
281
0
  0
CLASS
  1
MULTILEADER
  2
AcDbMLeader
  3
ObjectDBX Classes
 90
1025
 91
0
280
0
281
0
  0
CLASS
  1
PDFUNDERLAY
  2
AcDbPdfReference
  3
ObjectDBX Classes
 90
4095
 91
0
280
0
281
1
  0
CLASS
  1
PDFDEFINITION
  2
AcDbPdfDefinition
  3
ObjectDBX Classes
 90
1153
 91
0
280
0
281
0
  0
CLASS
  1
RASTERVARIABLES
  2
AcDbRasterVariables
  3
ISM
 90
0
 91
0
280
0
281
0
  0
CLASS
  1
SPATIAL_FILTER
  2
AcDbSpatialFilter
  3
ObjectDBX Classes
 90
0
 91
0
280
0
281
0
  0
CLASS
  1
ACDB_MLEADEROBJECTCONTEXTDATA_CLASS
  2
AcDbMLeaderObjectContextData
  3
ObjectDBX Classes
 90
1025
 91
0
280
0
281
0
  0
CLASS
  1
PLOTSETTINGS
  2
AcDbPlotSettings
  3
ObjectDBX Classes
 90
0
 91
0
280
0
281
0
  0
CLASS
  1
FIELD
  2
AcDbField
  3
ObjectDBX Classes
 90
1152
 91
0
280
0
281
0
  0
CLASS
  1
FIELDLIST
  2
AcDbFieldList
  3
ObjectDBX Classes
 90
1152
 91
0
280
0
281
0
  0
CLASS
  1
ACDB_MTEXTATTRIBUTEOBJECTCONTEXTDATA_CLASS
  2
AcDbMTextAttributeObjectContextData
  3
ObjectDBX Classes
 90
1153
 91
0
280
0
281
0
  0
CLASS
  1
ACDB_BLKREFOBJECTCONTEXTDATA_CLASS
  2
AcDbBlkRefObjectContextData
  3
ObjectDBX Classes
 90
1153
 91
0
280
0
281
0
  0
ENDSEC
  0
SECTION
  2
TABLES
  0
TABLE
  2
VPORT
  5
18
330
0
100
AcDbSymbolTable
 70
1
  0
VPORT
  5
26
330
18
100
AcDbSymbolTableRecord
100
AcDbViewportTableRecord
  2
*Active
 70
0
 10
0.0
 20
0.0
 11
1.0
 21
1.0
 12
0.0
 22
0.0
 13
0.0
 23
0.0
 14
0.5
 24
0.5
 15
10.0
 25
10.0
 16
0.0
 26
0.0
 36
1.0
 17
0.0
 27
0.0
 37
0.0
 40
10.0
 41
1.0
 75
0
 76
1
  0
ENDTAB
  0
TABLE
  2
LTYPE
  5
14
330
0
100
AcDbSymbolTable
 70
3
  0
LTYPE
  5
19
330
14
100
AcDbSymbolTableRecord
100
AcDbLinetypeTableRecord
  2
ByLayer
 70
0
 72
0
 73
0
 40
0.0
  0
LTYPE
  5
1A
330
14
100
AcDbSymbolTableRecord
100
AcDbLinetypeTableRecord
  2
ByBlock
 70
0
 72
0
 73
0
 40
0.0
  0
LTYPE
  5
1B
330
14
100
AcDbSymbolTableRecord
100
AcDbLinetypeTableRecord
  2
Continuous
 70
0
 72
0
 73
0
 40
0.0
  0
ENDTAB
  0
TABLE
  2
LAYER
  5
13
330
0
100
AcDbSymbolTable
 70
1
  0
LAYER
  5
1C
330
13
100
AcDbSymbolTableRecord
100
AcDbLayerTableRecord
  2
0
 70
0
 62
7
  6
Continuous
290
1
370
-3
390
0
  0
ENDTAB
  0
TABLE
  2
STYLE
  5
15
330
0
100
AcDbSymbolTable
 70
1
  0
STYLE
  5
23
330
15
100
AcDbSymbolTableRecord
100
AcDbTextStyleTableRecord
  2
Standard
 70
0
 40
0.0
 41
1.0
 42
0.0
 50
0.0
 71
0
  0
ENDTAB
  0
TABLE
  2
VIEW
  5
17
330
0
100
AcDbSymbolTable
 70
0
  0
ENDTAB
  0
TABLE
  2
UCS
  5
16
330
0
100
AcDbSymbolTable
 70
0
  0
ENDTAB
  0
TABLE
  2
APPID
  5
10
330
0
100
AcDbSymbolTable
 70
1
  0
APPID
  5
25
330
10
100
AcDbSymbolTableRecord
100
AcDbRegAppTableRecord
  2
ACAD
 70
0
  0
ENDTAB
  0
TABLE
  2
DIMSTYLE
  5
12
330
0
100
AcDbSymbolTable
 70
1
100
AcDbDimStyleTable
  0
DIMSTYLE
105
24
330
12
100
AcDbSymbolTableRecord
100
AcDbDimStyleTableRecord
  2
Standard
 70
0
  3
<>
  4
[]
 40
1.0
 41
0.18
 42
0.625
 43
3.75
 44
1.25
 45
0.0
 46
0.0
 47
0.0
 48
0.0
 49
1.0
 50
45.0
 70
0
 90
0
140
0.18
141
0.09
142
0.0
143
25.3999999999999986
144
1.0
145
0.0
146
1.0
147
0.625
148
0.0
 71
0
 72
0
 73
0
 74
0
 75
0
 76
0
 77
1
 78
8
 79
0
170
0
171
3
172
0
173
1
174
0
175
0
176
0
177
0
178
0
179
0
271
2
272
2
273
2
274
3
275
0
276
0
277
2
278
46
279
0
280
0
281
0
282
0
283
0
284
8
285
0
286
0
287
0
288
0
289
3
290
0
340
0
371
-2
372
-2
  0
ENDTAB
  0
TABLE
  2
BLOCK_RECORD
  5
11
330
0
100
AcDbSymbolTable
 70
2
  0
BLOCK_RECORD
  5
1D
330
11
100
AcDbSymbolTableRecord
100
AcDbBlockTableRecord
  2
*Model_Space
 70
0
340
0
 70
0
280
0
281
1
  0
BLOCK_RECORD
  5
20
330
11
100
AcDbSymbolTableRecord
100
AcDbBlockTableRecord
  2
*Paper_Space
 70
0
340
0
 70
0
280
0
281
1
  0
ENDTAB
  0
ENDSEC
  0
SECTION
  2
BLOCKS
  0
BLOCK
  5
1E
330
1D
100
AcDbEntity
  8
0
  6
ByLayer
 62
256
 48
1.0
 60
0
 67
0
370
-1
100
AcDbBlockBegin
  2
*Model_Space
 70
0
 10
0.0
 20
0.0
 30
0.0
  3
*Model_Space
  0
ENDBLK
  5
1F
330
1D
100
AcDbEntity
  8
0
100
AcDbBlockEnd
  0
BLOCK
  5
21
330
20
100
AcDbEntity
  8
0
  6
ByLayer
 62
256
 48
1.0
 60
0
 67
1
370
-1
100
AcDbBlockBegin
  2
*Paper_Space
 70
0
 10
0.0
 20
0.0
 30
0.0
  3
*Paper_Space
  0
ENDBLK
  5
22
330
20
100
AcDbEntity
  8
0
100
AcDbBlockEnd
  0
ENDSEC
  0
SECTION
  2
ENTITIES
  0
TEXT
  5
27
330
1D
100
AcDbEntity
  8
0
  6
ByLayer
420
0
 48
1.0
 60
0
 67
0
370
-1
100
AcDbText
 39
0.0
 10
20.0
 20
1371.0
 30
0.0
 40
24.0
  1
Pseudo-Elements & Counters Demo
 50
0.0
 41
1.0
 51
0.0
  7
Standard
 71
0
 72
0
 11
0.0
 21
0.0
 31
0.0
210
0.0
220
0.0
230
1.0
100
AcDbText
 73
0
  0
TEXT
  5
28
330
1D
100
AcDbEntity
  8
0
  6
ByLayer
420
0
 48
1.0
 60
0
 67
0
370
-1
100
AcDbText
 39
0.0
 10
20.0
 20
1323.3199999999999363
 30
0.0
 40
18.7199999999999989
  1
Simple ::before
 50
0.0
 41
1.0
 51
0.0
  7
Standard
 71
0
 72
0
 11
0.0
 21
0.0
 31
0.0
210
0.0
220
0.0
230
1.0
100
AcDbText
 73
0
  0
TEXT
  5
29
330
1D
100
AcDbEntity
  8
0
  6
ByLayer
420
0
 48
1.0
 60
0
 67
0
370
-1
100
AcDbText
 39
0.0
 10
40.4500007629394531
 20
1296.0
 30
0.0
 40
16.0
  1
This has an arrow before
 50
0.0
 41
1.0
 51
0.0
  7
Standard
 71
0
 72
0
 11
0.0
 21
0.0
 31
0.0
210
0.0
220
0.0
230
1.0
100
AcDbText
 73
0
  0
TEXT
  5
2A
330
1D
100
AcDbEntity
  8
0
  6
ByLayer
420
15158332
 48
1.0
 60
0
 67
0
370
-1
100
AcDbText
 39
0.0
 10
20.0
 20
1296.0
 30
0.0
 40
16.0
  1
?
 50
0.0
 41
1.0
 51
0.0
  7
Standard
 71
0
 72
0
 11
0.0
 21
0.0
 31
0.0
210
0.0
220
0.0
230
1.0
100
AcDbText
 73
0
  0
TEXT
  5
2B
330
1D
100
AcDbEntity
  8
0
  6
ByLayer
420
0
 48
1.0
 60
0
 67
0
370
-1
100
AcDbText
 39
0.0
 10
40.4500007629394531
 20
1278.0
 30
0.0
 40
16.0
  1
Another item with arrow
 50
0.0
 41
1.0
 51
0.0
  7
Standard
 71
0
 72
0
 11
0.0
 21
0.0
 31
0.0
210
0.0
220
0.0
230
1.0
100
AcDbText
 73
0
  0
TEXT
  5
2C
330
1D
100
AcDbEntity
  8
0
  6
ByLayer
420
15158332
 48
1.0
 60
0
 67
0
370
-1
100
AcDbText
 39
0.0
 10
20.0
 20
1278.0
 30
0.0
 40
16.0
  1
?
 50
0.0
 41
1.0
 51
0.0
  7
Standard
 71
0
 72
0
 11
0.0
 21
0.0
 31
0.0
210
0.0
220
0.0
230
1.0
100
AcDbText
 73
0
  0
TEXT
  5
2D
330
1D
100
AcDbEntity
  8
0
  6
ByLayer
420
0
 48
1.0
 60
0
 67
0
370
-1
100
AcDbText
 39
0.0
 10
20.0
 20
1233.3199999999999363
 30
0.0
 40
18.7199999999999989
  1
Simple ::after
 50
0.0
 41
1.0
 51
0.0
  7
Standard
 71
0
 72
0
 11
0.0
 21
0.0
 31
0.0
210
0.0
220
0.0
230
1.0
100
AcDbText
 73
0
  0
TEXT
  5
2E
330
1D
100
AcDbEntity
  8
0
  6
ByLayer
420
0
 48
1.0
 60
0
 67
0
370
-1
100
AcDbText
 39
0.0
 10
20.0
 20
1203.5
 30
0.0
 40
16.0
  1
Task completed
 50
0.0
 41
1.0
 51
0.0
  7
Standard
 71
0
 72
0
 11
0.0
 21
0.0
 31
0.0
210
0.0
220
0.0
230
1.0
100
AcDbText
 73
0
  0
TEXT
  5
2F
330
1D
100
AcDbEntity
  8
0
  6
ByLayer
420
2600544
 48
1.0
 60
0
 67
0
370
-1
100
AcDbText
 39
0.0
 10
131.1833343505859375
 20
1203.5
 30
0.0
 40
16.0
  1
?
 50
0.0
 41
1.0
 51
0.0
  7
Standard
 71
0
 72
0
 11
0.0
 21
0.0
 31
0.0
210
0.0
220
0.0
230
1.0
100
AcDbText
 73
0
  0
TEXT
  5
30
330
1D
100
AcDbEntity
  8
0
  6
ByLayer
420
0
 48
1.0
 60
0
 67
0
370
-1
100
AcDbText
 39
0.0
 10
20.0
 20
1182.5
 30
0.0
 40
16.0
  1
Another task done
 50
0.0
 41
1.0
 51
0.0
  7
Standard
 71
0
 72
0
 11
0.0
 21
0.0
 31
0.0
210
0.0
220
0.0
230
1.0
100
AcDbText
 73
0
  0
TEXT
  5
31
330
1D
100
AcDbEntity
  8
0
  6
ByLayer
420
2600544
 48
1.0
 60
0
 67
0
370
-1
100
AcDbText
 39
0.0
 10
149.899993896484375
 20
1182.5
 30
0.0
 40
16.0
  1
?
 50
0.0
 41
1.0
 51
0.0
  7
Standard
 71
0
 72
0
 11
0.0
 21
0.0
 31
0.0
210
0.0
220
0.0
230
1.0
100
AcDbText
 73
0
  0
TEXT
  5
32
330
1D
100
AcDbEntity
  8
0
  6
ByLayer
420
0
 48
1.0
 60
0
 67
0
370
-1
100
AcDbText
 39
0.0
 10
20.0
 20
1137.3199999999999363
 30
0.0
 40
18.7199999999999989
  1
Styled Pseudo-Element
 50
0.0
 41
1.0
 51
0.0
  7
Standard
 71
0
 72
0
 11
0.0
 21
0.0
 31
0.0
210
0.0
220
0.0
230
1.0
100
AcDbText
 73
0
  0
TEXT
  5
33
330
1D
100
AcDbEntity
  8
0
  6
ByLayer
420
0
 48
1.0
 60
0
 67
0
370
-1
100
AcDbText
 39
0.0
 10
77.3333358764648438
 20
1110.0
 30
0.0
 40
16.0
  1
This is an important notice
 50
0.0
 41
1.0
 51
0.0
  7
Standard
 71
0
 72
0
 11
0.0
 21
0.0
 31
0.0
210
0.0
220
0.0
230
1.0
100
AcDbText
 73
0
  0
HATCH
  5
34
330
1D
100
AcDbEntity
  8
0
  6
ByLayer
420
3447003
 48
1.0
 60
0
 67
0
370
-1
100
AcDbHatch
 30
0.0
210
0.0
220
0.0
230
1.0
  2
SOLID
 70
1
 71
0
 91
1
 92
2
 72
0
 73
1
 93
41
 10
24.0
 20
1122.0
 10
65.3333282470703125
 20
1122.0
 10
65.3333282470703125
 20
1122.0
 10
66.1136895351348244
 20
1121.9231411216128436
 10
66.8640619765306781
 20
1121.6955181300452296
 10
67.5556091791487177
 20
1121.3258784492102222
 10
68.161755371816497
 20
1120.8284271247462129
 10
68.6592066962804921
 20
1120.2222809320783199
 10
69.0288463771154568
 20
1119.5307337294602803
 10
69.2564693686832413
 20
1118.7803612880645687
 10
69.3333282470703125
 20
1118.0
 10
69.3333282470703125
 20
1107.0
 10
69.3333282470703125
 20
1107.0
 10
69.2564693686832413
 20
1106.2196387119354313
 10
69.0288463771154568
 20
1105.4692662705397197
 10
68.6592066962804921
 20
1104.7777190679216801
 10
68.161755371816497
 20
1104.1715728752537871
 10
67.5556091791487177
 20
1103.6741215507897778
 10
66.8640619765306781
 20
1103.3044818699547704
 10
66.1136895351348244
 20
1103.0768588783871564
 10
65.3333282470703125
 20
1103.0
 10
24.0
 20
1103.0
 10
24.0
 20
1103.0
 10
23.2196387119354881
 20
1103.0768588783871564
 10
22.4692662705396415
 20
1103.3044818699547704
 10
21.7777190679215913
 20
1103.6741215507897778
 10
21.1715728752538084
 20
1104.1715728752537871
 10
20.6741215507898204
 20
1104.7777190679216801
 10
20.3044818699548522
 20
1105.4692662705397197
 10
20.0768588783870783
 20
1106.2196387119354313
 10
20.0
 20
1107.0
 10
20.0
 20
1118.0
 10
20.0
 20
1118.0
 10
20.0768588783870783
 20
1118.7803612880645687
 10
20.3044818699548522
 20
1119.5307337294602803
 10
20.6741215507898168
 20
1120.2222809320783199
 10
21.1715728752538084
 20
1120.8284271247462129
 10
21.7777190679215913
 20
1121.3258784492102222
 10
22.469266270539638
 20
1121.6955181300452296
 10
23.2196387119354846
 20
1121.9231411216128436
 10
24.0
 20
1122.0
 97
0
 75
0
 76
1
 47
0.0
 98
0
  0
LWPOLYLINE
  5
35
330
1D
100
AcDbEntity
  8
0
  6
ByLayer
420
3447003
 48
1.0
 60
0
 67
0
370
-1
100
AcDbPolyline
 90
41
 70
1
 43
0.0
 38
0.0
 39
0.0
210
0.0
220
0.0
230
1.0
 10
24.0
 20
1122.0
 40
0.0
 41
0.0
 42
0.0
 10
65.3333282470703125
 20
1122.0
 40
0.0
 41
0.0
 42
0.0
 10
65.3333282470703125
 20
1122.0
 40
0.0
 41
0.0
 42
0.0
 10
66.1136895351348244
 20
1121.9231411216128436
 40
0.0
 41
0.0
 42
0.0
 10
66.8640619765306781
 20
1121.6955181300452296
 40
0.0
 41
0.0
 42
0.0
 10
67.5556091791487177
 20
1121.3258784492102222
 40
0.0
 41
0.0
 42
0.0
 10
68.161755371816497
 20
1120.8284271247462129
 40
0.0
 41
0.0
 42
0.0
 10
68.6592066962804921
 20
1120.2222809320783199
 40
0.0
 41
0.0
 42
0.0
 10
69.0288463771154568
 20
1119.5307337294602803
 40
0.0
 41
0.0
 42
0.0
 10
69.2564693686832413
 20
1118.7803612880645687
 40
0.0
 41
0.0
 42
0.0
 10
69.3333282470703125
 20
1118.0
 40
0.0
 41
0.0
 42
0.0
 10
69.3333282470703125
 20
1107.0
 40
0.0
 41
0.0
 42
0.0
 10
69.3333282470703125
 20
1107.0
 40
0.0
 41
0.0
 42
0.0
 10
69.2564693686832413
 20
1106.2196387119354313
 40
0.0
 41
0.0
 42
0.0
 10
69.0288463771154568
 20
1105.4692662705397197
 40
0.0
 41
0.0
 42
0.0
 10
68.6592066962804921
 20
1104.7777190679216801
 40
0.0
 41
0.0
 42
0.0
 10
68.161755371816497
 20
1104.1715728752537871
 40
0.0
 41
0.0
 42
0.0
 10
67.5556091791487177
 20
1103.6741215507897778
 40
0.0
 41
0.0
 42
0.0
 10
66.8640619765306781
 20
1103.3044818699547704
 40
0.0
 41
0.0
 42
0.0
 10
66.1136895351348244
 20
1103.0768588783871564
 40
0.0
 41
0.0
 42
0.0
 10
65.3333282470703125
 20
1103.0
 40
0.0
 41
0.0
 42
0.0
 10
24.0
 20
1103.0
 40
0.0
 41
0.0
 42
0.0
 10
24.0
 20
1103.0
 40
0.0
 41
0.0
 42
0.0
 10
23.2196387119354881
 20
1103.0768588783871564
 40
0.0
 41
0.0
 42
0.0
 10
22.4692662705396415
 20
1103.3044818699547704
 40
0.0
 41
0.0
 42
0.0
 10
21.7777190679215913
 20
1103.6741215507897778
 40
0.0
 41
0.0
 42
0.0
 10
21.1715728752538084
 20
1104.1715728752537871
 40
0.0
 41
0.0
 42
0.0
 10
20.6741215507898204
 20
1104.7777190679216801
 40
0.0
 41
0.0
 42
0.0
 10
20.3044818699548522
 20
1105.4692662705397197
 40
0.0
 41
0.0
 42
0.0
 10
20.0768588783870783
 20
1106.2196387119354313
 40
0.0
 41
0.0
 42
0.0
 10
20.0
 20
1107.0
 40
0.0
 41
0.0
 42
0.0
 10
20.0
 20
1118.0
 40
0.0
 41
0.0
 42
0.0
 10
20.0
 20
1118.0
 40
0.0
 41
0.0
 42
0.0
 10
20.0768588783870783
 20
1118.7803612880645687
 40
0.0
 41
0.0
 42
0.0
 10
20.3044818699548522
 20
1119.5307337294602803
 40
0.0
 41
0.0
 42
0.0
 10
20.6741215507898168
 20
1120.2222809320783199
 40
0.0
 41
0.0
 42
0.0
 10
21.1715728752538084
 20
1120.8284271247462129
 40
0.0
 41
0.0
 42
0.0
 10
21.7777190679215913
 20
1121.3258784492102222
 40
0.0
 41
0.0
 42
0.0
 10
22.469266270539638
 20
1121.6955181300452296
 40
0.0
 41
0.0
 42
0.0
 10
23.2196387119354846
 20
1121.9231411216128436
 40
0.0
 41
0.0
 42
0.0
 10
24.0
 20
1122.0
 40
0.0
 41
0.0
 42
0.0
  0
TEXT
  5
36
330
1D
100
AcDbEntity
  8
0
  6
ByLayer
420
16777215
 48
1.0
 60
0
 67
0
370
-1
100
AcDbText
 39
0.0
 10
20.0
 20
1109.5
 30
0.0
 40
12.0
  1
NOTE
 50
0.0
 41
1.0
 51
0.0
  7
Standard
 71
0
 72
0
 11
0.0
 21
0.0
 31
0.0
210
0.0
220
0.0
230
1.0
100
AcDbText
 73
0
  0
TEXT
  5
37
330
1D
100
AcDbEntity
  8
0
  6
ByLayer
420
0
 48
1.0
 60
0
 67
0
370
-1
100
AcDbText
 39
0.0
 10
20.0
 20
1063.3199999999999363
 30
0.0
 40
18.7199999999999989
  1
counter() – Numbered List
 50
0.0
 41
1.0
 51
0.0
  7
Standard
 71
0
 72
0
 11
0.0
 21
0.0
 31
0.0
210
0.0
220
0.0
230
1.0
100
AcDbText
 73
0
  0
TEXT
  5
38
330
1D
100
AcDbEntity
  8
0
  6
ByLayer
420
0
 48
1.0
 60
0
 67
0
370
-1
100
AcDbText
 39
0.0
 10
37.7999992370605469
 20
1028.0
 30
0.0
 40
16.0
  1
First item
 50
0.0
 41
1.0
 51
0.0
  7
Standard
 71
0
 72
0
 11
0.0
 21
0.0
 31
0.0
210
0.0
220
0.0
230
1.0
100
AcDbText
 73
0
  0
TEXT
  5
39
330
1D
100
AcDbEntity
  8
0
  6
ByLayer
420
2899536
 48
1.0
 60
0
 67
0
370
-1
100
AcDbText
 39
0.0
 10
20.0
 20
1028.0
 30
0.0
 40
16.0
  1
1.
 50
0.0
 41
1.0
 51
0.0
  7
Standard
 71
0
 72
0
 11
0.0
 21
0.0
 31
0.0
210
0.0
220
0.0
230
1.0
100
AcDbText
 73
0
  0
TEXT
  5
3A
330
1D
100
AcDbEntity
  8
0
  6
ByLayer
420
0
 48
1.0
 60
0
 67
0
370
-1
100
AcDbText
 39
0.0
 10
37.7999992370605469
 20
1006.0
 30
0.0
 40
16.0
  1
Second item
 50
0.0
 41
1.0
 51
0.0
  7
Standard
 71
0
 72
0
 11
0.0
 21
0.0
 31
0.0
210
0.0
220
0.0
230
1.0
100
AcDbText
 73
0
  0
TEXT
  5
3B
330
1D
100
AcDbEntity
  8
0
  6
ByLayer
420
2899536
 48
1.0
 60
0
 67
0
370
-1
100
AcDbText
 39
0.0
 10
20.0
 20
1006.0
 30
0.0
 40
16.0
  1
2.
 50
0.0
 41
1.0
 51
0.0
  7
Standard
 71
0
 72
0
 11
0.0
 21
0.0
 31
0.0
210
0.0
220
0.0
230
1.0
100
AcDbText
 73
0
  0
TEXT
  5
3C
330
1D
100
AcDbEntity
  8
0
  6
ByLayer
420
0
 48
1.0
 60
0
 67
0
370
-1
100
AcDbText
 39
0.0
 10
37.7999992370605469
 20
984.0
 30
0.0
 40
16.0
  1
Third item
 50
0.0
 41
1.0
 51
0.0
  7
Standard
 71
0
 72
0
 11
0.0
 21
0.0
 31
0.0
210
0.0
220
0.0
230
1.0
100
AcDbText
 73
0
  0
TEXT
  5
3D
330
1D
100
AcDbEntity
  8
0
  6
ByLayer
420
2899536
 48
1.0
 60
0
 67
0
370
-1
100
AcDbText
 39
0.0
 10
20.0
 20
984.0
 30
0.0
 40
16.0
  1
3.
 50
0.0
 41
1.0
 51
0.0
  7
Standard
 71
0
 72
0
 11
0.0
 21
0.0
 31
0.0
210
0.0
220
0.0
230
1.0
100
AcDbText
 73
0
  0
TEXT
  5
3E
330
1D
100
AcDbEntity
  8
0
  6
ByLayer
420
0
 48
1.0
 60
0
 67
0
370
-1
100
AcDbText
 39
0.0
 10
37.7999992370605469
 20
962.0
 30
0.0
 40
16.0
  1
Fourth item
 50
0.0
 41
1.0
 51
0.0
  7
Standard
 71
0
 72
0
 11
0.0
 21
0.0
 31
0.0
210
0.0
220
0.0
230
1.0
100
AcDbText
 73
0
  0
TEXT
  5
3F
330
1D
100
AcDbEntity
  8
0
  6
ByLayer
420
2899536
 48
1.0
 60
0
 67
0
370
-1
100
AcDbText
 39
0.0
 10
20.0
 20
962.0
 30
0.0
 40
16.0
  1
4.
 50
0.0
 41
1.0
 51
0.0
  7
Standard
 71
0
 72
0
 11
0.0
 21
0.0
 31
0.0
210
0.0
220
0.0
230
1.0
100
AcDbText
 73
0
  0
TEXT
  5
40
330
1D
100
AcDbEntity
  8
0
  6
ByLayer
420
0
 48
1.0
 60
0
 67
0
370
-1
100
AcDbText
 39
0.0
 10
20.0
 20
917.32000000000005
 30
0.0
 40
18.7199999999999989
  1
counters() – Nested Numbering
 50
0.0
 41
1.0
 51
0.0
  7
Standard
 71
0
 72
0
 11
0.0
 21
0.0
 31
0.0
210
0.0
220
0.0
230
1.0
100
AcDbText
 73
0
  0
TEXT
  5
41
330
1D
100
AcDbEntity
  8
0
  6
ByLayer
420
0
 48
1.0
 60
0
 67
0
370
-1
100
AcDbText
 39
0.0
 10
33.3499984741210938
 20
882.0
 30
0.0
 40
16.0
  1
Introduction
 50
0.0
 41
1.0
 51
0.0
  7
Standard
 71
0
 72
0
 11
0.0
 21
0.0
 31
0.0
210
0.0
220
0.0
230
1.0
100
AcDbText
 73
0
  0
TEXT
  5
42
330
1D
100
AcDbEntity
  8
0
  6
ByLayer
420
9323693
 48
1.0
 60
0
 67
0
370
-1
100
AcDbText
 39
0.0
 10
20.0
 20
882.0
 30
0.0
 40
16.0
  1
1
 50
0.0
 41
1.0
 51
0.0
  7
Standard
 71
0
 72
0
 11
0.0
 21
0.0
 31
0.0
210
0.0
220
0.0
230
1.0
100
AcDbText
 73
0
  0
TEXT
  5
43
330
1D
100
AcDbEntity
  8
0
  6
ByLayer
420
0
 48
1.0
 60
0
 67
0
370
-1
100
AcDbText
 39
0.0
 10
70.6999969482421875
 20
864.0
 30
0.0
 40
16.0
  1
Background
 50
0.0
 41
1.0
 51
0.0
  7
Standard
 71
0
 72
0
 11
0.0
 21
0.0
 31
0.0
210
0.0
220
0.0
230
1.0
100
AcDbText
 73
0
  0
TEXT
  5
44
330
1D
100
AcDbEntity
  8
0
  6
ByLayer
420
9323693
 48
1.0
 60
0
 67
0
370
-1
100
AcDbText
 39
0.0
 10
44.0
 20
864.0
 30
0.0
 40
16.0
  1
1.1
 50
0.0
 41
1.0
 51
0.0
  7
Standard
 71
0
 72
0
 11
0.0
 21
0.0
 31
0.0
210
0.0
220
0.0
230
1.0
100
AcDbText
 73
0
  0
TEXT
  5
45
330
1D
100
AcDbEntity
  8
0
  6
ByLayer
420
0
 48
1.0
 60
0
 67
0
370
-1
100
AcDbText
 39
0.0
 10
70.6999969482421875
 20
842.0
 30
0.0
 40
16.0
  1
Motivation
 50
0.0
 41
1.0
 51
0.0
  7
Standard
 71
0
 72
0
 11
0.0
 21
0.0
 31
0.0
210
0.0
220
0.0
230
1.0
100
AcDbText
 73
0
  0
TEXT
  5
46
330
1D
100
AcDbEntity
  8
0
  6
ByLayer
420
9323693
 48
1.0
 60
0
 67
0
370
-1
100
AcDbText
 39
0.0
 10
44.0
 20
842.0
 30
0.0
 40
16.0
  1
1.2
 50
0.0
 41
1.0
 51
0.0
  7
Standard
 71
0
 72
0
 11
0.0
 21
0.0
 31
0.0
210
0.0
220
0.0
230
1.0
100
AcDbText
 73
0
  0
TEXT
  5
47
330
1D
100
AcDbEntity
  8
0
  6
ByLayer
420
0
 48
1.0
 60
0
 67
0
370
-1
100
AcDbText
 39
0.0
 10
33.3499984741210938
 20
820.0
 30
0.0
 40
16.0
  1
Methods
 50
0.0
 41
1.0
 51
0.0
  7
Standard
 71
0
 72
0
 11
0.0
 21
0.0
 31
0.0
210
0.0
220
0.0
230
1.0
100
AcDbText
 73
0
  0
TEXT
  5
48
330
1D
100
AcDbEntity
  8
0
  6
ByLayer
420
9323693
 48
1.0
 60
0
 67
0
370
-1
100
AcDbText
 39
0.0
 10
20.0
 20
820.0
 30
0.0
 40
16.0
  1
2
 50
0.0
 41
1.0
 51
0.0
  7
Standard
 71
0
 72
0
 11
0.0
 21
0.0
 31
0.0
210
0.0
220
0.0
230
1.0
100
AcDbText
 73
0
  0
TEXT
  5
49
330
1D
100
AcDbEntity
  8
0
  6
ByLayer
420
0
 48
1.0
 60
0
 67
0
370
-1
100
AcDbText
 39
0.0
 10
70.6999969482421875
 20
802.0
 30
0.0
 40
16.0
  1
Data Collection
 50
0.0
 41
1.0
 51
0.0
  7
Standard
 71
0
 72
0
 11
0.0
 21
0.0
 31
0.0
210
0.0
220
0.0
230
1.0
100
AcDbText
 73
0
  0
TEXT
  5
4A
330
1D
100
AcDbEntity
  8
0
  6
ByLayer
420
9323693
 48
1.0
 60
0
 67
0
370
-1
100
AcDbText
 39
0.0
 10
44.0
 20
802.0
 30
0.0
 40
16.0
  1
2.1
 50
0.0
 41
1.0
 51
0.0
  7
Standard
 71
0
 72
0
 11
0.0
 21
0.0
 31
0.0
210
0.0
220
0.0
230
1.0
100
AcDbText
 73
0
  0
TEXT
  5
4B
330
1D
100
AcDbEntity
  8
0
  6
ByLayer
420
0
 48
1.0
 60
0
 67
0
370
-1
100
AcDbText
 39
0.0
 10
70.6999969482421875
 20
780.0
 30
0.0
 40
16.0
  1
Analysis
 50
0.0
 41
1.0
 51
0.0
  7
Standard
 71
0
 72
0
 11
0.0
 21
0.0
 31
0.0
210
0.0
220
0.0
230
1.0
100
AcDbText
 73
0
  0
TEXT
  5
4C
330
1D
100
AcDbEntity
  8
0
  6
ByLayer
420
9323693
 48
1.0
 60
0
 67
0
370
-1
100
AcDbText
 39
0.0
 10
44.0
 20
780.0
 30
0.0
 40
16.0
  1
2.2
 50
0.0
 41
1.0
 51
0.0
  7
Standard
 71
0
 72
0
 11
0.0
 21
0.0
 31
0.0
210
0.0
220
0.0
230
1.0
100
AcDbText
 73
0
  0
TEXT
  5
4D
330
1D
100
AcDbEntity
  8
0
  6
ByLayer
420
0
 48
1.0
 60
0
 67
0
370
-1
100
AcDbText
 39
0.0
 10
70.6999969482421875
 20
758.0
 30
0.0
 40
16.0
  1
Validation
 50
0.0
 41
1.0
 51
0.0
  7
Standard
 71
0
 72
0
 11
0.0
 21
0.0
 31
0.0
210
0.0
220
0.0
230
1.0
100
AcDbText
 73
0
  0
TEXT
  5
4E
330
1D
100
AcDbEntity
  8
0
  6
ByLayer
420
9323693
 48
1.0
 60
0
 67
0
370
-1
100
AcDbText
 39
0.0
 10
44.0
 20
758.0
 30
0.0
 40
16.0
  1
2.3
 50
0.0
 41
1.0
 51
0.0
  7
Standard
 71
0
 72
0
 11
0.0
 21
0.0
 31
0.0
210
0.0
220
0.0
230
1.0
100
AcDbText
 73
0
  0
TEXT
  5
4F
330
1D
100
AcDbEntity
  8
0
  6
ByLayer
420
0
 48
1.0
 60
0
 67
0
370
-1
100
AcDbText
 39
0.0
 10
33.3499984741210938
 20
736.0
 30
0.0
 40
16.0
  1
Results
 50
0.0
 41
1.0
 51
0.0
  7
Standard
 71
0
 72
0
 11
0.0
 21
0.0
 31
0.0
210
0.0
220
0.0
230
1.0
100
AcDbText
 73
0
  0
TEXT
  5
50
330
1D
100
AcDbEntity
  8
0
  6
ByLayer
420
9323693
 48
1.0
 60
0
 67
0
370
-1
100
AcDbText
 39
0.0
 10
20.0
 20
736.0
 30
0.0
 40
16.0
  1
3
 50
0.0
 41
1.0
 51
0.0
  7
Standard
 71
0
 72
0
 11
0.0
 21
0.0
 31
0.0
210
0.0
220
0.0
230
1.0
100
AcDbText
 73
0
  0
TEXT
  5
51
330
1D
100
AcDbEntity
  8
0
  6
ByLayer
420
0
 48
1.0
 60
0
 67
0
370
-1
100
AcDbText
 39
0.0
 10
20.0
 20
691.32000000000005
 30
0.0
 40
18.7199999999999989
  1
open-quote / close-quote
 50
0.0
 41
1.0
 51
0.0
  7
Standard
 71
0
 72
0
 11
0.0
 21
0.0
 31
0.0
210
0.0
220
0.0
230
1.0
100
AcDbText
 73
0
  0
TEXT
  5
52
330
1D
100
AcDbEntity
  8
0
  6
ByLayer
420
0
 48
1.0
 60
0
 67
0
370
-1
100
AcDbText
 39
0.0
 10
30.6833324432373047
 20
653.0
 30
0.0
 40
16.0
  1
This text has fancy quote marks
 50
0.0
 41
1.0
 51
0.0
  7
Standard
 71
0
 72
0
 11
0.0
 21
0.0
 31
0.0
210
0.0
220
0.0
230
1.0
100
AcDbText
 73
0
  0
TEXT
  5
53
330
1D
100
AcDbEntity
  8
0
  6
ByLayer
420
15105570
 48
1.0
 60
0
 67
0
370
-1
100
AcDbText
 39
0.0
 10
20.0
 20
653.2000000000000455
 30
0.0
 40
19.1999999999999993
  1
«
 50
0.0
 41
1.0
 51
0.0
  7
Standard
 71
0
 72
0
 11
0.0
 21
0.0
 31
0.0
210
0.0
220
0.0
230
1.0
100
AcDbText
 73
0
  0
TEXT
  5
54
330
1D
100
AcDbEntity
  8
0
  6
ByLayer
420
15105570
 48
1.0
 60
0
 67
0
370
-1
100
AcDbText
 39
0.0
 10
256.616668701171875
 20
653.2000000000000455
 30
0.0
 40
19.1999999999999993
  1
»
 50
0.0
 41
1.0
 51
0.0
  7
Standard
 71
0
 72
0
 11
0.0
 21
0.0
 31
0.0
210
0.0
220
0.0
230
1.0
100
AcDbText
 73
0
  0
TEXT
  5
55
330
1D
100
AcDbEntity
  8
0
  6
ByLayer
420
0
 48
1.0
 60
0
 67
0
370
-1
100
AcDbText
 39
0.0
 10
20.0
 20
607.32000000000005
 30
0.0
 40
18.7199999999999989
  1
attr() Function
 50
0.0
 41
1.0
 51
0.0
  7
Standard
 71
0
 72
0
 11
0.0
 21
0.0
 31
0.0
210
0.0
220
0.0
230
1.0
100
AcDbText
 73
0
  0
TEXT
  5
56
330
1D
100
AcDbEntity
  8
0
  6
ByLayer
420
0
 48
1.0
 60
0
 67
0
370
-1
100
AcDbText
 39
0.0
 10
20.0
 20
580.0
 30
0.0
 40
16.0
  1
This shows an attribute value
 50
0.0
 41
1.0
 51
0.0
  7
Standard
 71
0
 72
0
 11
0.0
 21
0.0
 31
0.0
210
0.0
220
0.0
230
1.0
100
AcDbText
 73
0
  0
TEXT
  5
57
330
1D
100
AcDbEntity
  8
0
  6
ByLayer
420
8359053
 48
1.0
 60
0
 67
0
370
-1
100
AcDbText
 39
0.0
 10
227.25
 20
580.0
 30
0.0
 40
16.0
  1
[important]
 50
0.0
 41
1.0
 51
0.0
  7
Standard
 71
0
 72
0
 11
0.0
 21
0.0
 31
0.0
210
0.0
220
0.0
230
1.0
100
AcDbText
 73
0
  0
TEXT
  5
58
330
1D
100
AcDbEntity
  8
0
  6
ByLayer
420
0
 48
1.0
 60
0
 67
0
370
-1
100
AcDbText
 39
0.0
 10
20.0
 20
517.32000000000005
 30
0.0
 40
18.7199999999999989
  1
Decorative Pseudo-Elements
 50
0.0
 41
1.0
 51
0.0
  7
Standard
 71
0
 72
0
 11
0.0
 21
0.0
 31
0.0
210
0.0
220
0.0
230
1.0
100
AcDbText
 73
0
  0
HATCH
  5
59
330
1D
100
AcDbEntity
  8
0
  6
ByLayer
420
16382457
 48
1.0
 60
0
 67
0
370
-1
100
AcDbHatch
 30
0.0
210
0.0
220
0.0
230
1.0
  2
SOLID
 70
1
 71
0
 91
1
 92
2
 72
0
 73
1
 93
4
 10
20.0
 20
501.0
 10
1260.0
 20
501.0
 10
1260.0
 20
439.0
 10
20.0
 20
439.0
 97
0
 75
0
 76
1
 47
0.0
 98
0
  0
LWPOLYLINE
  5
5A
330
1D
100
AcDbEntity
  8
0
  6
ByLayer
420
14540253
 48
1.0
 60
0
 67
0
370
-1
100
AcDbPolyline
 90
4
 70
1
 43
0.0
 38
0.0
 39
0.0
210
0.0
220
0.0
230
1.0
 10
20.0
 20
501.0
 40
0.0
 41
0.0
 42
0.0
 10
1260.0
 20
501.0
 40
0.0
 41
0.0
 42
0.0
 10
1260.0
 20
439.0
 40
0.0
 41
0.0
 42
0.0
 10
20.0
 20
439.0
 40
0.0
 41
0.0
 42
0.0
  0
TEXT
  5
5B
330
1D
100
AcDbEntity
  8
0
  6
ByLayer
420
0
 48
1.0
 60
0
 67
0
370
-1
100
AcDbText
 39
0.0
 10
41.0
 20
465.0
 30
0.0
 40
16.0
  1
A card with a decorative top bar and bottom line
 50
0.0
 41
1.0
 51
0.0
  7
Standard
 71
0
 72
0
 11
0.0
 21
0.0
 31
0.0
210
0.0
220
0.0
230
1.0
100
AcDbText
 73
0
  0
HATCH
  5
5C
330
1D
100
AcDbEntity
  8
0
  6
ByLayer
420
15158332
 48
1.0
 60
0
 67
0
370
-1
100
AcDbHatch
 30
0.0
210
0.0
220
0.0
230
1.0
  2
SOLID
 70
1
 71
0
 91
1
 92
2
 72
0
 73
1
 93
4
 10
41.0
 20
490.0
 10
81.0
 20
490.0
 10
81.0
 20
486.0
 10
41.0
 20
486.0
 97
0
 75
0
 76
1
 47
0.0
 98
0
  0
LWPOLYLINE
  5
5D
330
1D
100
AcDbEntity
  8
0
  6
ByLayer
420
15158332
 48
1.0
 60
0
 67
0
370
-1
100
AcDbPolyline
 90
4
 70
1
 43
0.0
 38
0.0
 39
0.0
210
0.0
220
0.0
230
1.0
 10
41.0
 20
490.0
 40
0.0
 41
0.0
 42
0.0
 10
81.0
 20
490.0
 40
0.0
 41
0.0
 42
0.0
 10
81.0
 20
486.0
 40
0.0
 41
0.0
 42
0.0
 10
41.0
 20
486.0
 40
0.0
 41
0.0
 42
0.0
  0
HATCH
  5
5E
330
1D
100
AcDbEntity
  8
0
  6
ByLayer
420
3447003
 48
1.0
 60
0
 67
0
370
-1
100
AcDbHatch
 30
0.0
210
0.0
220
0.0
230
1.0
  2
SOLID
 70
1
 71
0
 91
1
 92
2
 72
0
 73
1
 93
4
 10
41.0
 20
452.0
 10
1239.0
 20
452.0
 10
1239.0
 20
450.0
 10
41.0
 20
450.0
 97
0
 75
0
 76
1
 47
0.0
 98
0
  0
LWPOLYLINE
  5
5F
330
1D
100
AcDbEntity
  8
0
  6
ByLayer
420
3447003
 48
1.0
 60
0
 67
0
370
-1
100
AcDbPolyline
 90
4
 70
1
 43
0.0
 38
0.0
 39
0.0
210
0.0
220
0.0
230
1.0
 10
41.0
 20
452.0
 40
0.0
 41
0.0
 42
0.0
 10
1239.0
 20
452.0
 40
0.0
 41
0.0
 42
0.0
 10
1239.0
 20
450.0
 40
0.0
 41
0.0
 42
0.0
 10
41.0
 20
450.0
 40
0.0
 41
0.0
 42
0.0
  0
TEXT
  5
60
330
1D
100
AcDbEntity
  8
0
  6
ByLayer
420
0
 48
1.0
 60
0
 67
0
370
-1
100
AcDbText
 39
0.0
 10
20.0
 20
399.3199999999999363
 30
0.0
 40
18.7199999999999989
  1
Transformed Element
 50
0.0
 41
1.0
 51
0.0
  7
Standard
 71
0
 72
0
 11
0.0
 21
0.0
 31
0.0
210
0.0
220
0.0
230
1.0
100
AcDbText
 73
0
  0
HATCH
  5
61
330
1D
100
AcDbEntity
  8
0
  6
ByLayer
420
16774093
 48
1.0
 60
0
 67
0
370
-1
100
AcDbHatch
 30
0.0
210
0.0
220
0.0
230
1.0
  2
SOLID
 70
1
 71
0
 91
1
 92
2
 72
0
 73
1
 93
4
 10
41.2727508544921875
 20
370.6044921875
 10
256.2777099609375
 20
359.3365478515625
 10
254.027252197265625
 20
316.3955078125
 10
39.0223045349121094
 20
327.6634521484375
 97
0
 75
0
 76
1
 47
0.0
 98
0
  0
LWPOLYLINE
  5
62
330
1D
100
AcDbEntity
  8
0
  6
ByLayer
420
16761095
 48
1.0
 60
0
 67
0
370
-1
100
AcDbPolyline
 90
4
 70
1
 43
0.0
 38
0.0
 39
0.0
210
0.0
220
0.0
230
1.0
 10
41.2727508544921875
 20
370.6044921875
 40
0.0
 41
0.0
 42
0.0
 10
256.2777099609375
 20
359.3365478515625
 40
0.0
 41
0.0
 42
0.0
 10
254.027252197265625
 20
316.3955078125
 40
0.0
 41
0.0
 42
0.0
 10
39.0223045349121094
 20
327.6634521484375
 40
0.0
 41
0.0
 42
0.0
  0
TEXT
  5
63
330
1D
100
AcDbEntity
  8
0
  6
ByLayer
420
0
 48
1.0
 60
0
 67
0
370
-1
100
AcDbText
 39
0.0
 10
75.0708992979838428
 20
342.2968026511223343
 30
0.0
 40
16.0
  1
Warning: tilted element
 50
-171.8883847225030195
 41
1.0
 51
0.0
  7
Standard
 71
0
 72
0
 11
0.0
 21
0.0
 31
0.0
210
0.0
220
0.0
230
1.0
100
AcDbText
 73
0
  0
TEXT
  5
64
330
1D
100
AcDbEntity
  8
0
  6
ByLayer
420
8741892
 48
1.0
 60
0
 67
0
370
-1
100
AcDbText
 39
0.0
 10
56.8625481627299365
 20
343.2511483542473343
 30
0.0
 40
16.0
  1
?
 50
-171.8810070143019288
 41
1.0
 51
0.0
  7
Standard
 71
0
 72
0
 11
0.0
 21
0.0
 31
0.0
210
0.0
220
0.0
230
1.0
100
AcDbText
 73
0
  0
TEXT
  5
65
330
1D
100
AcDbEntity
  8
0
  6
ByLayer
420
0
 48
1.0
 60
0
 67
0
370
-1
100
AcDbText
 39
0.0
 10
20.0
 20
244.3199999999999363
 30
0.0
 40
18.7199999999999989
  1
Chapter Numbering
 50
0.0
 41
1.0
 51
0.0
  7
Standard
 71
0
 72
0
 11
0.0
 21
0.0
 31
0.0
210
0.0
220
0.0
230
1.0
100
AcDbText
 73
0
  0
TEXT
  5
66
330
1D
100
AcDbEntity
  8
0
  6
ByLayer
420
0
 48
1.0
 60
0
 67
0
370
-1
100
AcDbText
 39
0.0
 10
98.383331298828125
 20
217.25
 30
0.0
 40
15.0
  1
Getting Started
 50
0.0
 41
1.0
 51
0.0
  7
Standard
 71
0
 72
0
 11
0.0
 21
0.0
 31
0.0
210
0.0
220
0.0
230
1.0
100
AcDbText
 73
0
  0
TEXT
  5
67
330
1D
100
AcDbEntity
  8
0
  6
ByLayer
420
1725046
 48
1.0
 60
0
 67
0
370
-1
100
AcDbText
 39
0.0
 10
20.0
 20
217.25
 30
0.0
 40
15.0
  1
Chapter 1:
 50
0.0
 41
1.0
 51
0.0
  7
Standard
 71
0
 72
0
 11
0.0
 21
0.0
 31
0.0
210
0.0
220
0.0
230
1.0
100
AcDbText
 73
0
  0
TEXT
  5
68
330
1D
100
AcDbEntity
  8
0
  6
ByLayer
420
0
 48
1.0
 60
0
 67
0
370
-1
100
AcDbText
 39
0.0
 10
98.383331298828125
 20
191.25
 30
0.0
 40
15.0
  1
Installation Guide
 50
0.0
 41
1.0
 51
0.0
  7
Standard
 71
0
 72
0
 11
0.0
 21
0.0
 31
0.0
210
0.0
220
0.0
230
1.0
100
AcDbText
 73
0
  0
TEXT
  5
69
330
1D
100
AcDbEntity
  8
0
  6
ByLayer
420
1725046
 48
1.0
 60
0
 67
0
370
-1
100
AcDbText
 39
0.0
 10
20.0
 20
191.25
 30
0.0
 40
15.0
  1
Chapter 2:
 50
0.0
 41
1.0
 51
0.0
  7
Standard
 71
0
 72
0
 11
0.0
 21
0.0
 31
0.0
210
0.0
220
0.0
230
1.0
100
AcDbText
 73
0
  0
TEXT
  5
6A
330
1D
100
AcDbEntity
  8
0
  6
ByLayer
420
0
 48
1.0
 60
0
 67
0
370
-1
100
AcDbText
 39
0.0
 10
98.383331298828125
 20
165.25
 30
0.0
 40
15.0
  1
Configuration
 50
0.0
 41
1.0
 51
0.0
  7
Standard
 71
0
 72
0
 11
0.0
 21
0.0
 31
0.0
210
0.0
220
0.0
230
1.0
100
AcDbText
 73
0
  0
TEXT
  5
6B
330
1D
100
AcDbEntity
  8
0
  6
ByLayer
420
1725046
 48
1.0
 60
0
 67
0
370
-1
100
AcDbText
 39
0.0
 10
20.0
 20
165.25
 30
0.0
 40
15.0
  1
Chapter 3:
 50
0.0
 41
1.0
 51
0.0
  7
Standard
 71
0
 72
0
 11
0.0
 21
0.0
 31
0.0
210
0.0
220
0.0
230
1.0
100
AcDbText
 73
0
  0
TEXT
  5
6C
330
1D
100
AcDbEntity
  8
0
  6
ByLayer
420
0
 48
1.0
 60
0
 67
0
370
-1
100
AcDbText
 39
0.0
 10
20.0
 20
120.3199999999999363
 30
0.0
 40
18.7199999999999989
  1
Both ::before & ::after
 50
0.0
 41
1.0
 51
0.0
  7
Standard
 71
0
 72
0
 11
0.0
 21
0.0
 31
0.0
210
0.0
220
0.0
230
1.0
100
AcDbText
 73
0
  0
HATCH
  5
6D
330
1D
100
AcDbEntity
  8
0
  6
ByLayer
420
15397624
 48
1.0
 60
0
 67
0
370
-1
100
AcDbHatch
 30
0.0
210
0.0
220
0.0
230
1.0
  2
SOLID
 70
1
 71
0
 91
1
 92
2
 72
0
 73
1
 93
4
 10
20.0
 20
102.0
 10
223.0500030517578125
 20
102.0
 10
223.0500030517578125
 20
67.0
 10
20.0
 20
67.0
 97
0
 75
0
 76
1
 47
0.0
 98
0
  0
LWPOLYLINE
  5
6E
330
1D
100
AcDbEntity
  8
0
  6
ByLayer
420
11458289
 48
1.0
 60
0
 67
0
370
-1
100
AcDbPolyline
 90
4
 70
1
 43
0.0
 38
0.0
 39
0.0
210
0.0
220
0.0
230
1.0
 10
20.0
 20
102.0
 40
0.0
 41
0.0
 42
0.0
 10
223.0500030517578125
 20
102.0
 40
0.0
 41
0.0
 42
0.0
 10
223.0500030517578125
 20
67.0
 40
0.0
 41
0.0
 42
0.0
 10
20.0
 20
67.0
 40
0.0
 41
0.0
 42
0.0
  0
TEXT
  5
6F
330
1D
100
AcDbEntity
  8
0
  6
ByLayer
420
0
 48
1.0
 60
0
 67
0
370
-1
100
AcDbText
 39
0.0
 10
51.2333335876464844
 20
79.5
 30
0.0
 40
16.0
  1
Surrounded content
 50
0.0
 41
1.0
 51
0.0
  7
Standard
 71
0
 72
0
 11
0.0
 21
0.0
 31
0.0
210
0.0
220
0.0
230
1.0
100
AcDbText
 73
0
  0
TEXT
  5
70
330
1D
100
AcDbEntity
  8
0
  6
ByLayer
420
2719929
 48
1.0
 60
0
 67
0
370
-1
100
AcDbText
 39
0.0
 10
33.0
 20
79.5
 30
0.0
 40
16.0
  1
?
 50
0.0
 41
1.0
 51
0.0
  7
Standard
 71
0
 72
0
 11
0.0
 21
0.0
 31
0.0
210
0.0
220
0.0
230
1.0
100
AcDbText
 73
0
  0
TEXT
  5
71
330
1D
100
AcDbEntity
  8
0
  6
ByLayer
420
2719929
 48
1.0
 60
0
 67
0
370
-1
100
AcDbText
 39
0.0
 10
191.8166656494140625
 20
79.5
 30
0.0
 40
16.0
  1
?
 50
0.0
 41
1.0
 51
0.0
  7
Standard
 71
0
 72
0
 11
0.0
 21
0.0
 31
0.0
210
0.0
220
0.0
230
1.0
100
AcDbText
 73
0
  0
HATCH
  5
72
330
1D
100
AcDbEntity
  8
0
  6
ByLayer
420
15397624
 48
1.0
 60
0
 67
0
370
-1
100
AcDbHatch
 30
0.0
210
0.0
220
0.0
230
1.0
  2
SOLID
 70
1
 71
0
 91
1
 92
2
 72
0
 73
1
 93
4
 10
20.0
 20
59.0
 10
258.616668701171875
 20
59.0
 10
258.616668701171875
 20
24.0
 10
20.0
 20
24.0
 97
0
 75
0
 76
1
 47
0.0
 98
0
  0
LWPOLYLINE
  5
73
330
1D
100
AcDbEntity
  8
0
  6
ByLayer
420
11458289
 48
1.0
 60
0
 67
0
370
-1
100
AcDbPolyline
 90
4
 70
1
 43
0.0
 38
0.0
 39
0.0
210
0.0
220
0.0
230
1.0
 10
20.0
 20
59.0
 40
0.0
 41
0.0
 42
0.0
 10
258.616668701171875
 20
59.0
 40
0.0
 41
0.0
 42
0.0
 10
258.616668701171875
 20
24.0
 40
0.0
 41
0.0
 42
0.0
 10
20.0
 20
24.0
 40
0.0
 41
0.0
 42
0.0
  0
TEXT
  5
74
330
1D
100
AcDbEntity
  8
0
  6
ByLayer
420
0
 48
1.0
 60
0
 67
0
370
-1
100
AcDbText
 39
0.0
 10
51.2333335876464844
 20
36.5
 30
0.0
 40
16.0
  1
Another surrounded item
 50
0.0
 41
1.0
 51
0.0
  7
Standard
 71
0
 72
0
 11
0.0
 21
0.0
 31
0.0
210
0.0
220
0.0
230
1.0
100
AcDbText
 73
0
  0
TEXT
  5
75
330
1D
100
AcDbEntity
  8
0
  6
ByLayer
420
2719929
 48
1.0
 60
0
 67
0
370
-1
100
AcDbText
 39
0.0
 10
33.0
 20
36.5
 30
0.0
 40
16.0
  1
?
 50
0.0
 41
1.0
 51
0.0
  7
Standard
 71
0
 72
0
 11
0.0
 21
0.0
 31
0.0
210
0.0
220
0.0
230
1.0
100
AcDbText
 73
0
  0
TEXT
  5
76
330
1D
100
AcDbEntity
  8
0
  6
ByLayer
420
2719929
 48
1.0
 60
0
 67
0
370
-1
100
AcDbText
 39
0.0
 10
227.383331298828125
 20
36.5
 30
0.0
 40
16.0
  1
?
 50
0.0
 41
1.0
 51
0.0
  7
Standard
 71
0
 72
0
 11
0.0
 21
0.0
 31
0.0
210
0.0
220
0.0
230
1.0
100
AcDbText
 73
0
  0
ENDSEC
  0
SECTION
  2
OBJECTS
  0
DICTIONARY
  5
1
330
0
100
AcDbDictionary
280
0
281
0
  3
ACAD_COLOR
350
2
  3
ACAD_GROUP
350
3
  3
ACAD_LAYOUT
350
4
  3
ACAD_MATERIAL
350
5
  3
ACAD_SORTENTS
350
6
  3
ACAD_MLEADERSTYLE
350
7
  3
ACAD_MLINESTYLE
350
8
  3
ACAD_TABLESTYLE
350
9
  3
ACAD_PLOTSETTINGS
350
A
  3
AcDbVariableDictionary
350
B
  3
ACAD_SCALELIST
350
C
  3
ACAD_VISUALSTYLE
350
D
  3
ACAD_FIELDLIST
350
E
  3
ACAD_IMAGE_DICT
350
F
  0
DICTIONARY
  5
2
330
1
100
AcDbDictionary
280
0
281
0
  0
DICTIONARY
  5
3
330
1
100
AcDbDictionary
280
0
281
0
  0
DICTIONARY
  5
4
330
1
100
AcDbDictionary
280
0
281
0
  0
DICTIONARY
  5
5
330
1
100
AcDbDictionary
280
0
281
0
  0
DICTIONARY
  5
6
330
1
100
AcDbDictionary
280
0
281
0
  0
DICTIONARY
  5
7
330
1
100
AcDbDictionary
280
0
281
0
  0
DICTIONARY
  5
8
330
1
100
AcDbDictionary
280
0
281
0
  0
DICTIONARY
  5
9
330
1
100
AcDbDictionary
280
0
281
0
  0
DICTIONARY
  5
A
330
1
100
AcDbDictionary
280
0
281
0
  0
DICTIONARY
  5
B
330
1
100
AcDbDictionary
280
0
281
0
  0
DICTIONARY
  5
C
330
1
100
AcDbDictionary
280
0
281
0
  0
DICTIONARY
  5
D
330
1
100
AcDbDictionary
280
0
281
0
  0
DICTIONARY
  5
E
330
1
100
AcDbDictionary
280
0
281
0
  0
DICTIONARY
  5
F
330
1
100
AcDbDictionary
280
0
281
0
  0
ENDSEC
  0
EOF
