0
SECTION
2
HEADER
9
$ACADVER
1
AC1021
9
$LASTSAVEDBY
1
@tarikjabiri/dxf
9
$HANDSEED
5
64
9
$INSUNITS
70
0
9
$CLAYER
8
0
9
$VIEWCTR
10
590
20
703.75
0
ENDSEC
0
SECTION
2
CLASSES
0
ENDSEC
0
SECTION
2
TABLES
0
TABLE
2
VPORT
5
1
330
0
100
AcDbSymbolTable
70
1
0
VPORT
5
19
330
1
100
AcDbSymbolTableRecord
100
AcDbViewportTableRecord
2
*Active
70
0
10
0
20
0
11
1
21
1
12
590
22
703.75
13
0
23
0
14
10
24
10
15
10
25
10
16
0
26
0
36
1
17
0
27
0
37
0
40
1534.5
41
2
42
50
43
0
44
0
50
0
51
0
71
0
72
100
73
1
74
3
75
0
76
1
77
0
78
0
281
0
65
1
110
0
120
0
130
0
111
1
121
0
131
0
112
0
122
1
132
0
79
0
146
0
348
10020
60
7
61
5
292
1
282
1
141
0
142
0
63
250
421
3358443
0
ENDTAB
0
TABLE
2
LTYPE
5
2
330
0
100
AcDbSymbolTable
70
3
0
LTYPE
5
12
330
2
100
AcDbSymbolTableRecord
100
AcDbLinetypeTableRecord
2
ByBlock
70
0
3

72
65
73
0
40
0
0
LTYPE
5
13
330
2
100
AcDbSymbolTableRecord
100
AcDbLinetypeTableRecord
2
ByLayer
70
0
3

72
65
73
0
40
0
0
LTYPE
5
14
330
2
100
AcDbSymbolTableRecord
100
AcDbLinetypeTableRecord
2
Continuous
70
0
3
Solid line
72
65
73
0
40
0
0
ENDTAB
0
TABLE
2
LAYER
5
3
330
0
100
AcDbSymbolTable
70
1
0
LAYER
5
15
330
3
100
AcDbSymbolTableRecord
100
AcDbLayerTableRecord
2
0
70
0
62
7
6
Continuous
370
0
390
0
0
ENDTAB
0
TABLE
2
STYLE
5
4
330
0
100
AcDbSymbolTable
70
2
0
STYLE
5
16
330
4
100
AcDbSymbolTableRecord
100
AcDbTextStyleTableRecord
2
Standard
70
0
40
0
41
1
50
0
71
0
42
1
3
txt
4

0
STYLE
5
1B
330
4
100
AcDbSymbolTableRecord
100
AcDbTextStyleTableRecord
2
Arial
70
0
40
0
41
1
50
0
71
0
42
1
3
Arial.ttf
4

0
ENDTAB
0
TABLE
2
VIEW
5
5
330
0
100
AcDbSymbolTable
70
0
0
ENDTAB
0
TABLE
2
UCS
5
6
330
0
100
AcDbSymbolTable
70
0
0
ENDTAB
0
TABLE
2
APPID
5
7
330
0
100
AcDbSymbolTable
70
1
0
APPID
5
17
330
7
100
AcDbSymbolTableRecord
100
AcDbRegAppTableRecord
2
ACAD
70
0
0
ENDTAB
0
TABLE
2
DIMSTYLE
5
8
330
0
100
AcDbSymbolTable
70
1
100
AcDbDimStyleTable
0
DIMSTYLE
105
18
330
8
100
AcDbSymbolTableRecord
100
AcDbDimStyleTableRecord
2
Standard
70
0
340
16
0
ENDTAB
0
TABLE
2
BLOCK_RECORD
5
9
330
0
100
AcDbSymbolTable
70
2
0
BLOCK_RECORD
5
C
330
9
100
AcDbSymbolTableRecord
100
AcDbBlockTableRecord
2
*Model_Space
70
0
280
1
281
0
0
BLOCK_RECORD
5
F
330
9
100
AcDbSymbolTableRecord
100
AcDbBlockTableRecord
2
*Paper_Space
70
0
280
1
281
0
0
ENDTAB
0
ENDSEC
0
SECTION
2
BLOCKS
0
BLOCK
5
D
330
C
100
AcDbEntity
8
0
100
AcDbBlockBegin
2
*Model_Space
70
0
10
0
20
0
30
0
3
*Model_Space
1

0
ENDBLK
5
E
100
AcDbEntity
8
0
100
AcDbBlockEnd
0
BLOCK
5
10
330
F
100
AcDbEntity
8
0
100
AcDbBlockBegin
2
*Paper_Space
70
0
10
0
20
0
30
0
3
*Paper_Space
1

0
ENDBLK
5
11
100
AcDbEntity
8
0
100
AcDbBlockEnd
0
ENDSEC
0
SECTION
2
ENTITIES
0
TEXT
5
1A
330
C
100
AcDbEntity
420
0
8
0
100
AcDbText
10
20
20
1371
30
0
40
24
1
Pseudo-Elements & Counters Demo
7
Arial
100
AcDbText
0
TEXT
5
1C
330
C
100
AcDbEntity
420
0
8
0
100
AcDbText
10
20
20
1323.32
30
0
40
18.72
1
Simple ::before
7
Arial
100
AcDbText
0
TEXT
5
1D
330
C
100
AcDbEntity
420
0
8
0
100
AcDbText
10
40.45000076293945
20
1296
30
0
40
16
1
This has an arrow before
7
Arial
100
AcDbText
0
TEXT
5
1E
330
C
100
AcDbEntity
420
15158332
8
0
100
AcDbText
10
20
20
1296
30
0
40
16
1
→
7
Arial
100
AcDbText
0
TEXT
5
1F
330
C
100
AcDbEntity
420
0
8
0
100
AcDbText
10
40.45000076293945
20
1278
30
0
40
16
1
Another item with arrow
7
Arial
100
AcDbText
0
TEXT
5
20
330
C
100
AcDbEntity
420
15158332
8
0
100
AcDbText
10
20
20
1278
30
0
40
16
1
→
7
Arial
100
AcDbText
0
TEXT
5
21
330
C
100
AcDbEntity
420
0
8
0
100
AcDbText
10
20
20
1233.32
30
0
40
18.72
1
Simple ::after
7
Arial
100
AcDbText
0
TEXT
5
22
330
C
100
AcDbEntity
420
0
8
0
100
AcDbText
10
20
20
1203.5
30
0
40
16
1
Task completed
7
Arial
100
AcDbText
0
TEXT
5
23
330
C
100
AcDbEntity
420
2600544
8
0
100
AcDbText
10
131.18333435058594
20
1203.5
30
0
40
16
1
✓
7
Arial
100
AcDbText
0
TEXT
5
24
330
C
100
AcDbEntity
420
0
8
0
100
AcDbText
10
20
20
1182.5
30
0
40
16
1
Another task done
7
Arial
100
AcDbText
0
TEXT
5
25
330
C
100
AcDbEntity
420
2600544
8
0
100
AcDbText
10
149.89999389648438
20
1182.5
30
0
40
16
1
✓
7
Arial
100
AcDbText
0
TEXT
5
26
330
C
100
AcDbEntity
420
0
8
0
100
AcDbText
10
20
20
1137.32
30
0
40
18.72
1
Styled Pseudo-Element
7
Arial
100
AcDbText
0
TEXT
5
27
330
C
100
AcDbEntity
420
0
8
0
100
AcDbText
10
77.33333587646484
20
1110
30
0
40
16
1
This is an important notice
7
Arial
100
AcDbText
0
LWPOLYLINE
5
28
330
C
100
AcDbEntity
420
3447003
8
0
100
AcDbPolyline
90
42
70
0
43
0
38
0
39
0
10
24
20
1122
10
65.33332824707031
20
1122
10
65.33332824707031
20
1122
10
66.11368953513482
20
1121.9231411216128
10
66.86406197653068
20
1121.6955181300452
10
67.55560917914872
20
1121.3258784492102
10
68.1617553718165
20
1120.8284271247462
10
68.65920669628049
20
1120.2222809320783
10
69.02884637711546
20
1119.5307337294603
10
69.25646936868324
20
1118.7803612880646
10
69.33332824707031
20
1118
10
69.33332824707031
20
1107
10
69.33332824707031
20
1107
10
69.25646936868324
20
1106.2196387119354
10
69.02884637711546
20
1105.4692662705397
10
68.65920669628049
20
1104.7777190679217
10
68.1617553718165
20
1104.1715728752538
10
67.55560917914872
20
1103.6741215507898
10
66.86406197653068
20
1103.3044818699548
10
66.11368953513482
20
1103.0768588783872
10
65.33332824707031
20
1103
10
24
20
1103
10
24
20
1103
10
23.219638711935488
20
1103.0768588783872
10
22.46926627053964
20
1103.3044818699548
10
21.77771906792159
20
1103.6741215507898
10
21.17157287525381
20
1104.1715728752538
10
20.67412155078982
20
1104.7777190679217
10
20.304481869954852
20
1105.4692662705397
10
20.07685887838708
20
1106.2196387119354
10
20
20
1107
10
20
20
1118
10
20
20
1118
10
20.07685887838708
20
1118.7803612880646
10
20.304481869954852
20
1119.5307337294603
10
20.674121550789817
20
1120.2222809320783
10
21.17157287525381
20
1120.8284271247462
10
21.77771906792159
20
1121.3258784492102
10
22.469266270539638
20
1121.6955181300452
10
23.219638711935485
20
1121.9231411216128
10
24
20
1122
10
24
20
1122
0
TEXT
5
29
330
C
100
AcDbEntity
420
16777215
8
0
100
AcDbText
10
20
20
1109.5
30
0
40
12
1
NOTE
7
Arial
100
AcDbText
0
TEXT
5
2A
330
C
100
AcDbEntity
420
0
8
0
100
AcDbText
10
20
20
1063.32
30
0
40
18.72
1
counter() – Numbered List
7
Arial
100
AcDbText
0
TEXT
5
2B
330
C
100
AcDbEntity
420
0
8
0
100
AcDbText
10
37.79999923706055
20
1028
30
0
40
16
1
First item
7
Arial
100
AcDbText
0
TEXT
5
2C
330
C
100
AcDbEntity
420
2899536
8
0
100
AcDbText
10
20
20
1028
30
0
40
16
1
1.
7
Arial
100
AcDbText
0
TEXT
5
2D
330
C
100
AcDbEntity
420
0
8
0
100
AcDbText
10
37.79999923706055
20
1006
30
0
40
16
1
Second item
7
Arial
100
AcDbText
0
TEXT
5
2E
330
C
100
AcDbEntity
420
2899536
8
0
100
AcDbText
10
20
20
1006
30
0
40
16
1
2.
7
Arial
100
AcDbText
0
TEXT
5
2F
330
C
100
AcDbEntity
420
0
8
0
100
AcDbText
10
37.79999923706055
20
984
30
0
40
16
1
Third item
7
Arial
100
AcDbText
0
TEXT
5
30
330
C
100
AcDbEntity
420
2899536
8
0
100
AcDbText
10
20
20
984
30
0
40
16
1
3.
7
Arial
100
AcDbText
0
TEXT
5
31
330
C
100
AcDbEntity
420
0
8
0
100
AcDbText
10
37.79999923706055
20
962
30
0
40
16
1
Fourth item
7
Arial
100
AcDbText
0
TEXT
5
32
330
C
100
AcDbEntity
420
2899536
8
0
100
AcDbText
10
20
20
962
30
0
40
16
1
4.
7
Arial
100
AcDbText
0
TEXT
5
33
330
C
100
AcDbEntity
420
0
8
0
100
AcDbText
10
20
20
917.32
30
0
40
18.72
1
counters() – Nested Numbering
7
Arial
100
AcDbText
0
TEXT
5
34
330
C
100
AcDbEntity
420
0
8
0
100
AcDbText
10
33.349998474121094
20
882
30
0
40
16
1
Introduction
7
Arial
100
AcDbText
0
TEXT
5
35
330
C
100
AcDbEntity
420
9323693
8
0
100
AcDbText
10
20
20
882
30
0
40
16
1
1
7
Arial
100
AcDbText
0
TEXT
5
36
330
C
100
AcDbEntity
420
0
8
0
100
AcDbText
10
70.69999694824219
20
864
30
0
40
16
1
Background
7
Arial
100
AcDbText
0
TEXT
5
37
330
C
100
AcDbEntity
420
9323693
8
0
100
AcDbText
10
44
20
864
30
0
40
16
1
1.1
7
Arial
100
AcDbText
0
TEXT
5
38
330
C
100
AcDbEntity
420
0
8
0
100
AcDbText
10
70.69999694824219
20
842
30
0
40
16
1
Motivation
7
Arial
100
AcDbText
0
TEXT
5
39
330
C
100
AcDbEntity
420
9323693
8
0
100
AcDbText
10
44
20
842
30
0
40
16
1
1.2
7
Arial
100
AcDbText
0
TEXT
5
3A
330
C
100
AcDbEntity
420
0
8
0
100
AcDbText
10
33.349998474121094
20
820
30
0
40
16
1
Methods
7
Arial
100
AcDbText
0
TEXT
5
3B
330
C
100
AcDbEntity
420
9323693
8
0
100
AcDbText
10
20
20
820
30
0
40
16
1
2
7
Arial
100
AcDbText
0
TEXT
5
3C
330
C
100
AcDbEntity
420
0
8
0
100
AcDbText
10
70.69999694824219
20
802
30
0
40
16
1
Data Collection
7
Arial
100
AcDbText
0
TEXT
5
3D
330
C
100
AcDbEntity
420
9323693
8
0
100
AcDbText
10
44
20
802
30
0
40
16
1
2.1
7
Arial
100
AcDbText
0
TEXT
5
3E
330
C
100
AcDbEntity
420
0
8
0
100
AcDbText
10
70.69999694824219
20
780
30
0
40
16
1
Analysis
7
Arial
100
AcDbText
0
TEXT
5
3F
330
C
100
AcDbEntity
420
9323693
8
0
100
AcDbText
10
44
20
780
30
0
40
16
1
2.2
7
Arial
100
AcDbText
0
TEXT
5
40
330
C
100
AcDbEntity
420
0
8
0
100
AcDbText
10
70.69999694824219
20
758
30
0
40
16
1
Validation
7
Arial
100
AcDbText
0
TEXT
5
41
330
C
100
AcDbEntity
420
9323693
8
0
100
AcDbText
10
44
20
758
30
0
40
16
1
2.3
7
Arial
100
AcDbText
0
TEXT
5
42
330
C
100
AcDbEntity
420
0
8
0
100
AcDbText
10
33.349998474121094
20
736
30
0
40
16
1
Results
7
Arial
100
AcDbText
0
TEXT
5
43
330
C
100
AcDbEntity
420
9323693
8
0
100
AcDbText
10
20
20
736
30
0
40
16
1
3
7
Arial
100
AcDbText
0
TEXT
5
44
330
C
100
AcDbEntity
420
0
8
0
100
AcDbText
10
20
20
691.32
30
0
40
18.72
1
open-quote / close-quote
7
Arial
100
AcDbText
0
TEXT
5
45
330
C
100
AcDbEntity
420
0
8
0
100
AcDbText
10
30.683332443237305
20
653
30
0
40
16
1
This text has fancy quote marks
7
Arial
100
AcDbText
0
TEXT
5
46
330
C
100
AcDbEntity
420
15105570
8
0
100
AcDbText
10
20
20
653.2
30
0
40
19.2
1
«
7
Arial
100
AcDbText
0
TEXT
5
47
330
C
100
AcDbEntity
420
15105570
8
0
100
AcDbText
10
256.6166687011719
20
653.2
30
0
40
19.2
1
»
7
Arial
100
AcDbText
0
TEXT
5
48
330
C
100
AcDbEntity
420
0
8
0
100
AcDbText
10
20
20
607.32
30
0
40
18.72
1
attr() Function
7
Arial
100
AcDbText
0
TEXT
5
49
330
C
100
AcDbEntity
420
0
8
0
100
AcDbText
10
20
20
580
30
0
40
16
1
This shows an attribute value
7
Arial
100
AcDbText
0
TEXT
5
4A
330
C
100
AcDbEntity
420
8359053
8
0
100
AcDbText
10
227.25
20
580
30
0
40
16
1
[important]
7
Arial
100
AcDbText
0
TEXT
5
4B
330
C
100
AcDbEntity
420
0
8
0
100
AcDbText
10
20
20
517.32
30
0
40
18.72
1
Decorative Pseudo-Elements
7
Arial
100
AcDbText
0
TEXT
5
4C
330
C
100
AcDbEntity
420
0
8
0
100
AcDbText
10
20
20
399.31999999999994
30
0
40
18.72
1
Transformed Element
7
Arial
100
AcDbText
0
TEXT
5
4D
330
C
100
AcDbEntity
420
0
8
0
100
AcDbText
10
20
20
244.31999999999994
30
0
40
18.72
1
Chapter Numbering
7
Arial
100
AcDbText
0
TEXT
5
4E
330
C
100
AcDbEntity
420
0
8
0
100
AcDbText
10
98.38333129882812
20
217.25
30
0
40
15
1
Getting Started
7
Arial
100
AcDbText
0
TEXT
5
4F
330
C
100
AcDbEntity
420
1725046
8
0
100
AcDbText
10
20
20
217.25
30
0
40
15
1
Chapter 1:
7
Arial
100
AcDbText
0
TEXT
5
50
330
C
100
AcDbEntity
420
0
8
0
100
AcDbText
10
98.38333129882812
20
191.25
30
0
40
15
1
Installation Guide
7
Arial
100
AcDbText
0
TEXT
5
51
330
C
100
AcDbEntity
420
1725046
8
0
100
AcDbText
10
20
20
191.25
30
0
40
15
1
Chapter 2:
7
Arial
100
AcDbText
0
TEXT
5
52
330
C
100
AcDbEntity
420
0
8
0
100
AcDbText
10
98.38333129882812
20
165.25
30
0
40
15
1
Configuration
7
Arial
100
AcDbText
0
TEXT
5
53
330
C
100
AcDbEntity
420
1725046
8
0
100
AcDbText
10
20
20
165.25
30
0
40
15
1
Chapter 3:
7
Arial
100
AcDbText
0
TEXT
5
54
330
C
100
AcDbEntity
420
0
8
0
100
AcDbText
10
20
20
120.31999999999994
30
0
40
18.72
1
Both ::before & ::after
7
Arial
100
AcDbText
0
LWPOLYLINE
5
55
330
C
100
AcDbEntity
420
11458289
8
0
100
AcDbPolyline
90
5
70
0
43
0
38
0
39
0
10
20
20
102
10
223.0500030517578
20
102
10
223.0500030517578
20
67
10
20
20
67
10
20
20
102
0
TEXT
5
56
330
C
100
AcDbEntity
420
0
8
0
100
AcDbText
10
51.233333587646484
20
79.5
30
0
40
16
1
Surrounded content
7
Arial
100
AcDbText
0
TEXT
5
57
330
C
100
AcDbEntity
420
2719929
8
0
100
AcDbText
10
33
20
79.5
30
0
40
16
1
▶
7
Arial
100
AcDbText
0
TEXT
5
58
330
C
100
AcDbEntity
420
2719929
8
0
100
AcDbText
10
191.81666564941406
20
79.5
30
0
40
16
1
◀
7
Arial
100
AcDbText
0
LWPOLYLINE
5
59
330
C
100
AcDbEntity
420
11458289
8
0
100
AcDbPolyline
90
5
70
0
43
0
38
0
39
0
10
20
20
59
10
258.6166687011719
20
59
10
258.6166687011719
20
24
10
20
20
24
10
20
20
59
0
TEXT
5
5A
330
C
100
AcDbEntity
420
0
8
0
100
AcDbText
10
51.233333587646484
20
36.5
30
0
40
16
1
Another surrounded item
7
Arial
100
AcDbText
0
TEXT
5
5B
330
C
100
AcDbEntity
420
2719929
8
0
100
AcDbText
10
33
20
36.5
30
0
40
16
1
▶
7
Arial
100
AcDbText
0
TEXT
5
5C
330
C
100
AcDbEntity
420
2719929
8
0
100
AcDbText
10
227.38333129882812
20
36.5
30
0
40
16
1
◀
7
Arial
100
AcDbText
0
LWPOLYLINE
5
5D
330
C
100
AcDbEntity
420
14540253
8
0
100
AcDbPolyline
90
5
70
0
43
0
38
0
39
0
10
20
20
501
10
1260
20
501
10
1260
20
439
10
20
20
439
10
20
20
501
0
TEXT
5
5E
330
C
100
AcDbEntity
420
0
8
0
100
AcDbText
10
41
20
465
30
0
40
16
1
A card with a decorative top bar and bottom line
7
Arial
100
AcDbText
0
LWPOLYLINE
5
5F
330
C
100
AcDbEntity
420
15158332
8
0
100
AcDbPolyline
90
5
70
0
43
0
38
0
39
0
10
41
20
490
10
81
20
490
10
81
20
486
10
41
20
486
10
41
20
490
0
LWPOLYLINE
5
60
330
C
100
AcDbEntity
420
3447003
8
0
100
AcDbPolyline
90
5
70
0
43
0
38
0
39
0
10
41
20
452
10
1239
20
452
10
1239
20
450
10
41
20
450
10
41
20
452
0
LWPOLYLINE
5
61
330
C
100
AcDbEntity
420
16761095
8
0
100
AcDbPolyline
90
5
70
0
43
0
38
0
39
0
10
41.27275085449219
20
370.6044921875
10
256.2777099609375
20
359.3365478515625
10
254.02725219726562
20
316.3955078125
10
39.02230453491211
20
327.6634521484375
10
41.27275085449219
20
370.6044921875
0
TEXT
5
62
330
C
100
AcDbEntity
420
0
8
0
100
AcDbText
10
75.07089929798384
20
342.29680265112233
30
0
40
16
1
Warning: tilted element
50
-3.000018259342397
7
Arial
100
AcDbText
0
TEXT
5
63
330
C
100
AcDbEntity
420
8741892
8
0
100
AcDbText
10
56.86254816272994
20
343.25114835424733
30
0
40
16
1
⚠
50
-2.9998894940430367
7
Arial
100
AcDbText
0
ENDSEC
0
SECTION
2
OBJECTS
0
DICTIONARY
5
A
330
0
100
AcDbDictionary
281
1
3
ACAD_GROUP
350
B
0
DICTIONARY
5
B
330
A
100
AcDbDictionary
281
0
0
ENDSEC
0
EOF