0
SECTION
2
HEADER
9
$ACADVER
1
AC1021
9
$LASTSAVEDBY
1
@tarikjabiri/dxf
9
$HANDSEED
5
41
9
$INSUNITS
70
0
9
$CLAYER
8
0
9
$VIEWCTR
10
195.13333129882812
20
594.5
0
ENDSEC
0
SECTION
2
CLASSES
0
ENDSEC
0
SECTION
2
TABLES
0
TABLE
2
VPORT
5
1
330
0
100
AcDbSymbolTable
70
1
0
VPORT
5
19
330
1
100
AcDbSymbolTableRecord
100
AcDbViewportTableRecord
2
*Active
70
0
10
0
20
0
11
1
21
1
12
195.13333129882812
22
594.5
13
0
23
0
14
10
24
10
15
10
25
10
16
0
26
0
36
1
17
0
27
0
37
0
40
1235
41
2
42
50
43
0
44
0
50
0
51
0
71
0
72
100
73
1
74
3
75
0
76
1
77
0
78
0
281
0
65
1
110
0
120
0
130
0
111
1
121
0
131
0
112
0
122
1
132
0
79
0
146
0
348
10020
60
7
61
5
292
1
282
1
141
0
142
0
63
250
421
3358443
0
ENDTAB
0
TABLE
2
LTYPE
5
2
330
0
100
AcDbSymbolTable
70
3
0
LTYPE
5
12
330
2
100
AcDbSymbolTableRecord
100
AcDbLinetypeTableRecord
2
ByBlock
70
0
3

72
65
73
0
40
0
0
LTYPE
5
13
330
2
100
AcDbSymbolTableRecord
100
AcDbLinetypeTableRecord
2
ByLayer
70
0
3

72
65
73
0
40
0
0
LTYPE
5
14
330
2
100
AcDbSymbolTableRecord
100
AcDbLinetypeTableRecord
2
Continuous
70
0
3
Solid line
72
65
73
0
40
0
0
ENDTAB
0
TABLE
2
LAYER
5
3
330
0
100
AcDbSymbolTable
70
1
0
LAYER
5
15
330
3
100
AcDbSymbolTableRecord
100
AcDbLayerTableRecord
2
0
70
0
62
7
6
Continuous
370
0
390
0
0
ENDTAB
0
TABLE
2
STYLE
5
4
330
0
100
AcDbSymbolTable
70
2
0
STYLE
5
16
330
4
100
AcDbSymbolTableRecord
100
AcDbTextStyleTableRecord
2
Standard
70
0
40
0
41
1
50
0
71
0
42
1
3
txt
4

0
STYLE
5
1B
330
4
100
AcDbSymbolTableRecord
100
AcDbTextStyleTableRecord
2
Arial
70
0
40
0
41
1
50
0
71
0
42
1
3
Arial.ttf
4

0
ENDTAB
0
TABLE
2
VIEW
5
5
330
0
100
AcDbSymbolTable
70
0
0
ENDTAB
0
TABLE
2
UCS
5
6
330
0
100
AcDbSymbolTable
70
0
0
ENDTAB
0
TABLE
2
APPID
5
7
330
0
100
AcDbSymbolTable
70
1
0
APPID
5
17
330
7
100
AcDbSymbolTableRecord
100
AcDbRegAppTableRecord
2
ACAD
70
0
0
ENDTAB
0
TABLE
2
DIMSTYLE
5
8
330
0
100
AcDbSymbolTable
70
1
100
AcDbDimStyleTable
0
DIMSTYLE
105
18
330
8
100
AcDbSymbolTableRecord
100
AcDbDimStyleTableRecord
2
Standard
70
0
340
16
0
ENDTAB
0
TABLE
2
BLOCK_RECORD
5
9
330
0
100
AcDbSymbolTable
70
2
0
BLOCK_RECORD
5
C
330
9
100
AcDbSymbolTableRecord
100
AcDbBlockTableRecord
2
*Model_Space
70
0
280
1
281
0
0
BLOCK_RECORD
5
F
330
9
100
AcDbSymbolTableRecord
100
AcDbBlockTableRecord
2
*Paper_Space
70
0
280
1
281
0
0
ENDTAB
0
ENDSEC
0
SECTION
2
BLOCKS
0
BLOCK
5
D
330
C
100
AcDbEntity
8
0
100
AcDbBlockBegin
2
*Model_Space
70
0
10
0
20
0
30
0
3
*Model_Space
1

0
ENDBLK
5
E
100
AcDbEntity
8
0
100
AcDbBlockEnd
0
BLOCK
5
10
330
F
100
AcDbEntity
8
0
100
AcDbBlockBegin
2
*Paper_Space
70
0
10
0
20
0
30
0
3
*Paper_Space
1

0
ENDBLK
5
11
100
AcDbEntity
8
0
100
AcDbBlockEnd
0
ENDSEC
0
SECTION
2
ENTITIES
0
TEXT
5
1A
330
C
100
AcDbEntity
420
0
8
0
100
AcDbText
10
0
20
1112
30
0
40
18
1
Z-Index Stacking
7
Arial
100
AcDbText
0
LWPOLYLINE
5
1C
330
C
100
AcDbEntity
420
15022389
8
0
100
AcDbPolyline
90
5
70
0
43
0
38
0
39
0
10
0
20
1091
10
150
20
1091
10
150
20
941
10
0
20
941
10
0
20
1091
0
TEXT
5
1D
330
C
100
AcDbEntity
420
0
8
0
100
AcDbText
10
0
20
1078
30
0
40
16
1
z:1
7
Arial
100
AcDbText
0
LWPOLYLINE
5
1E
330
C
100
AcDbEntity
420
4431943
8
0
100
AcDbPolyline
90
5
70
0
43
0
38
0
39
0
10
30
20
1061
10
180
20
1061
10
180
20
911
10
30
20
911
10
30
20
1061
0
TEXT
5
1F
330
C
100
AcDbEntity
420
0
8
0
100
AcDbText
10
30
20
1048
30
0
40
16
1
z:2
7
Arial
100
AcDbText
0
LWPOLYLINE
5
20
330
C
100
AcDbEntity
420
2001125
8
0
100
AcDbPolyline
90
5
70
0
43
0
38
0
39
0
10
60
20
1031
10
210
20
1031
10
210
20
881
10
60
20
881
10
60
20
1031
0
TEXT
5
21
330
C
100
AcDbEntity
420
0
8
0
100
AcDbText
10
60
20
1018
30
0
40
16
1
z:3
7
Arial
100
AcDbText
0
TEXT
5
22
330
C
100
AcDbEntity
420
0
8
0
100
AcDbText
10
0
20
861
30
0
40
18
1
Opacity Levels
7
Arial
100
AcDbText
0
LWPOLYLINE
5
23
330
C
100
AcDbEntity
420
6953882
8
0
100
AcDbPolyline
90
42
70
0
43
0
38
0
39
0
10
8
20
840
10
72
20
840
10
72
20
840
10
73.56072257612902
20
839.8462822432259
10
75.06146745892072
20
839.3910362600902
10
76.44456186415682
20
838.6517568984204
10
77.65685424949238
20
837.6568542494924
10
78.65175689842036
20
836.4445618641569
10
79.39103626009029
20
835.0614674589208
10
79.84628224322584
20
833.560722576129
10
80
20
832
10
80
20
768
10
80
20
768
10
79.84628224322584
20
766.439277423871
10
79.39103626009029
20
764.9385325410792
10
78.65175689842036
20
763.5554381358431
10
77.65685424949238
20
762.3431457505076
10
76.44456186415682
20
761.3482431015796
10
75.06146745892072
20
760.6089637399098
10
73.56072257612902
20
760.1537177567741
10
72
20
760
10
8
20
760
10
8
20
760
10
6.4392774238709745
20
760.1537177567741
10
4.938532541079282
20
760.6089637399098
10
3.5554381358431844
20
761.3482431015796
10
2.3431457505076203
20
762.3431457505076
10
1.3482431015796372
20
763.5554381358431
10
0.6089637399097061
20
764.9385325410792
10
0.15371775677415656
20
766.439277423871
10
0
20
768
10
0
20
832
10
0
20
832
10
0.15371775677415656
20
833.560722576129
10
0.6089637399097052
20
835.0614674589208
10
1.3482431015796363
20
836.4445618641569
10
2.3431457505076185
20
837.6568542494924
10
3.5554381358431826
20
838.6517568984204
10
4.938532541079278
20
839.3910362600902
10
6.439277423870971
20
839.8462822432259
10
7.999999999999998
20
840
10
8
20
840
0
TEXT
5
24
330
C
100
AcDbEntity
420
16777215
8
0
100
AcDbText
10
30.266666412353516
20
796.5
30
0
40
14
1
1.0
7
Arial
100
AcDbText
0
LWPOLYLINE
5
25
330
C
100
AcDbEntity
420
6953882
8
0
100
AcDbPolyline
90
42
70
0
43
0
38
0
39
0
10
98
20
840
10
162
20
840
10
162
20
840
10
163.56072257612902
20
839.8462822432259
10
165.06146745892073
20
839.3910362600902
10
166.4445618641568
20
838.6517568984204
10
167.65685424949237
20
837.6568542494924
10
168.65175689842036
20
836.4445618641569
10
169.3910362600903
20
835.0614674589208
10
169.84628224322586
20
833.560722576129
10
170
20
832
10
170
20
768
10
170
20
768
10
169.84628224322586
20
766.439277423871
10
169.3910362600903
20
764.9385325410792
10
168.65175689842036
20
763.5554381358431
10
167.65685424949237
20
762.3431457505076
10
166.4445618641568
20
761.3482431015796
10
165.06146745892073
20
760.6089637399098
10
163.56072257612902
20
760.1537177567741
10
162
20
760
10
98
20
760
10
98
20
760
10
96.43927742387098
20
760.1537177567741
10
94.93853254107928
20
760.6089637399098
10
93.55543813584319
20
761.3482431015796
10
92.34314575050762
20
762.3431457505076
10
91.34824310157964
20
763.5554381358431
10
90.60896373990971
20
764.9385325410792
10
90.15371775677416
20
766.439277423871
10
90
20
768
10
90
20
832
10
90
20
832
10
90.15371775677416
20
833.560722576129
10
90.60896373990971
20
835.0614674589208
10
91.34824310157964
20
836.4445618641569
10
92.34314575050762
20
837.6568542494924
10
93.55543813584319
20
838.6517568984204
10
94.93853254107928
20
839.3910362600902
10
96.43927742387098
20
839.8462822432259
10
98
20
840
10
98
20
840
0
TEXT
5
26
330
C
100
AcDbEntity
420
16777215
8
0
100
AcDbText
10
116.38333129882812
20
796.5
30
0
40
14
1
0.75
7
Arial
100
AcDbText
0
LWPOLYLINE
5
27
330
C
100
AcDbEntity
420
6953882
8
0
100
AcDbPolyline
90
42
70
0
43
0
38
0
39
0
10
188
20
840
10
252
20
840
10
252
20
840
10
253.56072257612902
20
839.8462822432259
10
255.06146745892073
20
839.3910362600902
10
256.4445618641568
20
838.6517568984204
10
257.65685424949237
20
837.6568542494924
10
258.6517568984204
20
836.4445618641569
10
259.3910362600903
20
835.0614674589208
10
259.84628224322586
20
833.560722576129
10
260
20
832
10
260
20
768
10
260
20
768
10
259.84628224322586
20
766.439277423871
10
259.3910362600903
20
764.9385325410792
10
258.6517568984204
20
763.5554381358431
10
257.65685424949237
20
762.3431457505076
10
256.4445618641568
20
761.3482431015796
10
255.06146745892073
20
760.6089637399098
10
253.56072257612902
20
760.1537177567741
10
252
20
760
10
188
20
760
10
188
20
760
10
186.43927742387098
20
760.1537177567741
10
184.93853254107927
20
760.6089637399098
10
183.5554381358432
20
761.3482431015796
10
182.34314575050763
20
762.3431457505076
10
181.34824310157964
20
763.5554381358431
10
180.6089637399097
20
764.9385325410792
10
180.15371775677414
20
766.439277423871
10
180
20
768
10
180
20
832
10
180
20
832
10
180.15371775677414
20
833.560722576129
10
180.6089637399097
20
835.0614674589208
10
181.34824310157964
20
836.4445618641569
10
182.34314575050763
20
837.6568542494924
10
183.5554381358432
20
838.6517568984204
10
184.93853254107927
20
839.3910362600902
10
186.43927742387098
20
839.8462822432259
10
188
20
840
10
188
20
840
0
TEXT
5
28
330
C
100
AcDbEntity
420
16777215
8
0
100
AcDbText
10
210.26666259765625
20
796.5
30
0
40
14
1
0.5
7
Arial
100
AcDbText
0
LWPOLYLINE
5
29
330
C
100
AcDbEntity
420
6953882
8
0
100
AcDbPolyline
90
42
70
0
43
0
38
0
39
0
10
278
20
840
10
342
20
840
10
342
20
840
10
343.560722576129
20
839.8462822432259
10
345.06146745892073
20
839.3910362600902
10
346.4445618641568
20
838.6517568984204
10
347.65685424949237
20
837.6568542494924
10
348.6517568984204
20
836.4445618641569
10
349.3910362600903
20
835.0614674589208
10
349.84628224322586
20
833.560722576129
10
350
20
832
10
350
20
768
10
350
20
768
10
349.84628224322586
20
766.439277423871
10
349.3910362600903
20
764.9385325410792
10
348.6517568984204
20
763.5554381358431
10
347.65685424949237
20
762.3431457505076
10
346.4445618641568
20
761.3482431015796
10
345.06146745892073
20
760.6089637399098
10
343.560722576129
20
760.1537177567741
10
342
20
760
10
278
20
760
10
278
20
760
10
276.439277423871
20
760.1537177567741
10
274.93853254107927
20
760.6089637399098
10
273.5554381358432
20
761.3482431015796
10
272.34314575050763
20
762.3431457505076
10
271.3482431015796
20
763.5554381358431
10
270.6089637399097
20
764.9385325410792
10
270.15371775677414
20
766.439277423871
10
270
20
768
10
270
20
832
10
270
20
832
10
270.15371775677414
20
833.560722576129
10
270.6089637399097
20
835.0614674589208
10
271.3482431015796
20
836.4445618641569
10
272.34314575050763
20
837.6568542494924
10
273.5554381358432
20
838.6517568984204
10
274.93853254107927
20
839.3910362600902
10
276.439277423871
20
839.8462822432259
10
278
20
840
10
278
20
840
0
TEXT
5
2A
330
C
100
AcDbEntity
420
16777215
8
0
100
AcDbText
10
296.3833312988281
20
796.5
30
0
40
14
1
0.25
7
Arial
100
AcDbText
0
LWPOLYLINE
5
2B
330
C
100
AcDbEntity
420
6953882
8
0
100
AcDbPolyline
90
42
70
0
43
0
38
0
39
0
10
368
20
840
10
432
20
840
10
432
20
840
10
433.560722576129
20
839.8462822432259
10
435.06146745892073
20
839.3910362600902
10
436.4445618641568
20
838.6517568984204
10
437.65685424949237
20
837.6568542494924
10
438.6517568984204
20
836.4445618641569
10
439.3910362600903
20
835.0614674589208
10
439.84628224322586
20
833.560722576129
10
440
20
832
10
440
20
768
10
440
20
768
10
439.84628224322586
20
766.439277423871
10
439.3910362600903
20
764.9385325410792
10
438.6517568984204
20
763.5554381358431
10
437.65685424949237
20
762.3431457505076
10
436.4445618641568
20
761.3482431015796
10
435.06146745892073
20
760.6089637399098
10
433.560722576129
20
760.1537177567741
10
432
20
760
10
368
20
760
10
368
20
760
10
366.439277423871
20
760.1537177567741
10
364.93853254107927
20
760.6089637399098
10
363.5554381358432
20
761.3482431015796
10
362.34314575050763
20
762.3431457505076
10
361.3482431015796
20
763.5554381358431
10
360.6089637399097
20
764.9385325410792
10
360.15371775677414
20
766.439277423871
10
360
20
768
10
360
20
832
10
360
20
832
10
360.15371775677414
20
833.560722576129
10
360.6089637399097
20
835.0614674589208
10
361.3482431015796
20
836.4445618641569
10
362.34314575050763
20
837.6568542494924
10
363.5554381358432
20
838.6517568984204
10
364.93853254107927
20
839.3910362600902
10
366.439277423871
20
839.8462822432259
10
368
20
840
10
368
20
840
0
TEXT
5
2C
330
C
100
AcDbEntity
420
16777215
8
0
100
AcDbText
10
390.26666259765625
20
796.5
30
0
40
14
1
0.1
7
Arial
100
AcDbText
0
TEXT
5
2D
330
C
100
AcDbEntity
420
0
8
0
100
AcDbText
10
0
20
730
30
0
40
18
1
Isolation: Isolate
7
Arial
100
AcDbText
0
LWPOLYLINE
5
2E
330
C
100
AcDbEntity
420
16361509
8
0
100
AcDbPolyline
90
5
70
0
43
0
38
0
39
0
10
0
20
712
10
200
20
712
10
200
20
592
10
0
20
592
10
0
20
712
0
LWPOLYLINE
5
2F
330
C
100
AcDbEntity
420
4367861
8
0
100
AcDbPolyline
90
5
70
0
43
0
38
0
39
0
10
32
20
680
10
112
20
680
10
112
20
600
10
32
20
600
10
32
20
680
0
TEXT
5
30
330
C
100
AcDbEntity
420
0
8
0
100
AcDbText
10
32
20
667
30
0
40
16
1
B (z:1)
7
Arial
100
AcDbText
0
LWPOLYLINE
5
31
330
C
100
AcDbEntity
420
15684432
8
0
100
AcDbPolyline
90
5
70
0
43
0
38
0
39
0
10
12
20
700
10
92
20
700
10
92
20
620
10
12
20
620
10
12
20
700
0
TEXT
5
32
330
C
100
AcDbEntity
420
0
8
0
100
AcDbText
10
12
20
687
30
0
40
16
1
A (z:2)
7
Arial
100
AcDbText
0
TEXT
5
33
330
C
100
AcDbEntity
420
0
8
0
100
AcDbText
10
0
20
562
30
0
40
18
1
Mix-Blend-Mode
7
Arial
100
AcDbText
0
LWPOLYLINE
5
34
330
C
100
AcDbEntity
420
16772275
8
0
100
AcDbPolyline
90
5
70
0
43
0
38
0
39
0
10
0
20
544
10
200
20
544
10
200
20
424
10
0
20
424
10
0
20
544
0
LWPOLYLINE
5
35
330
C
100
AcDbEntity
420
15022389
8
0
100
AcDbPolyline
90
5
70
0
43
0
38
0
39
0
10
20
20
524
10
120
20
524
10
120
20
444
10
20
20
444
10
20
20
524
0
TEXT
5
36
330
C
100
AcDbEntity
420
0
8
0
100
AcDbText
10
20
20
511
30
0
40
16
1
Multiply
7
Arial
100
AcDbText
0
TEXT
5
37
330
C
100
AcDbEntity
420
0
8
0
100
AcDbText
10
0
20
394
30
0
40
18
1
Will-Change
7
Arial
100
AcDbText
0
LWPOLYLINE
5
38
330
C
100
AcDbEntity
420
35195
8
0
100
AcDbPolyline
90
5
70
0
43
0
38
0
39
0
10
0
20
376
10
100
20
376
10
100
20
276
10
0
20
276
10
0
20
376
0
TEXT
5
39
330
C
100
AcDbEntity
420
16777215
8
0
100
AcDbText
10
6.4333343505859375
20
322
30
0
40
16
1
will-change
7
Arial
100
AcDbText
0
TEXT
5
3A
330
C
100
AcDbEntity
420
0
8
0
100
AcDbText
10
0
20
246
30
0
40
18
1
Filter
7
Arial
100
AcDbText
0
LWPOLYLINE
5
3B
330
C
100
AcDbEntity
420
6174129
8
0
100
AcDbPolyline
90
42
70
0
43
0
38
0
39
0
10
8
20
228
10
112
20
228
10
112
20
228
10
113.56072257612902
20
227.8462822432258
10
115.06146745892072
20
227.39103626009035
10
116.44456186415682
20
226.65175689842033
10
117.65685424949238
20
225.65685424949243
10
118.65175689842036
20
224.44456186415687
10
119.39103626009029
20
223.06146745892067
10
119.84628224322584
20
221.56072257612902
10
120
20
220
10
120
20
156
10
120
20
156
10
119.84628224322584
20
154.43927742387098
10
119.39103626009029
20
152.93853254107933
10
118.65175689842036
20
151.55543813584313
10
117.65685424949238
20
150.34314575050757
10
116.44456186415682
20
149.34824310157967
10
115.06146745892072
20
148.60896373990965
10
113.56072257612902
20
148.1537177567742
10
112
20
148
10
8
20
148
10
8
20
148
10
6.4392774238709745
20
148.1537177567742
10
4.938532541079282
20
148.60896373990965
10
3.5554381358431844
20
149.34824310157967
10
2.3431457505076203
20
150.34314575050757
10
1.3482431015796372
20
151.55543813584313
10
0.6089637399097061
20
152.93853254107933
10
0.15371775677415656
20
154.43927742387098
10
0
20
156
10
0
20
220
10
0
20
220
10
0.15371775677415656
20
221.56072257612902
10
0.6089637399097052
20
223.06146745892067
10
1.3482431015796363
20
224.44456186415687
10
2.3431457505076185
20
225.65685424949243
10
3.5554381358431826
20
226.65175689842033
10
4.938532541079278
20
227.39103626009035
10
6.439277423870971
20
227.8462822432258
10
7.999999999999998
20
228
10
8
20
228
0
TEXT
5
3C
330
C
100
AcDbEntity
420
16777215
8
0
100
AcDbText
10
33.31666564941406
20
184
30
0
40
16
1
filtered
7
Arial
100
AcDbText
0
TEXT
5
3D
330
C
100
AcDbEntity
420
0
8
0
100
AcDbText
10
0
20
118
30
0
40
18
1
Contain: Paint
7
Arial
100
AcDbText
0
LWPOLYLINE
5
3E
330
C
100
AcDbEntity
420
161725
8
0
100
AcDbPolyline
90
5
70
0
43
0
38
0
39
0
10
0
20
100
10
150
20
100
10
150
20
0
10
0
20
0
10
0
20
100
0
TEXT
5
3F
330
C
100
AcDbEntity
420
16777215
8
0
100
AcDbText
10
10
20
77
30
0
40
16
1
contain:paint
7
Arial
100
AcDbText
0
LWPOLYLINE
5
40
330
C
100
AcDbEntity
420
16007990
8
0
100
AcDbPolyline
90
5
70
0
43
0
38
0
39
0
10
-10
20
110
10
40
20
110
10
40
20
60
10
-10
20
60
10
-10
20
110
0
ENDSEC
0
SECTION
2
OBJECTS
0
DICTIONARY
5
A
330
0
100
AcDbDictionary
281
1
3
ACAD_GROUP
350
B
0
DICTIONARY
5
B
330
A
100
AcDbDictionary
281
0
0
ENDSEC
0
EOF