  0
SECTION
  2
HEADER
  9
$ANGBASE
 50
0.0
  9
$ANGDIR
 70
1
  9
$AUNITS
 70
0
  9
$AUPREC
 70
0
  9
$ATTMODE
 70
1
  9
$DWGCODEPAGE
  3
ANSI_1252
  9
$TDCREATE
 40
2461147.354206851683557
  9
$CECOLOR
 62
256
  9
$CELTSCALE
 40
1.0
  9
$CELWEIGHT
370
-1
  9
$CLAYER
  8
0
  9
$CELTYPE
  6
ByLayer
  9
$CMLJUST
 70
0
  9
$CMLSCALE
 40
20.0
  9
$CMLSTYLE
  2
Standard
  9
$DIMSTYLE
  2
Standard
  9
$LWDISPLAY
290
0
  9
$EXTNAMES
290
1
  9
$HANDSEED
  5
8B
  9
$INSUNITS
 70
0
  9
$LUNITS
 70
2
  9
$LUPREC
 70
4
  9
$LTSCALE
 40
1.0
  9
$MIRRTEXT
 70
0
  9
$INSBASE
 10
0.0
 20
0.0
 30
0.0
  9
$SPLINESEGS
 70
8
  9
$PSLTSCALE
 70
1
  9
$PDMODE
 70
0
  9
$PDSIZE
 40
0.0
  9
$PLINEGEN
 70
0
  9
$TEXTSIZE
 40
0.2
  9
$TEXTSTYLE
  7
Standard
  9
$TDINDWG
 40
0.0
  9
$TDUCREATE
 40
2461147.354206851683557
  9
$TDUUPDATE
 40
2461147.354206851683557
  9
$TDUPDATE
 40
2461147.354206851683557
  9
$ACADVER
  1
AC1018
  0
ENDSEC
  0
SECTION
  2
CLASSES
  0
CLASS
  1
ACDBDICTIONARYWDFLT
  2
AcDbDictionaryWithDefault
  3
ObjectDBX Classes
 90
32768
 91
0
280
0
281
0
  0
CLASS
  1
ACDBPLACEHOLDER
  2
AcDbPlaceHolder
  3
ObjectDBX Classes
 90
0
 91
0
280
0
281
0
  0
CLASS
  1
LAYOUT
  2
AcDbLayout
  3
ObjectDBX Classes
 90
0
 91
0
280
0
281
0
  0
CLASS
  1
DICTIONARYVAR
  2
AcDbDictionaryVar
  3
ObjectDBX Classes
 90
0
 91
0
280
0
281
0
  0
CLASS
  1
TABLESTYLE
  2
AcDbTableStyle
  3
ObjectDBX Classes
 90
4095
 91
0
280
0
281
0
  0
CLASS
  1
MATERIAL
  2
AcDbMaterial
  3
ObjectDBX Classes
 90
1153
 91
0
280
0
281
0
  0
CLASS
  1
VISUALSTYLE
  2
AcDbVisualStyle
  3
ObjectDBX Classes
 90
4095
 91
0
280
0
281
0
  0
CLASS
  1
SCALE
  2
AcDbScale
  3
ObjectDBX Classes
 90
1153
 91
0
280
0
281
0
  0
CLASS
  1
MLEADERSTYLE
  2
AcDbMLeaderStyle
  3
ObjectDBX Classes
 90
4095
 91
0
280
0
281
0
  0
CLASS
  1
CELLSTYLEMAP
  2
AcDbCellStyleMap
  3
ObjectDBX Classes
 90
1152
 91
0
280
0
281
0
  0
CLASS
  1
EXACXREFPANELOBJECT
  2
ExAcXREFPanelObject
  3
ObjectDBX Classes
 90
1025
 91
0
280
0
281
0
  0
CLASS
  1
NPOCOLLECTION
  2
AcDbImpNonPersistentObjectsCollection
  3
ObjectDBX Classes
 90
1153
 91
0
280
0
281
0
  0
CLASS
  1
LAYER_INDEX
  2
AcDbLayerIndex
  3
ObjectDBX Classes
 90
0
 91
0
280
0
281
0
  0
CLASS
  1
SPATIAL_INDEX
  2
AcDbSpatialIndex
  3
ObjectDBX Classes
 90
0
 91
0
280
0
281
0
  0
CLASS
  1
IDBUFFER
  2
AcDbIdBuffer
  3
ObjectDBX Classes
 90
32768
 91
0
280
0
281
0
  0
CLASS
  1
ACDBSECTIONVIEWSTYLE
  2
AcDbSectionViewStyle
  3
ObjectDBX Classes
 90
1025
 91
0
280
0
281
0
  0
CLASS
  1
ACDBDETAILVIEWSTYLE
  2
AcDbDetailViewStyle
  3
ObjectDBX Classes
 90
1025
 91
0
280
0
281
0
  0
CLASS
  1
MESH
  2
AcDbSubDMesh
  3
ObjectDBX Classes
 90
0
 91
0
280
0
281
1
  0
CLASS
  1
SORTENTSTABLE
  2
AcDbSortentsTable
  3
ObjectDBX Classes
 90
0
 91
0
280
0
281
0
  0
CLASS
  1
ACDB_TEXTOBJECTCONTEXTDATA_CLASS
  2
AcDbTextObjectContextData
  3
ObjectDBX Classes
 90
1153
 91
0
280
0
281
0
  0
CLASS
  1
WIPEOUT
  2
AcDbWipeout
  3
WipeOut
 90
32895
 91
0
280
0
281
1
  0
CLASS
  1
WIPEOUTVARIABLES
  2
AcDbWipeoutVariables
  3
WipeOut
 90
32768
 91
0
280
0
281
0
  0
CLASS
  1
DIMASSOC
  2
AcDbDimAssoc
  3
AcDbDimAssoc
 90
0
 91
0
280
0
281
0
  0
CLASS
  1
ACAD_TABLE
  2
AcDbTable
  3
ObjectDBX Classes
 90
1025
 91
0
280
0
281
1
  0
CLASS
  1
TABLECONTENT
  2
AcDbTableContent
  3
ObjectDBX Classes
 90
1152
 91
0
280
0
281
0
  0
CLASS
  1
TABLEGEOMETRY
  2
AcDbTableGeometry
  3
ObjectDBX Classes
 90
1152
 91
0
280
0
281
0
  0
CLASS
  1
IMAGE
  2
AcDbRasterImage
  3
ISM
 90
32895
 91
0
280
0
281
1
  0
CLASS
  1
IMAGEDEF
  2
AcDbRasterImageDef
  3
ISM
 90
0
 91
0
280
0
281
0
  0
CLASS
  1
IMAGEDEF_REACTOR
  2
AcDbRasterImageDefReactor
  3
ISM
 90
1
 91
0
280
0
281
0
  0
CLASS
  1
DBCOLOR
  2
AcDbColor
  3
ObjectDBX Classes
 90
0
 91
0
280
0
281
0
  0
CLASS
  1
GEODATA
  2
AcDbGeoData
  3
ObjectDBX Classes
 90
4095
 91
0
280
0
281
0
  0
CLASS
  1
MULTILEADER
  2
AcDbMLeader
  3
ObjectDBX Classes
 90
1025
 91
0
280
0
281
0
  0
CLASS
  1
PDFUNDERLAY
  2
AcDbPdfReference
  3
ObjectDBX Classes
 90
4095
 91
0
280
0
281
1
  0
CLASS
  1
PDFDEFINITION
  2
AcDbPdfDefinition
  3
ObjectDBX Classes
 90
1153
 91
0
280
0
281
0
  0
CLASS
  1
RASTERVARIABLES
  2
AcDbRasterVariables
  3
ISM
 90
0
 91
0
280
0
281
0
  0
CLASS
  1
SPATIAL_FILTER
  2
AcDbSpatialFilter
  3
ObjectDBX Classes
 90
0
 91
0
280
0
281
0
  0
CLASS
  1
ACDB_MLEADEROBJECTCONTEXTDATA_CLASS
  2
AcDbMLeaderObjectContextData
  3
ObjectDBX Classes
 90
1025
 91
0
280
0
281
0
  0
CLASS
  1
PLOTSETTINGS
  2
AcDbPlotSettings
  3
ObjectDBX Classes
 90
0
 91
0
280
0
281
0
  0
CLASS
  1
FIELD
  2
AcDbField
  3
ObjectDBX Classes
 90
1152
 91
0
280
0
281
0
  0
CLASS
  1
FIELDLIST
  2
AcDbFieldList
  3
ObjectDBX Classes
 90
1152
 91
0
280
0
281
0
  0
CLASS
  1
ACDB_MTEXTATTRIBUTEOBJECTCONTEXTDATA_CLASS
  2
AcDbMTextAttributeObjectContextData
  3
ObjectDBX Classes
 90
1153
 91
0
280
0
281
0
  0
CLASS
  1
ACDB_BLKREFOBJECTCONTEXTDATA_CLASS
  2
AcDbBlkRefObjectContextData
  3
ObjectDBX Classes
 90
1153
 91
0
280
0
281
0
  0
ENDSEC
  0
SECTION
  2
TABLES
  0
TABLE
  2
VPORT
  5
18
330
0
100
AcDbSymbolTable
 70
1
  0
VPORT
  5
26
330
18
100
AcDbSymbolTableRecord
100
AcDbViewportTableRecord
  2
*Active
 70
0
 10
0.0
 20
0.0
 11
1.0
 21
1.0
 12
0.0
 22
0.0
 13
0.0
 23
0.0
 14
0.5
 24
0.5
 15
10.0
 25
10.0
 16
0.0
 26
0.0
 36
1.0
 17
0.0
 27
0.0
 37
0.0
 40
10.0
 41
1.0
 75
0
 76
1
  0
ENDTAB
  0
TABLE
  2
LTYPE
  5
14
330
0
100
AcDbSymbolTable
 70
3
  0
LTYPE
  5
19
330
14
100
AcDbSymbolTableRecord
100
AcDbLinetypeTableRecord
  2
ByLayer
 70
0
 72
0
 73
0
 40
0.0
  0
LTYPE
  5
1A
330
14
100
AcDbSymbolTableRecord
100
AcDbLinetypeTableRecord
  2
ByBlock
 70
0
 72
0
 73
0
 40
0.0
  0
LTYPE
  5
1B
330
14
100
AcDbSymbolTableRecord
100
AcDbLinetypeTableRecord
  2
Continuous
 70
0
 72
0
 73
0
 40
0.0
  0
ENDTAB
  0
TABLE
  2
LAYER
  5
13
330
0
100
AcDbSymbolTable
 70
1
  0
LAYER
  5
1C
330
13
100
AcDbSymbolTableRecord
100
AcDbLayerTableRecord
  2
0
 70
0
 62
7
  6
Continuous
290
1
370
-3
390
0
  0
ENDTAB
  0
TABLE
  2
STYLE
  5
15
330
0
100
AcDbSymbolTable
 70
1
  0
STYLE
  5
23
330
15
100
AcDbSymbolTableRecord
100
AcDbTextStyleTableRecord
  2
Standard
 70
0
 40
0.0
 41
1.0
 42
0.0
 50
0.0
 71
0
  0
ENDTAB
  0
TABLE
  2
VIEW
  5
17
330
0
100
AcDbSymbolTable
 70
0
  0
ENDTAB
  0
TABLE
  2
UCS
  5
16
330
0
100
AcDbSymbolTable
 70
0
  0
ENDTAB
  0
TABLE
  2
APPID
  5
10
330
0
100
AcDbSymbolTable
 70
1
  0
APPID
  5
25
330
10
100
AcDbSymbolTableRecord
100
AcDbRegAppTableRecord
  2
ACAD
 70
0
  0
ENDTAB
  0
TABLE
  2
DIMSTYLE
  5
12
330
0
100
AcDbSymbolTable
 70
1
100
AcDbDimStyleTable
  0
DIMSTYLE
105
24
330
12
100
AcDbSymbolTableRecord
100
AcDbDimStyleTableRecord
  2
Standard
 70
0
  3
<>
  4
[]
 40
1.0
 41
0.18
 42
0.625
 43
3.75
 44
1.25
 45
0.0
 46
0.0
 47
0.0
 48
0.0
 49
1.0
 50
45.0
 70
0
 90
0
140
0.18
141
0.09
142
0.0
143
25.3999999999999986
144
1.0
145
0.0
146
1.0
147
0.625
148
0.0
 71
0
 72
0
 73
0
 74
0
 75
0
 76
0
 77
1
 78
8
 79
0
170
0
171
3
172
0
173
1
174
0
175
0
176
0
177
0
178
0
179
0
271
2
272
2
273
2
274
3
275
0
276
0
277
2
278
46
279
0
280
0
281
0
282
0
283
0
284
8
285
0
286
0
287
0
288
0
289
3
290
0
340
0
371
-2
372
-2
  0
ENDTAB
  0
TABLE
  2
BLOCK_RECORD
  5
11
330
0
100
AcDbSymbolTable
 70
2
  0
BLOCK_RECORD
  5
1D
330
11
100
AcDbSymbolTableRecord
100
AcDbBlockTableRecord
  2
*Model_Space
 70
0
340
0
 70
0
280
0
281
1
  0
BLOCK_RECORD
  5
20
330
11
100
AcDbSymbolTableRecord
100
AcDbBlockTableRecord
  2
*Paper_Space
 70
0
340
0
 70
0
280
0
281
1
  0
ENDTAB
  0
ENDSEC
  0
SECTION
  2
BLOCKS
  0
BLOCK
  5
1E
330
1D
100
AcDbEntity
  8
0
  6
ByLayer
 62
256
 48
1.0
 60
0
 67
0
370
-1
100
AcDbBlockBegin
  2
*Model_Space
 70
0
 10
0.0
 20
0.0
 30
0.0
  3
*Model_Space
  0
ENDBLK
  5
1F
330
1D
100
AcDbEntity
  8
0
100
AcDbBlockEnd
  0
BLOCK
  5
21
330
20
100
AcDbEntity
  8
0
  6
ByLayer
 62
256
 48
1.0
 60
0
 67
1
370
-1
100
AcDbBlockBegin
  2
*Paper_Space
 70
0
 10
0.0
 20
0.0
 30
0.0
  3
*Paper_Space
  0
ENDBLK
  5
22
330
20
100
AcDbEntity
  8
0
100
AcDbBlockEnd
  0
ENDSEC
  0
SECTION
  2
ENTITIES
  0
TEXT
  5
27
330
1D
100
AcDbEntity
  8
0
  6
ByLayer
420
0
 48
1.0
 60
0
 67
0
370
-1
100
AcDbText
 39
0.0
 10
0.0
 20
2085.0
 30
0.0
 40
18.0
  1
SVG Markers Demo
 50
0.0
 41
1.0
 51
0.0
  7
Standard
 71
0
 72
0
 11
0.0
 21
0.0
 31
0.0
210
0.0
220
0.0
230
1.0
100
AcDbText
 73
0
  0
TEXT
  5
28
330
1D
100
AcDbEntity
  8
0
  6
ByLayer
420
5592405
 48
1.0
 60
0
 67
0
370
-1
100
AcDbText
 39
0.0
 10
0.0
 20
2051.0
 30
0.0
 40
14.0
  1
1. Inline SVG – Arrow markers on path
 50
0.0
 41
1.0
 51
0.0
  7
Standard
 71
0
 72
0
 11
0.0
 21
0.0
 31
0.0
210
0.0
220
0.0
230
1.0
100
AcDbText
 73
0
  0
LWPOLYLINE
  5
29
330
1D
100
AcDbEntity
  8
0
  6
ByLayer
420
13421772
 48
1.0
 60
0
 67
0
370
-1
100
AcDbPolyline
 90
4
 70
1
 43
0.0
 38
0.0
 39
0.0
210
0.0
220
0.0
230
1.0
 10
0.0
 20
2038.0
 40
0.0
 41
0.0
 42
0.0
 10
300.0
 20
2038.0
 40
0.0
 41
0.0
 42
0.0
 10
300.0
 20
1958.0
 40
0.0
 41
0.0
 42
0.0
 10
0.0
 20
1958.0
 40
0.0
 41
0.0
 42
0.0
  0
LWPOLYLINE
  5
2A
330
1D
100
AcDbEntity
  8
0
  6
ByLayer
420
4620980
 48
1.0
 60
0
 67
0
370
-1
100
AcDbPolyline
 90
2
 70
0
 43
0.0
 38
0.0
 39
0.0
210
0.0
220
0.0
230
1.0
 10
31.0
 20
1997.0
 40
0.0
 41
0.0
 42
0.0
 10
271.0
 20
1997.0
 40
0.0
 41
0.0
 42
0.0
  0
HATCH
  5
2B
330
1D
100
AcDbEntity
  8
0
  6
ByLayer
420
4620980
 48
1.0
 60
0
 67
0
370
-1
100
AcDbHatch
 30
0.0
210
0.0
220
0.0
230
1.0
  2
SOLID
 70
1
 71
0
 91
1
 92
2
 72
0
 73
1
 93
33
 10
43.0
 20
2003.0
 10
42.25
 20
2002.625
 10
41.5
 20
2002.25
 10
40.75
 20
2001.875
 10
40.0
 20
2001.5
 10
39.25
 20
2001.125
 10
38.5
 20
2000.75
 10
37.7500005722045913
 20
2000.3750002861022494
 10
37.0
 20
2000.0
 10
36.25
 20
1999.625
 10
35.5
 20
1999.25
 10
34.7500005722045913
 20
1998.8750002861022494
 10
34.0
 20
1998.5
 10
33.25
 20
1998.125
 10
32.5000011444091825
 20
1997.7500005722044989
 10
31.75
 20
1997.375
 10
31.0
 20
1997.0
 10
31.7500002145767226
 20
1996.6249998927116849
 10
32.5000004291534452
 20
1996.2499997854233698
 10
33.2499997138977079
 20
1995.8750001430512384
 10
34.0
 20
1995.5
 10
34.7500002861022921
 20
1995.1249998569487616
 10
35.4999994277954087
 20
1994.7500002861022494
 10
36.2500005722045913
 20
1994.3749997138977506
 10
37.0
 20
1994.0
 10
37.7499988555908175
 20
1993.6250005722044989
 10
38.5000005722045913
 20
1993.2499997138977506
 10
39.2499994277954087
 20
1992.8750002861022494
 10
39.9999988555908175
 20
1992.5000005722044989
 10
40.75
 20
1992.125
 10
41.4999988555908175
 20
1991.7500005722044989
 10
42.25
 20
1991.375
 10
43.0
 20
1991.0
 97
0
 75
0
 76
1
 47
0.0
 98
0
  0
LWPOLYLINE
  5
2C
330
1D
100
AcDbEntity
  8
0
  6
ByLayer
420
4620980
 48
1.0
 60
0
 67
0
370
-1
100
AcDbPolyline
 90
33
 70
1
 43
0.0
 38
0.0
 39
0.0
210
0.0
220
0.0
230
1.0
 10
43.0
 20
2003.0
 40
0.0
 41
0.0
 42
0.0
 10
42.25
 20
2002.625
 40
0.0
 41
0.0
 42
0.0
 10
41.5
 20
2002.25
 40
0.0
 41
0.0
 42
0.0
 10
40.75
 20
2001.875
 40
0.0
 41
0.0
 42
0.0
 10
40.0
 20
2001.5
 40
0.0
 41
0.0
 42
0.0
 10
39.25
 20
2001.125
 40
0.0
 41
0.0
 42
0.0
 10
38.5
 20
2000.75
 40
0.0
 41
0.0
 42
0.0
 10
37.7500005722045913
 20
2000.3750002861022494
 40
0.0
 41
0.0
 42
0.0
 10
37.0
 20
2000.0
 40
0.0
 41
0.0
 42
0.0
 10
36.25
 20
1999.625
 40
0.0
 41
0.0
 42
0.0
 10
35.5
 20
1999.25
 40
0.0
 41
0.0
 42
0.0
 10
34.7500005722045913
 20
1998.8750002861022494
 40
0.0
 41
0.0
 42
0.0
 10
34.0
 20
1998.5
 40
0.0
 41
0.0
 42
0.0
 10
33.25
 20
1998.125
 40
0.0
 41
0.0
 42
0.0
 10
32.5000011444091825
 20
1997.7500005722044989
 40
0.0
 41
0.0
 42
0.0
 10
31.75
 20
1997.375
 40
0.0
 41
0.0
 42
0.0
 10
31.0
 20
1997.0
 40
0.0
 41
0.0
 42
0.0
 10
31.7500002145767226
 20
1996.6249998927116849
 40
0.0
 41
0.0
 42
0.0
 10
32.5000004291534452
 20
1996.2499997854233698
 40
0.0
 41
0.0
 42
0.0
 10
33.2499997138977079
 20
1995.8750001430512384
 40
0.0
 41
0.0
 42
0.0
 10
34.0
 20
1995.5
 40
0.0
 41
0.0
 42
0.0
 10
34.7500002861022921
 20
1995.1249998569487616
 40
0.0
 41
0.0
 42
0.0
 10
35.4999994277954087
 20
1994.7500002861022494
 40
0.0
 41
0.0
 42
0.0
 10
36.2500005722045913
 20
1994.3749997138977506
 40
0.0
 41
0.0
 42
0.0
 10
37.0
 20
1994.0
 40
0.0
 41
0.0
 42
0.0
 10
37.7499988555908175
 20
1993.6250005722044989
 40
0.0
 41
0.0
 42
0.0
 10
38.5000005722045913
 20
1993.2499997138977506
 40
0.0
 41
0.0
 42
0.0
 10
39.2499994277954087
 20
1992.8750002861022494
 40
0.0
 41
0.0
 42
0.0
 10
39.9999988555908175
 20
1992.5000005722044989
 40
0.0
 41
0.0
 42
0.0
 10
40.75
 20
1992.125
 40
0.0
 41
0.0
 42
0.0
 10
41.4999988555908175
 20
1991.7500005722044989
 40
0.0
 41
0.0
 42
0.0
 10
42.25
 20
1991.375
 40
0.0
 41
0.0
 42
0.0
 10
43.0
 20
1991.0
 40
0.0
 41
0.0
 42
0.0
  0
HATCH
  5
2D
330
1D
100
AcDbEntity
  8
0
  6
ByLayer
420
4620980
 48
1.0
 60
0
 67
0
370
-1
100
AcDbHatch
 30
0.0
210
0.0
220
0.0
230
1.0
  2
SOLID
 70
1
 71
0
 91
1
 92
2
 72
0
 73
1
 93
33
 10
259.0
 20
2003.0
 10
259.75
 20
2002.625
 10
260.5
 20
2002.25
 10
261.25
 20
2001.875
 10
262.0
 20
2001.5
 10
262.75
 20
2001.125
 10
263.5
 20
2000.75
 10
264.2499994277953874
 20
2000.3750002861022494
 10
265.0
 20
2000.0
 10
265.75
 20
1999.625
 10
266.5
 20
1999.25
 10
267.2499994277953874
 20
1998.8750002861022494
 10
268.0
 20
1998.5
 10
268.75
 20
1998.125
 10
269.4999988555908317
 20
1997.7500005722044989
 10
270.25
 20
1997.375
 10
271.0
 20
1997.0
 10
270.25
 20
1996.6249998927116849
 10
269.5
 20
1996.2499997854233698
 10
268.75
 20
1995.8750001430512384
 10
268.0
 20
1995.5
 10
267.25
 20
1995.1249998569487616
 10
266.5000005722046126
 20
1994.7500002861022494
 10
265.7499994277953874
 20
1994.3749997138977506
 10
265.0
 20
1994.0
 10
264.2500011444091683
 20
1993.6250005722044989
 10
263.4999994277953874
 20
1993.2499997138977506
 10
262.7500005722046126
 20
1992.8750002861022494
 10
262.0000011444091683
 20
1992.5000005722044989
 10
261.25
 20
1992.125
 10
260.5000011444091683
 20
1991.7500005722044989
 10
259.75
 20
1991.375
 10
259.0
 20
1991.0
 97
0
 75
0
 76
1
 47
0.0
 98
0
  0
LWPOLYLINE
  5
2E
330
1D
100
AcDbEntity
  8
0
  6
ByLayer
420
4620980
 48
1.0
 60
0
 67
0
370
-1
100
AcDbPolyline
 90
33
 70
1
 43
0.0
 38
0.0
 39
0.0
210
0.0
220
0.0
230
1.0
 10
259.0
 20
2003.0
 40
0.0
 41
0.0
 42
0.0
 10
259.75
 20
2002.625
 40
0.0
 41
0.0
 42
0.0
 10
260.5
 20
2002.25
 40
0.0
 41
0.0
 42
0.0
 10
261.25
 20
2001.875
 40
0.0
 41
0.0
 42
0.0
 10
262.0
 20
2001.5
 40
0.0
 41
0.0
 42
0.0
 10
262.75
 20
2001.125
 40
0.0
 41
0.0
 42
0.0
 10
263.5
 20
2000.75
 40
0.0
 41
0.0
 42
0.0
 10
264.2499994277953874
 20
2000.3750002861022494
 40
0.0
 41
0.0
 42
0.0
 10
265.0
 20
2000.0
 40
0.0
 41
0.0
 42
0.0
 10
265.75
 20
1999.625
 40
0.0
 41
0.0
 42
0.0
 10
266.5
 20
1999.25
 40
0.0
 41
0.0
 42
0.0
 10
267.2499994277953874
 20
1998.8750002861022494
 40
0.0
 41
0.0
 42
0.0
 10
268.0
 20
1998.5
 40
0.0
 41
0.0
 42
0.0
 10
268.75
 20
1998.125
 40
0.0
 41
0.0
 42
0.0
 10
269.4999988555908317
 20
1997.7500005722044989
 40
0.0
 41
0.0
 42
0.0
 10
270.25
 20
1997.375
 40
0.0
 41
0.0
 42
0.0
 10
271.0
 20
1997.0
 40
0.0
 41
0.0
 42
0.0
 10
270.25
 20
1996.6249998927116849
 40
0.0
 41
0.0
 42
0.0
 10
269.5
 20
1996.2499997854233698
 40
0.0
 41
0.0
 42
0.0
 10
268.75
 20
1995.8750001430512384
 40
0.0
 41
0.0
 42
0.0
 10
268.0
 20
1995.5
 40
0.0
 41
0.0
 42
0.0
 10
267.25
 20
1995.1249998569487616
 40
0.0
 41
0.0
 42
0.0
 10
266.5000005722046126
 20
1994.7500002861022494
 40
0.0
 41
0.0
 42
0.0
 10
265.7499994277953874
 20
1994.3749997138977506
 40
0.0
 41
0.0
 42
0.0
 10
265.0
 20
1994.0
 40
0.0
 41
0.0
 42
0.0
 10
264.2500011444091683
 20
1993.6250005722044989
 40
0.0
 41
0.0
 42
0.0
 10
263.4999994277953874
 20
1993.2499997138977506
 40
0.0
 41
0.0
 42
0.0
 10
262.7500005722046126
 20
1992.8750002861022494
 40
0.0
 41
0.0
 42
0.0
 10
262.0000011444091683
 20
1992.5000005722044989
 40
0.0
 41
0.0
 42
0.0
 10
261.25
 20
1992.125
 40
0.0
 41
0.0
 42
0.0
 10
260.5000011444091683
 20
1991.7500005722044989
 40
0.0
 41
0.0
 42
0.0
 10
259.75
 20
1991.375
 40
0.0
 41
0.0
 42
0.0
 10
259.0
 20
1991.0
 40
0.0
 41
0.0
 42
0.0
  0
TEXT
  5
2F
330
1D
100
AcDbEntity
  8
0
  6
ByLayer
420
5592405
 48
1.0
 60
0
 67
0
370
-1
100
AcDbText
 39
0.0
 10
0.0
 20
1918.5
 30
0.0
 40
14.0
  1
2. Inline SVG – Markers on polyline (start + mid + end)
 50
0.0
 41
1.0
 51
0.0
  7
Standard
 71
0
 72
0
 11
0.0
 21
0.0
 31
0.0
210
0.0
220
0.0
230
1.0
100
AcDbText
 73
0
  0
LWPOLYLINE
  5
30
330
1D
100
AcDbEntity
  8
0
  6
ByLayer
420
13421772
 48
1.0
 60
0
 67
0
370
-1
100
AcDbPolyline
 90
4
 70
1
 43
0.0
 38
0.0
 39
0.0
210
0.0
220
0.0
230
1.0
 10
0.0
 20
1905.5
 40
0.0
 41
0.0
 42
0.0
 10
300.0
 20
1905.5
 40
0.0
 41
0.0
 42
0.0
 10
300.0
 20
1805.5
 40
0.0
 41
0.0
 42
0.0
 10
0.0
 20
1805.5
 40
0.0
 41
0.0
 42
0.0
  0
LWPOLYLINE
  5
31
330
1D
100
AcDbEntity
  8
0
  6
ByLayer
420
14423100
 48
1.0
 60
0
 67
0
370
-1
100
AcDbPolyline
 90
5
 70
0
 43
0.0
 38
0.0
 39
0.0
210
0.0
220
0.0
230
1.0
 10
21.0
 20
1824.5
 40
0.0
 41
0.0
 42
0.0
 10
81.0
 20
1884.5
 40
0.0
 41
0.0
 42
0.0
 10
151.0
 20
1844.5
 40
0.0
 41
0.0
 42
0.0
 10
221.0
 20
1884.5
 40
0.0
 41
0.0
 42
0.0
 10
281.0
 20
1824.5
 40
0.0
 41
0.0
 42
0.0
  0
HATCH
  5
32
330
1D
100
AcDbEntity
  8
0
  6
ByLayer
420
14423100
 48
1.0
 60
0
 67
0
370
-1
100
AcDbHatch
 30
0.0
210
0.0
220
0.0
230
1.0
  2
SOLID
 70
1
 71
0
 91
1
 92
2
 72
0
 73
1
 93
32
 10
24.5355339059327378
 20
1828.0355339059328799
 10
25.1573480615127281
 20
1827.2778511650981272
 10
25.6193976625564375
 20
1826.4134171618254641
 10
25.9039264020161539
 20
1825.4754516100806541
 10
26.0
 20
1824.5
 10
25.9039264020161539
 20
1823.5245483899193459
 10
25.6193976625564375
 20
1822.5865828381745359
 10
25.1573480615127281
 20
1821.7221488349018728
 10
24.5355339059327378
 20
1820.9644660940671201
 10
23.7778511650980136
 20
1820.342651938487279
 10
22.9134171618254499
 20
1819.8806023374436336
 10
21.9754516100806399
 20
1819.5960735979838319
 10
21.0
 20
1819.5
 10
20.0245483899193601
 20
1819.5960735979838319
 10
19.0865828381745501
 20
1819.8806023374436336
 10
18.2221488349019936
 20
1820.342651938487279
 10
17.4644660940672622
 20
1820.9644660940671201
 10
16.8426519384872719
 20
1821.7221488349018728
 10
16.3806023374435625
 20
1822.5865828381745359
 10
16.0960735979838461
 20
1823.5245483899193459
 10
16.0
 20
1824.5
 10
16.0960735979838461
 20
1825.4754516100806541
 10
16.3806023374435625
 20
1826.4134171618254641
 10
16.8426519384872719
 20
1827.2778511650981272
 10
17.4644660940672622
 20
1828.0355339059328799
 10
18.2221488349019936
 20
1828.657348061512721
 10
19.0865828381745501
 20
1829.1193976625563664
 10
20.0245483899193601
 20
1829.4039264020161681
 10
21.0
 20
1829.5
 10
21.9754516100806399
 20
1829.4039264020161681
 10
22.9134171618254499
 20
1829.1193976625563664
 10
23.7778511650980064
 20
1828.657348061512721
 97
0
 75
0
 76
1
 47
0.0
 98
0
  0
LWPOLYLINE
  5
33
330
1D
100
AcDbEntity
  8
0
  6
ByLayer
420
14423100
 48
1.0
 60
0
 67
0
370
-1
100
AcDbPolyline
 90
32
 70
1
 43
0.0
 38
0.0
 39
0.0
210
0.0
220
0.0
230
1.0
 10
24.5355339059327378
 20
1828.0355339059328799
 40
0.0
 41
0.0
 42
0.0
 10
25.1573480615127281
 20
1827.2778511650981272
 40
0.0
 41
0.0
 42
0.0
 10
25.6193976625564375
 20
1826.4134171618254641
 40
0.0
 41
0.0
 42
0.0
 10
25.9039264020161539
 20
1825.4754516100806541
 40
0.0
 41
0.0
 42
0.0
 10
26.0
 20
1824.5
 40
0.0
 41
0.0
 42
0.0
 10
25.9039264020161539
 20
1823.5245483899193459
 40
0.0
 41
0.0
 42
0.0
 10
25.6193976625564375
 20
1822.5865828381745359
 40
0.0
 41
0.0
 42
0.0
 10
25.1573480615127281
 20
1821.7221488349018728
 40
0.0
 41
0.0
 42
0.0
 10
24.5355339059327378
 20
1820.9644660940671201
 40
0.0
 41
0.0
 42
0.0
 10
23.7778511650980136
 20
1820.342651938487279
 40
0.0
 41
0.0
 42
0.0
 10
22.9134171618254499
 20
1819.8806023374436336
 40
0.0
 41
0.0
 42
0.0
 10
21.9754516100806399
 20
1819.5960735979838319
 40
0.0
 41
0.0
 42
0.0
 10
21.0
 20
1819.5
 40
0.0
 41
0.0
 42
0.0
 10
20.0245483899193601
 20
1819.5960735979838319
 40
0.0
 41
0.0
 42
0.0
 10
19.0865828381745501
 20
1819.8806023374436336
 40
0.0
 41
0.0
 42
0.0
 10
18.2221488349019936
 20
1820.342651938487279
 40
0.0
 41
0.0
 42
0.0
 10
17.4644660940672622
 20
1820.9644660940671201
 40
0.0
 41
0.0
 42
0.0
 10
16.8426519384872719
 20
1821.7221488349018728
 40
0.0
 41
0.0
 42
0.0
 10
16.3806023374435625
 20
1822.5865828381745359
 40
0.0
 41
0.0
 42
0.0
 10
16.0960735979838461
 20
1823.5245483899193459
 40
0.0
 41
0.0
 42
0.0
 10
16.0
 20
1824.5
 40
0.0
 41
0.0
 42
0.0
 10
16.0960735979838461
 20
1825.4754516100806541
 40
0.0
 41
0.0
 42
0.0
 10
16.3806023374435625
 20
1826.4134171618254641
 40
0.0
 41
0.0
 42
0.0
 10
16.8426519384872719
 20
1827.2778511650981272
 40
0.0
 41
0.0
 42
0.0
 10
17.4644660940672622
 20
1828.0355339059328799
 40
0.0
 41
0.0
 42
0.0
 10
18.2221488349019936
 20
1828.657348061512721
 40
0.0
 41
0.0
 42
0.0
 10
19.0865828381745501
 20
1829.1193976625563664
 40
0.0
 41
0.0
 42
0.0
 10
20.0245483899193601
 20
1829.4039264020161681
 40
0.0
 41
0.0
 42
0.0
 10
21.0
 20
1829.5
 40
0.0
 41
0.0
 42
0.0
 10
21.9754516100806399
 20
1829.4039264020161681
 40
0.0
 41
0.0
 42
0.0
 10
22.9134171618254499
 20
1829.1193976625563664
 40
0.0
 41
0.0
 42
0.0
 10
23.7778511650980064
 20
1828.657348061512721
 40
0.0
 41
0.0
 42
0.0
  0
HATCH
  5
34
330
1D
100
AcDbEntity
  8
0
  6
ByLayer
420
14423100
 48
1.0
 60
0
 67
0
370
-1
100
AcDbHatch
 30
0.0
210
0.0
220
0.0
230
1.0
  2
SOLID
 70
1
 71
0
 91
1
 92
2
 72
0
 73
1
 93
33
 10
276.7573593128806806
 20
1837.2279220613577309
 10
277.0225243558256807
 20
1836.4324269325229579
 10
277.2876893987706239
 20
1835.636931803688185
 10
277.5528544417155672
 20
1834.8414366748534121
 10
277.8180194846605673
 20
1834.0459415460184118
 10
278.0831845276054537
 20
1833.2504464171834115
 10
278.3483495705504538
 20
1832.4549512883486386
 10
278.613514411190522
 20
1831.6594567664283204
 10
278.8786796564403971
 20
1830.8639610306788654
 10
279.1438446993852835
 20
1830.0684659018440925
 10
279.4090097423302268
 20
1829.2729707730090922
 10
279.6741745829703518
 20
1828.4774762510890014
 10
279.9393398282201701
 20
1827.6819805153395464
 10
280.2045048711651702
 20
1826.8864853865045461
 10
280.4696695095003065
 20
1826.09099147149891
 10
280.7348349570550567
 20
1825.2954951288347729
 10
281.0
 20
1824.5
 10
280.2045047953008066
 20
1824.7651649670806364
 10
279.4090095906016131
 20
1825.0303299341612728
 10
278.613514714647863
 20
1825.2954952299874094
 10
277.8180194846605104
 20
1825.560660171779773
 10
277.0225242546732147
 20
1825.825825113572364
 10
276.2270298339054193
 20
1826.090990055364955
 10
275.4315334912413391
 20
1826.3561555029195915
 10
274.6360389693210777
 20
1826.621320343559546
 10
273.8405450543154416
 20
1826.8864849818949097
 10
273.0450481047367361
 20
1827.1516506317543644
 10
272.2495541897311
 20
1827.4168152700897281
 10
271.4540596678108386
 20
1827.6819801107296826
 10
270.6585633251467016
 20
1827.9471455582843191
 10
269.8630694101411223
 20
1828.2123101966196828
 10
269.0675730674770421
 20
1828.4774756441743193
 10
268.2720779386421555
 20
1828.7426406871193194
 97
0
 75
0
 76
1
 47
0.0
 98
0
  0
LWPOLYLINE
  5
35
330
1D
100
AcDbEntity
  8
0
  6
ByLayer
420
14423100
 48
1.0
 60
0
 67
0
370
-1
100
AcDbPolyline
 90
33
 70
1
 43
0.0
 38
0.0
 39
0.0
210
0.0
220
0.0
230
1.0
 10
276.7573593128806806
 20
1837.2279220613577309
 40
0.0
 41
0.0
 42
0.0
 10
277.0225243558256807
 20
1836.4324269325229579
 40
0.0
 41
0.0
 42
0.0
 10
277.2876893987706239
 20
1835.636931803688185
 40
0.0
 41
0.0
 42
0.0
 10
277.5528544417155672
 20
1834.8414366748534121
 40
0.0
 41
0.0
 42
0.0
 10
277.8180194846605673
 20
1834.0459415460184118
 40
0.0
 41
0.0
 42
0.0
 10
278.0831845276054537
 20
1833.2504464171834115
 40
0.0
 41
0.0
 42
0.0
 10
278.3483495705504538
 20
1832.4549512883486386
 40
0.0
 41
0.0
 42
0.0
 10
278.613514411190522
 20
1831.6594567664283204
 40
0.0
 41
0.0
 42
0.0
 10
278.8786796564403971
 20
1830.8639610306788654
 40
0.0
 41
0.0
 42
0.0
 10
279.1438446993852835
 20
1830.0684659018440925
 40
0.0
 41
0.0
 42
0.0
 10
279.4090097423302268
 20
1829.2729707730090922
 40
0.0
 41
0.0
 42
0.0
 10
279.6741745829703518
 20
1828.4774762510890014
 40
0.0
 41
0.0
 42
0.0
 10
279.9393398282201701
 20
1827.6819805153395464
 40
0.0
 41
0.0
 42
0.0
 10
280.2045048711651702
 20
1826.8864853865045461
 40
0.0
 41
0.0
 42
0.0
 10
280.4696695095003065
 20
1826.09099147149891
 40
0.0
 41
0.0
 42
0.0
 10
280.7348349570550567
 20
1825.2954951288347729
 40
0.0
 41
0.0
 42
0.0
 10
281.0
 20
1824.5
 40
0.0
 41
0.0
 42
0.0
 10
280.2045047953008066
 20
1824.7651649670806364
 40
0.0
 41
0.0
 42
0.0
 10
279.4090095906016131
 20
1825.0303299341612728
 40
0.0
 41
0.0
 42
0.0
 10
278.613514714647863
 20
1825.2954952299874094
 40
0.0
 41
0.0
 42
0.0
 10
277.8180194846605104
 20
1825.560660171779773
 40
0.0
 41
0.0
 42
0.0
 10
277.0225242546732147
 20
1825.825825113572364
 40
0.0
 41
0.0
 42
0.0
 10
276.2270298339054193
 20
1826.090990055364955
 40
0.0
 41
0.0
 42
0.0
 10
275.4315334912413391
 20
1826.3561555029195915
 40
0.0
 41
0.0
 42
0.0
 10
274.6360389693210777
 20
1826.621320343559546
 40
0.0
 41
0.0
 42
0.0
 10
273.8405450543154416
 20
1826.8864849818949097
 40
0.0
 41
0.0
 42
0.0
 10
273.0450481047367361
 20
1827.1516506317543644
 40
0.0
 41
0.0
 42
0.0
 10
272.2495541897311
 20
1827.4168152700897281
 40
0.0
 41
0.0
 42
0.0
 10
271.4540596678108386
 20
1827.6819801107296826
 40
0.0
 41
0.0
 42
0.0
 10
270.6585633251467016
 20
1827.9471455582843191
 40
0.0
 41
0.0
 42
0.0
 10
269.8630694101411223
 20
1828.2123101966196828
 40
0.0
 41
0.0
 42
0.0
 10
269.0675730674770421
 20
1828.4774756441743193
 40
0.0
 41
0.0
 42
0.0
 10
268.2720779386421555
 20
1828.7426406871193194
 40
0.0
 41
0.0
 42
0.0
  0
HATCH
  5
36
330
1D
100
AcDbEntity
  8
0
  6
ByLayer
420
14423100
 48
1.0
 60
0
 67
0
370
-1
100
AcDbHatch
 30
0.0
210
0.0
220
0.0
230
1.0
  2
SOLID
 70
1
 71
0
 91
1
 92
2
 72
0
 73
1
 93
32
 10
85.9418584882530894
 20
1885.2602859212697695
 10
85.9952264883192186
 20
1884.2815684766476352
 10
85.8566307357945391
 20
1883.3112452329703501
 10
85.5313973877231604
 20
1882.386605168328515
 10
85.0320249792785319
 20
1881.5431816818625066
 10
84.3777041120658708
 20
1880.8133870651595316
 10
83.593579970064809
 20
1880.2252669160661753
 10
82.7097860043105726
 20
1879.8014223620905341
 10
81.7602859212697126
 20
1879.5581415117469533
 10
80.7815684766477062
 20
1879.5047735116806962
 10
79.8112452329703217
 20
1879.6433692642053757
 10
78.8866051683285292
 20
1879.9686026122767544
 10
78.0431816818624213
 20
1880.4679750207214965
 10
77.3133870651595032
 20
1881.1222958879341149
 10
76.7252669160661469
 20
1881.9064200299351342
 10
76.3014223620904488
 20
1882.7902139956895553
 10
76.0581415117469106
 20
1883.7397140787302305
 10
76.0047735116807814
 20
1884.7184315233523648
 10
76.1433692642054609
 20
1885.6887547670296499
 10
76.4686026122768254
 20
1886.613394831671485
 10
76.9679750207214681
 20
1887.4568183181374934
 10
77.6222958879341292
 20
1888.1866129348404684
 10
78.406420029935191
 20
1888.7747330839338247
 10
79.2902139956894274
 20
1889.1985776379094659
 10
80.2397140787302874
 20
1889.4418584882530467
 10
81.2184315233522938
 20
1889.4952264883193038
 10
82.1887547670296783
 20
1889.3566307357946243
 10
83.1133948316714708
 20
1889.0313973877232456
 10
83.9568183181375787
 20
1888.5320249792785035
 10
84.6866129348404968
 20
1887.8777041120658851
 10
85.2747330839338531
 20
1887.0935799700648658
 10
85.6985776379095512
 20
1886.2097860043104447
 97
0
 75
0
 76
1
 47
0.0
 98
0
  0
LWPOLYLINE
  5
37
330
1D
100
AcDbEntity
  8
0
  6
ByLayer
420
14423100
 48
1.0
 60
0
 67
0
370
-1
100
AcDbPolyline
 90
32
 70
1
 43
0.0
 38
0.0
 39
0.0
210
0.0
220
0.0
230
1.0
 10
85.9418584882530894
 20
1885.2602859212697695
 40
0.0
 41
0.0
 42
0.0
 10
85.9952264883192186
 20
1884.2815684766476352
 40
0.0
 41
0.0
 42
0.0
 10
85.8566307357945391
 20
1883.3112452329703501
 40
0.0
 41
0.0
 42
0.0
 10
85.5313973877231604
 20
1882.386605168328515
 40
0.0
 41
0.0
 42
0.0
 10
85.0320249792785319
 20
1881.5431816818625066
 40
0.0
 41
0.0
 42
0.0
 10
84.3777041120658708
 20
1880.8133870651595316
 40
0.0
 41
0.0
 42
0.0
 10
83.593579970064809
 20
1880.2252669160661753
 40
0.0
 41
0.0
 42
0.0
 10
82.7097860043105726
 20
1879.8014223620905341
 40
0.0
 41
0.0
 42
0.0
 10
81.7602859212697126
 20
1879.5581415117469533
 40
0.0
 41
0.0
 42
0.0
 10
80.7815684766477062
 20
1879.5047735116806962
 40
0.0
 41
0.0
 42
0.0
 10
79.8112452329703217
 20
1879.6433692642053757
 40
0.0
 41
0.0
 42
0.0
 10
78.8866051683285292
 20
1879.9686026122767544
 40
0.0
 41
0.0
 42
0.0
 10
78.0431816818624213
 20
1880.4679750207214965
 40
0.0
 41
0.0
 42
0.0
 10
77.3133870651595032
 20
1881.1222958879341149
 40
0.0
 41
0.0
 42
0.0
 10
76.7252669160661469
 20
1881.9064200299351342
 40
0.0
 41
0.0
 42
0.0
 10
76.3014223620904488
 20
1882.7902139956895553
 40
0.0
 41
0.0
 42
0.0
 10
76.0581415117469106
 20
1883.7397140787302305
 40
0.0
 41
0.0
 42
0.0
 10
76.0047735116807814
 20
1884.7184315233523648
 40
0.0
 41
0.0
 42
0.0
 10
76.1433692642054609
 20
1885.6887547670296499
 40
0.0
 41
0.0
 42
0.0
 10
76.4686026122768254
 20
1886.613394831671485
 40
0.0
 41
0.0
 42
0.0
 10
76.9679750207214681
 20
1887.4568183181374934
 40
0.0
 41
0.0
 42
0.0
 10
77.6222958879341292
 20
1888.1866129348404684
 40
0.0
 41
0.0
 42
0.0
 10
78.406420029935191
 20
1888.7747330839338247
 40
0.0
 41
0.0
 42
0.0
 10
79.2902139956894274
 20
1889.1985776379094659
 40
0.0
 41
0.0
 42
0.0
 10
80.2397140787302874
 20
1889.4418584882530467
 40
0.0
 41
0.0
 42
0.0
 10
81.2184315233522938
 20
1889.4952264883193038
 40
0.0
 41
0.0
 42
0.0
 10
82.1887547670296783
 20
1889.3566307357946243
 40
0.0
 41
0.0
 42
0.0
 10
83.1133948316714708
 20
1889.0313973877232456
 40
0.0
 41
0.0
 42
0.0
 10
83.9568183181375787
 20
1888.5320249792785035
 40
0.0
 41
0.0
 42
0.0
 10
84.6866129348404968
 20
1887.8777041120658851
 40
0.0
 41
0.0
 42
0.0
 10
85.2747330839338531
 20
1887.0935799700648658
 40
0.0
 41
0.0
 42
0.0
 10
85.6985776379095512
 20
1886.2097860043104447
 40
0.0
 41
0.0
 42
0.0
  0
HATCH
  5
38
330
1D
100
AcDbEntity
  8
0
  6
ByLayer
420
14423100
 48
1.0
 60
0
 67
0
370
-1
100
AcDbHatch
 30
0.0
210
0.0
220
0.0
230
1.0
  2
SOLID
 70
1
 71
0
 91
1
 92
2
 72
0
 73
1
 93
32
 10
156.0
 20
1844.5
 10
155.9039264020161397
 20
1843.5245483899193459
 10
155.6193976625564233
 20
1842.5865828381745359
 10
155.157348061512721
 20
1841.7221488349018728
 10
154.5355339059327378
 20
1840.9644660940671201
 10
153.7778511650980136
 20
1840.342651938487279
 10
152.9134171618254356
 20
1839.8806023374436336
 10
151.9754516100806541
 20
1839.5960735979838319
 10
151.0
 20
1839.5
 10
150.0245483899193459
 20
1839.5960735979838319
 10
149.0865828381745644
 20
1839.8806023374436336
 10
148.2221488349019864
 20
1840.342651938487279
 10
147.4644660940672622
 20
1840.9644660940671201
 10
146.842651938487279
 20
1841.7221488349018728
 10
146.3806023374435767
 20
1842.5865828381745359
 10
146.0960735979838603
 20
1843.5245483899193459
 10
146.0
 20
1844.5
 10
146.0960735979838603
 20
1845.4754516100806541
 10
146.3806023374435767
 20
1846.4134171618254641
 10
146.842651938487279
 20
1847.2778511650981272
 10
147.4644660940672622
 20
1848.0355339059326525
 10
148.2221488349019864
 20
1848.657348061512721
 10
149.0865828381745359
 20
1849.1193976625563664
 10
150.0245483899193459
 20
1849.4039264020161681
 10
151.0
 20
1849.5
 10
151.9754516100806541
 20
1849.4039264020161681
 10
152.9134171618254641
 20
1849.1193976625563664
 10
153.7778511650980136
 20
1848.657348061512721
 10
154.5355339059327378
 20
1848.0355339059328799
 10
155.157348061512721
 20
1847.2778511650981272
 10
155.6193976625564233
 20
1846.4134171618254641
 10
155.9039264020161397
 20
1845.4754516100806541
 97
0
 75
0
 76
1
 47
0.0
 98
0
  0
LWPOLYLINE
  5
39
330
1D
100
AcDbEntity
  8
0
  6
ByLayer
420
14423100
 48
1.0
 60
0
 67
0
370
-1
100
AcDbPolyline
 90
32
 70
1
 43
0.0
 38
0.0
 39
0.0
210
0.0
220
0.0
230
1.0
 10
156.0
 20
1844.5
 40
0.0
 41
0.0
 42
0.0
 10
155.9039264020161397
 20
1843.5245483899193459
 40
0.0
 41
0.0
 42
0.0
 10
155.6193976625564233
 20
1842.5865828381745359
 40
0.0
 41
0.0
 42
0.0
 10
155.157348061512721
 20
1841.7221488349018728
 40
0.0
 41
0.0
 42
0.0
 10
154.5355339059327378
 20
1840.9644660940671201
 40
0.0
 41
0.0
 42
0.0
 10
153.7778511650980136
 20
1840.342651938487279
 40
0.0
 41
0.0
 42
0.0
 10
152.9134171618254356
 20
1839.8806023374436336
 40
0.0
 41
0.0
 42
0.0
 10
151.9754516100806541
 20
1839.5960735979838319
 40
0.0
 41
0.0
 42
0.0
 10
151.0
 20
1839.5
 40
0.0
 41
0.0
 42
0.0
 10
150.0245483899193459
 20
1839.5960735979838319
 40
0.0
 41
0.0
 42
0.0
 10
149.0865828381745644
 20
1839.8806023374436336
 40
0.0
 41
0.0
 42
0.0
 10
148.2221488349019864
 20
1840.342651938487279
 40
0.0
 41
0.0
 42
0.0
 10
147.4644660940672622
 20
1840.9644660940671201
 40
0.0
 41
0.0
 42
0.0
 10
146.842651938487279
 20
1841.7221488349018728
 40
0.0
 41
0.0
 42
0.0
 10
146.3806023374435767
 20
1842.5865828381745359
 40
0.0
 41
0.0
 42
0.0
 10
146.0960735979838603
 20
1843.5245483899193459
 40
0.0
 41
0.0
 42
0.0
 10
146.0
 20
1844.5
 40
0.0
 41
0.0
 42
0.0
 10
146.0960735979838603
 20
1845.4754516100806541
 40
0.0
 41
0.0
 42
0.0
 10
146.3806023374435767
 20
1846.4134171618254641
 40
0.0
 41
0.0
 42
0.0
 10
146.842651938487279
 20
1847.2778511650981272
 40
0.0
 41
0.0
 42
0.0
 10
147.4644660940672622
 20
1848.0355339059326525
 40
0.0
 41
0.0
 42
0.0
 10
148.2221488349019864
 20
1848.657348061512721
 40
0.0
 41
0.0
 42
0.0
 10
149.0865828381745359
 20
1849.1193976625563664
 40
0.0
 41
0.0
 42
0.0
 10
150.0245483899193459
 20
1849.4039264020161681
 40
0.0
 41
0.0
 42
0.0
 10
151.0
 20
1849.5
 40
0.0
 41
0.0
 42
0.0
 10
151.9754516100806541
 20
1849.4039264020161681
 40
0.0
 41
0.0
 42
0.0
 10
152.9134171618254641
 20
1849.1193976625563664
 40
0.0
 41
0.0
 42
0.0
 10
153.7778511650980136
 20
1848.657348061512721
 40
0.0
 41
0.0
 42
0.0
 10
154.5355339059327378
 20
1848.0355339059328799
 40
0.0
 41
0.0
 42
0.0
 10
155.157348061512721
 20
1847.2778511650981272
 40
0.0
 41
0.0
 42
0.0
 10
155.6193976625564233
 20
1846.4134171618254641
 40
0.0
 41
0.0
 42
0.0
 10
155.9039264020161397
 20
1845.4754516100806541
 40
0.0
 41
0.0
 42
0.0
  0
HATCH
  5
3A
330
1D
100
AcDbEntity
  8
0
  6
ByLayer
420
14423100
 48
1.0
 60
0
 67
0
370
-1
100
AcDbHatch
 30
0.0
210
0.0
220
0.0
230
1.0
  2
SOLID
 70
1
 71
0
 91
1
 92
2
 72
0
 73
1
 93
32
 10
225.9418584882530752
 20
1883.7397140787302305
 10
225.6985776379095512
 20
1882.7902139956895553
 10
225.2747330839338531
 20
1881.9064200299351342
 10
224.6866129348404968
 20
1881.1222958879341149
 10
223.9568183181375787
 20
1880.4679750207214965
 10
223.1133948316714566
 20
1879.9686026122767544
 10
222.1887547670296783
 20
1879.6433692642053757
 10
221.218431523352308
 20
1879.5047735116806962
 10
220.2397140787302874
 20
1879.5581415117469533
 10
219.2902139956894416
 20
1879.8014223620905341
 10
218.4064200299351626
 20
1880.2252669160661753
 10
217.6222958879341434
 20
1880.8133870651595316
 10
216.9679750207214681
 20
1881.5431816818625066
 10
216.4686026122768396
 20
1882.386605168328515
 10
216.1433692642054609
 20
1883.3112452329703501
 10
216.0047735116807814
 20
1884.2815684766476352
 10
216.0581415117469248
 20
1885.2602859212697695
 10
216.3014223620904488
 20
1886.2097860043104447
 10
216.7252669160661469
 20
1887.0935799700648658
 10
217.3133870651595032
 20
1887.8777041120658851
 10
218.0431816818624213
 20
1888.5320249792785035
 10
218.8866051683285434
 20
1889.0313973877232456
 10
219.8112452329703217
 20
1889.3566307357946243
 10
220.781568476647692
 20
1889.4952264883193038
 10
221.7602859212697126
 20
1889.4418584882530467
 10
222.7097860043105584
 20
1889.1985776379094659
 10
223.5935799700648374
 20
1888.7747330839338247
 10
224.3777041120658566
 20
1888.1866129348404684
 10
225.0320249792785319
 20
1887.4568183181374934
 10
225.5313973877231604
 20
1886.613394831671485
 10
225.8566307357945391
 20
1885.6887547670296499
 10
225.9952264883192186
 20
1884.7184315233523648
 97
0
 75
0
 76
1
 47
0.0
 98
0
  0
LWPOLYLINE
  5
3B
330
1D
100
AcDbEntity
  8
0
  6
ByLayer
420
14423100
 48
1.0
 60
0
 67
0
370
-1
100
AcDbPolyline
 90
32
 70
1
 43
0.0
 38
0.0
 39
0.0
210
0.0
220
0.0
230
1.0
 10
225.9418584882530752
 20
1883.7397140787302305
 40
0.0
 41
0.0
 42
0.0
 10
225.6985776379095512
 20
1882.7902139956895553
 40
0.0
 41
0.0
 42
0.0
 10
225.2747330839338531
 20
1881.9064200299351342
 40
0.0
 41
0.0
 42
0.0
 10
224.6866129348404968
 20
1881.1222958879341149
 40
0.0
 41
0.0
 42
0.0
 10
223.9568183181375787
 20
1880.4679750207214965
 40
0.0
 41
0.0
 42
0.0
 10
223.1133948316714566
 20
1879.9686026122767544
 40
0.0
 41
0.0
 42
0.0
 10
222.1887547670296783
 20
1879.6433692642053757
 40
0.0
 41
0.0
 42
0.0
 10
221.218431523352308
 20
1879.5047735116806962
 40
0.0
 41
0.0
 42
0.0
 10
220.2397140787302874
 20
1879.5581415117469533
 40
0.0
 41
0.0
 42
0.0
 10
219.2902139956894416
 20
1879.8014223620905341
 40
0.0
 41
0.0
 42
0.0
 10
218.4064200299351626
 20
1880.2252669160661753
 40
0.0
 41
0.0
 42
0.0
 10
217.6222958879341434
 20
1880.8133870651595316
 40
0.0
 41
0.0
 42
0.0
 10
216.9679750207214681
 20
1881.5431816818625066
 40
0.0
 41
0.0
 42
0.0
 10
216.4686026122768396
 20
1882.386605168328515
 40
0.0
 41
0.0
 42
0.0
 10
216.1433692642054609
 20
1883.3112452329703501
 40
0.0
 41
0.0
 42
0.0
 10
216.0047735116807814
 20
1884.2815684766476352
 40
0.0
 41
0.0
 42
0.0
 10
216.0581415117469248
 20
1885.2602859212697695
 40
0.0
 41
0.0
 42
0.0
 10
216.3014223620904488
 20
1886.2097860043104447
 40
0.0
 41
0.0
 42
0.0
 10
216.7252669160661469
 20
1887.0935799700648658
 40
0.0
 41
0.0
 42
0.0
 10
217.3133870651595032
 20
1887.8777041120658851
 40
0.0
 41
0.0
 42
0.0
 10
218.0431816818624213
 20
1888.5320249792785035
 40
0.0
 41
0.0
 42
0.0
 10
218.8866051683285434
 20
1889.0313973877232456
 40
0.0
 41
0.0
 42
0.0
 10
219.8112452329703217
 20
1889.3566307357946243
 40
0.0
 41
0.0
 42
0.0
 10
220.781568476647692
 20
1889.4952264883193038
 40
0.0
 41
0.0
 42
0.0
 10
221.7602859212697126
 20
1889.4418584882530467
 40
0.0
 41
0.0
 42
0.0
 10
222.7097860043105584
 20
1889.1985776379094659
 40
0.0
 41
0.0
 42
0.0
 10
223.5935799700648374
 20
1888.7747330839338247
 40
0.0
 41
0.0
 42
0.0
 10
224.3777041120658566
 20
1888.1866129348404684
 40
0.0
 41
0.0
 42
0.0
 10
225.0320249792785319
 20
1887.4568183181374934
 40
0.0
 41
0.0
 42
0.0
 10
225.5313973877231604
 20
1886.613394831671485
 40
0.0
 41
0.0
 42
0.0
 10
225.8566307357945391
 20
1885.6887547670296499
 40
0.0
 41
0.0
 42
0.0
 10
225.9952264883192186
 20
1884.7184315233523648
 40
0.0
 41
0.0
 42
0.0
  0
TEXT
  5
3C
330
1D
100
AcDbEntity
  8
0
  6
ByLayer
420
5592405
 48
1.0
 60
0
 67
0
370
-1
100
AcDbText
 39
0.0
 10
0.0
 20
1766.0
 30
0.0
 40
14.0
  1
3. Inline SVG – Marker on polygon vertices
 50
0.0
 41
1.0
 51
0.0
  7
Standard
 71
0
 72
0
 11
0.0
 21
0.0
 31
0.0
210
0.0
220
0.0
230
1.0
100
AcDbText
 73
0
  0
LWPOLYLINE
  5
3D
330
1D
100
AcDbEntity
  8
0
  6
ByLayer
420
13421772
 48
1.0
 60
0
 67
0
370
-1
100
AcDbPolyline
 90
4
 70
1
 43
0.0
 38
0.0
 39
0.0
210
0.0
220
0.0
230
1.0
 10
0.0
 20
1753.0
 40
0.0
 41
0.0
 42
0.0
 10
200.0
 20
1753.0
 40
0.0
 41
0.0
 42
0.0
 10
200.0
 20
1553.0
 40
0.0
 41
0.0
 42
0.0
 10
0.0
 20
1553.0
 40
0.0
 41
0.0
 42
0.0
  0
LWPOLYLINE
  5
3E
330
1D
100
AcDbEntity
  8
0
  6
ByLayer
420
16747520
 48
1.0
 60
0
 67
0
370
-1
100
AcDbPolyline
 90
5
 70
1
 43
0.0
 38
0.0
 39
0.0
210
0.0
220
0.0
230
1.0
 10
101.0
 20
1732.0
 40
0.0
 41
0.0
 42
0.0
 10
181.0
 20
1672.0
 40
0.0
 41
0.0
 42
0.0
 10
151.0
 20
1582.0
 40
0.0
 41
0.0
 42
0.0
 10
51.0
 20
1582.0
 40
0.0
 41
0.0
 42
0.0
 10
21.0
 20
1672.0
 40
0.0
 41
0.0
 42
0.0
  0
HATCH
  5
3F
330
1D
100
AcDbEntity
  8
0
  6
ByLayer
420
16747520
 48
1.0
 60
0
 67
0
370
-1
100
AcDbHatch
 30
0.0
210
0.0
220
0.0
230
1.0
  2
SOLID
 70
1
 71
0
 91
1
 92
2
 72
0
 73
1
 93
4
 10
99.7999999999999972
 20
1740.4000000000000909
 10
109.4000000000000057
 20
1733.2000000000000455
 10
102.2000000000000028
 20
1723.5999999999999091
 10
92.6000000000000085
 20
1730.7999999999999545
 97
0
 75
0
 76
1
 47
0.0
 98
0
  0
LWPOLYLINE
  5
40
330
1D
100
AcDbEntity
  8
0
  6
ByLayer
420
16747520
 48
1.0
 60
0
 67
0
370
-1
100
AcDbPolyline
 90
4
 70
1
 43
0.0
 38
0.0
 39
0.0
210
0.0
220
0.0
230
1.0
 10
99.7999999999999972
 20
1740.4000000000000909
 40
0.0
 41
0.0
 42
0.0
 10
109.4000000000000057
 20
1733.2000000000000455
 40
0.0
 41
0.0
 42
0.0
 10
102.2000000000000028
 20
1723.5999999999999091
 40
0.0
 41
0.0
 42
0.0
 10
92.6000000000000085
 20
1730.7999999999999545
 40
0.0
 41
0.0
 42
0.0
  0
HATCH
  5
41
330
1D
100
AcDbEntity
  8
0
  6
ByLayer
420
16747520
 48
1.0
 60
0
 67
0
370
-1
100
AcDbHatch
 30
0.0
210
0.0
220
0.0
230
1.0
  2
SOLID
 70
1
 71
0
 91
1
 92
2
 72
0
 73
1
 93
4
 10
184.7947331922020453
 20
1679.5894663844042043
 10
188.5894663844040906
 20
1668.2052668077978979
 10
177.2052668077979547
 20
1664.4105336155957957
 10
173.4105336155959094
 20
1675.7947331922021021
 97
0
 75
0
 76
1
 47
0.0
 98
0
  0
LWPOLYLINE
  5
42
330
1D
100
AcDbEntity
  8
0
  6
ByLayer
420
16747520
 48
1.0
 60
0
 67
0
370
-1
100
AcDbPolyline
 90
4
 70
1
 43
0.0
 38
0.0
 39
0.0
210
0.0
220
0.0
230
1.0
 10
184.7947331922020453
 20
1679.5894663844042043
 40
0.0
 41
0.0
 42
0.0
 10
188.5894663844040906
 20
1668.2052668077978979
 40
0.0
 41
0.0
 42
0.0
 10
177.2052668077979547
 20
1664.4105336155957957
 40
0.0
 41
0.0
 42
0.0
 10
173.4105336155959094
 20
1675.7947331922021021
 40
0.0
 41
0.0
 42
0.0
  0
HATCH
  5
43
330
1D
100
AcDbEntity
  8
0
  6
ByLayer
420
16747520
 48
1.0
 60
0
 67
0
370
-1
100
AcDbHatch
 30
0.0
210
0.0
220
0.0
230
1.0
  2
SOLID
 70
1
 71
0
 91
1
 92
2
 72
0
 73
1
 93
4
 10
159.3484130228445395
 20
1580.4821067231191591
 10
149.4821067231191876
 20
1573.6515869771556027
 10
142.6515869771554605
 20
1583.5178932768808409
 10
152.5178932768808124
 20
1590.3484130228443973
 97
0
 75
0
 76
1
 47
0.0
 98
0
  0
LWPOLYLINE
  5
44
330
1D
100
AcDbEntity
  8
0
  6
ByLayer
420
16747520
 48
1.0
 60
0
 67
0
370
-1
100
AcDbPolyline
 90
4
 70
1
 43
0.0
 38
0.0
 39
0.0
210
0.0
220
0.0
230
1.0
 10
159.3484130228445395
 20
1580.4821067231191591
 40
0.0
 41
0.0
 42
0.0
 10
149.4821067231191876
 20
1573.6515869771556027
 40
0.0
 41
0.0
 42
0.0
 10
142.6515869771554605
 20
1583.5178932768808409
 40
0.0
 41
0.0
 42
0.0
 10
152.5178932768808124
 20
1590.3484130228443973
 40
0.0
 41
0.0
 42
0.0
  0
HATCH
  5
45
330
1D
100
AcDbEntity
  8
0
  6
ByLayer
420
16747520
 48
1.0
 60
0
 67
0
370
-1
100
AcDbHatch
 30
0.0
210
0.0
220
0.0
230
1.0
  2
SOLID
 70
1
 71
0
 91
1
 92
2
 72
0
 73
1
 93
4
 10
52.5178932768808266
 20
1573.6515869771556027
 10
42.6515869771554748
 20
1580.4821067231191591
 10
49.4821067231191734
 20
1590.3484130228443973
 10
59.3484130228445252
 20
1583.5178932768808409
 97
0
 75
0
 76
1
 47
0.0
 98
0
  0
LWPOLYLINE
  5
46
330
1D
100
AcDbEntity
  8
0
  6
ByLayer
420
16747520
 48
1.0
 60
0
 67
0
370
-1
100
AcDbPolyline
 90
4
 70
1
 43
0.0
 38
0.0
 39
0.0
210
0.0
220
0.0
230
1.0
 10
52.5178932768808266
 20
1573.6515869771556027
 40
0.0
 41
0.0
 42
0.0
 10
42.6515869771554748
 20
1580.4821067231191591
 40
0.0
 41
0.0
 42
0.0
 10
49.4821067231191734
 20
1590.3484130228443973
 40
0.0
 41
0.0
 42
0.0
 10
59.3484130228445252
 20
1583.5178932768808409
 40
0.0
 41
0.0
 42
0.0
  0
HATCH
  5
47
330
1D
100
AcDbEntity
  8
0
  6
ByLayer
420
16747520
 48
1.0
 60
0
 67
0
370
-1
100
AcDbHatch
 30
0.0
210
0.0
220
0.0
230
1.0
  2
SOLID
 70
1
 71
0
 91
1
 92
2
 72
0
 73
1
 93
4
 10
13.4105336155958881
 20
1668.2052668077978979
 10
17.2052668077979476
 20
1679.5894663844042043
 10
28.5894663844041119
 20
1675.7947331922021021
 10
24.7947331922020524
 20
1664.4105336155957957
 97
0
 75
0
 76
1
 47
0.0
 98
0
  0
LWPOLYLINE
  5
48
330
1D
100
AcDbEntity
  8
0
  6
ByLayer
420
16747520
 48
1.0
 60
0
 67
0
370
-1
100
AcDbPolyline
 90
4
 70
1
 43
0.0
 38
0.0
 39
0.0
210
0.0
220
0.0
230
1.0
 10
13.4105336155958881
 20
1668.2052668077978979
 40
0.0
 41
0.0
 42
0.0
 10
17.2052668077979476
 20
1679.5894663844042043
 40
0.0
 41
0.0
 42
0.0
 10
28.5894663844041119
 20
1675.7947331922021021
 40
0.0
 41
0.0
 42
0.0
 10
24.7947331922020524
 20
1664.4105336155957957
 40
0.0
 41
0.0
 42
0.0
  0
TEXT
  5
49
330
1D
100
AcDbEntity
  8
0
  6
ByLayer
420
5592405
 48
1.0
 60
0
 67
0
370
-1
100
AcDbText
 39
0.0
 10
0.0
 20
1513.5
 30
0.0
 40
14.0
  1
4. ViewBox scaling – large viewBox in small viewport
 50
0.0
 41
1.0
 51
0.0
  7
Standard
 71
0
 72
0
 11
0.0
 21
0.0
 31
0.0
210
0.0
220
0.0
230
1.0
100
AcDbText
 73
0
  0
LWPOLYLINE
  5
4A
330
1D
100
AcDbEntity
  8
0
  6
ByLayer
420
13421772
 48
1.0
 60
0
 67
0
370
-1
100
AcDbPolyline
 90
4
 70
1
 43
0.0
 38
0.0
 39
0.0
210
0.0
220
0.0
230
1.0
 10
0.0
 20
1500.5
 40
0.0
 41
0.0
 42
0.0
 10
200.0
 20
1500.5
 40
0.0
 41
0.0
 42
0.0
 10
200.0
 20
1400.5
 40
0.0
 41
0.0
 42
0.0
 10
0.0
 20
1400.5
 40
0.0
 41
0.0
 42
0.0
  0
LWPOLYLINE
  5
4B
330
1D
100
AcDbEntity
  8
0
  6
ByLayer
420
32768
 48
1.0
 60
0
 67
0
370
-1
100
AcDbPolyline
 90
2
 70
0
 43
0.0
 38
0.0
 39
0.0
210
0.0
220
0.0
230
1.0
 10
21.5999994874000549
 20
1450.5000012814998627
 40
0.0
 41
0.0
 42
0.0
 10
178.3999953866004944
 20
1450.5000012814998627
 40
0.0
 41
0.0
 42
0.0
  0
HATCH
  5
4C
330
1D
100
AcDbEntity
  8
0
  6
ByLayer
420
32768
 48
1.0
 60
0
 67
0
370
-1
100
AcDbHatch
 30
0.0
210
0.0
220
0.0
230
1.0
  2
SOLID
 70
1
 71
0
 91
1
 92
2
 72
0
 73
1
 93
33
 10
166.6399956941604614
 20
1456.3800011277198792
 10
167.3749956749379635
 20
1456.0125011373311281
 10
168.1099956557154655
 20
1455.6450011469423771
 10
168.8449956364929676
 20
1455.2775011565536261
 10
169.5799956172704697
 20
1454.910001166164875
 10
170.3149955980479717
 20
1454.542501175776124
 10
171.0499955788254738
 20
1454.175001185387373
 10
171.7849949988424783
 20
1453.8075014753790128
 10
172.5199955403804779
 20
1453.4400012046098709
 10
173.25499552115798
 20
1453.0725012142211199
 10
173.989995501935482
 20
1452.7050012238323689
 10
174.7249949219525149
 20
1452.3375015138240087
 10
175.4599954634904861
 20
1451.9700012430548668
 10
176.1949954442679882
 20
1451.6025012526661158
 10
176.9299943035245235
 20
1451.2350018230376918
 10
177.6649954058229923
 20
1450.8675012718886137
 10
178.3999953866004944
 20
1450.5000012814998627
 10
177.6649954058229923
 20
1450.1325011859685219
 10
176.9299954250454903
 20
1449.7650010904371811
 10
176.1949954442679882
 20
1449.3975014505235777
 10
175.4599954634904861
 20
1449.0300013199448586
 10
174.7249954827129841
 20
1448.6625011893661394
 10
173.9899960626959796
 20
1448.2950016195477474
 10
173.2549949603974824
 20
1447.9275010683982146
 10
172.5199955403804779
 20
1447.5600013583898544
 10
171.7849966811239426
 20
1447.1925019287614305
 10
171.0499950180649762
 20
1446.8250010972319615
 10
170.3149961588084693
 20
1446.4575016676039922
 10
169.5799967387914364
 20
1446.0900019575951774
 10
168.8449956364929676
 20
1445.7225014064460993
 10
168.1099967772364323
 20
1445.3550019768176753
 10
167.3749956749379635
 20
1444.9875014256685972
 10
166.6399956941604614
 20
1444.6200014352798462
 97
0
 75
0
 76
1
 47
0.0
 98
0
  0
LWPOLYLINE
  5
4D
330
1D
100
AcDbEntity
  8
0
  6
ByLayer
420
32768
 48
1.0
 60
0
 67
0
370
-1
100
AcDbPolyline
 90
33
 70
1
 43
0.0
 38
0.0
 39
0.0
210
0.0
220
0.0
230
1.0
 10
166.6399956941604614
 20
1456.3800011277198792
 40
0.0
 41
0.0
 42
0.0
 10
167.3749956749379635
 20
1456.0125011373311281
 40
0.0
 41
0.0
 42
0.0
 10
168.1099956557154655
 20
1455.6450011469423771
 40
0.0
 41
0.0
 42
0.0
 10
168.8449956364929676
 20
1455.2775011565536261
 40
0.0
 41
0.0
 42
0.0
 10
169.5799956172704697
 20
1454.910001166164875
 40
0.0
 41
0.0
 42
0.0
 10
170.3149955980479717
 20
1454.542501175776124
 40
0.0
 41
0.0
 42
0.0
 10
171.0499955788254738
 20
1454.175001185387373
 40
0.0
 41
0.0
 42
0.0
 10
171.7849949988424783
 20
1453.8075014753790128
 40
0.0
 41
0.0
 42
0.0
 10
172.5199955403804779
 20
1453.4400012046098709
 40
0.0
 41
0.0
 42
0.0
 10
173.25499552115798
 20
1453.0725012142211199
 40
0.0
 41
0.0
 42
0.0
 10
173.989995501935482
 20
1452.7050012238323689
 40
0.0
 41
0.0
 42
0.0
 10
174.7249949219525149
 20
1452.3375015138240087
 40
0.0
 41
0.0
 42
0.0
 10
175.4599954634904861
 20
1451.9700012430548668
 40
0.0
 41
0.0
 42
0.0
 10
176.1949954442679882
 20
1451.6025012526661158
 40
0.0
 41
0.0
 42
0.0
 10
176.9299943035245235
 20
1451.2350018230376918
 40
0.0
 41
0.0
 42
0.0
 10
177.6649954058229923
 20
1450.8675012718886137
 40
0.0
 41
0.0
 42
0.0
 10
178.3999953866004944
 20
1450.5000012814998627
 40
0.0
 41
0.0
 42
0.0
 10
177.6649954058229923
 20
1450.1325011859685219
 40
0.0
 41
0.0
 42
0.0
 10
176.9299954250454903
 20
1449.7650010904371811
 40
0.0
 41
0.0
 42
0.0
 10
176.1949954442679882
 20
1449.3975014505235777
 40
0.0
 41
0.0
 42
0.0
 10
175.4599954634904861
 20
1449.0300013199448586
 40
0.0
 41
0.0
 42
0.0
 10
174.7249954827129841
 20
1448.6625011893661394
 40
0.0
 41
0.0
 42
0.0
 10
173.9899960626959796
 20
1448.2950016195477474
 40
0.0
 41
0.0
 42
0.0
 10
173.2549949603974824
 20
1447.9275010683982146
 40
0.0
 41
0.0
 42
0.0
 10
172.5199955403804779
 20
1447.5600013583898544
 40
0.0
 41
0.0
 42
0.0
 10
171.7849966811239426
 20
1447.1925019287614305
 40
0.0
 41
0.0
 42
0.0
 10
171.0499950180649762
 20
1446.8250010972319615
 40
0.0
 41
0.0
 42
0.0
 10
170.3149961588084693
 20
1446.4575016676039922
 40
0.0
 41
0.0
 42
0.0
 10
169.5799967387914364
 20
1446.0900019575951774
 40
0.0
 41
0.0
 42
0.0
 10
168.8449956364929676
 20
1445.7225014064460993
 40
0.0
 41
0.0
 42
0.0
 10
168.1099967772364323
 20
1445.3550019768176753
 40
0.0
 41
0.0
 42
0.0
 10
167.3749956749379635
 20
1444.9875014256685972
 40
0.0
 41
0.0
 42
0.0
 10
166.6399956941604614
 20
1444.6200014352798462
 40
0.0
 41
0.0
 42
0.0
  0
TEXT
  5
4E
330
1D
100
AcDbEntity
  8
0
  6
ByLayer
420
5592405
 48
1.0
 60
0
 67
0
370
-1
100
AcDbText
 39
0.0
 10
0.0
 20
1361.0
 30
0.0
 40
14.0
  1
5. ViewBox scaling – small viewBox in large viewport
 50
0.0
 41
1.0
 51
0.0
  7
Standard
 71
0
 72
0
 11
0.0
 21
0.0
 31
0.0
210
0.0
220
0.0
230
1.0
100
AcDbText
 73
0
  0
LWPOLYLINE
  5
4F
330
1D
100
AcDbEntity
  8
0
  6
ByLayer
420
13421772
 48
1.0
 60
0
 67
0
370
-1
100
AcDbPolyline
 90
4
 70
1
 43
0.0
 38
0.0
 39
0.0
210
0.0
220
0.0
230
1.0
 10
0.0
 20
1348.0
 40
0.0
 41
0.0
 42
0.0
 10
400.0
 20
1348.0
 40
0.0
 41
0.0
 42
0.0
 10
400.0
 20
1148.0
 40
0.0
 41
0.0
 42
0.0
 10
0.0
 20
1148.0
 40
0.0
 41
0.0
 42
0.0
  0
LWPOLYLINE
  5
50
330
1D
100
AcDbEntity
  8
0
  6
ByLayer
420
8388736
 48
1.0
 60
0
 67
0
370
-1
100
AcDbPolyline
 90
2
 70
0
 43
0.0
 38
0.0
 39
0.0
210
0.0
220
0.0
230
1.0
 10
41.6000003814697266
 20
1247.9999990463256836
 40
0.0
 41
0.0
 42
0.0
 10
358.4000034332275391
 20
1247.9999990463256836
 40
0.0
 41
0.0
 42
0.0
  0
HATCH
  5
51
330
1D
100
AcDbEntity
  8
0
  6
ByLayer
420
8388736
 48
1.0
 60
0
 67
0
370
-1
100
AcDbHatch
 30
0.0
210
0.0
220
0.0
230
1.0
  2
SOLID
 70
1
 71
0
 91
1
 92
2
 72
0
 73
1
 93
33
 10
310.8800029754638672
 20
1271.7599992752075195
 10
313.8500030040740967
 20
1270.2749992609024048
 10
316.8200030326843262
 20
1268.78999924659729
 10
319.7900030612945557
 20
1267.3049992322921753
 10
322.7600030899047852
 20
1265.8199992179870605
 10
325.7300031185150146
 20
1264.3349992036819458
 10
328.7000031471252441
 20
1262.8499991893768311
 10
331.6700009098052533
 20
1261.3650003080367696
 10
334.6400032043457031
 20
1259.8799991607666016
 10
337.6100032329559326
 20
1258.3949991464614868
 10
340.5800032615661621
 20
1256.9099991321563721
 10
343.5500010242461713
 20
1255.4250002508163107
 10
346.5200033187866211
 20
1253.9399991035461426
 10
349.4900033473968506
 20
1252.4549990892410278
 10
352.4599988441466962
 20
1250.9700013408660197
 10
355.4300034046173096
 20
1249.4849990606307983
 10
358.4000034332275391
 20
1247.9999990463256836
 10
355.4300034046173096
 20
1246.5149986071587591
 10
352.4600033760070801
 20
1245.0299981679916073
 10
349.4900033473968506
 20
1243.5449995698927523
 10
346.5200033187866211
 20
1242.0599989891052246
 10
343.5500032901763916
 20
1240.5749984083176969
 10
340.5800055274963825
 20
1239.0900000934600484
 10
337.6100009670257123
 20
1237.604997813224827
 10
334.6400032043457031
 20
1236.1199989318847656
 10
331.6700077075958575
 20
1234.6350011835097575
 10
328.7000008811950238
 20
1233.1499977703094828
 10
325.730005384445235
 20
1231.6650000219344747
 10
322.760007621765169
 20
1230.1800011405944133
 10
319.7900030612945557
 20
1228.6949988603591919
 10
316.82000756454471
 20
1227.2100011119841838
 10
313.8500030040740967
 20
1225.7249988317489624
 10
310.8800029754638672
 20
1224.2399988174438477
 97
0
 75
0
 76
1
 47
0.0
 98
0
  0
LWPOLYLINE
  5
52
330
1D
100
AcDbEntity
  8
0
  6
ByLayer
420
8388736
 48
1.0
 60
0
 67
0
370
-1
100
AcDbPolyline
 90
33
 70
1
 43
0.0
 38
0.0
 39
0.0
210
0.0
220
0.0
230
1.0
 10
310.8800029754638672
 20
1271.7599992752075195
 40
0.0
 41
0.0
 42
0.0
 10
313.8500030040740967
 20
1270.2749992609024048
 40
0.0
 41
0.0
 42
0.0
 10
316.8200030326843262
 20
1268.78999924659729
 40
0.0
 41
0.0
 42
0.0
 10
319.7900030612945557
 20
1267.3049992322921753
 40
0.0
 41
0.0
 42
0.0
 10
322.7600030899047852
 20
1265.8199992179870605
 40
0.0
 41
0.0
 42
0.0
 10
325.7300031185150146
 20
1264.3349992036819458
 40
0.0
 41
0.0
 42
0.0
 10
328.7000031471252441
 20
1262.8499991893768311
 40
0.0
 41
0.0
 42
0.0
 10
331.6700009098052533
 20
1261.3650003080367696
 40
0.0
 41
0.0
 42
0.0
 10
334.6400032043457031
 20
1259.8799991607666016
 40
0.0
 41
0.0
 42
0.0
 10
337.6100032329559326
 20
1258.3949991464614868
 40
0.0
 41
0.0
 42
0.0
 10
340.5800032615661621
 20
1256.9099991321563721
 40
0.0
 41
0.0
 42
0.0
 10
343.5500010242461713
 20
1255.4250002508163107
 40
0.0
 41
0.0
 42
0.0
 10
346.5200033187866211
 20
1253.9399991035461426
 40
0.0
 41
0.0
 42
0.0
 10
349.4900033473968506
 20
1252.4549990892410278
 40
0.0
 41
0.0
 42
0.0
 10
352.4599988441466962
 20
1250.9700013408660197
 40
0.0
 41
0.0
 42
0.0
 10
355.4300034046173096
 20
1249.4849990606307983
 40
0.0
 41
0.0
 42
0.0
 10
358.4000034332275391
 20
1247.9999990463256836
 40
0.0
 41
0.0
 42
0.0
 10
355.4300034046173096
 20
1246.5149986071587591
 40
0.0
 41
0.0
 42
0.0
 10
352.4600033760070801
 20
1245.0299981679916073
 40
0.0
 41
0.0
 42
0.0
 10
349.4900033473968506
 20
1243.5449995698927523
 40
0.0
 41
0.0
 42
0.0
 10
346.5200033187866211
 20
1242.0599989891052246
 40
0.0
 41
0.0
 42
0.0
 10
343.5500032901763916
 20
1240.5749984083176969
 40
0.0
 41
0.0
 42
0.0
 10
340.5800055274963825
 20
1239.0900000934600484
 40
0.0
 41
0.0
 42
0.0
 10
337.6100009670257123
 20
1237.604997813224827
 40
0.0
 41
0.0
 42
0.0
 10
334.6400032043457031
 20
1236.1199989318847656
 40
0.0
 41
0.0
 42
0.0
 10
331.6700077075958575
 20
1234.6350011835097575
 40
0.0
 41
0.0
 42
0.0
 10
328.7000008811950238
 20
1233.1499977703094828
 40
0.0
 41
0.0
 42
0.0
 10
325.730005384445235
 20
1231.6650000219344747
 40
0.0
 41
0.0
 42
0.0
 10
322.760007621765169
 20
1230.1800011405944133
 40
0.0
 41
0.0
 42
0.0
 10
319.7900030612945557
 20
1228.6949988603591919
 40
0.0
 41
0.0
 42
0.0
 10
316.82000756454471
 20
1227.2100011119841838
 40
0.0
 41
0.0
 42
0.0
 10
313.8500030040740967
 20
1225.7249988317489624
 40
0.0
 41
0.0
 42
0.0
 10
310.8800029754638672
 20
1224.2399988174438477
 40
0.0
 41
0.0
 42
0.0
  0
TEXT
  5
53
330
1D
100
AcDbEntity
  8
0
  6
ByLayer
420
5592405
 48
1.0
 60
0
 67
0
370
-1
100
AcDbText
 39
0.0
 10
0.0
 20
1108.5
 30
0.0
 40
14.0
  1
6. Group transform (scale 2x)
 50
0.0
 41
1.0
 51
0.0
  7
Standard
 71
0
 72
0
 11
0.0
 21
0.0
 31
0.0
210
0.0
220
0.0
230
1.0
100
AcDbText
 73
0
  0
LWPOLYLINE
  5
54
330
1D
100
AcDbEntity
  8
0
  6
ByLayer
420
13421772
 48
1.0
 60
0
 67
0
370
-1
100
AcDbPolyline
 90
4
 70
1
 43
0.0
 38
0.0
 39
0.0
210
0.0
220
0.0
230
1.0
 10
0.0
 20
1095.5
 40
0.0
 41
0.0
 42
0.0
 10
300.0
 20
1095.5
 40
0.0
 41
0.0
 42
0.0
 10
300.0
 20
975.5
 40
0.0
 41
0.0
 42
0.0
 10
0.0
 20
975.5
 40
0.0
 41
0.0
 42
0.0
  0
LWPOLYLINE
  5
55
330
1D
100
AcDbEntity
  8
0
  6
ByLayer
420
32896
 48
1.0
 60
0
 67
0
370
-1
100
AcDbPolyline
 90
2
 70
0
 43
0.0
 38
0.0
 39
0.0
210
0.0
220
0.0
230
1.0
 10
41.0
 20
1034.5
 40
0.0
 41
0.0
 42
0.0
 10
261.0
 20
1034.5
 40
0.0
 41
0.0
 42
0.0
  0
HATCH
  5
56
330
1D
100
AcDbEntity
  8
0
  6
ByLayer
420
32896
 48
1.0
 60
0
 67
0
370
-1
100
AcDbHatch
 30
0.0
210
0.0
220
0.0
230
1.0
  2
SOLID
 70
1
 71
0
 91
1
 92
2
 72
0
 73
1
 93
33
 10
249.0
 20
1040.5
 10
249.75
 20
1040.125
 10
250.5
 20
1039.75
 10
251.25
 20
1039.375
 10
252.0
 20
1039.0
 10
252.75
 20
1038.625
 10
253.5
 20
1038.25
 10
254.2499994277953874
 20
1037.8750002861022494
 10
255.0
 20
1037.5
 10
255.75
 20
1037.125
 10
256.5
 20
1036.75
 10
257.2499994277953874
 20
1036.3750002861022494
 10
258.0
 20
1036.0
 10
258.75
 20
1035.625
 10
259.4999988555908317
 20
1035.2500005722044989
 10
260.25
 20
1034.875
 10
261.0
 20
1034.5
 10
260.25
 20
1034.1249998927116849
 10
259.5
 20
1033.7499997854233698
 10
258.75
 20
1033.3750001430512384
 10
258.0
 20
1033.0
 10
257.25
 20
1032.6249998569487616
 10
256.5000005722046126
 20
1032.2500002861022494
 10
255.7499994277953874
 20
1031.8749997138977506
 10
255.0
 20
1031.5
 10
254.2500011444091683
 20
1031.1250005722044989
 10
253.4999994277953874
 20
1030.7499997138977506
 10
252.7500005722046126
 20
1030.3750002861022494
 10
252.0000011444091683
 20
1030.0000005722044989
 10
251.25
 20
1029.625
 10
250.5000011444091683
 20
1029.2500005722044989
 10
249.75
 20
1028.875
 10
249.0
 20
1028.5
 97
0
 75
0
 76
1
 47
0.0
 98
0
  0
LWPOLYLINE
  5
57
330
1D
100
AcDbEntity
  8
0
  6
ByLayer
420
32896
 48
1.0
 60
0
 67
0
370
-1
100
AcDbPolyline
 90
33
 70
1
 43
0.0
 38
0.0
 39
0.0
210
0.0
220
0.0
230
1.0
 10
249.0
 20
1040.5
 40
0.0
 41
0.0
 42
0.0
 10
249.75
 20
1040.125
 40
0.0
 41
0.0
 42
0.0
 10
250.5
 20
1039.75
 40
0.0
 41
0.0
 42
0.0
 10
251.25
 20
1039.375
 40
0.0
 41
0.0
 42
0.0
 10
252.0
 20
1039.0
 40
0.0
 41
0.0
 42
0.0
 10
252.75
 20
1038.625
 40
0.0
 41
0.0
 42
0.0
 10
253.5
 20
1038.25
 40
0.0
 41
0.0
 42
0.0
 10
254.2499994277953874
 20
1037.8750002861022494
 40
0.0
 41
0.0
 42
0.0
 10
255.0
 20
1037.5
 40
0.0
 41
0.0
 42
0.0
 10
255.75
 20
1037.125
 40
0.0
 41
0.0
 42
0.0
 10
256.5
 20
1036.75
 40
0.0
 41
0.0
 42
0.0
 10
257.2499994277953874
 20
1036.3750002861022494
 40
0.0
 41
0.0
 42
0.0
 10
258.0
 20
1036.0
 40
0.0
 41
0.0
 42
0.0
 10
258.75
 20
1035.625
 40
0.0
 41
0.0
 42
0.0
 10
259.4999988555908317
 20
1035.2500005722044989
 40
0.0
 41
0.0
 42
0.0
 10
260.25
 20
1034.875
 40
0.0
 41
0.0
 42
0.0
 10
261.0
 20
1034.5
 40
0.0
 41
0.0
 42
0.0
 10
260.25
 20
1034.1249998927116849
 40
0.0
 41
0.0
 42
0.0
 10
259.5
 20
1033.7499997854233698
 40
0.0
 41
0.0
 42
0.0
 10
258.75
 20
1033.3750001430512384
 40
0.0
 41
0.0
 42
0.0
 10
258.0
 20
1033.0
 40
0.0
 41
0.0
 42
0.0
 10
257.25
 20
1032.6249998569487616
 40
0.0
 41
0.0
 42
0.0
 10
256.5000005722046126
 20
1032.2500002861022494
 40
0.0
 41
0.0
 42
0.0
 10
255.7499994277953874
 20
1031.8749997138977506
 40
0.0
 41
0.0
 42
0.0
 10
255.0
 20
1031.5
 40
0.0
 41
0.0
 42
0.0
 10
254.2500011444091683
 20
1031.1250005722044989
 40
0.0
 41
0.0
 42
0.0
 10
253.4999994277953874
 20
1030.7499997138977506
 40
0.0
 41
0.0
 42
0.0
 10
252.7500005722046126
 20
1030.3750002861022494
 40
0.0
 41
0.0
 42
0.0
 10
252.0000011444091683
 20
1030.0000005722044989
 40
0.0
 41
0.0
 42
0.0
 10
251.25
 20
1029.625
 40
0.0
 41
0.0
 42
0.0
 10
250.5000011444091683
 20
1029.2500005722044989
 40
0.0
 41
0.0
 42
0.0
 10
249.75
 20
1028.875
 40
0.0
 41
0.0
 42
0.0
 10
249.0
 20
1028.5
 40
0.0
 41
0.0
 42
0.0
  0
TEXT
  5
58
330
1D
100
AcDbEntity
  8
0
  6
ByLayer
420
5592405
 48
1.0
 60
0
 67
0
370
-1
100
AcDbText
 39
0.0
 10
0.0
 20
936.0
 30
0.0
 40
14.0
  1
7. Varying stroke widths with same marker
 50
0.0
 41
1.0
 51
0.0
  7
Standard
 71
0
 72
0
 11
0.0
 21
0.0
 31
0.0
210
0.0
220
0.0
230
1.0
100
AcDbText
 73
0
  0
LWPOLYLINE
  5
59
330
1D
100
AcDbEntity
  8
0
  6
ByLayer
420
13421772
 48
1.0
 60
0
 67
0
370
-1
100
AcDbPolyline
 90
4
 70
1
 43
0.0
 38
0.0
 39
0.0
210
0.0
220
0.0
230
1.0
 10
0.0
 20
923.0
 40
0.0
 41
0.0
 42
0.0
 10
300.0
 20
923.0
 40
0.0
 41
0.0
 42
0.0
 10
300.0
 20
803.0
 40
0.0
 41
0.0
 42
0.0
 10
0.0
 20
803.0
 40
0.0
 41
0.0
 42
0.0
  0
LWPOLYLINE
  5
5A
330
1D
100
AcDbEntity
  8
0
  6
ByLayer
420
0
 48
1.0
 60
0
 67
0
370
-1
100
AcDbPolyline
 90
2
 70
0
 43
0.0
 38
0.0
 39
0.0
210
0.0
220
0.0
230
1.0
 10
21.0
 20
902.0
 40
0.0
 41
0.0
 42
0.0
 10
281.0
 20
902.0
 40
0.0
 41
0.0
 42
0.0
  0
HATCH
  5
5B
330
1D
100
AcDbEntity
  8
0
  6
ByLayer
420
0
 48
1.0
 60
0
 67
0
370
-1
100
AcDbHatch
 30
0.0
210
0.0
220
0.0
230
1.0
  2
SOLID
 70
1
 71
0
 91
1
 92
2
 72
0
 73
1
 93
33
 10
275.0
 20
905.0
 10
275.375
 20
904.8125
 10
275.75
 20
904.625
 10
276.125
 20
904.4375
 10
276.5
 20
904.25
 10
276.875
 20
904.0625
 10
277.25
 20
903.875
 10
277.6249997138976937
 20
903.6875001430512384
 10
278.0
 20
903.5
 10
278.375
 20
903.3125
 10
278.75
 20
903.125
 10
279.1249997138976937
 20
902.9375001430512384
 10
279.5
 20
902.75
 10
279.875
 20
902.5625
 10
280.2499994277953874
 20
902.3750002861022494
 10
280.625
 20
902.1875
 10
281.0
 20
902.0
 10
280.625
 20
901.8124999463557288
 10
280.25
 20
901.6249998927116849
 10
279.875
 20
901.4375000715256192
 10
279.5
 20
901.25
 10
279.125
 20
901.0624999284743808
 10
278.7500002861023063
 20
900.8750001430512384
 10
278.3749997138976937
 20
900.6874998569487616
 10
278.0
 20
900.5
 10
277.6250005722046126
 20
900.3125002861022494
 10
277.2499997138976937
 20
900.1249998569487616
 10
276.8750002861023063
 20
899.9375001430512384
 10
276.5000005722046126
 20
899.7500002861022494
 10
276.125
 20
899.5625
 10
275.7500005722046126
 20
899.3750002861022494
 10
275.375
 20
899.1875
 10
275.0
 20
899.0
 97
0
 75
0
 76
1
 47
0.0
 98
0
  0
LWPOLYLINE
  5
5C
330
1D
100
AcDbEntity
  8
0
  6
ByLayer
420
0
 48
1.0
 60
0
 67
0
370
-1
100
AcDbPolyline
 90
33
 70
1
 43
0.0
 38
0.0
 39
0.0
210
0.0
220
0.0
230
1.0
 10
275.0
 20
905.0
 40
0.0
 41
0.0
 42
0.0
 10
275.375
 20
904.8125
 40
0.0
 41
0.0
 42
0.0
 10
275.75
 20
904.625
 40
0.0
 41
0.0
 42
0.0
 10
276.125
 20
904.4375
 40
0.0
 41
0.0
 42
0.0
 10
276.5
 20
904.25
 40
0.0
 41
0.0
 42
0.0
 10
276.875
 20
904.0625
 40
0.0
 41
0.0
 42
0.0
 10
277.25
 20
903.875
 40
0.0
 41
0.0
 42
0.0
 10
277.6249997138976937
 20
903.6875001430512384
 40
0.0
 41
0.0
 42
0.0
 10
278.0
 20
903.5
 40
0.0
 41
0.0
 42
0.0
 10
278.375
 20
903.3125
 40
0.0
 41
0.0
 42
0.0
 10
278.75
 20
903.125
 40
0.0
 41
0.0
 42
0.0
 10
279.1249997138976937
 20
902.9375001430512384
 40
0.0
 41
0.0
 42
0.0
 10
279.5
 20
902.75
 40
0.0
 41
0.0
 42
0.0
 10
279.875
 20
902.5625
 40
0.0
 41
0.0
 42
0.0
 10
280.2499994277953874
 20
902.3750002861022494
 40
0.0
 41
0.0
 42
0.0
 10
280.625
 20
902.1875
 40
0.0
 41
0.0
 42
0.0
 10
281.0
 20
902.0
 40
0.0
 41
0.0
 42
0.0
 10
280.625
 20
901.8124999463557288
 40
0.0
 41
0.0
 42
0.0
 10
280.25
 20
901.6249998927116849
 40
0.0
 41
0.0
 42
0.0
 10
279.875
 20
901.4375000715256192
 40
0.0
 41
0.0
 42
0.0
 10
279.5
 20
901.25
 40
0.0
 41
0.0
 42
0.0
 10
279.125
 20
901.0624999284743808
 40
0.0
 41
0.0
 42
0.0
 10
278.7500002861023063
 20
900.8750001430512384
 40
0.0
 41
0.0
 42
0.0
 10
278.3749997138976937
 20
900.6874998569487616
 40
0.0
 41
0.0
 42
0.0
 10
278.0
 20
900.5
 40
0.0
 41
0.0
 42
0.0
 10
277.6250005722046126
 20
900.3125002861022494
 40
0.0
 41
0.0
 42
0.0
 10
277.2499997138976937
 20
900.1249998569487616
 40
0.0
 41
0.0
 42
0.0
 10
276.8750002861023063
 20
899.9375001430512384
 40
0.0
 41
0.0
 42
0.0
 10
276.5000005722046126
 20
899.7500002861022494
 40
0.0
 41
0.0
 42
0.0
 10
276.125
 20
899.5625
 40
0.0
 41
0.0
 42
0.0
 10
275.7500005722046126
 20
899.3750002861022494
 40
0.0
 41
0.0
 42
0.0
 10
275.375
 20
899.1875
 40
0.0
 41
0.0
 42
0.0
 10
275.0
 20
899.0
 40
0.0
 41
0.0
 42
0.0
  0
LWPOLYLINE
  5
5D
330
1D
100
AcDbEntity
  8
0
  6
ByLayer
420
0
 48
1.0
 60
0
 67
0
370
-1
100
AcDbPolyline
 90
2
 70
0
 43
0.0
 38
0.0
 39
0.0
210
0.0
220
0.0
230
1.0
 10
21.0
 20
872.0
 40
0.0
 41
0.0
 42
0.0
 10
281.0
 20
872.0
 40
0.0
 41
0.0
 42
0.0
  0
HATCH
  5
5E
330
1D
100
AcDbEntity
  8
0
  6
ByLayer
420
0
 48
1.0
 60
0
 67
0
370
-1
100
AcDbHatch
 30
0.0
210
0.0
220
0.0
230
1.0
  2
SOLID
 70
1
 71
0
 91
1
 92
2
 72
0
 73
1
 93
33
 10
263.0
 20
881.0
 10
264.125
 20
880.4375
 10
265.25
 20
879.875
 10
266.375
 20
879.3125
 10
267.5
 20
878.75
 10
268.625
 20
878.1875
 10
269.75
 20
877.625
 10
270.874999141693138
 20
877.0625004291534879
 10
272.0
 20
876.5
 10
273.125
 20
875.9375
 10
274.25
 20
875.375
 10
275.374999141693138
 20
874.8125004291534879
 10
276.5
 20
874.25
 10
277.625
 20
873.6875
 10
278.7499982833862191
 20
873.1250008583069757
 10
279.875
 20
872.5625
 10
281.0
 20
872.0
 10
279.875
 20
871.4374998390674136
 10
278.75
 20
870.8749996781348273
 10
277.625
 20
870.3125002145766302
 10
276.5
 20
869.75
 10
275.375
 20
869.1874997854233698
 10
274.250000858306862
 20
868.6250004291534879
 10
273.124999141693138
 20
868.0624995708465121
 10
272.0
 20
867.5
 10
270.8750017166137809
 20
866.9375008583069757
 10
269.749999141693138
 20
866.3749995708465121
 10
268.625000858306862
 20
865.8125004291534879
 10
267.5000017166137809
 20
865.2500008583069757
 10
266.375
 20
864.6875
 10
265.2500017166137809
 20
864.1250008583069757
 10
264.125
 20
863.5625
 10
263.0
 20
863.0
 97
0
 75
0
 76
1
 47
0.0
 98
0
  0
LWPOLYLINE
  5
5F
330
1D
100
AcDbEntity
  8
0
  6
ByLayer
420
0
 48
1.0
 60
0
 67
0
370
-1
100
AcDbPolyline
 90
33
 70
1
 43
0.0
 38
0.0
 39
0.0
210
0.0
220
0.0
230
1.0
 10
263.0
 20
881.0
 40
0.0
 41
0.0
 42
0.0
 10
264.125
 20
880.4375
 40
0.0
 41
0.0
 42
0.0
 10
265.25
 20
879.875
 40
0.0
 41
0.0
 42
0.0
 10
266.375
 20
879.3125
 40
0.0
 41
0.0
 42
0.0
 10
267.5
 20
878.75
 40
0.0
 41
0.0
 42
0.0
 10
268.625
 20
878.1875
 40
0.0
 41
0.0
 42
0.0
 10
269.75
 20
877.625
 40
0.0
 41
0.0
 42
0.0
 10
270.874999141693138
 20
877.0625004291534879
 40
0.0
 41
0.0
 42
0.0
 10
272.0
 20
876.5
 40
0.0
 41
0.0
 42
0.0
 10
273.125
 20
875.9375
 40
0.0
 41
0.0
 42
0.0
 10
274.25
 20
875.375
 40
0.0
 41
0.0
 42
0.0
 10
275.374999141693138
 20
874.8125004291534879
 40
0.0
 41
0.0
 42
0.0
 10
276.5
 20
874.25
 40
0.0
 41
0.0
 42
0.0
 10
277.625
 20
873.6875
 40
0.0
 41
0.0
 42
0.0
 10
278.7499982833862191
 20
873.1250008583069757
 40
0.0
 41
0.0
 42
0.0
 10
279.875
 20
872.5625
 40
0.0
 41
0.0
 42
0.0
 10
281.0
 20
872.0
 40
0.0
 41
0.0
 42
0.0
 10
279.875
 20
871.4374998390674136
 40
0.0
 41
0.0
 42
0.0
 10
278.75
 20
870.8749996781348273
 40
0.0
 41
0.0
 42
0.0
 10
277.625
 20
870.3125002145766302
 40
0.0
 41
0.0
 42
0.0
 10
276.5
 20
869.75
 40
0.0
 41
0.0
 42
0.0
 10
275.375
 20
869.1874997854233698
 40
0.0
 41
0.0
 42
0.0
 10
274.250000858306862
 20
868.6250004291534879
 40
0.0
 41
0.0
 42
0.0
 10
273.124999141693138
 20
868.0624995708465121
 40
0.0
 41
0.0
 42
0.0
 10
272.0
 20
867.5
 40
0.0
 41
0.0
 42
0.0
 10
270.8750017166137809
 20
866.9375008583069757
 40
0.0
 41
0.0
 42
0.0
 10
269.749999141693138
 20
866.3749995708465121
 40
0.0
 41
0.0
 42
0.0
 10
268.625000858306862
 20
865.8125004291534879
 40
0.0
 41
0.0
 42
0.0
 10
267.5000017166137809
 20
865.2500008583069757
 40
0.0
 41
0.0
 42
0.0
 10
266.375
 20
864.6875
 40
0.0
 41
0.0
 42
0.0
 10
265.2500017166137809
 20
864.1250008583069757
 40
0.0
 41
0.0
 42
0.0
 10
264.125
 20
863.5625
 40
0.0
 41
0.0
 42
0.0
 10
263.0
 20
863.0
 40
0.0
 41
0.0
 42
0.0
  0
LWPOLYLINE
  5
60
330
1D
100
AcDbEntity
  8
0
  6
ByLayer
420
0
 48
1.0
 60
0
 67
0
370
-1
100
AcDbPolyline
 90
2
 70
0
 43
0.0
 38
0.0
 39
0.0
210
0.0
220
0.0
230
1.0
 10
21.0
 20
832.0
 40
0.0
 41
0.0
 42
0.0
 10
281.0
 20
832.0
 40
0.0
 41
0.0
 42
0.0
  0
HATCH
  5
61
330
1D
100
AcDbEntity
  8
0
  6
ByLayer
420
0
 48
1.0
 60
0
 67
0
370
-1
100
AcDbHatch
 30
0.0
210
0.0
220
0.0
230
1.0
  2
SOLID
 70
1
 71
0
 91
1
 92
2
 72
0
 73
1
 93
33
 10
245.0
 20
850.0
 10
247.25
 20
848.875
 10
249.5
 20
847.75
 10
251.75
 20
846.625
 10
254.0
 20
845.5
 10
256.25
 20
844.375
 10
258.5
 20
843.25
 10
260.7499982833862191
 20
842.1250008583069757
 10
263.0
 20
841.0
 10
265.25
 20
839.875
 10
267.5
 20
838.75
 10
269.7499982833862191
 20
837.6250008583069757
 10
272.0
 20
836.5
 10
274.25
 20
835.375
 10
276.4999965667724382
 20
834.2500017166137241
 10
278.75
 20
833.125
 10
281.0
 20
832.0
 10
278.75
 20
830.8749996781348273
 10
276.5
 20
829.7499993562698819
 10
274.25
 20
828.6250004291534879
 10
272.0
 20
827.5
 10
269.75
 20
826.3749995708465121
 10
267.5000017166137809
 20
825.2500008583069757
 10
265.2499982833862191
 20
824.1249991416930243
 10
263.0
 20
823.0
 10
260.7500034332275618
 20
821.8750017166137241
 10
258.4999982833862191
 20
820.7499991416930243
 10
256.2500017166137809
 20
819.6250008583069757
 10
254.0000034332275618
 20
818.5000017166137241
 10
251.75
 20
817.375
 10
249.5000034332275618
 20
816.2500017166137241
 10
247.25
 20
815.125
 10
245.0
 20
814.0
 97
0
 75
0
 76
1
 47
0.0
 98
0
  0
LWPOLYLINE
  5
62
330
1D
100
AcDbEntity
  8
0
  6
ByLayer
420
0
 48
1.0
 60
0
 67
0
370
-1
100
AcDbPolyline
 90
33
 70
1
 43
0.0
 38
0.0
 39
0.0
210
0.0
220
0.0
230
1.0
 10
245.0
 20
850.0
 40
0.0
 41
0.0
 42
0.0
 10
247.25
 20
848.875
 40
0.0
 41
0.0
 42
0.0
 10
249.5
 20
847.75
 40
0.0
 41
0.0
 42
0.0
 10
251.75
 20
846.625
 40
0.0
 41
0.0
 42
0.0
 10
254.0
 20
845.5
 40
0.0
 41
0.0
 42
0.0
 10
256.25
 20
844.375
 40
0.0
 41
0.0
 42
0.0
 10
258.5
 20
843.25
 40
0.0
 41
0.0
 42
0.0
 10
260.7499982833862191
 20
842.1250008583069757
 40
0.0
 41
0.0
 42
0.0
 10
263.0
 20
841.0
 40
0.0
 41
0.0
 42
0.0
 10
265.25
 20
839.875
 40
0.0
 41
0.0
 42
0.0
 10
267.5
 20
838.75
 40
0.0
 41
0.0
 42
0.0
 10
269.7499982833862191
 20
837.6250008583069757
 40
0.0
 41
0.0
 42
0.0
 10
272.0
 20
836.5
 40
0.0
 41
0.0
 42
0.0
 10
274.25
 20
835.375
 40
0.0
 41
0.0
 42
0.0
 10
276.4999965667724382
 20
834.2500017166137241
 40
0.0
 41
0.0
 42
0.0
 10
278.75
 20
833.125
 40
0.0
 41
0.0
 42
0.0
 10
281.0
 20
832.0
 40
0.0
 41
0.0
 42
0.0
 10
278.75
 20
830.8749996781348273
 40
0.0
 41
0.0
 42
0.0
 10
276.5
 20
829.7499993562698819
 40
0.0
 41
0.0
 42
0.0
 10
274.25
 20
828.6250004291534879
 40
0.0
 41
0.0
 42
0.0
 10
272.0
 20
827.5
 40
0.0
 41
0.0
 42
0.0
 10
269.75
 20
826.3749995708465121
 40
0.0
 41
0.0
 42
0.0
 10
267.5000017166137809
 20
825.2500008583069757
 40
0.0
 41
0.0
 42
0.0
 10
265.2499982833862191
 20
824.1249991416930243
 40
0.0
 41
0.0
 42
0.0
 10
263.0
 20
823.0
 40
0.0
 41
0.0
 42
0.0
 10
260.7500034332275618
 20
821.8750017166137241
 40
0.0
 41
0.0
 42
0.0
 10
258.4999982833862191
 20
820.7499991416930243
 40
0.0
 41
0.0
 42
0.0
 10
256.2500017166137809
 20
819.6250008583069757
 40
0.0
 41
0.0
 42
0.0
 10
254.0000034332275618
 20
818.5000017166137241
 40
0.0
 41
0.0
 42
0.0
 10
251.75
 20
817.375
 40
0.0
 41
0.0
 42
0.0
 10
249.5000034332275618
 20
816.2500017166137241
 40
0.0
 41
0.0
 42
0.0
 10
247.25
 20
815.125
 40
0.0
 41
0.0
 42
0.0
 10
245.0
 20
814.0
 40
0.0
 41
0.0
 42
0.0
  0
TEXT
  5
63
330
1D
100
AcDbEntity
  8
0
  6
ByLayer
420
5592405
 48
1.0
 60
0
 67
0
370
-1
100
AcDbText
 39
0.0
 10
0.0
 20
763.5
 30
0.0
 40
14.0
  1
8. markerUnits="userSpaceOnUse"
 50
0.0
 41
1.0
 51
0.0
  7
Standard
 71
0
 72
0
 11
0.0
 21
0.0
 31
0.0
210
0.0
220
0.0
230
1.0
100
AcDbText
 73
0
  0
LWPOLYLINE
  5
64
330
1D
100
AcDbEntity
  8
0
  6
ByLayer
420
13421772
 48
1.0
 60
0
 67
0
370
-1
100
AcDbPolyline
 90
4
 70
1
 43
0.0
 38
0.0
 39
0.0
210
0.0
220
0.0
230
1.0
 10
0.0
 20
750.5
 40
0.0
 41
0.0
 42
0.0
 10
300.0
 20
750.5
 40
0.0
 41
0.0
 42
0.0
 10
300.0
 20
670.5
 40
0.0
 41
0.0
 42
0.0
 10
0.0
 20
670.5
 40
0.0
 41
0.0
 42
0.0
  0
LWPOLYLINE
  5
65
330
1D
100
AcDbEntity
  8
0
  6
ByLayer
420
128
 48
1.0
 60
0
 67
0
370
-1
100
AcDbPolyline
 90
2
 70
0
 43
0.0
 38
0.0
 39
0.0
210
0.0
220
0.0
230
1.0
 10
31.0
 20
709.5
 40
0.0
 41
0.0
 42
0.0
 10
271.0
 20
709.5
 40
0.0
 41
0.0
 42
0.0
  0
HATCH
  5
66
330
1D
100
AcDbEntity
  8
0
  6
ByLayer
420
128
 48
1.0
 60
0
 67
0
370
-1
100
AcDbHatch
 30
0.0
210
0.0
220
0.0
230
1.0
  2
SOLID
 70
1
 71
0
 91
1
 92
2
 72
0
 73
1
 93
33
 10
256.0
 20
717.0
 10
256.9375
 20
716.53125
 10
257.875
 20
716.0625
 10
258.8125
 20
715.59375
 10
259.75
 20
715.125
 10
260.6875
 20
714.65625
 10
261.625
 20
714.1875
 10
262.5624992847442627
 20
713.7187503576278687
 10
263.5
 20
713.25
 10
264.4375
 20
712.78125
 10
265.375
 20
712.3125
 10
266.3124992847442627
 20
711.8437503576278687
 10
267.25
 20
711.375
 10
268.1875
 20
710.90625
 10
269.1249985694885254
 20
710.4375007152557373
 10
270.0625
 20
709.96875
 10
271.0
 20
709.5
 10
270.0625
 20
709.0312498658895493
 10
269.125
 20
708.5624997317790985
 10
268.1875
 20
708.0937501788139343
 10
267.25
 20
707.625
 10
266.3125
 20
707.1562498211860657
 10
265.3750007152557373
 20
706.6875003576278687
 10
264.4374992847442627
 20
706.2187496423721313
 10
263.5
 20
705.75
 10
262.5625014305114746
 20
705.2812507152557373
 10
261.6249992847442627
 20
704.8124996423721313
 10
260.6875007152557373
 20
704.3437503576278687
 10
259.7500014305114746
 20
703.8750007152557373
 10
258.8125
 20
703.40625
 10
257.8750014305114746
 20
702.9375007152557373
 10
256.9375
 20
702.46875
 10
256.0
 20
702.0
 97
0
 75
0
 76
1
 47
0.0
 98
0
  0
LWPOLYLINE
  5
67
330
1D
100
AcDbEntity
  8
0
  6
ByLayer
420
128
 48
1.0
 60
0
 67
0
370
-1
100
AcDbPolyline
 90
33
 70
1
 43
0.0
 38
0.0
 39
0.0
210
0.0
220
0.0
230
1.0
 10
256.0
 20
717.0
 40
0.0
 41
0.0
 42
0.0
 10
256.9375
 20
716.53125
 40
0.0
 41
0.0
 42
0.0
 10
257.875
 20
716.0625
 40
0.0
 41
0.0
 42
0.0
 10
258.8125
 20
715.59375
 40
0.0
 41
0.0
 42
0.0
 10
259.75
 20
715.125
 40
0.0
 41
0.0
 42
0.0
 10
260.6875
 20
714.65625
 40
0.0
 41
0.0
 42
0.0
 10
261.625
 20
714.1875
 40
0.0
 41
0.0
 42
0.0
 10
262.5624992847442627
 20
713.7187503576278687
 40
0.0
 41
0.0
 42
0.0
 10
263.5
 20
713.25
 40
0.0
 41
0.0
 42
0.0
 10
264.4375
 20
712.78125
 40
0.0
 41
0.0
 42
0.0
 10
265.375
 20
712.3125
 40
0.0
 41
0.0
 42
0.0
 10
266.3124992847442627
 20
711.8437503576278687
 40
0.0
 41
0.0
 42
0.0
 10
267.25
 20
711.375
 40
0.0
 41
0.0
 42
0.0
 10
268.1875
 20
710.90625
 40
0.0
 41
0.0
 42
0.0
 10
269.1249985694885254
 20
710.4375007152557373
 40
0.0
 41
0.0
 42
0.0
 10
270.0625
 20
709.96875
 40
0.0
 41
0.0
 42
0.0
 10
271.0
 20
709.5
 40
0.0
 41
0.0
 42
0.0
 10
270.0625
 20
709.0312498658895493
 40
0.0
 41
0.0
 42
0.0
 10
269.125
 20
708.5624997317790985
 40
0.0
 41
0.0
 42
0.0
 10
268.1875
 20
708.0937501788139343
 40
0.0
 41
0.0
 42
0.0
 10
267.25
 20
707.625
 40
0.0
 41
0.0
 42
0.0
 10
266.3125
 20
707.1562498211860657
 40
0.0
 41
0.0
 42
0.0
 10
265.3750007152557373
 20
706.6875003576278687
 40
0.0
 41
0.0
 42
0.0
 10
264.4374992847442627
 20
706.2187496423721313
 40
0.0
 41
0.0
 42
0.0
 10
263.5
 20
705.75
 40
0.0
 41
0.0
 42
0.0
 10
262.5625014305114746
 20
705.2812507152557373
 40
0.0
 41
0.0
 42
0.0
 10
261.6249992847442627
 20
704.8124996423721313
 40
0.0
 41
0.0
 42
0.0
 10
260.6875007152557373
 20
704.3437503576278687
 40
0.0
 41
0.0
 42
0.0
 10
259.7500014305114746
 20
703.8750007152557373
 40
0.0
 41
0.0
 42
0.0
 10
258.8125
 20
703.40625
 40
0.0
 41
0.0
 42
0.0
 10
257.8750014305114746
 20
702.9375007152557373
 40
0.0
 41
0.0
 42
0.0
 10
256.9375
 20
702.46875
 40
0.0
 41
0.0
 42
0.0
 10
256.0
 20
702.0
 40
0.0
 41
0.0
 42
0.0
  0
TEXT
  5
68
330
1D
100
AcDbEntity
  8
0
  6
ByLayer
420
5592405
 48
1.0
 60
0
 67
0
370
-1
100
AcDbText
 39
0.0
 10
0.0
 20
631.0
 30
0.0
 40
14.0
  1
9. SVG with markers as <img> tag
 50
0.0
 41
1.0
 51
0.0
  7
Standard
 71
0
 72
0
 11
0.0
 21
0.0
 31
0.0
210
0.0
220
0.0
230
1.0
100
AcDbText
 73
0
  0
LWPOLYLINE
  5
69
330
1D
100
AcDbEntity
  8
0
  6
ByLayer
420
13421772
 48
1.0
 60
0
 67
0
370
-1
100
AcDbPolyline
 90
4
 70
1
 43
0.0
 38
0.0
 39
0.0
210
0.0
220
0.0
230
1.0
 10
0.0
 20
618.0
 40
0.0
 41
0.0
 42
0.0
 10
200.0
 20
618.0
 40
0.0
 41
0.0
 42
0.0
 10
200.0
 20
538.0
 40
0.0
 41
0.0
 42
0.0
 10
0.0
 20
538.0
 40
0.0
 41
0.0
 42
0.0
  0
LWPOLYLINE
  5
6A
330
1D
100
AcDbEntity
  8
0
  6
ByLayer
420
15022389
 48
1.0
 60
0
 67
0
370
-1
100
AcDbPolyline
 90
2
 70
0
 43
0.0
 38
0.0
 39
0.0
210
0.0
220
0.0
230
1.0
 10
20.0
 20
578.0
 40
0.0
 41
0.0
 42
0.0
 10
180.0
 20
578.0
 40
0.0
 41
0.0
 42
0.0
  0
HATCH
  5
6B
330
1D
100
AcDbEntity
  8
0
  6
ByLayer
420
15022389
 48
1.0
 60
0
 67
0
370
-1
100
AcDbHatch
 30
0.0
210
0.0
220
0.0
230
1.0
  2
SOLID
 70
1
 71
0
 91
1
 92
2
 72
0
 73
1
 93
33
 10
168.0
 20
584.0
 10
168.75
 20
583.625
 10
169.5
 20
583.25
 10
170.25
 20
582.875
 10
171.0
 20
582.5
 10
171.75
 20
582.125
 10
172.5
 20
581.75
 10
173.2499994277954158
 20
581.3750002861022494
 10
174.0
 20
581.0
 10
174.75
 20
580.625
 10
175.5
 20
580.25
 10
176.2499994277954158
 20
579.8750002861022494
 10
177.0
 20
579.5
 10
177.75
 20
579.125
 10
178.4999988555908317
 20
578.7500005722044989
 10
179.25
 20
578.375
 10
180.0
 20
578.0
 10
179.25
 20
577.6249998927116849
 10
178.5
 20
577.2499997854233698
 10
177.75
 20
576.8750001430512384
 10
177.0
 20
576.5
 10
176.25
 20
576.1249998569487616
 10
175.5000005722045842
 20
575.7500002861022494
 10
174.7499994277954158
 20
575.3749997138977506
 10
174.0
 20
575.0
 10
173.2500011444091683
 20
574.6250005722044989
 10
172.4999994277954158
 20
574.2499997138977506
 10
171.7500005722045842
 20
573.8750002861022494
 10
171.0000011444091683
 20
573.5000005722044989
 10
170.25
 20
573.125
 10
169.5000011444091683
 20
572.7500005722044989
 10
168.75
 20
572.375
 10
168.0
 20
572.0
 97
0
 75
0
 76
1
 47
0.0
 98
0
  0
LWPOLYLINE
  5
6C
330
1D
100
AcDbEntity
  8
0
  6
ByLayer
420
15022389
 48
1.0
 60
0
 67
0
370
-1
100
AcDbPolyline
 90
33
 70
1
 43
0.0
 38
0.0
 39
0.0
210
0.0
220
0.0
230
1.0
 10
168.0
 20
584.0
 40
0.0
 41
0.0
 42
0.0
 10
168.75
 20
583.625
 40
0.0
 41
0.0
 42
0.0
 10
169.5
 20
583.25
 40
0.0
 41
0.0
 42
0.0
 10
170.25
 20
582.875
 40
0.0
 41
0.0
 42
0.0
 10
171.0
 20
582.5
 40
0.0
 41
0.0
 42
0.0
 10
171.75
 20
582.125
 40
0.0
 41
0.0
 42
0.0
 10
172.5
 20
581.75
 40
0.0
 41
0.0
 42
0.0
 10
173.2499994277954158
 20
581.3750002861022494
 40
0.0
 41
0.0
 42
0.0
 10
174.0
 20
581.0
 40
0.0
 41
0.0
 42
0.0
 10
174.75
 20
580.625
 40
0.0
 41
0.0
 42
0.0
 10
175.5
 20
580.25
 40
0.0
 41
0.0
 42
0.0
 10
176.2499994277954158
 20
579.8750002861022494
 40
0.0
 41
0.0
 42
0.0
 10
177.0
 20
579.5
 40
0.0
 41
0.0
 42
0.0
 10
177.75
 20
579.125
 40
0.0
 41
0.0
 42
0.0
 10
178.4999988555908317
 20
578.7500005722044989
 40
0.0
 41
0.0
 42
0.0
 10
179.25
 20
578.375
 40
0.0
 41
0.0
 42
0.0
 10
180.0
 20
578.0
 40
0.0
 41
0.0
 42
0.0
 10
179.25
 20
577.6249998927116849
 40
0.0
 41
0.0
 42
0.0
 10
178.5
 20
577.2499997854233698
 40
0.0
 41
0.0
 42
0.0
 10
177.75
 20
576.8750001430512384
 40
0.0
 41
0.0
 42
0.0
 10
177.0
 20
576.5
 40
0.0
 41
0.0
 42
0.0
 10
176.25
 20
576.1249998569487616
 40
0.0
 41
0.0
 42
0.0
 10
175.5000005722045842
 20
575.7500002861022494
 40
0.0
 41
0.0
 42
0.0
 10
174.7499994277954158
 20
575.3749997138977506
 40
0.0
 41
0.0
 42
0.0
 10
174.0
 20
575.0
 40
0.0
 41
0.0
 42
0.0
 10
173.2500011444091683
 20
574.6250005722044989
 40
0.0
 41
0.0
 42
0.0
 10
172.4999994277954158
 20
574.2499997138977506
 40
0.0
 41
0.0
 42
0.0
 10
171.7500005722045842
 20
573.8750002861022494
 40
0.0
 41
0.0
 42
0.0
 10
171.0000011444091683
 20
573.5000005722044989
 40
0.0
 41
0.0
 42
0.0
 10
170.25
 20
573.125
 40
0.0
 41
0.0
 42
0.0
 10
169.5000011444091683
 20
572.7500005722044989
 40
0.0
 41
0.0
 42
0.0
 10
168.75
 20
572.375
 40
0.0
 41
0.0
 42
0.0
 10
168.0
 20
572.0
 40
0.0
 41
0.0
 42
0.0
  0
TEXT
  5
6D
330
1D
100
AcDbEntity
  8
0
  6
ByLayer
420
8947848
 48
1.0
 60
0
 67
0
370
-1
100
AcDbText
 39
0.0
 10
30.0
 20
524.75
 30
0.0
 40
11.0
  1
img tag (no viewBox scaling)
 50
0.0
 41
1.0
 51
0.0
  7
Standard
 71
0
 72
0
 11
0.0
 21
0.0
 31
0.0
210
0.0
220
0.0
230
1.0
100
AcDbText
 73
0
  0
LWPOLYLINE
  5
6E
330
1D
100
AcDbEntity
  8
0
  6
ByLayer
420
13421772
 48
1.0
 60
0
 67
0
370
-1
100
AcDbPolyline
 90
4
 70
1
 43
0.0
 38
0.0
 39
0.0
210
0.0
220
0.0
230
1.0
 10
224.0
 20
618.0
 40
0.0
 41
0.0
 42
0.0
 10
424.0
 20
618.0
 40
0.0
 41
0.0
 42
0.0
 10
424.0
 20
538.0
 40
0.0
 41
0.0
 42
0.0
 10
224.0
 20
538.0
 40
0.0
 41
0.0
 42
0.0
  0
LWPOLYLINE
  5
6F
330
1D
100
AcDbEntity
  8
0
  6
ByLayer
420
2001125
 48
1.0
 60
0
 67
0
370
-1
100
AcDbPolyline
 90
2
 70
0
 43
0.0
 38
0.0
 39
0.0
210
0.0
220
0.0
230
1.0
 10
244.0
 20
578.0
 40
0.0
 41
0.0
 42
0.0
 10
404.0
 20
578.0
 40
0.0
 41
0.0
 42
0.0
  0
HATCH
  5
70
330
1D
100
AcDbEntity
  8
0
  6
ByLayer
420
2001125
 48
1.0
 60
0
 67
0
370
-1
100
AcDbHatch
 30
0.0
210
0.0
220
0.0
230
1.0
  2
SOLID
 70
1
 71
0
 91
1
 92
2
 72
0
 73
1
 93
33
 10
392.0
 20
584.0
 10
392.75
 20
583.625
 10
393.5
 20
583.25
 10
394.25
 20
582.875
 10
395.0
 20
582.5
 10
395.75
 20
582.125
 10
396.5
 20
581.75
 10
397.2499994277953874
 20
581.3750002861022494
 10
398.0
 20
581.0
 10
398.75
 20
580.625
 10
399.5
 20
580.25
 10
400.2499994277953874
 20
579.8750002861022494
 10
401.0
 20
579.5
 10
401.75
 20
579.125
 10
402.4999988555908317
 20
578.7500005722044989
 10
403.25
 20
578.375
 10
404.0
 20
578.0
 10
403.25
 20
577.6249998927116849
 10
402.5
 20
577.2499997854233698
 10
401.75
 20
576.8750001430512384
 10
401.0
 20
576.5
 10
400.25
 20
576.1249998569487616
 10
399.5000005722046126
 20
575.7500002861022494
 10
398.7499994277953874
 20
575.3749997138977506
 10
398.0
 20
575.0
 10
397.2500011444091683
 20
574.6250005722044989
 10
396.4999994277953874
 20
574.2499997138977506
 10
395.7500005722046126
 20
573.8750002861022494
 10
395.0000011444091683
 20
573.5000005722044989
 10
394.25
 20
573.125
 10
393.5000011444091683
 20
572.7500005722044989
 10
392.75
 20
572.375
 10
392.0
 20
572.0
 97
0
 75
0
 76
1
 47
0.0
 98
0
  0
LWPOLYLINE
  5
71
330
1D
100
AcDbEntity
  8
0
  6
ByLayer
420
2001125
 48
1.0
 60
0
 67
0
370
-1
100
AcDbPolyline
 90
33
 70
1
 43
0.0
 38
0.0
 39
0.0
210
0.0
220
0.0
230
1.0
 10
392.0
 20
584.0
 40
0.0
 41
0.0
 42
0.0
 10
392.75
 20
583.625
 40
0.0
 41
0.0
 42
0.0
 10
393.5
 20
583.25
 40
0.0
 41
0.0
 42
0.0
 10
394.25
 20
582.875
 40
0.0
 41
0.0
 42
0.0
 10
395.0
 20
582.5
 40
0.0
 41
0.0
 42
0.0
 10
395.75
 20
582.125
 40
0.0
 41
0.0
 42
0.0
 10
396.5
 20
581.75
 40
0.0
 41
0.0
 42
0.0
 10
397.2499994277953874
 20
581.3750002861022494
 40
0.0
 41
0.0
 42
0.0
 10
398.0
 20
581.0
 40
0.0
 41
0.0
 42
0.0
 10
398.75
 20
580.625
 40
0.0
 41
0.0
 42
0.0
 10
399.5
 20
580.25
 40
0.0
 41
0.0
 42
0.0
 10
400.2499994277953874
 20
579.8750002861022494
 40
0.0
 41
0.0
 42
0.0
 10
401.0
 20
579.5
 40
0.0
 41
0.0
 42
0.0
 10
401.75
 20
579.125
 40
0.0
 41
0.0
 42
0.0
 10
402.4999988555908317
 20
578.7500005722044989
 40
0.0
 41
0.0
 42
0.0
 10
403.25
 20
578.375
 40
0.0
 41
0.0
 42
0.0
 10
404.0
 20
578.0
 40
0.0
 41
0.0
 42
0.0
 10
403.25
 20
577.6249998927116849
 40
0.0
 41
0.0
 42
0.0
 10
402.5
 20
577.2499997854233698
 40
0.0
 41
0.0
 42
0.0
 10
401.75
 20
576.8750001430512384
 40
0.0
 41
0.0
 42
0.0
 10
401.0
 20
576.5
 40
0.0
 41
0.0
 42
0.0
 10
400.25
 20
576.1249998569487616
 40
0.0
 41
0.0
 42
0.0
 10
399.5000005722046126
 20
575.7500002861022494
 40
0.0
 41
0.0
 42
0.0
 10
398.7499994277953874
 20
575.3749997138977506
 40
0.0
 41
0.0
 42
0.0
 10
398.0
 20
575.0
 40
0.0
 41
0.0
 42
0.0
 10
397.2500011444091683
 20
574.6250005722044989
 40
0.0
 41
0.0
 42
0.0
 10
396.4999994277953874
 20
574.2499997138977506
 40
0.0
 41
0.0
 42
0.0
 10
395.7500005722046126
 20
573.8750002861022494
 40
0.0
 41
0.0
 42
0.0
 10
395.0000011444091683
 20
573.5000005722044989
 40
0.0
 41
0.0
 42
0.0
 10
394.25
 20
573.125
 40
0.0
 41
0.0
 42
0.0
 10
393.5000011444091683
 20
572.7500005722044989
 40
0.0
 41
0.0
 42
0.0
 10
392.75
 20
572.375
 40
0.0
 41
0.0
 42
0.0
 10
392.0
 20
572.0
 40
0.0
 41
0.0
 42
0.0
  0
TEXT
  5
72
330
1D
100
AcDbEntity
  8
0
  6
ByLayer
420
8947848
 48
1.0
 60
0
 67
0
370
-1
100
AcDbText
 39
0.0
 10
231.0666656494140625
 20
524.75
 30
0.0
 40
11.0
  1
img tag (viewBox 400x160 ? 200x80)
 50
0.0
 41
1.0
 51
0.0
  7
Standard
 71
0
 72
0
 11
0.0
 21
0.0
 31
0.0
210
0.0
220
0.0
230
1.0
100
AcDbText
 73
0
  0
TEXT
  5
73
330
1D
100
AcDbEntity
  8
0
  6
ByLayer
420
5592405
 48
1.0
 60
0
 67
0
370
-1
100
AcDbText
 39
0.0
 10
0.0
 20
485.0
 30
0.0
 40
14.0
  1
10. SVG with markers as CSS background-image
 50
0.0
 41
1.0
 51
0.0
  7
Standard
 71
0
 72
0
 11
0.0
 21
0.0
 31
0.0
210
0.0
220
0.0
230
1.0
100
AcDbText
 73
0
  0
LWPOLYLINE
  5
74
330
1D
100
AcDbEntity
  8
0
  6
ByLayer
420
13421772
 48
1.0
 60
0
 67
0
370
-1
100
AcDbPolyline
 90
4
 70
1
 43
0.0
 38
0.0
 39
0.0
210
0.0
220
0.0
230
1.0
 10
0.0
 20
472.0
 40
0.0
 41
0.0
 42
0.0
 10
200.0
 20
472.0
 40
0.0
 41
0.0
 42
0.0
 10
200.0
 20
392.0
 40
0.0
 41
0.0
 42
0.0
 10
0.0
 20
392.0
 40
0.0
 41
0.0
 42
0.0
  0
LWPOLYLINE
  5
75
330
1D
100
AcDbEntity
  8
0
  6
ByLayer
420
4431943
 48
1.0
 60
0
 67
0
370
-1
100
AcDbPolyline
 90
2
 70
0
 43
0.0
 38
0.0
 39
0.0
210
0.0
220
0.0
230
1.0
 10
20.0
 20
432.0
 40
0.0
 41
0.0
 42
0.0
 10
180.0
 20
432.0
 40
0.0
 41
0.0
 42
0.0
  0
HATCH
  5
76
330
1D
100
AcDbEntity
  8
0
  6
ByLayer
420
4431943
 48
1.0
 60
0
 67
0
370
-1
100
AcDbHatch
 30
0.0
210
0.0
220
0.0
230
1.0
  2
SOLID
 70
1
 71
0
 91
1
 92
2
 72
0
 73
1
 93
33
 10
168.0
 20
438.0
 10
168.75
 20
437.625
 10
169.5
 20
437.25
 10
170.25
 20
436.875
 10
171.0
 20
436.5
 10
171.75
 20
436.125
 10
172.5
 20
435.75
 10
173.2499994277954158
 20
435.3750002861022494
 10
174.0
 20
435.0
 10
174.75
 20
434.625
 10
175.5
 20
434.25
 10
176.2499994277954158
 20
433.8750002861022494
 10
177.0
 20
433.5
 10
177.75
 20
433.125
 10
178.4999988555908317
 20
432.7500005722044989
 10
179.25
 20
432.375
 10
180.0
 20
432.0
 10
179.25
 20
431.6249998927116849
 10
178.5
 20
431.2499997854233698
 10
177.75
 20
430.8750001430512384
 10
177.0
 20
430.5
 10
176.25
 20
430.1249998569487616
 10
175.5000005722045842
 20
429.7500002861022494
 10
174.7499994277954158
 20
429.3749997138977506
 10
174.0
 20
429.0
 10
173.2500011444091683
 20
428.6250005722044989
 10
172.4999994277954158
 20
428.2499997138977506
 10
171.7500005722045842
 20
427.8750002861022494
 10
171.0000011444091683
 20
427.5000005722044989
 10
170.25
 20
427.125
 10
169.5000011444091683
 20
426.7500005722044989
 10
168.75
 20
426.375
 10
168.0
 20
426.0
 97
0
 75
0
 76
1
 47
0.0
 98
0
  0
LWPOLYLINE
  5
77
330
1D
100
AcDbEntity
  8
0
  6
ByLayer
420
4431943
 48
1.0
 60
0
 67
0
370
-1
100
AcDbPolyline
 90
33
 70
1
 43
0.0
 38
0.0
 39
0.0
210
0.0
220
0.0
230
1.0
 10
168.0
 20
438.0
 40
0.0
 41
0.0
 42
0.0
 10
168.75
 20
437.625
 40
0.0
 41
0.0
 42
0.0
 10
169.5
 20
437.25
 40
0.0
 41
0.0
 42
0.0
 10
170.25
 20
436.875
 40
0.0
 41
0.0
 42
0.0
 10
171.0
 20
436.5
 40
0.0
 41
0.0
 42
0.0
 10
171.75
 20
436.125
 40
0.0
 41
0.0
 42
0.0
 10
172.5
 20
435.75
 40
0.0
 41
0.0
 42
0.0
 10
173.2499994277954158
 20
435.3750002861022494
 40
0.0
 41
0.0
 42
0.0
 10
174.0
 20
435.0
 40
0.0
 41
0.0
 42
0.0
 10
174.75
 20
434.625
 40
0.0
 41
0.0
 42
0.0
 10
175.5
 20
434.25
 40
0.0
 41
0.0
 42
0.0
 10
176.2499994277954158
 20
433.8750002861022494
 40
0.0
 41
0.0
 42
0.0
 10
177.0
 20
433.5
 40
0.0
 41
0.0
 42
0.0
 10
177.75
 20
433.125
 40
0.0
 41
0.0
 42
0.0
 10
178.4999988555908317
 20
432.7500005722044989
 40
0.0
 41
0.0
 42
0.0
 10
179.25
 20
432.375
 40
0.0
 41
0.0
 42
0.0
 10
180.0
 20
432.0
 40
0.0
 41
0.0
 42
0.0
 10
179.25
 20
431.6249998927116849
 40
0.0
 41
0.0
 42
0.0
 10
178.5
 20
431.2499997854233698
 40
0.0
 41
0.0
 42
0.0
 10
177.75
 20
430.8750001430512384
 40
0.0
 41
0.0
 42
0.0
 10
177.0
 20
430.5
 40
0.0
 41
0.0
 42
0.0
 10
176.25
 20
430.1249998569487616
 40
0.0
 41
0.0
 42
0.0
 10
175.5000005722045842
 20
429.7500002861022494
 40
0.0
 41
0.0
 42
0.0
 10
174.7499994277954158
 20
429.3749997138977506
 40
0.0
 41
0.0
 42
0.0
 10
174.0
 20
429.0
 40
0.0
 41
0.0
 42
0.0
 10
173.2500011444091683
 20
428.6250005722044989
 40
0.0
 41
0.0
 42
0.0
 10
172.4999994277954158
 20
428.2499997138977506
 40
0.0
 41
0.0
 42
0.0
 10
171.7500005722045842
 20
427.8750002861022494
 40
0.0
 41
0.0
 42
0.0
 10
171.0000011444091683
 20
427.5000005722044989
 40
0.0
 41
0.0
 42
0.0
 10
170.25
 20
427.125
 40
0.0
 41
0.0
 42
0.0
 10
169.5000011444091683
 20
426.7500005722044989
 40
0.0
 41
0.0
 42
0.0
 10
168.75
 20
426.375
 40
0.0
 41
0.0
 42
0.0
 10
168.0
 20
426.0
 40
0.0
 41
0.0
 42
0.0
  0
TEXT
  5
78
330
1D
100
AcDbEntity
  8
0
  6
ByLayer
420
8947848
 48
1.0
 60
0
 67
0
370
-1
100
AcDbText
 39
0.0
 10
2.4666671752929688
 20
378.75
 30
0.0
 40
11.0
  1
background-image (no viewBox scaling)
 50
0.0
 41
1.0
 51
0.0
  7
Standard
 71
0
 72
0
 11
0.0
 21
0.0
 31
0.0
210
0.0
220
0.0
230
1.0
100
AcDbText
 73
0
  0
TEXT
  5
79
330
1D
100
AcDbEntity
  8
0
  6
ByLayer
420
5592405
 48
1.0
 60
0
 67
0
370
-1
100
AcDbText
 39
0.0
 10
0.0
 20
339.0
 30
0.0
 40
14.0
  1
11. Curved path with marker-start and marker-end
 50
0.0
 41
1.0
 51
0.0
  7
Standard
 71
0
 72
0
 11
0.0
 21
0.0
 31
0.0
210
0.0
220
0.0
230
1.0
100
AcDbText
 73
0
  0
LWPOLYLINE
  5
7A
330
1D
100
AcDbEntity
  8
0
  6
ByLayer
420
13421772
 48
1.0
 60
0
 67
0
370
-1
100
AcDbPolyline
 90
4
 70
1
 43
0.0
 38
0.0
 39
0.0
210
0.0
220
0.0
230
1.0
 10
0.0
 20
326.0
 40
0.0
 41
0.0
 42
0.0
 10
300.0
 20
326.0
 40
0.0
 41
0.0
 42
0.0
 10
300.0
 20
206.0
 40
0.0
 41
0.0
 42
0.0
 10
0.0
 20
206.0
 40
0.0
 41
0.0
 42
0.0
  0
LWPOLYLINE
  5
7B
330
1D
100
AcDbEntity
  8
0
  6
ByLayer
420
15277667
 48
1.0
 60
0
 67
0
370
-1
100
AcDbPolyline
 90
148
 70
0
 43
0.0
 38
0.0
 39
0.0
210
0.0
220
0.0
230
1.0
 10
21.0
 20
225.0
 40
0.0
 41
0.0
 42
0.0
 10
22.4696464538574219
 20
226.3488311767578125
 40
0.0
 41
0.0
 42
0.0
 10
23.9469375610351563
 20
227.6892852783203125
 40
0.0
 41
0.0
 42
0.0
 10
25.4319553375244141
 20
229.0211715698242188
 40
0.0
 41
0.0
 42
0.0
 10
26.924774169921875
 20
230.3443145751953125
 40
0.0
 41
0.0
 42
0.0
 10
28.4254817962646484
 20
231.6585006713867188
 40
0.0
 41
0.0
 42
0.0
 10
29.9341621398925781
 20
232.9635238647460938
 40
0.0
 41
0.0
 42
0.0
 10
31.4509010314941406
 20
234.2591705322265625
 40
0.0
 41
0.0
 42
0.0
 10
32.9757366180419922
 20
235.5452880859375
 40
0.0
 41
0.0
 42
0.0
 10
34.5087356567382813
 20
236.8216629028320313
 40
0.0
 41
0.0
 42
0.0
 10
36.0499610900878906
 20
238.0880813598632813
 40
0.0
 41
0.0
 42
0.0
 10
37.5994911193847656
 20
239.344329833984375
 40
0.0
 41
0.0
 42
0.0
 10
39.1574134826660156
 20
240.5901565551757813
 40
0.0
 41
0.0
 42
0.0
 10
40.7237892150878906
 20
241.8253402709960938
 40
0.0
 41
0.0
 42
0.0
 10
42.2986640930175781
 20
243.0496597290039063
 40
0.0
 41
0.0
 42
0.0
 10
43.8820915222167969
 20
244.2629013061523438
 40
0.0
 41
0.0
 42
0.0
 10
45.4741249084472656
 20
245.4648361206054688
 40
0.0
 41
0.0
 42
0.0
 10
47.0748062133789063
 20
246.6552200317382813
 40
0.0
 41
0.0
 42
0.0
 10
48.684326171875
 20
247.8336334228515625
 40
0.0
 41
0.0
 42
0.0
 10
50.3026008605957031
 20
249.0000076293945313
 40
0.0
 41
0.0
 42
0.0
 10
51.929656982421875
 20
250.1540756225585938
 40
0.0
 41
0.0
 42
0.0
 10
53.565704345703125
 20
251.2953567504882813
 40
0.0
 41
0.0
 42
0.0
 10
55.2106285095214844
 20
252.4238128662109375
 40
0.0
 41
0.0
 42
0.0
 10
56.8645591735839844
 20
253.5390243530273438
 40
0.0
 41
0.0
 42
0.0
 10
58.5275039672851563
 20
254.6407546997070313
 40
0.0
 41
0.0
 42
0.0
 10
60.1995086669921875
 20
255.728668212890625
 40
0.0
 41
0.0
 42
0.0
 10
61.880584716796875
 20
256.8025436401367188
 40
0.0
 41
0.0
 42
0.0
 10
63.5708236694335938
 20
257.8619155883789063
 40
0.0
 41
0.0
 42
0.0
 10
65.2701416015625
 20
258.9066619873046875
 40
0.0
 41
0.0
 42
0.0
 10
66.9786605834960938
 20
259.9363021850585938
 40
0.0
 41
0.0
 42
0.0
 10
68.69635009765625
 20
260.9505691528320313
 40
0.0
 41
0.0
 42
0.0
 10
70.4231948852539063
 20
261.9491767883300781
 40
0.0
 41
0.0
 42
0.0
 10
72.1591873168945313
 20
262.9317817687988281
 40
0.0
 41
0.0
 42
0.0
 10
73.904388427734375
 20
263.89794921875
 40
0.0
 41
0.0
 42
0.0
 10
75.65875244140625
 20
264.8473625183105469
 40
0.0
 41
0.0
 42
0.0
 10
77.4222412109375
 20
265.7797088623046875
 40
0.0
 41
0.0
 42
0.0
 10
79.1948394775390625
 20
266.6946296691894531
 40
0.0
 41
0.0
 42
0.0
 10
80.9765090942382813
 20
267.5917625427246094
 40
0.0
 41
0.0
 42
0.0
 10
82.7672119140625
 20
268.4707298278808594
 40
0.0
 41
0.0
 42
0.0
 10
84.5668792724609375
 20
269.3311653137207031
 40
0.0
 41
0.0
 42
0.0
 10
86.3754653930664063
 20
270.1727027893066406
 40
0.0
 41
0.0
 42
0.0
 10
88.192901611328125
 20
270.9949798583984375
 40
0.0
 41
0.0
 42
0.0
 10
90.0190887451171875
 20
271.7976150512695313
 40
0.0
 41
0.0
 42
0.0
 10
91.8539886474609375
 20
272.5801048278808594
 40
0.0
 41
0.0
 42
0.0
 10
93.6974716186523438
 20
273.3422126770019531
 40
0.0
 41
0.0
 42
0.0
 10
95.5493850708007813
 20
274.0835609436035156
 40
0.0
 41
0.0
 42
0.0
 10
97.4095993041992188
 20
274.8037910461425781
 40
0.0
 41
0.0
 42
0.0
 10
99.278076171875
 20
275.5023078918457031
 40
0.0
 41
0.0
 42
0.0
 10
101.1545944213867188
 20
276.1789665222167969
 40
0.0
 41
0.0
 42
0.0
 10
103.0389785766601563
 20
276.8333663940429688
 40
0.0
 41
0.0
 42
0.0
 10
104.9311447143554688
 20
277.4649581909179688
 40
0.0
 41
0.0
 42
0.0
 10
106.8307952880859375
 20
278.0736465454101563
 40
0.0
 41
0.0
 42
0.0
 10
108.7378387451171875
 20
278.6587448120117188
 40
0.0
 41
0.0
 42
0.0
 10
110.6519622802734375
 20
279.2202339172363281
 40
0.0
 41
0.0
 42
0.0
 10
112.57305908203125
 20
279.7574234008789063
 40
0.0
 41
0.0
 42
0.0
 10
114.50079345703125
 20
280.2702903747558594
 40
0.0
 41
0.0
 42
0.0
 10
116.4349822998046875
 20
280.7582283020019531
 40
0.0
 41
0.0
 42
0.0
 10
118.3753280639648438
 20
281.2210845947265625
 40
0.0
 41
0.0
 42
0.0
 10
120.321533203125
 20
281.6585578918457031
 40
0.0
 41
0.0
 42
0.0
 10
122.273406982421875
 20
282.0701370239257813
 40
0.0
 41
0.0
 42
0.0
 10
124.230560302734375
 20
282.4557571411132813
 40
0.0
 41
0.0
 42
0.0
 10
126.1927032470703125
 20
282.81512451171875
 40
0.0
 41
0.0
 42
0.0
 10
128.1595458984375
 20
283.1477890014648438
 40
0.0
 41
0.0
 42
0.0
 10
130.1307373046875
 20
283.4536514282226563
 40
0.0
 41
0.0
 42
0.0
 10
132.1059417724609375
 20
283.7325096130371094
 40
0.0
 41
0.0
 42
0.0
 10
134.0847930908203125
 20
283.9841423034667969
 40
0.0
 41
0.0
 42
0.0
 10
136.0669403076171875
 20
284.208251953125
 40
0.0
 41
0.0
 42
0.0
 10
138.052001953125
 20
284.4047012329101563
 40
0.0
 41
0.0
 42
0.0
 10
140.0396575927734375
 20
284.5734024047851563
 40
0.0
 41
0.0
 42
0.0
 10
142.029449462890625
 20
284.7142143249511719
 40
0.0
 41
0.0
 42
0.0
 10
144.021026611328125
 20
284.8270263671875
 40
0.0
 41
0.0
 42
0.0
 10
146.0139923095703125
 20
284.9117317199707031
 40
0.0
 41
0.0
 42
0.0
 10
148.00799560546875
 20
284.9681549072265625
 40
0.0
 41
0.0
 42
0.0
 10
150.0025482177734375
 20
284.9963760375976563
 40
0.0
 41
0.0
 42
0.0
 10
151.997344970703125
 20
284.9963645935058594
 40
0.0
 41
0.0
 42
0.0
 10
153.9919586181640625
 20
284.9681282043457031
 40
0.0
 41
0.0
 42
0.0
 10
155.9859161376953125
 20
284.9116897583007813
 40
0.0
 41
0.0
 42
0.0
 10
157.9789276123046875
 20
284.8270721435546875
 40
0.0
 41
0.0
 42
0.0
 10
159.97052001953125
 20
284.7142372131347656
 40
0.0
 41
0.0
 42
0.0
 10
161.9603424072265625
 20
284.5734062194824219
 40
0.0
 41
0.0
 42
0.0
 10
163.947967529296875
 20
284.404693603515625
 40
0.0
 41
0.0
 42
0.0
 10
165.9330596923828125
 20
284.2082366943359375
 40
0.0
 41
0.0
 42
0.0
 10
167.9151611328125
 20
283.9841537475585938
 40
0.0
 41
0.0
 42
0.0
 10
169.8940582275390625
 20
283.7325057983398438
 40
0.0
 41
0.0
 42
0.0
 10
171.8692474365234375
 20
283.4536552429199219
 40
0.0
 41
0.0
 42
0.0
 10
173.8404388427734375
 20
283.1478118896484375
 40
0.0
 41
0.0
 42
0.0
 10
175.8072509765625
 20
282.8150901794433594
 40
0.0
 41
0.0
 42
0.0
 10
177.7694244384765625
 20
282.4557418823242188
 40
0.0
 41
0.0
 42
0.0
 10
179.7266082763671875
 20
282.0701751708984375
 40
0.0
 41
0.0
 42
0.0
 10
181.678436279296875
 20
281.65850830078125
 40
0.0
 41
0.0
 42
0.0
 10
183.62469482421875
 20
281.2210655212402344
 40
0.0
 41
0.0
 42
0.0
 10
185.565032958984375
 20
280.7582931518554688
 40
0.0
 41
0.0
 42
0.0
 10
187.4992218017578125
 20
280.2702140808105469
 40
0.0
 41
0.0
 42
0.0
 10
189.4269561767578125
 20
279.7575149536132813
 40
0.0
 41
0.0
 42
0.0
 10
191.3480072021484375
 20
279.2201423645019531
 40
0.0
 41
0.0
 42
0.0
 10
193.262176513671875
 20
278.6588249206542969
 40
0.0
 41
0.0
 42
0.0
 10
195.1691741943359375
 20
278.0735664367675781
 40
0.0
 41
0.0
 42
0.0
 10
197.0688629150390625
 20
277.4649887084960938
 40
0.0
 41
0.0
 42
0.0
 10
198.961029052734375
 20
276.833343505859375
 40
0.0
 41
0.0
 42
0.0
 10
200.8454132080078125
 20
276.1789436340332031
 40
0.0
 41
0.0
 42
0.0
 10
202.7219390869140625
 20
275.5023040771484375
 40
0.0
 41
0.0
 42
0.0
 10
204.5904388427734375
 20
274.80377197265625
 40
0.0
 41
0.0
 42
0.0
 10
206.4506683349609375
 20
274.08355712890625
 40
0.0
 41
0.0
 42
0.0
 10
208.3026123046875
 20
273.3421821594238281
 40
0.0
 41
0.0
 42
0.0
 10
210.14605712890625
 20
272.5800399780273438
 40
0.0
 41
0.0
 42
0.0
 10
211.9809417724609375
 20
271.7974929809570313
 40
0.0
 41
0.0
 42
0.0
 10
213.8071136474609375
 20
270.9949302673339844
 40
0.0
 41
0.0
 42
0.0
 10
215.6245574951171875
 20
270.1726837158203125
 40
0.0
 41
0.0
 42
0.0
 10
217.433135986328125
 20
269.3311653137207031
 40
0.0
 41
0.0
 42
0.0
 10
219.2328338623046875
 20
268.4707107543945313
 40
0.0
 41
0.0
 42
0.0
 10
221.023529052734375
 20
267.5917396545410156
 40
0.0
 41
0.0
 42
0.0
 10
222.805206298828125
 20
266.6946029663085938
 40
0.0
 41
0.0
 42
0.0
 10
224.5777587890625
 20
265.7797050476074219
 40
0.0
 41
0.0
 42
0.0
 10
226.341278076171875
 20
264.8473777770996094
 40
0.0
 41
0.0
 42
0.0
 10
228.0956268310546875
 20
263.8979225158691406
 40
0.0
 41
0.0
 42
0.0
 10
229.8407745361328125
 20
262.9317169189453125
 40
0.0
 41
0.0
 42
0.0
 10
231.576812744140625
 20
261.9491691589355469
 40
0.0
 41
0.0
 42
0.0
 10
233.303680419921875
 20
260.9506301879882813
 40
0.0
 41
0.0
 42
0.0
 10
235.02130126953125
 20
259.9362869262695313
 40
0.0
 41
0.0
 42
0.0
 10
236.729827880859375
 20
258.90667724609375
 40
0.0
 41
0.0
 42
0.0
 10
238.429168701171875
 20
257.8619308471679688
 40
0.0
 41
0.0
 42
0.0
 10
240.119384765625
 20
256.8025436401367188
 40
0.0
 41
0.0
 42
0.0
 10
241.80047607421875
 20
255.7286605834960938
 40
0.0
 41
0.0
 42
0.0
 10
243.472503662109375
 20
254.6408157348632813
 40
0.0
 41
0.0
 42
0.0
 10
245.1353912353515625
 20
253.5390167236328125
 40
0.0
 41
0.0
 42
0.0
 10
246.789337158203125
 20
252.423828125
 40
0.0
 41
0.0
 42
0.0
 10
248.4343109130859375
 20
251.2954330444335938
 40
0.0
 41
0.0
 42
0.0
 10
250.07025146484375
 20
250.154022216796875
 40
0.0
 41
0.0
 42
0.0
 10
251.697357177734375
 20
249.0000228881835938
 40
0.0
 41
0.0
 42
0.0
 10
253.3156585693359375
 20
247.8336563110351563
 40
0.0
 41
0.0
 42
0.0
 10
254.9251861572265625
 20
246.6552200317382813
 40
0.0
 41
0.0
 42
0.0
 10
256.5258636474609375
 20
245.4648818969726563
 40
0.0
 41
0.0
 42
0.0
 10
258.117889404296875
 20
244.2629470825195313
 40
0.0
 41
0.0
 42
0.0
 10
259.7012939453125
 20
243.0496978759765625
 40
0.0
 41
0.0
 42
0.0
 10
261.276153564453125
 20
241.8253402709960938
 40
0.0
 41
0.0
 42
0.0
 10
262.842529296875
 20
240.5901031494140625
 40
0.0
 41
0.0
 42
0.0
 10
264.40045166015625
 20
239.3442840576171875
 40
0.0
 41
0.0
 42
0.0
 10
265.95001220703125
 20
238.0880355834960938
 40
0.0
 41
0.0
 42
0.0
 10
267.49127197265625
 20
236.8216629028320313
 40
0.0
 41
0.0
 42
0.0
 10
269.024261474609375
 20
235.5453414916992188
 40
0.0
 41
0.0
 42
0.0
 10
270.549072265625
 20
234.2591400146484375
 40
0.0
 41
0.0
 42
0.0
 10
272.065765380859375
 20
232.963470458984375
 40
0.0
 41
0.0
 42
0.0
 10
273.574432373046875
 20
231.6584625244140625
 40
0.0
 41
0.0
 42
0.0
 10
275.075164794921875
 20
230.3443679809570313
 40
0.0
 41
0.0
 42
0.0
 10
276.568023681640625
 20
229.021270751953125
 40
0.0
 41
0.0
 42
0.0
 10
278.053009033203125
 20
227.6893386840820313
 40
0.0
 41
0.0
 42
0.0
 10
279.530303955078125
 20
226.3488693237304688
 40
0.0
 41
0.0
 42
0.0
 10
280.999969482421875
 20
225.0000228881835938
 40
0.0
 41
0.0
 42
0.0
  0
HATCH
  5
7C
330
1D
100
AcDbEntity
  8
0
  6
ByLayer
420
15277667
 48
1.0
 60
0
 67
0
370
-1
100
AcDbHatch
 30
0.0
210
0.0
220
0.0
230
1.0
  2
SOLID
 70
1
 71
0
 91
1
 92
2
 72
0
 73
1
 93
33
 10
25.7838356342957553
 20
237.5345489198471114
 10
25.4848459071522697
 20
236.7511396123566101
 10
25.1858561800087841
 20
235.9677303048663362
 10
24.8868664528653056
 20
235.1843209973758348
 10
24.58787672572182
 20
234.4009116898853335
 10
24.2888869985783344
 20
233.6175023823950596
 10
23.9898972714348488
 20
232.8340930749045583
 10
23.6909077724024257
 20
232.0506843651080544
 10
23.3919178171478777
 20
231.2672744599237831
 10
23.0929280900043921
 20
230.4838651524332818
 10
22.7939383628609065
 20
229.7004558449425531
 10
22.4949488638284834
 20
228.9170471351462766
 10
22.1959589085739424
 20
228.1336372299617778
 10
21.8969691814304497
 20
227.3502279224712765
 10
21.5979799105090819
 20
226.5668198103685427
 10
21.2989897271434856
 20
225.7834093074905013
 10
21.0
 20
225.0
 10
21.8061215129115951
 20
225.2308538688271256
 10
22.6122430258231972
 20
225.4617077376547059
 10
23.4183635393244884
 20
225.6925613202747627
 10
24.2244851291138019
 20
225.9234152111177991
 10
25.0306067189031083
 20
226.1542691019610629
 10
25.8367270786489698
 20
226.385122640549298
 10
26.6428495909708829
 20
226.615976795583947
 10
27.4489702582275967
 20
226.8468304222358256
 10
28.2550903104625846
 20
227.0776838727601898
 10
29.0612134378062308
 20
227.3085382039223532
 10
29.8673334900412186
 20
227.5393916544469448
 10
30.6734541572979396
 20
227.7702452810988234
 10
31.4795766696198456
 20
228.001099436133245
 10
32.2856967218548405
 20
228.2319528866578366
 10
33.0918192341767465
 20
228.4628070416922583
 10
33.8979405164551935
 20
228.6936608444716512
 97
0
 75
0
 76
1
 47
0.0
 98
0
  0
LWPOLYLINE
  5
7D
330
1D
100
AcDbEntity
  8
0
  6
ByLayer
420
15277667
 48
1.0
 60
0
 67
0
370
-1
100
AcDbPolyline
 90
33
 70
1
 43
0.0
 38
0.0
 39
0.0
210
0.0
220
0.0
230
1.0
 10
25.7838356342957553
 20
237.5345489198471114
 40
0.0
 41
0.0
 42
0.0
 10
25.4848459071522697
 20
236.7511396123566101
 40
0.0
 41
0.0
 42
0.0
 10
25.1858561800087841
 20
235.9677303048663362
 40
0.0
 41
0.0
 42
0.0
 10
24.8868664528653056
 20
235.1843209973758348
 40
0.0
 41
0.0
 42
0.0
 10
24.58787672572182
 20
234.4009116898853335
 40
0.0
 41
0.0
 42
0.0
 10
24.2888869985783344
 20
233.6175023823950596
 40
0.0
 41
0.0
 42
0.0
 10
23.9898972714348488
 20
232.8340930749045583
 40
0.0
 41
0.0
 42
0.0
 10
23.6909077724024257
 20
232.0506843651080544
 40
0.0
 41
0.0
 42
0.0
 10
23.3919178171478777
 20
231.2672744599237831
 40
0.0
 41
0.0
 42
0.0
 10
23.0929280900043921
 20
230.4838651524332818
 40
0.0
 41
0.0
 42
0.0
 10
22.7939383628609065
 20
229.7004558449425531
 40
0.0
 41
0.0
 42
0.0
 10
22.4949488638284834
 20
228.9170471351462766
 40
0.0
 41
0.0
 42
0.0
 10
22.1959589085739424
 20
228.1336372299617778
 40
0.0
 41
0.0
 42
0.0
 10
21.8969691814304497
 20
227.3502279224712765
 40
0.0
 41
0.0
 42
0.0
 10
21.5979799105090819
 20
226.5668198103685427
 40
0.0
 41
0.0
 42
0.0
 10
21.2989897271434856
 20
225.7834093074905013
 40
0.0
 41
0.0
 42
0.0
 10
21.0
 20
225.0
 40
0.0
 41
0.0
 42
0.0
 10
21.8061215129115951
 20
225.2308538688271256
 40
0.0
 41
0.0
 42
0.0
 10
22.6122430258231972
 20
225.4617077376547059
 40
0.0
 41
0.0
 42
0.0
 10
23.4183635393244884
 20
225.6925613202747627
 40
0.0
 41
0.0
 42
0.0
 10
24.2244851291138019
 20
225.9234152111177991
 40
0.0
 41
0.0
 42
0.0
 10
25.0306067189031083
 20
226.1542691019610629
 40
0.0
 41
0.0
 42
0.0
 10
25.8367270786489698
 20
226.385122640549298
 40
0.0
 41
0.0
 42
0.0
 10
26.6428495909708829
 20
226.615976795583947
 40
0.0
 41
0.0
 42
0.0
 10
27.4489702582275967
 20
226.8468304222358256
 40
0.0
 41
0.0
 42
0.0
 10
28.2550903104625846
 20
227.0776838727601898
 40
0.0
 41
0.0
 42
0.0
 10
29.0612134378062308
 20
227.3085382039223532
 40
0.0
 41
0.0
 42
0.0
 10
29.8673334900412186
 20
227.5393916544469448
 40
0.0
 41
0.0
 42
0.0
 10
30.6734541572979396
 20
227.7702452810988234
 40
0.0
 41
0.0
 42
0.0
 10
31.4795766696198456
 20
228.001099436133245
 40
0.0
 41
0.0
 42
0.0
 10
32.2856967218548405
 20
228.2319528866578366
 40
0.0
 41
0.0
 42
0.0
 10
33.0918192341767465
 20
228.4628070416922583
 40
0.0
 41
0.0
 42
0.0
 10
33.8979405164551935
 20
228.6936608444716512
 40
0.0
 41
0.0
 42
0.0
  0
HATCH
  5
7E
330
1D
100
AcDbEntity
  8
0
  6
ByLayer
420
15277667
 48
1.0
 60
0
 67
0
370
-1
100
AcDbHatch
 30
0.0
210
0.0
220
0.0
230
1.0
  2
SOLID
 70
1
 71
0
 91
1
 92
2
 72
0
 73
1
 93
33
 10
276.2161234472674778
 20
237.5345678385174324
 10
276.5151138244646063
 20
236.7511587791213969
 10
276.8141042016617916
 20
235.9677497197255889
 10
277.1130945788589202
 20
235.1843406603295534
 10
277.4120849560560487
 20
234.4009316009339727
 10
277.711075333253234
 20
233.6175225415381647
 10
278.0100657104503625
 20
232.8341134821421292
 10
278.3090558595359312
 20
232.0507050204400912
 10
278.6080464648446764
 20
231.2672953633505131
 10
278.9070368420418617
 20
230.4838863039544776
 10
279.2060272192389903
 20
229.7004772445586696
 10
279.5050173683246157
 20
228.9170687828564041
 10
279.8040079736333041
 20
228.1336591257670534
 10
280.1029983508304326
 20
227.3502500663712453
 10
280.4019882718044983
 20
226.56684220236275
 10
280.7009791052247465
 20
225.7834319475794018
 10
280.999969482421875
 20
225.0000228881835938
 10
280.1938479360412089
 20
225.2308759430195551
 10
279.3877263896605427
 20
225.4617289978557437
 10
278.5816051576445602
 20
225.6925823952146857
 10
277.7754835870819647
 20
225.9234354237025855
 10
276.9693620165194261
 20
226.15428845219094
 10
276.163241254433899
 20
226.3851415153353628
 10
275.3571185505551284
 20
226.6159950014691731
 10
274.5509976917419976
 20
226.8468479592220319
 10
273.7448774479508415
 20
227.0777007408478312
 10
272.9387541290502099
 20
227.3085544031084737
 10
272.132633885258997
 20
227.539407184734273
 10
271.3265130264458662
 20
227.7702601424871318
 10
270.5203903225671525
 20
228.0011136286209421
 10
269.7142700787759395
 20
228.2319664102469687
 10
268.9081473748972257
 20
228.4628198963805517
 10
268.102025901062234
 20
228.6936730302604701
 97
0
 75
0
 76
1
 47
0.0
 98
0
  0
LWPOLYLINE
  5
7F
330
1D
100
AcDbEntity
  8
0
  6
ByLayer
420
15277667
 48
1.0
 60
0
 67
0
370
-1
100
AcDbPolyline
 90
33
 70
1
 43
0.0
 38
0.0
 39
0.0
210
0.0
220
0.0
230
1.0
 10
276.2161234472674778
 20
237.5345678385174324
 40
0.0
 41
0.0
 42
0.0
 10
276.5151138244646063
 20
236.7511587791213969
 40
0.0
 41
0.0
 42
0.0
 10
276.8141042016617916
 20
235.9677497197255889
 40
0.0
 41
0.0
 42
0.0
 10
277.1130945788589202
 20
235.1843406603295534
 40
0.0
 41
0.0
 42
0.0
 10
277.4120849560560487
 20
234.4009316009339727
 40
0.0
 41
0.0
 42
0.0
 10
277.711075333253234
 20
233.6175225415381647
 40
0.0
 41
0.0
 42
0.0
 10
278.0100657104503625
 20
232.8341134821421292
 40
0.0
 41
0.0
 42
0.0
 10
278.3090558595359312
 20
232.0507050204400912
 40
0.0
 41
0.0
 42
0.0
 10
278.6080464648446764
 20
231.2672953633505131
 40
0.0
 41
0.0
 42
0.0
 10
278.9070368420418617
 20
230.4838863039544776
 40
0.0
 41
0.0
 42
0.0
 10
279.2060272192389903
 20
229.7004772445586696
 40
0.0
 41
0.0
 42
0.0
 10
279.5050173683246157
 20
228.9170687828564041
 40
0.0
 41
0.0
 42
0.0
 10
279.8040079736333041
 20
228.1336591257670534
 40
0.0
 41
0.0
 42
0.0
 10
280.1029983508304326
 20
227.3502500663712453
 40
0.0
 41
0.0
 42
0.0
 10
280.4019882718044983
 20
226.56684220236275
 40
0.0
 41
0.0
 42
0.0
 10
280.7009791052247465
 20
225.7834319475794018
 40
0.0
 41
0.0
 42
0.0
 10
280.999969482421875
 20
225.0000228881835938
 40
0.0
 41
0.0
 42
0.0
 10
280.1938479360412089
 20
225.2308759430195551
 40
0.0
 41
0.0
 42
0.0
 10
279.3877263896605427
 20
225.4617289978557437
 40
0.0
 41
0.0
 42
0.0
 10
278.5816051576445602
 20
225.6925823952146857
 40
0.0
 41
0.0
 42
0.0
 10
277.7754835870819647
 20
225.9234354237025855
 40
0.0
 41
0.0
 42
0.0
 10
276.9693620165194261
 20
226.15428845219094
 40
0.0
 41
0.0
 42
0.0
 10
276.163241254433899
 20
226.3851415153353628
 40
0.0
 41
0.0
 42
0.0
 10
275.3571185505551284
 20
226.6159950014691731
 40
0.0
 41
0.0
 42
0.0
 10
274.5509976917419976
 20
226.8468479592220319
 40
0.0
 41
0.0
 42
0.0
 10
273.7448774479508415
 20
227.0777007408478312
 40
0.0
 41
0.0
 42
0.0
 10
272.9387541290502099
 20
227.3085544031084737
 40
0.0
 41
0.0
 42
0.0
 10
272.132633885258997
 20
227.539407184734273
 40
0.0
 41
0.0
 42
0.0
 10
271.3265130264458662
 20
227.7702601424871318
 40
0.0
 41
0.0
 42
0.0
 10
270.5203903225671525
 20
228.0011136286209421
 40
0.0
 41
0.0
 42
0.0
 10
269.7142700787759395
 20
228.2319664102469687
 40
0.0
 41
0.0
 42
0.0
 10
268.9081473748972257
 20
228.4628198963805517
 40
0.0
 41
0.0
 42
0.0
 10
268.102025901062234
 20
228.6936730302604701
 40
0.0
 41
0.0
 42
0.0
  0
TEXT
  5
80
330
1D
100
AcDbEntity
  8
0
  6
ByLayer
420
5592405
 48
1.0
 60
0
 67
0
370
-1
100
AcDbText
 39
0.0
 10
0.0
 20
166.5
 30
0.0
 40
14.0
  1
12. Multiple paths sharing markers in scaled viewBox
 50
0.0
 41
1.0
 51
0.0
  7
Standard
 71
0
 72
0
 11
0.0
 21
0.0
 31
0.0
210
0.0
220
0.0
230
1.0
100
AcDbText
 73
0
  0
LWPOLYLINE
  5
81
330
1D
100
AcDbEntity
  8
0
  6
ByLayer
420
13421772
 48
1.0
 60
0
 67
0
370
-1
100
AcDbPolyline
 90
4
 70
1
 43
0.0
 38
0.0
 39
0.0
210
0.0
220
0.0
230
1.0
 10
0.0
 20
153.5
 40
0.0
 41
0.0
 42
0.0
 10
300.0
 20
153.5
 40
0.0
 41
0.0
 42
0.0
 10
300.0
 20
3.5
 40
0.0
 41
0.0
 42
0.0
 10
0.0
 20
3.5
 40
0.0
 41
0.0
 42
0.0
  0
LWPOLYLINE
  5
82
330
1D
100
AcDbEntity
  8
0
  6
ByLayer
420
16733986
 48
1.0
 60
0
 67
0
370
-1
100
AcDbPolyline
 90
2
 70
0
 43
0.0
 38
0.0
 39
0.0
210
0.0
220
0.0
230
1.0
 10
26.6666669845581055
 20
115.4999995231628418
 40
0.0
 41
0.0
 42
0.0
 10
273.3333368301391602
 20
115.4999995231628418
 40
0.0
 41
0.0
 42
0.0
  0
HATCH
  5
83
330
1D
100
AcDbEntity
  8
0
  6
ByLayer
420
16733986
 48
1.0
 60
0
 67
0
370
-1
100
AcDbHatch
 30
0.0
210
0.0
220
0.0
230
1.0
  2
SOLID
 70
1
 71
0
 91
1
 92
2
 72
0
 73
1
 93
33
 10
261.4933366775512695
 20
121.4199995994567871
 10
262.2333366870880127
 20
121.0499995946884155
 10
262.9733366966247559
 20
120.6799995899200439
 10
263.713336706161499
 20
120.3099995851516724
 10
264.4533367156982422
 20
119.9399995803833008
 10
265.1933367252349854
 20
119.5699995756149292
 10
265.9333367347717285
 20
119.1999995708465576
 10
266.6733361797332691
 20
118.8299998483657873
 10
267.4133367538452148
 20
118.4599995613098145
 10
268.153336763381958
 20
118.0899995565414429
 10
268.8933367729187012
 20
117.7199995517730713
 10
269.6333362178802417
 20
117.349999829292301
 10
270.3733367919921875
 20
116.9799995422363281
 10
271.1133368015289307
 20
116.6099995374679565
 10
271.8533356819152687
 20
116.2400000972747875
 10
272.593336820602417
 20
115.8699995279312134
 10
273.3333368301391602
 20
115.4999995231628418
 10
272.593336820602417
 20
115.1299994125365629
 10
271.8533368110656738
 20
114.759999301910284
 10
271.1133368015289307
 20
114.3899996500015277
 10
270.3733367919921875
 20
114.0199995040893555
 10
269.6333367824554443
 20
113.6499993581771832
 10
268.8933373374939038
 20
113.2799997768402136
 10
268.1533361988067554
 20
112.9099992074966394
 10
267.4133367538452148
 20
112.5399994850158691
 10
266.6733378734588769
 20
112.1700000448227001
 10
265.9333361701965259
 20
111.7999991931915247
 10
265.1933372898101879
 20
111.4299997529983557
 10
264.4533378448486474
 20
111.0600000305175854
 10
263.713336706161499
 20
110.6899994611740112
 10
262.973337825775161
 20
110.3200000209808422
 10
262.2333366870880127
 20
109.9499994516372681
 10
261.4933366775512695
 20
109.5799994468688965
 97
0
 75
0
 76
1
 47
0.0
 98
0
  0
LWPOLYLINE
  5
84
330
1D
100
AcDbEntity
  8
0
  6
ByLayer
420
16733986
 48
1.0
 60
0
 67
0
370
-1
100
AcDbPolyline
 90
33
 70
1
 43
0.0
 38
0.0
 39
0.0
210
0.0
220
0.0
230
1.0
 10
261.4933366775512695
 20
121.4199995994567871
 40
0.0
 41
0.0
 42
0.0
 10
262.2333366870880127
 20
121.0499995946884155
 40
0.0
 41
0.0
 42
0.0
 10
262.9733366966247559
 20
120.6799995899200439
 40
0.0
 41
0.0
 42
0.0
 10
263.713336706161499
 20
120.3099995851516724
 40
0.0
 41
0.0
 42
0.0
 10
264.4533367156982422
 20
119.9399995803833008
 40
0.0
 41
0.0
 42
0.0
 10
265.1933367252349854
 20
119.5699995756149292
 40
0.0
 41
0.0
 42
0.0
 10
265.9333367347717285
 20
119.1999995708465576
 40
0.0
 41
0.0
 42
0.0
 10
266.6733361797332691
 20
118.8299998483657873
 40
0.0
 41
0.0
 42
0.0
 10
267.4133367538452148
 20
118.4599995613098145
 40
0.0
 41
0.0
 42
0.0
 10
268.153336763381958
 20
118.0899995565414429
 40
0.0
 41
0.0
 42
0.0
 10
268.8933367729187012
 20
117.7199995517730713
 40
0.0
 41
0.0
 42
0.0
 10
269.6333362178802417
 20
117.349999829292301
 40
0.0
 41
0.0
 42
0.0
 10
270.3733367919921875
 20
116.9799995422363281
 40
0.0
 41
0.0
 42
0.0
 10
271.1133368015289307
 20
116.6099995374679565
 40
0.0
 41
0.0
 42
0.0
 10
271.8533356819152687
 20
116.2400000972747875
 40
0.0
 41
0.0
 42
0.0
 10
272.593336820602417
 20
115.8699995279312134
 40
0.0
 41
0.0
 42
0.0
 10
273.3333368301391602
 20
115.4999995231628418
 40
0.0
 41
0.0
 42
0.0
 10
272.593336820602417
 20
115.1299994125365629
 40
0.0
 41
0.0
 42
0.0
 10
271.8533368110656738
 20
114.759999301910284
 40
0.0
 41
0.0
 42
0.0
 10
271.1133368015289307
 20
114.3899996500015277
 40
0.0
 41
0.0
 42
0.0
 10
270.3733367919921875
 20
114.0199995040893555
 40
0.0
 41
0.0
 42
0.0
 10
269.6333367824554443
 20
113.6499993581771832
 40
0.0
 41
0.0
 42
0.0
 10
268.8933373374939038
 20
113.2799997768402136
 40
0.0
 41
0.0
 42
0.0
 10
268.1533361988067554
 20
112.9099992074966394
 40
0.0
 41
0.0
 42
0.0
 10
267.4133367538452148
 20
112.5399994850158691
 40
0.0
 41
0.0
 42
0.0
 10
266.6733378734588769
 20
112.1700000448227001
 40
0.0
 41
0.0
 42
0.0
 10
265.9333361701965259
 20
111.7999991931915247
 40
0.0
 41
0.0
 42
0.0
 10
265.1933372898101879
 20
111.4299997529983557
 40
0.0
 41
0.0
 42
0.0
 10
264.4533378448486474
 20
111.0600000305175854
 40
0.0
 41
0.0
 42
0.0
 10
263.713336706161499
 20
110.6899994611740112
 40
0.0
 41
0.0
 42
0.0
 10
262.973337825775161
 20
110.3200000209808422
 40
0.0
 41
0.0
 42
0.0
 10
262.2333366870880127
 20
109.9499994516372681
 40
0.0
 41
0.0
 42
0.0
 10
261.4933366775512695
 20
109.5799994468688965
 40
0.0
 41
0.0
 42
0.0
  0
LWPOLYLINE
  5
85
330
1D
100
AcDbEntity
  8
0
  6
ByLayer
420
16733986
 48
1.0
 60
0
 67
0
370
-1
100
AcDbPolyline
 90
2
 70
0
 43
0.0
 38
0.0
 39
0.0
210
0.0
220
0.0
230
1.0
 10
26.6666669845581055
 20
78.4999990463256836
 40
0.0
 41
0.0
 42
0.0
 10
273.3333368301391602
 20
78.4999990463256836
 40
0.0
 41
0.0
 42
0.0
  0
HATCH
  5
86
330
1D
100
AcDbEntity
  8
0
  6
ByLayer
420
16733986
 48
1.0
 60
0
 67
0
370
-1
100
AcDbHatch
 30
0.0
210
0.0
220
0.0
230
1.0
  2
SOLID
 70
1
 71
0
 91
1
 92
2
 72
0
 73
1
 93
33
 10
249.6533365249633789
 20
90.3399991989135742
 10
251.1333365440368652
 20
89.5999991893768311
 10
252.6133365631103516
 20
88.8599991798400879
 10
254.0933365821838379
 20
88.1199991703033447
 10
255.5733366012573242
 20
87.3799991607666016
 10
257.0533366203308105
 20
86.6399991512298584
 10
258.5333366394042969
 20
85.8999991416931152
 10
260.013335529327378
 20
85.1599996967315747
 10
261.4933366775512695
 20
84.4199991226196289
 10
262.9733366966247559
 20
83.6799991130828857
 10
264.4533367156982422
 20
82.9399991035461426
 10
265.9333356056213233
 20
82.199999658584602
 10
267.4133367538452148
 20
81.4599990844726563
 10
268.8933367729187012
 20
80.7199990749359131
 10
270.3733345336913771
 20
79.9800001945495751
 10
271.8533368110656738
 20
79.2399990558624268
 10
273.3333368301391602
 20
78.4999990463256836
 10
271.8533368110656738
 20
77.7599988250731258
 10
270.3733367919921875
 20
77.0199986038207953
 10
268.8933367729187012
 20
76.2799993000030554
 10
267.4133367538452148
 20
75.5399990081787109
 10
265.9333367347717285
 20
74.7999987163543665
 10
264.4533378448486474
 20
74.0599995536804272
 10
262.9733355674743507
 20
73.3199984149932789
 10
261.4933366775512695
 20
72.5799989700317383
 10
260.0133389167785936
 20
71.8400000896454003
 10
258.5333355102538917
 20
71.0999983863830494
 10
257.0533377494812157
 20
70.3599995059967114
 10
255.5733388595581346
 20
69.6200000610351708
 10
254.0933365821838379
 20
68.8799989223480225
 10
252.6133388214111619
 20
68.1400000419616845
 10
251.1333365440368652
 20
67.3999989032745361
 10
249.6533365249633789
 20
66.659998893737793
 97
0
 75
0
 76
1
 47
0.0
 98
0
  0
LWPOLYLINE
  5
87
330
1D
100
AcDbEntity
  8
0
  6
ByLayer
420
16733986
 48
1.0
 60
0
 67
0
370
-1
100
AcDbPolyline
 90
33
 70
1
 43
0.0
 38
0.0
 39
0.0
210
0.0
220
0.0
230
1.0
 10
249.6533365249633789
 20
90.3399991989135742
 40
0.0
 41
0.0
 42
0.0
 10
251.1333365440368652
 20
89.5999991893768311
 40
0.0
 41
0.0
 42
0.0
 10
252.6133365631103516
 20
88.8599991798400879
 40
0.0
 41
0.0
 42
0.0
 10
254.0933365821838379
 20
88.1199991703033447
 40
0.0
 41
0.0
 42
0.0
 10
255.5733366012573242
 20
87.3799991607666016
 40
0.0
 41
0.0
 42
0.0
 10
257.0533366203308105
 20
86.6399991512298584
 40
0.0
 41
0.0
 42
0.0
 10
258.5333366394042969
 20
85.8999991416931152
 40
0.0
 41
0.0
 42
0.0
 10
260.013335529327378
 20
85.1599996967315747
 40
0.0
 41
0.0
 42
0.0
 10
261.4933366775512695
 20
84.4199991226196289
 40
0.0
 41
0.0
 42
0.0
 10
262.9733366966247559
 20
83.6799991130828857
 40
0.0
 41
0.0
 42
0.0
 10
264.4533367156982422
 20
82.9399991035461426
 40
0.0
 41
0.0
 42
0.0
 10
265.9333356056213233
 20
82.199999658584602
 40
0.0
 41
0.0
 42
0.0
 10
267.4133367538452148
 20
81.4599990844726563
 40
0.0
 41
0.0
 42
0.0
 10
268.8933367729187012
 20
80.7199990749359131
 40
0.0
 41
0.0
 42
0.0
 10
270.3733345336913771
 20
79.9800001945495751
 40
0.0
 41
0.0
 42
0.0
 10
271.8533368110656738
 20
79.2399990558624268
 40
0.0
 41
0.0
 42
0.0
 10
273.3333368301391602
 20
78.4999990463256836
 40
0.0
 41
0.0
 42
0.0
 10
271.8533368110656738
 20
77.7599988250731258
 40
0.0
 41
0.0
 42
0.0
 10
270.3733367919921875
 20
77.0199986038207953
 40
0.0
 41
0.0
 42
0.0
 10
268.8933367729187012
 20
76.2799993000030554
 40
0.0
 41
0.0
 42
0.0
 10
267.4133367538452148
 20
75.5399990081787109
 40
0.0
 41
0.0
 42
0.0
 10
265.9333367347717285
 20
74.7999987163543665
 40
0.0
 41
0.0
 42
0.0
 10
264.4533378448486474
 20
74.0599995536804272
 40
0.0
 41
0.0
 42
0.0
 10
262.9733355674743507
 20
73.3199984149932789
 40
0.0
 41
0.0
 42
0.0
 10
261.4933366775512695
 20
72.5799989700317383
 40
0.0
 41
0.0
 42
0.0
 10
260.0133389167785936
 20
71.8400000896454003
 40
0.0
 41
0.0
 42
0.0
 10
258.5333355102538917
 20
71.0999983863830494
 40
0.0
 41
0.0
 42
0.0
 10
257.0533377494812157
 20
70.3599995059967114
 40
0.0
 41
0.0
 42
0.0
 10
255.5733388595581346
 20
69.6200000610351708
 40
0.0
 41
0.0
 42
0.0
 10
254.0933365821838379
 20
68.8799989223480225
 40
0.0
 41
0.0
 42
0.0
 10
252.6133388214111619
 20
68.1400000419616845
 40
0.0
 41
0.0
 42
0.0
 10
251.1333365440368652
 20
67.3999989032745361
 40
0.0
 41
0.0
 42
0.0
 10
249.6533365249633789
 20
66.659998893737793
 40
0.0
 41
0.0
 42
0.0
  0
LWPOLYLINE
  5
88
330
1D
100
AcDbEntity
  8
0
  6
ByLayer
420
16733986
 48
1.0
 60
0
 67
0
370
-1
100
AcDbPolyline
 90
2
 70
0
 43
0.0
 38
0.0
 39
0.0
210
0.0
220
0.0
230
1.0
 10
26.6666669845581055
 20
41.4999985694885254
 40
0.0
 41
0.0
 42
0.0
 10
273.3333368301391602
 20
41.4999985694885254
 40
0.0
 41
0.0
 42
0.0
  0
HATCH
  5
89
330
1D
100
AcDbEntity
  8
0
  6
ByLayer
420
16733986
 48
1.0
 60
0
 67
0
370
-1
100
AcDbHatch
 30
0.0
210
0.0
220
0.0
230
1.0
  2
SOLID
 70
1
 71
0
 91
1
 92
2
 72
0
 73
1
 93
33
 10
225.9733362197875977
 20
65.1799988746643066
 10
228.9333362579345703
 20
63.6999988555908203
 10
231.893336296081543
 20
62.219998836517334
 10
234.8533363342285156
 20
60.7399988174438477
 10
237.8133363723754883
 20
59.2599987983703613
 10
240.7733364105224609
 20
57.779998779296875
 10
243.7333364486694336
 20
56.2999987602233887
 10
246.6933342285155959
 20
54.8199998703003075
 10
249.6533365249633789
 20
53.339998722076416
 10
252.6133365631103516
 20
51.8599987030029297
 10
255.5733366012573242
 20
50.3799986839294434
 10
258.5333343811034865
 20
48.8999997940063622
 10
261.4933366775512695
 20
47.4199986457824707
 10
264.4533367156982422
 20
45.9399986267089844
 10
267.4133322372435941
 20
44.4600008659363084
 10
270.3733367919921875
 20
42.9799985885620117
 10
273.3333368301391602
 20
41.4999985694885254
 10
270.3733367919921875
 20
40.0199981269834097
 10
267.4133367538452148
 20
38.5399976844787489
 10
264.4533367156982422
 20
37.059999076843269
 10
261.4933366775512695
 20
35.5799984931945801
 10
258.5333366394042969
 20
34.0999979095458912
 10
255.5733388595581346
 20
32.6199995841980126
 10
252.6133343048095412
 20
31.1399973068237159
 10
249.6533365249633789
 20
29.6599984169006348
 10
246.693341003418027
 20
28.1800006561279588
 10
243.7333341903686232
 20
26.6999972496032569
 10
240.7733386688232713
 20
25.219999488830581
 10
237.813340888977109
 20
23.7400005989074998
 10
234.8533363342285156
 20
22.2599983215332031
 10
231.8933408126831637
 20
20.7800005607605272
 10
228.9333362579345703
 20
19.2999982833862305
 10
225.9733362197875977
 20
17.8199982643127441
 97
0
 75
0
 76
1
 47
0.0
 98
0
  0
LWPOLYLINE
  5
8A
330
1D
100
AcDbEntity
  8
0
  6
ByLayer
420
16733986
 48
1.0
 60
0
 67
0
370
-1
100
AcDbPolyline
 90
33
 70
1
 43
0.0
 38
0.0
 39
0.0
210
0.0
220
0.0
230
1.0
 10
225.9733362197875977
 20
65.1799988746643066
 40
0.0
 41
0.0
 42
0.0
 10
228.9333362579345703
 20
63.6999988555908203
 40
0.0
 41
0.0
 42
0.0
 10
231.893336296081543
 20
62.219998836517334
 40
0.0
 41
0.0
 42
0.0
 10
234.8533363342285156
 20
60.7399988174438477
 40
0.0
 41
0.0
 42
0.0
 10
237.8133363723754883
 20
59.2599987983703613
 40
0.0
 41
0.0
 42
0.0
 10
240.7733364105224609
 20
57.779998779296875
 40
0.0
 41
0.0
 42
0.0
 10
243.7333364486694336
 20
56.2999987602233887
 40
0.0
 41
0.0
 42
0.0
 10
246.6933342285155959
 20
54.8199998703003075
 40
0.0
 41
0.0
 42
0.0
 10
249.6533365249633789
 20
53.339998722076416
 40
0.0
 41
0.0
 42
0.0
 10
252.6133365631103516
 20
51.8599987030029297
 40
0.0
 41
0.0
 42
0.0
 10
255.5733366012573242
 20
50.3799986839294434
 40
0.0
 41
0.0
 42
0.0
 10
258.5333343811034865
 20
48.8999997940063622
 40
0.0
 41
0.0
 42
0.0
 10
261.4933366775512695
 20
47.4199986457824707
 40
0.0
 41
0.0
 42
0.0
 10
264.4533367156982422
 20
45.9399986267089844
 40
0.0
 41
0.0
 42
0.0
 10
267.4133322372435941
 20
44.4600008659363084
 40
0.0
 41
0.0
 42
0.0
 10
270.3733367919921875
 20
42.9799985885620117
 40
0.0
 41
0.0
 42
0.0
 10
273.3333368301391602
 20
41.4999985694885254
 40
0.0
 41
0.0
 42
0.0
 10
270.3733367919921875
 20
40.0199981269834097
 40
0.0
 41
0.0
 42
0.0
 10
267.4133367538452148
 20
38.5399976844787489
 40
0.0
 41
0.0
 42
0.0
 10
264.4533367156982422
 20
37.059999076843269
 40
0.0
 41
0.0
 42
0.0
 10
261.4933366775512695
 20
35.5799984931945801
 40
0.0
 41
0.0
 42
0.0
 10
258.5333366394042969
 20
34.0999979095458912
 40
0.0
 41
0.0
 42
0.0
 10
255.5733388595581346
 20
32.6199995841980126
 40
0.0
 41
0.0
 42
0.0
 10
252.6133343048095412
 20
31.1399973068237159
 40
0.0
 41
0.0
 42
0.0
 10
249.6533365249633789
 20
29.6599984169006348
 40
0.0
 41
0.0
 42
0.0
 10
246.693341003418027
 20
28.1800006561279588
 40
0.0
 41
0.0
 42
0.0
 10
243.7333341903686232
 20
26.6999972496032569
 40
0.0
 41
0.0
 42
0.0
 10
240.7733386688232713
 20
25.219999488830581
 40
0.0
 41
0.0
 42
0.0
 10
237.813340888977109
 20
23.7400005989074998
 40
0.0
 41
0.0
 42
0.0
 10
234.8533363342285156
 20
22.2599983215332031
 40
0.0
 41
0.0
 42
0.0
 10
231.8933408126831637
 20
20.7800005607605272
 40
0.0
 41
0.0
 42
0.0
 10
228.9333362579345703
 20
19.2999982833862305
 40
0.0
 41
0.0
 42
0.0
 10
225.9733362197875977
 20
17.8199982643127441
 40
0.0
 41
0.0
 42
0.0
  0
ENDSEC
  0
SECTION
  2
OBJECTS
  0
DICTIONARY
  5
1
330
0
100
AcDbDictionary
280
0
281
0
  3
ACAD_COLOR
350
2
  3
ACAD_GROUP
350
3
  3
ACAD_LAYOUT
350
4
  3
ACAD_MATERIAL
350
5
  3
ACAD_SORTENTS
350
6
  3
ACAD_MLEADERSTYLE
350
7
  3
ACAD_MLINESTYLE
350
8
  3
ACAD_TABLESTYLE
350
9
  3
ACAD_PLOTSETTINGS
350
A
  3
AcDbVariableDictionary
350
B
  3
ACAD_SCALELIST
350
C
  3
ACAD_VISUALSTYLE
350
D
  3
ACAD_FIELDLIST
350
E
  3
ACAD_IMAGE_DICT
350
F
  0
DICTIONARY
  5
2
330
1
100
AcDbDictionary
280
0
281
0
  0
DICTIONARY
  5
3
330
1
100
AcDbDictionary
280
0
281
0
  0
DICTIONARY
  5
4
330
1
100
AcDbDictionary
280
0
281
0
  0
DICTIONARY
  5
5
330
1
100
AcDbDictionary
280
0
281
0
  0
DICTIONARY
  5
6
330
1
100
AcDbDictionary
280
0
281
0
  0
DICTIONARY
  5
7
330
1
100
AcDbDictionary
280
0
281
0
  0
DICTIONARY
  5
8
330
1
100
AcDbDictionary
280
0
281
0
  0
DICTIONARY
  5
9
330
1
100
AcDbDictionary
280
0
281
0
  0
DICTIONARY
  5
A
330
1
100
AcDbDictionary
280
0
281
0
  0
DICTIONARY
  5
B
330
1
100
AcDbDictionary
280
0
281
0
  0
DICTIONARY
  5
C
330
1
100
AcDbDictionary
280
0
281
0
  0
DICTIONARY
  5
D
330
1
100
AcDbDictionary
280
0
281
0
  0
DICTIONARY
  5
E
330
1
100
AcDbDictionary
280
0
281
0
  0
DICTIONARY
  5
F
330
1
100
AcDbDictionary
280
0
281
0
  0
ENDSEC
  0
EOF
