  0
SECTION
  2
HEADER
  9
$ANGBASE
 50
0.0
  9
$ANGDIR
 70
1
  9
$AUNITS
 70
0
  9
$AUPREC
 70
0
  9
$ATTMODE
 70
1
  9
$DWGCODEPAGE
  3
ANSI_1252
  9
$TDCREATE
 40
2451545.0416666665114462
  9
$CECOLOR
 62
256
  9
$CELTSCALE
 40
1.0
  9
$CELWEIGHT
370
-1
  9
$CLAYER
  8
0
  9
$CELTYPE
  6
ByLayer
  9
$CMLJUST
 70
0
  9
$CMLSCALE
 40
20.0
  9
$CMLSTYLE
  2
Standard
  9
$DIMSTYLE
  2
Standard
  9
$LWDISPLAY
290
0
  9
$EXTNAMES
290
1
  9
$HANDSEED
  5
28
  9
$INSUNITS
 70
0
  9
$LUNITS
 70
2
  9
$LUPREC
 70
4
  9
$LTSCALE
 40
1.0
  9
$MIRRTEXT
 70
0
  9
$INSBASE
 10
0.0
 20
0.0
 30
0.0
  9
$SPLINESEGS
 70
8
  9
$PSLTSCALE
 70
1
  9
$PDMODE
 70
0
  9
$PDSIZE
 40
0.0
  9
$PLINEGEN
 70
0
  9
$TEXTSIZE
 40
0.2
  9
$TEXTSTYLE
  7
Standard
  9
$TDINDWG
 40
0.0
  9
$TDUCREATE
 40
2451545.0416666665114462
  9
$TDUUPDATE
 40
2451545.0416666665114462
  9
$TDUPDATE
 40
2451545.0416666665114462
  9
$ACADVER
  1
AC1018
  0
ENDSEC
  0
SECTION
  2
CLASSES
  0
CLASS
  1
ACDBDICTIONARYWDFLT
  2
AcDbDictionaryWithDefault
  3
ObjectDBX Classes
 90
32768
 91
0
280
0
281
0
  0
CLASS
  1
ACDBPLACEHOLDER
  2
AcDbPlaceHolder
  3
ObjectDBX Classes
 90
0
 91
0
280
0
281
0
  0
CLASS
  1
LAYOUT
  2
AcDbLayout
  3
ObjectDBX Classes
 90
0
 91
0
280
0
281
0
  0
CLASS
  1
DICTIONARYVAR
  2
AcDbDictionaryVar
  3
ObjectDBX Classes
 90
0
 91
0
280
0
281
0
  0
CLASS
  1
TABLESTYLE
  2
AcDbTableStyle
  3
ObjectDBX Classes
 90
4095
 91
0
280
0
281
0
  0
CLASS
  1
MATERIAL
  2
AcDbMaterial
  3
ObjectDBX Classes
 90
1153
 91
0
280
0
281
0
  0
CLASS
  1
VISUALSTYLE
  2
AcDbVisualStyle
  3
ObjectDBX Classes
 90
4095
 91
0
280
0
281
0
  0
CLASS
  1
SCALE
  2
AcDbScale
  3
ObjectDBX Classes
 90
1153
 91
0
280
0
281
0
  0
CLASS
  1
MLEADERSTYLE
  2
AcDbMLeaderStyle
  3
ObjectDBX Classes
 90
4095
 91
0
280
0
281
0
  0
CLASS
  1
CELLSTYLEMAP
  2
AcDbCellStyleMap
  3
ObjectDBX Classes
 90
1152
 91
0
280
0
281
0
  0
CLASS
  1
EXACXREFPANELOBJECT
  2
ExAcXREFPanelObject
  3
ObjectDBX Classes
 90
1025
 91
0
280
0
281
0
  0
CLASS
  1
NPOCOLLECTION
  2
AcDbImpNonPersistentObjectsCollection
  3
ObjectDBX Classes
 90
1153
 91
0
280
0
281
0
  0
CLASS
  1
LAYER_INDEX
  2
AcDbLayerIndex
  3
ObjectDBX Classes
 90
0
 91
0
280
0
281
0
  0
CLASS
  1
SPATIAL_INDEX
  2
AcDbSpatialIndex
  3
ObjectDBX Classes
 90
0
 91
0
280
0
281
0
  0
CLASS
  1
IDBUFFER
  2
AcDbIdBuffer
  3
ObjectDBX Classes
 90
32768
 91
0
280
0
281
0
  0
CLASS
  1
ACDBSECTIONVIEWSTYLE
  2
AcDbSectionViewStyle
  3
ObjectDBX Classes
 90
1025
 91
0
280
0
281
0
  0
CLASS
  1
ACDBDETAILVIEWSTYLE
  2
AcDbDetailViewStyle
  3
ObjectDBX Classes
 90
1025
 91
0
280
0
281
0
  0
CLASS
  1
MESH
  2
AcDbSubDMesh
  3
ObjectDBX Classes
 90
0
 91
0
280
0
281
1
  0
CLASS
  1
SORTENTSTABLE
  2
AcDbSortentsTable
  3
ObjectDBX Classes
 90
0
 91
0
280
0
281
0
  0
CLASS
  1
ACDB_TEXTOBJECTCONTEXTDATA_CLASS
  2
AcDbTextObjectContextData
  3
ObjectDBX Classes
 90
1153
 91
0
280
0
281
0
  0
CLASS
  1
WIPEOUT
  2
AcDbWipeout
  3
WipeOut
 90
32895
 91
0
280
0
281
1
  0
CLASS
  1
WIPEOUTVARIABLES
  2
AcDbWipeoutVariables
  3
WipeOut
 90
32768
 91
0
280
0
281
0
  0
CLASS
  1
DIMASSOC
  2
AcDbDimAssoc
  3
AcDbDimAssoc
 90
0
 91
0
280
0
281
0
  0
CLASS
  1
ACAD_TABLE
  2
AcDbTable
  3
ObjectDBX Classes
 90
1025
 91
0
280
0
281
1
  0
CLASS
  1
TABLECONTENT
  2
AcDbTableContent
  3
ObjectDBX Classes
 90
1152
 91
0
280
0
281
0
  0
CLASS
  1
TABLEGEOMETRY
  2
AcDbTableGeometry
  3
ObjectDBX Classes
 90
1152
 91
0
280
0
281
0
  0
CLASS
  1
IMAGE
  2
AcDbRasterImage
  3
ISM
 90
32895
 91
0
280
0
281
1
  0
CLASS
  1
IMAGEDEF
  2
AcDbRasterImageDef
  3
ISM
 90
0
 91
0
280
0
281
0
  0
CLASS
  1
IMAGEDEF_REACTOR
  2
AcDbRasterImageDefReactor
  3
ISM
 90
1
 91
0
280
0
281
0
  0
CLASS
  1
DBCOLOR
  2
AcDbColor
  3
ObjectDBX Classes
 90
0
 91
0
280
0
281
0
  0
CLASS
  1
GEODATA
  2
AcDbGeoData
  3
ObjectDBX Classes
 90
4095
 91
0
280
0
281
0
  0
CLASS
  1
MULTILEADER
  2
AcDbMLeader
  3
ObjectDBX Classes
 90
1025
 91
0
280
0
281
0
  0
CLASS
  1
PDFUNDERLAY
  2
AcDbPdfReference
  3
ObjectDBX Classes
 90
4095
 91
0
280
0
281
1
  0
CLASS
  1
PDFDEFINITION
  2
AcDbPdfDefinition
  3
ObjectDBX Classes
 90
1153
 91
0
280
0
281
0
  0
CLASS
  1
RASTERVARIABLES
  2
AcDbRasterVariables
  3
ISM
 90
0
 91
0
280
0
281
0
  0
CLASS
  1
SPATIAL_FILTER
  2
AcDbSpatialFilter
  3
ObjectDBX Classes
 90
0
 91
0
280
0
281
0
  0
CLASS
  1
ACDB_MLEADEROBJECTCONTEXTDATA_CLASS
  2
AcDbMLeaderObjectContextData
  3
ObjectDBX Classes
 90
1025
 91
0
280
0
281
0
  0
CLASS
  1
PLOTSETTINGS
  2
AcDbPlotSettings
  3
ObjectDBX Classes
 90
0
 91
0
280
0
281
0
  0
CLASS
  1
FIELD
  2
AcDbField
  3
ObjectDBX Classes
 90
1152
 91
0
280
0
281
0
  0
CLASS
  1
FIELDLIST
  2
AcDbFieldList
  3
ObjectDBX Classes
 90
1152
 91
0
280
0
281
0
  0
CLASS
  1
ACDB_MTEXTATTRIBUTEOBJECTCONTEXTDATA_CLASS
  2
AcDbMTextAttributeObjectContextData
  3
ObjectDBX Classes
 90
1153
 91
0
280
0
281
0
  0
CLASS
  1
ACDB_BLKREFOBJECTCONTEXTDATA_CLASS
  2
AcDbBlkRefObjectContextData
  3
ObjectDBX Classes
 90
1153
 91
0
280
0
281
0
  0
ENDSEC
  0
SECTION
  2
TABLES
  0
TABLE
  2
VPORT
  5
18
330
0
100
AcDbSymbolTable
 70
1
  0
VPORT
  5
26
330
18
100
AcDbSymbolTableRecord
100
AcDbViewportTableRecord
  2
*Active
 70
0
 10
0.0
 20
0.0
 11
1.0
 21
1.0
 12
0.0
 22
0.0
 13
0.0
 23
0.0
 14
0.5
 24
0.5
 15
10.0
 25
10.0
 16
0.0
 26
0.0
 36
1.0
 17
0.0
 27
0.0
 37
0.0
 40
10.0
 41
1.0
 75
0
 76
1
  0
ENDTAB
  0
TABLE
  2
LTYPE
  5
14
330
0
100
AcDbSymbolTable
 70
3
  0
LTYPE
  5
19
330
14
100
AcDbSymbolTableRecord
100
AcDbLinetypeTableRecord
  2
ByLayer
 70
0
 72
0
 73
0
 40
0.0
  0
LTYPE
  5
1A
330
14
100
AcDbSymbolTableRecord
100
AcDbLinetypeTableRecord
  2
ByBlock
 70
0
 72
0
 73
0
 40
0.0
  0
LTYPE
  5
1B
330
14
100
AcDbSymbolTableRecord
100
AcDbLinetypeTableRecord
  2
Continuous
 70
0
 72
0
 73
0
 40
0.0
  0
ENDTAB
  0
TABLE
  2
LAYER
  5
13
330
0
100
AcDbSymbolTable
 70
1
  0
LAYER
  5
1C
330
13
100
AcDbSymbolTableRecord
100
AcDbLayerTableRecord
  2
0
 70
0
 62
7
  6
Continuous
290
1
370
-3
390
0
  0
ENDTAB
  0
TABLE
  2
STYLE
  5
15
330
0
100
AcDbSymbolTable
 70
1
  0
STYLE
  5
23
330
15
100
AcDbSymbolTableRecord
100
AcDbTextStyleTableRecord
  2
Standard
 70
0
 40
0.0
 41
1.0
 42
0.0
 50
0.0
 71
0
  0
ENDTAB
  0
TABLE
  2
VIEW
  5
17
330
0
100
AcDbSymbolTable
 70
0
  0
ENDTAB
  0
TABLE
  2
UCS
  5
16
330
0
100
AcDbSymbolTable
 70
0
  0
ENDTAB
  0
TABLE
  2
APPID
  5
10
330
0
100
AcDbSymbolTable
 70
1
  0
APPID
  5
25
330
10
100
AcDbSymbolTableRecord
100
AcDbRegAppTableRecord
  2
ACAD
 70
0
  0
ENDTAB
  0
TABLE
  2
DIMSTYLE
  5
12
330
0
100
AcDbSymbolTable
 70
1
100
AcDbDimStyleTable
  0
DIMSTYLE
105
24
330
12
100
AcDbSymbolTableRecord
100
AcDbDimStyleTableRecord
  2
Standard
 70
0
  3
<>
  4
[]
 40
1.0
 41
0.18
 42
0.625
 43
3.75
 44
1.25
 45
0.0
 46
0.0
 47
0.0
 48
0.0
 49
1.0
 50
45.0
 70
0
 90
0
140
0.18
141
0.09
142
0.0
143
25.3999999999999986
144
1.0
145
0.0
146
1.0
147
0.625
148
0.0
 71
0
 72
0
 73
0
 74
0
 75
0
 76
0
 77
1
 78
8
 79
0
170
0
171
3
172
0
173
1
174
0
175
0
176
0
177
0
178
0
179
0
271
2
272
2
273
2
274
3
275
0
276
0
277
2
278
46
279
0
280
0
281
0
282
0
283
0
284
8
285
0
286
0
287
0
288
0
289
3
290
0
340
0
371
-2
372
-2
  0
ENDTAB
  0
TABLE
  2
BLOCK_RECORD
  5
11
330
0
100
AcDbSymbolTable
 70
2
  0
BLOCK_RECORD
  5
1D
330
11
100
AcDbSymbolTableRecord
100
AcDbBlockTableRecord
  2
*Model_Space
 70
0
340
0
 70
0
280
0
281
1
  0
BLOCK_RECORD
  5
20
330
11
100
AcDbSymbolTableRecord
100
AcDbBlockTableRecord
  2
*Paper_Space
 70
0
340
0
 70
0
280
0
281
1
  0
ENDTAB
  0
ENDSEC
  0
SECTION
  2
BLOCKS
  0
BLOCK
  5
1E
330
1D
100
AcDbEntity
  8
0
  6
ByLayer
 62
256
 48
1.0
 60
0
 67
0
370
-1
100
AcDbBlockBegin
  2
*Model_Space
 70
0
 10
0.0
 20
0.0
 30
0.0
  3
*Model_Space
  0
ENDBLK
  5
1F
330
1D
100
AcDbEntity
  8
0
100
AcDbBlockEnd
  0
BLOCK
  5
21
330
20
100
AcDbEntity
  8
0
  6
ByLayer
 62
256
 48
1.0
 60
0
 67
1
370
-1
100
AcDbBlockBegin
  2
*Paper_Space
 70
0
 10
0.0
 20
0.0
 30
0.0
  3
*Paper_Space
  0
ENDBLK
  5
22
330
20
100
AcDbEntity
  8
0
100
AcDbBlockEnd
  0
ENDSEC
  0
SECTION
  2
ENTITIES
  0
LWPOLYLINE
  5
27
330
1D
100
AcDbEntity
  8
0
  6
ByLayer
420
16711680
 48
1.0
 60
0
 67
0
370
-1
100
AcDbPolyline
 90
412
 70
0
 43
0.0
 38
0.0
 39
0.0
210
0.0
220
0.0
230
1.0
 10
103.0
 20
623.0
 40
0.0
 41
0.0
 42
0.0
 10
104.9999275207519531
 20
623.0
 40
0.0
 41
0.0
 42
0.0
 10
106.9998550415039063
 20
623.0
 40
0.0
 41
0.0
 42
0.0
 10
108.9997825622558594
 20
623.0
 40
0.0
 41
0.0
 42
0.0
 10
110.9997100830078125
 20
623.0
 40
0.0
 41
0.0
 42
0.0
 10
112.9996376037597656
 20
623.0
 40
0.0
 41
0.0
 42
0.0
 10
114.9995651245117188
 20
623.0
 40
0.0
 41
0.0
 42
0.0
 10
116.9994926452636719
 20
623.0
 40
0.0
 41
0.0
 42
0.0
 10
118.999420166015625
 20
623.0
 40
0.0
 41
0.0
 42
0.0
 10
120.9993495941162109
 20
623.0
 40
0.0
 41
0.0
 42
0.0
 10
122.9992771148681641
 20
623.0
 40
0.0
 41
0.0
 42
0.0
 10
124.9992046356201172
 20
623.0
 40
0.0
 41
0.0
 42
0.0
 10
126.9991302490234375
 20
623.0
 40
0.0
 41
0.0
 42
0.0
 10
128.9990615844726563
 20
623.0
 40
0.0
 41
0.0
 42
0.0
 10
130.9989852905273438
 20
623.0
 40
0.0
 41
0.0
 42
0.0
 10
132.9989166259765625
 20
623.0
 40
0.0
 41
0.0
 42
0.0
 10
134.99884033203125
 20
623.0
 40
0.0
 41
0.0
 42
0.0
 10
136.9987716674804688
 20
623.0
 40
0.0
 41
0.0
 42
0.0
 10
138.9986991882324219
 20
623.0
 40
0.0
 41
0.0
 42
0.0
 10
140.998626708984375
 20
623.0
 40
0.0
 41
0.0
 42
0.0
 10
142.9985542297363281
 20
623.0
 40
0.0
 41
0.0
 42
0.0
 10
144.9984817504882813
 20
623.0
 40
0.0
 41
0.0
 42
0.0
 10
146.9984092712402344
 20
623.0
 40
0.0
 41
0.0
 42
0.0
 10
148.9983367919921875
 20
623.0
 40
0.0
 41
0.0
 42
0.0
 10
150.9982643127441406
 20
623.0
 40
0.0
 41
0.0
 42
0.0
 10
152.9981918334960938
 20
623.0
 40
0.0
 41
0.0
 42
0.0
 10
154.9981193542480469
 20
623.0
 40
0.0
 41
0.0
 42
0.0
 10
156.998046875
 20
623.0
 40
0.0
 41
0.0
 42
0.0
 10
158.9979705810546875
 20
623.0
 40
0.0
 41
0.0
 42
0.0
 10
160.9979019165039063
 20
623.0
 40
0.0
 41
0.0
 42
0.0
 10
162.997833251953125
 20
623.0
 40
0.0
 41
0.0
 42
0.0
 10
164.9977569580078125
 20
623.0
 40
0.0
 41
0.0
 42
0.0
 10
166.9976806640625
 20
623.0
 40
0.0
 41
0.0
 42
0.0
 10
168.9976119995117188
 20
623.0
 40
0.0
 41
0.0
 42
0.0
 10
170.9975433349609375
 20
623.0
 40
0.0
 41
0.0
 42
0.0
 10
172.997467041015625
 20
623.0
 40
0.0
 41
0.0
 42
0.0
 10
174.9973983764648438
 20
623.0
 40
0.0
 41
0.0
 42
0.0
 10
176.9973220825195313
 20
623.0
 40
0.0
 41
0.0
 42
0.0
 10
178.99725341796875
 20
623.0
 40
0.0
 41
0.0
 42
0.0
 10
180.9971771240234375
 20
623.0
 40
0.0
 41
0.0
 42
0.0
 10
182.9971084594726563
 20
623.0
 40
0.0
 41
0.0
 42
0.0
 10
184.9970321655273438
 20
623.0
 40
0.0
 41
0.0
 42
0.0
 10
186.9969635009765625
 20
623.0
 40
0.0
 41
0.0
 42
0.0
 10
188.99688720703125
 20
623.0
 40
0.0
 41
0.0
 42
0.0
 10
190.9968185424804688
 20
623.0
 40
0.0
 41
0.0
 42
0.0
 10
192.9967422485351563
 20
623.0
 40
0.0
 41
0.0
 42
0.0
 10
194.996673583984375
 20
623.0
 40
0.0
 41
0.0
 42
0.0
 10
196.9965972900390625
 20
623.0
 40
0.0
 41
0.0
 42
0.0
 10
198.9965286254882813
 20
623.0
 40
0.0
 41
0.0
 42
0.0
 10
200.9964599609375
 20
623.0
 40
0.0
 41
0.0
 42
0.0
 10
202.9963836669921875
 20
623.0
 40
0.0
 41
0.0
 42
0.0
 10
204.9963150024414063
 20
623.0
 40
0.0
 41
0.0
 42
0.0
 10
206.9962387084960938
 20
623.0
 40
0.0
 41
0.0
 42
0.0
 10
208.9961700439453125
 20
623.0
 40
0.0
 41
0.0
 42
0.0
 10
210.99609375
 20
623.0
 40
0.0
 41
0.0
 42
0.0
 10
212.9960250854492188
 20
623.0
 40
0.0
 41
0.0
 42
0.0
 10
214.9959487915039063
 20
623.0
 40
0.0
 41
0.0
 42
0.0
 10
216.995880126953125
 20
623.0
 40
0.0
 41
0.0
 42
0.0
 10
218.9958038330078125
 20
623.0
 40
0.0
 41
0.0
 42
0.0
 10
220.9957351684570313
 20
623.0
 40
0.0
 41
0.0
 42
0.0
 10
222.99566650390625
 20
623.0
 40
0.0
 41
0.0
 42
0.0
 10
224.9955902099609375
 20
623.0
 40
0.0
 41
0.0
 42
0.0
 10
226.995513916015625
 20
623.0
 40
0.0
 41
0.0
 42
0.0
 10
228.995452880859375
 20
623.0
 40
0.0
 41
0.0
 42
0.0
 10
230.995361328125
 20
623.0
 40
0.0
 41
0.0
 42
0.0
 10
232.99530029296875
 20
623.0
 40
0.0
 41
0.0
 42
0.0
 10
234.9952239990234375
 20
623.0
 40
0.0
 41
0.0
 42
0.0
 10
236.995147705078125
 20
623.0
 40
0.0
 41
0.0
 42
0.0
 10
238.995086669921875
 20
623.0
 40
0.0
 41
0.0
 42
0.0
 10
240.9950103759765625
 20
623.0
 40
0.0
 41
0.0
 42
0.0
 10
242.99493408203125
 20
623.0
 40
0.0
 41
0.0
 42
0.0
 10
244.9948577880859375
 20
623.0
 40
0.0
 41
0.0
 42
0.0
 10
246.9947967529296875
 20
623.0
 40
0.0
 41
0.0
 42
0.0
 10
248.994720458984375
 20
623.0
 40
0.0
 41
0.0
 42
0.0
 10
250.9946441650390625
 20
623.0
 40
0.0
 41
0.0
 42
0.0
 10
252.9945831298828125
 20
623.0
 40
0.0
 41
0.0
 42
0.0
 10
254.9945068359375
 20
623.0
 40
0.0
 41
0.0
 42
0.0
 10
256.9944305419921875
 20
623.0
 40
0.0
 41
0.0
 42
0.0
 10
258.994354248046875
 20
623.0
 40
0.0
 41
0.0
 42
0.0
 10
260.994293212890625
 20
623.0
 40
0.0
 41
0.0
 42
0.0
 10
262.9942169189453125
 20
623.0
 40
0.0
 41
0.0
 42
0.0
 10
264.994140625
 20
623.0
 40
0.0
 41
0.0
 42
0.0
 10
266.9940643310546875
 20
623.0
 40
0.0
 41
0.0
 42
0.0
 10
268.9940032958984375
 20
623.0
 40
0.0
 41
0.0
 42
0.0
 10
270.993927001953125
 20
623.0
 40
0.0
 41
0.0
 42
0.0
 10
272.9938507080078125
 20
623.0
 40
0.0
 41
0.0
 42
0.0
 10
274.9937744140625
 20
623.0
 40
0.0
 41
0.0
 42
0.0
 10
276.99371337890625
 20
623.0
 40
0.0
 41
0.0
 42
0.0
 10
278.9936370849609375
 20
623.0
 40
0.0
 41
0.0
 42
0.0
 10
280.993560791015625
 20
623.0
 40
0.0
 41
0.0
 42
0.0
 10
282.9934844970703125
 20
623.0
 40
0.0
 41
0.0
 42
0.0
 10
284.9934234619140625
 20
623.0
 40
0.0
 41
0.0
 42
0.0
 10
286.99334716796875
 20
623.0
 40
0.0
 41
0.0
 42
0.0
 10
288.9932708740234375
 20
623.0
 40
0.0
 41
0.0
 42
0.0
 10
290.993194580078125
 20
623.0
 40
0.0
 41
0.0
 42
0.0
 10
292.993133544921875
 20
623.0
 40
0.0
 41
0.0
 42
0.0
 10
294.9930572509765625
 20
623.0
 40
0.0
 41
0.0
 42
0.0
 10
296.99298095703125
 20
623.0
 40
0.0
 41
0.0
 42
0.0
 10
298.992919921875
 20
623.0
 40
0.0
 41
0.0
 42
0.0
 10
300.9928436279296875
 20
623.0
 40
0.0
 41
0.0
 42
0.0
 10
302.992767333984375
 20
623.0
 40
0.0
 41
0.0
 42
0.0
 10
304.9926910400390625
 20
623.0
 40
0.0
 41
0.0
 42
0.0
 10
306.9926300048828125
 20
623.0
 40
0.0
 41
0.0
 42
0.0
 10
308.9925537109375
 20
623.0
 40
0.0
 41
0.0
 42
0.0
 10
310.9924774169921875
 20
623.0
 40
0.0
 41
0.0
 42
0.0
 10
312.992401123046875
 20
623.0
 40
0.0
 41
0.0
 42
0.0
 10
314.992340087890625
 20
623.0
 40
0.0
 41
0.0
 42
0.0
 10
316.9922637939453125
 20
623.0
 40
0.0
 41
0.0
 42
0.0
 10
318.9921875
 20
623.0
 40
0.0
 41
0.0
 42
0.0
 10
320.9921112060546875
 20
623.0
 40
0.0
 41
0.0
 42
0.0
 10
322.9920501708984375
 20
623.0
 40
0.0
 41
0.0
 42
0.0
 10
324.991973876953125
 20
623.0
 40
0.0
 41
0.0
 42
0.0
 10
326.9918975830078125
 20
623.0
 40
0.0
 41
0.0
 42
0.0
 10
328.9918212890625
 20
623.0
 40
0.0
 41
0.0
 42
0.0
 10
330.99176025390625
 20
623.0
 40
0.0
 41
0.0
 42
0.0
 10
332.9916839599609375
 20
623.0
 40
0.0
 41
0.0
 42
0.0
 10
334.991607666015625
 20
623.0
 40
0.0
 41
0.0
 42
0.0
 10
336.9915313720703125
 20
623.0
 40
0.0
 41
0.0
 42
0.0
 10
338.9914703369140625
 20
623.0
 40
0.0
 41
0.0
 42
0.0
 10
340.99139404296875
 20
623.0
 40
0.0
 41
0.0
 42
0.0
 10
342.9913177490234375
 20
623.0
 40
0.0
 41
0.0
 42
0.0
 10
344.9912567138671875
 20
623.0
 40
0.0
 41
0.0
 42
0.0
 10
346.991180419921875
 20
623.0
 40
0.0
 41
0.0
 42
0.0
 10
348.9911041259765625
 20
623.0
 40
0.0
 41
0.0
 42
0.0
 10
350.99102783203125
 20
623.0
 40
0.0
 41
0.0
 42
0.0
 10
352.990966796875
 20
623.0
 40
0.0
 41
0.0
 42
0.0
 10
354.950408935546875
 20
623.389674186706543
 40
0.0
 41
0.0
 42
0.0
 10
356.946441650390625
 20
623.4765186309814453
 40
0.0
 41
0.0
 42
0.0
 10
358.931915283203125
 20
623.2537546157836914
 40
0.0
 41
0.0
 42
0.0
 10
360.859405517578125
 20
622.7278738021850586
 40
0.0
 41
0.0
 42
0.0
 10
362.6837158203125
 20
621.9131755828857422
 40
0.0
 41
0.0
 42
0.0
 10
364.362335205078125
 20
620.8295869827270508
 40
0.0
 41
0.0
 42
0.0
 10
365.855499267578125
 20
619.5021200180053711
 40
0.0
 41
0.0
 42
0.0
 10
367.126708984375
 20
617.9607658386230469
 40
0.0
 41
0.0
 42
0.0
 10
368.14447021484375
 20
616.2415332794189453
 40
0.0
 41
0.0
 42
0.0
 10
368.885467529296875
 20
614.3860530853271484
 40
0.0
 41
0.0
 42
0.0
 10
369.336273193359375
 20
612.4395790100097656
 40
0.0
 41
0.0
 42
0.0
 10
369.48388671875
 20
610.4471359252929688
 40
0.0
 41
0.0
 42
0.0
 10
369.3218994140625
 20
608.455780029296875
 40
0.0
 41
0.0
 42
0.0
 10
368.854736328125
 20
606.5132293701171875
 40
0.0
 41
0.0
 42
0.0
 10
368.095550537109375
 20
604.6651325225830078
 40
0.0
 41
0.0
 42
0.0
 10
367.06298828125
 20
602.9546432495117188
 40
0.0
 41
0.0
 42
0.0
 10
365.781402587890625
 20
601.4219188690185547
 40
0.0
 41
0.0
 42
0.0
 10
364.2794189453125
 20
600.1043853759765625
 40
0.0
 41
0.0
 42
0.0
 10
362.59210205078125
 20
599.0345115661621094
 40
0.0
 41
0.0
 42
0.0
 10
360.7598876953125
 20
598.2377967834472656
 40
0.0
 41
0.0
 42
0.0
 10
358.796417236328125
 20
598.0
 40
0.0
 41
0.0
 42
0.0
 10
356.796478271484375
 20
598.0
 40
0.0
 41
0.0
 42
0.0
 10
354.79656982421875
 20
598.0
 40
0.0
 41
0.0
 42
0.0
 10
352.796630859375
 20
598.0
 40
0.0
 41
0.0
 42
0.0
 10
350.79669189453125
 20
598.0
 40
0.0
 41
0.0
 42
0.0
 10
348.796783447265625
 20
598.0
 40
0.0
 41
0.0
 42
0.0
 10
346.7968292236328125
 20
598.0
 40
0.0
 41
0.0
 42
0.0
 10
344.7969207763671875
 20
598.0
 40
0.0
 41
0.0
 42
0.0
 10
342.7969818115234375
 20
598.0
 40
0.0
 41
0.0
 42
0.0
 10
340.7970428466796875
 20
598.0
 40
0.0
 41
0.0
 42
0.0
 10
338.7971343994140625
 20
598.0
 40
0.0
 41
0.0
 42
0.0
 10
336.7971954345703125
 20
598.0
 40
0.0
 41
0.0
 42
0.0
 10
334.797271728515625
 20
598.0
 40
0.0
 41
0.0
 42
0.0
 10
332.797393798828125
 20
598.0
 40
0.0
 41
0.0
 42
0.0
 10
330.7974700927734375
 20
598.0
 40
0.0
 41
0.0
 42
0.0
 10
328.7975616455078125
 20
598.0
 40
0.0
 41
0.0
 42
0.0
 10
326.7976226806640625
 20
598.0
 40
0.0
 41
0.0
 42
0.0
 10
324.79766845703125
 20
598.0
 40
0.0
 41
0.0
 42
0.0
 10
322.797760009765625
 20
598.0
 40
0.0
 41
0.0
 42
0.0
 10
320.797821044921875
 20
598.0
 40
0.0
 41
0.0
 42
0.0
 10
318.797882080078125
 20
598.0
 40
0.0
 41
0.0
 42
0.0
 10
316.7979888916015625
 20
598.0
 40
0.0
 41
0.0
 42
0.0
 10
314.7980499267578125
 20
598.0
 40
0.0
 41
0.0
 42
0.0
 10
312.79815673828125
 20
598.0
 40
0.0
 41
0.0
 42
0.0
 10
310.7982177734375
 20
598.0
 40
0.0
 41
0.0
 42
0.0
 10
308.799041748046875
 20
597.9888267517089844
 40
0.0
 41
0.0
 42
0.0
 10
306.830963134765625
 20
597.6529312133789063
 40
0.0
 41
0.0
 42
0.0
 10
304.9695587158203125
 20
596.9307594299316406
 40
0.0
 41
0.0
 42
0.0
 10
303.288726806640625
 20
595.8530845642089844
 40
0.0
 41
0.0
 42
0.0
 10
301.853759765625
 20
594.4647789001464844
 40
0.0
 41
0.0
 42
0.0
 10
300.72161865234375
 20
592.8201789855957031
 40
0.0
 41
0.0
 42
0.0
 10
299.9396820068359375
 20
590.9830894470214844
 40
0.0
 41
0.0
 42
0.0
 10
299.5401153564453125
 20
589.026885986328125
 40
0.0
 41
0.0
 42
0.0
 10
299.5333404541015625
 20
587.03021240234375
 40
0.0
 41
0.0
 42
0.0
 10
299.9224395751953125
 20
585.07196044921875
 40
0.0
 41
0.0
 42
0.0
 10
300.694732666015625
 20
583.2307891845703125
 40
0.0
 41
0.0
 42
0.0
 10
301.817138671875
 20
581.5795059204101563
 40
0.0
 41
0.0
 42
0.0
 10
303.243377685546875
 20
580.1822471618652344
 40
0.0
 41
0.0
 42
0.0
 10
304.917877197265625
 20
579.0948410034179688
 40
0.0
 41
0.0
 42
0.0
 10
306.775482177734375
 20
578.363037109375
 40
0.0
 41
0.0
 42
0.0
 10
308.741729736328125
 20
578.0162429809570313
 40
0.0
 41
0.0
 42
0.0
 10
310.74114990234375
 20
578.0
 40
0.0
 41
0.0
 42
0.0
 10
312.741058349609375
 20
578.0
 40
0.0
 41
0.0
 42
0.0
 10
314.7409820556640625
 20
578.0
 40
0.0
 41
0.0
 42
0.0
 10
316.740966796875
 20
578.0
 40
0.0
 41
0.0
 42
0.0
 10
318.7409210205078125
 20
578.0
 40
0.0
 41
0.0
 42
0.0
 10
320.7408294677734375
 20
578.0
 40
0.0
 41
0.0
 42
0.0
 10
322.7407684326171875
 20
578.0
 40
0.0
 41
0.0
 42
0.0
 10
324.74066162109375
 20
578.0
 40
0.0
 41
0.0
 42
0.0
 10
326.7405548095703125
 20
578.0
 40
0.0
 41
0.0
 42
0.0
 10
328.7404937744140625
 20
578.0
 40
0.0
 41
0.0
 42
0.0
 10
330.7404022216796875
 20
578.0
 40
0.0
 41
0.0
 42
0.0
 10
332.740325927734375
 20
578.0
 40
0.0
 41
0.0
 42
0.0
 10
334.7402801513671875
 20
578.0
 40
0.0
 41
0.0
 42
0.0
 10
336.7401885986328125
 20
578.0
 40
0.0
 41
0.0
 42
0.0
 10
338.740142822265625
 20
578.0
 40
0.0
 41
0.0
 42
0.0
 10
340.740081787109375
 20
578.0
 40
0.0
 41
0.0
 42
0.0
 10
342.74005126953125
 20
578.0
 40
0.0
 41
0.0
 42
0.0
 10
344.739990234375
 20
578.0
 40
0.0
 41
0.0
 42
0.0
 10
346.7398834228515625
 20
578.0
 40
0.0
 41
0.0
 42
0.0
 10
348.739776611328125
 20
578.0
 40
0.0
 41
0.0
 42
0.0
 10
350.73968505859375
 20
578.0
 40
0.0
 41
0.0
 42
0.0
 10
352.739593505859375
 20
578.0
 40
0.0
 41
0.0
 42
0.0
 10
354.739501953125
 20
578.0
 40
0.0
 41
0.0
 42
0.0
 10
356.739410400390625
 20
578.0
 40
0.0
 41
0.0
 42
0.0
 10
358.739349365234375
 20
578.0
 40
0.0
 41
0.0
 42
0.0
 10
360.736968994140625
 20
578.0243873596191406
 40
0.0
 41
0.0
 42
0.0
 10
362.703948974609375
 20
577.6819992065429688
 40
0.0
 41
0.0
 42
0.0
 10
364.56365966796875
 20
576.9553070068359375
 40
0.0
 41
0.0
 42
0.0
 10
366.243072509765625
 20
575.8754844665527344
 40
0.0
 41
0.0
 42
0.0
 10
367.677398681640625
 20
574.4864883422851563
 40
0.0
 41
0.0
 42
0.0
 10
368.809478759765625
 20
572.8418197631835938
 40
0.0
 41
0.0
 42
0.0
 10
369.59210205078125
 20
571.0050582885742188
 40
0.0
 41
0.0
 42
0.0
 10
369.994842529296875
 20
569.0494384765625
 40
0.0
 41
0.0
 42
0.0
 10
370.0069580078125
 20
567.0528106689453125
 40
0.0
 41
0.0
 42
0.0
 10
369.623138427734375
 20
565.0934982299804688
 40
0.0
 41
0.0
 42
0.0
 10
368.857330322265625
 20
563.24957275390625
 40
0.0
 41
0.0
 42
0.0
 10
367.742645263671875
 20
561.5930252075195313
 40
0.0
 41
0.0
 42
0.0
 10
366.32403564453125
 20
560.1880035400390625
 40
0.0
 41
0.0
 42
0.0
 10
364.65594482421875
 20
559.0907669067382813
 40
0.0
 41
0.0
 42
0.0
 10
362.803070068359375
 20
558.3471145629882813
 40
0.0
 41
0.0
 42
0.0
 10
360.8387451171875
 20
558.0
 40
0.0
 41
0.0
 42
0.0
 10
358.83880615234375
 20
558.0
 40
0.0
 41
0.0
 42
0.0
 10
356.838897705078125
 20
558.0
 40
0.0
 41
0.0
 42
0.0
 10
354.838958740234375
 20
558.0
 40
0.0
 41
0.0
 42
0.0
 10
352.839019775390625
 20
558.0
 40
0.0
 41
0.0
 42
0.0
 10
350.839111328125
 20
558.0
 40
0.0
 41
0.0
 42
0.0
 10
348.839141845703125
 20
558.0
 40
0.0
 41
0.0
 42
0.0
 10
346.8392486572265625
 20
558.0
 40
0.0
 41
0.0
 42
0.0
 10
344.8392791748046875
 20
558.0
 40
0.0
 41
0.0
 42
0.0
 10
342.8393096923828125
 20
558.0
 40
0.0
 41
0.0
 42
0.0
 10
340.83941650390625
 20
558.0
 40
0.0
 41
0.0
 42
0.0
 10
338.8395233154296875
 20
558.0
 40
0.0
 41
0.0
 42
0.0
 10
336.8395843505859375
 20
558.0
 40
0.0
 41
0.0
 42
0.0
 10
334.8396759033203125
 20
558.0
 40
0.0
 41
0.0
 42
0.0
 10
332.839752197265625
 20
558.0
 40
0.0
 41
0.0
 42
0.0
 10
330.8398284912109375
 20
558.0
 40
0.0
 41
0.0
 42
0.0
 10
328.8399200439453125
 20
558.0
 40
0.0
 41
0.0
 42
0.0
 10
326.8400115966796875
 20
558.0
 40
0.0
 41
0.0
 42
0.0
 10
324.840118408203125
 20
558.0
 40
0.0
 41
0.0
 42
0.0
 10
322.8402099609375
 20
558.0
 40
0.0
 41
0.0
 42
0.0
 10
320.84027099609375
 20
558.0
 40
0.0
 41
0.0
 42
0.0
 10
318.840362548828125
 20
558.0
 40
0.0
 41
0.0
 42
0.0
 10
316.8404541015625
 20
558.0
 40
0.0
 41
0.0
 42
0.0
 10
314.840484619140625
 20
558.0
 40
0.0
 41
0.0
 42
0.0
 10
312.840606689453125
 20
558.0
 40
0.0
 41
0.0
 42
0.0
 10
310.84326171875
 20
558.0285873413085938
 40
0.0
 41
0.0
 42
0.0
 10
308.852752685546875
 20
558.189788818359375
 40
0.0
 41
0.0
 42
0.0
 10
306.8672027587890625
 20
557.9766921997070313
 40
0.0
 41
0.0
 42
0.0
 10
304.9565887451171875
 20
557.395721435546875
 40
0.0
 41
0.0
 42
0.0
 10
303.1870574951171875
 20
556.4699172973632813
 40
0.0
 41
0.0
 42
0.0
 10
301.6194610595703125
 20
555.2326126098632813
 40
0.0
 41
0.0
 42
0.0
 10
300.3086395263671875
 20
553.7261276245117188
 40
0.0
 41
0.0
 42
0.0
 10
299.302459716796875
 20
552.0010757446289063
 40
0.0
 41
0.0
 42
0.0
 10
298.6365509033203125
 20
550.1183547973632813
 40
0.0
 41
0.0
 42
0.0
 10
298.3296051025390625
 20
548.1449508666992188
 40
0.0
 41
0.0
 42
0.0
 10
298.3941192626953125
 20
546.149017333984375
 40
0.0
 41
0.0
 42
0.0
 10
298.83111572265625
 20
544.2006072998046875
 40
0.0
 41
0.0
 42
0.0
 10
299.6237945556640625
 20
542.367645263671875
 40
0.0
 41
0.0
 42
0.0
 10
300.7420501708984375
 20
540.7131195068359375
 40
0.0
 41
0.0
 42
0.0
 10
302.1474761962890625
 20
539.2943801879882813
 40
0.0
 41
0.0
 42
0.0
 10
303.7924652099609375
 20
538.1622695922851563
 40
0.0
 41
0.0
 42
0.0
 10
305.62042236328125
 20
537.3583602905273438
 40
0.0
 41
0.0
 42
0.0
 10
307.573516845703125
 20
537.0
 40
0.0
 41
0.0
 42
0.0
 10
309.5734405517578125
 20
537.0
 40
0.0
 41
0.0
 42
0.0
 10
311.5733489990234375
 20
537.0
 40
0.0
 41
0.0
 42
0.0
 10
313.5733489990234375
 20
537.0
 40
0.0
 41
0.0
 42
0.0
 10
315.5732421875
 20
537.0
 40
0.0
 41
0.0
 42
0.0
 10
317.5731048583984375
 20
537.0
 40
0.0
 41
0.0
 42
0.0
 10
319.5730438232421875
 20
537.0
 40
0.0
 41
0.0
 42
0.0
 10
321.572998046875
 20
537.0
 40
0.0
 41
0.0
 42
0.0
 10
323.5728912353515625
 20
537.0
 40
0.0
 41
0.0
 42
0.0
 10
325.572845458984375
 20
537.0
 40
0.0
 41
0.0
 42
0.0
 10
327.57269287109375
 20
537.0
 40
0.0
 41
0.0
 42
0.0
 10
329.572601318359375
 20
537.0
 40
0.0
 41
0.0
 42
0.0
 10
331.572540283203125
 20
537.0
 40
0.0
 41
0.0
 42
0.0
 10
333.5724945068359375
 20
537.0
 40
0.0
 41
0.0
 42
0.0
 10
335.5724334716796875
 20
537.0
 40
0.0
 41
0.0
 42
0.0
 10
337.5723114013671875
 20
537.0
 40
0.0
 41
0.0
 42
0.0
 10
339.572265625
 20
537.0
 40
0.0
 41
0.0
 42
0.0
 10
341.5722503662109375
 20
537.0
 40
0.0
 41
0.0
 42
0.0
 10
343.57220458984375
 20
537.0
 40
0.0
 41
0.0
 42
0.0
 10
345.572113037109375
 20
537.0
 40
0.0
 41
0.0
 42
0.0
 10
347.5720367431640625
 20
537.0
 40
0.0
 41
0.0
 42
0.0
 10
349.5718994140625
 20
537.0
 40
0.0
 41
0.0
 42
0.0
 10
351.571868896484375
 20
537.0
 40
0.0
 41
0.0
 42
0.0
 10
353.57177734375
 20
537.0
 40
0.0
 41
0.0
 42
0.0
 10
355.57171630859375
 20
537.0
 40
0.0
 41
0.0
 42
0.0
 10
357.571441650390625
 20
536.9853973388671875
 40
0.0
 41
0.0
 42
0.0
 10
359.54852294921875
 20
536.7031784057617188
 40
0.0
 41
0.0
 42
0.0
 10
361.441436767578125
 20
536.0663986206054688
 40
0.0
 41
0.0
 42
0.0
 10
363.18719482421875
 20
535.096282958984375
 40
0.0
 41
0.0
 42
0.0
 10
364.729095458984375
 20
533.8268814086914063
 40
0.0
 41
0.0
 42
0.0
 10
366.017608642578125
 20
532.3009033203125
 40
0.0
 41
0.0
 42
0.0
 10
367.00970458984375
 20
530.5675582885742188
 40
0.0
 41
0.0
 42
0.0
 10
367.670440673828125
 20
528.682891845703125
 40
0.0
 41
0.0
 42
0.0
 10
367.97747802734375
 20
526.7093353271484375
 40
0.0
 41
0.0
 42
0.0
 10
367.925384521484375
 20
524.7127304077148438
 40
0.0
 41
0.0
 42
0.0
 10
367.5145263671875
 20
522.7582626342773438
 40
0.0
 41
0.0
 42
0.0
 10
366.754608154296875
 20
520.9113082885742188
 40
0.0
 41
0.0
 42
0.0
 10
365.672515869140625
 20
519.2327117919921875
 40
0.0
 41
0.0
 42
0.0
 10
364.305755615234375
 20
517.7764205932617188
 40
0.0
 41
0.0
 42
0.0
 10
362.699188232421875
 20
516.5896530151367188
 40
0.0
 41
0.0
 42
0.0
 10
360.9046630859375
 20
515.7132186889648438
 40
0.0
 41
0.0
 42
0.0
 10
358.9805908203125
 20
515.1779251098632813
 40
0.0
 41
0.0
 42
0.0
 10
356.991363525390625
 20
515.0
 40
0.0
 41
0.0
 42
0.0
 10
354.991424560546875
 20
515.0
 40
0.0
 41
0.0
 42
0.0
 10
352.99151611328125
 20
515.0
 40
0.0
 41
0.0
 42
0.0
 10
350.99163818359375
 20
515.0
 40
0.0
 41
0.0
 42
0.0
 10
348.99169921875
 20
515.0
 40
0.0
 41
0.0
 42
0.0
 10
346.99176025390625
 20
515.0
 40
0.0
 41
0.0
 42
0.0
 10
344.99188232421875
 20
515.0
 40
0.0
 41
0.0
 42
0.0
 10
342.9919586181640625
 20
515.0
 40
0.0
 41
0.0
 42
0.0
 10
340.9919891357421875
 20
515.0
 40
0.0
 41
0.0
 42
0.0
 10
338.992034912109375
 20
515.0
 40
0.0
 41
0.0
 42
0.0
 10
336.99212646484375
 20
515.0
 40
0.0
 41
0.0
 42
0.0
 10
334.99224853515625
 20
515.0
 40
0.0
 41
0.0
 42
0.0
 10
332.992340087890625
 20
515.0
 40
0.0
 41
0.0
 42
0.0
 10
330.99237060546875
 20
515.0
 40
0.0
 41
0.0
 42
0.0
 10
328.992431640625
 20
515.0
 40
0.0
 41
0.0
 42
0.0
 10
326.9925384521484375
 20
515.0
 40
0.0
 41
0.0
 42
0.0
 10
324.9926300048828125
 20
515.0
 40
0.0
 41
0.0
 42
0.0
 10
322.992767333984375
 20
515.0
 40
0.0
 41
0.0
 42
0.0
 10
320.99285888671875
 20
515.0
 40
0.0
 41
0.0
 42
0.0
 10
318.992889404296875
 20
515.0
 40
0.0
 41
0.0
 42
0.0
 10
316.992919921875
 20
515.0
 40
0.0
 41
0.0
 42
0.0
 10
314.9929962158203125
 20
515.0
 40
0.0
 41
0.0
 42
0.0
 10
312.99310302734375
 20
515.0
 40
0.0
 41
0.0
 42
0.0
 10
310.9931488037109375
 20
515.0
 40
0.0
 41
0.0
 42
0.0
 10
308.9932098388671875
 20
515.0
 40
0.0
 41
0.0
 42
0.0
 10
306.9932708740234375
 20
515.0
 40
0.0
 41
0.0
 42
0.0
 10
304.993316650390625
 20
515.0
 40
0.0
 41
0.0
 42
0.0
 10
302.99346923828125
 20
515.0
 40
0.0
 41
0.0
 42
0.0
 10
300.9935150146484375
 20
515.0
 40
0.0
 41
0.0
 42
0.0
 10
298.99359130859375
 20
515.0
 40
0.0
 41
0.0
 42
0.0
 10
296.993682861328125
 20
515.0
 40
0.0
 41
0.0
 42
0.0
 10
294.9937286376953125
 20
515.0
 40
0.0
 41
0.0
 42
0.0
 10
292.993682861328125
 20
515.0
 40
0.0
 41
0.0
 42
0.0
 10
290.993804931640625
 20
515.0
 40
0.0
 41
0.0
 42
0.0
 10
288.99383544921875
 20
515.0
 40
0.0
 41
0.0
 42
0.0
 10
286.993927001953125
 20
515.0
 40
0.0
 41
0.0
 42
0.0
 10
284.993988037109375
 20
515.0
 40
0.0
 41
0.0
 42
0.0
 10
282.99407958984375
 20
515.0
 40
0.0
 41
0.0
 42
0.0
 10
280.994293212890625
 20
515.0
 40
0.0
 41
0.0
 42
0.0
 10
278.994415283203125
 20
515.0
 40
0.0
 41
0.0
 42
0.0
 10
276.9945068359375
 20
515.0
 40
0.0
 41
0.0
 42
0.0
 10
274.99462890625
 20
515.0
 40
0.0
 41
0.0
 42
0.0
 10
272.994659423828125
 20
515.0
 40
0.0
 41
0.0
 42
0.0
 10
270.994781494140625
 20
515.0
 40
0.0
 41
0.0
 42
0.0
 10
268.99493408203125
 20
515.0
 40
0.0
 41
0.0
 42
0.0
 10
266.9949951171875
 20
515.0
 40
0.0
 41
0.0
 42
0.0
 10
264.99505615234375
 20
515.0
 40
0.0
 41
0.0
 42
0.0
 10
262.995086669921875
 20
515.0
 40
0.0
 41
0.0
 42
0.0
 10
260.9951324462890625
 20
515.0
 40
0.0
 41
0.0
 42
0.0
 10
258.99530029296875
 20
515.0
 40
0.0
 41
0.0
 42
0.0
 10
256.995361328125
 20
515.0
 40
0.0
 41
0.0
 42
0.0
 10
254.99542236328125
 20
515.0
 40
0.0
 41
0.0
 42
0.0
 10
252.9954681396484375
 20
515.0
 40
0.0
 41
0.0
 42
0.0
 10
250.995513916015625
 20
515.0
 40
0.0
 41
0.0
 42
0.0
 10
248.995574951171875
 20
515.0
 40
0.0
 41
0.0
 42
0.0
 10
246.995697021484375
 20
515.0
 40
0.0
 41
0.0
 42
0.0
 10
244.995758056640625
 20
515.0
 40
0.0
 41
0.0
 42
0.0
 10
242.9958343505859375
 20
515.0
 40
0.0
 41
0.0
 42
0.0
 10
240.99591064453125
 20
515.0
 40
0.0
 41
0.0
 42
0.0
 10
238.995941162109375
 20
515.0
 40
0.0
 41
0.0
 42
0.0
 10
236.996063232421875
 20
515.0
 40
0.0
 41
0.0
 42
0.0
 10
234.99615478515625
 20
515.0
 40
0.0
 41
0.0
 42
0.0
 10
232.996185302734375
 20
515.0
 40
0.0
 41
0.0
 42
0.0
 10
230.9962005615234375
 20
515.0
 40
0.0
 41
0.0
 42
0.0
 10
228.99627685546875
 20
515.0
 40
0.0
 41
0.0
 42
0.0
 10
226.99639892578125
 20
515.0
 40
0.0
 41
0.0
 42
0.0
 10
224.9964599609375
 20
515.0
 40
0.0
 41
0.0
 42
0.0
 10
222.99652099609375
 20
515.0
 40
0.0
 41
0.0
 42
0.0
 10
220.99658203125
 20
515.0
 40
0.0
 41
0.0
 42
0.0
 10
218.99664306640625
 20
515.0
 40
0.0
 41
0.0
 42
0.0
 10
216.99676513671875
 20
515.0
 40
0.0
 41
0.0
 42
0.0
 10
214.996917724609375
 20
515.0
 40
0.0
 41
0.0
 42
0.0
 10
212.9969940185546875
 20
515.0
 40
0.0
 41
0.0
 42
0.0
 10
210.9970703125
 20
515.0
 40
0.0
 41
0.0
 42
0.0
 10
208.9970855712890625
 20
515.0
 40
0.0
 41
0.0
 42
0.0
 10
206.9970245361328125
 20
515.0
 40
0.0
 41
0.0
 42
0.0
 10
204.9970245361328125
 20
515.0
 40
0.0
 41
0.0
 42
0.0
 10
202.997100830078125
 20
515.0
 40
0.0
 41
0.0
 42
0.0
 10
200.9972686767578125
 20
515.0
 40
0.0
 41
0.0
 42
0.0
 10
198.997314453125
 20
515.0
 40
0.0
 41
0.0
 42
0.0
 10
196.9971466064453125
 20
515.0
 40
0.0
 41
0.0
 42
0.0
 10
194.9970703125
 20
515.0
 40
0.0
 41
0.0
 42
0.0
 10
192.9969940185546875
 20
515.0
 40
0.0
 41
0.0
 42
0.0
 10
190.9969940185546875
 20
515.0
 40
0.0
 41
0.0
 42
0.0
 10
188.9971160888671875
 20
515.0
 40
0.0
 41
0.0
 42
0.0
 10
186.997100830078125
 20
515.0
 40
0.0
 41
0.0
 42
0.0
 10
184.996978759765625
 20
515.0
 40
0.0
 41
0.0
 42
0.0
 10
182.99713134765625
 20
515.0
 40
0.0
 41
0.0
 42
0.0
 10
180.9970703125
 20
515.0
 40
0.0
 41
0.0
 42
0.0
 10
178.997039794921875
 20
515.0
 40
0.0
 41
0.0
 42
0.0
 10
176.996917724609375
 20
515.0
 40
0.0
 41
0.0
 42
0.0
 10
174.99700927734375
 20
515.0
 40
0.0
 41
0.0
 42
0.0
 10
172.99713134765625
 20
515.0
 40
0.0
 41
0.0
 42
0.0
 10
170.9971923828125
 20
515.0
 40
0.0
 41
0.0
 42
0.0
 10
168.99725341796875
 20
515.0
 40
0.0
 41
0.0
 42
0.0
 10
166.997314453125
 20
515.0
 40
0.0
 41
0.0
 42
0.0
 10
164.99737548828125
 20
515.0
 40
0.0
 41
0.0
 42
0.0
 10
162.9974365234375
 20
515.0
 40
0.0
 41
0.0
 42
0.0
 10
160.99755859375
 20
515.0
 40
0.0
 41
0.0
 42
0.0
 10
158.99761962890625
 20
515.0
 40
0.0
 41
0.0
 42
0.0
 10
157.0
 20
515.0
 40
0.0
 41
0.0
 42
0.0
  0
ENDSEC
  0
SECTION
  2
OBJECTS
  0
DICTIONARY
  5
1
330
0
100
AcDbDictionary
280
0
281
0
  3
ACAD_COLOR
350
2
  3
ACAD_GROUP
350
3
  3
ACAD_LAYOUT
350
4
  3
ACAD_MATERIAL
350
5
  3
ACAD_SORTENTS
350
6
  3
ACAD_MLEADERSTYLE
350
7
  3
ACAD_MLINESTYLE
350
8
  3
ACAD_TABLESTYLE
350
9
  3
ACAD_PLOTSETTINGS
350
A
  3
AcDbVariableDictionary
350
B
  3
ACAD_SCALELIST
350
C
  3
ACAD_VISUALSTYLE
350
D
  3
ACAD_FIELDLIST
350
E
  3
ACAD_IMAGE_DICT
350
F
  0
DICTIONARY
  5
2
330
1
100
AcDbDictionary
280
0
281
0
  0
DICTIONARY
  5
3
330
1
100
AcDbDictionary
280
0
281
0
  0
DICTIONARY
  5
4
330
1
100
AcDbDictionary
280
0
281
0
  0
DICTIONARY
  5
5
330
1
100
AcDbDictionary
280
0
281
0
  0
DICTIONARY
  5
6
330
1
100
AcDbDictionary
280
0
281
0
  0
DICTIONARY
  5
7
330
1
100
AcDbDictionary
280
0
281
0
  0
DICTIONARY
  5
8
330
1
100
AcDbDictionary
280
0
281
0
  0
DICTIONARY
  5
9
330
1
100
AcDbDictionary
280
0
281
0
  0
DICTIONARY
  5
A
330
1
100
AcDbDictionary
280
0
281
0
  0
DICTIONARY
  5
B
330
1
100
AcDbDictionary
280
0
281
0
  0
DICTIONARY
  5
C
330
1
100
AcDbDictionary
280
0
281
0
  0
DICTIONARY
  5
D
330
1
100
AcDbDictionary
280
0
281
0
  0
DICTIONARY
  5
E
330
1
100
AcDbDictionary
280
0
281
0
  0
DICTIONARY
  5
F
330
1
100
AcDbDictionary
280
0
281
0
  0
ENDSEC
  0
EOF
