  0
SECTION
  2
HEADER
  0
ENDSEC
  0
SECTION
  2
CLASSES
  0
CLASS
  1
ACDBDICTIONARYWDFLT
  2
AcDbDictionaryWithDefault
  3
ObjectDBX Classes
 90
32768
280
0
281
0
  0
CLASS
  1
ACDBPLACEHOLDER
  2
AcDbPlaceHolder
  3
ObjectDBX Classes
 90
0
280
0
281
0
  0
CLASS
  1
LAYOUT
  2
AcDbLayout
  3
ObjectDBX Classes
 90
0
280
0
281
0
  0
CLASS
  1
DICTIONARYVAR
  2
AcDbDictionaryVar
  3
ObjectDBX Classes
 90
0
280
0
281
0
  0
CLASS
  1
TABLESTYLE
  2
AcDbTableStyle
  3
ObjectDBX Classes
 90
4095
280
0
281
0
  0
CLASS
  1
MATERIAL
  2
AcDbMaterial
  3
ObjectDBX Classes
 90
1153
280
0
281
0
  0
CLASS
  1
VISUALSTYLE
  2
AcDbVisualStyle
  3
ObjectDBX Classes
 90
4095
280
0
281
0
  0
CLASS
  1
SCALE
  2
AcDbScale
  3
ObjectDBX Classes
 90
1153
280
0
281
0
  0
CLASS
  1
MLEADERSTYLE
  2
AcDbMLeaderStyle
  3
ObjectDBX Classes
 90
4095
280
0
281
0
  0
CLASS
  1
CELLSTYLEMAP
  2
AcDbCellStyleMap
  3
ObjectDBX Classes
 90
1152
280
0
281
0
  0
CLASS
  1
EXACXREFPANELOBJECT
  2
ExAcXREFPanelObject
  3
ObjectDBX Classes
 90
1025
280
0
281
0
  0
CLASS
  1
NPOCOLLECTION
  2
AcDbImpNonPersistentObjectsCollection
  3
ObjectDBX Classes
 90
1153
280
0
281
0
  0
CLASS
  1
LAYER_INDEX
  2
AcDbLayerIndex
  3
ObjectDBX Classes
 90
0
280
0
281
0
  0
CLASS
  1
SPATIAL_INDEX
  2
AcDbSpatialIndex
  3
ObjectDBX Classes
 90
0
280
0
281
0
  0
CLASS
  1
IDBUFFER
  2
AcDbIdBuffer
  3
ObjectDBX Classes
 90
32768
280
0
281
0
  0
CLASS
  1
ACDBSECTIONVIEWSTYLE
  2
AcDbSectionViewStyle
  3
ObjectDBX Classes
 90
1025
280
0
281
0
  0
CLASS
  1
ACDBDETAILVIEWSTYLE
  2
AcDbDetailViewStyle
  3
ObjectDBX Classes
 90
1025
280
0
281
0
  0
CLASS
  1
MESH
  2
AcDbSubDMesh
  3
ObjectDBX Classes
 90
0
280
0
281
1
  0
CLASS
  1
SORTENTSTABLE
  2
AcDbSortentsTable
  3
ObjectDBX Classes
 90
0
280
0
281
0
  0
CLASS
  1
ACDB_TEXTOBJECTCONTEXTDATA_CLASS
  2
AcDbTextObjectContextData
  3
ObjectDBX Classes
 90
1153
280
0
281
0
  0
CLASS
  1
WIPEOUT
  2
AcDbWipeout
  3
WipeOut
 90
32895
280
0
281
1
  0
CLASS
  1
WIPEOUTVARIABLES
  2
AcDbWipeoutVariables
  3
WipeOut
 90
32768
280
0
281
0
  0
CLASS
  1
DIMASSOC
  2
AcDbDimAssoc
  3
AcDbDimAssoc
 90
0
280
0
281
0
  0
CLASS
  1
ACAD_TABLE
  2
AcDbTable
  3
ObjectDBX Classes
 90
1025
280
0
281
1
  0
CLASS
  1
TABLECONTENT
  2
AcDbTableContent
  3
ObjectDBX Classes
 90
1152
280
0
281
0
  0
CLASS
  1
TABLEGEOMETRY
  2
AcDbTableGeometry
  3
ObjectDBX Classes
 90
1152
280
0
281
0
  0
CLASS
  1
IMAGE
  2
AcDbRasterImage
  3
ISM
 90
32895
280
0
281
1
  0
CLASS
  1
IMAGEDEF
  2
AcDbRasterImageDef
  3
ISM
 90
0
280
0
281
0
  0
CLASS
  1
IMAGEDEF_REACTOR
  2
AcDbRasterImageDefReactor
  3
ISM
 90
1
280
0
281
0
  0
CLASS
  1
DBCOLOR
  2
AcDbColor
  3
ObjectDBX Classes
 90
0
280
0
281
0
  0
CLASS
  1
GEODATA
  2
AcDbGeoData
  3
ObjectDBX Classes
 90
4095
280
0
281
0
  0
CLASS
  1
MULTILEADER
  2
AcDbMLeader
  3
ObjectDBX Classes
 90
1025
280
0
281
0
  0
CLASS
  1
PDFUNDERLAY
  2
AcDbPdfReference
  3
ObjectDBX Classes
 90
4095
280
0
281
1
  0
CLASS
  1
PDFDEFINITION
  2
AcDbPdfDefinition
  3
ObjectDBX Classes
 90
1153
280
0
281
0
  0
CLASS
  1
RASTERVARIABLES
  2
AcDbRasterVariables
  3
ISM
 90
0
280
0
281
0
  0
CLASS
  1
SPATIAL_FILTER
  2
AcDbSpatialFilter
  3
ObjectDBX Classes
 90
0
280
0
281
0
  0
CLASS
  1
ACDB_MLEADEROBJECTCONTEXTDATA_CLASS
  2
AcDbMLeaderObjectContextData
  3
ObjectDBX Classes
 90
1025
280
0
281
0
  0
CLASS
  1
PLOTSETTINGS
  2
AcDbPlotSettings
  3
ObjectDBX Classes
 90
0
280
0
281
0
  0
CLASS
  1
FIELD
  2
AcDbField
  3
ObjectDBX Classes
 90
1152
280
0
281
0
  0
CLASS
  1
FIELDLIST
  2
AcDbFieldList
  3
ObjectDBX Classes
 90
1152
280
0
281
0
  0
CLASS
  1
ACDB_MTEXTATTRIBUTEOBJECTCONTEXTDATA_CLASS
  2
AcDbMTextAttributeObjectContextData
  3
ObjectDBX Classes
 90
1153
280
0
281
0
  0
CLASS
  1
ACDB_BLKREFOBJECTCONTEXTDATA_CLASS
  2
AcDbBlkRefObjectContextData
  3
ObjectDBX Classes
 90
1153
280
0
281
0
  0
ENDSEC
  0
SECTION
  2
TABLES
  0
TABLE
  2
VPORT
  5
A
330
0
100
AcDbSymbolTable
 70
1
  0
VPORT
  5
18
330
A
100
AcDbSymbolTableRecord
100
AcDbViewportTableRecord
  2
*Active
 70
0
 10
0.0
 20
0.0
 11
1.0
 21
1.0
 12
0.0
 22
0.0
 13
0.0
 23
0.0
 14
0.5
 24
0.5
 15
10.0
 25
10.0
 16
0.0
 26
0.0
 36
1.0
 17
0.0
 27
0.0
 37
0.0
 40
10.0
 41
1.0
 75
0
 76
1
  0
ENDTAB
  0
TABLE
  2
LTYPE
  5
6
330
0
100
AcDbSymbolTable
 70
3
  0
LTYPE
  5
B
330
6
100
AcDbSymbolTableRecord
100
AcDbLinetypeTableRecord
  2
ByLayer
 70
0
 72
0
 73
0
 40
0.0
  0
LTYPE
  5
C
330
6
100
AcDbSymbolTableRecord
100
AcDbLinetypeTableRecord
  2
ByBlock
 70
0
 72
0
 73
0
 40
0.0
  0
LTYPE
  5
D
330
6
100
AcDbSymbolTableRecord
100
AcDbLinetypeTableRecord
  2
Continuous
 70
0
 72
0
 73
0
 40
0.0
  0
ENDTAB
  0
TABLE
  2
LAYER
  5
5
330
0
100
AcDbSymbolTable
 70
1
  0
LAYER
  5
E
330
5
100
AcDbSymbolTableRecord
100
AcDbLayerTableRecord
  2
0
 70
0
 62
7
  6
Continuous
290
1
370
-3
390
0
  0
ENDTAB
  0
TABLE
  2
STYLE
  5
7
330
0
100
AcDbSymbolTable
 70
1
  0
STYLE
  5
15
330
7
100
AcDbSymbolTableRecord
100
AcDbTextStyleTableRecord
  2
Standard
 70
0
 40
0.0
 41
1.0
 42
0.0
 50
0.0
 71
0
  0
ENDTAB
  0
TABLE
  2
VIEW
  5
9
330
0
100
AcDbSymbolTable
 70
0
  0
ENDTAB
  0
TABLE
  2
UCS
  5
8
330
0
100
AcDbSymbolTable
 70
0
  0
ENDTAB
  0
TABLE
  2
APPID
  5
2
330
0
100
AcDbSymbolTable
 70
1
  0
APPID
  5
17
330
2
100
AcDbSymbolTableRecord
100
AcDbRegAppTableRecord
  2
ACAD
 70
0
  0
ENDTAB
  0
TABLE
  2
DIMSTYLE
  5
4
330
0
100
AcDbSymbolTable
 70
1
100
AcDbDimStyleTable
  0
DIMSTYLE
105
16
330
4
100
AcDbSymbolTableRecord
100
AcDbDimStyleTableRecord
  2
Standard
 70
0
  3
<>
  4
[]
 40
1.0
 41
0.18
 42
0.625
 43
3.75
 44
1.25
 45
0.0
 46
0.0
 47
0.0
 48
0.0
 49
1.0
 50
0.7853981633974483
 70
0
 90
0
140
0.18
141
0.09
142
0.0
143
25.3999999999999986
144
1.0
145
0.0
146
1.0
147
0.625
148
0.0
 71
0
 72
0
 73
0
 74
0
 75
0
 76
0
 77
1
 78
8
 79
0
170
0
171
3
172
0
173
1
174
0
175
0
176
0
177
0
178
0
179
0
271
2
272
2
273
2
274
3
275
0
276
0
277
2
278
46
279
0
280
0
281
0
282
0
283
0
284
8
285
0
286
0
287
0
288
0
289
3
290
0
340
0
371
-2
372
-2
  0
ENDTAB
  0
TABLE
  2
BLOCK_RECORD
  5
3
330
0
100
AcDbSymbolTable
 70
2
  0
BLOCK_RECORD
  5
F
330
3
100
AcDbSymbolTableRecord
100
AcDbBlockTableRecord
  2
*Model_Space
 70
0
 70
0
280
0
281
1
  0
BLOCK_RECORD
  5
12
330
3
100
AcDbSymbolTableRecord
100
AcDbBlockTableRecord
  2
*Paper_Space
 70
0
 70
0
280
0
281
1
  0
ENDTAB
  0
ENDSEC
  0
SECTION
  2
BLOCKS
  0
BLOCK
  5
10
330
F
100
AcDbEntity
  8
0
  6
ByLayer
 62
256
 48
1.0
 60
0
370
-1
100
AcDbBlockBegin
  2
*Model_Space
 70
0
 10
0.0
 20
0.0
 30
0.0
  3
*Model_Space
  0
ENDBLK
  5
11
330
F
100
AcDbEntity
  8
0
100
AcDbBlockEnd
  0
BLOCK
  5
13
330
12
100
AcDbEntity
  8
0
  6
ByLayer
 62
256
 48
1.0
 60
0
370
-1
100
AcDbBlockBegin
  2
*Paper_Space
 70
0
 10
0.0
 20
0.0
 30
0.0
  3
*Paper_Space
  0
ENDBLK
  5
14
330
12
100
AcDbEntity
  8
0
100
AcDbBlockEnd
  0
ENDSEC
  0
SECTION
  2
ENTITIES
  0
TEXT
  5
19
330
F
100
AcDbEntity
  8
0
  6
ByLayer
420
0
 48
1.0
 60
0
370
-1
100
AcDbText
 39
0.0
 10
0.0
 20
520.0
 30
0.0
 40
18.0
  1
SVG Shapes
 50
0.0
 41
1.0
 51
0.0
  7
Standard
 71
0
 72
0
 11
0.0
 21
0.0
 31
0.0
210
0.0
220
0.0
230
1.0
100
AcDbText
 73
0
  0
LWPOLYLINE
  5
1A
330
F
100
AcDbEntity
  8
0
  6
ByLayer
420
13421772
 48
1.0
 60
0
370
-1
100
AcDbPolyline
 90
4
 70
1
 43
0.0
 38
0.0
 39
0.0
210
0.0
220
0.0
230
1.0
 10
0.0
 20
504.0
 40
0.0
 41
0.0
 42
0.0
 10
600.0
 20
504.0
 40
0.0
 41
0.0
 42
0.0
 10
600.0
 20
4.0
 40
0.0
 41
0.0
 42
0.0
 10
0.0
 20
4.0
 40
0.0
 41
0.0
 42
0.0
  0
HATCH
  5
1B
330
F
100
AcDbEntity
  8
0
  6
ByLayer
420
15022389
 48
1.0
 60
0
370
-1
100
AcDbHatch
 30
0.0
210
0.0
220
0.0
230
1.0
  2
SOLID
 70
1
 71
0
 91
1
 92
2
 72
0
 73
1
 93
41
 10
29.0
 20
483.0
 10
133.0
 20
483.0
 10
133.0
 20
483.0
 10
134.5607225761290238
 20
482.8462822432258577
 10
136.0614674589207311
 20
482.3910362600902886
 10
137.4445618641568103
 20
481.6517568984203308
 10
138.656854249492369
 20
480.656854249492369
 10
139.6517568984203592
 20
479.4445618641568103
 10
140.3910362600902886
 20
478.0614674589207311
 10
140.8462822432258577
 20
476.5607225761290238
 10
141.0
 20
475.0
 10
141.0
 20
431.0
 10
141.0
 20
431.0
 10
140.8462822432258577
 20
429.4392774238709762
 10
140.3910362600902886
 20
427.9385325410792689
 10
139.6517568984203592
 20
426.5554381358431897
 10
138.656854249492369
 20
425.343145750507631
 10
137.4445618641568103
 20
424.3482431015796692
 10
136.0614674589207311
 20
423.6089637399097114
 10
134.5607225761290238
 20
423.1537177567741423
 10
133.0
 20
423.0
 10
29.0
 20
423.0
 10
29.0
 20
423.0
 10
27.4392774238709762
 20
423.1537177567741423
 10
25.9385325410792831
 20
423.6089637399097114
 10
24.5554381358431826
 20
424.3482431015796692
 10
23.3431457505076203
 20
425.343145750507631
 10
22.3482431015796372
 20
426.5554381358431897
 10
21.6089637399097043
 20
427.9385325410792689
 10
21.1537177567741566
 20
429.4392774238709762
 10
21.0
 20
431.0
 10
21.0
 20
475.0
 10
21.0
 20
475.0
 10
21.1537177567741566
 20
476.5607225761290238
 10
21.6089637399097043
 20
478.0614674589207311
 10
22.3482431015796372
 20
479.4445618641568103
 10
23.3431457505076168
 20
480.656854249492369
 10
24.5554381358431826
 20
481.6517568984203308
 10
25.938532541079276
 20
482.3910362600902886
 10
27.4392774238709691
 20
482.8462822432258577
 10
29.0
 20
483.0
 97
0
 75
0
 76
1
 47
0.0
 98
0
  0
LWPOLYLINE
  5
1C
330
F
100
AcDbEntity
  8
0
  6
ByLayer
420
12000284
 48
1.0
 60
0
370
-1
100
AcDbPolyline
 90
41
 70
1
 43
0.0
 38
0.0
 39
0.0
210
0.0
220
0.0
230
1.0
 10
29.0
 20
483.0
 40
0.0
 41
0.0
 42
0.0
 10
133.0
 20
483.0
 40
0.0
 41
0.0
 42
0.0
 10
133.0
 20
483.0
 40
0.0
 41
0.0
 42
0.0
 10
134.5607225761290238
 20
482.8462822432258577
 40
0.0
 41
0.0
 42
0.0
 10
136.0614674589207311
 20
482.3910362600902886
 40
0.0
 41
0.0
 42
0.0
 10
137.4445618641568103
 20
481.6517568984203308
 40
0.0
 41
0.0
 42
0.0
 10
138.656854249492369
 20
480.656854249492369
 40
0.0
 41
0.0
 42
0.0
 10
139.6517568984203592
 20
479.4445618641568103
 40
0.0
 41
0.0
 42
0.0
 10
140.3910362600902886
 20
478.0614674589207311
 40
0.0
 41
0.0
 42
0.0
 10
140.8462822432258577
 20
476.5607225761290238
 40
0.0
 41
0.0
 42
0.0
 10
141.0
 20
475.0
 40
0.0
 41
0.0
 42
0.0
 10
141.0
 20
431.0
 40
0.0
 41
0.0
 42
0.0
 10
141.0
 20
431.0
 40
0.0
 41
0.0
 42
0.0
 10
140.8462822432258577
 20
429.4392774238709762
 40
0.0
 41
0.0
 42
0.0
 10
140.3910362600902886
 20
427.9385325410792689
 40
0.0
 41
0.0
 42
0.0
 10
139.6517568984203592
 20
426.5554381358431897
 40
0.0
 41
0.0
 42
0.0
 10
138.656854249492369
 20
425.343145750507631
 40
0.0
 41
0.0
 42
0.0
 10
137.4445618641568103
 20
424.3482431015796692
 40
0.0
 41
0.0
 42
0.0
 10
136.0614674589207311
 20
423.6089637399097114
 40
0.0
 41
0.0
 42
0.0
 10
134.5607225761290238
 20
423.1537177567741423
 40
0.0
 41
0.0
 42
0.0
 10
133.0
 20
423.0
 40
0.0
 41
0.0
 42
0.0
 10
29.0
 20
423.0
 40
0.0
 41
0.0
 42
0.0
 10
29.0
 20
423.0
 40
0.0
 41
0.0
 42
0.0
 10
27.4392774238709762
 20
423.1537177567741423
 40
0.0
 41
0.0
 42
0.0
 10
25.9385325410792831
 20
423.6089637399097114
 40
0.0
 41
0.0
 42
0.0
 10
24.5554381358431826
 20
424.3482431015796692
 40
0.0
 41
0.0
 42
0.0
 10
23.3431457505076203
 20
425.343145750507631
 40
0.0
 41
0.0
 42
0.0
 10
22.3482431015796372
 20
426.5554381358431897
 40
0.0
 41
0.0
 42
0.0
 10
21.6089637399097043
 20
427.9385325410792689
 40
0.0
 41
0.0
 42
0.0
 10
21.1537177567741566
 20
429.4392774238709762
 40
0.0
 41
0.0
 42
0.0
 10
21.0
 20
431.0
 40
0.0
 41
0.0
 42
0.0
 10
21.0
 20
475.0
 40
0.0
 41
0.0
 42
0.0
 10
21.0
 20
475.0
 40
0.0
 41
0.0
 42
0.0
 10
21.1537177567741566
 20
476.5607225761290238
 40
0.0
 41
0.0
 42
0.0
 10
21.6089637399097043
 20
478.0614674589207311
 40
0.0
 41
0.0
 42
0.0
 10
22.3482431015796372
 20
479.4445618641568103
 40
0.0
 41
0.0
 42
0.0
 10
23.3431457505076168
 20
480.656854249492369
 40
0.0
 41
0.0
 42
0.0
 10
24.5554381358431826
 20
481.6517568984203308
 40
0.0
 41
0.0
 42
0.0
 10
25.938532541079276
 20
482.3910362600902886
 40
0.0
 41
0.0
 42
0.0
 10
27.4392774238709691
 20
482.8462822432258577
 40
0.0
 41
0.0
 42
0.0
 10
29.0
 20
483.0
 40
0.0
 41
0.0
 42
0.0
  0
HATCH
  5
1D
330
F
100
AcDbEntity
  8
0
  6
ByLayer
420
2001125
 48
1.0
 60
0
370
-1
100
AcDbHatch
 30
0.0
210
0.0
220
0.0
230
1.0
  2
SOLID
 70
1
 71
0
 91
1
 92
2
 72
0
 73
1
 93
32
 10
291.0
 20
453.0
 10
290.2314112161292314
 20
445.1963871193548812
 10
287.9551813004514997
 20
437.6926627053964012
 10
284.2587844921018245
 20
430.7771906792158916
 10
279.284271247461902
 20
424.715728752538098
 10
273.2228093207841084
 20
419.7412155078981755
 10
266.3073372946035988
 20
416.0448186995485003
 10
258.8036128806451188
 20
413.7685887838707686
 10
251.0
 20
413.0
 10
243.1963871193548812
 20
413.7685887838707686
 10
235.6926627053964012
 20
416.0448186995485003
 10
228.77719067921592
 20
419.7412155078981755
 10
222.715728752538098
 20
424.715728752538098
 10
217.7412155078981755
 20
430.7771906792158916
 10
214.0448186995485287
 20
437.6926627053964012
 10
211.7685887838707686
 20
445.1963871193548812
 10
211.0
 20
453.0
 10
211.7685887838707686
 20
460.8036128806451188
 10
214.0448186995485287
 20
468.3073372946035988
 10
217.7412155078981755
 20
475.2228093207841084
 10
222.715728752538098
 20
481.284271247461902
 10
228.77719067921592
 20
486.2587844921018245
 10
235.6926627053964012
 20
489.9551813004514429
 10
243.1963871193548812
 20
492.2314112161292314
 10
251.0
 20
493.0
 10
258.8036128806451188
 20
492.2314112161292314
 10
266.3073372946035988
 20
489.9551813004514997
 10
273.2228093207840516
 20
486.2587844921018245
 10
279.284271247461902
 20
481.284271247461902
 10
284.2587844921018245
 20
475.2228093207841084
 10
287.9551813004514429
 20
468.3073372946035988
 10
290.2314112161292314
 20
460.8036128806451188
 97
0
 75
0
 76
1
 47
0.0
 98
0
  0
LWPOLYLINE
  5
1E
330
F
100
AcDbEntity
  8
0
  6
ByLayer
420
870305
 48
1.0
 60
0
370
-1
100
AcDbPolyline
 90
32
 70
1
 43
0.0
 38
0.0
 39
0.0
210
0.0
220
0.0
230
1.0
 10
291.0
 20
453.0
 40
0.0
 41
0.0
 42
0.0
 10
290.2314112161292314
 20
445.1963871193548812
 40
0.0
 41
0.0
 42
0.0
 10
287.9551813004514997
 20
437.6926627053964012
 40
0.0
 41
0.0
 42
0.0
 10
284.2587844921018245
 20
430.7771906792158916
 40
0.0
 41
0.0
 42
0.0
 10
279.284271247461902
 20
424.715728752538098
 40
0.0
 41
0.0
 42
0.0
 10
273.2228093207841084
 20
419.7412155078981755
 40
0.0
 41
0.0
 42
0.0
 10
266.3073372946035988
 20
416.0448186995485003
 40
0.0
 41
0.0
 42
0.0
 10
258.8036128806451188
 20
413.7685887838707686
 40
0.0
 41
0.0
 42
0.0
 10
251.0
 20
413.0
 40
0.0
 41
0.0
 42
0.0
 10
243.1963871193548812
 20
413.7685887838707686
 40
0.0
 41
0.0
 42
0.0
 10
235.6926627053964012
 20
416.0448186995485003
 40
0.0
 41
0.0
 42
0.0
 10
228.77719067921592
 20
419.7412155078981755
 40
0.0
 41
0.0
 42
0.0
 10
222.715728752538098
 20
424.715728752538098
 40
0.0
 41
0.0
 42
0.0
 10
217.7412155078981755
 20
430.7771906792158916
 40
0.0
 41
0.0
 42
0.0
 10
214.0448186995485287
 20
437.6926627053964012
 40
0.0
 41
0.0
 42
0.0
 10
211.7685887838707686
 20
445.1963871193548812
 40
0.0
 41
0.0
 42
0.0
 10
211.0
 20
453.0
 40
0.0
 41
0.0
 42
0.0
 10
211.7685887838707686
 20
460.8036128806451188
 40
0.0
 41
0.0
 42
0.0
 10
214.0448186995485287
 20
468.3073372946035988
 40
0.0
 41
0.0
 42
0.0
 10
217.7412155078981755
 20
475.2228093207841084
 40
0.0
 41
0.0
 42
0.0
 10
222.715728752538098
 20
481.284271247461902
 40
0.0
 41
0.0
 42
0.0
 10
228.77719067921592
 20
486.2587844921018245
 40
0.0
 41
0.0
 42
0.0
 10
235.6926627053964012
 20
489.9551813004514429
 40
0.0
 41
0.0
 42
0.0
 10
243.1963871193548812
 20
492.2314112161292314
 40
0.0
 41
0.0
 42
0.0
 10
251.0
 20
493.0
 40
0.0
 41
0.0
 42
0.0
 10
258.8036128806451188
 20
492.2314112161292314
 40
0.0
 41
0.0
 42
0.0
 10
266.3073372946035988
 20
489.9551813004514997
 40
0.0
 41
0.0
 42
0.0
 10
273.2228093207840516
 20
486.2587844921018245
 40
0.0
 41
0.0
 42
0.0
 10
279.284271247461902
 20
481.284271247461902
 40
0.0
 41
0.0
 42
0.0
 10
284.2587844921018245
 20
475.2228093207841084
 40
0.0
 41
0.0
 42
0.0
 10
287.9551813004514429
 20
468.3073372946035988
 40
0.0
 41
0.0
 42
0.0
 10
290.2314112161292314
 20
460.8036128806451188
 40
0.0
 41
0.0
 42
0.0
  0
HATCH
  5
1F
330
F
100
AcDbEntity
  8
0
  6
ByLayer
420
4431943
 48
1.0
 60
0
370
-1
100
AcDbHatch
 30
0.0
210
0.0
220
0.0
230
1.0
  2
SOLID
 70
1
 71
0
 91
1
 92
2
 72
0
 73
1
 93
32
 10
461.0
 20
453.0
 10
459.8471168241938472
 20
446.1718387294355352
 10
456.4327719506771928
 20
439.6060798672218652
 10
450.8881767381527084
 20
433.5550418443139051
 10
443.426406871192853
 20
428.2512626584708642
 10
434.3342139811761626
 20
423.8985635694109533
 10
423.9610059419053982
 20
420.6642163621049804
 10
412.7054193209676782
 20
418.6725151858869367
 10
401.0
 20
418.0
 10
389.2945806790323218
 20
418.6725151858869367
 10
378.0389940580946018
 20
420.6642163621049804
 10
367.6657860188238942
 20
423.8985635694108964
 10
358.573593128807147
 20
428.2512626584708642
 10
351.1118232618472916
 20
433.5550418443139051
 10
345.5672280493228072
 20
439.6060798672218652
 10
342.1528831758061528
 20
446.1718387294355352
 10
341.0
 20
453.0
 10
342.1528831758061528
 20
459.8281612705644648
 10
345.5672280493228072
 20
466.3939201327781348
 10
351.1118232618472916
 20
472.4449581556860949
 10
358.573593128807147
 20
477.7487373415291358
 10
367.6657860188238374
 20
482.1014364305890467
 10
378.0389940580946018
 20
485.3357836378950196
 10
389.2945806790322649
 20
487.3274848141130633
 10
401.0
 20
488.0
 10
412.7054193209676782
 20
487.3274848141130633
 10
423.9610059419053982
 20
485.3357836378950196
 10
434.3342139811761058
 20
482.1014364305891036
 10
443.426406871192853
 20
477.7487373415291358
 10
450.8881767381527084
 20
472.4449581556860949
 10
456.4327719506771928
 20
466.3939201327781348
 10
459.8471168241937903
 20
459.8281612705645216
 97
0
 75
0
 76
1
 47
0.0
 98
0
  0
LWPOLYLINE
  5
20
330
F
100
AcDbEntity
  8
0
  6
ByLayer
420
1793568
 48
1.0
 60
0
370
-1
100
AcDbPolyline
 90
32
 70
1
 43
0.0
 38
0.0
 39
0.0
210
0.0
220
0.0
230
1.0
 10
461.0
 20
453.0
 40
0.0
 41
0.0
 42
0.0
 10
459.8471168241938472
 20
446.1718387294355352
 40
0.0
 41
0.0
 42
0.0
 10
456.4327719506771928
 20
439.6060798672218652
 40
0.0
 41
0.0
 42
0.0
 10
450.8881767381527084
 20
433.5550418443139051
 40
0.0
 41
0.0
 42
0.0
 10
443.426406871192853
 20
428.2512626584708642
 40
0.0
 41
0.0
 42
0.0
 10
434.3342139811761626
 20
423.8985635694109533
 40
0.0
 41
0.0
 42
0.0
 10
423.9610059419053982
 20
420.6642163621049804
 40
0.0
 41
0.0
 42
0.0
 10
412.7054193209676782
 20
418.6725151858869367
 40
0.0
 41
0.0
 42
0.0
 10
401.0
 20
418.0
 40
0.0
 41
0.0
 42
0.0
 10
389.2945806790323218
 20
418.6725151858869367
 40
0.0
 41
0.0
 42
0.0
 10
378.0389940580946018
 20
420.6642163621049804
 40
0.0
 41
0.0
 42
0.0
 10
367.6657860188238942
 20
423.8985635694108964
 40
0.0
 41
0.0
 42
0.0
 10
358.573593128807147
 20
428.2512626584708642
 40
0.0
 41
0.0
 42
0.0
 10
351.1118232618472916
 20
433.5550418443139051
 40
0.0
 41
0.0
 42
0.0
 10
345.5672280493228072
 20
439.6060798672218652
 40
0.0
 41
0.0
 42
0.0
 10
342.1528831758061528
 20
446.1718387294355352
 40
0.0
 41
0.0
 42
0.0
 10
341.0
 20
453.0
 40
0.0
 41
0.0
 42
0.0
 10
342.1528831758061528
 20
459.8281612705644648
 40
0.0
 41
0.0
 42
0.0
 10
345.5672280493228072
 20
466.3939201327781348
 40
0.0
 41
0.0
 42
0.0
 10
351.1118232618472916
 20
472.4449581556860949
 40
0.0
 41
0.0
 42
0.0
 10
358.573593128807147
 20
477.7487373415291358
 40
0.0
 41
0.0
 42
0.0
 10
367.6657860188238374
 20
482.1014364305890467
 40
0.0
 41
0.0
 42
0.0
 10
378.0389940580946018
 20
485.3357836378950196
 40
0.0
 41
0.0
 42
0.0
 10
389.2945806790322649
 20
487.3274848141130633
 40
0.0
 41
0.0
 42
0.0
 10
401.0
 20
488.0
 40
0.0
 41
0.0
 42
0.0
 10
412.7054193209676782
 20
487.3274848141130633
 40
0.0
 41
0.0
 42
0.0
 10
423.9610059419053982
 20
485.3357836378950196
 40
0.0
 41
0.0
 42
0.0
 10
434.3342139811761058
 20
482.1014364305891036
 40
0.0
 41
0.0
 42
0.0
 10
443.426406871192853
 20
477.7487373415291358
 40
0.0
 41
0.0
 42
0.0
 10
450.8881767381527084
 20
472.4449581556860949
 40
0.0
 41
0.0
 42
0.0
 10
456.4327719506771928
 20
466.3939201327781348
 40
0.0
 41
0.0
 42
0.0
 10
459.8471168241937903
 20
459.8281612705645216
 40
0.0
 41
0.0
 42
0.0
  0
LWPOLYLINE
  5
21
330
F
100
AcDbEntity
  8
0
  6
ByLayer
420
16750592
 48
1.0
 60
0
370
-1
100
AcDbPolyline
 90
2
 70
0
 43
0.0
 38
0.0
 39
0.0
210
0.0
220
0.0
230
1.0
 10
21.0
 20
383.0
 40
0.0
 41
0.0
 42
0.0
 10
181.0
 20
383.0
 40
0.0
 41
0.0
 42
0.0
  0
LWPOLYLINE
  5
22
330
F
100
AcDbEntity
  8
0
  6
ByLayer
420
10233776
 48
1.0
 60
0
370
-1
100
AcDbPolyline
 90
5
 70
0
 43
0.0
 38
0.0
 39
0.0
210
0.0
220
0.0
230
1.0
 10
201.0
 20
403.0
 40
0.0
 41
0.0
 42
0.0
 10
231.0
 20
363.0
 40
0.0
 41
0.0
 42
0.0
 10
261.0
 20
398.0
 40
0.0
 41
0.0
 42
0.0
 10
291.0
 20
358.0
 40
0.0
 41
0.0
 42
0.0
 10
321.0
 20
403.0
 40
0.0
 41
0.0
 42
0.0
  0
HATCH
  5
23
330
F
100
AcDbEntity
  8
0
  6
ByLayer
420
16635957
 48
1.0
 60
0
370
-1
100
AcDbHatch
 30
0.0
210
0.0
220
0.0
230
1.0
  2
SOLID
 70
1
 71
0
 91
1
 92
2
 72
0
 73
1
 93
10
 10
431.0
 20
413.0
 10
446.0
 20
373.0
 10
491.0
 20
373.0
 10
456.0
 20
348.0
 10
466.0
 20
308.0
 10
431.0
 20
333.0
 10
396.0
 20
308.0
 10
406.0
 20
348.0
 10
371.0
 20
373.0
 10
416.0
 20
373.0
 97
0
 75
0
 76
1
 47
0.0
 98
0
  0
LWPOLYLINE
  5
24
330
F
100
AcDbEntity
  8
0
  6
ByLayer
420
16088855
 48
1.0
 60
0
370
-1
100
AcDbPolyline
 90
10
 70
1
 43
0.0
 38
0.0
 39
0.0
210
0.0
220
0.0
230
1.0
 10
431.0
 20
413.0
 40
0.0
 41
0.0
 42
0.0
 10
446.0
 20
373.0
 40
0.0
 41
0.0
 42
0.0
 10
491.0
 20
373.0
 40
0.0
 41
0.0
 42
0.0
 10
456.0
 20
348.0
 40
0.0
 41
0.0
 42
0.0
 10
466.0
 20
308.0
 40
0.0
 41
0.0
 42
0.0
 10
431.0
 20
333.0
 40
0.0
 41
0.0
 42
0.0
 10
396.0
 20
308.0
 40
0.0
 41
0.0
 42
0.0
 10
406.0
 20
348.0
 40
0.0
 41
0.0
 42
0.0
 10
371.0
 20
373.0
 40
0.0
 41
0.0
 42
0.0
 10
416.0
 20
373.0
 40
0.0
 41
0.0
 42
0.0
  0
LWPOLYLINE
  5
25
330
F
100
AcDbEntity
  8
0
  6
ByLayer
420
48340
 48
1.0
 60
0
370
-1
100
AcDbPolyline
 90
145
 70
0
 43
0.0
 38
0.0
 39
0.0
210
0.0
220
0.0
230
1.0
 10
21.0
 20
303.0
 40
0.0
 41
0.0
 42
0.0
 10
22.2383022308349609
 20
304.569854736328125
 40
0.0
 41
0.0
 42
0.0
 10
23.55706787109375
 20
306.07269287109375
 40
0.0
 41
0.0
 42
0.0
 10
24.9611663818359375
 20
307.4960479736328125
 40
0.0
 41
0.0
 42
0.0
 10
26.4541091918945313
 20
308.8258056640625
 40
0.0
 41
0.0
 42
0.0
 10
28.0373802185058594
 20
310.0464935302734375
 40
0.0
 41
0.0
 42
0.0
 10
29.7094707489013672
 20
311.1422576904296875
 40
0.0
 41
0.0
 42
0.0
 10
31.4652633666992188
 20
312.0980377197265625
 40
0.0
 41
0.0
 42
0.0
 10
33.2957496643066406
 20
312.9014892578125
 40
0.0
 41
0.0
 42
0.0
 10
35.1885528564453125
 20
313.5445404052734375
 40
0.0
 41
0.0
 42
0.0
 10
37.1291236877441406
 20
314.024658203125
 40
0.0
 41
0.0
 42
0.0
 10
39.102447509765625
 20
314.3448944091796875
 40
0.0
 41
0.0
 42
0.0
 10
41.0945510864257813
 20
314.5132904052734375
 40
0.0
 41
0.0
 42
0.0
 10
43.0936470031738281
 20
314.541473388671875
 40
0.0
 41
0.0
 42
0.0
 10
45.0905799865722656
 20
314.4427642822265625
 40
0.0
 41
0.0
 42
0.0
 10
47.0788040161132813
 20
314.231414794921875
 40
0.0
 41
0.0
 42
0.0
 10
49.0540809631347656
 20
313.9212493896484375
 40
0.0
 41
0.0
 42
0.0
 10
51.0139694213867188
 20
313.5251007080078125
 40
0.0
 41
0.0
 42
0.0
 10
52.9573974609375
 20
313.05462646484375
 40
0.0
 41
0.0
 42
0.0
 10
54.8842544555664063
 20
312.5202178955078125
 40
0.0
 41
0.0
 42
0.0
 10
56.7951164245605469
 20
311.93109130859375
 40
0.0
 41
0.0
 42
0.0
 10
58.6910018920898438
 20
311.29534912109375
 40
0.0
 41
0.0
 42
0.0
 10
60.5731277465820313
 20
310.6199493408203125
 40
0.0
 41
0.0
 42
0.0
 10
62.4429855346679688
 20
309.9112701416015625
 40
0.0
 41
0.0
 42
0.0
 10
64.3020896911621094
 20
309.1748199462890625
 40
0.0
 41
0.0
 42
0.0
 10
66.1519775390625
 20
308.415496826171875
 40
0.0
 41
0.0
 42
0.0
 10
67.9942169189453125
 20
307.6378021240234375
 40
0.0
 41
0.0
 42
0.0
 10
69.830352783203125
 20
306.8457794189453125
 40
0.0
 41
0.0
 42
0.0
 10
71.6617965698242188
 20
306.042999267578125
 40
0.0
 41
0.0
 42
0.0
 10
73.4901123046875
 20
305.23309326171875
 40
0.0
 41
0.0
 42
0.0
 10
75.316650390625
 20
304.4192047119140625
 40
0.0
 41
0.0
 42
0.0
 10
77.142791748046875
 20
303.6044158935546875
 40
0.0
 41
0.0
 42
0.0
 10
78.9697341918945313
 20
302.791412353515625
 40
0.0
 41
0.0
 42
0.0
 10
80.798858642578125
 20
301.98333740234375
 40
0.0
 41
0.0
 42
0.0
 10
82.6312713623046875
 20
301.1827545166015625
 40
0.0
 41
0.0
 42
0.0
 10
84.4681625366210938
 20
300.3925018310546875
 40
0.0
 41
0.0
 42
0.0
 10
86.3106536865234375
 20
299.61541748046875
 40
0.0
 41
0.0
 42
0.0
 10
88.15972900390625
 20
298.8541259765625
 40
0.0
 41
0.0
 42
0.0
 10
90.0163803100585938
 20
298.1115875244140625
 40
0.0
 41
0.0
 42
0.0
 10
91.8815078735351563
 20
297.390533447265625
 40
0.0
 41
0.0
 42
0.0
 10
93.7559890747070313
 20
296.694183349609375
 40
0.0
 41
0.0
 42
0.0
 10
95.6404800415039063
 20
296.0254364013671875
 40
0.0
 41
0.0
 42
0.0
 10
97.5357284545898438
 20
295.387725830078125
 40
0.0
 41
0.0
 42
0.0
 10
99.44207763671875
 20
294.7841644287109375
 40
0.0
 41
0.0
 42
0.0
 10
101.3599777221679688
 20
294.218353271484375
 40
0.0
 41
0.0
 42
0.0
 10
103.2895889282226563
 20
293.6938323974609375
 40
0.0
 41
0.0
 42
0.0
 10
105.2309036254882813
 20
293.2145233154296875
 40
0.0
 41
0.0
 42
0.0
 10
107.1836395263671875
 20
292.7841644287109375
 40
0.0
 41
0.0
 42
0.0
 10
109.1472854614257813
 20
292.4066925048828125
 40
0.0
 41
0.0
 42
0.0
 10
111.1210708618164063
 20
292.0863800048828125
 40
0.0
 41
0.0
 42
0.0
 10
113.1037445068359375
 20
291.8270416259765625
 40
0.0
 41
0.0
 42
0.0
 10
115.0938491821289063
 20
291.63275146484375
 40
0.0
 41
0.0
 42
0.0
 10
117.0894927978515625
 20
291.507354736328125
 40
0.0
 41
0.0
 42
0.0
 10
119.0883407592773438
 20
291.4546356201171875
 40
0.0
 41
0.0
 42
0.0
 10
121.0877609252929688
 20
291.477752685546875
 40
0.0
 41
0.0
 42
0.0
 10
123.0847015380859375
 20
291.579742431640625
 40
0.0
 41
0.0
 42
0.0
 10
125.0758056640625
 20
291.76300048828125
 40
0.0
 41
0.0
 42
0.0
 10
127.0575027465820313
 20
292.02923583984375
 40
0.0
 41
0.0
 42
0.0
 10
129.026092529296875
 20
292.379486083984375
 40
0.0
 41
0.0
 42
0.0
 10
130.977813720703125
 20
292.8140106201171875
 40
0.0
 41
0.0
 42
0.0
 10
132.908935546875
 20
293.332489013671875
 40
0.0
 41
0.0
 42
0.0
 10
134.81591796875
 20
293.9336700439453125
 40
0.0
 41
0.0
 42
0.0
 10
136.695587158203125
 20
294.6155853271484375
 40
0.0
 41
0.0
 42
0.0
 10
138.5449676513671875
 20
295.3757476806640625
 40
0.0
 41
0.0
 42
0.0
 10
140.3616180419921875
 20
296.2111358642578125
 40
0.0
 41
0.0
 42
0.0
 10
142.14349365234375
 20
297.1183013916015625
 40
0.0
 41
0.0
 42
0.0
 10
143.8890838623046875
 20
298.0935211181640625
 40
0.0
 41
0.0
 42
0.0
 10
145.5971527099609375
 20
299.133087158203125
 40
0.0
 41
0.0
 42
0.0
 10
147.2671356201171875
 20
300.2328643798828125
 40
0.0
 41
0.0
 42
0.0
 10
148.8986663818359375
 20
301.389007568359375
 40
0.0
 41
0.0
 42
0.0
 10
150.491668701171875
 20
302.597564697265625
 40
0.0
 41
0.0
 42
0.0
 10
152.05816650390625
 20
303.8404541015625
 40
0.0
 41
0.0
 42
0.0
 10
153.6346588134765625
 20
305.070648193359375
 40
0.0
 41
0.0
 42
0.0
 10
155.2239837646484375
 20
306.2842559814453125
 40
0.0
 41
0.0
 42
0.0
 10
156.82623291015625
 20
307.480743408203125
 40
0.0
 41
0.0
 42
0.0
 10
158.4414825439453125
 20
308.6595611572265625
 40
0.0
 41
0.0
 42
0.0
 10
160.06988525390625
 20
309.820159912109375
 40
0.0
 41
0.0
 42
0.0
 10
161.71142578125
 20
310.9621429443359375
 40
0.0
 41
0.0
 42
0.0
 10
163.3661956787109375
 20
312.0847930908203125
 40
0.0
 41
0.0
 42
0.0
 10
165.0343170166015625
 20
313.1875762939453125
 40
0.0
 41
0.0
 42
0.0
 10
166.7157745361328125
 20
314.2698822021484375
 40
0.0
 41
0.0
 42
0.0
 10
168.410614013671875
 20
315.3310699462890625
 40
0.0
 41
0.0
 42
0.0
 10
170.1189727783203125
 20
316.3703765869140625
 40
0.0
 41
0.0
 42
0.0
 10
171.840789794921875
 20
317.38726806640625
 40
0.0
 41
0.0
 42
0.0
 10
173.5760345458984375
 20
318.3809661865234375
 40
0.0
 41
0.0
 42
0.0
 10
175.3248291015625
 20
319.350677490234375
 40
0.0
 41
0.0
 42
0.0
 10
177.08709716796875
 20
320.2956085205078125
 40
0.0
 41
0.0
 42
0.0
 10
178.86285400390625
 20
321.2150421142578125
 40
0.0
 41
0.0
 42
0.0
 10
180.652008056640625
 20
322.1081085205078125
 40
0.0
 41
0.0
 42
0.0
 10
182.45452880859375
 20
322.9738311767578125
 40
0.0
 41
0.0
 42
0.0
 10
184.270294189453125
 20
323.811431884765625
 40
0.0
 41
0.0
 42
0.0
 10
186.09918212890625
 20
324.6199951171875
 40
0.0
 41
0.0
 42
0.0
 10
187.9410400390625
 20
325.398529052734375
 40
0.0
 41
0.0
 42
0.0
 10
189.795745849609375
 20
326.1458892822265625
 40
0.0
 41
0.0
 42
0.0
 10
191.663055419921875
 20
326.861297607421875
 40
0.0
 41
0.0
 42
0.0
 10
193.542694091796875
 20
327.543487548828125
 40
0.0
 41
0.0
 42
0.0
 10
195.4344482421875
 20
328.1914215087890625
 40
0.0
 41
0.0
 42
0.0
 10
197.33795166015625
 20
328.80401611328125
 40
0.0
 41
0.0
 42
0.0
 10
199.2528228759765625
 20
329.3800811767578125
 40
0.0
 41
0.0
 42
0.0
 10
201.1785888671875
 20
329.918426513671875
 40
0.0
 41
0.0
 42
0.0
 10
203.1148681640625
 20
330.4178619384765625
 40
0.0
 41
0.0
 42
0.0
 10
205.06103515625
 20
330.87713623046875
 40
0.0
 41
0.0
 42
0.0
 10
207.016510009765625
 20
331.295074462890625
 40
0.0
 41
0.0
 42
0.0
 10
208.980621337890625
 20
331.67034912109375
 40
0.0
 41
0.0
 42
0.0
 10
210.9526214599609375
 20
332.00164794921875
 40
0.0
 41
0.0
 42
0.0
 10
212.9316558837890625
 20
332.287872314453125
 40
0.0
 41
0.0
 42
0.0
 10
214.916839599609375
 20
332.5275421142578125
 40
0.0
 41
0.0
 42
0.0
 10
216.9072265625
 20
332.719573974609375
 40
0.0
 41
0.0
 42
0.0
 10
218.901702880859375
 20
332.8627471923828125
 40
0.0
 41
0.0
 42
0.0
 10
220.8991241455078125
 20
332.9558258056640625
 40
0.0
 41
0.0
 42
0.0
 10
222.8983154296875
 20
332.99761962890625
 40
0.0
 41
0.0
 42
0.0
 10
224.897918701171875
 20
332.9870758056640625
 40
0.0
 41
0.0
 42
0.0
 10
226.896453857421875
 20
332.923126220703125
 40
0.0
 41
0.0
 42
0.0
 10
228.8925628662109375
 20
332.80487060546875
 40
0.0
 41
0.0
 42
0.0
 10
230.8846435546875
 20
332.6314849853515625
 40
0.0
 41
0.0
 42
0.0
 10
232.87103271484375
 20
332.402252197265625
 40
0.0
 41
0.0
 42
0.0
 10
234.85009765625
 20
332.1164703369140625
 40
0.0
 41
0.0
 42
0.0
 10
236.820098876953125
 20
331.7735595703125
 40
0.0
 41
0.0
 42
0.0
 10
238.7792510986328125
 20
331.373382568359375
 40
0.0
 41
0.0
 42
0.0
 10
240.7257080078125
 20
330.9154510498046875
 40
0.0
 41
0.0
 42
0.0
 10
242.65771484375
 20
330.39996337890625
 40
0.0
 41
0.0
 42
0.0
 10
244.573394775390625
 20
329.826751708984375
 40
0.0
 41
0.0
 42
0.0
 10
246.4710235595703125
 20
329.1963958740234375
 40
0.0
 41
0.0
 42
0.0
 10
248.3487396240234375
 20
328.50897216796875
 40
0.0
 41
0.0
 42
0.0
 10
250.2049407958984375
 20
327.7653961181640625
 40
0.0
 41
0.0
 42
0.0
 10
252.037841796875
 20
326.9661102294921875
 40
0.0
 41
0.0
 42
0.0
 10
253.8459625244140625
 20
326.112335205078125
 40
0.0
 41
0.0
 42
0.0
 10
255.6277618408203125
 20
325.2047271728515625
 40
0.0
 41
0.0
 42
0.0
 10
257.38189697265625
 20
324.2448577880859375
 40
0.0
 41
0.0
 42
0.0
 10
259.10699462890625
 20
323.2336883544921875
 40
0.0
 41
0.0
 42
0.0
 10
260.801971435546875
 20
322.1727752685546875
 40
0.0
 41
0.0
 42
0.0
 10
262.465789794921875
 20
321.0636444091796875
 40
0.0
 41
0.0
 42
0.0
 10
264.097442626953125
 20
319.9077606201171875
 40
0.0
 41
0.0
 42
0.0
 10
265.69610595703125
 20
318.706756591796875
 40
0.0
 41
0.0
 42
0.0
 10
267.261322021484375
 20
317.462249755859375
 40
0.0
 41
0.0
 42
0.0
 10
268.7923583984375
 20
316.176025390625
 40
0.0
 41
0.0
 42
0.0
 10
270.288848876953125
 20
314.84979248046875
 40
0.0
 41
0.0
 42
0.0
 10
271.75048828125
 20
313.4852752685546875
 40
0.0
 41
0.0
 42
0.0
 10
273.177001953125
 20
312.084014892578125
 40
0.0
 41
0.0
 42
0.0
 10
274.568389892578125
 20
310.6478118896484375
 40
0.0
 41
0.0
 42
0.0
 10
275.924591064453125
 20
309.178436279296875
 40
0.0
 41
0.0
 42
0.0
 10
277.245635986328125
 20
307.6772918701171875
 40
0.0
 41
0.0
 42
0.0
 10
278.531768798828125
 20
306.146148681640625
 40
0.0
 41
0.0
 42
0.0
 10
279.783233642578125
 20
304.5865020751953125
 40
0.0
 41
0.0
 42
0.0
 10
281.0
 20
303.0
 40
0.0
 41
0.0
 42
0.0
  0
LWPOLYLINE
  5
26
330
F
100
AcDbEntity
  8
0
  6
ByLayer
420
15277667
 48
1.0
 60
0
370
-1
100
AcDbPolyline
 90
116
 70
0
 43
0.0
 38
0.0
 39
0.0
210
0.0
220
0.0
230
1.0
 10
301.0
 20
303.0
 40
0.0
 41
0.0
 42
0.0
 10
302.42156982421875
 20
304.4013519287109375
 40
0.0
 41
0.0
 42
0.0
 10
303.863616943359375
 20
305.7815704345703125
 40
0.0
 41
0.0
 42
0.0
 10
305.3267822265625
 20
307.139434814453125
 40
0.0
 41
0.0
 42
0.0
 10
306.811492919921875
 20
308.473663330078125
 40
0.0
 41
0.0
 42
0.0
 10
308.318450927734375
 20
309.782745361328125
 40
0.0
 41
0.0
 42
0.0
 10
309.848114013671875
 20
311.0652008056640625
 40
0.0
 41
0.0
 42
0.0
 10
311.401153564453125
 20
312.3192291259765625
 40
0.0
 41
0.0
 42
0.0
 10
312.977996826171875
 20
313.543182373046875
 40
0.0
 41
0.0
 42
0.0
 10
314.579132080078125
 20
314.7351837158203125
 40
0.0
 41
0.0
 42
0.0
 10
316.205108642578125
 20
315.89306640625
 40
0.0
 41
0.0
 42
0.0
 10
317.856231689453125
 20
317.0148162841796875
 40
0.0
 41
0.0
 42
0.0
 10
319.5328369140625
 20
318.0980682373046875
 40
0.0
 41
0.0
 42
0.0
 10
321.23516845703125
 20
319.1404571533203125
 40
0.0
 41
0.0
 42
0.0
 10
322.963348388671875
 20
320.139373779296875
 40
0.0
 41
0.0
 42
0.0
 10
324.717376708984375
 20
321.092132568359375
 40
0.0
 41
0.0
 42
0.0
 10
326.497100830078125
 20
321.9959869384765625
 40
0.0
 41
0.0
 42
0.0
 10
328.302215576171875
 20
322.8480224609375
 40
0.0
 41
0.0
 42
0.0
 10
330.132171630859375
 20
323.6453094482421875
 40
0.0
 41
0.0
 42
0.0
 10
331.986236572265625
 20
324.38470458984375
 40
0.0
 41
0.0
 42
0.0
 10
333.863433837890625
 20
325.063323974609375
 40
0.0
 41
0.0
 42
0.0
 10
335.762451171875
 20
325.6781463623046875
 40
0.0
 41
0.0
 42
0.0
 10
337.681793212890625
 20
326.2261505126953125
 40
0.0
 41
0.0
 42
0.0
 10
339.619598388671875
 20
326.7048187255859375
 40
0.0
 41
0.0
 42
0.0
 10
341.57379150390625
 20
327.111358642578125
 40
0.0
 41
0.0
 42
0.0
 10
343.541961669921875
 20
327.4437408447265625
 40
0.0
 41
0.0
 42
0.0
 10
345.521514892578125
 20
327.6998138427734375
 40
0.0
 41
0.0
 42
0.0
 10
347.50958251953125
 20
327.878082275390625
 40
0.0
 41
0.0
 42
0.0
 10
349.50311279296875
 20
327.9774932861328125
 40
0.0
 41
0.0
 42
0.0
 10
351.499053955078125
 20
327.997406005859375
 40
0.0
 41
0.0
 42
0.0
 10
353.494171142578125
 20
327.937713623046875
 40
0.0
 41
0.0
 42
0.0
 10
355.485382080078125
 20
327.7987823486328125
 40
0.0
 41
0.0
 42
0.0
 10
357.46954345703125
 20
327.581390380859375
 40
0.0
 41
0.0
 42
0.0
 10
359.4437255859375
 20
327.28692626953125
 40
0.0
 41
0.0
 42
0.0
 10
361.405242919921875
 20
326.917266845703125
 40
0.0
 41
0.0
 42
0.0
 10
363.351531982421875
 20
326.47430419921875
 40
0.0
 41
0.0
 42
0.0
 10
365.280364990234375
 20
325.9606781005859375
 40
0.0
 41
0.0
 42
0.0
 10
367.18975830078125
 20
325.3788604736328125
 40
0.0
 41
0.0
 42
0.0
 10
369.078033447265625
 20
324.731781005859375
 40
0.0
 41
0.0
 42
0.0
 10
370.943817138671875
 20
324.022430419921875
 40
0.0
 41
0.0
 42
0.0
 10
372.785919189453125
 20
323.253662109375
 40
0.0
 41
0.0
 42
0.0
 10
374.603515625
 20
322.42864990234375
 40
0.0
 41
0.0
 42
0.0
 10
376.39599609375
 20
321.550323486328125
 40
0.0
 41
0.0
 42
0.0
 10
378.16290283203125
 20
320.6216888427734375
 40
0.0
 41
0.0
 42
0.0
 10
379.904022216796875
 20
319.645477294921875
 40
0.0
 41
0.0
 42
0.0
 10
381.6192626953125
 20
318.6244964599609375
 40
0.0
 41
0.0
 42
0.0
 10
383.3087158203125
 20
317.5613861083984375
 40
0.0
 41
0.0
 42
0.0
 10
384.972503662109375
 20
316.45855712890625
 40
0.0
 41
0.0
 42
0.0
 10
386.611053466796875
 20
315.3184967041015625
 40
0.0
 41
0.0
 42
0.0
 10
388.22454833984375
 20
314.143310546875
 40
0.0
 41
0.0
 42
0.0
 10
389.813507080078125
 20
312.9351043701171875
 40
0.0
 41
0.0
 42
0.0
 10
391.378326416015625
 20
311.6958160400390625
 40
0.0
 41
0.0
 42
0.0
 10
392.91961669921875
 20
310.427337646484375
 40
0.0
 41
0.0
 42
0.0
 10
394.437896728515625
 20
309.1314544677734375
 40
0.0
 41
0.0
 42
0.0
 10
395.93365478515625
 20
307.8095703125
 40
0.0
 41
0.0
 42
0.0
 10
397.407470703125
 20
306.46331787109375
 40
0.0
 41
0.0
 42
0.0
 10
398.8599853515625
 20
305.094085693359375
 40
0.0
 41
0.0
 42
0.0
 10
400.291717529296875
 20
303.7031402587890625
 40
0.0
 41
0.0
 42
0.0
 10
401.708282470703125
 20
302.2967376708984375
 40
0.0
 41
0.0
 42
0.0
 10
403.1400146484375
 20
300.9058074951171875
 40
0.0
 41
0.0
 42
0.0
 10
404.592559814453125
 20
299.53662109375
 40
0.0
 41
0.0
 42
0.0
 10
406.066436767578125
 20
298.1903839111328125
 40
0.0
 41
0.0
 42
0.0
 10
407.5621337890625
 20
296.8684844970703125
 40
0.0
 41
0.0
 42
0.0
 10
409.0804443359375
 20
295.572601318359375
 40
0.0
 41
0.0
 42
0.0
 10
410.62176513671875
 20
294.3041534423828125
 40
0.0
 41
0.0
 42
0.0
 10
412.186614990234375
 20
293.0648956298828125
 40
0.0
 41
0.0
 42
0.0
 10
413.77557373046875
 20
291.856689453125
 40
0.0
 41
0.0
 42
0.0
 10
415.389068603515625
 20
290.6815032958984375
 40
0.0
 41
0.0
 42
0.0
 10
417.027496337890625
 20
289.5413055419921875
 40
0.0
 41
0.0
 42
0.0
 10
418.69140625
 20
288.4385833740234375
 40
0.0
 41
0.0
 42
0.0
 10
420.380828857421875
 20
287.37542724609375
 40
0.0
 41
0.0
 42
0.0
 10
422.0960693359375
 20
286.3544464111328125
 40
0.0
 41
0.0
 42
0.0
 10
423.837188720703125
 20
285.378265380859375
 40
0.0
 41
0.0
 42
0.0
 10
425.6041259765625
 20
284.4496307373046875
 40
0.0
 41
0.0
 42
0.0
 10
427.39654541015625
 20
283.5712432861328125
 40
0.0
 41
0.0
 42
0.0
 10
429.214202880859375
 20
282.7463226318359375
 40
0.0
 41
0.0
 42
0.0
 10
431.05633544921875
 20
281.97760009765625
 40
0.0
 41
0.0
 42
0.0
 10
432.92205810546875
 20
281.268218994140625
 40
0.0
 41
0.0
 42
0.0
 10
434.81036376953125
 20
280.62115478515625
 40
0.0
 41
0.0
 42
0.0
 10
436.7197265625
 20
280.0393524169921875
 40
0.0
 41
0.0
 42
0.0
 10
438.648529052734375
 20
279.5256195068359375
 40
0.0
 41
0.0
 42
0.0
 10
440.594879150390625
 20
279.082763671875
 40
0.0
 41
0.0
 42
0.0
 10
442.556365966796875
 20
278.7130279541015625
 40
0.0
 41
0.0
 42
0.0
 10
444.53057861328125
 20
278.418548583984375
 40
0.0
 41
0.0
 42
0.0
 10
446.51470947265625
 20
278.2012481689453125
 40
0.0
 41
0.0
 42
0.0
 10
448.505889892578125
 20
278.0623016357421875
 40
0.0
 41
0.0
 42
0.0
 10
450.501007080078125
 20
278.002593994140625
 40
0.0
 41
0.0
 42
0.0
 10
452.496917724609375
 20
278.0225067138671875
 40
0.0
 41
0.0
 42
0.0
 10
454.490478515625
 20
278.12188720703125
 40
0.0
 41
0.0
 42
0.0
 10
456.478515625
 20
278.3001556396484375
 40
0.0
 41
0.0
 42
0.0
 10
458.45806884765625
 20
278.5563201904296875
 40
0.0
 41
0.0
 42
0.0
 10
460.42620849609375
 20
278.8886260986328125
 40
0.0
 41
0.0
 42
0.0
 10
462.380401611328125
 20
279.295196533203125
 40
0.0
 41
0.0
 42
0.0
 10
464.318206787109375
 20
279.773834228515625
 40
0.0
 41
0.0
 42
0.0
 10
466.237579345703125
 20
280.3219451904296875
 40
0.0
 41
0.0
 42
0.0
 10
468.1365966796875
 20
280.936737060546875
 40
0.0
 41
0.0
 42
0.0
 10
470.013763427734375
 20
281.6153411865234375
 40
0.0
 41
0.0
 42
0.0
 10
471.867828369140625
 20
282.3547821044921875
 40
0.0
 41
0.0
 42
0.0
 10
473.697845458984375
 20
283.1519317626953125
 40
0.0
 41
0.0
 42
0.0
 10
475.502899169921875
 20
284.0040435791015625
 40
0.0
 41
0.0
 42
0.0
 10
477.28265380859375
 20
284.907867431640625
 40
0.0
 41
0.0
 42
0.0
 10
479.03668212890625
 20
285.860626220703125
 40
0.0
 41
0.0
 42
0.0
 10
480.76483154296875
 20
286.85955810546875
 40
0.0
 41
0.0
 42
0.0
 10
482.467132568359375
 20
287.9019317626953125
 40
0.0
 41
0.0
 42
0.0
 10
484.143798828125
 20
288.985137939453125
 40
0.0
 41
0.0
 42
0.0
 10
485.79486083984375
 20
290.10693359375
 40
0.0
 41
0.0
 42
0.0
 10
487.4207763671875
 20
291.264862060546875
 40
0.0
 41
0.0
 42
0.0
 10
489.021942138671875
 20
292.456787109375
 40
0.0
 41
0.0
 42
0.0
 10
490.598785400390625
 20
293.680755615234375
 40
0.0
 41
0.0
 42
0.0
 10
492.15185546875
 20
294.9347991943359375
 40
0.0
 41
0.0
 42
0.0
 10
493.6815185546875
 20
296.217254638671875
 40
0.0
 41
0.0
 42
0.0
 10
495.1884765625
 20
297.5262908935546875
 40
0.0
 41
0.0
 42
0.0
 10
496.673187255859375
 20
298.86053466796875
 40
0.0
 41
0.0
 42
0.0
 10
498.13629150390625
 20
300.21844482421875
 40
0.0
 41
0.0
 42
0.0
 10
499.578338623046875
 20
301.59869384765625
 40
0.0
 41
0.0
 42
0.0
 10
500.999969482421875
 20
302.999969482421875
 40
0.0
 41
0.0
 42
0.0
  0
LWPOLYLINE
  5
27
330
F
100
AcDbEntity
  8
0
  6
ByLayer
420
5025616
 48
1.0
 60
0
370
-1
100
AcDbPolyline
 90
80
 70
0
 43
0.0
 38
0.0
 39
0.0
210
0.0
220
0.0
230
1.0
 10
21.0
 20
223.0
 40
0.0
 41
0.0
 42
0.0
 10
21.0388507843017578
 20
224.988128662109375
 40
0.0
 41
0.0
 42
0.0
 10
21.1556320190429688
 20
226.973175048828125
 40
0.0
 41
0.0
 42
0.0
 10
21.3506851196289063
 20
228.95208740234375
 40
0.0
 41
0.0
 42
0.0
 10
21.6241264343261719
 20
230.92169189453125
 40
0.0
 41
0.0
 42
0.0
 10
21.9758434295654297
 20
232.87884521484375
 40
0.0
 41
0.0
 42
0.0
 10
22.4054985046386719
 20
234.820343017578125
 40
0.0
 41
0.0
 42
0.0
 10
22.91253662109375
 20
236.74310302734375
 40
0.0
 41
0.0
 42
0.0
 10
23.4962177276611328
 20
238.644012451171875
 40
0.0
 41
0.0
 42
0.0
 10
24.1556015014648438
 20
240.519989013671875
 40
0.0
 41
0.0
 42
0.0
 10
24.8896026611328125
 20
242.3680419921875
 40
0.0
 41
0.0
 42
0.0
 10
25.6969470977783203
 20
244.185272216796875
 40
0.0
 41
0.0
 42
0.0
 10
26.5762424468994141
 20
245.96881103515625
 40
0.0
 41
0.0
 42
0.0
 10
27.5259761810302734
 20
247.7158355712890625
 40
0.0
 41
0.0
 42
0.0
 10
28.5445785522460938
 20
249.4236297607421875
 40
0.0
 41
0.0
 42
0.0
 10
29.6302356719970703
 20
251.089599609375
 40
0.0
 41
0.0
 42
0.0
 10
30.7811374664306641
 20
252.711181640625
 40
0.0
 41
0.0
 42
0.0
 10
31.9953632354736328
 20
254.2859039306640625
 40
0.0
 41
0.0
 42
0.0
 10
33.2709465026855469
 20
255.8113555908203125
 40
0.0
 41
0.0
 42
0.0
 10
34.6058273315429688
 20
257.2852020263671875
 40
0.0
 41
0.0
 42
0.0
 10
35.9979438781738281
 20
258.7050933837890625
 40
0.0
 41
0.0
 42
0.0
 10
37.4451103210449219
 20
260.06884765625
 40
0.0
 41
0.0
 42
0.0
 10
38.945037841796875
 20
261.374359130859375
 40
0.0
 41
0.0
 42
0.0
 10
40.4954071044921875
 20
262.619537353515625
 40
0.0
 41
0.0
 42
0.0
 10
42.0938529968261719
 20
263.8023681640625
 40
0.0
 41
0.0
 42
0.0
 10
43.7379493713378906
 20
264.9208984375
 40
0.0
 41
0.0
 42
0.0
 10
45.4252052307128906
 20
265.973175048828125
 40
0.0
 41
0.0
 42
0.0
 10
47.1529617309570313
 20
266.9575042724609375
 40
0.0
 41
0.0
 42
0.0
 10
48.9185600280761719
 20
267.87225341796875
 40
0.0
 41
0.0
 42
0.0
 10
50.7192649841308594
 20
268.715789794921875
 40
0.0
 41
0.0
 42
0.0
 10
52.5522499084472656
 20
269.4866943359375
 40
0.0
 41
0.0
 42
0.0
 10
54.4146537780761719
 20
270.18353271484375
 40
0.0
 41
0.0
 42
0.0
 10
56.3034820556640625
 20
270.8051605224609375
 40
0.0
 41
0.0
 42
0.0
 10
58.2156982421875
 20
271.3506011962890625
 40
0.0
 41
0.0
 42
0.0
 10
60.1482200622558594
 20
271.8190460205078125
 40
0.0
 41
0.0
 42
0.0
 10
62.097930908203125
 20
272.2098236083984375
 40
0.0
 41
0.0
 42
0.0
 10
64.0617103576660156
 20
272.5224609375
 40
0.0
 41
0.0
 42
0.0
 10
66.0363693237304688
 20
272.7566375732421875
 40
0.0
 41
0.0
 42
0.0
 10
68.01873779296875
 20
272.9124908447265625
 40
0.0
 41
0.0
 42
0.0
 10
70.0056991577148438
 20
272.9902801513671875
 40
0.0
 41
0.0
 42
0.0
 10
71.99420166015625
 20
272.9902801513671875
 40
0.0
 41
0.0
 42
0.0
 10
73.981170654296875
 20
272.91253662109375
 40
0.0
 41
0.0
 42
0.0
 10
75.9635467529296875
 20
272.7566375732421875
 40
0.0
 41
0.0
 42
0.0
 10
77.938201904296875
 20
272.52239990234375
 40
0.0
 41
0.0
 42
0.0
 10
79.9019775390625
 20
272.2097930908203125
 40
0.0
 41
0.0
 42
0.0
 10
81.8517074584960938
 20
271.8190460205078125
 40
0.0
 41
0.0
 42
0.0
 10
83.7842254638671875
 20
271.3506317138671875
 40
0.0
 41
0.0
 42
0.0
 10
85.6964340209960938
 20
270.8051605224609375
 40
0.0
 41
0.0
 42
0.0
 10
87.5852737426757813
 20
270.1834869384765625
 40
0.0
 41
0.0
 42
0.0
 10
89.4476852416992188
 20
269.4866485595703125
 40
0.0
 41
0.0
 42
0.0
 10
91.2806854248046875
 20
268.7158203125
 40
0.0
 41
0.0
 42
0.0
 10
93.0814056396484375
 20
267.872314453125
 40
0.0
 41
0.0
 42
0.0
 10
94.8470306396484375
 20
266.957611083984375
 40
0.0
 41
0.0
 42
0.0
 10
96.5747756958007813
 20
265.9732208251953125
 40
0.0
 41
0.0
 42
0.0
 10
98.2619781494140625
 20
264.920867919921875
 40
0.0
 41
0.0
 42
0.0
 10
99.9060592651367188
 20
263.8023681640625
 40
0.0
 41
0.0
 42
0.0
 10
101.5045166015625
 20
262.61956787109375
 40
0.0
 41
0.0
 42
0.0
 10
103.054901123046875
 20
261.374420166015625
 40
0.0
 41
0.0
 42
0.0
 10
104.554840087890625
 20
260.0689239501953125
 40
0.0
 41
0.0
 42
0.0
 10
106.0019989013671875
 20
258.7051849365234375
 40
0.0
 41
0.0
 42
0.0
 10
107.3940963745117188
 20
257.2852325439453125
 40
0.0
 41
0.0
 42
0.0
 10
108.7289886474609375
 20
255.8114013671875
 40
0.0
 41
0.0
 42
0.0
 10
110.00457763671875
 20
254.2859649658203125
 40
0.0
 41
0.0
 42
0.0
 10
111.2188339233398438
 20
252.711273193359375
 40
0.0
 41
0.0
 42
0.0
 10
112.3697662353515625
 20
251.0897064208984375
 40
0.0
 41
0.0
 42
0.0
 10
113.4553756713867188
 20
249.4237060546875
 40
0.0
 41
0.0
 42
0.0
 10
114.4739151000976563
 20
247.715850830078125
 40
0.0
 41
0.0
 42
0.0
 10
115.4236602783203125
 20
245.968841552734375
 40
0.0
 41
0.0
 42
0.0
 10
116.3029937744140625
 20
244.185333251953125
 40
0.0
 41
0.0
 42
0.0
 10
117.1103897094726563
 20
242.368133544921875
 40
0.0
 41
0.0
 42
0.0
 10
117.8444366455078125
 20
240.520111083984375
 40
0.0
 41
0.0
 42
0.0
 10
118.5037918090820313
 20
238.644073486328125
 40
0.0
 41
0.0
 42
0.0
 10
119.0874557495117188
 20
236.7431640625
 40
0.0
 41
0.0
 42
0.0
 10
119.5944900512695313
 20
234.820404052734375
 40
0.0
 41
0.0
 42
0.0
 10
120.0241622924804688
 20
232.87890625
 40
0.0
 41
0.0
 42
0.0
 10
120.375946044921875
 20
230.921783447265625
 40
0.0
 41
0.0
 42
0.0
 10
120.6493301391601563
 20
228.9521484375
 40
0.0
 41
0.0
 42
0.0
 10
120.8443374633789063
 20
226.97320556640625
 40
0.0
 41
0.0
 42
0.0
 10
120.9611129760742188
 20
224.9881591796875
 40
0.0
 41
0.0
 42
0.0
 10
121.0
 20
223.000030517578125
 40
0.0
 41
0.0
 42
0.0
  0
HATCH
  5
28
330
F
100
AcDbEntity
  8
0
  6
ByLayer
420
16740419
 48
1.0
 60
0
370
-1
100
AcDbHatch
 30
0.0
210
0.0
220
0.0
230
1.0
  2
SOLID
 70
1
 71
0
 91
1
 92
2
 72
0
 73
1
 93
41
 10
206.0
 20
243.0
 10
276.0
 20
243.0
 10
276.0
 20
243.0
 10
276.9754516100806541
 20
242.9039264020161681
 10
277.9134171618254641
 20
242.6193976625564233
 10
278.7778511650980136
 20
242.157348061512721
 10
279.5355339059327662
 20
241.5355339059327093
 10
280.157348061512721
 20
240.7778511650980136
 10
280.6193976625564233
 20
239.9134171618254641
 10
280.9039264020161681
 20
238.9754516100806541
 10
281.0
 20
238.0
 10
281.0
 20
198.0
 10
281.0
 20
198.0
 10
280.9039264020161681
 20
197.0245483899193459
 10
280.6193976625564233
 20
196.0865828381745359
 10
280.157348061512721
 20
195.2221488349019864
 10
279.5355339059327662
 20
194.4644660940672907
 10
278.7778511650980136
 20
193.842651938487279
 10
277.9134171618254641
 20
193.3806023374435767
 10
276.9754516100806541
 20
193.0960735979838319
 10
276.0
 20
193.0
 10
206.0
 20
193.0
 10
206.0
 20
193.0
 10
205.0245483899193459
 20
193.0960735979838319
 10
204.0865828381745644
 20
193.3806023374435767
 10
203.2221488349019864
 20
193.842651938487279
 10
202.4644660940672622
 20
194.4644660940672338
 10
201.842651938487279
 20
195.2221488349019864
 10
201.3806023374435767
 20
196.0865828381745359
 10
201.0960735979838603
 20
197.0245483899193459
 10
201.0
 20
198.0
 10
201.0
 20
238.0
 10
201.0
 20
238.0
 10
201.0960735979838603
 20
238.9754516100806541
 10
201.3806023374435767
 20
239.9134171618254641
 10
201.842651938487279
 20
240.7778511650980136
 10
202.4644660940672622
 20
241.5355339059327093
 10
203.2221488349019864
 20
242.157348061512721
 10
204.0865828381745359
 20
242.6193976625564233
 10
205.0245483899193459
 20
242.9039264020161681
 10
206.0
 20
243.0
 97
0
 75
0
 76
1
 47
0.0
 98
0
  0
LWPOLYLINE
  5
29
330
F
100
AcDbEntity
  8
0
  6
ByLayer
420
16740419
 48
1.0
 60
0
370
-1
100
AcDbPolyline
 90
41
 70
1
 43
0.0
 38
0.0
 39
0.0
210
0.0
220
0.0
230
1.0
 10
206.0
 20
243.0
 40
0.0
 41
0.0
 42
0.0
 10
276.0
 20
243.0
 40
0.0
 41
0.0
 42
0.0
 10
276.0
 20
243.0
 40
0.0
 41
0.0
 42
0.0
 10
276.9754516100806541
 20
242.9039264020161681
 40
0.0
 41
0.0
 42
0.0
 10
277.9134171618254641
 20
242.6193976625564233
 40
0.0
 41
0.0
 42
0.0
 10
278.7778511650980136
 20
242.157348061512721
 40
0.0
 41
0.0
 42
0.0
 10
279.5355339059327662
 20
241.5355339059327093
 40
0.0
 41
0.0
 42
0.0
 10
280.157348061512721
 20
240.7778511650980136
 40
0.0
 41
0.0
 42
0.0
 10
280.6193976625564233
 20
239.9134171618254641
 40
0.0
 41
0.0
 42
0.0
 10
280.9039264020161681
 20
238.9754516100806541
 40
0.0
 41
0.0
 42
0.0
 10
281.0
 20
238.0
 40
0.0
 41
0.0
 42
0.0
 10
281.0
 20
198.0
 40
0.0
 41
0.0
 42
0.0
 10
281.0
 20
198.0
 40
0.0
 41
0.0
 42
0.0
 10
280.9039264020161681
 20
197.0245483899193459
 40
0.0
 41
0.0
 42
0.0
 10
280.6193976625564233
 20
196.0865828381745359
 40
0.0
 41
0.0
 42
0.0
 10
280.157348061512721
 20
195.2221488349019864
 40
0.0
 41
0.0
 42
0.0
 10
279.5355339059327662
 20
194.4644660940672907
 40
0.0
 41
0.0
 42
0.0
 10
278.7778511650980136
 20
193.842651938487279
 40
0.0
 41
0.0
 42
0.0
 10
277.9134171618254641
 20
193.3806023374435767
 40
0.0
 41
0.0
 42
0.0
 10
276.9754516100806541
 20
193.0960735979838319
 40
0.0
 41
0.0
 42
0.0
 10
276.0
 20
193.0
 40
0.0
 41
0.0
 42
0.0
 10
206.0
 20
193.0
 40
0.0
 41
0.0
 42
0.0
 10
206.0
 20
193.0
 40
0.0
 41
0.0
 42
0.0
 10
205.0245483899193459
 20
193.0960735979838319
 40
0.0
 41
0.0
 42
0.0
 10
204.0865828381745644
 20
193.3806023374435767
 40
0.0
 41
0.0
 42
0.0
 10
203.2221488349019864
 20
193.842651938487279
 40
0.0
 41
0.0
 42
0.0
 10
202.4644660940672622
 20
194.4644660940672338
 40
0.0
 41
0.0
 42
0.0
 10
201.842651938487279
 20
195.2221488349019864
 40
0.0
 41
0.0
 42
0.0
 10
201.3806023374435767
 20
196.0865828381745359
 40
0.0
 41
0.0
 42
0.0
 10
201.0960735979838603
 20
197.0245483899193459
 40
0.0
 41
0.0
 42
0.0
 10
201.0
 20
198.0
 40
0.0
 41
0.0
 42
0.0
 10
201.0
 20
238.0
 40
0.0
 41
0.0
 42
0.0
 10
201.0
 20
238.0
 40
0.0
 41
0.0
 42
0.0
 10
201.0960735979838603
 20
238.9754516100806541
 40
0.0
 41
0.0
 42
0.0
 10
201.3806023374435767
 20
239.9134171618254641
 40
0.0
 41
0.0
 42
0.0
 10
201.842651938487279
 20
240.7778511650980136
 40
0.0
 41
0.0
 42
0.0
 10
202.4644660940672622
 20
241.5355339059327093
 40
0.0
 41
0.0
 42
0.0
 10
203.2221488349019864
 20
242.157348061512721
 40
0.0
 41
0.0
 42
0.0
 10
204.0865828381745359
 20
242.6193976625564233
 40
0.0
 41
0.0
 42
0.0
 10
205.0245483899193459
 20
242.9039264020161681
 40
0.0
 41
0.0
 42
0.0
 10
206.0
 20
243.0
 40
0.0
 41
0.0
 42
0.0
  0
TEXT
  5
2A
330
F
100
AcDbEntity
  8
0
  6
ByLayer
420
16777215
 48
1.0
 60
0
370
-1
100
AcDbText
 39
0.0
 10
211.0
 20
214.5
 30
0.0
 40
14.0
  1
Group
 50
0.0
 41
1.0
 51
0.0
  7
Standard
 71
0
 72
0
 11
0.0
 21
0.0
 31
0.0
210
0.0
220
0.0
230
1.0
100
AcDbText
 73
0
  0
HATCH
  5
2B
330
F
100
AcDbEntity
  8
0
  6
ByLayer
420
6056896
 48
1.0
 60
0
370
-1
100
AcDbHatch
 30
0.0
210
0.0
220
0.0
230
1.0
  2
SOLID
 70
1
 71
0
 91
1
 92
2
 72
0
 73
1
 93
4
 10
294.1726599335670471
 20
224.1608977317810059
 10
332.8096924424171448
 20
213.808135986328125
 10
322.4569306969642639
 20
175.1711034774780273
 10
283.8198981881141663
 20
185.5238652229309082
 97
0
 75
0
 76
1
 47
0.0
 98
0
  0
LWPOLYLINE
  5
2C
330
F
100
AcDbEntity
  8
0
  6
ByLayer
420
6056896
 48
1.0
 60
0
370
-1
100
AcDbPolyline
 90
4
 70
1
 43
0.0
 38
0.0
 39
0.0
210
0.0
220
0.0
230
1.0
 10
294.1726599335670471
 20
224.1608977317810059
 40
0.0
 41
0.0
 42
0.0
 10
332.8096924424171448
 20
213.808135986328125
 40
0.0
 41
0.0
 42
0.0
 10
322.4569306969642639
 20
175.1711034774780273
 40
0.0
 41
0.0
 42
0.0
 10
283.8198981881141663
 20
185.5238652229309082
 40
0.0
 41
0.0
 42
0.0
  0
TEXT
  5
2D
330
F
100
AcDbEntity
  8
0
  6
ByLayer
420
3355443
 48
1.0
 60
0
370
-1
100
AcDbText
 39
0.0
 10
21.0
 20
135.5
 30
0.0
 40
24.0
  1
SVG Text
 50
0.0
 41
1.0
 51
0.0
  7
Standard
 71
0
 72
0
 11
0.0
 21
0.0
 31
0.0
210
0.0
220
0.0
230
1.0
100
AcDbText
 73
0
  0
TEXT
  5
2E
330
F
100
AcDbEntity
  8
0
  6
ByLayer
420
6710886
 48
1.0
 60
0
370
-1
100
AcDbText
 39
0.0
 10
21.0
 20
104.5
 30
0.0
 40
14.0
  1
Italic smaller text
 50
0.0
 41
1.0
 51
0.0
  7
Standard
 71
0
 72
0
 11
0.0
 21
0.0
 31
0.0
210
0.0
220
0.0
230
1.0
100
AcDbText
 73
0
  0
HATCH
  5
2F
330
F
100
AcDbEntity
  8
0
  6
ByLayer
420
6717162
 48
1.0
 60
0
370
-1
100
AcDbHatch
 30
0.0
210
0.0
220
0.0
230
1.0
  2
SOLID
 70
1
 71
0
 91
1
 92
2
 72
0
 73
1
 93
41
 10
31.0
 20
83.0
 10
161.0
 20
83.0
 10
161.0
 20
83.0
 10
162.9509032201612797
 20
82.8078528040322794
 10
164.8268343236508997
 20
82.2387953251128465
 10
166.5557023301960271
 20
81.3146961230254419
 10
168.0710678118654755
 20
80.0710678118654755
 10
169.3146961230254419
 20
78.5557023301960271
 10
170.2387953251128749
 20
76.8268343236508713
 10
170.8078528040323079
 20
74.9509032201613081
 10
171.0
 20
73.0
 10
171.0
 20
43.0
 10
171.0
 20
43.0
 10
170.8078528040323079
 20
41.0490967798386919
 10
170.2387953251128749
 20
39.1731656763491287
 10
169.3146961230254419
 20
37.4442976698039729
 10
168.0710678118654755
 20
35.9289321881345245
 10
166.5557023301960271
 20
34.6853038769745581
 10
164.8268343236508997
 20
33.7612046748871535
 10
162.9509032201612797
 20
33.1921471959677206
 10
161.0
 20
33.0
 10
31.0
 20
33.0
 10
31.0
 20
33.0
 10
29.0490967798387167
 20
33.1921471959677206
 10
27.1731656763491038
 20
33.7612046748871535
 10
25.44429766980398
 20
34.6853038769745581
 10
23.9289321881345245
 20
35.9289321881345245
 10
22.6853038769745474
 20
37.4442976698039729
 10
21.7612046748871322
 20
39.1731656763491287
 10
21.1921471959676957
 20
41.0490967798386919
 10
21.0
 20
43.0
 10
21.0
 20
73.0
 10
21.0
 20
73.0
 10
21.1921471959676957
 20
74.9509032201613081
 10
21.7612046748871322
 20
76.8268343236508713
 10
22.6853038769745439
 20
78.5557023301960271
 10
23.9289321881345245
 20
80.0710678118654755
 10
25.44429766980398
 20
81.3146961230254419
 10
27.1731656763490967
 20
82.2387953251128465
 10
29.0490967798387132
 20
82.8078528040322794
 10
30.9999999999999964
 20
83.0
 97
0
 75
0
 76
1
 47
0.0
 98
0
  0
LWPOLYLINE
  5
30
330
F
100
AcDbEntity
  8
0
  6
ByLayer
420
6717162
 48
1.0
 60
0
370
-1
100
AcDbPolyline
 90
41
 70
1
 43
0.0
 38
0.0
 39
0.0
210
0.0
220
0.0
230
1.0
 10
31.0
 20
83.0
 40
0.0
 41
0.0
 42
0.0
 10
161.0
 20
83.0
 40
0.0
 41
0.0
 42
0.0
 10
161.0
 20
83.0
 40
0.0
 41
0.0
 42
0.0
 10
162.9509032201612797
 20
82.8078528040322794
 40
0.0
 41
0.0
 42
0.0
 10
164.8268343236508997
 20
82.2387953251128465
 40
0.0
 41
0.0
 42
0.0
 10
166.5557023301960271
 20
81.3146961230254419
 40
0.0
 41
0.0
 42
0.0
 10
168.0710678118654755
 20
80.0710678118654755
 40
0.0
 41
0.0
 42
0.0
 10
169.3146961230254419
 20
78.5557023301960271
 40
0.0
 41
0.0
 42
0.0
 10
170.2387953251128749
 20
76.8268343236508713
 40
0.0
 41
0.0
 42
0.0
 10
170.8078528040323079
 20
74.9509032201613081
 40
0.0
 41
0.0
 42
0.0
 10
171.0
 20
73.0
 40
0.0
 41
0.0
 42
0.0
 10
171.0
 20
43.0
 40
0.0
 41
0.0
 42
0.0
 10
171.0
 20
43.0
 40
0.0
 41
0.0
 42
0.0
 10
170.8078528040323079
 20
41.0490967798386919
 40
0.0
 41
0.0
 42
0.0
 10
170.2387953251128749
 20
39.1731656763491287
 40
0.0
 41
0.0
 42
0.0
 10
169.3146961230254419
 20
37.4442976698039729
 40
0.0
 41
0.0
 42
0.0
 10
168.0710678118654755
 20
35.9289321881345245
 40
0.0
 41
0.0
 42
0.0
 10
166.5557023301960271
 20
34.6853038769745581
 40
0.0
 41
0.0
 42
0.0
 10
164.8268343236508997
 20
33.7612046748871535
 40
0.0
 41
0.0
 42
0.0
 10
162.9509032201612797
 20
33.1921471959677206
 40
0.0
 41
0.0
 42
0.0
 10
161.0
 20
33.0
 40
0.0
 41
0.0
 42
0.0
 10
31.0
 20
33.0
 40
0.0
 41
0.0
 42
0.0
 10
31.0
 20
33.0
 40
0.0
 41
0.0
 42
0.0
 10
29.0490967798387167
 20
33.1921471959677206
 40
0.0
 41
0.0
 42
0.0
 10
27.1731656763491038
 20
33.7612046748871535
 40
0.0
 41
0.0
 42
0.0
 10
25.44429766980398
 20
34.6853038769745581
 40
0.0
 41
0.0
 42
0.0
 10
23.9289321881345245
 20
35.9289321881345245
 40
0.0
 41
0.0
 42
0.0
 10
22.6853038769745474
 20
37.4442976698039729
 40
0.0
 41
0.0
 42
0.0
 10
21.7612046748871322
 20
39.1731656763491287
 40
0.0
 41
0.0
 42
0.0
 10
21.1921471959676957
 20
41.0490967798386919
 40
0.0
 41
0.0
 42
0.0
 10
21.0
 20
43.0
 40
0.0
 41
0.0
 42
0.0
 10
21.0
 20
73.0
 40
0.0
 41
0.0
 42
0.0
 10
21.0
 20
73.0
 40
0.0
 41
0.0
 42
0.0
 10
21.1921471959676957
 20
74.9509032201613081
 40
0.0
 41
0.0
 42
0.0
 10
21.7612046748871322
 20
76.8268343236508713
 40
0.0
 41
0.0
 42
0.0
 10
22.6853038769745439
 20
78.5557023301960271
 40
0.0
 41
0.0
 42
0.0
 10
23.9289321881345245
 20
80.0710678118654755
 40
0.0
 41
0.0
 42
0.0
 10
25.44429766980398
 20
81.3146961230254419
 40
0.0
 41
0.0
 42
0.0
 10
27.1731656763490967
 20
82.2387953251128465
 40
0.0
 41
0.0
 42
0.0
 10
29.0490967798387132
 20
82.8078528040322794
 40
0.0
 41
0.0
 42
0.0
 10
30.9999999999999964
 20
83.0
 40
0.0
 41
0.0
 42
0.0
  0
HATCH
  5
31
330
F
100
AcDbEntity
  8
0
  6
ByLayer
420
16739179
 48
1.0
 60
0
370
-1
100
AcDbHatch
 30
0.0
210
0.0
220
0.0
230
1.0
  2
SOLID
 70
1
 71
0
 91
1
 92
2
 72
0
 73
1
 93
32
 10
311.0
 20
58.0
 10
310.4235584120968952
 20
52.1472903395161325
 10
308.7163859753385964
 20
46.5194970290473293
 10
305.9440883690763826
 20
41.3328930094119187
 10
302.2132034355964265
 20
36.7867965644036303
 10
297.6671069905880813
 20
33.0559116309236742
 10
292.4805029709526707
 20
30.2836140246613468
 10
286.8527096604838675
 20
28.5764415879031048
 10
281.0
 20
28.0
 10
275.1472903395161325
 20
28.5764415879031048
 10
269.5194970290473293
 20
30.2836140246613468
 10
264.3328930094119187
 20
33.0559116309236742
 10
259.7867965644035735
 20
36.7867965644036303
 10
256.0559116309236742
 20
41.3328930094119187
 10
253.2836140246614036
 20
46.5194970290473293
 10
251.5764415879031048
 20
52.1472903395161325
 10
251.0
 20
58.0
 10
251.5764415879031048
 20
63.8527096604838675
 10
253.2836140246614036
 20
69.4805029709526707
 10
256.0559116309236742
 20
74.6671069905880813
 10
259.7867965644035735
 20
79.2132034355964265
 10
264.3328930094119187
 20
82.9440883690763826
 10
269.5194970290472725
 20
85.7163859753385964
 10
275.1472903395161325
 20
87.4235584120968952
 10
281.0
 20
88.0
 10
286.8527096604838675
 20
87.4235584120968952
 10
292.4805029709527275
 20
85.7163859753385964
 10
297.6671069905880813
 20
82.9440883690763826
 10
302.2132034355964265
 20
79.2132034355964265
 10
305.9440883690763826
 20
74.6671069905880813
 10
308.7163859753385964
 20
69.4805029709527275
 10
310.4235584120968952
 20
63.8527096604838675
 97
0
 75
0
 76
1
 47
0.0
 98
0
  0
LWPOLYLINE
  5
32
330
F
100
AcDbEntity
  8
0
  6
ByLayer
420
16739179
 48
1.0
 60
0
370
-1
100
AcDbPolyline
 90
32
 70
1
 43
0.0
 38
0.0
 39
0.0
210
0.0
220
0.0
230
1.0
 10
311.0
 20
58.0
 40
0.0
 41
0.0
 42
0.0
 10
310.4235584120968952
 20
52.1472903395161325
 40
0.0
 41
0.0
 42
0.0
 10
308.7163859753385964
 20
46.5194970290473293
 40
0.0
 41
0.0
 42
0.0
 10
305.9440883690763826
 20
41.3328930094119187
 40
0.0
 41
0.0
 42
0.0
 10
302.2132034355964265
 20
36.7867965644036303
 40
0.0
 41
0.0
 42
0.0
 10
297.6671069905880813
 20
33.0559116309236742
 40
0.0
 41
0.0
 42
0.0
 10
292.4805029709526707
 20
30.2836140246613468
 40
0.0
 41
0.0
 42
0.0
 10
286.8527096604838675
 20
28.5764415879031048
 40
0.0
 41
0.0
 42
0.0
 10
281.0
 20
28.0
 40
0.0
 41
0.0
 42
0.0
 10
275.1472903395161325
 20
28.5764415879031048
 40
0.0
 41
0.0
 42
0.0
 10
269.5194970290473293
 20
30.2836140246613468
 40
0.0
 41
0.0
 42
0.0
 10
264.3328930094119187
 20
33.0559116309236742
 40
0.0
 41
0.0
 42
0.0
 10
259.7867965644035735
 20
36.7867965644036303
 40
0.0
 41
0.0
 42
0.0
 10
256.0559116309236742
 20
41.3328930094119187
 40
0.0
 41
0.0
 42
0.0
 10
253.2836140246614036
 20
46.5194970290473293
 40
0.0
 41
0.0
 42
0.0
 10
251.5764415879031048
 20
52.1472903395161325
 40
0.0
 41
0.0
 42
0.0
 10
251.0
 20
58.0
 40
0.0
 41
0.0
 42
0.0
 10
251.5764415879031048
 20
63.8527096604838675
 40
0.0
 41
0.0
 42
0.0
 10
253.2836140246614036
 20
69.4805029709526707
 40
0.0
 41
0.0
 42
0.0
 10
256.0559116309236742
 20
74.6671069905880813
 40
0.0
 41
0.0
 42
0.0
 10
259.7867965644035735
 20
79.2132034355964265
 40
0.0
 41
0.0
 42
0.0
 10
264.3328930094119187
 20
82.9440883690763826
 40
0.0
 41
0.0
 42
0.0
 10
269.5194970290472725
 20
85.7163859753385964
 40
0.0
 41
0.0
 42
0.0
 10
275.1472903395161325
 20
87.4235584120968952
 40
0.0
 41
0.0
 42
0.0
 10
281.0
 20
88.0
 40
0.0
 41
0.0
 42
0.0
 10
286.8527096604838675
 20
87.4235584120968952
 40
0.0
 41
0.0
 42
0.0
 10
292.4805029709527275
 20
85.7163859753385964
 40
0.0
 41
0.0
 42
0.0
 10
297.6671069905880813
 20
82.9440883690763826
 40
0.0
 41
0.0
 42
0.0
 10
302.2132034355964265
 20
79.2132034355964265
 40
0.0
 41
0.0
 42
0.0
 10
305.9440883690763826
 20
74.6671069905880813
 40
0.0
 41
0.0
 42
0.0
 10
308.7163859753385964
 20
69.4805029709527275
 40
0.0
 41
0.0
 42
0.0
 10
310.4235584120968952
 20
63.8527096604838675
 40
0.0
 41
0.0
 42
0.0
  0
LWPOLYLINE
  5
33
330
F
100
AcDbEntity
  8
0
  6
ByLayer
420
1402304
 48
1.0
 60
0
370
-1
100
AcDbPolyline
 90
4
 70
1
 43
0.0
 38
0.0
 39
0.0
210
0.0
220
0.0
230
1.0
 10
351.0
 20
203.0
 40
0.0
 41
0.0
 42
0.0
 10
451.0
 20
203.0
 40
0.0
 41
0.0
 42
0.0
 10
451.0
 20
123.0
 40
0.0
 41
0.0
 42
0.0
 10
351.0
 20
123.0
 40
0.0
 41
0.0
 42
0.0
  0
LWPOLYLINE
  5
34
330
F
100
AcDbEntity
  8
0
  6
ByLayer
420
12986408
 48
1.0
 60
0
370
-1
100
AcDbPolyline
 90
4
 70
1
 43
0.0
 38
0.0
 39
0.0
210
0.0
220
0.0
230
1.0
 10
381.0
 20
183.0
 40
0.0
 41
0.0
 42
0.0
 10
481.0
 20
183.0
 40
0.0
 41
0.0
 42
0.0
 10
481.0
 20
103.0
 40
0.0
 41
0.0
 42
0.0
 10
381.0
 20
103.0
 40
0.0
 41
0.0
 42
0.0
  0
LWPOLYLINE
  5
35
330
F
100
AcDbEntity
  8
0
  6
ByLayer
420
7951688
 48
1.0
 60
0
370
-1
100
AcDbPolyline
 90
4
 70
1
 43
0.0
 38
0.0
 39
0.0
210
0.0
220
0.0
230
1.0
 10
351.0
 20
83.0
 40
0.0
 41
0.0
 42
0.0
 10
471.0
 20
83.0
 40
0.0
 41
0.0
 42
0.0
 10
471.0
 20
33.0
 40
0.0
 41
0.0
 42
0.0
 10
351.0
 20
33.0
 40
0.0
 41
0.0
 42
0.0
  0
ENDSEC
  0
SECTION
  2
OBJECTS
  0
DICTIONARY
  5
1
330
0
100
AcDbDictionary
280
0
281
0
  3
ACAD_COLOR
350
0
  3
ACAD_GROUP
350
0
  3
ACAD_LAYOUT
350
0
  3
ACAD_MATERIAL
350
0
  3
ACAD_SORTENTS
350
0
  3
ACAD_MLEADERSTYLE
350
0
  3
ACAD_MLINESTYLE
350
0
  3
ACAD_TABLESTYLE
350
0
  3
ACAD_PLOTSETTINGS
350
0
  3
AcDbVariableDictionary
350
0
  3
ACAD_SCALELIST
350
0
  3
ACAD_VISUALSTYLE
350
0
  3
ACAD_FIELDLIST
350
0
  3
ACAD_IMAGE_DICT
350
0
  0
DICTIONARY
  5
0
330
1
100
AcDbDictionary
280
0
281
0
  0
DICTIONARY
  5
0
330
1
100
AcDbDictionary
280
0
281
0
  0
DICTIONARY
  5
0
330
1
100
AcDbDictionary
280
0
281
0
  0
DICTIONARY
  5
0
330
1
100
AcDbDictionary
280
0
281
0
  0
DICTIONARY
  5
0
330
1
100
AcDbDictionary
280
0
281
0
  0
DICTIONARY
  5
0
330
1
100
AcDbDictionary
280
0
281
0
  0
DICTIONARY
  5
0
330
1
100
AcDbDictionary
280
0
281
0
  0
DICTIONARY
  5
0
330
1
100
AcDbDictionary
280
0
281
0
  0
DICTIONARY
  5
0
330
1
100
AcDbDictionary
280
0
281
0
  0
DICTIONARY
  5
0
330
1
100
AcDbDictionary
280
0
281
0
  0
DICTIONARY
  5
0
330
1
100
AcDbDictionary
280
0
281
0
  0
DICTIONARY
  5
0
330
1
100
AcDbDictionary
280
0
281
0
  0
DICTIONARY
  5
0
330
1
100
AcDbDictionary
280
0
281
0
  0
DICTIONARY
  5
0
330
1
100
AcDbDictionary
280
0
281
0
  0
ENDSEC
  0
EOF
