0
SECTION
2
HEADER
9
$ACADVER
1
AC1021
9
$LASTSAVEDBY
1
@tarikjabiri/dxf
9
$HANDSEED
5
1B
9
$INSUNITS
70
0
9
$CLAYER
8
0
9
$VIEWCTR
10
236.50347900390625
20
569.2382593154907
0
ENDSEC
0
SECTION
2
CLASSES
0
ENDSEC
0
SECTION
2
TABLES
0
TABLE
2
VPORT
5
1
330
0
100
AcDbSymbolTable
70
1
0
VPORT
5
19
330
1
100
AcDbSymbolTableRecord
100
AcDbViewportTableRecord
2
*Active
70
0
10
0
20
0
11
1
21
1
12
236.50347900390625
22
569.2382593154907
13
0
23
0
14
10
24
10
15
10
25
10
16
0
26
0
36
1
17
0
27
0
37
0
40
108.47651863098145
41
2
42
50
43
0
44
0
50
0
51
0
71
0
72
100
73
1
74
3
75
0
76
1
77
0
78
0
281
0
65
1
110
0
120
0
130
0
111
1
121
0
131
0
112
0
122
1
132
0
79
0
146
0
348
10020
60
7
61
5
292
1
282
1
141
0
142
0
63
250
421
3358443
0
ENDTAB
0
TABLE
2
LTYPE
5
2
330
0
100
AcDbSymbolTable
70
3
0
LTYPE
5
12
330
2
100
AcDbSymbolTableRecord
100
AcDbLinetypeTableRecord
2
ByBlock
70
0
3

72
65
73
0
40
0
0
LTYPE
5
13
330
2
100
AcDbSymbolTableRecord
100
AcDbLinetypeTableRecord
2
ByLayer
70
0
3

72
65
73
0
40
0
0
LTYPE
5
14
330
2
100
AcDbSymbolTableRecord
100
AcDbLinetypeTableRecord
2
Continuous
70
0
3
Solid line
72
65
73
0
40
0
0
ENDTAB
0
TABLE
2
LAYER
5
3
330
0
100
AcDbSymbolTable
70
1
0
LAYER
5
15
330
3
100
AcDbSymbolTableRecord
100
AcDbLayerTableRecord
2
0
70
0
62
7
6
Continuous
370
0
390
0
0
ENDTAB
0
TABLE
2
STYLE
5
4
330
0
100
AcDbSymbolTable
70
1
0
STYLE
5
16
330
4
100
AcDbSymbolTableRecord
100
AcDbTextStyleTableRecord
2
Standard
70
0
40
0
41
1
50
0
71
0
42
1
3
txt
4

0
ENDTAB
0
TABLE
2
VIEW
5
5
330
0
100
AcDbSymbolTable
70
0
0
ENDTAB
0
TABLE
2
UCS
5
6
330
0
100
AcDbSymbolTable
70
0
0
ENDTAB
0
TABLE
2
APPID
5
7
330
0
100
AcDbSymbolTable
70
1
0
APPID
5
17
330
7
100
AcDbSymbolTableRecord
100
AcDbRegAppTableRecord
2
ACAD
70
0
0
ENDTAB
0
TABLE
2
DIMSTYLE
5
8
330
0
100
AcDbSymbolTable
70
1
100
AcDbDimStyleTable
0
DIMSTYLE
105
18
330
8
100
AcDbSymbolTableRecord
100
AcDbDimStyleTableRecord
2
Standard
70
0
340
16
0
ENDTAB
0
TABLE
2
BLOCK_RECORD
5
9
330
0
100
AcDbSymbolTable
70
2
0
BLOCK_RECORD
5
C
330
9
100
AcDbSymbolTableRecord
100
AcDbBlockTableRecord
2
*Model_Space
70
0
280
1
281
0
0
BLOCK_RECORD
5
F
330
9
100
AcDbSymbolTableRecord
100
AcDbBlockTableRecord
2
*Paper_Space
70
0
280
1
281
0
0
ENDTAB
0
ENDSEC
0
SECTION
2
BLOCKS
0
BLOCK
5
D
330
C
100
AcDbEntity
8
0
100
AcDbBlockBegin
2
*Model_Space
70
0
10
0
20
0
30
0
3
*Model_Space
1

0
ENDBLK
5
E
100
AcDbEntity
8
0
100
AcDbBlockEnd
0
BLOCK
5
10
330
F
100
AcDbEntity
8
0
100
AcDbBlockBegin
2
*Paper_Space
70
0
10
0
20
0
30
0
3
*Paper_Space
1

0
ENDBLK
5
11
100
AcDbEntity
8
0
100
AcDbBlockEnd
0
ENDSEC
0
SECTION
2
ENTITIES
0
LWPOLYLINE
5
1A
330
C
100
AcDbEntity
420
16711680
8
0
100
AcDbPolyline
90
412
70
0
43
0
38
0
39
0
10
103
20
623
10
104.99992752075195
20
623
10
106.9998550415039
20
623
10
108.99978256225586
20
623
10
110.99971008300781
20
623
10
112.99963760375977
20
623
10
114.99956512451172
20
623
10
116.99949264526367
20
623
10
118.99942016601562
20
623
10
120.99934959411621
20
623
10
122.99927711486816
20
623
10
124.99920463562012
20
623
10
126.99913024902344
20
623
10
128.99906158447266
20
623
10
130.99898529052734
20
623
10
132.99891662597656
20
623
10
134.99884033203125
20
623
10
136.99877166748047
20
623
10
138.99869918823242
20
623
10
140.99862670898438
20
623
10
142.99855422973633
20
623
10
144.99848175048828
20
623
10
146.99840927124023
20
623
10
148.9983367919922
20
623
10
150.99826431274414
20
623
10
152.9981918334961
20
623
10
154.99811935424805
20
623
10
156.998046875
20
623
10
158.9979705810547
20
623
10
160.9979019165039
20
623
10
162.99783325195312
20
623
10
164.9977569580078
20
623
10
166.9976806640625
20
623
10
168.99761199951172
20
623
10
170.99754333496094
20
623
10
172.99746704101562
20
623
10
174.99739837646484
20
623
10
176.99732208251953
20
623
10
178.99725341796875
20
623
10
180.99717712402344
20
623
10
182.99710845947266
20
623
10
184.99703216552734
20
623
10
186.99696350097656
20
623
10
188.99688720703125
20
623
10
190.99681854248047
20
623
10
192.99674224853516
20
623
10
194.99667358398438
20
623
10
196.99659729003906
20
623
10
198.99652862548828
20
623
10
200.9964599609375
20
623
10
202.9963836669922
20
623
10
204.9963150024414
20
623
10
206.9962387084961
20
623
10
208.9961700439453
20
623
10
210.99609375
20
623
10
212.99602508544922
20
623
10
214.9959487915039
20
623
10
216.99588012695312
20
623
10
218.9958038330078
20
623
10
220.99573516845703
20
623
10
222.99566650390625
20
623
10
224.99559020996094
20
623
10
226.99551391601562
20
623
10
228.99545288085938
20
623
10
230.995361328125
20
623
10
232.99530029296875
20
623
10
234.99522399902344
20
623
10
236.99514770507812
20
623
10
238.99508666992188
20
623
10
240.99501037597656
20
623
10
242.99493408203125
20
623
10
244.99485778808594
20
623
10
246.9947967529297
20
623
10
248.99472045898438
20
623
10
250.99464416503906
20
623
10
252.9945831298828
20
623
10
254.9945068359375
20
623
10
256.9944305419922
20
623
10
258.9943542480469
20
623
10
260.9942932128906
20
623
10
262.9942169189453
20
623
10
264.994140625
20
623
10
266.9940643310547
20
623
10
268.99400329589844
20
623
10
270.9939270019531
20
623
10
272.9938507080078
20
623
10
274.9937744140625
20
623
10
276.99371337890625
20
623
10
278.99363708496094
20
623
10
280.9935607910156
20
623
10
282.9934844970703
20
623
10
284.99342346191406
20
623
10
286.99334716796875
20
623
10
288.99327087402344
20
623
10
290.9931945800781
20
623
10
292.9931335449219
20
623
10
294.99305725097656
20
623
10
296.99298095703125
20
623
10
298.992919921875
20
623
10
300.9928436279297
20
623
10
302.9927673339844
20
623
10
304.99269104003906
20
623
10
306.9926300048828
20
623
10
308.9925537109375
20
623
10
310.9924774169922
20
623
10
312.9924011230469
20
623
10
314.9923400878906
20
623
10
316.9922637939453
20
623
10
318.9921875
20
623
10
320.9921112060547
20
623
10
322.99205017089844
20
623
10
324.9919738769531
20
623
10
326.9918975830078
20
623
10
328.9918212890625
20
623
10
330.99176025390625
20
623
10
332.99168395996094
20
623
10
334.9916076660156
20
623
10
336.9915313720703
20
623
10
338.99147033691406
20
623
10
340.99139404296875
20
623
10
342.99131774902344
20
623
10
344.9912567138672
20
623
10
346.9911804199219
20
623
10
348.99110412597656
20
623
10
350.99102783203125
20
623
10
352.990966796875
20
623
10
354.9504089355469
20
623.3896741867065
10
356.9464416503906
20
623.4765186309814
10
358.9319152832031
20
623.2537546157837
10
360.8594055175781
20
622.7278738021851
10
362.6837158203125
20
621.9131755828857
10
364.3623352050781
20
620.829586982727
10
365.8554992675781
20
619.5021200180054
10
367.126708984375
20
617.960765838623
10
368.14447021484375
20
616.241533279419
10
368.8854675292969
20
614.3860530853271
10
369.3362731933594
20
612.4395790100098
10
369.48388671875
20
610.447135925293
10
369.3218994140625
20
608.4557800292969
10
368.854736328125
20
606.5132293701172
10
368.0955505371094
20
604.665132522583
10
367.06298828125
20
602.9546432495117
10
365.7814025878906
20
601.4219188690186
10
364.2794189453125
20
600.1043853759766
10
362.59210205078125
20
599.0345115661621
10
360.7598876953125
20
598.2377967834473
10
358.7964172363281
20
598
10
356.7964782714844
20
598
10
354.79656982421875
20
598
10
352.796630859375
20
598
10
350.79669189453125
20
598
10
348.7967834472656
20
598
10
346.7968292236328
20
598
10
344.7969207763672
20
598
10
342.79698181152344
20
598
10
340.7970428466797
20
598
10
338.79713439941406
20
598
10
336.7971954345703
20
598
10
334.7972717285156
20
598
10
332.7973937988281
20
598
10
330.79747009277344
20
598
10
328.7975616455078
20
598
10
326.79762268066406
20
598
10
324.79766845703125
20
598
10
322.7977600097656
20
598
10
320.7978210449219
20
598
10
318.7978820800781
20
598
10
316.79798889160156
20
598
10
314.7980499267578
20
598
10
312.79815673828125
20
598
10
310.7982177734375
20
598
10
308.7990417480469
20
597.988826751709
10
306.8309631347656
20
597.6529312133789
10
304.9695587158203
20
596.9307594299316
10
303.2887268066406
20
595.853084564209
10
301.853759765625
20
594.4647789001465
10
300.72161865234375
20
592.8201789855957
10
299.93968200683594
20
590.9830894470215
10
299.5401153564453
20
589.0268859863281
10
299.53334045410156
20
587.0302124023438
10
299.9224395751953
20
585.0719604492188
10
300.6947326660156
20
583.2307891845703
10
301.817138671875
20
581.5795059204102
10
303.2433776855469
20
580.1822471618652
10
304.9178771972656
20
579.094841003418
10
306.7754821777344
20
578.363037109375
10
308.7417297363281
20
578.016242980957
10
310.74114990234375
20
578
10
312.7410583496094
20
578
10
314.74098205566406
20
578
10
316.740966796875
20
578
10
318.7409210205078
20
578
10
320.74082946777344
20
578
10
322.7407684326172
20
578
10
324.74066162109375
20
578
10
326.7405548095703
20
578
10
328.74049377441406
20
578
10
330.7404022216797
20
578
10
332.7403259277344
20
578
10
334.7402801513672
20
578
10
336.7401885986328
20
578
10
338.7401428222656
20
578
10
340.7400817871094
20
578
10
342.74005126953125
20
578
10
344.739990234375
20
578
10
346.73988342285156
20
578
10
348.7397766113281
20
578
10
350.73968505859375
20
578
10
352.7395935058594
20
578
10
354.739501953125
20
578
10
356.7394104003906
20
578
10
358.7393493652344
20
578
10
360.7369689941406
20
578.0243873596191
10
362.7039489746094
20
577.681999206543
10
364.56365966796875
20
576.9553070068359
10
366.2430725097656
20
575.8754844665527
10
367.6773986816406
20
574.4864883422852
10
368.8094787597656
20
572.8418197631836
10
369.59210205078125
20
571.0050582885742
10
369.9948425292969
20
569.0494384765625
10
370.0069580078125
20
567.0528106689453
10
369.6231384277344
20
565.0934982299805
10
368.8573303222656
20
563.2495727539062
10
367.7426452636719
20
561.5930252075195
10
366.32403564453125
20
560.1880035400391
10
364.65594482421875
20
559.0907669067383
10
362.8030700683594
20
558.3471145629883
10
360.8387451171875
20
558
10
358.83880615234375
20
558
10
356.8388977050781
20
558
10
354.8389587402344
20
558
10
352.8390197753906
20
558
10
350.839111328125
20
558
10
348.8391418457031
20
558
10
346.83924865722656
20
558
10
344.8392791748047
20
558
10
342.8393096923828
20
558
10
340.83941650390625
20
558
10
338.8395233154297
20
558
10
336.83958435058594
20
558
10
334.8396759033203
20
558
10
332.8397521972656
20
558
10
330.83982849121094
20
558
10
328.8399200439453
20
558
10
326.8400115966797
20
558
10
324.8401184082031
20
558
10
322.8402099609375
20
558
10
320.84027099609375
20
558
10
318.8403625488281
20
558
10
316.8404541015625
20
558
10
314.8404846191406
20
558
10
312.8406066894531
20
558
10
310.84326171875
20
558.0285873413086
10
308.8527526855469
20
558.1897888183594
10
306.86720275878906
20
557.976692199707
10
304.9565887451172
20
557.3957214355469
10
303.1870574951172
20
556.4699172973633
10
301.6194610595703
20
555.2326126098633
10
300.3086395263672
20
553.7261276245117
10
299.3024597167969
20
552.0010757446289
10
298.6365509033203
20
550.1183547973633
10
298.32960510253906
20
548.1449508666992
10
298.3941192626953
20
546.1490173339844
10
298.83111572265625
20
544.2006072998047
10
299.62379455566406
20
542.3676452636719
10
300.74205017089844
20
540.7131195068359
10
302.14747619628906
20
539.2943801879883
10
303.79246520996094
20
538.1622695922852
10
305.62042236328125
20
537.3583602905273
10
307.5735168457031
20
537
10
309.5734405517578
20
537
10
311.57334899902344
20
537
10
313.57334899902344
20
537
10
315.5732421875
20
537
10
317.57310485839844
20
537
10
319.5730438232422
20
537
10
321.572998046875
20
537
10
323.57289123535156
20
537
10
325.5728454589844
20
537
10
327.57269287109375
20
537
10
329.5726013183594
20
537
10
331.5725402832031
20
537
10
333.57249450683594
20
537
10
335.5724334716797
20
537
10
337.5723114013672
20
537
10
339.572265625
20
537
10
341.57225036621094
20
537
10
343.57220458984375
20
537
10
345.5721130371094
20
537
10
347.57203674316406
20
537
10
349.5718994140625
20
537
10
351.5718688964844
20
537
10
353.57177734375
20
537
10
355.57171630859375
20
537
10
357.5714416503906
20
536.9853973388672
10
359.54852294921875
20
536.7031784057617
10
361.4414367675781
20
536.0663986206055
10
363.18719482421875
20
535.0962829589844
10
364.7290954589844
20
533.8268814086914
10
366.0176086425781
20
532.3009033203125
10
367.00970458984375
20
530.5675582885742
10
367.6704406738281
20
528.6828918457031
10
367.97747802734375
20
526.7093353271484
10
367.9253845214844
20
524.7127304077148
10
367.5145263671875
20
522.7582626342773
10
366.7546081542969
20
520.9113082885742
10
365.6725158691406
20
519.2327117919922
10
364.3057556152344
20
517.7764205932617
10
362.6991882324219
20
516.5896530151367
10
360.9046630859375
20
515.7132186889648
10
358.9805908203125
20
515.1779251098633
10
356.9913635253906
20
515
10
354.9914245605469
20
515
10
352.99151611328125
20
515
10
350.99163818359375
20
515
10
348.99169921875
20
515
10
346.99176025390625
20
515
10
344.99188232421875
20
515
10
342.99195861816406
20
515
10
340.9919891357422
20
515
10
338.9920349121094
20
515
10
336.99212646484375
20
515
10
334.99224853515625
20
515
10
332.9923400878906
20
515
10
330.99237060546875
20
515
10
328.992431640625
20
515
10
326.99253845214844
20
515
10
324.9926300048828
20
515
10
322.9927673339844
20
515
10
320.99285888671875
20
515
10
318.9928894042969
20
515
10
316.992919921875
20
515
10
314.9929962158203
20
515
10
312.99310302734375
20
515
10
310.99314880371094
20
515
10
308.9932098388672
20
515
10
306.99327087402344
20
515
10
304.9933166503906
20
515
10
302.99346923828125
20
515
10
300.99351501464844
20
515
10
298.99359130859375
20
515
10
296.9936828613281
20
515
10
294.9937286376953
20
515
10
292.9936828613281
20
515
10
290.9938049316406
20
515
10
288.99383544921875
20
515
10
286.9939270019531
20
515
10
284.9939880371094
20
515
10
282.99407958984375
20
515
10
280.9942932128906
20
515
10
278.9944152832031
20
515
10
276.9945068359375
20
515
10
274.99462890625
20
515
10
272.9946594238281
20
515
10
270.9947814941406
20
515
10
268.99493408203125
20
515
10
266.9949951171875
20
515
10
264.99505615234375
20
515
10
262.9950866699219
20
515
10
260.99513244628906
20
515
10
258.99530029296875
20
515
10
256.995361328125
20
515
10
254.99542236328125
20
515
10
252.99546813964844
20
515
10
250.99551391601562
20
515
10
248.99557495117188
20
515
10
246.99569702148438
20
515
10
244.99575805664062
20
515
10
242.99583435058594
20
515
10
240.99591064453125
20
515
10
238.99594116210938
20
515
10
236.99606323242188
20
515
10
234.99615478515625
20
515
10
232.99618530273438
20
515
10
230.99620056152344
20
515
10
228.99627685546875
20
515
10
226.99639892578125
20
515
10
224.9964599609375
20
515
10
222.99652099609375
20
515
10
220.99658203125
20
515
10
218.99664306640625
20
515
10
216.99676513671875
20
515
10
214.99691772460938
20
515
10
212.9969940185547
20
515
10
210.9970703125
20
515
10
208.99708557128906
20
515
10
206.9970245361328
20
515
10
204.9970245361328
20
515
10
202.99710083007812
20
515
10
200.9972686767578
20
515
10
198.997314453125
20
515
10
196.9971466064453
20
515
10
194.9970703125
20
515
10
192.9969940185547
20
515
10
190.9969940185547
20
515
10
188.9971160888672
20
515
10
186.99710083007812
20
515
10
184.99697875976562
20
515
10
182.99713134765625
20
515
10
180.9970703125
20
515
10
178.99703979492188
20
515
10
176.99691772460938
20
515
10
174.99700927734375
20
515
10
172.99713134765625
20
515
10
170.9971923828125
20
515
10
168.99725341796875
20
515
10
166.997314453125
20
515
10
164.99737548828125
20
515
10
162.9974365234375
20
515
10
160.99755859375
20
515
10
158.99761962890625
20
515
10
157
20
515
0
ENDSEC
0
SECTION
2
OBJECTS
0
DICTIONARY
5
A
330
0
100
AcDbDictionary
281
1
3
ACAD_GROUP
350
B
0
DICTIONARY
5
B
330
A
100
AcDbDictionary
281
0
0
ENDSEC
0
EOF