<?xml version="1.0" encoding="UTF-8"?>
<svg xmlns="http://www.w3.org/2000/svg" xmlns:xlink="http://www.w3.org/1999/xlink" width="1280" height="720" viewBox="0 0 1280 720">
<defs>
<clipPath id="clip1" clipPathUnits="userSpaceOnUse"><rect x="0" y="0" width="1280" height="720"/></clipPath>
<clipPath id="clip2" clipPathUnits="userSpaceOnUse"><rect x="412.99" y="118" width="152.69" height="14"/></clipPath>
</defs>
<g clip-path="url(#clip1)"><g><rect x="62" y="59" width="200" height="53" rx="0" ry="0" fill="rgb(233, 233, 237)"/><rect x="62" y="59" width="200" height="53" rx="0" ry="0" fill="none" stroke="rgb(143, 143, 157)" stroke-width="2"/></g></g>
<g clip-path="url(#clip1)"><text x="142.58" y="78.83" fill="rgb(0, 0, 0)" dominant-baseline="text-before-edge" font-size="13.33px" font-family="MS Shell Dlg \32">Button</text></g>
<g clip-path="url(#clip1)"><g><rect x="62" y="112" width="200" height="88" rx="2" ry="2" fill="rgb(255, 255, 255)"/><rect x="62" y="112" width="200" height="88" rx="2" ry="2" fill="none" stroke="rgb(143, 143, 157)" stroke-width="2"/></g></g>
<path d="M246.33,154.39 L250,157.61 L253.67,154.39" fill="none" stroke="rgb(80, 80, 80)" stroke-width="1.47"/>
<g clip-path="url(#clip1)"><g><rect x="62" y="201" width="194" height="175" rx="2" ry="2" fill="rgb(255, 255, 255)"/><rect x="62" y="201" width="194" height="175" rx="2" ry="2" fill="none" stroke="rgb(143, 143, 157)" stroke-width="2"/></g></g>
<g clip-path="url(#clip1)"><g><rect x="118" y="425" width="59" height="59" rx="2" ry="2" fill="rgb(255, 255, 255)"/><rect x="118" y="425" width="59" height="59" rx="2" ry="2" fill="none" stroke="rgb(118, 118, 118)" stroke-width="1.5"/></g></g>
<g clip-path="url(#clip1)"><g><rect x="62" y="381" width="211" height="21" rx="2" ry="2" fill="rgb(255, 255, 255)"/><rect x="62" y="381" width="211" height="21" rx="2" ry="2" fill="none" stroke="rgb(143, 143, 157)" stroke-width="2"/></g></g>
<g clip-path="url(#clip1)"><g><rect x="407" y="114" width="164.67" height="22" rx="2" ry="2" fill="rgb(255, 255, 255)"/><rect x="407" y="114" width="164.67" height="22" rx="2" ry="2" fill="none" stroke="rgb(143, 143, 157)" stroke-width="2"/></g></g>
<g clip-path="url(#clip2)"><text x="412.99" y="118.33" fill="rgb(0, 0, 0)" dominant-baseline="text-before-edge" font-size="13.33px" font-family="MS Shell Dlg \32">mnnmnmnm</text></g>
<g clip-path="url(#clip1)"><g><rect x="407" y="135" width="329" height="229" rx="0" ry="0" fill="rgba(194, 31, 31, 0.52)"/><rect x="407" y="135" width="329" height="229" rx="0" ry="0" fill="none" stroke="rgb(0, 0, 0)" stroke-width="1"/></g></g>
<g clip-path="url(#clip1)"><text x="408" y="137" fill="rgb(0, 0, 0)" dominant-baseline="text-before-edge" font-size="13px" font-family="monospace" xml:space="preserve">    dsfd.  fsdfd</text></g>
<g clip-path="url(#clip1)"><text x="408" y="152" fill="rgb(0, 0, 0)" dominant-baseline="text-before-edge" font-size="13px" font-family="monospace" xml:space="preserve">    dsfdfs.  dfddsf</text></g>
<g clip-path="url(#clip1)"><text x="408" y="167" fill="rgb(0, 0, 0)" dominant-baseline="text-before-edge" font-size="13px" font-family="monospace" xml:space="preserve">    sdf x</text></g>
<g clip-path="url(#clip1)"><text x="408" y="182" fill="rgb(0, 0, 0)" dominant-baseline="text-before-edge" font-size="13px" font-family="monospace" xml:space="preserve">    dsfdfsdfddsfdfssddfs </text></g>
</svg>