  0
SECTION
  2
HEADER
  0
ENDSEC
  0
SECTION
  2
CLASSES
  0
CLASS
  1
ACDBDICTIONARYWDFLT
  2
AcDbDictionaryWithDefault
  3
ObjectDBX Classes
 90
32768
280
0
281
0
  0
CLASS
  1
ACDBPLACEHOLDER
  2
AcDbPlaceHolder
  3
ObjectDBX Classes
 90
0
280
0
281
0
  0
CLASS
  1
LAYOUT
  2
AcDbLayout
  3
ObjectDBX Classes
 90
0
280
0
281
0
  0
CLASS
  1
DICTIONARYVAR
  2
AcDbDictionaryVar
  3
ObjectDBX Classes
 90
0
280
0
281
0
  0
CLASS
  1
TABLESTYLE
  2
AcDbTableStyle
  3
ObjectDBX Classes
 90
4095
280
0
281
0
  0
CLASS
  1
MATERIAL
  2
AcDbMaterial
  3
ObjectDBX Classes
 90
1153
280
0
281
0
  0
CLASS
  1
VISUALSTYLE
  2
AcDbVisualStyle
  3
ObjectDBX Classes
 90
4095
280
0
281
0
  0
CLASS
  1
SCALE
  2
AcDbScale
  3
ObjectDBX Classes
 90
1153
280
0
281
0
  0
CLASS
  1
MLEADERSTYLE
  2
AcDbMLeaderStyle
  3
ObjectDBX Classes
 90
4095
280
0
281
0
  0
CLASS
  1
CELLSTYLEMAP
  2
AcDbCellStyleMap
  3
ObjectDBX Classes
 90
1152
280
0
281
0
  0
CLASS
  1
EXACXREFPANELOBJECT
  2
ExAcXREFPanelObject
  3
ObjectDBX Classes
 90
1025
280
0
281
0
  0
CLASS
  1
NPOCOLLECTION
  2
AcDbImpNonPersistentObjectsCollection
  3
ObjectDBX Classes
 90
1153
280
0
281
0
  0
CLASS
  1
LAYER_INDEX
  2
AcDbLayerIndex
  3
ObjectDBX Classes
 90
0
280
0
281
0
  0
CLASS
  1
SPATIAL_INDEX
  2
AcDbSpatialIndex
  3
ObjectDBX Classes
 90
0
280
0
281
0
  0
CLASS
  1
IDBUFFER
  2
AcDbIdBuffer
  3
ObjectDBX Classes
 90
32768
280
0
281
0
  0
CLASS
  1
ACDBSECTIONVIEWSTYLE
  2
AcDbSectionViewStyle
  3
ObjectDBX Classes
 90
1025
280
0
281
0
  0
CLASS
  1
ACDBDETAILVIEWSTYLE
  2
AcDbDetailViewStyle
  3
ObjectDBX Classes
 90
1025
280
0
281
0
  0
CLASS
  1
MESH
  2
AcDbSubDMesh
  3
ObjectDBX Classes
 90
0
280
0
281
1
  0
CLASS
  1
SORTENTSTABLE
  2
AcDbSortentsTable
  3
ObjectDBX Classes
 90
0
280
0
281
0
  0
CLASS
  1
ACDB_TEXTOBJECTCONTEXTDATA_CLASS
  2
AcDbTextObjectContextData
  3
ObjectDBX Classes
 90
1153
280
0
281
0
  0
CLASS
  1
WIPEOUT
  2
AcDbWipeout
  3
WipeOut
 90
32895
280
0
281
1
  0
CLASS
  1
WIPEOUTVARIABLES
  2
AcDbWipeoutVariables
  3
WipeOut
 90
32768
280
0
281
0
  0
CLASS
  1
DIMASSOC
  2
AcDbDimAssoc
  3
AcDbDimAssoc
 90
0
280
0
281
0
  0
CLASS
  1
ACAD_TABLE
  2
AcDbTable
  3
ObjectDBX Classes
 90
1025
280
0
281
1
  0
CLASS
  1
TABLECONTENT
  2
AcDbTableContent
  3
ObjectDBX Classes
 90
1152
280
0
281
0
  0
CLASS
  1
TABLEGEOMETRY
  2
AcDbTableGeometry
  3
ObjectDBX Classes
 90
1152
280
0
281
0
  0
CLASS
  1
IMAGE
  2
AcDbRasterImage
  3
ISM
 90
32895
280
0
281
1
  0
CLASS
  1
IMAGEDEF
  2
AcDbRasterImageDef
  3
ISM
 90
0
280
0
281
0
  0
CLASS
  1
IMAGEDEF_REACTOR
  2
AcDbRasterImageDefReactor
  3
ISM
 90
1
280
0
281
0
  0
CLASS
  1
DBCOLOR
  2
AcDbColor
  3
ObjectDBX Classes
 90
0
280
0
281
0
  0
CLASS
  1
GEODATA
  2
AcDbGeoData
  3
ObjectDBX Classes
 90
4095
280
0
281
0
  0
CLASS
  1
MULTILEADER
  2
AcDbMLeader
  3
ObjectDBX Classes
 90
1025
280
0
281
0
  0
CLASS
  1
PDFUNDERLAY
  2
AcDbPdfReference
  3
ObjectDBX Classes
 90
4095
280
0
281
1
  0
CLASS
  1
PDFDEFINITION
  2
AcDbPdfDefinition
  3
ObjectDBX Classes
 90
1153
280
0
281
0
  0
CLASS
  1
RASTERVARIABLES
  2
AcDbRasterVariables
  3
ISM
 90
0
280
0
281
0
  0
CLASS
  1
SPATIAL_FILTER
  2
AcDbSpatialFilter
  3
ObjectDBX Classes
 90
0
280
0
281
0
  0
CLASS
  1
ACDB_MLEADEROBJECTCONTEXTDATA_CLASS
  2
AcDbMLeaderObjectContextData
  3
ObjectDBX Classes
 90
1025
280
0
281
0
  0
CLASS
  1
PLOTSETTINGS
  2
AcDbPlotSettings
  3
ObjectDBX Classes
 90
0
280
0
281
0
  0
CLASS
  1
FIELD
  2
AcDbField
  3
ObjectDBX Classes
 90
1152
280
0
281
0
  0
CLASS
  1
FIELDLIST
  2
AcDbFieldList
  3
ObjectDBX Classes
 90
1152
280
0
281
0
  0
CLASS
  1
ACDB_MTEXTATTRIBUTEOBJECTCONTEXTDATA_CLASS
  2
AcDbMTextAttributeObjectContextData
  3
ObjectDBX Classes
 90
1153
280
0
281
0
  0
CLASS
  1
ACDB_BLKREFOBJECTCONTEXTDATA_CLASS
  2
AcDbBlkRefObjectContextData
  3
ObjectDBX Classes
 90
1153
280
0
281
0
  0
ENDSEC
  0
SECTION
  2
TABLES
  0
TABLE
  2
VPORT
  5
A
330
0
100
AcDbSymbolTable
 70
1
  0
VPORT
  5
18
330
A
100
AcDbSymbolTableRecord
100
AcDbViewportTableRecord
  2
*Active
 70
0
 10
0.0
 20
0.0
 11
1.0
 21
1.0
 12
0.0
 22
0.0
 13
0.0
 23
0.0
 14
0.5
 24
0.5
 15
10.0
 25
10.0
 16
0.0
 26
0.0
 36
1.0
 17
0.0
 27
0.0
 37
0.0
 40
10.0
 41
1.0
 75
0
 76
1
  0
ENDTAB
  0
TABLE
  2
LTYPE
  5
6
330
0
100
AcDbSymbolTable
 70
3
  0
LTYPE
  5
B
330
6
100
AcDbSymbolTableRecord
100
AcDbLinetypeTableRecord
  2
ByLayer
 70
0
 72
0
 73
0
 40
0.0
  0
LTYPE
  5
C
330
6
100
AcDbSymbolTableRecord
100
AcDbLinetypeTableRecord
  2
ByBlock
 70
0
 72
0
 73
0
 40
0.0
  0
LTYPE
  5
D
330
6
100
AcDbSymbolTableRecord
100
AcDbLinetypeTableRecord
  2
Continuous
 70
0
 72
0
 73
0
 40
0.0
  0
ENDTAB
  0
TABLE
  2
LAYER
  5
5
330
0
100
AcDbSymbolTable
 70
1
  0
LAYER
  5
E
330
5
100
AcDbSymbolTableRecord
100
AcDbLayerTableRecord
  2
0
 70
0
 62
7
  6
Continuous
290
1
370
-3
390
0
  0
ENDTAB
  0
TABLE
  2
STYLE
  5
7
330
0
100
AcDbSymbolTable
 70
1
  0
STYLE
  5
15
330
7
100
AcDbSymbolTableRecord
100
AcDbTextStyleTableRecord
  2
Standard
 70
0
 40
0.0
 41
1.0
 42
0.0
 50
0.0
 71
0
  0
ENDTAB
  0
TABLE
  2
VIEW
  5
9
330
0
100
AcDbSymbolTable
 70
0
  0
ENDTAB
  0
TABLE
  2
UCS
  5
8
330
0
100
AcDbSymbolTable
 70
0
  0
ENDTAB
  0
TABLE
  2
APPID
  5
2
330
0
100
AcDbSymbolTable
 70
1
  0
APPID
  5
17
330
2
100
AcDbSymbolTableRecord
100
AcDbRegAppTableRecord
  2
ACAD
 70
0
  0
ENDTAB
  0
TABLE
  2
DIMSTYLE
  5
4
330
0
100
AcDbSymbolTable
 70
1
100
AcDbDimStyleTable
  0
DIMSTYLE
105
16
330
4
100
AcDbSymbolTableRecord
100
AcDbDimStyleTableRecord
  2
Standard
 70
0
  3
<>
  4
[]
 40
1.0
 41
0.18
 42
0.625
 43
3.75
 44
1.25
 45
0.0
 46
0.0
 47
0.0
 48
0.0
 49
1.0
 50
0.7853981633974483
 70
0
 90
0
140
0.18
141
0.09
142
0.0
143
25.3999999999999986
144
1.0
145
0.0
146
1.0
147
0.625
148
0.0
 71
0
 72
0
 73
0
 74
0
 75
0
 76
0
 77
1
 78
8
 79
0
170
0
171
3
172
0
173
1
174
0
175
0
176
0
177
0
178
0
179
0
271
2
272
2
273
2
274
3
275
0
276
0
277
2
278
46
279
0
280
0
281
0
282
0
283
0
284
8
285
0
286
0
287
0
288
0
289
3
290
0
340
0
371
-2
372
-2
  0
ENDTAB
  0
TABLE
  2
BLOCK_RECORD
  5
3
330
0
100
AcDbSymbolTable
 70
2
  0
BLOCK_RECORD
  5
F
330
3
100
AcDbSymbolTableRecord
100
AcDbBlockTableRecord
  2
*Model_Space
 70
0
 70
0
280
0
281
1
  0
BLOCK_RECORD
  5
12
330
3
100
AcDbSymbolTableRecord
100
AcDbBlockTableRecord
  2
*Paper_Space
 70
0
 70
0
280
0
281
1
  0
ENDTAB
  0
ENDSEC
  0
SECTION
  2
BLOCKS
  0
BLOCK
  5
10
330
F
100
AcDbEntity
  8
0
  6
ByLayer
 62
256
 48
1.0
 60
0
370
-1
100
AcDbBlockBegin
  2
*Model_Space
 70
0
 10
0.0
 20
0.0
 30
0.0
  3
*Model_Space
  0
ENDBLK
  5
11
330
F
100
AcDbEntity
  8
0
100
AcDbBlockEnd
  0
BLOCK
  5
13
330
12
100
AcDbEntity
  8
0
  6
ByLayer
 62
256
 48
1.0
 60
0
370
-1
100
AcDbBlockBegin
  2
*Paper_Space
 70
0
 10
0.0
 20
0.0
 30
0.0
  3
*Paper_Space
  0
ENDBLK
  5
14
330
12
100
AcDbEntity
  8
0
100
AcDbBlockEnd
  0
ENDSEC
  0
SECTION
  2
ENTITIES
  0
LWPOLYLINE
  5
19
330
F
100
AcDbEntity
  8
0
  6
ByLayer
420
0
 48
1.0
 60
0
370
-1
100
AcDbPolyline
 90
4
 70
1
 43
0.0
 38
0.0
 39
0.0
210
0.0
220
0.0
230
1.0
 10
80.0
 20
580.0
 40
0.0
 41
0.0
 42
0.0
 10
162.0
 20
580.0
 40
0.0
 41
0.0
 42
0.0
 10
162.0
 20
458.0
 40
0.0
 41
0.0
 42
0.0
 10
80.0
 20
458.0
 40
0.0
 41
0.0
 42
0.0
  0
LWPOLYLINE
  5
1A
330
F
100
AcDbEntity
  8
0
  6
ByLayer
420
0
 48
1.0
 60
0
370
-1
100
AcDbPolyline
 90
32
 70
1
 43
0.0
 38
0.0
 39
0.0
210
0.0
220
0.0
230
1.0
 10
178.7269760226595281
 20
574.499991138026644
 40
0.0
 41
0.0
 42
0.0
 10
178.6211027892589982
 20
573.4806401898525792
 40
0.0
 41
0.0
 42
0.0
 10
178.3075517380426049
 20
572.5004623269581998
 40
0.0
 41
0.0
 42
0.0
 10
177.7983724600671565
 20
571.5971252349245333
 40
0.0
 41
0.0
 42
0.0
 10
177.113132429434188
 20
570.8053436516011061
 40
0.0
 41
0.0
 42
0.0
 10
176.2781650362339008
 20
570.1555452991988204
 40
0.0
 41
0.0
 42
0.0
 10
175.325557609131863
 20
569.6727015639894489
 40
0.0
 41
0.0
 42
0.0
 10
174.2919183173232511
 20
569.3753678599351815
 40
0.0
 41
0.0
 42
0.0
 10
173.2169693391206238
 20
569.2749705545360257
 40
0.0
 41
0.0
 42
0.0
 10
172.1420203609179964
 20
569.3753678599351815
 40
0.0
 41
0.0
 42
0.0
 10
171.1083810691093845
 20
569.6727015639894489
 40
0.0
 41
0.0
 42
0.0
 10
170.1557736420073468
 20
570.1555452991988204
 40
0.0
 41
0.0
 42
0.0
 10
169.3208062488070595
 20
570.8053436516011061
 40
0.0
 41
0.0
 42
0.0
 10
168.6355662181740911
 20
571.5971252349245333
 40
0.0
 41
0.0
 42
0.0
 10
168.1263869401986426
 20
572.5004623269581998
 40
0.0
 41
0.0
 42
0.0
 10
167.8128358889822493
 20
573.4806401898525792
 40
0.0
 41
0.0
 42
0.0
 10
167.7069626555817194
 20
574.499991138026644
 40
0.0
 41
0.0
 42
0.0
 10
167.8128358889822493
 20
575.5193420862007088
 40
0.0
 41
0.0
 42
0.0
 10
168.1263869401986426
 20
576.4995199490950881
 40
0.0
 41
0.0
 42
0.0
 10
168.6355662181740911
 20
577.4028570411287546
 40
0.0
 41
0.0
 42
0.0
 10
169.3208062488070595
 20
578.1946386244521818
 40
0.0
 41
0.0
 42
0.0
 10
170.1557736420073468
 20
578.8444369768544675
 40
0.0
 41
0.0
 42
0.0
 10
171.1083810691093561
 20
579.327280712063839
 40
0.0
 41
0.0
 42
0.0
 10
172.1420203609179964
 20
579.6246144161181064
 40
0.0
 41
0.0
 42
0.0
 10
173.2169693391206238
 20
579.7250117215172622
 40
0.0
 41
0.0
 42
0.0
 10
174.2919183173232511
 20
579.6246144161181064
 40
0.0
 41
0.0
 42
0.0
 10
175.3255576091318915
 20
579.327280712063839
 40
0.0
 41
0.0
 42
0.0
 10
176.2781650362339008
 20
578.8444369768544675
 40
0.0
 41
0.0
 42
0.0
 10
177.113132429434188
 20
578.1946386244521818
 40
0.0
 41
0.0
 42
0.0
 10
177.7983724600671565
 20
577.4028570411287546
 40
0.0
 41
0.0
 42
0.0
 10
178.3075517380426049
 20
576.4995199490950881
 40
0.0
 41
0.0
 42
0.0
 10
178.6211027892589982
 20
575.5193420862007088
 40
0.0
 41
0.0
 42
0.0
  0
LWPOLYLINE
  5
1B
330
F
100
AcDbEntity
  8
0
  6
ByLayer
420
0
 48
1.0
 60
0
370
-1
100
AcDbPolyline
 90
304
 70
1
 43
0.0
 38
0.0
 39
0.0
210
0.0
220
0.0
230
1.0
 10
158.1428304851599478
 20
574.2291214404831408
 40
0.0
 41
0.0
 42
0.0
 10
158.1428304851599478
 20
570.9408121123560704
 40
0.0
 41
0.0
 42
0.0
 10
158.0854388017405654
 20
569.3131197140319273
 40
0.0
 41
0.0
 42
0.0
 10
157.9691270988773795
 20
569.3902701035840437
 40
0.0
 41
0.0
 42
0.0
 10
157.8528145074467375
 20
569.4674330501657096
 40
0.0
 41
0.0
 42
0.0
 10
157.7365019160160955
 20
569.544583439717826
 40
0.0
 41
0.0
 42
0.0
 10
157.6201893245854535
 20
569.6217463862994919
 40
0.0
 41
0.0
 42
0.0
 10
157.5038776217222676
 20
569.6989093328811578
 40
0.0
 41
0.0
 42
0.0
 10
157.3875650302916256
 20
569.7760597224332741
 40
0.0
 41
0.0
 42
0.0
 10
157.2712528831447116
 20
569.85322266901494
 40
0.0
 41
0.0
 42
0.0
 10
157.1549402917140696
 20
569.9303730585670564
 40
0.0
 41
0.0
 42
0.0
 10
157.0386281445671557
 20
570.0075360051487223
 40
0.0
 41
0.0
 42
0.0
 10
156.9223155531365137
 20
570.0846863947008387
 40
0.0
 41
0.0
 42
0.0
 10
156.8060034059895997
 20
570.1618493412825046
 40
0.0
 41
0.0
 42
0.0
 10
156.6896912588426858
 20
570.238999730834621
 40
0.0
 41
0.0
 42
0.0
 10
156.5733786674120438
 20
570.3161626774162869
 40
0.0
 41
0.0
 42
0.0
 10
156.4570665202651298
 20
570.3933130669684033
 40
0.0
 41
0.0
 42
0.0
 10
156.3407539288344879
 20
570.4704760135500692
 40
0.0
 41
0.0
 42
0.0
 10
156.2244417816875739
 20
570.5476264031021856
 40
0.0
 41
0.0
 42
0.0
 10
156.1081291902569319
 20
570.6247893496838515
 40
0.0
 41
0.0
 42
0.0
 10
155.9918170431100179
 20
570.7019522962655174
 40
0.0
 41
0.0
 42
0.0
 10
155.875504895963104
 20
570.7791026858176338
 40
0.0
 41
0.0
 42
0.0
 10
155.759192304532462
 20
570.8562656323992996
 40
0.0
 41
0.0
 42
0.0
 10
155.642880157385548
 20
570.933416021951416
 40
0.0
 41
0.0
 42
0.0
 10
155.5265680102386341
 20
571.0105789685330819
 40
0.0
 41
0.0
 42
0.0
 10
155.4102554188079921
 20
571.0877293580851983
 40
0.0
 41
0.0
 42
0.0
 10
155.2939432716610781
 20
571.1648923046668642
 40
0.0
 41
0.0
 42
0.0
 10
155.1776311245141642
 20
571.2420426942189806
 40
0.0
 41
0.0
 42
0.0
 10
155.0613185330835222
 20
571.3192056408006465
 40
0.0
 41
0.0
 42
0.0
 10
154.9450059416528802
 20
571.3963560303527629
 40
0.0
 41
0.0
 42
0.0
 10
154.8286937945059663
 20
571.4735189769344288
 40
0.0
 41
0.0
 42
0.0
 10
154.7123816473590523
 20
571.5506693664865452
 40
0.0
 41
0.0
 42
0.0
 10
154.5960690559284103
 20
571.6278323130682111
 40
0.0
 41
0.0
 42
0.0
 10
154.4797569087814963
 20
571.7049827026203275
 40
0.0
 41
0.0
 42
0.0
 10
154.3634443173508544
 20
571.7821456492019934
 40
0.0
 41
0.0
 42
0.0
 10
154.2471321702039404
 20
571.8593085957836593
 40
0.0
 41
0.0
 42
0.0
 10
154.1308195787732984
 20
571.9364589853357757
 40
0.0
 41
0.0
 42
0.0
 10
154.0145074316263845
 20
572.0136219319174415
 40
0.0
 41
0.0
 42
0.0
 10
153.8981952844794705
 20
572.0907723214695579
 40
0.0
 41
0.0
 42
0.0
 10
153.7818831373325565
 20
572.1679352680512238
 40
0.0
 41
0.0
 42
0.0
 10
153.6655705459019146
 20
572.2450856576033402
 40
0.0
 41
0.0
 42
0.0
 10
153.5492583987550006
 20
572.3222486041850061
 40
0.0
 41
0.0
 42
0.0
 10
153.4329458073243586
 20
572.3993989937371225
 40
0.0
 41
0.0
 42
0.0
 10
153.3166336601774447
 20
572.4765619403187884
 40
0.0
 41
0.0
 42
0.0
 10
153.2003210687468027
 20
572.5537123298709048
 40
0.0
 41
0.0
 42
0.0
 10
153.0840089215998887
 20
572.6308752764525707
 40
0.0
 41
0.0
 42
0.0
 10
152.9676967744529748
 20
572.7080256660046871
 40
0.0
 41
0.0
 42
0.0
 10
152.8513846273060608
 20
572.785188612586353
 40
0.0
 41
0.0
 42
0.0
 10
152.7350720358754188
 20
572.8623390021384694
 40
0.0
 41
0.0
 42
0.0
 10
152.6187598887285048
 20
572.9395019487201353
 40
0.0
 41
0.0
 42
0.0
 10
152.5024472972978629
 20
573.0166648953018012
 40
0.0
 41
0.0
 42
0.0
 10
152.3861351501509489
 20
573.0938152848539175
 40
0.0
 41
0.0
 42
0.0
 10
152.2698225587203069
 20
573.1709782314355834
 40
0.0
 41
0.0
 42
0.0
 10
152.153510411573393
 20
573.2481286209876998
 40
0.0
 41
0.0
 42
0.0
 10
152.037197820142751
 20
573.3252915675693657
 40
0.0
 41
0.0
 42
0.0
 10
151.920886117279565
 20
573.4024419571214821
 40
0.0
 41
0.0
 42
0.0
 10
151.8045735258489231
 20
573.479604903703148
 40
0.0
 41
0.0
 42
0.0
 10
151.6882609344182811
 20
573.5567552932552644
 40
0.0
 41
0.0
 42
0.0
 10
151.5719487872713671
 20
573.6339182398369303
 40
0.0
 41
0.0
 42
0.0
 10
151.4556361958407251
 20
573.7110686293890467
 40
0.0
 41
0.0
 42
0.0
 10
151.3393240486938112
 20
573.7882315759707126
 40
0.0
 41
0.0
 42
0.0
 10
151.2230114572631692
 20
573.865381965522829
 40
0.0
 41
0.0
 42
0.0
 10
151.1066993101162552
 20
573.9425449121044949
 40
0.0
 41
0.0
 42
0.0
 10
150.9903867186856132
 20
574.0197078586861608
 40
0.0
 41
0.0
 42
0.0
 10
150.8740750158224273
 20
574.0968582482382772
 40
0.0
 41
0.0
 42
0.0
 10
150.7577628686755133
 20
574.174021194819943
 40
0.0
 41
0.0
 42
0.0
 10
150.6414498329611433
 20
574.2511715843720594
 40
0.0
 41
0.0
 42
0.0
 10
150.5251372415305013
 20
574.3283345309537253
 40
0.0
 41
0.0
 42
0.0
 10
150.4088246500998594
 20
574.4054849205058417
 40
0.0
 41
0.0
 42
0.0
 10
150.2925138358041295
 20
574.4826478670875076
 40
0.0
 41
0.0
 42
0.0
 10
150.3593724279712944
 20
574.559823370698723
 40
0.0
 41
0.0
 42
0.0
 10
150.4756849638664562
 20
574.6369988743099384
 40
0.0
 41
0.0
 42
0.0
 10
150.5919974997616464
 20
574.7141869349507033
 40
0.0
 41
0.0
 42
0.0
 10
150.7083090915539003
 20
574.7913624385619187
 40
0.0
 41
0.0
 42
0.0
 10
150.8246216829845423
 20
574.8685504992026836
 40
0.0
 41
0.0
 42
0.0
 10
150.9409341633442523
 20
574.945726002813899
 40
0.0
 41
0.0
 42
0.0
 10
151.0572467547748943
 20
575.0229140634546638
 40
0.0
 41
0.0
 42
0.0
 10
151.1735583465671482
 20
575.1000895670658792
 40
0.0
 41
0.0
 42
0.0
 10
151.2898708269268582
 20
575.1772776277066441
 40
0.0
 41
0.0
 42
0.0
 10
151.4061834183575002
 20
575.2544531313178595
 40
0.0
 41
0.0
 42
0.0
 10
151.5224958987172101
 20
575.3316411919586244
 40
0.0
 41
0.0
 42
0.0
 10
151.6388074905094641
 20
575.4088166955698398
 40
0.0
 41
0.0
 42
0.0
 10
151.755120081940106
 20
575.4860047562106047
 40
0.0
 41
0.0
 42
0.0
 10
151.871432673370748
 20
575.5631802598218201
 40
0.0
 41
0.0
 42
0.0
 10
151.98774526480139
 20
575.640368320462585
 40
0.0
 41
0.0
 42
0.0
 10
152.104057634090168
 20
575.7175438240738004
 40
0.0
 41
0.0
 42
0.0
 10
152.2203693369533539
 20
575.7947318847145652
 40
0.0
 41
0.0
 42
0.0
 10
152.3366819283839959
 20
575.8719073883257806
 40
0.0
 41
0.0
 42
0.0
 10
152.4529942976727739
 20
575.9490954489665455
 40
0.0
 41
0.0
 42
0.0
 10
152.5693068891034159
 20
576.0262709525777609
 40
0.0
 41
0.0
 42
0.0
 10
152.6856185919666018
 20
576.1034590132185258
 40
0.0
 41
0.0
 42
0.0
 10
152.8019309612553798
 20
576.1806345168297412
 40
0.0
 41
0.0
 42
0.0
 10
152.9182435526860218
 20
576.2578225774705061
 40
0.0
 41
0.0
 42
0.0
 10
153.0345561441166637
 20
576.3349980810817215
 40
0.0
 41
0.0
 42
0.0
 10
153.1508678469798497
 20
576.4121735846929369
 40
0.0
 41
0.0
 42
0.0
 10
153.2671802162686276
 20
576.4893616453337017
 40
0.0
 41
0.0
 42
0.0
 10
153.3834928076992696
 20
576.5665371489449171
 40
0.0
 41
0.0
 42
0.0
 10
153.4998053991299116
 20
576.643725209585682
 40
0.0
 41
0.0
 42
0.0
 10
153.6161168798512335
 20
576.7209007131968974
 40
0.0
 41
0.0
 42
0.0
 10
153.7324294712818755
 20
576.7980887738376623
 40
0.0
 41
0.0
 42
0.0
 10
153.8487420627125175
 20
576.8752642774488777
 40
0.0
 41
0.0
 42
0.0
 10
153.9650546541431595
 20
576.9524523380896426
 40
0.0
 41
0.0
 42
0.0
 10
154.0813663570063454
 20
577.029627841700858
 40
0.0
 41
0.0
 42
0.0
 10
154.1976785041532594
 20
577.1068159023416229
 40
0.0
 41
0.0
 42
0.0
 10
154.3139910955839014
 20
577.1839914059528382
 40
0.0
 41
0.0
 42
0.0
 10
154.4303036870145434
 20
577.2611794665936031
 40
0.0
 41
0.0
 42
0.0
 10
154.5466153898777293
 20
577.3383549702048185
 40
0.0
 41
0.0
 42
0.0
 10
154.6629279813083713
 20
577.4155430308455834
 40
0.0
 41
0.0
 42
0.0
 10
154.7792405727390133
 20
577.4927185344567988
 40
0.0
 41
0.0
 42
0.0
 10
154.8955531641696552
 20
577.5699065950975637
 40
0.0
 41
0.0
 42
0.0
 10
155.0118644227491131
 20
577.6470820987087791
 40
0.0
 41
0.0
 42
0.0
 10
155.1281770141797551
 20
577.724270159349544
 40
0.0
 41
0.0
 42
0.0
 10
155.2444896056103971
 20
577.8014456629607594
 40
0.0
 41
0.0
 42
0.0
 10
155.3608021970410391
 20
577.8786337236015243
 40
0.0
 41
0.0
 42
0.0
 10
155.4771147884716811
 20
577.9558092272127396
 40
0.0
 41
0.0
 42
0.0
 10
155.593426491334867
 20
578.0329972878535045
 40
0.0
 41
0.0
 42
0.0
 10
155.709739082765509
 20
578.1101727914647199
 40
0.0
 41
0.0
 42
0.0
 10
155.826051229912423
 20
578.1873608521054848
 40
0.0
 41
0.0
 42
0.0
 10
155.942363821343065
 20
578.2645363557167002
 40
0.0
 41
0.0
 42
0.0
 10
156.0586755242062509
 20
578.3417244163574651
 40
0.0
 41
0.0
 42
0.0
 10
156.1749881156368929
 20
578.4188999199686805
 40
0.0
 41
0.0
 42
0.0
 10
156.2913007070675349
 20
578.4960879806094454
 40
0.0
 41
0.0
 42
0.0
 10
156.4076132984981768
 20
578.5732634842206608
 40
0.0
 41
0.0
 42
0.0
 10
156.5239250013613628
 20
578.6504515448614256
 40
0.0
 41
0.0
 42
0.0
 10
156.6402371485082767
 20
578.727627048472641
 40
0.0
 41
0.0
 42
0.0
 10
156.7565497399389187
 20
578.8048025520838564
 40
0.0
 41
0.0
 42
0.0
 10
156.8728623313695607
 20
578.8819906127246213
 40
0.0
 41
0.0
 42
0.0
 10
156.9891740342327466
 20
578.9591661163358367
 40
0.0
 41
0.0
 42
0.0
 10
157.1054866256633886
 20
579.0363541769766016
 40
0.0
 41
0.0
 42
0.0
 10
157.2217992170940306
 20
579.113529680587817
 40
0.0
 41
0.0
 42
0.0
 10
157.3381118085246726
 20
579.1907177412285819
 40
0.0
 41
0.0
 42
0.0
 10
157.4544252885227706
 20
579.2678932448397973
 40
0.0
 41
0.0
 42
0.0
 10
157.5707352142510445
 20
579.3450813054805622
 40
0.0
 41
0.0
 42
0.0
 10
157.6870486942491425
 20
579.4222568090917775
 40
0.0
 41
0.0
 42
0.0
 10
157.8033621742472405
 20
579.4994448697325424
 40
0.0
 41
0.0
 42
0.0
 10
157.9196720999755144
 20
579.5766203733437578
 40
0.0
 41
0.0
 42
0.0
 10
158.0359855799736124
 20
579.6538084339845227
 40
0.0
 41
0.0
 42
0.0
 10
158.1428304851599478
 20
579.4570146668847883
 40
0.0
 41
0.0
 42
0.0
 10
158.1428304851599478
 20
576.168780680935015
 40
0.0
 41
0.0
 42
0.0
 10
158.2097067376053019
 20
574.7706182257461478
 40
0.0
 41
0.0
 42
0.0
 10
158.3260522060318181
 20
574.7706182257461478
 40
0.0
 41
0.0
 42
0.0
 10
158.4423976744583342
 20
574.7706182257461478
 40
0.0
 41
0.0
 42
0.0
 10
158.5587395886150262
 20
574.7706182257461478
 40
0.0
 41
0.0
 42
0.0
 10
158.6750850570415423
 20
574.7706182257461478
 40
0.0
 41
0.0
 42
0.0
 10
158.7914305254680585
 20
574.7706182257461478
 40
0.0
 41
0.0
 42
0.0
 10
158.9077724396247504
 20
574.7706182257461478
 40
0.0
 41
0.0
 42
0.0
 10
159.0241179080512666
 20
574.7706182257461478
 40
0.0
 41
0.0
 42
0.0
 10
159.1404633764777827
 20
574.7706182257461478
 40
0.0
 41
0.0
 42
0.0
 10
159.2568052906344747
 20
574.7706182257461478
 40
0.0
 41
0.0
 42
0.0
 10
159.3731507590609908
 20
574.7706182257461478
 40
0.0
 41
0.0
 42
0.0
 10
159.489496227487507
 20
574.7706182257461478
 40
0.0
 41
0.0
 42
0.0
 10
159.6058381416441989
 20
574.7706182257461478
 40
0.0
 41
0.0
 42
0.0
 10
159.7221836100707151
 20
574.7706182257461478
 40
0.0
 41
0.0
 42
0.0
 10
159.8385290784972312
 20
574.7706182257461478
 40
0.0
 41
0.0
 42
0.0
 10
159.9548709926539232
 20
574.7706182257461478
 40
0.0
 41
0.0
 42
0.0
 10
160.0712164610804393
 20
574.7706182257461478
 40
0.0
 41
0.0
 42
0.0
 10
160.1875619295069555
 20
574.7706182257461478
 40
0.0
 41
0.0
 42
0.0
 10
160.3039073979334717
 20
574.7706182257461478
 40
0.0
 41
0.0
 42
0.0
 10
160.4202493120901636
 20
574.7706182257461478
 40
0.0
 41
0.0
 42
0.0
 10
160.5365947805166797
 20
574.7706182257461478
 40
0.0
 41
0.0
 42
0.0
 10
160.6529402489431959
 20
574.7706182257461478
 40
0.0
 41
0.0
 42
0.0
 10
160.7692821630998878
 20
574.7706182257461478
 40
0.0
 41
0.0
 42
0.0
 10
160.885627631526404
 20
574.7706182257461478
 40
0.0
 41
0.0
 42
0.0
 10
161.0019730999529202
 20
574.7706182257461478
 40
0.0
 41
0.0
 42
0.0
 10
161.1183150141096121
 20
574.7706182257461478
 40
0.0
 41
0.0
 42
0.0
 10
161.2346604825361283
 20
574.7706182257461478
 40
0.0
 41
0.0
 42
0.0
 10
161.3510059509626444
 20
574.7706182257461478
 40
0.0
 41
0.0
 42
0.0
 10
161.4673478651193363
 20
574.7706182257461478
 40
0.0
 41
0.0
 42
0.0
 10
161.5836933335458525
 20
574.7706182257461478
 40
0.0
 41
0.0
 42
0.0
 10
161.7000388019723687
 20
574.7706182257461478
 40
0.0
 41
0.0
 42
0.0
 10
161.8163842703988848
 20
574.7706182257461478
 40
0.0
 41
0.0
 42
0.0
 10
161.9327261845555768
 20
574.7706182257461478
 40
0.0
 41
0.0
 42
0.0
 10
162.0490716529820929
 20
574.7706182257461478
 40
0.0
 41
0.0
 42
0.0
 10
162.1654171214086091
 20
574.7706182257461478
 40
0.0
 41
0.0
 42
0.0
 10
162.281759035565301
 20
574.7706182257461478
 40
0.0
 41
0.0
 42
0.0
 10
162.3981045039918172
 20
574.7706182257461478
 40
0.0
 41
0.0
 42
0.0
 10
162.5144499724183333
 20
574.7706182257461478
 40
0.0
 41
0.0
 42
0.0
 10
162.6307918865750253
 20
574.7706182257461478
 40
0.0
 41
0.0
 42
0.0
 10
162.7471373550015414
 20
574.7706182257461478
 40
0.0
 41
0.0
 42
0.0
 10
162.8634828234280576
 20
574.7706182257461478
 40
0.0
 41
0.0
 42
0.0
 10
162.9798247375847495
 20
574.7706182257461478
 40
0.0
 41
0.0
 42
0.0
 10
163.0961702060112657
 20
574.7706182257461478
 40
0.0
 41
0.0
 42
0.0
 10
163.2125156744377819
 20
574.7706182257461478
 40
0.0
 41
0.0
 42
0.0
 10
163.3288575885944738
 20
574.7706182257461478
 40
0.0
 41
0.0
 42
0.0
 10
163.4452030570209899
 20
574.7706182257461478
 40
0.0
 41
0.0
 42
0.0
 10
163.5615485254475061
 20
574.7706182257461478
 40
0.0
 41
0.0
 42
0.0
 10
163.6778939938740223
 20
574.7706182257461478
 40
0.0
 41
0.0
 42
0.0
 10
163.7942359080307142
 20
574.7706182257461478
 40
0.0
 41
0.0
 42
0.0
 10
163.9105813764572304
 20
574.7706182257461478
 40
0.0
 41
0.0
 42
0.0
 10
164.0269268448837465
 20
574.7706182257461478
 40
0.0
 41
0.0
 42
0.0
 10
164.1432687590404385
 20
574.7706182257461478
 40
0.0
 41
0.0
 42
0.0
 10
164.2596142274669546
 20
574.7706182257461478
 40
0.0
 41
0.0
 42
0.0
 10
164.3759596958934708
 20
574.7706182257461478
 40
0.0
 41
0.0
 42
0.0
 10
164.4923016100501627
 20
574.7706182257461478
 40
0.0
 41
0.0
 42
0.0
 10
164.6086470784766789
 20
574.7706182257461478
 40
0.0
 41
0.0
 42
0.0
 10
164.724992546903195
 20
574.7706182257461478
 40
0.0
 41
0.0
 42
0.0
 10
164.841334461059887
 20
574.7706182257461478
 40
0.0
 41
0.0
 42
0.0
 10
164.9576799294864031
 20
574.7706182257461478
 40
0.0
 41
0.0
 42
0.0
 10
165.0740253979129193
 20
574.7706182257461478
 40
0.0
 41
0.0
 42
0.0
 10
165.1903708663394355
 20
574.7706182257461478
 40
0.0
 41
0.0
 42
0.0
 10
165.3067127804961274
 20
574.7706182257461478
 40
0.0
 41
0.0
 42
0.0
 10
165.4230582489226435
 20
574.7706182257461478
 40
0.0
 41
0.0
 42
0.0
 10
165.5394037173491597
 20
574.7706182257461478
 40
0.0
 41
0.0
 42
0.0
 10
165.6557456315058516
 20
574.7706182257461478
 40
0.0
 41
0.0
 42
0.0
 10
165.7720910999323678
 20
574.7706182257461478
 40
0.0
 41
0.0
 42
0.0
 10
165.888436568358884
 20
574.7706182257461478
 40
0.0
 41
0.0
 42
0.0
 10
166.0047784825155759
 20
574.7706182257461478
 40
0.0
 41
0.0
 42
0.0
 10
166.1211239509420921
 20
574.7706182257461478
 40
0.0
 41
0.0
 42
0.0
 10
166.2374694193686082
 20
574.7706182257461478
 40
0.0
 41
0.0
 42
0.0
 10
166.3538113335253001
 20
574.7706182257461478
 40
0.0
 41
0.0
 42
0.0
 10
166.4701568019518163
 20
574.7706182257461478
 40
0.0
 41
0.0
 42
0.0
 10
166.5865022703783325
 20
574.7706182257461478
 40
0.0
 41
0.0
 42
0.0
 10
166.7028441845350244
 20
574.7706182257461478
 40
0.0
 41
0.0
 42
0.0
 10
166.8191896529615406
 20
574.7706182257461478
 40
0.0
 41
0.0
 42
0.0
 10
166.9355351213880567
 20
574.7706182257461478
 40
0.0
 41
0.0
 42
0.0
 10
167.0518805898145729
 20
574.7706182257461478
 40
0.0
 41
0.0
 42
0.0
 10
167.1682225039712648
 20
574.7706182257461478
 40
0.0
 41
0.0
 42
0.0
 10
167.284567972397781
 20
574.7706182257461478
 40
0.0
 41
0.0
 42
0.0
 10
167.4009134408242971
 20
574.7706182257461478
 40
0.0
 41
0.0
 42
0.0
 10
167.5172553549809891
 20
574.7706182257461478
 40
0.0
 41
0.0
 42
0.0
 10
167.6336008234075052
 20
574.7706182257461478
 40
0.0
 41
0.0
 42
0.0
 10
167.683065596551387
 20
574.2291214404831408
 40
0.0
 41
0.0
 42
0.0
 10
167.5667236823946951
 20
574.2291214404831408
 40
0.0
 41
0.0
 42
0.0
 10
167.4503782139681789
 20
574.2291214404831408
 40
0.0
 41
0.0
 42
0.0
 10
167.3340327455416627
 20
574.2291214404831408
 40
0.0
 41
0.0
 42
0.0
 10
167.2176908313849708
 20
574.2291214404831408
 40
0.0
 41
0.0
 42
0.0
 10
167.1013453629584546
 20
574.2291214404831408
 40
0.0
 41
0.0
 42
0.0
 10
166.9849998945319385
 20
574.2291214404831408
 40
0.0
 41
0.0
 42
0.0
 10
166.8686544261054223
 20
574.2291214404831408
 40
0.0
 41
0.0
 42
0.0
 10
166.7523125119487304
 20
574.2291214404831408
 40
0.0
 41
0.0
 42
0.0
 10
166.6359670435222142
 20
574.2291214404831408
 40
0.0
 41
0.0
 42
0.0
 10
166.5196215750956981
 20
574.2291214404831408
 40
0.0
 41
0.0
 42
0.0
 10
166.4032796609390061
 20
574.2291214404831408
 40
0.0
 41
0.0
 42
0.0
 10
166.28693419251249
 20
574.2291214404831408
 40
0.0
 41
0.0
 42
0.0
 10
166.1705887240859738
 20
574.2291214404831408
 40
0.0
 41
0.0
 42
0.0
 10
166.0542468099292819
 20
574.2291214404831408
 40
0.0
 41
0.0
 42
0.0
 10
165.9379013415027657
 20
574.2291214404831408
 40
0.0
 41
0.0
 42
0.0
 10
165.8215558730762496
 20
574.2291214404831408
 40
0.0
 41
0.0
 42
0.0
 10
165.7052139589195576
 20
574.2291214404831408
 40
0.0
 41
0.0
 42
0.0
 10
165.5888684904930415
 20
574.2291214404831408
 40
0.0
 41
0.0
 42
0.0
 10
165.4725230220665253
 20
574.2291214404831408
 40
0.0
 41
0.0
 42
0.0
 10
165.3561811079098334
 20
574.2291214404831408
 40
0.0
 41
0.0
 42
0.0
 10
165.2398356394833172
 20
574.2291214404831408
 40
0.0
 41
0.0
 42
0.0
 10
165.123490171056801
 20
574.2291214404831408
 40
0.0
 41
0.0
 42
0.0
 10
165.0071447026302849
 20
574.2291214404831408
 40
0.0
 41
0.0
 42
0.0
 10
164.890802788473593
 20
574.2291214404831408
 40
0.0
 41
0.0
 42
0.0
 10
164.7744573200470768
 20
574.2291214404831408
 40
0.0
 41
0.0
 42
0.0
 10
164.6581118516205606
 20
574.2291214404831408
 40
0.0
 41
0.0
 42
0.0
 10
164.5417699374638687
 20
574.2291214404831408
 40
0.0
 41
0.0
 42
0.0
 10
164.4254244690373525
 20
574.2291214404831408
 40
0.0
 41
0.0
 42
0.0
 10
164.3090790006108364
 20
574.2291214404831408
 40
0.0
 41
0.0
 42
0.0
 10
164.1927370864541444
 20
574.2291214404831408
 40
0.0
 41
0.0
 42
0.0
 10
164.0763916180276283
 20
574.2291214404831408
 40
0.0
 41
0.0
 42
0.0
 10
163.9600461496011121
 20
574.2291214404831408
 40
0.0
 41
0.0
 42
0.0
 10
163.8437042354444202
 20
574.2291214404831408
 40
0.0
 41
0.0
 42
0.0
 10
163.727358767017904
 20
574.2291214404831408
 40
0.0
 41
0.0
 42
0.0
 10
163.6110132985913879
 20
574.2291214404831408
 40
0.0
 41
0.0
 42
0.0
 10
163.4946713844346959
 20
574.2291214404831408
 40
0.0
 41
0.0
 42
0.0
 10
163.3783259160081798
 20
574.2291214404831408
 40
0.0
 41
0.0
 42
0.0
 10
163.2619804475816636
 20
574.2291214404831408
 40
0.0
 41
0.0
 42
0.0
 10
163.1456385334249717
 20
574.2291214404831408
 40
0.0
 41
0.0
 42
0.0
 10
163.0292930649984555
 20
574.2291214404831408
 40
0.0
 41
0.0
 42
0.0
 10
162.9129475965719394
 20
574.2291214404831408
 40
0.0
 41
0.0
 42
0.0
 10
162.7966056824152474
 20
574.2291214404831408
 40
0.0
 41
0.0
 42
0.0
 10
162.6802602139887313
 20
574.2291214404831408
 40
0.0
 41
0.0
 42
0.0
 10
162.5639147455622151
 20
574.2291214404831408
 40
0.0
 41
0.0
 42
0.0
 10
162.4475728314055232
 20
574.2291214404831408
 40
0.0
 41
0.0
 42
0.0
 10
162.331227362979007
 20
574.2291214404831408
 40
0.0
 41
0.0
 42
0.0
 10
162.2148818945524908
 20
574.2291214404831408
 40
0.0
 41
0.0
 42
0.0
 10
162.0985364261259747
 20
574.2291214404831408
 40
0.0
 41
0.0
 42
0.0
 10
161.9821945119692828
 20
574.2291214404831408
 40
0.0
 41
0.0
 42
0.0
 10
161.8658490435427666
 20
574.2291214404831408
 40
0.0
 41
0.0
 42
0.0
 10
161.7495035751162504
 20
574.2291214404831408
 40
0.0
 41
0.0
 42
0.0
 10
161.6331616609595585
 20
574.2291214404831408
 40
0.0
 41
0.0
 42
0.0
 10
161.5168161925330423
 20
574.2291214404831408
 40
0.0
 41
0.0
 42
0.0
 10
161.4004707241065262
 20
574.2291214404831408
 40
0.0
 41
0.0
 42
0.0
 10
161.2841288099498342
 20
574.2291214404831408
 40
0.0
 41
0.0
 42
0.0
 10
161.1677833415233181
 20
574.2291214404831408
 40
0.0
 41
0.0
 42
0.0
 10
161.0514378730968019
 20
574.2291214404831408
 40
0.0
 41
0.0
 42
0.0
 10
160.93509595894011
 20
574.2291214404831408
 40
0.0
 41
0.0
 42
0.0
 10
160.8187504905135938
 20
574.2291214404831408
 40
0.0
 41
0.0
 42
0.0
 10
160.7024050220870777
 20
574.2291214404831408
 40
0.0
 41
0.0
 42
0.0
 10
160.5860595536605615
 20
574.2291214404831408
 40
0.0
 41
0.0
 42
0.0
 10
160.4697176395038696
 20
574.2291214404831408
 40
0.0
 41
0.0
 42
0.0
 10
160.3533721710773534
 20
574.2291214404831408
 40
0.0
 41
0.0
 42
0.0
 10
160.2370267026508373
 20
574.2291214404831408
 40
0.0
 41
0.0
 42
0.0
 10
160.1206847884941453
 20
574.2291214404831408
 40
0.0
 41
0.0
 42
0.0
 10
160.0043393200676292
 20
574.2291214404831408
 40
0.0
 41
0.0
 42
0.0
 10
159.887993851641113
 20
574.2291214404831408
 40
0.0
 41
0.0
 42
0.0
 10
159.7716519374844211
 20
574.2291214404831408
 40
0.0
 41
0.0
 42
0.0
 10
159.6553064690579049
 20
574.2291214404831408
 40
0.0
 41
0.0
 42
0.0
 10
159.5389610006313887
 20
574.2291214404831408
 40
0.0
 41
0.0
 42
0.0
 10
159.4226190864746968
 20
574.2291214404831408
 40
0.0
 41
0.0
 42
0.0
 10
159.3062736180481807
 20
574.2291214404831408
 40
0.0
 41
0.0
 42
0.0
 10
159.1899281496216645
 20
574.2291214404831408
 40
0.0
 41
0.0
 42
0.0
 10
159.0735862354649726
 20
574.2291214404831408
 40
0.0
 41
0.0
 42
0.0
 10
158.9572407670384564
 20
574.2291214404831408
 40
0.0
 41
0.0
 42
0.0
 10
158.8408952986119402
 20
574.2291214404831408
 40
0.0
 41
0.0
 42
0.0
 10
158.7245498301854241
 20
574.2291214404831408
 40
0.0
 41
0.0
 42
0.0
 10
158.6082079160287321
 20
574.2291214404831408
 40
0.0
 41
0.0
 42
0.0
 10
158.491862447602216
 20
574.2291214404831408
 40
0.0
 41
0.0
 42
0.0
 10
158.3755169791756998
 20
574.2291214404831408
 40
0.0
 41
0.0
 42
0.0
 10
158.2591750650190079
 20
574.2291214404831408
 40
0.0
 41
0.0
 42
0.0
 10
158.1428304851599478
 20
574.2291214404831408
 40
0.0
 41
0.0
 42
0.0
  0
LWPOLYLINE
  5
1C
330
F
100
AcDbEntity
  8
0
  6
ByLayer
420
0
 48
1.0
 60
0
370
-1
100
AcDbPolyline
 90
4
 70
1
 43
0.0
 38
0.0
 39
0.0
210
0.0
220
0.0
230
1.0
 10
150.1394432008013382
 20
579.7249998905463144
 40
0.0
 41
0.0
 42
0.0
 10
150.6613923144805653
 20
579.7249998905463144
 40
0.0
 41
0.0
 42
0.0
 10
150.6613923144805653
 20
569.2749971550019836
 40
0.0
 41
0.0
 42
0.0
 10
150.1394432008013382
 20
569.2749971550019836
 40
0.0
 41
0.0
 42
0.0
  0
LWPOLYLINE
  5
1D
330
F
100
AcDbEntity
  8
0
  6
ByLayer
420
0
 48
1.0
 60
0
370
-1
100
AcDbPolyline
 90
65
 70
0
 43
0.0
 38
0.0
 39
0.0
210
0.0
220
0.0
230
1.0
 10
145.0
 20
505.0
 40
0.0
 41
0.0
 42
0.0
 10
146.391632080078125
 20
505.0993194580078125
 40
0.0
 41
0.0
 42
0.0
 10
147.7838897705078125
 20
505.1892547607421875
 40
0.0
 41
0.0
 42
0.0
 10
149.1767425537109375
 20
505.2698516845703125
 40
0.0
 41
0.0
 42
0.0
 10
150.5700531005859375
 20
505.34161376953125
 40
0.0
 41
0.0
 42
0.0
 10
151.9637908935546875
 20
505.40484619140625
 40
0.0
 41
0.0
 42
0.0
 10
153.357879638671875
 20
505.4597930908203125
 40
0.0
 41
0.0
 42
0.0
 10
154.75225830078125
 20
505.50665283203125
 40
0.0
 41
0.0
 42
0.0
 10
156.146881103515625
 20
505.5457916259765625
 40
0.0
 41
0.0
 42
0.0
 10
157.5417022705078125
 20
505.57745361328125
 40
0.0
 41
0.0
 42
0.0
 10
158.9366607666015625
 20
505.60186767578125
 40
0.0
 41
0.0
 42
0.0
 10
160.3317108154296875
 20
505.6192626953125
 40
0.0
 41
0.0
 42
0.0
 10
161.7268524169921875
 20
505.629852294921875
 40
0.0
 41
0.0
 42
0.0
 10
163.12200927734375
 20
505.6338348388671875
 40
0.0
 41
0.0
 42
0.0
 10
164.517181396484375
 20
505.6313018798828125
 40
0.0
 41
0.0
 42
0.0
 10
165.912322998046875
 20
505.6225738525390625
 40
0.0
 41
0.0
 42
0.0
 10
167.3074188232421875
 20
505.6078338623046875
 40
0.0
 41
0.0
 42
0.0
 10
168.7024383544921875
 20
505.5872650146484375
 40
0.0
 41
0.0
 42
0.0
 10
170.09735107421875
 20
505.56085205078125
 40
0.0
 41
0.0
 42
0.0
 10
171.4921722412109375
 20
505.528961181640625
 40
0.0
 41
0.0
 42
0.0
 10
172.8868408203125
 20
505.49163818359375
 40
0.0
 41
0.0
 42
0.0
 10
174.2813568115234375
 20
505.449005126953125
 40
0.0
 41
0.0
 42
0.0
 10
175.6757049560546875
 20
505.4013214111328125
 40
0.0
 41
0.0
 42
0.0
 10
177.06988525390625
 20
505.3485260009765625
 40
0.0
 41
0.0
 42
0.0
 10
178.4638671875
 20
505.2909393310546875
 40
0.0
 41
0.0
 42
0.0
 10
179.857635498046875
 20
505.2285919189453125
 40
0.0
 41
0.0
 42
0.0
 10
181.2512054443359375
 20
505.1615447998046875
 40
0.0
 41
0.0
 42
0.0
 10
182.6445465087890625
 20
505.090087890625
 40
0.0
 41
0.0
 42
0.0
 10
184.0376434326171875
 20
505.014068603515625
 40
0.0
 41
0.0
 42
0.0
 10
185.4304962158203125
 20
504.9337921142578125
 40
0.0
 41
0.0
 42
0.0
 10
186.8231201171875
 20
504.8493499755859375
 40
0.0
 41
0.0
 42
0.0
 10
188.2154693603515625
 20
504.7607574462890625
 40
0.0
 41
0.0
 42
0.0
 10
189.6075592041015625
 20
504.6680755615234375
 40
0.0
 41
0.0
 42
0.0
 10
190.9993896484375
 20
504.571502685546875
 40
0.0
 41
0.0
 42
0.0
 10
192.3909454345703125
 20
504.471099853515625
 40
0.0
 41
0.0
 42
0.0
 10
193.7822265625
 20
504.366943359375
 40
0.0
 41
0.0
 42
0.0
 10
195.1732177734375
 20
504.2591094970703125
 40
0.0
 41
0.0
 42
0.0
 10
196.563934326171875
 20
504.1475982666015625
 40
0.0
 41
0.0
 42
0.0
 10
197.9543609619140625
 20
504.032562255859375
 40
0.0
 41
0.0
 42
0.0
 10
199.344482421875
 20
503.9140777587890625
 40
0.0
 41
0.0
 42
0.0
 10
200.73431396484375
 20
503.792205810546875
 40
0.0
 41
0.0
 42
0.0
 10
202.123870849609375
 20
503.6670074462890625
 40
0.0
 41
0.0
 42
0.0
 10
203.5131072998046875
 20
503.5385589599609375
 40
0.0
 41
0.0
 42
0.0
 10
204.9020538330078125
 20
503.40692138671875
 40
0.0
 41
0.0
 42
0.0
 10
206.2906951904296875
 20
503.2721710205078125
 40
0.0
 41
0.0
 42
0.0
 10
207.679046630859375
 20
503.13433837890625
 40
0.0
 41
0.0
 42
0.0
 10
209.0670928955078125
 20
502.993499755859375
 40
0.0
 41
0.0
 42
0.0
 10
210.454833984375
 20
502.8497161865234375
 40
0.0
 41
0.0
 42
0.0
 10
211.8422698974609375
 20
502.7030029296875
 40
0.0
 41
0.0
 42
0.0
 10
213.2294158935546875
 20
502.55340576171875
 40
0.0
 41
0.0
 42
0.0
 10
214.6162261962890625
 20
502.4010162353515625
 40
0.0
 41
0.0
 42
0.0
 10
216.00274658203125
 20
502.24591064453125
 40
0.0
 41
0.0
 42
0.0
 10
217.3889617919921875
 20
502.088104248046875
 40
0.0
 41
0.0
 42
0.0
 10
218.7748870849609375
 20
501.9276885986328125
 40
0.0
 41
0.0
 42
0.0
 10
220.1605072021484375
 20
501.7646484375
 40
0.0
 41
0.0
 42
0.0
 10
221.5457916259765625
 20
501.5989837646484375
 40
0.0
 41
0.0
 42
0.0
 10
222.9308013916015625
 20
501.430816650390625
 40
0.0
 41
0.0
 42
0.0
 10
224.31549072265625
 20
501.260223388671875
 40
0.0
 41
0.0
 42
0.0
 10
225.6999053955078125
 20
501.0872344970703125
 40
0.0
 41
0.0
 42
0.0
 10
227.083984375
 20
500.911712646484375
 40
0.0
 41
0.0
 42
0.0
 10
228.4677734375
 20
500.733917236328125
 40
0.0
 41
0.0
 42
0.0
 10
229.851287841796875
 20
500.553863525390625
 40
0.0
 41
0.0
 42
0.0
 10
231.2344818115234375
 20
500.3714141845703125
 40
0.0
 41
0.0
 42
0.0
 10
232.6173858642578125
 20
500.1867523193359375
 40
0.0
 41
0.0
 42
0.0
 10
234.0
 20
500.0
 40
0.0
 41
0.0
 42
0.0
  0
LWPOLYLINE
  5
1E
330
F
100
AcDbEntity
  8
0
  6
ByLayer
420
0
 48
1.0
 60
0
370
-1
100
AcDbPolyline
 90
65
 70
0
 43
0.0
 38
0.0
 39
0.0
210
0.0
220
0.0
230
1.0
 10
145.0
 20
505.0
 40
0.0
 41
0.0
 42
0.0
 10
146.391632080078125
 20
505.0993194580078125
 40
0.0
 41
0.0
 42
0.0
 10
147.7838897705078125
 20
505.1892547607421875
 40
0.0
 41
0.0
 42
0.0
 10
149.1767425537109375
 20
505.2698516845703125
 40
0.0
 41
0.0
 42
0.0
 10
150.5700531005859375
 20
505.34161376953125
 40
0.0
 41
0.0
 42
0.0
 10
151.9637908935546875
 20
505.40484619140625
 40
0.0
 41
0.0
 42
0.0
 10
153.357879638671875
 20
505.4597930908203125
 40
0.0
 41
0.0
 42
0.0
 10
154.75225830078125
 20
505.50665283203125
 40
0.0
 41
0.0
 42
0.0
 10
156.146881103515625
 20
505.5457916259765625
 40
0.0
 41
0.0
 42
0.0
 10
157.5417022705078125
 20
505.57745361328125
 40
0.0
 41
0.0
 42
0.0
 10
158.9366607666015625
 20
505.60186767578125
 40
0.0
 41
0.0
 42
0.0
 10
160.3317108154296875
 20
505.6192626953125
 40
0.0
 41
0.0
 42
0.0
 10
161.7268524169921875
 20
505.629852294921875
 40
0.0
 41
0.0
 42
0.0
 10
163.12200927734375
 20
505.6338348388671875
 40
0.0
 41
0.0
 42
0.0
 10
164.517181396484375
 20
505.6313018798828125
 40
0.0
 41
0.0
 42
0.0
 10
165.912322998046875
 20
505.6225738525390625
 40
0.0
 41
0.0
 42
0.0
 10
167.3074188232421875
 20
505.6078338623046875
 40
0.0
 41
0.0
 42
0.0
 10
168.7024383544921875
 20
505.5872650146484375
 40
0.0
 41
0.0
 42
0.0
 10
170.09735107421875
 20
505.56085205078125
 40
0.0
 41
0.0
 42
0.0
 10
171.4921722412109375
 20
505.528961181640625
 40
0.0
 41
0.0
 42
0.0
 10
172.8868408203125
 20
505.49163818359375
 40
0.0
 41
0.0
 42
0.0
 10
174.2813568115234375
 20
505.449005126953125
 40
0.0
 41
0.0
 42
0.0
 10
175.6757049560546875
 20
505.4013214111328125
 40
0.0
 41
0.0
 42
0.0
 10
177.06988525390625
 20
505.3485260009765625
 40
0.0
 41
0.0
 42
0.0
 10
178.4638671875
 20
505.2909393310546875
 40
0.0
 41
0.0
 42
0.0
 10
179.857635498046875
 20
505.2285919189453125
 40
0.0
 41
0.0
 42
0.0
 10
181.2512054443359375
 20
505.1615447998046875
 40
0.0
 41
0.0
 42
0.0
 10
182.6445465087890625
 20
505.090087890625
 40
0.0
 41
0.0
 42
0.0
 10
184.0376434326171875
 20
505.014068603515625
 40
0.0
 41
0.0
 42
0.0
 10
185.4304962158203125
 20
504.9337921142578125
 40
0.0
 41
0.0
 42
0.0
 10
186.8231201171875
 20
504.8493499755859375
 40
0.0
 41
0.0
 42
0.0
 10
188.2154693603515625
 20
504.7607574462890625
 40
0.0
 41
0.0
 42
0.0
 10
189.6075592041015625
 20
504.6680755615234375
 40
0.0
 41
0.0
 42
0.0
 10
190.9993896484375
 20
504.571502685546875
 40
0.0
 41
0.0
 42
0.0
 10
192.3909454345703125
 20
504.471099853515625
 40
0.0
 41
0.0
 42
0.0
 10
193.7822265625
 20
504.366943359375
 40
0.0
 41
0.0
 42
0.0
 10
195.1732177734375
 20
504.2591094970703125
 40
0.0
 41
0.0
 42
0.0
 10
196.563934326171875
 20
504.1475982666015625
 40
0.0
 41
0.0
 42
0.0
 10
197.9543609619140625
 20
504.032562255859375
 40
0.0
 41
0.0
 42
0.0
 10
199.344482421875
 20
503.9140777587890625
 40
0.0
 41
0.0
 42
0.0
 10
200.73431396484375
 20
503.792205810546875
 40
0.0
 41
0.0
 42
0.0
 10
202.123870849609375
 20
503.6670074462890625
 40
0.0
 41
0.0
 42
0.0
 10
203.5131072998046875
 20
503.5385589599609375
 40
0.0
 41
0.0
 42
0.0
 10
204.9020538330078125
 20
503.40692138671875
 40
0.0
 41
0.0
 42
0.0
 10
206.2906951904296875
 20
503.2721710205078125
 40
0.0
 41
0.0
 42
0.0
 10
207.679046630859375
 20
503.13433837890625
 40
0.0
 41
0.0
 42
0.0
 10
209.0670928955078125
 20
502.993499755859375
 40
0.0
 41
0.0
 42
0.0
 10
210.454833984375
 20
502.8497161865234375
 40
0.0
 41
0.0
 42
0.0
 10
211.8422698974609375
 20
502.7030029296875
 40
0.0
 41
0.0
 42
0.0
 10
213.2294158935546875
 20
502.55340576171875
 40
0.0
 41
0.0
 42
0.0
 10
214.6162261962890625
 20
502.4010162353515625
 40
0.0
 41
0.0
 42
0.0
 10
216.00274658203125
 20
502.24591064453125
 40
0.0
 41
0.0
 42
0.0
 10
217.3889617919921875
 20
502.088104248046875
 40
0.0
 41
0.0
 42
0.0
 10
218.7748870849609375
 20
501.9276885986328125
 40
0.0
 41
0.0
 42
0.0
 10
220.1605072021484375
 20
501.7646484375
 40
0.0
 41
0.0
 42
0.0
 10
221.5457916259765625
 20
501.5989837646484375
 40
0.0
 41
0.0
 42
0.0
 10
222.9308013916015625
 20
501.430816650390625
 40
0.0
 41
0.0
 42
0.0
 10
224.31549072265625
 20
501.260223388671875
 40
0.0
 41
0.0
 42
0.0
 10
225.6999053955078125
 20
501.0872344970703125
 40
0.0
 41
0.0
 42
0.0
 10
227.083984375
 20
500.911712646484375
 40
0.0
 41
0.0
 42
0.0
 10
228.4677734375
 20
500.733917236328125
 40
0.0
 41
0.0
 42
0.0
 10
229.851287841796875
 20
500.553863525390625
 40
0.0
 41
0.0
 42
0.0
 10
231.2344818115234375
 20
500.3714141845703125
 40
0.0
 41
0.0
 42
0.0
 10
232.6173858642578125
 20
500.1867523193359375
 40
0.0
 41
0.0
 42
0.0
 10
234.0
 20
500.0
 40
0.0
 41
0.0
 42
0.0
  0
HATCH
  5
1F
330
F
100
AcDbEntity
  8
0
  6
ByLayer
420
0
 48
1.0
 60
0
370
-1
100
AcDbHatch
 30
0.0
210
0.0
220
0.0
230
1.0
  2
SOLID
 70
1
 71
0
 91
1
 92
2
 72
0
 73
1
 93
33
 10
222.9111291866641409
 20
507.5522807207589722
 10
223.6041836124976214
 20
507.0802631757115364
 10
224.297238038331102
 20
506.6082456306641006
 10
224.9902924641646109
 20
506.1362280856166649
 10
225.6833468899980915
 20
505.6642105405692291
 10
226.376401315831572
 20
505.1921929955217934
 10
227.069455741665081
 20
504.7201754504743576
 10
227.7625096387399992
 20
504.2481582655477723
 10
228.455564593332042
 20
503.7761403603794861
 10
229.148619019165551
 20
503.3041228153320503
 10
229.8416734449990315
 20
502.8321052702846146
 10
230.5347273420739782
 20
502.3600880853580293
 10
231.2277822966660494
 20
501.888070180189743
 10
231.92083672249953
 20
501.4160526351423073
 10
232.613890090815886
 20
500.9440358103364588
 10
233.3069455741665195
 20
500.4720175450474358
 10
234.0
 20
500.0
 10
233.2065532941007291
 20
499.7287668800388474
 10
232.4131065882014582
 20
499.4575337600776948
 10
231.6196599445341633
 20
499.1863011008488229
 10
230.8262132338478239
 20
498.9150679454466513
 10
230.032766523161456
 20
498.6438347900445365
 10
229.2393204561235223
 20
498.372602125104379
 10
228.445872553881884
 20
498.1013686975973087
 10
227.6524264676956477
 20
497.8301358908933594
 10
226.8589809868611837
 20
497.5589032911237837
 10
226.0655324792677732
 20
497.2876696566822829
 10
225.2720869984333092
 20
497.0164370569127072
 10
224.4786409122470161
 20
496.7452042502087579
 10
223.6851930100054346
 20
496.4739708227016877
 10
222.8917475291709707
 20
496.202738222932112
 10
222.0982996269293324
 20
495.9315047954249849
 10
221.3048529353912954
 20
495.6602717817866619
 97
0
 75
0
 76
1
 47
0.0
 98
0
  0
LWPOLYLINE
  5
20
330
F
100
AcDbEntity
  8
0
  6
ByLayer
420
0
 48
1.0
 60
0
370
-1
100
AcDbPolyline
 90
33
 70
1
 43
0.0
 38
0.0
 39
0.0
210
0.0
220
0.0
230
1.0
 10
222.9111291866641409
 20
507.5522807207589722
 40
0.0
 41
0.0
 42
0.0
 10
223.6041836124976214
 20
507.0802631757115364
 40
0.0
 41
0.0
 42
0.0
 10
224.297238038331102
 20
506.6082456306641006
 40
0.0
 41
0.0
 42
0.0
 10
224.9902924641646109
 20
506.1362280856166649
 40
0.0
 41
0.0
 42
0.0
 10
225.6833468899980915
 20
505.6642105405692291
 40
0.0
 41
0.0
 42
0.0
 10
226.376401315831572
 20
505.1921929955217934
 40
0.0
 41
0.0
 42
0.0
 10
227.069455741665081
 20
504.7201754504743576
 40
0.0
 41
0.0
 42
0.0
 10
227.7625096387399992
 20
504.2481582655477723
 40
0.0
 41
0.0
 42
0.0
 10
228.455564593332042
 20
503.7761403603794861
 40
0.0
 41
0.0
 42
0.0
 10
229.148619019165551
 20
503.3041228153320503
 40
0.0
 41
0.0
 42
0.0
 10
229.8416734449990315
 20
502.8321052702846146
 40
0.0
 41
0.0
 42
0.0
 10
230.5347273420739782
 20
502.3600880853580293
 40
0.0
 41
0.0
 42
0.0
 10
231.2277822966660494
 20
501.888070180189743
 40
0.0
 41
0.0
 42
0.0
 10
231.92083672249953
 20
501.4160526351423073
 40
0.0
 41
0.0
 42
0.0
 10
232.613890090815886
 20
500.9440358103364588
 40
0.0
 41
0.0
 42
0.0
 10
233.3069455741665195
 20
500.4720175450474358
 40
0.0
 41
0.0
 42
0.0
 10
234.0
 20
500.0
 40
0.0
 41
0.0
 42
0.0
 10
233.2065532941007291
 20
499.7287668800388474
 40
0.0
 41
0.0
 42
0.0
 10
232.4131065882014582
 20
499.4575337600776948
 40
0.0
 41
0.0
 42
0.0
 10
231.6196599445341633
 20
499.1863011008488229
 40
0.0
 41
0.0
 42
0.0
 10
230.8262132338478239
 20
498.9150679454466513
 40
0.0
 41
0.0
 42
0.0
 10
230.032766523161456
 20
498.6438347900445365
 40
0.0
 41
0.0
 42
0.0
 10
229.2393204561235223
 20
498.372602125104379
 40
0.0
 41
0.0
 42
0.0
 10
228.445872553881884
 20
498.1013686975973087
 40
0.0
 41
0.0
 42
0.0
 10
227.6524264676956477
 20
497.8301358908933594
 40
0.0
 41
0.0
 42
0.0
 10
226.8589809868611837
 20
497.5589032911237837
 40
0.0
 41
0.0
 42
0.0
 10
226.0655324792677732
 20
497.2876696566822829
 40
0.0
 41
0.0
 42
0.0
 10
225.2720869984333092
 20
497.0164370569127072
 40
0.0
 41
0.0
 42
0.0
 10
224.4786409122470161
 20
496.7452042502087579
 40
0.0
 41
0.0
 42
0.0
 10
223.6851930100054346
 20
496.4739708227016877
 40
0.0
 41
0.0
 42
0.0
 10
222.8917475291709707
 20
496.202738222932112
 40
0.0
 41
0.0
 42
0.0
 10
222.0982996269293324
 20
495.9315047954249849
 40
0.0
 41
0.0
 42
0.0
 10
221.3048529353912954
 20
495.6602717817866619
 40
0.0
 41
0.0
 42
0.0
  0
ENDSEC
  0
SECTION
  2
OBJECTS
  0
DICTIONARY
  5
1
330
0
100
AcDbDictionary
280
0
281
0
  3
ACAD_COLOR
350
0
  3
ACAD_GROUP
350
0
  3
ACAD_LAYOUT
350
0
  3
ACAD_MATERIAL
350
0
  3
ACAD_SORTENTS
350
0
  3
ACAD_MLEADERSTYLE
350
0
  3
ACAD_MLINESTYLE
350
0
  3
ACAD_TABLESTYLE
350
0
  3
ACAD_PLOTSETTINGS
350
0
  3
AcDbVariableDictionary
350
0
  3
ACAD_SCALELIST
350
0
  3
ACAD_VISUALSTYLE
350
0
  3
ACAD_FIELDLIST
350
0
  3
ACAD_IMAGE_DICT
350
0
  0
DICTIONARY
  5
0
330
1
100
AcDbDictionary
280
0
281
0
  0
DICTIONARY
  5
0
330
1
100
AcDbDictionary
280
0
281
0
  0
DICTIONARY
  5
0
330
1
100
AcDbDictionary
280
0
281
0
  0
DICTIONARY
  5
0
330
1
100
AcDbDictionary
280
0
281
0
  0
DICTIONARY
  5
0
330
1
100
AcDbDictionary
280
0
281
0
  0
DICTIONARY
  5
0
330
1
100
AcDbDictionary
280
0
281
0
  0
DICTIONARY
  5
0
330
1
100
AcDbDictionary
280
0
281
0
  0
DICTIONARY
  5
0
330
1
100
AcDbDictionary
280
0
281
0
  0
DICTIONARY
  5
0
330
1
100
AcDbDictionary
280
0
281
0
  0
DICTIONARY
  5
0
330
1
100
AcDbDictionary
280
0
281
0
  0
DICTIONARY
  5
0
330
1
100
AcDbDictionary
280
0
281
0
  0
DICTIONARY
  5
0
330
1
100
AcDbDictionary
280
0
281
0
  0
DICTIONARY
  5
0
330
1
100
AcDbDictionary
280
0
281
0
  0
DICTIONARY
  5
0
330
1
100
AcDbDictionary
280
0
281
0
  0
ENDSEC
  0
EOF
