  0
SECTION
  2
HEADER
  9
$ANGBASE
 50
0.0
  9
$ANGDIR
 70
1
  9
$AUNITS
 70
0
  9
$AUPREC
 70
0
  9
$ATTMODE
 70
1
  9
$DWGCODEPAGE
  3
ANSI_1252
  9
$TDCREATE
 40
2461146.9558283099904656
  9
$CECOLOR
 62
256
  9
$CELTSCALE
 40
1.0
  9
$CELWEIGHT
370
-1
  9
$CLAYER
  8
0
  9
$CELTYPE
  6
ByLayer
  9
$CMLJUST
 70
0
  9
$CMLSCALE
 40
20.0
  9
$CMLSTYLE
  2
Standard
  9
$DIMSTYLE
  2
Standard
  9
$LWDISPLAY
290
0
  9
$EXTNAMES
290
1
  9
$HANDSEED
  5
37
  9
$INSUNITS
 70
0
  9
$LUNITS
 70
2
  9
$LUPREC
 70
4
  9
$LTSCALE
 40
1.0
  9
$MIRRTEXT
 70
0
  9
$INSBASE
 10
0.0
 20
0.0
 30
0.0
  9
$SPLINESEGS
 70
8
  9
$PSLTSCALE
 70
1
  9
$PDMODE
 70
0
  9
$PDSIZE
 40
0.0
  9
$PLINEGEN
 70
0
  9
$TEXTSIZE
 40
0.2
  9
$TEXTSTYLE
  7
Standard
  9
$TDINDWG
 40
0.0
  9
$TDUCREATE
 40
2461146.9558283099904656
  9
$TDUUPDATE
 40
2461146.9558283099904656
  9
$TDUPDATE
 40
2461146.9558283099904656
  9
$ACADVER
  1
AC1018
  0
ENDSEC
  0
SECTION
  2
CLASSES
  0
CLASS
  1
ACDBDICTIONARYWDFLT
  2
AcDbDictionaryWithDefault
  3
ObjectDBX Classes
 90
32768
 91
0
280
0
281
0
  0
CLASS
  1
ACDBPLACEHOLDER
  2
AcDbPlaceHolder
  3
ObjectDBX Classes
 90
0
 91
0
280
0
281
0
  0
CLASS
  1
LAYOUT
  2
AcDbLayout
  3
ObjectDBX Classes
 90
0
 91
0
280
0
281
0
  0
CLASS
  1
DICTIONARYVAR
  2
AcDbDictionaryVar
  3
ObjectDBX Classes
 90
0
 91
0
280
0
281
0
  0
CLASS
  1
TABLESTYLE
  2
AcDbTableStyle
  3
ObjectDBX Classes
 90
4095
 91
0
280
0
281
0
  0
CLASS
  1
MATERIAL
  2
AcDbMaterial
  3
ObjectDBX Classes
 90
1153
 91
0
280
0
281
0
  0
CLASS
  1
VISUALSTYLE
  2
AcDbVisualStyle
  3
ObjectDBX Classes
 90
4095
 91
0
280
0
281
0
  0
CLASS
  1
SCALE
  2
AcDbScale
  3
ObjectDBX Classes
 90
1153
 91
0
280
0
281
0
  0
CLASS
  1
MLEADERSTYLE
  2
AcDbMLeaderStyle
  3
ObjectDBX Classes
 90
4095
 91
0
280
0
281
0
  0
CLASS
  1
CELLSTYLEMAP
  2
AcDbCellStyleMap
  3
ObjectDBX Classes
 90
1152
 91
0
280
0
281
0
  0
CLASS
  1
EXACXREFPANELOBJECT
  2
ExAcXREFPanelObject
  3
ObjectDBX Classes
 90
1025
 91
0
280
0
281
0
  0
CLASS
  1
NPOCOLLECTION
  2
AcDbImpNonPersistentObjectsCollection
  3
ObjectDBX Classes
 90
1153
 91
0
280
0
281
0
  0
CLASS
  1
LAYER_INDEX
  2
AcDbLayerIndex
  3
ObjectDBX Classes
 90
0
 91
0
280
0
281
0
  0
CLASS
  1
SPATIAL_INDEX
  2
AcDbSpatialIndex
  3
ObjectDBX Classes
 90
0
 91
0
280
0
281
0
  0
CLASS
  1
IDBUFFER
  2
AcDbIdBuffer
  3
ObjectDBX Classes
 90
32768
 91
0
280
0
281
0
  0
CLASS
  1
ACDBSECTIONVIEWSTYLE
  2
AcDbSectionViewStyle
  3
ObjectDBX Classes
 90
1025
 91
0
280
0
281
0
  0
CLASS
  1
ACDBDETAILVIEWSTYLE
  2
AcDbDetailViewStyle
  3
ObjectDBX Classes
 90
1025
 91
0
280
0
281
0
  0
CLASS
  1
MESH
  2
AcDbSubDMesh
  3
ObjectDBX Classes
 90
0
 91
0
280
0
281
1
  0
CLASS
  1
SORTENTSTABLE
  2
AcDbSortentsTable
  3
ObjectDBX Classes
 90
0
 91
0
280
0
281
0
  0
CLASS
  1
ACDB_TEXTOBJECTCONTEXTDATA_CLASS
  2
AcDbTextObjectContextData
  3
ObjectDBX Classes
 90
1153
 91
0
280
0
281
0
  0
CLASS
  1
WIPEOUT
  2
AcDbWipeout
  3
WipeOut
 90
32895
 91
0
280
0
281
1
  0
CLASS
  1
WIPEOUTVARIABLES
  2
AcDbWipeoutVariables
  3
WipeOut
 90
32768
 91
0
280
0
281
0
  0
CLASS
  1
DIMASSOC
  2
AcDbDimAssoc
  3
AcDbDimAssoc
 90
0
 91
0
280
0
281
0
  0
CLASS
  1
ACAD_TABLE
  2
AcDbTable
  3
ObjectDBX Classes
 90
1025
 91
0
280
0
281
1
  0
CLASS
  1
TABLECONTENT
  2
AcDbTableContent
  3
ObjectDBX Classes
 90
1152
 91
0
280
0
281
0
  0
CLASS
  1
TABLEGEOMETRY
  2
AcDbTableGeometry
  3
ObjectDBX Classes
 90
1152
 91
0
280
0
281
0
  0
CLASS
  1
IMAGE
  2
AcDbRasterImage
  3
ISM
 90
32895
 91
0
280
0
281
1
  0
CLASS
  1
IMAGEDEF
  2
AcDbRasterImageDef
  3
ISM
 90
0
 91
0
280
0
281
0
  0
CLASS
  1
IMAGEDEF_REACTOR
  2
AcDbRasterImageDefReactor
  3
ISM
 90
1
 91
0
280
0
281
0
  0
CLASS
  1
DBCOLOR
  2
AcDbColor
  3
ObjectDBX Classes
 90
0
 91
0
280
0
281
0
  0
CLASS
  1
GEODATA
  2
AcDbGeoData
  3
ObjectDBX Classes
 90
4095
 91
0
280
0
281
0
  0
CLASS
  1
MULTILEADER
  2
AcDbMLeader
  3
ObjectDBX Classes
 90
1025
 91
0
280
0
281
0
  0
CLASS
  1
PDFUNDERLAY
  2
AcDbPdfReference
  3
ObjectDBX Classes
 90
4095
 91
0
280
0
281
1
  0
CLASS
  1
PDFDEFINITION
  2
AcDbPdfDefinition
  3
ObjectDBX Classes
 90
1153
 91
0
280
0
281
0
  0
CLASS
  1
RASTERVARIABLES
  2
AcDbRasterVariables
  3
ISM
 90
0
 91
0
280
0
281
0
  0
CLASS
  1
SPATIAL_FILTER
  2
AcDbSpatialFilter
  3
ObjectDBX Classes
 90
0
 91
0
280
0
281
0
  0
CLASS
  1
ACDB_MLEADEROBJECTCONTEXTDATA_CLASS
  2
AcDbMLeaderObjectContextData
  3
ObjectDBX Classes
 90
1025
 91
0
280
0
281
0
  0
CLASS
  1
PLOTSETTINGS
  2
AcDbPlotSettings
  3
ObjectDBX Classes
 90
0
 91
0
280
0
281
0
  0
CLASS
  1
FIELD
  2
AcDbField
  3
ObjectDBX Classes
 90
1152
 91
0
280
0
281
0
  0
CLASS
  1
FIELDLIST
  2
AcDbFieldList
  3
ObjectDBX Classes
 90
1152
 91
0
280
0
281
0
  0
CLASS
  1
ACDB_MTEXTATTRIBUTEOBJECTCONTEXTDATA_CLASS
  2
AcDbMTextAttributeObjectContextData
  3
ObjectDBX Classes
 90
1153
 91
0
280
0
281
0
  0
CLASS
  1
ACDB_BLKREFOBJECTCONTEXTDATA_CLASS
  2
AcDbBlkRefObjectContextData
  3
ObjectDBX Classes
 90
1153
 91
0
280
0
281
0
  0
ENDSEC
  0
SECTION
  2
TABLES
  0
TABLE
  2
VPORT
  5
18
330
0
100
AcDbSymbolTable
 70
1
  0
VPORT
  5
26
330
18
100
AcDbSymbolTableRecord
100
AcDbViewportTableRecord
  2
*Active
 70
0
 10
0.0
 20
0.0
 11
1.0
 21
1.0
 12
0.0
 22
0.0
 13
0.0
 23
0.0
 14
0.5
 24
0.5
 15
10.0
 25
10.0
 16
0.0
 26
0.0
 36
1.0
 17
0.0
 27
0.0
 37
0.0
 40
10.0
 41
1.0
 75
0
 76
1
  0
ENDTAB
  0
TABLE
  2
LTYPE
  5
14
330
0
100
AcDbSymbolTable
 70
3
  0
LTYPE
  5
19
330
14
100
AcDbSymbolTableRecord
100
AcDbLinetypeTableRecord
  2
ByLayer
 70
0
 72
0
 73
0
 40
0.0
  0
LTYPE
  5
1A
330
14
100
AcDbSymbolTableRecord
100
AcDbLinetypeTableRecord
  2
ByBlock
 70
0
 72
0
 73
0
 40
0.0
  0
LTYPE
  5
1B
330
14
100
AcDbSymbolTableRecord
100
AcDbLinetypeTableRecord
  2
Continuous
 70
0
 72
0
 73
0
 40
0.0
  0
ENDTAB
  0
TABLE
  2
LAYER
  5
13
330
0
100
AcDbSymbolTable
 70
1
  0
LAYER
  5
1C
330
13
100
AcDbSymbolTableRecord
100
AcDbLayerTableRecord
  2
0
 70
0
 62
7
  6
Continuous
290
1
370
-3
390
0
  0
ENDTAB
  0
TABLE
  2
STYLE
  5
15
330
0
100
AcDbSymbolTable
 70
1
  0
STYLE
  5
23
330
15
100
AcDbSymbolTableRecord
100
AcDbTextStyleTableRecord
  2
Standard
 70
0
 40
0.0
 41
1.0
 42
0.0
 50
0.0
 71
0
  0
ENDTAB
  0
TABLE
  2
VIEW
  5
17
330
0
100
AcDbSymbolTable
 70
0
  0
ENDTAB
  0
TABLE
  2
UCS
  5
16
330
0
100
AcDbSymbolTable
 70
0
  0
ENDTAB
  0
TABLE
  2
APPID
  5
10
330
0
100
AcDbSymbolTable
 70
1
  0
APPID
  5
25
330
10
100
AcDbSymbolTableRecord
100
AcDbRegAppTableRecord
  2
ACAD
 70
0
  0
ENDTAB
  0
TABLE
  2
DIMSTYLE
  5
12
330
0
100
AcDbSymbolTable
 70
1
100
AcDbDimStyleTable
  0
DIMSTYLE
105
24
330
12
100
AcDbSymbolTableRecord
100
AcDbDimStyleTableRecord
  2
Standard
 70
0
  3
<>
  4
[]
 40
1.0
 41
0.18
 42
0.625
 43
3.75
 44
1.25
 45
0.0
 46
0.0
 47
0.0
 48
0.0
 49
1.0
 50
45.0
 70
0
 90
0
140
0.18
141
0.09
142
0.0
143
25.3999999999999986
144
1.0
145
0.0
146
1.0
147
0.625
148
0.0
 71
0
 72
0
 73
0
 74
0
 75
0
 76
0
 77
1
 78
8
 79
0
170
0
171
3
172
0
173
1
174
0
175
0
176
0
177
0
178
0
179
0
271
2
272
2
273
2
274
3
275
0
276
0
277
2
278
46
279
0
280
0
281
0
282
0
283
0
284
8
285
0
286
0
287
0
288
0
289
3
290
0
340
0
371
-2
372
-2
  0
ENDTAB
  0
TABLE
  2
BLOCK_RECORD
  5
11
330
0
100
AcDbSymbolTable
 70
2
  0
BLOCK_RECORD
  5
1D
330
11
100
AcDbSymbolTableRecord
100
AcDbBlockTableRecord
  2
*Model_Space
 70
0
340
0
 70
0
280
0
281
1
  0
BLOCK_RECORD
  5
20
330
11
100
AcDbSymbolTableRecord
100
AcDbBlockTableRecord
  2
*Paper_Space
 70
0
340
0
 70
0
280
0
281
1
  0
ENDTAB
  0
ENDSEC
  0
SECTION
  2
BLOCKS
  0
BLOCK
  5
1E
330
1D
100
AcDbEntity
  8
0
  6
ByLayer
 62
256
 48
1.0
 60
0
 67
0
370
-1
100
AcDbBlockBegin
  2
*Model_Space
 70
0
 10
0.0
 20
0.0
 30
0.0
  3
*Model_Space
  0
ENDBLK
  5
1F
330
1D
100
AcDbEntity
  8
0
100
AcDbBlockEnd
  0
BLOCK
  5
21
330
20
100
AcDbEntity
  8
0
  6
ByLayer
 62
256
 48
1.0
 60
0
 67
1
370
-1
100
AcDbBlockBegin
  2
*Paper_Space
 70
0
 10
0.0
 20
0.0
 30
0.0
  3
*Paper_Space
  0
ENDBLK
  5
22
330
20
100
AcDbEntity
  8
0
100
AcDbBlockEnd
  0
ENDSEC
  0
SECTION
  2
ENTITIES
  0
LWPOLYLINE
  5
27
330
1D
100
AcDbEntity
  8
0
  6
ByLayer
420
0
 48
1.0
 60
0
 67
0
370
-1
100
AcDbPolyline
 90
32
 70
1
 43
0.0
 38
0.0
 39
0.0
210
0.0
220
0.0
230
1.0
 10
175.500008861973356
 20
168.7269760226595281
 40
0.0
 41
0.0
 42
0.0
 10
176.5193598101474493
 20
168.6211027892589982
 40
0.0
 41
0.0
 42
0.0
 10
177.4995376730418002
 20
168.3075517380426049
 40
0.0
 41
0.0
 42
0.0
 10
178.4028747650754667
 20
167.7983724600671565
 40
0.0
 41
0.0
 42
0.0
 10
179.1946563483988655
 20
167.113132429434188
 40
0.0
 41
0.0
 42
0.0
 10
179.8444547008011227
 20
166.2781650362339008
 40
0.0
 41
0.0
 42
0.0
 10
180.3272984360105227
 20
165.325557609131863
 40
0.0
 41
0.0
 42
0.0
 10
180.6246321400648469
 20
164.2919183173232511
 40
0.0
 41
0.0
 42
0.0
 10
180.7250294454639743
 20
163.2169693391206238
 40
0.0
 41
0.0
 42
0.0
 10
180.6246321400648469
 20
162.1420203609179964
 40
0.0
 41
0.0
 42
0.0
 10
180.3272984360105227
 20
161.1083810691093845
 40
0.0
 41
0.0
 42
0.0
 10
179.8444547008011227
 20
160.1557736420073468
 40
0.0
 41
0.0
 42
0.0
 10
179.1946563483988655
 20
159.3208062488070595
 40
0.0
 41
0.0
 42
0.0
 10
178.4028747650754667
 20
158.6355662181740911
 40
0.0
 41
0.0
 42
0.0
 10
177.4995376730418002
 20
158.1263869401986426
 40
0.0
 41
0.0
 42
0.0
 10
176.5193598101474493
 20
157.8128358889822493
 40
0.0
 41
0.0
 42
0.0
 10
175.500008861973356
 20
157.7069626555817194
 40
0.0
 41
0.0
 42
0.0
 10
174.4806579137992628
 20
157.8128358889822493
 40
0.0
 41
0.0
 42
0.0
 10
173.5004800509049119
 20
158.1263869401986426
 40
0.0
 41
0.0
 42
0.0
 10
172.5971429588712454
 20
158.6355662181740911
 40
0.0
 41
0.0
 42
0.0
 10
171.8053613755478466
 20
159.3208062488070595
 40
0.0
 41
0.0
 42
0.0
 10
171.1555630231455893
 20
160.1557736420073468
 40
0.0
 41
0.0
 42
0.0
 10
170.6727192879361894
 20
161.1083810691093845
 40
0.0
 41
0.0
 42
0.0
 10
170.3753855838818652
 20
162.1420203609179964
 40
0.0
 41
0.0
 42
0.0
 10
170.2749882784827378
 20
163.2169693391206238
 40
0.0
 41
0.0
 42
0.0
 10
170.3753855838818652
 20
164.2919183173232511
 40
0.0
 41
0.0
 42
0.0
 10
170.6727192879361894
 20
165.325557609131863
 40
0.0
 41
0.0
 42
0.0
 10
171.1555630231455893
 20
166.2781650362339008
 40
0.0
 41
0.0
 42
0.0
 10
171.8053613755478466
 20
167.113132429434188
 40
0.0
 41
0.0
 42
0.0
 10
172.5971429588712454
 20
167.7983724600671565
 40
0.0
 41
0.0
 42
0.0
 10
173.5004800509049119
 20
168.3075517380426049
 40
0.0
 41
0.0
 42
0.0
 10
174.4806579137992628
 20
168.6211027892589982
 40
0.0
 41
0.0
 42
0.0
  0
HATCH
  5
28
330
1D
100
AcDbEntity
  8
0
  6
ByLayer
420
0
 48
1.0
 60
0
 67
0
370
-1
100
AcDbHatch
 30
0.0
210
0.0
220
0.0
230
1.0
  2
SOLID
 70
1
 71
0
 91
1
 92
2
 72
0
 73
1
 93
304
 10
175.7708785595168592
 20
148.1428304851599478
 10
179.0591878876439296
 20
148.1428304851599478
 10
180.6868802859680727
 20
148.0854388017405654
 10
180.6097298964159563
 20
147.9691270988773795
 10
180.5325669498342904
 20
147.8528145074467375
 10
180.455416560282174
 20
147.7365019160160955
 10
180.3782536137005081
 20
147.6201893245854535
 10
180.3010906671188422
 20
147.5038776217222676
 10
180.2239402775667259
 20
147.3875650302916256
 10
180.14677733098506
 20
147.2712528831447116
 10
180.0696269414329436
 20
147.1549402917140696
 10
179.9924639948512777
 20
147.0386281445671557
 10
179.9153136052991613
 20
146.9223155531365137
 10
179.8381506587174954
 20
146.8060034059895997
 10
179.761000269165379
 20
146.6896912588426858
 10
179.6838373225837131
 20
146.5733786674120438
 10
179.6066869330315967
 20
146.4570665202651298
 10
179.5295239864499308
 20
146.3407539288344879
 10
179.4523735968978144
 20
146.2244417816875739
 10
179.3752106503161485
 20
146.1081291902569319
 10
179.2980477037344826
 20
145.9918170431100179
 10
179.2208973141823662
 20
145.875504895963104
 10
179.1437343676007004
 20
145.759192304532462
 10
179.066583978048584
 20
145.642880157385548
 10
178.9894210314669181
 20
145.5265680102386341
 10
178.9122706419148017
 20
145.4102554188079921
 10
178.8351076953331358
 20
145.2939432716610781
 10
178.7579573057810194
 20
145.1776311245141642
 10
178.6807943591993535
 20
145.0613185330835222
 10
178.6036439696472371
 20
144.9450059416528802
 10
178.5264810230655712
 20
144.8286937945059663
 10
178.4493306335134548
 20
144.7123816473590523
 10
178.3721676869317889
 20
144.5960690559284103
 10
178.2950172973796725
 20
144.4797569087814963
 10
178.2178543507980066
 20
144.3634443173508544
 10
178.1406914042163407
 20
144.2471321702039404
 10
178.0635410146642243
 20
144.1308195787732984
 10
177.9863780680825585
 20
144.0145074316263845
 10
177.9092276785304421
 20
143.8981952844794705
 10
177.8320647319487762
 20
143.7818831373325565
 10
177.7549143423966598
 20
143.6655705459019146
 10
177.6777513958149939
 20
143.5492583987550006
 10
177.6006010062628775
 20
143.4329458073243586
 10
177.5234380596812116
 20
143.3166336601774447
 10
177.4462876701290952
 20
143.2003210687468027
 10
177.3691247235474293
 20
143.0840089215998887
 10
177.2919743339953129
 20
142.9676967744529748
 10
177.214811387413647
 20
142.8513846273060608
 10
177.1376609978615306
 20
142.7350720358754188
 10
177.0604980512798647
 20
142.6187598887285048
 10
176.9833351046981988
 20
142.5024472972978629
 10
176.9061847151460825
 20
142.3861351501509489
 10
176.8290217685644166
 20
142.2698225587203069
 10
176.7518713790123002
 20
142.153510411573393
 10
176.6747084324306343
 20
142.037197820142751
 10
176.5975580428785179
 20
141.920886117279565
 10
176.520395096296852
 20
141.8045735258489231
 10
176.4432447067447356
 20
141.6882609344182811
 10
176.3660817601630697
 20
141.5719487872713671
 10
176.2889313706109533
 20
141.4556361958407251
 10
176.2117684240292874
 20
141.3393240486938112
 10
176.134618034477171
 20
141.2230114572631692
 10
176.0574550878955051
 20
141.1066993101162552
 10
175.9802921413138392
 20
140.9903867186856132
 10
175.9031417517617228
 20
140.8740750158224273
 10
175.825978805180057
 20
140.7577628686755133
 10
175.7488284156279406
 20
140.6414498329611433
 10
175.6716654690462747
 20
140.5251372415305013
 10
175.5945150794941583
 20
140.4088246500998594
 10
175.5173521329124924
 20
140.2925138358041295
 10
175.440176629301277
 20
140.3593724279712944
 10
175.3630011256900616
 20
140.4756849638664562
 10
175.2858130650492967
 20
140.5919974997616464
 10
175.2086375614380813
 20
140.7083090915539003
 10
175.1314495007973164
 20
140.8246216829845423
 10
175.054273997186101
 20
140.9409341633442523
 10
174.9770859365453362
 20
141.0572467547748943
 10
174.8999104329341208
 20
141.1735583465671482
 10
174.8227223722933559
 20
141.2898708269268582
 10
174.7455468686821405
 20
141.4061834183575002
 10
174.6683588080413756
 20
141.5224958987172101
 10
174.5911833044301602
 20
141.6388074905094641
 10
174.5139952437893953
 20
141.755120081940106
 10
174.4368197401781799
 20
141.871432673370748
 10
174.359631679537415
 20
141.98774526480139
 10
174.2824561759261996
 20
142.104057634090168
 10
174.2052681152854348
 20
142.2203693369533539
 10
174.1280926116742194
 20
142.3366819283839959
 10
174.0509045510334545
 20
142.4529942976727739
 10
173.9737290474222391
 20
142.5693068891034159
 10
173.8965409867814742
 20
142.6856185919666018
 10
173.8193654831702588
 20
142.8019309612553798
 10
173.7421774225294939
 20
142.9182435526860218
 10
173.6650019189182785
 20
143.0345561441166637
 10
173.5878264153070631
 20
143.1508678469798497
 10
173.5106383546662983
 20
143.2671802162686276
 10
173.4334628510550829
 20
143.3834928076992696
 10
173.356274790414318
 20
143.4998053991299116
 10
173.2790992868031026
 20
143.6161168798512335
 10
173.2019112261623377
 20
143.7324294712818755
 10
173.1247357225511223
 20
143.8487420627125175
 10
173.0475476619103574
 20
143.9650546541431595
 10
172.970372158299142
 20
144.0813663570063454
 10
172.8931840976583771
 20
144.1976785041532594
 10
172.8160085940471618
 20
144.3139910955839014
 10
172.7388205334063969
 20
144.4303036870145434
 10
172.6616450297951815
 20
144.5466153898777293
 10
172.5844569691544166
 20
144.6629279813083713
 10
172.5072814655432012
 20
144.7792405727390133
 10
172.4300934049024363
 20
144.8955531641696552
 10
172.3529179012912209
 20
145.0118644227491131
 10
172.275729840650456
 20
145.1281770141797551
 10
172.1985543370392406
 20
145.2444896056103971
 10
172.1213662763984757
 20
145.3608021970410391
 10
172.0441907727872604
 20
145.4771147884716811
 10
171.9670027121464955
 20
145.593426491334867
 10
171.8898272085352801
 20
145.709739082765509
 10
171.8126391478945152
 20
145.826051229912423
 10
171.7354636442832998
 20
145.942363821343065
 10
171.6582755836425349
 20
146.0586755242062509
 10
171.5811000800313195
 20
146.1749881156368929
 10
171.5039120193905546
 20
146.2913007070675349
 10
171.4267365157793392
 20
146.4076132984981768
 10
171.3495484551385744
 20
146.5239250013613628
 10
171.272372951527359
 20
146.6402371485082767
 10
171.1951974479161436
 20
146.7565497399389187
 10
171.1180093872753787
 20
146.8728623313695607
 10
171.0408338836641633
 20
146.9891740342327466
 10
170.9636458230233984
 20
147.1054866256633886
 10
170.886470319412183
 20
147.2217992170940306
 10
170.8092822587714181
 20
147.3381118085246726
 10
170.7321067551602027
 20
147.4544252885227706
 10
170.6549186945194378
 20
147.5707352142510445
 10
170.5777431909082225
 20
147.6870486942491425
 10
170.5005551302674576
 20
147.8033621742472405
 10
170.4233796266562422
 20
147.9196720999755144
 10
170.3461915660154773
 20
148.0359855799736124
 10
170.5429853331152117
 20
148.1428304851599478
 10
173.831219319064985
 20
148.1428304851599478
 10
175.2293817742538522
 20
148.2097067376053019
 10
175.2293817742538522
 20
148.3260522060318181
 10
175.2293817742538522
 20
148.4423976744583342
 10
175.2293817742538522
 20
148.5587395886150262
 10
175.2293817742538522
 20
148.6750850570415423
 10
175.2293817742538522
 20
148.7914305254680585
 10
175.2293817742538522
 20
148.9077724396247504
 10
175.2293817742538522
 20
149.0241179080512666
 10
175.2293817742538522
 20
149.1404633764777827
 10
175.2293817742538522
 20
149.2568052906344747
 10
175.2293817742538522
 20
149.3731507590609908
 10
175.2293817742538522
 20
149.489496227487507
 10
175.2293817742538522
 20
149.6058381416441989
 10
175.2293817742538522
 20
149.7221836100707151
 10
175.2293817742538522
 20
149.8385290784972312
 10
175.2293817742538522
 20
149.9548709926539232
 10
175.2293817742538522
 20
150.0712164610804393
 10
175.2293817742538522
 20
150.1875619295069555
 10
175.2293817742538522
 20
150.3039073979334717
 10
175.2293817742538522
 20
150.4202493120901636
 10
175.2293817742538522
 20
150.5365947805166797
 10
175.2293817742538522
 20
150.6529402489431959
 10
175.2293817742538522
 20
150.7692821630998878
 10
175.2293817742538522
 20
150.885627631526404
 10
175.2293817742538522
 20
151.0019730999529202
 10
175.2293817742538522
 20
151.1183150141096121
 10
175.2293817742538522
 20
151.2346604825361283
 10
175.2293817742538522
 20
151.3510059509626444
 10
175.2293817742538522
 20
151.4673478651193363
 10
175.2293817742538522
 20
151.5836933335458525
 10
175.2293817742538522
 20
151.7000388019723687
 10
175.2293817742538522
 20
151.8163842703988848
 10
175.2293817742538522
 20
151.9327261845555768
 10
175.2293817742538522
 20
152.0490716529820929
 10
175.2293817742538522
 20
152.1654171214086091
 10
175.2293817742538522
 20
152.281759035565301
 10
175.2293817742538522
 20
152.3981045039918172
 10
175.2293817742538522
 20
152.5144499724183333
 10
175.2293817742538522
 20
152.6307918865750253
 10
175.2293817742538522
 20
152.7471373550015414
 10
175.2293817742538522
 20
152.8634828234280576
 10
175.2293817742538522
 20
152.9798247375847495
 10
175.2293817742538522
 20
153.0961702060112657
 10
175.2293817742538522
 20
153.2125156744377819
 10
175.2293817742538522
 20
153.3288575885944738
 10
175.2293817742538522
 20
153.4452030570209899
 10
175.2293817742538522
 20
153.5615485254475061
 10
175.2293817742538522
 20
153.6778939938740223
 10
175.2293817742538522
 20
153.7942359080307142
 10
175.2293817742538522
 20
153.9105813764572304
 10
175.2293817742538522
 20
154.0269268448837465
 10
175.2293817742538522
 20
154.1432687590404385
 10
175.2293817742538522
 20
154.2596142274669546
 10
175.2293817742538522
 20
154.3759596958934708
 10
175.2293817742538522
 20
154.4923016100501627
 10
175.2293817742538522
 20
154.6086470784766789
 10
175.2293817742538522
 20
154.724992546903195
 10
175.2293817742538522
 20
154.841334461059887
 10
175.2293817742538522
 20
154.9576799294864031
 10
175.2293817742538522
 20
155.0740253979129193
 10
175.2293817742538522
 20
155.1903708663394355
 10
175.2293817742538522
 20
155.3067127804961274
 10
175.2293817742538522
 20
155.4230582489226435
 10
175.2293817742538522
 20
155.5394037173491597
 10
175.2293817742538522
 20
155.6557456315058516
 10
175.2293817742538522
 20
155.7720910999323678
 10
175.2293817742538522
 20
155.888436568358884
 10
175.2293817742538522
 20
156.0047784825155759
 10
175.2293817742538522
 20
156.1211239509420921
 10
175.2293817742538522
 20
156.2374694193686082
 10
175.2293817742538522
 20
156.3538113335253001
 10
175.2293817742538522
 20
156.4701568019518163
 10
175.2293817742538522
 20
156.5865022703783325
 10
175.2293817742538522
 20
156.7028441845350244
 10
175.2293817742538522
 20
156.8191896529615406
 10
175.2293817742538522
 20
156.9355351213880567
 10
175.2293817742538522
 20
157.0518805898145729
 10
175.2293817742538522
 20
157.1682225039712648
 10
175.2293817742538522
 20
157.284567972397781
 10
175.2293817742538522
 20
157.4009134408242971
 10
175.2293817742538522
 20
157.5172553549809891
 10
175.2293817742538522
 20
157.6336008234075052
 10
175.7708785595168592
 20
157.683065596551387
 10
175.7708785595168592
 20
157.5667236823946951
 10
175.7708785595168592
 20
157.4503782139681789
 10
175.7708785595168592
 20
157.3340327455416627
 10
175.7708785595168592
 20
157.2176908313849708
 10
175.7708785595168592
 20
157.1013453629584546
 10
175.7708785595168592
 20
156.9849998945319385
 10
175.7708785595168592
 20
156.8686544261054223
 10
175.7708785595168592
 20
156.7523125119487304
 10
175.7708785595168592
 20
156.6359670435222142
 10
175.7708785595168592
 20
156.5196215750956981
 10
175.7708785595168592
 20
156.4032796609390061
 10
175.7708785595168592
 20
156.28693419251249
 10
175.7708785595168592
 20
156.1705887240859738
 10
175.7708785595168592
 20
156.0542468099292819
 10
175.7708785595168592
 20
155.9379013415027657
 10
175.7708785595168592
 20
155.8215558730762496
 10
175.7708785595168592
 20
155.7052139589195576
 10
175.7708785595168592
 20
155.5888684904930415
 10
175.7708785595168592
 20
155.4725230220665253
 10
175.7708785595168592
 20
155.3561811079098334
 10
175.7708785595168592
 20
155.2398356394833172
 10
175.7708785595168592
 20
155.123490171056801
 10
175.7708785595168592
 20
155.0071447026302849
 10
175.7708785595168592
 20
154.890802788473593
 10
175.7708785595168592
 20
154.7744573200470768
 10
175.7708785595168592
 20
154.6581118516205606
 10
175.7708785595168592
 20
154.5417699374638687
 10
175.7708785595168592
 20
154.4254244690373525
 10
175.7708785595168592
 20
154.3090790006108364
 10
175.7708785595168592
 20
154.1927370864541444
 10
175.7708785595168592
 20
154.0763916180276283
 10
175.7708785595168592
 20
153.9600461496011121
 10
175.7708785595168592
 20
153.8437042354444202
 10
175.7708785595168592
 20
153.727358767017904
 10
175.7708785595168592
 20
153.6110132985913879
 10
175.7708785595168592
 20
153.4946713844346959
 10
175.7708785595168592
 20
153.3783259160081798
 10
175.7708785595168592
 20
153.2619804475816636
 10
175.7708785595168592
 20
153.1456385334249717
 10
175.7708785595168592
 20
153.0292930649984555
 10
175.7708785595168592
 20
152.9129475965719394
 10
175.7708785595168592
 20
152.7966056824152474
 10
175.7708785595168592
 20
152.6802602139887313
 10
175.7708785595168592
 20
152.5639147455622151
 10
175.7708785595168592
 20
152.4475728314055232
 10
175.7708785595168592
 20
152.331227362979007
 10
175.7708785595168592
 20
152.2148818945524908
 10
175.7708785595168592
 20
152.0985364261259747
 10
175.7708785595168592
 20
151.9821945119692828
 10
175.7708785595168592
 20
151.8658490435427666
 10
175.7708785595168592
 20
151.7495035751162504
 10
175.7708785595168592
 20
151.6331616609595585
 10
175.7708785595168592
 20
151.5168161925330423
 10
175.7708785595168592
 20
151.4004707241065262
 10
175.7708785595168592
 20
151.2841288099498342
 10
175.7708785595168592
 20
151.1677833415233181
 10
175.7708785595168592
 20
151.0514378730968019
 10
175.7708785595168592
 20
150.93509595894011
 10
175.7708785595168592
 20
150.8187504905135938
 10
175.7708785595168592
 20
150.7024050220870777
 10
175.7708785595168592
 20
150.5860595536605615
 10
175.7708785595168592
 20
150.4697176395038696
 10
175.7708785595168592
 20
150.3533721710773534
 10
175.7708785595168592
 20
150.2370267026508373
 10
175.7708785595168592
 20
150.1206847884941453
 10
175.7708785595168592
 20
150.0043393200676292
 10
175.7708785595168592
 20
149.887993851641113
 10
175.7708785595168592
 20
149.7716519374844211
 10
175.7708785595168592
 20
149.6553064690579049
 10
175.7708785595168592
 20
149.5389610006313887
 10
175.7708785595168592
 20
149.4226190864746968
 10
175.7708785595168592
 20
149.3062736180481807
 10
175.7708785595168592
 20
149.1899281496216645
 10
175.7708785595168592
 20
149.0735862354649726
 10
175.7708785595168592
 20
148.9572407670384564
 10
175.7708785595168592
 20
148.8408952986119402
 10
175.7708785595168592
 20
148.7245498301854241
 10
175.7708785595168592
 20
148.6082079160287321
 10
175.7708785595168592
 20
148.491862447602216
 10
175.7708785595168592
 20
148.3755169791756998
 10
175.7708785595168592
 20
148.2591750650190079
 10
175.7708785595168592
 20
148.1428304851599478
 97
0
 75
0
 76
1
 47
0.0
 98
0
  0
LWPOLYLINE
  5
29
330
1D
100
AcDbEntity
  8
0
  6
ByLayer
420
0
 48
1.0
 60
0
 67
0
370
-1
100
AcDbPolyline
 90
304
 70
1
 43
0.0
 38
0.0
 39
0.0
210
0.0
220
0.0
230
1.0
 10
175.7708785595168592
 20
148.1428304851599478
 40
0.0
 41
0.0
 42
0.0
 10
179.0591878876439296
 20
148.1428304851599478
 40
0.0
 41
0.0
 42
0.0
 10
180.6868802859680727
 20
148.0854388017405654
 40
0.0
 41
0.0
 42
0.0
 10
180.6097298964159563
 20
147.9691270988773795
 40
0.0
 41
0.0
 42
0.0
 10
180.5325669498342904
 20
147.8528145074467375
 40
0.0
 41
0.0
 42
0.0
 10
180.455416560282174
 20
147.7365019160160955
 40
0.0
 41
0.0
 42
0.0
 10
180.3782536137005081
 20
147.6201893245854535
 40
0.0
 41
0.0
 42
0.0
 10
180.3010906671188422
 20
147.5038776217222676
 40
0.0
 41
0.0
 42
0.0
 10
180.2239402775667259
 20
147.3875650302916256
 40
0.0
 41
0.0
 42
0.0
 10
180.14677733098506
 20
147.2712528831447116
 40
0.0
 41
0.0
 42
0.0
 10
180.0696269414329436
 20
147.1549402917140696
 40
0.0
 41
0.0
 42
0.0
 10
179.9924639948512777
 20
147.0386281445671557
 40
0.0
 41
0.0
 42
0.0
 10
179.9153136052991613
 20
146.9223155531365137
 40
0.0
 41
0.0
 42
0.0
 10
179.8381506587174954
 20
146.8060034059895997
 40
0.0
 41
0.0
 42
0.0
 10
179.761000269165379
 20
146.6896912588426858
 40
0.0
 41
0.0
 42
0.0
 10
179.6838373225837131
 20
146.5733786674120438
 40
0.0
 41
0.0
 42
0.0
 10
179.6066869330315967
 20
146.4570665202651298
 40
0.0
 41
0.0
 42
0.0
 10
179.5295239864499308
 20
146.3407539288344879
 40
0.0
 41
0.0
 42
0.0
 10
179.4523735968978144
 20
146.2244417816875739
 40
0.0
 41
0.0
 42
0.0
 10
179.3752106503161485
 20
146.1081291902569319
 40
0.0
 41
0.0
 42
0.0
 10
179.2980477037344826
 20
145.9918170431100179
 40
0.0
 41
0.0
 42
0.0
 10
179.2208973141823662
 20
145.875504895963104
 40
0.0
 41
0.0
 42
0.0
 10
179.1437343676007004
 20
145.759192304532462
 40
0.0
 41
0.0
 42
0.0
 10
179.066583978048584
 20
145.642880157385548
 40
0.0
 41
0.0
 42
0.0
 10
178.9894210314669181
 20
145.5265680102386341
 40
0.0
 41
0.0
 42
0.0
 10
178.9122706419148017
 20
145.4102554188079921
 40
0.0
 41
0.0
 42
0.0
 10
178.8351076953331358
 20
145.2939432716610781
 40
0.0
 41
0.0
 42
0.0
 10
178.7579573057810194
 20
145.1776311245141642
 40
0.0
 41
0.0
 42
0.0
 10
178.6807943591993535
 20
145.0613185330835222
 40
0.0
 41
0.0
 42
0.0
 10
178.6036439696472371
 20
144.9450059416528802
 40
0.0
 41
0.0
 42
0.0
 10
178.5264810230655712
 20
144.8286937945059663
 40
0.0
 41
0.0
 42
0.0
 10
178.4493306335134548
 20
144.7123816473590523
 40
0.0
 41
0.0
 42
0.0
 10
178.3721676869317889
 20
144.5960690559284103
 40
0.0
 41
0.0
 42
0.0
 10
178.2950172973796725
 20
144.4797569087814963
 40
0.0
 41
0.0
 42
0.0
 10
178.2178543507980066
 20
144.3634443173508544
 40
0.0
 41
0.0
 42
0.0
 10
178.1406914042163407
 20
144.2471321702039404
 40
0.0
 41
0.0
 42
0.0
 10
178.0635410146642243
 20
144.1308195787732984
 40
0.0
 41
0.0
 42
0.0
 10
177.9863780680825585
 20
144.0145074316263845
 40
0.0
 41
0.0
 42
0.0
 10
177.9092276785304421
 20
143.8981952844794705
 40
0.0
 41
0.0
 42
0.0
 10
177.8320647319487762
 20
143.7818831373325565
 40
0.0
 41
0.0
 42
0.0
 10
177.7549143423966598
 20
143.6655705459019146
 40
0.0
 41
0.0
 42
0.0
 10
177.6777513958149939
 20
143.5492583987550006
 40
0.0
 41
0.0
 42
0.0
 10
177.6006010062628775
 20
143.4329458073243586
 40
0.0
 41
0.0
 42
0.0
 10
177.5234380596812116
 20
143.3166336601774447
 40
0.0
 41
0.0
 42
0.0
 10
177.4462876701290952
 20
143.2003210687468027
 40
0.0
 41
0.0
 42
0.0
 10
177.3691247235474293
 20
143.0840089215998887
 40
0.0
 41
0.0
 42
0.0
 10
177.2919743339953129
 20
142.9676967744529748
 40
0.0
 41
0.0
 42
0.0
 10
177.214811387413647
 20
142.8513846273060608
 40
0.0
 41
0.0
 42
0.0
 10
177.1376609978615306
 20
142.7350720358754188
 40
0.0
 41
0.0
 42
0.0
 10
177.0604980512798647
 20
142.6187598887285048
 40
0.0
 41
0.0
 42
0.0
 10
176.9833351046981988
 20
142.5024472972978629
 40
0.0
 41
0.0
 42
0.0
 10
176.9061847151460825
 20
142.3861351501509489
 40
0.0
 41
0.0
 42
0.0
 10
176.8290217685644166
 20
142.2698225587203069
 40
0.0
 41
0.0
 42
0.0
 10
176.7518713790123002
 20
142.153510411573393
 40
0.0
 41
0.0
 42
0.0
 10
176.6747084324306343
 20
142.037197820142751
 40
0.0
 41
0.0
 42
0.0
 10
176.5975580428785179
 20
141.920886117279565
 40
0.0
 41
0.0
 42
0.0
 10
176.520395096296852
 20
141.8045735258489231
 40
0.0
 41
0.0
 42
0.0
 10
176.4432447067447356
 20
141.6882609344182811
 40
0.0
 41
0.0
 42
0.0
 10
176.3660817601630697
 20
141.5719487872713671
 40
0.0
 41
0.0
 42
0.0
 10
176.2889313706109533
 20
141.4556361958407251
 40
0.0
 41
0.0
 42
0.0
 10
176.2117684240292874
 20
141.3393240486938112
 40
0.0
 41
0.0
 42
0.0
 10
176.134618034477171
 20
141.2230114572631692
 40
0.0
 41
0.0
 42
0.0
 10
176.0574550878955051
 20
141.1066993101162552
 40
0.0
 41
0.0
 42
0.0
 10
175.9802921413138392
 20
140.9903867186856132
 40
0.0
 41
0.0
 42
0.0
 10
175.9031417517617228
 20
140.8740750158224273
 40
0.0
 41
0.0
 42
0.0
 10
175.825978805180057
 20
140.7577628686755133
 40
0.0
 41
0.0
 42
0.0
 10
175.7488284156279406
 20
140.6414498329611433
 40
0.0
 41
0.0
 42
0.0
 10
175.6716654690462747
 20
140.5251372415305013
 40
0.0
 41
0.0
 42
0.0
 10
175.5945150794941583
 20
140.4088246500998594
 40
0.0
 41
0.0
 42
0.0
 10
175.5173521329124924
 20
140.2925138358041295
 40
0.0
 41
0.0
 42
0.0
 10
175.440176629301277
 20
140.3593724279712944
 40
0.0
 41
0.0
 42
0.0
 10
175.3630011256900616
 20
140.4756849638664562
 40
0.0
 41
0.0
 42
0.0
 10
175.2858130650492967
 20
140.5919974997616464
 40
0.0
 41
0.0
 42
0.0
 10
175.2086375614380813
 20
140.7083090915539003
 40
0.0
 41
0.0
 42
0.0
 10
175.1314495007973164
 20
140.8246216829845423
 40
0.0
 41
0.0
 42
0.0
 10
175.054273997186101
 20
140.9409341633442523
 40
0.0
 41
0.0
 42
0.0
 10
174.9770859365453362
 20
141.0572467547748943
 40
0.0
 41
0.0
 42
0.0
 10
174.8999104329341208
 20
141.1735583465671482
 40
0.0
 41
0.0
 42
0.0
 10
174.8227223722933559
 20
141.2898708269268582
 40
0.0
 41
0.0
 42
0.0
 10
174.7455468686821405
 20
141.4061834183575002
 40
0.0
 41
0.0
 42
0.0
 10
174.6683588080413756
 20
141.5224958987172101
 40
0.0
 41
0.0
 42
0.0
 10
174.5911833044301602
 20
141.6388074905094641
 40
0.0
 41
0.0
 42
0.0
 10
174.5139952437893953
 20
141.755120081940106
 40
0.0
 41
0.0
 42
0.0
 10
174.4368197401781799
 20
141.871432673370748
 40
0.0
 41
0.0
 42
0.0
 10
174.359631679537415
 20
141.98774526480139
 40
0.0
 41
0.0
 42
0.0
 10
174.2824561759261996
 20
142.104057634090168
 40
0.0
 41
0.0
 42
0.0
 10
174.2052681152854348
 20
142.2203693369533539
 40
0.0
 41
0.0
 42
0.0
 10
174.1280926116742194
 20
142.3366819283839959
 40
0.0
 41
0.0
 42
0.0
 10
174.0509045510334545
 20
142.4529942976727739
 40
0.0
 41
0.0
 42
0.0
 10
173.9737290474222391
 20
142.5693068891034159
 40
0.0
 41
0.0
 42
0.0
 10
173.8965409867814742
 20
142.6856185919666018
 40
0.0
 41
0.0
 42
0.0
 10
173.8193654831702588
 20
142.8019309612553798
 40
0.0
 41
0.0
 42
0.0
 10
173.7421774225294939
 20
142.9182435526860218
 40
0.0
 41
0.0
 42
0.0
 10
173.6650019189182785
 20
143.0345561441166637
 40
0.0
 41
0.0
 42
0.0
 10
173.5878264153070631
 20
143.1508678469798497
 40
0.0
 41
0.0
 42
0.0
 10
173.5106383546662983
 20
143.2671802162686276
 40
0.0
 41
0.0
 42
0.0
 10
173.4334628510550829
 20
143.3834928076992696
 40
0.0
 41
0.0
 42
0.0
 10
173.356274790414318
 20
143.4998053991299116
 40
0.0
 41
0.0
 42
0.0
 10
173.2790992868031026
 20
143.6161168798512335
 40
0.0
 41
0.0
 42
0.0
 10
173.2019112261623377
 20
143.7324294712818755
 40
0.0
 41
0.0
 42
0.0
 10
173.1247357225511223
 20
143.8487420627125175
 40
0.0
 41
0.0
 42
0.0
 10
173.0475476619103574
 20
143.9650546541431595
 40
0.0
 41
0.0
 42
0.0
 10
172.970372158299142
 20
144.0813663570063454
 40
0.0
 41
0.0
 42
0.0
 10
172.8931840976583771
 20
144.1976785041532594
 40
0.0
 41
0.0
 42
0.0
 10
172.8160085940471618
 20
144.3139910955839014
 40
0.0
 41
0.0
 42
0.0
 10
172.7388205334063969
 20
144.4303036870145434
 40
0.0
 41
0.0
 42
0.0
 10
172.6616450297951815
 20
144.5466153898777293
 40
0.0
 41
0.0
 42
0.0
 10
172.5844569691544166
 20
144.6629279813083713
 40
0.0
 41
0.0
 42
0.0
 10
172.5072814655432012
 20
144.7792405727390133
 40
0.0
 41
0.0
 42
0.0
 10
172.4300934049024363
 20
144.8955531641696552
 40
0.0
 41
0.0
 42
0.0
 10
172.3529179012912209
 20
145.0118644227491131
 40
0.0
 41
0.0
 42
0.0
 10
172.275729840650456
 20
145.1281770141797551
 40
0.0
 41
0.0
 42
0.0
 10
172.1985543370392406
 20
145.2444896056103971
 40
0.0
 41
0.0
 42
0.0
 10
172.1213662763984757
 20
145.3608021970410391
 40
0.0
 41
0.0
 42
0.0
 10
172.0441907727872604
 20
145.4771147884716811
 40
0.0
 41
0.0
 42
0.0
 10
171.9670027121464955
 20
145.593426491334867
 40
0.0
 41
0.0
 42
0.0
 10
171.8898272085352801
 20
145.709739082765509
 40
0.0
 41
0.0
 42
0.0
 10
171.8126391478945152
 20
145.826051229912423
 40
0.0
 41
0.0
 42
0.0
 10
171.7354636442832998
 20
145.942363821343065
 40
0.0
 41
0.0
 42
0.0
 10
171.6582755836425349
 20
146.0586755242062509
 40
0.0
 41
0.0
 42
0.0
 10
171.5811000800313195
 20
146.1749881156368929
 40
0.0
 41
0.0
 42
0.0
 10
171.5039120193905546
 20
146.2913007070675349
 40
0.0
 41
0.0
 42
0.0
 10
171.4267365157793392
 20
146.4076132984981768
 40
0.0
 41
0.0
 42
0.0
 10
171.3495484551385744
 20
146.5239250013613628
 40
0.0
 41
0.0
 42
0.0
 10
171.272372951527359
 20
146.6402371485082767
 40
0.0
 41
0.0
 42
0.0
 10
171.1951974479161436
 20
146.7565497399389187
 40
0.0
 41
0.0
 42
0.0
 10
171.1180093872753787
 20
146.8728623313695607
 40
0.0
 41
0.0
 42
0.0
 10
171.0408338836641633
 20
146.9891740342327466
 40
0.0
 41
0.0
 42
0.0
 10
170.9636458230233984
 20
147.1054866256633886
 40
0.0
 41
0.0
 42
0.0
 10
170.886470319412183
 20
147.2217992170940306
 40
0.0
 41
0.0
 42
0.0
 10
170.8092822587714181
 20
147.3381118085246726
 40
0.0
 41
0.0
 42
0.0
 10
170.7321067551602027
 20
147.4544252885227706
 40
0.0
 41
0.0
 42
0.0
 10
170.6549186945194378
 20
147.5707352142510445
 40
0.0
 41
0.0
 42
0.0
 10
170.5777431909082225
 20
147.6870486942491425
 40
0.0
 41
0.0
 42
0.0
 10
170.5005551302674576
 20
147.8033621742472405
 40
0.0
 41
0.0
 42
0.0
 10
170.4233796266562422
 20
147.9196720999755144
 40
0.0
 41
0.0
 42
0.0
 10
170.3461915660154773
 20
148.0359855799736124
 40
0.0
 41
0.0
 42
0.0
 10
170.5429853331152117
 20
148.1428304851599478
 40
0.0
 41
0.0
 42
0.0
 10
173.831219319064985
 20
148.1428304851599478
 40
0.0
 41
0.0
 42
0.0
 10
175.2293817742538522
 20
148.2097067376053019
 40
0.0
 41
0.0
 42
0.0
 10
175.2293817742538522
 20
148.3260522060318181
 40
0.0
 41
0.0
 42
0.0
 10
175.2293817742538522
 20
148.4423976744583342
 40
0.0
 41
0.0
 42
0.0
 10
175.2293817742538522
 20
148.5587395886150262
 40
0.0
 41
0.0
 42
0.0
 10
175.2293817742538522
 20
148.6750850570415423
 40
0.0
 41
0.0
 42
0.0
 10
175.2293817742538522
 20
148.7914305254680585
 40
0.0
 41
0.0
 42
0.0
 10
175.2293817742538522
 20
148.9077724396247504
 40
0.0
 41
0.0
 42
0.0
 10
175.2293817742538522
 20
149.0241179080512666
 40
0.0
 41
0.0
 42
0.0
 10
175.2293817742538522
 20
149.1404633764777827
 40
0.0
 41
0.0
 42
0.0
 10
175.2293817742538522
 20
149.2568052906344747
 40
0.0
 41
0.0
 42
0.0
 10
175.2293817742538522
 20
149.3731507590609908
 40
0.0
 41
0.0
 42
0.0
 10
175.2293817742538522
 20
149.489496227487507
 40
0.0
 41
0.0
 42
0.0
 10
175.2293817742538522
 20
149.6058381416441989
 40
0.0
 41
0.0
 42
0.0
 10
175.2293817742538522
 20
149.7221836100707151
 40
0.0
 41
0.0
 42
0.0
 10
175.2293817742538522
 20
149.8385290784972312
 40
0.0
 41
0.0
 42
0.0
 10
175.2293817742538522
 20
149.9548709926539232
 40
0.0
 41
0.0
 42
0.0
 10
175.2293817742538522
 20
150.0712164610804393
 40
0.0
 41
0.0
 42
0.0
 10
175.2293817742538522
 20
150.1875619295069555
 40
0.0
 41
0.0
 42
0.0
 10
175.2293817742538522
 20
150.3039073979334717
 40
0.0
 41
0.0
 42
0.0
 10
175.2293817742538522
 20
150.4202493120901636
 40
0.0
 41
0.0
 42
0.0
 10
175.2293817742538522
 20
150.5365947805166797
 40
0.0
 41
0.0
 42
0.0
 10
175.2293817742538522
 20
150.6529402489431959
 40
0.0
 41
0.0
 42
0.0
 10
175.2293817742538522
 20
150.7692821630998878
 40
0.0
 41
0.0
 42
0.0
 10
175.2293817742538522
 20
150.885627631526404
 40
0.0
 41
0.0
 42
0.0
 10
175.2293817742538522
 20
151.0019730999529202
 40
0.0
 41
0.0
 42
0.0
 10
175.2293817742538522
 20
151.1183150141096121
 40
0.0
 41
0.0
 42
0.0
 10
175.2293817742538522
 20
151.2346604825361283
 40
0.0
 41
0.0
 42
0.0
 10
175.2293817742538522
 20
151.3510059509626444
 40
0.0
 41
0.0
 42
0.0
 10
175.2293817742538522
 20
151.4673478651193363
 40
0.0
 41
0.0
 42
0.0
 10
175.2293817742538522
 20
151.5836933335458525
 40
0.0
 41
0.0
 42
0.0
 10
175.2293817742538522
 20
151.7000388019723687
 40
0.0
 41
0.0
 42
0.0
 10
175.2293817742538522
 20
151.8163842703988848
 40
0.0
 41
0.0
 42
0.0
 10
175.2293817742538522
 20
151.9327261845555768
 40
0.0
 41
0.0
 42
0.0
 10
175.2293817742538522
 20
152.0490716529820929
 40
0.0
 41
0.0
 42
0.0
 10
175.2293817742538522
 20
152.1654171214086091
 40
0.0
 41
0.0
 42
0.0
 10
175.2293817742538522
 20
152.281759035565301
 40
0.0
 41
0.0
 42
0.0
 10
175.2293817742538522
 20
152.3981045039918172
 40
0.0
 41
0.0
 42
0.0
 10
175.2293817742538522
 20
152.5144499724183333
 40
0.0
 41
0.0
 42
0.0
 10
175.2293817742538522
 20
152.6307918865750253
 40
0.0
 41
0.0
 42
0.0
 10
175.2293817742538522
 20
152.7471373550015414
 40
0.0
 41
0.0
 42
0.0
 10
175.2293817742538522
 20
152.8634828234280576
 40
0.0
 41
0.0
 42
0.0
 10
175.2293817742538522
 20
152.9798247375847495
 40
0.0
 41
0.0
 42
0.0
 10
175.2293817742538522
 20
153.0961702060112657
 40
0.0
 41
0.0
 42
0.0
 10
175.2293817742538522
 20
153.2125156744377819
 40
0.0
 41
0.0
 42
0.0
 10
175.2293817742538522
 20
153.3288575885944738
 40
0.0
 41
0.0
 42
0.0
 10
175.2293817742538522
 20
153.4452030570209899
 40
0.0
 41
0.0
 42
0.0
 10
175.2293817742538522
 20
153.5615485254475061
 40
0.0
 41
0.0
 42
0.0
 10
175.2293817742538522
 20
153.6778939938740223
 40
0.0
 41
0.0
 42
0.0
 10
175.2293817742538522
 20
153.7942359080307142
 40
0.0
 41
0.0
 42
0.0
 10
175.2293817742538522
 20
153.9105813764572304
 40
0.0
 41
0.0
 42
0.0
 10
175.2293817742538522
 20
154.0269268448837465
 40
0.0
 41
0.0
 42
0.0
 10
175.2293817742538522
 20
154.1432687590404385
 40
0.0
 41
0.0
 42
0.0
 10
175.2293817742538522
 20
154.2596142274669546
 40
0.0
 41
0.0
 42
0.0
 10
175.2293817742538522
 20
154.3759596958934708
 40
0.0
 41
0.0
 42
0.0
 10
175.2293817742538522
 20
154.4923016100501627
 40
0.0
 41
0.0
 42
0.0
 10
175.2293817742538522
 20
154.6086470784766789
 40
0.0
 41
0.0
 42
0.0
 10
175.2293817742538522
 20
154.724992546903195
 40
0.0
 41
0.0
 42
0.0
 10
175.2293817742538522
 20
154.841334461059887
 40
0.0
 41
0.0
 42
0.0
 10
175.2293817742538522
 20
154.9576799294864031
 40
0.0
 41
0.0
 42
0.0
 10
175.2293817742538522
 20
155.0740253979129193
 40
0.0
 41
0.0
 42
0.0
 10
175.2293817742538522
 20
155.1903708663394355
 40
0.0
 41
0.0
 42
0.0
 10
175.2293817742538522
 20
155.3067127804961274
 40
0.0
 41
0.0
 42
0.0
 10
175.2293817742538522
 20
155.4230582489226435
 40
0.0
 41
0.0
 42
0.0
 10
175.2293817742538522
 20
155.5394037173491597
 40
0.0
 41
0.0
 42
0.0
 10
175.2293817742538522
 20
155.6557456315058516
 40
0.0
 41
0.0
 42
0.0
 10
175.2293817742538522
 20
155.7720910999323678
 40
0.0
 41
0.0
 42
0.0
 10
175.2293817742538522
 20
155.888436568358884
 40
0.0
 41
0.0
 42
0.0
 10
175.2293817742538522
 20
156.0047784825155759
 40
0.0
 41
0.0
 42
0.0
 10
175.2293817742538522
 20
156.1211239509420921
 40
0.0
 41
0.0
 42
0.0
 10
175.2293817742538522
 20
156.2374694193686082
 40
0.0
 41
0.0
 42
0.0
 10
175.2293817742538522
 20
156.3538113335253001
 40
0.0
 41
0.0
 42
0.0
 10
175.2293817742538522
 20
156.4701568019518163
 40
0.0
 41
0.0
 42
0.0
 10
175.2293817742538522
 20
156.5865022703783325
 40
0.0
 41
0.0
 42
0.0
 10
175.2293817742538522
 20
156.7028441845350244
 40
0.0
 41
0.0
 42
0.0
 10
175.2293817742538522
 20
156.8191896529615406
 40
0.0
 41
0.0
 42
0.0
 10
175.2293817742538522
 20
156.9355351213880567
 40
0.0
 41
0.0
 42
0.0
 10
175.2293817742538522
 20
157.0518805898145729
 40
0.0
 41
0.0
 42
0.0
 10
175.2293817742538522
 20
157.1682225039712648
 40
0.0
 41
0.0
 42
0.0
 10
175.2293817742538522
 20
157.284567972397781
 40
0.0
 41
0.0
 42
0.0
 10
175.2293817742538522
 20
157.4009134408242971
 40
0.0
 41
0.0
 42
0.0
 10
175.2293817742538522
 20
157.5172553549809891
 40
0.0
 41
0.0
 42
0.0
 10
175.2293817742538522
 20
157.6336008234075052
 40
0.0
 41
0.0
 42
0.0
 10
175.7708785595168592
 20
157.683065596551387
 40
0.0
 41
0.0
 42
0.0
 10
175.7708785595168592
 20
157.5667236823946951
 40
0.0
 41
0.0
 42
0.0
 10
175.7708785595168592
 20
157.4503782139681789
 40
0.0
 41
0.0
 42
0.0
 10
175.7708785595168592
 20
157.3340327455416627
 40
0.0
 41
0.0
 42
0.0
 10
175.7708785595168592
 20
157.2176908313849708
 40
0.0
 41
0.0
 42
0.0
 10
175.7708785595168592
 20
157.1013453629584546
 40
0.0
 41
0.0
 42
0.0
 10
175.7708785595168592
 20
156.9849998945319385
 40
0.0
 41
0.0
 42
0.0
 10
175.7708785595168592
 20
156.8686544261054223
 40
0.0
 41
0.0
 42
0.0
 10
175.7708785595168592
 20
156.7523125119487304
 40
0.0
 41
0.0
 42
0.0
 10
175.7708785595168592
 20
156.6359670435222142
 40
0.0
 41
0.0
 42
0.0
 10
175.7708785595168592
 20
156.5196215750956981
 40
0.0
 41
0.0
 42
0.0
 10
175.7708785595168592
 20
156.4032796609390061
 40
0.0
 41
0.0
 42
0.0
 10
175.7708785595168592
 20
156.28693419251249
 40
0.0
 41
0.0
 42
0.0
 10
175.7708785595168592
 20
156.1705887240859738
 40
0.0
 41
0.0
 42
0.0
 10
175.7708785595168592
 20
156.0542468099292819
 40
0.0
 41
0.0
 42
0.0
 10
175.7708785595168592
 20
155.9379013415027657
 40
0.0
 41
0.0
 42
0.0
 10
175.7708785595168592
 20
155.8215558730762496
 40
0.0
 41
0.0
 42
0.0
 10
175.7708785595168592
 20
155.7052139589195576
 40
0.0
 41
0.0
 42
0.0
 10
175.7708785595168592
 20
155.5888684904930415
 40
0.0
 41
0.0
 42
0.0
 10
175.7708785595168592
 20
155.4725230220665253
 40
0.0
 41
0.0
 42
0.0
 10
175.7708785595168592
 20
155.3561811079098334
 40
0.0
 41
0.0
 42
0.0
 10
175.7708785595168592
 20
155.2398356394833172
 40
0.0
 41
0.0
 42
0.0
 10
175.7708785595168592
 20
155.123490171056801
 40
0.0
 41
0.0
 42
0.0
 10
175.7708785595168592
 20
155.0071447026302849
 40
0.0
 41
0.0
 42
0.0
 10
175.7708785595168592
 20
154.890802788473593
 40
0.0
 41
0.0
 42
0.0
 10
175.7708785595168592
 20
154.7744573200470768
 40
0.0
 41
0.0
 42
0.0
 10
175.7708785595168592
 20
154.6581118516205606
 40
0.0
 41
0.0
 42
0.0
 10
175.7708785595168592
 20
154.5417699374638687
 40
0.0
 41
0.0
 42
0.0
 10
175.7708785595168592
 20
154.4254244690373525
 40
0.0
 41
0.0
 42
0.0
 10
175.7708785595168592
 20
154.3090790006108364
 40
0.0
 41
0.0
 42
0.0
 10
175.7708785595168592
 20
154.1927370864541444
 40
0.0
 41
0.0
 42
0.0
 10
175.7708785595168592
 20
154.0763916180276283
 40
0.0
 41
0.0
 42
0.0
 10
175.7708785595168592
 20
153.9600461496011121
 40
0.0
 41
0.0
 42
0.0
 10
175.7708785595168592
 20
153.8437042354444202
 40
0.0
 41
0.0
 42
0.0
 10
175.7708785595168592
 20
153.727358767017904
 40
0.0
 41
0.0
 42
0.0
 10
175.7708785595168592
 20
153.6110132985913879
 40
0.0
 41
0.0
 42
0.0
 10
175.7708785595168592
 20
153.4946713844346959
 40
0.0
 41
0.0
 42
0.0
 10
175.7708785595168592
 20
153.3783259160081798
 40
0.0
 41
0.0
 42
0.0
 10
175.7708785595168592
 20
153.2619804475816636
 40
0.0
 41
0.0
 42
0.0
 10
175.7708785595168592
 20
153.1456385334249717
 40
0.0
 41
0.0
 42
0.0
 10
175.7708785595168592
 20
153.0292930649984555
 40
0.0
 41
0.0
 42
0.0
 10
175.7708785595168592
 20
152.9129475965719394
 40
0.0
 41
0.0
 42
0.0
 10
175.7708785595168592
 20
152.7966056824152474
 40
0.0
 41
0.0
 42
0.0
 10
175.7708785595168592
 20
152.6802602139887313
 40
0.0
 41
0.0
 42
0.0
 10
175.7708785595168592
 20
152.5639147455622151
 40
0.0
 41
0.0
 42
0.0
 10
175.7708785595168592
 20
152.4475728314055232
 40
0.0
 41
0.0
 42
0.0
 10
175.7708785595168592
 20
152.331227362979007
 40
0.0
 41
0.0
 42
0.0
 10
175.7708785595168592
 20
152.2148818945524908
 40
0.0
 41
0.0
 42
0.0
 10
175.7708785595168592
 20
152.0985364261259747
 40
0.0
 41
0.0
 42
0.0
 10
175.7708785595168592
 20
151.9821945119692828
 40
0.0
 41
0.0
 42
0.0
 10
175.7708785595168592
 20
151.8658490435427666
 40
0.0
 41
0.0
 42
0.0
 10
175.7708785595168592
 20
151.7495035751162504
 40
0.0
 41
0.0
 42
0.0
 10
175.7708785595168592
 20
151.6331616609595585
 40
0.0
 41
0.0
 42
0.0
 10
175.7708785595168592
 20
151.5168161925330423
 40
0.0
 41
0.0
 42
0.0
 10
175.7708785595168592
 20
151.4004707241065262
 40
0.0
 41
0.0
 42
0.0
 10
175.7708785595168592
 20
151.2841288099498342
 40
0.0
 41
0.0
 42
0.0
 10
175.7708785595168592
 20
151.1677833415233181
 40
0.0
 41
0.0
 42
0.0
 10
175.7708785595168592
 20
151.0514378730968019
 40
0.0
 41
0.0
 42
0.0
 10
175.7708785595168592
 20
150.93509595894011
 40
0.0
 41
0.0
 42
0.0
 10
175.7708785595168592
 20
150.8187504905135938
 40
0.0
 41
0.0
 42
0.0
 10
175.7708785595168592
 20
150.7024050220870777
 40
0.0
 41
0.0
 42
0.0
 10
175.7708785595168592
 20
150.5860595536605615
 40
0.0
 41
0.0
 42
0.0
 10
175.7708785595168592
 20
150.4697176395038696
 40
0.0
 41
0.0
 42
0.0
 10
175.7708785595168592
 20
150.3533721710773534
 40
0.0
 41
0.0
 42
0.0
 10
175.7708785595168592
 20
150.2370267026508373
 40
0.0
 41
0.0
 42
0.0
 10
175.7708785595168592
 20
150.1206847884941453
 40
0.0
 41
0.0
 42
0.0
 10
175.7708785595168592
 20
150.0043393200676292
 40
0.0
 41
0.0
 42
0.0
 10
175.7708785595168592
 20
149.887993851641113
 40
0.0
 41
0.0
 42
0.0
 10
175.7708785595168592
 20
149.7716519374844211
 40
0.0
 41
0.0
 42
0.0
 10
175.7708785595168592
 20
149.6553064690579049
 40
0.0
 41
0.0
 42
0.0
 10
175.7708785595168592
 20
149.5389610006313887
 40
0.0
 41
0.0
 42
0.0
 10
175.7708785595168592
 20
149.4226190864746968
 40
0.0
 41
0.0
 42
0.0
 10
175.7708785595168592
 20
149.3062736180481807
 40
0.0
 41
0.0
 42
0.0
 10
175.7708785595168592
 20
149.1899281496216645
 40
0.0
 41
0.0
 42
0.0
 10
175.7708785595168592
 20
149.0735862354649726
 40
0.0
 41
0.0
 42
0.0
 10
175.7708785595168592
 20
148.9572407670384564
 40
0.0
 41
0.0
 42
0.0
 10
175.7708785595168592
 20
148.8408952986119402
 40
0.0
 41
0.0
 42
0.0
 10
175.7708785595168592
 20
148.7245498301854241
 40
0.0
 41
0.0
 42
0.0
 10
175.7708785595168592
 20
148.6082079160287321
 40
0.0
 41
0.0
 42
0.0
 10
175.7708785595168592
 20
148.491862447602216
 40
0.0
 41
0.0
 42
0.0
 10
175.7708785595168592
 20
148.3755169791756998
 40
0.0
 41
0.0
 42
0.0
 10
175.7708785595168592
 20
148.2591750650190079
 40
0.0
 41
0.0
 42
0.0
 10
175.7708785595168592
 20
148.1428304851599478
 40
0.0
 41
0.0
 42
0.0
  0
HATCH
  5
2A
330
1D
100
AcDbEntity
  8
0
  6
ByLayer
420
0
 48
1.0
 60
0
 67
0
370
-1
100
AcDbHatch
 30
0.0
210
0.0
220
0.0
230
1.0
  2
SOLID
 70
1
 71
0
 91
1
 92
2
 72
0
 73
1
 93
4
 10
170.2750001094536856
 20
140.1394432008013382
 10
170.2750001094536856
 20
140.6613923144805653
 10
180.7250028449979595
 20
140.6613923144805653
 10
180.7250028449979595
 20
140.1394432008013382
 97
0
 75
0
 76
1
 47
0.0
 98
0
  0
LWPOLYLINE
  5
2B
330
1D
100
AcDbEntity
  8
0
  6
ByLayer
420
0
 48
1.0
 60
0
 67
0
370
-1
100
AcDbPolyline
 90
4
 70
1
 43
0.0
 38
0.0
 39
0.0
210
0.0
220
0.0
230
1.0
 10
170.2750001094536856
 20
140.1394432008013382
 40
0.0
 41
0.0
 42
0.0
 10
170.2750001094536856
 20
140.6613923144805653
 40
0.0
 41
0.0
 42
0.0
 10
180.7250028449979595
 20
140.6613923144805653
 40
0.0
 41
0.0
 42
0.0
 10
180.7250028449979595
 20
140.1394432008013382
 40
0.0
 41
0.0
 42
0.0
  0
TEXT
  5
2C
330
1D
100
AcDbEntity
  8
0
  6
ByLayer
420
0
 48
1.0
 60
0
 67
0
370
-1
100
AcDbText
 39
0.0
 10
178.0
 20
169.0
 30
0.0
 40
10.0
  1
AAAAA
 50
5156.6201561774087168
 41
1.0
 51
0.0
  7
Standard
 71
0
 72
0
 11
0.0
 21
0.0
 31
0.0
210
0.0
220
0.0
230
1.0
100
AcDbText
 73
0
  0
TEXT
  5
2D
330
1D
100
AcDbEntity
  8
0
  6
ByLayer
420
0
 48
1.0
 60
0
 67
0
370
-1
100
AcDbText
 39
0.0
 10
86.2416673994312788
 20
135.9833328214784274
 30
0.0
 40
20.0000002980232239
  1
ĺ
 50
0.0
 41
1.0
 51
0.0
  7
Standard
 71
0
 72
0
 11
0.0
 21
0.0
 31
0.0
210
0.0
220
0.0
230
1.0
100
AcDbText
 73
0
  0
HATCH
  5
2E
330
1D
100
AcDbEntity
  8
0
  6
ByLayer
420
16777215
 48
1.0
 60
0
 67
0
370
-1
100
AcDbHatch
 30
0.0
210
0.0
220
0.0
230
1.0
  2
SOLID
 70
1
 71
0
 91
1
 92
2
 72
0
 73
1
 93
4
 10
24.5
 20
28.0
 10
24.5
 20
60.0
 10
69.5
 20
60.0
 10
69.5
 20
28.0
 97
0
 75
0
 76
1
 47
0.0
 98
0
  0
LWPOLYLINE
  5
2F
330
1D
100
AcDbEntity
  8
0
  6
ByLayer
420
0
 48
1.0
 60
0
 67
0
370
-1
100
AcDbPolyline
 90
4
 70
1
 43
0.0
 38
0.0
 39
0.0
210
0.0
220
0.0
230
1.0
 10
24.5
 20
28.0
 40
0.0
 41
0.0
 42
0.0
 10
24.5
 20
60.0
 40
0.0
 41
0.0
 42
0.0
 10
69.5
 20
60.0
 40
0.0
 41
0.0
 42
0.0
 10
69.5
 20
28.0
 40
0.0
 41
0.0
 42
0.0
  0
TEXT
  5
30
330
1D
100
AcDbEntity
  8
0
  6
ByLayer
420
0
 48
1.0
 60
0
 67
0
370
-1
100
AcDbText
 39
0.0
 10
36.0
 20
2.23333740234375
 30
0.0
 40
12.0
  1
=+S0001-Clv6xx
 50
5156.6201561774087168
 41
1.0
 51
0.0
  7
Standard
 71
0
 72
0
 11
0.0
 21
0.0
 31
0.0
210
0.0
220
0.0
230
1.0
100
AcDbText
 73
0
  0
HATCH
  5
31
330
1D
100
AcDbEntity
  8
0
  6
ByLayer
420
16777215
 48
1.0
 60
0
 67
0
370
-1
100
AcDbHatch
 30
0.0
210
0.0
220
0.0
230
1.0
  2
SOLID
 70
1
 71
0
 91
1
 92
2
 72
0
 73
1
 93
4
 10
88.0
 20
132.0
 10
178.0
 20
132.0
 10
178.0
 20
0.0
 10
88.0
 20
0.0
 97
0
 75
0
 76
1
 47
0.0
 98
0
  0
LWPOLYLINE
  5
32
330
1D
100
AcDbEntity
  8
0
  6
ByLayer
420
0
 48
1.0
 60
0
 67
0
370
-1
100
AcDbPolyline
 90
4
 70
1
 43
0.0
 38
0.0
 39
0.0
210
0.0
220
0.0
230
1.0
 10
88.0
 20
132.0
 40
0.0
 41
0.0
 42
0.0
 10
178.0
 20
132.0
 40
0.0
 41
0.0
 42
0.0
 10
178.0
 20
0.0
 40
0.0
 41
0.0
 42
0.0
 10
88.0
 20
0.0
 40
0.0
 41
0.0
 42
0.0
  0
HATCH
  5
33
330
1D
100
AcDbEntity
  8
0
  6
ByLayer
420
7329938
 48
1.0
 60
0
 67
0
370
-1
100
AcDbHatch
 30
0.0
210
0.0
220
0.0
230
1.0
  2
SOLID
 70
1
 71
0
 91
1
 92
2
 72
0
 73
1
 93
4
 10
89.0
 20
131.0
 10
176.9666748046875
 20
131.0
 10
176.9666748046875
 20
97.1999969482421875
 10
89.0
 20
97.1999969482421875
 97
0
 75
0
 76
1
 47
0.0
 98
0
  0
LWPOLYLINE
  5
34
330
1D
100
AcDbEntity
  8
0
  6
ByLayer
420
7329938
 48
1.0
 60
0
 67
0
370
-1
100
AcDbPolyline
 90
4
 70
1
 43
0.0
 38
0.0
 39
0.0
210
0.0
220
0.0
230
1.0
 10
89.0
 20
131.0
 40
0.0
 41
0.0
 42
0.0
 10
176.9666748046875
 20
131.0
 40
0.0
 41
0.0
 42
0.0
 10
176.9666748046875
 20
97.1999969482421875
 40
0.0
 41
0.0
 42
0.0
 10
89.0
 20
97.1999969482421875
 40
0.0
 41
0.0
 42
0.0
  0
TEXT
  5
35
330
1D
100
AcDbEntity
  8
0
  6
ByLayer
420
0
 48
1.0
 60
0
 67
0
370
-1
100
AcDbText
 39
0.0
 10
118.533329492348912
 20
112.6166731514227592
 30
0.0
 40
10.3999996185302734
  1
AABB
 50
0.0
 41
1.0
 51
0.0
  7
Standard
 71
0
 72
0
 11
0.0
 21
0.0
 31
0.0
210
0.0
220
0.0
230
1.0
100
AcDbText
 73
0
  0
TEXT
  5
36
330
1D
100
AcDbEntity
  8
0
  6
ByLayer
420
0
 48
1.0
 60
0
 67
0
370
-1
100
AcDbText
 39
0.0
 10
171.033325868716247
 20
88.4258271815677972
 30
0.0
 40
10.1299998164176941
  1
0
 50
0.0
 41
1.0
 51
0.0
  7
Standard
 71
0
 72
0
 11
0.0
 21
0.0
 31
0.0
210
0.0
220
0.0
230
1.0
100
AcDbText
 73
0
  0
ENDSEC
  0
SECTION
  2
OBJECTS
  0
DICTIONARY
  5
1
330
0
100
AcDbDictionary
280
0
281
0
  3
ACAD_COLOR
350
2
  3
ACAD_GROUP
350
3
  3
ACAD_LAYOUT
350
4
  3
ACAD_MATERIAL
350
5
  3
ACAD_SORTENTS
350
6
  3
ACAD_MLEADERSTYLE
350
7
  3
ACAD_MLINESTYLE
350
8
  3
ACAD_TABLESTYLE
350
9
  3
ACAD_PLOTSETTINGS
350
A
  3
AcDbVariableDictionary
350
B
  3
ACAD_SCALELIST
350
C
  3
ACAD_VISUALSTYLE
350
D
  3
ACAD_FIELDLIST
350
E
  3
ACAD_IMAGE_DICT
350
F
  0
DICTIONARY
  5
2
330
1
100
AcDbDictionary
280
0
281
0
  0
DICTIONARY
  5
3
330
1
100
AcDbDictionary
280
0
281
0
  0
DICTIONARY
  5
4
330
1
100
AcDbDictionary
280
0
281
0
  0
DICTIONARY
  5
5
330
1
100
AcDbDictionary
280
0
281
0
  0
DICTIONARY
  5
6
330
1
100
AcDbDictionary
280
0
281
0
  0
DICTIONARY
  5
7
330
1
100
AcDbDictionary
280
0
281
0
  0
DICTIONARY
  5
8
330
1
100
AcDbDictionary
280
0
281
0
  0
DICTIONARY
  5
9
330
1
100
AcDbDictionary
280
0
281
0
  0
DICTIONARY
  5
A
330
1
100
AcDbDictionary
280
0
281
0
  0
DICTIONARY
  5
B
330
1
100
AcDbDictionary
280
0
281
0
  0
DICTIONARY
  5
C
330
1
100
AcDbDictionary
280
0
281
0
  0
DICTIONARY
  5
D
330
1
100
AcDbDictionary
280
0
281
0
  0
DICTIONARY
  5
E
330
1
100
AcDbDictionary
280
0
281
0
  0
DICTIONARY
  5
F
330
1
100
AcDbDictionary
280
0
281
0
  0
ENDSEC
  0
EOF
