<?xml version="1.0" encoding="UTF-8"?>
<svg xmlns="http://www.w3.org/2000/svg" xmlns:xlink="http://www.w3.org/1999/xlink" width="1280" height="720" viewBox="0 0 1280 720">
<g><path d="M62,59 L262,59 L262,112 L62,112 Z" fill="rgb(233, 233, 237)"/><path d="M62,59 L262,59 L262,112 L62,112 Z" fill="none" stroke="rgb(143, 143, 157)" stroke-width="2"/></g>
<text x="142.58" y="78.83" fill="rgb(0, 0, 0)" dominant-baseline="text-before-edge" font-size="13.33px" font-family="MS Shell Dlg \32">Button</text>
<g><path d="M62,112 L262,112 L262,200 L62,200 Z" fill="rgb(233, 233, 237)"/><path d="M62,112 L262,112 L262,200 L62,200 Z" fill="none" stroke="rgb(143, 143, 157)" stroke-width="2"/></g>
<g><path d="M62,201 L256,201 L256,376 L62,376 Z" fill="rgb(255, 255, 255)"/><path d="M62,201 L256,201 L256,376 L62,376 Z" fill="none" stroke="rgb(143, 143, 157)" stroke-width="2"/></g>
<g><path d="M62,381 L273,381 L273,402 L62,402 Z" fill="rgb(255, 255, 255)"/><path d="M62,381 L273,381 L273,402 L62,402 Z" fill="none" stroke="rgb(143, 143, 157)" stroke-width="2"/></g>
<g><path d="M407,114 L571.67,114 L571.67,136 L407,136 Z" fill="rgb(255, 255, 255)"/><path d="M407,114 L571.67,114 L571.67,136 L407,136 Z" fill="none" stroke="rgb(143, 143, 157)" stroke-width="2"/></g>
<g><path d="M407,135 L736,135 L736,364 L407,364 Z" fill="rgba(194, 31, 31, 0.52)"/><path d="M407,135 L736,135 L736,364 L407,364 Z" fill="none" stroke="rgb(0, 0, 0)" stroke-width="1"/></g>
<text x="408" y="137" fill="rgb(0, 0, 0)" dominant-baseline="text-before-edge" font-size="13px" font-family="monospace" xml:space="preserve">    dsfd.  fsdfd</text>
<text x="408" y="152" fill="rgb(0, 0, 0)" dominant-baseline="text-before-edge" font-size="13px" font-family="monospace" xml:space="preserve">    dsfdfs.  dfddsf</text>
<text x="408" y="167" fill="rgb(0, 0, 0)" dominant-baseline="text-before-edge" font-size="13px" font-family="monospace" xml:space="preserve">    sdf x</text>
<text x="408" y="182" fill="rgb(0, 0, 0)" dominant-baseline="text-before-edge" font-size="13px" font-family="monospace" xml:space="preserve">    dsfdfsdfddsfdfssddfs </text>
</svg>