0
SECTION
2
HEADER
9
$ACADVER
1
AC1021
9
$LASTSAVEDBY
1
@tarikjabiri/dxf
9
$HANDSEED
5
29
9
$INSUNITS
70
0
9
$CLAYER
8
0
9
$VIEWCTR
10
389.2916717529297
20
483.58333749999997
0
ENDSEC
0
SECTION
2
CLASSES
0
ENDSEC
0
SECTION
2
TABLES
0
TABLE
2
VPORT
5
1
330
0
100
AcDbSymbolTable
70
1
0
VPORT
5
19
330
1
100
AcDbSymbolTableRecord
100
AcDbViewportTableRecord
2
*Active
70
0
10
0
20
0
11
1
21
1
12
389.2916717529297
22
483.58333749999997
13
0
23
0
14
10
24
10
15
10
25
10
16
0
26
0
36
1
17
0
27
0
37
0
40
495.16667499999994
41
2
42
50
43
0
44
0
50
0
51
0
71
0
72
100
73
1
74
3
75
0
76
1
77
0
78
0
281
0
65
1
110
0
120
0
130
0
111
1
121
0
131
0
112
0
122
1
132
0
79
0
146
0
348
10020
60
7
61
5
292
1
282
1
141
0
142
0
63
250
421
3358443
0
ENDTAB
0
TABLE
2
LTYPE
5
2
330
0
100
AcDbSymbolTable
70
3
0
LTYPE
5
12
330
2
100
AcDbSymbolTableRecord
100
AcDbLinetypeTableRecord
2
ByBlock
70
0
3

72
65
73
0
40
0
0
LTYPE
5
13
330
2
100
AcDbSymbolTableRecord
100
AcDbLinetypeTableRecord
2
ByLayer
70
0
3

72
65
73
0
40
0
0
LTYPE
5
14
330
2
100
AcDbSymbolTableRecord
100
AcDbLinetypeTableRecord
2
Continuous
70
0
3
Solid line
72
65
73
0
40
0
0
ENDTAB
0
TABLE
2
LAYER
5
3
330
0
100
AcDbSymbolTable
70
1
0
LAYER
5
15
330
3
100
AcDbSymbolTableRecord
100
AcDbLayerTableRecord
2
0
70
0
62
7
6
Continuous
370
0
390
0
0
ENDTAB
0
TABLE
2
STYLE
5
4
330
0
100
AcDbSymbolTable
70
2
0
STYLE
5
16
330
4
100
AcDbSymbolTableRecord
100
AcDbTextStyleTableRecord
2
Standard
70
0
40
0
41
1
50
0
71
0
42
1
3
txt
4

0
STYLE
5
1C
330
4
100
AcDbSymbolTableRecord
100
AcDbTextStyleTableRecord
2
MS Shell Dlg \32
70
0
40
0
41
1
50
0
71
0
42
1
3
MS Shell Dlg \32.ttf
4

0
ENDTAB
0
TABLE
2
VIEW
5
5
330
0
100
AcDbSymbolTable
70
0
0
ENDTAB
0
TABLE
2
UCS
5
6
330
0
100
AcDbSymbolTable
70
0
0
ENDTAB
0
TABLE
2
APPID
5
7
330
0
100
AcDbSymbolTable
70
1
0
APPID
5
17
330
7
100
AcDbSymbolTableRecord
100
AcDbRegAppTableRecord
2
ACAD
70
0
0
ENDTAB
0
TABLE
2
DIMSTYLE
5
8
330
0
100
AcDbSymbolTable
70
1
100
AcDbDimStyleTable
0
DIMSTYLE
105
18
330
8
100
AcDbSymbolTableRecord
100
AcDbDimStyleTableRecord
2
Standard
70
0
340
16
0
ENDTAB
0
TABLE
2
BLOCK_RECORD
5
9
330
0
100
AcDbSymbolTable
70
2
0
BLOCK_RECORD
5
C
330
9
100
AcDbSymbolTableRecord
100
AcDbBlockTableRecord
2
*Model_Space
70
0
280
1
281
0
0
BLOCK_RECORD
5
F
330
9
100
AcDbSymbolTableRecord
100
AcDbBlockTableRecord
2
*Paper_Space
70
0
280
1
281
0
0
ENDTAB
0
ENDSEC
0
SECTION
2
BLOCKS
0
BLOCK
5
D
330
C
100
AcDbEntity
8
0
100
AcDbBlockBegin
2
*Model_Space
70
0
10
0
20
0
30
0
3
*Model_Space
1

0
ENDBLK
5
E
100
AcDbEntity
8
0
100
AcDbBlockEnd
0
BLOCK
5
10
330
F
100
AcDbEntity
8
0
100
AcDbBlockBegin
2
*Paper_Space
70
0
10
0
20
0
30
0
3
*Paper_Space
1

0
ENDBLK
5
11
100
AcDbEntity
8
0
100
AcDbBlockEnd
0
ENDSEC
0
SECTION
2
ENTITIES
0
LWPOLYLINE
5
1A
330
C
100
AcDbEntity
420
9408413
8
0
100
AcDbPolyline
90
5
70
0
43
0
38
0
39
0
10
62
20
661
10
262
20
661
10
262
20
608
10
62
20
608
10
62
20
661
0
TEXT
5
1B
330
C
100
AcDbEntity
420
0
8
0
100
AcDbText
10
142.58334350585938
20
631.1666749999999
30
0
40
13.3333
1
Button
7
MS Shell Dlg \32
100
AcDbText
0
LWPOLYLINE
5
1D
330
C
100
AcDbEntity
420
9408413
8
0
100
AcDbPolyline
90
42
70
0
43
0
38
0
39
0
10
64
20
608
10
260
20
608
10
260
20
608
10
260.3901806440323
20
607.9615705608064
10
260.7653668647302
20
607.8477590650226
10
261.1111404660392
20
607.6629392246051
10
261.4142135623731
20
607.4142135623731
10
261.6629392246051
20
607.1111404660392
10
261.84775906502256
20
606.7653668647301
10
261.9615705608065
20
606.3901806440323
10
262
20
606
10
262
20
522
10
262
20
522
10
261.9615705608065
20
521.6098193559677
10
261.84775906502256
20
521.2346331352699
10
261.6629392246051
20
520.8888595339608
10
261.4142135623731
20
520.5857864376269
10
261.1111404660392
20
520.3370607753949
10
260.7653668647302
20
520.1522409349774
10
260.3901806440323
20
520.0384294391936
10
260
20
520
10
64
20
520
10
64
20
520
10
63.609819355967744
20
520.0384294391936
10
63.23463313526982
20
520.1522409349774
10
62.8888595339608
20
520.3370607753949
10
62.58578643762691
20
520.5857864376269
10
62.33706077539491
20
520.8888595339608
10
62.15224093497743
20
521.2346331352699
10
62.038429439193536
20
521.6098193559677
10
62
20
522
10
62
20
606
10
62
20
606
10
62.038429439193536
20
606.3901806440323
10
62.15224093497743
20
606.7653668647301
10
62.33706077539491
20
607.1111404660392
10
62.58578643762691
20
607.4142135623731
10
62.8888595339608
20
607.6629392246051
10
63.23463313526982
20
607.8477590650226
10
63.609819355967744
20
607.9615705608064
10
64
20
608
10
64
20
608
0
LWPOLYLINE
5
1E
330
C
100
AcDbEntity
420
5263440
8
0
100
AcDbPolyline
90
3
70
0
43
0
38
0
39
0
10
246.3333425
20
565.6133293
10
250
20
562.3866707
10
253.66665750000004
20
565.6133293
0
LWPOLYLINE
5
1F
330
C
100
AcDbEntity
420
9408413
8
0
100
AcDbPolyline
90
42
70
0
43
0
38
0
39
0
10
64
20
519
10
254
20
519
10
254
20
519
10
254.39018064403226
20
518.9615705608064
10
254.76536686473017
20
518.8477590650226
10
255.11114046603922
20
518.6629392246051
10
255.4142135623731
20
518.4142135623731
10
255.66293922460508
20
518.1111404660392
10
255.8477590650226
20
517.7653668647301
10
255.96157056080645
20
517.3901806440323
10
256
20
517
10
256
20
346
10
256
20
346
10
255.96157056080645
20
345.6098193559677
10
255.8477590650226
20
345.2346331352698
10
255.66293922460508
20
344.8888595339608
10
255.4142135623731
20
344.5857864376269
10
255.11114046603922
20
344.3370607753949
10
254.76536686473017
20
344.15224093497744
10
254.39018064403226
20
344.0384294391935
10
254
20
344
10
64
20
344
10
64
20
344
10
63.609819355967744
20
344.0384294391935
10
63.23463313526982
20
344.15224093497744
10
62.8888595339608
20
344.3370607753949
10
62.58578643762691
20
344.5857864376269
10
62.33706077539491
20
344.8888595339608
10
62.15224093497743
20
345.2346331352698
10
62.038429439193536
20
345.6098193559677
10
62
20
346
10
62
20
517
10
62
20
517
10
62.038429439193536
20
517.3901806440323
10
62.15224093497743
20
517.7653668647301
10
62.33706077539491
20
518.1111404660392
10
62.58578643762691
20
518.4142135623731
10
62.8888595339608
20
518.6629392246051
10
63.23463313526982
20
518.8477590650226
10
63.609819355967744
20
518.9615705608064
10
64
20
519
10
64
20
519
0
LWPOLYLINE
5
20
330
C
100
AcDbEntity
420
7763574
8
0
100
AcDbPolyline
90
42
70
0
43
0
38
0
39
0
10
120
20
295
10
175
20
295
10
175
20
295
10
175.39018064403226
20
294.9615705608065
10
175.76536686473017
20
294.84775906502256
10
176.11114046603922
20
294.6629392246051
10
176.4142135623731
20
294.4142135623731
10
176.66293922460508
20
294.1111404660392
10
176.8477590650226
20
293.7653668647302
10
176.96157056080645
20
293.3901806440323
10
177
20
293
10
177
20
238
10
177
20
238
10
176.96157056080645
20
237.60981935596772
10
176.8477590650226
20
237.2346331352698
10
176.66293922460508
20
236.88885953396078
10
176.4142135623731
20
236.5857864376269
10
176.11114046603922
20
236.3370607753949
10
175.76536686473017
20
236.15224093497744
10
175.39018064403226
20
236.03842943919352
10
175
20
236
10
120
20
236
10
120
20
236
10
119.60981935596774
20
236.03842943919352
10
119.23463313526982
20
236.15224093497744
10
118.8888595339608
20
236.3370607753949
10
118.58578643762691
20
236.5857864376269
10
118.3370607753949
20
236.88885953396078
10
118.15224093497743
20
237.2346331352698
10
118.03842943919354
20
237.60981935596772
10
118
20
238
10
118
20
293
10
118
20
293
10
118.03842943919354
20
293.3901806440323
10
118.15224093497743
20
293.7653668647302
10
118.3370607753949
20
294.1111404660392
10
118.58578643762691
20
294.4142135623731
10
118.8888595339608
20
294.6629392246051
10
119.23463313526982
20
294.84775906502256
10
119.60981935596774
20
294.9615705608065
10
120
20
295
10
120
20
295
0
LWPOLYLINE
5
21
330
C
100
AcDbEntity
420
9408413
8
0
100
AcDbPolyline
90
42
70
0
43
0
38
0
39
0
10
64
20
339
10
271
20
339
10
271
20
339
10
271.3901806440323
20
338.9615705608065
10
271.7653668647302
20
338.84775906502256
10
272.1111404660392
20
338.6629392246051
10
272.4142135623731
20
338.4142135623731
10
272.6629392246051
20
338.1111404660392
10
272.84775906502256
20
337.7653668647302
10
272.9615705608065
20
337.3901806440323
10
273
20
337
10
273
20
320
10
273
20
320
10
272.9615705608065
20
319.6098193559677
10
272.84775906502256
20
319.2346331352698
10
272.6629392246051
20
318.8888595339608
10
272.4142135623731
20
318.5857864376269
10
272.1111404660392
20
318.3370607753949
10
271.7653668647302
20
318.15224093497744
10
271.3901806440323
20
318.0384294391935
10
271
20
318
10
64
20
318
10
64
20
318
10
63.609819355967744
20
318.0384294391935
10
63.23463313526982
20
318.15224093497744
10
62.8888595339608
20
318.3370607753949
10
62.58578643762691
20
318.5857864376269
10
62.33706077539491
20
318.8888595339608
10
62.15224093497743
20
319.2346331352698
10
62.038429439193536
20
319.6098193559677
10
62
20
320
10
62
20
337
10
62
20
337
10
62.038429439193536
20
337.3901806440323
10
62.15224093497743
20
337.7653668647302
10
62.33706077539491
20
338.1111404660392
10
62.58578643762691
20
338.4142135623731
10
62.8888595339608
20
338.6629392246051
10
63.23463313526982
20
338.84775906502256
10
63.609819355967744
20
338.9615705608065
10
64
20
339
10
64
20
339
0
LWPOLYLINE
5
22
330
C
100
AcDbEntity
420
9408413
8
0
100
AcDbPolyline
90
42
70
0
43
0
38
0
39
0
10
409
20
606
10
569.6666870117188
20
606
10
569.6666870117188
20
606
10
570.056867655751
20
605.9615705608064
10
570.4320538764489
20
605.8477590650226
10
570.7778274777579
20
605.6629392246051
10
571.0809005740919
20
605.4142135623731
10
571.3296262363239
20
605.1111404660392
10
571.5144460767414
20
604.7653668647301
10
571.6282575725252
20
604.3901806440323
10
571.6666870117188
20
604
10
571.6666870117188
20
586
10
571.6666870117188
20
586
10
571.6282575725252
20
585.6098193559677
10
571.5144460767414
20
585.2346331352699
10
571.3296262363239
20
584.8888595339608
10
571.0809005740919
20
584.5857864376269
10
570.7778274777579
20
584.3370607753949
10
570.4320538764489
20
584.1522409349774
10
570.056867655751
20
584.0384294391936
10
569.6666870117188
20
584
10
409
20
584
10
409
20
584
10
408.6098193559677
20
584.0384294391936
10
408.2346331352698
20
584.1522409349774
10
407.8888595339608
20
584.3370607753949
10
407.5857864376269
20
584.5857864376269
10
407.3370607753949
20
584.8888595339608
10
407.15224093497744
20
585.2346331352699
10
407.0384294391935
20
585.6098193559677
10
407
20
586
10
407
20
604
10
407
20
604
10
407.0384294391935
20
604.3901806440323
10
407.15224093497744
20
604.7653668647301
10
407.3370607753949
20
605.1111404660392
10
407.5857864376269
20
605.4142135623731
10
407.8888595339608
20
605.6629392246051
10
408.2346331352698
20
605.8477590650226
10
408.6098193559677
20
605.9615705608064
10
409
20
606
10
409
20
606
0
TEXT
5
23
330
C
100
AcDbEntity
420
0
8
0
100
AcDbText
10
412.98787952769885
20
591.6666749999999
30
0
40
13.3333
1
mnnmnmnm
7
MS Shell Dlg \32
100
AcDbText
0
LWPOLYLINE
5
24
330
C
100
AcDbEntity
420
0
8
0
100
AcDbPolyline
90
5
70
0
43
0
38
0
39
0
10
407
20
585
10
736
20
585
10
736
20
356
10
407
20
356
10
407
20
585
0
TEXT
5
25
330
C
100
AcDbEntity
420
0
8
0
100
AcDbText
10
408
20
573.25
30
0
40
13
1
    dsfd.  fsdfd
7
STANDARD
100
AcDbText
0
TEXT
5
26
330
C
100
AcDbEntity
420
0
8
0
100
AcDbText
10
408
20
558.25
30
0
40
13
1
    dsfdfs.  dfddsf
7
STANDARD
100
AcDbText
0
TEXT
5
27
330
C
100
AcDbEntity
420
0
8
0
100
AcDbText
10
408
20
543.25
30
0
40
13
1
    sdf x
7
STANDARD
100
AcDbText
0
TEXT
5
28
330
C
100
AcDbEntity
420
0
8
0
100
AcDbText
10
408
20
528.25
30
0
40
13
1
    dsfdfsdfddsfdfssddfs 
7
STANDARD
100
AcDbText
0
ENDSEC
0
SECTION
2
OBJECTS
0
DICTIONARY
5
A
330
0
100
AcDbDictionary
281
1
3
ACAD_GROUP
350
B
0
DICTIONARY
5
B
330
A
100
AcDbDictionary
281
0
0
ENDSEC
0
EOF