0
SECTION
2
HEADER
9
$ACADVER
1
AC1021
9
$LASTSAVEDBY
1
@tarikjabiri/dxf
9
$HANDSEED
5
2B
9
$INSUNITS
70
0
9
$CLAYER
8
0
9
$VIEWCTR
10
160.61667110257866
20
655.5
0
ENDSEC
0
SECTION
2
CLASSES
0
ENDSEC
0
SECTION
2
TABLES
0
TABLE
2
VPORT
5
1
330
0
100
AcDbSymbolTable
70
1
0
VPORT
5
19
330
1
100
AcDbSymbolTableRecord
100
AcDbViewportTableRecord
2
*Active
70
0
10
0
20
0
11
1
21
1
12
160.61667110257866
22
655.5
13
0
23
0
14
10
24
10
15
10
25
10
16
0
26
0
36
1
17
0
27
0
37
0
40
1511
41
2
42
50
43
0
44
0
50
0
51
0
71
0
72
100
73
1
74
3
75
0
76
1
77
0
78
0
281
0
65
1
110
0
120
0
130
0
111
1
121
0
131
0
112
0
122
1
132
0
79
0
146
0
348
10020
60
7
61
5
292
1
282
1
141
0
142
0
63
250
421
3358443
0
ENDTAB
0
TABLE
2
LTYPE
5
2
330
0
100
AcDbSymbolTable
70
3
0
LTYPE
5
12
330
2
100
AcDbSymbolTableRecord
100
AcDbLinetypeTableRecord
2
ByBlock
70
0
3

72
65
73
0
40
0
0
LTYPE
5
13
330
2
100
AcDbSymbolTableRecord
100
AcDbLinetypeTableRecord
2
ByLayer
70
0
3

72
65
73
0
40
0
0
LTYPE
5
14
330
2
100
AcDbSymbolTableRecord
100
AcDbLinetypeTableRecord
2
Continuous
70
0
3
Solid line
72
65
73
0
40
0
0
ENDTAB
0
TABLE
2
LAYER
5
3
330
0
100
AcDbSymbolTable
70
1
0
LAYER
5
15
330
3
100
AcDbSymbolTableRecord
100
AcDbLayerTableRecord
2
0
70
0
62
7
6
Continuous
370
0
390
0
0
ENDTAB
0
TABLE
2
STYLE
5
4
330
0
100
AcDbSymbolTable
70
1
0
STYLE
5
16
330
4
100
AcDbSymbolTableRecord
100
AcDbTextStyleTableRecord
2
Standard
70
0
40
0
41
1
50
0
71
0
42
1
3
txt
4

0
ENDTAB
0
TABLE
2
VIEW
5
5
330
0
100
AcDbSymbolTable
70
0
0
ENDTAB
0
TABLE
2
UCS
5
6
330
0
100
AcDbSymbolTable
70
0
0
ENDTAB
0
TABLE
2
APPID
5
7
330
0
100
AcDbSymbolTable
70
1
0
APPID
5
17
330
7
100
AcDbSymbolTableRecord
100
AcDbRegAppTableRecord
2
ACAD
70
0
0
ENDTAB
0
TABLE
2
DIMSTYLE
5
8
330
0
100
AcDbSymbolTable
70
1
100
AcDbDimStyleTable
0
DIMSTYLE
105
18
330
8
100
AcDbSymbolTableRecord
100
AcDbDimStyleTableRecord
2
Standard
70
0
340
16
0
ENDTAB
0
TABLE
2
BLOCK_RECORD
5
9
330
0
100
AcDbSymbolTable
70
2
0
BLOCK_RECORD
5
C
330
9
100
AcDbSymbolTableRecord
100
AcDbBlockTableRecord
2
*Model_Space
70
0
280
1
281
0
0
BLOCK_RECORD
5
F
330
9
100
AcDbSymbolTableRecord
100
AcDbBlockTableRecord
2
*Paper_Space
70
0
280
1
281
0
0
ENDTAB
0
ENDSEC
0
SECTION
2
BLOCKS
0
BLOCK
5
D
330
C
100
AcDbEntity
8
0
100
AcDbBlockBegin
2
*Model_Space
70
0
10
0
20
0
30
0
3
*Model_Space
1

0
ENDBLK
5
E
100
AcDbEntity
8
0
100
AcDbBlockEnd
0
BLOCK
5
10
330
F
100
AcDbEntity
8
0
100
AcDbBlockBegin
2
*Paper_Space
70
0
10
0
20
0
30
0
3
*Paper_Space
1

0
ENDBLK
5
11
100
AcDbEntity
8
0
100
AcDbBlockEnd
0
ENDSEC
0
SECTION
2
ENTITIES
0
TEXT
5
1A
330
C
100
AcDbEntity
420
0
8
0
100
AcDbText
10
0
20
1311
30
0
40
16
1
headerABC
7
STANDARD
100
AcDbText
0
TEXT
5
1B
330
C
100
AcDbEntity
420
0
8
0
100
AcDbText
10
-15.799998922347982
20
1120.7666698842713
30
0
40
126.40000343322754
1
0,5
7
STANDARD
100
AcDbText
0
LWPOLYLINE
5
1C
330
C
100
AcDbEntity
420
0
8
0
100
AcDbPolyline
90
5
70
0
43
0
38
0
39
0
10
71
20
1189
10
161
20
1189
10
161
20
1057
10
71
20
1057
10
71
20
1189
0
TEXT
5
1D
330
C
100
AcDbEntity
420
0
8
0
100
AcDbText
10
154.03332586871625
20
1145.425827181568
30
0
40
10.129999816417694
1
0
7
STANDARD
100
AcDbText
0
IMAGE
5
1F
330
C
100
AcDbEntity
8
0
100
AcDbRasterImage
90
0
10
72
20
1182.091667175293
30
0
11
0.9992426091974432
21
0
31
0
12
0
22
0.9992426091974432
32
0
13
22
23
22
340
1E
70
3
280
1
281
50
282
50
283
0
360
20
71
1
91
2
14
-0.5
24
-0.5
14
21.5
24
21.5
290
1
0
LWPOLYLINE
5
22
330
C
100
AcDbEntity
420
0
8
0
100
AcDbPolyline
90
5
70
0
43
0
38
0
39
0
10
254
20
1189
10
344
20
1189
10
344
20
1057
10
254
20
1057
10
254
20
1189
0
TEXT
5
23
330
C
100
AcDbEntity
420
0
8
0
100
AcDbText
10
337.0333411275053
20
1145.425827181568
30
0
40
10.129999816417694
1
0
7
STANDARD
100
AcDbText
0
IMAGE
5
25
330
C
100
AcDbEntity
8
0
100
AcDbRasterImage
90
0
10
255
20
1182.091667175293
30
0
11
0.9992426091974432
21
0
31
0
12
0
22
0.9992426091974432
32
0
13
22
23
22
340
24
70
3
280
1
281
50
282
50
283
0
360
26
71
1
91
2
14
-0.5
24
-0.5
14
21.5
24
21.5
290
1
0
LWPOLYLINE
5
28
330
C
100
AcDbEntity
420
0
8
0
100
AcDbPolyline
90
65
70
0
43
0
38
0
39
0
10
144
20
1124
10
145.9188690185547
20
1123.5465850830078
10
147.8408660888672
20
1123.1065979003906
10
149.76589965820312
20
1122.6801147460938
10
151.6938934326172
20
1122.2672119140625
10
153.624755859375
20
1121.8679809570312
10
155.5584259033203
20
1121.4824981689453
10
157.49481201171875
20
1121.1109619140625
10
159.43382263183594
20
1120.7533264160156
10
161.37535095214844
20
1120.40966796875
10
163.31930541992188
20
1120.0800323486328
10
165.265625
20
1119.7645568847656
10
167.2141876220703
20
1119.463363647461
10
169.1649169921875
20
1119.1764068603516
10
171.11767578125
20
1118.9037170410156
10
173.07240295410156
20
1118.6454315185547
10
175.0289764404297
20
1118.4017028808594
10
176.9873046875
20
1118.1724090576172
10
178.94729614257812
20
1117.9576263427734
10
180.9088134765625
20
1117.7574615478516
10
182.8717803955078
20
1117.572021484375
10
184.83609008789062
20
1117.4011993408203
10
186.80160522460938
20
1117.2450408935547
10
188.7682342529297
20
1117.103744506836
10
190.7358856201172
20
1116.9772338867188
10
192.70443725585938
20
1116.865478515625
10
194.6737518310547
20
1116.7685546875
10
196.64376831054688
20
1116.6866149902344
10
198.6143341064453
20
1116.6194763183594
10
200.58535766601562
20
1116.5671997070312
10
202.55670166015625
20
1116.5299377441406
10
204.52830505371094
20
1116.507568359375
10
206.49998474121094
20
1116.5000610351562
10
208.47169494628906
20
1116.5075073242188
10
210.4432830810547
20
1116.5299530029297
10
212.4146270751953
20
1116.5672454833984
10
214.38565063476562
20
1116.619400024414
10
216.35623168945312
20
1116.6865997314453
10
218.32623291015625
20
1116.7686309814453
10
220.29554748535156
20
1116.865478515625
10
222.26409912109375
20
1116.9771728515625
10
224.2317352294922
20
1117.103775024414
10
226.19839477539062
20
1117.245101928711
10
228.16390991210938
20
1117.4011535644531
10
230.1282196044922
20
1117.5719604492188
10
232.09117126464844
20
1117.7575225830078
10
234.05270385742188
20
1117.9576568603516
10
236.0126953125
20
1118.17236328125
10
237.9710235595703
20
1118.4016571044922
10
239.92759704589844
20
1118.6455078125
10
241.88232421875
20
1118.9037628173828
10
243.83509826660156
20
1119.1763763427734
10
245.7858123779297
20
1119.4632873535156
10
247.73435974121094
20
1119.7645721435547
10
249.6806640625
20
1120.080078125
10
251.6246337890625
20
1120.40966796875
10
253.56617736816406
20
1120.7533111572266
10
255.50518798828125
20
1121.1109466552734
10
257.4415588378906
20
1121.4824981689453
10
259.3752136230469
20
1121.8679809570312
10
261.30609130859375
20
1122.2672119140625
10
263.23406982421875
20
1122.6801147460938
10
265.15911865234375
20
1123.1066131591797
10
267.0810852050781
20
1123.546630859375
10
268.9999694824219
20
1124
0
HATCH
5
29
330
C
100
AcDbEntity
420
0
8
0
100
AcDbHatch
10
0
20
0
30
0
210
0
220
0
230
1
2
SOLID
70
1
71
0
91
1
92
7
72
0
73
1
93
33
10
255.94188308224307
20
1127.0799966827037
10
256.7580134822543
20
1126.8874968900348
10
257.57414388226545
20
1126.6949970973658
10
258.3902742822766
20
1126.5024973046968
10
259.2064046822878
20
1126.3099975120276
10
260.02253508229893
20
1126.1174977193589
10
260.8386654823101
20
1125.9249979266897
10
261.6547952596632
20
1125.7324982808866
10
262.47092628233247
20
1125.5399983413517
10
263.28705668234363
20
1125.3474985486828
10
264.10318708235485
20
1125.1549987560138
10
264.9193168597079
20
1124.9624991102105
10
265.73544788237723
20
1124.7699991706759
10
266.55157828238833
20
1124.577499378007
10
267.36770743708337
20
1124.3849998790693
10
268.1838390824107
20
1124.192499792669
10
268.9999694824219
20
1124
10
268.3562914329495
20
1123.462595451179
10
267.7126133834771
20
1122.9251909023576
10
267.0689352271035
20
1122.3877868059956
10
266.4252571858543
20
1121.8503822223697
10
265.78157914460513
20
1121.312977638744
10
265.13790152865795
20
1120.7755737435618
10
264.4942224723413
20
1120.23816847914
10
263.85054488928677
20
1119.7007644447397
10
263.20686779731966
20
1119.163360820346
10
262.5631882499156
20
1118.6259551459175
10
261.9195111579485
20
1118.088551521524
10
261.27583357489397
20
1117.5511474871234
10
260.63215451857735
20
1117.013742222702
10
259.98847742661025
20
1116.4763385983083
10
259.3447983702935
20
1115.9389333338868
10
258.70112029615166
20
1115.401528889479
97
0
75
1
76
1
47
1
98
0
0
LWPOLYLINE
5
2A
330
C
100
AcDbEntity
420
0
8
0
100
AcDbPolyline
90
34
70
0
43
0
38
0
39
0
10
255.94188308224307
20
1127.0799966827037
10
256.7580134822543
20
1126.8874968900348
10
257.57414388226545
20
1126.6949970973658
10
258.3902742822766
20
1126.5024973046968
10
259.2064046822878
20
1126.3099975120276
10
260.02253508229893
20
1126.1174977193589
10
260.8386654823101
20
1125.9249979266897
10
261.6547952596632
20
1125.7324982808866
10
262.47092628233247
20
1125.5399983413517
10
263.28705668234363
20
1125.3474985486828
10
264.10318708235485
20
1125.1549987560138
10
264.9193168597079
20
1124.9624991102105
10
265.73544788237723
20
1124.7699991706759
10
266.55157828238833
20
1124.577499378007
10
267.36770743708337
20
1124.3849998790693
10
268.1838390824107
20
1124.192499792669
10
268.9999694824219
20
1124
10
268.3562914329495
20
1123.462595451179
10
267.7126133834771
20
1122.9251909023576
10
267.0689352271035
20
1122.3877868059956
10
266.4252571858543
20
1121.8503822223697
10
265.78157914460513
20
1121.312977638744
10
265.13790152865795
20
1120.7755737435618
10
264.4942224723413
20
1120.23816847914
10
263.85054488928677
20
1119.7007644447397
10
263.20686779731966
20
1119.163360820346
10
262.5631882499156
20
1118.6259551459175
10
261.9195111579485
20
1118.088551521524
10
261.27583357489397
20
1117.5511474871234
10
260.63215451857735
20
1117.013742222702
10
259.98847742661025
20
1116.4763385983083
10
259.3447983702935
20
1115.9389333338868
10
258.70112029615166
20
1115.401528889479
10
255.94188308224307
20
1127.0799966827037
0
ENDSEC
0
SECTION
2
OBJECTS
0
DICTIONARY
5
A
330
0
100
AcDbDictionary
281
1
3
ACAD_GROUP
350
B
3
ACAD_IMAGE_DICT
350
21
3
ACAD_IMAGE_DICT
350
27
0
DICTIONARY
5
B
330
A
100
AcDbDictionary
281
0
0
IMAGEDEF
5
1E
330
21
102
{ACAD_REACTORS
330
21
330
20
102
}
100
AcDbRasterImageDef
1
test5-dxf-assets/image1.png
10
22
20
22
11
1
21
1
280
1
281
0
0
IMAGEDEF_REACTOR
5
20
330
0
100
AcDbRasterImageDefReactor
90
2
330
1F
0
DICTIONARY
5
21
330
A
100
AcDbDictionary
281
0
3
image1
350
1E
0
IMAGEDEF
5
24
330
27
102
{ACAD_REACTORS
330
27
330
26
102
}
100
AcDbRasterImageDef
1
test5-dxf-assets/image2.png
10
22
20
22
11
1
21
1
280
1
281
0
0
IMAGEDEF_REACTOR
5
26
330
0
100
AcDbRasterImageDefReactor
90
2
330
25
0
DICTIONARY
5
27
330
A
100
AcDbDictionary
281
0
3
image2
350
24
0
ENDSEC
0
EOF