  0
SECTION
  2
HEADER
  9
$ANGBASE
 50
0.0
  9
$ANGDIR
 70
1
  9
$AUNITS
 70
0
  9
$AUPREC
 70
0
  9
$ATTMODE
 70
1
  9
$DWGCODEPAGE
  3
ANSI_1252
  9
$TDCREATE
 40
2461147.0204881597310305
  9
$CECOLOR
 62
256
  9
$CELTSCALE
 40
1.0
  9
$CELWEIGHT
370
-1
  9
$CLAYER
  8
0
  9
$CELTYPE
  6
ByLayer
  9
$CMLJUST
 70
0
  9
$CMLSCALE
 40
20.0
  9
$CMLSTYLE
  2
Standard
  9
$DIMSTYLE
  2
Standard
  9
$LWDISPLAY
290
0
  9
$EXTNAMES
290
1
  9
$HANDSEED
  5
5F
  9
$INSUNITS
 70
0
  9
$LUNITS
 70
2
  9
$LUPREC
 70
4
  9
$LTSCALE
 40
1.0
  9
$MIRRTEXT
 70
0
  9
$INSBASE
 10
0.0
 20
0.0
 30
0.0
  9
$SPLINESEGS
 70
8
  9
$PSLTSCALE
 70
1
  9
$PDMODE
 70
0
  9
$PDSIZE
 40
0.0
  9
$PLINEGEN
 70
0
  9
$TEXTSIZE
 40
0.2
  9
$TEXTSTYLE
  7
Standard
  9
$TDINDWG
 40
0.0
  9
$TDUCREATE
 40
2461147.0204881597310305
  9
$TDUUPDATE
 40
2461147.0204881597310305
  9
$TDUPDATE
 40
2461147.0204881597310305
  9
$ACADVER
  1
AC1018
  0
ENDSEC
  0
SECTION
  2
CLASSES
  0
CLASS
  1
ACDBDICTIONARYWDFLT
  2
AcDbDictionaryWithDefault
  3
ObjectDBX Classes
 90
32768
 91
0
280
0
281
0
  0
CLASS
  1
ACDBPLACEHOLDER
  2
AcDbPlaceHolder
  3
ObjectDBX Classes
 90
0
 91
0
280
0
281
0
  0
CLASS
  1
LAYOUT
  2
AcDbLayout
  3
ObjectDBX Classes
 90
0
 91
0
280
0
281
0
  0
CLASS
  1
DICTIONARYVAR
  2
AcDbDictionaryVar
  3
ObjectDBX Classes
 90
0
 91
0
280
0
281
0
  0
CLASS
  1
TABLESTYLE
  2
AcDbTableStyle
  3
ObjectDBX Classes
 90
4095
 91
0
280
0
281
0
  0
CLASS
  1
MATERIAL
  2
AcDbMaterial
  3
ObjectDBX Classes
 90
1153
 91
0
280
0
281
0
  0
CLASS
  1
VISUALSTYLE
  2
AcDbVisualStyle
  3
ObjectDBX Classes
 90
4095
 91
0
280
0
281
0
  0
CLASS
  1
SCALE
  2
AcDbScale
  3
ObjectDBX Classes
 90
1153
 91
0
280
0
281
0
  0
CLASS
  1
MLEADERSTYLE
  2
AcDbMLeaderStyle
  3
ObjectDBX Classes
 90
4095
 91
0
280
0
281
0
  0
CLASS
  1
CELLSTYLEMAP
  2
AcDbCellStyleMap
  3
ObjectDBX Classes
 90
1152
 91
0
280
0
281
0
  0
CLASS
  1
EXACXREFPANELOBJECT
  2
ExAcXREFPanelObject
  3
ObjectDBX Classes
 90
1025
 91
0
280
0
281
0
  0
CLASS
  1
NPOCOLLECTION
  2
AcDbImpNonPersistentObjectsCollection
  3
ObjectDBX Classes
 90
1153
 91
0
280
0
281
0
  0
CLASS
  1
LAYER_INDEX
  2
AcDbLayerIndex
  3
ObjectDBX Classes
 90
0
 91
0
280
0
281
0
  0
CLASS
  1
SPATIAL_INDEX
  2
AcDbSpatialIndex
  3
ObjectDBX Classes
 90
0
 91
0
280
0
281
0
  0
CLASS
  1
IDBUFFER
  2
AcDbIdBuffer
  3
ObjectDBX Classes
 90
32768
 91
0
280
0
281
0
  0
CLASS
  1
ACDBSECTIONVIEWSTYLE
  2
AcDbSectionViewStyle
  3
ObjectDBX Classes
 90
1025
 91
0
280
0
281
0
  0
CLASS
  1
ACDBDETAILVIEWSTYLE
  2
AcDbDetailViewStyle
  3
ObjectDBX Classes
 90
1025
 91
0
280
0
281
0
  0
CLASS
  1
MESH
  2
AcDbSubDMesh
  3
ObjectDBX Classes
 90
0
 91
0
280
0
281
1
  0
CLASS
  1
SORTENTSTABLE
  2
AcDbSortentsTable
  3
ObjectDBX Classes
 90
0
 91
0
280
0
281
0
  0
CLASS
  1
ACDB_TEXTOBJECTCONTEXTDATA_CLASS
  2
AcDbTextObjectContextData
  3
ObjectDBX Classes
 90
1153
 91
0
280
0
281
0
  0
CLASS
  1
WIPEOUT
  2
AcDbWipeout
  3
WipeOut
 90
32895
 91
0
280
0
281
1
  0
CLASS
  1
WIPEOUTVARIABLES
  2
AcDbWipeoutVariables
  3
WipeOut
 90
32768
 91
0
280
0
281
0
  0
CLASS
  1
DIMASSOC
  2
AcDbDimAssoc
  3
AcDbDimAssoc
 90
0
 91
0
280
0
281
0
  0
CLASS
  1
ACAD_TABLE
  2
AcDbTable
  3
ObjectDBX Classes
 90
1025
 91
0
280
0
281
1
  0
CLASS
  1
TABLECONTENT
  2
AcDbTableContent
  3
ObjectDBX Classes
 90
1152
 91
0
280
0
281
0
  0
CLASS
  1
TABLEGEOMETRY
  2
AcDbTableGeometry
  3
ObjectDBX Classes
 90
1152
 91
0
280
0
281
0
  0
CLASS
  1
IMAGE
  2
AcDbRasterImage
  3
ISM
 90
32895
 91
0
280
0
281
1
  0
CLASS
  1
IMAGEDEF
  2
AcDbRasterImageDef
  3
ISM
 90
0
 91
0
280
0
281
0
  0
CLASS
  1
IMAGEDEF_REACTOR
  2
AcDbRasterImageDefReactor
  3
ISM
 90
1
 91
0
280
0
281
0
  0
CLASS
  1
DBCOLOR
  2
AcDbColor
  3
ObjectDBX Classes
 90
0
 91
0
280
0
281
0
  0
CLASS
  1
GEODATA
  2
AcDbGeoData
  3
ObjectDBX Classes
 90
4095
 91
0
280
0
281
0
  0
CLASS
  1
MULTILEADER
  2
AcDbMLeader
  3
ObjectDBX Classes
 90
1025
 91
0
280
0
281
0
  0
CLASS
  1
PDFUNDERLAY
  2
AcDbPdfReference
  3
ObjectDBX Classes
 90
4095
 91
0
280
0
281
1
  0
CLASS
  1
PDFDEFINITION
  2
AcDbPdfDefinition
  3
ObjectDBX Classes
 90
1153
 91
0
280
0
281
0
  0
CLASS
  1
RASTERVARIABLES
  2
AcDbRasterVariables
  3
ISM
 90
0
 91
0
280
0
281
0
  0
CLASS
  1
SPATIAL_FILTER
  2
AcDbSpatialFilter
  3
ObjectDBX Classes
 90
0
 91
0
280
0
281
0
  0
CLASS
  1
ACDB_MLEADEROBJECTCONTEXTDATA_CLASS
  2
AcDbMLeaderObjectContextData
  3
ObjectDBX Classes
 90
1025
 91
0
280
0
281
0
  0
CLASS
  1
PLOTSETTINGS
  2
AcDbPlotSettings
  3
ObjectDBX Classes
 90
0
 91
0
280
0
281
0
  0
CLASS
  1
FIELD
  2
AcDbField
  3
ObjectDBX Classes
 90
1152
 91
0
280
0
281
0
  0
CLASS
  1
FIELDLIST
  2
AcDbFieldList
  3
ObjectDBX Classes
 90
1152
 91
0
280
0
281
0
  0
CLASS
  1
ACDB_MTEXTATTRIBUTEOBJECTCONTEXTDATA_CLASS
  2
AcDbMTextAttributeObjectContextData
  3
ObjectDBX Classes
 90
1153
 91
0
280
0
281
0
  0
CLASS
  1
ACDB_BLKREFOBJECTCONTEXTDATA_CLASS
  2
AcDbBlkRefObjectContextData
  3
ObjectDBX Classes
 90
1153
 91
0
280
0
281
0
  0
ENDSEC
  0
SECTION
  2
TABLES
  0
TABLE
  2
VPORT
  5
18
330
0
100
AcDbSymbolTable
 70
1
  0
VPORT
  5
26
330
18
100
AcDbSymbolTableRecord
100
AcDbViewportTableRecord
  2
*Active
 70
0
 10
0.0
 20
0.0
 11
1.0
 21
1.0
 12
0.0
 22
0.0
 13
0.0
 23
0.0
 14
0.5
 24
0.5
 15
10.0
 25
10.0
 16
0.0
 26
0.0
 36
1.0
 17
0.0
 27
0.0
 37
0.0
 40
10.0
 41
1.0
 75
0
 76
1
  0
ENDTAB
  0
TABLE
  2
LTYPE
  5
14
330
0
100
AcDbSymbolTable
 70
3
  0
LTYPE
  5
19
330
14
100
AcDbSymbolTableRecord
100
AcDbLinetypeTableRecord
  2
ByLayer
 70
0
 72
0
 73
0
 40
0.0
  0
LTYPE
  5
1A
330
14
100
AcDbSymbolTableRecord
100
AcDbLinetypeTableRecord
  2
ByBlock
 70
0
 72
0
 73
0
 40
0.0
  0
LTYPE
  5
1B
330
14
100
AcDbSymbolTableRecord
100
AcDbLinetypeTableRecord
  2
Continuous
 70
0
 72
0
 73
0
 40
0.0
  0
ENDTAB
  0
TABLE
  2
LAYER
  5
13
330
0
100
AcDbSymbolTable
 70
1
  0
LAYER
  5
1C
330
13
100
AcDbSymbolTableRecord
100
AcDbLayerTableRecord
  2
0
 70
0
 62
7
  6
Continuous
290
1
370
-3
390
0
  0
ENDTAB
  0
TABLE
  2
STYLE
  5
15
330
0
100
AcDbSymbolTable
 70
1
  0
STYLE
  5
23
330
15
100
AcDbSymbolTableRecord
100
AcDbTextStyleTableRecord
  2
Standard
 70
0
 40
0.0
 41
1.0
 42
0.0
 50
0.0
 71
0
  0
ENDTAB
  0
TABLE
  2
VIEW
  5
17
330
0
100
AcDbSymbolTable
 70
0
  0
ENDTAB
  0
TABLE
  2
UCS
  5
16
330
0
100
AcDbSymbolTable
 70
0
  0
ENDTAB
  0
TABLE
  2
APPID
  5
10
330
0
100
AcDbSymbolTable
 70
1
  0
APPID
  5
25
330
10
100
AcDbSymbolTableRecord
100
AcDbRegAppTableRecord
  2
ACAD
 70
0
  0
ENDTAB
  0
TABLE
  2
DIMSTYLE
  5
12
330
0
100
AcDbSymbolTable
 70
1
100
AcDbDimStyleTable
  0
DIMSTYLE
105
24
330
12
100
AcDbSymbolTableRecord
100
AcDbDimStyleTableRecord
  2
Standard
 70
0
  3
<>
  4
[]
 40
1.0
 41
0.18
 42
0.625
 43
3.75
 44
1.25
 45
0.0
 46
0.0
 47
0.0
 48
0.0
 49
1.0
 50
45.0
 70
0
 90
0
140
0.18
141
0.09
142
0.0
143
25.3999999999999986
144
1.0
145
0.0
146
1.0
147
0.625
148
0.0
 71
0
 72
0
 73
0
 74
0
 75
0
 76
0
 77
1
 78
8
 79
0
170
0
171
3
172
0
173
1
174
0
175
0
176
0
177
0
178
0
179
0
271
2
272
2
273
2
274
3
275
0
276
0
277
2
278
46
279
0
280
0
281
0
282
0
283
0
284
8
285
0
286
0
287
0
288
0
289
3
290
0
340
0
371
-2
372
-2
  0
ENDTAB
  0
TABLE
  2
BLOCK_RECORD
  5
11
330
0
100
AcDbSymbolTable
 70
2
  0
BLOCK_RECORD
  5
1D
330
11
100
AcDbSymbolTableRecord
100
AcDbBlockTableRecord
  2
*Model_Space
 70
0
340
0
 70
0
280
0
281
1
  0
BLOCK_RECORD
  5
20
330
11
100
AcDbSymbolTableRecord
100
AcDbBlockTableRecord
  2
*Paper_Space
 70
0
340
0
 70
0
280
0
281
1
  0
ENDTAB
  0
ENDSEC
  0
SECTION
  2
BLOCKS
  0
BLOCK
  5
1E
330
1D
100
AcDbEntity
  8
0
  6
ByLayer
 62
256
 48
1.0
 60
0
 67
0
370
-1
100
AcDbBlockBegin
  2
*Model_Space
 70
0
 10
0.0
 20
0.0
 30
0.0
  3
*Model_Space
  0
ENDBLK
  5
1F
330
1D
100
AcDbEntity
  8
0
100
AcDbBlockEnd
  0
BLOCK
  5
21
330
20
100
AcDbEntity
  8
0
  6
ByLayer
 62
256
 48
1.0
 60
0
 67
1
370
-1
100
AcDbBlockBegin
  2
*Paper_Space
 70
0
 10
0.0
 20
0.0
 30
0.0
  3
*Paper_Space
  0
ENDBLK
  5
22
330
20
100
AcDbEntity
  8
0
100
AcDbBlockEnd
  0
ENDSEC
  0
SECTION
  2
ENTITIES
  0
TEXT
  5
27
330
1D
100
AcDbEntity
  8
0
  6
ByLayer
420
0
 48
1.0
 60
0
 67
0
370
-1
100
AcDbText
 39
0.0
 10
0.0
 20
1132.0
 30
0.0
 40
18.0
  1
Text Wrapping
 50
0.0
 41
1.0
 51
0.0
  7
Standard
 71
0
 72
0
 11
0.0
 21
0.0
 31
0.0
210
0.0
220
0.0
230
1.0
100
AcDbText
 73
0
  0
HATCH
  5
28
330
1D
100
AcDbEntity
  8
0
  6
ByLayer
420
16774112
 48
1.0
 60
0
 67
0
370
-1
100
AcDbHatch
 30
0.0
210
0.0
220
0.0
230
1.0
  2
SOLID
 70
1
 71
0
 91
1
 92
2
 72
0
 73
1
 93
41
 10
6.0
 20
1116.0
 10
244.0
 20
1116.0
 10
244.0
 20
1116.0
 10
245.1705419320967678
 20
1115.8847116824194927
 10
246.2961005941905341
 20
1115.5432771950677306
 10
247.3334213981176219
 20
1114.9888176738152197
 10
248.242640687119291
 20
1114.2426406871193194
 10
248.9888176738152765
 20
1113.3334213981177072
 10
249.5432771950677306
 20
1112.2961005941906478
 10
249.884711682419379
 20
1111.1705419320967394
 10
250.0
 20
1110.0
 10
250.0
 20
1010.399993896484375
 10
250.0
 20
1010.399993896484375
 10
249.884711682419379
 20
1009.2294519643876356
 10
249.5432771950677306
 20
1008.1038933022938409
 10
248.9888176738152765
 20
1007.0665724983667815
 10
248.242640687119291
 20
1006.1573532093650556
 10
247.3334213981176219
 20
1005.4111762226691553
 10
246.2961005941905341
 20
1004.8567167014166444
 10
245.1705419320967678
 20
1004.515282214064996
 10
244.0
 20
1004.399993896484375
 10
6.0
 20
1004.399993896484375
 10
6.0
 20
1004.399993896484375
 10
4.8294580679032304
 20
1004.515282214064996
 10
3.7038994058094614
 20
1004.8567167014166444
 10
2.6665786018823883
 20
1005.4111762226691553
 10
1.7573593128807152
 20
1006.1573532093650556
 10
1.0111823261847279
 20
1007.0665724983667815
 10
0.45672280493228
 20
1008.1038933022938409
 10
0.1152883175806174
 20
1009.2294519643876356
 10
0.0
 20
1010.399993896484375
 10
0.0
 20
1110.0
 10
0.0
 20
1110.0
 10
0.1152883175806174
 20
1111.1705419320967394
 10
0.4567228049322791
 20
1112.2961005941906478
 10
1.011182326184727
 20
1113.3334213981177072
 10
1.7573593128807143
 20
1114.2426406871193194
 10
2.6665786018823869
 20
1114.9888176738152197
 10
3.7038994058094579
 20
1115.5432771950677306
 10
4.8294580679032277
 20
1115.8847116824194927
 10
5.9999999999999991
 20
1116.0
 97
0
 75
0
 76
1
 47
0.0
 98
0
  0
LWPOLYLINE
  5
29
330
1D
100
AcDbEntity
  8
0
  6
ByLayer
420
16764032
 48
1.0
 60
0
 67
0
370
-1
100
AcDbPolyline
 90
41
 70
1
 43
0.0
 38
0.0
 39
0.0
210
0.0
220
0.0
230
1.0
 10
6.0
 20
1116.0
 40
0.0
 41
0.0
 42
0.0
 10
244.0
 20
1116.0
 40
0.0
 41
0.0
 42
0.0
 10
244.0
 20
1116.0
 40
0.0
 41
0.0
 42
0.0
 10
245.1705419320967678
 20
1115.8847116824194927
 40
0.0
 41
0.0
 42
0.0
 10
246.2961005941905341
 20
1115.5432771950677306
 40
0.0
 41
0.0
 42
0.0
 10
247.3334213981176219
 20
1114.9888176738152197
 40
0.0
 41
0.0
 42
0.0
 10
248.242640687119291
 20
1114.2426406871193194
 40
0.0
 41
0.0
 42
0.0
 10
248.9888176738152765
 20
1113.3334213981177072
 40
0.0
 41
0.0
 42
0.0
 10
249.5432771950677306
 20
1112.2961005941906478
 40
0.0
 41
0.0
 42
0.0
 10
249.884711682419379
 20
1111.1705419320967394
 40
0.0
 41
0.0
 42
0.0
 10
250.0
 20
1110.0
 40
0.0
 41
0.0
 42
0.0
 10
250.0
 20
1010.399993896484375
 40
0.0
 41
0.0
 42
0.0
 10
250.0
 20
1010.399993896484375
 40
0.0
 41
0.0
 42
0.0
 10
249.884711682419379
 20
1009.2294519643876356
 40
0.0
 41
0.0
 42
0.0
 10
249.5432771950677306
 20
1008.1038933022938409
 40
0.0
 41
0.0
 42
0.0
 10
248.9888176738152765
 20
1007.0665724983667815
 40
0.0
 41
0.0
 42
0.0
 10
248.242640687119291
 20
1006.1573532093650556
 40
0.0
 41
0.0
 42
0.0
 10
247.3334213981176219
 20
1005.4111762226691553
 40
0.0
 41
0.0
 42
0.0
 10
246.2961005941905341
 20
1004.8567167014166444
 40
0.0
 41
0.0
 42
0.0
 10
245.1705419320967678
 20
1004.515282214064996
 40
0.0
 41
0.0
 42
0.0
 10
244.0
 20
1004.399993896484375
 40
0.0
 41
0.0
 42
0.0
 10
6.0
 20
1004.399993896484375
 40
0.0
 41
0.0
 42
0.0
 10
6.0
 20
1004.399993896484375
 40
0.0
 41
0.0
 42
0.0
 10
4.8294580679032304
 20
1004.515282214064996
 40
0.0
 41
0.0
 42
0.0
 10
3.7038994058094614
 20
1004.8567167014166444
 40
0.0
 41
0.0
 42
0.0
 10
2.6665786018823883
 20
1005.4111762226691553
 40
0.0
 41
0.0
 42
0.0
 10
1.7573593128807152
 20
1006.1573532093650556
 40
0.0
 41
0.0
 42
0.0
 10
1.0111823261847279
 20
1007.0665724983667815
 40
0.0
 41
0.0
 42
0.0
 10
0.45672280493228
 20
1008.1038933022938409
 40
0.0
 41
0.0
 42
0.0
 10
0.1152883175806174
 20
1009.2294519643876356
 40
0.0
 41
0.0
 42
0.0
 10
0.0
 20
1010.399993896484375
 40
0.0
 41
0.0
 42
0.0
 10
0.0
 20
1110.0
 40
0.0
 41
0.0
 42
0.0
 10
0.0
 20
1110.0
 40
0.0
 41
0.0
 42
0.0
 10
0.1152883175806174
 20
1111.1705419320967394
 40
0.0
 41
0.0
 42
0.0
 10
0.4567228049322791
 20
1112.2961005941906478
 40
0.0
 41
0.0
 42
0.0
 10
1.011182326184727
 20
1113.3334213981177072
 40
0.0
 41
0.0
 42
0.0
 10
1.7573593128807143
 20
1114.2426406871193194
 40
0.0
 41
0.0
 42
0.0
 10
2.6665786018823869
 20
1114.9888176738152197
 40
0.0
 41
0.0
 42
0.0
 10
3.7038994058094579
 20
1115.5432771950677306
 40
0.0
 41
0.0
 42
0.0
 10
4.8294580679032277
 20
1115.8847116824194927
 40
0.0
 41
0.0
 42
0.0
 10
5.9999999999999991
 20
1116.0
 40
0.0
 41
0.0
 42
0.0
  0
TEXT
  5
2A
330
1D
100
AcDbEntity
  8
0
  6
ByLayer
420
3355443
 48
1.0
 60
0
 67
0
370
-1
100
AcDbText
 39
0.0
 10
11.0
 20
1090.3000030517578125
 30
0.0
 40
14.0
  1
Lorem ipsum dolor sit amet,
 50
0.0
 41
1.0
 51
0.0
  7
Standard
 71
0
 72
0
 11
0.0
 21
0.0
 31
0.0
210
0.0
220
0.0
230
1.0
100
AcDbText
 73
0
  0
TEXT
  5
2B
330
1D
100
AcDbEntity
  8
0
  6
ByLayer
420
3355443
 48
1.0
 60
0
 67
0
370
-1
100
AcDbText
 39
0.0
 10
11.0
 20
1067.9000015258789063
 30
0.0
 40
14.0
  1
consectetur adipiscing elit. Sed do
 50
0.0
 41
1.0
 51
0.0
  7
Standard
 71
0
 72
0
 11
0.0
 21
0.0
 31
0.0
210
0.0
220
0.0
230
1.0
100
AcDbText
 73
0
  0
TEXT
  5
2C
330
1D
100
AcDbEntity
  8
0
  6
ByLayer
420
3355443
 48
1.0
 60
0
 67
0
370
-1
100
AcDbText
 39
0.0
 10
11.0
 20
1045.5
 30
0.0
 40
14.0
  1
eiusmod tempor incididunt ut labore
 50
0.0
 41
1.0
 51
0.0
  7
Standard
 71
0
 72
0
 11
0.0
 21
0.0
 31
0.0
210
0.0
220
0.0
230
1.0
100
AcDbText
 73
0
  0
TEXT
  5
2D
330
1D
100
AcDbEntity
  8
0
  6
ByLayer
420
3355443
 48
1.0
 60
0
 67
0
370
-1
100
AcDbText
 39
0.0
 10
11.0
 20
1023.100006103515625
 30
0.0
 40
14.0
  1
et dolore magna aliqua.
 50
0.0
 41
1.0
 51
0.0
  7
Standard
 71
0
 72
0
 11
0.0
 21
0.0
 31
0.0
210
0.0
220
0.0
230
1.0
100
AcDbText
 73
0
  0
TEXT
  5
2E
330
1D
100
AcDbEntity
  8
0
  6
ByLayer
420
0
 48
1.0
 60
0
 67
0
370
-1
100
AcDbText
 39
0.0
 10
0.0
 20
974.399993896484375
 30
0.0
 40
18.0
  1
Font Sizes & Weights
 50
0.0
 41
1.0
 51
0.0
  7
Standard
 71
0
 72
0
 11
0.0
 21
0.0
 31
0.0
210
0.0
220
0.0
230
1.0
100
AcDbText
 73
0
  0
TEXT
  5
2F
330
1D
100
AcDbEntity
  8
0
  6
ByLayer
420
1713022
 48
1.0
 60
0
 67
0
370
-1
100
AcDbText
 39
0.0
 10
0.0
 20
929.899993896484375
 30
0.0
 40
32.0
  1
Large Bold Title
 50
0.0
 41
1.0
 51
0.0
  7
Standard
 71
0
 72
0
 11
0.0
 21
0.0
 31
0.0
210
0.0
220
0.0
230
1.0
100
AcDbText
 73
0
  0
TEXT
  5
30
330
1D
100
AcDbEntity
  8
0
  6
ByLayer
420
4854924
 48
1.0
 60
0
 67
0
370
-1
100
AcDbText
 39
0.0
 10
0.0
 20
894.399993896484375
 30
0.0
 40
16.0
  1
Italic text content
 50
0.0
 41
1.0
 51
0.0
  7
Standard
 71
0
 72
0
 11
0.0
 21
0.0
 31
0.0
210
0.0
220
0.0
230
1.0
100
AcDbText
 73
0
  0
TEXT
  5
31
330
1D
100
AcDbEntity
  8
0
  6
ByLayer
420
0
 48
1.0
 60
0
 67
0
370
-1
100
AcDbText
 39
0.0
 10
0.0
 20
859.399993896484375
 30
0.0
 40
18.0
  1
Text Decorations
 50
0.0
 41
1.0
 51
0.0
  7
Standard
 71
0
 72
0
 11
0.0
 21
0.0
 31
0.0
210
0.0
220
0.0
230
1.0
100
AcDbText
 73
0
  0
TEXT
  5
32
330
1D
100
AcDbEntity
  8
0
  6
ByLayer
420
12000284
 48
1.0
 60
0
 67
0
370
-1
100
AcDbText
 39
0.0
 10
0.0
 20
832.399993896484375
 30
0.0
 40
16.0
  1
Underlined text
 50
0.0
 41
1.0
 51
0.0
  7
Standard
 71
0
 72
0
 11
0.0
 21
0.0
 31
0.0
210
0.0
220
0.0
230
1.0
100
AcDbText
 73
0
  0
TEXT
  5
33
330
1D
100
AcDbEntity
  8
0
  6
ByLayer
420
7697781
 48
1.0
 60
0
 67
0
370
-1
100
AcDbText
 39
0.0
 10
0.0
 20
806.399993896484375
 30
0.0
 40
16.0
  1
Strikethrough text
 50
0.0
 41
1.0
 51
0.0
  7
Standard
 71
0
 72
0
 11
0.0
 21
0.0
 31
0.0
210
0.0
220
0.0
230
1.0
100
AcDbText
 73
0
  0
TEXT
  5
34
330
1D
100
AcDbEntity
  8
0
  6
ByLayer
420
0
 48
1.0
 60
0
 67
0
370
-1
100
AcDbText
 39
0.0
 10
0.0
 20
771.399993896484375
 30
0.0
 40
18.0
  1
Text Shadow
 50
0.0
 41
1.0
 51
0.0
  7
Standard
 71
0
 72
0
 11
0.0
 21
0.0
 31
0.0
210
0.0
220
0.0
230
1.0
100
AcDbText
 73
0
  0
TEXT
  5
35
330
1D
100
AcDbEntity
  8
0
  6
ByLayer
420
2001125
 48
1.0
 60
0
 67
0
370
-1
100
AcDbText
 39
0.0
 10
0.0
 20
734.399993896484375
 30
0.0
 40
28.0
  1
Shadow Text
 50
0.0
 41
1.0
 51
0.0
  7
Standard
 71
0
 72
0
 11
0.0
 21
0.0
 31
0.0
210
0.0
220
0.0
230
1.0
100
AcDbText
 73
0
  0
TEXT
  5
36
330
1D
100
AcDbEntity
  8
0
  6
ByLayer
420
0
 48
1.0
 60
0
 67
0
370
-1
100
AcDbText
 39
0.0
 10
0.0
 20
695.399993896484375
 30
0.0
 40
18.0
  1
Text Overflow
 50
0.0
 41
1.0
 51
0.0
  7
Standard
 71
0
 72
0
 11
0.0
 21
0.0
 31
0.0
210
0.0
220
0.0
230
1.0
100
AcDbText
 73
0
  0
HATCH
  5
37
330
1D
100
AcDbEntity
  8
0
  6
ByLayer
420
15264502
 48
1.0
 60
0
 67
0
370
-1
100
AcDbHatch
 30
0.0
210
0.0
220
0.0
230
1.0
  2
SOLID
 70
1
 71
0
 91
1
 92
2
 72
0
 73
1
 93
41
 10
4.0
 20
681.399993896484375
 10
196.0
 20
681.399993896484375
 10
196.0
 20
681.399993896484375
 10
196.7803612880645119
 20
681.3231350180972186
 10
197.5307337294603656
 20
681.0955120265296046
 10
198.2222809320784052
 20
680.7258723456945972
 10
198.8284271247461845
 20
680.2284210212305879
 10
199.3258784492101938
 20
679.6222748285628086
 10
199.6955181300451443
 20
678.9307276259446553
 10
199.9231411216129288
 20
678.1803551845489437
 10
200.0
 20
677.399993896484375
 10
200.0
 20
651.4000244140625
 10
200.0
 20
651.4000244140625
 10
199.9231411216129288
 20
650.6196631259979313
 10
199.6955181300451443
 20
649.8692906846022197
 10
199.3258784492101938
 20
649.1777434819840664
 10
198.8284271247461845
 20
648.5715972893162871
 10
198.2222809320784052
 20
648.0741459648522778
 10
197.5307337294603656
 20
647.7045062840172704
 10
196.7803612880645119
 20
647.4768832924496564
 10
196.0
 20
647.4000244140625
 10
4.0
 20
647.4000244140625
 10
4.0
 20
647.4000244140625
 10
3.2196387119354872
 20
647.4768832924496564
 10
2.4692662705396411
 20
647.7045062840172704
 10
1.7777190679215922
 20
648.0741459648522778
 10
1.1715728752538102
 20
648.5715972893162871
 10
0.6741215507898186
 20
649.1777434819840664
 10
0.304481869954853
 20
649.8692906846022197
 10
0.0768588783870783
 20
650.6196631259979313
 10
0.0
 20
651.4000244140625
 10
0.0
 20
677.399993896484375
 10
0.0
 20
677.399993896484375
 10
0.0768588783870783
 20
678.1803551845489437
 10
0.3044818699548526
 20
678.9307276259446553
 10
0.6741215507898182
 20
679.6222748285628086
 10
1.1715728752538093
 20
680.2284210212305879
 10
1.7777190679215913
 20
680.7258723456945972
 10
2.4692662705396389
 20
681.0955120265296046
 10
3.2196387119354855
 20
681.3231350180972186
 10
3.9999999999999991
 20
681.399993896484375
 97
0
 75
0
 76
1
 47
0.0
 98
0
  0
LWPOLYLINE
  5
38
330
1D
100
AcDbEntity
  8
0
  6
ByLayer
420
15264502
 48
1.0
 60
0
 67
0
370
-1
100
AcDbPolyline
 90
41
 70
1
 43
0.0
 38
0.0
 39
0.0
210
0.0
220
0.0
230
1.0
 10
4.0
 20
681.399993896484375
 40
0.0
 41
0.0
 42
0.0
 10
196.0
 20
681.399993896484375
 40
0.0
 41
0.0
 42
0.0
 10
196.0
 20
681.399993896484375
 40
0.0
 41
0.0
 42
0.0
 10
196.7803612880645119
 20
681.3231350180972186
 40
0.0
 41
0.0
 42
0.0
 10
197.5307337294603656
 20
681.0955120265296046
 40
0.0
 41
0.0
 42
0.0
 10
198.2222809320784052
 20
680.7258723456945972
 40
0.0
 41
0.0
 42
0.0
 10
198.8284271247461845
 20
680.2284210212305879
 40
0.0
 41
0.0
 42
0.0
 10
199.3258784492101938
 20
679.6222748285628086
 40
0.0
 41
0.0
 42
0.0
 10
199.6955181300451443
 20
678.9307276259446553
 40
0.0
 41
0.0
 42
0.0
 10
199.9231411216129288
 20
678.1803551845489437
 40
0.0
 41
0.0
 42
0.0
 10
200.0
 20
677.399993896484375
 40
0.0
 41
0.0
 42
0.0
 10
200.0
 20
651.4000244140625
 40
0.0
 41
0.0
 42
0.0
 10
200.0
 20
651.4000244140625
 40
0.0
 41
0.0
 42
0.0
 10
199.9231411216129288
 20
650.6196631259979313
 40
0.0
 41
0.0
 42
0.0
 10
199.6955181300451443
 20
649.8692906846022197
 40
0.0
 41
0.0
 42
0.0
 10
199.3258784492101938
 20
649.1777434819840664
 40
0.0
 41
0.0
 42
0.0
 10
198.8284271247461845
 20
648.5715972893162871
 40
0.0
 41
0.0
 42
0.0
 10
198.2222809320784052
 20
648.0741459648522778
 40
0.0
 41
0.0
 42
0.0
 10
197.5307337294603656
 20
647.7045062840172704
 40
0.0
 41
0.0
 42
0.0
 10
196.7803612880645119
 20
647.4768832924496564
 40
0.0
 41
0.0
 42
0.0
 10
196.0
 20
647.4000244140625
 40
0.0
 41
0.0
 42
0.0
 10
4.0
 20
647.4000244140625
 40
0.0
 41
0.0
 42
0.0
 10
4.0
 20
647.4000244140625
 40
0.0
 41
0.0
 42
0.0
 10
3.2196387119354872
 20
647.4768832924496564
 40
0.0
 41
0.0
 42
0.0
 10
2.4692662705396411
 20
647.7045062840172704
 40
0.0
 41
0.0
 42
0.0
 10
1.7777190679215922
 20
648.0741459648522778
 40
0.0
 41
0.0
 42
0.0
 10
1.1715728752538102
 20
648.5715972893162871
 40
0.0
 41
0.0
 42
0.0
 10
0.6741215507898186
 20
649.1777434819840664
 40
0.0
 41
0.0
 42
0.0
 10
0.304481869954853
 20
649.8692906846022197
 40
0.0
 41
0.0
 42
0.0
 10
0.0768588783870783
 20
650.6196631259979313
 40
0.0
 41
0.0
 42
0.0
 10
0.0
 20
651.4000244140625
 40
0.0
 41
0.0
 42
0.0
 10
0.0
 20
677.399993896484375
 40
0.0
 41
0.0
 42
0.0
 10
0.0
 20
677.399993896484375
 40
0.0
 41
0.0
 42
0.0
 10
0.0768588783870783
 20
678.1803551845489437
 40
0.0
 41
0.0
 42
0.0
 10
0.3044818699548526
 20
678.9307276259446553
 40
0.0
 41
0.0
 42
0.0
 10
0.6741215507898182
 20
679.6222748285628086
 40
0.0
 41
0.0
 42
0.0
 10
1.1715728752538093
 20
680.2284210212305879
 40
0.0
 41
0.0
 42
0.0
 10
1.7777190679215913
 20
680.7258723456945972
 40
0.0
 41
0.0
 42
0.0
 10
2.4692662705396389
 20
681.0955120265296046
 40
0.0
 41
0.0
 42
0.0
 10
3.2196387119354855
 20
681.3231350180972186
 40
0.0
 41
0.0
 42
0.0
 10
3.9999999999999991
 20
681.399993896484375
 40
0.0
 41
0.0
 42
0.0
  0
TEXT
  5
39
330
1D
100
AcDbEntity
  8
0
  6
ByLayer
420
0
 48
1.0
 60
0
 67
0
370
-1
100
AcDbText
 39
0.0
 10
8.0
 20
660.4000091552734375
 30
0.0
 40
16.0
  1
This is a very long text…
 50
0.0
 41
1.0
 51
0.0
  7
Standard
 71
0
 72
0
 11
0.0
 21
0.0
 31
0.0
210
0.0
220
0.0
230
1.0
100
AcDbText
 73
0
  0
TEXT
  5
3A
330
1D
100
AcDbEntity
  8
0
  6
ByLayer
420
0
 48
1.0
 60
0
 67
0
370
-1
100
AcDbText
 39
0.0
 10
0.0
 20
617.4000244140625
 30
0.0
 40
18.0
  1
Text Alignment
 50
0.0
 41
1.0
 51
0.0
  7
Standard
 71
0
 72
0
 11
0.0
 21
0.0
 31
0.0
210
0.0
220
0.0
230
1.0
100
AcDbText
 73
0
  0
HATCH
  5
3B
330
1D
100
AcDbEntity
  8
0
  6
ByLayer
420
15267305
 48
1.0
 60
0
 67
0
370
-1
100
AcDbHatch
 30
0.0
210
0.0
220
0.0
230
1.0
  2
SOLID
 70
1
 71
0
 91
1
 92
2
 72
0
 73
1
 93
4
 10
0.0
 20
603.4000244140625
 10
300.0
 20
603.4000244140625
 10
300.0
 20
497.4000244140625
 10
0.0
 20
497.4000244140625
 97
0
 75
0
 76
1
 47
0.0
 98
0
  0
LWPOLYLINE
  5
3C
330
1D
100
AcDbEntity
  8
0
  6
ByLayer
420
13166281
 48
1.0
 60
0
 67
0
370
-1
100
AcDbPolyline
 90
4
 70
1
 43
0.0
 38
0.0
 39
0.0
210
0.0
220
0.0
230
1.0
 10
0.0
 20
603.4000244140625
 40
0.0
 41
0.0
 42
0.0
 10
300.0
 20
603.4000244140625
 40
0.0
 41
0.0
 42
0.0
 10
300.0
 20
497.4000244140625
 40
0.0
 41
0.0
 42
0.0
 10
0.0
 20
497.4000244140625
 40
0.0
 41
0.0
 42
0.0
  0
TEXT
  5
3D
330
1D
100
AcDbEntity
  8
0
  6
ByLayer
420
0
 48
1.0
 60
0
 67
0
370
-1
100
AcDbText
 39
0.0
 10
207.2833404541015625
 20
576.4000244140625
 30
0.0
 40
14.0
  1
Right aligned
 50
0.0
 41
1.0
 51
0.0
  7
Standard
 71
0
 72
0
 11
0.0
 21
0.0
 31
0.0
210
0.0
220
0.0
230
1.0
100
AcDbText
 73
0
  0
TEXT
  5
3E
330
1D
100
AcDbEntity
  8
0
  6
ByLayer
420
0
 48
1.0
 60
0
 67
0
370
-1
100
AcDbText
 39
0.0
 10
104.4666671752929688
 20
555.4000244140625
 30
0.0
 40
14.0
  1
Center aligned
 50
0.0
 41
1.0
 51
0.0
  7
Standard
 71
0
 72
0
 11
0.0
 21
0.0
 31
0.0
210
0.0
220
0.0
230
1.0
100
AcDbText
 73
0
  0
TEXT
  5
3F
330
1D
100
AcDbEntity
  8
0
  6
ByLayer
420
0
 48
1.0
 60
0
 67
0
370
-1
100
AcDbText
 39
0.0
 10
11.0
 20
534.4000244140625
 30
0.0
 40
14.0
  1
Justified text that spans across the full width of
 50
0.0
 41
1.0
 51
0.0
  7
Standard
 71
0
 72
0
 11
0.0
 21
0.0
 31
0.0
210
0.0
220
0.0
230
1.0
100
AcDbText
 73
0
  0
TEXT
  5
40
330
1D
100
AcDbEntity
  8
0
  6
ByLayer
420
0
 48
1.0
 60
0
 67
0
370
-1
100
AcDbText
 39
0.0
 10
11.0
 20
517.4000244140625
 30
0.0
 40
14.0
  1
the container element here.
 50
0.0
 41
1.0
 51
0.0
  7
Standard
 71
0
 72
0
 11
0.0
 21
0.0
 31
0.0
210
0.0
220
0.0
230
1.0
100
AcDbText
 73
0
  0
TEXT
  5
41
330
1D
100
AcDbEntity
  8
0
  6
ByLayer
420
0
 48
1.0
 60
0
 67
0
370
-1
100
AcDbText
 39
0.0
 10
0.0
 20
467.4000244140625
 30
0.0
 40
18.0
  1
Multi-column Text
 50
0.0
 41
1.0
 51
0.0
  7
Standard
 71
0
 72
0
 11
0.0
 21
0.0
 31
0.0
210
0.0
220
0.0
230
1.0
100
AcDbText
 73
0
  0
HATCH
  5
42
330
1D
100
AcDbEntity
  8
0
  6
ByLayer
420
16119285
 48
1.0
 60
0
 67
0
370
-1
100
AcDbHatch
 30
0.0
210
0.0
220
0.0
230
1.0
  2
SOLID
 70
1
 71
0
 91
1
 92
2
 72
0
 73
1
 93
4
 10
0.0
 20
451.4000244140625
 10
400.0
 20
451.4000244140625
 10
400.0
 20
357.4000244140625
 10
0.0
 20
357.4000244140625
 97
0
 75
0
 76
1
 47
0.0
 98
0
  0
LWPOLYLINE
  5
43
330
1D
100
AcDbEntity
  8
0
  6
ByLayer
420
14540253
 48
1.0
 60
0
 67
0
370
-1
100
AcDbPolyline
 90
4
 70
1
 43
0.0
 38
0.0
 39
0.0
210
0.0
220
0.0
230
1.0
 10
0.0
 20
451.4000244140625
 40
0.0
 41
0.0
 42
0.0
 10
400.0
 20
451.4000244140625
 40
0.0
 41
0.0
 42
0.0
 10
400.0
 20
357.4000244140625
 40
0.0
 41
0.0
 42
0.0
 10
0.0
 20
357.4000244140625
 40
0.0
 41
0.0
 42
0.0
  0
TEXT
  5
44
330
1D
100
AcDbEntity
  8
0
  6
ByLayer
420
0
 48
1.0
 60
0
 67
0
370
-1
100
AcDbText
 39
0.0
 10
11.0
 20
428.4000244140625
 30
0.0
 40
12.0
  1
Lorem ipsum dolor sit amet,
 50
0.0
 41
1.0
 51
0.0
  7
Standard
 71
0
 72
0
 11
0.0
 21
0.0
 31
0.0
210
0.0
220
0.0
230
1.0
100
AcDbText
 73
0
  0
TEXT
  5
45
330
1D
100
AcDbEntity
  8
0
  6
ByLayer
420
0
 48
1.0
 60
0
 67
0
370
-1
100
AcDbText
 39
0.0
 10
11.0
 20
410.4000244140625
 30
0.0
 40
12.0
  1
consectetur adipiscing elit. Nulla
 50
0.0
 41
1.0
 51
0.0
  7
Standard
 71
0
 72
0
 11
0.0
 21
0.0
 31
0.0
210
0.0
220
0.0
230
1.0
100
AcDbText
 73
0
  0
TEXT
  5
46
330
1D
100
AcDbEntity
  8
0
  6
ByLayer
420
0
 48
1.0
 60
0
 67
0
370
-1
100
AcDbText
 39
0.0
 10
11.0
 20
392.4000244140625
 30
0.0
 40
12.0
  1
facilisi. Duis aute irure dolor in
 50
0.0
 41
1.0
 51
0.0
  7
Standard
 71
0
 72
0
 11
0.0
 21
0.0
 31
0.0
210
0.0
220
0.0
230
1.0
100
AcDbText
 73
0
  0
TEXT
  5
47
330
1D
100
AcDbEntity
  8
0
  6
ByLayer
420
0
 48
1.0
 60
0
 67
0
370
-1
100
AcDbText
 39
0.0
 10
11.0
 20
374.4000244140625
 30
0.0
 40
12.0
  1
reprehenderit in voluptate velit
 50
0.0
 41
1.0
 51
0.0
  7
Standard
 71
0
 72
0
 11
0.0
 21
0.0
 31
0.0
210
0.0
220
0.0
230
1.0
100
AcDbText
 73
0
  0
TEXT
  5
48
330
1D
100
AcDbEntity
  8
0
  6
ByLayer
420
0
 48
1.0
 60
0
 67
0
370
-1
100
AcDbText
 39
0.0
 10
210.0
 20
428.4000244140625
 30
0.0
 40
12.0
  1
esse cillum dolore eu fugiat nulla
 50
0.0
 41
1.0
 51
0.0
  7
Standard
 71
0
 72
0
 11
0.0
 21
0.0
 31
0.0
210
0.0
220
0.0
230
1.0
100
AcDbText
 73
0
  0
TEXT
  5
49
330
1D
100
AcDbEntity
  8
0
  6
ByLayer
420
0
 48
1.0
 60
0
 67
0
370
-1
100
AcDbText
 39
0.0
 10
210.0
 20
410.4000244140625
 30
0.0
 40
12.0
  1
pariatur. Excepteur sint occaecat
 50
0.0
 41
1.0
 51
0.0
  7
Standard
 71
0
 72
0
 11
0.0
 21
0.0
 31
0.0
210
0.0
220
0.0
230
1.0
100
AcDbText
 73
0
  0
TEXT
  5
4A
330
1D
100
AcDbEntity
  8
0
  6
ByLayer
420
0
 48
1.0
 60
0
 67
0
370
-1
100
AcDbText
 39
0.0
 10
210.0
 20
392.4000244140625
 30
0.0
 40
12.0
  1
cupidatat non proident.
 50
0.0
 41
1.0
 51
0.0
  7
Standard
 71
0
 72
0
 11
0.0
 21
0.0
 31
0.0
210
0.0
220
0.0
230
1.0
100
AcDbText
 73
0
  0
TEXT
  5
4B
330
1D
100
AcDbEntity
  8
0
  6
ByLayer
420
0
 48
1.0
 60
0
 67
0
370
-1
100
AcDbText
 39
0.0
 10
0.0
 20
327.4000244140625
 30
0.0
 40
18.0
  1
Inline Formatting
 50
0.0
 41
1.0
 51
0.0
  7
Standard
 71
0
 72
0
 11
0.0
 21
0.0
 31
0.0
210
0.0
220
0.0
230
1.0
100
AcDbText
 73
0
  0
TEXT
  5
4C
330
1D
100
AcDbEntity
  8
0
  6
ByLayer
420
0
 48
1.0
 60
0
 67
0
370
-1
100
AcDbText
 39
0.0
 10
0.0
 20
294.1500244140625
 30
0.0
 40
15.0
  1
This has
 50
0.0
 41
1.0
 51
0.0
  7
Standard
 71
0
 72
0
 11
0.0
 21
0.0
 31
0.0
210
0.0
220
0.0
230
1.0
100
AcDbText
 73
0
  0
TEXT
  5
4D
330
1D
100
AcDbEntity
  8
0
  6
ByLayer
420
0
 48
1.0
 60
0
 67
0
370
-1
100
AcDbText
 39
0.0
 10
159.3000030517578125
 20
294.1500244140625
 30
0.0
 40
15.0
  1
and
 50
0.0
 41
1.0
 51
0.0
  7
Standard
 71
0
 72
0
 11
0.0
 21
0.0
 31
0.0
210
0.0
220
0.0
230
1.0
100
AcDbText
 73
0
  0
TEXT
  5
4E
330
1D
100
AcDbEntity
  8
0
  6
ByLayer
420
0
 48
1.0
 60
0
 67
0
370
-1
100
AcDbText
 39
0.0
 10
255.2166748046875
 20
294.1500244140625
 30
0.0
 40
15.0
  1
and
 50
0.0
 41
1.0
 51
0.0
  7
Standard
 71
0
 72
0
 11
0.0
 21
0.0
 31
0.0
210
0.0
220
0.0
230
1.0
100
AcDbText
 73
0
  0
TEXT
  5
4F
330
1D
100
AcDbEntity
  8
0
  6
ByLayer
420
0
 48
1.0
 60
0
 67
0
370
-1
100
AcDbText
 39
0.0
 10
379.25
 20
294.1500244140625
 30
0.0
 40
15.0
  1
mixed together in a single paragraph.
 50
0.0
 41
1.0
 51
0.0
  7
Standard
 71
0
 72
0
 11
0.0
 21
0.0
 31
0.0
210
0.0
220
0.0
230
1.0
100
AcDbText
 73
0
  0
TEXT
  5
50
330
1D
100
AcDbEntity
  8
0
  6
ByLayer
420
13840175
 48
1.0
 60
0
 67
0
370
-1
100
AcDbText
 39
0.0
 10
60.883331298828125
 20
294.1500244140625
 30
0.0
 40
15.0
  1
italic emphasis
 50
0.0
 41
1.0
 51
0.0
  7
Standard
 71
0
 72
0
 11
0.0
 21
0.0
 31
0.0
210
0.0
220
0.0
230
1.0
100
AcDbText
 73
0
  0
TEXT
  5
51
330
1D
100
AcDbEntity
  8
0
  6
ByLayer
420
1402304
 48
1.0
 60
0
 67
0
370
-1
100
AcDbText
 39
0.0
 10
192.6833343505859375
 20
294.1500244140625
 30
0.0
 40
15.0
  1
bold text
 50
0.0
 41
1.0
 51
0.0
  7
Standard
 71
0
 72
0
 11
0.0
 21
0.0
 31
0.0
210
0.0
220
0.0
230
1.0
100
AcDbText
 73
0
  0
HATCH
  5
52
330
1D
100
AcDbEntity
  8
0
  6
ByLayer
420
2503224
 48
1.0
 60
0
 67
0
370
-1
100
AcDbHatch
 30
0.0
210
0.0
220
0.0
230
1.0
  2
SOLID
 70
1
 71
0
 91
1
 92
2
 72
0
 73
1
 93
41
 10
291.600006103515625
 20
306.4000244140625
 10
376.25
 20
306.4000244140625
 10
376.25
 20
306.4000244140625
 10
376.8352709660483697
 20
306.3423802552722464
 10
377.3980502970952671
 20
306.1716630115963653
 10
377.9167106990587968
 20
305.8944332509701098
 10
378.3713203435596597
 20
305.5213447576221597
 10
378.7444088369076098
 20
305.0667351131213536
 10
379.0216385975338653
 20
304.5480747111578239
 10
379.1923558412096895
 20
303.9852953801108697
 10
379.25
 20
303.4000244140625
 10
379.25
 20
290.4000244140625
 10
379.25
 20
290.4000244140625
 10
379.1923558412096895
 20
289.8147534480141303
 10
379.0216385975338653
 20
289.2519741169671761
 10
378.7444088369076098
 20
288.7333137150036464
 10
378.3713203435596597
 20
288.2787040705028403
 10
377.9167106990587968
 20
287.9056155771548902
 10
377.3980502970952671
 20
287.6283858165286347
 10
376.8352709660483697
 20
287.4576685728527536
 10
376.25
 20
287.4000244140625
 10
291.600006103515625
 20
287.4000244140625
 10
291.600006103515625
 20
287.4000244140625
 10
291.0147351374672553
 20
287.4576685728527536
 10
290.4519558064203579
 20
287.6283858165286347
 10
289.9332954044568282
 20
287.9056155771548902
 10
289.4786857599559653
 20
288.2787040705028403
 10
289.1055972666080152
 20
288.7333137150036464
 10
288.8283675059817597
 20
289.2519741169671761
 10
288.6576502623059355
 20
289.8147534480141303
 10
288.600006103515625
 20
290.4000244140625
 10
288.600006103515625
 20
303.4000244140625
 10
288.600006103515625
 20
303.4000244140625
 10
288.6576502623059355
 20
303.9852953801108697
 10
288.8283675059817597
 20
304.5480747111578239
 10
289.1055972666080152
 20
305.0667351131213536
 10
289.4786857599559653
 20
305.5213447576221597
 10
289.9332954044568282
 20
305.8944332509701098
 10
290.4519558064203579
 20
306.1716630115963653
 10
291.0147351374672553
 20
306.3423802552722464
 10
291.600006103515625
 20
306.4000244140625
 97
0
 75
0
 76
1
 47
0.0
 98
0
  0
LWPOLYLINE
  5
53
330
1D
100
AcDbEntity
  8
0
  6
ByLayer
420
2503224
 48
1.0
 60
0
 67
0
370
-1
100
AcDbPolyline
 90
41
 70
1
 43
0.0
 38
0.0
 39
0.0
210
0.0
220
0.0
230
1.0
 10
291.600006103515625
 20
306.4000244140625
 40
0.0
 41
0.0
 42
0.0
 10
376.25
 20
306.4000244140625
 40
0.0
 41
0.0
 42
0.0
 10
376.25
 20
306.4000244140625
 40
0.0
 41
0.0
 42
0.0
 10
376.8352709660483697
 20
306.3423802552722464
 40
0.0
 41
0.0
 42
0.0
 10
377.3980502970952671
 20
306.1716630115963653
 40
0.0
 41
0.0
 42
0.0
 10
377.9167106990587968
 20
305.8944332509701098
 40
0.0
 41
0.0
 42
0.0
 10
378.3713203435596597
 20
305.5213447576221597
 40
0.0
 41
0.0
 42
0.0
 10
378.7444088369076098
 20
305.0667351131213536
 40
0.0
 41
0.0
 42
0.0
 10
379.0216385975338653
 20
304.5480747111578239
 40
0.0
 41
0.0
 42
0.0
 10
379.1923558412096895
 20
303.9852953801108697
 40
0.0
 41
0.0
 42
0.0
 10
379.25
 20
303.4000244140625
 40
0.0
 41
0.0
 42
0.0
 10
379.25
 20
290.4000244140625
 40
0.0
 41
0.0
 42
0.0
 10
379.25
 20
290.4000244140625
 40
0.0
 41
0.0
 42
0.0
 10
379.1923558412096895
 20
289.8147534480141303
 40
0.0
 41
0.0
 42
0.0
 10
379.0216385975338653
 20
289.2519741169671761
 40
0.0
 41
0.0
 42
0.0
 10
378.7444088369076098
 20
288.7333137150036464
 40
0.0
 41
0.0
 42
0.0
 10
378.3713203435596597
 20
288.2787040705028403
 40
0.0
 41
0.0
 42
0.0
 10
377.9167106990587968
 20
287.9056155771548902
 40
0.0
 41
0.0
 42
0.0
 10
377.3980502970952671
 20
287.6283858165286347
 40
0.0
 41
0.0
 42
0.0
 10
376.8352709660483697
 20
287.4576685728527536
 40
0.0
 41
0.0
 42
0.0
 10
376.25
 20
287.4000244140625
 40
0.0
 41
0.0
 42
0.0
 10
291.600006103515625
 20
287.4000244140625
 40
0.0
 41
0.0
 42
0.0
 10
291.600006103515625
 20
287.4000244140625
 40
0.0
 41
0.0
 42
0.0
 10
291.0147351374672553
 20
287.4576685728527536
 40
0.0
 41
0.0
 42
0.0
 10
290.4519558064203579
 20
287.6283858165286347
 40
0.0
 41
0.0
 42
0.0
 10
289.9332954044568282
 20
287.9056155771548902
 40
0.0
 41
0.0
 42
0.0
 10
289.4786857599559653
 20
288.2787040705028403
 40
0.0
 41
0.0
 42
0.0
 10
289.1055972666080152
 20
288.7333137150036464
 40
0.0
 41
0.0
 42
0.0
 10
288.8283675059817597
 20
289.2519741169671761
 40
0.0
 41
0.0
 42
0.0
 10
288.6576502623059355
 20
289.8147534480141303
 40
0.0
 41
0.0
 42
0.0
 10
288.600006103515625
 20
290.4000244140625
 40
0.0
 41
0.0
 42
0.0
 10
288.600006103515625
 20
303.4000244140625
 40
0.0
 41
0.0
 42
0.0
 10
288.600006103515625
 20
303.4000244140625
 40
0.0
 41
0.0
 42
0.0
 10
288.6576502623059355
 20
303.9852953801108697
 40
0.0
 41
0.0
 42
0.0
 10
288.8283675059817597
 20
304.5480747111578239
 40
0.0
 41
0.0
 42
0.0
 10
289.1055972666080152
 20
305.0667351131213536
 40
0.0
 41
0.0
 42
0.0
 10
289.4786857599559653
 20
305.5213447576221597
 40
0.0
 41
0.0
 42
0.0
 10
289.9332954044568282
 20
305.8944332509701098
 40
0.0
 41
0.0
 42
0.0
 10
290.4519558064203579
 20
306.1716630115963653
 40
0.0
 41
0.0
 42
0.0
 10
291.0147351374672553
 20
306.3423802552722464
 40
0.0
 41
0.0
 42
0.0
 10
291.600006103515625
 20
306.4000244140625
 40
0.0
 41
0.0
 42
0.0
  0
TEXT
  5
54
330
1D
100
AcDbEntity
  8
0
  6
ByLayer
420
8440772
 48
1.0
 60
0
 67
0
370
-1
100
AcDbText
 39
0.0
 10
294.600006103515625
 20
293.6500244140625
 30
0.0
 40
13.0
  1
inline code
 50
0.0
 41
1.0
 51
0.0
  7
Standard
 71
0
 72
0
 11
0.0
 21
0.0
 31
0.0
210
0.0
220
0.0
230
1.0
100
AcDbText
 73
0
  0
TEXT
  5
55
330
1D
100
AcDbEntity
  8
0
  6
ByLayer
420
0
 48
1.0
 60
0
 67
0
370
-1
100
AcDbText
 39
0.0
 10
0.0
 20
254.4000244140625
 30
0.0
 40
18.0
  1
Multi-column Text 2
 50
0.0
 41
1.0
 51
0.0
  7
Standard
 71
0
 72
0
 11
0.0
 21
0.0
 31
0.0
210
0.0
220
0.0
230
1.0
100
AcDbText
 73
0
  0
HATCH
  5
56
330
1D
100
AcDbEntity
  8
0
  6
ByLayer
420
16119285
 48
1.0
 60
0
 67
0
370
-1
100
AcDbHatch
 30
0.0
210
0.0
220
0.0
230
1.0
  2
SOLID
 70
1
 71
0
 91
1
 92
2
 72
0
 73
1
 93
4
 10
3.294921875
 20
82.103271484375
 10
349.705078125
 20
282.103271484375
 10
396.705078125
 20
200.6968994140625
 10
50.294921875
 20
0.6968994140625
 97
0
 75
0
 76
1
 47
0.0
 98
0
  0
LWPOLYLINE
  5
57
330
1D
100
AcDbEntity
  8
0
  6
ByLayer
420
14540253
 48
1.0
 60
0
 67
0
370
-1
100
AcDbPolyline
 90
4
 70
1
 43
0.0
 38
0.0
 39
0.0
210
0.0
220
0.0
230
1.0
 10
3.294921875
 20
82.103271484375
 40
0.0
 41
0.0
 42
0.0
 10
349.705078125
 20
282.103271484375
 40
0.0
 41
0.0
 42
0.0
 10
396.705078125
 20
200.6968994140625
 40
0.0
 41
0.0
 42
0.0
 10
50.294921875
 20
0.6968994140625
 40
0.0
 41
0.0
 42
0.0
  0
TEXT
  5
58
330
1D
100
AcDbEntity
  8
0
  6
ByLayer
420
0
 48
1.0
 60
0
 67
0
370
-1
100
AcDbText
 39
0.0
 10
24.321198170083278
 20
67.6846978463736377
 30
0.0
 40
12.0
  1
Lorem ipsum dolor sit amet,
 50
1718.8735034526926029
 41
1.0
 51
0.0
  7
Standard
 71
0
 72
0
 11
0.0
 21
0.0
 31
0.0
210
0.0
220
0.0
230
1.0
100
AcDbText
 73
0
  0
TEXT
  5
59
330
1D
100
AcDbEntity
  8
0
  6
ByLayer
420
0
 48
1.0
 60
0
 67
0
370
-1
100
AcDbText
 39
0.0
 10
33.321198170083278
 20
52.0961968698111377
 30
0.0
 40
12.0
  1
consectetur adipiscing elit. Nulla
 50
1718.8728053854420068
 41
1.0
 51
0.0
  7
Standard
 71
0
 72
0
 11
0.0
 21
0.0
 31
0.0
210
0.0
220
0.0
230
1.0
100
AcDbText
 73
0
  0
TEXT
  5
5A
330
1D
100
AcDbEntity
  8
0
  6
ByLayer
420
0
 48
1.0
 60
0
 67
0
370
-1
100
AcDbText
 39
0.0
 10
42.3211956496586055
 20
36.5076955392901255
 30
0.0
 40
12.0
  1
facilisi. Duis aute irure dolor in
 50
1718.8735087410855158
 41
1.0
 51
0.0
  7
Standard
 71
0
 72
0
 11
0.0
 21
0.0
 31
0.0
210
0.0
220
0.0
230
1.0
100
AcDbText
 73
0
  0
TEXT
  5
5B
330
1D
100
AcDbEntity
  8
0
  6
ByLayer
420
0
 48
1.0
 60
0
 67
0
370
-1
100
AcDbText
 39
0.0
 10
51.3211943553860124
 20
20.9193169869986377
 30
0.0
 40
12.0
  1
reprehenderit in voluptate velit
 50
1718.8740688051875622
 41
1.0
 51
0.0
  7
Standard
 71
0
 72
0
 11
0.0
 21
0.0
 31
0.0
210
0.0
220
0.0
230
1.0
100
AcDbText
 73
0
  0
TEXT
  5
5C
330
1D
100
AcDbEntity
  8
0
  6
ByLayer
420
0
 48
1.0
 60
0
 67
0
370
-1
100
AcDbText
 39
0.0
 10
196.6602503117094329
 20
167.1847316336901486
 30
0.0
 40
12.0
  1
esse cillum dolore eu fugiat nulla
 50
1718.8734300230587451
 41
1.0
 51
0.0
  7
Standard
 71
0
 72
0
 11
0.0
 21
0.0
 31
0.0
210
0.0
220
0.0
230
1.0
100
AcDbText
 73
0
  0
TEXT
  5
5D
330
1D
100
AcDbEntity
  8
0
  6
ByLayer
420
0
 48
1.0
 60
0
 67
0
370
-1
100
AcDbText
 39
0.0
 10
205.6602446483547624
 20
151.596196869811024
 30
0.0
 40
12.0
  1
pariatur. Excepteur sint occaecat
 50
1718.8734300230587451
 41
1.0
 51
0.0
  7
Standard
 71
0
 72
0
 11
0.0
 21
0.0
 31
0.0
210
0.0
220
0.0
230
1.0
100
AcDbText
 73
0
  0
TEXT
  5
5E
330
1D
100
AcDbEntity
  8
0
  6
ByLayer
420
0
 48
1.0
 60
0
 67
0
370
-1
100
AcDbText
 39
0.0
 10
214.6602446483547624
 20
136.007695893248524
 30
0.0
 40
12.0
  1
cupidatat non proident.
 50
1718.8735055333715991
 41
1.0
 51
0.0
  7
Standard
 71
0
 72
0
 11
0.0
 21
0.0
 31
0.0
210
0.0
220
0.0
230
1.0
100
AcDbText
 73
0
  0
ENDSEC
  0
SECTION
  2
OBJECTS
  0
DICTIONARY
  5
1
330
0
100
AcDbDictionary
280
0
281
0
  3
ACAD_COLOR
350
2
  3
ACAD_GROUP
350
3
  3
ACAD_LAYOUT
350
4
  3
ACAD_MATERIAL
350
5
  3
ACAD_SORTENTS
350
6
  3
ACAD_MLEADERSTYLE
350
7
  3
ACAD_MLINESTYLE
350
8
  3
ACAD_TABLESTYLE
350
9
  3
ACAD_PLOTSETTINGS
350
A
  3
AcDbVariableDictionary
350
B
  3
ACAD_SCALELIST
350
C
  3
ACAD_VISUALSTYLE
350
D
  3
ACAD_FIELDLIST
350
E
  3
ACAD_IMAGE_DICT
350
F
  0
DICTIONARY
  5
2
330
1
100
AcDbDictionary
280
0
281
0
  0
DICTIONARY
  5
3
330
1
100
AcDbDictionary
280
0
281
0
  0
DICTIONARY
  5
4
330
1
100
AcDbDictionary
280
0
281
0
  0
DICTIONARY
  5
5
330
1
100
AcDbDictionary
280
0
281
0
  0
DICTIONARY
  5
6
330
1
100
AcDbDictionary
280
0
281
0
  0
DICTIONARY
  5
7
330
1
100
AcDbDictionary
280
0
281
0
  0
DICTIONARY
  5
8
330
1
100
AcDbDictionary
280
0
281
0
  0
DICTIONARY
  5
9
330
1
100
AcDbDictionary
280
0
281
0
  0
DICTIONARY
  5
A
330
1
100
AcDbDictionary
280
0
281
0
  0
DICTIONARY
  5
B
330
1
100
AcDbDictionary
280
0
281
0
  0
DICTIONARY
  5
C
330
1
100
AcDbDictionary
280
0
281
0
  0
DICTIONARY
  5
D
330
1
100
AcDbDictionary
280
0
281
0
  0
DICTIONARY
  5
E
330
1
100
AcDbDictionary
280
0
281
0
  0
DICTIONARY
  5
F
330
1
100
AcDbDictionary
280
0
281
0
  0
ENDSEC
  0
EOF
