0
SECTION
2
HEADER
9
$ACADVER
1
AC1021
9
$LASTSAVEDBY
1
@tarikjabiri/dxf
9
$HANDSEED
5
4D
9
$INSUNITS
70
0
9
$CLAYER
8
0
9
$VIEWCTR
10
189.625
20
575.4596584934993
0
ENDSEC
0
SECTION
2
CLASSES
0
ENDSEC
0
SECTION
2
TABLES
0
TABLE
2
VPORT
5
1
330
0
100
AcDbSymbolTable
70
1
0
VPORT
5
19
330
1
100
AcDbSymbolTableRecord
100
AcDbViewportTableRecord
2
*Active
70
0
10
0
20
0
11
1
21
1
12
189.625
22
575.4596584934993
13
0
23
0
14
10
24
10
15
10
25
10
16
0
26
0
36
1
17
0
27
0
37
0
40
1311.0806830130014
41
2
42
50
43
0
44
0
50
0
51
0
71
0
72
100
73
1
74
3
75
0
76
1
77
0
78
0
281
0
65
1
110
0
120
0
130
0
111
1
121
0
131
0
112
0
122
1
132
0
79
0
146
0
348
10020
60
7
61
5
292
1
282
1
141
0
142
0
63
250
421
3358443
0
ENDTAB
0
TABLE
2
LTYPE
5
2
330
0
100
AcDbSymbolTable
70
3
0
LTYPE
5
12
330
2
100
AcDbSymbolTableRecord
100
AcDbLinetypeTableRecord
2
ByBlock
70
0
3

72
65
73
0
40
0
0
LTYPE
5
13
330
2
100
AcDbSymbolTableRecord
100
AcDbLinetypeTableRecord
2
ByLayer
70
0
3

72
65
73
0
40
0
0
LTYPE
5
14
330
2
100
AcDbSymbolTableRecord
100
AcDbLinetypeTableRecord
2
Continuous
70
0
3
Solid line
72
65
73
0
40
0
0
ENDTAB
0
TABLE
2
LAYER
5
3
330
0
100
AcDbSymbolTable
70
1
0
LAYER
5
15
330
3
100
AcDbSymbolTableRecord
100
AcDbLayerTableRecord
2
0
70
0
62
7
6
Continuous
370
0
390
0
0
ENDTAB
0
TABLE
2
STYLE
5
4
330
0
100
AcDbSymbolTable
70
2
0
STYLE
5
16
330
4
100
AcDbSymbolTableRecord
100
AcDbTextStyleTableRecord
2
Standard
70
0
40
0
41
1
50
0
71
0
42
1
3
txt
4

0
STYLE
5
1B
330
4
100
AcDbSymbolTableRecord
100
AcDbTextStyleTableRecord
2
Arial
70
0
40
0
41
1
50
0
71
0
42
1
3
Arial.ttf
4

0
ENDTAB
0
TABLE
2
VIEW
5
5
330
0
100
AcDbSymbolTable
70
0
0
ENDTAB
0
TABLE
2
UCS
5
6
330
0
100
AcDbSymbolTable
70
0
0
ENDTAB
0
TABLE
2
APPID
5
7
330
0
100
AcDbSymbolTable
70
1
0
APPID
5
17
330
7
100
AcDbSymbolTableRecord
100
AcDbRegAppTableRecord
2
ACAD
70
0
0
ENDTAB
0
TABLE
2
DIMSTYLE
5
8
330
0
100
AcDbSymbolTable
70
1
100
AcDbDimStyleTable
0
DIMSTYLE
105
18
330
8
100
AcDbSymbolTableRecord
100
AcDbDimStyleTableRecord
2
Standard
70
0
340
16
0
ENDTAB
0
TABLE
2
BLOCK_RECORD
5
9
330
0
100
AcDbSymbolTable
70
2
0
BLOCK_RECORD
5
C
330
9
100
AcDbSymbolTableRecord
100
AcDbBlockTableRecord
2
*Model_Space
70
0
280
1
281
0
0
BLOCK_RECORD
5
F
330
9
100
AcDbSymbolTableRecord
100
AcDbBlockTableRecord
2
*Paper_Space
70
0
280
1
281
0
0
ENDTAB
0
ENDSEC
0
SECTION
2
BLOCKS
0
BLOCK
5
D
330
C
100
AcDbEntity
8
0
100
AcDbBlockBegin
2
*Model_Space
70
0
10
0
20
0
30
0
3
*Model_Space
1

0
ENDBLK
5
E
100
AcDbEntity
8
0
100
AcDbBlockEnd
0
BLOCK
5
10
330
F
100
AcDbEntity
8
0
100
AcDbBlockBegin
2
*Paper_Space
70
0
10
0
20
0
30
0
3
*Paper_Space
1

0
ENDBLK
5
11
100
AcDbEntity
8
0
100
AcDbBlockEnd
0
ENDSEC
0
SECTION
2
ENTITIES
0
TEXT
5
1A
330
C
100
AcDbEntity
420
0
8
0
100
AcDbText
10
0
20
1131
30
0
40
18
1
Text Wrapping
7
Arial
100
AcDbText
0
LWPOLYLINE
5
1C
330
C
100
AcDbEntity
420
16764032
8
0
100
AcDbPolyline
90
42
70
0
43
0
38
0
39
0
10
6
20
1115
10
244
20
1115
10
244
20
1115
10
245.17054193209677
20
1114.8847116824195
10
246.29610059419053
20
1114.5432771950677
10
247.33342139811762
20
1113.9888176738152
10
248.2426406871193
20
1113.2426406871193
10
248.98881767381528
20
1112.3334213981177
10
249.54327719506773
20
1111.2961005941906
10
249.88471168241938
20
1110.1705419320967
10
250
20
1109
10
250
20
1009.3999938964844
10
250
20
1009.3999938964844
10
249.88471168241938
20
1008.2294519643876
10
249.54327719506773
20
1007.1038933022938
10
248.98881767381528
20
1006.0665724983668
10
248.2426406871193
20
1005.157353209365
10
247.33342139811762
20
1004.4111762226692
10
246.29610059419053
20
1003.8567167014166
10
245.17054193209677
20
1003.515282214065
10
244
20
1003.3999938964844
10
6
20
1003.3999938964844
10
6
20
1003.3999938964844
10
4.82945806790323
20
1003.515282214065
10
3.7038994058094614
20
1003.8567167014166
10
2.6665786018823883
20
1004.4111762226692
10
1.7573593128807152
20
1005.157353209365
10
1.011182326184728
20
1006.0665724983668
10
0.45672280493228
20
1007.1038933022938
10
0.11528831758061742
20
1008.2294519643876
10
0
20
1009.3999938964844
10
0
20
1109
10
0
20
1109
10
0.11528831758061742
20
1110.1705419320967
10
0.4567228049322791
20
1111.2961005941906
10
1.011182326184727
20
1112.3334213981177
10
1.7573593128807143
20
1113.2426406871193
10
2.666578601882387
20
1113.9888176738152
10
3.703899405809458
20
1114.5432771950677
10
4.829458067903228
20
1114.8847116824195
10
5.999999999999999
20
1115
10
6
20
1115
0
TEXT
5
1D
330
C
100
AcDbEntity
420
3355443
8
0
100
AcDbText
10
11
20
1089.3000030517578
30
0
40
14
1
Lorem ipsum dolor sit amet,
7
Arial
100
AcDbText
0
TEXT
5
1E
330
C
100
AcDbEntity
420
3355443
8
0
100
AcDbText
10
11
20
1066.900001525879
30
0
40
14
1
consectetur adipiscing elit. Sed do
7
Arial
100
AcDbText
0
TEXT
5
1F
330
C
100
AcDbEntity
420
3355443
8
0
100
AcDbText
10
11
20
1044.5
30
0
40
14
1
eiusmod tempor incididunt ut labore
7
Arial
100
AcDbText
0
TEXT
5
20
330
C
100
AcDbEntity
420
3355443
8
0
100
AcDbText
10
11
20
1022.1000061035156
30
0
40
14
1
et dolore magna aliqua.
7
Arial
100
AcDbText
0
TEXT
5
21
330
C
100
AcDbEntity
420
0
8
0
100
AcDbText
10
0
20
973.3999938964844
30
0
40
18
1
Font Sizes & Weights
7
Arial
100
AcDbText
0
TEXT
5
22
330
C
100
AcDbEntity
420
1713022
8
0
100
AcDbText
10
0
20
928.8999938964844
30
0
40
32
1
Large Bold Title
7
Arial
100
AcDbText
0
TEXT
5
23
330
C
100
AcDbEntity
420
4854924
8
0
100
AcDbText
10
0
20
893.3999938964844
30
0
40
16
1
Italic text content
7
Arial
100
AcDbText
0
TEXT
5
24
330
C
100
AcDbEntity
420
0
8
0
100
AcDbText
10
0
20
858.3999938964844
30
0
40
18
1
Text Decorations
7
Arial
100
AcDbText
0
TEXT
5
25
330
C
100
AcDbEntity
420
12000284
8
0
100
AcDbText
10
0
20
831.3999938964844
30
0
40
16
1
Underlined text
7
Arial
100
AcDbText
0
TEXT
5
26
330
C
100
AcDbEntity
420
7697781
8
0
100
AcDbText
10
0
20
805.3999938964844
30
0
40
16
1
Strikethrough text
7
Arial
100
AcDbText
0
TEXT
5
27
330
C
100
AcDbEntity
420
0
8
0
100
AcDbText
10
0
20
770.3999938964844
30
0
40
18
1
Text Shadow
7
Arial
100
AcDbText
0
TEXT
5
28
330
C
100
AcDbEntity
420
2001125
8
0
100
AcDbText
10
0
20
733.3999938964844
30
0
40
28
1
Shadow Text
7
Arial
100
AcDbText
0
TEXT
5
29
330
C
100
AcDbEntity
420
0
8
0
100
AcDbText
10
0
20
694.3999938964844
30
0
40
18
1
Text Overflow
7
Arial
100
AcDbText
0
LWPOLYLINE
5
2A
330
C
100
AcDbEntity
420
15264502
8
0
100
AcDbPolyline
90
42
70
0
43
0
38
0
39
0
10
4
20
680.3999938964844
10
196
20
680.3999938964844
10
196
20
680.3999938964844
10
196.7803612880645
20
680.3231350180972
10
197.53073372946037
20
680.0955120265296
10
198.2222809320784
20
679.7258723456946
10
198.82842712474618
20
679.2284210212306
10
199.3258784492102
20
678.6222748285628
10
199.69551813004514
20
677.9307276259447
10
199.92314112161293
20
677.180355184549
10
200
20
676.3999938964844
10
200
20
650.4000244140625
10
200
20
650.4000244140625
10
199.92314112161293
20
649.6196631259979
10
199.69551813004514
20
648.8692906846022
10
199.3258784492102
20
648.1777434819841
10
198.82842712474618
20
647.5715972893163
10
198.2222809320784
20
647.0741459648523
10
197.53073372946037
20
646.7045062840173
10
196.7803612880645
20
646.4768832924497
10
196
20
646.4000244140625
10
4
20
646.4000244140625
10
4
20
646.4000244140625
10
3.2196387119354872
20
646.4768832924497
10
2.469266270539641
20
646.7045062840173
10
1.7777190679215922
20
647.0741459648523
10
1.1715728752538102
20
647.5715972893163
10
0.6741215507898186
20
648.1777434819841
10
0.30448186995485305
20
648.8692906846022
10
0.07685887838707828
20
649.6196631259979
10
0
20
650.4000244140625
10
0
20
676.3999938964844
10
0
20
676.3999938964844
10
0.07685887838707828
20
677.180355184549
10
0.3044818699548526
20
677.9307276259447
10
0.6741215507898182
20
678.6222748285628
10
1.1715728752538093
20
679.2284210212306
10
1.7777190679215913
20
679.7258723456946
10
2.469266270539639
20
680.0955120265296
10
3.2196387119354855
20
680.3231350180972
10
3.999999999999999
20
680.3999938964844
10
4
20
680.3999938964844
0
TEXT
5
2B
330
C
100
AcDbEntity
420
0
8
0
100
AcDbText
10
8
20
659.4000091552734
30
0
40
16
1
This is a very long text…
7
Arial
100
AcDbText
0
TEXT
5
2C
330
C
100
AcDbEntity
420
0
8
0
100
AcDbText
10
0
20
616.4000244140625
30
0
40
18
1
Text Alignment
7
Arial
100
AcDbText
0
LWPOLYLINE
5
2D
330
C
100
AcDbEntity
420
13166281
8
0
100
AcDbPolyline
90
5
70
0
43
0
38
0
39
0
10
0
20
602.4000244140625
10
300
20
602.4000244140625
10
300
20
496.4000244140625
10
0
20
496.4000244140625
10
0
20
602.4000244140625
0
TEXT
5
2E
330
C
100
AcDbEntity
420
0
8
0
100
AcDbText
10
207.28334045410156
20
575.4000244140625
30
0
40
14
1
Right aligned
7
Arial
100
AcDbText
0
TEXT
5
2F
330
C
100
AcDbEntity
420
0
8
0
100
AcDbText
10
104.46666717529297
20
554.4000244140625
30
0
40
14
1
Center aligned
7
Arial
100
AcDbText
0
TEXT
5
30
330
C
100
AcDbEntity
420
0
8
0
100
AcDbText
10
11
20
533.4000244140625
30
0
40
14
1
Justified text that spans across the full width of
7
Arial
100
AcDbText
0
TEXT
5
31
330
C
100
AcDbEntity
420
0
8
0
100
AcDbText
10
11
20
516.4000244140625
30
0
40
14
1
the container element here.
7
Arial
100
AcDbText
0
TEXT
5
32
330
C
100
AcDbEntity
420
0
8
0
100
AcDbText
10
0
20
466.4000244140625
30
0
40
18
1
Multi-column Text
7
Arial
100
AcDbText
0
LWPOLYLINE
5
33
330
C
100
AcDbEntity
420
14540253
8
0
100
AcDbPolyline
90
5
70
0
43
0
38
0
39
0
10
0
20
450.4000244140625
10
400
20
450.4000244140625
10
400
20
356.4000244140625
10
0
20
356.4000244140625
10
0
20
450.4000244140625
0
TEXT
5
34
330
C
100
AcDbEntity
420
0
8
0
100
AcDbText
10
11
20
427.4000244140625
30
0
40
12
1
Lorem ipsum dolor sit amet,
7
Arial
100
AcDbText
0
TEXT
5
35
330
C
100
AcDbEntity
420
0
8
0
100
AcDbText
10
11
20
409.4000244140625
30
0
40
12
1
consectetur adipiscing elit. Nulla
7
Arial
100
AcDbText
0
TEXT
5
36
330
C
100
AcDbEntity
420
0
8
0
100
AcDbText
10
11
20
391.4000244140625
30
0
40
12
1
facilisi. Duis aute irure dolor in
7
Arial
100
AcDbText
0
TEXT
5
37
330
C
100
AcDbEntity
420
0
8
0
100
AcDbText
10
11
20
373.4000244140625
30
0
40
12
1
reprehenderit in voluptate velit
7
Arial
100
AcDbText
0
TEXT
5
38
330
C
100
AcDbEntity
420
0
8
0
100
AcDbText
10
210
20
427.4000244140625
30
0
40
12
1
esse cillum dolore eu fugiat nulla
7
Arial
100
AcDbText
0
TEXT
5
39
330
C
100
AcDbEntity
420
0
8
0
100
AcDbText
10
210
20
409.4000244140625
30
0
40
12
1
pariatur. Excepteur sint occaecat
7
Arial
100
AcDbText
0
TEXT
5
3A
330
C
100
AcDbEntity
420
0
8
0
100
AcDbText
10
210
20
391.4000244140625
30
0
40
12
1
cupidatat non proident.
7
Arial
100
AcDbText
0
TEXT
5
3B
330
C
100
AcDbEntity
420
0
8
0
100
AcDbText
10
0
20
326.4000244140625
30
0
40
18
1
Inline Formatting
7
Arial
100
AcDbText
0
TEXT
5
3C
330
C
100
AcDbEntity
420
0
8
0
100
AcDbText
10
0
20
293.1500244140625
30
0
40
15
1
This has 
7
Arial
100
AcDbText
0
TEXT
5
3D
330
C
100
AcDbEntity
420
13840175
8
0
100
AcDbText
10
60.883331298828125
20
293.1500244140625
30
0
40
15
1
italic emphasis
7
Arial
100
AcDbText
0
TEXT
5
3E
330
C
100
AcDbEntity
420
0
8
0
100
AcDbText
10
159.3000030517578
20
293.1500244140625
30
0
40
15
1
 and 
7
Arial
100
AcDbText
0
TEXT
5
3F
330
C
100
AcDbEntity
420
1402304
8
0
100
AcDbText
10
192.68333435058594
20
293.1500244140625
30
0
40
15
1
bold text
7
Arial
100
AcDbText
0
TEXT
5
40
330
C
100
AcDbEntity
420
0
8
0
100
AcDbText
10
255.2166748046875
20
293.1500244140625
30
0
40
15
1
 and 
7
Arial
100
AcDbText
0
LWPOLYLINE
5
41
330
C
100
AcDbEntity
420
2503224
8
0
100
AcDbPolyline
90
42
70
0
43
0
38
0
39
0
10
291.6000061035156
20
305.4000244140625
10
376.25
20
305.4000244140625
10
376.25
20
305.4000244140625
10
376.83527096604837
20
305.34238025527225
10
377.39805029709527
20
305.17166301159637
10
377.9167106990588
20
304.8944332509701
10
378.37132034355966
20
304.52134475762216
10
378.7444088369076
20
304.06673511312135
10
379.02163859753387
20
303.5480747111578
10
379.1923558412097
20
302.98529538011087
10
379.25
20
302.4000244140625
10
379.25
20
289.4000244140625
10
379.25
20
289.4000244140625
10
379.1923558412097
20
288.81475344801413
10
379.02163859753387
20
288.2519741169672
10
378.7444088369076
20
287.73331371500365
10
378.37132034355966
20
287.27870407050284
10
377.9167106990588
20
286.9056155771549
10
377.39805029709527
20
286.62838581652863
10
376.83527096604837
20
286.45766857285275
10
376.25
20
286.4000244140625
10
291.6000061035156
20
286.4000244140625
10
291.6000061035156
20
286.4000244140625
10
291.01473513746726
20
286.45766857285275
10
290.45195580642036
20
286.62838581652863
10
289.9332954044568
20
286.9056155771549
10
289.47868575995597
20
287.27870407050284
10
289.105597266608
20
287.73331371500365
10
288.82836750598176
20
288.2519741169672
10
288.65765026230594
20
288.81475344801413
10
288.6000061035156
20
289.4000244140625
10
288.6000061035156
20
302.4000244140625
10
288.6000061035156
20
302.4000244140625
10
288.65765026230594
20
302.98529538011087
10
288.82836750598176
20
303.5480747111578
10
289.105597266608
20
304.06673511312135
10
289.47868575995597
20
304.52134475762216
10
289.9332954044568
20
304.8944332509701
10
290.45195580642036
20
305.17166301159637
10
291.01473513746726
20
305.34238025527225
10
291.6000061035156
20
305.4000244140625
10
291.6000061035156
20
305.4000244140625
0
TEXT
5
42
330
C
100
AcDbEntity
420
8440772
8
0
100
AcDbText
10
294.6000061035156
20
292.6500244140625
30
0
40
13
1
inline code
7
STANDARD
100
AcDbText
0
TEXT
5
43
330
C
100
AcDbEntity
420
0
8
0
100
AcDbText
10
379.25
20
293.1500244140625
30
0
40
15
1
 mixed together in a single paragraph.
7
Arial
100
AcDbText
0
TEXT
5
44
330
C
100
AcDbEntity
420
0
8
0
100
AcDbText
10
0
20
253.4000244140625
30
0
40
18
1
Multi-column Text 2
7
Arial
100
AcDbText
0
LWPOLYLINE
5
45
330
C
100
AcDbEntity
420
14540253
8
0
100
AcDbPolyline
90
5
70
0
43
0
38
0
39
0
10
3.294921875
20
81.103271484375
10
349.705078125
20
281.103271484375
10
396.705078125
20
199.6968994140625
10
50.294921875
20
-0.3031005859375
10
3.294921875
20
81.103271484375
0
TEXT
5
46
330
C
100
AcDbEntity
420
0
8
0
100
AcDbText
10
24.321198170083278
20
66.68469784637364
30
0
40
12
1
Lorem ipsum dolor sit amet,
50
30.000002060539607
7
Arial
100
AcDbText
0
TEXT
5
47
330
C
100
AcDbEntity
420
0
8
0
100
AcDbText
10
33.32119817008328
20
51.09619686981114
30
0
40
12
1
consectetur adipiscing elit. Nulla
50
29.999989876967682
7
Arial
100
AcDbText
0
TEXT
5
48
330
C
100
AcDbEntity
420
0
8
0
100
AcDbText
10
42.321195649658605
20
35.507695539290125
30
0
40
12
1
facilisi. Duis aute irure dolor in
50
30.000002152839475
7
Arial
100
AcDbText
0
TEXT
5
49
330
C
100
AcDbEntity
420
0
8
0
100
AcDbText
10
51.32119435538601
20
19.919316986998638
30
0
40
12
1
reprehenderit in voluptate velit
50
30.000011927802078
7
Arial
100
AcDbText
0
TEXT
5
4A
330
C
100
AcDbEntity
420
0
8
0
100
AcDbText
10
196.66025031170943
20
166.18473163369015
30
0
40
12
1
esse cillum dolore eu fugiat nulla
50
30.000000778950728
7
Arial
100
AcDbText
0
TEXT
5
4B
330
C
100
AcDbEntity
420
0
8
0
100
AcDbText
10
205.66024464835476
20
150.59619686981102
30
0
40
12
1
pariatur. Excepteur sint occaecat
50
30.000000778950728
7
Arial
100
AcDbText
0
TEXT
5
4C
330
C
100
AcDbEntity
420
0
8
0
100
AcDbText
10
214.66024464835476
20
135.00769589324852
30
0
40
12
1
cupidatat non proident.
50
30.000002096854306
7
Arial
100
AcDbText
0
ENDSEC
0
SECTION
2
OBJECTS
0
DICTIONARY
5
A
330
0
100
AcDbDictionary
281
1
3
ACAD_GROUP
350
B
0
DICTIONARY
5
B
330
A
100
AcDbDictionary
281
0
0
ENDSEC
0
EOF