  0
SECTION
  2
HEADER
  9
$ANGBASE
 50
0.0
  9
$ANGDIR
 70
1
  9
$AUNITS
 70
0
  9
$AUPREC
 70
0
  9
$ATTMODE
 70
1
  9
$DWGCODEPAGE
  3
ANSI_1252
  9
$TDCREATE
 40
2451545.0416666665114462
  9
$CECOLOR
 62
256
  9
$CELTSCALE
 40
1.0
  9
$CELWEIGHT
370
-1
  9
$CLAYER
  8
0
  9
$CELTYPE
  6
ByLayer
  9
$CMLJUST
 70
0
  9
$CMLSCALE
 40
20.0
  9
$CMLSTYLE
  2
Standard
  9
$DIMSTYLE
  2
Standard
  9
$LWDISPLAY
290
0
  9
$EXTNAMES
290
1
  9
$HANDSEED
  5
34
  9
$INSUNITS
 70
0
  9
$LUNITS
 70
2
  9
$LUPREC
 70
4
  9
$LTSCALE
 40
1.0
  9
$MIRRTEXT
 70
0
  9
$INSBASE
 10
0.0
 20
0.0
 30
0.0
  9
$SPLINESEGS
 70
8
  9
$PSLTSCALE
 70
1
  9
$PDMODE
 70
0
  9
$PDSIZE
 40
0.0
  9
$PLINEGEN
 70
0
  9
$TEXTSIZE
 40
0.2
  9
$TEXTSTYLE
  7
Standard
  9
$TDINDWG
 40
0.0
  9
$TDUCREATE
 40
2451545.0416666665114462
  9
$TDUUPDATE
 40
2451545.0416666665114462
  9
$TDUPDATE
 40
2451545.0416666665114462
  9
$ACADVER
  1
AC1018
  0
ENDSEC
  0
SECTION
  2
CLASSES
  0
CLASS
  1
ACDBDICTIONARYWDFLT
  2
AcDbDictionaryWithDefault
  3
ObjectDBX Classes
 90
32768
 91
0
280
0
281
0
  0
CLASS
  1
ACDBPLACEHOLDER
  2
AcDbPlaceHolder
  3
ObjectDBX Classes
 90
0
 91
0
280
0
281
0
  0
CLASS
  1
LAYOUT
  2
AcDbLayout
  3
ObjectDBX Classes
 90
0
 91
0
280
0
281
0
  0
CLASS
  1
DICTIONARYVAR
  2
AcDbDictionaryVar
  3
ObjectDBX Classes
 90
0
 91
0
280
0
281
0
  0
CLASS
  1
TABLESTYLE
  2
AcDbTableStyle
  3
ObjectDBX Classes
 90
4095
 91
0
280
0
281
0
  0
CLASS
  1
MATERIAL
  2
AcDbMaterial
  3
ObjectDBX Classes
 90
1153
 91
0
280
0
281
0
  0
CLASS
  1
VISUALSTYLE
  2
AcDbVisualStyle
  3
ObjectDBX Classes
 90
4095
 91
0
280
0
281
0
  0
CLASS
  1
SCALE
  2
AcDbScale
  3
ObjectDBX Classes
 90
1153
 91
0
280
0
281
0
  0
CLASS
  1
MLEADERSTYLE
  2
AcDbMLeaderStyle
  3
ObjectDBX Classes
 90
4095
 91
0
280
0
281
0
  0
CLASS
  1
CELLSTYLEMAP
  2
AcDbCellStyleMap
  3
ObjectDBX Classes
 90
1152
 91
0
280
0
281
0
  0
CLASS
  1
EXACXREFPANELOBJECT
  2
ExAcXREFPanelObject
  3
ObjectDBX Classes
 90
1025
 91
0
280
0
281
0
  0
CLASS
  1
NPOCOLLECTION
  2
AcDbImpNonPersistentObjectsCollection
  3
ObjectDBX Classes
 90
1153
 91
0
280
0
281
0
  0
CLASS
  1
LAYER_INDEX
  2
AcDbLayerIndex
  3
ObjectDBX Classes
 90
0
 91
0
280
0
281
0
  0
CLASS
  1
SPATIAL_INDEX
  2
AcDbSpatialIndex
  3
ObjectDBX Classes
 90
0
 91
0
280
0
281
0
  0
CLASS
  1
IDBUFFER
  2
AcDbIdBuffer
  3
ObjectDBX Classes
 90
32768
 91
0
280
0
281
0
  0
CLASS
  1
ACDBSECTIONVIEWSTYLE
  2
AcDbSectionViewStyle
  3
ObjectDBX Classes
 90
1025
 91
0
280
0
281
0
  0
CLASS
  1
ACDBDETAILVIEWSTYLE
  2
AcDbDetailViewStyle
  3
ObjectDBX Classes
 90
1025
 91
0
280
0
281
0
  0
CLASS
  1
MESH
  2
AcDbSubDMesh
  3
ObjectDBX Classes
 90
0
 91
0
280
0
281
1
  0
CLASS
  1
SORTENTSTABLE
  2
AcDbSortentsTable
  3
ObjectDBX Classes
 90
0
 91
0
280
0
281
0
  0
CLASS
  1
ACDB_TEXTOBJECTCONTEXTDATA_CLASS
  2
AcDbTextObjectContextData
  3
ObjectDBX Classes
 90
1153
 91
0
280
0
281
0
  0
CLASS
  1
WIPEOUT
  2
AcDbWipeout
  3
WipeOut
 90
32895
 91
0
280
0
281
1
  0
CLASS
  1
WIPEOUTVARIABLES
  2
AcDbWipeoutVariables
  3
WipeOut
 90
32768
 91
0
280
0
281
0
  0
CLASS
  1
DIMASSOC
  2
AcDbDimAssoc
  3
AcDbDimAssoc
 90
0
 91
0
280
0
281
0
  0
CLASS
  1
ACAD_TABLE
  2
AcDbTable
  3
ObjectDBX Classes
 90
1025
 91
0
280
0
281
1
  0
CLASS
  1
TABLECONTENT
  2
AcDbTableContent
  3
ObjectDBX Classes
 90
1152
 91
0
280
0
281
0
  0
CLASS
  1
TABLEGEOMETRY
  2
AcDbTableGeometry
  3
ObjectDBX Classes
 90
1152
 91
0
280
0
281
0
  0
CLASS
  1
IMAGE
  2
AcDbRasterImage
  3
ISM
 90
32895
 91
0
280
0
281
1
  0
CLASS
  1
IMAGEDEF
  2
AcDbRasterImageDef
  3
ISM
 90
0
 91
0
280
0
281
0
  0
CLASS
  1
IMAGEDEF_REACTOR
  2
AcDbRasterImageDefReactor
  3
ISM
 90
1
 91
0
280
0
281
0
  0
CLASS
  1
DBCOLOR
  2
AcDbColor
  3
ObjectDBX Classes
 90
0
 91
0
280
0
281
0
  0
CLASS
  1
GEODATA
  2
AcDbGeoData
  3
ObjectDBX Classes
 90
4095
 91
0
280
0
281
0
  0
CLASS
  1
MULTILEADER
  2
AcDbMLeader
  3
ObjectDBX Classes
 90
1025
 91
0
280
0
281
0
  0
CLASS
  1
PDFUNDERLAY
  2
AcDbPdfReference
  3
ObjectDBX Classes
 90
4095
 91
0
280
0
281
1
  0
CLASS
  1
PDFDEFINITION
  2
AcDbPdfDefinition
  3
ObjectDBX Classes
 90
1153
 91
0
280
0
281
0
  0
CLASS
  1
RASTERVARIABLES
  2
AcDbRasterVariables
  3
ISM
 90
0
 91
0
280
0
281
0
  0
CLASS
  1
SPATIAL_FILTER
  2
AcDbSpatialFilter
  3
ObjectDBX Classes
 90
0
 91
0
280
0
281
0
  0
CLASS
  1
ACDB_MLEADEROBJECTCONTEXTDATA_CLASS
  2
AcDbMLeaderObjectContextData
  3
ObjectDBX Classes
 90
1025
 91
0
280
0
281
0
  0
CLASS
  1
PLOTSETTINGS
  2
AcDbPlotSettings
  3
ObjectDBX Classes
 90
0
 91
0
280
0
281
0
  0
CLASS
  1
FIELD
  2
AcDbField
  3
ObjectDBX Classes
 90
1152
 91
0
280
0
281
0
  0
CLASS
  1
FIELDLIST
  2
AcDbFieldList
  3
ObjectDBX Classes
 90
1152
 91
0
280
0
281
0
  0
CLASS
  1
ACDB_MTEXTATTRIBUTEOBJECTCONTEXTDATA_CLASS
  2
AcDbMTextAttributeObjectContextData
  3
ObjectDBX Classes
 90
1153
 91
0
280
0
281
0
  0
CLASS
  1
ACDB_BLKREFOBJECTCONTEXTDATA_CLASS
  2
AcDbBlkRefObjectContextData
  3
ObjectDBX Classes
 90
1153
 91
0
280
0
281
0
  0
ENDSEC
  0
SECTION
  2
TABLES
  0
TABLE
  2
VPORT
  5
18
330
0
100
AcDbSymbolTable
 70
1
  0
VPORT
  5
26
330
18
100
AcDbSymbolTableRecord
100
AcDbViewportTableRecord
  2
*Active
 70
0
 10
0.0
 20
0.0
 11
1.0
 21
1.0
 12
0.0
 22
0.0
 13
0.0
 23
0.0
 14
0.5
 24
0.5
 15
10.0
 25
10.0
 16
0.0
 26
0.0
 36
1.0
 17
0.0
 27
0.0
 37
0.0
 40
10.0
 41
1.0
 75
0
 76
1
  0
ENDTAB
  0
TABLE
  2
LTYPE
  5
14
330
0
100
AcDbSymbolTable
 70
3
  0
LTYPE
  5
19
330
14
100
AcDbSymbolTableRecord
100
AcDbLinetypeTableRecord
  2
ByLayer
 70
0
 72
0
 73
0
 40
0.0
  0
LTYPE
  5
1A
330
14
100
AcDbSymbolTableRecord
100
AcDbLinetypeTableRecord
  2
ByBlock
 70
0
 72
0
 73
0
 40
0.0
  0
LTYPE
  5
1B
330
14
100
AcDbSymbolTableRecord
100
AcDbLinetypeTableRecord
  2
Continuous
 70
0
 72
0
 73
0
 40
0.0
  0
ENDTAB
  0
TABLE
  2
LAYER
  5
13
330
0
100
AcDbSymbolTable
 70
1
  0
LAYER
  5
1C
330
13
100
AcDbSymbolTableRecord
100
AcDbLayerTableRecord
  2
0
 70
0
 62
7
  6
Continuous
290
1
370
-3
390
0
  0
ENDTAB
  0
TABLE
  2
STYLE
  5
15
330
0
100
AcDbSymbolTable
 70
1
  0
STYLE
  5
23
330
15
100
AcDbSymbolTableRecord
100
AcDbTextStyleTableRecord
  2
Standard
 70
0
 40
0.0
 41
1.0
 42
0.0
 50
0.0
 71
0
  0
ENDTAB
  0
TABLE
  2
VIEW
  5
17
330
0
100
AcDbSymbolTable
 70
0
  0
ENDTAB
  0
TABLE
  2
UCS
  5
16
330
0
100
AcDbSymbolTable
 70
0
  0
ENDTAB
  0
TABLE
  2
APPID
  5
10
330
0
100
AcDbSymbolTable
 70
1
  0
APPID
  5
25
330
10
100
AcDbSymbolTableRecord
100
AcDbRegAppTableRecord
  2
ACAD
 70
0
  0
ENDTAB
  0
TABLE
  2
DIMSTYLE
  5
12
330
0
100
AcDbSymbolTable
 70
1
100
AcDbDimStyleTable
  0
DIMSTYLE
105
24
330
12
100
AcDbSymbolTableRecord
100
AcDbDimStyleTableRecord
  2
Standard
 70
0
  3
<>
  4
[]
 40
1.0
 41
0.18
 42
0.625
 43
3.75
 44
1.25
 45
0.0
 46
0.0
 47
0.0
 48
0.0
 49
1.0
 50
45.0
 70
0
 90
0
140
0.18
141
0.09
142
0.0
143
25.3999999999999986
144
1.0
145
0.0
146
1.0
147
0.625
148
0.0
 71
0
 72
0
 73
0
 74
0
 75
0
 76
0
 77
1
 78
8
 79
0
170
0
171
3
172
0
173
1
174
0
175
0
176
0
177
0
178
0
179
0
271
2
272
2
273
2
274
3
275
0
276
0
277
2
278
46
279
0
280
0
281
0
282
0
283
0
284
8
285
0
286
0
287
0
288
0
289
3
290
0
340
0
371
-2
372
-2
  0
ENDTAB
  0
TABLE
  2
BLOCK_RECORD
  5
11
330
0
100
AcDbSymbolTable
 70
2
  0
BLOCK_RECORD
  5
1D
330
11
100
AcDbSymbolTableRecord
100
AcDbBlockTableRecord
  2
*Model_Space
 70
0
340
0
 70
0
280
0
281
1
  0
BLOCK_RECORD
  5
20
330
11
100
AcDbSymbolTableRecord
100
AcDbBlockTableRecord
  2
*Paper_Space
 70
0
340
0
 70
0
280
0
281
1
  0
ENDTAB
  0
ENDSEC
  0
SECTION
  2
BLOCKS
  0
BLOCK
  5
1E
330
1D
100
AcDbEntity
  8
0
  6
ByLayer
 62
256
 48
1.0
 60
0
 67
0
370
-1
100
AcDbBlockBegin
  2
*Model_Space
 70
0
 10
0.0
 20
0.0
 30
0.0
  3
*Model_Space
  0
ENDBLK
  5
1F
330
1D
100
AcDbEntity
  8
0
100
AcDbBlockEnd
  0
BLOCK
  5
21
330
20
100
AcDbEntity
  8
0
  6
ByLayer
 62
256
 48
1.0
 60
0
 67
1
370
-1
100
AcDbBlockBegin
  2
*Paper_Space
 70
0
 10
0.0
 20
0.0
 30
0.0
  3
*Paper_Space
  0
ENDBLK
  5
22
330
20
100
AcDbEntity
  8
0
100
AcDbBlockEnd
  0
ENDSEC
  0
SECTION
  2
ENTITIES
  0
HATCH
  5
27
330
1D
100
AcDbEntity
  8
0
  6
ByLayer
420
3965183
 48
1.0
 60
0
 67
0
370
-1
100
AcDbHatch
 30
0.0
210
0.0
220
0.0
230
1.0
  2
SOLID
 70
1
 71
0
 91
1
 92
2
 72
0
 73
1
 93
4
 10
0.0
 20
720.0
 10
1280.0
 20
720.0
 10
1280.0
 20
0.0
 10
0.0
 20
0.0
 97
0
 75
0
 76
1
 47
0.0
 98
0
  0
LWPOLYLINE
  5
28
330
1D
100
AcDbEntity
  8
0
  6
ByLayer
420
3965183
 48
1.0
 60
0
 67
0
370
-1
100
AcDbPolyline
 90
4
 70
1
 43
0.0
 38
0.0
 39
0.0
210
0.0
220
0.0
230
1.0
 10
0.0
 20
720.0
 40
0.0
 41
0.0
 42
0.0
 10
1280.0
 20
720.0
 40
0.0
 41
0.0
 42
0.0
 10
1280.0
 20
0.0
 40
0.0
 41
0.0
 42
0.0
 10
0.0
 20
0.0
 40
0.0
 41
0.0
 42
0.0
  0
HATCH
  5
29
330
1D
100
AcDbEntity
  8
0
  6
ByLayer
420
16777215
 48
1.0
 60
0
 67
0
370
-1
100
AcDbHatch
 30
0.0
210
0.0
220
0.0
230
1.0
  2
SOLID
 70
1
 71
0
 91
1
 92
2
 72
0
 73
1
 93
41
 10
284.0
 20
578.350006103515625
 10
996.0
 20
578.350006103515625
 10
996.0
 20
578.350006103515625
 10
1001.46252901645164
 20
577.8119939548060984
 10
1006.7151361062225305
 20
576.2186330138316634
 10
1011.5559665245489214
 20
573.6311552479869533
 10
1015.7989898732233769
 20
570.1489959767388882
 10
1019.2811491444712146
 20
565.9059726280645464
 10
1021.8686269103160384
 20
561.0651422097381555
 10
1023.4619878512904734
 20
555.8125351199671513
 10
1024.0
 20
550.350006103515625
 10
1024.0
 20
169.6500244140625
 10
1024.0
 20
169.6500244140625
 10
1023.4619878512904734
 20
164.18749539761086
 10
1021.8686269103160384
 20
158.9348883078399695
 10
1019.2811491444712146
 20
154.0940578895136923
 10
1015.7989898732233769
 20
149.8510345408391231
 10
1011.5559665245489214
 20
146.3688752695912854
 10
1006.7151361062225305
 20
143.7813975037464616
 10
1001.46252901645164
 20
142.1880365627720266
 10
996.0
 20
141.6500244140625
 10
284.0
 20
141.6500244140625
 10
284.0
 20
141.6500244140625
 10
278.5374709835484168
 20
142.1880365627720266
 10
273.2848638937774695
 20
143.7813975037464616
 10
268.4440334754511355
 20
146.3688752695911717
 10
264.20101012677668
 20
149.8510345408391231
 10
260.7188508555287285
 20
154.0940578895136923
 10
258.1313730896839616
 20
158.9348883078399695
 10
256.5380121487095266
 20
164.18749539761086
 10
256.0
 20
169.6500244140625
 10
256.0
 20
550.350006103515625
 10
256.0
 20
550.350006103515625
 10
256.5380121487095266
 20
555.8125351199671513
 10
258.1313730896839616
 20
561.0651422097381555
 10
260.7188508555287285
 20
565.9059726280645464
 10
264.20101012677668
 20
570.1489959767388882
 10
268.4440334754511355
 20
573.6311552479869533
 10
273.2848638937774695
 20
576.2186330138316634
 10
278.5374709835484168
 20
577.8119939548060984
 10
284.0
 20
578.350006103515625
 97
0
 75
0
 76
1
 47
0.0
 98
0
  0
LWPOLYLINE
  5
2A
330
1D
100
AcDbEntity
  8
0
  6
ByLayer
420
16777215
 48
1.0
 60
0
 67
0
370
-1
100
AcDbPolyline
 90
41
 70
1
 43
0.0
 38
0.0
 39
0.0
210
0.0
220
0.0
230
1.0
 10
284.0
 20
578.350006103515625
 40
0.0
 41
0.0
 42
0.0
 10
996.0
 20
578.350006103515625
 40
0.0
 41
0.0
 42
0.0
 10
996.0
 20
578.350006103515625
 40
0.0
 41
0.0
 42
0.0
 10
1001.46252901645164
 20
577.8119939548060984
 40
0.0
 41
0.0
 42
0.0
 10
1006.7151361062225305
 20
576.2186330138316634
 40
0.0
 41
0.0
 42
0.0
 10
1011.5559665245489214
 20
573.6311552479869533
 40
0.0
 41
0.0
 42
0.0
 10
1015.7989898732233769
 20
570.1489959767388882
 40
0.0
 41
0.0
 42
0.0
 10
1019.2811491444712146
 20
565.9059726280645464
 40
0.0
 41
0.0
 42
0.0
 10
1021.8686269103160384
 20
561.0651422097381555
 40
0.0
 41
0.0
 42
0.0
 10
1023.4619878512904734
 20
555.8125351199671513
 40
0.0
 41
0.0
 42
0.0
 10
1024.0
 20
550.350006103515625
 40
0.0
 41
0.0
 42
0.0
 10
1024.0
 20
169.6500244140625
 40
0.0
 41
0.0
 42
0.0
 10
1024.0
 20
169.6500244140625
 40
0.0
 41
0.0
 42
0.0
 10
1023.4619878512904734
 20
164.18749539761086
 40
0.0
 41
0.0
 42
0.0
 10
1021.8686269103160384
 20
158.9348883078399695
 40
0.0
 41
0.0
 42
0.0
 10
1019.2811491444712146
 20
154.0940578895136923
 40
0.0
 41
0.0
 42
0.0
 10
1015.7989898732233769
 20
149.8510345408391231
 40
0.0
 41
0.0
 42
0.0
 10
1011.5559665245489214
 20
146.3688752695912854
 40
0.0
 41
0.0
 42
0.0
 10
1006.7151361062225305
 20
143.7813975037464616
 40
0.0
 41
0.0
 42
0.0
 10
1001.46252901645164
 20
142.1880365627720266
 40
0.0
 41
0.0
 42
0.0
 10
996.0
 20
141.6500244140625
 40
0.0
 41
0.0
 42
0.0
 10
284.0
 20
141.6500244140625
 40
0.0
 41
0.0
 42
0.0
 10
284.0
 20
141.6500244140625
 40
0.0
 41
0.0
 42
0.0
 10
278.5374709835484168
 20
142.1880365627720266
 40
0.0
 41
0.0
 42
0.0
 10
273.2848638937774695
 20
143.7813975037464616
 40
0.0
 41
0.0
 42
0.0
 10
268.4440334754511355
 20
146.3688752695911717
 40
0.0
 41
0.0
 42
0.0
 10
264.20101012677668
 20
149.8510345408391231
 40
0.0
 41
0.0
 42
0.0
 10
260.7188508555287285
 20
154.0940578895136923
 40
0.0
 41
0.0
 42
0.0
 10
258.1313730896839616
 20
158.9348883078399695
 40
0.0
 41
0.0
 42
0.0
 10
256.5380121487095266
 20
164.18749539761086
 40
0.0
 41
0.0
 42
0.0
 10
256.0
 20
169.6500244140625
 40
0.0
 41
0.0
 42
0.0
 10
256.0
 20
550.350006103515625
 40
0.0
 41
0.0
 42
0.0
 10
256.0
 20
550.350006103515625
 40
0.0
 41
0.0
 42
0.0
 10
256.5380121487095266
 20
555.8125351199671513
 40
0.0
 41
0.0
 42
0.0
 10
258.1313730896839616
 20
561.0651422097381555
 40
0.0
 41
0.0
 42
0.0
 10
260.7188508555287285
 20
565.9059726280645464
 40
0.0
 41
0.0
 42
0.0
 10
264.20101012677668
 20
570.1489959767388882
 40
0.0
 41
0.0
 42
0.0
 10
268.4440334754511355
 20
573.6311552479869533
 40
0.0
 41
0.0
 42
0.0
 10
273.2848638937774695
 20
576.2186330138316634
 40
0.0
 41
0.0
 42
0.0
 10
278.5374709835484168
 20
577.8119939548060984
 40
0.0
 41
0.0
 42
0.0
 10
284.0
 20
578.350006103515625
 40
0.0
 41
0.0
 42
0.0
  0
TEXT
  5
2B
330
1D
100
AcDbEntity
  8
0
  6
ByLayer
420
3496586
 48
1.0
 60
0
 67
0
370
-1
100
AcDbText
 39
0.0
 10
280.0
 20
542.350006103515625
 30
0.0
 40
12.0
  1
MEDIA EXPORT
 50
0.0
 41
1.0
 51
0.0
  7
Standard
 71
0
 72
0
 11
0.0
 21
0.0
 31
0.0
210
0.0
220
0.0
230
1.0
100
AcDbText
 73
0
  0
TEXT
  5
2C
330
1D
100
AcDbEntity
  8
0
  6
ByLayer
420
1057082
 48
1.0
 60
0
 67
0
370
-1
100
AcDbText
 39
0.0
 10
280.0
 20
500.0
 30
0.0
 40
34.0
  1
First-frame video export
 50
0.0
 41
1.0
 51
0.0
  7
Standard
 71
0
 72
0
 11
0.0
 21
0.0
 31
0.0
210
0.0
220
0.0
230
1.0
100
AcDbText
 73
0
  0
TEXT
  5
2D
330
1D
100
AcDbEntity
  8
0
  6
ByLayer
420
3690607
 48
1.0
 60
0
 67
0
370
-1
100
AcDbText
 39
0.0
 10
280.0
 20
466.649993896484375
 30
0.0
 40
16.0
  1
This demo generates a short clip in the browser and keeps the first decoded frame available for
 50
0.0
 41
1.0
 51
0.0
  7
Standard
 71
0
 72
0
 11
0.0
 21
0.0
 31
0.0
210
0.0
220
0.0
230
1.0
100
AcDbText
 73
0
  0
TEXT
  5
2E
330
1D
100
AcDbEntity
  8
0
  6
ByLayer
420
3690607
 48
1.0
 60
0
 67
0
370
-1
100
AcDbText
 39
0.0
 10
280.0
 20
442.649993896484375
 30
0.0
 40
16.0
  1
export.
 50
0.0
 41
1.0
 51
0.0
  7
Standard
 71
0
 72
0
 11
0.0
 21
0.0
 31
0.0
210
0.0
220
0.0
230
1.0
100
AcDbText
 73
0
  0
HATCH
  5
2F
330
1D
100
AcDbEntity
  8
0
  6
ByLayer
420
726826
 48
1.0
 60
0
 67
0
370
-1
100
AcDbHatch
 30
0.0
210
0.0
220
0.0
230
1.0
  2
SOLID
 70
1
 71
0
 91
1
 92
2
 72
0
 73
1
 93
41
 10
302.0
 20
412.649993896484375
 10
978.0
 20
412.649993896484375
 10
978.0
 20
412.649993896484375
 10
982.2919870843547869
 20
412.2272700653554693
 10
986.4190355120319964
 20
410.9753436117326828
 10
990.2225451264312142
 20
408.94232536714037
 10
993.5563491861040575
 20
406.2063430825884325
 10
996.292331470655995
 20
402.872539022915646
 10
998.3253497152483078
 20
399.0690294085163714
 10
999.5772761688710943
 20
394.9419809808392188
 10
1000.0
 20
390.649993896484375
 10
1000.0
 20
187.6500244140625
 10
1000.0
 20
187.6500244140625
 10
999.5772761688710943
 20
183.3580373297077131
 10
998.3253497152483078
 20
179.2309889020305036
 10
996.292331470655995
 20
175.4274792876312858
 10
993.5563491861040575
 20
172.0936752279584425
 10
990.2225451264312142
 20
169.357692943406505
 10
986.4190355120319964
 20
167.3246746988141922
 10
982.2919870843547869
 20
166.0727482451914057
 10
978.0
 20
165.6500244140625
 10
302.0
 20
165.6500244140625
 10
302.0
 20
165.6500244140625
 10
297.7080129156451562
 20
166.0727482451914057
 10
293.5809644879680036
 20
167.3246746988141922
 10
289.7774548735687858
 20
169.357692943406505
 10
286.4436508138959425
 20
172.0936752279584425
 10
283.707668529344005
 20
175.4274792876312858
 10
281.6746502847516922
 20
179.2309889020305036
 10
280.4227238311289057
 20
183.3580373297077131
 10
280.0
 20
187.6500244140625
 10
280.0
 20
390.649993896484375
 10
280.0
 20
390.649993896484375
 10
280.4227238311289057
 20
394.9419809808392188
 10
281.6746502847516922
 20
399.0690294085163714
 10
283.707668529344005
 20
402.8725390229155892
 10
286.4436508138959425
 20
406.2063430825884325
 10
289.777454873568729
 20
408.94232536714037
 10
293.5809644879680036
 20
410.9753436117326828
 10
297.7080129156451562
 20
412.2272700653554693
 10
302.0
 20
412.649993896484375
 97
0
 75
0
 76
1
 47
0.0
 98
0
  0
LWPOLYLINE
  5
30
330
1D
100
AcDbEntity
  8
0
  6
ByLayer
420
726826
 48
1.0
 60
0
 67
0
370
-1
100
AcDbPolyline
 90
41
 70
1
 43
0.0
 38
0.0
 39
0.0
210
0.0
220
0.0
230
1.0
 10
302.0
 20
412.649993896484375
 40
0.0
 41
0.0
 42
0.0
 10
978.0
 20
412.649993896484375
 40
0.0
 41
0.0
 42
0.0
 10
978.0
 20
412.649993896484375
 40
0.0
 41
0.0
 42
0.0
 10
982.2919870843547869
 20
412.2272700653554693
 40
0.0
 41
0.0
 42
0.0
 10
986.4190355120319964
 20
410.9753436117326828
 40
0.0
 41
0.0
 42
0.0
 10
990.2225451264312142
 20
408.94232536714037
 40
0.0
 41
0.0
 42
0.0
 10
993.5563491861040575
 20
406.2063430825884325
 40
0.0
 41
0.0
 42
0.0
 10
996.292331470655995
 20
402.872539022915646
 40
0.0
 41
0.0
 42
0.0
 10
998.3253497152483078
 20
399.0690294085163714
 40
0.0
 41
0.0
 42
0.0
 10
999.5772761688710943
 20
394.9419809808392188
 40
0.0
 41
0.0
 42
0.0
 10
1000.0
 20
390.649993896484375
 40
0.0
 41
0.0
 42
0.0
 10
1000.0
 20
187.6500244140625
 40
0.0
 41
0.0
 42
0.0
 10
1000.0
 20
187.6500244140625
 40
0.0
 41
0.0
 42
0.0
 10
999.5772761688710943
 20
183.3580373297077131
 40
0.0
 41
0.0
 42
0.0
 10
998.3253497152483078
 20
179.2309889020305036
 40
0.0
 41
0.0
 42
0.0
 10
996.292331470655995
 20
175.4274792876312858
 40
0.0
 41
0.0
 42
0.0
 10
993.5563491861040575
 20
172.0936752279584425
 40
0.0
 41
0.0
 42
0.0
 10
990.2225451264312142
 20
169.357692943406505
 40
0.0
 41
0.0
 42
0.0
 10
986.4190355120319964
 20
167.3246746988141922
 40
0.0
 41
0.0
 42
0.0
 10
982.2919870843547869
 20
166.0727482451914057
 40
0.0
 41
0.0
 42
0.0
 10
978.0
 20
165.6500244140625
 40
0.0
 41
0.0
 42
0.0
 10
302.0
 20
165.6500244140625
 40
0.0
 41
0.0
 42
0.0
 10
302.0
 20
165.6500244140625
 40
0.0
 41
0.0
 42
0.0
 10
297.7080129156451562
 20
166.0727482451914057
 40
0.0
 41
0.0
 42
0.0
 10
293.5809644879680036
 20
167.3246746988141922
 40
0.0
 41
0.0
 42
0.0
 10
289.7774548735687858
 20
169.357692943406505
 40
0.0
 41
0.0
 42
0.0
 10
286.4436508138959425
 20
172.0936752279584425
 40
0.0
 41
0.0
 42
0.0
 10
283.707668529344005
 20
175.4274792876312858
 40
0.0
 41
0.0
 42
0.0
 10
281.6746502847516922
 20
179.2309889020305036
 40
0.0
 41
0.0
 42
0.0
 10
280.4227238311289057
 20
183.3580373297077131
 40
0.0
 41
0.0
 42
0.0
 10
280.0
 20
187.6500244140625
 40
0.0
 41
0.0
 42
0.0
 10
280.0
 20
390.649993896484375
 40
0.0
 41
0.0
 42
0.0
 10
280.0
 20
390.649993896484375
 40
0.0
 41
0.0
 42
0.0
 10
280.4227238311289057
 20
394.9419809808392188
 40
0.0
 41
0.0
 42
0.0
 10
281.6746502847516922
 20
399.0690294085163714
 40
0.0
 41
0.0
 42
0.0
 10
283.707668529344005
 20
402.8725390229155892
 40
0.0
 41
0.0
 42
0.0
 10
286.4436508138959425
 20
406.2063430825884325
 40
0.0
 41
0.0
 42
0.0
 10
289.777454873568729
 20
408.94232536714037
 40
0.0
 41
0.0
 42
0.0
 10
293.5809644879680036
 20
410.9753436117326828
 40
0.0
 41
0.0
 42
0.0
 10
297.7080129156451562
 20
412.2272700653554693
 40
0.0
 41
0.0
 42
0.0
 10
302.0
 20
412.649993896484375
 40
0.0
 41
0.0
 42
0.0
  0
HATCH
  5
31
330
1D
100
AcDbEntity
  8
0
  6
ByLayer
420
593948
 48
1.0
 60
0
 67
0
370
-1
100
AcDbHatch
 30
0.0
210
0.0
220
0.0
230
1.0
  2
SOLID
 70
1
 71
0
 91
1
 92
2
 72
0
 73
1
 93
41
 10
498.0
 20
394.649993896484375
 10
782.0
 20
394.649993896484375
 10
782.0
 20
394.649993896484375
 10
785.5116257962903319
 20
394.3041289437425121
 10
788.8883017825716024
 20
393.2798254816875101
 10
792.0002641943528943
 20
391.6164469179302046
 10
794.7279220613578445
 20
389.3779159578422195
 10
796.9664530214457727
 20
386.6502580908372124
 10
798.6298315852031919
 20
383.5382956790559774
 10
799.6541350472581371
 20
380.1616196927747069
 10
800.0
 20
376.649993896484375
 10
800.0
 20
232.649993896484375
 10
800.0
 20
232.649993896484375
 10
799.6541350472581371
 20
229.1383681001940431
 10
798.6298315852031919
 20
225.7616921139127726
 10
796.9664530214457727
 20
222.6497297021315376
 10
794.7279220613578445
 20
219.9220718351265305
 10
792.0002641943528943
 20
217.6835408750385454
 10
788.8883017825716024
 20
216.0201623112812399
 10
785.5116257962903319
 20
214.9958588492262379
 10
782.0
 20
214.649993896484375
 10
498.0
 20
214.649993896484375
 10
498.0
 20
214.649993896484375
 10
494.4883742037096681
 20
214.9958588492262379
 10
491.1116982174283976
 20
216.0201623112812399
 10
487.9997358056471626
 20
217.6835408750385454
 10
485.2720779386421555
 20
219.9220718351265305
 10
483.0335469785541704
 20
222.6497297021315376
 10
481.3701684147968649
 20
225.7616921139127726
 10
480.3458649527418629
 20
229.1383681001940431
 10
480.0
 20
232.649993896484375
 10
480.0
 20
376.649993896484375
 10
480.0
 20
376.649993896484375
 10
480.3458649527418629
 20
380.1616196927747069
 10
481.3701684147968081
 20
383.5382956790559774
 10
483.0335469785541704
 20
386.6502580908372124
 10
485.2720779386421555
 20
389.3779159578422195
 10
487.9997358056471626
 20
391.6164469179302046
 10
491.1116982174283976
 20
393.2798254816875101
 10
494.4883742037096681
 20
394.3041289437425121
 10
498.0
 20
394.649993896484375
 97
0
 75
0
 76
1
 47
0.0
 98
0
  0
LWPOLYLINE
  5
32
330
1D
100
AcDbEntity
  8
0
  6
ByLayer
420
593948
 48
1.0
 60
0
 67
0
370
-1
100
AcDbPolyline
 90
41
 70
1
 43
0.0
 38
0.0
 39
0.0
210
0.0
220
0.0
230
1.0
 10
498.0
 20
394.649993896484375
 40
0.0
 41
0.0
 42
0.0
 10
782.0
 20
394.649993896484375
 40
0.0
 41
0.0
 42
0.0
 10
782.0
 20
394.649993896484375
 40
0.0
 41
0.0
 42
0.0
 10
785.5116257962903319
 20
394.3041289437425121
 40
0.0
 41
0.0
 42
0.0
 10
788.8883017825716024
 20
393.2798254816875101
 40
0.0
 41
0.0
 42
0.0
 10
792.0002641943528943
 20
391.6164469179302046
 40
0.0
 41
0.0
 42
0.0
 10
794.7279220613578445
 20
389.3779159578422195
 40
0.0
 41
0.0
 42
0.0
 10
796.9664530214457727
 20
386.6502580908372124
 40
0.0
 41
0.0
 42
0.0
 10
798.6298315852031919
 20
383.5382956790559774
 40
0.0
 41
0.0
 42
0.0
 10
799.6541350472581371
 20
380.1616196927747069
 40
0.0
 41
0.0
 42
0.0
 10
800.0
 20
376.649993896484375
 40
0.0
 41
0.0
 42
0.0
 10
800.0
 20
232.649993896484375
 40
0.0
 41
0.0
 42
0.0
 10
800.0
 20
232.649993896484375
 40
0.0
 41
0.0
 42
0.0
 10
799.6541350472581371
 20
229.1383681001940431
 40
0.0
 41
0.0
 42
0.0
 10
798.6298315852031919
 20
225.7616921139127726
 40
0.0
 41
0.0
 42
0.0
 10
796.9664530214457727
 20
222.6497297021315376
 40
0.0
 41
0.0
 42
0.0
 10
794.7279220613578445
 20
219.9220718351265305
 40
0.0
 41
0.0
 42
0.0
 10
792.0002641943528943
 20
217.6835408750385454
 40
0.0
 41
0.0
 42
0.0
 10
788.8883017825716024
 20
216.0201623112812399
 40
0.0
 41
0.0
 42
0.0
 10
785.5116257962903319
 20
214.9958588492262379
 40
0.0
 41
0.0
 42
0.0
 10
782.0
 20
214.649993896484375
 40
0.0
 41
0.0
 42
0.0
 10
498.0
 20
214.649993896484375
 40
0.0
 41
0.0
 42
0.0
 10
498.0
 20
214.649993896484375
 40
0.0
 41
0.0
 42
0.0
 10
494.4883742037096681
 20
214.9958588492262379
 40
0.0
 41
0.0
 42
0.0
 10
491.1116982174283976
 20
216.0201623112812399
 40
0.0
 41
0.0
 42
0.0
 10
487.9997358056471626
 20
217.6835408750385454
 40
0.0
 41
0.0
 42
0.0
 10
485.2720779386421555
 20
219.9220718351265305
 40
0.0
 41
0.0
 42
0.0
 10
483.0335469785541704
 20
222.6497297021315376
 40
0.0
 41
0.0
 42
0.0
 10
481.3701684147968649
 20
225.7616921139127726
 40
0.0
 41
0.0
 42
0.0
 10
480.3458649527418629
 20
229.1383681001940431
 40
0.0
 41
0.0
 42
0.0
 10
480.0
 20
232.649993896484375
 40
0.0
 41
0.0
 42
0.0
 10
480.0
 20
376.649993896484375
 40
0.0
 41
0.0
 42
0.0
 10
480.0
 20
376.649993896484375
 40
0.0
 41
0.0
 42
0.0
 10
480.3458649527418629
 20
380.1616196927747069
 40
0.0
 41
0.0
 42
0.0
 10
481.3701684147968081
 20
383.5382956790559774
 40
0.0
 41
0.0
 42
0.0
 10
483.0335469785541704
 20
386.6502580908372124
 40
0.0
 41
0.0
 42
0.0
 10
485.2720779386421555
 20
389.3779159578422195
 40
0.0
 41
0.0
 42
0.0
 10
487.9997358056471626
 20
391.6164469179302046
 40
0.0
 41
0.0
 42
0.0
 10
491.1116982174283976
 20
393.2798254816875101
 40
0.0
 41
0.0
 42
0.0
 10
494.4883742037096681
 20
394.3041289437425121
 40
0.0
 41
0.0
 42
0.0
 10
498.0
 20
394.649993896484375
 40
0.0
 41
0.0
 42
0.0
  0
TEXT
  5
33
330
1D
100
AcDbEntity
  8
0
  6
ByLayer
420
10203855
 48
1.0
 60
0
 67
0
370
-1
100
AcDbText
 39
0.0
 10
574.08331298828125
 20
188.9000244140625
 30
0.0
 40
13.0
  1
Video ready for export.
 50
0.0
 41
1.0
 51
0.0
  7
Standard
 71
0
 72
0
 11
0.0
 21
0.0
 31
0.0
210
0.0
220
0.0
230
1.0
100
AcDbText
 73
0
  0
ENDSEC
  0
SECTION
  2
OBJECTS
  0
DICTIONARY
  5
1
330
0
100
AcDbDictionary
280
0
281
0
  3
ACAD_COLOR
350
2
  3
ACAD_GROUP
350
3
  3
ACAD_LAYOUT
350
4
  3
ACAD_MATERIAL
350
5
  3
ACAD_SORTENTS
350
6
  3
ACAD_MLEADERSTYLE
350
7
  3
ACAD_MLINESTYLE
350
8
  3
ACAD_TABLESTYLE
350
9
  3
ACAD_PLOTSETTINGS
350
A
  3
AcDbVariableDictionary
350
B
  3
ACAD_SCALELIST
350
C
  3
ACAD_VISUALSTYLE
350
D
  3
ACAD_FIELDLIST
350
E
  3
ACAD_IMAGE_DICT
350
F
  0
DICTIONARY
  5
2
330
1
100
AcDbDictionary
280
0
281
0
  0
DICTIONARY
  5
3
330
1
100
AcDbDictionary
280
0
281
0
  0
DICTIONARY
  5
4
330
1
100
AcDbDictionary
280
0
281
0
  0
DICTIONARY
  5
5
330
1
100
AcDbDictionary
280
0
281
0
  0
DICTIONARY
  5
6
330
1
100
AcDbDictionary
280
0
281
0
  0
DICTIONARY
  5
7
330
1
100
AcDbDictionary
280
0
281
0
  0
DICTIONARY
  5
8
330
1
100
AcDbDictionary
280
0
281
0
  0
DICTIONARY
  5
9
330
1
100
AcDbDictionary
280
0
281
0
  0
DICTIONARY
  5
A
330
1
100
AcDbDictionary
280
0
281
0
  0
DICTIONARY
  5
B
330
1
100
AcDbDictionary
280
0
281
0
  0
DICTIONARY
  5
C
330
1
100
AcDbDictionary
280
0
281
0
  0
DICTIONARY
  5
D
330
1
100
AcDbDictionary
280
0
281
0
  0
DICTIONARY
  5
E
330
1
100
AcDbDictionary
280
0
281
0
  0
DICTIONARY
  5
F
330
1
100
AcDbDictionary
280
0
281
0
  0
ENDSEC
  0
EOF
